<svg id="Capa_1" enable-background="new 0 0 514.161 514.161" height="512" viewBox="0 0 514.161 514.161" width="512" xmlns="http://www.w3.org/2000/svg"><g><g><path d="m360.626 321.404c0 66.947-53.275 121.218-118.994 121.218s-118.994-54.271-118.994-121.218c0-40.094 42.68-120.844 76.919-179.171 19.028-32.415 65.123-32.415 84.151 0 34.238 58.328 76.918 139.077 76.918 179.171z" fill="#f5cd8b"/><path d="m276.611 132.811c-44.489 79.553-67.019 137.093-67.019 171.277 0 54.985 28.143 103.515 70.776 131.961 46.7-16.371 80.259-61.513 80.259-114.644 0-40.094-42.68-120.844-76.919-179.171-2.066-3.519-4.463-6.669-7.097-9.423z" fill="#f4c67b"/><path d="m506.66 304.088c0 76.51-62.024 138.534-138.534 138.534s-138.534-62.024-138.534-138.534c0-45.822 49.689-138.107 89.55-204.766 22.152-37.045 75.817-37.045 97.969 0 39.861 66.659 89.549 158.944 89.549 204.766z" fill="#f7d8a4"/><path d="m420.342 432.061c-76.51 0-138.534-62.024-138.534-138.534 0-45.822 49.689-138.106 89.55-204.766 3.547-5.931 7.932-10.922 12.835-14.953-23.539-6.796-50.813 1.705-65.051 25.515-39.861 66.66-89.55 158.945-89.55 204.766 0 76.51 62.024 138.534 138.534 138.534 18.834 0 36.798-3.762 53.167-10.57-.314.002-.637.008-.951.008z" fill="#f5cd8b"/><path d="m441.363 309.365c0 40.448-32.789 73.237-73.237 73.237s-73.237-32.789-73.237-73.237c0-21.644 20.971-60.203 40.47-91.375 15.131-24.191 50.403-24.191 65.534 0 19.499 31.172 40.47 69.73 40.47 91.375z" fill="#fcf6ed"/><path d="m187.504 381.641 2.421-13.498c8.72-3.881 14.817-12.622 14.817-22.766v-13.923c0-11.589-7.955-21.354-18.691-24.124l-9.031-7.168c-5.807-4.609-8.113-12.338-5.818-19.387 13.752-42.25 43.917-98.097 69.406-141.52 4.723-8.047 11.131-14.103 18.362-18.155-20.961-7.972-46.462-.93-59.414 21.133-34.238 58.327-76.919 139.077-76.919 179.171 0 66.947 53.275 121.218 118.994 121.218 9.963 0 19.647-1.254 28.896-3.604-31.876-3.297-60.042-19.412-79.435-43.204-3.221-3.953-4.489-9.152-3.588-14.173z" fill="#f4c67b"/><path d="m176.991 355.288-13.038 72.695c-1.52 8.472-8.89 14.639-17.498 14.639h-95.668c-8.607 0-15.978-6.166-17.498-14.639l-13.038-72.695-2.841-16.872h162.421z" fill="#fcf1de"/><path d="m40.223 338.416h-22.812l2.841 16.872 13.038 72.695c1.52 8.472 8.89 14.639 17.498 14.639h95.668c8.607 0 15.978-6.167 17.497-14.639l.401-2.233h-93.595c-8.607 0-15.978-6.166-17.498-14.639l-4.139-23.077c-1.659-9.248 5.451-17.746 14.847-17.746h110.331l2.69-15 2.841-16.872z" fill="#f6e2c4"/><path d="m179.831 321.545-26.554-21.078c-32.008-25.408-77.305-25.408-109.313 0l-26.554 21.078-2.932 2.652c-3.945 3.568-4.58 9.531-1.474 13.849l4.406 6.126h164.023l2.097-2.359c4.658-5.24 4.185-13.264-1.056-17.92z" fill="#fdf5cb"/><path d="m47.163 341.066c-3.106-4.319-2.472-10.281 1.474-13.85l2.932-2.652 26.554-21.079c13.393-10.631 29.105-16.806 45.203-18.541-26.771-7.832-56.462-2.656-79.361 15.521l-26.554 21.079-2.932 2.652c-3.945 3.568-4.58 9.531-1.474 13.85l4.406 6.126h31.986z" fill="#fcf0b6"/><path d="m179.831 355.288h-162.42c-5.474 0-9.911-4.437-9.911-9.911v-13.922c0-5.474 4.437-9.911 9.911-9.911h162.421c5.474 0 9.911 4.437 9.911 9.911v13.922c-.001 5.474-4.438 9.911-9.912 9.911z" fill="#fcf6ed"/><path d="m35.846 343.229c-5.474 0-9.911-4.437-9.911-9.911v-11.774h-8.525c-5.474 0-9.911 4.437-9.911 9.911v13.922c0 5.474 4.437 9.911 9.911 9.911h162.421c5.474 0 9.911-4.437 9.911-9.911v-2.148z" fill="#fcf1de"/></g><g><path d="m462.982 165.145c-1.938-3.661-6.477-5.058-10.138-3.118-3.661 1.938-5.057 6.477-3.118 10.138 32.34 61.075 49.435 106.693 49.435 131.923 0 72.253-58.782 131.035-131.035 131.035-72.252 0-131.034-58.782-131.034-131.035 0-34.139 31.425-105.492 88.487-200.917 9.036-15.111 24.941-24.133 42.547-24.133 17.605 0 33.512 9.021 42.548 24.134 8.392 14.032 16.393 27.828 23.781 41.005 2.026 3.613 6.597 4.9 10.21 2.874s4.899-6.597 2.874-10.21c-7.457-13.298-15.528-27.216-23.991-41.367-11.771-19.685-32.489-31.436-55.422-31.436s-43.651 11.751-55.421 31.435c-7.661 12.811-15.594 26.419-23.436 40.388-10.708-15.463-28.018-24.582-47.048-24.582-20.353 0-38.74 10.43-49.186 27.898-8.453 14.136-16.438 27.971-23.734 41.119-2.01 3.622-.703 8.187 2.919 10.196 1.153.64 2.401.943 3.632.943 2.637 0 5.195-1.393 6.565-3.862 7.218-13.007 15.122-26.7 23.492-40.698 7.712-12.897 21.286-20.597 36.312-20.597s28.6 7.699 36.312 20.597c.797 1.333 1.599 2.679 2.404 4.035-31.228 57.245-58.846 117.857-58.846 153.178 0 50.708 25.983 95.454 65.329 121.645-14.189 6.163-29.589 9.39-45.199 9.39-24.444 0-48.374-7.993-67.88-22.575l8.988-50.113c7.93-1.624 13.913-8.655 13.913-17.057v-13.923c0-8.59-6.261-15.73-14.455-17.14l-24.846-19.722c-6.271-4.978-13.136-9.119-20.394-12.357 6.451-18.385 16.434-40.702 29.754-66.486 1.901-3.681.459-8.205-3.221-10.105-3.681-1.902-8.205-.459-10.106 3.221-13.623 26.372-23.866 49.307-30.555 68.362-8.053-2.174-16.393-3.317-24.798-3.317-21.451 0-42.518 7.346-59.32 20.683l-24.846 19.722c-8.194 1.409-14.455 8.549-14.455 17.139v13.923c0 8.402 5.984 15.433 13.913 17.057l11.994 66.873c2.163 12.061 12.626 20.814 24.88 20.814h95.668c12.253 0 22.717-8.754 24.88-20.814l.09-.504c20.895 13.803 45.6 21.32 70.796 21.32 21.281 0 42.229-5.286 60.85-15.318 19.601 9.795 41.693 15.318 65.055 15.318 80.524 0 146.035-65.511 146.035-146.035 0-28.064-17.219-74.81-51.179-138.944zm-445.571 182.643c-1.329 0-2.411-1.081-2.411-2.41v-13.923c0-1.329 1.082-2.41 2.411-2.41h162.421c1.329 0 2.411 1.081 2.411 2.41v13.923c0 1.329-1.082 2.41-2.411 2.41zm31.216-41.447c29.435-23.365 70.552-23.365 99.987 0l9.706 7.704h-119.398zm107.943 120.318c-.879 4.904-5.133 8.463-10.115 8.463h-95.668c-4.982 0-9.236-3.559-10.115-8.463l-11.455-63.871h138.809z"/><path d="m313.667 255.337c-3.711-1.841-8.21-.325-10.052 3.386-10.918 22.011-16.226 38.576-16.226 50.643 0 44.519 36.218 80.736 80.737 80.736s80.737-36.218 80.737-80.736c0-19.129-14-51.21-41.612-95.354-8.486-13.566-23.112-21.666-39.125-21.666s-30.64 8.1-39.125 21.666c-3.325 5.315-6.53 10.589-9.526 15.676-2.103 3.568-.914 8.166 2.655 10.269 3.568 2.103 8.167.916 10.269-2.655 2.93-4.973 6.065-10.132 9.319-15.334 5.727-9.155 15.599-14.621 26.409-14.621s20.682 5.466 26.409 14.621c25.361 40.546 39.329 71.585 39.329 87.398 0 36.247-29.49 65.736-65.737 65.736s-65.737-29.489-65.737-65.736c0-6.577 2.544-19.545 14.664-43.977 1.839-3.712.322-8.212-3.388-10.052z"/><path d="m350.342 264.58c4.142 0 7.5-3.357 7.5-7.5s-3.358-7.5-7.5-7.5h-4.831c-4.142 0-7.5 3.357-7.5 7.5s3.358 7.5 7.5 7.5z"/><path d="m387.667 262.294h-4.391c-4.142 0-7.5 3.357-7.5 7.5s3.358 7.5 7.5 7.5h4.391c4.142 0 7.5-3.357 7.5-7.5s-3.358-7.5-7.5-7.5z"/><path d="m327.913 307.997c0 4.143 3.358 7.5 7.5 7.5h7.025c4.142 0 7.5-3.357 7.5-7.5s-3.358-7.5-7.5-7.5h-7.025c-4.142 0-7.5 3.357-7.5 7.5z"/><path d="m380.167 303.167c0 4.143 3.358 7.5 7.5 7.5h12.733c4.142 0 7.5-3.357 7.5-7.5s-3.358-7.5-7.5-7.5h-12.734c-4.142 0-7.499 3.357-7.499 7.5z"/><path d="m368.126 335.186c-4.142 0-7.5 3.357-7.5 7.5s3.358 7.5 7.5 7.5h5.928c4.142 0 7.5-3.357 7.5-7.5s-3.358-7.5-7.5-7.5z"/></g></g></svg>