<svg id="Filled" height="512" viewBox="0 0 512 512" width="512" xmlns="http://www.w3.org/2000/svg"><path d="m128 192a128 128 0 0 1 256 0z" fill="#e9eef2"/><path d="m336 488h-160l-48-296h256z" fill="#ad6643"/><circle cx="288" cy="464" fill="#5e3725" r="16"/><path d="m240 16h32v184h-32z" fill="#67c5e0"/><g fill="#5e3725"><circle cx="296" cy="400" r="16"/><circle cx="256" cy="464" r="16"/><circle cx="248" cy="432" r="16"/><circle cx="280" cy="432" r="16"/><circle cx="208" cy="384" r="16"/><circle cx="264" cy="344" r="16"/><circle cx="320" cy="304" r="16"/><circle cx="224" cy="464" r="16"/></g><path d="m120 192h272v32h-272z" fill="#dfe1e4"/><path d="m392 184h-.242a136.259 136.259 0 0 0 -111.758-125.879v-34.121a8 8 0 0 0 -8-8h-32a8 8 0 0 0 -8 8v34.121a136.259 136.259 0 0 0 -111.758 125.879h-.242a8 8 0 0 0 -8 8v32a8 8 0 0 0 8 8h6.383l41.717 257.28a8 8 0 0 0 7.9 6.72h160a8 8 0 0 0 7.9-6.72l41.718-257.28h6.382a8 8 0 0 0 8-8v-32a8 8 0 0 0 -8-8zm-112-109.587a120.243 120.243 0 0 1 95.727 109.587h-95.727zm-32-42.413h16v24.242c-2.648-.155-5.314-.242-8-.242s-5.352.087-8 .242zm0 40.273c2.645-.175 5.311-.273 8-.273s5.355.1 8 .273v111.727h-16zm-16 2.14v109.587h-95.727a120.243 120.243 0 0 1 95.727-109.587zm-8 397.587a8 8 0 1 1 8-8 8.009 8.009 0 0 1 -8 8zm16-40a8 8 0 1 1 8 8 8.009 8.009 0 0 1 -8-8zm16 40a8 8 0 1 1 8-8 8.009 8.009 0 0 1 -8 8zm16-40a8 8 0 1 1 8 8 8.009 8.009 0 0 1 -8-8zm16 40a8 8 0 1 1 8-8 8.009 8.009 0 0 1 -8 8zm0-72a8 8 0 1 1 8 8 8.009 8.009 0 0 1 -8-8zm41.192 80h-23.323a23.959 23.959 0 0 0 -4.97-36.223 23.91 23.91 0 0 0 1.4-20.623 24.013 24.013 0 1 0 -28.599-14.308 23.98 23.98 0 0 0 -9.7 5.285 23.988 23.988 0 0 0 -38.609 25.912c-.461-.026-.924-.043-1.391-.043a23.984 23.984 0 0 0 -17.869 40h-23.323l-40.217-248h226.819zm54.808-264h-256v-16h256z"/><path d="m208 408a24 24 0 1 0 -24-24 24.028 24.028 0 0 0 24 24zm0-32a8 8 0 1 1 -8 8 8.009 8.009 0 0 1 8-8z"/><path d="m264 368a24 24 0 1 0 -24-24 24.028 24.028 0 0 0 24 24zm0-32a8 8 0 1 1 -8 8 8.009 8.009 0 0 1 8-8z"/><path d="m320 328a24 24 0 1 0 -24-24 24.028 24.028 0 0 0 24 24zm0-32a8 8 0 1 1 -8 8 8.009 8.009 0 0 1 8-8z"/></svg>