<svg id="Capa_1" enable-background="new 0 0 512.849 512.849" height="512" viewBox="0 0 512.849 512.849" width="512" xmlns="http://www.w3.org/2000/svg"><g><g><path d="m310.339 60.414c0-29.224-23.691-52.914-52.914-52.914-28.959 0-52.47 23.267-52.894 52.125v118.387h105.809v-117.598z" fill="#ea9a98"/><path d="m274.525 79.06-30.12-24.62c-.08-.065-.16-.131-.241-.195-4.631-3.733-6.209-10.055-3.774-15.482 6.178-13.767 18.081-24.411 32.669-28.914-4.936-1.524-10.197-2.349-15.634-2.349-28.959 0-52.47 23.267-52.894 52.125v34.17h20.688v48.935h85.121v-50.531c-13.032-.246-25.712-4.881-35.815-13.139z" fill="#e5827f"/><path d="m333.189 128.984c0-12.018-9.743-21.761-21.761-21.761-16.911 0-33.303-5.847-46.396-16.55l-30.12-24.62c-6.044-4.94-13.609-7.639-21.415-7.639-18.688 0-33.837 15.149-33.837 33.837v223.365h153.529z" fill="#f8deb6"/><g><path d="m320.513 210.404-.446.366c-2.065 1.696-5.041 1.696-7.107 0l-.459-.377c-4.503-3.691-10.192-5.724-16.017-5.724s-11.514 2.033-16.03 5.734l-.655.537c-1.944 1.596-4.746 1.596-6.69 0l-.668-.548c-4.503-3.691-10.192-5.724-16.017-5.724s-11.514 2.033-16.03 5.734c-2.325 1.909-5.674 1.909-7.999 0l-.013-.011c-2.601-2.131-7.701-3.704-11.594-4.652-3.032-.738-5.153-3.468-5.153-6.589v-108.069c0-11.675 5.932-21.967 14.927-28.048-5.148-3.003-11.042-4.618-17.064-4.618-18.688 0-33.837 15.149-33.837 33.837v223.365h30.296 123.234v-1.171-109.527c-4.625.623-9.033 2.5-12.678 5.485z" fill="#f7d8a4"/><path d="m356.575 245.382v159.81c0 55.32-44.84 100.16-100.15 100.16-27.66 0-52.69-11.21-70.82-29.34-18.12-18.12-29.33-43.16-29.33-70.82v-159.81c0-3.68 1.64-7.16 4.49-9.5l12.19-10.02c1.95-1.59 4.75-1.59 6.69 0l13.35 10.96c1.94 1.6 4.74 1.6 6.68 0l13.35-10.96c1.94-1.59 4.74-1.59 6.68 0l13.35 10.96c1.94 1.6 4.74 1.6 6.68 0l13.35-10.96c1.94-1.59 4.74-1.59 6.68 0l13.35 10.96c1.94 1.6 4.74 1.6 6.68 0l13.35-10.96c1.94-1.59 4.74-1.59 6.68 0l13.35 10.96c1.94 1.6 4.74 1.6 6.68 0l13.35-10.96c1.94-1.59 4.74-1.59 6.69 0l12.19 10.02c2.85 2.34 4.49 5.82 4.49 9.5z" fill="#fcf6ed"/><path d="m304.725 487.462c-27.66 0-52.69-11.21-70.82-29.34-18.12-18.12-29.33-43.16-29.33-70.82v-154.503l-4.9 4.023c-1.94 1.6-4.74 1.6-6.68 0l-13.35-10.96c-1.94-1.59-4.74-1.59-6.69 0l-12.19 10.02c-2.85 2.34-4.49 5.82-4.49 9.5v159.81c0 27.66 11.21 52.7 29.33 70.82 18.13 18.13 43.16 29.34 70.82 29.34 21.518 0 41.45-6.789 57.775-18.339-3.12.293-6.279.449-9.475.449z" fill="#fcf1de"/><g id="XMLID_106_"><g><path d="m356.575 302.722v102.47c0 7.6-.85 15-2.45 22.11h-195.4c-1.6-7.11-2.45-14.51-2.45-22.11v-102.47z" fill="#fcf0b6"/></g></g></g><path d="m204.575 387.302v-84.58h-48.3v102.47c0 7.6.85 15 2.45 22.11h54.163c-5.343-12.252-8.313-25.778-8.313-40z" fill="#fbe88c"/></g><g><path d="m356.578 335.18c4.142 0 7.5-3.358 7.5-7.5v-82.3c0-5.944-2.635-11.518-7.229-15.291l-12.199-10.019c-1.204-.989-2.549-1.72-3.96-2.202v-88.885c0-13.932-9.79-25.613-22.85-28.545v-40.023c-.001-33.313-27.103-60.415-60.415-60.415-31.026 0-56.919 23.864-60.065 54.197-14.798 6.299-25.199 20.985-25.199 38.055v59.218c0 4.142 3.358 7.5 7.5 7.5s7.5-3.358 7.5-7.5v-59.218c0-14.522 11.814-26.337 26.337-26.337 6.058 0 11.978 2.111 16.668 5.946l30.12 24.62c14.392 11.764 32.555 18.242 51.143 18.242 7.863 0 14.261 6.397 14.261 14.261v93.35l-9.173 7.533-11.927-9.795c-4.695-3.855-11.51-3.856-16.206 0l-11.928 9.795-4.609-3.785c7.527-7.499 11.394-17.953 10.325-28.948-1.372-14.115-10.529-25.823-23.897-30.556-8-2.833-13.23-9.57-13.988-18.023-.758-8.454 3.189-16.014 10.558-20.225 3.596-2.055 4.846-6.636 2.791-10.233-2.056-3.597-6.638-4.847-10.233-2.791-12.414 7.094-19.333 20.347-18.056 34.588s10.444 26.052 23.922 30.823c7.936 2.81 13.159 9.489 13.974 17.867.735 7.558-2.328 14.441-8.252 18.864-3.676-.748-7.619.119-10.668 2.623l-11.928 9.795-11.927-9.795c-4.695-3.855-11.51-3.855-16.206 0l-11.928 9.795-9.173-7.533v-38.901c0-4.142-3.358-7.5-7.5-7.5s-7.5 3.358-7.5 7.5v34.437c-1.412.482-2.757 1.213-3.961 2.202l-12.2 10.018c-4.594 3.773-7.229 9.346-7.229 15.291v159.816c0 59.36 48.293 107.653 107.653 107.653s107.653-48.293 107.653-107.653v-45.554c0-4.142-3.358-7.5-7.5-7.5s-7.5 3.358-7.5 7.5v45.554c0 4.968-.398 9.845-1.155 14.603h-117.329c-4.142 0-7.5 3.358-7.5 7.5s3.358 7.5 7.5 7.5h113.636c-12.378 36.617-47.062 63.05-87.804 63.05s-75.425-26.433-87.804-63.05h30.009c4.142 0 7.5-3.358 7.5-7.5s-3.358-7.5-7.5-7.5h-33.704c-.757-4.758-1.155-9.635-1.155-14.603v-94.976h185.307v17.46c0 4.142 3.358 7.5 7.5 7.5zm-116.92-274.934c-7.362-6.018-16.653-9.332-26.162-9.332-.149 0-.295.01-.444.011 4.405-20.46 22.721-35.925 44.373-35.925 25.042 0 45.415 20.373 45.415 45.415v38.738c-12.069-1.598-23.571-6.53-33.061-14.287zm-75.887 234.974v-49.84c0-1.438.637-2.786 1.749-3.699l10.782-8.854 11.928 9.796c4.695 3.855 11.511 3.855 16.205 0l11.928-9.795 11.928 9.795c4.695 3.856 11.51 3.856 16.206 0l11.928-9.795 11.928 9.796c4.695 3.855 11.511 3.855 16.205 0l11.928-9.795 11.927 9.795c4.695 3.856 11.51 3.856 16.206 0l11.928-9.795 10.782 8.854c1.112.913 1.749 2.261 1.749 3.699v49.84h-185.307z"/><path d="m249.509 30.743h-3.897c-4.142 0-7.5 3.358-7.5 7.5s3.358 7.5 7.5 7.5h3.897c4.142 0 7.5-3.358 7.5-7.5s-3.358-7.5-7.5-7.5z"/><path d="m281.176 53.884h-4.872c-4.142 0-7.5 3.358-7.5 7.5s3.358 7.5 7.5 7.5h4.872c4.142 0 7.5-3.358 7.5-7.5s-3.358-7.5-7.5-7.5z"/></g></g></svg>