<svg id="Capa_1" enable-background="new 0 0 514.699 514.699" height="512" viewBox="0 0 514.699 514.699" width="512" xmlns="http://www.w3.org/2000/svg"><g><g><g fill="#f7d8a4"><path d="m245.69 309.234-37.076 8.4c-4.55 1.87-9.26 3.46-14.1 4.75l-12.127 3.243-16.802 17.466 10.805 39.36 27.151 1.038 6.813-1.827c16.83-4.5 32.57-11.34 46.89-20.11l20.132-14.781z"/><path d="m332.524 361.334-19.14 22.809-6.68 6.67c-27.27 27.28-71.65 27.28-98.92.01l-6.68-6.68-20.672-29.674-68.166 25.611 20.557 22.563 31.57 31.56c25.6 25.6 59.22 38.4 92.85 38.4 33.62 0 67.25-12.8 92.85-38.4l31.57-31.57 19.897-18.49z"/><path d="m459.835 93.564c-30.7-32-71.85-50.25-115.87-51.39-30.89-.79-60.61 6.69-86.72 21.48l-24.52 34.584 34.883 28.457 40.634-18.549c.02.023.026.029.003-.002 10.89-3.34 22.39-4.93 34.14-4.63 27.75.72 53.74 12.27 73.16 32.52 19.46 20.29 30.18 46.96 30.18 75.09 0 26.23-10.21 50.88-28.75 69.43l-53.47 53.47-23.928 29.641 65.984 18.788 26.414-30.129 28.38-28.38c30.14-30.14 46.73-70.2 46.73-112.82 0-44.04-16.78-85.79-47.25-117.56z"/></g><g><path d="m437.23 333.022-.497-.129-56.892-15.205-16.336 16.336-23.929 29.64 65.984 18.788 26.415-30.128 16.339-16.339z" fill="#f5cd8b"/><path d="m232.725 98.237 34.882 28.457 23.514-10.734 7.025-15.645-46.574-28.661z" fill="#f7d8a4"/></g><path d="m381.665 402.634 19.897-18.49-69.037-22.809-19.14 22.809-6.68 6.67c-3.514 3.515-7.304 6.572-11.312 9.181 1.187.341 2.365.669 3.559.988l9.272 2.483 57.301 15.308z" fill="#f5cd8b"/><path d="m289.599 225.344-11.542 10.552c-3.761 16.247-10.917 31.343-20.812 44.358l-17.263 32.93 32.359 30.871 33.534-26.421c13.397-17.548 23.543-37.58 29.712-59.122l1.32-15.749z" fill="#f7d8a4"/><path d="m305.875 317.634c4.323-5.662 8.302-11.586 11.923-17.733l-7.792-2.267c-14.457-6.595-27.138-16.732-36.844-29.489-1.571-2.065-3.048-4.18-4.438-6.337-3.252 6.503-7.095 12.679-11.479 18.446l-17.263 32.93 32.359 30.871z" fill="#f5cd8b"/><path d="m277.377 346.772-38.193-44.565-30.569 15.427c-4.55 1.87-9.26 3.46-14.1 4.75l-6.033 1.613c1.36 1.922 2.748 3.825 4.179 5.698l.399.527c12.491 16.272 27.257 30.368 43.953 41.992 7.014-3.135 13.767-6.7 20.232-10.66z" fill="#f5cd8b"/><path d="m484.325 366.314-52.26-13.97-.09-.02-68.47-18.3-43.53-11.64c-4.84-1.29-9.54-2.88-14.08-4.74-.01 0-.01-.01-.02-.01-19.56-8.01-36.22-21.07-48.63-37.38-15.07-19.81-23.84-44.43-23.84-70.61 0-24.78 8.39-48.18 23.84-67.06l15.462-34.44-35.901-22.092-30.561 22.092c-22.2 29.01-34.2 64.27-34.2 101.5 0 40.07 13.46 77.72 36.57 107.99l.31.41c13.21 17.21 29.55 32.02 48.32 43.51 14.32 8.77 30.05 15.61 46.88 20.11l9.26 2.48 67.94 18.15.34.34.19-.19 86.63 23.15c16.37 4.38 33.19-5.35 37.56-21.72 4.38-16.37-5.35-33.18-21.72-37.56z" fill="#f7d8a4"/><g><g id="XMLID_133_"><g><g id="XMLID_152_"><g><g><path d="m241.748 155.24.753.92c1.065 1.337 2.043 2.71 3.019 4.095 3.279-6.221 7.202-12.146 11.724-17.671l15.462-34.44-35.901-22.092-30.561 22.092c-4.307 5.628-8.237 11.504-11.763 17.571 1.714.394 3.429.819 5.11 1.317l.854.253c13.021 4.018 24.663 10.964 34.589 20.632 2.39 2.33 4.648 4.794 6.714 7.323z" fill="#f5cd8b"/></g><path d="m326.213 98.773c-.173-.238-.354-.478-.539-.716-5.895-7.944-12.576-15.579-19.881-22.717-8.373-8.159-17.424-15.499-27.019-21.908-7.395 2.878-14.597 6.296-21.528 10.222l-24.52 34.584 34.883 28.457 40.634-18.549c.02.023.026.029.003-.002 6.986-2.143 14.234-3.566 21.627-4.231-1.19-1.733-2.41-3.441-3.66-5.14z" fill="#f5cd8b"/><g><path d="m335.532 258.49c1.39-5.686 6.913-29.046 6.913-48.846 0-36.2-11.35-70.53-32.38-99.07-.1-.14-.21-.28-.32-.42-5.35-7.23-11.34-14.07-17.91-20.49-10.53-10.26-22.14-18.97-34.59-26.01h-.01c-26.11-14.79-55.84-22.27-86.72-21.48-44.02 1.14-85.17 19.39-115.86 51.39-30.48 31.77-47.26 73.52-47.26 117.56 0 42.62 16.6 82.68 46.73 112.82l28.38 28.38 27.405 30.129 63.916-26.833-22.841-21.596-53.47-53.47c-18.54-18.55-28.76-43.2-28.76-69.43 0-28.13 10.72-54.8 30.18-75.09 19.43-20.25 45.41-31.8 73.16-32.52.95-.02 1.89-.03 2.83-.03 10.45 0 20.66 1.5 30.41 4.39.3.09.61.18.91.27 15.9 4.89 30.49 13.51 42.76 25.46 2.93 2.86 5.68 5.86 8.23 8.98h.01c15.45 18.88 23.83 42.28 23.83 67.06 0 8.982-1.055 17.771-3.018 26.252 15.253 5.835 38.026 14.845 57.475 22.594z" fill="#f7d8a4"/><path d="m335.565 258.503c-.011-.004-.022-.009-.033-.013 0 .001 0 .002-.001.003z" fill="#f8deb6"/></g><g fill="#f5cd8b"><path d="m173.825 355.619-22.841-21.596-16.336-16.336-22.442 5.997c-5.568 1.488-11.506-.105-15.582-4.181l-1.544-1.544c-30.13-30.14-46.73-70.2-46.73-112.82 0-44.04 16.78-85.79 47.26-117.56 21.101-22.002 47.121-37.514 75.644-45.424-44.299.953-85.738 19.228-116.6 51.408-30.48 31.77-47.26 73.52-47.26 117.56 0 42.62 16.6 82.68 46.73 112.82l28.38 28.38 27.405 30.129 33.577-14.096z"/><path d="m297.927 459.72c-33.63 0-67.25-12.8-92.85-38.4l-3.063-3.062c-4.79-4.789-2.597-12.968 3.947-14.717l9.561-2.555c1.196-.32 2.373-.652 3.562-.994-4.005-2.607-7.788-5.657-11.298-9.168l-6.68-6.68-20.672-29.674-71.848 24.146 24.24 24.028 7.218 7.216 24.352 24.344c25.6 25.6 59.22 38.4 92.85 38.4 20.469 0 40.954-4.751 59.616-14.24-6.272.905-12.612 1.356-18.935 1.356z"/></g></g></g></g></g></g><path d="m182.387 325.627-31.403 8.397-68.48 18.3-.08.02-52.27 13.97c-16.37 4.38-26.09 21.19-21.72 37.56 4.38 16.37 21.2 26.1 37.57 21.72l86.62-23.15 68.48-18.3 2.437-.653z" fill="#f7d8a4"/></g><path d="m486.373 359.043-39.793-10.636 19.19-19.19c31.55-31.55 48.925-73.498 48.925-118.116 0-29.883-7.549-59.402-21.832-85.365-1.997-3.629-6.558-4.955-10.186-2.957-3.629 1.997-4.953 6.557-2.957 10.186 13.067 23.754 19.975 50.773 19.975 78.136 0 40.612-15.815 78.793-44.531 107.51l-25.367 25.366-51.8-13.845 44.276-44.277c19.96-19.959 30.953-46.498 30.953-74.727 0-30.081-11.458-58.592-32.264-80.282-20.808-21.691-48.644-34.059-78.381-34.825-10.743-.273-21.34.929-31.577 3.566-4.335-5.341-8.989-10.473-13.938-15.295-7.623-7.43-15.872-14.114-24.611-20 22.113-10.214 46.511-15.259 71.32-14.617 42.03 1.083 81.324 18.512 110.644 49.077 2.921 3.045 5.755 6.237 8.424 9.487 1.483 1.806 3.633 2.74 5.8 2.74 1.675 0 3.36-.558 4.755-1.704 3.201-2.628 3.665-7.354 1.036-10.556-2.912-3.546-6.004-7.029-9.191-10.351-32.073-33.436-75.075-52.503-121.082-53.688-30.478-.788-60.442 6.263-86.918 20.409-26.478-14.147-56.44-21.204-86.919-20.409-26.569.684-51.909 7.192-75.314 19.344-3.676 1.908-5.109 6.436-3.201 10.112 1.908 3.677 6.437 5.11 10.112 3.201 21.37-11.094 44.514-17.037 68.789-17.662 29.203-.755 57.835 6.338 82.836 20.5 11.153 6.545 23.662 15.71 33.051 24.859 5.082 4.952 11.324 12.14 15.69 17.671 21.362 27.914 32.653 61.435 32.653 96.937 0 35.684-10.887 69.676-31.533 98.691-14.043-6.704-26.583-16.554-36.656-28.455 14.292-20.766 21.828-44.917 21.828-70.236 0-24.852-8.969-51.06-23.67-70.742-.15-.231-6.184-7.242-9.293-10.271-12.904-12.576-30.059-22.425-47.066-27.678-11.743-3.607-24.094-5.283-36.54-4.957-29.738.766-57.574 13.133-78.381 34.825-20.806 21.69-32.264 50.201-32.264 80.282 0 28.229 10.993 54.767 30.953 74.727l44.276 44.277-7.915 2.115c-4.002 1.069-6.379 5.181-5.309 9.182.896 3.353 3.927 5.565 7.241 5.565.641 0 1.293-.083 1.941-.256l64.003-17.107c3.26-.872 6.495-1.896 9.68-3.032 10.686 13.168 23.015 24.698 36.771 34.446-10.952 5.687-22.504 10.173-34.48 13.374l-164.357 43.932c-5.98 1.599-12.225.772-17.585-2.326-5.361-3.1-9.194-8.102-10.793-14.083-3.3-12.348 4.061-25.08 16.409-28.38l68.502-18.31c4.002-1.07 6.379-5.181 5.309-9.182-1.069-4.002-5.182-6.377-9.182-5.309l-11.97 3.2-25.322-25.322c-28.717-28.717-44.532-66.898-44.532-107.51 0-42.101 16.041-82.01 45.168-112.375 5.074-5.289 10.529-10.262 16.215-14.781 3.243-2.577 3.783-7.295 1.206-10.538-2.576-3.243-7.294-3.782-10.538-1.206-6.211 4.936-12.169 10.366-17.708 16.14-31.82 33.172-49.344 76.769-49.344 122.759 0 44.618 17.375 86.566 48.925 118.116l19.19 19.19-39.793 10.636c-20.338 5.437-32.463 26.406-27.027 46.745 2.633 9.853 8.947 18.09 17.777 23.196 8.831 5.106 19.12 6.467 28.968 3.831l82.447-22.037 28.706 28.706c26.179 26.178 61.037 40.595 98.153 40.595s71.975-14.417 98.153-40.595l28.706-28.706 82.446 22.037c3.291.88 6.595 1.3 9.851 1.299 16.864-.001 32.337-11.278 36.894-28.326 5.436-20.339-6.689-41.308-27.027-46.745zm-136.432-149.401c0-35.018-10.053-68.283-29.18-96.889 7.004-1.341 14.178-1.925 21.434-1.737 25.76.663 49.889 11.393 67.942 30.213 18.114 18.883 28.089 43.707 28.089 69.898 0 24.222-9.432 46.994-26.559 64.12l-50.409 50.41s-42.113-11.286-43.486-11.711c20.807-30.645 32.169-67.301 32.169-104.304zm-92.699-54.464c10.718 16.066 16.337 34.709 16.337 54.465 0 20.511-5.618 40.158-16.337 57.406-10.719-17.249-16.337-36.896-16.337-57.406 0-19.756 5.62-38.4 16.337-54.465zm-103.908 170.453-50.409-50.41c-17.127-17.127-26.56-39.898-26.56-64.12 0-26.191 9.976-51.015 28.089-69.898 18.053-18.82 42.182-29.55 67.946-30.213.88-.023 1.756-.034 2.633-.034 6.354 0 12.643.594 18.796 1.772-19.126 28.605-29.179 61.87-29.179 96.888 0 37.003 11.362 73.658 32.168 104.303-1.37.426-43.484 11.712-43.484 11.712zm104.015 44.629c13.068 7.566 27.015 13.501 41.56 17.685-11.435 10.217-26.058 15.802-41.56 15.802s-30.125-5.585-41.561-15.802c14.547-4.184 28.494-10.119 41.561-17.685zm87.547 58.617c-23.346 23.345-54.437 36.202-87.547 36.202s-64.201-12.857-87.547-36.202l-22.573-22.574 51.736-13.828 3.62 3.619c14.607 14.607 34.056 22.651 54.765 22.651s40.158-8.044 54.763-22.651l3.62-3.62 51.736 13.828zm154.012-26.963c-3.301 12.349-16.033 19.708-28.38 16.409l-164.357-43.93c-15.824-4.23-30.912-10.698-44.847-19.224-16.76-10.365-34.354-26.747-46.646-42.109-22.916-30.023-35.028-65.793-35.028-103.444 0-33.711 10.187-65.63 29.503-92.664 13.46 4.723 25.552 12.245 35.994 22.42.97.945 1.916 1.919 2.849 2.904-14.465 19.528-22.091 42.696-22.091 67.366 0 27.339 8.771 53.326 25.367 75.151 13.4 17.492 31.473 31.478 51.782 39.793.01.004.021.007.031.011 4.844 1.982 9.874 3.676 14.951 5.033l164.464 43.905c12.348 3.3 19.709 16.031 16.408 28.379z"/></g></svg>