<svg id="Capa_1" enable-background="new 0 0 511.964 511.964" height="512" viewBox="0 0 511.964 511.964" width="512" xmlns="http://www.w3.org/2000/svg"><g><g><path d="m433.079 385.108c0 9.029-7.32 16.349-16.349 16.349h-320.893c-9.029 0-16.349-7.32-16.349-16.349v-49.622h353.591z" fill="#d79c7a"/><path d="m497.602 281.426c-13.728-50.52-39.769-94.76-75.532-134.057-1.913-2.111-4.127-3.784-6.504-5.019l-27.745 20.409 11.456 106.231 64.572 30.55 33.238-4.222c1.527-4.282 1.827-9.079.515-13.892z" fill="#fcf1de"/><path d="m495.233 294.562 1.853.755c-3.192 8.941-11.746 15.65-22.18 15.65h-139.05c-15.53 0-26.813-14.809-22.643-29.765 14.569-52.262 39.366-96.991 74.408-134.186 7.422-7.868 18.911-9.395 27.946-4.668l-4.676 52.966c-3.278 37.118 17.993 72.039 52.468 86.18z" fill="#f6e2c4"/><path d="m419.704 306.591c-4.121 0-6.999-4.082-5.615-7.964 3.241-9.084 3.607-18.825 1.063-28.155-4.922-18.114-11.25-35.848-18.945-53.161-6.41-14.422-4.766-31.163 4.466-43.963 4.349-6.03 8.918-11.898 13.71-17.603l1.183-13.396c-9.035-4.728-20.524-3.2-27.946 4.668-6.287 6.673-12.234 13.595-17.859 20.754-.001-.002-.003-.004-.004-.006-25.74 32.741-44.589 70.551-56.545 113.438-1.843 6.61-.664 13.189 2.563 18.475l23.862 11.289h58.071 6.207 70.992c5.154 0 9.846-1.642 13.663-4.377h-68.866z" fill="#f8deb6"/><path d="m395.853 275.717c-16-58.88-46.35-110.44-88.03-156.24-2.23-2.46-4.81-4.41-7.58-5.85l-32.336 23.786 13.352 123.809 75.256 35.605 38.738-4.92c1.78-4.99 2.13-10.58.6-16.19z" fill="#fcf1de"/><path d="m393.093 291.027 2.16.88c-3.72 10.42-13.69 18.24-25.85 18.24h-162.06c-18.1 0-31.25-17.26-26.39-34.69 16.98-60.91 45.88-113.04 86.72-156.39 8.65-9.17 22.04-10.95 32.57-5.44l-5.45 61.73c-3.82 43.26 20.97 83.96 61.15 100.44z" fill="#f6e2c4"/><g><path d="m456.774 367.579h-400.982c-26.338 0-47.689-21.351-47.689-47.689v-4.455c0-2.918 2.366-5.284 5.284-5.284h485.793c2.918 0 5.284 2.366 5.284 5.284v4.455c-.001 26.337-21.352 47.689-47.69 47.689z" fill="#e5bda7"/><path d="m484.594 347.127h-400.982c-22.653 0-41.603-15.8-46.466-36.977h-23.759c-2.918 0-5.284 2.366-5.284 5.284v4.455c0 26.338 21.351 47.689 47.689 47.689h400.982c16.915 0 31.761-8.814 40.228-22.092-3.957 1.065-8.115 1.641-12.408 1.641z" fill="#dfae91"/><path d="m300.243 113.627c-10.53-5.51-23.92-3.73-32.57 5.44-40.84 43.35-69.74 95.48-86.72 156.39-4.86 17.43 8.29 34.69 26.39 34.69h3.635 10.649 1.892c-.247-.319.811-7.129 1.568-11.777.402-2.471 2.536-4.28 5.039-4.28 22.731 0 41.157-18.427 41.157-41.157v-11.311c0-10.888-8.827-19.715-19.715-19.715-4.151 0-6.87-4.38-4.999-8.086 13.985-27.702 31.162-53.056 51.542-76.052z" fill="#f8deb6"/><path d="m210.798 268.09h-157.813v26.736c0 8.463 6.861 15.324 15.324 15.324h127.165c8.463 0 15.324-6.861 15.324-15.324z" fill="#fcf6ed"/><path d="m234.104 231.584c0-17.899-14.51-32.409-32.409-32.409h-11.172c-9.97-19.459-26.171-32.367-48.654-38.67-2.376-.666-4.732 1.15-4.732 3.619v7.981c0 1.541-.966 2.883-2.39 3.471-8.637 3.565-15.897 12.43-22.559 23.599h-50.099c-17.899 0-32.409 14.51-32.409 32.409v19.196c0 5.347 4.335 9.682 9.682 9.682h185.061c5.347 0 9.682-4.335 9.682-9.682v-19.196z" fill="#ea9a98"/><g><path d="m80.282 214.984h31.933c10.595 0 20.392-5.717 25.531-14.982 4.704-8.48 9.781-14.95 15.448-18.231 1.429-.827 2.399-2.717 2.399-4.885 0 0 .023-11.309.023-11.341-4.29-1.99-8.876-3.675-13.758-5.043-2.373-.665-4.721 1.157-4.721 3.622v7.981c0 1.541-.966 2.883-2.39 3.471-8.636 3.565-15.897 12.429-22.559 23.599h-50.099c-17.899 0-32.409 14.51-32.409 32.409v19.196c0 5.347 4.335 9.682 9.682 9.682h8.401c.051-25.129 14.589-45.478 32.519-45.478z" fill="#e5827f"/></g></g><path d="m52.985 268.09v26.736c0 8.463 6.861 15.324 15.324 15.324h18.972c-5.557-2.301-9.468-7.771-9.468-14.16 0-1.602 1.299-2.901 2.901-2.901h130.085v-23.836-1.164h-157.814z" fill="#fcf1de"/><path d="m230.126 279.09h-196.469c-14.446 0-26.157-11.711-26.157-26.157v-11.31c0-2.604 2.111-4.715 4.715-4.715h239.353c2.604 0 4.715 2.111 4.715 4.715v11.31c0 14.446-11.711 26.157-26.157 26.157z" fill="#fcf6ed"/><path d="m61.272 263.753c-14.446 0-26.157-11.711-26.157-26.157v-.689h-22.9c-2.604 0-4.715 2.111-4.715 4.715v11.31c0 14.446 11.711 26.157 26.157 26.157h196.469c10.586 0 19.696-6.292 23.813-15.337h-192.667z" fill="#fcf1de"/></g><path d="m501.442 302.863c4.387-7.168 5.64-15.725 3.407-23.945-13.318-49.002-39.055-94.708-76.495-135.848-5.762-6.33-13.975-10.003-22.534-10.077-.087-.001-.174-.001-.262-.001-8.43 0-16.556 3.501-22.332 9.632-4.002 4.25-7.979 8.723-11.819 13.297-2.664 3.172-2.252 7.903.92 10.566 3.172 2.665 7.903 2.252 10.566-.92 3.659-4.356 7.444-8.616 11.252-12.658 3.022-3.208 7.142-4.977 11.546-4.917.914.008 1.809.11 2.687.266l-4.118 46.681c-1.733 19.644 2.771 38.93 13.025 55.774 10.255 16.844 25.319 29.701 43.565 37.181l25.214 10.337c-2.924 2.821-6.787 4.419-10.934 4.419h-77.059c5.898-8.462 7.735-18.904 5.017-28.904-15.615-57.458-45.8-111.059-89.715-159.312-6.531-7.177-15.843-11.341-25.547-11.425-.099-.001-.197-.001-.297-.001-9.556 0-18.768 3.969-25.312 10.917-7.098 7.534-13.942 15.448-20.345 23.523-2.573 3.246-2.028 7.963 1.218 10.537 3.243 2.572 7.962 2.029 10.536-1.217 6.139-7.742 12.702-15.332 19.509-22.557 3.772-4.004 8.874-6.203 14.384-6.203.06 0 .119 0 .179.001 1.568.013 3.096.221 4.575.578l-4.95 56.107c-2.015 22.832 3.221 45.248 15.14 64.825 11.919 19.578 29.429 34.521 50.636 43.215l31.472 12.903c-3.795 4.469-9.266 7.013-15.172 7.013h-152.483c.894-2.441 1.382-5.077 1.382-7.824v-8.236h11.828c18.559 0 33.657-15.099 33.657-33.657v-11.31c0-6.735-5.479-12.215-12.215-12.215h-10.026c-.767-14.195-8.984-26.442-20.804-32.887 4.465-8.179 9.268-16.245 14.361-24.036 2.266-3.467 1.292-8.115-2.175-10.381-3.468-2.268-8.115-1.293-10.382 2.174-5.847 8.946-11.327 18.239-16.37 27.656-1.471-.165-2.964-.258-4.479-.258h-6.723c-11.069-19.082-28.236-31.99-51.091-38.396-3.4-.951-6.964-.271-9.783 1.866-2.835 2.15-4.461 5.422-4.461 8.978v5.55c-7.559 3.809-14.539 10.909-21.633 22.001h-15.111c-4.143 0-7.5 3.358-7.5 7.5s3.357 7.5 7.5 7.5h19.297 22.97c4.143 0 7.5-3.358 7.5-7.5s-3.357-7.5-7.5-7.5h-8.698c3.866-4.673 7.587-7.72 11.24-9.203 4.215-1.712 6.938-5.79 6.938-10.389v-2.873c18.006 6.132 30.862 17.091 39.211 33.384 1.283 2.505 3.86 4.08 6.675 4.08h11.172c13.001 0 23.701 10.014 24.808 22.732h-14.02c-4.143 0-7.5 3.358-7.5 7.5s3.357 7.5 7.5 7.5h36.301v8.525c0 10.288-8.369 18.657-18.657 18.657h-196.471c-10.288.002-18.657-8.368-18.657-18.655v-8.525h165.521c4.143 0 7.5-3.358 7.5-7.5s-3.357-7.5-7.5-7.5h-143.243c1.065-12.46 11.183-22.258 23.914-22.708 4.14-.146 7.377-3.62 7.23-7.76-.143-4.049-3.471-7.235-7.49-7.235-.09 0-.18.001-.27.005-20.849.736-37.33 17.112-38.422 37.698h-10.025c-6.736-.001-12.215 5.479-12.215 12.215v11.31c0 18.559 15.099 33.657 33.657 33.657h11.828v8.236c0 2.747.488 5.382 1.382 7.824h-33.48c-7.049 0-12.784 5.735-12.784 12.784v4.455c0 30.431 24.758 55.189 55.189 55.189h16.195v10.029c0 13.15 10.699 23.849 23.85 23.849h320.893c13.15 0 23.85-10.699 23.85-23.849v-10.029h16.195c30.432 0 55.189-24.758 55.189-55.189v-4.455c0-6.276-4.55-11.499-10.522-12.571zm-186.167-71.145c-10.242-16.823-14.741-36.086-13.011-55.706l4.136-46.889c40.069 45.273 67.718 95.223 82.213 148.557.33 1.213.535 2.438.631 3.662l-30.458-12.487c-18.222-7.471-33.268-20.313-43.511-37.137zm103.926-35.461 3.283-37.218c32.997 37.817 55.828 79.433 67.89 123.812.092.339.147.682.216 1.023l-24.05-9.86c-31.286-12.826-50.31-44.074-47.339-77.757zm-358.716 98.569v-8.236h142.812v8.236c0 4.314-3.51 7.824-7.823 7.824h-127.165c-4.314 0-7.824-3.51-7.824-7.824zm365.094 90.282c0 4.879-3.97 8.849-8.85 8.849h-320.892c-4.88 0-8.85-3.97-8.85-8.849v-10.029h338.592zm71.385-65.219c0 22.16-18.029 40.189-40.189 40.189h-400.983c-22.16 0-40.189-18.029-40.189-40.189v-2.239h481.361z"/></g></svg>