<svg id="Capa_1" enable-background="new 0 0 512.428 512.428" height="512" viewBox="0 0 512.428 512.428" width="512" xmlns="http://www.w3.org/2000/svg"><g><g><path d="m474.09 280.507-117.61-136.88h-197.96l-120.18 136.88c-.75.84-1.34 1.8-1.75 2.83l128.088 53.37h245.596l65.566-53.37c-.41-1.03-1.009-1.99-1.75-2.83z" fill="#fbe88c"/><ellipse cx="256.151" cy="189.327" fill="#fcf1de" rx="174.395" ry="173.075"/><path d="m123.49 210.741c0-95.587 78.079-173.075 174.395-173.075 20.489 0 40.147 3.518 58.409 9.959-28.341-19.763-62.874-31.372-100.143-31.372-96.316 0-174.396 77.488-174.396 173.075 0 75.253 48.399 139.278 115.987 163.117-44.902-31.313-74.252-83.104-74.252-141.704z" fill="#f6e2c4"/><g><path d="m256.151 16.252c-91.057 0-165.815 69.267-173.708 157.599 9.706 10.158 23.218 16.048 37.492 16.048h26.871c5.062 0 9.181 4.119 9.181 9.181v7.046c0 23.818 19.377 43.195 43.195 43.195s43.195-19.377 43.195-43.195v-11.337c0-12.636 10.351-20.187 20.358-20.187 3.574 0 8.863.996 13.761 5.744l4.338 4.205c21.281 20.63 49.335 31.992 78.994 31.994h.006c20.981 0 41.531-5.82 59.425-16.832l5.049-3.107c2.204-1.356 4.276-2.866 6.209-4.484.015-.933.028-1.857.028-2.793.001-95.588-78.078-173.077-174.394-173.077z" fill="#f6e2c4"/><g><path d="m400.55 189.327c0 78.89-64.78 143.08-144.4 143.08s-144.39-64.19-144.39-143.08 64.77-143.08 144.39-143.08 144.4 64.19 144.4 143.08z" fill="#f7d8a4"/></g><path d="m256.15 46.247c-79.592 0-144.343 64.145-144.389 142.996.031.005.063.008.095.013l-.096.071c0 25.738 6.898 49.909 18.953 70.799-4.689-15.651-7.224-32.223-7.224-49.386 0-2.042.036-4.075.108-6.099.291-8.215 6.991-14.744 15.211-14.744h7.998c5.07 0 9.181 4.11 9.181 9.181v6.281c0 24.171 19.78 44.369 43.947 43.955 23.473-.403 42.443-19.622 42.443-43.189v-11.337c0-12.636 10.351-20.187 20.358-20.187 3.574 0 8.863.996 13.761 5.744l4.338 4.205c21.281 20.63 49.335 31.992 78.994 31.994h.006c13.466 0 26.75-2.41 39.273-7.039.944-6.594 1.443-13.328 1.443-20.177.001-78.891-64.779-143.081-144.4-143.081z" fill="#f5cd8b"/><path d="m291.275 215.89c0 6.004-4.868 10.872-10.872 10.872l-130.923.152c-6.004 0-10.872-4.868-10.872-10.872v-41.143-53.989h152.667z" fill="#f5cd8b"/><path d="m291.275 193.524v-72.614h-152.666v53.988 15h8.198c5.062 0 9.181 4.119 9.181 9.181v7.046c0 7.526 1.939 14.606 5.337 20.774l75.767-.088c3.368-6.147 5.287-13.196 5.287-20.686v-11.337c0-12.636 10.351-20.187 20.358-20.187 3.574 0 8.863.996 13.761 5.744l4.338 4.205c3.321 3.219 6.807 6.213 10.439 8.974z" fill="#f4c67b"/><path d="m374.852 216.041c0 6.004-4.868 10.872-10.872 10.872h-28.954c-6.004 0-10.872-4.868-10.872-10.872v-60.361h50.698z" fill="#f5cd8b"/><path d="m324.155 210.831c11.371 3.753 23.384 5.711 35.675 5.712h.006c5.042 0 10.057-.338 15.017-1.004v-59.859h-50.698z" fill="#f4c67b"/><path d="m416.447 183.829c13.887-8.546 20.434-25.201 16.226-40.955-20.82-77.956-91.923-135.374-176.443-135.374-78.011 0-144.591 48.916-170.753 117.749-9.116 23.984 8.8 49.649 34.458 49.649h26.871c13.355 0 24.181 10.826 24.181 24.181v7.047c0 15.572 12.624 28.195 28.195 28.195 15.572 0 28.195-12.623 28.195-28.195v-11.338c0-31.023 37.284-46.807 59.559-25.214l4.338 4.205c32.323 31.334 81.783 36.751 120.122 13.158z" fill="#dfae91"/><g><path d="m133.756 143.395c26.163-72.976 92.742-124.837 170.754-124.837 5.578 0 11.073.255 16.524.775-20.147-7.653-41.972-11.833-64.804-11.833-78.011 0-144.591 48.916-170.753 117.749-9.116 23.984 8.8 49.649 34.458 49.649h15.543c-4.552-9.292-5.645-20.56-1.722-31.503z" fill="#d79c7a"/></g><path d="m291.275 265.094c0-4.251-3.446-7.697-7.697-7.697h-51.969c-4.251 0-7.697 3.446-7.697 7.697v54.371h67.363z" fill="#f5cd8b"/><g id="XMLID_167_"><g><path d="m367.374 301.033-202.696 75.449 79.915 112.002 26.627 12.974c2.88-1.39 5.6-3.2 8.08-5.44l194-175.06c2.1-1.89 3.29-4.58 3.29-7.4v-26.45z" fill="#fdf5cb"/><path d="m190.75 283.337v32.49c-20.91-10.99-39.559-25.18-52.879-44.52l.739-6.21c0-4.25 3.44-7.7 7.7-7.7h36.74c4.25 0 7.7 3.45 7.7 7.7z" fill="#f5cd8b"/><g id="XMLID_168_"><g><path d="m374.85 270.719c-13.68 18.8-31.15 36.128-52.14 46.568v-33.95-18.24c0-4.25 3.45-7.7 7.7-7.7h36.74c4.26 0 7.7 3.45 7.7 7.7z" fill="#f5cd8b"/></g></g><path d="m476.59 287.107-241.2 130.18c-6.24 3.37-8.39 11.28-4.71 17.35l40.54 66.82c-12.33 5.97-27.46 4.15-38.09-5.44l-194.01-175.06c-2.09-1.89-3.28-4.58-3.28-7.4v-26.45c0-1.3.26-2.58.75-3.77h439.25c.49 1.19.75 2.47.75 3.77z" fill="#fcf0b6"/><g><path d="m229.672 432.537-165.349-149.2h-27.733c-.49 1.19-.75 2.47-.75 3.77v26.45c0 2.82 1.19 5.51 3.28 7.4l194.01 175.06c10.63 9.59 25.76 11.41 38.09 5.44l-40.54-66.82c-.411-.679-.739-1.384-1.008-2.1z" fill="#fbe88c"/></g></g></g></g></g><g><path d="m149.47 51.309c30.833-23.754 67.751-36.309 106.76-36.309 49.474 0 96.874 21.086 130.046 57.852 1.48 1.641 3.521 2.476 5.57 2.476 1.791 0 3.588-.638 5.022-1.932 3.075-2.775 3.318-7.517.544-10.593-36.011-39.912-87.47-62.803-141.182-62.803-42.352 0-82.435 13.633-115.915 39.426-3.281 2.528-3.892 7.237-1.364 10.519 2.528 3.28 7.236 3.893 10.519 1.364z"/><path d="m479.7 275.537-44.986-50.786c2.193-11.344 3.332-22.93 3.332-34.628 0-6.07-.331-12.237-.949-18.369 4.491-9.315 5.666-20.167 2.823-30.814-4.845-18.137-12.369-35.442-22.364-51.436-2.195-3.513-6.821-4.579-10.335-2.386-3.513 2.195-4.581 6.822-2.386 10.335 9.205 14.729 16.133 30.662 20.593 47.357 3.387 12.682-1.802 25.795-12.911 32.632l-5.05 3.107c-35.452 21.815-81.084 16.816-110.971-12.155l-4.338-4.206c-12.507-12.122-30.24-15.435-46.277-8.646-16.039 6.79-26.003 21.828-26.003 39.245v11.337c0 11.412-9.284 20.695-20.695 20.695s-20.695-9.284-20.695-20.695v-7.046c0-17.469-14.212-31.681-31.681-31.681h-26.871c-9.795 0-18.607-4.631-24.178-12.707-5.51-7.989-6.701-17.749-3.27-26.778 7.817-20.566 19.331-39.288 34.221-55.645 2.789-3.063 2.566-7.807-.497-10.595s-7.807-2.566-10.595.498c-16.162 17.755-28.662 38.081-37.15 60.414-3.768 9.912-3.76 20.725-.244 30.496-2.516 12.152-3.808 24.599-3.808 37.042 0 11.687 1.138 23.263 3.327 34.596l-45.013 50.817c-2.831 3.195-4.391 7.306-4.391 11.576v26.448c0 4.933 2.101 9.657 5.763 12.961l54.427 49.113c1.435 1.294 3.231 1.932 5.022 1.932 2.049 0 4.09-.834 5.57-2.476 2.774-3.075 2.531-7.817-.544-10.593l-54.427-49.113c-.516-.465-.812-1.13-.812-1.824v-22.724h410.56l-222.065 119.85c-4.776 2.579-8.332 7.062-9.755 12.3s-.624 10.904 2.191 15.544l35.564 58.614c-7.612 1.034-15.566-1.18-21.678-6.696l-114.645-103.452c-3.076-2.774-7.819-2.532-10.593.544-2.774 3.075-2.531 7.818.544 10.593l114.646 103.451c8.012 7.23 18.061 10.845 28.108 10.845s20.097-3.615 28.108-10.845l194.005-175.062c3.662-3.304 5.763-8.028 5.763-12.961v-26.448c0-4.27-1.56-8.381-4.39-11.575zm-19.773.299h-43.359c5.714-10.671 10.327-21.849 13.79-33.382zm-44.599-82.512 5.05-3.107c.909-.559 1.786-1.151 2.642-1.764.006.556.026 1.116.026 1.67 0 30.331-8.198 59.869-23.71 85.713h-17.891c15.821-23.105 25.031-50.302 26.403-78.322 2.53-1.289 5.027-2.68 7.48-4.19zm-85.115 82.512v-10.742c0-.108.089-.197.197-.197h36.745c.108 0 .197.088.197.197v4.717c-1.469 2.047-2.997 4.057-4.582 6.025zm37.14-67.065v7.271c0 1.859-1.513 3.372-3.372 3.372h-28.954c-1.859 0-3.372-1.513-3.372-3.372v-10.792c11.604 3.196 23.682 4.378 35.698 3.521zm-132.475-13.983c0-13.491 8.704-21.983 16.851-25.432 8.144-3.449 20.301-3.788 29.988 5.602l2.059 1.996v38.935c0 1.859-1.513 3.372-3.372 3.372h-48.041c1.617-4.069 2.515-8.498 2.515-13.136zm-35.695 47.033c8.262 0 15.871-2.829 21.927-7.559h59.294c10.131 0 18.372-8.242 18.372-18.372v-26.2c5.672 4.003 11.662 7.395 17.879 10.168v16.184c0 10.13 8.241 18.372 18.372 18.372h28.954c10.131 0 18.372-8.242 18.372-18.372v-9.413c3.351-.731 6.676-1.642 9.969-2.706-1.781 17.44-6.927 34.386-15.066 49.851-2.684-2.405-6.219-3.877-10.1-3.877h-36.746c-8.38 0-15.197 6.817-15.197 15.197v10.742h-16.438v-10.742c0-8.379-6.817-15.197-15.197-15.197h-51.969c-8.38 0-15.197 6.817-15.197 15.197v10.742h-18.164v-10.742c0-8.379-6.817-15.197-15.197-15.197h-36.745c-4.213 0-8.028 1.725-10.784 4.503-10.493-19.672-16.107-41.749-16.107-64.278 0-2.557.077-5.142.225-7.733.099.001.197.009.296.009h11.173v33.643c0 10.13 8.241 18.372 18.372 18.372h27.969c6.023 4.64 13.559 7.408 21.733 7.408zm84.592 34.015h-52.363v-10.742c0-.108.089-.197.197-.197h51.969c.108 0 .197.088.197.197zm-134.088 0c-1.243-1.543-2.452-3.111-3.624-4.702.026-.253.045-.508.045-.767v-5.272c0-.108.089-.197.197-.197h36.745c.108 0 .197.088.197.197v10.742h-33.56zm13.8-76.757v7.046c0 4.696.92 9.178 2.575 13.288h-16.582c-1.859 0-3.372-1.513-3.372-3.372v-33.643h.698c9.199 0 16.681 7.483 16.681 16.681zm-58.697-19.364c-.24 3.485-.375 6.967-.375 10.407 0 30.661 9.368 60.564 26.607 85.713h-17.897c-15.512-25.844-23.71-55.383-23.71-85.713 0-6.316.375-12.631 1.089-18.902 4.193 3.719 9.047 6.589 14.286 8.495zm-8.895 96.121h-43.394l29.595-33.411c3.464 11.543 8.08 22.731 13.799 33.411zm372.383 39.548-194.005 175.063c-.207.187-.429.346-.64.525l-36.541-60.224c-.704-1.16-.896-2.521-.54-3.831.355-1.311 1.21-2.387 2.404-3.032l230.134-124.203v13.878c0 .694-.296 1.359-.812 1.824z"/></g></g></svg>