<svg id="Filled" height="512" viewBox="0 0 512 512" width="512" xmlns="http://www.w3.org/2000/svg"><path d="m376 288c65.608-65.608 81.608-158.392 16-224-60.75-60.75-150.392-49.608-216 16l32 40c43.739-43.739 100.261-59.739 144-16s27.739 100.261-16 144l-199.6 200.4 39.6 39.6z" fill="#dfe1e4"/><g fill="#eb423f"><path d="m176 80 32 40 64-40z"/><path d="m288 24 48 64 40 48 8-80-40-24z"/><path d="m328 256 48-56 56-48v40l-8 32z"/><path d="m136.402 448.402 31.598-32.402 72 8-64 64z"/><path d="m216 368 64-64h80l-64 64z"/></g><path d="m368 368-48 48-40-72-72-40 48-48 40 72z" fill="#35a872"/><path d="m441.166 176.8c4.5-44.535-10.547-85.5-43.509-118.461-30.614-30.614-70.578-45.416-112.543-41.7-40.392 3.587-81.152 24.077-114.771 57.7a8 8 0 0 0 -.59 10.661l32 40a8 8 0 0 0 11.9.659c21.619-21.619 45-34.953 67.6-38.561 24.332-3.881 46.229 3.707 65.082 22.561s26.444 40.75 22.56 65.082c-3.607 22.608-16.941 45.985-38.571 67.615l-46.708 46.9-20.631-37.136a8 8 0 0 0 -12.65-1.772l-48 48a8 8 0 0 0 1.772 12.65l37.245 20.692-110.619 111.066a8 8 0 0 0 .012 11.3l39.6 39.6a8 8 0 0 0 11.314 0l110.784-110.785 20.564 37.014a8 8 0 0 0 12.65 1.772l48-48a8 8 0 0 0 -1.772-12.65l-37.014-20.564 46.786-46.786c34.22-34.219 55.354-75.719 59.509-116.857zm-57.206-32.077h.007l6.439-70.833c19.931 21.484 31.682 46.457 34.725 73.49l-41.721 36.507c.506-2.211.942-4.42 1.294-6.626a87.713 87.713 0 0 0 -.744-32.538zm-175.176-36.55-16.139-20.173h42.711a172.816 172.816 0 0 0 -26.572 20.173zm69.955-36.873c-1.282.2-2.565.447-3.849.7h-78.22c27.1-22.4 57.76-36.132 88.1-39.237l32.69 40.862a86.76 86.76 0 0 0 -38.721-2.325zm79.266 27.4-53.162-66.453c25.947 1.37 49.981 10.764 70.765 27.7l-4.918 54.1a106.57 106.57 0 0 0 -12.685-15.347zm12.467 117.767 55.305-48.392q-.173 3.543-.53 7.121a149.16 149.16 0 0 1 -8.061 35.138l-62.335 28.766a161.988 161.988 0 0 0 15.621-22.633zm-194.472 260.22-28.3-28.3 23.851-23.947 51.018 5.669zm61.062-61.063-51.071-5.674 33.814-33.95h56.881zm-1.322-55.624 20.16-20.239 18.219 10.122 5.619 10.117zm119.1 9.843-33 33-34.85-62.729a7.992 7.992 0 0 0 -3.108-3.108l-62.729-34.85 33-33 34.85 62.729a7.992 7.992 0 0 0 3.108 3.108zm-34.52-37.481-18.441-10.245-2.539-4.57 39.374-3.579zm36.071-36.062-62.9 5.718 31.279-31.406 82.679-38.159a206.722 206.722 0 0 1 -37.11 49.9z"/></svg>