<svg id="Capa_1" enable-background="new 0 0 512.798 512.798" height="512" viewBox="0 0 512.798 512.798" width="512" xmlns="http://www.w3.org/2000/svg"><g><g><g><path d="m363.142 494.194c0 6.132-4.971 11.103-11.103 11.103h-8.746c-6.132 0-11.103-4.971-11.103-11.103v-475.591c0-6.132 4.971-11.103 11.103-11.103h8.746c6.132 0 11.103 4.971 11.103 11.103v29.104z" fill="#f6e2c4"/></g><g><g><path d="m180.608 18.603c0-6.132-4.971-11.103-11.103-11.103h-8.746c-6.132 0-11.103 4.971-11.103 11.103v29.104 73.961h30.953v-103.065z" fill="#f6e2c4"/></g></g><path d="m180.608 494.194c0 6.132-4.971 11.103-11.103 11.103h-8.746c-6.132 0-11.103-4.971-11.103-11.103v-196.352h30.953v196.352z" fill="#f6e2c4"/><path d="m230.883 290.534c2.581 5.087 3.926 10.71 3.926 16.414v22.207c0 19.546-15.845 35.39-35.39 35.39h-68.574c-19.546 0-35.39-15.845-35.39-35.39v-54.935c0-5.723 3.007-11.026 7.919-13.963l25.929-9.919 89.976 24.047z" fill="#f6e2c4"/><path d="m226.517 341.149h-68.574c-19.545 0-35.39-15.845-35.39-35.39v-52.839l-19.178 7.336c-4.912 2.938-7.919 8.24-7.919 13.963v54.935c0 19.546 15.845 35.39 35.39 35.39h68.574c15.553 0 28.753-10.038 33.501-23.985-2.079.381-4.217.59-6.404.59z" fill="#f8deb6"/><g><g><path d="m218.623 186.802-92.378-21.371-25.122 16.613c-3.597 3.08-5.668 7.578-5.668 12.314v54.241c0 4.167 2.141 8.042 5.668 10.26 35.787 22.503 77.202 34.441 119.476 34.441h2.877c6.26 0 11.334-5.074 11.334-11.334v-2.354-32.648-9.45c0-8.165-4.439-23.881-4.439-23.881z" fill="#f7d8a4"/><path d="m127.471 243.47c-3.528-2.218-5.668-6.093-5.668-10.26v-54.241c0-4.736 2.071-9.234 5.668-12.314l1.053-.696-2.28-.527-25.122 16.613c-3.597 3.08-5.668 7.578-5.668 12.314v54.241c0 4.167 2.141 8.042 5.668 10.26 35.787 22.503 77.202 34.441 119.476 34.441h2.877c6.259 0 11.334-5.074 11.334-11.334v-2.354-2.032c-38.03-2.06-74.984-13.767-107.338-34.111z" fill="#f5cd8b"/><path d="m212.888 109.905-80.811-18.447-30.954 13.771c-3.528 2.223-5.668 6.102-5.668 10.272v56.284c0 4.167 2.141 8.041 5.668 10.26 35.787 22.503 77.202 34.441 119.476 34.441h1.893c6.803 0 12.318-5.515 12.318-12.318v-44.301c0-7.673-6.707-21.472-6.707-21.472z" fill="#f6e2c4"/><path d="m122.624 167.743c-3.528-2.218-5.668-6.093-5.668-10.26v-56.283c0-1.1.158-2.177.442-3.211l-16.276 7.241c-3.528 2.223-5.668 6.102-5.668 10.272v56.284c0 4.167 2.141 8.042 5.668 10.26 35.787 22.503 77.202 34.441 119.476 34.441h1.893c6.803 0 12.318-5.515 12.318-12.318v-2.106c-39.732-1.293-78.458-13.113-112.185-34.32z" fill="#f8deb6"/><path d="m101.122 105.229c35.787 22.503 77.202 34.442 119.476 34.442h2.091c6.693 0 12.119-5.426 12.119-12.119v-44.454c0-19.546-15.845-35.39-35.39-35.39h-68.574c-19.546 0-35.39 15.845-35.39 35.39v11.872c0 4.166 2.141 8.041 5.668 10.259z" fill="#f7d8a4"/><path d="m128.22 95.576c-3.527-2.218-5.668-6.093-5.668-10.26v-11.871c0-10.144 4.275-19.285 11.114-25.738h-2.821c-19.545 0-35.39 15.845-35.39 35.39v11.871c0 4.167 2.141 8.042 5.668 10.26 35.787 22.503 77.202 34.441 119.476 34.441h2.091c5.983 0 10.957-4.355 11.944-10.056-37.698-2.199-74.326-13.86-106.414-34.037z" fill="#f5cd8b"/><path d="m413.332 289.949c2.581 5.087 3.926 10.71 3.926 16.414v22.207c0 19.546-15.845 35.39-35.39 35.39h-68.574c-19.546 0-35.39-15.845-35.39-35.39v-54.935c0-5.723 3.007-11.026 7.919-13.963l25.929-9.919 89.976 24.047z" fill="#f6e2c4"/><path d="m405.192 344.38h-68.574c-19.545 0-35.39-15.845-35.39-35.39v-54.935c0-.094.008-.186.009-.279l-15.414 5.896c-4.912 2.938-7.919 8.24-7.919 13.963v54.935c0 19.546 15.845 35.39 35.39 35.39h68.574c14.304 0 26.617-8.491 32.197-20.703-2.836.733-5.809 1.123-8.873 1.123z" fill="#f8deb6"/><path d="m401.072 186.217-92.378-21.371-25.122 16.613c-3.597 3.08-5.668 7.578-5.668 12.314v54.241c0 4.167 2.141 8.042 5.668 10.26 35.787 22.503 77.202 34.441 119.476 34.441h2.877c6.26 0 11.334-5.074 11.334-11.334v-2.354-32.647-9.45c0-8.165-4.439-23.881-4.439-23.881z" fill="#f7d8a4"/><path d="m305.467 243.507c-3.528-2.218-5.668-6.093-5.668-10.26v-54.241c0-4.281 1.705-8.357 4.687-11.377l-20.915 13.831c-3.597 3.08-5.668 7.578-5.668 12.314v54.241c0 4.167 2.141 8.042 5.668 10.26 35.787 22.503 77.202 34.441 119.476 34.441h2.877c6.26 0 11.334-5.074 11.334-11.334v-2.354-1.214c-39.594-1.356-78.175-13.17-111.791-34.307z" fill="#f5cd8b"/><path d="m395.337 109.32-80.811-18.447-30.954 13.771c-3.528 2.223-5.668 6.102-5.668 10.272v56.284c0 4.167 2.141 8.041 5.668 10.26 35.787 22.503 77.202 34.441 119.476 34.441h1.893c6.803 0 12.318-5.515 12.318-12.318v-44.301c0-7.673-6.707-21.472-6.707-21.472z" fill="#f6e2c4"/><path d="m310.754 167.743c-3.527-2.218-5.668-6.093-5.668-10.26v-56.283c0-2.618.845-5.12 2.346-7.171l-23.861 10.615c-3.528 2.223-5.668 6.102-5.668 10.272v56.284c0 4.167 2.141 8.042 5.668 10.26 35.787 22.503 77.202 34.441 119.476 34.441h1.893c6.803 0 12.318-5.515 12.318-12.318v-1.781c-37.735-2.184-74.386-13.864-106.504-34.059z" fill="#f8deb6"/><path d="m283.572 104.644c35.787 22.503 77.202 34.442 119.476 34.442h2.091c6.693 0 12.119-5.426 12.119-12.119v-44.454c0-19.546-15.845-35.39-35.39-35.39h-68.574c-19.546 0-35.39 15.845-35.39 35.39v11.872c0 4.167 2.14 8.041 5.668 10.259z" fill="#f7d8a4"/><path d="m314.488 94.393c-3.528-2.218-5.668-6.093-5.668-10.26v-11.871c0-9.833 4.012-18.726 10.486-25.139h-6.012c-19.546 0-35.39 15.845-35.39 35.39v11.871c0 4.167 2.141 8.042 5.668 10.26 35.787 22.503 77.202 34.441 119.476 34.441h2.091c6.276 0 11.438-4.771 12.057-10.884-36.395-2.726-71.669-14.29-102.708-33.808z" fill="#f5cd8b"/></g></g></g><g><path d="m199.419 40.208h-11.311v-21.604c0-10.258-8.345-18.604-18.603-18.604h-8.746c-10.258 0-18.604 8.346-18.604 18.604v21.604h-11.311c-23.65 0-42.89 19.24-42.89 42.89v11.872c0 3.704 1.028 7.231 2.89 10.263-1.862 3.034-2.89 6.564-2.89 10.269v56.283c0 3.893 1.133 7.593 3.18 10.725-2.059 3.561-3.18 7.635-3.18 11.849v54.241c0 4.507 1.52 8.754 4.219 12.16-2.69 3.91-4.219 8.595-4.219 13.459v54.936c0 23.65 19.24 42.89 42.89 42.89h11.311v31.871c0 4.142 3.358 7.5 7.5 7.5s7.5-3.358 7.5-7.5v-31.871h15.953v122.149c0 1.987-1.617 3.604-3.604 3.604h-8.746c-1.987 0-3.604-1.617-3.604-3.604v-58.316c0-4.142-3.358-7.5-7.5-7.5s-7.5 3.358-7.5 7.5v58.316c0 10.258 8.346 18.604 18.604 18.604h8.746c10.258 0 18.604-8.346 18.604-18.604v-122.149h11.311c23.65 0 42.89-19.24 42.89-42.89v-22.207c0-5.187-.946-10.371-2.748-15.236 1.732-2.847 2.748-6.176 2.748-9.745v-44.453c0-7.579-1.164-15.029-3.432-22.216 2.164-3.175 3.432-7.007 3.432-11.13v-44.301c0-6.917-1.561-13.641-4.551-19.772 2.838-3.403 4.551-7.776 4.551-12.544v-12.078c0-4.142-3.358-7.5-7.5-7.5s-7.5 3.358-7.5 7.5v12.078c0 2.547-2.072 4.619-4.619 4.619h-2.091c-40.915 0-80.848-11.512-115.483-33.291-1.353-.851-2.161-2.312-2.161-3.911v-11.87c0-15.378 12.511-27.89 27.89-27.89h68.574c15.379 0 27.89 12.512 27.89 27.89v.414c0 4.142 3.358 7.5 7.5 7.5s7.5-3.358 7.5-7.5v-.414c0-23.65-19.24-42.89-42.89-42.89zm26.236 183.5c1.091 4.507 1.654 9.125 1.654 13.806v44.453c0 2.114-1.72 3.833-3.833 3.833h-2.877c-40.915 0-80.848-11.512-115.483-33.291-1.353-.851-2.161-2.312-2.161-3.91v-54.242c0-.769.106-1.524.302-2.251 35.578 20.873 75.99 31.878 117.342 31.878h1.893c1.078.001 2.13-.109 3.163-.276zm1.654 105.447c0 15.379-12.511 27.89-27.89 27.89h-68.574c-15.379 0-27.89-12.511-27.89-27.89v-54.936c0-1.675.501-3.286 1.372-4.668 35.317 20.468 75.335 31.249 116.272 31.249h2.877c1.055 0 2.083-.109 3.091-.276.484 2.106.742 4.263.742 6.424zm-4.619-181.985c.591 0 1.173-.037 1.751-.089 1.871 3.983 2.868 8.319 2.868 12.785v44.301c0 2.657-2.161 4.818-4.818 4.818h-1.893c-40.915 0-80.848-11.512-115.483-33.291-1.353-.851-2.161-2.312-2.161-3.911v-56.283c0-.126.014-.25.024-.374 35.646 20.98 76.161 32.043 117.62 32.043h2.092zm-65.535-128.566c0-1.987 1.617-3.604 3.604-3.604h8.746c1.987 0 3.604 1.617 3.604 3.604v21.604h-15.953v-21.604z"/><path d="m129.303 72.506c-4.142 0-7.5 3.358-7.5 7.5s3.358 7.5 7.5 7.5h5.547c4.142 0 7.5-3.358 7.5-7.5s-3.358-7.5-7.5-7.5z"/><path d="m139.915 171.44h4.1c4.142 0 7.5-3.358 7.5-7.5s-3.358-7.5-7.5-7.5h-4.1c-4.142 0-7.5 3.358-7.5 7.5s3.358 7.5 7.5 7.5z"/><path d="m199.729 185.911h2.653c4.142 0 7.5-3.358 7.5-7.5s-3.358-7.5-7.5-7.5h-2.653c-4.142 0-7.5 3.358-7.5 7.5s3.358 7.5 7.5 7.5z"/><path d="m204.794 249.769h-8.924c-4.142 0-7.5 3.358-7.5 7.5s3.358 7.5 7.5 7.5h8.924c4.142 0 7.5-3.358 7.5-7.5s-3.357-7.5-7.5-7.5z"/><path d="m132.438 317.794h-6.271c-4.142 0-7.5 3.358-7.5 7.5s3.358 7.5 7.5 7.5h6.271c4.142 0 7.5-3.358 7.5-7.5s-3.357-7.5-7.5-7.5z"/><path d="m424.843 83.098c0-23.65-19.24-42.89-42.89-42.89h-11.311v-21.604c.001-10.258-8.345-18.604-18.603-18.604h-8.746c-10.258 0-18.604 8.346-18.604 18.604v21.604h-11.311c-23.65 0-42.89 19.24-42.89 42.89v11.872c0 3.703 1.028 7.231 2.89 10.263-1.862 3.034-2.89 6.564-2.89 10.269v56.283c0 3.892 1.133 7.591 3.179 10.723-2.057 3.563-3.179 7.637-3.179 11.851v54.241c0 4.505 1.519 8.751 4.216 12.156-2.691 3.911-4.216 8.598-4.216 13.463v54.936c0 23.65 19.24 42.89 42.89 42.89h11.311v122.149c0 10.258 8.346 18.604 18.604 18.604h8.746c10.258 0 18.604-8.346 18.604-18.604v-122.149h11.311c23.65 0 42.89-19.24 42.89-42.89v-22.207c0-5.188-.944-10.374-2.746-15.239 1.73-2.847 2.746-6.174 2.746-9.742v-44.453c0-7.579-1.164-15.029-3.432-22.216 2.164-3.175 3.432-7.007 3.432-11.13v-44.301c0-6.913-1.584-13.623-4.57-19.751 2.849-3.406 4.57-7.787 4.57-12.565v-44.453zm-15 154.416v44.453c0 2.114-1.72 3.833-3.833 3.833h-2.877c-40.915 0-80.848-11.512-115.483-33.291-1.353-.851-2.161-2.312-2.161-3.91v-54.242c0-.769.113-1.521.307-2.248 35.577 20.872 75.987 31.875 117.337 31.875h1.893c1.077 0 2.127-.11 3.158-.276 1.091 4.508 1.659 9.125 1.659 13.806zm-70.154-218.91c0-1.987 1.617-3.604 3.604-3.604h8.746c1.987 0 3.604 1.617 3.604 3.604v21.604h-15.953v-21.604zm-54.2 64.494c0-15.378 12.511-27.89 27.89-27.89h68.574c15.379 0 27.89 12.512 27.89 27.89v44.454c0 2.547-2.072 4.619-4.619 4.619h-2.091c-5.076 0-10.215-.181-15.276-.539-4.129-.292-7.718 2.821-8.01 6.953s2.821 7.718 6.953 8.01c5.411.382 10.906.576 16.333.576h2.091c.594 0 1.18-.037 1.761-.089 1.87 3.982 2.858 8.32 2.858 12.786v44.301c0 2.657-2.161 4.818-4.818 4.818h-1.893c-40.915 0-80.848-11.512-115.483-33.291-1.353-.851-2.161-2.312-2.161-3.911v-56.283c0-.128.014-.253.024-.378 21.207 12.484 44.133 21.474 68.257 26.729 4.046.881 8.043-1.685 8.924-5.732.882-4.047-1.685-8.043-5.732-8.924-24.653-5.37-47.974-14.896-69.313-28.315-1.353-.851-2.161-2.312-2.161-3.911v-11.873zm70.154 411.096c0 1.987-1.617 3.604-3.604 3.604h-8.746c-1.987 0-3.604-1.617-3.604-3.604v-122.149h15.953v122.149zm54.2-165.039c0 15.379-12.511 27.89-27.89 27.89h-68.574c-15.379 0-27.89-12.511-27.89-27.89v-54.936c0-1.675.501-3.286 1.372-4.668 35.317 20.468 75.335 31.249 116.272 31.249h2.877c1.057 0 2.087-.109 3.096-.277.483 2.106.737 4.264.737 6.424z"/><path d="m311.837 87.506h5.547c4.142 0 7.5-3.358 7.5-7.5s-3.358-7.5-7.5-7.5h-5.547c-4.142 0-7.5 3.358-7.5 7.5s3.358 7.5 7.5 7.5z"/><path d="m326.549 156.44h-4.1c-4.142 0-7.5 3.358-7.5 7.5s3.358 7.5 7.5 7.5h4.1c4.142 0 7.5-3.358 7.5-7.5s-3.358-7.5-7.5-7.5z"/><path d="m382.264 185.911h2.653c4.142 0 7.5-3.358 7.5-7.5s-3.358-7.5-7.5-7.5h-2.653c-4.142 0-7.5 3.358-7.5 7.5s3.358 7.5 7.5 7.5z"/><path d="m387.329 249.769h-8.924c-4.142 0-7.5 3.358-7.5 7.5s3.358 7.5 7.5 7.5h8.924c4.142 0 7.5-3.358 7.5-7.5s-3.358-7.5-7.5-7.5z"/><path d="m314.973 317.794h-6.271c-4.142 0-7.5 3.358-7.5 7.5s3.358 7.5 7.5 7.5h6.271c4.142 0 7.5-3.358 7.5-7.5s-3.358-7.5-7.5-7.5z"/></g></g></svg>