<svg id="Capa_1" enable-background="new 0 0 512.592 512.592" height="512" viewBox="0 0 512.592 512.592" width="512" xmlns="http://www.w3.org/2000/svg"><g><g><path d="m363.017 188.924 10.473 81.282c5.811 45.101-17.847 88.87-58.762 108.714l-33.396 16.197v104.533c0 3.006-2.437 5.442-5.442 5.442h-39.198c-3.006 0-5.442-2.437-5.442-5.442v-104.533l-33.396-16.197c-40.915-19.844-64.573-63.614-58.762-108.714l10.473-81.282 6.818-60.257 22.8 3.386v66.167 96.695c0 4.209 3.412 7.62 7.62 7.62h15.885c4.209 0 7.62-3.412 7.62-7.62v-90.336l-.856-70.833h30.775v73.839 87.33c0 4.209 3.412 7.62 7.62 7.62h15.885c4.209 0 7.62-3.412 7.62-7.62v-87.272l-1.518-71.075h32.437v68.012 90.336c0 4.209 3.412 7.62 7.62 7.62h15.885c4.209 0 7.62-3.412 7.62-7.62v-96.696l-2.319-69.553h29.047z" fill="#f6e2c4"/><g><path d="m276.938 488.551c-12.745 0-23.077-10.332-23.077-23.077v-69.924c0-10.382-5.931-19.851-15.272-24.381l-18.124-8.79c-40.915-19.844-64.573-63.614-58.762-108.715l10.473-81.281 4.603-40.687-20.396-3.029-6.818 60.257-10.473 81.281c-5.811 45.101 17.847 88.87 58.762 108.715l33.396 16.197v104.533c0 3.006 2.437 5.442 5.442 5.442h39.198c3.006 0 5.442-2.437 5.442-5.442v-11.099z" fill="#f7d8a4"/></g><g><g><path d="m256.292 208.007c-81.247 0-157.732-31.538-215.364-88.805l-15.592-15.494c-22.05-21.91-22.163-57.547-.253-79.597 21.909-22.051 57.547-22.163 79.596-.252l15.592 15.493c36.4 36.168 84.707 56.087 136.021 56.087 51.315 0 99.621-19.919 136.021-56.087l15.592-15.494c22.051-21.908 57.689-21.796 79.598.254 21.91 22.05 21.796 57.687-.254 79.597l-15.592 15.493c-57.634 57.267-134.118 88.805-215.365 88.805z" fill="#ea9a98"/></g><g><path d="m293.602 174.356c-81.247 0-157.731-31.538-215.364-88.805l-15.593-15.493c-16.418-16.313-20.653-40.254-12.713-60.513-9.105 2.524-17.714 7.384-24.85 14.566-21.911 22.05-21.797 57.687.253 79.597l15.593 15.494c57.633 57.267 134.117 88.805 215.364 88.805s157.731-31.538 215.365-88.804l8.135-8.083c-53.155 41.006-117.992 63.236-186.19 63.236z" fill="#e5827f"/></g></g></g><g style="fill:none;stroke:#000;stroke-width:15;stroke-linecap:round;stroke-linejoin:round;stroke-miterlimit:10"><g><path d="m174.637 77.416-10.751 22.148"/><path d="m129.366 47.821-19.287 29.595"/><path d="m228.13 95.114-1.648 17.462"/><path d="m337.947 77.416 10.751 22.148"/><path d="m383.218 47.821 19.287 29.595"/><path d="m284.454 95.114 1.648 17.462"/><path d="m192.411 376.059c1.783.996 3.589 1.961 5.444 2.861l33.396 16.197v109.975"/><path d="m149.567 188.924-10.473 81.282c-4.14 32.132 6.688 63.58 28.048 86.19"/><path d="m363.017 188.924 10.473 81.282c5.811 45.101-17.847 88.87-58.762 108.714l-33.396 16.197v109.975"/><path d="m240.229 207.585v87.33c0 4.209 3.412 7.62 7.62 7.62h15.885c4.209 0 7.62-3.412 7.62-7.62v-87.272"/><path d="m179.184 198.22v96.695c0 4.209 3.412 7.62 7.62 7.62h15.885c4.209 0 7.62-3.412 7.62-7.62v-90.336"/><path d="m302.274 204.579v90.336c0 4.209 3.412 7.62 7.62 7.62h15.885c4.208 0 7.62-3.412 7.62-7.62v-96.695"/></g><path d="m438.925 147.465c11.459-8.577 22.403-17.999 32.732-28.262l15.593-15.493c22.05-21.91 22.164-57.547.254-79.597-21.909-22.051-57.547-22.163-79.598-.254l-15.593 15.494c-36.4 36.169-84.706 56.087-136.021 56.087-51.314 0-99.621-19.919-136.021-56.087l-15.592-15.493c-16.376-16.275-40.245-20.388-60.422-12.399"/><path d="m19.076 31.261c-15.64 22.035-13.541 52.773 6.259 72.447l15.593 15.494c57.633 57.267 134.117 88.805 215.364 88.805 55.795 0 109.344-14.876 156.084-42.741"/></g></g></svg>