<svg id="Filled" height="512" viewBox="0 0 512 512" width="512" xmlns="http://www.w3.org/2000/svg"><path d="m368 383.36a112.013 112.013 0 0 1 -72 104.64v-40c23.91-13.83 40-35.03 40-64.64a80 80 0 0 0 -160 0c0 29.61 16.09 50.81 40 64.64v40a112.011 112.011 0 1 1 152-104.64z" fill="#ee6e0a"/><rect fill="#ff750a" height="32" rx="16" width="272" x="120" y="271.36"/><path d="m376 112-64 159.36h-112l-64-159.36 48-88h144z" fill="#fdb432"/><path d="m376 112h-240l48-88h144z" fill="#fd8c26"/><g fill="#ffd33a"><path d="m240 271.36-32-159.36h96l-32 159.36z"/><path d="m112 208a101.19 101.19 0 0 0 -64-64 101.19 101.19 0 0 0 64-64 101.19 101.19 0 0 0 64 64 101.19 101.19 0 0 0 -64 64z"/><path d="m184 24 24 88 48-88z"/><path d="m256 24 48 88 24-88z"/></g><path d="m208 112h96l-48-88z" fill="#fd8c26"/><path d="m392 72a54.973 54.973 0 0 1 -40 40 54.973 54.973 0 0 1 40 40 54.973 54.973 0 0 1 40-40 54.973 54.973 0 0 1 -40-40z" fill="#ffd33a"/><path d="m40 144a8 8 0 0 0 5.47 7.589 93.638 93.638 0 0 1 58.94 58.941 8 8 0 0 0 15.18 0 93.491 93.491 0 0 1 30.044-43.114l38.532 95.944h-52.166a24 24 0 0 0 0 48h23.986a120.033 120.033 0 0 0 53.157 184.113 8 8 0 0 0 10.857-7.473v-40a8 8 0 0 0 -3.994-6.925c-23.892-13.819-36.006-33.238-36.006-57.715a72 72 0 0 1 144 0c0 24.477-12.114 43.9-36.006 57.715a8 8 0 0 0 -3.994 6.925v40a8 8 0 0 0 10.857 7.473 120.059 120.059 0 0 0 53.168-184.113h23.975a24 24 0 0 0 0-48h-52.166l51.266-127.66a46.933 46.933 0 0 1 9.137 18.236 8 8 0 0 0 15.522 0 46.892 46.892 0 0 1 34.179-34.179 8 8 0 0 0 0-15.522 46.892 46.892 0 0 1 -34.177-34.175 8 8 0 0 0 -15.522 0 46.916 46.916 0 0 1 -10.923 20.311l-38.293-70.2a8 8 0 0 0 -7.023-4.171h-144a8 8 0 0 0 -7.023 4.169l-44.738 82.019a92.665 92.665 0 0 1 -12.649-24.718 8 8 0 0 0 -15.18 0 93.638 93.638 0 0 1 -58.94 58.941 8 8 0 0 0 -5.47 7.589zm128 239.36c0 28.744 13.807 52.563 40 69.148v23.144a104.023 104.023 0 0 1 -27.039-164.292h24.5a87.956 87.956 0 0 0 -37.461 72zm192 0a104.038 104.038 0 0 1 -56 92.292v-23.144c26.193-16.585 40-40.4 40-69.148a87.956 87.956 0 0 0 -37.462-72h24.509a103.261 103.261 0 0 1 28.953 72zm16-104a8 8 0 0 1 0 16h-240a8 8 0 0 1 0-16zm-129.446-16-28.788-143.36h76.468l-28.788 143.36zm145.446-171.179a62.823 62.823 0 0 0 19.819 19.819 62.823 62.823 0 0 0 -19.819 19.819 62.823 62.823 0 0 0 -19.819-19.819 62.823 62.823 0 0 0 19.819-19.819zm-85.408 171.179h-24.826l28.788-143.36h40.339a47.052 47.052 0 0 1 11.377 4.722zm23.9-218.088 29.988 54.977a47.006 47.006 0 0 1 -9.587 3.751h-36.419zm-12.966-13.272-16.016 58.727-32.033-58.727zm-27 72h-69.049l34.523-63.293zm-48-72-32.036 58.727-16.016-58.727zm-61.016 13.272 16.016 58.728h-48.05zm19.936 74.728 28.788 143.36h-24.826l-42.192-105.06a92.269 92.269 0 0 1 15.314-6.712 8 8 0 0 0 0-15.178 92.917 92.917 0 0 1 -29.609-16.41zm-89.446-20.015a110.119 110.119 0 0 0 44.015 44.015 110.119 110.119 0 0 0 -44.015 44.015 110.119 110.119 0 0 0 -44.015-44.015 110.119 110.119 0 0 0 44.015-44.015z"/></svg>