<svg id="Capa_1" enable-background="new 0 0 512.245 512.245" height="512" viewBox="0 0 512.245 512.245" width="512" xmlns="http://www.w3.org/2000/svg"><g><g><path d="m355.013 224.831-15.307-21.651c-3.855-5.452-3.855-12.742 0-18.195l1.343-1.9c8.369-11.837 8.369-27.664 0-39.502l-1.343-1.9c-3.855-5.452-3.855-12.742 0-18.195l1.343-1.9c8.369-11.837 8.369-27.664 0-39.502l-1.343-1.9c-3.855-5.452-3.855-12.742 0-18.195l2.904-4.107c7.232-10.229 6.322-24.122-2.182-33.32-9.061-9.8-23.992-11.342-34.864-3.6l-1.938 1.38c-4.892 3.484-11.559 3.046-15.954-1.047l-2.323-2.163c-16.748-15.599-42.704-15.599-59.453 0l-2.323 2.163c-4.395 4.093-11.062 4.53-15.954 1.047l-1.938-1.38c-10.872-7.742-25.803-6.201-34.864 3.6-8.504 9.198-9.414 23.091-2.182 33.32l2.904 4.107c3.855 5.452 3.855 12.742 0 18.195l-1.343 1.9c-8.369 11.837-8.369 27.664 0 39.502l1.343 1.9c3.855 5.452 3.855 12.742 0 18.195l-1.343 1.9c-8.369 11.837-8.369 27.664 0 39.502l1.343 1.9c3.855 5.452 3.855 12.742 0 18.195l-15.307 21.651v99.403h198.781z" fill="#f6e2c4"/><path d="m191.914 246.561 15.307-21.651c3.855-5.452 3.855-12.742 0-18.195l-1.344-1.9c-8.369-11.837-8.369-27.664 0-39.502l1.344-1.9c3.855-5.452 3.855-12.742 0-18.195l-1.344-1.9c-8.369-11.837-8.369-27.664 0-39.502l1.344-1.9c3.855-5.452 3.855-12.742 0-18.195l-2.904-4.107c-7.232-10.229-6.322-24.122 2.182-33.32 9.061-9.8 23.992-11.342 34.864-3.599l1.938 1.38c4.892 3.484 11.559 3.046 15.954-1.047l2.323-2.163c16.748-15.599 42.704-15.599 59.452 0l2.323 2.163c4.395 4.093 11.062 4.531 15.954 1.047l1.938-1.38c1.902-1.354 3.956-2.397 6.053-3.188-.633-5.429-2.943-10.693-6.871-14.942-9.061-9.8-23.992-11.342-34.864-3.599l-1.938 1.38c-4.892 3.484-11.559 3.046-15.954-1.047l-2.323-2.163c-16.748-15.599-42.705-15.599-59.453 0l-2.323 2.163c-4.395 4.093-11.062 4.531-15.954 1.047l-1.938-1.38c-10.872-7.742-25.803-6.201-34.864 3.599-8.504 9.198-9.414 23.091-2.182 33.32l2.904 4.107c3.855 5.452 3.855 12.742 0 18.195l-1.344 1.9c-8.369 11.837-8.369 27.664 0 39.502l1.344 1.9c3.855 5.452 3.855 12.742 0 18.195l-1.344 1.9c-8.369 11.837-8.369 27.664 0 39.502l1.344 1.9c3.855 5.452 3.855 12.742 0 18.195l-15.307 21.651v99.403h35.682v-77.674z" fill="#f8deb6"/><g><g id="XMLID_199_"><g><path d="m370.043 460.419-1.37-1.37-25.019-33.296h-167.969l-32.112 33.296-1.37 1.37c-6.71 6.72-10.49 15.82-10.49 25.32v13.92c0 2.81 2.28 5.09 5.09 5.09h238.64c2.81 0 5.09-2.28 5.09-5.09v-13.92c0-9.5-3.78-18.6-10.49-25.32z" fill="#a9e4f9"/><path d="m169.341 493.737c0-8.971 3.78-17.565 10.49-23.911.874-.826 1.37-1.975 1.37-3.178v-40.895h-5.517l-32.112 33.296-1.37 1.37c-6.71 6.72-10.49 15.82-10.49 25.32v14.067c0 2.73 2.213 4.943 4.943 4.943h32.686z" fill="#81d9f8"/></g></g><path d="m144.742 235.828c-.744 1.989-1.17 4.133-1.17 6.381v216.84h225.1v-216.84c0-2.249-.426-4.392-1.17-6.381z" fill="#cfeffc"/><path d="m350.423 223.959h-32.043l-8.758 13.44h-105.517l-11.239-13.44h-31.043c-10.08 0-18.25 8.17-18.25 18.25v216.84h37.629v-195.293c0-9.519 8.17-17.235 18.25-17.235h169.221v-4.312c0-10.08-8.17-18.25-18.25-18.25z" fill="#a9e4f9"/></g><path d="m192.866 234.369v169.325c0 11.498 9.321 20.819 20.819 20.819h83.876c11.498 0 20.819-9.321 20.819-20.819v-169.325z" fill="#fcf0b6"/><path d="m192.866 247.697c2.045-.749 4.26-1.175 6.585-1.175h118.929v-22.562h-125.514z" fill="#fbe88c"/></g><g><path d="m376.174 455.969v-213.764c0-11.032-6.976-20.463-16.747-24.122l-13.597-19.233c-2.016-2.852-2.016-6.684 0-9.535l1.344-1.901c10.184-14.403 10.184-33.757 0-48.161l-1.344-1.9c-2.016-2.852-2.016-6.684 0-9.535l1.344-1.901c10.184-14.403 10.184-33.757 0-48.161l-1.344-1.9c-2.016-2.852-2.016-6.684 0-9.535l2.904-4.108c9.219-13.04 8.042-31.015-2.8-42.741-11.59-12.536-30.816-14.52-44.723-4.617l-1.936 1.379c-1.979 1.41-4.712 1.234-6.492-.425l-2.323-2.163c-19.535-18.194-50.14-18.194-69.677 0l-2.321 2.163c-1.78 1.658-4.512 1.837-6.491.427l-1.938-1.381c-13.907-9.904-33.134-7.918-44.722 4.618-10.842 11.726-12.019 29.701-2.8 42.741l2.904 4.106c2.016 2.852 2.016 6.685 0 9.536l-1.344 1.901c-10.184 14.403-10.184 33.757 0 48.161l1.344 1.899c2.016 2.852 2.016 6.685 0 9.536l-1.344 1.901c-10.184 14.403-10.184 33.757 0 48.161l1.344 1.899c2.016 2.852 2.016 6.685 0 9.536l-14.008 19.813c-9.024 4.007-15.336 13.049-15.336 23.542v140.196c0 4.142 3.357 7.5 7.5 7.5s7.5-3.358 7.5-7.5v-140.196c0-5.928 4.822-10.75 10.75-10.75h23.545v172.239c0 15.615 12.704 28.318 28.319 28.318h83.875c15.615 0 28.319-12.704 28.319-28.318v-103.575c0-4.142-3.357-7.5-7.5-7.5s-7.5 3.358-7.5 7.5v103.575c0 7.344-5.975 13.318-13.319 13.318h-83.875c-7.345 0-13.319-5.975-13.319-13.318v-172.239h110.514v36.701c0 4.142 3.357 7.5 7.5 7.5s7.5-3.358 7.5-7.5v-36.701h24.545c5.928 0 10.75 4.822 10.75 10.75v209.348h-21.96c-4.143 0-7.5 3.358-7.5 7.5s3.357 7.5 7.5 7.5h26.314c4.844 5.242 7.502 12.009 7.502 19.188v11.504h-233.816v-11.504c0-7.178 2.658-13.945 7.502-19.188h160.535c4.143 0 7.5-3.358 7.5-7.5s-3.357-7.5-7.5-7.5h-156.181v-37.189c0-4.142-3.357-7.5-7.5-7.5s-7.5 3.358-7.5 7.5v41.606c-7.654 8.075-11.855 18.601-11.855 29.771v13.917c0 6.941 5.646 12.588 12.588 12.588h238.639c6.941 0 12.588-5.647 12.588-12.588v-13.917c-.001-11.172-4.202-21.697-11.857-29.772zm-199.849-426.314c6.481-7.01 17.233-8.118 25.006-2.583l1.939 1.382c7.758 5.523 18.446 4.822 25.416-1.668l2.321-2.163c13.803-12.856 35.427-12.856 49.229 0l2.323 2.163c6.969 6.49 17.657 7.192 25.417 1.667l1.937-1.379c7.777-5.538 18.525-4.428 25.007 2.582 6.062 6.557 6.721 16.607 1.565 23.898l-2.904 4.108c-5.678 8.031-5.678 18.823 0 26.854l1.344 1.9c6.521 9.224 6.521 21.618 0 30.842l-1.344 1.901c-5.678 8.031-5.678 18.823 0 26.854l1.344 1.9c6.521 9.224 6.521 21.618 0 30.842l-1.344 1.901c-5.678 8.031-5.678 18.823 0 26.854l6.325 8.946h-168.567l6.325-8.946c5.678-8.031 5.678-18.822 0-26.854l-1.344-1.9c-6.521-9.224-6.521-21.618 0-30.842l1.344-1.901c5.678-8.031 5.678-18.822 0-26.854l-1.344-1.9c-6.521-9.224-6.521-21.618 0-30.842l1.344-1.901c5.678-8.031 5.678-18.822 0-26.854l-2.904-4.107c-5.156-7.293-4.497-17.344 1.565-23.9z"/><path d="m200.02 87.877c.725 3.553 3.851 6.002 7.341 6.002.497 0 1.001-.05 1.507-.153 4.059-.828 6.678-4.789 5.85-8.848l-.206-1.011c-2.118-10.375 2.7-20.763 11.988-25.849 3.633-1.989 4.965-6.547 2.976-10.18-1.989-3.632-6.545-4.967-10.181-2.976-15.093 8.265-22.922 25.146-19.48 42.004z"/><path d="m283.056 101.825c1.468 1.494 3.407 2.243 5.349 2.243 1.897 0 3.797-.716 5.257-2.151 5.186-5.097 8.042-11.908 8.042-19.179s-2.856-14.082-8.042-19.178c-2.953-2.902-7.702-2.864-10.605.092-2.904 2.955-2.862 7.703.092 10.606 2.293 2.253 3.556 5.265 3.556 8.48s-1.263 6.227-3.556 8.48c-2.955 2.904-2.997 7.652-.093 10.607z"/><path d="m210.765 151.179c-4.143 0-7.5 3.358-7.5 7.5s3.357 7.5 7.5 7.5h.505c10.035 0 18.199 8.164 18.199 18.199 0 4.142 3.357 7.5 7.5 7.5s7.5-3.358 7.5-7.5c0-18.306-14.894-33.199-33.199-33.199z"/><path d="m300.118 148.605.405 1.424c1.665 5.826-.852 11.985-6.119 14.979-3.601 2.046-4.861 6.625-2.814 10.226 1.382 2.432 3.917 3.796 6.527 3.796 1.256 0 2.529-.316 3.699-.981 11.302-6.423 16.702-19.64 13.131-32.137l-.405-1.421c-1.136-3.983-5.288-6.292-9.269-5.155-3.983 1.135-6.292 5.285-5.155 9.269z"/><path d="m236.518 127.503c4.604 3.26 10.015 4.905 15.438 4.905 4.713 0 9.436-1.242 13.649-3.748l1.4-.833c3.56-2.117 4.73-6.719 2.614-10.279s-6.719-4.73-10.28-2.614l-1.4.833c-3.974 2.363-8.979 2.164-12.755-.507-3.38-2.394-8.062-1.592-10.454 1.788-2.393 3.38-1.593 8.062 1.788 10.455z"/><path d="m277.105 204.051h5.573c4.143 0 7.5-3.358 7.5-7.5s-3.357-7.5-7.5-7.5h-5.573c-4.143 0-7.5 3.358-7.5 7.5s3.358 7.5 7.5 7.5z"/><path d="m210.765 187.565h-4.24c-4.143 0-7.5 3.358-7.5 7.5s3.357 7.5 7.5 7.5h4.24c4.143 0 7.5-3.358 7.5-7.5s-3.357-7.5-7.5-7.5z"/><path d="m248.492 78.825h7.131c4.143 0 7.5-3.358 7.5-7.5s-3.357-7.5-7.5-7.5h-7.131c-4.143 0-7.5 3.358-7.5 7.5s3.357 7.5 7.5 7.5z"/></g></g></svg>