<svg id="Capa_1" enable-background="new 0 0 512.508 512.508" height="512" viewBox="0 0 512.508 512.508" width="512" xmlns="http://www.w3.org/2000/svg"><g><g><g fill="#f9de58"><ellipse cx="146.728" cy="122.41" rx="60.038" ry="54.134"/><ellipse cx="251.347" cy="107.468" rx="68.185" ry="61.961"/><ellipse cx="367.657" cy="125.012" rx="59.231" ry="59.802"/></g><g><path d="m410.824 60.222c-1.45-1.361-2.216-3.298-1.977-5.272 1.591-13.137-6.286-25.976-19.353-30.17-13.068-4.194-26.945 1.664-33.296 13.273-.954 1.745-2.704 2.874-4.675 3.137-8.833 1.177-16.527 7.82-18.303 17.494-1.735 9.452 3.228 19.08 11.931 23.156 7.868 3.685 16.484 2.226 22.585-2.651 1.267-1.013 2.975-1.28 4.519-.784l.027.009.027.009c1.544.495 2.778 1.707 3.218 3.267 2.123 7.516 8.281 13.717 16.824 15.299 9.449 1.75 19.088-3.192 23.178-11.888 4.184-8.902 1.793-18.782-4.705-24.879z" fill="#fcf1de"/></g><g><path d="m345.828 66.135c1.776-9.675 9.47-16.318 18.303-17.495 1.971-.263 3.721-1.392 4.675-3.137 6.171-11.28 19.473-17.138 32.208-13.613-3.1-3.171-7.003-5.661-11.52-7.11-13.068-4.194-26.945 1.664-33.296 13.273-.954 1.745-2.704 2.874-4.675 3.137-8.833 1.177-16.527 7.82-18.303 17.495-1.735 9.452 3.228 19.08 11.931 23.156 1.722.807 3.48 1.353 5.24 1.685-3.897-4.757-5.716-11.108-4.563-17.391z" fill="#f6e2c4"/></g><path d="m435.093 99.452c-1.797-.852-3.117-2.463-3.493-4.415-2.499-12.995-13.923-22.813-27.647-22.813s-25.148 9.818-27.647 22.813c-.376 1.953-1.697 3.563-3.493 4.415-8.05 3.82-13.346 12.496-12.081 22.251 1.236 9.53 8.904 17.181 18.436 18.402 8.618 1.104 16.376-2.918 20.694-9.426.897-1.351 2.441-2.128 4.063-2.127h.028.028c1.622-.001 3.166.776 4.063 2.127 4.318 6.508 12.076 10.53 20.694 9.426 9.532-1.221 17.2-8.872 18.436-18.402 1.265-9.755-4.031-18.432-12.081-22.251z" fill="#fcf0b6"/><g><path d="m375.431 128.851c-1.265-9.755 4.031-18.431 12.081-22.251 1.797-.852 3.117-2.463 3.493-4.415 2.499-12.995 13.923-22.813 27.647-22.813 1.507 0 2.984.125 4.426.353-5.021-4.654-11.739-7.501-19.126-7.501-13.724 0-25.148 9.818-27.647 22.813-.376 1.953-1.696 3.563-3.493 4.415-8.05 3.82-13.346 12.496-12.081 22.251 1.236 9.53 8.904 17.181 18.436 18.402.509.065 1.014.109 1.516.139-2.79-3.128-4.69-7.062-5.252-11.393z" fill="#fbe88c"/></g><path d="m256.254 63.102c0-5.309-1.506-10.273-4.121-14.51 2.949-8.737-.524-18.793-8.619-24.509-8.585-6.062-19.383-5.846-26.952-.756-1.689 1.136-3.86 1.471-5.888.807-13.497-4.421-28.39.567-35.147 12.554s-3.113 26.955 7.922 35.742c1.658 1.321 2.528 3.293 2.448 5.295-.358 8.973 5.225 18.008 15.056 21.86 9.605 3.763 20.602.954 26.448-6.751.402-.53.764-1.074 1.106-1.625 15.416-.535 27.747-12.91 27.747-28.107z" fill="#fcf1de"/><path d="m199.139 88.172c.08-2.002-.79-3.974-2.448-5.295-11.036-8.787-14.68-23.755-7.922-35.742 6.757-11.987 21.65-16.975 35.147-12.554 2.028.664 4.199.329 5.888-.807 5.696-3.831 13.24-4.898 20.274-2.609-1.611-2.708-3.825-5.147-6.564-7.081-8.585-6.062-19.383-5.846-26.952-.756-1.689 1.136-3.86 1.471-5.888.807-13.497-4.421-28.39.567-35.147 12.554s-3.113 26.955 7.922 35.742c1.658 1.321 2.528 3.293 2.448 5.295-.358 8.973 5.225 18.008 15.056 21.86.425.166.855.304 1.284.445-2.166-3.632-3.262-7.749-3.098-11.859z" fill="#f6e2c4"/><path d="m320.608 34.729c-1.797-.852-3.117-2.463-3.493-4.415-2.499-12.996-13.923-22.814-27.647-22.814s-25.148 9.818-27.647 22.813c-.376 1.953-1.696 3.563-3.493 4.415-8.05 3.82-13.346 12.496-12.081 22.251 1.006 7.755 6.272 14.265 13.336 17.079 5.094 11.471 16.579 19.476 29.939 19.476 13.382 0 24.883-8.03 29.964-19.532 6.996-2.843 12.204-9.317 13.204-17.023 1.265-9.755-4.031-18.431-12.082-22.25z" fill="#fcf1de"/><path d="m279.612 74.058c-7.063-2.814-12.33-9.324-13.336-17.079-1.265-9.755 4.031-18.431 12.081-22.251 1.797-.852 3.117-2.463 3.493-4.415 1.857-9.654 8.655-17.55 17.647-20.974-3.112-1.185-6.501-1.839-10.029-1.839-13.724 0-25.148 9.818-27.647 22.813-.376 1.953-1.696 3.563-3.493 4.415-8.05 3.82-13.346 12.496-12.081 22.251 1.006 7.755 6.272 14.265 13.336 17.079 5.094 11.471 16.579 19.476 29.939 19.476 3.496 0 6.858-.56 10.016-1.574-8.913-2.863-16.164-9.431-19.926-17.902z" fill="#f6e2c4"/><path d="m342.585 62.228c-1.975.34-4.041-.245-5.563-1.678-10.124-9.541-25.429-11.111-36.448-2.994s-14.058 23.199-7.947 35.697c.918 1.878.864 4.025-.046 5.81-4.078 8-2.91 18.49 4.2 26.014 6.946 7.35 17.881 9.303 26.297 4.702 7.609-4.161 11.325-12.16 10.727-20.232-.124-1.676.631-3.248 1.933-4.207l.023-.017.023-.017c1.301-.96 3.027-1.214 4.591-.599 7.532 2.965 16.274 1.787 22.503-4.246 6.89-6.673 8.267-17.696 3.307-26.509-5.078-9.02-14.75-13.246-23.6-11.724z" fill="#fcf0b6"/><g><path d="m313.279 125.077c-7.109-7.524-8.277-18.013-4.2-26.014.91-1.785.965-3.932.046-5.81-6.111-12.498-3.072-27.58 7.947-35.697 2.453-1.807 5.14-3.128 7.913-3.994-8.206-2.47-17.226-1.3-24.412 3.994-11.019 8.117-14.058 23.199-7.947 35.697.918 1.878.864 4.025-.046 5.81-4.078 8-2.91 18.49 4.2 26.014 6.489 6.868 16.461 9.02 24.607 5.52-2.987-1.207-5.775-3.051-8.108-5.52z" fill="#fbe88c"/></g><path d="m165.333 41.64c-1.91-.553-3.472-1.931-4.156-3.798-4.55-12.426-17.4-20.286-30.947-18.086s-23.249 13.723-23.633 26.95c-.058 1.988-1.103 3.789-2.74 4.918-7.334 5.061-11.171 14.474-8.358 23.9 2.748 9.208 11.543 15.531 21.148 15.209 1.594-.053 3.13-.276 4.598-.642 3.981 3.063 8.963 4.888 14.374 4.888 8.639 0 16.19-4.644 20.303-11.569 3.093.507 6.37.351 9.654-.623 9.213-2.734 15.555-11.515 15.248-21.12-.314-9.832-6.933-17.547-15.491-20.027z" fill="#fcf1de"/><path d="m109.479 80.95c-2.813-9.426 1.024-18.839 8.358-23.9 1.637-1.129 2.682-2.931 2.74-4.918.384-13.227 10.086-24.75 23.633-26.95 2.48-.403 4.949-.463 7.335-.225-5.894-4.38-13.493-6.471-21.315-5.2-13.547 2.2-23.249 13.723-23.633 26.95-.058 1.988-1.103 3.789-2.74 4.918-7.334 5.061-11.171 14.474-8.358 23.9 2.662 8.92 11.001 15.113 20.25 15.2-2.892-2.57-5.117-5.913-6.27-9.775z" fill="#f6e2c4"/><path d="m144.055 99.452c-1.797-.852-3.117-2.463-3.493-4.415-2.499-12.995-13.923-22.813-27.647-22.813s-25.148 9.818-27.647 22.813c-.376 1.953-1.696 3.563-3.493 4.415-8.05 3.82-13.346 12.496-12.081 22.251 1.236 9.53 8.904 17.181 18.436 18.402 8.618 1.104 16.376-2.918 20.694-9.426.897-1.351 2.441-2.128 4.063-2.127h.028.028c1.622-.001 3.166.776 4.063 2.127 4.318 6.508 12.076 10.53 20.694 9.426 9.532-1.221 17.2-8.872 18.436-18.402 1.265-9.755-4.031-18.432-12.081-22.251z" fill="#fcf0b6"/><g><path d="m85.494 127.826c-1.265-9.755 4.031-18.431 12.081-22.251 1.797-.852 3.117-2.463 3.493-4.415 2.499-12.995 13.923-22.813 27.647-22.813.605 0 1.215.027 1.81.064-4.82-3.868-10.948-6.188-17.611-6.188-13.724 0-25.148 9.818-27.647 22.813-.376 1.953-1.697 3.563-3.493 4.416-8.05 3.82-13.346 12.496-12.081 22.251 1.236 9.53 8.904 17.181 18.436 18.402 1.221.156 2.436.205 3.615.163-3.33-3.272-5.624-7.617-6.25-12.442z" fill="#fbe88c"/></g><path d="m71.427 154.076 4.987 25.914 28.77 299.95c1.193 12.467 10.538 22.354 22.456 24.592v-16.542h277.661c1.051-2.511 1.751-5.211 2.022-8.049l28.77-299.95 5.3-19.854z" fill="#ea9a98"/><g><path d="m111.556 154.734-40.129-.657 4.987 25.914 28.77 299.95c1.36 14.21 13.31 25.07 27.59 25.07h33l7.051-11.572 45.768-1.264 6.672 12.836h61.98l7.458-5.924h45.847l6.185 5.924h33c14.28 0 26.23-10.86 27.59-25.07l1.294-13.491h-231.093c-14.28 0-26.23-10.86-27.59-25.07l-19.656-204.924c-1.875-19.552 13.497-36.469 33.138-36.469h270.757l1.918-19.997 5.3-19.854z" fill="#e5827f"/><g id="XMLID_208_"><path d="m292.952 154.076.782 25.914-6.49 325.02h59.49l18.97-325.02 6.778-27.483z" fill="#fcf1de"/></g><g><path d="m293.061 157.707.673 22.283-.399 19.997h71.202l1.167-19.997 5.182-21.009z" fill="#f6e2c4"/></g><path d="m446.866 179.987h-381.223c-6.384 0-11.56-5.176-11.56-11.56v-16.581c0-6.384 5.176-11.56 11.56-11.56h381.223c6.384 0 11.56 5.176 11.56 11.56v16.581c0 6.384-5.176 11.56-11.56 11.56z" fill="#fcf6ed"/><g><path d="m223.869 95.842c-1.096-1.659-1.392-3.721-.703-5.586 4.588-12.412-.103-26.726-11.846-33.83-11.742-7.104-26.599-4.617-35.464 5.207-1.332 1.476-3.296 2.17-5.274 1.97-8.865-.899-17.888 3.783-21.855 12.784-3.876 8.794-1.275 19.309 6.248 25.288 6.802 5.406 15.522 5.98 22.585 2.648 1.467-.692 3.19-.557 4.577.283l.024.015.024.015c1.388.839 2.307 2.303 2.375 3.923.326 7.803 4.881 15.261 12.827 18.777 8.788 3.889 19.309 1.313 25.3-6.201 6.133-7.693 6.093-17.858 1.182-25.293z" fill="#fcf0b6"/></g><g><path d="m162.732 81.191c3.967-9.001 12.99-13.683 21.855-12.784 1.978.201 3.942-.493 5.274-1.97 5.832-6.463 14.286-9.74 22.712-9.21-.406-.275-.828-.546-1.252-.803-11.742-7.104-26.599-4.617-35.464 5.207-1.332 1.476-3.296 2.17-5.274 1.97-8.865-.899-17.888 3.783-21.855 12.784-3.876 8.794-1.275 19.309 6.248 25.288 4.18 3.322 9.092 4.819 13.891 4.707-7.426-5.995-9.989-16.445-6.135-25.189z" fill="#fbe88c"/></g></g><g><path d="m222.315 123.825c-1.511-1.292-2.366-3.192-2.218-5.175.982-13.196-7.48-25.658-20.727-29.244-13.247-3.585-26.84 2.907-32.647 14.798-.873 1.787-2.568 2.996-4.525 3.35-8.769 1.584-16.147 8.575-17.475 18.322-1.297 9.522 4.107 18.91 12.988 22.58 8.03 3.318 16.57 1.462 22.438-3.692 1.218-1.07 2.912-1.416 4.477-.992l.027.007.027.007c1.566.423 2.854 1.576 3.366 3.115 2.468 7.41 8.906 13.319 17.513 14.505 9.52 1.311 18.921-4.071 22.603-12.947 3.772-9.085.926-18.844-5.847-24.634z" fill="#fcf1de"/><g><path d="m159.027 133.947c1.327-9.746 8.706-16.738 17.475-18.322 1.957-.353 3.653-1.563 4.525-3.349 5.618-11.502 18.541-17.957 31.37-15.12-3.432-3.605-7.87-6.353-13.027-7.749-13.247-3.585-26.84 2.907-32.647 14.798-.873 1.787-2.568 2.996-4.525 3.349-8.769 1.584-16.147 8.575-17.475 18.322-1.297 9.522 4.107 18.91 12.988 22.58 1.887.78 3.802 1.263 5.704 1.496-3.466-4.442-5.179-10.195-4.388-16.005z" fill="#f6e2c4"/></g><path d="m289.478 99.677c-1.811-.859-3.142-2.483-3.52-4.452-2.519-13.102-14.032-23.001-27.864-23.001s-25.345 9.899-27.864 23.001c-.379 1.969-1.71 3.592-3.52 4.452-8.113 3.851-13.451 12.599-12.176 22.435 1.246 9.609 8.974 17.323 18.58 18.554 8.686 1.114 16.504-2.942 20.856-9.504.904-1.362 2.46-2.146 4.095-2.145h.028.028c1.634-.001 3.191.783 4.095 2.145 4.352 6.561 12.171 10.617 20.857 9.504 9.606-1.232 17.335-8.946 18.58-18.554 1.276-9.836-4.061-18.584-12.175-22.435z" fill="#fcf0b6"/><g><path d="m228.819 126.248c-1.275-9.835 4.062-18.583 12.176-22.435 1.811-.859 3.142-2.483 3.52-4.452 2.519-13.102 14.032-23.001 27.864-23.001.16 0 .331.008.491.011-4.301-2.628-9.366-4.148-14.776-4.148-13.832 0-25.345 9.899-27.864 23.001-.379 1.969-1.71 3.593-3.52 4.452-8.113 3.851-13.451 12.599-12.176 22.435 1.246 9.609 8.974 17.323 18.58 18.554 1.476.189 2.924.218 4.338.122-4.623-3.408-7.864-8.61-8.633-14.539z" fill="#fbe88c"/></g><path d="m352.725 107.144c-1.964-.311-3.685-1.483-4.596-3.251-6.063-11.762-19.792-17.96-32.959-14.089s-21.358 16.512-20.091 29.684c.19 1.979-.623 3.897-2.106 5.221-6.646 5.935-9.28 15.753-5.315 24.755 3.874 8.794 13.388 13.972 22.878 12.456 8.58-1.371 14.888-7.418 17.196-14.88.479-1.549 1.742-2.73 3.298-3.187l.027-.008.027-.008c1.556-.458 3.257-.148 4.498.895 5.978 5.026 14.556 6.697 22.513 3.207 8.8-3.86 13.999-13.363 12.498-22.855-1.539-9.715-9.067-16.546-17.868-17.94z" fill="#fcf1de"/><g><path d="m306.189 151.555c-3.965-9.002-1.331-18.82 5.315-24.755 1.483-1.325 2.296-3.242 2.106-5.221-1.267-13.172 6.924-25.814 20.091-29.684.552-.162 1.105-.3 1.659-.428-6.071-2.937-13.209-3.716-20.19-1.664-13.167 3.871-21.358 16.512-20.091 29.684.19 1.979-.623 3.897-2.106 5.221-6.646 5.935-9.28 15.753-5.315 24.755 3.874 8.794 13.388 13.972 22.878 12.456 1.329-.212 2.595-.549 3.808-.973-3.516-2.212-6.411-5.43-8.155-9.391z" fill="#f6e2c4"/></g><path d="m218.774 179.99-1.076-25.914-70.894 1.235v24.679l18.97 325.02h59.49z" fill="#fcf1de"/><g fill="#f6e2c4"><path d="m146.804 155.311v24.679l1.382 23.675c4.551-2.347 9.724-3.678 15.233-3.678h55.755l-.399-19.997-.977-23.516z"/><path d="m177.526 466.449c-5.184 0-10.057-1.437-14.232-3.94l2.481 42.501 7.051-11.572 45.768-1.264 6.672 12.836-.77-38.561z"/></g><path d="m446.866 179.987h-381.223c-6.384 0-11.56-5.176-11.56-11.56v-16.581c0-6.384 5.176-11.56 11.56-11.56h381.223c6.384 0 11.56 5.176 11.56 11.56v16.581c0 6.384-5.176 11.56-11.56 11.56z" fill="#fcf6ed"/><path d="m106.897 162.111c-12.053 0-21.824-9.771-21.824-21.824h-19.43c-6.384 0-11.56 5.176-11.56 11.56v16.581c0 6.384 5.176 11.56 11.56 11.56h381.223c6.384 0 11.56-5.176 11.56-11.56v-6.316h-351.529z" fill="#fcf1de"/></g><g><path d="m163.294 462.509 2.481 42.501h59.49l-.77-38.561h-46.968c-5.185 0-10.059-1.437-14.233-3.94z" fill="#f6e2c4"/></g><g><path d="m348.985 466.449h-60.971l-.77 38.561h59.49z" fill="#f6e2c4"/></g></g><path d="m449.807 133.038c1.763-3.138 2.961-6.638 3.445-10.37 1.602-12.349-4.728-24.226-15.787-29.74-1.65-7.752-5.78-14.48-11.454-19.42-.457-7.513-3.839-14.653-9.5-19.761 1.026-16.72-9.831-32.004-26.046-36.511-16.218-4.51-33.403 2.985-41.151 17.837-4.94.96-9.446 3.198-13.165 6.352-2.74-5.612-7.248-10.327-13.044-13.22-3.489-16.386-18.042-28.205-34.872-28.205s-31.383 11.818-34.872 28.204c-.281.14-.546.302-.821.45-.492-.594-.975-1.143-1.47-1.664-11.607-12.188-30.201-14.575-44.473-5.802-11.619-4.204-24.585-.598-32.424 9.079-1.484 1.833-2.714 3.859-3.693 6.005-1.386-.502-2.814-.914-4.286-1.2-7.748-14.853-24.936-22.342-41.15-17.836-16.216 4.507-27.073 19.791-26.046 36.511-5.661 5.107-9.042 12.248-9.5 19.761-5.674 4.94-9.804 11.667-11.454 19.42-11.059 5.515-17.389 17.391-15.787 29.74.472 3.635 1.625 7.048 3.313 10.123-10.475.041-18.985 8.572-18.985 19.056v16.581c0 10.51 8.55 19.06 19.06 19.06h3.956l19.734 205.75c.372 3.879 3.637 6.784 7.457 6.784.239 0 .481-.011.725-.035 4.123-.396 7.145-4.059 6.75-8.182l-19.599-204.318h55.057l3.106 53.199c.233 3.986 3.538 7.063 7.48 7.063.147 0 .295-.004.444-.013 4.135-.241 7.292-3.79 7.05-7.924l-3.055-52.325h56.667l6.198 310.021h-44.767l-13.178-225.734c-.242-4.135-3.795-7.3-7.924-7.05-4.135.241-7.292 3.789-7.05 7.924l13.127 224.86h-25.048c-10.474 0-19.125-7.862-20.125-18.287l-5.333-55.6c-.396-4.123-4.057-7.152-8.182-6.75-4.124.396-7.146 4.059-6.75 8.182l5.333 55.6c1.742 18.16 16.813 31.855 35.057 31.855h246.959c18.244 0 33.315-13.695 35.057-31.855l18.562-193.522c.396-4.123-2.626-7.786-6.75-8.182-4.119-.403-7.787 2.626-8.182 6.75l-18.562 193.522c-1 10.426-9.652 18.288-20.125 18.288h-25.048l18.097-310.021h55.057l-6.363 66.349c-.396 4.123 2.626 7.786 6.75 8.182.243.023.485.035.725.035 3.819 0 7.085-2.905 7.457-6.785l6.501-67.78h3.956c10.51 0 19.06-8.55 19.06-19.06v-16.581c0-9.508-7.004-17.389-16.119-18.81zm-267.919-65.351c6.24-7.649 17.087-9.797 25.791-5.108 8.705 4.689 12.878 14.929 9.922 24.347-.703 2.239-.771 4.609-.287 6.879-3.078-3.11-6.705-5.668-10.77-7.476-15.377-6.839-33.478-1.956-43.324 11.598-.467.021-.926.073-1.388.116-.079-.054-.165-.103-.243-.158-5.024-3.599-7.07-10.399-4.865-16.17 2.187-5.721 7.735-9.355 13.798-9.047 4.386.224 8.639-1.638 11.366-4.981zm75.866 12.036c9.888 0 18.418 7.036 20.282 16.729.815 4.236 3.672 7.89 7.642 9.775h.001c5.488 2.604 8.646 8.435 7.858 14.51-.794 6.126-5.821 11.142-11.952 11.928-5.358.684-10.526-1.665-13.491-6.133-2.277-3.433-6.13-5.48-10.356-5.48h-.015c-4.178 0-8.032 2.048-10.309 5.48-2.965 4.47-8.136 6.821-13.492 6.133-6.131-.785-11.157-5.801-11.952-11.928-.788-6.075 2.37-11.906 7.859-14.51 3.97-1.885 6.827-5.539 7.642-9.775 1.865-9.693 10.395-16.729 20.283-16.729zm75.866-12.036c2.727 3.344 6.978 5.204 11.364 4.98 6.071-.309 11.613 3.326 13.8 9.047 2.206 5.77.16 12.57-4.863 16.168-.078.056-.164.105-.244.159-.462-.042-.921-.095-1.389-.116-9.846-13.553-27.947-18.44-43.324-11.598-4.058 1.805-7.689 4.347-10.764 7.449.478-2.262.407-4.622-.293-6.852-2.956-9.419 1.217-19.659 9.922-24.348 8.706-4.686 19.552-2.54 25.791 5.111zm-181.75 65.1c-1.449-3.063-1.758-6.556-.786-9.82 1.749-5.871 7.004-9.916 13.078-10.065 4.395-.108 8.49-2.286 10.956-5.825 5.642-8.1 16.295-11.061 25.331-7.043 3.579 1.592 6.593 4.172 8.746 7.406-1.999 4.675-2.789 9.905-2.098 15.226.471 3.635 1.62 7.048 3.309 10.12h-58.536zm154.444-25.347c2.154-3.235 5.167-5.814 8.746-7.406 9.036-4.016 19.688-1.056 25.33 7.043 2.466 3.54 6.562 5.717 10.957 5.825 6.072.149 11.328 4.194 13.077 10.064.973 3.264.663 6.757-.786 9.82h-58.539c1.69-3.073 2.842-6.484 3.314-10.12.69-5.321-.099-10.551-2.099-15.226zm124.204-1.212c5.489 2.604 8.647 8.436 7.86 14.51-.795 6.126-5.821 11.142-11.952 11.928-5.353.682-10.526-1.664-13.492-6.135-2.278-3.431-6.131-5.479-10.355-5.479h-.015c-4.179 0-8.032 2.048-10.31 5.48-2.355 3.55-6.102 5.76-10.226 6.176-.021.027-.045.052-.066.079h-2.607c.979-4.623.827-9.467-.554-14.103-1.163-3.904-3.092-7.406-5.578-10.384h.003c-.228-.273-.453-.548-.691-.812.673-.482 1.387-.905 2.135-1.26 3.97-1.884 6.827-5.538 7.643-9.775 1.864-9.694 10.394-16.729 20.282-16.729s18.418 7.036 20.282 16.729c.814 4.236 3.671 7.89 7.641 9.775zm-78.071-56.481c4.33-.752 8.061-3.508 9.98-7.371 4.393-8.841 14.497-13.334 24.021-10.688 9.527 2.647 15.861 11.71 15.062 21.549-.35 4.301 1.425 8.587 4.746 11.465.089.077.164.166.251.245-1.289-.142-2.593-.223-3.914-.223-11.699 0-22.294 5.714-28.84 14.698-.267-1.028-.572-2.052-.958-3.063-4.446-11.631-15.622-19.087-28.003-18.695-.524-.617-1.071-1.206-1.629-1.78 2.086-3.191 5.425-5.467 9.284-6.137zm-92.139-8.243c3.971-1.885 6.828-5.539 7.642-9.775 1.865-9.693 10.395-16.729 20.283-16.729s18.418 7.036 20.282 16.729c.814 4.237 3.672 7.891 7.644 9.775 1.929.915 3.558 2.215 4.835 3.775-6.832-.651-13.89.651-20.278 4.092-9.9 5.333-16.399 14.831-18.222 25.343-6.468-6.226-15.241-9.992-24.74-9.992-.162 0-.323.008-.485.011-2.617-2.23-4.384-5.359-4.82-8.719-.788-6.074 2.371-11.906 7.859-14.51zm-58.553-6.113c4.104 1.577 8.72 1.127 12.35-1.206 8.307-5.335 19.284-4.01 26.103 3.15.14.147.282.302.425.466.025.054.05.108.076.162.216.449.483.854.772 1.238-3.293 5.483-4.776 12.039-3.907 18.743.503 3.874 1.783 7.538 3.715 10.821-3.032 1.583-5.82 3.588-8.275 5.951-1.821-10.512-8.32-20.01-18.221-25.343-9.493-5.115-20.462-5.507-29.972-1.775-.52-.788-1.069-1.555-1.661-2.286.46-2.061 1.365-3.993 2.67-5.604 3.855-4.761 10.256-6.497 15.925-4.317zm-92.505 29.311c3.322-2.879 5.097-7.165 4.748-11.465-.799-9.839 5.535-18.902 15.062-21.549 9.525-2.647 19.629 1.847 24.021 10.688 1.919 3.863 5.651 6.619 9.981 7.372 3.858.67 7.197 2.946 9.283 6.136-.558.574-1.105 1.162-1.629 1.78-12.351-.39-23.557 7.063-28.003 18.695-.387 1.011-.69 2.036-.957 3.065-6.547-8.985-17.141-14.7-28.84-14.7-1.324 0-2.631.081-3.922.224.087-.081.166-.168.256-.246zm-24.26 41.526c3.971-1.885 6.828-5.539 7.643-9.775 1.864-9.694 10.395-16.729 20.282-16.729 9.888 0 18.417 7.036 20.282 16.731.815 4.236 3.672 7.889 7.643 9.773.747.354 1.461.777 2.134 1.26-.055.062-.106.127-.161.189.005 0 .01.001.015.001-2.748 3.108-4.874 6.826-6.12 11.007-1.375 4.617-1.531 9.439-.565 14.045-5.142.44-10.034-1.897-12.888-6.197-2.277-3.433-6.13-5.48-10.356-5.48h-.015c-4.178 0-8.032 2.048-10.309 5.48-2.966 4.47-8.136 6.817-13.492 6.134-6.13-.786-11.157-5.802-11.952-11.928-.788-6.076 2.37-11.907 7.859-14.511zm141.431 81.259h59.666l-6.198 310.021h-47.27zm113.239 310.021h-44.768l6.198-310.021h56.667zm111.266-329.081c0 2.239-1.821 4.06-4.06 4.06h-381.223c-2.239 0-4.06-1.821-4.06-4.06v-16.581c0-2.238 1.821-4.06 4.06-4.06h381.223c2.239 0 4.06 1.821 4.06 4.06z"/></g></svg>