<svg id="Capa_1" enable-background="new 0 0 511.725 511.725" height="512" viewBox="0 0 511.725 511.725" width="512" xmlns="http://www.w3.org/2000/svg"><g><g><g><g><path d="m489.716 33.843c.59 8.69-2.73 16.6-8.38 22.16-2.43 2.39-2.34 6.28.08 8.68 5.17 5.13 8.37 12.24 8.37 20.09 0 7.86-3.2 14.96-8.36 20.09-2.46 2.44-2.46 6.34 0 8.77 5.16 5.13 8.36 12.24 8.36 20.09s-3.2 14.96-8.36 20.09c-2.46 2.44-2.46 6.33 0 8.77 5.16 5.13 8.36 12.23 8.36 20.09 0 7.85-3.2 14.96-8.36 20.09-2.46 2.43-2.46 6.33 0 8.77 5.16 5.13 8.36 12.23 8.36 20.08 0 7.86-3.2 14.96-8.36 20.09-2.46 2.44-2.46 6.34 0 8.77 5.16 5.13 8.36 12.24 8.36 20.09 0 7.86-3.2 14.96-8.36 20.09-2.46 2.44-2.46 6.33 0 8.77 5.16 5.13 8.36 12.23 8.36 20.09 0 7.85-3.2 14.96-8.36 20.09-2.46 2.43-2.46 6.33 0 8.77 5.16 5.13 8.36 12.23 8.36 20.09 0 7.85-3.2 14.96-8.37 20.09-2.42 2.4-2.51 6.28-.08 8.68 5.65 5.56 8.97 13.47 8.38 22.16-.93 13.72-11.89 24.96-25.58 26.22-9.32.85-17.8-2.81-23.53-9.04-2.36-2.57-6.47-2.63-8.82-.06-5.18 5.67-12.63 9.22-20.91 9.22-8.27 0-15.72-3.55-20.89-9.21-2.34-2.56-6.45-2.56-8.78 0-5.18 5.66-12.62 9.21-20.9 9.21s-15.72-3.55-20.9-9.21c-2.34-2.56-6.44-2.56-8.78 0-5.18 5.66-12.62 9.21-20.9 9.21s-15.72-3.55-20.9-9.21c-2.33-2.56-6.44-2.56-8.78 0-5.17 5.66-12.62 9.21-20.9 9.21-8.27 0-15.72-3.55-20.89-9.21-2.34-2.56-6.45-2.56-8.78 0-5.18 5.66-12.63 9.21-20.9 9.21-8.28 0-15.73-3.55-20.9-9.22-2.36-2.57-6.47-2.51-8.83.06-5.73 6.23-14.21 9.89-23.52 9.04-13.7-1.26-24.65-12.5-25.59-26.22-.59-8.69 2.74-16.6 8.39-22.16 2.43-2.4 2.33-6.28-.09-8.68-5.17-5.13-8.37-12.24-8.37-20.09 0-7.86 3.2-14.96 8.37-20.09 2.45-2.44 2.45-6.34 0-8.77-5.17-5.13-8.37-12.24-8.37-20.09 0-7.86 3.2-14.96 8.37-20.09 2.45-2.44 2.45-6.33 0-8.77-5.17-5.13-8.37-12.23-8.37-20.09 0-7.85 3.2-14.96 8.37-20.09 2.45-2.43 2.45-6.33 0-8.77-5.17-5.13-8.37-12.23-8.37-20.09 0-7.85 3.2-14.95 8.37-20.08 2.45-2.44 2.45-6.34 0-8.77-5.17-5.13-8.37-12.24-8.37-20.09 0-7.86 3.2-14.96 8.37-20.09 2.45-2.44 2.45-6.33 0-8.77-5.17-5.13-8.37-12.24-8.37-20.09s3.2-14.96 8.37-20.09c2.45-2.43 2.45-6.33 0-8.77-5.17-5.13-8.37-12.23-8.37-20.09 0-7.85 3.2-14.96 8.37-20.09 2.42-2.4 2.52-6.29.09-8.68-5.65-5.56-8.98-13.47-8.39-22.16.94-13.72 11.89-24.96 25.59-26.22 9.31-.85 17.79 2.81 23.52 9.04 2.36 2.57 6.47 2.63 8.83.06 5.17-5.67 12.62-9.22 20.9-9.22 8.27 0 15.72 3.55 20.9 9.21 2.33 2.56 6.44 2.56 8.78 0 5.17-5.66 12.62-9.21 20.89-9.21 8.28 0 15.73 3.55 20.9 9.21 2.34 2.56 6.45 2.56 8.78 0 5.18-5.66 12.62-9.21 20.9-9.21s15.72 3.55 20.9 9.21c2.34 2.56 6.44 2.56 8.78 0 5.18-5.66 12.62-9.21 20.9-9.21s15.72 3.55 20.9 9.21c2.33 2.56 6.44 2.56 8.78 0 5.17-5.66 12.62-9.21 20.89-9.21 8.28 0 15.73 3.55 20.91 9.22 2.35 2.57 6.46 2.51 8.82-.06 5.73-6.23 14.21-9.89 23.52-9.04 13.7 1.26 24.66 12.5 25.59 26.22z" fill="#fcf0b6"/></g><path d="m395.421 157.744c4.329-7.341 6.637-15.731 6.637-24.48 0-8.754-2.311-17.147-6.646-24.49 4.872-8.302 7.198-17.963 6.53-27.792-1.585-23.385-20.377-42.639-43.726-44.785-1.487-.136-2.995-.205-4.481-.205-8.985 0-17.742 2.53-25.291 7.162-7.544-4.629-16.301-7.16-25.296-7.16-8.991 0-17.746 2.529-25.284 7.156-7.543-4.626-16.298-7.156-25.286-7.156s-17.742 2.529-25.289 7.159c-2.106-1.292-4.306-2.419-6.58-3.373-8.829-3.704-14.657-12.419-14.083-21.976.005-.077.009-.153.015-.23.244-3.567 1.17-6.963 2.64-10.063-8.561-.208-16.288 3.381-21.604 9.211-2.36 2.57-6.47 2.51-8.83-.06-5.73-6.23-14.21-9.89-23.52-9.04-13.7 1.26-24.65 12.5-25.59 26.22-.589 8.677 2.73 16.577 8.365 22.136 2.436 2.403 2.37 6.289-.06 8.699-5.173 5.13-8.375 12.243-8.375 20.095 0 7.86 3.2 14.96 8.37 20.09 2.45 2.44 2.45 6.34 0 8.77-5.17 5.13-8.37 12.24-8.37 20.09s3.2 14.96 8.37 20.09c2.45 2.44 2.45 6.33 0 8.77-5.17 5.13-8.37 12.23-8.37 20.09 0 7.85 3.2 14.96 8.37 20.09 2.45 2.43 2.45 6.33 0 8.77-5.17 5.13-8.37 12.23-8.37 20.08 0 7.86 3.2 14.96 8.37 20.09 2.45 2.44 2.45 6.34 0 8.77-5.17 5.13-8.37 12.24-8.37 20.09 0 7.86 3.2 14.96 8.37 20.09 2.45 2.44 2.45 6.33 0 8.77-5.17 5.13-8.37 12.23-8.37 20.09 0 7.85 3.2 14.96 8.37 20.09 2.45 2.43 2.45 6.33 0 8.77-5.17 5.13-8.37 12.23-8.37 20.09 0 7.85 3.2 14.96 8.37 20.09 2.42 2.4 2.52 6.28.09 8.68-5.65 5.56-8.98 13.47-8.39 22.16.94 13.72 11.89 24.96 25.59 26.22 6.355.58 12.321-.943 17.292-3.949.556-.336 1.098-.693 1.629-1.065.084-.059.164-.121.247-.181.418-.301.828-.612 1.229-.934.138-.111.274-.223.409-.337.352-.294.696-.597 1.033-.907.129-.119.26-.235.386-.355.444-.425.879-.859 1.295-1.312 2.36-2.57 6.47-2.63 8.83-.06 5.17 5.67 12.62 9.22 20.9 9.22.671 0 1.333-.032 1.992-.078.168-.012.335-.026.502-.04.598-.052 1.191-.12 1.778-.209.058-.009.117-.014.175-.023.659-.104 1.309-.236 1.953-.384.112-.026.222-.054.333-.082.602-.147 1.196-.311 1.782-.495.041-.013.082-.024.122-.037.658-.211 1.305-.446 1.941-.702.024-.01.048-.021.073-.031.633-.257 1.253-.537 1.862-.837.009-.004.018-.009.027-.013 3.165-1.567 6-3.7 8.359-6.279 2.33-2.56 6.44-2.56 8.78 0 5.17 5.66 12.62 9.21 20.89 9.21 8.28 0 15.73-3.55 20.9-9.21 2.34-2.56 6.45-2.56 8.78 0 5.18 5.66 12.62 9.21 20.9 9.21s15.72-3.55 20.9-9.21c2.34-2.56 6.44-2.56 8.78 0 5.18 5.66 12.62 9.21 20.9 9.21s15.72-3.55 20.9-9.21c2.33-2.56 6.44-2.56 8.78 0 1.637 1.792 3.503 3.37 5.55 4.693 4.249-7.288 6.521-15.597 6.521-24.263 0-8.743-2.306-17.128-6.635-24.473 4.327-7.34 6.635-15.729 6.635-24.477 0-8.744-2.305-17.128-6.635-24.473 4.327-7.341 6.635-15.729 6.635-24.478 0-8.739-2.303-17.12-6.637-24.47 4.328-7.341 6.637-15.731 6.637-24.48 0-8.739-2.306-17.121-6.635-24.464 4.327-7.34 6.635-15.729 6.635-24.477 0-8.743-2.306-17.129-6.635-24.473 4.327-7.34 6.635-15.729 6.635-24.477.001-8.734-2.302-17.116-6.636-24.466z" fill="#fbe88c"/><path d="m381.988 82.334c.59 8.69-2.73 16.6-8.38 22.16-2.43 2.39-2.34 6.28.08 8.68 5.17 5.13 8.37 12.24 8.37 20.09 0 7.86-3.2 14.96-8.36 20.09-2.46 2.44-2.46 6.34 0 8.77 5.16 5.13 8.36 12.24 8.36 20.09s-3.2 14.96-8.36 20.09c-2.46 2.44-2.46 6.33 0 8.77 5.16 5.13 8.36 12.23 8.36 20.09 0 7.85-3.2 14.96-8.36 20.09-2.46 2.43-2.46 6.33 0 8.77 5.16 5.13 8.36 12.23 8.36 20.08 0 7.86-3.2 14.96-8.36 20.09-2.46 2.44-2.46 6.34 0 8.77 5.16 5.13 8.36 12.24 8.36 20.09 0 7.86-3.2 14.96-8.36 20.09-2.46 2.44-2.46 6.33 0 8.77 5.16 5.13 8.36 12.23 8.36 20.09 0 7.85-3.2 14.96-8.36 20.09-2.46 2.43-2.46 6.33 0 8.77 5.16 5.13 8.36 12.23 8.36 20.09 0 7.85-3.2 14.96-8.37 20.09-2.42 2.4-2.51 6.28-.08 8.68 5.65 5.56 8.97 13.47 8.38 22.16-.93 13.72-11.89 24.96-25.58 26.22-9.32.85-17.8-2.81-23.53-9.04-2.36-2.57-6.47-2.63-8.82-.06-5.18 5.67-12.63 9.22-20.91 9.22-8.27 0-15.72-3.55-20.89-9.21-2.34-2.56-6.45-2.56-8.78 0-5.18 5.66-12.62 9.21-20.9 9.21s-15.72-3.55-20.9-9.21c-2.34-2.56-6.44-2.56-8.78 0-5.18 5.66-12.62 9.21-20.9 9.21s-15.72-3.55-20.9-9.21c-2.33-2.56-6.44-2.56-8.78 0-5.17 5.66-12.62 9.21-20.9 9.21-8.27 0-15.72-3.55-20.89-9.21-2.34-2.56-6.45-2.56-8.78 0-5.18 5.66-12.63 9.21-20.9 9.21-8.28 0-15.73-3.55-20.9-9.22-2.36-2.57-6.47-2.51-8.83.06-5.73 6.23-14.21 9.89-23.52 9.04-13.7-1.26-24.65-12.5-25.59-26.22-.59-8.69 2.74-16.6 8.39-22.16 2.43-2.4 2.33-6.28-.09-8.68-5.17-5.13-8.37-12.24-8.37-20.09 0-7.86 3.2-14.96 8.37-20.09 2.45-2.44 2.45-6.34 0-8.77-5.17-5.13-8.37-12.24-8.37-20.09 0-7.86 3.2-14.96 8.37-20.09 2.45-2.44 2.45-6.33 0-8.77-5.17-5.13-8.37-12.23-8.37-20.09 0-7.85 3.2-14.96 8.37-20.09 2.45-2.43 2.45-6.33 0-8.77-5.17-5.13-8.37-12.23-8.37-20.09 0-7.85 3.2-14.95 8.37-20.08 2.45-2.44 2.45-6.34 0-8.77-5.17-5.13-8.37-12.24-8.37-20.09 0-7.86 3.2-14.96 8.37-20.09 2.45-2.44 2.45-6.33 0-8.77-5.17-5.13-8.37-12.24-8.37-20.09s3.2-14.96 8.37-20.09c2.45-2.43 2.45-6.33 0-8.77-5.17-5.13-8.37-12.23-8.37-20.09 0-7.85 3.2-14.96 8.37-20.09 2.42-2.4 2.52-6.29.09-8.68-5.65-5.56-8.98-13.47-8.39-22.16.94-13.72 11.89-24.96 25.59-26.22 9.31-.85 17.79 2.81 23.52 9.04 2.36 2.57 6.47 2.63 8.83.06 5.17-5.67 12.62-9.22 20.9-9.22 8.27 0 15.72 3.55 20.9 9.21 2.33 2.56 6.44 2.56 8.78 0 5.17-5.66 12.62-9.21 20.89-9.21 8.28 0 15.73 3.55 20.9 9.21 2.34 2.56 6.45 2.56 8.78 0 5.18-5.66 12.62-9.21 20.9-9.21s15.72 3.55 20.9 9.21c2.34 2.56 6.44 2.56 8.78 0 5.18-5.66 12.62-9.21 20.9-9.21s15.72 3.55 20.9 9.21c2.33 2.56 6.44 2.56 8.78 0 5.17-5.66 12.62-9.21 20.89-9.21 8.28 0 15.73 3.55 20.91 9.22 2.35 2.57 6.46 2.51 8.82-.06 5.73-6.23 14.21-9.89 23.52-9.04 13.7 1.26 24.66 12.5 25.59 26.22z" fill="#fcf0b6"/><path d="m140.446 459.247c-32.672 0-59.158-26.486-59.158-59.158l.002-336.25c-.46.441-.912.904-1.341 1.375-2.36 2.57-6.47 2.51-8.83-.06-5.73-6.23-14.21-9.89-23.52-9.04-13.7 1.26-24.65 12.5-25.59 26.22-.59 8.69 2.74 16.6 8.39 22.16 2.43 2.39 2.33 6.28-.09 8.68-5.17 5.13-8.37 12.24-8.37 20.09 0 7.86 3.2 14.96 8.37 20.09 2.45 2.44 2.45 6.34 0 8.77-5.17 5.13-8.37 12.24-8.37 20.09s3.2 14.96 8.37 20.09c2.45 2.44 2.45 6.33 0 8.77-5.17 5.13-8.37 12.23-8.37 20.09 0 7.85 3.2 14.96 8.37 20.09 2.45 2.43 2.45 6.33 0 8.77-5.17 5.13-8.37 12.23-8.37 20.08 0 7.86 3.2 14.96 8.37 20.09 2.45 2.44 2.45 6.34 0 8.77-5.17 5.13-8.37 12.24-8.37 20.09 0 7.86 3.2 14.96 8.37 20.09 2.45 2.44 2.45 6.33 0 8.77-5.17 5.13-8.37 12.23-8.37 20.09 0 7.85 3.2 14.96 8.37 20.09 2.45 2.43 2.45 6.33 0 8.77-5.17 5.13-8.37 12.23-8.37 20.09 0 7.85 3.2 14.96 8.37 20.09 2.42 2.4 2.52 6.28.09 8.68-5.65 5.56-8.98 13.47-8.39 22.16.94 13.72 11.89 24.96 25.59 26.22 9.31.85 17.79-2.81 23.52-9.04 2.36-2.57 6.47-2.63 8.83-.06 5.17 5.67 12.62 9.22 20.9 9.22 8.27 0 15.72-3.55 20.9-9.21 2.33-2.56 6.44-2.56 8.78 0 5.17 5.66 12.62 9.21 20.89 9.21 8.28 0 15.73-3.55 20.9-9.21 2.34-2.56 6.45-2.56 8.78 0 5.18 5.66 12.62 9.21 20.9 9.21s15.72-3.55 20.9-9.21c2.34-2.56 6.44-2.56 8.78 0 5.18 5.66 12.62 9.21 20.9 9.21s15.72-3.55 20.9-9.21c2.33-2.56 6.44-2.56 8.78 0 5.17 5.66 12.62 9.21 20.89 9.21 8.28 0 15.73-3.55 20.91-9.22 2.35-2.57 6.46-2.51 8.82.06 5.73 6.23 14.21 9.89 23.53 9.04 13.69-1.26 24.65-12.5 25.58-26.22.475-6.99-1.589-13.487-5.352-18.651z" fill="#fbe88c"/></g></g><g><path d="m246.787 281.496c0-4.142-3.358-7.5-7.5-7.5s-7.5 3.358-7.5 7.5v4.866c0 4.142 3.358 7.5 7.5 7.5s7.5-3.358 7.5-7.5z"/><path d="m239.287 427.135c-4.142 0-7.5 3.358-7.5 7.5v4.866c0 4.142 3.358 7.5 7.5 7.5s7.5-3.358 7.5-7.5v-4.866c0-4.142-3.358-7.5-7.5-7.5z"/><path d="m246.787 358.066c0-4.142-3.358-7.5-7.5-7.5s-7.5 3.358-7.5 7.5v4.866c0 4.142 3.358 7.5 7.5 7.5s7.5-3.358 7.5-7.5z"/><path d="m246.787 128.357c0-4.142-3.358-7.5-7.5-7.5s-7.5 3.358-7.5 7.5v4.866c0 4.142 3.358 7.5 7.5 7.5s7.5-3.358 7.5-7.5z"/><path d="m246.787 204.926c0-4.142-3.358-7.5-7.5-7.5s-7.5 3.358-7.5 7.5v4.866c0 4.142 3.358 7.5 7.5 7.5s7.5-3.358 7.5-7.5z"/><path d="m323.917 358.066c0-4.142-3.357-7.5-7.5-7.5s-7.5 3.358-7.5 7.5v4.866c0 4.142 3.357 7.5 7.5 7.5s7.5-3.358 7.5-7.5z"/><path d="m24.11 157.741c-.828.884-1.614 1.813-2.348 2.775-2.512 3.293-1.879 8 1.414 10.512 1.358 1.036 2.958 1.538 4.544 1.538 2.259 0 4.492-1.017 5.968-2.951.583-.764 1.222-1.492 1.901-2.167 2.615-2.598 4.056-6.045 4.056-9.708 0-3.662-1.441-7.109-4.056-9.706-3.965-3.938-6.148-9.182-6.148-14.767 0-5.586 2.185-10.831 6.151-14.769 2.638-2.619 4.086-6.093 4.078-9.784-.008-3.625-1.434-7.021-4.014-9.562-4.334-4.266-6.581-10.21-6.165-16.307.686-10.062 8.764-18.343 18.789-19.262 6.576-.603 12.882 1.82 17.317 6.646 2.561 2.786 6.201 4.383 9.992 4.383h.018c3.756-.005 7.354-1.588 9.873-4.342 3.938-4.307 9.538-6.777 15.366-6.777 5.827 0 11.427 2.47 15.364 6.775 2.531 2.768 6.148 4.356 9.924 4.356s7.394-1.588 9.924-4.356c3.938-4.306 9.537-6.775 15.364-6.775s11.427 2.469 15.364 6.775c2.531 2.768 6.148 4.356 9.924 4.356s7.394-1.588 9.924-4.356c3.938-4.306 9.538-6.775 15.364-6.775s11.426 2.469 15.364 6.775c2.531 2.768 6.148 4.356 9.924 4.356s7.394-1.588 9.924-4.355c3.938-4.306 9.538-6.775 15.364-6.775 5.827 0 11.427 2.47 15.364 6.775 2.531 2.768 6.148 4.356 9.924 4.356s7.394-1.588 9.925-4.356c1.611-1.762 3.491-3.223 5.588-4.341 3.654-1.95 5.036-6.493 3.087-10.147s-6.492-5.037-10.147-3.087c-3.118 1.663-5.955 3.764-8.453 6.258-6.69-6.666-15.813-10.457-25.288-10.457-9.474 0-18.598 3.792-25.289 10.458-6.689-6.666-15.814-10.458-25.288-10.458-9.475 0-18.599 3.792-25.289 10.458-6.69-6.666-15.814-10.458-25.289-10.458-3.057 0-6.077.4-8.991 1.159-3.704-4.169-5.596-9.666-5.212-15.297.686-10.063 8.764-18.343 18.789-19.262 6.576-.602 12.883 1.82 17.317 6.646 2.561 2.786 6.201 4.383 9.992 4.383h.018c3.756-.005 7.354-1.588 9.872-4.342 3.938-4.307 9.539-6.777 15.367-6.777 5.827 0 11.427 2.47 15.364 6.775 2.531 2.768 6.148 4.356 9.924 4.356s7.394-1.588 9.924-4.356c3.938-4.306 9.537-6.775 15.364-6.775s11.427 2.469 15.364 6.776c2.532 2.768 6.148 4.354 9.925 4.354h.003c3.775-.001 7.392-1.589 9.92-4.355 3.938-4.306 9.538-6.775 15.365-6.775 5.826 0 11.426 2.47 15.363 6.775 2.531 2.768 6.148 4.356 9.925 4.356s7.394-1.588 9.924-4.355c3.938-4.306 9.538-6.775 15.364-6.775 5.827 0 11.427 2.47 15.364 6.775 2.531 2.768 6.148 4.356 9.925 4.356s7.394-1.588 9.925-4.356c3.937-4.306 9.536-6.775 15.363-6.775s11.428 2.47 15.366 6.777c2.518 2.754 6.115 4.337 9.87 4.342h.02c3.79 0 7.431-1.597 9.993-4.383 4.435-4.826 10.754-7.248 17.315-6.646 10.025.918 18.104 9.2 18.79 19.261.415 6.098-1.832 12.042-6.165 16.307-2.58 2.541-4.006 5.936-4.014 9.562-.009 3.69 1.439 7.165 4.077 9.785 3.967 3.938 6.151 9.183 6.151 14.769 0 5.584-2.184 10.828-6.148 14.766-2.615 2.598-4.056 6.045-4.056 9.708 0 3.662 1.44 7.109 4.054 9.704.805.8 1.563 1.694 2.256 2.659 1.465 2.042 3.765 3.129 6.1 3.129 1.514 0 3.042-.457 4.365-1.406 3.366-2.415 4.138-7.1 1.723-10.466-.916-1.277-1.909-2.49-2.963-3.62 6.246-6.659 9.67-15.3 9.67-24.475 0-9.176-3.424-17.816-9.669-24.474 6.783-7.246 10.264-16.992 9.584-26.969-1.183-17.331-15.105-31.595-32.386-33.178-10.758-.985-21.097 2.759-28.646 10.303-6.69-6.665-15.814-10.457-25.288-10.457-9.475 0-18.599 3.792-25.288 10.458-6.69-6.665-15.814-10.458-25.289-10.458-9.474 0-18.598 3.792-25.288 10.458-6.69-6.665-15.814-10.458-25.288-10.458s-18.598 3.792-25.289 10.458c-6.689-6.666-15.813-10.458-25.288-10.458-9.474 0-18.598 3.792-25.288 10.458-6.69-6.665-15.814-10.458-25.289-10.458s-18.597 3.792-25.288 10.457c-7.551-7.544-17.904-11.287-28.646-10.303-17.281 1.583-31.204 15.848-32.385 33.179-.57 8.348 1.778 16.532 6.532 23.227-.92.749-1.806 1.546-2.652 2.389-6.69-6.665-15.814-10.458-25.289-10.458s-18.598 3.792-25.288 10.457c-7.551-7.544-17.903-11.286-28.646-10.303-17.276 1.581-31.199 15.845-32.38 33.175-.681 9.977 2.8 19.722 9.583 26.968-6.246 6.659-9.669 15.299-9.669 24.474s3.423 17.815 9.669 24.475z"/><path d="m316.417 427.135c-4.143 0-7.5 3.358-7.5 7.5v4.866c0 4.142 3.357 7.5 7.5 7.5s7.5-3.358 7.5-7.5v-4.866c0-4.142-3.357-7.5-7.5-7.5z"/><path d="m323.917 204.926c0-4.142-3.357-7.5-7.5-7.5s-7.5 3.358-7.5 7.5v4.866c0 4.142 3.357 7.5 7.5 7.5s7.5-3.358 7.5-7.5z"/><path d="m323.917 281.496c0-4.142-3.357-7.5-7.5-7.5s-7.5 3.358-7.5 7.5v4.866c0 4.142 3.357 7.5 7.5 7.5s7.5-3.358 7.5-7.5z"/><path d="m323.917 128.357c0-4.142-3.357-7.5-7.5-7.5s-7.5 3.358-7.5 7.5v4.866c0 4.142 3.357 7.5 7.5 7.5s7.5-3.358 7.5-7.5z"/><path d="m162.157 427.135c-4.142 0-7.5 3.358-7.5 7.5v4.866c0 4.142 3.358 7.5 7.5 7.5s7.5-3.358 7.5-7.5v-4.866c0-4.142-3.358-7.5-7.5-7.5z"/><path d="m92.527 128.357c0-4.142-3.358-7.5-7.5-7.5s-7.5 3.358-7.5 7.5v4.866c0 4.142 3.358 7.5 7.5 7.5s7.5-3.358 7.5-7.5z"/><path d="m92.527 204.926c0-4.142-3.358-7.5-7.5-7.5s-7.5 3.358-7.5 7.5v4.866c0 4.142 3.358 7.5 7.5 7.5s7.5-3.358 7.5-7.5z"/><path d="m169.657 358.066c0-4.142-3.358-7.5-7.5-7.5s-7.5 3.358-7.5 7.5v4.866c0 4.142 3.358 7.5 7.5 7.5s7.5-3.358 7.5-7.5z"/><path d="m92.527 281.496c0-4.142-3.358-7.5-7.5-7.5s-7.5 3.358-7.5 7.5v4.866c0 4.142 3.358 7.5 7.5 7.5s7.5-3.358 7.5-7.5z"/><path d="m85.027 427.135c-4.142 0-7.5 3.358-7.5 7.5v4.866c0 4.142 3.358 7.5 7.5 7.5s7.5-3.358 7.5-7.5v-4.866c0-4.142-3.357-7.5-7.5-7.5z"/><path d="m169.657 281.496c0-4.142-3.358-7.5-7.5-7.5s-7.5 3.358-7.5 7.5v4.866c0 4.142 3.358 7.5 7.5 7.5s7.5-3.358 7.5-7.5z"/><path d="m169.657 204.926c0-4.142-3.358-7.5-7.5-7.5s-7.5 3.358-7.5 7.5v4.866c0 4.142 3.358 7.5 7.5 7.5s7.5-3.358 7.5-7.5z"/><path d="m169.657 128.357c0-4.142-3.358-7.5-7.5-7.5s-7.5 3.358-7.5 7.5v4.866c0 4.142 3.358 7.5 7.5 7.5s7.5-3.358 7.5-7.5z"/><path d="m92.527 358.066c0-4.142-3.358-7.5-7.5-7.5s-7.5 3.358-7.5 7.5v4.866c0 4.142 3.358 7.5 7.5 7.5s7.5-3.358 7.5-7.5z"/><path d="m487.614 158.196c1.402-1.5 2.687-3.137 3.83-4.882 2.27-3.465 1.3-8.114-2.165-10.384-3.465-2.268-8.114-1.301-10.384 2.166-.813 1.242-1.741 2.383-2.76 3.394-2.615 2.598-4.056 6.045-4.056 9.708 0 3.662 1.44 7.109 4.056 9.706 3.965 3.939 6.148 9.184 6.148 14.767 0 5.584-2.184 10.829-6.148 14.767-2.615 2.598-4.056 6.045-4.056 9.707s1.44 7.109 4.056 9.707c3.965 3.939 6.148 9.184 6.148 14.767 0 5.584-2.184 10.829-6.148 14.767-2.615 2.597-4.056 6.045-4.056 9.707s1.44 7.109 4.056 9.707c3.965 3.938 6.148 9.183 6.148 14.767s-2.184 10.828-6.148 14.767c-2.615 2.598-4.056 6.045-4.056 9.707s1.44 7.109 4.056 9.707c3.965 3.938 6.148 9.183 6.148 14.767s-2.184 10.828-6.148 14.767c-2.615 2.598-4.056 6.045-4.056 9.707s1.44 7.11 4.056 9.707c3.965 3.938 6.148 9.183 6.148 14.767 0 5.586-2.185 10.831-6.151 14.769-2.638 2.619-4.086 6.094-4.078 9.784.009 3.626 1.435 7.021 4.015 9.561 4.333 4.266 6.58 10.21 6.165 16.308-.686 10.062-8.763 18.343-18.789 19.262-6.575.601-12.883-1.82-17.317-6.645-2.562-2.786-6.202-4.383-9.992-4.383h-.018c-3.756.005-7.354 1.587-9.872 4.342-3.938 4.308-9.539 6.778-15.366 6.778s-11.427-2.469-15.363-6.775c-1.979-2.164-4.625-3.594-7.489-4.12 1.003-3.326 1.529-6.816 1.529-10.389 0-9.174-3.424-17.814-9.669-24.474 6.245-6.659 9.669-15.298 9.669-24.474s-3.424-17.815-9.669-24.474c6.246-6.659 9.669-15.298 9.669-24.474 0-9.175-3.424-17.815-9.669-24.474 6.245-6.658 9.669-15.298 9.669-24.473 0-9.176-3.424-17.816-9.669-24.474 6.246-6.659 9.669-15.298 9.669-24.474s-3.424-17.816-9.669-24.474c6.246-6.659 9.669-15.298 9.669-24.474s-3.424-17.815-9.669-24.474c6.246-6.659 9.669-15.298 9.669-24.474 0-9.174-3.423-17.813-9.669-24.474 6.783-7.246 10.264-16.992 9.584-26.968-1.182-17.331-15.104-31.594-32.386-33.179-10.747-.987-21.095 2.759-28.646 10.303-.842-.839-1.726-1.638-2.642-2.387-3.208-2.622-7.933-2.146-10.554 1.062-2.621 3.207-2.146 7.932 1.062 10.553.784.64 1.527 1.344 2.212 2.092 2.518 2.754 6.116 4.337 9.872 4.342h.018c3.791 0 7.433-1.597 9.993-4.383 4.435-4.826 10.758-7.246 17.315-6.646 10.026.919 18.104 9.2 18.79 19.261.415 6.098-1.832 12.042-6.164 16.307-2.582 2.541-4.008 5.937-4.015 9.563-.008 3.691 1.44 7.166 4.078 9.782 3.966 3.939 6.15 9.184 6.15 14.77 0 5.585-2.184 10.829-6.148 14.766-2.615 2.597-4.056 6.044-4.056 9.707s1.44 7.11 4.056 9.708c3.965 3.937 6.148 9.181 6.148 14.766s-2.184 10.829-6.148 14.766c-2.615 2.597-4.056 6.044-4.056 9.707s1.44 7.11 4.057 9.708c3.964 3.937 6.147 9.181 6.147 14.766s-2.184 10.829-6.148 14.766c-2.615 2.597-4.056 6.044-4.056 9.707s1.44 7.11 4.057 9.709c3.964 3.937 6.147 9.181 6.147 14.766s-2.184 10.829-6.148 14.766c-2.615 2.598-4.056 6.045-4.056 9.708 0 3.662 1.44 7.109 4.056 9.707 3.965 3.937 6.148 9.181 6.148 14.766s-2.184 10.829-6.148 14.767c-2.615 2.598-4.056 6.045-4.056 9.707s1.44 7.109 4.056 9.708c3.965 3.937 6.148 9.181 6.148 14.766s-2.184 10.829-6.148 14.767c-2.615 2.598-4.056 6.045-4.056 9.707s1.44 7.11 4.056 9.707c3.965 3.938 6.148 9.183 6.148 14.767 0 5.586-2.185 10.831-6.15 14.769-2.638 2.619-4.086 6.094-4.078 9.785.008 3.625 1.434 7.021 4.014 9.561 4.333 4.266 6.58 10.209 6.165 16.307-.686 10.062-8.763 18.343-18.789 19.262-6.577.604-12.883-1.819-17.316-6.644-2.561-2.787-6.202-4.384-9.993-4.384-.005 0-.011 0-.017 0-3.756.005-7.354 1.587-9.873 4.342-3.938 4.308-9.539 6.778-15.366 6.778s-11.427-2.469-15.363-6.775c-2.531-2.768-6.148-4.355-9.925-4.355s-7.394 1.587-9.924 4.355c-3.938 4.306-9.538 6.775-15.364 6.775-5.827 0-11.427-2.47-15.364-6.775-2.531-2.768-6.148-4.355-9.924-4.355s-7.394 1.587-9.924 4.355c-3.938 4.306-9.537 6.775-15.364 6.775s-11.427-2.469-15.364-6.775c-2.531-2.768-6.148-4.355-9.924-4.355s-7.394 1.587-9.924 4.355c-3.938 4.306-9.538 6.775-15.364 6.775s-11.426-2.469-15.364-6.775c-2.531-2.768-6.148-4.355-9.924-4.355s-7.394 1.587-9.924 4.355c-3.938 4.306-9.538 6.775-15.364 6.775-5.828 0-11.428-2.47-15.366-6.777-2.518-2.754-6.117-4.337-9.873-4.342-.006 0-.012 0-.018 0-3.791 0-7.432 1.597-9.992 4.383-4.436 4.826-10.749 7.249-17.318 6.645-10.025-.919-18.103-9.2-18.789-19.262-.415-6.098 1.832-12.041 6.166-16.307 2.581-2.541 4.006-5.937 4.014-9.562.008-3.69-1.44-7.165-4.078-9.784-3.966-3.938-6.151-9.183-6.151-14.769 0-5.584 2.184-10.829 6.148-14.767 2.615-2.597 4.056-6.045 4.056-9.707s-1.44-7.109-4.056-9.707c-3.965-3.938-6.148-9.182-6.148-14.767s2.184-10.829 6.148-14.767c2.615-2.598 4.056-6.045 4.056-9.707s-1.44-7.109-4.056-9.707c-3.965-3.938-6.148-9.182-6.148-14.767s2.184-10.829 6.148-14.766c2.615-2.597 4.056-6.044 4.056-9.707s-1.44-7.11-4.056-9.708c-3.964-3.937-6.148-9.181-6.148-14.766s2.184-10.829 6.148-14.767c2.615-2.598 4.056-6.045 4.056-9.708 0-3.662-1.441-7.109-4.056-9.706-3.965-3.938-6.148-9.182-6.148-14.767s2.184-10.829 6.148-14.767c2.615-2.598 4.056-6.045 4.056-9.708 0-3.662-1.441-7.109-4.055-9.706-1.185-1.176-2.226-2.491-3.095-3.909-2.166-3.53-6.784-4.637-10.314-2.471-3.531 2.166-4.638 6.784-2.472 10.315 1.266 2.063 2.743 4 4.402 5.771-6.246 6.659-9.669 15.299-9.669 24.474s3.423 17.814 9.669 24.474c-6.246 6.659-9.669 15.298-9.669 24.474 0 9.175 3.424 17.815 9.669 24.473-6.246 6.659-9.669 15.299-9.669 24.474s3.424 17.814 9.669 24.474c-6.246 6.659-9.669 15.299-9.669 24.474s3.424 17.814 9.669 24.474c-6.246 6.659-9.669 15.299-9.669 24.474s3.424 17.815 9.669 24.474c-6.783 7.245-10.264 16.989-9.584 26.966 1.181 17.332 15.103 31.596 32.384 33.18 1.131.104 2.258.155 3.378.155 9.516 0 18.514-3.707 25.27-10.457 6.69 6.665 15.813 10.457 25.288 10.457s18.598-3.792 25.289-10.458c6.689 6.665 15.814 10.458 25.288 10.458 9.475 0 18.599-3.792 25.289-10.458 6.69 6.666 15.814 10.458 25.289 10.458 9.474 0 18.598-3.792 25.288-10.458 6.69 6.665 15.814 10.458 25.289 10.458 9.474 0 18.598-3.792 25.289-10.458 6.689 6.666 15.813 10.458 25.288 10.458 9.474 0 18.597-3.792 25.287-10.457 7.553 7.545 17.898 11.287 28.647 10.302 17.282-1.584 31.205-15.849 32.385-33.18.569-8.347-1.784-16.525-6.538-23.22.922-.751 1.811-1.546 2.659-2.393 6.688 6.665 15.812 10.457 25.287 10.457 9.474 0 18.598-3.792 25.287-10.457 6.757 6.75 15.755 10.458 25.271 10.457 1.118 0 2.246-.051 3.377-.155 17.282-1.584 31.205-15.849 32.385-33.181.679-9.977-2.802-19.721-9.584-26.966 6.245-6.659 9.669-15.298 9.669-24.474 0-9.174-3.424-17.814-9.669-24.474 6.245-6.66 9.669-15.3 9.669-24.474s-3.424-17.814-9.669-24.474c6.245-6.66 9.669-15.3 9.669-24.474s-3.424-17.814-9.669-24.474c6.245-6.659 9.669-15.299 9.669-24.474 0-9.173-3.424-17.813-9.669-24.474 6.245-6.659 9.669-15.299 9.669-24.474-.006-9.17-3.429-17.81-9.676-24.471z"/><path d="m431.645 79.866c0-4.142-3.357-7.5-7.5-7.5s-7.5 3.358-7.5 7.5v4.866c0 4.142 3.357 7.5 7.5 7.5s7.5-3.358 7.5-7.5z"/><path d="m431.645 156.436c0-4.142-3.357-7.5-7.5-7.5s-7.5 3.358-7.5 7.5v4.866c0 4.142 3.357 7.5 7.5 7.5s7.5-3.358 7.5-7.5z"/><path d="m431.645 233.006c0-4.142-3.357-7.5-7.5-7.5s-7.5 3.358-7.5 7.5v4.866c0 4.142 3.357 7.5 7.5 7.5s7.5-3.358 7.5-7.5z"/><path d="m431.645 309.575c0-4.142-3.357-7.5-7.5-7.5s-7.5 3.358-7.5 7.5v4.866c0 4.142 3.357 7.5 7.5 7.5s7.5-3.358 7.5-7.5z"/><path d="m424.145 378.644c-4.143 0-7.5 3.358-7.5 7.5v4.866c0 4.142 3.357 7.5 7.5 7.5s7.5-3.358 7.5-7.5v-4.866c0-4.142-3.358-7.5-7.5-7.5z"/></g></g></svg>