<svg id="Capa_1" enable-background="new 0 0 518.028 518.028" height="512" viewBox="0 0 518.028 518.028" width="512" xmlns="http://www.w3.org/2000/svg"><g><g><g><path d="m356.561 174.894c-2.88-4.13-6.07-8.08-9.57-11.79l-43.6-46.25.62-86.23h-224.87v86.23l-13.048 13.841 22.672 14.75-43.102 56.611-3.774 124.724 9.009 179.725h278.934c18.36 0 33.24-14.88 33.24-33.24v-277.55c-.001-7.441-2.261-14.711-6.511-20.821z" fill="#f7d8a4"/></g><path d="m363.071 195.714c0-7.44-2.26-14.71-6.51-20.82-2.249-3.225-4.693-6.335-7.319-9.312h-131.987c-25.4 0-45.991 20.591-45.991 45.991v188.422c-11.933 15.23-17.603 33.683-16.454 52.358.803 13.057-9.379 24.154-22.46 24.154h-39.113c-17.82 0-32.264-12.473-32.264-27.861v-199.41c0-21.879 9.677-42.925 27.054-58.838l27.541-25.229c9.255-8.478 14.525-20.452 14.525-33.004v-9.138c0-16.055 13.015-29.07 29.07-29.07h144.393l.1-13.938.355-49.397h-191.985-32.885v86.23l-43.6 46.25c-18.01 19.1-28.04 44.36-28.04 70.62v22.67l17.989 12.17v121.938l-17.989 25.524v57.04c0 18.469 14.972 33.44 33.44 33.44h288.89c17.265 0 31.45-13.159 33.08-29.996h-45.279c17.461-27.379 38.222-59.81 45.439-70.591z" fill="#f5cd8b"/><g><path d="m313.445 73.958h-244.361c-6.874 0-12.446-5.572-12.446-12.446v-37.546c0-6.874 5.572-12.446 12.446-12.446h244.361c6.874 0 12.446 5.572 12.446 12.446v37.546c-.001 6.874-5.573 12.446-12.446 12.446z" fill="#cfeffc"/><path d="m112.722 59.292c-12.105 0-21.917-9.813-21.917-21.917v-18.604c0-2.542.438-4.981 1.234-7.251h-22.955c-6.874 0-12.446 5.572-12.446 12.446v37.546c0 6.874 5.572 12.446 12.446 12.446h244.361c6.874 0 12.446-5.572 12.446-12.446v-2.22z" fill="#a9e4f9"/><g><path d="m7.501 256.394h334.33v159.63h-334.33z" fill="#cfeffc"/></g><g><path d="m7.501 256.394h53.472v159.63h-53.472z" fill="#a9e4f9"/></g><circle cx="191.264" cy="335.677" fill="#fcf6ed" r="119.684"/><path d="m310.948 335.677c0-66.1-53.584-119.684-119.684-119.684-6.816 0-13.495.578-20 1.673v182.33c-11.36 14.499-17.03 31.919-16.558 49.67 11.525 3.693 23.807 5.695 36.558 5.695 66.1 0 119.684-53.584 119.684-119.684z" fill="#fcf1de"/><path d="m191.264 211.573v195.873c-35.851 37.097-9.562 99.061 42.028 99.061h218.635c51.59 0 77.878-61.964 42.028-99.061v-195.873c0-14.354-11.637-25.991-25.991-25.991h-250.709c-14.354 0-25.991 11.637-25.991 25.991z" fill="#f8deb6"/><path d="m302.611 477.832c-33.018 0-59.784-26.767-59.784-59.785v-232.465h-25.572c-14.354 0-25.991 11.636-25.991 25.991v195.873c-35.851 37.097-9.562 99.061 42.028 99.061h218.635c22.736 0 40.563-12.044 50.318-28.681z" fill="#f7d8a4"/><path d="m233.292 476.508c-17.474 0-24.461-13.269-26.187-17.336-1.725-4.067-6.411-18.312 5.732-30.877l8.427-8.721v-196.595c0-4.085 3.312-7.397 7.397-7.397h227.896c4.085 0 7.397 3.312 7.397 7.397v196.595l8.428 8.72c12.143 12.565 7.457 26.811 5.731 30.877-1.725 4.067-8.713 17.336-26.187 17.336h-218.634z" fill="#fcf6ed"/><path d="m290.086 476.508c-27.003-5.758-47.259-29.739-47.259-58.46v-202.466h-14.166c-4.085 0-7.397 3.312-7.397 7.397v196.594l-8.427 8.721c-12.143 12.565-7.457 26.811-5.732 30.877 1.726 4.067 8.713 17.336 26.187 17.336h56.794z" fill="#fcf1de"/><path d="m256.071 278.621v.556c0 12.019 9.654 21.672 21.562 21.672h22.593c11.271 0 20.407 9.137 20.407 20.407 0 11.271-9.137 20.407-20.407 20.407h-2.329c-23.177 0-41.966 18.789-41.966 41.966 0 23.177 18.789 41.966 41.966 41.966h110.814c10.507 0 19.024-8.517 19.024-19.024 0-10.507-8.517-19.024-19.024-19.024h-28.212c-11.461 0-20.751-9.291-20.751-20.751 0-11.461 9.291-20.751 20.751-20.751h2.409c24.757 0 44.826-20.069 44.826-44.826 0-24.757-20.065-44.826-44.821-44.826-33.634 0-78.251-.001-104.618-.002-12.278-.002-22.224 9.952-22.224 22.23z" fill="#f7d8a4"/></g></g><g><path d="m501.454 404.514v-192.94c0-18.467-15.024-33.491-33.491-33.491h-21.58c-4.142 0-7.5 3.358-7.5 7.5s3.358 7.5 7.5 7.5h21.58c10.196 0 18.491 8.295 18.491 18.491v195.874c0 1.945.755 3.813 2.107 5.212 14.457 14.959 18.39 36.149 10.265 55.301-8.125 19.151-26.096 31.048-46.9 31.048h-218.634c-20.804 0-38.775-11.897-46.9-31.048s-4.191-40.341 10.265-55.301c1.352-1.398 2.107-3.267 2.107-5.212v-195.875c0-10.196 8.295-18.491 18.491-18.491h197.166c4.142 0 7.5-3.358 7.5-7.5s-3.358-7.5-7.5-7.5h-46.951c-4.233-7.26-9.266-14.017-15.021-20.123l-41.557-44.086v-32.415h2.553c10.998 0 19.946-8.948 19.946-19.946v-37.546c0-10.998-8.948-19.946-19.946-19.946h-244.361c-10.998 0-19.946 8.948-19.946 19.946v37.546c0 10.998 8.948 19.946 19.946 19.946h2.553v32.416l-30.169 32.004c-2.841 3.014-2.701 7.761.313 10.602 1.449 1.366 3.298 2.042 5.143 2.042 1.994 0 3.983-.791 5.459-2.355l32.211-34.171c1.312-1.392 2.042-3.232 2.042-5.145v-35.393h209.255v35.393c0 1.913.73 3.753 2.042 5.145l43.6 46.253c2.911 3.088 5.588 6.385 8.06 9.833h-132.338c-17.503 0-31.903 13.498-33.361 30.629-33.734 1.929-63.999 17.009-85.743 40.181h-83.151v-15.17c0-19.526 5.885-38.333 17.018-54.389 2.36-3.404 1.515-8.077-1.889-10.437-3.406-2.362-8.078-1.514-10.437 1.889-12.883 18.578-19.692 40.341-19.692 62.937v239.344c0 22.575 18.367 40.942 40.942 40.942h192.35 218.635c26.929 0 50.191-15.4 60.708-40.19 10.111-23.833 5.795-50.105-11.181-69.304zm-371.022-385.494h19.166v47.438h-19.166zm-15 47.438h-19.167v-47.438h19.167zm49.166-47.438h19.167v47.438h-19.167zm34.166 0h19.167v47.438h-19.167zm34.167 0h19.167v47.438h-19.167zm34.166 0h19.166v47.438h-19.166zm51.294 4.946v37.546c0 2.727-2.219 4.946-4.946 4.946h-12.182v-47.438h12.182c2.727 0 4.946 2.219 4.946 4.946zm-254.253 37.547v-37.547c0-2.727 2.219-4.946 4.946-4.946h12.181v47.438h-12.181c-2.727 0-4.946-2.218-4.946-4.945zm119.626 162.24v180.76c-10.576 11.962-16.236 26.67-16.557 41.823-51.138-11.126-88.659-56.938-88.659-110.126 0-59.631 46.549-108.583 105.216-112.457zm-97.708 40.14c-14.187 20.575-22.508 45.491-22.508 72.317 0 26.627 8.304 51.621 22.569 72.318h-71.117v-144.635zm-45.114 235.115c-14.304 0-25.942-11.638-25.942-25.942v-49.538h83.203c18.345 19.581 42.816 33.467 70.568 38.403.89 4 2.153 7.976 3.812 11.887 4.279 10.086 10.669 18.617 18.556 25.19z"/><path d="m463.954 208.082h-242.69c-4.142 0-7.5 3.358-7.5 7.5v126.481c0 4.142 3.358 7.5 7.5 7.5s7.5-3.358 7.5-7.5v-118.981h227.69v196.492c0 1.945.755 3.813 2.107 5.212l8.428 8.72c8.697 9 5.849 18.898 4.22 22.737-1.628 3.838-6.766 12.765-19.282 12.765h-218.635c-12.515 0-17.654-8.927-19.283-12.765-1.628-3.838-4.476-13.738 4.221-22.737l8.427-8.721c1.352-1.398 2.107-3.267 2.107-5.212v-45.547c0-4.142-3.358-7.5-7.5-7.5s-7.5 3.358-7.5 7.5v42.516l-6.32 6.541c-15.344 15.876-9.423 33.879-7.243 39.019 2.181 5.139 11.011 21.906 33.091 21.906h218.635c22.083 0 30.911-16.768 33.091-21.906 2.18-5.139 8.102-23.141-7.243-39.019l-6.321-6.54v-200.96c0-4.143-3.358-7.501-7.5-7.501z"/><path d="m300.226 334.163h-2.329c-27.275 0-49.466 22.19-49.466 49.466s22.19 49.466 49.466 49.466h110.814c14.625 0 26.524-11.898 26.524-26.524s-11.898-26.524-26.524-26.524h-28.212c-7.307 0-13.251-5.944-13.251-13.251s5.944-13.251 13.251-13.251h2.41c28.853 0 52.326-23.474 52.326-52.327s-23.471-52.326-52.321-52.326l-104.618-.002c-.001 0-.001 0-.002 0-7.94 0-15.405 3.093-21.019 8.708-5.613 5.615-8.704 13.081-8.704 21.022v.556c0 16.086 13.037 29.172 29.062 29.172h22.593c7.117 0 12.907 5.79 12.907 12.907s-5.791 12.908-12.907 12.908zm0-40.814h-22.593c-7.754 0-14.062-6.358-14.062-14.172v-.556c0-3.936 1.532-7.636 4.312-10.417s6.477-4.313 10.41-4.313h.001l104.619.002c20.579 0 37.321 16.745 37.321 37.326 0 20.582-16.745 37.327-37.326 37.327h-2.41c-15.578 0-28.251 12.673-28.251 28.251s12.673 28.251 28.251 28.251h28.212c6.354 0 11.524 5.169 11.524 11.524s-5.169 11.524-11.524 11.524h-110.814c-19.004 0-34.466-15.461-34.466-34.466 0-19.004 15.461-34.466 34.466-34.466h2.329c15.388 0 27.907-12.519 27.907-27.907s-12.519-27.908-27.906-27.908z"/></g></g></svg>