<?xml version="1.0" encoding="UTF-8"?>
<svg xmlns="http://www.w3.org/2000/svg" id="Filled" viewBox="0 0 512 512" width="512" height="512"><path d="M416,352H96V336A128,128,0,0,1,224,208h64A128,128,0,0,1,416,336Z" style="fill:#95573a"/><path d="M400,304a24.006,24.006,0,0,0-24,24,24,24,0,0,0-48,0,24,24,0,0,0-48,0,24,24,0,0,0-48,0,24,24,0,0,0-48,0,24,24,0,0,0-48,0,24,24,0,0,0-48,0l32,160H392l32-160A24.006,24.006,0,0,0,400,304Z" style="fill:#f7cca9"/><path d="M280,328l-8,160H240l-8-160a24,24,0,0,1,48,0Z" style="fill:#e0b999"/><path d="M184,328l16,160H160L136,328a24,24,0,0,1,48,0Z" style="fill:#e0b999"/><circle cx="272" cy="80" r="40" style="fill:#eb423f"/><path d="M312,128a40,40,0,0,1-40,40v64H184c0,16.7-11.06,31.4-24,40H112c-12.94-8.6-24-23.3-24-40,0-25.99,22.21-47.16,48-47.97.87-2.65-.14-5.34,0-8.03,1.5-28.5,25-64,56-72s30.5-48,0-48c0,0,58.3-5.76,72,32.09.86-.06,7.13-.09,8-.09A40,40,0,0,1,312,128Z" style="fill:#fda2c6"/><path d="M376,328,352,488H312l16-160a24,24,0,0,1,48,0Z" style="fill:#e0b999"/><path d="M328,112a48,48,0,0,1,0,96v56H128c-13-20,9.5-37.5,24-40s65-32.5,88-72c19.59-33.64,56.5-40,88-40" style="fill:#fb82b1"/><path d="M424,216a56,56,0,0,1-56,56H120s-1-13.5,16-24,108.5-4.5,128-24c19.32-19.32,51.864-63.98,104-63.98C408.125,160.02,424,185.07,424,216Z" style="fill:#fda2c6"/><path d="M80,328a8.026,8.026,0,0,0,.155,1.569l32,160A8,8,0,0,0,120,496H392a8,8,0,0,0,7.845-6.431l32-160A8.026,8.026,0,0,0,432,328a31.948,31.948,0,0,0-12.027-24.974,134.65,134.65,0,0,0-14.339-35.306A63.943,63.943,0,0,0,432,216c0-34.549-17.805-57.075-48.4-62.625A56.072,56.072,0,0,0,328,104q-7.332,0-14.142.485c-.092-.164-.19-.323-.284-.486A47.963,47.963,0,0,0,299.63,40.786c1.749-4.216,4.223-7.953,7.642-9.486a8,8,0,1,0-6.544-14.6c-7.66,3.434-12.494,10.2-15.548,17.155a47.961,47.961,0,0,0-52.235,18.226c-20.153-6.01-40.258-4.188-41.731-4.042A8,8,0,0,0,192,64c12.2,0,14.516,7.855,14.944,11.232,1.344,10.584-7.506,18.586-16.943,21.022-35.06,9.047-60.358,48.321-61.99,79.326-.007.14-.011.28-.011.42v.8c-27.086,4.529-48,27.863-48,55.2,0,18.243,10.86,33.449,22.487,42.911A134.991,134.991,0,0,0,92.055,303,31.95,31.95,0,0,0,80,328Zm86.889,152L144.022,327.556A15.992,15.992,0,0,1,176,328c0,.269,15.16,152,15.16,152Zm40.351,0L192.013,327.738A15.995,15.995,0,0,1,224,328c0,.135,7.59,152,7.59,152Zm57.15,0H247.61l-7.605-152.1a16,16,0,0,1,31.99,0ZM256,296a31.933,31.933,0,0,0-24,10.856,31.957,31.957,0,0,0-48,0,31.957,31.957,0,0,0-48,0A31.933,31.933,0,0,0,112,296c-.394,0-.783.016-1.173.03A119.058,119.058,0,0,1,117.858,280H368a63.645,63.645,0,0,0,23.627-4.539,118.842,118.842,0,0,1,9.558,20.569c-.394-.014-.788-.03-1.185-.03a31.933,31.933,0,0,0-24,10.856,31.957,31.957,0,0,0-48,0,31.957,31.957,0,0,0-48,0A31.933,31.933,0,0,0,256,296Zm48.76,184H280.41S288,328.135,288,328a15.995,15.995,0,0,1,31.987-.262Zm16.08,0,15.116-151.164,0-.037v0h0c.026-.262.04-.527.04-.8a15.992,15.992,0,0,1,31.978-.444L345.111,480Zm95.144-152.713L385.441,480H361.289l22.622-150.813-.008,0A8.119,8.119,0,0,0,384,328a16,16,0,0,1,31.984-.713ZM416,216a48.054,48.054,0,0,1-48,48H130.527a28.746,28.746,0,0,1,9.677-9.193c5.429-3.354,27.865-5.044,45.894-6.4,34.459-2.6,70.091-5.28,83.559-18.748,2.883-2.884,6.034-6.293,9.37-9.9,19.041-20.6,47.818-51.735,88.973-51.735C407.673,168.02,416,194.112,416,216Zm-88-96a40.067,40.067,0,0,1,39.2,32.038c-47.7.379-79.108,34.335-99.925,56.858-3.226,3.49-6.273,6.786-8.934,9.447-9.272,9.272-46.364,12.067-73.447,14.107-19.711,1.485-34.168,2.692-43.842,5.15a30.779,30.779,0,0,1,12.305-5.716c16.768-2.891,69.5-34.548,93.554-75.858C261.226,131.447,286.992,120,328,120ZM272,48a31.876,31.876,0,0,1,8.755,1.228,63.323,63.323,0,0,0-.741,6.3,7.993,7.993,0,0,0,7.5,8.447c.166.01.33.015.493.015a8,8,0,0,0,7.6-5.566,31.9,31.9,0,0,1,6.555,32.221A47.936,47.936,0,0,0,272,80c-.028,0-1.247,0-2.768.013A50.5,50.5,0,0,0,248.3,58.5,31.869,31.869,0,0,1,272,48ZM96,232c0-20.983,18.433-39.289,40.251-39.974a8,8,0,0,0,7.749-8v-7.811c1.407-24.8,22.229-57.306,50-64.473,21.428-5.53,30.717-23.568,28.817-38.529a29.333,29.333,0,0,0-2.024-7.614c14.367,2.81,30.017,9.548,35.686,25.209a7.915,7.915,0,0,0,8.009,5.263c.836-.04,6.1-.075,7.513-.075a31.94,31.94,0,0,1,23.886,10.716c-29.2,5.437-49.88,19.074-62.8,41.259C210.945,186,162.1,214.14,150.641,216.116c-9.481,1.634-22.914,8.682-30,20.293a28.641,28.641,0,0,0-4.151,19.939,34.9,34.9,0,0,0-3.088,6.805C104.51,256.256,96,245.083,96,232Zm16,80a16.019,16.019,0,0,1,16,16,8.119,8.119,0,0,0,.1,1.185l-.008,0L150.711,480H126.559L96.016,327.287A16.02,16.02,0,0,1,112,312Z"/></svg>
