<svg id="Filled" height="512" viewBox="0 0 512 512" width="512" xmlns="http://www.w3.org/2000/svg"><path d="m424 392h-336l40-216c2.992-14.958 16.746-24 32-24h192c15.254 0 29.008 9.042 32 24z" fill="#e0b999"/><path d="m296 392h-80l8-240h64z" fill="#f7cca9"/><path d="m224 152h-48l-24 240h64z" fill="#f0c6a4"/><path d="m256 176c-7.342 0-14.219-8.877-16-16l-16-48a16 16 0 0 1 16-16h32a16 16 0 0 1 16 16l-16 48c-1.781 7.123-8.658 16-16 16z" fill="#eb423f"/><path d="m288 152h48l24 240h-64z" fill="#f0c6a4"/><path d="m24 384h464a0 0 0 0 1 0 0 48 48 0 0 1 -48 48h-368a48 48 0 0 1 -48-48 0 0 0 0 1 0 0z" fill="#dadcde"/><path d="m272 208a16 16 0 0 1 16-16 16 16 0 0 1 16 16v16a16 16 0 0 0 16 16 16 16 0 0 0 16-16c0-5.133 0-2.859 0-8a15.994 15.994 0 0 1 16-16 15.994 15.994 0 0 1 16 16 16 16 0 0 0 16 16 16 16 0 0 0 16-16l-9.369-40.789a32 32 0 0 0 -30.769-23.211h-207.724a32 32 0 0 0 -30.769 23.209l-9.369 40.791a16 16 0 0 0 16 16 16 16 0 0 0 16-16 16 16 0 0 1 16-16 16 16 0 0 1 16 16v8a16 16 0 0 0 16 16 16 16 0 0 0 16-16v-16-.036a15.927 15.927 0 0 1 15.934-15.964h.134a15.932 15.932 0 0 1 15.932 15.932v8.068a16 16 0 0 0 16 16 16 16 0 0 0 16-16z" fill="#ad6643"/><path d="m72 440h368a56.064 56.064 0 0 0 56-56 8 8 0 0 0 -8-8h-58.827l-26.779-144.606a23.894 23.894 0 0 0 5.606-15.394 8 8 0 0 0 -.2-1.791l-9.369-40.789c-.031-.136-.066-.272-.1-.407a40.172 40.172 0 0 0 -38.469-29.013h-74.1l9.823-29.47a8 8 0 0 0 .415-2.53 24.041 24.041 0 0 0 -15.763-22.543l4.2-2.8a8 8 0 0 0 -8.876-13.312l-11.561 7.707v-1.052a8 8 0 0 0 -16 0v1.052l-11.562-7.708a8 8 0 0 0 -8.876 13.312l4.2 2.8a24.041 24.041 0 0 0 -15.762 22.544 8 8 0 0 0 .411 2.53l9.823 29.47h-74.1a40.172 40.172 0 0 0 -38.462 29.011c-.038.135-.073.271-.1.407l-9.372 40.791a7.992 7.992 0 0 0 -.2 1.791 23.886 23.886 0 0 0 5.606 15.394l-26.779 144.606h-58.827a8 8 0 0 0 -8 8 56.064 56.064 0 0 0 56 56zm340.9-64h-46.46l-16.766-167.659a8.074 8.074 0 0 1 2.326-.341 7.994 7.994 0 0 1 8 8 24.012 24.012 0 0 0 27.668 23.716zm-62.541 0h-46.888l-4.693-140.81a23.971 23.971 0 0 0 38.088 5.865zm-110.359-272h32a8.012 8.012 0 0 1 7.927 6.92l-11.027 33.08h-25.8l-11.026-33.08a8.012 8.012 0 0 1 7.926-6.92zm-110.885 73.22a24.1 24.1 0 0 1 23.023-17.22h207.724a24.106 24.106 0 0 1 23.023 17.22l9.08 39.532a8 8 0 0 1 -15.965-.752 24 24 0 1 0 -48-.006v8a8 8 0 1 1 -16 0v-15.994a24 24 0 0 0 -48 0v8a8 8 0 0 1 -16 0v-8.068a23.959 23.959 0 0 0 -23.932-23.932h-.134a23.927 23.927 0 0 0 -23.934 24v16a8 8 0 0 1 -16 0v-8a24 24 0 0 0 -48 0 8 8 0 0 1 -15.965.753zm126.885 62.78a24.027 24.027 0 0 0 24-24v-8a7.946 7.946 0 0 1 1.7-4.911l5.762 172.911h-62.924l5.762-172.955a7.886 7.886 0 0 1 1.7 4.887v8.068a24.027 24.027 0 0 0 24 24zm-42.778-4.808-4.693 140.808h-46.889l13.5-134.945a23.971 23.971 0 0 0 38.087-5.863zm-88.886 4.528a24.008 24.008 0 0 0 27.664-23.72 8 8 0 0 1 10.325-7.653l-16.765 167.653h-46.46zm354.864 152.28a40.071 40.071 0 0 1 -39.2 32h-368a40.071 40.071 0 0 1 -39.2-32z"/></svg>