<svg id="Capa_1" enable-background="new 0 0 512.664 512.664" height="512" viewBox="0 0 512.664 512.664" width="512" xmlns="http://www.w3.org/2000/svg"><g><g><path d="m410.752 91.65-28.09-22.08-36.05-40h-166.08l-50.53 40-28.09 22.08c-10.23 8.04-16.2 20.34-16.2 33.35v30.4l44.286 71.724h255.046l41.909-71.724v-30.4c-.001-13.01-5.971-25.31-16.201-33.35z" fill="#fcf6ed"/><g id="XMLID_221_"><g><path d="m332.131 11.533v257.83h-50.53v-257.83c0-3.68 2.98-6.66 6.66-6.66h37.21c3.68 0 6.66 2.98 6.66 6.66z" fill="#dfae91"/></g></g><g id="XMLID_222_"><g><path d="m281.595 10.794v257.83h-50.53v-257.83c0-3.68 2.98-6.66 6.66-6.66h37.21c3.68 0 6.66 2.98 6.66 6.66z" fill="#e5bda7"/></g></g><g id="XMLID_223_"><g><path d="m231.055 11.271v257.83h-50.53v-257.83c0-3.68 2.98-6.66 6.66-6.66h37.21c3.68 0 6.66 2.98 6.66 6.66z" fill="#dfae91"/></g></g><g id="XMLID_224_"><g><path d="m180.529 12.247v257.83h-50.53v-257.83c0-3.68 2.98-6.66 6.66-6.66h37.21c3.68 0 6.66 2.98 6.66 6.66z" fill="#e5bda7"/></g></g><g><g id="XMLID_226_"><g><path d="m254.153 163.026v-158.892h-16.428c-3.678 0-6.66 2.982-6.66 6.66v257.83h11.544 38.986v-8.759-84.755h-15.358c-6.674 0-12.084-5.41-12.084-12.084z" fill="#dfae91"/><path d="m281.602 108.94v46.46l-46.24 39.83-4.3 3.69v-4.4-41.46z" fill="#dfae91"/><path d="m231.065 153.057v45.86l4.297-3.687 25.078-21.602c-3.746-2.052-6.286-6.03-6.286-10.602v-30.125z" fill="#d79c7a"/><path d="m281.595 18.348v46.489l-50.533 44.103v-46.46z" fill="#dfae91"/></g></g><g id="XMLID_218_"><g><path d="m382.662 11.16v257.83h-50.53v-257.83c0-3.68 2.98-6.66 6.66-6.66h37.21c3.68 0 6.66 2.98 6.66 6.66z" fill="#e5bda7"/></g></g><path d="m231.065 62.477v46.46l23.088-20.15v-46.474z" fill="#d79c7a"/><path d="m203.613 161.974v-157.363h-16.428c-3.678 0-6.66 2.982-6.66 6.66v257.83h17.659 32.871v-8.759-85.232h-14.306c-7.255 0-13.136-5.881-13.136-13.136z" fill="#d79c7a"/><g id="XMLID_220_"><g><path d="m376.322 135.4c-2.202 0-4.37.223-6.478.658-7.549 1.557-14.624-4.194-14.624-11.902v-119.656h-16.428c-3.678 0-6.66 2.982-6.66 6.66v155.255 102.575h50.53v-8.759-124.831z" fill="#dfae91"/><path d="m382.662 108.94v163.05h-50.53v-118.93z" fill="#dfae91"/><path d="m382.662 135.4h-6.34c-2.202 0-4.37.223-6.478.657-5.021 1.036-9.821-1.172-12.48-5.029l-25.232 22.031v13.355 102.576h50.53z" fill="#d79c7a"/><path d="m382.662 18.36v46.46l-50.53 44.12v-46.46z" fill="#dfae91"/><path d="m332.132 108.94 23.088-20.159v-46.46l-23.088 20.159z" fill="#d79c7a"/></g></g><g><g id="XMLID_227_"><g><path d="m231.062 108.94v46.46l-46.23 39.83-4.3 3.46v-7.17-38.46z" fill="#d79c7a"/><path d="m180.532 153.06v38.46 7.17l4.3-3.46 25.384-21.87c-3.942-2.267-6.603-6.511-6.603-11.385v-29.067z" fill="#d08a61"/><path d="m231.062 18.36v46.46l-50.53 44.12-.007-46.454z" fill="#d79c7a"/><path d="m203.613 88.787v-46.46l-23.088 20.159.007 46.454z" fill="#d08a61"/></g></g></g><g id="XMLID_228_"><g><path d="m158.831 144.714c-.799-.798-1.635-1.544-2.503-2.24-2.027-1.625-3.24-4.053-3.24-6.652v-130.235h-16.428c-3.678 0-6.66 2.982-6.66 6.66v257.83h50.53v-8.759-41.943-32.135-20.827z" fill="#dfae91"/><path d="m180.532 64.82v44.12l-50.53 44.12v-44.12z" fill="#dfae91"/><path d="m130.002 108.94v44.12l23.085-20.157v-44.12z" fill="#d79c7a"/><path d="m180.532 11.533v4.2l-50.53 44.12v-48.32c0-3.68 2.98-6.66 6.66-6.66h37.21c3.68 0 6.66 2.98 6.66 6.66z" fill="#dfae91"/></g></g><path d="m318.677 175.11h-.269c-7.577 0-13.72-6.142-13.72-13.72v-156.517h-16.428c-3.678 0-6.66 2.982-6.66 6.66v257.83h17.408 33.122v-8.759-94.188l-5.327 5.327c-2.155 2.156-5.078 3.367-8.126 3.367z" fill="#d79c7a"/><path d="m332.132 108.94v46.46l-46.24 39.83-4.29 3.66v-3.37-42.46z" fill="#d79c7a"/><path d="m281.602 153.06v45.83l4.29-3.66 25.568-22.024c-4.048-2.385-6.772-6.777-6.772-11.816v-28.488z" fill="#d08a61"/><g id="XMLID_215_"><g><path d="m426.952 155.4v323.78c0 14.35-11.63 25.98-25.99 25.98h-289.26c-14.36 0-25.99-11.63-25.99-25.98v-323.78h1 49.63c3.13 0 6.13 1.24 8.35 3.46l32.79 32.79c2.21 2.21 5.22 3.46 8.35 3.46h141c3.13 0 6.14-1.25 8.35-3.46l32.79-32.79c2.22-2.22 5.22-3.46 8.35-3.46z" fill="#cfeffc"/></g></g><g id="XMLID_225_"><g><path d="m332.132 18.36v46.46l-50.53 44.12v-46.46z" fill="#d79c7a"/></g></g><path d="m281.602 62.48v46.46l23.087-20.158v-46.46z" fill="#d08a61"/><path d="m171.204 232.309c2.482 2.21 5.863 3.46 9.378 3.46h158.36c3.515 0 6.896-1.25 9.378-3.46l36.827-32.79c2.493-2.22 5.863-3.46 9.378-3.46h32.426v-40.659h-50.63c-3.131 0-6.134 1.244-8.348 3.458l-32.794 32.794c-2.214 2.214-5.217 3.458-8.348 3.458h-140.996c-3.133 0-6.138-1.245-8.353-3.46l-32.792-32.792c-2.214-2.214-5.217-3.458-8.348-3.458h-49.63-1v323.78c0 14.35 11.63 25.98 25.99 25.98h289.26c13.045 0 23.836-9.599 25.702-22.115h-267.38c-14.354 0-25.99-11.636-25.99-25.99v-226.151c0-12.512 14.785-19.15 24.138-10.839 7.467 6.637 13.772 12.244 13.772 12.244z" fill="#a9e4f9"/><path d="m376.903 470.272h-243.143c-6.942 0-12.57-5.628-12.57-12.57v-202.265c0-6.942 5.628-12.57 12.57-12.57h243.143c6.942 0 12.57 5.628 12.57 12.57v202.265c0 6.942-5.627 12.57-12.57 12.57z" fill="#fcf6ed"/><path d="m133.76 470.272h3.147c-2.293-3.874-3.614-8.39-3.614-13.218v-214.164c-6.724.248-12.104 5.762-12.104 12.547v202.265c.001 6.942 5.629 12.57 12.571 12.57z" fill="#fcf1de"/></g><path d="m153.087 4.873h-16.425c-3.68 0-6.66 2.98-6.66 6.66v48.32l23.086-20.157v-34.109-.714z" fill="#d79c7a"/></g><g><path d="m426.952 275.625c-4.143 0-7.5 3.358-7.5 7.5v196.052c0 10.193-8.293 18.486-18.485 18.486h-289.27c-10.192 0-18.485-8.293-18.485-18.486v-62.243c0-4.142-3.357-7.5-7.5-7.5s-7.5 3.358-7.5 7.5v62.243c0 18.464 15.021 33.486 33.485 33.486h289.27c18.464 0 33.485-15.021 33.485-33.486v-196.052c0-4.142-3.358-7.5-7.5-7.5z"/><path d="m415.385 85.752-25.219-19.829v-51.761c0-7.809-6.353-14.162-14.161-14.162h-37.21c-2.408 0-4.675.608-6.662 1.672-1.988-1.064-4.255-1.672-6.663-1.672h-37.21c-2.407 0-4.674.607-6.662 1.672-1.986-1.065-4.253-1.672-6.661-1.672h-37.211c-2.407 0-4.674.607-6.661 1.672-1.987-1.065-4.254-1.672-6.662-1.672h-37.21c-2.408 0-4.675.608-6.662 1.672-1.987-1.064-4.255-1.672-6.662-1.672h-37.21c-7.809 0-14.161 6.353-14.161 14.162v51.762l-25.219 19.828c-12.117 9.528-19.067 23.833-19.067 39.249v259.971c0 4.142 3.357 7.5 7.5 7.5s7.5-3.358 7.5-7.5v-222.071h43.133c1.148 0 2.229.448 3.041 1.26l32.794 32.793c2.796 2.797 6.303 4.62 10.112 5.321.818.293 1.676.45 2.54.45.441 0 .882-.04 1.318-.117h47.948c.419.072.843.117 1.268.117.441 0 .882-.04 1.318-.117h47.948c.419.072.843.117 1.268.117.441 0 .882-.04 1.318-.117h39.619c5.156 0 10.004-2.008 13.648-5.653l32.793-32.793c.812-.812 1.894-1.26 3.042-1.26h43.133v88.262c0 4.142 3.357 7.5 7.5 7.5s7.5-3.358 7.5-7.5v-126.163c-.001-15.415-6.951-29.721-19.068-39.249zm-40.219-24.341-35.533 31.024v-26.548l35.533-31.024zm-187.135 4.476 35.534-31.024v26.548l-35.534 31.024zm50.534 46.461 35.533-31.024v24.209l-35.533 31.024zm50.533 0 35.534-31.024v24.209l-35.534 31.024zm35.535-50.937-35.534 31.024v-26.548l35.534-31.024zm-50.535 0-35.533 31.024v-26.548l35.533-31.024zm-50.533 19.912v24.209l-35.534 31.024v-24.209zm-35.534 75.146 35.534-31.024v26.518l-35.534 30.605zm50.534 0 35.533-31.024v26.518l-35.533 30.605zm50.533 0 35.534-31.024v26.518l-35.534 30.605zm50.535-110.494v-30.975h35.477zm-50.535 0v-30.975h35.478zm-50.533 0v-30.975h35.477zm-50.534 0v-30.975h35.478zm-15 15.436-35.533 31.024v-26.548l35.533-31.024zm-35.533 50.937 35.533-31.024v24.209l-35.533 31.024zm86.067 59.411v15.849h-18.401zm50.533 0v15.849h-18.401zm50.535 0v15.849h-18.401zm15-59.411 35.533-31.024v24.209l-35.533 31.024zm-166.659-97.348-35.477 30.975v-30.975zm-79.762 110.001c0-10.784 4.861-20.792 13.339-27.457l15.947-12.539v62.896h-29.286zm56.78 28.553c-1.491-1.491-3.19-2.691-5.022-3.609l28.061-24.5v29.957 21.191zm212.679 0-23.038 23.039v-20.124l35.533-31.024v22.513c-4.719.276-9.123 2.224-12.495 5.596zm27.495-5.653v-62.896l15.947 12.539c8.478 6.665 13.339 16.673 13.339 27.457v22.9z"/><path d="m133.76 250.367h35.086c4.143 0 7.5-3.358 7.5-7.5s-3.357-7.5-7.5-7.5h-35.086c-11.066 0-20.07 9.004-20.07 20.071v202.265c0 11.067 9.004 20.07 20.07 20.07h243.143c11.066 0 20.07-9.003 20.07-20.07v-202.265c0-11.067-9.004-20.071-20.07-20.071h-176.094c-4.143 0-7.5 3.358-7.5 7.5s3.357 7.5 7.5 7.5h176.094c2.796 0 5.07 2.275 5.07 5.071v202.265c0 2.796-2.274 5.07-5.07 5.07h-243.143c-2.796 0-5.07-2.274-5.07-5.07v-202.265c0-2.796 2.275-5.071 5.07-5.071z"/></g></g></svg>