<svg id="Capa_1" enable-background="new 0 0 509.448 509.448" height="512" viewBox="0 0 509.448 509.448" width="512" xmlns="http://www.w3.org/2000/svg"><g><g><path d="m413.774 110.598-21.86-17.63h-272.66l-23.58 17.63c-6.67 12.8-6.7 28.04-.08 40.87l.08.16 17.97 17.63h292.56l7.57-17.63.08-.16c6.62-12.83 6.59-28.07-.08-40.87z" fill="#fff9e4"/><g><path d="m154.315 166.285-3.701-5.881c-6.552-12.698-4.032-54.175 2.487-67.435h-33.847l-23.58 17.63c-6.67 12.8-6.7 28.04-.08 40.87l.08.16 17.97 17.63h42.852z" fill="#fdf5cb"/></g><path d="m406.203 182.755-12.05-18.548h-280.775l-10.916 18.198h-.21v.35c0 39.747 32.221 71.969 71.969 71.969h160.013c39.747 0 71.969-32.222 71.969-71.969z" fill="#cfeffc"/><path d="m406.203 79.469c0-39.747-32.221-71.969-71.969-71.969h-160.012c-39.747 0-71.969 32.221-71.969 71.969v.35 22.405l63.706-6.489 164.178-2.765 76.066 6.658c-1.44-2.596 0-20.159 0-20.159z" fill="#cfeffc"/><g><g><path d="m149.527 89.277c0-35.35 19.75-66.084 48.816-81.777h-24.122c-39.747 0-71.969 32.221-71.969 71.969v.35 22.405l47.274-4.815v-8.132z" fill="#a9e4f9"/><g><path d="m313.107 114.144c-10.523 0-21.047-1.692-31.109-5.084l-6.291-2.121c-13.53-4.559-28.434-4.56-41.966 0l-6.289 2.12c-20.988 7.075-43.99 6.757-64.772-.892-14.332-5.275-30.154-5.38-44.552-.299l-10.017 3.535c-8.263 2.916-17.327-1.419-20.243-9.684-2.916-8.264 1.419-17.327 9.683-20.243l10.017-3.534c21.355-7.535 44.82-7.379 66.072.444 14.012 5.157 29.522 5.371 43.674.601l6.289-2.12c20.068-6.765 42.171-6.764 62.239 0l6.291 2.121c14.15 4.769 29.661 4.555 43.673-.602 21.253-7.822 44.716-7.98 66.072-.443l10.017 3.534c8.264 2.916 12.599 11.979 9.683 20.243-2.915 8.264-11.978 12.6-20.243 9.684l-10.017-3.534c-14.398-5.081-30.22-4.976-44.552.298-10.815 3.981-22.236 5.976-33.659 5.976z" fill="#a9e4f9"/></g><path d="m209.869 231.887c-33.326 0-60.342-27.016-60.342-60.342v-7.338h-36.149l-10.916 18.198h-.21v.35c0 39.747 32.221 71.969 71.969 71.969h160.013c20.747 0 39.431-8.791 52.566-22.837z" fill="#a9e4f9"/><g><path d="m313.107 148.08c-10.523 0-21.047 1.692-31.109 5.084l-6.291 2.121c-13.53 4.559-28.434 4.56-41.966 0l-6.289-2.12c-20.988-7.075-43.99-6.757-64.772.892-14.332 5.275-30.154 5.38-44.552.299l-10.017-3.535c-8.263-2.916-17.327 1.419-20.243 9.684-2.916 8.264 1.419 17.327 9.683 20.243l10.017 3.534c21.355 7.536 44.82 7.379 66.072-.444 14.012-5.157 29.522-5.371 43.674-.601l6.289 2.12c20.068 6.765 42.171 6.764 62.239 0l6.291-2.121c14.15-4.769 29.661-4.555 43.673.602 21.253 7.822 44.716 7.98 66.072.443l10.017-3.534c8.264-2.916 12.599-11.979 9.683-20.243-2.915-8.264-11.978-12.6-20.243-9.684l-10.017 3.534c-14.398 5.081-30.22 4.976-44.552-.298-10.815-3.981-22.236-5.976-33.659-5.976z" fill="#a9e4f9"/></g></g><path d="m413.774 357.823-21.86-17.63h-272.66l-23.58 17.63c-6.67 12.8-6.7 28.04-.08 40.87l.08.16 17.97 17.63h292.56l7.57-17.63.08-.16c6.62-12.83 6.59-28.07-.08-40.87z" fill="#fff9e4"/><g><path d="m154.315 413.509-3.701-5.881c-6.552-12.698-4.032-54.175 2.487-67.435h-33.847l-23.58 17.63c-6.67 12.8-6.7 28.04-.08 40.87l.08.16 17.97 17.63h42.852z" fill="#fdf5cb"/></g><path d="m406.203 326.693c0-39.747-32.221-71.968-71.969-71.968h-160.012c-39.747 0-71.969 32.221-71.969 71.968v.35 22.405l63.706-6.489 164.178-2.765 76.066 6.658c-1.44-2.596 0-20.159 0-20.159z" fill="#ffd1eb"/><g><path d="m149.527 336.502c0-35.35 19.75-66.084 48.816-81.777h-24.122c-39.747 0-71.969 32.221-71.969 71.968v.35 22.405l47.274-4.815v-8.131z" fill="#ffc3e5"/><g><path d="m313.107 361.368c-10.523 0-21.047-1.692-31.109-5.084l-6.291-2.121c-13.53-4.559-28.434-4.56-41.966 0l-6.289 2.12c-20.988 7.075-43.99 6.757-64.772-.892-14.332-5.275-30.154-5.38-44.552-.299l-10.017 3.535c-8.263 2.915-17.327-1.419-20.243-9.684-2.916-8.264 1.419-17.327 9.683-20.243l10.017-3.534c21.355-7.536 44.82-7.379 66.072.444 14.012 5.156 29.522 5.371 43.674.601l6.289-2.12c20.068-6.765 42.171-6.764 62.239 0l6.291 2.121c14.15 4.769 29.661 4.555 43.673-.602 21.253-7.822 44.716-7.98 66.072-.443l10.017 3.534c8.264 2.916 12.599 11.979 9.683 20.243-2.915 8.264-11.978 12.6-20.243 9.684l-10.017-3.534c-14.398-5.081-30.22-4.976-44.552.298-10.815 3.981-22.236 5.976-33.659 5.976z" fill="#ffc3e5"/></g><path d="m406.203 429.978-12.05-18.548h-280.775l-10.916 18.198h-.21v.35c0 39.747 32.221 71.969 71.969 71.969h160.013c39.747 0 71.969-32.222 71.969-71.969z" fill="#ffd1eb"/><path d="m209.869 479.111c-33.326 0-60.342-27.016-60.342-60.342v-7.338h-36.149l-10.916 18.198h-.21v.35c0 39.747 32.221 71.969 71.969 71.969h160.013c20.747 0 39.431-8.791 52.566-22.837z" fill="#ffc3e5"/><g><path d="m313.107 395.304c-10.523 0-21.047 1.692-31.109 5.084l-6.291 2.121c-13.53 4.559-28.434 4.56-41.966 0l-6.289-2.12c-20.988-7.075-43.99-6.757-64.772.892-14.332 5.275-30.154 5.38-44.552.299l-10.017-3.535c-8.263-2.915-17.327 1.419-20.243 9.684-2.916 8.264 1.419 17.327 9.683 20.243l10.017 3.534c21.355 7.536 44.82 7.379 66.072-.444 14.012-5.156 29.522-5.371 43.674-.601l6.289 2.12c20.068 6.765 42.171 6.764 62.239 0l6.291-2.121c14.15-4.769 29.661-4.555 43.673.602 21.253 7.822 44.716 7.98 66.072.443l10.017-3.534c8.264-2.916 12.599-11.979 9.683-20.243-2.915-8.264-11.978-12.6-20.243-9.684l-10.017 3.534c-14.398 5.081-30.22 4.976-44.552-.298-10.815-3.981-22.236-5.976-33.659-5.976z" fill="#ffc3e5"/></g></g></g><path d="m149.527 171.545v-14.158c-10.497 1.535-21.298.533-31.399-3.031l-10.017-3.535c-8.263-2.916-17.327 1.419-20.242 9.684-2.916 8.264 1.419 17.327 9.683 20.243l10.017 3.534c14.335 5.058 29.618 6.633 44.547 4.768-1.678-5.542-2.589-11.417-2.589-17.505z" fill="#81d9f8"/><path d="m149.527 89.277c0-5.539.487-10.964 1.417-16.236-14.556-1.641-29.415-.024-43.375 4.902l-10.017 3.534c-8.264 2.916-12.599 11.979-9.683 20.242 2.915 8.264 11.98 12.599 20.242 9.684l10.017-3.535c10.101-3.565 20.902-4.577 31.399-3.042z" fill="#81d9f8"/><g fill="#f2b2de"><path d="m149.527 418.769v-14.158c-10.497 1.535-21.298.533-31.399-3.031l-10.017-3.535c-8.263-2.916-17.327 1.419-20.242 9.684-2.916 8.264 1.419 17.327 9.683 20.243l10.017 3.534c14.335 5.058 29.618 6.633 44.547 4.768-1.678-5.542-2.589-11.416-2.589-17.505z"/><path d="m149.527 336.502c0-5.539.487-10.964 1.417-16.236-14.556-1.641-29.415-.024-43.375 4.902l-10.017 3.534c-8.264 2.916-12.599 11.979-9.683 20.242 2.915 8.264 11.98 12.599 20.242 9.684l10.017-3.535c10.101-3.565 20.902-4.577 31.399-3.042z"/></g></g><path d="m423.042 396.407c4.312-11.641 4.284-24.476-.028-36.115 2.496-2.458 4.438-5.452 5.638-8.853 2.077-5.886 1.738-12.228-.955-17.858-2.693-5.631-7.418-9.875-13.305-11.953l-.895-.316c-1.982-29.488-20.108-54.612-45.603-66.586 6.356-2.974 12.336-6.794 17.756-11.398 3.157-2.682 3.542-7.415.86-10.572s-7.415-3.542-10.571-.86c-11.634 9.883-26.444 15.326-41.704 15.326h-160.013c-32.017 0-58.624-23.471-63.598-54.105 21.474 6.252 44.548 5.509 65.608-2.243 12.412-4.569 26.154-4.757 38.688-.533l6.289 2.12c10.807 3.643 22.159 5.464 33.515 5.464 11.354 0 22.71-1.821 33.517-5.463l6.29-2.121c12.534-4.225 26.271-4.036 38.687.533 20.733 7.631 43.416 8.464 64.598 2.526-.887 5.316-2.431 10.497-4.648 15.485-1.682 3.786.024 8.217 3.81 9.899.99.44 2.023.648 3.041.648 2.874 0 5.616-1.662 6.858-4.457 3.8-8.553 6.006-17.563 6.626-26.843l.891-.314c5.886-2.077 10.61-6.322 13.304-11.953 2.693-5.63 3.032-11.973.956-17.857-1.2-3.402-3.143-6.398-5.641-8.856 4.314-11.641 4.336-24.474.027-36.111 2.484-2.453 4.417-5.438 5.612-8.827 2.077-5.886 1.738-12.228-.955-17.858-2.693-5.631-7.418-9.875-13.305-11.953l-.892-.313c-2.778-41.318-37.257-74.09-79.265-74.09h-7.094c-4.143 0-7.5 3.358-7.5 7.5s3.357 7.5 7.5 7.5h7.094c31.92 0 58.48 23.323 63.573 53.82-21.181-5.935-43.861-5.101-64.591 2.528-12.412 4.569-26.151 4.758-38.687.533l-6.291-2.121c-21.612-7.284-45.418-7.284-67.03 0l-6.289 2.12c-12.535 4.225-26.276 4.035-38.688-.532-21.066-7.754-44.147-8.495-65.622-2.24 4.972-30.636 31.592-54.108 63.612-54.108h120.957c4.143 0 7.5-3.358 7.5-7.5s-3.357-7.5-7.5-7.5h-120.957c-42.134 0-76.697 32.965-79.294 74.456-5.825 2.094-10.503 6.311-13.176 11.901-2.693 5.63-3.032 11.973-.956 17.857 1.198 3.395 3.135 6.385 5.626 8.841-4.316 11.644-4.333 24.49-.019 36.132-2.481 2.452-4.412 5.435-5.606 8.821-2.077 5.886-1.738 12.228.955 17.858 2.673 5.589 7.351 9.807 13.176 11.9 1.855 29.64 20.022 54.918 45.615 66.945-4.478 2.102-8.782 4.63-12.862 7.584-3.355 2.429-4.106 7.118-1.678 10.473 2.43 3.357 7.119 4.106 10.473 1.677 11.046-7.996 24.099-12.222 37.747-12.222h160.013c31.919 0 58.474 23.323 63.566 53.819-21.18-5.934-43.857-5.098-64.585 2.53-12.41 4.569-26.151 4.759-38.686.534l-6.292-2.122c-21.613-7.284-45.419-7.284-67.03.001l-6.289 2.12c-12.536 4.224-26.276 4.035-38.688-.532-21.065-7.753-44.143-8.494-65.618-2.24 1.13-6.943 3.372-13.688 6.675-19.89 1.946-3.656.562-8.198-3.095-10.145-3.656-1.947-8.198-.562-10.146 3.094-5.298 9.949-8.418 21.021-9.134 32.294-5.819 2.095-10.492 6.31-13.163 11.895-2.693 5.63-3.032 11.973-.956 17.857 1.197 3.394 3.134 6.383 5.623 8.838-4.316 11.644-4.331 24.492-.016 36.135-2.48 2.452-4.412 5.435-5.605 8.821-2.077 5.886-1.738 12.228.955 17.858 2.673 5.589 7.351 9.807 13.176 11.9 2.597 41.491 37.16 74.457 79.294 74.457h160.013c42.009 0 76.488-32.772 79.265-74.09l.893-.315c5.886-2.077 10.61-6.322 13.304-11.952s3.032-11.973.956-17.857c-1.195-3.388-3.128-6.373-5.611-8.826zm-327.759-303.578c.964-2.016 2.656-3.536 4.763-4.279l10.018-3.534c19.709-6.956 41.368-6.812 60.987.41 15.612 5.746 32.894 5.983 48.659.67l6.289-2.12c18.523-6.243 38.925-6.244 57.448 0l6.291 2.121c15.769 5.313 33.047 5.076 48.659-.67 19.617-7.22 41.276-7.365 60.987-.409l10.016 3.534c2.107.744 3.8 2.263 4.764 4.279.965 2.016 1.086 4.287.342 6.396-.743 2.107-2.263 3.799-4.279 4.764-2.016.964-4.285 1.086-6.396.342l-10.016-3.534c-16.044-5.663-33.673-5.543-49.638.332-9.943 3.659-20.397 5.515-31.071 5.515-9.817 0-19.479-1.578-28.714-4.691l-6.291-2.121c-15.075-5.079-31.68-5.08-46.757.001l-6.289 2.12c-19.371 6.53-40.604 6.237-59.785-.824-8.141-2.996-16.71-4.495-25.284-4.495-8.243 0-16.49 1.387-24.354 4.162l-10.017 3.535c-2.107.745-4.378.622-6.395-.343-2.017-.964-3.536-2.656-4.28-4.764-.742-2.11-.621-4.381.343-6.397zm314.162 49.77c-3.535-.434-7.148-.071-10.605 1.148l-10.017 3.535c-12.755 4.501-26.771 4.408-39.465-.264-11.606-4.271-23.804-6.438-36.252-6.438-11.45 0-22.723 1.843-33.506 5.477l-6.289 2.121c-11.986 4.039-25.189 4.039-37.176 0l-6.289-2.12c-22.601-7.619-47.376-7.277-69.757.961-12.697 4.672-26.712 4.766-39.466.265l-10.017-3.536c-3.458-1.22-7.071-1.582-10.607-1.147-2.438-7.459-2.444-15.52-.01-22.978 3.539.437 7.155.075 10.617-1.147l10.017-3.535c12.755-4.5 26.771-4.407 39.465.265 22.382 8.237 47.156 8.579 69.758.961l6.289-2.12c11.985-4.039 25.188-4.04 37.175-.001l6.291 2.121c10.782 3.634 22.055 5.477 33.505 5.477 12.448 0 24.645-2.167 36.252-6.438 12.693-4.673 26.709-4.766 39.466-.264l10.016 3.534c3.458 1.221 7.072 1.583 10.608 1.148 2.436 7.456 2.435 15.514-.003 22.975zm-309.398 31.075c-4.351-1.535-6.642-6.324-5.105-10.675.743-2.107 2.263-3.798 4.279-4.763 2.017-.965 4.288-1.085 6.395-.343l10.017 3.536c16.045 5.662 33.672 5.542 49.639-.333 19.182-7.062 40.414-7.354 59.785-.824l6.29 2.121c15.075 5.08 31.68 5.081 46.757 0l6.29-2.121c9.235-3.113 18.896-4.691 28.714-4.691 10.675 0 21.128 1.856 31.071 5.516 15.965 5.875 33.593 5.994 49.638.333l10.017-3.535c2.107-.744 4.379-.622 6.395.342 2.017.964 3.536 2.656 4.28 4.765 1.535 4.351-.756 9.139-5.105 10.674l-10.018 3.534c-19.711 6.957-41.371 6.812-60.986-.409-15.61-5.746-32.891-5.984-48.66-.67l-6.29 2.121c-18.522 6.243-38.924 6.243-57.448 0l-6.289-2.121c-7.561-2.547-15.467-3.819-23.372-3.819-8.582 0-17.161 1.499-25.288 4.489-19.613 7.221-41.272 7.366-60.987.409zm-.001 162.1 10.018-3.534c19.709-6.957 41.369-6.812 60.986.409 15.614 5.747 32.895 5.985 48.66.67l6.289-2.12c18.523-6.243 38.926-6.244 57.447 0l6.292 2.122c15.765 5.312 33.047 5.074 48.659-.671 19.614-7.22 41.274-7.365 60.987-.409l10.016 3.534c4.351 1.535 6.642 6.324 5.105 10.675-.743 2.107-2.263 3.799-4.279 4.764-2.016.966-4.286 1.087-6.395.342l-10.017-3.534c-16.042-5.661-33.67-5.545-49.639.332-9.942 3.66-20.396 5.515-31.07 5.516-9.817 0-19.479-1.578-28.713-4.691l-6.292-2.122c-15.075-5.079-31.68-5.08-46.757.001l-6.289 2.12c-19.371 6.528-40.604 6.237-59.786-.824-8.14-2.996-16.71-4.495-25.283-4.495-8.243 0-16.491 1.387-24.354 4.162l-10.017 3.535c-2.107.744-4.378.622-6.395-.343s-3.536-2.656-4.28-4.764c-1.533-4.351.758-9.14 5.107-10.675zm309.402 54.049c-3.537-.435-7.15-.072-10.607 1.148l-10.018 3.534c-12.755 4.502-26.77 4.408-39.466-.264-11.606-4.271-23.803-6.438-36.251-6.438-11.45 0-22.723 1.843-33.505 5.477l-6.291 2.12c-11.986 4.039-25.188 4.04-37.175 0l-6.289-2.119c-22.601-7.618-47.375-7.277-69.758.96-12.694 4.673-26.71 4.766-39.465.265l-10.017-3.535c-3.454-1.218-7.063-1.581-10.596-1.149-2.438-7.459-2.434-15.517.003-22.974 3.532.432 7.139.07 10.593-1.149l10.017-3.535c12.756-4.501 26.77-4.407 39.465.265 22.382 8.238 47.156 8.58 69.758.961l6.289-2.12c11.986-4.04 25.189-4.04 37.174-.001l6.292 2.121c10.782 3.634 22.055 5.477 33.505 5.477 12.448 0 24.646-2.167 36.251-6.438 12.695-4.671 26.71-4.766 39.466-.264l10.017 3.534c3.454 1.219 7.064 1.582 10.597 1.149 2.439 7.457 2.445 15.514.011 22.975zm-75.213 104.625h-160.013c-32.02 0-58.64-23.471-63.612-54.109 21.476 6.257 44.559 5.516 65.621-2.239 12.416-4.568 26.155-4.757 38.688-.532l6.289 2.119c10.807 3.643 22.159 5.464 33.515 5.464 11.354 0 22.71-1.821 33.516-5.463l6.291-2.121c12.533-4.224 26.273-4.035 38.687.533 20.729 7.628 43.406 8.464 64.584 2.53-5.092 30.495-31.648 53.818-63.566 53.818zm79.929-77.83c-.964 2.016-2.655 3.536-4.763 4.279l-10.018 3.534c-19.712 6.956-41.372 6.811-60.986-.409-15.612-5.745-32.892-5.984-48.659-.67l-6.291 2.12c-18.523 6.244-38.927 6.243-57.448 0l-6.289-2.12c-7.56-2.548-15.467-3.819-23.372-3.819-8.582 0-17.161 1.498-25.288 4.489-19.613 7.221-41.273 7.366-60.986.41l-10.017-3.535c-2.108-.744-3.8-2.263-4.764-4.279-.965-2.016-1.086-4.287-.342-6.396.743-2.107 2.263-3.799 4.279-4.763s4.286-1.086 6.395-.342l10.017 3.534c16.045 5.663 33.672 5.543 49.639-.333 19.181-7.061 40.413-7.354 59.785-.824l6.289 2.12c15.077 5.081 31.682 5.081 46.757 0l6.291-2.121c9.235-3.113 18.896-4.691 28.714-4.691 10.674 0 21.128 1.856 31.07 5.515 15.967 5.876 33.596 5.994 49.638.333l10.018-3.535c2.107-.743 4.377-.623 6.396.342 2.016.964 3.535 2.656 4.279 4.765.742 2.109.621 4.38-.344 6.396z"/></g></svg>