<svg id="Filled" height="512" viewBox="0 0 512 512" width="512" xmlns="http://www.w3.org/2000/svg"><path d="m344 488h-176a32 32 0 0 1 -32-32v-112l24-32v-32h192v32l24 32v112a32 32 0 0 1 -32 32z" fill="#e9eef2"/><path d="m352 88v16a32 32 0 0 1 -32 32h-16a32 32 0 0 0 -32 32v176h-32v-176a32 32 0 0 0 -32-32h-16a32 32 0 0 1 -32-32v-16a32 32 0 0 1 32-32h128a32 32 0 0 1 32 32z" fill="#ffd33a"/><path d="m160 280h192v32h-192z" fill="#dadcde"/><path d="m152 248h208v32h-208z" fill="#e9eef2"/><path d="m136 408h240a0 0 0 0 1 0 0v48a32 32 0 0 1 -32 32h-176a32 32 0 0 1 -32-32v-48a0 0 0 0 1 0 0z" fill="#f2c837"/><path d="m304 48h184v32h-184z" fill="#ad6643"/><path d="m200 376h112a32 32 0 0 1 32 32 0 0 0 0 1 0 0h-176a0 0 0 0 1 0 0 32 32 0 0 1 32-32z" fill="#ffd33a"/><path d="m229.933 344h52.134a29.933 29.933 0 0 1 29.933 29.933v2.067a0 0 0 0 1 0 0h-112a0 0 0 0 1 0 0v-2.067a29.933 29.933 0 0 1 29.933-29.933z" fill="#f2c837"/><path d="m336 176a16 16 0 0 1 -32 0v-.01c0-.62.08-32.07 16-47.99 0 0 16 16.17 16 48z" fill="#f2c837"/><rect fill="#ad6643" height="80" rx="16" width="32" x="256" y="24"/><rect fill="#95573a" height="80" rx="16" width="32" x="224" y="24"/><rect fill="#95573a" height="64" rx="16" width="32" x="288" y="32"/><rect fill="#ad6643" height="64" rx="16" width="32" x="192" y="32"/><path d="m488 40h-161.376a23.973 23.973 0 0 0 -34.4-12.9 23.959 23.959 0 0 0 -36.224-4.969 23.959 23.959 0 0 0 -36.223 4.97 23.982 23.982 0 0 0 -35.777 20.899v.8a40.068 40.068 0 0 0 -32 39.2v16a40.045 40.045 0 0 0 40 40h16a24.028 24.028 0 0 1 24 24v72h-80a8 8 0 0 0 -8 8v32a8 8 0 0 0 8 8v21.333l-22.4 29.867a8 8 0 0 0 -1.6 4.8v112a40.045 40.045 0 0 0 40 40h176a40.045 40.045 0 0 0 40-40v-112a8 8 0 0 0 -1.6-4.8l-22.4-29.867v-21.333a8 8 0 0 0 8-8v-32a8 8 0 0 0 -8-8h-80v-72a24.033 24.033 0 0 1 21.391-23.856 105.245 105.245 0 0 0 -5.391 31.856 24 24 0 0 0 48 0 89.159 89.159 0 0 0 -7.1-35.723 39.913 39.913 0 0 0 23.1-36.277v-16h128a8 8 0 0 0 8-8v-32a8 8 0 0 0 -8-8zm-192 8a8 8 0 0 1 16 0v32a8 8 0 0 1 -16 0zm-32-8a8 8 0 0 1 16 0v48a8 8 0 0 1 -16 0zm-32 40v-40a8 8 0 0 1 16 0v48a8 8 0 0 1 -16 0zm-32-32a8 8 0 0 1 16 0v32a8 8 0 0 1 -16 0zm-56 298.667 20-26.667h68v16h-8a40.051 40.051 0 0 0 -39.7 35.216 40.147 40.147 0 0 0 -23.495 28.784h-16.805zm57.376 21.333a24.039 24.039 0 0 1 22.624-16h64a24.039 24.039 0 0 1 22.624 16zm110.624 16a24.039 24.039 0 0 1 22.624 16h-157.248a24.039 24.039 0 0 1 22.624-16zm-64-48v-16h16v16zm-80-32v-16h176v16zm200 152a24.027 24.027 0 0 1 -24 24h-176a24.027 24.027 0 0 1 -24-24v-40h224zm0-109.333v53.333h-16.8a40.144 40.144 0 0 0 -23.5-28.784 40.051 40.051 0 0 0 -39.7-35.216h-8v-16h68zm-16-90.667v16h-192v-16zm-32-72a8.011 8.011 0 0 1 -8-8.01 94.487 94.487 0 0 1 1.877-16.7 65.1 65.1 0 0 1 5.955-17.533c3.8 7 8.168 18.481 8.168 34.244a8.009 8.009 0 0 1 -8 7.999zm24-80a23.929 23.929 0 0 1 -15.074 22.275 38.766 38.766 0 0 0 -3.239-3.9 8.005 8.005 0 0 0 -5.666-2.375h-.021a8 8 0 0 0 -5.657 2.343 45.921 45.921 0 0 0 -4.78 5.657h-5.563a40.045 40.045 0 0 0 -40 40v72h-16v-72a40.045 40.045 0 0 0 -40-40h-16a24.028 24.028 0 0 1 -24-24v-16a24.039 24.039 0 0 1 16-22.624v14.624a23.982 23.982 0 0 0 35.777 20.9 23.959 23.959 0 0 0 36.223 4.969 23.959 23.959 0 0 0 36.223-4.97 23.973 23.973 0 0 0 34.4-12.9h17.377zm136-32h-152v-16h152z"/></svg>