<svg id="Capa_1" enable-background="new 0 0 512.322 512.322" height="512" viewBox="0 0 512.322 512.322" width="512" xmlns="http://www.w3.org/2000/svg"><g><g><path d="m148.118 319.799-19.497 8.447c-9.666 4.188-15.789 13.858-15.441 24.386.366 11.062 7.785 20.642 18.404 23.764l3.775 1.11c1.078.317 2.033.956 2.737 1.831l11.549 14.352 24.984 37.942h172.92l15.128-37.942 11.549-14.352c.704-.875 1.66-1.514 2.737-1.831l3.775-1.11c10.619-3.122 18.038-12.702 18.404-23.764.348-10.528-5.775-20.199-15.441-24.386l-19.497-8.447-96.906-26.362z" fill="#b1e254"/><path d="m179.466 278.651-10.646-2.54c-9.939-2.371-20.199 2.436-24.737 11.591-3.3 6.657-3.011 14.533.769 20.93 1.376 2.329 2.721 4.602 3.705 6.264.923 1.56.745 3.531-.439 4.903-7.306 8.468-5.8 21.374 3.258 27.933l8.136 5.892c.919.666 1.627 1.582 2.038 2.64l5.793 14.902 13.699 51.515h148.24l15.696-51.515 5.793-14.902c.411-1.058 1.119-1.975 2.038-2.64l8.136-5.892c9.059-6.559 10.564-19.465 3.258-27.933-1.184-1.372-1.362-3.343-.439-4.903.983-1.662 2.328-3.935 3.705-6.264 3.78-6.397 4.07-14.272.769-20.93-4.538-9.155-14.798-13.962-24.737-11.591l-10.646 2.54-76.036 29.328z" fill="#d8efa7"/><path d="m148.118 319.799c-7.306 8.468-5.8 21.374 3.258 27.933l8.136 5.892c.919.666 1.627 1.583 2.038 2.64l5.793 14.902 8.2 30.835h23.079l-8.677-32.631-5.793-14.902c-.411-1.058-1.119-1.975-2.038-2.64l-8.136-5.892c-9.058-6.559-10.564-19.465-3.258-27.933 1.184-1.372 1.362-3.343.439-4.903-.984-1.662-2.328-3.935-3.705-6.264-3.78-6.397-4.07-14.272-.769-20.93 1.759-3.549 4.385-6.435 7.512-8.512l-5.377-1.283c-9.939-2.371-20.199 2.436-24.737 11.591-3.3 6.657-3.011 14.533.769 20.93 1.376 2.329 2.721 4.602 3.705 6.264.923 1.56.745 3.531-.439 4.903z" fill="#c5e97d"/><path d="m274.478 105.113-14.297-93.851c-.764-5.016-7.992-5.016-8.756 0l-14.297 93.851-12.555 96.275h64.496z" fill="#f6e2c4"/><g><path d="m163.489 361.251 3.855 9.916 13.699 51.515h148.24l15.696-51.515 3.354-8.628c-2.388-2.078-4.903-4.092-7.559-6.028-5.025-3.662-10.409-6.957-16.087-9.876-5.052-2.597-6.385-9.241-2.581-13.459 13.773-15.273 22.333-35.331 22.851-57.346-.485.082-.969.166-1.453.281l-10.646 2.54-76.036 29.328-77.355-29.328-10.646-2.54c-.524-.125-1.05-.219-1.575-.305.505 21.73 8.844 41.556 22.298 56.756 3.746 4.232 2.43 10.873-2.623 13.406-6.152 3.083-11.967 6.604-17.372 10.543-2.107 1.533-4.123 3.116-6.06 4.74z" fill="#c5e97d"/><circle cx="256.1" cy="273.714" fill="#ea9a98" r="78.885"/><path d="m275.485 350.169c11.843-2.995 22.647-8.651 31.676-16.323-16.155-5.431-33.811-8.315-51.999-8.315-3.767 0-7.509.125-11.219.37-5.102.338-10.047-1.94-13.041-6.085-9.363-12.966-14.887-28.886-14.887-46.103 0-11.104 2.3-21.669 6.443-31.25 2.611-6.037 8.842-9.618 15.385-8.943 5.938.613 11.93.923 17.959.924 21.057 0 41.677-3.761 61.069-11.025-6.126-7.394-13.58-13.646-21.99-18.405l-27.716-5.148c2.713-1.019 5.49-1.907 8.335-2.626-7.817-1.977-16.094-2.798-24.647-2.24-39.808 2.601-71.678 35.062-73.549 74.91-2.127 45.296 33.968 82.689 78.796 82.689 6.695 0 13.193-.841 19.4-2.411-4.524-1.144-8.887-2.69-13.062-4.578l8.288-1.303z" fill="#e5827f"/><path d="m255.163 340.531c62.27 0 112.74 36.78 112.74 82.15 0 45.36-50.47 82.14-112.74 82.14s-112.75-36.78-112.75-82.14c0-45.37 50.48-82.15 112.75-82.15z" fill="#f6e2c4"/><path d="m182.155 425.907c0-43.53 46.48-79.15 105.246-81.968-10.212-2.216-21.038-3.407-32.238-3.407-62.27 0-112.75 36.78-112.75 82.15 0 45.36 50.48 82.14 112.75 82.14 2.526 0 5.03-.067 7.514-.186-46.565-10.104-80.522-41.528-80.522-78.729z" fill="#f8deb6"/><g id="XMLID_257_"><g><path d="m311.203 391.261c6.75 5.3 18.08 16.42 18.08 31.42s-11.33 26.12-18.08 31.41c-14.38 11.27-34.8 17.73-56.04 17.73s-41.67-6.46-56.04-17.73c-6.76-5.29-18.08-16.41-18.08-31.41s11.32-26.12 18.08-31.42c14.37-11.26 34.8-17.73 56.04-17.73s41.66 6.47 56.04 17.73z" fill="#fcf1de"/></g></g><g id="XMLID_255_"><g><path d="m255.163 402.001c13.03 0 23.6 9.26 23.6 20.68s-10.57 20.68-23.6 20.68c-13.04 0-23.61-9.26-23.61-20.68s10.57-20.68 23.61-20.68z" fill="#fcf6ed"/></g></g><g id="XMLID_251_"><g><path d="m333.512 164.121-75.13-75.1c-1.42-1.42-3.74-1.42-5.16 0l-74.89 74.85-1.521 17.152s55.994 20.677 56.943 20.361 76.883-9.727 76.883-9.727l24.348-16.214z" fill="#fbe88c"/></g></g><g><path d="m194.343 180.375 77.717-77.683-13.677-13.671c-1.42-1.42-3.74-1.42-5.16 0l-74.89 74.85-1.521 17.152s6.68 2.467 15.463 5.683c-.335-2.221.324-4.582 2.068-6.331z" fill="#fbe372"/></g></g><path d="m348.523 179.121c3.27 3.28 2.76 8.72-1.06 11.33l-2.02 1.37c-54.09 36.83-125.19 36.83-179.28 0l-2.02-1.37c-3.82-2.61-4.33-8.05-1.06-11.33l15.25-15.25 1.07 1.07c47.87 30.27 106.53 30.1 154.11-.82z" fill="#d8efa7"/><path d="m197.422 193.075c20.684 14.083 43.828 22.79 67.584 26.103-34.331 1.99-69.138-7.13-98.844-27.357l-2.02-1.37c-3.82-2.61-4.33-8.05-1.06-11.33l15.25-15.25 1.07 1.07c6.434 4.069 13.068 7.568 19.839 10.537l-3.151 3.348c-3.936 4.182-3.311 10.869 1.332 14.249z" fill="#c5e97d"/></g><g><path d="m315.828 385.362c-15.672-12.282-37.784-19.327-60.667-19.327-12.542 0-25.163 2.151-36.499 6.223-3.898 1.399-5.924 5.695-4.524 9.594 1.4 3.897 5.696 5.924 9.593 4.523 9.728-3.493 20.596-5.34 31.429-5.34 19.593 0 38.332 5.881 51.413 16.133 5.681 4.453 15.21 13.689 15.21 25.511 0 11.82-9.529 21.057-15.21 25.509-13.082 10.254-31.821 16.135-51.413 16.135-19.593 0-38.332-5.881-51.413-16.135-5.681-4.451-15.21-13.685-15.21-25.509 0-9.065 5.707-16.617 10.495-21.356 2.944-2.914 2.968-7.662.054-10.606-2.915-2.943-7.664-2.968-10.606-.054-9.775 9.676-14.942 20.747-14.942 32.017 0 18.177 13.13 31.182 20.957 37.314 15.67 12.284 37.783 19.329 60.667 19.329 22.883 0 44.995-7.045 60.667-19.329 7.826-6.136 20.956-19.142 20.956-37.314-.001-18.175-13.131-31.181-20.957-37.318z"/><path d="m286.264 422.679c0-15.539-13.953-28.181-31.104-28.181s-31.104 12.642-31.104 28.181 13.953 28.181 31.104 28.181 31.104-12.642 31.104-28.181zm-47.207 0c0-7.268 7.224-13.181 16.104-13.181s16.104 5.913 16.104 13.181-7.224 13.181-16.104 13.181c-8.879-.001-16.104-5.914-16.104-13.181z"/><path d="m386.682 321.364-14.352-6.218 1.596-2.699c5.092-8.615 5.478-19.111 1.032-28.076-6.126-12.359-19.779-18.754-33.196-15.555l-2.292.547c-1.493-20.148-10.254-39.07-24.473-53.257 12.132-4.613 23.758-10.659 34.664-18.086l2.019-1.375c3.677-2.504 6.023-6.479 6.439-10.908s-1.149-8.772-4.296-11.916l-14.955-14.949c-.018-.019-.037-.036-.055-.055l-22.587-22.577c-2.929-2.93-7.678-2.929-10.606.003-2.928 2.929-2.927 7.678.003 10.606l15.808 15.801c-6.452 3.612-13.128 6.667-19.962 9.17l-10.526-21.426c-1.826-3.719-6.322-5.252-10.038-3.425-3.718 1.826-5.251 6.32-3.425 10.038l9.447 19.229c-7.598 1.844-15.33 3.013-23.123 3.485v-29.615c0-4.143-3.357-7.5-7.5-7.5-4.142 0-7.5 3.357-7.5 7.5v29.66c-8.115-.444-16.179-1.64-24.104-3.57l9.427-19.189c1.827-3.718.293-8.212-3.424-10.038-3.716-1.824-8.212-.293-10.039 3.425l-10.509 21.391c-6.826-2.499-13.494-5.566-19.95-9.164l65.598-65.572 27.2 27.19c2.93 2.929 7.678 2.927 10.607-.002 2.928-2.93 2.927-7.679-.002-10.607l-12.087-12.082-13.927-91.416c-.893-5.87-5.852-10.132-11.791-10.132-5.938 0-10.898 4.262-11.793 10.132l-13.927 91.417-72.301 72.272c-3.146 3.144-4.711 7.486-4.296 11.915.416 4.429 2.763 8.405 6.438 10.908l2.021 1.377c10.913 7.432 22.548 13.481 34.69 18.096-2.72 2.709-5.281 5.583-7.621 8.656-2.51 3.296-1.873 8.001 1.423 10.511 1.358 1.034 2.955 1.533 4.539 1.533 2.261 0 4.497-1.019 5.972-2.956 3.549-4.66 7.655-8.824 12.224-12.431 13.805 3.646 28.109 5.516 42.631 5.516 14.523 0 28.829-1.871 42.636-5.518 16.507 13.035 26.266 32.997 26.266 54.094 0 25.397-14.305 49.026-36.651 60.9-10.573-2.219-21.614-3.387-32.893-3.387-10.946 0-21.666 1.105-31.953 3.197-22.461-12.05-36.308-35.084-36.308-60.709 0-5.24.598-10.482 1.778-15.58.934-4.035-1.581-8.063-5.616-8.997-4.038-.934-8.064 1.581-8.998 5.616-.96 4.151-1.596 8.38-1.917 12.633l-1.587-.378c-13.419-3.207-27.07 3.195-33.197 15.555-4.445 8.966-4.059 19.462 1.033 28.076l1.596 2.699-14.352 6.218c-12.575 5.449-20.408 17.82-19.955 31.517.474 14.327 10.032 26.669 23.783 30.711l3.177.935 8.176 10.16c-3.883 8.903-5.906 18.319-5.906 27.992 0 24.401 12.823 47.183 36.106 64.146 22.568 16.442 52.45 25.498 84.14 25.498s61.572-9.056 84.14-25.498c23.283-16.963 36.106-39.744 36.106-64.146 0-9.086-1.781-17.946-5.214-26.366l9.486-11.786 3.175-.935c13.752-4.042 23.311-16.384 23.785-30.712.452-13.697-7.381-26.068-19.957-31.517zm-123.057-237.699c-4.33-4.265-11.309-4.263-15.644 0l7.822-51.342zm-93.235 101.959-1.902-1.296 10.725-10.721c23.921 14.192 50.32 21.294 76.691 21.294 26.379 0 52.721-7.102 76.507-21.274l10.705 10.701-1.9 1.295c-25.286 17.221-54.821 26.323-85.414 26.323s-60.128-9.102-85.412-26.322zm168.774 99.233 6.079-1.45c6.582-1.572 13.271 1.566 16.276 7.628 2.183 4.4 1.993 9.553-.507 13.783l-3.702 6.26c-2.563 4.333-2.075 9.807 1.215 13.621 2.146 2.486 3.117 5.653 2.737 8.915-.381 3.262-2.056 6.118-4.715 8.044l-8.14 5.894c-2.092 1.517-3.691 3.59-4.627 5.996l-2.51 6.457c-.649-.495-1.304-.986-1.97-1.472-9.53-6.943-20.374-12.552-32.098-16.735 17.72-13.83 29.402-34.455 31.962-56.941zm-188.362 6.176c3.004-6.061 9.7-9.199 16.277-7.627l5.318 1.269c2.431 22.637 13.813 42.97 31.538 56.822-12.04 4.212-23.162 9.93-32.914 17.035-.142.104-.279.21-.42.313l-2.06-5.299c-.936-2.406-2.536-4.479-4.63-5.998l-8.136-5.891c-2.66-1.927-4.334-4.784-4.715-8.046-.38-3.262.592-6.428 2.736-8.913 3.291-3.814 3.78-9.288 1.215-13.622l-3.703-6.261c-2.499-4.228-2.688-9.38-.506-13.782zm-6.862 83.604c-1.673-2.079-3.91-3.575-6.466-4.325l-3.776-1.11c-7.529-2.214-12.763-8.972-13.022-16.816-.248-7.499 4.041-14.273 10.926-17.257l4.403-1.907c.025.71.073 1.42.156 2.13.86 7.375 4.803 14.102 10.817 18.457l7.754 5.614 3.795 9.761c-3.652 3.654-6.902 7.49-9.737 11.48zm111.221 122.685c-58.033 0-105.246-33.485-105.246-74.644s47.213-74.644 105.246-74.644 105.246 33.485 105.246 74.644-47.213 74.644-105.246 74.644zm123.461-128.121-3.771 1.109c-2.561.752-4.799 2.248-6.468 4.325l-5.92 7.356c-2.683-3.937-5.766-7.729-9.235-11.35l4.362-11.22 7.754-5.615c6.014-4.354 9.956-11.081 10.816-18.455.083-.71.131-1.421.156-2.131l4.402 1.907c6.887 2.983 11.176 9.758 10.928 17.257-.259 7.845-5.493 14.603-13.024 16.817z"/></g></g></svg>