<svg id="Capa_1" enable-background="new 0 0 509.96 509.96" height="512" viewBox="0 0 509.96 509.96" width="512" xmlns="http://www.w3.org/2000/svg"><g><g><path d="m426.158 361.225 67.764-26.114c5.889-2.27 9.449-8.38 8.336-14.593-.007-.036-.013-.073-.02-.109-21.416-118.73-124.526-204.905-245.172-204.905h-4.172c-120.646 0-223.756 86.175-245.172 204.907-.007.036-.013.073-.02.109-1.113 6.211 2.446 12.321 8.334 14.59l67.766 26.114 77.298-6.044 59.091-37.763h125.194z" fill="#fdf5cb"/><g><path d="m287.852 117.408c-10.105-1.248-20.378-1.904-30.786-1.904h-4.394c-120.466 0-223.635 86.283-244.94 204.85-1.127 6.273 2.357 12.464 8.304 14.756l35 13.488 32.766 12.627 36.812-2.878v-31.948l-20.333 1.59-15.742-6.067c-14.315-5.516-21.473-21.646-15.836-35.914 38.924-98.519 122.993-165.455 219.149-168.6z" fill="#fcf0b6"/><path d="m433.349 332.835c3.76 20.847-11.5 40.309-32.641 41.631l-44.898 2.807c-7.887.493-15.675 2.02-23.164 4.541-50.388 16.962-104.943 16.962-155.331 0-7.489-2.521-15.277-4.048-23.164-4.541l-44.898-2.807c-21.141-1.322-36.401-20.784-32.641-41.631 15.384-85.288 89.619-147.331 176.283-147.331h4.171c86.664 0 160.899 62.043 176.283 147.331z" fill="#fbe88c"/><path d="m430.22 339.714-49.339 3.214c-8.667.565-17.225 2.312-25.456 5.199-55.372 19.42-115.324 19.42-170.696 0-8.23-2.886-16.789-4.634-25.456-5.199l-49.339-3.214c-13.185-.859-23.989-9.573-30.372-20.304-1.02 4.031-2.205 9.28-2.952 13.425-3.76 20.846 11.5 40.309 32.641 41.631l44.898 2.807c7.887.493 15.675 2.02 23.164 4.541 50.388 16.962 104.943 16.962 155.331 0 7.49-2.521 15.277-4.048 23.164-4.541l44.898-2.807c18.94-1.184 33.16-16.948 33.212-35.203-1.209.198-2.448.369-3.698.451z" fill="#fbe372"/></g></g><g><path d="m509.65 319.251c-.013-.075-.024-.14-.031-.173-7.604-42.16-25.764-82.024-52.515-115.283-2.596-3.229-7.317-3.742-10.544-1.144-3.229 2.596-3.74 7.316-1.144 10.544 9.092 11.304 17.123 23.423 24.021 36.162l-49.55 23.976c-12.643-22.564-29.774-42.082-50.093-57.48l31.062-45.474c8.185 6.073 16.04 12.685 23.5 19.839 2.99 2.868 7.737 2.767 10.604-.222 2.867-2.99 2.768-7.737-.222-10.604-48.007-46.035-111.105-71.388-177.674-71.388h-4.172c-34.574 0-68.164 6.78-99.835 20.152-30.82 13.013-58.438 31.654-82.086 55.406-2.923 2.936-2.912 7.685.022 10.607 1.464 1.457 3.378 2.185 5.292 2.185 1.925 0 3.85-.736 5.315-2.208 8.643-8.681 17.83-16.621 27.482-23.794l31.091 45.516c-20.638 15.6-37.642 35.161-50.121 57.457l-49.517-23.961c6.038-11.155 12.927-21.84 20.645-31.892 2.522-3.285 1.903-7.993-1.382-10.517-3.286-2.521-7.993-1.903-10.517 1.382-24.767 32.265-41.692 70.559-48.928 110.68-.015.078-.029.155-.042.233-1.709 9.681 3.764 19.288 13.028 22.858l65.966 25.421c7.501 8.489 18.108 13.711 29.479 14.422l44.897 2.807c7.229.452 14.376 1.853 21.239 4.164 25.813 8.689 52.936 13.034 80.059 13.034s54.246-4.345 80.06-13.034c6.862-2.312 14.009-3.712 21.238-4.164l44.897-2.807c11.371-.711 21.978-5.933 29.479-14.422l65.963-25.42c9.268-3.57 14.741-13.177 13.034-22.858zm-152.161-111.978c-17.631-11.256-37.236-19.593-58.096-24.433l16.422-52.65c25.816 6.43 50.357 17.087 72.727 31.623zm-100.423-84.269c14.911 0 29.632 1.367 44.026 4.009l-16.536 53.017c-8.989-1.33-18.168-2.027-27.49-2.027h-4.172c-9.24 0-18.42.685-27.488 2.031l-16.544-53.042c14.378-2.628 29.098-3.988 44.033-3.988zm-241.981 198.84c.009-.051.018-.103.025-.153l-.008.052c3.676-20.38 10.017-40.233 18.709-58.969l49.451 23.929c-6.462 14.113-11.207 29.137-14.032 44.801-.974 5.398-.883 10.872.185 16.139l-50.681-19.531c-2.587-.997-4.121-3.632-3.649-6.268zm385.155 45.137-44.897 2.807c-8.541.534-16.982 2.188-25.089 4.918-48.54 16.343-102.006 16.343-150.546 0-8.107-2.729-16.549-4.384-25.09-4.918l-44.897-2.807c-7.942-.497-15.314-4.374-20.225-10.637s-6.916-14.346-5.504-22.178c9.204-51.027 40.533-94.692 85.954-119.797 3.625-2.004 4.939-6.567 2.937-10.192-2.004-3.625-6.567-4.938-10.192-2.937-3.477 1.922-6.87 3.955-10.192 6.072l-31.093-45.518c22.362-14.552 46.881-25.223 72.728-31.643l16.439 52.705c-5.867 1.366-11.676 3.011-17.407 4.948-3.924 1.326-6.03 5.582-4.704 9.507 1.326 3.924 5.582 6.028 9.507 4.704 17.694-5.979 36.175-9.012 54.926-9.012h4.172c83.115 0 154.148 59.368 168.902 141.163 1.412 7.832-.594 15.915-5.504 22.178s-12.283 10.14-20.225 10.637zm90.984-38.868-50.679 19.53c1.068-5.267 1.159-10.741.185-16.139-2.845-15.775-7.625-30.777-14.052-44.794l49.49-23.947c8.683 18.714 15.001 38.558 18.693 58.997.005.027.009.055.014.082.472 2.637-1.063 5.274-3.651 6.271z"/><path d="m363.606 267.977c0-4.143-3.357-7.5-7.5-7.5h-51.584c-4.143 0-7.5 3.357-7.5 7.5s3.357 7.5 7.5 7.5h51.584c4.142 0 7.5-3.358 7.5-7.5z"/><path d="m374.568 313.195h-15.095c-4.143 0-7.5 3.357-7.5 7.5s3.357 7.5 7.5 7.5h15.095c4.143 0 7.5-3.357 7.5-7.5s-3.358-7.5-7.5-7.5z"/><path d="m300.247 332.247h-66.314c-4.143 0-7.5 3.357-7.5 7.5s3.357 7.5 7.5 7.5h66.314c4.143 0 7.5-3.357 7.5-7.5s-3.357-7.5-7.5-7.5z"/><path d="m188.865 332.247h-8.688c-4.143 0-7.5 3.357-7.5 7.5s3.357 7.5 7.5 7.5h8.688c4.143 0 7.5-3.357 7.5-7.5s-3.358-7.5-7.5-7.5z"/></g></g></svg>