<svg id="Capa_1" enable-background="new 0 0 512.561 512.561" height="512" viewBox="0 0 512.561 512.561" width="512" xmlns="http://www.w3.org/2000/svg"><g><g><path d="m481.09 318.509-112.128 24.788-94.265-60.745-.037 41.546c0 63.836 51.749 115.585 115.585 115.585 63.835 0 115.585-51.749 115.585-115.585l-.07-40.279z" fill="#b3adb5"/><g><path d="m422.164 434.891c-63.836 0-115.585-51.749-115.585-115.584l.015-16.2-31.897-20.555-.037 41.546c0 63.836 51.749 115.585 115.585 115.585 11.489 0 22.583-1.685 33.058-4.806-.38.003-.758.014-1.139.014z" fill="#a59ca6"/></g><path d="m505.829 279.768c0 63.836-51.749 115.585-115.585 115.585s-115.585-51.749-115.585-115.585v-57.786l46.163-52.309h129.829s55.179 31.103 55.178 32.517z" fill="#f3f1f3"/><path d="m213.93 318.466-112.128 24.788-94.265-60.745-.037 41.546c0 63.836 51.749 115.585 115.585 115.585 63.835 0 115.585-51.749 115.585-115.585l-.07-40.279z" fill="#b3adb5"/><g><path d="m155.005 434.848c-63.836 0-115.585-51.749-115.585-115.584l.015-16.2-31.898-20.555-.037 41.546c0 63.836 51.749 115.585 115.585 115.585 11.489 0 22.583-1.685 33.058-4.806-.38.003-.758.014-1.138.014z" fill="#a59ca6"/></g><path d="m238.67 279.725c0 63.836-51.749 115.585-115.585 115.585s-115.585-51.749-115.585-115.585v-57.785l46.163-52.309h129.829s55.179 31.103 55.178 32.517 0 77.577 0 77.577z" fill="#f3f1f3"/><path d="m139.022 376.64c-63.836 0-115.585-51.749-115.585-115.585v-57.175l-15.937 18.059v57.786c0 63.835 51.749 115.585 115.585 115.585 39.622 0 74.576-19.92 95.401-50.309-20.714 19.622-48.679 31.639-79.464 31.639z" fill="#e1dee2"/><g><g><path d="m238.67 188.506v44.329c0 63.836-51.749 115.585-115.585 115.585s-115.585-51.749-115.585-115.585v-44.329l33.271-50.772h155.027l40.886 29.364z" fill="#b3adb5"/><path d="m154.952 343.248c-63.836 0-115.585-51.749-115.585-115.585v-44.33l29.882-45.6h-28.478l-33.271 50.773v44.33c0 63.836 51.749 115.585 115.585 115.585 11.978 0 23.53-1.822 34.394-5.204-.841.017-1.682.031-2.527.031z" fill="#a59ca6"/><g id="XMLID_254_"><g><path d="m123.08 72.922c63.84 0 115.59 51.75 115.59 115.58 0 63.84-51.75 115.59-115.59 115.59-63.83 0-115.58-51.75-115.58-115.59 0-63.83 51.75-115.58 115.58-115.58zm55.31 115.58c0-30.54-24.76-55.3-55.31-55.3-30.54 0-55.3 24.76-55.3 55.3 0 30.55 24.76 55.3 55.3 55.3 30.55 0 55.31-24.75 55.31-55.3z" fill="#cac5cb"/></g></g><g id="XMLID_259_"><g><path d="m123.08 133.202c30.55 0 55.31 24.76 55.31 55.3 0 30.55-24.76 55.3-55.31 55.3-30.54 0-55.3-24.75-55.3-55.3 0-30.54 24.76-55.3 55.3-55.3zm24.37 55.3c0-13.45-10.91-24.36-24.37-24.36-13.45 0-24.36 10.91-24.36 24.36 0 13.46 10.91 24.37 24.36 24.37 13.46 0 24.37-10.91 24.37-24.37z" fill="#a59ca6"/></g></g><path d="m42.005 173.022c0-33.69 11.788-64.633 31.448-88.931-38.993 18.571-65.953 58.348-65.953 104.411 0 63.84 51.75 115.59 115.58 115.59 2.212 0 4.424-.063 6.605-.186-51.444-21.179-87.68-71.8-87.68-130.884z" fill="#b3adb5"/></g></g><path d="m406.182 376.683c-63.836 0-115.585-51.749-115.585-115.585v-57.175l-15.938 18.06v57.786c0 63.835 51.749 115.585 115.585 115.585 39.622 0 74.576-19.92 95.401-50.309-20.714 19.621-48.679 31.638-79.463 31.638z" fill="#e1dee2"/><path d="m505.829 188.549v44.329c0 63.836-51.749 115.585-115.585 115.585s-115.585-51.749-115.585-115.585v-44.329l33.271-50.772h155.027l40.886 29.364z" fill="#b3adb5"/><path d="m422.111 343.291c-63.836 0-115.585-51.749-115.585-115.585v-44.33l29.882-45.6h-28.478l-33.271 50.772v44.33c0 63.836 51.749 115.585 115.585 115.585 11.978 0 23.53-1.822 34.394-5.204-.84.018-1.682.032-2.527.032z" fill="#a59ca6"/><g id="XMLID_264_"><g><path d="m390.24 72.965c63.84 0 115.59 51.75 115.59 115.58 0 63.84-51.75 115.59-115.59 115.59-63.83 0-115.58-51.75-115.58-115.59 0-63.83 51.75-115.58 115.58-115.58zm55.309 115.58c0-30.54-24.76-55.3-55.31-55.3-30.54 0-55.3 24.76-55.3 55.3 0 30.55 24.76 55.3 55.3 55.3 30.55 0 55.31-24.75 55.31-55.3z" fill="#cac5cb"/></g></g><path d="m309.164 173.065c0-33.69 11.788-64.633 31.448-88.931-38.993 18.572-65.952 58.348-65.952 104.412 0 63.84 51.75 115.59 115.58 115.59 2.212 0 4.424-.063 6.605-.186-51.444-21.18-87.681-71.801-87.681-130.885z" fill="#b3adb5"/><g id="XMLID_262_"><g><path d="m390.24 133.245c30.55 0 55.31 24.76 55.31 55.3 0 30.55-24.76 55.3-55.31 55.3-30.54 0-55.3-24.75-55.3-55.3 0-30.54 24.759-55.3 55.3-55.3zm24.369 55.3c0-13.45-10.91-24.36-24.37-24.36-13.45 0-24.36 10.91-24.36 24.36 0 13.46 10.91 24.37 24.36 24.37 13.46 0 24.37-10.91 24.37-24.37z" fill="#a59ca6"/></g></g></g><g><path d="m123.085 65.421c-25.67 0-50.269 7.825-71.139 22.63-3.378 2.396-4.174 7.078-1.777 10.457 2.397 3.377 7.077 4.176 10.457 1.777 18.318-12.995 39.916-19.864 62.459-19.864 59.599 0 108.085 48.486 108.085 108.085 0 59.598-48.486 108.084-108.085 108.084s-108.085-48.486-108.085-108.084c0-24.91 8.241-48.319 23.833-67.698 2.597-3.227 2.085-7.948-1.143-10.545-3.228-2.596-7.946-2.085-10.545 1.143-17.504 21.756-27.145 49.138-27.145 77.1v135.549c0 67.869 55.216 123.085 123.085 123.085s123.085-55.216 123.085-123.085v-135.549c0-67.869-55.216-123.085-123.085-123.085zm87.436 209.624c7.479-7.556 13.993-16.069 19.33-25.343-2.708 17.208-9.493 33.078-19.33 46.593zm-38.147 26.233c8.223-3.608 15.977-8.088 23.147-13.325v25.033c-6.957 6.293-14.732 11.696-23.147 16.026zm-41.789 10.077c9.239-.558 18.206-2.137 26.789-4.63v28.618c-8.51 2.854-17.49 4.672-26.789 5.313zm-41.789-4.631c8.583 2.493 17.55 4.072 26.789 4.63v29.301c-9.299-.641-18.279-2.459-26.789-5.313zm-38.148-18.771c7.17 5.237 14.925 9.717 23.147 13.325v27.734c-8.415-4.33-16.191-9.733-23.147-16.026zm-15-12.908v21.25c-9.836-13.515-16.621-29.385-19.33-46.593 5.337 9.274 11.851 17.787 19.33 25.343zm0 112.47c-9.836-13.515-16.621-29.385-19.329-46.593 5.336 9.274 11.85 17.787 19.329 25.343zm38.148 32.716c-8.415-4.33-16.191-9.733-23.147-16.026v-25.032c7.17 5.237 14.925 9.718 23.147 13.325zm41.789 11.644c-9.299-.641-18.279-2.459-26.789-5.313v-28.617c8.583 2.494 17.55 4.072 26.789 4.631zm41.789-5.313c-8.51 2.854-17.49 4.672-26.789 5.313v-29.3c9.239-.558 18.206-2.137 26.789-4.631zm38.147-22.357c-6.957 6.293-14.732 11.696-23.147 16.026v-27.733c8.223-3.608 15.977-8.088 23.147-13.325zm15-16.69v-21.25c7.479-7.556 13.993-16.069 19.329-25.343-2.707 17.208-9.492 33.078-19.329 46.593zm-87.436.296c-55.048 0-100.612-41.365-107.25-94.644 21.137 37.426 61.289 62.753 107.25 62.753s86.113-25.327 107.25-62.753c-6.638 53.279-52.202 94.644-107.25 94.644z"/><path d="m60.283 188.506c0 34.629 28.173 62.802 62.802 62.802s62.802-28.173 62.802-62.802-28.173-62.802-62.802-62.802-62.802 28.173-62.802 62.802zm62.802-47.802c26.358 0 47.802 21.443 47.802 47.802s-21.443 47.802-47.802 47.802-47.802-21.443-47.802-47.802 21.444-47.802 47.802-47.802z"/><path d="m123.085 220.371c17.57 0 31.865-14.295 31.865-31.865s-14.295-31.865-31.865-31.865-31.865 14.295-31.865 31.865 14.295 31.865 31.865 31.865zm0-48.73c9.3 0 16.865 7.565 16.865 16.865s-7.565 16.865-16.865 16.865-16.865-7.565-16.865-16.865 7.565-16.865 16.865-16.865z"/><path d="m125.316 110.577c4.143 0 7.5-3.357 7.5-7.5s-3.357-7.5-7.5-7.5h-4.463c-4.143 0-7.5 3.357-7.5 7.5s3.357 7.5 7.5 7.5z"/><path d="m190.374 124.373-3.156-3.156c-2.93-2.928-7.678-2.928-10.607 0-2.929 2.93-2.929 7.678 0 10.607l3.156 3.156c1.465 1.464 3.385 2.196 5.304 2.196s3.839-.732 5.304-2.196c2.928-2.929 2.928-7.677-.001-10.607z"/><path d="m216.014 190.737v-4.463c0-4.143-3.357-7.5-7.5-7.5s-7.5 3.357-7.5 7.5v4.463c0 4.143 3.357 7.5 7.5 7.5s7.5-3.357 7.5-7.5z"/><path d="m179.767 242.031-3.156 3.156c-2.929 2.93-2.929 7.678 0 10.607 1.465 1.464 3.385 2.196 5.304 2.196s3.839-.732 5.304-2.196l3.156-3.156c2.929-2.93 2.929-7.678 0-10.607-2.931-2.927-7.679-2.927-10.608 0z"/><path d="m120.854 266.435c-4.143 0-7.5 3.357-7.5 7.5s3.357 7.5 7.5 7.5h4.463c4.143 0 7.5-3.357 7.5-7.5s-3.357-7.5-7.5-7.5z"/><path d="m55.796 252.639 3.156 3.156c1.465 1.464 3.385 2.196 5.304 2.196s3.839-.732 5.304-2.196c2.929-2.93 2.929-7.678 0-10.607l-3.156-3.156c-2.93-2.928-7.678-2.928-10.607 0-2.93 2.929-2.93 7.677-.001 10.607z"/><path d="m30.156 186.274v4.463c0 4.143 3.357 7.5 7.5 7.5s7.5-3.357 7.5-7.5v-4.463c0-4.143-3.357-7.5-7.5-7.5s-7.5 3.358-7.5 7.5z"/><path d="m58.952 121.217-3.156 3.156c-2.929 2.93-2.929 7.678 0 10.607 1.465 1.464 3.385 2.196 5.304 2.196s3.839-.732 5.304-2.196l3.156-3.156c2.929-2.93 2.929-7.678 0-10.607-2.93-2.928-7.678-2.928-10.608 0z"/><path d="m487.927 114.627c-2.488-3.312-7.188-3.979-10.501-1.489-3.312 2.488-3.979 7.189-1.489 10.501 14.146 18.824 21.624 41.255 21.624 64.867 0 59.598-48.486 108.084-108.085 108.084s-108.085-48.486-108.085-108.084c0-59.599 48.486-108.085 108.085-108.085 23.825 0 46.421 7.604 65.344 21.991 3.297 2.507 8.003 1.865 10.51-1.432s1.866-8.003-1.432-10.51c-21.555-16.388-47.289-25.05-74.422-25.05-67.869 0-123.085 55.216-123.085 123.085v135.549c0 67.869 55.216 123.085 123.085 123.085s123.085-55.216 123.085-123.085c0 0 0-135.236 0-135.549 0-26.888-8.518-52.435-24.634-73.878zm-11.015 160.418c7.479-7.556 13.993-16.069 19.33-25.343-2.708 17.208-9.493 33.078-19.33 46.593zm-38.147 26.233c8.223-3.608 15.977-8.088 23.147-13.325v25.033c-6.957 6.293-14.732 11.696-23.147 16.026zm-41.789 10.077c9.239-.558 18.206-2.137 26.789-4.63v28.618c-8.51 2.854-17.49 4.672-26.789 5.313zm-41.789-4.631c8.583 2.493 17.55 4.072 26.789 4.63v29.301c-9.299-.641-18.279-2.459-26.789-5.313zm-38.148-18.771c7.17 5.237 14.925 9.717 23.147 13.325v27.734c-8.415-4.33-16.191-9.733-23.147-16.026zm-15-12.908v21.25c-9.836-13.515-16.621-29.385-19.33-46.593 5.337 9.274 11.851 17.787 19.33 25.343zm0 112.47c-9.836-13.515-16.621-29.385-19.329-46.593 5.336 9.274 11.85 17.787 19.329 25.343zm38.148 32.716c-8.415-4.33-16.191-9.733-23.147-16.026v-25.032c7.17 5.237 14.925 9.718 23.147 13.325zm41.789 11.644c-9.299-.641-18.279-2.459-26.789-5.313v-28.617c8.583 2.494 17.55 4.072 26.789 4.631zm41.789-5.313c-8.51 2.854-17.49 4.672-26.789 5.313v-29.3c9.239-.558 18.206-2.137 26.789-4.631zm38.147-22.357c-6.957 6.293-14.732 11.696-23.147 16.026v-27.733c8.223-3.608 15.977-8.088 23.147-13.325zm15-16.69v-21.25c7.479-7.556 13.993-16.069 19.329-25.343-2.708 17.208-9.493 33.078-19.329 46.593zm-87.436.296c-55.048 0-100.612-41.365-107.25-94.644 21.137 37.426 61.289 62.753 107.25 62.753s86.113-25.327 107.25-62.753c-6.639 53.279-52.203 94.644-107.25 94.644z"/><path d="m452.277 188.506c0-34.629-28.173-62.802-62.802-62.802s-62.801 28.173-62.801 62.802c0 8.78 1.791 17.294 5.323 25.304 1.672 3.79 6.097 5.505 9.889 3.836 3.79-1.671 5.508-6.099 3.836-9.889-2.686-6.091-4.048-12.568-4.048-19.251 0-26.358 21.443-47.802 47.801-47.802s47.802 21.443 47.802 47.802c0 26.357-21.443 47.801-47.802 47.801-9.084 0-17.931-2.57-25.585-7.433-3.495-2.223-8.13-1.188-10.352 2.309s-1.188 8.131 2.309 10.352c10.062 6.394 21.69 9.772 33.628 9.772 34.629 0 62.802-28.172 62.802-62.801z"/><path d="m389.476 220.371c17.57 0 31.865-14.295 31.865-31.865s-14.295-31.865-31.865-31.865-31.865 14.295-31.865 31.865 14.294 31.865 31.865 31.865zm0-48.73c9.3 0 16.865 7.565 16.865 16.865s-7.565 16.865-16.865 16.865-16.865-7.565-16.865-16.865 7.565-16.865 16.865-16.865z"/><path d="m391.707 110.577c4.143 0 7.5-3.357 7.5-7.5s-3.357-7.5-7.5-7.5h-4.463c-4.143 0-7.5 3.357-7.5 7.5s3.357 7.5 7.5 7.5z"/><path d="m327.49 137.177c1.919 0 3.839-.732 5.304-2.196l3.156-3.156c2.929-2.93 2.929-7.678 0-10.607-2.93-2.928-7.678-2.928-10.607 0l-3.156 3.156c-2.929 2.93-2.929 7.678 0 10.607 1.464 1.463 3.384 2.196 5.303 2.196z"/><path d="m296.547 186.274v4.463c0 4.143 3.357 7.5 7.5 7.5s7.5-3.357 7.5-7.5v-4.463c0-4.143-3.357-7.5-7.5-7.5s-7.5 3.358-7.5 7.5z"/><path d="m322.187 252.639 3.156 3.156c1.465 1.464 3.385 2.196 5.304 2.196s3.839-.732 5.304-2.196c2.929-2.93 2.929-7.678 0-10.607l-3.156-3.156c-2.93-2.928-7.678-2.928-10.607 0-2.93 2.929-2.93 7.677-.001 10.607z"/><path d="m387.244 266.435c-4.143 0-7.5 3.357-7.5 7.5s3.357 7.5 7.5 7.5h4.463c4.143 0 7.5-3.357 7.5-7.5s-3.357-7.5-7.5-7.5z"/><path d="m448.305 257.991c1.919 0 3.839-.732 5.304-2.196l3.156-3.156c2.929-2.93 2.929-7.678 0-10.607-2.93-2.928-7.678-2.928-10.607 0l-3.156 3.156c-2.929 2.93-2.929 7.678 0 10.607 1.464 1.464 3.384 2.196 5.303 2.196z"/><path d="m474.904 198.237c4.143 0 7.5-3.357 7.5-7.5v-4.463c0-4.143-3.357-7.5-7.5-7.5s-7.5 3.357-7.5 7.5v4.463c0 4.143 3.358 7.5 7.5 7.5z"/><path d="m456.765 124.373-3.156-3.156c-2.93-2.928-7.678-2.928-10.607 0-2.929 2.93-2.929 7.678 0 10.607l3.156 3.156c1.465 1.464 3.385 2.196 5.304 2.196s3.839-.732 5.304-2.196c2.927-2.929 2.927-7.677-.001-10.607z"/></g></g></svg>