<svg id="Capa_1" enable-background="new 0 0 513.509 513.509" height="512" viewBox="0 0 513.509 513.509" width="512" xmlns="http://www.w3.org/2000/svg"><g><g><g><circle cx="256.754" cy="256.754" fill="#f0d8ca" r="249.254"/><path d="m96.387 265.187c0-130.548 100.351-237.648 228.129-248.366-21.55-6.076-44.267-9.321-67.761-9.321-137.66 0-249.255 111.595-249.255 249.254s111.595 249.254 249.255 249.254c7.112 0 14.162-.298 21.123-.882-104.722-29.523-181.491-125.773-181.491-239.939z" fill="#e5bda7"/><circle cx="256.754" cy="256.754" fill="#dfae91" r="206.102"/><path d="m210.137 55.948c-91.373 21.127-159.484 103.012-159.484 200.806 0 84.122 50.404 156.461 122.653 188.495-47.395-45.377-76.919-109.271-76.919-180.062 0-87.698 45.286-164.814 113.75-209.239z" fill="#d79c7a"/><path d="m256.754 285.726c-2.275 0-4.523.118-6.744.324l-20.908 30.61 6.866 85.257 28.419 27.623c36.237-3.813 64.479-34.457 64.479-71.703 0-39.825-32.286-72.111-72.112-72.111z" fill="#fcf6ed"/><path d="m256.916 285.726c-.716 4.618-1.076 9.352-1.076 14.168 0 41.823 28.03 77.235 66.282 88.432 4.324-9.258 6.743-19.595 6.743-30.488.001-39.768-32.204-72.017-71.949-72.112z" fill="#fcf1de"/><g><path d="m411.167 265.187-70.294 17.276-57.018-15.599c-5.111 9.898-8.016 21.122-8.016 33.03 0 39.826 32.285 72.111 72.111 72.111s72.111-32.285 72.111-72.111c.002-12.584-3.228-24.41-8.894-34.707z" fill="#fcf6ed"/></g><path d="m347.951 227.782c-27.918 0-52.112 15.876-64.096 39.082l24.402 31.398h83.194l19.716-33.075c-12.266-22.293-35.973-37.405-63.216-37.405z" fill="#fcf6ed"/><path d="m347.951 227.782c-27.918 0-52.112 15.876-64.096 39.082l24.402 31.398h83.194l19.716-33.075c-12.266-22.293-35.973-37.405-63.216-37.405z" fill="#fcf6ed"/><path d="m401.827 251.965c-13.206-14.834-32.453-24.182-53.876-24.182-27.918 0-52.112 15.876-64.096 39.082l5.058 6.508c12.86 6.831 27.517 10.709 43.066 10.709 27.894-.001 52.943-12.467 69.848-32.117z" fill="#fcf1de"/><path d="m282.497 269.639c14.3 9.141 31.288 14.442 49.482 14.442 14.506 0 28.237-3.375 40.456-9.375l-31.561 7.757-57.018-15.599c-.471.911-.926 1.841-1.359 2.775z" fill="#fcf1de"/><circle cx="331.979" cy="191.97" fill="#fcf6ed" r="72.111"/><path d="m259.868 191.969c0 20.151 8.274 38.362 21.6 51.447 38.573-10.992 66.898-46.552 66.898-88.604 0-12.109-2.353-23.677-6.619-34.278-3.196-.433-6.452-.677-9.767-.677-39.827.001-72.112 32.287-72.112 72.112z" fill="#fcf1de"/><circle cx="256.254" cy="154.813" fill="#fcf6ed" r="72.111"/><path d="m190.592 124.952c-4.143 9.097-6.449 19.213-6.449 29.861 0 39.826 32.285 72.111 72.111 72.111.151 0 .312.001.462 0 .631-4.344.952-8.794.952-13.309 0-42.109-28.423-77.723-67.076-88.663z" fill="#fcf1de"/><circle cx="165.557" cy="213.615" fill="#fcf6ed" r="72.111"/><path d="m230.416 245.171c-14.725-9.986-32.481-15.838-51.573-15.838-27.181 0-51.645 11.856-68.521 30.642 13.228 15.75 33.058 25.751 55.236 25.751 28.511 0 53.155-16.54 64.858-40.555z" fill="#fcf1de"/><circle cx="178.842" cy="321.445" fill="#fcf6ed" r="72.111"/><path d="m164.643 357.837c0 12.524 2.517 24.47 7.064 35.364 2.348.231 4.727.354 7.135.354 39.826 0 72.111-32.285 72.111-72.111 0-20.194-8.311-38.439-21.686-51.53-37.407 11.721-64.624 46.703-64.624 87.923z" fill="#fcf1de"/></g><g><path d="m264.364 429.545c.008-.001.015-.001.023-.002v-.002c-.008 0-.015.002-.023.002z" fill="#fcf6ed"/></g><path d="m250.01 286.051c-36.662 3.402-65.367 34.236-65.367 71.787 0 39.826 32.285 72.111 72.111 72.111 2.579 0 5.124-.141 7.633-.405z" fill="#fcf6ed"/></g><g><path d="m491.83 153.352c-13.893-31.532-33.697-59.565-58.862-83.322-3.012-2.843-7.759-2.705-10.602.306-2.844 3.012-2.707 7.759.305 10.603 23.701 22.374 42.351 48.772 55.432 78.462 13.541 30.732 20.406 63.487 20.406 97.354 0 64.575-25.147 125.284-70.808 170.946-45.661 45.661-106.371 70.808-170.946 70.808-43.483 0-86.116-11.674-123.287-33.759-36.104-21.451-66.168-52.075-86.943-88.562-2.049-3.6-6.627-4.856-10.229-2.807-3.6 2.05-4.856 6.629-2.807 10.229 22.058 38.742 53.98 71.259 92.316 94.035 39.489 23.462 84.771 35.863 130.949 35.863 68.582 0 133.059-26.707 181.553-75.201 48.495-48.494 75.202-112.972 75.202-181.553 0-35.962-7.294-70.752-21.679-103.402z"/><path d="m32.93 348.244c-11.898-29.074-17.93-59.856-17.93-91.49 0-64.575 25.147-125.284 70.808-170.946 45.662-45.661 106.371-70.808 170.946-70.808 51.395 0 100.479 15.927 141.946 46.059 3.351 2.437 8.042 1.691 10.476-1.658 2.435-3.352 1.692-8.042-1.659-10.477-44.046-32.006-96.179-48.924-150.763-48.924-68.581 0-133.058 26.708-181.552 75.202-48.495 48.495-75.202 112.971-75.202 181.552 0 33.592 6.408 66.285 19.047 97.171 1.188 2.903 3.989 4.661 6.944 4.661.946 0 1.908-.181 2.837-.561 3.834-1.567 5.671-5.947 4.102-9.781z"/><path d="m414.67 389.402c3.265 2.549 7.978 1.968 10.527-1.295 29.543-37.833 45.159-83.254 45.159-131.353 0-57.056-22.218-110.695-62.562-151.039s-93.984-62.562-151.04-62.562-110.695 22.219-151.04 62.562-62.562 93.983-62.562 151.039 22.218 110.695 62.562 151.039 93.984 62.562 151.04 62.562c54.472 0 106.35-20.52 146.079-57.777 3.021-2.834 3.174-7.58.34-10.602-2.834-3.021-7.58-3.175-10.601-.34-36.938 34.641-85.172 53.719-135.818 53.719-109.51 0-198.602-89.092-198.602-198.602s89.093-198.6 198.602-198.6 198.602 89.092 198.602 198.602c0 44.722-14.517 86.95-41.981 122.12-2.549 3.264-1.969 7.978 1.295 10.527z"/><path d="m256.754 77.329c-26.407 0-50.782 13.246-65.203 35.435-2.257 3.473-1.271 8.118 2.202 10.375 3.472 2.26 8.118 1.272 10.375-2.201 11.643-17.914 31.315-28.608 52.625-28.608 34.59 0 62.731 28.142 62.731 62.731 0 31.825-23.808 58.603-55.378 62.287-4.114.479-7.06 4.204-6.58 8.318.445 3.819 3.686 6.632 7.44 6.632.29 0 .583-.018.879-.052 39.131-4.566 68.639-37.749 68.639-77.186.002-42.861-34.868-77.731-77.73-77.731z"/><path d="m256.754 436.18c26.407 0 50.782-13.246 65.203-35.435 2.257-3.473 1.271-8.118-2.202-10.375-3.472-2.259-8.118-1.272-10.375 2.201-11.643 17.914-31.315 28.608-52.625 28.608-34.59 0-62.731-28.142-62.731-62.731 0-31.826 23.808-58.604 55.378-62.287 4.114-.479 7.061-4.204 6.581-8.318-.48-4.115-4.21-7.063-8.319-6.58-39.131 4.565-68.64 37.748-68.64 77.186-.001 42.861 34.869 77.731 77.73 77.731z"/><path d="m297.508 242.661c-3.255-2.561-7.971-1.996-10.532 1.259-2.561 3.256-1.998 7.971 1.258 10.532 14.155 11.133 31.074 16.692 47.998 16.692 17.119 0 34.243-5.693 48.494-17.065 33.5-26.735 39.005-75.74 12.271-109.241-10.961-13.736-25.797-23.124-42.904-27.151-4.033-.946-8.07 1.551-9.019 5.582-.949 4.032 1.55 8.07 5.582 9.02 13.802 3.249 25.772 10.823 34.616 21.905 21.576 27.036 17.133 66.585-9.903 88.161-22.869 18.249-54.888 18.376-77.861.306z"/><path d="m159.416 395.823c.578.136 1.155.201 1.725.201 3.401-.001 6.481-2.33 7.294-5.783.949-4.032-1.55-8.07-5.582-9.02-13.802-3.249-25.772-10.823-34.616-21.905-21.576-27.036-17.133-66.585 9.903-88.161 22.87-18.252 54.89-18.376 77.864-.305 3.256 2.562 7.971 1.998 10.532-1.258 2.561-3.255 1.998-7.971-1.257-10.531-28.475-22.4-68.154-22.247-96.495.369-33.5 26.735-39.005 75.74-12.271 109.241 10.96 13.737 25.796 23.124 42.903 27.152z"/><path d="m372.914 375.372c19.663-6.669 35.551-20.595 44.74-39.214 12.103-24.525 10.573-52.972-4.093-76.095-2.218-3.498-6.852-4.537-10.351-2.315-3.498 2.218-4.535 6.853-2.316 10.351 11.84 18.666 13.077 41.628 3.309 61.421-7.415 15.026-20.238 26.266-36.106 31.646-15.867 5.382-32.881 4.263-47.909-3.153-28.842-14.233-42.229-47.695-31.139-77.836 1.431-3.888-.562-8.198-4.449-9.629-3.89-1.427-8.198.562-9.628 4.449-13.747 37.358 2.838 78.83 38.578 96.467 10.863 5.36 22.561 8.066 34.33 8.065 8.403 0 16.843-1.38 25.034-4.157z"/><path d="m140.595 138.137c-19.663 6.669-35.551 20.595-44.74 39.214-12.103 24.525-10.573 52.972 4.093 76.095 1.428 2.252 3.857 3.483 6.341 3.483 1.374 0 2.764-.377 4.01-1.168 3.498-2.218 4.535-6.853 2.316-10.351-11.84-18.666-13.077-41.628-3.309-61.421 7.415-15.026 20.238-26.266 36.106-31.646 15.867-5.381 32.882-4.264 47.909 3.153 28.842 14.233 42.229 47.696 31.139 77.837-1.431 3.888.562 8.198 4.449 9.629 3.889 1.426 8.199-.562 9.628-4.449 13.747-37.358-2.838-78.831-38.578-96.468-18.619-9.187-39.701-10.575-59.364-3.908z"/><path d="m238.958 132.132c-4.142 0-7.5 3.357-7.5 7.5s3.358 7.5 7.5 7.5h5.713c4.142 0 7.5-3.357 7.5-7.5s-3.358-7.5-7.5-7.5z"/><path d="m279.898 117.487h-5.236c-4.142 0-7.5 3.357-7.5 7.5s3.358 7.5 7.5 7.5h5.236c4.142 0 7.5-3.357 7.5-7.5s-3.357-7.5-7.5-7.5z"/><path d="m277.708 166.884c-4.142 0-7.5 3.357-7.5 7.5s3.358 7.5 7.5 7.5h5.047c4.142 0 7.5-3.357 7.5-7.5s-3.358-7.5-7.5-7.5z"/><path d="m367.016 175.045c4.142 0 7.5-3.357 7.5-7.5s-3.358-7.5-7.5-7.5h-4.761c-4.142 0-7.5 3.357-7.5 7.5s3.358 7.5 7.5 7.5z"/><path d="m345.641 201.536c0 4.143 3.358 7.5 7.5 7.5h6.936c4.142 0 7.5-3.357 7.5-7.5s-3.358-7.5-7.5-7.5h-6.936c-4.142 0-7.5 3.357-7.5 7.5z"/><path d="m333.374 223.256h-2.789c-4.142 0-7.5 3.357-7.5 7.5s3.358 7.5 7.5 7.5h2.789c4.142 0 7.5-3.357 7.5-7.5s-3.358-7.5-7.5-7.5z"/><path d="m323.429 306.445c-4.142 0-7.5 3.357-7.5 7.5s3.358 7.5 7.5 7.5h9.944c4.142 0 7.5-3.357 7.5-7.5s-3.358-7.5-7.5-7.5z"/><path d="m383.062 296.008c-4.142 0-7.5 3.357-7.5 7.5s3.358 7.5 7.5 7.5h4.174c4.142 0 7.5-3.357 7.5-7.5s-3.358-7.5-7.5-7.5z"/><path d="m356.609 325.825c-4.142 0-7.5 3.357-7.5 7.5s3.358 7.5 7.5 7.5h3.468c4.142 0 7.5-3.357 7.5-7.5s-3.358-7.5-7.5-7.5z"/><path d="m228.814 335.72c-4.142 0-7.5 3.357-7.5 7.5s3.358 7.5 7.5 7.5h6.987c4.142 0 7.5-3.357 7.5-7.5s-3.358-7.5-7.5-7.5z"/><path d="m258.939 370.824h-5.369c-4.142 0-7.5 3.357-7.5 7.5s3.358 7.5 7.5 7.5h5.369c4.142 0 7.5-3.357 7.5-7.5s-3.358-7.5-7.5-7.5z"/><path d="m152.89 303.508c0-4.143-3.358-7.5-7.5-7.5h-4.956c-4.142 0-7.5 3.357-7.5 7.5s3.358 7.5 7.5 7.5h4.956c4.142 0 7.5-3.357 7.5-7.5z"/><path d="m154.062 340.825h4.543c4.142 0 7.5-3.357 7.5-7.5s-3.358-7.5-7.5-7.5h-4.543c-4.142 0-7.5 3.357-7.5 7.5s3.358 7.5 7.5 7.5z"/><path d="m178.842 296.212c4.142 0 7.5-3.357 7.5-7.5s-3.358-7.5-7.5-7.5h-4.956c-4.142 0-7.5 3.357-7.5 7.5s3.358 7.5 7.5 7.5z"/><path d="m137.439 186.767c-4.142 0-7.5 3.357-7.5 7.5s3.358 7.5 7.5 7.5h5.472c4.142 0 7.5-3.357 7.5-7.5s-3.358-7.5-7.5-7.5z"/><path d="m178.842 172.607h-4.956c-4.142 0-7.5 3.357-7.5 7.5s3.358 7.5 7.5 7.5h4.956c4.142 0 7.5-3.357 7.5-7.5s-3.358-7.5-7.5-7.5z"/><path d="m192.312 223.458h6.951c4.142 0 7.5-3.357 7.5-7.5s-3.358-7.5-7.5-7.5h-6.951c-4.142 0-7.5 3.357-7.5 7.5s3.357 7.5 7.5 7.5z"/></g></g></svg>