<svg id="Filled" height="512" viewBox="0 0 512 512" width="512" xmlns="http://www.w3.org/2000/svg"><circle cx="176" cy="64" fill="#fb82b1" r="40"/><circle cx="336" cy="64" fill="#fb82b1" r="40"/><rect fill="#fb82b1" height="272" rx="80" width="240" x="136" y="216"/><g fill="#fba0c4"><rect height="224" rx="80" width="224" x="144" y="48"/><rect height="72" rx="16" width="72" x="128" y="304"/><rect height="72" rx="16" width="72" x="128" y="416"/><rect height="72" rx="16" width="72" x="312" y="304"/><rect height="72" rx="16" width="72" x="312" y="416"/></g><circle cx="256" cy="176" fill="#fb82b1" r="16"/><path d="m120 432v40a24.027 24.027 0 0 0 24 24h40a23.853 23.853 0 0 0 10.813-2.584 88.254 88.254 0 0 0 21.187 2.584h80a88.254 88.254 0 0 0 21.187-2.584 23.853 23.853 0 0 0 10.813 2.584h40a24.027 24.027 0 0 0 24-24v-40a23.945 23.945 0 0 0 -8.223-18.062c.132-1.976.223-3.96.223-5.938v-30.131a23.943 23.943 0 0 0 8-17.869v-40a23.943 23.943 0 0 0 -8-17.869v-6.131a87.428 87.428 0 0 0 -21.358-57.443 87.47 87.47 0 0 0 13.358-46.557v-64a87.572 87.572 0 0 0 -5.5-30.63 47.54 47.54 0 0 0 13.5-33.37 48 48 0 0 0 -89.706-23.773c-2.08-.147-4.178-.227-6.294-.227h-64c-2.116 0-4.214.08-6.294.227a48 48 0 1 0 -76.206 57.143 87.572 87.572 0 0 0 -5.5 30.63v64a87.467 87.467 0 0 0 13.358 46.556 87.225 87.225 0 0 0 -21.358 57.444v6.131a23.943 23.943 0 0 0 -8 17.869v40a23.943 23.943 0 0 0 8 17.869v30.131c0 1.978.091 3.962.223 5.938a23.945 23.945 0 0 0 -8.223 18.062zm216-400a32.029 32.029 0 0 1 26.745 49.608 88.356 88.356 0 0 0 -51.1-38.376 32.012 32.012 0 0 1 24.355-11.232zm-112 24h64a72.081 72.081 0 0 1 72 72v64a72.081 72.081 0 0 1 -72 72h-64a72.081 72.081 0 0 1 -72-72v-64a72.081 72.081 0 0 1 72-72zm-74.745 25.608a32.013 32.013 0 0 1 51.1-38.376 88.356 88.356 0 0 0 -51.1 38.376zm-13.255 350.392a8.009 8.009 0 0 1 8-8 8 8 0 0 0 0-16v-24h40a24.027 24.027 0 0 0 24-24v-40a24.027 24.027 0 0 0 -24-24 8 8 0 0 0 0 16 8.009 8.009 0 0 1 8 8v40a8.009 8.009 0 0 1 -8 8h-40a8.009 8.009 0 0 1 -8-8v-40a8.009 8.009 0 0 1 8-8 8 8 0 0 0 0-16 71.366 71.366 0 0 1 15.324-44.393 87.779 87.779 0 0 0 64.676 28.393h64a87.777 87.777 0 0 0 64.675-28.393 71.518 71.518 0 0 1 15.325 44.393 8 8 0 0 0 0 16 8.009 8.009 0 0 1 8 8v40a8.009 8.009 0 0 1 -8 8h-40a8.009 8.009 0 0 1 -8-8v-40a8.009 8.009 0 0 1 8-8 8 8 0 0 0 0-16 24.027 24.027 0 0 0 -24 24v40a24.027 24.027 0 0 0 24 24h40v24a8 8 0 0 0 0 16 8.009 8.009 0 0 1 8 8v40a8.009 8.009 0 0 1 -8 8h-40a8.009 8.009 0 0 1 -8-8v-40a8.009 8.009 0 0 1 8-8 8 8 0 0 0 0-16 24.027 24.027 0 0 0 -24 24v40a23.9 23.9 0 0 0 1.176 7.409c-3.031.386-95.321.386-98.352 0a23.9 23.9 0 0 0 1.176-7.409v-40a24.027 24.027 0 0 0 -24-24 8 8 0 0 0 0 16 8.009 8.009 0 0 1 8 8v40a8.009 8.009 0 0 1 -8 8h-40a8.009 8.009 0 0 1 -8-8z"/><path d="m246.767 198.15a16.023 16.023 0 0 1 -14.767 9.85c-3.936 0-6.469-1.347-10.039-5.335a8 8 0 0 0 -11.922 10.67c4.444 4.965 10.961 10.665 21.961 10.665a31.923 31.923 0 0 0 24-10.868 31.923 31.923 0 0 0 24 10.868c9.071 0 16.521-5.729 21.335-10.039a8 8 0 1 0 -10.67-11.922c-1.648 1.475-6.66 5.961-10.665 5.961a16.023 16.023 0 0 1 -14.767-9.85 24 24 0 1 0 -18.466 0zm9.233-30.15a8 8 0 1 1 -8 8 8.009 8.009 0 0 1 8-8z"/><circle cx="216" cy="120" r="16"/><circle cx="296" cy="120" r="16"/></svg>