<svg id="Capa_1" enable-background="new 0 0 511.672 511.672" height="512" viewBox="0 0 511.672 511.672" width="512" xmlns="http://www.w3.org/2000/svg"><g><g><path d="m366.02 155.398h-192.926l-55.768 39.92v279.62c0 16.14 13.09 29.23 29.24 29.23h218.54c16.15 0 29.24-13.09 29.24-29.23v-242.28z" fill="#f7d8a4"/><g><path d="m280.446 22.617h63.925v101.923h-63.925z" fill="#fcf6ed"/></g><g><path d="m344.371 52.734v-30.117h-43.237-20.688v30.117 71.806h63.925v-2.001h-43.237v-52.271c0-9.683 7.85-17.533 17.533-17.533h25.704z" fill="#fcf1de"/><path d="m344.371 37.734h-63.925c-4.596 0-8.321-3.726-8.321-8.321v-13.591c0-4.596 3.726-8.321 8.321-8.321h63.925c4.596 0 8.321 3.726 8.321 8.321v13.591c.001 4.596-3.725 8.321-8.321 8.321z" fill="#fcf6ed"/><g id="XMLID_268_"><g><path d="m394.346 100.818v131.84c-38.24 4.58-77.29-3.29-111.11-22.99l-6.89-4.01c-48.74-28.39-107.66-31.91-159.02-10.34v-94.5c0-16.15 13.09-29.24 29.24-29.24h218.54c16.15 0 29.24 13.09 29.24 29.24z" fill="#fcf6ed"/></g></g><path d="m394.346 465.792v9.146c0 16.143-13.087 29.23-29.23 29.23h-218.55c-16.149 0-29.24-13.091-29.24-29.24v-279.61l55.768-39.92h6.326v258.833c0 28.683 23.281 51.92 51.964 51.866z" fill="#f5cd8b"/><path d="m179.42 71.578h-32.854c-16.15 0-29.24 13.09-29.24 29.24v94.5c19.906-8.36 40.949-12.934 62.094-13.769z" fill="#fcf1de"/><path d="m282.215 318.449h-26.379v-11.807c0-14.009 11.357-25.366 25.366-25.366h20.234c3.394 0 6.145 2.751 6.145 6.145v5.663c0 14.008-11.357 25.365-25.366 25.365z" fill="#c5e97d"/><circle cx="255.836" cy="382.921" fill="#f5cd8b" r="64.472"/><path d="m225.895 380.328c0-27.905 17.732-51.665 42.54-60.64-4.076-.808-8.287-1.24-12.6-1.24-35.607 0-64.472 28.865-64.472 64.472s28.865 64.472 64.472 64.472c7.701 0 15.085-1.355 21.932-3.833-29.573-5.858-51.872-31.936-51.872-63.231z" fill="#f4c67b"/></g></g><g><path d="m394.345 138.581c4.142 0 7.5-3.357 7.5-7.5v-30.263c0-20.258-16.481-36.738-36.739-36.738h-13.234v-20.741c4.95-2.677 8.321-7.914 8.321-13.926v-13.592c-.001-8.723-7.098-15.821-15.822-15.821h-63.925c-8.724 0-15.821 7.098-15.821 15.821v13.592c0 6.011 3.371 11.249 8.321 13.926v20.741h-126.38c-20.258 0-36.739 16.48-36.739 36.738v374.115c0 20.258 16.481 36.738 36.739 36.738h218.539c20.258 0 36.739-16.48 36.739-36.738v-311.89c0-4.143-3.358-7.5-7.5-7.5s-7.5 3.357-7.5 7.5v62.825c-34.616 2.764-69.824-5.198-99.837-22.68l-6.888-4.011c-25.195-14.675-53.915-23.309-83.056-24.969-4.134-.219-7.679 2.926-7.914 7.062s2.926 7.679 7.062 7.915c26.792 1.525 53.197 9.463 76.359 22.954l6.888 4.011c28.415 16.551 61.104 25.254 93.927 25.254 4.487 0 8.977-.183 13.46-.51v234.041c0 11.986-9.752 21.738-21.739 21.738h-218.54c-11.987 0-21.739-9.752-21.739-21.738v-274.539c13.077-5.048 26.762-8.485 40.762-10.206 4.111-.506 7.035-4.248 6.529-8.359-.505-4.11-4.248-7.029-8.358-6.529-13.308 1.636-26.355 4.708-38.933 9.119v-83.603c0-11.986 9.752-21.738 21.739-21.738h218.539c11.987 0 21.739 9.752 21.739 21.738v30.263c.001 4.143 3.359 7.5 7.501 7.5zm-114.72-122.76c0-.453.369-.821.821-.821h63.925c.453 0 .821.368.821.821v13.592c0 .453-.369.821-.821.821h-63.925c-.453 0-.821-.368-.821-.821zm8.321 29.413h48.925v18.846h-48.925z"/><path d="m255.836 265.631c-4.142 0-7.5 3.357-7.5 7.5v33.511 11.808c0 4.143 3.358 7.5 7.5 7.5h26.379c18.122 0 32.866-14.744 32.866-32.866v-5.663c0-7.523-6.121-13.645-13.645-13.645h-20.234c-6.585 0-12.719 1.954-17.866 5.302v-5.947c0-4.143-3.358-7.5-7.5-7.5zm25.366 23.144h18.878v4.308c0 9.852-8.015 17.866-17.866 17.866h-18.879v-4.308c.001-9.851 8.016-17.866 17.867-17.866z"/></g><path d="m319.872 390.326c.278-2.431.436-4.899.436-7.404 0-35.607-28.865-64.472-64.472-64.472s-64.472 28.865-64.472 64.472 28.865 64.472 64.472 64.472c21.581 0 40.67-10.614 52.373-26.895" style="fill:none;stroke:#000;stroke-width:15;stroke-linecap:round;stroke-linejoin:round;stroke-miterlimit:10"/></g></svg>