<svg id="Capa_1" enable-background="new 0 0 511.944 511.944" height="512" viewBox="0 0 511.944 511.944" width="512" xmlns="http://www.w3.org/2000/svg"><g><g><path d="m446.332 405.167h-16.19l-41.216 11.937-17.714-11.937h-58.94s-35.16 15.895-36.301 15.514c-1.141-.38-22.629-15.514-22.629-15.514h-58.94l-35.053 12.022-23.876-12.022h-69.86c-10.52 0-19.04 8.53-19.04 19.05v61.18c0 10.52 8.52 19.04 19.04 19.04h10.92l40.538-26.514 18.402 26.514h58.93l33.292-17.992 25.648 17.992h58.93l37.882-15.449 21.058 15.449h75.12c10.52 0 19.04-8.52 19.04-19.04v-61.18c-.001-10.52-8.521-19.05-19.041-19.05z" fill="#f7d8a4"/><circle cx="255.972" cy="179.243" fill="#e5827f" r="50.723"/><path d="m230.548 176.588c0-21.755 13.7-40.305 32.94-47.51-2.453-.365-4.962-.558-7.516-.558-28.013 0-50.723 22.709-50.723 50.723 0 28.013 22.709 50.722 50.723 50.722 6.258 0 12.248-1.14 17.782-3.213-24.448-3.632-43.206-24.705-43.206-50.164z" fill="#de6a66"/><g><g id="XMLID_271_"><g fill="#f5cd8b"><path d="m371.212 405.168h58.93c-26.52 28.52-46.61 62.39-58.93 99.27h-58.94c12.32-36.881 32.41-70.75 58.94-99.27z"/><path d="m115.328 477.916c-14.538 0-26.324-11.785-26.324-26.323v-46.425h-23.392c-10.52 0-19.04 8.53-19.04 19.05v61.18c0 10.52 8.52 19.04 19.04 19.04h10.92l40.538-26.514 18.402 26.514h58.93l33.292-17.992 25.648 17.992h58.93l37.882-15.449 21.058 15.449h75.12c10.52 0 19.04-8.52 19.04-19.04v-7.481h-350.044z"/><path d="m253.342 405.168h58.93c-26.52 28.52-46.61 62.39-58.93 99.27h-58.94c12.32-36.881 32.41-70.75 58.94-99.27z"/><path d="m135.472 405.168h58.93c-26.52 28.52-46.61 62.39-58.93 99.27h-58.94c12.32-36.881 32.41-70.75 58.94-99.27z"/></g></g><g id="XMLID_270_"><g><path d="m421.552 368.608v16.87c0 10.88-8.81 19.69-19.69 19.69h-291.78c-10.88 0-19.69-8.81-19.69-19.69v-16.87c0-10.87 8.81-19.69 19.69-19.69h291.78c10.88 0 19.69 8.819 19.69 19.69z" fill="#fbe88c"/></g></g><path d="m141.777 383.624c-10.88 0-19.69-8.81-19.69-19.69v-15.017h-12.005c-10.88 0-19.69 8.82-19.69 19.69v16.87c0 10.88 8.81 19.69 19.69 19.69h291.78c10.88 0 19.69-8.81 19.69-19.69v-1.854h-279.775z" fill="#fbe372"/><path d="m303.758 219.792-19.038 10.072-16.487-31.163c-11.707-22.128-3.26-49.556 18.868-61.264l15.88-8.402c1.744-.923 3.905-.257 4.828 1.487l14.817 28.005c11.708 22.129 3.26 49.558-18.868 61.265z" fill="#b1e254"/><path d="m309.205 230.573h-21.538v-35.255c0-25.034 20.294-45.328 45.328-45.328h17.966c1.973 0 3.572 1.599 3.572 3.572v31.683c0 25.034-20.294 45.328-45.328 45.328z" fill="#c5e97d"/><g id="XMLID_269_"><g><path d="m354.853 297.924c14.502 0 26.259 11.942 26.259 26.672s-11.757 26.661-26.259 26.661h-197.761c-14.502 0-26.259-11.932-26.259-26.661 0-14.73 11.757-26.672 26.259-26.672h13.14c-10.551 0-19.096-8.69-19.096-19.407s8.545-19.407 19.096-19.407h31.238c-8.919 0-16.144-7.338-16.144-16.409 0-9.06 7.225-16.398 16.144-16.398h109.006c8.919 0 16.144 7.338 16.144 16.398 0 9.07-7.225 16.409-16.144 16.409h31.238c10.551 0 19.096 8.69 19.096 19.407s-8.545 19.407-19.096 19.407z" fill="#fcf6ed"/></g></g><g><path d="m208.784 336.124c-12.964 0-23.475-9.326-23.475-20.838 0-10.65 8.996-19.433 20.607-20.69 1.535-.166 2.723-1.413 2.723-2.956v-.214c0-.777-.302-1.526-.853-2.074-2.689-2.679-4.327-6.208-4.327-10.081 0-8.376 7.639-15.168 17.072-15.168h12.688c2.082 0 3.77-1.688 3.77-3.77 0-.775-.236-1.534-.69-2.163-1.435-1.99-2.274-4.35-2.274-6.891 0-7.081 6.459-12.816 14.432-12.816l77.617-.001c-1.841-7-8.126-12.158-15.6-12.158h-109.005c-8.919 0-16.144 7.338-16.144 16.398 0 9.07 7.225 16.408 16.144 16.408h-31.238c-10.551 0-19.096 8.69-19.096 19.407s8.545 19.407 19.096 19.407h-13.14c-14.501 0-26.259 11.942-26.259 26.672 0 14.729 11.757 26.661 26.259 26.661h197.761c10.436 0 19.449-6.179 23.684-15.133z" fill="#fcf1de"/></g></g><g fill="#f4c67b"><path d="m145.911 477.916h-30.583c-9.419 0-17.678-4.951-22.33-12.388-6.469 12.5-11.987 25.502-16.466 38.91h58.94c3.018-9.034 6.508-17.884 10.439-26.522z"/><path d="m263.781 477.916h-58.94c-3.931 8.638-7.421 17.488-10.439 26.521h58.94c3.018-9.033 6.508-17.883 10.439-26.521z"/><path d="m312.272 504.438h58.94c3.018-9.034 6.508-17.883 10.438-26.521h-58.94c-3.93 8.637-7.42 17.487-10.438 26.521z"/></g></g><path d="m465.377 449.426c4.143 0 7.5-3.357 7.5-7.5v-17.711c0-14.639-11.91-26.549-26.55-26.549h-20.172c1.848-3.668 2.895-7.805 2.895-12.185v-16.876c0-14.989-12.194-27.185-27.184-27.185h-23.27c3.317-5.12 5.252-11.215 5.252-17.757 0-14.562-9.551-26.936-22.719-31.185 2.038-3.696 3.197-7.939 3.197-12.45 0-14.269-11.608-25.877-25.878-25.877h-8.46c.936-2.504 1.447-5.214 1.447-8.04 0-4.668-1.4-9.015-3.796-12.648.029.001.058.004.087.005 1.396.063 2.619.388 3.672.904 8.752-3.458 16.512-9.243 22.462-16.995 2.522-3.286 1.903-7.994-1.383-10.516-3.287-2.525-7.995-1.901-10.516 1.383-7.232 9.423-18.175 14.827-30.022 14.827h-3.545-10.493v-27.755c0-20.858 16.97-37.828 37.828-37.828h14.037v24.717c0 4.143 3.357 7.5 7.5 7.5s7.5-3.357 7.5-7.5v-28.645c0-6.105-4.967-11.072-11.072-11.072h-17.965c-3.672 0-7.258.379-10.721 1.095l-9.876-16.975c-3.07-5.276-9.861-7.073-15.138-4.001l-12.255 7.129c-7.089-4.575-14.969-7.515-23.271-8.709v-113.527c0-4.143-3.357-7.5-7.5-7.5-4.142 0-7.5 3.357-7.5 7.5v113.272c-15.521 1.703-29.682 9.467-39.56 21.893-2.578 3.242-2.039 7.96 1.203 10.538 1.38 1.097 3.027 1.629 4.663 1.629 2.208 0 4.395-.971 5.875-2.833 8.38-10.541 20.889-16.587 34.319-16.587 6.411 0 12.591 1.368 18.269 3.989-16.999 16.505-21.308 43.089-8.869 64.47l8.855 15.22c-5.692 2.614-11.893 3.981-18.256 3.981-24.168 0-43.83-19.662-43.83-43.83 0-.433.017-.862.033-1.292l.009-.247c.145-4.14-3.093-7.613-7.233-7.758-4.112-.172-7.613 3.093-7.758 7.232l-.008.233c-.021.608-.042 1.218-.042 1.831 0 17.398 7.598 33.05 19.642 43.83h-13.237c-12.704 0-23.04 10.336-23.04 23.04 0 2.826.512 5.536 1.447 8.04h-8.46c-14.269 0-25.877 11.608-25.877 25.877 0 4.511 1.16 8.754 3.197 12.45-13.167 4.249-22.719 16.622-22.719 31.185 0 6.542 1.935 12.637 5.252 17.757h-23.269c-14.989 0-27.184 12.195-27.184 27.185v16.876c0 4.379 1.047 8.517 2.895 12.185h-20.168c-14.64 0-26.55 11.91-26.55 26.549v61.178c0 14.639 11.91 26.549 26.55 26.549h10.882c.012 0 .024.003.036.003.013 0 .025-.003.037-.003h58.861c.012 0 .024.003.036.003.013 0 .025-.003.037-.003h58.861c.012 0 .024.003.036.003.013 0 .025-.003.037-.003h58.861c.012 0 .024.003.036.003.013 0 .025-.003.037-.003h58.861c.012 0 .024.003.036.003.013 0 .025-.003.037-.003h58.861c.012 0 .024.003.036.003.013 0 .025-.003.037-.003h75.081c14.64 0 26.55-11.91 26.55-26.549v-11.504c0-4.143-3.357-7.5-7.5-7.5s-7.5 3.357-7.5 7.5v11.504c0 6.368-5.182 11.549-11.55 11.549h-64.463c11.787-31.201 29.11-59.496 51.607-84.275h12.861c6.368 0 11.55 5.181 11.55 11.549v17.711c-.001 4.141 3.357 7.499 7.499 7.499zm-51.327-80.821v16.876c0 6.719-5.466 12.185-12.184 12.185h-47.359v-41.245h47.359c6.718 0 12.184 5.466 12.184 12.184zm-150.059 128.336c11.786-31.201 29.108-59.496 51.606-84.275h39.088c-20.759 25.139-36.771 53.403-47.737 84.275zm-58.935 0c11.786-31.201 29.108-59.496 51.606-84.275h39.088c-20.759 25.139-36.771 53.403-47.738 84.275zm-58.935 0c11.786-31.201 29.109-59.496 51.607-84.275h39.088c-20.759 25.139-36.771 53.403-47.738 84.275zm-58.935 0c11.786-31.201 29.108-59.496 51.606-84.275h39.088c-20.758 25.139-36.771 53.403-47.738 84.275zm176.286-99.275v-41.244h76.035v41.244zm-91.035-41.244h76.035v41.244h-76.035zm119.574-211.815 12.134-7.059 6.552 11.261c-16.534 8.936-27.794 26.43-27.794 46.507v8.859l-4.566-7.849c-10.488-18.027-4.354-41.228 13.674-51.719zm-148.916 179.057c0-9.792 7.966-17.758 17.758-17.758h149.836c4.143 0 7.5-3.357 7.5-7.5s-3.357-7.5-7.5-7.5h-137.195c-5.998 0-10.877-4.879-10.877-10.877s4.879-10.877 10.877-10.877h107.777c4.143 0 7.5-3.357 7.5-7.5s-3.357-7.5-7.5-7.5h-77.724c-4.433 0-8.04-3.606-8.04-8.04s3.606-8.04 8.04-8.04h104.85c4.434 0 8.04 3.606 8.04 8.04s-3.606 8.04-8.04 8.04c-4.143 0-7.5 3.357-7.5 7.5s3.357 7.5 7.5 7.5h30.053c5.998 0 10.878 4.879 10.878 10.877s-4.88 10.877-10.878 10.877c-4.143 0-7.5 3.357-7.5 7.5s3.357 7.5 7.5 7.5h12.642c9.792 0 17.758 7.966 17.758 17.758 0 9.785-7.956 17.746-17.739 17.757h-190.277c-9.783-.011-17.739-7.972-17.739-17.757zm-45.201 61.817v-16.876c0-6.719 5.466-12.185 12.184-12.185h47.359v41.245h-47.359c-6.718.001-12.184-5.465-12.184-12.184zm-43.827 99.912v-61.178c0-6.368 5.181-11.549 11.55-11.549h53.329c-20.758 25.139-36.771 53.403-47.737 84.275h-5.591c-6.37 0-11.551-5.18-11.551-11.548zm311.815 11.548h-42.957c11.786-31.201 29.108-59.496 51.606-84.275h39.089c-20.758 25.138-36.77 53.402-47.738 84.275z"/></g></svg>