<svg id="Capa_1" enable-background="new 0 0 508.764 508.764" height="512" viewBox="0 0 508.764 508.764" width="512" xmlns="http://www.w3.org/2000/svg"><g><g><g><path d="m457.557 326.896c7.947 34.709-18.425 67.802-54.032 67.802h-299.286c-35.607 0-61.979-33.092-54.032-67.802l10.294-66.91 184.594-80.408 207.75 113.03z" fill="#fcf6ed"/></g><g><g><path d="m457.557 326.896-4.713-34.288-207.75-113.03-184.594 80.408-10.294 66.91c-1.535 6.704-1.792 13.358-.948 19.715 2.087.194 4.207.285 6.327.285 9.684-.001 19.089-2.026 27.954-6.022l67.875-30.59c.1-.045.199-.09.299-.134 8.354-3.752 17.793 2.448 17.793 11.607v49.362c0 8.583 2.31 16.633 6.324 23.58h138.529c4.014-6.947 6.324-14.997 6.324-23.58v-56.74c0-8.721 8.603-14.849 16.841-11.987 6.722 2.335 13.338 4.968 19.828 7.893l67.874 30.59c8.866 3.996 18.271 6.022 27.955 6.022 1.777 0 3.555-.06 5.31-.197.856-6.383.608-13.07-.934-19.804z" fill="#fcf1de"/><path d="m297.013 123.983c59.063 4.489 114.236 32.197 153.141 77.471l39.526 45.996c13.186 15.344 15.359 37.299 5.438 54.931-12.212 21.702-38.972 30.493-61.675 20.26l-67.874-30.591c-20.74-9.348-42.558-15.906-64.886-19.579l-61.184-1.213-49.992 4.962c-15.855 3.807-31.364 9.094-46.311 15.831l-67.874 30.591c-22.703 10.232-49.462 1.442-61.675-20.26-9.922-17.632-7.748-39.587 5.437-54.931l39.526-45.996c34.521-40.171 81.848-66.518 133.336-75.084l46.874-2.387h58.193z" fill="#ea9a98"/></g><path d="m319.674 126.871c-7.389-1.318-15.12-2.765-22.661-3.338h-27.472v13.153l-21.243.612v-13.316h-9.478l-46.874 2.387c-51.488 8.566-98.815 34.913-133.336 75.084l-39.526 45.996c-13.186 15.344-15.359 37.299-5.437 54.931 7.247 12.878 19.617 21.209 33.222 23.717-.509-.792-1.004-1.596-1.471-2.426-9.922-17.632-7.748-39.587 5.437-54.931l39.526-45.996c16.028-18.652 34.82-34.318 55.506-46.61 10.428-6.197 23.64 1.318 23.64 13.449v91.854c6.595-2.149 13.264-4.05 20-5.668l49.992-4.961 61.184 1.213c6.719 1.105 13.39 2.477 20 4.102v-138.927c0-3.721-.192-6.849-1.009-10.325z" fill="#e5827f"/></g><path d="m273.385 398.416h-56.58c-15.076 0-27.298-12.222-27.298-27.298v-233.472c0-15.076 12.222-27.298 27.298-27.298h56.58c15.076 0 27.298 12.222 27.298 27.298v233.472c0 15.076-12.222 27.298-27.298 27.298z" fill="#a59ca6"/><path d="m282.522 369.144c-32.183 0-58.273-26.09-58.273-58.273v-200.523h-7.444c-15.076 0-27.298 12.222-27.298 27.298v233.471c0 15.076 12.222 27.298 27.298 27.298h56.58c15.076 0 27.298-12.222 27.298-27.298v-1.974h-18.161z" fill="#8f8390"/></g><g><path d="m495.368 242.561-39.526-45.996c-6.089-7.086-12.698-13.889-19.642-20.22-3.061-2.789-7.805-2.57-10.595.49s-2.571 7.805.49 10.595c5.736 5.23 11.205 10.817 16.333 16.611 1.381 36.106-5.812 72.203-20.879 105.011l-52.898-23.84c-1.49-.671-2.987-1.325-4.488-1.969 9.161-47.248 4.132-96.438-14.24-140.786 18.215 6.201 35.611 14.81 51.648 25.665 1.289.872 2.75 1.29 4.197 1.29 2.405 0 4.768-1.155 6.218-3.297 2.322-3.431 1.423-8.094-2.007-10.415-32.361-21.904-69.884-35.312-108.739-38.889-6.353-8.472-16.474-13.963-27.855-13.963h-56.58c-12.595 0-23.648 6.726-29.758 16.775-52.072 9.53-99.586 36.749-134.126 76.942l-39.526 45.996c-15.186 17.673-17.712 43.19-6.285 63.497 6.828 12.134 17.872 21.208 31.099 25.553 1.147.377 2.303.705 3.464 1.005-1.774 16.395 2.914 32.774 13.351 45.871 12.008 15.068 29.946 23.711 49.214 23.711h96.945c4.701 2.373 10.006 3.718 15.621 3.718h56.58c5.616 0 10.92-1.345 15.621-3.718h114.52c19.268 0 37.206-8.643 49.214-23.711 10.384-13.03 15.069-29.309 13.369-45.619 1.492-.357 2.976-.774 4.446-1.257 13.227-4.345 24.271-13.419 31.099-25.553 11.428-20.306 8.902-45.825-6.285-63.497zm-164.304-105.589c20.889 43.617 27.506 93.107 18.89 140.659-13.575-4.923-27.547-8.75-41.771-11.438v-128.547c0-1.687-.127-3.344-.36-4.968 7.829 1.016 15.589 2.439 23.241 4.294zm-149.058.674v72.375c-14.455-20.963-32.157-39.672-52.295-55.213 16.491-8.472 34.079-14.84 52.339-18.874-.028.567-.044 1.138-.044 1.712zm-161.824 161.057c-8.344-14.828-6.499-33.461 4.59-46.366l21.307-24.794c8.394 4.575 16.591 9.723 24.427 15.364 1.326.954 2.858 1.414 4.375 1.414 2.331 0 4.628-1.084 6.093-3.119 2.42-3.362 1.656-8.049-1.705-10.469-7.467-5.375-15.243-10.335-23.205-14.811l8.232-9.58c14.764-17.18 32.067-31.819 51.148-43.512 27.364 19.914 50.283 45.964 66.561 75.691v31.863c-14.355 3.784-28.423 8.757-41.893 14.829l-4.51 2.033c-9.095-12.721-19.439-24.609-30.818-35.402-3.005-2.851-7.752-2.726-10.603.28-2.85 3.005-2.725 7.752.281 10.603 9.957 9.444 19.055 19.791 27.16 30.82l-49.382 22.255c-19.297 8.7-41.677 1.348-52.058-17.099zm46.573 70.436c-7.913-9.931-11.49-22.338-10.191-34.769 7.466-.134 14.891-1.761 21.839-4.893l67.874-30.59c11.518-5.193 23.502-9.522 35.729-12.948v64.239h-7.509c-4.142 0-7.5 3.357-7.5 7.5s3.358 7.5 7.5 7.5h7.509v5.938c0 5.799 1.434 11.267 3.953 16.08h-81.721c-14.675.002-28.337-6.58-37.483-18.057zm374.254 0c-9.146 11.477-22.808 18.059-37.483 18.059h-99.296c2.253-4.305 3.639-9.132 3.905-14.253.11.005.219.017.331.017h8.338c4.142 0 7.5-3.357 7.5-7.5s-3.358-7.5-7.5-7.5h-8.338c-.095 0-.188.011-.282.014v-15.098c0-4.143-3.358-7.5-7.5-7.5s-7.5 3.357-7.5 7.5v28.24c0 10.917-8.881 19.798-19.798 19.798h-56.58c-10.917 0-19.798-8.881-19.798-19.798v-233.472c0-10.917 8.881-19.798 19.798-19.798h56.58c10.917 0 19.798 8.881 19.798 19.798v173.27c0 4.143 3.358 7.5 7.5 7.5s7.5-3.357 7.5-7.5v-29.448c18.71 3.752 36.94 9.594 54.305 17.421l67.874 30.59c6.639 2.992 13.71 4.609 20.838 4.866 1.304 12.438-2.273 24.856-10.192 34.794zm47.573-70.436c-10.38 18.446-32.757 25.8-52.058 17.1l-1.314-.592c13.52-29.474 21.073-61.431 22.216-93.789l26.566 30.915c11.089 12.904 12.933 31.538 4.59 46.366z"/><path d="m339.038 305.839h-7.227c-4.142 0-7.5 3.357-7.5 7.5s3.358 7.5 7.5 7.5h7.227c4.142 0 7.5-3.357 7.5-7.5s-3.358-7.5-7.5-7.5z"/><path d="m379.617 337.538h-12.229c-4.142 0-7.5 3.357-7.5 7.5s3.358 7.5 7.5 7.5h12.229c4.142 0 7.5-3.357 7.5-7.5s-3.358-7.5-7.5-7.5z"/><path d="m175.883 326.896c0-4.143-3.358-7.5-7.5-7.5h-13.341c-4.142 0-7.5 3.357-7.5 7.5s3.358 7.5 7.5 7.5h13.341c4.142 0 7.5-3.357 7.5-7.5z"/><path d="m122.245 350.179h-23.903c-4.142 0-7.5 3.357-7.5 7.5s3.358 7.5 7.5 7.5h23.903c4.142 0 7.5-3.357 7.5-7.5s-3.358-7.5-7.5-7.5z"/></g></g></svg>