<svg id="Filled" height="512" viewBox="0 0 512 512" width="512" xmlns="http://www.w3.org/2000/svg"><path d="m304 160v80a32 32 0 0 1 -32 32v216h-32v-216a32 32 0 0 1 -32-32v-80h32v64a16 16 0 0 0 16 16 16 16 0 0 0 16-16v-64z" fill="#dadcde"/><rect fill="#f7cca9" height="176" rx="32" width="160" x="176" y="24"/><path d="m240 496h32a8 8 0 0 0 8-8v-208.8a40.071 40.071 0 0 0 32-39.2v-32.8a40.067 40.067 0 0 0 32-39.2v-112a40.045 40.045 0 0 0 -40-40h-96a40.045 40.045 0 0 0 -40 40v112a40.067 40.067 0 0 0 32 39.2v32.8a40.071 40.071 0 0 0 32 39.2v208.8a8 8 0 0 0 8 8zm-32-304a24.028 24.028 0 0 1 -24-24v-112a24.028 24.028 0 0 1 24-24h96a24.028 24.028 0 0 1 24 24v112a24.028 24.028 0 0 1 -24 24zm56 16v16a8 8 0 0 1 -16 0v-16zm-48 32v-32h16v16a24 24 0 0 0 48 0v-16h16v32a24.027 24.027 0 0 1 -24 24 8 8 0 0 0 -8 8v208h-16v-208a8 8 0 0 0 -8-8 24.027 24.027 0 0 1 -24-24z"/><circle cx="272" cy="168" r="8"/><circle cx="296" cy="128" r="8"/><circle cx="304" cy="160" r="8"/><path d="m309.679 50.322a7.973 7.973 0 0 0 -11.292-.022 44.377 44.377 0 0 1 -10.628 6.871 72.228 72.228 0 0 1 -31.759 6.829 72.228 72.228 0 0 1 -31.759-6.829 44.571 44.571 0 0 1 -10.624-6.871 8 8 0 0 0 -11.274 11.353c.749.753 18.745 18.347 53.657 18.347s52.908-17.594 53.657-18.343a8.026 8.026 0 0 0 .022-11.335z"/></svg>