<svg id="Capa_1" enable-background="new 0 0 511.536 511.536" height="512" viewBox="0 0 511.536 511.536" width="512" xmlns="http://www.w3.org/2000/svg"><g><g><g><path d="m166.237 493.433c0 5.856-4.747 10.603-10.603 10.603h-8.79c-5.856 0-10.603-4.747-10.603-10.603v-409.339h29.996z" fill="#f6e2c4"/></g><g><path d="m375.295 493.433c0 5.856-4.747 10.603-10.603 10.603h-8.79c-5.856 0-10.603-4.747-10.603-10.603v-409.339h29.996z" fill="#f6e2c4"/></g><g><g><path d="m209.776 150.483h-117.074c-18.508 0-29.868-20.274-20.203-36.059l58.537-95.604c9.241-15.092 31.165-15.092 40.406 0l58.537 95.604c9.665 15.785-1.694 36.059-20.203 36.059z" fill="#fbe88c"/><path d="m131.521 135.561c-18.508 0-29.868-20.274-20.203-36.059l53.662-87.642c-10.647-7.585-26.458-5.268-33.944 6.96l-58.537 95.604c-9.665 15.785 1.694 36.059 20.203 36.059h117.074c10.446 0 18.611-6.458 22.009-14.922z" fill="#fbe372"/><path d="m210.7 277.407h-118.921c-12.594 0-22.803-10.209-22.803-22.803v-45.948c0-12.594 10.209-22.803 22.803-22.803h118.921c12.594 0 22.803 10.209 22.803 22.803v45.948c0 12.594-10.21 22.803-22.803 22.803z" fill="#d8efa7"/><g fill="#c5e97d"><path d="m131.084 260.21c-12.594 0-22.803-10.209-22.803-22.803v-45.948c0-1.935.243-3.812.697-5.606h-17.199c-12.594 0-22.803 10.209-22.803 22.803v45.948c0 12.594 10.209 22.803 22.803 22.803h118.921c10.659 0 19.608-7.314 22.106-17.197z"/><path d="m100.397 185.853h32.174v91.555h-32.174z"/><path d="m169.907 185.853h32.174v91.555h-32.174z" transform="matrix(-1 0 0 -1 371.988 463.26)"/></g><path d="m169.907 260.21h32.174v17.197h-32.174z" fill="#b1e254"/><ellipse cx="151.239" cy="365.857" fill="#f8deb6" rx="68.048" ry="60.622"/><path d="m117.946 362.459c0-25.77 18.058-47.77 43.509-56.542-3.333-.447-6.743-.682-10.216-.682-37.582 0-68.048 27.141-68.048 60.622s30.466 60.622 68.048 60.622c8.655 0 16.924-1.455 24.539-4.08-32.735-4.391-57.832-29.553-57.832-59.94z" fill="#f7d8a4"/><path d="m418.191 150.309h-117.074c-18.508 0-29.868-20.274-20.203-36.059l58.537-95.604c9.241-15.092 31.165-15.092 40.406 0l58.537 95.604c9.665 15.785-1.694 36.059-20.203 36.059z" fill="#fbe88c"/><path d="m339.936 135.387c-18.508 0-29.868-20.274-20.203-36.059l53.662-87.642c-10.647-7.585-26.458-5.268-33.944 6.96l-58.537 95.604c-9.665 15.785 1.694 36.059 20.203 36.059h117.074c10.446 0 18.611-6.458 22.009-14.922z" fill="#fbe372"/><path d="m419.114 277.233h-118.92c-12.594 0-22.803-10.209-22.803-22.803v-45.948c0-12.594 10.209-22.803 22.803-22.803h118.921c12.594 0 22.803 10.209 22.803 22.803v45.948c-.001 12.594-10.21 22.803-22.804 22.803z" fill="#ea9a98"/><path d="m339.498 260.036c-12.594 0-22.803-10.209-22.803-22.803v-45.948c0-1.935.243-3.812.697-5.606h-17.198c-12.594 0-22.803 10.209-22.803 22.803v45.948c0 12.594 10.209 22.803 22.803 22.803h118.921c10.659 0 19.608-7.314 22.106-17.197z" fill="#e5827f"/><path d="m308.812 185.678h32.174v91.555h-32.174z" fill="#efb4b2"/><path d="m378.322 185.678h32.174v91.555h-32.174z" fill="#efb4b2" transform="matrix(-1 0 0 -1 788.818 462.912)"/><path d="m378.322 260.036h32.174v17.197h-32.174z" fill="#ea9a98"/><ellipse cx="359.654" cy="365.682" fill="#f8deb6" rx="68.048" ry="60.622"/><path d="m326.361 362.285c0-25.77 18.058-47.77 43.509-56.542-3.333-.447-6.743-.682-10.216-.682-37.582 0-68.048 27.141-68.048 60.622s30.466 60.622 68.048 60.622c8.655 0 16.924-1.455 24.539-4.08-32.735-4.391-57.832-29.554-57.832-59.94z" fill="#f7d8a4"/></g></g><path d="m108.281 237.407v-45.948c0-1.935.243-3.812.697-5.606h-8.58v91.555h32.174v-17.198h-1.488c-12.594 0-22.803-10.209-22.803-22.803z" fill="#b1e254"/><path d="m340.986 260.036h-1.488c-12.594 0-22.803-10.209-22.803-22.803v-45.948c0-1.935.243-3.812.697-5.606h-8.58v91.555h32.174z" fill="#ea9a98"/></g><g><path d="m209.776 157.983c11.444 0 21.616-5.961 27.209-15.944 5.594-9.984 5.365-21.771-.61-31.531l-58.538-95.604c-5.712-9.333-15.656-14.904-26.598-14.904-10.942.001-20.885 5.571-26.598 14.903l-23.413 38.238c-2.163 3.532-1.053 8.149 2.479 10.312 3.534 2.163 8.15 1.053 10.313-2.48l23.413-38.238c2.965-4.843 8.126-7.734 13.806-7.735 5.68 0 10.841 2.893 13.807 7.735l58.537 95.604c3.102 5.066 3.221 11.185.317 16.367-2.903 5.183-8.183 8.276-14.123 8.276h-117.075c-5.94 0-11.219-3.094-14.123-8.275-2.903-5.183-2.785-11.302.317-16.368l18.354-29.975c2.163-3.532 1.052-8.149-2.48-10.312-3.535-2.162-8.15-1.052-10.313 2.48l-18.354 29.976c-5.976 9.76-6.204 21.548-.61 31.531 5.594 9.984 15.765 15.944 27.209 15.944h36.04v20.369h-28.344-8.619c-16.709 0-30.303 13.594-30.303 30.303v45.949c0 16.709 13.594 30.303 30.303 30.303h8.619 28.344v15.913c-30.704 8.654-53.05 34.536-53.05 65.036s22.346 56.382 53.05 65.037v62.54c0 9.982 8.121 18.104 18.103 18.104h8.79c9.982 0 18.103-8.121 18.103-18.104v-62.54c30.704-8.654 53.049-34.536 53.049-65.037s-22.346-56.382-53.049-65.036v-15.914h28.344 8.619c16.709 0 30.303-13.594 30.303-30.303v-45.949c0-16.709-13.594-30.303-30.303-30.303h-8.619-28.344v-20.369h36.038zm-47.369 35.37v76.555h-22.336v-76.555zm-85.931 61.251v-45.949c0-8.438 6.865-15.303 15.303-15.303h1.119v76.555h-1.119c-8.438 0-15.303-6.865-15.303-15.303zm31.421 15.303v-76.555h17.174v76.555zm50.84 223.526c0 1.711-1.392 3.104-3.103 3.104h-8.79c-1.711 0-3.103-1.393-3.103-3.104v-59.792c2.467.22 4.968.337 7.498.337s5.031-.117 7.498-.337zm53.05-127.577c0 29.292-27.162 53.122-60.547 53.122-33.386 0-60.548-23.83-60.548-53.122 0-29.291 27.162-53.121 60.548-53.121 33.385 0 60.547 23.83 60.547 53.121zm-60.548-68.121c-2.531 0-5.031.117-7.498.337v-13.166h14.996v13.166c-2.467-.219-4.967-.337-7.498-.337zm74.763-89.08v45.949c0 8.438-6.865 15.303-15.303 15.303h-1.119v-76.555h1.119c8.439.001 15.303 6.866 15.303 15.303zm-31.421-15.302v76.555h-17.174v-76.555zm-35.844-15h-14.996v-20.369h14.996z"/><path d="m146.412 336.329c0-4.143-3.358-7.5-7.5-7.5h-6.34c-4.142 0-7.5 3.357-7.5 7.5s3.358 7.5 7.5 7.5h6.34c4.142 0 7.5-3.357 7.5-7.5z"/><path d="m143.739 365.856c0 4.143 3.358 7.5 7.5 7.5h8.034c4.142 0 7.5-3.357 7.5-7.5s-3.358-7.5-7.5-7.5h-8.034c-4.142 0-7.5 3.358-7.5 7.5z"/><path d="m169.907 66.533h-16.234c-4.142 0-7.5 3.357-7.5 7.5s3.358 7.5 7.5 7.5h16.234c4.142 0 7.5-3.357 7.5-7.5s-3.358-7.5-7.5-7.5z"/><path d="m136.241 111.033c-4.142 0-7.5 3.357-7.5 7.5s3.358 7.5 7.5 7.5h6.501c4.142 0 7.5-3.357 7.5-7.5s-3.358-7.5-7.5-7.5z"/><path d="m166.471 104.48c0 4.143 3.358 7.5 7.5 7.5h8.588c4.142 0 7.5-3.357 7.5-7.5s-3.358-7.5-7.5-7.5h-8.588c-4.142 0-7.5 3.358-7.5 7.5z"/><path d="m419.756 178.353h-8.618-28.344v-20.369h36.039c11.444 0 21.616-5.961 27.21-15.944 5.594-9.984 5.365-21.771-.61-31.531l-19.175-31.316c-2.163-3.533-6.781-4.642-10.312-2.48-3.533 2.163-4.644 6.78-2.48 10.312l19.175 31.316c3.103 5.066 3.221 11.185.317 16.367-2.904 5.183-8.184 8.276-14.124 8.276h-117.075c-5.939 0-11.22-3.094-14.123-8.275-2.903-5.183-2.785-11.302.316-16.368l58.538-95.604c2.965-4.843 8.126-7.734 13.806-7.735 5.68 0 10.841 2.893 13.807 7.735l22.669 37.023c2.164 3.534 6.782 4.644 10.312 2.48 3.533-2.163 4.644-6.78 2.48-10.312l-22.669-37.024c-5.714-9.333-15.657-14.904-26.6-14.904-10.941.001-20.884 5.572-26.598 14.903l-58.538 95.604c-5.976 9.761-6.203 21.548-.609 31.532 5.594 9.983 15.766 15.943 27.209 15.943h36.039v20.369h-28.344-8.618c-16.71 0-30.304 13.594-30.304 30.303v45.949c0 16.709 13.594 30.303 30.304 30.303h8.618 28.344v15.913c-30.704 8.654-53.05 34.536-53.05 65.036s22.346 56.382 53.05 65.037v62.54c0 9.982 8.121 18.104 18.104 18.104h8.789c9.982 0 18.104-8.121 18.104-18.104v-62.54c30.704-8.654 53.05-34.536 53.05-65.037 0-2.426-.151-4.917-.45-7.404-.494-4.114-4.252-7.062-8.34-6.553-4.113.493-7.047 4.228-6.553 8.34.228 1.896.343 3.786.343 5.617 0 29.292-27.162 53.122-60.548 53.122s-60.548-23.83-60.548-53.122c0-29.291 27.162-53.121 60.548-53.121 19.357 0 37.709 8.246 49.091 22.059 2.636 3.197 7.36 3.652 10.558 1.019 3.196-2.634 3.652-7.361 1.019-10.558-9.603-11.654-23.088-20.126-38.169-24.394v-15.954h28.344 8.618c16.71 0 30.304-13.594 30.304-30.303v-45.949c-.002-16.708-13.596-30.301-30.306-30.301zm-51.962 255.288v59.792c0 1.711-1.393 3.104-3.104 3.104h-8.789c-1.711 0-3.104-1.393-3.104-3.104v-59.792c2.467.22 4.968.337 7.498.337s5.032-.117 7.499-.337zm-18.666-163.734v-76.555h22.336v76.555zm18.666-111.924v20.369h-14.996v-20.369zm-82.261 96.621v-45.949c0-8.438 6.865-15.303 15.304-15.303h1.118v76.555h-1.118c-8.439 0-15.304-6.865-15.304-15.303zm31.422 15.303v-76.555h17.174v76.555zm43.341 27.828c-2.531 0-5.031.117-7.498.337v-13.166h14.996v13.176c-2.481-.225-4.982-.347-7.498-.347zm26.168-27.828v-76.555h17.174v76.555zm48.596-15.303c0 8.438-6.865 15.303-15.304 15.303h-1.118v-76.555h1.118c8.438 0 15.304 6.865 15.304 15.303z"/><path d="m347.968 328.829h-6.34c-4.143 0-7.5 3.357-7.5 7.5s3.357 7.5 7.5 7.5h6.34c4.143 0 7.5-3.357 7.5-7.5s-3.357-7.5-7.5-7.5z"/><path d="m360.296 373.356h8.034c4.143 0 7.5-3.357 7.5-7.5s-3.357-7.5-7.5-7.5h-8.034c-4.143 0-7.5 3.357-7.5 7.5s3.358 7.5 7.5 7.5z"/><path d="m378.964 81.533c4.143 0 7.5-3.357 7.5-7.5s-3.357-7.5-7.5-7.5h-16.234c-4.143 0-7.5 3.357-7.5 7.5s3.357 7.5 7.5 7.5z"/><path d="m351.8 111.033h-6.502c-4.143 0-7.5 3.357-7.5 7.5s3.357 7.5 7.5 7.5h6.502c4.143 0 7.5-3.357 7.5-7.5s-3.357-7.5-7.5-7.5z"/><path d="m383.028 111.98h8.588c4.143 0 7.5-3.357 7.5-7.5s-3.357-7.5-7.5-7.5h-8.588c-4.143 0-7.5 3.357-7.5 7.5s3.357 7.5 7.5 7.5z"/></g></g></svg>