<svg id="Filled" height="512" viewBox="0 0 512 512" width="512" xmlns="http://www.w3.org/2000/svg"><path d="m128 408h256v80h-256z" fill="#e9eef2"/><path d="m424 24-40 400h-256l-40-400z" fill="#e9eef2"/><path d="m248 72h96v72h-96z" fill="#c7312e"/><circle cx="232" cy="112" fill="#eb423f" r="56"/><path d="m412 144-28 280h-256l-28-280z" fill="#f7cca9"/><path d="m412 144-7.2 72h-13.34a23.456 23.456 0 0 0 -23.46 23.46c0 13.31-10.78 24.54-24.03 24.54h-.42a24.018 24.018 0 0 1 -23.55-24 24 24 0 0 0 -24-24h-32a24.006 24.006 0 0 0 -24 24v55.46c0 13.45-11.01 24.78-24.45 24.54a24.018 24.018 0 0 1 -23.55-24v-32a48 48 0 0 0 -48-48h-36.8l-7.2-72z" fill="#962523"/><path d="m160 424h32v64h-32z" fill="#dadcde"/><path d="m128 496h256a8 8 0 0 0 8-8v-63.6l39.96-399.6a8 8 0 0 0 -7.96-8.8h-336a8 8 0 0 0 -7.96 8.8l39.96 399.6v63.6a8 8 0 0 0 8 8zm24-16h-16v-48h16zm32 0h-16v-48h16zm32 0h-16v-48h16zm160 0h-144v-48h144zm-279.16-448h318.32l-10.4 104h-52.76v-64a8 8 0 0 0 -8-8h-69.735a63.838 63.838 0 0 0 -87 2.294 86.5 86.5 0 0 1 -12.665-14.822 8 8 0 0 0 -13.19 9.056 101.7 101.7 0 0 0 15.87 18.317 63.952 63.952 0 0 0 -4.612 57.155h-22.934l-5.755-80.57a8 8 0 0 0 -15.958 1.14l5.673 79.43h-26.454zm190.55 48h48.61v56h-44.654a63.954 63.954 0 0 0 -3.956-56zm-63.4 7.521a8.007 8.007 0 0 0 -8.464-7.506c-.117-.007-6.206.105-14.9-4.293a47.985 47.985 0 0 1 72.948 60.278h-83.129a47.869 47.869 0 0 1 -.167-47.688c12.393 7.094 22.39 7.694 25.347 7.694.463 0 .754-.015.854-.021a8 8 0 0 0 7.506-8.464zm-111.275 64.479h22.122l1.184 16.57a8 8 0 0 0 7.97 7.43c.193 0 .385-.007.579-.021a8 8 0 0 0 7.409-8.549l-1.1-15.43h248.406l-4.8 56h-3.027a31.494 31.494 0 0 0 -31.458 31.458 16.878 16.878 0 0 1 -5.054 11.961 15.54 15.54 0 0 1 -11.246 4.581 16.074 16.074 0 0 1 -15.7-16 32.036 32.036 0 0 0 -32-32h-32a32.036 32.036 0 0 0 -32 32v55.458a16.878 16.878 0 0 1 -5.054 11.961 15.527 15.527 0 0 1 -11.246 4.581 16.074 16.074 0 0 1 -15.7-16v-32a56.082 56.082 0 0 0 -47.907-55.408l-.129-1.351a8 8 0 0 0 -15.964.759h-18.485zm6.171 72h18.6l14.548 152.759a8 8 0 0 0 7.956 7.241c.254 0 .511-.013.769-.037a8 8 0 0 0 7.205-8.723l-14.291-150.051a40.068 40.068 0 0 1 30.327 38.811v32a32.156 32.156 0 0 0 31.4 32h.587a31.472 31.472 0 0 0 22.168-9.163 32.975 32.975 0 0 0 9.845-23.379v-55.458a16.019 16.019 0 0 1 16-16h32a16.019 16.019 0 0 1 16 16 32.156 32.156 0 0 0 31.4 32 31.517 31.517 0 0 0 22.755-9.158 32.975 32.975 0 0 0 9.845-23.384 15.476 15.476 0 0 1 15.458-15.458h1.656l-16.458 192h-241.312z"/></svg>