<svg id="Capa_1" enable-background="new 0 0 513.416 513.416" height="512" viewBox="0 0 513.416 513.416" width="512" xmlns="http://www.w3.org/2000/svg"><g><g><path d="m328.249 98.33-5.784-7.55c-5.955-7.773-16.591-10.223-25.346-5.837-8.724 4.37-13.136 14.303-10.529 23.706l3.117 11.243 11.471 52.065-14.469 49.346-2.076 3.173c-6.146 9.394-5.1 21.767 2.535 29.996 1.432 1.543 1.432 3.93 0 5.473-7.635 8.229-8.681 20.602-2.535 29.996l2.076 3.173 14.469 54.966-11.471 45.445-3.117 11.243c-2.607 9.403 1.805 19.336 10.529 23.706 8.755 4.385 19.391 1.936 25.346-5.837l5.784-7.55 61.846-109.58s-11.731-142.88-16.27-142.88-45.576-64.297-45.576-64.297z" fill="#d8efa7"/><path d="m185.168 415.086 5.784 7.55c5.955 7.773 16.591 10.223 25.346 5.837 8.724-4.37 13.136-14.303 10.529-23.706l-3.117-11.243-10.831-19.723-1.083-37.027 14.912-43.661 2.076-3.173c6.146-9.394 5.1-21.767-2.535-29.996-1.432-1.543-1.432-3.93 0-5.473 7.635-8.229 8.681-20.602 2.535-29.996l-2.076-3.173-13.288-15.862 3.248-24.901 7.042-60.648 3.117-11.243c2.607-9.403-1.805-19.336-10.529-23.706-8.755-4.385-19.391-1.936-25.346 5.837l-5.784 7.55-73.775 129.194 5.039 89.369z" fill="#d8efa7"/><g><g><path d="m190.952 90.78-5.784 7.55-73.775 129.194 5.039 89.369 68.737 98.193 5.784 7.55c1.025 1.338 2.197 2.506 3.466 3.521 7.288-7.284 11.294-17.005 11.294-27.538v-284.823c0-10.424-4.119-19.902-10.81-26.922-1.46 1.096-2.796 2.398-3.951 3.906z" fill="#c5e97d"/><circle cx="200.787" cy="171.956" fill="#ea9a98" r="56.406"/><path d="m205.712 228.135v-112.358c-1.624-.141-3.264-.227-4.925-.227-31.152 0-56.406 25.254-56.406 56.406s25.254 56.406 56.406 56.406c1.661 0 3.301-.086 4.925-.227z" fill="#e5827f"/><circle cx="200.787" cy="171.956" fill="#efb4b2" r="28.186"/><path d="m205.712 199.705v-55.497c-1.6-.282-3.244-.438-4.925-.438-15.567 0-28.186 12.62-28.186 28.187s12.619 28.187 28.186 28.187c1.682-.001 3.325-.157 4.925-.439z" fill="#ea9a98"/><path d="m373.826 162.626c-4.539 0-45.577-64.295-45.577-64.295l-5.784-7.55c-1.156-1.508-2.491-2.81-3.951-3.906-6.691 7.021-10.81 16.498-10.81 26.922v284.823c0 10.706 4.339 20.417 11.352 27.489 1.246-1.004 2.399-2.156 3.408-3.473l5.784-7.55 61.846-109.58c.002 0-11.729-142.88-16.268-142.88z" fill="#c5e97d"/><circle cx="313.115" cy="171.956" fill="#ea9a98" r="56.406"/><path d="m324.724 212.294 28.531-26.66 7.377-44.054c-10.025-15.649-27.553-26.03-47.517-26.03-1.826 0-3.635.087-5.416.257l.006 84.138c0 6.048-6.261 10.055-11.764 7.545-19.482-8.886-33.023-28.53-33.023-51.34 0-4.29.467-8.444 1.374-12.46-5.213 8.975-8.01 19.492-7.531 30.726 1.248 29.245 25.155 52.932 54.41 53.916 27.718.932 51.131-18.147 56.948-43.897-8.911 15.338-24.839 26.095-43.395 27.859z" fill="#e5827f"/><circle cx="313.115" cy="171.956" fill="#efb4b2" r="28.186"/><path d="m313.115 143.77c-1.851 0-3.659.184-5.41.524v55.324c1.751.34 3.559.524 5.41.524 15.567 0 28.186-12.62 28.186-28.187s-12.619-28.185-28.186-28.185z" fill="#ea9a98"/><circle cx="313.115" cy="341.274" fill="#ea9a98" r="56.406"/><path d="m329.021 388.068-6.316-3.458 14.958-29.169 31.769-17.275c-1.614-29.706-26.208-53.298-56.317-53.298-1.826 0-3.629.087-5.41.256v86.232c0 5.784-6.152 9.528-11.269 6.831-17.919-9.446-30.137-28.248-30.137-49.913 0-9.622 2.39-18.665 6.639-26.591-10.097 10.236-16.29 24.294-16.228 39.822.123 30.562 25.057 55.751 55.616 56.17 7.235.099 14.159-1.171 20.538-3.557z" fill="#e5827f"/><circle cx="313.115" cy="341.274" fill="#efb4b2" r="28.186"/><path d="m313.115 313.088c-1.851 0-3.659.184-5.41.524v55.324c1.751.34 3.559.524 5.41.524 15.567 0 28.186-12.62 28.186-28.187s-12.619-28.185-28.186-28.185z" fill="#ea9a98"/><circle cx="200.757" cy="341.274" fill="#ea9a98" r="56.406"/><path d="m205.712 397.451v-112.353c-1.634-.143-3.284-.229-4.955-.229-31.152 0-56.406 25.254-56.406 56.406s25.254 56.406 56.406 56.406c1.671 0 3.321-.087 4.955-.23z" fill="#e5827f"/><circle cx="200.757" cy="341.274" fill="#efb4b2" r="28.186"/><path d="m205.712 369.018v-55.486c-1.61-.286-3.264-.443-4.955-.443-15.567 0-28.186 12.62-28.186 28.187s12.62 28.187 28.186 28.187c1.692-.002 3.346-.16 4.955-.445z" fill="#ea9a98"/><path d="m190.712 398.62v-284.824c0-21.529-26.094-32.239-41.219-16.918l-131.226 132.928c-14.449 14.636-14.449 38.169 0 52.805l131.226 132.927c15.125 15.321 41.219 4.611 41.219-16.918z" fill="#f6e2c4"/><path d="m67.529 282.191c-17.276-15.757-17.276-41.09 0-56.847l123.171-112.326c-.621-21.005-26.266-31.275-41.208-16.14l-131.225 132.928c-14.449 14.636-14.449 38.168 0 52.805l131.226 132.928c15.125 15.321 41.219 4.611 41.219-16.918v-4.082z" fill="#f8deb6"/></g><g><path d="m322.705 398.62v-284.824c0-21.529 26.094-32.239 41.219-16.918l131.226 132.928c14.449 14.636 14.449 38.169 0 52.805l-131.226 132.927c-15.125 15.321-41.219 4.611-41.219-16.918z" fill="#f6e2c4"/><path d="m393.393 344.478c-15.125 15.321-41.219 4.611-41.219-16.918l.009-237.311c-14.016-3.181-29.478 6.978-29.478 23.547v284.824c0 21.529 26.094 32.24 41.219 16.918l131.226-132.928c12.48-12.642 14.179-31.924 5.1-46.374z" fill="#f8deb6"/></g></g></g><g><path d="m153.182 312.181c4.143 0 7.5-3.357 7.5-7.5v-153.776c0-4.143-3.357-7.5-7.5-7.5s-7.5 3.357-7.5 7.5v153.775c0 4.143 3.358 7.501 7.5 7.501z"/><path d="m145.682 360.385c0 4.143 3.357 7.5 7.5 7.5s7.5-3.357 7.5-7.5v-24.61c0-4.143-3.357-7.5-7.5-7.5s-7.5 3.357-7.5 7.5z"/><path d="m118.892 328.916v-146.542c0-4.143-3.357-7.5-7.5-7.5s-7.5 3.357-7.5 7.5v146.542c0 4.143 3.357 7.5 7.5 7.5s7.5-3.357 7.5-7.5z"/><path d="m62.102 221.303v68.685c0 4.143 3.357 7.5 7.5 7.5s7.5-3.357 7.5-7.5v-68.685c0-4.143-3.357-7.5-7.5-7.5s-7.5 3.357-7.5 7.5z"/><path d="m500.487 224.537-85.402-86.51c-2.909-2.949-7.658-2.979-10.606-.068-2.947 2.909-2.978 7.658-.067 10.606l85.401 86.509c11.503 11.653 11.503 30.614.001 42.268l-131.227 132.928c-5.759 5.834-13.123 5.731-18.098 3.69-4.972-2.041-10.285-7.143-10.285-15.34v-284.824c0-8.197 5.313-13.299 10.285-15.34 4.973-2.041 12.338-2.145 18.098 3.69l23.315 23.619c2.911 2.949 7.66 2.979 10.606.068 2.948-2.909 2.979-7.658.069-10.605l-23.317-23.619c-9.177-9.296-22.383-11.99-34.467-7.029-1.938.795-3.744 1.768-5.435 2.866l-.941-1.228c-8.13-10.611-22.704-13.966-34.659-7.981-11.897 5.96-17.953 19.593-14.397 32.416l1.797 6.482c-10.311 5.875-18.817 14.562-24.45 25.025-5.633-10.462-14.14-19.149-24.45-25.025l1.797-6.482c3.556-12.823-2.5-26.456-14.398-32.416-11.949-5.985-26.526-2.63-34.659 7.982l-.94 1.227c-1.691-1.098-3.497-2.07-5.435-2.866-12.082-4.958-25.291-2.268-34.467 7.029l-33.268 33.699c-2.91 2.947-2.88 7.696.068 10.605 2.946 2.911 7.696 2.88 10.605-.068l33.268-33.699c5.76-5.833 13.124-5.729 18.098-3.69 4.972 2.041 10.285 7.143 10.285 15.34v284.824c0 8.197-5.313 13.299-10.285 15.34-4.974 2.04-12.339 2.143-18.097-3.69l-31.109-31.514c-2.911-2.95-7.66-2.979-10.606-.069-2.948 2.91-2.979 7.659-.069 10.606l31.11 31.514c6.134 6.214 14.067 9.478 22.264 9.478 4.065 0 8.196-.804 12.203-2.448 1.743-.715 3.378-1.574 4.922-2.536l1.454 1.898c5.425 7.081 13.719 10.931 22.189 10.931 4.224 0 8.492-.958 12.47-2.949 11.897-5.96 17.953-19.593 14.397-32.416l-1.558-5.619c10.203-5.873 18.622-14.506 24.211-24.888 5.589 10.382 14.008 19.015 24.211 24.888l-1.558 5.619c-3.556 12.823 2.5 26.456 14.398 32.416 3.977 1.992 8.244 2.949 12.469 2.949 8.47 0 16.765-3.851 22.19-10.932l1.453-1.897c1.544.962 3.179 1.821 4.922 2.536 4.007 1.645 8.137 2.448 12.203 2.448 8.195-.001 16.131-3.264 22.264-9.477l131.227-132.929c17.239-17.463 17.239-45.879 0-63.342zm-302.275-70.385c.964-.159 1.938-.263 2.929-.263 9.962 0 18.067 8.105 18.067 18.067s-8.105 18.067-18.067 18.067c-.991 0-1.965-.104-2.929-.263zm0 170.504c.964-.159 1.938-.263 2.929-.263 9.962 0 18.067 8.105 18.067 18.067s-8.105 18.067-18.067 18.067c-.991 0-1.965-.104-2.929-.263zm0-89.711c.978.047 1.955.08 2.929.08 7.961 0 15.574-1.498 22.593-4.201 2.816 6.147 1.732 13.466-2.983 18.547-4.078 4.396-4.078 11.28 0 15.676 4.715 5.082 5.799 12.4 2.983 18.548-7.02-2.704-14.633-4.201-22.594-4.201-.973 0-1.95.029-2.929.077v-44.526zm35.529 22.263c7.36-9.637 8.58-22.568 3.25-33.405 8.185-5.678 14.971-13.233 19.718-22.049 4.746 8.815 11.532 16.372 19.717 22.049-5.33 10.837-4.109 23.769 3.251 33.406-7.36 9.637-8.58 22.568-3.25 33.406-8.185 5.677-14.971 13.233-19.718 22.049-4.746-8.815-11.532-16.371-19.717-22.049 5.329-10.838 4.109-23.77-3.251-33.407zm55.942 26.385c-2.816-6.147-1.732-13.466 2.983-18.547 4.078-4.396 4.078-11.28 0-15.676-4.715-5.081-5.799-12.4-2.984-18.547 7.02 2.704 14.633 4.201 22.594 4.201.974 0 1.95-.031 2.929-.08v44.528c-.978-.047-1.955-.08-2.929-.08-7.961.001-15.574 1.498-22.593 4.201zm25.522-93.833c-.964.159-1.938.263-2.929.263-9.962 0-18.067-8.105-18.067-18.067s8.105-18.067 18.067-18.067c.991 0 1.965.104 2.929.263zm0 170.504c-.964.159-1.938.263-2.929.263-9.962 0-18.067-8.105-18.067-18.067s8.105-18.067 18.067-18.067c.991 0 1.965.104 2.929.263zm-21.388-253.619c-1.646-5.933 1.156-12.239 6.66-14.996 5.533-2.771 12.274-1.217 16.034 3.691l2.495 3.257c-1.724 3.176-2.91 6.671-3.454 10.386-1.094-.058-2.188-.094-3.277-.094-5.953 0-11.709.847-17.172 2.396zm18.459 17.245c.972 0 1.95.042 2.929.103v15.035c-.97-.086-1.945-.138-2.929-.138-18.233 0-33.067 14.834-33.067 33.067s14.834 33.067 33.067 33.067c.984 0 1.959-.06 2.929-.146v15.045c-.979.061-1.957.103-2.929.103-26.505 0-48.067-21.563-48.067-48.068-.001-26.506 21.562-48.068 48.067-48.068zm-63.068 48.066c0 26.505-21.562 48.068-48.067 48.068-.972 0-1.95-.042-2.929-.103v-15.039c.97.086 1.945.14 2.929.14 18.233 0 33.067-14.834 33.067-33.067s-14.834-33.067-33.067-33.067c-.984 0-1.959.055-2.929.142v-15.038c.979-.062 1.957-.103 2.929-.103 26.505.001 48.067 21.563 48.067 48.067zm-36.269-80.308c5.505 2.757 8.307 9.063 6.661 14.996l-1.287 4.641c-5.464-1.548-11.219-2.396-17.172-2.396-1.089 0-2.181.042-3.275.102-.544-3.718-1.73-7.215-3.455-10.394l2.494-3.256c3.762-4.908 10.506-6.463 16.034-3.693zm6.661 315.124c1.646 5.933-1.156 12.239-6.66 14.996-5.531 2.771-12.274 1.217-16.034-3.691l-2.81-3.667c1.581-2.767 2.729-5.795 3.406-9.003 1.216.073 2.43.122 3.639.122 6.047 0 11.89-.873 17.429-2.469zm-18.459-16.245c-.972 0-1.949-.042-2.929-.103v-15.033c.969.086 1.945.136 2.929.136 18.233 0 33.067-14.834 33.067-33.067s-14.834-33.067-33.067-33.067c-.983 0-1.959.046-2.929.133v-15.03c.979-.061 1.957-.103 2.929-.103 26.505 0 48.067 21.562 48.067 48.067s-21.562 48.067-48.067 48.067zm63.067-48.067c0-26.505 21.562-48.067 48.067-48.067.972 0 1.949.042 2.929.103v15.036c-.97-.086-1.945-.138-2.929-.138-18.233 0-33.067 14.834-33.067 33.067s14.834 33.067 33.067 33.067c.984 0 1.959-.056 2.929-.143v15.04c-.979.061-1.957.103-2.929.103-26.504-.001-48.067-21.563-48.067-48.068zm36.27 79.308c-5.505-2.757-8.307-9.063-6.661-14.996l1.03-3.713c5.54 1.596 11.383 2.469 17.429 2.469 1.209 0 2.423-.051 3.639-.125.677 3.209 1.825 6.239 3.406 9.007l-2.809 3.667c-3.762 4.907-10.505 6.463-16.034 3.691z"/><path d="m367.735 150.905c0-4.143-3.357-7.5-7.5-7.5s-7.5 3.357-7.5 7.5v153.775c0 4.143 3.357 7.5 7.5 7.5s7.5-3.357 7.5-7.5z"/><path d="m360.235 328.275c-4.143 0-7.5 3.357-7.5 7.5v24.609c0 4.143 3.357 7.5 7.5 7.5s7.5-3.357 7.5-7.5v-24.609c0-4.142-3.358-7.5-7.5-7.5z"/><path d="m394.525 328.916c0 4.143 3.357 7.5 7.5 7.5s7.5-3.357 7.5-7.5v-146.542c0-4.143-3.357-7.5-7.5-7.5s-7.5 3.357-7.5 7.5z"/><path d="m451.315 289.987v-68.685c0-4.143-3.357-7.5-7.5-7.5s-7.5 3.357-7.5 7.5v68.685c0 4.143 3.357 7.5 7.5 7.5s7.5-3.357 7.5-7.5z"/><path d="m23.604 277.342c-11.503-11.653-11.503-30.614 0-42.268l75.43-76.408c2.91-2.947 2.88-7.696-.068-10.605-2.946-2.911-7.696-2.879-10.605.068l-75.43 76.408c-17.24 17.463-17.24 45.879 0 63.342l77.468 78.473c1.467 1.486 3.401 2.23 5.337 2.23 1.903 0 3.808-.72 5.27-2.163 2.947-2.909 2.978-7.658.067-10.606z"/></g></g></svg>