<svg id="Capa_1" enable-background="new 0 0 510.991 510.991" height="512" viewBox="0 0 510.991 510.991" width="512" xmlns="http://www.w3.org/2000/svg"><g><g><path d="m430.5 7.5h-247.72c-9.77 0-17.7 7.93-17.7 17.7v27.34l29.726 44.65h253.394v-44.65-27.34c0-9.77-7.92-17.7-17.7-17.7z" fill="#f3fbff"/><g id="XMLID_272_"><g><path d="m493.16 102.7v381.98c0 10.39-8.42 18.81-18.81 18.81h-322.03c-17.78 0-32.2-14.41-32.2-32.2v-275.08-93.51c0-3.33 1.33-6.53 3.68-8.88l41.28-41.28h283.12l41.28 41.28c2.36 2.35 3.68 5.55 3.68 8.88z" fill="#e3f6fc"/></g></g><path d="m227.608 51.814v-28.106c0-7.076 3.945-13.199 9.688-16.208h-54.516c-9.77 0-17.7 7.93-17.7 17.7v27.34l25.12 37.732z" fill="#e3f6fc"/><path d="m283.687 487.503c51.695-16.87 89.155-65.531 89.155-122.785v-33.393c0-14.966-12.175-27.141-27.141-27.141h-225.581v167.106c0 17.79 14.42 32.2 32.2 32.2h127.546c2.417-4.819 3.795-10.245 3.821-15.987z" fill="#cfeffc"/><path d="m182.648 482.304v-282.792-96.131c0-3.423 1.33-6.713 3.68-9.129l40.574-41.712h-61.822l-41.28 41.28c-2.35 2.35-3.68 5.55-3.68 8.88v93.51 275.08c0 17.79 14.42 32.2 32.2 32.2h37.789c-4.656-5.74-7.461-13.124-7.461-21.186z" fill="#cfeffc"/><g><g id="XMLID_275_"><g><path d="m493.16 161.92v235.4h-114.19-258.85v-235.4z" fill="#a9e4f9"/></g></g></g><path d="m345.701 304.185c-1.952 0-3.651-1.369-4.026-3.284-12.559-64.137-69.063-112.533-136.877-112.533-2.726 0-5.434.079-8.121.235-7.616.441-14.029-5.614-14.029-13.243v-13.44h-62.528v142.265 93.135h62.528 143.139 42.864c2.722-10.42 4.191-21.341 4.191-32.602v-33.393c0-14.989-12.152-27.14-27.141-27.14z" fill="#81d9f8"/><path d="m278.1 257.652 46.379-82.252c5.666-10.049 1.649-22.796-8.755-27.78-10.058-4.818-22.112-.452-26.751 9.689l-32.789 71.679-35.335 70.379 19.555 23.211z" fill="#fcf6ed"/><g><circle cx="187.186" cy="249.343" fill="#d08a61" r="28.993"/><circle cx="132.074" cy="250.86" fill="#d79c7a" r="28.758"/><circle cx="242.477" cy="250.86" fill="#d79c7a" r="28.758"/><circle cx="157.315" cy="281.918" fill="#e5bda7" r="28.993"/><circle cx="269.396" cy="284.488" fill="#e5bda7" r="28.993"/><circle cx="100.926" cy="282.537" fill="#dfae91" r="28.993"/><circle cx="213.492" cy="282.537" fill="#dfae91" r="28.993"/><circle cx="71.934" cy="318.385" fill="#d08a61" r="31.058"/><path d="m58.996 320.884c0-15.449 11.282-28.259 26.056-30.652-3.986-1.86-8.429-2.906-13.118-2.906-17.153 0-31.058 13.905-31.058 31.059 0 17.153 13.905 31.058 31.058 31.058 1.704 0 3.373-.143 5.002-.406-10.595-4.946-17.94-15.689-17.94-28.153z" fill="#d08a61"/><circle cx="129.295" cy="318.385" fill="#d79c7a" r="31.058"/><circle cx="185.5" cy="316.319" fill="#d08a61" r="28.993"/><circle cx="241.477" cy="316.319" fill="#d79c7a" r="28.993"/><circle cx="297.389" cy="316.319" fill="#d08a61" r="28.993"/></g><path d="m263.691 474.844v12.493c0 8.921-7.232 16.153-16.153 16.153h-124.404c-8.921 0-16.153-7.232-16.153-16.153v-12.493-57.517l157.778-9.219z" fill="#f3fbff"/><g><path d="m243.715 473.844h-116.759c-60.269 0-109.126-48.857-109.126-109.126v-33.393c0-3.943 3.197-7.14 7.14-7.14h320.731c3.943 0 7.14 3.197 7.14 7.14v33.393c0 60.269-48.857 109.126-109.126 109.126z" fill="#f3fbff"/><path d="m284.987 439.84h-116.759c-60.269 0-109.126-48.857-109.126-109.126v-6.529h-34.132c-3.943 0-7.14 3.197-7.14 7.14v33.394c0 60.269 48.857 109.126 109.126 109.126h116.759c36.055 0 68.032-17.494 87.902-44.447-14.138 6.689-29.951 10.442-46.63 10.442z" fill="#e3f6fc"/></g></g><g><path d="m360.341 364.719v-33.395c0-8.072-6.567-14.64-14.64-14.64h-12.803c-.683-16.352-12.47-29.878-28.002-33.221-.28-12.195-6.73-22.884-16.35-29.068l42.465-75.311c3.716-6.591 4.544-14.51 2.27-21.726-2.273-7.218-7.492-13.232-14.317-16.503-6.692-3.206-14.225-3.581-21.202-1.053-6.979 2.527-12.522 7.637-15.609 14.386l-29.667 64.854c-3.498-1.155-7.23-1.789-11.109-1.789-10.648 0-20.48 4.722-27.114 12.566-6.52-7.68-16.235-12.566-27.075-12.566-10.859 0-20.589 4.903-27.11 12.605-6.648-7.803-16.521-12.605-27.082-12.605-18.293 0-33.396 13.902-35.311 31.694-17.637 1.778-31.496 16.515-31.909 34.515-15.533 3.343-27.32 16.869-28.003 33.221h-12.803c-8.072 0-14.64 6.567-14.64 14.64v33.395c0 16.224 3.276 31.938 9.739 46.706 1.661 3.796 6.084 5.524 9.878 3.864 3.795-1.661 5.524-6.083 3.864-9.878-5.628-12.86-8.481-26.552-8.481-40.692v-33.034h20.594.079 54.592c.012 0 .024.002.036.002.008 0 .015-.002.023-.002h1.243c.008 0 .015.002.023.002.012 0 .024-.002.036-.002h54.594.079 1.377.079 54.591c.012 0 .024.002.036.002.008 0 .015-.002.023-.002h1.312.079 54.592c.012 0 .024.002.036.002.008 0 .015-.002.023-.002h1.243c.008 0 .015.002.023.002.012 0 .024-.002.036-.002h54.593.079 20.592v33.034c0 56.036-45.589 101.625-101.625 101.625h-116.76c-29.782 0-57.968-13.01-77.329-35.692-2.688-3.15-7.423-3.524-10.573-.836-3.15 2.689-3.524 7.424-.836 10.574 16.136 18.905 37.618 31.945 61.263 37.671v9.276c0 13.043 10.611 23.654 23.653 23.654h124.403c13.043 0 23.654-10.611 23.654-23.654v-9.271c51.09-12.385 89.148-58.501 89.148-113.346zm-42.48-48.034h-40.888c.773-10.615 9.635-19.021 20.445-19.021 10.807 0 19.669 8.405 20.443 19.021zm-209.011 0c.773-10.615 9.635-19.021 20.445-19.021s19.671 8.405 20.445 19.021zm48.465-52.917c11.042 0 20.05 8.772 20.479 19.71-8.26 1.793-15.454 6.468-20.479 12.916-5.026-6.448-12.219-11.123-20.479-12.916.43-10.938 9.437-19.71 20.479-19.71zm56.041 0c11.041 0 20.049 8.772 20.479 19.71-8.26 1.793-15.453 6.468-20.479 12.916-5.026-6.448-12.219-11.123-20.479-12.916.43-10.938 9.437-19.71 20.479-19.71zm56.04 0c11.042 0 20.05 8.772 20.479 19.71-8.26 1.793-15.454 6.468-20.479 12.916-5.026-6.448-12.219-11.123-20.479-12.916.43-10.938 9.437-19.71 20.479-19.71zm-104.505 52.917c.773-10.615 9.635-19.021 20.445-19.021s19.671 8.405 20.445 19.021zm56.041 0c.773-10.615 9.635-19.021 20.444-19.021s19.671 8.405 20.445 19.021zm74.861-156.256c1.399-3.06 3.913-5.376 7.077-6.522 3.165-1.146 6.579-.976 9.612.478 3.141 1.505 5.446 4.162 6.492 7.483 1.046 3.319.681 6.817-1.029 9.85l-41.748 74.04c-1.5-7.455-5.343-14.07-10.723-19.047zm-73.328 84.36c3.222-7.615 10.645-12.535 18.911-12.535 10.245 0 18.735 7.554 20.254 17.379-8.166 1.829-15.274 6.474-20.254 12.863-4.68-6.004-11.239-10.471-18.79-12.505-.114-1.456-.306-2.891-.59-4.293.172-.29.334-.59.469-.909zm-35.278-12.535c10.121 0 18.533 7.373 20.199 17.025-8.917 1.517-16.708 6.364-22.05 13.217-4.614-5.919-11.055-10.342-18.472-12.415 1.325-10.043 9.922-17.827 20.323-17.827zm-54.192 0c8.447 0 16.153 5.299 19.174 13.186.054.141.119.272.18.408-.218 1.098-.389 2.211-.502 3.342-9.127 1.417-17.11 6.325-22.552 13.307-4.243-5.444-10.032-9.621-16.705-11.87 1.077-10.31 9.816-18.373 20.405-18.373zm-31.721 31.514c11.042 0 20.05 8.772 20.479 19.71-8.26 1.793-15.454 6.468-20.479 12.916-5.026-6.448-12.219-11.123-20.479-12.916.431-10.938 9.438-19.71 20.479-19.71zm-28.019 33.896c10.808 0 19.67 8.405 20.444 19.021h-40.889c.774-10.616 9.636-19.021 20.445-19.021zm182.936 189.673c0 4.772-3.882 8.654-8.654 8.654h-124.403c-4.771 0-8.653-3.882-8.653-8.654v-6.663c4.121.442 8.284.669 12.476.669h116.76c4.214 0 8.375-.23 12.476-.668v6.662z"/><path d="m494.783 88.513-39.079-39.078v-24.23c0-13.898-11.307-25.205-25.204-25.205h-26.015c-4.143 0-7.5 3.357-7.5 7.5s3.357 7.5 7.5 7.5h26.015c5.627 0 10.204 4.578 10.204 10.205v19.836h-268.124v-19.836c0-5.627 4.577-10.205 10.204-10.205h189.738c4.143 0 7.5-3.357 7.5-7.5s-3.357-7.5-7.5-7.5h-189.738c-13.897 0-25.204 11.307-25.204 25.205v24.229l-39.076 39.077c-3.792 3.79-5.88 8.83-5.88 14.191v93.508c0 4.143 3.357 7.5 7.5 7.5s7.5-3.357 7.5-7.5v-26.793h126.251c4.143 0 7.5-3.357 7.5-7.5s-3.357-7.5-7.5-7.5h-126.251v-51.715c0-1.334.541-2.64 1.485-3.583l39.078-39.079h276.909l39.079 39.079c.958.957 1.485 2.229 1.485 3.583v51.715h-128.772c-4.143 0-7.5 3.357-7.5 7.5s3.357 7.5 7.5 7.5h128.773v142.809c0 4.143 3.357 7.5 7.5 7.5s7.5-3.357 7.5-7.5v-209.523c0-5.359-2.088-10.399-5.878-14.19z"/><path d="m493.161 336.689c-4.143 0-7.5 3.357-7.5 7.5v45.629h-106.686c-4.143 0-7.5 3.357-7.5 7.5s3.357 7.5 7.5 7.5h106.687v79.861c0 6.236-5.074 11.311-11.311 11.311h-180.256c-4.143 0-7.5 3.357-7.5 7.5s3.357 7.5 7.5 7.5h180.256c14.508 0 26.311-11.803 26.311-26.311v-140.49c-.001-4.142-3.358-7.5-7.501-7.5z"/></g></g></svg>