<svg id="Capa_1" enable-background="new 0 0 512.066 512.066" height="512" viewBox="0 0 512.066 512.066" width="512" xmlns="http://www.w3.org/2000/svg"><g><g><path d="m170.576 361.672v87.303l6.657 6.5c2.138 2.087 3.343 4.949 3.343 7.937v31.767c0 5.184-4.203 9.387-9.387 9.387h-24.073c-5.184 0-9.387-4.203-9.387-9.387v-133.507-75.578h31.175z" fill="#f6e2c4"/><path d="m376.338 361.672v87.303l6.657 6.5c2.138 2.087 3.343 4.949 3.343 7.937v31.767c0 5.184-4.203 9.387-9.387 9.387h-24.073c-5.184 0-9.387-4.203-9.387-9.387v-133.507-75.578h31.175z" fill="#f6e2c4"/><g><path d="m404.097 134.122c-30.277 6.813-60.553 6.788-90.83-.073-7.67-1.738-13.724-7.657-15.531-15.311-3.934-16.664-3.831-33.607-.057-50.804 1.813-8.264 8.615-14.551 16.986-15.777 29.345-4.298 58.689-4.313 88.034-.047 8.508 1.237 15.386 7.707 17.062 16.139 3.376 16.984 3.467 33.72-.05 50.184-1.671 7.827-7.805 13.932-15.614 15.689z" fill="#e5bda7"/><path d="m338.267 120.296c-7.67-1.738-13.724-7.657-15.531-15.311-3.934-16.664-3.831-33.607-.057-50.804.242-1.104.58-2.17.992-3.197-3.002.35-6.004.733-9.006 1.173-8.372 1.226-15.173 7.513-16.986 15.777-3.774 17.197-3.876 34.141.057 50.804 1.807 7.654 7.861 13.573 15.531 15.311 30.276 6.861 60.553 6.886 90.83.073 6.399-1.44 11.668-5.802 14.285-11.636-26.705 4.586-53.41 3.861-80.115-2.19z" fill="#dfae91"/><path d="m404.097 224.413c-30.277 6.813-60.553 6.788-90.83-.073-7.67-1.738-13.724-7.657-15.531-15.311-3.934-16.664-3.831-33.607-.057-50.804 1.813-8.264 8.615-14.551 16.986-15.777 29.345-4.298 58.689-4.313 88.034-.047 8.508 1.237 15.386 7.707 17.062 16.139 3.376 16.984 3.467 33.72-.05 50.184-1.671 7.827-7.805 13.932-15.614 15.689z" fill="#f7d8a4"/><path d="m340.691 209.98c-7.67-1.738-13.724-7.657-15.531-15.311-3.934-16.664-3.831-33.607-.057-50.804.216-.983.507-1.936.858-2.858-3.765.411-7.53.889-11.295 1.44-8.372 1.226-15.173 7.513-16.986 15.777-3.774 17.197-3.876 34.141.057 50.804 1.807 7.654 7.861 13.573 15.531 15.311 30.276 6.861 60.553 6.885 90.83.073 6.481-1.458 11.813-5.921 14.393-11.869-25.93 4.154-51.872 3.313-77.8-2.563z" fill="#f5cd8b"/><path d="m404.097 356.185c-30.277 6.813-60.553 6.788-90.83-.073-7.67-1.738-13.724-7.657-15.531-15.311-3.934-16.664-3.831-33.607-.057-50.804 1.813-8.264 8.615-14.551 16.986-15.777 29.345-4.298 58.689-4.313 88.034-.047 8.508 1.237 15.386 7.707 17.062 16.139 3.376 16.984 3.467 33.72-.05 50.184-1.671 7.827-7.805 13.932-15.614 15.689z" fill="#e5bda7"/><path d="m340.691 343.901c-7.67-1.738-13.724-7.657-15.531-15.311-3.934-16.664-3.831-33.606-.057-50.804.398-1.812 1.047-3.521 1.888-5.109-4.108.434-8.217.942-12.325 1.544-8.372 1.226-15.173 7.513-16.986 15.777-3.774 17.197-3.876 34.141.057 50.804 1.807 7.654 7.861 13.573 15.531 15.311 30.276 6.861 60.553 6.885 90.83.073 5.602-1.26 10.345-4.765 13.195-9.531-25.53 3.936-51.074 3.031-76.602-2.754z" fill="#dfae91"/><path d="m424.322 229.505h-131.504c-11.455 0-20.74 9.286-20.74 20.74 0 11.455 9.286 20.74 20.74 20.74h131.504c11.455 0 20.74-9.286 20.74-20.74 0-11.455-9.286-20.74-20.74-20.74z" fill="#c5e97d"/><path d="m443.657 257.29h-131.505c-11.455 0-20.74-9.286-20.74-20.74 0-2.474.456-4.837 1.251-7.037-11.383.084-20.586 9.33-20.586 20.732 0 11.455 9.286 20.74 20.74 20.74h131.504c8.98 0 16.63-5.715 19.515-13.7-.052 0-.127.005-.179.005z" fill="#b1e254"/></g><g><g><path d="m198.679 135.17c-30.277 6.813-60.553 6.788-90.83-.073-7.67-1.738-13.724-7.657-15.531-15.311-3.934-16.664-3.831-33.607-.057-50.804 1.813-8.264 8.615-14.551 16.986-15.777 29.345-4.298 58.689-4.313 88.034-.047 8.508 1.237 15.386 7.707 17.062 16.139 3.376 16.984 3.467 33.72-.05 50.184-1.671 7.827-7.805 13.932-15.614 15.689z" fill="#e5bda7"/><path d="m132.849 121.344c-7.67-1.738-13.724-7.657-15.531-15.311-3.934-16.664-3.831-33.607-.057-50.804.242-1.104.58-2.17.992-3.197-3.002.35-6.004.733-9.006 1.173-8.372 1.226-15.173 7.513-16.986 15.777-3.774 17.197-3.876 34.141.057 50.804 1.807 7.654 7.861 13.573 15.531 15.311 30.276 6.861 60.553 6.886 90.83.073 6.399-1.44 11.668-5.802 14.285-11.636-26.705 4.586-53.41 3.862-80.115-2.19z" fill="#dfae91"/><path d="m198.679 225.461c-30.277 6.813-60.553 6.788-90.83-.073-7.67-1.738-13.724-7.657-15.531-15.311-3.934-16.664-3.831-33.607-.057-50.804 1.813-8.264 8.615-14.551 16.986-15.777 29.345-4.298 58.689-4.313 88.034-.047 8.508 1.237 15.386 7.707 17.062 16.139 3.376 16.984 3.467 33.72-.05 50.184-1.671 7.827-7.805 13.932-15.614 15.689z" fill="#f7d8a4"/><path d="m135.273 211.028c-7.67-1.738-13.724-7.657-15.531-15.311-3.934-16.664-3.831-33.607-.057-50.804.216-.983.507-1.936.858-2.858-3.765.411-7.53.889-11.295 1.44-8.372 1.226-15.173 7.513-16.986 15.777-3.774 17.197-3.876 34.141.057 50.804 1.807 7.654 7.861 13.573 15.531 15.311 30.276 6.861 60.553 6.885 90.83.073 6.481-1.458 11.813-5.921 14.393-11.869-25.929 4.154-51.871 3.313-77.8-2.563z" fill="#f5cd8b"/><path d="m198.679 357.233c-30.277 6.813-60.553 6.788-90.83-.073-7.67-1.738-13.724-7.657-15.531-15.311-3.934-16.664-3.831-33.607-.057-50.804 1.813-8.264 8.615-14.551 16.986-15.777 29.345-4.298 58.689-4.313 88.034-.047 8.508 1.237 15.386 7.707 17.062 16.139 3.376 16.984 3.467 33.72-.05 50.184-1.671 7.827-7.805 13.932-15.614 15.689z" fill="#e5bda7"/><path d="m135.273 344.949c-7.67-1.738-13.724-7.657-15.531-15.311-3.934-16.664-3.831-33.606-.057-50.804.398-1.812 1.047-3.521 1.888-5.109-4.108.434-8.217.942-12.325 1.544-8.372 1.226-15.173 7.513-16.986 15.777-3.774 17.197-3.876 34.141.057 50.804 1.807 7.654 7.861 13.573 15.531 15.311 30.276 6.861 60.553 6.885 90.83.073 5.602-1.26 10.345-4.765 13.195-9.531-25.53 3.936-51.073 3.031-76.602-2.754z" fill="#dfae91"/><path d="m218.904 230.553h-131.504c-11.455 0-20.74 9.286-20.74 20.74 0 11.455 9.286 20.74 20.74 20.74h131.504c11.455 0 20.74-9.286 20.74-20.74.001-11.455-9.285-20.74-20.74-20.74z" fill="#c5e97d"/><path d="m238.239 258.338h-131.504c-11.455 0-20.74-9.286-20.74-20.74 0-2.474.456-4.837 1.251-7.037-11.383.084-20.586 9.33-20.586 20.732 0 11.455 9.286 20.74 20.74 20.74h131.504c8.98 0 16.63-5.715 19.515-13.7-.052 0-.127.005-.18.005z" fill="#b1e254"/></g></g></g><g><path d="m218.905 223.053h-2.919c2.735-3.355 4.71-7.343 5.644-11.714 3.661-17.135 3.685-35.038.071-53.214-1.599-8.041-6.656-14.786-13.528-18.709 6.787-3.906 11.783-10.532 13.457-18.369 3.661-17.135 3.685-35.038.071-53.214-2.29-11.52-11.669-20.4-23.339-22.098-12.504-1.817-25.102-2.869-37.709-3.161v-35.074c0-4.143-3.358-7.5-7.5-7.5s-7.5 3.357-7.5 7.5v35.085c-7.95.199-15.89.701-23.799 1.509-4.121.421-7.12 4.103-6.699 8.224s4.105 7.124 8.223 6.698c24.19-2.471 48.692-1.945 72.825 1.562 5.397.785 9.731 4.876 10.786 10.179.309 1.554.579 3.105.828 4.653h-14.451c-4.142 0-7.5 3.357-7.5 7.5s3.358 7.5 7.5 7.5h15.938c.341 9.364-.434 18.562-2.344 27.501-1.051 4.919-4.947 8.82-9.927 9.94-29.038 6.536-58.486 6.511-87.525-.07-3.858-.874-7.087-3.45-8.831-6.863h43.587c4.142 0 7.5-3.357 7.5-7.5s-3.358-7.5-7.5-7.5h-46.729c-1.261-11.491-.582-23.326 2.052-35.327.078-.356.193-.758.36-1.263 1.303-3.933-.828-8.176-4.76-9.479-3.933-1.306-8.176.828-9.478 4.76-.33.995-.583 1.898-.772 2.764-4.059 18.494-4.03 36.707.083 54.136 1.8 7.624 6.801 14.08 13.481 17.895-6.78 3.839-11.845 10.422-13.565 18.261-4.058 18.495-4.03 36.709.084 54.135.988 4.187 2.953 8.012 5.618 11.252h-3.238c-15.572 0-28.24 12.669-28.24 28.24s12.668 28.24 28.24 28.24h1.907c-2.061 2.938-3.576 6.285-4.371 9.905-4.058 18.495-4.03 36.709.084 54.134 2.44 10.337 10.75 18.542 21.172 20.902 7.989 1.811 16.006 3.153 24.037 4.041v46.743c0 4.143 3.358 7.5 7.5 7.5s7.5-3.357 7.5-7.5v-45.637c2.733.106 5.466.18 8.199.18 3.216 0 6.432-.093 9.648-.24v79.414c0 2.021.815 3.955 2.26 5.366l6.656 6.499c.688.673 1.083 1.61 1.083 2.572v31.766c0 1.041-.847 1.888-1.887 1.888h-24.073c-1.041 0-1.887-.847-1.887-1.888v-47.957c0-4.143-3.358-7.5-7.5-7.5s-7.5 3.357-7.5 7.5v47.957c0 9.312 7.575 16.888 16.887 16.888h24.073c9.312 0 16.887-7.576 16.887-16.888v-31.766c0-4.977-2.042-9.825-5.604-13.304l-4.396-4.293v-77.473c7.434-.873 14.855-2.128 22.25-3.792 10.671-2.401 19.034-10.816 21.303-21.44 3.661-17.135 3.685-35.038.071-53.212-.755-3.799-2.285-7.307-4.412-10.365h1.616c15.572 0 28.24-12.669 28.24-28.24s-12.667-28.239-28.238-28.239zm-119.318-62.172c1.138-5.185 5.457-9.188 10.748-9.964 14.298-2.094 28.693-3.141 43.092-3.141 14.291 0 28.585 1.031 42.776 3.095 5.396.784 9.73 4.875 10.785 10.179.292 1.467.547 2.931.786 4.393h-32.702c-4.142 0-7.5 3.357-7.5 7.5s3.358 7.5 7.5 7.5h34.222c.365 9.454-.407 18.74-2.334 27.762-1.051 4.918-4.947 8.819-9.927 9.939-29.04 6.534-58.488 6.511-87.525-.069-4.875-1.104-8.756-4.92-9.889-9.72-.256-1.086-.489-2.176-.709-3.27h54.243c4.142 0 7.5-3.357 7.5-7.5s-3.358-7.5-7.5-7.5h-56.102c-.472-9.555.368-19.322 2.536-29.204zm97.446 189.035c-29.038 6.535-58.486 6.51-87.526-.07-4.874-1.104-8.755-4.919-9.888-9.72-2.122-8.987-2.984-18.238-2.607-27.659h39.004c4.142 0 7.5-3.357 7.5-7.5s-3.358-7.5-7.5-7.5h-37.372c.283-1.602.591-3.206.943-4.813 1.138-5.186 5.457-9.189 10.748-9.964 14.298-2.094 28.693-3.141 43.092-3.141 14.291 0 28.585 1.031 42.776 3.095 5.396.784 9.73 4.875 10.785 10.179.992 4.991 1.675 9.953 2.052 14.874h-33.968c-4.142 0-7.5 3.357-7.5 7.5s3.358 7.5 7.5 7.5h34.162c-.307 5.848-1.064 11.616-2.274 17.28-1.051 4.918-4.947 8.819-9.927 9.939zm21.872-85.383h-131.505c-7.301 0-13.24-5.939-13.24-13.24s5.939-13.24 13.24-13.24h131.504c7.301 0 13.24 5.939 13.24 13.24s-5.939 13.24-13.239 13.24z"/><path d="m134.345 90.411c4.142 0 7.5-3.357 7.5-7.5s-3.358-7.5-7.5-7.5h-9.184c-4.142 0-7.5 3.357-7.5 7.5s3.358 7.5 7.5 7.5z"/><path d="m148.105 326.76h-7.439c-4.142 0-7.5 3.357-7.5 7.5s3.358 7.5 7.5 7.5h7.439c4.142 0 7.5-3.357 7.5-7.5s-3.358-7.5-7.5-7.5z"/><path d="m452.906 251.293c0-15.571-12.668-28.24-28.24-28.24h-2.922c2.737-3.355 4.713-7.342 5.647-11.714 3.661-17.135 3.685-35.038.071-53.214-1.599-8.041-6.656-14.786-13.528-18.709 6.787-3.906 11.783-10.532 13.457-18.369 3.661-17.135 3.685-35.038.071-53.212-2.29-11.521-11.669-20.402-23.339-22.1-12.517-1.819-25.107-2.864-37.709-3.156v-35.079c0-4.143-3.358-7.5-7.5-7.5s-7.5 3.357-7.5 7.5v35.094c-12.529.312-25.047 1.368-37.491 3.19-11.425 1.673-20.759 10.349-23.226 21.59-4.058 18.496-4.03 36.71.084 54.135 1.8 7.625 6.801 14.081 13.481 17.896-6.78 3.84-11.845 10.423-13.565 18.262-4.058 18.495-4.03 36.709.084 54.135.988 4.185 2.943 8.015 5.607 11.252h-3.226c-15.572 0-28.24 12.669-28.24 28.24s12.668 28.24 28.24 28.24h1.907c-2.062 2.937-3.577 6.284-4.371 9.905-4.058 18.495-4.03 36.709.084 54.134 2.44 10.337 10.75 18.542 21.172 20.902 7.989 1.811 16.006 3.153 24.037 4.041v126.663c0 9.312 7.576 16.888 16.887 16.888h24.073c9.312 0 16.887-7.576 16.887-16.888v-31.766c0-4.977-2.042-9.825-5.604-13.304l-4.396-4.293v-14.577c0-4.143-3.358-7.5-7.5-7.5s-7.5 3.357-7.5 7.5v17.736c0 2.021.815 3.955 2.26 5.366l6.656 6.499c.688.673 1.083 1.61 1.083 2.572v31.766c0 1.041-.847 1.888-1.887 1.888h-24.073c-1.041 0-1.887-.847-1.887-1.888v-125.556c2.733.106 5.466.18 8.199.18 3.216 0 6.432-.093 9.648-.24v29.716c0 4.143 3.358 7.5 7.5 7.5s7.5-3.357 7.5-7.5v-30.934c7.434-.873 14.854-2.128 22.25-3.792 10.672-2.401 19.035-10.817 21.304-21.44 3.661-17.135 3.685-35.038.071-53.212-.755-3.8-2.288-7.306-4.416-10.365h1.62c15.572-.002 28.24-12.671 28.24-28.242zm-147.557-180.704c1.138-5.185 5.457-9.188 10.748-9.963 14.298-2.094 28.696-3.142 43.095-3.142 14.29 0 28.582 1.032 42.772 3.095 5.397.785 9.731 4.876 10.786 10.181.309 1.554.579 3.104.828 4.651h-14.45c-4.142 0-7.5 3.357-7.5 7.5s3.358 7.5 7.5 7.5h15.938c.341 9.364-.434 18.562-2.344 27.503-1.05 4.917-4.947 8.818-9.927 9.938-29.039 6.535-58.487 6.51-87.525-.07-3.858-.874-7.087-3.449-8.831-6.863h43.586c4.142 0 7.5-3.357 7.5-7.5s-3.358-7.5-7.5-7.5h-46.728c-1.262-11.49-.582-23.325 2.052-35.33zm0 90.292c1.138-5.185 5.457-9.188 10.748-9.964 14.298-2.094 28.693-3.141 43.092-3.141 14.291 0 28.585 1.031 42.776 3.095 5.396.784 9.73 4.875 10.785 10.179.292 1.467.547 2.931.786 4.393h-32.702c-4.142 0-7.5 3.357-7.5 7.5s3.358 7.5 7.5 7.5h34.222c.365 9.454-.407 18.74-2.334 27.763-1.05 4.917-4.947 8.818-9.927 9.938-29.041 6.534-58.488 6.511-87.525-.069-4.875-1.104-8.756-4.92-9.889-9.72-.256-1.086-.489-2.176-.709-3.27h54.243c4.142 0 7.5-3.357 7.5-7.5s-3.358-7.5-7.5-7.5h-56.102c-.472-9.555.368-19.322 2.536-29.204zm-25.427 90.412c0-7.301 5.939-13.24 13.24-13.24h131.504c7.301 0 13.24 5.939 13.24 13.24s-5.939 13.24-13.24 13.24h-131.504c-7.301 0-13.24-5.939-13.24-13.24zm122.873 98.623c-29.038 6.536-58.486 6.511-87.527-.07-4.874-1.104-8.755-4.919-9.888-9.72-2.122-8.987-2.984-18.238-2.607-27.659h39.004c4.142 0 7.5-3.357 7.5-7.5s-3.358-7.5-7.5-7.5h-37.372c.283-1.602.591-3.206.943-4.813 1.138-5.186 5.457-9.189 10.748-9.964 14.298-2.094 28.693-3.141 43.092-3.141 14.291 0 28.585 1.031 42.776 3.095 5.396.784 9.73 4.875 10.785 10.179.992 4.991 1.675 9.953 2.052 14.874h-33.968c-4.142 0-7.5 3.357-7.5 7.5s3.358 7.5 7.5 7.5h34.162c-.307 5.848-1.065 11.617-2.275 17.281-1.048 4.917-4.945 8.818-9.925 9.938z"/><path d="m330.923 90.411h9.184c4.142 0 7.5-3.357 7.5-7.5s-3.358-7.5-7.5-7.5h-9.184c-4.142 0-7.5 3.357-7.5 7.5s3.358 7.5 7.5 7.5z"/><path d="m353.866 326.76h-7.439c-4.142 0-7.5 3.357-7.5 7.5s3.358 7.5 7.5 7.5h7.439c4.142 0 7.5-3.357 7.5-7.5s-3.357-7.5-7.5-7.5z"/></g></g></svg>