<svg id="Capa_1" enable-background="new 0 0 515.357 515.357" height="512" viewBox="0 0 515.357 515.357" width="512" xmlns="http://www.w3.org/2000/svg"><g><g><path d="m26.534 287.769 8.63 39.881c4.464 20.631 22.714 35.354 43.822 35.354h107.17c21.108 0 39.358-14.723 43.822-35.354l8.63-39.881 8.264-41.73-106.5-34.179-123.836 38.106z" fill="#d8efa7"/><g><g id="XMLID_277_"><g><path d="m192.017 242.806c-19.378-5.202-39.378-7.84-59.446-7.84-20.067 0-40.069 2.638-59.454 7.841l-20.268 5.443 6.39 10.175-4.96 21.235-2.479-11.454-7.115-26.902-28.149 8.662 9.999 37.803 8.63 39.881c4.464 20.631 22.714 35.354 43.822 35.354h107.17c15.98 0 30.324-8.451 38.286-21.502-4.137 1.255-8.517 1.939-13.021 1.939h-107.17c-18.011 0-33.94-10.719-41-26.681-1.475-3.335.386-7.152 3.909-8.094.021-.006.042-.011.063-.017l13.673-3.678c16.847-4.522 34.233-6.815 51.675-6.815s34.825 2.293 51.663 6.814l13.687 3.679c5.021 1.351 10.204 2.035 15.406 2.035 7.324 0 14.494-1.386 21.178-3.955l4.103-18.96 6.102-30.813z" fill="#c5e97d"/><path d="m249.894 247.546-82.984-35.686-107.225 5.833-45.828 56.56c10.09 16.75 30.22 25.08 49.47 19.91l13.68-3.68c36.4-9.77 74.73-9.77 111.12 0l13.69 3.68c3.83 1.03 7.7 1.52 11.51 1.52 15.35 0 29.87-8.01 37.96-21.43z" fill="#f6e2c4"/><g><path d="m48.195 278.2c-.81-1.33-1.55-2.71-2.22-4.14-2.8-5.98-4.17-12.39-4.17-18.78 0-8.72 2.56-17.38 7.6-24.84l.247-.364-35.795 44.178c10.09 16.75 30.22 25.08 49.47 19.91l1.027-.276c-6.519-3.68-12.138-9.012-16.159-15.688z" fill="#f8deb6"/></g><path d="m250.077 226.493c8.73 12.92 10.03 29.48 3.43 43.62-.67 1.43-1.41 2.81-2.22 4.14l-63.16-16.96c-36.39-9.77-74.72-9.77-111.12 0l-63.15 16.96c-.81-1.33-1.55-2.71-2.22-4.14-2.8-5.98-4.17-12.39-4.17-18.78 0-8.72 2.56-17.38 7.6-24.84l.55-.81c21.57-31.94 57.59-51.07 96.13-51.07h41.65c38.53 0 74.55 19.13 96.13 51.07z" fill="#f8deb6"/></g></g><circle cx="130.678" cy="323.406" fill="#c5e97d" r="15.209"/><path d="m188.052 179.932-.542 1.333-21.607 6.482-60.638-1.761c12.875-4.84 26.676-7.426 40.82-7.426h37.269c-9.66-2.583-19.718-3.947-29.956-3.947h-41.65c-38.54 0-74.56 19.13-96.13 51.07l-.55.81c-5.04 7.46-7.6 16.12-7.6 24.84 0 6.39 1.37 12.8 4.17 18.78.67 1.43 1.41 2.81 2.22 4.14l29.367-7.887c-.94-3.644-1.419-7.367-1.419-11.086 0-8.72 2.56-17.38 7.6-24.84l.55-.81c3.615-5.353 7.639-10.342 12.012-14.942 4.116-4.33 10.237-5.951 16.034-4.505 2.847.71 5.824 1.088 8.888 1.088h.002c1.402 0 2.803-.079 4.196-.238l15.163-1.723c5.092-.579 10.273-.873 15.398-.873 13.288 0 26.477 1.938 39.202 5.759 3.699 1.111 7.511 1.674 11.331 1.674 17.285 0 32.002-11.27 37.204-26.851-6.771-3.73-13.932-6.766-21.334-9.087z" fill="#f7d8a4"/><path d="m277.067 287.614 8.63 39.881c4.464 20.631 22.714 35.354 43.822 35.354h107.17c21.108 0 39.358-14.723 43.822-35.354l8.63-39.881 8.264-41.73-106.5-34.179-123.837 38.106z" fill="#d8efa7"/><path d="m442.55 242.651c-19.378-5.202-39.378-7.84-59.446-7.84-20.067 0-40.069 2.638-59.454 7.841l-20.268 5.443 6.39 10.175-4.96 21.235-2.479-11.455-7.115-26.902-28.149 8.662 9.999 37.803 8.63 39.881c4.464 20.631 22.714 35.354 43.822 35.354h107.17c15.98 0 30.324-8.451 38.286-21.502-4.137 1.255-8.517 1.939-13.021 1.939h-107.17c-18.011 0-33.94-10.719-41-26.681-1.475-3.335.386-7.152 3.909-8.094.021-.006.042-.011.063-.017l13.673-3.678c16.847-4.522 34.233-6.815 51.675-6.815s34.825 2.293 51.663 6.814l13.687 3.679c5.021 1.351 10.204 2.035 15.406 2.035 7.324 0 14.494-1.386 21.178-3.955l4.103-18.96 6.102-30.813z" fill="#c5e97d"/><path d="m500.427 247.391-82.983-35.686-107.225 5.833-45.828 56.56c10.09 16.75 30.22 25.08 49.47 19.91l13.68-3.68c36.4-9.77 74.73-9.77 111.12 0l13.69 3.68c3.83 1.03 7.7 1.52 11.51 1.52 15.35 0 29.87-8.01 37.96-21.43z" fill="#f6e2c4"/><g><path d="m298.728 278.045c-.81-1.33-1.55-2.71-2.22-4.14-2.8-5.98-4.17-12.39-4.17-18.78 0-8.72 2.56-17.38 7.6-24.84l.247-.364-35.795 44.178c10.09 16.75 30.22 25.08 49.47 19.91l1.027-.276c-6.519-3.68-12.138-9.013-16.159-15.688z" fill="#f8deb6"/></g><path d="m500.611 226.338c8.73 12.92 10.03 29.48 3.43 43.62-.67 1.43-1.41 2.81-2.22 4.14l-63.16-16.96c-36.39-9.77-74.72-9.77-111.12 0l-63.15 16.96c-.81-1.33-1.55-2.71-2.22-4.14-2.8-5.98-4.17-12.39-4.17-18.78 0-8.72 2.56-17.38 7.6-24.84l.55-.81c21.57-31.94 57.59-51.07 96.13-51.07h41.65c38.53 0 74.55 19.13 96.13 51.07z" fill="#f8deb6"/><circle cx="381.211" cy="323.251" fill="#c5e97d" r="15.209"/><path d="m438.585 179.777-.542 1.333-21.607 6.482-60.638-1.761c12.875-4.84 26.676-7.426 40.82-7.426h37.269c-9.66-2.583-19.718-3.947-29.956-3.947h-41.65c-38.54 0-74.56 19.13-96.13 51.07l-.55.81c-5.04 7.46-7.6 16.12-7.6 24.84 0 6.39 1.37 12.8 4.17 18.78.67 1.43 1.41 2.81 2.22 4.14l29.367-7.887c-.94-3.644-1.419-7.367-1.419-11.086 0-8.72 2.56-17.38 7.6-24.84l.55-.81c3.615-5.353 7.639-10.342 12.012-14.942 4.116-4.33 10.237-5.951 16.034-4.505 2.847.71 5.824 1.088 8.888 1.088h.002c1.402 0 2.803-.079 4.196-.238l15.163-1.723c5.092-.579 10.273-.873 15.398-.873 13.288 0 26.477 1.938 39.202 5.759 3.699 1.111 7.511 1.674 11.331 1.674 17.285 0 32.002-11.27 37.204-26.851-6.771-3.731-13.932-6.766-21.334-9.087z" fill="#f7d8a4"/><path d="m64.97 174.31c0 13.109 11.412 23.298 24.437 21.817l15.149-1.722c20.361-2.314 40.981-.469 60.607 5.424 15.56 4.672 31.224-6.979 31.224-23.226 0-13.393-10.857-24.25-24.25-24.25h-85.21c-12.127-.001-21.957 9.83-21.957 21.957z" fill="#d8efa7"/><path d="m172.65 187.022c-19.627-5.893-40.246-7.738-60.607-5.424l-15.149 1.722c-13.025 1.48-24.437-8.708-24.437-21.817 0-1.375.139-2.729.381-4.035-4.805 4.028-7.869 10.082-7.869 16.842 0 13.109 11.412 23.298 24.437 21.817l15.149-1.722c20.361-2.314 40.981-.469 60.607 5.424 13.828 4.152 27.734-4.569 30.659-17.968-5.997 5.371-14.6 7.734-23.171 5.161z" fill="#c5e97d"/><path d="m315.184 174.31c0 13.109 11.412 23.298 24.437 21.817l15.149-1.722c20.361-2.314 40.981-.469 60.607 5.424 15.56 4.672 31.224-6.979 31.224-23.226 0-13.393-10.857-24.25-24.25-24.25h-85.21c-12.126-.001-21.957 9.83-21.957 21.957z" fill="#d8efa7"/><path d="m417.59 184.444c-19.627-5.893-40.246-7.738-60.607-5.424l-15.149 1.722c-11.392 1.295-21.55-6.337-23.918-17.042-1.739 3.145-2.732 6.761-2.732 10.609 0 13.109 11.412 23.298 24.437 21.817l15.149-1.722c20.361-2.314 40.981-.469 60.607 5.424 15.56 4.672 31.224-6.979 31.224-23.226 0-1.501-.138-2.978-.399-4.404-5.094 10.004-16.883 15.768-28.612 12.246z" fill="#c5e97d"/></g></g><g><path d="m130.678 300.696c-12.522 0-22.709 10.188-22.709 22.71 0 12.521 10.188 22.709 22.709 22.709s22.709-10.188 22.709-22.709c0-12.522-10.187-22.71-22.709-22.71zm0 30.419c-4.251 0-7.709-3.458-7.709-7.709s3.458-7.71 7.709-7.71 7.709 3.459 7.709 7.71-3.458 7.709-7.709 7.709z"/><path d="m200.67 308.919h-7.11c-4.142 0-7.5 3.357-7.5 7.5s3.358 7.5 7.5 7.5h7.11c4.142 0 7.5-3.357 7.5-7.5s-3.358-7.5-7.5-7.5z"/><path d="m177.332 329.932h-2.921c-4.142 0-7.5 3.357-7.5 7.5s3.358 7.5 7.5 7.5h2.921c4.142 0 7.5-3.357 7.5-7.5s-3.358-7.5-7.5-7.5z"/><path d="m90.167 319.271h-18.11c-4.142 0-7.5 3.357-7.5 7.5s3.358 7.5 7.5 7.5h18.11c4.142 0 7.5-3.357 7.5-7.5s-3.358-7.5-7.5-7.5z"/><path d="m506.503 222.289-.547-.81c-1.845-2.73-3.889-5.495-6.076-8.217-2.595-3.229-7.314-3.742-10.544-1.149-3.229 2.595-3.743 7.315-1.149 10.544 1.929 2.401 3.726 4.83 5.341 7.222l.547.81c6.91 10.227 8.187 23.391 3.491 34.742l-57.276-15.38c-33.725-9.056-69.609-9.988-103.771-2.701-4.051.864-6.634 4.849-5.77 8.899.864 4.052 4.847 6.635 8.9 5.771 31.85-6.796 65.307-5.924 96.751 2.518l52.036 13.973c-9.057 8.304-21.956 11.769-34.46 8.41l-13.687-3.676c-37.619-10.102-77.389-10.102-115.009 0l-13.686 3.676c-12.505 3.357-25.403-.106-34.46-8.41l31.899-8.565c4-1.074 6.373-5.188 5.299-9.188-1.075-4-5.194-6.374-9.188-5.298l-37.139 9.972c-4.696-11.351-3.419-24.516 3.49-34.742l.548-.812c10.686-15.816 25.287-28.47 42.399-36.802.94 1.138 1.966 2.213 3.081 3.208 6.253 5.583 14.615 8.242 22.945 7.295l15.149-1.722c19.462-2.211 38.844-.479 57.603 5.155 3.05.915 6.151 1.366 9.223 1.366 6.709 0 13.277-2.15 18.857-6.301 3.558-2.646 6.452-5.912 8.583-9.597 5.706 2.697 11.201 5.904 16.398 9.581 1.315.931 2.827 1.378 4.325 1.378 2.352 0 4.667-1.104 6.129-3.169 2.393-3.382 1.59-8.062-1.791-10.455-6.58-4.655-13.588-8.642-20.881-11.913.017-.433.037-.865.037-1.301 0-17.507-14.243-31.75-31.75-31.75h-85.209c-16.243 0-29.458 13.215-29.458 29.457 0 1.737.163 3.457.463 5.144-19.596 9.482-36.312 23.939-48.531 42.025l-.548.812c-.487.721-.947 1.456-1.395 2.197-.446-.74-.897-1.478-1.384-2.198l-.547-.81c-12.948-19.163-30.838-34.162-51.892-43.58.017-.432.037-.862.037-1.297 0-17.507-14.243-31.75-31.75-31.75h-45.572c-4.142 0-7.5 3.357-7.5 7.5s3.358 7.5 7.5 7.5h45.572c9.236 0 16.75 7.514 16.75 16.75 0 5.349-2.461 10.248-6.753 13.44s-9.691 4.142-14.814 2.603c-20.716-6.22-42.117-8.136-63.611-5.692l-15.149 1.722c-4.146.474-8.147-.8-11.261-3.58s-4.829-6.61-4.829-10.785c0-7.972 6.486-14.457 14.458-14.457h7.675c4.142 0 7.5-3.357 7.5-7.5s-3.358-7.5-7.5-7.5h-7.675c-16.243 0-29.458 13.215-29.458 29.457 0 1.737.163 3.457.463 5.144-19.597 9.484-36.313 23.941-48.531 42.025l-.548.812c-10.153 15.028-11.689 34.568-4.008 50.996 3.55 7.594 8.733 13.97 14.963 18.858l8.026 37.091c5.174 23.913 26.687 41.269 51.152 41.269h107.17c24.465 0 45.978-17.355 51.153-41.269l8.027-37.098c4.837-3.797 9.037-8.495 12.336-13.959 3.302 5.469 7.508 10.167 12.349 13.966l8.026 37.091c5.174 23.913 26.687 41.269 51.152 41.269h107.17c24.465 0 45.978-17.355 51.153-41.269l8.026-37.093c6.23-4.888 11.412-11.263 14.963-18.857 7.682-16.427 6.145-35.968-4.008-50.996zm-169.362-62.436h85.209c9.236 0 16.75 7.514 16.75 16.75 0 5.349-2.461 10.248-6.753 13.44s-9.689 4.142-14.814 2.603c-14.9-4.474-30.152-6.721-45.542-6.721-6.005 0-12.036.343-18.069 1.028l-15.149 1.722c-4.147.474-8.146-.8-11.261-3.58-3.114-2.78-4.829-6.61-4.829-10.785.001-7.972 6.487-14.457 14.458-14.457zm-315.86 70.837.548-.812c10.685-15.815 25.286-28.468 42.399-36.802.94 1.138 1.966 2.213 3.081 3.208 6.253 5.583 14.612 8.242 22.945 7.295l15.149-1.722c19.463-2.211 38.844-.479 57.604 5.155 3.05.915 6.151 1.366 9.223 1.366 6.708 0 13.277-2.15 18.856-6.301 3.556-2.645 6.448-5.908 8.579-9.589 17.654 8.314 32.674 21.146 43.648 37.39l.547.81c6.91 10.227 8.187 23.391 3.491 34.742l-57.276-15.38c-37.62-10.102-77.39-10.102-115.009 0l-57.276 15.38c-4.696-11.35-3.418-24.514 3.491-34.74zm5.639 47.82 52.036-13.973c35.076-9.416 72.155-9.416 107.229 0l52.037 13.973c-9.057 8.305-21.956 11.77-34.46 8.41l-13.687-3.676c-37.619-10.102-77.389-10.102-115.009 0l-13.686 3.676c-12.504 3.357-25.403-.106-34.46-8.41zm195.728 47.554c-3.692 17.059-19.039 29.44-36.492 29.44h-107.17c-17.454 0-32.8-12.382-36.492-29.44l-5.41-25.002c4.72 1.398 9.661 2.134 14.682 2.133 4.47 0 9.007-.58 13.504-1.788l13.686-3.676c35.076-9.417 72.155-9.417 107.229 0l13.687 3.676c4.498 1.208 9.032 1.789 13.504 1.789 5.022 0 9.962-.74 14.683-2.139zm250.214 0c-3.692 17.059-19.039 29.44-36.492 29.44h-107.17c-17.454 0-32.8-12.382-36.492-29.44l-5.41-25.002c4.72 1.398 9.661 2.134 14.682 2.133 4.47 0 9.007-.58 13.504-1.788l13.686-3.676c35.076-9.417 72.156-9.417 107.229 0l13.687 3.676c4.498 1.208 9.032 1.789 13.503 1.788 5.021 0 9.962-.736 14.682-2.135z"/><path d="m380.893 300.696c-12.522 0-22.709 10.188-22.709 22.71 0 12.521 10.188 22.709 22.709 22.709s22.709-10.188 22.709-22.709c0-12.522-10.187-22.71-22.709-22.71zm0 30.419c-4.251 0-7.709-3.458-7.709-7.709s3.458-7.71 7.709-7.71 7.709 3.459 7.709 7.71-3.458 7.709-7.709 7.709z"/><path d="m450.884 308.919h-7.11c-4.142 0-7.5 3.357-7.5 7.5s3.358 7.5 7.5 7.5h7.11c4.142 0 7.5-3.357 7.5-7.5s-3.357-7.5-7.5-7.5z"/><path d="m427.546 329.932h-2.921c-4.142 0-7.5 3.357-7.5 7.5s3.358 7.5 7.5 7.5h2.921c4.142 0 7.5-3.357 7.5-7.5s-3.358-7.5-7.5-7.5z"/><path d="m331.138 317.887h-12.859c-4.142 0-7.5 3.357-7.5 7.5s3.358 7.5 7.5 7.5h12.859c4.142 0 7.5-3.357 7.5-7.5s-3.358-7.5-7.5-7.5z"/></g></g></svg>