<svg id="Capa_1" enable-background="new 0 0 511.8 511.8" height="512" viewBox="0 0 511.8 511.8" width="512" xmlns="http://www.w3.org/2000/svg"><g><g><path d="m341.596 107.92.492-1.641c10.126-33.779-6.554-69.802-38.865-83.931l-32.451-14.19c-5.138-2.247-10.893 1.518-10.893 7.126v8.173l-12.294 4.098c-11.914 3.971-21.34 13.2-25.563 25.026l-11.675 38.776 42.664 68.954h65.522z" fill="#fcf6ed"/><path d="m243.416 102.658 12.616-41.463c4.564-12.646 14.75-22.514 27.625-26.761l4.224-1.393c5.342-1.762 9.026-6.675 9.185-12.297.016-.579.034-.971.053-1.065l-26.347-11.521c-5.138-2.247-10.893 1.518-10.893 7.126v8.173l-12.294 4.098c-11.914 3.971-21.34 13.199-25.563 25.026l-11.675 38.776 42.664 68.954h26.455z" fill="#fcf1de"/><path d="m394.232 178.008c11.784-18.813 4.389-43.697-15.757-53.021l-166.323-76.974c-28.056-12.984-59.729 8.982-57.4 39.809l.874 11.567 9.247 67.271 191.591 53.529z" fill="#fcf6ed"/><path d="m190.776 132.274-.874-11.567c-2.328-30.827 29.345-52.793 57.4-39.809l151.818 70.262c-2.235-11.049-9.476-21.003-20.645-26.172l-166.323-76.975c-28.056-12.984-59.729 8.982-57.4 39.809l.874 11.567 9.248 67.271 31.854 8.899z" fill="#fcf1de"/><g id="XMLID_297_"><g><path d="m394.23 178.011c16.85 6.1 25.9 24.26 20.78 41.3l-23.87 60.89-263.66-32.22-14.17-78.79-1.28-7.76c-6.76-40.73 32.83-73.67 71.65-59.62z" fill="#fcf6ed"/></g></g><path d="m153.775 202.874-1.28-7.76c-6.76-40.73 32.83-73.67 71.65-59.62l191.965 69.474c-1.685-11.954-9.767-22.572-21.88-26.957l-210.55-76.2c-38.82-14.05-78.41 18.89-71.65 59.62l1.28 7.76 14.17 78.79 35.18 4.299z" fill="#fcf1de"/><path d="m432.273 252.889c3.068-15.849-7.323-31.174-23.182-34.19l-268.226-51.001c-41.957-7.978-77.441 31.353-65.202 72.27l3.865 12.921 38.347 120.919h289.891z" fill="#fcf6ed"/><path d="m122.271 287.173-3.865-12.92c-12.239-40.917 23.245-80.248 65.202-72.27l249.121 47.368c1.019-14.531-8.965-27.861-23.638-30.651l-268.226-51.001c-41.957-7.978-77.44 31.353-65.202 72.27l3.865 12.92 38.347 120.919h31.871z" fill="#fcf1de"/><g><path d="m255.044 260.537-22.594-15.953c-2.397-1.692-5.6-1.692-7.997 0l-22.594 15.953c-.513.362-1.198.362-1.711 0l-22.594-15.953c-2.397-1.692-5.6-1.692-7.997 0l-22.594 15.953c-.513.362-1.198.362-1.711 0l-22.594-15.953c-2.397-1.692-5.6-1.692-7.997 0l-22.591 15.953c-.513.362-1.198.362-1.711 0l-22.594-15.953c-2.397-1.692-5.6-1.692-7.997 0l-15.987 11.288c-4.529 3.198-6.72 8.783-5.574 14.207l43.417 205.529c3.533 16.725 18.293 28.692 35.386 28.692h277.778c17.094 0 31.853-11.967 35.386-28.692l43.417-205.529c1.146-5.424-1.046-11.01-5.574-14.207l-15.987-11.288c-2.397-1.692-5.6-1.692-7.997 0l-22.594 15.953c-.513.362-1.198.362-1.711 0l-22.594-15.953c-2.397-1.692-5.6-1.692-7.997 0l-22.594 15.953c-.513.362-1.198.362-1.711 0l-22.594-15.953c-2.397-1.692-5.6-1.692-7.997 0l-22.594 15.953c-.513.362-1.198.362-1.711 0l-22.594-15.953c-2.397-1.692-5.6-1.692-7.997 0l-22.594 15.953c-.508.362-1.194.362-1.707 0z" fill="#cfeffc"/></g><g id="XMLID_299_"><g><path d="m179.748 478.766c-19.293 0-35.953-11.967-39.94-28.692l-45.559-191.075-2.179 1.539c-.513.362-1.198.362-1.711 0l-22.594-15.953c-2.397-1.692-5.6-1.692-7.997 0l-15.987 11.288c-4.529 3.198-6.72 8.783-5.574 14.208l43.417 205.529c3.533 16.725 18.293 28.692 35.386 28.692h277.778c15.997 0 29.948-10.482 34.568-25.534h-249.608z" fill="#a9e4f9"/><path d="m91.48 260.811 36 243.49h-10.47c-17.09 0-31.85-11.97-35.39-28.69l-43.41-205.53c-1.15-5.43 1.04-11.01 5.57-14.21l15.99-11.29c2.4-1.69 5.6-1.69 8 0l22.59 15.96c.33.23.73.31 1.11.24z" fill="#81d9f8"/><g fill="#a9e4f9"><path d="m201.4 260.811 6.37 241.49v2h-42.9l-18.49-243.49-.01-.03c.21-.03.42-.11.6-.24l22.59-15.96c2.4-1.69 5.6-1.69 8 0l22.59 15.96c.37.26.83.33 1.24.21z"/><path d="m310.69 260.801v.01l-6.37 241.49v2h-48.28v-243.5c.25-.02.5-.11.72-.26l22.59-15.96c2.4-1.69 5.6-1.69 8 0l22.59 15.96c.23.16.49.25.75.26z"/><path d="m420.61 260.811-36 243.49h-37.39l18.49-243.49c.29 0 .59-.09.84-.27l22.59-15.96c2.4-1.69 5.6-1.69 8 0l22.59 15.96c.26.19.58.28.88.27z"/></g></g></g><g fill="#81d9f8"><path d="m162.679 475.455 2.19 28.846h42.9v-2l-.621-23.535h-27.402c-6.05 0-11.843-1.179-17.067-3.311z"/><path d="m256.04 478.766v25.535h48.28v-2l.621-23.535z"/><path d="m388.385 478.766h-39.226l-1.939 25.535h37.39z"/></g></g><path d="m472.344 249.745-15.987-11.287c-4.978-3.518-11.669-3.517-16.648-.001l-.429.303c-1.018-4.225-2.779-8.28-5.292-11.986-2.853-4.208-6.472-7.7-10.633-10.351 2.706-16.438-4.976-33.135-19.066-41.837 3.569-9.121 4.062-19.248 1.229-28.782-3.627-12.206-12.335-22.274-23.892-27.623l-31.136-14.41c3.662-15.746 2.304-32.385-3.972-47.359-1.602-3.822-5.999-5.623-9.815-4.019-3.82 1.601-5.62 5.995-4.019 9.815 4.651 11.1 5.952 23.333 3.837 35.097l-104.488-48.356c4.054-6.682 10.323-11.746 17.924-14.279l12.293-4.099c3.062-1.021 5.128-3.887 5.128-7.115v-8.172c0-.077 0-.15.126-.232.125-.083.192-.054.263-.021l32.451 14.189c5.522 2.416 10.662 5.62 15.274 9.522 3.163 2.676 7.895 2.279 10.57-.881 2.676-3.162 2.281-7.895-.881-10.57-5.723-4.841-12.099-8.816-18.954-11.814l-32.45-14.189c-4.739-2.074-10.154-1.621-14.484 1.212-4.33 2.832-6.915 7.611-6.915 12.785v2.767l-7.165 2.389c-11.575 3.859-21.03 11.758-26.858 22.18l-3.053-1.413c-15.617-7.227-33.379-5.688-47.519 4.119-14.139 9.806-21.807 25.903-20.511 43.062l.394 5.208c-7.778 2.346-15.151 6.271-21.697 11.717-16.975 14.122-24.953 35.559-21.342 57.342l.276 1.664c-8.424 3.607-16.118 9.048-22.532 16.157-13.827 15.324-19.372 35.773-15.371 55.709-3.921-.897-8.142-.141-11.558 2.271l-15.987 11.288c-6.982 4.931-10.353 13.521-8.586 21.884l43.417 205.529c4.24 20.073 22.209 34.642 42.725 34.642h277.777c20.516 0 38.484-14.568 42.725-34.642l27.65-130.896c.856-4.053-1.735-8.032-5.788-8.888-4.048-.854-8.032 1.735-8.888 5.788l-27.65 130.896c-2.784 13.177-14.58 22.741-28.049 22.741h-1.486l34.205-231.365 20.525-14.493 15.659 11.057c2.084 1.471 3.09 4.034 2.562 6.53l-9.134 43.24c-.856 4.053 1.735 8.032 5.788 8.888 4.048.857 8.032-1.734 8.888-5.788l9.134-43.24c1.768-8.362-1.602-16.952-8.585-21.883zm-310.114-162.488c-.891-11.797 4.381-22.864 14.103-29.606 9.721-6.742 21.935-7.799 32.669-2.831l166.323 76.975c7.649 3.54 13.413 10.204 15.814 18.283 1.829 6.154 1.566 12.684-.639 18.604l-204.264-73.924c-7.786-2.817-15.821-4.023-23.718-3.686zm-26.667 29.586c12.835-10.678 29.868-13.662 45.569-7.979l210.548 76.197c10.969 3.969 17.737 14.779 17.192 25.962l-266.606-50.693c-7.709-1.464-15.429-1.521-22.859-.274-2.671-16.421 3.359-32.567 16.156-43.213zm-42.054 73.678c11.666-12.93 28.847-18.711 45.954-15.455l268.226 51.001c5.698 1.083 10.629 4.323 13.884 9.124 2.722 4.015 3.974 8.716 3.673 13.478l-4.66 3.291-19.123-13.502c-4.978-3.518-11.668-3.517-16.649-.001l-19.124 13.503-19.123-13.503c-4.978-3.516-11.668-3.514-16.649 0l-19.123 13.503-19.123-13.503c-4.98-3.516-11.67-3.516-16.648 0l-19.124 13.503-19.123-13.502c-4.978-3.518-11.668-3.517-16.649-.001l-19.123 13.503-19.123-13.503c-4.979-3.516-11.669-3.514-16.649 0l-19.123 13.503-19.124-13.503c-4.98-3.516-11.67-3.516-16.648 0l-19.124 13.503-5.244-3.703-3.122-10.439c-4.99-16.684-1.005-34.366 10.661-47.297zm218.457 306.279 6.11-231.618 20.167-14.241 19.643 13.87-17.622 231.989zm-117.96-231.42 6.104 231.42h-28.322l-17.634-232.157 19.403-13.701zm14.986-.696 19.461-13.742 20.092 14.187v231.671h-33.43zm54.552.241 19.804-13.983 19.731 13.934-6.117 231.924h-33.417v-231.875zm-174.582 209.134-43.417-205.53c-.527-2.496.479-5.06 2.562-6.53l15.659-11.057 20.848 14.72 15.256 103.186c.551 3.727 3.752 6.404 7.409 6.404.365 0 .735-.026 1.106-.082 4.098-.605 6.929-4.418 6.322-8.516l-15.115-102.246 19.071-13.466 20.507 14.48 17.575 231.378h-22.867l-14.483-97.958c-.606-4.099-4.425-6.936-8.516-6.322-4.098.605-6.929 4.418-6.322 8.516l14.158 95.765h-1.704c-13.469-.001-25.264-9.566-28.049-22.742zm266.346 22.741 17.589-231.566 20.241-14.292 19.332 13.65-34.329 232.208z"/></g></svg>