<svg id="Filled" height="512" viewBox="0 0 512 512" width="512" xmlns="http://www.w3.org/2000/svg"><circle cx="256" cy="256" fill="#e09f2c" r="224"/><path d="m24.55 240h215.45v-215.45c-115.38 7.85-207.6 100.07-215.45 215.45z" fill="#eba72e"/><path d="m192 192h48v48h-48z" fill="#f7b030"/><path d="m192 144h48v48h-48z" fill="#eba72e"/><path d="m192 96h48v48h-48z" fill="#f7b030"/><path d="m192 48h48v48h-48z" fill="#eba72e"/><path d="m144 64 48-16v48h-48z" fill="#f7b030"/><path d="m144 96h48v48h-48z" fill="#eba72e"/><path d="m144 144h48v48h-48z" fill="#f7b030"/><path d="m144 192h48v48h-48z" fill="#eba72e"/><path d="m96 96h48v48h-48z" fill="#f7b030"/><path d="m96 144h48v48h-48z" fill="#eba72e"/><path d="m64 144h32v48h-48z" fill="#f7b030"/><path d="m48 192h48v48h-48z" fill="#eba72e"/><path d="m24.55 272h215.45v215.45c-115.38-7.85-207.6-100.07-215.45-215.45z" fill="#eba72e"/><path d="m96 272h48v48h-48z" fill="#f7b030"/><path d="m272 272h215.45c-7.85 115.38-100.07 207.6-215.45 215.45z" fill="#eba72e"/><path d="m487.45 240h-215.45v-215.45c115.38 7.85 207.6 100.07 215.45 215.45z" fill="#eba72e"/><g fill="#f7b030"><path d="m272 192h48v48h-48z" transform="matrix(-1 0 0 -1 592 432)"/><path d="m272 96h48v48h-48z" transform="matrix(-1 0 0 -1 592 240)"/><path d="m360 56-40-8v48h48z"/><path d="m320 144h48v48h-48z" transform="matrix(-1 0 0 -1 688 336)"/><path d="m368 96h48v48h-48z" transform="matrix(-1 0 0 -1 784 240)"/><path d="m368 192h48v48h-48z" transform="matrix(-1 0 0 -1 784 432)"/><path d="m456 152-40-8v48h48z"/><path d="m192 272h48v48h-48z"/></g><path d="m192 320h48v48h-48z" fill="#eba72e"/><path d="m192 368h48v48h-48z" fill="#f7b030"/><path d="m144 448 48 16v-48h-48z" fill="#f7b030"/><path d="m144 320h48v48h-48z" fill="#f7b030"/><path d="m144 272h48v48h-48z" fill="#eba72e"/><path d="m96 368h48v48h-48z" fill="#f7b030"/><path d="m64 368h32v-48h-48z" fill="#f7b030"/><path d="m272 272h48v48h-48z" fill="#f7b030" transform="matrix(-1 0 0 -1 592 592)"/><path d="m272 320h48v48h-48z" fill="#eba72e" transform="matrix(-1 0 0 -1 592 688)"/><path d="m368 456-48 8v-48h48z" fill="#f7b030"/><path d="m320 320h48v48h-48z" fill="#f7b030" transform="matrix(-1 0 0 -1 688 688)"/><path d="m368 368h48v48h-48z" fill="#f7b030" transform="matrix(-1 0 0 -1 784 784)"/><path d="m368 272h48v48h-48z" fill="#f7b030" transform="matrix(-1 0 0 -1 784 592)"/><path d="m456 368h-40v-48h48z" fill="#f7b030"/><path d="m487.45 240h-32.08c-7.73-97.7-85.67-175.64-183.37-183.37v-32.08c115.38 7.85 207.6 100.07 215.45 215.45z" fill="#ffb632"/><path d="m272 487.45v-32.08c97.7-7.73 175.64-85.67 183.37-183.37h32.08c-7.85 115.38-100.07 207.6-215.45 215.45z" fill="#ffb632"/><path d="m24.55 272h32.08c7.73 97.7 85.67 175.64 183.37 183.37v32.08c-115.38-7.85-207.6-100.07-215.45-215.45z" fill="#ffb632"/><path d="m96 192h48v48h-48z" fill="#f7b030"/><path d="m272 368h48v48h-48z" fill="#f7b030" transform="matrix(-1 0 0 -1 592 784)"/><path d="m336 273.126v86.874a24 24 0 0 1 -24 24 24 24 0 0 1 -24-24v16a24 24 0 0 1 -24 24 24 24 0 0 1 -24-24v15.508c0 12.271-9.971 23.538-22.209 24.427a24.008 24.008 0 0 1 -25.791-23.935v-32a24.008 24.008 0 0 1 -25.791 23.935c-12.238-.889-22.209-12.156-22.209-24.427v-103.508s-1.167-22.833 16-40c0 0 16.667-24 80-24l81.75 54.5a32 32 0 0 1 14.25 26.626z" fill="#ffd33a"/><path d="m219.23 198.26h67.882a22.627 22.627 0 0 1 22.627 22.627v67.883a16.971 16.971 0 0 1 -16.969 16.97h-67.883a22.627 22.627 0 0 1 -22.627-22.627v-67.883a16.971 16.971 0 0 1 16.97-16.97z" fill="#ffe76c" transform="matrix(.707 -.707 .707 .707 -103.21 254.828)"/><path d="m24.55 240h32.08c7.73-97.7 85.67-175.64 183.37-183.37v-32.08c-115.38 7.85-207.6 100.07-215.45 215.45z" fill="#ffb632"/><path d="m18.7 266.538a8 8 0 0 0 -2.136 6 240.012 240.012 0 0 0 222.893 222.894q.273.018.543.018a7.983 7.983 0 0 0 7.972-7.45h16.056a7.983 7.983 0 0 0 7.972 7.45c.18 0 .362-.006.543-.018a240.012 240.012 0 0 0 222.889-222.889 7.983 7.983 0 0 0 -7.432-8.515v-16.056a7.983 7.983 0 0 0 7.432-8.515 240.012 240.012 0 0 0 -222.889-222.889 7.985 7.985 0 0 0 -8.515 7.432h-16.056a7.985 7.985 0 0 0 -8.515-7.432 240.012 240.012 0 0 0 -222.889 222.889 7.983 7.983 0 0 0 7.432 8.515v16.056a8 8 0 0 0 -5.3 2.51zm213.3 179.974a190.818 190.818 0 0 1 -32-6.841v-15.671h32zm32 25.488h-16v-68.3a31.811 31.811 0 0 0 16 4.3zm0-80a16.019 16.019 0 0 1 -16-16 8 8 0 0 0 -16 0v15.508c0 8.189-6.911 15.876-14.789 16.448a16.008 16.008 0 0 1 -17.211-15.956v-32a8 8 0 0 0 -16 0 16.006 16.006 0 0 1 -17.211 15.955c-7.878-.571-14.789-8.255-14.789-16.447v-103.508c0-.136 0-.272-.01-.408-.01-.193-.818-19.45 13.667-33.935a48.071 48.071 0 0 1 15.578-11.18c7.666-3.6 20.023-7.713 38.5-9.53l-33.4 33.4a25.689 25.689 0 0 0 0 35.314l48 48c4.665 4.651 13.165 6.979 21.665 6.979s17-2.328 21.657-6.983l48-48a22.516 22.516 0 0 0 2.343-2.757v93.1a16 16 0 0 1 -32 0 8 8 0 0 0 -16 0v16a16.019 16.019 0 0 1 -16 16zm-112 16v-20.48a30.631 30.631 0 0 0 13.629 4.393 31.693 31.693 0 0 0 18.371-4.183v20.27zm32 16v10a192.03 192.03 0 0 1 -20.955-10zm0-320v32h-32v-32zm-20.955-16a192.03 192.03 0 0 1 20.955-10v10zm20.955 64v32h-32v-32zm-17.24 48c-7.595 4.634-11.422 8.939-12.839 10.77-.667.68-1.3 1.37-1.921 2.063v-12.833zm65.24-96v32h-32v-32zm-32-16v-15.671a190.818 190.818 0 0 1 32-6.841v22.512zm32 64v32h-32v-32zm128-48v32h-32v-32zm-32-16v-10a192.03 192.03 0 0 1 20.955 10zm80 64v32h-32v-32zm-32-16v-29.884a191.942 191.942 0 0 1 29.884 29.884zm32 64v32h-32v-32zm64 48v16h-128v-8a8 8 0 0 0 -3.562-6.656l-2.016-1.344zm-32.329-48a190.917 190.917 0 0 1 6.841 32h-22.512v-32zm-15.671-16v-20.955a192.03 192.03 0 0 1 10 20.955zm0 128v-32h22.512a190.917 190.917 0 0 1 -6.841 32zm10 16a192.03 192.03 0 0 1 -10 20.955v-20.955zm-58 32v-32h32v32zm29.884 16a191.942 191.942 0 0 1 -29.884 29.884v-29.884zm-29.884-64v-32h32v32zm-32 0v-32h16v32zm16 16v32h-16v-32zm0-176v32h-32v-32zm0 48v32h-32v-32zm-20.3 176h20.3v32h-32v-20.3a32.238 32.238 0 0 0 11.7-11.7zm9.26 48a192.03 192.03 0 0 1 -20.96 10v-10zm-68.96-16v-4.318a32.156 32.156 0 0 0 14.2-17.1 31.81 31.81 0 0 0 17.8 5.418v16zm32 16v15.671a190.818 190.818 0 0 1 -32 6.841v-22.512zm102.392-9.608a223.691 223.691 0 0 1 -134.392 64.33v-16.106a208.012 208.012 0 0 0 182.616-182.616h16.106a223.688 223.688 0 0 1 -64.33 134.392zm-134.392-381.114a224.051 224.051 0 0 1 198.722 198.722h-16.106a208.012 208.012 0 0 0 -182.616-182.616zm0 32.21a190.818 190.818 0 0 1 32 6.841v15.671h-32zm0 38.512h32v32h-32zm0 48h32v32h-32zm32 48v20.686l-20.686-20.686zm-64-160h16v140.073a45.5 45.5 0 0 0 -16 0zm-2.343 157.657c1.547-1.547 5.945-2.32 10.343-2.32s8.8.773 10.343 2.32l48 48a9.754 9.754 0 0 1 0 12.686l-48 48c-3.093 3.094-17.593 3.094-20.686 0l-48-48a9.754 9.754 0 0 1 0-12.686zm-148.049-100.049a223.691 223.691 0 0 1 134.392-64.33v16.106a208.012 208.012 0 0 0 -182.616 182.616h-16.106a223.688 223.688 0 0 1 64.33-134.392zm38.392 158.545v7.847h-96v-16h96.453a54.444 54.444 0 0 0 -.453 8.153zm-32 103.847v-32h32v32zm32 16v29.884a191.942 191.942 0 0 1 -29.884-29.884zm-32-64v-32h32v32zm-31.671 0a190.917 190.917 0 0 1 -6.841-32h22.512v32zm15.671 16v20.955a192.03 192.03 0 0 1 -10-20.955zm0-128v32h-22.512a190.917 190.917 0 0 1 6.841-32zm-10-16a192.03 192.03 0 0 1 10-20.955v20.955zm58-32v32h-32v-32zm-29.884-16a191.942 191.942 0 0 1 29.884-29.884v29.884zm29.884 64v32h-32v-32zm-86.616 80a208.012 208.012 0 0 0 182.616 182.616v16.106a224.051 224.051 0 0 1 -198.722-198.722z"/></svg>