<svg id="Layer_1" height="512" viewBox="0 0 64 64" width="512" xmlns="http://www.w3.org/2000/svg" data-name="Layer 1"><path d="m41.4561 22.5439a15.3955 15.3955 0 0 1 10.5148 1.62 15.3639 15.3639 0 0 0 6.2084-3.7777 15.4488 15.4488 0 0 0 -16.6173-3.4362 15.4278 15.4278 0 0 1 -.1059 5.5939z" fill="#679f42"/><path d="m41.562 16.95a15.5026 15.5026 0 0 1 6.548-1.06 15.3763 15.3763 0 0 0 -4.4963-10.0693 15.3661 15.3661 0 0 0 -3.7777 6.2084 15.4606 15.4606 0 0 1 1.8952 6.47 15.4716 15.4716 0 0 0 -.1692-1.5491z" fill="#7cb342"/><path d="m48.11 15.89a15.3959 15.3959 0 0 1 7.1929 2.2361 15.3828 15.3828 0 0 0 4.6971-3.2019 15.4091 15.4091 0 0 0 -13.1456-4.3474 15.4464 15.4464 0 0 1 1.2556 5.3132z" fill="#346a34"/><path d="m46.8544 10.5768a15.5742 15.5742 0 0 1 6.1935.3753 15.2768 15.2768 0 0 0 -3.9721-6.9521 15.3811 15.3811 0 0 0 -3.2073 4.7092 15.5246 15.5246 0 0 1 1.5561 3.43 15.4167 15.4167 0 0 0 -.5702-1.5624z" fill="#568b3e"/><path d="m58.62 5.38a15.3324 15.3324 0 0 1 -1.76 7.14 15.1736 15.1736 0 0 0 -3.81-1.57 15.5541 15.5541 0 0 0 -1.57-3.81 15.3324 15.3324 0 0 1 7.14-1.76z" fill="#f06392"/><path d="m58.62 5.38a15.3324 15.3324 0 0 1 -1.76 7.14 15.1736 15.1736 0 0 0 -3.81-1.57z" fill="#ec417a"/><path d="m55.45 26.76a15.4174 15.4174 0 0 1 -10.93 4.53 15.18 15.18 0 0 1 -6.59-1.49l-16.34 18.52h3.95v5.15h-8.5l-5.76 6.53-7.28-7.28 15.63-13.8v-7.74h5.15v3.2l9.42-8.31a15.18 15.18 0 0 1 -1.49-6.59 15.4174 15.4174 0 0 1 4.53-10.93 15.3934 15.3934 0 0 1 4.22 13.99 15.3934 15.3934 0 0 1 13.99 4.22z" fill="#aed580"/><path d="m24.78 31.18v3.2l-5.15 4.54v-7.74z" fill="#9ccc65"/><path d="m55.45 26.76a15.4174 15.4174 0 0 1 -10.93 4.53 15.18 15.18 0 0 1 -6.59-1.49l-16.34 18.52h3.95v5.15h-8.5l-5.76 6.53-3.64-3.64 33.82-33.82a15.3934 15.3934 0 0 1 13.99 4.22z" fill="#9ccc65"/><path d="m25.54 48.32v5.15h-8.5l4.55-5.15z" fill="#7cb342"/><path d="m58.1611 12.1373c.5933-1.1686 2.7416-7.79.46-7.7584a16.2254 16.2254 0 0 0 -6.7677 1.4644 16.0848 16.0848 0 0 0 -2.0708-2.55c-1.3707-1.3253-3.358 2.4839-4.0433 3.4652-.6338-.66-1.1352-1.8121-2.1255-1.938a1.0008 1.0008 0 0 0 -.7072.2931 16.2062 16.2062 0 0 0 -3.2886 4.7235c-.7455-.7914-1.7831-3.0676-3.0838-1.9925a16.4459 16.4459 0 0 0 -3.55 17.965l-7.2027 6.3545v-.9834a1 1 0 0 0 -1-1h-5.1492a1 1 0 0 0 -1 1v7.292l-15.2939 13.4941a1 1 0 0 0 -.0454 1.457l7.2827 7.2832a1.0016 1.0016 0 0 0 1.457-.0449l5.4619-6.19h8.0415a1 1 0 0 0 1-1v-5.15a1 1 0 0 0 -1-1h-1.7329l14.3882-16.3065a16.0944 16.0944 0 0 0 6.3325 1.2764 16.3451 16.3451 0 0 0 11.6314-4.8262c1.0568-1.3308-1.1876-2.3212-1.9923-3.0838a16.2038 16.2038 0 0 0 4.7232-3.2882c1.01-1.19-.8941-2.1363-1.636-2.8382a16.244 16.244 0 0 0 3.4568-2.6247 1 1 0 0 0 0-1.4141 16.6053 16.6053 0 0 0 -2.5459-2.0795zm-5.31-4.5514a14.2106 14.2106 0 0 1 4.7334-1.1709 14.2024 14.2024 0 0 1 -1.1623 4.7137 16.1627 16.1627 0 0 0 -2.5767-1.0228 18.459 18.459 0 0 0 -.9944-2.52zm-3.7759-2.1171a14.1882 14.1882 0 0 1 2.47 4.1187 16.8825 16.8825 0 0 0 -4.1033-.0885c-.15-.2842-.2809-.5783-.44-.8579a14.3651 14.3651 0 0 1 2.0733-3.1723zm-8.1543 6.47a14.267 14.267 0 0 1 2.6924-4.6514 14.4079 14.4079 0 0 1 1.3754 1.8853 15.3043 15.3043 0 0 1 1.481 3.2641v.001l.0005.002a14.1419 14.1419 0 0 1 .5344 2.4271 16.4653 16.4653 0 0 0 -4.6985.76 17.4928 17.4928 0 0 0 -1.3852-3.6884zm3.603 18.3535a14.0921 14.0921 0 0 1 -6.16-1.3936 1.0058 1.0058 0 0 0 -1.1836.2393l-16.3429 18.5212a1.0073 1.0073 0 0 0 .75 1.6621h2.9487v3.15h-7.4926a1 1 0 0 0 -.75.3379l-5.0562 5.73-5.7773-5.7765 14.8339-13.0889a1 1 0 0 0 .3384-.75v-6.7431h3.1494v2.1993a1.007 1.007 0 0 0 1.6617.75l9.4184-8.31a1 1 0 0 0 .2393-1.1836 14.43 14.43 0 0 1 2.14-15.6191 14.46 14.46 0 0 1 1.7122 2.4707 14.6193 14.6193 0 0 1 1.7417 8.3511c.03.7873-.5658 1.7494.0543 2.4116.8142.6681 1.9688-.0845 2.923.0235a14.5474 14.5474 0 0 1 10.31 3.4843 14.3364 14.3364 0 0 1 -9.4584 3.5335zm7.5381-7.2129a16.5787 16.5787 0 0 0 -9.4014-1.7394 16.3311 16.3311 0 0 0 .0572-2.8225c.0222-.3048-.0463-.6022-.0524-.9045a14.5489 14.5489 0 0 1 14.0475 2.7739 14.2432 14.2432 0 0 1 -4.6509 2.6922zm3.2979-6.08a16.83 16.83 0 0 0 -6.3218-2.0361 18.0885 18.0885 0 0 0 -.6565-3.1c-.0021-.0072 0-.0143-.0022-.0215l-.001-.0029c-.0438-.1317-.0805-.2637-.1186-.3966a15.0173 15.0173 0 0 1 8.168 1.9694 14.453 14.453 0 0 1 2.1054 1.5112 14.389 14.389 0 0 1 -3.1732 2.0761z"/></svg>