<svg height="512pt" viewBox="0 -20 512 511" width="512pt" xmlns="http://www.w3.org/2000/svg"><path d="m337.945312 123.160156c-11.878906 15.320313-17.816406 45.164063-17.816406 45.164063h48.097656s-5.941406-29.84375-17.816406-45.164063c-3.035156-3.910156-9.429687-3.910156-12.464844 0zm0 0" fill="#ff8087"/><path d="m161.558594 10.9375c-11.878906 15.316406-17.816406 45.164062-17.816406 45.164062h48.097656s-5.941406-29.847656-17.816406-45.164062c-3.035157-3.914062-9.429688-3.914062-12.464844 0zm0 0" fill="#ff8087"/><path d="m167.824219 352.695312c-99.613281 0-160.324219-68.191406-160.324219-152.304687 0-84.117187 60.710938-152.308594 160.324219-152.308594 99.609375 0 160.320312 68.191407 160.320312 152.308594 0 84.113281-60.710937 152.304687-160.320312 152.304687zm0 0" fill="#e6646e"/><path d="m207.902344 312.613281c-99.613282 0-160.324219-68.1875-160.324219-152.304687 0-31.667969 8.621094-61.070313 24.667969-85.433594-41.40625 27.460938-64.746094 73.410156-64.746094 125.515625 0 84.113281 60.710938 152.304687 160.324219 152.304687 62.109375 0 109.082031-26.519531 135.65625-66.871093-25.441407 16.871093-57.667969 26.789062-95.578125 26.789062zm0 0" fill="#dc4655"/><path d="m344.175781 464.921875c-99.609375 0-160.320312-68.191406-160.320312-152.304687 0-84.117188 60.710937-152.308594 160.320312-152.308594 99.613281 0 160.324219 68.191406 160.324219 152.304687 0 84.117188-60.710938 152.308594-160.324219 152.308594zm0 0" fill="#fff6d8"/><path d="m404.628906 204.3125c-17.394531-7.660156-37.597656 1.960938-43.1875 20.125l-8.101562 26.332031c-1.386719 4.511719-5.273438 6.769531-9.164063 6.769531-3.886719 0-7.773437-2.257812-9.160156-6.769531l-8.105469-26.332031c-5.589844-18.167969-25.792968-27.785156-43.183594-20.125-42.105468 18.542969-67.808593 57.527344-67.808593 108.300781 0 71.921875 51.542969 120.242188 128.257812 120.242188 76.714844 0 128.257813-48.320313 128.257813-120.242188 0-50.773437-25.699219-89.757812-67.804688-108.300781zm0 0" fill="#e6646e"/><path d="m368.226562 407.535156c-76.714843 0-128.257812-48.320312-128.257812-120.242187 0-26.691407 7.164062-50.082031 20.019531-69.003907-27.792969 21.117188-44.066406 53.976563-44.066406 94.324219 0 71.921875 51.542969 120.242188 128.257813 120.242188 48.207031 0 86.453124-19.101563 108.234374-51.132813-21.738281 16.507813-50.535156 25.8125-84.1875 25.8125zm0 0" fill="#dc4655"/><path d="m466.988281 199.609375c-23.851562-23.796875-54.820312-38.867187-90.746093-44.40625 2.945312-14.300781 17.691406-19.597656 18.4375-19.855469 3.910156-1.324218 6.015624-5.558594 4.710937-9.476562-1.3125-3.929688-5.558594-6.054688-9.488281-4.742188-.808594.269532-13.929688 4.808594-22.300782 16.777344-5.625-11.398438-12.160156-19.484375-19.449218-24.039062-2.433594-1.519532-5.519532-1.519532-7.949219 0-6.546875 4.089843-12.480469 11.027343-17.699219 20.648437-10.492187-24.507813-26.9375-45.441406-48.347656-61.328125-20.996094-15.582031-46.273438-25.789062-74.28125-30.164062 2.917969-14.316407 17.65625-19.628907 18.445312-19.902344 3.910157-1.320313 6.019532-5.554688 4.710938-9.476563-1.308594-3.929687-5.554688-6.054687-9.484375-4.742187-.808594.269531-13.933594 4.808594-22.300781 16.777344-5.628906-11.398438-12.160156-19.480469-19.449219-24.039063-2.433594-1.519531-5.519531-1.519531-7.949219 0-7.292968 4.554687-13.824218 12.640625-19.453125 24.039063-8.367187-11.96875-21.492187-16.507813-22.300781-16.777344-3.914062-1.304688-8.125.804687-9.453125 4.710937-1.324219 3.90625.773437 8.160157 4.671875 9.507813.699219.238281 15.496094 5.527344 18.445312 19.855468-35.925781 5.539063-66.898437 20.609376-90.75 44.402344-29.023437 28.957032-45.007812 69.09375-45.007812 113.011719s15.984375 84.050781 45.011719 113.003906c30.6875 30.617188 73.15625 46.800781 122.8125 46.800781 5.054687 0 10.09375-.175781 15.039062-.515624 8.042969 27.921874 23.324219 52.707031 44.503907 71.605468 30.15625 26.910156 70.550781 41.136719 116.8125 41.136719 49.652343 0 92.121093-16.183594 122.8125-46.800781 29.023437-28.953125 45.007812-69.085938 45.007812-113.007813 0-43.917969-15.984375-84.050781-45.011719-113.003906zm-122.8125-69.828125c6.039063 5.957031 10.796875 15.71875 13.789063 23.453125-4.53125-.285156-9.125-.425781-13.789063-.425781-4.664062 0-9.265625.152344-13.804687.441406 2.984375-7.734375 7.738281-17.5 13.804687-23.46875zm-176.355469-112.222656c6.042969 5.960937 10.804688 15.730468 13.796876 23.46875-4.542969-.289063-9.140626-.445313-13.792969-.445313-4.667969 0-9.269531.144531-13.800781.429688 2.980468-7.730469 7.734374-17.488281 13.796874-23.453125zm288.574219 397.445312c-27.816406 27.75-66.621093 42.417969-112.21875 42.417969-42.519531 0-79.457031-12.90625-106.820312-37.328125-25.621094-22.863281-41.683594-55.390625-45.230469-91.589844-.40625-4.121094-4.078125-7.132812-8.195312-6.730468-4.125.402343-7.140626 4.074218-6.734376 8.195312.492188 5.03125 1.207032 10 2.132813 14.890625-3.796875.214844-7.640625.335937-11.507813.335937-45.59375 0-84.398437-14.667968-112.21875-42.417968-26.179687-26.121094-40.601562-62.484375-40.601562-102.386719 0-39.90625 14.421875-76.269531 40.605469-102.390625 27.816406-27.75 66.621093-42.417969 112.21875-42.417969 37.574219 0 71.253906 10.253907 97.394531 29.652344 13.367188 9.917969 24.566406 22.054687 33.34375 35.933594-.039062-.015625-.089844-.03125-.109375-.039063-3.929687-1.308594-8.179687.8125-9.488281 4.742188-1.308594 3.929687.8125 8.175781 4.746094 9.488281.167968.054687 15.417968 5.316406 18.40625 19.867187-32.769532 5.085938-61.570313 18.132813-84.488282 38.484376-28.410156 25.230468-46.292968 61.039062-50.359375 100.828124-.421875 4.121094 2.578125 7.800782 6.699219 8.222657 4.117188.421875 7.800781-2.578125 8.222656-6.699219 3.683594-36.039062 19.804688-68.40625 45.398438-91.136719 27.339844-24.28125 64.199218-37.117187 106.585937-37.117187 45.597657 0 84.402344 14.667968 112.21875 42.417968 26.183594 26.121094 40.605469 62.484376 40.605469 102.386719 0 39.90625-14.421875 76.269531-40.605469 102.390625zm0 0"/><path d="m463.445312 246.988281c-2.054687-3.59375-6.636718-4.84375-10.234374-2.789062-3.597657 2.054687-4.847657 6.632812-2.789063 10.230469 9.628906 16.859374 14.515625 36.4375 14.515625 58.183593 0 33.164063-11.410156 61.386719-32.992188 81.621094-21.71875 20.359375-52.066406 31.125-87.765624 31.125-35.703126 0-66.050782-10.761719-87.769532-31.125-21.582031-20.234375-32.988281-48.457031-32.988281-81.621094 0-46.738281 23.082031-83.710937 63.328125-101.4375 6.289062-2.769531 13.246094-2.699219 19.585938.199219 6.441406 2.945312 11.328124 8.507812 13.40625 15.265625l8.105468 26.335937c2.21875 7.214844 8.78125 12.0625 16.332032 12.0625 7.546874 0 14.109374-4.847656 16.332031-12.0625l8.101562-26.335937c2.078125-6.757813 6.964844-12.320313 13.410157-15.265625 6.339843-2.898438 13.296874-2.96875 19.582031-.199219 10.269531 4.519531 19.558593 10.375 27.617187 17.394531 3.125 2.722657 7.863282 2.398438 10.582032-.726562 2.722656-3.125 2.394531-7.859375-.726563-10.582031-9.199219-8.015625-19.773437-14.683594-31.425781-19.8125-10.113282-4.453125-21.726563-4.351563-31.867188.285156-10.332031 4.722656-18.171875 13.648437-21.507812 24.496094l-8.105469 26.332031c-.300781.980469-.972656 1.472656-1.992187 1.472656-1.023438 0-1.695313-.496094-1.996094-1.472656l-8.105469-26.332031c-3.335937-10.847657-11.175781-19.773438-21.507813-24.496094-10.140624-4.636719-21.753906-4.738281-31.867187-.285156-45.9375 20.230469-72.28125 62.207031-72.28125 115.164062 0 37.414063 13.046875 69.421875 37.730469 92.566407 24.546875 23.011718 58.445312 35.175781 98.023437 35.175781 39.582031 0 73.480469-12.164063 98.027344-35.175781 24.683594-23.144532 37.730469-55.148438 37.730469-92.566407.003906-24.390625-5.546875-46.46875-16.488282-65.625zm0 0"/><path d="m250.695312 350.484375 8.019532 8.015625c1.460937 1.464844 3.382812 2.195312 5.300781 2.195312s3.839844-.730468 5.304687-2.195312c2.925782-2.929688 2.925782-7.679688 0-10.605469l-8.015624-8.015625c-2.929688-2.929687-7.679688-2.929687-10.609376 0-2.925781 2.929688-2.925781 7.675782 0 10.605469zm0 0"/><path d="m284.351562 305.894531c2.925782-2.929687 2.925782-7.679687 0-10.605469-2.929687-2.929687-7.679687-2.929687-10.609374 0l-8.015626 8.015626c-2.925781 2.929687-2.925781 7.679687 0 10.605468 1.464844 1.464844 3.386719 2.199219 5.304688 2.199219s3.839844-.734375 5.304688-2.199219zm0 0"/><path d="m294.785156 345.308594c1.464844 1.464844 3.386719 2.195312 5.304688 2.195312 1.917968 0 3.839844-.730468 5.300781-2.195312 2.929687-2.929688 2.929687-7.679688 0-10.609375l-8.015625-8.015625c-2.929688-2.929688-7.675781-2.929688-10.605469 0-2.929687 2.929687-2.929687 7.679687 0 10.605468zm0 0"/><path d="m304.097656 284.042969c4.140625 0 7.5-3.359375 7.5-7.5v-8.015625c0-4.144532-3.359375-7.5-7.5-7.5-4.144531 0-7.5 3.355468-7.5 7.5v8.015625c0 4.140625 3.355469 7.5 7.5 7.5zm0 0"/><path d="m264.222656 269.820312c1.464844 1.464844 3.386719 2.199219 5.304688 2.199219 1.917968 0 3.839844-.734375 5.300781-2.199219 2.929687-2.929687 2.929687-7.675781 0-10.605468l-8.015625-8.015625c-2.925781-2.929688-7.675781-2.929688-10.605469 0-2.929687 2.929687-2.929687 7.675781 0 10.605469zm0 0"/><path d="m387.082031 322.632812c0-4.140624-3.359375-7.5-7.5-7.5h-8.015625c-4.140625 0-7.5 3.359376-7.5 7.5 0 4.144532 3.359375 7.5 7.5 7.5h8.015625c4.140625 0 7.5-3.355468 7.5-7.5zm0 0"/><path d="m334.792969 310.058594 5.667969-5.667969c2.929687-2.929687 2.929687-7.675781 0-10.605469-2.929688-2.929687-7.675782-2.929687-10.605469 0l-5.667969 5.667969c-2.929688 2.929687-2.929688 7.675781 0 10.605469 1.464844 1.464844 3.382812 2.195312 5.304688 2.195312 1.917968 0 3.835937-.730468 5.300781-2.195312zm0 0"/><path d="m300.089844 396.269531c1.917968 0 3.839844-.734375 5.300781-2.199219l8.015625-8.015624c2.929688-2.929688 2.929688-7.675782 0-10.605469-2.925781-2.929688-7.675781-2.929688-10.605469 0l-8.015625 8.015625c-2.929687 2.929687-2.929687 7.679687 0 10.605468 1.464844 1.464844 3.382813 2.199219 5.304688 2.199219zm0 0"/><path d="m335.492188 358.859375c4.144531 0 7.5-3.359375 7.5-7.5v-8.015625c0-4.140625-3.355469-7.5-7.5-7.5-4.140626 0-7.5 3.359375-7.5 7.5v8.015625c0 4.140625 3.359374 7.5 7.5 7.5zm0 0"/><path d="m378.539062 360.917969-8.015624-8.015625c-2.929688-2.929688-7.679688-2.929688-10.605469 0-2.929688 2.929687-2.929688 7.679687 0 10.605468l8.015625 8.019532c1.464844 1.460937 3.382812 2.195312 5.300781 2.195312 1.921875 0 3.839844-.734375 5.304687-2.195312 2.929688-2.929688 2.929688-7.679688 0-10.609375zm0 0"/><path d="m388.226562 284.601562-5.667968-5.667968c-2.929688-2.929688-7.679688-2.929688-10.609375 0-2.925781 2.925781-2.925781 7.675781 0 10.605468l5.667969 5.667969c1.464843 1.464844 3.386718 2.195313 5.304687 2.195313s3.839844-.730469 5.304687-2.195313c2.925782-2.929687 2.925782-7.679687 0-10.605469zm0 0"/><path d="m407.789062 264.519531v-8.019531c0-4.140625-3.355468-7.5-7.5-7.5-4.140624 0-7.5 3.359375-7.5 7.5v8.019531c0 4.140625 3.359376 7.5 7.5 7.5 4.144532 0 7.5-3.359375 7.5-7.5zm0 0"/><path d="m432.816406 286.9375c-2.929687-2.929688-7.679687-2.929688-10.605468 0l-8.019532 8.015625c-2.925781 2.929687-2.925781 7.675781 0 10.605469 1.464844 1.464844 3.386719 2.199218 5.304688 2.199218 1.917968 0 3.839844-.734374 5.304687-2.199218l8.015625-8.015625c2.925782-2.929688 2.925782-7.675781 0-10.605469zm0 0"/><path d="m406.007812 378.039062c1.464844 1.464844 3.386719 2.195313 5.304688 2.195313s3.839844-.730469 5.300781-2.195313c2.929688-2.929687 2.929688-7.675781 0-10.605468l-8.015625-8.015625c-2.925781-2.929688-7.675781-2.929688-10.605468 0-2.929688 2.929687-2.929688 7.675781 0 10.605469zm0 0"/><path d="m424.339844 344.164062c4.140625 0 7.5-3.359374 7.5-7.5v-8.015624c0-4.144532-3.359375-7.5-7.5-7.5-4.144532 0-7.5 3.355468-7.5 7.5v8.015624c0 4.140626 3.355468 7.5 7.5 7.5zm0 0"/><path d="m360.210938 393.292969c-4.144532 0-7.5 3.359375-7.5 7.5s3.355468 7.5 7.5 7.5h8.015624c4.140626 0 7.5-3.359375 7.5-7.5s-3.359374-7.5-7.5-7.5zm0 0"/></svg>