<svg id="Layer_1" height="512" viewBox="0 0 64 64" width="512" xmlns="http://www.w3.org/2000/svg" data-name="Layer 1"><path d="m51 29.14a29.8839 29.8839 0 0 1 -4.05 12.79 23.0232 23.0232 0 0 1 -11.15 9.79l1.14-17.01a26.6449 26.6449 0 0 0 -2.44-13.07 2.7255 2.7255 0 0 0 -5 0 26.6449 26.6449 0 0 0 -2.44 13.07l1.14 17.01a23.0232 23.0232 0 0 1 -11.15-9.79 29.8839 29.8839 0 0 1 -4.05-12.79 2.1451 2.1451 0 0 1 2.16-2.24h.97a2.15 2.15 0 0 0 2.09-2.67 27.8958 27.8958 0 0 1 -.76-9.12 2.1387 2.1387 0 0 1 3.27-1.62 2.1154 2.1154 0 0 0 3.09-1.04 25.708 25.708 0 0 1 3.25-5.98 6.155 6.155 0 0 1 9.86 0 25.708 25.708 0 0 1 3.25 5.98 2.1154 2.1154 0 0 0 3.09 1.04 2.1387 2.1387 0 0 1 3.27 1.62 27.8958 27.8958 0 0 1 -.76 9.12 2.15 2.15 0 0 0 2.09 2.67h.97a2.1451 2.1451 0 0 1 2.16 2.24z" fill="#aed580"/><path d="m51 29.14a29.8839 29.8839 0 0 1 -4.05 12.79 23.0232 23.0232 0 0 1 -11.15 9.79l1.14-17.01a26.6449 26.6449 0 0 0 -2.44-13.07 2.7454 2.7454 0 0 0 -2.5-1.64v-16a6.0668 6.0668 0 0 1 4.93 2.47 25.708 25.708 0 0 1 3.25 5.98 2.1154 2.1154 0 0 0 3.09 1.04 2.1387 2.1387 0 0 1 3.27 1.62 27.8958 27.8958 0 0 1 -.76 9.12 2.15 2.15 0 0 0 2.09 2.67h.97a2.1451 2.1451 0 0 1 2.16 2.24z" fill="#9ccc65"/><path d="m40.3218 45.0488a1 1 0 0 1 -.6924-1.7217 16.0091 16.0091 0 0 0 2.9443-3.811 27.6582 27.6582 0 0 0 3.2383-8.8642 1 1 0 1 1 1.9746.3183 29.6765 29.6765 0 0 1 -3.4619 9.5127 18.028 18.028 0 0 1 -3.31 4.2876.997.997 0 0 1 -.6929.2783z" fill="#679f42"/><path d="m23.6782 45.0493a.997.997 0 0 1 -.6924-.2783 18.028 18.028 0 0 1 -3.3105-4.2876 29.6826 29.6826 0 0 1 -3.4619-9.5146 1 1 0 0 1 1.9746-.3188 27.6614 27.6614 0 0 0 3.2383 8.8662 16.0091 16.0091 0 0 0 2.9443 3.811 1 1 0 0 1 -.6924 1.7217z" fill="#7cb342"/><g fill="#679f42"><path d="m32 16a4.0045 4.0045 0 0 1 -4-4 1 1 0 0 1 2 0 2 2 0 0 0 4 0 1 1 0 0 1 2 0 4.0045 4.0045 0 0 1 -4 4z"/><path d="m32 21a1 1 0 0 1 -1-1v-5a1 1 0 0 1 2 0v5a1 1 0 0 1 -1 1z"/><path d="m36.3389 28a1 1 0 0 1 -.8316-1.5542l4.66-7a1 1 0 0 1 1.665 1.1084l-4.66 7a.9992.9992 0 0 1 -.8334.4458z"/><path d="m36.729 38.91a1 1 0 0 1 -.8311-1.5547l5.27-7.91a1 1 0 0 1 1.664 1.1094l-5.27 7.91a.9985.9985 0 0 1 -.8329.4453z"/></g><path d="m27.6611 28a.9992.9992 0 0 1 -.8335-.4458l-4.66-7a1 1 0 1 1 1.665-1.1084l4.66 7a1 1 0 0 1 -.8315 1.5542z" fill="#7cb342"/><path d="m27.271 38.91a.9985.9985 0 0 1 -.833-.4454l-5.27-7.91a1 1 0 1 1 1.664-1.1094l5.27 7.91a1 1 0 0 1 -.831 1.5548z" fill="#7cb342"/><path d="m36.94 34.71-1.48 22.06a3.4682 3.4682 0 0 1 -6.92 0l-1.48-22.06c-.04-.6-.06-1.19-.06-1.79a26.5646 26.5646 0 0 1 2.5-11.28 2.7678 2.7678 0 0 1 5 0 26.6449 26.6449 0 0 1 2.44 13.07z" fill="#dcecc8"/><path d="m36.94 34.71-1.48 22.06a3.4561 3.4561 0 0 1 -3.46 3.23v-39.94a2.7218 2.7218 0 0 1 2.5 1.58 26.6449 26.6449 0 0 1 2.44 13.07z" fill="#c6e0a6"/><path d="m32.95 35.4473c-.0225 0-.0454 0-.0679-.0025a.9993.9993 0 0 1 -.9306-1.0644 21.6157 21.6157 0 0 0 -.9068-7.8369 1 1 0 0 1 1.9112-.5889 23.5981 23.5981 0 0 1 .9907 8.56 1 1 0 0 1 -.9966.9327z" fill="#9ccc65"/><path d="m31.7056 25.2935a1 1 0 0 0 -.6612 1.25 21.6157 21.6157 0 0 1 .9068 7.8369 1 1 0 0 0 1.9951.1338 23.5981 23.5981 0 0 0 -.9907-8.56.9993.9993 0 0 0 -1.25-.6607z"/><path d="m16.1372 25.9019-.977-.003a3.162 3.162 0 0 0 -3.1558 3.294 30.7971 30.7971 0 0 0 4.1694 13.2241 23.7986 23.7986 0 0 0 11.0707 9.9645l.299 4.4515a4.4665 4.4665 0 0 0 8.913 0l.299-4.4509a23.7994 23.7994 0 0 0 11.0707-9.9651 30.7971 30.7971 0 0 0 4.1694-13.2241 3.1571 3.1571 0 0 0 -3.1558-3.294l-.9809.003a1.1613 1.1613 0 0 1 -1.1089-1.4366 29.3445 29.3445 0 0 0 .79-9.44 3.1456 3.1456 0 0 0 -4.8037-2.3809 1.0794 1.0794 0 0 1 -.9272.1094 1.13 1.13 0 0 1 -.6978-.6645 26.95 26.95 0 0 0 -3.373-6.2115 7.2 7.2 0 0 0 -11.4766 0 26.9444 26.9444 0 0 0 -3.373 6.2113 1.1222 1.1222 0 0 1 -1.625.5551 3.1645 3.1645 0 0 0 -4.8037 2.3808 29.3441 29.3441 0 0 0 .79 9.44 1.1708 1.1708 0 0 1 -1.1128 1.4369zm15.8628 33.0981a2.4735 2.4735 0 0 1 -2.4614-2.3013l-.3389-5.05-1.1416-17.0008a25.6088 25.6088 0 0 1 2.35-12.5815 1.76 1.76 0 0 1 3.1846 0 25.6126 25.6126 0 0 1 2.35 12.5815l-1.1427 17.0005-.3389 5.05a2.4735 2.4735 0 0 1 -2.4611 2.3016zm-13.3979-32.292a3.1563 3.1563 0 0 0 .5922-2.7124 27.3059 27.3059 0 0 1 -.7422-8.792 1.1511 1.1511 0 0 1 1.7525-.8632 3.0846 3.0846 0 0 0 2.6167.31 3.1221 3.1221 0 0 0 1.9307-1.8355c1.5418-3.3564 3.048-7.759 7.2474-7.8149 4.2024.0561 5.7043 4.4584 7.2488 7.8154a3.1227 3.1227 0 0 0 1.931 1.8361 3.088 3.088 0 0 0 2.6167-.3111 1.1461 1.1461 0 0 1 1.752.8633 27.3059 27.3059 0 0 1 -.7422 8.792 3.1737 3.1737 0 0 0 3.063 3.9063l.98-.003a1.15 1.15 0 0 1 1.1494 1.1934 28.8138 28.8138 0 0 1 -3.9229 12.3576 21.499 21.499 0 0 1 -9.1652 8.6359l.7948-11.8349 5.1275-7.6963a1 1 0 0 0 -1.6641-1.1093l-3.2122 4.8214a27.7638 27.7638 0 0 0 -.56-7.048l4.4368-6.6646a1 1 0 0 0 -1.6651-1.1083l-3.4438 5.1729c-.74-2.0362-1.355-4.859-3.7236-5.4771v-3.2837a3.9963 3.9963 0 0 0 2.9997-3.858 1 1 0 0 0 -2 0 2 2 0 0 1 -4 0 1 1 0 0 0 -2 0 3.9963 3.9963 0 0 0 3 3.858v3.2837c-2.3692.6191-2.9829 3.44-3.7236 5.4771l-3.4439-5.173a1 1 0 0 0 -1.665 1.1084l4.4368 6.6646a27.7638 27.7638 0 0 0 -.56 7.048l-3.2123-4.8215a1 1 0 0 0 -1.664 1.1094l5.1275 7.6963.7945 11.8349c-8.044-3.6259-12.7292-13.7926-13.0884-20.9938a1.15 1.15 0 0 1 1.1493-1.1932l.98.003a3.12 3.12 0 0 0 2.4712-1.1939z"/><path d="m39.6294 43.3271a1 1 0 0 0 1.3848 1.4434 18.028 18.028 0 0 0 3.31-4.2876 29.6765 29.6765 0 0 0 3.4624-9.5129 1 1 0 0 0 -1.9746-.3183c-.2801 2.6303-2.8547 9.8183-6.1826 12.6754z"/><path d="m22.9858 44.771a1 1 0 1 0 1.3848-1.4434 16.0091 16.0091 0 0 1 -2.9443-3.811 27.6614 27.6614 0 0 1 -3.2383-8.8666 1 1 0 0 0 -1.9746.3184c.3082 2.9405 3.1501 10.7106 6.7724 13.8026z"/></svg>