<svg height="512pt" viewBox="-173 0 512 512" width="512pt" xmlns="http://www.w3.org/2000/svg"><path d="m136 10.03125c-4.855469 5.722656-17.65625 20.054688-33.3125 31.535156l27.304688 14.53125c13.359374-15.296875 21.054687-31.082031 24.832031-40.359375 1.613281-3.953125-1.339844-8.238281-5.613281-8.238281h-7.695313c-2.140625 0-4.132813.898438-5.515625 2.53125zm0 0" fill="#96cd82"/><path d="m97.792969 504.5c-17.121094 0-33.691407-9.160156-42.382813-25.289062-30.898437-57.328126-47.910156-130.910157-47.910156-207.183594 0-76.269532 17.011719-149.84375 47.902344-207.183594 12.605468-23.378906 41.773437-32.128906 65.15625-19.527344 23.382812 12.601563 32.128906 41.773438 19.527344 65.160156-23.472657 43.558594-36.394532 100.929688-36.394532 161.550782s12.925782 117.996094 36.394532 161.554687c12.605468 23.382813 3.863281 52.554688-19.523438 65.152344-7.25 3.910156-15.066406 5.765625-22.769531 5.765625zm0 0" fill="#afdc82"/><path d="m144.597656 456.699219c-8.078125 3.199219-16.621094 4.371093-24.910156 3.773437-18.425781-1.339844-35.621094-11.453125-43.847656-27.664062-29.246094-57.621094-42.414063-129.804688-37.082032-203.253906 5.136719-70.800782 27.257813-137.804688 62.207032-189.851563-18.21875-1.207031-36.332032 8.023437-45.5625 25.144531-30.890625 57.335938-47.902344 130.914063-47.902344 207.179688 0 76.273437 17.011719 149.855468 47.910156 207.183594 8.691406 16.132812 25.261719 25.289062 42.382813 25.289062 7.703125 0 15.519531-1.855469 22.769531-5.765625 16.199219-8.722656 25.351562-25.398437 25.273438-42.59375-.417969.175781-.808594.386719-1.238282.558594zm0 0" fill="#96cd82"/><path d="m53.671875 393.507812c-3.675781 1.90625-5.109375 6.433594-3.203125 10.109376 2.039062 3.9375 4.324219 8.597656 5.769531 13.285156.375 1.21875.726563 2.527344 1.042969 3.878906.808594 3.460938 3.890625 5.792969 7.296875 5.792969.5625 0 1.140625-.0625 1.714844-.199219 4.03125-.941406 6.535156-4.976562 5.59375-9.011719-.398438-1.6875-.839844-3.332031-1.316407-4.878906-1.792968-5.828125-4.4375-11.242187-6.789062-15.773437-1.902344-3.675782-6.429688-5.113282-10.109375-3.203126zm0 0"/><path d="m163.605469 2.753906c-1.421875-1.742187-3.554688-2.753906-5.804688-2.753906h-19.707031c-2.378906 0-4.617188 1.128906-6.03125 3.042969-.105469.144531-12.152344 15.328125-30.90625 29.140625-20.949219-1.25-41.757812 9.445312-52.355469 29.105468-31.46875 58.414063-48.800781 133.253907-48.800781 210.738282 0 77.5 17.335938 152.339844 48.808594 210.742187 9.710937 18.03125 28.480468 29.230469 48.984375 29.230469 9.140625 0 18.246093-2.304688 26.328125-6.664062 13.074218-7.042969 22.625-18.757813 26.886718-32.980469 4.261719-14.226563 2.726563-29.261719-4.316406-42.332031-22.890625-42.488282-35.5-98.597657-35.5-157.996094 0-59.402344 12.605469-115.511719 35.5-157.996094 10.738282-19.929688 8.007813-43.558594-5.011718-60.414062 18.960937-23.335938 23.285156-43.722657 23.46875-44.625.449218-2.207032-.117188-4.496094-1.542969-6.238282zm-30.121094 104.164063c-24.050781 44.628906-37.292969 103.265625-37.292969 165.109375 0 61.839844 13.246094 120.476562 37.292969 165.113281 5.148437 9.542969 6.265625 20.519531 3.152344 30.910156-.675781 2.261719-1.546875 4.429688-2.578125 6.503907-2.40625-2.835938-4.953125-5.539063-7.457032-8.191407-5.90625-6.25-11.488281-12.160156-14.640624-19.074219-2.902344-6.375-3.726563-14.15625-4.59375-22.390624-.765626-7.277344-1.558594-14.800782-3.863282-22.121094-2.203125-7.003906-5.808594-13.464844-9.292968-19.710938-4.109376-7.367187-7.988282-14.324218-9.402344-21.621094-1.324219-6.84375-.378906-14.53125.621094-22.667968.90625-7.367188 1.84375-14.980469 1.191406-22.730469-.625-7.4375-2.789063-14.621094-4.886719-21.566406-2.410156-7.996094-4.6875-15.546875-4.546875-22.894531.136719-7.132813 2.664062-14.394532 5.339844-22.085938 2.359375-6.769531 4.796875-13.773438 5.683594-21.105469.917968-7.628906.21875-15.175781-.457032-22.472656-.738281-7.957031-1.4375-15.472656.074219-22.066406 1.605469-7.019531 5.636719-13.652344 9.90625-20.671875 3.675781-6.046875 7.476563-12.300782 9.875-19.167969 2.5-7.164063 3.46875-14.582031 4.40625-21.757813 1.042969-7.996093 2.027344-15.550781 5.015625-21.652343.867188-1.769531 1.929688-3.523438 3.25-5.359375 2.417969-3.363282 1.652344-8.050782-1.710938-10.46875-3.359374-2.414063-8.046874-1.648438-10.46875 1.710937-1.816406 2.527344-3.300781 4.984375-4.542968 7.519531-4.070313 8.316407-5.265625 17.464844-6.417969 26.3125-.875 6.710938-1.703125 13.050782-3.691406 18.75-1.878907 5.375-5.109375 10.691407-8.53125 16.320313-4.699219 7.734375-9.5625 15.730469-11.710938 25.121094-2.046875 8.933593-1.203125 18.011719-.386719 26.796875.628907 6.8125 1.226563 13.25.5 19.292968-.691406 5.722657-2.761718 11.671876-4.953124 17.96875-2.945313 8.460938-5.992188 17.210938-6.175782 26.726563-.183594 9.710937 2.546875 18.761719 5.1875 27.515625 1.957032 6.492188 3.804688 12.621094 4.300782 18.492188.519531 6.199218-.28125 12.730468-1.132813 19.640624-1.101563 8.9375-2.238281 18.175782-.460937 27.351563 1.867187 9.652344 6.523437 18.003906 11.027343 26.074219 3.261719 5.847656 6.339844 11.367187 8.085938 16.910156 1.851562 5.882812 2.53125 12.347656 3.253906 19.191406.957031 9.066406 1.945313 18.441406 5.863281 27.039063 4.1875 9.183593 10.894532 16.285156 17.386719 23.15625 3.246094 3.4375 6.359375 6.738281 8.976563 10.113281-2.316407 2.046875-4.878907 3.851562-7.671876 5.351562-3.117187 1.679688-6.441406 2.929688-9.863281 3.75-3.558593-5.238281-7.816406-10.019531-11.957031-14.660156-6.203125-6.953125-12.0625-13.519531-15.457031-21.207031-.75-1.695313-1.394531-3.515625-1.964844-5.554687-1.117187-3.988282-5.253906-6.316407-9.242187-5.203126-3.992188 1.117188-6.320313 5.253907-5.203126 9.246094.765626 2.734375 1.644532 5.214844 2.6875 7.574219 4.351563 9.851563 11.28125 17.617187 17.984376 25.132813 1.386718 1.550781 2.738281 3.070312 4.050781 4.585937-10.996094-2.707031-20.511719-9.90625-26.023438-20.144531-30.324219-56.253906-47.019531-128.566406-47.019531-203.625 0-75.042969 16.691406-147.359375 47.003906-203.625 5.648438-10.476563 15.273438-17.457032 26.007813-20.117188-1.300781 1.503906-2.648438 3.019532-4.023438 4.558594-6.699219 7.511719-13.628906 15.277344-17.980469 25.125-3.996093 9.046875-5.105468 18.925781-6.183593 28.480469-.824219 7.335937-1.601563 14.265625-3.582031 20.6875-1.847657 5.996093-5.03125 11.953125-8.402344 18.261719-4.605469 8.617187-9.367188 17.527343-11.359375 27.714843-1.875 9.605469-.894531 19.355469.058593 28.785157.75 7.445312 1.457032 14.476562.820313 21.222656-.601563 6.371094-2.578125 12.957031-4.671875 19.929687-2.769531 9.230469-5.632812 18.777344-5.632812 28.976563 0 10.199218 2.863281 19.742187 5.632812 28.96875 2.09375 6.972656 4.070312 13.554687 4.671875 19.925781.636719 6.746094-.074219 13.777344-.824219 21.222656-.949218 9.429688-1.933594 19.179688-.058594 28.785157.703126 3.578124 3.839844 6.0625 7.355469 6.0625.476563 0 .960938-.046876 1.445313-.140626 4.066406-.796874 6.714844-4.734374 5.921875-8.800781-1.453125-7.429687-.621094-15.671875.261719-24.402343.789062-7.835938 1.605468-15.933594.832031-24.140626-.742188-7.847656-3.027344-15.460937-5.238281-22.824218-2.570313-8.566406-5-16.660156-5-24.65625 0-8 2.429687-16.09375 5-24.667969 2.210937-7.363281 4.496093-14.976563 5.238281-22.828125.777343-8.203125-.039063-16.304688-.832031-24.136719-.878907-8.730469-1.710938-16.976562-.257813-24.402343 1.558594-7.980469 5.59375-15.53125 9.867187-23.523438 3.554688-6.660156 7.234376-13.542969 9.507813-20.914062 2.394531-7.765626 3.289063-15.730469 4.152344-23.429688.992187-8.820312 1.929687-17.152344 4.996093-24.097656 3.394532-7.683594 9.253907-14.25 15.453126-21.199219 4.144531-4.640625 8.402343-9.421875 11.960937-14.65625 3.363281.796875 6.679687 2.03125 9.863281 3.746094 19.707032 10.621093 27.097656 35.292969 16.480469 55zm-2.554687-63.859375c-2.132813-1.585938-4.402344-3.046875-6.8125-4.34375-1.375-.742188-2.773438-1.402344-4.179688-2.015625 10.773438-9.011719 18.210938-17.378907 21.777344-21.699219h5.792968c-2.734374 6.851562-7.765624 16.96875-16.578124 28.058594zm0 0"/></svg>