<svg height="511pt" viewBox="-72 0 511 511.9998" width="511pt" xmlns="http://www.w3.org/2000/svg"><path d="m12.566406 17.039062c15.300782 30.460938 68.777344 125.347657 155.757813 158.800782 0 0 15.386719-153.886719-149.828125-167.667969-4.738282-.394531-8.066406 4.617187-5.929688 8.867187zm0 0" fill="#cdf5a0"/><path d="m355.832031 49.257812c-14.863281 27.996094-63.378906 108.808594-141.503906 137.601563 0 0-13.964844-133.816406 135.402344-146.589844 4.898437-.417969 8.40625 4.644531 6.101562 8.988281zm0 0" fill="#bee891"/><path d="m183.242188 264.523438c-37.3125 4.121093-67.371094 34.90625-70.703126 72.292968-3.480468 39.019532 21.027344 72.890625 55.710938 83.820313 4.984375 1.570312 8.859375 5.511719 10.390625 10.511719l16.984375 55.566406 11.09375-54.40625c1.144531-5.628906 5.234375-10.171875 10.691406-11.964844 32.007813-10.515625 55.121094-40.640625 55.121094-76.164062 0-47.28125-40.929688-85-89.289062-79.65625zm0 0" fill="#ff8087"/><path d="m230.757812 405.105469c-53.496093 0-96.863281-43.367188-96.863281-96.863281 0-7.257813.863281-14.304688 2.378907-21.105469-13.203126 13.007812-22.019532 30.453125-23.734376 49.679687-3.480468 39.019532 21.027344 72.890625 55.710938 83.820313 4.988281 1.570312 8.863281 5.515625 10.390625 10.511719l16.988281 55.566406 11.089844-54.40625c1.144531-5.628906 5.234375-10.171875 10.691406-11.964844 10.652344-3.5 20.285156-9.210938 28.445313-16.53125-4.929688.773438-9.949219 1.292969-15.097657 1.292969zm0 0" fill="#e6646e"/><path d="m366.929688 35.371094c-1.457032-2.164063-3.9375-3.410156-6.546876-3.300782-53.359374 2.324219-93.890624 19.132813-120.472656 49.957032-36 41.742187-33.875 94.671875-33.164062 104.1875-2.179688 4.773437-4.109375 9.359375-5.804688 13.695312-3.398437 8.679688-6.082031 16.824219-8.210937 24.207032-2.503907-9.738282-5.863281-20.851563-10.371094-32.875-1.882813-5.027344-4.039063-10.351563-6.46875-15.894532.753906-9.859375 3.683594-72.621094-38.023437-120.863281-29.011719-33.5625-72.589844-51.886719-129.527344-54.4765625-2.570313-.1171875-5.054688 1.1093755-6.523438 3.2460935-1.464844 2.136719-1.7265622 4.878906-.6875 7.253906.585938 1.339844 14.671875 33.242188 41.894532 70.554688 24.753906 33.921875 65.351562 78.503906 119.175781 100.398438 2.21875 5.066406 4.191406 9.9375 5.925781 14.542968 4.21875 11.1875 7.390625 21.597656 9.777344 30.765625-25.222656-28.707031-54.820313-34.007812-56.445313-34.28125-4.070312-.679687-7.917969 2.070313-8.609375 6.140625-.695312 4.074219 2.046875 7.941406 6.121094 8.652344 1.683594.292969 38.980469 7.277344 61.851562 50-19.171874 2.492188-37.25 11.5625-51.050781 25.6875-14.171875 14.507812-22.949219 33.410156-24.707031 53.230469-3.511719 39.632812 20.046875 76.789062 57.292969 90.363281 5.109375 1.859375 8.828125 5.617188 10.207031 10.304688l14.542969 49.402343c-3.851563 6.484375-10.921875 10.730469-18.78125 10.730469-4.144531 0-7.5 3.359375-7.5 7.5s3.355469 7.5 7.5 7.5c17.496093 0 32.6875-12.453125 36.101562-29.535156l9.628907-45.679688c1.007812-4.777344 4.632812-8.789062 9.699218-10.734375 16.382813-6.28125 30.378906-17.226562 40.476563-31.65625 10.339843-14.765625 15.800781-32.128906 15.800781-50.214843 0-25.027344-10.738281-48.921876-29.457031-65.554688-3.097657-2.753906-7.839844-2.472656-10.589844.625s-2.46875 7.835938.625 10.585938c15.519531 13.789062 24.421875 33.597656 24.421875 54.34375 0 29.894531-18.746094 57.167968-46.648438 67.867187-9.839843 3.773437-16.941406 11.867187-19.003906 21.648437l-5.054687 23.976563-7.371094-25.039063c-2.734375-9.304687-9.832031-16.652343-19.460937-20.160156-30.875-11.25-50.398438-42.070312-47.484376-74.949218 1.449219-16.378907 8.730469-32.03125 20.492188-44.070313 11.769531-12.046875 27.242188-19.671875 43.570312-21.476563 10.070313-1.109374 19.984376-.210937 29.464844 2.671876 3.964844 1.203124 8.15625-1.03125 9.359375-4.996094s-1.03125-8.152344-4.996093-9.359375c-5.59375-1.699219-11.308594-2.816407-17.101563-3.371094 1.527344-10.074219 5.328125-29.238281 14.316406-52.066406 1.535157-3.894531 3.261719-7.996094 5.207031-12.261719 49.148438-19.246094 86.222657-58.277344 108.847657-87.988281 24.921875-32.730469 37.828125-60.75 38.367187-61.925781 1.082032-2.375.851563-5.144532-.605468-7.308594zm-311.585938 37.125c-16.804688-22.984375-28.585938-44.199219-34.949219-56.625 46.347657 4.328125 81.976563 20.550781 106.03125 48.3125 22.214844 25.636718 30.40625 56.59375 33.285157 79.285156-16.585938-28.519531-40.566407-59.320312-74.992188-85.800781-3.28125-2.527344-7.992188-1.910157-10.519531 1.371093-2.523438 3.285157-1.910157 7.992188 1.375 10.519532 36.382812 27.988281 60.476562 61.09375 76.277343 90.609375-42.636718-22.179688-75.5-58.933594-96.507812-87.671875zm261.671875 23.304687c-18.769531 24.597657-47.9375 55.925781-85.695313 75.367188 14.382813-25.074219 35.9375-52.855469 67.96875-76.46875 3.332032-2.457031 4.042969-7.152344 1.585938-10.488281-2.457031-3.332032-7.152344-4.042969-10.484375-1.585938-30.472656 22.464844-52.003906 48.472656-67.132813 72.796875 2.875-18.703125 10.171876-42.910156 28.011719-63.601563 21.621094-25.066406 54.125-39.792968 96.738281-43.863281-5.96875 11.007813-16.402343 28.726563-30.992187 47.84375zm0 0"/></svg>