<svg id="Layer_1" height="512" viewBox="0 0 64 64" width="512" xmlns="http://www.w3.org/2000/svg" data-name="Layer 1"><path d="m55.01 26.71c0 .1 0 .2-.01.3-3 1.46-4.54 4.78-4.86 8.01 0 0-8.14-1-10.14 6.99 0 0-8 1-8 11.99 0-10.99-8-11.99-8-11.99-2-7.99-10.14-6.99-10.14-6.99a11.97 11.97 0 0 0 -1.42-4.67 8.0383 8.0383 0 0 0 -3.44-3.34c-.15-2.51 1.61-4.81 3.11-6.7l-.08-2.73a7.3663 7.3663 0 0 1 5.15-7.32l2.53-.77 1.48-2.25a7.0118 7.0118 0 0 1 8.33-2.8l2.48.92 2.48-.92a7.0118 7.0118 0 0 1 8.33 2.8l1.48 2.25 2.53.77a7.3663 7.3663 0 0 1 5.15 7.32l-.08 2.73c1.44 1.81 3.12 4.01 3.12 6.4z" fill="#aed580"/><path d="m55.01 26.71c0 .1 0 .2-.01.3-3 1.46-4.54 4.78-4.86 8.01 0 0-8.14-1-10.14 6.99 0 0-8 1-8 11.99v-48.64l2.48-.92a7.0118 7.0118 0 0 1 8.33 2.8l1.48 2.25 2.53.77a7.3663 7.3663 0 0 1 5.15 7.32l-.08 2.73c1.44 1.81 3.12 4.01 3.12 6.4z" fill="#9ccc65"/><path d="m25 54h14v6h-14z" fill="#317e3d"/><path d="m32 54h7v6h-7z" fill="#1e5f30"/><path d="m16.0732 36.0645h-.03a1.0017 1.0017 0 0 1 -.9707-1.0293l.0371-1.2579a3.0075 3.0075 0 0 0 -.5948-1.8837l-1.6181-2.1651a4.5823 4.5823 0 0 1 0-5.457l1.6181-2.1651a3.0067 3.0067 0 0 0 .5948-1.8828l-.0796-2.7314a4.3706 4.3706 0 0 1 3.0107-4.3633l2.5381-.7646a.9994.9994 0 0 1 .5762 1.914l-2.5371.7647a2.3692 2.3692 0 0 0 -1.5879 2.3906l.0791 2.7314a5.0224 5.0224 0 0 1 -.9932 3.1387l-1.6179 2.1651a2.5724 2.5724 0 0 0 0 3.0624l1.6182 2.1651a5.0232 5.0232 0 0 1 .9932 3.14l-.0371 1.2579a1.0011 1.0011 0 0 1 -.9991.9703z" fill="#7cb342"/><path d="m60 26.03v7.09a20.895 20.895 0 0 1 -20.91 20.88h-7.09c0-10.99 8-11.99 8-11.99 2-7.99 10.14-6.99 10.14-6.99 1.14-9.99 9.86-8.99 9.86-8.99z" fill="#42a047"/><path d="m60 26.03v7.09a20.895 20.895 0 0 1 -20.91 20.88h-7.09a38.96 38.96 0 0 0 27.55-26.47z" fill="#378e43"/><path d="m39.0947 51h-2.5332a1 1 0 1 1 0-2h2.5332a15.9129 15.9129 0 0 0 15.9053-15.8848v-2.0166a1 1 0 0 1 2 0v2.0166a17.9155 17.9155 0 0 1 -17.9053 17.8848z" fill="#1e5f30"/><path d="m32 54h-7.0948a20.8948 20.8948 0 0 1 -20.9052-20.8844v-7.0878s8.7179-.9991 9.8589 8.991c0 0 8.1411-.999 10.1411 6.9931 0 0 8 .999 8 11.9881z" fill="#378e43"/><path d="m27.44 51a1 1 0 0 1 -.95-.6885c-.8868-2.71-2.6641-3.2441-3.1182-3.3379l-2.6289-.2a1 1 0 0 1 -.8936-.7548l-.6982-2.794c-.5547-2.2148-1.9619-3.2461-4.4287-3.2461-.1641 0-.28.0069-.3028.0078a.9872.9872 0 0 1 -1.0673-.9248.9977.9977 0 0 1 .9179-1.0693c.0157-.001.1944-.0137.4522-.0137 3.3867 0 5.5888 1.6465 6.3681 4.7608l.5235 2.0947 1.9668.1494c.0332.0029.0674.0068.1006.0127.5634.1016 3.4365.8037 4.7089 4.6924a1 1 0 0 1 -.9503 1.3113z" fill="#1e5f30"/><path d="m4 26.03v7.09a20.895 20.895 0 0 0 20.91 20.88h7.09a38.96 38.96 0 0 1 -27.55-26.47z" fill="#42a047"/><path d="m60.1143 25.0342a10.8476 10.8476 0 0 0 -4.2264.5327 13.27 13.27 0 0 0 -2.9885-5.5923l.0694-2.3652a8.3761 8.3761 0 0 0 -5.8555-8.3094l-2.1885-.66-1.2812-1.95a8.01 8.01 0 0 0 -9.5136-3.19l-2.13.7939-2.1289-.7939a8.0074 8.0074 0 0 0 -9.5147 3.19l-1.28 1.9492-2.1885.66a8.3738 8.3738 0 0 0 -5.8555 8.31l.0694 2.3662a13.2607 13.2607 0 0 0 -2.9892 5.5923 10.8473 10.8473 0 0 0 -4.2267-.5327 1 1 0 0 0 -.8859.9923v7.0879a21.9176 21.9176 0 0 0 21 21.8619v5.0229a1 1 0 0 0 1 1h14a1 1 0 0 0 1-1v-5.0229a21.9176 21.9176 0 0 0 21-21.8619v-7.0879a1 1 0 0 0 -.8857-.9931zm-47.22-4.1016a1.0007 1.0007 0 0 0 .2168-.6514l-.0789-2.7312a6.3712 6.3712 0 0 1 4.4317-6.3369l2.5371-.7647c.499-.0134 1.525-1.9984 2.0274-2.6613a6.02 6.02 0 0 1 7.1435-2.4121l2.4785.9238a1.0015 1.0015 0 0 0 .6992 0l2.4785-.9238a6.0156 6.0156 0 0 1 7.1436 2.4121l1.48 2.2539a.9962.9962 0 0 0 .5483.4082l2.5361.7647a6.3729 6.3729 0 0 1 4.4327 6.3369l-.08 2.73a1.0007 1.0007 0 0 0 .2168.6514c1.1757 1.4795 2.7509 3.461 2.8925 5.4824a10.609 10.609 0 0 0 -4.7294 7.5723 10.0392 10.0392 0 0 0 -10.07 7.1709 10.5238 10.5238 0 0 0 -4.3666 2.4244 11.4188 11.4188 0 0 0 -2.8321 4.3299 10.8066 10.8066 0 0 0 -7.1953-6.7441 9.557 9.557 0 0 0 -7.7069-6.939 5.1706 5.1706 0 0 0 -.9816-3.5327l-1.6182-2.1651a2.5724 2.5724 0 0 1 0-3.0624c1.0891-1.4746 2.81-3.32 2.6113-5.3038l-.079-2.7314a2.3692 2.3692 0 0 1 1.5879-2.3906l2.5371-.7647a1 1 0 0 0 -.5763-1.914l-2.538.7646a4.3706 4.3706 0 0 0 -3.011 4.3633l.0791 2.7314a3.0067 3.0067 0 0 1 -.5948 1.8828l-1.6181 2.1651a4.5738 4.5738 0 0 0 -.7191 3.9715 9.4959 9.4959 0 0 0 -2.1754-1.827c.1428-2.0224 1.7171-4.0039 2.8928-5.4834zm1.8369 13.0547a14.752 14.752 0 0 0 -.8281-2.9117 3.9724 3.9724 0 0 1 1.2 2.9218c-.1224-.0029-.2545-.0083-.3717-.0101zm-9.7312-.8721v-6.1142a8.4878 8.4878 0 0 1 3.66.9676c2.6615 1.44 3.8579 4.1816 4.2061 7.1632a1.0428 1.0428 0 0 0 1.1123.88 8.7765 8.7765 0 0 1 2.0645.0528.1734.1734 0 0 0 .0418-.0024 7.7825 7.7825 0 0 1 6.9453 6.1927 1.0054 1.0054 0 0 0 .8408.748c4.6078.8162 7.0387 5.6463 7.0852 9.9971h-5.956a19.9194 19.9194 0 0 1 -20-19.8848zm33 25.8848h-12v-4h12zm21-25.8848a19.92 19.92 0 0 1 -20 19.8848h-5.9564c.0416-4.3444 2.4858-9.1885 7.0835-9.996a1.0792 1.0792 0 0 0 .7262-.4708c1.6276-7.0719 8.7191-6.6521 9.1654-6.5223a1.1635 1.1635 0 0 0 .7424-.2088 1.206 1.206 0 0 0 .3727-.67c.3494-2.9851 1.5451-5.7243 4.207-7.1638a8.4884 8.4884 0 0 1 3.6592-.9673z"/><path d="m55 31.0986c.8649 9.4614-6.24 17.9273-15.9054 17.9014h-2.5331a1 1 0 0 0 0 2c11.9736.9668 21.247-7.849 20.4385-19.9015a1 1 0 0 0 -2 .0001z"/><path d="m26.4893 50.3115a1 1 0 0 0 1.9-.6231c-1.2724-3.8886-4.1455-4.5907-4.7089-4.6923-.0332-.0059-.0674-.01-.1006-.0127l-1.9668-.1494c-.7848-4.0514-2.1764-6.8189-6.8917-6.8555-1.6416-.2347-1.8927 1.9781-.3027 2.0078 4.3444-.209 4.6355 2.7134 5.43 6.0323a1 1 0 0 0 .8937.7548l2.6289.2c.454.094 2.2313.6282 3.1181 3.3381z"/></svg>