<?xml version="1.0" encoding="UTF-8"?>
<svg xmlns="http://www.w3.org/2000/svg" id="Layer_1" data-name="Layer 1" viewBox="0 0 64 64" width="512" height="512"><defs><style>.cls-1{fill:#42a047;}.cls-2{fill:#378e43;}</style></defs><path class="cls-1" d="M48.76,27.91c-1.22,1.13-2.51,1.71-4.02.09a7.088,7.088,0,0,1-.74-.99V48a11.85,11.85,0,0,1-2,6.62,11.9837,11.9837,0,0,1-20,0A11.85,11.85,0,0,1,20,48V27.08a7.23,7.23,0,0,1-.91,1.05c-1.62,1.51-2.87.84-4-.37-1.13-1.22-1.71-2.51-.09-4.02a8.259,8.259,0,0,1,3.06-1.71,8.1575,8.1575,0,0,1-3.13-1.86c-1.56-1.56-.93-2.83.24-4,1-1,2.07-1.59,3.33-.78A12.8845,12.8845,0,0,1,18,12c0-3.31,1.79-4,4-4,2.09,0,3.8.62,3.98,3.48a5.12,5.12,0,0,0-.81.69c-1.17,1.17-1.8,2.44-.24,4a8.1575,8.1575,0,0,0,3.13,1.86A8.259,8.259,0,0,0,25,19.74c-1.62,1.51-1.04,2.8.09,4.02,1.13,1.21,2.38,1.88,4,.37l.12-.12c1.39,1.57.73,2.79-.45,3.9-1.22,1.13-2.51,1.71-4.02.09a7.088,7.088,0,0,1-.74-.99V48a8,8,0,0,0,16,0V27.08a7.23,7.23,0,0,1-.91,1.05c-1.62,1.51-2.87.84-4-.37-1.06-1.14-1.61-2.36-.34-3.75,1.51,1.6,2.8,1.02,4.01-.1,1.21-1.13,1.88-2.38.37-4a7.9841,7.9841,0,0,0-2.99-1.94,8.1658,8.1658,0,0,0,2.93-1.8c1.56-1.56.93-2.83-.24-4a5.12,5.12,0,0,0-.81-.69C38.2,8.62,39.91,8,42,8c2.21,0,4,.69,4,4a12.8845,12.8845,0,0,1-.5,3.39c1.26-.81,2.33-.22,3.33.78,1.17,1.17,1.8,2.44.24,4a8.1658,8.1658,0,0,1-2.93,1.8,7.9841,7.9841,0,0,1,2.99,1.94C50.64,25.53,49.97,26.78,48.76,27.91Z"/><path class="cls-2" d="M32,56v4a11.9788,11.9788,0,0,1-10-5.38V8c2.09,0,3.8.62,3.98,3.48a5.12,5.12,0,0,0-.81.69c-1.17,1.17-1.8,2.44-.24,4a8.1575,8.1575,0,0,0,3.13,1.86A8.259,8.259,0,0,0,25,19.74c-1.62,1.51-1.04,2.8.09,4.02,1.13,1.21,2.38,1.88,4,.37l.12-.12c1.39,1.57.73,2.79-.45,3.9-1.22,1.13-2.51,1.71-4.02.09a7.088,7.088,0,0,1-.74-.99V48A8.0106,8.0106,0,0,0,32,56Z"/><path class="cls-2" d="M48.76,27.91c-1.22,1.13-2.51,1.71-4.02.09a7.088,7.088,0,0,1-.74-.99V48a11.85,11.85,0,0,1-2,6.62V8c2.21,0,4,.69,4,4a12.8845,12.8845,0,0,1-.5,3.39c1.26-.81,2.33-.22,3.33.78,1.17,1.17,1.8,2.44.24,4a8.1658,8.1658,0,0,1-2.93,1.8,7.9841,7.9841,0,0,1,2.99,1.94C50.64,25.53,49.97,26.78,48.76,27.91Z"/><path class="cls-1" d="M38.76,23.91c-1.22,1.13-2.51,1.71-4.02.09a7.088,7.088,0,0,1-.74-.99V55.74a7.8223,7.8223,0,0,1-4,0V23.08a7.23,7.23,0,0,1-.91,1.05c-1.62,1.51-2.87.84-4-.37-1.13-1.22-1.71-2.51-.09-4.02a8.259,8.259,0,0,1,3.06-1.71,8.1575,8.1575,0,0,1-3.13-1.86c-1.56-1.56-.93-2.83.24-4,1-1,2.07-1.59,3.33-.78A12.8845,12.8845,0,0,1,28,8c0-3.31,1.79-4,4-4s4,.69,4,4a12.8845,12.8845,0,0,1-.5,3.39c1.26-.81,2.33-.22,3.33.78,1.17,1.17,1.8,2.44.24,4a8.1658,8.1658,0,0,1-2.93,1.8,7.9841,7.9841,0,0,1,2.99,1.94C40.64,21.53,39.97,22.78,38.76,23.91Z"/><path class="cls-2" d="M38.76,23.91c-1.22,1.13-2.51,1.71-4.02.09a7.088,7.088,0,0,1-.74-.99V55.74A8.2419,8.2419,0,0,1,32,56V4c2.21,0,4,.69,4,4a12.8845,12.8845,0,0,1-.5,3.39c1.26-.81,2.33-.22,3.33.78,1.17,1.17,1.8,2.44.24,4a8.1658,8.1658,0,0,1-2.93,1.8,7.9841,7.9841,0,0,1,2.99,1.94C40.64,21.53,39.97,22.78,38.76,23.91Z"/><path class="cls-2" d="M48.2347,33H50a0,0,0,0,1,0,0v1.7653A4.2347,4.2347,0,0,1,45.7653,39H44a0,0,0,0,1,0,0V37.2347A4.2347,4.2347,0,0,1,48.2347,33Z"/><path class="cls-2" d="M28.2347,33H30a0,0,0,0,1,0,0v1.7653A4.2347,4.2347,0,0,1,25.7653,39H24a0,0,0,0,1,0,0V37.2347A4.2347,4.2347,0,0,1,28.2347,33Z"/><path class="cls-1" d="M14,33h1.7653A4.2347,4.2347,0,0,1,20,37.2347V39a0,0,0,0,1,0,0H18.2347A4.2347,4.2347,0,0,1,14,34.7653V33A0,0,0,0,1,14,33Z" transform="translate(34 72) rotate(-180)"/><path class="cls-1" d="M34,33h1.7653A4.2347,4.2347,0,0,1,40,37.2347V39a0,0,0,0,1,0,0H38.2347A4.2347,4.2347,0,0,1,34,34.7653V33A0,0,0,0,1,34,33Z" transform="translate(74 72) rotate(-180)"/><path d="M32,61A13.015,13.015,0,0,0,45,48V40a5.3439,5.3439,0,0,0,6-5.2345V33a1,1,0,0,0-1-1H48.2344A5.1822,5.1822,0,0,0,45,33.1506v-3.636c1.4382,1.0587,3.5.1621,4.4385-.8761,1.6029-1.306,2.2683-3.617.4248-5.41v.001A8.3171,8.3171,0,0,0,48.37,21.9873c1.4582-.8657,2.9343-2.5275,2.5918-4.124a5.2625,5.2625,0,0,0-4.1348-3.8506C47.5622,10.2845,46.2787,6.8263,42,7c-2.5988,0-4.18,1.0476-4.7475,3.0883a2.96,2.96,0,0,0-.4253-.0757C37.5618,6.2849,36.2792,2.8261,32,3c-4.278-.1744-5.5635,3.2861-4.8266,7.0126a2.96,2.96,0,0,0-.4254.076C26.18,8.0478,24.5991,7,22,7c-4.2784-.1745-5.5634,3.2864-4.8267,7.0127a5.264,5.264,0,0,0-4.1353,3.85c-.3463,1.6112,1.1627,3.2848,2.627,4.15-2.8247,1.5744-3.574,4.2312-1.3035,6.4258.9443,1.2108,3.0776,2.1989,4.6385,1.0263v3.686A5.1834,5.1834,0,0,0,15.7651,32H14a1,1,0,0,0-1,1v1.7656A5.3441,5.3441,0,0,0,19,40v8A13.0147,13.0147,0,0,0,32,61ZM48.2344,34H49a3.43,3.43,0,0,1-4,4A3.3758,3.3758,0,0,1,48.2344,34ZM27.9619,12.2324a1.0058,1.0058,0,0,0,1.5039-1.11A11.9914,11.9914,0,0,1,29,8c0-2.5215,1.0542-3,3-3s3,.4785,3,3a11.9716,11.9716,0,0,1-.4658,3.1221,1.0059,1.0059,0,0,0,1.5039,1.11c.9376-.8618,2.8162,1.1266,2.95,1.9532.1788,1.069-2.0325,2.4858-3.18,2.8368a1,1,0,0,0-.0147,1.8838A7.1051,7.1051,0,0,1,38.4,20.5938c.6943.7431.61,1.164.583,1.3017a3.8083,3.8083,0,0,1-2.29,2.1014l-.0149.0017a.9324.9324,0,0,1-.2644-.0265q-.0287-.0074-.0595-.0172a3.3742,3.3742,0,0,1-1.5119-1.4832A1.0061,1.0061,0,0,0,33,23.0108V33c-.0134.2317.01,21.0684,0,21.92a6.59,6.59,0,0,1-2,0c0-.6391,0-21.9949,0-21.92V23.0752a1.0062,1.0062,0,0,0-1.814-.581,5.9127,5.9127,0,0,1-.685.8056l-.0943.1006c-.7431.6934-1.163.61-1.3027.583a3.8849,3.8849,0,0,1-2.0967-2.249c-.1373-1.1054,2.16-2.4309,3.34-2.7412a1.0059,1.0059,0,0,0,.0147-1.9121c-1.1759-.3273-3.5249-1.7647-3.35-2.8956C25.14,13.3586,27.0415,11.37,27.9619,12.2324ZM35,34a3.43,3.43,0,0,1,4,4A3.43,3.43,0,0,1,35,34Zm0,4.8494A5.6415,5.6415,0,0,0,39,40v8a7.0025,7.0025,0,0,1-4,6.3148Zm4-5.6988A5.6415,5.6415,0,0,0,35,32V29.0417a3.1842,3.1842,0,0,0,4,.4231ZM25,48V40a5.6419,5.6419,0,0,0,4-1.1508V54.3149A7.0024,7.0024,0,0,1,25,48Zm4-13.2344A3.3758,3.3758,0,0,1,25,38a3.43,3.43,0,0,1,4-4ZM29,32a5.6419,5.6419,0,0,0-4,1.1508V29.52c1.2564.791,2.5969.6123,4-.5108ZM18.4067,27.4c-.7426.6934-1.164.6084-1.3027.583a3.8846,3.8846,0,0,1-2.0967-2.249c-.1351-1.1091,2.1583-2.4282,3.34-2.7412a1,1,0,0,0,.0147-1.9121c-1.1773-.3249-3.5239-1.7665-3.35-2.8956a2.7182,2.7182,0,0,1,.8638-1.3105c1.1152-1.1162,1.6225-.94,2.0864-.6426a1,1,0,0,0,1.5039-1.11C18.738,12.3419,18.3539,8.69,22,9c1.88,0,2.7.5419,2.93,2.0282-2.79,2.2-2.4586,5.0972.7353,6.9844-2.8243,1.5751-3.5745,4.23-1.3035,6.4258,1.0326,1.2587,2.9617,2.1539,4.6,1.05.1167.4707-.1142.9668-.8872,1.6875-1.1347,1.0586-1.7173,1.0908-2.6.1445a6.0208,6.0208,0,0,1-.6323-.8486A1.0057,1.0057,0,0,0,23,27.0108V37.2344c.0007,1.0541,0,9.5005,0,10.7656a9.0076,9.0076,0,0,0,6.7462,8.7028l.0028.0013A9.0407,9.0407,0,0,0,41,48c.003-1.2681-.002-9.72,0-10.7655V27.0752a1,1,0,0,0-.6953-.9522c-.92-.3224-1.3514.8355-1.8984,1.2774-.7452.6963-1.1651.6094-1.3018.583-.6749-.06-2.2882-1.8146-2.0811-2.45,1.4677.9794,3.2876.2374,4.4151-.8946,2.5431-2.1365,1.7384-4.9128-1.0684-6.6513,3.1608-1.8871,3.4867-4.7468.7012-6.959C39.3008,9.542,40.12,9,42,9c1.9453,0,3,.4785,3,3a11.9716,11.9716,0,0,1-.4658,3.1221.9994.9994,0,0,0,1.5039,1.11c.4639-.2969.9746-.4717,2.0869.6426a2.7126,2.7126,0,0,1,.8633,1.3105c.0224.14.0918.5625-.627,1.2813a7.1594,7.1594,0,0,1-2.5527,1.5557,1,1,0,0,0-.0147,1.8837A7.1157,7.1157,0,0,1,48.4,24.5928v.001c.6943.7431.61,1.164.583,1.3017a3.8809,3.8809,0,0,1-2.249,2.0967c-.1406.0215-.5674.0713-1.26-.6719-.4286-.4341-.8771-1.5887-1.7549-1.2694a1,1,0,0,0-.72.96V37.2344c-.0047,1.0484.0034,9.5046,0,10.7656-.6008,14.5859-21.3951,14.5956-22,0-.0113-1.3112.0081-9.6893,0-10.7655V27.0752a1.0046,1.0046,0,0,0-1-1C19.2319,26.0508,18.9067,27.0315,18.4067,27.4ZM18.2349,38A3.3757,3.3757,0,0,1,15,34a3.43,3.43,0,0,1,4,4Z"/></svg>
