<svg height="512pt" viewBox="0 -14 512 512" width="512pt" xmlns="http://www.w3.org/2000/svg"><path d="m291.898438 15.699219-5.832032-5.835938c-3.347656-3.347656-8.808594-3.109375-11.835937.535157-9.992188 12.046874-30.476563 40.324218-42.28125 81.625v8.015624h40.082031v-8.015624c3.695312-29.554688 15.90625-56.277344 21.367188-67.074219 1.566406-3.097657.953124-6.800781-1.5-9.25zm0 0" fill="#96cd82"/><path d="m256 476.800781h48.097656c110.679688 0 200.402344-43.804687 200.402344-192.390625 0-148.582031-89.722656-192.386718-200.402344-192.386718h-48.097656zm0 0" fill="#ffaa5f"/><path d="m256 476.800781h35.683594c82.117187 0 148.6875-43.804687 148.6875-192.390625 0-148.582031-66.570313-192.386718-148.6875-192.386718h-35.683594zm0 0" fill="#ffc369"/><path d="m256 92.023438h-48.097656c-110.679688 0-200.402344 43.804687-200.402344 192.386718 0 148.585938 89.722656 192.390625 200.402344 192.390625h48.097656zm0 0" fill="#ff7350"/><path d="m256 92.023438h-35.683594c-82.117187 0-148.6875 43.804687-148.6875 192.386718 0 148.585938 66.570313 192.390625 148.6875 192.390625h35.683594zm0 0" fill="#ff8c5a"/><path d="m336.160156 284.410156c0-161.503906-35.886718-192.386718-80.160156-192.386718s-80.160156 30.882812-80.160156 192.386718 35.886718 192.390625 80.160156 192.390625 80.160156-30.886719 80.160156-192.390625zm0 0" fill="#ffaa5f"/><path d="m450.539062 126.683594c-34.363281-27.976563-83.632812-42.160156-146.441406-42.160156h-23.320312c4.59375-25.199219 14.804687-47.273438 19.316406-56.191407 3.019531-5.980469 1.859375-13.1875-2.890625-17.9375l-5.835937-5.835937c-3.085938-3.089844-7.351563-4.746094-11.703126-4.542969-4.339843.203125-8.421874 2.242187-11.203124 5.59375-10.6875 12.886719-29.933594 39.863281-42.089844 78.914063h-18.46875c-62.808594 0-112.078125 14.183593-146.441406 42.160156-40.78125 33.199218-61.460938 86.269531-61.460938 157.726562 0 71.460938 20.679688 124.527344 61.460938 157.730469 34.363281 27.972656 83.632812 42.160156 146.441406 42.160156h96.195312c62.808594 0 112.078125-14.1875 146.4375-42.160156 40.785156-33.203125 61.464844-86.269531 61.464844-157.730469 0-71.457031-20.679688-124.527344-61.460938-157.726562zm-194.539062 342.617187c-23.242188 0-38.671875-9.742187-50.027344-31.589843-15.230468-29.300782-22.632812-79.445313-22.632812-153.296876 0-73.855468 7.402344-124 22.632812-153.300781 11.355469-21.84375 26.785156-31.585937 50.027344-31.585937s38.671875 9.742187 50.027344 31.585937c15.230468 29.300781 22.632812 79.445313 22.632812 153.300781 0 73.851563-7.402344 123.996094-22.632812 153.296876-11.355469 21.84375-26.785156 31.589843-50.027344 31.589843zm24.003906-454.113281c.070313-.082031.171875-.175781.355469-.183594.234375 0 .355469.117188.402344.164063l5.835937 5.835937c.097656.097656.242188.300782.109375.558594-4.980469 9.84375-16.445312 34.691406-21.152343 62.964844h-23.425782c11.414063-34.183594 28.316406-57.816406 37.875-69.339844zm-209.070312 415.320312c-37.117188-30.214843-55.933594-79.367187-55.933594-146.097656 0-66.726562 18.816406-115.878906 55.933594-146.09375 16.324218-13.292968 36.515625-23.1875 60.378906-29.664062-7.925781 5.375-15.15625 11.640625-21.675781 18.792968-30.199219 33.132813-45.507813 85.945313-45.507813 156.964844 0 37.671875 4.300782 70.449219 12.777344 97.429688 1.007812 3.203125 3.964844 5.253906 7.15625 5.253906.742188 0 1.5-.113281 2.25-.347656 3.949219-1.242188 6.148438-5.453125 4.90625-9.402344-8.023438-25.523438-12.089844-56.789062-12.089844-92.933594 0-67.164062 13.992188-116.574218 41.59375-146.859375 21.675782-23.78125 51.351563-36.199219 90.515625-37.832031-7.152343 6.183594-13.292969 14.308594-18.574219 24.476562-16.367187 31.488282-24.324218 83.898438-24.324218 160.214844 0 76.320313 7.957031 128.730469 24.324218 160.21875 5.28125 10.164063 11.421876 18.289063 18.570313 24.472656-50.808594-2.136718-86.074219-22.503906-107.625-62.105468-1.976563-3.640625-6.53125-4.984375-10.171875-3.003906-3.636719 1.980468-4.980469 6.535156-3 10.171874 10.507812 19.3125 24.191406 34.660157 40.941406 46.023438-23.894531-6.472656-44.105468-16.378906-60.445312-29.679688zm370.132812 0c-16.324218 13.292969-36.515625 23.1875-60.378906 29.664063 7.925781-5.375 15.15625-11.640625 21.675781-18.792969 30.195313-33.132812 45.507813-85.945312 45.507813-156.964844 0-54.019531-8.851563-97.675781-26.304688-129.753906-1.980468-3.636718-6.535156-4.984375-10.171875-3.003906-3.640625 1.980469-4.984375 6.535156-3.003906 10.171875 16.246094 29.855469 24.480469 71.101563 24.480469 122.585937 0 67.164063-13.992188 116.574219-41.59375 146.859376-21.675782 23.78125-51.351563 36.199218-90.515625 37.832031 7.148437-6.183594 13.292969-14.308594 18.574219-24.476563 16.367187-31.488281 24.324218-83.898437 24.324218-160.214844 0-76.320312-7.957031-128.726562-24.324218-160.21875-5.285157-10.164062-11.425782-18.292968-18.574219-24.476562 39.164062 1.636719 68.84375 14.050781 90.515625 37.832031 2.792968 3.0625 7.535156 3.28125 10.59375.492188 3.0625-2.789063 3.285156-7.53125.492187-10.59375-6.519531-7.152344-13.75-13.421875-21.675781-18.796875 23.863281 6.476562 44.054688 16.375 60.378906 29.664062 37.117188 30.214844 55.933594 79.367188 55.933594 146.09375 0 66.730469-18.816406 115.882813-55.933594 146.097656zm0 0"/></svg>