<svg height="512pt" viewBox="-64 0 512 512" width="512pt" xmlns="http://www.w3.org/2000/svg"><path d="m256.160156 7.5h-7.921875c-28.058593 0-53.792969 16.132812-65.417969 41.664062-8.015624 17.609376-14.835937 55.425782-14.835937 78.578126h48.097656c0-16.742188 1.398438-48.117188 3.027344-60.308594 2.132813-15.960938 15.691406-27.871094 31.796875-27.871094h5.257812c8.851563 0 16.03125-7.175781 16.03125-16.03125 0-8.851562-7.179687-16.03125-16.035156-16.03125zm0 0" fill="#96cd82"/><path d="m196.859375 68.203125c1.796875-25.171875 22.738281-44.671875 47.972656-44.671875h27.363281c0-8.855469-7.179687-16.03125-16.035156-16.03125h-7.921875c-28.058593 0-53.792969 16.132812-65.417969 41.664062-8.015624 17.609376-14.835937 55.425782-14.835937 78.578126h24.621094zm0 0" fill="#7dbe81"/><path d="m244.472656 130.078125c16.609375-9.757813 38.269532-12.144531 58.652344-9.347656 48.210938 6.617187 84.222656 32.625 69.402344 132.3125-17.894532 120.328125-61.828125 252.433593-125.3125 243.71875-7.933594-1.089844-16.976563-5.773438-23.117188-10.632813zm0 0" fill="#ff8087"/><path d="m138.925781 130.078125c-16.613281-9.757813-38.269531-12.144531-58.65625-9.347656-48.207031 6.617187-84.21875 32.625-69.398437 132.3125 17.890625 120.328125 61.828125 252.433593 125.3125 243.71875 7.933594-1.089844 16.976562-5.773438 23.117187-10.632813zm0 0" fill="#dc4655"/><path d="m280.210938 237.402344c0 125.695312-24.046876 267.097656-88.175782 267.097656s-88.179687-141.40625-88.179687-267.097656c0-104.125 39.480469-125.691406 88.179687-125.691406 48.695313 0 88.175782 21.5625 88.175782 125.691406zm0 0" fill="#e6646e"/><path d="m365.898438 144.554688c-13.03125-17.375-32.492188-27.308594-61.246094-31.253907-22.859375-3.136719-40.867188-1.085937-56.261719 6.445313-7.171875-5.277344-15.382813-9.171875-24.777344-11.738282.160157-12.867187 1.136719-26.160156 2.929688-39.582031 1.625-12.179687 12.101562-21.363281 24.363281-21.363281h5.257812c12.972657 0 23.53125-10.554688 23.53125-23.53125 0-12.972656-10.558593-23.53125-23.535156-23.53125h-7.921875c-31.148437 0-59.507812 18.078125-72.242187 46.058594-9.683594 21.269531-14.875 42.078125-15.453125 61.914062-9.453125 2.574219-17.683594 6.507813-24.898438 11.847656-15.398437-7.585937-33.484375-9.667968-56.394531-6.519531-28.753906 3.945313-48.214844 13.878907-61.246094 31.253907-17.320312 23.101562-22.082031 58.949218-14.550781 109.589843 9.988281 67.171875 26.375 128.335938 46.136719 172.226563 11.523437 25.59375 24.140625 45.195312 37.5 58.265625 13.613281 13.320312 28.078125 20.039062 43.097656 20.039062 2.324219 0 4.664062-.160156 7.015625-.484375 6.851563-.9375 13.269531-3.214844 19.164063-6.769531 10.675781 9.683594 22.601562 14.578125 35.664062 14.578125 12.996094 0 24.90625-4.890625 35.578125-14.53125 5.871094 3.53125 12.265625 5.789062 19.089844 6.722656 2.351562.324219 4.691406.484375 7.015625.484375 15.019531 0 29.488281-6.71875 43.097656-20.035156 13.359375-13.074219 25.976562-32.675781 37.5-58.269531 19.765625-43.886719 36.148438-105.050782 46.136719-172.226563 7.53125-50.640625 2.769531-86.488281-14.550781-109.589843zm-176.25-92.28125c10.308593-22.640626 33.304687-37.273438 58.589843-37.273438h7.925781c4.703126 0 8.53125 3.828125 8.53125 8.53125s-3.828124 8.53125-8.53125 8.53125h-5.257812c-19.746094 0-36.613281 14.78125-39.230469 34.378906-1.75 13.085938-2.757812 26.074219-3.019531 38.707032-5.234375-.625-10.765625-.9375-16.625-.9375-5.761719 0-11.207031.292968-16.347656.886718.980468-16.84375 5.660156-34.582031 13.964844-52.824218zm175.964843 199.664062c-9.789062 65.847656-25.765625 125.609375-44.980469 168.277344-15.28125 33.933594-40.171874 73.472656-71.890624 69.117187-3.828126-.523437-7.382813-1.617187-10.742188-3.269531.296875-.390625.597656-.757812.890625-1.15625 11.285156-15.238281 20.878906-37.050781 28.511719-64.832031 13.09375-47.671875 20.308594-112.542969 20.308594-182.671875 0-25.953125-2.472657-48.199219-7.351563-66.121094-1.089844-4-5.214844-6.355469-9.207031-5.269531-3.996094 1.089843-6.355469 5.210937-5.269532 9.207031 4.53125 16.640625 6.824219 37.5625 6.824219 62.183594 0 68.824218-7.019531 132.285156-19.769531 178.699218-10.140625 36.90625-28.9375 80.898438-60.90625 80.898438-15.574219 0-29.507812-10.492188-41.414062-31.191406-2.066407-3.589844-6.648438-4.824219-10.242188-2.761719-3.589844 2.066406-4.824219 6.652344-2.757812 10.242187 2.679687 4.660157 5.476562 8.898438 8.390624 12.722657-3.390624 1.683593-6.980468 2.789062-10.84375 3.320312-31.742187 4.34375-56.613281-35.183593-71.894531-69.121093-19.214843-42.664063-35.1875-102.425782-44.980469-168.273438-6.910156-46.472656-3.078124-78.65625 11.714844-98.382812 10.46875-13.960938 26.765625-22.03125 51.285156-25.394532 17.082032-2.34375 30.816407-1.445312 42.394532 2.832032-18.386719 21.5-27.328125 56.3125-27.328125 106.410156 0 80.316406 9.632812 154.117187 26.425781 202.472656 1.074219 3.097656 3.976562 5.042969 7.082031 5.042969.816407 0 1.648438-.136719 2.460938-.417969 3.914062-1.359375 5.984375-5.632812 4.625-9.546875-16.265625-46.835937-25.59375-118.839844-25.59375-197.550781 0-46.632813 7.847656-78.355469 23.992187-96.980469 12.546875-14.472656 30.558594-21.210937 56.6875-21.210937 29.964844 0 49.019532 8.621093 61.78125 27.957031 2.28125 3.457031 6.933594 4.410156 10.390625 2.128906s4.410157-6.933594 2.128907-10.390625c-1.875-2.839844-3.867188-5.492188-5.976563-7.972656 11.546875-4.234375 25.222656-5.109375 42.253906-2.773438 24.523438 3.367188 40.816407 11.4375 51.285157 25.394532 14.792968 19.726562 18.625 51.910156 11.714843 98.382812zm0 0"/></svg>