<svg height="511pt" viewBox="-112 0 511 511.9983" width="511pt" xmlns="http://www.w3.org/2000/svg"><path d="m132.492188 19.699219c-1.132813-3.808594-6.691407-3.277344-7.082032.675781-4.0625 40.910156-4.160156 87.734375.5625 137.199219 1.140625 11.945312 4.46875 34.703125 6.078125 46.195312l25.839844-49.242187c-4.71875-49.464844-13.671875-95.425782-25.398437-134.828125zm0 0" fill="#bee891"/><path d="m156.796875 231.117188c3.484375-19.234376 7.316406-45.246094 9.433594-65.941407 5.058593-49.4375 5.277343-96.257812 1.496093-137.195312-.363281-3.953125-5.917968-4.523438-7.078124-.722657-11.992188 39.320313-21.257813 85.21875-26.316407 134.652344-1.222656 11.9375-2.417969 34.90625-3.085937 46.492188zm0 0" fill="#cdf5a0"/><path d="m167.992188 241.800781c-4.433594-.664062-7.621094-4.625-6.941407-9.054687-13.089843-28.984375-29.820312-37.554688-39.914062-40.007813-3.570313-.867187-6.375 3.050781-4.621094 6.277344 7.183594 13.230469 9.964844 25.949219 11.042969 33.816406.605468 4.410157-2.554688 8.300781-6.957032 8.960938-63.964843 9.558593-112.601562 57.105469-112.601562 114.40625 0 47.898437 33.996094 88.957031 82.519531 106.726562 9.589844 3.511719 17.464844 9.976563 22.6875 18.144531 2.839844 4.445313 7.503907 7.394532 12.78125 7.394532h36.570313c5.277344 0 9.941406-2.949219 12.78125-7.394532 5.222656-8.167968 13.097656-14.632812 22.6875-18.144531 48.519531-17.769531 82.519531-58.828125 82.519531-106.726562 0-57.285157-48.613281-104.820313-112.554687-114.398438zm0 0" fill="#ffaa5f"/><path d="m167.992188 241.800781c-4.433594-.664062-7.621094-4.625-6.941407-9.054687-5.230469-11.582032-11.039062-19.863282-16.777343-25.839844v281.558594h18.285156c5.277344 0 9.941406-2.945313 12.78125-7.390625 5.21875-8.171875 13.097656-14.632813 22.6875-18.144531 48.519531-17.773438 82.519531-58.828126 82.519531-106.730469 0-57.285157-48.613281-104.820313-112.554687-114.398438zm0 0" fill="#ffc369"/><path d="m181.25 244.496094c-4.507812-1.082032-17.925781-4.578125-19.191406-9.039063-6.765625-25.882812-31.992188-40.558593-40.957032-42.726562-3.558593-.863281-6.410156 2.9375-4.65625 6.152343 7.25 13.304688 10.042969 26.105469 11.121094 33.996094.597656 4.382813-2.53125 8.253906-6.910156 8.90625-63.992188 9.542969-112.65625 57.097656-112.65625 114.414063 0 47.898437 33.996094 88.957031 82.519531 106.726562 9.589844 3.515625 17.464844 9.976563 22.6875 18.148438 2.839844 4.441406 7.503907 7.390625 12.78125 7.390625h36.574219c5.273438 0 9.9375-2.949219 12.78125-7.390625 5.21875-8.171875 13.09375-14.632813 22.6875-18.148438 48.519531-17.769531 82.519531-58.828125 82.519531-106.726562-.003906-53.238281-42.035156-97.957031-99.300781-111.703125zm0 0" fill="#ffaa5f"/><path d="m123.023438 240.96875c-.734376.347656-1.480469.683594-2.324219.808594-64.015625 9.527344-112.699219 57.09375-112.699219 114.421875 0 47.898437 33.996094 88.957031 82.519531 106.726562 3.550781 1.300781 6.773438 3.125 9.804688 5.171875l43.949219-14.777344v-212.351562zm0 0" fill="#ff8c5a"/><path d="m144.273438 243.5v243.496094c53.125 0 96.191406-60.121094 96.191406-127.289063s-43.066406-116.207031-96.191406-116.207031zm0 0" fill="#ffd164"/><path d="m144.273438 238.085938v243.238281c-53.125 0-96.195313-54.449219-96.195313-121.617188s43.066406-121.621093 96.195313-121.621093zm0 0" fill="#ffaa5f"/><path d="m184.351562 359.707031c0 67.167969-17.941406 121.621094-40.078124 121.621094-22.136719 0-40.082032-54.453125-40.082032-121.621094s17.945313-121.621093 40.082032-121.621093c23.667968 0 40.078124 54.453124 40.078124 121.621093zm0 0" fill="#ffc369"/><path d="m171.261719 234.726562c-2.648438-.292968-2.800781-1-2.71875-1.386718 1.0625-6.867188 4.121093-19.171875 13.097656-28.148438 2.929687-2.929687 2.929687-7.679687 0-10.609375-2.929687-2.925781-7.679687-2.925781-10.605469 0-1.417968 1.417969-2.726562 2.890625-3.933594 4.40625 1.792969-12.0625 3.332032-24.285156 4.585938-36.554687 5.628906-55.007813 5.503906-108.902344-.359375-155.863282-.433594-3.464843-3.203125-6.175781-6.679687-6.5312495-3.484376-.3554685-6.738282 1.7343755-7.863282 5.0429685-4.5625 13.402344-8.738281 27.527344-12.515625 42.199219-3.785156-14.707031-7.964843-28.832031-12.515625-42.199219-1.125-3.308593-4.382812-5.398437-7.863281-5.0429685-3.476563.3554685-6.246094 3.0624995-6.679687 6.5312495-5.863282 46.960938-5.988282 100.855469-.359376 155.863282.761719 7.449218 1.640626 14.929687 2.605469 22.347656-4.707031-.738281-7.792969-.402344-8.199219-.351562-2.574218.332031-4.796874 1.96875-5.875 4.328124-1.074218 2.363282-.855468 5.113282.585938 7.273438 9.832031 14.75 13.09375 30.023438 14.160156 37.816406.039063.289063-.355468.484375-.632812.527344-68.953125 10.304688-118.996094 61.542969-118.996094 121.824219 0 49.660156 34.320312 94.316406 87.441406 113.769531 7.804688 2.859375 14.53125 8.238281 18.945313 15.144531 3.992187 6.25 10.355469 10.175781 17.277343 10.765625l-2.632812 5.265625c-1.851562 3.703125-.347656 8.207031 3.355469 10.0625 1.078125.539063 2.222656.792969 3.347656.792969 2.75 0 5.398437-1.523438 6.714844-4.148438l5.941406-11.886718h6.761719l5.945312 11.886718c1.3125 2.628907 3.960938 4.148438 6.710938 4.148438 1.128906 0 2.273437-.257812 3.351562-.792969 3.703125-1.855469 5.207032-6.359375 3.351563-10.0625l-2.632813-5.265625c6.921875-.589844 13.285156-4.515625 17.28125-10.765625 4.414063-6.90625 11.140625-12.285156 18.945313-15.144531 53.117187-19.453125 87.441406-64.109375 87.441406-113.769531 0-59.628907-48.984375-110.410157-116.785156-121.472657zm-31.472657-75.558593c4.027344-39.355469 10.863282-77.496094 20.058594-112.238281 1.972656 35.886718.945313 74.621093-3.082031 113.976562-1.460937 14.285156-3.3125 28.5-5.511719 42.460938-4.761718-5.28125-9.558594-9.117188-14.097656-11.894532.652344-10.6875 1.53125-21.535156 2.632812-32.304687zm-11.101562-112.242188c2.875 10.859375 5.519531 22.074219 7.929688 33.578125-2.957032 14.429688-5.535157 29.242188-7.707032 44.328125-1.507812-26.839843-1.585937-53.054687-.222656-77.90625zm-113.1875 309.273438c0-37.46875 22.503906-71.003907 57.566406-90.609375-4.273437 5.019531-8.222656 10.480468-11.757812 16.355468-13.5625 22.519532-20.730469 49.382813-20.730469 77.683594 0 29.949219 8.386719 58.539063 23.019531 81.214844-29.945312-20.316406-48.097656-51.234375-48.097656-84.644531zm209.449219 84.640625c14.632812-22.671875 23.015625-51.257813 23.015625-81.210938 0-12.929687-1.519532-25.691406-4.515625-37.933594-.984375-4.011718-4.933594-6.75-8.96875-5.863281-4.136719.90625-6.6875 5.039063-5.675781 9.125 2.761718 11.167969 4.164062 22.835938 4.164062 34.671875 0 41.488282-17.558594 79.8125-45.820312 100.023438-.21875.15625-.421876.320312-.617188.492187-7.054688 4.203125-13.105469 9.996094-17.507812 16.890625-1.574219 2.460938-3.988282 3.929688-6.464844 3.929688h-36.570313c-2.472656 0-4.886719-1.46875-6.460937-3.929688-4.414063-6.910156-10.480469-12.710937-17.550782-16.914062-.199218-.179688-.40625-.347656-.628906-.507813-28.230468-20.21875-45.765625-58.53125-45.765625-99.984375 0-48.691406 24.332031-92.230468 59.738281-108.058594-13.609374 23.140626-22.132812 63.261719-22.132812 108.058594 0 28.570313 3.382812 55.519532 9.773438 77.925782.941406 3.292968 3.945312 5.441406 7.210937 5.441406.871094 0 1.765625-.152344 2.640625-.480469 3.699219-1.378906 5.582031-5.519531 4.503906-9.316406-5.886718-20.75-9.128906-46.863281-9.128906-73.570313 0-50.910156 12.015625-97.625 28.585938-111.15625 2.453124-2.003906 3.300781-5.207031 2.472656-8.265625-.96875-3.585937-3.59375-5.585937-5.566406-15.933593-1.214844-6.394532-3.496094-13.765626-6.953126-21.519532 6.519532 3.34375 14.511719 9.863282 22.03125 22.523438 2.351563 3.953125 4.023438 8.261718 5.25 12.691406.492188 1.777344 1.308594 3.464844 2.4375 4.996094 2.574219 3.492187 6.605469 5.824218 10.988282 6.324218.074218.015626.148437.03125.222656.050782 20.050781 7.082031 37.636719 23.132812 49.570312 45.320312 1.351563 2.515625 3.9375 3.945313 6.609376 3.945313 1.296874 0 2.617187-.335938 3.824218-1.050781 3.519532-2.082032 4.554688-6.714844 2.609375-10.308594-4.277343-7.902344-9.210937-15.136719-14.683593-21.597656 35.003906 19.613281 57.464843 53.121093 57.464843 90.550781-.003906 33.410156-18.15625 64.328125-48.101562 84.640625zm0 0"/><path d="m186.710938 330.6875c-4.132813.261719-7.273438 3.828125-7.007813 7.960938.4375 6.875.65625 13.933593.65625 20.980468 0 20.515625-1.890625 40.707032-5.472656 58.390625-.820313 4.058594 1.804687 8.015625 5.863281 8.839844.503906.101563 1.003906.148437 1.496094.148437 3.496094 0 6.625-2.457031 7.34375-6.011718 3.773437-18.648438 5.769531-39.871094 5.769531-61.367188 0-7.363281-.230469-14.742187-.6875-21.933594-.261719-4.132812-3.8125-7.273437-7.960937-7.007812zm0 0"/><path d="m183.269531 312.699219c.441407 0 .886719-.039063 1.332031-.121094 4.078126-.730469 6.792969-4.625 6.0625-8.703125-.691406-3.851562-1.460937-7.652344-2.289062-11.292969-.921875-4.039062-4.9375-6.566406-8.980469-5.644531-4.039062.917969-6.566406 4.9375-5.644531 8.976562.777344 3.414063 1.5 6.980469 2.148438 10.601563.648437 3.632813 3.808593 6.183594 7.371093 6.183594zm0 0"/></svg>