<svg height="512pt" viewBox="-160 0 512 512" width="512pt" xmlns="http://www.w3.org/2000/svg"><path d="m90.78125 337.609375 16.054688 151.511719c45.960937-42.476563 72.394531-230.644532 76.742187-384.796875-16.035156 43.300781-44.921875 113.859375-51.15625 133.449219zm0 0" fill="#cdf5a0"/><path d="m135.933594 224.230469c0 181.757812-17.96875 216.726562-40.136719 216.726562-22.164063 0-40.132813-34.96875-40.132813-216.726562 0-181.761719 17.96875-216.730469 40.132813-216.730469 22.167969 0 40.136719 34.96875 40.136719 216.730469zm0 0" fill="#ffd164"/><path d="m9.125 109.742188c4.335938 81.128906 19.3125 270.238281 66.855469 347.425781 2.980469 4.835937 4.617187 10.292969 5.113281 15.871093l1.8125 20.40625c.566406 6.355469 6.269531 11.191407 13.039062 11.050782 7.34375-.148438 13.070313-6.003906 12.5625-12.90625-3.183593-43.425782-23.425781-202.148438-99.382812-381.847656zm0 0" fill="#cdf5a0"/><path d="m104.980469 479.398438-1.8125-20.40625c-.496094-5.578126-2.132813-11.035157-5.113281-15.875-34.351563-55.773438-51.699219-169.964844-60.316407-259.648438-8.535156-24.003906-18.011719-48.648438-28.613281-73.726562 4.335938 81.125 19.3125 270.234374 66.855469 347.421874 2.980469 4.839844 4.617187 10.296876 5.113281 15.875l1.8125 20.40625c.566406 6.351563 6.269531 11.1875 13.039062 11.050782 7.34375-.148438 13.070313-6.003906 12.5625-12.90625-.117187-1.609375-.265624-3.429688-.433593-5.355469-1.707031-1.863281-2.859375-4.203125-3.09375-6.835937zm0 0" fill="#b4e6a0"/><path d="m184.15625 64.214844c-.023438 0-.042969 0-.0625 0-4.113281 0-7.464844 3.320312-7.5 7.441406 0 .261719-.113281 12.746094-.796875 33.230469-11.183594 26.117187-22.507813 54.863281-32.640625 83.179687-1.023438-63.234375-4.863281-109.007812-11.660156-139.300781-4.699219-20.933594-13.507813-48.765625-35.699219-48.765625-22.1875 0-31 27.832031-35.695313 48.765625-6.789062 30.25-10.628906 75.945313-11.65625 139.046875-9.0625-25.566406-20.328124-54.421875-31.960937-81.53125-1.113281-21.113281-1.472656-34.152344-1.484375-34.753906-.105469-4.140625-3.542969-7.398438-7.6875-7.308594-4.140625.101562-7.414062 3.542969-7.30859375 7.683594.01562495.71875 1.90624975 72.761718 11.28515575 156.042968 12.671876 112.472657 32.289063 190.917969 58.304688 233.152344 2.253906 3.660156 3.609375 7.898438 4.027344 12.605469l1.8125 20.40625c.902344 10.109375 9.746094 17.890625 20.230468 17.890625.144532 0 .289063 0 .433594-.003906 5.714844-.117188 11.152344-2.550782 14.910156-6.679688 3.597657-3.949218 5.367188-9.019531 4.980469-14.273437-.03125-.425781-.066406-.882813-.097656-1.328125 31.855469-37.730469 54.367187-124.324219 66.933594-257.492188.390625-4.125-2.640625-7.78125-6.761719-8.171875-4.128906-.382812-7.78125 2.640625-8.171875 6.761719-10.789063 114.375-29.375 195.15625-54.117187 236.035156-.753907-7.019531-1.691407-14.964844-2.863282-23.78125 10.65625-8.445312 18.117188-26.859375 23.332032-57.40625 5.902343-34.582031 8.90625-84.277344 9.171874-151.6875.023438-.078125.066407-.148437.089844-.226562 9.121094-28.667969 19.316406-57.179688 30.394532-85.164063-.820313 15.402344-1.890626 32.414063-3.277344 50.375-.320313 4.128907 2.769531 7.734375 6.898437 8.054688.195313.015625.390625.023437.585938.023437 3.878906 0 7.164062-2.988281 7.46875-6.921875 5.503906-71.195312 6.015625-127.773437 6.019531-128.335937.035156-4.144532-3.296875-7.527344-7.4375-7.5625zm-109.417969-12.164063c3.792969-16.902343 10.523438-37.050781 21.058594-37.050781 10.539063 0 17.269531 20.148438 21.0625 37.050781.007813.019531.011719.046875.015625.066407-.3125.035156-.644531.058593-1.027344.058593-2.390625 0-3.199218-.648437-5.359375-2.371093-2.816406-2.253907-7.074219-5.65625-14.722656-5.65625s-11.898437 3.40625-14.714844 5.660156c-2.152343 1.722656-2.957031 2.367187-5.339843 2.367187-.367188 0-.6875-.023437-.988282-.058593.003906-.019532.007813-.046876.015625-.066407zm-2.847656 14.8125c1.171875.195313 2.4375.3125 3.820313.3125 7.644531 0 11.898437-3.40625 14.714843-5.660156 2.152344-1.722656 2.957031-2.367187 5.335938-2.367187 2.394531 0 3.203125.648437 5.363281 2.371093 2.816406 2.253907 7.074219 5.65625 14.722656 5.65625 1.394532 0 2.671875-.117187 3.855469-.316406 1.101563 6.667969 2.097656 13.980469 2.992187 21.921875-.53125.398438-1.027343.789062-1.488281 1.15625-2.160156 1.726562-2.964843 2.375-5.359375 2.375-2.390625 0-3.199218-.648438-5.359375-2.375-2.816406-2.25-7.074219-5.652344-14.726562-5.652344-7.644531 0-11.898438 3.402344-14.710938 5.65625-2.152343 1.722656-2.960937 2.371094-5.339843 2.371094-2.378907 0-3.183594-.648438-5.335938-2.371094-.449219-.359375-.949219-.75-1.476562-1.144531.894531-7.945313 1.894531-15.261719 2.992187-21.933594zm-4.652344 38.773438c2.253907.972656 5.011719 1.675781 8.472657 1.675781 7.644531 0 11.898437-3.40625 14.714843-5.660156 2.152344-1.722656 2.957031-2.367188 5.339844-2.367188 2.390625 0 3.199219.644532 5.359375 2.371094 2.816406 2.25 7.074219 5.65625 14.722656 5.65625 3.480469 0 6.25-.707031 8.511719-1.6875.574219 6.707031 1.089844 13.777344 1.542969 21.210938-1.914063 1.03125-3.414063 2.214843-4.691406 3.238281-2.160157 1.726562-2.96875 2.371093-5.363282 2.371093-2.390625 0-3.199218-.644531-5.359375-2.371093-2.816406-2.253907-7.074219-5.65625-14.722656-5.65625s-11.898437 3.40625-14.714844 5.660156c-2.152343 1.722656-2.957031 2.367187-5.339843 2.367187-2.378907 0-3.183594-.644531-5.335938-2.367187-1.238281-.992187-2.75-2.1875-4.679688-3.230469.453126-7.433594.96875-14.503906 1.542969-21.210937zm-2.476562 38.859375c2.617187 1.578125 6.101562 2.949218 10.949219 2.949218 7.644531 0 11.898437-3.40625 14.714843-5.660156 2.152344-1.722656 2.957031-2.367187 5.335938-2.367187 2.394531 0 3.203125.648437 5.363281 2.371093 2.816406 2.253907 7.074219 5.65625 14.722656 5.65625 4.871094 0 8.363282-1.378906 10.988282-2.960937.3125 6.945313.578124 14.171875.800781 21.660156-2.804688 1.179688-4.835938 2.792969-6.429688 4.066407-2.15625 1.722656-2.964843 2.371093-5.359375 2.371093-2.390625 0-3.199218-.648437-5.359375-2.371093-2.816406-2.253907-7.074219-5.65625-14.722656-5.65625s-11.898437 3.40625-14.714844 5.660156c-2.152343 1.722656-2.957031 2.367187-5.339843 2.367187-2.378907 0-3.183594-.644531-5.335938-2.367187-1.589844-1.277344-3.617188-2.886719-6.414062-4.0625.21875-7.488282.488281-14.710938.800781-21.65625zm-1.230469 39.34375c2.734375 1.878906 6.527344 3.742187 12.179688 3.742187 7.644531 0 11.898437-3.40625 14.714843-5.660156 2.152344-1.722656 2.957031-2.367187 5.339844-2.367187 2.390625 0 3.199219.644531 5.359375 2.371093 2.816406 2.253907 7.074219 5.65625 14.722656 5.65625 5.675782 0 9.480469-1.871093 12.21875-3.757812.136719 7.167969.234375 14.5625.292969 22.171875-3.199219 1.199218-5.441406 2.984375-7.152344 4.347656-2.160156 1.726562-2.964843 2.371094-5.359375 2.371094-2.390625 0-3.199218-.644532-5.359375-2.371094-2.816406-2.253906-7.074219-5.65625-14.722656-5.65625s-11.898437 3.40625-14.714844 5.660156c-2.152343 1.722656-2.957031 2.367188-5.339843 2.367188-2.378907 0-3.183594-.644532-5.335938-2.367188-1.703125-1.367187-3.945312-3.148437-7.136719-4.347656.058594-7.605469.15625-14.996094.292969-22.160156zm36.386719 311.378906c-1 1.097656-2.503907 1.746094-4.125 1.78125-2.789063.078125-5.199219-1.796875-5.414063-4.21875l-1.816406-20.40625c-.625-7.042969-2.710938-13.480469-6.195312-19.140625-39.316407-63.828125-56.046876-208.464844-62.902344-300.238281 64.410156 164.453125 78.65625 299.488281 81.566406 339.144531.101562 1.417969-.550781 2.457031-1.113281 3.078125zm8.113281-72.3125c-1.867188-12.261719-4.125-25.71875-6.863281-40.269531 2.820312 2.253906 7.070312 5.617187 14.679687 5.617187.957032 0 1.859375-.050781 2.714844-.148437-3.253906 17.296875-6.972656 28.109375-10.53125 34.800781zm13.300781-52.121094c-.039062.03125-.082031.066406-.125.097656-2.160156 1.726563-2.964843 2.375-5.359375 2.375-2.390625 0-3.199218-.648437-5.359375-2.375-2.558593-2.042968-6.3125-5.027343-12.707031-5.5625-1.601562-7.882812-3.335938-16.039062-5.214844-24.4375.917969-.550781 1.777344-.789062 3.195313-.789062 2.394531 0 3.203125.644531 5.363281 2.371094 2.816406 2.253906 7.074219 5.65625 14.722656 5.65625 3.3125 0 5.988282-.640625 8.1875-1.546875-.792968 8.726562-1.695312 16.800781-2.703125 24.210937zm4.183594-43.054687c-1.753906.992187-3.15625 2.097656-4.308594 3.015625-2.15625 1.726562-2.964843 2.375-5.359375 2.375-2.390625 0-3.199218-.648438-5.355468-2.375-2.820313-2.25-7.078126-5.652344-14.726563-5.652344-2.558594 0-4.726563.386719-6.597656.976562-1.53125-6.476562-3.144531-13.085937-4.84375-19.820312 2.648437-1.167969 4.585937-2.710938 6.101562-3.921875 2.152344-1.722656 2.957031-2.367187 5.335938-2.367187 2.394531 0 3.203125.644531 5.363281 2.371093 2.816406 2.25 7.074219 5.652344 14.722656 5.652344 4.84375 0 8.324219-1.363281 10.941406-2.933594-.363281 7.917969-.789062 15.480469-1.273437 22.679688zm1.992187-41.125c-2.738281 1.175781-4.734374 2.757812-6.300781 4.007812-2.160156 1.726563-2.964843 2.371094-5.359375 2.371094-2.390625 0-3.199218-.644531-5.359375-2.371094-2.816406-2.253906-7.074219-5.65625-14.726562-5.65625-7.644531 0-11.898438 3.40625-14.710938 5.660157-.230469.183593-.4375.351562-.640625.511718-2.027344-7.640625-4.167968-15.429687-6.425781-23.347656.558594.042969 1.128906.070312 1.726563.070312 7.644531 0 11.898437-3.40625 14.714843-5.660156 2.152344-1.722656 2.957031-2.367187 5.335938-2.367187 2.394531 0 3.203125.644531 5.363281 2.371093 2.816406 2.25 7.074219 5.65625 14.722656 5.65625 5.683594 0 9.488282-1.878906 12.230469-3.765624-.148437 7.765624-.335937 15.273437-.570313 22.519531zm.820313-40.457031c-3.164063 1.191406-5.402344 2.957031-7.121094 4.332031-2.160156 1.722656-2.964843 2.371093-5.359375 2.371093-2.390625 0-3.199218-.648437-5.359375-2.371093-2.816406-2.253907-7.074219-5.65625-14.726562-5.65625-7.644531 0-11.898438 3.40625-14.710938 5.660156-2.15625 1.722656-2.960937 2.367187-5.339843 2.367187-2.378907 0-3.183594-.644531-5.335938-2.367187-.574219-.460937-1.199219-.957031-1.882812-1.457031-1.722657-5.71875-3.496094-11.496094-5.339844-17.339844.007812-.152344.019531-.300781.019531-.457031-.003906-2.308594-.007813-4.644531-.007813-7 0-.175781 0-.34375 0-.515625 2.757813 1.964844 6.636719 4 12.546876 4 7.644531 0 11.898437-3.40625 14.714843-5.660156 2.152344-1.722657 2.957031-2.367188 5.339844-2.367188 2.390625 0 3.199219.648438 5.359375 2.371094 2.816406 2.253906 7.074219 5.65625 14.722656 5.65625 5.9375 0 9.824219-2.046875 12.585938-4.015625v.53125c0 7.503906-.039063 14.800781-.105469 21.917969zm0 0"/></svg>