<svg id="Layer_1" height="512" viewBox="0 0 64 64" width="512" xmlns="http://www.w3.org/2000/svg" data-name="Layer 1"><path d="m59.25 17.97a75.6893 75.6893 0 0 1 -41.28 41.28 10.2146 10.2146 0 0 1 -13.64-7.1c-.02-.07-.03-.13-.05-.2a10.1866 10.1866 0 0 1 6.02-11.79 55.17 55.17 0 0 0 29.86-29.86 10.1866 10.1866 0 0 1 11.79-6.02c.07.02.13.03.2.05a9.5786 9.5786 0 0 1 2.26.85 10.09 10.09 0 0 1 4.84 12.79z" fill="#378e43"/><path d="m54.41 5.18a72.1191 72.1191 0 0 1 -48.89 49.85 10.0588 10.0588 0 0 1 -1.19-2.88c-.02-.07-.03-.13-.05-.2a10.1866 10.1866 0 0 1 6.02-11.79 55.17 55.17 0 0 0 29.86-29.86 10.1866 10.1866 0 0 1 11.79-6.02c.07.02.13.03.2.05a9.5786 9.5786 0 0 1 2.26.85z" fill="#42a047"/><path d="m8.1689 52.0078a.9991.9991 0 0 1 -.9711-.7666 7.1439 7.1439 0 0 1 4.246-8.3047 58.5041 58.5041 0 0 0 31.4922-31.4922 1 1 0 0 1 1.8487.7637 60.518 60.518 0 0 1 -32.5762 32.5762 5.1547 5.1547 0 0 0 -3.0664 5.99 1 1 0 0 1 -.7388 1.2061 1.0161 1.0161 0 0 1 -.2344.0275z" fill="#317e3d"/><path d="m16.4551 56.5537a1 1 0 0 1 -.38-1.9248 71.1192 71.1192 0 0 0 38.5533-38.5547 1 1 0 0 1 1.8506.76 73.1309 73.1309 0 0 1 -39.645 39.6443.9794.9794 0 0 1 -.3789.0752z" fill="#1e5f30"/><circle cx="18" cy="48" fill="#317e3d" r="1"/><circle cx="20" cy="44" fill="#317e3d" r="1"/><g fill="#1e5f30"><circle cx="22" cy="48" r="1"/><circle cx="15" cy="52" r="1"/><circle cx="11" cy="54" r="1"/></g><circle cx="13" cy="48" fill="#317e3d" r="1"/><path d="m3.3584 52.3838c1.385 6.4466 8.9193 10.451 14.9942 7.7947a77.152 77.152 0 0 0 41.8274-41.826c2.67-6.0956-1.398-13.6953-7.8941-15.0175l-.1018-.025a11.1361 11.1361 0 0 0 -12.9441 6.606 54.4764 54.4764 0 0 1 -29.325 29.324 11.1323 11.1323 0 0 0 -6.6045 12.9446l.0235.0986zm7.3216-11.2959a56.4868 56.4868 0 0 0 30.4084-30.4079 9.1584 9.1584 0 0 1 10.7275-5.4017l.1016.0254c5.2825 1.13 8.5884 7.3163 6.4115 12.2891a75.1409 75.1409 0 0 1 -40.7357 40.7363c-4.97 2.1742-11.163-1.1263-12.2906-6.4121l-.0234-.0986a9.1461 9.1461 0 0 1 5.4007-10.7305z"/><path d="m8.1689 52.0078a1.0028 1.0028 0 0 0 .9732-1.2334 5.1547 5.1547 0 0 1 3.0664-5.99 60.518 60.518 0 0 0 32.5762-32.5764 1 1 0 0 0 -1.8487-.7637 58.5041 58.5041 0 0 1 -31.4922 31.4922 7.1439 7.1439 0 0 0 -4.246 8.3047.9991.9991 0 0 0 .9711.7666z"/><path d="m16.0752 54.6289a1.0036 1.0036 0 0 0 .38 1.9248 72.5052 72.5052 0 0 0 40.024-39.72 1.0005 1.0005 0 0 0 -1.8507-.76 71.1193 71.1193 0 0 1 -38.5533 38.5552z"/><path d="m19 48a1 1 0 0 0 -2 0 1 1 0 0 0 2 0z"/><path d="m20 43a1 1 0 0 0 0 2 1 1 0 0 0 0-2z"/><path d="m22 49a1 1 0 0 0 0-2 1 1 0 0 0 0 2z"/><path d="m16 52a1 1 0 0 0 -2 0 1 1 0 0 0 2 0z"/><path d="m11 53a1 1 0 0 0 0 2 1 1 0 0 0 0-2z"/><path d="m13 47a1 1 0 0 0 0 2 1 1 0 0 0 0-2z"/></svg>