<svg height="512pt" viewBox="0 -23 512.00051 512" width="512pt" xmlns="http://www.w3.org/2000/svg"><path d="m270.007812 161.367188c-7.242187-12.089844-15.160156-22.582032-22.492187-30.679688-52.6875-58.210938-37.65625-107.320312-94.367187-120.507812-110.507813-25.703126-160.394532 138.382812-141.828126 217.742187 18.570313 79.359375 72.25 173.089844 180.378907 156.253906 15.175781-2.359375 54.238281-22.929687 66.265625-43.976562l20.902344-50.84375c17.144531-41.703125 14.3125-89.304688-8.859376-127.988281zm0 0" fill="#f0c382"/><path d="m55.898438 219.917969c-19.890626-40.503907-25.125-111-6.621094-165.851563-35.800782 49.382813-49.007813 126.621094-37.957032 173.855469 18.570313 79.359375 72.25 173.089844 180.378907 156.253906 15.175781-2.359375 54.238281-22.929687 66.265625-43.976562l2.578125-6.269531c-98.339844 35.066406-169.457031-42.367188-204.644531-114.011719zm0 0" fill="#e3aa75"/><path d="m360.1875 187.726562c-16.65625 3.832032-31.886719 9.238282-45.609375 16.253907-18.277344 9.339843-34.035156 22.949219-47.1875 38.710937-8.679687 10.398438-16.355469 21.691406-21.878906 34.058594-6.070313 13.601562-10.628907 28.683594-13.605469 45.269531-14.03125 78.171875 48.996094 136.296875 124.273438 136.296875 75.273437 0 148.320312-61.023437 148.320312-136.296875 0-75.273437-44.09375-157.34375-144.3125-134.292969zm0 0" fill="#fff6d8"/><path d="m374.179688 432.402344c-75.273438 0-138.300782-58.128906-124.269532-136.296875 2.976563-16.585938 7.535156-31.667969 13.605469-45.269531 1.308594-2.929688 2.757813-5.792969 4.292969-8.605469-.132813.160156-.285156.300781-.417969.457031-8.679687 10.402344-16.355469 21.691406-21.878906 34.0625-6.070313 13.601562-10.628907 28.683594-13.605469 45.269531-14.03125 78.171875 48.996094 136.296875 124.273438 136.296875 54.894531 0 108.464843-32.523437 133.523437-79.292968-28.332031 32.40625-71.484375 53.378906-115.523437 53.378906zm0 0" fill="#ffedb1"/><path d="m461.007812 199.089844c-26.933593-21.445313-62.378906-27.902344-102.503906-18.671875-23.210937 5.339843-43.726562 13.699219-61.335937 24.929687-4.992188-24.601562-21.476563-54.707031-44.09375-79.691406-21.351563-23.59375-31.058594-45.398438-39.621094-64.632812-11.863281-26.648438-22.109375-49.660157-58.605469-58.148438-35.921875-8.355469-69.246094 1.585938-96.371094 28.746094-22.507812 22.539062-40.390624 56.828125-50.347656 96.554687-9.15625 36.515625-10.652344 73.496094-4.109375 101.457031 11.105469 47.464844 31.855469 89.234376 58.429688 117.617188 16.34375 17.457031 34.996093 30.175781 55.4375 37.800781 15.34375 5.726563 31.757812 8.601563 49.035156 8.597657 8.445313 0 17.101563-.683594 25.929687-2.058594 12.8125-1.996094 24.804688-5.429688 35.785157-10.191406 4.527343 13.335937 11.5 25.804687 20.824219 36.953124 25.234374 30.164063 64.132812 47.464844 106.71875 47.464844 38.421874 0 77.558593-15.242187 107.378906-41.820312 31.238281-27.847656 48.441406-64.0625 48.441406-101.976563 0-51.558593-19.0625-97.511719-50.992188-122.929687zm-7.429687 213.707031c-27.109375 24.160156-62.609375 38.019531-97.398437 38.019531-37.574219 0-73.167969-15.734375-95.214844-42.089844-19.644532-23.488281-27.34375-53.808593-21.675782-85.382812 4.511719-25.132812 12.917969-47.097656 24.984376-65.285156 2.289062-3.449219 1.347656-8.105469-2.101563-10.394532-3.453125-2.289062-8.105469-1.347656-10.398437 2.101563-13.207032 19.902344-22.371094 43.769531-27.25 70.929687-2.832032 15.789063-2.722657 31.320313.195312 46.054688-10.347656 4.726562-21.820312 8.09375-34.175781 10.019531-30.9375 4.8125-134.773438 8.195313-171.921875-150.554687-11.964844-51.144532 5.816406-139.285156 50.46875-183.996094 23.601562-23.632812 51.3125-31.953125 82.359375-24.734375 29.226562 6.796875 36.8125 23.839844 48.300781 49.640625 8.574219 19.257812 19.242188 43.226562 42.207031 68.597656 22.871094 25.269532 39.371094 56.894532 41.546875 79.394532-3.582031 2.859374-7.03125 5.84375-10.308594 8.984374-2.988281 2.867188-3.089843 7.613282-.222656 10.605469 2.867188 2.988281 7.613282 3.089844 10.601563.222657 19.929687-19.105469 46.269531-32.527344 78.292969-39.890626 36.023437-8.285156 66.234374-2.976562 89.796874 15.785157 28.390626 22.597656 45.335938 64.167969 45.335938 111.195312 0 33.578125-15.421875 65.816407-43.421875 90.777344zm0 0"/><path d="m100.914062 116.277344c-2.929687-2.925782-7.679687-2.925782-10.605468 0-2.929688 2.929687-2.929688 7.679687 0 10.605468l8.015625 8.019532c1.464843 1.464844 3.382812 2.195312 5.304687 2.195312 1.917969 0 3.835938-.730468 5.300782-2.195312 2.929687-2.929688 2.929687-7.679688 0-10.605469zm0 0"/><path d="m111.566406 65.976562c-4.144531 0-7.5 3.359376-7.5 7.5 0 4.144532 3.355469 7.5 7.5 7.5h.078125c4.140625 0 7.460938-3.355468 7.460938-7.5 0-4.140624-3.398438-7.5-7.539063-7.5zm0 0"/><path d="m135.617188 162.1875c-4.140626 0-7.5 3.359375-7.5 7.5s3.359374 7.5 7.5 7.5h.078124c4.144532 0 7.460938-3.359375 7.460938-7.5s-3.398438-7.5-7.539062-7.5zm0 0"/><path d="m63.539062 146.152344c-4.140624 0-7.5 3.359375-7.5 7.5s3.359376 7.5 7.5 7.5h.082032c4.140625 0 7.460937-3.359375 7.460937-7.5s-3.398437-7.5-7.542969-7.5zm0 0"/></svg>