<svg id="Layer_1" enable-background="new 0 0 512 512" height="512" viewBox="0 0 512 512" width="512" xmlns="http://www.w3.org/2000/svg"><g fill="#a1887f"><path d="m69.28 450.72c-4.418 0-8-3.583-7.999-8.001 0-2.121.843-4.155 2.342-5.655l24.857-24.857c3.069-3.178 8.134-3.266 11.312-.196s3.266 8.134.196 11.312c-.064.067-.13.132-.196.196l-24.851 24.856c-1.5 1.505-3.537 2.349-5.661 2.345z"/><path d="m106.56 488.004c-4.422-.006-8.001-3.596-7.995-8.017.001-.856.14-1.706.41-2.518l12.43-37.28c1.286-4.227 5.755-6.611 9.982-5.325s6.611 5.755 5.325 9.982c-.041.136-.087.271-.135.405l-12.43 37.28c-1.088 3.267-4.144 5.471-7.587 5.473z"/><path d="m32 413.44c-4.418.008-8.006-3.568-8.014-7.986-.006-3.453 2.205-6.521 5.483-7.607l37.28-12.43c4.192-1.398 8.723.867 10.121 5.059s-.867 8.723-5.059 10.121l-37.28 12.43c-.816.272-1.67.412-2.531.413z"/></g><path d="m273.52 280.64c-.48.24-1.12.48-1.6.72l-2.72 1.2c-9.32 4.309-17.969 9.94-25.68 16.72-6.382-13.529-17.271-24.418-30.8-30.8 6.78-7.711 12.411-16.36 16.72-25.68l1.2-2.72c.24-.48.48-1.12.72-1.6 18.041 9.401 32.759 24.119 42.16 42.16z" fill="#42a047"/><path d="m273.52 280.64c-.48.24-1.12.48-1.6.72l-2.72 1.2c-9.32 4.309-17.969 9.94-25.68 16.72-3.083-6.763-7.396-12.893-12.72-18.08l24.88-24.88c7.194 7.113 13.216 15.322 17.84 24.32z" fill="#378e43"/><path d="m243.52 299.28c-15.314 13.398-26.009 31.288-30.56 51.12-.015.221-.069.438-.16.64-.099.255-.153.526-.16.8-7.079 28.464-21.348 54.632-41.44 76-30.88 30.88-53.04 14.08-77.04-10-24.08-24-40.88-46.16-10-77.04 21.368-20.092 47.537-34.361 76-41.44.274-.007.545-.061.8-.16.202-.091.419-.145.64-.16 19.832-4.551 37.722-15.246 51.12-30.56 13.529 6.382 24.418 17.271 30.8 30.8z" fill="#edeff0"/><path d="m243.52 299.28c-15.314 13.398-26.009 31.288-30.56 51.12-.015.221-.069.438-.16.64-.099.255-.153.526-.16.8-7.079 28.464-21.348 54.632-41.44 76-30.88 30.88-53.04 14.08-77.04-10l136.64-136.64c5.324 5.187 9.637 11.317 12.72 18.08z" fill="#cfd8dc"/><path d="m480 212.72-4.08 34.64c-69.227-7.145-139.105 4.345-202.4 33.28-9.401-18.041-24.119-32.759-42.16-42.16 28.935-63.295 40.424-133.173 33.28-202.4l34.64-4.08c6.127 59.21-.306 119.046-18.88 175.6 45.026-40.677 97.666-72.028 154.88-92.24l1.92-.64 3.84 12.08 6.8 21.68-1.92.72c-50.88 17.909-97.821 45.481-138.24 81.2 55.615-17.669 114.275-23.688 172.32-17.68z" fill="#81c785"/><path d="m480 212.72-4.08 34.64c-69.227-7.145-139.105 4.345-202.4 33.28-4.624-8.998-10.646-17.207-17.84-24.32l21.205-21.205c43.781-44.325 95.83-79.635 153.2-103.93 3.601-1.497 7.252-2.959 10.954-4.386l6.8 21.68-1.92.72c-50.88 17.909-97.82 45.482-138.238 81.2 55.614-17.668 114.274-23.687 172.319-17.679z" fill="#66bb6a"/><path d="m220.746 352.133c6.964-28.655 27.21-52.253 54.473-63.493.086-.043.657-.301.742-.348l.875-.405h.008c61.991-28.332 130.43-39.574 198.226-32.56 4.346.437 8.243-2.68 8.774-7.015l4.102-34.672c.496-4.418-2.683-8.401-7.101-8.897-.003 0-.006-.001-.008-.001-46.279-4.865-93.041-2.151-138.446 8.035 32.48-23.779 68.275-42.662 106.24-56.043 4.606-.689 7.781-4.981 7.092-9.586-.053-.353-.128-.703-.225-1.047l-10.688-33.801c-1.361-4.228-5.891-6.552-10.119-5.191-.062.02-.124.041-.186.062-50.344 17.557-97.314 43.594-138.88 76.985 13.088-49.876 17.031-101.71 11.64-152.992-.494-4.417-4.473-7.599-8.89-7.11l-34.672 4.102c-4.346.514-7.472 4.425-7.016 8.778 7.025 68.106-4.355 136.849-32.953 199.058l.16.07c-.081.272-.147.548-.198.827l-.328-.105c-4.118 9.629-9.743 18.541-16.664 26.4l-.005.009c-12.242 14.075-28.638 23.9-46.823 28.058v.004l-1.438.336c-40.382 9.018-112.4 49.7-96.56 95.452l-32.41 10.805c-4.179 1.481-6.366 6.069-4.885 10.247 1.117 3.153 4.072 5.282 7.416 5.345.861-.001 1.715-.141 2.531-.414l34.734-11.581c4.052 5.839 8.603 11.317 13.6 16.371l-19.241 19.246c-3.084 3.164-3.02 8.228.143 11.313 3.107 3.029 8.063 3.029 11.17 0l19.244-19.247c5.052 5.006 10.529 9.565 16.369 13.625l-11.574 34.72c-1.51 4.152.632 8.742 4.785 10.252s8.742-.632 10.252-4.785c.049-.134.094-.269.135-.405l10.836-32.503c48.103 15.345 85.404-56.214 95.44-96.485zm10.542-81.327c-2.075-1.642-4.22-3.2-6.374-4.72 3.79-5.139 7.138-10.59 10.008-16.294 10.915 7.069 20.211 16.365 27.28 27.28-5.704 2.872-11.156 6.22-16.297 10.009-4.043-6.117-8.969-11.601-14.617-16.275zm42.048-227.68 18.789-2.222c4.683 55.481-1.885 111.336-19.312 164.217-1.293 4.251 1.105 8.745 5.355 10.038 2.648.805 5.523.193 7.613-1.62 42.693-38.53 92.339-68.568 146.281-88.506l5.859 18.531c-49.778 18.346-95.727 45.754-135.522 80.838-3.313 2.923-3.63 7.978-.707 11.292 2.096 2.376 5.398 3.291 8.418 2.333 51.946-16.578 106.651-22.745 160.984-18.148l-2.218 18.785c-65.619-5.469-131.57 5.415-191.954 31.676-8.911-14.29-20.974-26.352-35.266-35.262 26.26-60.381 37.144-126.33 31.678-191.947zm-110.47 263.832c19.513-4.296 37.357-14.172 51.36-28.424 8.069 4.509 14.728 11.169 19.237 19.238-14.282 14.039-24.172 31.929-28.464 51.49l-.195.778c-6.737 26.987-20.256 51.807-39.274 72.106-23.875 23.874-39.57 16.222-65.742-9.942s-33.803-41.865-9.936-65.732v-.003c20.287-19.012 45.094-32.526 72.069-39.262z"/></svg>