<svg height="512pt" viewBox="-19 0 512 512.00004" width="512pt" xmlns="http://www.w3.org/2000/svg"><path d="m130.929688 273.917969c51.660156 12.394531 95.027343 50.605469 82.632812 102.265625-12.398438 51.660156-55.992188 101.976562-127.519531 84.8125-71.53125-17.164063-87.542969-81.785156-75.148438-133.445313 12.394531-51.660156 68.375-66.027343 120.035157-53.632812zm0 0" fill="#be4150"/><path d="m115.039062 443.222656c-71.53125-17.164062-86.96875-84.179687-74.058593-137.992187 2.523437-10.515625 6.746093-19.519531 12.222656-27.1875-20.527344 8.820312-36.398437 24.882812-42.308594 49.507812-12.394531 51.660157 3.617188 116.28125 75.148438 133.445313 39.191406 9.402344 69.933593-1.519532 91.816406-21.75-17.753906 7.472656-38.691406 9.765625-62.820313 3.976562zm0 0" fill="#a03c4b"/><path d="m359.792969 312.113281c53.125 0 104.210937 27.035157 104.210937 80.160157s-30.652344 112.226562-104.210937 112.226562c-73.558594 0-104.210938-59.101562-104.210938-112.226562s51.085938-80.160157 104.210938-80.160157zm0 0" fill="#be4150"/><path d="m336.183594 186.226562c21.28125 22.375 48.402344 36.1875 77.539062 41.597657 30.414063 5.648437 58.097656-20.683594 53.984375-51.34375-3.941406-29.371094-16.378906-57.148438-37.660156-79.527344-33.695313-35.425781-82.023437-49.386719-129.828125-42.523437-9.25 47.402343 2.269531 96.371093 35.964844 131.796874zm0 0" fill="#7dbe81"/><path d="m453.871094 215.546875c10.070312-9.703125 15.878906-23.847656 13.835937-39.066406-3.945312-29.371094-16.378906-57.152344-37.664062-79.527344-33.691407-35.425781-82.019531-49.386719-129.824219-42.523437-.007812.027343-.007812.054687-.015625.082031zm0 0" fill="#96cd82"/><path d="m383.839844 480.453125c-73.558594 0-104.210938-61.5625-104.210938-116.902344 0-10.816406 2.003906-20.558593 5.542969-29.289062-17.90625 13.367187-29.589844 32.6875-29.589844 58.011719 0 53.128906 30.648438 112.226562 104.210938 112.226562 40.304687 0 67.648437-17.789062 84.207031-42.570312-15.519531 11.40625-35.34375 18.523437-60.160156 18.523437zm0 0" fill="#a03c4b"/><path d="m450.300781 349.761719c-3.574219 2.09375-4.769531 6.691406-2.671875 10.261719 5.582032 9.519531 8.414063 20.371093 8.414063 32.25 0 52.128906-29.902344 104.726562-96.707031 104.726562-66.808594 0-96.710938-52.597656-96.710938-104.726562 0-47.128907 44.679688-70.027344 88.871094-72.441407.152344 5.644531.253906 11.335938.300781 17.066407-3.175781.175781-6.328125.449218-9.4375.839843-4.105469.523438-7.015625 4.273438-6.496094 8.382813s4.269531 7.015625 8.382813 6.5c9.875-1.253906 20.304687-1.253906 30.175781 0 .320313.039062.636719.058594.953125.058594 3.722656 0 6.953125-2.769532 7.429688-6.558594.523437-4.109375-2.386719-7.859375-6.496094-8.382813-3.132813-.394531-6.3125-.667969-9.511719-.84375-.046875-5.738281-.144531-11.4375-.296875-17.09375 23.324219 1.113281 44.632812 7.621094 60.601562 18.644531 3.410157 2.351563 8.078126 1.496094 10.433594-1.914062 2.351563-3.410156 1.496094-8.078125-1.914062-10.433594-18.535156-12.792968-43.0625-20.261718-69.640625-21.335937-1.40625-32.113281-4.566407-62.734375-9.441407-91.539063 16.519532 10.765625 35.226563 18.238282 55.355469 21.976563 3.265625.605469 6.53125.90625 9.769531.90625 13.507813 0 26.503907-5.199219 36.710938-14.902344 12.648438-12.03125 18.59375-28.695313 16.308594-45.71875-4.296875-31.992187-18.011719-60.933594-39.660156-83.699219-33.378907-35.09375-81.46875-51.472656-132.449219-45.277344l-42.015625-44.175781c-2.113282-2.222656-5.367188-2.933593-8.21875-1.796875-2.847656 1.140625-4.714844 3.898438-4.714844 6.964844 0 99.503906-31.375 141.667969-67.703125 190.492188-15.414063 20.71875-31.199219 41.941406-45.851563 68.671874-.300781-.074218-.605468-.152343-.90625-.226562-28.316406-6.800781-56.445312-5.710938-79.195312 3.074219-26.269531 10.140625-43.523438 29.527343-49.898438 56.070312-7.152343 29.773438-4.824218 59.796875 6.558594 84.542969 13.589844 29.539062 39.210938 49.582031 74.09375 57.960938 10.085938 2.421874 19.914063 3.625 29.417969 3.625 23.386719 0 44.777344-7.28125 62.921875-21.605469 21.378906-16.875 37.09375-42.566407 44.246094-72.339844 9.167968-38.164063-9.367188-74.242187-49.578125-96.507813-3.621094-2.007812-8.1875-.699218-10.191407 2.925782-2.007812 3.625-.695312 8.1875 2.925782 10.195312 48.949218 27.105469 45.859375 64.894532 42.257812 79.882813-6.277344 26.132812-20.476562 49.484375-38.957031 64.070312-21.78125 17.191407-49.285156 22.4375-79.539063 15.171875-30.253906-7.269531-52.375-24.433594-63.96875-49.644531-9.839843-21.390625-11.882812-48.644531-5.605468-74.773437 6.535156-27.203126 25.75-39.804688 40.71875-45.582032 19.21875-7.417968 43.101562-8.488281 67.53125-3.097656-2.519532 5.085938-5 10.375-7.429688 15.886719-3.515625-.675781-7.042968-1.222657-10.550781-1.609375-4.113281-.457032-7.824219 2.515625-8.277344 6.632812-.453125 4.117188 2.519531 7.824219 6.632813 8.277344 4.949218.542969 9.957031 1.421875 14.894531 2.605469 4.933594 1.1875 9.792969 2.679687 14.449219 4.441406.875.332031 1.773437.488281 2.652344.488281 3.027343 0 5.882812-1.851562 7.015624-4.851562 1.46875-3.871094-.484374-8.203125-4.359374-9.667969-2.515626-.949219-5.082032-1.828125-7.683594-2.632813 17.496094-38.980468 37.921875-66.429687 57.710937-93.03125 18.617188-25.019531 36.203125-48.652343 49.257813-79.296874 12.679687-29.769532 19.480468-62.460938 21.054687-101.757813l29.433594 30.949219c-8.738281 50.609375 5.210937 99.460937 38.589844 134.554687 2.734375 2.875 5.574219 5.628907 8.515625 8.257813 6.421875 32.609375 10.5 67.847656 12.164062 105.195312-25.917968 1.316406-49.789062 8.730469-67.925781 21.25-23.171875 15.996094-35.421875 38.878906-35.421875 66.175782 0 30.621093 9.277344 59.269531 26.128906 80.675781 20.105469 25.546875 49.703125 39.050781 85.582032 39.050781 35.878906 0 65.472656-13.503906 85.582031-39.050781 16.847656-21.40625 26.125-50.054688 26.125-80.675781 0-14.582032-3.523438-27.988282-10.476563-39.839844-2.097656-3.574219-6.695312-4.769532-10.265625-2.671875zm-145.367187-279.007813 91.417968 96.117188c2.855469 3 7.601563 3.121094 10.605469.265625 3-2.851563 3.117188-7.601563.265625-10.601563l-91.417968-96.117187c41.914062-2.074219 80.777343 12.714843 108.347656 41.703125 19.460937 20.460937 31.792968 46.519531 35.664062 75.359375 1.640625 12.199219-2.65625 24.175781-11.777344 32.851562-9.125 8.679688-21.300781 12.367188-33.402343 10.117188-28.609375-5.308594-54.015625-18.933594-73.476563-39.390625-27.574218-28.992188-40.398437-68.546875-36.226562-110.304688zm0 0"/></svg>