<svg id="Layer_1" height="512" viewBox="0 0 64 64" width="512" xmlns="http://www.w3.org/2000/svg" data-name="Layer 1"><g fill="#a1887f"><path d="m8.6841 56.3159a1 1 0 0 1 -.707-1.707l3.1229-3.1231a1 1 0 0 1 1.4142 1.4142l-3.1231 3.123a.9964.9964 0 0 1 -.707.2929z"/><path d="m13.3687 61.0005a1.0012 1.0012 0 0 1 -.9488-1.3169l1.5611-4.6836a1 1 0 0 1 1.8974.6328l-1.561 4.6841a1.0005 1.0005 0 0 1 -.9487.6836z"/><path d="m4 51.6318a1 1 0 0 1 -.3164-1.9492l4.6841-1.561a1 1 0 1 1 .6328 1.8974l-4.6841 1.561a.9976.9976 0 0 1 -.3164.0518z"/></g><path d="m60 25.31-1.01 4.68a26.9491 26.9491 0 0 0 -4.21-.43 34.5117 34.5117 0 0 0 -20.34 5.75 32.7832 32.7832 0 0 0 -3.68 2.77 6.923 6.923 0 0 0 -4.84-4.84 32.7832 32.7832 0 0 0 2.77-3.68 34.55 34.55 0 0 0 5.73-21.13 26.5559 26.5559 0 0 0 -.41-3.42l4.68-1.01a44.0832 44.0832 0 0 1 -1.92 20.02c5.34-4.39 12-8.61 18.56-9.5l.2 1.95.28 2.76c-5.25.72-10.75 4.13-15.4 7.87a43.8828 43.8828 0 0 1 19.59-1.79z" fill="#81c785"/><path d="m60 25.31-1.01 4.68a26.9491 26.9491 0 0 0 -4.21-.43 34.5117 34.5117 0 0 0 -20.34 5.75 32.7832 32.7832 0 0 0 -3.68 2.77 7.1373 7.1373 0 0 0 -1.78-3.06l8.02-8.02a42.2679 42.2679 0 0 1 18.53-10.53l.28 2.76c-5.25.72-10.75 4.13-15.4 7.87a43.8828 43.8828 0 0 1 19.59-1.79z" fill="#66bb6a"/><path d="m34.44 35.31a32.7832 32.7832 0 0 0 -3.68 2.77 6.923 6.923 0 0 0 -4.84-4.84 32.7832 32.7832 0 0 0 2.77-3.68 11.11 11.11 0 0 1 5.75 5.75z" fill="#42a047"/><path d="m34.44 35.31a32.7832 32.7832 0 0 0 -3.68 2.77 7.1373 7.1373 0 0 0 -1.78-3.06l3.13-3.13a11.3956 11.3956 0 0 1 2.33 3.42z" fill="#378e43"/><path d="m25.55 55.63c-4.75 4.74-9 1.31-13.74-3.44-4.75-4.74-8.18-8.99-3.44-13.74 4.74-4.74 15.87-8.18 20.61-3.43 4.75 4.74 1.31 15.87-3.43 20.61z" fill="#edeff0"/><path d="m25.55 55.63c-4.75 4.74-9 1.31-13.74-3.44l17.17-17.17c4.75 4.74 1.31 15.87-3.43 20.61z" fill="#cfd8dc"/><path d="m14.93 50.07a.9963.9963 0 0 1 -.707-.293c-5.3208-5.3212-5.522-6.8222-3.4351-8.9091a1 1 0 1 1 1.4141 1.414c-.8531.8531-1.3228 1.3228 3.435 6.0811a1 1 0 0 1 -.707 1.707z" fill="#fff"/><path d="m4 51.6318c-.24.1793 4.5567-1.48 4.53-1.456.5643.6492 1.191 1.318 1.8686 2.0116l-2.4215 2.4215a1 1 0 0 0 1.414 1.414l2.4215-2.4215c.6936.6776 1.3624 1.3043 2.0116 1.8686l-1.4042 4.2136a1 1 0 0 0 1.8975.6327l1.1715-3.5153c10.2471 8.1134 18.5087-9.7649 16.406-18.3539a33.7211 33.7211 0 0 1 26.8765-7.4813 1.0062 1.0062 0 0 0 1.1985-.7658l1.0073-4.6763a1.0056 1.0056 0 0 0 -.7929-1.1933 42.8856 42.8856 0 0 0 -15.0274.5127c3.9492-2.6294 7.564-4.18 10.7862-4.6211a1 1 0 0 0 .8593-1.0913l-.476-4.7076a1 1 0 0 0 -1.1285-.8906c-5.0561.68-10.6279 3.2891-16.5952 7.7681a43.711 43.711 0 0 0 1.0679-17.479 1 1 0 0 0 -1.1943-.7993l-4.6764 1.0077a1.0033 1.0033 0 0 0 -.7686 1.1821c1.6847 8.9456-1.3281 19.7847-7.4785 26.8933-8.5944-2.1154-26.4743 6.1925-18.3539 16.4056l-3.5154 1.1716a1.0033 1.0033 0 0 0 .3164 1.9492zm23.5787-18.8218c.521-.6447.9817-1.3094 1.46-1.9669a10.207 10.207 0 0 1 4.1176 4.1181c-.6575.4794-1.3233.94-1.9664 1.46a7.9052 7.9052 0 0 0 -3.6112-3.6112zm7.8359-24.4457c-.0689-1.0938-.1714-1.9678-.26-2.5806l2.6933-.58a44.5068 44.5068 0 0 1 -2.0317 18.5005 1.0054 1.0054 0 0 0 1.5847 1.0858c6.1968-5.09 11.9238-8.1508 17.0425-9.11l.2749 2.7187c-4.4449.8579-9.4629 3.52-14.9331 7.9239a1.0042 1.0042 0 0 0 .93 1.7319 44.0525 44.0525 0 0 1 18.082-1.9072l-.5819 2.7027a35.4039 35.4039 0 0 0 -23.3659 5.038 12.199 12.199 0 0 0 -4.72-4.7278 35.7463 35.7463 0 0 0 5.2852-20.7959zm-26.3355 30.7957c4.16-4.1995 16.7044-8.9629 20.3909-1.667 2.3223 4.9949-.9231 13.8113-4.63 17.4282-4.613 4.4656-8.157.506-12.3261-3.4349-3.9445-4.1655-7.8975-7.7152-3.4348-12.3263z"/><path d="m14.93 50.07a1.0067 1.0067 0 0 0 .707-1.707c-4.7578-4.7583-4.2881-5.228-3.435-6.0811a1 1 0 1 0 -1.4141-1.414c-2.0869 2.0869-1.8857 3.5879 3.4351 8.9091a.9963.9963 0 0 0 .707.293z"/></svg>