<svg height="511pt" viewBox="-12 0 511 511.99994" width="511pt" xmlns="http://www.w3.org/2000/svg"><path d="m468.882812 237.148438c-26.363281-45.664063-87.613281-59.65625-136.800781-31.257813-49.191406 28.402344-67.695312 88.441406-41.332031 134.105469 26.363281 45.664062 87.613281 59.65625 136.804688 31.257812 49.191406-28.402344 67.695312-88.441406 41.328124-134.105468zm0 0" fill="#8cb4eb"/><path d="m437.351562 345.507812c-49.191406 28.398438-110.441406 14.40625-136.808593-31.261718-11.933594-20.671875-14.59375-44.277344-9.449219-66.578125-15.6875 28.761719-17.03125 63.421875-.335938 92.335937 26.363282 45.664063 87.617188 59.660156 136.808594 31.257813 26.917969-15.542969 44.566406-40.574219 50.78125-67.527344-9.085937 16.660156-22.953125 31.355469-40.996094 41.773437zm0 0" fill="#739bd7"/><path d="m433.660156 245.292969c-8.007812-8.007813-19.574218-9.421875-25.835937-3.164063-6.261719 6.261719-4.84375 17.828125 3.164062 25.835938 8.007813 8.007812 19.574219 9.425781 25.835938 3.164062 6.257812-6.261718 4.84375-17.828125-3.164063-25.835937zm0 0" fill="#739bd7"/><path d="m21.007812 217.707031c-28.613281 49.5625-8.53125 114.730469 44.859376 145.554688 53.386718 30.824219 119.863281 15.636719 148.480468-33.925781 28.613282-49.5625 8.53125-114.726563-44.855468-145.550782-53.390626-30.828125-119.867188-15.636718-148.484376 33.921875zm0 0" fill="#8cb4eb"/><path d="m78.925781 336.234375c-46.289062-26.722656-67.484375-79.25-53.667969-125.054687-1.46875 2.128906-2.941406 4.25-4.253906 6.523437-28.617187 49.5625-8.53125 114.726563 44.859375 145.554687 53.390625 30.824219 119.867188 15.632813 148.484375-33.929687 3.804688-6.589844 6.691406-13.46875 8.808594-20.496094-30.515625 44.257813-93.289062 56.816407-144.230469 27.402344zm0 0" fill="#739bd7"/><path d="m95.410156 255.421875c10.761719-13.675781 11.023438-31.421875.585938-39.632813-10.4375-8.210937-27.625-3.78125-38.382813 9.894532-10.761719 13.679687-11.023437 31.425781-.585937 39.636718 10.4375 8.210938 27.621094 3.78125 38.382812-9.898437zm0 0" fill="#739bd7"/><path d="m376.714844 392.273438c0-61.980469-53.832032-112.226563-120.242188-112.226563-66.40625 0-120.242187 50.246094-120.242187 112.226563 0 61.980468 53.835937 112.226562 120.242187 112.226562 66.410156 0 120.242188-50.246094 120.242188-112.226562zm0 0" fill="#8cb4eb"/><path d="m280.523438 480.449219c-66.410157 0-120.246094-50.246094-120.246094-112.226563 0-23.628906 7.867187-45.527344 21.230468-63.609375-27.570312 20.5625-45.277343 52.160157-45.277343 87.660157 0 61.980468 53.835937 112.226562 120.242187 112.226562 41.089844 0 77.328125-19.265625 99.015625-48.617188-20.566406 15.339844-46.59375 24.566407-74.964843 24.566407zm0 0" fill="#739bd7"/><path d="m296.554688 376.238281c0 26.566407-21.535157 48.097657-48.097657 48.097657s-48.097656-21.53125-48.097656-48.097657c0-26.5625 21.535156-48.09375 48.097656-48.09375s48.097657 21.53125 48.097657 48.09375zm0 0" fill="#739bd7"/><path d="m248.457031 328.144531c-17.394531 0-32.585937 9.261719-41.03125 23.09375 7.289063-4.453125 15.828125-7.0625 25-7.0625 26.5625 0 48.097657 21.535157 48.097657 48.097657 0 9.167968-2.613282 17.707031-7.066407 25 13.832031-8.449219 23.097657-23.640626 23.097657-41.035157 0-26.5625-21.535157-48.09375-48.097657-48.09375zm0 0" fill="#5f87cd"/><path d="m211.644531 40.882812c-22.9375-24.117187-54.859375-35.058593-87.375-33.179687-6.351562.367187-11.574219 5.332031-12.257812 11.660156-3.507813 32.378907 5.820312 64.808594 28.761719 88.925781 25.441406 26.75 61.929687 37.292969 98.027343 32.109376 6.988281-35.792969-1.710937-72.765626-27.15625-99.515626zm0 0" fill="#afdc82"/><path d="m391.484375 119.335938c20.246094-19.257813 29.429687-46.050782 27.851563-73.347657-.308594-5.335937-4.476563-9.71875-9.789063-10.292969-27.179687-2.945312-54.402344 4.886719-74.648437 24.144532-22.457032 21.359375-31.304688 51.988281-26.953126 82.292968 30.042969 5.863282 61.082032-1.441406 83.539063-22.796874zm0 0" fill="#afdc82"/><path d="m480.601562 245.367188c-10.800781-25.210938-31.4375-44.390626-58.105468-54.007813-26.480469-9.554687-55.769532-8.511719-82.464844 2.925781-26.675781 11.429688-47.601562 32.230469-58.796875 57.28125-5.335937-32.542968-2.601563-63.289062-1.613281-72.136718l30.9375-29.226563c5.898437.9375 11.757812 1.40625 17.53125 1.40625 25.925781 0 50.140625-9.320313 68.5625-26.839844 20.933594-19.910156 31.929687-48.78125 30.171875-79.214843-.523438-9.054688-7.449219-16.339844-16.46875-17.316407-30.300781-3.277343-59.691407 6.257813-80.628907 26.167969-22.609374 21.503906-33.3125 52.34375-29.671874 85.089844l-27.265626 25.753906-25.933593-27.265625c6.378906-38.464844-4.363281-75.550781-29.773438-102.269531-23.429687-24.628906-57.421875-37.574219-93.246093-35.5-10.085938.585937-18.195313 8.296875-19.28125 18.339844-3.863282 35.683593 7.355468 70.273437 30.78125 94.90625 22.058593 23.191406 52.472656 35.738281 85.457031 35.738281 5.007812 0 10.078125-.300781 15.183593-.886719l27.90625 29.34375c-11.769531 30.644531-33.992187 41.835938-43.964843 45.433594-12.75-22.746094-33.273438-41.636719-58.914063-52.625-59.820312-25.628906-128.042968-.851563-152.074218 55.234375-24.03125 56.085937 5.085937 122.570312 64.90625 148.199219 15.648437 6.707031 32.375 10.144531 49.042968 10.144531 2.058594 0 4.117188-.058594 6.171875-.164063-.203125 2.78125-.320312 5.578125-.320312 8.394532 0 66.015624 57.304687 119.726562 127.742187 119.726562s127.742188-53.707031 127.742188-119.726562c0-.289063-.007813-.578126-.011719-.867188 12.46875-.976562 24.695313-3.996094 36.421875-9.023438 55.292969-23.691406 82.199219-85.15625 59.976562-137.015624zm-140.535156-180.09375c17.992188-17.113282 42.386719-24.96875 68.675782-22.121094 1.671874.179687 3.007812 1.585937 3.105468 3.269531 1.527344 26.402344-7.542968 50.367187-25.535156 67.480469-16.289062 15.492187-38.039062 23.394531-61.300781 22.644531l55.695312-52.613281c3.007813-2.84375 3.144531-7.59375.300781-10.601563-2.84375-3.011719-7.59375-3.148437-10.601562-.300781l-56.039062 52.9375c.269531-23.503906 9.269531-45.066406 25.699218-60.695312zm-193.859375 37.847656c-20.679687-21.742188-30.175781-51.203125-26.738281-82.949219.289062-2.6875 2.542969-4.828125 5.234375-4.980469 2.308594-.132812 4.601563-.199218 6.875-.199218 29.152344 0 55.449219 10.890624 74.632813 31.0625 19.550781 20.554687 29.101562 48.292968 27.191406 77.785156l-66.203125-69.609375c-2.855469-3-7.601563-3.121094-10.605469-.265625-3 2.855468-3.117188 7.601562-.265625 10.605468l66.203125 69.605469c-29.546875.429688-56.773438-10.5-76.324219-31.054687zm116.761719 106.359375c-.027344 18.121093 1.546875 41.175781 7.550781 63.792969-4.613281-.476563-9.300781-.726563-14.046875-.726563-7.5 0-14.902344.597656-22.167968 1.789063-.375-12.992188-3.121094-25.710938-7.914063-37.675782 9.113281-3.519531 23.917969-11.25 36.578125-27.179687zm-6.496094 287.519531c-62.164062 0-112.742187-46.980469-112.742187-104.726562 0-32.355469 15.734375-62.390626 43.167969-82.40625 3.34375-2.441407 4.078124-7.132813 1.636718-10.480469-2.441406-3.347657-7.132812-4.078125-10.480468-1.636719-24.59375 17.945312-40.953126 43.023438-46.863282 70.964844-17.34375 1.371094-35.054687-1.578125-51.445312-8.605469-52.21875-22.371094-77.800782-80.019531-57.027344-128.503906s80.160156-69.726563 132.378906-47.351563c38.925782 16.675782 64.382813 53.914063 64.265625 93.421875-4.210937 1.199219-8.363281 2.597657-12.445312 4.210938-3.855469 1.523437-5.742188 5.878906-4.222657 9.730469 1.519532 3.855468 5.878907 5.742187 9.730469 4.222656 13.941407-5.503906 28.761719-8.296875 44.050781-8.296875 62.164063 0 112.742188 46.980469 112.742188 104.726562 0 57.75-50.578125 104.730469-112.746094 104.730469zm158.246094-128.40625c-10.195312 4.367188-20.808594 6.992188-31.621094 7.84375-6.855468-48.417969-44.703125-87.792969-94.1875-99.976562 5.96875-29.808594 27.402344-55.695313 57.027344-68.390626 23.191406-9.933593 48.574219-10.859374 71.472656-2.601562 22.710938 8.191406 40.257813 24.457031 49.40625 45.804688 18.960938 44.257812-4.410156 96.886718-52.097656 117.320312zm0 0"/><path d="m421.003906 230.914062c-7.121094-.871093-13.851562 1.285157-18.476562 5.914063-9.175782 9.171875-7.757813 25.519531 3.160156 36.441406 6.082031 6.078125 13.84375 9.214844 21.113281 9.214844 5.789063 0 11.265625-1.988281 15.328125-6.054687 9.175782-9.175782 7.757813-25.519532-3.160156-36.441407-5.050781-5.050781-11.429688-8.273437-17.964844-9.074219zm10.519532 34.910157c-1.835938 1.835937-4.574219 1.808593-6.046876 1.628906-3.179687-.390625-6.523437-2.136719-9.179687-4.792969-4.898437-4.898437-6.378906-12.015625-3.164063-15.226562 1.15625-1.15625 2.820313-1.707032 4.703126-1.707032 3.347656 0 7.394531 1.734376 10.527343 4.867188 4.898438 4.902344 6.375 12.015625 3.160157 15.230469zm0 0"/><path d="m287.605469 347.304688c-3.667969 1.921874-5.082031 6.457031-3.160157 10.125 3.058594 5.835937 4.609376 12.164062 4.609376 18.808593 0 22.386719-18.210938 40.597657-40.597657 40.597657s-40.597656-18.210938-40.597656-40.597657c0-22.382812 18.210937-40.59375 40.597656-40.59375 4.695313 0 9.292969.789063 13.664063 2.355469 3.902344 1.390625 8.195312-.636719 9.589844-4.539062 1.394531-3.898438-.636719-8.191407-4.539063-9.585938-6-2.144531-12.292969-3.230469-18.714844-3.230469-30.65625 0-55.597656 24.9375-55.597656 55.59375 0 30.660157 24.941406 55.597657 55.597656 55.597657s55.597657-24.941407 55.597657-55.597657c0-8.964843-2.1875-17.878906-6.324219-25.769531-1.921875-3.671875-6.457031-5.085938-10.125-3.164062zm0 0"/><path d="m100.636719 209.902344c-6.828125-5.371094-16.152344-7.058594-25.582031-4.628906-8.832032 2.277343-17.121094 7.882812-23.335938 15.785156-6.214844 7.898437-9.710938 17.273437-9.84375 26.394531-.144531 9.734375 3.691406 18.398437 10.519531 23.773437 4.878907 3.835938 10.808594 5.667969 17.027344 5.667969 11.203125 0 23.335937-5.949219 31.890625-16.824219 6.214844-7.898437 9.710938-17.273437 9.84375-26.394531.144531-9.734375-3.691406-18.402343-10.519531-23.773437zm-11.113281 40.894531c-8.050782 10.230469-20.804688 14.183594-27.855469 8.640625-3.167969-2.492188-4.871094-6.671875-4.796875-11.765625.085937-5.765625 2.503906-12.085937 6.636718-17.339844 4.132813-5.25 9.707032-9.089843 15.292969-10.53125 1.628907-.421875 3.210938-.628906 4.707031-.628906 3.035157 0 5.734376.851563 7.855469 2.519531 3.167969 2.492188 4.871094 6.671875 4.796875 11.765625-.085937 5.765625-2.503906 12.085938-6.636718 17.339844zm0 0"/></svg>