<svg id="Layer_1" height="512" viewBox="0 0 64 64" width="512" xmlns="http://www.w3.org/2000/svg" data-name="Layer 1"><path d="m58.7593 24.81a2.0529 2.0529 0 0 1 -.2037-2.3434 6.2161 6.2161 0 0 0 .8193-2.17 6.6285 6.6285 0 0 0 -10.8927-6.289 6.2174 6.2174 0 0 0 -1.47 1.7948 2.0525 2.0525 0 0 1 -2.1312.9952c-.1052-.0149-.2107-.0119-.3161-.021a6.9447 6.9447 0 0 1 .6706 7.3953 2.2042 2.2042 0 0 0 .8366 2.9418 8.023 8.023 0 0 1 -2.8221 14.7822 1.8822 1.8822 0 0 0 -1.4891 2.4231 6.0463 6.0463 0 0 1 .1859 2.49 5.9409 5.9409 0 0 1 -1.5468 3.244 4.989 4.989 0 0 0 6.04-3.663 1.5684 1.5684 0 0 1 2.0842-1.1282 6.6631 6.6631 0 0 0 8.1963-9.4926 1.8369 1.8369 0 0 1 .622-2.4717 5.83 5.83 0 0 0 1.4168-8.4875z" fill="#317e3d"/><path d="m22.0533 46.8094a6.0463 6.0463 0 0 1 .1859-2.49 1.8822 1.8822 0 0 0 -1.4892-2.4235 7.9957 7.9957 0 0 1 -2.8222-14.7827 2.2042 2.2042 0 0 0 .8366-2.9418 6.9447 6.9447 0 0 1 .6706-7.3953c-.1054.0091-.2109.0061-.3161.021a2.0525 2.0525 0 0 1 -2.1312-.9952 6.2174 6.2174 0 0 0 -1.47-1.7948 6.6285 6.6285 0 0 0 -10.8927 6.289 6.2161 6.2161 0 0 0 .8193 2.17 2.0529 2.0529 0 0 1 -.2036 2.3439 5.83 5.83 0 0 0 1.4165 8.4873 1.837 1.837 0 0 1 .622 2.4717 6.686 6.686 0 0 0 8.1962 9.4926 1.5685 1.5685 0 0 1 2.0846 1.1284 4.9891 4.9891 0 0 0 6.04 3.663 5.9417 5.9417 0 0 1 -1.5467-3.2436z" fill="#1e5f30"/><path d="m47.9092 29.62a1 1 0 0 1 -.8828-1.4678l5.09-9.62a1 1 0 1 1 1.7676.9356l-5.09 9.62a1 1 0 0 1 -.8848.5322z" fill="#42a047"/><path d="m16.0908 29.62a1 1 0 0 1 -.8847-.5322l-5.09-9.62a1 1 0 0 1 1.7676-.9356l5.09 9.62a1 1 0 0 1 -.8828 1.4678z" fill="#378e43"/><path d="m49.96 34.85a8.0967 8.0967 0 0 1 -5.17 6.63 8.4354 8.4354 0 0 1 -1.54.42 1.8837 1.8837 0 0 0 -1.49 2.42 5.9865 5.9865 0 0 1 -4.85 7.61 5.8886 5.8886 0 0 1 -2.91-.28v-37.65a2 2 0 0 0 -4 0v37.65a5.8886 5.8886 0 0 1 -2.91.28 5.9865 5.9865 0 0 1 -4.85-7.61 1.8837 1.8837 0 0 0 -1.49-2.42 8.4354 8.4354 0 0 1 -1.54-.42 8.0967 8.0967 0 0 1 -5.17-6.63 8.0015 8.0015 0 0 1 3.89-7.74 2.199 2.199 0 0 0 .83-2.94 7.0073 7.0073 0 0 1 3.62-9.67 2.45 2.45 0 0 0 1.62-2.31 7.5807 7.5807 0 0 1 .45-2.75 7.9592 7.9592 0 0 1 15.1 0 7.5807 7.5807 0 0 1 .45 2.75 2.45 2.45 0 0 0 1.62 2.31 7.0073 7.0073 0 0 1 3.62 9.67 2.199 2.199 0 0 0 .83 2.94 8.0015 8.0015 0 0 1 3.89 7.74z" fill="#317e3d"/><path d="m49.96 34.85a8.0967 8.0967 0 0 1 -5.17 6.63 8.4354 8.4354 0 0 1 -1.54.42 1.8837 1.8837 0 0 0 -1.49 2.42 5.9865 5.9865 0 0 1 -4.85 7.61 5.8886 5.8886 0 0 1 -2.91-.28v-37.65a2.0059 2.0059 0 0 0 -2-2v-8a8.0619 8.0619 0 0 1 7.55 5.44 7.5807 7.5807 0 0 1 .45 2.75 2.45 2.45 0 0 0 1.62 2.31 7.0073 7.0073 0 0 1 3.62 9.67 2.199 2.199 0 0 0 .83 2.94 8.0015 8.0015 0 0 1 3.89 7.74z" fill="#1e5f30"/><path d="m34 20a1 1 0 0 1 -.707-1.707l3-3a1 1 0 0 1 1.414 1.414l-3 3a.9967.9967 0 0 1 -.707.293z" fill="#378e43"/><path d="m34 29a1 1 0 0 1 -.707-1.707l6-6a1 1 0 0 1 1.414 1.414l-6 6a.9967.9967 0 0 1 -.707.293z" fill="#378e43"/><path d="m34 38a1 1 0 0 1 -.707-1.707l8-8a1 1 0 0 1 1.414 1.414l-8 8a.9967.9967 0 0 1 -.707.293z" fill="#378e43"/><path d="m34 47a1 1 0 0 1 -.707-1.707l4-4a1 1 0 0 1 1.414 1.414l-4 4a.9967.9967 0 0 1 -.707.293z" fill="#378e43"/><g fill="#42a047"><path d="m30 20a.9967.9967 0 0 1 -.707-.293l-3-3a1 1 0 0 1 1.414-1.414l3 3a1 1 0 0 1 -.707 1.707z"/><path d="m30 29a.9967.9967 0 0 1 -.707-.293l-6-6a1 1 0 0 1 1.414-1.414l6 6a1 1 0 0 1 -.707 1.707z"/><path d="m30 38a.9967.9967 0 0 1 -.707-.293l-8-8a1 1 0 0 1 1.414-1.414l8 8a1 1 0 0 1 -.707 1.707z"/><path d="m30 47a.9967.9967 0 0 1 -.707-.293l-4-4a1 1 0 0 1 1.414-1.414l4 4a1 1 0 0 1 -.707 1.707z"/></g><path d="m34 14v44a2 2 0 0 1 -4 0v-44a2.0059 2.0059 0 0 1 2-2 2.0146 2.0146 0 0 1 2 2z" fill="#81c785"/><path d="m34 14v44a2.0059 2.0059 0 0 1 -2 2v-48a2.0146 2.0146 0 0 1 2 2z" fill="#66bb6a"/><path d="m3.916 31.8247a6.7442 6.7442 0 0 0 2.1983 2.312.8414.8414 0 0 1 .2939 1.1411 7.6885 7.6885 0 0 0 7.9406 11.3109c.635-.0057 1.3649-.5466 1.9354-.3677a.6113.6113 0 0 1 .3037.4064 5.9788 5.9788 0 0 0 6.6681 4.5013 6.8656 6.8656 0 0 0 5.744 1.783v5.0883a3 3 0 0 0 6 0v-5.0884a6.88 6.88 0 0 0 5.744-1.7829 6.0266 6.0266 0 0 0 6.6681-4.5023.6108.6108 0 0 1 .3037-.4052c.5713-.1773 1.3.3608 1.9356.3675a7.6876 7.6876 0 0 0 7.94-11.3105.8419.8419 0 0 1 .2932-1.141 6.8589 6.8589 0 0 0 1.6631-9.9438h-.001a1.06 1.06 0 0 1 -.1387-1.2041 7.6666 7.6666 0 1 0 -13.2754-7.664 1.0434 1.0434 0 0 1 -1.0544.4821 7.9888 7.9888 0 0 0 -3.0891-2.2332 1.4716 1.4716 0 0 1 -.9922-1.3589 9 9 0 1 0 -17.9941-.0013 1.4722 1.4722 0 0 1 -.9923 1.36 7.9878 7.9878 0 0 0 -3.09 2.2337 1.0459 1.0459 0 0 1 -1.055-.4842 7.2634 7.2634 0 0 0 -1.7031-2.08c-6.7437-5.6351-15.8924 2.1992-11.5705 9.7449a1.0607 1.0607 0 0 1 -.14 1.205 6.8093 6.8093 0 0 0 -.5359 7.6313zm29.084 26.1753a1 1 0 0 1 -2 0c.0019-3.1058-.0013-39.803 0-44a1 1 0 0 1 2 0c.0011 4.3851-.0008 40.7168 0 44zm14.89-41.72a5.66 5.66 0 0 1 10.5009 3.84 5.2542 5.2542 0 0 1 -.6874 1.8245 3.0378 3.0378 0 0 0 .2686 3.4815 4.8143 4.8143 0 0 1 .38 5.3979 4.7524 4.7524 0 0 1 -1.5521 1.6331 2.83 2.83 0 0 0 -.95 3.8023 5.6864 5.6864 0 0 1 -6.9736 8.0659 2.5847 2.5847 0 0 0 -3.4072 1.8267 3.9863 3.9863 0 0 1 -3.2044 2.9791 7.0389 7.0389 0 0 0 .4563-5.0924.8863.8863 0 0 1 .6924-1.1558c6.6546-1.0083 9.8926-9.1637 5.686-14.3716l4.7847-9.0434a1 1 0 0 0 -1.7676-.9355l-4.4751 8.4577c-.7593-.6072-2.1556-1.1469-1.5164-2.3619a8.0321 8.0321 0 0 0 .1383-6.98 2.9184 2.9184 0 0 0 1.6266-1.3681zm-25.1308-.8521a3.45 3.45 0 0 0 2.2441-3.2671 6.4987 6.4987 0 0 1 .3903-2.3808 6.9748 6.9748 0 0 1 13.2128.0007 6.4954 6.4954 0 0 1 .3907 2.3821 3.4493 3.4493 0 0 0 2.2441 3.2656 6.0254 6.0254 0 0 1 3.1045 8.2866 3.1973 3.1973 0 0 0 1.2168 4.2588 7.1043 7.1043 0 0 1 1.5536 1.2436c3.8274 3.8789 1.42 10.91-4.0294 11.6919a2.9 2.9 0 0 0 -2.2859 3.69 5.0429 5.0429 0 0 1 -5.8008 6.2938v-4.479l3.707-3.7071a1 1 0 0 0 -1.4141-1.414l-2.2929 2.2929v-6.1718l7.707-7.7071a1 1 0 0 0 -1.414-1.414l-6.293 6.2929v-6.1718l5.707-5.7071a1 1 0 0 0 -1.4141-1.414l-4.2929 4.2929v-6.1718l2.707-2.7071a1 1 0 0 0 -1.4141-1.414l-1.2929 1.2929v-2.5859a3 3 0 0 0 -6 0v2.5859l-1.293-1.2929a1 1 0 0 0 -1.414 1.4141l2.707 2.707v6.1718l-4.293-4.2929a1 1 0 0 0 -1.414 1.414l5.707 5.7071v6.1718l-6.293-6.2929a1 1 0 0 0 -1.414 1.414l7.707 7.7071v6.1718l-2.293-2.2929a1 1 0 0 0 -1.414 1.4141l3.707 3.707v4.479a5.0437 5.0437 0 0 1 -5.8007-6.2941 2.9 2.9 0 0 0 -2.2863-3.69c-5.4472-.7791-7.8588-7.8183-4.0291-11.692a7.1043 7.1043 0 0 1 1.5536-1.2436 3.1973 3.1973 0 0 0 1.2168-4.2588 6.0252 6.0252 0 0 1 3.1045-8.2866zm-16.7319 9.9984a3.0394 3.0394 0 0 0 .27-3.4825 5.2483 5.2483 0 0 1 -.6875-1.8247 5.65 5.65 0 0 1 9.2637-5.3474c1.1259.8469 1.4022 2.4671 2.866 2.8693a8.035 8.035 0 0 0 .1359 6.9869c.6387 1.2142-.7568 1.7546-1.5165 2.3619l-4.4747-8.4576a1 1 0 0 0 -1.7676.9356l4.7847 9.0434a9.0179 9.0179 0 0 0 3.9534 13.9008c.7378.4119 1.7839.2109 2.329.86a.9312.9312 0 0 1 .0956.7668 7.056 7.056 0 0 0 .4564 5.0922 3.9877 3.9877 0 0 1 -3.2044-2.978 2.59 2.59 0 0 0 -2.4991-1.993 16.0556 16.0556 0 0 0 -2.0039.4545 5.6819 5.6819 0 0 1 -5.8783-8.3558 2.83 2.83 0 0 0 -.9513-3.8022 4.851 4.851 0 0 1 -1.1714-7.0302z"/></svg>