<svg height="512pt" viewBox="0 -28 512 512" width="512pt" xmlns="http://www.w3.org/2000/svg"><path d="m360.210938 159.804688c0 84.117187-56.820313 152.308593-176.355469 152.308593-119.535157 0-176.355469-68.191406-176.355469-152.308593 0-84.113282 56.820312-152.304688 176.355469-152.304688 119.535156 0 176.355469 68.1875 176.355469 152.304688zm0 0" fill="#b4e6a0"/><path d="m215.917969 272.03125c-119.53125 0-176.355469-68.1875-176.355469-152.304688 0-26.09375 5.492188-50.640624 16.601562-72.109374-32.617187 27.84375-48.664062 67.730468-48.664062 112.1875 0 84.117187 56.820312 152.308593 176.355469 152.308593 82.453125 0 135.042969-32.460937 159.753906-80.199219-29.09375 24.835938-71.335937 40.117188-127.691406 40.117188zm0 0" fill="#96d7a5"/><path d="m504.5 296.078125c0 84.117187-60.710938 152.308594-160.324219 152.308594-99.609375 0-160.320312-68.191407-160.320312-152.308594 0-84.113281 60.710937-152.304687 160.320312-152.304687 99.613281 0 160.324219 68.191406 160.324219 152.304687zm0 0" fill="#fff6d8"/><path d="m344.175781 175.839844c75.515625 0 128.257813 49.441406 128.257813 120.238281 0 70.800781-52.742188 120.242187-128.257813 120.242187s-128.257812-49.441406-128.257812-120.242187c0-70.796875 52.742187-120.238281 128.257812-120.238281" fill="#ff8087"/><path d="m360.210938 392.273438c-75.515626 0-128.257813-49.445313-128.257813-120.242188 0-20.371094 4.488281-38.890625 12.507813-55.054688-18.128907 20.546876-28.539063 47.710938-28.539063 79.101563 0 70.800781 52.738281 120.242187 128.257813 120.242187 53.785156 0 95.898437-25.167968 115.746093-65.183593-22.753906 25.785156-57.6875 41.136719-99.714843 41.136719zm0 0" fill="#e6646e"/><path d="m466.988281 183.074219c-26.011719-25.953125-60.488281-41.527344-100.628906-45.675781-4.847656-39.675782-22.628906-73.207032-51.546875-97.101563-32.359375-26.738281-76.417969-40.296875-130.957031-40.296875-58.101563 0-105.875 16.136719-138.15625 46.660156-29.894531 28.269532-45.699219 67.394532-45.699219 113.144532s15.804688 84.875 45.699219 113.148437c31.175781 29.476563 76.800781 45.53125 132.222656 46.597656 4.667969 34.632813 19.679687 65.832031 43.441406 89.535157 30.691407 30.617187 73.160157 46.800781 122.8125 46.800781 49.652344 0 92.125-16.183594 122.8125-46.800781 29.027344-28.953126 45.011719-69.085938 45.011719-113.007813 0-43.917969-15.984375-84.050781-45.011719-113.003906zm-288.398437 85.011719c-4.914063-.792969-9.878906-2.53125-15.050782-4.347657-6.117187-2.148437-12.441406-4.375-18.972656-4.996093-7.519531-.71875-14.652344.246093-21.550781 1.175781-6.878906.925781-13.375 1.804687-18.617187.609375-7.113282-1.617188-13.613282-6.144532-19.898438-10.519532-4.722656-3.292968-9.609375-6.695312-14.871094-8.972656-6.035156-2.609375-12.125-4.125-18.011718-5.589844-7.460938-1.859374-14.507813-3.617187-18.921876-7.25-1.546874-1.273437-2.9375-2.742187-4.253906-4.488281-.058594-.074219-.121094-.144531-.183594-.21875-4.945312-10.640625-8.535156-22.132812-10.722656-34.347656 1.703125 1.199219 3.554688 2.738281 5.480469 4.34375 5.84375 4.863281 13.113281 10.917969 23.058594 13.359375 6.410156 1.570312 13.105469.527344 19.582031-.484375 5.378906-.835937 10.9375-1.703125 16.003906-.996094 3.566406.5 7.757813 2.515625 12.195313 4.648438 6.183593 2.976562 13.199219 6.351562 21.21875 6.972656 6.667969.515625 13.105469-1.375 19.332031-3.203125 5.425781-1.59375 10.5625-3.089844 15.367188-2.9375 3.882812.132812 8.449218 1.835938 13.28125 3.640625 6.191406 2.308594 13.207031 4.925781 20.800781 4.925781 4.117187 0 8.0625-.769531 11.800781-1.839844-8.371094 15.449219-14.144531 32.480469-17.066406 50.515626zm30.285156-70.835938c-3.230469.871094-6.386719 2.039062-9.445312 3.179688-5.492188 2.046874-10.679688 3.980468-15.574219 3.980468-4.886719 0-10.070313-1.933594-15.554688-3.980468-5.75-2.144532-11.695312-4.363282-18.023437-4.574219-7.226563-.246094-14.066406 1.761719-20.097656 3.535156-5.15625 1.511719-10.023438 2.941406-13.949219 2.636719-5.210938-.402344-10.390625-2.894532-15.875-5.53125-5.277344-2.539063-10.734375-5.160156-16.613281-5.984375-7.265626-1.019531-14.242188.066406-20.398438 1.027343-5.246094.820313-10.207031 1.59375-13.695312.738282-6.582032-1.617188-11.894532-6.039063-17.035157-10.320313-3.582031-2.984375-6.964843-5.800781-10.792969-7.738281-1.910156-.964844-3.792968-1.890625-5.621093-2.785156-.285157-.140625-.558594-.277344-.84375-.414063-.234375-3.6875-.355469-7.421875-.355469-11.214843 0-3.789063.121094-7.527344.355469-11.210938.289062-.144531.570312-.28125.863281-.425781 1.828125-.898438 3.710938-1.820313 5.621094-2.785157 3.832031-1.9375 7.214844-4.753906 10.800781-7.742187 5.132813-4.273437 10.441406-8.695313 17.015625-10.308594 3.492188-.855469 8.453125-.082031 13.703125.738281 6.15625.957032 13.132813 2.046876 20.398437 1.027344 5.882813-.824218 11.339844-3.445312 16.613282-5.984375 5.484375-2.636719 10.660156-5.128906 15.875-5.53125 3.917968-.308593 8.777344 1.125 13.925781 2.636719 6.023437 1.773438 12.851563 3.785156 20.074219 3.539062 6.335937-.210937 12.28125-2.429687 18.035156-4.574218 5.492188-2.050782 10.679688-3.984375 15.574219-3.984375 4.886719 0 10.070312 1.933593 15.554687 3.980469 5.75 2.144531 11.695313 4.363281 18.023438 4.578124 7.234375.246094 14.0625-1.765624 20.097656-3.535156 5.152344-1.515625 10.015625-2.941406 13.945312-2.640625 5.214844.40625 10.394532 2.894531 15.878907 5.535157 5.277343 2.535156 10.730469 5.160156 16.613281 5.984374 7.265625 1.019532 14.242188-.070312 20.394531-1.03125 5.25-.816406 10.207031-1.589843 13.699219-.734374 6.003906 1.472656 10.949219 5.285156 15.671875 9.1875-45.167969 2.125-83.855469 18.101562-112.371094 46.546874-4.476562 4.46875-8.640625 9.207032-12.488281 14.179688zm-180.386719-101.605469c.289063-.257812.574219-.535156.828125-.84375 1.070313-1.289062 2.183594-2.402343 3.402344-3.40625 4.417969-3.632812 11.46875-5.386719 18.933594-7.246093 5.890625-1.46875 11.980468-2.984376 18.015625-5.589844 5.265625-2.277344 10.152343-5.679688 14.875-8.96875 6.285156-4.375 12.785156-8.902344 19.898437-10.515625 5.230469-1.191407 11.71875-.3125 18.589844.617187 6.894531.929688 14.019531 1.894532 21.535156 1.179688 6.53125-.625 12.855469-2.847656 18.972656-4.996094 7.027344-2.46875 13.664063-4.804688 20.316407-4.804688 6.648437 0 13.289062 2.335938 20.316406 4.804688 6.117187 2.148438 12.441406 4.371094 18.972656 4.996094 7.519531.714844 14.652344-.246094 21.550781-1.175782 6.878907-.925781 13.378907-1.804687 18.617188-.613281 7.113281 1.617188 13.613281 6.148438 19.898438 10.523438 4.726562 3.292969 9.609374 6.691406 14.875 8.96875 6.03125 2.609375 12.121093 4.125 18.007812 5.59375 7.460938 1.859375 14.511719 3.613281 18.921875 7.246093 1.535156 1.265626 2.917969 2.722657 4.226563 4.449219.023437.035157.054687.0625.078124.09375 4.980469 10.675781 8.613282 22.214844 10.828126 34.492188-1.695313-1.195313-3.539063-2.726563-5.453126-4.320313-5.839843-4.867187-13.109374-10.921875-23.058593-13.363281-6.40625-1.570313-13.105469-.527344-19.582031.484375-5.375.839844-10.9375 1.703125-16.003907.996094-3.566406-.5-7.757812-2.515625-12.191406-4.648438-6.1875-2.976562-13.199219-6.347656-21.222656-6.96875-6.664063-.519531-13.105469 1.371094-19.332031 3.199219-5.425782 1.59375-10.546876 3.09375-15.367188 2.9375-3.882812-.128906-8.449219-1.832031-13.28125-3.636719-6.1875-2.3125-13.203125-4.929687-20.800781-4.929687-7.601563 0-14.621094 2.621093-20.816407 4.929687-4.835937 1.804688-9.40625 3.507813-13.296874 3.640625-4.804688.15625-9.921876-1.34375-15.339844-2.9375-6.21875-1.828125-12.652344-3.71875-19.3125-3.203125-8.023438.621094-15.035156 3.992188-21.21875 6.96875-4.4375 2.132813-8.625 4.148438-12.191406 4.648438-5.070313.710937-10.628907-.15625-16.007813-.996094-6.480469-1.011719-13.175781-2.058594-19.585937-.484375-9.941407 2.4375-17.207032 8.488281-23.042969 13.351563-1.9375 1.613281-3.800781 3.15625-5.507813 4.359374 2.21875-12.402343 5.886719-24.054687 10.953125-34.832031zm27.515625-38.085937c29.445313-27.839844 73.652344-42.558594 127.851563-42.558594 50.957031 0 91.804687 12.402344 121.398437 36.859375 6.847656 5.65625 12.992188 11.929687 18.417969 18.753906-1.320313-.339843-2.640625-.671875-3.953125-1-5.296875-1.320312-10.777344-2.683593-15.679688-4.804687-3.882812-1.679688-7.949218-4.511719-12.253906-7.511719-7.117187-4.957031-15.183594-10.574219-25.144531-12.839844-7.886719-1.792969-16.050781-.691406-23.949219.375-6.058594.816407-12.324218 1.660157-18.125 1.105469-4.707031-.449219-9.910156-2.277344-15.421875-4.214844-7.539062-2.648437-16.082031-5.648437-25.289062-5.648437-9.210938 0-17.753907 3-25.289063 5.648437-5.511718 1.9375-10.714844 3.765625-15.421875 4.214844-5.792969.554688-12.050781-.292969-18.101562-1.109375-7.890625-1.066406-16.050781-2.171875-23.925781-.382813-9.960938 2.265626-18.027344 7.878907-25.144532 12.835938-4.304687 2.996094-8.371094 5.828125-12.253906 7.507812-4.90625 2.117188-10.386719 3.484376-15.6875 4.804688-1.335938.332031-2.675781.664062-4.011719 1.011719 3.664063-4.597657 7.65625-8.953125 11.984375-13.046875zm0 204.496094c-4.332031-4.101563-8.328125-8.460938-11.996094-13.066407 1.328126.347657 2.660157.679688 3.984376 1.007813 5.296874 1.320312 10.777343 2.6875 15.679687 4.808594 3.878906 1.675781 7.945313 4.507812 12.253906 7.507812 7.117188 4.957031 15.183594 10.574219 25.144531 12.839844 7.882813 1.792968 16.050782.695312 23.949219-.371094 6.054688-.816406 12.316407-1.664062 18.121094-1.109375 4.707031.449219 9.914063 2.277344 15.421875 4.214844 5.585938 1.964843 11.726562 4.117187 18.277344 5.101562-.316406 4.320313-.484375 8.6875-.484375 13.089844 0 2.828125.066406 5.636719.199219 8.429687-50.867188-1.265624-92.441407-15.875-120.550782-42.453124zm400.390625 136.414062c-27.816406 27.75-66.621093 42.417969-112.21875 42.417969-45.59375 0-84.398437-14.667969-112.21875-42.417969-26.183593-26.121094-40.601562-62.484375-40.601562-102.390625 0-39.902344 14.417969-76.265625 40.601562-102.386719 27.820313-27.75 66.625-42.417968 112.21875-42.417968 45.597657 0 84.402344 14.667968 112.21875 42.417968 26.183594 26.121094 40.605469 62.484375 40.605469 102.386719 0 39.90625-14.421875 76.269531-40.605469 102.390625zm0 0"/><path d="m223.417969 296.078125c0-33.164063 11.410156-61.386719 32.992187-81.617187 21.714844-20.363282 52.066406-31.125 87.765625-31.125 15.34375 0 29.867188 2.023437 43.160157 6.015624 3.96875 1.1875 8.148437-1.0625 9.339843-5.027343 1.191407-3.96875-1.058593-8.148438-5.027343-9.339844-14.695313-4.410156-30.664063-6.648437-47.472657-6.648437-39.582031 0-73.476562 12.167968-98.027343 35.179687-24.683594 23.140625-37.726563 55.148437-37.726563 92.5625 0 18.449219 3.222656 35.746094 9.582031 51.414063 1.183594 2.914062 3.988282 4.683593 6.949219 4.683593.941406 0 1.898437-.179687 2.820313-.554687 3.835937-1.558594 5.6875-5.933594 4.128906-9.769532-5.628906-13.867187-8.484375-29.265624-8.484375-45.773437zm0 0"/><path d="m425.753906 190.636719c-3.472656-2.257813-8.117187-1.277344-10.378906 2.191406-2.257812 3.472656-1.277344 8.121094 2.195312 10.378906 30.542969 19.875 47.363282 52.859375 47.363282 92.871094 0 33.164063-11.40625 61.390625-32.988282 81.621094-21.71875 20.359375-52.066406 31.121093-87.769531 31.121093-39.816406 0-73.621093-13.796874-95.183593-38.855468-2.703126-3.140625-7.4375-3.496094-10.578126-.792969-3.140624 2.699219-3.496093 7.4375-.792968 10.574219 24.460937 28.425781 62.300781 44.078125 106.554687 44.078125 39.582031 0 73.480469-12.167969 98.027344-35.179688 24.683594-23.140625 37.730469-55.148437 37.730469-92.5625.003906-45.261719-19.242188-82.710937-54.179688-105.445312zm0 0"/><path d="m292.488281 322.898438c-3.636719 1.980468-4.976562 6.539062-2.992187 10.175781l3.007812 5.511719c1.359375 2.492187 3.933594 3.90625 6.589844 3.90625 1.214844 0 2.445312-.292969 3.585938-.914063 3.636718-1.984375 4.976562-6.539063 2.992187-10.175781l-3.007813-5.511719c-1.980468-3.636719-6.539062-4.976563-10.175781-2.992187zm0 0"/><path d="m389.164062 236.457031-5.605468 2.824219c-3.699219 1.863281-5.191406 6.371094-3.324219 10.070312 1.316406 2.617188 3.960937 4.128907 6.703125 4.128907 1.132812 0 2.285156-.257813 3.367188-.804688l5.605468-2.824219c3.699219-1.863281 5.1875-6.371093 3.324219-10.070312s-6.371094-5.1875-10.070313-3.324219zm0 0"/><path d="m346.25 234.175781-.933594-6.207031c-.617187-4.097656-4.4375-6.914062-8.53125-6.304688-4.09375.617188-6.917968 4.4375-6.300781 8.53125l.929687 6.210938c.5625 3.71875 3.761719 6.386719 7.410157 6.386719.371093 0 .746093-.027344 1.125-.085938 4.09375-.613281 6.917969-4.433593 6.300781-8.53125zm0 0"/><path d="m332.527344 353.394531-5.648438 2.738281c-3.730468 1.804688-5.285156 6.292969-3.480468 10.019532 1.296874 2.671875 3.972656 4.230468 6.753906 4.230468 1.101562 0 2.214844-.242187 3.269531-.753906l5.644531-2.738281c3.730469-1.804687 5.285156-6.292969 3.480469-10.019531-1.808594-3.726563-6.292969-5.28125-10.019531-3.476563zm0 0"/><path d="m273.785156 283.316406c-4.101562-.601562-7.90625 2.234375-8.507812 6.332032-.597656 4.097656 2.238281 7.910156 6.335937 8.507812l6.210938.910156c.367187.054688.734375.082032 1.097656.082032 3.660156 0 6.863281-2.683594 7.410156-6.414063.601563-4.101563-2.234375-7.910156-6.335937-8.507813zm0 0"/><path d="m371.394531 341.128906-4.789062 4.058594c-3.160157 2.675781-3.550781 7.410156-.875 10.570312 1.484375 1.75 3.597656 2.648438 5.726562 2.648438 1.714844 0 3.4375-.582031 4.84375-1.777344l4.789063-4.058594c3.160156-2.675781 3.550781-7.410156.875-10.570312-2.679688-3.160156-7.410156-3.550781-10.570313-.871094zm0 0"/><path d="m406.558594 328.085938 6.128906 1.367187c.546875.121094 1.097656.179687 1.636719.179687 3.4375 0 6.535156-2.375 7.3125-5.867187.902343-4.042969-1.644531-8.050781-5.6875-8.953125l-6.125-1.367188c-4.046875-.902343-8.050781 1.644532-8.953125 5.6875-.902344 4.042969 1.644531 8.050782 5.6875 8.953126zm0 0"/><path d="m401.492188 287.9375c.285156 3.945312 3.578124 6.957031 7.476562 6.957031.179688 0 .363281-.003906.546875-.019531 4.128906-.296875 7.238281-3.886719 6.9375-8.019531l-.449219-6.261719c-.300781-4.132812-3.882812-7.238281-8.023437-6.941406-4.128907.296875-7.238281 3.890625-6.9375 8.023437zm0 0"/><path d="m314.460938 253.953125c1.453124-3.878906-.515626-8.199219-4.394532-9.652344l-5.878906-2.203125c-3.875-1.453125-8.203125.515625-9.652344 4.394532-1.453125 3.878906.511719 8.199218 4.390625 9.652343l5.878907 2.203125c.867187.324219 1.757812.476563 2.628906.476563 3.039062 0 5.898437-1.859375 7.027344-4.871094zm0 0"/></svg>