<svg id="Layer_1" height="512" viewBox="0 0 64 64" width="512" xmlns="http://www.w3.org/2000/svg" data-name="Layer 1"><path d="m46 19a4.2115 4.2115 0 0 1 -.14 1.11c-.52 1.85-2.46 2.45-5.37 2.54-.76.03-1.59.02-2.48-.01-1.14-.04-2.37-.12-3.68-.21-2.81-.2-5.98-.43-9.33-.43h-.13c-1.44 0-2.85.04-4.2.11-2.83.14-5.45.36-7.73.48a25.6347 25.6347 0 0 1 -5.54-.13c-.13-.02-.25-.05-.37-.07-1.73-.38-2.81-1.22-2.99-2.84a3.16 3.16 0 0 1 -.04-.55c0-4.19 4.92-10.17 12.03-13.15a22.03 22.03 0 0 1 4.24-1.33 21.6289 21.6289 0 0 1 4.73-.52 22.4794 22.4794 0 0 1 6.67 1.02h.02a21.975 21.975 0 0 1 2.47.91h.01a24.8434 24.8434 0 0 1 7.41 4.93 18.6754 18.6754 0 0 1 2.66 3.19 9.4644 9.4644 0 0 1 1.76 4.95z" fill="#a1887f"/><path d="m46 19a4.2115 4.2115 0 0 1 -.14 1.11c-.52 1.85-2.46 2.45-5.37 2.54-.76.03-1.59.02-2.48-.01-1.14-.04-2.37-.12-3.68-.21-2.81-.2-5.98-.43-9.33-.43v-18a22.4794 22.4794 0 0 1 6.67 1.02h.02a21.975 21.975 0 0 1 2.47.91h.01a24.8434 24.8434 0 0 1 7.41 4.93 18.6754 18.6754 0 0 1 2.66 3.19 9.4644 9.4644 0 0 1 1.76 4.95z" fill="#8d6e63"/><path d="m60 37.71c0 2.39-2.23 2.74-5.71 2.6-.81-.02-1.69-.08-2.63-.15-2-.14-4.27-.3-6.66-.3h-.1c-.99 0-1.97.03-2.9.08h-.09c-2.18.11-4.18.29-5.89.36a16.8552 16.8552 0 0 1 -3.59-.11c-1.4-.25-2.26-.85-2.4-2.08a2.5952 2.5952 0 0 1 -.03-.4c0-2.46 2.38-5.79 6.06-8.08a17.2454 17.2454 0 0 1 2.53-1.31 16.521 16.521 0 0 1 2.94-.93c.03-.01.06-.01.09-.02a15.6982 15.6982 0 0 1 3.38-.37 17.3 17.3 0 0 1 11.84 4.9 13.434 13.434 0 0 1 1.9 2.28 6.749 6.749 0 0 1 1.26 3.53z" fill="#a1887f"/><path d="m60 37.71c0 2.39-2.23 2.74-5.71 2.6-.81-.02-1.69-.08-2.63-.15-2-.14-4.27-.3-6.66-.3v-12.86a17.3 17.3 0 0 1 11.84 4.9 13.434 13.434 0 0 1 1.9 2.28 6.749 6.749 0 0 1 1.26 3.53z" fill="#8d6e63"/><path d="m55 53.08c0 3.82-3.48 6.92-7.77 6.92h-4.3c-4.29 0-7.77-3.1-7.77-6.92a6.3479 6.3479 0 0 1 1.11-3.57 25.1656 25.1656 0 0 0 3.89-9.47c.57-.03 1.15-.07 1.75-.1h.09c.93-.05 1.91-.08 2.9-.08h.1c1.75 0 3.43.09 5 .19a25.1879 25.1879 0 0 0 3.89 9.46 6.3479 6.3479 0 0 1 1.11 3.57z" fill="#d8cdc9"/><path d="m55 53.08c0 3.82-3.48 6.92-7.77 6.92h-2.23v-20.14c1.75 0 3.43.09 5 .19a25.1879 25.1879 0 0 0 3.89 9.46 6.3479 6.3479 0 0 1 1.11 3.57z" fill="#bdaaa4"/><path d="m36.27 49.51a6.3479 6.3479 0 0 0 -1.11 3.57 6.206 6.206 0 0 0 .48 2.38 9.392 9.392 0 0 1 -8.04 4.54h-5.2a9.3945 9.3945 0 0 1 -8.06-14.23 36.6224 36.6224 0 0 0 5.16-16.82l.38-6.8c.26-.01.52-.03.79-.04 1.35-.07 2.76-.11 4.2-.11h.13c1.77 0 3.48.07 5.12.16l.38 6.79a37.9156 37.9156 0 0 0 .7 5.33 6.7044 6.7044 0 0 0 -1.2 3.43 2.5952 2.5952 0 0 0 .03.4c.14 1.23 1 1.83 2.4 2.08.17.03.35.05.54.07a35.9758 35.9758 0 0 0 2.69 5.51 9.167 9.167 0 0 1 1.12 2.93c-.17.27-.33.55-.51.81z" fill="#d8cdc9"/><path d="m36.27 49.51a6.3479 6.3479 0 0 0 -1.11 3.57 6.206 6.206 0 0 0 .48 2.38 9.392 9.392 0 0 1 -8.04 4.54h-2.6v-38c1.77 0 3.48.07 5.12.16l.38 6.79a37.9156 37.9156 0 0 0 .7 5.33 6.7044 6.7044 0 0 0 -1.2 3.43 2.5952 2.5952 0 0 0 .03.4c.14 1.23 1 1.83 2.4 2.08.17.03.35.05.54.07a35.9758 35.9758 0 0 0 2.69 5.51 9.167 9.167 0 0 1 1.12 2.93c-.17.27-.33.55-.51.81z" fill="#bdaaa4"/><g fill="#6d4d42"><path d="m13 22a2.88 2.88 0 0 1 -.06.59 25.6347 25.6347 0 0 1 -5.54-.13c-.13-.02-.25-.05-.37-.07a2.5613 2.5613 0 0 1 -.03-.39 3 3 0 0 1 6 0z"/><circle cx="12" cy="12" r="3"/><circle cx="23" cy="13" r="3"/></g><path d="m35 8a3 3 0 1 1 -3.33-2.98h.02a21.975 21.975 0 0 1 2.47.91h.01a2.9773 2.9773 0 0 1 .83 2.07z" fill="#5e4137"/><circle cx="32" cy="18" fill="#5e4137" r="3"/><path d="m45.86 20.11c-.52 1.85-2.46 2.45-5.37 2.54a3 3 0 1 1 5.37-2.54z" fill="#5e4137"/><path d="m42 29a3.0038 3.0038 0 0 1 -5.94.63 17.2454 17.2454 0 0 1 2.53-1.31 16.521 16.521 0 0 1 2.94-.93 2.95 2.95 0 0 1 .47 1.61z" fill="#6d4d42"/><circle cx="52" cy="32" fill="#5e4137" r="3"/><path d="m42 39.94h-.09c-2.18.11-4.18.29-5.89.36a1.5137 1.5137 0 0 1 -.02-.3 3 3 0 0 1 6-.06z" fill="#6d4d42"/><path d="m47.2305 57a1 1 0 0 1 0-2c1.4756 0 2.77-.8994 2.77-1.9243a1.3862 1.3862 0 0 0 -.2559-.77 1 1 0 0 1 1.66-1.1162 3.3821 3.3821 0 0 1 .5954 1.8862c0 2.1643-2.14 3.9243-4.7695 3.9243z" fill="#8d6e63"/><path d="m22.3975 57a6.3974 6.3974 0 0 1 -5.4854-9.69 1 1 0 0 1 1.7149 1.03 4.3965 4.3965 0 0 0 3.7705 6.66 1 1 0 1 1 0 2z" fill="#a1887f"/><path d="m23 17a4 4 0 0 0 0-8 4 4 0 0 0 0 8zm0-6a2 2 0 0 1 0 4 2 2 0 0 1 0-4z"/><path d="m57.5391 31.1851a17.8882 17.8882 0 0 0 -16.127-4.7886v-.0034a18.5666 18.5666 0 0 0 -9.6063 5.4535c-.3424-1.9957-.49-6.5673-.6255-8.6256 4.2138-.02 14.1954 2.2649 15.643-2.84 1.1009-6.8135-6.5342-12.8517-12.33-15.3967a24.8635 24.8635 0 0 0 -2.6056-.9443 23.2831 23.2831 0 0 0 -11.8164-.5c-8.1147 1.453-17.7982 9.5849-17.0254 16.12.2178 1.9575 1.4853 3.2045 3.82 3.7163.11.0208.2615.0536.36.0683a27.0856 27.0856 0 0 0 5.7685.1436h.0007c1.8493-.0986 3.882-.2549 5.8241-.3714l-.315 5.6826a35.7748 35.7748 0 0 1 -5.0235 16.3545 10.3972 10.3972 0 0 0 8.9168 15.7461h5.205a10.2885 10.2885 0 0 0 7.9214-3.6956 9.01 9.01 0 0 0 7.4029 3.6956h4.3037c4.8359 0 8.7695-3.5547 8.7695-7.9243a7.3651 7.3651 0 0 0 -1.2783-4.1211 24.2021 24.2021 0 0 1 -3.4685-7.8185c2.8216.1692 7.178.68 8.8044-1.0038 2.411-2.6816-.2288-6.7087-2.5185-8.9472zm-3.5391.8149a2 2 0 0 1 -4 0 2 2 0 0 1 4 0zm-13.7867-3.2123c.2448-.0811.4919-.149.7407-.2113a2.0056 2.0056 0 0 1 -3.6468 1.4929 14.7035 14.7035 0 0 1 2.9061-1.2816zm-8.2133-8.7877a2 2 0 0 1 0-4 2 2 0 0 1 0 4zm9 1a2.0073 2.0073 0 0 1 3.7958-.88c-.6737 1.3063-2.3857 1.3578-3.7 1.5a2.0257 2.0257 0 0 1 -.0958-.62zm-9.4183-14.9639a20.0026 20.0026 0 0 1 1.9954.7362 2.0032 2.0032 0 1 1 -1.9954-.7362zm-17.5817 5.9639a2 2 0 0 1 -4 0 2 2 0 0 1 4 0zm-2.1346 9.638a24.6509 24.6509 0 0 1 -3.8135-.0916 2.006 2.006 0 0 1 3.9148.0884c-.0351.0014-.0667.0019-.1013.0032zm4.2733-.2518c-.7583.0515-1.481.0986-2.1864.1419a3.9876 3.9876 0 0 0 -7.82-.4969 1.9225 1.9225 0 0 1 -1.1079-1.6567c-.1488-2.069.9662-4.3014 3.0414-6.7237a3.9934 3.9934 0 1 0 5.3712-4.3728 23.0465 23.0465 0 0 1 7.05-2.7819 20.6892 20.6892 0 0 1 8.4844-.1055 3.9978 3.9978 0 1 0 7.0245 2.57c3.7277 2.132 7.436 5.3578 8.7265 9.432a4.0189 4.0189 0 0 0 -5.6634 4.2719c-1.6174-.02-3.2464-.1349-4.9953-.2553a3.9908 3.9908 0 1 0 -4.531-.2844 101.5074 101.5074 0 0 0 -13.394.2614zm11.4638 37.6138h-5.205a8.4378 8.4378 0 0 1 -7.2011-12.7174 37.76 37.76 0 0 0 5.3046-17.2726l.328-5.9047a80.8658 80.8658 0 0 1 8.3431.0056c.2022 3.1831.2861 7.8234.9712 10.9594a6.8072 6.8072 0 0 0 -1.1062 4.1521c.1826 1.61 1.2647 2.603 3.2188 2.9521h.001c.9229 2.6676 2.6711 4.6889 3.4581 7.3405a7.49 7.49 0 0 0 -1.1886 6.8206 8.3267 8.3267 0 0 1 -6.9239 3.6644zm12.9045-19.9807c-1.1176.0673-2.2627.1565-3.3556.2192a2.0171 2.0171 0 0 1 3.582-.2341c-.0779.0047-.1492.0101-.2264.0149zm-4.4465 2.2795c.8775-.0356 1.8323-.1006 2.8456-.17a23.8743 23.8743 0 0 1 -1.8841 5.1012c-.8286-1.63-1.773-3.1463-2.4886-4.8895.4657.0002.9702-.0138 1.5271-.0417zm17.003 8.773c2.7312 4.0375-.8624 9.0133-5.8335 8.9282h-4.3036a6.7816 6.7816 0 0 1 -6.3633-3.9247 5.3516 5.3516 0 0 1 .6731-5.2264 26.0943 26.0943 0 0 0 3.7543-8.855c.3065-.0185.6127-.0381.9193-.0539a69.85 69.85 0 0 1 7.2591.067 26.133 26.133 0 0 0 3.8946 9.0648zm5.6094-11.3818c-.7061.6773-2.69.6856-4.3584.6206-3.7378-.1709-7.6331-.5978-11.4842-.4058a3.9915 3.9915 0 0 0 -7.7627.4273 14.8311 14.8311 0 0 1 -2.0531-.0733c-1.2692-.0787-2.0261-.6546-1.9969-1.3046.1311-2.9364 2.1454-4.8615 4.606-6.8116a4.0011 4.0011 0 0 0 7.2807-2.9718 14.557 14.557 0 0 1 6.7722.5864 3.99 3.99 0 1 0 6.2779 3.6935c1.5228 1.4229 3.9073 4.404 2.7185 6.2393z"/><path d="m47.2305 57c2.6295 0 4.7695-1.76 4.7695-3.9243.0273-.9883-.6911-2.9206-1.9844-2.1582a1.0006 1.0006 0 0 0 -.2715 1.3877 1.3862 1.3862 0 0 1 .2559.77c0 1.0254-1.2939 1.9248-2.7695 1.9248a1 1 0 0 0 0 2z"/><path d="m22.3975 55a4.3965 4.3965 0 0 1 -3.7705-6.6592 1.0007 1.0007 0 0 0 -.3428-1.3725c-1.7667-.7951-2.2452 2.448-2.2843 3.6346a6.4047 6.4047 0 0 0 6.3976 6.3971 1 1 0 1 0 0-2z"/></svg>