<svg height="512pt" viewBox="-14 0 512 512.00265" width="512pt" xmlns="http://www.w3.org/2000/svg"><path d="m353.234375 292.523438 54.035156 11.007812c4.125-8.5625 10.695313-27.75 13.019531-39.355469.5625-2.808593-1.75-5.332031-4.589843-4.945312-18.152344 2.464843-45.558594 14.878906-62.464844 33.292969zm0 0" fill="#cdf5a0"/><path d="m302.949219 252.214844c1.535156 14.488281 8.402343 39.375 26.101562 56.488281l50.703125-16.011719c-19.949218-24.246094-50.988281-41.21875-71.933594-44.917968-2.714843-.476563-5.160156 1.703124-4.871093 4.441406zm0 0" fill="#b4e6a0"/><path d="m344.5 185.984375c33.648438 35.382813 81.910156 49.324219 129.652344 42.46875 9.238281-47.339844-2.265625-96.238281-35.914063-131.621094-33.652343-35.378906-81.914062-49.320312-129.65625-42.464843-9.238281 47.339843 2.269531 96.238281 35.917969 131.617187zm0 0" fill="#b4e6a0"/><path d="m308.585938 54.371094c-9.238282 47.335937 2.265624 96.234375 35.914062 131.617187 33.648438 35.378907 81.910156 49.320313 129.652344 42.464844zm0 0" fill="#96d7a5"/><path d="m421.78125 368.410156c0 14.921875-12.097656 27.015625-27.019531 27.015625s-27.015625-12.09375-27.015625-27.015625 12.09375-27.019531 27.015625-27.019531 27.019531 12.097656 27.019531 27.019531zm0 0" fill="#e6646e"/><path d="m408.273438 381.917969c-14.921876 0-27.019532-12.09375-27.019532-27.019531 0-3.957032.898438-7.691407 2.429688-11.078126-9.382813 4.234376-15.9375 13.628907-15.9375 24.589844 0 14.921875 12.09375 27.015625 27.015625 27.015625 10.964843 0 20.355469-6.554687 24.589843-15.9375-3.386718 1.53125-7.121093 2.429688-11.078124 2.429688zm0 0" fill="#dc4655"/><path d="m476.484375 368.410156c0 14.921875-12.097656 27.015625-27.019531 27.015625s-27.015625-12.09375-27.015625-27.015625 12.09375-27.019531 27.015625-27.019531 27.019531 12.097656 27.019531 27.019531zm0 0" fill="#e6646e"/><path d="m462.976562 381.917969c-14.921874 0-27.019531-12.09375-27.019531-27.019531 0-3.957032.898438-7.691407 2.429688-11.078126-9.382813 4.234376-15.9375 13.628907-15.9375 24.589844 0 14.921875 12.09375 27.015625 27.015625 27.015625 10.964844 0 20.355468-6.554687 24.589844-15.9375-3.386719 1.53125-7.121094 2.429688-11.078126 2.429688zm0 0" fill="#dc4655"/><path d="m368.449219 368.410156c0 14.921875-12.097657 27.015625-27.019531 27.015625-14.921876 0-27.019532-12.09375-27.019532-27.015625s12.097656-27.019531 27.019532-27.019531c14.921874 0 27.019531 12.097656 27.019531 27.019531zm0 0" fill="#e6646e"/><path d="m354.9375 381.917969c-14.921875 0-27.015625-12.09375-27.015625-27.019531 0-3.957032.898437-7.691407 2.429687-11.078126-9.382812 4.234376-15.941406 13.628907-15.941406 24.589844 0 14.921875 12.097656 27.015625 27.019532 27.015625 10.960937 0 20.355468-6.554687 24.589843-15.9375-3.386719 1.53125-7.121093 2.429688-11.082031 2.429688zm0 0" fill="#dc4655"/><path d="m314.707031 368.410156c0 14.921875-12.09375 27.015625-27.015625 27.015625s-27.019531-12.09375-27.019531-27.015625 12.097656-27.019531 27.019531-27.019531 27.015625 12.097656 27.015625 27.019531zm0 0" fill="#e6646e"/><path d="m301.199219 381.917969c-14.921875 0-27.015625-12.09375-27.015625-27.019531 0-3.957032.898437-7.691407 2.425781-11.078126-9.378906 4.234376-15.9375 13.628907-15.9375 24.589844 0 14.921875 12.097656 27.015625 27.019531 27.015625 10.960938 0 20.355469-6.554687 24.589844-15.9375-3.390625 1.53125-7.121094 2.429688-11.082031 2.429688zm0 0" fill="#dc4655"/><path d="m449.132812 422.277344c0 14.921875-12.097656 27.019531-27.019531 27.019531s-27.015625-12.097656-27.015625-27.019531 12.09375-27.015625 27.015625-27.015625 27.019531 12.09375 27.019531 27.015625zm0 0" fill="#e6646e"/><path d="m435.621094 435.789062c-14.921875 0-27.015625-12.097656-27.015625-27.019531 0-3.957031.898437-7.691406 2.429687-11.078125-9.382812 4.234375-15.9375 13.625-15.9375 24.585938 0 14.925781 12.09375 27.019531 27.015625 27.019531 10.960938 0 20.355469-6.554687 24.589844-15.9375-3.386719 1.53125-7.121094 2.429687-11.082031 2.429687zm0 0" fill="#dc4655"/><path d="m395.800781 422.277344c0 14.921875-12.097656 27.019531-27.019531 27.019531s-27.015625-12.097656-27.015625-27.019531 12.09375-27.015625 27.015625-27.015625 27.019531 12.09375 27.019531 27.015625zm0 0" fill="#e6646e"/><path d="m382.289062 435.789062c-14.921874 0-27.015624-12.097656-27.015624-27.019531 0-3.957031.898437-7.691406 2.429687-11.078125-9.382813 4.234375-15.9375 13.625-15.9375 24.585938 0 14.925781 12.09375 27.019531 27.015625 27.019531 10.960938 0 20.355469-6.554687 24.589844-15.9375-3.390625 1.53125-7.121094 2.429687-11.082032 2.429687zm0 0" fill="#dc4655"/><path d="m342.058594 422.277344c0 14.921875-12.09375 27.019531-27.015625 27.019531s-27.019531-12.097656-27.019531-27.019531 12.097656-27.015625 27.019531-27.015625 27.015625 12.09375 27.015625 27.015625zm0 0" fill="#e6646e"/><path d="m328.550781 435.789062c-14.921875 0-27.015625-12.097656-27.015625-27.019531 0-3.957031.898438-7.691406 2.429688-11.078125-9.382813 4.234375-15.941406 13.625-15.941406 24.585938 0 14.925781 12.097656 27.019531 27.019531 27.019531 10.960937 0 20.351562-6.554687 24.589843-15.9375-3.390624 1.53125-7.121093 2.429687-11.082031 2.429687zm0 0" fill="#dc4655"/><path d="m421.78125 477.480469c0 14.921875-12.097656 27.019531-27.019531 27.019531s-27.015625-12.097656-27.015625-27.019531c0-14.917969 12.09375-27.015625 27.015625-27.015625s27.019531 12.097656 27.019531 27.015625zm0 0" fill="#e6646e"/><path d="m408.273438 490.992188c-14.921876 0-27.019532-12.097657-27.019532-27.019532 0-3.957031.898438-7.691406 2.429688-11.078125-9.382813 4.234375-15.9375 13.625-15.9375 24.585938 0 14.921875 12.09375 27.019531 27.015625 27.019531 10.964843 0 20.355469-6.558594 24.589843-15.9375-3.386718 1.53125-7.121093 2.429688-11.078124 2.429688zm0 0" fill="#dc4655"/><path d="m368.449219 477.480469c0 14.921875-12.097657 27.019531-27.019531 27.019531-14.921876 0-27.019532-12.097656-27.019532-27.019531 0-14.917969 12.097656-27.015625 27.019532-27.015625 14.921874 0 27.019531 12.097656 27.019531 27.015625zm0 0" fill="#e6646e"/><path d="m354.9375 490.992188c-14.921875 0-27.015625-12.097657-27.015625-27.019532 0-3.957031.898437-7.691406 2.429687-11.078125-9.382812 4.234375-15.941406 13.625-15.941406 24.585938 0 14.921875 12.097656 27.019531 27.019532 27.019531 10.960937 0 20.355468-6.558594 24.589843-15.9375-3.386719 1.53125-7.121093 2.429688-11.082031 2.429688zm0 0" fill="#dc4655"/><path d="m123.007812 250.832031 47.308594 28.335938c6.734375-6.707031 19.308594-22.621094 25.355469-32.796875 1.464844-2.460938.121094-5.609375-2.6875-6.1875-17.941406-3.707032-47.914063-1.101563-69.976563 10.648437zm0 0" fill="#cdf5a0"/><path d="m88.972656 196.105469c-3.367187 14.171875-5.160156 39.929687 5.851563 61.949219l53.140625 1.742187c-10.761719-29.496094-34.398438-55.816406-52.925782-66.261719-2.398437-1.355468-5.429687-.109375-6.066406 2.570313zm0 0" fill="#b4e6a0"/><path d="m163.984375 336.203125c0 14.921875-12.097656 27.015625-27.019531 27.015625s-27.019532-12.09375-27.019532-27.015625 12.097657-27.019531 27.019532-27.019531 27.019531 12.097656 27.019531 27.019531zm0 0" fill="#e6646e"/><path d="m145.21875 353.433594c-14.074219-4.960938-21.464844-20.386719-16.507812-34.460938 1.316406-3.734375 3.402343-6.957031 5.972656-9.644531-10.253906.878906-19.558594 7.558594-23.203125 17.898437-4.957031 14.074219 2.433593 29.5 16.507812 34.457032 10.339844 3.644531 21.375.578125 28.488281-6.859375-3.707031.316406-7.523437-.074219-11.257812-1.390625zm0 0" fill="#dc4655"/><path d="m215.578125 354.378906c0 14.921875-12.09375 27.015625-27.015625 27.015625s-27.019531-12.09375-27.019531-27.015625 12.097656-27.019531 27.019531-27.019531 27.015625 12.097656 27.015625 27.019531zm0 0" fill="#e6646e"/><path d="m196.8125 371.605469c-14.074219-4.957031-21.460938-20.382813-16.503906-34.457031 1.3125-3.734376 3.402344-6.957032 5.972656-9.644532-10.257812.878906-19.5625 7.554688-23.203125 17.894532-4.960937 14.074218 2.429687 29.503906 16.503906 34.460937 10.34375 3.644531 21.378907.578125 28.488281-6.863281-3.703124.320312-7.519531-.074219-11.257812-1.390625zm0 0" fill="#dc4655"/><path d="m113.679688 318.484375c0 14.921875-12.097657 27.015625-27.019532 27.015625-14.917968 0-27.015625-12.09375-27.015625-27.015625s12.097657-27.019531 27.015625-27.019531c14.921875 0 27.019532 12.097656 27.019532 27.019531zm0 0" fill="#e6646e"/><path d="m94.914062 335.714844c-14.074218-4.960938-21.464843-20.386719-16.507812-34.460938 1.316406-3.734375 3.40625-6.957031 5.976562-9.644531-10.257812.878906-19.5625 7.558594-23.203124 17.898437-4.960938 14.074219 2.429687 29.5 16.503906 34.457032 10.339844 3.644531 21.378906.578125 28.488281-6.863282-3.703125.320313-7.523437-.074218-11.257813-1.386718zm0 0" fill="#dc4655"/><path d="m62.992188 300.628906c0 14.921875-12.09375 27.019532-27.015626 27.019532-14.921874 0-27.019531-12.097657-27.019531-27.019532s12.097657-27.019531 27.019531-27.019531c14.921876 0 27.015626 12.097656 27.015626 27.019531zm0 0" fill="#e6646e"/><path d="m44.230469 317.859375c-14.074219-4.957031-21.464844-20.386719-16.507813-34.460937 1.3125-3.734376 3.402344-6.957032 5.972656-9.644532-10.257812.878906-19.558593 7.558594-23.203124 17.898438-4.957032 14.074218 2.433593 29.5 16.507812 34.460937 10.339844 3.640625 21.375.578125 28.484375-6.863281-3.703125.316406-7.519531-.074219-11.253906-1.390625zm0 0" fill="#dc4655"/><path d="m171.882812 396.097656c0 14.921875-12.097656 27.019532-27.019531 27.019532s-27.015625-12.097657-27.015625-27.019532 12.09375-27.015625 27.015625-27.015625 27.019531 12.09375 27.019531 27.015625zm0 0" fill="#e6646e"/><path d="m153.117188 413.328125c-14.070313-4.957031-21.460938-20.386719-16.503907-34.457031 1.3125-3.734375 3.402344-6.957032 5.972657-9.644532-10.257813.878907-19.5625 7.554688-23.203126 17.894532-4.957031 14.074218 2.429688 29.503906 16.507813 34.460937 10.339844 3.640625 21.375.578125 28.484375-6.863281-3.703125.320312-7.523438-.074219-11.257812-1.390625zm0 0" fill="#dc4655"/><path d="m121.578125 378.378906c0 14.921875-12.09375 27.019532-27.015625 27.019532s-27.019531-12.097657-27.019531-27.019532 12.097656-27.015625 27.019531-27.015625 27.015625 12.09375 27.015625 27.015625zm0 0" fill="#e6646e"/><path d="m102.816406 395.609375c-14.074218-4.957031-21.464844-20.386719-16.507812-34.460937 1.3125-3.730469 3.402344-6.953126 5.972656-9.640626-10.257812.878907-19.558594 7.554688-23.203125 17.894532-4.957031 14.074218 2.433594 29.503906 16.507813 34.460937 10.339843 3.640625 21.375.578125 28.484374-6.863281-3.703124.316406-7.519531-.074219-11.253906-1.390625zm0 0" fill="#dc4655"/><path d="m70.894531 360.527344c0 14.921875-12.097656 27.015625-27.019531 27.015625s-27.015625-12.09375-27.015625-27.015625 12.09375-27.019532 27.015625-27.019532 27.019531 12.097657 27.019531 27.019532zm0 0" fill="#e6646e"/><path d="m52.128906 377.757812c-14.074218-4.960937-21.464844-20.386718-16.507812-34.460937 1.316406-3.734375 3.402344-6.957031 5.972656-9.644531-10.253906.878906-19.558594 7.558594-23.203125 17.898437-4.957031 14.074219 2.433594 29.5 16.507813 34.457031 10.339843 3.644532 21.375.578126 28.488281-6.863281-3.703125.320313-7.523438-.074219-11.257813-1.386719zm0 0" fill="#dc4655"/><path d="m127.742188 439.082031c0 14.917969-12.09375 27.015625-27.015626 27.015625-14.921874 0-27.019531-12.097656-27.019531-27.015625 0-14.921875 12.097657-27.019531 27.019531-27.019531 14.921876 0 27.015626 12.097656 27.015626 27.019531zm0 0" fill="#e6646e"/><path d="m108.980469 456.308594c-14.074219-4.957032-21.464844-20.382813-16.507813-34.457032 1.316406-3.734374 3.402344-6.957031 5.972656-9.644531-10.253906.878907-19.558593 7.554688-23.203124 17.894531-4.957032 14.074219 2.433593 29.503907 16.507812 34.460938 10.339844 3.644531 21.375.578125 28.488281-6.863281-3.707031.320312-7.523437-.074219-11.257812-1.390625zm0 0" fill="#dc4655"/><path d="m77.441406 421.359375c0 14.921875-12.097656 27.019531-27.019531 27.019531s-27.015625-12.097656-27.015625-27.019531c0-14.917969 12.09375-27.015625 27.015625-27.015625s27.019531 12.097656 27.019531 27.015625zm0 0" fill="#e6646e"/><path d="m58.675781 438.589844c-14.074219-4.957032-21.460937-20.386719-16.503906-34.460938 1.3125-3.734375 3.402344-6.953125 5.972656-9.644531-10.257812.882813-19.5625 7.558594-23.203125 17.898437-4.960937 14.074219 2.429688 29.503907 16.503906 34.460938 10.339844 3.640625 21.378907.578125 28.488282-6.863281-3.703125.316406-7.523438-.074219-11.257813-1.390625zm0 0" fill="#dc4655"/><path d="m207.621094 294.636719c0 14.921875-12.09375 27.019531-27.015625 27.019531s-27.019531-12.097656-27.019531-27.019531 12.097656-27.015625 27.019531-27.015625 27.015625 12.09375 27.015625 27.015625zm0 0" fill="#e6646e"/><path d="m188.859375 311.867188c-14.074219-4.957032-21.464844-20.386719-16.507813-34.457032 1.3125-3.734375 3.402344-6.957031 5.972657-9.644531-10.257813.878906-19.558594 7.554687-23.203125 17.894531-4.957032 14.074219 2.433594 29.503906 16.507812 34.460938 10.339844 3.640625 21.375.578125 28.484375-6.863282-3.703125.320313-7.519531-.074218-11.253906-1.390624zm0 0" fill="#dc4655"/><path d="m157.320312 276.917969c0 14.921875-12.097656 27.019531-27.019531 27.019531s-27.015625-12.097656-27.015625-27.019531 12.09375-27.019531 27.015625-27.019531 27.019531 12.097656 27.019531 27.019531zm0 0" fill="#e6646e"/><path d="m138.554688 294.148438c-14.074219-4.957032-21.464844-20.386719-16.507813-34.460938 1.316406-3.734375 3.402344-6.957031 5.972656-9.644531-10.253906.878906-19.558593 7.558593-23.203125 17.898437-4.957031 14.074219 2.433594 29.5 16.507813 34.460938 10.339843 3.640625 21.375.578125 28.488281-6.863282-3.703125.316407-7.523438-.074218-11.257812-1.390624zm0 0" fill="#dc4655"/><path d="m106.632812 259.0625c0 14.921875-12.097656 27.019531-27.019531 27.019531s-27.015625-12.097656-27.015625-27.019531c0-14.917969 12.09375-27.015625 27.015625-27.015625s27.019531 12.097656 27.019531 27.015625zm0 0" fill="#e6646e"/><path d="m87.867188 276.292969c-14.070313-4.957031-21.460938-20.382813-16.503907-34.457031 1.3125-3.734376 3.402344-6.957032 5.972657-9.644532-10.257813.878906-19.5625 7.554688-23.203126 17.894532-4.957031 14.074218 2.429688 29.503906 16.507813 34.460937 10.339844 3.640625 21.375.578125 28.484375-6.863281-3.703125.320312-7.523438-.074219-11.257812-1.390625zm0 0" fill="#dc4655"/><path d="m449.132812 314.707031c0 14.921875-12.097656 27.015625-27.019531 27.015625s-27.015625-12.09375-27.015625-27.015625 12.09375-27.019531 27.015625-27.019531 27.019531 12.097656 27.019531 27.019531zm0 0" fill="#e6646e"/><path d="m435.621094 328.214844c-14.921875 0-27.015625-12.09375-27.015625-27.015625 0-3.960938.898437-7.695313 2.429687-11.082031-9.382812 4.234374-15.9375 13.628906-15.9375 24.589843 0 14.921875 12.09375 27.015625 27.015625 27.015625 10.960938 0 20.355469-6.554687 24.589844-15.9375-3.386719 1.53125-7.121094 2.429688-11.082031 2.429688zm0 0" fill="#dc4655"/><path d="m395.800781 314.707031c0 14.921875-12.097656 27.015625-27.019531 27.015625s-27.015625-12.09375-27.015625-27.015625 12.09375-27.019531 27.015625-27.019531 27.019531 12.097656 27.019531 27.019531zm0 0" fill="#e6646e"/><path d="m382.289062 328.214844c-14.921874 0-27.015624-12.09375-27.015624-27.015625 0-3.960938.898437-7.695313 2.429687-11.082031-9.382813 4.234374-15.9375 13.628906-15.9375 24.589843 0 14.921875 12.09375 27.015625 27.015625 27.015625 10.960938 0 20.355469-6.554687 24.589844-15.9375-3.390625 1.53125-7.121094 2.429688-11.082032 2.429688zm0 0" fill="#dc4655"/><path d="m342.058594 314.707031c0 14.921875-12.09375 27.015625-27.015625 27.015625s-27.019531-12.09375-27.019531-27.015625 12.097656-27.019531 27.019531-27.019531 27.015625 12.097656 27.015625 27.019531zm0 0" fill="#e6646e"/><path d="m328.550781 328.214844c-14.921875 0-27.015625-12.09375-27.015625-27.015625 0-3.960938.898438-7.695313 2.429688-11.082031-9.382813 4.234374-15.941406 13.628906-15.941406 24.589843 0 14.921875 12.097656 27.015625 27.019531 27.015625 10.960937 0 20.351562-6.554687 24.589843-15.9375-3.390624 1.53125-7.121093 2.429688-11.082031 2.429688zm0 0" fill="#dc4655"/><path d="m450.800781 334.710938c3.847657-5.574219 6.109375-12.320313 6.109375-19.589844 0-18.320313-14.328125-33.347656-32.367187-34.480469 2.308593-6.929687 3.738281-13.867187 4.246093-20.722656.078126-1.027344 0-2.070313-.316406-3.050781-1.074218-3.355469-4.117187-5.277344-7.300781-5.238282-16.417969.339844-33.621094 5.914063-49.4375 15.863282-1.417969-15.386719-3.566406-35.597657-6.464844-54.347657 24.769531 16.234375 54.175781 24.828125 85.355469 24.828125 8.195312 0 16.515625-.59375 24.902344-1.796875 3.15625-.453125 5.6875-2.867187 6.296875-5.996093 10.144531-51.96875-3.667969-102.410157-37.890625-138.394532-33.378906-35.09375-81.46875-51.476562-132.449219-45.277344l-42.011719-44.175781c-2.519531-2.644531-6.648437-3.152343-9.789062-.945312-2.039063 1.433593-3.144532 3.859375-3.148438 6.347656-.027344 39.734375-7.308594 72.519531-22.902344 103.152344-13.953124 27.414062-32.75 49.59375-52.652343 73.078125-13.175781 15.542968-26.71875 31.535156-39.3125 49.660156-11.535157-22.425781-29.117188-39.933594-48.976563-48.566406-1.183594-.515625-2.476562-.78125-3.757812-.667969-3.101563.277344-5.597656 2.355469-6.511719 5.148437-3.527344 10.785157-4.824219 22.882813-3.867187 35.453126-14.472657-.222657-28.136719 8.734374-33.175782 23.128906-2.34375 6.703125-2.566406 13.796875-.722656 20.5-19.054688-5.8125-39.65625 5.742187-43.929688 26.089844-1.238281 5.890624-.890624 12.050781 1.023438 17.757812 3.332031 9.949219 10.632812 17.578125 20.117188 21.320312-5.472657 3.988282-9.835938 9.609376-12.238282 16.46875-6.140625 17.546876 2.761719 36.765626 19.898438 43.539063-6.136719 4.472656-10.882813 11-13.027344 19.023437-4.574219 17.125 4.859375 35.210938 21.503906 41.304688 3.886719 1.425781 7.910156 2.132812 11.925782 2.132812 5.117187 0 10.210937-1.152343 14.960937-3.441406 1.199219-.574218 2.351563-1.222656 3.464844-1.921875 3.347656 9.609375 10.871093 17.664063 21.199219 21.28125 3.738281 1.308594 7.597656 1.957031 11.441406 1.957031 6.261718 0 12.480468-1.722656 18.078125-5.132812 5.421875-3.300781 9.855469-8.089844 12.703125-13.761719 3.964844-7.894531 4.773437-16.613281 2.535156-24.757812 3.332031 1.019531 6.710938 1.503906 10.039062 1.503906 14.277344 0 27.667969-8.921875 32.644532-23.140625 2.347656-6.699219 2.570312-13.792969.730468-20.496094 3.332032 1.019532 6.707032 1.503906 10.039063 1.503906 14.273437 0 27.667969-8.921874 32.644531-23.140624 2.914063-8.320313 2.554688-17.324219-1.003906-25.375-1.566406-3.539063-5.582031-5.492188-9.253906-4.285157-4.3125 1.414063-6.339844 6.195313-4.527344 10.21875 2.070312 4.585938 2.292969 9.734375.628906 14.488281-3.5625 10.175782-14.738281 15.558594-24.917968 11.996094-10.175782-3.5625-15.558594-14.738281-11.996094-24.917968 2.410156-6.886719 8.398437-11.828126 15.628906-12.894532 2.828125-.414062 5.050781-2.359375 5.957031-4.871094.722657-2 2.125-3.660156 4.046875-4.574218.050782-.023438.101563-.046875.15625-.074219 8.3125-4.003906 14.574219-11.003906 17.625-19.714844 6.050782-17.289062-2.511718-36.207031-19.160156-43.238281 4.484375-5.800781 8.136719-11.898438 10.886719-18.226562.511719-1.183594.777343-2.476563.664062-3.761719-.277343-3.101563-2.355469-5.59375-5.148437-6.507813-11.667969-3.8125-24.71875-5.011718-38.175782-3.636718 9.957032-13.300782 20.394532-25.625 30.605469-37.671876 37.925781-44.753906 73.894531-87.199218 78.59375-167.9375l29.597657 31.117188c-8.738282 50.605469 5.207031 99.457031 38.585937 134.550781 2.746094 2.886719 5.589844 5.644531 8.527344 8.273438 3.070312 15.867187 5.988281 37.507812 8.371093 61.761719-16.296874-12.550782-34.863281-20.195313-52.878906-21.472657-2.929687-.210937-5.78125 1.308594-7.214844 4.066407-.59375 1.144531-.839843 2.4375-.8125 3.726562.257813 11.296875 3.027344 23.089844 8.0625 34.582031-13.738281 4.570313-23.671874 17.539063-23.671874 32.789063 0 7.269531 2.261718 14.019531 6.109374 19.589844-18.410156.730468-33.164062 15.929687-33.164062 34.519531 0 18.585937 14.753906 33.785156 33.164062 34.519531-3.847656 5.570312-6.109374 12.320312-6.109374 19.589844 0 18.585937 14.753906 33.785156 33.164062 34.519531-4.320312 6.253906-6.644531 13.996094-6.007812 22.289063 1.285156 16.792968 14.824218 30.390624 31.613281 31.738281 12.089843.972656 23.015625-4.328125 29.890625-12.980469 6.878906 8.652344 17.804687 13.953125 29.894531 12.980469 16.792969-1.347657 30.332031-14.949219 31.613281-31.746094.632813-8.300781-1.691406-16.042969-6.023437-22.300781 13.882812-.554688 26.183593-9.414063 31.03125-22.484375 1.382812-3.722657-.035157-8.027344-3.613281-9.746094-4.09375-1.964844-8.875.082031-10.347657 4.25-3.1875 9.015625-12.601562 14.609375-22.375 12.640625-8.472656-1.710938-14.902343-9.007812-15.5625-17.625-.882812-11.472656 8.203125-21.089844 19.492188-21.089844 3.058593 0 6.050781.707032 8.753906 2.058594 2.445313 1.226562 5.261719 1.613281 7.910156.933594.8125-.207032 1.46875-.46875 2.003907-.765625 2.425781-1.351563 5.085937-2.230469 7.863281-2.226563h.523437c19.054688 0 34.554688-15.503906 34.554688-34.554687 0-18.589844-14.753906-33.789063-33.164063-34.519531zm-304.117187-65.78125c2.265625 4.707031 2.5625 10.011718.839844 14.941406-3.5625 10.179687-14.738282 15.558594-24.917969 12-10.175781-3.566406-15.558594-14.742188-11.996094-24.917969 1.722656-4.929687 5.269531-8.894531 9.972656-11.160156 2.6875-1.292969 5.570313-1.945313 8.46875-1.945313 2.175781 0 4.359375.367188 6.472657 1.109375 4.929687 1.722657 8.894531 5.265625 11.160156 9.972657zm-52.1875-66.101563c14.1875 8.5 26.585937 22.621094 35.011718 40.023437-5.277343-.074218-10.539062 1.070313-15.433593 3.425782-1.199219.578125-2.351563 1.226562-3.460938 1.925781-2.828125-8.109375-8.628906-15.113281-16.582031-19.273437-1.195312-9.117188-1.035156-17.960938.464844-26.101563zm-34.957032 50.246094c2.816407-8.046875 10.394532-13.09375 18.472657-13.09375 2.140625 0 4.3125.351562 6.441406 1.097656 10.179687 3.5625 15.558594 14.738281 12 24.914063 0 .003906 0 .003906-.003906.003906v.003906c-1.726563 4.929688-5.269531 8.890625-9.972657 11.152344-4.707031 2.269531-10.011718 2.566406-14.941406.839844-4.929687-1.726563-8.894531-5.269532-11.160156-9.976563-2.265625-4.703125-2.5625-10.011719-.835938-14.941406zm-42.574218 57.078125c-2.265625-4.707032-2.5625-10.015625-.839844-14.945313 2.816406-8.046875 10.394531-13.09375 18.476562-13.09375 2.136719 0 4.3125.351563 6.441407 1.097657 4.929687 1.726562 8.894531 5.269531 11.15625 9.972656 2.269531 4.707031 2.566406 10.011718.839843 14.941406v.003906c-1.726562 4.929688-5.265624 8.890625-9.972656 11.15625-4.707031 2.265625-10.015625 2.5625-14.945312.839844-4.929688-1.726562-8.890625-5.269531-11.15625-9.972656zm6.820312 45.066406c2.816406-8.046875 10.394532-13.097656 18.476563-13.097656 2.136719 0 4.3125.355468 6.441406 1.097656 4.929687 1.726562 8.890625 5.269531 11.15625 9.976562 2.265625 4.703126 2.566406 10.007813.839844 14.9375v.003907c-1.726563 4.929687-5.269531 8.894531-9.972657 11.160156-4.707031 2.265625-10.015624 2.5625-14.945312.839844-10.175781-3.566407-15.558594-14.742188-11.996094-24.917969zm44.570313 72.925781c-1.722657 4.933594-5.265625 8.894531-9.972657 11.160157-4.707031 2.265624-10.011718 2.5625-14.941406.839843-10.179687-3.5625-15.558594-14.742187-11.996094-24.917969 2.816407-8.046874 10.394532-13.09375 18.472657-13.09375 2.140625 0 4.3125.351563 6.441406 1.097657 4.929687 1.726562 8.894531 5.269531 11.160156 9.972656 2.265625 4.707031 2.5625 10.011719.835938 14.941406zm-1.160157-115.054687c0-.003906 0-.003906 0-.003906 2.820313-8.046876 10.398438-13.097657 18.476563-13.097657 2.140625 0 4.3125.355469 6.441406 1.097657 4.929688 1.726562 8.894531 5.269531 11.160157 9.976562 2.265624 4.703125 2.5625 10.007812.839843 14.9375 0 0 0 .003906-.003906.003906-1.722656 4.929688-5.265625 8.894532-9.972656 11.160156-4.707031 2.265626-10.011719 2.5625-14.941407.835938-10.175781-3.5625-15.558593-14.734375-12-24.910156zm8.5 74.945312c-2.265624-4.703125-2.5625-10.011718-.839843-14.941406 2.816406-8.046875 10.394531-13.097656 18.476562-13.097656 2.136719 0 4.3125.355468 6.441407 1.101562 4.929687 1.726563 8.890624 5.265625 11.15625 9.972656 2.265624 4.703126 2.5625 10.011719.839843 14.9375v.003907c-1.726562 4.929687-5.269531 8.894531-9.972656 11.160156-4.707031 2.265625-10.015625 2.5625-14.945313.835937-4.929687-1.722656-8.894531-5.265624-11.15625-9.972656zm43.734376 57.988282c-1.726563 4.929687-5.269532 8.890624-9.976563 11.15625-4.707031 2.269531-10.011719 2.566406-14.941406.839843-10.179688-3.5625-15.558594-14.742187-11.996094-24.917969 2.816406-8.046874 10.394531-13.09375 18.472656-13.09375 2.140625 0 4.3125.351563 6.441407 1.097657 4.929687 1.726562 8.894531 5.269531 11.160156 9.976562 2.265625 4.703125 2.5625 10.011719.839844 14.941407zm-.324219-100.121094c-2.265625-4.703125-2.5625-10.011719-.839844-14.941406 2.816406-8.046876 10.394531-13.09375 18.476563-13.09375 2.136718 0 4.3125.351562 6.441406 1.097656 10.175781 3.5625 15.558594 14.738281 11.996094 24.917968-1.726563 4.929688-5.269532 8.890626-9.976563 11.15625-4.703125 2.265626-10.011719 2.5625-14.941406.839844-4.929688-1.726562-8.890625-5.269531-11.15625-9.976562zm43.734375 57.988281c-3.5625 10.175781-14.738282 15.558594-24.917969 11.996094-10.175781-3.5625-15.554687-14.738281-11.996094-24.914063 0 0 0 0 0-.003906 1.726563-4.929688 5.269531-8.890625 9.976563-11.15625 2.6875-1.296875 5.570312-1.945312 8.464844-1.945312 2.175781 0 4.359374.367187 6.476562 1.105468 4.929688 1.726563 8.890625 5.269532 11.160156 9.976563 2.261719 4.703125 2.5625 10.011719.835938 14.941406zm35.753906-102.140625c-1.726562 4.929688-5.269531 8.890625-9.976562 11.160156-4.707032 2.265625-10.011719 2.5625-14.941407.835938-4.929687-1.726563-8.894531-5.269532-11.160156-9.976563-2.265625-4.703125-2.5625-10.011719-.835937-14.941406 2.816406-8.046875 10.394531-13.09375 18.472656-13.09375 2.140625 0 4.316406.351563 6.445312 1.097656 10.175782 3.5625 15.554688 14.742188 11.996094 24.917969zm-11.902344-54.710938c-2.921875 4.84375-6.550781 9.558594-10.742187 13.960938-5.082031.628906-9.945313 2.382812-14.242188 5.089844-.433593-1.242188-.929687-2.464844-1.507812-3.667969-2.5625-5.316406-6.351563-9.789063-11.03125-13.125 12.613281-3.671875 26.027343-4.390625 37.523437-2.257813zm225.910156 20.375c-1.15625 5.535157-3.023437 11.183594-5.523437 16.722657-4.59375 2.277343-8.613281 5.542969-11.777344 9.523437-4.527343-5.695312-10.808593-9.933594-18.023437-11.890625 11.335937-7.589843 23.480468-12.527343 35.324218-14.355469zm-44.355468 28.152344c10.785156 0 19.554687 8.769532 19.554687 19.554688 0 10.78125-8.769531 19.554687-19.554687 19.554687-10.78125 0-19.554688-8.773437-19.554688-19.554687 0-10.785156 8.773438-19.554688 19.554688-19.554688zm-7.5 73.660156c0 10.785157-8.769532 19.554688-19.554688 19.554688-10.78125 0-19.554687-8.769531-19.554687-19.554688 0-10.78125 8.773437-19.554687 19.554687-19.554687 10.785156.003906 19.554688 8.773437 19.554688 19.554687zm-10.675782-188.167968c-27.570312-28.992188-40.394531-68.550782-36.222656-110.304688l91.417969 96.117188c2.851563 3.003906 7.601563 3.121094 10.601563.265625 3-2.851563 3.121093-7.601563.265624-10.601563l-91.414062-96.117187c41.910156-2.074219 80.777344 12.714843 108.347656 41.703125 29.671875 31.199218 42.28125 74.636718 34.984375 119.882812-45.546875 5.019532-88.304687-9.746094-117.980469-40.945312zm7.1875 101.308594c-6.390624 2.148437-11.953124 6.117187-16.066406 11.292968-5.347656-6.726562-13.140625-11.425781-22.027344-12.726562-4.140624-8.210938-6.910156-16.609375-8.183593-24.789063 16.203125 3.335938 32.574219 12.574219 46.277343 26.222657zm-43.121093 13.199218c10.785156 0 19.554687 8.769532 19.554687 19.554688 0 10.78125-8.769531 19.554687-19.554687 19.554687-10.78125 0-19.554688-8.773437-19.554688-19.554687 0-10.785156 8.773438-19.554688 19.554688-19.554688zm-27.054688 93.214844c-10.78125 0-19.554687-8.769531-19.554687-19.554688 0-10.78125 8.773437-19.554687 19.554687-19.554687 10.785157 0 19.554688 8.773437 19.554688 19.554687 0 10.785157-8.769531 19.554688-19.554688 19.554688zm27.054688 54.109375c-10.78125 0-19.554688-8.769531-19.554688-19.554687 0-10.78125 8.773438-19.554688 19.554688-19.554688 10.785156 0 19.554687 8.773438 19.554687 19.554688 0 10.785156-8.769531 19.554687-19.554687 19.554687zm27.054687 54.109375c-10.78125 0-19.554687-8.773438-19.554687-19.554688s8.773437-19.554687 19.554687-19.554687c10.785156 0 19.554688 8.773437 19.554688 19.554687s-8.769532 19.554688-19.554688 19.554688zm27.054688-54.109375c-10.78125 0-19.554688-8.769531-19.554688-19.554687 0-10.78125 8.773438-19.554688 19.554688-19.554688 10.785156 0 19.554687 8.773438 19.554687 19.554688 0 10.785156-8.769531 19.554687-19.554687 19.554687zm46.609375 34.554687c0 10.78125-8.773438 19.554688-19.554688 19.554688s-19.554687-8.773438-19.554687-19.554688 8.773437-19.554687 19.554687-19.554687 19.554688 8.773437 19.554688 19.554687zm-19.554688-88.664062c-10.78125 0-19.554687-8.769531-19.554687-19.554688 0-10.78125 8.773437-19.554687 19.554687-19.554687s19.554688 8.773437 19.554688 19.554687c0 10.785157-8.773438 19.554688-19.554688 19.554688zm7.5-73.660156c0-10.785156 8.773438-19.558594 19.554688-19.558594s19.554687 8.773438 19.554687 19.558594c0 10.78125-8.773437 19.550781-19.554687 19.550781s-19.554688-8.769531-19.554688-19.550781zm46.609375 73.660156c-10.78125 0-19.554687-8.769531-19.554687-19.554688 0-10.78125 8.773437-19.554687 19.554687-19.554687s19.554688 8.773437 19.554688 19.554687c0 10.785157-8.773438 19.554688-19.554688 19.554688zm0 0"/></svg>