<svg height="511pt" viewBox="0 1 511 511.9998" width="511pt" xmlns="http://www.w3.org/2000/svg"><path d="m403.808594 210.738281c13.65625-13.65625 30.503906-21.234375 46.523437-22.578125 3.75-.316406 6.855469 2.789063 6.539063 6.539063-1.34375 16.019531-8.921875 32.867187-22.578125 46.523437-4.753907 4.753906-14.957031 12.4375-20.300781 15.445313l-34.070313-3.007813c3.34375-15.363281 13.644531-32.679687 23.886719-42.921875zm0 0" fill="#afdc82"/><path d="m357.855469 210.738281c-13.652344-13.65625-30.5-21.234375-46.523438-22.578125-3.75-.316406-6.851562 2.789063-6.539062 6.539063 1.347656 16.019531 8.925781 32.867187 22.578125 46.523437 4.757812 4.753906 14.957031 12.4375 20.300781 15.445313l34.070313-3.007813c-3.339844-15.363281-13.644532-32.679687-23.886719-42.921875zm0 0" fill="#96cd82"/><path d="m384.75 504.5c18.953125 0 33.636719-6.019531 60.121094-48.144531 26.167968-41.628907 60.121094-62.1875 60.121094-112.335938 0-64.191406-66.257813-96.035156-120.242188-96.035156-53.988281 0-120.242188 31.84375-120.242188 96.035156 0 50.148438 33.949219 70.707031 60.121094 112.335938 26.480469 42.125 41.164063 48.144531 60.121094 48.144531zm0 0" fill="#e6646e"/><path d="m378.664062 457.457031c-31.078124-49.261719-67.355468-71.554687-73.417968-133.949219-2.078125-21.421874.984375-40.324218 7.445312-56.742187-27.574218 15.765625-48.183594 41.472656-48.183594 77.253906 0 50.148438 33.949219 70.707031 60.121094 112.335938 26.480469 42.125 41.164063 48.144531 60.121094 48.144531 8.578125 0 16.289062-1.277344 24.609375-6.53125-8.554687-8.25-18.378906-20.988281-30.695313-40.511719zm0 0" fill="#dc4655"/><path d="m216.363281 171.734375c19.023438-3.300781 37.164063.203125 51.035157 8.328125 3.25 1.902344 4 6.226562 1.582031 9.113281-10.324219 12.324219-26.222657 21.734375-45.246094 25.035157-6.628906 1.148437-19.394531 1.558593-25.492187.9375l-26.125-22.074219c11.578124-10.636719 29.972656-18.863281 44.246093-21.339844zm0 0" fill="#afdc82"/><path d="m178.792969 145.273438c-3.300781-19.023438-12.714844-34.921876-25.039063-45.246094-2.886718-2.417969-7.207031-1.667969-9.109375 1.582031-8.125 13.871094-11.628906 32.011719-8.328125 51.035156 1.148438 6.628907 5.0625 18.785157 7.703125 24.320313l29.585938 17.15625c6.117187-14.484375 7.664062-34.574219 5.1875-48.847656zm0 0" fill="#96cd82"/><path d="m31.628906 400.9375c15.5 10.914062 30.96875 14.449219 76.875-4.746094 45.367188-18.964844 84.960938-16.222656 113.839844-57.226562 36.960938-52.480469 1.128906-116.667969-43.011719-147.753906-44.140625-31.085938-116.644531-43.199219-153.605469 9.285156-28.878906 41-12.957031 77.355468-15.53125 126.460937-2.605468 49.691407 5.933594 63.066407 21.433594 73.980469zm0 0" fill="#e6646e"/><path d="m53.742188 358.972656c2.957031-58.171875-13.867188-97.285156 17.105468-151.789062 10.632813-18.714844 24.089844-32.433594 38.824219-42.136719-31.621094-2.988281-63.339844 6.191406-83.945313 35.449219-28.878906 41-12.957031 77.355468-15.53125 126.460937-2.605468 49.691407 5.9375 63.066407 21.433594 73.980469 7.015625 4.9375 14.054688 8.335938 23.882813 8.832031-2.242188-11.671875-2.941407-27.746093-1.769531-50.796875zm0 0" fill="#dc4655"/><path d="m496.730469 292.59375c-2.347657-3.410156-7.019531-4.269531-10.429688-1.921875-3.410156 2.351563-4.273437 7.019531-1.921875 10.429687 8.699219 12.632813 13.113282 27.074219 13.113282 42.917969 0 32.453125-14.972657 51-33.925782 74.476563-8.335937 10.324218-16.957031 21.003906-25.046875 33.867187-26.046875 41.433594-38.714843 44.636719-53.769531 44.636719s-27.726562-3.203125-53.773438-44.636719c-8.085937-12.863281-16.707031-23.542969-25.042968-33.867187-18.953125-23.476563-33.925782-42.023438-33.925782-74.476563 0-33.71875 19.914063-54.449219 36.617188-65.90625 20.667969-14.167969 49.125-22.628906 76.125-22.628906 28.199219 0 57.535156 9.078125 78.472656 24.285156 3.351563 2.4375 8.039063 1.691407 10.476563-1.660156 2.433593-3.347656 1.691406-8.039063-1.660157-10.472656-10.367187-7.53125-22.542968-13.714844-35.605468-18.269531 1.011718-.925782 2.007812-1.871094 2.980468-2.84375 16.429688-16.429688 25.527344-37.847657 24.96875-58.761719-.105468-3.984375-3.3125-7.191407-7.296874-7.296875-20.914063-.574219-42.332032 8.539062-58.761719 24.96875-3.988281 3.988281-7.558594 8.292968-10.671875 12.839844-3.929688-74.113282-26.976563-126.996094-46.59375-159.25-23.515625-38.652344-46.976563-56.742188-47.960938-57.492188-2.667968-2.03125-6.359375-2.042969-9.039062-.035156-2.683594 2.011718-3.707032 5.558594-2.507813 8.6875 17.480469 45.59375-3.398437 80.832031-31.84375 95.53125-31.210937 16.125-50.699219 34.882812-62.3125 49.402344-.171875-3.789063-.582031-7.601563-1.242187-11.414063-3.953125-22.890625-16.210938-42.671875-33.628906-54.269531-3.316407-2.207032-7.785157-1.4375-10.167969 1.757812-12.511719 16.769532-17.417969 39.515625-13.464844 62.410156.414063 2.386719.925781 4.75 1.523437 7.078126-3.207031-.78125-6.417968-1.46875-9.625-2.027344-4.082031-.710938-7.964843 2.023437-8.671874 6.105468-.710938 4.078126 2.023437 7.964844 6.101562 8.671876 19.894531 3.460937 40.042969 11.847656 56.730469 23.617187 22.066406 15.5625 40.445312 38.878906 49.164062 62.371094 7.050781 18.988281 11.375 47.40625-8.0625 74.960937-18.703125 26.523438-41.625 33.046875-70.648437 41.308594-12.761719 3.632812-25.960938 7.390625-39.984375 13.242188-45.167969 18.847656-57.367188 14.160156-69.667969 5.484374-12.300781-8.675781-20.8125-18.597656-18.214844-67.46875.804688-15.175781-.085937-28.867187-.945312-42.109374-1.957032-30.109376-3.503906-53.894532 15.199218-80.414063 13.519532-19.167969 33.605469-30.375 58.089844-32.417969 4.128906-.34375 7.195313-3.96875 6.851563-8.097656s-3.972657-7.191406-8.097657-6.851562c-29.050781 2.421874-52.945312 15.8125-69.101562 38.71875-21.757812 30.851562-19.890625 59.597656-17.910156 90.035156.832031 12.808594 1.695312 26.050781.933594 40.34375-1.3125 24.710937.050781 41.984375 4.285156 54.359375 4.722656 13.789062 12.894531 20.960937 20.265625 26.160156 9.082031 6.40625 18.074219 10.375 30.5625 10.375 12.847656 0 29.390625-4.203125 53.527343-14.273437 13.207032-5.511719 25.96875-9.144532 38.316407-12.660157 29.332031-8.347656 57.039062-16.238281 78.800781-47.085937 18.359375-26.035156 21.769531-56.753906 9.863281-88.828125-4.148437-11.183594-10.074219-22.132813-17.386719-32.371094 1.335938-.167969 2.667969-.367187 3.996094-.59375 22.890625-3.957031 42.671875-16.214844 54.269532-33.632813 2.210937-3.316406 1.4375-7.78125-1.757813-10.164062-16.765625-12.515625-39.511719-17.421875-62.40625-13.464844-6.886719 1.1875-13.523437 3.148438-19.769531 5.796875 9.628906-13.402343 28.296875-33.589843 61.472656-50.730469 20.917969-10.804687 35.515625-27.964843 42.21875-49.621093 3.714844-12.003907 4.785156-25.058594 3.261719-38.25 7.765625 8.75 17.199219 20.8125 26.578125 36.332031 18.289062 30.261719 39.722656 79.671875 43.867187 148.902344-2.789062-3.855469-5.917969-7.527344-9.359375-10.96875-16.425781-16.429688-37.839844-25.523438-58.761718-24.96875-3.984376.109375-7.1875 3.3125-7.292969 7.296875-.5625 20.917969 8.539062 42.335937 24.964843 58.761719 1.710938 1.710937 3.488282 3.34375 5.316407 4.902343-9.769531 3.855469-18.976563 8.652344-27.242188 14.320313-28.21875 19.347656-43.136719 46.414062-43.136719 78.273437 0 37.753907 18.097657 60.167969 37.257813 83.898438 8.0625 9.988281 16.398437 20.3125 24.015625 32.429687 13.171875 20.949219 24.238281 34.28125 34.832031 41.953125 11.804688 8.546875 22.621094 9.699219 31.636719 9.699219 22.550781 0 39.023438-7.988281 66.472656-51.652344 7.613282-12.117187 15.953125-22.441406 24.015625-32.429687 19.160157-23.730469 37.253907-46.144531 37.253907-83.898438 0-18.941406-5.304688-36.242187-15.761719-51.425781zm-353.058594-141.546875c-2.765625-16.011719-.371094-31.804687 6.582031-44.460937 10.792969 9.589843 18.351563 23.660156 21.117188 39.675781 1.785156 10.324219 1.417968 20.644531-1.03125 30.199219-7.175782-4.023438-14.714844-7.511719-22.445313-10.390626-1.902343-4.785156-3.324219-9.828124-4.222656-15.023437zm73.769531 27.703125c16.011719-2.765625 31.804688-.367188 44.460938 6.582031-9.589844 10.792969-23.660156 18.351563-39.671875 21.121094-4.316407.746094-8.664063 1.09375-12.960938 1.089844-5.921875-6.523438-12.421875-12.589844-19.371093-18.050781 8.058593-5.3125 17.46875-9 27.542968-10.742188zm191.484375 37.289062c11.492188-11.492187 25.777344-18.632812 40.128907-20.246093-1.617188 14.347656-8.757813 28.632812-20.25 40.125-3.117188 3.117187-6.492188 5.929687-10.035157 8.414062-8.609375-1.929687-17.402343-3.164062-26.164062-3.632812 3.523437-8.988281 9.089843-17.425781 16.320312-24.660157zm-76.25 19.878907c-11.488281-11.492188-18.632812-25.777344-20.25-40.125 14.351563 1.613281 28.636719 8.757812 40.128907 20.246093 7.40625 7.40625 13.050781 16.046876 16.554687 25.265626-8.242187.84375-16.417969 2.324218-24.375 4.421874-4.296875-2.800781-8.34375-6.09375-12.058594-9.808593zm0 0"/><path d="m392.25 336.160156c0-4.140625-3.359375-7.5-7.5-7.5-4.144531 0-7.5 3.359375-7.5 7.5v8.015625c0 4.144531 3.355469 7.5 7.5 7.5 4.140625 0 7.5-3.355469 7.5-7.5zm0 0"/><path d="m457.410156 336.160156v8.015625c0 4.144531 3.359375 7.5 7.5 7.5s7.5-3.355469 7.5-7.5v-8.015625c0-4.140625-3.359375-7.5-7.5-7.5s-7.5 3.359375-7.5 7.5zm0 0"/><path d="m297.085938 336.160156v8.015625c0 4.144531 3.359374 7.5 7.5 7.5 4.144531 0 7.5-3.355469 7.5-7.5v-8.015625c0-4.140625-3.355469-7.5-7.5-7.5-4.140626 0-7.5 3.359375-7.5 7.5zm0 0"/><path d="m352.167969 336.160156c0-4.140625-3.359375-7.5-7.5-7.5s-7.5 3.359375-7.5 7.5v8.015625c0 4.144531 3.359375 7.5 7.5 7.5s7.5-3.355469 7.5-7.5zm0 0"/><path d="m432.328125 336.160156c0-4.140625-3.355469-7.5-7.5-7.5-4.140625 0-7.5 3.359375-7.5 7.5v8.015625c0 4.144531 3.359375 7.5 7.5 7.5 4.144531 0 7.5-3.355469 7.5-7.5zm0 0"/><path d="m384.75 408.824219c-4.144531 0-7.5 3.355469-7.5 7.5v8.015625c0 4.140625 3.355469 7.5 7.5 7.5 4.140625 0 7.5-3.359375 7.5-7.5v-8.015625c0-4.144531-3.359375-7.5-7.5-7.5zm0 0"/><path d="m344.667969 408.824219c-4.140625 0-7.5 3.355469-7.5 7.5v8.015625c0 4.140625 3.359375 7.5 7.5 7.5s7.5-3.359375 7.5-7.5v-8.015625c0-4.144531-3.359375-7.5-7.5-7.5zm0 0"/><path d="m424.828125 408.824219c-4.140625 0-7.5 3.355469-7.5 7.5v8.015625c0 4.140625 3.359375 7.5 7.5 7.5 4.144531 0 7.5-3.359375 7.5-7.5v-8.015625c0-4.144531-3.355469-7.5-7.5-7.5zm0 0"/><path d="m412.289062 376.242188c0-4.140626-3.359374-7.5-7.5-7.5-4.140624 0-7.5 3.359374-7.5 7.5v8.015624c0 4.144532 3.359376 7.5 7.5 7.5 4.140626 0 7.5-3.355468 7.5-7.5zm0 0"/><path d="m324.628906 368.742188c-4.144531 0-7.5 3.359374-7.5 7.5v8.015624c0 4.144532 3.355469 7.5 7.5 7.5 4.140625 0 7.5-3.355468 7.5-7.5v-8.015624c0-4.144532-3.359375-7.5-7.5-7.5zm0 0"/><path d="m372.207031 376.242188c0-4.140626-3.355469-7.5-7.5-7.5-4.140625 0-7.5 3.359374-7.5 7.5v8.015624c0 4.144532 3.359375 7.5 7.5 7.5 4.144531 0 7.5-3.355468 7.5-7.5zm0 0"/><path d="m444.871094 368.742188c-4.144532 0-7.5 3.359374-7.5 7.5v8.015624c0 4.144532 3.355468 7.5 7.5 7.5 4.140625 0 7.5-3.355468 7.5-7.5v-8.015624c0-4.144532-3.359375-7.5-7.5-7.5zm0 0"/><path d="m412.289062 296.078125c0-4.140625-3.359374-7.5-7.5-7.5-4.140624 0-7.5 3.359375-7.5 7.5v8.019531c0 4.140625 3.359376 7.5 7.5 7.5 4.140626 0 7.5-3.359375 7.5-7.5zm0 0"/><path d="m332.128906 296.078125c0-4.140625-3.359375-7.5-7.5-7.5-4.144531 0-7.5 3.359375-7.5 7.5v8.019531c0 4.140625 3.355469 7.5 7.5 7.5 4.140625 0 7.5-3.359375 7.5-7.5zm0 0"/><path d="m372.207031 296.078125c0-4.140625-3.355469-7.5-7.5-7.5-4.140625 0-7.5 3.359375-7.5 7.5v8.019531c0 4.140625 3.359375 7.5 7.5 7.5 4.144531 0 7.5-3.359375 7.5-7.5zm0 0"/><path d="m452.371094 296.078125c0-4.140625-3.359375-7.5-7.5-7.5-4.144532 0-7.5 3.359375-7.5 7.5v8.019531c0 4.140625 3.355468 7.5 7.5 7.5 4.140625 0 7.5-3.359375 7.5-7.5zm0 0"/><path d="m404.789062 448.902344c-4.140624 0-7.5 3.359375-7.5 7.5v8.015625c0 4.144531 3.359376 7.5 7.5 7.5 4.140626 0 7.5-3.355469 7.5-7.5v-8.015625c0-4.140625-3.359374-7.5-7.5-7.5zm0 0"/><path d="m364.707031 448.902344c-4.140625 0-7.5 3.359375-7.5 7.5v8.015625c0 4.144531 3.359375 7.5 7.5 7.5 4.144531 0 7.5-3.355469 7.5-7.5v-8.015625c0-4.140625-3.355469-7.5-7.5-7.5zm0 0"/><path d="m117.703125 265.207031c-2.386719 3.382813-1.582031 8.0625 1.804687 10.449219 1.3125.929688 2.820313 1.375 4.316407 1.375 2.355469 0 4.675781-1.109375 6.132812-3.179688l4.621094-6.550781c2.386719-3.386719 1.578125-8.0625-1.804687-10.453125-3.386719-2.386718-8.066407-1.578125-10.453126 1.808594zm0 0"/><path d="m183.207031 311.40625c-2.386719 3.386719-1.578125 8.066406 1.808594 10.453125 1.3125.925781 2.820313 1.371094 4.316406 1.371094 2.355469 0 4.671875-1.105469 6.132813-3.175781l4.621094-6.550782c2.386718-3.386718 1.578124-8.066406-1.804688-10.453125-3.386719-2.386719-8.066406-1.578125-10.453125 1.804688zm0 0"/><path d="m54 229.457031c1.3125.925781 2.820312 1.371094 4.316406 1.371094 2.355469 0 4.671875-1.105469 6.132813-3.179687l4.621093-6.546876c2.386719-3.386718 1.578126-8.066406-1.804687-10.453124-3.386719-2.386719-8.0625-1.578126-10.453125 1.804687l-4.621094 6.550781c-2.382812 3.386719-1.574218 8.0625 1.808594 10.453125zm0 0"/><path d="m97.207031 250.75 4.617188-6.550781c2.386719-3.382813 1.582031-8.0625-1.804688-10.453125-3.386719-2.386719-8.066406-1.578125-10.453125 1.808594l-4.617187 6.550781c-2.386719 3.382812-1.582031 8.0625 1.804687 10.453125 1.3125.925781 2.820313 1.371094 4.316406 1.371094 2.355469 0 4.675782-1.109376 6.136719-3.179688zm0 0"/><path d="m150.453125 288.308594c-2.386719 3.382812-1.578125 8.0625 1.808594 10.449218 1.3125.929688 2.820312 1.371094 4.316406 1.371094 2.355469 0 4.671875-1.105468 6.132813-3.175781l4.621093-6.550781c2.386719-3.382813 1.578125-8.0625-1.804687-10.453125-3.382813-2.386719-8.066406-1.578125-10.453125 1.808593zm0 0"/><path d="m83.757812 339.359375 4.621094-6.550781c2.386719-3.386719 1.578125-8.066406-1.808594-10.453125-3.382812-2.386719-8.0625-1.578125-10.449218 1.804687l-4.621094 6.550782c-2.386719 3.386718-1.578125 8.066406 1.804688 10.453124 1.316406.929688 2.824218 1.371094 4.316406 1.371094 2.355468 0 4.675781-1.105468 6.136718-3.175781zm0 0"/><path d="m51.003906 316.257812 4.621094-6.550781c2.386719-3.386719 1.578125-8.0625-1.808594-10.453125-3.382812-2.386718-8.0625-1.578125-10.449218 1.808594l-4.621094 6.550781c-2.386719 3.382813-1.578125 8.0625 1.804687 10.449219 1.316407.929688 2.824219 1.375 4.316407 1.375 2.355468 0 4.675781-1.109375 6.136718-3.179688zm0 0"/><path d="m106.058594 364.265625c1.3125.925781 2.820312 1.371094 4.316406 1.371094 2.355469 0 4.671875-1.105469 6.132812-3.175781l4.621094-6.550782c2.390625-3.386718 1.582032-8.066406-1.804687-10.453125-3.382813-2.386719-8.0625-1.578125-10.453125 1.804688l-4.621094 6.550781c-2.382812 3.386719-1.578125 8.066406 1.808594 10.453125zm0 0"/><path d="m110.976562 309.511719c-2.386718 3.382812-1.578124 8.0625 1.804688 10.449219 1.316406.929687 2.824219 1.375 4.316406 1.375 2.355469 0 4.675782-1.105469 6.136719-3.179688l4.621094-6.550781c2.386719-3.382813 1.578125-8.0625-1.808594-10.453125-3.382813-2.386719-8.0625-1.578125-10.449219 1.808594zm0 0"/><path d="m57.726562 271.953125 4.621094-6.550781c2.386719-3.382813 1.578125-8.0625-1.804687-10.453125-3.386719-2.386719-8.066407-1.578125-10.453125 1.808593l-4.621094 6.550782c-2.386719 3.382812-1.578125 8.0625 1.808594 10.453125 1.3125.925781 2.820312 1.371093 4.3125 1.371093 2.359375 0 4.675781-1.109374 6.136718-3.179687zm0 0"/><path d="m90.480469 295.054688 4.621093-6.550782c2.386719-3.386718 1.578126-8.0625-1.804687-10.453125-3.386719-2.386719-8.066406-1.578125-10.453125 1.808594l-4.621094 6.550781c-2.386718 3.382813-1.578125 8.0625 1.808594 10.449219 1.3125.929687 2.820312 1.375 4.316406 1.375 2.355469 0 4.671875-1.109375 6.132813-3.179687zm0 0"/><path d="m143.730469 332.609375c-2.386719 3.386719-1.578125 8.066406 1.804687 10.453125 1.316406.925781 2.824219 1.371094 4.316406 1.371094 2.355469 0 4.675782-1.105469 6.136719-3.175782l4.621094-6.550781c2.386719-3.386719 1.578125-8.0625-1.808594-10.453125-3.382812-2.386718-8.0625-1.578125-10.449219 1.808594zm0 0"/><path d="m158.984375 254.453125c1.316406.929687 2.824219 1.375 4.316406 1.375 2.355469 0 4.675781-1.105469 6.136719-3.179687l4.621094-6.550782c2.386718-3.386718 1.578125-8.0625-1.808594-10.453125-3.382812-2.386719-8.0625-1.578125-10.453125 1.808594l-4.617187 6.550781c-2.386719 3.382813-1.578126 8.0625 1.804687 10.449219zm0 0"/><path d="m91.671875 197.800781c-2.386719 3.386719-1.578125 8.0625 1.804687 10.453125 1.3125.925782 2.824219 1.371094 4.316407 1.371094 2.355469 0 4.675781-1.105469 6.136719-3.179688l4.621093-6.550781c2.386719-3.382812 1.578125-8.0625-1.808593-10.449219-3.382813-2.386718-8.0625-1.582031-10.449219 1.804688zm0 0"/><path d="m139.496094 212.542969c-3.382813-2.386719-8.0625-1.578125-10.453125 1.808593l-4.617188 6.550782c-2.386719 3.382812-1.578125 8.0625 1.804688 10.453125 1.3125.925781 2.820312 1.371093 4.316406 1.371093 2.355469 0 4.675781-1.105468 6.136719-3.179687l4.617187-6.550781c2.390625-3.382813 1.582031-8.0625-1.804687-10.453125zm0 0"/><path d="m191.738281 277.554688c1.3125.925781 2.824219 1.371093 4.316407 1.371093 2.355468 0 4.675781-1.105469 6.136718-3.175781l4.617188-6.550781c2.386718-3.386719 1.582031-8.066407-1.804688-10.453125-3.386718-2.386719-8.066406-1.578125-10.453125 1.804687l-4.617187 6.550781c-2.386719 3.386719-1.578125 8.066407 1.804687 10.453126zm0 0"/><path d="m66.582031 385.46875c1.3125.929688 2.820313 1.375 4.316407 1.375 2.355468 0 4.675781-1.109375 6.132812-3.179688l4.621094-6.550781c2.386718-3.386719 1.578125-8.066406-1.804688-10.453125-3.386718-2.386718-8.066406-1.578125-10.453125 1.808594l-4.621093 6.550781c-2.382813 3.382813-1.578126 8.0625 1.808593 10.449219zm0 0"/><path d="m36.640625 345.367188-4.617187 6.550781c-2.390626 3.382812-1.582032 8.0625 1.804687 10.449219 1.3125.929687 2.820313 1.375 4.316406 1.375 2.355469 0 4.675781-1.105469 6.132813-3.179688l4.621094-6.550781c2.386718-3.386719 1.578124-8.0625-1.804688-10.453125-3.386719-2.386719-8.066406-1.578125-10.453125 1.808594zm0 0"/></svg>