<svg id="Layer_1" height="512" viewBox="0 0 64 64" width="512" xmlns="http://www.w3.org/2000/svg" data-name="Layer 1"><path d="m51.99 31.51-1.03 19.7a7.2584 7.2584 0 0 1 -6.09 6.66 6.39 6.39 0 0 1 -.98.11 2.5487 2.5487 0 0 1 -.39.02 7.6675 7.6675 0 0 1 -4.44-1.41 8.1406 8.1406 0 0 0 1.72-4.58l.99-19.08h.01a.6373.6373 0 0 1 .07.02c1.64-5 .13-7.59.13-7.59l2.94-1.34a1.3552 1.3552 0 0 1 .2.02 7.568 7.568 0 0 1 1.36.22 7.1854 7.1854 0 0 1 5.51 7.25z" fill="#faa629"/><path d="m26.14 22.2827a1 1 0 0 1 -.9677-.7524l-2.561-10.0132a2.0148 2.0148 0 0 0 -1.9541-1.5171h-.6572a2.0188 2.0188 0 0 0 -2.0166 2.0166v.9668a2.0188 2.0188 0 0 0 2.0166 2.0166 1 1 0 0 1 0 2 4.0211 4.0211 0 0 1 -4.0166-4.0166v-.9668a4.0211 4.0211 0 0 1 4.0166-4.0166h.6572a4.0135 4.0135 0 0 1 3.8916 3.0225l2.5606 10.0127a1 1 0 0 1 -.97 1.2475z" fill="#5e4137"/><path d="m24.94 56.59a7.6675 7.6675 0 0 1 -4.44 1.41 2.5487 2.5487 0 0 1 -.39-.02 7.3054 7.3054 0 0 1 -7.07-6.77l-1.03-19.7a7.2577 7.2577 0 0 1 6.88-7.48 5.6329 5.6329 0 0 1 .58-.03h2.06a8.2946 8.2946 0 0 1 1.67.18 8.0728 8.0728 0 0 0 -1.19 4.65l1.21 23.18a8.1406 8.1406 0 0 0 1.72 4.58z" fill="#fcb64d"/><path d="m24.94 56.59a7.6675 7.6675 0 0 1 -4.44 1.41 2.5487 2.5487 0 0 1 -.39-.02 8.204 8.204 0 0 1 -2.03-4.97l-1.21-23.18a8.1629 8.1629 0 0 1 2.02-5.8 5.6329 5.6329 0 0 1 .58-.03h2.06a8.2946 8.2946 0 0 1 1.67.18 8.0728 8.0728 0 0 0 -1.19 4.65l1.21 23.18a8.1406 8.1406 0 0 0 1.72 4.58z" fill="#faa629"/><path d="m47.13 29.83-1.21 23.18a8.204 8.204 0 0 1 -2.03 4.97 2.5487 2.5487 0 0 1 -.39.02 7.6675 7.6675 0 0 1 -4.44-1.41 8.1406 8.1406 0 0 0 1.72-4.58l1-19.08a.6373.6373 0 0 1 .07.02c1.64-5 .13-7.59.13-7.59l2.94-1.34a1.21 1.21 0 0 1 .19.01l.01.01a8.1756 8.1756 0 0 1 2.01 5.79z" fill="#fcb64d"/><path d="m19.4238 54.8467a.9967.9967 0 0 1 -.2822-.0415 4.2275 4.2275 0 0 1 -3.1074-3.7534 1.0008 1.0008 0 0 1 .9463-1.0508.9807.9807 0 0 1 1.0517.9463 2.2288 2.2288 0 0 0 1.6748 1.94 1 1 0 0 1 -.2832 1.9595z" fill="#f78c1e"/><path d="m41.98 25.36s1.51 2.59-.13 7.59c-5.17-.96-6.73-3.52-6.73-3.52l-3.2 2.41c-2.23-5.62 2.27-11.79 2.27-11.79s7.53-.98 11.44 3.64z" fill="#42a047"/><path d="m41.85 32.95c-5.17-.96-6.73-3.52-6.73-3.52l-3.2 2.41c-2.23-5.62 2.27-11.79 2.27-11.79z" fill="#378e43"/><path d="m38 20.08v.01a17.4931 17.4931 0 0 0 -3.81-.04.0349.0349 0 0 0 -.01.02 7.77 7.77 0 0 0 -.97-.07h-2.42a9.1033 9.1033 0 0 0 -4.65 1.28 5.9811 5.9811 0 0 1 3.86-6.93v-10.35l4.22 1.81 2.78 1.19-1.79 2.99a8.4492 8.4492 0 0 0 -1.21 4.36 5.9945 5.9945 0 0 1 4 5.73z" fill="#6d4d42"/><path d="m38 20.08v.01a17.4931 17.4931 0 0 0 -3.81-.04.0349.0349 0 0 0 -.01.02 7.77 7.77 0 0 0 -.97-.07h-1.33v-7.36a17.4123 17.4123 0 0 1 2.34-6.83l2.78 1.19-1.79 2.99a8.4492 8.4492 0 0 0 -1.21 4.36 5.9945 5.9945 0 0 1 4 5.73z" fill="#5e4137"/><path d="m47.9971 32.2964q-.0264 0-.0528-.0015a1.0006 1.0006 0 0 1 -.9472-1.0508 1.8953 1.8953 0 0 0 -.5205-1.4067 2.4939 2.4939 0 0 0 -.4268-.3735 1 1 0 1 1 1.1348-1.6465 4.4512 4.4512 0 0 1 .7754.6792 3.8967 3.8967 0 0 1 1.0351 2.852 1.0006 1.0006 0 0 1 -.998.9478z" fill="#f47c20"/><path d="m41.77 32.93-.99 19.08a8.6345 8.6345 0 0 1 -8.78 7.99 8.6345 8.6345 0 0 1 -8.78-7.99l-1.21-23.18a8.5853 8.5853 0 0 1 8.78-8.83h2.42c.33 0 .66.02.98.05a17.5706 17.5706 0 0 0 -2.19 4.41 10.7207 10.7207 0 0 0 -.08 7.38l.08-.06 3.12-2.35s1.55 2.54 6.65 3.5z" fill="#fcb64d"/><path d="m34.19 20.05a17.5706 17.5706 0 0 0 -2.19 4.41v-4.46h1.21c.33 0 .66.02.98.05z" fill="#faa629"/><path d="m41.77 32.93-.99 19.08a8.6345 8.6345 0 0 1 -8.78 7.99v-28.22l3.12-2.35s1.55 2.54 6.65 3.5z" fill="#faa629"/><path d="m26.0039 29.6211a1.0006 1.0006 0 0 1 -.998-.9478 5.17 5.17 0 0 1 1.4511-3.8505 1 1 0 1 1 1.4512 1.3759 3.183 3.183 0 0 0 -.9043 2.37 1.0007 1.0007 0 0 1 -.9473 1.0508c-.0175.0011-.0351.0016-.0527.0016z" fill="#f78c1e"/><path d="m32 57a1 1 0 0 1 0-2 3.6316 3.6316 0 0 0 3.7842-3.2515l.83-15.8969a1 1 0 0 1 1.998.1045l-.83 15.8969a5.6272 5.6272 0 0 1 -5.7822 5.147z" fill="#f47c20"/><path d="m19.707 52.8872a2.2288 2.2288 0 0 1 -1.6748-1.94.9807.9807 0 0 0 -1.0517-.9463 1.0008 1.0008 0 0 0 -.9463 1.0508 4.2275 4.2275 0 0 0 3.1074 3.7534 1 1 0 0 0 .5654-1.9179z"/><path d="m46.05 29.4639a2.0439 2.0439 0 0 1 .9473 1.78 1.0018 1.0018 0 0 0 1 1.0523c1.96-.2156.5968-3.3082-.0372-3.8-.5168-.6412-1.5436-1.3092-2.166-.4239a1 1 0 0 0 .2559 1.3916z"/><path d="m22.7229 23.0939a24.5612 24.5612 0 0 0 -3.2522-.0939c-4.6038-.0966-8.7965 3.9275-8.46 8.5578l1.0293 19.7029c.1457 5.99 7.5276 9.7387 12.6861 6.622 3.5074 4.0912 11.0407 4.0907 14.5478 0 5.16 3.1119 12.54-.6277 12.6859-6.6221l1.0295-19.703a8.2273 8.2273 0 0 0 -6.4966-8.3228c-1.8966-2.5831-5.0684-3.6183-7.5465-4.0352a6.99 6.99 0 0 0 -3.9179-5.5048 7.502 7.502 0 0 1 1.0371-3.1943l1.792-2.9859a1.0064 1.0064 0 0 0 -.4639-1.4335l-7-3a.9992.9992 0 0 0 -1.3935.9189v9.6812a7.0022 7.0022 0 0 0 -3.0473 2.8309l-1.4039-5.49c-1.1441-4.5548-8.5951-3.8229-8.5654.9942-.2876 2.5948 1.2738 4.9472 4.0166 4.9837a1 1 0 0 0 0-2 2.0187 2.0187 0 0 1 -2.0165-2.0166v-.9668a2.0188 2.0188 0 0 1 2.0165-2.0166h.6572a2.0148 2.0148 0 0 1 1.9541 1.5171l2.3825 9.3168a9.1967 9.1967 0 0 0 -2.2709 2.26zm-2.2229 33.9061a6.33 6.33 0 0 1 -6.4619-5.8438l-1.0293-19.7031a6.3322 6.3322 0 0 1 6.462-6.4531h2.0585c.0459 0 .0919 0 .1387.0015a9.1128 9.1128 0 0 0 -.6563 3.8808l1.2119 23.18a9.4146 9.4146 0 0 0 1.2936 4.2237 6.66 6.66 0 0 1 -3.0172.714zm11.5 2a7.6416 7.6416 0 0 1 -7.7783-7.0425l-1.2117-23.1795a7.37 7.37 0 0 1 1.0807-4.1537c1.7664-2.8933 5.1135-3.8709 8.3393-3.6243-1.6566 3.0116-2.7184 6.7614-1.7745 10.1925.1928.5857.2859 1.4248.9913 1.6122a.9932.9932 0 0 0 .8711-.1631l2.457-1.8467a12.4153 12.4153 0 0 0 5.7563 2.9359l-.9526 18.2267a7.6415 7.6415 0 0 1 -7.7786 7.0425zm11.9041-35.6178-2.3367 1.0646a1.0177 1.0177 0 0 0 -.4561 1.4018 9.4172 9.4172 0 0 1 .0423 5.9272 13.4538 13.4538 0 0 1 -2.0175-.6527l-.0024-.001a9.5436 9.5436 0 0 1 -2.16-1.2306h-.0005a4.7568 4.7568 0 0 1 -1.0009-.99 1.0234 1.0234 0 0 0 -1.4493-.2695l-2.0591 1.548c-.6-3.208.6144-6.48 2.2924-9.174 2.6916-.1834 6.6137.2364 9.1478 2.3762zm5.5412 3.7745a5.9158 5.9158 0 0 1 1.5459 4.2964l-1.0293 19.7031c-.1068 4.4377-5.5472 7.2557-9.4791 5.13a9.4133 9.4133 0 0 0 1.2936-4.2237l.9762-18.6782a12.5242 12.5242 0 0 0 .4994-7.5064l1.8522-.8436a6.5308 6.5308 0 0 1 4.3411 2.1224zm-19.1113-11.8652a1 1 0 0 0 .666-.9429v-8.832l4.5527 1.9512c-1.3089 2.037-2.6565 4.3822-2.5527 6.8809a1 1 0 0 0 .6659.9428 4.9993 4.9993 0 0 1 3.229 3.6934 17.5563 17.5563 0 0 0 -2.7535.0658c-2.3036-.1045-4.9705-.2284-7.1347.6866a5.0086 5.0086 0 0 1 3.3273-4.4458z"/><path d="m26.457 24.8228c-1.01.8916-2.57 4.6316-.4 4.7969a1.0008 1.0008 0 0 0 .9473-1.0509 3.183 3.183 0 0 1 .9043-2.37 1 1 0 0 0 -1.4516-1.376z"/><path d="m37.665 34.9053a1.0033 1.0033 0 0 0 -1.0507.9463l-.83 15.8969a3.6316 3.6316 0 0 1 -3.7843 3.2515 1 1 0 0 0 0 2 5.6272 5.6272 0 0 0 5.7822-5.147l.83-15.8969a1.0007 1.0007 0 0 0 -.9472-1.0508z"/></svg>