<svg height="511pt" viewBox="-72 0 511 511.99905" width="511pt" xmlns="http://www.w3.org/2000/svg"><path d="m173.128906 63.644531c-64.355468-1.042969-156.292968 23.914063-164.464844 132.046875-8.171874 108.136719 62.234376 163.253906 99.085938 233.945313 26.5625 50.949219 46.992188 74.863281 87.851562 74.863281 48.011719 0 138.445313-97.859375 132.800782-249.542969-5.109375-137.246093-81.734375-190.125-155.273438-191.3125zm0 0" fill="#ffc369"/><path d="m181.121094 63.996094c29.382812 24.546875 47.984375 60.15625 67.375 97.433594 21.074218 40.511718 42.839844 82.226562 80.015625 114.433593.140625-6.859375.152343-13.804687-.109375-20.90625-4.921875-132.28125-76.28125-186.167969-147.28125-190.960937zm0 0" fill="#ffaa5f"/><path d="m175.976562 425.914062c-46.722656-88.25-139.410156-144.363281-142.917968-258.09375-1.144532-37.070312 8.457031-55.605468 8.457031-55.605468-17.675781 19.765625-30.082031 46.832031-32.851563 83.476562-8.171874 108.136719 62.234376 163.253906 99.085938 233.945313 26.5625 50.949219 46.992188 74.863281 87.851562 74.863281 10.402344 0 22.800782-4.609375 35.78125-13.351562-19.464843-8.191407-37.832031-32.035157-55.40625-65.234376zm0 0" fill="#ffaa5f"/><path d="m361.003906 268.929688c.097656-47.390626-11.773437-230.40625-200.6875-237.382813 96.988282 46.558594 100.089844 175.742187 191.074219 242.128906 3.992187 2.914063 9.601563.191407 9.613281-4.746093zm0 0" fill="#96cd82"/><path d="m351.390625 273.675781c2.3125 1.6875 5.144531 1.441407 7.140625.011719-13.085938-37.261719-61.441406-226.109375-198.214844-242.140625 96.988282 46.558594 100.089844 175.742187 191.074219 242.128906zm0 0" fill="#7dbe81"/><path d="m363.753906 211.066406c-10.734375-65.394531-36.273437-104.992187-55.804687-126.6875-33.054688-36.722656-78.269531-56.917968-134.445313-60.089844-2.421875-.234374-4.105468-.257812-4.953125-.246093-4.554687-12.386719-9.628906-20.128907-10.011719-20.703125-2.296874-3.445313-6.953124-4.375-10.398437-2.078125-3.449219 2.296875-4.378906 6.953125-2.082031 10.398437.136718.203125 12.386718 18.878906 14.46875 44.613282-4.453125.160156-8.894532.441406-13.289063.839843-4.125.378907-7.164062 4.027344-6.785156 8.152344.375 4.125 4.019531 7.164063 8.148437 6.785156 8.050782-.734375 16.261719-1.039062 24.40625-.910156 13.636719.222656 26.953126 2.3125 39.628907 6.183594 18.792969 22.984375 32.808593 51.042969 47.296875 80.058593 17.0625 34.164063 34.542968 69.167969 60.980468 98.121094 1.628907 44.632813-5.011718 87.09375-19.742187 126.195313-15.683594 41.640625-36.375 68.441406-50.972656 83.59375-19.128907 19.855469-39.539063 31.707031-54.597657 31.707031-33.929687 0-52.902343-16.546875-81.199218-70.828125-10.457032-20.054687-23.722656-39.128906-36.554688-57.574219-33.140625-47.636718-67.40625-96.894531-61.707031-172.339844 5.980469-79.101562 58.609375-108.421874 101.707031-119.089843 4.019532-.996094 6.472656-5.0625 5.476563-9.085938-.996094-4.019531-5.0625-6.472656-9.082031-5.476562-30.507813 7.550781-55.519532 21.121093-74.347657 40.328125-22.824219 23.28125-35.847656 54.300781-38.710937 92.195312-6.105469 80.765625 29.710937 132.246094 64.347656 182.035156 13.140625 18.890626 25.554688 36.734376 35.570312 55.941407 27.277344 52.324219 49.382813 78.894531 94.5 78.894531 19.335938 0 43.171876-13.230469 65.398438-36.304688 22.335938-23.183593 41.082031-53.855468 54.210938-88.710937 13.707031-36.390625 20.71875-75.5 20.925781-116.464844 6.316406 5.601563 13.09375 10.882813 20.421875 15.765625 1.253906.839844 2.703125 1.261719 4.160156 1.261719 1.132812 0 2.269531-.253906 3.316406-.773437 2.402344-1.183594 3.988282-3.554688 4.167969-6.226563.082031-1.230469 1.9375-30.597656-4.449219-69.480469zm-189.894531-167.933594c7.261719 4.347657 13.910156 9.277344 20.074219 14.691407-6.046875-.878907-12.179688-1.414063-18.371094-1.601563-.320312-4.570312-.914062-8.949218-1.703125-13.089844zm99.496094 107.546876c-17.34375-34.730469-35.105469-70.289063-62.292969-97.296876 10.453125 6.132813 22.652344 15.046876 35.738281 28.011719 1.460938 1.449219 3.371094 2.175781 5.277344 2.175781 1.933594 0 3.863281-.742187 5.328125-2.222656 2.917969-2.941406 2.894531-7.691406-.046875-10.605468-7.023437-6.960938-13.851563-12.882813-20.402344-17.925782 23.226563 9.277344 43.21875 23.144532 59.789063 41.535156 32.902344 36.515626 46.515625 84.730469 52.140625 118.746094.832031 5.019532 1.511719 9.875 2.074219 14.539063-20.238282-52.628907-43.5-96.035157-69.394532-129.398438-2.539062-3.273437-7.25-3.867187-10.523437-1.328125-3.269531 2.539063-3.863281 7.25-1.328125 10.523438 29.246094 37.679687 55.113281 88.902344 77.011718 152.410156-33.652343-29.628906-53.796874-69.964844-73.371093-109.164062zm0 0"/></svg>