<svg id="Layer_1" height="512" viewBox="0 0 64 64" width="512" xmlns="http://www.w3.org/2000/svg" data-name="Layer 1"><path d="m51.18 19.6c-5.62 5.62-17.8 11.02-17.8 11.02s5.4-12.18 11.02-17.8c5.62-5.61 7.45-4.41 9.32-2.54s3.07 3.7-2.54 9.32z" fill="#81c785"/><path d="m51.18 19.6c-5.62 5.62-17.8 11.02-17.8 11.02l20.34-20.34c1.87 1.87 3.07 3.7-2.54 9.32z" fill="#66bb6a"/><path d="m35.08 52.65c-12.71 12.71-28.81 5.08-28.81 5.08a28.9 28.9 0 0 1 -2.23-12.68 25.5908 25.5908 0 0 1 .27-2.56 23.924 23.924 0 0 1 5.54-11.96c.43-.49.88-.98 1.36-1.47l.14-.14c6.55-6.55 15.48-4.86 22.03 1.7 6.56 6.55 8.25 15.48 1.7 22.03z" fill="#f06392"/><path d="m38.78 46.46a11.7432 11.7432 0 0 1 -.76 2.07 14.5225 14.5225 0 0 1 -2.94 4.12 25.9705 25.9705 0 0 1 -5.96 4.49c-.64.34-1.27.64-1.91.92-10.63 4.56-20.94-.33-20.94-.33l27.11-27.11c4.66 4.65 6.86 10.5 5.4 15.84z" fill="#ec417a"/><path d="m53.42 28.66c-5.85 2.29-15.4 2.81-19.13 2.92-.23-.25-.46-.5-.7-.75.17-.14.35-.31.56-.49.06-.05.13-.11.2-.17 2.98-1.39 12.16-5.91 16.83-10.57.17-.17.31-.33.47-.49 5.86-1.95 6.95-.23 7.84 2.03.96 2.47 1.33 4.63-6.07 7.52z" fill="#81c785"/><path d="m53.42 28.66c-5.85 2.29-15.4 2.81-19.13 2.92-.23-.25-.46-.5-.7-.75.17-.14.35-.31.56-.49l25.34-9.2c.96 2.47 1.33 4.63-6.07 7.52z" fill="#66bb6a"/><path d="m44.89 12.35c-.16.16-.32.3-.49.47-4.66 4.67-9.18 13.85-10.57 16.83-.06.07-.12.14-.17.2-.18.21-.35.39-.49.56-.25-.24-.5-.47-.75-.7.11-3.73.63-13.28 2.92-19.13 2.89-7.4 5.05-7.03 7.52-6.07 2.26.89 3.98 1.98 2.03 7.84z" fill="#81c785"/><path d="m44.89 12.35c-.16.16-.32.3-.49.47-4.66 4.67-9.18 13.85-10.57 16.83-.06.07-.12.14-.17.2l9.2-25.34c2.26.89 3.98 1.98 2.03 7.84z" fill="#66bb6a"/><path d="m38.78 46.46a11.7432 11.7432 0 0 1 -.76 2.07l-7.04-7.04a.9959.9959 0 0 1 0-1.41 1.008 1.008 0 0 1 1.42 0z" fill="#c21e5c"/><path d="m18.84 38.1a.982.982 0 0 1 -.71.29.9984.9984 0 0 1 -.71-.29l-7.57-7.57c.43-.49.88-.98 1.36-1.47l7.63 7.63a.9959.9959 0 0 1 0 1.41z" fill="#d81b61"/><path d="m29.12 57.14c-.64.34-1.27.64-1.91.92l-6.4-6.4a1.0006 1.0006 0 1 1 1.42-1.41z" fill="#c21e5c"/><path d="m8.67 48.27a1.0019 1.0019 0 0 1 -1.41 0l-3.22-3.22a25.5908 25.5908 0 0 1 .27-2.56l4.36 4.37a.9959.9959 0 0 1 0 1.41z" fill="#d81b61"/><path d="m5.3652 58.1592a1.0045 1.0045 0 0 0 .4756.4756 30.2715 30.2715 0 0 0 11.6475 2.3252 25.5528 25.5528 0 0 0 10.9873-2.4049.9674.9674 0 0 0 .19-.0874c4.0358-1.9248 9.087-5.97 10.6828-10.5429.0105-.0242.0151-.0488.0236-.0736 1.7943-4.8537.7516-10.3734-3.0289-15.3532 6.3164-.3108 20.025-1.5027 24.1079-7.2509a4.8031 4.8031 0 0 0 -.0333-4.4712c-.96-2.4529-2.393-3.904-5.94-3.3945 2.2964-2.8548 2.4335-5.6539-.05-7.8091-2.1555-2.48-4.9564-2.3472-7.809-.05.51-3.5468-.9411-4.9806-3.3939-5.94a4.8028 4.8028 0 0 0 -4.4712-.0332c-5.7518 4.0928-6.9364 17.7791-7.2514 24.108-7.3191-5.6217-15.9852-5.099-21.6454 1.3935a.1816.1816 0 0 0 -.0778.0824 24.9222 24.9222 0 0 0 -6.568 14.3052.9823.9823 0 0 0 -.0388.4235 30.4027 30.4027 0 0 0 2.193 14.2975zm46.8348-38.1753c5.1118-1.6514 5.69-.18 6.3555 1.5205 1.5553 3.3734-1.477 4.4586-5.4985 6.2242-4.9579 1.94-12.7031 2.5779-17.0983 2.7872 5.3977-2.6805 11.8382-6.0914 16.2413-10.5319zm-1.6165-10.2485c1.3868-.2781 3.9593 2.3223 3.6812 3.681-.092 1.15-1.4808 3.1369-3.4893 5.1632-4.1869 4.1984-10.16 7.3434-15.2925 9.9375 3.1088-6.0664 8.4947-16.6354 15.1006-18.7817zm-14.312 1.208c1.2185-3.1134 2.3945-5.022 3.4966-5.6705a1.8664 1.8664 0 0 1 .9819-.2719 5.0218 5.0218 0 0 1 1.7466.4438c1.7.6656 3.1719 1.2412 1.52 6.3555-4.44 4.4012-7.8513 10.8428-10.532 16.2414.2093-4.3948.8471-12.1406 2.7869-17.0983zm-4.5285 19.5051c.24.225.4889.4458.7272.6814l.0031.002c3.9193 3.7855 6.5861 9.317 5.46 14.482l-5.5372-5.5372a1 1 0 0 0 -1.414 1.4141l6.2653 6.2653c-1.4557 3.6288-5.644 6.9524-8.87 8.6384l-6.1494-6.1494a1 1 0 0 0 -1.414 1.4141l5.6384 5.6384c-8.993 3.7039-17.6087.4533-19.4265-.324a27.7946 27.7946 0 0 1 -2.0559-10.9909l2.2868 2.2873a1 1 0 0 0 1.4141-1.4141l-3.5047-3.5046a22.9826 22.9826 0 0 1 5.4086-12.1l6.85 6.85a1 1 0 0 0 1.4141-1.4141l-6.9155-6.9152c6.1198-6.3304 14.2485-4.3182 19.8196.6765z"/></svg>