<svg height="512pt" viewBox="0 -8 512 512" width="512pt" xmlns="http://www.w3.org/2000/svg"><path d="m388.265625 261.511719c-27.148437 24.703125-50.550781 61.121093-64.003906 84.375-3.339844 5.78125-12.148438 3.394531-12.148438-3.285157v-101.964843l-67.136719-5.34375-17.234374 95.757812c-1.117188 6.203125-9.480469 7.386719-12.234376 1.71875-17.910156-36.847656-47.003906-76.671875-64.71875-99.148437l-23.046874-6.179688-4.007813 22.546875c58.179687 84.039063 83.875 189.726563 90.09375 225.167969 1.347656 7.691406 7.992187 13.3125 15.796875 13.3125h77.160156c7.625 0 14.21875-5.359375 15.707032-12.839844 7.589843-38.035156 38.390624-155.09375 97.839843-207.9375zm0 0" fill="#cdf5a0"/><path d="m401.402344 264.042969-13.136719-2.53125c-27.148437 24.707031-50.550781 61.121093-64.003906 84.378906-3.339844 5.78125-12.148438 3.390625-12.148438-3.285156v40.667969c0 4.96875 4.03125 9 9.003907 9 4.128906 0 7.632812-2.832032 8.695312-6.824219 13.246094-49.886719 48.65625-95.582031 71.589844-121.40625zm0 0" fill="#b4e6a0"/><path d="m272.707031 237.5-27.730469-2.210938-17.238281 95.761719c-1.117187 6.203125-9.476562 7.386719-12.230469 1.71875-17.910156-36.847656-47.003906-76.671875-64.722656-99.148437l-23.042968-6.179688-4.007813 22.546875c58.179687 84.035157 83.875 189.726563 90.089844 225.167969 1.351562 7.6875 7.992187 13.3125 15.800781 13.3125h27.175781zm0 0" fill="#b4e6a0"/><path d="m123.734375 249.988281c58.179687 84.039063 83.875 189.726563 90.09375 225.167969 1.347656 7.691406 7.992187 13.3125 15.796875 13.3125h1.511719c-15.015625-148.476562-81.808594-232.695312-104.105469-257.023438zm0 0" fill="#96d7a5"/><path d="m416.324219 95.679688c-4.164063 0-8.222657.386718-12.230469.945312-13.730469-51.296875-60.402344-89.125-116.027344-89.125-37.488281 0-70.957031 17.164062-93.007812 44.054688-8.640625-2.550782-17.769532-3.972657-27.234375-3.972657-47.769531 0-87.292969 34.855469-94.800781 80.496094-36.738282 3.347656-65.523438 34.199219-65.523438 71.808594 0 39.84375 32.300781 72.144531 72.144531 72.144531 26.539063 0 49.667969-14.371094 62.199219-35.714844 8.273438 2.320313 16.964844 3.652344 25.976562 3.652344 18.539063 0 35.789063-5.332031 50.476563-14.417969 19.6875 14.066407 43.726563 22.433594 69.769531 22.433594 20.1875 0 39.179688-5.035156 55.886719-13.828125 15.929687 22.875 42.382813 37.875 72.371094 37.875 48.699219 0 88.175781-39.476562 88.175781-88.175781s-39.476562-88.175781-88.175781-88.175781zm0 0" fill="#96cd82"/><path d="m341.734375 230.671875c-3.503906-5.535156-9.742187-8.53125-16.234375-7.652344-4.378906.59375-8.84375.917969-13.386719.917969-37.3125 0-69.964843-19.660156-88.355469-49.148438-3.207031-5.136718-9.019531-7.917968-15.046874-7.371093-2.90625.261719-5.847657.402343-8.824219.402343-52.316407 0-95.503907-38.59375-102.953125-88.84375-12.257813 13.445313-20.824219 30.332032-23.914063 49.097657-40.046875 3.652343-70.648437 39.992187-64.800781 82.140625 4.226562 30.476562 28.269531 55.472656 58.59375 60.707031 31.78125 5.484375 60.515625-9.882813 75.03125-34.605469 8.273438 2.320313 16.964844 3.652344 25.980469 3.652344 18.535156 0 35.785156-5.335938 50.472656-14.417969 19.6875 14.066407 43.726563 22.433594 69.769531 22.433594 20.1875 0 39.179688-5.035156 55.886719-13.828125.3125.449219.691406.84375 1.011719 1.285156-1.121094-1.554687-2.203125-3.144531-3.230469-4.769531zm0 0" fill="#78bd8c"/><path d="m512 183.855469c0-52.757813-42.921875-95.679688-95.675781-95.679688-2.253907 0-4.488281.082031-6.714844.234375-8.007813-24.710937-23.742187-46.875-44.574219-62.625-22.3125-16.871094-48.925781-25.785156-76.96875-25.785156-37.144531 0-71.722656 15.96875-95.65625 43.03125-8.015625-1.949219-16.261718-2.949219-24.585937-2.949219-49.472657 0-90.957031 34.824219-101.238281 81.25-17.484376 2.886719-33.519532 11.519531-45.628907 24.714844-13.515625 14.722656-20.957031 33.84375-20.957031 53.839844 0 43.917969 35.730469 79.644531 79.644531 79.644531 16.410157 0 32.207031-5.132812 45.351563-14.230469 54.191406 80.851563 74.964844 174.226563 81.441406 211.148438 1.984375 11.3125 11.734375 19.519531 23.1875 19.519531h77.160156c11.183594 0 20.882813-7.9375 23.0625-18.871094 6.644532-33.304687 32.578125-145.007812 89.4375-197.617187 51.390625-1.570313 92.714844-43.859375 92.714844-95.625zm-196.859375 290.304687c-.789063 3.945313-4.300781 6.808594-8.355469 6.808594h-41.4375l10.75-176.070312c.253906-4.132813-2.894531-7.6875-7.027344-7.941407-4.125-.257812-7.691406 2.894531-7.945312 7.027344l-10.808594 176.984375h-20.691406c-4.152344 0-7.6875-2.988281-8.410156-7.109375-6.679688-38.082031-28.203125-134.726563-84.675782-218.28125 3.191407-3.242187 6.125-6.773437 8.742188-10.570313 1.859375.414063 3.730469.773438 5.613281 1.082032 18.8125 24.046875 50.886719 68.378906 66.019531 108.738281 1.105469 2.945313 3.917969 4.867187 7.019532 4.867187.21875 0 .4375-.011718.664062-.03125 3.355469-.296874 6.101563-2.792968 6.714844-6.105468l19.175781-103.75c4.507813 1.394531 9.089844 2.542968 13.738281 3.425781l-1.144531 18.746094c-.253906 4.132812 2.894531 7.6875 7.027344 7.941406.15625.011719.3125.015625.464844.015625 3.933593 0 7.234375-3.066406 7.480469-7.042969l1.082031-17.734375c2.960937.207032 5.9375.324219 8.929687.324219 5.535156 0 11.0625-.375 16.546875-1.097656v113.839843c0 3.53125 2.460938 6.582032 5.910157 7.328126.53125.117187 1.066406.171874 1.59375.171874 2.890624 0 5.585937-1.675781 6.824218-4.394531.273438-.601562 27.265625-59.316406 66.824219-96.828125 4.492187 1.515625 9.105469 2.707032 13.808594 3.542969-21.539063 23.414063-40.542969 56.503906-56.621094 98.667969-15.277344 40.058594-23.984375 78.25-27.8125 97.445312zm-97.066406-239.671875c5.816406 3.832031 11.886719 7.144531 18.152343 9.949219l-15.210937 82.292969c-9.867187-20.128907-25.496094-46.613281-50.199219-79.332031 16.703125-.476563 32.867188-4.925782 47.257813-12.910157zm101.539062 17c7.554688-1.933593 14.9375-4.546875 22.027344-7.824219 8.109375 10.117188 18.105469 18.363282 29.289063 24.390626-22.140626 22.273437-39.886719 49.601562-51.316407 69.605468zm96.710938 13.042969c-26.105469 0-50.632813-12.671875-65.773438-33.945312-.171875-.316407-.367187-.621094-.589843-.917969-2.207032-2.953125-6.234376-3.863281-9.5-2.148438-16.34375 8.601563-33.972657 12.964844-52.394532 12.964844-19.898437 0-39.132812-5.222656-56.242187-15.152344 2.058593-1.617187 4.074219-3.296875 6.019531-5.074219 3.054688-2.800781 3.261719-7.542968.464844-10.597656-2.796875-3.054687-7.542969-3.261718-10.59375-.464844-16.386719 15.007813-37.65625 23.273438-59.890625 23.273438-7.765625 0-15.457031-1-22.882813-2.980469-2.136718-.941406-4.652344-.855469-6.765625.359375l-.101562.058594c-1.417969.816406-2.496094 2.046875-3.128907 3.480469-11.683593 19.234375-32.78125 31.144531-55.296874 31.144531-35.648438 0-64.648438-29-64.648438-64.644531 0-16.230469 6.039062-31.75 17.007812-43.699219 8.738282-9.523438 19.992188-16.121094 32.34375-19.117188-.140624 2.21875-.222656 4.453126-.222656 6.703126 0 4.140624 3.359375 7.5 7.5 7.5s7.5-3.359376 7.5-7.5c0-48.90625 39.789063-88.695313 88.695313-88.695313 4.832031 0 9.628906.40625 14.359375 1.175781-2.5625 3.796875-4.945313 7.753906-7.121094 11.863282-1.933594 3.664062-.535156 8.203124 3.125 10.136718 3.664062 1.9375 8.199219.539063 10.136719-3.125 19.605469-37.089844 57.824219-60.128906 99.738281-60.128906 24.753906 0 48.242188 7.867188 67.925781 22.75 17.730469 13.402344 31.285157 32.054688 38.570313 52.914062-5.277344 1.226563-10.445313 2.90625-15.480469 5.035157-3.816406 1.613281-5.601563 6.015625-3.984375 9.828125 1.613281 3.816406 6.011719 5.601562 9.828125 3.988281 9.941406-4.207031 20.507813-6.339844 31.398437-6.339844 44.488282 0 80.679688 36.191407 80.679688 80.679688 0 44.484375-36.191406 80.675781-80.675781 80.675781zm0 0"/></svg>