<svg id="Layer_1" height="512" viewBox="0 0 64 64" width="512" xmlns="http://www.w3.org/2000/svg" data-name="Layer 1"><path d="m34.93 52.68c-12.65 12.65-28.67 5.06-28.67 5.06a28.6882 28.6882 0 0 1 -2.22-12.61 25.3983 25.3983 0 0 1 .27-2.55 23.7908 23.7908 0 0 1 5.52-11.9q.63-.735 1.35-1.47l.14-.14c6.52-6.52 15.4-4.83 21.92 1.69s8.21 15.4 1.69 21.92z" fill="#f06392"/><path d="m38.61 46.52a11.7432 11.7432 0 0 1 -.76 2.07 14.5165 14.5165 0 0 1 -2.92 4.09 25.3574 25.3574 0 0 1 -5.94 4.46c-.63.35-1.27.65-1.9.93-10.57 4.53-20.83-.33-20.83-.33l26.98-26.98c4.63 4.63 6.82 10.44 5.37 15.76z" fill="#ec417a"/><path d="m38.61 46.52a11.7432 11.7432 0 0 1 -.76 2.07l-7-7a1.0079 1.0079 0 0 1 0-1.42.9959.9959 0 0 1 1.41 0z" fill="#c21e5c"/><path d="m18.77 38.21a.9925.9925 0 0 1 -.71.3.97.97 0 0 1 -.7-.3l-7.53-7.53q.63-.735 1.35-1.47l7.59 7.59a.9959.9959 0 0 1 0 1.41z" fill="#d81b61"/><path d="m28.99 57.14c-.63.35-1.27.65-1.9.93l-6.36-6.37a.997.997 0 0 1 1.41-1.41z" fill="#c21e5c"/><path d="m8.65 48.33a1.0019 1.0019 0 0 1 -1.41 0l-3.2-3.2a25.3983 25.3983 0 0 1 .27-2.55l4.34 4.34a.9959.9959 0 0 1 0 1.41z" fill="#d81b61"/><path d="m57.2981 14.379a6.1715 6.1715 0 0 0 -8.2567.58l-15.8014 15.801 8.9151-2.97a4.7131 4.7131 0 0 0 .36.4405 4.7717 4.7717 0 0 0 7.4878-.96 3.041 3.041 0 0 1 2.5925-1.57h.0449a6.0331 6.0331 0 0 0 4.2689-1.7464l.7832-.7832a5.9632 5.9632 0 0 0 -.3943-8.7919z" fill="#81c785"/><path d="m57.2981 14.379a6.1715 6.1715 0 0 0 -8.2567.58l-15.8014 15.801 8.9151-2.97a4.7131 4.7131 0 0 0 .36.4405 4.7717 4.7717 0 0 0 7.4878-.96 3.041 3.041 0 0 1 2.5925-1.57h.0449a6.0331 6.0331 0 0 0 4.2689-1.7464l.7832-.7832a5.9632 5.9632 0 0 0 -.3943-8.7919z" fill="#81c785"/><g fill="#66bb6a"><path d="m59.3626 26.1933a5.4777 5.4777 0 0 0 -2.3582-2.334l-.0957.0957a6.0324 6.0324 0 0 1 -4.2687 1.7463h-.0449a3.0413 3.0413 0 0 0 -2.5926 1.5694 4.6342 4.6342 0 0 1 -7.8477.5194l-8.9148 2.9699 8.6043.8983a4.4373 4.4373 0 0 0 .1528.5046 4.5268 4.5268 0 0 0 5.73 2.5577 4.1554 4.1554 0 0 0 .9637-.5207 2.754 2.754 0 0 1 2.7471-.3285l.0381.0169a5.55 5.55 0 0 0 4.2325.1593l.9372-.3575a5.313 5.313 0 0 0 2.7169-7.4968z"/><path d="m49.621 6.7019a6.1715 6.1715 0 0 1 -.58 8.2567l-15.801 15.8014 2.97-8.9151a4.7131 4.7131 0 0 1 -.4405-.36 4.7717 4.7717 0 0 1 .96-7.4878 3.041 3.041 0 0 0 1.5695-2.5925v-.0449a6.0331 6.0331 0 0 1 1.746-4.2684l.7832-.7832a5.9632 5.9632 0 0 1 8.7928.3938z"/><path d="m49.621 6.7019a6.1715 6.1715 0 0 1 -.58 8.2567l-15.801 15.8014 2.97-8.9151a4.7131 4.7131 0 0 1 -.4405-.36 4.7717 4.7717 0 0 1 .96-7.4878 3.041 3.041 0 0 0 1.5695-2.5925v-.0449a6.0331 6.0331 0 0 1 1.746-4.2684l.7832-.7832a5.9632 5.9632 0 0 1 8.7928.3938z"/></g><path d="m37.8067 4.6374a5.4777 5.4777 0 0 1 2.334 2.3582l-.0957.0957a6.0324 6.0324 0 0 0 -1.7463 4.2687v.0449a3.0413 3.0413 0 0 1 -1.5694 2.5926 4.6342 4.6342 0 0 0 -.5194 7.8477l-2.9699 8.9148-.8983-8.6043a4.4373 4.4373 0 0 1 -.5046-.1528 4.5268 4.5268 0 0 1 -2.5577-5.73 4.1554 4.1554 0 0 1 .5207-.9637 2.754 2.754 0 0 0 .3285-2.7471l-.0169-.0381a5.55 5.55 0 0 1 -.1593-4.2325l.3575-.9372a5.313 5.313 0 0 1 7.4968-2.7169z" fill="#81c785"/><path d="m5.354 58.17a1.0037 1.0037 0 0 0 .4756.4756 30.1291 30.1291 0 0 0 11.5923 2.3144 25.429 25.429 0 0 0 10.935-2.3937.96.96 0 0 0 .1888-.087c4.0168-1.9157 9.0439-5.9414 10.6324-10.4931.0107-.0246.0154-.05.0239-.0746 1.8592-5.03.653-10.7772-3.4981-15.8889l5.3859.5623a5.54 5.54 0 0 0 6.9942 3.07c.9979-.3538 1.8571-1.422 2.9863-.8525a6.9431 6.9431 0 0 0 5.9316-.1779c4.51-1.57 5.3639-8.0926 1.5556-10.9228 4.7389-5.0629-.1577-13.2878-6.8767-11.3828 1.9084-6.72-6.3361-11.6203-11.3829-6.8773-2.8323-3.8068-9.3518-2.9541-10.9229 1.5565a6.9535 6.9535 0 0 0 -.1615 5.9681c.5471 1.0795-.5275 1.9785-.8693 2.95a5.54 5.54 0 0 0 3.07 6.9946l.5628 5.3928c-6.7559-5.72-16.2724-6.068-22.1534.8964a.1776.1776 0 0 0 -.0761.0807 24.8031 24.8031 0 0 0 -6.5375 14.2423.9838.9838 0 0 0 -.0382.417 30.2554 30.2554 0 0 0 2.1822 14.2299zm53.36-27.8384a4.7507 4.7507 0 0 1 -3.3624 2.7817 4.5614 4.5614 0 0 1 -3.51-.1562c-1.5535-.7763-3.0977-.0145-4.4706.8293a3.5259 3.5259 0 0 1 -4.45-2.0065c-.1113-.5224-.37-1.0724-.9737-1.1162l-4.001-.4179 3.878-1.2921a5.7963 5.7963 0 0 0 8.1436-.0167c.8417-.8235 1.2954-2.3065 2.6739-2.2361a7.1646 7.1646 0 0 0 4.4853-1.5944 4.5164 4.5164 0 0 1 1.5868 5.2255zm-2.06-15.1875c2.6829 2.3247 2.1871 5.9727-.4532 8.1035a5.04 5.04 0 0 1 -3.61 1.4537c-1.9356-.05-2.9849 1.356-4.0379 2.8224a3.8185 3.8185 0 0 1 -5.5129-.2233 1.1319 1.1319 0 0 0 -.4149-.3818.9813.9813 0 0 0 -.7872-.0777l-4.8973 1.6321 12.8074-12.8075a5.1654 5.1654 0 0 1 6.9063-.521zm-11.6071-9.5821c4.48-.0525 6.56 5.5394 3.2869 8.6895l-12.8074 12.8071 1.6318-4.8975c.2218-.6045-.2234-1.0631-.6817-1.3827a3.7874 3.7874 0 0 1 0-5.3316c1.4453-1.0333 2.8825-2.1063 2.8221-4.0846a5.01 5.01 0 0 1 1.4534-3.5639 5.6646 5.6646 0 0 1 4.2949-2.2363zm-14.8335 11.0674c.8484-1.3862 1.6067-2.9072.8118-4.5113a4.53 4.53 0 0 1 -.1385-3.47 4.447 4.447 0 0 1 8.0069-1.7751 7.2071 7.2071 0 0 0 -1.5948 4.5284c.07 1.3212-1.4384 1.8108-2.2364 2.6313a5.7962 5.7962 0 0 0 -.0165 8.1431l-1.2921 3.8773-.4179-4.0009a1.0318 1.0318 0 0 0 -.872-.8989 3.5068 3.5068 0 0 1 -2.2505-4.5239zm-8.044 9.3921a17.8609 17.8609 0 0 1 10.3645 5.4475c3.8535 3.8547 6.3027 9.1489 5.23 14.206l-5.5039-5.5036a1 1 0 0 0 -1.4141 1.4141l6.2317 6.2321c-1.4485 3.6075-5.6122 6.9115-8.8192 8.5886l-6.1163-6.1162a1 1 0 0 0 -1.414 1.4141l5.6055 5.6054c-8.9412 3.68-17.5054.45-19.3185-.3242a27.66 27.66 0 0 1 -2.0451-10.9219l2.2676 2.2677a1 1 0 0 0 1.414-1.4141l-3.4858-3.4856a22.8629 22.8629 0 0 1 5.3772-12.0314l6.8125 6.8125a1 1 0 0 0 1.414-1.4141l-6.878-6.878a12.16 12.16 0 0 1 10.2779-3.8989z"/></svg>