<svg height="511pt" viewBox="0 0 511 511.99798" width="511pt" xmlns="http://www.w3.org/2000/svg"><path d="m237.925781 85.347656c7.574219-3.507812 14.894531 5.285156 10.070313 12.101563-22.636719 31.984375-66.5 89.617187-114.53125 129.589843-69.71875 58.019532-109.738282 71.394532-121.824219 56.871094-12.089844-14.523437 8.328125-51.449218 78.050781-109.46875 48.03125-39.976562 112.667969-72.640625 148.234375-89.09375zm0 0" fill="#96cd82"/><path d="m261.828125 109.574219c6.609375-4.773438 15.257813 2.277343 11.914063 9.714843-15.992188 35.585938-48.152344 101.054688-87.878907 149.789063-57.3125 70.304687-94.027343 91.097656-108.671875 79.15625-14.648437-11.9375-1.679687-52.089844 55.632813-122.394531 39.726562-48.734375 97.371093-93.429688 129.003906-116.265625zm0 0" fill="#78bd8c"/><path d="m448.578125 243.058594c22.902344 76.328125-4.390625 135.226562-55.277344 150.492187s-106.09375-18.875-128.996093-95.203125c-22.898438-76.328125 4.394531-135.222656 55.28125-150.492187 50.882812-15.269531 106.089843 18.875 128.992187 95.203125zm0 0" fill="#cde682"/><path d="m447.742188 240.339844c-.046876-.050782-.085938-.097656-.132813-.152344-12.222656-5.273438-25.585937-8.234375-39.96875-8.234375-17.023437 0-33.277344 4.246094-47.859375 12.300781-5.171875 2.859375-11.554688.855469-14.171875-4.445312-8.40625-17.023438-20.921875-30.941406-36.722656-40.753906-6.382813-3.964844-9.597657-11.664063-7.164063-18.769532 4.324219-12.609375 10.6875-23.605468 18.765625-32.644531-.023437-.042969 0 0-.027343-.042969-20.640626 5.953125-37.382813 19.105469-48.613282 37.617188-.003906 0-.011718 0-.015625 0-.210937.347656-.367187.746094-.574219 1.101562-1.679687 2.847656-3.25 5.796875-4.660156 8.886719-.6875 1.488281-1.253906 3.074219-1.875 4.621094-.632812 1.585937-1.351562 3.101562-1.921875 4.746093.054688-.03125.113281-.039062.167969-.070312-8.90625 25.539062-9.523438 57.652344 1.335938 93.847656 22.902343 76.328125 78.109374 110.472656 128.996093 95.203125 51.488281-15.449219 78.820313-75.5625 54.441407-153.210937zm0 0" fill="#afdc82"/><path d="m326.898438 362.53125c-31.46875 73.210938-90.214844 100.824219-139.023438 79.847656-48.808594-20.980468-69.195312-82.609375-37.726562-155.824218 31.472656-73.210938 90.21875-100.824219 139.027343-79.84375 48.804688 20.980468 69.191407 82.609374 37.722657 155.820312zm0 0" fill="#cde682"/><path d="m231.183594 434.402344c-50.566406-16.292969-76.667969-75.726563-52.230469-151.578125 11.917969-36.992188 31.339844-63.710938 53.953125-79.578125-32.210938 9.148437-62.910156 37.136718-82.757812 83.308594-31.46875 73.214843-11.082032 134.84375 37.726562 155.824218 24.191406 10.398438 50.824219 8.820313 75.367188-4.292968-10.695313.84375-21.488282-.28125-32.058594-3.683594zm0 0" fill="#afdc82"/><path d="m503.832031 376.242188c0 79.6875-43.066406 128.257812-96.191406 128.257812-53.128906 0-96.195313-48.570312-96.195313-128.257812 0-79.691407 43.066407-128.257813 96.195313-128.257813 53.125 0 96.191406 48.566406 96.191406 128.257813zm0 0" fill="#cde682"/><path d="m444.28125 480.066406c-52.890625 5.003906-100.339844-39.292968-107.84375-118.628906-3.660156-38.691406 3.632812-70.910156 18.140625-94.417969-25.980469 21.125-43.128906 58.964844-43.128906 109.222657 0 79.6875 43.066406 128.257812 96.191406 128.257812 26.335937 0 50.179687-11.964844 67.550781-33.707031-9.496094 5-19.855468 8.230469-30.910156 9.273437zm0 0" fill="#afdc82"/><path d="m481.589844 277.589844c-6.992188-8.878906-15.003906-16.269532-23.789063-22.066406-.773437-3.730469-1.65625-7.507813-2.640625-11.261719-8.148437-31.019531-21.828125-56.761719-39.980468-75.523438v-25.488281c0-17.28125-7.824219-33.277344-21.464844-43.886719l-125.722656-97.78125c-3.269532-2.546875-7.984376-1.957031-10.523438 1.3125-2.542969 3.269531-1.953125 7.980469 1.316406 10.527344l34.4375 26.78125-33.21875 27.117187c-11.738281 4.847657-108.449218 45.679688-175.375 101.339844-33.585937 27.933594-57.527344 52.363282-71.148437 72.601563-14.050781 20.871093-16.710938 36.820312-7.90625 47.40625 4.523437 5.4375 10.996093 8.160156 19.351562 8.160156 7.644531 0 16.867188-2.277344 27.617188-6.832031 11.808593-5 25.34375-12.691406 40.457031-22.953125-9.925781 14.777343-17.429688 28.046875-22.402344 39.679687-9.886718 23.132813-9.507812 39.300782 1.125 48.046875 3.109375 2.558594 7.792969 4.90625 14.515625 4.90625 4.414063 0 9.710938-1.015625 16.015625-3.652343 7.707032-3.21875 16.394532-8.625 25.941406-16.109376-1.425781 15.890626-.277343 31.09375 3.492188 45.222657 7.847656 29.425781 26.75 51.90625 53.222656 63.300781 11.765625 5.0625 23.882813 7.519531 35.96875 7.519531 30.929688 0 61.65625-16.097656 85.832032-45.726562 4.242187 25.320312 13.382812 47.300781 27.058593 64.664062 18.84375 23.925781 45.089844 37.101563 73.910157 37.101563 28.816406 0 55.066406-13.175782 73.910156-37.101563 19.484375-24.742187 29.78125-58.855469 29.78125-98.65625 0-39.796875-10.296875-73.910156-29.78125-98.648437zm-66.410156-85.558594c10.816406 14.878906 19.296874 33.25 25.039062 54.4375-7.976562-3.058594-16.367188-4.976562-25.039062-5.675781zm-30.675782-80.828125c9.960938 7.75 15.675782 19.429687 15.675782 32.046875v12.34375c-13.53125-9.957031-28.394532-16.144531-43.691407-18.375l16.367188-35.074219zm-23.792968-18.503906-20.367188 43.644531c-3.773438.136719-7.550781.511719-11.324219 1.125l-6.496093-74.472656zm-27.6875 59.332031-25.765626 55.210938c-4.679687-3.15625-9.6875-5.910157-15.015624-8.203126-5.589844-2.40625-11.308594-4.21875-17.097657-5.457031 10.679688-20.207031 27.839844-34.203125 49.042969-39.773437 2.9375-.769532 5.882812-1.363282 8.835938-1.777344zm-18.742188-10.898438c-24.261719 8.171876-43.507812 25.851563-54.910156 50.515626-4.277344-.144532-8.566406.023437-12.855469.492187 25.296875-45.253906 42.257813-85.824219 45.171875-92.933594l17.125-20.777343zm-44.746094-62.230468 35.832032-29.25 1.003906.78125.582031 6.667968-26.84375 32.570313c-3.660156 2.414063-17.226563 11.480469-35.570313 25.082031 13.539063-18.457031 22.5625-32.117187 24.996094-35.851562zm-173.070312 263.285156c-4.066406 1.699219-11.457032 4.089844-15.214844 1-7.136719-5.871094-4.363281-36.75 57.210938-111.589844 11.453124-13.921875 25.320312-28.578125 41.21875-43.570312 2.78125-2.617188 3.390624-6.945313 1.144531-10.03125-2.71875-3.734375-7.980469-4.132813-11.230469-1.074219-16.441406 15.488281-30.8125 30.679687-42.714844 45.148437-.003906.003907-.007812.007813-.015625.011719-.816406.996094-1.730469 1.921875-2.730469 2.738281-70.882812 57.910157-101.316406 61.117188-107.027343 54.253907-3.804688-4.578125-.511719-15.582031 8.816406-29.4375 12.648437-18.789063 36.265625-42.804688 68.300781-69.445313 48.128906-40.027344 113.996094-72.972656 148.765625-88.964844-11.441406 16.238282-28.886719 39.871094-49.703125 64.359376-2.582031 3.035156-2.589844 7.636718.253906 10.425781 2.9375 2.882812 7.527344 2.832031 10.402344.121093.03125-.023437.0625-.042968.09375-.070312 23.578125-20.105469 48.1875-38.582031 63.886719-49.769531-8.933594 19.726562-23.238281 49.4375-41.144531 80.179687-5.777344 1.914063-11.488282 4.386719-17.089844 7.429688-27.679688 15.019531-50.625 42.28125-66.355469 78.839844-4.996093 11.601562-8.804687 23.089843-11.425781 34.335937-13.824219 12.605469-25.75 21.058594-35.441406 25.109375zm207.84375 45.992188c-29.808594 45.117187-74.226563 63.371093-113.472656 46.480468-47.964844-20.644531-61.835938-80.675781-33.730469-145.984375 28.109375-65.308593 81.242187-96.503906 129.207031-75.859375 25.628906 11.03125 42.6875 34.75 47.0625 65.273438-18.925781 24.324218-29.390625 58.546875-29.390625 98.152344 0 4.039062.113281 8.019531.324219 11.9375zm103.371094 108.820312c-52.222657 0-88.695313-49.65625-88.695313-120.757812 0-48.472657 16.695313-87.660157 45.808594-107.523438 3.421875-2.332031 4.304687-7 1.96875-10.421875-2.332031-3.421875-7-4.300781-10.421875-1.96875-3.621094 2.46875-7.0625 5.203125-10.339844 8.15625-4.664062-18.90625-13.855469-35.140625-26.722656-47.527344l30.515625-65.386719c14.847656 1.257813 29.386719 6.9375 42.457031 16.8125 2.730469 2.058594 5.371094 4.28125 7.929688 6.648438v65.761719c-4.613282.371093-9.167969 1.082031-13.617188 2.136719-4.03125.953124-6.523438 4.996093-5.566406 9.027343.953125 4.03125 4.992187 6.519531 9.027344 5.566407 5.710937-1.351563 11.652343-2.039063 17.65625-2.039063 52.21875 0 88.691406 49.65625 88.691406 120.757813 0 71.101562-36.472656 120.757812-88.691406 120.757812zm0 0"/></svg>