<svg id="Layer_1" height="512" viewBox="0 0 64 64" width="512" xmlns="http://www.w3.org/2000/svg" data-name="Layer 1"><path d="m29.44 52.83a5.6188 5.6188 0 0 1 -.88 1.95 45.9821 45.9821 0 0 1 -3.3 3.45 4.7107 4.7107 0 0 1 -.86.7 5.4744 5.4744 0 0 1 -1.94.88 5.9939 5.9939 0 0 1 -5.74-1.58 6.0508 6.0508 0 0 0 -4.81-1.74l-4.84.44.44-4.84a6.0508 6.0508 0 0 0 -1.74-4.81 6.1463 6.1463 0 0 1 .59-9.13c.4122-.4078 1.625-1.6108 2.01-2.01a6.0235 6.0235 0 0 1 8.53 0l10.96 10.96a5.97 5.97 0 0 1 1.58 5.73z" fill="#f06392"/><path d="m29.44 52.83a5.6188 5.6188 0 0 1 -.88 1.95 45.9821 45.9821 0 0 1 -3.3 3.45 4.7107 4.7107 0 0 1 -.86.7 5.4744 5.4744 0 0 1 -1.94.88 5.9939 5.9939 0 0 1 -5.74-1.58 6.0508 6.0508 0 0 0 -4.81-1.74l-4.84.44 15.31-15.31 5.48 5.48a5.97 5.97 0 0 1 1.58 5.73z" fill="#ec417a"/><path d="m12.65 43.02a1.0089 1.0089 0 0 1 -1.42 0l-4.87-4.87 1.42-1.41 4.87 4.87a.9959.9959 0 0 1 0 1.41z" fill="#d81b61"/><path d="m29.44 52.83a5.6188 5.6188 0 0 1 -.88 1.95l-4.8-4.8a1.0007 1.0007 0 0 1 1.42-1.41z" fill="#c21e5c"/><path d="m24.4 58.93a5.4744 5.4744 0 0 1 -1.94.88l-4.27-4.26a1.0007 1.0007 0 0 1 1.42-1.41z" fill="#c21e5c"/><path d="m22.3488 41.4894a35.3625 35.3625 0 0 1 26.9338-10.1243l10.7174.6377-5.6062 5.53a5.9059 5.9059 0 0 1 -8.3521-.0572 7.9952 7.9952 0 0 1 -11.8369.6149z" fill="#66bb6a"/><path d="m22.5106 41.6512a35.3625 35.3625 0 0 0 10.1243-26.9338l-.6377-10.7174-5.53 5.6062a5.9059 5.9059 0 0 0 .0572 8.3521 7.9952 7.9952 0 0 0 -.6144 11.8369z" fill="#81c785"/><path d="m60.06 31.0049-10.7178-.6377a36.393 36.393 0 0 0 -20.8088 5.1 36.4056 36.4056 0 0 0 5.1-20.8091l-.6383-10.7181a1.0065 1.0065 0 0 0 -1.71-.6425l-5.53 5.6064a6.9394 6.9394 0 0 0 -.5951 9.0131 8.92 8.92 0 0 0 -.3692 12.1514l-2.7948 9.75-4.386-4.3858a7.0411 7.0411 0 0 0 -9.9463 0l-2.6037 2.6045a7.0429 7.0429 0 0 0 0 9.9463 5.0206 5.0206 0 0 1 1.4537 4.0146c-.53 7.2-1.739 6.0294 5.4883 5.4883a5.01 5.01 0 0 1 4.0146 1.4537 7.0429 7.0429 0 0 0 9.9463 0l2.6045-2.6045a7.0411 7.0411 0 0 0 0-9.9463l-4.3859-4.3858 9.75-2.7948a8.8775 8.8775 0 0 0 12.1515-.3686 6.9391 6.9391 0 0 0 9.0127-.5947l5.6064-5.53a1.0064 1.0064 0 0 0 -.6421-1.7104zm-33.19-.9349a.9973.9973 0 0 0 -.2588-.9873 7.0142 7.0142 0 0 1 .6252-10.4227 1 1 0 0 0 -.01-1.4141 4.9289 4.9289 0 0 1 -.0478-6.9375l3.953-4.0078.5049 8.4765a34.4226 34.4226 0 0 1 -6.9165 22.7961zm1.6976 21.8888-3.3909-3.3917a1 1 0 0 0 -1.4141 1.4141l4.0743 4.0753a38.4168 38.4168 0 0 1 -3.2882 3.47 5.0079 5.0079 0 0 1 -.8655.6833l-4.0749-4.074a1 1 0 0 0 -1.414 1.4141l3.391 3.39a5.007 5.007 0 0 1 -4.1547-1.4137 7.02 7.02 0 0 0 -5.61-2.0323l-3.6465.3321.3318-3.646a7.0162 7.0162 0 0 0 -2.0323-5.61 5.1662 5.1662 0 0 1 .5952-7.7133l4.1656 4.1655a1 1 0 1 0 1.414-1.4141l-4.1655-4.1662a5.1675 5.1675 0 0 1 7.7134-.5951l10.957 10.9569a5.007 5.007 0 0 1 1.4144 4.1554zm25.1238-15.1375a4.9289 4.9289 0 0 1 -6.9375-.0479.9989.9989 0 0 0 -1.4141-.01 7.0142 7.0142 0 0 1 -10.4228.6249.9988.9988 0 0 0 -.987-.2583l-7.5029 2.15a34.4286 34.4286 0 0 1 22.7959-6.917l8.4765.5049z"/></svg>