<svg id="Layer_1" height="512" viewBox="0 0 64 64" width="512" xmlns="http://www.w3.org/2000/svg" data-name="Layer 1"><path d="m46.82 30.25c-.44 1.58.09 3.33-1 5.15-.86 1.44-2.99 2.46-4.3 4.05-1.09 1.33-.63 2.58-2.06 4.01-1.85 1.85-3.75 1.95-5.86 3.69-2.09 1.72-3.73 4.36-5.91 5.86-2.32 1.58-4.17 1.02-6.4 2.22-2.65 1.42-5.14 3.81-7.38 4.48-3.46 1.03-5.75-.92-7.22-2.4-1.48-1.47-3.43-3.76-2.4-7.22.67-2.24 3.06-4.73 4.48-7.37 1.19-2.24.64-4.09 2.22-6.4 1.49-2.19 4.14-3.83 5.86-5.91 1.73-2.12 1.84-4.02 3.69-5.87 1.43-1.42 2.68-.97 4-2.06 1.59-1.31 2.62-3.44 4.06-4.3 1.82-1.09 3.58-.56 5.15-1 2.05-.57 4.69-2.04 6.33-1.68a2.2724 2.2724 0 0 1 .97.54l.02-.01 3.45 3.45 3.45 3.45-.02.02a2.2252 2.2252 0 0 1 .55.98c.36 1.64-1.11 4.27-1.68 6.32z" fill="#81c785"/><path d="m46.82 30.25c-.44 1.58.09 3.33-1 5.15-.86 1.44-2.99 2.46-4.3 4.05-1.09 1.33-.63 2.58-2.06 4.01-1.85 1.85-3.75 1.95-5.86 3.69-2.09 1.72-3.73 4.36-5.91 5.86-2.32 1.58-4.17 1.02-6.4 2.22-2.65 1.42-5.14 3.81-7.38 4.48-3.46 1.03-5.75-.92-7.22-2.4l37.83-37.83 3.45 3.45-.02.02a2.2252 2.2252 0 0 1 .55.98c.36 1.64-1.11 4.27-1.68 6.32z" fill="#66bb6a"/><circle cx="32.484" cy="24.637" fill="#42a047" r="2.432"/><circle cx="34.203" cy="36.676" fill="#378e43" r="2.432"/><circle cx="17.866" cy="39.255" fill="#42a047" r="2.432"/><circle cx="11.85" cy="52.15" fill="#42a047" r="2.432"/><circle cx="41.082" cy="29.797" fill="#378e43" r="1"/><circle cx="25.605" cy="28.077" fill="#42a047" r="1"/><circle cx="23.885" cy="33.236" fill="#42a047" r="1"/><circle cx="25.605" cy="45.274" fill="#378e43" r="1"/><circle cx="16.146" cy="46.134" fill="#42a047" r="1"/><path d="m58.28 16.038-13.758 3.44 3.44 3.439 12.038-1.719z" fill="#378e43"/><path d="m42.802 4-1.72 12.038 3.44 3.44 3.44-13.758z" fill="#42a047"/><path d="m56.56 10.88-3.71 6.52-8.33 2.08 2.08-8.33 6.52-3.71 1.72 1.72z" fill="#378e43"/><path d="m56.56 10.88-3.71 6.52-8.33 2.08 10.32-10.32z" fill="#42a047"/><g fill="#378e43"><path d="m27.3242 41.1152a.9967.9967 0 0 1 -.707-.2929l-1.72-1.72a1 1 0 0 1 1.414-1.414l1.72 1.72a1 1 0 0 1 -.707 1.707z"/><path d="m23.0249 50.5737a.9966.9966 0 0 1 -.707-.2929l-1.72-1.72a1 1 0 1 1 1.4141-1.414l1.72 1.72a1 1 0 0 1 -.707 1.707z"/><path d="m41.9424 24.7773a.9966.9966 0 0 1 -.707-.2929l-1.72-1.72a1 1 0 0 1 1.4141-1.414l1.72 1.72a1 1 0 0 1 -.707 1.707z"/><path d="m13.57 53.87a2.4323 2.4323 0 0 1 -3.44 0l3.44-3.44a2.4323 2.4323 0 0 1 0 3.44z"/></g><path d="m12.0137 61.001c3.6418.0935 6.59-3.2173 9.7441-4.8858 2.2975-1.15 4.0893-.6129 6.4922-2.2822 3.0783-2.1551 5.0186-6.1262 8.6036-7.4823a11.1684 11.1684 0 0 0 3.3085-2.1818 5.6376 5.6376 0 0 0 1.4668-2.6435c.3062-1.4671 1.5066-2.3128 2.6426-3.2212a9.4878 9.4878 0 0 0 2.4043-2.3877c1.1776-1.933.7062-3.5747 1.1044-5.395.58-2.0655 2.1432-4.83 1.6944-6.81l10.6672-1.5239a1.0059 1.0059 0 0 0 .8066-1.3062l-1.72-5.1591a1.0027 1.0027 0 0 0 -1.19-.6538l-3.1643.791 2.5559-4.4855a1.0008 1.0008 0 0 0 -.1621-1.2021l-3.44-3.44a.9973.9973 0 0 0 -1.2021-.1616l-4.4858 2.5561.7912-3.164a1 1 0 0 0 -.6533-1.1914l-5.16-1.72a1.0077 1.0077 0 0 0 -1.3067.8071l-1.5235 10.6677c-1.9833-.45-4.7388 1.1151-6.8053 1.6925-1.8234.4014-3.4643-.0738-5.4 1.1069a9.506 9.506 0 0 0 -2.3906 2.4062c-.91 1.1357-1.7532 2.338-3.2212 2.6436a5.6162 5.6162 0 0 0 -2.64 1.4624c-1.9784 1.969-2.0977 3.895-3.7588 5.9336-1.7113 2.0634-4.3682 3.7077-5.9068 5.981a9.6192 9.6192 0 0 0 -1.4731 3.9052c-.2542 2.1078-1.5634 3.9328-2.8062 5.6719-4.1413 5.0828-3.4806 9.413.0943 12.6909a8.57 8.57 0 0 0 6.0337 2.981zm46.6592-40.6236-10.3575 1.4795-1.8377-1.8369c1.7576-.44 9.2458-2.3113 11.1463-2.7863zm-5.7198-11.6914 2.3614 2.36-3.1245 5.484-6.293 1.5737 1.573-6.2937zm-9.331-3.3584 3.1455 1.0479-2.7876 11.1459-1.8369-1.8371zm-38.3741 45.045c.736-2.2509 3.21-4.85 4.3994-7.1851 1.2586-2.2828.7172-4.1585 2.17-6.3076 1.4614-2.1133 4.1232-3.7661 5.8-5.84 1.7308-2.0457 1.856-3.9612 3.6269-5.7881 1.27-1.2318 2.52-.7856 3.9282-1.9956 1.4676-1.1346 2.5317-3.2718 3.9365-4.2148 1.5676-.9349 3.2293-.4165 4.91-.896 1.6593-.44 3.9639-1.6588 5.4912-1.7a1.3555 1.3555 0 0 1 1.0079.4439c1.791 1.7911 4.8077 4.8075 6.5859 6.5859.152.2232.4008.4663.4169.6651.2381 1.4465-1.2375 4.1469-1.6669 5.8432-.4806 1.6791.0388 3.34-.8955 4.9062-.9445 1.4042-3.0741 2.4625-4.208 3.9293a5.5527 5.5527 0 0 0 -1.0371 2.13c-.3318 1.7955-2.2157 2.9155-3.7374 3.6035a15.9707 15.9707 0 0 0 -5.7552 4.6183c-1.73 2.0841-3.6592 3.9047-6.2663 4.1736a10.4762 10.4762 0 0 0 -3.141 1.007c-2.3347 1.19-4.9407 3.6679-7.188 4.4009-2.7642.8237-4.6294-.544-6.232-2.1465s-2.9706-3.4676-2.1455-6.2332z"/><path d="m32.4834 28.0693a3.41 3.41 0 0 0 2.4266-1.0048c3.1225-3.3008-1.5513-7.9033-4.8536-4.8535a3.453 3.453 0 0 0 2.427 5.8583zm-1.0127-4.4448a1.4321 1.4321 0 0 1 2.0254 2.0249 1.4324 1.4324 0 0 1 -2.0254-2.0249z"/><path d="m31.7764 34.249a3.4323 3.4323 0 0 0 4.8536 4.854v-.0005c3.1224-3.3012-1.551-7.9025-4.8536-4.8535zm3.8593 2.4268a1.4216 1.4216 0 0 1 -.42 1.0122 1.4322 1.4322 0 1 1 .42-1.0127z"/><path d="m17.8657 42.686a3.4544 3.4544 0 0 0 2.4271-5.8574 3.515 3.515 0 0 0 -4.8538-.0005 3.45 3.45 0 0 0 2.4267 5.8579zm-1.0122-4.4433a1.4321 1.4321 0 0 1 2.0249 2.0254 1.4321 1.4321 0 0 1 -2.0249-2.0254z"/><path d="m11.8462 55.5854a3.4109 3.4109 0 0 0 2.4267-1.0048h.0005a3.4323 3.4323 0 1 0 -2.4272 1.0053zm-1.0127-4.4448a1.4321 1.4321 0 0 1 2.0254 2.0249h-.0005a1.4322 1.4322 0 0 1 -2.0249-2.0249z"/><path d="m40.3753 29.0894a1 1 0 0 0 1.4147 1.4142 1 1 0 0 0 -1.4147-1.4142z"/><path d="m26.3116 28.7839a1 1 0 0 0 -1.4142-1.4139 1 1 0 0 0 1.4142 1.4139z"/><path d="m24.5919 33.9432a1 1 0 0 0 -1.4143-1.4142 1 1 0 0 0 1.4143 1.4142z"/><path d="m24.8974 44.5673a1 1 0 0 0 1.4143 1.4142 1 1 0 0 0 -1.4143-1.4142z"/><path d="m15.4387 45.4272a1 1 0 0 0 1.4142 1.4142 1 1 0 0 0 -1.4142-1.4142z"/><path d="m24.8975 37.6885a.9994.9994 0 0 0 0 1.414l1.72 1.72a1 1 0 1 0 1.414-1.4141l-1.72-1.72a1 1 0 0 0 -1.414.0001z"/><path d="m20.5981 48.561 1.72 1.72a1 1 0 0 0 1.414-1.4141l-1.72-1.72a1 1 0 0 0 -1.414 1.4141z"/><path d="m41.2354 24.4844a1 1 0 0 0 1.414-1.4141l-1.72-1.72a1 1 0 0 0 -1.414 1.4141z"/></svg>