<svg height="512pt" viewBox="-127 0 512 512.00099" width="512pt" xmlns="http://www.w3.org/2000/svg"><path d="m127.121094 304.078125c-14.363282-55.335937-51.6875-89.988281-76.964844-101.152344-30.398438-13.425781-54.449219 21.9375-36.410156 49.445313 23.667968 36.089844 92.167968 52.757812 82.171875 120.496094-7.683594 52.0625 33.207031 53.046874 33.207031 53.046874l19.039062-62.378906zm0 0" fill="#f7d291"/><path d="m249.570312 198.015625c-6.511718-17.191406-23.152343-5.59375-32.066406-23.578125-8.515625-17.191406 29.0625-86.445312 4.675782-115.257812-7.664063-9.058594-29.976563-17.277344-47.597657-6.097657-16.21875-46.511719-58.074219-54.0625-85.347656-35.816406-42.085937 28.160156-59.441406 122.269531 0 204.324219 39.136719 54.019531 44.851563 113.652344 40.265625 171.351562l-3.1875 32.96875c-2.265625 16.132813-5.933594 35.839844-8.535156 51.214844-2.429688 14.355469 8.894531 27.375 23.742187 27.375h22.238281c12.179688 0 22.492188-8.945312 23.863282-20.808594 18.378906-158.800781 69.65625-265.34375 61.949218-285.675781zm0 0" fill="#ffe1a0"/><path d="m157.863281 477.125c2.597657-15.375 6.265625-35.082031 8.535157-51.214844l3.1875-32.96875c4.585937-57.699218-1.132813-117.332031-40.265626-171.351562-59.445312-82.054688-42.089843-176.164063 0-204.324219 3.441407-2.300781 7.09375-4.230469 10.878907-5.753906-16.804688-7.222657-35.890625-4.328125-50.960938 5.753906-42.089843 28.160156-59.445312 122.269531 0 204.324219 39.132813 54.019531 44.851563 113.652344 40.261719 171.351562l-3.1875 32.96875c-2.265625 16.132813-5.933594 35.839844-8.535156 51.214844-2.425782 14.355469 8.894531 27.375 23.742187 27.375h22.238281c3.183594 0 6.222657-.640625 9.023438-1.753906-10.15625-3.9375-16.832031-14.308594-14.917969-25.621094zm0 0" fill="#f7d291"/><path d="m222.183594 59.179688c-9.921875-11.722657-44.429688-22.265626-61.464844 9.167968-17.1875 31.71875 5.394531 68.882813-.761719 101.035156-1.453125 7.589844 3.714844 15.351563 11.363281 16.417969 4.292969.601563 9.578126-2.976562 9.914063-11.992187.746094-20.128906-14.269531-81.007813 0-100.878906 18.703125-26.054688 40.949219-13.75 40.949219-13.75zm0 0" fill="#f7d291"/><path d="m256.585938 195.359375c-4.640626-12.253906-13.691407-14.480469-20.296876-16.105469-5.699218-1.398437-9.140624-2.246094-12.0625-8.144531-2.085937-4.210937 2.117188-20.917969 5.183594-33.117187 7.074219-28.121094 15.878906-63.117188-1.503906-83.65625-6.980469-8.25-22.644531-15.71875-39.074219-14.019532-3.234375.332032-6.859375 1.0625-10.625 2.457032-10.390625-25.273438-26.8125-35.613282-39.195312-39.808594-17.410157-5.898438-37.578125-2.8828128-53.945313 8.070312-19.390625 12.972656-33.667968 38.046875-39.171875 68.792969-7.347656 41.054687 1.390625 85.726563 24.050781 125.617187-7.125-4.789062-13.09375-7.757812-16.761718-9.378906-15.984375-7.058594-32.648438-3.5-43.484375 9.285156-12.058594 14.226563-12.953125 34.773438-2.226563 51.132813 8.40625 12.816406 21.257813 22.804687 34.863282 33.375 26.875 20.882813 52.257812 40.605469 46.160156 81.914063-3.023438 20.503906.15625 36.511718 9.460937 47.574218 6.300781 7.492188 14.082031 10.992188 19.875 12.628906-1.496093 9.679688-3.339843 20.238282-5.007812 29.796876-.863281 4.933593-1.695313 9.695312-2.441407 14.101562-1.507812 8.90625.992188 17.988281 6.851563 24.925781 6.015625 7.117188 14.867187 11.199219 24.285156 11.199219h22.238281c16.042969 0 29.503907-11.796875 31.3125-27.445312 10.78125-93.152344 33.0625-168.546876 47.808594-218.4375 12.3125-41.660157 17.59375-60.507813 13.707032-70.757813zm-66.214844-140.121094c11.703125-1.203125 22.480468 4.53125 26.085937 8.785157 12.40625 14.660156 4.640625 45.515624-1.59375 70.308593-2.121093 8.429688-3.984375 15.855469-5.09375 22.328125-15.453125-10.632812-30.601562-10.890625-41.5625-7.878906-.601562-7.636719-1.90625-15.285156-3.195312-22.828125-3.328125-19.460937-6.46875-37.847656 2.300781-54.03125 5.449219-10.054687 13.207031-15.667969 23.058594-16.683594zm-125.324219 100.328125c-6.984375-24.464844-8.613281-49.46875-4.382813-73.097656.625-3.503906 1.378907-6.910156 2.242188-10.21875 3.375-.597656 18.691406-2.820312 38.148438 2 .605468.148438 1.210937.222656 1.808593.222656 3.367188 0 6.429688-2.285156 7.273438-5.699218.996093-4.023438-1.457031-8.089844-5.476563-9.085938-15.160156-3.753906-28.230468-3.78125-36.464844-3.15625 6.121094-14.550781 14.800782-26.066406 25.210938-33.03125 12.519531-8.375 27.769531-10.742188 40.792969-6.328125 13.730469 4.652344 24.390625 16.183594 30.972656 33.425781-3.96875 3.5-7.757813 8.109375-11.046875 14.175782-2.867188 5.292968-4.757812 10.65625-5.925781 16.058593-2.53125-1.957031-5.117188-3.808593-7.75-5.53125-3.46875-2.269531-8.117188-1.296875-10.382813 2.171875-2.269531 3.464844-1.296875 8.113282 2.167969 10.382813 5.023437 3.285156 9.859375 7.105469 14.410156 11.328125.253907 9.800781 1.925781 19.625 3.578125 29.296875.511719 2.988281 1.015625 5.949219 1.472656 8.875-42.734374-7.511719-73.726562 9.265625-86.648437 18.210937zm-32.070313 107.261719c-5.125-4.664063-9.597656-9.449219-12.957031-14.570313-8.144531-12.417968-5.304687-25.628906 1.125-33.210937 3.101563-3.660156 11.84375-11.5 25.980469-5.257813 4.222656 1.863282 11.890625 5.761719 20.789062 12.640626-21.539062 11.851562-30.945312 29.234374-34.9375 40.398437zm43.820313 36.402344c-7.957031-7.769531-16.777344-14.628907-25.253906-21.214844-2.046875-1.589844-4.070313-3.167969-6.0625-4.738281 1.609375-6.898438 8.582031-28.273438 34.527343-40.144532 10.246094 10.332032 20.8125 24.566407 28.972657 43.855469-16.160157 5.382813-26.546875 15.316407-32.183594 22.242188zm10.21875 11.261719c3.75-5.089844 12.40625-14.640626 27.164063-19.417969.960937 3.015625 1.867187 6.125 2.703124 9.347656.023438.097656.0625.191406.089844.289063.503906 2.195312.988282 4.40625 1.433594 6.640624 3.261719 16.378907 4.886719 33.9375 4.914062 53.105469-7.390624-1.714843-13.863281-1.074219-18.898437.257813.25-21.007813-6.949219-37-17.40625-50.222656zm93.15625 172.335937c-.933594 8.078125-7.992187 14.167969-16.414063 14.167969h-22.238281c-4.992187 0-9.667969-2.140625-12.824219-5.882813-3.050781-3.605469-4.300781-8.128906-3.519531-12.738281.738281-4.382812 1.566407-9.117188 2.425781-14.019531 1.125-6.4375 2.328126-13.332031 3.457032-20.132813 7.773437-1.632812 29.972656-4.859375 53.625 4.699219-1.65625 11.015625-3.171875 22.324219-4.511719 33.90625zm6.902344-49.0625c-21.9375-8.042969-42.128907-6.976563-53.558594-5.246094.074219-.515625.15625-1.050781.226563-1.5625.578124-4.101562-2.28125-7.894531-6.382813-8.472656-.285156-.039063-.570313-.058594-.851563-.066406v-.003907c-.097656 0-10.140624-.484374-17.070312-8.722656-5.964844-7.09375-8.152344-17.980468-6.53125-32.375 2.5-1.421875 10.097656-4.863281 20.101562-1.324218-.214843 5.328124-.539062 10.773437-.984374 16.355468-.328126 4.132813 2.753906 7.746094 6.882812 8.074219.203125.015625.402344.023437.601562.023437 3.875 0 7.160157-2.980468 7.46875-6.90625 1.1875-14.925781 1.949219-32.207031.902344-50.863281 7.351563-1.484375 23.179688-3.710937 41.90625-.515625 4.089844.6875 7.960938-2.050781 8.65625-6.136718.695313-4.082032-2.050781-7.957032-6.132812-8.652344-19.761719-3.371094-36.5-1.457032-45.667969.25-1.074219-9.871094-2.714844-20.035156-5.113281-30.359375-.035156-.203125-.230469-.992188-.28125-1.1875-2.59375-10.910157-6.039063-21.996094-10.546875-33.101563 13.996093-3.316406 57.941406-10.796875 104.007812 11.730469-11.824219 40.292969-26.941406 94.308594-37.632812 159.0625zm41.933593-173.640625c-52.925781-24.917969-102-14.441406-114.53125-11.074219-5.246093-10.703125-11.566406-21.371093-19.164062-31.859375-10.691406-14.757812-19.164062-30.507812-25.289062-46.671875 7.128906-5.679687 38-27.320312 83.425781-17.535156.289062 6.597656-1.171875 17.640625-2.972657 22.4375-1.410156 3.765625.144532 8.121094 3.808594 9.777344 3.9375 1.78125 8.515625-.117188 10.078125-4.09375 2.105469-5.363281 3.28125-10.824219 3.820313-16.335938 2.375-1.019531 5.988281-2.226562 10.382812-2.554687 9.820313-.734375 20.570313 3.246094 28.988282 11.863281 1.789062 1.832031 3.253906 3.945313 4.566406 6.144531 5.984375 10.007813 14.355468 12.066406 20.585937 13.597656 6.082031 1.496094 8.085938 2.191407 9.855469 6.851563 2.207031 5.835937-5.695312 32.851563-13.554688 59.453125zm0 0"/></svg>