<svg id="Layer_1" height="512" viewBox="0 0 64 64" width="512" xmlns="http://www.w3.org/2000/svg" data-name="Layer 1"><path d="m39.1171 40.3482c3.1153-3.7646 6.8552-7.1524 9.2246-10.6665a14.1179 14.1179 0 0 0 2.0324-4.8264c-1.367-.5841-2.8426.47-4.161-.8487a2.2068 2.2068 0 0 1 -.188-.2531c-.2106.2855-.4222.5716-.6443.8644-2.7689 3.6495-6.7922 7.4018-10.2951 11.4042-3.5184 4.02-6.6111 8.3963-9.8894 11.6746-2.2443 2.2443-4.6 3.4664-6.2435 4.8665a68.933 68.933 0 0 1 -5.3288 4.5224c1.3823 1.4692 2.5118 3.3239 4.8665 2.8343 1.5838-.3294 3.2884-2.239 5.9163-4.3309 1.5535-1.2367 3.93-2.14 5.9872-4.197 3.0051-3.005 5.5941-7.2627 8.7231-11.0438z" fill="#42a047"/><path d="m46.03 23.75c-.22.29-.43.57-.65.87-2.77 3.65-6.79 7.4-10.29 11.4-3.52 4.02-6.62 8.4-9.89 11.68-2.25 2.24-4.6 3.46-6.25 4.86-2.78 2.37-4.67 4.42-6.2 4.98-2.39.88-3.09-.89-4.24-2.05-1.16-1.15-2.93-1.85-2.05-4.24.56-1.53 2.61-3.42 4.98-6.2 1.4-1.65 2.62-4 4.86-6.25 3.28-3.27 7.66-6.37 11.68-9.88 4-3.51 7.75-7.53 11.4-10.3.29-.22.58-.43.87-.65 1.49 1.15 3.16-.33 4.63 1.14v.01c1.46 1.48-.01 3.14 1.15 4.63z" fill="#42a047"/><path d="m46.03 23.75c-.22.29-.43.57-.65.87-2.77 3.65-6.79 7.4-10.29 11.4-3.52 4.02-6.62 8.4-9.89 11.68-2.25 2.24-4.6 3.46-6.25 4.86-2.78 2.37-4.67 4.42-6.2 4.98-2.39.88-3.09-.89-4.24-2.05l36.37-36.37c1.46 1.48-.01 3.14 1.15 4.63z" fill="#378e43"/><path d="m39.3821 18.6192c.2932-.2224.58-.4343.8656-.6452a2.2007 2.2007 0 0 1 -.26-.1929c-1.3155-1.3155-.2625-2.79-.8436-4.1549a14.1147 14.1147 0 0 0 -4.8257 2.0321c-3.5141 2.3694-6.9019 6.1093-10.6665 9.2246-3.7811 3.129-8.0388 5.718-11.0438 8.7231-2.0573 2.0573-2.96 4.4337-4.197 5.9872-2.092 2.6279-4.0011 4.3325-4.3311 5.9168-.49 2.3547 1.3651 3.4842 2.8343 4.8665a68.933 68.933 0 0 1 4.5224-5.3288c1.4-1.6438 2.6222-3.9992 4.8665-6.2435 3.2783-3.2783 7.6545-6.371 11.6746-9.8894 4.0022-3.5034 7.7548-7.5267 11.4043-10.2956z" fill="#378e43"/><path d="m60 7.56a19.67 19.67 0 0 0 -5.49 11.71 8.7444 8.7444 0 0 1 -2.51 5.18l-.89.89c-1.56-1.55-3.34.22-4.9-1.33-1.55-1.56.21-3.33-1.33-4.89v-.01c-1.56-1.55-3.34.23-4.89-1.33-1.56-1.55.22-3.33-1.33-4.89l.89-.89a8.7444 8.7444 0 0 1 5.18-2.51 21.0467 21.0467 0 0 0 6.33-1.76 18.6144 18.6144 0 0 0 5.38-3.73z" fill="#317e3d"/><path d="m60 7.56a19.67 19.67 0 0 0 -5.49 11.71 8.7444 8.7444 0 0 1 -2.51 5.18l-.89.89c-1.56-1.55-3.34.22-4.9-1.33-1.55-1.56.21-3.33-1.33-4.89l13.34-13.34z" fill="#1e5f30"/><path d="m57.1494 3.293a1.0292 1.0292 0 0 0 -1.414 0 18.55 18.55 0 0 1 -11.1182 5.2021 10.4386 10.4386 0 0 0 -6.6669 3.691.983.983 0 0 0 -.2746.8021c-4.2771 1.311-6.9765 4.2253-10.3808 7.293a79.2511 79.2511 0 0 1 -8.8906 7.3525 56.1083 56.1083 0 0 0 -6.5029 5.2652c-2.5823 2.6632-3.558 5.7157-6.0129 8.144-3.5874 3.6924-3.9806 6.615-.2332 9.546-1.3473 3.0236.7126 4.3574 2.1436 5.6127 1.3736 1.7167 2.9547 3.4238 5.6127 2.1437 4.27 5.36 7.4118 1.5393 11.6186-1.9744 1.9694-1.4613 4.0971-2.2662 6.07-4.2718a56.0963 56.0963 0 0 0 5.2685-6.5073 79.1213 79.1213 0 0 1 7.3513-8.8877c3.0675-3.4042 5.9816-6.1029 7.2922-10.38a.9161.9161 0 0 0 .8025-.274 10.4431 10.4431 0 0 0 3.69-6.667 18.5586 18.5586 0 0 1 5.2023-11.1189 1 1 0 0 0 0-1.4141zm-52.0894 42.4204c.36-1.48 2.8819-3.8139 4.1337-5.4976 1.4642-1.9065 2.2442-4.0428 4.1222-5.9028 3.0654-3.0437 7.4682-5.73 10.9736-8.66 4.7084-3.6723 8.3944-8.941 14.0449-10.7817a4.859 4.859 0 0 0 .4287 2.9619c-3.851 2.98-7.6425 6.9925-11.4434 10.3281-3.7761 3.317-8.3165 6.5375-11.7226 9.9351a38.2153 38.2153 0 0 0 -4.1693 5.3366c-1.3922 1.8827-3.3092 3.7133-4.68 5.4506-1.2687-1.1221-1.9614-1.8578-1.6878-3.1702zm4.8662 9.8784c-1.1956-1.7131-3.8062-2.2854-2.1912-4.6572 1.0177-1.5235 3.0342-3.53 4.4632-5.2388 1.6749-2.027 2.7435-4.1325 4.8126-6.185 3.4255-3.397 7.8774-6.5437 11.623-9.8419 3.8782-3.3637 7.69-7.5152 11.6631-10.4843 1.33.71 2.8981-.27 3.8721.6356.9084.9782-.0735 2.5524.644 3.8857-2.8847 3.8779-7.1236 7.7933-10.48 11.6574-3.2995 3.7454-6.5049 8.2738-9.8437 11.6265-2.0514 2.0672-4.16 3.138-6.1846 4.8119-1.7088 1.4282-3.7223 3.45-5.241 4.4647-1.288.8226-2.1809.67-3.1379-.6746zm37.5865-26.4692c-2.4138 3.5552-6.2779 7.0638-9.166 10.5879-2.929 3.5041-5.6168 7.9106-8.66 10.9746-2.5709 2.4169-5.6775 3.5067-8.036 5.9132-2.6206 2.3563-4.2144 3.6086-6.5343.6536 1.4464-1.1555 2.9243-2.61 4.4854-3.9277 2.0657-1.6811 4.1676-2.7628 6.3017-4.92 3.4044-3.4115 6.6033-7.9362 9.9356-11.7231 3.3886-3.8837 7.1962-7.393 10.3281-11.4449a4.9788 4.9788 0 0 0 2.9619.4278 12.7026 12.7026 0 0 1 -1.6164 3.4586zm6.0059-9.9726a7.8412 7.8412 0 0 1 -2.5137 4.8809 4.2144 4.2144 0 0 0 -2.4112-.354c-.8038.043-1.1952.0867-1.6689-.38-.0342-.0507-.0667-.1023-.1068-.1513a2.0874 2.0874 0 0 1 -.2565-1.53 3.8679 3.8679 0 0 0 -.9786-3.2094 3.7655 3.7655 0 0 0 -3.2079-.9762 2.0882 2.0882 0 0 1 -1.5186-.2495l-.0006-.0008a1.2334 1.2334 0 0 0 -.1612-.1055c-.8929-.9614.0588-2.5281-.6323-3.8427-.0336-.079-.0514-.1574-.0932-.2364a7.8422 7.8422 0 0 1 4.8809-2.5136 20.6726 20.6726 0 0 0 11.5738-5.0855l2.1807 2.18a20.6691 20.6691 0 0 0 -5.0859 11.574z"/></svg>