<svg height="511pt" viewBox="-28 1 511 511.999" width="511pt" xmlns="http://www.w3.org/2000/svg"><path d="m52.09375 162.863281c-45.183594 21.015625-56.820312 91.777344-25.996094 158.046875 24.929688 53.589844 69.996094 87.832032 110.222656 87.855469 18.523438.011719 35.273438 10.984375 43.085938 27.777344-7.8125-16.796875-5.414062-36.675781 6.507812-50.847657 25.894532-30.785156 28.738282-87.308593 3.808594-140.902343-30.828125-66.269531-92.445312-102.949219-137.628906-81.929688zm0 0" fill="#96cd82"/><path d="m161.117188 389.789062c-.226563-.425781-.339844-.875-.550782-1.304687-41.546875 1.253906-90.230468-29.160156-121.753906-80.457031-16.960938-27.605469-26.175781-56.890625-28.078125-83.773438-4.894531 28.734375-.171875 63.257813 15.367187 96.652344 24.929688 53.59375 69.996094 87.832031 110.222657 87.859375 18.519531.011719 35.269531 10.980469 43.082031 27.777344-2.539062-5.464844-3.925781-11.246094-4.3125-17.046875-4.492188-9.976563-8.808594-20.046875-13.976562-29.707032zm0 0" fill="#7dbe81"/><path d="m394.625 92.390625c-54.136719-24.636719-127.316406 19.757813-163.449219 99.160156-29.21875 64.207031-25.265625 131.644531 5.945313 168.128907 14.371094 16.800781 17.433594 40.5 8.277344 60.621093 9.15625-20.121093 29.039062-33.382812 51.144531-33.578125 48.011719-.429687 101.457031-41.746094 130.679687-105.957031 36.132813-79.398437 21.539063-163.738281-32.597656-188.375zm0 0" fill="#96cd82"/><path d="m207.621094 409.742188c0-24.683594 14.070312-47.355469 36.445312-57.777344 48.589844-22.640625 83.796875-89.34375 83.796875-168.109375 0-97.398438-53.832031-176.355469-120.242187-176.355469-66.40625 0-120.242188 78.957031-120.242188 176.355469 0 78.765625 35.207032 145.46875 83.796875 168.109375 22.375 10.421875 36.445313 33.09375 36.445313 57.777344zm0 0" fill="#96cd82"/><path d="m208.421875 345.171875c-44.046875-23.246094-81.054687-80.625-92.597656-152.0625-10.082031-62.386719 1.632812-120.738281 27.726562-158.460937-33.742187 31.234374-56.171875 86.363281-56.171875 149.207031 0 78.761719 35.207032 145.46875 83.800782 168.109375 22.371093 10.421875 36.441406 33.09375 36.441406 57.777344 0-3.253907.324218-6.449219.800781-9.609376zm0 0" fill="#7dbe81"/><path d="m452.292969 165.875c-6.792969-38.632812-26.476563-67.117188-55.433594-80.199219-23.835937-10.769531-52-9.808593-79.996094 2.570313-22.859375-54.390625-63.875-88.246094-109.242187-88.246094-34.675782 0-67.070313 19.507812-91.21875 54.929688-17.699219 25.957031-29.421875 58.269531-34.15625 93.351562-11.582032-.410156-22.578125 1.699219-32.734375 6.289062-24.503907 11.070313-41.152344 35.117188-46.882813 67.714844-5.546875 31.546875-.171875 67.578125 15.136719 101.457032 25.253906 55.898437 72.289063 93.804687 117.03125 94.324218 15.597656.179688 29.898437 9.644532 36.433594 24.105469.199219.441406 29.550781 65.402344 29.550781 65.402344l.003906-.003907c1.171875 2.609376 3.789063 4.429688 6.835938 4.429688 3.042968 0 5.652344-1.8125 6.828125-4.414062h.007812l35.488281-78.542969c0-.003907 0-.003907.003907-.007813 8.085937-17.894531 25.789062-29.605468 45.101562-29.832031 53.15625-.617187 109.085938-45.78125 139.179688-112.378906 18.257812-40.40625 24.671875-83.359375 18.0625-120.949219zm-198.773438 218.828125c-2.242187-8.308594-6.121093-16.195313-11.578125-23.109375 1.703125-1.035156 3.464844-1.980469 5.292969-2.832031 9.015625-4.199219 17.519531-9.738281 25.433594-16.433594zm-23.203125-13.617187c11.34375 14.527343 13.726563 34.585937 5.964844 51.769531l-21.160156 46.832031v-59.945312c0-14.625 5.636718-28.40625 15.195312-38.65625zm-46.691406 61.703124c-4.859375-13.710937-2.167969-29.105468 7.261719-40.066406.292969-.339844 2.371093-2.785156 4.601562-5.433594 2.996094 6.960938 4.632813 14.585938 4.632813 22.453126v59.765624zm-40.402344-89.925781c7.726563 6.453125 16.015625 11.8125 24.789063 15.898438 7.570312 3.527343 14.09375 8.707031 19.253906 14.996093-2.667969 3.191407-6.921875 8.222657-7.75 9.183594-4.589844 5.335938-8.015625 11.433594-10.238281 17.914063zm56.898438 22.980469c-6.742188-8.722656-15.5-15.890625-25.777344-20.679688-22.28125-10.378906-42.378906-31.546874-56.597656-59.597656-11.183594-22.066406-18.421875-47.292968-21.363282-74.089844l103.738282 103.742188zm-65.148438 37.222656c-18.214844-.210937-38.296875-8.410156-56.542968-23.085937-19.316407-15.535157-35.566407-37.117188-46.996094-62.414063-14.078125-31.160156-19.0625-64.078125-14.03125-92.683594 4.84375-27.5625 18.441406-47.679687 38.285156-56.644531 7.722656-3.492187 16.113281-5.167969 24.988281-5.003906-.523437 6.800781-.796875 13.679687-.796875 20.621094 0 35.660156 7.035156 69.382812 19.488282 97.988281.015624.035156 14.4375 32.148438 14.4375 32.148438l-45.078126-17.550782c-3.863281-1.503906-8.210937.40625-9.710937 4.265625-1.503906 3.859375.40625 8.207031 4.265625 9.710938l59.289062 23.085937 33.242188 73.980469c-6.507812-2.78125-13.570312-4.332031-20.839844-4.417969zm285.585938-122.417968c-13.820313 30.59375-33.484375 56.699218-56.859375 75.5-22.171875 17.835937-46.613281 27.796874-68.820313 28.058593-9.753906.113281-19.1875 2.476563-27.691406 6.675781l42.066406-93.101562 93.570313-35.328125c3.875-1.464844 5.828125-5.792969 4.367187-9.667969-1.464844-3.875-5.789062-5.832031-9.667968-4.367187l-79.535157 30.03125 55.597657-123.042969c1.707031-3.777344.027343-8.21875-3.746094-9.925781-3.777344-1.703125-8.21875-.027344-9.921875 3.746093l-25.429688 56.277344c.574219-7.117187.875-14.339844.875-21.648437 0-11.113281-.691406-22.246094-2.050781-33.085938-.519531-4.109375-4.273438-7.03125-8.378906-6.507812-4.109375.515625-7.019532 4.269531-6.503906 8.378906 1.28125 10.21875 1.933593 20.722656 1.933593 31.214844 0 37.023437-7.90625 72.191406-22.867187 101.710937-14.21875 28.050782-34.316406 49.21875-56.597656 59.597656-10.277344 4.789063-19.035157 11.957032-25.777344 20.679688v-114.753906l77.964844-77.964844c2.929687-2.929688 2.929687-7.675781 0-10.605469-2.929688-2.929687-7.675782-2.929687-10.605469 0l-67.359375 67.359375v-150.234375c0-4.140625-3.355469-7.5-7.5-7.5-4.140625 0-7.5 3.359375-7.5 7.5v94.121094l-43.308594-43.3125c-2.929688-2.925781-7.679688-2.925781-10.605469 0-2.929687 2.929687-2.929687 7.679687 0 10.609375l53.914063 53.914062v99.03125l-105.175782-105.175781c-.03125-1.65625-.066406-3.3125-.066406-4.976562 0-93.109375 50.578125-168.855469 112.742188-168.855469 22.1875 0 43.703125 9.753906 62.214844 28.210938 18.566406 18.507812 32.960937 44.433593 41.628906 74.972656 1.128906 3.988281 5.277344 6.296875 9.261718 5.167968 3.984376-1.128906 6.296876-5.277343 5.167969-9.261718-1.140625-4.019532-2.375-7.953125-3.691406-11.804688 24.28125-10.925781 48.414063-12.007812 68.480469-2.941406 51.195312 23.132812 64.59375 104.464844 29.875 181.304688zm0 0"/></svg>