<svg height="512pt" viewBox="-115 0 512 512.00052" width="512pt" xmlns="http://www.w3.org/2000/svg"><path d="m239.179688 11.457031c-6.945313 6.242188-19.824219 18.53125-31.832032 33.800781l14.566406 39.238282 33.914063-26.152344c-2.292969-19.058594-6.800781-36.007812-9.441406-44.863281-.929688-3.128907-4.777344-4.207031-7.207031-2.023438zm0 0" fill="#afdc82"/><path d="m231.125 72.863281 27.328125-18.132812c2.566406-1.703125 5.992187-.320313 6.757813 2.664062 4.511718 17.558594 6.277343 38.671875 1.9375 54.070313l-38.835938 7.105468zm0 0" fill="#96cd82"/><path d="m221.769531 70.230469-13.84375-29.734375c-1.300781-2.789063-4.941406-3.398438-7.152343-1.253906-13.015626 12.621093-25.542969 29.710937-29.878907 45.109374l29.417969 26.332032zm0 0" fill="#96cd82"/><path d="m235.304688 115.335938c3.871093-14.640626 3.476562-30.382813-2.113282-43.964844-1.296875-3.140625-2.878906-5.953125-4.585937-8.585938-2.832031 1.355469-5.652344 2.925782-8.398438 4.929688-11.746093 8.585937-20.253906 21.644531-24.628906 35.992187l12.894531 31.085938zm0 0" fill="#afdc82"/><path d="m274.339844 111.007812c-2.605469-1.277343-5.316406-2.414062-8.210938-3.230468-21.199218-5.972656-43.464844 3.085937-54.601562 20.886718-.796875 1.273438-2.699219.738282-2.714844-.765624-.214844-21-14.503906-40.351563-35.703125-46.324219-2.894531-.8125-5.796875-1.257813-8.691406-1.527344-1.277344 2.605469-2.414063 5.316406-3.230469 8.210937-5.609375 19.914063 2.144531 40.394532 17.878906 51.972657 5.359375 3.941406 7.410156 11.003906 5.605469 17.40625l-93.296875 331.199219c-1.238281 4.40625 1.324219 8.980468 5.726562 10.222656l15.945313 4.492187c4.40625 1.238281 8.980469-1.324219 10.222656-5.726562l93.296875-331.203125c1.800782-6.40625 7.238282-11.359375 13.867188-11.921875 19.460937-1.660157 36.765625-15.082031 42.375-35 .816406-2.894531 1.261718-5.796875 1.53125-8.691407zm0 0" fill="#b4e6a0"/><path d="m179.066406 140.226562c5.359375 3.941407 7.410156 11.003907 5.605469 17.410157l-93.296875 331.199219c-1.238281 4.402343 1.324219 8.980468 5.730469 10.21875l8.113281 2.285156 104.796875-372.023438c-.636719-.117187-1.195313-.609375-1.203125-1.417968-.214844-21-14.5-40.351563-35.703125-46.324219-2.894531-.816407-5.796875-1.257813-8.6875-1.527344-1.28125 2.605469-2.417969 5.316406-3.234375 8.207031-5.609375 19.917969 2.144531 40.398438 17.878906 51.972656zm0 0" fill="#96d7a5"/><path d="m35.265625 14.027344c-2.671875 8.949218-7.257813 26.148437-9.542969 45.441406l32.886719 25.890625 15.304687-40c-11.894531-15.070313-24.578124-27.179687-31.445312-33.363281-2.425781-2.183594-6.269531-1.097656-7.203125 2.03125zm0 0" fill="#afdc82"/><path d="m60.402344 70.628906 13.867187-29.722656c1.300781-2.789062 4.945313-3.394531 7.15625-1.25 13.003907 12.632812 25.519531 29.730469 29.84375 45.132812l-29.4375 26.308594zm0 0" fill="#96cd82"/><path d="m51.046875 73.257812-27.3125-18.15625c-2.566406-1.703124-5.992187-.324218-6.761719 2.660157-4.523437 17.554687-6.304687 38.667969-1.976562 54.070312l38.832031 7.132813zm0 0" fill="#96cd82"/><path d="m86.113281 104.691406c-4.328125-14.511718-12.875-27.738281-24.722656-36.410156-2.746094-2.007812-5.5625-3.582031-8.394531-4.9375-1.707032 2.632812-3.292969 5.441406-4.589844 8.582031-5.550781 13.449219-6.003906 29.027344-2.253906 43.554688l27.207031 19.804687zm0 0" fill="#afdc82"/><path d="m117.167969 80.652344c-2.890625.265625-5.796875.707031-8.691407 1.519531-21.203124 5.957031-35.480468 25.289063-35.707031 46.289063-.015625 1.503906-1.917969 2.039062-2.71875.761718-11.128906-17.808594-33.40625-26.871094-54.613281-20.917968-2.894531.816406-5.605469 1.949218-8.210938 3.226562.265626 2.894531.707032 5.796875 1.519532 8.691406 5.59375 19.917969 22.890625 33.355469 42.351562 35.03125 6.628906.570313 12.0625 5.527344 13.859375 11.929688l93.054688 331.269531c1.234375 4.40625 5.808593 6.972656 10.214843 5.738281l15.949219-4.480468c4.402344-1.238282 6.972657-5.8125 5.734375-10.214844l-93.054687-331.273438c-1.796875-6.402344.257812-13.464844 5.621093-17.402344 15.742188-11.5625 23.511719-32.039062 17.917969-51.957031-.8125-2.894531-1.949219-5.605469-3.226562-8.210937zm0 0" fill="#b4e6a0"/><path d="m51.101562 155.253906c6.625.570313 12.058594 5.527344 13.855469 11.929688l93.054688 331.269531c1.238281 4.40625 5.8125 6.972656 10.214843 5.738281l8.117188-2.28125-104.523438-372.101562c-.601562.230468-1.335937.101562-1.769531-.585938-11.128906-17.808594-33.40625-26.871094-54.613281-20.917968-2.894531.816406-5.605469 1.949218-8.210938 3.226562.265626 2.894531.707032 5.796875 1.519532 8.691406 5.597656 19.921875 22.890625 33.355469 42.355468 35.03125zm0 0" fill="#96d7a5"/><path d="m277.367188 104.78125c-.507813-.25-1.003907-.46875-1.5-.699219 2.523437-14.96875.488281-33.277343-6.089844-54.570312-.699219-2.269531-2.433594-4.070313-4.671875-4.859375-1.503907-.53125-3.109375-.550782-4.601563-.113282-3.5-21.875-9.160156-38.648437-9.433594-39.457031-.796874-2.335937-2.695312-4.132812-5.074218-4.800781-2.375-.667969-4.929688-.125-6.828125 1.457031-.652344.542969-14.21875 11.917969-28.597657 28.777344-1.046874-1.152344-2.433593-1.972656-3.992187-2.300781-2.320313-.488282-4.738281.144531-6.515625 1.714844-16.699219 14.757812-27.96875 29.332031-33.609375 43.425781-.542969-.066407-1.082031-.132813-1.644531-.183594-3.097656-.292969-6.054688 1.371094-7.421875 4.164063-1.652344 3.367187-2.863281 6.472656-3.714844 9.488281-6.242187 22.226562 2.078125 46.351562 20.703125 60.03125 2.707031 1.988281 3.847656 5.738281 2.835938 9.332031l-36.429688 129.710938-3.863281-13.761719c-4.277344-15.242188 5.699219-29.734375 5.882812-29.996094 2.394531-3.363281 1.617188-8.035156-1.738281-10.441406-3.367188-2.414063-8.054688-1.644531-10.46875 1.722656-.171875.242187-1.488281 2.109375-3.09375 5.183594l-11.480469-40.875c-1.121093-3.988281-5.261719-6.316407-9.25-5.195313s-6.3125 5.261719-5.191406 9.25l81.371094 289.738282c.117187.417968-.125.851562-.539063.96875l-15.949218 4.476562c-.417969.117188-.851563-.125-.96875-.542969l-93.039063-331.28125c-2.6875-9.574219-10.902344-16.554687-20.4375-17.378906-16.832031-1.449219-31.210937-13.339844-35.773437-29.585937-.183594-.660157-.351563-1.335938-.5-2.035157.675781-.238281 1.339843-.445312 2-.632812 19.390624-5.445313 40.15625 4.34375 48.300781 22.769531 1.511719 3.414062 5.296875 5.199219 8.886719 4.1875l1.058593-.296875c3.59375-1.007813 5.898438-4.503906 5.410157-8.203125-2.640626-19.972656 9.996093-39.140625 29.386718-44.589844.65625-.183594 1.332032-.347656 2.035156-.5.238282.679688.445313 1.339844.628907 2 4.566406 16.246094-1.519531 33.882813-15.136719 43.886719-7.714844 5.664063-11.089844 15.902344-8.402344 25.476563l2.8125 10.003906c1.117188 3.988281 5.257813 6.316406 9.25 5.195312 3.984375-1.121094 6.3125-5.261718 5.191406-9.25l-2.808593-10.003906c-1.011719-3.59375.128906-7.34375 2.835937-9.332031 18.625-13.679688 26.941406-37.804688 20.703125-60.03125-.851562-3.019531-2.0625-6.121094-3.714843-9.488281-1.367188-2.792969-4.320313-4.457032-7.421876-4.167969-.5625.054687-1.101562.121093-1.644531.183593-5.636719-14.09375-16.910156-28.667968-33.609375-43.421874-1.777344-1.570313-4.195312-2.207032-6.515625-1.71875-1.558593.332031-2.945312 1.152343-3.992187 2.304687-14.378906-16.859375-27.949219-28.234375-28.597656-28.777344-1.898438-1.582031-4.453126-2.125-6.828126-1.457031-2.378906.667969-4.277343 2.460938-5.074218 4.800781-.273438.808594-5.9375 17.582031-9.433594 39.457031-1.492188-.4375-3.097656-.417968-4.601562.109376-2.238282.789062-3.972657 2.59375-4.671876 4.859374-6.578124 21.292969-8.613281 39.605469-6.089843 54.574219-.496094.226563-.992188.449219-1.5.699219-2.792969 1.371094-4.453125 4.324219-4.167969 7.421875.34375 3.730469.921875 7.015625 1.769531 10.03125 6.242188 22.226563 25.90625 38.492187 48.929688 40.476563 3.347656.289062 6.273437 2.894531 7.28125 6.488281l7.46875 26.589843c-2.972657-1.785156-5.066407-2.695312-5.339844-2.8125-3.800781-1.609374-8.179687.160157-9.804687 3.957032-1.628907 3.796875.132812 8.199218 3.921874 9.84375.160157.070312 16.335938 7.242187 20.640626 22.542968l12.980468 46.222657c-2.972656-1.785157-5.066406-2.699219-5.34375-2.8125-3.800781-1.613281-8.175781.15625-9.804687 3.953125-1.625 3.796875.136719 8.199218 3.921875 9.84375.164062.070312 16.339844 7.246094 20.644531 22.550781l12.976563 46.214844c-2.972657-1.785157-5.066407-2.699219-5.339844-2.8125-3.804688-1.613281-8.179688.15625-9.804688 3.953125-1.628906 3.796875.132813 8.199218 3.921875 9.84375.121094.054687 9.25 4.101562 15.625 12.578125l-5.40625 19.246093c-1.609375-3.070312-2.921875-4.941406-3.097656-5.179687-2.40625-3.355469-7.0625-4.121094-10.429687-1.730469-3.367188 2.394532-4.15625 7.070313-1.777344 10.445313.105468.148437 10.179687 14.691406 5.886718 30l-15.683593 55.832031c-2.351563 8.378906 2.550781 17.109375 10.929687 19.460938l15.949219 4.480468c1.421875.398438 2.855469.589844 4.261719.589844 6.898437 0 13.25-4.5625 15.203125-11.519531l10.269531-36.566407 10.269531 36.570313c1.957031 6.957031 8.308594 11.515625 15.203125 11.515625 1.410156 0 2.839844-.191406 4.261719-.589844l15.949219-4.476562c8.378906-2.355469 13.28125-11.085938 10.929687-19.464844l-15.679687-55.828125c-4.292969-15.292969 5.761718-29.832031 5.882812-30 2.394532-3.363281 1.617188-8.03125-1.738281-10.441406-3.367187-2.414063-8.050781-1.644531-10.46875 1.722656-.171875.242187-1.484375 2.109375-3.09375 5.183594l-5.753906-20.488281c2.902343-6.339844 11.621093-10.050782 14.996093-10.996094 3.984376-1.089844 6.339844-5.203125 5.261719-9.191406-1.082031-4-5.199219-6.363282-9.199219-5.28125-.289062.078124-2.746093.765624-6.0625 2.265624l12.730469-45.328124c4.28125-15.246094 20.347657-22.425782 20.640625-22.554688 3.796875-1.625 5.566406-6.015625 3.953125-9.820312-1.617187-3.8125-6.019531-5.59375-9.832031-3.976563-.277344.113281-2.371094 1.027344-5.34375 2.8125l12.980469-46.222656c4.292969-15.257813 20.394531-22.433594 20.640625-22.542969 3.796875-1.625 5.5625-6.015625 3.949218-9.820312-1.613281-3.8125-6.019531-5.59375-9.832031-3.976563-.273437.113281-2.367187 1.027344-5.339843 2.8125l7.46875-26.59375c1.007812-3.59375 3.933593-6.199219 7.28125-6.488281 23.023437-1.980469 42.6875-18.25 48.929687-40.472656.847656-3.019532 1.425781-6.300782 1.769531-10.035157.285156-3.101562-1.375-6.054687-4.167968-7.425781zm-257.15625-5.117188c-1.300782-9.957031-.230469-22.121093 3.171874-35.902343l15.300782 10.328125c-2.980469 8.046875-4.136719 16.6875-3.414063 25.339844-4.945312-.601563-10.007812-.542969-15.058593.234374zm47.574218 15.328126c-4.882812-4.753907-10.582031-8.558594-16.769531-11.261719-2.121094-10.140625-.730469-20.542969 3.976563-29.488281.277343-.53125.578124-1.0625.898437-1.597657.550781.289063 1.082031.585938 1.597656.894531 8.6875 5.195313 15.28125 13.34375 18.75 23.109376-3.875 5.527343-6.761719 11.742187-8.453125 18.34375zm32.636719-37.855469c-4.714844 1.96875-9.066406 4.550781-12.972656 7.636719-3.898438-7.78125-9.402344-14.5625-16.15625-19.890626l7.714843-16.761718c10.085938 9.996094 17.339844 19.832031 21.414063 29.015625zm-59.011719-56.050781c5.992188 5.722656 14.316406 14.214843 22.375 24.234374l-5.488281 11.921876c-.78125-.324219-1.582031-.640626-2.414063-.949219-3.050781-1.132813-6.484374-.164063-8.496093 2.386719-.5625.710937-1.089844 1.414062-1.597657 2.109374l-10.863281-7.332031c1.660157-12.765625 4.347657-24.363281 6.484375-32.371093zm74.660156 475.339843c-.117187.417969-.550781.660157-.964843.542969l-15.949219-4.480469c-.417969-.117187-.660156-.546875-.542969-.964843l24.960938-88.878907 9.417969 33.535157zm130.226563-396.996093c.722656-8.652344-.433594-17.292969-3.414063-25.339844l15.300782-10.328125c3.402344 13.78125 4.472656 25.945312 3.171875 35.902343-5.054688-.777343-10.113281-.835937-15.058594-.234374zm-22.222656-25.890626c.515625-.308593 1.046875-.605468 1.597656-.894531.324219.53125.621094 1.0625.902344 1.597657 4.707031 8.945312 6.09375 19.347656 3.972656 29.488281-6.183594 2.703125-11.886719 6.507812-16.765625 11.261719-1.695312-6.601563-4.582031-12.816407-8.457031-18.34375 3.472656-9.765626 10.0625-17.914063 18.75-23.109376zm16.078125-52.453124c2.136718 8.011718 4.824218 19.605468 6.488281 32.371093l-10.863281 7.332031c-.507813-.695312-1.039063-1.398437-1.597656-2.109374-2.015626-2.550782-5.445313-3.515626-8.496094-2.386719-.835938.3125-1.636719.625-2.414063.949219l-5.488281-11.921876c8.058594-10.019531 16.382812-18.511718 22.371094-24.234374zm-37.59375 27.035156 7.714844 16.761718c-6.757813 5.328126-12.261719 12.109376-16.15625 19.890626-3.90625-3.085938-8.257813-5.667969-12.976563-7.636719 4.078125-9.183594 11.332031-19.019531 21.417969-29.015625zm62.765625 70.058594c-4.566407 16.246093-18.941407 28.136718-35.777344 29.585937-9.53125.824219-17.746094 7.804687-20.433594 17.378906l-51.121093 182.023438-9.417969-33.53125 43.078125-153.394531c2.691406-9.574219-.6875-19.8125-8.398438-25.476563-13.621094-10.003906-19.703125-27.640625-15.140625-43.886719.1875-.660156.394531-1.320312.632813-2 .703125.152344 1.378906.316406 2.035156.503906 19.390625 5.445313 32.027344 24.613282 29.386719 44.585938-.488281 3.699219 1.816406 7.195312 5.410156 8.203125l1.054687.296875c3.59375 1.011719 7.378907-.773438 8.886719-4.1875 8.148438-18.425781 28.917969-28.214844 48.304688-22.769531.660156.1875 1.324219.394531 2 .632812-.152344.699219-.316407 1.378907-.5 2.035157zm0 0"/></svg>