<svg height="511pt" viewBox="-30 1 511 511.99904" width="511pt" xmlns="http://www.w3.org/2000/svg"><path d="m175.179688 70.179688-17.074219-37.117188c-8-17.382812-27.148438-26.710938-45.765625-22.296875l-7.078125 1.675781c12.953125-3.070312 25.945312 4.941406 29.015625 17.894532l11.121094 46.90625zm0 0" fill="#afdc82"/><path d="m204.863281 92.992188c.988281-16.132813-13.898437-28.582032-29.625-24.847657l-28.808593 6.84375c-14.679688 3.488281-24.96875 16.648438-24.714844 31.734375 1.492187 88.992188 28.167968 374.421875 311.152344 336.671875 7.617187-1.015625 12.769531-8.300781 10.992187-15.78125-1.367187-5.761719-6.515625-9.746093-12.4375-9.875-199.671875-4.300781-227.859375-188.027343-227.601563-290.320312.039063-16.003907 1.042969-34.425781 1.042969-34.425781zm0 0" fill="#e6646e"/><path d="m152.855469 81.375c-.082031-2.796875.265625-5.484375.796875-8.101562l-7.222656 1.714843c-14.679688 3.484375-24.96875 16.648438-24.714844 31.734375 1.453125 86.726563 26.867187 359.976563 290.09375 338.878906-229.613282-9.882812-256.375-276.707031-258.953125-364.226562zm0 0" fill="#dc4655"/><path d="m133.414062 110.828125c4.6875-15.46875-6.917968-31.015625-23.082031-31.015625h-29.609375c-15.089844 0-28.140625 10.425781-31.382812 25.164062-19.109375 86.929688-59.109375 370.796876 224.9375 399.457032 7.644531.769531 14.34375-5.125 14.34375-12.8125 0-5.921875-4.089844-10.988282-9.820313-12.480469-193.273437-50.324219-178.246093-235.59375-154.359375-335.058594 3.738282-15.5625 8.972656-33.253906 8.972656-33.253906zm0 0" fill="#e6646e"/><path d="m85.496094 87.511719c.566406-2.742188 1.527344-5.277344 2.648437-7.699219h-7.421875c-15.089844 0-28.140625 10.425781-31.382812 25.164062-18.625 84.71875-57.035156 356.441407 203.941406 396.742188-221.113281-62.675781-185.496094-328.460938-167.785156-414.207031zm0 0" fill="#dc4655"/><path d="m110.332031 79.8125-8.054687-40.058594c-3.773438-18.757812-20.25-32.253906-39.386719-32.253906h-7.269531c13.308594 0 24.101562 10.792969 24.101562 24.105469v48.207031zm0 0" fill="#afdc82"/><path d="m92.457031 326.878906c-1.113281-3.988281-5.246093-6.320312-9.238281-5.207031-3.992188 1.117187-6.320312 5.253906-5.207031 9.242187 2.363281 8.46875 5.078125 16.777344 8.070312 24.691407 1.136719 3.003906 3.988281 4.851562 7.019531 4.851562.878907 0 1.777344-.15625 2.648438-.488281 3.875-1.464844 5.828125-5.792969 4.363281-9.667969-2.832031-7.5-5.410156-15.378906-7.65625-23.421875zm0 0"/><path d="m450.570312 425.738281c-2.140624-9.007812-10.1875-15.441406-19.574218-15.640625-84.535156-1.828125-145.84375-36.980468-182.226563-104.484375-31.417969-58.292969-38.019531-129.164062-38.023437-178.351562 0-4.144531-3.359375-7.5-7.5-7.5-4.144532 0-7.5 3.359375-7.5 7.5.003906 50.914062 6.917968 124.417969 39.820312 185.46875 39.132813 72.605469 104.773438 110.410156 195.105469 112.363281 2.5625.054688 4.742187 1.746094 5.300781 4.109375.476563 1.992187-.292968 3.511719-.792968 4.238281-.90625 1.316406-2.289063 2.160156-3.894532 2.371094-79.007812 10.535156-144-3.96875-193.171875-43.117188-34.15625-27.195312-60.960937-66.398437-79.667969-116.53125-13.816406-37.011718-23.007812-79.113281-27.320312-125.140624 0-.015626-.003906-.03125-.007812-.046876.402343-1.738281.804687-3.457031 1.207031-5.140624 3.582031-14.910157 8.632812-32.066407 8.863281-32.851563 2.683594-8.878906 1.386719-18.195313-3.519531-25.933594 2.878906-2.347656 6.269531-4.058593 9.925781-4.925781l.917969-.21875c-.582031 30.214844 1.019531 122.75 37.378906 207.699219 1.21875 2.847656 3.988281 4.550781 6.898437 4.550781.984376 0 1.984376-.195312 2.949219-.605469 3.804688-1.628906 5.574219-6.039062 3.941407-9.847656-36.535157-85.359375-36.652344-181.582031-36.046876-205.386719l12.613282-2.996094c.003906 0 .007812 0 .011718-.003906l.144532-.03125c5.183594-1.230468 10.488281.023438 14.554687 3.445313 4.042969 3.398437 6.171875 8.371093 5.851563 13.644531-.253906 4.132812 2.890625 7.691406 7.027344 7.945312.15625.007813.308593.015626.464843.011719 3.933594 0 7.234375-3.0625 7.480469-7.039062.613281-10.0625-3.453125-19.554688-11.164062-26.042969-6.109376-5.136719-13.675782-7.695312-21.4375-7.402344l-14.785157-32.113281c-9.464843-20.546875-32.308593-31.667969-54.316406-26.441406l-10.160156 2.414062c-3.761719.890625-7.433594 2.140625-10.957031 3.71875-7.4375-4.71875-16.207032-7.425781-25.480469-7.425781h-10.441407c-20.652343 0-39.824218 10.257812-51.277343 27.441406-2.300781 3.449219-1.367188 8.105469 2.078125 10.402344 3.449218 2.296875 8.105468 1.367188 10.402344-2.082031 8.667968-13 23.171874-20.761719 38.796874-20.761719h3.167969c9.15625 0 16.605469 7.449219 16.605469 16.605469v41.601562c-14.925781 3.203125-26.8125 14.714844-30.207031 30.160157-13.027344 59.257812-35.390625 208.035156 38.097656 309.480468 41.246094 56.9375 106.320313 90.261719 193.410156 99.046875.691407.070313 1.382813.105469 2.074219.105469 5.085938 0 10.035156-1.882812 13.828125-5.3125 4.253906-3.84375 6.695313-9.335938 6.695313-15.066406 0-9.253906-6.34375-17.375-15.429688-19.738282-81.855469-21.3125-133.417969-69.6875-153.261719-143.785156-11.558593-43.167968-10.800781-89.085937-5.589843-129.050781 5.175781 29.472656 12.511718 57.050781 21.960937 82.363281 19.675781 52.714844 48.0625 94.105469 84.378906 123.019532 41.546875 33.074218 93.308594 49.71875 154.351563 49.71875 16.078125 0 32.804687-1.152344 50.148437-3.464844 5.777344-.773438 10.980469-3.957032 14.269531-8.742188 3.25-4.722656 4.351563-10.628906 3.03125-16.203125zm-362.757812-353.425781v-40.707031c0-2.199219-.226562-4.339844-.65625-6.410157 4.136719 4.34375 7.113281 9.84375 8.355469 16.039063l6.25 31.078125zm29.375.621094-6.96875-34.65625c-1.457031-7.25-4.542969-13.839844-8.820312-19.441406.65625-.1875 1.316406-.375 1.980468-.535157l3.078125-.730469h.007813c4.316406-1.027343 8.769531-.308593 12.542968 2.019532 3.777344 2.324218 6.421876 5.980468 7.445313 10.296875l9.621094 40.507812c-3.351563 1.617188-6.464844 3.695313-9.238281 6.167969-2.972657-1.730469-6.226563-2.953125-9.648438-3.628906zm33.578125-38.921875 13.257813 28.792969-13.570313 3.222656-9.40625-39.605469c-.503906-2.117187-1.214844-4.152344-2.113281-6.082031 5.027344 3.273437 9.191406 7.933594 11.832031 13.671875zm14.246094 390.773437c28.097656 28.765625 65.941406 49.492188 112.488281 61.613282 2.480469.644531 4.210938 2.792968 4.210938 5.222656 0 2.050781-1.101563 3.351562-1.753907 3.941406-1.183593 1.070312-2.722656 1.574219-4.335937 1.410156-82.652344-8.339844-144.144532-39.605468-182.769532-92.925781-69.925781-96.527344-48.1875-240.179687-35.597656-297.457031 2.496094-11.351563 12.386719-19.277344 24.058594-19.277344h.945312c-7.546874 29.261719-27.367187 119.664062-11.617187 210.714844.628906 3.648437 3.800781 6.222656 7.378906 6.222656.425781 0 .855469-.035156 1.289063-.109375 4.082031-.707031 6.816406-4.585937 6.113281-8.667969-15.828125-91.496094 6.289063-185.136718 12.375-208.160156h13.082031.03125.023438c5.320312.003906 10.1875 2.449219 13.351562 6.714844 3.144532 4.242187 4.070313 9.570312 2.539063 14.625-.003907.019531-.007813.035156-.015625.050781-.214844.726563-5.332032 18.054687-9.070313 33.628906-11.859375 49.390625-22.21875 122.382813-4.207031 189.648438 9.816406 36.660156 27.136719 67.882812 51.480469 92.804687zm0 0"/><path d="m214.21875 342.058594c1.449219 2.144531 3.8125 3.300781 6.21875 3.300781 1.445312 0 2.90625-.417969 4.195312-1.289063 3.433594-2.320312 4.332032-6.980468 2.011719-10.414062-4.492187-6.644531-8.820312-13.714844-12.859375-21.019531-2.007812-3.625-6.570312-4.9375-10.195312-2.929688-3.625 2.003907-4.9375 6.570313-2.929688 10.191407 4.253906 7.695312 8.816406 15.148437 13.558594 22.160156zm0 0"/></svg>