<svg height="512pt" viewBox="0 0 512 511" width="512pt" xmlns="http://www.w3.org/2000/svg"><path d="m199.589844 17.316406c-16.511719 9.269532-27.847656 23.738282-32.601563 39.210938 15.6875 3.996094 33.9375 1.851562 50.453125-7.417969 14.042969-7.886719 24.34375-19.53125 30.035156-32.355469 1.59375-3.59375-.722656-7.722656-4.625-8.230468-13.910156-1.824219-29.214843.90625-43.261718 8.792968zm0 0" fill="#b4e6a0"/><path d="m242.851562 8.519531c-13.910156-1.820312-29.214843.910157-43.261718 8.796875-16.511719 9.269532-27.847656 23.738282-32.601563 39.210938l80.242188-45.03125c-.867188-1.554688-2.421875-2.71875-4.378907-2.976563zm0 0" fill="#96d7a5"/><path d="m328.144531 240.449219c0 84.117187-60.710937 152.304687-160.324219 152.304687-99.609374 0-160.320312-68.191406-160.320312-152.304687 0-84.117188 60.710938-152.308594 160.324219-152.308594 99.609375 0 160.320312 68.191406 160.320312 152.308594zm0 0" fill="#ffaa5f"/><path d="m215.917969 360.691406c-99.609375 0-160.320313-68.191406-160.320313-152.308594 0-41.664062 14.933594-79.390624 42.074219-106.886718-57.148437 23.792968-90.171875 77-90.171875 138.953125 0 84.117187 60.710938 152.304687 160.324219 152.304687 50.269531 0 90.589843-17.398437 118.242187-45.417968-20.445312 8.511718-43.902344 13.355468-70.148437 13.355468zm0 0" fill="#ff8c5a"/><path d="m504.5 352.671875c0 84.117187-60.710938 152.308594-160.324219 152.308594-99.609375 0-160.320312-68.191407-160.320312-152.308594s60.710937-152.304687 160.324219-152.304687c99.609374 0 160.320312 68.191406 160.320312 152.304687zm0 0" fill="#ffedb1"/><path d="m472.433594 352.671875c0 66.410156-48.566406 120.242187-128.257813 120.242187-79.6875 0-128.257812-53.832031-128.257812-120.242187 0-66.40625 48.570312-120.242187 128.257812-120.242187 79.691407 0 128.257813 53.835937 128.257813 120.242187zm0 0" fill="#ffaa5f"/><path d="m440.371094 352.671875c0 48.699219-36.425782 88.179687-96.195313 88.179687-59.765625 0-96.191406-39.480468-96.191406-88.179687s36.425781-88.175781 96.191406-88.175781c59.769531 0 96.195313 39.476562 96.195313 88.175781zm0 0" fill="#ffc369"/><path d="m360.210938 352.671875c0 8.855469-7.179688 16.035156-16.035157 16.035156-8.851562 0-16.03125-7.179687-16.03125-16.035156 0-8.851563 7.179688-16.03125 16.03125-16.03125 8.855469 0 16.035157 7.179687 16.035157 16.03125zm0 0" fill="#fff6d8"/><path d="m466.988281 239.667969c-30.6875-30.617188-73.15625-46.800781-122.8125-46.800781-5.078125 0-10.078125.179687-15 .515624-9.339843-32.65625-28.320312-60.324218-55.019531-80.136718-27.027344-20.054688-61.148438-31.21875-99.0625-32.480469-.3125-5.371094-.949219-10.507813-1.828125-15.390625 2.941406.363281 5.921875.550781 8.917969.550781 13.148437 0 26.613281-3.507812 38.664062-10.277343 17.449219-9.792969 30.605469-25.667969 36.101563-43.546876.605469-1.960937.375-4.085937-.628907-5.875-1.003906-1.789062-2.699218-3.089843-4.6875-3.597656-18.125-4.617187-38.527343-1.648437-55.976562 8.148438-12.53125 7.035156-22.828125 17.210937-29.683594 29.007812-7.101562-18.011718-15.753906-28.910156-16.367187-29.667968-2.597657-3.214844-7.304688-3.714844-10.527344-1.125-3.222656 2.59375-3.734375 7.3125-1.148437 10.539062.210937.265625 19.71875 25.023438 22.144531 61.25-46.320313 1.605469-85.980469 17.648438-115.0625 46.660156-29.027344 28.953125-45.011719 69.085938-45.011719 113.007813 0 43.917969 15.984375 84.050781 45.011719 113.007812 30.6875 30.613281 73.15625 46.796875 122.8125 46.796875 5.046875 0 10.078125-.171875 15.019531-.515625 7.214844 25.167969 20.296875 47.761719 38.519531 65.941407 30.691407 30.617187 73.160157 46.800781 122.8125 46.800781 49.652344 0 92.125-16.183594 122.8125-46.800781 29.027344-28.953126 45.011719-69.085938 45.011719-113.007813 0-43.917969-15.984375-84.050781-45.011719-113.003906zm-263.988281-215.8125c11.40625-6.402344 24.28125-9.226563 36.414062-8.136719-5.390624 10.925781-14.503906 20.449219-25.90625 26.851562-11.40625 6.402344-24.28125 9.226563-36.414062 8.136719 5.386719-10.925781 14.5-20.449219 25.90625-26.851562zm-35.175781 361.398437c-45.597657 0-84.402344-14.667968-112.21875-42.417968-26.183594-26.121094-40.605469-62.484376-40.605469-102.386719 0-39.90625 14.421875-76.269531 40.605469-102.390625 27.816406-27.75 66.621093-42.417969 112.21875-42.417969 37.574219 0 71.253906 10.253906 97.394531 29.652344 23.332031 17.3125 40.113281 41.335937 48.78125 69.691406-36.726562 5.296875-68.367188 20.472656-92.636719 44.683594-29.023437 28.953125-45.007812 69.085937-45.007812 113.003906 0 11.027344 1.007812 21.8125 2.976562 32.246094-3.800781.214843-7.644531.335937-11.507812.335937zm288.570312 69.808594c-27.816406 27.75-66.621093 42.417969-112.21875 42.417969-45.59375 0-84.398437-14.667969-112.21875-42.417969-26.183593-26.121094-40.601562-62.484375-40.601562-102.390625s14.417969-76.265625 40.601562-102.386719c27.820313-27.75 66.625-42.417968 112.21875-42.417968 45.597657 0 84.402344 14.667968 112.21875 42.417968 26.183594 26.121094 40.605469 62.484375 40.605469 102.386719 0 39.90625-14.421875 76.269531-40.605469 102.390625zm0 0"/><path d="m425.753906 247.230469c-3.472656-2.261719-8.121094-1.277344-10.378906 2.195312-2.257812 3.46875-1.277344 8.117188 2.195312 10.375 1.792969 1.167969 3.535157 2.382813 5.234376 3.640625l-68.164063 68.164063c-.953125-.476563-1.945313-.886719-2.964844-1.230469v-90.257812c12.585938.554687 24.554688 2.496093 35.660157 5.828124 3.96875 1.191407 8.148437-1.058593 9.339843-5.027343 1.191407-3.96875-1.058593-8.148438-5.027343-9.339844-14.691407-4.410156-30.664063-6.644531-47.472657-6.644531-39.582031 0-73.476562 12.164062-98.027343 35.175781-24.683594 23.144531-37.726563 55.152344-37.726563 92.566406 0 18.445313 3.222656 35.746094 9.582031 51.414063 1.183594 2.914062 3.988282 4.679687 6.949219 4.679687.941406 0 1.898437-.179687 2.820313-.550781 3.835937-1.558594 5.6875-5.933594 4.128906-9.773438-4.765625-11.742187-7.535156-24.589843-8.273438-38.269531h98.25c.34375 1.019531.753906 2.007813 1.230469 2.960938l-68.953125 68.957031c-1.789062-1.78125-3.515625-3.621094-5.164062-5.535156-2.699219-3.140625-7.433594-3.496094-10.574219-.792969s-3.496094 7.4375-.792969 10.578125c24.460938 28.421875 62.300781 44.074219 106.554688 44.074219 39.582031 0 73.476562-12.164063 98.027343-35.179688 24.683594-23.140625 37.730469-55.148437 37.730469-92.5625 0-45.261719-19.246094-82.710937-54.183594-105.445312zm38.980469 97.941406h-98.257813c-.34375-1.019531-.753906-2.007813-1.230468-2.960937l68.960937-68.960938c18.375 18.332031 28.96875 43.109375 30.527344 71.921875zm-112.023437 7.5c0 4.707031-3.828126 8.535156-8.535157 8.535156-4.703125 0-8.53125-3.828125-8.53125-8.535156 0-4.703125 3.828125-8.53125 8.53125-8.53125 4.707031 0 8.535157 3.828125 8.535157 8.53125zm-18.996094-21.066406-68.167969-68.171875c19.066406-14.152344 43.332031-22.125 71.128906-23.335938v90.277344c-1.019531.34375-2.007812.753906-2.960937 1.230469zm17.960937 43.367187c1.023438-.34375 2.011719-.753906 2.964844-1.230468l68.167969 68.167968c-19.070313 14.15625-43.332032 22.128906-71.128906 23.335938v-90.273438zm-97.53125-101.722656 68.964844 68.960938c-.476563.953124-.886719 1.941406-1.230469 2.960937h-98.25c1.535156-28.765625 11.996094-53.453125 30.515625-71.921875zm79.570313 100.492188c.953125.476562 1.941406.886718 2.960937 1.230468v90.277344c-27.660156-1.234375-52.101562-9.328125-71.109375-23.359375zm100.496094 58.355468-68.964844-68.960937c.476562-.953125.886718-1.941407 1.230468-2.964844h98.253907c-1.542969 28.769531-12 53.457031-30.519531 71.925781zm0 0"/></svg>