<svg height="512pt" viewBox="-88 0 512 512.00202" width="512pt" xmlns="http://www.w3.org/2000/svg"><path d="m206.003906 131.03125c-30.535156 9.328125-49.949218 34.371094-39.457031 68.726562 10.496094 34.351563 122.933594 313.8125 153.46875 304.484376 30.535156-9.328126-32.390625-303.914063-42.886719-338.265626-10.496094-34.355468-40.589844-44.273437-71.125-34.945312zm0 0" fill="#ffaa5f"/><path d="m320.015625 504.242188c2.695313-.820313 4.648437-3.90625 5.988281-8.796876-50.621094-95.207031-128.457031-293.15625-136.03125-317.953124-4.851562-15.882813-3.253906-29.742188 2.824219-41.011719-22.558594 11.859375-35.125 34.214843-26.25 63.277343 10.496094 34.351563 122.933594 313.8125 153.46875 304.484376zm0 0" fill="#ff8c5a"/><path d="m188.085938 70.488281c-32.375-14.292969-66.800782-7.34375-82.875 29.074219-16.078126 36.421875-124.164063 352.289062-91.792969 366.582031 32.371093 14.292969 192.945312-278.410156 209.023437-314.828125 16.078125-36.417968-1.984375-66.535156-34.355468-80.828125zm0 0" fill="#ffaa5f"/><path d="m13.417969 466.144531c2.855469 1.261719 6.726562.085938 11.390625-3.042969 26.496094-116.535156 104.570312-338.960937 116.179687-365.253906 7.433594-16.839844 18.8125-27.304687 32.070313-32.355468-27.511719-6.390626-54.246094 3.261718-67.847656 34.070312-16.078126 36.421875-124.167969 352.289062-91.792969 366.582031zm0 0" fill="#ff8c5a"/><path d="m320.179688 342.550781c-13.773438-78.703125-33.082032-162.425781-38.582032-179.953125-7.449218-23.734375-24.273437-38.917968-46.6875-42.488281-.683594-6.765625-2.503906-13.316406-5.46875-19.546875-4.921875-10.332031-12.722656-19.3125-22.9375-26.535156l37.691406-35.34375c3.023438-2.832032 3.175782-7.578125.339844-10.601563-2.832031-3.019531-7.578125-3.171875-10.597656-.339843l-32.722656 30.6875 18.5625-42.410157c1.660156-3.792969-.066406-8.214843-3.863282-9.875-3.792968-1.664062-8.214843.066407-9.875 3.863281l-18.566406 42.40625.347656-44.855468c.035157-4.144532-3.296874-7.527344-7.441406-7.558594-.019531 0-.039062 0-.058594 0-4.113281 0-7.464843 3.320312-7.496093 7.441406l-.402344 51.667969c-12.234375-2.601563-24.121094-2.242187-35.050781 1.152344-17.664063 5.484375-31.460938 18.570312-39.898438 37.847656-8.128906 18.570313-39.324218 108.128906-63.851562 192.863281-14.097656 48.695313-23.902344 88.316406-29.144532 117.765625-7.472656 41.992188-5.695312 61.234375 6.132813 66.414063 1.695313.742187 3.539063 1.21875 5.628906 1.21875 12.089844 0 32.457031-15.949219 80.15625-88.902344 29.597657-45.261719 59.726563-97.304688 80.082031-133.546875 17.898438 43.957031 43.628907 103.453125 68.613282 154.207031 15.667968 31.824219 29.277344 56.578125 40.453125 73.578125 13.722656 20.871094 23.839843 30.296875 32.855469 30.296875 1.335937 0 2.644531-.207031 3.9375-.613281 13.484374-4.238281 22.558593-27.617187-2.15625-168.839844zm-2.464844 154.097657c-3.132813-1.546876-13.808594-9.941407-38.628906-55.363282l12.421874-3.898437c3.953126-1.242188 6.148438-5.449219 4.910157-9.402344-1.238281-3.949219-5.445313-6.152344-9.402344-4.910156l-15.128906 4.75c-4.917969-9.398438-10.3125-20.074219-16.21875-32.199219-11.46875-23.558594-23.042969-48.800781-33.851563-73.289062l23.652344-7.421876c3.949219-1.242187 6.148438-5.449218 4.910156-9.402343-1.242187-3.949219-5.449218-6.152344-9.402344-4.910157l-25.214843 7.914063c-11.453125-26.320313-21.796875-51.1875-29.902344-71.410156 3.417969-6.171875 6.367187-11.539063 8.742187-15.890625 1.988282-3.636719.648438-8.191406-2.984374-10.175782-3.636719-1.988281-8.191407-.648437-10.179688 2.984376-1.671875 3.066406-3.644531 6.660156-5.875 10.707031l-39.09375-17.113281c-3.792969-1.660157-8.214844.070312-9.878906 3.863281-1.660156 3.796875.070312 8.21875 3.863281 9.878906l37.796875 16.546875c-16.140625 28.933594-40.398438 71.386719-65.882812 112.285156l-23.757813-10.398437c-3.792969-1.664063-8.214844.066406-9.875 3.863281-1.664063 3.792969.066406 8.214844 3.859375 9.875l21.699219 9.5c-2.417969 3.804688-4.839844 7.582031-7.257813 11.316406-50.457031 77.902344-66.890625 86.050782-70.3125 86.847656-1.261718-2.261718-4.617187-12.910156 3.800782-56.765624 1.167968-6.074219 2.523437-12.566407 4.039062-19.425782l14.0625 6.15625c.976562.429688 1.996094.632813 3 .632813 2.890625 0 5.644531-1.679688 6.875-4.496094 1.660156-3.792969-.066406-8.21875-3.863281-9.878906l-16.648438-7.285157c5.566407-23.34375 12.851563-50.445312 21.800781-81.0625 4.382813-14.992187 8.925782-29.996093 13.46875-44.628906l25.882813 11.332032c.976563.425781 1.996094.628906 3 .628906 2.890625 0 5.644531-1.679688 6.875-4.496094 1.660156-3.792969-.066406-8.214844-3.863281-9.875l-27.382813-11.988281c17.890625-56.625 35.054688-105.425781 42.089844-122.703125l22.453125 9.828125c.980469.429687 2 .628906 3.003906.628906 2.886719 0 5.640625-1.675781 6.875-4.492187 1.660156-3.792969-.070312-8.21875-3.863281-9.878907l-21.613281-9.460937c16.847656-25.425782 45.054687-25.15625 67.46875-15.34375 15.039062 6.585937 26.003906 16.398437 31.714844 28.386718 6.023437 12.652344 5.699218 27.355469-.941407 42.523438-2.707031 6.191406-9.59375 19.796875-18.886719 37.324219-1.941406 3.660156-.546874 8.199219 3.113282 10.140625 3.65625 1.9375 8.199218.546875 10.140625-3.113282.964843-1.820312 1.894531-3.589843 2.808593-5.324218l21.953126-6.996094c3.945312-1.257812 6.125-5.476562 4.867187-9.425781-1.257813-3.945313-5.476563-6.125-9.425781-4.867188l-7.660156 2.441407c3.113281-6.171876 5.460937-11.035157 6.832031-14.164063 2.984375-6.820313 4.925781-13.601563 5.859375-20.265625 15.75 3.242188 27.238281 14.320312 32.726562 31.804688 2.910156 9.269531 9.789063 37.527343 17.683594 74.066406l-36.257812 11.378906c-3.953126 1.238281-6.148438 5.449219-4.910157 9.398438 1.003907 3.207031 3.964844 5.257812 7.15625 5.257812.742188 0 1.5-.113281 2.246094-.347656l34.910156-10.953125c5.375 25.527343 11.03125 54.074219 16.105469 82.542969 2.039062 11.4375 3.835938 22.042968 5.429688 31.898437l-21.820313 6.851563c-3.949219 1.242187-6.148437 5.449218-4.910156 9.402343 1.007812 3.203125 3.964843 5.253907 7.15625 5.253907.742187 0 1.5-.109376 2.246093-.34375l19.675782-6.175782c13.398437 88.492188 7.847656 107.511719 5.71875 111.332032zm0 0"/><path d="m247.292969 215.238281c-1.238281-3.953125-5.449219-6.152343-9.398438-4.910156l-24.386719 7.652344c-3.953124 1.238281-6.148437 5.449219-4.910156 9.402343 1.003906 3.203126 3.960938 5.253907 7.152344 5.253907.746094 0 1.5-.109375 2.25-.347657l24.382812-7.648437c3.953126-1.242187 6.152344-5.449219 4.910157-9.402344zm0 0"/><path d="m267.867188 337.804688-13.851563 4.34375c-3.953125 1.242187-6.148437 5.449218-4.910156 9.402343 1.003906 3.203125 3.964843 5.253907 7.15625 5.253907.742187 0 1.5-.109376 2.246093-.34375l13.847657-4.347657c3.953125-1.238281 6.152343-5.449219 4.910156-9.398437-1.238281-3.953125-5.445313-6.152344-9.398437-4.910156zm0 0"/><path d="m182.386719 122.714844-14.6875-6.429688c-3.796875-1.660156-8.214844.070313-9.878907 3.863282-1.660156 3.796874.070313 8.21875 3.863282 9.878906l14.6875 6.429687c.980468.429688 2 .628907 3.003906.628907 2.886719 0 5.640625-1.679688 6.875-4.492188 1.660156-3.796875-.070312-8.21875-3.863281-9.878906zm0 0"/><path d="m148.414062 160.34375-29.371093-12.855469c-3.796875-1.664062-8.21875.066407-9.878907 3.863281-1.660156 3.792969.070313 8.214844 3.863282 9.875l29.371094 12.859376c.980468.429687 2 .628906 3.003906.628906 2.890625 0 5.640625-1.679688 6.875-4.492188 1.660156-3.796875-.066406-8.21875-3.863282-9.878906zm0 0"/><path d="m90.554688 292.519531-14.683594-6.429687c-3.796875-1.664063-8.21875.066406-9.878906 3.863281-1.660157 3.792969.066406 8.214844 3.863281 9.878906l14.683593 6.425781c.980469.429688 2 .632813 3.003907.632813 2.890625 0 5.644531-1.679687 6.875-4.496094 1.660156-3.792969-.066407-8.214843-3.863281-9.875zm0 0"/></svg>