<svg height="511pt" viewBox="-94 0 511 511.99954" width="511pt" xmlns="http://www.w3.org/2000/svg"><path d="m209.304688 147.199219c-25.578126 8.179687-40.414063 35.992187-32.234376 61.574219l41.066407 128.449218c19.175781 59.972656 70.773437 58.964844 87.984375 112.800782-17.210938-53.835938 25.402344-82.945313 6.226562-142.917969l-41.066406-128.453125c-8.179688-25.582032-36.394531-39.628906-61.976562-31.453125zm0 0" fill="#fff6d8"/><path d="m305.085938 399.238281c-22.492188-23.21875-53.09375-34.835937-66.90625-78.046875l-41.070313-128.449218c-4.917969-15.394532-1.46875-31.566407 7.605469-43.8125-22.722656 9.863281-35.320313 35.835937-27.644532 59.84375l41.070313 128.449218c19.171875 59.972656 70.769531 58.964844 87.980469 112.800782-6.152344-19.246094-4.617188-35.320313-1.035156-50.785157zm0 0" fill="#ffedb1"/><path d="m155.648438 83.953125c-29.0625-9.164063-61.011719 6.90625-70.175782 35.96875l-46.011718 145.929687c-21.480469 68.132813 27.003906 100.96875 7.71875 162.128907 19.285156-61.160157 77.832031-60.25 99.3125-128.382813l46.011718-145.929687c9.160156-29.0625-7.792968-60.554688-36.855468-69.714844zm0 0" fill="#fff6d8"/><path d="m68.519531 268.859375 46.007813-145.933594c6.464844-20.496093 24.273437-34.476562 44.394531-37.757812-1.085937-.417969-2.152344-.863281-3.273437-1.21875-29.0625-9.160157-61.011719 6.90625-70.175782 35.972656l-46.011718 145.929687c-21.480469 68.132813 27.003906 100.96875 7.71875 162.128907 6.78125-21.503907 18.449218-35.289063 31.617187-47.144531-6.476563-34.488282-25.164063-64.761719-10.277344-111.976563zm0 0" fill="#ffedb1"/><path d="m135.671875 229.285156-15.289063-4.820312c-3.953124-1.246094-8.164062.949218-9.410156 4.898437s.949219 8.164063 4.898438 9.40625l15.289062 4.820313c.75.238281 1.511719.351562 2.257813.351562 3.1875 0 6.140625-2.046875 7.152343-5.246094 1.246094-3.949218-.949218-8.164062-4.898437-9.410156zm0 0"/><path d="m75.753906 286.039062-7.644531-2.410156c-3.949219-1.246094-8.164063.949219-9.410156 4.898438-1.246094 3.949218.949219 8.164062 4.898437 9.410156l7.644532 2.410156c.75.234375 1.511718.347656 2.257812.347656 3.1875 0 6.140625-2.046874 7.152344-5.246093 1.242187-3.949219-.949219-8.164063-4.898438-9.410157zm0 0"/><path d="m312.546875 448.585938c-7.679687-24.078126-2.265625-43.070313 3.472656-63.179688 6.273438-22 13.386719-46.9375 2.859375-79.941406l-41.042968-128.664063c-2.296876-7.203125-5.988282-13.753906-10.972657-19.46875-2.722656-3.121093-7.457031-3.445312-10.582031-.726562-3.121094 2.722656-3.445312 7.460937-.722656 10.582031 3.628906 4.164062 6.316406 8.929688 7.988281 14.171875l41.039063 128.664063c9.152343 28.6875 3.25 49.371093-2.996094 71.269531-3.132813 10.984375-6.316406 22.160156-7.445313 34.285156-7.941406-9.234375-17.011719-16.5-25.925781-23.640625-17.773438-14.238281-34.558594-27.6875-43.707031-56.375l-32.125-100.699219 13.078125-4.171875c3.945312-1.257812 6.125-5.480468 4.867187-9.425781-1.261719-3.945313-5.480469-6.125-9.425781-4.867187l-13.078125 4.171874-3.984375-12.5 14.84375-47.085937c3.714844-2.769531 7.820312-4.890625 12.238281-6.296875 6.082031-1.941406 12.390625-2.457031 18.757813-1.523438 4.097656.605469 7.90625-2.238281 8.503906-6.335937.601562-4.097656-2.234375-7.90625-6.332031-8.503906-.851563-.125-1.699219-.214844-2.546875-.300781l-3.417969-53.484376c-.261719-4.132812-3.828125-7.265624-7.960937-7.007812-4.132813.265625-7.269532 3.828125-7.007813 7.964844l3.386719 53c-2.671875.445312-5.324219 1.0625-7.941406 1.898437-1.144532.367188-2.269532.777344-3.382813 1.214844.792969-11.53125-1.671875-23.160156-7.324219-33.785156-3.925781-7.386719-9.128906-13.804688-15.3125-19.023438l32.183594-52.445312c2.167969-3.53125 1.0625-8.148438-2.46875-10.316407-3.53125-2.167968-8.148438-1.058593-10.316406 2.46875l-31.9375 52.050782c-.746094-.371094-1.5-.722656-2.261719-1.066406l21.988281-69.734376c1.246094-3.953124-.949218-8.164062-4.898437-9.410156-3.953125-1.246094-8.164063.949219-9.40625 4.898438l-21.988281 69.738281c-.820313-.15625-1.640626-.300781-2.464844-.425781l3.6875-60.953125c.25-4.136719-2.898438-7.691407-7.03125-7.941407-4.148438-.25-7.691406 2.902344-7.941406 7.035157l-3.714844 61.421875c-8.058594.730468-16.003906 3-23.457032 6.800781-15.203124 7.746094-26.34375 20.796875-31.371093 36.746094l-46.007813 145.929687c-11.714844 37.144532-3.953125 64.007813 3.550782 89.984375 6.617187 22.910157 12.867187 44.550781 4.164062 72.144531l-9.640625 30.582032c-2.742187 8.703125-12.058594 13.546875-20.757813 10.804687-3.953124-1.246093-8.164062.949219-9.410156 4.898438s.949219 8.164062 4.898438 9.40625c3.128906.988281 6.332031 1.476562 9.523437 1.476562 5 0 9.964844-1.203125 14.53125-3.578125 7.472657-3.890625 12.984375-10.460937 15.519531-18.5l9.640626-30.578125c8.703124-27.597656 26.234374-41.738281 44.792968-56.707031 21.046875-16.976562 42.8125-34.535156 54.523438-71.679688l21.738281-68.953124 34.203125 107.226562c10.527344 33.003906 30.765625 49.214844 48.621094 63.519531 16.320312 13.074219 31.734375 25.421875 39.414062 49.5l8.601563 26.960938c1.113281 3.492187.800781 7.210937-.882813 10.46875-1.679687 3.257812-4.53125 5.664062-8.023437 6.777343-3.945313 1.257813-6.125 5.480469-4.867188 9.425782 1.019531 3.1875 3.96875 5.222656 7.144531 5.222656.753907 0 1.523438-.117188 2.28125-.355469 7.308594-2.332031 13.273438-7.371093 16.792969-14.1875 3.523438-6.820312 4.175781-14.597656 1.84375-21.910156zm-172.574219-151.246094c-10.351562 32.828125-29.433594 48.21875-49.636718 64.515625-10.617188 8.5625-21.429688 17.28125-30.699219 28.617187-1.09375-14.601562-4.949219-27.949218-8.734375-41.050781-7.203125-24.9375-14.007813-48.488281-3.65625-81.3125l36.308594-115.171875 15.785156 4.976562c.75.238282 1.507812.347657 2.253906.347657 3.1875 0 6.144531-2.046875 7.152344-5.246094 1.246094-3.949219-.945313-8.164063-4.898438-9.40625l-15.78125-4.976563 5.1875-16.457031c3.808594-12.082031 12.289063-21.988281 23.878906-27.890625 7.066407-3.601562 14.695313-5.425781 22.347657-5.425781 4.886719 0 9.785156.746094 14.542969 2.246094 12.210937 3.847656 22.296874 12.289062 28.394531 23.761719 6.109375 11.484374 7.371093 24.460937 3.5625 36.542968zm0 0"/><path d="m256.238281 280.960938c.753907 0 1.523438-.113282 2.28125-.355469l13.480469-4.300781c3.945312-1.257813 6.125-5.476563 4.867188-9.421876-1.261719-3.945312-5.476563-6.125-9.425782-4.867187l-13.480468 4.300781c-3.945313 1.257813-6.125 5.476563-4.867188 9.421875 1.015625 3.191407 3.964844 5.222657 7.144531 5.222657zm0 0"/><path d="m248.625 350.226562c.757812 0 1.523438-.113281 2.28125-.355468l6.742188-2.148438c3.945312-1.261718 6.125-5.480468 4.867187-9.425781s-5.476563-6.125-9.425781-4.867187l-6.738282 2.148437c-3.949218 1.261719-6.125 5.480469-4.867187 9.425781 1.015625 3.1875 3.964844 5.222656 7.140625 5.222656zm0 0"/></svg>