<svg height="511pt" viewBox="-63 0 511 511.99913" width="511pt" xmlns="http://www.w3.org/2000/svg"><path d="m337.777344 84.074219c19.316406-5.800781 39.679687-6.175781 40.503906 12.097656.589844 13.019531-30.773438 35.273437-37.6875 51.023437-11.210938 25.53125-25.226562 9.84375-42.265625 24.292969-13 11.027344-20.667969 25.277344-39.4375 20.234375-12.597656-3.386718-17.308594-17.308594-17.308594-17.308594s-22.566406-3.753906-23.191406-23.226562c-.710937-22.210938 31.816406-31.964844 37.746094-43.597656 15.300781-30.015625 25.710937-33.230469 40.121093-32.070313 23.640626 1.902344 22.382813 14.300781 41.519532 8.554688zm0 0" fill="#afdc82"/><path d="m241.582031 174.414062s.648438 1.875 2.054688 4.390626c26.058593-36.339844 67.476562-72.578126 132.796875-89.960938-5.492188-10.640625-22.421875-9.644531-38.65625-4.769531-19.136719 5.746093-17.878906-6.652344-41.519532-8.554688-14.410156-1.160156-24.820312 2.054688-40.121093 32.070313-5.929688 11.632812-38.457031 21.386718-37.746094 43.597656.625 19.472656 23.191406 23.226562 23.191406 23.226562zm0 0" fill="#96cd82"/><path d="m57.867188 16.632812c-21.425782-10.964843-45.128907-15.542968-49.640626 6.515626-3.214843 15.722656 29.082032 49.140624 34.09375 69.699218 8.128907 33.324219 27.539063 17.078125 44.625 38.105469 13.039063 16.042969 19.222657 34.929687 42.121094 32.589844 15.367188-1.570313 23.566406-17.546875 23.566406-17.546875s27.074219 0 31.585938-23.566406c5.148438-26.875-30.933594-45.320313-35.597656-60.671876-12.035156-39.613281-23.566406-45.628906-40.613282-47.132812-27.972656-2.464844-28.914062 12.871094-50.140624 2.007812zm0 0" fill="#afdc82"/><path d="m10.160156 17.429688c-.800781 1.679687-1.484375 3.535156-1.933594 5.71875-3.214843 15.722656 29.082032 49.140624 34.097657 69.699218 8.125 33.324219 27.539062 17.078125 44.625 38.105469 13.035156 16.042969 19.21875 34.929687 42.117187 32.589844 11.019532-1.125 18.28125-9.601563 21.550782-14.339844-39.929688-76.363281-104.601563-115.195313-140.457032-131.773437zm0 0" fill="#96cd82"/><path d="m289.015625 360.09375c0-54.503906-45.300781-98.433594-100.304687-96.1875-50.019532 2.042969-91.023438 43.808594-92.210938 93.855469-1.046875 44.3125 27.867188 81.980469 67.898438 94.296875 6.757812 2.078125 12.292968 6.964844 15.078124 13.464844l13.269532 30.953124 13.257812-30.941406c2.808594-6.546875 8.410156-11.414062 15.214844-13.515625 39.261719-12.140625 67.796875-48.675781 67.796875-91.925781zm0 0" fill="#e6646e"/><path d="m224.835938 424.273438c-53.167969 0-96.269532-43.097657-96.269532-96.269532 0-18.179687 5.132813-35.121094 13.886719-49.625-26.816406 16.734375-45.164063 46.199219-45.953125 79.382813-1.046875 44.308593 27.867188 81.980469 67.898438 94.296875 6.757812 2.078125 12.292968 6.964844 15.078124 13.464844l13.269532 30.953124 13.261718-30.941406c2.804688-6.546875 8.40625-11.410156 15.210938-13.515625 22.625-6.996093 41.644531-22.121093 53.734375-41.933593-14.609375 8.941406-31.730469 14.1875-50.117187 14.1875zm0 0" fill="#dc4655"/><path d="m385.777344 95.832031c-.441406-9.777343-5.183594-15.125-9.085938-17.894531-10.953125-7.769531-28.378906-4.855469-41.070312-1.046875-7.558594 2.273437-9.710938 1.125-14.910156-1.648437-4.917969-2.625-11.65625-6.214844-23.851563-7.199219-18.054687-1.453125-30.960937 3.875-47.40625 36.140625-1.3125 2.578125-6.894531 6.488281-11.816406 9.9375-11.53125 8.078125-27.324219 19.140625-26.742188 37.304687.34375 10.664063 5.707031 19.355469 15.519531 25.140625 1.4375.847656 2.863282 1.5625 4.226563 2.171875-6.996094 9.585938-12.578125 18.828125-16.964844 27.121094-11.859375 22.421875-17.140625 41.433594-19.195312 50.496094-.863281-.015625-1.726563-.03125-2.59375-.023438-.820313-11.601562-3.621094-35.632812-13.234375-65.03125-3.835938-11.726562-9.03125-25.023437-16.042969-39.0625 11.589844-2.773437 25.574219-10.632812 28.976563-28.398437 4.007812-20.925782-11.242188-36.511719-23.492188-49.039063-5.472656-5.59375-11.128906-11.375-12.296875-15.222656-12.667969-41.6875-26.335937-50.585937-47.128906-52.421875-14.210938-1.253906-22.648438 1.710938-28.8125 3.875-6.707031 2.355469-9.769531 3.429688-18.574219-1.074219-13.652344-6.992187-32.84375-13.925781-46.71875-7.253906-4.960938 2.382813-11.363281 7.605469-13.683594 18.945313-2.414062 11.800781 7.046875 26.359374 18 43.222656 7.003906 10.78125 14.25 21.929687 16.15625 29.753906 5.75 23.570312 17.632813 27.167969 28.113282 30.339844 6.597656 1.996094 12.292968 3.71875 17.980468 10.71875 2.675782 3.292968 5.121094 6.828125 7.488282 10.246094 8.246093 11.917968 17.511718 25.316406 36.679687 25.3125 1.449219 0 2.960937-.074219 4.53125-.238282 8.753906-.890625 15.566406-5.292968 20.425781-9.890625 6.015625 12.308594 10.558594 23.964844 13.96875 34.316407 9.265625 28.144531 11.929688 51.429687 12.691406 62.117187-21.734374 3.386719-41.957031 13.769531-57.863281 29.914063-18.671875 18.953124-29.339843 43.742187-30.035156 69.800781-1.203125 45.011719 26.453125 85.417969 68.820313 100.550781 6.890624 2.460938 12.171874 7.410156 14.484374 13.582031l9.59375 25.582031c-.097656.003907-.191406.023438-.285156.023438h-12.949218c-4.144532 0-7.5 3.355469-7.5 7.5 0 4.140625 3.355468 7.5 7.5 7.5h12.949218c9.757813 0 18.617188-6.140625 22.042969-15.277344l9.8125-26.167968c2.140625-5.707032 7.019531-10.25 13.382813-12.464844 41.660156-14.5 69.648437-53.878906 69.648437-97.996094 0-6.535156-.613281-13.078125-1.820313-19.449219-.769531-4.066406-4.699218-6.738281-8.765624-5.96875-4.070313.773438-6.742188 4.695313-5.972657 8.765625 1.035157 5.449219 1.558594 11.054688 1.558594 16.652344 0 37.738281-23.941406 71.425781-59.582031 83.828125-10.585938 3.6875-18.785156 11.472656-22.496094 21.367187l-6.691406 17.851563-6.382813-17.015625c-3.867187-10.3125-12.425781-18.492188-23.484375-22.4375-36.242187-12.945312-59.898437-47.515625-58.871094-86.023438.53125-19.851562 7.875-38.851562 20.8125-54.25h74.441407c4.144531 0 7.5-3.355468 7.5-7.5 0-4.140624-3.355469-7.5-7.5-7.5h-58.421875c14.101562-10.339843 30.773437-16.300781 48.175781-17.011718 20.386719-.839844 40.070313 5.375 56.042969 17.011718h-13.957032c-4.140624 0-7.5 3.359376-7.5 7.5 0 4.144532 3.359376 7.5 7.5 7.5h29.949219c2.726563 3.277344 5.238281 6.765626 7.5 10.464844 2.160157 3.535156 6.773438 4.648438 10.308594 2.488282 3.535156-2.160157 4.648437-6.777344 2.488281-10.3125-15.910156-26.039063-42.296875-43.460938-71.757812-48.332032 3.003906-12.203125 11.519531-39.742187 32.140625-68.640625 3.523437 4.09375 8.476562 8.070313 15.210937 9.882813 3.398438.914062 6.523438 1.320312 9.421875 1.320312 13.171875 0 21.648438-8.410156 29.292969-15.988281 2.40625-2.386719 4.898438-4.855469 7.523438-7.085937 5.390624-4.570313 10.21875-5.144532 15.808593-5.804688 9.007813-1.070312 20.21875-2.394531 28.472657-21.195312 2.519531-5.742188 9.949218-13.558594 17.132812-21.117188 11.621094-12.230469 21.65625-22.789062 21.183594-33.261719zm-257.472656 60.25c-12.875 1.308594-18.230469-5.503906-27.355469-18.6875-2.527344-3.652343-5.140625-7.429687-8.179688-11.171875-8.582031-10.5625-17.839843-13.363281-25.273437-15.617187-9.136719-2.761719-14.167969-4.285157-17.886719-19.539063-2.511719-10.296875-10.460937-22.535156-18.152344-34.371094-7.203125-11.082031-17.0625-26.261718-15.882812-32.042968 1.179687-5.761719 3.695312-7.570313 5.488281-8.429688 1.71875-.828125 3.894531-1.230468 6.449219-1.230468 6.820312 0 16.320312 2.882812 26.9375 8.316406 14.535156 7.4375 22.589843 4.609375 30.378906 1.871094 5.675781-1.992188 11.542969-4.050782 22.519531-3.082032 11.300782.996094 21.976563 1.9375 34.097656 41.839844 2.234376 7.351562 8.578126 13.839844 15.925782 21.351562 10.824218 11.0625 22.015625 22.507813 19.484375 35.730469-2.617188 13.667969-16.023438 16.644531-21.699219 17.292969-15.511719-27.160156-37.980469-55.996094-70.476562-80.992188-3.285157-2.527343-7.992188-1.914062-10.519532 1.371094-2.523437 3.28125-1.910156 7.992188 1.371094 10.515625 31.226562 24.023438 52.664062 51.816407 67.34375 77.859375-2.96875 3.667969-7.972656 8.34375-14.570312 9.015625zm225.414062-37.324219c-8.441406 8.886719-16.417969 17.277344-19.992188 25.421876-4.804687 10.941406-8.714843 11.40625-16.503906 12.328124-6.640625.785157-14.910156 1.765626-23.746094 9.261719-3.074218 2.605469-5.773437 5.285157-8.382812 7.875-9.296875 9.222657-14.210938 13.53125-24.257812 10.832031-4.53125-1.214843-7.6875-4.6875-9.644532-7.65625 15.671875-18.808593 36.8125-37.359374 65.253906-51.84375 3.6875-1.882812 5.15625-6.398437 3.277344-10.089843-1.878906-3.691407-6.398437-5.15625-10.085937-3.277344-30.40625 15.488281-52.867188 35.316406-69.289063 54.773437-1.761718-.539062-4.222656-1.457031-6.636718-2.929687-5.09375-3.113281-7.652344-7.203125-7.824219-12.507813-.320313-10.054687 10.191406-17.417968 20.355469-24.539062 7.277343-5.101562 13.5625-9.503906 16.574218-15.410156 12.652344-24.824219 20.511719-28.238282 28.402344-28.238282 1.464844 0 2.933594.117188 4.433594.238282 9.09375.730468 13.621094 3.144531 18 5.480468 6.296875 3.359376 12.804687 6.828126 26.285156 2.78125 12.828125-3.851562 23.585938-4.269531 28.078125-1.082031 1.101563.78125 2.59375 2.292969 2.777344 6.335938.183593 4.089843-11.042969 15.902343-17.074219 22.246093zm0 0"/><path d="m150.125 320.503906c-4.140625 0-7.5 3.359375-7.5 7.5 0 4.144532 3.359375 7.5 7.5 7.5h21.8125c4.140625 0 7.5-3.355468 7.5-7.5 0-4.140625-3.359375-7.5-7.5-7.5zm0 0"/></svg>