<svg height="512pt" viewBox="0 -68 512 512" width="512pt" xmlns="http://www.w3.org/2000/svg"><path d="m392.273438 127.742188c0 66.40625-58.464844 120.242187-192.386719 120.242187s-192.386719-53.835937-192.386719-120.242187 58.464844-120.242188 192.386719-120.242188 192.386719 53.835938 192.386719 120.242188zm0 0" fill="#ffe17d"/><path d="m231.953125 215.917969c-133.921875 0-192.386719-53.832031-192.386719-120.242188 0-19.453125 5.175782-37.769531 15.640625-54.03125-32.488281 21.84375-47.707031 52.320313-47.707031 86.097657 0 66.40625 58.464844 120.242187 192.386719 120.242187 94.6875 0 151.492187-26.972656 176.746093-66.210937-31.386718 21.101562-78.875 34.144531-144.679687 34.144531zm0 0" fill="#ffd164"/><path d="m504.5 247.984375c0 66.40625-53.835938 120.242187-120.242188 120.242187s-120.242187-53.835937-120.242187-120.242187 53.835937-120.242187 120.242187-120.242187 120.242188 53.835937 120.242188 120.242187zm0 0" fill="#fff6d8"/><path d="m373.761719 212.722656-30.394531 52.644532c-4.664063 8.082031 1.167968 18.179687 10.496093 18.179687h60.789063c9.332031 0 15.160156-10.101563 10.496094-18.179687l-30.390626-52.644532c-4.667968-8.078125-16.332031-8.078125-20.996093 0zm0 0" fill="#ffe17d"/><path d="m399.589844 121.164062c-1.890625-34.449218-18.734375-63.597656-49.011719-84.609374-34.957031-24.253907-85.65625-36.554688-150.691406-36.554688-65.035157 0-115.734375 12.300781-150.691407 36.554688-32.183593 22.335937-49.195312 53.867187-49.195312 91.1875 0 37.320312 17.011719 68.851562 49.195312 91.1875 34.957032 24.253906 85.65625 36.554687 150.691407 36.554687 20.148437 0 39.179687-1.21875 56.691406-3.628906 2.058594 68.652343 58.539063 123.871093 127.679687 123.871093 70.4375 0 127.742188-57.304687 127.742188-127.742187 0-65.25-49.175781-119.21875-112.410156-126.820313zm-341.839844 85.441407c-8.773438-6.089844-16.25-12.953125-22.378906-20.496094 6.28125.945313 12.710937.425781 19.457031-.121094 6.546875-.535156 13.316406-1.085937 19.917969-.160156 1.523437.210937 3.167968.574219 5.019531 1.105469.691406.199218 1.386719.292968 2.070313.292968 3.261718 0 6.261718-2.144531 7.203124-5.4375 1.144532-3.980468-1.160156-8.132812-5.144531-9.273437-2.53125-.726563-4.84375-1.230469-7.074219-1.542969-8.242187-1.15625-16.195312-.507812-23.210937.0625-6.742187.550782-13.105469 1.066406-18.121094-.167968-4.152343-1.027344-8.238281-2.722657-12.722656-5.28125-5.128906-11.597657-7.765625-24.28125-7.765625-37.84375 0-13.558594 2.632812-26.238282 7.761719-37.832032 4.496093-2.570312 8.589843-4.269531 12.753906-5.296875 5.011719-1.238281 11.378906-.71875 18.117187-.171875 7.015626.574219 14.96875 1.222656 23.207032.066406 6.554687-.914062 12.980468-3.421874 19.195312-5.847656 6.878906-2.683594 13.996094-5.460937 21.117188-6.007812 5.425781-.414063 11.640625.929687 18.222656 2.355468 7.382812 1.597657 15.019531 3.25 23.257812 2.976563 7.132813-.238281 14.117188-2.261719 20.871094-4.222656 7.0625-2.046875 13.734375-3.984375 20.382813-3.984375 6.640625 0 13.308593 1.9375 20.367187 3.984375 6.75 1.960937 13.726563 3.984375 20.859375 4.222656 8.238281.273437 15.878907-1.382813 23.265625-2.980469 6.585938-1.425781 12.800782-2.769531 18.230469-2.351562 4.128906.324218 7.734375-2.773438 8.050781-6.90625.320313-4.128906-2.773437-7.734375-6.902344-8.050782-7.609374-.585937-15.207031 1.058594-22.550781 2.648438-6.492187 1.40625-13.207031 2.867188-19.597656 2.644531-5.253906-.171875-11.042969-1.851562-17.171875-3.632812-7.753906-2.25-15.773438-4.578125-24.550781-4.578125-8.777344 0-16.800781 2.328125-24.5625 4.578125-6.136719 1.78125-11.929688 3.460937-17.183594 3.636719-6.394531.214843-13.101563-1.242188-19.589844-2.644532-7.34375-1.589844-14.941406-3.234375-22.542969-2.652344-9.347656.71875-17.890624 4.050782-25.425781 6.992188-5.65625 2.207031-11.003906 4.292969-15.816406 4.964844-6.601563.921875-13.367187.371094-19.914063-.160156-6.75-.550782-13.1875-1.070313-19.476562-.121094 6.128906-7.542969 13.601562-14.402344 22.375-20.492188 31.941406-22.164062 81.089844-33.878906 142.140625-33.878906 61.046875 0 110.199219 11.714844 142.136719 33.878906 8.773437 6.089844 16.25 12.953125 22.378906 20.496094-6.285156-.945312-12.710938-.429688-19.457031.121094-6.546875.53125-13.316407 1.082031-19.917969.160156-2.640625-.371094-5.578125-1.164062-9.515625-2.574219-3.898437-1.394531-8.191406.636719-9.585937 4.535157-1.398438 3.902343.632812 8.195312 4.535156 9.589843 4.9375 1.765625 8.792968 2.785157 12.488281 3.304688 8.242187 1.152343 16.195313.503906 23.210937-.066407 6.742188-.546874 13.109376-1.066406 18.121094.171876 4.160156 1.027343 8.242188 2.722656 12.730469 5.285156 4.171875 9.429687 6.683594 19.582031 7.476563 30.339844-.078126 0-.152344 0-.230469 0-46.492188 0-87.257813 24.96875-109.605469 62.199218-3.257812-.457031-6.683594-1.191406-10.253906-1.964844-7.382813-1.597656-15.015625-3.246093-23.257813-2.976562-7.132812.234375-14.117187 2.261719-20.871093 4.222656-7.0625 2.046875-13.734376 3.984375-20.382813 3.984375-6.640625 0-13.308594-1.9375-20.367187-3.984375-6.75-1.960937-13.726563-3.988281-20.859376-4.222656-8.246093-.269531-15.878906 1.378906-23.265624 2.976562-6.582032 1.425782-12.808594 2.769532-18.230469 2.355469-1.554688-.121093-3.128907-.339843-4.804688-.679687-4.0625-.816406-8.015625 1.816406-8.832031 5.878906-.816406 4.058594 1.816406 8.011719 5.875 8.828125 2.25.453125 4.472656.765625 6.613281.929687 7.609375.582032 15.203125-1.0625 22.550781-2.648437 6.492188-1.40625 13.214844-2.867187 19.597657-2.648437 5.25.171874 11.042969 1.855468 17.171875 3.636718 7.753906 2.25 15.773437 4.578125 24.550781 4.578125 8.78125 0 16.804687-2.328125 24.5625-4.578125 6.136719-1.78125 11.929687-3.464844 17.183594-3.636718 6.390625-.214844 13.101562 1.242187 19.589843 2.644531 2.035157.441406 4.09375.886719 6.171876 1.289062-5.53125 12.484375-9.113282 26.011719-10.367188 40.199219-17.519531 2.550781-36.703125 3.859375-57.140625 3.859375-61.050781 0-110.203125-11.714844-142.140625-33.878906zm326.507812 154.121093c-62.164062 0-112.742187-50.578124-112.742187-112.742187 0-62.167969 50.578125-112.742187 112.742187-112.742187 62.167969 0 112.742188 50.574218 112.742188 112.742187 0 62.164063-50.574219 112.742187-112.742188 112.742187zm0 0"/><path d="m401.25 208.972656c-3.546875-6.140625-9.898438-9.808594-16.992188-9.808594s-13.445312 3.664063-16.992187 9.808594l-30.394531 52.644532c-3.546875 6.144531-3.546875 13.476562 0 19.621093s9.898437 9.808594 16.992187 9.808594h60.789063c7.089844 0 13.445312-3.664063 16.992187-9.808594 3.542969-6.144531 3.546875-13.476562 0-19.621093zm17.402344 64.765625c-.382813.660157-1.496094 2.144531-3.679688 2.285157l-4.492187-7.496094c-2.128907-3.550782-6.734375-4.707032-10.289063-2.574219-3.488281 2.089844-4.65625 6.570313-2.675781 10.097656h-24.335937c0-.082031.007812-.164062.007812-.246093l-.101562-5.941407c-.070313-4.097656-3.414063-7.371093-7.5-7.371093-.042969 0-.085938 0-.128907 0-4.144531.070312-7.441406 3.488281-7.371093 7.628906l.101562 5.929687h-4.324219c-2.40625 0-3.597656-1.617187-4-2.3125-.398437-.695312-1.203125-2.535156 0-4.621093l10.332031-17.894532 4.003907 2.863282c1.324219.945312 2.847656 1.398437 4.355469 1.398437 2.339843 0 4.644531-1.09375 6.109374-3.140625 2.40625-3.371094 1.625-8.058594-1.746093-10.464844l-5.1875-3.707031 12.527343-21.699219c1.203126-2.085937 3.199219-2.3125 4-2.3125.800782 0 2.796876.226563 4.003907 2.3125l2.578125 4.46875-2.585938 1.292969c-3.707031 1.855469-5.207031 6.359375-3.355468 10.066406 1.3125 2.625 3.960937 4.144531 6.714843 4.144531 1.125 0 2.269531-.253906 3.347657-.792968l3.394531-1.695313 20.296875 35.160157c1.203125 2.085937.402344 3.925781 0 4.621093zm0 0"/><path d="m395.84375 247.382812c-3.28125-2.523437-7.992188-1.910156-10.515625 1.375l-3.339844 4.339844c-2.527343 3.285156-1.914062 7.992188 1.371094 10.515625 1.363281 1.050781 2.972656 1.558594 4.566406 1.558594 2.25 0 4.472657-1.007813 5.953125-2.929687l3.339844-4.34375c2.523438-3.28125 1.910156-7.992188-1.375-10.515626zm0 0"/></svg>