<svg height="512pt" viewBox="0 -16 512.00048 512" width="512pt" xmlns="http://www.w3.org/2000/svg"><path d="m291.910156 272.261719c-80.21875 80.21875-214.414062 117.582031-262.832031 69.164062l290.496094-290.496093c69.167969 27.667968 52.554687 141.113281-27.664063 221.332031zm0 0" fill="#b4e6a0"/><path d="m98.246094 78.597656c-80.21875 80.21875-117.582032 214.414063-69.167969 262.828125l290.496094-290.496093c-27.664063-69.164063-141.109375-52.550782-221.328125 27.667968zm0 0" fill="#96d7a5"/><path d="m176.84375 42.371094c11.167969-11.167969 22.875-21.289063 34.871094-30.4375-37.597656 9.042968-78.660156 31.855468-113.46875 66.664062-80.21875 80.21875-117.582032 214.414063-69.164063 262.828125l35.519531-35.519531c-7.078124-77.085938 37.714844-189.007812 112.242188-263.535156zm0 0" fill="#78c89b"/><path d="m319.574219 50.929688c-2.640625-6.605469-6.078125-12.417969-10.183594-17.480469-27.585937-18.019531-103.582031 18.851562-170.511719 85.78125-80.21875 80.21875-137.898437 194.097656-109.800781 222.195312zm0 0" fill="#b4e6a0"/><path d="m319.574219 50.929688c6.609375 2.644531 12.417969 6.082031 17.480469 10.1875 18.019531 27.582031-18.847657 103.582031-85.777344 170.511718-80.21875 80.21875-194.097656 137.898438-222.195313 109.796875zm0 0" fill="#cdf5a0"/><path d="m64.601562 305.902344c-3.414062-37.167969 5.261719-82.421875 23.492188-127.695313-51.328125 68.90625-80.679688 141.554688-59.011719 163.21875zm0 0" fill="#96d7a5"/><path d="m64.601562 305.902344-35.519531 35.523437c8.425781 8.425781 24.597657 9.089844 45.230469 3.796875-5.164062-11.558594-8.378906-24.800781-9.710938-39.320312zm0 0" fill="#b4e6a0"/><path d="m340.636719 163.667969 42.550781 104.320312c.398438.976563 1.316406 1.644531 2.371094 1.722657l112.363281 8.234374c2.480469.179688 3.488281 3.285157 1.589844 4.890626l-86.066407 72.707031c-.804687.679687-1.15625 1.757812-.90625 2.78125l26.894532 109.410156c.59375 2.417969-2.046875 4.335937-4.164063 3.023437l-95.742187-59.386718c-.898438-.554688-2.03125-.554688-2.925782 0l-95.746093 59.386718c-2.113281 1.3125-4.753907-.605468-4.160157-3.023437l26.890626-109.410156c.253906-1.023438-.097657-2.101563-.902344-2.78125l-86.066406-72.707031c-1.902344-1.605469-.894532-4.710938 1.589843-4.890626l112.363281-8.234374c1.050782-.078126 1.96875-.746094 2.367188-1.722657l42.554688-104.320312c.941406-2.304688 4.203124-2.304688 5.144531 0zm0 0" fill="#cdf5a0"/><path d="m397.542969 341.359375 48.507812-40.980469c2.714844-2.292968 1.277344-6.722656-2.269531-6.980468l-63.335938-4.640626c-6.542968-.480468-12.246093-4.625-14.722656-10.699218l-23.988281-58.800782c-1.339844-3.292968-6-3.292968-7.339844 0l-23.984375 58.796876c-2.480468 6.074218-8.1875 10.222656-14.734375 10.703124l-63.328125 4.640626c-3.542968.257812-4.984375 4.6875-2.269531 6.980468l48.507813 40.980469c5.011718 4.234375 7.195312 10.945313 5.625 17.320313l-15.15625 61.664062c-.847657 3.449219 2.921874 6.1875 5.941406 4.316406l53.960937-33.472656c2.738281-1.695312 5.886719-2.59375 9.105469-2.59375s6.367188.898438 9.105469 2.59375l53.964843 33.472656c3.019532 1.871094 6.785157-.867187 5.9375-4.316406l-15.15625-61.664062c-1.5625-6.375.617188-13.085938 5.628907-17.320313zm0 0" fill="#e1ffa0"/><path d="m511.632812 275.265625c-.941406-2.898437-3.542968-4.941406-6.582031-5.164063l-115.855469-8.488281-30.925781-75.8125c11.726563-30.601562 15.304688-59.777343 10.304688-84.507812-5.378907-26.574219-20.230469-45.890625-43.042969-56.0625-10.132812-22.726563-29.355469-37.558594-55.785156-42.984375-52.425782-10.757813-123.449219 17.808594-176.730469 71.089844-39.457031 39.460937-70.375 92.96875-84.820313 146.804687-14.953124 55.726563-9.265624 101.953125 15.605469 126.824219 15.71875 15.71875 39.507813 23.8125 69.511719 23.8125 6.53125 0 13.363281-.386719 20.46875-1.160156 35.183594-3.824219 74.519531-17.160157 111.222656-37.648438l31.144532 26.308594-27.726563 112.808594c-.726563 2.960937.410156 6.066406 2.875 7.855468 2.464844 1.792969 5.769531 1.910156 8.363281.308594l98.714844-61.230469 98.71875 61.230469c1.214844.75 2.582031 1.125 3.953125 1.125 1.550781 0 3.097656-.480469 4.40625-1.433594 2.46875-1.789062 3.605469-4.894531 2.875-7.855468l-27.726563-112.808594 88.738282-74.964844c2.328125-1.96875 3.234375-5.148438 2.292968-8.046875zm-163.691406-188.707031c2.621094 5.347656 4.625 11.253906 5.929688 17.710937 3.527344 17.429688 1.972656 38.339844-4.285156 60.246094l-4.265626-10.460937c-1.152343-2.824219-3.898437-4.667969-6.945312-4.667969s-5.792969 1.84375-6.941406 4.667969l-43.875 107.558593-66.480469 4.871094c11.929687-10.070313 23.304687-20.484375 33.953125-31.132813 30.992188-30.992187 57.335938-65.460937 74.191406-97.0625 11.84375-22.203124 17.09375-39.050781 18.71875-51.730468zm-316.8125 221.789062c2.71875-14.640625 9.683594-33.210937 20.136719-53.710937 21.867187-42.871094 57.285156-90.832031 94.753906-128.300781 22.667969-22.667969 47.328125-42.867188 71.324219-58.421876 3.207031-2.078124 4.597656-6.214843 2.941406-9.660156-1.996094-4.167968-7.101562-5.511718-10.851562-3.085937-24.945313 16.140625-50.542969 37.082031-74.023438 60.5625-39.089844 39.089843-74.628906 87.234375-97.503906 132.09375-10.167969 19.929687-17.253906 38.355469-20.664062 53.636719-.683594-3.433594-1.214844-7.03125-1.589844-10.792969-1.917969-19.304688.511718-42.347657 7.03125-66.640625 13.582031-50.617188 43.839844-102.984375 80.941406-140.085938 25.09375-25.09375 54.347656-44.679687 84.601562-56.644531 28.417969-11.238281 56.296876-14.914063 78.503907-10.359375 6.371093 1.308594 12.195312 3.296875 17.484375 5.890625-11.863282 1.519531-27.3125 6.210937-47.316406 16.402344-3.53125 1.796875-5.292969 6.019531-3.769532 9.675781 1.222656 2.929688 4.023438 4.632812 6.9375 4.632812 1.148438 0 2.3125-.265624 3.402344-.824218 27.03125-13.804688 49.101562-18.714844 60.554688-13.476563.003906.003907.003906.003907.007812.003907.761719.351562 1.421875.898437 1.910156 1.578124 1.90625 2.660157 3.382813 5.382813 4.910156 8.484376l-280.070312 280.070312c-1.339844-5.257812-1.25-12.421875.347656-21.027344zm81.03125 46.359375c-15.875 1.726563-30.277344 1.277344-42.730468-1.21875 3.304687-.738281 6.734374-1.628906 10.324218-2.707031 22.863282-6.867188 50.324219-20.257812 79.4375-38.726562 3.460938-2.195313 4.773438-6.796876 2.675782-10.316407-2.167969-3.648437-6.910157-4.761719-10.46875-2.503906-28.0625 17.828125-54.328126 30.683594-75.960938 37.183594-14.496094 4.355469-26.3125 5.527343-34.042969 3.554687l280.0625-280.0625c3.039063 1.496094 5.890625 3.214844 8.546875 5.136719.886719.640625 1.503906 1.570313 1.898438 2.589844 0 .003906.003906.011719.003906.015625 9.382812 24.09375-21.394531 91.003906-87.480469 157.09375-15.140625 15.136718-31.785156 29.820312-49.46875 43.652344l-23.035156 1.691406c-2.460937.179687-4.777344 1.449218-6.058594 3.554687-1.980469 3.261719-1.226562 7.324219 1.550781 9.667969l45.304688 38.277344c-33.523438 17.984375-68.902344 29.671875-100.558594 33.117187zm295.207032-4.886719c-2.175782 1.839844-3.121094 4.753907-2.441407 7.519532l24.449219 99.46875-87.046875-53.988282c-1.210937-.753906-2.582031-1.128906-3.953125-1.128906s-2.742188.375-3.953125 1.128906l-87.042969 53.988282 24.445313-99.46875c.679687-2.765625-.265625-5.679688-2.441407-7.519532l-78.246093-66.101562 102.15625-7.484375c2.839843-.207031 5.320312-2.007813 6.394531-4.648437l38.6875-94.84375 38.6875 94.84375c1.078125 2.640624 3.554688 4.441406 6.398438 4.648437l102.152343 7.484375zm0 0"/><path d="m373.167969 310.917969-24.183594 7.859375v-25.425782c0-4.144531-3.359375-7.5-7.5-7.5-4.144531 0-7.5 3.355469-7.5 7.5v25.425782l-24.183594-7.859375c-3.941406-1.28125-8.171875.878906-9.449219 4.816406-.25.769531-.371093 1.550781-.371093 2.316406 0 3.164063 2.015625 6.105469 5.183593 7.132813l24.183594 7.859375-14.945312 20.570312c-.96875 1.332031-1.433594 2.875-1.433594 4.40625 0 2.316407 1.074219 4.601563 3.09375 6.070313 1.332031.96875 2.875 1.433594 4.402344 1.433594 2.316406 0 4.605468-1.070313 6.074218-3.089844l14.945313-20.574219 14.945313 20.574219c2.433593 3.351562 7.125 4.09375 10.476562 1.65625 2.019531-1.464844 3.09375-3.75 3.09375-6.070313 0-1.527343-.46875-3.070312-1.433594-4.402343l-14.945312-20.570313 24.183594-7.859375c3.167968-1.03125 5.183593-3.972656 5.183593-7.132812 0-.769532-.121093-1.546876-.371093-2.316407-1.277344-3.945312-5.511719-6.101562-9.449219-4.820312zm0 0"/></svg>