<svg height="512pt" viewBox="0 0 512 512" width="512pt" xmlns="http://www.w3.org/2000/svg"><path d="m125.015625 7.5c-4.34375 0-7.183594 4.601562-5.175781 8.457031 5.566406 10.710938 15.109375 30.789063 22.679687 55.300781l9.269531 32.433594h24.050782s0-30.523437-14.519532-90.054687c-.875-3.585938-4.105468-6.136719-7.796874-6.136719zm0 0" fill="#7dbe81"/><path d="m312.113281 239.96875c0 84.117188-68.191406 152.304688-152.308593 152.304688-84.113282 0-152.304688-68.1875-152.304688-152.304688s68.191406-152.308594 152.304688-152.308594c84.117187 0 152.308593 68.191406 152.308593 152.308594zm0 0" fill="#be4150"/><path d="m183.246094 355.6875c-70.894532-5.773438-129.359375-61.472656-138.402344-132.027344-.085938-.65625-.167969-1.316406-.242188-1.972656-5.796874-50.199219 34.359376-85.929688 84.890626-85.929688l141.386718-.003906-8.359375-8.015625c-27.09375-24.8125-63.078125-40.078125-102.714843-40.078125-33.003907 0-63.660157 10.539063-88.578126 28.410156-1.484374 1.105469-3.746093 2.789063-4.09375 3.054688-40.3125 30.964844-64.722656 81.640625-58.734374 137.613281 7.503906 70.140625 63.996093 126.832031 134.109374 134.578125 58.296876 6.441406 110.757813-20.140625 141.425782-63.292968-28.035156 19.925781-63.007813 30.730468-100.6875 27.664062zm0 0" fill="#a03c4b"/><path d="m504.5 352.195312c0 84.113282-68.191406 152.304688-152.304688 152.304688-84.117187 0-152.308593-68.191406-152.308593-152.304688 0-84.117187 68.191406-152.308593 152.308593-152.308593 84.113282 0 152.304688 68.191406 152.304688 152.308593zm0 0" fill="#e6646e"/><path d="m458.882812 357.484375c-2.800781-3.082031-2.800781-7.5 0-10.582031 3.136719-3.453125 4.773438-8.238282 3.945313-13.261719-2.125-12.875-6.53125-25.585937-13.445313-37.558594-6.910156-11.972656-15.71875-22.148437-25.804687-30.425781-3.9375-3.230469-8.898437-4.203125-13.457031-3.214844-4.070313.886719-7.898438-1.324218-9.167969-5.289062-1.417969-4.441406-4.746094-8.253906-9.511719-10.046875-12.210937-4.597657-25.425781-7.136719-39.25-7.136719-13.824218 0-27.035156 2.539062-39.246094 7.136719-4.769531 1.792969-8.09375 5.605469-9.515624 10.046875-1.269532 3.964844-5.09375 6.175781-9.164063 5.289062-4.558594-.988281-9.519531-.015625-13.457031 3.214844-10.085938 8.277344-18.894532 18.453125-25.804688 30.425781-6.914062 11.972657-11.320312 24.683594-13.445312 37.558594-.828125 5.023437.808594 9.808594 3.945312 13.261719 2.800782 3.082031 2.800782 7.5 0 10.582031-3.136718 3.453125-4.773437 8.238281-3.945312 13.261719 2.125 12.875 6.53125 25.589844 13.445312 37.558594 6.910156 11.972656 15.71875 22.144531 25.804688 30.421874 3.9375 3.234376 8.898437 4.207032 13.457031 3.214844 4.070313-.882812 7.894531 1.328125 9.164063 5.292969 1.421874 4.441406 4.75 8.253906 9.515624 10.046875 12.210938 4.597656 25.421876 7.136719 39.246094 7.136719 13.824219 0 27.039063-2.539063 39.25-7.136719 4.769532-1.792969 8.09375-5.605469 9.511719-10.046875 1.269531-3.964844 5.097656-6.175781 9.167969-5.292969 4.554687.992188 9.519531.019532 13.457031-3.214844 10.085937-8.277343 18.894531-18.449218 25.804687-30.421874 6.914063-11.96875 11.320313-24.683594 13.445313-37.558594.828125-5.023438-.808594-9.808594-3.945313-13.261719zm0 0" fill="#fff6d8"/><path d="m215.917969 55.597656c-30.988281 0-56.113281 25.121094-56.113281 56.113282h112.226562c0-30.992188-25.121094-56.113282-56.113281-56.113282zm0 0" fill="#afdc82"/><path d="m103.695312 55.597656c-30.992187 0-56.113281 25.121094-56.113281 56.113282h112.226563c-.003906-30.992188-25.125-56.113282-56.113282-56.113282zm0 0" fill="#96cd82"/><path d="m352.191406 192.386719c-13.238281 0-26.101562 1.628906-38.410156 4.679687-4.035156-14.511718-10.097656-28.355468-18.074219-41.214844-2.183593-3.519531-6.804687-4.605468-10.324219-2.417968-3.523437 2.179687-4.605468 6.804687-2.421874 10.324218 7.273437 11.730469 12.777343 24.363282 16.433593 37.605469-62.25 21.855469-107.007812 81.210938-107.007812 150.832031 0 9.652344.859375 19.105469 2.507812 28.289063-11.421875 2.839844-23.203125 4.289063-35.089843 4.289063-79.84375 0-144.804688-64.960938-144.804688-144.804688 0-48.746094 24.242188-93.808594 64.882812-120.757812h159.839844c9.351563 6.199218 17.992188 13.480468 25.6875 21.679687 1.476563 1.570313 3.472656 2.367187 5.472656 2.367187 1.839844 0 3.683594-.675781 5.128907-2.035156 3.019531-2.832031 3.171875-7.578125.335937-10.601562-3.765625-4.007813-7.746094-7.8125-11.898437-11.410156h7.582031c4.140625 0 7.5-3.359376 7.5-7.5 0-35.078126-28.539062-63.613282-63.613281-63.613282-13.679688 0-26.351563 4.351563-36.734375 11.726563-2.003906-14.074219-6.617188-36.195313-17.101563-55.851563-1.304687-2.445312-3.847656-3.972656-6.617187-3.972656h-40.25c-2.917969 0-5.570313 1.699219-6.796875 4.347656-1.230469 2.648438-.804688 5.777344 1.082031 8.007813.15625.1875 13.429688 16.105469 22.34375 42.328125-8.492188-4.207032-18.046875-6.585938-28.152344-6.585938-35.074218 0-63.613281 28.535156-63.613281 63.613282 0 4.140624 3.359375 7.5 7.5 7.5h7.554687c-34.847656 30.160156-55.132812 73.914062-55.132812 120.757812 0 88.117188 71.6875 159.804688 159.808594 159.804688 13.011718 0 25.917968-1.570313 38.4375-4.664063 18.800781 67.339844 80.691406 116.890625 153.945312 116.890625 88.121094 0 159.808594-71.6875 159.808594-159.808594 0-88.117187-71.6875-159.804687-159.808594-159.804687zm-136.273437-129.289063c24.253906 0 44.417969 17.855469 48.035156 41.113282h-96.070313c3.621094-23.257813 23.78125-41.113282 48.035157-41.113282zm-86.257813-48.097656h21.195313c11.324219 23.558594 14.117187 50.613281 14.6875 57.933594-2.144531 2.777344-4.066407 5.734375-5.734375 8.847656-2.273438-4.246094-5.03125-8.1875-8.167969-11.792969-5.179687-23.339843-15.101563-43.941406-21.980469-54.988281zm-25.96875 48.097656c24.257813 0 44.417969 17.855469 48.039063 41.113282h-96.074219c3.621094-23.257813 23.78125-41.113282 48.035156-41.113282zm248.5 433.902344c-79.84375 0-144.804687-64.960938-144.804687-144.808594 0-79.84375 64.960937-144.804687 144.804687-144.804687 79.847656 0 144.808594 64.960937 144.808594 144.804687 0 79.847656-64.960938 144.808594-144.808594 144.808594zm0 0"/><path d="m464.199219 352.191406c.261719-.277344.519531-.558594.765625-.851562 4.460937-5.257813 6.378906-12.152344 5.261718-18.921875-2.335937-14.15625-7.160156-27.640625-14.347656-40.089844-7.1875-12.445313-16.453125-23.367187-27.542968-32.46875-5.300782-4.351563-12.234376-6.136719-19.015626-4.902344-.378906.066407-.75.148438-1.121093.234375-.113281-.363281-.226563-.726562-.359375-1.089844-2.320313-6.492187-7.335938-11.597656-13.753906-14.015624-13.425782-5.054688-27.519532-7.617188-41.894532-7.617188-14.371094 0-28.464844 2.5625-41.890625 7.617188-6.417969 2.417968-11.433593 7.523437-13.753906 14.015624-.128906.363282-.246094.726563-.359375 1.089844-.371094-.085937-.742188-.167968-1.121094-.234375-6.785156-1.234375-13.714844.550781-19.015625 4.902344-11.089843 9.101563-20.359375 20.027344-27.542969 32.46875-7.1875 12.449219-12.015624 25.933594-14.347656 40.089844-1.117187 6.769531.800782 13.664062 5.261719 18.921875.246094.292968.503906.574218.765625.851562-.261719.28125-.519531.5625-.765625.855469-4.460937 5.257813-6.378906 12.152344-5.261719 18.921875 2.332032 14.152344 7.160156 27.640625 14.347656 40.085938 7.183594 12.445312 16.453126 23.371093 27.542969 32.46875 4.203125 3.449218 9.425781 5.289062 14.792969 5.289062 1.402344 0 2.816406-.128906 4.226562-.382812.375-.070313.75-.152344 1.121094-.238282.109375.367188.226563.730469.355469 1.089844 2.320313 6.492188 7.335937 11.601562 13.753906 14.019531 13.429688 5.054688 27.523438 7.617188 41.894531 7.617188 14.371094 0 28.464844-2.5625 41.890626-7.617188 6.417968-2.417969 11.433593-7.527343 13.757812-14.019531.128906-.359375.246094-.722656.355469-1.089844.371093.085938.742187.167969 1.121093.238282 1.40625.253906 2.820313.382812 4.226563.382812 5.363281 0 10.589844-1.839844 14.789063-5.289062 11.09375-9.097657 20.359374-20.023438 27.542968-32.46875 7.1875-12.445313 12.015625-25.933594 14.351563-40.085938 1.117187-6.769531-.800781-13.667969-5.261719-18.921875-.25-.292969-.507812-.574219-.769531-.855469zm-153.527344-93.035156c.847656-2.371094 2.59375-4.160156 4.914063-5.03125 11.730468-4.417969 24.046874-6.65625 36.605468-6.65625 12.5625 0 24.878906 2.238281 36.609375 6.65625 2.320313.875 4.066407 2.660156 4.914063 5.03125.859375 2.398438.625 5.035156-.644532 7.230469v.007812l-40.878906 70.796875-40.875-70.796875c-1.269531-2.199219-1.503906-4.839843-.644531-7.238281zm-61.710937 75.703125c2.039062-12.367187 6.257812-24.152344 12.535156-35.03125 6.28125-10.875 14.378906-20.421875 24.070312-28.375 1.507813-1.238281 3.328125-1.882813 5.242188-1.882813.519531 0 1.042968.046876 1.574218.144532 2.507813.457031 4.671876 1.976562 5.941407 4.175781l40.878906 70.800781h-81.753906c-2.539063 0-4.941407-1.113281-6.589844-3.054687-1.628906-1.921875-2.304687-4.328125-1.898437-6.777344zm144.757812 110.371094c-.851562 2.371093-2.597656 4.160156-4.917969 5.03125-11.730469 4.417969-24.046875 6.65625-36.605469 6.65625-12.558593 0-24.875-2.238281-36.605468-6.65625-2.324219-.875-4.070313-2.660157-4.917969-5.03125-.859375-2.398438-.625-5.039063.644531-7.238281 2.070313-3.585938.84375-8.171876-2.746094-10.242188-3.585937-2.074219-8.171874-.84375-10.242187 2.742188-1.269531 2.199218-3.4375 3.722656-5.945313 4.179687-2.472656.453125-4.898437-.164063-6.816406-1.742187-9.691406-7.949219-17.789062-17.496094-24.066406-28.375-6.28125-10.875-10.5-22.660157-12.539062-35.027344-.402344-2.449219.269531-4.855469 1.898437-6.773438 1.648437-1.945312 4.050781-3.058594 6.589844-3.058594h81.753906l-25.570313 44.289063c-2.070312 3.585937-.839843 8.171875 2.746094 10.242187 3.585938 2.074219 8.175782.84375 10.246094-2.742187l25.570312-44.289063 40.875 70.800782s.003907 0 .003907.003906c1.265625 2.195312 1.5 4.832031.644531 7.230469zm61.710938-75.703125c-2.042969 12.367187-6.261719 24.152344-12.539063 35.027344-6.28125 10.878906-14.378906 20.425781-24.070313 28.375-1.917968 1.574218-4.335937 2.191406-6.816406 1.742187-2.503906-.453125-4.667968-1.976563-5.941406-4.171875 0-.003906 0-.003906 0-.003906l-40.878906-70.800782h43.121094c4.140624 0 7.5-3.359374 7.5-7.5 0-4.144531-3.359376-7.5-7.5-7.5h-43.121094l40.878906-70.800781c0-.003906 0-.003906 0-.003906 1.273438-2.199219 3.4375-3.71875 5.941406-4.175781 2.480469-.449219 4.898438.167968 6.816406 1.742187 9.691407 7.949219 17.789063 17.496094 24.070313 28.375 6.277344 10.878907 10.496094 22.664063 12.539063 35.03125.402343 2.449219-.273438 4.851563-1.902344 6.773438-1.648438 1.941406-4.050782 3.058593-6.589844 3.058593h-6.566406c-4.140625 0-7.5 3.355469-7.5 7.5 0 4.140626 3.359375 7.5 7.5 7.5h6.566406c2.539062 0 4.941406 1.113282 6.589844 3.058594 1.628906 1.917969 2.304687 4.324219 1.902344 6.773438zm0 0"/></svg>