<svg height="512pt" viewBox="0 -20 512.00015 512" width="512pt" xmlns="http://www.w3.org/2000/svg"><path d="m276.269531 230.761719c-11.867187-55.40625-65.738281-119.453125-131.148437-161.429688-44.8125-28.761719-53.304688-67.335937-82.460938-61.582031-68.886718 13.597656-71.894531 192.582031-19.070312 297.492188 30.65625 60.886718 87.386718 100.789062 153.871094 82.765624 15.59375-4.226562 42.628906-19.71875 58.679687-35.769531l24.078125-88.285156c-.585938-4.085937-3.050781-29-3.949219-33.191406zm0 0" fill="#f5b97d"/><path d="m221.539062 331.828125c-66.488281 18.023437-123.214843-21.878906-153.871093-82.765625-33.054688-65.644531-44.242188-160.28125-31.117188-225.265625-42.414062 48.671875-38.015625 191.960937 7.039063 281.445313 30.65625 60.886718 87.386718 100.789062 153.871094 82.765624 15.59375-4.226562 42.628906-19.71875 58.679687-35.769531l12.609375-46.234375c-15.535156 12.109375-34.90625 22.488282-47.210938 25.824219zm0 0" fill="#e3aa75"/><path d="m381.613281 199.75c33.582031 0 64.726563 12.652344 87.699219 35.625 24 24 36.628906 56.578125 35.5625 91.738281-1.078125 35.578125-16 69.5-42.019531 95.519531-27.136719 27.136719-62.492188 42.082032-99.554688 42.082032-33.585937 0-64.730469-12.652344-87.703125-35.625-28.738281-28.738282-40.96875-69.285156-33.546875-111.242188 2.664063-15.0625 8.867188-30.800781 18.441407-46.78125l2.515624-4.195312c5.996094-10.011719 12.179688-18.152344 19.046876-25.039063 27.136718-27.136719 62.492187-42.082031 99.558593-42.082031" fill="#ffaa5f"/><path d="m481.121094 395.238281c-27.136719 27.136719-62.496094 42.082031-99.558594 42.082031-33.582031 0-64.730469-12.652343-87.703125-35.625-28.738281-28.738281-40.964844-69.285156-33.546875-111.242187 2.417969-13.664063 7.894531-27.898437 16.011719-42.347656-4.652344 5.464843-9.035157 11.621093-13.316407 18.765625l-2.515624 4.199218c-9.574219 15.976563-15.777344 31.714844-18.441407 46.777344-7.421875 41.957032 4.808594 82.503906 33.546875 111.242188 22.972656 22.972656 54.117188 35.625 87.703125 35.625 37.0625 0 72.417969-14.945313 99.554688-42.082032 10.894531-10.894531 19.714843-23.230468 26.515625-36.4375-2.625 3.097657-5.34375 6.136719-8.25 9.042969zm0 0" fill="#ff8c5a"/><path d="m473.914062 230.445312c-50.675781-50.675781-134.113281-50.484374-190.308593-1.164062-.007813-.027344-.015625-.058594-.019531-.085938-5.988282-27.957031-22.230469-58.664062-46.96875-88.8125-23.941407-29.175781-54.117188-55.84375-87.269532-77.117187-18.3125-11.753906-30.085937-25.03125-40.472656-36.746094-14.230469-16.046875-26.527344-29.898437-47.371094-25.789062-17.734375 3.5-32.660156 16.707031-43.164062 38.191406-30.671875 62.738281-21.859375 188.714844 18.863281 269.59375 16.476563 32.714844 39.414063 58.296875 66.332031 73.976563 19.515625 11.367187 40.613282 17.117187 62.269532 17.117187 11.136718 0 22.421874-1.523437 33.710937-4.582031 13.425781-3.640625 26.3125-10.082032 37.769531-18.820313 5.96875 21.835938 17.328125 41.496094 33.351563 57.515625 25.464843 25.464844 59.195312 38.089844 93.59375 38.085938 37.085937 0 74.941406-14.675782 104.019531-43.75 56.042969-56.042969 58.582031-144.691406 5.664062-197.613282zm-16.289062 186.988282c-24.375 24.371094-56.1875 38.351562-89.585938 39.363281-33.214843 1.011719-64.042968-10.957031-86.78125-33.695313-17.421874-17.425781-28.617187-39.742187-32.371093-64.539062-3.6875-24.34375-.039063-49.398438 10.546875-72.453125 1.734375-3.773437.078125-8.230469-3.691406-9.960937-3.773438-1.734376-8.230469-.082032-9.960938 3.691406-11.636719 25.335937-15.734375 52.875-11.914062 79.726562-11.257813 9.972656-24.457032 17.210938-38.28125 20.960938-29.277344 7.929687-58.492188 4.125-84.488282-11.015625-15.972656-9.304688-30.4375-22.582031-42.785156-39.074219l8.214844-6.570312c3.238281-2.59375 3.761718-7.320313 1.171875-10.558594-2.59375-3.242188-7.320313-3.765625-10.558594-1.175782l-7.363281 5.890626c-3.246094-5.175782-6.300782-10.601563-9.152344-16.265626-18.636719-37.011718-31.28125-86.648437-34.695312-136.183593-3.355469-48.75 2.441406-92.507813 15.90625-120.050781 8.480468-17.347657 19.441406-27.460938 32.574218-30.050782 11.882813-2.347656 19.167969 5.167969 33.222656 21.015625 10.488282 11.828125 23.539063 26.546875 43.597657 39.417969 8.230469 5.285156 16.238281 10.898438 23.96875 16.78125l-25.347657 23.472656c-3.046874 2.820313-3.226562 7.574219-.410156 10.617188 1.480469 1.597656 3.496094 2.410156 5.515625 2.410156 1.824219 0 3.65625-.664062 5.101563-2l27.046875-25.042969v-.003906c47.632812 39.402344 82.84375 88.457031 91.789062 130.203125.695313 3.238281 1.292969 6.496094 1.796875 9.71875-2.878906 3.203125-5.636718 6.503906-8.210937 9.902344-2.503907 3.304687-1.855469 8.019531 1.453125 10.523437 3.308594 2.503907 8.019531 1.855469 10.523437-1.453125 3.789063-5.003906 7.984375-9.8125 12.46875-14.296875 50.183594-50.1875 129.300781-52.730469 176.363281-5.667969 22.734376 22.738282 34.703126 53.558594 33.695313 86.78125-1.011719 33.398438-14.988281 65.210938-39.359375 89.582032zm0 0"/><path d="m112.503906 189.710938-29.050781 21.035156c-3.359375 2.433594-4.109375 7.132812-1.675781 10.492187 1.46875 2.027344 3.761718 3.109375 6.089844 3.109375 1.527343 0 3.066406-.464844 4.398437-1.429687l29.050781-21.035157c3.359375-2.433593 4.109375-7.132812 1.679688-10.492187-2.4375-3.363281-7.132813-4.113281-10.492188-1.679687zm0 0"/><path d="m195.023438 161.164062-10.019532 9.015626c-3.082031 2.773437-3.332031 7.523437-.558594 10.609374 1.484376 1.648438 3.53125 2.484376 5.585938 2.484376 1.792969 0 3.589844-.636719 5.023438-1.925782l10.019531-9.015625c3.082031-2.777343 3.332031-7.527343.558593-10.609375-2.777343-3.082031-7.527343-3.332031-10.609374-.558594zm0 0"/><path d="m90.472656 248.804688-18.03125 13.023437c-3.363281 2.425781-4.121094 7.125-1.691406 10.488281 1.46875 2.03125 3.765625 3.113282 6.097656 3.113282 1.523438 0 3.0625-.460938 4.390625-1.421876l18.03125-13.023437c3.363281-2.429687 4.121094-7.125 1.691407-10.488281-2.429688-3.367188-7.125-4.121094-10.488282-1.691406zm0 0"/><path d="m54.035156 81.851562-10.644531 7.6875c-3.359375 2.429688-4.117187 7.125-1.6875 10.488282 1.46875 2.035156 3.765625 3.113281 6.09375 3.113281 1.527344 0 3.0625-.460937 4.394531-1.421875l10.640625-7.691406c3.363281-2.429688 4.121094-7.125 1.691407-10.488282-2.429688-3.363281-7.125-4.121093-10.488282-1.6875zm0 0"/></svg>