<svg height="512pt" viewBox="0 -16 512.00002 512" width="512pt" xmlns="http://www.w3.org/2000/svg"><path d="m344.21875 135.828125c0 70.84375-57.429688 128.273437-128.273438 128.273437s-128.273437-57.429687-128.273437-128.273437 57.429687-128.273437 128.273437-128.273437 128.273438 57.429687 128.273438 128.273437zm0 0" fill="#b4e6a0"/><path d="m107.527344 126.4375c-7.113282 3.902344-13.644532 8.441406-19.699219 13.40625.597656 19.578125 5.582031 39.308594 15.644531 57.664062 34.066406 62.113282 112.035156 84.855469 174.152344 50.792969 7.113281-3.902343 13.644531-8.441406 19.699219-13.40625-.597657-19.578125-5.582031-39.3125-15.644531-57.664062-34.0625-62.117188-112.035157-84.855469-174.152344-50.792969zm0 0" fill="#96d7a5"/><path d="m231.980469 216c-70.84375 0-128.273438-57.433594-128.273438-128.277344 0-5.28125.417969-10.460937 1.039063-15.574218-21.402344 37.457031-23.535156 84.757812-1.269532 125.359374 34.0625 62.113282 112.03125 84.855469 174.148438 50.792969 37.550781-20.589843 60.582031-57.246093 65.503906-96.726562-22.148437 38.464843-63.574218 64.425781-111.148437 64.425781zm0 0" fill="#96d7a5"/><path d="m297.324219 234.894531c-.34375-11.296875-2.203125-22.632812-5.601563-33.738281-17.835937 9.445312-38.140625 14.84375-59.742187 14.84375-57.679688 0-106.453125-38.078125-122.59375-90.464844-.613281.324219-1.25.566406-1.859375.902344-7.113282 3.898438-13.644532 8.441406-19.699219 13.402344.597656 19.578125 5.582031 39.3125 15.644531 57.664062 34.066406 62.117188 112.035156 84.859375 174.152344 50.796875 7.113281-3.902343 13.644531-8.441406 19.699219-13.40625zm0 0" fill="#78c3a5"/><path d="m504.5625 296.171875c0 70.84375-57.429688 128.273437-128.273438 128.273437s-128.273437-57.429687-128.273437-128.273437 57.429687-128.273437 128.273437-128.273437 128.273438 57.429687 128.273438 128.273437zm0 0" fill="#b4e6a0"/><path d="m354.949219 189.460938c-5.738281-5.738282-11.925781-10.738282-18.386719-15.160157-18.628906 6.054688-36.175781 16.367188-50.976562 31.164063-50.09375 50.09375-50.09375 131.3125 0 181.40625 5.738281 5.738281 11.925781 10.738281 18.386718 15.160156 18.625-6.054688 36.175782-16.363281 50.976563-31.164062 50.09375-50.09375 50.09375-131.3125 0-181.40625zm0 0" fill="#96d7a5"/><path d="m309.636719 362.824219c-46.007813-46.007813-49.636719-118.203125-11.136719-168.496094-4.46875 3.421875-8.828125 7.050781-12.914062 11.140625-50.09375 50.09375-50.09375 131.3125 0 181.40625s131.3125 50.09375 181.40625 0c4.085937-4.089844 7.71875-8.445312 11.136718-12.914062-50.289062 38.496093-122.484375 34.867187-168.492187-11.136719zm0 0" fill="#96d7a5"/><path d="m285.585938 386.875c5.738281 5.738281 11.925781 10.734375 18.386718 15.15625 12.148438-3.945312 23.742188-9.902344 34.507813-17.539062-10.339844-5.691407-20.074219-12.898438-28.84375-21.671876-46.007813-46.003906-49.636719-118.203124-11.136719-168.492187-.023438.019531-.066406.007813-.089844.023437-4.449218 3.394532-8.757812 7.046876-12.824218 11.113282-50.09375 50.097656-50.09375 131.316406 0 181.410156zm0 0" fill="#78c3a5"/><path d="m280.082031 336.253906c0 75.273438-61.019531 136.292969-136.289062 136.292969-75.273438 0-136.292969-61.019531-136.292969-136.292969 0-75.269531 61.019531-136.289062 136.292969-136.289062 75.269531 0 136.289062 61.019531 136.289062 136.289062zm0 0" fill="#b4e6a0"/><path d="m175.859375 440.480469c-75.269531 0-136.289063-61.023438-136.289063-136.292969 0-29.445312 9.433594-56.632812 25.304688-78.917969-34.679688 24.710938-57.375 65.160157-57.375 110.984375 0 75.273438 61.019531 136.292969 136.292969 136.292969 45.828125 0 86.277343-22.691406 110.984375-57.375-22.285156 15.875-49.472656 25.308594-78.917969 25.308594zm0 0" fill="#96d7a5"/><path d="m47.585938 272.117188c-8.621094 0-17.023438.894531-25.199219 2.425781-9.449219 18.542969-14.886719 39.472656-14.886719 61.710937 0 75.273438 61.019531 136.292969 136.292969 136.292969 8.621093 0 17.023437-.890625 25.199219-2.421875 9.449218-18.546875 14.886718-39.476562 14.886718-61.714844 0-75.273437-61.019531-136.292968-136.292968-136.292968zm0 0" fill="#96d7a5"/><path d="m175.859375 440.480469c-75.269531 0-136.289063-61.023438-136.289063-136.292969 0-10.980469 1.316407-21.644531 3.785157-31.855469-7.132813.238281-14.148438.933594-20.96875 2.210938-9.449219 18.542969-14.886719 39.472656-14.886719 61.710937 0 75.273438 61.019531 136.292969 136.292969 136.292969 8.621093 0 17.023437-.890625 25.199219-2.421875 4.777343-9.375 8.519531-19.359375 11.058593-29.8125-1.398437.042969-2.777343.167969-4.191406.167969zm0 0" fill="#78c3a5"/><path d="m472.296875 200.175781c-33.453125-33.449219-80.160156-45.753906-123.371094-36.929687 6.242188-30.09375 2.125-61.257813-11.953125-88.945313-16.441406-32.328125-44.484375-56.320312-78.964844-67.554687-34.484374-11.234375-71.277343-8.367188-103.605468 8.070312-66.734375 33.933594-93.417969 115.835938-59.480469 182.570313.523437 1.03125 1.085937 2.046875 1.636719 3.070312-56.15625 19.585938-96.558594 73.066407-96.558594 135.816407 0 79.285156 64.503906 143.789062 143.792969 143.789062 60.574219 0 112.519531-37.652344 133.664062-90.785156.929688.984375 1.867188 1.960937 2.824219 2.917968 26.46875 26.46875 61.238281 39.703126 96.007812 39.703126 34.769532 0 69.539063-13.234376 96.007813-39.703126 52.9375-52.941406 52.9375-139.078124 0-192.019531zm23.820313 81.34375c-20.855469-10.0625-44.125-14.484375-67.132813-13.011719 9.222656-25.097656 10.835937-52.597656 4.660156-78.609374 10.078125 5.429687 19.542969 12.386718 28.042969 20.886718 19.816406 19.816406 31.292969 44.859375 34.429688 70.734375zm-80.339844-99.453125c9.933594 28.863282 8.53125 60.804688-3.859375 88.628906-4.054688.789063-8.074219 1.769532-12.054688 2.9375-1.59375-33.808593-15.515625-65.367187-39.609375-89.460937-2.25-2.25-4.578125-4.421875-6.976562-6.507813 20.757812-3.996093 42.367187-2.527343 62.5 4.402344zm-254.574219-153.875c24.363281-12.390625 51.574219-16.109375 77.972656-10.878906-2.09375 2.171875-4.128906 4.398438-6.0625 6.699219-2.664062 3.171875-2.253906 7.902343.917969 10.566406 1.40625 1.183594 3.117188 1.757813 4.820312 1.757813 2.136719 0 4.261719-.90625 5.746094-2.675782 3.507813-4.167968 7.34375-8.101562 11.398438-11.753906 29.464844 10.335938 53.402344 31.265625 67.605468 59.195312 13.695313 26.933594 16.800782 57.570313 8.839844 86.609376-14.019531 4.757812-27.414062 11.867187-39.554687 21.332031-1.710938-4.480469-3.664063-8.882813-5.84375-13.167969-15.460938-30.40625-40.886719-52.496094-70.292969-64.324219-.214844-18.742187 4.050781-37.441406 12.414062-54.304687 1.84375-3.710938.324219-8.210938-3.386718-10.050782-3.710938-1.84375-8.210938-.328124-10.050782 3.382813-4.214843 8.496094-7.492187 17.410156-9.820312 26.550781-20.996094-16.519531-46.628906-26.550781-73.257812-28.738281 8.285156-7.902344 17.835937-14.75 28.554687-20.199219zm-41.527344 34.753906c30.503907-.507812 60.4375 10.71875 83.050781 31.109376-.503906 4.132812-.8125 8.289062-.929687 12.453124-31.4375-8.609374-66.046875-6.019531-97.320313 9.882813-2.835937 1.445313-5.625 2.984375-8.351562 4.621094 2.628906-20.976563 10.722656-41.070313 23.550781-58.066407zm-11.382812 127.640626c-8.332031-16.378907-12.546875-33.789063-13.046875-51.042969 5.058594-3.644531 10.433594-6.929688 16.027344-9.777344 59.363281-30.1875 132.214843-6.449219 162.398437 52.910156 2.792969 5.496094 5.175781 11.210938 7.097656 17.027344-.164062.160156-.328125.3125-.488281.476563-12.074219 12.074218-21.5625 25.925781-28.300781 41.292968-26.917969-30.820312-65.976563-48.992187-108.1875-48.992187-11.15625 0-22.019531 1.273437-32.453125 3.691406-1.058594-1.839844-2.089844-3.699219-3.046875-5.585937zm54.164062 86.148437c-12.003906-26.300781-31.847656-48.566406-56.578125-63.554687 11.992188-3.703126 24.722656-5.699219 37.914063-5.699219 29.757812 0 57.761719 10.097656 80.101562 27.851562-23.761719 8.101563-45.023437 22.558594-61.4375 41.402344zm-74.738281-56.390625c29.421875 14.289062 52.578125 39.566406 64.21875 70.066406-2.625 3.875-5.058594 7.886719-7.289062 12.023438-25.597657-23.460938-59.683594-37.800782-97.0625-37.800782-3.6875 0-7.375.148438-11.050782.429688 12.71875-19.097656 30.394532-34.625 51.183594-44.71875zm-72.71875 115.929688c0-19.6875 4.449219-38.351563 12.378906-55.054688 6.652344-1.046875 13.429688-1.582031 20.207032-1.582031 71.015624 0 128.792968 57.773437 128.792968 128.789062 0 19.296875-4.152344 37.792969-12.328125 55.039063-6.601562 1.046875-13.367187 1.597656-20.257812 1.597656-71.015625 0-128.792969-57.777344-128.792969-128.789062zm267.886719 36.484374c3.0625-11.65625 4.695312-23.882812 4.695312-36.488281 0-11.542969-1.371093-23.03125-4.078125-34.148437-.980468-4.023438-5.035156-6.496094-9.066406-5.511719-4.023438.980469-6.492188 5.039063-5.511719 9.0625 2.425781 9.957031 3.65625 20.25 3.65625 30.597656 0 57.667969-38.097656 106.601563-90.441406 122.960938 6.128906-16.160157 9.238281-33.183594 9.238281-50.804688 0-36.242187-13.484375-69.386719-35.6875-94.703125 16.046875-32.648437 46.023438-57.285156 81.09375-66.621094 8.554688 8.945313 15.917969 19.210938 21.757813 30.628907 1.882812 3.6875 6.402343 5.148437 10.089843 3.265625 3.691407-1.886719 5.152344-6.40625 3.265626-10.09375-2.785157-5.449219-5.890626-10.648438-9.269532-15.613282 6.023438-16.789062 15.515625-31.757812 28.261719-44.503906 12.992187-12.992187 28.238281-22.394531 44.492187-28.21875 5.035157 3.683594 9.824219 7.777344 14.261719 12.214844 47.089844 47.085938 47.089844 123.707031 0 170.796875-12.742187 12.742187-27.683593 22.230469-44.449219 28.246094-5.003906-3.648438-9.792968-7.726563-14.304687-12.238281-2.804687-2.808594-5.484375-5.765626-8.003906-8.828126zm178.800781 8.828126c-38.007812 38.007812-95.253906 45.328124-140.683594 21.980468 14.546875-6.671875 27.703125-15.835937 39.246094-27.378906 23.460938-23.457031 37.269531-53.992188 39.453125-86.785156 32.078125-10.824219 67.988281-7.320313 97.269531 9.519531-.671875 30.007813-12.433594 59.8125-35.285156 82.664063zm0 0"/></svg>