<svg height="511pt" viewBox="-87 0 511 511.99653" width="511pt" xmlns="http://www.w3.org/2000/svg"><path d="m187.375 127.945312c-6.601562-4.492187-15.652344-2.875-21.144531 2.921876l-27.84375 29.394531c-5.125 5.410156-14.222657 2.75-15.628907-4.570313l-4.144531-21.605468c-2.429687-12.671876 1.390625-25.742188 10.265625-35.113282l15.882813-16.765625c5.765625-6.085937 6.636719-15.78125 1.15625-22.125-6.304688-7.300781-17.34375-7.417969-23.804688-.585937l-3.589843 3.789062c-4.6875 4.949219-13.007813 2.515625-14.289063-4.175781l-2.539063-13.238281c-4.820312-25.132813-25.132812-42.617188-43.539062-37.484375-18.40625 5.136719-26.734375 30.613281-17.847656 54.609375l4.679687 12.640625c2.367188 6.390625-3.492187 12.777343-10.0625 10.96875l-4.210937-1.15625c-7.699219-2.117188-16.277344 1.183593-19.601563 8.441406-4.238281 9.253906.894531 19.664063 10.28125 22.246094l23.144531 6.367187c12.441407 3.421875 22.476563 12.625 26.957032 24.726563l7.640625 20.628906c2.589843 6.988281-3.820313 13.976563-11.007813 12l-39.035156-10.734375c-7.699219-2.117188-16.28125 1.183594-19.605469 8.441406-4.238281 9.253906.894531 19.664063 10.285157 22.246094l63.40625 17.4375c9.957031 2.738281 17.984374 10.101562 21.570312 19.785156l4.042969 10.917969c2.882812 7.789063-4.257813 15.578125-12.269531 13.375l-9.378907-2.582031c-7.699219-2.113282-16.28125 1.183594-19.601562 8.445312-4.238281 9.25.894531 19.664063 10.28125 22.246094l26.890625 8.394531c23.351562 7.289063 41.417968 25.917969 47.992187 49.484375l-.003906-.023437c-6.570313-23.554688-.765625-48.832031 15.425781-67.152344l18.0625-20.449219c5.765625-6.085937 6.636719-15.78125 1.15625-22.125-6.308594-7.300781-17.34375-7.417968-23.808594-.582031l-7.273437 7.679687c-5.714844 6.03125-15.855469 3.066407-17.421875-5.09375l-2.191406-11.433593c-1.945313-10.140625 1.113281-20.59375 8.210937-28.089844l45.226563-47.746094c6.695312-7.070312 5.699218-18.632812-2.714844-24.355469zm0 0" fill="#96cd82"/><path d="m58.15625 8.386719c-18.40625 5.136719-26.734375 30.613281-17.847656 54.609375l4.679687 12.640625c2.367188 6.390625-3.492187 12.777343-10.0625 10.96875l-4.210937-1.15625c-7.699219-2.117188-16.277344 1.183593-19.601563 8.441406-4.238281 9.253906.894531 19.664063 10.28125 22.246094l23.144531 6.367187c12.441407 3.421875 22.476563 12.625 26.957032 24.726563l7.640625 20.628906c2.589843 6.988281-3.820313 13.976563-11.007813 12l-39.035156-10.734375c-7.699219-2.117188-16.28125 1.183594-19.605469 8.441406-4.238281 9.253906.894531 19.664063 10.285157 22.246094l63.40625 17.4375c9.957031 2.738281 17.984374 10.101562 21.570312 19.785156l4.042969 10.917969c2.882812 7.789063-4.257813 15.578125-12.269531 13.375l-9.378907-2.582031c-7.699219-2.113282-16.28125 1.183594-19.601562 8.445312-4.238281 9.25.894531 19.664063 10.28125 22.246094l26.890625 8.394531c23.339844 7.289063 41.402344 25.902344 47.984375 49.453125zm0 0" fill="#7dbe81"/><path d="m327.132812 194.796875c-3.332031-7.257813-11.914062-10.550781-19.613281-8.425781l-39.027343 10.765625c-7.1875 1.984375-13.597657-4.996094-11.015626-11.988281l7.621094-20.636719c4.46875-12.105469 14.496094-21.320313 26.9375-24.75l22.261719-6.144531c8.082031-2.230469 13.84375-10.078126 12.429687-18.34375-1.625-9.507813-11.011718-15.3125-20.078124-12.804688l-5.027344 1.386719c-6.570313 1.8125-12.433594-4.570313-10.074219-10.964844l4.671875-12.644531c8.863281-24 .515625-49.472656-17.894531-54.589844-18.410157-5.121094-38.707031 12.382812-43.507813 37.519531l-2.527344 13.238281c-1.277343 6.695313-9.597656 9.132813-14.285156 4.191407l-3.003906-3.167969c-5.496094-5.792969-14.546875-7.402344-21.144531-2.90625-8.410157 5.730469-9.398438 17.296875-2.699219 24.359375l16.519531 17.410156c8.886719 9.363281 12.714844 22.429688 10.296875 35.105469l-4.125 21.609375c-1.398437 7.320313-10.496094 9.988281-15.625 4.582031l-27.867187-29.371094c-5.496094-5.789062-14.546875-7.402343-21.144531-2.90625-8.410157 5.730469-9.398438 17.296876-2.699219 24.359376l45.265625 47.707031c7.105468 7.488281 10.171875 17.941406 8.234375 28.082031l-2.183594 11.4375c-1.558594 8.160156-11.695313 11.132812-17.414063 5.105469l-6.695312-7.054688c-5.496094-5.792969-14.546875-7.402343-21.144531-2.90625-8.410157 5.730469-9.398438 17.292969-2.699219 24.359375l18.679688 21.085938c16.21875 18.3125 22.058593 43.597656 15.503906 67.167968l.003906-.023437c6.550781-23.558594 24.589844-42.195313 47.921875-49.511719l26.03125-8.164062c8.082031-2.230469 13.839844-10.078125 12.425781-18.34375-1.625-9.507813-11.011718-15.3125-20.074218-12.804688l-10.199219 2.8125c-8.007813 2.210938-15.160157-5.570312-12.28125-13.363281l4.035156-10.921875c3.578125-9.683594 11.597656-17.054688 21.554687-19.800781l63.394532-17.492188c9.382812-2.589843 14.503906-13.003906 10.261718-22.253906zm0 0" fill="#96cd82"/><path d="m278.324219 25.65625c-18.410157-5.121094-38.710938 12.386719-43.507813 37.519531l-2.527344 13.238281c-1.28125 6.695313-9.597656 9.132813-14.289062 4.191407l-3-3.167969c-5.496094-5.789062-14.550781-7.402344-21.148438-2.90625-8.410156 5.730469-9.398437 17.296875-2.695312 24.359375l16.519531 17.410156c8.882813 9.363281 12.714844 22.429688 10.292969 35.105469l-4.125 21.609375c-1.398438 7.320313-10.492188 9.988281-15.625 4.582031l-27.863281-29.367187c-5.5-5.792969-14.550781-7.40625-21.148438-2.910157-8.410156 5.730469-9.398437 17.296876-2.695312 24.359376l45.261719 47.707031c7.109374 7.488281 10.171874 17.941406 8.238281 28.085937l-2.183594 11.433594c-1.558594 8.160156-11.699219 11.132812-17.417969 5.109375l-6.691406-7.058594c-5.5-5.792969-14.550781-7.402343-21.148438-2.90625-8.410156 5.730469-9.398437 17.296875-2.695312 24.359375l18.675781 21.085938c16.214844 18.304687 22.050781 43.578125 15.511719 67.136718zm0 0" fill="#7dbe81"/><path d="m334.320312 191.683594c-4.726562-10.308594-16.945312-15.691406-28.421874-12.527344l-39.027344 10.761719c-.648438.179687-1.203125.019531-1.652344-.472657-.453125-.492187-.566406-1.058593-.335938-1.6875l7.625-20.636718c1.433594-3.882813-.550781-8.199219-4.4375-9.632813-3.886718-1.4375-8.199218.550781-9.636718 4.4375l-7.621094 20.632813c-2.175781 5.886718-.890625 12.414062 3.355469 17.035156 4.242187 4.621094 10.640625 6.453125 16.6875 4.785156l39.03125-10.765625c4.382812-1.214843 9.128906.691407 10.800781 4.324219 1.089844 2.378906 1.097656 4.960938.023438 7.269531-1.058594 2.273438-3.054688 3.960938-5.472657 4.628907l-63.394531 17.484374c-12.25 3.378907-22.191406 12.511719-26.59375 24.433594l-4.035156 10.921875c-2.3125 6.253907-.945313 13.191407 3.566406 18.101563 4.511719 4.914062 11.3125 6.863281 17.738281 5.089844l10.207031-2.8125c2.347657-.648438 4.777344-.289063 6.839844 1.019531 2.0625 1.308593 3.425782 3.378906 3.84375 5.824219.710938 4.164062-2.441406 8.582031-7.03125 9.847656-.085937.023437-.167968.046875-.25.074218l-26.035156 8.160157c-14.492188 4.546875-27.078125 12.960937-36.617188 24.078125-2.433593-14.449219-8.871093-28.15625-18.949218-39.53125l-18.675782-21.089844c-.058593-.0625-.113281-.128906-.171874-.1875-1.726563-1.820312-2.5625-4.292969-2.296876-6.792969.273438-2.527343 1.613282-4.734375 3.773438-6.207031 3.308594-2.25 8.351562-1.429688 11.484375 1.875l6.691406 7.054688c4.59375 4.839843 11.417969 6.679687 17.820313 4.800781 6.398437-1.875 11.152344-7.109375 12.40625-13.660157l2.183594-11.4375c2.382812-12.480468-1.414063-25.433593-10.160157-34.652343l-45.261719-47.710938c-1.726562-1.816406-2.5625-4.292969-2.292968-6.789062.269531-2.53125 1.609375-4.734375 3.773437-6.207031 3.304688-2.253907 8.347657-1.429688 11.480469 1.871093l27.863281 29.371094c4.320313 4.550781 10.746094 6.28125 16.765625 4.519531 6.019532-1.765625 10.492188-6.691406 11.671875-12.855468l4.125-21.609376c2.867188-15.007812-1.699219-30.585937-12.21875-41.671874l-16.511719-17.417969c-1.726562-1.816407-2.5625-4.292969-2.292968-6.789063.269531-2.53125 1.609375-4.734375 3.769531-6.207031 3.308594-2.25 8.351563-1.429687 11.484375 1.871094l3.003906 3.167969c4.113282 4.335937 10.238282 5.988281 15.972656 4.304687 5.738282-1.679687 10-6.375 11.121094-12.25l2.53125-13.238281c2.371094-12.425782 9.152344-23.171875 18.136719-28.746094 3.753906-2.332031 9.578125-4.730469 15.996094-2.949219 6.417969 1.785157 10.164062 6.851563 12.175781 10.78125 4.8125 9.414063 5.070312 22.121094.6875 33.988281l-4.671875 12.644532c-2.074219 5.609375-.847656 11.828125 3.199219 16.230468 4.042968 4.402344 10.132812 6.148438 15.902344 4.5625l5.03125-1.390624c2.351562-.648438 4.78125-.285157 6.84375 1.023437s3.425781 3.375 3.84375 5.820313c.710937 4.164062-2.441407 8.582031-7.03125 9.847656l-22.261719 6.140625c-3.996094 1.101562-6.339844 5.230469-5.238281 9.226562 1.101562 3.992188 5.230468 6.335938 9.226562 5.234375l22.261719-6.140625c12.003906-3.308593 19.832031-15.097656 17.828125-26.835937-1.121094-6.582032-4.980469-12.398438-10.585938-15.957032-5.605468-3.558593-12.484375-4.582031-18.878906-2.816406l-5.027344 1.386719c-.152344.042969-.511718.140625-.867187-.246094-.359375-.390625-.230469-.738281-.175781-.886719l4.671874-12.644531c5.8125-15.734375 5.285157-32.9375-1.402343-46.015625-4.777344-9.339844-12.417969-15.875-21.511719-18.40625-9.089844-2.527344-19.011719-.875-27.925781 4.65625-12.484375 7.746094-21.816407 22.207032-24.960938 38.679688l-2.53125 13.238281c-.027343.15625-.097656.519531-.605469.667969-.507812.148437-.761718-.121094-.871093-.234375l-3.003907-3.164063c-8.191406-8.636718-21.4375-10.332031-30.8125-3.945312-5.769531 3.933594-9.503906 10.128906-10.242187 17.003906-.734375 6.878906 1.570313 13.699219 6.328125 18.714844l16.519531 17.414062c7.199219 7.589844 10.328125 18.257813 8.363281 28.535156l-4.125 21.605469c-.125.660157-.515624 1.085938-1.15625 1.273438-.644531.191406-1.203124.039062-1.660156-.445313l-11.296875-11.910156 2.820313-2.972656c4.757812-5.015625 7.0625-11.835938 6.324218-18.714844-.734374-6.875-4.46875-13.070312-10.242187-17.003906-9.367187-6.386719-22.617187-4.691406-30.8125 3.945312l-10.160156 10.710938c-1.855469.628906-3.644531 1.496094-5.308594 2.628906-4.59375 3.128906-7.890625 7.695312-9.417969 12.894531-.007812.011719-.019531.019531-.03125.03125l-2.945312 3.101563c-.460938.488281-1.019532.636718-1.660156.449218-.640626-.1875-1.03125-.617187-1.15625-1.273437l-4.125-21.605469c-1.964844-10.28125 1.164062-20.949218 8.367187-28.539062l16.515625-17.410156c4.757812-5.015626 7.066406-11.835938 6.328125-18.714844-.738281-6.875-4.472656-13.074219-10.242187-17.007813-9.375-6.386719-22.621094-4.6875-30.8125 3.945313l-3.003907 3.167968c-.109375.113282-.367187.382813-.871093.234376-.507813-.148438-.578126-.515626-.605469-.667969l-2.527344-13.238281c-3.148437-16.476563-12.480469-30.9375-24.964844-38.683594-8.914062-5.53125-18.832031-7.183594-27.925781-4.652344s-16.730469 9.0625-21.507812 18.402344c-6.691407 13.082031-7.21875 30.28125-1.40625 46.015625l4.671874 12.644531c.054688.148438.183594.496094-.175781.886719-.355469.390625-.714843.292969-.867187.25l-5.023438-1.386719c-6.394531-1.769531-13.277344-.742188-18.882812 2.816406-5.601563 3.558594-9.460938 9.375-10.585938 15.957032-2.003906 11.738281 5.828125 23.527343 17.828125 26.835937l22.261719 6.140625c10.089844 2.78125 18.273438 10.300781 21.902344 20.117188l7.621094 20.636718c.230468.625.121093 1.195313-.332032 1.6875-.453125.492188-1.007812.652344-1.652344.472656l-39.03125-10.761718c-11.46875-3.164063-23.691406 2.21875-28.421874 12.53125-2.914063 6.347656-2.910157 13.582031.007812 19.847656 2.921875 6.273438 8.417969 10.921875 15.082031 12.761719l33.371094 9.203125c.664063.183594 1.335937.269531 1.996094.269531 3.292969 0 6.308593-2.179687 7.226562-5.507813 1.101563-3.992187-1.242187-8.121093-5.234375-9.222656l-33.371094-9.203125c-2.414062-.667969-4.410156-2.355469-5.46875-4.632812-1.074218-2.304688-1.066406-4.886719.023438-7.261719 1.671875-3.636719 6.417969-5.539062 10.800781-4.328125l39.03125 10.765625c6.046875 1.667969 12.441407-.164062 16.6875-4.785156 4.246094-4.621094 5.53125-11.148438 3.355469-17.035156l-7.621094-20.632813c-5.296875-14.335937-17.253906-25.320313-31.984375-29.382813l-22.261719-6.140624c-4.589843-1.265626-7.742187-5.683594-7.03125-9.847657.417969-2.445312 1.78125-4.515625 3.84375-5.824219 2.0625-1.308593 4.492188-1.667968 6.847657-1.019531l5.027343 1.390625c5.765626 1.585938 11.855469-.160156 15.902344-4.5625 4.046875-4.40625 5.273438-10.625 3.199219-16.230468l-4.671875-12.644532c-4.382812-11.871094-4.125-24.574218.6875-33.988281 2.015625-3.933594 5.757812-8.996094 12.175781-10.78125s12.238281.617187 15.996094 2.945313c8.984375 5.574218 15.765625 16.320312 18.136719 28.75l2.53125 13.238281c1.121094 5.875 5.382812 10.566406 11.121094 12.25 5.738281 1.679687 11.859374.027343 15.972656-4.308594l3.003906-3.164063c3.132812-3.304687 8.179688-4.125 11.480469-1.871093 2.164062 1.472656 3.503906 3.675781 3.773437 6.207031.269532 2.496094-.566406 4.972656-2.292968 6.789062l-16.519532 17.414063c-10.515625 11.082031-15.082031 26.664063-12.21875 41.675781l4.128906 21.605469c1.175782 6.164063 5.648438 11.089844 11.667969 12.855469 3.570313 1.046875 7.273438.855468 10.597657-.410156.996093 1.894531 2.253906 3.667968 3.761718 5.257812l8.519532 8.976562-10.550782 11.121094c-8.742187 9.21875-12.539062 22.175782-10.15625 34.652344l2.183594 11.4375c1.085938 5.6875 4.816406 10.382812 9.96875 12.746094-1.570312 2.769531-2.585938 5.847656-2.933594 9.078125-.734375 6.832031 1.539063 13.609375 6.230469 18.613281l7.480469 8.445312c-4.257813 7.816407-7.160156 16.242188-8.617188 24.910157-9.546875-11.144531-22.148437-19.578125-36.667968-24.132813l-26.03125-8.160156c-.082032-.027344-.164063-.050781-.25-.074219-4.589844-1.265625-7.742188-5.683593-7.03125-9.847656.417968-2.445313 1.78125-4.515625 3.84375-5.824219s4.488281-1.671875 6.847656-1.019531l10.199218 2.816406c6.421876 1.765625 13.226563-.179687 17.738282-5.089843 4.511718-4.914063 5.878906-11.851563 3.566406-18.105469l-4.035156-10.921875c-4.402344-11.917969-14.34375-21.050782-26.59375-24.433594-3.992188-1.097656-8.121094 1.246094-9.226563 5.238281-1.097656 3.992188 1.246094 8.121094 5.238281 9.226563 7.605469 2.097656 13.777344 7.765625 16.511719 15.164062l4.035157 10.921875c.496093 1.347657-.128907 2.308594-.542969 2.761719-.417969.453125-1.320313 1.160156-2.707031.773438l-10.191407-2.808594c-6.398437-1.769532-13.277343-.742188-18.882812 2.8125-5.601563 3.5625-9.460938 9.378906-10.585938 15.960937-2 11.691407 5.765625 23.433594 17.691407 26.796875l25.917968 8.125c20.96875 6.574219 37.007813 23.125 42.917969 44.28125.011719.035156.019531.066406.03125.101563l17.757813 63.847656-24.824219 89.25c-1.109375 3.992187 1.226562 8.125 5.214843 9.234375.671876.191406 1.347657.277344 2.015626.277344 3.28125 0 6.296874-2.171875 7.21875-5.492188l18.160156-65.285156 13.351562 48c.921875 3.320312 3.9375 5.492188 7.222656 5.492188.664063 0 1.34375-.089844 2.015626-.277344 3.988281-1.109375 6.324218-5.242188 5.214843-9.234375l-20.019531-71.964844 12.953125-46.5625c.007813-.027344.015625-.058594.023437-.089844 5.910157-21.160156 21.953126-37.714843 42.921876-44.292969l25.921874-8.121093c11.925782-3.363281 19.6875-15.105469 17.691407-26.796875-1.125-6.582032-4.984375-12.402344-10.589844-15.960938-5.601563-3.558594-12.484375-4.585937-18.875-2.816406l-10.199219 2.816406c-1.378906.382813-2.285156-.324218-2.703125-.777344-.417969-.453124-1.042969-1.414062-.542969-2.761718l4.03125-10.921875c2.734376-7.398438 8.90625-13.070313 16.511719-15.167969l63.398438-17.484375c6.664062-1.839844 12.160156-6.488281 15.082031-12.757813 2.917969-6.269531 2.921875-13.507812.007812-19.855468zm-166.085937 51.28125.121094-.128906c3.132812-3.300782 8.179687-4.125 11.484375-1.871094 2.160156 1.472656 3.5 3.675781 3.773437 6.207031.207031 1.964844-.273437 3.910156-1.324219 5.539063l-2.765624-2.914063c-3.175782-3.347656-7.113282-5.636719-11.289063-6.832031zm14.960937-108.730469c2.160157 1.472656 3.5 3.679687 3.773438 6.207031.265625 2.5-.570312 4.972656-2.296875 6.792969l-2.273437 2.398437-6.230469-6.5625c-1.90625-2.011718-4.09375-3.628906-6.441407-4.875l1.984376-2.089843c3.132812-3.300781 8.175781-4.125 11.484374-1.871094zm-32.898437 71.03125 10.003906-10.542969 26.402344 27.828125c2.570313 2.710938 4.441406 5.941407 5.554687 9.410157-1.183593-1.257813-2.511718-2.398438-3.972656-3.394532-9.378906-6.386718-22.621094-4.6875-30.8125 3.945313l-6.695312 7.058593c-.984375 1.035157-2.125.90625-2.714844.730469s-1.621094-.675781-1.890625-2.082031l-2.183594-11.4375c-1.480469-7.75.878907-15.792969 6.308594-21.515625zm26.917969 157.296875c-.007813.023438-.015625.046875-.019532.074219l-6.292968 22.613281-11.097656-39.902344c-.007813-.023437-.011719-.046875-.019532-.070312-3.980468-14.398438-2.796875-29.703125 3.140625-43.234375l.375.429687c14.574219 16.453125 19.773438 38.910156 13.914063 60.089844zm0 0"/></svg>