<svg height="512pt" viewBox="-16 0 511 512" width="512pt" xmlns="http://www.w3.org/2000/svg"><g fill="#cdf5a0"><path d="m240.472656 472.433594c-6.152344 0-12.308594-2.347656-17.003906-7.042969l-168.339844-168.339844c-9.394531-9.386719-9.394531-24.621093 0-34.003906 9.394532-9.394531 24.613282-9.394531 34.007813 0l151.335937 151.335937 151.335938-151.335937c9.394531-9.394531 24.609375-9.394531 34.003906 0 9.394531 9.382813 9.394531 24.617187 0 34.003906l-168.335938 168.339844c-4.699218 4.695313-10.851562 7.042969-17.003906 7.042969zm0 0"/><path d="m240.472656 328.144531c-6.152344 0-12.308594-2.347656-17.003906-7.042969l-104.210938-104.210937c-9.394531-9.386719-9.394531-24.621094 0-34.007813 9.394532-9.394531 24.613282-9.394531 34.007813 0l87.207031 87.207032 87.207032-87.207032c9.394531-9.394531 24.609374-9.394531 34.003906 0 9.394531 9.386719 9.394531 24.621094 0 34.007813l-104.207032 104.210937c-4.699218 4.695313-10.851562 7.042969-17.003906 7.042969zm0 0"/><path d="m240.472656 207.902344c-7.078125 0-13.785156-3.117188-18.359375-8.515625l-47.476562-56.113281c-8.578125-10.136719-7.3125-25.308594 2.824219-33.886719 10.15625-8.582031 25.3125-7.304688 33.890624 2.824219l29.121094 34.414062 29.121094-34.414062c8.5625-10.136719 23.742188-11.40625 33.886719-2.824219 10.136719 8.578125 11.40625 23.75 2.828125 33.886719l-47.480469 56.113281c-4.570313 5.402343-11.28125 8.515625-18.355469 8.515625zm0 0"/></g><path d="m450.015625 285.148438-79.382813 33.074218 33.074219-79.378906c1.59375-3.824219-.214843-8.214844-4.035156-9.808594-3.824219-1.59375-8.214844.214844-9.808594 4.039063l-39.511719 94.824219-28.253906 28.253906 10.46875-25.125c1.59375-3.820313-.214844-8.214844-4.039062-9.804688-3.824219-1.597656-8.214844.214844-9.808594 4.035156l-24.480469 58.75-46.269531 46.269532v-123.074219l28.820312-28.816406 78.789063-32.832031c3.824219-1.59375 5.632813-5.984376 4.039063-9.808594-1.59375-3.820313-5.984376-5.628906-9.808594-4.035156l-45.164063 18.816406 60.320313-60.320313 46.726562-19.46875c3.824219-1.59375 5.632813-5.984375 4.039063-9.808593-1.59375-3.824219-5.984375-5.628907-9.808594-4.039063l-31.28125 13.035156 13.035156-31.285156c1.59375-3.820313-.214843-8.214844-4.039062-9.804687-3.824219-1.597657-8.214844.214843-9.808594 4.035156l-19.464844 46.730468-60.320312 60.320313 18.816406-45.164063c1.59375-3.824218-.214844-8.21875-4.039063-9.808593-3.824218-1.597657-8.210937.214843-9.804687 4.035156l-32.832031 78.792969-18.210938 18.210937v-99.359375l44.515625-51.9375 45.410157-7.570312c4.085937-.679688 6.847656-4.542969 6.164062-8.628906-.679688-4.085938-4.550781-6.851563-8.628906-6.164063l-27.738282 4.621094 34.664063-40.4375c2.695313-3.148438 2.332031-7.882813-.8125-10.578125-3.144531-2.695313-7.882813-2.332032-10.574219.8125l-90.5 105.582031-90.5-105.582031c-2.695312-3.144532-7.429687-3.507813-10.574218-.8125-3.144532 2.695312-3.507813 7.433594-.8125 10.578125l34.664062 40.4375-27.738281-4.621094c-4.082031-.691406-7.949219 2.078125-8.632813 6.164063-.679687 4.085937 2.082032 7.949218 6.167969 8.628906l45.40625 7.570312 44.519531 51.9375v99.359375l-18.210937-18.210937-32.832031-78.792969c-1.59375-3.824219-5.984376-5.632813-9.808594-4.035156-3.820313 1.589843-5.628906 5.984375-4.035156 9.808593l18.816406 45.164063-60.320313-60.320313-19.46875-46.730468c-1.59375-3.820313-5.984375-5.628906-9.808593-4.035156-3.824219 1.59375-5.632813 5.984374-4.039063 9.808593l13.035156 31.28125-31.28125-13.035156c-3.824219-1.59375-8.214843.214844-9.808593 4.039063-1.59375 3.824218.214843 8.214843 4.039062 9.808593l46.726562 19.46875 60.320313 60.320313-45.164063-18.816406c-3.824218-1.597657-8.214843.214843-9.808593 4.035156-1.59375 3.824218.214843 8.21875 4.039062 9.808594l78.789063 32.832031 28.820312 28.816406v123.078125l-46.269531-46.269531-24.480469-58.75c-1.59375-3.824219-5.984375-5.632813-9.808594-4.039063-3.820312 1.59375-5.628906 5.984375-4.039062 9.808594l10.46875 25.121094-28.253906-28.253906-39.511719-94.824219c-1.59375-3.820313-5.984375-5.628907-9.808594-4.035157-3.820312 1.59375-5.628906 5.984376-4.035156 9.808594l25.496094 61.195313-40.277344-40.28125-19.46875-46.726563c-1.59375-3.824218-5.988281-5.632812-9.808594-4.039062-3.824219 1.59375-5.632812 5.984375-4.039062 9.808594l13.035156 31.285156-31.285156-13.035156c-3.824219-1.597657-8.214844.210937-9.808594 4.039062-1.59375 3.820312.214844 8.214844 4.039063 9.804688l46.726562 19.472656 40.277344 40.277344-61.195313-25.496094c-3.824219-1.597656-8.214843.214844-9.808593 4.035156-1.59375 3.824219.214843 8.214844 4.039062 9.808594l94.824219 39.511718 28.257812 28.257813-25.125-10.46875c-3.824219-1.597656-8.214843.214844-9.808593 4.035156-1.59375 3.824219.214843 8.214844 4.039062 9.808594l58.75 24.480469 56.875 56.875v53.003906c0 4.144531 3.355469 7.5 7.5 7.5 4.140625 0 7.5-3.355469 7.5-7.5v-53.007812l56.875-56.875 58.75-24.476563c3.824219-1.59375 5.632812-5.984375 4.039062-9.808594s-5.984374-5.632812-9.808593-4.039062l-25.125 10.46875 28.257812-28.253907 94.824219-39.511718c3.820312-1.59375 5.628906-5.984375 4.035156-9.808594-1.589844-3.824219-5.980468-5.628906-9.800781-4.039062zm0 0"/><path d="m479.863281 241.089844c-1.59375-3.824219-5.984375-5.628906-9.808593-4.035156l-31.285157 13.035156 13.035157-31.285156c1.59375-3.824219-.214844-8.214844-4.039063-9.808594-3.824219-1.597656-8.210937.214844-9.808594 4.039062l-19.46875 46.726563-18.300781 18.300781c-2.929688 2.929688-2.929688 7.679688 0 10.605469 1.464844 1.464843 3.382812 2.199219 5.304688 2.199219 1.917968 0 3.835937-.734376 5.300781-2.195313l18.304687-18.304687 46.726563-19.46875c3.824219-1.59375 5.632812-5.984376 4.039062-9.808594zm0 0"/><path d="m232.972656 113.152344v22.605468c0 4.140626 3.355469 7.5 7.5 7.5 4.140625 0 7.5-3.359374 7.5-7.5v-22.605468l31.527344-78.816406c1.539062-3.847657-.332031-8.210938-4.179688-9.75-3.84375-1.539063-8.210937.332031-9.746093 4.179687l-17.601563 44v-65.265625c0-4.144531-3.359375-7.5-7.5-7.5-4.144531 0-7.5 3.355469-7.5 7.5v65.265625l-17.601562-44c-1.539063-3.847656-5.902344-5.71875-9.75-4.179687-3.84375 1.539062-5.714844 5.902343-4.175782 9.75zm0 0"/></svg>