<svg height="512pt" viewBox="-60 0 512 512.00141" width="512pt" xmlns="http://www.w3.org/2000/svg"><path d="m208.707031 178.683594-52.921875-122.574219c-15.363281-35.582031-54.4375-56.265625-91.789062-45.917969-41.675782 11.542969-65.210938 54.617188-53.359375 95.410156l37.960937 130.652344c7.355469 25.328125 34.558594 39.195313 59.378906 30.273438 16.378907-5.890625 34.378907 2.976562 39.691407 19.550781l16.382812-5.890625c-6.460937-16.160156 1.769531-34.460938 18.148438-40.347656 24.820312-8.925782 36.964843-36.941406 26.507812-61.15625zm0 0" fill="#96cd82"/><path d="m144.96875 252.847656c-91.382812-31.410156-122.054688-135.882812-132.242188-196.023437-5.785156 15.117187-6.929687 32.121093-2.089843 48.777343l37.957031 130.652344c7.359375 25.328125 34.5625 39.195313 59.382812 30.273438 16.378907-5.890625 34.378907 2.976562 39.6875 19.550781l8.191407-2.945313zm0 0" fill="#7dbe81"/><path d="m238.578125 466.386719-24.566406-61.199219-142.539063-355.066406 128.324219 398.394531 9.199219 28.558594c1.386718 4.316406 6.078125 6.617187 10.34375 5.078125l14.527344-5.246094c4.265624-1.542969 6.402343-6.3125 4.710937-10.519531zm0 0" fill="#ff8087"/><path d="m343.503906 258.59375 37.433594-128.152344c10.867188-37.203125-6.03125-78.058594-41.394531-93.917968-39.457031-17.699219-85.058594.464843-101.953125 39.433593l-54.117188 124.835938c-10.488281 24.199219 1.613282 52.230469 26.421875 61.191406 16.371094 5.914063 24.574219 24.222656 18.089844 40.378906l16.375 5.914063c5.335937-16.566406 23.347656-25.410156 39.714844-19.496094 24.808593 8.957031 52.03125-4.871094 59.429687-30.1875zm0 0" fill="#96cd82"/><path d="m247.105469 275.046875c-50.339844-82.484375-7.3125-182.503906 23.207031-235.316406-14.097656 7.949219-25.824219 20.3125-32.722656 36.226562l-54.117188 124.835938c-10.488281 24.199219 1.613282 52.230469 26.421875 61.191406 16.371094 5.914063 24.574219 24.222656 18.089844 40.378906l8.1875 2.957031zm0 0" fill="#7dbe81"/><path d="m320.457031 71.984375-167.105469 416.261719c-1.6875 4.207031.449219 8.976562 4.710938 10.519531l14.53125 5.246094c4.261719 1.542969 8.953125-.761719 10.34375-5.078125zm0 0" fill="#ffe17d"/><path d="m342.636719 29.359375c-20.816407-9.339844-43.9375-9.957031-65.113281-1.746094-21.1875 8.21875-37.828126 24.222657-46.863282 45.0625l-14.519531 33.488281c-1.648437 3.800782.097656 8.214844 3.894531 9.863282 3.796875 1.648437 8.21875-.097656 9.867188-3.898438l14.515625-33.488281c7.429687-17.132813 21.113281-30.285156 38.53125-37.042969 17.402343-6.75 36.417969-6.238281 53.550781 1.445313 31.316406 14.050781 47.347656 50.609375 37.289062 85.039062l-37.46875 128.242188c-2.992187 10.246093-9.882812 18.550781-19.398437 23.382812s-20.285156 5.5-30.324219 1.871094c-8.472656-3.0625-17.5-3.050781-25.84375-.054687l8.453125-26.238282 52.355469-19.824218c3.871094-1.464844 5.824219-5.792969 4.355469-9.667969-1.464844-3.875-5.796875-5.824219-9.667969-4.355469l-41.164062 15.585938 10.828124-33.617188 51.371094-19.449219c3.875-1.46875 5.824219-5.796875 4.359375-9.667969-1.46875-3.875-5.792969-5.828124-9.671875-4.359374l-40.175781 15.210937 10.828125-33.613281 48.054688-18.195313c3.871093-1.46875 5.820312-5.796875 4.355468-9.667969-1.46875-3.875-5.796875-5.824218-9.667968-4.359374l-36.859376 13.957031 10.828126-33.613281 29.144531-11.035157c3.875-1.46875 5.824219-5.796875 4.355469-9.667969-1.464844-3.875-5.796876-5.824218-9.667969-4.359374l-17.949219 6.796874 2.382812-7.40625c1.238282-3.84375-.789062-7.980468-4.589843-9.351562-3.792969-1.375-8.003907.507812-9.507813 4.257812l-2.898437 7.21875-9.460938-16.699218c-2.039062-3.605469-6.617187-4.867188-10.222656-2.828125-3.601563 2.042969-4.867187 6.617187-2.828125 10.222656l15.363281 27.113281-13.15625 32.773438-19.429687-34.292969c-2.042969-3.601563-6.617188-4.867187-10.222656-2.828125-3.601563 2.042969-4.867188 6.621094-2.828126 10.222656l25.332032 44.707032-13.15625 32.773437-21.179688-37.378906c-2.039062-3.605469-6.617187-4.867188-10.222656-2.828125-3.601562 2.042968-4.867188 6.617187-2.828125 10.222656l27.078125 47.792969-13.15625 32.769531-21.695312-38.292969c-2.042969-3.605469-6.617188-4.867187-10.222657-2.828125-3.601562 2.042969-4.867187 6.617188-2.828125 10.222656l27.597656 48.707032-10.269531 25.582031c-4.5-7.636719-11.4375-13.414063-19.910156-16.472656-10.039063-3.628907-17.894531-11.019531-22.125-20.820313-4.230469-9.800781-4.222656-20.589844.023437-30.378906l26.933594-62.128906c1.648438-3.800782-.097656-8.21875-3.894531-9.863282-3.800781-1.652343-8.21875.097657-9.863281 3.894532l-2.808594 6.476562-39.511719-91.140625c-9.035156-20.839843-25.679687-36.84375-46.867187-45.0625-21.171875-8.210937-44.296875-7.59375-65.113282 1.746094-38.113281 17.097656-57.695312 61.347656-45.542968 102.929687l37.464844 128.242188c4.167968 14.261719 13.757812 25.820312 27.007812 32.550781 13.246094 6.726563 28.234375 7.652344 42.210938 2.601563 5.992187-2.164063 12.441406-1.808594 18.160156 1 5.71875 2.804687 9.945312 7.691406 11.898437 13.753906l37.832031 117.460938-31.878906 79.417968c-1.582031 3.941406-1.5 8.246094.238282 12.121094 1.734374 3.878906 4.890624 6.808594 8.886718 8.25l14.539063 5.253906c1.726562.625 3.511719.933594 5.285156.933594 2.335937 0 4.65625-.535156 6.820313-1.597656 3.8125-1.871094 6.632812-5.125 7.933593-9.171875l9.421875-29.246094 2.375 7.375c1.304688 4.039063 4.121094 7.296875 7.933594 9.167969 2.164062 1.0625 4.488281 1.597656 6.820312 1.597656 1.773438 0 3.558594-.308594 5.285157-.933594l14.539062-5.253906c3.996094-1.441406 7.152344-4.371094 8.886719-8.246094 1.738281-3.878906 1.824219-8.183594.242188-12.125l-24.0625-59.941406 30.011718-93.1875c1.957032-6.0625 6.179688-10.945312 11.898438-13.753906s12.167968-3.160156 18.160156-.996094c13.976562 5.050781 28.96875 4.121094 42.210938-2.605469 13.25-6.726562 22.839843-18.285156 27.007812-32.546875l37.46875-128.242187c12.148438-41.585938-7.433594-85.835938-45.550781-102.933594zm-237.460938 230.34375c-10.039062 3.628906-20.808593 2.964844-30.324219-1.871094-9.515624-4.832031-16.40625-13.136719-19.398437-23.382812l-37.46875-128.242188c-10.058594-34.429687 5.972656-70.988281 37.289063-85.039062 17.132812-7.683594 36.148437-8.195313 53.550781-1.445313 17.417969 6.757813 31.101562 19.914063 38.53125 37.046875l45.097656 104.023438-15.953125 36.800781c-5.210938 12.019531-5.832031 25.117188-1.867188 37.398438-6.308593 3.289062-11.511718 8.222656-15.136718 14.367187l-10.269532-25.578125 27.601563-48.710938c2.039063-3.605468.773437-8.179687-2.828125-10.222656-3.605469-2.042968-8.183594-.773437-10.222656 2.828125l-21.699219 38.292969-13.15625-32.769531 27.082031-47.792969c2.039063-3.601562.773438-8.179688-2.828125-10.222656-3.605469-2.042969-8.183593-.773438-10.222656 2.828125l-21.179687 37.378906-13.15625-32.773437 25.332031-44.707032c2.039062-3.601562.773437-8.179687-2.828125-10.222656-3.605469-2.042969-8.183594-.773438-10.222656 2.828125l-19.429688 34.292969-13.15625-32.773438 15.363281-27.113281c2.042969-3.605469.773438-8.179687-2.828125-10.222656-3.605468-2.042969-8.179687-.773438-10.222656 2.828125l-9.460938 16.699218-2.898437-7.21875c-1.503906-3.75-5.710937-5.632812-9.507813-4.257812-3.800781 1.371094-5.828124 5.507812-4.589843 9.351562l2.382812 7.40625-17.949219-6.796874c-3.871093-1.464844-8.203124.484374-9.667968 4.359374-1.46875 3.871094.484375 8.199219 4.355468 9.667969l29.144532 11.035157 10.828125 33.613281-36.855469-13.957031c-3.878906-1.464844-8.203125.484374-9.671875 4.359374-1.464844 3.871094.484375 8.203126 4.359375 9.667969l48.050781 18.195313 10.828125 33.613281-40.175781-15.210937c-3.875-1.464844-8.203125.484374-9.671875 4.359374-1.464844 3.871094.484375 8.199219 4.359375 9.667969l51.371094 19.449219 10.828125 33.617188-41.164063-15.585938c-3.871093-1.46875-8.203125.484375-9.667969 4.355469-1.46875 3.875.484376 8.203125 4.355469 9.671875l52.355469 19.820312 8.453125 26.238282c-8.339844-2.992188-17.367187-3.003907-25.839844.054687zm38.796875-8.757813 34.589844 86.160157c1.542969 3.84375 5.910156 5.710937 9.75 4.164062 3.84375-1.542969 5.710938-5.910156 4.167969-9.753906l-21.660157-53.953125c0-.003906-.003906-.007812-.003906-.011719-2.375-5.914062-2.246094-12.371093.359375-18.1875 2.097657-4.683593 5.59375-8.417969 10.003907-10.835937 6.246093 9.34375 15.246093 16.425781 26.089843 20.339844 5.988281 2.167968 10.726563 6.558593 13.328125 12.375 2.605469 5.8125 2.730469 12.269531.359375 18.183593 0 .003907-.003906.007813-.003906.011719l-34.046875 84.808594zm31.738282 245.6875c-.015626.050782-.066407.207032-.265626.304688-.191406.097656-.347656.042969-.402343.023438l-14.539063-5.253907c-.050781-.019531-.203125-.074219-.292968-.273437-.089844-.199219-.027344-.355469-.007813-.402344l87.597656-218.210938zm55.859374-27.480468c.023438.050781.082032.203125-.007812.40625-.089844.199218-.242188.253906-.292969.273437l-14.542969 5.25c-.050781.023438-.203124.078125-.398437-.019531-.199219-.097656-.25-.253906-.265625-.304688l-8.773438-27.238281 6.945313-21.558593zm0 0"/></svg>