<svg height="512pt" viewBox="0 0 512 511" width="512pt" xmlns="http://www.w3.org/2000/svg"><path d="m176.972656 17.3125c-16.515625 9.273438-27.847656 23.738281-32.605468 39.210938 15.6875 3.996093 33.9375 1.855468 50.453124-7.417969 14.046876-7.886719 24.34375-19.527344 30.035157-32.355469 1.59375-3.59375-.722657-7.722656-4.621094-8.230469-13.914063-1.820312-29.21875.90625-43.261719 8.792969zm0 0" fill="#96cd82"/><path d="m220.234375 8.519531c-13.914063-1.820312-29.21875.910157-43.261719 8.792969-16.515625 9.273438-27.847656 23.738281-32.605468 39.210938l80.242187-45.03125c-.867187-1.550782-2.421875-2.71875-4.375-2.972657zm0 0" fill="#7dbe81"/><path d="m143.773438 95.484375c8.015624 0 16.03125-8.015625 32.066406-8.015625 48.097656 0 104.210937 136.277344 104.210937 216.4375 0 75.261719-61.015625 136.273438-136.277343 136.273438-75.261719 0-136.273438-61.011719-136.273438-136.273438 0-80.160156 56.113281-216.433594 104.210938-216.433594 16.03125-.003906 24.046874 8.011719 32.0625 8.011719zm0 0" fill="#96cd82"/><path d="m203.8125 415.761719c-75.117188 4.667969-140.144531-57.972657-145.238281-139.921875-3.316407-53.296875 12.855469-130.632813 36.867187-183.488282-43.625 24.835938-87.941406 140.3125-87.941406 211.554688 0 75.261719 61.011719 136.273438 136.273438 136.273438 31.09375 0 59.664062-10.53125 82.59375-28.058594-7.308594 1.816406-14.804688 3.15625-22.554688 3.640625zm0 0" fill="#7dbe81"/><path d="m368.226562 159.617188c8.015626 0 16.03125-8.019532 32.0625-8.019532 48.097657 0 104.210938 136.277344 104.210938 216.4375 0 75.261719-61.011719 136.273438-136.273438 136.273438-75.261718 0-136.273437-61.011719-136.273437-136.273438 0-80.160156 56.113281-216.4375 104.210937-216.4375 16.03125 0 24.046876 8.019532 32.0625 8.019532zm0 0" fill="#ffedb1"/><path d="m368.226562 287.875c39.84375 0 72.144532 40.078125 72.144532 88.175781 0 39.84375-32.300782 72.144531-72.144532 72.144531s-72.144531-32.300781-72.144531-72.144531c0-48.097656 32.300781-88.175781 72.144531-88.175781zm0 0" fill="#b67f5f"/><path d="m408.144531 431.8125c-39.683593 3.550781-75.023437-28.960938-78.925781-72.617188-2.152344-24.054687 2.621094-46.824218 12.160156-64.867187-26.535156 13.167969-45.296875 45.089844-45.296875 81.722656 0 39.84375 32.300781 72.144531 72.144531 72.144531 17.925782 0 34.292969-6.578124 46.910157-17.402343-2.289063.457031-4.621094.808593-6.992188 1.019531zm0 0" fill="#a06e50"/><path d="m477.257812 226.652344c-10.703124-23.546875-22.699218-43.390625-34.699218-57.390625-14.3125-16.695313-28.535156-25.164063-42.269532-25.164063-10.671874 0-18.386718 3.109375-24.0625 5.460938 3.371094-34.484375 22.914063-57.40625 23.128907-57.65625 2.71875-3.113282 2.402343-7.84375-.710938-10.570313-3.117187-2.726562-7.855469-2.414062-10.582031.703125-1.035156 1.179688-23.664062 27.492188-26.929688 67.898438-.191406-.078125-.375-.15625-.566406-.234375-5.707031-2.363281-13.523437-5.601563-24.40625-5.601563-13.734375 0-27.957031 8.464844-42.265625 25.164063-8.257812 9.632812-16.515625 22.035156-24.351562 36.507812-10.09375-30.953125-23.457031-60.167969-37.683594-82.050781-2.257813-3.472656-6.902344-4.457031-10.375-2.203125-3.472656 2.257813-4.457031 6.90625-2.199219 10.378906 15.78125 24.28125 30.511719 58.234375 40.535156 93.394531-.207031.457032-.421874.902344-.628906 1.363282-21.105468 46.429687-34.742187 101.925781-34.742187 141.382812 0 11.363282 1.332031 22.421875 3.835937 33.03125-23.4375 20.410156-53.332031 31.613282-84.511718 31.613282-71.003907 0-128.773438-57.769532-128.773438-128.773438 0-37.484375 13.109375-90.542969 33.394531-135.175781 20.679688-45.5 44.941407-73.761719 63.316407-73.761719 7.898437 0 13.371093 2.265625 18.660156 4.457031 4.417968 1.832031 8.589844 3.558594 13.402344 3.558594s8.984374-1.726563 13.402343-3.558594c5.292969-2.191406 10.761719-4.457031 18.664063-4.457031 7.171875 0 15.589844 4.480469 24.34375 12.949219 2.976562 2.878906 7.726562 2.804687 10.605468-.171875 2.882813-2.980469 2.804688-7.726563-.171874-10.605469-11.773438-11.394531-23.472657-17.171875-34.777344-17.171875-10.132813 0-17.601563 2.804688-23.1875 5.101562-.167969-6.941406-.894532-13.523437-2.007813-19.699218 2.945313.367187 5.921875.554687 8.917969.554687 13.148438 0 26.613281-3.511719 38.667969-10.277343 17.445312-9.796876 30.605469-25.667969 36.097656-43.546876.605469-1.960937.375-4.085937-.628906-5.875-1.003907-1.789062-2.695313-3.089843-4.6875-3.597656-18.125-4.617187-38.527344-1.648437-55.976563 8.148438-12.527344 7.035156-22.828125 17.214844-29.683594 29.011718-7.101562-18.015624-15.753906-28.914062-16.367187-29.671874-2.597656-3.214844-7.304687-3.714844-10.527344-1.121094-3.222656 2.59375-3.734375 7.308594-1.148437 10.539062.222656.273438 21.667968 27.519532 22.359375 66.675782-.507813-.203126-1.023438-.417969-1.554688-.636719-5.707031-2.363281-13.519531-5.601563-24.402343-5.601563-13.734376 0-27.957032 8.464844-42.269532 25.164063-12 14-24 33.84375-34.703125 57.390625-21.101562 46.425781-34.738281 101.921875-34.738281 141.378906 0 79.277344 64.496094 143.773438 143.773438 143.773438 32.546874 0 63.839843-10.933594 89.164062-30.980469 19.988281 55.398437 73.085938 95.109375 135.289062 95.109375 79.277344 0 143.773438-64.496094 143.773438-143.773438 0-39.457031-13.636719-94.953125-34.742188-141.382812zm-296.875-202.796875c11.402344-6.402344 24.277344-9.226563 36.414063-8.140625-5.390625 10.925781-14.503906 20.449218-25.910156 26.851562s-24.28125 9.226563-36.414063 8.140625c5.390625-10.929687 14.503906-20.449219 25.910156-26.851562zm187.84375 472.953125c-71.007812 0-128.773437-57.769532-128.773437-128.773438 0-37.484375 13.109375-90.542968 33.394531-135.175781 20.679688-45.5 44.941406-73.761719 63.3125-73.761719 7.898438 0 13.371094 2.269532 18.664063 4.457032 4.417969 1.832031 8.589843 3.558593 13.402343 3.558593s8.984376-1.726562 13.402344-3.558593c5.289063-2.1875 10.761719-4.457032 18.660156-4.457032 18.375 0 42.636719 28.261719 63.316407 73.761719 20.285156 44.632813 33.394531 97.691406 33.394531 135.175781 0 71.003906-57.769531 128.773438-128.773438 128.773438zm0 0"/><path d="m422.5625 317.746094c-3.554688 2.128906-4.707031 6.734375-2.578125 10.289062 8.429687 14.058594 12.886719 30.664063 12.886719 48.015625 0 35.644531-29 64.644531-64.644532 64.644531-35.648437 0-64.644531-29-64.644531-64.644531 0-21.609375 6.90625-41.992187 19.445313-57.390625 12.230468-15.015625 28.28125-23.289062 45.199218-23.289062 10.800782 0 21.515626 3.46875 30.992188 10.023437 3.402344 2.359375 8.078125 1.507813 10.433594-1.898437 2.359375-3.40625 1.507812-8.078125-1.898438-10.433594-11.992187-8.304688-25.660156-12.691406-39.527344-12.691406-43.917968 0-79.644531 42.921875-79.644531 95.675781 0 43.917969 35.730469 79.644531 79.644531 79.644531 43.917969 0 79.644532-35.726562 79.644532-79.644531 0-20.066406-5.191406-39.335937-15.019532-55.726563-2.132812-3.550781-6.738281-4.707031-10.289062-2.574218zm0 0"/></svg>