<svg height="512pt" viewBox="0 0 512.00086 512" width="512pt" xmlns="http://www.w3.org/2000/svg"><path d="m159.796875 95.671875c84.113281 0 152.300781 67.265625 152.300781 150.242187 0 97.21875-68.1875 194.4375-152.300781 194.4375-84.109375 0-152.296875-97.21875-152.296875-194.4375 0-82.976562 68.1875-150.242187 152.296875-150.242187zm0 0" fill="#ae6472"/><path d="m199.878906 400.269531c-84.113281 0-152.300781-97.214843-152.300781-194.433593 0-30.902344 9.480469-59.613282 25.699219-83.492188-39.71875 27.113281-65.777344 72.320312-65.777344 123.574219 0 97.214843 68.1875 194.433593 152.296875 194.433593 43.082031 0 81.953125-25.535156 109.65625-63.476562-20.859375 14.707031-44.5 23.394531-69.574219 23.394531zm0 0" fill="#8c5564"/><path d="m489.234375 335.714844-44.898437-77.773438c-43.304688-75.003906-151.566407-75.003906-194.871094 0l-44.902344 77.773438c-43.304688 75.003906 10.828125 168.761718 97.4375 168.761718h89.800781c86.609375 0 140.742188-93.757812 97.433594-168.761718zm0 0" fill="#fff6d8"/><path d="m447.585938 359.761719-44.902344-77.773438c-11.640625-20.167969-32.496094-32.207031-55.785156-32.207031-23.285157 0-44.140626 12.042969-55.785157 32.207031l-44.898437 77.773438c-11.644532 20.167969-11.644532 44.246093 0 64.414062 11.640625 20.167969 32.496094 32.207031 55.785156 32.207031h89.800781c23.285157 0 44.140625-12.042968 55.785157-32.207031 11.640624-20.167969 11.640624-44.246093 0-64.414062zm0 0" fill="#ffc369"/><path d="m400.273438 360.191406c0 30.992188-25.121094 56.113282-56.113282 56.113282-30.988281 0-56.109375-25.121094-56.109375-56.113282 0-30.988281 25.121094-56.109375 56.109375-56.109375 30.992188 0 56.113282 25.121094 56.113282 56.109375zm0 0" fill="#ffe17d"/><path d="m495.730469 331.964844-44.898438-77.769532c-21.691406-37.574218-60.546875-60.007812-103.929687-60.007812-.003906 0 0 0 0 0-11.917969 0-23.488282 1.703125-34.457032 4.9375-19.890624-63.351562-78.3125-107.796875-145.417968-110.785156-3.101563-42.855469-31.90625-83.417969-33.199219-85.21875-2.417969-3.359375-7.097656-4.125-10.460937-1.714844-3.363282 2.414062-4.132813 7.101562-1.722657 10.464844.289063.402344 27.121094 38.265625 30.339844 76.492187-84.5 4.039063-151.984375 73.160157-151.984375 157.554688 0 49.050781 16.8125 99.421875 46.125 138.195312 31.074219 41.101563 71.441406 63.738281 113.675781 63.738281 11.261719 0 22.519531-1.664062 33.550781-4.910156 1.445313 3.050782 3.003907 6.066406 4.71875 9.03125 21.691407 37.570313 60.542969 60.003906 103.929688 60.003906h89.800781c43.386719 0 82.238281-22.433593 103.933594-60.003906 21.6875-37.574218 21.6875-82.4375-.003906-120.007812zm-335.929688 100.886718c-37.417969 0-73.539062-20.523437-101.710937-57.785156-27.382813-36.222656-43.089844-83.296875-43.089844-129.148437 0-78.710938 64.957031-142.746094 144.800781-142.746094 63.789063 0 120.09375 41.347656 138.535157 101.105469-22.863282 10.035156-42.253907 27.203125-55.367188 49.917968l-44.902344 77.769532c-17.402344 30.144531-20.828125 64.976562-10.308594 96.972656-9.222656 2.585938-18.59375 3.914062-27.957031 3.914062zm322.941407 11.621094c-18.980469 32.875-52.976563 52.503906-90.941407 52.503906h-89.800781c-37.964844 0-71.960938-19.628906-90.941406-52.503906-18.980469-32.878906-18.980469-72.132812 0-105.011718l44.898437-77.769532c18.980469-32.875 52.980469-52.503906 90.941407-52.503906 37.964843 0 71.960937 19.628906 90.941406 52.503906l44.902344 77.769532c18.980468 32.878906 18.980468 72.132812 0 105.011718zm0 0"/><path d="m274.308594 441.808594c-8.90625-4.941406-16.375-12.335938-21.601563-21.382813-10.285156-17.820312-10.285156-39.097656 0-56.917969l44.902344-77.769531c10.289063-17.816406 28.714844-28.457031 49.289063-28.457031 9.210937 0 17.941406 2.066406 25.949218 6.144531 3.6875 1.882813 8.207032.414063 10.085938-3.277343 1.882812-3.6875.414062-8.207032-3.277344-10.085938-9.992188-5.089844-21.316406-7.78125-32.757812-7.78125-25.996094 0-49.28125 13.441406-62.277344 35.960938l-44.902344 77.769531c-13 22.511719-13 49.398437 0 71.914062 6.582031 11.398438 16.027344 20.734375 27.3125 27 1.152344.640625 2.402344.941407 3.632812.941407 2.636719 0 5.195313-1.390626 6.5625-3.859376 2.011719-3.621093.703126-8.1875-2.917968-10.199218zm0 0"/><path d="m409.179688 278.242188c-2.070313-3.589844-6.65625-4.816407-10.246094-2.746094-3.585938 2.070312-4.8125 6.65625-2.742188 10.242187l44.898438 77.769531c10.289062 17.820313 10.289062 39.097657 0 56.917969-10.289063 17.816407-28.714844 28.457031-49.289063 28.457031h-89.800781c-4.144531 0-7.5 3.355469-7.5 7.5 0 4.140626 3.355469 7.5 7.5 7.5h89.800781c25.996094 0 49.28125-13.441406 62.277344-35.957031 13-22.515625 13-49.402343 0-71.914062zm0 0"/><path d="m293.355469 378.9375-8.015625-8.015625c-2.929688-2.929687-7.679688-2.929687-10.605469 0-2.929687 2.929687-2.929687 7.675781 0 10.605469l8.015625 8.015625c1.464844 1.464843 3.382812 2.195312 5.300781 2.195312 1.921875 0 3.839844-.730469 5.304688-2.195312 2.929687-2.929688 2.925781-7.679688 0-10.605469zm0 0"/><path d="m325.417969 330.839844c-2.929688-2.925782-7.679688-2.925782-10.605469.003906l-8.015625 8.015625c-2.929687 2.929687-2.929687 7.675781 0 10.605469 1.464844 1.464844 3.382813 2.195312 5.300781 2.195312 1.921875 0 3.839844-.730468 5.304688-2.195312l8.015625-8.019532c2.929687-2.925781 2.929687-7.675781 0-10.605468zm0 0"/><path d="m378.9375 357.480469 8.015625 8.015625c1.464844 1.464844 3.382813 2.195312 5.304687 2.195312 1.917969 0 3.835938-.730468 5.300782-2.195312 2.929687-2.929688 2.929687-7.675782 0-10.605469l-8.015625-8.015625c-2.929688-2.929688-7.675781-2.929688-10.605469 0-2.929688 2.925781-2.929688 7.675781 0 10.605469zm0 0"/><path d="m365.496094 325.417969 8.015625-8.015625c2.929687-2.929688 2.929687-7.679688 0-10.605469-2.929688-2.929687-7.675781-2.929687-10.605469 0l-8.015625 8.015625c-2.929687 2.925781-2.929687 7.675781 0 10.605469 1.464844 1.464843 3.382813 2.195312 5.300781 2.195312 1.921875 0 3.839844-.734375 5.304688-2.195312zm0 0"/><path d="m336.144531 311.582031c1.921875 0 3.839844-.730469 5.304688-2.195312 2.929687-2.929688 2.929687-7.679688 0-10.605469l-8.015625-8.015625c-2.929688-2.929687-7.675782-2.929687-10.605469 0s-2.929687 7.675781 0 10.605469l8.015625 8.015625c1.464844 1.460937 3.382812 2.195312 5.300781 2.195312zm0 0"/><path d="m346.875 381.527344c1.464844 1.464844 3.382812 2.195312 5.300781 2.195312 1.921875 0 3.839844-.730468 5.304688-2.195312 2.929687-2.929688 2.929687-7.675782 0-10.605469l-8.015625-8.015625c-2.929688-2.929688-7.679688-2.929688-10.605469 0-2.929687 2.925781-2.929687 7.675781 0 10.605469zm0 0"/><path d="m368.210938 423.800781c1.917968 0 3.835937-.730469 5.300781-2.195312l8.015625-8.015625c2.929687-2.929688 2.929687-7.675782 0-10.605469-2.925782-2.929687-7.675782-2.929687-10.605469 0l-8.015625 8.015625c-2.929688 2.929688-2.929688 7.675781 0 10.605469 1.464844 1.464843 3.382812 2.195312 5.304688 2.195312zm0 0"/><path d="m317.402344 402.984375c-2.929688-2.929687-7.679688-2.929687-10.605469 0-2.929687 2.929687-2.929687 7.679687 0 10.605469l8.015625 8.015625c1.464844 1.464843 3.382812 2.195312 5.300781 2.195312 1.921875 0 3.839844-.730469 5.304688-2.195312 2.929687-2.929688 2.929687-7.679688 0-10.605469zm0 0"/><path d="m413.589844 413.589844 8.015625-8.015625c2.929687-2.929688 2.929687-7.679688 0-10.605469-2.925781-2.929688-7.675781-2.929688-10.605469 0l-8.015625 8.015625c-2.929687 2.929687-2.925781 7.679687 0 10.605469 1.464844 1.464844 3.382813 2.195312 5.304687 2.195312 1.917969 0 3.839844-.730468 5.300782-2.195312zm0 0"/></svg>