<svg height="512pt" viewBox="-32 0 512 512.00012" width="512pt" xmlns="http://www.w3.org/2000/svg"><path d="m409.046875 359.925781c0-57.667969-43.148437-104.414062-96.378906-104.414062s-96.382813 46.746093-96.382813 104.414062c0 57.664063 43.152344 104.414063 96.382813 104.414063s96.378906-46.75 96.378906-104.414063zm0 0" fill="#be4150"/><path d="m332.242188 443.757812c-53.230469 0-96.378907-46.75-96.378907-104.414062 0-24.058594 7.585938-46.148438 20.203125-63.804688-24.070312 18.984376-39.78125 49.660157-39.78125 84.386719 0 57.664063 43.148438 104.414063 96.382813 104.414063 31.023437 0 58.546875-15.945313 76.175781-40.609375-15.90625 12.539062-35.421875 20.027343-56.601562 20.027343zm0 0" fill="#a03c4b"/><path d="m370.84375 14.980469-17.976562 17.976562-1.050782-2.253906c-11.789062-25.253906-45.082031-31.121094-64.789062-11.414063l-9.785156 9.785157c-19.707032 19.707031-13.84375 53.003906 11.414062 64.789062l2.253906 1.050781-17.976562 17.976563c-9.734375 9.734375-3.515625 26.402344 10.214844 27.382813l123.929687 8.855468-8.851563-123.933594c-.980468-13.730468-17.648437-19.949218-27.382812-10.214843zm0 0" fill="#96cd82"/><path d="m189.949219 315.242188c28.273437-50.261719 13.585937-112.164063-32.8125-138.261719-46.394531-26.097657-106.925781-6.511719-135.199219 43.75s-13.582031 112.164062 32.8125 138.265625c46.394531 26.097656 106.925781 6.507812 135.199219-43.753906zm0 0" fill="#be4150"/><path d="m81.910156 350.640625c-46.394531-26.097656-61.085937-88-32.8125-138.257813 11.792969-20.96875 29.234375-36.5 48.890625-45.703124-30.289062 4.742187-59.023437 23.777343-76.046875 54.042968-28.269531 50.257813-13.582031 112.160156 32.8125 138.257813 27.039063 15.210937 58.847656 14.804687 86.304688 1.953125-20.011719 3.132812-40.691406.089844-59.148438-10.292969zm0 0" fill="#a03c4b"/><path d="m446.472656 177.925781.003906-.007812-32.117187-32.117188-8.652344-121.144531c-.667969-9.316406-6.515625-17.132812-15.269531-20.394531-8.753906-3.269531-18.289062-1.191407-24.894531 5.414062l-10.894531 10.898438c-7.167969-10.480469-18.105469-17.558594-30.957032-19.824219-15.527344-2.734375-30.824218 2.089844-41.96875 13.234375l-9.785156 9.785156c-11.148438 11.148438-15.972656 26.445313-13.238281 41.972657 2.265625 12.851562 9.347656 23.789062 19.824219 30.953124l-10.894532 10.894532c-2.363281 2.363281-4.136718 5.105468-5.300781 8.046875-55.769531 7.367187-93.796875 36.636719-107.265625 52.195312-49.003906-23.46875-110.441406-2.289062-139.636719 49.34375-28.59375 50.578125-16.203125 112.605469 26.964844 143.21875l-23.367187 22.417969c-2.988282 2.867188-3.085938 7.617188-.21875 10.605469 1.472656 1.535156 3.441406 2.308593 5.414062 2.308593 1.867188 0 3.738281-.695312 5.191406-2.089843l12.214844-11.722657-3.746094 16.511719c-.917968 4.039063 1.613282 8.054688 5.652344 8.972657.558594.125 1.117188.1875 1.667969.1875 3.425781 0 6.519531-2.359376 7.308593-5.84375l7.164063-31.578126c12.585937 5.507813 25.917969 8.148438 39.261719 8.148438 38.046875 0 76.183594-21.4375 97.351562-58.882812 28.824219-50.976563 16.007813-113.582032-27.984375-143.929688 4.964844-5.242188 13.695313-12.855469 26.234375-20.527344 14.308594-8.757812 37.214844-19.71875 67.136719-24.109375.160156.542969.339844 1.085938.539063 1.625 3.265624 8.753907 11.082031 14.601563 20.398437 15.269531l121.140625 8.652344 12.390625 12.390625c-24.582031-4.183593-46.042969-.851562-64.023437 9.996094-31.355469 18.921875-42.390626 54.910156-45.671876 69.421875-54.394531 3.480469-97.660156 52.246094-97.660156 111.707031 0 58.101563 41.3125 106 93.957032 111.398438l-9.304688 31.019531c-1.191406 3.96875 1.0625 8.148438 5.027344 9.339844.71875.214844 1.441406.316406 2.15625.316406 3.226562 0 6.207031-2.097656 7.179687-5.347656l4.867188-16.214844 4.863281 16.214844c.976562 3.25 3.953125 5.347656 7.179688 5.347656.714843 0 1.441406-.101562 2.160156-.316406 3.96875-1.191406 6.21875-5.371094 5.027344-9.339844l-9.304688-31.019531c52.640625-5.402344 93.957031-53.296875 93.957031-111.398438 0-58.378906-41.710937-106.449219-94.707031-111.472656 3.59375-13.878906 13.621094-42.085937 38.023438-56.8125 20.371093-12.292969 46.878906-12.75 78.785156-1.351563 3.902344 1.386719 8.191406-.640624 9.585937-4.542968 1.007813-2.820313.21875-5.835938-1.765625-7.820313zm-263.242187 134.121094c-16.203125 28.65625-43.710938 46.570313-72.421875 50.464844.628906-.332031 1.257812-.664063 1.890625-1.011719 21.46875-11.855469 41.222656-32.414062 55.621093-57.882812 2.039063-3.605469.769532-8.179688-2.835937-10.21875-3.605469-2.039063-8.183594-.769532-10.21875 2.835937-13.054687 23.085937-30.746094 41.601563-49.820313 52.136719-9.347656 5.164062-18.390624 8.023437-26.695312 8.585937 6.914062-5.898437 14.597656-14.269531 23.035156-25.113281 2.542969-3.269531 1.957032-7.980469-1.3125-10.523438-3.269531-2.542968-7.980468-1.953124-10.523437 1.3125-17.839844 22.921876-28.386719 29.085938-31.664063 29.777344-2.484375-6.453125 3.164063-39.28125 33.125-92.273437 6.730469-11.90625 13.792969-23.160157 20.988282-33.441407 2.375-3.394531 1.546874-8.070312-1.84375-10.445312-3.394532-2.375-8.070313-1.546875-10.445313 1.847656-7.46875 10.675782-14.789063 22.335938-21.753906 34.65625-14 24.757813-24.957031 49.371094-30.859375 69.308594-2.230469 7.539062-3.660156 14.121094-4.28125 19.765625-30.476563-27.851563-37.65625-76.722656-14.730469-117.269531 16.203125-28.65625 43.707031-46.5625 72.414063-50.460938-.625.328125-1.253907.664063-1.878907 1.007813-21.46875 11.855469-41.222656 32.414062-55.625 57.882812-2.035156 3.605469-.765625 8.183594 2.839844 10.21875 1.164063.660157 2.433594.972657 3.683594.972657 2.617187 0 5.15625-1.367188 6.535156-3.808594 13.054687-23.085938 30.746094-41.601563 49.816406-52.132813 9.347657-5.164062 18.382813-8.023437 26.683594-8.589843-3.816406 3.28125-7.890625 7.332031-12.230469 12.160156-2.769531 3.078125-2.519531 7.820312.558594 10.589844 1.433594 1.289062 3.226562 1.925781 5.015625 1.925781 2.050781 0 4.097656-.839844 5.578125-2.484375 12.855469-14.296875 20.027344-17.582032 22.015625-17.707032 42.394531 24.230469 55.570313 81.515626 29.339844 127.914063zm218.316406 47.878906c0 32.914063-15.128906 62.039063-38.199219 79.566407.382813-.597657.765625-1.195313 1.140625-1.804688 12.851563-20.886719 19.933594-48.503906 19.933594-77.761719 0-4.144531-3.355469-7.5-7.5-7.5s-7.5 3.355469-7.5 7.5c0 26.519531-6.289063 51.34375-17.707031 69.898438-5.597656 9.09375-12.054688 16.03125-19.003906 20.609375 3.109374-8.535156 5.675781-19.609375 7.683593-33.191406.605469-4.097657-2.226562-7.910157-6.324219-8.515626-4.085937-.601562-7.910156 2.226563-8.515624 6.324219-4.242188 28.730469-10.394532 39.285157-12.90625 41.5-5.335938-4.394531-16.578126-35.75-16.578126-96.628906 0-13.675781.609376-26.945313 1.8125-39.4375.398438-4.125-2.621093-7.785156-6.746093-8.183594-4.128907-.402343-7.789063 2.625-8.183594 6.746094-1.246094 12.96875-1.878906 26.722656-1.878906 40.875 0 28.441406 2.574219 55.261719 7.25 75.519531 1.765625 7.664063 3.761719 14.09375 5.996093 19.3125-40.238281-9.242187-70.535156-48.25-70.535156-94.832031 0-32.914063 15.128906-62.039063 38.195313-79.566406-.382813.59375-.761719 1.195312-1.136719 1.804687-12.851562 20.886719-19.929688 48.503906-19.929688 77.761719 0 4.144531 3.355469 7.5 7.496094 7.5 4.144532 0 7.5-3.355469 7.5-7.5 0-26.519531 6.289063-51.34375 17.707032-69.902344 5.597656-9.09375 12.054687-16.027343 19.003906-20.605469-1.707032 4.734376-3.261719 10.265626-4.664063 16.605469-.898437 4.042969 1.65625 8.046875 5.699219 8.941407.546875.121093 1.09375.179687 1.628906.179687 3.441406 0 6.539063-2.382813 7.316406-5.878906 4.15625-18.769531 8.777344-25.160157 10.449219-26.25 48.832031.230469 88.496094 43.613281 88.496094 96.914062zm-117.867187-227.132812c-3.4375-.246094-6.207032-2.316407-7.414063-5.546875-1.203125-3.230469-.46875-6.613282 1.96875-9.050782l17.980469-17.976562c1.730468-1.730469 2.507812-4.199219 2.082031-6.605469-.425781-2.410156-2-4.460937-4.21875-5.496093l-2.253906-1.050782c-9.789063-4.566406-16.476563-13.289062-18.351563-23.929687s1.429688-21.121094 9.070313-28.761719l9.785156-9.78125c6.234375-6.238281 14.367187-9.585938 22.929687-9.585938 1.929688 0 3.878907.167969 5.832032.511719 10.636718 1.875 19.359375 8.566407 23.929687 18.355469l1.050781 2.253906c1.035157 2.21875 3.085938 3.792969 5.496094 4.214844 2.410156.425781 4.875-.351562 6.601563-2.082031l17.980469-17.976563c2.4375-2.4375 5.820312-3.175781 9.046874-1.96875 3.230469 1.203125 5.304688 3.976563 5.550782 7.410156l7.417968 103.878907-23.339843-23.339844v-42.328125c0-4.144531-3.359375-7.5-7.5-7.5-4.144531 0-7.5 3.355469-7.5 7.5v27.328125l-32.632813-32.632813c-2.929687-2.925781-7.675781-2.929687-10.605468 0-2.929688 2.929688-2.929688 7.675782 0 10.605469l32.632812 32.632813h-27.328125c-4.144531 0-7.5 3.359375-7.5 7.5 0 4.144531 3.355469 7.5 7.5 7.5h42.328125l23.339844 23.34375zm0 0"/><path d="m329.261719 359.925781c0 8.011719-.214844 15.980469-.632813 23.6875-.226562 4.132813 2.945313 7.667969 7.078125 7.894531.140625.007813.277344.011719.417969.011719 3.953125 0 7.261719-3.09375 7.480469-7.09375.433593-7.976562.65625-16.21875.65625-24.503906 0-17.300781-.933594-33.816406-2.769531-49.085937-.496094-4.113282-4.238282-7.042969-8.34375-6.550782-4.109376.496094-7.042969 4.226563-6.550782 8.339844 1.742188 14.476562 2.664063 30.828125 2.664063 47.300781zm0 0"/><path d="m151.074219 229.949219c-3.824219-1.589844-8.214844.214843-9.808594 4.039062-5.605469 13.449219-12.851563 28.140625-20.960937 42.480469-3.9375 6.964844-8.046876 13.800781-12.207032 20.308594-2.234375 3.488281-1.214844 8.128906 2.273438 10.359375 1.253906.800781 2.652344 1.183593 4.035156 1.183593 2.472656 0 4.894531-1.222656 6.324219-3.460937 4.3125-6.738281 8.558593-13.804687 12.632812-21.007813 8.515625-15.066406 15.832031-29.898437 21.75-44.09375 1.589844-3.824218-.214843-8.214843-4.039062-9.808593zm0 0"/></svg>