<svg height="512pt" viewBox="-76 0 512 512.00016" width="512pt" xmlns="http://www.w3.org/2000/svg"><path d="m107.5 23.046875c-31.882812-14.308594-64.644531-18.453125-91.898438-13.660156-4.164062.734375-6.226562 5.335937-4.007812 8.929687 14.53125 23.554688 39.398438 45.28125 71.28125 59.59375 35.109375 15.761719 71.285156 19.1875 100 11.929688-13.660156-26.28125-40.265625-51.03125-75.375-66.792969zm0 0" fill="#cdf5a0"/><path d="m256.382812 35.765625c30.542969-13.707031 61.921876-17.71875 88.078126-13.199219 4.164062.71875 6.238281 5.351563 4.011718 8.9375-14.007812 22.546875-37.855468 43.332032-68.398437 57.039063-33.777344 15.164062-68.578125 18.460937-96.203125 11.480469 13.144531-25.285157 38.738281-49.09375 72.511718-64.257813zm0 0" fill="#cdf5a0"/><path d="m240.570312 253.496094c30.03125-11.914063 76.671876 34.625 97.523438 87.175781s8.015625 91.21875-22.015625 103.136719c-30.027344 11.914062-65.882813-7.4375-86.734375-59.988282-20.851562-52.550781-18.804688-118.40625 11.226562-130.324218zm0 0" fill="#ff8087"/><path d="m335.175781 412.628906c-30.027343 11.917969-65.882812-7.433594-86.734375-59.988281-12.988281-32.730469-17.082031-70.617187-11.070312-97.421875-26.875 15.289062-28.089844 78.03125-8.027344 128.601562 20.851562 52.550782 56.707031 71.902344 86.738281 59.988282 15.34375-6.089844 26.152344-19.195313 30.320313-37.53125-3.410156 2.574218-7.140625 4.730468-11.226563 6.351562zm0 0" fill="#e6646e"/><path d="m294.503906 269.574219c-20.378906-18.621094-40.007812-25.535157-55.28125-19.476563-15.273437 6.058594-24.824218 24.554688-26.890625 52.078125-.101562 1.300781.496094 2.554688 1.574219 3.285157 1.070312.746093 2.503906.9375 3.632812.296874 5.957032-2.816406 20.875-10.824218 30.65625-24.3125 1.289063-1.785156 3.816407-2.789062 5.996094-2.375 16.359375 3.109376 32.707032-1.285156 38.976563-3.320312.074219-.023438.148437-.050781.222656-.082031 1.125-.445313 1.96875-1.425781 2.222656-2.625.277344-1.269531-.148437-2.59375-1.109375-3.46875zm0 0" fill="#cdf5a0"/><path d="m217.539062 305.757812c4.136719-1.957031 12.582032-6.476562 20.636719-13.53125-2.125-14.378906-2.628906-28.390624-1.324219-40.886718-13.851562 6.996094-22.5625 24.808594-24.519531 50.835937-.101562 1.300781.496094 2.554688 1.570313 3.285157 1.070312.746093 2.507812.9375 3.636718.296874zm0 0" fill="#b4e6a0"/><path d="m124.070312 264.015625c31.027344 12.421875 32.9375 80.550781 11.203126 134.847656-21.734376 54.296875-58.882813 74.199219-89.910157 61.78125-31.027343-12.421875-44.179687-52.460937-22.445312-106.757812s70.128906-102.289063 101.152343-89.871094zm0 0" fill="#ff8087"/><path d="m81.886719 450.820312c-31.027344-12.417968-44.183594-52.460937-22.449219-106.757812 13.539062-33.820312 37.421875-65.179688 61.007812-81.03125-31.058593-7.640625-76.613281 38.605469-97.527343 90.855469-21.734375 54.296875-8.582031 94.335937 22.445312 106.753906 15.851563 6.347656 33.296875 4.199219 49.472657-6.609375-4.394532-.484375-8.730469-1.523438-12.949219-3.210938zm0 0" fill="#e6646e"/><path d="m153.128906 314.460938c-2.054687-28.480469-11.871094-47.640626-27.652344-53.957032-15.777343-6.316406-36.105468.777344-57.246093 19.972656-1 .90625-1.441407 2.269532-1.15625 3.585938.273437 1.320312 1.21875 2.484375 2.519531 2.808594 6.480469 2.125 23.375 6.722656 40.316406 3.558594 2.238282-.425782 4.851563.621093 6.191406 2.480468 10.074219 13.976563 25.476563 22.304688 31.628907 25.238282.074219.039062.148437.066406.226562.097656 1.164063.46875 2.492188.332031 3.535157-.390625 1.113281-.757813 1.738281-2.050781 1.636718-3.394531zm0 0" fill="#cdf5a0"/><path d="m69.59375 286.871094c4.5 1.472656 14.054688 4.085937 25.125 4.519531 8.632812-12.308594 18.226562-23.1875 28.097656-31.644531-15.378906-4.597656-34.59375 2.578125-54.585937 20.730468-1 .902344-1.441407 2.269532-1.15625 3.585938.273437 1.320312 1.21875 2.484375 2.519531 2.808594zm0 0" fill="#b4e6a0"/><path d="m183.871094 280.027344c35.421875 0 64.136718 66.28125 64.136718 128.269531 0 61.984375-28.714843 96.203125-64.136718 96.203125s-64.132813-34.21875-64.132813-96.203125c0-61.988281 28.710938-128.269531 64.132813-128.269531zm0 0" fill="#ff8087"/><path d="m215.9375 480.449219c-35.417969 0-64.132812-34.214844-64.132812-96.203125 0-38.609375 11.144531-78.871094 28.109374-103.761719-33.566406 4.71875-60.179687 68.164063-60.179687 127.8125 0 61.984375 28.714844 96.203125 64.136719 96.203125 18.097656 0 34.414062-8.984375 46.074218-25.988281-4.511718 1.25-9.1875 1.9375-14.007812 1.9375zm0 0" fill="#e6646e"/><path d="m232.332031 318.21875c-13.238281-27.214844-30.445312-42.199219-48.460937-42.199219s-35.222656 14.984375-48.460938 42.199219c-.625 1.28125-.527344 2.800781.273438 3.984375.789062 1.1875 2.175781 1.964844 3.585937 1.769531 7.210938-.464844 25.648438-2.59375 41.070313-12.378906 2.035156-1.300781 5.019531-1.300781 7.070312 0 15.414063 9.785156 33.851563 11.914062 41.0625 12.378906.085938.007813.171875.007813.257813.007813 1.332031 0 2.582031-.660157 3.328125-1.777344.800781-1.183594.902344-2.703125.273437-3.984375zm0 0" fill="#cdf5a0"/><path d="m139.269531 323.972656c5.007813-.320312 15.441407-1.515625 26.503907-5.445312 3.648437-15.511719 8.800781-29.996094 15.179687-42.207032-16.941406 1.535157-33.023437 16.160157-45.542969 41.894532-.625 1.285156-.523437 2.804687.273438 3.988281.792968 1.1875 2.179687 1.964844 3.585937 1.769531zm0 0" fill="#b4e6a0"/><path d="m187.058594 80.824219c-.007813 0-.011719-.003907-.019532-.003907.003907.003907.007813.007813.011719.015626 0-.003907.003907-.007813.007813-.011719zm0 0"/><path d="m283.144531 95.386719c33.863281-15.199219 61.550781-39.78125 76.007813-67.464844.71875-1.382813 1.074218-2.953125.886718-4.5-.386718-3.179687-2.667968-5.660156-5.613281-6.40625-30.328125-7.664063-67.179687-3.320313-101.113281 11.90625v.003906c-27.355469 12.277344-50.679688 30.683594-66.253906 51.898438.066406.027343.125.058593-.007813.011719-.117187-.054688-.070312-.039063-.011719-.015626-15.671874-26.375-43.671874-49.894531-76.464843-64.613281-35.15625-15.78125-73.328125-20.300781-104.761719-12.398437-1.375.34375-2.671875 1.019531-3.660156 2.039062-2.34375 2.421875-2.761719 5.925782-1.304688 8.730469 14.964844 28.789063 43.746094 54.367187 78.957032 70.171875 23.800781 10.6875 48.984374 16.207031 72.527343 16.207031 8.257813 0 16.3125-.6875 24.039063-2.0625 0 7.484375-1.433594 14.898438-4.21875 21.84375l-52.8125 131.554688c-16.304688-2.761719-35.695313 5.417969-55.496094 23.636719-20.328125 18.703124-38.460938 45.558593-49.75 73.679687-25.640625 63.867187-4.996094 105.351563 26.839844 118.128906 7 2.8125 14.167968 4.179688 21.335937 4.179688 18.871094 0 37.75-9.488281 53.585938-27.15625 9.988281 46.15625 39.105469 67.238281 68.015625 67.238281 30.839844 0 61.914062-23.992188 69.75-76.824219 14.046875 13.601563 30.058594 20.765625 46.121094 20.765625 6.941406 0 13.890624-1.339844 20.695312-4.070312 17.441406-7 29.695312-21.820313 34.503906-41.730469 4.914063-20.351563 1.910156-45.066406-8.691406-71.472656-10.792969-26.890625-28.132812-52.570313-47.574219-70.453125-18.875-17.367188-37.375-25.210938-52.992187-22.691406l-54.3125-136.296876c7.050781 1.179688 14.375 1.773438 21.882812 1.773438 22.6875 0 46.960938-5.320312 69.890625-15.613281zm-162.335937-26.734375 35.59375 17.25c-22.53125.703125-47.144532-4.371094-70.457032-14.835938-28.511718-12.800781-52.304687-32.398437-66.703124-54.679687 26.214843-4.050781 56.671874.703125 85.1875 13.503906 22.882812 10.269531 42.707031 24.925781 57.09375 41.824219l-34.171876-16.5625c-3.726562-1.804688-8.214843-.25-10.023437 3.476562-1.804687 3.730469-.246094 8.214844 3.480469 10.023438zm63.0625 218.875c10.863281 0 22.089844 8.734375 31.792968 24.167968-6.230468-1.136718-14.957031-3.699218-22.511718-9.453124-5.464844-4.160157-13.097656-4.160157-18.5625 0-7.28125 5.546874-15.753906 8.121093-21.96875 9.324218.007812-.238281.011718-.472656 0-.707031 9.285156-14.429687 20.226562-23.332031 31.25-23.332031zm-7.5-137.039063v122.824219c-8.324219 1.746094-16.34375 6.390625-23.789063 13.699219-4.023437-13.257813-10.625-23.230469-19.320312-29.128907zm-55.355469 117.761719c9.449219 3.792969 16.242187 15.035156 19.304687 31.820312-5.046874-3.285156-11.523437-8.53125-15.914062-15.890624-3.445312-5.769532-10.378906-8.550782-16.855469-6.765626-8.304687 2.292969-16.613281 1.605469-22.519531.480469 13.363281-9.53125 26.226562-13.5625 35.984375-9.644531zm-8.144531 156.042969c-18.972656 27.585937-43.675782 38.628906-66.347656 29.527343-29.929688-12.015624-37.367188-51.648437-18.507813-98.621093 10.417969-25.960938 26.472656-49.390625 43.140625-65.601563 1.335938.527344 20.339844 7.804688 40.371094 2.273438 6.328125 10.601562 15.519531 17.683594 22.21875 21.808594-.671875 1.308593-1.339844 2.636718-1.992188 4.007812-12.402344 25.988281-19.515625 59.015625-19.515625 90.609375 0 5.570313.214844 10.898437.632813 15.996094zm219.460937-80.039063c9.429688 23.5 12.207031 45.0625 8.027344 62.367188-3.6875 15.277344-12.507813 26.109375-25.507813 31.328125-19.859374 7.972656-42.015624-.734375-59.441406-23.277344.0625-2.089844.097656-4.214844.097656-6.375 0-15.882813-1.871093-32.714844-5.40625-48.679687-.898437-4.042969-4.898437-6.601563-8.945312-5.699219-4.046875.894531-6.597656 4.898437-5.699219 8.945312 3.304688 14.914063 5.050781 30.625 5.050781 45.433594 0 53.054687-22.761718 88.703125-56.632812 88.703125-33.875 0-56.636719-35.648438-56.636719-88.703125 0-29.34375 6.503907-58.417969 16.4375-80.691406.035157.003906.074219.007812.113281.007812.90625 0 22.449219-.152343 39.890626-13.433593.109374-.082032.28125-.085938.386718 0 17.445313 13.28125 38.984375 13.433593 39.890625 13.433593.03125 0 .0625-.003906.09375-.003906.785157 1.765625 1.554688 3.582031 2.304688 5.453125 1.542969 3.84375 5.910156 5.710938 9.753906 4.167969s5.710937-5.910157 4.167969-9.753907c-3.183594-7.9375-6.707032-15.09375-10.507813-21.429687 6.441407-3.664063 16.539063-10.746094 23.316407-21.960937 18.503906 5 36.027343-1.308594 38.324218-2.1875 15.800782 15.433593 31.019532 37.699218 40.921875 62.355468zm-88.335937-82.804687c9.074218-3.640625 20.984375-.011719 33.410156 8.691406-5.542969.976563-13.074219 1.484375-20.59375-.589844-6.332031-1.746093-13.101562.976563-16.46875 6.613281-3.972656 6.652344-9.707031 11.46875-14.367188 14.59375 3.097657-15.378906 9.472657-25.878906 18.019532-29.308593zm-12.226563-10.328125c-9.277343 6.433594-16.03125 17.785156-19.710937 33.089844-6.554688-5.667969-13.515625-9.359376-20.6875-10.878907v-122.84375zm28.398438-185.671875c-1.730469-3.761719-6.183594-5.414063-9.949219-3.683594l-45.527344 20.925781c13.804688-16.191406 32.820313-30.234375 54.761719-40.082031 27.230469-12.222656 56.289063-16.800781 81.359375-13.035156-13.847656 21.234375-36.585938 39.90625-63.808594 52.128906-21.589844 9.691406-44.328125 14.554687-65.324218 14.285156l44.804687-20.589843c3.761719-1.730469 5.410156-6.183594 3.683594-9.949219zm0 0"/></svg>