<svg height="512pt" viewBox="0 -1 512 512" width="512pt" xmlns="http://www.w3.org/2000/svg"><path d="m218.171875 20.84375c-25.21875 14.15625-42.527344 36.246094-49.785156 59.875 23.953125 6.105469 51.824219 2.832031 77.042969-11.328125 21.449218-12.039063 37.171874-29.820313 45.863281-49.40625 2.433593-5.488281-1.105469-11.792969-7.058594-12.570313-21.246094-2.78125-44.613281 1.386719-66.0625 13.429688zm0 0" fill="#afdc82"/><path d="m284.234375 7.414062c-21.246094-2.78125-44.617187 1.386719-66.0625 13.429688-25.21875 14.15625-42.523437 36.246094-49.785156 59.875l122.53125-68.765625c-1.324219-2.367187-3.695313-4.148437-6.683594-4.539063zm0 0" fill="#96cd82"/><path d="m175.917969 119.746094c104.488281 0 168.171875 74.121094 168.171875 144.148437 0 70.03125-63.683594 144.152344-168.171875 144.152344-104.492188 0-168.175781-74.121094-168.175781-144.152344 0-70.027343 63.683593-144.148437 168.175781-144.148437zm0 0" fill="#ffaa5f"/><path d="m207.949219 359.4375c-104.488281 0-168.171875-74.121094-168.171875-144.152344 0-15.378906 3.242187-30.917968 9.144531-45.863281-26.527344 26.78125-41.179687 61.050781-41.179687 94.472656 0 70.03125 63.683593 144.152344 168.175781 144.152344 81.539062 0 138.058593-45.175781 159.027343-98.285156-29.050781 29.332031-72.378906 49.675781-126.996093 49.675781zm0 0" fill="#ff8c5a"/><path d="m344.089844 503.585938c-99.515625 0-160.164063-68.121094-160.164063-152.15625 0-84.035157 60.652344-152.160157 160.164063-152.160157 99.515625 0 160.167968 68.125 160.167968 152.160157 0 84.035156-60.652343 152.15625-160.167968 152.15625zm0 0" fill="#fff6d8"/><path d="m460.605469 320.914062c-2.734375-10.421874.246093-23.230468-5.144531-32.25-5.425782-9.078124-18.09375-12.46875-26.023438-19.679687-7.664062-6.96875-12.125-19.320313-21.953125-24.136719-9.140625-4.476562-21.683594-.652344-32.554687-2.933594-9.875-2.074218-19.644532-10.851562-30.839844-10.851562-11.195313 0-20.960938 8.777344-30.839844 10.851562-10.871094 2.28125-23.414062-1.546874-32.554688 2.933594-9.824218 4.816406-14.289062 17.167969-21.953124 24.136719-7.925782 7.210937-20.597657 10.601563-26.023438 19.679687-5.390625 9.019532-2.410156 21.828126-5.144531 32.25-2.625 10.019532-11.617188 19.597657-11.617188 30.515626 0 10.914062 8.992188 20.492187 11.617188 30.507812 2.730469 10.417969-.25 23.226562 5.140625 32.246094 5.425781 9.078125 18.09375 12.472656 26.023437 19.683594 7.660157 6.96875 12.125 19.320312 21.953125 24.136718 9.140625 4.480469 21.691406.65625 32.5625 2.941406 9.875 2.070313 19.640625 10.847657 30.835938 10.847657 11.195312 0 20.960937-8.777344 30.835937-10.847657 10.875-2.285156 23.421875 1.542969 32.5625-2.941406 9.828125-4.816406 14.292969-17.167968 21.953125-24.136718 7.929688-7.214844 20.597656-10.609376 26.023438-19.683594 5.390625-9.019532 2.410156-21.828125 5.140625-32.246094 2.625-10.015625 11.617187-19.597656 11.617187-30.507812 0-10.917969-8.992187-20.496094-11.617187-30.515626zm0 0" fill="#ff8087"/><path d="m371.046875 351.429688c0 4.460937-5.765625 7.421874-7.851563 11.027343-2.152343 3.714844-1.90625 10.164063-5.625 12.316407-3.601562 2.085937-9.015624-1.292969-13.476562-1.292969-4.464844 0-9.878906 3.378906-13.484375 1.292969-3.714844-2.152344-3.46875-8.601563-5.621094-12.316407-2.085937-3.605469-7.847656-6.5625-7.847656-11.027343 0-4.464844 5.761719-7.421876 7.847656-11.027344 2.152344-3.71875 1.90625-10.167969 5.625-12.316406 3.601563-2.085938 9.015625 1.289062 13.480469 1.289062 4.460938 0 9.875-3.375 13.480469-1.289062 3.714843 2.148437 3.46875 8.597656 5.621093 12.316406 2.085938 3.605468 7.851563 6.5625 7.851563 11.027344zm0 0" fill="#e6646e"/><path d="m460.605469 320.914062c-2.734375-10.421874.246093-23.230468-5.144531-32.25-5.425782-9.078124-18.09375-12.46875-26.023438-19.679687-7.664062-6.96875-12.125-19.320313-21.953125-24.136719-9.140625-4.476562-21.683594-.652344-32.554687-2.933594-9.875-2.074218-19.644532-10.851562-30.839844-10.851562-11.195313 0-20.960938 8.777344-30.839844 10.851562-10.871094 2.28125-23.414062-1.546874-32.554688 2.933594-9.824218 4.816406-14.289062 17.167969-21.953124 24.136719-7.925782 7.210937-20.597657 10.601563-26.023438 19.679687-5.390625 9.019532-2.410156 21.828126-5.144531 32.25-2.625 10.019532-11.617188 19.597657-11.617188 30.515626 0 10.914062 8.992188 20.492187 11.617188 30.507812 2.730469 10.417969-.25 23.226562 5.140625 32.246094 5.425781 9.078125 18.09375 12.472656 26.023437 19.683594 7.660157 6.96875 12.125 19.320312 21.953125 24.136718 9.140625 4.480469 21.691406.65625 32.5625 2.941406 9.875 2.070313 19.640625 10.847657 30.835938 10.847657 11.195312 0 20.960937-8.777344 30.835937-10.847657 10.875-2.285156 23.421875 1.542969 32.5625-2.941406 9.828125-4.816406 14.292969-17.167968 21.953125-24.136718 7.929688-7.214844 20.597656-10.609376 26.023438-19.683594 5.390625-9.019532 2.410156-21.828125 5.140625-32.246094 2.625-10.015625 11.617187-19.597656 11.617187-30.507812 0-10.917969-8.992187-20.496094-11.617187-30.515626zm-116.515625 118.605469c-57.613282 0-92.726563-39.4375-92.726563-88.089843 0-48.652344 35.113281-88.09375 92.726563-88.09375 57.613281 0 92.730468 39.441406 92.730468 88.09375 0 48.652343-35.117187 88.089843-92.730468 88.089843zm0 0" fill="#e6646e"/><path d="m466.988281 237.386719c-30.6875-30.617188-73.15625-46.800781-122.8125-46.800781-4.570312 0-9.101562.160156-13.582031.4375-29.6875-48.320313-84.296875-77.816407-147.53125-79.90625-.546875-7.347657-1.878906-14.195313-3.660156-20.460938 4.285156.53125 8.625.800781 12.988281.800781 19.269531 0 39.023437-5.152343 56.71875-15.085937 25.59375-14.371094 44.886719-37.621094 52.925781-63.785156.605469-1.964844.378906-4.085938-.628906-5.875-1.003906-1.789063-2.695312-3.089844-4.6875-3.597657-26.523438-6.761719-56.417969-2.394531-82.011719 11.972657-20.574219 11.554687-37.070312 28.847656-46.929687 48.777343-5.300782-8.898437-10.027344-14.109375-10.476563-14.597656-2.8125-3.039063-7.554687-3.226563-10.597656-.417969-3.042969 2.8125-3.230469 7.558594-.417969 10.601563.203125.21875 19.003906 20.933593 21.71875 51.6875-46.988281 1.683593-89.605468 18.480469-120.695312 47.746093-30.066406 28.300782-47.308594 66.171876-47.308594 103.890626 0 37.726562 17.242188 75.59375 47.308594 103.894531 32.808594 30.886719 78.457031 47.898437 128.53125 47.898437 4.292968 0 8.59375-.125 12.832031-.367187 7.609375 18.46875 18.609375 35.152343 32.691406 49.199219 30.691407 30.617187 73.160157 46.800781 122.816407 46.800781 49.652343 0 92.121093-16.183594 122.8125-46.800781 29.023437-28.953126 45.007812-69.085938 45.007812-113.003907 0-43.921875-15.984375-84.054687-45.011719-113.007812zm-244.941406-209.21875c19.65625-11.035157 42.113281-15.320313 62.816406-12.167969-8.089843 19.308594-23.441406 36.253906-43.097656 47.289062-19.65625 11.035157-42.113281 15.316407-62.8125 12.171876 8.089844-19.3125 23.441406-36.257813 43.09375-47.292969zm234.347656 424.613281c-27.816406 27.75-66.621093 42.417969-112.21875 42.417969-45.59375 0-84.398437-14.667969-112.21875-42.417969-26.183593-26.121094-40.601562-62.480469-40.601562-102.386719 0-59.632812 31.269531-108.742187 83.648437-131.367187 3.800782-1.640625 5.550782-6.054688 3.910156-9.855469-1.644531-3.804687-6.054687-5.554687-9.859374-3.914063-28.617188 12.363282-52.289063 32.457032-68.449219 58.109376-15.867188 25.179687-24.25 55.273437-24.25 87.027343 0 17.0625 2.421875 33.546875 7.074219 49.03125-2.523438.089844-5.058594.140625-7.589844.140625-46.238282 0-88.234375-15.5625-118.25-43.820312-27.066406-25.480469-42.589844-59.363282-42.589844-92.972656 0-33.601563 15.523438-67.488282 42.589844-92.96875 30.015625-28.257813 72.011718-43.820313 118.25-43.820313 58.238281 0 109.089844 24.796875 138 66.769531-3.8125.558594-7.574219 1.207032-11.273438 1.976563-4.054687.847656-6.65625 4.816406-5.8125 8.871093.84375 4.058594 4.820313 6.664063 8.871094 5.816407 12.210938-2.542969 25.183594-3.832031 38.554688-3.832031 45.59375 0 84.398437 14.667968 112.21875 42.417968 26.179687 26.121094 40.601562 62.484375 40.601562 102.390625 0 39.902344-14.421875 76.265625-40.605469 102.386719zm0 0"/><path d="m371.90625 337.855469c-.734375-.71875-1.851562-1.804688-2.117188-2.253907-.308593-.535156-.703124-2.058593-.996093-3.171874-.988281-3.796876-2.347657-8.992188-7.363281-11.894532-4.917969-2.847656-10.035157-1.464844-13.773438-.457031-1.222656.328125-2.75.742187-3.476562.742187-.730469 0-2.257813-.414062-3.484376-.742187-3.734374-1.007813-8.851562-2.386719-13.765624.453125-5.023438 2.90625-6.375 8.101562-7.367188 11.894531-.289062 1.113281-.6875 2.640625-.996094 3.171875-.265625.453125-1.382812 1.539063-2.121094 2.257813-2.6875 2.617187-6.746093 6.566406-6.746093 12.539062 0 5.96875 4.0625 9.917969 6.746093 12.535157.738282.71875 1.855469 1.804687 2.117188 2.257812.308594.53125.707031 2.058594 1 3.171875.988281 3.792969 2.34375 8.988281 7.363281 11.894531 4.917969 2.84375 10.035157 1.460938 13.769531.457032 1.230469-.332032 2.753907-.742188 3.484376-.742188.726562 0 2.253906.410156 3.476562.742188 2.078125.558593 4.585938 1.234374 7.246094 1.234374 2.121094 0 4.34375-.429687 6.523437-1.691406 5.019531-2.90625 6.375-8.101562 7.367188-11.894531.289062-1.113281.6875-2.640625.996093-3.171875.265626-.453125 1.378907-1.539062 2.117188-2.257812 2.6875-2.613282 6.75-6.566407 6.75-12.535157 0-5.972656-4.058594-9.921875-6.75-12.539062zm-10.460938 14.324219c-1.566406 1.527343-3.339843 3.253906-4.640624 5.496093-1.324219 2.292969-1.960938 4.738281-2.527344 6.894531-.167969.652344-.390625 1.503907-.609375 2.191407-.679688-.148438-1.484375-.367188-2.105469-.535157-2.1875-.589843-4.667969-1.257812-7.382812-1.257812-2.71875 0-5.199219.667969-7.386719 1.257812-.621094.167969-1.425781.386719-2.109375.535157-.214844-.6875-.4375-1.539063-.609375-2.191407-.5625-2.15625-1.199219-4.601562-2.527344-6.894531-1.296875-2.242187-3.070313-3.972656-4.640625-5.496093-.535156-.519532-1.25-1.214844-1.761719-1.785157.511719-.570312 1.226563-1.265625 1.761719-1.789062 1.570312-1.523438 3.34375-3.253907 4.640625-5.492188 1.328125-2.292969 1.96875-4.738281 2.53125-6.898437.167969-.652344.390625-1.5.609375-2.1875.679688.148437 1.484375.367187 2.101562.535156 2.191407.589844 4.671876 1.257812 7.390626 1.257812 2.714843 0 5.195312-.667968 7.382812-1.257812.621094-.167969 1.425781-.386719 2.109375-.535156.214844.6875.4375 1.539062.605469 2.191406.566406 2.15625 1.203125 4.605469 2.53125 6.894531 1.296875 2.242188 3.070312 3.96875 4.636718 5.492188.539063.523437 1.253907 1.21875 1.765626 1.789062-.511719.570313-1.226563 1.265625-1.765626 1.785157zm0 0"/><path d="m472.742188 328.429688c-1.972657-3.730469-3.835938-7.253907-4.683594-10.476563-.894532-3.425781-1.046875-7.503906-1.203125-11.820313-.261719-7.210937-.5625-15.382812-4.757813-22.402343-4.257812-7.128907-11.410156-11.269531-17.71875-14.921875-3.675781-2.128906-7.144531-4.140625-9.722656-6.480469-2.421875-2.203125-4.667969-5.398437-7.042969-8.78125-4.222656-6.003906-9.003906-12.808594-16.675781-16.566406-6.925781-3.394531-14.449219-3.191407-21.71875-3-4.566406.125-8.878906.242187-12.640625-.546875-3.179687-.667969-6.789063-2.453125-10.605469-4.34375-6.328125-3.132813-13.5-6.679688-21.796875-6.679688s-15.472656 3.546875-21.800781 6.679688c-3.816406 1.890625-7.425781 3.675781-10.609375 4.34375-3.757813.789062-8.074219.671875-12.636719.546875-7.269531-.191407-14.789062-.394531-21.710937 2.996093-7.671875 3.761719-12.453125 10.566407-16.675781 16.570313-2.375 3.378906-4.621094 6.574219-7.042969 8.773437-2.574219 2.34375-6.046875 4.355469-9.722657 6.480469-6.304687 3.652344-13.457031 7.792969-17.714843 14.917969-4.199219 7.019531-4.496094 15.195312-4.761719 22.40625-.15625 4.316406-.308594 8.394531-1.203125 11.820312-.847656 3.222657-2.710937 6.75-4.683594 10.480469-3.371093 6.375-7.195312 13.605469-7.195312 21.96875 0 8.359375 3.820312 15.585938 7.195312 21.960938 1.972657 3.734375 3.835938 7.257812 4.679688 10.480469.898437 3.425781 1.046875 7.503906 1.207031 11.820312.261719 7.210938.5625 15.382812 4.757812 22.402344 4.257813 7.125 11.40625 11.269531 17.714844 14.921875 3.675782 2.128906 7.148438 4.140625 9.722656 6.480469 2.421876 2.203124 4.667969 5.394531 7.046876 8.777343 4.21875 6.003907 9.003906 12.8125 16.675781 16.570313 6.921875 3.394531 14.441406 3.191406 21.71875 2.996094 4.5625-.121094 8.878906-.234376 12.636719.550781 3.183593.667969 6.789062 2.453125 10.609374 4.34375 6.328126 3.132812 13.5 6.679687 21.796876 6.679687 8.296874 0 15.46875-3.550781 21.800781-6.679687 3.816406-1.890625 7.425781-3.675781 10.609375-4.34375 3.757812-.789063 8.070312-.671875 12.632812-.550781 7.277344.199218 14.792969.398437 21.714844-2.992188 3.71875-1.824219 5.253906-6.316406 3.433594-10.035156-1.824219-3.71875-6.316406-5.257813-10.035156-3.433594-3.609376 1.765625-9 1.621094-14.707032 1.46875-5.230468-.140625-10.636718-.285156-16.117187.863281-5.046875 1.058594-9.691407 3.355469-14.183594 5.578125-5.328125 2.632813-10.359375 5.125-15.148437 5.125-4.789063 0-9.820313-2.488281-15.144532-5.125-4.492187-2.222656-9.136718-4.519531-14.183594-5.578125-5.480468-1.152343-10.890624-1.007812-16.117187-.863281-5.710937.152344-11.105469.296875-14.714844-1.472656-4.214843-2.066406-7.511719-6.757813-11.007812-11.726563-2.738281-3.898437-5.574219-7.933593-9.222657-11.25-3.761718-3.421875-8.101562-5.9375-12.296874-8.367187-5.191407-3.003906-10.09375-5.84375-12.359376-9.632813-2.222656-3.71875-2.425781-9.324219-2.644531-15.257812-.179687-4.9375-.367187-10.046875-1.683593-15.074219-1.285157-4.898438-3.648438-9.367188-5.933594-13.6875-2.800782-5.304688-5.449219-10.3125-5.449219-14.953125s2.648437-9.648437 5.453125-14.957031c2.285156-4.316406 4.648438-8.785156 5.933594-13.683594 1.316406-5.03125 1.503906-10.136719 1.683594-15.078125.21875-5.933594.421874-11.539063 2.648437-15.257813 2.261719-3.789062 7.164063-6.628906 12.355469-9.632812 4.199218-2.429688 8.539062-4.941406 12.300781-8.367188 3.648437-3.316406 6.480469-7.347656 9.222656-11.246093 3.492188-4.964844 6.789063-9.660157 11.003907-11.726563 3.605468-1.765625 8.996093-1.621094 14.707031-1.46875 5.226562.144532 10.636719.289063 16.117187-.863281 5.046875-1.058594 9.691406-3.355469 14.183594-5.578125 5.328125-2.636719 10.359375-5.125 15.148438-5.125 4.789062 0 9.816406 2.488281 15.140624 5.125 4.492188 2.222656 9.136719 4.519531 14.183594 5.578125 5.480469 1.148437 10.890625 1.003906 16.121094.863281 5.714844-.152344 11.105469-.296875 14.714844 1.472656 4.214844 2.066407 7.511718 6.757813 11.003906 11.726563 2.742188 3.898437 5.574219 7.929687 9.222656 11.25 3.761719 3.421875 8.105469 5.933594 12.300782 8.363281 5.191406 3.007813 10.09375 5.847656 12.359374 9.636719 2.222657 3.71875 2.425782 9.324219 2.640626 15.257813.183593 4.9375.367187 10.046874 1.6875 15.074218 1.285156 4.898438 3.644531 9.367188 5.929687 13.6875 2.804687 5.304688 5.453125 10.3125 5.453125 14.949219 0 4.644531-2.648438 9.652344-5.453125 14.957031-2.285156 4.320313-4.648437 8.789063-5.933594 13.6875-1.316406 5.027344-1.503906 10.136719-1.683593 15.078125-.21875 5.933594-.425782 11.539063-2.648438 15.257813-2.265625 3.789062-7.167969 6.628906-12.355469 9.632812-4.199219 2.429688-8.539062 4.941406-12.300781 8.367188-3.0625 2.785156-3.289062 7.527344-.5 10.59375 2.785156 3.0625 7.527344 3.289062 10.59375.5 2.574219-2.339844 6.046875-4.351563 9.722656-6.480469 6.308594-3.648437 13.457032-7.789063 17.71875-14.914063 4.195313-7.023437 4.496094-15.199218 4.757813-22.410156.160156-4.316406.308593-8.394531 1.207031-11.820312.84375-3.222656 2.707031-6.746094 4.683594-10.476563 3.371094-6.378906 7.191406-13.605469 7.191406-21.96875s-3.824219-15.589843-7.195312-21.964843zm0 0"/></svg>