<svg height="512pt" viewBox="0 -12 512.001 512" width="512pt" xmlns="http://www.w3.org/2000/svg"><path d="m151.789062 7.5c-13.28125 0-24.675781 12.921875-29.542968 31.34375l59.273437.722656c-4.753906-18.804687-16.273437-32.066406-29.730469-32.066406zm0 0" fill="#c48d66"/><path d="m151.789062 31.546875c97.398438 0 144.289063 75.371094 144.289063 168.339844 0 92.972656-46.890625 168.339843-144.289063 168.339843-97.398437 0-144.289062-75.367187-144.289062-168.339843 0-92.96875 46.890625-168.339844 144.289062-168.339844zm0 0" fill="#d29b6e"/><path d="m222.695312 326.511719c-96.40625 13.886719-153.5625-54.027344-166.816406-146.050781-7.171875-49.804688.132813-96.359376 23.496094-130.890626-48.261719 27.6875-71.875 84.515626-71.875 150.316407 0 92.972656 46.890625 168.339843 144.289062 168.339843 50.585938 0 87.425782-20.441406 111.269532-53.007812-12.078125 5.1875-25.40625 9.136719-40.363282 11.292969zm0 0" fill="#c48d66"/><path d="m504.5 328.144531c0 84.117188-68.191406 152.308594-152.304688 152.308594-84.117187 0-152.308593-68.191406-152.308593-152.308594 0-84.117187 68.191406-152.304687 152.308593-152.304687 84.113282 0 152.304688 68.1875 152.304688 152.304687zm0 0" fill="#afdc82"/><path d="m480.453125 328.144531c0 70.835938-57.425781 128.257813-128.257813 128.257813-70.835937 0-128.257812-57.421875-128.257812-128.257813 0-70.832031 57.421875-128.257812 128.257812-128.257812 70.832032 0 128.257813 57.425781 128.257813 128.257812zm0 0" fill="#cdf5a0"/><path d="m392.273438 328.144531c0 22.136719-17.941407 40.082031-40.078126 40.082031-22.136718 0-40.082031-17.945312-40.082031-40.082031s17.945313-40.078125 40.082031-40.078125c22.136719 0 40.078126 17.941406 40.078126 40.078125zm0 0" fill="#f0ffc3"/><path d="m352.191406 168.339844c-16.894531 0-33.679687 2.699218-49.636718 7.898437-3.742188-42.601562-17.664063-78.851562-40.484376-105.21875-19.246093-22.234375-44.53125-36.878906-74.296874-43.277343-6.410157-16.9375-20.296876-27.742188-35.984376-27.742188-15.621093 0-29.566406 10.820312-35.984374 27.734375-32.042969 6.875-58.816407 23.292969-78.585938 48.492187-24.347656 31.039063-37.21875 73.800782-37.21875 123.660157 0 49.863281 12.871094 92.625 37.21875 123.664062 26.777344 34.132813 66.398438 52.175781 114.570312 52.175781 16.351563 0 31.8125-2.070312 46.054688-6.15625 18.292969 68.101563 80.554688 118.382813 154.351562 118.382813 88.117188 0 159.804688-71.691406 159.804688-159.804687 0-88.117188-71.6875-159.808594-159.808594-159.808594zm-200.402344-153.339844c6.75 0 13.046876 3.679688 17.597657 9.898438-5.734375-.558594-11.597657-.851563-17.597657-.851563-5.988281 0-11.84375.28125-17.558593.835937 4.554687-6.199218 10.851562-9.882812 17.558593-9.882812zm200.402344 457.953125c-79.84375 0-144.804687-64.960937-144.804687-144.804687 0-41.6875 17.988281-81.378907 49.351562-108.894532 3.113281-2.730468 3.421875-7.46875.691407-10.582031-2.734376-3.117187-7.472657-3.425781-10.585938-.691406-34.609375 30.363281-54.457031 74.160156-54.457031 120.167969 0 9.101562.777343 18.023437 2.246093 26.714843-13.148437 3.878907-27.53125 5.863281-42.84375 5.863281-43.398437 0-78.9375-16.054687-102.765624-46.433593-22.257813-28.375-34.023438-67.933594-34.023438-114.40625 0-46.472657 11.765625-86.03125 34.023438-114.402344 23.828124-30.378906 59.367187-46.4375 102.765624-46.4375 41.652344 0 74.941407 14.0625 98.941407 41.789063 21.480469 24.820312 34.316406 59.679687 37.21875 100.96875-4.054688 1.777343-8.042969 3.710937-11.933594 5.828124-3.640625 1.976563-4.988281 6.527344-3.011719 10.167969 1.976563 3.640625 6.53125 4.988281 10.171875 3.011719 21.042969-11.429688 44.910157-17.472656 69.015625-17.472656 79.847656 0 144.808594 64.960937 144.808594 144.808594 0 79.84375-64.960938 144.804687-144.808594 144.804687zm0 0"/><path d="m440.371094 320.644531h-41.191406c-.191407-1.199219-.4375-2.378906-.714844-3.546875l20.726562-8.585937c3.828125-1.585938 5.644532-5.972657 4.0625-9.800781-1.585937-3.824219-5.976562-5.640626-9.800781-4.058594l-20.738281 8.589844c-.632813-1.027344-1.308594-2.023438-2.015625-3l29.148437-29.144532c2.929688-2.929687 2.929688-7.679687 0-10.605468-2.929687-2.929688-7.675781-2.929688-10.605468 0l-29.148438 29.144531c-.972656-.707031-1.972656-1.382813-2.996094-2.015625l8.589844-20.734375c1.582031-3.828125-.234375-8.214844-4.058594-9.800781-3.828125-1.585938-8.214844.234374-9.800781 4.058593l-8.585937 20.730469c-1.167969-.28125-2.347657-.523438-3.546876-.714844v-41.191406c0-4.144531-3.359374-7.5-7.5-7.5-4.144531 0-7.5 3.355469-7.5 7.5v41.191406c-1.199218.191406-2.382812.433594-3.550781.714844l-8.585937-20.730469c-1.582032-3.824219-5.972656-5.644531-9.796875-4.058593-3.828125 1.585937-5.644531 5.972656-4.058594 9.800781l8.585937 20.734375c-1.023437.632812-2.023437 1.308594-2.996093 2.015625l-29.148438-29.144531c-2.925781-2.929688-7.675781-2.933594-10.605469 0-2.929687 2.925781-2.929687 7.675781 0 10.605468l29.148438 29.144532c-.707031.972656-1.382812 1.972656-2.015625 3l-20.738281-8.589844c-3.824219-1.585938-8.210938.230468-9.796875 4.058594-1.585938 3.828124.230469 8.214843 4.058593 9.800781l20.726563 8.585937c-.277344 1.167969-.523437 2.347656-.710937 3.546875h-41.195313c-4.140625 0-7.5 3.359375-7.5 7.5s3.359375 7.5 7.5 7.5h41.195313c.191406 1.199219.433593 2.378907.710937 3.546875l-20.726563 8.585938c-3.828124 1.585937-5.644531 5.972656-4.058593 9.800781 1.195312 2.886719 3.988281 4.628906 6.929687 4.628906.957032 0 1.929688-.183593 2.867188-.570312l20.738281-8.589844c.632813 1.027344 1.308594 2.023437 2.015625 2.996094l-29.148438 29.148437c-2.929687 2.929688-2.929687 7.679688 0 10.605469 1.464844 1.464844 3.386719 2.199219 5.304688 2.199219s3.839844-.734375 5.300781-2.199219l29.148438-29.144531c.972656.707031 1.972656 1.378906 2.996093 2.015625l-8.589843 20.734375c-1.582031 3.828125.234375 8.214844 4.0625 9.800781.9375.386719 1.910156.570313 2.867187.570313 2.941406 0 5.734375-1.742188 6.929688-4.632813l8.585937-20.726563c1.167969.28125 2.347657.523438 3.546875.714844v41.191406c0 4.140626 3.359375 7.5 7.5 7.5 4.144532 0 7.5-3.359374 7.5-7.5v-41.191406c1.199219-.191406 2.382813-.433594 3.546875-.714844l8.585938 20.726563c1.199219 2.890625 3.992187 4.632813 6.933593 4.632813.957032 0 1.929688-.183594 2.867188-.570313 3.828125-1.585937 5.644531-5.976563 4.058594-9.800781l-8.589844-20.734375c1.027344-.632813 2.023438-1.308594 3-2.015625l29.144531 29.144531c1.464844 1.464844 3.382813 2.199219 5.304688 2.199219 1.917969 0 3.839843-.734375 5.300781-2.199219 2.929688-2.929687 2.929688-7.675781 0-10.605469l-29.144531-29.144531c.707031-.972656 1.382812-1.972656 2.015625-3l20.738281 8.589844c.9375.390625 1.910156.574219 2.867187.574219 2.941407 0 5.734376-1.746094 6.929688-4.632813 1.585938-3.828125-.230469-8.214844-4.058594-9.796875l-20.726562-8.585938c.277344-1.167968.523437-2.351562.710937-3.546874h41.195313c4.140625 0 7.5-3.359376 7.5-7.5 0-4.144532-3.359375-7.503907-7.5-7.503907zm-88.179688 40.082031c-17.964844 0-32.578125-14.613281-32.578125-32.582031 0-17.964843 14.613281-32.578125 32.578125-32.578125s32.582032 14.613282 32.582032 32.578125c0 17.96875-14.613282 32.582031-32.582032 32.582031zm0 0"/></svg>