<svg height="512pt" viewBox="0 -92 512.00087 512" width="512pt" xmlns="http://www.w3.org/2000/svg"><path d="m344.160156 135.761719c0-3.328125-.167968-6.691407-.535156-10.09375-4.359375-40.164063-36.136719-72.855469-75.347656-77.484375-12.890625-1.519532-25.300782-.125-36.671875 3.628906-18.042969 5.949219-36.910157 8.925781-55.78125 8.925781-18.871094 0-37.742188-2.976562-55.78125-8.925781-11.375-3.753906-23.78125-5.148438-36.671875-3.628906-39.210938 4.628906-70.988282 37.320312-75.347656 77.484375-.367188 3.402343-.535157 6.765625-.535157 10.09375s.167969 6.691406.535157 10.097656c4.359374 40.160156 36.136718 72.851563 75.347656 77.480469 12.890625 1.519531 25.300781.125 36.671875-3.625 18.042969-5.953125 36.910156-8.925782 55.78125-8.925782 18.871093 0 37.742187 2.972657 55.78125 8.925782 11.375 3.75 23.78125 5.144531 36.671875 3.625 39.210937-4.628906 70.988281-37.320313 75.347656-77.480469.367188-3.40625.535156-6.769531.535156-10.097656zm0 0" fill="#ff8c5a"/><path d="m296.753906 191.273438c-13.507812 1.523437-26.503906.125-38.421875-3.625-18.898437-5.953126-38.667969-8.925782-58.4375-8.925782s-39.535156 2.972656-58.4375 8.925782c-11.914062 3.753906-24.910156 5.148437-38.417969 3.625-41.078124-4.628907-74.371093-37.320313-78.933593-77.480469-.386719-3.402344-.5625-6.769531-.5625-10.097657 0-3.324218.175781-6.691406.5625-10.09375.511719-4.527343 1.441406-8.941406 2.65625-13.246093-10.121094 12.746093-16.898438 28.34375-18.738281 45.3125-.367188 3.402343-.535157 6.769531-.535157 10.09375 0 3.328125.167969 6.691406.535157 10.097656 4.359374 40.160156 36.136718 72.851563 75.347656 77.480469 12.890625 1.523437 25.300781.125 36.671875-3.625 18.042969-5.953125 36.910156-8.925782 55.78125-8.925782 18.871093 0 37.742187 2.972657 55.78125 8.925782 11.375 3.753906 23.78125 5.148437 36.671875 3.625 27.652344-3.261719 51.5625-20.519532 64.808594-44.480469-10.863282 6.550781-23.191407 10.933594-36.332032 12.414063zm0 0" fill="#ff7350"/><path d="m504.515625 231.960938c0-3.328126-.167969-6.691407-.539063-10.09375-4.355468-40.164063-36.136718-72.855469-75.347656-77.484376-12.890625-1.519531-25.296875-.125-36.671875 3.628907-18.039062 5.949219-36.910156 8.925781-55.78125 8.925781-18.871093 0-37.738281-2.976562-55.78125-8.925781-11.371093-3.753907-23.777343-5.148438-36.671875-3.628907-39.207031 4.628907-70.988281 37.320313-75.34375 77.484376-.371094 3.402343-.539062 6.765624-.539062 10.09375 0 3.328124.167968 6.691406.539062 10.097656 4.355469 40.160156 36.136719 72.851562 75.34375 77.480468 12.894532 1.519532 25.300782.125 36.671875-3.625 18.042969-5.953124 36.910157-8.925781 55.78125-8.925781 18.871094 0 37.742188 2.972657 55.78125 8.925781 11.375 3.75 23.78125 5.144532 36.671875 3.625 39.210938-4.628906 70.992188-37.320312 75.347656-77.480468.367188-3.40625.539063-6.769532.539063-10.097656zm0 0" fill="#fff6d8"/><path d="m388.273438 199.894531c0-26.5625-23.328126-48.097656-52.105469-48.097656-28.78125 0-52.109375 21.535156-52.109375 48.097656 0 26.566407 23.328125 48.101563 52.109375 48.101563 28.777343 0 52.105469-21.535156 52.105469-48.101563zm0 0" fill="#d29b6e"/><path d="m350.195312 233.964844c-28.777343 0-52.109374-21.535156-52.109374-48.097656 0-9.140626 2.8125-17.660157 7.613281-24.933594-13.089844 8.734375-21.640625 22.910156-21.640625 38.960937 0 26.566407 23.328125 48.101563 52.109375 48.101563 18.875 0 35.351562-9.296875 44.496093-23.167969-8.574218 5.726563-19.078124 9.136719-30.46875 9.136719zm0 0" fill="#c48d66"/><path d="m511.421875 221.058594c-4.738281-43.699219-39.195313-79.078125-81.921875-84.121094-13.648438-1.609375-27.074219-.28125-39.902344 3.953125-10.320312 3.402344-21.039062 5.804687-31.890625 7.175781-2.136719-.773437-4.328125-1.449218-6.574219-1.996094.730469-6.996093.730469-14.109374-.042968-21.210937-4.738282-43.699219-39.191406-79.078125-81.921875-84.121094-13.648438-1.609375-27.070313-.28125-39.902344 3.953125-14.863281 4.902344-30.378906 7.6875-45.984375 8.359375-1.015625-25.097656-16.554688-48.6875-17.238281-49.714843-2.292969-3.441407-6.945313-4.371094-10.390625-2.078126-3.445313 2.289063-4.382813 6.945313-2.097656 10.394532.144531.214844 13.632812 20.792968 14.703124 41.390625-15.558593-.683594-31.03125-3.460938-45.855468-8.351563-12.832032-4.234375-26.257813-5.5625-39.898438-3.953125-42.730468 5.042969-77.183594 40.421875-81.925781 84.121094-3 27.667969 5.753906 55.207031 24.015625 75.558594 17.695312 19.71875 42.855469 31.027343 69.027344 31.027343 9.144531 0 18.1875-1.347656 26.875-4.003906 13.285156-4.0625 26.902344-6.636718 40.589844-7.722656-.054688.445312-.125.890625-.175782 1.339844-3 27.667968 5.753906 55.207031 24.015625 75.558594 17.699219 19.71875 42.855469 31.027343 69.023438 31.027343 9.148437 0 18.191406-1.347656 26.878906-4.003906 36.203125-11.070313 74.476563-11.070313 110.679687 0 8.6875 2.65625 17.726563 4.003906 26.875 4.003906 26.171876 0 51.328126-11.308593 69.023438-31.03125 18.261719-20.347656 27.015625-47.886719 24.015625-75.554687zm-175.253906 19.433594c-3.640625 0-12.542969-14.226563-12.542969-40.597657 0-5.136719.355469-10.164062 1.058594-14.9375.605468-4.097656-2.226563-7.910156-6.324219-8.515625-4.089844-.601562-7.910156 2.230469-8.515625 6.328125-.808594 5.496094-1.21875 11.257813-1.21875 17.125 0 13.171875 2.085938 25.6875 5.882812 35.472657-13.675781-6.945313-22.949218-20.238282-22.949218-35.472657 0-22.386719 20.011718-40.601562 44.605468-40.601562 1.226563 0 4.769532 2.726562 7.910157 11.152343 1.125 3.019532 3.988281 4.882813 7.027343 4.882813.871094 0 1.757813-.152344 2.621094-.472656 3.882813-1.449219 5.855469-5.769531 4.40625-9.648438-.101562-.269531-.203125-.523437-.304687-.789062 13.671875 6.945312 22.949219 20.238281 22.949219 35.476562 0 22.386719-20.011719 40.597657-44.605469 40.597657zm140.074219 46.105468c-14.855469 16.550782-35.945313 26.046875-57.859376 26.046875-7.660156 0-15.226562-1.125-22.492187-3.347656-17.101563-5.230469-34.636719-8.171875-52.222656-8.820313v-12.398437c0-4.144531-3.359375-7.5-7.5-7.5-4.144531 0-7.503907 3.355469-7.503907 7.5v12.398437c-17.585937.648438-35.117187 3.589844-52.222656 8.820313-7.265625 2.222656-14.832031 3.347656-22.492187 3.347656-21.914063 0-43.003907-9.496093-57.859375-26.046875-15.417969-17.183594-22.808594-40.484375-20.265625-63.921875 3.992187-36.816406 32.914062-66.609375 68.769531-70.839843 1.296875-.15625 2.609375-.277344 3.90625-.367188 4.132812-.285156 7.25-3.867188 6.964844-7.996094-.28125-4.136718-3.902344-7.25-7.996094-6.96875-1.539062.105469-3.097656.25-4.632812.433594-37.171876 4.386719-68.066407 31.730469-78.601563 67.535156-16.230469.9375-32.398437 3.816406-48.125 8.625-7.261719 2.222656-14.832031 3.347656-22.488281 3.347656-21.917969 0-43.007813-9.492187-57.859375-26.046874-15.421875-17.183594-22.8125-40.480469-20.269531-63.921876 3.996093-36.816406 32.914062-66.609374 68.769531-70.839843 11.453125-1.355469 22.707031-.242188 33.445312 3.300781 37.480469 12.363281 78.773438 12.363281 116.257813 0 10.738281-3.542969 21.992187-4.652344 33.445312-3.300781 35.855469 4.230469 64.773438 34.023437 68.769532 70.839843.644531 5.972657.65625 11.949219.058593 17.820313-.023437 0-.046875 0-.070312 0-7.597657 0-14.855469 1.347656-21.542969 3.773437-10.851562-1.371093-21.570312-3.777343-31.890625-7.179687-3.933594-1.300781-8.171875.839844-9.46875 4.773437-1.300781 3.933594.835937 8.175782 4.769531 9.472657 5.535156 1.824219 11.175782 3.378906 16.886719 4.675781-11.304687 10.125-18.363281 24.34375-18.363281 40.085938 0 30.453124 26.394531 55.257812 58.964844 55.582031.21875.011719.4375.015625.644531.015625 32.867187 0 59.605469-24.941406 59.605469-55.597656 0-15.742188-7.058594-29.964844-18.367188-40.085938 5.710938-1.296875 11.355469-2.851562 16.890625-4.675781 10.734375-3.542969 21.988281-4.652344 33.441406-3.300781 35.855469 4.230468 64.777344 34.023437 68.769531 70.84375 2.542969 23.433593-4.84375 46.730468-20.265624 63.917968zm0 0"/><path d="m355.410156 184.398438c-4.132812.289062-7.25 3.871093-6.960937 8.003906.171875 2.460937.257812 4.980468.257812 7.492187 0 4.144531 3.355469 7.5 7.5 7.5s7.5-3.355469 7.5-7.5c0-2.859375-.097656-5.730469-.292969-8.535156-.289062-4.132813-3.875-7.257813-8.003906-6.960937zm0 0"/></svg>