<svg height="511pt" viewBox="-56 0 511 511.99826" width="511pt" xmlns="http://www.w3.org/2000/svg"><path d="m280.546875 247.984375c0 70.835937-57.421875 128.257813-128.257813 128.257813-70.835937 0-128.257812-57.421876-128.257812-128.257813 0-70.832031 57.421875-128.253906 128.257812-128.253906 70.835938 0 128.257813 57.421875 128.257813 128.253906zm0 0" fill="#e6ffaa"/><path d="m188.363281 340.171875c-70.835937 0-128.257812-57.421875-128.257812-128.257813 0-26.191406 7.886719-50.523437 21.363281-70.820312-34.601562 22.96875-57.4375 62.246094-57.4375 106.890625 0 70.835937 57.421875 128.257813 128.257812 128.257813 44.644532 0 83.921876-22.835938 106.894532-57.433594-20.300782 13.472656-44.628906 21.363281-70.820313 21.363281zm0 0" fill="#cdf5a0"/><path d="m392.773438 400.292969c0 57.550781-46.65625 104.207031-104.210938 104.207031s-104.210938-46.65625-104.210938-104.207031c0-57.554688 46.65625-104.210938 104.210938-104.210938s104.210938 46.65625 104.210938 104.210938zm0 0" fill="#be4150"/><path d="m312.613281 480.453125c-57.554687 0-104.210937-46.65625-104.210937-104.210937 0-22.632813 7.292968-43.519532 19.550781-60.609376-26.363281 18.910157-43.597656 49.738282-43.597656 84.660157 0 57.550781 46.65625 104.207031 104.207031 104.207031 34.921875 0 65.75-17.234375 84.660156-43.597656-17.089844 12.257812-37.976562 19.550781-60.609375 19.550781zm0 0" fill="#a03c4b"/><path d="m360.707031 316.121094c0-11.066406-32.300781-20.039063-72.144531-20.039063s-72.144531 8.972657-72.144531 20.039063c0 11.070312 32.300781 20.042968 72.144531 20.042968s72.144531-8.972656 72.144531-20.042968zm0 0" fill="#ffe1a0"/><path d="m312.613281 320.132812c-38.539062 0-69.925781-8.402343-71.949219-18.964843-14.84375 3.667969-24.246093 9-24.246093 14.953125 0 11.070312 32.300781 20.042968 72.144531 20.042968s72.144531-8.972656 72.144531-20.042968c0-.359375-.125-.714844-.195312-1.074219-12.746094 3.152344-29.492188 5.085937-47.898438 5.085937zm0 0" fill="#f7d291"/><path d="m115.84375 179.601562c1.199219 2.890626 3.992188 4.632813 6.933594 4.632813.957031 0 1.929687-.1875 2.867187-.574219 3.828125-1.585937 5.644531-5.972656 4.058594-9.796875l-3.6875-8.910156c-1.585937-3.824219-5.972656-5.640625-9.800781-4.058594-3.824219 1.585938-5.644532 5.972657-4.058594 9.800781zm0 0"/><path d="m178.5625 331.015625c1.199219 2.890625 3.992188 4.632813 6.933594 4.632813.957031 0 1.929687-.183594 2.867187-.570313 3.828125-1.585937 5.644531-5.972656 4.058594-9.800781l-3.6875-8.90625c-1.585937-3.828125-5.972656-5.644532-9.800781-4.0625-3.824219 1.585937-5.644532 5.972656-4.058594 9.800781zm0 0"/><path d="m239.378906 211.914062c-1.585937-3.828124-5.96875-5.644531-9.796875-4.0625l-8.90625 3.691407c-3.828125 1.585937-5.644531 5.972656-4.058593 9.796875 1.195312 2.890625 3.988281 4.632812 6.929687 4.632812.957031 0 1.929687-.183594 2.867187-.570312l8.90625-3.691406c3.828126-1.585938 5.644532-5.972657 4.058594-9.796876zm0 0"/><path d="m78.164062 270.570312-8.90625 3.691407c-3.824218 1.582031-5.644531 5.96875-4.058593 9.796875 1.195312 2.890625 3.988281 4.632812 6.933593 4.632812.957032 0 1.929688-.183594 2.867188-.574218l8.90625-3.6875c3.828125-1.585938 5.644531-5.972657 4.058594-9.800782-1.585938-3.824218-5.972656-5.640625-9.800782-4.058594zm0 0"/><path d="m188.363281 160.894531c-3.828125-1.582031-8.214843.234375-9.800781 4.058594l-3.6875 8.910156c-1.585938 3.824219.230469 8.214844 4.058594 9.796875.9375.390625 1.910156.574219 2.867187.574219 2.945313 0 5.738281-1.746094 6.933594-4.632813l3.6875-8.90625c1.585937-3.828124-.230469-8.214843-4.058594-9.800781zm0 0"/><path d="m116.214844 335.074219c.941406.390625 1.910156.574219 2.867187.574219 2.945313 0 5.738281-1.742188 6.933594-4.632813l3.6875-8.90625c1.585937-3.828125-.230469-8.214844-4.058594-9.796875-3.828125-1.589844-8.214843.230469-9.800781 4.058594l-3.6875 8.90625c-1.585938 3.828125.234375 8.214844 4.058594 9.796875zm0 0"/><path d="m235.320312 274.261719-8.90625-3.691407c-3.828124-1.585937-8.214843.230469-9.800781 4.0625-1.585937 3.824219.234375 8.210938 4.058594 9.796876l8.910156 3.691406c.9375.386718 1.910157.570312 2.863281.570312 2.945313 0 5.738282-1.742187 6.933594-4.632812 1.585938-3.828125-.230468-8.210938-4.058594-9.796875zm0 0"/><path d="m83.90625 211.542969-8.90625-3.6875c-3.832031-1.589844-8.214844.230469-9.800781 4.058593-1.585938 3.828126.234375 8.214844 4.058593 9.796876l8.90625 3.691406c.941407.390625 1.914063.570312 2.867188.570312 2.945312 0 5.738281-1.742187 6.933594-4.628906 1.585937-3.828125-.230469-8.214844-4.058594-9.800781zm0 0"/><path d="m159.789062 215.921875c0-4.144531-3.359374-7.5-7.5-7.5-4.140624 0-7.5 3.355469-7.5 7.5v3.5625c0 4.144531 3.359376 7.5 7.5 7.5 4.140626 0 7.5-3.355469 7.5-7.5zm0 0"/><path d="m152.289062 268.988281c-4.140624 0-7.5 3.355469-7.5 7.5v3.5625c0 4.140625 3.359376 7.5 7.5 7.5 4.140626 0 7.5-3.359375 7.5-7.5v-3.5625c0-4.144531-3.359374-7.5-7.5-7.5zm0 0"/><path d="m184.355469 255.484375c4.140625 0 7.5-3.355469 7.5-7.5 0-4.140625-3.359375-7.5-7.5-7.5h-3.5625c-4.144531 0-7.5 3.359375-7.5 7.5 0 4.144531 3.355469 7.5 7.5 7.5zm0 0"/><path d="m123.789062 240.484375h-3.5625c-4.144531 0-7.5 3.359375-7.5 7.5 0 4.144531 3.355469 7.5 7.5 7.5h3.5625c4.140626 0 7.5-3.355469 7.5-7.5 0-4.140625-3.359374-7.5-7.5-7.5zm0 0"/><path d="m367.277344 321.039062c.609375-1.570312.929687-3.207031.929687-4.917968 0-21.738282-50.0625-27.539063-79.644531-27.539063-2.144531 0-4.398438.03125-6.726562.097657 3.375-10.75 5.386718-21.859376 6-33.195313h8.742187c4.140625 0 7.5-3.355469 7.5-7.5s-3.359375-7.5-7.5-7.5h-8.742187c-.710938-12.871094-3.257813-25.464844-7.457032-37.4375l8.085938-3.351563c3.828125-1.582031 5.644531-5.972656 4.058594-9.796874-1.585938-3.828126-5.972657-5.648438-9.796876-4.058594l-8.085937 3.347656c-5.507813-11.460938-12.632813-22.152344-21.210937-31.738281l6.191406-6.191407c2.929687-2.929687 2.929687-7.675781 0-10.605468-2.929688-2.925782-7.679688-2.925782-10.605469 0l-6.1875 6.1875c-.371094-.332032-.734375-.667969-1.109375-.996094-3.113281-2.726562-7.855469-2.417969-10.582031.699219-2.730469 3.113281-2.417969 7.855469.699219 10.582031 26.1875 22.949219 41.210937 56.066406 41.210937 90.859375 0 14.351563-2.488281 28.34375-7.382813 41.652344-27.132812 2.472656-56.746093 9.765625-56.746093 26.484375 0 1.738281.324219 3.371094.925781 4.910156-12.460938 12.382812-21.730469 27.457031-27.21875 43.875-.046875.011719-.09375.019531-.144531.03125-9.804688 2.523438-19.964844 3.804688-30.191407 3.804688-66.585937 0-120.757812-54.171876-120.757812-120.757813 0-66.578125 54.160156-120.746094 120.738281-120.757813h.019531.023438c15.847656.003907 31.105469 2.980469 45.492188 8.859376.226562.121093.457031.234374.695312.332031.175781.074219.355469.132812.535156.191406 2.949219 1.246094 5.867188 2.601563 8.742188 4.089844 3.679687 1.90625 8.203125.472656 10.109375-3.207031 1.90625-3.675782.46875-8.203126-3.207031-10.109376-1.183594-.613281-2.375-1.207031-3.578126-1.785156l3.332032-8.050781c1.585937-3.824219-.230469-8.214844-4.058594-9.796875-3.828125-1.589844-8.210938.230469-9.796875 4.058594l-3.34375 8.070312c-11.078125-3.875-22.675781-6.3125-34.421875-7.226562 24.453125-62.964844 73.484375-98.679688 73.996094-99.046875 3.371094-2.410157 4.152344-7.09375 1.746094-10.464844-2.410157-3.371094-7.09375-4.152344-10.464844-1.742187-2.316406 1.65625-55.828125 40.503906-81.171875 110.945312-13.816407.539062-27.105469 3.152344-39.570313 7.539062l-3.347656-8.074218c-1.585938-3.828125-5.972656-5.644532-9.796875-4.058594-3.828125 1.582031-5.644531 5.972656-4.058594 9.796875l3.347657 8.082031c-11.574219 5.585938-22.230469 12.769532-31.699219 21.253906l-6.230469-6.230468c-2.925781-2.929688-7.675781-2.929688-10.605469 0-2.929687 2.929687-2.929687 7.675781 0 10.605468l6.230469 6.230469c-8.484375 9.46875-15.667969 20.125-21.25 31.695313l-8.085938-3.347656c-3.824218-1.585938-8.210937.234374-9.796874 4.058593-1.585938 3.828125.230468 8.214844 4.058593 9.800781l8.074219 3.34375c-4.160156 11.824219-6.730469 24.390626-7.445312 37.441407h-8.742188c-4.144531 0-7.5 3.359375-7.5 7.5 0 4.144531 3.355469 7.5 7.5 7.5h8.742188c.714843 13.054687 3.285156 25.621093 7.445312 37.445312l-8.074219 3.34375c-3.828125 1.585938-5.644531 5.972657-4.058593 9.800781 1.195312 2.890626 3.988281 4.632813 6.929687 4.632813.957031 0 1.929687-.1875 2.867187-.574219l8.085938-3.347656c5.582031 11.570312 12.765625 22.230469 21.25 31.699219l-6.230469 6.226562c-2.929687 2.929688-2.929687 7.679688 0 10.609375 1.464844 1.460938 3.386719 2.195313 5.304688 2.195313s3.839843-.734375 5.300781-2.199219l6.230469-6.226562c9.46875 8.484374 20.125 15.664062 31.699219 21.25l-3.347657 8.082031c-1.585937 3.828125.230469 8.214843 4.058594 9.800781.9375.390625 1.910156.570312 2.867187.570312 2.941407 0 5.734376-1.742187 6.929688-4.628906l3.347656-8.078125c11.820313 4.164063 24.386719 6.734375 37.441406 7.449219v8.742188c0 4.140624 3.359376 7.5 7.5 7.5 4.140626 0 7.5-3.359376 7.5-7.5v-8.75c6.300782-.34375 12.558594-1.121094 18.722657-2.324219-1.089844 6.261719-1.660157 12.644531-1.660157 19.089843 0 61.597657 50.113282 111.710938 111.710938 111.710938s111.710938-50.113281 111.710938-111.710938c0-29.757812-11.96875-58.347656-32.996094-79.25zm-78.714844 175.960938c-53.324219 0-96.707031-43.382812-96.707031-96.707031 0-25.816407 10.371093-50.5625 28.613281-68.671875 16.570312 9.191406 47.363281 12.042968 68.09375 12.042968 9.003906 0 17.808594-.441406 26.175781-1.316406 4.121094-.429687 7.109375-4.117187 6.679688-8.238281-.429688-4.121094-4.117188-7.113281-8.238281-6.679687-7.851563.816406-16.132813 1.234374-24.617188 1.234374-16.960938 0-33.242188-1.695312-45.835938-4.769531-11.921874-2.914062-16.988281-6.230469-18.472656-7.773437 1.480469-1.539063 6.546875-4.855469 18.472656-7.769532 12.59375-3.074218 28.871094-4.769531 45.835938-4.769531 16.960938 0 33.242188 1.695313 45.835938 4.769531 11.882812 2.902344 16.953124 6.207032 18.457031 7.753907-.945313.980469-3.648438 3.128906-10.617188 5.523437-3.917969 1.34375-6.003906 5.609375-4.660156 9.527344 1.347656 3.917969 5.617187 6 9.53125 4.65625 3.671875-1.257812 6.855469-2.648438 9.574219-4.15625 18.21875 18.101562 28.589844 42.859375 28.589844 68.636719 0 53.324219-43.382813 96.707031-96.710938 96.707031zm0 0"/></svg>