<svg height="511pt" viewBox="-23 0 511 511.99781" width="511pt" xmlns="http://www.w3.org/2000/svg"><path d="m159.753906 16.816406c-16.511718 9.269532-27.847656 23.738282-32.601562 39.210938 15.6875 3.996094 33.9375 1.855468 50.453125-7.417969 14.046875-7.886719 24.34375-19.53125 30.035156-32.355469 1.597656-3.59375-.722656-7.722656-4.621094-8.234375-13.914062-1.820312-29.21875.910157-43.265625 8.796875zm0 0" fill="#afdc82"/><path d="m203.019531 8.019531c-13.914062-1.820312-29.21875.910157-43.265625 8.796875-16.511718 9.269532-27.847656 23.738282-32.601562 39.210938l80.242187-45.03125c-.863281-1.554688-2.421875-2.71875-4.375-2.976563zm0 0" fill="#96cd82"/><path d="m128.246094 87.644531c16.035156 0 40.082031 8.015625 48.101562 48.097657 6.289063 31.445312 72.40625 68.148437 72.40625 136.636718 0 69.832032-56.113281 176.003906-88.441406 176.003906-25.75 0-38.125 0-63.871094 0-32.328125 0-88.441406-106.171874-88.441406-176.003906 0-68.492187 66.117188-105.191406 72.40625-136.636718 8.015625-40.082032 32.066406-48.097657 48.097656-48.097657" fill="#ffe17d"/><path d="m336.675781 143.757812c16.03125 0 40.082031 8.015626 48.097657 48.101563 6.289062 31.441406 72.40625 68.144531 72.40625 136.632813 0 69.832031-56.113282 176.007812-88.441407 176.007812-25.746093 0-38.121093 0-63.871093 0-32.328126 0-88.441407-106.175781-88.441407-176.007812 0-68.488282 66.121094-105.191407 72.40625-136.632813 8.019531-40.085937 32.066407-48.101563 48.101563-48.101563" fill="#fff6d8"/><path d="m336.933594 143.757812h-.257813c.042969 0 .089844.003907.128907.003907.042968 0 .085937-.003907.128906-.003907zm0 0" fill="#fff6d8"/><path d="m128.246094 87.644531c.042968 0 .089844.003907.132812.003907.039063 0 .085938-.003907.128906-.003907zm0 0" fill="#ffd164"/><path d="m54.351562 284.714844c-7.671874-68.46875 53.925782-112.523438 56.652344-144.65625 2.675782-31.5 16.890625-45.0625 30.5625-50.476563-4.644531-1.402343-9.164062-1.921875-13.191406-1.9375-16.03125.042969-39.972656 8.121094-47.96875 48.097657-6.289062 31.441406-72.40625 68.144531-72.40625 136.636718 0 69.832032 56.113281 176.003906 88.441406 176.003906h53.777344c-34.519531-15.5625-88.90625-101.507812-95.867188-163.667968zm0 0" fill="#ffd164"/><path d="m356.941406 304.085938h-40.535156c-9.679688 0-16.460938 9.5625-13.257812 18.699218l18.746093 53.445313h29.558594l18.746094-53.445313c3.203125-9.132812-3.578125-18.699218-13.257813-18.699218zm0 0" fill="#ffe17d"/><path d="m320.640625 360.738281c0 15.742188 4.085937 30.003907 10.71875 40.527344 2.410156 3.828125 8.222656 3.828125 10.632813 0 6.632812-10.523437 10.714843-24.785156 10.714843-40.527344 0-15.511719-3.964843-29.585937-10.421875-40.0625-2.621094-4.246093-8.601562-4.246093-11.21875 0-6.457031 10.476563-10.425781 24.550781-10.425781 40.0625zm0 0" fill="#d7de80"/><path d="m415.875 225.65625c-11.691406-13.671875-21.789062-25.480469-23.746094-35.269531-8.230468-41.148438-32.289062-51.378907-47.644531-53.582031 2.648437-35.8125 21.875-60.230469 22.085937-60.492188 2.589844-3.222656 2.085938-7.933594-1.128906-10.535156-3.226562-2.605469-7.945312-2.105469-10.550781 1.121094-.984375 1.21875-22.808594 28.691406-25.449219 69.890624-15.441406 2.171876-39.710937 12.359376-47.960937 53.597657-1.957031 9.789062-12.054688 21.597656-23.746094 35.269531-2.550781 2.984375-5.210937 6.105469-7.902344 9.332031-9.410156-26.875-27.46875-48.003906-42.382812-65.449219-11.691407-13.671874-21.789063-25.480468-23.746094-35.269531-8.660156-43.292969-34.839844-52.363281-49.972656-53.863281-.308594-5.421875-.949219-10.605469-1.839844-15.53125 2.945313.367188 5.925781.550781 8.921875.550781 13.148438 0 26.613281-3.507812 38.667969-10.277343 17.449219-9.792969 30.605469-25.667969 36.101562-43.546876.601563-1.964843.375-4.085937-.628906-5.875-1.003906-1.792968-2.699219-3.089843-4.691406-3.597656-18.125-4.617187-38.527344-1.648437-55.976563 8.144532-12.53125 7.035156-22.828125 17.214843-29.6875 29.015624-7.101562-18.015624-15.75-28.914062-16.363281-29.671874-2.605469-3.222657-7.328125-3.726563-10.546875-1.117188-3.222656 2.601562-3.726562 7.324219-1.121094 10.546875.210938.261719 19.984375 25.160156 22.175782 61.996094-15.449219 2.847656-37.835938 13.957031-45.691407 53.226562-1.957031 9.789063-12.054687 21.597657-23.746093 35.269531-21.746094 25.429688-48.804688 57.074219-48.804688 102.839844 0 33.402344 12.304688 77.367188 32.921875 117.609375 9.476563 18.496094 19.832031 34.296875 29.953125 45.695313 11.902344 13.402344 23.027344 20.199218 33.066406 20.199218h63.871094c20.59375 0 43.355469-29.082031 60.410156-60.929687 5.414063 17.007813 12.546875 34.398437 21.125 51.148437 9.476563 18.496094 19.832032 34.296876 29.953125 45.695313 11.902344 13.402344 23.027344 20.199219 33.066407 20.199219h63.871093c10.039063 0 21.164063-6.796875 33.066407-20.199219 10.117187-11.398437 20.476562-27.199219 29.953124-45.695313 20.613282-40.242187 32.921876-84.207031 32.921876-117.609374 0-45.761719-27.058594-77.40625-48.804688-102.835938zm-254.246094-202.300781c11.40625-6.402344 24.28125-9.222657 36.417969-8.136719-5.390625 10.925781-14.503906 20.449219-25.910156 26.851562-11.40625 6.402344-24.28125 9.226563-36.414063 8.136719 5.386719-10.925781 14.5-20.449219 25.90625-26.851562zm256.777344 415.910156c-20.316406 39.664063-39.988281 57.734375-49.664062 57.734375h-24.566407v-8.535156c0-4.140625-3.355469-7.5-7.5-7.5s-7.5 3.359375-7.5 7.5v8.535156h-24.308593c-9.675782 0-29.34375-18.070312-49.664063-57.734375-19.292969-37.65625-31.273437-80.101563-31.273437-110.773437 0-10.304688 1.566406-20.152344 4.785156-30.109376 1.277344-3.941406-.882813-8.167968-4.824219-9.445312-3.941406-1.269531-8.171875.886719-9.445313 4.828125-3.660156 11.3125-5.515624 22.996094-5.515624 34.726563 0 13.558593 2.027343 28.851562 5.8125 44.933593-20.558594 43.820313-43.296876 67.457031-54.425782 67.457031h-63.875c-9.675781 0-29.347656-18.066406-49.667968-57.734374-19.289063-37.652344-31.273438-80.097657-31.273438-110.769532 0-40.222656 25.066406-69.535156 45.207031-93.089844 13.058594-15.265624 24.332031-28.453124 27.054688-42.074218 3.144531-15.714844 12.617187-42.070313 40.746093-42.070313 14.628907 0 33.53125 7.296875 40.484376 42.070313 2.726562 13.621094 14 26.808594 27.054687 42.074218 16.628906 19.445313 35.417969 41.429688 42.417969 70.035157-2.542969 3.410156-5.039063 6.925781-7.421875 10.578125-2.265625 3.464844-1.292969 8.113281 2.171875 10.378906 3.46875 2.269531 8.117187 1.292969 10.382812-2.171875 7.875-12.050781 17.261719-23.023437 25.539063-32.703125 13.054687-15.269531 24.328125-28.453125 27.054687-42.078125 2.832032-14.167969 10.820313-36.980469 32.984375-41.332031v23.828125c0 4.144531 3.355469 7.5 7.5 7.5s7.5-3.355469 7.5-7.5v-23.925781c13.101563 2.378906 27.394531 12.191406 33.242188 41.429687 2.726562 13.625 14 26.808594 27.058593 42.078125 20.140626 23.550781 45.203126 52.863281 45.203126 93.085938 0 30.671874-11.980469 73.117187-31.273438 110.773437zm0 0"/><path d="m356.941406 296.585938h-12.765625v-88.691407c0-4.144531-3.359375-7.5-7.5-7.5-4.144531 0-7.5 3.355469-7.5 7.5v88.691407h-12.769531c-6.976562 0-13.546875 3.398437-17.578125 9.085937-4.035156 5.691406-5.0625 13.015625-2.757813 19.597656l18.746094 53.445313c.011719.03125.027344.0625.039063.09375 2.636719 13.644531 8.246093 25.730468 16.273437 34.542968 1.421875 1.5625 3.433594 2.449219 5.546875 2.449219 2.109375 0 4.125-.890625 5.542969-2.449219 8.035156-8.820312 13.648438-20.917968 16.28125-34.578124.007812-.019532.019531-.039063.027344-.058594l18.746094-53.445313c2.308593-6.582031 1.28125-13.90625-2.753907-19.597656-4.03125-5.6875-10.601562-9.085937-17.578125-9.085937zm-45.875 17.761718c1.242188-1.753906 3.1875-2.761718 5.339844-2.761718h11.847656c-5.46875 7.078124-9.589844 15.808593-12.132812 25.519531l-5.894532-16.800781c-.710937-2.03125-.40625-4.203126.839844-5.957032zm25.609375 81.21875c-5.429687-9.433594-8.535156-21.820312-8.535156-34.828125 0-13.007812 3.105469-25.398437 8.535156-34.832031 5.429688 9.4375 8.53125 21.824219 8.53125 34.832031 0 13.007813-3.101562 25.394531-8.53125 34.828125zm26.445313-75.261718-5.890625 16.796874c-2.546875-9.710937-6.667969-18.4375-12.132813-25.515624h11.84375c2.152344 0 4.097656 1.007812 5.34375 2.761718 1.242188 1.757813 1.546875 3.925782.835938 5.957032zm0 0"/></svg>