<svg height="512pt" viewBox="-4 0 512 512.00036" width="512pt" xmlns="http://www.w3.org/2000/svg"><path d="m186.152344 21.730469c-25.21875 14.15625-42.527344 36.25-49.789063 59.878906 23.953125 6.105469 51.828125 2.832031 77.046875-11.328125 21.449219-12.042969 37.179688-29.824219 45.867188-49.410156 2.4375-5.492188-1.101563-11.796875-7.058594-12.574219-21.246094-2.777344-44.617188 1.390625-66.066406 13.433594zm0 0" fill="#96d7a5"/><path d="m252.222656 8.296875c-21.25-2.777344-44.621094 1.390625-66.070312 13.433594-25.21875 14.15625-42.527344 36.25-49.789063 59.878906l122.542969-68.769531c-1.324219-2.371094-3.699219-4.152344-6.683594-4.542969zm0 0" fill="#78c3a5"/><path d="m208.234375 174.625c-13.082031-7.953125-23.011719-20.761719-31.332031-34.683594-7.164063-11.980468-19.242188-19.859375-33.007813-19.859375s-25.84375 7.875-33.007812 19.859375c-8.316407 13.921875-18.25 26.730469-31.332031 34.683594-42.742188 25.980469-71.808594 77.023438-71.808594 135.773438 0 85.085937 52.109375 154.054687 136.148437 154.054687 84.039063 0 136.152344-68.96875 136.152344-154.054687 0-58.75-29.070313-109.792969-71.8125-135.773438zm0 0" fill="#e1f587"/><path d="m175.929688 432.417969c-84.039063 0-136.148438-68.96875-136.148438-154.054688 0-37.242187 11.703125-71.359375 31.144531-97.984375-37.96875 27.332032-63.179687 75.324219-63.179687 130.019532 0 85.089843 52.109375 154.054687 136.148437 154.058593 46.707031 0 83.5-21.347656 107.019531-54.878906-20.628906 14.390625-45.828124 22.839844-74.984374 22.839844zm0 0" fill="#cdeb96"/><path d="m424.472656 214.667969c-13.082031-7.953125-23.011718-20.761719-31.332031-34.679688-7.160156-11.984375-19.242187-19.863281-33.007813-19.863281-13.761718 0-25.84375 7.878906-33.003906 19.863281-8.320312 13.917969-18.25 26.726563-31.332031 34.679688-42.746094 25.980469-71.8125 77.027343-71.8125 135.773437 0 85.089844 52.109375 154.058594 136.148437 154.058594 84.042969 0 136.152344-68.96875 136.152344-154.058594 0-58.75-29.066406-109.792968-71.8125-135.773437zm0 0" fill="#fff6d8"/><path d="m407.835938 242.042969c-12.980469-7.890625-24.261719-18.925781-34.886719-34.25-2.835938-4.085938-7.386719-6.640625-12.355469-6.640625h-.917969c-4.96875 0-9.523437 2.554687-12.355469 6.640625-10.628906 15.324219-21.90625 26.359375-34.886718 34.25-34.796875 21.152343-56.414063 62.6875-56.414063 108.398437 0 71.84375 42.8125 122.019532 104.113281 122.023438 61.304688-.003906 104.117188-50.179688 104.117188-122.023438 0-45.710937-21.617188-87.246094-56.414062-108.398437zm0 0" fill="#ff9ba0"/><path d="m416.195312 352.339844c0-39.808594-25.097656-72.082032-56.0625-72.082032-30.960937 0-56.058593 32.273438-56.058593 72.082032s25.097656 72.078125 56.058593 72.078125c30.964844 0 56.0625-32.269531 56.0625-72.078125zm0 0" fill="#ff8087"/><path d="m428.542969 207.972656c-10.292969-6.257812-19.449219-16.472656-28.824219-32.15625-8.804688-14.734375-23.5625-23.53125-39.476562-23.53125-15.914063 0-30.671876 8.796875-39.476563 23.53125-9.375 15.683594-18.535156 25.898438-28.824219 32.15625-8.957031 5.441406-17.25 11.863282-24.820312 19.097656-13.285156-24.917968-32.152344-45.269531-55.035156-59.175781-10.289063-6.253906-19.445313-16.472656-28.820313-32.152343-7.4375-12.445313-19.121094-20.628907-32.152344-22.882813-.457031-8-1.839843-15.441406-3.761719-22.195313 4.285157.53125 8.625.800782 12.992188.800782 19.273438 0 39.027344-5.15625 56.722656-15.089844 25.59375-14.371094 44.886719-37.621094 52.929688-63.792969.605468-1.960937.375-4.085937-.628906-5.875-1.003907-1.789062-2.699219-3.089843-4.6875-3.59375-26.527344-6.757812-56.425782-2.394531-82.023438 11.972657-20.574219 11.554687-37.074219 28.847656-46.933594 48.78125-5.300781-8.898438-10.027344-14.109376-10.476562-14.597657-2.808594-3.035156-7.535156-3.222656-10.582032-.425781-3.042968 2.800781-3.242187 7.542969-.449218 10.59375.210937.226562 19.734375 21.941406 21.871094 53.488281-12.878907 2.347657-24.414063 10.492188-31.777344 22.816407-9.371094 15.679687-18.53125 25.898437-28.820313 32.152343-46.5625 28.304688-75.488281 82.835938-75.488281 142.320313 0 44.128906 13.625 84.570312 38.367188 113.882812 26.410156 31.289063 62.863281 47.828125 105.421874 47.828125 35.996094 0 67.910157-12.011719 92.917969-34.835937 5.128907 9.792968 11.183594 18.875 18.113281 27.082031 26.414063 31.289063 62.867188 47.828125 105.421876 47.828125 42.554687 0 79.007812-16.539062 105.421874-47.828125 24.738282-29.308594 38.363282-69.753906 38.363282-113.882813 0-59.484374-28.925782-114.015624-75.484375-142.316406zm-238.542969-179.804687c19.660156-11.035157 42.121094-15.320313 62.820312-12.171875-8.089843 19.316406-23.441406 36.261718-43.097656 47.296875-19.660156 11.035156-42.125 15.320312-62.820312 12.171875 8.089844-19.3125 23.441406-36.261719 43.097656-47.296875zm-46.210938 428.753906c-37.996093 0-70.488281-14.699219-93.960937-42.503906-22.457031-26.605469-34.824219-63.613281-34.824219-104.207031 0-54.277344 26.160156-103.898438 68.277344-129.496094 12.457031-7.574219 23.230469-19.417969 33.90625-37.277344 6.070312-10.164062 16.015625-16.230469 26.601562-16.230469 10.582032 0 20.527344 6.066407 26.601563 16.230469 10.671875 17.859375 21.449219 29.703125 33.90625 37.277344 21.933594 13.332031 39.808594 33.324218 51.910156 57.945312-25.144531 29.628906-39.75 69.375-39.75 111.628906 0 25.917969 4.703125 50.566407 13.597657 72.433594-22.691407 22.386719-52.425782 34.199219-86.265626 34.199219zm310.410157-2.425781c-23.46875 27.804687-55.960938 42.503906-93.957031 42.503906-37.996094 0-70.488282-14.699219-93.957032-42.503906-22.460937-26.605469-34.828125-63.613282-34.828125-104.207032 0-54.277343 26.160157-103.902343 68.277344-129.5 12.457031-7.570312 23.230469-19.414062 33.90625-37.273437 6.074219-10.164063 16.019531-16.230469 26.601563-16.230469 10.582031 0 20.527343 6.066406 26.601562 16.230469 10.675781 17.859375 21.449219 29.703125 33.90625 37.273437 42.117188 25.601563 68.277344 75.222657 68.277344 129.5 0 40.59375-12.367188 77.601563-34.828125 104.207032zm0 0"/><path d="m411.886719 235.371094c-3.539063-2.148438-8.152344-1.023438-10.304688 2.515625-2.152343 3.539062-1.027343 8.152343 2.511719 10.304687 32.609375 19.820313 52.867188 58.941406 52.867188 102.097656 0 29.507813-8.671876 58.183594-23.792969 78.679688-17.359375 23.527344-42.574219 35.964844-72.925781 35.964844-19.722657 0-37.140626-5.128906-51.777344-15.246094-3.40625-2.359375-8.078125-1.503906-10.433594 1.902344-2.355469 3.410156-1.503906 8.078125 1.90625 10.4375 17.1875 11.882812 37.476562 17.90625 60.304688 17.90625 35.304687 0 64.695312-14.542969 84.996093-42.058594 17.234375-23.355469 26.722657-54.460938 26.722657-87.585938 0-48.359374-23.019532-92.390624-60.074219-114.917968zm0 0"/><path d="m263.523438 350.289062c0-43.15625 20.257812-82.277343 52.867187-102.097656 13.878906-8.433594 26.042969-20.347656 37.1875-36.421875 1.484375-2.140625 3.804687-3.417969 6.203125-3.417969h.921875c2.398437 0 4.714844 1.277344 6.199219 3.417969 2.886718 4.15625 5.863281 8.078125 8.855468 11.648438 2.660157 3.175781 7.390626 3.59375 10.566407.933593 3.175781-2.660156 3.59375-7.390624.933593-10.566406-2.703124-3.226562-5.402343-6.777344-8.027343-10.5625-4.285157-6.183594-11.214844-9.871094-18.527344-9.871094h-.921875c-7.3125 0-14.242188 3.6875-18.527344 9.871094-10.0625 14.511719-20.441406 24.726563-32.652344 32.148438-37.058593 22.527344-60.078124 66.558594-60.078124 114.917968 0 32.820313 9.339843 63.71875 26.300781 87.003907 1.464843 2.015625 3.75 3.085937 6.066406 3.085937 1.53125 0 3.078125-.464844 4.410156-1.4375 3.347657-2.4375 4.085938-7.128906 1.648438-10.476562-14.886719-20.441406-23.425781-48.933594-23.425781-78.175782zm0 0"/><path d="m316.96875 357.53125c0-4.140625-3.355469-7.5-7.5-7.5h-16.027344c-4.144531 0-7.5 3.359375-7.5 7.5 0 4.144531 3.355469 7.5 7.5 7.5h16.027344c4.144531 0 7.5-3.355469 7.5-7.5zm0 0"/><path d="m308.886719 309.640625c-3.597657-2.058594-8.175781-.8125-10.234375 2.785156-2.054688 3.59375-.808594 8.175781 2.785156 10.234375l12.488281 7.144532c1.175781.671874 2.457031.992187 3.71875.992187 2.605469 0 5.132813-1.359375 6.519531-3.777344 2.054688-3.597656.808594-8.179687-2.785156-10.234375zm0 0"/><path d="m327.824219 294.9375c1.484375 1.730469 3.585937 2.621094 5.699219 2.621094 1.726562 0 3.460937-.59375 4.878906-1.808594 3.144531-2.695312 3.507812-7.429688.8125-10.574219l-4.011719-4.675781c-2.695313-3.148438-7.425781-3.511719-10.574219-.8125-3.144531 2.695312-3.507812 7.429688-.8125 10.574219zm0 0"/><path d="m305.066406 403.550781c1.476563 1.917969 3.699219 2.925781 5.949219 2.925781 1.597656 0 3.207031-.507812 4.570313-1.558593l12.402343-9.550781c3.28125-2.527344 3.894531-7.234376 1.367188-10.519532-2.527344-3.28125-7.238281-3.894531-10.519531-1.367187l-12.402344 9.550781c-3.28125 2.527344-3.894532 7.238281-1.367188 10.519531zm0 0"/><path d="m332.957031 428.148438c1.390625 1.136718 3.066407 1.6875 4.730469 1.6875 2.179688 0 4.339844-.941407 5.820312-2.761719l4.964844-6.09375c2.617188-3.210938 2.132813-7.9375-1.078125-10.554688-3.210937-2.617187-7.9375-2.132812-10.550781 1.078125l-4.964844 6.09375c-2.617187 3.210938-2.132812 7.9375 1.078125 10.550782zm0 0"/><path d="m434.542969 357.53125c0-4.140625-3.355469-7.5-7.5-7.5h-16.027344c-4.144531 0-7.5 3.359375-7.5 7.5 0 4.144531 3.355469 7.5 7.5 7.5h16.027344c4.140625 0 7.5-3.355469 7.5-7.5zm0 0"/><path d="m411.597656 309.640625-12.488281 7.144531c-3.597656 2.054688-4.84375 6.636719-2.785156 10.234375 1.382812 2.421875 3.914062 3.777344 6.515625 3.777344 1.261718 0 2.542968-.320313 3.71875-.992187l12.488281-7.144532c3.59375-2.058594 4.84375-6.640625 2.785156-10.234375-2.058593-3.597656-6.640625-4.84375-10.234375-2.785156zm0 0"/><path d="m385.277344 280.5-4.007813 4.675781c-2.695312 3.144531-2.332031 7.878907.8125 10.574219 1.414063 1.214844 3.148438 1.808594 4.878907 1.808594 2.113281 0 4.214843-.890625 5.699218-2.621094l4.007813-4.675781c2.695312-3.144531 2.328125-7.878907-.8125-10.574219-3.148438-2.699219-7.882813-2.332031-10.578125.8125zm0 0"/><path d="m392.496094 395.367188 12.402344 9.550781c1.363281 1.050781 2.972656 1.558593 4.570312 1.558593 2.246094 0 4.472656-1.007812 5.945312-2.925781 2.527344-3.28125 1.917969-7.988281-1.367187-10.519531l-12.398437-9.546875c-3.285157-2.53125-7.996094-1.914063-10.519532 1.367187-2.527344 3.28125-1.914062 7.988282 1.367188 10.515626zm0 0"/><path d="m383.640625 411.503906c-2.617187-3.210937-7.34375-3.695312-10.554687-1.078125-3.210938 2.617188-3.691407 7.34375-1.074219 10.554688l4.960937 6.09375c1.484375 1.816406 3.644532 2.761719 5.820313 2.761719 1.664062 0 3.34375-.550782 4.734375-1.6875 3.210937-2.613282 3.691406-7.339844 1.074218-10.550782zm0 0"/></svg>