<svg height="512pt" viewBox="-144 0 512 512" width="512pt" xmlns="http://www.w3.org/2000/svg"><path d="m183.890625 8.167969h-31.941406c-3.316407 0-6.289063 2.042969-7.480469 5.136719l-56.8125 147.714843c-2.902344 7.546875-5.449219 15.210938-7.761719 22.9375l40.34375 27.386719c2.988281-14.273438 7.050781-28.324219 12.308594-41.992188l58.171875-151.242187c1.84375-4.792969-1.695312-9.941406-6.828125-9.941406zm0 0" fill="#afdc82"/><path d="m95.675781 199.886719 72.144531-192.386719-15.871093.667969c-3.316407 0-6.289063 2.042969-7.480469 5.136719l-56.8125 147.714843c-2.902344 7.546875-5.441406 15.210938-7.761719 22.9375zm0 0" fill="#96cd82"/><path d="m79.378906 23.53125h-28.835937c-5.429688 0-9.289063 5.289062-7.632813 10.460938l60.78125 189.941406 32.066406-48.09375-45.601562-144.410156c-1.488281-4.699219-5.847656-7.898438-10.777344-7.898438zm0 0" fill="#96cd82"/><path d="m63.613281 23.53125h-13.070312c-5.429688 0-9.289063 5.289062-7.632813 10.460938l60.78125 189.941406 24.046875-24.046875zm0 0" fill="#7dbe81"/><path d="m205.265625 55.597656h-31.9375c-3.316406 0-6.292969 2.042969-7.484375 5.136719l-56.8125 147.714844c-13.71875 35.664062-20.882812 73.488281-21.292969 111.679687h48.019531v-5.507812c0-33.449219 6.15625-66.617188 18.164063-97.839844l58.171875-151.242188c1.84375-4.792968-1.691406-9.941406-6.828125-9.941406zm0 0" fill="#afdc82"/><path d="m173.328125 55.597656c-3.316406 0-6.292969 2.042969-7.480469 5.136719l-56.816406 147.714844c-14.125 36.730469-21.371094 75.746093-21.371094 115.101562h16.03125c0-39.355469 15.261719-78.371093 29.390625-115.101562l58.789063-152.851563zm0 0" fill="#96cd82"/><path d="m114.386719 208.449219-56.816407-147.714844c-1.1875-3.09375-4.164062-5.136719-7.480468-5.136719h-31.9375c-5.136719 0-8.671875 5.148438-6.828125 9.941406l58.167969 151.242188c12.007812 31.222656 18.167968 64.386719 18.167968 97.835938v125.753906c0 8.851562 7.175782 16.03125 16.03125 16.03125h16.03125c8.855469 0 16.035156-7.179688 16.035156-16.03125v-116.820313c0-39.351562-7.246093-78.371093-21.371093-115.101562zm0 0" fill="#fff6d8"/><path d="m135.757812 440.371094h-8.015624c-8.855469 0-16.035157-7.179688-16.035157-16.03125v-109.71875c0-35.421875-6.519531-70.535156-19.234375-103.597656l-59.78125-155.425782h-14.539062c-5.132813 0-8.671875 5.148438-6.828125 9.941406l58.171875 151.242188c12.007812 31.222656 18.164062 64.386719 18.164062 97.839844v125.75c0 8.855468 7.179688 16.03125 16.03125 16.03125h16.035156c8.851563 0 16.03125-7.175782 16.03125-16.03125zm0 0" fill="#ffedb1"/><path d="m111.707031 272.03125c9.660157 0 17.933594 5.730469 21.757813 13.945312-3.128906-26.488281-9.46875-52.542968-19.078125-77.53125l-56.816407-147.710937c-1.1875-3.09375-4.164062-5.136719-7.480468-5.136719h-31.9375c-5.136719 0-8.671875 5.148438-6.828125 9.941406l58.167969 151.242188c9.785156 25.441406 15.613281 52.175781 17.464843 79.296875h.703125c0-13.277344 10.765625-24.046875 24.046875-24.046875zm0 0" fill="#96cd82"/><path d="m69.492188 216.78125c9.785156 25.441406 15.613281 52.175781 17.464843 79.296875h.703125c0-9.375 12.292969-17.414063 20.121094-21.378906-3.035156-21.738281-8.542969-43.105469-16.453125-63.675781l-59.78125-155.425782h-13.394531c-5.132813 0-8.671875 5.148438-6.828125 9.941406zm0 0" fill="#7dbe81"/><path d="m222.101562 51.351562c-1.398437-2.039062-3.710937-3.253906-6.183593-3.253906h-29.675781l12.742187-38.226562c.761719-2.285156.378906-4.800782-1.03125-6.757813-1.410156-1.953125-3.671875-3.113281-6.082031-3.113281h-48.097656c-3.230469 0-6.09375 2.066406-7.117188 5.128906l-24.035156 72.113282-17.8125-55.984376c-.992188-3.113281-3.882813-5.226562-7.148438-5.226562h-48.097656c-2.390625 0-4.640625 1.144531-6.050781 3.074219-1.414063 1.929687-1.820313 4.421875-1.09375 6.699219l7.089843 22.292968h-32.007812c-2.472656 0-4.78125 1.214844-6.183594 3.253906-1.3984372 2.035157-1.703125 4.628907-.816406 6.9375l61.996094 161.1875c11.722656 30.476563 17.664062 62.488282 17.664062 95.144532v125.75c0 6.59375 2.734375 12.5625 7.117188 16.835937l-14.59375 36.488281c-1.539063 3.847657.332031 8.210938 4.175781 9.75.914063.367188 1.855469.539063 2.785156.539063 2.976563 0 5.792969-1.785156 6.964844-4.71875l14.21875-35.542969c.941406.113282 1.894531.179688 2.867187.179688h.515626v40.597656c0 4.144531 3.355468 7.5 7.5 7.5 4.140624 0 7.5-3.355469 7.5-7.5v-40.597656h.515624c.96875 0 1.925782-.066406 2.867188-.179688l14.21875 35.546875c1.171875 2.929688 3.988281 4.714844 6.964844 4.714844.925781 0 1.871094-.171875 2.78125-.539063 3.847656-1.539062 5.71875-5.902343 4.179687-9.746093l-14.597656-36.488281c4.386719-4.277344 7.117187-10.246094 7.117187-16.839844 0 0 0-122.472656 0-122.773438 0-34.628906 6.304688-68.578125 18.734376-100.898437l60.925781-158.410157c.886719-2.308593.582031-4.902343-.816407-6.9375zm-145.609374 162.738282-58.074219-150.992188h32.027343l32.066407 83.375c1.488281 3.863282 5.828125 5.796875 9.691406 4.304688 3.867187-1.484375 5.792969-5.824219 4.308594-9.691406l-33.914063-88.179688c-1.117187-2.898438-3.898437-4.808594-7-4.808594h-.347656l-5.429688-17.066406h32.355469l39.414063 123.875-9.882813 25.691406-2.863281-7.445312c-1.484375-3.863282-5.824219-5.792969-9.691406-4.308594-3.867188 1.488281-5.792969 5.828125-4.308594 9.691406l12.542969 32.605469c6.957031 18.089844 12.1875 36.640625 15.675781 55.511719-3.527344-1.363282-7.351562-2.121094-11.355469-2.121094-7.523437 0-14.441406 2.652344-19.871093 7.066406-3.039063-19.589844-8.15625-38.824218-15.34375-57.507812zm51.765624 226.28125c0 4.710937-3.820312 8.53125-8.53125 8.53125h-16.035156c-4.710937 0-8.53125-3.820313-8.53125-8.53125v-143.847656c0-9.015626 7.023438-16.707032 16.03125-16.984376.335938-.007812.667969-.007812 1 0 7.714844.222657 13.910156 6.457032 14.644532 14.144532.945312 9.894531 1.421874 19.855468 1.421874 29.867187zm19.734376-229.058594c-5.191407 13.503906-9.355469 27.28125-12.503907 41.261719-3.519531-15.871094-8.210937-31.503907-14.101562-46.816407l-1.640625-4.265624 37.839844-98.390626c1.488281-3.867187-.441407-8.207031-4.308594-9.691406-3.867188-1.492187-8.207032.441406-9.691406 4.308594l-13.378907 34.789062-9.863281-30.996093 28.835938-86.511719h32.285156l-11.03125 33.097656h-2.613282c-3.101562 0-5.882812 1.910156-7 4.808594l-6.164062 16.03125c-1.488281 3.867188.441406 8.207031 4.304688 9.695312 3.867187 1.484376 8.207031-.441406 9.695312-4.308593l4.316406-11.226563h32.023438zm0 0"/></svg>