<svg height="512pt" viewBox="-96 0 512 512" width="512pt" xmlns="http://www.w3.org/2000/svg"><path d="m311.988281 231.78125c-1.558593-18.394531-8.757812-18.308594-3.488281-39.136719 7.316406-28.914062-3.03125-33.398437-8.117188-44.320312-4.664062-10.011719 5.46875-23.125 7.652344-33.878907 1.511719-7.453124 3.179688-21.046874-14.050781-27.949218-7.214844-2.890625-8.136719-8.941406-3.609375-25.691406s-10.445312-26.414063-17.941406-28.441407c-7.492188-2.023437-25.296875-1.222656-29.828125 15.527344-4.527344 16.75-8.371094 21.507813-16.058594 20.371094-18.363281-2.71875-23.773437 9.859375-26.226563 17.0625-3.53125 10.390625-1.386718 26.820312-10.460937 33.117187-9.898437 6.871094-21.09375 5.53125-29.347656 34.191406-5.941407 20.644532-12.117188 16.945313-22.734375 32.046876-12.109375 17.226562-9.785156 47.34375 19.792968 64.328124 20.402344 11.710938 34.859376 23.613282 39.046876 40.707032 1.878906.246094 3.789062.582031 5.765624 1.117187 2.082032.5625 3.988282 1.277344 5.816407 2.058594 12.230469-12.6875 30.730469-15.683594 54.277343-15.519531 34.109376.234375 51.292969-24.609375 49.511719-45.589844zm0 0" fill="#afdc82"/><path d="m8.925781 231.78125c1.5625-18.394531 8.757813-18.308594 3.488281-39.136719-7.3125-28.914062 3.03125-33.398437 8.121094-44.320312 4.664063-10.011719-5.46875-23.125-7.652344-33.878907-1.515624-7.453124-3.179687-21.046874 14.050782-27.949218 7.214844-2.890625 8.136718-8.941406 3.609375-25.691406-4.53125-16.75 10.445312-26.414063 17.9375-28.441407h.003906c7.492187-2.023437 25.296875-1.222656 29.828125 15.527344 4.527344 16.75 8.371094 21.507813 16.058594 20.371094 18.363281-2.71875 23.773437 9.859375 26.222656 17.0625 3.535156 10.390625 1.390625 26.820312 10.464844 33.117187 9.898437 6.871094 21.09375 5.53125 29.34375 34.191406 5.945312 20.644532 12.121094 16.945313 22.738281 32.046876 12.109375 17.226562 9.785156 47.34375-19.796875 64.328124-20.398438 11.710938-34.859375 23.613282-39.042969 40.707032-1.878906.246094-3.789062.582031-5.765625 1.117187-2.082031.5625-3.988281 1.277344-5.820312 2.058594-12.226563-12.6875-30.730469-15.683594-54.273438-15.519531-34.109375.234375-51.292968-24.609375-49.515625-45.589844zm0 0" fill="#96cd82"/><path d="m252.996094 195.644531c-6.511719-17.917969-13.667969-15.894531-14.027344-38.078125-.5-30.796875-12.023438-32.476562-20.039062-41.996094-7.351563-8.726562-.78125-24.527343-1.503907-35.839843-.5-7.835938-2.503906-21.835938-21.542969-24.078125-7.972656-.933594-10.519531-6.71875-10.519531-24.636719-.003906-17.917969-17.539062-23.515625-25.554687-23.515625s-25.550782 5.597656-25.550782 23.519531c0 17.917969-2.550781 23.699219-10.523437 24.636719-19.035156 2.238281-21.039063 16.238281-21.542969 24.078125-.722656 11.308594 5.847656 27.109375-1.5 35.835937-8.015625 9.519532-19.539062 11.199219-20.042968 41.996094-.359376 22.183594-7.511719 20.160156-14.027344 38.078125-7.429688 20.4375 3.007812 49.835938 37.074218 58.792969 23.496094 6.179688 41.117188 14.148438 49.898438 30.058594 1.941406-.257813 3.9375-.4375 6.050781-.4375 2.226563 0 4.320313.199218 6.355469.480468 8.769531-15.941406 26.40625-23.914062 49.925781-30.101562 34.066407-8.957031 44.5-38.359375 37.070313-58.792969zm0 0" fill="#96cd82"/><path d="m159.808594 253.855469c-42.453125-18.53125-72.144532-60.792969-72.144532-110.082031 0-5.632813.523438-11.136719 1.273438-16.5625-4.464844 5.46875-8.015625 13.582031-8.289062 30.355468-.359376 22.183594-7.511719 20.160156-14.027344 38.078125-7.429688 20.433594 3.007812 49.835938 37.074218 58.792969 23.496094 6.179688 41.117188 14.144531 49.898438 30.058594 1.941406-.257813 3.9375-.4375 6.050781-.4375.058594 0 .109375.011718.167969.011718v-30.214843zm0 0" fill="#7dbe81"/><path d="m319.464844 230.945312c-.660156-7.769531-2.246094-12.703124-3.523438-16.667968-1.820312-5.65625-2.917968-9.074219-.164062-19.960938 6.511718-25.738281-.003906-35.671875-5.242188-43.648437-1.261718-1.921875-2.453125-3.734375-3.339844-5.640625-1.667968-3.582032 1.042969-9.992188 3.667969-16.191406 1.789063-4.230469 3.640625-8.605469 4.53125-12.996094 4.488281-22.109375-7.636719-31.988282-18.597656-36.378906-1.398437-.5625-1.421875-.71875-1.566406-1.742188-.570313-3.980469 1.675781-12.28125 2.414062-15.007812 2.601563-9.632813.464844-19.070313-6.023437-26.582032-5.300782-6.140625-12.351563-9.726562-17.183594-11.03125-4.828125-1.304687-12.726562-1.765625-20.402344.867188-9.386718 3.214844-15.992187 10.292968-18.597656 19.925781-.738281 2.726563-2.980469 11.023437-5.476562 14.179687-.644532.808594-.742188.925782-2.234376.710938-3.5625-.527344-6.175781-.542969-8.523437-.304688-4.6875-6.9375-12.171875-11.0625-22.445313-12.269531-1.691406-.199219-1.796874-.441406-2.234374-1.464843-1.664063-3.867188-1.664063-12.792969-1.664063-15.726563 0-10.226563-4.640625-18.996094-13.070313-24.691406-6.902343-4.664063-14.847656-6.324219-19.980468-6.324219-5.136719 0-13.082032 1.660156-19.980469 6.324219-8.429687 5.695312-13.070313 14.464843-13.070313 24.691406 0 2.933594 0 11.859375-1.664062 15.726563-.4375 1.023437-.542969 1.265624-2.234375 1.464843-10.273437 1.207031-17.757813 5.332031-22.445313 12.269531-2.347656-.234374-4.964843-.222656-8.527343.304688-1.488281.21875-1.585938.097656-2.230469-.710938-2.496094-3.15625-4.742188-11.453124-5.476562-14.179687-5.449219-20.144531-26.082032-24.285156-39-20.792969-4.832032 1.308594-11.878907 4.890625-17.183594 11.03125-6.488282 7.511719-8.625 16.949219-6.023438 26.582032.738282 2.726562 2.980469 11.027343 2.414063 15.007812-.144531 1.023438-.167969 1.179688-1.566407 1.742188-10.960937 4.390624-23.085937 14.269531-18.597656 36.378906.890625 4.394531 2.742188 8.765625 4.53125 12.996094 2.625 6.199218 5.335938 12.609374 3.667969 16.191406-.886719 1.90625-2.078125 3.71875-3.335937 5.640625-5.238282 7.980469-11.757813 17.910156-5.246094 43.648437 2.757812 10.886719 1.65625 14.304688-.164063 19.960938-1.273437 3.964844-2.863281 8.898437-3.519531 16.667968-1.09375 12.878907 3.613281 26.03125 12.914062 36.082032 10.511719 11.359375 25.964844 17.597656 43.566407 17.597656h.519531c2.414062-.015625 4.75 0 6.9375.054688.0625.003906.128906.003906.191406.003906 4.054688 0 7.390625-3.234375 7.492188-7.3125.105468-4.140625-3.167969-7.582032-7.308594-7.6875-2.347656-.058594-4.847656-.078125-7.421875-.0625-17.367187.160156-27.511719-6.882813-32.96875-12.78125-6.347656-6.859375-9.703125-16.066406-8.976563-24.628906.511719-6.066407 1.703126-9.765626 2.851563-13.339844 2.179687-6.773438 4.238281-13.171875.429687-28.234375-4.898437-19.34375-1.125-25.085938 3.238282-31.738281 1.5-2.285157 3.050781-4.644532 4.398437-7.539063 4.476563-9.621094.265625-19.578125-3.453125-28.367187-1.570312-3.710938-3.050781-7.21875-3.644531-10.136719-1.816406-8.949219-.863281-15.328125 9.480469-19.472657 15.703125-6.296874 11.097656-23.320312 8.050781-34.585937-1.316406-4.875-.371094-9.085937 2.894531-12.863281 2.878906-3.335938 7.070313-5.632813 9.746094-6.355469.167969-.046875 16.855469-3.628906 20.605469 10.226563 2.84375 10.519531 7.042969 26.058593 21.210937 26.058593 1.003906 0 2.0625-.078125 3.175782-.246093.359374-.050782.683593-.09375 1.003906-.128907-.164063 1.21875-.300782 2.46875-.382813 3.769531-.292969 4.597657.371094 9.449219 1.015625 14.140626.949219 6.949218 1.933594 14.132812-.769531 17.34375-1.410156 1.671874-3.09375 3.167968-4.878906 4.75-3.203125 2.847656-6.753907 5.996093-9.769531 10.914062l-13.777344-51.101562c-1.082032-4-5.195313-6.375-9.195313-5.289063-4 1.078125-6.367187 5.195313-5.289062 9.191406l14.628906 54.246094-13.859375-17.371094c-2.582031-3.234375-7.300781-3.765625-10.542969-1.183593-3.238281 2.582031-3.765625 7.300781-1.183593 10.539062l31.550781 39.550781c-.824219 5.894531-2.582031 8.617188-5.078125 12.460938-2.335938 3.601562-5.242188 8.085937-7.988282 15.632812-.265624.738281-.511718 1.484375-.742187 2.238281l-12.632813-13.683593c-2.808593-3.042969-7.550781-3.234375-10.597656-.421875-3.042968 2.808594-3.230468 7.554687-.421875 10.597656l22.167969 24.015625c.8125 5.65625 2.601562 11.261719 5.363281 16.539063 7.402344 14.128906 21.121094 24.480468 38.652344 29.203124l4.742187 17.542969c-2.582031-1.511719-5.332031-2.839843-8.277343-3.960937-3.871094-1.476563-8.203125.46875-9.679688 4.335937-1.472656 3.871094.46875 8.207031 4.339844 9.683594 12.589844 4.796875 20.097656 13.921875 24.339844 29.582031l35.484375 131.207032v54.539062c0 4.144531 3.359375 7.5 7.5 7.5s7.5-3.355469 7.5-7.5v-54.539062l35.484375-131.210938c3.742187-13.820312 10.152343-22.632812 20.171875-27.738281 8.917968-4.542969 21.105468-6.523438 39.5-6.386719 17.839844.152344 33.472656-6.125 44.085937-17.597656 9.296875-10.050782 14.003907-23.203125 12.914063-36.082032zm-201.144532 35.886719c2.167969.808594 4.207032 1.636719 6.113282 2.488281-1.429688 1.921876-2.710938 3.894532-3.839844 5.910157zm12.992188 48.03125s0-.003906-.003906-.007812c-4.238282-15.671875-2.410156-27.28125 6.144531-37.863281.738281.585937 1.457031 1.179687 2.132813 1.789062 8.679687 7.855469 12.722656 18.445312 12.722656 33.332031v.007813 80.382812zm35.996094-2.777343c.003906-14.871094 4.046875-25.457032 12.722656-33.304688.675781-.609375 1.394531-1.203125 2.128906-1.789062 8.558594 10.582031 10.386719 22.191406 6.148438 37.863281-.003906.003906-.003906.003906-.003906.003906l-20.996094 77.644531zm31.714844-36.855469c-1.128907-2.015625-2.410157-3.988281-3.839844-5.910157 1.90625-.855468 3.945312-1.679687 6.113281-2.488281zm96.515624-18.390625c-5.457031 5.898437-15.585937 12.914062-32.96875 12.785156-17.71875-.089844-35.171874 1.460938-49.089843 9.601562l4.777343-17.65625c17.53125-4.722656 31.25-15.074218 38.652344-29.203124 2.761719-5.277344 4.550782-10.882813 5.363282-16.539063l22.167968-24.015625c2.8125-3.042969 2.621094-7.789062-.421875-10.597656-3.042969-2.8125-7.789062-2.621094-10.597656.421875l-12.632813 13.683593c-.230468-.75-.476562-1.5-.742187-2.238281-2.746094-7.546875-5.652344-12.03125-7.988281-15.632812-2.496094-3.84375-4.253906-6.566407-5.078125-12.460938l31.550781-39.550781c2.585938-3.238281 2.054688-7.957031-1.183594-10.539062-3.238281-2.582032-7.957031-2.050782-10.539062 1.183593l-13.859375 17.371094 14.625-54.246094c1.078125-3.996093-1.289063-8.113281-5.289063-9.191406-4-1.082031-8.113281 1.289063-9.191406 5.289063l-13.78125 51.101562c-3.015625-4.917969-6.566406-8.066406-9.769531-10.914062-1.785157-1.582032-3.46875-3.078126-4.878907-4.75-2.667968-3.167969-7.398437-3.578126-10.566406-.90625-3.167968 2.667968-3.574218 7.398437-.90625 10.566406 2.109375 2.507812 4.289063 4.441406 6.394532 6.3125 6.195312 5.496094 11.542968 10.242187 11.882812 30.976562.257812 15.988282 4.019531 21.785156 8.003906 27.925782 2.121094 3.269531 4.3125 6.648437 6.472656 12.59375 3.058594 8.410156 2.191407 18.578124-2.324218 27.195312-3.878906 7.40625-12.164063 17.195312-29.605469 21.78125-20.878906 5.488281-34.464844 11.804688-44.046875 20.472656-.925781.835938-1.808594 1.703125-2.660156 2.585938v-20.347656l47.179687-86.5c1.984375-3.636719.644531-8.191407-2.992187-10.175782-3.636719-1.984375-8.191406-.640625-10.175782 2.992188l-34.011718 62.355468v-65.242187l23.441406-54.695313c1.632812-3.808593-.132812-8.21875-3.9375-9.847656-3.808594-1.636718-8.214844.132813-9.847656 3.9375l-9.65625 22.527344v-59.652344c0-4.144531-3.359375-7.5-7.5-7.5s-7.5 3.355469-7.5 7.5v59.65625l-9.65625-22.53125c-1.628906-3.808594-6.039063-5.570312-9.847656-3.9375-3.804688 1.632813-5.570313 6.039063-3.9375 9.847656l23.441406 54.695313v65.246094l-34.011719-62.359375c-1.984375-3.632813-6.539063-4.976563-10.175781-2.992188-3.636719 1.984375-4.976563 6.539063-2.992188 10.175782l47.179688 86.5v20.347656c-.851563-.882813-1.734375-1.75-2.660156-2.585938-9.582032-8.667968-23.167969-14.980468-44.046876-20.472656-17.445312-4.585938-25.726562-14.375-29.605468-21.78125-4.515625-8.617188-5.382813-18.785156-2.324219-27.195312 2.15625-5.945313 4.351563-9.324219 6.472656-12.59375 3.984375-6.140626 7.746094-11.9375 8.003907-27.925782.335937-20.730468 5.6875-25.480468 11.882812-30.976562 2.105469-1.871094 4.285156-3.804688 6.394531-6.3125 6.996094-8.304688 5.488281-19.320313 4.15625-29.039063-.566406-4.140625-1.101562-8.054687-.902343-11.148437.609374-9.550782 3.320312-15.742188 14.933593-17.109375 17.144531-2.015625 17.144531-20.109375 17.144531-32.085938 0-15.074219 17.871094-16.015625 18.050782-16.015625.179687 0 18.050781.9375 18.050781 16.015625 0 11.976563 0 30.070313 17.148437 32.085938 11.609376 1.367187 14.320313 7.558593 14.933594 17.109375.261719 4.132812 3.8125 7.289062 7.960938 7.003906 4.132812-.261719 7.273437-3.828125 7.007812-7.960938-.082031-1.300781-.21875-2.546874-.382812-3.769531.320312.039063.648437.078125 1.003906.132813 16.730469 2.476562 21.339844-14.546875 24.390625-25.8125 3.746094-13.859375 20.4375-10.273438 20.601563-10.230469 2.675781.726563 6.871093 3.023437 9.75 6.355469 3.261718 3.78125 4.210937 7.988281 2.890624 12.863281-3.046874 11.265625-7.648437 28.289063 8.054688 34.585937 10.34375 4.144532 11.292969 10.523438 9.476562 19.472657-.589843 2.917969-2.074218 6.425781-3.644531 10.136719-3.71875 8.789062-7.929687 18.746093-3.449219 28.371093 1.34375 2.890625 2.894532 5.253907 4.394532 7.535157 4.363281 6.652343 8.136718 12.394531 3.238281 31.738281-3.808594 15.0625-1.75 21.460937.429687 28.234375 1.148438 3.578125 2.339844 7.273437 2.851563 13.339844.726563 8.5625-2.628906 17.769531-8.976563 24.628906zm0 0"/></svg>