<svg height="512pt" viewBox="-96 0 512 512.00054" width="512pt" xmlns="http://www.w3.org/2000/svg"><path d="m140.71875 227.105469c-17.015625-36.714844 10.554688-60.636719 23.046875-85.007813 13.3125-25.976562-15.195313-49.636718-33.820313-32.085937-18.628906 17.550781-15.546874-25.132813-16.621093-57.523438-1.566407-47.328125-41.90625-51.941406-71.277344-38.332031-29.375 13.609375-51.933594 47.367188-16.839844 79.160156 24.019531 21.761719 58.574219 47.003906 33.140625 49.871094-25.429687 2.863281-25.808594 39.910156 2.613282 46.542969 26.671874 6.226562 62.746093.660156 79.757812 37.375zm0 0" fill="#96d7a5"/><path d="m257.386719 352.1875c0 35.417969-30.625 64.132812-88.179688 64.132812-57.554687 0-88.179687-28.714843-88.179687-64.132812s30.625-64.128906 88.179687-64.128906c57.554688 0 88.179688 28.710937 88.179688 64.128906zm0 0" fill="#fff6d8"/><path d="m193.257812 392.269531c-57.554687 0-88.179687-28.710937-88.179687-64.128906 0-9.5625 2.304687-18.601563 6.695313-26.75-20.199219 11.726563-30.746094 30.089844-30.746094 50.796875 0 35.417969 30.625 64.132812 88.179687 64.132812 42.023438 0 69.613281-15.335937 81.488281-37.382812-14.351562 8.328125-33.53125 13.332031-57.4375 13.332031zm0 0" fill="#faebc8"/><path d="m191.859375 238.136719c15.40625-33.253907-9.558594-54.917969-20.875-76.988281-12.058594-23.523438 13.761719-44.953126 30.632813-29.058594 16.867187 15.894531 14.078124-22.761719 15.050781-52.097656 1.417969-42.867188 37.953125-47.042969 64.554687-34.714844 26.601563 12.324218 47.03125 42.894531 15.25 71.691406-21.753906 19.707031-53.046875 42.570312-30.015625 45.164062s23.375 36.144532-2.367187 42.152344c-24.152344 5.640625-56.824219.601563-72.230469 33.851563zm0 0" fill="#96d7a5"/><path d="m169.207031 288.058594c-53.835937 0-84.097656 25.128906-87.785156 57.363281 50.207031-23.117187 77.203125 11.234375 101.0625 20.296875 32.539063 12.351562 56.113281 9.636719 73.136719.5625 1.140625-4.539062 1.765625-9.242188 1.765625-14.089844 0-35.421875-30.625-64.132812-88.179688-64.132812zm0 0" fill="#d7bef0"/><path d="m106.015625 338.152344c-.566406-3.269532-.9375-6.597656-.9375-10.011719 0-9.5625 2.304687-18.601563 6.695313-26.75-17.960938 10.425781-28.238282 26.109375-30.308594 44.011719 8.882812-4.085938 17.011718-6.304688 24.550781-7.25zm0 0" fill="#c3a5eb"/><path d="m266.839844 77.675781c-3.757813-1.746093-8.21875-.109375-9.960938 3.648438l-35.804687 77.277343c-1.742188 3.757813-.105469 8.214844 3.652343 9.957032 1.019532.472656 2.09375.695312 3.148438.695312 2.828125 0 5.539062-1.609375 6.808594-4.347656l35.804687-77.273438c1.746094-3.757812.109375-8.214843-3.648437-9.957031zm0 0"/><path d="m319.550781 79.355469c-2.488281-16.359375-15.761719-31.957031-34.632812-40.699219-18.871094-8.746094-39.347657-8.785156-53.441407-.109375-8.84375 5.445313-19.554687 16.914063-20.339843 40.613281-.152344 4.675782-.214844 9.613282-.269531 14.386719-.117188 9.582031-.296876 24.59375-1.917969 31.253906-9.652344-9.007812-23.1875-9.753906-33.71875-1.84375-.265625.199219-.519531.40625-.773438.613281-.144531-.929687-.320312-1.851562-.542969-2.769531-1.773437-7.355469-6.042968-13.878906-12.019531-18.371093-11.542969-8.675782-26.390625-7.820313-36.945312 2.121093-.398438.375-.75.683594-1.0625.941407-2.25-6.769532-2.472657-25.382813-2.613281-37.035157-.0625-5.382812-.128907-10.953125-.304688-16.21875-.871094-26.332031-12.71875-39.039062-22.503906-45.066406-15.640625-9.625-38.410156-9.558594-59.425782.179687-21.015624 9.738282-35.785156 27.0625-38.550781 45.21875-1.730469 11.363282.308594 28.617188 19.832031 46.304688 3.902344 3.539062 8.109376 7.1875 12.175782 10.71875 8.800781 7.640625 22.855468 19.84375 26.566406 25.9375-.398438.070312-.863281.140625-1.40625.199219-14.40625 1.625-24.65625 12.398437-25.503906 26.816406-.4375 7.464844 1.78125 14.941406 6.242187 21.050781 4.921875 6.730469 12.1875 11.378906 21.011719 13.4375 6.386719 1.492188 13.246094 2.34375 19.882812 3.167969 22.285157 2.765625 43.335938 5.378906 54.769532 30.058594.003906 0 .003906.003906.003906.003906l23.5 50.714844c-23.753906 1.675781-43.816406 8.476562-58.5 19.949219-16.371094 12.796874-25.386719 31-25.386719 51.257812 0 20.261719 9.015625 38.464844 25.386719 51.257812 15.558594 12.160157 37.164062 19.070313 62.792969 20.191407v48.796875c0 13.546875-11.019531 24.566406-24.5625 24.566406-4.144531 0-7.5 3.355469-7.5 7.5s3.355469 7.5 7.5 7.5c21.8125 0 39.5625-17.75 39.5625-39.566406v-48.796875c25.628906-1.121094 47.234375-8.03125 62.792969-20.191407 16.371093-12.792968 25.386718-30.996093 25.386718-51.257812 0-20.257812-9.015625-38.460938-25.386718-51.253906-14.730469-11.515625-34.882813-18.328125-58.738282-19.972656l20.273438-43.75c9.929687-21.414063 28.339844-23.699219 47.832031-26.117188 5.898437-.730469 12-1.488281 17.699219-2.820312 15.472656-3.609376 25.671875-16.535157 24.796875-31.433594-.769531-13.148438-10.085938-22.992188-23.203125-24.53125 4.035156-5.542969 15.371094-15.390625 22.605468-21.667969 3.605469-3.132813 7.332032-6.367187 10.800782-9.507813 17.574218-15.921874 19.398437-31.507812 17.835937-41.777343zm-154.839843 76.3125c.621093 2.203125 1.472656 4.390625 2.574218 6.53125 2.667969 5.210937 6.035156 10.351562 9.289063 15.324219 10.757812 16.4375 20.921875 31.96875 10.992187 53.394531 0 .003906-.003906.007812-.003906.007812l-18.328125 39.5625-21.570313-46.550781c-11.421874-24.671875.191407-42.417969 12.484376-61.203125 1.523437-2.328125 3.0625-4.683594 4.5625-7.066406zm-83.574219 29.644531c-6.535157-.808594-12.707031-1.574219-18.320313-2.886719-11.449218-2.671875-16.128906-11.46875-15.6875-19.003906.15625-2.695313 1.503906-11.578125 12.207032-12.785156 8.273437-.929688 13.335937-4.199219 15.050781-9.714844 3.460937-11.132813-9.265625-22.867187-32.054688-42.65625-4.007812-3.476563-8.152343-7.078125-11.941406-10.507813-11.710937-10.609374-16.78125-21.6875-15.070313-32.929687 1.984376-13.042969 13.773438-26.335937 30.027344-33.867187 8.527344-3.949219 17.464844-5.9375 25.660156-5.9375 7.429688 0 14.25 1.636718 19.589844 4.925781 9.683594 5.960937 14.855469 16.992187 15.378906 32.785156.167969 5.109375.234376 10.597656.300782 15.90625.359375 30.175781 1.085937 47.472656 11.816406 52.027344 5.3125 2.261719 11.082031.507812 17.140625-5.199219 7.839844-7.386719 15.492187-2.671875 17.648437-1.046875 6.035157 4.53125 9.71875 13.789063 4.355469 24.253906-2.628906 5.128907-6.035156 10.332031-9.640625 15.84375-6.265625 9.574219-13.289062 20.3125-16.992187 32.609375l-61.195313-132.070312c-1.738281-3.757813-6.199218-5.394532-9.957031-3.652344s-5.394531 6.199219-3.652344 9.957031l61.195313 132.070313c-11.773438-5.125-24.503906-6.710938-35.859375-8.121094zm168.898437 166.875c0 3.050781-.261718 6.003906-.75 8.855469-15.007812 5.785156-55.523437 9.554687-82.632812-13.105469-3.179688-2.65625-7.910156-2.234375-10.566406.941406-2.65625 3.179688-2.234376 7.910156.945312 10.566406 18.964844 15.851563 42.933594 21.128907 63.480469 21.128907 8.0625 0 15.59375-.8125 22.09375-2.117188-12.09375 19.015625-38.242188 30.359375-73.246094 30.359375-49.011719 0-80.683594-22.226562-80.683594-56.628906 0-.644531.035157-1.273438.054688-1.910156 8.617187-5.4375 23.394531-9.804688 39.898437-5.8125 4.023438.972656 8.078125-1.5 9.054688-5.523438.976562-4.027344-1.5-8.082031-5.523438-9.054687-14.738281-3.570313-28.351562-1.96875-39.203125 1.847656 10.1875-22.492187 37.941407-36.167969 76.367188-36.175781h.027343c.007813 0 .015626-.003906.023438-.003906 49 .007812 80.660156 22.234374 80.660156 56.632812zm41.609375-242.175781c-3.347656 3.035156-7.015625 6.21875-10.5625 9.296875-20.457031 17.761718-31.871093 28.316406-28.648437 38.683594 1.628906 5.238281 6.355468 8.335937 14.054687 9.203124 8.8125.992188 9.921875 8.304688 10.054688 10.519532.367187 6.316406-3.578125 13.695312-13.234375 15.949218-4.929688 1.148438-10.371094 1.824219-16.136719 2.542969-9.480469 1.175781-20.023437 2.496094-29.953125 6.402344l3.519531-7.597656c1.742188-3.761719.105469-8.21875-3.652343-9.960938-3.757813-1.742187-8.214844-.105469-9.957032 3.652344l-3.519531 7.601563c-3.445313-10.105469-9.253906-19-14.484375-26.996094-3.179688-4.859375-6.183594-9.449219-8.492188-13.953125-4.523437-8.820313-1.445312-16.605469 3.609376-20.402344 1.046874-.785156 3.65625-2.453125 6.941406-2.453125 2.300781 0 4.929687.8125 7.585937 3.316406 5.640625 5.3125 11.0625 6.921875 16.109375 4.773438 9.992188-4.246094 10.664063-19.777344 10.988282-46.863282.054687-4.695312.113281-9.554687.261718-14.070312.453125-13.683594 4.898438-23.21875 13.214844-28.335938 9.710938-5.980468 25.125-5.609374 39.269531.945313s24.394531 18.074219 26.109375 29.347656c1.46875 9.652344-2.929687 19.207031-13.078125 28.398438zm0 0"/></svg>