<svg id="Capa_1" enable-background="new 0 0 511.659 511.659" height="512" viewBox="0 0 511.659 511.659" width="512" xmlns="http://www.w3.org/2000/svg"><g><g><path d="m403.271 70.991c0 15.768-12.783 28.551-28.551 28.551s-28.551-12.783-28.551-28.551c0-12.149 16.95-46.186 24.73-61.169 1.608-3.097 6.034-3.097 7.642 0 7.78 14.983 24.73 49.02 24.73 61.169z" fill="#fcf0b6"/><path d="m388.911 95.441c-15.768 0-28.551-12.783-28.551-28.551 0-10.214 11.979-35.895 20.418-52.721-.803-1.574-1.557-3.037-2.237-4.347-1.608-3.097-6.034-3.097-7.642 0-7.78 14.983-24.73 49.02-24.73 61.169 0 15.768 12.783 28.551 28.551 28.551 5.408 0 10.464-1.504 14.774-4.116-.195.005-.388.015-.583.015z" fill="#fbe88c"/><g fill="#fcf0b6"><path d="m403.157 174.535h-28.437v-15.131c0-20.659 16.748-37.407 37.407-37.407h22.87c3.075 0 5.567 2.492 5.567 5.567v9.564c0 20.659-16.748 37.407-37.407 37.407z"/><path d="m408.921 259.32h-34.201v-13.004c0-27.117 21.983-49.1 49.1-49.1h28.692c3.043 0 5.509 2.467 5.509 5.509v7.494c0 27.118-21.982 49.101-49.1 49.101z"/><path d="m422.177 358.911-49.927-3.344 1.658-24.755c1.812-27.057 25.215-47.521 52.271-45.709l44.418 2.975c3.042.204 5.343 2.835 5.14 5.878l-1.289 19.247c-1.812 27.055-25.214 47.52-52.271 45.708z"/><path d="m346.283 174.535h28.437v-15.131c0-20.659-16.748-37.407-37.407-37.407h-22.87c-3.075 0-5.567 2.492-5.567 5.567v9.564c0 20.659 16.748 37.407 37.407 37.407z"/></g><g><path d="m412.362 165.851h-37.642v8.684h28.437c12.225 0 23.077-5.866 29.903-14.934-5.928 3.946-13.042 6.25-20.698 6.25z" fill="#fbe88c"/></g><path d="m355.489 165.851c-20.659 0-37.407-16.748-37.407-37.407v-6.447h-3.638c-3.075 0-5.567 2.492-5.567 5.567v9.564c0 20.659 16.748 37.407 37.407 37.407h28.437v-8.684z" fill="#fbe88c"/><path d="m340.519 259.32h34.201v-13.004c0-27.117-21.983-49.1-49.1-49.1h-28.447c-3.178 0-5.754 2.576-5.754 5.754v7.249c0 27.118 21.982 49.101 49.1 49.101z" fill="#fcf0b6"/><g><path d="m419.459 248.227h-44.739v11.092h34.201c16.776 0 31.579-8.419 40.436-21.256-8.281 6.369-18.644 10.164-29.898 10.164z" fill="#fbe88c"/></g><path d="m351.056 248.227c-27.117 0-49.1-21.983-49.1-49.1v-1.911h-4.783c-3.178 0-5.754 2.576-5.754 5.754v7.249c0 27.117 21.983 49.1 49.1 49.1h34.201v-11.092z" fill="#fbe88c"/><path d="m322.324 352.223 49.927 3.344 1.658-24.755c1.812-27.057-18.653-50.459-45.709-52.271l-44.418-2.975c-3.042-.204-5.674 2.097-5.878 5.14l-1.289 19.247c-1.812 27.055 18.652 50.458 45.709 52.27z" fill="#fcf0b6"/><g><path d="m439.063 346.584-65.92-4.345-.893 13.329 49.927 3.344c15.629 1.047 30.028-5.349 39.762-16.145-6.993 2.936-14.77 4.351-22.876 3.817z" fill="#fbe88c"/></g><path d="m337.611 339.896c-27.49-1.812-48.282-25.215-46.441-52.271l.783-11.512-8.172-.547c-3.042-.204-5.674 2.097-5.878 5.14l-1.289 19.247c-1.812 27.057 18.653 50.459 45.709 52.271l49.927 3.344.893-13.329z" fill="#fbe88c"/><path d="m108.388 70.991c0 15.768 12.783 28.551 28.551 28.551s28.551-12.782 28.551-28.551c0-12.149-16.95-46.186-24.73-61.169-1.608-3.097-6.034-3.097-7.642 0-7.78 14.983-24.73 49.02-24.73 61.169z" fill="#fcf0b6"/><path d="m124.144 66.634c0-9.879 11.206-34.228 19.577-51.039-1.078-2.126-2.081-4.076-2.962-5.773-1.608-3.097-6.034-3.097-7.642 0-7.78 14.983-24.73 49.02-24.73 61.169 0 15.768 12.783 28.551 28.551 28.551 5.579 0 10.771-1.592 15.169-4.358-15.499-.31-27.963-12.976-27.963-28.55z" fill="#fbe88c"/><path d="m108.502 174.535h28.437v-15.131c0-20.659-16.748-37.407-37.407-37.407h-22.87c-3.075 0-5.567 2.492-5.567 5.567v9.564c0 20.659 16.748 37.407 37.407 37.407z" fill="#fcf0b6"/><path d="m119.87 167.759c-20.741 0-37.555-16.814-37.555-37.555v-8.207h-5.653c-3.075 0-5.567 2.492-5.567 5.567v9.564c0 20.659 16.748 37.407 37.407 37.407h28.437v-6.776z" fill="#fbe88c"/><path d="m102.737 259.32h34.201v-13.004c0-27.117-21.983-49.1-49.1-49.1h-30.805c-1.875 0-3.396 1.52-3.396 3.396v9.608c0 27.117 21.983 49.1 49.1 49.1z" fill="#fcf0b6"/><path d="m89.482 358.911 49.927-3.344-1.658-24.755c-1.812-27.057-25.215-47.521-52.271-45.709l-45.823 3.069c-2.267.152-3.981 2.112-3.829 4.379l1.383 20.651c1.811 27.056 25.214 47.521 52.271 45.709z" fill="#fcf0b6"/><path d="m165.376 174.535h-28.437v-15.131c0-20.659 16.748-37.407 37.407-37.407h22.87c3.075 0 5.567 2.492 5.567 5.567v9.564c-.001 20.659-16.748 37.407-37.407 37.407z" fill="#fcf0b6"/><path d="m174.847 167.716h-37.909v6.819h28.437c10.264 0 19.56-4.137 26.319-10.831-5.064 2.56-10.784 4.012-16.847 4.012z" fill="#fbe88c"/><path d="m171.14 259.32h-34.201v-13.004c0-27.117 21.983-49.1 49.1-49.1h30.806c1.875 0 3.396 1.52 3.396 3.396v9.608c-.001 27.117-21.984 49.1-49.101 49.1z" fill="#fcf0b6"/><g><path d="m180.964 249.438h-44.025v9.881h34.201c16.128 0 30.438-7.777 39.389-19.784-8.225 6.214-18.463 9.903-29.565 9.903z" fill="#fbe88c"/></g><path d="m112.561 249.438c-27.117 0-49.1-21.983-49.1-49.1v-3.122h-6.428c-1.875 0-3.396 1.52-3.396 3.396v9.608c0 27.117 21.983 49.1 49.1 49.1h34.201v-9.881h-24.377z" fill="#fbe88c"/><path d="m189.335 352.223-49.927 3.344-1.658-24.755c-1.812-27.057 18.653-50.459 45.709-52.271l45.823-3.069c2.267-.152 4.227 1.563 4.379 3.829l1.383 20.651c1.812 27.056-18.653 50.459-45.709 52.271z" fill="#fcf0b6"/><g><path d="m204.677 337.463-66.191 4.346.921 13.758 49.927-3.344c15.664-1.049 29.107-9.343 37.309-21.384-6.494 3.736-13.942 6.098-21.966 6.624z" fill="#fbe88c"/></g><path d="m102.821 344.151c-27.599 1.812-51.472-18.653-53.32-45.709l-.743-10.88-9.101.61c-2.267.152-3.981 2.112-3.829 4.379l1.383 20.651c1.812 27.057 25.215 47.521 52.271 45.709l49.927-3.344-.921-13.758z" fill="#fbe88c"/></g><g><path d="m240.869 274.696c-.133-1.985-1.049-3.835-2.546-5.145-1.498-1.309-3.462-1.971-5.438-1.837l-49.927 3.344c-14.934 1-28.591 7.706-38.52 18.883v-23.12h26.701c31.209 0 56.6-25.391 56.6-56.6v-13.004c0-4.142-3.358-7.5-7.5-7.5h-34.201c-16.436 0-31.251 7.048-41.6 18.275v-25.955h20.937c24.762 0 44.907-20.145 44.907-44.907v-9.564c0-7.205-5.862-13.067-13.067-13.067h-22.87c-11.48 0-21.961 4.337-29.907 11.451v-19.696c16.29-3.461 28.551-17.954 28.551-35.261 0-12.708-13.907-42.158-25.574-64.625-2.038-3.929-6.053-6.368-10.476-6.368-4.424 0-8.438 2.439-10.478 6.366-11.667 22.468-25.574 51.919-25.574 64.625 0 17.307 12.261 31.8 28.551 35.261v19.712c-7.947-7.119-18.423-11.467-29.907-11.467h-22.87c-7.205 0-13.067 5.862-13.067 13.067v9.564c0 24.762 20.145 44.907 44.907 44.907h20.937v25.962c-10.347-11.23-25.161-18.282-41.6-18.282h-34.201c-4.142 0-7.5 3.358-7.5 7.5v13.004c0 31.209 25.391 56.6 56.6 56.6h26.702v27.974c-11.189-11.565-27.191-18.332-44.461-17.175l-49.926 3.344c-4.133.277-7.259 3.852-6.982 7.984l1.658 24.756c2 29.86 26.933 52.822 56.436 52.819 1.264 0 2.542-.042 3.82-.128l43.831-2.935c9.083 53.278 32.127 103.661 67.117 145.511 1.483 1.774 3.613 2.689 5.758 2.689 1.697 0 3.403-.573 4.807-1.746 3.178-2.657 3.6-7.387.943-10.564-32.951-39.411-54.774-86.778-63.589-136.897l40.989-2.745c.394-.026.783-.064 1.173-.104l.366-.037c4.124-.388 7.152-4.045 6.764-8.169-.387-4.124-4.047-7.151-8.169-6.764l-.47.046c-.223.022-.445.046-.667.061l-42.195 2.826c-.214-1.737-1.405-17.255-1.405-17.255-.743-11.087 2.876-21.799 10.191-30.164 7.314-8.365 17.448-13.38 28.535-14.123l42.444-2.843 1.156 17.272c.832 12.412-3.88 24.442-12.926 33.007-3.008 2.848-3.138 7.595-.29 10.603s7.595 3.138 10.603.29c12.304-11.649 18.711-28.015 17.58-44.902zm-54.83-69.98h26.701v5.504c0 22.938-18.662 41.6-41.6 41.6h-26.701v-5.504c0-22.939 18.661-41.6 41.6-41.6zm-11.694-75.219h20.937v7.631c0 16.491-13.416 29.907-29.907 29.907h-20.937v-7.631c.001-16.491 13.417-29.907 29.907-29.907zm-58.458-58.506c0-6.64 8.166-26.812 21.051-52.192 12.885 25.378 21.051 45.551 21.051 52.192 0 11.608-9.443 21.051-21.051 21.051-11.607 0-21.051-9.443-21.051-21.051zm-7.385 96.044c-16.491 0-29.907-13.416-29.907-29.907v-7.631h20.937c16.491 0 29.907 13.416 29.907 29.907v7.631zm-5.765 84.785c-22.938 0-41.6-18.662-41.6-41.6v-5.504h26.701c22.938 0 41.6 18.662 41.6 41.6v5.504zm28.687 96.765-42.443 2.842c-22.896 1.524-42.754-15.84-44.287-38.727l-1.157-17.272 42.443-2.842c21.687-1.452 40.631 14.056 43.881 35.142.272 5.292 1.563 20.857 1.563 20.857z"/><path d="m476.607 280.963-39.396-2.639c-4.128-.272-7.708 2.85-7.984 6.982s2.849 7.708 6.982 7.984l31.913 2.137-1.157 17.272c-1.533 22.887-21.388 40.257-44.287 38.727l-42.443-2.842s1.286-15.504 1.559-20.765c2.218-14.403 11.979-26.875 25.643-32.358 3.844-1.542 5.71-5.909 4.167-9.753s-5.911-5.712-9.753-4.167c-7.522 3.018-14.172 7.598-19.63 13.275v-27.996h26.702c31.209 0 56.6-25.391 56.6-56.6v-13.004c0-4.142-3.358-7.5-7.5-7.5h-34.203c-16.437 0-31.252 7.05-41.6 18.277v-25.958h20.937c24.762 0 44.907-20.145 44.907-44.907v-9.564c0-7.205-5.862-13.067-13.067-13.067h-22.87c-11.479 0-21.959 4.337-29.907 11.449v-19.694c16.29-3.461 28.551-17.954 28.551-35.261 0-1.831-.251-3.919-.767-6.384-.849-4.054-4.824-6.649-8.878-5.803-4.054.849-6.652 4.824-5.803 8.878.391 1.863.449 2.873.449 3.309 0 11.608-9.443 21.051-21.051 21.051s-21.051-9.443-21.051-21.051c0-6.64 8.166-26.813 21.05-52.191 2.969 5.85 6.541 13.102 9.925 20.52 1.72 3.769 6.171 5.429 9.937 3.711 3.769-1.719 5.43-6.168 3.711-9.937-4.687-10.274-9.708-20.206-13.095-26.729-2.041-3.926-6.055-6.365-10.478-6.365s-8.438 2.439-10.478 6.366c-11.667 22.468-25.573 51.918-25.573 64.625 0 17.307 12.26 31.8 28.551 35.261v19.71c-7.948-7.117-18.423-11.465-29.907-11.465h-22.87c-7.205 0-13.067 5.862-13.067 13.067v9.564c0 24.762 20.145 44.907 44.907 44.907h20.937v25.956c-10.349-11.226-25.164-18.276-41.6-18.276h-34.201c-4.142 0-7.5 3.358-7.5 7.5v13.004c0 31.209 25.391 56.6 56.6 56.6h26.701v23.12c-9.928-11.177-23.585-17.882-38.52-18.883l-49.927-3.344c-1.98-.129-3.94.528-5.438 1.837-1.498 1.31-2.413 3.16-2.546 5.145l-1.658 24.754c-1.01 15.085 3.914 29.66 13.866 41.041s23.74 18.205 38.825 19.215l40.986 2.745c-8.815 50.119-30.638 97.485-63.589 136.897-2.657 3.178-2.234 7.908.943 10.564 1.404 1.173 3.11 1.746 4.807 1.746 2.145 0 4.274-.915 5.758-2.689 34.99-41.85 58.034-92.233 67.117-145.511l43.831 2.935c1.281.085 2.555.128 3.82.128 29.5 0 54.435-22.961 56.436-52.819l1.658-24.755c.277-4.131-2.849-7.705-6.982-7.982zm-52.787-76.247h26.701v5.504c0 22.938-18.662 41.6-41.6 41.6h-26.701v-5.504c0-22.939 18.662-41.6 41.6-41.6zm-11.693-75.219h20.937v7.631c0 16.491-13.416 29.907-29.907 29.907h-20.937v-7.631c0-16.491 13.416-29.907 29.907-29.907zm-65.844 37.538c-16.491 0-29.907-13.416-29.907-29.907v-7.631h20.937c16.491 0 29.907 13.416 29.907 29.907v7.631zm-5.764 84.785c-22.938 0-41.6-18.662-41.6-41.6v-5.504h26.701c22.938 0 41.6 18.662 41.6 41.6v5.504zm-17.694 92.92c-11.087-.742-21.221-5.758-28.536-14.123s-10.934-19.077-10.191-30.165l1.156-17.271 42.444 2.843c11.087.742 21.221 5.758 28.535 14.123 7.315 8.365 10.934 19.077 10.191 30.164 0 0-1.191 15.519-1.405 17.256z"/></g></g></svg>