<svg id="Capa_1" enable-background="new 0 0 512.375 512.375" height="512" viewBox="0 0 512.375 512.375" width="512" xmlns="http://www.w3.org/2000/svg"><g><g><g><path d="m268.453 379.367c1.002-16.518-.621-33.24-4.958-49.532l-11.916-44.758c-1.722-6.467-8.36-10.314-14.827-8.592l-139.417 37.116c-6.467 1.722-10.314 8.36-8.592 14.827l11.916 44.758c4.647 17.456 12.242 33.793 22.305 48.385l30.049 43.809 115.726-37.467z" fill="#ded4cf"/></g><path d="m268.739 427.912-.286-48.545c.304-5.003.362-10.025.181-15.048-4.124-.362-8.276-.549-12.447-.549-.002 0 .002 0 0 0-34.472 0-67.74 12.514-93.669 35.237l-6.956 6.099c-2.075 1.819-4.82 2.681-7.562 2.375-3.518-.393-6.573-2.641-7.946-5.904-2.768-6.577-5.098-13.372-6.955-20.348l-11.916-44.758c-1.711-6.427 2.078-13.023 8.472-14.794 2.539-.703 5.225.536 6.286 2.947 6.006 13.647 19.611 22.763 34.863 22.765h.003c3.303 0 6.606-.434 9.818-1.289 9.837-2.619 18.066-8.912 23.17-17.72 4.1-7.075 5.783-15.092 4.93-23.071-.279-2.605 1.328-5.037 3.86-5.711l40.022-10.655-1.029-3.865c-1.722-6.467-8.36-10.314-14.827-8.592l-139.416 37.115c-6.467 1.722-10.314 8.36-8.592 14.827l11.916 44.758c4.647 17.456 12.242 33.793 22.305 48.385l30.049 43.809 22.032-7.133z" fill="#cbc0bb"/><g><path d="m132.335 110.014 41.355 155.34 11.786 42.253-27.218 8.165-11.762-43.178-41.355-155.34-6.083-20.25 26.538-8.506z" fill="#f2eae7"/></g><g><path d="m355.158 423.604 16.9-1.89c26.64-2.98 53.1 6.91 71.26 26.62l10.06 10.92 36.69 9.28c8.2 2.07 13.93 9.44 13.93 17.89 0 5.09-2.07 9.71-5.4 13.05-3.34 3.34-7.95 5.4-13.05 5.4h-458.72c-10.19 0-18.45-8.26-18.45-18.45 0-4.23 1.43-8.18 3.89-11.34 2.46-3.15 5.94-5.51 10.04-6.55l36.69-9.28 10.06-10.92c18.16-19.71 44.62-29.6 71.26-26.62l16.9 1.89 15.19-13.32c47.95-42.02 119.61-42.02 167.56 0z" fill="#c9a291"/><g id="XMLID_133_"><g><path d="m119.838 8.804c31.63-8.43 57.43 25.93 40.52 53.96l-20.83 34.51c-10.12 16.77-31.71 22.52-48.83 13l-35.23-19.59c-28.61-15.9-23.31-58.54 8.32-66.96zm14.83 38.46c.55-.91 2.23-3.69-.36-7.14-2.58-3.44-5.72-2.61-6.75-2.33l-56.05 14.92c-1.03.27-4.17 1.11-4.7 5.38-.53 4.28 2.31 5.85 3.24 6.37l35.23 19.59c1.86 1.04 3.61.89 4.74.59 1.14-.3 2.73-1.05 3.83-2.87z" fill="#cbc0bb"/></g></g><path d="m175.294 264.928-30.401 8.093c-3.94 1.049-6.283 5.093-5.234 9.033l8.829 33.162c3.284 12.335 15.945 19.672 28.28 16.388 12.335-3.284 19.672-15.945 16.388-28.28l-8.829-33.162c-1.049-3.94-5.094-6.283-9.033-5.234z" fill="#f2eae7"/><path d="m187.203 325.313c-12.335 3.284-24.996-4.053-28.28-16.388l-5.976-22.449c-1.049-3.94 1.295-7.984 5.234-9.033l26.225-6.982-.08-.3c-1.049-3.94-5.093-6.283-9.033-5.234l-30.401 8.093c-3.94 1.049-6.283 5.093-5.234 9.033l8.829 33.162c3.284 12.335 15.945 19.672 28.28 16.388 4.277-1.139 7.951-3.406 10.792-6.395-.12.035-.236.073-.356.105z" fill="#ede2dd"/></g><path d="m498.099 488.859h-419.787c-5.721 0-7.931-7.446-3.136-10.567l5.656-3.682c1.725-1.123 3.323-2.436 4.724-3.944 19.465-20.957 47.042-31.369 74.801-28.096l.798.094c11.036 1.301 22.089-2.293 30.25-9.836l3.489-3.225c37.547-34.681 88.601-44.122 133.508-28.337-47.36-32.748-111.765-29.742-155.996 9.019l-15.19 13.32-16.9-1.89c-26.64-2.98-53.1 6.91-71.26 26.62l-10.06 10.92-36.69 9.28c-4.1 1.04-7.58 3.4-10.04 6.55-2.46 3.16-3.89 7.11-3.89 11.34 0 8.453 5.691 15.562 13.446 17.745 1.593.449 3.267.705 5.004.705h458.72c5.1 0 9.71-2.06 13.05-5.4 3.002-3.011 4.965-7.067 5.325-11.565-1.83.607-3.784.949-5.822.949z" fill="#be8f7d"/></g><g><path d="m491.908 461.259-34.528-8.727-8.545-9.277c-5.295-5.749-11.329-10.812-17.935-15.049-3.487-2.237-8.126-1.223-10.362 2.264-2.236 3.486-1.223 8.126 2.264 10.362 5.526 3.544 10.573 7.779 15 12.585l10.058 10.92c.987 1.072 2.266 1.833 3.679 2.19l36.694 9.274c4.869 1.23 8.27 5.598 8.27 10.62 0 6.04-4.914 10.954-10.953 10.954h-458.724c-6.04 0-10.953-4.914-10.953-10.954 0-5.022 3.4-9.389 8.27-10.62l36.694-9.274c1.413-.357 2.691-1.118 3.679-2.19l10.058-10.92c16.475-17.887 40.739-26.951 64.907-24.252l.006.001-9.215 8.076c-3.115 2.73-3.427 7.469-.697 10.584s7.468 3.427 10.584.697l37.197-32.599c21.821-19.124 49.817-29.655 78.832-29.655s57.011 10.532 78.832 29.655l37.197 32.599c1.423 1.247 3.186 1.859 4.94 1.859 2.085 0 4.161-.865 5.644-2.557 2.73-3.115 2.417-7.854-.697-10.584l-9.215-8.076.006-.001c7.591-.849 15.252-.557 22.768.866 4.068.771 7.994-1.904 8.764-5.974s-1.904-7.994-5.974-8.764c-8.986-1.701-18.146-2.051-27.224-1.035l-13.615 1.522-12.707-11.136c-19.488-17.079-43.355-28.06-68.696-31.87.267-15.139-1.564-30.2-5.469-44.868l-11.916-44.758c-2.783-10.453-13.553-16.69-24.003-13.91l-40.137 10.685-3.112-11.689c-1.022-3.841-3.48-7.055-6.919-9.048-1.673-.97-3.482-1.587-5.339-1.855l-20.484-76.943c-1.065-4.003-5.172-6.383-9.177-5.318-4.002 1.065-6.383 5.174-5.318 9.177l20.177 75.79-12.699 3.381-37.642-141.387c4.365-.578 8.62-1.819 12.622-3.671l9.318 35.001c.894 3.356 3.926 5.572 7.243 5.572.639 0 1.288-.083 1.935-.254 4.002-1.065 6.383-5.174 5.318-9.177l-10.765-40.435c2.277-2.357 4.341-4.989 6.109-7.918l20.826-34.511c9.436-15.636 8.485-34.421-2.479-49.025-10.965-14.604-28.74-20.759-46.387-16.06l-56.055 14.923c-17.648 4.698-30.009 18.874-32.262 36.997-2.252 18.122 6.264 34.894 22.225 43.768l35.228 19.588c3.671 2.041 7.502 3.487 11.389 4.403l39.188 147.198c-1.478 1.156-2.741 2.591-3.71 4.264-1.993 3.439-2.527 7.449-1.505 11.291l3.112 11.69-40.117 10.68c-5.064 1.348-9.3 4.587-11.927 9.121s-3.332 9.819-1.984 14.883l6.543 24.577c.894 3.356 3.926 5.572 7.243 5.572.639 0 1.288-.083 1.935-.254 4.002-1.065 6.383-5.174 5.318-9.177l-6.543-24.576c-.317-1.192-.151-2.437.467-3.503.619-1.067 1.615-1.83 2.808-2.147l40.118-10.68 1.858 6.977c2.104 7.901 7.158 14.511 14.233 18.61 4.727 2.739 9.977 4.139 15.298 4.139 2.643 0 5.304-.345 7.926-1.043 7.901-2.104 14.511-7.158 18.61-14.233s5.199-15.322 3.095-23.224l-1.858-6.977 40.137-10.685c2.459-.654 4.994.813 5.649 3.274l11.916 44.758c3.448 12.951 5.098 26.241 4.965 39.606-1.671-.062-3.346-.102-5.024-.102-32.653 0-64.161 11.853-88.719 33.374l-12.707 11.136-13.615-1.522c-4.792-.536-9.586-.676-14.341-.454-6.562-10.121-11.882-21.016-15.816-32.454-1.348-3.917-5.615-5.999-9.532-4.653-3.917 1.348-6 5.615-4.653 9.532 3.575 10.392 8.205 20.367 13.771 29.801-17.856 4.096-34.372 13.477-47.035 27.226l-8.545 9.277-34.528 8.727c-11.539 2.915-19.596 13.262-19.596 25.161 0 14.311 11.643 25.954 25.953 25.954h458.723c14.311 0 25.953-11.643 25.953-25.954 0-11.899-8.057-22.246-19.594-25.162zm-432.798-377.128c-12.558-6.982-15.79-19.46-14.628-28.81 1.162-9.349 7.35-20.655 21.235-24.352l56.054-14.923c2.705-.72 5.296-1.044 7.763-1.044 10.198 0 18.214 5.548 22.769 11.615 5.657 7.534 9.056 19.967 1.632 32.269l-20.826 34.511c-8.078 13.385-25.108 17.917-38.771 10.322zm125.219 232.967c-2.091 3.608-5.461 6.186-9.491 7.258-4.029 1.073-8.236.513-11.844-1.579-3.608-2.091-6.186-5.461-7.259-9.491l-8.798-33.048 30.172-8.033 8.798 33.049c1.073 4.029.512 8.236-1.578 11.844z"/><path d="m111.949 91.892c3.495-.93 6.449-3.148 8.317-6.245l20.827-34.511c4.368-7.24.906-13.26-.785-15.512-1.692-2.253-6.507-7.26-14.678-5.082l-56.053 14.922c-8.172 2.174-9.862 8.912-10.209 11.707-.348 2.796-.358 9.742 7.033 13.85l35.228 19.587c2.089 1.162 4.398 1.755 6.734 1.755 1.197.001 2.401-.155 3.586-.471zm-35.85-32.641 50.727-13.505-18.847 31.231z"/></g></g></svg>