<svg id="Capa_1" enable-background="new 0 0 515.547 515.547" height="512" viewBox="0 0 515.547 515.547" width="512" xmlns="http://www.w3.org/2000/svg"><g><g><path d="m287.422 102.837 3.137-.115c16.349-.599 27.123 16.84 19.272 31.193l-22.14 40.476-11.703 20.749h-35.977l-12.152-20.749-22.14-40.476c-7.851-14.353 2.923-31.792 19.272-31.193l3.137.115z" fill="#d8efa7"/><path d="m273.89 170.137v-18.145c0-7.548 1.341-15.036 3.961-22.115l8.213-22.195c7.29-19.699-7.284-40.632-28.289-40.632-21.005 0-35.578 20.932-28.289 40.632l8.213 22.195c2.62 7.079 3.961 14.567 3.961 22.115v18.444l-1.649 24.704h35.977z" fill="#c5e97d"/><g id="XMLID_171_"><g><path d="m264.297 169.311c37.52 0 64.42 36.16 53.65 72.09l-21.8 72.73-18.64 69.82h-37.5l-18.31-67.46-22.51-75.09c-10.77-35.93 16.14-72.09 53.65-72.09z" fill="#f7cf8f"/></g></g><path d="m246.148 320.187-22.51-75.09c-10.77-35.93 16.14-72.09 53.65-72.09l7.127-.003c-6.192-2.375-12.968-3.692-20.118-3.692h-11.46c-37.51 0-64.42 36.16-53.65 72.09l22.51 75.09 18.31 67.46h23.448z" fill="#f5c374"/><path d="m455.548 88.365 3.137-.115c16.349-.599 27.123 16.84 19.272 31.193l-22.14 40.476-11.703 20.749h-35.977l-12.152-20.749-22.14-40.476c-7.851-14.353 2.923-31.792 19.272-31.193l3.137.115z" fill="#d8efa7"/><path d="m442.016 155.665v-18.145c0-7.548 1.341-15.036 3.961-22.115l8.213-22.195c7.29-19.699-7.284-40.632-28.289-40.632-21.005 0-35.578 20.932-28.289 40.632l8.213 22.195c2.62 7.079 3.961 14.567 3.961 22.115v18.444l-1.649 24.704h35.977z" fill="#c5e97d"/><g id="XMLID_172_"><g><path d="m432.423 154.839c37.52 0 64.42 36.16 53.65 72.09l-21.8 72.73-18.64 69.82h-37.5l-18.31-67.46-22.51-75.09c-10.77-35.93 16.14-72.09 53.65-72.09z" fill="#f7cf8f"/></g></g><path d="m414.275 305.714-22.51-75.09c-10.77-35.93 16.14-72.09 53.65-72.09l7.127-.003c-6.192-2.375-12.968-3.692-20.118-3.692h-11.46c-37.51 0-64.42 36.16-53.65 72.09l22.51 75.09 18.31 67.46h23.448z" fill="#f5c374"/><path d="m119.159 89.74 3.137-.115c16.349-.599 27.123 16.84 19.272 31.193l-22.14 40.476-11.703 20.749h-35.977l-12.152-20.749-22.14-40.476c-7.851-14.353 2.923-31.792 19.272-31.193l3.137.115z" fill="#d8efa7"/><path d="m105.626 157.04v-18.145c0-7.548 1.341-15.036 3.961-22.115l8.213-22.195c7.29-19.699-7.284-40.632-28.289-40.632-21.005 0-35.578 20.932-28.289 40.632l8.213 22.195c2.62 7.079 3.961 14.567 3.961 22.115v18.444l-1.649 24.704h35.977z" fill="#c5e97d"/><g><g id="XMLID_146_"><g><path d="m96.034 156.214c37.52 0 64.42 36.16 53.65 72.09l-21.8 72.73-18.64 69.82h-37.5l-18.31-67.46-22.51-75.09c-10.77-35.93 16.14-72.09 53.65-72.09z" fill="#f7cf8f"/></g></g><path d="m77.885 307.089-22.51-75.09c-10.77-35.93 16.14-72.09 53.65-72.09l7.127-.003c-6.192-2.375-12.968-3.692-20.118-3.692h-11.46c-37.51 0-64.42 36.16-53.65 72.09l22.51 75.09 18.31 67.46h23.448z" fill="#f5c374"/><path d="m499.722 318.405-8.85-4.291c-43.95-21.311-95.147-21.759-139.464-1.222-59.389 27.523-127.88 27.523-187.269 0-44.317-20.538-95.514-20.089-139.464 1.222l-8.85 4.291c-5.091 2.468-8.324 7.629-8.324 13.287v122.636c0 8.155 6.611 14.766 14.766 14.766h471.013c8.155 0 14.766-6.611 14.766-14.766v-122.637c0-5.657-3.233-10.818-8.324-13.286z" fill="#c9a291"/></g><path d="m161.153 344.087c61.801 27.523 133.072 27.523 194.873 0 46.116-20.538 99.392-20.089 145.126 1.222l6.894 3.212v-16.829c0-5.658-3.233-10.818-8.324-13.287l-13.066-6.335c-42.766-20.737-92.737-20.433-135.248.822l-4.191 2.095c-56.306 28.153-122.581 28.153-178.888 0-45.153-22.576-98.23-22.899-143.654-.874l-8.85 4.291c-5.091 2.468-8.324 7.629-8.324 13.287v122.636c0 8.155 6.611 14.766 14.766 14.766h471.013c8.155 0 14.766-6.611 14.766-14.766v-11.634h-450.157c-8.155 0-14.766-6.611-14.766-14.766v-76.397c0-9.901 7.171-18.293 16.928-19.973 33.882-5.835 69.204-1.676 101.102 12.53z" fill="#be8f7d"/></g><g><path d="m246.592 207.718h-7.758c-4.142 0-7.5 3.358-7.5 7.5s3.358 7.5 7.5 7.5h7.758c4.142 0 7.5-3.358 7.5-7.5s-3.358-7.5-7.5-7.5z"/><path d="m413.06 209.62c4.143 0 7.5-3.358 7.5-7.5s-3.357-7.5-7.5-7.5h-7.758c-4.143 0-7.5 3.358-7.5 7.5s3.357 7.5 7.5 7.5z"/><path d="m101.488 194.62c-4.142 0-7.5 3.358-7.5 7.5s3.358 7.5 7.5 7.5h7.758c4.142 0 7.5-3.358 7.5-7.5s-3.358-7.5-7.5-7.5z"/><path d="m511.318 315.693-17.173-8.328c-7.689-3.728-15.575-6.834-23.59-9.346l20.251-67.559c5.821-19.421 2.218-39.887-9.886-56.151-4.558-6.125-10.035-11.264-16.173-15.294l18.925-34.598c4.998-9.138 4.714-19.884-.761-28.745-4.565-7.389-11.913-12.125-20.269-13.277-.322-7.005-2.58-13.886-6.698-19.799-7.037-10.108-18.593-16.143-30.909-16.143-12.317 0-23.872 6.035-30.91 16.143-4.117 5.915-6.375 12.796-6.696 19.801-8.345 1.154-15.706 5.888-20.269 13.275-5.476 8.861-5.76 19.606-.762 28.745l18.556 33.923c-5.231 3.261-10.021 7.279-14.167 12.012-2.729 3.116-2.416 7.854.7 10.583 3.115 2.729 7.854 2.416 10.583-.7 9.33-10.652 22.271-16.518 36.439-16.518h11.462c15.485 0 29.669 7.125 38.914 19.547 2.644 3.552 4.737 7.373 6.302 11.356h-32.39c-4.143 0-7.5 3.358-7.5 7.5s3.357 7.5 7.5 7.5h35.649c.282 5.486-.371 11.063-2.011 16.533l-3.68 12.278h-18.074c-4.143 0-7.5 3.358-7.5 7.5s3.357 7.5 7.5 7.5h13.578l-12.211 40.737c-21.101-4.618-42.827-5.156-64.092-1.6l-11.519-38.426h39.992c4.143 0 7.5-3.358 7.5-7.5s-3.357-7.5-7.5-7.5h-44.489l-3.894-12.989c-2.04-6.806-2.576-13.775-1.594-20.714.581-4.101-2.272-7.896-6.374-8.478-4.095-.582-7.896 2.272-8.478 6.374-1.289 9.101-.591 18.228 2.076 27.125l19.56 65.248c-9.856 2.562-19.557 6.01-28.982 10.379-15.308 7.094-31.186 12.297-47.345 15.624l23.428-78.154c5.821-19.42 2.218-39.887-9.886-56.151-4.559-6.125-10.035-11.264-16.173-15.294l18.924-34.598c4.998-9.138 4.714-19.883-.76-28.745-4.565-7.389-11.911-12.12-20.27-13.274-.321-7.005-2.579-13.887-6.696-19.801-7.038-10.108-18.594-16.144-30.911-16.144s-23.872 6.035-30.909 16.143c-4.118 5.915-6.376 12.797-6.697 19.803-8.357 1.155-15.704 5.884-20.269 13.273-5.475 8.861-5.759 19.607-.761 28.745l18.524 33.866c-6.615 4.135-12.512 9.514-17.36 16.027-12.104 16.264-15.707 36.73-9.885 56.151l23.413 78.103c-9.408-1.943-18.746-4.509-27.954-7.734-3.911-1.368-8.188.691-9.558 4.6-1.369 3.91.69 8.188 4.6 9.558 24.854 8.704 50.57 13.032 76.217 13.031 33.008-.001 65.896-7.173 96.634-21.418 42.447-19.672 90.938-19.248 133.038 1.166l17.173 8.328c3.73 1.809 8.214.251 10.02-3.476 1.81-3.729.254-8.216-3.473-10.023zm-59.173-196.31 8.2-22.157c4.039.507 7.605 2.768 9.806 6.331 2.602 4.211 2.737 9.319.361 13.662l-19.219 35.136c-.874-.309-1.753-.603-2.642-.874v-12.585c0-6.682 1.175-13.247 3.494-19.513zm-72.586-2.164c-2.376-4.343-2.24-9.451.362-13.662 2.2-3.561 5.774-5.819 9.807-6.329l8.199 22.156c2.318 6.265 3.494 12.83 3.494 19.512v12.174c-.964.269-1.923.554-2.871.868zm38.952 31.498c-.699 0-1.394.033-2.09.056v-9.878c0-8.465-1.489-16.781-4.427-24.718l-8.213-22.196c-2.611-7.055-1.644-14.642 2.654-20.815s11.077-9.714 18.6-9.714 14.302 3.541 18.6 9.714 5.266 13.76 2.655 20.815l-8.214 22.196c-2.937 7.938-4.426 16.254-4.426 24.718v9.927c-1.219-.068-2.445-.106-3.678-.106h-11.461zm-132.834-16.237 8.199-22.159c4.038.505 7.606 2.772 9.805 6.333 2.603 4.211 2.737 9.318.361 13.662l-19.219 35.136c-.874-.309-1.754-.603-2.643-.874v-12.585c.002-6.683 1.178-13.247 3.497-19.513zm-45.709-48.216c4.298-6.173 11.078-9.714 18.6-9.714s14.302 3.541 18.6 9.714 5.266 13.76 2.654 20.815l-8.213 22.194c-2.938 7.938-4.427 16.254-4.427 24.719v9.927c-1.219-.068-2.445-.106-3.678-.106h-11.461c-.7 0-1.394.038-2.09.06v-9.881c0-8.463-1.49-16.78-4.427-24.718l-8.213-22.195c-2.611-7.055-1.643-14.641 2.655-20.815zm-26.877 46.052c-2.376-4.343-2.241-9.451.361-13.662 2.201-3.563 5.765-5.823 9.807-6.33l8.199 22.157c2.319 6.267 3.495 12.832 3.495 19.512v12.141c-.971.268-1.932.56-2.886.873zm18.014 194.09-17.137-57.166h39.993c4.143 0 7.5-3.358 7.5-7.5s-3.357-7.5-7.5-7.5h-44.489l-3.894-12.99c-4.446-14.833-1.694-30.465 7.551-42.888s23.429-19.548 38.914-19.548h11.461c15.485 0 29.67 7.125 38.915 19.548 2.644 3.552 4.737 7.373 6.302 11.356h-32.39c-4.143 0-7.5 3.358-7.5 7.5s3.357 7.5 7.5 7.5h35.649c.282 5.486-.371 11.063-2.011 16.532l-3.681 12.278h-18.074c-4.143 0-7.5 3.358-7.5 7.5s3.357 7.5 7.5 7.5h13.578l-17.362 57.916c-17.676 2.218-35.571 2.209-53.325-.038z"/><path d="m151.429 315.666c3.865 1.488 8.205-.442 9.693-4.307 1.487-3.866-.441-8.206-4.307-9.693-6.378-2.453-12.875-4.493-19.448-6.146l19.503-65.06c2.634-8.786 3.351-17.793 2.131-26.771-.558-4.104-4.334-6.974-8.441-6.422-4.104.558-6.979 4.337-6.422 8.441.93 6.843.379 13.721-1.636 20.443l-3.894 12.99h-44.49c-4.143 0-7.5 3.358-7.5 7.5s3.357 7.5 7.5 7.5h39.993l-11.496 38.349c-21.267-3.383-43.033-2.72-64.035 1.945l-12.292-41.006h13.579c4.142 0 7.5-3.358 7.5-7.5s-3.358-7.5-7.5-7.5h-18.077l-3.681-12.278c-1.639-5.469-2.293-11.047-2.01-16.532h35.649c4.142 0 7.5-3.358 7.5-7.5s-3.358-7.5-7.5-7.5h-32.39c1.565-3.983 3.659-7.804 6.302-11.356 9.245-12.423 23.429-19.548 38.914-19.548h11.462c14.247 0 27.236 5.92 36.574 16.671 2.716 3.127 7.453 3.461 10.581.744 3.127-2.716 3.46-7.453.744-10.581-4.187-4.82-9.037-8.907-14.34-12.213l18.554-33.921c4.999-9.138 4.714-19.884-.761-28.745-4.563-7.387-11.923-12.112-20.269-13.27-.321-7.007-2.579-13.89-6.697-19.806-7.038-10.108-18.593-16.143-30.91-16.143s-23.873 6.035-30.91 16.144c-4.118 5.915-6.376 12.798-6.697 19.804-8.35 1.157-15.705 5.884-20.269 13.272-5.475 8.861-5.759 19.606-.761 28.744l18.925 34.6c-6.138 4.03-11.615 9.169-16.173 15.294-12.104 16.265-15.707 36.731-9.885 56.151l20.349 67.884c-7.734 2.45-15.321 5.449-22.688 9.021l-17.173 8.328c-3.727 1.808-5.283 6.294-3.476 10.021 1.296 2.673 3.97 4.229 6.754 4.229 1.098 0 2.213-.242 3.267-.753l17.173-8.328c38.512-18.675 83.521-20.568 123.481-5.196zm-34.808-196.283 8.199-22.158c4.043.506 7.605 2.768 9.806 6.331 2.602 4.211 2.737 9.319.361 13.662l-18.99 34.718c-.949-.314-1.907-.603-2.872-.872v-12.17c.001-6.679 1.177-13.244 3.496-19.511zm-45.709-48.216c4.298-6.174 11.077-9.714 18.6-9.714 7.522 0 14.301 3.541 18.599 9.714s5.266 13.76 2.656 20.815l-8.213 22.195c-2.938 7.938-4.427 16.255-4.427 24.718v9.878c-.696-.023-1.391-.056-2.09-.056h-11.463c-1.233 0-2.458.037-3.677.106v-9.927c0-8.464-1.489-16.781-4.427-24.718l-8.213-22.195c-2.61-7.056-1.643-14.642 2.655-20.816zm-26.877 46.052c-2.376-4.343-2.241-9.45.361-13.662 2.201-3.563 5.765-5.825 9.807-6.331l8.199 22.158c2.318 6.266 3.494 12.831 3.494 19.512v12.585c-.889.271-1.769.565-2.643.874z"/><path d="m426.343 363.999c-26.786-1.022-53.784 4.393-78.088 15.656-57.502 26.647-123.461 26.648-180.962 0-24.949-11.562-52.674-16.939-80.18-15.552-4.137.208-7.321 3.731-7.113 7.868.209 4.137 3.747 7.324 7.869 7.113 25.082-1.27 50.367 3.637 73.118 14.18 30.755 14.253 63.771 21.379 96.788 21.379s66.033-7.126 96.788-21.379c22.164-10.271 46.784-15.208 71.209-14.276 4.138.143 7.623-3.07 7.78-7.209s-3.07-7.622-7.209-7.78z"/></g></g></svg>