<svg id="Capa_1" enable-background="new 0 0 512.494 512.494" height="512" viewBox="0 0 512.494 512.494" width="512" xmlns="http://www.w3.org/2000/svg"><g><g><g><path d="m126.447 81.871c0-2.238-.955-4.369-2.624-5.859l-23.745-21.199c-2.98-2.66-7.482-2.66-10.462 0l-23.744 21.198c-1.669 1.49-2.624 3.622-2.624 5.859v369.035c0 4.846 3.928 8.774 8.774 8.774h45.651c4.846 0 8.774-3.928 8.774-8.774z" fill="#c9a291"/></g><g><path d="m233.998 81.871c0-2.238-.955-4.369-2.624-5.859l-23.745-21.199c-2.98-2.66-7.482-2.66-10.462 0l-23.745 21.199c-1.669 1.49-2.624 3.622-2.624 5.859v369.035c0 4.846 3.928 8.774 8.774 8.774h45.651c4.846 0 8.774-3.928 8.774-8.774v-369.035z" fill="#c9a291"/></g><g><path d="m341.549 81.871c0-2.238-.955-4.369-2.624-5.859l-23.745-21.199c-2.98-2.66-7.482-2.66-10.462 0l-23.745 21.199c-1.669 1.49-2.624 3.622-2.624 5.859v369.035c0 4.846 3.928 8.774 8.774 8.774h45.651c4.846 0 8.774-3.928 8.774-8.774v-369.035z" fill="#c9a291"/></g><g><path d="m449.099 81.871c0-2.238-.955-4.369-2.624-5.859l-23.745-21.199c-2.98-2.66-7.482-2.66-10.462 0l-23.745 21.199c-1.669 1.49-2.624 3.622-2.624 5.859v369.035c0 4.846 3.928 8.774 8.774 8.774h45.651c4.846 0 8.774-3.928 8.774-8.774v-369.035z" fill="#c9a291"/></g><g fill="#be8f7d"><path d="m63.248 143.449h63.199v97.801h-63.199z"/><path d="m170.799 143.449h63.199v97.801h-63.199z"/><path d="m278.35 143.449h63.199v97.801h-63.199z"/><path d="m385.9 143.449h63.199v97.801h-63.199z"/></g><path d="m492.97 221.25h-473.446c-6.641 0-12.024-5.383-12.024-12.024v-33.753c0-6.641 5.383-12.024 12.024-12.024h473.446c6.641 0 12.024 5.383 12.024 12.024v33.753c0 6.641-5.383 12.024-12.024 12.024z" fill="#c9a291"/><path d="m385.9 320.866h63.199v97.801h-63.199z" fill="#be8f7d"/><path d="m278.35 320.866h63.199v97.801h-63.199z" fill="#be8f7d"/><path d="m170.799 320.866h63.199v97.801h-63.199z" fill="#be8f7d"/><path d="m63.248 320.866h63.199v97.801h-63.199z" fill="#be8f7d"/><path d="m492.97 398.667h-473.446c-6.641 0-12.024-5.383-12.024-12.024v-33.753c0-6.641 5.383-12.024 12.024-12.024h473.446c6.641 0 12.024 5.383 12.024 12.024v33.753c0 6.641-5.383 12.024-12.024 12.024z" fill="#c9a291"/></g><g><path d="m449.1 279.404c4.143 0 7.5-3.358 7.5-7.5v-43.153h36.37c10.766 0 19.524-8.759 19.524-19.524v-33.752c0-10.766-8.759-19.524-19.524-19.524h-36.37v-15.854c0-4.142-3.357-7.5-7.5-7.5s-7.5 3.358-7.5 7.5v15.854h-48.2v-74.08c0-.101.043-.197.119-.265l23.743-21.198c.135-.12.339-.121.474 0l23.745 21.2c.075.067.118.163.118.264v26.263c0 4.142 3.357 7.5 7.5 7.5s7.5-3.358 7.5-7.5v-26.264c0-4.37-1.87-8.545-5.129-11.454l-23.745-21.199c-5.829-5.202-14.621-5.204-20.452 0l-23.743 21.198c-3.26 2.91-5.13 7.085-5.13 11.455v74.079h-29.352v-74.079c0-4.37-1.87-8.545-5.129-11.454l-23.745-21.199c-5.828-5.202-14.62-5.204-20.452 0l-23.743 21.198c-3.26 2.91-5.13 7.085-5.13 11.455v74.079h-29.353v-74.079c0-4.369-1.869-8.544-5.128-11.454l-23.745-21.199c-5.829-5.202-14.621-5.204-20.452 0l-23.743 21.198c-3.26 2.91-5.13 7.085-5.13 11.455v74.079h-29.353v-74.079c0-4.369-1.869-8.544-5.128-11.454l-23.745-21.199c-5.829-5.203-14.621-5.205-20.452 0l-23.742 21.198c-3.26 2.91-5.13 7.085-5.13 11.455v74.079h-36.224c-10.765-.001-19.524 8.758-19.524 19.524v33.752c0 10.766 8.759 19.524 19.524 19.524h36.224v104.616h-36.224c-10.765 0-19.524 8.759-19.524 19.525v33.752c0 10.766 8.759 19.524 19.524 19.524h36.224v44.738c0 8.973 7.3 16.273 16.273 16.273h45.651c8.974 0 16.273-7.3 16.273-16.273v-44.738h29.353v44.738c0 8.973 7.301 16.273 16.274 16.273h45.65c8.974 0 16.273-7.3 16.273-16.273v-44.738h29.353v44.738c0 8.973 7.301 16.273 16.274 16.273h45.65c8.974 0 16.274-7.3 16.274-16.273v-44.738h29.354v44.738c0 8.973 7.301 16.273 16.274 16.273h45.65c8.974 0 16.274-7.3 16.274-16.273v-44.738h36.37c10.766 0 19.524-8.759 19.524-19.524v-33.752c0-10.766-8.759-19.524-19.524-19.524h-36.368v-29.5c0-4.142-3.357-7.5-7.5-7.5s-7.5 3.358-7.5 7.5v29.5h-48.2v-104.616h48.2v43.153c0 4.142 3.357 7.5 7.5 7.5zm-163.25-197.533c0-.101.043-.197.119-.265l23.743-21.198c.135-.12.339-.121.474 0l23.745 21.2c.075.067.118.163.118.264v74.079h-48.199zm-107.551 0c0-.101.043-.197.119-.265l23.743-21.198c.135-.12.339-.121.474 0l23.744 21.198c.075.067.118.164.118.265v74.079h-48.198zm-107.551 0c0-.101.043-.197.119-.265l23.743-21.198c.134-.12.337-.121.473 0l23.745 21.198c.075.067.118.164.118.265v74.079h-48.198zm-55.748 127.355v-33.752c0-2.495 2.029-4.524 4.524-4.524h473.446c2.495 0 4.524 2.03 4.524 4.524v33.752c0 2.495-2.029 4.524-4.524 4.524h-473.446c-2.495.001-4.524-2.029-4.524-4.524zm270.85 124.14v-104.615h48.199v104.616h-48.199zm-44.353 0v-104.615h29.353v104.616h-29.353zm-63.198 0v-104.615h48.198v104.616h-48.198zm-107.551-104.615h48.198v31.562c0 4.142 3.357 7.5 7.5 7.5s7.5-3.358 7.5-7.5v-31.562h29.353v104.616h-29.353v-41.092c0-4.142-3.357-7.5-7.5-7.5s-7.5 3.358-7.5 7.5v41.092h-48.198zm48.198 222.155c0 .702-.571 1.273-1.273 1.273h-45.652c-.702 0-1.273-.571-1.273-1.273v-44.738h48.198zm107.551 0c0 .702-.571 1.273-1.273 1.273h-45.65c-.703 0-1.274-.571-1.274-1.273v-44.738h48.198v44.738zm107.552 0c0 .702-.571 1.273-1.274 1.273h-45.65c-.703 0-1.274-.571-1.274-1.273v-44.738h48.199v44.738zm107.551 0c0 .702-.571 1.273-1.274 1.273h-45.65c-.703 0-1.274-.571-1.274-1.273v-44.738h48.198zm55.894-98.015v33.752c0 2.495-2.029 4.524-4.524 4.524h-473.446c-2.495 0-4.524-2.03-4.524-4.524v-33.752c0-2.495 2.029-4.524 4.524-4.524h473.446c2.495-.001 4.524 2.029 4.524 4.524zm-119.094-19.525h-29.352v-104.615h29.352z"/><path d="m94.848 199.85c4.143 0 7.5-3.358 7.5-7.5v-4.273c0-4.142-3.357-7.5-7.5-7.5s-7.5 3.358-7.5 7.5v4.273c0 4.142 3.357 7.5 7.5 7.5z"/><path d="m94.848 357.993c-4.143 0-7.5 3.358-7.5 7.5v4.273c0 4.142 3.357 7.5 7.5 7.5s7.5-3.358 7.5-7.5v-4.273c0-4.142-3.358-7.5-7.5-7.5z"/><path d="m202.398 199.85c4.143 0 7.5-3.358 7.5-7.5v-4.273c0-4.142-3.357-7.5-7.5-7.5s-7.5 3.358-7.5 7.5v4.273c0 4.142 3.358 7.5 7.5 7.5z"/><path d="m202.398 357.993c-4.143 0-7.5 3.358-7.5 7.5v4.273c0 4.142 3.357 7.5 7.5 7.5s7.5-3.358 7.5-7.5v-4.273c0-4.142-3.357-7.5-7.5-7.5z"/><path d="m309.949 199.85c4.143 0 7.5-3.358 7.5-7.5v-4.273c0-4.142-3.357-7.5-7.5-7.5s-7.5 3.358-7.5 7.5v4.273c0 4.142 3.358 7.5 7.5 7.5z"/><path d="m309.949 357.993c-4.143 0-7.5 3.358-7.5 7.5v4.273c0 4.142 3.357 7.5 7.5 7.5s7.5-3.358 7.5-7.5v-4.273c0-4.142-3.357-7.5-7.5-7.5z"/><path d="m417.5 199.85c4.143 0 7.5-3.358 7.5-7.5v-4.273c0-4.142-3.357-7.5-7.5-7.5s-7.5 3.358-7.5 7.5v4.273c0 4.142 3.357 7.5 7.5 7.5z"/><path d="m417.5 357.993c-4.143 0-7.5 3.358-7.5 7.5v4.273c0 4.142 3.357 7.5 7.5 7.5s7.5-3.358 7.5-7.5v-4.273c0-4.142-3.357-7.5-7.5-7.5z"/></g></g></svg>