<svg id="Capa_1" enable-background="new 0 0 510.781 510.781" height="512" viewBox="0 0 510.781 510.781" width="512" xmlns="http://www.w3.org/2000/svg"><g><g><path d="m181.379 255.869c0-41.427-19.398-80.464-52.417-105.484-13.953-10.573-33.237-10.573-47.19 0-33.019 25.02-52.417 64.057-52.417 105.484v53.004h152.024z" fill="#fcf1de"/><path d="m73.545 267.398c-4.766 0-8.63-3.864-8.63-8.63 0-41.427 19.398-80.464 52.417-105.484 2.704-2.049 5.622-3.695 8.649-4.95-13.624-8.465-31.228-7.786-44.209 2.05-33.019 25.02-52.417 64.057-52.417 105.484v53.004h24.115 11.445 116.464v-41.474z" fill="#f6e2c4"/><path d="m332.594 253.676c0-41.427-19.398-80.464-52.417-105.484-13.953-10.573-33.237-10.573-47.19 0-33.019 25.02-52.417 64.057-52.417 105.484v53.004h152.024z" fill="#fcf1de"/><path d="m224.76 265.206c-4.766 0-8.63-3.864-8.63-8.63 0-41.427 19.398-80.464 52.417-105.484 2.704-2.049 5.622-3.695 8.649-4.95-13.624-8.465-31.228-7.787-44.209 2.05-33.019 25.02-52.417 64.057-52.417 105.484v53.004h24.115 11.445 116.464v-41.474z" fill="#f6e2c4"/><path d="m484.217 255.869c0-41.427-19.398-80.464-52.417-105.484-13.953-10.573-33.237-10.573-47.19 0-33.019 25.02-52.417 64.057-52.417 105.484v53.004h152.024z" fill="#fcf1de"/><path d="m376.383 267.398c-4.766 0-8.63-3.864-8.63-8.63 0-41.427 19.398-80.464 52.417-105.484 2.704-2.049 5.621-3.696 8.648-4.951-13.624-8.465-31.227-7.786-44.208 2.051-33.019 25.02-52.417 64.057-52.417 105.484v53.004h24.115 11.445 116.464v-41.474z" fill="#f6e2c4"/><path d="m27.355 318.847 32.925 46.331c1.386 1.95 3.629 3.108 6.021 3.108h94.383c1.857 0 3.646-.699 5.01-1.959l5.844-5.394c2.834-2.616 7.204-2.611 10.032.011l5.796 5.373c1.366 1.266 3.159 1.97 5.022 1.97h126.006c1.862 0 3.656-.703 5.022-1.97l5.796-5.373c2.828-2.622 7.198-2.627 10.032-.011l5.844 5.394c1.364 1.259 3.153 1.959 5.01 1.959h94.383c2.392 0 4.636-1.158 6.021-3.108l32.925-46.331 12.853-18.228-481.395.695z" fill="#f2eae7"/><path d="m14.884 301.314 45.395 63.863c1.386 1.95 3.629 3.108 6.021 3.108h94.383c1.857 0 3.646-.699 5.01-1.959l5.844-5.394c2.834-2.616 7.204-2.611 10.032.011l5.796 5.373c1.366 1.266 3.159 1.97 5.022 1.97h126.006c1.862 0 3.656-.703 5.022-1.97l5.796-5.373c2.828-2.622 7.198-2.627 10.032-.011l5.844 5.394c1.364 1.259 3.153 1.959 5.01 1.959h94.383c2.392 0 4.636-1.158 6.021-3.108l6.603-9.291h-107.006c-1.857 0-3.646-.699-5.01-1.959l-5.844-5.394c-2.834-2.616-7.203-2.611-10.032.011l-5.796 5.373c-1.366 1.266-3.159 1.97-5.022 1.97h-126.006c-1.862 0-3.656-.703-5.022-1.97l-5.796-5.373c-2.828-2.622-7.198-2.627-10.032-.011l-5.844 5.394c-1.364 1.259-3.153 1.959-5.01 1.959h-80.183c-.846 0-1.64-.41-2.13-1.099l-11.949-16.814c-1.229-1.73.007-4.126 2.13-4.126h404.215l10.659-15 12.853-18.228z" fill="#ede2dd"/><g><path d="m493.544 282.398h-476.307c-5.378 0-9.737 4.359-9.737 9.737v16.974c0 5.378 4.359 9.737 9.737 9.737h476.307c5.378 0 9.737-4.359 9.737-9.737v-16.974c0-5.377-4.359-9.737-9.737-9.737z" fill="#f2eae7"/></g></g><path d="m493.544 274.898h-2.618v-19.03c0-43.514-20.706-85.182-55.387-111.461-16.56-12.548-39.69-12.548-56.25 0-22.384 16.961-38.934 40.337-47.865 66.478-5.219-15.342-13.077-29.786-23.314-42.542-2.593-3.229-7.312-3.748-10.544-1.155-3.23 2.593-3.748 7.313-1.155 10.544 17.728 22.09 27.491 49.84 27.491 78.137v19.03h-137.023v-19.03c0-38.847 18.485-76.045 49.447-99.506 11.184-8.476 26.829-8.501 38.044-.062 3.311 2.492 8.012 1.827 10.502-1.483 2.491-3.31 1.827-8.012-1.483-10.502-16.543-12.449-39.622-12.413-56.123.092-22.403 16.975-38.962 40.375-47.888 66.542-8.926-26.166-25.485-49.566-47.887-66.542-16.561-12.548-39.69-12.548-56.249 0-14.077 10.667-25.866 23.727-35.039 38.819-2.152 3.54-1.026 8.153 2.513 10.304 3.539 2.152 8.152 1.026 10.304-2.513 8.189-13.473 18.714-25.132 31.281-34.654 11.226-8.506 26.906-8.505 38.13 0 30.962 23.461 49.447 60.66 49.447 99.506v19.03h-137.023v-19.03c0-12.617 1.916-25.145 5.695-37.236 1.235-3.954-.968-8.16-4.921-9.396-3.951-1.234-8.16.968-9.396 4.921-4.232 13.541-6.378 27.574-6.378 41.71v19.03h-2.618c-9.505-.001-17.237 7.732-17.237 17.236v16.975c0 9.504 7.732 17.237 17.237 17.237h6.247l30.682 43.175c2.787 3.922 7.323 6.264 12.135 6.264h94.383c3.752 0 7.338-1.402 10.097-3.948l5.767-5.323 5.719 5.301c2.762 2.56 6.356 3.97 10.121 3.97h126.006c3.765 0 7.359-1.41 10.121-3.969l5.719-5.301 5.768 5.324c2.758 2.545 6.344 3.947 10.096 3.947h94.383c4.812 0 9.348-2.342 12.135-6.263l30.682-43.176h6.247c9.505 0 17.237-7.732 17.237-17.237v-16.975c-.001-9.505-7.733-17.238-17.238-17.238zm-49.122 85.887-94.248.03-5.844-5.394c-5.675-5.239-14.556-5.229-20.218.021l-5.719 5.343-125.929.03-5.795-5.372c-5.664-5.251-14.544-5.26-20.218-.022l-5.768 5.364h-94.324l-24.474-34.439h427.01zm51.359-51.675c0 1.233-1.003 2.237-2.237 2.237h-476.307c-1.234 0-2.237-1.003-2.237-2.237v-16.975c0-1.233 1.003-2.237 2.237-2.237h398.84c4.142 0 7.5-3.358 7.5-7.5s-3.358-7.5-7.5-7.5h-77.175v-19.03c0-38.847 18.485-76.045 49.447-99.506 11.225-8.506 26.905-8.506 38.13 0 30.962 23.461 49.447 60.66 49.447 99.506v19.03h-27.886c-4.142 0-7.5 3.358-7.5 7.5s3.358 7.5 7.5 7.5h45.504c1.234 0 2.237 1.003 2.237 2.237z"/></g></svg>