<svg id="Capa_1" enable-background="new 0 0 511.995 511.995" height="512" viewBox="0 0 511.995 511.995" width="512" xmlns="http://www.w3.org/2000/svg"><g><g><g><g><g id="XMLID_186_"><g><path d="m504.407 290.865-11.813-26.876-437.09-3.534-48.006 28.88v59.269l59.547 39.679 280.638 23.563 126.65-33.577 30.165-28.194v-59.21z" fill="#c9a291"/><path d="m488.17 131.371-234.588-27.06-201.53 20.067-44.554 37.577v59.209l16.581 27.183 457.098-4.45 23.321-21.212v-59.261z" fill="#c9a291"/><path d="m384.612 402.056 81.338-21.564v-116.718l-81.338-.658z" fill="#be8f7d"/><path d="m47.045 265.544v109.412l20 13.327 61.338 5.15v-132.389l-72.879-.589z" fill="#be8f7d"/><path d="m504.498 350.075v53.31c0 3.59-2.29 6.79-5.7 7.92-17.61 5.85-35.23 11.07-52.85 15.64l-41.17 9.52c-98.78 20.06-197.64 20.07-296.58.11l-41.15-9.45c-17.95-4.62-35.89-9.89-53.84-15.83-3.41-1.12-5.71-4.33-5.71-7.92v-54.77c19.85 4.14 39.7 7.78 59.55 10.95l41.34 5.88c98.78 12.39 197.52 12.66 296.22.76l41.34-5.69c19.42-3.01 38.85-6.47 58.26-10.43z" fill="#d3b5a8"/><path d="m384.612 244.837 81.338-.792v-115.237l-81.338-9.383z" fill="#be8f7d"/><path d="m47.045 128.6v119.524l81.338-.792v-130.555l-76.331 7.601z" fill="#be8f7d"/><g fill="#d3b5a8"><path d="m504.498 222.685v68.18h-.09c-19.48 1.41-38.97 2.64-58.46 3.71l-41.34 1.99c-98.67 4.15-197.42 3.85-296.22-.88l-41.34-2.23c-19.85-1.2-39.7-2.57-59.55-4.12v-68.17h.12c19.8-1.43 39.61-2.68 59.43-3.76l41.34-1.98c98.59-4.11 197.34-3.8 296.22.96l41.34 2.24c19.51 1.19 39.03 2.53 58.55 4.06z"/><path d="m504.498 108.655v54.77c-19.52-4.08-39.04-7.67-58.55-10.8l-41.34-5.92c-98.86-12.48-197.6-12.79-296.22-.98l-41.34 5.65c-19.76 3.05-39.51 6.56-59.25 10.58h-.3v-53.31c0-3.59 2.29-6.79 5.7-7.92 17.94-5.95 35.89-11.24 53.85-15.88l41.34-9.49c98.58-19.87 197.32-19.82 296.22.24l41.34 9.54c17.61 4.57 35.22 9.76 52.84 15.59 3.41 1.13 5.71 4.34 5.71 7.93z"/></g></g></g></g></g><g fill="#c9a291"><path d="m404.608 216.385c-6.666-.321-13.331-.618-19.996-.898v81.854c6.666-.24 13.331-.496 19.996-.776l41.34-1.99c6.668-.366 13.335-.758 20.002-1.162v-73.506c-6.668-.443-13.336-.875-20.002-1.281z"/><path d="m404.608 146.705 41.34 5.92c6.666 1.069 13.334 2.213 20.002 3.391v-65.422c-6.668-1.909-13.335-3.729-20.002-5.459l-41.34-9.54c-6.597-1.338-13.193-2.58-19.789-3.74-.132 1.137-.207 2.291-.207 3.463v69.034c6.665.73 13.33 1.511 19.996 2.353z"/><path d="m476.78 383.742c-5.573 1.198-10.83-3.048-10.83-8.748v-17.771c-6.668 1.141-13.335 2.248-20.002 3.282l-41.34 5.69c-6.665.804-13.33 1.547-19.996 2.239v27.969c0 4.394-3.193 8.121-7.528 8.837-79.37 13.107-158.792 13.272-238.265.549-6.012-.962-10.436-6.155-10.436-12.244v-25.772c-6.665-.726-13.33-1.502-19.996-2.338l-41.34-5.88c-6.668-1.065-13.335-2.203-20.003-3.375v12.624c0 8.336-8.063 14.292-16.033 11.85-5.934-1.818-11.869-3.709-17.804-5.673-3.41-1.12-5.71-4.33-5.71-7.92v36.315c0 3.59 2.3 6.8 5.71 7.92 17.95 5.94 35.89 11.21 53.84 15.83l41.15 9.45c98.94 19.96 197.8 19.95 296.58-.11l41.17-9.52c17.62-4.57 35.24-9.79 52.85-15.64 3.41-1.13 5.7-4.33 5.7-7.92v-26.193c-8.236 2.285-18.036 4.468-27.717 6.549z"/></g><path d="m416.609 444.334 21.625-4.812c4.508-1.003 7.716-5.003 7.716-9.621v-349.772c0-4.619-3.207-8.618-7.716-9.621l-21.625-4.812c-6.156-1.37-11.998 3.314-11.998 9.621v359.396c.001 6.306 5.842 10.991 11.998 9.621z" fill="#f6e2c4"/><path d="m67.048 217.405c-6.669.363-13.336.753-20.003 1.156v73.62c6.667.442 13.335.871 20.003 1.275l41.34 2.23c6.665.319 13.331.614 19.996.893v-81.922c-6.666.237-13.331.491-19.996.769z" fill="#c9a291"/><path d="m67.048 84.844c-6.669 1.723-13.337 3.536-20.003 5.439v64.359c6.667-1.136 13.334-2.238 20.003-3.268l41.34-5.65c6.665-.798 13.33-1.536 19.996-2.223v-68.184c0-1.244-.085-2.467-.234-3.671-6.588 1.15-13.176 2.381-19.762 3.709z" fill="#c9a291"/><path d="m96.386 444.334-21.625-4.812c-4.508-1.003-7.716-5.003-7.716-9.621v-349.772c0-4.619 3.207-8.618 7.716-9.621l21.625-4.812c6.156-1.37 11.998 3.314 11.998 9.621v359.396c-.001 6.306-5.842 10.991-11.998 9.621z" fill="#f6e2c4"/></g><path d="m511.995 108.653c0-6.85-4.358-12.896-10.847-15.044-15.817-5.235-31.846-10.021-47.731-14.258-.343-7.854-5.81-14.441-13.554-16.164l-21.625-4.812c-5.165-1.15-10.498.09-14.628 3.402-1.788 1.434-3.222 3.184-4.301 5.124-71.681-13.873-144.264-17.357-215.854-10.351-4.123.403-7.137 4.072-6.734 8.195s4.07 7.14 8.195 6.734c70.367-6.885 141.724-3.424 212.195 10.278v56.475c-93.389-11.129-187.912-11.439-281.229-.923v-55.773c12.352-2.383 24.893-4.499 37.392-6.269 4.101-.581 6.955-4.376 6.375-8.477-.581-4.101-4.373-6.961-8.477-6.375-12.564 1.779-25.171 3.901-37.594 6.289-1.067-1.861-2.465-3.543-4.192-4.928-4.13-3.312-9.46-4.552-14.629-3.402l-21.624 4.812c-7.645 1.7-13.073 8.142-13.541 15.863-16.244 4.317-32.617 9.202-48.757 14.558-6.481 2.152-10.835 8.196-10.835 15.04v294.727c0 6.853 4.361 12.899 10.853 15.046 16.22 5.362 32.665 10.251 48.965 14.568 1.205 6.811 6.341 12.304 13.313 13.854l21.625 4.812c1.264.281 2.537.419 3.8.419 3.903 0 7.709-1.32 10.829-3.821 1.176-.943 2.19-2.029 3.066-3.206 47.791 9.266 95.848 13.912 143.877 13.911 48.187 0 96.344-4.678 144.148-14.006.891 1.213 1.927 2.332 3.133 3.3 3.119 2.502 6.925 3.821 10.828 3.821 1.263 0 2.537-.138 3.8-.419l21.625-4.812c7.042-1.567 12.209-7.154 13.347-14.058 15.955-4.26 32.059-9.08 47.956-14.362 6.478-2.153 10.829-8.196 10.829-15.038v-294.73zm-58.545 117.96c14.624.921 29.201 1.935 43.545 3.027v54.222c-14.348 1.009-28.926 1.935-43.545 2.769zm43.545-12.016c-14.351-1.088-28.927-2.096-43.545-3.013v-50.108c14.62 2.451 29.198 5.156 43.545 8.081zm-43.545 87.059c14.614-.829 29.191-1.752 43.545-2.756v44.955c-14.332 2.847-28.911 5.474-43.545 7.846zm43.545-193.003v45.599c-14.364-2.892-28.94-5.563-43.545-7.982v-51.372c14.323 3.897 28.74 8.236 42.984 12.951.33.109.561.439.561.804zm-381.112 113.988c93.286-3.686 187.817-3.38 281.229.909v65.804c-93.219 3.71-187.748 3.429-281.229-.836zm281.229-69.298v55.192c-93.414-4.271-187.938-4.574-281.229-.905v-55.221c93.308-10.648 187.85-10.335 281.229.934zm-382.112 74.825c14.713-1.033 29.627-1.979 44.545-2.825v60.13c-14.917-.935-29.83-1.969-44.545-3.089zm44.545-17.849c-14.913.841-29.826 1.783-44.545 2.811v-44.953c14.693-2.916 29.608-5.596 44.545-8.004zm-44.545 87.108c14.722 1.115 29.634 2.144 44.545 3.075v50.209c-14.918-2.487-29.832-5.247-44.545-8.243zm.56-189.583c14.562-4.833 29.316-9.271 43.986-13.248v50.386c-14.922 2.378-29.836 5.025-44.546 7.907v-44.242c0-.363.23-.694.56-.803zm-.56 295.53v-45.602c14.73 2.963 29.643 5.688 44.545 8.143v51.469c-14.66-3.965-29.413-8.39-43.984-13.207-.33-.108-.561-.439-.561-.803zm100.883 27.065v-14.212c0-4.142-3.358-7.5-7.5-7.5s-7.5 3.358-7.5 7.5v18.485c0 .984-.553 1.574-.882 1.838-.33.265-1.029.676-1.986.462l-21.625-4.812c-1.086-.242-1.844-1.188-1.844-2.3v-349.771c0-1.113.758-2.059 1.845-2.3l21.625-4.812c.96-.216 1.657.198 1.986.462s.879.852.882 1.832c0 .012.001.025.001.037v308.916c0 4.142 3.358 7.5 7.5 7.5s7.5-3.358 7.5-7.5v-10.364c47.772 5.654 95.813 8.485 143.83 8.485 45.918 0 91.816-2.589 137.398-7.762v55.709c-93.198 18.119-187.747 18.154-281.23.107zm322.567-.539c0 1.113-.759 2.059-1.845 2.3l-21.625 4.812c-.957.214-1.656-.198-1.986-.462-.329-.264-.882-.854-.882-1.839v-89.506c0-4.142-3.357-7.5-7.5-7.5s-7.5 3.358-7.5 7.5v14.314c-93.233 10.717-187.775 10.471-281.229-.73v-55.26c50.02 2.272 100.323 3.422 150.583 3.422 43.669 0 87.303-.87 130.646-2.587v8.877c0 4.142 3.357 7.5 7.5 7.5s7.5-3.358 7.5-7.5v-237.63c0-.023 0-.045 0-.068v-.227c0-.984.553-1.574.882-1.838.33-.264 1.028-.675 1.986-.462l21.625 4.812c1.086.242 1.845 1.188 1.845 2.3zm57.985-25.713c-14.249 4.735-28.667 9.087-42.985 12.993v-50.286c14.617-2.342 29.195-4.936 43.545-7.75v44.24c0 .363-.231.694-.56.803z"/></g></svg>