<svg id="Capa_1" enable-background="new 0 0 509.228 509.228" height="512" viewBox="0 0 509.228 509.228" width="512" xmlns="http://www.w3.org/2000/svg"><g><g><g><path d="m164.1 28.919-22.925-14.274c-17.107-10.652-39.082-9.309-54.765 3.348-17.103 13.802-22.461 37.558-12.938 57.365l8.038 16.719-14.061 32.667c-35.683 82.903-35.683 176.836 0 259.74l14.061 32.667-8.038 16.719c-9.523 19.807-4.165 43.563 12.938 57.365 15.683 12.656 37.658 13.999 54.765 3.348l22.925-14.274c61.433 18.383 126.904 18.383 188.337 0l22.925 14.274c17.107 10.652 39.082 9.309 54.765-3.348 17.103-13.802 22.461-37.558 12.938-57.365l-8.038-16.719c44.659-103.757 44.659-221.318 0-325.074l8.038-16.719c9.523-19.807 4.165-43.563-12.938-57.365-15.683-12.656-37.658-13.999-54.765-3.348l-22.925 14.274c-61.433-18.382-126.903-18.382-188.337 0z" fill="#f8deb6"/><path d="m372.644 381.263c-75.848 20.976-152.483 20.85-229.893-.039-5.211-1.406-9.333-5.425-10.866-10.6-22.73-76.72-22.706-153.44.072-230.16 1.498-5.045 5.455-9.001 10.501-10.497 76.7-22.746 153.502-22.864 230.408-.004 5.041 1.499 8.995 5.453 10.492 10.495 22.786 76.744 22.804 153.488.054 230.232-1.525 5.14-5.601 9.144-10.768 10.573z" fill="#f9f7f7"/><path d="m316.693 183.17c-.054-1.875-1.561-3.382-3.436-3.436-14.955-.43-76.252-.944-95.747 18.551-20.592 20.592-22.124 53.007-4.63 75.378l4.161-.969 6.519 6.473v4.996c22.338 16.842 54.234 15.101 74.581-5.246 19.496-19.495 18.982-80.792 18.552-95.747z" fill="#c5e97d"/></g><g><path d="m96.292 260.245c0-108.07 53.924-201.205 131.642-243.709-21.539 1.996-42.912 6.123-63.834 12.383l-22.925-14.274c-17.107-10.652-39.082-9.308-54.765 3.348-17.103 13.802-22.461 37.558-12.938 57.365l8.038 16.719-14.061 32.667c-35.683 82.903-35.683 176.836 0 259.74l14.061 32.667-8.038 16.719c-9.523 19.807-4.165 43.563 12.938 57.365 15.683 12.656 37.658 13.999 54.765 3.348l22.925-14.274c13.633 4.079 27.453 7.251 41.396 9.52-65.469-47.027-109.204-132.253-109.204-229.584z" fill="#f7d8a4"/></g></g><g><path d="m178.868 318.267c1.464 1.464 3.384 2.197 5.303 2.197s3.839-.732 5.303-2.197l28.753-28.753c11.602 9.036 25.596 13.572 39.599 13.572 16.521 0 33.042-6.289 45.619-18.866 20.753-20.753 21.42-77.732 20.745-101.268-.169-5.84-4.876-10.547-10.717-10.716-7.488-.214-27.083-.465-47.242 1.85-26.334 3.025-44.511 9.382-54.024 18.895-23.482 23.482-25.035 60.706-4.676 86.016l-28.663 28.663c-2.929 2.929-2.929 7.678 0 10.607zm113.971-44.653c-17.38 17.379-44.567 19.104-63.905 5.193l11.062-11.062h35.087c4.142 0 7.5-3.358 7.5-7.5s-3.358-7.5-7.5-7.5h-20.087l19.499-19.499h15.261c4.142 0 7.5-3.358 7.5-7.5s-3.358-7.5-7.5-7.5h-.261l19.8-19.8c-.446 30.142-4.846 63.558-16.456 75.168zm-70.026-70.026c11.795-11.795 46.094-16.148 76.602-16.475l-20.527 20.527v-.26c0-4.142-3.358-7.5-7.5-7.5s-7.5 3.358-7.5 7.5v15.26l-19.499 19.499v-20.088c0-4.142-3.358-7.5-7.5-7.5s-7.5 3.358-7.5 7.5v35.088l-11.169 11.169c-14.557-19.383-13.032-47.095 4.593-64.72z"/><path d="m443.259 92.266 6.566-13.657c11.086-23.059 4.923-50.385-14.987-66.452-18.147-14.646-43.642-16.205-63.439-3.878l-20.072 12.498c-32.048-9.239-65.195-13.644-98.579-13.094-4.142.068-7.443 3.481-7.375 7.623s3.505 7.443 7.623 7.375c32.972-.549 65.712 3.974 97.294 13.424 2.062.618 4.288.319 6.114-.818l22.925-14.274c14.382-8.956 32.905-7.824 46.091 2.817 14.465 11.673 18.942 31.526 10.888 48.279l-8.038 16.719c-.94 1.955-.987 4.222-.13 6.215 30.556 70.991 40.075 148.83 27.527 225.104-.672 4.087 2.096 7.945 6.183 8.618.412.068.822.101 1.227.101 3.606 0 6.787-2.608 7.391-6.284 12.827-77.979 3.416-157.541-27.209-230.316z"/><path d="m458.428 345.469c-4.026-.99-8.085 1.47-9.074 5.493-5.3 21.561-12.438 42.832-21.215 63.224-.857 1.993-.811 4.26.13 6.215l8.038 16.719c8.054 16.752 3.577 36.605-10.889 48.279-13.186 10.641-31.708 11.772-46.091 2.817l-22.925-14.274c-1.827-1.138-4.053-1.436-6.114-.818-60.199 18.013-123.838 18.013-184.038 0-2.061-.616-4.288-.319-6.114.818l-22.925 14.274c-14.384 8.955-32.906 7.823-46.091-2.817-14.465-11.673-18.942-31.526-10.888-48.279l8.038-16.719c.94-1.955.987-4.222.13-6.215l-14.061-32.667c-17.353-40.316-26.151-83.013-26.151-126.905s8.798-86.589 26.151-126.905l14.061-32.667c.857-1.993.811-4.26-.13-6.215l-8.038-16.719c-8.055-16.752-3.577-36.605 10.888-48.278 13.186-10.641 31.708-11.773 46.091-2.817l22.926 14.274c1.825 1.137 4.05 1.435 6.114.818 18.043-5.399 36.719-9.228 55.509-11.378 4.116-.471 7.07-4.188 6.599-8.304-.471-4.115-4.186-7.07-8.304-6.598-18.537 2.121-36.969 5.803-54.843 10.952l-20.073-12.498c-19.797-12.327-45.291-10.769-63.44 3.878-19.91 16.067-26.072 43.393-14.986 66.451l6.558 13.641-12.71 29.53c-18.164 42.2-27.373 86.893-27.373 132.835s9.209 90.635 27.373 132.835l12.71 29.53-6.558 13.641c-11.086 23.059-4.923 50.385 14.987 66.452 9.988 8.061 22.198 12.157 34.462 12.156 10.02 0 20.076-2.736 28.978-8.278l20.072-12.498c60.962 17.58 125.156 17.579 186.116 0l20.071 12.498c19.797 12.327 45.292 10.768 63.44-3.878 19.91-16.067 26.073-43.393 14.987-66.451l-6.566-13.658c8.491-20.185 15.437-41.168 20.662-62.42.987-4.023-1.472-8.085-5.494-9.074z"/><path d="m182.776 112.473c-14.154 2.681-28.437 6.147-42.451 10.304-7.512 2.228-13.329 8.042-15.558 15.553-23.091 77.776-23.116 156.648-.073 234.425 2.257 7.62 8.428 13.64 16.103 15.711 39.304 10.606 78.627 15.909 117.711 15.908 39.046 0 77.854-5.294 116.136-15.881 7.716-2.134 13.682-7.993 15.958-15.67 23.063-77.801 23.044-156.698-.055-234.499-2.229-7.506-8.04-13.319-15.545-15.549-52.894-15.723-106.611-20.811-159.667-15.127-4.118.441-7.099 4.138-6.658 8.257.441 4.118 4.14 7.096 8.257 6.658 51.065-5.475 102.812-.564 153.795 14.59 2.626.781 4.659 2.814 5.439 5.441 22.259 74.97 22.277 150.996.053 225.965-.784 2.644-2.92 4.743-5.575 5.477-73.978 20.46-149.997 20.442-225.94-.051-2.683-.724-4.84-2.828-5.629-5.49-22.205-74.947-22.181-150.949.071-225.896.78-2.627 2.814-4.662 5.443-5.441 13.531-4.013 27.318-7.36 40.977-9.946 4.07-.771 6.744-4.695 5.974-8.765-.773-4.071-4.695-6.745-8.766-5.974z"/></g></g></svg>