<svg id="Capa_1" enable-background="new 0 0 511.549 511.549" height="512" viewBox="0 0 511.549 511.549" width="512" xmlns="http://www.w3.org/2000/svg"><g><g><path d="m473.64 221.906v267.978h-435.733v-267.978-39.744l92.926-116.274 122.876-44.468 132.752 50.672 87.179 124.097z" fill="#ea9a98"/><g><path d="m386.461 72.092-132.752-50.672-122.876 44.468-55.172 69.035h.423v31.661h-25.726l-12.45 15.579v39.744 241.932 26.047h435.732v-46.047h-360.248c-12.056 0-21.83-9.774-21.83-21.83v-229.077c0-6.486 2.08-12.801 5.934-18.018l46.305-62.67c4.631-6.268 11.001-11.037 18.319-13.717l79.974-29.284c8.833-3.234 18.527-3.234 27.36 0l79.974 29.283c7.318 2.68 13.688 7.449 18.319 13.717l89.806 121.545c3.889 5.264 9.712 8.77 16.087 9.835v-21.718-25.717z" fill="#e5827f"/><path d="m30.789 222.975-19.418-14.348c-2.261-1.671-2.739-4.858-1.069-7.119l103.54-140.132c1.998-2.704 4.746-4.761 7.902-5.917l128.129-46.915c3.81-1.395 7.991-1.396 11.802 0l128.13 46.915c3.157 1.156 5.904 3.213 7.903 5.917l103.54 140.131c1.671 2.261 1.192 5.448-1.069 7.119l-19.419 14.348c-2.261 1.671-5.448 1.192-7.119-1.069l-100.477-135.986-117.39-42.983-117.389 42.984-100.478 135.986c-1.67 2.261-4.857 2.739-7.118 1.069z" fill="#b7acac"/><g id="XMLID_222_"><g><path d="m375.565 413.192h-226.082l-23.399 18.02v58.67h260.38v-58.67z" fill="#f8f3f2"/><path d="m126.084 443.838h260.38v46.044h-260.38z" fill="#f2eae7"/><path d="m372.008 342.409h-223.336l-22.588 16.713v36.05l11.681 12.681h238.145l10.554-12.681v-36.05z" fill="#f8f3f2"/><g fill="#f2eae7"><path d="m126.084 395.172h260.38v36.04h-260.38z"/><path d="m126.084 301.012h260.38v58.11h-260.38z"/></g></g></g><path d="m492.966 504.049h-474.383c-6.084 0-11.015-4.932-11.015-11.015v-18.181c0-6.084 4.932-11.015 11.015-11.015h474.383c6.084 0 11.015 4.932 11.015 11.015v18.181c0 6.083-4.932 11.015-11.015 11.015z" fill="#b7acac"/><path d="m126.084 301.012h260.38v40.738h-260.38z" fill="#ded4cf"/><path d="m391.17 326.75h-269.792c-4.914 0-8.898-3.984-8.898-8.898v-19.565c0-4.914 3.984-8.898 8.898-8.898h269.792c4.914 0 8.898 3.984 8.898 8.898v19.565c0 4.914-3.984 8.898-8.898 8.898z" fill="#f9f7f7"/><g id="XMLID_221_"><g><path d="m337.504 201.447-59.602-24.757-21.628 1.532-19.559-1.532-56.267 28.583-10.534 18.989c0 2.84 2.3 5.13 5.13 5.13h162.46c2.83 0 5.13-2.29 5.13-5.13z" fill="#b3e5ee"/><path d="m175.044 134.922-2.399 17.097 54.065 29.761 29.564-3.558 52.773 3.558 28.457-38.193v-8.665z" fill="#b3e5ee"/><g fill="#e1f5f8"><path d="m256.274 178.222-86.36 46.04v-84.2c0-2.84 2.3-5.14 5.13-5.14z"/><path d="m342.634 140.062v84.2l-86.36-46.04 81.23-43.3c2.83 0 5.13 2.3 5.13 5.14z"/></g></g></g></g></g><g><path d="m337.505 127.427h-162.461c-6.965 0-12.631 5.666-12.631 12.631v84.208c0 6.965 5.666 12.631 12.631 12.631h162.461c6.965 0 12.631-5.667 12.631-12.631v-84.208c0-6.965-5.666-12.631-12.631-12.631zm-97.174 50.802-62.918 33.54v-67.08zm-35.275-35.802h102.436l-51.218 27.303zm51.218 44.301 65.975 35.17h-131.949zm15.944-8.499 62.918-33.54v67.08z"/><path d="m492.966 456.338h-11.825v-225.34c1.448-.408 2.829-1.07 4.075-1.991l19.42-14.349c5.583-4.126 6.769-12.025 2.644-17.607l-22.787-30.84c-2.462-3.332-7.158-4.036-10.489-1.575s-4.036 7.158-1.575 10.489l21.355 28.902-15.544 11.483-99.044-134.048c-.873-1.182-2.074-2.081-3.453-2.585l-117.39-42.983c-1.666-.609-3.493-.609-5.158 0l-117.388 42.983c-1.379.505-2.581 1.404-3.454 2.585l-99.046 134.048-15.542-11.483 102.109-138.193c1.127-1.526 2.667-2.678 4.449-3.331l128.128-46.915c2.144-.783 4.504-.785 6.645 0l128.13 46.915c1.783.653 3.322 1.806 4.45 3.332l61.758 83.584c2.461 3.332 7.158 4.037 10.489 1.575s4.036-7.158 1.575-10.489l-61.759-83.586c-2.88-3.896-6.807-6.835-11.355-8.501l-128.129-46.916c-5.466-2.002-11.489-2.003-16.96 0l-128.13 46.915c-4.55 1.667-8.476 4.606-11.355 8.502l-103.54 140.132c-4.126 5.583-2.941 13.481 2.643 17.608l19.418 14.348c1.246.921 2.627 1.58 4.076 1.988v225.343h-11.824c-10.209 0-18.516 8.306-18.516 18.515v18.181c0 10.209 8.306 18.515 18.516 18.515h474.383c10.21 0 18.516-8.306 18.516-18.515v-18.181c-.001-10.21-8.306-18.515-18.516-18.515zm3.515 36.696c0 1.938-1.577 3.515-3.516 3.515h-474.382c-1.938 0-3.516-1.577-3.516-3.515v-18.181c0-1.938 1.577-3.515 3.516-3.515h397.878c4.143 0 7.5-3.358 7.5-7.5s-3.357-7.5-7.5-7.5h-22.499v-122.344c7.714-1.331 13.606-8.053 13.606-16.142v-19.565c0-9.042-7.355-16.397-16.397-16.397h-216.127c-4.142 0-7.5 3.358-7.5 7.5s3.358 7.5 7.5 7.5h216.127c.771 0 1.397.627 1.397 1.397v19.565c0 .771-.627 1.398-1.397 1.398h-269.793c-.771 0-1.398-.627-1.398-1.398v-19.565c0-.771.627-1.397 1.398-1.397h21.703c4.142 0 7.5-3.358 7.5-7.5s-3.358-7.5-7.5-7.5h-21.703c-9.042 0-16.398 7.356-16.398 16.397v19.565c0 8.089 5.893 14.811 13.607 16.142v122.344h-73.18v-231.961l97.672-132.188 112.695-41.265 112.696 41.264 97.67 132.188v231.962h-17.717c-4.143 0-7.5 3.358-7.5 7.5s3.357 7.5 7.5 7.5h44.542c1.938 0 3.516 1.577 3.516 3.515zm-117.519-158.784v17.37h-245.375v-17.37zm0 53.417h-245.375v-21.048h245.375zm-245.375 15h245.375v21.048h-245.375zm0 36.049h245.375v17.622h-245.375z"/></g></g></svg>