<svg id="Capa_1" enable-background="new 0 0 512.318 512.318" height="512" viewBox="0 0 512.318 512.318" width="512" xmlns="http://www.w3.org/2000/svg"><g><g><path d="m346.913 67.657 32.193 35.793v10.835h-245.958l-.587-9.386 33.844-37.242v-42.454h180.562z" fill="#b3e5ee"/><g><path d="m405.199 469.63c.69 19.23-14.71 35.19-33.95 35.19h-229.18c-19.24 0-34.64-15.96-33.95-35.19l10.33-288.8c.54-14.86 5.71-29.18 14.8-40.95l6.21-8.05 22.67-26.65 188.89-1.73 22.84 28.38 6.21 8.05c9.09 11.77 14.26 26.09 14.8 40.95z" fill="#d9f2f6"/></g><path d="m191.743 473.492c-19.24 0-34.64-14.981-33.95-33.032l10.33-271.089c.002-.06.005-.12.007-.18.405-9.743 8.586-17.359 18.337-17.359h187.387c4.38 0 8.536-.974 12.271-2.706-1.768-3.22-3.79-6.313-6.056-9.247l-6.21-8.05-22.84-28.38-160.859 1.473-28.031.257-22.67 26.65-6.21 8.05c-9.09 11.77-14.26 26.09-14.8 40.95l-10.33 288.8c-.69 19.23 14.71 35.19 33.95 35.19h229.18c17.935 0 32.527-13.871 33.866-31.328h-213.372z" fill="#b3e5ee"/><path d="m351.019 183.854c0 8.566-6.944 15.51-15.51 15.51-8.566 0-15.51-6.944-15.51-15.51 0-8.392-6.803-15.194-15.194-15.194h-.345c-8.582 0-15.539 6.957-15.539 15.539v32.095c0 9.89-8.017 17.907-17.907 17.907-9.89 0-17.907-8.017-17.907-17.907v-109.544h97.913v77.104z" fill="#f9f7f7"/><path d="m253.106 106.75h97.913v45.083h-97.913z" fill="#f8f3f2"/><path d="m362.275 84.737h-172.387c-2.662 0-4.06-3.159-2.27-5.13l.836-.919c3.364-3.702 5.715-8.159 6.889-12.945.832-3.389 3.77-5.835 7.259-5.835h144.321l.04-32.204.003-2.501h-163.808-16.753v42.454l-33.844 37.242.587 9.386h29.644l-.43-6.885 1.602-1.763v8.649h215.142v-10.836z" fill="#86d7e5"/><path d="m139.464 96.737h234.391c5.121 0 9.272 4.151 9.272 9.273v16.551c0 5.121-4.151 9.272-9.272 9.272h-234.391c-5.121 0-9.272-4.151-9.272-9.272v-16.551c-.001-5.122 4.151-9.273 9.272-9.273z" fill="#b3e5ee"/><path d="m154.43 120.998c-5.121 0-9.273-4.151-9.273-9.272v-14.989h-5.694c-5.121 0-9.273 4.151-9.273 9.272v16.551c0 5.121 4.151 9.272 9.273 9.272h234.391c5.121 0 9.273-4.151 9.273-9.272v-1.562z" fill="#86d7e5"/><g><path d="m351.773 47.908h-185.368c-7.815 0-14.151-6.336-14.151-14.151v-12.106c0-7.815 6.336-14.151 14.151-14.151h185.368c7.815 0 14.151 6.336 14.151 14.151v12.107c0 7.815-6.336 14.15-14.151 14.15z" fill="#d9f2f6"/><path d="m184.992 35.96c-7.815 0-14.151-6.336-14.151-14.151v-12.107c0-.751.076-1.483.188-2.203h-4.624c-7.815 0-14.151 6.336-14.151 14.151v12.107c0 7.815 6.336 14.151 14.151 14.151h185.368c7.064 0 12.92-5.182 13.981-11.949z" fill="#b3e5ee"/></g><path d="m303.747 429.877h-95.175c-8.975 0-16.252-7.276-16.252-16.252v-13.73c0-8.975 7.276-16.252 16.252-16.252h95.175c8.975 0 16.252 7.276 16.252 16.252v13.73c-.001 8.976-7.277 16.252-16.252 16.252z" fill="#86d7e5"/></g><path d="m439.999 177.595c0-9.062-7.373-16.435-16.435-16.435h-24.348c-2.729-9.294-7.166-18.038-13.207-25.861l-.524-.679c3.165-3.052 5.144-7.326 5.144-12.06v-16.551c0-8.288-6.048-15.172-13.959-16.517l-22.255-24.714v-9.536c10.697-1.307 19.01-10.44 19.01-21.484v-12.107c-.001-11.939-9.714-21.651-21.652-21.651h-130.34c-4.142 0-7.5 3.358-7.5 7.5s3.358 7.5 7.5 7.5h130.34c3.667 0 6.651 2.983 6.651 6.651v12.106c0 3.667-2.983 6.651-6.651 6.651h-185.368c-3.667 0-6.651-2.983-6.651-6.651v-12.106c0-3.667 2.983-6.651 6.651-6.651h23.065c4.142 0 7.5-3.358 7.5-7.5s-3.358-7.5-7.5-7.5h-23.065c-11.938 0-21.651 9.712-21.651 21.651v12.106c0 9.303 5.898 17.253 14.151 20.31v10.711l-22.255 24.714c-7.911 1.345-13.959 8.229-13.959 16.517v16.551c0 4.734 1.979 9.007 5.144 12.059l-.524.679c-6.041 7.823-10.478 16.567-13.207 25.861h-25.349c-9.062 0-16.435 7.373-16.435 16.435v118.084c0 31.068 12.015 59.377 31.635 80.542l-3.334 93.14c-.406 11.352 3.714 22.106 11.601 30.281 7.888 8.174 18.487 12.676 29.846 12.676h229.182c11.359 0 21.958-4.502 29.846-12.676 7.887-8.175 12.007-18.929 11.601-30.281l-3.371-94.183c19.052-21.047 30.672-48.941 30.672-79.499v-118.083zm-300.535-53.262c-.978 0-1.773-.795-1.773-1.772v-16.551c0-.978.795-1.772 1.773-1.772h234.391c.978 0 1.773.795 1.773 1.772v16.551c0 .978-.795 1.772-1.773 1.772zm32.514-51.657c1.24-1.377 1.927-3.165 1.927-5.019v-12.249h165.509v12.249c0 1.854.687 3.642 1.927 5.019l14.913 16.561h-199.189zm-84.658 223.003v-118.084c0-.792.644-1.435 1.435-1.435h22.497c-.133 1.459-.24 2.924-.293 4.398l-6.178 172.609c-11.023-16.459-17.461-36.235-17.461-57.488zm302.981 193.548c-5.035 5.218-11.8 8.092-19.051 8.092h-229.182c-7.251 0-14.017-2.874-19.051-8.092-5.035-5.218-7.665-12.083-7.406-19.329l2.877-80.383c18.548 14.346 41.443 23.331 66.344 24.592.258 12.874 10.804 23.27 23.739 23.27h95.175c12.935 0 23.481-10.396 23.739-23.27 25.337-1.283 48.6-10.559 67.317-25.347l2.904 81.137c.26 7.247-2.37 14.111-7.405 19.33zm-190.481-75.602v-13.73c0-4.826 3.926-8.751 8.751-8.751h95.175c4.826 0 8.751 3.926 8.751 8.751v13.73c0 4.826-3.926 8.751-8.751 8.751h-95.175c-4.825 0-8.751-3.925-8.751-8.751zm225.179-117.946c0 20.637-6.069 39.882-16.512 56.048l-2.577-72.008c-.148-4.139-3.62-7.373-7.763-7.227-4.14.148-7.375 3.624-7.227 7.763l3.191 89.137c-17.368 17.13-40.738 28.185-66.632 29.686-.433-12.719-10.908-22.935-23.731-22.935h-95.175c-12.823 0-23.298 10.215-23.731 22.935-25.416-1.474-48.402-12.15-65.666-28.743l6.774-189.241c.479-13.372 5.055-26.037 13.233-36.626l3.966-5.135h102.458v19.551c0 4.142 3.358 7.5 7.5 7.5s7.5-3.358 7.5-7.5v-19.551h82.913v44.521c0 4.417-3.593 8.01-8.01 8.01s-8.011-3.593-8.011-8.01c0-12.514-10.181-22.695-22.694-22.695h-.345c-12.704 0-23.04 10.335-23.04 23.04v32.095c0 5.738-4.668 10.407-10.407 10.407s-10.407-4.668-10.407-10.407v-25.448c0-4.142-3.358-7.5-7.5-7.5s-7.5 3.358-7.5 7.5v25.448c0 14.009 11.397 25.407 25.407 25.407s25.407-11.397 25.407-25.407v-32.095c0-4.433 3.606-8.04 8.04-8.04h.345c4.243 0 7.694 3.452 7.694 7.695 0 12.688 10.323 23.01 23.011 23.01s23.01-10.322 23.01-23.01v-44.521h11.652l3.966 5.135c8.179 10.59 12.755 23.255 13.233 36.626l2.405 67.198c.145 4.048 3.472 7.232 7.49 7.232.091 0 .182-.001.273-.005 4.14-.148 7.375-3.624 7.227-7.763l-2.405-67.198c-.053-1.474-.16-2.939-.293-4.398h21.497c.792 0 1.435.644 1.435 1.435v118.084z"/></g></svg>