<svg id="Capa_1" enable-background="new 0 0 510.701 510.701" height="512" viewBox="0 0 510.701 510.701" width="512" xmlns="http://www.w3.org/2000/svg"><g><g><path d="m357.667 78.086v62.623l18.962 32.511c2.021 3.465 1.453 7.858-1.384 10.695-3.185 3.185-8.257 3.463-11.771.645l-32.517-26.08c-7.73-6.2-12.229-15.574-12.229-25.484v-54.91-40.996h38.892z" fill="#f2eae7"/><path d="m363.2 60.817h37.196c5.363 0 9.711-4.348 9.711-9.711v-17.019c0-5.363-4.348-9.711-9.711-9.711h-37.196z" fill="#f2eae7"/><path d="m255.904 111.754 19.897-33.668h88.13c9.538 0 17.27-7.732 17.27-17.27v-36.046c0-9.538-7.732-17.27-17.27-17.27h-160.617c-21.381 0-38.714 17.333-38.714 38.714v36c0 5.747 2.283 11.258 6.347 15.322l15.652 15.652v71.548h69.077z" fill="#f9f7f7"/><path d="m223.056 133.672c-4.17 0-7.551-3.381-7.551-7.551v-9.858c0-4.551-1.808-8.915-5.026-12.133l-10.627-10.627c-4.064-4.064-6.347-9.575-6.347-15.322v-36c0-15.199 8.763-28.345 21.509-34.681h-11.701c-21.381 0-38.714 17.333-38.714 38.714v36c0 5.747 2.283 11.259 6.347 15.322l15.652 15.652v71.548h21.008 48.069l.16-51.007c-.673-.035-32.779-.057-32.779-.057z" fill="#f8f3f2"/><path d="m334.483 320.689 4.92-3.811c-1.894-17.622-10.411-33.984-23.986-45.666l-50.745-43.665v-19.396l.072-29.74h-89.014v29.74 19.396l-50.745 43.665c-15.485 13.324-24.391 32.737-24.391 53.166v156.706c0 12.214 9.902 22.116 22.116 22.116h194.983c12.214 0 22.116-9.902 22.116-22.116v-28.674l-3.471-2.752v-9.323l3.471-2.925v-25.177l-4.045-2.006v-10.681l4.045-2.314v-25.177l-3.584-2.111v-10.718l3.584-2.171v-25.177l-5.797-2.269z" fill="#fbe88c"/><g><path d="m163.403 479.833c-12.214 0-22.116-8.943-22.116-19.974v-141.528c0-18.45 8.906-35.983 24.391-48.016l37.526-29.163c4.52-3.513 8.017-8.052 10.274-13.155 1.31-2.961 4.271-4.845 7.509-4.845h43.684v-15l.072-29.74h-58.993-30.021v29.74 19.396l-50.745 43.665c-15.485 13.324-24.391 32.737-24.391 53.165v156.706c0 12.214 9.902 22.116 22.116 22.116h194.982c12.214 0 22.116-9.902 22.116-22.116v-1.251z" fill="#fbe372"/><path d="m264.671 208.152h-88.943c-6.147 0-11.13-4.983-11.13-11.13v-26.351c0-12.15 9.85-22 22-22h67.203c12.15 0 22 9.85 22 22v26.351c0 6.147-4.983 11.13-11.13 11.13z" fill="#f2eae7"/><path d="m196.627 199.621c-7.709 0-13.959-6.25-13.959-13.959v-18.619c0-7.68 3.938-14.437 9.901-18.372h-5.971c-12.15 0-22 9.85-22 22v26.351c0 6.147 4.983 11.13 11.13 11.13h88.943c5.25 0 9.64-3.64 10.812-8.531z" fill="#ede2dd"/></g></g><path d="m400.396 16.876h-12.992c-3.305-9.798-12.575-16.876-23.473-16.876h-114.192c-4.142 0-7.5 3.358-7.5 7.5s3.358 7.5 7.5 7.5h114.192c5.387 0 9.77 4.383 9.77 9.77v36.047c0 5.387-4.383 9.77-9.77 9.77h-88.13c-2.652 0-5.107 1.401-6.457 3.684l-19.897 33.668c-.683 1.156-1.043 2.474-1.043 3.816v29.417h-54.306v-27.983c0-1.989-.79-3.897-2.197-5.303l-15.652-15.653c-2.676-2.676-4.15-6.233-4.15-10.019v-36c0-17.211 14.003-31.214 31.214-31.214h14.463c4.142 0 7.5-3.358 7.5-7.5s-3.358-7.5-7.5-7.5h-14.463c-25.483 0-46.214 20.731-46.214 46.214v36c0 7.792 3.034 15.117 8.543 20.625l13.456 13.456v25.846c-12.645 3.327-22 14.855-22 28.53v26.351c0 7.604 4.585 14.148 11.13 17.04v10.045l-48.137 41.42c-17.158 14.765-26.999 36.215-26.999 58.851v95.529c0 4.142 3.358 7.5 7.5 7.5s7.5-3.358 7.5-7.5v-95.529c0-18.263 7.939-35.569 21.782-47.48l50.745-43.665c1.656-1.425 2.608-3.5 2.608-5.685v-11.896h73.942v11.896c0 2.185.952 4.26 2.608 5.685l50.745 43.665c11.93 10.266 19.461 24.542 21.318 39.98h-52.42c-4.142 0-7.5 3.358-7.5 7.5s3.358 7.5 7.5 7.5h52.887v25.177h-9.69c-4.143 0-7.5 3.358-7.5 7.5s3.357 7.5 7.5 7.5h9.69v25.177h-9.69c-4.143 0-7.5 3.358-7.5 7.5s3.357 7.5 7.5 7.5h9.69v25.177h-9.69c-4.143 0-7.5 3.358-7.5 7.5s3.357 7.5 7.5 7.5h9.69v28.674c0 8.06-6.557 14.616-14.615 14.616h-194.983c-8.059 0-14.616-6.557-14.616-14.616v-29.214c0-4.142-3.358-7.5-7.5-7.5s-7.5 3.358-7.5 7.5v29.214c0 16.331 13.286 29.616 29.616 29.616h194.983c16.33 0 29.615-13.286 29.615-29.616v-156.705c0-22.636-9.841-44.086-26.999-58.851l-48.137-41.42v-10.044c6.545-2.892 11.13-9.437 11.13-17.041v-26.351c0-12.905-8.333-23.893-19.897-27.886v-28.98l16.676-28.219h31.148v49.153c0 12.25 5.48 23.67 15.036 31.334l32.517 26.08c3.006 2.411 6.618 3.6 10.218 3.599 4.195 0 8.373-1.615 11.549-4.791 5.241-5.242 6.294-13.374 2.56-19.777l-17.941-30.76v-11.242c0-4.142-3.357-7.5-7.5-7.5s-7.5 3.358-7.5 7.5v13.27c0 1.328.353 2.632 1.021 3.779l18.963 32.511c.305.522.218 1.185-.21 1.613-.48.48-1.242.524-1.774.097l-32.517-26.08c-5.987-4.802-9.421-11.958-9.421-19.633v-49.153h23.938v9.891c0 4.142 3.357 7.5 7.5 7.5s7.5-3.358 7.5-7.5v-9.922c10.504-.519 19.305-7.611 22.37-17.238h12.859c9.49 0 17.212-7.721 17.212-17.211v-17.019c0-9.49-7.722-17.211-17.212-17.211zm-132.095 153.795v26.351c0 2.001-1.628 3.63-3.629 3.63h-88.943c-2.001 0-3.63-1.628-3.63-3.63v-26.351c0-7.995 6.504-14.5 14.5-14.5h67.203c7.995.001 14.499 6.505 14.499 14.5zm134.307-119.566c0 1.219-.992 2.211-2.212 2.211h-11.696v-21.44h11.695c1.22 0 2.212.992 2.212 2.211v17.018z"/></g></svg>