<svg id="Capa_1" enable-background="new 0 0 509.435 509.435" height="512" viewBox="0 0 509.435 509.435" width="512" xmlns="http://www.w3.org/2000/svg"><g><g><g><path d="m460.249 293.133-15.077-19.996c-70.047-92.898-209.545-92.898-279.592 0l-11.426 15.154-47.725 66.075s150.658 53.463 152.735 48.999 137.056 0 137.056 0l82.747-79.396z" fill="#c9a291"/></g><path d="m144.649 358.815 47.725-66.075 11.426-15.154c35.306-46.823 88.255-70.033 141.061-69.656-64.249-14.728-135.396 7.003-179.283 65.206l-11.426 15.154-47.725 66.075s150.658 53.463 152.735 48.999c.374-.804 5.076-1.317 12.508-1.62-43.528-13.301-127.021-42.929-127.021-42.929z" fill="#be8f7d"/><g><g id="XMLID_227_"><g><path d="m336.123 367.397h45.93l83.48-79.28c4.16-3.95 9.49-5.92 14.83-5.92 5.51 0 11.02 2.11 15.22 6.3 7.87 7.88 8.44 20.46 1.31 29.01l-80.95 97.05c-6.49 7.78-15.45 13.12-25.38 15.13l-129.51 26.14c-22.11 4.47-45.07 1.53-65.34-8.35l-53.34-25.98-126.084 68.945c-3.957 2.164-8.786-.7-8.786-5.21v-141.196c0-2.367 1.406-4.508 3.578-5.449l87.192-37.751c33.68-14.58 71.48-16.61 106.53-5.73l49.42 15.34h76.16c7.86 0 14.98 3.19 20.13 8.34 5.15 5.16 8.34 12.28 8.34 20.14 0 13.76-9.76 25.24-22.73 27.89z" fill="#ffe6c6"/></g><g><path d="m336.123 367.397h45.93l83.48-79.28c4.16-3.95 9.49-5.92 14.83-5.92 5.51 0 11.02 2.11 15.22 6.3 7.87 7.88 8.44 20.46 1.31 29.01l-80.95 97.05c-6.49 7.78-15.45 13.12-25.38 15.13l-129.51 26.14c-22.11 4.47-45.07 1.53-65.34-8.35l-53.34-25.98-126.084 68.945c-3.957 2.164-8.786-.7-8.786-5.21v-141.196c0-2.367 1.406-4.508 3.578-5.449l87.192-37.751c33.68-14.58 71.48-16.61 106.53-5.73l49.42 15.34h76.16c7.86 0 14.98 3.19 20.13 8.34 5.15 5.16 8.34 12.28 8.34 20.14 0 13.76-9.76 25.24-22.73 27.89z" fill="#ffe6c6"/></g><g><path d="m496.893 291.108-80.95 97.05c-6.49 7.78-15.45 13.12-25.38 15.13l-129.51 26.14c-22.11 4.47-45.07 1.53-65.34-8.35l-44.098-21.478c-5.833-2.841-12.65-2.837-18.48.012l-125.632 61.395v24.226c0 4.51 4.829 7.373 8.786 5.209l126.084-68.946 53.34 25.98c20.27 9.88 43.23 12.82 65.34 8.35l129.51-26.14c9.93-2.01 18.89-7.35 25.38-15.13l80.95-97.05c6.55-7.855 6.613-19.096.476-26.984-.152.196-.317.394-.476.586z" fill="#f8d3aa"/></g><g><g id="XMLID_229_"><g><path d="m238.572 367.397c0 11.046 8.954 20 20 20h71.811c3.27 0 6.549-.332 9.649-.966.71-.142 1.439-.303 2.166-.485 11.372-2.852 20.933-9.573 27.438-18.549z" fill="#f8d3aa"/></g></g></g></g><path d="m369.564 106.63h-71.689v-19.352c0-39.418 31.954-71.372 71.372-71.372h63.388c4.584 0 8.301 3.716 8.301 8.301v11.051c0 39.417-31.954 71.372-71.372 71.372z" fill="#c5e97d"/><path d="m310.812 99.613c0-39.418 31.954-71.372 71.372-71.372h58.752v-4.034c0-4.584-3.716-8.301-8.301-8.301h-63.389c-39.417 0-71.372 31.954-71.372 71.372v19.352h12.937v-7.017z" fill="#b1e254"/><path d="m258.212 166.134h47.164v-27.361c0-24.998-20.265-45.262-45.262-45.262h-43.431c-2.061 0-3.732 1.671-3.732 3.732v23.629c-.001 24.997 20.263 45.262 45.261 45.262z" fill="#c5e97d"/><path d="m272.007 155.726c-24.998 0-45.262-20.265-45.262-45.262v-16.954h-10.063c-2.061 0-3.732 1.671-3.732 3.732v23.629c0 24.998 20.265 45.262 45.262 45.262h47.163v-10.407z" fill="#b1e254"/></g></g><g><path d="m7.506 347.639c.994 0 2.005-.199 2.976-.619l62.037-26.857c3.802-1.646 5.549-6.062 3.903-9.862-1.646-3.801-6.062-5.55-9.862-3.903l-62.037 26.857c-3.802 1.646-5.549 6.062-3.903 9.862 1.225 2.83 3.986 4.522 6.886 4.522z"/><path d="m500.883 283.197c-10.953-10.952-28.175-11.423-39.689-1.267l-10.034-13.307c-19.783-26.239-46.1-46.623-76.103-58.948-3.831-1.574-8.213.257-9.787 4.088s.256 8.213 4.088 9.787c11.136 4.575 21.708 10.382 31.567 17.249h-22.621c-4.143 0-7.5 3.358-7.5 7.5s3.357 7.5 7.5 7.5h41.188c7.141 6.665 13.742 13.964 19.691 21.855l11.048 14.652-71.171 67.597h-19.48c4.257-5.91 6.775-13.152 6.775-20.976 0-19.837-16.139-35.975-35.976-35.975h-75.023l-48.33-15.005c-12.417-3.855-25.176-6.159-37.992-6.934l2.533-3.359c5.96-7.904 12.549-15.202 19.67-21.855h27.398c4.143 0 7.5-3.358 7.5-7.5s-3.357-7.5-7.5-7.5h-8.848c11.725-8.166 24.474-14.813 38.01-19.73 28.992-10.532 60.376-12.89 90.754-6.821 4.062.812 8.014-1.823 8.824-5.885.812-4.062-1.823-8.012-5.885-8.824-9.478-1.894-19.045-3.008-28.616-3.4v-83.727h64.189c43.49 0 78.872-35.382 78.872-78.872v-11.052c0-8.712-7.088-15.801-15.801-15.801h-51.729c-4.143 0-7.5 3.358-7.5 7.5s3.357 7.5 7.5 7.5h51.729c.441 0 .801.359.801.801v11.051c0 35.219-28.653 63.872-63.872 63.872h-64.189v-11.852c0-28.082 18.793-53.262 45.701-61.234 3.971-1.176 6.236-5.35 5.061-9.321-1.178-3.971-5.347-6.238-9.322-5.061-15.972 4.732-30.338 14.681-40.451 28.015-10.46 13.79-15.988 30.25-15.988 47.601v16.416c-9.59-9.839-22.97-15.965-37.762-15.965h-43.432c-6.193 0-11.232 5.039-11.232 11.232v23.629c0 29.093 23.669 52.762 52.763 52.762h39.663v22.475c-18.783.76-37.403 4.396-55.199 10.86-32.974 11.978-61.705 33.297-83.085 61.653l-9.313 12.351c-18.563 1.04-36.951 5.282-54.289 12.692-3.809 1.628-5.577 6.035-3.949 9.844 1.627 3.808 6.031 5.578 9.844 3.949 31.858-13.616 67.62-15.458 100.696-5.188l49.416 15.343c.72.224 1.47.337 2.224.337h76.161c11.566 0 20.976 9.409 20.976 20.975s-9.409 20.976-20.976 20.976h-71.803c-4.143 0-7.5 3.358-7.5 7.5s3.357 7.5 7.5 7.5h123.477c1.922 0 3.771-.738 5.165-2.062l83.48-79.289c5.56-5.279 14.158-5.167 19.577.252 5.165 5.165 5.531 13.29.853 18.9l-80.942 97.046c-5.38 6.451-12.877 10.918-21.112 12.581l-129.506 26.146c-20.377 4.113-41.89 1.365-60.575-7.739l-53.332-25.982c-2.185-1.063-4.749-1.004-6.884.162l-134.876 73.75c-3.634 1.987-4.969 6.544-2.982 10.179 1.363 2.492 3.935 3.903 6.588 3.903 1.216 0 2.449-.296 3.591-.921l131.475-71.888 49.849 24.285c21.631 10.538 46.53 13.72 70.114 8.957l129.506-26.146c11.569-2.335 22.104-8.613 29.663-17.677l80.942-97.046c9.682-11.61 8.923-28.426-1.766-39.114zm-242.671-124.563c-20.822 0-37.763-16.94-37.763-37.762v-19.862h39.664c20.822 0 37.762 16.94 37.762 37.762v19.861h-39.663z"/><path d="m319.171 240.778c0-4.142-3.357-7.5-7.5-7.5h-9.43c-4.143 0-7.5 3.358-7.5 7.5s3.357 7.5 7.5 7.5h9.43c4.143 0 7.5-3.358 7.5-7.5z"/><path d="m272.068 264.08c-4.143 0-7.5 3.358-7.5 7.5s3.357 7.5 7.5 7.5h34.888c4.143 0 7.5-3.358 7.5-7.5s-3.357-7.5-7.5-7.5z"/><path d="m400.305 307.996c4.143 0 7.5-3.358 7.5-7.5s-3.357-7.5-7.5-7.5h-8.172c-4.143 0-7.5 3.358-7.5 7.5s3.357 7.5 7.5 7.5z"/></g></g></svg>