<svg id="Capa_1" enable-background="new 0 0 509.706 509.706" height="512" viewBox="0 0 509.706 509.706" width="512" xmlns="http://www.w3.org/2000/svg"><g><g><path d="m374.393 20.325c-1.96-1.47-4.64-1.5-6.63-.07l-68.9 49.48c-1.37.97-1.63 2.89-.58 4.2 4.32 5.37 6.7 12.37 6.1 19.92-1.08 13.54-11.97 24.54-25.49 25.75-11.03.98-20.89-4.4-26.32-12.89-.9-1.4-2.8-1.74-4.15-.77l-110.41 79.28c-1.19.86-1.58 2.48-.87 3.76 1.81 3.24 2.81 6.98 2.76 10.96-.17 12.12-9.84 21.64-21.95 21.64-6.42 0-12.19-2.76-16.21-7.16-.99-1.09-2.65-1.25-3.85-.39l-87.63 62.92c-1.73 1.25-2.76 3.26-2.76 5.4l16.93 37.202h461.495l16.274-37.202v-6.11c.001-100.659-47.339-195.459-127.809-255.92z" fill="#fcf0b6"/><g><path d="m48.942 284.804c0-1.95 1.03-3.781 2.76-4.921l354.664-232.064c-9.975-9.792-20.645-18.983-31.973-27.494-1.96-1.47-4.64-1.5-6.63-.07l-68.9 49.48c-1.37.97-1.63 2.89-.58 4.2 4.32 5.37 6.7 12.37 6.1 19.92-1.08 13.54-11.97 24.54-25.49 25.75-11.03.98-20.89-4.4-26.32-12.89-.9-1.4-2.8-1.74-4.15-.77l-110.41 79.28c-1.19.86-1.58 2.48-.87 3.76 1.81 3.24 2.81 6.98 2.76 10.96-.17 12.12-9.84 21.64-21.95 21.64-6.42 0-12.19-2.76-16.21-7.16-.99-1.09-2.65-1.25-3.85-.39l-87.63 62.92c-1.73 1.25-2.76 3.26-2.76 5.4l16.93 37.202h24.509z" fill="#fbe88c"/><g id="XMLID_231_"><g><path d="m502.203 282.355v201.52c0 3.67-2.97 6.64-6.64 6.64h-131.51c-1.72 0-3.15-1.27-3.43-2.97-2.77-17.31-17.76-30.53-35.85-30.53-18.08 0-33.07 13.22-35.85 30.53-.27 1.7-1.7 2.97-3.42 2.97h-271.36c-3.67 0-6.64-2.97-6.64-6.64v-39.88c0-2.48 1.88-4.52 4.35-4.81 18.48-2.16 32.82-17.87 32.82-36.93s-14.34-34.77-32.82-36.92c-2.47-.29-4.35-2.33-4.35-4.82v-78.16z" fill="#fbe88c"/></g></g><g fill="#fbe372"><path d="m302.719 464.492c-7.209 5.525-12.292 13.688-13.796 23.054-.27 1.7-1.7 2.97-3.42 2.97h-271.36c-3.667 0-6.64-2.973-6.64-6.64v-39.88c0-2.48 1.88-4.52 4.35-4.81 18.48-2.16 32.82-17.87 32.82-36.93s-14.34-34.77-32.82-36.92c-2.47-.29-4.35-2.33-4.35-4.82v-78.16h42.018c-.37.762-.579 1.592-.579 2.448v159.629c0 11.206 9.084 20.285 20.29 20.269 44.54-.065 153.286-.21 233.487-.21z"/><path d="m405.492 464.492c-.444 0-23.982 0-58.658 0 7.209 5.525 12.29 13.688 13.789 23.054.28 1.7 1.71 2.97 3.43 2.97h131.51c3.67 0 6.64-2.97 6.64-6.64v-19.384z"/></g><circle cx="384.947" cy="371.084" fill="#fbe372" r="37.816"/><circle cx="282.718" cy="333.268" fill="#fbe372" r="25.787"/><g fill="#fbe88c"><circle cx="220.967" cy="202.127" r="20.668"/><circle cx="329.173" cy="202.127" r="26.225"/><circle cx="377.388" cy="117.819" r="35.446"/></g><circle cx="240.227" cy="422.916" fill="#fbe372" r="19.26"/><circle cx="143.397" cy="353.128" fill="#fbe372" r="25.398"/></g></g><g><path d="m455.851 96.287c-2.276-3.461-6.926-4.421-10.387-2.148-3.461 2.275-4.423 6.926-2.148 10.387 33.365 50.763 51.11 109.63 51.377 170.326h-367.742c-4.142 0-7.5 3.358-7.5 7.5s3.358 7.5 7.5 7.5h367.754v81.319c0 4.142 3.358 7.5 7.5 7.5s7.5-3.358 7.5-7.5v-94.929c.001-64.124-18.622-126.351-53.854-179.955z"/><path d="m502.206 395.633c-4.142 0-7.5 3.358-7.5 7.5v79.884h-127.338c-4.692-19.605-22.095-33.501-42.591-33.501-20.495 0-37.897 13.897-42.591 33.501h-267.186v-36.708c21.351-3.602 37.178-22.147 37.178-44.05s-15.827-40.448-37.178-44.05v-68.358h79.989c4.142 0 7.5-3.358 7.5-7.5s-3.358-7.5-7.5-7.5h-68.928l73.139-52.519c5.245 4.328 11.886 6.75 18.751 6.751h.001c16.282 0 29.217-12.751 29.447-29.028.053-3.75-.612-7.467-1.94-10.94l103.68-74.45c7.45 8.766 18.705 13.454 30.417 12.408 17.055-1.521 30.941-15.545 32.3-32.622.598-7.521-1.15-14.912-4.964-21.255l64.106-46.033c19.974 15.148 38.098 32.691 53.888 52.162 2.609 3.217 7.332 3.71 10.549 1.101s3.71-7.332 1.101-10.549c-16.855-20.784-36.25-39.473-57.643-55.548-4.6-3.457-10.831-3.524-15.504-.168l-68.904 49.478c-2.313 1.661-3.862 4.23-4.248 7.051-.386 2.823.416 5.717 2.199 7.939 3.304 4.118 4.891 9.315 4.467 14.633-.786 9.878-8.816 17.991-18.68 18.871-7.75.689-15.16-2.933-19.337-9.458-1.527-2.385-4-4.059-6.787-4.593-2.801-.539-5.735.11-8.051 1.773l-110.409 79.281c-4.299 3.087-5.609 8.89-3.046 13.499 1.219 2.189 1.844 4.682 1.808 7.208-.112 7.985-6.459 14.241-14.448 14.24-4.104 0-7.893-1.673-10.667-4.71-3.556-3.895-9.473-4.509-13.765-1.43l-87.629 62.924c-3.689 2.649-5.892 6.942-5.892 11.484v78.168c0 6.261 4.723 11.534 10.986 12.265 14.932 1.742 26.191 14.414 26.191 29.476s-11.26 27.733-26.191 29.476c-6.263.729-10.986 6.002-10.986 12.264v39.88c0 7.795 6.342 14.138 14.138 14.138h271.362c5.413 0 9.968-3.906 10.831-9.288 2.251-14.03 14.214-24.213 28.446-24.213s26.195 10.183 28.446 24.212c.863 5.382 5.417 9.289 10.83 9.289h131.515c7.795 0 14.138-6.342 14.138-14.138v-80.747c0-4.142-3.358-7.5-7.5-7.5z"/><path d="m430.262 371.084c0-24.987-20.329-45.316-45.316-45.316s-45.315 20.329-45.315 45.316 20.329 45.316 45.315 45.316c24.988 0 45.316-20.329 45.316-45.316zm-75.631 0c0-16.716 13.6-30.316 30.315-30.316 16.716 0 30.316 13.6 30.316 30.316s-13.6 30.316-30.316 30.316-30.315-13.6-30.315-30.316z"/><path d="m282.718 366.555c18.354 0 33.287-14.933 33.287-33.287s-14.933-33.287-33.287-33.287-33.287 14.933-33.287 33.287 14.933 33.287 33.287 33.287zm0-51.574c10.083 0 18.287 8.204 18.287 18.287s-8.204 18.287-18.287 18.287-18.287-8.204-18.287-18.287 8.204-18.287 18.287-18.287z"/><path d="m192.799 202.127c0 15.532 12.636 28.168 28.168 28.168s28.168-12.636 28.168-28.168-12.636-28.168-28.168-28.168-28.168 12.636-28.168 28.168zm41.336 0c0 7.261-5.907 13.168-13.168 13.168s-13.168-5.907-13.168-13.168 5.907-13.168 13.168-13.168 13.168 5.907 13.168 13.168z"/><path d="m295.448 202.127c0 18.596 15.129 33.726 33.726 33.726s33.726-15.129 33.726-33.726-15.129-33.726-33.726-33.726-33.726 15.129-33.726 33.726zm52.451 0c0 10.325-8.4 18.726-18.726 18.726s-18.726-8.4-18.726-18.726 8.4-18.726 18.726-18.726 18.726 8.4 18.726 18.726z"/><path d="m420.334 117.818c0-23.68-19.266-42.946-42.946-42.946s-42.945 19.266-42.945 42.946 19.265 42.946 42.945 42.946 42.946-19.265 42.946-42.946zm-70.891 0c0-15.409 12.536-27.946 27.945-27.946s27.946 12.537 27.946 27.946-12.537 27.946-27.946 27.946-27.945-12.536-27.945-27.946z"/><path d="m213.467 422.917c0 14.755 12.004 26.76 26.76 26.76s26.76-12.004 26.76-26.76-12.004-26.76-26.76-26.76-26.76 12.004-26.76 26.76zm38.52 0c0 6.484-5.275 11.76-11.76 11.76s-11.76-5.275-11.76-11.76 5.275-11.76 11.76-11.76 11.76 5.275 11.76 11.76z"/><path d="m143.397 386.026c18.14 0 32.898-14.758 32.898-32.898s-14.758-32.898-32.898-32.898-32.898 14.758-32.898 32.898 14.758 32.898 32.898 32.898zm0-50.796c9.869 0 17.898 8.029 17.898 17.898s-8.029 17.898-17.898 17.898-17.898-8.029-17.898-17.898 8.029-17.898 17.898-17.898z"/></g></g></svg>