<svg id="Capa_1" enable-background="new 0 0 515.753 515.753" height="512" viewBox="0 0 515.753 515.753" width="512" xmlns="http://www.w3.org/2000/svg"><g><g><ellipse cx="196.245" cy="206.512" fill="#fcf1de" rx="61.615" ry="74.14"/><ellipse cx="319.475" cy="206.512" fill="#fcf6ed" rx="61.615" ry="74.14"/><path d="m159.88 202.928c.013-.274.022-.551.037-.825h97.834c-1.089-22.324-10.37-41.983-24.296-54.691-12.383 5.208-23.239 14.249-31.483 25.905-1.969 2.783-5.795 3.407-8.579 1.439-5.101-3.605-10.61-6.495-16.422-8.554-3.024-1.071-4.22-4.772-2.357-7.384 8.945-12.538 21.311-21.438 35.356-24.601-4.418-1.211-9.001-1.846-13.724-1.846-33.03 0-59.985 31.275-61.539 70.556h25.173z" fill="#f8deb6"/><ellipse cx="156.014" cy="247.703" fill="#fcf1de" rx="61.615" ry="74.14"/><path d="m119.595 247.999c0-35.996 21.322-66.009 49.595-72.738-4.247-1.114-8.652-1.699-13.176-1.699-34.029 0-61.615 33.194-61.615 74.14s27.586 74.14 61.615 74.14c4.114 0 8.131-.495 12.02-1.421-27.696-7.261-48.439-36.919-48.439-72.422z" fill="#f6e2c4"/><path d="m381.09 206.512c0-16.551-4.498-31.823-12.116-44.16-3.198-.499-6.466-.789-9.779-.789-11.657 0-22.685 3.195-32.488 8.868-5.38 3.113-12.243 1.766-16.229-3.003-.928-1.111-1.882-2.192-2.861-3.243-3.896-4.186-4.018-10.692-.163-14.916 6.453-7.072 14.158-12.516 22.668-15.794-3.46-.725-7.015-1.103-10.647-1.103-34.029 0-61.615 33.194-61.615 74.14 0 40.947 27.586 74.14 61.615 74.14 6.558 0 12.872-1.244 18.8-3.528-25.209-5.286-45.153-28.996-49.891-59.181h91.975c.479-3.726.731-7.543.731-11.431z" fill="#f6e2c4"/><ellipse cx="359.194" cy="247.703" fill="#fcf1de" rx="61.615" ry="74.14"/><path d="m327.986 248.069c0-34.895 20.04-64.142 47.023-72.03-5.048-1.609-10.346-2.476-15.814-2.476-34.029 0-61.615 33.194-61.615 74.14s27.586 74.14 61.615 74.14c5.029 0 9.913-.742 14.592-2.11-26.365-8.402-45.801-37.297-45.801-71.664z" fill="#f8deb6"/><ellipse cx="257.86" cy="227.582" fill="#fcf1de" rx="61.615" ry="74.14"/><path d="m228.21 227.582c0-34.293 19.343-63.153 45.621-71.625-5.098-1.644-10.442-2.515-15.971-2.515-34.029 0-61.615 33.194-61.615 74.14s27.586 74.14 61.615 74.14c5.529 0 10.884-.89 15.982-2.534-26.278-8.471-45.632-37.313-45.632-71.606z" fill="#f6e2c4"/><g><g id="XMLID_310_"><g><g><path d="m479.968 238.909c19.51 17.13 28.24 39.39 28.24 61.28 0 42.28-32.52 83.19-82.65 83.19h-335.4c-76.1 0-111.6-94.27-54.41-144.47 19.11-16.77 44.87-23.79 69.84-19.03l57.47 10.94c62.64 11.93 126.96 11.93 189.6 0l57.47-10.94c24.97-4.76 50.74 2.26 69.84 19.03z" fill="#f7d8a4"/></g></g></g></g><path d="m456.652 361.349s-337.291-.015-338.227-.044c-32.758-1.017-59.096-27.9-59.236-60.674-.001-.148-.001-.295-.001-.443 0-21.89 6.93-44.15 22.41-61.28 8.14-9 17.79-15.19 28.06-18.26l-4.07-.77c-24.97-4.76-50.73 2.26-69.84 19.03-57.19 50.2-21.69 144.47 54.41 144.47h335.4c26.117 0 47.461-11.111 61.91-27.728-9.279 3.647-19.611 5.699-30.816 5.699z" fill="#f5cd8b"/></g><g><path d="m509.178 266.909c-1.572-3.832-5.953-5.664-9.785-4.093-3.833 1.572-5.665 5.953-4.094 9.785 9.272 22.607 6.301 49.669-7.755 70.625-12.734 18.986-32.728 30.557-55.545 32.391 9.283-7.749 17.103-18.228 22.773-31 7.644-17.216 10.701-37.232 8.609-56.363-2.292-20.961-10.487-39.764-23.699-54.376-2.554-2.825-5.276-5.407-8.126-7.751 15.914 1.242 31.101 7.567 43.464 18.417 1.339 1.175 2.68 2.44 4.098 3.867 2.921 2.938 7.67 2.952 10.606.032 2.938-2.919 2.952-7.668.032-10.606-1.662-1.673-3.247-3.167-4.842-4.566-18.291-16.055-41.735-23.863-65.618-22.145-7.936-18.744-21.44-32.82-37.56-39.918-11.48-28.26-35.603-46.336-62.262-46.336-17.711 0-34.783 8.149-47.559 22.497-4.616-1.135-9.332-1.719-14.056-1.719-4.817 0-9.518.591-14.06 1.708-11.209-12.609-25.631-20.417-41.114-22.114-4.122-.448-7.821 2.521-8.272 6.639s2.521 7.821 6.639 8.272c10.057 1.102 19.608 5.713 27.63 13.178-11.704 6.49-21.626 16.752-28.655 29.464-11.951-10.843-26.469-16.735-41.849-16.735-1.651 0-3.29.075-4.918.21 5.421-8.797 12.546-15.874 20.825-20.504 3.615-2.022 4.907-6.591 2.885-10.207-2.021-3.615-6.591-4.907-10.207-2.885-14.359 8.031-25.897 21.633-32.762 38.523-16.129 7.095-29.64 21.176-37.58 39.927-23.882-1.716-47.327 6.09-65.618 22.145-14.71 12.913-24.636 29.429-28.703 47.765-3.775 17.025-2.443 34.86 3.852 51.576s17.059 30.999 31.127 41.305c15.15 11.098 33.505 16.964 53.081 16.964h335.401c30.557 0 57.689-14.324 74.441-39.3 17.059-25.435 20.489-57.088 9.176-84.672zm-60.707 22.976c1.808 16.537-.822 33.813-7.407 48.646-9.13 20.564-24.777 34.134-42.603 37.35h-19.703c10.245-11.786 17.792-29.972 21.129-52.576.604-4.098-2.228-7.91-6.325-8.515-4.085-.604-7.909 2.227-8.515 6.324-3.983 26.988-16.325 48.612-29.691 54.767h-89.278v-59.47c0-4.142-3.357-7.5-7.5-7.5-4.142 0-7.5 3.358-7.5 7.5v59.47h-84.47c-16.399-.003-31.176-22.523-35.936-54.767-.605-4.098-4.419-6.934-8.515-6.324-4.098.604-6.929 4.417-6.324 8.515 3.335 22.596 10.878 40.783 21.116 52.576h-21.298c-17.071-3.749-32.158-17.445-40.995-37.35-6.584-14.832-9.215-32.108-7.407-48.646 1.946-17.803 8.833-33.691 19.915-45.947 6.637-7.341 14.547-12.694 22.969-15.563l22.045 4.198c-.525.778-1.041 1.57-1.546 2.384-8.909 14.37-14.452 32.773-16.029 53.219-.319 4.13 2.771 7.736 6.9 8.055.196.016.392.023.585.023 3.88 0 7.166-2.99 7.469-6.923 1.394-18.062 6.174-34.132 13.824-46.47 1.655-2.669 3.423-5.051 5.274-7.15l13 2.476c29.674 5.651 59.541 8.671 89.422 9.069v33.98c0 4.142 3.358 7.5 7.5 7.5 4.143 0 7.5-3.358 7.5-7.5v-34.006c29.402-.474 58.788-3.483 87.985-9.043l13.01-2.478c1.848 2.097 3.612 4.486 5.265 7.152 7.648 12.337 12.429 28.406 13.823 46.47.304 3.934 3.589 6.923 7.47 6.923.193 0 .389-.008.585-.023 4.13-.319 7.22-3.925 6.9-8.055-1.578-20.447-7.121-38.851-16.029-53.22-.505-.815-1.023-1.606-1.548-2.384l22.046-4.198c8.422 2.87 16.333 8.223 22.969 15.564 11.085 12.256 17.971 28.144 19.918 45.947zm-44.609-76.452-52.605 10.018c-8.081 1.539-16.177 2.873-24.284 4.01-.012-10.393-1.658-20.53-4.822-30.009 9.854-10.592 22.279-16.39 35.39-16.39 19.13 0 36.6 12.454 46.321 32.371zm-146.002-52.783c8.341 0 16.364 2.316 23.842 6.883 3.534 2.158 8.151 1.043 10.31-2.492s1.044-8.151-2.491-10.31c-.814-.497-1.639-.967-2.47-1.425 9.314-8.709 20.55-13.435 32.424-13.435 17.053 0 32.896 10.015 43.01 26.402-1.636-.137-3.284-.212-4.944-.212-15.367 0-29.885 5.86-41.832 16.68-.391-.708-.785-1.415-1.196-2.111-2.104-3.568-6.703-4.752-10.271-2.648-3.567 2.105-4.753 6.703-2.647 10.271 6.79 11.509 10.379 25.108 10.379 39.328 0 .574-.03 1.172-.043 1.758-35.991 3.944-72.151 3.944-108.143 0-.015-.586-.043-1.183-.043-1.757 0-36.907 24.276-66.932 54.115-66.932zm-99.681 20.412c13.125 0 25.561 5.81 35.42 16.421-3.107 9.29-4.837 19.397-4.85 29.978-8.107-1.138-16.203-2.471-24.285-4.01l-52.597-10.017c9.72-19.915 27.183-32.372 46.312-32.372zm-138.189 146.264c-8.84-23.474-8.042-57.546 20.71-82.781 12.36-10.848 27.543-17.173 43.455-18.417-2.847 2.344-5.565 4.927-8.117 7.75-13.212 14.613-21.407 33.416-23.699 54.377-2.092 19.13.966 39.146 8.609 56.362 5.671 12.773 13.489 23.26 22.773 31.011-34.415-2.634-55.4-26.178-63.731-48.302z"/><path d="m325.017 259.45c-4.109.526-7.014 4.284-6.487 8.392 3.227 25.194 2.424 55.43-2.095 78.907-.782 4.068 1.881 8 5.948 8.782.479.092.955.137 1.425.137 3.524 0 6.666-2.496 7.357-6.084 4.798-24.932 5.657-56.983 2.243-83.647-.526-4.109-4.279-7.008-8.391-6.487z"/><path d="m197.192 267.842c.526-4.109-2.378-7.866-6.487-8.392-4.115-.52-7.866 2.379-8.392 6.487-3.414 26.665-2.554 58.717 2.244 83.647.69 3.589 3.833 6.084 7.356 6.084.47 0 .947-.044 1.426-.137 4.067-.783 6.73-4.714 5.947-8.782-4.517-23.476-5.32-53.711-2.094-78.907z"/></g></g></svg>