<svg id="Capa_1" enable-background="new 0 0 514.314 514.314" height="512" viewBox="0 0 514.314 514.314" width="512" xmlns="http://www.w3.org/2000/svg"><g><g><g><g id="XMLID_232_"><g><path d="m152.678 47.288c-2.01-3.35-3.17-7.27-3.17-11.47 0-6.16 2.5-11.74 6.53-15.77s9.61-6.53 15.76-6.53h123.76c13.93 0 27.58 3.91 39.39 11.3l30.37 18.98h131.76c5.379 0 9.74 4.361 9.74 9.74v140.961c0 5.379-4.361 9.74-9.74 9.74h-107.83l-5.61 4.4c-14.88 11.68-33.25 18.02-52.16 18.02h-13.08c0-.01-90.7-.01-90.7 0h-131.094c-12.154 0-22.506-9.449-22.941-21.596-.457-12.756 9.741-23.244 22.405-23.244h-19.43c-6.19 0-11.79-2.51-15.85-6.57-4.06-4.05-6.57-9.66-6.57-15.85 0-12.38 10.04-22.42 22.42-22.42h-46.26c-6.19 0-11.79-2.51-15.85-6.57-4.142-4.132-6.67-9.886-6.567-16.224.201-12.319 10.603-22.046 22.924-22.046h31.663c-6.19 0-11.8-2.51-15.85-6.57-4.14-4.14-6.668-9.892-6.567-16.227.197-12.322 10.601-22.053 22.925-22.053z" fill="#ffe6c6"/></g><g><path d="m387.412 185.709c-3.491 0-6.881 1.171-9.628 3.325l-1.37 1.075c-14.88 11.68-33.25 18.02-52.16 18.02h-13.08c0-.01-90.7-.01-90.7 0h-122.095c-9.889 0-18.583-6.255-21.716-15.129-2.08 3.585-3.196 7.797-2.992 12.284.548 12.057 10.863 21.373 22.932 21.373h131.094c0-.01 90.7-.01 90.7 0h13.08c18.91 0 37.28-6.34 52.16-18.02l5.61-4.4h107.83c5.379 0 9.74-4.361 9.74-9.74v-8.789h-119.405z" fill="#f8d3aa"/></g><g><g id="XMLID_235_"><g><path d="m152.046 46.153c.201.384.409.765.632 1.135h-21.581c1.014 3.601 2.5 7.072 4.445 10.314 7.613 12.648 21.506 20.506 36.256 20.506h37.686l32.231 32.232c10.607 10.607 24.707 16.448 39.703 16.448 15.427 0 27.934-12.506 27.934-27.934v-52.701z" fill="#f8d3aa"/><path d="m361.108 41.168v65.62h-79.69c-9.59 0-18.78-3.81-25.56-10.59l-38.09-38.09h-45.97c-8.12 0-15.22-4.34-19.12-10.82-2.01-3.35-3.17-7.27-3.17-11.47 0-6.16 2.5-11.74 6.53-15.77s9.61-6.53 15.76-6.53h123.76c13.93 0 27.58 3.91 39.39 11.3z" fill="#ffe6c6"/></g></g><g fill="#f8d3aa"><path d="m66.727 79.043c-6.19 0-11.8-2.51-15.85-6.57-4.045-4.045-6.53-9.511-6.548-15.674-2.629 3.673-4.201 8.05-4.201 12.91 0 6.19 2.51 11.8 6.57 15.86 4.05 4.06 9.66 6.57 15.85 6.57h90.13c0-7.232-5.863-13.095-13.095-13.095h-72.856z"/><path d="m34.37 121.357c-6.19 0-11.79-2.51-15.85-6.57-3.476-3.467-5.785-7.963-6.387-13.102-2.61 3.665-4.175 8.028-4.175 12.874 0 6.19 2.51 11.8 6.57 15.85 4.06 4.06 9.66 6.57 15.85 6.57h133.52c0-8.627-6.994-15.621-15.621-15.621h-113.907z"/><path d="m81.959 169.083c-6.19 0-11.79-2.51-15.85-6.57-4.06-4.05-6.57-9.66-6.57-15.85 0-.625.035-1.251.085-1.863-3.365 3.922-5.406 9.025-5.406 14.596 0 6.19 2.51 11.8 6.57 15.85 4.06 4.06 9.66 6.57 15.85 6.57h87.26c0-7.032-5.701-12.733-12.733-12.733z"/></g></g></g><circle cx="220.093" cy="150.164" fill="#fcf1de" r="20.378"/><circle cx="273.049" cy="226.619" fill="#fcf1de" r="15.348"/><g id="XMLID_239_"><g><path d="m462.218 500.798h-439.49l123.68-105.3c15.43-13.14 35.02-20.35 55.28-20.35h81.56c20.26 0 39.86 7.21 55.29 20.35z" fill="#c9a291"/></g></g><path d="m247.532 333.342h-22.94v-13.612c0-20.101 16.295-36.397 36.397-36.397h18.135c2.654 0 4.805 2.151 4.805 4.805v8.808c0 20.101-16.296 36.396-36.397 36.396z" fill="#c5e97d"/><path d="m229.928 327.653c0-20.102 16.295-36.397 36.397-36.397h17.604v-3.118c0-2.654-2.151-4.805-4.805-4.805h-18.135c-20.101 0-36.397 16.295-36.397 36.397v13.612h5.336z" fill="#b1e254"/><path d="m204.799 344.715h20.152v-12.491c0-13.856-11.233-25.089-25.089-25.089h-15.06c-2.812 0-5.092 2.28-5.092 5.092v7.4c0 13.855 11.233 25.088 25.089 25.088z" fill="#c5e97d"/><path d="m213.87 341.355c-13.856 0-25.089-11.232-25.089-25.089v-7.4c0-.611.125-1.189.323-1.732h-4.302c-2.812 0-5.092 2.28-5.092 5.092v7.4c0 13.856 11.233 25.089 25.089 25.089h20.152v-3.36z" fill="#b1e254"/><g fill="#fcf1de"><circle cx="202.33" cy="429.065" r="16.472"/><circle cx="280.714" cy="445.537" r="20.984"/></g></g><path d="m462.218 500.798-32.864-27.98h-306.251c-6.431 0-9.315-8.064-4.341-12.142l55.324-45.362c16.022-13.14 36.363-20.35 57.4-20.35h84.688c8.971 0 17.814 1.323 26.253 3.846l-3.891-3.313c-15.427-13.135-35.027-20.348-55.288-20.348h-81.56c-20.26 0-39.85 7.21-55.28 20.35l-123.68 105.3h47.101l4.479-3.673v3.673h387.91z" fill="#be8f7d"/></g><g><path d="m434.176 51.297h72.639c4.143 0 7.5-3.358 7.5-7.5s-3.357-7.5-7.5-7.5h-72.639c-4.143 0-7.5 3.358-7.5 7.5s3.357 7.5 7.5 7.5z"/><path d="m117.994 54.791h30.852c5.47 6.605 13.729 10.82 22.955 10.82h42.865l35.886 35.886c8.246 8.246 19.209 12.787 30.869 12.787h8.32c4.143 0 7.5-3.358 7.5-7.5s-3.357-7.5-7.5-7.5h-8.32c-7.654 0-14.85-2.981-20.262-8.393l-38.083-38.083c-1.407-1.407-3.314-2.197-5.304-2.197h-45.972c-8.159 0-14.797-6.638-14.797-14.797s6.638-14.797 14.797-14.797h123.757c12.537 0 24.783 3.512 35.416 10.157l30.374 18.983c1.191.745 2.569 1.14 3.975 1.14h36.891c4.143 0 7.5-3.358 7.5-7.5s-3.357-7.5-7.5-7.5h-34.739l-28.551-17.843c-13.019-8.136-28.014-12.437-43.365-12.437h-123.757c-16.43 0-29.797 13.367-29.797 29.798 0 1.349.099 2.675.273 3.977h-24.283c-4.143 0-7.5 3.358-7.5 7.5s3.358 7.499 7.5 7.499z"/><path d="m30.38 144.476h20.344c-2.541 4.396-4.003 9.49-4.003 14.921 0 14.399 10.225 26.453 23.795 29.288-2.771 4.536-4.371 9.862-4.371 15.555 0 16.499 13.423 29.921 29.921 29.921h131.637c4.143 0 7.5-3.358 7.5-7.5 0-.058-.001-.125-.002-.188-.078-4.075-3.405-7.354-7.499-7.354-.272 0-.542.015-.808.043h-130.829c-8.228 0-14.921-6.694-14.921-14.921s6.693-14.921 14.921-14.921h67.835c4.143 0 7.5-3.358 7.5-7.5s-3.357-7.5-7.5-7.5h-87.257c-8.228 0-14.922-6.694-14.922-14.921s6.694-14.921 14.922-14.921h87.257c4.143 0 7.5-3.358 7.5-7.5s-3.357-7.5-7.5-7.5h-133.52c-8.228 0-14.921-6.694-14.921-14.921s6.693-14.921 14.921-14.921h133.52c4.143 0 7.5-3.358 7.5-7.5s-3.357-7.5-7.5-7.5h-101.353c-8.228 0-14.921-6.694-14.921-14.921s6.693-14.921 14.921-14.921h23.485c4.143 0 7.5-3.358 7.5-7.5s-3.357-7.5-7.5-7.5h-23.485c-16.498 0-29.921 13.423-29.921 29.921 0 5.432 1.462 10.526 4.003 14.921h-6.249c-16.498 0-29.921 13.423-29.921 29.921s13.423 29.919 29.921 29.919z"/><path d="m506.814 196.74h-117.566c-1.679 0-3.309.563-4.629 1.599l-5.613 4.403c-13.495 10.588-30.375 16.42-47.529 16.42h-12.272c-.266-.028-.534-.043-.808-.043-4.095 0-7.423 3.282-7.499 7.358-.001.062-.002.128-.002.185 0 4.142 3.357 7.5 7.5 7.5h13.081c20.496 0 40.664-6.967 56.788-19.618l3.574-2.804h114.976c4.143 0 7.5-3.358 7.5-7.5s-3.358-7.5-7.501-7.5z"/><path d="m192.215 150.164c0 15.372 12.506 27.878 27.878 27.878s27.879-12.506 27.879-27.878-12.507-27.878-27.879-27.878-27.878 12.506-27.878 27.878zm40.757 0c0 7.101-5.777 12.878-12.879 12.878-7.101 0-12.878-5.777-12.878-12.878s5.777-12.878 12.878-12.878c7.101-.001 12.879 5.777 12.879 12.878z"/><path d="m273.049 203.771c-12.599 0-22.848 10.25-22.848 22.848s10.249 22.847 22.848 22.847 22.848-10.249 22.848-22.847-10.25-22.848-22.848-22.848zm0 30.695c-4.327 0-7.848-3.52-7.848-7.847s3.521-7.848 7.848-7.848 7.848 3.521 7.848 7.848-3.521 7.847-7.848 7.847z"/><path d="m474.178 493.298h-9.202l-73.199-62.323c-3.155-2.686-7.888-2.305-10.573.849s-2.305 7.887.849 10.572l59.785 50.902h-398.733l108.164-92.092c14.056-11.967 31.963-18.558 50.423-18.558h81.558c18.461 0 36.368 6.591 50.423 18.558l24.029 20.458c3.156 2.687 7.889 2.306 10.573-.849 2.685-3.154 2.305-7.887-.849-10.572l-24.029-20.458c-16.766-14.275-38.127-22.137-60.147-22.137h-51.158v-26.806h15.44c24.205 0 43.896-19.692 43.896-43.897v-8.808c0-6.785-5.52-12.305-12.305-12.305h-18.135c-19.99 0-36.891 13.437-42.174 31.749-5.716-4.945-13.156-7.947-21.29-7.947h-15.061c-6.942 0-12.591 5.648-12.591 12.592v7.399c0 17.97 14.619 32.589 32.589 32.589h14.629v15.433h-15.399c-22.02 0-43.381 7.862-60.147 22.137l-121.577 103.514h-12.467c-4.143 0-7.5 3.358-7.5 7.5s3.357 7.5 7.5 7.5h466.678c4.143 0 7.5-3.358 7.5-7.5s-3.358-7.5-7.5-7.5zm-242.086-173.568c0-15.934 12.963-28.897 28.897-28.897h15.439v6.112c0 15.934-12.963 28.897-28.896 28.897h-15.44zm-16.978 17.485h-12.651c-9.698 0-17.589-7.89-17.589-17.589v-4.991h12.651c9.698 0 17.589 7.89 17.589 17.589z"/><path d="m178.358 429.065c0 13.218 10.754 23.972 23.972 23.972s23.972-10.753 23.972-23.972-10.754-23.972-23.972-23.972-23.972 10.753-23.972 23.972zm32.944 0c0 4.947-4.024 8.972-8.972 8.972s-8.972-4.025-8.972-8.972 4.024-8.972 8.972-8.972 8.972 4.024 8.972 8.972z"/><path d="m252.23 445.536c0 15.706 12.777 28.484 28.483 28.484s28.484-12.778 28.484-28.484-12.778-28.484-28.484-28.484-28.483 12.778-28.483 28.484zm41.968 0c0 7.435-6.049 13.484-13.484 13.484s-13.483-6.049-13.483-13.484 6.049-13.484 13.483-13.484c7.435 0 13.484 6.049 13.484 13.484z"/></g></g></svg>