<svg id="Capa_1" enable-background="new 0 0 512.078 512.078" height="512" viewBox="0 0 512.078 512.078" width="512" xmlns="http://www.w3.org/2000/svg"><g><g><path d="m328.79 7.501h-17.07c-55.17 0-101.72 36.88-116.33 87.34l6.875 28.376h234.038l8.817-28.376c-14.61-50.459-61.16-87.34-116.33-87.34z" fill="#f9f7f7"/><path d="m257.317 94.902c12.594-43.499 48.933-76.883 94.06-85.272-7.32-1.381-14.865-2.128-22.587-2.128h-17.07c-55.17 0-101.72 36.88-116.33 87.34l6.875 28.376h50.398c.435-9.783 2.021-19.272 4.654-28.316z" fill="#f2eae7"/><g id="XMLID_305_"><g><path d="m449.91 128.622v375.96h-259.31v-375.96c0-11.72 1.67-23.06 4.79-33.78h249.73c3.12 10.72 4.79 22.06 4.79 33.78z" fill="#f2eae7"/></g></g><g><path d="m354.006 219.728-66.514-65.609c-4.956-4.955-11.817-7.798-18.823-7.798h-.053c-8.886 0-16.09-7.204-16.09-16.09v-1.549c0-11.72 1.67-23.06 4.79-33.78.006-.02.013-.04.019-.06h-61.945c-3.12 10.72-4.79 22.06-4.79 33.78v375.96h170.53v-265.8-2.022c-.001-6.402-2.566-12.537-7.124-17.032z" fill="#ede2dd"/><path d="m308.852 221.649h-222.156l-33.046 17.132v265.801h287.48v-265.801z" fill="#f9f7f7"/><path d="m94.54 241.503c0-1.75.7-3.44 1.94-4.68l15.174-15.174h-24.958l-33.046 17.132v265.8h40.89z" fill="#f2eae7"/><g id="XMLID_308_"><g><path d="m341.13 238.782h-287.48c0-1.75.7-3.44 1.94-4.68l65.84-65.84c1.24-1.24 2.93-1.94 4.68-1.94h142.56c1.75 0 3.44.7 4.68 1.94l65.84 65.84c1.24 1.24 1.94 2.93 1.94 4.68z" fill="#cbc0bb"/></g></g><path d="m284.855 179.767-11.505-11.506c-1.242-1.242-2.927-1.94-4.683-1.94h-142.554c-1.757 0-3.441.698-4.683 1.94l-65.84 65.84c-1.24 1.24-1.94 2.93-1.94 4.68h41.485c.326-.721.776-1.389 1.345-1.958l52.328-52.328c3.028-3.028 7.134-4.728 11.415-4.728z" fill="#b7acac"/></g></g><path d="m468.04 497.078h-10.625v-368.457c0-39.337-17.656-75.991-48.44-100.565-3.237-2.586-7.957-2.055-10.54 1.183-2.584 3.237-2.055 7.956 1.183 10.54 15.959 12.74 27.918 29.156 35.082 47.566h-126.476c-4.143 0-7.5 3.357-7.5 7.5s3.357 7.5 7.5 7.5h131.136c2.008 8.507 3.054 17.312 3.054 26.276v368.457h-93.789v-58.209c0-4.143-3.357-7.5-7.5-7.5s-7.5 3.357-7.5 7.5v58.209h-135.523v-250.797h39.293c4.142 0 7.5-3.357 7.5-7.5s-3.358-7.5-7.5-7.5h-168.373l57.455-57.455h141.826l57.455 57.455h-56.4c-4.143 0-7.5 3.357-7.5 7.5s3.357 7.5 7.5 7.5h64.268v160.625c0 4.143 3.357 7.5 7.5 7.5s7.5-3.357 7.5-7.5v-168.125c0-3.77-1.468-7.313-4.133-9.979l-65.846-65.845c-2.666-2.664-6.209-4.131-9.977-4.131h-70.569v-30.205c0-9.042 1.068-17.839 3.073-26.276h76.226c4.143 0 7.5-3.357 7.5-7.5s-3.357-7.5-7.5-7.5h-71.537c16.554-42.303 57.763-72.345 105.861-72.345h17.068c15.454 0 30.438 3.049 44.535 9.062 3.811 1.628 8.216-.146 9.841-3.956s-.146-8.216-3.956-9.841c-15.968-6.812-32.932-10.265-50.42-10.265h-17.068c-70.923 0-128.623 57.699-128.623 128.621v30.205h-56.992c-3.769 0-7.312 1.468-9.979 4.133l-65.843 65.843c-2.666 2.666-4.133 6.21-4.133 9.979v258.297h-2.116c-4.142 0-7.5 3.357-7.5 7.5s3.358 7.5 7.5 7.5h424.002c4.143 0 7.5-3.357 7.5-7.5s-3.358-7.5-7.5-7.5zm-348.757-138.713h63.819v41.042h-63.819zm0 56.042h63.819v41.041h-63.819zm63.819-71.042h-63.819v-41.042h63.819zm-63.819 127.083h63.819v26.63h-63.819zm63.819-183.125h-63.819v-41.042h63.819zm-121.947-41.042h43.128v250.797h-43.128z"/></g></svg>