<svg id="Capa_1" enable-background="new 0 0 505.028 505.028" height="512" viewBox="0 0 505.028 505.028" width="512" xmlns="http://www.w3.org/2000/svg"><g><g><path d="m245.724 36.18c94.627 0 171.609 76.982 171.609 171.609 0 94.616-76.982 171.609-171.609 171.609s-171.609-76.993-171.609-171.609c0-94.627 76.982-171.609 171.609-171.609zm101.498 171.609c0-55.969-45.529-101.498-101.498-101.498s-101.498 45.529-101.498 101.498c0 55.96 45.529 101.498 101.498 101.498s101.498-45.538 101.498-101.498z" fill="#c5e97d"/><path d="m451.118 421.037-9.851 69.798c-.542 3.839-3.827 6.693-7.704 6.693h-19.106c-3.877 0-7.162-2.854-7.704-6.693l-9.851-69.798-2.722-19.943h61.922z" fill="#f9f7f7"/><g><g id="XMLID_303_"><g><path d="m245.724 7.499c110.62 0 200.29 89.67 200.29 200.29 0 110.61-89.67 200.29-200.29 200.29s-200.29-89.68-200.29-200.29c0-110.62 89.67-200.29 200.29-200.29zm156.29 200.29c0-86.18-70.11-156.29-156.29-156.29s-156.29 70.11-156.29 156.29c0 86.17 70.11 156.29 156.29 156.29s156.29-70.12 156.29-156.29z" fill="#d8efa7"/><g><path d="m78.247 210.586c0-110.62 89.67-200.29 200.29-200.29.234 0 .428-.013.661-.013-10.899-1.836-22.053-2.785-33.474-2.785-110.62 0-200.29 89.67-200.29 200.29 0 110.377 89.294 199.904 199.593 200.281-94.664-15.947-166.78-98.292-166.78-197.483z" fill="#c5e97d"/></g><path d="m347.222 207.789c0 11.434-1.903 22.431-5.405 32.695h72.378c2.051-10.589 3.138-21.517 3.138-32.695 0-11.18-1.087-22.109-3.138-32.698h-72.377c3.501 10.264 5.404 21.263 5.404 32.698z" fill="#b1e254"/><path d="m245.724 95.499c61.92 0 112.29 50.37 112.29 112.29 0 61.91-50.37 112.29-112.29 112.29s-112.29-50.38-112.29-112.29c0-61.92 50.37-112.29 112.29-112.29zm0 180.58c41.82-2.7 70.51-32.08 68.29-68.29-2.31-37.58-30.64-68.29-68.29-68.29s-68.29 30.63-68.29 68.29c0 37.65 30.64 68.29 68.29 68.29z" fill="#d8efa7"/></g></g><g><path d="m446.011 207.787.003 203.089h-44.003v-203.089c3.649-2.082 44 0 44 0z" fill="#c5e97d"/></g><path d="m394.181 401.094 2.722 19.943 2.117 15h49.981l2.117-15 4.985-19.943z" fill="#f2eae7"/></g><path d="m443.343 240.484c1.748-10.641 2.671-21.56 2.671-32.695 0-11.137-.924-22.056-2.671-32.698h-44.78c2.255 10.549 3.451 21.486 3.451 32.698 0 11.211-1.197 22.147-3.451 32.695z" fill="#c5e97d"/><path d="m304.847 175.514c5.226 9.624 8.45 20.617 9.167 32.275.724 11.816-1.861 22.895-7.101 32.567.846.083 1.703.128 2.57.128h43.671c3.156-10.35 4.861-21.327 4.861-32.695 0-11.37-1.704-22.348-4.861-32.698h-43.671c-1.583 0-3.131.15-4.636.423z" fill="#c5e97d"/><path d="m437.819 371.984c-8.503 0-15.396-6.893-15.396-15.396v-107.213c0-4.91 3.98-8.89 8.891-8.89h14.464c.091-.091.142-.143.233-.233v-22.741h-44v193.366h20.413 23.591l-.001-38.892h-8.195z" fill="#b1e254"/><path d="m445.778 225.484h-136.296c-6.031 0-10.919-4.889-10.919-10.919v-13.555c0-6.031 4.889-10.919 10.919-10.919h136.296c6.031 0 10.919 4.889 10.919 10.919v13.555c.001 6.031-4.888 10.919-10.919 10.919z" fill="#f9f7f7"/><path d="m451.118 421.037h-54.215c-4.679 0-8.473-3.793-8.473-8.473v-17.108c0-4.679 3.793-8.473 8.473-8.473h54.215c4.679 0 8.473 3.793 8.473 8.473v17.108c0 4.68-3.793 8.473-8.473 8.473z" fill="#ded4cf"/><path d="m408.637 410.876c-4.679 0-8.473-3.793-8.473-8.473v-15.419h-3.261c-4.679 0-8.473 3.793-8.473 8.473v17.108c0 4.679 3.793 8.472 8.473 8.472h54.215c4.679 0 8.473-3.793 8.473-8.472v-1.688h-50.954z" fill="#cbc0bb"/></g><path d="m453.511 379.684v-148.424c6.299-2.93 10.687-9.302 10.687-16.694v-13.556c0-7.921-5.036-14.67-12.067-17.266-5.706-49.479-28.985-95.14-65.909-129.045-38.414-35.273-88.31-54.699-140.498-54.699-69.642 0-134.316 34.647-173.003 92.681-2.297 3.446-1.366 8.104 2.081 10.4 3.446 2.298 8.103 1.367 10.401-2.08 35.898-53.852 95.906-86.001 160.521-86.001 48.42 0 94.713 18.022 130.353 50.747 33.545 30.802 54.943 72.055 60.792 116.844h-29.294c-6.954-44.802-32.389-84.904-70.284-110.545-3.431-2.32-8.094-1.422-10.415 2.009s-1.422 8.094 2.009 10.415c33.788 22.861 56.662 58.361 63.479 98.121h-29.526c-11.794-54.875-60.863-94.59-117.113-94.59-66.051 0-119.787 53.735-119.787 119.786s53.736 119.787 119.787 119.787c56.689 0 105.319-39.547 117.113-94.59h29.53c-5.73 33.415-22.865 64.032-48.599 86.624-27.152 23.838-61.972 36.966-98.044 36.966-82.041 0-148.787-66.746-148.787-148.787s66.745-148.786 148.786-148.786c19.466 0 38.418 3.729 56.33 11.085 3.832 1.573 8.213-.257 9.787-4.089 1.573-3.831-.257-8.213-4.089-9.786-19.729-8.103-40.599-12.21-62.028-12.21-90.312 0-163.787 73.475-163.787 163.786 0 90.312 73.475 163.787 163.787 163.787 39.716 0 78.05-14.452 107.941-40.693 17.446-15.317 31.3-33.99 40.846-54.673v54.186c-.006.008-.014.014-.02.022-36.797 44.587-91.021 70.159-148.767 70.159-106.303 0-192.787-86.484-192.787-192.787 0-27.785 5.785-54.599 17.195-79.695 1.714-3.771.047-8.217-3.724-9.931-3.771-1.715-8.217-.048-9.932 3.724-12.302 27.059-18.54 55.961-18.54 85.902 0 114.574 93.213 207.787 207.787 207.787 56.446 0 109.767-22.67 148.787-62.736v26.845c-7.673 1.161-13.58 7.781-13.58 15.773v17.107c0 6.402 3.794 11.92 9.244 14.466l9.153 64.853c1.057 7.494 7.562 13.146 15.13 13.146h19.106c7.568 0 14.073-5.651 15.13-13.146l2.334-16.536c.579-4.102-2.276-7.896-6.378-8.475-4.103-.575-7.896 2.277-8.475 6.379l-2.334 16.536c-.02.138-.139.241-.277.241h-19.106c-.139 0-.258-.104-.277-.241l-8.644-61.25h36.95l-1.8 12.752c-.579 4.102 2.277 7.896 6.378 8.475.355.05.708.074 1.057.074 3.678 0 6.889-2.707 7.417-6.453l2.308-16.354c5.45-2.545 9.244-8.064 9.244-14.466v-17.107c.001-7.994-5.906-14.614-13.579-15.774zm-144.029-161.7c-1.885 0-3.419-1.534-3.419-3.419v-13.555c0-1.885 1.534-3.419 3.419-3.419h136.296c1.885 0 3.419 1.534 3.419 3.419v13.556c0 1.885-1.534 3.419-3.419 3.419h-136.296zm-7.692 13.295c-9.413 22.507-31.331 37.295-56.065 37.295-33.518 0-60.787-27.269-60.787-60.787s27.269-60.786 60.787-60.786c24.668 0 46.644 14.808 56.064 37.296-6.32 2.922-10.725 9.305-10.725 16.713v13.556c-.001 7.408 4.405 13.792 10.726 16.713zm107.721 1.705h29v146.5h-29zm-12.608 180.553c-.536 0-.973-.437-.973-.973v-17.107c0-.536.437-.973.973-.973h54.215c.536 0 .972.437.972.973v17.107c0 .536-.436.973-.972.973zm-151.179-100.963c-57.78 0-104.787-47.007-104.787-104.787 0-57.779 47.007-104.786 104.787-104.786 48.123 0 90.235 33.227 101.717 79.59h-30.253c-10.703-30.314-39.237-50.59-71.465-50.59-41.789 0-75.787 33.997-75.787 75.786s33.998 75.787 75.787 75.787c32.315 0 60.766-20.246 71.467-50.59h30.237c-11.464 46.495-53.202 79.59-101.703 79.59z"/></g></svg>