<svg id="Capa_1" enable-background="new 0 0 513.249 513.249" height="512" viewBox="0 0 513.249 513.249" width="512" xmlns="http://www.w3.org/2000/svg"><g><g><path d="m256.624 15.374-124.459 114.58 8.755 24.066h225.376l18.099-24.066z" fill="#f8deb6"/><path d="m424.697 216.34h-311.149l-33.704 25.264 21.601 86.28 17.534 25.061h272.353l20.472-25.061 21.591-86.28z" fill="#f8deb6"/><g><path d="m132.165 129.954 8.756 24.065h22.213l83.176-73.412c5.893-5.202 14.738-5.202 20.631 0l83.175 73.412h16.181l18.099-24.065-127.77-114.58z" fill="#f7d8a4"/><path d="m114.625 216.34h-1.077l-33.704 25.264 21.601 86.28 17.534 25.061h29.911z" fill="#f7d8a4"/><path d="m447.624 186.654-5.87 21.57-8.35 33.38h-.009-353.551l-8.35-33.38-4.65-18.13 65.32-60.14h252.231z" fill="#fcf1de"/><path d="m248.1 505.749h17.049c4.484 0 8.12-3.635 8.12-8.119v-164.243h-33.289v164.242c0 4.484 3.635 8.12 8.12 8.12z" fill="#c9a291"/><g id="XMLID_283_"><g><path d="m411.804 327.884-15.88 63.42c-.91 3.66-4.2 6.23-7.98 6.23h-262.64c-3.78 0-7.07-2.57-7.99-6.23l-15.87-63.42z" fill="#fcf1de"/></g></g><path d="m159.905 371.233c-3.78 0-7.07-2.57-7.99-6.23l-9.311-37.119h-41.159l15.87 63.42c.92 3.66 4.21 6.23 7.99 6.23h262.64c3.78 0 7.07-2.57 7.98-6.23l5.026-20.071z" fill="#f6e2c4"/></g><circle cx="256.624" cy="256.924" fill="#cbc0bb" r="84.75"/><path d="m212.191 256.924c0-39.857 27.506-73.298 64.577-82.346-6.463-1.578-13.195-2.404-20.144-2.404-46.806 0-84.75 37.944-84.75 84.75s37.944 84.75 84.75 84.75c6.949 0 13.669-.828 20.132-2.406-37.07-9.047-64.565-42.487-64.565-82.344z" fill="#b7acac"/><g><path d="m322.85 129.954 112.452 99.252c.326.288.658.567.995.839l5.458-21.821 5.87-21.57-63.23-56.7z" fill="#f6e2c4"/></g><path d="m190.399 129.954h-52.201-6.034l-65.32 60.14 4.65 18.13 8.35 33.38h41.118l-7.178-28.617c-1.944-7.75.597-15.938 6.588-21.226z" fill="#f6e2c4"/><path d="m448.537 214.212-186.286-164.419c-3.214-2.837-8.038-2.837-11.253 0l-186.286 164.419c-3.521 3.107-8.894 2.772-12.001-.748l-9.923-11.243c-3.107-3.521-2.772-8.894.748-12.001l202.501-178.73c6.049-5.337 15.127-5.338 21.176 0l202.5 178.73c3.521 3.107 3.856 8.48.748 12.001l-9.923 11.243c-3.107 3.52-8.48 3.856-12.001.748z" fill="#c9a291"/></g><g><path d="m474.675 184.597-27.311-24.104c-3.105-2.741-7.845-2.446-10.586.66-2.741 3.105-2.445 7.845.66 10.586l27.312 24.105c.414.365.453 1 .088 1.414l-9.924 11.243c-.365.414-1 .455-1.415.088l-186.285-164.421c-6.039-5.326-15.143-5.327-21.179.001l-186.286 164.42c-.207.183-.453.257-.726.249-.275-.018-.506-.131-.689-.338l-9.923-11.242c-.183-.207-.266-.451-.249-.726s.13-.507.337-.689l202.5-178.729c3.208-2.83 8.044-2.829 11.251-.001l151.22 133.469c3.104 2.741 7.845 2.446 10.586-.66 2.741-3.105 2.445-7.845-.66-10.586l-151.221-133.469c-8.865-7.823-22.235-7.821-31.102 0l-202.5 178.73c-6.616 5.839-7.247 15.972-1.408 22.587l9.922 11.241c2.829 3.206 6.736 5.118 11.002 5.384 3.204.203 6.326-.547 9.04-2.133l12.759 50.974c.853 3.407 3.91 5.681 7.27 5.681.603 0 1.216-.073 1.827-.227 4.018-1.006 6.46-5.078 5.454-9.097l-4.981-19.901h49.722c4.142 0 7.5-3.357 7.5-7.5s-3.358-7.5-7.5-7.5h-53.477l-5.826-23.275 83.134-73.376h187.226l83.135 73.377-5.826 23.275h-53.476c-4.143 0-7.5 3.357-7.5 7.5s3.357 7.5 7.5 7.5h49.722l-17.841 71.276h-54.949c-4.143 0-7.5 3.357-7.5 7.5s3.357 7.5 7.5 7.5h51.195l-13.542 54.103c-.081.324-.372.551-.707.551h-262.647c-.335 0-.625-.228-.707-.552l-13.542-54.102h51.195c4.142 0 7.5-3.357 7.5-7.5s-3.358-7.5-7.5-7.5h-54.949l-4.859-19.413c-1.006-4.019-5.079-6.463-9.097-5.454-4.018 1.006-6.46 5.078-5.454 9.097l22.155 88.515c1.756 7.012 8.03 11.909 15.258 11.909h107.179v100.713c0 4.143 3.358 7.5 7.5 7.5s7.5-3.357 7.5-7.5v-100.714h18.288v100.713c0 4.143 3.357 7.5 7.5 7.5s7.5-3.357 7.5-7.5v-100.713h107.179c7.229 0 13.504-4.897 15.258-11.909l42.917-171.458c2.425 1.417 5.173 2.173 8.019 2.173.339 0 .678-.011 1.019-.032 4.267-.266 8.174-2.178 11.002-5.383l9.924-11.243c5.837-6.617 5.204-16.749-1.411-22.587zm-294.669-62.142 75.955-67.039c.378-.334.95-.334 1.328 0l75.954 67.039z"/><path d="m187.963 206.677c-3.544-2.149-8.155-1.014-10.3 2.53-8.693 14.356-13.289 30.857-13.289 47.717 0 50.867 41.383 92.25 92.25 92.25s92.25-41.383 92.25-92.25-41.383-92.25-92.25-92.25c-20.275 0-39.521 6.463-55.657 18.69-3.302 2.501-3.95 7.206-1.448 10.507 2.502 3.302 7.206 3.95 10.507 1.448 13.508-10.235 29.622-15.646 46.599-15.646 42.596 0 77.25 34.654 77.25 77.25s-34.654 77.25-77.25 77.25-77.25-34.654-77.25-77.25c0-14.12 3.845-27.934 11.12-39.947 2.145-3.542 1.011-8.153-2.532-10.299z"/></g></g></svg>