<svg id="Capa_1" enable-background="new 0 0 523.681 523.681" height="512" viewBox="0 0 523.681 523.681" width="512" xmlns="http://www.w3.org/2000/svg"><g><g><g><g id="XMLID_282_"><g><path d="m339.107 12.37c1.47-.52 2.87.93 2.29 2.38l-56.88 143.09-21.47 58.05-16.64 12.09-8.34 7.2-9.98 25.11-8.45 25.13-40.22-17.38 8.81-23.59 14.46-36.39 16.95-76.51c17.04-53.82 58.37-97.4 112.65-116.75z" fill="#f8f3f2"/></g></g></g><g fill="#f2eae7"><path d="m219.636 285.42 8.45-25.13 5.54-13.938-39.859-15.844-5.54 13.942-8.81 23.59z"/><path d="m290.288 143.321-17.025-1.635c-19.328-1.856-36.346-11.627-47.711-26.131-2.209 5.219-4.193 10.552-5.916 15.995l-16.95 76.51-5.671 14.271c11.943 8.022 25.046 14.197 38.883 18.304l2.168-5.455 8.34-7.2 16.64-12.09 21.47-58.05z"/><path d="m328.17 21.708-52.87 34.872-41.674 58.976-36.611 154.19-14.402-10.266-3.197 8.56 24.81 10.72 42.41-128.62c13.51-43.39 42.79-80.19 81.93-103.13l8.487-21.34z"/></g><path d="m339.106 12.37-6.82 2.43c-54.28 19.35-95.61 62.93-112.65 116.75l-16.95 76.51-14.46 36.39-8.81 23.59 3.065 1.324 21.745 9.396 12.854-38.985-1.688-.671c-1.492-.593-2.638-1.682-3.325-3.002-1.095-2.105 1.153-4.384 3.295-3.363 1.161.553 2.33 1.091 3.507 1.611l27.767-84.21c1.496-4.804 3.196-9.522 5.071-14.155-2.447-1.094-4.816-2.329-7.1-3.692-3.569-2.13-5.084-6.559-3.457-10.384 18.201-42.795 52.329-77.539 95.904-96.238l4.343-10.92c.58-1.451-.821-2.901-2.291-2.381z" fill="#ede2dd"/><g><path d="m335.196 229.295-15.029-27.025-.993-29.208c-.232-6.828-5.493-12.425-12.294-13.078l-35.051-3.366c-38.181-3.666-69.027-32.737-74.946-70.634l-11.709-74.958c-.645-4.131-6.294-4.844-7.945-1.003l-18.284 42.534c-37.146 86.411 28.232 182.098 122.234 178.903l2.642-.09 12.848 21.558 17.313 30.941 36.994-23.579z" fill="#f9f7f7"/><path d="m328.73 270.882-17.313-30.94-11.495-19.287c-.835-1.401-2.365-2.236-3.995-2.181-94.002 3.197-159.381-92.49-122.235-178.901l11.693-27.201-.21-1.346c-.645-4.131-6.294-4.844-7.945-1.003l-18.286 42.537c-37.146 86.411 28.233 182.098 122.235 178.901l2.642-.09 12.848 21.558 17.313 30.94 36.994-23.579-1.379-2.708z" fill="#f8f3f2"/><path d="m350.976 260.29-15.78-30.995-6.26-11.256-39.9 22.082 7.633 12.808 17.313 30.94z" fill="#f8f3f2"/><path d="m375.467 416.425-85.244-148.25c-2.773-4.822-1.057-10.981 3.81-13.675l43.541-24.098c5.129-2.839 11.589-.654 13.942 4.716l60.78 138.721c1.66 3.789 2.609 7.851 2.799 11.983l5.164 112.349c.414 9.009-6.192 16.811-15.146 17.888-9.418 1.133-17.978-5.564-19.145-14.977z" fill="#ea9a98"/><path d="m414.469 509.49-9.576-77.199c-.813-6.558-2.929-12.887-6.223-18.616l-73.109-127.145c-6.7-11.651-2.553-26.532 9.206-33.04l19.959-11.046-3.21-7.326c-2.353-5.37-8.812-7.555-13.942-4.716l-43.541 24.098c-4.867 2.694-6.583 8.853-3.81 13.675l85.244 148.25 10.449 84.237c1.1 8.867 8.643 15.758 17.575 15.515 4.459-.121 8.412-1.882 11.372-4.68-.171-.645-.309-1.326-.394-2.007z" fill="#e5827f"/><path d="m233.023 262.254-52.359-20.813c-4.264-1.695-9.095.388-10.79 4.652l-6.165 15.51c-1.339 3.368-.34 7.216 2.469 9.507l13.146 10.723-74.755 207.931c-3.523 9.799 1.36 20.627 11.037 24.474 9.76 3.88 20.831-.755 24.918-10.43l97.235-230.241c1.871-4.432-.266-9.536-4.736-11.313z" fill="#ea9a98"/><path d="m233.023 262.254-52.359-20.813c-4.264-1.695-9.095.388-10.79 4.652l-6.165 15.51c-1.339 3.368-.34 7.216 2.469 9.507l13.146 10.723-74.587 207.463c-3.528 9.813 1.043 20.93 10.697 24.872 6.288 2.568 13.145 1.581 18.336-2.025-7.019-4.876-10.176-14.002-7.164-22.379l71.72-199.488c1.819-5.059.249-10.716-3.917-14.114l-5.419-4.42c-3.27-2.667-4.433-7.146-2.875-11.067.889-2.236 3.422-3.328 5.659-2.44l41.249 16.396c1.318.524 2.427 1.343 3.296 2.343l1.439-3.407c1.872-4.432-.265-9.536-4.735-11.313z" fill="#e5827f"/></g></g><g><path d="m427.751 497.826-5.164-112.351c-.233-5.07-1.385-9.998-3.422-14.646l-31.942-72.903c-1.661-3.793-6.083-5.523-9.879-3.859-3.794 1.662-5.522 6.085-3.859 9.879l31.942 72.903c1.295 2.957 2.027 6.092 2.176 9.317l5.164 112.35c.232 5.057-3.522 9.491-8.549 10.096-5.312.627-10.15-3.154-10.807-8.453l-10.501-84.656c-.123-.992-.443-1.949-.941-2.815l-85.245-148.251c-.446-.775-.34-1.513-.236-1.883s.394-1.057 1.178-1.491l43.54-24.098c.826-.457 1.594-.308 1.978-.178s1.085.477 1.464 1.342l16.011 36.541c1.662 3.794 6.087 5.524 9.879 3.859 3.794-1.662 5.522-6.085 3.859-9.879l-16.01-36.541c-1.966-4.486-5.755-7.961-10.396-9.531-2.7-.913-5.561-1.119-8.328-.68l-12.061-21.69-.932-27.398c-.358-10.558-8.559-19.28-19.073-20.289l-12.419-1.193 53.189-133.81c1.346-3.391.58-7.277-1.952-9.902s-6.388-3.53-9.83-2.307l-6.815 2.431c-27.595 9.838-52.901 26.2-73.185 47.317-16.997 17.696-30.502 38.786-39.561 61.58-6.442-9.278-10.898-20.074-12.731-31.807l-11.709-74.961c-.81-5.189-4.854-9.117-10.065-9.775-5.209-.653-10.106 2.142-12.181 6.968l-18.284 42.533c-10.605 24.673-13.742 51.432-9.072 77.384.734 4.077 4.637 6.777 8.71 6.054 4.077-.734 6.787-4.634 6.054-8.71-4.148-23.049-1.351-46.841 8.09-68.804l13.715-31.903 9.923 63.526c6.453 41.307 40.024 72.946 81.64 76.942l35.052 3.366c3.04.292 5.41 2.813 5.514 5.866l.993 29.208c.041 1.188.363 2.351.941 3.39l12.406 22.31-26.576 14.709-9.179-15.403c-1.398-2.348-3.973-3.755-6.697-3.656l-2.642.09c-24.912.854-48.901-5.713-69.417-18.97-19.529-12.619-35-30.562-44.737-51.889-1.72-3.768-6.17-5.429-9.938-3.707-3.768 1.72-5.428 6.169-3.707 9.938 9.249 20.257 23.128 37.782 40.469 51.289l-9.572 24.081-.588-.234c-3.922-1.561-8.222-1.496-12.099.173-3.878 1.672-6.873 4.754-8.432 8.678l-6.164 15.508c-2.562 6.439-.674 13.71 4.697 18.091l9.033 7.368-72.96 202.937c-4.921 13.685 1.812 28.61 15.324 33.98 3.196 1.271 6.508 1.872 9.778 1.872 10.486-.001 20.527-6.191 24.818-16.353l24.794-58.709c1.611-3.816-.176-8.216-3.991-9.827-3.816-1.61-8.216.175-9.827 3.991l-24.794 58.709c-2.479 5.873-9.313 8.733-15.238 6.378-5.951-2.365-8.916-8.938-6.749-14.966l74.756-207.932c1.076-2.992.147-6.339-2.317-8.349l-13.146-10.723c-.274-.224-.371-.595-.239-.925l6.165-15.511c.082-.206.227-.355.431-.442.206-.089.415-.091.619-.009l52.359 20.813c.349.139.517.396.597.586.08.191.146.493-.001.839l-60.003 142.078c-1.611 3.815.176 8.216 3.991 9.827 3.814 1.611 8.216-.175 9.827-3.991l33.455-79.218c13.245 3.482 26.848 5.257 40.539 5.257 20.72 0 40.89-3.984 60.067-11.812l49.484 86.06 10.314 83.153c1.548 12.483 12.239 21.679 24.522 21.678.978 0 1.968-.058 2.962-.178 12.784-1.536 22.334-12.815 21.743-25.677zm-160.347-432.38c17.432-18.148 38.896-32.485 62.339-41.684l-7.206 18.127c-37.282 22.539-65.476 56.948-80.259 97.756-5.071-2.861-9.774-6.293-14.042-10.198 8.238-23.782 21.715-45.831 39.168-64.001zm-11.366 80.25c11.102-31.196 30.694-58.379 56.517-78.694l-32.925 82.83-7.083-.68c-5.71-.548-11.233-1.729-16.509-3.456zm23.602 93.309 7 11.746c-2.169 2.119-3.765 4.77-4.602 7.774-1.267 4.544-.669 9.299 1.683 13.387l11.214 19.502c-18.687 6.359-38.84 7.701-58.207 3.87l7.94-18.801c1.696-4.018 1.703-8.444.019-12.467-1.398-3.34-3.824-6.03-6.923-7.773l6.593-16.588 4.098-3.537c10.139 2.128 20.584 3.114 31.185 2.887zm-73.385-19.621c8.041 4.912 16.524 8.932 25.337 12.026-.187.321-.358.651-.496.998l-7.211 18.143-25.922-10.304zm24.519 89.997c3.809.851 7.647 1.529 11.505 2.025l-2.374 16.941c-5.337-.705-10.635-1.702-15.874-2.999zm24.112 20.153 2.396-17.096c.432.004.863.022 1.295.022 5.096 0 10.189-.311 15.249-.917l2.078 17.02c-5.694.685-11.445 1.039-17.245 1.039-1.259 0-2.516-.035-3.773-.068zm35.814-3.545-2.088-17.104c4.716-1.136 9.374-2.536 13.947-4.211l8.616 14.984c-6.703 2.628-13.534 4.742-20.475 6.331z"/><path d="m245.937 186.37v-4.569c0-4.143-3.357-7.5-7.5-7.5s-7.5 3.357-7.5 7.5v4.569c0 4.143 3.357 7.5 7.5 7.5s7.5-3.357 7.5-7.5z"/></g></g></svg>