<svg id="Capa_1" enable-background="new 0 0 509.389 509.389" height="512" viewBox="0 0 509.389 509.389" width="512" xmlns="http://www.w3.org/2000/svg"><g><g><path d="m351.34 184.685-43.33 43.33-40.205 40.842-23.087-28.888 37.225-38.02 43.33-43.33 27.001-26.215 23.621 22.038z" fill="#cbc0bb"/><path d="m346.104 321.004c9.084 9.084 7.986 24.105-2.302 31.799-91.767 68.623-184.234 128.396-279.912 147.594-33.241 6.67-62.303-23.105-55.375-56.292 18.868-90.382 78.777-183.756 148.676-277.859 7.67-10.326 22.727-11.428 31.822-2.333z" fill="#ded4cf"/><path d="m61.8 447.634c18.268-87.51 75.011-177.825 142.043-268.89l-14.831-14.831c-9.095-9.095-24.152-7.992-31.822 2.333-69.898 94.102-129.808 187.477-148.676 277.858-6.928 33.188 22.134 62.962 55.375 56.292 5.792-1.162 11.571-2.476 17.34-3.928-14.821-10.335-23.576-28.969-19.429-48.834z" fill="#cbc0bb"/><g><path d="m484.89 79.674-35.75 24.614c-21.569 14.85-41.21 32.322-58.473 52.013l-22.502 25.667c-4.942 5.638-13.621 5.922-18.922.621l-21.873-21.873c-5.301-5.301-5.016-13.98.621-18.922l25.667-22.502c19.691-17.263 37.162-36.904 52.013-58.473l24.614-35.75c13.915-20.21 42.752-22.848 60.102-5.497 17.35 17.35 14.713 46.187-5.497 60.102z" fill="#ea9a98"/><path d="m356.296 163.514c-5.301-5.302-5.373-13.624-.156-18.145l23.751-20.586c18.221-15.793 34.216-33.958 47.618-54.078l22.213-33.349c10.051-15.09 29.736-18.973 46.088-11.032-1.517-2.385-3.326-4.656-5.422-6.753-17.35-17.351-46.187-14.713-60.102 5.497l-24.614 35.75c-14.85 21.569-32.322 41.21-52.013 58.473l-25.667 22.502c-5.637 4.942-5.922 13.621-.621 18.923l21.873 21.873c5.301 5.301 13.98 5.016 18.922-.621l3.076-3.509z" fill="#e5827f"/><path d="m222.087 196.987c-.729 1.033-1.433 2.089-2.085 3.193l-66.449 112.405c-5.835 9.87-5.974 21.627-.37 31.449 5.678 9.951 16.177 16.134 27.399 16.134 5.556 0 11.113-1.55 16.072-4.481l112.405-66.449c1.102-.652 2.158-1.357 3.191-2.087z" fill="#cbc0bb"/><path d="m301.425 276.325-112.405 66.45c-14.658 8.665-31.221-7.897-22.556-22.556l66.45-112.405c10.333-17.479 34.376-20.518 48.733-6.161l25.939 25.939c14.357 14.357 11.318 38.401-6.161 48.733z" fill="#ded4cf"/></g></g><path d="m495.69 14.267c-9.85-9.85-23.463-14.772-37.326-13.501-13.872 1.269-26.357 8.577-34.257 20.05l-24.614 35.749c-10.962 15.922-23.508 30.901-37.289 44.521-2.945 2.911-2.974 7.66-.062 10.606 2.911 2.946 7.66 2.976 10.606.062 14.449-14.28 27.604-29.986 39.1-46.684l24.614-35.749c5.365-7.793 13.846-12.756 23.268-13.618 9.42-.868 18.664 2.48 25.354 9.17 6.69 6.691 10.033 15.933 9.171 25.355-.862 9.421-5.826 17.901-13.618 23.267l-35.75 24.615c-22.061 15.188-42.2 33.104-59.859 53.246l-22.502 25.667c-1.008 1.149-2.404 1.811-3.933 1.86-1.518.071-2.966-.518-4.047-1.599l-21.873-21.872c-1.081-1.082-1.649-2.52-1.599-4.048s.711-2.925 1.86-3.933l15.802-13.854c3.114-2.73 3.426-7.469.695-10.584s-7.468-3.426-10.584-.695l-15.802 13.854c-4.24 3.718-6.778 9.082-6.964 14.719-.063 1.931.17 3.844.64 5.69l-35.241 35.241c-7.726-5.323-17.119-7.656-26.65-6.449-8.734 1.104-16.614 5.058-22.612 11.157l-37.903-37.903c-5.878-5.877-13.998-8.9-22.3-8.292-8.292.608-15.891 4.784-20.847 11.457-23.749 31.972-43.447 60.009-60.222 85.713-2.264 3.469-1.286 8.116 2.183 10.38 1.265.825 2.686 1.22 4.092 1.22 2.448 0 4.85-1.198 6.288-3.402 16.606-25.447 36.135-53.239 59.7-84.966 2.354-3.169 5.964-5.152 9.903-5.441 3.939-.284 7.803 1.146 10.595 3.939l39.789 39.789-63.489 107.398c-5.606 9.484-4.179 21.121 3.554 28.957 4.724 4.785 10.89 7.271 17.211 7.271 4.233-.001 8.536-1.115 12.519-3.399l40.792-24.114c3.566-2.107 4.748-6.707 2.64-10.272-2.107-3.565-6.708-4.745-10.272-2.64l-40.706 24.064c-4.745 2.723-9.055 1.038-11.506-1.446-1.129-1.144-4.561-5.302-1.318-10.787l66.449-112.406c3.736-6.32 10.058-10.474 17.342-11.395 7.292-.918 14.44 1.529 19.633 6.722l25.938 25.938c5.187 5.186 7.654 12.36 6.771 19.686-.878 7.28-4.911 13.598-10.99 17.288l-44.019 26.021c-3.565 2.107-4.748 6.707-2.64 10.272 2.108 3.567 6.71 4.747 10.272 2.64l38.725-22.893 40.397 40.396c2.785 2.785 4.22 6.636 3.938 10.564-.283 3.939-2.261 7.558-5.428 9.926-54.818 40.993-97.27 69.301-137.646 91.785-50.099 27.898-95.647 45.713-139.25 54.462-13.202 2.648-26.235-1.337-35.759-10.935-9.525-9.6-13.563-23.234-10.799-36.472 10.129-48.517 33.232-101.845 70.63-163.033 2.16-3.534 1.046-8.15-2.488-10.311-3.532-2.158-8.149-1.046-10.311 2.488-38.309 62.679-62.028 117.563-72.515 167.79-3.796 18.186 1.75 36.916 14.835 50.103 10.368 10.45 24.27 16.146 38.625 16.145 3.564 0 7.159-.352 10.732-1.068 45.149-9.06 92.12-27.398 143.597-56.063 40.984-22.823 83.956-51.469 139.331-92.878 6.654-4.976 10.812-12.58 11.407-20.864.594-8.272-2.429-16.38-8.292-22.245l-38.525-38.525c6.079-6.031 10.002-13.987 11.063-22.799 1.106-9.18-1.037-18.215-5.937-25.753l35.39-35.39c1.634.415 3.317.654 5.022.654.222 0 .443-.003.665-.011 5.637-.186 11.001-2.724 14.719-6.964l22.502-25.667c16.841-19.21 36.048-36.295 57.086-50.779l35.749-24.614c11.473-7.899 18.781-20.385 20.05-34.256 1.271-13.871-3.649-27.476-13.5-37.328zm-154.958 170.418-32.723 32.723-15.459-15.459 32.723-32.723z"/></g></svg>