<svg id="Capa_1" enable-background="new 0 0 510.896 510.896" height="512" viewBox="0 0 510.896 510.896" width="512" xmlns="http://www.w3.org/2000/svg"><g><g><path d="m238.455 173.77h32.987v61.391h-32.987z" fill="#ded4cf"/><path d="m296.886 240.503c0-1.19-.473-2.331-1.314-3.172l-9.855-9.855c-.841-.841-1.982-1.314-3.172-1.314h-55.193c-1.19 0-2.331.473-3.172 1.314l-9.855 9.855c-.841.841-1.314 1.982-1.314 3.172v155.853h83.876v-155.853z" fill="#e1f5f8"/><path d="m233.845 295.234v-42.511c0-1.19.473-2.331 1.314-3.172l9.855-9.855c.841-.841 1.983-1.314 3.173-1.314l48.163-.005c-.205-.379-.468-.735-.778-1.046l-9.855-9.855c-.841-.841-1.982-1.314-3.172-1.314h-55.193c-1.19 0-2.331.473-3.172 1.314l-9.855 9.855c-.841.841-1.314 1.983-1.314 3.173v155.853h12.108 8.727 63.041v-92.865h-54.784c-4.561-.001-8.258-3.698-8.258-8.258z" fill="#b3e5ee"/><path d="m367.839 367.952-23.798-43.838c-1.881-3.466-5.509-5.624-9.452-5.624h-158.513c-3.801 0-7.298 2.08-9.111 5.421l-23.908 44.041-25.047 42.243h271.08z" fill="#b3e5ee"/><path d="m161.574 385.279 23.908-44.041c1.813-3.341 5.31-5.421 9.111-5.421h155.802l-6.353-11.703c-1.881-3.466-5.509-5.624-9.452-5.624h-158.514c-3.801 0-7.298 2.081-9.111 5.421l-23.908 44.041-25.047 42.243h28.79z" fill="#86d7e5"/><path d="m485.425 367.952h-459.954c-9.925 0-17.971 8.046-17.971 17.971v30.406c0 9.925 8.046 17.971 17.971 17.971h459.954c9.925 0 17.971-8.046 17.971-17.971v-30.406c0-9.925-8.046-17.971-17.971-17.971z" fill="#e1f5f8"/><path d="m53.474 413.041c-9.925 0-17.971-8.046-17.971-17.971v-27.119h-10.032c-9.925 0-17.971 8.046-17.971 17.971v30.406c0 9.925 8.046 17.971 17.971 17.971h459.954c9.925 0 17.971-8.046 17.971-17.971v-3.288h-449.922z" fill="#b3e5ee"/><g><path d="m300.653 185.77h-91.409c-7.141 0-12.93-5.789-12.93-12.93v-27.551c0-7.141 5.789-12.93 12.93-12.93h91.409c7.141 0 12.93 5.789 12.93 12.93v27.551c0 7.141-5.789 12.93-12.93 12.93z" fill="#ded4cf"/><path d="m227.589 171.741c-7.141 0-12.93-5.789-12.93-12.93v-26.452h-5.415c-7.141 0-12.93 5.789-12.93 12.93v27.551c0 7.141 5.789 12.93 12.93 12.93h91.409c7.141 0 12.93-5.789 12.93-12.93v-1.1h-85.994z" fill="#cbc0bb"/><g fill="#b3e5ee"><path d="m481.534 178.48c0 15.18-12.306 27.486-27.486 27.486-10.19 0-29.114-12.386-40.454-20.529-4.758-3.416-4.758-10.498 0-13.914 11.34-8.143 30.264-20.529 40.454-20.529 15.181.001 27.486 12.306 27.486 27.486z"/><path d="m413.772 79.872c8.366 5.785 10.459 17.257 4.674 25.624-3.883 5.616-17.922 11.326-26.731 14.473-3.696 1.32-7.599-1.379-7.669-5.303-.166-9.353.219-24.503 4.103-30.12 5.784-8.366 17.256-10.459 25.623-4.674z"/><path d="m413.772 277.088c8.366-5.785 10.459-17.257 4.674-25.624-3.883-5.616-17.922-11.326-26.731-14.473-3.696-1.32-7.599 1.379-7.669 5.303-.166 9.353.219 24.503 4.103 30.12 5.784 8.367 17.256 10.459 25.623 4.674z"/><path d="m28.362 178.48c0 15.18 12.306 27.486 27.486 27.486 10.19 0 29.114-12.386 40.454-20.529 4.758-3.416 4.758-10.498 0-13.914-11.34-8.143-30.264-20.529-40.454-20.529-15.18.001-27.486 12.306-27.486 27.486z"/><path d="m96.125 79.872c-8.366 5.785-10.459 17.257-4.674 25.624 3.883 5.616 17.922 11.326 26.731 14.473 3.696 1.32 7.599-1.379 7.669-5.303.166-9.353-.219-24.503-4.103-30.12-5.785-8.366-17.257-10.459-25.623-4.674z"/><path d="m96.125 277.088c-8.366-5.785-10.459-17.257-4.674-25.624 3.883-5.616 17.922-11.326 26.731-14.473 3.696-1.32 7.599 1.379 7.669 5.303.166 9.353-.219 24.503-4.103 30.12-5.785 8.367-17.257 10.459-25.623 4.674z"/></g></g></g><g><path d="m485.425 360.453h-47.728c-4.143 0-7.5 3.357-7.5 7.5s3.357 7.5 7.5 7.5h47.728c5.774 0 10.472 4.697 10.472 10.471v30.406c0 5.773-4.697 10.471-10.472 10.471h-459.954c-5.774-.001-10.471-4.698-10.471-10.471v-30.406c0-5.773 4.697-10.471 10.471-10.471h380.264c4.143 0 7.5-3.357 7.5-7.5s-3.357-7.5-7.5-7.5h-33.433l-24.722-45.54c-1.312-2.417-3.842-3.922-6.592-3.922h-36.603v-70.487c0-3.2-1.245-6.209-3.511-8.477l-9.852-9.851c-2.264-2.267-5.274-3.515-8.479-3.515h-3.604v-25.391h21.711c11.266 0 20.431-9.165 20.431-20.431v-27.552c0-11.265-9.165-20.43-20.431-20.43h-13.229c-4.143 0-7.5 3.357-7.5 7.5s3.357 7.5 7.5 7.5h13.229c2.994 0 5.431 2.436 5.431 5.43v27.552c0 2.994-2.437 5.431-5.431 5.431h-91.408c-2.995 0-5.431-2.437-5.431-5.431v-27.552c0-2.994 2.436-5.43 5.431-5.43h46.216c4.142 0 7.5-3.357 7.5-7.5s-3.357-7.5-7.5-7.5h-46.216c-11.266 0-20.431 9.165-20.431 20.43v27.552c0 11.266 9.165 20.431 20.431 20.431h21.71v25.391h-3.603c-3.203 0-6.213 1.247-8.475 3.511l-9.857 9.856c-2.263 2.265-3.509 5.273-3.509 8.475v18.002c0 4.143 3.358 7.5 7.5 7.5s7.5-3.357 7.5-7.5v-16.754l8.09-8.09h52.695l8.09 8.089v69.24h-68.873v-20.522c0-4.143-3.358-7.5-7.5-7.5s-7.5 3.357-7.5 7.5v20.522h-29.434c-6.558 0-12.575 3.58-15.703 9.343l-21.779 40.119h-113.123c-14.045.001-25.471 11.426-25.471 25.471v30.406c0 14.045 11.426 25.471 25.471 25.471h459.954c14.045 0 25.472-11.426 25.472-25.471v-30.406c-.001-14.045-11.427-25.47-25.472-25.47zm-239.47-167.182h17.987v25.391h-17.987zm-72.399 134.219c.502-.925 1.468-1.499 2.52-1.499h160.45l18.708 34.462h-199.572z"/><path d="m402.526 178.482c0 5.16 2.503 10.038 6.693 13.047 20.271 14.557 35.353 21.938 44.829 21.938 19.291 0 34.985-15.694 34.985-34.986 0-19.291-15.694-34.985-34.985-34.985-9.475 0-24.558 7.381-44.829 21.937-4.191 3.009-6.693 7.887-6.693 13.049zm15.443-.867c19.634-14.097 31.511-19.12 36.08-19.12 11.02 0 19.985 8.966 19.985 19.985 0 11.021-8.966 19.986-19.985 19.986-4.57 0-16.448-5.023-36.08-19.122-.294-.21-.442-.501-.442-.864-.001-.362.149-.654.442-.865z"/><path d="m382.255 125.454c2.238 1.548 4.879 2.347 7.539 2.347 1.497 0 3.001-.253 4.443-.769 24.485-8.748 28.92-15.163 30.377-17.271 3.938-5.694 5.422-12.58 4.179-19.391-1.242-6.811-5.062-12.729-10.756-16.667-5.693-3.938-12.579-5.423-19.391-4.179-6.811 1.242-12.729 5.062-16.667 10.756-1.458 2.108-5.896 8.526-5.433 34.519.076 4.252 2.21 8.235 5.709 10.655zm12.062-36.642c1.658-2.398 4.151-4.008 7.021-4.531.661-.12 1.324-.18 1.982-.18 2.196 0 4.34.664 6.186 1.94 2.398 1.658 4.008 4.151 4.531 7.021s-.103 5.77-1.762 8.169c-1.108 1.604-6.729 5.615-20.76 10.828-.077-14.963 1.691-21.641 2.802-23.247z"/><path d="m398.646 287.436c1.569.287 3.143.429 4.705.429 5.216 0 10.304-1.578 14.686-4.607 11.754-8.128 14.704-24.304 6.577-36.058-1.457-2.108-5.892-8.522-30.377-17.271-4.005-1.432-8.484-.841-11.982 1.578-3.499 2.42-5.633 6.402-5.708 10.653-.464 25.993 3.975 32.411 5.433 34.52 3.937 5.694 9.856 9.514 16.666 10.756zm13.63-31.706c3.424 4.951 2.181 11.766-2.771 15.189s-11.765 2.182-15.188-2.771c-1.111-1.606-2.88-8.283-2.802-23.247 14.031 5.214 19.652 9.223 20.761 10.829z"/><path d="m55.848 213.466c9.476 0 24.559-7.381 44.828-21.937 4.191-3.01 6.694-7.888 6.694-13.048 0-5.162-2.502-10.04-6.694-13.051-20.271-14.556-35.354-21.937-44.829-21.937-19.291 0-34.985 15.694-34.985 34.985 0 19.294 15.695 34.988 34.986 34.988zm0-54.971c4.569 0 16.447 5.023 36.079 19.12.294.211.443.503.443.865 0 .363-.149.654-.443.865-19.631 14.098-31.509 19.121-36.079 19.121-11.02 0-19.985-8.966-19.985-19.986-.001-11.02 8.965-19.985 19.985-19.985z"/><path d="m115.659 127.032c1.442.516 2.946.769 4.443.769 2.66 0 5.301-.799 7.539-2.347 3.499-2.419 5.633-6.401 5.708-10.654.461-25.994-3.975-32.41-5.433-34.519-8.129-11.754-24.305-14.703-36.058-6.577-5.694 3.938-9.514 9.856-10.757 16.667-1.242 6.81.242 13.696 4.179 19.391 1.459 2.107 5.895 8.523 30.379 17.27zm-19.8-33.97c.523-2.868 2.133-5.362 4.532-7.021 1.891-1.308 4.052-1.935 6.193-1.935 3.467 0 6.879 1.645 8.996 4.705 1.11 1.605 2.878 8.282 2.801 23.248-14.029-5.213-19.651-9.225-20.761-10.83-1.659-2.397-2.284-5.298-1.761-8.167z"/><path d="m127.642 231.507c-3.498-2.419-7.978-3.01-11.983-1.578-24.483 8.747-28.919 15.161-30.377 17.27-8.127 11.755-5.177 27.931 6.578 36.059 4.488 3.104 9.62 4.592 14.703 4.592 8.229-.001 16.331-3.902 21.355-11.169 1.458-2.108 5.894-8.524 5.433-34.52-.077-4.252-2.211-8.235-5.709-10.654zm-12.062 36.642c-1.659 2.398-4.152 4.008-7.021 4.531-2.867.521-5.77-.102-8.168-1.761-4.952-3.424-6.195-10.238-2.771-15.189 1.11-1.604 6.733-5.616 20.762-10.829.076 14.966-1.693 21.642-2.802 23.248z"/></g></g></svg>