<svg id="Capa_1" enable-background="new 0 0 512.355 512.355" height="512" viewBox="0 0 512.355 512.355" width="512" xmlns="http://www.w3.org/2000/svg"><g><g><path d="m111.405 280.11c-57.38 0-103.9 46.52-103.9 103.9 0 57.39 46.52 103.91 103.9 103.91h289.55v-207.81z" fill="#be8f7d"/></g><g><g id="XMLID_284_"><g><path d="m337.655 162.64-29.45 38.76-52.69 78.71-.34.51c-23.02 5.58-43.06 18.06-57.99 35.04-14.94 16.97-24.77 38.44-27.36 61.98l-30.15 33.77c-2.79 3.12-7.38 3.86-11.01 1.77l-31.83-18.38c-4.22-2.44-5.67-7.84-3.23-12.07l59.25-102.62 72.92-126.3 22.74-42.53z" fill="#f2eae7"/></g></g><path d="m333.529 280.11c-33.973 22.119-56.484 60.428-56.484 103.9 0 17.409 3.614 33.987 10.127 49.03 4.285 9.898-3.053 20.936-13.839 20.936h-161.027c-9.275 0-18.263-1.22-26.816-3.505-16.764-4.479-30.268-16.675-36.285-32.951-4.146-11.214-6.412-23.339-6.412-35.995 0-49.597 34.759-91.074 81.242-101.415h-11.375c-57.181 0-104.587 45.673-105.15 102.852-.398 40.407 22.271 75.55 55.637 93.085v-.001c14.42 7.58 30.836 11.875 48.258 11.875h289.55v-19.943-14.001-173.867z" fill="#b37e67"/><path d="m400.955 280.11c57.38 0 103.9 46.52 103.9 103.9 0 57.39-46.52 103.91-103.9 103.91-57.39 0-103.91-46.52-103.91-103.91 0-57.38 46.52-103.9 103.91-103.9z" fill="#fcf1de"/><path d="m328.198 379.851c0-47.222 31.52-87.088 74.663-99.724-.631-.011-1.273-.017-1.907-.017-57.39 0-103.91 46.52-103.91 103.9 0 57.39 46.52 103.91 103.91 103.91 10.158 0 19.973-1.464 29.253-4.183-56.511-1.015-102.009-47.131-102.009-103.886z" fill="#f6e2c4"/><circle cx="400.951" cy="384.012" fill="#f8deb6" r="69.964"/><g><path d="m264.124 120.273-15.61-8.994-22.74 42.53-72.92 126.3-59.25 102.62c-2.44 4.23-.99 9.63 3.23 12.07l31.83 18.38c3.63 2.09 8.22 1.35 11.01-1.77l7.113-7.967-14.967-8.642c-4.22-2.44-5.67-7.84-3.23-12.07l59.25-102.62 45.264-78.399c4.921-8.524 15.821-11.444 24.345-6.523l39.605 22.868 11.15-16.657 29.45-38.76z" fill="#ede2dd"/><path d="m383.225 71.45c16.48 9.52 22.12 30.58 12.61 47.06l-40.58 70.28c-9.51 16.48-30.58 22.12-47.05 12.61l-73.45-42.41c-16.48-9.51-22.13-30.58-12.61-47.05l40.57-70.28c9.52-16.48 30.58-22.13 47.06-12.61zm-13.37 32.06c1.23-2.13.5-4.85-1.63-6.08l-73.45-42.4c-2.13-1.23-4.85-.5-6.08 1.63l-16.82 29.13c-1.23 2.13-.5 4.85 1.63 6.08l73.45 42.41c2.13 1.22 4.85.5 6.08-1.63z" fill="#ea9a98"/><g><path d="m333.177 192.44-73.45-42.41c-16.48-9.51-22.13-30.58-12.61-47.05l40.57-70.28c1.818-3.147 4.067-5.905 6.614-8.232-12.495-.624-24.895 5.609-31.586 17.192l-40.57 70.28c-9.52 16.47-3.87 37.54 12.61 47.05l73.45 42.41c13.327 7.695 29.663 5.468 40.452-4.392-5.284-.264-10.585-1.742-15.48-4.568z" fill="#e5827f"/></g></g><circle cx="400.951" cy="384.015" fill="#f7d8a4" r="31.153"/></g><g><path d="m489.856 316.878c-2.5-3.303-7.201-3.958-10.506-1.459-3.304 2.499-3.957 7.202-1.459 10.506 12.733 16.839 19.464 36.925 19.464 58.088 0 53.157-43.247 96.404-96.405 96.404s-96.405-43.247-96.405-96.404c0-53.158 43.247-96.406 96.405-96.406 20.073 0 39.312 6.109 55.637 17.668 3.381 2.393 8.062 1.593 10.455-1.787 2.394-3.381 1.594-8.062-1.787-10.455-18.872-13.362-41.108-20.426-64.305-20.426-.026 0-.051.001-.077.001h-130.695l40.729-61.696c4.647 1.726 9.523 2.622 14.449 2.622 3.643 0 7.312-.479 10.925-1.447 10.823-2.9 19.869-9.841 25.472-19.545l15.832-27.423c2.071-3.587.842-8.174-2.745-10.245-3.589-2.07-8.175-.843-10.245 2.745l-15.832 27.423c-3.6 6.234-9.41 10.693-16.363 12.557-6.954 1.862-14.216.907-20.449-2.692l-73.45-42.407c-12.868-7.429-17.293-23.942-9.864-36.812l40.577-70.281c7.431-12.868 23.945-17.292 36.812-9.864l73.45 42.407c12.868 7.43 17.293 23.944 9.863 36.812l-8.75 15.154c-2.071 3.587-.842 8.174 2.745 10.245 3.585 2.068 8.173.842 10.245-2.745l8.75-15.154c11.565-20.031 4.678-45.737-15.354-57.303l-73.45-42.407c-20.035-11.565-45.738-4.677-57.303 15.354l-40.577 70.281c-5.603 9.704-7.09 21.009-4.19 31.831 1.275 4.756 3.331 9.168 6.058 13.097l-23.517 40.732c-2.071 3.587-.842 8.174 2.745 10.245 1.182.682 2.471 1.006 3.743 1.006 2.592 0 5.113-1.345 6.502-3.751l21.584-37.385c.792.531 1.596 1.046 2.429 1.527l66.554 38.426-46.163 69.926c-47.139 12.291-82.411 52.285-88.729 100.565l-28.58 32.009c-.42.471-1.12.585-1.668.269l-31.825-18.374c-.64-.369-.859-1.19-.49-1.829l90.906-157.453c2.071-3.587.842-8.174-2.745-10.245-3.589-2.071-8.175-.844-10.245 2.745l-29.492 51.081h-37.117c-61.428-.002-111.405 49.974-111.405 111.402s49.977 111.405 111.405 111.405h289.545c61.429 0 111.405-49.976 111.405-111.404 0-24.455-7.78-47.67-22.499-67.134zm-378.451 163.539c-34.061 0-64.053-17.756-81.206-44.497h47.458c4.143 0 7.5-3.357 7.5-7.5s-3.357-7.5-7.5-7.5h-55.307c-4.732-11.375-7.35-23.841-7.35-36.909s2.618-25.533 7.35-36.907h55.307c4.143 0 7.5-3.357 7.5-7.5s-3.357-7.5-7.5-7.5h-47.458c17.153-26.741 47.145-44.497 81.206-44.497h28.457l-52.755 91.373c-4.503 7.803-1.819 17.815 5.981 22.318l31.825 18.374c2.535 1.464 5.344 2.173 8.135 2.173 4.547-.001 9.043-1.882 12.222-5.44l30.15-33.767c1.039-1.164 1.689-2.623 1.86-4.174 4.826-43.791 36.839-80.183 79.656-90.553l.864-.209c.111-.027.218-.064.327-.096h87.041c-18.091 10.508-32.965 25.962-42.768 44.497h-89.772c-4.143 0-7.5 3.357-7.5 7.5s3.357 7.5 7.5 7.5h83.206c-4.07 11.557-6.292 23.977-6.292 36.908s2.222 25.351 6.292 36.907h-83.206c-4.143 0-7.5 3.357-7.5 7.5s3.357 7.5 7.5 7.5h89.772c9.802 18.535 24.677 33.989 42.769 44.497h-233.764z"/><path d="m435.29 319.398c-10.499-5.59-22.373-8.545-34.34-8.545-40.34 0-73.158 32.818-73.158 73.158s32.818 73.159 73.158 73.159 73.159-32.819 73.159-73.159c0-11.828-2.891-23.581-8.36-33.989-1.928-3.666-6.464-5.075-10.128-3.149-3.666 1.927-5.077 6.461-3.149 10.128 4.404 8.382 6.638 17.47 6.638 27.011 0 32.069-26.09 58.159-58.159 58.159-32.068 0-58.158-26.09-58.158-58.159 0-32.068 26.09-58.158 58.158-58.158 9.517 0 18.953 2.347 27.289 6.785 3.658 1.947 8.199.561 10.146-3.095 1.945-3.657.559-8.199-3.096-10.146z"/><path d="m400.95 406.251c-8.56 0-16.457-5.004-20.118-12.747-1.771-3.744-6.243-5.343-9.986-3.574-3.744 1.771-5.345 6.242-3.574 9.986 6.129 12.961 19.348 21.335 33.679 21.335 20.534 0 37.239-16.705 37.239-37.239 0-20.533-16.705-37.238-37.239-37.238-14.999 0-28.466 8.927-34.309 22.741-1.614 3.815.171 8.216 3.985 9.829 3.815 1.612 8.216-.169 9.829-3.985 3.491-8.253 11.535-13.585 20.494-13.585 12.263 0 22.239 9.976 22.239 22.238s-9.976 22.239-22.239 22.239z"/><path d="m228.579 391.511h31.232c4.143 0 7.5-3.357 7.5-7.5s-3.357-7.5-7.5-7.5h-31.232c-4.143 0-7.5 3.357-7.5 7.5s3.358 7.5 7.5 7.5z"/><path d="m49.616 376.511h-5.703c-4.143 0-7.5 3.357-7.5 7.5s3.357 7.5 7.5 7.5h5.703c4.143 0 7.5-3.357 7.5-7.5s-3.357-7.5-7.5-7.5z"/><path d="m349.158 142.377c1.038 0 2.083-.136 3.112-.412 3.084-.826 5.66-2.804 7.256-5.567l16.821-29.137c1.597-2.764 2.021-5.983 1.195-9.066s-2.804-5.66-5.567-7.256l-73.452-42.409c-5.704-3.293-13.027-1.331-16.32 4.375l-16.823 29.138c-.001.001-.001.002-.001.002-3.292 5.706-1.329 13.027 4.375 16.32l73.449 42.406c1.841 1.064 3.884 1.606 5.955 1.606zm-55.49-79.329 68.164 39.354-13.771 23.854-68.165-39.356z"/><path d="m264.803 117.346-8.358-4.825c-3.589-2.074-8.175-.841-10.245 2.745-2.071 3.588-.842 8.175 2.745 10.245l8.358 4.825c1.182.683 2.471 1.006 3.743 1.006 2.592 0 5.113-1.346 6.502-3.751 2.071-3.587.842-8.174-2.745-10.245z"/><path d="m287.026 130.177c-3.589-2.071-8.175-.843-10.245 2.745-2.071 3.587-.842 8.174 2.745 10.245l50.573 29.198c1.182.682 2.471 1.006 3.743 1.006 2.592 0 5.113-1.345 6.502-3.751 2.071-3.587.842-8.174-2.745-10.245z"/></g></g></svg>