<svg id="Capa_1" enable-background="new 0 0 511.867 511.867" height="512" viewBox="0 0 511.867 511.867" width="512" xmlns="http://www.w3.org/2000/svg"><g><g><ellipse cx="252.876" cy="253.014" fill="#f9de58" rx="108.519" ry="89.215"/><path d="m299.845 436.497c-9.246 0-16.742-7.495-16.742-16.742v-55.764h33.483v55.764c.001 9.247-7.495 16.742-16.741 16.742z" fill="#f8d448"/><g><g id="XMLID_288_"><g><path d="m279.034 188.696c2.52 4.36 2.52 9.73 0 14.09l-46.2 80.04c-2.52 4.36-7.17 7.04-12.21 7.04h-92.41c-5.03 0-9.69-2.68-12.2-7.04l-46.21-80.04c-2.52-4.36-2.52-9.73 0-14.09l46.21-80.03c2.51-4.36 7.17-7.04 12.2-7.04h92.41c5.04 0 9.69 2.68 12.21 7.04z" fill="#fcf0b6"/><path d="m236.716 272.956h-83.032c-4.52 0-8.707-2.408-10.962-6.326l-41.521-71.917c-2.264-3.917-2.264-8.742 0-12.66l41.521-71.908c2.255-3.917 6.442-6.326 10.962-6.326h74.485c-2.22-1.405-4.824-2.192-7.546-2.192h-92.41c-5.03 0-9.69 2.68-12.2 7.04l-46.21 80.03c-2.52 4.36-2.52 9.73 0 14.09l46.21 80.04c2.51 4.36 7.17 7.04 12.2 7.04h92.41c5.04 0 9.69-2.68 12.21-7.04l5.788-10.027c-.626.095-1.26.156-1.905.156z" fill="#fbe88c"/><path d="m442.064 282.826c2.52 4.36 2.52 9.73 0 14.09l-46.21 80.03c-2.51 4.36-7.17 7.04-12.2 7.04h-92.41c-5.04 0-9.69-2.68-12.21-7.04l-46.2-80.03c-2.52-4.36-2.52-9.73 0-14.09l46.2-80.04c2.52-4.36 7.17-7.04 12.21-7.04h92.41c5.03 0 9.69 2.68 12.2 7.04z" fill="#fbe88c"/><path d="m395.646 370.22h-80.365c-4.383 0-8.427-2.288-10.618-6.01l-40.178-68.325c-2.191-3.722-2.191-8.307 0-12.029l40.178-68.333c2.192-3.722 6.235-6.01 10.618-6.01h80.365c1.604 0 3.162.313 4.603.887l-4.395-7.613c-2.51-4.36-7.17-7.04-12.2-7.04h-92.41c-5.04 0-9.69 2.68-12.21 7.04l-46.2 80.04c-2.52 4.36-2.52 9.73 0 14.09l46.2 80.03c2.52 4.36 7.17 7.04 12.21 7.04h92.41c5.03 0 9.69-2.68 12.2-7.04l4.396-7.613c-1.441.572-3 .886-4.604.886z" fill="#fbe372"/><path d="m220.624 289.866c5.04 0 9.69 2.69 12.21 7.05l46.2 80.03c2.52 4.36 2.52 9.73 0 14.09l-46.2 80.03c-2.52 4.36-7.17 7.05-12.21 7.05h-92.41c-5.03 0-9.69-2.69-12.2-7.05l-46.21-80.03c-2.52-4.36-2.52-9.73 0-14.09l46.21-80.03c2.51-4.36 7.17-7.05 12.2-7.05z" fill="#fbe88c"/><path d="m230.706 463.797h-80.299c-4.371 0-8.42-2.337-10.601-6.126l-40.154-69.542c-2.19-3.788-2.19-8.455 0-12.243l40.154-69.542c2.181-3.789 6.23-6.126 10.601-6.126h80.299c1.584 0 3.12.315 4.544.885l-2.417-4.187c-2.52-4.36-7.17-7.05-12.21-7.05h-92.41c-5.03 0-9.69 2.69-12.2 7.05l-46.21 80.03c-2.52 4.36-2.52 9.73 0 14.09l46.21 80.03c2.51 4.36 7.17 7.05 12.2 7.05h92.41c5.04 0 9.69-2.69 12.21-7.05l5.995-10.384c-2.209 1.964-5.076 3.115-8.122 3.115z" fill="#fbe372"/><path d="m442.064 94.576c2.52 4.36 2.52 9.73 0 14.09l-46.21 80.03c-2.51 4.36-7.17 7.05-12.2 7.05h-92.41c-5.04 0-9.69-2.69-12.21-7.05l-46.2-80.03c-2.52-4.36-2.52-9.73 0-14.09l46.2-80.03c2.52-4.36 7.17-7.05 12.21-7.05h92.41c5.03 0 9.69 2.69 12.2 7.05z" fill="#fcf0b6"/><path d="m395.639 180.849h-82.539c-4.502 0-8.655-2.294-10.906-6.013l-41.265-68.257c-2.251-3.719-2.251-8.298 0-12.017l41.265-68.257c2.251-3.719 6.404-6.013 10.906-6.013h82.539c1.342 0 2.646.228 3.887.614l-3.672-6.36c-2.51-4.36-7.17-7.05-12.2-7.05h-92.41c-5.04 0-9.69 2.69-12.21 7.05l-46.2 80.03c-2.52 4.36-2.52 9.73 0 14.09l46.2 80.03c2.52 4.36 7.17 7.05 12.21 7.05h92.41c5.03 0 9.69-2.69 12.2-7.05l5.231-9.059c-1.676.771-3.525 1.212-5.446 1.212z" fill="#fbe88c"/></g></g><path d="m299.845 504.367c-9.246 0-16.742-7.495-16.742-16.742v-7.087c0-9.246 7.495-16.742 16.742-16.742 9.246 0 16.742 7.495 16.742 16.742v7.087c0 9.247-7.496 16.742-16.742 16.742z" fill="#f8d448"/><g id="XMLID_289_"><g><path d="m373.484 195.746v88.98c0 9.95-8.07 18.02-18.02 18.02-4.97 0-9.48-2.02-12.74-5.28s-5.28-7.77-5.28-12.74v-88.98z" fill="#f8d448"/></g><g><g id="XMLID_290_"><g><path d="m228.75 104.199.014 96.588c0 8.31-6.74 15.05-15.05 15.05-4.16 0-7.92-1.68-10.65-4.41-2.73-2.72-4.41-6.49-4.41-10.64v-34.91c0-8.03-6.51-14.54-14.54-14.54-4.02 0-7.66 1.63-10.29 4.26s-4.26 6.26-4.26 10.28v14.06c0 8.73-7.08 15.81-15.81 15.81-4.36 0-8.32-1.77-11.18-4.63s-4.63-6.82-4.63-11.18v-78.31h82.68c3.05-.001 5.746.822 8.126 2.572z" fill="#fbe372"/></g></g></g></g></g></g><g><path d="m448.559 279.072-46.206-80.032c-.683-1.182-1.475-2.28-2.351-3.295.877-1.014 1.669-2.113 2.351-3.296l46.206-80.031c3.844-6.658 3.844-14.932 0-21.592l-46.206-80.032c-3.846-6.658-11.011-10.794-18.7-10.794h-14.151c-4.143 0-7.5 3.357-7.5 7.5s3.357 7.5 7.5 7.5h14.151c2.348 0 4.535 1.263 5.709 3.295l46.205 80.03c1.174 2.034 1.174 4.561.001 6.593l-46.206 80.031c-1.172 2.03-3.355 3.292-5.699 3.296-.003 0-.007 0-.01 0h-92.412c-.003 0-.006 0-.01 0-2.343-.004-4.526-1.265-5.698-3.296l-46.206-80.032c-1.174-2.032-1.174-4.558 0-6.591l46.206-80.031c1.174-2.032 3.36-3.295 5.708-3.295h46.299c4.143 0 7.5-3.357 7.5-7.5s-3.357-7.5-7.5-7.5h-46.299c-7.689 0-14.854 4.137-18.698 10.795l-46.206 80.031c-.683 1.183-1.239 2.419-1.679 3.686-1.317-.252-2.666-.389-4.032-.389h-92.412c-7.688 0-14.854 4.136-18.699 10.795l-46.206 80.031c-3.846 6.66-3.845 14.934 0 21.592l46.206 80.031c.683 1.183 1.475 2.282 2.352 3.296-.876 1.015-1.669 2.113-2.352 3.296l-14.704 25.469c-2.071 3.587-.842 8.174 2.745 10.245 3.588 2.069 8.174.843 10.245-2.745l14.704-25.468c1.174-2.033 3.361-3.297 5.709-3.297h92.412c2.348 0 4.534 1.263 5.708 3.296l46.206 80.031c1.174 2.033 1.174 4.559 0 6.592l-46.206 80.031c-1.174 2.033-3.36 3.296-5.708 3.296h-92.412c-2.348 0-4.535-1.264-5.709-3.296l-46.206-80.031c-1.173-2.032-1.173-4.559 0-6.592l15.506-26.856c2.071-3.587.842-8.174-2.745-10.245-3.59-2.071-8.175-.843-10.245 2.745l-15.507 26.857c-3.843 6.659-3.843 14.933.001 21.591l46.206 80.032c3.846 6.658 11.011 10.795 18.699 10.795h92.412c7.689 0 14.854-4.137 18.698-10.796l36.279-62.837v7.774c0 13.366 10.875 24.241 24.241 24.241 13.367 0 24.242-10.875 24.242-24.241v-28.265h59.566c7.689 0 14.854-4.137 18.699-10.796l46.206-80.03c3.846-6.658 3.847-14.932.002-21.592zm-227.295-169.906v91.621c0 4.165-3.388 7.553-7.553 7.553s-7.554-3.388-7.554-7.553v-34.908c0-12.156-9.89-22.046-22.046-22.046s-22.046 9.89-22.046 22.046v14.057c0 4.582-3.729 8.311-8.311 8.311s-8.311-3.729-8.311-8.311v-70.812h75.182c.216-.001.427.021.639.042zm-93.05 173.202c-2.348 0-4.535-1.263-5.709-3.296l-46.206-80.032c-1.174-2.032-1.174-4.558 0-6.591l46.206-80.03c1.174-2.033 3.361-3.296 5.709-3.296h2.23v70.812c0 12.854 10.457 23.311 23.311 23.311s23.311-10.457 23.311-23.311v-14.057c0-3.885 3.161-7.046 7.046-7.046s7.046 3.161 7.046 7.046v34.908c0 12.436 10.117 22.553 22.554 22.553 12.436 0 22.553-10.117 22.553-22.553v-71.169l36.276 62.833c1.174 2.033 1.174 4.559 0 6.592l-46.207 80.032c-1.173 2.032-3.359 3.295-5.707 3.295h-92.413zm180.873 137.388c0 5.096-4.146 9.241-9.242 9.241s-9.241-4.146-9.241-9.241v-28.265h.638 17.846v28.265zm126.481-126.592-46.206 80.031c-1.174 2.033-3.361 3.296-5.709 3.296h-92.412c-2.348 0-4.534-1.263-5.708-3.296l-46.206-80.032c-1.174-2.032-1.174-4.558 0-6.591l46.206-80.031c1.172-2.03 3.354-3.292 5.698-3.295h.01 38.706v81.483c0 14.07 11.447 25.517 25.518 25.517s25.517-11.446 25.517-25.517v-23.134c0-4.143-3.357-7.5-7.5-7.5s-7.5 3.357-7.5 7.5v23.134c0 5.799-4.718 10.517-10.517 10.517-5.8 0-10.518-4.718-10.518-10.517v-81.483h21.034v26.387c0 4.143 3.357 7.5 7.5 7.5s7.5-3.357 7.5-7.5v-26.387h2.672.01c2.344.004 4.527 1.266 5.699 3.295l46.206 80.031c1.174 2.033 1.174 4.559 0 6.592z"/><path d="m299.845 456.297c-13.366 0-24.241 10.875-24.241 24.241v7.088c0 13.366 10.875 24.241 24.241 24.241 13.367 0 24.242-10.875 24.242-24.241v-7.088c0-13.366-10.875-24.241-24.242-24.241zm9.242 31.329c0 5.096-4.146 9.241-9.242 9.241s-9.241-4.146-9.241-9.241v-7.088c0-5.096 4.146-9.241 9.241-9.241s9.242 4.146 9.242 9.241z"/></g></g></svg>