<svg id="Capa_1" enable-background="new 0 0 512.161 512.161" height="512" viewBox="0 0 512.161 512.161" width="512" xmlns="http://www.w3.org/2000/svg"><g><g><path d="m428.931 164.524-7.34-15.96-10.45-24.67h-307.1l-13.47 24.67-7.34 15.96c-36.34 79.08-40.77 169.15-12.35 251.42l3.85 11.15 18.67 26.072h332.979l11.051-26.072 3.85-11.15c28.42-82.271 23.99-172.34-12.35-251.42z" fill="#f2eae7"/><g><g id="XMLID_291_"><g><path d="m367.981 68.403c19.23 4.9 35.22 19.06 42.13 38.34l1.85 5.16 6.78 23.43h-325.34l6.8-23.43 1.85-5.16c6.91-19.28 22.9-33.44 42.13-38.34l53.18-40.95c34.61-26.64 82.83-26.64 117.44 0z" fill="#c9a291"/></g></g></g><g><path d="m114.49 387.842c-16.368-66.378-12.221-136.246 11.982-200.298 4.336-11.474 15.426-18.984 27.692-18.984h267.432c2.98 0 5.858-.435 8.585-1.229-.419-.935-.821-1.875-1.249-2.807l-7.34-15.96-9.884-23.334-.566-1.336h-274.095-33.006l-13.47 24.67-7.34 15.96c-36.34 79.08-40.77 169.15-12.35 251.42l3.85 11.15 18.67 26.072h20.302 31.024 281.653l11.051-26.072 3.85-11.15c1.015-2.939 1.977-5.891 2.909-8.85h-304.967c-11.678 0-21.937-7.913-24.733-19.252z" fill="#ede2dd"/><path d="m463.291 467.533v29.4c0 4.27-3.46 7.73-7.73 7.73h-398.96c-4.27 0-7.73-3.46-7.73-7.73v-29.4c0-1.55.46-3.06 1.33-4.34l24.53-36.1h362.7l24.53 36.1c.87 1.28 1.33 2.79 1.33 4.34z" fill="#f8f3f2"/><path d="m97.563 486.059c-4.27 0-7.73-3.46-7.73-7.73v-29.4c0-1.55.46-3.06 1.33-4.34l11.888-17.496h-28.32l-24.53 36.1c-.87 1.28-1.33 2.79-1.33 4.34v29.4c0 4.27 3.46 7.73 7.73 7.73h398.96c4.27 0 7.73-3.46 7.73-7.73v-10.875h-365.728z" fill="#f2eae7"/><path d="m345.056 371.507c-59.683 20.614-118.954 20.49-177.821.054-2.563-.89-4.646-2.785-5.769-5.254-23.268-51.164-22.851-102.847-.097-155.016 1.158-2.656 3.418-4.693 6.201-5.498 59.831-17.312 118.85-17.321 177.057-.025 2.764.821 4.998 2.862 6.142 5.508 23 53.196 22.979 104.879-.062 155.049-1.112 2.419-3.136 4.314-5.651 5.182z" fill="#f9f7f7"/><g fill="#c9a291"><circle cx="219.72" cy="265.712" r="20.561"/><circle cx="290.215" cy="259.25" r="16.449"/><circle cx="248.006" cy="334.958" r="16.449"/><circle cx="314.757" cy="318.509" r="13.786"/></g></g><path d="m418.741 135.333-6.78-23.43-1.85-5.16c-1.239-3.456-2.78-6.74-4.569-9.844h-249.263c-5.426 0-7.603-6.985-3.154-10.091 5.934-4.142 12.607-7.226 19.726-9.04l53.18-40.95c21.542-16.582 48.348-22.862 73.872-18.802-32.653-16.713-72.662-13.562-102.542 9.437l-53.18 40.95c-19.23 4.9-35.22 19.06-42.13 38.34l-1.85 5.16-6.8 23.43h31.388l4.082-14.065.308-.859v14.924z" fill="#be8f7d"/><path d="m421.595 148.559h-331.029c-5.929 0-10.735-4.806-10.735-10.735v-15.189c0-5.929 4.806-10.735 10.735-10.735h331.029c5.929 0 10.736 4.806 10.736 10.735v15.189c0 5.929-4.807 10.735-10.736 10.735z" fill="#f8f3f2"/></g><g><path d="m468.16 458.978-22.409-32.992 2.624-7.599c14.454-41.852 20.681-85.495 18.508-129.72-2.174-44.224-12.65-87.046-31.138-127.279l-3.902-8.491c4.817-3.286 7.988-8.814 7.988-15.072v-15.189c0-10.055-8.18-18.235-18.235-18.235h-4.354l-.065-.182c-7.545-21.07-24.881-36.748-45.756-42.642l-52.045-40.062c-37.267-28.686-89.323-28.685-126.589 0l-52.047 40.061c-20.875 5.894-38.21 21.572-45.755 42.641l-.065.183h-4.354c-10.055 0-18.235 8.181-18.235 18.235v15.189c0 6.258 3.171 11.787 7.988 15.072l-3.902 8.491c-16.582 36.086-26.748 74.485-30.217 114.132-.361 4.126 2.692 7.764 6.818 8.125.223.02.443.028.663.028 3.846 0 7.121-2.942 7.463-6.847 3.318-37.926 13.042-74.658 28.904-109.174l5.327-11.593h321.414l5.327 11.593c17.685 38.485 27.707 79.449 29.786 121.752 2.079 42.304-3.877 84.053-17.704 124.087l-2.106 6.1h-32.124c-4.142 0-7.5 3.357-7.5 7.5s3.358 7.5 7.5 7.5h33.497l22.289 32.815c.026.038.04.083.04.129v29.399c0 .126-.103.228-.229.228h-398.966c-.126 0-.229-.102-.229-.228v-29.399c0-.046.014-.091.04-.129l22.289-32.814h57.08c4.142 0 7.5-3.357 7.5-7.5s-3.358-7.5-7.5-7.5h-55.707l-2.107-6.101c-11.724-33.946-17.804-69.412-18.07-105.411-.031-4.123-3.382-7.444-7.499-7.444h-.057c-4.142.031-7.475 3.413-7.444 7.556.279 37.632 6.635 74.707 18.892 110.196l2.625 7.599-22.41 32.992c-1.721 2.535-2.631 5.493-2.631 8.557v29.399c0 8.396 6.832 15.228 15.229 15.228h398.964c8.397 0 15.229-6.831 15.229-15.228v-29.399c-.002-3.064-.912-6.022-2.633-8.557zm-380.829-336.343c0-1.784 1.451-3.235 3.235-3.235h257.464c4.142 0 7.5-3.357 7.5-7.5s-3.358-7.5-7.5-7.5h-236.887c8.728-18.363 27.413-30.379 48.035-30.379h9.637c4.142 0 7.5-3.357 7.5-7.5s-3.358-7.5-7.5-7.5h-.163l33.283-25.62c31.88-24.539 76.411-24.539 108.291 0l33.283 25.62h-.163c-4.142 0-7.5 3.357-7.5 7.5s3.358 7.5 7.5 7.5h9.637c20.622 0 39.306 12.016 48.035 30.379h-21.024c-4.142 0-7.5 3.357-7.5 7.5s3.358 7.5 7.5 7.5h41.603c1.784 0 3.235 1.451 3.235 3.235v15.189c0 1.783-1.451 3.234-3.235 3.234h-331.031c-1.784 0-3.235-1.451-3.235-3.234z"/><path d="m164.508 419.59c-4.142 0-7.5 3.357-7.5 7.5s3.358 7.5 7.5 7.5h203.494c4.142 0 7.5-3.357 7.5-7.5s-3.358-7.5-7.5-7.5z"/><path d="m346.763 198.578c-59.334-17.63-120.324-17.625-181.279.011-4.914 1.423-8.919 4.959-10.99 9.704-23.755 54.464-23.707 108.673.144 161.119 1.961 4.313 5.656 7.68 10.137 9.234 30.189 10.48 60.635 15.72 91.139 15.72 30.548 0 61.154-5.258 91.589-15.77 4.396-1.518 8.048-4.85 10.019-9.142 23.859-51.951 23.904-106.172.131-161.154-2.045-4.729-6.014-8.273-10.89-9.722zm-2.873 164.617c-.27.589-.737 1.034-1.281 1.222 0 0-.001.001-.002.001-57.57 19.885-115.747 19.902-172.913.059-.63-.219-1.128-.671-1.402-1.273-11.076-24.355-16.672-49.258-16.634-74.016.038-24.555 5.618-49.754 16.584-74.896.277-.635.805-1.118 1.412-1.294 29.1-8.419 58.196-12.629 87.094-12.629 28.848 0 57.499 4.196 85.743 12.589.599.178 1.12.662 1.394 1.296 11.037 25.527 16.628 50.989 16.618 75.68-.01 24.633-5.6 49.281-16.613 73.261z"/><path d="m247.781 265.712c0-15.474-12.588-28.062-28.061-28.062s-28.061 12.588-28.061 28.062c0 15.473 12.588 28.061 28.061 28.061s28.061-12.588 28.061-28.061zm-28.061 13.061c-7.202 0-13.061-5.859-13.061-13.061s5.859-13.062 13.061-13.062 13.061 5.859 13.061 13.062c0 7.201-5.859 13.061-13.061 13.061z"/><path d="m314.164 259.249c0-13.205-10.743-23.948-23.949-23.948s-23.949 10.743-23.949 23.948c0 13.206 10.743 23.949 23.949 23.949s23.949-10.743 23.949-23.949zm-23.949 8.949c-4.935 0-8.949-4.015-8.949-8.949s4.014-8.948 8.949-8.948 8.949 4.015 8.949 8.948c0 4.935-4.014 8.949-8.949 8.949z"/><path d="m248.006 311.009c-13.206 0-23.949 10.743-23.949 23.949s10.743 23.949 23.949 23.949 23.949-10.743 23.949-23.949-10.743-23.949-23.949-23.949zm0 32.898c-4.935 0-8.949-4.015-8.949-8.949s4.014-8.949 8.949-8.949 8.949 4.015 8.949 8.949-4.014 8.949-8.949 8.949z"/><path d="m314.757 297.224c-11.737 0-21.286 9.549-21.286 21.285 0 11.737 9.549 21.286 21.286 21.286s21.286-9.549 21.286-21.286c0-11.736-9.549-21.285-21.286-21.285zm0 27.571c-3.466 0-6.286-2.82-6.286-6.286s2.82-6.285 6.286-6.285 6.286 2.819 6.286 6.285-2.82 6.286-6.286 6.286z"/><path d="m267.385 46.452c-7.154-2.133-14.411-2.133-21.565 0-3.97 1.183-6.229 5.36-5.045 9.33 1.183 3.969 5.357 6.227 9.33 5.045 4.373-1.303 8.624-1.303 12.997 0 .715.213 1.436.314 2.145.314 3.231 0 6.214-2.104 7.185-5.359 1.182-3.969-1.077-8.147-5.047-9.33z"/><path d="m210.789 75.629h-5.813c-4.142 0-7.5 3.357-7.5 7.5s3.358 7.5 7.5 7.5h5.813c4.142 0 7.5-3.357 7.5-7.5s-3.358-7.5-7.5-7.5z"/><path d="m308.186 75.629h-5.813c-4.142 0-7.5 3.357-7.5 7.5s3.358 7.5 7.5 7.5h5.813c4.142 0 7.5-3.357 7.5-7.5s-3.358-7.5-7.5-7.5z"/></g></g></svg>