<svg id="Capa_1" enable-background="new 0 0 510.396 510.396" height="512" viewBox="0 0 510.396 510.396" width="512" xmlns="http://www.w3.org/2000/svg"><g><g><path d="m303.241 228.503 4.998 65.121c1.887 24.891-7.183 49.365-24.834 67.016l-131.075 131.077c-8.309 8.309-19.984 12.324-31.646 10.884l-.451-.056c-3.127-.386-5.628-2.783-6.146-5.891l-.143-.855c-2.026-12.151 1.942-24.532 10.652-33.243l83.457-83.457c6.975-6.975 6.975-18.283 0-25.258-6.975-6.975-18.283-6.975-25.258 0l-84.364 84.364c-8.2 8.2-19.684 12.224-31.208 10.935-3.304-.369-5.911-2.977-6.28-6.28-1.288-11.524 2.736-23.008 10.935-31.208l84.364-84.364c6.975-6.975 6.975-18.283 0-25.258-6.975-6.975-18.283-6.975-25.258 0l-84.063 84.063c-8.37 8.37-20.152 12.38-31.891 10.853l-.505-.066c-3.123-.406-5.607-2.817-6.107-5.927l-.127-.791c-1.942-12.085 2.034-24.367 10.688-33.022l130.462-130.462c17.651-17.651 42.126-26.72 67.016-24.834l63.864 4.841z" fill="#ded4cf"/><path d="m308.239 293.625-4.998-65.121-22.918-21.819-63.864-4.84c-24.891-1.887-49.365 7.183-67.016 24.833l-130.463 130.462c-8.655 8.655-12.63 20.938-10.688 33.022l.128.794c.499 3.109 2.984 5.519 6.106 5.924l.505.065c3.859.502 7.725.406 11.471-.248 1.744-6.217 5.044-11.993 9.737-16.686l130.461-130.461c11.107-11.107 24.915-18.816 39.829-22.536 9.369-2.336 15.859 9.211 9.086 16.093-13.921 13.922-24.088 31.301-29.402 50.259-2.059 7.348-.598 15.045 4.008 21.118 4.548 5.999 11.744 9.579 19.248 9.579 2.206 0 4.407-.303 6.542-.901 18.958-5.313 36.337-15.48 50.258-29.401l13.62-13.621c4.779-4.779 12.963-1.751 13.48 4.988l3.455 45.02c.333 4.392.332 8.761-.004 13.092 8.669-14.855 12.745-32.126 11.419-49.615z" fill="#cbc0bb"/><path d="m373.713 158.032-121.586 121.586c-11.524 11.524-25.82 19.888-41.513 24.286-3.133.878-6.02-2.009-5.142-5.142 4.398-15.693 12.762-29.989 24.286-41.513l121.586-121.586 53.617-55.226 22.929 21.991z" fill="#ded4cf"/><path d="m373.713 158.032 37.647-38.639-22.437-22.437-37.579 38.707-10.61 10.61 22.369 22.369z" fill="#cbc0bb"/><path d="m416.557 62.785-18.219 2.189-31.3 31.31-2.304 15.46 29.641 37.324 19.423-6.024.01.01 31.3-31.31v-15.46z" fill="#ea9a98"/><g id="XMLID_293_"><g><path d="m413.808 143.054-20.61 20.6c-3.83 3.82-10.04 3.82-13.87 0l-32.9-32.9c-3.82-3.83-3.82-10.04 0-13.87l20.61-20.6 46.76 46.76z" fill="#e5827f"/><path d="m492.898 17.185c-12.91-12.91-33.85-12.91-46.77 0l-16.48 16.49-1.758 18.129 30.979 32.623 17.549-3.981 16.48-16.49c6.46-6.46 9.68-14.92 9.68-23.39 0-8.462-3.22-16.932-9.68-23.381z" fill="#ea9a98"/><g fill="#e5827f"><path d="m419.688 66.459-3.131-3.674-18.219 2.189-31.3 31.31-2.304 15.46 3.506 4.415z"/><path d="m463.092 24.53c7.695-7.428 18.291-10.353 28.267-8.791-12.985-11.438-32.815-10.961-45.231 1.446l-16.48 16.49-1.758 18.129 3.335 3.512z"/><path d="m476.418 80.444-31.31 31.3-46.77-46.77 31.31-31.3 46.76 46.76z"/></g></g></g><g fill="#de6a66"><path d="m441.43 45.456-11.782-11.782-31.31 31.3 11.246 11.246z"/><path d="m364.962 132.514c-3.76-3.642-3.76-9.546 0-13.188l12.776-12.342-10.7-10.7-20.61 20.6c-3.82 3.83-3.82 10.04 0 13.87l32.9 32.9c3.83 3.82 10.04 3.82 13.87 0l1.966-1.965z"/></g></g><g><path d="m498.201 11.883c-7.662-7.663-17.85-11.883-28.686-11.883s-21.023 4.22-28.686 11.882l-99.701 99.701c-6.613 6.614-6.726 17.286-.371 24.06l-63.302 63.303-60.43-4.581c-27.108-2.057-53.667 7.79-72.886 27.008l-96.202 96.203c-2.929 2.93-2.929 7.678 0 10.607 1.464 1.464 3.384 2.196 5.303 2.196s3.839-.732 5.303-2.196l96.202-96.203c16.123-16.123 38.416-24.383 61.146-22.658l47.58 3.606-39.017 39.018c-12.408 12.408-21.469 27.896-26.205 44.793-1.136 4.055.007 8.424 2.985 11.401 2.217 2.217 5.204 3.417 8.26 3.417 1.049 0 2.106-.142 3.143-.432 16.896-4.735 32.384-13.797 44.792-26.204l39.625-39.625 3.706 48.894c1.723 22.736-6.536 45.023-22.659 61.147l-10.601 10.603c-2.929 2.929-2.928 7.678 0 10.606 1.465 1.464 3.384 2.196 5.303 2.196s3.839-.732 5.304-2.197l10.601-10.603c19.219-19.219 29.063-45.784 27.009-72.886l-4.68-61.744 16.907-16.907c2.929-2.93 2.929-7.678 0-10.607-2.929-2.928-7.678-2.928-10.606 0l-70.515 70.516c-9.096 9.096-20.13 16.084-32.199 20.437 4.353-12.069 11.341-23.104 20.436-32.198l116.284-116.283 11.762 11.762-23.167 23.166c-2.929 2.93-2.929 7.678 0 10.607 1.464 1.464 3.384 2.196 5.303 2.196s3.839-.732 5.303-2.196l23.167-23.167.315.315c3.269 3.269 7.614 5.068 12.236 5.068 4.623 0 8.968-1.8 12.236-5.068l99.7-99.7c7.663-7.663 11.882-17.851 11.882-28.687s-4.217-21.022-11.88-28.683zm-53.094 89.251-36.158-36.158 20.697-20.697 36.158 36.158zm-31.304 31.304-36.158-36.158 20.697-20.697 36.158 36.158zm-25.909 25.909c-.558.559-1.194.676-1.63.676-.435 0-1.071-.117-1.629-.676l-32.899-32.898c-.898-.898-.898-2.361 0-3.259l15.302-15.302 36.158 36.158zm99.701-99.701-11.184 11.184-36.158-36.158 11.183-11.184c4.829-4.829 11.25-7.488 18.079-7.488s13.25 2.659 18.079 7.489c4.829 4.828 7.489 11.249 7.489 18.078s-2.659 13.25-7.488 18.079z"/><path d="m244.86 388.58-97.833 97.834c-6.723 6.722-15.988 9.911-25.424 8.743l-.165-.021-.095-.571c-1.624-9.74 1.575-19.724 8.558-26.706l83.457-83.457c4.79-4.79 7.428-11.158 7.428-17.933s-2.638-13.143-7.428-17.933c-9.888-9.888-25.977-9.886-35.865 0l-84.365 84.364c-6.552 6.553-15.564 9.762-24.764 8.818-.937-9.203 2.267-18.214 8.818-24.764l84.364-84.363c9.888-9.888 9.888-25.977 0-35.866-9.889-9.887-25.977-9.887-35.865 0l-84.063 84.063c-6.677 6.677-16.255 9.933-25.624 8.719l-.216-.028-.082-.509c-1.556-9.679 1.654-19.596 8.586-26.527l11.66-11.659c2.929-2.929 2.929-7.678 0-10.606-2.929-2.93-7.678-2.929-10.606-.001l-11.66 11.659c-10.326 10.326-15.107 25.098-12.789 39.513l.127.794c1.019 6.34 6.177 11.347 12.548 12.175l.501.065c13.947 1.812 28.214-3.042 38.161-12.986l84.063-84.063c4.039-4.04 10.611-4.039 14.651-.001 4.04 4.04 4.04 10.613 0 14.652l-84.364 84.363c-9.866 9.866-14.636 23.478-13.086 37.345.763 6.832 6.068 12.138 12.9 12.9 13.866 1.557 27.477-3.218 37.345-13.085l84.364-84.363c4.04-4.041 10.612-4.039 14.652 0 1.957 1.956 3.035 4.558 3.035 7.325s-1.078 5.369-3.035 7.325l-83.457 83.457c-10.4 10.401-15.166 25.271-12.747 39.781l.143.854c1.057 6.339 6.248 11.315 12.624 12.102l.45.056c1.907.235 3.809.352 5.697.352 12.032 0 23.518-4.721 32.172-13.375l97.833-97.833c2.929-2.93 2.929-7.678 0-10.607-2.926-2.93-7.675-2.93-10.604-.002z"/></g></g></svg>