<svg id="almond" enable-background="new 0 0 300 300" height="512" viewBox="0 0 300 300" width="512" xmlns="http://www.w3.org/2000/svg"><g><circle cx="146" cy="146" fill="#fff0fd" r="92"/><g><path d="m211 189c-1-107-65-143-65-143s-65 34.667-65 143c0 35.898 29.102 65 65 65s65.335-29.103 65-65z" fill="#bf7e68"/><path d="m146 258c-38.047 0-69-30.953-69-69 0-109.475 64.377-145.068 67.117-146.529 1.207-.643 2.656-.627 3.844.043 2.695 1.516 66.021 38.393 67.039 146.449.17 18.242-6.852 35.473-19.773 48.516-13.11 13.232-30.592 20.521-49.227 20.521zm-.041-207.295c-10.58 6.84-60.959 44.371-60.959 138.295 0 33.635 27.365 61 61 61 16.482 0 31.947-6.447 43.543-18.152 11.408-11.516 17.607-26.719 17.457-42.811-.504-53.971-17.598-89.033-31.848-108.943-12.246-17.111-24.554-26.285-29.193-29.389z" fill="#4c241d"/></g><g><path d="m105.998 162.002c-.545 0-1.1-.113-1.629-.35-2.018-.9-2.922-3.266-2.021-5.283 2.176-4.871 3.406-9.777 3.658-14.578.129-2.449-.01-4.373-.156-6.41-.207-2.881-.42-5.861.195-9.973.684-4.572 2.172-9.041 4.422-13.283 1.033-1.953 3.447-2.705 5.408-1.658 1.951 1.035 2.693 3.455 1.658 5.408-1.824 3.438-3.027 7.045-3.578 10.717-.484 3.236-.318 5.545-.125 8.217.148 2.088.318 4.457.164 7.4-.303 5.787-1.764 11.648-4.342 17.422-.664 1.486-2.125 2.371-3.654 2.371z" fill="#4c241d"/></g><g><path d="m193.059 202.113c-1.492 0-2.926-.84-3.611-2.277-2.068-4.334-3.365-8.861-3.854-13.457-.441-4.133-.102-7.102.227-9.973.232-2.027.453-3.945.428-6.396-.047-4.807-1.068-9.76-3.035-14.721-.814-2.055.191-4.379 2.244-5.193 2.053-.816 4.379.189 5.193 2.244 2.33 5.881 3.541 11.799 3.598 17.59.029 2.949-.24 5.307-.479 7.389-.305 2.66-.568 4.959-.223 8.213.395 3.693 1.443 7.346 3.119 10.859.951 1.994.107 4.381-1.887 5.332-.556.265-1.142.39-1.72.39z" fill="#4c241d"/></g><g><path d="m149.998 230.002c-1.705 0-3.285-1.1-3.818-2.814-3.031-9.752-4.438-19.609-4.178-29.295.197-7.389 1.295-12.094 2.262-16.244 1.062-4.549 1.979-8.479 1.738-15.512-.207-6.082-1.094-9.324-2.031-12.756-1.07-3.916-2.178-7.965-1.969-15.492.186-6.723 1.275-10.744 2.238-14.291.785-2.896 1.527-5.631 1.766-9.824.053-.922.141-2.07.244-3.398.689-8.938 2.125-27.535-3.771-38.479-1.047-1.943-.32-4.369 1.625-5.418 1.945-1.047 4.369-.322 5.418 1.625 7.01 13.01 5.453 33.189 4.705 42.889-.098 1.264-.184 2.355-.232 3.234-.287 5.027-1.174 8.301-2.033 11.465-.928 3.42-1.803 6.648-1.963 12.42-.176 6.34.689 9.5 1.689 13.16.971 3.551 2.07 7.576 2.311 14.592.275 8.094-.852 12.928-1.943 17.604-.924 3.963-1.881 8.062-2.057 14.641-.234 8.807 1.051 17.791 3.822 26.705.654 2.109-.523 4.352-2.633 5.008-.395.121-.795.18-1.19.18z" fill="#4c241d"/></g><g><path d="m178.004 222c-1.35 0-2.666-.682-3.418-1.918-2.699-4.422-4.238-9.064-4.576-13.797-.156-2.205 1.502-4.117 3.705-4.275 2.23-.117 4.119 1.504 4.275 3.705.246 3.447 1.398 6.879 3.424 10.203 1.15 1.885.555 4.346-1.332 5.496-.65.399-1.369.586-2.078.586z" fill="#4c241d"/></g><g><path d="m121.996 202c-2.08 0-3.836-1.609-3.986-3.715-.361-5.078.762-8.709 1.951-12.551.764-2.473 1.555-5.027 2.09-8.365.754-4.729.752-9.699-.006-14.777-.328-2.186 1.178-4.221 3.363-4.547 2.178-.352 4.221 1.178 4.547 3.363.881 5.891.879 11.684-.006 17.223-.623 3.9-1.539 6.857-2.346 9.467-1.086 3.506-1.869 6.039-1.613 9.617.156 2.205-1.502 4.117-3.705 4.275-.097.006-.193.01-.289.01z" fill="#4c241d"/></g><g fill="#4c241d"><path d="m234 86c-1.023 0-2.047-.391-2.828-1.172l-12-12c-1.562-1.562-1.562-4.094 0-5.656s4.094-1.562 5.656 0l12 12c1.562 1.562 1.562 4.094 0 5.656-.781.781-1.805 1.172-2.828 1.172z"/><path d="m222 86c-1.023 0-2.047-.391-2.828-1.172-1.562-1.562-1.562-4.094 0-5.656l12-12c1.562-1.562 4.094-1.562 5.656 0s1.562 4.094 0 5.656l-12 12c-.781.781-1.805 1.172-2.828 1.172z"/><path d="m238 254c-6.617 0-12-5.383-12-12s5.383-12 12-12 12 5.383 12 12-5.383 12-12 12zm0-16c-2.205 0-4 1.795-4 4s1.795 4 4 4 4-1.795 4-4-1.795-4-4-4z"/><circle cx="230.397" cy="108.093" r="4.276"/><path d="m66 238c-1.023 0-2.047-.391-2.828-1.172l-12-12c-1.562-1.562-1.562-4.094 0-5.656s4.094-1.562 5.656 0l12 12c1.562 1.562 1.562 4.094 0 5.656-.781.781-1.805 1.172-2.828 1.172z"/><path d="m54 238c-1.023 0-2.047-.391-2.828-1.172-1.562-1.562-1.562-4.094 0-5.656l12-12c1.562-1.562 4.094-1.562 5.656 0s1.562 4.094 0 5.656l-12 12c-.781.781-1.805 1.172-2.828 1.172z"/><circle cx="58.397" cy="96.093" r="4.276"/></g></g></svg>