<svg id="Capa_1" enable-background="new 0 0 512 512" height="512" viewBox="0 0 512 512" width="512" xmlns="http://www.w3.org/2000/svg"><g><g><path clip-rule="evenodd" d="m40.062 154.335c89.573-30.444 129.002 21.033 193.857 70.81l15.902 29.764-32.173 1.077c-83.422-17.065-138.441-11.566-177.586-101.651z" fill="#dfa7d2" fill-rule="evenodd"/></g><g><path clip-rule="evenodd" d="m190.776 289.038c-.709 4.025-.312 7.767 1.417 10.942 2.551 4.677 7.597 7.37 14.06 8.107-56.522 43.342-86.455 76.677-166.191 49.578 39.146-90.114 94.165-84.586 177.587-101.679-14.854 9.297-24.945 22.223-26.873 33.052z" fill="#dfa7d2" fill-rule="evenodd"/></g><g><path clip-rule="evenodd" d="m256 7.499c-66.641 75.289-38.919 115.881-19.814 203.557 1.757-5.669 4.082-10.488 6.86-14.202 3.657-4.876 8.079-7.739 12.841-7.739 10.29 0 16.441 10.261 19.729 22.706 19.189-87.902 47.138-128.891-19.616-204.322z" fill="#dfa7d2" fill-rule="evenodd"/></g><g><path clip-rule="evenodd" d="m471.938 154.335c-89.601-30.444-129.03 21.033-193.885 70.81l-15.902 29.764 32.173 1.077c83.45-17.065 138.44-11.566 177.614-101.651z" fill="#dfa7d2" fill-rule="evenodd"/></g><g><path clip-rule="evenodd" d="m321.195 289.038c.737 4.025.312 7.767-1.417 10.942-2.551 4.677-7.597 7.37-14.06 8.107 56.522 43.342 86.455 76.677 166.22 49.578-39.174-90.114-94.165-84.586-177.615-101.679 14.882 9.297 24.945 22.223 26.872 33.052z" fill="#dfa7d2" fill-rule="evenodd"/></g><g><path clip-rule="evenodd" d="m243.471 22.636c39.259 21.43 30.358 156.416 20.721 169.116 5.471 3.827 9.156 11.424 11.423 20.069 19.19-87.902 47.139-128.891-19.615-204.322-4.62 5.188-8.787 10.234-12.529 15.137z" fill="#d691c6" fill-rule="evenodd"/></g><g><path clip-rule="evenodd" d="m255.66 269.677c-5.698 5.811-12.274 27.553-19.474 31.295-19.133 87.675-46.827 128.239 19.814 203.528 66.613-75.26 38.947-115.767 19.842-203.387-1.757-.907-1.757-17.49-5.442-19.758-3.685-2.267-10.63-7.454-14.74-11.678z" fill="#dfa7d2" fill-rule="evenodd"/></g><g><path clip-rule="evenodd" d="m293.757 255.645c-5.244-3.232-10.573-5.669-15.704-7.37 2.551-17.376-1.389-59.159-22.166-59.159-12.784 0-23.13 20.636-23.13 46.12 0 4.394.312 8.731.935 13.039-5.131 1.701-10.431 4.139-15.675 7.37-20.777 12.728-32.428 32.57-26.05 44.334 6.378 11.735 28.403 10.942 49.18-1.814 5.641-3.458 10.601-7.455 14.74-11.65 4.11 4.195 9.099 8.192 14.74 11.65 20.777 12.756 42.774 13.55 49.152 1.814 6.405-11.763-5.273-31.606-26.022-44.334z" fill="#ffd772" fill-rule="evenodd"/></g><g><path clip-rule="evenodd" d="m255.887 189.116c-4.762 0-9.184 2.863-12.841 7.739 19.105 31.805 12.472 90.029 12.841 89.66 4.11 4.195 9.099 8.192 14.74 11.65 20.777 12.756 42.774 13.55 49.152 1.814 6.406-11.764-5.272-31.606-26.021-44.334-5.244-3.232-10.573-5.669-15.704-7.37 2.55-17.376-1.39-59.159-22.167-59.159z" fill="#fbba58" fill-rule="evenodd"/></g><g><path clip-rule="evenodd" d="m305.719 308.087c56.522 43.342 86.455 76.677 166.22 49.578-2.211-5.046-4.45-9.808-6.746-14.258-63.069 12.954-94.845-11.395-146.548-41.641-2.779 3.599-7.314 5.697-12.926 6.321z" fill="#d691c6" fill-rule="evenodd"/></g><g><path clip-rule="evenodd" d="m275.672 407.526c-2.324 23.102-14.598 46.347-37.7 74.24 5.046 7.257 10.998 14.797 18.028 22.734 66.613-75.26 38.947-115.767 19.842-203.387-1.757-.907-3.487-1.871-5.216-2.948-2.268-1.389-4.422-2.863-6.463-4.394-.056-.028 16.243 83.935 11.509 113.755z" fill="#d691c6" fill-rule="evenodd"/></g><g><path clip-rule="evenodd" d="m294.324 255.986c83.45-17.065 138.441-11.565 177.615-101.651-9.751-3.317-18.907-5.669-27.552-7.143-4.734 58.365-150.234 108.708-150.063 108.794z" fill="#d691c6" fill-rule="evenodd"/></g><g><path clip-rule="evenodd" d="m62.908 364.099c31.946-68.996 74.266-78.152 133.452-88.385 4.734-7.03 11.962-14.003 20.976-19.644-83.252 16.98-138.186 11.594-177.275 101.594 8.108 2.75 15.676 4.876 22.847 6.435z" fill="#d691c6" fill-rule="evenodd"/></g><g><path clip-rule="evenodd" d="m50.663 175.793c77.044-24.236 156.611 36.029 182.094 59.443 0-3.628.227-7.143.624-10.545-64.543-49.607-104.001-100.715-193.318-70.356 3.4 7.852 6.943 14.967 10.6 21.458z" fill="#d691c6" fill-rule="evenodd"/></g><path d="m416.29 279.07c-23.271-12.855-49.751-17.811-80.202-23.079 30.439-5.261 56.912-10.217 80.176-23.06 26.642-14.708 46.518-38.732 62.552-75.605.836-1.923.829-4.108-.019-6.025-.849-1.917-2.461-3.392-4.446-4.066-79.662-27.07-122.662 8.257-172.451 49.158-4.174 3.429-8.429 6.914-12.765 10.419 20.124-40.007 55.78-86.483 102.128-108.819 3.731-1.798 5.298-6.281 3.5-10.013-1.798-3.731-6.28-5.299-10.013-3.5-38.2 18.41-69.477 51.81-91.598 85.513 6.217-25.22 11.379-47.302 11.108-69.183-.051-4.11-3.399-7.407-7.498-7.407-.031 0-.063 0-.095 0-4.142.051-7.458 3.451-7.407 7.592.262 21.164-5.019 42.531-11.704 69.584-1.525 6.171-3.076 12.447-4.623 18.969-2.811-3.027-6.034-5.194-9.548-6.428v-72.154c0-4.142-3.358-7.5-7.5-7.5s-7.5 3.358-7.5 7.5v72.546c-3.377 1.439-6.496 3.814-9.277 6.965-1.831-7.496-3.675-14.671-5.485-21.7-15.419-59.889-24.174-93.917 22.177-149.541 13.798 17.738 23.041 34.026 28.166 49.6 1.294 3.935 5.535 6.074 9.469 4.779 3.935-1.295 6.074-5.534 4.779-9.469-6.383-19.395-18.301-39.487-36.436-61.423-1.396-1.689-3.462-2.683-5.654-2.72-2.198-.021-4.29.887-5.743 2.528-57.445 64.899-47.701 106.186-31.861 167.748-22.131-33.799-53.476-67.335-91.783-85.797-3.731-1.798-8.214-.231-10.013 3.5-1.798 3.731-.231 8.214 3.5 10.013 46.073 22.204 81.576 68.26 101.763 108.105-4.06-3.286-8.052-6.553-11.969-9.769-49.777-40.863-92.765-76.154-172.373-49.095-1.985.675-3.597 2.149-4.445 4.066s-.855 4.102-.021 6.024c16.02 36.869 35.887 60.891 62.524 75.6 23.266 12.847 49.743 17.803 80.19 23.067-30.452 5.269-56.933 10.224-80.205 23.082-26.63 14.712-46.493 38.736-62.509 75.605-.835 1.923-.828 4.107.021 6.024s2.46 3.391 4.445 4.065c20.832 7.08 38.514 10.179 54.197 10.179 41.327 0 68.732-21.533 103.031-48.485 2.037-1.6 4.106-3.225 6.204-4.867-20.495 38.859-55.145 82.576-99.675 104.037-3.731 1.798-5.298 6.281-3.5 10.013 1.292 2.682 3.971 4.246 6.762 4.246 1.092 0 2.201-.24 3.251-.746 53.158-25.619 92.922-80.231 113.226-124.307 1.46-.313 2.939-.703 4.425-1.132-2.146 8.963-4.329 17.445-6.465 25.73-6.152 23.871-11.465 44.486-12.546 64.687-.221 4.136 2.953 7.668 7.089 7.89.136.007.271.011.407.011 3.958 0 7.269-3.1 7.483-7.1 1.001-18.706 6.141-38.65 12.093-61.744 2.985-11.582 6.062-23.54 9.025-36.749.902-.511 1.802-1.034 2.697-1.584 1.058-.649 2.095-1.322 3.119-2.01v61.917c0 4.142 3.358 7.5 7.5 7.5s7.5-3.358 7.5-7.5v-62.192c1.151.781 2.317 1.548 3.516 2.283.764.469 1.532.912 2.301 1.353 2.985 13.357 6.088 25.429 9.098 37.118 15.428 59.921 24.18 93.931-22.383 149.685-16.172-19.394-26.078-36.742-30.965-54.112-1.122-3.987-5.262-6.309-9.251-5.188-3.987 1.122-6.31 5.264-5.188 9.251 6.063 21.551 18.705 42.688 39.784 66.519 1.423 1.609 3.468 2.531 5.616 2.531h.004c2.147 0 4.192-.921 5.616-2.529 58.13-65.677 47.455-107.138 31.296-169.897-2.152-8.359-4.352-16.919-6.515-25.972 1.387.409 2.764.761 4.129 1.07 20.28 44.105 60.076 98.82 113.3 124.471 1.05.506 2.159.746 3.251.746 2.79 0 5.469-1.564 6.762-4.246 1.798-3.731.231-8.214-3.5-10.013-44.647-21.517-79.364-65.407-99.838-104.342 2.232 1.745 4.428 3.47 6.59 5.169 34.304 26.956 61.703 48.488 103.047 48.488 15.684 0 33.378-3.1 54.212-10.178 1.985-.675 3.598-2.149 4.446-4.066.849-1.917.855-4.103.02-6.025-16.028-36.875-35.896-60.899-62.526-75.609zm-280.663 33.985c1.275 2.722 3.977 4.319 6.796 4.319 1.066 0 2.149-.229 3.178-.711l38.106-17.858c.444 1.748 1.085 3.436 1.955 5.041 1.371 2.523 3.232 4.682 5.49 6.469-1.87 1.465-3.723 2.919-5.544 4.35-44.982 35.348-72.835 57.24-135.238 38.433 31.123-65.603 71.815-72.624 132.294-83.055 3.372-.582 6.783-1.171 10.233-1.776-3.402 4.354-5.993 8.836-7.67 13.261l-45.99 21.553c-3.752 1.758-5.367 6.223-3.61 9.974zm47.093-71.109c-60.501-10.426-101.211-17.446-132.339-83.023 66.537-19.624 101.886 9.399 150.123 48.998 8.103 6.652 16.457 13.507 25.298 20.386-.158 2.241-.245 4.53-.253 6.866l-47.685-26.48c-3.622-2.01-8.188-.705-10.198 2.916s-.705 8.187 2.916 10.198l46.792 25.984c-.215.121-.432.236-.646.359-11.917-2.392-23.141-4.331-34.008-6.204zm130.753 54.738c-.947 1.742-2.801 2.993-5.511 3.718-8.269 2.208-21.271-1.064-33.13-8.345-4.934-3.024-9.533-6.657-13.303-10.505-1.407-1.437-3.333-2.248-5.344-2.251-.004 0-.009 0-.013 0-2.007 0-3.93.804-5.339 2.233-3.903 3.957-8.385 7.497-13.324 10.526-11.859 7.281-24.871 10.555-33.153 8.341-2.712-.725-4.567-1.976-5.51-3.71-3.851-7.104 5.327-23.309 23.391-34.374 4.571-2.817 9.315-5.05 14.101-6.636 3.45-1.144 5.583-4.597 5.062-8.193-.57-3.935-.858-7.96-.858-11.965 0-23.575 9.257-38.62 15.63-38.62 1.428 0 3.615.334 6.115 3.229 8.13 9.41 10.542 34.324 8.631 47.341-.529 3.602 1.605 7.062 5.06 8.208 4.827 1.601 9.581 3.833 14.129 6.636.004.003.009.006.013.008 18.047 11.069 27.216 27.266 23.353 34.359zm-17.982-48.583c-.275-.157-.549-.318-.825-.472l46.498-25.821c3.621-2.011 4.927-6.577 2.916-10.198-2.011-3.622-6.577-4.927-10.198-2.916l-47.424 26.335c-.048-2.131-.154-4.359-.33-6.649 8.839-6.883 17.189-13.741 25.294-20.399 48.25-39.636 83.613-68.685 150.195-49.058-31.156 65.587-71.869 72.604-132.375 83.027-10.79 1.859-21.931 3.783-33.751 6.151zm30.868 66.561c-1.764-1.386-3.552-2.791-5.361-4.208 2.335-1.811 4.248-4.019 5.652-6.602.882-1.62 1.529-3.325 1.976-5.09l38.199 17.902c1.029.482 2.112.711 3.178.711 2.819 0 5.521-1.598 6.796-4.319 1.758-3.75.143-8.216-3.608-9.974l-46.108-21.608c-1.667-4.382-4.23-8.819-7.59-13.134 3.308.579 6.578 1.144 9.815 1.702 60.482 10.429 101.175 17.449 132.321 83.057-62.421 18.8-90.286-3.088-135.27-38.437z"/></g></svg>