<svg id="aniseed" enable-background="new 0 0 300 300" height="512" viewBox="0 0 300 300" width="512" xmlns="http://www.w3.org/2000/svg"><g><circle cx="132" cy="130" fill="#fff0fd" r="92"/><g fill="#4c241d"><path d="m252 118c-6.617 0-12-5.383-12-12s5.383-12 12-12 12 5.383 12 12-5.383 12-12 12zm0-16c-2.205 0-4 1.795-4 4s1.795 4 4 4 4-1.795 4-4-1.795-4-4-4z"/><path d="m52 222c-1.023 0-2.047-.391-2.828-1.172l-12-12c-1.562-1.562-1.562-4.094 0-5.656s4.094-1.562 5.656 0l12 12c1.562 1.562 1.562 4.094 0 5.656-.781.781-1.805 1.172-2.828 1.172z"/><path d="m40 222c-1.023 0-2.047-.391-2.828-1.172-1.562-1.562-1.562-4.094 0-5.656l12-12c1.562-1.562 4.094-1.562 5.656 0s1.562 4.094 0 5.656l-12 12c-.781.781-1.805 1.172-2.828 1.172z"/><circle cx="84.397" cy="248.093" r="4.276"/><circle cx="184.397" cy="68.093" r="4.276"/></g><g><path d="m160 106c0-26.51-16-56-16-56s-16 29.49-16 56 16 48 16 48 16-21.49 16-48z" fill="#e66353"/><path d="m144 158c-1.264 0-2.453-.598-3.209-1.611-.686-.92-16.791-22.869-16.791-50.389 0-27.213 15.811-56.666 16.484-57.908 1.398-2.578 5.633-2.578 7.031 0 .674 1.242 16.485 30.695 16.485 57.908 0 27.52-16.105 49.469-16.791 50.389-.756 1.013-1.945 1.611-3.209 1.611zm0-98.824c-4.578 10.164-12 29.34-12 46.824 0 17.609 7.531 33.023 11.994 40.611 4.463-7.607 12.006-23.058 12.006-40.611 0-17.484-7.422-36.66-12-46.824z" fill="#4c241d"/></g><g><path d="m160 202c0 26.51-16 56-16 56s-16-29.49-16-56 16-48 16-48 16 21.49 16 48z" fill="#e66353"/><path d="m144 262c-1.467 0-2.816-.803-3.516-2.092-.673-1.242-16.484-30.695-16.484-57.908 0-27.52 16.105-49.469 16.791-50.389 1.512-2.027 4.906-2.027 6.418 0 .686.92 16.791 22.869 16.791 50.389 0 27.213-15.811 56.666-16.484 57.908-.7 1.289-2.049 2.092-3.516 2.092zm.006-100.611c-4.463 7.607-12.006 23.058-12.006 40.611 0 17.484 7.422 36.66 12 46.824 4.578-10.164 12-29.34 12-46.824 0-17.609-7.531-33.023-11.994-40.611z" fill="#4c241d"/></g><g><path d="m192 170c26.51 0 56-16 56-16s-29.49-16-56-16-48 16-48 16 21.49 16 48 16z" fill="#e66353"/><path d="m192 174c-27.52 0-49.469-16.105-50.389-16.791-1.013-.756-1.611-1.945-1.611-3.209s.598-2.453 1.611-3.209c.92-.686 22.869-16.791 50.389-16.791 27.213 0 56.666 15.811 57.908 16.484 1.289.699 2.092 2.049 2.092 3.516s-.803 2.816-2.092 3.516c-1.242.673-30.695 16.484-57.908 16.484zm-40.611-20.006c7.607 4.463 23.058 12.006 40.611 12.006 17.484 0 36.66-7.422 46.824-12-10.164-4.578-29.34-12-46.824-12-17.609 0-33.023 7.531-40.611 11.994z" fill="#4c241d"/></g><g><path d="m96 170c-26.51 0-56-16-56-16s29.49-16 56-16 48 16 48 16-21.49 16-48 16z" fill="#e66353"/><path d="m96 174c-27.213 0-56.666-15.811-57.908-16.484-1.289-.7-2.092-2.049-2.092-3.516s.803-2.816 2.092-3.516c1.242-.673 30.695-16.484 57.908-16.484 27.52 0 49.469 16.105 50.389 16.791 1.014.756 1.611 1.945 1.611 3.209s-.598 2.453-1.611 3.209c-.92.686-22.869 16.791-50.389 16.791zm-46.824-20c10.164 4.578 29.34 12 46.824 12 17.609 0 33.023-7.531 40.611-11.994-7.607-4.463-23.058-12.006-40.611-12.006-17.484 0-36.66 7.422-46.824 12z" fill="#4c241d"/></g><g><path d="m189.255 131.373c18.745-18.745 28.284-50.912 28.284-50.912s-32.166 9.539-50.912 28.284-22.627 45.255-22.627 45.255 26.51-3.882 45.255-22.627z" fill="#e66353"/><path d="m144 158c-1.053 0-2.072-.416-2.828-1.172-.895-.893-1.312-2.156-1.129-3.408.166-1.135 4.299-28.045 23.756-47.502 19.242-19.242 51.25-28.891 52.604-29.291 1.398-.414 2.926-.033 3.965 1.006 1.037 1.037 1.424 2.559 1.006 3.965-.4 1.354-10.049 33.361-29.291 52.604-19.457 19.457-46.367 23.59-47.502 23.756-.194.028-.388.042-.581.042zm67.055-71.053c-10.422 3.949-29.232 12.262-41.6 24.627-12.449 12.451-18.023 28.676-20.234 37.197 8.535-2.223 24.793-7.816 37.205-20.227 12.386-12.386 20.687-31.179 24.629-41.597z" fill="#4c241d"/></g><g><path d="m121.373 199.255c-18.746 18.745-50.912 28.284-50.912 28.284s9.539-32.166 28.284-50.912 45.255-22.627 45.255-22.627-3.882 26.51-22.627 45.255z" fill="#e66353"/><path d="m70.461 231.539c-1.045 0-2.066-.41-2.828-1.172-1.037-1.037-1.424-2.559-1.006-3.965.4-1.354 10.049-33.361 29.291-52.604 19.457-19.457 46.367-23.59 47.502-23.756 1.246-.191 2.514.234 3.408 1.129.895.893 1.312 2.156 1.129 3.408-.166 1.135-4.299 28.045-23.756 47.502-19.242 19.242-51.25 28.891-52.604 29.291-.372.112-.755.167-1.136.167zm68.318-72.31c-8.535 2.223-24.793 7.816-37.205 20.227-12.387 12.387-20.688 31.18-24.629 41.598 10.422-3.949 29.232-12.262 41.6-24.627 12.449-12.452 18.023-28.677 20.234-37.198z" fill="#4c241d"/></g><g><path d="m121.373 108.745c-18.746-18.745-50.912-28.284-50.912-28.284s9.539 32.166 28.284 50.912 45.255 22.627 45.255 22.627-3.882-26.51-22.627-45.255z" fill="#e66353"/><path d="m144 158c-.193 0-.387-.014-.58-.043-1.135-.166-28.045-4.299-47.502-23.756-19.242-19.242-28.891-51.25-29.291-52.604-.418-1.406-.031-2.928 1.006-3.965 1.037-1.039 2.561-1.42 3.965-1.006 1.354.4 33.361 10.049 52.604 29.291 19.457 19.457 23.59 46.367 23.756 47.502.184 1.252-.234 2.516-1.129 3.408-.757.757-1.776 1.173-2.829 1.173zm-67.053-71.055c3.949 10.422 12.262 29.232 24.627 41.6 12.451 12.449 28.676 18.023 37.197 20.234-2.223-8.535-7.816-24.793-20.227-37.205-12.386-12.386-31.179-20.687-41.597-24.629z" fill="#4c241d"/></g><g><path d="m189.255 176.627c18.745 18.745 28.284 50.912 28.284 50.912s-32.167-9.539-50.912-28.284-22.627-45.255-22.627-45.255 26.51 3.882 45.255 22.627z" fill="#e66353"/><path d="m217.539 231.539c-.381 0-.762-.055-1.137-.166-1.354-.4-33.361-10.049-52.604-29.291-19.457-19.457-23.59-46.367-23.756-47.502-.184-1.252.234-2.516 1.129-3.408.893-.895 2.16-1.32 3.408-1.129 1.135.166 28.045 4.299 47.502 23.756 19.242 19.242 28.891 51.25 29.291 52.604.418 1.406.031 2.928-1.006 3.965-.759.761-1.782 1.171-2.827 1.171zm-68.31-72.318c2.223 8.535 7.816 24.793 20.227 37.205 12.387 12.387 31.18 20.688 41.598 24.629-3.949-10.422-12.262-29.232-24.627-41.6-12.452-12.449-28.677-18.023-37.198-20.234z" fill="#4c241d"/></g><g><circle cx="144" cy="154" fill="#e66353" r="12"/><path d="m144 170c-8.822 0-16-7.178-16-16s7.178-16 16-16 16 7.178 16 16-7.178 16-16 16zm0-24c-4.412 0-8 3.588-8 8s3.588 8 8 8 8-3.588 8-8-3.588-8-8-8z" fill="#4c241d"/></g></g></svg>