<svg id="bag-spices" enable-background="new 0 0 300 300" height="512" viewBox="0 0 300 300" width="512" xmlns="http://www.w3.org/2000/svg"><g><path d="m199.94 56c-6.617 0-12-5.383-12-12s5.383-12 12-12 12 5.383 12 12-5.383 12-12 12zm0-16c-2.207 0-4 1.795-4 4s1.793 4 4 4 4-1.795 4-4-1.793-4-4-4z" fill="#4c241d"/><circle cx="48.337" cy="102.093" fill="#4c241d" r="4.276"/><circle cx="163.94" cy="144" fill="#fff0fd" r="92"/><g><path d="m183.94 89.166-32.259-31.84c-10.712-10.573-27.932-10.573-38.643 0l-32.259 31.84" fill="#ffce56"/><path d="m183.94 93.166c-1.016 0-2.031-.385-2.809-1.152l-32.258-31.84c-9.109-8.988-23.918-8.988-33.027 0l-32.258 31.84c-1.566 1.547-4.098 1.535-5.656-.037-1.551-1.572-1.535-4.105.039-5.658l32.258-31.84c12.195-12.043 32.059-12.043 44.262 0l32.258 31.84c1.574 1.553 1.59 4.086.039 5.658-.786.793-1.817 1.189-2.848 1.189z" fill="#4c241d"/></g><g fill="#4c241d"><circle cx="151.94" cy="76" r="4"/><circle cx="131.94" cy="76" r="4"/><circle cx="139.94" cy="64" r="4"/><circle cx="123.94" cy="64" r="4"/><circle cx="111.94" cy="76" r="4"/></g><g><path d="m84.42 100.585c-19.701 18.799-32.48 52.103-32.48 81.787 0 22.152 8.202 35.792 20 49.628l-18.744 16c12.632 9.321 38.69 16 78.744 16s66.112-6.679 78.744-16l-18.744-16c11.798-13.836 20-27.476 20-49.628 0-29.684-12.779-62.988-32.48-81.787l16.48-12.585h-128z" fill="#f4aeab"/><path d="m131.94 268c-37.645 0-66.453-5.959-81.121-16.781-.98-.725-1.578-1.857-1.621-3.076-.043-1.221.473-2.393 1.398-3.186l15.742-13.436c-11.145-13.736-18.398-27.799-18.398-49.15 0-29.674 12.098-61.689 30.441-81.363l-12.871-9.828c-1.359-1.041-1.91-2.836-1.359-4.461s2.074-2.719 3.789-2.719h128c1.715 0 3.238 1.094 3.789 2.719s0 3.42-1.359 4.461l-12.871 9.828c18.344 19.674 30.441 51.689 30.441 81.363 0 21.352-7.254 35.414-18.398 49.15l15.742 13.436c.926.793 1.441 1.965 1.398 3.186-.043 1.219-.641 2.352-1.621 3.076-14.668 10.822-43.477 16.781-81.121 16.781zm-72.043-20.463c14.379 7.963 40.129 12.463 72.043 12.463s57.664-4.5 72.043-12.463l-14.641-12.494c-1.68-1.434-1.879-3.957-.445-5.639 11.758-13.789 19.043-26.467 19.043-47.033 0-29.357-12.555-61.062-31.242-78.891-.848-.809-1.297-1.945-1.23-3.113.062-1.168.633-2.25 1.562-2.961l7.082-5.406h-104.344l7.082 5.406c.93.711 1.5 1.793 1.562 2.961.066 1.168-.383 2.305-1.23 3.113-18.688 17.828-31.242 49.533-31.242 78.891 0 20.566 7.285 33.244 19.043 47.033 1.434 1.682 1.234 4.205-.445 5.639z" fill="#4c241d"/></g><g><path d="m91.94 192c-1.637 0-3.168-1.008-3.758-2.633-.68-1.869-16.367-46.264 8.328-87.426.684-1.141 1.895-1.867 3.223-1.936 1.375-.084 2.609.529 3.406 1.594.523.697 12.801 17.537 12.801 58.4 0 2.209-1.789 4-4 4s-4-1.791-4-4c0-24.676-4.719-39.904-8.035-47.557-17.609 36.043-4.348 73.795-4.203 74.193.75 2.076-.324 4.369-2.398 5.121-.454.166-.915.244-1.364.244z" fill="#4c241d"/></g><path d="m83.94 96h96v8h-96z" fill="#4c241d"/><path d="m191.94 236h-16c-2.211 0-4-1.791-4-4s1.789-4 4-4h16c2.211 0 4 1.791 4 4s-1.789 4-4 4z" fill="#4c241d"/><path d="m239.94 116c-1.023 0-2.047-.391-2.828-1.172l-12-12c-1.562-1.562-1.562-4.094 0-5.656s4.094-1.562 5.656 0l12 12c1.562 1.562 1.562 4.094 0 5.656-.781.781-1.805 1.172-2.828 1.172z" fill="#4c241d"/><path d="m227.94 116c-1.023 0-2.047-.391-2.828-1.172-1.562-1.562-1.562-4.094 0-5.656l12-12c1.562-1.562 4.094-1.562 5.656 0s1.562 4.094 0 5.656l-12 12c-.781.781-1.805 1.172-2.828 1.172z" fill="#4c241d"/><circle cx="244.337" cy="70.093" fill="#4c241d" r="4.276"/></g></svg>