<svg id="Capa_1" enable-background="new 0 0 512 512" height="512" viewBox="0 0 512 512" width="512" xmlns="http://www.w3.org/2000/svg"><g><g><path clip-rule="evenodd" d="m334.506 344.779c-59.11-87.991-143.7-201.221-96.231-313.729 3.941-4.422 9.686-6.648 15.432-6.618 10.318-.06 20.606 7.099 20.576 21.479v11.913c0 91.481 132.66 83.328 155.552 210.817-13.627 15.402-28.848 54.78-43.648 63.775-11.853 7.219-39.919 6.587-51.681 12.363z" fill="#fed1a3" fill-rule="evenodd"/></g><g><path clip-rule="evenodd" d="m218.271 128.336c-30.082 31.797-87.959 80.771-87.959 160.64 0 77.943-4.903 124.571 35.075 139.943h-34.504-17.447c-78.001-9.987-113.136-81.553-104.683-149.599 17.236-138.68 157.206-127.55 157.206-221.497v-11.913c-.06-14.379 10.228-21.539 20.546-21.479 5.746-.03 11.491 2.196 15.432 6.618-1.504 3.008 4.873 6.678 4.873 10.95 0 38.326 31.976 64.648 11.461 86.337z" fill="#fed1a3" fill-rule="evenodd"/></g><g><path clip-rule="evenodd" d="m488.042 200.293c.752 175.32-69.218 281.361-265.65 264.484-14.981-9.747-27.104-21.84-35.015-35.858-.12-.18-.211-.391-.331-.572-6.347-11.461-9.867-24.186-9.867-37.904 0-11.311-.18-12.304 12.243-14.56 1.835-.331 3.79-.662 5.806-1.053 14.379-2.587 33.481-6.167 55.561-11.822 29.39-7.551 64.104-18.801 99.961-36.4 11.732-5.776 23.584-12.213 35.436-19.403 14.8-9.025 30.021-23.163 43.648-38.566 19.673-22.201 36.038-47.019 43.107-62.752 4.332-9.685 9.897-9.354 15.101-5.594z" fill="#ffe5c1" fill-rule="evenodd"/></g><g><path clip-rule="evenodd" d="m350.75 326.609c-35.857 17.598-70.571 28.849-99.961 36.4-22.08 5.656-41.182 9.235-55.561 11.822l-5.806 1.053c-12.424 2.256-12.243 3.249-12.243 14.56 0 13.718 3.52 26.442 9.867 37.904.12.181.211.391.331.572h-1.775-20.215c-39.978-15.372-79.235-62-79.235-139.943 0-79.869 57.907-128.843 87.959-160.64 21.599-22.802 25.449-51.351 25.449-71.957v-14.38c-.03-4.272.872-7.942 2.376-10.95 3.64-7.19 10.92-10.77 18.169-10.739 7.28-.03 14.529 3.55 18.169 10.739 1.534 3.008 2.407 6.678 2.407 10.95v14.379c0 20.606 3.82 49.155 25.419 71.957 30.082 31.797 87.958 80.771 87.958 160.64.001 13.477-1.172 26.021-3.308 37.633z" fill="#fed1a3" fill-rule="evenodd"/></g><g><path clip-rule="evenodd" d="m261.438 166.09c30.593 34.565 68.436 70.423 66.691 160.911-.06 3.399-.06 6.769-.211 10.048 7.52-3.189 15.161-6.678 22.832-10.439 2.136-11.612 3.309-24.156 3.309-37.633 0-79.869-57.877-128.843-87.958-160.64-21.599-22.802-25.419-51.351-25.419-71.957v-14.38c0-4.272-.872-7.942-2.407-10.95-3.64-7.19-10.89-10.77-18.169-10.739-.993 0-2.015.06-3.008.211 1.354 2.888 2.106 6.317 2.106 10.288v14.379c-.001 58.51 1.353 74.694 42.234 120.901z" fill="#ffbc85" fill-rule="evenodd"/></g><g><path clip-rule="evenodd" d="m165.387 428.919c-39.978-15.372-79.235-62-79.235-139.943 0-79.869 57.907-128.843 87.959-160.64 21.599-22.802 25.449-51.351 25.449-71.957v-14.379c-.03-4.272.872-7.942 2.376-10.95-3.941-4.422-9.686-6.648-15.432-6.618-4.091 6.077-2.106 12.334-2.106 21.659v14.349c0 20.637-12.755 43.589-34.323 66.392-30.082 31.797-87.989 88.563-87.989 168.431 0 69.28 31.014 113.802 65.999 133.656h2.798z" fill="#ffbc85" fill-rule="evenodd"/></g><g><path clip-rule="evenodd" d="m222.392 464.778c186.716 6.648 255.964-100.144 265.65-264.484 10.228 5.234 15.191 37.844 16.304 75.747 4.211 144.787-80.137 206.516-164.245 214.698-13.266 1.294-26.502 1.263-39.377 0-19.012-1.835-37.271-6.317-53.635-13.086-8.844-3.64-17.116-7.972-24.697-12.875z" fill="#fed1a3" fill-rule="evenodd"/></g><path d="m511.844 275.82c-2.068-70.424-14.965-79.349-19.901-81.953-5.809-3.999-10.693-3.874-13.802-3.041-5.036 1.352-9.088 5.389-12.038 11.986-5.867 13.047-17.718 31.535-32.216 49.491-15.749-59.457-55.79-87.49-91.435-112.439-33.896-23.725-60.669-42.464-60.669-82.041v-11.897c.018-8.434-2.795-15.702-8.132-21.019-5.094-5.073-12.308-7.975-19.736-7.975-.106 0-.216 0-.324 0-4.983 0-9.772 1.255-13.926 3.562-5.099-4.907-12.211-7.727-19.535-7.683-7.347 0-14.478 2.777-19.575 7.682-4.147-2.307-8.916-3.561-13.849-3.561-.109 0-.218 0-.325 0-7.518 0-14.737 2.906-19.826 7.988-5.33 5.322-8.129 12.591-8.093 20.991v11.913c0 30.49-16.181 49.031-40.476 67.49-3.298 2.506-3.94 7.211-1.434 10.508 1.476 1.942 3.713 2.963 5.977 2.963 1.581 0 3.175-.498 4.531-1.529 24.099-18.31 46.401-40.606 46.401-79.433v-11.944c-.019-4.4 1.224-7.881 3.691-10.345 2.296-2.292 5.655-3.603 9.307-3.603h.166c2.334 0 4.549.558 6.455 1.574-.682 2.666-1.03 5.507-1.018 8.494v14.38c0 28.33-7.652 50.18-23.4 66.806-3.269 3.459-6.91 7.162-10.763 11.081-31.556 32.095-79.244 80.597-79.244 154.709 0 37.186 8.919 70.886 25.795 97.457 8.834 13.911 19.855 25.795 32.211 34.987h-22.736c-74.459-9.801-105.529-78.37-97.727-141.176 8.034-64.677 43.687-95.038 79.517-120.593 3.372-2.405 4.155-7.089 1.751-10.46s-7.088-4.158-10.461-1.751c-36.854 26.286-76.908 60.251-85.69 130.956-4.57 36.782 2.896 72.83 21.024 101.504 20.213 31.973 51.385 51.496 90.149 56.459.315.041 70.775.061 70.775.061 12.599 20.009 33.528 36.842 60.966 48.165 23.251 9.605 49.663 14.606 76.257 14.606 7.967 0 15.953-.449 23.873-1.357 37.849-4.341 72.249-18.749 99.483-41.665 3.169-2.667 3.576-7.398.909-10.567s-7.399-3.576-10.567-.91c-54.822 46.131-129.184 47.149-180.302 27.587 33.491-1.238 63.645-6.536 89.932-15.84 33.112-11.72 61.158-30.143 83.361-54.758 35.953-39.858 57.585-95.835 65.799-170.493 1.791 10.501 3.293 25.089 3.879 45.072 1.685 57.903-10.849 105.431-37.256 141.262-2.458 3.334-1.747 8.029 1.588 10.487 3.333 2.458 8.03 1.746 10.486-1.588 28.441-38.595 41.958-89.263 40.173-150.6zm-258.173-243.889h.08c3.623-.049 6.995 1.292 9.313 3.601 2.477 2.468 3.728 5.954 3.72 10.378v11.913c0 47.386 32.578 70.188 67.067 94.329 35.468 24.825 75.58 52.904 87.923 114.273-.342.377-.668.756-1.004 1.133-12.319 13.413-25.675 25.448-38.482 33.241-7.341 4.466-14.697 8.63-22.032 12.52.864-7.92 1.304-16.061 1.304-24.343 0-74.162-47.722-122.674-79.301-154.776-3.834-3.896-7.454-7.577-10.712-11.021-15.722-16.598-23.365-38.449-23.365-66.799v-14.365c.006-2.988-.346-5.827-1.028-8.49-.003-.011-.002-.023-.005-.035 1.909-1.011 4.143-1.559 6.522-1.559zm-79.044 386.855c.241.838.521 1.703.886 2.634h-8.705c-35.608-14.333-73.157-56.431-73.157-132.444 0-67.974 43.314-112.027 74.941-144.194 3.907-3.974 7.597-7.727 10.963-11.289 18.25-19.268 27.504-45.213 27.504-77.114v-14.411c-.019-4.483 1.24-8.025 3.742-10.531 2.305-2.307 5.67-3.628 9.284-3.628h.085c3.567 0 6.934 1.32 9.242 3.626 2.511 2.508 3.779 6.057 3.769 10.563v14.38c0 31.922 9.244 57.867 27.471 77.111 3.356 3.548 7.026 7.278 10.913 11.228 31.649 32.173 74.994 76.236 74.994 144.257 0 11.221-.853 22.144-2.538 32.531-63.031 30.224-122.351 40.936-153.574 46.571 0 0-10.813.551-17.563 6.88-3.713 3.482-3.208 8.589-3.206 15.009v.478c.002 9.779 1.701 19.281 4.949 28.343zm241.408-27.153c-42.304 46.899-104.886 68.392-191.224 65.708-25.525-17.264-40.132-41.064-40.132-66.897 0-1.95-.064-3.923.112-5.868 1.622-.523 8.322-1.738 8.322-1.738 38.39-6.929 118.275-21.348 196.971-69.226 37.796-22.999 77.028-76.476 89.704-104.662.066-.147.128-.273.192-.409-5.977 82.096-26.927 142.052-63.945 183.092z"/></g></svg>