<svg id="chestnut" enable-background="new 0 0 300 300" height="512" viewBox="0 0 300 300" width="512" xmlns="http://www.w3.org/2000/svg"><g><path d="m100.203 58.219c-1.023 0-2.047-.391-2.828-1.172l-12-12c-1.562-1.562-1.562-4.094 0-5.656s4.094-1.562 5.656 0l12 12c1.562 1.562 1.562 4.094 0 5.656-.781.781-1.804 1.172-2.828 1.172z" fill="#4c241d"/><path d="m88.203 58.219c-1.023 0-2.047-.391-2.828-1.172-1.562-1.562-1.562-4.094 0-5.656l12-12c1.562-1.562 4.094-1.562 5.656 0s1.562 4.094 0 5.656l-12 12c-.781.781-1.804 1.172-2.828 1.172z" fill="#4c241d"/><circle cx="180" cy="124" fill="#fff0fd" r="86"/><g fill="#4c241d"><circle cx="186" cy="54" r="4"/><circle cx="38" cy="94" r="4"/><path d="m240 262c-7.719 0-14-6.281-14-14s6.281-14 14-14 14 6.281 14 14-6.281 14-14 14zm0-20c-3.309 0-6 2.691-6 6s2.691 6 6 6 6-2.691 6-6-2.691-6-6-6z"/></g><g><path d="m142 58-12.785 48h25.57z" fill="#a9ba5a"/><path d="m154.785 110h-25.57c-1.242 0-2.414-.578-3.172-1.562s-1.012-2.266-.695-3.467l12.785-48c.469-1.752 2.055-2.971 3.867-2.971s3.398 1.219 3.867 2.971l12.785 48c.316 1.201.062 2.482-.695 3.467s-1.93 1.562-3.172 1.562zm-20.367-8h15.164l-7.582-28.459z" fill="#4c241d"/></g><g><path d="m142 254 12.785-48h-25.57z" fill="#a9ba5a"/><path d="m142 258c-1.812 0-3.398-1.219-3.867-2.971l-12.785-48c-.316-1.201-.062-2.482.695-3.467s1.93-1.562 3.172-1.562h25.57c1.242 0 2.414.578 3.172 1.562s1.012 2.266.695 3.467l-12.785 48c-.469 1.752-2.055 2.971-3.867 2.971zm-7.582-48 7.582 28.459 7.582-28.459z" fill="#4c241d"/></g><g><path d="m65.39 91.39 24.901 42.981 18.08-18.08z" fill="#a9ba5a"/><path d="m90.289 138.371c-.172 0-.348-.012-.52-.033-1.23-.162-2.32-.887-2.941-1.961l-24.898-42.981c-.91-1.568-.648-3.553.633-4.834 1.281-1.283 3.266-1.541 4.832-.633l42.98 24.9c1.078.623 1.801 1.709 1.961 2.941.164 1.232-.258 2.469-1.137 3.348l-18.082 18.08c-.754.757-1.773 1.173-2.828 1.173zm-13.91-35.992 14.762 25.484 10.723-10.721z" fill="#4c241d"/></g><g><path d="m218.61 220.61-24.901-42.981-18.08 18.08z" fill="#a9ba5a"/><path d="m218.609 224.609c-.688 0-1.379-.176-2.004-.539l-42.98-24.9c-1.078-.623-1.801-1.709-1.961-2.941-.164-1.232.258-2.469 1.137-3.348l18.082-18.08c.879-.879 2.129-1.291 3.348-1.139 1.23.162 2.32.887 2.941 1.961l24.898 42.98c.91 1.568.648 3.553-.633 4.834-.769.772-1.792 1.172-2.828 1.172zm-36.472-29.752 25.484 14.764-14.762-25.484z" fill="#4c241d"/></g><g><path d="m65.39 220.61 42.981-24.901-18.08-18.08z" fill="#a9ba5a"/><path d="m65.391 224.609c-1.035 0-2.059-.4-2.828-1.172-1.281-1.281-1.543-3.266-.633-4.834l24.898-42.98c.621-1.074 1.711-1.799 2.941-1.961 1.215-.152 2.469.258 3.348 1.139l18.082 18.08c.879.879 1.301 2.115 1.137 3.348-.16 1.232-.883 2.318-1.961 2.941l-42.98 24.9c-.625.364-1.317.539-2.004.539zm25.75-40.472-14.762 25.484 25.484-14.764z" fill="#4c241d"/></g><g><circle cx="142" cy="156" fill="#a9ba5a" r="70"/><path d="m142 230c-40.805 0-74-33.195-74-74s33.195-74 74-74 74 33.195 74 74-33.195 74-74 74zm0-140c-36.391 0-66 29.607-66 66s29.609 66 66 66 66-29.607 66-66-29.609-66-66-66z" fill="#4c241d"/></g><g><path d="m194 162.121 38-6.121-38-6.121" fill="#a9ba5a"/><path d="m193.996 166.121c-1.93 0-3.629-1.398-3.945-3.363-.352-2.182 1.133-4.234 3.312-4.586l13.485-2.172-13.484-2.172c-2.18-.352-3.664-2.404-3.312-4.586.352-2.18 2.41-3.676 4.586-3.312l38 6.121c1.938.312 3.363 1.986 3.363 3.949s-1.426 3.637-3.363 3.949l-38 6.121c-.216.035-.431.051-.642.051z" fill="#4c241d"/></g><g><path d="m156.363 204.969 28.49 25.88-18.922-33.517" fill="#a9ba5a"/><path d="m184.852 234.85c-.965 0-1.93-.348-2.691-1.039l-28.488-25.881c-1.633-1.486-1.754-4.016-.27-5.65 1.488-1.635 4.016-1.75 5.652-.271l10.105 9.182-6.715-11.891c-1.086-1.924-.406-4.363 1.52-5.449 1.926-1.088 4.359-.408 5.449 1.516l18.922 33.518c.965 1.711.547 3.867-.988 5.094-.735.582-1.614.871-2.496.871z" fill="#4c241d"/></g><g><path d="m86 162-32-6 38-6.121" fill="#a9ba5a"/><path d="m86.004 166c-.242 0-.492-.021-.742-.068l-32-6c-1.91-.359-3.285-2.039-3.262-3.982.023-1.945 1.445-3.59 3.363-3.898l38-6.121c2.172-.363 4.234 1.133 4.586 3.312.352 2.182-1.133 4.234-3.312 4.586l-15.34 2.471 9.441 1.77c2.172.408 3.602 2.498 3.191 4.668-.359 1.922-2.038 3.262-3.925 3.262z" fill="#4c241d"/></g><g><path d="m119.882 130.738-10.586-21.705 20.23 14.164" fill="#a9ba5a"/><path d="m119.887 134.738c-1.484 0-2.906-.826-3.598-2.246l-10.586-21.705c-.801-1.639-.391-3.611.996-4.795 1.387-1.188 3.395-1.281 4.891-.236l20.23 14.164c1.812 1.268 2.25 3.762.984 5.572-1.27 1.809-3.766 2.248-5.57.982l-7.562-5.295 3.805 7.805c.969 1.986.145 4.381-1.84 5.35-.567.275-1.164.404-1.75.404z" fill="#4c241d"/></g><g><path d="m126 206-23.127 18.076 15.075-35.415" fill="#a9ba5a"/><path d="m102.871 228.076c-.859 0-1.719-.275-2.438-.828-1.445-1.111-1.957-3.061-1.242-4.738l15.078-35.414c.867-2.033 3.211-2.982 5.246-2.113 2.031.865 2.98 3.215 2.113 5.246l-9.004 21.146 10.91-8.527c1.75-1.365 4.258-1.049 5.617.689 1.359 1.74 1.051 4.254-.688 5.615l-23.129 18.076c-.725.565-1.592.848-2.463.848z" fill="#4c241d"/></g><g><path d="m191.669 128.331 26.941-40.941-40.941 26.941" fill="#a9ba5a"/><path d="m191.664 132.33c-.754 0-1.516-.213-2.195-.658-1.844-1.215-2.355-3.695-1.141-5.541l16.277-24.738-24.738 16.279c-1.852 1.217-4.328.705-5.539-1.143-1.215-1.846-.703-4.326 1.141-5.541l40.941-26.939c1.586-1.037 3.684-.832 5.027.514 1.344 1.342 1.555 3.441.512 5.027l-26.941 40.939c-.766 1.168-2.043 1.801-3.344 1.801z" fill="#4c241d"/></g><path d="m252.203 122.219c-1.023 0-2.047-.391-2.828-1.172l-12-12c-1.562-1.562-1.562-4.094 0-5.656s4.094-1.562 5.656 0l12 12c1.562 1.562 1.562 4.094 0 5.656-.781.781-1.804 1.172-2.828 1.172z" fill="#4c241d"/><path d="m240.203 122.219c-1.023 0-2.047-.391-2.828-1.172-1.562-1.562-1.562-4.094 0-5.656l12-12c1.562-1.562 4.094-1.562 5.656 0s1.562 4.094 0 5.656l-12 12c-.781.781-1.804 1.172-2.828 1.172z" fill="#4c241d"/><g><path d="m114 158s16-40 64-20c0 0 12 72-64 20" fill="#bf7e68"/><path d="m157.727 180.918c-11.617 0-26.82-6.504-45.984-19.617-1.547-1.057-2.152-3.047-1.457-4.787.281-.697 7.047-17.195 24.715-24.617 12.805-5.381 27.789-4.564 44.539 2.412 1.27.529 2.18 1.676 2.406 3.033.203 1.213 4.762 29.799-11.312 40.057-3.677 2.343-7.97 3.519-12.907 3.519zm-38.575-24.272c27.945 18.502 41.062 17.898 47.164 14.016 8.766-5.58 8.918-21.773 8.031-29.818-13.777-5.322-25.93-5.869-36.152-1.611-10.539 4.39-16.519 12.955-19.043 17.413z" fill="#4c241d"/></g><g><path d="m150 154s12 8 24-16" fill="#bf7e68"/><path d="m154.988 159.283c-4.125 0-6.836-1.707-7.207-1.955-1.84-1.225-2.336-3.709-1.109-5.547 1.211-1.814 3.652-2.324 5.48-1.152.172.1 2.129 1.164 5.023.326 3.137-.916 7.984-4.219 13.246-14.744.992-1.977 3.391-2.775 5.367-1.789 1.977.988 2.777 3.391 1.789 5.367-5.367 10.734-11.609 17.111-18.559 18.957-1.452.385-2.803.537-4.03.537z" fill="#4c241d"/></g></g></svg>