<svg id="chia" enable-background="new 0 0 300 300" height="512" viewBox="0 0 300 300" width="512" xmlns="http://www.w3.org/2000/svg"><g><circle cx="254" cy="165.853" fill="#4c241d" r="4.276"/><path d="m69.603 251.76c-1.023 0-2.047-.391-2.828-1.172l-12-12c-1.562-1.562-1.562-4.094 0-5.656s4.094-1.562 5.656 0l12 12c1.562 1.562 1.562 4.094 0 5.656-.781.781-1.804 1.172-2.828 1.172z" fill="#4c241d"/><path d="m57.603 251.76c-1.023 0-2.047-.391-2.828-1.172-1.562-1.562-1.562-4.094 0-5.656l12-12c1.562-1.562 4.094-1.562 5.656 0s1.562 4.094 0 5.656l-12 12c-.781.781-1.804 1.172-2.828 1.172z" fill="#4c241d"/><circle cx="140.603" cy="151.76" fill="#fff0fd" r="92"/><g><path d="m117.603 115.76c0-13.255-7.163-28-16-28s-16 14.745-16 28 7.163 20 16 20 16-6.745 16-20z" fill="#ccc"/><path d="m101.603 139.76c-9.957 0-20-7.422-20-24 0-15.135 8.215-32 20-32s20 16.865 20 32c0 16.578-10.043 24-20 24zm0-48c-5.289 0-12 11.301-12 24 0 9.869 4.598 16 12 16s12-6.131 12-16c0-12.699-6.711-24-12-24z" fill="#4c241d"/></g><g><path d="m195.911 180.634c8.029-10.546 11.261-26.618 4.23-31.97-7.031-5.353-21.662 2.041-29.691 12.587s-6.415 20.253.616 25.605 16.816 4.325 24.845-6.222z" fill="#ccc"/><path d="m180.146 193.986c-4.277 0-8.27-1.486-11.504-3.949-4.508-3.43-7.18-8.326-7.523-13.785-.359-5.646 1.77-11.672 6.148-17.426 4.363-5.73 10.473-10.645 16.758-13.479 7.441-3.352 14.02-3.309 18.539.135 9.379 7.137 5.699 25.529-3.469 37.574v.002c-5.945 7.805-12.746 10.928-18.949 10.928zm14.102-43.109c-1.945 0-4.336.594-6.934 1.766-5.035 2.27-10.152 6.393-13.68 11.029-3.199 4.201-4.766 8.377-4.535 12.078.199 3.15 1.719 5.891 4.387 7.922 5.891 4.484 13.266 2.389 19.242-5.459 7.691-10.107 9.199-23.164 4.992-26.365-.851-.651-2.043-.971-3.472-.971zm1.664 29.758h.039z" fill="#4c241d"/></g><g><path d="m161.966 211.739c-11.463-8.727-28.931-12.239-34.749-4.597s2.218 23.545 13.681 32.272 22.013 6.972 27.83-.67 4.701-18.279-6.762-27.005z" fill="#ccc"/><path d="m155.873 249.25c-5.672 0-11.656-2.285-17.395-6.656-12.961-9.863-22.078-27.844-14.445-37.875 7.633-10.025 27.398-6.023 40.355 3.836v.002c14.145 10.77 13.969 24.139 7.523 32.609-3.668 4.818-8.898 7.674-14.73 8.043-.433.027-.871.041-1.308.041zm-17.996-42.332c-3.387 0-6.102.842-7.477 2.646-3.941 5.178 2.699 18.885 12.922 26.664 4.629 3.527 9.25 5.271 13.355 4.996 3.531-.223 6.598-1.918 8.867-4.904 5.004-6.57 2.703-14.771-6-21.398-6.656-5.068-15.335-8.004-21.667-8.004z" fill="#4c241d"/></g><g><path d="m161.652 103.154c-8.799-6.677-22.196-9.35-26.647-3.484s1.728 18.049 10.527 24.727c8.799 6.677 16.885 5.32 21.337-.546 4.451-5.867 3.582-14.02-5.217-20.697z" fill="#b5a19c"/><path d="m156.998 132.854c-4.547 0-9.32-1.809-13.883-5.271-4.867-3.693-9.047-8.871-11.461-14.203-2.91-6.428-2.852-12.156.164-16.127s8.504-5.562 15.488-4.498c5.785.891 11.895 3.52 16.762 7.215 4.93 3.738 8.066 8.238 9.074 13.012.98 4.65-.113 9.369-3.086 13.287-2.977 3.918-7.227 6.244-11.969 6.551-.363.022-.726.034-1.089.034zm-13.711-32.42c-2.426 0-4.281.58-5.094 1.652-1.109 1.461-.82 4.523.75 7.992 1.855 4.098 5.223 8.26 9.008 11.131 3.375 2.562 6.73 3.816 9.621 3.627 2.426-.158 4.539-1.334 6.109-3.404 1.57-2.068 2.137-4.42 1.633-6.801-.605-2.863-2.707-5.73-6.082-8.289v-.002c-3.785-2.871-8.699-4.994-13.145-5.678-.992-.154-1.933-.228-2.8-.228z" fill="#4c241d"/></g><g><path d="m142.823 170.659c3.062-10.613.733-24.074-6.342-26.115s-16.217 8.11-19.279 18.722c-3.062 10.613 1.115 17.668 8.19 19.71 7.075 2.041 14.369-1.704 17.431-12.317z" fill="#eaeaea"/><path d="m129.013 187.494c-1.605 0-3.199-.232-4.73-.674-8.289-2.395-14.883-10.949-10.926-24.664 3.586-12.422 14.418-24.287 24.234-21.457 9.812 2.834 12.656 18.648 9.074 31.068-3.226 11.184-10.562 15.727-17.652 15.727zm5.528-39.221c-4.082 0-10.918 7.172-13.496 16.102-2.199 7.619-.16 13.137 5.457 14.758 5.629 1.635 10.277-1.961 12.477-9.584 2.762-9.566.309-20.031-3.605-21.162-.263-.076-.54-.114-.833-.114z" fill="#4c241d"/></g><g><path d="m198.823 82.659c3.062-10.613.733-24.074-6.342-26.115s-16.217 8.11-19.279 18.722c-3.062 10.613 1.115 17.668 8.19 19.71 7.075 2.041 14.369-1.704 17.431-12.317z" fill="#fff"/><path d="m185.013 99.494c-1.605 0-3.199-.232-4.73-.674-8.289-2.395-14.883-10.949-10.926-24.664 3.586-12.422 14.422-24.281 24.234-21.457 9.812 2.834 12.656 18.648 9.074 31.068-3.226 11.184-10.562 15.727-17.652 15.727zm5.528-39.22c-4.082 0-10.918 7.172-13.496 16.102-2.199 7.619-.16 13.137 5.457 14.758 5.633 1.635 10.277-1.961 12.477-9.584 2.762-9.566.309-20.031-3.605-21.162-.263-.077-.54-.114-.833-.114z" fill="#4c241d"/></g><g><path d="m81.442 149.108c-7.885 2.867-15.107 10.318-13.196 15.574 1.911 5.257 12.232 6.329 20.117 3.462s10.348-8.587 8.437-13.844c-1.911-5.256-7.473-8.059-15.358-5.192z" fill="#fff"/><path d="m79.423 173.699c-1.348 0-2.672-.094-3.949-.283-5.664-.844-9.566-3.461-10.984-7.369-1.422-3.902-.113-8.416 3.688-12.701 3.051-3.443 7.391-6.357 11.898-7.998 4.641-1.684 9.027-1.834 12.715-.426 3.637 1.389 6.395 4.236 7.766 8.014 1.375 3.773 1.09 7.727-.805 11.129-1.918 3.441-5.383 6.152-10.02 7.84-3.246 1.179-6.848 1.794-10.309 1.794zm7.95-21.74c-1.363 0-2.902.305-4.562.908-3.25 1.182-6.48 3.344-8.648 5.785-1.875 2.117-2.434 3.9-2.156 4.66.277.766 1.852 1.773 4.648 2.191 3.23.475 7.094.062 10.344-1.119 2.805-1.02 4.797-2.477 5.762-4.213.77-1.383.867-2.896.281-4.502-.586-1.609-1.629-2.711-3.109-3.277-.76-.288-1.619-.433-2.56-.433zm-5.93-2.852h.039z" fill="#4c241d"/></g><g><path d="m213.442 101.108c-7.885 2.867-15.107 10.318-13.196 15.574s12.232 6.329 20.117 3.462 10.348-8.587 8.437-13.844c-1.911-5.256-7.473-8.059-15.358-5.192z" fill="#b5a19c"/><path d="m211.423 125.699c-1.348 0-2.672-.094-3.949-.283-5.664-.844-9.566-3.461-10.984-7.369-1.422-3.902-.113-8.416 3.688-12.701 3.051-3.443 7.391-6.357 11.898-7.998 4.637-1.684 9.027-1.834 12.715-.426 3.637 1.389 6.395 4.236 7.766 8.014 1.375 3.773 1.09 7.727-.805 11.129-1.918 3.441-5.383 6.152-10.02 7.84-3.246 1.179-6.848 1.794-10.309 1.794zm7.95-21.74c-1.363 0-2.902.305-4.562.908-3.25 1.182-6.48 3.344-8.648 5.785-1.875 2.117-2.434 3.9-2.156 4.66.277.766 1.852 1.773 4.648 2.191 3.23.479 7.094.061 10.344-1.119 2.805-1.02 4.797-2.477 5.762-4.213.77-1.383.867-2.896.281-4.502-.586-1.609-1.629-2.711-3.109-3.277-.76-.288-1.619-.433-2.56-.433zm-5.93-2.852h.039z" fill="#4c241d"/></g><g><path d="m70.24 56.46c-6.986-4.646-17.269-6.038-20.366-1.381s2.164 13.601 9.15 18.247 13.052 3.234 16.149-1.423 2.053-10.797-4.933-15.443z" fill="#b5a19c"/><path d="m67.291 80.184c-3.398 0-6.988-1.203-10.48-3.527-3.997-2.657-7.524-6.512-9.677-10.577-2.684-5.061-2.895-9.756-.594-13.217 4.609-6.934 17.363-5.422 25.914.268 4.109 2.73 6.836 6.182 7.887 9.979 1.039 3.754.387 7.662-1.836 11.008-2.227 3.346-5.578 5.461-9.441 5.955-.586.074-1.176.111-1.773.111zm-10.383-23.955c-1.883 0-3.262.4-3.703 1.064-.449.676-.328 2.539.996 5.041 1.527 2.883 4.16 5.746 7.039 7.662 2.48 1.65 4.836 2.404 6.809 2.139 1.57-.199 2.848-1.023 3.793-2.447.949-1.424 1.215-2.918.793-4.441-.531-1.916-2.125-3.803-4.609-5.455-3.841-2.554-8.122-3.563-11.118-3.563z" fill="#4c241d"/></g><g><path d="m92.069 196.175c-5.454 6.375-8.076 16.415-3.826 20.051s13.763-.509 19.217-6.884 4.784-12.567.534-16.203-10.471-3.34-15.925 3.036z" fill="#fff"/><path d="m92.345 221.547c-2.527 0-4.852-.697-6.703-2.281-6.324-5.412-3.293-17.883 3.387-25.691 3.207-3.75 6.961-6.041 10.859-6.627 3.828-.598 7.652.541 10.707 3.152 3.051 2.613 4.746 6.195 4.77 10.09.027 3.939-1.656 8.004-4.867 11.754-4.723 5.521-12.036 9.603-18.153 9.603zm2.762-22.774c-4.879 5.707-5.836 13.068-4.262 14.414 1.559 1.34 8.691-.738 13.574-6.445 1.941-2.268 2.961-4.516 2.945-6.504-.008-1.582-.672-2.947-1.973-4.061-1.301-1.111-2.742-1.551-4.316-1.32-1.964.295-4.027 1.651-5.968 3.916z" fill="#4c241d"/></g><g><path d="m204.731 224.115c-1.731 8.209.78 18.277 6.253 19.432 5.473 1.154 11.835-7.043 13.566-15.252s-1.825-13.323-7.298-14.477c-5.472-1.154-10.79 2.088-12.521 10.297z" fill="#eaeaea"/><path d="m212.017 247.654c-.617 0-1.238-.062-1.855-.193-4.07-.857-7.207-4.354-8.84-9.846-1.309-4.41-1.492-9.631-.504-14.324 1.02-4.828 3.215-8.641 6.352-11.021 3.105-2.354 6.973-3.193 10.906-2.365 6.883 1.451 12.762 7.955 10.391 19.215-1.962 9.288-8.977 18.534-16.45 18.534zm3.106-30.064c-1.152 0-2.195.352-3.117 1.051-1.582 1.203-2.746 3.381-3.359 6.299-.715 3.383-.586 7.27.344 10.398.805 2.713 2.027 4.127 2.82 4.295 2.078.398 7.277-4.816 8.828-12.164 1.117-5.305-.457-8.945-4.211-9.736-.45-.096-.887-.143-1.305-.143z" fill="#4c241d"/></g><g><path d="m102.52 109.374s6.518-5.99 13.213-3.171" fill="#fff"/><path d="m102.529 113.361c-1.09 0-2.172-.439-2.961-1.307-1.477-1.629-1.375-4.139.246-5.627.34-.316 8.523-7.674 17.469-3.912 2.039.857 2.992 3.203 2.137 5.24-.859 2.041-3.223 2.988-5.238 2.135-4.223-1.773-8.922 2.402-8.969 2.443-.766.689-1.727 1.028-2.684 1.028z" fill="#4c241d"/></g><g><path d="m150.968 110.783s-4.757 4.404-4.404 12.685" fill="#fff"/><path d="m146.56 127.467c-2.129 0-3.902-1.682-3.992-3.83-.426-10.012 5.43-15.557 5.68-15.787 1.617-1.504 4.148-1.406 5.652.215 1.492 1.609 1.406 4.115-.18 5.621-.199.195-3.422 3.482-3.16 9.611.094 2.207-1.621 4.072-3.828 4.166-.055.002-.113.004-.172.004z" fill="#4c241d"/></g><g><path d="m132.822 161.874s2.466 2.995 10.394 2.466" fill="#fff"/><path d="m141.4 168.402c-7.953 0-11.086-3.281-11.668-3.988-1.402-1.705-1.156-4.227.547-5.631 1.648-1.348 4.039-1.176 5.469.361.227.178 2.18 1.531 7.203 1.205 2.195-.188 4.109 1.518 4.258 3.725.144 2.203-1.523 4.109-3.727 4.256-.727.049-1.422.072-2.082.072z" fill="#4c241d"/></g><g><path d="m182.679 151.832 4.052 8.456" fill="#fff"/><path d="m186.736 164.287c-1.492 0-2.926-.836-3.609-2.271l-4.051-8.455c-.957-1.992-.113-4.381 1.879-5.336 1.984-.961 4.383-.115 5.332 1.879l4.051 8.455c.957 1.992.113 4.381-1.879 5.336-.555.267-1.145.392-1.723.392z" fill="#4c241d"/></g><g><path d="m182.679 173.325s8.809-.881 13.565 5.814" fill="#fff"/><path d="m196.248 183.139c-1.254 0-2.484-.586-3.266-1.684-3.312-4.67-9.832-4.152-9.902-4.15-2.223.24-4.156-1.385-4.379-3.582-.219-2.199 1.383-4.158 3.582-4.379.453-.037 11.195-1.008 17.223 7.479 1.277 1.803.855 4.299-.945 5.578-.704.497-1.513.738-2.313.738z" fill="#4c241d"/></g><g><path d="m154.315 216.664 6.343-4.757" fill="#fff"/><path d="m154.318 220.664c-1.219 0-2.418-.553-3.203-1.6-1.328-1.768-.969-4.275.801-5.6l6.344-4.758c1.762-1.334 4.273-.967 5.598.799 1.328 1.768.969 4.275-.801 5.6l-6.344 4.758c-.719.541-1.559.801-2.395.801z" fill="#4c241d"/></g><g><path d="m155.196 229.525s-2.29 8.104-11.451 10.042" fill="#fff"/><path d="m143.74 243.566c-1.852 0-3.512-1.291-3.91-3.172-.457-2.162.926-4.285 3.086-4.742 6.723-1.42 8.414-7.156 8.434-7.215.598-2.131 2.82-3.361 4.934-2.762 2.129.602 3.363 2.811 2.762 4.938-.117.426-3.074 10.457-14.473 12.867-.282.059-.56.086-.833.086z" fill="#4c241d"/></g><g><path d="m175.632 71.496s5.99-1.409 10.218 1.233" fill="#fff"/><path d="m185.845 76.729c-.723 0-1.457-.195-2.117-.607-2.258-1.418-5.965-1.008-7.195-.727-2.168.482-4.293-.861-4.785-3.004-.496-2.145.828-4.283 2.969-4.787.785-.184 7.773-1.691 13.254 1.732 1.871 1.172 2.441 3.641 1.27 5.514-.759 1.213-2.064 1.879-3.396 1.879z" fill="#4c241d"/></g><g fill="#4c241d"><circle cx="66" cy="117.853" r="4.276"/><circle cx="46" cy="149.853" r="4.276"/><circle cx="58" cy="189.853" r="4.276"/><circle cx="226" cy="185.853" r="4.276"/><circle cx="118" cy="61.853" r="4.276"/><circle cx="134" cy="73.853" r="4.276"/></g></g></svg>