<svg id="chilli" enable-background="new 0 0 300 300" height="512" viewBox="0 0 300 300" width="512" xmlns="http://www.w3.org/2000/svg"><g><circle cx="169.479" cy="167.997" fill="#fff0fd" r="92"/><path d="m123.479 95.997c-7.719 0-14-6.281-14-14s6.281-14 14-14 14 6.281 14 14-6.281 14-14 14zm0-20c-3.309 0-6 2.691-6 6s2.691 6 6 6 6-2.691 6-6-2.691-6-6-6z" fill="#4c241d"/><circle cx="99.621" cy="122.388" fill="#4c241d" r="4.276"/><g><path d="m205.479 103.997-4-24 20 12 28 4-16 16z" fill="#a9ba5a"/><path d="m233.479 115.997c-.367 0-.738-.051-1.098-.154l-28-8c-1.484-.424-2.594-1.664-2.848-3.188l-4-24c-.258-1.539.406-3.086 1.695-3.965 1.281-.879 2.965-.93 4.309-.123l19.309 11.584 27.199 3.887c1.5.213 2.75 1.256 3.227 2.693.48 1.438.105 3.023-.965 4.094l-16 16c-.762.762-1.781 1.172-2.828 1.172zm-24.469-15.152 23.305 6.66 8.68-8.68-20.082-2.869c-.527-.074-1.035-.254-1.492-.529l-12.57-7.543z" fill="#4c241d"/></g><g><path d="m45.243 239.758c-4.425-4.516-3.271-12.021 2.164-15.25 18.419-10.944 74.81-45.249 98.072-68.511 28-28 20-60 56-64 0 0 8 16 36 12 11.879-1.697 28 12 12 36s-40 44-56 60-48 36-88 36-52 12-60 4c-.08-.08-.159-.16-.236-.239z" fill="#e66353"/><path d="m52.487 246.751c-3.762 0-6.93-1.02-9.836-3.926-.012-.01-.258-.258-.27-.268-2.922-2.986-4.289-7.098-3.742-11.279.562-4.283 3.012-8.004 6.727-10.209 16.988-10.096 74.215-44.832 97.285-67.9 10.68-10.68 15.957-22.152 20.617-32.275 7.148-15.541 13.902-30.221 37.77-32.871 1.688-.199 3.27.689 4.02 2.186.27.508 7.32 13.318 31.855 9.83 7.684-1.096 15.723 2.723 20.004 9.518 3.207 5.086 6.934 16.094-4.109 32.66-12.473 18.709-29.285 34.635-44.117 48.686-4.434 4.195-8.629 8.17-12.383 11.924-17.969 17.971-51.266 37.172-90.828 37.172-19.09 0-31.457 2.752-40.488 4.762-4.88 1.084-8.954 1.99-12.505 1.99zm147.047-150.461c-17.395 2.725-22.07 12.889-29 27.947-4.938 10.732-10.535 22.896-22.227 34.588-23.078 23.08-76.82 56.027-98.855 69.123-1.59.943-2.637 2.535-2.879 4.369-.133 1.016-.109 2.971 1.527 4.643l-2.859 2.799 2.895-2.762c2.594 2.59 5.914 2.002 15.117-.047 8.863-1.973 22.258-4.953 42.227-4.953 37.117 0 68.336-17.992 85.172-34.828 3.801-3.801 8.051-7.826 12.535-12.076 14.527-13.76 30.992-29.355 42.965-47.314 6.328-9.494 7.75-18.004 3.996-23.957-2.586-4.102-7.57-6.52-12.102-5.865-23.899 3.417-34.735-6.731-38.512-11.667z" fill="#4c241d"/></g><path d="m121.854 195.48c-1.449 0-2.848-.787-3.559-2.162-1.012-1.963-.246-4.377 1.719-5.391 12.242-6.33 32.418-25.482 32.621-25.674 1.598-1.523 4.125-1.467 5.656.139 1.523 1.6 1.461 4.131-.141 5.654-.859.82-21.219 20.137-34.465 26.986-.585.305-1.214.448-1.831.448z" fill="#4c241d"/><path d="m94.823 212.017c-1.359 0-2.684-.691-3.434-1.941-1.137-1.895-.523-4.352 1.371-5.488l15.555-9.334c1.895-1.141 4.352-.521 5.488 1.371 1.137 1.895.523 4.352-1.371 5.488l-15.555 9.334c-.644.386-1.355.57-2.054.57z" fill="#4c241d"/><g><path d="m221.479 243.997c0-4.418-11.582-8-16-8s-8 3.582-8 8 3.582 8 8 8 16-3.582 16-8z" fill="#e66353"/><path d="m205.479 255.997c-6.617 0-12-5.383-12-12s5.383-12 12-12c4.656 0 20 3.74 20 12s-15.344 12-20 12zm0-16c-2.207 0-4 1.795-4 4s1.793 4 4 4c3.305 0 9.742-2.285 11.66-4-1.918-1.715-8.355-4-11.66-4zm12.106 4.512h.039z" fill="#4c241d"/></g><g><path d="m125.479 235.997c0-4.418-11.582-8-16-8s-8 3.582-8 8 3.582 8 8 8 16-3.582 16-8z" fill="#e66353"/><path d="m109.479 247.997c-6.617 0-12-5.383-12-12s5.383-12 12-12c4.656 0 20 3.74 20 12s-15.344 12-20 12zm0-16c-2.207 0-4 1.795-4 4s1.793 4 4 4c3.305 0 9.742-2.285 11.66-4-1.918-1.715-8.355-4-11.66-4zm12.106 4.512h.039z" fill="#4c241d"/></g><g><path d="m181.479 231.997c-4.418 0-8 11.582-8 16s3.582 8 8 8 8-3.582 8-8-3.582-16-8-16z" fill="#e66353"/><path d="m181.479 259.997c-6.617 0-12-5.383-12-12 0-4.658 3.742-20 12-20s12 15.342 12 20c0 6.617-5.383 12-12 12zm0-23.662c-1.715 1.918-4 8.359-4 11.662 0 2.205 1.793 4 4 4s4-1.795 4-4c0-3.303-2.285-9.744-4-11.662z" fill="#4c241d"/></g><g><path d="m221.479 215.997c-4.418 0-8 11.582-8 16s3.582 8 8 8 8-3.582 8-8-3.582-16-8-16z" fill="#e66353"/><path d="m221.479 243.997c-6.617 0-12-5.383-12-12 0-4.658 3.742-20 12-20s12 15.342 12 20c0 6.617-5.383 12-12 12zm0-23.662c-1.715 1.918-4 8.359-4 11.662 0 2.205 1.793 4 4 4s4-1.795 4-4c0-3.303-2.285-9.744-4-11.662z" fill="#4c241d"/></g><g><path d="m245.479 241.997c0-5.523-7.721-10-10.667-10s-5.333 4.477-5.333 10 2.388 10 5.333 10c2.946 0 10.667-4.477 10.667-10z" fill="#e66353"/><path d="m234.811 255.997c-5.32 0-9.332-6.02-9.332-14s4.012-14 9.332-14c4.891 0 14.668 6.053 14.668 14s-9.777 14-14.668 14zm.434-7.902h.039zm-.168-12.047c-.543.59-1.598 2.594-1.598 5.949 0 3.367 1.062 5.375 1.605 5.955 1.887-.42 6.395-3.428 6.395-5.955 0-2.512-4.449-5.498-6.402-5.949z" fill="#4c241d"/></g><g fill="#4c241d"><path d="m87.682 160.216c-1.023 0-2.047-.391-2.828-1.172l-12-12c-1.562-1.562-1.562-4.094 0-5.656s4.094-1.562 5.656 0l12 12c1.562 1.562 1.562 4.094 0 5.656-.781.781-1.804 1.172-2.828 1.172z"/><path d="m75.682 160.216c-1.023 0-2.047-.391-2.828-1.172-1.562-1.562-1.562-4.094 0-5.656l12-12c1.562-1.562 4.094-1.562 5.656 0s1.562 4.094 0 5.656l-12 12c-.781.781-1.804 1.172-2.828 1.172z"/><path d="m221.917 95.464c-.887 0-1.781-.295-2.523-.9-1.715-1.396-1.969-3.918-.57-5.629 17.715-21.709 11.145-42.799 10.855-43.687-.68-2.094.461-4.354 2.551-5.043 2.082-.686 4.348.436 5.043 2.527.352 1.051 8.344 26.023-12.254 51.262-.79.968-1.942 1.47-3.102 1.47z"/></g></g></svg>