<svg id="Capa_1" enable-background="new 0 0 512 512" height="512" viewBox="0 0 512 512" width="512" xmlns="http://www.w3.org/2000/svg"><g><g><path clip-rule="evenodd" d="m68.419 297.358 368.594-143.026 10.471-4.058c11.606-4.484 16.601-19.751 11.096-33.884-5.477-14.132-19.439-22.021-31.045-17.538l-379.066 147.084c26.505-10.273 44.241 42 19.95 51.422z" fill="#d87e49" fill-rule="evenodd"/></g><g><path clip-rule="evenodd" d="m437.013 154.331-368.594 143.027c24.291-9.422 6.555-61.694-19.949-51.421-86.182 33.43-22.532 197.455 63.622 164.026 24.291-9.422 6.584-61.694-19.949-51.421l368.623-143.026z" fill="#ac5d2c" fill-rule="evenodd"/></g><g><path clip-rule="evenodd" d="m460.765 215.515-368.623 143.026c26.533-10.273 44.24 42 19.949 51.421l379.094-147.084c11.578-4.512 16.572-19.751 11.096-33.884-5.477-14.132-19.467-22.021-31.045-17.538z" fill="#d87e49" fill-rule="evenodd"/></g><g><path clip-rule="evenodd" d="m458.58 116.39-381.109 147.879c4.711 12.969 3.093 28.378-9.052 33.089l368.594-143.026 10.471-4.058c11.606-4.484 16.601-19.752 11.096-33.884z" fill="#c86d35" fill-rule="evenodd"/></g><g><path clip-rule="evenodd" d="m502.281 228.994-381.109 147.879c4.711 12.94 3.065 28.378-9.081 33.089l379.094-147.084c11.578-4.512 16.573-19.751 11.096-33.884z" fill="#c86d35" fill-rule="evenodd"/></g><g><path clip-rule="evenodd" d="m419.788 395.518c-17.849 2.128-135.531 8.57-182.438-6.867-20.63-6.782-27.214-20.574-14.643-36.012 20.261-24.944 44.893-28.18 97.902-33.316 32.577-3.15 34.791-22.107 61.352-26.817 29.91-5.278 44.24 10.869 60.018 40.127 6.924 12.797 83.884 50.285-22.191 62.885z" fill="#ffd772" fill-rule="evenodd"/></g><g><path clip-rule="evenodd" d="m371.177 309.447c14.87 5.08 24.972 18.957 35.784 38.935 4.654 8.627 40.949 28.378 32.01 44.242 76.761-14.7 9.478-48.073 3.008-59.991-10.102-18.73-19.609-32.067-32.975-37.885-7.52-3.263-16.26-4.143-27.044-2.242-14.104 2.497-21.368 9.024-29.938 15.069 7.265-.739 13.565-.058 19.155 1.872z" fill="#fbba58" fill-rule="evenodd"/></g><path d="m509.274 226.283c-6.99-18.03-25.27-27.819-40.749-21.82l-3.481 1.351-18.324-47.2c1.156-.448 2.312-.897 3.467-1.345 6.712-2.593 12.121-7.906 15.231-14.96 3.815-8.653 3.87-19.092.154-28.629-6.98-18.015-25.255-27.805-40.751-21.819l-188.795 73.272c-3.862 1.499-5.777 5.844-4.278 9.705 1.498 3.862 5.842 5.779 9.705 4.278l188.785-73.268c7.644-2.953 17.42 3.115 21.353 13.264 2.284 5.863 2.321 12.112.103 17.145-1.055 2.392-3.11 5.551-6.923 7.024-3.465 1.345-6.93 2.689-10.396 4.034-.025.01-.051.016-.077.025-.025.01-.048.023-.073.033-49.731 19.298-99.462 38.593-149.19 57.886-65.941 25.583-131.876 51.164-197.805 76.752.765-6.909-.392-14.415-3.059-21.294-2.65-6.834-6.43-12.368-10.906-16.353l133.026-51.596c3.862-1.498 5.778-5.843 4.281-9.704-1.497-3.862-5.842-5.78-9.704-4.28l-155.111 60.16c-.002.001-.005.002-.007.003-24.528 9.517-40.368 29.824-44.601 57.184-5.964 38.539 11.769 84.246 42.165 108.681 14.079 11.318 29.779 17.087 45.804 17.086 8.536 0 17.164-1.637 25.687-4.944.034-.013 64.76-25.127 97.096-37.674 3.24 5.75 9.85 12.14 23.11 16.5 18.29 6.01 48.089 9.45 88.578 10.22 4.11.1 7.56-3.22 7.64-7.36s-3.21-7.56-7.35-7.64c-38.439-.73-67.549-4.01-84.188-9.47-6.16-2.03-10.82-4.77-13.44-7.82-1.02-1.19-1.73-2.42-2.1-3.68-1.3-4.43 1.66-9.33 4.38-12.66.25-.31.51-.62.76-.92 15.46-18.48 33.809-23.359 70.859-27.49 6.46-.73 13.49-1.43 21.18-2.17 19.709-1.91 29.769-9.23 38.639-15.69 6.9-5.02 12.86-9.36 23.3-11.21 10.37-1.83 18.45-.79 25.419 3.04 10.02 5.47 17.75 16.67 26.7 33.27 2.13 3.94 6.68 7.73 12.98 12.98 6.85 5.71 21.109 17.59 19.43 23.26-.5 1.7-5.23 10.44-48.899 15.63-7.52.9-31.869 2.46-60.279 2.96-4.14.07-7.44 3.48-7.37 7.63.07 4.09 3.42 7.37 7.5 7.37h.13c28.93-.51 53.979-2.13 61.799-3.06 38.499-4.58 57.469-12.68 61.499-26.27 4.49-15.13-11.42-28.389-24.209-39.039-3.58-2.98-8.48-7.07-9.38-8.59-6.55-12.16-13.73-24.05-23.36-32.559 22.89-8.88 45.789-17.76 68.679-26.65 15.456-6.02 22.346-25.569 15.366-43.579zm-456.562 166.838c-26.058-20.947-41.853-61.658-36.74-94.696 2.391-15.452 10.44-35.886 35.205-45.495h.001c11.735-4.55 18.298 11.378 19.008 13.209 3.674 9.476 3.353 21.188-4.48 24.226l-.002.001c-3.861 1.499-5.776 5.843-4.278 9.704 1.152 2.97 3.988 4.789 6.994 4.789.901 0 1.819-.164 2.71-.509.001 0 .001 0 .002-.001 73.102-28.374 146.214-56.739 219.328-85.106 47.427-18.401 94.854-36.802 142.276-55.203l18.324 47.2-361.628 140.311c-3.86 1.5-5.78 5.84-4.28 9.7 1.49 3.86 5.83 5.78 9.7 4.28 11.75-4.55 18.31 11.38 19.02 13.21 3.67 9.47 3.35 21.16-4.47 24.219l-.016.008c-.002.001-.005.001-.007.002-24.759 9.609-44.481-.053-56.667-9.849zm435.763-137.239c-26.52 10.29-53.039 20.58-79.559 30.869-7.92-2.78-17.19-3.59-28.269-1.63-13.85 2.46-22.17 8.51-29.51 13.85-8.38 6.1-15.62 11.37-31.249 12.89-54.039 5.23-80.998 8.95-102.998 36.039-4.95 6.08-7.14 11.65-7.82 16.4-26.06 10.1-52.109 20.21-78.159 30.319.76-6.91-.39-14.42-3.06-21.3-2.65-6.84-6.43-12.37-10.91-16.36l357.003-138.507c7.64-2.96 17.41 3.11 21.34 13.25 3.931 10.141.811 21.211-6.809 24.18z"/></g></svg>