<svg id="Capa_1" enable-background="new 0 0 512 512" height="512" viewBox="0 0 512 512" width="512" xmlns="http://www.w3.org/2000/svg"><g><g><path clip-rule="evenodd" d="m306.513 241.47 126.609-132.127c7.408-7.743 7.158-20.109-.585-27.517-7.715-7.408-20.108-7.158-27.517.585l-161.505 168.556z" fill="#c86d35" fill-rule="evenodd"/></g><g><path clip-rule="evenodd" d="m262.453 287.48-63.026 9.497-57.985 60.521c-34.674 36.207-48.182 31.11-82.438 7.603-17.936-12.281-24.704-1.335-15.848 18.439 14.287 32.001 48.767 81.911 99.928 28.52l31.973-33.394z" fill="#c86d35" fill-rule="evenodd"/></g><g><path clip-rule="evenodd" d="m262.453 287.48-63.026 9.497-15.569 16.265 15.29-2.312c22.42-3.37-7.993 22.031-22.253 36.903l-34.229 35.733-31.973 33.366c-7.492 7.826-14.622 13.424-21.389 17.184 15.012 4.261 33.031-.39 53.78-22.058l31.973-33.394z" fill="#ac5d2c" fill-rule="evenodd"/></g><g><path clip-rule="evenodd" d="m306.513 241.47 126.609-132.127c7.408-7.743 7.158-20.109-.585-27.517-7.715-7.408-20.108-7.158-27.517.585l-4.484 4.679c7.353 7.436 7.492 19.524.195 27.127l-87.201 91.019c-8.467 8.857-12.004 14.399-24.063 16.237l-20.665 3.092-25.288 26.403z" fill="#ac5d2c" fill-rule="evenodd"/></g><g><path clip-rule="evenodd" d="m262.453 287.48 225.48-33.979c2.813-.418 5.403-1.42 7.659-2.897 6.211-4.038 9.859-11.475 8.689-19.245-.863-5.71-4.178-10.472-8.689-13.424-3.843-2.479-8.606-3.649-13.48-2.924l-175.599 26.459-62.998 9.497-138.14 20.805c-49.546 7.492-57.122-4.79-69.905-44.312-6.684-20.694-18.716-16.182-23.812 4.874-8.216 34.062-11.447 94.667 61.717 83.638l45.703-6.879 80.349-12.115z" fill="#d87e49" fill-rule="evenodd"/></g><g><path clip-rule="evenodd" d="m485.816 234.033c-138.168 20.833-276.363 41.666-414.558 62.471-41.442 6.239-58.375-10.5-63.75-32.391-.139 29.996 12.644 59.881 65.867 51.859 138.167-20.805 276.363-41.638 414.558-62.471 2.813-.418 5.403-1.42 7.659-2.897 6.211-4.038 9.859-11.475 8.689-19.245-.501-3.231-1.755-6.155-3.593-8.634-1.17 2.618-2.924 4.958-5.097 6.824-.668.585-1.365 1.114-2.089 1.588-2.255 1.476-4.845 2.479-7.686 2.896z" fill="#c86d35" fill-rule="evenodd"/></g><g><path clip-rule="evenodd" d="m279.693 240.272c2.729-4.038 6.573-8.021 11.697-11.586 14.566-10.11 39.659-16.878 79.43-12.255-24.592 44.813-50.41 59.352-69.014 60.438-3.676-1.95-7.325-3.147-10.75-3.704-8.69-5.71-15.095-19.468-11.363-32.893z" fill="#ffd772" fill-rule="evenodd"/></g><g><path clip-rule="evenodd" d="m291.39 228.686c-2.618 19.635-33.142 29.523-47.207 0-5.709-17.491-2.785-45.76 23.59-84.947 26.374 39.187 29.299 67.456 23.617 84.947z" fill="#ffd772" fill-rule="evenodd"/></g><g><path clip-rule="evenodd" d="m244.183 228.686c36.624 21.39 15.262 58.182-10.444 48.183-18.604-1.086-44.394-15.625-68.986-60.438 39.771-4.623 64.836 2.145 79.43 12.255z" fill="#ffd772" fill-rule="evenodd"/></g><g><path clip-rule="evenodd" d="m233.739 276.869c3.704-1.95 7.325-3.147 10.75-3.704 19.078-6.545 31.527 18.02 23.283 33.31-5.598 17.63-25.121 38.964-71.576 54.06 3.704-50.94 21.111-74.921 37.543-83.666z" fill="#ffd772" fill-rule="evenodd"/></g><g><path clip-rule="evenodd" d="m267.773 306.475c-2.145-6.824-2.228-13.09-1.003-18.215 6.406-9.247 15.791-15.847 24.286-15.095 3.426.557 7.074 1.755 10.75 3.704 16.46 8.745 33.839 32.725 37.543 83.666-46.455-15.096-65.978-36.43-71.576-54.06z" fill="#ffd772" fill-rule="evenodd"/></g><g><path clip-rule="evenodd" d="m267.773 143.739v73.862 19.719c4.317 0 8.383 1.058 11.92 2.952 2.729-4.038 6.573-8.021 11.697-11.586 5.682-17.491 2.757-45.76-23.617-84.947z" fill="#fbba58" fill-rule="evenodd"/></g><g><path clip-rule="evenodd" d="m370.82 216.431-78.65 38.992c.696 2.34 1.086 4.818 1.086 7.381 0 3.676-.78 7.186-2.2 10.361 3.426.557 7.074 1.755 10.75 3.704 18.605-1.086 44.422-15.625 69.014-60.438z" fill="#fbba58" fill-rule="evenodd"/></g><g><path clip-rule="evenodd" d="m339.349 360.535-57.595-76.424c-3.76 2.451-8.188 3.955-12.978 4.15-.334 0-.668 0-1.003 0s-.668 0-1.003 0c-1.225 5.125-1.142 11.391 1.003 18.215 5.598 17.629 25.121 38.963 71.576 54.059z" fill="#fbba58" fill-rule="evenodd"/></g><g><path clip-rule="evenodd" d="m196.196 360.535 56.621-77.121c-2.869-2.089-5.292-4.763-7.102-7.854-.446-.78-.836-1.588-1.225-2.395-3.426.557-7.046 1.755-10.75 3.704-16.433 8.745-33.84 32.726-37.544 83.666z" fill="#fbba58" fill-rule="evenodd"/></g><g><path clip-rule="evenodd" d="m164.753 216.431 78.623 38.992c1.56-5.153 4.707-9.609 8.829-12.812 1.142-.863 2.367-1.671 3.648-2.34-2.729-4.038-6.545-8.021-11.669-11.586-14.595-10.109-39.66-16.877-79.431-12.254z" fill="#fbba58" fill-rule="evenodd"/></g><g><path clip-rule="evenodd" d="m267.773 237.32c14.065 0 25.483 11.391 25.483 25.484 0 14.065-11.419 25.456-25.483 25.456s-25.483-11.391-25.483-25.456c-.001-14.093 11.418-25.484 25.483-25.484z" fill="#fed1a3" fill-rule="evenodd"/></g><path d="m511.698 230.223c-2.24-14.67-16-24.82-30.7-22.63l-105.531 15.91c.64-1.14 1.29-2.29 1.93-3.46 1.2-2.19 1.23-4.83.09-7.05-1.15-2.22-3.32-3.72-5.8-4.01-7.99-.927-15.365-1.41-22.179-1.526l89.034-92.93c10.283-10.748 9.916-27.849-.81-38.112-10.693-10.269-27.79-9.916-38.116.795l-102.97 107.054c-4.072-12.791-11.155-27.643-22.649-44.713-1.4-2.07-3.73-3.31-6.22-3.31-.01 0-.01 0-.01 0-2.49 0-4.82 1.24-6.22 3.31-22.25 33.08-28 57.83-27.29 75.35-15.37-6.16-37.79-9.71-70.37-5.92-2.48.29-4.65 1.79-5.8 4.01-1.14 2.22-1.11 4.86.09 7.05 7.27 13.24 14.77 24.08 22.31 32.84l-33.42 5.04c-4.1.62-6.92 4.44-6.3 8.53.56 3.72 3.76 6.39 7.41 6.39.37 0 .74-.03 1.12-.09l44.26-6.67c7.94 6.84 15.76 11.54 23.21 14.47-2 2.06-4.02 4.42-6.02 7.13l-92.781 13.99-45.71 6.88c-22.02 3.32-37.81-.04-46.93-9.98-15.67-17.1-9.68-50.79-6.38-64.47 1.84-7.59 4.27-11.04 5.46-12.2.79.84 2.34 2.95 3.93 7.87 11.34 35.06 20.34 51.55 53.81 51.54 6.97 0 15-.71 24.34-2.12l9.3-1.4c4.1-.61 6.92-4.43 6.31-8.52-.61-4.1-4.44-6.92-8.53-6.31l-9.31 1.39c-22.57 3.42-35.48 2.47-43.2-3.16-7.52-5.5-12.11-16.45-18.45-36.04-5.36-16.59-13.96-18.77-18.63-18.6-8.85.33-15.99 9.09-19.61 24.02-4.8 19.91-9.9 56.52 9.91 78.13 9.81 10.7 24.13 16.09 42.71 16.09 5.47 0 11.31-.47 17.51-1.4l45.7-6.88 58.595-8.838-42.766 44.636c-15.793 16.492-26.606 23.635-36.155 23.884-9.286.246-19.645-5.628-36.629-17.281-14.379-9.848-22.532-6.303-26.113-3.314-6.8 5.678-7.098 16.979-.819 30.997 8.341 18.683 26.649 50.775 55.541 55.797 2.555.444 5.12.666 7.694.666 16.083 0 32.516-8.655 48.958-25.814l31.969-33.39 15.215-15.866c.171.012.339.042.51.042.78 0 1.56-.12 2.32-.37 40.19-13.05 59.74-30.42 69.23-44.45 1.12 1.68 2.34 3.34 3.66 4.96 13.25 16.37 35.33 29.66 65.631 39.49.75.25 1.53.37 2.31.37 1.66 0 3.29-.55 4.63-1.6 1.96-1.54 3.03-3.95 2.85-6.44-2.76-38.1-12.87-60.72-23.39-74.12l71.25-10.72c4.1-.62 6.92-4.44 6.3-8.54-.61-4.09-4.44-6.91-8.53-6.3l-53.14 8c8.46-6.8 17.09-16 25.56-28.05l118.341-17.83c6.53-.98 12.65 3.53 13.65 10.04.97 6.53-3.53 12.63-10.06 13.61l-60.29 9.11c-4.1.62-6.92 4.44-6.3 8.54.62 4.09 4.45 6.91 8.54 6.29l60.29-9.1c14.69-2.207 24.86-15.967 22.65-30.697zm-101.277-142.608c4.589-4.761 12.181-4.934 16.932-.372 4.76 4.555 4.917 12.142.355 16.91l-99.945 104.318c-10.573 1.258-19.293 3.564-26.475 6.441.165-4.004-.014-8.391-.644-13.165zm-142.644 70.077c20.27 33.74 19.99 55.25 17.12 66.41-3.08 2.36-5.6 4.78-7.65 7.11-.65-.19-1.31-.37-1.97-.52v-13.09c0-4.14-3.36-7.5-7.5-7.5-4.15 0-7.5 3.36-7.5 7.5v13.09c-.67.15-1.32.32-1.97.52-2.05-2.33-4.58-4.76-7.66-7.13-2.86-11.159-3.13-32.649 17.13-66.39zm-53.111 105.211c-5.2-3.02-10.66-7.2-16.24-12.72-6.98-6.89-14.15-15.88-21.26-27.35 40.07-2.59 59.12 7.88 67.8 16.17-1.51 1.46-2.89 3.06-4.11 4.78-.33.46-.65.93-.95 1.41l-1.89-.98-8.72-4.5c-3.67-1.91-8.2-.47-10.1 3.22-.7 1.36-.95 2.83-.79 4.24.25 2.41 1.68 4.66 4.01 5.86l12.54 6.48c-.01.11-.02.23-.03.34-.09.97-.14 1.96-.14 2.95 0 2.27.23 4.48.67 6.62-6.099-.12-13.179-2.08-20.79-6.52zm-45.025 110.576-31.971 33.392c-15.405 16.078-29.963 23.054-43.252 20.745-22.866-3.974-38.677-34.286-44.416-47.141-3.195-7.134-3.377-11.35-3.141-12.995 1.131.172 3.647.896 7.899 3.807 36.727 25.201 54.182 30.991 92.097-8.599l53.081-55.402c-4.783 11.615-8.654 26.528-10.599 45.652zm35.165-23.925c3.01-24.03 9.32-39.64 15.85-49.73.5-.78 6.507-9.83 14.99-15.4.13.01.26.01.38.01 2.23 0 4.39-.17 6.47-.49.06.08.13.15.2.23l-7.95 10.12c-2.56 3.26-1.99 7.98 1.27 10.53 1.37 1.08 3 1.6 4.62 1.6 2.23 0 4.43-.98 5.91-2.87l8.22-10.48c1.2.52 2.44.97 3.71 1.35-.08 3.85.41 7.8 1.44 11.76-4.159 10.869-16.839 28.739-55.11 43.37zm62.971-68.791c-9.92 0-17.99-8.06-17.99-17.96 0-1.85.28-3.63.8-5.31 2.27-7.33 9.12-12.67 17.19-12.67 6.15 0 11.6 3.11 14.84 7.84 1.98 2.89 3.14 6.38 3.14 10.14 0 9.9-8.07 17.96-17.98 17.96zm62.96 68.791c-45.02-17.22-57.23-39.99-57.26-54.29 2.55-.45 5-1.19 7.32-2.19l8.23 10.48c1.48 1.89 3.68 2.87 5.9 2.87 1.62 0 3.26-.52 4.63-1.6 3.26-2.55 3.83-7.27 1.27-10.53l-7.96-10.14c.06-.07.13-.14.19-.21 2.08.32 4.23.49 6.46.49.13 0 .27-.01.41-.01 8.72 5.329 25.3 21.079 30.81 65.13zm12.64-106.051c-16.03 18.52-31.46 25.69-43.29 25.92.44-2.14.67-4.35.67-6.62 0-1.11-.06-2.21-.17-3.29l12.54-6.48c2.23-1.15 3.64-3.27 3.98-5.57.22-1.5-.01-3.08-.76-4.53-1.9-3.68-6.42-5.13-10.1-3.22l-10.61 5.48c-1.43-2.26-3.13-4.34-5.06-6.18 1.13-1.08 2.44-2.2 3.95-3.32 10.07-7.48 29.04-15.11 63.88-12.86-.76 1.22-1.52 2.42-2.27 3.58-4.26 6.54-8.53 12.21-12.76 17.09z"/></g></svg>