<svg id="cinnamon" enable-background="new 0 0 300 300" height="512" viewBox="0 0 300 300" width="512" xmlns="http://www.w3.org/2000/svg"><g><circle cx="142" cy="152" fill="#fff0fd" r="92"/><g fill="#4c241d"><path d="m110 164c-6.617 0-12-5.383-12-12s5.383-12 12-12 12 5.383 12 12-5.383 12-12 12zm0-16c-2.207 0-4 1.795-4 4s1.793 4 4 4 4-1.795 4-4-1.793-4-4-4z"/><circle cx="66.397" cy="186.093" r="4.276"/><path d="m122 116c-1.023 0-2.047-.391-2.828-1.172l-12-12c-1.562-1.562-1.562-4.094 0-5.656s4.094-1.562 5.656 0l12 12c1.562 1.562 1.562 4.094 0 5.656-.781.781-1.805 1.172-2.828 1.172z"/><path d="m110 116c-1.023 0-2.047-.391-2.828-1.172-1.562-1.562-1.562-4.094 0-5.656l12-12c1.562-1.562 4.094-1.562 5.656 0s1.562 4.094 0 5.656l-12 12c-.781.781-1.805 1.172-2.828 1.172z"/><circle cx="82.397" cy="122.093" r="4.276"/></g><g><path d="m192 36c-9.941 0-18 8.059-18 18v192c0 9.941 8.059 18 18 18 9.941 0 18-8.059 18-18v-192c0-9.941-8.059-18-18-18z" fill="#e66353"/><path d="m192 268c-12.129 0-22-9.869-22-22v-192c0-12.131 9.871-22 22-22s22 9.869 22 22v192c0 12.131-9.871 22-22 22zm0-228c-7.719 0-14 6.281-14 14v192c0 7.719 6.281 14 14 14s14-6.281 14-14v-192c0-7.719-6.281-14-14-14z" fill="#4c241d"/></g><g><path d="m174 246c0-9.83 8.484-13.508 18.313-13.508 7.864 0 14.238 6.375 14.238 14.238 0 6.291-5.1 11.391-11.391 11.391-5.033 0-9.968-5.726-9.523-10.739.227-2.558 4.392-4.975 8.291-3.679" fill="#e66353"/><path d="m195.16 262.121c-3.422 0-6.922-1.678-9.602-4.605-2.762-3.018-4.223-6.939-3.906-10.488.199-2.26 1.59-4.393 3.816-5.854 2.848-1.871 6.48-2.348 9.723-1.266 2.098.697 3.23 2.961 2.535 5.057-.699 2.096-2.965 3.24-5.059 2.533-1.309-.436-2.617.135-3.059.549.012 1.264.715 2.824 1.852 4.068 1.133 1.236 2.551 2.006 3.699 2.006 4.074 0 7.391-3.314 7.391-7.391 0-5.645-4.594-10.238-10.238-10.238-6.531 0-14.312 1.65-14.312 9.508 0 2.209-1.789 4-4 4s-4-1.791-4-4c0-10.963 8.34-17.508 22.312-17.508 10.055 0 18.238 8.182 18.238 18.238.001 8.487-6.902 15.391-15.39 15.391z" fill="#4c241d"/></g><g><path d="m228 60c-9.941 0-18 8.059-18 18v168c0 9.941 8.059 18 18 18 9.941 0 18-8.059 18-18v-168c0-9.941-8.059-18-18-18z" fill="#e66353"/><path d="m228 268c-12.129 0-22-9.869-22-22v-168c0-12.131 9.871-22 22-22s22 9.869 22 22v168c0 12.131-9.871 22-22 22zm0-204c-7.719 0-14 6.281-14 14v168c0 7.719 6.281 14 14 14s14-6.281 14-14v-168c0-7.719-6.281-14-14-14z" fill="#4c241d"/></g><g><path d="m210 246c0-9.83 8.484-13.508 18.313-13.508 7.864 0 14.238 6.375 14.238 14.238 0 6.291-5.1 11.391-11.391 11.391-5.033 0-9.968-5.726-9.523-10.739.227-2.558 4.392-4.975 8.291-3.679" fill="#e66353"/><path d="m231.16 262.121c-3.422 0-6.922-1.678-9.602-4.605-2.762-3.018-4.223-6.939-3.906-10.488.199-2.26 1.59-4.393 3.816-5.854 2.848-1.871 6.484-2.348 9.723-1.266 2.098.697 3.23 2.961 2.535 5.057s-2.961 3.24-5.059 2.533c-1.312-.436-2.621.135-3.059.549.012 1.264.715 2.824 1.852 4.068 1.133 1.236 2.551 2.006 3.699 2.006 4.074 0 7.391-3.314 7.391-7.391 0-5.645-4.594-10.238-10.238-10.238-6.531 0-14.312 1.65-14.312 9.508 0 2.209-1.789 4-4 4s-4-1.791-4-4c0-10.963 8.34-17.508 22.312-17.508 10.055 0 18.238 8.182 18.238 18.238.001 8.487-6.902 15.391-15.39 15.391z" fill="#4c241d"/></g><g><path d="m210.225 133.775c-7.029-7.029-18.426-7.029-25.456 0l-98.994 98.995c-7.029 7.029-7.029 18.426 0 25.456 7.029 7.029 18.426 7.029 25.456 0l98.995-98.995c7.029-7.03 7.029-18.427-.001-25.456z" fill="#e66353"/><path d="m98.5 267.484c-5.633 0-11.266-2.143-15.555-6.432-8.574-8.578-8.574-22.533 0-31.111l98.996-98.994c8.578-8.572 22.535-8.58 31.113 0 8.574 8.578 8.574 22.533 0 31.111l-98.996 98.994c-4.288 4.29-9.921 6.432-15.558 6.432zm99-134.972c-3.586 0-7.172 1.363-9.902 4.092l-98.996 98.994c-5.457 5.459-5.457 14.34 0 19.799 5.465 5.461 14.344 5.457 19.801 0l98.996-98.994c5.457-5.459 5.457-14.34 0-19.799-2.731-2.729-6.317-4.092-9.899-4.092z" fill="#4c241d"/></g><g><path d="m85.775 232.77c6.951-6.951 15.551-3.553 22.502 3.398 5.56 5.56 5.56 14.576 0 20.136-4.448 4.448-11.661 4.448-16.109 0-3.559-3.559-3-11.097.859-14.328 1.969-1.648 6.624-.412 8.463 3.261" fill="#e66353"/><path d="m100.223 263.631c-3.941.002-7.883-1.5-10.883-4.5-2.422-2.422-3.711-6.082-3.535-10.047.184-4.086 1.922-7.889 4.656-10.176 1.734-1.455 4.223-1.986 6.836-1.439 3.336.691 6.238 2.926 7.766 5.977.992 1.975.191 4.377-1.781 5.367-1.977.996-4.379.189-5.371-1.785-.613-1.227-1.938-1.752-2.543-1.771-.887.9-1.492 2.5-1.57 4.184-.074 1.676.387 3.221 1.199 4.035 2.883 2.883 7.57 2.883 10.453 0 3.988-3.992 3.988-10.486 0-14.479-4.621-4.621-11.301-8.953-16.848-3.398-1.562 1.562-4.094 1.562-5.656 0s-1.562-4.096 0-5.656c7.754-7.752 18.277-6.482 28.16 3.398 7.109 7.111 7.109 18.68 0 25.791-3.001 2.999-6.942 4.499-10.883 4.499z" fill="#4c241d"/></g></g></svg>