<svg id="clove-buds" enable-background="new 0 0 300 300" height="512" viewBox="0 0 300 300" width="512" xmlns="http://www.w3.org/2000/svg"><g><circle cx="144" cy="132" fill="#fff0fd" r="92"/><g fill="#4c241d"><path d="m56 112c-6.617 0-12-5.383-12-12s5.383-12 12-12 12 5.383 12 12-5.383 12-12 12zm0-16c-2.205 0-4 1.795-4 4s1.795 4 4 4 4-1.795 4-4-1.795-4-4-4z"/><path d="m140 68c-1.023 0-2.047-.391-2.828-1.172l-12-12c-1.562-1.562-1.562-4.094 0-5.656s4.094-1.562 5.656 0l12 12c1.562 1.562 1.562 4.094 0 5.656-.781.781-1.805 1.172-2.828 1.172z"/><path d="m128 68c-1.023 0-2.047-.391-2.828-1.172-1.562-1.562-1.562-4.094 0-5.656l12-12c1.562-1.562 4.094-1.562 5.656 0s1.562 4.094 0 5.656l-12 12c-.781.781-1.805 1.172-2.828 1.172z"/><circle cx="208.397" cy="182.093" r="4.276"/><circle cx="248.397" cy="110.093" r="4.276"/></g><g><circle cx="84" cy="156" fill="#bf7e68" r="24"/><path d="m84 184c-15.439 0-28-12.561-28-28s12.561-28 28-28 28 12.561 28 28-12.561 28-28 28zm0-48c-11.027 0-20 8.973-20 20s8.973 20 20 20 20-8.973 20-20-8.973-20-20-20z" fill="#4c241d"/></g><g><path d="m107.213 169.102c-4.746 1.245-9.867 2.085-15.213 2.529v-3.631c0-4.418-3.582-8-8-8s-8 3.582-8 8v3.631c-5.347-.444-10.468-1.284-15.213-2.529-2.717-.712-4.961 2.262-3.406 4.602 4.333 6.518 10.989 11.346 18.787 13.315l3.832 68.981h8l3.832-68.981c7.798-1.969 14.453-6.797 18.787-13.315 1.555-2.339-.689-5.314-3.406-4.602z" fill="#b5a19c"/><path d="m88 260h-8c-2.123 0-3.877-1.658-3.994-3.777l-3.676-66.174c-7.451-2.557-13.869-7.496-18.281-14.131-1.617-2.434-1.562-5.545.139-7.93 1.734-2.432 4.721-3.518 7.611-2.756 3.207.842 6.633 1.498 10.229 1.959.415-6.24 5.626-11.191 11.972-11.191s11.557 4.951 11.973 11.191c3.596-.461 7.021-1.117 10.225-1.959h.004c2.883-.76 5.877.324 7.611 2.756 1.701 2.385 1.756 5.496.137 7.93-4.41 6.635-10.828 11.574-18.279 14.131l-3.676 66.174c-.118 2.119-1.872 3.777-3.995 3.777zm-4.217-8h.434l3.621-65.203c.098-1.746 1.318-3.227 3.014-3.656 5.898-1.49 11.107-4.848 14.906-9.564-4.215.965-8.719 1.65-13.428 2.041-1.104.098-2.217-.285-3.039-1.043s-1.291-1.825-1.291-2.944v-3.631c0-2.205-1.795-4-4-4s-4 1.795-4 4v3.631c0 1.119-.469 2.186-1.291 2.943-.82.758-1.924 1.141-3.039 1.043-4.709-.391-9.213-1.074-13.428-2.041 3.799 4.717 9.008 8.074 14.906 9.564 1.695.43 2.916 1.91 3.014 3.656zm24.442-79.029-.002.002z" fill="#4c241d"/></g><g><circle cx="192" cy="80" fill="#bf7e68" r="24"/><path d="m192 108c-15.439 0-28-12.561-28-28s12.561-28 28-28 28 12.561 28 28-12.561 28-28 28zm0-48c-11.027 0-20 8.973-20 20s8.973 20 20 20 20-8.973 20-20-8.973-20-20-20z" fill="#4c241d"/></g><g><path d="m218.487 82.991c-3.882 3-8.268 5.775-13.016 8.272l-1.419-3.342c-1.726-4.067-6.423-5.965-10.49-4.238-4.067 1.726-5.965 6.423-4.238 10.49l1.419 3.342c-5.095 1.681-10.137 2.908-14.992 3.617-2.779.406-3.683 4.021-1.337 5.566 6.536 4.306 14.548 6.15 22.496 4.916l30.481 62 7.364-3.126-23.425-64.995c6.409-4.859 10.649-11.904 12.091-19.597.517-2.761-2.711-4.623-4.934-2.905z" fill="#b5a19c"/><path d="m227.393 177.613c-1.482 0-2.898-.826-3.592-2.234l-29.24-59.479c-7.85.588-15.691-1.477-22.348-5.863-2.439-1.607-3.607-4.494-2.971-7.354.646-2.916 2.975-5.078 5.932-5.51 3.281-.48 6.691-1.215 10.178-2.193-.957-2.746-.889-5.709.211-8.43 1.201-2.973 3.486-5.299 6.438-6.551 5.832-2.482 12.57.043 15.395 5.623 3.125-1.828 6.023-3.77 8.648-5.799 2.365-1.822 5.539-2 8.082-.439 2.498 1.529 3.766 4.375 3.227 7.248-1.469 7.832-5.443 14.885-11.305 20.148l22.471 62.352c.719 1.996-.246 4.209-2.201 5.037l-7.363 3.125c-.51.218-1.041.319-1.562.319zm-30.481-70c1.506 0 2.908.852 3.588 2.234l28.811 58.605.396-.168-22.141-61.438c-.592-1.645-.047-3.486 1.348-4.543 4.846-3.674 8.328-8.801 9.982-14.625-3.508 2.537-7.387 4.928-11.564 7.125-.992.516-2.156.602-3.205.227-1.055-.377-1.902-1.176-2.338-2.205l-1.418-3.344c-.863-2.031-3.223-2.973-5.246-2.119-2.029.863-2.98 3.215-2.119 5.246l1.42 3.34c.438 1.029.424 2.195-.037 3.215-.463 1.018-1.328 1.797-2.391 2.148-4.482 1.479-8.896 2.609-13.158 3.369 5.34 2.857 11.441 3.918 17.457 2.979.205-.03.41-.046.615-.046zm24.022-21.457c-.002 0-.002.002-.004.002.002 0 .002-.002.004-.002z" fill="#4c241d"/></g><g><circle cx="152" cy="216" fill="#bf7e68" r="24"/><path d="m152 244c-15.439 0-28-12.561-28-28s12.561-28 28-28 28 12.561 28 28-12.561 28-28 28zm0-48c-11.027 0-20 8.973-20 20s8.973 20 20 20 20-8.973 20-20-8.973-20-20-20z" fill="#4c241d"/></g><g><path d="m165.102 192.787c1.245 4.746 2.085 9.867 2.529 15.213h-3.631c-4.418 0-8 3.582-8 8s3.582 8 8 8h3.631c-.444 5.347-1.284 10.468-2.529 15.213-.712 2.717 2.262 4.961 4.602 3.406 6.518-4.333 11.346-10.989 13.315-18.787l68.981-3.832v-8l-68.981-3.832c-1.969-7.798-6.797-14.453-13.315-18.787-2.339-1.555-5.314.689-4.602 3.406z" fill="#b5a19c"/><path d="m168.055 247.127c-1.42 0-2.84-.439-4.066-1.314-2.43-1.734-3.512-4.723-2.756-7.611.842-3.207 1.498-6.633 1.959-10.229-6.241-.416-11.192-5.627-11.192-11.973s4.949-11.557 11.191-11.973c-.463-3.596-1.117-7.021-1.959-10.225 0 0 0-.002 0-.004-.756-2.889.326-5.877 2.756-7.611 2.385-1.699 5.496-1.758 7.93-.137 6.635 4.41 11.574 10.828 14.131 18.279l66.174 3.676c2.119.117 3.777 1.871 3.777 3.994v8c0 2.123-1.658 3.877-3.777 3.994l-66.176 3.676c-2.553 7.449-7.492 13.867-14.129 18.279-1.182.788-2.523 1.179-3.863 1.179zm-4.055-35.127c-2.205 0-4 1.795-4 4s1.795 4 4 4h3.631c1.119 0 2.186.469 2.943 1.291s1.135 1.926 1.043 3.039c-.391 4.709-1.074 9.213-2.039 13.428 4.715-3.801 8.072-9.01 9.561-14.904.43-1.697 1.91-2.918 3.656-3.016l65.205-3.621v-.434l-65.203-3.621c-1.746-.098-3.227-1.318-3.656-3.014-1.49-5.898-4.848-11.107-9.564-14.906.965 4.213 1.65 8.719 2.041 13.428.092 1.113-.285 2.217-1.043 3.039s-1.825 1.291-2.944 1.291zm4.971-20.225.002.002z" fill="#4c241d"/></g><g><circle cx="156" cy="152" fill="#bf7e68" r="24"/><path d="m156 180c-15.439 0-28-12.561-28-28s12.561-28 28-28 28 12.561 28 28-12.561 28-28 28zm0-48c-11.027 0-20 8.973-20 20s8.973 20 20 20 20-8.973 20-20-8.973-20-20-20z" fill="#4c241d"/></g><g><path d="m130.321 159.15c2.476-4.236 5.502-8.451 8.969-12.546l2.568 2.568c3.124 3.124 8.19 3.124 11.314 0s3.124-8.189 0-11.314l-2.568-2.568c4.094-3.467 8.31-6.494 12.546-8.969 2.425-1.417 1.908-5.108-.846-5.662-7.673-1.545-15.793-.252-22.699 3.869l-51.487-46.067-5.657 5.657 46.067 51.487c-4.122 6.906-5.414 15.026-3.869 22.699.554 2.754 4.244 3.271 5.662.846z" fill="#b5a19c"/><path d="m127.643 164.705c-.395 0-.795-.033-1.197-.1-2.891-.482-5.131-2.645-5.709-5.512-1.57-7.814-.525-15.844 2.936-22.916l-44.193-49.392c-1.416-1.582-1.35-3.996.152-5.496l5.656-5.656c1.504-1.504 3.918-1.566 5.496-.152l49.393 44.191c7.072-3.463 15.1-4.504 22.916-2.936 2.867.578 5.029 2.818 5.512 5.709.49 2.945-.859 5.822-3.438 7.328-2.859 1.672-5.744 3.631-8.615 5.848 4.115 4.709 3.932 11.893-.551 16.379-4.49 4.48-11.674 4.672-16.381.553-2.217 2.871-4.176 5.756-5.848 8.617-1.299 2.225-3.622 3.535-6.129 3.535zm-.774-7.576c-.002.002-.002.002-.002.004 0 0 0 0 0-.002 0 0 0-.002.002-.002zm-38.904-72.859 43.543 48.668c1.168 1.305 1.352 3.215.455 4.717-3.115 5.223-4.424 11.279-3.777 17.303 2.299-3.662 5-7.332 8.053-10.938.723-.854 1.77-1.367 2.887-1.412 1.156-.047 2.205.377 2.996 1.168l2.566 2.568c1.555 1.561 4.098 1.559 5.656-.002 1.559-1.559 1.559-4.096-.002-5.656l-2.566-2.564c-.791-.791-1.215-1.877-1.168-2.996.045-1.117.559-2.164 1.412-2.887 3.607-3.053 7.275-5.754 10.938-8.053-6.037-.643-12.08.66-17.303 3.777-1.504.893-3.408.711-4.717-.455l-48.668-43.543z" fill="#4c241d"/></g></g></svg>