<svg id="Capa_1" enable-background="new 0 0 512 512" height="512" viewBox="0 0 512 512" width="512" xmlns="http://www.w3.org/2000/svg"><g><g><path clip-rule="evenodd" d="m270.118 241.882c56.543-56.544 107.587 4.223 135.362 38.121 13.831 16.864 29.022-19.33 18.479-38.178 21.03 23.893 37.242 28.003 47.7 17.516 5.272-10.487-4.676-30.384-18.479-40.445 19.216 2.948 33.529-11.224 19.188-22.193-15.9-12.159-35.144-19.443-57.931-14.512-15.135 3.259 10.883-37.299 37.865-35.429 2.919.198 14.228 3.089 23.071 3.911 24.743 2.324 26.188-13.633 8.021-25.367-10.94-7.086-23.552-8.758-27.945-8.446 10.26-2.834 65.81-12.102 42.003-28.825-14.369-10.062-25.536-8.985-39.169-6.15 47.388-20.634 49.996-44.725 43.619-71.793-27.067-6.377-51.158-3.77-71.791 43.62 2.834-13.633 3.911-24.8-6.15-39.142-16.694-23.836-25.99 31.716-28.796 41.976.283-4.393-1.389-17.006-8.474-27.946-11.734-18.139-27.662-16.722-25.366 8.021.85 8.843 3.713 20.152 3.911 23.071 1.871 26.982-38.687 53.001-35.428 37.866 4.932-22.788-2.352-42.033-14.511-57.933-10.968-14.342-25.139-.028-22.192 19.188-10.033-13.803-29.929-23.751-40.444-18.48-10.487 10.487-6.377 26.671 17.515 47.701-18.819-10.544-55.04 4.648-38.177 18.48 33.896 27.806 94.662 78.824 38.119 135.368z" fill="#a7e9a6" fill-rule="evenodd"/></g><g><path clip-rule="evenodd" d="m501.9 10.093-231.782 231.789c56.543-56.544 107.587 4.223 135.362 38.121 13.831 16.864 29.022-19.33 18.479-38.178 21.03 23.893 37.242 28.003 47.7 17.516 5.272-10.487-4.676-30.384-18.479-40.445 19.216 2.948 33.529-11.224 19.188-22.193-15.9-12.159-35.144-19.443-57.931-14.512-15.135 3.259 10.883-37.299 37.865-35.429 2.919.198 14.228 3.089 23.071 3.911 24.743 2.324 26.188-13.633 8.021-25.367-10.94-7.086-23.552-8.758-27.945-8.446 10.26-2.834 65.81-12.102 42.003-28.825-14.369-10.062-25.536-8.985-39.169-6.15 47.387-20.633 49.994-44.724 43.617-71.792z" fill="#7fdbae" fill-rule="evenodd"/></g><g><path clip-rule="evenodd" d="m105.393 227.058c2.948-53.001 55.097-45.519 83.836-41.069 14.313 2.239 5.782-22.419-7.766-27.068 20.973 2.523 30.808-2.636 31.346-12.443-2.041-7.539-15.758-12.981-27.038-11.819 10.798-7.057 11.62-20.407-.34-19.472-13.236 1.02-25.99 5.924-35.088 18.451-6.009 8.333-11.11-23.241 3.061-34.267 1.53-1.219 8.389-4.79 13.122-8.276 13.292-9.835 6.944-18.338-7.227-16.127-8.559 1.36-15.531 6.122-17.572 8.219 3.826-5.952 27.18-35.145 8.021-32.849-11.564 1.36-16.637 6.859-22.107 14.285 14.313-31.177 4.932-44.243-10.203-54.815-16.212 8.843-26.982 20.775-16.212 53.37-4.62-8.021-9.041-14.001-20.378-16.666-18.791-4.393 1.19 27.209 4.365 33.53-1.814-2.296-8.219-7.794-16.58-10.09-13.831-3.77-21.087 3.996-8.984 15.22 4.336 3.996 10.77 8.304 12.159 9.665 12.867 12.528 4.308 43.336-.765 34.408-7.652-13.463-19.783-19.755-32.849-22.221-11.762-2.239-12.414 11.11-2.466 19.33-11.082-2.409-25.338 1.474-28.2 8.73-.539 9.835 8.673 16.042 29.788 15.872-13.973 3.118-25.168 26.671-10.685 26.019 29.05-1.246 81.71-2.918 78.762 50.083z" fill="#a7e9a6" fill-rule="evenodd"/></g><g><path clip-rule="evenodd" d="m117.439 9.81-12.045 217.249c2.948-53.001 55.097-45.519 83.836-41.069 14.313 2.239 5.782-22.419-7.766-27.068 20.973 2.523 30.808-2.636 31.346-12.443-2.041-7.539-15.758-12.981-27.038-11.819 10.798-7.057 11.62-20.407-.34-19.472-13.236 1.02-25.99 5.924-35.088 18.451-6.009 8.333-11.11-23.241 3.061-34.267 1.53-1.219 8.389-4.79 13.122-8.276 13.292-9.835 6.944-18.338-7.227-16.127-8.559 1.36-15.531 6.122-17.572 8.219 3.826-5.952 27.18-35.145 8.021-32.849-11.564 1.36-16.637 6.859-22.107 14.285 14.313-31.176 4.932-44.242-10.203-54.814z" fill="#7fdbae" fill-rule="evenodd"/></g><g><path clip-rule="evenodd" d="m284.941 406.611c53-2.948 45.517-55.07 41.068-83.838-2.239-14.313 22.419-5.782 27.067 7.766-2.522-20.974 2.636-30.809 12.442-31.347 7.539 2.041 12.981 15.759 11.819 27.039 7.057-10.799 20.406-11.621 19.499.34-1.049 13.236-5.952 25.99-18.479 35.089-8.333 6.037 23.269 11.11 34.294-3.061 1.19-1.53 4.761-8.389 8.276-13.123 9.806-13.264 18.309-6.916 16.098 7.256-1.36 8.531-6.122 15.504-8.191 17.573 5.923-3.855 35.116-27.209 32.82-8.021-1.36 11.536-6.859 16.609-14.284 22.079 31.176-14.285 44.242-4.932 54.814 10.203-8.814 16.212-20.775 26.982-53.368 16.212 8.021 4.62 14.029 9.041 16.665 20.379 4.393 18.791-27.208-1.19-33.529-4.336 2.296 1.786 7.794 8.191 10.09 16.552 3.769 13.831-3.996 21.087-15.191 8.985-4.025-4.336-8.333-10.742-9.693-12.159-12.527-12.839-43.335-4.308-34.407.765 13.463 7.653 19.755 19.783 22.22 32.849 2.239 11.762-11.11 12.414-19.329 2.466 2.409 11.082-1.474 25.339-8.729 28.201-9.835.539-16.042-8.673-15.843-29.788-3.118 13.973-26.67 25.168-26.046 10.685 1.245-29.053 2.917-81.714-50.083-78.766z" fill="#a7e9a6" fill-rule="evenodd"/></g><g><path clip-rule="evenodd" d="m408.173 399.78-123.232 6.831c53-2.948 51.328 49.714 50.081 78.765-.057 1.105.028 2.069.255 2.891 2.579 9.863 22.9-.652 25.791-13.576-.198 21.115 6.009 30.327 15.843 29.788 7.256-2.863 11.138-17.119 8.729-28.201 8.219 9.948 21.568 9.296 19.329-2.466-2.466-13.066-8.758-25.197-22.22-32.849-.057-.028-.085-.028-.113-.057-3.741-2.239.028-5.102 6.519-6.547 8.304-1.842 21.002-1.332 28.002 5.839 1.36 1.417 5.668 7.823 9.693 12.159 11.195 12.102 18.961 4.847 15.191-8.985-2.296-8.361-7.794-14.767-10.09-16.552 6.32 3.146 37.922 23.128 33.529 4.336-2.636-11.337-8.644-15.759-16.665-20.379 32.594 10.77 44.554 0 53.368-16.212l-77.516 4.308z" fill="#7fdbae" fill-rule="evenodd"/></g><path d="m501.752 81.894c-5.167-3.619-10.057-5.985-14.755-7.445 27.758-20.303 27.511-43.545 22.203-66.075-.651-2.767-2.812-4.928-5.58-5.58-22.528-5.308-45.772-5.554-66.075 22.205-1.46-4.692-3.826-9.574-7.443-14.73-6.168-8.807-12.46-9.67-16.644-8.846-8.834 1.738-14.373 12.162-18.689 26.063-.56-.997-1.154-1.986-1.784-2.959-7.947-12.284-18.471-17.979-27.464-14.864-4.146 1.435-13.582 7.003-11.664 27.676.553 5.746 1.874 12.338 2.838 17.151.443 2.214.995 4.969 1.057 5.72.892 12.872-11.227 25.721-19.361 31.361 2.253-19.685-3.494-38.66-17.139-56.502-6.075-7.944-14.299-10.731-21.999-7.451-5.66 2.41-9.94 7.758-12.212 14.544-11.906-9.055-26.964-13.939-37.743-8.532-.718.36-1.374.833-1.942 1.401-5.205 5.206-7.837 11.682-7.613 18.731.232 7.314 3.544 15.189 9.879 23.54-11.385 1.237-22.031 6.253-26.675 13.057-3.898 5.713-4.817 14.48 4.29 21.95 10.148 8.339 24.047 19.759 35.643 32.896 2.741 3.104 7.48 3.4 10.585.66 3.105-2.741 3.401-7.48.66-10.585-12.391-14.038-26.826-25.898-37.371-34.563-.959-.787-1.403-1.386-1.564-1.677.408-.812 2.37-2.764 6.518-4.465 7.116-2.918 17.921-3.852 24.802.003 3.346 1.875 7.57.923 9.785-2.208 2.218-3.131 1.715-7.429-1.165-9.964-17.428-15.34-20.259-24.83-20.396-29.121-.08-2.496.657-4.632 2.303-6.633 6.693-1.856 21.894 5.42 30 16.571 2.034 2.799 5.719 3.843 8.919 2.526s5.083-4.652 4.559-8.072c-1.325-8.64 1.887-15.098 4.613-16.258 1.47-.623 3.593 1.957 4.21 2.762 12.769 16.699 17.067 33.639 13.137 51.799-1.473 6.839 2.043 10.325 3.623 11.506 4.123 3.081 9.787 2.694 16.841-1.15 13.222-7.207 31.201-26.603 29.776-47.151-.105-1.562-.523-3.694-1.313-7.64-.901-4.497-2.135-10.656-2.612-15.616-.798-8.597 1.15-11.781 1.626-12.088.96-.213 5.261 1.544 9.979 8.837 6.102 9.42 7.475 20.439 7.285 23.387-.248 3.84 2.452 7.244 6.247 7.879 3.799.633 7.455-1.708 8.47-5.419.406-1.484.886-3.603 1.492-6.286 1.346-5.946 3.378-14.932 5.987-22.69 2.804-8.341 5.039-11.631 6.14-12.861.435.42 1.043 1.103 1.805 2.19 8.52 12.145 7.49 21.074 4.947 33.309-.782 3.763 1.407 7.509 5.07 8.673 3.667 1.166 7.614-.629 9.149-4.153 18.396-42.252 38.211-44.405 58.619-40.318 4.086 20.411 1.93 40.226-40.317 58.621-3.524 1.535-5.318 5.485-4.153 9.148 1.164 3.663 4.91 5.851 8.673 5.07 12.236-2.542 21.166-3.573 33.333 4.945 1.087.764 1.768 1.374 2.187 1.809-1.221 1.096-4.49 3.323-12.79 6.121-7.726 2.605-16.709 4.644-22.653 5.994-2.75.624-4.92 1.117-6.435 1.535-3.715 1.026-6.046 4.701-5.394 8.499s4.08 6.483 7.921 6.211c2.929-.211 13.876 1.13 23.346 7.265 7.302 4.716 9.057 9.026 8.859 9.934-.328.526-3.509 2.473-12.117 1.666-5.006-.465-11.19-1.712-15.706-2.622-3.892-.784-5.996-1.199-7.54-1.304-20.568-1.432-39.954 16.554-47.16 29.777-3.844 7.054-4.231 12.719-1.149 16.842 1.181 1.579 4.662 5.095 11.513 3.621 18.15-3.926 35.091.371 51.789 13.139.807.617 3.387 2.742 2.762 4.211-1.161 2.727-7.617 5.939-16.257 4.613-3.419-.527-6.752 1.356-8.071 4.554-1.318 3.197-.279 6.882 2.515 8.919 11.157 8.133 18.439 23.338 16.58 30.009-1.991 1.644-4.122 2.387-6.614 2.302-4.295-.134-13.795-2.962-29.14-20.396-2.534-2.878-6.831-3.383-9.961-1.167-3.131 2.215-4.086 6.435-2.214 9.782 3.86 6.9 2.923 17.712.002 24.827-1.699 4.138-3.648 6.095-4.458 6.501-.292-.161-.892-.605-1.678-1.564-18.989-23.175-50.771-61.961-90.098-63.908-3.455-.172-6.884-.034-10.288.376l96.006-96.016c2.928-2.929 2.928-7.677-.001-10.606-2.927-2.928-7.676-2.928-10.605 0l-95.946 95.957c1.43-12.071-.791-24.456-6.719-37.096-1.758-3.75-6.225-5.364-9.974-3.606-3.75 1.759-5.364 6.225-3.605 9.974 10.96 23.369 5.976 45.041-15.236 66.253-.039.039-.071.081-.109.12l-53.633 53.638c-.055.052-.114.098-.168.152-16.409 16.424-43.427 15.166-62.928 6.634-18.131-7.933-37.155-25.19-36.199-49.842l1.095-19.742c.001-.022.006-.043.007-.065.729-13.119 4.687-22.415 12.097-28.418 15.988-12.951 45.48-8.384 63.092-5.658 7.75 1.216 13.879-2.498 15.602-9.456 1.317-5.316-.214-11.764-3.492-17.556 5.521-.927 9.938-2.806 13.328-5.65 4.135-3.47 6.484-8.258 6.789-13.845.044-.798-.04-1.598-.249-2.37-2.113-7.807-10.397-13.395-19.774-15.952 1.533-3.909 1.818-7.971.585-11.592-1.688-4.952-6.785-9.986-16.003-9.266-13.295 1.025-24.356 5.434-33.027 13.148.267-5.575 1.864-12.209 6.171-15.561.414-.3 1.938-1.198 3.163-1.919 2.817-1.66 6.674-3.933 9.825-6.253 12.52-9.263 10.726-17.79 9.373-21.026-2.643-6.325-9.922-9.604-19.367-8.872 3.711-7.263 5.122-13.661 2.06-18.81-1.831-3.077-5.778-6.533-14.181-5.525-2.618.308-4.979.797-7.124 1.438 2.772-20.994-8.07-32.324-20.016-40.669-2.332-1.63-5.386-1.799-7.886-.436-12.79 6.977-24.813 17.042-24.387 38.213-2.056-.875-4.342-1.625-6.904-2.227-8.266-1.933-12.57 1.073-14.726 3.934-3.569 4.732-2.821 11.351.023 18.932-9.308-1.79-16.937.661-20.275 6.672-1.704 3.068-4.434 11.345 6.989 21.939 2.909 2.68 6.538 5.39 9.189 7.369 1.112.83 2.497 1.864 2.821 2.155 3.923 3.82 4.778 10.604 4.422 16.178-7.767-8.643-18.287-14.255-31.402-16.73-9.071-1.728-14.687 2.708-16.91 7.437-1.627 3.462-1.792 7.532-.699 11.591-9.609 1.495-18.469 6.125-21.435 13.648-.295.748-.468 1.538-.513 2.341-.307 5.596 1.504 10.619 5.233 14.527 3.056 3.202 7.239 5.559 12.627 7.094-3.895 5.39-6.128 11.626-5.407 17.052.945 7.108 6.635 11.474 14.46 11.121 17.816-.765 47.626-2.045 62.082 12.594 6.663 6.748 9.567 16.358 8.88 29.369l-1.114 20.08c-.002.039-.004.077-.006.116-1.076 26.961 16.233 51.575 45.171 64.236 11.607 5.078 23.478 7.564 34.759 7.564 2.208 0 4.392-.097 6.548-.287l-119.515 119.528c-2.928 2.929-2.928 7.677.001 10.606 1.464 1.464 3.383 2.196 5.302 2.196 1.92 0 3.839-.732 5.303-2.197l119.51-119.523c-1.155 13.18 1.215 27.445 7.294 41.325 12.292 28.062 35.838 45.178 61.86 45.178 6.607 0 21.669-1.117 22.582-1.168 18.017-.941 29.431 4.882 35.912 18.337 1.798 3.732 6.283 5.299 10.011 3.502 3.731-1.797 5.299-6.279 3.502-10.011-2.257-4.684-5.475-9.643-10.047-14.012l83.601-4.637c4.135-.229 7.302-3.768 7.073-7.903-.229-4.134-3.767-7.3-7.903-7.072l-83.559 4.635c.13-.156.271-.3.399-.457 16.732-20.652 12.158-53.209 9.04-73.44 3.827.901 10.595 4.841 12.345 9.942 1.246 3.629 5.028 5.734 8.768 4.876 3.739-.856 6.229-4.397 5.771-8.206-1.79-14.88.963-19.998 2.23-21.508.39-.465.872-.913 1.683-1.189 2.502 2.117 6.315 10.035 5.441 18.517-.354 3.443 1.692 6.68 4.954 7.837 3.266 1.155 6.891-.07 8.784-2.966 1.971-3.016 4.37-4.431 5.767-4.842-.001.144-.008.307-.021.488-1.041 13.151-6.081 22.838-15.403 29.608-3.432 2.486-5.042 6.161-4.308 9.828.605 3.023 2.953 7.01 10.699 8.838 9.676 2.284 28.611 1.303 38.221-11.048.727-.934 1.479-2.2 2.857-4.544 1.522-2.59 3.607-6.136 5.532-8.727 1.11-1.501 2.074-2.516 2.826-3.178.14 1.101.164 2.689-.164 4.795-1.053 6.603-4.885 12.248-6.088 13.451-2.715 2.715-2.94 7.042-.522 10.025 2.417 2.982 6.698 3.659 9.916 1.563.883-.575 2.046-1.404 3.518-2.453 9.051-6.452 14.374-9.541 17.495-10.895-1.211 6.844-4.408 10.214-11.017 15.083-3.095 2.28-3.964 6.531-2.014 9.844 1.953 3.313 6.093 4.613 9.586 3.012 25.03-11.468 35.023-5.823 42.739 3.886-6.591 10.517-15.899 17.237-42.063 8.591-3.656-1.207-7.626.546-9.198 4.057-1.571 3.511-.231 7.642 3.102 9.562 7.104 4.091 10.657 7.083 12.627 13.763-3.243-.998-8.852-3.463-18.508-8.824-1.636-.908-2.927-1.625-3.897-2.108-3.449-1.716-7.639-.541-9.69 2.72-2.052 3.261-1.298 7.547 1.744 9.913.79.614 5.522 5.551 7.458 12.604.563 2.067.716 3.652.699 4.763-.819-.576-1.888-1.478-3.158-2.851-2.212-2.384-4.693-5.699-6.504-8.12-1.601-2.14-2.474-3.297-3.319-4.175-10.926-11.198-29.841-10.067-39.197-6.725-7.485 2.674-9.374 6.893-9.642 9.962-.324 3.723 1.68 7.194 5.359 9.285 10.043 5.709 16.114 14.777 18.559 27.732.033.171.058.326.075.464-1.441-.266-3.971-1.412-6.255-4.177-2.205-2.667-5.948-3.481-9.059-1.969-3.112 1.512-4.786 4.957-4.051 8.339 1.811 8.333-1.086 16.623-3.334 19.015-.862-.192-1.404-.598-1.828-1.003-1.425-1.362-4.724-6.146-4.584-21.122.036-3.837-2.831-7.082-6.643-7.521-3.805-.437-7.34 2.071-8.176 5.817-1.176 5.269-7.475 9.93-11.174 11.236.269-6.307.497-13.548.225-21.152-.148-4.14-3.609-7.377-7.763-7.226-4.139.148-7.374 3.624-7.226 7.763.273 7.627-.002 15.028-.281 21.374-.338 7.846 4.04 13.524 11.152 14.462 5.413.72 11.645-1.514 17.031-5.401 1.528 5.379 3.88 9.557 7.076 12.612 3.625 3.464 8.209 5.274 13.322 5.273.4 0 .805-.011 1.211-.033.803-.044 1.594-.217 2.343-.512 7.521-2.967 12.151-11.827 13.646-21.436 4.058 1.093 8.127.927 11.59-.699 4.729-2.222 9.165-7.831 7.44-16.899-2.476-13.118-8.085-23.637-16.721-31.404 5.539-.348 12.282.494 16.112 4.358.345.394 1.318 1.695 2.103 2.745 2.012 2.689 4.768 6.372 7.511 9.328 10.553 11.409 18.828 8.685 21.896 6.984 6.001-3.328 8.458-10.933 6.686-20.23 7.628 2.885 14.144 3.58 18.928-.032 2.857-2.158 5.859-6.464 3.93-14.713-.596-2.561-1.343-4.849-2.216-6.906 21.176.418 31.242-11.603 38.202-24.404 1.357-2.497 1.187-5.546-.44-7.876-8.337-11.938-19.658-22.774-40.665-20.004.64-2.137 1.127-4.488 1.434-7.094 1.01-8.439-2.456-12.39-5.539-14.219-5.095-3.022-11.583-1.553-18.794 2.106.741-9.447-2.54-16.751-8.876-19.398-3.235-1.351-11.753-3.145-20.985 9.343-2.394 3.224-4.715 7.172-6.41 10.054-.683 1.16-1.531 2.604-1.765 2.935-3.364 4.324-10.018 5.927-15.603 6.193 7.707-8.66 12.131-19.728 13.185-33.048.7-9.231-4.345-14.317-9.301-15.999-3.619-1.229-7.676-.942-11.584.591-2.555-9.379-8.144-17.664-15.951-19.777-.772-.209-1.571-.292-2.371-.249-5.587.307-10.375 2.655-13.845 6.791-2.844 3.39-4.723 7.806-5.65 13.327-5.791-3.277-12.243-4.808-17.555-3.492-6.958 1.724-10.67 7.848-9.459 15.59 2.726 17.629 7.289 47.133-5.655 63.11-5.995 7.4-15.276 11.355-28.371 12.092-5.774.34-18.993 1.059-19.826 1.105-24.666.955-41.907-18.05-49.842-36.164-8.49-19.384-9.786-46.205 6.326-62.668l54.535-54.541c14.689-14.568 29.336-21.282 44.677-20.53 32.684 1.618 61.826 37.184 79.24 58.436 4.241 5.172 8.899 7.113 13.178 7.113 3.261 0 6.303-1.127 8.774-2.812 6.805-4.641 11.821-15.291 13.056-26.684 8.361 6.342 16.246 9.654 23.572 9.882 7.051.223 13.517-2.416 18.707-7.622.563-.564 1.032-1.215 1.391-1.927 5.41-10.761.521-25.827-8.541-37.747 6.791-2.27 12.143-6.552 14.555-12.215 3.279-7.7.494-15.924-7.45-22-17.845-13.647-36.819-19.394-56.5-17.139 5.639-8.134 18.471-20.25 31.358-19.363.74.062 3.444.606 5.616 1.044 4.845.976 11.481 2.314 17.274 2.852 20.643 1.937 26.231-7.504 27.668-11.654 3.121-9.006-2.58-19.536-14.87-27.473-.971-.629-1.955-1.222-2.949-1.78 13.896-4.319 24.325-9.856 26.065-18.687.825-4.191-.036-10.478-8.833-16.656zm-402.046 104.631c-14.709-14.896-38.193-17.474-57.496-17.474-5.219 0-10.136.188-14.488.373 1.318-3.698 5.974-9.975 11.227-11.147 3.743-.835 6.252-4.36 5.817-8.171-.433-3.79-3.641-6.648-7.449-6.648-.021 0-.041 0-.062 0-14.979.135-19.77-3.184-21.132-4.611-.405-.425-.81-.967-1.003-1.83 2.392-2.248 10.681-5.145 19.015-3.334 3.382.737 6.826-.939 8.339-4.05 1.512-3.112.698-6.855-1.969-9.059-2.765-2.284-3.912-4.814-4.177-6.256.142.018.3.042.476.076 12.943 2.443 22.01 8.513 27.719 18.557 2.093 3.681 5.561 5.683 9.29 5.359 3.073-.269 7.299-2.165 9.976-9.674 3.336-9.357 4.453-28.265-6.733-39.155-.866-.85-2.08-1.765-4.328-3.443-2.387-1.783-5.658-4.224-7.98-6.364-1.382-1.282-2.287-2.361-2.862-3.185 1.113-.016 2.694.132 4.761.695 6.497 1.784 11.641 6.19 12.683 7.508 2.385 3.018 6.667 3.742 9.912 1.675 3.245-2.066 4.399-6.253 2.673-9.691-.476-.946-1.175-2.202-2.06-3.791-5.403-9.7-7.883-15.332-8.886-18.587 6.689 1.989 9.679 5.538 13.759 12.622 1.92 3.332 6.05 4.674 9.562 3.102 3.511-1.572 5.264-5.545 4.057-9.198-8.636-26.136-1.917-35.453 8.596-42.061 9.719 7.724 15.366 17.719 3.882 42.73-1.604 3.495-.305 7.637 3.008 9.589 3.311 1.952 7.566 1.084 9.846-2.013 4.317-5.861 7.61-9.654 15.084-11.008-1.351 3.109-4.415 8.399-10.785 17.377-1.098 1.548-1.966 2.77-2.558 3.693-2.083 3.239-1.373 7.53 1.642 9.926s7.355 2.119 10.04-.641c1.156-1.188 6.692-4.981 13.353-6.04 2.119-.33 3.713-.306 4.818-.167-.664.757-1.682 1.728-3.194 2.846-2.518 1.855-5.852 3.819-8.53 5.397-2.489 1.466-3.834 2.268-4.75 2.998-12.355 9.613-13.324 28.544-11.032 38.219 1.832 7.738 5.82 10.078 8.842 10.678 3.671.732 7.339-.888 9.803-4.305 6.781-9.337 16.462-14.369 29.605-15.382.181-.014.343-.021.487-.023-.422 1.399-1.839 3.782-4.834 5.741-2.897 1.893-4.123 5.522-2.966 8.784 1.156 3.261 4.399 5.31 7.836 4.954 8.483-.872 16.399 2.94 18.516 5.442-.276.812-.724 1.293-1.189 1.683-1.508 1.266-6.629 4.02-21.508 2.23-3.794-.46-7.349 2.032-8.205 5.771s1.247 7.522 4.876 8.768c5.102 1.75 9.042 8.519 9.942 12.346-20.209-3.119-52.762-7.702-73.433 9.041-.159.129-.304.27-.46.401l4.634-83.564c.229-4.135-2.937-7.674-7.073-7.903-4.103-.228-7.672 2.936-7.903 7.073l-4.633 83.549c-.137-.137-.26-.288-.398-.428z"/></g></svg>