<svg id="cocoa" enable-background="new 0 0 300 300" height="512" viewBox="0 0 300 300" width="512" xmlns="http://www.w3.org/2000/svg"><g><circle cx="128" cy="135.092" fill="#fff0fd" r="92"/><g fill="#4c241d"><path d="m68 75.092c-6.617 0-12-5.383-12-12s5.383-12 12-12 12 5.383 12 12-5.383 12-12 12zm0-16c-2.207 0-4 1.795-4 4s1.793 4 4 4 4-1.795 4-4-1.793-4-4-4z"/><path d="m68 127.092c-1.023 0-2.047-.391-2.828-1.172l-12-12c-1.562-1.562-1.562-4.094 0-5.656s4.094-1.562 5.656 0l12 12c1.562 1.562 1.562 4.094 0 5.656-.781.781-1.805 1.172-2.828 1.172z"/><path d="m56 127.092c-1.023 0-2.047-.391-2.828-1.172-1.562-1.562-1.562-4.094 0-5.656l12-12c1.562-1.562 4.094-1.562 5.656 0s1.562 4.094 0 5.656l-12 12c-.781.781-1.805 1.172-2.828 1.172z"/><path d="m232 71.092c-1.023 0-2.047-.391-2.828-1.172l-12-12c-1.562-1.562-1.562-4.094 0-5.656s4.094-1.562 5.656 0l12 12c1.562 1.562 1.562 4.094 0 5.656-.781.781-1.805 1.172-2.828 1.172z"/><path d="m220 71.092c-1.023 0-2.047-.391-2.828-1.172-1.562-1.562-1.562-4.094 0-5.656l12-12c1.562-1.562 4.094-1.562 5.656 0s1.562 4.094 0 5.656l-12 12c-.781.781-1.805 1.172-2.828 1.172z"/><circle cx="108.397" cy="41.185" r="4.276"/><circle cx="108.397" cy="93.185" r="4.276"/></g><g><path d="m187.288 74.618c.457-2.369.712-8.895.712-11.526 0-13.255-6.268-20-14-20s-14 6.745-14 20c0 2.631.256 9.157.712 11.526-21.161 11.41-36.712 37.371-36.712 82.474 0 54.124 22.386 98 50 98s50-43.876 50-98c0-45.103-15.551-71.064-36.712-82.474z" fill="#a9ba5a"/><path d="m174 259.092c-30.281 0-54-44.805-54-102 0-51.373 19.262-74.357 36.418-84.635-.289-3.297-.418-7.637-.418-9.365 0-16.578 9.039-24 18-24s18 7.422 18 24c0 1.729-.129 6.068-.418 9.365 17.156 10.277 36.418 33.262 36.418 84.635 0 57.195-23.719 102-54 102zm0-212c-6.168 0-10 6.131-10 16 0 2.934.285 8.928.641 10.773.328 1.715-.496 3.443-2.031 4.273-15.79 8.514-34.61 29.122-34.61 78.954 0 50.953 21.066 94 46 94s46-43.047 46-94c0-49.832-18.82-70.439-34.609-78.953-1.535-.83-2.359-2.559-2.031-4.273.355-1.846.641-7.84.641-10.773-.001-9.87-3.833-16.001-10.001-16.001z" fill="#4c241d"/></g><g><path d="m228.474 222.379c2.369.457 8.895.712 11.526.712 13.255 0 20-6.268 20-14s-6.745-14-20-14c-2.631 0-9.157.256-11.526.712-11.41-21.162-37.371-36.712-82.474-36.712-54.124 0-98 22.386-98 50s43.876 50 98 50c45.103.001 71.064-15.55 82.474-36.712z" fill="#a9ba5a"/><path d="m146 263.092c-57.195 0-102-23.719-102-54s44.805-54 102-54c51.367 0 74.352 19.26 84.629 36.416 3.285-.291 7.578-.416 9.371-.416 16.578 0 24 9.041 24 18s-7.422 18-24 18c-1.793 0-6.086-.125-9.371-.416-10.277 17.156-33.262 36.416-84.629 36.416zm0-100c-50.953 0-94 21.066-94 46s43.047 46 94 46c49.832 0 70.438-18.822 78.953-34.611.828-1.535 2.562-2.352 4.277-2.029 1.832.354 7.828.641 10.77.641 9.871 0 16-3.832 16-10s-6.129-10-16-10c-2.941 0-8.938.287-10.77.641-1.719.326-3.449-.494-4.277-2.029-8.515-15.791-29.121-34.613-78.953-34.613z" fill="#4c241d"/></g><path d="m140 163.092c-2.211 0-4-1.791-4-4 0-15.619 1.793-30.41 5.184-42.773.586-2.131 2.781-3.383 4.918-2.799 2.129.584 3.383 2.785 2.801 4.916-3.207 11.684-4.902 25.742-4.902 40.656-.001 2.209-1.79 4-4.001 4z" fill="#4c241d"/><path d="m207.832 155.1c-2.133 0-3.902-1.684-3.992-3.834-.84-20.248-4.969-38.439-11.055-48.662-1.129-1.898-.508-4.352 1.391-5.482 1.895-1.127 4.355-.504 5.484 1.393 6.832 11.479 11.27 30.586 12.172 52.42.094 2.207-1.625 4.07-3.832 4.162-.055.001-.109.003-.168.003z" fill="#4c241d"/><g><path d="m168 95.092s-10.636 28.2-5.911 62.401" fill="#a9ba5a"/><path d="m162.086 161.492c-1.969 0-3.68-1.449-3.957-3.453-4.812-34.807 5.68-63.168 6.129-64.359.777-2.066 3.098-3.109 5.148-2.33 2.066.777 3.113 3.084 2.336 5.15-.102.273-10.211 27.732-5.691 60.445.305 2.188-1.227 4.207-3.414 4.51-.184.025-.371.037-.551.037z" fill="#4c241d"/></g><path d="m187.262 168.609c-.293 0-.586-.031-.883-.098-2.156-.486-3.508-2.627-3.023-4.781 2.996-13.309-3.141-35.33-3.203-35.551-.602-2.125.633-4.336 2.758-4.936 2.125-.596 4.34.629 4.938 2.758.277.98 6.758 24.189 3.312 39.486-.419 1.861-2.071 3.122-3.899 3.122z" fill="#4c241d"/><g><path d="m216 211.092c0-2-25.608-40-72-40s-80 34-80 40 33.608 36 80 36 72-34 72-36z" fill="#e66353"/><path d="m144 251.092c-46.207 0-84-30.199-84-40 0-8.904 36.73-44 84-44 48.938 0 76 39.83 76 44 0 5.365-28.781 40-76 40zm-75.883-40.035c3.027 6.309 33.285 32.035 75.883 32.035 38.98 0 62.812-25.268 67.516-32.092-4.602-7.514-28.465-35.908-67.516-35.908-41.883 0-72.934 29.117-75.883 35.965zm144.082 1.203h.043z" fill="#4c241d"/></g><g><path d="m92.594 219.092h-5.188c-4.09 0-7.406-3.316-7.406-7.406v-5.188c0-4.09 3.316-7.406 7.406-7.406h5.188c4.09 0 7.406 3.316 7.406 7.406v5.188c0 4.09-3.316 7.406-7.406 7.406z" fill="#fc8c29"/><path d="m92.594 223.092h-5.188c-6.289 0-11.406-5.117-11.406-11.406v-5.188c0-6.289 5.117-11.406 11.406-11.406h5.188c6.289 0 11.406 5.117 11.406 11.406v5.188c0 6.289-5.117 11.406-11.406 11.406zm-5.188-20c-1.879 0-3.406 1.527-3.406 3.406v5.188c0 1.879 1.527 3.406 3.406 3.406h5.188c1.879 0 3.406-1.527 3.406-3.406v-5.188c0-1.879-1.527-3.406-3.406-3.406z" fill="#4c241d"/></g><g><path d="m192.594 219.092h-5.188c-4.09 0-7.406-3.316-7.406-7.406v-5.188c0-4.09 3.316-7.406 7.406-7.406h5.188c4.09 0 7.406 3.316 7.406 7.406v5.188c0 4.09-3.316 7.406-7.406 7.406z" fill="#fc8c29"/><path d="m192.594 223.092h-5.188c-6.289 0-11.406-5.117-11.406-11.406v-5.188c0-6.289 5.117-11.406 11.406-11.406h5.188c6.289 0 11.406 5.117 11.406 11.406v5.188c0 6.289-5.117 11.406-11.406 11.406zm-5.188-20c-1.879 0-3.406 1.527-3.406 3.406v5.188c0 1.879 1.527 3.406 3.406 3.406h5.188c1.879 0 3.406-1.527 3.406-3.406v-5.188c0-1.879-1.527-3.406-3.406-3.406z" fill="#4c241d"/></g><g><path d="m112.594 231.092h-5.188c-4.09 0-7.406-3.316-7.406-7.406v-17.188c0-4.09 3.316-7.406 7.406-7.406h5.188c4.09 0 7.406 3.316 7.406 7.406v17.188c0 4.09-3.316 7.406-7.406 7.406z" fill="#fc8c29"/><path d="m112.594 235.092h-5.188c-6.289 0-11.406-5.117-11.406-11.406v-17.188c0-6.289 5.117-11.406 11.406-11.406h5.188c6.289 0 11.406 5.117 11.406 11.406v17.188c0 6.289-5.117 11.406-11.406 11.406zm-5.188-32c-1.879 0-3.406 1.527-3.406 3.406v17.188c0 1.879 1.527 3.406 3.406 3.406h5.188c1.879 0 3.406-1.527 3.406-3.406v-17.188c0-1.879-1.527-3.406-3.406-3.406z" fill="#4c241d"/></g><g><path d="m132.594 223.092h-5.188c-4.09 0-7.406-3.316-7.406-7.406v-25.188c0-4.09 3.316-7.406 7.406-7.406h5.188c4.09 0 7.406 3.316 7.406 7.406v25.188c0 4.09-3.316 7.406-7.406 7.406z" fill="#fc8c29"/><path d="m132.594 227.092h-5.188c-6.289 0-11.406-5.117-11.406-11.406v-25.188c0-6.289 5.117-11.406 11.406-11.406h5.188c6.289 0 11.406 5.117 11.406 11.406v25.188c0 6.289-5.117 11.406-11.406 11.406zm-5.188-40c-1.879 0-3.406 1.527-3.406 3.406v25.188c0 1.879 1.527 3.406 3.406 3.406h5.188c1.879 0 3.406-1.527 3.406-3.406v-25.188c0-1.879-1.527-3.406-3.406-3.406z" fill="#4c241d"/></g><g><path d="m152.594 239.092h-5.188c-4.09 0-7.406-3.316-7.406-7.406v-25.188c0-4.09 3.316-7.406 7.406-7.406h5.188c4.09 0 7.406 3.316 7.406 7.406v25.188c0 4.09-3.316 7.406-7.406 7.406z" fill="#fc8c29"/><path d="m152.594 243.092h-5.188c-6.289 0-11.406-5.117-11.406-11.406v-25.188c0-6.289 5.117-11.406 11.406-11.406h5.188c6.289 0 11.406 5.117 11.406 11.406v25.188c0 6.289-5.117 11.406-11.406 11.406zm-5.188-40c-1.879 0-3.406 1.527-3.406 3.406v25.188c0 1.879 1.527 3.406 3.406 3.406h5.188c1.879 0 3.406-1.527 3.406-3.406v-25.188c0-1.879-1.527-3.406-3.406-3.406z" fill="#4c241d"/></g><g><path d="m172.594 219.092h-5.188c-4.09 0-7.406-3.316-7.406-7.406v-17.188c0-4.09 3.316-7.406 7.406-7.406h5.188c4.09 0 7.406 3.316 7.406 7.406v17.188c0 4.09-3.316 7.406-7.406 7.406z" fill="#fc8c29"/><path d="m172.594 223.092h-5.188c-6.289 0-11.406-5.117-11.406-11.406v-17.188c0-6.289 5.117-11.406 11.406-11.406h5.188c6.289 0 11.406 5.117 11.406 11.406v17.188c0 6.289-5.117 11.406-11.406 11.406zm-5.188-32c-1.879 0-3.406 1.527-3.406 3.406v17.188c0 1.879 1.527 3.406 3.406 3.406h5.188c1.879 0 3.406-1.527 3.406-3.406v-17.188c0-1.879-1.527-3.406-3.406-3.406z" fill="#4c241d"/></g></g></svg>