<svg id="coconut" enable-background="new 0 0 300 300" height="512" viewBox="0 0 300 300" width="512" xmlns="http://www.w3.org/2000/svg"><g><circle cx="116.142" cy="64.791" fill="#4c241d" r="4.276"/><circle cx="175.2" cy="135.6" fill="#fff0fd" r="86"/><path d="m232.203 98.619c-1.023 0-2.047-.391-2.828-1.172l-12-12c-1.562-1.562-1.562-4.094 0-5.656s4.094-1.562 5.656 0l12 12c1.562 1.562 1.562 4.094 0 5.656-.781.781-1.804 1.172-2.828 1.172z" fill="#4c241d"/><path d="m220.203 98.619c-1.023 0-2.047-.391-2.828-1.172-1.562-1.562-1.562-4.094 0-5.656l12-12c1.562-1.562 4.094-1.562 5.656 0s1.562 4.094 0 5.656l-12 12c-.781.781-1.804 1.172-2.828 1.172z" fill="#4c241d"/><circle cx="182" cy="86.4" fill="#4c241d" r="4"/><g><path d="m190 174.4c0-39.764-48.236-72-88-72s-72 32.235-72 72 32.235 72 72 72 88-32.235 88-72z" fill="#bf7e68"/><path d="m102 250.4c-41.906 0-76-34.094-76-76s34.094-76 76-76c41.672 0 92 33.9 92 76s-50.328 76-92 76zm0-144c-37.496 0-68 30.504-68 68s30.504 68 68 68c46.531 0 84-37.199 84-68s-37.469-68-84-68z" fill="#4c241d"/></g><g><path d="m154 174.4c0-33.137-28.686-60-58-60s-62 26.863-62 60 32.686 60 62 60 58-26.863 58-60z" fill="#fff"/><path d="m96 238.4c-30.52 0-66-27.957-66-64s35.48-64 66-64c33.027 0 62 29.906 62 64s-28.973 64-62 64zm0-120c-32.664 0-58 30.104-58 56s25.336 56 58 56c28.262 0 54-26.691 54-56s-25.738-56-54-56z" fill="#4c241d"/></g><g><path d="m127.636 170.052c-10.628-18.598-18.401-31.652-35.917-31.652s-35.499 23.25-35.499 35.853c0 19.801 29.407 42.009 29.407 42.009s58.812-16.804 42.009-46.21z" fill="#ccc"/><path d="m85.625 220.261c-.859 0-1.707-.277-2.41-.809-1.266-.955-30.996-23.654-30.996-45.199 0-14.637 19.52-39.854 39.5-39.854 20.152 0 29.066 15.602 39.391 33.668 4.004 7.01 4.633 14.008 1.867 20.801-8.215 20.166-44.703 30.797-46.254 31.238-.36.105-.731.155-1.098.155zm6.094-77.861c-14.812 0-31.5 20.779-31.5 31.854 0 13.67 17.652 30.684 26.234 37.578 10.695-3.395 33.867-13.078 39.117-25.986 1.812-4.461 1.352-8.979-1.406-13.809-10.816-18.928-17.656-29.637-32.445-29.637z" fill="#4c241d"/></g><path d="m108.516 146.812c-1.129 0-2.25-.477-3.043-1.402-1.434-1.68-1.234-4.205.445-5.639l10.16-8.676c1.676-1.434 4.203-1.238 5.641.443 1.434 1.68 1.234 4.205-.445 5.639l-10.16 8.676c-.755.645-1.677.959-2.598.959z" fill="#4c241d"/><path d="m55.719 177.548c-.031 0-.062 0-.094-.002l-10.66-.248c-2.207-.051-3.957-1.883-3.906-4.092.051-2.207 1.816-4.051 4.094-3.904l10.66.248c2.207.051 3.957 1.883 3.906 4.092-.051 2.176-1.832 3.906-4 3.906z" fill="#4c241d"/><path d="m116.945 153.754c-1.352 0-2.668-.682-3.422-1.92-1.148-1.887-.551-4.348 1.336-5.496l21.566-13.137c1.906-1.15 4.355-.549 5.5 1.336 1.148 1.887.551 4.348-1.336 5.496l-21.566 13.137c-.652.396-1.371.584-2.078.584z" fill="#4c241d"/><g><path d="m201.31 210.4c-13.045 0-25.211-2.944-35.598-8h-31.712c6.365 25.104 34.079 44 67.311 44 33.23 0 62.324-18.896 68.689-44h-32.621c-10.645 5.056-23.025 8-36.069 8z" fill="#fff"/><path d="m201.312 250.4c-34.34 0-64.281-19.773-71.191-47.016-.301-1.197-.035-2.467.723-3.441.758-.973 1.922-1.543 3.156-1.543h31.711c.605 0 1.203.139 1.75.402 20.477 9.967 47.273 9.924 68.203-.016.535-.254 1.121-.387 1.715-.387h32.621c1.234 0 2.398.57 3.156 1.543.758.975 1.023 2.244.723 3.441-6.91 27.244-37.43 47.017-72.567 47.017zm-61.835-44c8.254 21.137 33.297 36 61.836 36 28.773 0 54.832-15.158 63.184-36h-26.227c-22.668 10.455-51.23 10.49-73.469 0z" fill="#4c241d"/></g><g fill="#4c241d"><path d="m241.402 217.99c-1.602 0-3.117-.973-3.73-2.559l-4.027-10.406c-.797-2.061.227-4.377 2.285-5.174 2.066-.795 4.375.225 5.176 2.287l4.027 10.406c.797 2.061-.227 4.377-2.285 5.174-.477.184-.965.272-1.446.272z"/><path d="m191.73 247.859c-.258 0-.52-.023-.781-.076-2.168-.43-3.574-2.533-3.148-4.701l6.379-32.221c.43-2.166 2.535-3.586 4.703-3.146 2.168.43 3.574 2.533 3.148 4.701l-6.379 32.221c-.379 1.904-2.05 3.222-3.922 3.222z"/><path d="m182.328 224.703c-.445 0-.898-.076-1.344-.234-2.082-.744-3.168-3.031-2.422-5.113l3.355-9.398c.738-2.078 3.012-3.172 5.109-2.422 2.082.744 3.168 3.031 2.422 5.113l-3.355 9.398c-.581 1.634-2.12 2.656-3.765 2.656z"/><path d="m216 150.4c-7.719 0-14-6.281-14-14s6.281-14 14-14 14 6.281 14 14-6.281 14-14 14zm0-20c-3.309 0-6 2.691-6 6s2.691 6 6 6 6-2.691 6-6-2.691-6-6-6z"/></g></g></svg>