<svg id="ginger" enable-background="new 0 0 300 300" height="512" viewBox="0 0 300 300" width="512" xmlns="http://www.w3.org/2000/svg"><g><circle cx="73.479" cy="47.185" fill="#4c241d" r="4.276"/><circle cx="173.082" cy="165.092" fill="#fff0fd" r="92"/><g fill="#4c241d"><path d="m225.082 221.092c-6.617 0-12-5.383-12-12s5.383-12 12-12 12 5.383 12 12-5.383 12-12 12zm0-16c-2.207 0-4 1.795-4 4s1.793 4 4 4 4-1.795 4-4-1.793-4-4-4z"/><path d="m237.082 173.092c-1.023 0-2.047-.391-2.828-1.172l-12-12c-1.562-1.562-1.562-4.094 0-5.656s4.094-1.562 5.656 0l12 12c1.562 1.562 1.562 4.094 0 5.656-.781.781-1.805 1.172-2.828 1.172z"/><path d="m225.082 173.092c-1.023 0-2.047-.391-2.828-1.172-1.562-1.562-1.562-4.094 0-5.656l12-12c1.562-1.562 4.094-1.562 5.656 0s1.562 4.094 0 5.656l-12 12c-.781.781-1.805 1.172-2.828 1.172z"/><path d="m61.082 149.092c-1.023 0-2.047-.391-2.828-1.172l-12-12c-1.562-1.562-1.562-4.094 0-5.656s4.094-1.562 5.656 0l12 12c1.562 1.562 1.562 4.094 0 5.656-.781.781-1.805 1.172-2.828 1.172z"/><path d="m49.082 149.092c-1.023 0-2.047-.391-2.828-1.172-1.562-1.562-1.562-4.094 0-5.656l12-12c1.562-1.562 4.094-1.562 5.656 0s1.562 4.094 0 5.656l-12 12c-.781.781-1.805 1.172-2.828 1.172z"/><circle cx="197.479" cy="179.185" r="4.276"/></g><g><path d="m249.453 75.824c-7.367-4.895-17.297-2.885-22.18 4.477-9.129 13.749-19.654 18.217-27.873 19.299 3.371-9.705 5.969-19.952 7.564-30.775 1.289-8.742-4.754-16.873-13.496-18.16-8.707-1.301-16.871 4.754-18.16 13.496-5.61 38.064-26.984 68.315-50.6 90.926-10.31-25.781-8.602-40.548-4.807-48.633 5.059-10.773 15.738-13.525 16.52-13.713 8.551-1.824 14.07-10.189 12.348-18.787-1.73-8.662-10.148-14.277-18.824-12.551-2.684.537-26.547 5.951-38.613 30.623-10.586 21.647-7.971 50.028 7.725 84.433-26.398 19.26-49.52 28.951-50.155 29.211-8.184 3.32-12.129 12.643-8.816 20.828 2.52 6.225 8.512 10.002 14.836 10.002 2 0 4.031-.377 6-1.172 1.892-.766 19.105-7.918 41.137-21.937 1.453 1.683 3.167 3.288 5.184 4.734 6.352 4.553 14.293 6.822 23.988 6.822 7.371 0 15.762-1.312 25.238-3.936 8.516-2.355 13.512-11.17 11.156-19.686-2.352-8.516-11.164-13.523-19.688-11.154-8.506 2.351-13.988 2.825-17.383 2.719 19.515-15.871 39.38-36.386 54.231-61.793 3.061.475 6.356.792 9.901.792 18.184 0 41.652-7.396 59.242-33.885 4.892-7.361 2.884-17.293-4.475-22.18z" fill="#d9be6f"/><path d="m54.922 240.5c-8.191 0-15.469-4.906-18.543-12.502-4.133-10.213.809-21.893 11.02-26.035.203-.084 21.492-8.916 46.68-26.844-15.012-34.217-17.145-62.752-6.34-84.852 12.91-26.393 38.543-32.211 41.422-32.787 10.797-2.154 21.375 4.883 23.531 15.689 2.141 10.676-4.785 21.211-15.434 23.482-.289.07-9.441 2.361-13.734 11.5-3.016 6.418-4.785 18.414 2.758 39.773 25.461-25.762 40.613-54.113 45.07-84.35.781-5.289 3.578-9.959 7.883-13.15 4.293-3.182 9.555-4.502 14.824-3.719 5.277.777 9.945 3.568 13.129 7.855 3.188 4.287 4.516 9.561 3.734 14.846-1.215 8.246-3.059 16.492-5.504 24.602 7.023-2.621 13.234-7.953 18.523-15.922 2.953-4.449 7.461-7.484 12.699-8.543 5.234-1.047 10.574-.01 15.027 2.947 4.449 2.955 7.48 7.467 8.539 12.701 1.059 5.238.012 10.574-2.945 15.023-20.609 31.037-48.051 35.672-62.574 35.672-2.574 0-5.152-.154-7.816-.469-11.137 18.473-25.738 35.846-43.523 51.805 1.105-.262 2.277-.562 3.523-.908 5.141-1.432 10.535-.768 15.184 1.863 4.656 2.635 8.004 6.926 9.426 12.082 2.941 10.627-3.316 21.666-13.945 24.605-23.105 6.398-40.469 5.221-52.625-3.49-1.223-.881-2.387-1.838-3.477-2.865-21.117 13.141-37.18 19.783-39.012 20.523-2.407.976-4.93 1.468-7.5 1.468zm78.156-175.406c-.777 0-1.562.074-2.352.232-2.48.496-24.582 5.516-35.801 28.457-10.02 20.488-7.406 47.746 7.773 81.016.785 1.729.25 3.771-1.281 4.891-27.102 19.771-50.762 29.584-50.996 29.682-6.141 2.49-9.109 9.498-6.629 15.627 1.844 4.557 6.215 7.502 11.129 7.502 1.539 0 3.055-.297 4.504-.881 1.836-.744 18.609-7.684 40.484-21.604 1.684-1.066 3.879-.744 5.176.762 1.32 1.527 2.832 2.906 4.488 4.098 10.168 7.289 25.152 8.006 45.828 2.281 6.379-1.764 10.133-8.387 8.367-14.764-.855-3.096-2.863-5.67-5.656-7.25-2.789-1.58-6.023-1.969-9.105-1.117-7.434 2.055-13.703 2.994-18.578 2.863-1.672-.053-3.129-1.137-3.664-2.719s-.031-3.33 1.266-4.383c22.531-18.324 40.465-38.75 53.301-60.707.828-1.418 2.418-2.188 4.066-1.936 3.23.5 6.27.744 9.289.744 12.922 0 37.363-4.17 55.91-32.098 1.773-2.67 2.402-5.871 1.766-9.014-.633-3.141-2.453-5.848-5.121-7.621-.004 0-.004 0-.004 0-2.668-1.775-5.859-2.395-9.016-1.77-3.141.635-5.844 2.455-7.617 5.125-10.23 15.41-22.332 19.955-30.68 21.053-1.402.186-2.75-.363-3.625-1.438-.875-1.076-1.133-2.527-.676-3.838 3.41-9.834 5.895-19.943 7.383-30.047.469-3.172-.328-6.336-2.238-8.908-1.914-2.572-4.711-4.246-7.883-4.713-3.164-.469-6.309.318-8.887 2.23-2.586 1.916-4.266 4.719-4.734 7.893-4.969 33.717-22.395 65.086-51.793 93.23-.957.918-2.312 1.301-3.613 1.021-1.297-.283-2.371-1.191-2.867-2.426-11.039-27.609-8.656-43.418-4.711-51.816 5.809-12.371 17.852-15.578 19.207-15.902 6.488-1.387 10.645-7.707 9.359-14.113-1.136-5.693-6.164-9.642-11.769-9.642z" fill="#4c241d"/></g><g><path d="m121.351 76.258c.393 2.683 1.358 6.461 3.73 8.833" fill="#d9be6f"/><path d="m125.082 89.092c-1.023 0-2.047-.391-2.828-1.172-3.129-3.131-4.371-7.754-4.859-11.08-.32-2.186 1.191-4.219 3.375-4.539 2.227-.336 4.215 1.191 4.539 3.375.445 3.014 1.367 5.354 2.602 6.588 1.563 1.562 1.563 4.094 0 5.656-.782.781-1.806 1.172-2.829 1.172z" fill="#4c241d"/></g><g><path d="m101.082 101.092s7.604 7.712 17.802 7.856" fill="#d9be6f"/><path d="m118.882 112.947c-.02 0-.035 0-.055 0-11.707-.164-20.238-8.686-20.594-9.047-1.551-1.574-1.535-4.107.039-5.658 1.574-1.541 4.098-1.533 5.648.031.066.066 6.648 6.557 15.016 6.674 2.211.031 3.977 1.848 3.945 4.057-.03 2.189-1.815 3.943-3.999 3.943z" fill="#4c241d"/></g><g><path d="m85.082 121.092s4 8 20 8" fill="#d9be6f"/><path d="m105.082 133.092c-17.953 0-23.055-9.166-23.578-10.211-.988-1.977-.188-4.379 1.789-5.367 1.949-.975 4.312-.209 5.324 1.707.223.377 3.68 5.871 16.465 5.871 2.211 0 4 1.791 4 4s-1.789 4-4 4z" fill="#4c241d"/></g><g><path d="m101.082 153.092 8-4" fill="#d9be6f"/><path d="m101.086 157.092c-1.469 0-2.879-.809-3.582-2.211-.988-1.977-.188-4.379 1.789-5.367l8-4c1.977-.986 4.375-.188 5.367 1.789.988 1.977.188 4.379-1.789 5.367l-8 4c-.574.287-1.184.422-1.785.422z" fill="#4c241d"/></g><g><path d="m225.082 101.092s-.041 7.393 11.979 15.697" fill="#d9be6f"/><path d="m237.058 120.789c-.785 0-1.574-.23-2.27-.709-13.375-9.238-13.711-18.039-13.707-19.012.012-2.201 1.801-3.977 4-3.977h.023c2.168.012 3.926 1.75 3.977 3.904.027.316.703 5.906 10.254 12.502 1.816 1.256 2.273 3.746 1.02 5.564-.777 1.125-2.027 1.728-3.297 1.728z" fill="#4c241d"/></g><g><path d="m201.082 109.092s0 8 4 12" fill="#d9be6f"/><path d="m205.082 125.092c-1.023 0-2.047-.391-2.828-1.172-5.027-5.025-5.172-13.84-5.172-14.828 0-2.209 1.789-4 4-4 2.207 0 3.992 1.785 4 3.988.008 1.658.547 6.904 2.828 9.184 1.562 1.562 1.562 4.094 0 5.656-.781.781-1.805 1.172-2.828 1.172zm0-16h.039z" fill="#4c241d"/></g><g><path d="m55.627 215.274s.029 13.301 10.196 17.923" fill="#d9be6f"/><path d="m65.82 237.199c-.551 0-1.113-.117-1.652-.361-12.363-5.621-12.539-20.908-12.539-21.557-.004-2.209 1.781-4.004 3.992-4.008h.008c2.199 0 3.988 1.777 4 3.977 0 .107.195 10.824 7.852 14.307 2.012.914 2.898 3.285 1.984 5.297-.668 1.472-2.122 2.345-3.645 2.345z" fill="#4c241d"/></g><g><path d="m69.864 195.163s1.399 10.656 7.581 15.747" fill="#d9be6f"/><path d="m77.441 214.91c-.895 0-1.793-.299-2.539-.912-7.312-6.025-8.938-17.814-9.004-18.314-.289-2.189 1.254-4.199 3.441-4.486 2.246-.295 4.199 1.254 4.488 3.443.348 2.549 2.129 9.861 6.16 13.182 1.707 1.406 1.949 3.926.543 5.631-.788.96-1.933 1.456-3.089 1.456z" fill="#4c241d"/></g><g><path d="m124.709 155.086 5.1 11.824" fill="#d9be6f"/><path d="m129.808 170.912c-1.547 0-3.02-.906-3.672-2.418l-5.102-11.824c-.875-2.027.059-4.381 2.086-5.256 2.027-.881 4.379.057 5.258 2.088l5.102 11.824c.875 2.027-.059 4.381-2.086 5.256-.519.225-1.055.33-1.586.33z" fill="#4c241d"/></g><g><path d="m135.304 207.314s-2.667 6.667.444 15.556" fill="#d9be6f"/><path d="m135.75 226.871c-1.652 0-3.199-1.031-3.773-2.68-3.57-10.188-.516-18.035-.387-18.363.824-2.055 3.168-3.051 5.199-2.227 2.043.816 3.039 3.125 2.242 5.168-.102.271-2.027 5.58.492 12.777.73 2.086-.367 4.367-2.453 5.098-.434.153-.883.227-1.32.227z" fill="#4c241d"/></g><g><path d="m166.859 132.647s-10.079-2.434-15.039-9.439" fill="#d9be6f"/><path d="m166.863 136.647c-.312 0-.629-.035-.941-.111-.473-.113-11.605-2.879-17.367-11.016-1.277-1.805-.848-4.301.953-5.576 1.809-1.283 4.301-.85 5.578.951 4.008 5.662 12.637 7.844 12.723 7.865 2.141.529 3.453 2.691 2.934 4.834-.45 1.828-2.079 3.053-3.88 3.053z" fill="#4c241d"/></g><g><path d="m143.748 150.425s2.222 5.333 7.111 7.111" fill="#d9be6f"/><path d="m150.859 161.539c-.453 0-.918-.078-1.367-.244-6.352-2.312-9.137-8.619-9.434-9.33-.852-2.039.113-4.381 2.152-5.23 2.027-.854 4.367.102 5.223 2.133.457 1.051 2.203 3.967 4.793 4.912 2.078.756 3.148 3.051 2.391 5.127-.59 1.622-2.125 2.632-3.758 2.632z" fill="#4c241d"/></g><path d="m189.082 85.092h-4c-2.211 0-4-1.791-4-4s1.789-4 4-4h4c2.211 0 4 1.791 4 4s-1.789 4-4 4z" fill="#4c241d"/></g></svg>