<svg id="Capa_1" enable-background="new 0 0 512 512" height="512" viewBox="0 0 512 512" width="512" xmlns="http://www.w3.org/2000/svg"><g><g><path clip-rule="evenodd" d="m194.4 33c-235.2 0-249.1 354.4-37.4 391.7 1.5-3.2 31.4 1 34.1-2.2 9.7-12 27.5-28 39.9-34.3-.6-.4 18.1-354.4 55.9-355.1h-92.5z" fill="#c86d35" fill-rule="evenodd"/></g><g><path clip-rule="evenodd" d="m200.9 70.3c-32.2 6.4-52.3 40.6-49.4 82.4 2 29.7.8 49.7-8.9 58.1-22.8 19.7-18.3 71.3 20.7 97.1 28.2 18.7-9.7 52 30.7 79.1.6.4 1.2.8 1.8 1.2 17.9 20.8 27.2 24.1 54.5 20.5 13.2-1.7 29.5-6.4 46.2-8 22.1-2.1 38.9 3.2 49.8-4.5 12.4-8.7 25.7-21 46.1-24.6 8.2-1.4 16.8-45.4 23.5-44.7 18.2-15.2 35.4-31.3 26.5-46.9-18.9-32.9 7.6-45.8 6.2-57.5-2.3-19.3-11.2-14.3-13.4-45.6-2.6-37.9-3.2-73-31.6-80.3-26.8-6.8-44.9-31.1-58.3-45.2-17.7-18.5-44.3-18.2-55-18.4h-3.3c-37.9.8-44.9 29.1-86.1 37.3z" fill="#fed1a3" fill-rule="evenodd"/></g><g><path clip-rule="evenodd" d="m184.5 467c-31.1-6.8-39.4-29.7-21.2-52.1 29.3-36.1 65-40.8 141.7-48.2 47.1-4.6 50.3-32 88.8-38.8 43.2-7.7 64 15.7 86.8 58 9.1 16.9 56.6 67.5-15 81-65.4 12.5-192.6 19.6-281.1.1z" fill="#ffe5c1" fill-rule="evenodd"/></g><g><path clip-rule="evenodd" d="m379.2 332c27.1 4.1 43.7 25.6 61.6 58.7 9.1 16.9 56.6 67.6-14.9 81.1-5.8 1.1-12 2.1-18.7 3.1 22.2-2.1 42.2-4.8 58.4-7.9 71.5-13.5 24.1-64.2 15-81-18.6-34.3-35.7-56.2-64.6-59.1-6.7-.7-14.1-.3-22.2 1.1-5.5.9-10.3 2.3-14.6 4z" fill="#fed1a3" fill-rule="evenodd"/></g><g><path clip-rule="evenodd" d="m345.2 51.5c-1.1-1.2 20.6 17.8 38.6 52.2 7.1 13.7 13.7 29.8 18.1 48 5.6 23.5.3 57.8-1.9 84.7-1.2 15.1 7.8 30.4 2.4 45.6-9.3 26.4-38 52.4-66.2 76.3 5.3-2.6 9.9-5.5 14.1-8.6 12.4-8.7 22.9-18.2 43.3-21.8 8.2-1.4 15.5-1.8 22.2-1.1 18.2-15.2 35.4-31.3 26.5-46.9-18.9-32.9 7.6-45.8 6.2-57.5-2.3-19.3-11.2-14.3-13.4-45.6-2.6-37.9-3.2-73-31.6-80.3-26.7-6.7-44.8-31-58.3-45z" fill="#ffbc85" fill-rule="evenodd"/></g><g><path clip-rule="evenodd" d="m95 220-19.6-9.1c-10.4-4.8-12.5-5.5-23.5-1.6l-44.3 15.8c-.1 6.3-.1 12.5.3 18.8l24.1 6.5c14 3.8 17.2 2.5 31.6 1.3 14.6-1.3 14.1 1.1 27 8.3 7.8 4.4 6.9 4.2 15.8 4.7l25.7 1.5c-5.9-19.2-3.4-38.8 6.4-51l-23.6 4.9c-9.1 1.8-11.7 3.7-19.9-.1z" fill="#ac5d2c" fill-rule="evenodd"/></g><g><path clip-rule="evenodd" d="m148.6 360.6h26.1c-2.9-14.7 2.8-29.3-1.6-41.1h-28.5c-7.1 0-7.5-.2-14.1 3.2-5.8 3-9.3 5.4-18.2 3.8l-38-9.9c-8.4-2.5-15.2-.7-23 4.2l-19.7 11.8c4.2 8.1 9 15.9 14.4 23.3l28-.7c14.5-1.2 24.5 10.5 34.5 13.3 4.3 1.2 14.6-4.5 17.2-5.7 5.8-2.6 17.1-2.3 22.9-2.2z" fill="#ac5d2c" fill-rule="evenodd"/></g><g><path clip-rule="evenodd" d="m29.7 133c9.1 1.2 23.1 2.1 33.6 2.2 5.3.1 9.7-.1 12-.5l28-6.6c8.5-1.8 12.1-2.3 22.1 2.8l25.9 13.4c.1-16 3.6-30.6 9.9-42.6l-50.5-9.4c-8-.5-8.9-.7-16.7 1.4l-48.8 13.1c-5.9 8.3-11.1 17.1-15.5 26.2z" fill="#ac5d2c" fill-rule="evenodd"/></g><g><path d="m236.6 153.8c-2.8-3.1-7.6-3.3-10.7-.5s-3.3 7.6-.5 10.7l25.6 28c1.5 1.6 3.5 2.5 5.6 2.5 1.8 0 3.6-.6 5.1-2 3.1-2.8 3.3-7.6.5-10.7z"/><path d="m322.6 103.9c-3.9-1.4-8.3.6-9.7 4.5l-13.2 35.8-20.1-36.1c-2-3.6-6.6-5-10.3-2.9-3.6 2-5 6.6-2.9 10.3l28.1 50.5c1.3 2.4 3.9 3.9 6.6 3.9h.6c2.9-.2 5.5-2.2 6.5-4.9l18.9-51.3c1.4-4-.6-8.4-4.5-9.8z"/><path d="m245.6 221.8-41.3-19c-3.8-1.7-8.3-.1-10 3.7s-.1 8.3 3.7 10l31.7 14.6-25.9 27.2c-2.9 3-2.8 7.8.3 10.7 1.5 1.4 3.3 2.1 5.2 2.1 2 0 4-.8 5.5-2.4l33.1-34.9c1.7-1.8 2.4-4.2 1.9-6.6s-2-4.3-4.2-5.4z"/><path d="m382.6 202.4-36.1-10.1 26.5-30.6c2.7-3.2 2.4-7.9-.8-10.7-3.2-2.7-7.9-2.4-10.7.8l-34.3 39.6c-1.7 2-2.3 4.6-1.5 7.1.7 2.5 2.7 4.4 5.2 5.1l47.6 13.3c.7.2 1.4.3 2 .3 3.3 0 6.3-2.2 7.3-5.5 1.2-4-1.2-8.2-5.2-9.3z"/><path d="m341.5 255.9c-1.8-3.8-6.3-5.4-10.1-3.6s-5.4 6.3-3.6 10.1l16.2 34.3c1.3 2.7 4 4.3 6.8 4.3 1.1 0 2.2-.2 3.2-.7 3.8-1.8 5.4-6.3 3.6-10.1z"/><path d="m353.9 403.5v-.7c0-4.2-3.4-7.6-7.6-7.6s-7.6 3.4-7.6 7.6v.7c0 4.2 3.4 7.6 7.6 7.6s7.6-3.4 7.6-7.6z"/><path d="m253.3 422.5v.7c0 4.2 3.4 7.6 7.6 7.6s7.6-3.4 7.6-7.6v-.7c0-4.2-3.4-7.6-7.6-7.6s-7.6 3.4-7.6 7.6z"/><path d="m411.3 440.1v-.7c0-4.2-3.4-7.6-7.6-7.6s-7.6 3.4-7.6 7.6v.7c0 4.2 3.4 7.6 7.6 7.6s7.6-3.4 7.6-7.6z"/><path d="m492.6 390.9c-2.3-3.4-4.3-6.4-5.4-8.4-16.4-30.4-32.3-51.5-55-59.6 13.9-12.8 26.7-29.2 16.7-46.5-10.6-18.5-4.6-28.2 1.3-37.6 3.3-5.3 6.6-10.7 5.9-17.1-1.2-9.8-4-14.7-6.5-19-2.8-4.9-5.8-10-6.9-26.2-.2-2.3-.3-4.5-.5-6.7-1.2-18.1-2.3-35.2-6.8-49.2-5.4-17.2-15.3-27.4-30.1-31.1-20.4-5.2-35.7-22.1-47.9-35.6-2.4-2.6-4.6-5.1-6.8-7.4-19.2-20.1-47.2-20.6-59.1-20.8h-97.2c-13.4 0-26.4 1.1-38.7 3.3-4.1.7-6.8 4.7-6.1 8.8.7 3.7 3.8 6.2 7.4 6.2.4 0 .9 0 1.3-.1 11.4-2 23.5-3.1 36-3.1h49.5c-1.7 1.2-3.3 2.3-5 3.5-10.6 7.5-21.6 15.3-39.4 18.8-17.9 3.6-32.5 14.6-42.3 30.4l-45-8.6c-.3-.1-.6-.1-.9-.1l-1.4-.1c-7.5-.5-9.5-.5-17.7 1.7l-26.8 7.2c15.8-17 35.5-31.1 59.6-40.6 3.9-1.5 5.8-5.9 4.3-9.8s-5.9-5.8-9.8-4.3c-41.4 16.4-74.3 47-95.3 88.6-19.2 37.9-27.3 83.2-22.8 127.7 4.4 43.1 19.8 82.2 44.7 113 25.7 31.8 60.5 53.1 101.2 62.2-1.4 6.2-1.1 12.3.9 18.1 4.5 12.8 16.9 22 34.9 25.9 31.5 6.9 69.5 11 112.9 12 4.2.1 7.6-3.2 7.7-7.4s-3.2-7.6-7.4-7.7c-42.4-1-79.4-4.9-110-11.6-12.7-2.8-21.2-8.5-23.9-16.2-1.6-4.6-1-9.9 1.6-15.5v-.1c1.3-2.7 3-5.4 5.3-8.2 27.3-33.6 59.6-38 136.5-45.5 27.6-2.7 41.8-13 54.2-22.1 10.3-7.5 19.2-14 35.1-16.8 38.3-6.8 56.6 12.9 78.9 54.2 1.5 2.7 3.6 6 6.2 9.7 8.3 12.3 20.8 30.9 15.6 43.4-4.1 9.8-19.4 14.6-31.5 16.9-35.2 6.7-84.7 11.1-132.3 11.8-4.2.1-7.5 3.5-7.4 7.7.1 4.1 3.4 7.4 7.6 7.4h.1c48.5-.8 98.9-5.3 134.9-12.1 23.2-4.4 37.1-12.8 42.6-25.9 8.3-19.9-6.9-42.5-17-57.5zm-396.7-289.9c6.1-1.6 6.4-1.6 12.8-1.2l1 .1 40.6 7.5c-2.9 7.6-4.9 16-5.9 24.9l-15.6-8.1c-12.1-6.3-17.6-5.5-27.1-3.5-.1 0-.1 0-.2 0l-27.7 6.5c-1 .1-3.8.4-10.5.3-7-.1-15-.5-22-1 2.5-4.5 5.2-8.8 8.1-13zm-61.9 40.1c8.6.9 19.8 1.5 29.2 1.6 6.1.1 10.6-.1 13.3-.6.2 0 .4-.1.5-.1l27.9-6.6c7.5-1.6 9.1-1.9 16.9 2.2l21.9 11.4c.1 1.4.1 2.8.2 4.2 1.4 20.4 2 44.8-6.3 51.9-1.2 1-2.2 2.1-3.3 3.2l-21.1 4.4c-1.8.4-3.3.7-4.6 1-5.3 1.2-6.2 1.5-10.6-.5l-19.6-9.1c-12.1-5.6-16.3-6.5-29.3-1.8l-33.5 12c2-24.9 7.9-50 18.4-73.2zm7.8 194.3 13.4-8.1s.1 0 .1-.1c6.8-4.2 11.2-5.1 16.9-3.4.1 0 .2 0 .2.1l38 9.9c.2.1.4.1.6.1 10.7 1.9 16.4-1.1 21.8-4l1.1-.6c4.5-2.3 4.5-2.3 9.5-2.3h23.7c.4 3.6.1 7.8-.2 12.9-.3 4-.6 8.5-.5 13.2h-17.7-.6c-8.9-.2-18.9-.1-25.5 2.9-.4.2-1.1.5-1.9.9-6.6 3.3-9.4 4.1-10.6 4.3-2.6-.8-5.6-2.6-8.8-4.6-7.2-4.3-16.1-9.7-27.6-8.8l-23.8.6c-2.9-4.3-5.6-8.6-8.1-13zm101.6-23.5c-7.4 0-9.2.3-16.5 4l-1.2.6c-4.6 2.5-6.4 3.4-11.9 2.5l-37.6-9.7c-12.5-3.6-21.6.5-29 5l-12.6 7.5c-10.3-22.1-16.3-45.6-18.6-67.9l13.7 3.7c13.1 3.6 18.2 3.1 28.2 2.1 1.8-.2 3.8-.4 6-.6 9.1-.8 9.7-.4 15.8 3.3 1.8 1.1 4 2.5 6.9 4.1l1.5.8c7.1 4 8.2 4.3 16.9 4.8l21.2 1.2c5.7 15.1 15.9 28.6 29.5 38.5h-12.3zm-21.9-61.5c.2 2.6.5 5.2.9 7.7l-16.2-.9c-3.1-.2-4.9-.3-5.8-.5-.8-.2-2-.9-4.5-2.3l-1.5-.9c-2.6-1.4-4.6-2.7-6.3-3.8-8.3-5.1-12-6.6-25-5.5-2.3.2-4.4.4-6.2.6-9.2.9-12.3 1.2-22.8-1.6l-18.9-5.2c-.1-2.5-.1-5-.1-7.6l39.2-14c8.4-3 8.4-3 17.8 1.3l19.6 9.1c8.7 4 13.4 3.2 20.4 1.5 1.3-.3 2.6-.6 4.2-.9l8-1.7c-2.4 7.5-3.4 15.8-2.8 24.7zm35.9 159.8c-1.6 2-3.1 4-4.3 6.1-40.1-8.2-70.2-27.9-91.9-53.1l12.9-.3h.4c6.8-.6 12.7 3 18.8 6.7 4.1 2.5 8.4 5.1 13 6.3 1 .3 2.2.4 3.3.4 5.3 0 11.6-2.8 17.6-5.8.6-.3 1.1-.5 1.5-.7 4-1.8 14.4-1.6 18.9-1.5h.7.1 20.6c2.3 6.5 6.3 13 13.2 19.2-9.1 6-17.2 13.4-24.8 22.7zm235-89.6c-19.3 3.4-30.5 11.6-41.4 19.4-12 8.7-23.3 16.9-46.8 19.2-12.8 1.2-24.3 2.4-34.9 3.6l14.6-92c.7-4.1-2.2-8-6.3-8.7s-8 2.2-8.6 6.3l-15.3 96.4c-15.1 2.1-28 4.6-39.5 8-6.3 1.9-12.2 4.1-17.7 6.6-16.6-12-15.7-24.2-14.6-38.4 1-12.7 2.1-28.5-14.4-39.5-18.1-12-29.6-31.4-30.9-52.2-.9-13.9 3.2-26.2 11-32.9 12.5-10.7 13.6-33.5 11.5-64.3-2.7-38.2 15.2-68.8 43.3-74.4 21-4.2 33.9-13.3 45.2-21.3 12.8-9.1 22.9-16.2 42.5-15.8h1.2c10.9.2 33.6.6 48.4 16.1 2 2.1 4.2 4.5 6.5 7.1 12.9 14.3 30.6 33.8 55.4 40.1 20.4 5.2 23 28.7 25.5 66.7.1 2.2.3 4.5.5 6.8 1.4 19.7 5.5 26.9 8.9 32.7 2.2 3.8 3.8 6.6 4.6 13.2.1 1.2-2.2 4.9-3.7 7.3-6.2 10-16.6 26.8-1.5 53.1 5.1 8.9-4.6 20.2-22.4 35.3-6.5-.3-13.5.2-21.1 1.6z"/></g></g></svg>