<svg id="Capa_1" enable-background="new 0 0 512 512" height="512" viewBox="0 0 512 512" width="512" xmlns="http://www.w3.org/2000/svg"><g><g><path clip-rule="evenodd" d="m26.543 469.915c48.486-215.347 106.891-366.28 345.527-411.679-7.878-27.347-48.487-16.918-73.339-9.664-10.428 3.032-20.829 5.724-30.492 3.826-28.565-5.526-41.345-1.219-58.887 32.051-13.631 25.788-28.905-7.737-32.731-18.024-11.505-30.974-37.378-25.533-32.504 12.781 1.502 11.647 9.267 44.18 1.304 59.71-5.866 11.449-25.249 22.161-32.787-16.89-5.328-27.744-32.277-25.647-37.661-1.899-2.664 11.817 5.299 44.747 12.384 68.042 6.546 21.566-13.036 26.554-22.614 15.275-54.183-64.046-71.072 9.182-30.747 37.152 15.048 10.429 32.362 38.371.907 40.893-37.151 2.976-30.208 26.554-15.756 44.01 14.708 17.768-7.935 106.781-9.04 118.768-1.247 13.151 6.857 22.163 16.436 25.648z" fill="#7fdbae" fill-rule="evenodd"/></g><g><path clip-rule="evenodd" d="m372.07 58.236c-238.636 45.399-297.041 196.332-345.527 411.679 10.825 3.967 23.577.879 26.865-11.194.34-1.275.822-2.919 1.417-4.931 2.55-8.728 7.283-23.918 13.121-40.071 5.498-15.161 11.959-31.145 18.505-43.5 12.384-23.295 16.379-16.38 37.661-22.331 25.448-7.113 21.679-31.088 3.457-37.209-24.399-8.218-14.991-42.055 11.845-28.396 19.327 9.862 33.779 10.202 43.046 5.753 18.533-8.87 16.351-36.897-8.785-46.164-28.933-10.684-9.578-49.168 24.909-39.023 33.581 9.89 69.797-22.926 29.755-34.092-12.639-3.514-4.336-32.306 21.622-21.141 33.977 14.595 60.162 6.065 65.121-30.379 2.097-15.303 62.939-31.881 57.498-56.99-.141-.679-.312-1.36-.51-2.011z" fill="#3bc3a4" fill-rule="evenodd"/></g><g><path clip-rule="evenodd" d="m182.459 288.036c-9.267 4.449-23.719 4.109-43.046-5.753-26.836-13.659-36.245 20.177-11.845 28.396 18.221 6.121 21.99 30.096-3.457 37.209-21.282 5.951-25.278-.964-37.661 22.331-6.546 12.356-13.007 28.339-18.505 43.5-5.838 16.153-10.57 31.343-13.121 40.071 73.311-109.927 188.08-142.29 283.948-141.525 52.001.397 109.357 15.813 164.503 40.525.567-2.154.935-4.194 1.105-6.121v-5.498c-2.975-29.444-55.174-30.521-69.06-51.464-15.331-23.125-34.516-39.845-61.834-16.635-13.206 11.222-21.395 6.065-21.792-4.591-.283-6.971 4.988-12.157 7.141-18.76 9.777-29.983-23.039-42.905-37.066-11.902-25.589 56.65-61.465 50.132-50.215 18.42 11.562-32.675-22.047-42.707-33.666-6.631-8.557 26.554-32.135 62.034-55.429 38.428z" fill="#7fdbae" fill-rule="evenodd"/></g><g><path clip-rule="evenodd" d="m338.773 312.266c-95.868-.765-210.638 31.598-283.948 141.525 38.313-17.967 59.822-34.97 102.613-18.845 23.577 8.87 42.337-9.21 29.302-22.104-14.396-14.226 4.817-34.177 21.792-18.25 45.341 42.48 68.578 7.198 54.409-7.708-25.278-26.61 2.21-45.682 18.646-28.906 1.19 1.219 25.873 21.453 37.095 32.448 14.537 14.283 43.924 10.174 23.181-24.995-8.02-13.574 14.793-31.995 28.48-8.757 16.181 27.46 27.63 34.233 46.305 15.416 10.854-10.91 13.886-11.846 31.682-10.174 21.82 2.069 49.648 7.566 54.268-6.858.255-.765.482-1.53.68-2.267-55.148-24.712-112.505-40.128-164.505-40.525z" fill="#3bc3a4" fill-rule="evenodd"/></g><path d="m501.369 319.905c-8.287-7.847-20.148-12.79-31.619-17.57-11.588-4.829-23.571-9.823-28.178-16.77-7.974-12.029-20.618-28.308-38.269-30.805-11.286-1.595-22.953 2.643-34.673 12.599-5.146 4.373-8.031 4.657-8.472 4.519-.181-.144-.875-1.187-.969-3.699-.088-2.182 1.069-4.419 2.965-7.89 1.31-2.397 2.794-5.115 3.813-8.241 6.504-19.947-2.491-33.671-13.601-37.981-11.505-4.464-28.126.099-37.431 20.666-15.239 33.736-31.629 39.524-35.879 37.813-2.261-.91-3.181-6.055-.432-13.803 4.633-13.093 3.498-24.956-3.114-32.547-4.856-5.575-12.178-7.997-19.586-6.474-11.085 2.276-20.261 12.332-25.174 27.587-5.682 17.627-18.053 37.867-29.791 40.658-1.493.355-3.448.563-5.85-.232 5.464-6.184 7.986-14.472 6.833-23.224-1.751-13.297-11.348-24.39-25.67-29.673-7.477-2.761-10.599-7.865-8.566-14.002 2.818-8.503 13.858-15.173 28.758-10.791 20.215 5.954 39.736-1.249 49.321-10.461 6.247-6.005 8.85-13.341 7.14-20.127-1.438-5.705-6.521-13.446-22.577-17.924-.034-.009-.058-.018-.068-.019-.438-.604-.527-3.231 1.289-5.661 2.87-3.839 8.492-4.329 15.432-1.344 21.135 9.078 39.534 9.787 53.208 2.05 8.437-4.774 19.147-15.278 22.291-38.212 1.168-3.316 13.131-10.501 20.292-14.801 18.467-11.091 41.45-24.894 37.117-44.889-2.993-13.769-13.96-29.281-49.186-24.981-4.112.502-7.038 4.242-6.536 8.353s4.239 7.038 8.353 6.536c15.666-1.913 23.65.76 27.845 4.349-108.726 22.513-184.687 68.136-238.477 143.057-48.478 67.523-75.524 153.728-100.315 261.88-2.812-3.156-4.527-7.479-4.018-12.894.196-2.123 1.443-8.363 2.887-15.588 11.334-56.714 16.034-94.672 4.462-108.651-7.757-9.369-11.405-18.65-9.296-23.645 1.837-4.349 8.895-7.228 19.874-8.107 16.658-1.336 22.167-9.086 23.854-15.353 3.845-14.278-10.017-31.507-21.086-39.178-14.798-10.264-20.666-28.113-18.674-39.696.501-2.916 1.949-7.974 6.015-9.082 5.605-1.52 17.322 3.619 33.416 22.644 7.052 8.304 18.481 10.889 27.175 6.145 7.038-3.839 12.923-13.33 8.331-28.457-9.034-29.706-14.069-56.11-12.245-64.201 1.983-8.749 7.322-12.55 11.712-12.518 5.289.088 9.608 5.518 11.271 14.179 3.96 20.516 11.727 31.738 23.086 33.355 10.451 1.487 19.635-6.455 23.739-14.464 7.71-15.035 3.467-40.032.66-56.573-.513-3.022-.956-5.632-1.198-7.505-2.15-16.9 2.469-23.674 5.043-24.307 2.727-.672 8.747 3.659 12.991 15.087 3.508 9.432 13.235 31.473 27.764 32.42 5.069.327 12.41-1.745 18.63-13.513 15.925-30.205 25.144-33.156 50.806-28.19 11.206 2.202 22.491-.628 34.032-3.983 3.977-1.156 6.264-5.318 5.107-9.295-1.156-3.978-5.32-6.265-9.296-5.108-9.695 2.819-19.051 5.22-26.973 3.664-33.793-6.538-48.809 1.518-66.942 35.91-2.628 4.973-4.398 5.546-4.389 5.548-2.582-.094-9.585-8.976-14.681-22.678-8.029-21.615-21.522-26.669-30.633-24.427-10.092 2.481-19.684 14.493-16.34 40.778.282 2.183.748 4.93 1.288 8.11 2.172 12.798 6.215 36.621.78 47.221-1.942 3.79-5.807 6.807-8.277 6.456-3.013-.429-7.563-6.277-10.471-21.341-3.684-19.188-16.174-26.182-25.751-26.341-12.597-.2-23.261 9.516-26.592 24.208-3.687 16.355 8.654 59.147 12.523 71.869 1.654 5.448 1.208 9.636-1.163 10.929-2.108 1.151-5.886.46-8.549-2.677-23.134-27.345-39.308-30.003-48.801-27.416-8.829 2.405-14.973 10.064-16.855 21.012-2.758 16.045 3.86 39.963 24.911 54.564 8.904 6.171 16.549 17.754 15.149 22.952-.595 2.211-4.546 3.819-10.569 4.302-17.319 1.387-28.252 7.181-32.493 17.222-6.105 14.452 4.622 30.667 11.559 39.046 1.298 1.568 5.27 9.061 1.898 39.662-2.181 19.786-6.594 41.871-9.514 56.486-1.714 8.575-2.846 14.239-3.113 17.137-1.822 19.384 12.209 32.252 27.011 34.945 2.015.367 3.992.544 5.915.544 12.072-.001 21.981-7.01 25.073-18.347.135-.492.286-1.033.447-1.601 4.264-2.047 8.312-4.06 12.251-6.02 8.718-4.338 16.951-8.435 24.792-11.456 3.865-1.489 5.791-5.829 4.302-9.695-1.489-3.865-5.832-5.792-9.695-4.302-4.535 1.747-9.086 3.778-13.715 5.971 80.944-99.513 195.668-114.372 259.694-113.84 45.872.349 98.58 12.825 152.955 36.133-7.12 2.48-22.366.771-33.258-.451-3.106-.348-6.317-.708-9.383-.999-19.982-1.874-25.268-.146-37.707 12.358-5.956 6.001-10.788 8.817-14.364 8.369-7.569-.948-17.043-17.026-20.155-22.308-7.638-12.967-17.333-14.822-22.465-14.778-7.783.071-15.046 4.415-18.954 11.338-3.577 6.334-3.569 13.743.017 19.814 6.716 11.386 7.243 18.553 4.89 20.393-2.629 2.053-10.653 1.044-16.362-4.565-8.365-8.197-23.775-21.188-32.053-28.167-2.31-1.947-4.495-3.789-5.034-4.275-11.42-11.558-26.779-10.223-35.062-2.232-8.791 8.481-10.431 24.649 5.723 41.655 3.034 3.192 2.719 8.404-.717 11.865-6.558 6.604-22.436 4.591-43.124-14.793-12.094-11.347-26.117-9.293-33.717-1.4-7.098 7.371-8.855 20.199 1.519 30.451 2.852 2.82 2.18 4.801 1.276 6.21-2.586 4.038-11.328 7.807-22.653 3.546-11.802-4.459-22.635-6.721-33.116-6.915-4.156-.088-7.561 3.219-7.638 7.359-.077 4.142 3.218 7.561 7.359 7.638 8.735.163 17.925 2.109 28.104 5.954 5.268 1.982 10.348 2.855 15.061 2.855 11.609 0 20.995-5.294 25.512-12.343 5.158-8.049 3.84-17.849-3.359-24.97-3.889-3.843-3.201-7.366-1.261-9.381 2.319-2.407 7.023-3.344 12.654 1.938 13.07 12.245 25.608 19.524 37.265 21.634 10.717 1.941 20.219-.623 26.764-7.216 9.193-9.26 9.608-23.652.946-32.765-9.071-9.55-9.641-17.191-6.182-20.528 3.041-2.935 9.122-2.977 14.027 2.028.535.548 1.395 1.281 5.987 5.152 8.129 6.853 23.26 19.609 31.217 27.406 10.596 10.41 26.793 12.956 36.106 5.675 4.586-3.585 13.647-14.643-1.212-39.835-1.095-1.853-.535-3.64.127-4.813 1.034-1.831 3.299-3.689 6.03-3.714h.054c3.222 0 6.54 2.622 9.35 7.393 8.482 14.394 18.134 27.94 31.216 29.578 11.386 1.423 20.792-6.558 26.868-12.68 8.933-8.98 9.467-9.516 25.657-7.997 2.931.278 5.938.615 9.121.972 22.096 2.478 47.139 5.286 52.998-13.011.048-.149.083-.294.129-.442.185-.295.359-.599.506-.926.5-1.115.699-2.286.643-3.429 2.812-12.93-.411-23.896-9.648-32.644zm-465.803 144.121c44.576-195.879 99.249-349.265 328.777-396.608-3.966 8.065-18.264 16.654-29.274 23.267-14.562 8.745-26.063 15.653-27.418 25.54-1.848 13.577-6.837 22.755-14.828 27.277-9.439 5.342-23.237 4.382-39.898-2.775-15.359-6.608-25.097-1.499-29.534 2.133-6.344 5.193-9.545 13.722-7.967 21.223 1.241 5.898 5.318 10.346 10.901 11.899 8.143 2.27 11.584 5.265 12.056 7.139.347 1.378-.798 3.542-2.989 5.648-6.604 6.346-21.007 10.916-34.691 6.886-23.074-6.786-42.134 5.075-47.232 20.463-3.863 11.659.084 26.319 17.611 32.791 9.003 3.321 14.982 9.886 15.992 17.56.73 5.544-1.308 10.46-5.591 13.488-8.014 5.664-22.107 4.077-38.665-4.357-10.478-5.332-20.721-5.338-28.102-.013-6.496 4.687-9.744 12.801-8.478 21.175 1.461 9.663 8.541 17.523 18.944 21.027 5.737 1.927 9.657 6.625 9.533 11.425-.131 5.073-4.731 9.246-12.622 11.452-5.116 1.431-9.144 2.055-12.698 2.605-13.25 2.052-19.634 4.745-29.567 23.431-15.059 28.347-29.706 75.685-33.655 90.048-1.671 6.129-6.983 7.26-10.605 7.276zm40.146-49.735c5.239-14.315 11.276-29.099 17.36-40.551 7.394-13.908 9.549-14.242 18.617-15.647 3.772-.584 8.466-1.311 14.442-2.982 14.456-4.041 23.27-13.578 23.578-25.512.296-11.501-7.641-21.961-19.746-26.028-5.04-1.698-8.283-4.997-8.896-9.053-.422-2.792.507-5.386 2.424-6.769 2.664-1.922 7.227-1.478 12.519 1.216 20.849 10.619 35.416 10.522 44.835 7.696 9.071 7.227 17.674 7.303 23.586 5.896 20.751-4.935 35.282-34.159 40.597-50.651 3.722-11.556 9.628-16.614 13.914-17.494 1.483-.307 3.601-.269 5.259 1.633 2.249 2.583 3.506 8.587.286 17.685-6.672 18.808.662 29.385 8.97 32.728 2.185.879 4.589 1.338 7.16 1.337 14.012-.001 32.955-13.612 47.986-46.887 5.283-11.675 13.208-14.851 18.338-12.861 4.893 1.898 8.263 8.617 4.765 19.346-.589 1.805-1.623 3.698-2.717 5.701-2.25 4.119-5.05 9.245-4.789 15.664.3 8.06 3.899 14.191 9.874 16.821 4.891 2.152 13.072 2.721 24.268-6.793 8.428-7.16 15.903-10.163 22.859-9.178 8.881 1.256 17.736 8.959 27.868 24.242 7.128 10.75 21.251 16.636 34.909 22.327 20.587 8.579 31.803 14.599 32.965 25.659-55.977-23.912-110.45-36.71-158.112-37.073-64.655-.507-178.964 14.047-263.119 109.528z"/></g></svg>