<svg id="hazelnut" enable-background="new 0 0 300 300" height="512" viewBox="0 0 300 300" width="512" xmlns="http://www.w3.org/2000/svg"><g><circle cx="142" cy="130" fill="#fff0fd" r="92"/><g fill="#4c241d"><path d="m70 82c-6.617 0-12-5.383-12-12s5.383-12 12-12 12 5.383 12 12-5.383 12-12 12zm0-16c-2.205 0-4 1.795-4 4s1.795 4 4 4 4-1.795 4-4-1.795-4-4-4z"/><path d="m258 66c-1.023 0-2.047-.391-2.828-1.172l-12-12c-1.562-1.562-1.562-4.094 0-5.656s4.094-1.562 5.656 0l12 12c1.562 1.562 1.562 4.094 0 5.656-.781.781-1.805 1.172-2.828 1.172z"/><path d="m246 66c-1.023 0-2.047-.391-2.828-1.172-1.562-1.562-1.562-4.094 0-5.656l12-12c1.562-1.562 4.094-1.562 5.656 0s1.562 4.094 0 5.656l-12 12c-.781.781-1.805 1.172-2.828 1.172z"/><circle cx="254.397" cy="88.093" r="4.276"/><path d="m54 230c-1.023 0-2.047-.391-2.828-1.172l-12-12c-1.562-1.562-1.562-4.094 0-5.656s4.094-1.562 5.656 0l12 12c1.562 1.562 1.562 4.094 0 5.656-.781.781-1.805 1.172-2.828 1.172z"/><path d="m42 230c-1.023 0-2.047-.391-2.828-1.172-1.562-1.562-1.562-4.094 0-5.656l12-12c1.562-1.562 4.094-1.562 5.656 0s1.562 4.094 0 5.656l-12 12c-.781.781-1.805 1.172-2.828 1.172z"/></g><g><path d="m250 174.87c0-75.131-88-108.87-88-108.87s-88 37.913-88 108.87c0 48.409 41.608 83.13 88 83.13s88-34.721 88-83.13z" fill="#bf7e68"/><path d="m162 262c-50.729 0-92-39.086-92-87.131 0-30.238 15.713-59.324 45.438-84.115 22.191-18.508 44.061-28.031 44.98-28.428.959-.408 2.043-.436 3.014-.061.906.348 90.568 35.614 90.568 112.604 0 48.045-41.271 87.131-92 87.131zm.084-191.639c-11.438 5.379-84.084 42.041-84.084 104.508 0 43.633 37.682 79.131 84 79.131s84-35.498 84-79.131c0-66.131-72.441-99.623-83.916-104.508z" fill="#4c241d"/></g><circle cx="66.397" cy="248.093" fill="#4c241d" r="4.276"/><circle cx="94.397" cy="48.093" fill="#4c241d" r="4.276"/><g><path d="m182 98 20 16 12.19-14.628c-24.359-22.701-52.19-33.372-52.19-33.372s-27.211 11.742-51.371 34.354l11.371 13.646 20-16 20 16z" fill="#ffce56"/><path d="m201.998 118c-.877 0-1.76-.287-2.496-.877l-17.502-14-17.502 14c-1.461 1.168-3.535 1.168-4.996 0l-17.502-14-17.502 14c-1.699 1.359-4.18 1.109-5.57-.562l-11.371-13.646c-1.357-1.629-1.209-4.033.34-5.48 24.387-22.826 51.381-34.615 52.52-35.105.953-.416 2.037-.441 3.016-.062 1.166.447 28.84 11.215 53.484 34.182 1.553 1.447 1.705 3.855.346 5.486l-12.189 14.627c-.791.947-1.929 1.437-3.076 1.437zm-59.998-24c.885 0 1.768.293 2.498.877l17.502 14 17.502-14c1.461-1.168 3.535-1.168 4.996 0l16.939 13.551 7.225-8.67c-19.59-17.336-40.805-26.963-46.576-29.4-5.682 2.662-26.529 13.039-45.938 30.371l6.414 7.699 16.939-13.551c.731-.584 1.614-.877 2.499-.877z" fill="#4c241d"/></g><g><path d="m114.004 218.918c-1.361 0-2.689-.695-3.438-1.949-8.22-13.766-12.566-29.492-12.566-45.481 0-15.176 3.938-30.199 11.389-43.449 1.08-1.926 3.518-2.613 5.447-1.525 1.926 1.082 2.609 3.521 1.525 5.447-6.779 12.055-10.361 25.723-10.361 39.527 0 14.545 3.953 28.854 11.434 41.379 1.133 1.896.514 4.352-1.383 5.484-.643.385-1.35.567-2.047.567z" fill="#4c241d"/></g><g><path d="m219.715 162.621c-1.838 0-3.494-1.275-3.904-3.145-2.082-9.516-5.547-18.266-10.301-26.008-1.156-1.883-.566-4.346 1.314-5.502 1.887-1.156 4.348-.568 5.502 1.314 5.225 8.508 9.025 18.092 11.301 28.484.471 2.158-.895 4.291-3.053 4.764-.289.064-.576.093-.859.093z" fill="#4c241d"/></g><g><path d="m209.26 232.055c-.703 0-1.414-.186-2.061-.574-1.893-1.141-2.502-3.598-1.361-5.49 7.957-13.206 12.162-29.108 12.162-45.991 0-1.178-.021-2.346-.062-3.51-.078-2.209 1.648-4.062 3.855-4.141 2.307-.078 4.061 1.65 4.141 3.855.045 1.258.066 2.523.066 3.795 0 18.338-4.604 35.668-13.311 50.119-.75 1.247-2.074 1.937-3.429 1.937z" fill="#4c241d"/></g><g><path d="m186.297 217.121c-.363 0-.734-.051-1.102-.156-2.125-.607-3.354-2.822-2.746-4.945 3.467-12.121 4.316-27.02 2.395-41.949-1.055-8.201-2.879-16.096-5.422-23.465-.721-2.088.389-4.365 2.477-5.086 2.092-.717 4.365.387 5.086 2.477 2.721 7.885 4.67 16.312 5.793 25.053 2.088 16.215 1.176 31.836-2.637 45.17-.502 1.755-2.104 2.901-3.844 2.901z" fill="#4c241d"/></g><g><path d="m150.527 231.201c-1.156 0-2.303-.498-3.092-1.461-10.917-13.289-17.435-35.621-17.435-59.74 0-2.209 1.791-4 4-4s4 1.791 4 4c0 22.324 5.838 42.76 15.615 54.662 1.402 1.707 1.156 4.229-.551 5.629-.744.613-1.642.91-2.537.91z" fill="#4c241d"/></g></g></svg>