<svg id="Capa_1" enable-background="new 0 0 512 512" height="512" viewBox="0 0 512 512" width="512" xmlns="http://www.w3.org/2000/svg"><g><g><path clip-rule="evenodd" d="m314.805 121.364c-2.01 89.835 79.386 37.939 110.897 62.231.453-2.831.821-5.662 1.076-8.522 2.378-25.226-4.87-44.649-17.27-57.446l20.724-33.947c20.526-33.579-31.369-53.992-43.147-18.516l-11.721 35.277c-20.017-2.86-42.383 3.681-60.559 20.923z" fill="#a7e9a6" fill-rule="evenodd"/></g><g><path clip-rule="evenodd" d="m400.674 164.625c10.645 2.973 19.62 8.211 25.028 18.969.453-2.831.821-5.662 1.076-8.522 2.378-25.226-4.87-44.649-17.27-57.446l20.724-33.947c11.013-18.007 1.189-32.22-12.117-36.07-2.548-.736-5.209-1.104-7.871-1.019 8.125 6.257 6.342 20.158 3.058 26.217l-19.677 36.098c-6.342 10.391 1.529 7.446 5.577 19.989 2.605 8.069 4.36 9.626 2.859 25.283-.255 2.831-.623 5.662-1.076 8.522-.113.624-.226 1.275-.311 1.926z" fill="#7fdbae" fill-rule="evenodd"/></g><g><path clip-rule="evenodd" d="m66.257 398.684c278.106 45.385 312.023-120.356 353.33-190.769 2.746-8.097 4.813-16.223 6.115-24.32-20.554-41.025-93.598-1.84-110.897-62.231-6.738 6.37-12.882 14.213-18.119 23.613-74.913 134.229-119.758 224.235-265.62 199.376-13.759-2.35-20.866-.227-22.932 4.332v7.05c4.246 13.674 29.075 34.852 58.123 42.949z" fill="#eb5468" fill-rule="evenodd"/></g><g><path clip-rule="evenodd" d="m325.762 222.807c-92.58 122.706-134.028 174.15-284.193 154.983-9.994-2.803-19.507-7.135-27.83-12.174 9.768 12.457 29.869 26.755 52.518 33.069 150.193 19.168 191.642-32.248 284.221-154.982 8.805-11.693 18.912-20.328 29.501-26.189 12.995-7.191 26.698-10.221 39.608-9.598 2.746-8.097 4.813-16.223 6.115-24.32-5.408-10.759-14.382-15.997-25.028-18.969-.793 4.445-1.812 8.918-3.029 13.392-4.218 15.317-21.489 6.993-42.383 18.601-10.588 5.859-20.695 14.494-29.5 26.187z" fill="#e5384f" fill-rule="evenodd"/></g><g><path clip-rule="evenodd" d="m379.978 217.513c5.011 90.034 64.466 40.345 92.551 83.465 1.019-3.171 1.925-6.399 2.69-9.655 5.804-24.66 1.274-44.904-9.258-59.258l31.426-38.448c24.914-30.464-22.111-56.965-40.203-24.264l-22.706 40.996c-4.756-1.359-9.768-2.18-14.892-2.435-12.91-.622-26.612 2.408-39.608 9.599z" fill="#a7e9a6" fill-rule="evenodd"/></g><g><path clip-rule="evenodd" d="m450.05 272.241c9.116 5.068 17.072 13.279 22.479 28.737 1.019-3.171 1.925-6.399 2.69-9.655 5.804-24.66 1.274-44.904-9.258-59.258l31.426-38.448c17.412-21.263-.255-40.6-18.657-39.213 1.189 6.257 10.617 13.505 4.558 21.291l-27.349 35.051c-18.488 23.726-6.738 10.136-3.001 32.248 1.274 7.39.085 15.968-2.888 29.247z" fill="#7fdbae" fill-rule="evenodd"/></g><g><path clip-rule="evenodd" d="m350.478 243.702c-92.579 122.734-134.028 174.15-284.221 154.982-1.274-.17-2.491-.255-3.624-.283-13.646-.51-15.713 7.701-15.883 14.638-.311 11.297 9.399 24.264 22.621 31.2 113.728 59.937 361.682-13.533 403.158-143.261-20.016-57.304-75.337-14.892-92.551-83.465-10.588 5.861-20.695 14.496-29.5 26.189z" fill="#eb5468" fill-rule="evenodd"/></g><g><path clip-rule="evenodd" d="m447.105 283.056c-40.372 126.217-276.152 199.15-393.645 147.848 4.02 5.266 9.541 9.994 15.911 13.335 113.728 59.937 361.682-13.533 403.158-143.261-5.408-15.459-13.363-23.669-22.479-28.737-.085.368-.17.764-.255 1.161-.764 3.256-1.67 6.483-2.69 9.654z" fill="#e5384f" fill-rule="evenodd"/></g><path d="m509.608 164.875c-4.682-10.436-15.541-17.507-27.664-18.014-12.954-.537-24.391 6.332-31.321 18.858l-19.937 35.998c-.421-.084-.844-.153-1.267-.229 2.423-8.695 4.043-17.312 4.826-25.711 2.184-23.164-3.283-43.852-15.455-58.961l17.841-29.223c7.274-11.9 7.774-24.397 1.371-34.287-6.422-9.92-18.967-15.532-31.218-13.97-12.627 1.612-22.402 10.165-26.818 23.463l-9.832 29.592c-13.751-.767-27.678 2.367-40.623 9.191-15.945 8.405-29.561 22.147-39.377 39.74-2.313 4.146-4.597 8.249-6.857 12.308-15.502 27.845-30.145 54.146-44.669 77.247-2.205 3.507-1.149 8.137 2.358 10.342 1.24.78 2.62 1.151 3.985 1.151 2.493 0 4.932-1.243 6.357-3.51 14.736-23.439 29.473-49.91 45.075-77.934 2.257-4.055 4.54-8.154 6.851-12.296 2.774-4.973 5.771-9.403 8.923-13.365 13.536 27.078 40.735 30.207 63.105 32.763 18.55 2.12 34.687 3.973 42.585 16.878-.92 5.085-2.165 10.24-3.725 15.433-8.403.235-16.892 1.857-25.213 4.878-16.932 6.146-32.293 17.892-44.421 33.967-88.44 117.251-128.876 170.843-276.711 152.129-14.119-4.023-28.49-11.801-39.501-21.404-10.641-9.28-13.396-16.172-13.303-18.022.715-.42 4.215-1.956 14.833-.14 47.358 8.072 86.59 4.573 119.937-10.696 29.359-13.442 55.107-36.231 81.032-71.718 2.444-3.345 1.713-8.038-1.632-10.481-3.344-2.443-8.037-1.712-10.481 1.632-42.204 57.771-90.043 92.883-186.331 76.476-24.638-4.213-30.604 5.359-31.968 11.438-3.34 14.891 16.884 36.583 43.557 49.693-4.418 5.464-4.601 12.292-4.666 14.741-.385 13.973 10.567 29.62 26.623 38.043 27.654 14.566 63.269 22.05 104.226 22.049 9.98 0 20.281-.444 30.857-1.339 50.913-4.307 104.423-19.053 150.673-41.522 3.726-1.81 5.279-6.298 3.469-10.024s-6.299-5.279-10.024-3.469c-94.085 45.709-208.566 54.554-272.221 21.027-10.834-5.684-18.834-16.153-18.607-24.36.084-3.189.632-5.174 1.676-6.07.682-.584 2.954-1.851 9.329-1.049h.003c.018.002.033.003.051.006 20.512 2.618 39.175 3.953 56.365 3.952 45.706-.001 80.933-9.446 112.315-29.335 41.053-26.018 73.286-67.308 122.478-132.523 6.035-8 12.513-14.293 19.161-19.142 11.176 31.649 31.952 37.347 50.476 42.413 16.806 4.595 30.201 8.263 38.477 29.635-15.528 45.525-55.919 78.359-88.397 98.395-3.526 2.175-4.621 6.796-2.446 10.322s6.796 4.621 10.322 2.446c53.887-33.243 87.936-74.478 98.462-119.246 5.331-22.651 2.742-43.891-7.251-60.512l27.924-34.164c8.797-10.758 11.135-22.965 6.413-33.49zm-132.64-11.75c-23.78-2.717-44.481-5.099-53.537-29.535 16.757-14.147 35.834-17.883 50.866-15.724 3.599.519 7.039-1.615 8.184-5.059l11.722-35.279c2.562-7.719 7.705-12.446 14.481-13.312 6.546-.835 13.423 2.143 16.725 7.243 3.236 4.997 2.69 11.329-1.58 18.313l-20.724 33.946c-1.782 2.919-1.364 6.672 1.015 9.128 10.211 10.537 15.514 25.086 15.59 42.43-12.058-8.634-28.086-10.476-42.742-12.151zm114.612 35.745-31.426 38.448c-2.165 2.649-2.263 6.426-.24 9.184 8.481 11.558 11.789 26.277 9.791 42.988-11.177-14.681-26.085-18.763-39.645-22.471-17.514-4.788-32.789-8.966-41.211-35.672 15.673-7.094 31.316-7.306 43.559-3.788 3.36.965 6.939-.517 8.633-3.575l22.707-41c5.584-10.094 13.4-11.31 17.57-11.135 6.395.267 12.264 3.951 14.604 9.166 2.377 5.301.877 11.474-4.342 17.855z"/></g></svg>