<svg id="Capa_1" enable-background="new 0 0 512 512" height="512" viewBox="0 0 512 512" width="512" xmlns="http://www.w3.org/2000/svg"><g><g clip-rule="evenodd" fill-rule="evenodd"><path d="m156.301 446.965c-2.763.566-5.477 1.03-8.143 1.395-9.489-11.191-23.322-13.024-34.385-1.147-112.016-25.49-108.282-269.107-60.093-364.069 6.708-12.374 3.749-74.269 14.318-75.481 10.175-3.044 31.821 55.018 42.869 63.756 81.665 68.322 180.984 290.805 88.059 358.329-8.802-2.246-20.301-.371-31.156 14.59-2.593.714-5.269 1.356-8.031 1.922-1.155.225-2.283.479-3.438.705z" fill="#d87e49"/><path d="m113.77 447.218c10.428 2.368 21.871 2.847 34.386 1.127-62.092-184.953-86.274-294.427-81.117-377.264 4.03-34.866-30.186-52.594-30.778 13.191-1.155 127.202 31.878 244.454 77.509 362.946z" fill="#fed1a3"/><path d="m198.916 429.743c-8.653 6.285-18.968 11.246-31.144 14.6-15.727-194.481-36.584-304.63-73.929-378.759-17.446-30.469 7.018-60.233 33.484.028 51.127 116.464 66.911 237.239 71.589 364.131z" fill="#fed1a3"/><path d="m198.916 429.743c-5.186 3.777-10.992 7.075-17.446 9.837 1.945-85.487-15.53-256.799-61.838-357.62-9.386-20.435-15.304-33.231-28.185-48.226.085-.085.141-.169.225-.254 6.511-7.187 20.772-1.776 35.654 32.132 51.128 116.464 66.912 237.239 71.59 364.131z" fill="#ffbc85"/><path d="m158.02 446.598 1.719-.338c2.762-.564 5.44-1.212 8.033-1.917-15.727-194.481-36.584-304.63-73.929-378.759-6.539-11.387-7.187-22.689-4.087-29.229-8.286-15.698-16.516-30.242-21.758-28.692z" fill="#c86d35"/><path d="m25.298 189.263c16.094 100.482 42.193 199.16 75.197 253.699 4.228 1.776 8.653 3.185 13.275 4.256-40.417-104.991-70.97-209.024-76.607-319.85-5.214 18.856-9.244 39.882-11.865 61.895z" fill="#c86d35"/><path d="m52.552 85.399c.366 82.809 25.141 191.691 80.919 363.989 4.735 0 9.611-.338 14.684-1.043-62.091-184.953-86.273-294.427-81.116-377.264 1.522-13.05-2.339-23.676-7.751-28.467-3.1-2.706-6.68-3.523-10.09-1.832 3.016 5.975 4.735 14.516 3.777 24.268-.31 6.623-.451 13.387-.423 20.349z" fill="#ffbc85"/><path d="m373.86 503.787c-157.525-12.712-78.044-291.468 2.931-377.998 9.921-10.034 24.324-70.267 34.808-68.519 10.626-.056 15.22 61.727 23.393 73.198 66.065 98.396 99.859 386.284-57.638 373.601-1.163-.111-2.328-.197-3.494-.282z" fill="#d87e49"/><path d="m332.936 492.146c9.357 5.186 20.209 8.85 32.694 10.711-8.005-194.96-.705-306.829 27.368-384.931 13.613-32.357-14.318-58.936-33.23 4.087-36.613 121.818-37.571 243.608-26.832 370.133z" fill="#fed1a3"/><path d="m419.604 499.136c-10.09 3.636-21.392 5.496-33.991 5.327 39.149-191.155 49.831-302.742 34.639-384.339-8.23-34.133 23.563-55.892 32.159 9.358 16.601 126.102-1.944 246.483-32.807 369.654z" fill="#fed1a3"/><path d="m419.604 499.136c-6.06 2.17-12.542 3.72-19.504 4.566 25.705-81.541 56.708-250.909 40.361-360.635-3.298-22.267-5.44-36.19-13.613-54.201.113-.056.197-.141.282-.197 8.286-5.045 20.462 4.115 25.282 40.813 16.6 126.102-1.945 246.483-32.808 369.654z" fill="#ffbc85"/><path d="m375.607 503.928c3.332.269 6.663.466 10.006.536 39.149-191.155 49.831-302.742 34.639-384.339-3.072-12.768-.564-23.789 4.256-29.2-3.579-17.391-7.441-33.682-12.909-33.654z" fill="#c86d35"/><path d="m319.942 219.76c-12.599 100.989-15.051 203.021 1.437 264.607 3.579 2.903 7.413 5.496 11.556 7.779-9.527-112.094-9.837-220.525 15.671-328.504-10.259 16.63-20.011 35.712-28.664 56.118z" fill="#c86d35"/><path d="m375.072 127.649c-22.745 79.596-29.312 191.07-23.816 372.079 4.538 1.325 9.329 2.368 14.374 3.129-8.005-194.96-.705-306.829 27.368-384.931 5.073-12.12 4.369-23.394.479-29.51-2.198-3.439-5.411-5.243-9.16-4.566 1.24 6.595.479 15.248-3.157 24.352-2.142 6.257-4.171 12.739-6.088 19.447z" fill="#ffbc85"/></g><path d="m464.135 170.66c-1.033-14.155-2.452-28.196-4.29-42.158-3.542-26.891-11.417-43.345-22.773-47.586-2.395-.895-4.842-1.193-7.229-.931-4.165-18.613-8.31-29.765-17.64-30.201-9.299-1.062-15.167 9.283-22.251 26.991-2.313-.638-4.773-.735-7.275-.237-11.893 2.367-22.299 17.347-30.091 43.315-4.058 13.501-7.712 27.148-11.005 40.971-34.854 56.962-60.304 134.854-64.913 198.846-.298 4.131 2.81 7.721 6.941 8.018.184.013.366.02.547.02 3.896 0 7.187-3.013 7.472-6.961 3.344-46.434 18.072-100.477 39.487-147.841-4.877 29.535-8.203 60.062-10.006 91.984-2.926 51.784-1.954 106.799 3.071 171.994-19.521-16.809-30.561-44.11-32.857-81.425-.254-4.134-3.796-7.283-7.945-7.024-4.133.254-7.278 3.811-7.025 7.945 3.01 48.903 21.03 84.066 52.118 101.785 4.188 2.165 9.521 5.536 34.955 11.938 12.765 2.021 26.086 2.604 38.918.871 3.653-.493 7.281-1.179 10.857-2.071 1.688-.421 8.325-2.323 9.844-3.108 24.715-9.21 43.718-28.497 56.487-57.354 33.198-75.025 16.879-198.784-15.397-277.781zm-124.072 316.746c-10.789-130.246-6.171-229.311 15.57-321.091.213-.571.346-1.158.415-1.747 3.256-13.597 6.887-27.039 10.902-40.4 7.373-24.57 15.426-32.277 18.656-32.92.272-.056.532-.106 1.162.665 2.307 2.825 4.161 11.596-.682 23.104-.052.122-.099.246-.144.371-14.497 40.332-23.279 88.205-27.637 150.658-4.119 59.029-4.299 131.559-.547 227.651-6.334-1.528-12.252-3.633-17.695-6.291zm34.396 8.906c-.521-.042-1.054-.091-1.591-.143-7.602-191.67.304-300.771 27.124-375.528 4.839-11.623 5.342-23.877 1.678-32.642 3.826-9.866 6.878-16.757 9.117-20.582 2.167 5.585 4.41 15.637 5.704 21.78-5.012 8.064-6.481 20.236-3.575 32.484 14.504 78.166 4.835 187.125-33.373 375.02-.51-.031-1.021-.063-1.535-.104-1.217-.114-2.404-.201-3.549-.285zm53.166-377.56c-.023-.129-.051-.258-.082-.385-2.929-12.15.309-20.514 3.038-22.932.478-.424.751-.536.953-.536.11 0 .201.034.293.068 3.083 1.151 9.799 10.051 13.15 35.494 1.825 13.86 3.251 27.738 4.285 41.709-.016.499.017 1.003.104 1.506 6.78 94.163-4.513 192.737-36.039 319.643-5.792 1.752-11.971 2.879-18.477 3.372 38.145-188.259 47.63-298.15 32.775-377.939zm38.192 323.621c-8.66 19.57-20.442 33.971-35.108 43.036 15.386-63.506 25.151-117.637 30.556-169.219 3.32-31.68 4.927-62.235 4.859-92.064 19.506 73.032 24.324 162.582-.307 218.247z"/><path d="m223.946 238.024c-1.37-3.908-5.652-5.965-9.557-4.596-3.909 1.37-5.966 5.65-4.595 9.558 13.179 37.587 37.294 125.104-4.035 170.544-2.918-65.278-8.634-120.004-17.839-171.092-5.659-31.407-12.656-61.251-21.066-89.93 11.159 18.376 21.481 38.206 30.32 58.444 1.231 2.818 3.985 4.499 6.876 4.499 1.002 0 2.02-.202 2.998-.629 3.795-1.658 5.529-6.078 3.871-9.874-16.527-37.84-38.112-74.39-60.851-103.086-4.939-13.296-10.216-26.377-15.874-39.265-10.909-24.839-23.066-38.444-35.157-39.345-2.544-.189-4.977.21-7.198 1.128-9.183-16.696-16.266-26.24-25.337-24.076-9.212 1.546-11.97 13.122-13.841 32.112-2.409.028-4.809.622-7.083 1.804-10.756 5.59-16.572 22.874-16.816 49.983-.128 14.081.171 28.19.865 42.364-22.442 82.325-23.6 207.153 18.478 277.595 16.162 27.056 37.336 43.879 62.941 50.033 35.206 8.055 74.421-1.53 93.006-18.988 24.267-18.026 37.58-46.45 39.561-84.512 1.677-32.234-5.123-71.195-19.667-112.671zm-162.966 158.447c-31.219-52.263-37.32-141.735-26.831-216.592 3.557 29.626 8.866 59.767 16.013 90.814 11.64 50.563 27.914 103.099 50.905 164.227-15.663-7.212-29.111-20.073-40.087-38.449zm58.311 44.205c-53.906-140.837-76.518-247.613-75.531-356.337.23-25.647 5.814-35.293 8.734-36.811.245-.128.478-.251 1.299.314 3.002 2.069 7.231 9.973 5.798 22.377-.016.131-.027.263-.035.395-5.043 80.987 17.737 188.916 78.491 371.148-6.515.307-12.788-.054-18.756-1.086zm33.948-.77c-60.772-181.866-83.619-288.837-78.727-368.17 1.398-12.494-1.532-24.382-7.478-31.777.536-6.248 1.538-16.518 3.005-22.327 3.636 4.759 8.595 13.794 11.547 19.325-2.557 9.14-.566 21.232 5.646 32.175 35.719 71.006 56.821 178.338 72.544 369.454-.502.109-6.032 1.225-6.537 1.32zm21.234-5.604c-15.884-191.446-37.425-299.625-73.933-372.092-.061-.119-.123-.237-.189-.352-6.207-10.84-5.437-19.77-3.494-22.852.446-.708.702-.803.936-.803.043 0 .085.003.128.006 3.282.244 12.217 6.916 22.539 30.417 43.708 99.564 64.944 206.595 70.807 357.278-5.083 3.307-10.699 6.114-16.794 8.398z"/></g></svg>