<svg id="peanut" enable-background="new 0 0 300 300" height="512" viewBox="0 0 300 300" width="512" xmlns="http://www.w3.org/2000/svg"><g><circle cx="154" cy="154" fill="#fff0fd" r="92"/><path d="m234 214c-6.617 0-12-5.383-12-12s5.383-12 12-12 12 5.383 12 12-5.383 12-12 12zm0-16c-2.205 0-4 1.795-4 4s1.795 4 4 4 4-1.795 4-4-1.795-4-4-4z" fill="#4c241d"/><path d="m70 102c-1.023 0-2.047-.391-2.828-1.172l-12-12c-1.562-1.562-1.562-4.094 0-5.656s4.094-1.562 5.656 0l12 12c1.562 1.562 1.562 4.094 0 5.656-.781.781-1.805 1.172-2.828 1.172z" fill="#4c241d"/><path d="m58 102c-1.023 0-2.047-.391-2.828-1.172-1.562-1.562-1.562-4.094 0-5.656l12-12c1.562-1.562 4.094-1.562 5.656 0s1.562 4.094 0 5.656l-12 12c-.781.781-1.805 1.172-2.828 1.172z" fill="#4c241d"/><circle cx="66.397" cy="124.093" fill="#4c241d" r="4.276"/><circle cx="218.397" cy="160.093" fill="#4c241d" r="4.276"/><g><path d="m198 102c0-39.765-21.49-64-48-64s-48 24.235-48 64c0 10.184 1.413 20.394 3.958 29.953 3.14 11.794 3.14 24.3 0 36.094-2.545 9.558-3.958 19.769-3.958 29.953 0 39.764 21.49 64 48 64s48-24.236 48-64c0-10.184-1.413-20.395-3.958-29.954-3.14-11.794-3.14-24.3 0-36.094 2.545-9.558 3.958-19.768 3.958-29.952z" fill="#ffce56"/><path d="m150 266c-30.617 0-52-27.963-52-68 0-10.363 1.377-20.787 4.094-30.982 2.963-11.133 2.963-22.902 0-34.035-2.717-10.196-4.094-20.62-4.094-30.983 0-40.037 21.383-68 52-68s52 27.963 52 68c0 10.363-1.377 20.787-4.094 30.982-2.963 11.133-2.963 22.902 0 34.035 2.717 10.196 4.094 20.62 4.094 30.983 0 40.037-21.383 68-52 68zm0-224c-25.906 0-44 24.674-44 60 0 9.668 1.287 19.4 3.824 28.924 3.322 12.479 3.322 25.672 0 38.152-2.537 9.524-3.824 19.256-3.824 28.924 0 35.326 18.094 60 44 60s44-24.674 44-60c0-9.668-1.287-19.4-3.824-28.924-3.322-12.48-3.322-25.674 0-38.152 2.537-9.524 3.824-19.256 3.824-28.924 0-35.326-18.094-60-44-60z" fill="#4c241d"/></g><g><path d="m127.291 238.002c-1.686 0-3.252-1.072-3.803-2.76-3.561-10.898-5.414-22.072-5.51-33.207-.107-12.479 2.037-19.709 4.111-26.703 1.818-6.129 3.535-11.918 3.859-21.469.398-11.65-1.639-18.9-3.795-26.576-2.244-7.992-4.566-16.258-4.174-29.406.379-12.717 3.164-25.311 8.281-37.436.857-2.035 3.203-2.992 5.24-2.131 2.035.859 2.99 3.205 2.131 5.24-4.73 11.211-7.307 22.84-7.656 34.564-.355 11.926 1.701 19.25 3.881 27.006 2.225 7.924 4.527 16.119 4.088 29.012-.359 10.57-2.305 17.129-4.186 23.471-1.994 6.725-3.879 13.076-3.781 24.357.088 10.314 1.811 20.676 5.115 30.793.686 2.1-.461 4.359-2.561 5.045-.41.136-.83.2-1.24.2z" fill="#4c241d"/></g><g><path d="m172.646 238.002c-.41 0-.83-.064-1.242-.199-2.1-.686-3.246-2.945-2.561-5.045 3.305-10.117 5.027-20.479 5.115-30.793.096-11.279-1.787-17.631-3.783-24.355-1.881-6.344-3.826-12.9-4.186-23.473-.438-12.891 1.863-21.086 4.09-29.012 2.178-7.754 4.236-15.08 3.881-27.006-.35-11.729-2.926-23.357-7.658-34.562-.859-2.035.094-4.383 2.129-5.242 2.039-.861 4.385.096 5.242 2.129 5.117 12.121 7.904 24.717 8.283 37.438.393 13.15-1.93 21.416-4.176 29.408-2.154 7.676-4.191 14.924-3.795 26.574.324 9.551 2.041 15.34 3.859 21.471 2.074 6.992 4.219 14.223 4.113 26.699-.096 11.137-1.949 22.311-5.51 33.209-.549 1.687-2.117 2.759-3.801 2.759z" fill="#4c241d"/></g><g><path d="m149.994 238c-1.943 0-3.648-1.42-3.949-3.4-3.092-20.404-4.453-40.82-4.045-60.682.24-11.674 1.025-20.41 1.857-29.662.777-8.662 1.582-17.619 2.146-30.432.76-17.273.76-34.65 0-51.645-.098-2.207 1.611-4.076 3.816-4.176 2.25-.113 4.078 1.609 4.176 3.816.771 17.232.771 34.848 0 52.355-.572 12.996-1.422 22.453-2.172 30.797-.854 9.504-1.592 17.713-1.824 29.109-.4 19.406.93 39.365 3.955 59.318.33 2.184-1.172 4.223-3.355 4.555-.203.033-.406.047-.605.047z" fill="#4c241d"/></g><g fill="#4c241d"><path d="m108 77.802h7.999v20.396h-7.999z" transform="matrix(.196 -.981 .981 .196 3.744 180.567)"/><path d="m101.802 200h20.396v7.999h-20.396z" transform="matrix(.981 -.196 .196 .981 -37.867 25.955)"/><path d="m182 215.754h8.001v16.492h-8.001z" transform="matrix(.243 -.97 .97 .243 -76.424 350.119)"/><path d="m173.996 178c-1.867 0-3.539-1.314-3.918-3.215-.434-2.166.971-4.273 3.137-4.707l20-4c2.178-.432 4.275.973 4.707 3.137.434 2.166-.971 4.273-3.137 4.707l-20 4c-.265.053-.529.078-.789.078z"/><path d="m184 93.802h7.999v20.396h-7.999z" transform="matrix(.196 -.981 .981 .196 49.15 267.953)"/><path d="m156 117.802h7.999v20.396h-7.999z" transform="matrix(.196 -.981 .981 .196 3.107 259.79)"/><path d="m129.754 152h16.492v8.001h-16.492z" transform="matrix(.97 -.243 .243 .97 -33.729 38.148)"/></g></g></svg>