<svg id="pepper" enable-background="new 0 0 300 300" height="512" viewBox="0 0 300 300" width="512" xmlns="http://www.w3.org/2000/svg"><g><circle cx="151.273" cy="155.092" fill="#fff0fd" r="92"/><g fill="#4c241d"><path d="m103.273 79.092c-6.617 0-12-5.383-12-12s5.383-12 12-12 12 5.383 12 12-5.382 12-12 12zm0-16c-2.205 0-4 1.795-4 4s1.795 4 4 4 4-1.795 4-4-1.795-4-4-4z"/><path d="m183.273 99.092c-1.023 0-2.047-.391-2.828-1.172l-12-12c-1.562-1.562-1.562-4.094 0-5.656s4.094-1.562 5.656 0l12 12c1.562 1.562 1.562 4.094 0 5.656-.781.781-1.804 1.172-2.828 1.172z"/><path d="m171.273 99.092c-1.023 0-2.047-.391-2.828-1.172-1.562-1.562-1.562-4.094 0-5.656l12-12c1.562-1.562 4.094-1.562 5.656 0s1.562 4.094 0 5.656l-12 12c-.781.781-1.804 1.172-2.828 1.172z"/><path d="m83.273 243.092c-1.023 0-2.047-.391-2.828-1.172l-12-12c-1.562-1.562-1.562-4.094 0-5.656s4.094-1.562 5.656 0l12 12c1.562 1.562 1.562 4.094 0 5.656-.781.781-1.804 1.172-2.828 1.172z"/><path d="m71.273 243.092c-1.023 0-2.047-.391-2.828-1.172-1.562-1.562-1.562-4.094 0-5.656l12-12c1.562-1.562 4.094-1.562 5.656 0s1.562 4.094 0 5.656l-12 12c-.781.781-1.804 1.172-2.828 1.172z"/><circle cx="139.67" cy="57.185" r="4.276"/><circle cx="203.67" cy="105.185" r="4.276"/><circle cx="191.67" cy="205.185" r="4.276"/></g><g><path d="m271.281 155.092c-48.008-4-108.008 28-140.008 36l40-24c50.723-28.002 97.793-28 100-28" fill="#ffded5"/><path d="m131.271 195.092c-1.584 0-3.062-.947-3.693-2.469-.758-1.832-.062-3.941 1.637-4.961l40-24c50.299-27.771 96.908-28.57 102.059-28.57 2.209 0 4 1.791 4 4s-1.791 4-4 4c-4.939 0-49.648.771-98.066 27.502l-7.422 4.453c31.957-12.018 71.543-26.803 105.828-23.941 2.201.184 3.838 2.117 3.654 4.318s-2.123 3.846-4.318 3.654c-32.746-2.736-71.717 11.936-103.043 23.719-13.873 5.217-25.854 9.723-35.662 12.176-.325.08-.651.119-.974.119z" fill="#4c241d"/></g><g><path d="m28.719 167.092c6.672 18.258 35.722 32 70.554 32s65.328-13.742 72-32z" fill="#ffded5"/><path d="m99.273 203.092c-36.303 0-66.861-14.238-74.312-34.627-.447-1.227-.27-2.596.48-3.666.748-1.07 1.971-1.707 3.277-1.707h142.555c1.307 0 2.529.637 3.277 1.707.75 1.07.928 2.439.48 3.666-7.331 20.064-39.192 34.627-75.757 34.627zm-64.017-32c9.596 14.186 35.061 24 64.018 24 29.174 0 55.617-9.998 65.402-24z" fill="#4c241d"/></g><g><circle cx="51.273" cy="159.092" fill="#6b4f5b" r="8"/><path d="m51.273 171.092c-6.617 0-12-5.383-12-12s5.383-12 12-12 12 5.383 12 12-5.382 12-12 12zm0-16c-2.205 0-4 1.795-4 4s1.795 4 4 4 4-1.795 4-4-1.795-4-4-4z" fill="#4c241d"/></g><g><circle cx="67.273" cy="159.092" fill="#b5a19c" r="8"/><path d="m67.273 171.092c-6.617 0-12-5.383-12-12s5.383-12 12-12 12 5.383 12 12-5.382 12-12 12zm0-16c-2.205 0-4 1.795-4 4s1.795 4 4 4 4-1.795 4-4-1.795-4-4-4z" fill="#4c241d"/></g><g><circle cx="83.273" cy="159.092" fill="#6b4f5b" r="8"/><path d="m83.273 171.092c-6.617 0-12-5.383-12-12s5.383-12 12-12 12 5.383 12 12-5.382 12-12 12zm0-16c-2.205 0-4 1.795-4 4s1.795 4 4 4 4-1.795 4-4-1.795-4-4-4z" fill="#4c241d"/></g><g><circle cx="99.273" cy="159.092" fill="#b5a19c" r="8"/><path d="m99.273 171.092c-6.617 0-12-5.383-12-12s5.383-12 12-12 12 5.383 12 12-5.382 12-12 12zm0-16c-2.205 0-4 1.795-4 4s1.795 4 4 4 4-1.795 4-4-1.795-4-4-4z" fill="#4c241d"/></g><g><circle cx="115.273" cy="159.092" fill="#6b4f5b" r="8"/><path d="m115.273 171.092c-6.617 0-12-5.383-12-12s5.383-12 12-12 12 5.383 12 12-5.382 12-12 12zm0-16c-2.205 0-4 1.795-4 4s1.795 4 4 4 4-1.795 4-4-1.795-4-4-4z" fill="#4c241d"/></g><g><circle cx="131.273" cy="159.092" fill="#6b4f5b" r="8"/><path d="m131.273 171.092c-6.617 0-12-5.383-12-12s5.383-12 12-12 12 5.383 12 12-5.382 12-12 12zm0-16c-2.205 0-4 1.795-4 4s1.795 4 4 4 4-1.795 4-4-1.794-4-4-4z" fill="#4c241d"/></g><g><circle cx="147.273" cy="159.092" fill="#6b4f5b" r="8"/><path d="m147.273 171.092c-6.617 0-12-5.383-12-12s5.383-12 12-12 12 5.383 12 12-5.382 12-12 12zm0-16c-2.205 0-4 1.795-4 4s1.795 4 4 4 4-1.795 4-4-1.794-4-4-4z" fill="#4c241d"/></g><g><circle cx="59.273" cy="143.092" fill="#6b4f5b" r="8"/><path d="m59.273 155.092c-6.617 0-12-5.383-12-12s5.383-12 12-12 12 5.383 12 12-5.382 12-12 12zm0-16c-2.205 0-4 1.795-4 4s1.795 4 4 4 4-1.795 4-4-1.795-4-4-4z" fill="#4c241d"/></g><g><circle cx="75.273" cy="143.092" fill="#b5a19c" r="8"/><path d="m75.273 155.092c-6.617 0-12-5.383-12-12s5.383-12 12-12 12 5.383 12 12-5.382 12-12 12zm0-16c-2.205 0-4 1.795-4 4s1.795 4 4 4 4-1.795 4-4-1.795-4-4-4z" fill="#4c241d"/></g><g><circle cx="91.273" cy="143.092" fill="#6b4f5b" r="8"/><path d="m91.273 155.092c-6.617 0-12-5.383-12-12s5.383-12 12-12 12 5.383 12 12-5.382 12-12 12zm0-16c-2.205 0-4 1.795-4 4s1.795 4 4 4 4-1.795 4-4-1.795-4-4-4z" fill="#4c241d"/></g><g><circle cx="107.273" cy="143.092" fill="#6b4f5b" r="8"/><path d="m107.273 155.092c-6.617 0-12-5.383-12-12s5.383-12 12-12 12 5.383 12 12-5.382 12-12 12zm0-16c-2.205 0-4 1.795-4 4s1.795 4 4 4 4-1.795 4-4-1.795-4-4-4z" fill="#4c241d"/></g><g><circle cx="123.273" cy="143.092" fill="#b5a19c" r="8"/><path d="m123.273 155.092c-6.617 0-12-5.383-12-12s5.383-12 12-12 12 5.383 12 12-5.382 12-12 12zm0-16c-2.205 0-4 1.795-4 4s1.795 4 4 4 4-1.795 4-4-1.795-4-4-4z" fill="#4c241d"/></g><g><circle cx="67.273" cy="127.092" fill="#6b4f5b" r="8"/><path d="m67.273 139.092c-6.617 0-12-5.383-12-12s5.383-12 12-12 12 5.383 12 12-5.382 12-12 12zm0-16c-2.205 0-4 1.795-4 4s1.795 4 4 4 4-1.795 4-4-1.795-4-4-4z" fill="#4c241d"/></g><g><circle cx="83.273" cy="127.092" fill="#b5a19c" r="8"/><path d="m83.273 139.092c-6.617 0-12-5.383-12-12s5.383-12 12-12 12 5.383 12 12-5.382 12-12 12zm0-16c-2.205 0-4 1.795-4 4s1.795 4 4 4 4-1.795 4-4-1.795-4-4-4z" fill="#4c241d"/></g><g><circle cx="99.273" cy="127.092" fill="#6b4f5b" r="8"/><path d="m99.273 139.092c-6.617 0-12-5.383-12-12s5.383-12 12-12 12 5.383 12 12-5.382 12-12 12zm0-16c-2.205 0-4 1.795-4 4s1.795 4 4 4 4-1.795 4-4-1.795-4-4-4z" fill="#4c241d"/></g><g><circle cx="115.273" cy="127.092" fill="#6b4f5b" r="8"/><path d="m115.273 139.092c-6.617 0-12-5.383-12-12s5.383-12 12-12 12 5.383 12 12-5.382 12-12 12zm0-16c-2.205 0-4 1.795-4 4s1.795 4 4 4 4-1.795 4-4-1.795-4-4-4z" fill="#4c241d"/></g><g><circle cx="131.273" cy="127.092" fill="#b5a19c" r="8"/><path d="m131.273 139.092c-6.617 0-12-5.383-12-12s5.383-12 12-12 12 5.383 12 12-5.382 12-12 12zm0-16c-2.205 0-4 1.795-4 4s1.795 4 4 4 4-1.795 4-4-1.794-4-4-4z" fill="#4c241d"/></g><g><circle cx="139.273" cy="143.092" fill="#6b4f5b" r="8"/><path d="m139.273 155.092c-6.617 0-12-5.383-12-12s5.383-12 12-12 12 5.383 12 12-5.382 12-12 12zm0-16c-2.205 0-4 1.795-4 4s1.795 4 4 4 4-1.795 4-4-1.794-4-4-4z" fill="#4c241d"/></g></g></svg>