<svg id="spice-tool" enable-background="new 0 0 300 300" height="512" viewBox="0 0 300 300" width="512" xmlns="http://www.w3.org/2000/svg"><g><path d="m251.102 230.219c-1.023 0-2.047-.391-2.828-1.172l-12-12c-1.562-1.562-1.562-4.094 0-5.656s4.094-1.562 5.656 0l12 12c1.562 1.562 1.562 4.094 0 5.656-.782.781-1.805 1.172-2.828 1.172z" fill="#4c241d"/><path d="m239.102 230.219c-1.023 0-2.047-.391-2.828-1.172-1.562-1.562-1.562-4.094 0-5.656l12-12c1.562-1.562 4.094-1.562 5.656 0s1.562 4.094 0 5.656l-12 12c-.782.781-1.805 1.172-2.828 1.172z" fill="#4c241d"/><circle cx="136.898" cy="146" fill="#fff0fd" r="92"/><path d="m130.898 62c-7.719 0-14-6.281-14-14s6.281-14 14-14 14 6.281 14 14-6.281 14-14 14zm0-20c-3.309 0-6 2.691-6 6s2.691 6 6 6 6-2.691 6-6-2.691-6-6-6z" fill="#4c241d"/><circle cx="59.041" cy="200.391" fill="#4c241d" r="4.276"/><circle cx="83.041" cy="176.391" fill="#4c241d" r="4.276"/><circle cx="83.041" cy="140.391" fill="#4c241d" r="4.276"/><circle cx="59.041" cy="160.391" fill="#4c241d" r="4.276"/><circle cx="87.041" cy="208.391" fill="#4c241d" r="4.276"/><circle cx="231.041" cy="164.391" fill="#4c241d" r="4.276"/><g><path d="m204.898 122v-16h-104v16l12 12v104l-12 12v16h104v-16l-12-12v-104z" fill="#bf7e68"/><path d="m204.898 270h-104c-2.211 0-4-1.791-4-4v-16c0-1.061.422-2.078 1.172-2.828l10.828-10.828v-100.688l-10.828-10.828c-.75-.75-1.172-1.768-1.172-2.828v-16c0-2.209 1.789-4 4-4h104c2.211 0 4 1.791 4 4v16c0 1.061-.422 2.078-1.172 2.828l-10.828 10.828v100.688l10.828 10.828c.75.75 1.172 1.768 1.172 2.828v16c0 2.209-1.789 4-4 4zm-100-8h96v-10.344l-10.828-10.828c-.75-.75-1.172-1.768-1.172-2.828v-104c0-1.061.422-2.078 1.172-2.828l10.828-10.828v-10.344h-96v10.344l10.828 10.828c.75.75 1.172 1.768 1.172 2.828v104c0 1.061-.422 2.078-1.172 2.828l-10.828 10.828zm100-140h.039z" fill="#4c241d"/></g><g fill="#4c241d"><path d="m120.898 170h-8c-2.211 0-4-1.791-4-4s1.789-4 4-4h8c2.211 0 4 1.791 4 4s-1.789 4-4 4z"/><path d="m188.898 190h-12c-2.211 0-4-1.791-4-4s1.789-4 4-4h12c2.211 0 4 1.791 4 4s-1.789 4-4 4z"/><path d="m160.898 190h-12c-2.211 0-4-1.791-4-4s1.789-4 4-4h12c2.211 0 4 1.791 4 4s-1.789 4-4 4z"/><path d="m168.898 230h-28c-2.211 0-4-1.791-4-4s1.789-4 4-4h28c2.211 0 4 1.791 4 4s-1.789 4-4 4z"/><path d="m172.898 150h-16c-2.211 0-4-1.791-4-4s1.789-4 4-4h16c2.211 0 4 1.791 4 4s-1.789 4-4 4z"/><path d="m136.898 150h-24c-2.211 0-4-1.791-4-4s1.789-4 4-4h24c2.211 0 4 1.791 4 4s-1.789 4-4 4z"/><path d="m128.898 210h-12c-2.211 0-4-1.791-4-4s1.789-4 4-4h12c2.211 0 4 1.791 4 4s-1.789 4-4 4z"/><path d="m152.898 110c-2.211 0-4-1.791-4-4v-24c0-2.209 1.789-4 4-4h48v-4c0-2.209 1.789-4 4-4s4 1.791 4 4v8c0 2.209-1.789 4-4 4h-48v20c0 2.209-1.789 4-4 4z"/></g><g><path d="m196.898 34h16v36h-16z" fill="#bf7e68"/><path d="m212.898 74h-16c-2.211 0-4-1.791-4-4v-36c0-2.209 1.789-4 4-4h16c2.211 0 4 1.791 4 4v36c0 2.209-1.789 4-4 4zm-12-8h8v-28h-8z" fill="#4c241d"/></g></g></svg>