<svg id="spices" enable-background="new 0 0 300 300" height="512" viewBox="0 0 300 300" width="512" xmlns="http://www.w3.org/2000/svg"><g><circle cx="137.581" cy="147.429" fill="#fff0fd" r="92"/><path d="m69.581 155.429c-6.617 0-12-5.383-12-12s5.383-12 12-12 12 5.383 12 12-5.383 12-12 12zm0-16c-2.205 0-4 1.795-4 4s1.795 4 4 4 4-1.795 4-4-1.795-4-4-4z" fill="#4c241d"/><path d="m113.581 79.429c-1.023 0-2.047-.391-2.828-1.172l-12-12c-1.562-1.562-1.562-4.094 0-5.656s4.094-1.562 5.656 0l12 12c1.562 1.562 1.562 4.094 0 5.656-.781.781-1.805 1.172-2.828 1.172z" fill="#4c241d"/><path d="m101.581 79.429c-1.023 0-2.047-.391-2.828-1.172-1.562-1.562-1.562-4.094 0-5.656l12-12c1.562-1.562 4.094-1.562 5.656 0s1.562 4.094 0 5.656l-12 12c-.781.781-1.805 1.172-2.828 1.172z" fill="#4c241d"/><circle cx="109.978" cy="101.522" fill="#4c241d" r="4.276"/><circle cx="241.978" cy="177.522" fill="#4c241d" r="4.276"/><path d="m253.581 147.429c-1.023 0-2.047-.391-2.828-1.172l-12-12c-1.562-1.562-1.562-4.094 0-5.656 1.562-1.563 4.094-1.563 5.656 0l12 12c1.562 1.562 1.562 4.094 0 5.656-.781.781-1.805 1.172-2.828 1.172z" fill="#4c241d"/><path d="m241.581 147.429c-1.023 0-2.047-.391-2.828-1.172-1.562-1.562-1.562-4.094 0-5.656l12-12c1.562-1.563 4.094-1.563 5.656 0 1.562 1.562 1.562 4.094 0 5.656l-12 12c-.781.781-1.805 1.172-2.828 1.172z" fill="#4c241d"/><g><path d="m157.727 201.159-15.923-8.599c-14.069-7.598-19.315-25.162-11.717-39.231l14.301-26.482c7.598-14.069 25.162-19.315 39.231-11.717l15.923 8.599c14.069 7.598 19.315 25.162 11.717 39.231l-14.301 26.482c-7.597 14.069-25.162 19.315-39.231 11.717z" fill="#ffded5"/><path d="m171.429 208.632c-5.283 0-10.637-1.271-15.602-3.953l-15.924-8.6c-15.986-8.633-21.969-28.664-13.336-44.652l14.301-26.48c8.633-15.986 28.664-21.965 44.652-13.336l15.922 8.598c7.746 4.182 13.398 11.131 15.918 19.564 2.518 8.434 1.602 17.344-2.58 25.088l-14.303 26.482c-5.951 11.022-17.322 17.289-29.048 17.289zm-1.535-92.992c-2.398 0-4.809.35-7.172 1.057-6.387 1.906-11.648 6.186-14.814 12.051l-14.301 26.48c-6.537 12.107-2.008 27.275 10.098 33.812l15.924 8.6c5.865 3.164 12.613 3.859 18.996 1.953 6.387-1.908 11.648-6.188 14.814-12.051l14.303-26.482c3.166-5.865 3.861-12.611 1.953-18.998s-6.188-11.648-12.053-14.814l-15.922-8.598c-3.696-1.996-7.741-3.01-11.826-3.01z" fill="#4c241d"/></g><g><path d="m163.307 190.534-15.678-8.467c-8.305-4.485-11.402-14.854-6.917-23.159l14.169-26.237c4.485-8.305 14.854-11.402 23.159-6.917l15.678 8.467c8.305 4.485 11.402 14.854 6.917 23.159l-14.169 26.237c-4.485 8.306-14.854 11.402-23.159 6.917z" fill="#f4aeab"/><path d="m171.399 196.597c-3.451 0-6.869-.857-9.992-2.543l-15.68-8.467c-10.232-5.527-14.061-18.35-8.535-28.58l14.168-26.236c2.678-4.957 7.125-8.574 12.523-10.188 5.391-1.613 11.1-1.029 16.057 1.652l15.678 8.467c4.957 2.676 8.574 7.123 10.188 12.521 1.611 5.398 1.025 11.1-1.65 16.057l-14.17 26.236c-2.676 4.957-7.123 8.576-12.521 10.188-1.997.598-4.038.893-6.066.893zm-6.191-9.582c3.078 1.664 6.619 2.025 9.967 1.025 3.35-1.002 6.109-3.248 7.771-6.324l14.17-26.236c1.66-3.076 2.025-6.615 1.023-9.967-1-3.35-3.246-6.109-6.322-7.771l-15.678-8.467c-3.078-1.662-6.617-2.025-9.967-1.025-3.352 1-6.111 3.246-7.773 6.322l-14.168 26.236c-3.43 6.352-1.053 14.309 5.297 17.74z" fill="#4c241d"/></g><g><path d="m177.581 249.993-41.015-40.482c-13.619-13.442-35.513-13.442-49.132 0l-41.015 40.482" fill="#ffce56"/><path d="m177.581 253.993c-1.016 0-2.031-.385-2.811-1.152l-41.016-40.482c-11.996-11.842-31.514-11.846-43.51 0l-41.016 40.482c-1.572 1.549-4.105 1.535-5.658-.037-1.551-1.572-1.535-4.105.037-5.658l41.016-40.482c15.096-14.902 39.656-14.898 54.752 0l41.016 40.482c1.572 1.553 1.588 4.086.037 5.658-.782.793-1.814 1.189-2.847 1.189z" fill="#4c241d"/></g><g><path d="m180.432 108.15h28v12h-28z" fill="#f4aeab" transform="matrix(.88 .475 -.475 .88 77.594 -78.679)"/><path d="m203.896 130.081c-.641 0-1.293-.154-1.896-.48l-24.637-13.305c-1.943-1.049-2.668-3.477-1.619-5.42l5.701-10.559c.504-.934 1.357-1.629 2.375-1.932 1.016-.311 2.107-.191 3.045.312l24.639 13.305c.934.504 1.629 1.357 1.932 2.375.305 1.016.191 2.111-.312 3.045l-5.703 10.559c-.725 1.341-2.104 2.1-3.525 2.1zm-19.213-18.923 17.598 9.504 1.902-3.52-17.6-9.504z" fill="#4c241d"/></g><g><path d="m253.581 253.993-50.033-49.383c-16.613-16.398-43.321-16.398-59.934 0l-50.033 49.383" fill="#e66353"/><path d="m253.581 257.993c-1.016 0-2.031-.385-2.811-1.152l-50.033-49.383c-14.973-14.781-39.34-14.781-54.312 0l-50.033 49.383c-1.572 1.549-4.105 1.535-5.658-.037-1.551-1.572-1.535-4.105.037-5.658l50.033-49.383c18.07-17.84 47.477-17.84 65.555 0l50.033 49.383c1.572 1.553 1.588 4.086.037 5.658-.783.793-1.815 1.189-2.848 1.189z" fill="#4c241d"/></g><g fill="#4c241d"><circle cx="137.581" cy="231.429" r="4"/><circle cx="89.581" cy="239.429" r="4"/><circle cx="173.581" cy="247.429" r="4"/><circle cx="157.581" cy="223.429" r="4"/><circle cx="189.581" cy="239.429" r="4"/><circle cx="177.581" cy="227.429" r="4"/><circle cx="109.581" cy="215.429" r="4"/><circle cx="173.581" cy="211.429" r="4"/><circle cx="93.581" cy="223.429" r="4"/><circle cx="197.581" cy="223.429" r="4"/><circle cx="213.581" cy="239.429" r="4"/><circle cx="157.581" cy="239.429" r="4"/><circle cx="129.581" cy="247.429" r="4"/><circle cx="73.581" cy="243.429" r="4"/></g><g><path d="m242.195 46.75-36.113 66.872-17.598-9.503 31.383-58.112" fill="#f4aeab"/><path d="m206.079 117.622c-.641 0-1.293-.154-1.896-.48l-17.6-9.504c-.934-.504-1.629-1.357-1.932-2.375-.305-1.016-.191-2.111.312-3.045l31.383-58.111c1.047-1.941 3.473-2.67 5.42-1.619 1.943 1.049 2.668 3.477 1.619 5.42l-29.482 54.592 10.561 5.703 34.213-63.352c1.049-1.943 3.473-2.672 5.42-1.619 1.943 1.049 2.668 3.477 1.619 5.42l-36.113 66.871c-.723 1.34-2.1 2.099-3.524 2.099z" fill="#4c241d"/></g></g></svg>