<svg id="sunflower" enable-background="new 0 0 300 300" height="512" viewBox="0 0 300 300" width="512" xmlns="http://www.w3.org/2000/svg"><g><circle cx="123.5" cy="126" fill="#fff0fd" r="92"/><path d="m83.5 66c-6.617 0-12-5.383-12-12s5.383-12 12-12 12 5.383 12 12-5.383 12-12 12zm0-16c-2.205 0-4 1.795-4 4s1.795 4 4 4 4-1.795 4-4-1.795-4-4-4z" fill="#4c241d"/><path d="m247.5 266c-1.023 0-2.047-.391-2.828-1.172l-12-12c-1.562-1.562-1.562-4.094 0-5.656s4.094-1.562 5.656 0l12 12c1.562 1.562 1.562 4.094 0 5.656-.781.781-1.805 1.172-2.828 1.172z" fill="#4c241d"/><path d="m235.5 266c-1.023 0-2.047-.391-2.828-1.172-1.562-1.562-1.562-4.094 0-5.656l12-12c1.562-1.562 4.094-1.562 5.656 0s1.562 4.094 0 5.656l-12 12c-.781.781-1.805 1.172-2.828 1.172z" fill="#4c241d"/><circle cx="59.897" cy="80.093" fill="#4c241d" r="4.276"/><circle cx="55.897" cy="224.093" fill="#4c241d" r="4.276"/><g><path d="m264.5 155c0-2.179-23.652-18.922-48.54-24.301 13.392-21.776 17.2-51.36 17.2-51.36-1.542-1.542-30.136 3.351-51.543 17.164-5.923-24.875-24.117-48.503-24.117-48.503-2.179 0-18.921 23.652-24.301 48.54-21.776-13.392-51.36-17.2-51.36-17.2-1.538 1.538 3.326 29.999 17.062 51.388-24.837 5.411-48.401 22.097-48.401 24.272 0 0 23.628 18.194 48.503 24.117-13.813 21.407-18.705 50.001-17.164 51.543 0 0 29.584-3.808 51.36-17.2 5.379 24.888 22.122 48.54 24.301 48.54 0 0 18.194-23.628 24.117-48.503 21.407 13.813 50.001 18.705 51.543 17.164 0 0-3.824-29.724-17.293-51.514 24.923-5.891 48.633-24.147 48.633-24.147z" fill="#ffce56"/><path d="m157.5 266c-5.984 0-20.801-24.684-26.9-46.438-21.484 11.512-47.092 14.916-48.248 15.064-1.234.16-2.463-.262-3.338-1.137-4.764-4.756 4.168-34.242 13.867-51.887-23.352-7.037-43.896-22.723-44.822-23.434-.982-.758-1.559-1.93-1.559-3.17 0-6.404 25.623-20.932 46.227-26.83-10.398-18.744-18.244-47.135-13.713-51.66.877-.873 2.105-1.283 3.338-1.137 1.156.148 26.764 3.553 48.248 15.064 6.099-21.751 20.916-46.435 26.9-46.435 1.242 0 2.41.576 3.168 1.559.715.926 16.398 21.471 23.438 44.824 17.641-9.699 47.117-18.637 51.883-13.871.875.877 1.297 2.109 1.141 3.34-.152 1.156-3.555 26.764-15.066 48.248 21.754 6.1 46.438 20.916 46.438 26.9 0 1.242-.578 2.412-1.559 3.17-.93.715-21.582 16.479-45.008 23.488 11.617 21.533 15.043 47.328 15.195 48.492.156 1.229-.266 2.463-1.141 3.34-4.758 4.754-34.246-4.176-51.883-13.873-7.039 23.354-22.723 43.898-23.438 44.824-.758.983-1.926 1.559-3.168 1.559zm-24.301-56.539c.533 0 1.066.105 1.57.32 1.191.51 2.066 1.566 2.34 2.834 4.094 18.949 14.855 36.578 19.887 43.234 5.168-7.477 16.422-25.182 20.73-43.279.301-1.264 1.195-2.303 2.398-2.785 1.203-.486 2.566-.354 3.66.35 16.305 10.521 36.406 15.387 44.676 16.535-1.625-8.967-6.188-29.553-15.996-45.42-.676-1.094-.785-2.445-.293-3.633.492-1.189 1.523-2.068 2.773-2.363 18.145-4.289 35.91-15.578 43.406-20.76-6.66-5.031-24.285-15.789-43.234-19.885-1.27-.275-2.324-1.146-2.836-2.34-.508-1.193-.406-2.561.273-3.666 9.742-15.846 14.285-36.334 15.906-45.273-8.266 1.148-28.367 6.012-44.676 16.535-1.094.705-2.457.834-3.66.35-1.203-.482-2.098-1.521-2.398-2.785-4.309-18.098-15.562-35.803-20.73-43.279-5.031 6.656-15.793 24.285-19.887 43.234-.273 1.268-1.148 2.324-2.34 2.834-1.193.512-2.561.408-3.666-.271-15.846-9.746-36.332-14.287-45.271-15.906 1.145 8.24 5.982 28.248 16.436 44.525.709 1.104.832 2.482.33 3.693s-1.564 2.098-2.844 2.377c-18.898 4.117-36.463 14.84-43.104 19.859 7.477 5.168 25.182 16.422 43.279 20.73 1.264.301 2.303 1.195 2.785 2.4.484 1.203.354 2.568-.35 3.658-10.523 16.307-15.387 36.408-16.535 44.676 8.939-1.621 29.428-6.162 45.273-15.908.641-.392 1.368-.591 2.098-.591zm131.301-54.461h.039zm-32.535-71.918h.004zm-72.66-31.592" fill="#4c241d"/></g><g><path d="m256.113 196.526c.846-2.008-14.455-26.618-35.304-41.234 20.793-14.872 35.784-40.659 35.784-40.659-.823-2.019-29.075-8.608-54.164-4.185 4.195-25.224-3.403-54.062-3.403-54.062-2.008-.846-26.617 14.455-41.234 35.305-14.872-20.793-40.659-35.784-40.659-35.784-2.014.821-8.577 28.939-4.218 53.982-24.991-4.652-53.184 1.581-54.028 3.585 0 0 14.715 25.938 35.342 41.051-21.038 14.368-36.644 38.823-35.822 40.842 0 0 28.743 7.972 54.009 4.08-4.701 25.025 1.55 53.321 3.558 54.166 0 0 25.938-14.715 41.051-35.342 14.368 21.038 38.823 36.644 40.842 35.822 0 0 8.011-28.878 4.054-54.187 25.255 4.243 54.192-3.38 54.192-3.38z" fill="#ffce56"/><path d="m198.09 258.021c-7.711.002-29.391-18.293-41.148-33.143-15.547 18.791-37.979 31.639-38.992 32.213-1.08.613-2.385.691-3.527.207-5.516-2.322-9.59-30.82-6.77-53.238-24.252 2.271-49.189-4.529-50.314-4.838-1.195-.332-2.168-1.199-2.637-2.348-2.537-6.232 17.137-29.939 32.92-42.434-18.791-15.549-31.639-37.979-32.213-38.992-.613-1.08-.689-2.383-.209-3.525 2.482-5.904 31.74-9.348 53.016-6.789-2.309-21.307 1.479-50.518 7.408-52.934 1.145-.469 2.449-.383 3.52.248 1.01.586 23.287 13.662 38.623 32.611 14.062-17.684 37.305-34.672 42.812-32.361 1.145.48 2 1.467 2.316 2.668.297 1.129 6.781 26.15 4.203 50.404 20.004-2.094 50.656 1.117 53.199 7.35.469 1.148.379 2.449-.246 3.521-.586 1.01-13.66 23.289-32.609 38.621 17.688 14.066 34.684 37.303 32.355 42.818-.48 1.141-1.465 1.996-2.664 2.311-1.137.301-26.301 6.803-50.594 4.184 2.348 24.352-4.504 49.455-4.816 50.586-.332 1.195-1.199 2.168-2.348 2.637-.367.151-.797.223-1.285.223zm.129-7.839h.004c-.004 0-.004 0-.004 0zm-41.196-35.911h.066c1.297.021 2.504.672 3.238 1.744 10.945 16.025 27.582 28.309 34.758 32.576 1.98-8.895 5.766-29.639 2.883-48.068-.199-1.27.227-2.559 1.141-3.461.91-.904 2.191-1.314 3.477-1.102 18.383 3.088 39.137-.426 48.055-2.287-4.18-7.221-16.254-23.979-32.129-35.107-1.062-.744-1.695-1.959-1.703-3.256-.008-1.299.617-2.518 1.672-3.273 15.16-10.842 27.277-27.943 32.234-35.549-8.066-2.152-28.48-5.469-47.59-2.102-1.277.232-2.586-.184-3.512-1.098-.922-.914-1.344-2.217-1.129-3.498 3.051-18.352-.445-39.037-2.309-47.934-7.223 4.182-23.98 16.254-35.105 32.129-.746 1.062-1.961 1.699-3.258 1.705-.008 0-.012 0-.02 0-1.289 0-2.504-.623-3.254-1.672-10.824-15.131-27.939-27.268-35.551-32.232-2.143 8.043-5.449 28.359-2.133 47.416.225 1.291-.197 2.609-1.129 3.531-.934.922-2.26 1.334-3.545 1.086-19.012-3.533-39.365-.471-47.43 1.576 4.883 7.664 16.832 24.906 31.84 35.902 1.049.768 1.658 1.994 1.637 3.293s-.672 2.504-1.744 3.236c-16.025 10.943-28.309 27.582-32.576 34.756 8.867 1.977 29.514 5.748 47.898 2.91 1.297-.201 2.582.24 3.484 1.172s1.295 2.244 1.057 3.52c-3.58 19.053-.506 39.477 1.549 47.564 7.666-4.885 24.908-16.834 35.9-31.842.756-1.027 1.955-1.635 3.228-1.635zm99.09-17.746h.039zm-135.994-138.068" fill="#4c241d"/></g><g><circle cx="157.5" cy="154" fill="#6b4f5b" r="58"/><path d="m157.5 216c-34.188 0-62-27.812-62-62s27.812-62 62-62 62 27.812 62 62-27.812 62-62 62zm0-116c-29.775 0-54 24.225-54 54s24.225 54 54 54c29.777 0 54-24.225 54-54s-24.223-54-54-54z" fill="#4c241d"/></g><g fill="#4c241d"><circle cx="135.5" cy="158" r="4"/><circle cx="119.5" cy="134" r="4"/><circle cx="111.5" cy="154" r="4"/><circle cx="127.5" cy="174" r="4"/><circle cx="155.5" cy="126" r="4"/><circle cx="171.5" cy="114" r="4"/><circle cx="163.5" cy="138" r="4"/><circle cx="155.5" cy="162" r="4"/><circle cx="151.5" cy="182" r="4"/><circle cx="123.5" cy="186" r="4"/><circle cx="151.5" cy="198" r="4"/><circle cx="191.5" cy="126" r="4"/><circle cx="187.5" cy="150" r="4"/><circle cx="191.5" cy="162" r="4"/><circle cx="191.5" cy="178" r="4"/><circle cx="179.5" cy="190" r="4"/><circle cx="167.5" cy="198" r="4"/><circle cx="167.5" cy="182" r="4"/><circle cx="179.5" cy="170" r="4"/><circle cx="199.5" cy="146" r="4"/><circle cx="203.5" cy="162" r="4"/><circle cx="155.5" cy="150" r="4"/><circle cx="143.5" cy="170" r="4"/><circle cx="139.5" cy="186" r="4"/><circle cx="155.5" cy="110" r="4"/><circle cx="143.5" cy="130" r="4"/><circle cx="143.5" cy="114" r="4"/><circle cx="171.5" cy="126" r="4"/><circle cx="179.5" cy="138" r="4"/><circle cx="171.5" cy="154" r="4"/><circle cx="163.5" cy="170" r="4"/><circle cx="139.5" cy="146" r="4"/><circle cx="123.5" cy="146" r="4"/><circle cx="119.5" cy="162" r="4"/><circle cx="131.5" cy="122" r="4"/></g></g></svg>