<svg id="Capa_1" enable-background="new 0 0 512 512" height="512" viewBox="0 0 512 512" width="512" xmlns="http://www.w3.org/2000/svg"><g><g><path d="m350.668 192.532-30.302-39.874c-4.834-6.361-7.46-14.204-7.46-22.279v-94.031h-127.841v94.031c0 8.076-2.626 15.919-7.46 22.279l-30.302 39.874c-12.755 16.784-19.694 37.473-19.715 58.782l-.244 210.014c-.022 22.425 17.632 40.617 39.419 40.617h164.446c21.786 0 39.441-18.191 39.419-40.617l-.244-210.014c-.022-21.309-6.961-41.999-19.716-58.782z" fill="#c1e5ef"/><path d="m370.384 251.313c-.021-21.309-6.961-41.998-19.715-58.781l-30.302-39.875c-4.834-6.36-7.46-14.203-7.46-22.279v-57.163h-42.515v70.514c0 7.059 2.024 13.917 5.751 19.479l23.36 34.863c9.832 14.675 15.181 32.764 15.198 51.395l.188 158.457c.017 19.607-13.592 35.513-30.387 35.513h-126.771c-16.172 0-29.386-14.75-30.327-33.351l-.06 51.241c-.022 22.425 17.632 40.616 39.419 40.616h164.446c21.786 0 39.441-18.192 39.419-40.616z" fill="#a6aaed"/><path d="m324.098 205.212-13.476-17.734h-122.777l-14.113 18.679c-9.633 14.76-16.415 30.281-16.431 49.02l-.184 184.691c0 23.295 1.609 35.719 29.771 35.719h124.197c29.771 0 29.771-14.229 29.771-35.719l-.184-184.691c-.017-18.739-6.942-35.205-16.574-49.965z" fill="#e8a284"/><path d="m328.675 212.767c-1.44-2.567-2.966-5.087-4.577-7.555l-13.476-17.734h-122.777l-14.113 18.679c-1.425 2.183-2.778 4.386-4.065 6.61z" fill="#efc5b4"/><path d="m328.259 243.073-16.211-10.204c-8.574-5.398-19.901-2.823-25.298 5.751l-9.086 14.434c-3.287-5.234-9.122-8.695-15.754-8.614l-19.153.234c-9.086.111-16.529 6.816-17.882 15.505l-5.233-13.24c-3.724-9.422-14.382-14.041-23.804-10.318l-17.814 7.041c-9.423 3.724-14.042 14.382-10.318 23.804l6.68 16.903c3.724 9.422 14.382 14.041 23.804 10.317l17.814-7.04c3.821-1.51 6.834-4.171 8.839-7.418l.014 1.186c.124 10.132 8.437 18.244 18.568 18.12l19.153-.233c10.131-.124 18.244-8.437 18.121-18.568l-.037-3.05c.675.578 1.383 1.128 2.157 1.617l16.21 10.204c8.574 5.398 19.901 2.823 25.299-5.751l9.683-15.382c5.397-8.573 2.822-19.9-5.752-25.298z" fill="#faf1a9"/><path d="m328.259 243.073-14.873-9.361c.854 5.164 1.309 10.435 1.313 15.754l.05 41.861c3.829-1.31 7.255-3.881 9.579-7.573l9.683-15.382c5.397-8.574 2.822-19.901-5.752-25.299z" fill="#dfb5a7"/><path d="m340.671 255.177c-.016-18.739-6.94-35.205-16.573-49.965l-13.476-17.733h-18.217l7.097 10.592c7.025 10.485 11.747 22.717 13.885 35.641l14.873 9.361c8.574 5.398 11.149 16.724 5.752 25.298l-9.683 15.382c-2.324 3.692-5.75 6.263-9.579 7.573l-.05 28.213.188 88.384c.017 19.607-13.592 35.513-30.387 35.513h-126.77c-.2 0-.397-.013-.596-.017.223 20.999 3.06 32.167 29.752 32.167h124.197c29.771 0 29.771-14.23 29.771-35.719z" fill="#d57b84"/><path d="m309.393 218.021h22.051c-2.179-4.41-4.651-8.679-7.346-12.809l-13.476-17.733h-18.217l7.097 10.592c4.102 6.123 7.411 12.846 9.891 19.95z" fill="#d994b3"/><path d="m303.031 73.859h-108.091c-13.82 0-25.023-11.203-25.023-25.023v-13.755c0-13.82 11.203-25.023 25.023-25.023h108.091c13.82 0 25.023 11.203 25.023 25.023v13.754c.001 13.82-11.203 25.024-25.023 25.024z" fill="#a07575"/><path d="m75.616 49.785 8.52 23.957c.365 1.026 1.087 1.838 1.998 2.249l21.285 9.59c3.007 1.355 3.007 6.146 0 7.501l-21.285 9.59c-.911.41-1.633 1.223-1.998 2.249l-8.52 23.957c-1.204 3.385-5.461 3.385-6.664 0l-8.52-23.957c-.365-1.026-1.087-1.839-1.998-2.249l-21.285-9.59c-3.007-1.355-3.007-6.146 0-7.501l21.285-9.59c.911-.411 1.633-1.224 1.998-2.249l8.52-23.957c1.204-3.384 5.461-3.384 6.664 0z" fill="#efc5b4"/><ellipse cx="413.939" cy="129.89" fill="#e8a284" rx="18.604" ry="18.604" transform="matrix(.23 -.973 .973 .23 192.42 502.914)"/><path d="m46.977 213.294c0 4.432-3.593 8.025-8.025 8.025s-8.025-3.593-8.025-8.025 3.593-8.025 8.025-8.025 8.025 3.592 8.025 8.025z" fill="#e8a284"/><path d="m455.809 184.152 6.32 17.771c.271.761.806 1.364 1.482 1.668l15.789 7.114c2.23 1.005 2.23 4.559 0 5.564l-15.789 7.113c-.676.305-1.212.908-1.482 1.668l-6.32 17.771c-.893 2.51-4.051 2.51-4.944 0l-6.32-17.771c-.271-.761-.806-1.364-1.482-1.668l-15.789-7.113c-2.231-1.005-2.231-4.559 0-5.564l15.789-7.114c.676-.305 1.212-.908 1.482-1.668l6.32-17.771c.893-2.511 4.051-2.511 4.944 0z" fill="#efc5b4"/></g><g><g fill="#3c122c"><path d="m329.15 201.914c-.079-.121-.161-.239-.248-.353l-13.476-17.733c-1.141-1.502-2.919-2.384-4.805-2.384h-122.776c-1.891 0-3.674.887-4.814 2.396l-14.113 18.678c-.083.111-.163.224-.239.34-12.027 18.429-17.397 34.562-17.412 52.312l-.185 184.697c0 24.448 2.568 41.753 35.805 41.753h124.197c35.805 0 35.805-20.281 35.805-41.758l-.185-184.691c-.014-17.76-5.756-35.18-17.554-53.257zm-150.477 7.714 12.175-16.115h116.78l11.532 15.176c.571.878 1.119 1.752 1.658 2.625h-143.213c.354-.562.699-1.12 1.068-1.686zm-7.785 13.754h156.422c2.367 5.188 4.148 10.319 5.364 15.425-.397-.284-.785-.578-1.201-.841l-16.21-10.204c-11.378-7.16-26.459-3.734-33.621 7.644l-4.939 7.847c-4.071-3.044-9.116-4.848-14.565-4.848-.101 0-.201 0-.302.001l-19.153.234c-6.436.079-12.459 2.634-16.99 7.193l-.44-1.112c-4.941-12.501-19.133-18.651-31.633-13.712l-17.814 7.041c-5.328 2.106-9.496 5.894-12.15 10.512.801-8.402 3.145-16.597 7.232-25.18zm158.016 41.775-9.682 15.382c-1.752 2.782-4.483 4.716-7.69 5.446-3.202.727-6.504.166-9.288-1.587l-15.585-9.81-.147-12.101c-.039-3.239-.717-6.322-1.903-9.138l7.247-11.514c2.337-3.712 6.345-5.748 10.439-5.748 2.241 0 4.508.61 6.54 1.89l16.21 10.204c2.783 1.751 4.717 4.482 5.447 7.689.728 3.206.164 6.504-1.588 9.287zm-96.97-3.532-.791-2.001c.553-1.939 1.579-3.721 3.026-5.204 2.297-2.353 5.373-3.672 8.661-3.711l19.153-.234c.051-.001.102-.001.152-.001 6.72 0 12.226 5.423 12.308 12.161l.221 18.174c.04 3.288-1.202 6.395-3.498 8.749-2.297 2.353-5.373 3.672-8.661 3.711l-19.153.233c-.051.001-.102.001-.152.001-6.584 0-11.99-5.21-12.283-11.758 3.105-6.037 3.702-13.327 1.017-20.12zm-11.377 13.856c-1.308 3.018-3.712 5.345-6.771 6.554l-17.814 7.04c-6.318 2.497-13.48-.611-15.975-6.923l-6.68-16.903c-1.209-3.058-1.154-6.404.153-9.421 1.308-3.018 3.712-5.345 6.771-6.554l17.815-7.041c6.313-2.496 13.48.612 15.974 6.924l6.68 16.903c1.209 3.058 1.154 6.404-.153 9.421zm90.527 194.072h-124.197c-22.656 0-23.737-7.134-23.737-29.678l.167-167.094 5.457 13.807c3.783 9.571 12.985 15.418 22.702 15.418 2.976 0 6.002-.549 8.932-1.707l17.814-7.04c1.066-.421 2.082-.914 3.052-1.463 3.958 8.152 12.304 13.775 21.923 13.775.1 0 .201 0 .303-.001l19.153-.233c6.511-.079 12.603-2.691 17.151-7.351 2.734-2.802 4.708-6.146 5.835-9.78l10.177 6.405c3.938 2.48 8.398 3.758 12.94 3.758 1.814-.001 3.641-.204 5.452-.616 6.35-1.444 11.758-5.274 15.228-10.785l5.225-8.301.161 161.201c-.001 21.602-.001 29.685-23.738 29.685z"/><path d="m380.44 251.303c-.024-23.386-7.753-46.42-21.765-64.857l-30.302-39.875c-3.49-4.59-5.41-10.342-5.41-16.193v-52.767c9.146-6.368 15.148-16.952 15.148-28.917v-13.471c0-19.422-15.801-35.223-35.222-35.223h-107.806c-19.421 0-35.223 15.801-35.223 35.223v13.471c0 11.965 6.002 22.549 15.148 28.917v52.768c0 5.851-1.921 11.603-5.41 16.193l-30.302 39.875c-14.012 18.437-21.741 41.471-21.765 64.855l-.244 210.015c-.014 13.757 5.271 26.63 14.881 36.25 9.299 9.307 21.584 14.433 34.594 14.433h164.446c13.28 0 25.747-5.31 35.105-14.952 9.28-9.563 14.384-22.252 14.371-35.733zm-200.466-216.08c0-8.331 6.777-15.109 15.109-15.109h107.806c8.331 0 15.109 6.778 15.109 15.109v13.471c0 8.331-6.778 15.109-15.109 15.109h-107.806c-8.331 0-15.109-6.778-15.109-15.109zm171.906 447.817c-5.536 5.704-12.878 8.846-20.671 8.846h-164.446c-7.634 0-14.865-3.031-20.364-8.535-5.81-5.817-9.006-13.635-8.997-22.013l.244-210.015c.02-19.024 6.293-37.742 17.665-52.706l30.302-39.875c6.132-8.069 9.51-18.142 9.51-28.364v-46.462h107.727v46.463c0 10.222 3.378 20.294 9.51 28.364l30.302 39.875c11.372 14.964 17.646 33.683 17.665 52.708l.245 210.012c.007 8.211-3.08 15.919-8.692 21.702z"/><path d="m290.975 389.469c-3.332 0-6.034-2.702-6.034-6.034v-14.204c0-3.332 2.702-6.034 6.034-6.034s6.034 2.702 6.034 6.034v14.204c0 3.333-2.702 6.034-6.034 6.034z"/><path d="m258.002 428.804c-3.332 0-6.034-2.702-6.034-6.034v-14.205c0-3.332 2.702-6.034 6.034-6.034s6.034 2.702 6.034 6.034v14.205c0 3.332-2.702 6.034-6.034 6.034z"/><path d="m303.213 437.912c-3.332 0-6.034-2.702-6.034-6.034v-14.205c0-3.332 2.702-6.034 6.034-6.034s6.034 2.702 6.034 6.034v14.205c0 3.332-2.702 6.034-6.034 6.034z"/></g><path d="m255.138 46.4h-26.29c-5.554 0-10.057-4.503-10.057-10.057s4.503-10.057 10.057-10.057h26.29c5.554 0 10.057 4.503 10.057 10.057s-4.503 10.057-10.057 10.057z" fill="#fff"/><path d="m201.783 46.4h-5.149c-5.554 0-10.057-4.503-10.057-10.057s4.503-10.057 10.057-10.057h5.149c5.554 0 10.057 4.503 10.057 10.057s-4.503 10.057-10.057 10.057z" fill="#fff"/></g></g></svg>