<svg id="Capa_1" enable-background="new 0 0 512 512" height="512" viewBox="0 0 512 512" width="512" xmlns="http://www.w3.org/2000/svg"><g><g><path d="m391.359 87.432-55.853 94.565v295.578l-25.547 19.146h109.91c13.974 0 25.303-11.328 25.303-25.303v-289.421z" fill="#a6aaed"/><path d="m391.321 87.496.038-.064h-.038v-32.926c0-13.486-10.933-24.419-24.419-24.419h-203.508c-13.487 0-24.42 10.933-24.42 24.419v32.925h-2.36l-63.596 94.565v289.421c0 13.975 11.329 25.303 25.303 25.303h211.637c13.974 0 25.303-11.329 25.303-25.303v-289.42z" fill="#fff"/><path d="m72.463 460.257s28.195-48.105 75.592-48.105 74.365 24.516 107.87 24.516 75.73-55.392 75.73-55.392v-116.826s-42.225 52.465-75.73 52.465c-19.129 0-36.399-10.386-56.513-19.301v17.972c0 7.258-5.884 13.142-13.142 13.142s-13.142-5.884-13.142-13.142v-27.313c-7.064-1.751-14.566-2.924-22.645-3.176v46.663c0 7.258-5.884 13.142-13.142 13.142s-13.142-5.884-13.142-13.142v-43.019c-33.113 10.819-51.736 41.672-51.736 41.672" fill="#96b4eb"/><path d="m396.979 55.369c0-13.963-11.319-25.282-25.283-25.282h-66.278c13.963 0 25.282 11.319 25.282 25.282v42.754l-45.884 83.266v235.837c0 12.003-9.149 21.732-20.436 21.732h-170.925c-11.287 0-20.436-9.73-20.436-21.732v54.191c0 13.975 11.329 25.303 25.303 25.303h211.636c13.975 0 25.303-11.329 25.303-25.303v-289.42l41.288-69.601z" fill="#e1bdfc"/><path d="m284.816 306.988v110.238c0 3.846-.948 7.451-2.596 10.585 25.881-15.643 49.433-46.536 49.433-46.536v-116.825c.001 0-21.998 27.33-46.837 42.538z" fill="#8286ea"/><path d="m241.195 137.264c0 16.143-22.469 29.229-50.186 29.229s-50.186-13.086-50.186-29.229l.005-28.577 100.418.227z" fill="#a6aaed"/><ellipse cx="191.009" cy="108.586" fill="#c1e5ef" rx="50.186" ry="29.229"/><path d="m477.708 20.408 8.578 24.121c.367 1.033 1.094 1.851 2.012 2.264l21.431 9.655c3.028 1.364 3.028 6.188 0 7.552l-21.431 9.655c-.918.413-1.645 1.232-2.012 2.264l-8.578 24.121c-1.212 3.408-5.498 3.408-6.71 0l-8.578-24.121c-.367-1.033-1.094-1.851-2.012-2.264l-21.431-9.655c-3.028-1.364-3.028-6.188 0-7.552l21.431-9.655c.918-.413 1.645-1.232 2.012-2.264l8.578-24.121c1.213-3.407 5.499-3.407 6.71 0z" fill="#c1e5ef"/><ellipse cx="72.437" cy="23.924" fill="#96b4eb" rx="18.731" ry="18.731" transform="matrix(.707 -.707 .707 .707 4.3 58.228)"/><path d="m507.94 152.829c0 4.463-3.618 8.08-8.08 8.08-4.463 0-8.08-3.618-8.08-8.08s3.618-8.08 8.08-8.08c4.463 0 8.08 3.617 8.08 8.08z" fill="#96b4eb"/><path d="m30.414 84.583 6.363 17.893c.272.766.812 1.373 1.492 1.68l15.897 7.162c2.246 1.012 2.246 4.59 0 5.602l-15.897 7.162c-.681.307-1.22.914-1.492 1.68l-6.363 17.893c-.899 2.528-4.078 2.528-4.977 0l-6.363-17.893c-.272-.766-.812-1.373-1.492-1.68l-15.897-7.162c-2.246-1.012-2.246-4.59 0-5.602l15.897-7.162c.681-.307 1.22-.914 1.492-1.68l6.363-17.893c.899-2.528 4.078-2.528 4.977 0z" fill="#c1e5ef"/></g><g fill="#3c122c"><path d="m269.405 391.371c-3.342 0-6.052-2.71-6.052-6.052v-12.865c0-3.342 2.71-6.052 6.052-6.052s6.052 2.71 6.052 6.052v12.865c0 3.343-2.71 6.052-6.052 6.052z"/><path d="m293.124 363.928c-3.342 0-6.052-2.71-6.052-6.052v-12.866c0-3.342 2.71-6.052 6.052-6.052s6.052 2.71 6.052 6.052v12.866c0 3.342-2.71 6.052-6.052 6.052z"/><path d="m453.937 177.008-52.529-92.312v-30.19c0-19.027-15.48-34.506-34.506-34.506h-203.508c-19.027 0-34.505 15.479-34.505 34.506v26.457c-.225.269-.445.544-.643.839l-63.596 94.565c-1.119 1.664-1.717 3.624-1.717 5.629v289.421c0 19.514 15.876 35.39 35.39 35.39h109.91 101.726 109.91c19.513 0 35.389-15.876 35.389-35.39v-289.42c-.001-1.749-.456-3.468-1.321-4.989zm-62.759-69.5 39.797 69.937h-81.285zm-227.784-67.334h203.508c7.903 0 14.333 6.43 14.333 14.333v22.839h-163.707c-7.859-2.582-16.866-4.04-26.519-4.04s-18.659 1.458-26.519 4.04h-15.428v-22.84c-.001-7.903 6.429-14.332 14.332-14.332zm71.749 68.412c0 11.193-17.734 23.177-44.134 23.177s-44.134-11.984-44.134-23.177 17.734-23.177 44.134-23.177c26.399 0 44.134 11.984 44.134 23.177zm-88.267 22.098c10.22 8.08 26.047 13.183 44.133 13.183 18.093 0 33.926-5.108 44.146-13.193l-.012 6.579v.011c0 11.193-17.734 23.177-44.134 23.177s-44.134-11.984-44.134-23.176zm-12.091-22.456c-.002.12-.014.238-.014.358 0 .042.005.084.005.126l-.005 28.552c0 19.784 24.702 35.281 56.238 35.281 31.535 0 56.238-15.497 56.238-35.281l.051-28.34c.001-.307-.029-.606-.073-.901-.088-3.679-1.029-7.205-2.712-10.505h129.134l-47.061 79.332c-.114.192-.2.396-.3.594h-238.051zm-51.68 217.776c6.463-8.077 18.471-20.756 35.041-28.391v34.147c0 10.584 8.61 19.194 19.194 19.194 10.583 0 19.193-8.611 19.193-19.194v-40.222c3.504.332 7.001.854 10.542 1.573v22.475c0 10.584 8.61 19.194 19.193 19.194 10.584 0 19.194-8.61 19.194-19.194v-8.541c1.049.492 2.089.982 3.121 1.468 15.777 7.432 30.68 14.453 47.34 14.453 25.288 0 53.867-25.913 69.251-42.099v98.875c-12.677 15.979-45.346 50.874-69.251 50.874-14.228 0-27.238-4.773-42.303-10.301-18.16-6.663-38.742-14.215-65.566-14.215-29.176 0-51.287 16.497-64.949 30.757zm242.07-63.212c-12.762 15.187-45.366 48.071-69.251 48.071-13.953 0-27.034-6.163-42.182-13.299-3.833-1.806-7.797-3.673-11.879-5.482-1.871-.829-4.035-.656-5.753.46-1.716 1.116-2.751 3.025-2.751 5.073v17.972c0 3.909-3.181 7.09-7.09 7.09-3.908 0-7.089-3.181-7.089-7.09v-27.313c0-2.782-1.896-5.205-4.596-5.874-8.094-2.006-15.916-3.102-23.913-3.351-1.659-.056-3.225.564-4.4 1.704-1.176 1.14-1.84 2.708-1.84 4.346v46.662c0 3.91-3.181 7.09-7.089 7.09-3.91 0-7.09-3.181-7.09-7.09v-43.019c0-1.939-.929-3.761-2.499-4.899-1.57-1.139-3.59-1.456-5.432-.853-16.775 5.481-29.954 15.635-39.214 24.847v-118.288h242.07v73.243zm-116.943 223.843h-109.91c-8.39 0-15.217-6.826-15.217-15.217v-15.891c9.889-12.909 32.839-37.323 64.949-37.323 24.674 0 43.342 6.85 61.397 13.474 15.477 5.678 30.094 11.042 46.473 11.042 25.304 0 53.838-27.246 69.251-44.342v73.04c0 8.391-6.826 15.217-15.217 15.217zm211.636 0h-77.964c2.206-4.612 3.444-9.772 3.444-15.217v-281.869h89.736v281.869c0 8.39-6.825 15.217-15.216 15.217z"/><path d="m134.421 262.794c-3.053 0-5.752-1.939-6.724-4.836-.024-.07-.046-.141-.067-.213l-7.182-24.344-4.342 24.056c-.594 3.289-3.739 5.472-7.03 4.881-3.29-.594-5.475-3.742-4.881-7.031l8.099-44.874c.623-3.234 3.293-5.592 6.506-5.806 3.234-.218 6.171 1.768 7.196 4.818.024.071.046.143.068.215l8.275 28.049 7.978-27.989c.021-.071.042-.142.065-.213.996-3.06 3.925-5.078 7.147-4.888 3.213.182 5.905 2.511 6.548 5.664l8.593 44.962c.628 3.283-1.526 6.453-4.809 7.081-3.271.623-6.452-1.525-7.08-4.808l-4.617-24.159-6.933 24.322c-.021.071-.042.141-.065.212-.949 2.917-3.645 4.886-6.713 4.9-.009.001-.021.001-.032.001z"/><path d="m226.48 262.797c-5.111 0-5.428-.054-5.863-.129-2.906-.497-5.031-3.017-5.031-5.965v-46.043c0-3.342 2.71-6.052 6.052-6.052s6.052 2.71 6.052 6.052v40.028c3.131-.005 6.981-.02 10.05-.037h.035c3.326 0 6.032 2.687 6.051 6.018.019 3.343-2.676 6.067-6.018 6.086-5.265.029-8.856.042-11.328.042z"/><path d="m299.857 252.387-20.324-19.608 18.582-17.081c2.461-2.262 2.622-6.09.36-8.551-2.261-2.46-6.09-2.623-8.551-.36l-14.641 13.458v-9.584c0-3.342-2.71-6.052-6.052-6.052s-6.052 2.71-6.052 6.052v46.081c0 3.342 2.71 6.052 6.052 6.052s6.052-2.71 6.052-6.052v-11.246l16.17 15.601c1.174 1.133 2.689 1.697 4.201 1.697 1.586 0 3.169-.619 4.357-1.85 2.32-2.405 2.251-6.236-.154-8.557z"/><path d="m190.182 262.794c-3.342 0-6.052-2.71-6.052-6.052v-46.081c0-3.342 2.71-6.052 6.052-6.052s6.052 2.71 6.052 6.052v46.081c0 3.342-2.71 6.052-6.052 6.052z"/></g></g></svg>