<svg id="Capa_1" enable-background="new 0 0 512 512" height="512" viewBox="0 0 512 512" width="512" xmlns="http://www.w3.org/2000/svg"><g><g><path d="m345.405 501.922h-185.5c-8.261 0-15.012-6.593-15.208-14.852l-8.096-341.665c-.202-8.54 6.665-15.572 15.208-15.572h203.312c8.571 0 15.45 7.077 15.206 15.644l-9.716 341.665c-.234 8.23-6.973 14.78-15.206 14.78z" fill="#fff"/><path d="m317.921 169.026-6.914 271.807c-.182 7.163-5.429 12.864-11.839 12.864h-144.424c-5.027 0-9.323-3.512-11.038-8.475l.992 41.847c.196 8.259 6.947 14.852 15.208 14.852h185.5c8.233 0 14.972-6.55 15.206-14.779l9.046-318.116z" fill="#e1bdfc"/><path d="m359.567 370.071h-212.204c-10.695 0-19.364-8.669-19.364-19.364v-95.295c0-10.694 8.669-19.364 19.364-19.364h212.204c10.694 0 19.364 8.669 19.364 19.364v95.295c0 10.695-8.669 19.364-19.364 19.364z" fill="#c49a8b"/><path d="m363.334 66.313h-115.299v-4.234c0-11.315-9.172-20.487-20.488-20.487h-58.182c-11.315 0-20.488 9.172-20.488 20.487v4.234h-5.447c-21.315 0-35.905 106.274-14.59 106.274h249.295c23.629 0 8.827-106.274-14.801-106.274z" fill="#ccf3e2"/><path d="m358.02 236.049h-51.336c11.549 0 20.911 9.474 20.911 21.161v64.281c0 11.687-9.362 21.162-20.911 21.162h-157.774c-11.549 0-20.911-9.475-20.911-21.162v27.419c0 11.687 9.362 21.161 20.911 21.161h209.11c11.549 0 20.911-9.474 20.911-21.161v-91.7c0-11.687-9.362-21.161-20.911-21.161z" fill="#b2748a"/><path d="m363.334 66.313h-45.179c19.269-.001 31.341 78.415 12.071 78.415h-203.311c-4.537 0-7.076-5.347-8.047-13.241-1.645 22.003.937 41.1 9.972 41.1h249.295c23.629 0 8.827-106.274-14.801-106.274z" fill="#b1b6e1"/><path d="m43.536 2.477 8.316 23.382c.356 1.001 1.061 1.795 1.95 2.195l20.774 9.359c2.935 1.322 2.935 5.998 0 7.321l-20.774 9.36c-.889.401-1.594 1.194-1.95 2.195l-8.316 23.382c-1.175 3.303-5.33 3.303-6.504 0l-8.315-23.381c-.356-1.001-1.061-1.794-1.95-2.195l-20.774-9.36c-2.935-1.322-2.935-5.999 0-7.321l20.774-9.359c.889-.401 1.594-1.194 1.95-2.195l8.316-23.382c1.174-3.304 5.329-3.304 6.503-.001z" fill="#cdf4e3"/><ellipse cx="457.061" cy="87.4" fill="#a2e9c4" rx="18.158" ry="18.158" transform="matrix(.387 -.922 .922 .387 199.607 475.035)"/><circle cx="42.334" cy="168.394" fill="#a2e9c4" r="7.833"/><path d="m483.551 165.71 6.168 17.344c.264.742.787 1.331 1.447 1.628l15.41 6.943c2.177.981 2.177 4.449 0 5.43l-15.41 6.943c-.66.297-1.183.886-1.447 1.628l-6.168 17.344c-.872 2.45-3.953 2.45-4.825 0l-6.168-17.344c-.264-.743-.787-1.331-1.447-1.628l-15.41-6.943c-2.177-.981-2.177-4.45 0-5.43l15.41-6.943c.66-.297 1.183-.886 1.447-1.628l6.168-17.344c.872-2.451 3.954-2.451 4.825 0z" fill="#cdf4e3"/></g><g><g fill="#3c122c"><path d="m400.173 141.718c-.001-16.978-3.051-36.622-8.16-52.547-7.01-21.855-16.66-32.935-28.679-32.935h-105.788c-2.735-14.067-15.143-24.721-29.998-24.721h-58.182c-15.029 0-27.55 10.906-30.087 25.218-9.715 2.379-17.353 13.382-23.262 33.445-4.744 16.108-7.691 36.474-7.691 53.152 0 9.824.991 17.88 2.946 23.943 3.987 12.367 11.791 14.912 16.132 15.323l1.19 50.236c-6.516 5.433-10.671 13.605-10.671 22.732v94.993c0 10.623 5.629 19.952 14.057 25.173l2.644 111.578c.326 13.846 11.431 24.692 25.281 24.692h185.5c13.784 0 24.888-10.793 25.28-24.572l3.158-111.047c9.04-5.07 15.166-14.743 15.166-25.825v-94.993c0-9.313-4.329-17.63-11.075-23.058l1.419-49.883c8.302-.537 20.821-6.975 20.82-40.904zm-31.32 208.838c0 5.203-4.233 9.437-9.437 9.437h-211.902c-5.203 0-9.437-4.234-9.437-9.437v-94.993c0-5.203 4.233-9.436 9.437-9.436h211.902c5.204 0 9.437 4.233 9.437 9.436zm-220.262-124.585-1.026-43.305h211.622l-1.231 43.305zm10.365-163.891c0-5.74 4.67-10.41 10.41-10.41h58.182c5.74 0 10.41 4.67 10.41 10.41v6.717c0 5.74-4.67 10.41-10.41 10.41h-58.182c-5.74 0-10.41-4.67-10.41-10.41zm-27.905 52.75c2.925-17.282 7.073-28.285 10.211-34.022 4.676 10.9 15.511 18.555 28.103 18.555h58.182c14.233 0 26.224-9.779 29.61-22.971h105.749c2.757 1.588 9.775 12.464 14.266 36.462 4.918 26.275 2.573 45.117-.308 49.656h-245.928c-2.249-4.964-4.214-22.108.115-47.68zm214.354 377.014h-185.5c-2.811 0-5.066-2.202-5.132-5.013l-2.528-106.681h201.327l-3.034 106.706c-.08 2.797-2.334 4.988-5.133 4.988z"/><path d="m275.055 336.498c-3.339 0-6.047-2.708-6.047-6.047v-14.219c0-3.339 2.707-6.047 6.047-6.047 3.339 0 6.047 2.708 6.047 6.047v14.219c0 3.339-2.708 6.047-6.047 6.047z"/><path d="m315.813 336.498c-3.339 0-6.047-2.708-6.047-6.047v-14.219c0-3.339 2.707-6.047 6.047-6.047 3.339 0 6.047 2.708 6.047 6.047v14.219c0 3.339-2.707 6.047-6.047 6.047z"/></g><path d="m161.711 328.992c-5.566 0-10.078-4.513-10.078-10.078v-16.709c0-5.565 4.512-10.078 10.078-10.078s10.078 4.512 10.078 10.078v16.709c0 5.566-4.512 10.078-10.078 10.078z" fill="#fff"/><path d="m161.711 281.645c-5.566 0-10.078-4.512-10.078-10.078v-5.326c0-5.565 4.512-10.078 10.078-10.078s10.078 4.512 10.078 10.078v5.326c0 5.565-4.512 10.078-10.078 10.078z" fill="#fff"/></g></g></svg>