<svg id="Capa_1" enable-background="new 0 0 512 512" height="512" viewBox="0 0 512 512" width="512" xmlns="http://www.w3.org/2000/svg"><g><g><path d="m373.956 121.745c8.909-62.188-5.693-110.278-5.693-111.707 0 1.178-272.28 0-272.28 0 0 1.429-14.602 49.519-5.693 111.707 14.97 104.496 80.893 151.503 120.491 165.26v135.453c0 12.884-6.438 24.915-17.156 32.064l-61.156 40.789c-2.951 1.968-1.566 6.568 1.981 6.571 38.102.032 157.444.124 195.43.053 3.545-.007 4.926-4.604 1.977-6.571l-61.235-40.841c-10.718-7.149-17.156-19.18-17.156-32.064v-135.454c39.597-13.757 105.52-60.764 120.49-165.26z" fill="#c1e5ef"/><path d="m122.462 108.202c.308 6.544.916 13.41 1.935 20.525 13.85 96.676 85.117 128.568 107.726 128.942 22.609-.374 93.876-32.266 107.726-128.942 1.019-7.115 1.627-13.981 1.935-20.525z" fill="#d789b9"/><path d="m297.391 108.202c-.245 5.22-.731 10.695-1.543 16.37-11.047 77.108-67.888 102.545-85.921 102.843-18.033-.298-74.874-25.735-85.921-102.843-.812-5.675-1.298-11.15-1.543-16.37.308 6.544.916 13.41 1.935 20.525 13.85 96.676 85.117 128.568 107.726 128.942 22.609-.374 93.876-32.266 107.726-128.942 1.019-7.115 1.627-13.981 1.935-20.525z" fill="#c668b9"/><path d="m67.073 249.754 8.495 23.886c.364 1.023 1.084 1.833 1.993 2.242l21.222 9.561c2.998 1.351 2.998 6.128 0 7.479l-21.222 9.561c-.909.409-1.629 1.22-1.993 2.242l-8.495 23.886c-1.2 3.375-5.444 3.375-6.644 0l-8.495-23.886c-.364-1.023-1.084-1.833-1.993-2.242l-21.222-9.561c-2.998-1.351-2.998-6.128 0-7.479l21.222-9.561c.909-.409 1.629-1.22 1.993-2.242l8.495-23.886c1.2-3.374 5.444-3.374 6.644 0z" fill="#e8c2d8"/><circle cx="429.838" cy="191.679" fill="#d789b9" r="18.549"/><path d="m35.941 188.828c0 4.419-3.582 8.002-8.001 8.002s-8.002-3.583-8.002-8.002 3.582-8.002 8.002-8.002c4.419 0 8.001 3.583 8.001 8.002z" fill="#d789b9"/><path d="m466.873 27.771 6.301 17.718c.27.759.804 1.36 1.478 1.663l15.742 7.092c2.224 1.002 2.224 4.545 0 5.547l-15.742 7.092c-.674.304-1.208.905-1.478 1.664l-6.301 17.718c-.89 2.503-4.039 2.503-4.929 0l-6.301-17.718c-.27-.759-.804-1.36-1.478-1.664l-15.742-7.092c-2.224-1.002-2.224-4.545 0-5.547l15.742-7.092c.674-.304 1.208-.905 1.478-1.663l6.301-17.718c.89-2.504 4.039-2.504 4.929 0z" fill="#e8c2d8"/></g><g><g><path d="m284.721 512c-51.736 0-123.792-.057-150.281-.079-6.042-.005-11.277-3.894-13.025-9.677-1.751-5.786.453-11.928 5.482-15.284l61.158-40.789c7.945-5.299 12.687-14.164 12.687-23.713l-.388-128.289c-23.855-9.764-47.88-27.343-66.822-49.055-28.35-32.492-46.242-73.521-53.179-121.946-5.381-37.569-3.507-76.807 5.419-113.471.128-.528.229-.936.295-1.221.328-2.091 1.314-4.039 2.833-5.552 1.892-1.882 4.473-2.888 7.126-2.924 102.819.445 271.658 0 272.237 0 5.019 0 9.179 3.684 9.921 8.496.065.283.165.685.29 1.202 8.928 36.664 10.801 75.901 5.419 113.471-6.935 48.404-24.902 89.402-53.405 121.858-24.698 28.123-50.567 42.207-66.985 48.91v128.522c0 9.549 4.743 18.414 12.688 23.713l61.234 40.841c5.027 3.352 7.232 9.491 5.486 15.276-1.745 5.781-6.974 9.673-13.013 9.684-10.268.019-26.387.027-45.177.027zm41.566-8.284h.01zm-170.554-11.855c40.751.032 111.348.081 152.865.057l-43.547-29.044c-13.541-9.031-21.625-24.14-21.625-40.415v-135.454c0-4.274 2.707-8.08 6.744-9.483 10.843-3.767 38.906-15.766 65.233-45.745 25.887-29.477 42.244-66.976 48.615-111.457h.001c4.734-33.046 3.454-67.468-3.681-99.953-1.209.018-236.421-.177-256.374-.258-7.185 32.56-8.484 67.078-3.737 100.211 6.378 44.525 22.674 82.071 48.432 111.594 26.271 30.11 54.212 42.083 65.007 45.833 4.026 1.399 6.731 5.189 6.744 9.452l.409 135.227c0 16.306-8.084 31.414-21.624 40.446zm222.568-481.836v.014c0-.005 0-.01 0-.014zm-20.077.013h.01zm-272.279-.013v.013c0-.004 0-.008 0-.013zm0-.012v.006c0-.002 0-.004 0-.006zm292.356.001v.005c0-.002 0-.004 0-.005z" fill="#3c122c"/><path d="m232.123 263.692c-.033 0-.067 0-.1-.001-13.639-.225-38.568-9.678-61.074-29.9-19.679-17.683-44.765-50.117-52.514-104.21-.985-6.883-1.655-13.981-1.989-21.096-.077-1.645.521-3.249 1.659-4.44 1.136-1.192 2.711-1.866 4.357-1.866h219.322c1.647 0 3.221.674 4.358 1.866 1.137 1.191 1.736 2.796 1.659 4.44-.334 7.116-1.004 14.213-1.989 21.095-7.749 54.094-32.836 86.528-52.515 104.211-22.505 20.221-47.434 29.674-61.074 29.9-.033 0-.066.001-.1.001zm-103.255-149.467c.353 4.607.852 9.177 1.492 13.648 7.237 50.515 30.446 80.608 48.641 96.958 21.499 19.318 43.496 26.606 53.122 26.814 9.627-.207 31.623-7.496 53.122-26.814 18.196-16.35 41.405-46.443 48.641-96.959.64-4.471 1.139-9.04 1.492-13.647z" fill="#3c122c"/><g fill="#fff"><path d="m203.928 220.982c-2.119 0-4.255-.668-6.072-2.051-13.561-10.321-24.545-22.782-32.648-37.034-2.74-4.82-1.054-10.948 3.765-13.688 4.819-2.739 10.947-1.055 13.688 3.765 6.757 11.885 15.96 22.309 27.355 30.981 4.411 3.358 5.266 9.656 1.908 14.068-1.975 2.594-4.968 3.959-7.996 3.959z"/><path d="m163.337 160.751c-4.491 0-8.581-3.037-9.727-7.591-.901-3.578-2.137-8.995-2.471-14.706-.325-5.534 3.899-10.284 9.433-10.609 5.569-.331 10.285 3.9 10.609 9.433.179 3.057.783 6.547 1.899 10.981 1.354 5.376-1.908 10.832-7.285 12.185-.822.208-1.647.307-2.458.307z"/><path d="m193.149 57.357c-.012 0-.023 0-.035 0-7.484-.026-14.895-.081-22.03-.165-5.544-.066-9.984-4.613-9.919-10.156.065-5.503 4.547-9.92 10.035-9.92h.122c7.078.084 14.433.139 21.861.164 5.544.019 10.023 4.528 10.004 10.073-.019 5.532-4.511 10.004-10.038 10.004z"/><path d="m141.177 57.192h-13.127c-5.544 0-10.038-4.494-10.038-10.038s4.495-10.038 10.038-10.038h13.127c5.544 0 10.038 4.494 10.038 10.038s-4.495 10.038-10.038 10.038z"/></g><path d="m260.901 214.949c-3.326 0-6.023-2.697-6.023-6.023v-11.395c0-3.326 2.697-6.023 6.023-6.023s6.023 2.697 6.023 6.023v11.395c0 3.326-2.697 6.023-6.023 6.023z" fill="#3c122c"/><path d="m285.298 191.907c-3.326 0-6.023-2.697-6.023-6.023v-11.396c0-3.326 2.697-6.023 6.023-6.023s6.023 2.697 6.023 6.023v11.396c0 3.326-2.697 6.023-6.023 6.023z" fill="#3c122c"/></g></g></g></svg>