<svg id="Capa_1" enable-background="new 0 0 512 512" height="512" viewBox="0 0 512 512" width="512" xmlns="http://www.w3.org/2000/svg"><g><g><path d="m421.487 105.724-15.835-15.834c-6.948-6.949-6.948-18.214 0-25.163l49.511-49.511c6.948-6.949 18.214-6.949 25.163 0l15.834 15.834c6.948 6.949 6.948 18.214 0 25.163l-49.511 49.511c-6.948 6.949-18.214 6.949-25.162 0z" fill="#c49a8b"/><path d="m475.554 94.52-56.879-56.879c-3.059-3.059-8.019-3.059-11.078 0l-21.758 21.757c-2.477 2.478-2.947 6.201-1.412 9.152l-43.548 43.548c-9.824 9.824-23.441 14.671-37.305 13.777-36.472-2.352-78.242 12.669-101.293 35.719l-11.032 11.032-170.438 182.089c-13.676 14.537-13.328 37.31.785 51.424l84.896 84.896c14.085 14.085 36.803 14.464 51.349.855l182.727-169.944 11.032-11.032c23.05-23.05 38.071-64.82 35.719-101.292-.894-13.864 3.953-27.481 13.777-37.305l43.548-43.548c2.952 1.535 6.675 1.065 9.152-1.412l21.758-21.757c3.06-3.061 3.06-8.021 0-11.08z" fill="#a1e8c3"/><path d="m88.699 241.434h159.092v203.652h-159.092z" fill="#faf1a9" transform="matrix(.707 -.707 .707 .707 -193.443 219.506)"/><path d="m185.576 466.096 108.99-101.366-33.042-33.042-101.235 94.702c-2.615 2.46-5.512 4.413-8.554 5.865z" fill="#dfb5a7"/><path d="m140.521 435.282c-8.071.627-16.093-1.967-21.969-7.843l-66.17-66.17c-10.103-10.103-10.506-26.538-1.505-38.674l-30.065 32.12c-13.676 14.537-13.328 37.311.785 51.424l84.896 84.896c14.085 14.086 36.803 14.464 51.349.855l20.356-18.932z" fill="#85adc2"/><path d="m444.229 129.184c-8.617-6.768-17.158-13.627-25.516-20.703l-49.718 49.718c-8.324 8.324-12.729 19.564-12.472 30.811.675 29.585-12.961 64.07-32.492 83.601l-9.348 9.348-45.802 42.847 33.063 33.062 38.624-35.922 11.032-11.032c23.05-23.05 38.071-64.82 35.719-101.292-.894-13.864 3.953-27.482 13.777-37.305z" fill="#85adc2"/><path d="m137.055 30.306 8.272 23.259c.354.996 1.055 1.785 1.94 2.184l20.665 9.31c2.919 1.315 2.919 5.967 0 7.282l-20.665 9.31c-.885.399-1.586 1.188-1.94 2.184l-8.272 23.259c-1.169 3.286-5.301 3.286-6.47 0l-8.272-23.259c-.354-.996-1.055-1.785-1.94-2.184l-20.665-9.31c-2.919-1.315-2.919-5.967 0-7.282l20.665-9.31c.885-.399 1.586-1.188 1.94-2.184l8.272-23.259c1.169-3.286 5.301-3.286 6.47 0z" fill="#cdf4e3"/><ellipse cx="454.661" cy="225.214" fill="#a2e9c4" rx="18.062" ry="18.062" transform="matrix(.094 -.996 .996 .094 187.921 656.825)"/><circle cx="93.411" cy="184.242" fill="#a2e9c4" r="7.791"/><path d="m439.361 307.339 6.136 17.253c.263.739.783 1.324 1.439 1.62l15.329 6.906c2.165.976 2.165 4.426 0 5.402l-15.329 6.906c-.656.296-1.176.881-1.439 1.62l-6.136 17.253c-.867 2.437-3.932 2.437-4.799 0l-6.136-17.253c-.263-.739-.783-1.324-1.439-1.62l-15.329-6.906c-2.166-.976-2.166-4.426 0-5.402l15.329-6.906c.656-.296 1.176-.881 1.439-1.62l6.136-17.253c.867-2.438 3.932-2.438 4.799 0z" fill="#cdf4e3"/><path d="m192.979 346.997c-5.722-5.722-14.033-7.366-21.522-5.024 3.182-1.115 6.198-2.94 8.769-5.511 8.773-8.772 9.107-22.661.747-31.021s-22.248-8.025-31.021.747c-6.505 6.505-8.358 15.818-5.481 23.609-7.791-2.878-17.104-1.024-23.609 5.48-8.773 8.773-9.107 22.661-.747 31.021s22.248 8.025 31.021-.747c1.944-1.944 3.449-4.148 4.562-6.479-1.56 6.986.252 14.433 5.512 19.693 8.36 8.36 22.248 8.026 31.021-.747s9.108-22.662.748-31.021zm-35.583 7.226c.919-4.115.66-8.386-.779-12.281 4.475 1.653 9.45 1.748 14.11.291-3.182 1.115-6.198 2.94-8.769 5.511-1.944 1.944-3.449 4.148-4.562 6.479z" fill="#d789b9"/></g><g><g><path d="m503.193 23.842-15.659-15.658c-10.913-10.912-28.668-10.912-39.579 0l-22.252 22.252c-6.988-6.891-18.276-6.866-25.227.084l-21.757 21.757c-3.567 3.567-5.299 8.277-5.221 12.961l-39.739 39.74c-7.613 7.613-18.373 11.569-29.536 10.848-38.953-2.505-83.794 13.381-109.061 38.648l-11.032 11.032c-.078.078-.155.158-.231.239l-170.422 182.07c-17.517 18.62-17.078 47.366.999 65.444l84.896 84.896c9.216 9.216 21.22 13.845 33.24 13.845 11.492 0 22.998-4.233 32.087-12.736l182.727-169.944c.089-.083.177-.168.263-.254l11.031-11.032c25.267-25.267 41.16-70.114 38.648-109.061-.719-11.157 3.234-21.923 10.849-29.537l39.731-39.731c.104.002.206.015.31.015 4.783 0 9.279-1.863 12.66-5.244l21.757-21.757c3.382-3.381 5.245-7.878 5.245-12.66s-1.863-9.278-5.244-12.66l-1.729-1.729 22.247-22.247c10.911-10.913 10.911-28.668-.001-39.581zm-348.376 202.443 131.948 131.948-107.256 99.753-124.776-124.776zm-3.855 258.251c-10.642 9.955-27.047 9.68-37.349-.622l-84.896-84.896c-10.332-10.333-10.583-26.762-.554-37.422l18.307-19.559 124.184 124.184zm243.013-319.341c-11.709 11.709-17.798 28.138-16.705 45.074 2.132 33.059-11.659 72.392-32.791 93.524l-10.903 10.904-37.987 35.33c-.092-.106-.163-.223-.264-.324l-132.246-132.245 35.409-37.829 10.913-10.914c21.133-21.132 60.47-34.925 93.525-32.79 16.936 1.09 33.365-4.997 45.073-16.705l36.17-36.17 45.976 45.976zm54.283-46.541-53.718-53.717 18.595-18.595 53.716 53.717zm40.694-69.473-22.247 22.247-26.756-26.756 22.247-22.248c1.53-1.53 3.539-2.295 5.548-2.295 2.01 0 4.019.765 5.549 2.295l15.658 15.658c3.06 3.061 3.06 8.04.001 11.099z" fill="#3c122c"/><path d="m231.535 327.233c-13.901-7.253-28.99-3.624-39.601.984.682-2.35 1.071-4.79 1.13-7.276.182-7.528-2.595-14.55-7.819-19.773-5.223-5.223-12.24-7.991-19.773-7.819-7.418.179-14.446 3.221-19.792 8.566-5.709 5.709-8.571 13.168-8.557 20.524-7.343.001-15.187 3.22-20.532 8.565s-8.388 12.375-8.566 19.792c-.182 7.528 2.595 14.55 7.818 19.773 5.219 5.218 12.112 7.812 19.095 7.812 5.503 0 11.061-1.611 15.898-4.818 1.32 3.525 3.374 6.745 6.101 9.473 14.463 13.827 32.481 6.607 39.565-.747 5.345-5.345 8.388-12.374 8.566-19.792.181-7.528-2.2-15.184-10.559-22.155 8.329-4.012 20.848-7.918 31.434-2.396 2.959 1.545 6.609.397 8.151-2.562 1.547-2.958.399-6.608-2.559-8.151zm-77.31-16.773c7.401-7.306 17.44-5.872 22.477-.746 2.863 2.863 4.384 6.748 4.283 10.938-.103 4.3-1.89 8.398-5.03 11.539-3.103 3.304-8.197 5.084-11.539 5.031-1.165.028-2.303-.083-3.407-.3-1.232-2.408-2.848-4.658-4.851-6.662-1.982-1.982-4.224-3.609-6.653-4.858-1.008-5.121.578-10.8 4.72-14.942zm-29.837 51.566c-6.014-6.092-5.157-17.235.748-22.477 8.6-8.142 18.359-4.912 22.476-.747 6.893 7.242 4.652 18.517-.747 22.476-6.403 6.403-16.486 6.739-22.477.748zm63.571 11.719c-7.014 6.321-16.574 7.112-22.477.748-5.042-4.251-6.361-15.922.747-22.477 8.914-8.28 18.079-4.785 22.476-.747 4.108 3.346 7.339 14.357-.746 22.476z" fill="#3c122c"/><g fill="#fff"><path d="m199.241 226.537c-2.532 0-5.065-.948-7.023-2.854-3.985-3.879-4.071-10.254-.192-14.24 15.535-15.961 29.584-27.458 44.212-36.182 4.775-2.85 10.958-1.287 13.807 3.49s1.286 10.958-3.49 13.807c-13.078 7.8-25.819 18.265-40.097 32.933-1.974 2.028-4.594 3.046-7.217 3.046z"/><path d="m290.504 180.422c-1.156 0-2.331-.201-3.479-.624-4.364-1.608-8.574-1.653-14.072-.153-5.364 1.463-10.901-1.7-12.365-7.065-1.463-5.366 1.7-10.901 7.065-12.365 9.593-2.617 17.96-2.399 26.332.685 5.219 1.922 7.891 7.711 5.969 12.929-1.499 4.071-5.351 6.593-9.45 6.593z"/></g></g></g></g></svg>