<svg id="Capa_1" enable-background="new 0 0 512 512" height="512" viewBox="0 0 512 512" width="512" xmlns="http://www.w3.org/2000/svg"><g><g><path d="m232.474 270.871c-27.246-50.608-43.189-113.912-47.532-172.938 5.757-5.187 9.378-12.698 9.378-21.058v-38.514c0-15.651-12.687-28.338-28.338-28.338h-27.312c-15.651 0-28.338 12.687-28.338 28.338v38.513c0 8.652 3.882 16.394 9.995 21.592-4.033 58.72-20.66 122.808-47.534 173.939-17.465 33.23-25.457 80.325-25.457 110.836v58.858c0 33.069 25.881 59.878 57.807 59.878h95.794c31.926 0 57.807-26.808 57.807-59.878v-58.858c.001-30.981-8.238-78.878-26.27-112.37z" fill="#a1e8c3"/><path d="m45.323 347.528h210.049v96.273h-210.049z" fill="#faf1a9"/><path d="m184.952 97.924c5.752-5.187 9.369-12.695 9.369-21.049v-38.514c0-15.651-12.687-28.338-28.338-28.338h-27.312c-15.651 0-28.338 12.687-28.338 28.338v38.513c0 8.653 3.884 16.396 9.998 21.594-2.678 38.976-10.906 80.312-24 118.657l30.75 16.722s10.935 31.789 26.194 31.789 23.905-30.772 23.905-30.772l32.124-17.406c-13.29-38.352-21.435-79.902-24.352-119.534z" fill="#f6e06e"/><path d="m165.704 41.078v34.986c0 6.105-1.885 11.712-5.033 16.124-1.643 2.303-2.384 5.136-2.171 7.958 3.13 41.394 11.782 84.8 25.838 123.222 7.108-4.034 15.261-8.363 22.681-13.211-11.49-35.763-19.391-75.717-22.077-112.224 5.757-5.186 9.378-12.698 9.378-21.057v-38.514c0-15.651-12.687-28.338-28.338-28.338h-27.311c-6.161 0-11.859 1.973-16.508 5.312h20.721c12.603-.001 22.82 11.525 22.82 25.742z" fill="#dda86a"/><path d="m232.474 270.871c-8.874-16.482-16.54-34.317-23.006-52.906-7.305 4.805-14.53 9.719-21.436 15.07 2.634 6.602 5.429 13.037 8.397 19.255 14.521 30.425 21.157 73.934 21.157 102.077v53.467c0 30.04-20.842 54.393-46.553 54.393h-77.144c-25.71 0-46.553-24.353-46.553-54.393v34.265c0 33.07 25.881 59.878 57.807 59.878h95.794c31.926 0 57.807-26.808 57.807-59.878v-58.857c.001-30.982-8.238-78.879-26.27-112.371z" fill="#85adc2"/><path d="m217.586 407.834c0 13.813-4.415 26.415-11.676 36.009h52.792c.016-.581.043-1.159.043-1.744v-58.857c0-9.84-.835-21.389-2.547-33.637h-38.676c.04 1.628.064 3.222.064 4.763z" fill="#dfb5a7"/><path d="m301.07 501.977h151.926l-61.655-34.389v-116.999c61.324-26.31 51.004-223.097 51.004-223.097h-130.624s-10.32 196.787 51.004 223.097v116.998z" fill="#ccf3e2"/><path d="m377.033 325.407c39.702 0 33.602-162.711 33.602-162.711h-67.204s-6.099 162.711 33.602 162.711z" fill="#faf1a9"/><path d="m372.196 329.695c-1.334 1.906 5.376 8.157 4.545 17.949v113.443c0 4.694 2.188 9.119 5.917 11.969l8.762 5.315-.08-127.781c61.324-26.31 51.004-223.097 51.004-223.097l-48.787.049c.001 0 4.791 164.794-21.361 202.153z" fill="#b1b6e1"/><path d="m410.635 162.696h-16.743c-.177 48.005-2.918 131.629-19.023 162.538.706.11 1.427.173 2.164.173 39.702 0 33.602-162.711 33.602-162.711z" fill="#dfb5a7"/><path d="m465.692 4.338 8.233 23.151c.353.991 1.051 1.777 1.931 2.174l20.569 9.267c2.906 1.309 2.906 5.939 0 7.249l-20.569 9.267c-.881.397-1.578 1.182-1.931 2.173l-8.233 23.151c-1.163 3.271-5.277 3.271-6.44 0l-8.234-23.151c-.353-.991-1.05-1.777-1.931-2.173l-20.569-9.267c-2.906-1.309-2.906-5.939 0-7.249l20.569-9.267c.881-.397 1.579-1.182 1.931-2.174l8.234-23.151c1.163-3.27 5.276-3.27 6.44 0z" fill="#faf1a9"/><ellipse cx="315.656" cy="48.481" fill="#f6e06e" rx="17.978" ry="17.978" transform="matrix(.383 -.924 .924 .383 150.069 321.556)"/><ellipse cx="370.201" cy="84.624" fill="#f6e06e" rx="7.755" ry="7.755" transform="matrix(.973 -.23 .23 .973 -9.54 87.319)"/><path d="m42.587 102.05 6.108 17.173c.262.735.779 1.318 1.432 1.612l15.258 6.874c2.155.971 2.155 4.406 0 5.377l-15.258 6.874c-.653.294-1.171.877-1.432 1.612l-6.108 17.173c-.863 2.426-3.914 2.426-4.777 0l-6.107-17.173c-.261-.735-.779-1.318-1.432-1.612l-15.258-6.874c-2.156-.971-2.156-4.406 0-5.377l15.258-6.874c.653-.294 1.171-.877 1.432-1.612l6.107-17.173c.862-2.427 3.914-2.427 4.777 0z" fill="#faf1a9"/></g><g><g fill="#3c122c"><path d="m241.299 266.12c-24.374-45.272-41.053-104.996-46.014-164.495 5.805-6.881 9.058-15.654 9.058-24.749v-38.514c0-21.153-17.208-38.362-38.361-38.362h-27.312c-21.153 0-38.362 17.209-38.362 38.362v38.513c0 9.46 3.476 18.488 9.681 25.467-4.629 58.284-21.323 118.318-46.069 165.4-18.38 34.971-26.607 83.208-26.607 115.499v58.857c0 38.544 30.429 69.901 67.83 69.901h95.794c37.402 0 67.831-31.358 67.831-69.901v-58.857c.001-32.902-8.493-81.877-27.469-117.121zm-183.939 173.599v-56.477c0-7.833.565-16.9 1.716-26.581h187.931c1.149 9.664 1.715 18.726 1.715 26.581v56.477zm72.967-340.566c.218-3.173-1.084-6.262-3.507-8.323-4.109-3.493-6.465-8.58-6.465-13.955v-38.513c0-10.099 8.216-18.315 18.315-18.315h27.312c10.099 0 18.314 8.216 18.314 18.315v38.513c0 5.178-2.21 10.139-6.064 13.61-2.301 2.073-3.514 5.093-3.287 8.183 2.912 39.574 10.875 79.467 22.791 115.711l-18.573 11.044c-3.342-14.322-13.784-24.803-26.123-24.803-12.338 0-22.78 10.481-26.122 24.803l-19.012-11.305c11.925-36.627 19.764-76.269 22.421-114.965zm37.933 136.098c0 12.253-6.969 22.604-15.219 22.604-8.249 0-15.218-10.352-15.218-22.604s6.969-22.604 15.218-22.604 15.219 10.352 15.219 22.604zm-86.594 41.818c8.348-15.884 15.821-33.159 22.281-51.312l21.557 12.818c.141.084.288.148.432.219 1.4 17.439 13.022 31.09 27.105 31.09 14.084 0 25.705-13.652 27.105-31.09.145-.071.291-.135.432-.219l21.155-12.579c6.389 17.731 13.738 34.441 21.914 49.627v.001c10.756 19.978 17.855 45.499 21.67 69.01h-184.552c3.722-22.986 10.569-47.909 20.901-67.565zm119.272 214.884h-95.794c-23.185 0-42.558-17.319-46.878-40.207h189.55c-4.32 22.888-23.693 40.207-46.878 40.207z"/><path d="m194.211 397.126h-82.339c-3.321 0-6.014-2.693-6.014-6.014s2.693-6.014 6.014-6.014h82.339c3.321 0 6.014 2.693 6.014 6.014s-2.693 6.014-6.014 6.014z"/><path d="m377.033 331.421c-5.835 0-11.124-2.419-15.718-7.189-12.243-12.71-19.957-44.009-22.927-93.026-2.164-35.711-.978-68.41-.966-68.736.121-3.232 2.776-5.789 6.01-5.789h67.204c3.234 0 5.889 2.557 6.01 5.789.012.326 1.198 33.025-.966 68.736-2.97 49.017-10.684 80.315-22.927 93.026-4.596 4.771-9.884 7.189-15.72 7.189zm-27.771-162.711c-.976 38.983 1.027 126.74 20.716 147.179 3.026 3.141 5.476 3.504 7.055 3.504s4.029-.363 7.055-3.504c19.689-20.439 21.693-108.196 20.716-147.179z"/><path d="m443.525 512h-132.984c-5.68 0-10.659-3.836-12.108-9.328s.99-11.284 5.931-14.086l47.335-26.838v-105.102c-25.541-15.714-41.661-58.221-47.955-126.552-4.848-52.627-2.148-101.138-2.03-103.177.305-5.303 4.695-9.448 10.007-9.448h130.624c5.312 0 9.702 4.144 10.007 9.448.117 2.039 2.818 50.55-2.03 103.177-6.295 68.331-22.414 110.838-47.956 126.552v105.102l47.335 26.838c4.942 2.803 7.38 8.596 5.931 14.087-1.449 5.492-6.428 9.327-12.107 9.327zm-104.455-20.047h75.926l-27.597-15.647c-3.14-1.78-5.08-5.111-5.08-8.719v-116.998c0-4.008 2.388-7.631 6.071-9.211 21.156-9.076 36.054-49.176 41.949-112.913 3.495-37.788 2.932-74.269 2.388-90.949h-111.39c-.544 16.68-1.108 53.161 2.388 90.949 5.896 63.737 20.793 103.837 41.949 112.913 3.683 1.58 6.071 5.203 6.071 9.211v116.998c0 3.609-1.94 6.939-5.08 8.719z"/><ellipse cx="367.014" cy="213.049" rx="8.259" ry="8.259" transform="matrix(.23 -.973 .973 .23 75.341 521.296)"/><path d="m395.769 236.654c0 4.561-3.698 8.259-8.259 8.259s-8.259-3.698-8.259-8.259 3.698-8.259 8.259-8.259 8.259 3.697 8.259 8.259z"/></g><path d="m89.749 334.39c-.509 0-1.024-.039-1.542-.119-5.471-.845-9.221-5.965-8.376-11.436 1.323-8.563 3.31-16.891 5.906-24.752 1.736-5.256 7.403-8.111 12.661-6.374 5.256 1.737 8.11 7.405 6.374 12.661-2.25 6.812-3.976 14.054-5.13 21.525-.764 4.952-5.032 8.495-9.893 8.495z" fill="#fff"/><path d="m107.391 285.376c-1.896 0-3.813-.537-5.514-1.66-4.619-3.05-5.891-9.268-2.84-13.888 1.022-1.547 2.093-3.02 3.184-4.377 3.467-4.315 9.777-5.001 14.092-1.532 4.315 3.468 5.001 9.778 1.532 14.092-.701.873-1.401 1.836-2.08 2.865-1.928 2.918-5.12 4.5-8.374 4.5z" fill="#fff"/><path d="m136.333 68.805c-5.536 0-10.023-4.488-10.023-10.023v-14.482c0-5.536 4.487-10.023 10.023-10.023s10.023 4.487 10.023 10.023v14.482c.001 5.535-4.487 10.023-10.023 10.023z" fill="#fff"/></g></g></svg>