<svg id="Capa_1" enable-background="new 0 0 512 512" height="512" viewBox="0 0 512 512" width="512" xmlns="http://www.w3.org/2000/svg"><g><g><path d="m345.671 496.696-82.136-49.198v-140.184l169.078-197.406h-386.908l169.078 197.406v140.184l-82.136 49.198c-2.462 1.475-1.417 5.255 1.454 5.255h210.117c2.87 0 3.915-3.78 1.453-5.255z" fill="#c1e5ef"/><path d="m139.029 169.9 91.964 111.419c4.291 5.659 12.04 5.659 16.332 0l91.517-111.419z" fill="#fff"/><path d="m390.214 111.677-156.38 154.92c-7.332 7.869-20.574 7.869-27.906 0l-157.143-154.92 175.033 198.974c8.167 10.107 22.917 10.107 31.084 0l174.183-198.974z" fill="#a6aaed"/><path d="m331.443 169.9-97.609 96.698c-2.816 3.022-6.504 4.872-10.393 5.572l7.551 9.149c4.291 5.659 12.04 5.659 16.332 0l91.518-111.42h-7.399z" fill="#e1bdfc"/><ellipse cx="135.996" cy="98.907" fill="#a1e8c3" rx="38.493" ry="42.085" transform="matrix(.769 -.64 .64 .769 -31.802 109.926)"/><path d="m165.576 74.275c-14.874-17.861-40.174-21.313-56.51-7.709 10.985-9.148 27.999-6.827 38.001 5.184s9.204 29.164-1.781 38.311c-10.986 9.148-27.999 6.827-38.001-5.184-9.689-11.636-9.243-28.096.781-37.43-15.369 13.799-16.21 38.605-1.649 56.091 14.873 17.861 40.174 21.312 56.51 7.709s17.522-39.111 2.649-56.972z" fill="#85adc2"/><ellipse cx="197.288" cy="172.511" fill="#a1e8c3" rx="38.493" ry="42.085" transform="matrix(.769 -.64 .64 .769 -64.71 166.191)"/><path d="m226.868 147.88c-14.55-17.473-39.074-21.145-55.428-8.561 11.364-8.444 28.181-5.817 38.195 6.21 10.338 12.415 9.513 30.144-1.841 39.599-11.355 9.456-28.94 7.056-39.278-5.358-10.338-12.415-9.513-30.144 1.841-39.599-16.336 13.604-17.522 39.111-2.649 56.972s40.174 21.313 56.51 7.709c16.337-13.604 17.523-39.111 2.65-56.972z" fill="#85adc2"/><path d="m442.281 202.453 8.521 23.96c.365 1.026 1.087 1.839 1.999 2.249l21.288 9.591c3.007 1.355 3.007 6.147 0 7.502l-21.288 9.591c-.911.411-1.634 1.223-1.999 2.249l-8.521 23.96c-1.204 3.385-5.461 3.385-6.665 0l-8.521-23.96c-.365-1.026-1.087-1.839-1.999-2.249l-21.288-9.591c-3.007-1.355-3.007-6.147 0-7.502l21.288-9.591c.911-.411 1.634-1.224 1.999-2.249l8.521-23.96c1.204-3.385 5.461-3.385 6.665 0z" fill="#cdf4e3"/><circle cx="72.156" cy="285.678" fill="#a2e9c4" r="18.606"/><ellipse cx="381.881" cy="57.159" fill="#a2e9c4" rx="8.026" ry="8.026" transform="matrix(.122 -.993 .993 .122 278.491 429.195)"/><path d="m290.934 6.689 6.321 17.773c.27.761.806 1.364 1.482 1.669l15.791 7.114c2.231 1.005 2.231 4.56 0 5.565l-15.791 7.114c-.676.305-1.212.908-1.482 1.669l-6.321 17.773c-.893 2.511-4.051 2.511-4.944 0l-6.321-17.773c-.271-.761-.806-1.364-1.482-1.669l-15.791-7.114c-2.231-1.005-2.231-4.56 0-5.565l15.791-7.114c.676-.305 1.212-.908 1.482-1.669l6.321-17.773c.893-2.511 4.051-2.511 4.944 0z" fill="#cdf4e3"/></g><g><path d="m440.245 116.444c2.552-2.98 3.137-7.173 1.496-10.737-1.64-3.565-5.205-5.848-9.128-5.848h-246.627c-.57-11.552-4.985-22.763-12.688-32.014-8.803-10.572-20.903-17.384-34.07-19.18-10.614-1.45-20.907.489-29.731 5.462l-42.717-50.563c-3.581-4.239-9.922-4.774-14.16-1.191-4.239 3.581-4.773 9.922-1.191 14.161l43.141 51.064c-6.55 9.305-9.38 20.766-8.388 32.26h-40.477c-3.923 0-7.488 2.284-9.128 5.848-1.641 3.564-1.056 7.757 1.497 10.737l166.66 194.585v130.774l-77.25 46.273c-5.028 3.012-7.357 8.831-5.795 14.48 1.563 5.649 6.55 9.444 12.412 9.444h210.117c5.861 0 10.848-3.795 12.412-9.444 1.562-5.649-.766-11.468-5.795-14.48l-77.25-46.273v-130.773zm-179.61 116.58-23.191-27.451c5.934-7.589 9.368-16.949 9.842-27.144.039-.834.057-1.668.055-2.5h78.747l-83.423 101.564c-.049.06-.098.122-.145.184-.909 1.199-2.102 1.858-3.361 1.858s-2.452-.659-3.361-1.858c-.05-.066-.102-.131-.155-.195l-45.829-55.526c3.65.814 7.354 1.229 11.038 1.229 7.274 0 14.471-1.608 21.034-4.885l23.398 27.695c1.987 2.353 4.824 3.564 7.681 3.564 2.29 0 4.594-.779 6.48-2.373 4.238-3.582 4.772-9.923 1.19-14.162zm-33.426-55.528c-.368 7.909-3.713 14.882-9.42 19.634-12.055 10.036-31.056 7.156-42.359-6.417-3.672-4.41-6.158-9.482-7.327-14.783h59.14c.001.521-.009 1.043-.034 1.566zm-59.441-13.625c1.087-6.389 4.212-11.974 9.021-15.978 4.711-3.923 10.618-5.99 16.949-5.99 1.339 0 2.697.092 4.066.279 8.18 1.116 15.76 5.423 21.343 12.127 2.445 2.936 4.369 6.166 5.726 9.561h-57.105zm-11.27-40.346c-11.155 9.288-28.257 7.506-39.705-3.569h43.212c-1.046 1.293-2.212 2.491-3.507 3.569zm-41.002-49.237c4.711-3.923 10.618-5.989 16.949-5.989 1.339 0 2.697.092 4.066.279 8.18 1.116 15.76 5.423 21.343 12.127 4.672 5.61 7.43 12.291 7.985 19.154h-59.467c-1.385-9.697 1.689-19.379 9.124-25.571zm142.876 381.83 59.742 35.785h-157.91l59.742-35.785c3.03-1.815 4.885-5.088 4.885-8.62v-140.184c0-2.397-.857-4.716-2.417-6.536l-154.872-180.822h24.503c1.81 3.49 4.018 6.853 6.649 10.013 10.717 12.869 25.949 19.611 40.865 19.611 4.165 0 8.304-.533 12.315-1.598-2.326 4.896-3.812 10.247-4.377 15.889h-8.467c-2.335 0-4.459 1.347-5.454 3.459-.995 2.111-.682 4.608.805 6.408l91.893 111.333c3.194 4.147 7.883 6.522 12.887 6.522 5.006 0 9.697-2.377 12.892-6.528l91.451-111.338c1.48-1.802 1.788-4.295.792-6.404-.997-2.108-3.12-3.452-5.451-3.452h-92.94c-1.93-8.087-5.767-15.762-11.312-22.421-8.803-10.572-20.903-17.384-34.07-19.18-6.576-.899-13.029-.492-19.088 1.123.531-1.12 1.005-2.271 1.447-3.437h227.898l-154.876 180.821c-1.56 1.821-2.417 4.139-2.417 6.536v140.184c0 3.533 1.855 6.806 4.885 8.621z" fill="#3c122c"/><g fill="#fff"><path d="m135.926 86.569c0 4.87-3.948 8.819-8.819 8.819s-8.819-3.948-8.819-8.819c0-4.87 3.948-8.819 8.819-8.819 4.871.001 8.819 3.949 8.819 8.819z"/><path d="m196.398 160.899c0 4.87-3.948 8.819-8.819 8.819s-8.819-3.948-8.819-8.819 3.948-8.819 8.819-8.819 8.819 3.949 8.819 8.819z"/></g></g></g></svg>