<svg id="Capa_1" enable-background="new 0 0 512 512" height="512" viewBox="0 0 512 512" width="512" xmlns="http://www.w3.org/2000/svg"><g><ellipse cx="403.169" cy="127.447" fill="#a1e8c3" rx="78.307" ry="78.307" transform="matrix(.707 -.707 .707 .707 27.967 322.412)"/><circle cx="403.173" cy="127.445" fill="#f6e06e" r="56.374"/><path d="m319.8 497.481-78.256-46.874v-133.563l161.092-188.082h-368.635l161.092 188.082v133.562l-78.256 46.874c-2.346 1.405-1.35 5.007 1.385 5.007h200.193c2.734.001 3.731-3.601 1.385-5.006z" fill="#c1e5ef"/><path d="m122.917 186.12 87.62 106.157c4.089 5.392 11.472 5.392 15.56 0l87.195-106.157z" fill="#e8a284"/><path d="m362.238 130.648-148.993 147.603c-6.986 7.497-19.602 7.497-26.588 0l-149.721-147.603 166.766 189.576c7.782 9.629 21.834 9.629 29.616 0l165.956-189.576z" fill="#a6aaed"/><path d="m306.243 186.12-92.998 92.13c-2.683 2.879-6.197 4.642-9.902 5.31l7.195 8.717c4.089 5.392 11.472 5.392 15.561 0l87.195-106.157z" fill="#d57b84"/><path d="m378.311 330.385 8.577 24.118c.367 1.033 1.094 1.851 2.012 2.264l21.428 9.654c3.027 1.364 3.027 6.187 0 7.551l-21.428 9.654c-.917.413-1.644 1.232-2.012 2.264l-8.577 24.118c-1.212 3.407-5.497 3.407-6.709 0l-8.577-24.118c-.367-1.033-1.094-1.851-2.012-2.264l-21.428-9.654c-3.027-1.364-3.027-6.187 0-7.551l21.428-9.654c.918-.413 1.644-1.232 2.012-2.264l8.577-24.118c1.212-3.407 5.498-3.407 6.709 0z" fill="#efc5b4"/><path d="m68.393 283.822c0 10.344-8.385 18.729-18.729 18.729s-18.729-8.385-18.729-18.729 8.385-18.729 18.729-18.729c10.344.001 18.729 8.386 18.729 18.729z" fill="#e8a284"/><ellipse cx="219.116" cy="63.799" fill="#e8a284" rx="8.079" ry="8.079"/><path d="m125.409 1.896 6.362 17.89c.272.766.812 1.373 1.492 1.68l15.895 7.161c2.245 1.012 2.245 4.589 0 5.601l-15.895 7.161c-.681.306-1.22.914-1.492 1.68l-6.362 17.89c-.899 2.527-4.078 2.527-4.977 0l-6.362-17.89c-.272-.766-.812-1.373-1.492-1.68l-15.895-7.161c-2.246-1.012-2.246-4.59 0-5.601l15.895-7.161c.68-.307 1.22-.913 1.492-1.68l6.362-17.89c.899-2.528 4.078-2.528 4.977 0z" fill="#efc5b4"/></g><g><g><path d="m218.318 302.029c-4.757 0-9.214-2.258-12.249-6.201l-87.552-106.074c-1.406-1.705-1.703-4.067-.762-6.066.942-1.999 2.953-3.275 5.163-3.275h190.376c2.207 0 4.217 1.273 5.16 3.269.943 1.995.651 4.355-.75 6.061l-87.131 106.079c-3.037 3.945-7.497 6.207-12.255 6.207zm-83.289-110.201s80.009 96.939 80.056 97.001c.873 1.151 2.021 1.785 3.233 1.785s2.359-.634 3.233-1.785c.044-.06 79.669-97.001 79.669-97.001z" fill="#3c122c"/><path d="m403.173 43.108c-43.804 0-79.884 33.577-83.928 76.341h-285.244c-3.714 0-7.088 2.162-8.641 5.536s-.999 7.344 1.416 10.164l158.804 185.412v124.655l-73.631 44.105c-4.768 2.855-6.975 8.371-5.494 13.726 1.481 5.354 6.209 8.953 11.766 8.953h200.193c5.555 0 10.284-3.598 11.765-8.952 1.482-5.355-.725-10.872-5.491-13.726-.001-.001-.001-.001-.001-.001l-73.633-44.105v-124.656l105.345-122.995c13.391 8.972 29.476 14.219 46.773 14.219 46.504 0 84.337-37.835 84.337-84.338s-37.832-84.338-84.336-84.338zm-168.854 267.748c-1.477 1.723-2.288 3.919-2.288 6.188v133.563c0 3.344 1.756 6.442 4.624 8.16l57.113 34.209h-150.899l57.112-34.209c2.868-1.718 4.624-4.816 4.624-8.16v-133.564c0-2.269-.812-4.464-2.288-6.188l-147.645-172.381h327.293zm162.19-133.517c-6.362-.85-12.348-2.895-17.733-5.899l17.733-20.705zm12.059-35.324 25.297 25.297c-7.161 5.525-15.838 9.172-25.297 10.185zm33.901 16.849-25.375-25.375h36.049c-1.146 9.527-4.959 18.241-10.674 25.375zm-25.374-37.434 25.387-25.387c5.714 7.138 9.524 15.856 10.664 25.387zm-8.527-8.525v-35.511c9.466 1.013 18.15 4.665 25.314 10.197zm-12.059-.001-24.753-24.753c6.977-5.592 15.468-9.361 24.753-10.595zm-33.201-16.148 22.693 22.693h-32.523c1.354-8.447 4.819-16.196 9.83-22.693zm39.865 102.968c-14.303 0-27.631-4.197-38.858-11.4l6.488-7.575c9.444 5.763 20.52 9.1 32.37 9.1 34.409 0 62.404-27.994 62.404-62.404s-27.994-62.403-62.404-62.403c-31.698 0-57.924 23.763-61.864 54.407h-9.96c3.992-36.104 34.674-64.282 71.824-64.282 39.854 0 72.278 32.424 72.278 72.278.001 39.855-32.424 72.279-72.278 72.279z" fill="#3c122c"/><path d="m178.613 169.185c-11.448 0-22.952-.019-34.449-.056-5.551-.018-10.034-4.532-10.017-10.081.018-5.539 4.514-10.017 10.048-10.017h.033c24.105.079 48.262.074 71.8-.012h.037c5.533 0 10.028 4.475 10.048 10.013.021 5.55-4.462 10.065-10.013 10.085-12.355.046-24.886.068-37.487.068z" fill="#fff"/><path d="m113.854 169.118h-8.827c-5.55 0-10.049-4.499-10.049-10.049s4.5-10.049 10.049-10.049h8.827c5.55 0 10.049 4.5 10.049 10.049s-4.5 10.049-10.049 10.049z" fill="#fff"/><g fill="#3c122c"><path d="m223.025 266.238c-1.268 0-2.546-.397-3.634-1.222-2.656-2.01-3.179-5.792-1.169-8.447l8.631-11.402c2.011-2.654 5.794-3.179 8.447-1.169 2.656 2.01 3.179 5.792 1.169 8.447l-8.631 11.402c-1.186 1.567-2.988 2.391-4.813 2.391z"/><path d="m248.495 234.927c-1.268 0-2.546-.397-3.635-1.223-2.655-2.01-3.178-5.791-1.167-8.447l8.632-11.402c2.01-2.653 5.79-3.18 8.447-1.167 2.655 2.01 3.178 5.791 1.167 8.447l-8.632 11.402c-1.186 1.565-2.988 2.39-4.812 2.39z"/></g></g></g></svg>