<svg id="Capa_1" enable-background="new 0 0 512 512" height="512" viewBox="0 0 512 512" width="512" xmlns="http://www.w3.org/2000/svg"><g><g><path d="m125.558 84.751 21.426-40.211c5.41-10.153 15.226-16.377 25.829-16.377h166.719c10.545 0 20.317 6.158 25.746 16.224l21.739 40.307c2.805 5.2 4.286 11.152 4.286 17.218v311.418c0 6.066-1.482 12.018-4.286 17.218l-21.739 40.307c-5.429 10.066-15.201 16.224-25.746 16.224h-166.719c-10.602 0-20.419-6.224-25.829-16.377l-21.426-40.211c-2.752-5.165-4.204-11.059-4.204-17.065v-311.61c0-6.006 1.452-11.901 4.204-17.065z" fill="#c2b2eb"/><path d="m123.089 95.917h265.441v319.94h-265.441z" fill="#9781dd"/><path d="m231.596 368.137 91.046-119.738-37.03-18.153 28.973-70.568-98.918-.377-25.899 94.18 48.172 24.075z" fill="#f6e06e"/><path d="m369.001 51.288h-48.718l11.701 21.695c2.224 4.123 3.398 8.841 3.398 13.651v7.161h55.008c-.717-3.187-1.839-6.258-3.372-9.1z" fill="#ae85ea"/><path d="m391.304 411.461v-307.564h-55.922v229.642c0 16.796 1.635 32.35-8.683 44.961-10.319 12.611-18.798 13.51-32.364 13.51s-132.182 0-132.182 0c-8.406 0-16.189-4.935-20.478-12.985l-16.988-31.881c-2.182-4.094-3.333-8.768-3.333-13.53v77.846h269.95z" fill="#8962de"/><path d="m141.729 460.838h228.952l16.337-30.291c1.514-2.807 2.628-5.838 3.346-8.983h-268.092c.704 3.122 1.798 6.133 3.286 8.926z" fill="#ae85ea"/><path d="m362.47 499.647h-212.282c-9.437 0-17.087-7.65-17.087-17.087v-4.272c0-9.437 7.65-17.087 17.087-17.087h212.282c9.437 0 17.087 7.65 17.087 17.087v4.272c0 9.437-7.65 17.087-17.087 17.087z" fill="#c2b2eb"/><path d="m362.47 48.69h-212.282c-9.437 0-17.087-7.65-17.087-17.087v-4.272c0-9.437 7.65-17.087 17.087-17.087h212.282c9.437 0 17.087 7.65 17.087 17.087v4.272c0 9.437-7.65 17.087-17.087 17.087z" fill="#c2b2eb"/><ellipse cx="28.769" cy="89.232" fill="#9781dd" rx="18.122" ry="18.122" transform="matrix(.387 -.922 .922 .387 -64.644 81.232)"/><circle cx="57.983" cy="172.008" fill="#9781dd" r="7.817"/><path d="m468.177 25.852 8.299 23.336c.355.999 1.059 1.791 1.947 2.191l20.733 9.341c2.929 1.32 2.929 5.987 0 7.306l-20.733 9.341c-.888.4-1.591 1.192-1.947 2.191l-8.299 23.336c-1.173 3.297-5.319 3.297-6.491 0l-8.299-23.336c-.355-.999-1.059-1.791-1.946-2.191l-20.733-9.341c-2.929-1.32-2.929-5.987 0-7.306l20.733-9.341c.888-.4 1.591-1.192 1.946-2.191l8.299-23.336c1.172-3.296 5.319-3.296 6.491 0z" fill="#c2b2eb"/></g><g><path d="m395.91 79.897-13.971-25.903c5.957-5.217 9.729-12.869 9.729-21.391v-4.163c0-15.682-12.758-28.44-28.44-28.44h-213.798c-15.682 0-28.44 12.758-28.44 28.44v4.163c0 8.45 3.709 16.047 9.579 21.26l-13.927 26.137c-3.526 6.619-5.391 14.162-5.391 21.815v311.61c0 7.653 1.864 15.197 5.391 21.816l12.774 23.973c-5.199 5.156-8.426 12.299-8.426 20.183v4.163c0 15.682 12.758 28.44 28.44 28.44h213.799c15.682 0 28.44-12.758 28.44-28.44v-4.163c0-7.952-3.284-15.147-8.563-20.313l12.804-23.74c3.596-6.668 5.497-14.28 5.497-22.014v-311.419c0-7.733-1.901-15.346-5.497-22.014zm-264.453 330.545v-305.596h249.744v305.596zm1.594-317.72c.403-1.109.873-2.188 1.424-3.221h-.001l15.164-28.459h213.145l15.342 28.447c.559 1.036 1.037 2.119 1.447 3.233zm8.145-64.282c0-4.54 3.693-8.233 8.233-8.233h213.799c4.54 0 8.234 3.693 8.234 8.233v4.163c0 4.54-3.694 8.233-8.234 8.233h-213.798c-4.54 0-8.233-3.693-8.233-8.233v-4.163zm230.266 455.12c0 4.54-3.694 8.233-8.234 8.233h-213.798c-4.54 0-8.233-3.694-8.233-8.233v-4.163c0-4.54 3.693-8.233 8.233-8.233h213.799c4.54 0 8.234 3.693 8.234 8.233v4.163zm-8.233-32.603h-213.799c-.502 0-1.001.014-1.497.04l-13.458-25.258c-.543-1.018-1.008-2.082-1.408-3.174h246.489c-.406 1.097-.879 2.164-1.43 3.186l-13.612 25.238c-.427-.019-.854-.032-1.285-.032z" fill="#3c122c"/><path d="m200.711 141.699c-5.555 0-10.073-4.488-10.102-10.05-.03-5.58 4.47-10.127 10.05-10.157 19.484-.103 37.584-.103 56.96 0 5.58.03 10.079 4.577 10.049 10.157-.03 5.561-4.548 10.049-10.102 10.049-.018 0-.036 0-.055 0-19.303-.103-37.334-.103-56.745 0-.019.001-.038.001-.055.001z" fill="#fff"/><path d="m166.297 141.699h-12.2c-5.58 0-10.103-4.523-10.103-10.103s4.523-10.103 10.103-10.103h12.2c5.58 0 10.103 4.523 10.103 10.103 0 5.579-4.523 10.103-10.103 10.103z" fill="#fff"/><g fill="#3c122c"><path d="m291.147 355.236c-3.348 0-6.062-2.714-6.062-6.062v-12.397c0-3.348 2.714-6.062 6.062-6.062s6.062 2.714 6.062 6.062v12.397c0 3.348-2.714 6.062-6.062 6.062z"/><path d="m354.58 336.349c-3.348 0-6.062-2.714-6.062-6.062v-12.397c0-3.348 2.714-6.062 6.062-6.062s6.062 2.714 6.062 6.062v12.397c0 3.348-2.714 6.062-6.062 6.062z"/><path d="m322.011 374.464c-3.348 0-6.062-2.714-6.062-6.062v-12.396c0-3.348 2.714-6.062 6.062-6.062s6.062 2.714 6.062 6.062v12.396c0 3.347-2.714 6.062-6.062 6.062z"/><path d="m231.594 374.199c-.714 0-1.437-.127-2.134-.389-2.508-.944-4.099-3.423-3.911-6.097l6.061-86.544-44.552-22.265c-2.589-1.294-3.903-4.239-3.135-7.03l25.899-94.18c.724-2.632 3.117-4.455 5.844-4.455h.024l98.917.378c2.017.008 3.898 1.018 5.019 2.696 1.12 1.677 1.332 3.802.566 5.668l-26.818 65.319 31.936 15.655c1.628.798 2.813 2.283 3.231 4.047.417 1.764.024 3.622-1.074 5.066l-91.046 119.738c-1.171 1.54-2.972 2.393-4.827 2.393zm-34.66-123.914 43.716 21.848c2.192 1.096 3.508 3.402 3.337 5.846l-4.925 70.323 74.293-97.706-30.412-14.908c-2.866-1.406-4.152-4.793-2.939-7.746l25.552-62.238-85.275-.326z"/></g></g></g></svg>