<svg id="Capa_1" enable-background="new 0 0 512 512" height="512" viewBox="0 0 512 512" width="512" xmlns="http://www.w3.org/2000/svg"><g><g><path d="m473.384 301.63c-6.84-18.219-34.467-27.266-65.808-27.085.004-.479.018-.957.018-1.437 0-28.322-12.179-51.547-32.154-69.677-3.156-8.274-7.463-16.575-13.319-24.502-4.1-28.404-26.638-50.129-53.833-50.129-7.58 0-14.796 1.69-21.354 4.74-18.701-4.542-40.943-7.169-67.429-7.169-26.358 0-48.513 2.601-67.158 7.103-4.934-2.525-10.44-3.943-16.25-3.943-16.179 0-30.006 10.943-35.624 26.409-.186.132-.379.261-.563.394-3.069-.864-6.286-1.324-9.602-1.324-21.16 0-38.314 18.709-38.314 41.787 0 5.506.983 10.759 2.758 15.572-14.675 16.63-23.336 36.871-23.336 60.74 0 72.6 41.139 135.584 101.371 166.937-7.515 4.274-11.783 9.612-11.783 16.105 0 20.878 44.101 45.79 98.501 45.79 54.401 0 98.501-24.911 98.501-45.79 0-6.493-4.268-11.831-11.783-16.105 17.72-9.224 33.784-21.186 47.637-35.326 17.449 5.782 37.296 6.414 56.907.586 47.411-14.091 78.445-61.515 62.617-103.676zm-69.399 73.074c-9.22 2.74-18.503 3.005-26.966 1.216 13.753-21.027 23.409-44.971 27.835-70.708 16.558.031 30.851 4.655 34.38 13.964 8.456 22.308-8.987 47.724-35.249 55.528z" fill="#fff"/><path d="m388.343 217.277c.275 22.016-4.18 44.141-16.265 61.741-12.813 77.186-87.366 136.427-172.052 136.427-89.643 0-162.934-66.379-168.285-150.157-.21 2.563-.326 5.167-.326 7.82 0 103.879 84.211 188.089 188.089 188.089 103.879 0 188.089-84.21 188.089-188.089.001-21.567-7.062-40.175-19.25-55.831z" fill="#e1bdfc"/><g fill="#c49a8b"><ellipse cx="169.879" cy="196.647" rx="22.184" ry="14.261"/><path d="m141.072 231.192c1.237-1.971 1.924-4.123 1.924-6.379 0-9.43-11.891-17.074-26.559-17.074s-26.559 7.644-26.559 17.074c0 8.435 9.518 15.437 22.024 16.821-2.292 2.767-3.595 5.923-3.595 9.276 0 10.916 13.765 19.764 30.744 19.764 16.98 0 30.744-8.849 30.744-19.764 0-10.479-12.686-19.048-28.723-19.718z"/><ellipse cx="240.462" cy="177.867" rx="22.184" ry="14.261"/><ellipse cx="311.908" cy="214.477" rx="30.846" ry="19.83"/></g><path d="m460.616 109.77 8.265 23.239c.354.995 1.054 1.783 1.938 2.182l20.647 9.302c2.917 1.314 2.917 5.962 0 7.276l-20.647 9.302c-.884.398-1.585 1.187-1.938 2.182l-8.265 23.239c-1.168 3.283-5.297 3.283-6.465 0l-8.265-23.239c-.354-.995-1.054-1.784-1.938-2.182l-20.647-9.302c-2.917-1.314-2.917-5.962 0-7.276l20.647-9.302c.884-.398 1.585-1.187 1.938-2.182l8.265-23.239c1.168-3.283 5.297-3.283 6.465 0z" fill="#faf1a9"/><circle cx="36.393" cy="87.402" fill="#f6e06e" r="18.047"/><path d="m391.596 29.598 6.131 17.238c.262.738.782 1.323 1.438 1.618l15.316 6.9c2.164.975 2.164 4.422 0 5.397l-15.316 6.9c-.656.295-1.175.88-1.438 1.618l-6.131 17.238c-.866 2.435-3.929 2.435-4.795 0l-6.131-17.238c-.262-.738-.782-1.323-1.438-1.618l-15.316-6.9c-2.164-.975-2.164-4.422 0-5.397l15.316-6.9c.656-.296 1.175-.88 1.438-1.618l6.131-17.238c.866-2.435 3.929-2.435 4.795 0z" fill="#faf1a9"/></g><g fill="#3c122c"><path d="m169.879 216.945c15.825 0 28.221-8.916 28.221-20.298s-12.396-20.298-28.221-20.298-28.221 8.916-28.221 20.298 12.396 20.298 28.221 20.298zm0-28.522c9.094 0 16.148 4.421 16.148 8.224s-7.054 8.225-16.148 8.225-16.148-4.422-16.148-8.225c.001-3.803 7.054-8.224 16.148-8.224z"/><path d="m148.99 226.033c.029-.405.043-.811.043-1.22 0-12.959-14.318-23.111-32.596-23.111s-32.595 10.151-32.595 23.111c0 9.352 7.664 17.461 19.104 21.086-.448 1.639-.676 3.317-.676 5.01 0 14.468 16.156 25.801 36.781 25.801s36.781-11.333 36.781-25.801c0-11.989-11.106-21.892-26.842-24.876zm-9.939 38.604c-14.56 0-24.708-7.234-24.708-13.728 0-1.831.743-3.657 2.207-5.425 1.416-1.709 1.779-4.057.947-6.114s-2.726-3.492-4.932-3.736c-9.181-1.016-16.651-5.87-16.651-10.82 0-5.21 8.777-11.037 20.522-11.037 11.746 0 20.523 5.827 20.523 11.037 0 1.046-.337 2.112-1 3.17-1.144 1.822-1.231 4.115-.229 6.02 1.002 1.904 2.941 3.131 5.091 3.221 13.721.573 22.938 7.54 22.938 13.686-.001 6.491-10.148 13.726-24.708 13.726z"/><path d="m240.462 198.166c15.825 0 28.221-8.916 28.221-20.298s-12.396-20.298-28.221-20.298-28.221 8.916-28.221 20.298c0 11.381 12.397 20.298 28.221 20.298zm0-28.523c9.094 0 16.148 4.421 16.148 8.224s-7.054 8.225-16.148 8.225-16.148-4.421-16.148-8.225c.001-3.803 7.054-8.224 16.148-8.224z"/><path d="m348.791 214.477c0-14.505-16.201-25.867-36.883-25.867-20.683 0-36.884 11.362-36.884 25.867 0 4.543 1.59 8.778 4.409 12.451-3.84.106-7.666.792-11.349 2.079-7.728-13.907-22.616-22.89-38.809-22.89-24.455 0-44.35 19.896-44.35 44.35 0 3.334 2.703 6.037 6.037 6.037s6.037-2.703 6.037-6.037c0-17.797 14.479-32.277 32.276-32.277 13.355 0 25.495 8.391 30.209 20.882 1.176 3.12 4.657 4.694 7.78 3.516.511-.193.976-.453 1.399-.758.148-.059.296-.119.441-.191 6.859-3.397 14.794-3.551 21.77-.424 9.795 4.394 15.823 14.532 14.999 25.229-.255 3.325 2.231 6.226 5.555 6.483.158.012.314.018.471.018 3.122 0 5.768-2.407 6.012-5.573.772-10.025-2.543-19.713-8.768-27.105.913.046 1.833.077 2.766.077 20.681 0 36.882-11.362 36.882-25.867zm-36.883-13.793c14.62 0 24.809 7.269 24.809 13.794s-10.189 13.793-24.809 13.793c-14.621 0-24.81-7.269-24.81-13.793s10.189-13.794 24.81-13.794z"/><path d="m482.803 298.094c-4.355-11.601-14.839-20.8-30.319-26.602-10.339-3.875-22.4-6.103-35.168-6.792-2.021-25.682-13.375-48.412-33.398-67.183-3.269-8.049-7.34-15.583-12.246-22.549-2.718-15.098-10.083-28.898-20.911-39.086-11.752-11.057-26.835-17.146-42.472-17.146-7.68 0-15.158 1.428-22.279 4.251-19.586-4.433-41.94-6.679-66.505-6.679-24.396 0-46.608 2.214-66.09 6.585-5.518-2.275-11.327-3.426-17.318-3.426-17.512 0-33.2 9.845-41.768 25.657-1.335-.118-2.676-.177-4.021-.177-26.674 0-48.375 23.259-48.375 51.848 0 4.499.542 8.93 1.59 13.208-14.608 18.275-22.168 39.546-22.168 63.104 0 71.168 37.721 133.684 94.213 168.631-2.973 4.138-4.624 8.911-4.624 14.411 0 14.402 12.554 28.886 34.442 39.738 20.957 10.39 47.28 16.112 74.12 16.112s53.163-5.722 74.12-16.112c21.888-10.852 34.442-25.337 34.442-39.738 0-5.502-1.648-10.276-4.619-14.415 11.945-7.39 23.053-16.008 33.14-25.685 8.535 2.269 17.371 3.416 26.301 3.416 10.231 0 20.585-1.498 30.744-4.517 28.267-8.4 52.565-28.346 65-53.356 10.291-20.697 11.771-43.248 4.169-63.498zm-68.948 13.687c3.952.492 7.621 1.32 10.802 2.522 3.341 1.263 7.602 3.504 8.932 7.013 3.597 9.491 1.046 18.159-1.728 23.76-5.47 11.047-16.534 19.96-29.595 23.841-3.493 1.038-6.993 1.656-10.444 1.926 10.311-18.107 17.847-37.988 22.033-59.062zm-323.547-146.711c2.329 0 4.642.319 6.877.948 2.949.83 6.119.265 8.604-1.52l.518-.362c1.662-1.184 2.926-2.845 3.623-4.763 4.365-12.018 14.636-19.783 26.166-19.783 4.061 0 7.987.955 11.668 2.839 2.141 1.096 4.605 1.388 6.944.823 18.747-4.527 40.547-6.822 64.796-6.822 24.358 0 46.246 2.316 65.055 6.884 2.218.539 4.549.308 6.616-.653 5.427-2.523 11.183-3.802 17.113-3.802 21.952 0 40.404 17.456 43.875 41.505.238 1.644.878 3.204 1.865 4.541 12.918 17.489 19.468 39.73 19.468 66.104 0 24.476-33.983 47.17-86.577 57.814-3.863.782-6.915 3.748-7.805 7.588-2.439 10.513-15.081 18.44-29.408 18.44-9.766 0-18.965-3.644-24.605-9.747-1.907-2.063-4.586-3.233-7.389-3.233-.069 0-.139.001-.208.002-2.877.06-5.592 1.349-7.457 3.542-3.013 3.544-10.417 7.12-20.164 7.12-13.043 0-21.697-6.333-21.697-10.523 0-.063.005-.208.04-.473.71-5.353-2.932-10.312-8.252-11.236-28.906-5.021-53.186-13.56-70.215-24.695-11.062-7.233-24.247-19.107-24.247-34.599 0-10.118.979-19.752 2.908-28.635.556-2.558.093-5.231-1.291-7.453-3.32-5.334-5.075-11.601-5.075-18.126.001-17.493 12.675-31.725 28.254-31.725zm-48.831 108.037c0-9.129 1.448-17.447 3.945-25.029-.016.975-.032 1.95-.032 2.932 0 19.384 11.535 37.172 33.357 51.441 17.757 11.611 41.94 20.64 70.285 26.283 4.075 13.847 20.561 23.924 40.851 23.924 10.477 0 20.243-2.712 27.725-7.508 8.895 6.319 20.154 9.824 32.098 9.824 21.169 0 39.801-11.294 46.9-27.637 60.875-13.545 97.013-41.855 97.013-76.328 0-1.002-.03-1.987-.047-2.98 2.506 7.597 3.96 15.93 3.96 25.078 0 98.165-79.862 178.028-178.028 178.028-98.164 0-178.027-79.863-178.027-178.028zm266.468 183.043c0 4.902-7.279 13.787-23.258 21.709-17.97 8.909-41.727 14.018-65.182 14.018s-47.212-5.11-65.182-14.018c-15.98-7.923-23.258-16.807-23.258-21.709 0-1.425.842-2.95 2.534-4.499 26.002 12.561 55.146 19.607 85.905 19.607 30.761 0 59.907-7.047 85.91-19.609 1.694 1.549 2.531 3.075 2.531 4.501zm152.671-103.516c-9.996 20.102-29.701 36.187-52.715 43.026-11.708 3.479-23.7 4.468-35.247 3.04 4.144-5.044 8.04-10.298 11.679-15.739 1.225.077 2.458.125 3.7.125 5.796 0 11.752-.836 17.672-2.595 16.22-4.82 30.043-16.056 36.976-30.057 5.427-10.959 6.208-22.819 2.198-33.397-2.316-6.108-7.832-10.958-15.953-14.027-3.942-1.49-8.373-2.525-13.082-3.156.671-4.953 1.159-9.964 1.455-15.026 10.295.642 19.942 2.441 28.123 5.507 6.888 2.582 15.696 7.25 18.542 14.831 5.619 14.967 4.43 31.825-3.348 47.468z"/><path d="m219.504 432.252c-3.305 0-6.001-2.662-6.035-5.974-.034-3.334 2.64-6.064 5.974-6.099 23.719-.245 47.497-6.322 66.952-17.113 2.917-1.616 6.591-.564 8.207 2.351 1.617 2.916.564 6.59-2.351 8.207-21.18 11.747-46.993 18.362-72.683 18.627-.022.001-.043.001-.064.001z"/><path d="m317.496 394.171c-1.634 0-3.262-.659-4.452-1.958-2.253-2.458-2.087-6.276.371-8.53 4.256-3.901 8.312-8.108 12.056-12.505 2.162-2.538 5.972-2.844 8.51-.683 2.539 2.161 2.844 5.971.683 8.51-4.065 4.775-8.469 9.343-13.091 13.579-1.159 1.062-2.621 1.587-4.077 1.587z"/><path d="m124.606 96.25c-2.19 0-4.396-.712-6.245-2.178-4.354-3.453-5.085-9.781-1.632-14.135 2.178-2.785 7.883-11.703 7.883-19.125 0-2.84-.719-3.746-2.853-6.437-2.871-3.62-7.209-9.09-7.209-18.94 0-15.737 10.987-30.045 12.24-31.625 3.452-4.354 9.781-5.084 14.135-1.631 4.347 3.447 5.082 9.761 1.648 14.114-2.201 2.815-7.9 11.727-7.9 19.143 0 2.839.719 3.745 2.853 6.437 2.87 3.62 7.208 9.09 7.208 18.94 0 15.739-10.986 30.048-12.239 31.628-1.985 2.504-4.923 3.809-7.889 3.809z"/><path d="m285.586 96.25c-2.19 0-4.395-.712-6.244-2.178-4.355-3.453-5.085-9.781-1.633-14.135 2.178-2.785 7.884-11.703 7.884-19.125 0-2.84-.719-3.746-2.853-6.437-2.87-3.62-7.208-9.09-7.208-18.94 0-15.737 10.987-30.045 12.24-31.625 3.452-4.353 9.78-5.086 14.135-1.631 4.347 3.447 5.082 9.761 1.648 14.114-2.201 2.815-7.9 11.727-7.9 19.143 0 2.839.719 3.745 2.853 6.437 2.87 3.62 7.208 9.09 7.208 18.94 0 15.739-10.986 30.048-12.239 31.628-1.986 2.504-4.924 3.809-7.891 3.809z"/><path d="m205.097 96.25c-2.19 0-4.396-.712-6.245-2.178-4.354-3.453-5.085-9.781-1.632-14.135 2.178-2.785 7.883-11.703 7.883-19.125 0-2.84-.719-3.746-2.853-6.437-2.87-3.62-7.208-9.09-7.208-18.94 0-15.737 10.987-30.045 12.24-31.625 3.452-4.354 9.781-5.084 14.135-1.631 4.347 3.447 5.082 9.761 1.648 14.114-2.201 2.815-7.9 11.727-7.9 19.143 0 2.839.719 3.745 2.853 6.437 2.87 3.62 7.208 9.09 7.208 18.94 0 15.739-10.986 30.048-12.239 31.628-1.987 2.504-4.925 3.809-7.89 3.809z"/></g></g></svg>