<svg id="Capa_1" enable-background="new 0 0 512 512" height="512" viewBox="0 0 512 512" width="512" xmlns="http://www.w3.org/2000/svg"><g><g><path d="m462.906 484.486h-160.474c-14.034 0-25.767-10.674-27.089-24.646l-18.899-199.72c-1.757-18.564 12.844-34.612 31.492-34.612h184.358c18.328 0 32.82 15.527 31.557 33.812l-13.8 199.83c-.985 14.267-12.845 25.336-27.145 25.336z" fill="#fff"/><path d="m483.367 229.432h-53.05c8.044 0 14.462 6.712 14.102 14.748l-7.014 156.653c-.566 12.65-10.986 22.614-23.649 22.614h-121.233c-12.373 0-22.6-9.516-23.589-21.754h-.225l2.378 53.113c.745 16.633 14.446 29.734 31.096 29.734h159.407c16.649 0 30.351-13.101 31.095-29.734l9.223-205.983c.474-10.567-7.965-19.391-18.541-19.391z" fill="#e1bdfc"/><path d="m440.177 452.235h-116.581c-12.176 0-22.197-8.213-22.741-18.639l-6.745-129.123c-.346-6.624 5.826-12.156 13.561-12.156h148.433c7.735 0 13.907 5.532 13.561 12.156l-6.745 129.123c-.546 10.426-10.566 18.639-22.743 18.639z" fill="#a1e8c3"/><path d="m456.103 292.316h-13.841l-4.859 108.516c-.566 12.65-10.986 22.614-23.649 22.614h-113.43l.53 10.15c.545 10.427 10.565 18.64 22.741 18.64h116.582c12.176 0 22.197-8.213 22.741-18.64l6.745-129.123c.347-6.624-5.824-12.157-13.56-12.157z" fill="#85adc2"/><path d="m222.552 395.63-50.72-146.174h-.471v-102.382c0-17.75-14.389-32.139-32.139-32.139h-39.199c-17.75 0-32.14 14.389-32.14 32.139v103.574l-51.192 144.982c-8.827 28.919-8.827 60.837 0 89.756h205.86c8.828-28.919 8.828-60.837.001-89.756z" fill="#f4dab5"/><path d="m222.552 395.63-50.72-146.174h-.471v-102.382c0-17.75-14.389-32.139-32.139-32.139h-33.989c13.079 0 23.681 12.892 23.681 28.795v105.679l.347 2.491 37.371 114.522c6.504 25.91 6.504 54.506 0 80.416h-151.683c-1.876-7.473-3.193-15.174-3.987-22.965-2.202 20.63-.297 41.771 5.729 61.514h205.86c8.828-28.92 8.828-60.838.001-89.757z" fill="#dba2b3"/></g><path d="m475.63 86.787 8.51 23.928c.364 1.024 1.086 1.836 1.996 2.246l21.259 9.578c3.003 1.353 3.003 6.138 0 7.492l-21.259 9.578c-.91.41-1.631 1.222-1.996 2.246l-8.51 23.928c-1.202 3.38-5.454 3.38-6.656 0l-8.51-23.928c-.364-1.024-1.086-1.836-1.996-2.246l-21.259-9.578c-3.003-1.353-3.003-6.138 0-7.492l21.259-9.578c.91-.41 1.632-1.222 1.996-2.246l8.51-23.928c1.203-3.381 5.454-3.381 6.656 0z" fill="#cdf4e3"/><path d="m394.905 35.124c0 10.262-8.319 18.581-18.581 18.581s-18.582-8.319-18.582-18.581 8.319-18.581 18.582-18.581c10.262 0 18.581 8.319 18.581 18.581z" fill="#a2e9c4"/><path d="m183.861 31.495c0 4.427-3.589 8.016-8.015 8.016-4.427 0-8.016-3.589-8.016-8.016s3.589-8.015 8.016-8.015c4.427-.001 8.015 3.588 8.015 8.015z" fill="#a2e9c4"/><path d="m271.861 61.925 6.312 17.749c.27.76.805 1.362 1.48 1.666l15.77 7.105c2.228 1.004 2.228 4.553 0 5.557l-15.77 7.105c-.675.304-1.21.906-1.48 1.666l-6.312 17.749c-.892 2.508-4.046 2.508-4.937 0l-6.312-17.749c-.27-.76-.805-1.362-1.48-1.666l-15.77-7.105c-2.228-1.004-2.228-4.553 0-5.557l15.77-7.105c.675-.304 1.21-.907 1.48-1.666l6.312-17.749c.891-2.508 4.045-2.508 4.937 0z" fill="#cdf4e3"/><g><g fill="#3c122c"><path d="m461.59 494.612h-159.407c-22.092 0-40.169-17.287-41.158-39.356l-9.223-205.982c-.353-7.883 2.456-15.366 7.91-21.07s12.803-8.844 20.694-8.844h202.961c7.891 0 15.24 3.14 20.693 8.844 5.454 5.704 8.264 13.187 7.911 21.07l-9.223 205.982c-.989 22.069-19.066 39.356-41.158 39.356zm-181.184-255.109c-2.34 0-4.518.931-6.135 2.622s-2.45 3.91-2.345 6.247l9.223 205.982c.504 11.278 9.744 20.114 21.034 20.114h159.407c11.29 0 20.53-8.835 21.034-20.114l9.223-205.982c.105-2.338-.728-4.556-2.345-6.247s-3.797-2.622-6.135-2.622z"/><path d="m440.177 458.278h-116.581c-15.422 0-28.063-10.703-28.777-24.367l-6.745-129.123c-.236-4.526 1.425-8.907 4.678-12.335 3.728-3.927 9.165-6.18 14.917-6.18h148.434c5.754 0 11.191 2.252 14.919 6.181 3.253 3.427 4.914 7.807 4.678 12.334l-6.745 129.123c-.715 13.664-13.356 24.367-28.778 24.367zm-132.508-159.918c-2.417 0-4.717.903-6.151 2.415-.671.706-1.454 1.867-1.374 3.383l6.745 129.123c.372 7.12 7.866 12.912 16.707 12.912h116.581c8.84 0 16.335-5.792 16.707-12.912l6.745-129.123c.08-1.516-.703-2.676-1.374-3.383-1.434-1.512-3.734-2.415-6.152-2.415z"/><path d="m232.185 392.69c-.037-.122-.076-.242-.118-.362l-50.634-145.928v-99.326c0-23.276-18.936-42.211-42.212-42.211h-39.199c-23.275 0-42.211 18.935-42.211 42.211v101.848l-50.617 143.355c-.048.137-.094.274-.136.413-9.411 30.835-9.411 64.8 0 95.635 1.293 4.237 5.203 7.132 9.633 7.132h205.861c4.43 0 8.34-2.895 9.633-7.132 9.411-30.835 9.411-64.8 0-95.635zm-154.231-147.829v-21.083h83.335v21.083zm93.102 230.453h-45.391v-214.85l43.153 136.93c7.649 25.061 8.379 52.407 2.238 77.92zm-102.868 0c-6.141-25.512-5.413-52.854 2.222-77.868l43.169-136.984v214.852zm31.834-350.308h39.199c12.168 0 22.068 9.899 22.068 22.068v64.618h-83.335v-64.618c0-12.169 9.9-22.068 22.068-22.068zm-73.76 273.769 50.077-141.828h25.675l-43.148 136.918c-7.991 26.181-9.019 54.671-3.099 81.449h-31.413c-6.205-25.016-5.569-51.907 1.908-76.539zm188.627 76.539h-31.413c5.919-26.78 4.889-55.276-3.115-81.501l-43.132-136.866h26.542l49.203 141.801c7.483 24.64 8.122 51.541 1.915 76.566z"/><path d="m368.224 340.51c-3.337 0-6.043-2.706-6.043-6.043v-14.552c0-3.337 2.706-6.043 6.043-6.043s6.043 2.706 6.043 6.043v14.552c-.001 3.337-2.706 6.043-6.043 6.043z"/><path d="m423.719 350.636c-3.337 0-6.043-2.706-6.043-6.043v-14.551c0-3.337 2.706-6.043 6.043-6.043s6.043 2.706 6.043 6.043v14.551c0 3.338-2.705 6.043-6.043 6.043z"/><path d="m390.503 387.094c-3.337 0-6.043-2.706-6.043-6.043v-14.551c0-3.337 2.706-6.043 6.043-6.043s6.043 2.706 6.043 6.043v14.551c0 3.337-2.706 6.043-6.043 6.043z"/><path d="m431.01 418.69c-3.337 0-6.043-2.706-6.043-6.043v-14.552c0-3.337 2.706-6.043 6.043-6.043s6.043 2.706 6.043 6.043v14.552c0 3.338-2.705 6.043-6.043 6.043z"/></g><path d="m328.394 406.694c-5.357 0-9.815-4.221-10.054-9.627-.229-5.174-.496-10.347-.762-15.52-.309-5.977-.628-12.158-.881-18.263-.231-5.558 4.087-10.251 9.644-10.482 5.584-.228 10.25 4.088 10.482 9.644.25 6.007.567 12.136.871 18.064.27 5.222.539 10.444.77 15.668.246 5.556-4.06 10.26-9.617 10.506-.151.007-.303.01-.453.01z" fill="#fff"/><path d="m325.496 341.139c-5.358 0-9.816-4.222-10.054-9.628l-.343-7.765c-.245-5.557 4.061-10.26 9.618-10.505 5.594-.26 10.26 4.061 10.505 9.618l.343 7.765c.245 5.557-4.061 10.26-9.618 10.505-.151.007-.301.01-.451.01z" fill="#fff"/></g></g></svg>