<svg id="Capa_1" enable-background="new 0 0 512 512" height="512" viewBox="0 0 512 512" width="512" xmlns="http://www.w3.org/2000/svg"><g><path d="m228.206 178.827c-6.152 0-12.052-3.467-14.867-9.394l-45.482-95.764-102.269-35.682c-8.555-3.052-13.016-12.461-9.964-21.016 3.053-8.555 12.459-13.018 21.016-9.964l108.678 37.969c4.105 1.464 7.46 4.498 9.33 8.435l48.402 101.911c3.897 8.204.405 18.015-7.8 21.911-2.278 1.082-4.68 1.594-7.044 1.594z" fill="#d789b9"/><g fill="#fff"><path d="m111.607 55.014-27.12-10.17v-35.595l27.12 9.04z"/><path d="m163.025 73.104-27.12-10.17v-35.594l27.12 9.04z"/><path d="m185.948 110.548-12.401-26.175 24.769-25.564 13.186 25.364z"/></g><path d="m383.601 126.543h-96.079-31.586-96.08c-13.83 0-25.041 11.211-25.041 25.041v325.313c0 13.83 11.211 25.041 25.041 25.041h96.08 31.586 96.079c13.83 0 25.041-11.211 25.041-25.041v-325.313c0-13.83-11.211-25.041-25.041-25.041z" fill="#c49a8b"/><path d="m135.653 254.591h271.27v43.599h-271.27z" fill="#fff"/><path d="m408.999 253.651h-276.617v-98.917c0-12.71 10.303-23.013 23.013-23.013h230.591c12.71 0 23.013 10.303 23.013 23.013z" fill="#96b4eb"/><path d="m272.351 376.624-29.056-29.056c-1.151-1.152-2.414-2.119-3.741-2.94-8.049-7.918-20.989-7.885-28.988.115l-26.643 26.643c-3.455 3.455-5.415 7.833-5.9 12.34l-5.539 5.539c-8.04 8.04-8.04 21.074 0 29.114l29.056 29.056c8.04 8.04 21.075 8.04 29.114 0l41.696-41.697c8.04-8.039 8.04-21.074.001-29.114z" fill="#a07575"/><path d="m384.622 126.542h-46.65c10.788 0 19.534 9.583 19.534 21.405v273.213c0 11.822-8.746 21.405-19.534 21.405h-78.137-24.311l-4.869 4.869c-8.04 8.04-21.075 8.04-29.114 0l-4.869-4.869h-42.322c-10.789 0-19.534-9.583-19.534-21.405v55.351c0 14.042 10.754 25.426 24.02 25.426h96.079 33.628 96.079c13.266 0 24.02-11.383 24.02-25.426v-324.543c0-14.042-10.754-25.426-24.02-25.426z" fill="#b2748a"/><path d="m357.506 147.947v149.483h51.136v-145.462c0-14.042-10.754-25.426-24.02-25.426h-46.65c10.788 0 19.534 9.583 19.534 21.405z" fill="#e1bdfc"/><path d="m357.506 147.947v106.095h51.136v-102.074c0-14.042-10.754-25.426-24.02-25.426h-46.65c10.788 0 19.534 9.583 19.534 21.405z" fill="#8286ea"/></g><path d="m55.285 88.444 8.549 24.038c.366 1.029 1.091 1.845 2.005 2.257l21.357 9.622c3.017 1.359 3.017 6.167 0 7.526l-21.357 9.622c-.914.412-1.639 1.227-2.005 2.257l-8.549 24.038c-1.208 3.396-5.479 3.396-6.687 0l-8.549-24.038c-.366-1.029-1.091-1.845-2.005-2.257l-21.357-9.622c-3.017-1.359-3.017-6.167 0-7.526l21.357-9.622c.914-.412 1.639-1.228 2.005-2.257l8.549-24.038c1.208-3.396 5.479-3.396 6.687 0z" fill="#e8c2d8"/><ellipse cx="333.946" cy="44.11" fill="#d789b9" rx="18.667" ry="18.667" transform="matrix(.851 -.526 .526 .851 26.678 182.137)"/><path d="m487.667 179.247c0 4.366-3.539 7.905-7.905 7.905s-7.905-3.539-7.905-7.905 3.539-7.905 7.905-7.905c4.366-.001 7.905 3.539 7.905 7.905z" fill="#d789b9"/><path d="m472.226 62.182 6.341 17.831c.272.763.809 1.368 1.487 1.674l15.842 7.138c2.238 1.008 2.238 4.574 0 5.583l-15.842 7.138c-.678.306-1.216.91-1.487 1.674l-6.341 17.831c-.896 2.519-4.064 2.519-4.96 0l-6.341-17.831c-.271-.764-.809-1.368-1.487-1.674l-15.842-7.138c-2.238-1.008-2.238-4.574 0-5.583l15.842-7.138c.678-.306 1.216-.911 1.487-1.674l6.341-17.831c.896-2.52 4.064-2.52 4.96 0z" fill="#e8c2d8"/><g><g><g fill="#3c122c"><path d="m383.601 116.48h-96.08-.175-56.06l-31.185-65.66c-2.574-5.419-7.104-9.514-12.792-11.543l-108.64-37.957c-5.658-2.019-11.762-1.714-17.188.861-5.426 2.573-9.525 7.105-11.543 12.761-2.018 5.657-1.713 11.761.86 17.187s7.105 9.526 12.801 11.558l99.886 34.851 18.02 37.942h-21.65c-19.356 0-35.104 15.747-35.104 35.103v325.313c0 19.357 15.747 35.104 35.104 35.104h127.49.175 96.08c19.356 0 35.103-15.747 35.103-35.104v-325.313c.001-19.356-15.746-35.103-35.102-35.103zm-305.111-80.386-10.873-3.794c-5.406-1.928-8.234-7.895-6.306-13.3.934-2.619 2.832-4.717 5.344-5.908 1.41-.669 2.919-1.007 4.442-1.007 1.189 0 2.387.206 3.552.622l3.841 1.342zm27.019 9.427-14.944-5.215v-22.039l14.944 5.221zm26.233 9.153-14.158-4.94v-22.027l17.315 6.05zm27.062 9.442-15.462-5.394 3.157-20.913 15.461 5.402zm235.434 77.645-35.288 49.374-37.574-53.376h60.577c4.589 0 8.826 1.496 12.285 4.002zm-43.579 72.558c1.877 2.667 4.931 4.259 8.193 4.271h.036c3.248 0 6.297-1.568 8.187-4.212l31.505-44.08v77.316h-75.954v-73.12zm-191.232-76.56h133.849c5.41 2.261 9.223 7.604 9.223 13.824v96.031h-157.621v-96.031c0-4.934 2.409-9.306 6.102-12.036 2.587-1.143 5.442-1.788 8.447-1.788zm-14.549 121.93h157.622v32.465h-157.622zm177.747 0h75.954v32.465h-75.954zm-150.397-190.889-1.823-.636 3.155-20.9 9.73 3.399c2.616.933 4.713 2.828 5.904 5.338l1.834 3.861-15.624 15.624zm24.299 2.641 6.533 13.756-15.624 15.624-6.533-13.756zm-3.592 40.957 15.624-15.624 9.359 19.706h-23.044zm94.411 379.477h-127.49c-8.259 0-14.978-6.72-14.978-14.979v-172.668h157.622v172.668c0 8.259-6.72 14.979-14.978 14.979zm96.255 0h-64.34c2.154-4.546 3.364-9.623 3.364-14.979v-172.668h75.954v172.668c0 8.259-6.72 14.979-14.978 14.979z"/><path d="m276.62 372.356-32.67-31.882c-5.029-5.029-11.714-7.799-18.826-7.799s-13.798 2.77-18.826 7.799l-26.643 26.642c-3.811 3.812-6.321 8.575-7.315 13.754l-4.124 4.124c-5.029 5.029-7.798 11.714-7.798 18.827 0 7.112 2.769 13.798 7.798 18.826l29.056 29.056v.001c5.19 5.19 12.008 7.785 18.826 7.785s13.636-2.595 18.827-7.786l41.696-41.696c5.029-5.029 7.798-11.714 7.798-18.826-.001-7.112-2.77-13.797-7.799-18.825zm-88.427 3.299 26.643-26.643c2.748-2.748 6.402-4.262 10.288-4.262s7.54 1.514 10.288 4.262l15.582 15.583c2.748 2.747 4.261 6.401 4.261 10.288 0 3.885-1.513 7.539-4.261 10.288l-26.643 26.643c-2.748 2.748-6.402 4.262-10.288 4.262s-7.54-1.514-10.288-4.262c0 0 0 0 0-.001l-15.582-15.58c-2.748-2.749-4.261-6.402-4.261-10.289-.001-3.887 1.513-7.541 4.261-10.289zm79.888 25.814-41.696 41.696c-5.673 5.674-14.903 5.674-20.576 0v.001l-29.056-29.056c-2.748-2.749-4.261-6.402-4.261-10.288 0-2.445.601-4.797 1.73-6.89 1.306 2.88 3.129 5.534 5.433 7.838l15.582 15.581v-.001c5.029 5.029 11.715 7.799 18.826 7.799s13.798-2.77 18.827-7.799l26.643-26.642c3.873-3.873 6.398-8.729 7.358-14.005l1.191 1.191c2.748 2.748 4.261 6.401 4.261 10.288 0 3.885-1.514 7.539-4.262 10.287z"/><path d="m178.152 198.94h82.956c3.334 0 6.038-2.703 6.038-6.038s-2.703-6.038-6.038-6.038h-82.956c-3.334 0-6.037 2.703-6.037 6.038s2.703 6.038 6.037 6.038z"/></g><path d="m159.784 236.373c-5.557 0-10.062-4.506-10.062-10.062v-29.408c0-5.557 4.505-10.062 10.062-10.062 5.558 0 10.063 4.505 10.063 10.062v29.408c0 5.556-4.505 10.062-10.063 10.062z" fill="#fff"/><path d="m159.784 180.542c-5.557 0-10.062-4.506-10.062-10.062v-4.768c0-5.557 4.505-10.063 10.062-10.063 5.558 0 10.063 4.506 10.063 10.063v4.768c0 5.557-4.505 10.062-10.063 10.062z" fill="#fff"/></g></g></svg>