<svg id="Capa_1" enable-background="new 0 0 512 512" height="512" viewBox="0 0 512 512" width="512" xmlns="http://www.w3.org/2000/svg"><g><g><path d="m133.726 166.523c-37.063-32.618-40.667-89.106-8.049-126.169s89.106-40.667 126.169-8.049z" fill="#e8a284"/><path d="m153.425 144.139c-24.701-21.738-27.102-59.385-5.364-84.086s59.385-27.103 84.086-5.364z" fill="#f6e06e"/><path d="m177.263 501.939h166.067l-67.394-37.59v-96.345c67.031-28.759 55.751-275.404 55.751-275.404h-142.782s-11.281 246.646 55.751 275.404v96.345z" fill="#c1e5ef"/><path d="m257.686 345.981c-1.458 2.083 3.2 8.1 2.291 18.803v92.459c0 5.13 2.392 9.968 6.468 13.083l9.578 5.809-.088-108.131c67.032-28.759 55.752-275.404 55.752-275.404l-53.327.054c-.001-.001 7.911 212.491-20.674 253.327z" fill="#a6aaed"/><path d="m260.296 340.568c49.53 0 41.92-202.99 41.92-202.99h-83.84s-7.609 202.99 41.92 202.99z" fill="#faf1a9"/><path d="m278.385 215.378c-1.787 50.385-6.473 102.239-17.572 125.174 28.247-.816 37.681-68.259 40.608-125.174z" fill="#dfb5a7"/><path d="m301.355 216.665c2.241-42.272.861-79.087.861-79.087h-83.84s-1.379 36.815.862 79.087z" fill="#e8a284"/><path d="m278.338 216.665h23.017c2.24-42.272.861-79.087.861-79.087h-22.938c.202 22.273.103 50.483-.94 79.087z" fill="#d57b84"/><path d="m433.312 24.79 8.353 23.488c.358 1.006 1.066 1.803 1.959 2.205l20.868 9.402c2.948 1.328 2.948 6.026 0 7.354l-20.868 9.402c-.893.403-1.601 1.2-1.959 2.205l-8.353 23.488c-1.18 3.318-5.354 3.318-6.534 0l-8.353-23.488c-.358-1.006-1.066-1.803-1.959-2.205l-20.868-9.402c-2.948-1.328-2.948-6.026 0-7.354l20.868-9.402c.894-.403 1.601-1.199 1.959-2.205l8.353-23.488c1.18-3.318 5.354-3.318 6.534 0z" fill="#faf1a9"/><ellipse cx="437.362" cy="227.621" fill="#f6e06e" rx="18.24" ry="18.24" transform="matrix(.099 -.995 .995 .099 167.752 640.425)"/><path d="m394.968 314.355c0 4.345-3.523 7.868-7.868 7.868-4.346 0-7.868-3.523-7.868-7.868 0-4.346 3.523-7.868 7.868-7.868s7.868 3.523 7.868 7.868z" fill="#f6e06e"/><path d="m74.912 226.236 6.196 17.423c.265.746.79 1.337 1.453 1.636l15.48 6.974c2.187.985 2.187 4.47 0 5.455l-15.48 6.974c-.663.299-1.188.89-1.453 1.636l-6.196 17.423c-.876 2.462-3.971 2.462-4.847 0l-6.196-17.423c-.265-.746-.791-1.337-1.453-1.636l-15.48-6.974c-2.187-.985-2.187-4.47 0-5.455l15.48-6.974c.663-.299 1.188-.89 1.453-1.636l6.196-17.423c.876-2.462 3.972-2.462 4.847 0z" fill="#faf1a9"/></g><g fill="#3c122c"><path d="m339.286 488.08-52.194-29.593v-87.34c15.401-9.435 27.341-28.45 36.375-57.837 7.526-24.485 12.928-56.261 16.056-94.445 5.278-64.439 2.243-126.16 2.212-126.776-.272-5.352-4.69-9.551-10.049-9.551h-110.645l38.358-43.586c1.763-2.003 2.658-4.625 2.488-7.288-.169-2.663-1.39-5.149-3.394-6.912-41.168-36.232-104.138-32.215-140.368 8.955-36.231 41.168-32.214 104.137 8.954 140.369 1.842 1.621 4.207 2.508 6.646 2.508.213 0 .427-.007.641-.021 2.663-.17 5.15-1.39 6.912-3.394l36.693-41.694c-.104 23.569.455 55.139 3.097 87.389 3.128 38.184 8.53 69.959 16.056 94.445 9.033 29.387 20.975 48.401 36.375 57.837v87.34l-52.193 29.593c-5.048 2.862-7.54 8.779-6.06 14.39s6.566 9.53 12.369 9.53h145.361c5.803 0 10.889-3.918 12.369-9.529 1.481-5.61-1.011-11.528-6.059-14.39zm-206.046-336.233c-26.011-29.497-26.659-74.565-.009-104.846 15.66-17.795 37.578-26.886 59.603-26.886 15.456 0 30.965 4.479 44.393 13.573l-8.896 10.108c-11.752-7.545-25.545-11.151-39.746-10.247-17.593 1.123-33.696 9.029-45.343 22.263-21.783 24.751-21.641 61.379-1.104 85.925zm45.616-59.758c-.007.133-.152 3.094-.324 8.293l-28.294 32.149c-15.599-20.026-15.305-49.003 2.066-68.743 9.516-10.813 22.673-17.272 37.048-18.189 10.969-.705 21.638 1.898 30.884 7.394l-26.002 29.545h-5.33c-5.357 0-9.776 4.199-10.048 9.551zm36.551 399.788 33.116-18.776c3.152-1.787 5.099-5.13 5.099-8.753v-99.29c0-4.023-2.397-7.66-6.094-9.247-23.407-10.042-39.882-59.195-46.389-138.404-3.972-48.346-3.16-95.187-2.548-114.747h123.409c.612 19.56 1.424 66.401-2.548 114.747-6.507 79.209-22.982 128.362-46.388 138.405-3.697 1.586-6.095 5.222-6.095 9.246v99.29c0 3.623 1.947 6.965 5.098 8.753l33.117 18.776z"/><path d="m261.022 248.3c0 5.017-4.067 9.084-9.084 9.084s-9.084-4.067-9.084-9.084 4.067-9.084 9.084-9.084c5.017-.001 9.084 4.067 9.084 9.084z"/><path d="m283.565 274.261c0 5.017-4.067 9.084-9.084 9.084s-9.084-4.067-9.084-9.084 4.067-9.084 9.084-9.084 9.084 4.067 9.084 9.084z"/><path d="m308.25 137.352c-.122-3.244-2.787-5.811-6.033-5.811h-83.841c-3.246 0-5.911 2.566-6.032 5.811-.015.406-1.492 41.128 1.204 85.607 3.684 60.793 13.17 99.527 28.195 115.126 5.445 5.653 11.687 8.519 18.554 8.519 6.866 0 13.108-2.866 18.553-8.519 15.025-15.599 24.512-54.333 28.195-115.126 2.695-44.479 1.219-85.201 1.205-85.607zm-84.028 6.263h72.148c.449 16.526.464 40.598-.732 66.134h-70.682c-1.196-25.536-1.182-49.606-.734-66.134zm45.932 186.095c-3.125 3.244-6.349 4.821-9.858 4.821-3.508 0-6.732-1.577-9.857-4.82-15.15-15.728-22.032-62.595-24.826-107.888h69.371c-2.793 45.289-9.675 92.153-24.83 107.887z"/></g></g></svg>