<svg id="Capa_1" enable-background="new 0 0 512 512" height="512" viewBox="0 0 512 512" width="512" xmlns="http://www.w3.org/2000/svg"><g><g><path d="m250.71 267.807c7.299-28.719 7.604-59.289 1.284-88.478-7.576-34.992-23.786-86.822-55.914-109.875l.781-58.646-68.22-.908-.762 57.208c-33.958 21.326-51.845 74.086-60.361 109.622-8.348 34.833-7.421 71.827 3.771 105.541.391 1.177.793 2.349 1.206 3.517 4.575 12.918 7.239 29.999 6.99 48.701s.552 36.874-4.366 49.666c-8.888 23.119-13.28 48.341-13.618 73.754-.319 23.983 22.593 45.56 35.599 43.907 13.006-1.652 18.52-12.881 28.244-12.751s18.078 12.253 30.867 12.423 22.434-12.521 29.167-12.431c6.732.09 14.308 10.633 28.252 12.388 7.929.998 18.617-5.274 26.425-15.275 1.794 9.033 8.904 15.736 17.365 15.736h103.785c9.654 0 17.55-8.721 17.801-19.662l4.922-214.438h-133.218z" fill="#fff"/><path d="m236.535 324.798c.096-1.202.209-2.39.329-3.571h-.192v-54.875h14.402c6.944-28.295 7.133-58.326.92-87.022-2.869-13.252-6.98-28.919-12.721-44.523h-158.934c-5.635 14.694-9.815 29.382-12.821 41.924-8.348 34.833-7.421 71.827 3.772 105.541.391 1.177.793 2.349 1.206 3.517 4.575 12.918 7.239 29.999 6.99 48.701s.552 36.874-4.366 49.666c-8.888 23.119-13.28 48.341-13.618 73.754-.319 23.983 22.593 45.56 35.599 43.907 13.006-1.652 18.52-12.881 28.244-12.751s18.078 12.253 30.867 12.423 22.434-12.521 29.167-12.431c6.732.09 14.308 10.633 28.252 12.388 7.929.998 18.617-5.274 26.425-15.275 1.794 9.033 8.904 15.736 17.365 15.736h103.785c9.654 0 17.55-8.721 17.801-19.662l3.614-157.447z" fill="#c1e5ef"/><path d="m251.994 179.33c-2.858-13.203-6.949-28.803-12.656-44.35l-31.716.746c3.854 10.192 6.703 20.712 8.746 31.042 3.056 15.448 4.181 31.336 3.313 47.051l36.64-.39c-.451-11.448-1.897-22.876-4.327-34.099z" fill="#a6aaed"/><path d="m235.625 365.253-28.795.339c5.599 17.385 8.241 27.138 7.966 47.729-.282 21.181-18.545 39.497-29.854 37.961s-17.443-10.84-22.903-10.913-13.296 11.145-23.668 11.006c-10.373-.138-17.137-10.837-25.024-10.942s-12.37 9.816-22.921 11.289c-8.156 1.137-21.092-9.98-26.417-24.868-1.535 10.233-2.369 20.628-2.508 31.058-.32 23.983 22.593 45.56 35.599 43.908 13.006-1.653 18.521-12.882 28.244-12.752 9.724.13 18.078 12.253 30.867 12.423 12.789.171 22.435-12.521 29.167-12.431s14.307 10.633 28.252 12.388c13.944 1.755 36.437-18.961 36.756-42.944.339-25.413-3.38-50.743-11.649-74.09-2.037-5.756-2.852-12.17-3.112-19.161z" fill="#a6aaed"/><path d="m196.08 69.455.781-58.647-27.599-.368v4.888l2.585.034-.9 67.562c17.331 13.531 29.002 32.51 36.674 52.8l31.716-.746c-9.42-25.656-23.251-51.169-43.257-65.523z" fill="#e1bdfc"/><path d="m236.124 261.945h15.477c3.356-12.819 4.667-26.49.609-47.796l-187.086-1.913c-6.587 64.205 13.164 65.167 19.743 149.832l148.061 1.973c-.09-18.912 1.203-33.835 3.197-46.175v-55.921z" fill="#ccf3e2"/><path d="m236.124 331.586v-69.641h15.968c3.478-15.86 4.871-32.207 4.228-48.516l-36.64.39c-.867 15.684-3.721 31.195-8.628 45.92-.343 1.03-.696 2.056-1.057 3.078-4.001 11.302-6.717 39.128-6.937 55.645s-1.508 30.84 2.191 42.244c.552 1.702 1.077 3.322 1.581 4.887l28.795-.339c-.323-8.704.217-18.306.355-28.677.023-1.68.076-3.34.144-4.991z" fill="#b1b6e1"/><path d="m165.045 294.314c-5.315 7.679-27.816 8.543-48.901-8.164-21.085-16.706-22.607-49.899-22.607-49.899s32.662-6.107 53.746 10.6c21.085 16.705 23.077 39.783 17.762 47.463z" fill="#a1e8c3"/><ellipse cx="169.778" cy="299.406" fill="#f6e06e" rx="46.503" ry="46.503" transform="matrix(.23 -.973 .973 .23 -160.625 395.853)"/><circle cx="169.778" cy="299.406" fill="#faf1a9" r="24.596"/><path d="m378.742 267.807h-39.009l-1.203 58.845 38.972-.672z" fill="#e1bdfc"/><path d="m338.53 326.652-2.459 120.28c-.187 9.139-6.062 16.424-13.246 16.424h-65.975c-6.377 0-11.725-5.744-12.972-13.438l.865 32.459c.29 10.888 7.604 19.531 16.526 19.531h96.372c8.965 0 16.296-8.722 16.53-19.662l3.331-156.265z" fill="#a6aaed"/><path d="m325.033 27.854 8.291 23.313c.355.998 1.058 1.789 1.945 2.189l20.712 9.332c2.926 1.318 2.926 5.981 0 7.299l-20.712 9.332c-.887.399-1.59 1.19-1.945 2.188l-8.291 23.313c-1.171 3.294-5.314 3.294-6.485 0l-8.291-23.313c-.355-.998-1.058-1.789-1.945-2.188l-20.712-9.332c-2.926-1.318-2.926-5.981 0-7.299l20.712-9.332c.887-.4 1.59-1.191 1.945-2.189l8.291-23.313c1.172-3.294 5.314-3.294 6.485 0z" fill="#c1e5ef"/><ellipse cx="335.002" cy="183.193" fill="#96b4eb" rx="18.104" ry="18.104" transform="matrix(.23 -.973 .973 .23 79.742 467.144)"/><ellipse cx="424.08" cy="95.473" fill="#96b4eb" rx="7.809" ry="7.809" transform="matrix(.973 -.23 .23 .973 -10.591 99.988)"/><path d="m436.01 138.129 6.15 17.293c.263.74.785 1.327 1.442 1.623l15.364 6.922c2.171.978 2.171 4.436 0 5.414l-15.364 6.922c-.658.296-1.179.883-1.442 1.624l-6.15 17.293c-.869 2.443-3.941 2.443-4.81 0l-6.15-17.293c-.263-.74-.785-1.327-1.442-1.624l-15.364-6.922c-2.171-.978-2.171-4.436 0-5.414l15.364-6.922c.658-.296 1.179-.883 1.442-1.623l6.15-17.293c.868-2.443 3.941-2.443 4.81 0z" fill="#c1e5ef"/></g><g><g fill="#3c122c"><path d="m117.051 194.33c-10.931 0-19.825-8.894-19.825-19.825s8.894-19.825 19.825-19.825 19.825 8.894 19.825 19.825-8.894 19.825-19.825 19.825zm0-27.538c-4.253 0-7.713 3.46-7.713 7.713s3.46 7.713 7.713 7.713 7.713-3.46 7.713-7.713-3.46-7.713-7.713-7.713z"/><path d="m203.682 447.338c-10.931 0-19.825-8.894-19.825-19.825s8.894-19.825 19.825-19.825 19.825 8.893 19.825 19.825-8.894 19.825-19.825 19.825zm0-27.538c-4.253 0-7.713 3.46-7.713 7.713s3.46 7.713 7.713 7.713 7.713-3.46 7.713-7.713-3.46-7.713-7.713-7.713z"/><ellipse cx="164.668" cy="395.974" rx="9.037" ry="9.037" transform="matrix(.23 -.973 .973 .23 -258.546 465.261)"/><path d="m129.624 421.386c0 3.783-3.067 6.85-6.85 6.85s-6.85-3.067-6.85-6.85 3.067-6.85 6.85-6.85 6.85 3.066 6.85 6.85z"/><circle cx="193.356" cy="190.374" r="6.85"/><path d="m169.778 246.847c-4.126 0-8.137.493-11.991 1.397-2.031-2.122-4.269-4.18-6.742-6.14-22.982-18.21-57.176-12.074-58.62-11.806-2.969.555-5.075 3.213-4.937 6.23.067 1.468 1.914 36.158 24.896 54.368 1.656 1.312 3.35 2.535 5.066 3.684-.146 1.59-.231 3.198-.231 4.826 0 28.981 23.578 52.559 52.559 52.559s52.559-23.578 52.559-52.559-23.578-52.559-52.559-52.559zm-49.873 34.557c-13.757-10.901-18.27-30.341-19.694-39.864 9.599-.793 29.555-.842 43.312 10.058.575.455 1.123.916 1.663 1.377-4.206 2.236-8.068 5.03-11.499 8.277l-7.562-6.04c-2.614-2.089-6.424-1.661-8.511.952-2.088 2.613-1.661 6.424.952 8.511l7.328 5.854c-2.286 3.463-4.176 7.208-5.6 11.175-.129-.101-.259-.197-.389-.3zm49.873 58.449c-22.303 0-40.447-18.144-40.447-40.447s18.144-40.447 40.447-40.447 40.447 18.145 40.447 40.447c0 22.303-18.144 40.447-40.447 40.447z"/><path d="m169.778 330.928c-17.382 0-31.522-14.141-31.522-31.522 0-17.382 14.141-31.523 31.522-31.523 17.382 0 31.522 14.141 31.522 31.523s-14.14 31.522-31.522 31.522zm0-50.933c-10.703 0-19.41 8.708-19.41 19.411s8.707 19.41 19.41 19.41 19.411-8.707 19.411-19.41-8.708-19.411-19.411-19.411z"/><path d="m391.147 260.753c-1.898-1.943-4.5-3.039-7.218-3.039h-120.65c4.865-26.16 4.428-53.509-1.421-80.52-8.167-37.725-24.382-87.08-55.619-112.658l.519-38.976c.088-6.601-2.399-12.84-7.004-17.569s-10.775-7.382-17.375-7.469l-38.987-.52c-13.66-.183-24.856 10.756-25.038 24.38l-.498 37.334c-33.054 24.103-50.911 74.096-60.154 112.662-9.014 37.614-7.628 76.022 4.008 111.074.412 1.24.835 2.475 1.271 3.706 4.359 12.306 6.636 28.358 6.412 45.197-.039 2.916-.053 5.818-.066 8.689-.069 14.604-.133 28.397-3.629 37.489-9.115 23.709-13.923 49.697-14.29 77.242-.245 18.387 10.307 34.438 20.264 43.328 7.865 7.022 16.475 10.891 24.05 10.891.898 0 1.783-.055 2.649-.165 9.137-1.161 15.511-5.691 20.166-8.999 2.673-1.899 5.234-3.665 6.672-3.673 1.692.023 5.067 2.146 8.044 4.019 5.86 3.687 13.154 8.276 22.823 8.404 10.531.161 18.796-5.348 24.831-9.356 1.441-.958 3.303-2.194 4.491-2.819 1.098.563 2.82 1.685 4.155 2.554 5.324 3.468 12.615 8.216 22.816 9.5 7.781.977 16.783-2.118 25.084-8.524 5.058 5.608 12.118 9.064 19.965 9.064h103.785c15.26 0 27.511-12.968 27.891-29.523l4.922-214.438c.066-2.715-.97-5.342-2.869-7.285zm-257.9-185.097 4.651-2.922.641-48.083c.033-2.475 2.056-4.465 4.523-4.465h.061l38.987.52c1.631.022 2.693.866 3.182 1.368.488.502 1.304 1.586 1.282 3.217l-.656 49.295 4.278 3.07c16.003 11.482 27.795 31.542 36.305 52.254h-133.26c9.343-21.892 22.368-43.178 40.006-54.254zm-55.914 103.427c2.481-10.354 6.109-23.482 11.103-37.061h142.668c5.097 14.497 8.669 28.558 11.025 39.444 1.872 8.647 3.102 17.423 3.725 26.216l-172.974-1.847c.849-8.916 2.321-17.855 4.453-26.752zm149.405 306.566c-5.017 4.367-9.654 6.06-11.846 5.783-5.595-.704-10.03-3.593-14.32-6.387-4.531-2.951-9.215-6.002-15.058-6.079-5.906-.071-10.943 3.236-15.772 6.443-4.475 2.972-9.125 6.038-13.395 5.988-3.993-.053-7.863-2.487-12.343-5.306-5.229-3.29-11.157-7.019-18.524-7.117-8.029-.103-13.925 4.057-18.635 7.403-3.704 2.632-6.902 4.905-11.017 5.427-1.221.17-5.435-1.05-10.71-5.759-6.639-5.928-13.678-16.397-13.524-28.001.335-25.152 4.691-48.793 12.947-70.267 2.249-5.849 3.457-12.366 4.123-19.323l137.146 1.827c.158 2.054.382 4.075.673 6.065l3.051 106.319c.003.086.01.17.013.255-.932.994-1.875 1.916-2.809 2.729zm6.728-227.935c-2.727 0-5.338 1.104-7.239 3.06-1.9 1.956-2.928 4.597-2.851 7.323l2.269 79.069c-.1 3.723-.194 7.396-.209 10.998l-136.083-1.814c.116-4.309.14-8.724.161-13.211.013-2.814.027-5.658.065-8.515.255-19.166-2.433-37.706-7.568-52.205-.391-1.105-.772-2.214-1.141-3.327-6.47-19.489-9.393-40.17-8.757-61.153l174.221 1.86c.078 12.832-1.177 25.583-3.71 37.916h-9.158zm135.45 224.299c-.124 5.404-3.583 9.8-7.711 9.8h-103.785c-4.096 0-7.554-4.363-7.708-9.727l-4.3-149.83h126.941zm3.716-161.868h-127.567l-1.212-42.245h129.749z"/><path d="m283.967 384.994c-10.931 0-19.825-8.894-19.825-19.825s8.894-19.825 19.825-19.825c10.932 0 19.826 8.893 19.826 19.825-.001 10.931-8.894 19.825-19.826 19.825zm0-27.538c-4.253 0-7.713 3.46-7.713 7.713s3.46 7.713 7.713 7.713 7.714-3.46 7.714-7.713c-.001-4.253-3.461-7.713-7.714-7.713z"/><path d="m335.376 474.475c-10.932 0-19.826-8.893-19.826-19.825s8.894-19.826 19.826-19.826c10.931 0 19.824 8.894 19.824 19.826.001 10.932-8.893 19.825-19.824 19.825zm0-27.539c-4.253 0-7.714 3.46-7.714 7.714 0 4.253 3.461 7.713 7.714 7.713s7.713-3.46 7.713-7.713-3.459-7.714-7.713-7.714z"/><ellipse cx="330.514" cy="401.172" rx="9.037" ry="9.037" transform="matrix(.924 -.383 .383 .924 -128.363 157.019)"/><path d="m299.841 436.261c0 3.783-3.067 6.85-6.85 6.85s-6.85-3.067-6.85-6.85 3.067-6.85 6.85-6.85c3.784 0 6.85 3.067 6.85 6.85z"/><path d="m348.587 352.763c0 3.783-3.067 6.85-6.85 6.85s-6.85-3.067-6.85-6.85 3.067-6.85 6.85-6.85c3.784 0 6.85 3.067 6.85 6.85z"/></g><path d="m266.006 438.537c-5.507 0-10.01-4.424-10.089-9.949-.026-1.803-.047-3.576-.069-5.329-.109-9.005-.213-17.511-.852-26.534-.392-5.56 3.797-10.387 9.357-10.78 5.558-.395 10.386 3.795 10.78 9.356.679 9.611.786 18.403.9 27.711.021 1.739.042 3.498.068 5.287.08 5.573-4.374 10.156-9.948 10.236-.048.002-.098.002-.147.002z" fill="#fff"/><path d="m264.17 375.583c-5.438 0-9.923-4.327-10.083-9.798l-.271-9.31c-.163-5.572 4.223-10.221 9.794-10.383 5.556-.168 10.22 4.221 10.384 9.794l.271 9.31c.163 5.572-4.223 10.221-9.794 10.383-.101.003-.201.004-.301.004z" fill="#fff"/></g></g></svg>