<svg id="Capa_1" enable-background="new 0 0 512 512" height="512" viewBox="0 0 512 512" width="512" xmlns="http://www.w3.org/2000/svg"><g><g><path d="m441.611 89.255-237.249 15.307c-16.229 1.047-28.642 14.877-27.936 31.124l.848 19.512h-42.357c-18.61 0-28.814 11.727-31.404 23.2l-27.23 134.759c-2.237 11.558 5.319 22.74 16.877 24.977 1.368.265 2.73.392 4.074.392 10.006 0 18.932-7.079 20.904-17.27l20.602-106.443c1.909-9.861 10.542-16.984 20.587-16.984h14.683c-16.251 104.545-34.411 202.928-17.013 272.25 4.67 18.605 21.285 31.718 40.467 31.813 48.576.242 144.125-.186 192.618-.437 19.175-.099 35.816-13.205 40.448-31.813 18.672-75.01-4.132-183.871-21.073-297.726l39.744-70.589c3.158-5.609-1.165-12.486-7.59-12.072z" fill="#fff"/><path d="m409.169 169.985c16.969 114.555 40.139 224.224 21.361 299.659-4.632 18.607-21.274 31.713-40.448 31.813-48.493.251-144.042.679-192.618.437-19.182-.095-35.798-13.208-40.467-31.814-18.935-75.448 4.251-185.319 21.252-300.095z" fill="#d789b9"/><path d="m381.588 411.74 18.853-24.758c6.104-8.015 4.554-19.461-3.462-25.564l-23.815-18.134c-8.015-6.103-19.461-4.554-25.564 3.462l-18.853 24.758c-6.103 8.015-4.554 19.461 3.462 25.564l23.815 18.134c8.015 6.103 19.461 4.553 25.564-3.462z" fill="#fff"/><ellipse cx="356.112" cy="249.887" fill="#f6e06e" rx="58.778" ry="58.778" transform="matrix(.29 -.957 .957 .29 13.751 518.305)"/><ellipse cx="356.112" cy="249.887" fill="#faf1a9" rx="42.315" ry="42.315" transform="matrix(.585 -.811 .811 .585 -54.829 392.669)"/><ellipse cx="233.564" cy="399.668" fill="#f6e06e" rx="58.778" ry="58.778" transform="matrix(.418 -.908 .908 .418 -227.143 444.785)"/><ellipse cx="233.564" cy="399.668" fill="#faf1a9" rx="42.315" ry="42.315" transform="matrix(.878 -.48 .48 .878 -163.082 161.009)"/><path d="m254.812 268.326 23.88-19.954c7.731-6.46 8.761-17.964 2.301-25.694l-19.194-22.97c-6.46-7.731-17.964-8.761-25.695-2.301l-23.88 19.954c-7.731 6.46-8.761 17.964-2.301 25.695l19.194 22.969c6.46 7.731 17.964 8.761 25.695 2.301z" fill="#fff"/><path d="m299.384 457.19-3.207-30.954c-1.038-10.021-10.004-17.303-20.025-16.264l-29.774 3.085c-10.021 1.038-17.303 10.004-16.264 20.025l3.208 30.954c1.038 10.021 10.004 17.302 20.025 16.264l29.774-3.085c10.02-1.039 17.302-10.005 16.263-20.025z" fill="#fff"/><path d="m320.787 360.853c-12.771 6.421-50.94-22.701-55.863-32.492-4.922-9.791-.857-25.167 21.28-36.297 22.138-11.129 36.691-5.646 41.827 4.571 5.137 10.217 5.527 57.797-7.244 64.218z" fill="#e8a284"/><path d="m279.676 296.921 15.43 30.692c1.988 3.955 6.807 5.55 10.762 3.561 3.955-1.988 5.55-6.807 3.561-10.762l-15.601-31.033" fill="#efc5b4"/><path d="m180.066 336.615c13.262 6.667 52.896-23.572 58.008-33.739 5.111-10.167.89-26.134-22.097-37.69-22.988-11.557-38.099-5.863-43.433 4.746s-5.74 60.016 7.522 66.683z" fill="#e8a284"/><path d="m222.756 270.228-16.022 31.871c-2.065 4.107-7.068 5.763-11.175 3.698-4.107-2.065-5.763-7.068-3.698-11.175l16.2-32.225" fill="#efc5b4"/><path d="m412.227 412.523c-8.357-11.531-55.465-3.255-64.305 3.152s-12.288 21.872 2.197 41.859c14.486 19.987 29.872 21.804 39.097 15.118 9.225-6.685 31.368-48.598 23.011-60.129z" fill="#e8a284"/><path d="m346.568 450.246 27.711-20.083c3.571-2.588 8.564-1.791 11.152 1.78 2.588 3.571 1.791 8.564-1.78 11.152l-28.019 20.307" fill="#efc5b4"/><path d="m409.473 172.025h-46.351c1.103 7.715 2.248 15.365 3.409 22.96 19.138 14.149 37.355 35.757 34.831 60.675-1.456 14.37-6.375 35.391-18.766 45.718 2.457 19.484 4.241 38.145 4.881 55.819 7.266 4.256 15.344 7.923 15.88 17.623.662 11.973-10.686 18.897-17.278 27.365-.1.87-.221 1.724-.33 2.587 3.316 1.669 5.849 5.21 7.275 8.623 2.408 5.761 2.202 12.372 1.398 18.445-1.62 12.244-7.829 24.738-18.959 31.033-12.286 6.949-20.694-1.845-27.727-10.915-13.343.073-30.772.162-49.56.241-1.845 13.587-15.74 22.068-29.953 22.892-3.263.19-6.85.225-10.348-.209-5.674.054-11.426-.926-16.126-3.887-7.062-4.449-7.84-11.382-8.524-18.607-16.698.021-32.019.01-43.923-.053-15.89-.084-29.653-11.622-33.521-27.993-2.981-12.618-4.694-26.339-5.429-40.967-1.324 32.047.275 61.325 6.645 86.705 4.67 18.605 21.285 31.718 40.467 31.813 48.576.242 144.125-.186 192.618-.437 19.175-.099 35.816-13.205 40.448-31.813 18.666-74.986-4.118-183.802-21.057-297.618z" fill="#c668b9"/><path d="m385.462 406.946c-.802 5.833-1.812 11.517-3.1 17.012-3.837 16.373-17.622 27.905-33.505 27.992-.78.004-1.581.009-2.39.013 1.063 1.813 2.276 3.671 3.652 5.57 14.486 19.987 29.872 21.804 39.097 15.118 9.225-6.685 31.368-48.599 23.011-60.13-3.655-5.042-14.726-6.296-26.765-5.575z" fill="#d57b84"/><path d="m355.633 463.401 28.019-20.307c3.571-2.588 4.368-7.581 1.78-11.152-1.158-1.598-2.799-2.635-4.577-3.068-5.21 13.718-17.758 22.998-31.998 23.076-.364.002-.739.004-1.11.006z" fill="#d994b3"/><path d="m400.403 387.033c6.125-8.044 4.57-19.529-3.474-25.654l-9.579-7.294c.809 18.646.375 36.207-1.836 52.5z" fill="#e1bdfc"/><path d="m233.315 463.971c1.042 10.056 10.039 17.363 20.095 16.321l29.647-3.072c10.056-1.042 17.363-10.039 16.321-20.095l-.511-4.931c-21.777.092-45.438.171-66.752.196z" fill="#e1bdfc"/><path d="m366.065 191.965c5.883 38.728 12.319 75.823 16.64 110.335 19.094-9.708 32.185-29.526 32.185-52.414 0-29.066-21.106-53.19-48.825-57.921z" fill="#dda86a"/><path d="m368.775 209.502c4.068 25.938 8.202 51.06 11.571 75.064 10.928-7.651 18.081-20.326 18.081-34.679-.001-18.958-12.469-35.002-29.652-40.385z" fill="#dfb5a7"/><path d="m362.377 166.807c.192 1.37.39 2.732.585 4.098h47.065l39.174-69.577c3.158-5.61-1.165-12.487-7.59-12.073l-44.265 2.856c1.492 2.129 1.892 5.105.482 7.765z" fill="#e1bdfc"/><path d="m47.157 88.764 8.397 23.61c.36 1.011 1.071 1.812 1.969 2.217l20.977 9.451c2.963 1.335 2.963 6.057 0 7.392l-20.977 9.451c-.898.405-1.61 1.206-1.969 2.217l-8.397 23.61c-1.186 3.336-5.381 3.336-6.568 0l-8.397-23.61c-.36-1.011-1.071-1.812-1.969-2.217l-20.977-9.451c-2.964-1.335-2.964-6.057 0-7.392l20.977-9.451c.898-.405 1.61-1.206 1.969-2.217l8.397-23.61c1.187-3.336 5.382-3.336 6.568 0z" fill="#e8c2d8"/><ellipse cx="486.641" cy="180.13" fill="#d789b9" rx="18.335" ry="18.335" transform="matrix(.23 -.973 .973 .23 199.522 612.368)"/><ellipse cx="257.337" cy="52.596" fill="#d789b9" rx="7.765" ry="7.764" transform="matrix(.104 -.995 .995 .104 178.363 303.099)"/><path d="m158.479 1.856 6.229 17.514c.267.75.794 1.344 1.461 1.644l15.56 7.01c2.198.99 2.198 4.493 0 5.483l-15.56 7.011c-.666.3-1.194.894-1.461 1.644l-6.229 17.514c-.88 2.474-3.992 2.474-4.872 0l-6.229-17.514c-.267-.75-.795-1.344-1.461-1.644l-15.56-7.011c-2.198-.99-2.198-4.493 0-5.483l15.56-7.01c.666-.3 1.194-.894 1.461-1.644l6.229-17.514c.88-2.475 3.992-2.475 4.872 0z" fill="#e8c2d8"/></g><g fill="#3c122c"><path d="m457.496 87.693c-3.547-5.642-9.884-8.875-16.531-8.452l-237.249 15.306c-21.512 1.388-38.252 20.038-37.316 41.575l.393 9.042h-31.875c-23.618 0-37.707 15.582-41.193 31.025l-27.295 135.062c-3.284 16.971 7.852 33.451 24.824 36.737 1.971.381 3.983.574 5.98.574 14.973 0 27.908-10.681 30.756-25.397l20.602-106.442c.993-5.132 5.508-8.857 10.735-8.857h2.956c-.788 5.018-1.575 10.012-2.354 14.949-14.955 94.779-29.081 184.302-12.666 249.709 5.794 23.084 26.417 39.288 50.151 39.405 10.142.05 22.307.072 35.682.072 49.884 0 116.517-.299 157.038-.509 23.771-.122 44.387-16.334 50.134-39.424 16.262-65.326 2.17-154.586-12.75-249.086-2.534-16.05-5.149-32.611-7.627-49.14l38.055-67.59c3.268-5.806 3.096-12.917-.45-18.559zm-298.17 100.102c-14.821 0-27.623 10.561-30.439 25.113l-20.602 106.442c-1.025 5.297-5.673 9.141-11.051 9.141-.721 0-1.45-.071-2.167-.209-6.107-1.183-10.114-7.113-8.948-13.139l27.206-134.635c1.714-7.403 8.274-15.274 21.593-15.274h32.748l.259 5.945c-.826 5.541-1.671 11.082-2.522 16.616zm261.466 279.425c-3.528 14.174-16.178 24.126-30.762 24.202-51.348.266-144.636.678-192.516.437-14.564-.073-27.223-10.032-30.784-24.221-9.906-39.469-7.737-89.729-1.047-145.199 2.043 8.75 5.59 16.495 11.68 19.556 2.113 1.063 4.555 1.594 7.32 1.594 7.758 0 18.054-4.179 30.745-12.494 11.264-7.38 24.508-18.514 28.027-25.514 3.904-7.767 3.761-17.615-2.336-27.104.685.056 1.369.092 2.049.092 5.685 0 11.14-1.972 15.556-5.661l23.781-19.873c4.986-4.166 8.051-10.025 8.631-16.497s-1.395-12.782-5.562-17.769l-19.111-22.87c-4.166-4.987-10.025-8.053-16.498-8.632-6.468-.583-12.782 1.396-17.768 5.562l-23.781 19.872c-4.986 4.167-8.051 10.025-8.631 16.498-.58 6.472 1.395 12.782 5.562 17.768l9.068 10.851c-17.461-7.552-31.133-5.777-39.731.539 1.65-10.713 3.354-21.526 5.072-32.414 2.516-15.944 5.105-32.392 7.574-48.847h212.761c1.506 10.04 3.055 20.063 4.61 29.986-11.883-13.471-29.254-21.992-48.587-21.992-35.73 0-64.799 29.068-64.799 64.799 0 11.242 2.891 21.814 7.953 31.034-4.993 1.077-10.257 2.994-15.766 5.764-11.291 5.676-19.414 13.068-23.489 21.377-3.776 7.698-3.945 16.082-.466 23.003 3.407 6.776 16.196 17.533 27.068 24.656 12.257 8.031 22.214 12.065 29.737 12.065 2.695 0 5.079-.518 7.142-1.556 7.842-3.941 12.433-15.951 13.643-35.695.355-5.793.361-12.49-.089-18.743 6.031 1.868 12.429 2.893 19.067 2.893 26.454 0 49.243-15.943 59.299-38.719 10.925 73.508 17.873 141.055 5.378 191.252zm-205.481-195.587-13.956 27.76c-.569 1.136-1.957 1.592-3.091 1.024-.741-.373-1.039-.996-1.152-1.334-.112-.338-.244-1.016.129-1.757l13.957-27.763c.682.318 1.371.646 2.074 1 .701.354 1.377.711 2.039 1.07zm-.726-32.39c-2.104-2.518-3.101-5.704-2.809-8.972.293-3.268 1.84-6.227 4.358-8.331l23.782-19.873c2.23-1.863 4.985-2.859 7.855-2.859.371 0 .743.016 1.117.05 3.268.292 6.226 1.84 8.33 4.359l19.111 22.87c2.104 2.519 3.102 5.706 2.809 8.974s-1.84 6.227-4.359 8.33l-23.779 19.874c-2.519 2.104-5.707 3.101-8.973 2.81-3.268-.293-6.227-1.841-8.331-4.36zm-28.104 52.675c-1.721 3.423-2.005 7.312-.802 10.949 1.204 3.638 3.752 6.588 7.175 8.309 2.061 1.037 4.256 1.527 6.419 1.527 5.254 0 10.323-2.894 12.84-7.9l13.212-26.279c8.625 7.691 10.287 15.842 7.369 21.646-1.597 3.177-11.016 12.43-23.868 20.851-14.771 9.679-23.673 11.409-26.056 10.214-2.398-1.206-6.356-9.352-7.429-26.853-.949-15.476.89-28.381 2.582-31.747 2.181-4.339 7.107-7.838 14.982-7.838 2.068 0 4.341.244 6.82.775zm103.245 38.4c2.463 4.898 7.423 7.73 12.564 7.73 2.117 0 4.265-.48 6.282-1.495 6.915-3.476 9.713-11.93 6.237-18.846l-12.607-25.078c2.203-.45 4.308-.692 6.283-.692 1.38 0 2.7.111 3.952.334 4.788.853 8.321 3.298 10.215 7.068 1.618 3.218 3.375 15.595 2.463 30.46-1.027 16.759-4.768 24.535-7.032 25.674-2.244 1.129-10.723-.554-24.871-9.823-12.345-8.089-21.381-16.957-22.908-19.994-1.798-3.577-1.614-7.942.519-12.291 1.098-2.239 3.016-5.06 6.321-8.075zm-2.584-31.949c.573-.309 1.156-.618 1.767-.925.606-.305 1.203-.579 1.801-.858l13.339 26.532c.494.982.097 2.184-.886 2.678-.641.322-1.229.21-1.522.111-.293-.096-.832-.355-1.155-.998zm54.91-54.492h-21.727c.945-5.644 3.195-10.849 6.432-15.296zm-6.702-23.732c4.45-3.116 9.622-5.266 15.217-6.128v21.345zm-15.021 35.774h21.725l-15.287 15.287c-3.239-4.444-5.49-9.646-6.438-15.287zm30.238 8.515v21.323c-5.59-.86-10.757-3.008-15.204-6.119zm5.545 33.789c26.652 0 48.335-21.683 48.335-48.336 0-26.652-21.683-48.335-48.335-48.335-26.653 0-48.336 21.683-48.336 48.335 0 12.279 4.61 23.496 12.18 32.031-1.703-.652-3.506-1.162-5.405-1.5-.527-.094-1.059-.173-1.595-.241-6.039-8.58-9.6-19.023-9.6-30.289 0-29.09 23.667-52.757 52.757-52.757s52.757 23.667 52.757 52.757c0 29.091-23.667 52.758-52.757 52.758-7.515 0-14.663-1.591-21.14-4.435-.452-1.633-.965-3.092-1.561-4.278-.353-.703-.745-1.376-1.156-2.032 7.044 4.014 15.183 6.322 23.856 6.322zm15.013-54.346 14.739-14.738c3.023 4.322 5.129 9.328 6.035 14.738zm20.77 12.042c-.909 5.408-3.016 10.41-6.041 14.73l-14.731-14.73zm-29.286-20.556v-21.175c5.462.992 10.5 3.206 14.822 6.353zm14.809 43.879c-4.319 3.143-9.353 5.354-14.809 6.345v-21.154zm24.388-114.189h-214.059l-1.296-29.802c-.465-10.709 7.859-19.984 18.557-20.674l233.706-15.078z"/><path d="m302.172 425.679c-.499-4.82-2.385-9.164-5.214-12.688.909-4.302 1.405-8.754 1.405-13.323 0-35.73-29.069-64.8-64.799-64.8s-64.799 29.069-64.799 64.8c0 33.606 25.726 61.28 58.512 64.455l.049.469c.67 6.463 3.817 12.279 8.861 16.376 4.377 3.555 9.728 5.447 15.29 5.446.847 0 1.7-.043 2.554-.132l29.646-3.072c6.464-.669 12.279-3.816 16.375-8.859 4.097-5.044 5.984-11.382 5.315-17.845zm-74.153-7.816c-3.1 4.682-4.474 10.244-3.888 15.902l.099.953c-4.139-1.102-7.993-2.91-11.414-5.301l15.202-15.202v3.648zm-8.514-12.163-15.284 15.284c-3.238-4.443-5.49-9.644-6.438-15.284zm-21.728-12.042c.945-5.644 3.195-10.849 6.432-15.296l15.296 15.296zm30.242-8.515-15.217-15.218c4.45-3.115 9.622-5.266 15.217-6.128zm5.545-33.811c-26.653 0-48.336 21.683-48.336 48.336 0 23.917 17.464 43.82 40.308 47.654l.472 4.552c-25.522-3.677-45.201-25.682-45.201-52.206 0-29.091 23.667-52.758 52.757-52.758s52.757 23.667 52.757 52.758c0 1.88-.103 3.735-.299 5.564-1.4-.493-2.854-.862-4.349-1.092.136-1.474.226-2.962.226-4.472.001-26.653-21.683-48.336-48.335-48.336zm15.012 42.326 14.739-14.739c3.024 4.322 5.13 9.329 6.035 14.739zm10.39 12.042-9.415.976-.976-.976zm-18.905-20.557v-21.175c5.462.992 10.5 3.206 14.821 6.354zm50.644 81.615c-2.069 2.546-5.005 4.136-8.27 4.474l-29.647 3.072c-3.266.335-6.464-.614-9.011-2.683s-4.136-5.006-4.474-8.269l-3.194-30.826c-.339-3.264.614-6.465 2.683-9.012 2.069-2.546 5.005-4.135 8.27-4.474l29.646-3.072c.429-.044.854-.066 1.275-.066 6.21 0 11.557 4.71 12.21 11.018l3.194 30.827c.34 3.263-.613 6.464-2.682 9.011z"/><path d="m417.103 408.99c-3.368-4.647-9.987-7.332-19.713-8.062l7.803-10.247c8.127-10.672 6.056-25.966-4.616-34.092l-23.713-18.057c-5.17-3.938-11.567-5.624-18.002-4.753-6.44.872-12.153 4.199-16.09 9.37l-18.776 24.657c-3.937 5.169-5.625 11.563-4.752 18.002.872 6.439 4.199 12.153 9.369 16.089l13.798 10.507c-10.057 9.053-12.881 26.98 2.833 48.664 10.917 15.063 22.895 21.062 33.127 21.062 5.424 0 10.357-1.686 14.379-4.601 9.976-7.232 35.941-52.55 24.353-68.539zm-83.526-33.89 18.776-24.656c2.414-3.17 6.081-4.837 9.788-4.837 2.595 0 5.21.816 7.428 2.506l23.713 18.057c5.389 4.104 6.435 11.827 2.331 17.216l-13.538 17.778c-.805.069-1.604.134-2.433.22-8.228.844-17.822 2.642-25.28 4.985l-18.454-14.052c-5.389-4.105-6.435-11.827-2.331-17.217zm21.418 78.901c-.392-.54-.767-1.076-1.129-1.608l23.947-17.355c.877-.634 2.108-.44 2.743.438.636.877.44 2.108-.438 2.743l-23.95 17.357c-.39-.509-.781-1.034-1.173-1.575zm46.814-12.033c-6.002 13.565-13.221 23.705-16.126 25.809-4.644 3.367-12.331 3.742-21.145-3.394l22.647-16.413c6.253-4.533 7.653-13.308 3.121-19.562-2.196-3.029-5.439-5.022-9.134-5.611-3.695-.591-7.398.295-10.427 2.49l-22.593 16.373c-3.756-10.086-1.616-17.546 3.302-21.11 2.74-1.986 14.792-5.689 29.415-7.189 4.033-.413 7.574-.589 10.647-.589 9.689 0 14.72 1.746 15.835 3.283 1.479 2.041 1.223 10.625-5.542 25.913z"/></g></g></svg>