<svg id="Capa_1" enable-background="new 0 0 512 512" height="512" viewBox="0 0 512 512" width="512" xmlns="http://www.w3.org/2000/svg"><g><g><path d="m337.265 206.294-30.133-34.061-7.348-140.138h-79.819l-7.458 141.751-29.247 32.3c-11.166 12.331-17.251 27.663-17.251 43.467v223.472c0 15.906 14.568 28.8 32.538 28.8h122.683c17.959 0 32.522-12.879 32.538-28.775l.194-223.904c.017-15.556-5.863-30.666-16.697-42.912z" fill="#c49a8b"/><path d="m223.669 83.228h72.641v73.422h-72.641z" fill="#a1e8c3"/><path d="m260.677 452.088h-1.382c-32.684 0-59.179-26.496-59.179-59.179v-82.719c0-32.684 26.495-59.179 59.179-59.179h1.382c32.684 0 59.179 26.496 59.179 59.179v82.719c0 32.683-26.496 59.179-59.179 59.179z" fill="#a1e8c3"/><path d="m259.986 427.094c-18.938 0-34.29-15.352-34.29-34.29v-82.511c0-18.938 15.352-34.29 34.29-34.29 18.938 0 34.29 15.352 34.29 34.29v82.511c0 18.938-15.353 34.29-34.29 34.29z" fill="#fff"/><ellipse cx="259.986" cy="351.549" fill="#f6e06e" rx="34.29" ry="34.29" transform="matrix(.162 -.987 .987 .162 -129.019 551.185)"/><path d="m269.463 78.135h32.571l-2.405-46.041h-79.509l-1.04 19.844h49.188z" fill="#b2748a"/><path d="m305.904 152.235-3.342-63.983h-32.638l2.919 63.983z" fill="#85adc2"/><path d="m319.674 412.919c6.07-45.525 10.117-91.051-4.047-134.552-.587-2.348-3.22-4.015-6.116-5.593l-.116 153.721c4.758-3.937 9.039-7.996 10.279-13.576z" fill="#85adc2"/><path d="m336.964 206.294-30.016-34.062-.516-9.88h-32.955c1.182 9.242 4.885 18.112 10.821 25.824l12.518 16.263c8.252 10.721 12.731 23.949 12.719 37.566l-.023 30.769c2.896 1.579 5.529 3.245 6.116 5.593 14.163 43.502 10.117 89.027 4.047 134.552-1.24 5.579-5.522 9.638-10.279 13.576l-.009 11.525c-.012 13.916-11.105 25.191-24.784 25.191h-93.446c-13.688 0-24.784-11.288-24.784-25.213v35.085c0 15.906 14.511 28.8 32.411 28.8h122.207c17.889 0 32.396-12.879 32.411-28.775l.194-223.904c.017-15.554-5.84-30.664-16.632-42.91z" fill="#b2748a"/><path d="m294.639 51.076h-69.308c-11.31 0-20.479-9.169-20.479-20.479 0-11.311 9.169-20.479 20.479-20.479h69.308c11.31 0 20.479 9.169 20.479 20.479.001 11.31-9.168 20.479-20.479 20.479z" fill="#a1e8c3"/><path d="m83.893 252.495 8.31 23.367c.356 1 1.06 1.793 1.949 2.194l20.761 9.354c2.933 1.321 2.933 5.995 0 7.316l-20.761 9.354c-.889.4-1.593 1.193-1.949 2.194l-8.31 23.367c-1.174 3.301-5.326 3.301-6.5 0l-8.31-23.367c-.356-1-1.06-1.793-1.949-2.194l-20.761-9.354c-2.933-1.322-2.933-5.995 0-7.316l20.761-9.354c.889-.401 1.593-1.193 1.949-2.194l8.31-23.367c1.174-3.301 5.326-3.301 6.5 0z" fill="#cdf4e3"/><circle cx="449.681" cy="230.514" fill="#a2e9c4" r="18.146"/><circle cx="130.878" cy="108.385" fill="#a2e9c4" r="7.828"/><path d="m407.327 91.324 6.164 17.333c.264.742.786 1.33 1.446 1.627l15.4 6.938c2.176.98 2.176 4.447 0 5.427l-15.4 6.938c-.659.297-1.182.885-1.446 1.627l-6.164 17.333c-.871 2.449-3.951 2.449-4.822 0l-6.165-17.333c-.264-.742-.786-1.33-1.446-1.627l-15.4-6.938c-2.176-.98-2.176-4.447 0-5.427l15.4-6.938c.659-.297 1.182-.885 1.446-1.627l6.165-17.333c.871-2.449 3.951-2.449 4.822 0z" fill="#cdf4e3"/></g><g><path d="m259.986 458.158c-36.36 0-65.94-29.581-65.94-65.94v-81.338c0-36.359 29.581-65.94 65.94-65.94 36.36 0 65.94 29.581 65.94 65.94v81.337c0 36.36-29.58 65.941-65.94 65.941zm0-201.078c-29.666 0-53.8 24.134-53.8 53.8v81.337c0 29.665 24.135 53.8 53.8 53.8 29.666 0 53.8-24.134 53.8-53.8v-81.337c0-29.665-24.135-53.8-53.8-53.8z" fill="#3c122c"/><path d="m276.669 113.431h-33.367c-3.352 0-6.07-2.718-6.07-6.07s2.718-6.07 6.07-6.07h33.367c3.352 0 6.07 2.718 6.07 6.07s-2.718 6.07-6.07 6.07z" fill="#fff"/><path d="m276.669 139.431h-33.367c-3.352 0-6.07-2.718-6.07-6.07s2.718-6.07 6.07-6.07h33.367c3.352 0 6.07 2.718 6.07 6.07s-2.718 6.07-6.07 6.07z" fill="#fff"/><path d="m259.986 269.933c-22.255 0-40.36 18.105-40.36 40.36v82.511c0 22.255 18.105 40.36 40.36 40.36s40.36-18.105 40.36-40.36v-82.511c0-22.254-18.105-40.36-40.36-40.36zm11.446 120.313c6.394-1.895 12.129-5.331 16.774-9.88v9.88zm-23.165-77.316c-6.285 1.911-11.922 5.317-16.501 9.802v-9.802zm11.719 10.399c15.56 0 28.22 12.659 28.22 28.22s-12.659 28.22-28.22 28.22c-15.56 0-28.22-12.66-28.22-28.22s12.659-28.22 28.22-28.22zm11.718-10.399h16.501v9.803c-4.579-4.486-10.216-7.892-16.501-9.803zm-23.165 77.316h-16.774v-9.88c4.646 4.549 10.38 7.985 16.774 9.88zm11.447-108.173c12.227 0 22.659 7.818 26.569 18.716h-53.138c3.91-10.897 14.342-18.716 26.569-18.716zm0 138.952c-12.198 0-22.611-7.781-26.543-18.639h53.085c-3.931 10.858-14.344 18.639-26.542 18.639z" fill="#3c122c"/><path d="m344.842 199.59-27.792-31.416-5.866-111.862c8.445-5.452 14.052-14.939 14.052-25.717 0-16.87-13.726-30.595-30.597-30.595h-69.307c-16.871 0-30.596 13.725-30.596 30.596 0 10.684 5.509 20.101 13.831 25.575l-5.974 113.55-26.833 29.633c-12.812 14.15-19.869 31.998-19.869 50.257v223.472c0 21.459 19.135 38.917 42.655 38.917h122.684c23.499 0 42.633-17.442 42.655-38.883l.195-223.903c.018-17.956-6.814-35.58-19.238-49.624zm-53.664-138.398.87 16.589h-64.357l.873-16.589zm-64.125 28.73h65.632l3.222 61.443h-72.087zm-1.721-69.689h69.307c5.714 0 10.363 4.649 10.363 10.363s-4.649 10.363-10.363 10.363h-69.307c-5.714 0-10.363-4.649-10.363-10.363s4.649-10.363 10.363-10.363zm118.32 452.866c-.01 10.294-10.068 18.668-22.421 18.668h-122.685c-12.363 0-22.421-8.381-22.421-18.683v-223.473c0-13.23 5.197-26.255 14.634-36.676l29.247-32.3c1.562-1.725 2.481-3.935 2.604-6.259l.572-10.872h73.362l.485 9.257c.12 2.285 1.01 4.461 2.526 6.174l30.133 34.061c9.144 10.336 14.172 23.191 14.159 36.198z" fill="#3c122c"/><g fill="#fff"><path d="m200.147 252.144c-2.153 0-4.322-.684-6.161-2.098-4.428-3.406-5.257-9.759-1.851-14.187l14.903-19.374c3.406-4.428 9.759-5.257 14.187-1.85 4.428 3.406 5.257 9.759 1.85 14.187l-14.903 19.374c-1.991 2.589-4.992 3.948-8.025 3.948z"/><path d="m232.173 212.994c-2.153 0-4.322-.684-6.161-2.098-4.428-3.406-5.257-9.759-1.85-14.187l2.979-3.872c3.407-4.428 9.759-5.257 14.187-1.85 4.429 3.406 5.257 9.759 1.851 14.187l-2.979 3.872c-1.993 2.589-4.994 3.948-8.027 3.948z"/></g></g></g></svg>