<svg id="Capa_1" enable-background="new 0 0 512 512" height="512" viewBox="0 0 512 512" width="512" xmlns="http://www.w3.org/2000/svg"><g><g><path d="m501.556 308.667-27.279-134.997c-2.595-11.494-12.817-23.241-31.46-23.241h-42.432l.85-19.548c.708-16.276-11.728-30.131-27.985-31.18l-237.67-15.334c-6.436-.414-10.767 6.474-7.603 12.094l39.814 70.715c-16.971 114.056-39.816 223.111-21.111 298.254 4.64 18.641 21.311 31.77 40.52 31.87 48.579.251 144.297.68 192.959.437 19.216-.095 35.861-13.231 40.539-31.87 17.428-69.444-.763-168.001-17.043-272.733h14.71c10.062 0 18.711 7.136 20.624 17.015l20.638 106.632c1.976 10.208 10.918 17.3 20.941 17.3 1.346 0 2.711-.128 4.081-.393 11.578-2.24 19.148-13.443 16.907-25.021z" fill="#fff"/><path d="m168.079 165.241c-16.999 114.758-40.21 224.622-21.399 300.191 4.64 18.64 21.311 31.77 40.52 31.869 48.579.252 144.298.68 192.96.438 19.217-.095 35.861-13.232 40.539-31.87 18.969-75.581-4.258-185.648-21.29-300.628z" fill="#faf1a9"/><path d="m352.21 167.924c13.665 93.642 30.219 182.362 15.417 244.204-3.833 16.014-17.471 27.299-33.216 27.381-39.871.208-118.298-.161-158.101-.376-15.739-.085-29.398-11.365-33.2-27.381-1.408-5.931-2.524-12.113-3.387-18.516-.343 26.39 1.603 50.684 6.957 72.194 4.64 18.641 21.311 31.77 40.52 31.87 48.579.251 144.298.679 192.96.437 19.216-.096 35.861-13.231 40.539-31.87 18.821-74.993-3.897-183.937-20.889-297.944z" fill="#dfb5a7"/><path d="m351.679 124.327-1.285 31c.471 3.324.949 6.641 1.43 9.953h47.916l1.496-34.398c.708-16.277-11.728-30.131-27.985-31.18l-46.883-3.025v.701l2.383.16c13.319.903 23.508 12.805 22.928 26.789z" fill="#e1bdfc"/><path d="m189.649 406.389-24.247-31.842c-6.104-8.015-4.554-19.461 3.462-25.564l30.775-23.434c8.015-6.103 19.461-4.554 25.564 3.462l24.247 31.842c6.103 8.015 4.554 19.461-3.462 25.564l-30.775 23.434c-8.015 6.103-19.461 4.554-25.564-3.462z" fill="#fff"/><ellipse cx="340.109" cy="409.89" fill="#f6e06e" rx="66.677" ry="66.677"/><path d="m373.417 352.146c.142 21.89-1.502 42.07-5.79 59.983-3.833 16.014-17.471 27.299-33.216 27.381-14.251.074-33.435.075-54.013.035 10.913 21.949 33.553 37.04 59.728 37.04 36.824 0 66.677-29.852 66.677-66.677-.001-24.696-13.436-46.239-33.386-57.762z" fill="#dda86a"/><circle cx="340.126" cy="409.908" fill="#faf1a9" r="48.001"/><path d="m372.848 374.803c-.797 13.283-2.457 25.778-5.221 37.326-3.833 16.014-17.471 27.299-33.216 27.381-8.999.047-19.967.064-32.009.061 8.789 11.162 22.414 18.338 37.724 18.338 26.51 0 48.001-21.491 48.001-48.001-.001-13.862-5.883-26.343-15.279-35.105z" fill="#dfb5a7"/><circle cx="239.884" cy="277.117" fill="#f6e06e" r="65.542"/><circle cx="239.884" cy="277.117" fill="#faf1a9" r="47.184"/><path d="m333.716 315.582-30.713-25.664c-7.731-6.46-8.761-17.964-2.301-25.695l24.803-29.683c6.46-7.731 17.964-8.761 25.695-2.301l30.712 25.664c7.731 6.46 8.761 17.964 2.301 25.695l-24.803 29.683c-6.46 7.731-17.964 8.761-25.694 2.301z" fill="#fff"/><path d="m381.838 257.842-18.6-15.543c2.832 19.891 5.346 39.244 7.171 57.819l13.742-16.446c6.495-7.771 5.459-19.336-2.313-25.83z" fill="#e1bdfc"/><path d="m214.201 444.948 4.125-39.811c1.038-10.021 10.004-17.302 20.025-16.264l38.475 3.987c10.021 1.038 17.303 10.004 16.264 20.025l-4.125 39.81c-1.038 10.021-10.004 17.303-20.025 16.264l-38.475-3.987c-10.021-1.038-17.302-10.003-16.264-20.024z" fill="#fff"/><path d="m230.561 464.983 38.284 3.967c10.074 1.044 19.087-6.277 20.13-16.351l1.351-13.038c-24.38-.031-51.664-.13-75.543-.237l-.573 5.528c-1.043 10.074 6.277 19.087 16.351 20.131z" fill="#e1bdfc"/><path d="m33.932 470.237c25.769 27.232 64.818 34.253 97.105 20.412 1.131-.485 2.371-.243 3.145.587.034.036.068.072.102.109 9.532 10.073 26.221 9.758 37.276-.703s12.291-27.107 2.759-37.18c-.034-.036-.068-.072-.103-.108-.787-.818-.96-2.07-.413-3.172 15.602-31.474 10.746-70.851-15.023-98.083-25.768-27.232-64.816-34.253-97.103-20.413-1.13.484-2.366.239-3.145-.586-.004-.005-.009-.009-.013-.014-9.532-10.073-26.221-9.758-37.276.703s-12.291 27.107-2.759 37.18c.005.005.009.009.013.014.781.823.957 2.07.411 3.172-15.6 31.474-10.744 70.85 15.024 98.082z" fill="#f6e06e"/><path d="m174.216 453.355c-.787-.818-.96-2.07-.413-3.172 15.602-31.474 10.746-70.851-15.023-98.084-24.035-25.4-59.621-33.209-90.499-22.915 19.525 1.329 45.709-.202 63.737 19.124 12.542 13.445 32.188 70.232-2.808 101.746s-77.542 12.81-97.928-8.734c-13.677-14.453-19.895-33.231-18.788-51.544-6.754 27.616.3 58.124 21.438 80.463 25.769 27.233 64.818 34.253 97.105 20.413 1.131-.485 2.371-.243 3.145.587.034.036.068.073.102.108 9.532 10.074 26.221 9.759 37.276-.702s12.291-27.108 2.759-37.181c-.035-.038-.069-.074-.103-.109z" fill="#dda86a"/><path d="m54.853 122.626 8.258 23.22c.354.994 1.054 1.782 1.937 2.18l20.63 9.294c2.915 1.313 2.915 5.957 0 7.27l-20.63 9.294c-.883.398-1.583 1.186-1.937 2.18l-8.258 23.22c-1.167 3.28-5.292 3.28-6.459 0l-8.258-23.22c-.354-.994-1.053-1.782-1.937-2.18l-20.63-9.294c-2.915-1.313-2.915-5.957 0-7.27l20.63-9.294c.883-.398 1.583-1.186 1.937-2.18l8.258-23.22c1.166-3.28 5.292-3.28 6.459 0z" fill="#faf1a9"/><circle cx="360.476" cy="21.279" fill="#f6e06e" r="18.031"/><circle cx="168.761" cy="33.237" fill="#f6e06e" r="7.778"/><path d="m461.119 40.013 6.125 17.224c.262.737.781 1.322 1.437 1.617l15.303 6.895c2.162.974 2.162 4.419 0 5.393l-15.303 6.895c-.655.295-1.174.88-1.437 1.617l-6.125 17.224c-.866 2.433-3.926 2.433-4.791 0l-6.126-17.224c-.262-.737-.781-1.322-1.437-1.617l-15.303-6.895c-2.162-.974-2.162-4.419 0-5.393l15.303-6.895c.655-.295 1.174-.88 1.437-1.617l6.126-17.224c.865-2.433 3.926-2.433 4.791 0z" fill="#faf1a9"/></g><g><g><path d="m511.409 306.676-27.279-134.997-.048-.223c-3.492-15.47-17.606-31.08-41.266-31.08h-31.932l.394-9.058c.938-21.575-15.831-40.259-37.382-41.649l-237.67-15.333c-6.662-.425-13.006 2.815-16.559 8.466-3.552 5.651-3.725 12.775-.45 18.592l38.122 67.709c-2.483 16.561-5.103 33.152-7.641 49.232-5.687 36.021-11.228 71.256-15.045 104.725-22.712-10.003-48.832-11.187-72.636-2.334-6.084-4.72-13.631-7.178-21.754-7.04-9.55.18-18.759 4.016-25.929 10.801-7.171 6.785-11.509 15.768-12.216 25.294-.6 8.091 1.451 15.774 5.829 22.109-15.353 35.194-8.106 76.946 18.683 105.256 26.783 28.304 68.061 37.846 104.043 24.472 5.927 4.639 13.263 7.134 21.157 7.134.236 0 .473-.002.709-.006 6.004-.113 11.872-1.673 17.184-4.5 5.473 1.983 11.343 3.077 17.425 3.108 40.586.21 107.32.51 157.313.51 13.389 0 25.587-.022 35.749-.072 23.776-.119 44.435-16.352 50.239-39.476 16.444-65.522 2.293-155.203-12.688-250.151-.78-4.946-1.568-9.949-2.358-14.976h2.962c5.236 0 9.759 3.731 10.754 8.872l20.638 106.632c2.853 14.742 15.811 25.442 30.811 25.442 1.998 0 4.013-.194 5.991-.576 8.236-1.594 15.359-6.3 20.055-13.251 4.697-6.951 6.405-15.315 4.795-23.632zm-372.928-212.047 234.121 15.105c10.717.691 19.055 9.982 18.589 20.71l-1.298 29.855h-214.438zm13.68 394.014c-4.181.068-7.933-1.415-10.623-4.258-2.444-2.624-5.855-4.028-9.341-4.028-1.724 0-3.467.344-5.121 1.052-29.248 12.538-63.744 5.271-85.842-18.082s-27.45-58.198-13.319-86.707c2.389-4.819 1.551-10.642-2.081-14.51-.016-.017-.032-.034-.048-.051-2.642-2.792-3.926-6.624-3.618-10.791.336-4.519 2.461-8.843 5.984-12.177s7.959-5.217 12.489-5.303c4.16-.082 7.933 1.415 10.575 4.207.019.021.039.041.058.061 3.664 3.834 9.427 4.987 14.363 2.869 29.245-12.535 63.743-5.27 85.84 18.083 22.098 23.353 27.449 58.199 13.316 86.712-2.413 4.871-1.539 10.74 2.222 14.651 5.707 6.031 4.645 16.334-2.366 22.969-3.522 3.335-7.958 5.218-12.488 5.303zm101.754-205.482h26.674c-1.032 6.978-3.821 13.389-7.903 18.772zm10.158 27.22c-5.392 3.932-11.77 6.582-18.689 7.511v-26.2zm-18.689-47.813v-26.224c6.925.93 13.308 3.583 18.703 7.521zm8.531 8.53 18.782-18.782c4.081 5.385 6.867 11.8 7.895 18.782zm-14.031-47.196c-29.343 0-53.216 23.872-53.216 53.215s23.873 53.216 53.216 53.216c26.488 0 48.511-19.454 52.548-44.824 1.15 2.69 2.78 5.157 4.842 7.292-6.898 25.227-30.004 43.826-57.39 43.826-32.814 0-59.511-26.696-59.511-59.51s26.697-59.51 59.511-59.51c26.705 0 49.342 17.688 56.85 41.959l-.598.716c-1.717 2.055-3.056 4.337-4.005 6.76-4.724-24.54-26.349-43.14-52.247-43.14zm-15.093 59.259-18.16 18.159c-3.835-5.254-6.459-11.443-7.452-18.159zm-25.615-12.063c.989-6.72 3.611-12.912 7.445-18.17l18.17 18.17zm34.145 20.594v26.049c-6.771-1.09-12.993-3.836-18.238-7.81zm-18.252-47.377c5.248-3.98 11.475-6.729 18.252-7.82v26.073zm-17.562 90.437c9.953 7.338 21.863 12.165 34.792 13.534l12.293 16.144c4.111 5.399 3.063 13.136-2.335 17.247l-1.777 1.353-1.411-.146c-6.478-.67-12.823 1.22-17.876 5.324-5.013 4.072-8.152 9.839-8.857 16.253l-.7.533c-5.398 4.111-13.135 3.063-17.246-2.335l-2.54-3.336c-2.186-16.427-8.546-32.321-18.824-45.928zm136.047 89.73v26.877c-6.993-1.105-13.415-3.944-18.816-8.061zm-27.27 10.209c-6.789-9.06-7.447-18.74-7.447-18.74h26.187zm8.44-58.163c5.404-4.122 11.83-6.966 18.83-8.072v26.902zm10.299 27.36h-26.428c1.002-6.941 3.707-13.336 7.679-18.749zm15.103 60.052c29.794 0 54.033-24.239 54.033-54.033s-24.239-54.033-54.033-54.033c-23.328 0-43.247 14.861-50.796 35.613-1.795-1.331-3.762-2.401-5.852-3.19 8.726-22.798 30.819-39.035 56.648-39.035 33.44 0 60.645 27.205 60.645 60.645s-27.205 60.645-60.645 60.645c-17.781 0-33.778-7.711-44.88-19.943l.962-9.284c9.813 13.679 25.836 22.615 43.918 22.615zm14.021-60.052 19.368-19.368c4.224 5.543 7.101 12.161 8.141 19.368zm27.507 12.064c-1.044 7.204-3.923 13.819-8.149 19.358l-19.358-19.358zm-36.037-20.594v-27.049c7.15.939 13.739 3.679 19.293 7.757zm19.278 48.402c-5.551 4.072-12.134 6.808-19.278 7.746v-27.024zm-80.502-40.428c2.178 2.844 2.904 6.575 2.64 9.8l-4.057 38.846c-.698 6.749-6.76 11.678-13.509 10.972l-38.283-3.967c-6.75-.699-11.672-6.76-10.972-13.509l4.105-39.618c.339-3.27 1.93-6.212 4.482-8.284 2.214-1.799 4.921-2.755 7.735-2.755.429 0 39.575 4.034 39.575 4.034 3.269.338 6.211 1.929 8.284 4.481zm126.555 60.089c-3.568 14.214-16.249 24.192-30.839 24.264-48.012.238-193.337-.461-193.578-.468 6.115-11.916 5.649-26.11-1.76-36.787 4.723-10.832 7.297-22.286 7.828-33.778 2.551 1.376 6.558 2.453 9.516 2.854 3.549.164 6.603-.257 8.749-.871l-2.652 25.595c-.671 6.475 1.22 12.823 5.323 17.876 4.104 5.053 9.93 8.205 16.405 8.876l38.284 3.967c.85.088 1.693.131 2.529.131 8.519 0 16.214-4.472 20.582-11.367 12.911 11.724 30.018 18.903 48.791 18.903 40.092 0 72.709-32.617 72.709-72.709s-32.617-72.708-72.709-72.708c-31.806 0-58.902 20.53-68.745 49.033l-15.793-1.636c5.077-8.322 4.855-19.262-1.397-27.474l-6.733-8.841c27.653-2.925 50.643-21.663 59.762-46.979l22.555 18.848c4.424 3.697 11.851 6.048 17.8 5.572 6.483-.581 12.353-3.651 16.526-8.646l24.68-29.535c4.174-4.995 6.153-11.316 5.572-17.8-.581-6.483-3.651-12.353-8.646-16.526l-30.565-25.54c-4.995-4.174-11.316-6.15-17.8-5.572-6.483.58-12.353 3.651-16.526 8.646l-15.175 18.16c-10.969-25.476-36.304-43.364-65.756-43.364-39.466 0-71.574 32.108-71.574 71.574 0 19.198 7.612 36.641 19.958 49.507l-22.983 17.501c-.048.036-.09.077-.138.113-3.599-3.7-7.448-7.068-11.503-10.096 3.755-35.612 9.757-73.682 15.913-112.672 2.53-16.028 5.136-32.565 7.617-49.107h213.139c2.473 16.485 5.067 32.962 7.588 48.935 14.652 92.862 28.492 180.576 13.046 242.121zm-105.556-195.404 24.68-29.535c2.108-2.522 5.072-4.073 8.346-4.366 3.272-.299 6.466.706 8.989 2.814l30.565 25.54c2.523 2.108 4.073 5.072 4.366 8.346s-.706 6.466-2.814 8.989l-24.68 29.535c-2.108 2.523-5.072 4.073-8.346 4.366-3.272.288-6.466-.706-8.989-2.814l-30.565-25.54c-2.522-2.108-4.073-5.072-4.366-8.346s.707-6.466 2.814-8.989zm184.563 51.034c-1.69 2.501-4.252 4.194-7.215 4.768-.722.139-1.452.21-2.172.21-5.388 0-10.045-3.851-11.071-9.158l-20.638-106.631c-2.822-14.577-15.646-25.157-30.493-25.157h-6.088c-.852-5.544-1.699-11.095-2.526-16.646l.259-5.955h32.807c13.342 0 19.914 7.885 21.631 15.302l27.238 134.793c.573 2.964-.042 5.973-1.732 8.474z" fill="#3c122c"/><path d="m43.948 399.193c-.885 0-1.785-.118-2.68-.365-5.352-1.477-8.493-7.013-7.016-12.365.882-3.195 1.983-6.413 3.272-9.565 2.104-5.138 7.975-7.599 13.111-5.497 5.138 2.103 7.6 7.973 5.497 13.111-.989 2.416-1.829 4.871-2.5 7.299-1.228 4.458-5.274 7.382-9.684 7.382z" fill="#fff"/><path d="m47.638 442.093c-3.654 0-7.178-1.999-8.958-5.476-2.68-5.238-4.864-10.727-6.49-16.316-1.551-5.331 1.513-10.91 6.845-12.461 5.329-1.551 10.909 1.514 12.461 6.845 1.271 4.369 2.981 8.666 5.083 12.774 2.529 4.943.572 10.999-4.37 13.529-1.466.75-3.031 1.105-4.571 1.105z" fill="#fff"/><g fill="#3c122c"><path d="m120.541 431.219c-3.313 0-6.01-2.676-6.031-5.994l-.036-5.824c-.021-3.331 2.663-6.048 5.994-6.069h.039c3.313 0 6.01 2.676 6.031 5.994l.036 5.824c.021 3.331-2.663 6.048-5.994 6.069-.013 0-.027 0-.039 0z"/><path d="m144.947 405.381c-3.313 0-6.01-2.675-6.031-5.993l-.037-5.824c-.021-3.332 2.662-6.049 5.993-6.07h.039c3.313 0 6.01 2.675 6.031 5.993l.037 5.824c.021 3.332-2.662 6.049-5.993 6.07-.012 0-.026 0-.039 0z"/><path d="m139.96 449.962c-3.313 0-6.01-2.676-6.031-5.994l-.036-5.824c-.021-3.332 2.663-6.048 5.994-6.07h.039c3.313 0 6.01 2.676 6.031 5.994l.036 5.824c.021 3.332-2.663 6.048-5.994 6.07-.013 0-.026 0-.039 0z"/></g></g></g></g></svg>