<svg id="Capa_1" enable-background="new 0 0 512 512" height="512" viewBox="0 0 512 512" width="512" xmlns="http://www.w3.org/2000/svg"><g><g><path d="m487.375 228.936c-14.523-17.378-37.265-24.825-61.499-22.577 1.143-9.137 1.745-18.464 1.745-27.947 0-112.109-368.654-112.109-368.654 0 0 53.515 18.81 102.187 49.54 138.451 6.067 7.159 7.852 17.282 9.998 26.403-45.573 11.658-74.758 29.558-74.758 49.634 0 35.13 47.6 99.651 199.546 99.651s199.548-64.521 199.548-99.651c0-8.719-5.508-17.026-15.466-24.592 12.154-4.4 24.113-11.16 35.049-20.299 40.472-33.824 51.643-87.134 24.951-119.073zm-50.88 90.232c-21.152 17.678-48.645 20.213-64.115 6.762 1.502-3.253 3.362-6.305 5.701-9.066 18.127-21.391 32.101-47.102 40.519-75.575 13.158-1.242 25.343 2.667 33.054 11.895 14.489 17.336 7.702 46.879-15.159 65.984z" fill="#fff"/><ellipse cx="240.776" cy="405.931" fill="#e1bdfc" rx="150.906" ry="52.21"/><path d="m387.44 218.528c0-79.02-288.292-79.02-288.292 0 0 37.72 18.791 67.078 42.823 92.638 5.899 6.274 5.49 18.979 8.016 26.338l.087.343c6.993 27.442 28.917 48.413 57.434 48.413h71.573c28.65 0 52.624-19.532 59.49-47.141v-.31c1.237-8.467 3.851-21.584 9.75-27.858 24.033-25.56 39.119-54.703 39.119-92.423z" fill="#f4dab5"/><path d="m308.385 378.724c22.19-10.087 32.277-36.311 37.32-62.536 3.026-17.147 25.216-23.199 30.259-40.346 10.1-28.463 21.029-65.282-4.48-86.115-4.517 36.144-19.171 68.726-40.712 94.146-6.425 7.582-8.615 17.728-9.962 27.96-7.479 33.363-34.659 56.805-65.864 56.805h-23.322c-1.173 5.989-3.239 11.649-5.989 16.975 28.73 3.078 57.634 5.67 82.75-6.889z" fill="#dba2b3"/><path d="m229.082 94.558c73.894 2.513 143.887 26.307 143.887 71.39 0 8.069-.512 16.005-1.483 23.78 25.509 20.833 14.58 57.651 4.48 86.115-5.043 17.147-27.233 23.199-30.259 40.346-5.043 26.225-15.13 52.45-37.32 62.536-25.117 12.558-54.021 9.967-82.749 6.889-6.213 12.034-15.947 22.345-26.964 30.769h90.386c36.636 0 68.547-27.522 77.328-66.692 1.582-12.013 4.153-23.925 11.696-32.826 30.73-36.264 49.54-84.936 49.54-138.451-.003-58.94-101.893-86.889-198.542-83.856z" fill="#e1bdfc"/><path d="m140.951 411.151c-8.903 13.991-48.767 17.068-87.325-11.125s-43.54-86.982-43.54-86.982 57.532-13.079 96.09 15.114c38.558 28.192 43.678 69.002 34.775 82.993z" fill="#a1e8c3"/><path d="m106.176 328.157c-38.127-27.878-94.799-15.403-96.06-15.12 1.231-.274 40.484-8.798 66.929 10.538 26.868 19.646 30.436 48.083 24.232 57.833-6.204 9.749-33.982 11.894-60.85-7.752-26.869-19.646-30.34-60.612-30.34-60.612s4.982 58.789 43.54 86.982 78.422 25.116 87.325 11.125 3.782-54.801-34.776-82.994z" fill="#85adc2"/><path d="m116.083 419.46c-11.252-12.182-4.042-51.509 33.067-81.584s95.22-19.872 95.22-19.872-2.054 58.964-39.163 89.039-77.872 24.599-89.124 12.417z" fill="#a1e8c3"/><path d="m156.179 332.799c27.638-17.157 65.248-10.558 65.248-10.558s-1.54 44.19-29.35 66.73c-27.811 22.539-58.361 18.435-66.793 9.305-8.389-9.083-3.075-38.3 24.367-60.794-.166.132-.335.26-.5.394-37.109 30.075-44.319 69.402-33.067 81.584s52.015 17.659 89.124-12.417c37.109-30.075 39.163-89.039 39.163-89.039s-51.219-8.991-88.192 14.795z" fill="#85adc2"/><path d="m66.225 11.832 8.285 23.297c.355.998 1.057 1.788 1.943 2.187l20.699 9.326c2.924 1.318 2.924 5.977 0 7.294l-20.699 9.326c-.886.399-1.589 1.19-1.943 2.187l-8.285 23.297c-1.171 3.291-5.31 3.291-6.481 0l-8.285-23.297c-.355-.997-1.057-1.788-1.943-2.187l-20.699-9.326c-2.924-1.318-2.924-5.977 0-7.294l20.699-9.326c.886-.399 1.589-1.19 1.943-2.187l8.285-23.297c1.171-3.292 5.311-3.292 6.481 0z" fill="#faf1a9"/><ellipse cx="338.805" cy="36.508" fill="#f6e06e" rx="18.092" ry="18.092" transform="matrix(.526 -.851 .851 .526 129.63 305.519)"/><circle cx="147.422" cy="18.749" fill="#f6e06e" r="7.804"/><path d="m473.848 83.087 6.146 17.282c.263.74.784 1.326 1.441 1.622l15.354 6.918c2.169.977 2.169 4.433 0 5.411l-15.354 6.918c-.658.296-1.178.882-1.441 1.622l-6.146 17.282c-.868 2.441-3.939 2.441-4.807 0l-6.146-17.282c-.263-.74-.784-1.326-1.441-1.622l-15.354-6.918c-2.169-.977-2.169-4.433 0-5.411l15.354-6.918c.657-.296 1.178-.883 1.441-1.622l6.146-17.282c.868-2.441 3.939-2.441 4.807 0z" fill="#faf1a9"/></g><g><g fill="#3c122c"><path d="m495.114 222.469c-13.852-16.576-34.338-25.865-58.07-26.544.432-5.801.664-11.64.664-17.512 0-21.213-11.086-50.994-63.898-72.408-34.606-14.032-80.958-21.76-130.514-21.76-49.558 0-95.909 7.728-130.516 21.76-52.812 21.414-63.898 51.196-63.898 72.408 0 47.049 14.025 92.205 39.81 129.195-37.747-13.88-78.755-4.875-80.84-4.4-4.905 1.115-8.24 5.674-7.814 10.687.192 2.267 4.537 49.452 33.697 81.659 1.196 24.255 18.654 49.767 47.228 68.747 37.755 25.08 93.889 38.336 162.333 38.336s124.579-13.256 162.334-38.336c29.617-19.674 47.299-46.365 47.299-71.401 0-7.516-2.642-14.659-7.801-21.355 8.314-4.287 16.308-9.564 23.766-15.797 21.306-17.806 35.89-41.215 41.066-65.914 5.357-25.575.086-49.499-14.846-67.365zm-67.807 24.853c8.179.817 15.047 4.17 19.704 9.742 5.764 6.898 7.601 16.52 5.172 27.093-2.57 11.184-9.519 21.968-19.569 30.367-10.049 8.399-21.897 13.323-33.359 13.865-5.681.272-10.884-.581-15.387-2.436.59-.895 1.221-1.756 1.909-2.569 18.77-22.15 32.811-48.062 41.53-76.062zm-306.947-122.623c32.255-13.078 75.914-20.281 122.935-20.281 47.02 0 90.679 7.203 122.934 20.281 23.406 9.491 51.306 26.513 51.306 53.714 0 49.197-16.744 96.051-47.148 131.93-9.269 10.937-12.27 25.086-13.94 37.565-7.894 34.401-35.548 58.388-67.389 58.388h-73.952c4.421-4.344 8.292-9.061 11.677-13.983h52.299c30.909 0 57.788-21.273 65.363-51.733.107-.431.167-.871.177-1.314 2.396-16.062 6.102-22.034 8.11-24.169 27.809-29.578 40.761-60.263 40.761-96.569 0-7.159-2.032-15.725-8.783-24.34 8.648-6.24 13.631-13.458 13.631-21.614 0-32.656-79.883-50.277-155.046-50.277-75.162 0-155.045 17.621-155.045 50.277 0 8.156 4.983 15.374 13.631 21.613-6.752 8.615-8.783 17.181-8.783 24.34 0 44.36 25.378 76.481 44.465 96.783 2.626 2.793 3.636 8.879 4.527 14.249.315 1.896.628 3.727.999 5.485-2.816 2.384-5.447 4.814-7.909 7.273-2.678-3.466-5.65-6.87-8.927-10.176-1.89-7.479-4.524-15.28-10.049-21.799-30.404-35.879-47.148-82.733-47.148-131.93-.002-27.2 27.898-44.223 51.304-53.713zm304.955 254.967c4.891 4.546 7.44 9.045 7.44 13.234 0 4.179-.893 9.034-2.872 14.28-8.633 9.064-25.029 17.824-47.325 24.932-37.112 11.83-86.569 18.345-139.263 18.345-52.693 0-102.151-6.515-139.262-18.345-1.771-.564-3.491-1.143-5.187-1.728 5.112.834 9.948 1.212 14.414 1.212 3.443 0 6.663-.227 9.622-.639 6.704 2.769 15.02 4.301 24.033 4.301 1.436 0 2.89-.038 4.358-.117 9.33-.498 21.883-2.715 35.73-9.358 3.461.447 6.974.686 10.531.686h91.525c31.92 0 60.488-18.169 76.453-46.546 8.746 2.994 18.285 4.575 28.405 4.574.935 0 1.874-.013 2.818-.039 9.554-.268 19.166-1.904 28.58-4.792zm-272.355-37.089c20.694-16.771 48.905-20.149 68.271-20.149 6.93 0 12.729.433 16.645.839-1.57 14.859-8.382 56.303-36.48 79.074-19.652 15.928-38.456 20.055-50.77 20.713-10.182.545-18.547-1.22-24.122-3.74l69.455-55.836c2.604-2.094 3.019-5.904.924-8.509-2.092-2.604-5.902-3.018-8.508-.925l-70.26 56.484c-.729-2.687-.998-6.031-.733-9.711 1.087-15.097 11.006-38.325 35.578-58.24zm223.123-157.136c-7.334-6.056-17.538-11.902-31.611-17.045-26.792-9.791-62.724-15.184-101.178-15.184s-74.386 5.393-101.178 15.184c-14.073 5.143-24.277 10.989-31.611 17.045-6.654-4.383-10.152-8.826-10.152-12.865 0-15.94 54.379-38.174 142.941-38.174s142.942 22.234 142.942 38.174c0 4.038-3.498 8.481-10.153 12.865zm-11.786 6.245c-23.727 10.393-65.699 19.063-121.003 19.063-55.303 0-97.276-8.67-121.003-19.064 7.301-5.067 15.967-8.993 23.979-11.921 25.495-9.318 59.951-14.449 97.023-14.449s71.528 5.131 97.023 14.449c8.014 2.928 16.68 6.855 23.981 11.922zm-251.912 8.755c29.353 14.689 81.161 22.412 130.91 22.412s101.557-7.722 130.91-22.412c4.407 5.175 7.184 11.174 7.184 18.088 0 33.033-11.908 61.084-37.475 88.278-5.404 5.747-9.109 15.929-11.329 31.129-.017.109-.03.22-.039.33-6.434 24.727-28.331 41.944-53.463 41.944h-45.068c15.033-29.064 16.342-60.187 16.404-61.993.105-3.017-2.028-5.65-5.001-6.172-2.308-.405-53.154-8.948-91.476 15.009-1.154-6.94-2.542-14.693-7.561-20.031-28.48-30.291-41.18-57.583-41.18-88.493-.001-6.916 2.776-12.915 7.184-18.089zm-12.162 135.858c9.678 7.077 16.617 14.648 21.598 21.846-4.486 6.384-7.968 12.74-10.55 18.803l-43.426-29.609c-2.761-1.883-6.527-1.17-8.409 1.591-1.883 2.762-1.171 6.527 1.591 8.409l46.175 31.483c-1.029 3.983-1.647 7.726-1.892 11.124-.289 4.008-.096 7.746.537 11.131-13.173-1.437-29.541-6.965-46.265-19.194-25.703-18.793-35.008-53.885-38.077-70.51 16.75-2.143 52.911-3.942 78.718 14.926zm294.243 111.198c-24.013 15.952-69.735 34.967-151.172 34.967s-127.158-19.015-151.171-34.967c-6.641-4.411-12.276-8.988-17.011-13.592 7.371 3.468 15.786 6.724 25.243 9.739 38.268 12.199 89.031 18.917 142.938 18.917s104.671-6.718 142.938-18.917c9.448-3.012 17.856-6.264 25.222-9.728-4.732 4.6-10.351 9.173-16.987 13.581zm95.748-161.8c-4.249 20.28-16.416 39.661-34.259 54.572-17.842 14.911-39.074 23.443-59.787 24.024-8.075.226-15.65-.797-22.539-2.951.996-3.076 1.876-6.22 2.599-9.445.066-.294.119-.591.158-.89.621-4.714 1.403-9.469 2.654-13.924 5.44 2.273 11.551 3.461 18.126 3.461.88 0 1.767-.021 2.663-.064 14.084-.667 28.484-6.586 40.548-16.668 12.063-10.082 20.446-23.202 23.604-36.944 3.297-14.352.569-27.693-7.682-37.565-6.325-7.568-15.233-12.289-25.675-13.772 1.622-6.409 2.972-12.91 4.042-19.487 18.673.102 34.572 6.919 44.972 19.362 10.885 13.026 14.642 30.887 10.576 50.291z"/><path d="m165.995 243.936c14.111 2.849 28.92 4.802 45.273 5.972.147.01.293.016.437.016 3.146 0 5.803-2.434 6.03-5.621.238-3.334-2.27-6.23-5.605-6.468-15.833-1.132-30.14-3.017-43.74-5.763-3.276-.662-6.469 1.458-7.13 4.735-.661 3.275 1.458 6.468 4.735 7.129z"/><path d="m263.212 250.596c.021 0 .041 0 .062-.001 33.201-.335 66.733-6.795 96.972-18.68 3.112-1.222 4.641-4.735 3.419-7.846-1.221-3.11-4.735-4.642-7.846-3.418-28.881 11.351-60.926 17.521-92.668 17.842-3.342.033-6.024 2.77-5.991 6.112.034 3.322 2.737 5.991 6.052 5.991z"/></g><path d="m207.41 194.078c-4.97 0-9.298-3.674-9.983-8.735-.747-5.52 3.124-10.601 8.643-11.348 17.964-2.43 35.447-2.448 51.968-.056 5.513.799 9.335 5.915 8.536 11.428-.798 5.513-5.915 9.331-11.428 8.537-14.664-2.124-30.265-2.097-46.371.082-.459.062-.915.092-1.365.092z" fill="#fff"/><path d="m177.39 200.349c-4.41 0-8.459-2.913-9.707-7.367-1.503-5.364 1.626-10.931 6.991-12.434 1.563-.438 3.13-.861 4.701-1.268 5.384-1.396 10.896 1.842 12.293 7.235s-1.843 10.897-7.236 12.293c-1.441.373-2.88.762-4.315 1.164-.91.255-1.827.377-2.727.377z" fill="#fff"/></g></g></svg>