<svg id="Capa_1" enable-background="new 0 0 512 512" height="512" viewBox="0 0 512 512" width="512" xmlns="http://www.w3.org/2000/svg"><g><g><path d="m264.005 242.206c6.919 2.712 15.077.754 19.952-5.361l137.45-172.468c5.989-7.515 4.752-18.462-2.762-24.451-7.514-5.991-18.46-4.751-24.45 2.763l-137.451 172.467c-5.989 7.515-4.752 18.462 2.763 24.451 1.398 1.114 2.916 1.979 4.498 2.599z" fill="#a07575"/><path d="m220.593 239.513c-7.315 1.314-14.936-2.194-18.527-9.141l-101.271-195.913c-4.412-8.536-1.069-19.033 7.466-23.446 8.536-4.415 19.032-1.069 23.446 7.467l101.271 195.913c4.412 8.536 1.069 19.033-7.466 23.446-1.589.821-3.246 1.374-4.919 1.674z" fill="#a07575"/><path d="m342.69 120.69c1.575-4.524 2.441-9.379 2.441-14.44 0-23.029-17.729-41.905-40.28-43.755.051-.92.082-1.844.082-2.776 0-27.431-41.624-49.668-49.669-49.668s-49.668 22.237-49.668 49.668c0 1.14.052 2.266.128 3.386-20.344 3.834-35.739 21.687-35.739 43.146 0 5.061.866 9.916 2.441 14.44-12.011 7.837-19.956 21.385-19.956 36.798 0 24.255 19.662 43.917 43.917 43.917h122.341c24.255 0 43.917-19.663 43.917-43.917 0-15.414-7.945-28.962-19.955-36.799z" fill="#fff"/><path d="m391.621 272.985c-.788 0-1.574.004-2.357.01-2.055-11.275-8.511-21.353-17.876-29 .046-.576.078-1.155.078-1.741v-55.214c0-14.216-13.918-25.74-31.088-25.74h-168.464c-17.17 0-31.088 11.524-31.088 25.74v55.215c0 .585.032 1.165.079 1.741-11.467 9.363-18.581 22.371-18.581 36.759v169.561c0 28.517 27.921 51.634 62.364 51.634h142.917c34.443 0 62.364-23.117 62.364-51.634v-9.85c.55.012 1.1.025 1.652.025 46.866 0 84.857-45.133 84.857-100.806 0-55.674-37.992-66.7-84.857-66.7zm-1.652 136.659v-105.836c29.141.165 52.596 7.375 52.596 42.151 0 34.775-23.456 63.025-52.596 63.685z" fill="#c49a8b"/><path d="m362.454 161.493c.137-1.453.204-2.926.19-4.415-.139-15.242-8.05-28.62-19.954-36.388 1.575-4.524 2.441-9.379 2.441-14.439 0-23.029-17.729-41.905-40.28-43.755.051-.92.082-1.844.082-2.776 0-27.431-41.624-49.668-49.668-49.668-6.273 0-32.958 13.519-44.411 32.479 8.853-7.07 18.606-11.464 21.736-11.464 6.168 0 38.08 17.049 38.08 38.08 0 .715-.023 1.423-.063 2.128 17.29 1.419 30.882 15.891 30.882 33.547 0 3.88-.664 7.603-1.872 11.071.044.029.088.058.132.087 5.06 3.336 2.566 11.259-3.495 11.259h-131.676c-7.557 7.938-12.183 18.69-12.108 30.534.008 1.256.082 2.495.196 3.723h209.788z" fill="#e1bdfc"/><path d="m228.296 136.365c-5.152 3.592-12.241 2.327-15.833-2.825l-14.866-21.324c-3.592-5.152-2.327-12.241 2.825-15.833 5.152-3.592 12.241-2.327 15.833 2.825l14.866 21.324c3.593 5.153 2.328 12.241-2.825 15.833z" fill="#d789b9"/><path d="m253.367 92.469c-5.439-2.66-7.691-9.225-5.032-14.663l11.008-22.508c2.66-5.439 9.225-7.691 14.663-5.032 5.439 2.66 7.691 9.225 5.032 14.663l-11.008 22.508c-2.659 5.439-9.224 7.692-14.663 5.032z" fill="#f6e06e"/><path d="m280.808 122.242c.767-5.657 5.974-9.621 11.631-8.854l23.411 3.174c5.657.767 9.621 5.974 8.854 11.631-.767 5.657-5.974 9.62-11.631 8.854l-23.411-3.174c-5.657-.768-9.621-5.975-8.854-11.631z" fill="#e8c2d8"/><path d="m371.388 243.996c.046-.576.079-1.155.079-1.741v-55.215c0-14.215-13.919-25.739-31.089-25.739h-39.498c14.06 0 25.457 9.863 25.457 22.029v17.816h-140.674c-10.688 0-19.351 8.664-19.351 19.352s8.664 19.352 19.351 19.352h140.663c-.003 1.706-.005 3.508-.009 5.284-.013 6.754 2.111 13.392 6.297 18.692 5.598 7.089 8.874 15.659 8.874 24.893v119.938c0 24.406-22.864 44.191-51.068 44.191h-117.029c-28.204 0-51.067-19.785-51.067-44.191v41.661c0 28.517 27.921 51.634 62.364 51.634h142.917c34.443 0 62.364-23.117 62.364-51.634v-169.563c0-14.388-7.114-27.396-18.581-36.759z" fill="#b2748a"/><path d="m58.313 91.136 8.284 23.294c.355.997 1.057 1.788 1.943 2.187l20.695 9.324c2.924 1.317 2.924 5.976 0 7.293l-20.695 9.324c-.886.399-1.588 1.189-1.943 2.187l-8.284 23.294c-1.17 3.291-5.309 3.291-6.48 0l-8.284-23.294c-.355-.997-1.057-1.788-1.943-2.187l-20.695-9.324c-2.924-1.317-2.924-5.976 0-7.293l20.695-9.324c.886-.399 1.588-1.189 1.943-2.187l8.284-23.294c1.171-3.291 5.31-3.291 6.48 0z" fill="#efc5b4"/><ellipse cx="475.193" cy="102.367" fill="#e8a284" rx="18.089" ry="18.089" transform="matrix(.383 -.924 .924 .383 198.77 502.214)"/><path d="m91.823 212.68c0 4.309-3.493 7.803-7.803 7.803s-7.803-3.494-7.803-7.803c0-4.31 3.493-7.803 7.803-7.803 4.309 0 7.803 3.494 7.803 7.803z" fill="#e8a284"/><path d="m452.617 175.546 6.145 17.279c.263.74.784 1.326 1.441 1.622l15.352 6.916c2.169.977 2.169 4.433 0 5.41l-15.352 6.916c-.657.296-1.178.882-1.441 1.622l-6.145 17.279c-.868 2.441-3.938 2.441-4.806 0l-6.145-17.279c-.263-.74-.784-1.326-1.441-1.622l-15.352-6.916c-2.169-.977-2.169-4.433 0-5.41l15.352-6.916c.657-.296 1.178-.882 1.441-1.622l6.145-17.279c.868-2.441 3.938-2.441 4.806 0z" fill="#efc5b4"/></g><g><g fill="#3c122c"><path d="m486.528 339.684c0-29.22-9.935-50.323-29.53-62.72-14.192-8.979-33.354-13.457-60.006-13.977-3.022-8.649-8.25-16.634-15.475-23.463v-52.484c0-8.567-3.482-16.438-9.273-22.606.295-2.275.452-4.592.452-6.946 0-6.346-1.12-12.516-3.2-18.298l56.628-71.055c8.05-10.103 6.382-24.873-3.72-32.924-4.894-3.902-11.011-5.662-17.234-4.96-6.218.703-11.789 3.786-15.692 8.68l-38.036 47.727c-6.292-15.927-19.987-28.345-36.894-32.688-2.44-16.152-14.73-29.009-25.215-37.268-10.28-8.096-25.715-16.702-34.07-16.702s-23.79 8.606-34.07 16.703c-10.794 8.502-23.501 21.879-25.405 38.705-11.32 4.021-20.773 11.664-27.126 21.429l-31.599-61.127c-2.874-5.559-7.741-9.666-13.702-11.566-5.964-1.9-12.312-1.362-17.868 1.512-11.475 5.932-15.986 20.095-10.055 31.572l51.27 99.183c-2.783 6.562-4.288 13.702-4.288 21.076 0 1.501.084 2.981.205 4.452-7.321 6.465-11.85 15.33-11.85 25.101v52.485c-11.971 11.314-18.502 25.786-18.502 41.23v169.561c0 34.013 32.485 61.684 72.414 61.684h142.917c39.93 0 72.415-27.671 72.415-61.684v-.214c48.413-4.983 86.509-52.597 86.509-110.418zm-87.619-293.236c1.894-2.375 4.598-3.871 7.616-4.213.435-.049.868-.074 1.299-.074 2.562 0 5.03.86 7.063 2.48 4.901 3.907 5.711 11.074 1.805 15.976l-53.185 66.734c-2.621-3.888-5.757-7.45-9.36-10.579.688-3.456 1.034-6.975 1.034-10.523 0-1.573-.07-3.132-.206-4.674zm-292.757-14.757c-2.878-5.569-.689-12.442 4.88-15.321 1.637-.847 3.414-1.275 5.207-1.275 1.159 0 2.325.18 3.462.542 2.893.922 5.256 2.915 6.65 5.613l35.887 69.423c-1.495 4.954-2.304 10.186-2.304 15.578 0 3.549.346 7.068 1.035 10.524-2.59 2.249-4.925 4.732-7.016 7.387zm71.766 97.416c3.868-2.524 5.518-7.36 3.999-11.722-1.249-3.588-1.882-7.334-1.882-11.134 0-16.269 11.586-30.261 27.55-33.269 5.002-.943 8.509-5.475 8.167-10.553-.073-1.07-.106-1.931-.106-2.71 0-19.107 31.898-37.707 39.618-39.544 7.72 1.836 39.618 20.436 39.618 39.544 0 .693-.022 1.419-.066 2.219-.302 5.439 3.784 10.128 9.213 10.573 17.412 1.429 31.052 16.249 31.052 33.739 0 3.8-.633 7.547-1.883 11.136-1.518 4.361.132 9.196 4 11.72 8.305 5.42 13.717 14.047 15.06 23.671-3.763-.989-7.75-1.527-11.879-1.527h-168.465c-3.075 0-6.068.304-8.952.864 1.496-9.356 6.842-17.713 14.956-23.007zm202.001 321.209c0 22.929-23.468 41.584-52.315 41.584h-142.917c-28.846 0-52.314-18.654-52.314-41.584v-169.561c0-10.846 5.287-21.135 14.887-28.974 2.562-2.091 3.931-5.309 3.661-8.605-.031-.378-.046-.679-.046-.921v-55.215c0-8.505 9.634-15.689 21.039-15.689h168.464c11.404 0 21.038 7.185 21.038 15.689v55.215c0 .241-.015.548-.046.938-.264 3.29 1.105 6.5 3.661 8.587 9.601 7.839 14.888 18.13 14.888 28.975zm20.1-140.057c26.073 2.148 36.516 12.722 36.516 35.7 0 27.18-15.6 50.009-36.516 56.082zm0 119.606v-15.394c27.616-6.096 48.576-34.485 48.576-68.512 0-37.173-25.219-46.047-48.576-47.8v-14.974c47.615 1.644 66.409 17.93 66.409 56.499 0 46.599-29.099 85.1-66.409 90.181z"/><path d="m221.817 144.433c-5.503 0-10.922-2.597-14.301-7.444l-14.866-21.324c-5.488-7.872-3.548-18.741 4.323-24.229 3.813-2.659 8.434-3.676 13.01-2.856 4.577.817 8.56 3.366 11.219 7.18l14.866 21.323c2.659 3.813 3.673 8.434 2.856 13.01s-3.366 8.56-7.179 11.219c-3.025 2.109-6.493 3.121-9.928 3.121zm-14.902-44.065c-1.083 0-2.138.329-3.044.961-2.417 1.685-3.012 5.022-1.328 7.439l14.866 21.323c1.686 2.418 5.023 3.012 7.438 1.327 1.171-.816 1.954-2.04 2.204-3.445.251-1.404-.06-2.823-.876-3.993l-14.866-21.324c-.817-1.171-2.04-1.954-3.445-2.205-.316-.055-.634-.083-.949-.083z"/><path d="m258.155 99.613c-2.503 0-5.042-.555-7.438-1.726-4.077-1.994-7.134-5.457-8.608-9.75-1.472-4.293-1.186-8.903.809-12.98l11.007-22.508c4.116-8.417 14.313-11.915 22.73-7.8 8.417 4.116 11.915 14.313 7.799 22.729l-11.007 22.509c-2.944 6.021-9 9.526-15.292 9.526zm-2.139-12.561c2.447 1.195 5.404.179 6.598-2.264l11.007-22.508c1.194-2.443.179-5.403-2.263-6.597-2.447-1.195-5.404-.179-6.599 2.263l-11.007 22.509c-.578 1.184-.661 2.521-.235 3.767.429 1.247 1.316 2.252 2.499 2.83z"/><path d="m314.496 143.173c-.741 0-1.487-.05-2.234-.151l-23.41-3.174c-8.942-1.213-15.232-9.474-14.019-18.416v-.001c1.213-8.941 9.487-15.225 18.416-14.018l23.411 3.174c4.332.587 8.177 2.827 10.824 6.305 2.648 3.479 3.783 7.78 3.195 12.112-.587 4.331-2.826 8.175-6.304 10.823-2.88 2.191-6.322 3.346-9.879 3.346zm-27.713-20.122c-.318 2.353 1.336 4.526 3.689 4.845l23.41 3.174c1.142.156 2.271-.143 3.187-.841.915-.696 1.504-1.708 1.659-2.847.154-1.14-.144-2.272-.84-3.187-.697-.915-1.708-1.505-2.848-1.659l-23.41-3.174c-2.354-.32-4.528 1.336-4.847 3.689z"/><path d="m320.944 209.678h-129.596c-3.33 0-6.03-2.7-6.03-6.03s2.7-6.03 6.03-6.03h129.597c3.33 0 6.03 2.7 6.03 6.03-.001 3.33-2.701 6.03-6.031 6.03z"/><path d="m320.944 244.016h-129.596c-3.33 0-6.03-2.7-6.03-6.03s2.7-6.03 6.03-6.03h129.597c3.33 0 6.03 2.7 6.03 6.03-.001 3.33-2.701 6.03-6.031 6.03z"/></g><path d="m164.485 369.75c-5.55 0-10.05-4.5-10.05-10.05v-8.444c0-5.551 4.5-10.05 10.05-10.05s10.05 4.5 10.05 10.05v8.444c0 5.551-4.5 10.05-10.05 10.05z" fill="#fff"/><path d="m163.878 323.814c-5.466.001-9.945-4.38-10.044-9.868-.141-7.814.218-17.987 4.286-27.378 11.674-26.953 41.859-25.048 61.829-23.788l.574.036c5.539.348 9.747 5.122 9.399 10.662-.349 5.541-5.136 9.745-10.663 9.399l-.576-.037c-20.428-1.287-36.504-1.244-42.118 11.716-2.519 5.815-2.745 12.88-2.634 19.025.101 5.55-4.316 10.13-9.867 10.231-.061.002-.124.002-.186.002z" fill="#fff"/></g></g></svg>