<svg id="Capa_1" enable-background="new 0 0 512 512" height="512" viewBox="0 0 512 512" width="512" xmlns="http://www.w3.org/2000/svg"><g><g><path d="m487.914 273.108c0-157.408-376.178-157.408-376.178 0 0 .483.015.962.018 1.444-30.178.357-56.383 9.401-63.019 27.078-15.828 42.161 15.206 89.585 62.617 103.674 18.817 5.592 37.85 5.232 54.776.087 13.702 13.848 29.54 25.575 46.979 34.653-7.515 4.274-11.783 9.612-11.783 16.105 0 20.878 44.1 45.79 98.501 45.79s98.501-24.911 98.501-45.79c0-6.493-4.268-11.831-11.783-16.105 60.233-31.352 101.371-94.337 101.371-166.936zm-369.779 101.596c-26.262-7.804-43.705-33.22-35.249-55.527 3.33-8.784 16.244-13.395 31.599-13.915 4.463 25.907 14.227 49.997 28.133 71.122-7.779 1.251-16.157.794-24.483-1.68z" fill="#fff"/><path d="m289.935 155.202c80.99 2.442 164.412 35.859 164.412 100.262 0 88.354-80.88 159.98-174.001 159.98-89.643 0-162.934-66.378-168.285-150.157-.21 2.564-.326 5.167-.326 7.82 0 103.879 84.21 188.089 188.089 188.089s188.089-84.21 188.089-188.089c.001-81.464-100.755-120.762-197.978-117.905z" fill="#e1bdfc"/><path d="m454.541 257.837c0 39.273-69.269 67.447-154.716 67.447s-154.716-28.175-154.716-67.447c0-39.273 69.269-74.772 154.716-74.772 85.448 0 154.716 35.499 154.716 74.772z" fill="#c49a8b"/><path d="m374.585 253.286c-16.428-6.971-43.064-6.971-59.493 0l-15.267 6.478-15.267-6.478c-16.429-6.971-43.064-6.971-59.493 0-16.428 6.971-16.428 18.272 0 25.243l15.267 6.478 41.85 17.757c10.766 4.568 24.519 4.568 35.285 0l41.85-17.757 15.267-6.478c16.429-6.97 16.429-18.272.001-25.243z" fill="#f4dab5"/><path d="m338.342 205.57c-8.464-4.914-22.187-4.914-30.651 0l-7.865 4.567-7.865-4.567c-8.464-4.914-22.187-4.914-30.651 0-8.464 4.914-8.464 12.882 0 17.796l7.866 4.567 21.561 12.518c5.547 3.221 12.632 3.221 18.179 0l21.561-12.518 7.866-4.567c8.463-4.915 8.463-12.882-.001-17.796z" fill="#f4dab5"/><path d="m53.527 128.533 8.265 23.239c.354.995 1.054 1.783 1.938 2.182l20.647 9.302c2.917 1.314 2.917 5.962 0 7.276l-20.647 9.302c-.884.398-1.584 1.187-1.938 2.182l-8.265 23.239c-1.168 3.283-5.297 3.283-6.465 0l-8.265-23.239c-.354-.995-1.054-1.783-1.938-2.182l-20.647-9.302c-2.917-1.314-2.917-5.962 0-7.276l20.647-9.302c.884-.398 1.584-1.187 1.938-2.182l8.265-23.239c1.168-3.283 5.297-3.283 6.465 0z" fill="#faf1a9"/><ellipse cx="114.889" cy="75.816" fill="#f6e06e" rx="18.047" ry="18.047" transform="matrix(.232 -.973 .973 .232 14.532 170.029)"/><path d="m465.954 64.915 6.131 17.238c.262.738.782 1.323 1.438 1.618l15.316 6.9c2.164.975 2.164 4.422 0 5.397l-15.316 6.9c-.656.295-1.175.88-1.438 1.618l-6.131 17.238c-.866 2.435-3.929 2.435-4.795 0l-6.131-17.238c-.262-.738-.782-1.323-1.438-1.618l-15.316-6.9c-2.164-.975-2.164-4.422 0-5.397l15.316-6.9c.656-.296 1.175-.88 1.438-1.618l6.131-17.238c.866-2.435 3.929-2.435 4.795 0z" fill="#faf1a9"/></g><g fill="#3c122c"><path d="m497.976 273.107c0-40.336-22.109-73.992-63.937-97.328-35.586-19.855-83.251-30.789-134.213-30.789s-98.627 10.934-134.213 30.789c-38.956 21.734-60.798 52.422-63.615 89.118-11.724.849-22.785 3.007-32.361 6.595-15.481 5.802-25.965 15-30.32 26.601-7.602 20.251-6.122 42.802 4.169 63.499 12.435 25.01 36.734 44.955 65.001 53.356 10.22 3.037 20.506 4.479 30.56 4.479 8.29 0 16.411-1.001 24.207-2.882 9.952 9.48 20.892 17.929 32.638 25.195-2.972 4.138-4.628 8.908-4.628 14.409 0 14.402 12.554 28.886 34.443 39.738 20.957 10.39 47.28 16.112 74.119 16.112s53.163-5.722 74.12-16.112c21.889-10.852 34.443-25.336 34.443-39.738 0-5.501-1.658-10.27-4.629-14.409 56.493-34.946 94.216-97.463 94.216-168.633zm-370.64 97.428c-2.499-.35-5-.881-7.482-1.618-13.062-3.881-24.126-12.794-29.596-23.841-2.774-5.601-5.324-14.27-1.727-23.759 1.33-3.509 5.591-5.751 8.931-7.013 2.441-.922 5.173-1.618 8.091-2.12 4.178 20.806 11.627 40.441 21.783 58.351zm-13.118 25.125c-23.013-6.839-42.72-22.923-52.715-43.025-7.778-15.644-8.967-32.502-3.349-47.468 2.846-7.581 11.655-12.249 18.544-14.831 7.442-2.789 16.097-4.525 25.346-5.303.306 5.13.809 10.208 1.499 15.227-3.695.639-7.178 1.552-10.351 2.751-8.121 3.069-13.637 7.92-15.952 14.027-4.01 10.578-3.23 22.438 2.197 33.397 6.933 14.001 20.756 25.237 36.977 30.057 5.885 1.749 11.879 2.617 17.784 2.617.294 0 .587-.017.881-.022 3.672 5.483 7.604 10.776 11.79 15.854-10.573.98-21.655-.015-32.651-3.281zm274.047 60.49c0 4.902-7.278 13.787-23.258 21.709-17.969 8.909-41.727 14.019-65.182 14.019s-47.212-5.11-65.181-14.019c-15.98-7.923-23.258-16.807-23.258-21.709 0-1.426.833-2.953 2.527-4.503 26.003 12.563 55.15 19.611 85.912 19.611 30.759 0 59.902-7.045 85.903-19.606 1.691 1.547 2.537 3.073 2.537 4.498zm-88.44-5.015c-98.165 0-178.028-79.863-178.028-178.028 0-41.194 29.158-66.109 53.618-79.756 32.64-18.21 76.822-28.239 124.41-28.239 47.587 0 91.769 10.029 124.409 28.239 24.461 13.647 53.618 38.562 53.618 79.756.001 98.165-79.862 178.028-178.027 178.028z"/><path d="m299.824 432.252c-3.305 0-6.001-2.662-6.035-5.974-.034-3.334 2.64-6.064 5.974-6.099 23.72-.245 47.497-6.322 66.952-17.112 2.915-1.617 6.59-.565 8.207 2.351s.565 6.59-2.351 8.207c-21.179 11.747-46.992 18.362-72.683 18.627-.022 0-.043 0-.064 0z"/><path d="m397.815 394.171c-1.633 0-3.261-.659-4.452-1.958-2.253-2.458-2.086-6.276.371-8.53 4.255-3.899 8.311-8.107 12.056-12.505 2.162-2.537 5.972-2.843 8.51-.683 2.538 2.161 2.844 5.971.683 8.51-4.066 4.776-8.47 9.344-13.09 13.579-1.159 1.062-2.62 1.587-4.078 1.587z"/><path d="m299.825 331.321c-42.65 0-82.344-6.919-111.771-19.481-31.586-13.484-48.982-32.663-48.982-54.003 0-21.642 17.29-42.073 48.686-57.529 30.492-15.012 70.292-23.279 112.067-23.279s81.575 8.268 112.067 23.279c31.395 15.456 48.686 35.887 48.686 57.529 0 21.34-17.396 40.518-48.982 54.003-29.427 12.562-69.121 19.481-111.771 19.481zm0-142.22c-87.619 0-148.679 36.225-148.679 68.735 0 16.198 14.791 31.433 41.649 42.898 27.962 11.937 65.972 18.512 107.03 18.512s79.068-6.574 107.031-18.512c26.857-11.466 41.649-26.701 41.649-42.898 0-32.51-61.061-68.735-148.68-68.735z"/><path d="m204.923 124.447c-1.71.001-3.443-.436-5.03-1.354-4.81-2.783-6.452-8.938-3.669-13.747.077-.135 8.708-15.36 8.708-29.737 0-5.993-1.463-8.521-3.678-12.349-2.844-4.915-6.384-11.032-6.384-22.427 0-19.858 10.948-39.005 11.414-39.81 2.783-4.81 8.939-6.451 13.748-3.669 4.804 2.78 6.448 8.925 3.678 13.733-.146.255-8.717 15.423-8.717 29.747 0 5.993 1.463 8.521 3.678 12.349 2.844 4.915 6.384 11.032 6.384 22.427 0 19.86-10.948 39.009-11.414 39.815-1.865 3.221-5.244 5.022-8.718 5.022z"/><path d="m365.904 124.447c-1.71.001-3.443-.436-5.03-1.354-4.81-2.783-6.452-8.938-3.669-13.747.077-.135 8.708-15.36 8.708-29.737 0-5.993-1.463-8.521-3.678-12.349-2.844-4.915-6.384-11.032-6.384-22.427 0-19.858 10.949-39.005 11.414-39.81 2.783-4.81 8.938-6.451 13.748-3.669 4.804 2.78 6.448 8.925 3.678 13.733-.146.255-8.717 15.423-8.717 29.747 0 5.993 1.463 8.521 3.678 12.349 2.844 4.915 6.384 11.032 6.384 22.427 0 19.86-10.948 39.009-11.414 39.815-1.865 3.221-5.244 5.022-8.718 5.022z"/><path d="m285.414 124.447c-1.71.001-3.443-.436-5.03-1.354-4.81-2.783-6.452-8.938-3.669-13.747.077-.135 8.708-15.36 8.708-29.737 0-5.993-1.463-8.521-3.678-12.349-2.844-4.915-6.384-11.032-6.384-22.427 0-19.858 10.949-39.005 11.414-39.81 2.784-4.81 8.939-6.451 13.748-3.669 4.804 2.78 6.448 8.925 3.678 13.733-.146.255-8.717 15.423-8.717 29.747 0 5.993 1.463 8.521 3.678 12.349 2.844 4.915 6.384 11.032 6.384 22.427 0 19.86-10.948 39.009-11.414 39.815-1.866 3.221-5.245 5.022-8.718 5.022z"/></g></g></svg>