<svg id="Capa_1" enable-background="new 0 0 512 512" height="512" viewBox="0 0 512 512" width="512" xmlns="http://www.w3.org/2000/svg"><g><g><path d="m139.703 105.009 26.376 339.178c3.555 32.856 31.293 57.755 64.341 57.755h74.671c33.191 0 61.001-25.109 64.38-58.128l25.401-338.891c.89-8.699-5.936-16.26-14.681-16.26h-225.816c-8.778.001-15.616 7.618-14.672 16.346z" fill="#c1e5ef"/><path d="m249.378 446.528c-1.248 0-2.515-.16-3.778-.495-7.859-2.081-12.544-10.139-10.462-17.999l108.847-411.038c2.08-7.859 10.139-12.544 17.999-10.462 7.859 2.081 12.544 10.139 10.462 17.999l-108.848 411.039c-1.746 6.596-7.704 10.956-14.22 10.956z" fill="#f6e06e"/><path d="m176.878 158.739 17.551 263.351c2.559 27.6 22.528 48.515 46.318 48.515h53.754c23.893 0 43.914-21.092 46.346-48.828l16.896-263.038z" fill="#a1e8c3"/><path d="m182.477 242.764 11.951 179.325c2.559 27.6 22.528 48.515 46.318 48.515h53.754c23.893 0 43.914-21.092 46.346-48.828l11.498-179.013h-169.867z" fill="#fff"/><g fill="#9781dd"><circle cx="230.547" cy="440.003" r="22.689"/><ellipse cx="312.315" cy="380.496" rx="22.689" ry="22.689" transform="matrix(.23 -.973 .973 .23 -129.758 597.036)"/><circle cx="306.321" cy="438.718" r="22.689"/><ellipse cx="223.269" cy="380.496" rx="22.689" ry="22.69" transform="matrix(.16 -.987 .987 .16 -188.078 539.934)"/><ellipse cx="310.275" cy="312.099" rx="22.69" ry="22.689" transform="matrix(.29 -.957 .957 .29 -78.345 518.619)"/><ellipse cx="246.93" cy="337.517" rx="22.689" ry="22.689" transform="matrix(.707 -.707 .707 .707 -166.337 273.462)"/><ellipse cx="267.364" cy="405.326" rx="22.69" ry="22.69" transform="matrix(.707 -.707 .707 .707 -208.3 307.772)"/></g><path d="m380.191 88.664h-46.119c7.068 0 12.586 6.464 11.867 13.901l-18.591 262.346c12.513 8.463 6.696 24.561-3.015 34.174-5.385 24.805-26.336 42.901-50.964 42.901h-60.356c-23.572 0-43.793-16.581-50.198-39.781l3.265 41.981c3.554 32.856 31.293 57.756 64.341 57.756h74.671c33.191 0 61.001-25.109 64.38-58.128l25.401-338.891c.889-8.698-5.937-16.259-14.682-16.259z" fill="#a6aaed"/><path d="m336.004 242.764-8.606 121.447c9.359 10.22 8.756 28.891-3.376 36.255-5.85 24.094-26.483 41.521-50.652 41.521h-60.356c-4.914 0-9.678-.73-14.206-2.081 7.586 18.297 23.625 30.698 41.939 30.698h53.754c23.893 0 43.914-21.092 46.346-48.828l11.498-179.013h-16.341z" fill="#e1bdfc"/><path d="m213.013 441.987c-1.715 0-3.41-.098-5.085-.27.877 11.729 10.665 20.975 22.618 20.975 11.862 0 21.592-9.104 22.598-20.705z" fill="#8962de"/><path d="m306.321 461.408c12.531 0 22.689-10.158 22.689-22.69 0-8.962-5.197-16.708-12.741-20.395-7.593 11.491-19.182 19.717-32.532 22.563 1.092 11.514 10.785 20.522 22.584 20.522z" fill="#8962de"/><path d="m352.462 240.947 5.28-82.209h-15.783l-5.826 82.209z" fill="#85adc2"/><path d="m79.476 150.427 6.128 17.232c.262.738.782 1.322 1.437 1.618l15.31 6.898c2.163.974 2.163 4.421 0 5.395l-15.31 6.898c-.655.295-1.175.88-1.437 1.618l-6.128 17.232c-.866 2.434-3.928 2.434-4.793 0l-6.128-17.232c-.262-.738-.782-1.322-1.437-1.618l-15.31-6.898c-2.163-.975-2.163-4.421 0-5.395l15.31-6.898c.655-.295 1.175-.88 1.437-1.618l6.128-17.232c.866-2.435 3.928-2.435 4.793 0z" fill="#c2b2eb"/><ellipse cx="481.085" cy="124.899" fill="#9781dd" rx="18.039" ry="18.039" transform="matrix(.189 -.982 .982 .189 267.463 573.684)"/><circle cx="186.435" cy="35.176" fill="#9781dd" r="7.782"/><path d="m52.362 5.043 8.261 23.23c.354.995 1.054 1.783 1.938 2.181l20.639 9.299c2.916 1.314 2.916 5.959 0 7.273l-20.639 9.299c-.884.398-1.584 1.186-1.938 2.181l-8.261 23.23c-1.167 3.282-5.295 3.282-6.462 0l-8.261-23.23c-.354-.995-1.054-1.783-1.938-2.181l-20.639-9.299c-2.916-1.314-2.916-5.959 0-7.273l20.639-9.299c.884-.398 1.584-1.186 1.938-2.181l8.261-23.23c1.167-3.281 5.295-3.281 6.462 0z" fill="#c2b2eb"/></g><g><path d="m398.61 86.793c-4.697-5.202-11.41-8.186-18.418-8.186h-15.823l13.91-52.528c1.42-5.359.667-10.95-2.118-15.744-2.786-4.793-7.273-8.214-12.632-9.633-5.359-1.421-10.951-.667-15.744 2.118-4.794 2.786-8.215 7.273-9.633 12.632l-16.724 63.155h-167.053c-7.036 0-13.767 3.003-18.466 8.239-4.662 5.194-6.925 12.138-6.221 19.077l26.365 339.044c.008.101.017.201.027.302 4.117 38.043 36.076 66.73 74.341 66.73h74.67c38.489 0 70.467-28.873 74.385-67.161.009-.09.017-.181.024-.272l25.392-338.769c.665-6.922-1.62-13.84-6.282-19.004zm-48.793-68.253c.594-2.242 2.026-4.12 4.032-5.286 1.344-.781 2.836-1.18 4.35-1.18.746 0 1.499.096 2.239.293 2.243.594 4.121 2.026 5.287 4.033 1.166 2.006 1.481 4.345.887 6.588l-14.728 55.618h-17.973zm-21.232 80.181h17.973l-14.295 53.983h-17.973zm-88.661 281.775c0 9.184-7.471 16.655-16.655 16.655s-16.655-7.471-16.655-16.655c0-9.183 7.471-16.654 16.655-16.654 9.184-.001 16.655 7.471 16.655 16.654zm-9.649-42.978c0-9.184 7.471-16.655 16.655-16.655s16.655 7.471 16.655 16.655c0 9.183-7.471 16.654-16.655 16.654s-16.655-7.471-16.655-16.654zm-7.006 71.702c5.658 0 10.934-1.651 15.386-4.487-.004.198-.015.394-.015.594 0 2.569.344 5.058.979 7.428-2.854-.953-5.902-1.477-9.072-1.477-13.412 0-24.704 9.242-27.85 21.69-1.109-3.595-1.881-7.397-2.253-11.36l-1.75-26.257c5.04 8.307 14.17 13.869 24.575 13.869zm7.278 14.127c9.184 0 16.655 7.471 16.655 16.655s-7.471 16.655-16.655 16.655-16.655-7.471-16.655-16.655c-.001-9.184 7.471-16.655 16.655-16.655zm28.724 16.655c0-2.569-.344-5.058-.98-7.43 2.854.953 5.902 1.477 9.073 1.477 3.924 0 7.665-.793 11.076-2.224-.546 2.209-.841 4.517-.841 6.892 0 11.357 6.626 21.193 16.213 25.852h-48.395c8.298-5.041 13.854-14.167 13.854-24.567zm-8.563-34.675c0-9.184 7.471-16.655 16.655-16.655s16.655 7.471 16.655 16.655c0 9.183-7.471 16.654-16.655 16.654-9.183 0-16.655-7.471-16.655-16.654zm38.958 33.391c0-9.183 7.471-16.654 16.654-16.654 9.184 0 16.655 7.471 16.655 16.654 0 9.184-7.471 16.655-16.655 16.655-9.182 0-16.654-7.471-16.654-16.655zm16.655-28.723c-3.923 0-7.664.793-11.074 2.223.546-2.209.841-4.516.841-6.891 0-.391-.014-.779-.029-1.167 4.626 3.188 10.226 5.06 16.257 5.06 10.115 0 19.019-5.26 24.138-13.184l-1.624 25.281c-.249 2.8-.702 5.517-1.324 8.142-3.864-11.308-14.586-19.464-27.185-19.464zm-10.662-29.499c0-9.183 7.471-16.654 16.655-16.654s16.655 7.471 16.655 16.654c0 9.184-7.471 16.655-16.655 16.655-9.183 0-16.655-7.471-16.655-16.655zm16.656-28.723c-15.838 0-28.724 12.885-28.724 28.723 0 .391.014.779.03 1.167-4.626-3.188-10.226-5.06-16.257-5.06-5.658 0-10.934 1.651-15.386 4.487.004-.198.015-.394.015-.594 0-5.199-1.396-10.075-3.821-14.286 15.264-.653 27.482-13.27 27.482-28.692 0-15.838-12.886-28.724-28.724-28.724s-28.724 12.886-28.724 28.724c0 5.199 1.396 10.075 3.821 14.286-11.231.481-20.808 7.439-25.087 17.226l-8.013-120.232h156.983l-7.667 119.349c-4.625-9.675-14.508-16.374-25.928-16.374zm-124.192-115.044-4.795-71.956h167.981l-4.622 71.956zm196.743-132.829c-.009.09-.017.182-.023.273l-25.391 338.749c-2.924 27.922-26.271 48.963-54.361 48.963h-74.67c-27.922 0-51.251-20.898-54.327-48.634l-26.364-339.022c-.008-.101-.017-.202-.027-.302-.197-1.814.651-3.062 1.175-3.645.523-.582 1.673-1.561 3.497-1.561h161.726l-14.295 53.983h-124.928c-1.67 0-3.266.692-4.407 1.911-1.14 1.22-1.725 2.858-1.614 4.525l17.55 263.35c.003.052.007.103.012.155 2.855 30.781 25.35 53.993 52.327 53.993h53.754c27.133 0 49.641-23.359 52.357-54.335.005-.047.008-.094.011-.141l16.896-263.038c.107-1.665-.479-3.298-1.62-4.515-1.141-1.216-2.734-1.906-4.402-1.906h-12.996l14.295-53.983h21.15c1.817 0 2.965.971 3.489 1.551.522.579 1.372 1.821 1.186 3.629z" fill="#3c122c"/><path d="m310.275 283.375c-15.838 0-28.723 12.886-28.723 28.724s12.885 28.724 28.723 28.724 28.724-12.886 28.724-28.724c0-15.839-12.886-28.724-28.724-28.724zm0 45.379c-9.183 0-16.654-7.471-16.654-16.655s7.471-16.655 16.654-16.655c9.184 0 16.655 7.471 16.655 16.655s-7.471 16.655-16.655 16.655z" fill="#3c122c"/><path d="m261.617 131.24c-.074 0-.147-.001-.222-.002-15.016-.326-29.986-.357-44.495-.093-5.536.118-10.138-4.32-10.238-9.873-.101-5.553 4.318-10.138 9.873-10.238 14.773-.27 30.016-.237 45.297.093 5.553.121 9.957 4.72 9.837 10.273-.119 5.479-4.598 9.84-10.052 9.84z" fill="#fff"/><path d="m181.022 131.24h-11.332c-5.554 0-10.057-4.503-10.057-10.057s4.503-10.057 10.057-10.057h11.332c5.554 0 10.057 4.503 10.057 10.057s-4.503 10.057-10.057 10.057z" fill="#fff"/><g fill="#3c122c"><path d="m289.645 226.535c-3.332 0-6.034-2.702-6.034-6.034v-14.126c0-3.332 2.702-6.034 6.034-6.034s6.034 2.702 6.034 6.034v14.125c0 3.333-2.702 6.035-6.034 6.035z"/><path d="m319.099 218.46c-3.332 0-6.034-2.702-6.034-6.034v-14.126c0-3.332 2.702-6.034 6.034-6.034s6.034 2.702 6.034 6.034v14.126c0 3.332-2.702 6.034-6.034 6.034z"/></g></g></g></svg>