<svg id="Capa_1" enable-background="new 0 0 512 512" height="512" viewBox="0 0 512 512" width="512" xmlns="http://www.w3.org/2000/svg"><g><g><path d="m331.891 501.914h-161.169c-20.509 0-37.466-15.981-38.681-36.454l-18.856-317.857h276.242l-18.856 317.857c-1.214 20.473-18.171 36.454-38.68 36.454z" fill="#f4dab5"/><path d="m346.955 182.651c-4.585 15.893-9.131 31.796-13.677 47.7l-10.655 188.072c-.988 17.443-14.786 31.06-31.475 31.06h-131.145c-14.365 0-26.579-10.091-30.335-24.025l2.373 40.001c1.215 20.473 18.172 36.454 38.681 36.454h161.169c20.509 0 37.466-15.981 38.681-36.454l16.777-282.809z" fill="#dba2b3"/><path d="m244.636 44.645s-44.648 15.503-60.606 50.911c-1.213-1.162-2.459-2.317-3.779-3.45-30.389-26.102-79.35-18.942-79.35-18.942s.309 49.481 30.698 75.584c21.108 18.13 43.724 23.68 58.376 21.659.669.37 1.346.686 2.032.912 13.214 4.338 45.32-8.276 60.247-45.451 14.927-37.176-7.618-81.223-7.618-81.223z" fill="#a1e8c3"/><g fill="#9781dd"><path d="m376.864 6.576c-8.239-2.183-16.688 2.728-18.868 10.967l-30.532 115.297h31.927l28.44-107.397c2.182-8.238-2.729-16.685-10.967-18.867z"/><path d="m323.184 269.568 23.233-87.734h-31.927l-27.019 102.033c1.331 1.007 2.656 2.024 3.982 3.039 10.05-6.736 20.743-12.329 31.731-17.338z"/><path d="m288.814 369.372c-7.872 4.439-16.943 6.007-24.805 3.094l-20.113 75.954c-2.182 8.239 2.728 16.686 10.967 18.868 1.324.351 2.653.519 3.96.519 6.831 0 13.077-4.571 14.907-11.485l25.048-94.59c-2.973 2.959-6.278 5.562-9.964 7.64z"/></g><path d="m233.254 434.9c-10.432 9.199-43.266 2.394-67.766-29.302s-14.822-80.222-14.822-80.222 49.399 2.862 73.899 34.557c24.5 31.696 19.121 65.769 8.689 74.967z" fill="#ccf3e2"/><path d="m263.753 355.102c-9.665-10.002-4.363-43.112 26.182-69.031 30.546-25.919 79.463-18.463 79.463-18.463s-.607 49.478-31.152 75.397c-30.546 25.919-64.828 22.098-74.493 12.097z" fill="#ccf3e2"/><path d="m231.55 452.402-39.285 22.681c-8.725 5.037-19.881 2.048-24.919-6.677l-21.964-38.042c-5.037-8.725-2.048-19.881 6.677-24.918l39.285-22.681c8.725-5.037 19.881-2.048 24.918 6.677l21.964 38.042c5.038 8.724 2.049 19.88-6.676 24.918z" fill="#fff"/><path d="m192.401 475.005 39.014-22.525c1.454-.839 2.733-1.86 3.86-2.997h-75.271c-1.257 0-2.496-.082-3.716-.232l10.98 19.019c5.081 8.8 16.333 11.815 25.133 6.735z" fill="#e1bdfc"/><path d="m334.83 351.116c31.986 28.149 35.095 76.898 6.946 108.884-28.149 31.985-76.898 35.095-108.884 6.946z" fill="#a1e8c3"/><path d="m334.83 351.116-8.971 10.194-3.236 57.114c-.988 17.443-14.786 31.06-31.475 31.06h-42.887l-15.368 17.463c31.986 28.15 80.734 25.039 108.884-6.946 28.149-31.986 25.039-80.736-6.947-108.885z" fill="#85adc2"/><path d="m317.83 370.434c21.317 18.76 23.389 51.249 4.629 72.566s-51.249 23.389-72.566 4.629z" fill="#f6e06e"/><path d="m324.91 378.054-2.287 40.37c-.988 17.443-14.786 31.06-31.475 31.06h-39.017c21.297 16.735 52.212 14.101 70.328-6.484 16.418-18.656 16.88-45.868 2.451-64.946z" fill="#dda86a"/><ellipse cx="196.695" cy="275.244" fill="#a1e8c3" rx="67.476" ry="67.476"/><ellipse cx="196.706" cy="275.246" fill="#f6e06e" rx="44.008" ry="44.008"/><path d="m261.906 369.876-37.701-31.503c-7.731-6.46-8.761-17.964-2.301-25.695l30.54-36.548c6.46-7.731 17.964-8.761 25.695-2.301l37.701 31.503c7.731 6.46 8.761 17.964 2.301 25.695l-30.54 36.548c-6.46 7.731-17.964 8.761-25.695 2.301z" fill="#fff"/><path d="m378.86 182.134h-255.108c-13.298 0-24.079-10.78-24.079-24.079v-1.386c0-13.298 10.78-24.079 24.079-24.079h255.108c13.298 0 24.079 10.78 24.079 24.079v1.386c0 13.299-10.78 24.079-24.079 24.079z" fill="#fff"/><path d="m331.124 268.374-4.711 83.152c3.966-2.389 7.93-5.209 11.833-8.521 30.546-25.919 31.152-75.397 31.152-75.397s-17.598-2.68-38.274.766z" fill="#b1b6e1"/><path d="m458.201 60.074 8.451 23.762c.362 1.017 1.078 1.824 1.982 2.231l21.112 9.512c2.983 1.344 2.983 6.096 0 7.44l-21.112 9.512c-.904.407-1.62 1.214-1.982 2.231l-8.451 23.762c-1.194 3.357-5.416 3.357-6.61 0l-8.451-23.762c-.362-1.017-1.078-1.824-1.982-2.231l-21.112-9.512c-2.983-1.344-2.983-6.096 0-7.44l21.112-9.512c.904-.407 1.62-1.214 1.982-2.231l8.451-23.762c1.194-3.357 5.416-3.357 6.61 0z" fill="#cdf4e3"/><ellipse cx="158.394" cy="19.116" fill="#a2e9c4" rx="18.453" ry="18.453"/><circle cx="483.509" cy="209.322" fill="#a2e9c4" r="7.96"/><path d="m49.979 177.455 6.269 17.626c.268.755.8 1.353 1.47 1.655l15.66 7.056c2.212.997 2.212 4.522 0 5.519l-15.66 7.056c-.67.302-1.202.9-1.47 1.655l-6.269 17.626c-.886 2.49-4.018 2.49-4.903 0l-6.269-17.626c-.268-.755-.8-1.353-1.47-1.655l-15.66-7.056c-2.212-.997-2.212-4.522 0-5.519l15.66-7.056c.67-.302 1.202-.9 1.47-1.655l6.269-17.626c.885-2.491 4.017-2.491 4.903 0z" fill="#cdf4e3"/></g><g><path d="m378.653 122.505h-10.265l25.293-95.513c3.033-11.451-3.817-23.234-15.268-26.266-5.546-1.471-11.335-.692-16.296 2.193-4.961 2.884-8.503 7.527-9.971 13.074l-28.205 106.512h-64.082c11.685-37.838-8.91-78.809-9.836-80.618-1.374-2.687-4.518-3.951-7.371-2.96-1.837.638-41.48 14.726-60.425 46.966-32.143-25.678-80.136-19.02-82.202-18.717-2.986.437-5.195 3.008-5.176 6.026.01 1.542.382 28.326 12.717 53.47-10.701 5.831-17.98 17.184-17.98 30.204v.972c0 12.121 6.313 22.789 15.817 28.91l16.569 279.299c1.529 25.763 22.942 45.943 48.75 45.943h161.169c25.808 0 47.22-20.18 48.748-45.942l16.569-279.299c9.504-6.121 15.817-16.789 15.817-28.91v-.972c0-18.953-15.419-34.372-34.372-34.372zm-14.808-103.414c.641-2.422 2.188-4.449 4.353-5.708 1.451-.843 3.063-1.274 4.697-1.274.807 0 1.618.105 2.418.317 5.001 1.324 7.991 6.469 6.667 11.468l-26.113 98.611h-19.407zm-122.338 33.346c4.991 11.988 15.709 43.194 5.546 70.068h-28.361l9.919-24.423c1.258-3.097-.233-6.626-3.33-7.884s-6.626.233-7.884 3.33l-11.769 28.977h-23.067c.965-6.902 2.869-14.367 6.016-22.205 10.891-27.12 40.876-42.586 52.93-47.863zm-134.236 26.198c13.137-.878 46.872-.978 69.037 18.061.175.15.339.303.512.454-3.441 8.896-5.47 17.428-6.422 25.355h-4.474l-19.591-16.963c-2.526-2.187-6.348-1.913-8.536.614-2.188 2.526-1.913 6.349.614 8.536l9.023 7.813h-23.474c-1.602 0-3.176.119-4.72.332-8.625-16.838-11.208-35.244-11.969-44.202zm18.665 113.585h179.543l-20.939 79.072-2.4-2.006c-3.785-3.163-8.255-4.978-12.824-5.508-5.525-35.115-35.972-62.063-72.615-62.063-30.252 0-56.287 18.368-67.56 44.534zm95.647 194.332c-3.266-5.656-8.538-9.701-14.846-11.392-3.819-1.024-7.74-1.103-11.494-.287l-6.608-8.619c-2.033-2.652-5.832-3.154-8.484-1.121-2.652 2.034-3.154 5.832-1.121 8.484l4.927 6.426-20.077 11.591c-9.805-19.605-9.599-42.874-8.488-55.598 11.783 8.032 26.006 12.737 41.311 12.737 2.124 0 4.225-.093 6.303-.271 6.221 4.034 12.034 9 16.774 15.132 13.209 17.089 16.79 34.565 16.013 47.526zm6.806 60.687-39.014 22.524c-5.896 3.404-13.462 1.376-16.866-4.519l-21.807-37.77c-3.404-5.896-1.377-13.462 4.519-16.866l39.014-22.525c1.902-1.098 4.014-1.659 6.153-1.659 1.072 0 2.152.141 3.215.426 3.186.853 5.848 2.897 7.497 5.753l21.807 37.77c3.405 5.896 1.378 13.462-4.518 16.866zm54.668-83.664c-2.115 2.531-5.088 4.087-8.373 4.381-3.275.29-6.487-.708-9.017-2.823l-37.461-31.302c-2.531-2.115-4.087-5.089-4.381-8.373-.294-3.285.708-6.487 2.823-9.018l30.34-36.308c2.115-2.53 5.089-4.086 8.374-4.38.375-.034.75-.05 1.122-.05 2.886 0 5.655 1 7.895 2.873l37.461 31.303c2.53 2.115 4.087 5.088 4.38 8.373.294 3.284-.708 6.487-2.823 9.018zm20.556 3.539c3.819-.812 7.96-1.995 12.315-3.679l-16.222 18.434zm-82.771-62.601c-6.565 5.425-14.979 8.688-24.14 8.688-20.929 0-37.956-17.027-37.956-37.956s17.027-37.956 37.956-37.956 37.956 17.027 37.956 37.956c0 6.737-1.772 13.063-4.862 18.554zm26.859-32.143-.984 1.177c-.9-26.818-22.983-48.361-50.016-48.361-27.602 0-50.059 22.456-50.059 50.059 0 27.602 22.457 50.059 50.059 50.059 5.23 0 10.268-.822 15.007-2.323-.064 1.175-.045 2.362.062 3.555.242 2.704.922 5.298 1.987 7.711-5.417 1.573-11.138 2.424-17.056 2.424-33.871 0-61.426-27.556-61.426-61.426 0-33.871 27.556-61.426 61.426-61.426 30.511 0 55.88 22.367 60.615 51.562-3.621 1.453-6.944 3.791-9.615 6.989zm-18.347 83.863c-3.148-4.073-6.66-7.695-10.4-10.922.983-.314 1.957-.646 2.921-1l35.479 29.647-9.283 35.055c.02-1.104.022-2.217-.013-3.343-.364-11.984-3.904-30.29-18.704-49.437zm39.042 23.307c1.68.363 3.398.57 5.145.57.738 0 1.479-.033 2.223-.1 4.979-.446 9.594-2.36 13.364-5.478l-7.332 27.687-27.758 31.541zm49.925-.504c14.81 16.993 15.134 42.81-.156 60.185-8.064 9.163-19.214 14.636-31.394 15.413-10.146.646-19.986-2.038-28.287-7.607zm-11.128-25.441.011-.04 15.482-18.527c4.187-5.011 6.173-11.353 5.59-17.858-.21-2.344-.749-4.606-1.581-6.739l3.602-3.032c2.557-2.153 2.885-5.97.732-8.527-2.152-2.558-5.969-2.885-8.527-.733l-2.905 2.446-18.267-15.265c21.764-13.437 49.937-13.134 61.667-12.279-1.194 13.109-6.383 46.444-28.664 65.35-9.081 7.703-18.415 12.489-27.14 15.204zm-10.893-79.43 21.7-81.945h19.407l-19.278 72.798c-7.369 2.059-14.817 5-21.829 9.147zm-163.26 37.802c3.125 5.396 6.906 10.362 11.249 14.781-1.491 9.479-5.32 42.914 9.077 70.956l-4.196 2.423c-4.735 2.734-8.21 6.824-10.218 11.499zm37.682 179.861c-15.148 0-27.716-11.845-28.612-26.965l-1.856-31.279 21.773 37.712c4.523 7.835 12.759 12.22 21.215 12.22 4.145 0 8.343-1.053 12.184-3.271l35.984-20.775-3.061 3.478c-2.208 2.509-1.964 6.333.545 8.541 13.248 11.66 29.474 18.656 46.7 20.339zm70.878-25.616 8.833-10.036c9.758 6.946 21.313 10.658 33.347 10.657 1.249 0 2.504-.04 3.762-.12 15.407-.983 29.509-7.907 39.708-19.496 19.705-22.391 18.921-55.876-.871-77.337l8.827-10.03c25.275 26.349 26.58 68.254 2.027 96.153-12.546 14.256-29.893 22.773-48.846 23.982-16.916 1.083-33.32-3.785-46.787-13.773zm118.903-1.349c-.897 15.12-13.465 26.965-28.612 26.965h-40.072c21.136-2.015 40.408-11.818 54.5-27.83 7.143-8.117 12.393-17.254 15.829-26.865zm4.413-74.378c-3.538-15.558-11.554-30.224-23.917-41.9.387-.319.775-.636 1.162-.965 15.363-13.036 23.634-31.289 28.09-47.07zm7.596-128.053c-.66-.398-1.399-.685-2.202-.807-1.22-.185-18.393-2.679-38.904.531l18.52-69.936h26.751zm20.341-104.584c0 7.83-6.37 14.2-14.2 14.2h-254.694c-7.83 0-14.2-6.37-14.2-14.2v-.972c0-7.83 6.37-14.2 14.2-14.2h254.694c7.83 0 14.2 6.37 14.2 14.2z" fill="#3c122c"/><g fill="#fff"><path d="m158.4 327.355c-5.08 0-9.45-3.827-10.014-8.993-.993-9.1-1.208-17.936-1.417-26.481-.203-8.318-.395-16.174-1.25-24.171-.593-5.539 3.417-10.509 8.955-11.102 5.536-.591 10.509 3.416 11.102 8.955.944 8.822 1.155 17.467 1.359 25.826.207 8.501.403 16.531 1.303 24.784.604 5.537-3.395 10.516-8.932 11.121-.371.041-.74.061-1.106.061z"/><path d="m154.123 245.996c-5.327 0-9.78-4.174-10.064-9.556l-.953-18.108c-.293-5.562 3.98-10.309 9.542-10.602 5.547-.292 10.309 3.979 10.602 9.542l.953 18.106c.293 5.562-3.979 10.31-9.541 10.603-.181.011-.361.015-.539.015z"/></g></g></g></svg>