<svg id="Capa_1" enable-background="new 0 0 512 512" height="512" viewBox="0 0 512 512" width="512" xmlns="http://www.w3.org/2000/svg"><g><g><path d="m384.76 64.189h-26.047c-1.811-20.442-18.97-36.473-39.883-36.473h-58.366c-9.929-10.845-24.199-17.649-40.061-17.649-29.931 0-54.202 24.215-54.301 54.122h-20.526c-9.298 0-16.54 8.068-15.54 17.312l27.938 359.256c3.765 34.801 33.146 61.175 68.15 61.175h79.091c35.156 0 64.612-26.596 68.191-61.569l26.904-358.951c.943-9.214-6.288-17.223-15.55-17.223z" fill="#fff"/><path d="m176.903 209.639h174.475v94.322h-174.475z" fill="#a07575"/><path d="m343.003 416.322c0 28.522-14.747 50.249-43.27 50.249h-65.951c-31.413 0-46.41-19.533-46.41-50.947l-10.468-110.268h174.475z" fill="#f4dab5"/><path d="m327.847 112.554-5.511 91.621h38.049l5.922-89.943c.7-7.781-4.664-14.544-11.536-14.544h-36.247c5.553-.001 9.888 5.983 9.323 12.866z" fill="#e1bdfc"/><path d="m354.103 299.561 5.618-85.319h-37.991l-5.133 85.319z" fill="#925873"/><path d="m315.992 309.628-4.277 71.099c-2.146 26.128-19.809 45.998-40.888 45.998h-47.424c-17.531 0-32.702-13.751-38.543-33.431l1.667 24.4c2.793 29.389 24.59 51.661 50.558 51.661h58.674c26.081 0 47.933-22.46 50.588-51.994l7.094-107.733z" fill="#dba2b3"/><path d="m57.528 149.159 8.35 23.48c.357 1.005 1.065 1.802 1.958 2.204l20.861 9.398c2.947 1.328 2.947 6.024 0 7.351l-20.861 9.399c-.893.402-1.601 1.199-1.958 2.204l-8.35 23.48c-1.18 3.317-5.352 3.317-6.531 0l-8.35-23.48c-.358-1.005-1.065-1.802-1.958-2.204l-20.861-9.399c-2.947-1.328-2.947-6.023 0-7.351l20.861-9.398c.893-.402 1.601-1.199 1.958-2.204l8.35-23.48c1.179-3.317 5.351-3.317 6.531 0z" fill="#efc5b4"/><circle cx="476.15" cy="58.28" fill="#e8a284" r="18.233"/><ellipse cx="65.825" cy="90.634" fill="#e8a284" rx="7.865" ry="7.865" transform="matrix(.23 -.973 .973 .23 -37.508 133.875)"/><path d="m468.716 146.926 6.194 17.417c.265.746.79 1.337 1.453 1.635l15.474 6.972c2.186.985 2.186 4.468 0 5.453l-15.474 6.972c-.663.299-1.187.889-1.453 1.635l-6.194 17.417c-.875 2.46-3.97 2.46-4.845 0l-6.194-17.417c-.265-.746-.79-1.337-1.453-1.635l-15.474-6.972c-2.186-.985-2.186-4.468 0-5.453l15.474-6.972c.663-.298 1.188-.889 1.453-1.635l6.194-17.417c.875-2.461 3.969-2.461 4.845 0z" fill="#efc5b4"/></g><g fill="#3c122c"><path d="m403.835 62.6c-4.864-5.388-11.816-8.478-19.075-8.478h-17.726c-5.956-21.022-25.3-36.473-48.204-36.473h-54.157c-11.904-11.267-27.794-17.649-44.27-17.649-32.006 0-58.622 23.483-63.545 54.122h-11.281c-7.286 0-14.257 3.11-19.124 8.532-4.83 5.38-7.173 12.574-6.444 19.762l27.929 359.122c.008.101.017.202.028.302 4.326 39.998 37.927 70.16 78.158 70.16h79.091c40.466 0 74.087-30.356 78.206-70.611.009-.091.017-.181.024-.272l26.895-358.832c.691-7.169-1.676-14.336-6.505-19.685zm-183.432-42.465c12.375 0 24.27 5.241 32.636 14.38 1.907 2.083 4.601 3.269 7.425 3.269h58.367c11.619 0 21.705 6.649 26.677 16.338h-168.123c4.637-19.464 22.155-33.987 43.018-33.987zm169.892 60.251c-.009.091-.017.182-.024.273l-26.894 358.808c-3.124 29.88-28.106 52.398-58.163 52.398h-79.091c-29.88 0-54.843-22.364-58.124-52.047l-27.926-359.097c-.008-.101-.017-.201-.027-.302-.233-2.147.772-3.625 1.391-4.316.619-.69 1.981-1.847 4.141-1.847h239.184c2.151 0 3.511 1.15 4.13 1.836.617.685 1.622 2.154 1.403 4.294z"/><path d="m316.297 422.215c-.569 0-1.148-.081-1.721-.251-3.198-.949-5.022-4.311-4.072-7.51 1.275-4.294 2.087-8.855 2.415-13.557.231-3.327 3.112-5.845 6.445-5.606 3.328.232 5.838 3.117 5.606 6.445-.388 5.58-1.359 11.016-2.884 16.155-.78 2.625-3.185 4.324-5.789 4.324z"/><path d="m275.792 452.711c-3.458 0-6.85-.139-10.075-.272-2.852-.117-5.546-.228-8.069-.239-3.337-.016-6.028-2.733-6.012-6.069.016-3.326 2.717-6.011 6.039-6.011h.03c2.744.013 5.544.128 8.508.25 13.582.557 27.63 1.134 35.334-7.997 2.154-2.55 5.965-2.871 8.512-.721 2.55 2.151 2.873 5.962.722 8.512-9.037 10.706-22.426 12.547-34.989 12.547z"/><path d="m363.395 100.483c-3.246-3.543-7.555-5.495-12.135-5.495h-172.184c-4.595 0-8.916 1.963-12.165 5.528-3.722 4.083-5.559 9.738-5.043 15.529l20.107 301.709c.003.052.007.104.012.156 3.007 32.421 26.683 56.87 55.075 56.87h56.936c28.554 0 52.246-24.604 55.107-57.231.004-.047.007-.094.01-.141l19.364-301.462c.485-5.773-1.366-11.405-5.084-15.463zm-69.398 362.216h-56.936c-22.092 0-40.583-19.697-43.039-45.828l-7.091-106.401h156.946l-6.815 106.093c-2.337 26.306-20.84 46.136-43.065 46.136zm50.657-164.31h-158.528l-5.558-83.393h169.442zm11.783-183.421c-.004.047-.007.093-.01.14l-5.64 87.807h-171.023l-5.848-87.745c-.003-.052-.007-.104-.012-.156-.223-2.408.499-4.785 1.935-6.359.66-.724 1.757-1.586 3.238-1.586h172.183c1.475 0 2.569.856 3.228 1.575 1.431 1.561 2.159 3.925 1.949 6.324z"/><path d="m216.601 280.044c-3.336 0-6.04-2.705-6.04-6.04v-11.202c0-3.336 2.705-6.04 6.04-6.04 3.336 0 6.04 2.705 6.04 6.04v11.202c.001 3.336-2.704 6.04-6.04 6.04z"/><path d="m246.258 257.975c-3.336 0-6.04-2.705-6.04-6.04v-11.202c0-3.336 2.705-6.04 6.04-6.04 3.336 0 6.04 2.705 6.04 6.04v11.202c.001 3.335-2.704 6.04-6.04 6.04z"/><path d="m299.568 269.171c-3.336 0-6.04-2.705-6.04-6.04v-11.201c0-3.336 2.705-6.04 6.04-6.04 3.336 0 6.04 2.705 6.04 6.04v11.201c0 3.335-2.705 6.04-6.04 6.04z"/></g></g></svg>