<svg id="Capa_1" enable-background="new 0 0 512 512" height="512" viewBox="0 0 512 512" width="512" xmlns="http://www.w3.org/2000/svg"><g><g><path d="m409.453 463.304h-278.586c-10.634 0-19.255 8.62-19.255 19.254v.124c0 10.634 8.621 19.254 19.255 19.254h278.586c10.634 0 19.254-8.62 19.254-19.254v-.124c0-10.633-8.62-19.254-19.254-19.254z" fill="#c1e5ef"/><path d="m139.542 399.087c.418 0 .83-.025 1.247-.031 15.617 36.06 51.516 61.29 93.313 61.29h72.115c56.139 0 101.648-45.509 101.648-101.647v-149.279c0-13.522-10.962-24.485-24.484-24.485h-226.442c-13.523 0-24.485 10.962-24.485 24.485v13.598h-9.563c-43.138 0-78.233 35.095-78.233 78.232v19.604c0 43.139 35.095 78.233 78.233 78.233zm-58.46-78.233v-19.604c0-23.054 18.755-41.81 41.81-41.81h9.563v99.259c0 1.329.034 2.649.084 3.966h-9.647c-23.054 0-41.81-18.756-41.81-41.811z" fill="#c1e5ef"/><path d="m383.302 184.936h-62.267c13.566 0 24.564 10.998 24.564 24.564v86.603c0 56.32-45.656 101.977-101.976 101.977h-9.191c-56.32 0-101.977-45.657-101.977-101.977v62.267c0 56.32 45.656 101.977 101.977 101.977h71.458c56.32 0 101.976-45.657 101.976-101.977v-148.87c0-13.567-10.998-24.564-24.564-24.564z" fill="#a6aaed"/><path d="m287.178 428.891h-34.037c-48.914 0-88.567-39.653-88.567-88.567v-102.967c0-6.565 5.322-11.887 11.887-11.887h187.397c6.565 0 11.887 5.322 11.887 11.887v102.966c0 48.915-39.652 88.568-88.567 88.568z" fill="#faf1a9"/><path d="m363.783 225.47h-18.185v70.632c0 56.32-45.656 101.977-101.976 101.977h-9.191c-23.11 0-44.421-7.692-61.522-20.649 14.195 30.396 45.031 51.46 80.792 51.46h32.92c49.223 0 89.125-39.902 89.125-89.126v-102.332c-.001-6.607-5.356-11.962-11.963-11.962z" fill="#dfb5a7"/><path d="m381.495 395.878h-67.66c-10.914 0-19.761-9.406-19.761-21.009v-65.825c0-5.36 1.927-10.518 5.387-14.417l33.441-37.686c7.747-8.73 20.786-8.798 28.613-.15l34.219 37.807c3.543 3.914 5.522 9.135 5.522 14.567v65.704c0 11.603-8.847 21.009-19.761 21.009z" fill="#fff"/><path d="m395.735 294.598-34.219-37.807c-6.329-6.993-16.064-8.281-23.655-3.903.921.704 1.795 1.538 2.585 2.538l23.528 29.793c2.436 3.085 3.797 7.199 3.797 11.48v51.776c0 9.144-6.083 16.556-13.587 16.556h-46.521c-7.504 0-13.587-7.412-13.587-16.556v26.394c0 11.603 8.848 21.009 19.761 21.009h67.66c10.914 0 19.761-9.406 19.761-21.009v-65.703c-.002-5.433-1.981-10.654-5.523-14.568z" fill="#e1bdfc"/><path d="m379.434 378.552h-62.547c-2.956 0-5.353-2.397-5.353-5.353v-40.089c0-2.956 2.397-5.353 5.353-5.353h62.547c2.956 0 5.353 2.396 5.353 5.353v40.09c-.001 2.956-2.397 5.352-5.353 5.352z" fill="#a1e8c3"/><path d="m379.4 327.759h-11.63v20.716c0 9.144-6.083 16.556-13.588 16.556h-42.649v8.135c0 2.976 2.412 5.387 5.387 5.387h62.48c2.975 0 5.386-2.412 5.386-5.387v-40.02c0-2.976-2.411-5.387-5.386-5.387z" fill="#85adc2"/><path d="m438.474 63.16 8.293 23.318c.355.998 1.058 1.79 1.945 2.189l20.717 9.334c2.927 1.319 2.927 5.982 0 7.301l-20.717 9.334c-.887.4-1.59 1.191-1.945 2.189l-8.293 23.318c-1.172 3.294-5.315 3.294-6.487 0l-8.293-23.318c-.355-.998-1.058-1.79-1.945-2.189l-20.717-9.334c-2.927-1.319-2.927-5.982 0-7.301l20.717-9.334c.887-.4 1.59-1.191 1.945-2.189l8.293-23.318c1.172-3.294 5.316-3.294 6.487 0z" fill="#faf1a9"/><path d="m121.281 100.788c0 4.314-3.497 7.812-7.811 7.812s-7.811-3.497-7.811-7.812c0-4.314 3.497-7.811 7.811-7.811s7.811 3.497 7.811 7.811z" fill="#f6e06e"/><path d="m489.984 177.941c0 4.314-3.497 7.811-7.811 7.811s-7.811-3.497-7.811-7.811 3.497-7.811 7.811-7.811 7.811 3.497 7.811 7.811z" fill="#f6e06e"/><path d="m51.418 122.029 6.152 17.297c.264.74.785 1.327 1.443 1.624l15.368 6.924c2.171.978 2.171 4.437 0 5.416l-15.368 6.924c-.658.296-1.179.883-1.443 1.624l-6.152 17.297c-.869 2.444-3.942 2.444-4.811 0l-6.152-17.297c-.263-.741-.785-1.327-1.443-1.624l-15.368-6.924c-2.171-.978-2.171-4.437 0-5.416l15.368-6.924c.658-.296 1.179-.883 1.443-1.624l6.152-17.297c.869-2.444 3.942-2.444 4.811 0z" fill="#faf1a9"/></g><g><path d="m193.609 346.859c-5.557 0-10.063-4.506-10.063-10.063v-14.353c0-5.557 4.506-10.063 10.063-10.063s10.063 4.506 10.063 10.063v14.353c0 5.557-4.506 10.063-10.063 10.063z" fill="#fff"/><path d="m193.609 303.489c-5.557 0-10.063-4.506-10.063-10.063v-6.078c0-5.557 4.506-10.063 10.063-10.063s10.063 4.506 10.063 10.063v6.078c0 5.557-4.506 10.063-10.063 10.063z" fill="#fff"/><g fill="#3c122c"><path d="m199.147 117.723c-1.811.001-3.644-.488-5.297-1.513-4.722-2.931-6.174-9.134-3.244-13.857.075-.12 8.583-14.125 8.583-27.226 0-5.264-1.331-7.409-3.535-10.96-2.768-4.461-6.561-10.571-6.561-21.574 0-18.915 11.135-37.071 11.609-37.835 2.93-4.722 9.135-6.174 13.856-3.243 4.716 2.927 6.169 9.118 3.255 13.838-.086.139-8.594 14.141-8.594 27.24 0 5.264 1.331 7.409 3.535 10.96 2.768 4.462 6.561 10.571 6.561 21.574 0 18.917-11.134 37.076-11.608 37.84-1.905 3.069-5.194 4.756-8.56 4.756z"/><path d="m320.294 117.723c-1.811.001-3.644-.488-5.297-1.513-4.722-2.931-6.174-9.134-3.244-13.857.075-.12 8.583-14.125 8.583-27.226 0-5.264-1.331-7.409-3.535-10.96-2.768-4.461-6.561-10.571-6.561-21.574 0-18.915 11.134-37.071 11.609-37.835 2.931-4.722 9.135-6.174 13.856-3.243 4.717 2.928 6.172 9.12 3.254 13.84-.159.26-8.593 14.196-8.593 27.238 0 5.264 1.331 7.409 3.535 10.96 2.768 4.462 6.561 10.571 6.561 21.574 0 18.917-11.134 37.076-11.608 37.84-1.905 3.069-5.194 4.756-8.56 4.756z"/><path d="m259.72 117.723c-1.811 0-3.645-.488-5.297-1.514-4.722-2.93-6.174-9.134-3.243-13.856.074-.121 8.583-14.125 8.583-27.226 0-5.264-1.331-7.409-3.535-10.96-2.769-4.461-6.562-10.571-6.562-21.574 0-18.916 11.136-37.072 11.61-37.836 2.931-4.719 9.133-6.173 13.857-3.242 4.717 2.928 6.171 9.124 3.251 13.844-.214.351-8.592 14.237-8.592 27.234 0 5.264 1.331 7.409 3.535 10.96 2.769 4.462 6.562 10.571 6.562 21.574 0 18.917-11.135 37.076-11.61 37.84-1.904 3.069-5.193 4.756-8.559 4.756z"/><path d="m409.453 453.241h-43.797c31.38-19.8 52.272-54.775 52.272-94.543v-149.278c0-19.05-15.497-34.548-34.547-34.548h-32.166c-5.066-16.211-20.22-28.01-38.079-28.01-17.858 0-33.013 11.799-38.079 28.01h-118.118c-19.05 0-34.548 15.497-34.548 34.548v3.541c-48.456.271-87.795 39.771-87.795 88.29v19.604c0 48.687 39.609 88.296 88.295 88.296h11.559c9.187 18.073 23.149 33.324 40.213 44.091h-43.797c-16.166 0-29.317 13.152-29.317 29.317v.124c0 16.166 13.152 29.318 29.317 29.318h278.586c16.166 0 29.318-13.152 29.318-29.318v-.124c.001-16.166-13.151-29.318-29.317-29.318zm-286.562-64.216c-37.589 0-68.169-30.581-68.169-68.17v-19.605c0-37.421 30.311-67.885 67.669-68.157v16.296c-28.372.27-51.372 23.425-51.372 51.86v19.604c0 28.603 23.27 51.874 51.872 51.874h.378c.701 5.569 1.814 11.011 3.306 16.296h-3.684zm-.5-119.509v83.073c-17.273-.269-31.246-14.397-31.246-31.735v-19.604c.001-17.337 13.973-31.465 31.246-31.734zm230.63-74.518h30.36c7.952 0 14.421 6.469 14.421 14.421v78.465l-16.019-17.7v-32.753c0-9.924-8.075-17.999-18-17.999h-10.763v-24.434zm0 36.51h10.763c3.267 0 5.924 2.657 5.924 5.924v19.411l-3.715-4.104c-3.513-3.882-8.057-6.552-12.972-7.735zm4.019 29.334 34.218 37.807c2.554 2.821 3.96 6.556 3.96 10.515v66.441c0 8.256-6.156 14.972-13.723 14.972h-67.66c-7.567 0-13.723-6.716-13.723-14.972v-66.561c0-3.903 1.373-7.601 3.865-10.41l33.44-37.686c1.044-1.177 2.237-2.132 3.527-2.866v24.947c-4.931 2.323-8.353 7.324-8.353 13.137 0 8.024 6.505 14.53 14.53 14.53 8.024 0 14.529-6.506 14.529-14.53 0-5.922-3.548-11.007-8.63-13.271v-25.124c1.476.746 2.84 1.768 4.02 3.071zm-16.095-15.692c-4.772 1.274-9.163 3.956-12.559 7.783l-33.441 37.687c-4.455 5.021-6.908 11.564-6.908 18.424v66.561c0 14.914 11.574 27.047 25.798 27.047h30.721c-13.711 12.535-31.941 20.2-51.938 20.2h-44.917c-42.508 0-77.089-34.582-77.089-77.088v-108.332c0-3.267 2.658-5.924 5.925-5.924h164.408zm-27.809-86.212c11.088 0 20.677 6.524 25.14 15.934h-50.28c4.462-9.409 14.052-15.934 25.14-15.934zm-170.619 199.761v-149.279c0-7.952 6.469-14.421 14.421-14.421h121.654c.229.027.46.043.696.043s.467-.017.696-.043h60.959v24.434h-164.406c-9.926 0-18.001 8.075-18.001 17.999v108.332c0 49.165 40 89.164 89.165 89.164h44.917c27.557 0 52.228-12.572 68.596-32.275h20.281c1.842 0 3.639-.207 5.373-.595-15.485 28.688-45.828 48.225-80.651 48.225h-72.115c-50.499 0-91.585-41.084-91.585-91.584zm276.128 123.983c0 5.068-4.124 9.191-9.191 9.191h-278.587c-5.068 0-9.191-4.124-9.191-9.191v-.124c0-5.068 4.123-9.191 9.191-9.191h278.586c5.068 0 9.191 4.123 9.191 9.191v.124z"/><path d="m379.4 384.59h-62.478c-6.3 0-11.425-5.125-11.425-11.424v-40.021c0-6.299 5.125-11.424 11.425-11.424h62.478c6.299 0 11.424 5.125 11.424 11.424v40.021c0 6.3-5.125 11.424-11.424 11.424zm-61.828-12.075h61.176v-38.718h-61.176z"/></g></g></g></svg>