<svg id="Capa_1" enable-background="new 0 0 512 512" height="512" viewBox="0 0 512 512" width="512" xmlns="http://www.w3.org/2000/svg"><g><g><path d="m134.826 105.009 26.376 339.178c3.555 32.856 31.293 57.755 64.341 57.755h74.671c33.191 0 61.001-25.109 64.38-58.128l25.401-338.891c.89-8.699-5.936-16.26-14.681-16.26h-225.816c-8.779.001-15.616 7.618-14.672 16.346z" fill="#c1e5ef"/><path d="m172 158.738 17.551 263.351c2.559 27.6 22.528 48.515 46.318 48.515h53.754c23.893 0 43.914-21.092 46.346-48.828l16.896-263.038z" fill="#fff"/><path d="m357.106 6.534c-6.931-1.837-14.012 1.594-17.016 7.82-6.125-3.727-14.272-6.677-18.589-7.82-7.86-2.082-15.919 2.603-17.999 10.462l-37.181 140.408h-94.796v29.412h179.784v-29.412h-18.926l35.186-132.871c2.081-7.86-2.604-15.918-10.463-17.999z" fill="#c49a8b"/><path d="m375.314 88.664h-46.119c7.068 0 12.586 6.464 11.867 13.901l-20.531 289.727c-2.731 28.228-25.21 49.695-52.038 49.695h-60.356c-23.572 0-43.793-16.581-50.198-39.781l3.265 41.981c3.554 32.856 31.293 57.755 64.341 57.755h74.671c33.191 0 61.001-25.109 64.38-58.128l25.401-338.891c.888-8.698-5.939-16.259-14.683-16.259z" fill="#a6aaed"/><path d="m335.02 187.833-14.489 204.459c-2.731 28.228-25.21 49.695-52.038 49.695h-60.356c-4.914 0-9.678-.73-14.206-2.08 7.586 18.297 23.625 30.698 41.939 30.698h53.754c23.893 0 43.914-21.092 46.346-48.828l15.027-233.944z" fill="#e1bdfc"/><path d="m350.996 187.833 1.869-29.095h-15.784l-2.061 29.095z" fill="#b2748a"/><path d="m64.998 20.746 8.261 23.23c.354.995 1.054 1.783 1.938 2.181l20.639 9.299c2.916 1.314 2.916 5.959 0 7.273l-20.639 9.299c-.884.398-1.584 1.186-1.938 2.181l-8.261 23.23c-1.167 3.282-5.295 3.282-6.462 0l-8.261-23.23c-.354-.995-1.054-1.783-1.938-2.181l-20.639-9.299c-2.916-1.314-2.916-5.96 0-7.273l20.639-9.299c.884-.398 1.584-1.186 1.938-2.181l8.261-23.23c1.167-3.281 5.295-3.281 6.462 0z" fill="#c1e5ef"/><ellipse cx="465.871" cy="95.1" fill="#96b4eb" rx="18.039" ry="18.039" transform="matrix(.387 -.922 .922 .387 197.919 487.887)"/><circle cx="74.885" cy="228.105" fill="#96b4eb" r="7.782"/><path d="m461.991 217.006 6.128 17.232c.262.738.782 1.322 1.437 1.618l15.309 6.898c2.163.974 2.163 4.42 0 5.395l-15.309 6.898c-.656.295-1.175.88-1.437 1.618l-6.128 17.231c-.866 2.434-3.928 2.434-4.793 0l-6.128-17.231c-.262-.738-.782-1.322-1.437-1.618l-15.309-6.898c-2.163-.975-2.163-4.421 0-5.395l15.309-6.898c.656-.295 1.175-.88 1.437-1.618l6.128-17.232c.866-2.434 3.927-2.434 4.793 0z" fill="#c1e5ef"/></g><g><path d="m239.815 131.24c-.074 0-.148-.001-.223-.002l-4.776-.106c-9.854-.222-9.854-.221-22.793.013-5.584.108-10.137-4.319-10.238-9.873-.101-5.553 4.32-10.138 9.873-10.238 13.222-.241 13.444-.241 23.611-.012l4.76.105c5.553.121 9.957 4.72 9.836 10.273-.119 5.48-4.598 9.84-10.05 9.84z" fill="#fff"/><path d="m176.144 131.24h-11.332c-5.555 0-10.057-4.503-10.057-10.057s4.503-10.057 10.057-10.057h11.332c5.555 0 10.057 4.503 10.057 10.057s-4.502 10.057-10.057 10.057z" fill="#fff"/><g fill="#3c122c"><path d="m283.345 358.912c-3.332 0-6.034-2.702-6.034-6.034v-14.126c0-3.332 2.702-6.034 6.034-6.034s6.034 2.702 6.034 6.034v14.126c0 3.332-2.702 6.034-6.034 6.034z"/><path d="m312.798 350.838c-3.332 0-6.034-2.702-6.034-6.034v-14.126c0-3.333 2.702-6.034 6.034-6.034s6.034 2.702 6.034 6.034v14.126c0 3.332-2.702 6.034-6.034 6.034z"/><path d="m393.732 86.792c-4.697-5.201-11.41-8.185-18.418-8.185h-15.823l13.91-52.528c1.42-5.36.667-10.951-2.119-15.744s-7.271-8.214-12.63-9.633c-5.362-1.421-10.953-.666-15.745 2.118-3.089 1.795-5.596 4.303-7.377 7.289-2.795-4.671-7.212-8.011-12.483-9.407-5.361-1.421-10.952-.666-15.745 2.118-4.794 2.786-8.215 7.273-9.633 12.632l-16.724 63.155h-131.448c-7.035 0-13.766 3.003-18.465 8.238-4.661 5.193-6.924 12.135-6.223 19.072l26.367 339.05c.008.101.017.201.028.301 4.115 38.044 36.074 66.731 74.34 66.731h74.671c38.488 0 70.467-28.873 74.385-67.162.009-.09.017-.181.024-.272l25.392-338.773c.663-6.919-1.622-13.836-6.284-19zm-48.791-68.252c.594-2.243 2.025-4.12 4.031-5.286 1.344-.781 2.837-1.181 4.35-1.181.747 0 1.498.097 2.239.294 2.243.594 4.121 2.026 5.286 4.032 1.166 2.007 1.481 4.346.887 6.589l-14.728 55.618h-17.972zm.385 163.418h-165.731l-1.145-17.186h167.98zm-.775 12.069-14.599 227.289c-2.192 24.664-19.52 43.254-40.329 43.254h-53.754c-20.684 0-37.999-18.464-40.302-42.961l-15.167-227.582zm-52.771-41.323h-17.972l14.295-53.983h17.972zm17.633 0 14.295-53.983h17.972l-14.295 53.983zm-.077-134.164c.594-2.243 2.025-4.12 4.031-5.286 1.344-.781 2.837-1.181 4.35-1.181.747 0 1.498.097 2.239.294 2.243.594 4.121 2.026 5.286 4.032 1.166 2.007 1.481 4.346.887 6.589l-14.728 55.618h-17.971zm70.653 85.36c-.009.091-.017.182-.024.273l-25.39 338.748c-2.922 27.924-26.27 48.964-54.362 48.964h-74.671c-27.924 0-51.253-20.897-54.326-48.635l-26.364-339.021c-.008-.1-.017-.201-.028-.301-.196-1.814.653-3.063 1.176-3.646s1.673-1.561 3.497-1.561h126.121l-14.295 53.983h-89.323c-1.67 0-3.266.693-4.407 1.911-1.141 1.22-1.726 2.858-1.615 4.525l17.551 263.35c.003.052.008.103.012.155 2.854 30.781 25.35 53.993 52.327 53.993h53.754c27.132 0 49.641-23.359 52.358-54.335.004-.047.008-.093.011-.14l16.896-263.038c.107-1.665-.48-3.298-1.621-4.515-1.141-1.216-2.734-1.906-4.401-1.906h-12.995l14.295-53.983h21.149c1.817 0 2.966.971 3.488 1.551.523.578 1.373 1.82 1.187 3.628z"/><path d="m248.514 439.295c-3.508 0-7.003-.767-10.277-2.291l-22.032-10.259c-12.187-5.675-17.485-20.207-11.811-32.392l10.719-23.02c2.749-5.904 7.632-10.383 13.75-12.615 6.12-2.23 12.74-1.945 18.643.803l22.032 10.259c12.187 5.675 17.485 20.207 11.811 32.393l-10.718 23.019c-2.749 5.905-7.633 10.384-13.751 12.615-2.726.994-5.551 1.488-8.366 1.488zm-11.293-69.989c-1.422 0-2.849.249-4.225.751-3.089 1.126-5.555 3.388-6.943 6.369l-10.719 23.02c-2.865 6.154-.19 13.492 5.964 16.358l22.032 10.259c2.981 1.389 6.324 1.531 9.414.407 3.09-1.126 5.556-3.389 6.944-6.37l10.718-23.019c2.866-6.155.19-13.493-5.964-16.359l-22.032-10.259c-1.653-.77-3.418-1.157-5.189-1.157z"/><path d="m264.989 308.652c-3.954.001-7.871-.972-11.457-2.888-5.744-3.068-9.949-8.19-11.841-14.422l-7.377-24.296c-3.906-12.864 3.382-26.507 16.246-30.412l23.256-7.06c6.23-1.894 12.826-1.244 18.57 1.824 5.744 3.069 9.949 8.19 11.841 14.422l7.377 24.297c1.892 6.231 1.244 12.826-1.824 18.571-3.069 5.744-8.19 9.949-14.422 11.841l-23.255 7.061c-2.342.711-4.735 1.062-7.114 1.062zm15.925-68.067c-1.202 0-2.41.178-3.593.537l-23.256 7.06c-6.495 1.972-10.176 8.862-8.203 15.358l7.377 24.297c.956 3.147 3.079 5.734 5.98 7.284s6.232 1.877 9.377.921l23.255-7.061c3.147-.956 5.733-3.079 7.283-5.979 1.549-2.9 1.876-6.231.921-9.378l-7.377-24.297c-.955-3.147-3.079-5.734-5.979-7.283-1.81-.968-3.788-1.459-5.785-1.459z"/></g></g></g></svg>