<svg id="Capa_1" enable-background="new 0 0 512 512" height="512" viewBox="0 0 512 512" width="512" xmlns="http://www.w3.org/2000/svg"><g><g><path d="m396.298 181.779h-257.998l-20.263 65.53c-29.668 85.856-11.805 180.996 46.983 250.244l3.715 4.376h197.127l3.715-4.376c58.788-69.248 76.65-164.388 46.983-250.244z" fill="#f4dab5"/><path d="m297.855 47.717s-55.99 19.441-76.001 63.844c-1.521-1.458-3.084-2.905-4.739-4.327-38.108-32.734-99.506-23.754-99.506-23.754s.387 62.05 38.495 94.783c26.47 22.736 54.83 29.695 73.205 27.161.84.464 1.688.86 2.549 1.143 16.571 5.44 56.832-10.378 75.551-56.996 18.718-46.617-9.554-101.854-9.554-101.854z" fill="#a1e8c3"/><g fill="#fff"><path d="m367.486 447.404-4.579-44.189c-1.046-10.091-10.074-17.423-20.165-16.378l-42.773 4.432c-.737.076-1.455.208-2.161.366l1.89-4.059c4.282-9.197.298-20.124-8.899-24.406l-38.983-18.152c-9.197-4.283-20.124-.298-24.407 8.898l-18.753 40.274c-4.282 9.197-.298 20.124 8.899 24.406l38.983 18.152c9.197 4.282 20.124.298 24.406-8.899l3.556-7.636 3.669 35.408c1.046 10.091 10.074 17.424 20.165 16.378l42.773-4.432c10.092-1.044 17.424-10.072 16.379-20.163z"/><path d="m243.637 206.189-9.287-43.705c-2.094-9.854-11.78-16.146-21.635-14.052l-42.313 8.991c-9.855 2.094-16.146 11.78-14.052 21.635l9.287 43.705c2.094 9.855 11.78 16.146 21.635 14.052l42.312-8.991c9.856-2.094 16.147-11.781 14.053-21.635z"/><path d="m375.619 170.579-37.597-23.667c-8.585-5.405-19.927-2.826-25.332 5.759l-3.037 4.824-33.4-3.723c-10.083-1.124-19.167 6.139-20.291 16.221l-4.921 44.153c-1.124 10.083 6.139 19.167 16.221 20.291l42.737 4.763c6.07.676 11.765-1.7 15.592-5.889l7.545 4.75c8.586 5.405 19.927 2.826 25.332-5.76l22.909-36.391c5.406-8.585 2.827-19.926-5.758-25.331z"/></g><path d="m416.561 247.31-20.262-65.53h-4.079c-9.097 16.946-20.037 32.889-32.077 47.954l1.901 6.148c17.751 51.368 14.883 106.76-6.509 155.127.458.52.842 1.172 1.115 1.973 2.993 8.802 3.302 18.234 3.941 27.43.52 7.472 2.179 14.198 3.856 21.439 1.944 8.391 1.51 16.395-7.356 20.185-9.339 3.992-21.038 4.206-31.088 5.011-9.389.752-20.248 1.062-28.615-3.993-7.648-4.62-10.019-12.439-9.962-20.588-.402.007-.803.021-1.207.021h-94.822c-26.034 0-50.062-14.231-62.348-37.184-14.571-27.224-22.954-57.194-24.744-87.742-3.443 64.673 17.657 129.277 60.712 179.993l3.715 4.376h197.127l3.715-4.376c58.792-69.249 76.654-164.388 46.987-250.244z" fill="#dba2b3"/><path d="m360.124 229.673 21.254-33.762c2.757-4.379 3.426-9.472 2.291-14.131h-38.354z" fill="#e1bdfc"/><path d="m286.808 442.476 1.362 13.147c1.046 10.091 10.074 17.424 20.165 16.378l42.773-4.432c10.091-1.045 17.424-10.073 16.378-20.165l-4.579-44.189c-.544-5.248-3.258-9.736-7.147-12.701-2.141 4.874-4.465 9.678-6.98 14.399-12.221 22.945-36.007 37.349-61.972 37.563z" fill="#e1bdfc"/><path d="m411.577 2.565 8.61 24.209c.369 1.036 1.098 1.858 2.019 2.273l21.509 9.691c3.039 1.369 3.039 6.211 0 7.58l-21.509 9.69c-.921.415-1.651 1.236-2.019 2.273l-8.61 24.209c-1.216 3.42-5.518 3.42-6.734 0l-8.61-24.209c-.369-1.036-1.098-1.858-2.019-2.273l-21.509-9.69c-3.039-1.369-3.039-6.211 0-7.58l21.509-9.691c.921-.415 1.651-1.236 2.019-2.273l8.61-24.209c1.216-3.42 5.517-3.42 6.734 0z" fill="#faf1a9"/><path d="m491.143 157.225c0 10.383-8.417 18.8-18.8 18.8s-18.8-8.417-18.8-18.8 8.417-18.8 18.8-18.8 18.8 8.417 18.8 18.8z" fill="#f6e06e"/><path d="m198.505 32.374c0 4.479-3.631 8.11-8.11 8.11s-8.11-3.631-8.11-8.11 3.631-8.11 8.11-8.11 8.11 3.631 8.11 8.11z" fill="#f6e06e"/><path d="m51.383 167.064 6.386 17.958c.273.769.815 1.378 1.498 1.686l15.955 7.188c2.254 1.015 2.254 4.607 0 5.622l-15.955 7.188c-.683.308-1.224.917-1.498 1.686l-6.386 17.958c-.902 2.537-4.093 2.537-4.995 0l-6.387-17.958c-.273-.769-.815-1.378-1.498-1.686l-15.955-7.188c-2.254-1.015-2.254-4.607 0-5.622l15.955-7.188c.683-.308 1.224-.917 1.498-1.686l6.387-17.958c.901-2.538 4.092-2.538 4.995 0z" fill="#faf1a9"/></g><g><path d="m368.916 402.592c-.672-6.486-3.829-12.322-8.89-16.432-5.062-4.111-11.419-6.01-17.907-5.332l-35.109 3.638c2.079-10.741-3.305-21.95-13.661-26.773l-38.983-18.151c-5.912-2.752-12.543-3.04-18.666-.804-6.126 2.233-11.016 6.719-13.768 12.631l-18.752 40.273c-2.753 5.911-3.039 12.54-.804 18.666 2.233 6.127 6.719 11.016 12.631 13.769l38.982 18.151c3.279 1.526 6.778 2.294 10.29 2.294 2.819 0 5.649-.496 8.377-1.49 2.861-1.043 5.437-2.595 7.666-4.536l1.839 17.75c.672 6.487 3.829 12.322 8.891 16.434 4.393 3.568 9.762 5.465 15.345 5.465.849 0 1.704-.043 2.561-.133l42.774-4.432c13.388-1.388 23.152-13.409 21.765-26.797zm-93.448 22.709c-1.39 2.985-3.859 5.249-6.952 6.377s-6.441.984-9.427-.406l-38.983-18.152c-2.985-1.389-5.25-3.859-6.378-6.953-1.128-3.093-.983-6.44.407-9.426l18.752-40.274c1.39-2.985 3.859-5.25 6.953-6.378 1.378-.502 2.805-.752 4.229-.752 1.774 0 3.541.388 5.197 1.159l38.983 18.152c6.162 2.869 8.841 10.216 5.972 16.378l-18.753 40.274zm75.017 36.258-42.773 4.432c-3.276.338-6.488-.618-9.042-2.693-2.556-2.076-4.151-5.023-4.49-8.298l-3.497-33.748 11.226-24.11 41.456-4.296c.433-.044.864-.067 1.294-.067 2.818 0 5.53.958 7.748 2.759 2.555 2.076 4.15 5.023 4.489 8.298l4.58 44.19c.701 6.762-4.23 12.832-10.991 13.533z" fill="#3c122c"/><path d="m426.133 244.178-18.746-60.626c-1.304-4.219-5.205-7.095-9.621-7.095h-9.532c-1.884-4.384-5.063-8.262-9.398-10.991l-37.596-23.669c-6.216-3.912-13.535-4.66-20.07-2.688 10.615-46.328-13.227-93.785-14.352-95.981-2.287-4.471-7.519-6.569-12.266-4.925-2.294.797-50.888 18.065-75.638 57.577-41.091-30.836-100.173-22.645-102.763-22.264-4.969.727-8.644 5.004-8.613 10.027.015 2.493.755 56.686 32.494 92.914h-3.202c-4.415 0-8.317 2.876-9.621 7.095l-18.745 60.627c-15.08 43.732-18.541 90.874-10.004 136.338 8.546 45.522 28.908 88.245 58.883 123.553l3.715 4.376c1.913 2.254 4.72 3.553 7.676 3.553h197.127c2.956 0 5.764-1.299 7.676-3.553l3.715-4.376c29.975-35.308 50.336-78.032 58.883-123.553 8.538-45.464 5.077-92.607-10.002-136.339zm-188.433-36.858c.684 3.221.074 6.515-1.72 9.277-1.794 2.761-4.555 4.658-7.776 5.343l-42.063 8.938c-3.221.683-6.516.073-9.276-1.72-2.761-1.794-4.658-4.555-5.343-7.776l-5.267-24.785h69.166zm-23.853-52.951c.86-.183 1.718-.27 2.565-.27 5.694 0 10.825 3.978 12.055 9.766l2.676 12.593h-61.139c-2.367-1.745-4.739-3.615-7.109-5.641 1.476-3.7 4.709-6.623 8.889-7.511zm85.559 8.063-8.83 14.025h-29.254l.646-5.794c.365-3.273 1.983-6.207 4.554-8.263 2.206-1.764 4.889-2.7 7.673-2.7.461 0 .925.026 1.389.078zm-42.359 52.384 2.03-18.218h21.952c-.805 8.859 3.263 17.855 11.293 22.908l21.613 13.607c-1.069.165-2.163.203-3.266.083l-42.737-4.763c-6.755-.753-11.639-6.862-10.885-13.617zm41.712-5.536c-4.392-2.764-6.431-7.863-5.543-12.682h80.589l-20.449 32.486c-1.753 2.787-4.488 4.723-7.699 5.454-3.213.728-6.515.165-9.301-1.588zm36.045-57.255 37.596 23.666c.378.238.736.495 1.079.766h-68.624l12.949-20.568c2.339-3.718 6.353-5.757 10.452-5.757 2.244.001 4.513.612 6.548 1.893zm-42.184-91.234c6.527 16.336 18.171 53.332 5.443 85.028-.566 1.409-1.15 2.777-1.749 4.111l-19.391-2.161c-5.565-.625-11.052.657-15.717 3.61l15.121-37.232c1.256-3.092-.232-6.616-3.324-7.871-3.092-1.258-6.616.232-7.871 3.324l-23.531 57.938-1.314-6.184c-1.956-9.203-8.889-16.087-17.383-18.447 1.286-7.673 3.506-15.879 6.956-24.471 12.681-31.582 46.745-50.326 62.76-57.645zm-82.752 53.518c-3.929 10.536-6.306 20.666-7.488 30.142l-5.33 1.132-23.482-20.331c-2.523-2.184-6.339-1.91-8.523.613s-1.91 6.339.613 8.523l16.568 14.345-12.953 2.752c-6.486 1.379-11.82 5.233-15.233 10.361-18.757-22.428-24.179-53.793-25.737-69.18 17.444-.879 55.763.04 81.565 21.643zm152.033 376.728-.699.823h-187.806l-.699-.823c-56.212-66.214-73.509-158.345-45.142-240.439.036-.103.071-.208.103-.314l16.6-53.687h9.644l5.8 27.296c1.355 6.378 5.113 11.847 10.581 15.398 4.006 2.602 8.579 3.947 13.247 3.947 1.702 0 3.418-.179 5.122-.541l42.063-8.938c6.496-1.38 11.837-5.243 15.249-10.383.892 2.889 2.322 5.615 4.266 8.047 4.071 5.093 9.882 8.296 16.364 9.018l42.736 4.763c.921.103 1.839.153 2.753.153 5.061 0 9.945-1.58 14.093-4.539l3.742 2.356c4.03 2.536 8.522 3.746 12.966 3.746 8.116 0 16.064-4.039 20.699-11.401l22.907-36.392c.52-.825.977-1.672 1.386-2.531h2.464l16.6 53.687c.033.105.067.21.103.314 28.367 82.096 11.069 174.227-45.142 240.44z" fill="#3c122c"/><g fill="#fff"><path d="m147.411 354.792c-4.279 0-8.248-2.75-9.602-7.048-3.732-11.847-3.877-24.316-3.585-33.855.166-5.454 4.64-9.763 10.059-9.763.104 0 .208.001.313.005 5.559.169 9.928 4.813 9.758 10.372-.242 7.952-.158 18.227 2.665 27.191 1.671 5.305-1.274 10.959-6.58 12.63-1.007.317-2.026.468-3.028.468z"/><path d="m146.883 297.564c-.514 0-1.034-.039-1.558-.12-5.495-.854-9.259-6-8.406-11.496.424-2.732.861-5.215 1.337-7.591 1.092-5.455 6.399-8.992 11.852-7.897 5.454 1.093 8.988 6.399 7.896 11.852-.417 2.086-.804 4.286-1.183 6.726-.771 4.972-5.058 8.526-9.938 8.526z"/></g></g></g></svg>