<svg id="Capa_1" enable-background="new 0 0 512 512" height="512" viewBox="0 0 512 512" width="512" xmlns="http://www.w3.org/2000/svg"><g><path d="m363.164 63.151c-.549-9.529-10.114-16.964-19.484-15.144-17.143 3.328-43.053 11.457-59.257 31.097.165-1.972.261-3.962.234-5.975-.327-24.45-15.489-45.779-26.631-58.19-5.943-6.62-17.233-6.469-22.998.307-10.807 12.703-25.394 34.431-25.067 58.881.518 38.744 38.286 69.652 38.286 69.652s9.727-8.418 19.127-21.838c-2.928 22.865 1.307 42.662 1.307 42.662s52.324-2.015 77.838-34.838c16.099-20.714 17.674-48.748 16.645-66.614z" fill="#a1e8c3"/><path d="m235.134 12.182c-11.159 13.117-16.025 32.047-8.993 21.852 3.751-5.438 15.007-3.674 18.902 1.662 7.302 10.003 17.247 27.188 17.51 46.851.416 31.159-16.254 58.518-16.254 58.518s-8.641-6.947-17.507-17.695c9.958 13.312 19.99 21.527 19.99 21.527s38.13-32.945 37.595-72.949c-.337-25.246-15.993-47.269-27.498-60.083-6.136-6.836-17.793-6.68-23.745.317z" fill="#85adc2"/><path d="m345.823 45.509c-18.139 3.522-34.896 16.131-22.173 12.295 6.786-2.046 15.04 6.971 14.732 14.052-.578 13.275-3.751 34.341-16.7 51-20.519 26.398-52.815 38.168-52.815 38.168s-2.59-11.611-2.824-26.558c-.568 17.828 2.34 31.433 2.34 31.433s54.027-2.08 80.37-35.971c16.625-21.388 18.251-50.335 17.189-68.781-.568-9.841-10.444-17.517-20.119-15.638z" fill="#85adc2"/><ellipse cx="254.352" cy="132.3" fill="#9781dd" rx="37.55" ry="37.55" transform="matrix(.23 -.973 .973 .23 67.154 349.452)"/><ellipse cx="194.272" cy="135.031" fill="#e8a284" rx="37.55" ry="37.55" transform="matrix(.707 -.707 .707 .707 -38.58 176.92)"/><path d="m377.958 267.851c-.806 0-1.609.004-2.41.011-2.101-11.526-8.701-21.83-18.275-29.648.047-.589.08-58.229.08-58.229 0-14.532-14.23-26.314-31.783-26.314h-172.227c-17.553 0-31.783 11.782-31.783 26.314 0 0 .033 57.64.08 58.229-11.723 9.572-18.996 22.871-18.996 37.58v173.349c0 29.153 28.545 52.787 63.757 52.787h146.11c35.212 0 63.757-23.634 63.757-52.787v-10.071c.562.013 1.124.026 1.689.026 47.913 0 86.753-46.141 86.753-103.058s-38.839-68.189-86.752-68.189zm-1.689 139.712v-108.201c29.792.169 53.772 7.54 53.772 43.093 0 35.552-23.98 64.433-53.772 65.108z" fill="#c1e5ef"/><path d="m357.273 238.214c.047-.588.08-1.181.08-1.78v-56.449c0-14.533-14.229-26.314-31.783-26.314h-40.38c14.374 0 26.026 10.083 26.026 22.521v18.214h-143.817c-10.926 0-19.784 8.858-19.784 19.784s8.857 19.784 19.784 19.784h143.806c-.003 1.744-.006 3.587-.009 5.402-.013 6.905 2.158 13.692 6.438 19.11 5.723 7.247 9.072 16.009 9.072 25.449v122.617c0 24.951-23.374 45.178-52.208 45.178h-119.645c-28.834 0-52.208-20.227-52.208-45.178v42.592c0 29.154 28.545 52.787 63.757 52.787h146.11c35.212 0 63.757-23.633 63.757-52.787v-173.35c0-14.709-7.273-28.008-18.996-37.58z" fill="#a6aaed"/><path d="m329.906 252.432c.026-.349.046-47.566.056-75.303h-181.01c.01 27.737.03 74.954.056 75.303-9 8.053-14.583 19.242-14.583 31.616v145.836c0 24.527 21.914 44.41 48.947 44.41h112.17c27.033 0 48.947-19.883 48.947-44.41v-145.836c.001-12.374-5.583-23.563-14.583-31.616z" fill="#d789b9"/><path d="m344.49 429.884v-145.836c0-12.374-5.584-23.563-14.584-31.616.026-.35.046-47.567.056-75.303h-18.745v17.276h-143.818c-8.406 0-15.569 5.252-18.435 12.645.002 4.865.005 9.697.008 14.298 2.871 7.383 10.029 12.625 18.427 12.625h143.806c-.003 1.743-.006 3.586-.009 5.402-.013 6.904 2.158 13.691 6.438 19.109 5.723 7.248 9.072 16.009 9.072 25.449v122.617c0 24.952-23.374 45.178-52.209 45.178h-119.644c-5.305 0-10.423-.69-15.247-1.963 8.041 14.541 24.613 24.527 43.765 24.527h112.17c27.034.002 48.949-19.881 48.949-44.408z" fill="#c668b9"/><path d="m72.191 24.773 8.627 24.257c.369 1.039 1.101 1.862 2.023 2.277l21.552 9.71c3.045 1.372 3.045 6.223 0 7.595l-21.552 9.71c-.923.416-1.654 1.239-2.023 2.277l-8.627 24.257c-1.219 3.427-5.529 3.427-6.748 0l-8.626-24.256c-.369-1.039-1.101-1.862-2.023-2.277l-21.552-9.71c-3.045-1.372-3.045-6.223 0-7.595l21.552-9.71c.923-.416 1.654-1.239 2.023-2.277l8.627-24.257c1.218-3.428 5.529-3.428 6.747-.001z" fill="#e8c2d8"/><path d="m459.509 40.465c0 10.403-8.434 18.837-18.837 18.837-10.404 0-18.837-8.434-18.837-18.837 0-10.404 8.434-18.838 18.837-18.838 10.404.001 18.837 8.435 18.837 18.838z" fill="#d789b9"/><path d="m481.042 114.447c0 4.406-3.572 7.977-7.977 7.977-4.406 0-7.977-3.572-7.977-7.977 0-4.406 3.572-7.977 7.977-7.977 4.406 0 7.977 3.571 7.977 7.977z" fill="#d789b9"/><path d="m443.887 129.343 6.399 17.994c.274.77.816 1.381 1.501 1.689l15.987 7.203c2.259 1.017 2.259 4.616 0 5.634l-15.987 7.203c-.685.308-1.227.919-1.501 1.689l-6.399 17.994c-.904 2.542-4.101 2.542-5.005 0l-6.399-17.994c-.274-.771-.816-1.381-1.501-1.689l-15.987-7.203c-2.259-1.017-2.259-4.616 0-5.634l15.987-7.203c.685-.309 1.227-.919 1.501-1.689l6.399-17.994c.903-2.542 4.101-2.542 5.005 0z" fill="#e8c2d8"/><path d="m444.686 272.092c-14.501-9.174-34.102-13.741-61.382-14.259-3.08-8.889-8.448-17.094-15.881-24.102v-53.746c0-14.411-9.688-26.892-23.7-32.78 3.86-3.334 7.485-7.068 10.743-11.26 17.679-22.745 19.954-52.454 18.75-73.373-.429-7.443-4.185-14.441-10.307-19.199-6.121-4.758-13.835-6.672-21.149-5.25-14.596 2.834-33.047 8.465-48.851 19.621-4.548-20.443-16.811-37.747-27.392-49.531-4.697-5.232-11.545-8.213-18.835-8.213-.119 0-.238.001-.357.002-7.424.099-14.337 3.278-18.967 8.721-12.729 14.964-27.828 38.481-27.465 65.54.062 4.691.598 9.263 1.495 13.688-2.323-.35-4.697-.54-7.116-.54-26.258 0-47.62 21.363-47.62 47.62 0 3.054.298 6.038.853 8.932-20.322 2.478-36.013 17.684-36.013 36.028.019 32.881.038 47.281.06 53.683-12.276 11.545-18.976 26.335-18.976 42.12v173.349c0 34.659 33.118 62.856 73.826 62.856h146.11c40.708 0 73.827-28.198 73.827-62.856v-.411c49.478-4.98 88.441-53.613 88.441-112.693 0-29.798-10.125-51.312-30.094-63.947zm-99.087-214.2c.315-.061.636-.091.962-.091 1.345 0 2.756.514 3.99 1.473 1.533 1.192 2.466 2.816 2.561 4.457.824 14.306.03 41.105-14.545 59.856-7.034 9.05-16.594 15.467-26.395 20.014h-11.568c.886-3.626 1.368-7.407 1.368-11.301 0-5.286-.879-10.368-2.476-15.123 5.728-8.986 13.502-18.073 24.078-26.054 2.664-2.01 3.193-5.799 1.183-8.462s-5.797-3.194-8.461-1.183c-9.615 7.256-17.155 15.262-23.087 23.344-2.28-3.215-4.947-6.135-7.935-8.694 1.663-3.269 3.614-6.418 5.911-9.373 14.573-18.75 40.347-26.132 54.414-28.863zm-109.69 54.067c4.88-4.431 11.348-7.141 18.443-7.141 15.153 0 27.481 12.328 27.481 27.482 0 4.028-.877 7.853-2.442 11.301h-38.29c.51-2.782.79-5.643.79-8.571 0-8.366-2.176-16.231-5.982-23.071zm6.788-90.187c.852-1.001 2.308-1.612 3.896-1.633h.086c1.556 0 2.991.568 3.855 1.529 8.858 9.867 23.763 29.688 24.056 51.598.009.704-.013 1.404-.032 2.104-2.694 3.585-5.015 7.335-7.008 11.185-4.194-1.212-8.618-1.874-13.197-1.874-3.88 0-7.65.473-11.261 1.355-.427-8.474.262-17.754 2.776-27.593.826-3.232-1.125-6.522-4.358-7.349-3.235-.826-6.522 1.125-7.349 4.358-3.266 12.778-3.864 24.657-2.949 35.263-2.358 1.322-4.592 2.841-6.683 4.529-2.653-6.662-4.401-13.824-4.5-21.249-.293-21.909 14.076-42.124 22.668-52.223zm-48.425 85.777c15.153 0 27.481 12.328 27.481 27.482 0 2.992-.482 5.873-1.371 8.571h-52.219c-.889-2.697-1.372-5.578-1.372-8.571-.001-15.154 12.327-27.482 27.481-27.482zm171.929 341.595c0 23.555-24.084 42.718-53.689 42.718h-146.11c-29.604 0-53.688-19.163-53.688-42.718v-173.35c0-11.152 5.432-21.728 15.295-29.781 2.436-1.988 3.795-4.993 3.696-8.117-.032-2.304-.062-35.786-.075-57.911 0-8.806 9.943-16.245 21.714-16.245h172.228c11.77 0 21.713 7.44 21.713 16.245v56.449c0 .253-.016.562-.048.975-.264 3.296 1.107 6.512 3.669 8.604 9.864 8.053 15.295 18.63 15.295 29.781zm20.138-143.321c26.89 2.16 37.66 12.997 37.66 36.632 0 27.948-16.103 51.413-37.66 57.53zm0 122.643v-16.062c28.265-6.136 49.743-35.149 49.743-69.948 0-38.005-25.861-47.004-49.743-48.76v-15.617c48.962 1.646 68.303 18.336 68.303 57.961 0 47.839-29.948 87.346-68.303 92.426z" fill="#3c122c"/><path d="m305.703 212.285h-132.492c-3.336 0-6.042-2.705-6.042-6.042s2.705-6.042 6.042-6.042h132.492c3.336 0 6.042 2.705 6.042 6.042s-2.706 6.042-6.042 6.042z" fill="#3c122c"/><path d="m305.703 238.111h-132.492c-3.336 0-6.042-2.705-6.042-6.041s2.705-6.042 6.042-6.042h132.492c3.336 0 6.042 2.705 6.042 6.042 0 3.336-2.706 6.041-6.042 6.041z" fill="#3c122c"/><path d="m162.442 366.572c-5.561 0-10.069-4.508-10.069-10.069v-8.632c0-5.561 4.508-10.069 10.069-10.069s10.069 4.508 10.069 10.069v8.632c0 5.56-4.508 10.069-10.069 10.069z" fill="#fff"/><path d="m161.822 319.61c-5.477 0-9.965-4.389-10.063-9.888-.144-7.967.223-18.338 4.366-27.902 11.874-27.424 42.647-25.482 63.009-24.196l.586.036c5.55.35 9.765 5.132 9.416 10.683-.35 5.551-5.129 9.777-10.683 9.416l-.588-.037c-20.968-1.326-37.468-1.272-43.261 12.102-2.591 5.98-2.824 13.231-2.711 19.536.1 5.56-4.326 10.149-9.886 10.248-.062.001-.124.002-.185.002z" fill="#fff"/><g fill="#3c122c"><path d="m253.567 415.304c-3.336 0-6.042-2.705-6.042-6.042v-14.481c0-3.336 2.705-6.042 6.042-6.042 3.336 0 6.042 2.705 6.042 6.042v14.481c-.001 3.337-2.706 6.042-6.042 6.042z"/><path d="m286.069 367.545c-3.336 0-6.042-2.705-6.042-6.042v-14.482c0-3.336 2.705-6.042 6.042-6.042s6.042 2.705 6.042 6.042v14.482c0 3.337-2.705 6.042-6.042 6.042z"/><path d="m310.389 406.869c-3.336 0-6.042-2.705-6.042-6.041v-14.482c0-3.336 2.705-6.042 6.042-6.042 3.336 0 6.042 2.705 6.042 6.042v14.482c-.001 3.336-2.706 6.041-6.042 6.041z"/><path d="m350.801 317.649c-.063-12.612-.129-25.656-.129-38.559 0-11.234-6.337-18.957-11.928-25.771-.868-1.058-1.704-2.078-2.506-3.093 0-22.612-.007-47.952-.229-70.191-.033-3.309-2.722-5.975-6.031-5.98h-181.682c-3.309.006-5.997 2.672-6.031 5.98-.222 22.239-.229 47.579-.229 70.191-.802 1.015-1.637 2.035-2.506 3.093-5.591 6.814-11.928 14.537-11.928 25.771 0 12.902-.066 25.946-.129 38.559-.19 37.591-.385 76.455 1.16 115.188-.617 24.654 23.349 46.091 47.124 46.126h126.758c23.775-.035 47.742-21.472 47.124-46.126 1.547-38.733 1.352-77.598 1.162-115.188zm-48.744 149.239h-125.839c-17.584.067-36.198-16.026-35.506-34.418-1.54-38.498-1.344-77.268-1.156-114.76.064-12.629.13-25.688.13-38.62 0-6.911 4.257-12.1 9.187-18.107 1.338-1.632 2.723-3.319 4.038-5.074.785-1.045 1.209-2.317 1.209-3.624 0-21.108.175-66.158.175-66.158h169.685s.175 45.05.175 66.158c0 1.307.424 2.579 1.209 3.624 1.316 1.755 2.7 3.442 4.038 5.074 4.93 6.008 9.187 11.196 9.187 18.107 0 12.933.066 25.991.13 38.62.188 37.492.384 76.262-1.156 114.76.691 18.392-17.922 34.485-35.506 34.418z"/></g></g></svg>