<svg id="Capa_1" enable-background="new 0 0 512 512" height="512" viewBox="0 0 512 512" width="512" xmlns="http://www.w3.org/2000/svg"><g><g><path d="m480.229 302.14c0-66.031-45.06-79.107-100.645-79.107-3.538 0-7.033.054-10.477.17l-2.771-58.052h-247.632l-14.26 307.868c-.73 15.755 12.564 28.906 29.221 28.906h218.145c16.672 0 29.971-13.174 29.219-28.942l-2.448-51.297c.335.004.668.015 1.004.015 55.584-.001 100.644-53.53 100.644-119.561zm-109.381-42.481c1.829-.051 3.674-.08 5.544-.08 35.134 0 63.615 8.265 63.615 50.002 0 41.56-28.243 75.272-63.171 75.557z" fill="#faf1a9"/><path d="m321.448 467.547h-157.421c-12.02 0-21.613-11.514-21.087-25.307l10.291-269.549h178.7l10.602 269.516c.543 13.806-9.054 25.34-21.085 25.34z" fill="#f6e06e"/><path d="m342.533 442.207-10.602-269.516h-40.062l8.355 232.284c.428 11.899-7.135 21.839-16.616 21.839h-124.055c-7.092 0-13.111-5.563-15.514-13.347l-1.098 28.772c-.527 13.794 9.067 25.307 21.086 25.307h157.421c12.031.001 21.628-11.533 21.085-25.339z" fill="#dda86a"/><path d="m314.282 70.704c-14.515-20.87-39.469-34.654-67.835-34.654-29.198 0-54.786 14.602-69.089 36.506-9.583-9.472-23.064-15.38-38.011-15.38-29.073 0-52.642 22.314-52.642 49.841 0 11.017 3.783 21.192 10.175 29.443-10.456 9.109-17.012 22.168-17.012 36.681 0 27.526 23.569 49.841 52.642 49.841 13.454 0 25.724-4.785 35.03-12.648 7.992 4.632 17.388 7.305 27.445 7.305 20.784 0 38.749-11.407 47.307-27.967 1.376.066 2.762.099 4.155.099 10.53 0 20.581-1.919 29.813-5.373 10.367 6.514 22.8 10.318 36.176 10.318 36.182 0 65.514-27.771 65.514-62.027 0-33.672-28.341-61.057-63.668-61.985z" fill="#fff"/><path d="m314.282 70.704c-14.515-20.87-4.061-1.913 5.229 4.641 13.192 9.307 21.66 23.729 21.66 39.925 0 28.083-25.455 50.848-56.855 50.848-11.607 0-22.397-3.117-31.394-8.458-8.012 2.831-16.735 4.404-25.873 4.404-1.21 0-2.412-.027-3.606-.081-7.427 13.575-23.018 22.926-41.055 22.926-8.728 0-16.882-2.191-23.818-5.989-8.076 6.446-18.724 10.369-30.4 10.369-22.473 0-41.143-14.517-44.958-33.635-2.156 5.442-3.345 11.33-3.345 17.484 0 27.526 23.569 49.841 52.642 49.841 13.454 0 25.724-4.785 35.03-12.648 7.992 4.632 17.388 7.305 27.445 7.305 20.784 0 38.749-11.407 47.307-27.967 1.376.066 2.762.099 4.155.099 10.53 0 20.581-1.919 29.813-5.373 10.367 6.514 22.8 10.318 36.175 10.318 36.182 0 65.514-27.771 65.514-62.027.002-33.669-28.34-61.054-63.666-61.982z" fill="#e1bdfc"/><path d="m469.61 94.528 8.277 23.274c.354.996 1.056 1.786 1.941 2.185l20.678 9.316c2.921 1.316 2.921 5.971 0 7.287l-20.678 9.316c-.885.399-1.587 1.188-1.941 2.185l-8.277 23.274c-1.169 3.288-5.305 3.288-6.474 0l-8.277-23.274c-.354-.996-1.056-1.786-1.941-2.185l-20.678-9.316c-2.921-1.316-2.921-5.971 0-7.287l20.678-9.316c.885-.399 1.587-1.189 1.941-2.185l8.277-23.274c1.169-3.288 5.304-3.288 6.474 0z" fill="#faf1a9"/><ellipse cx="410.121" cy="18.074" fill="#f6e06e" rx="18.074" ry="18.074" transform="matrix(.232 -.973 .973 .232 297.577 412.864)"/><circle cx="17.099" cy="114.274" fill="#f6e06e" r="7.796"/><path d="m58.842 1.91 6.14 17.264c.263.739.783 1.325 1.44 1.621l15.339 6.911c2.167.976 2.167 4.429 0 5.405l-15.339 6.911c-.657.296-1.177.882-1.44 1.621l-6.14 17.264c-.868 2.439-3.935 2.439-4.802 0l-6.14-17.265c-.263-.739-.783-1.325-1.44-1.621l-15.339-6.911c-2.167-.976-2.167-4.429 0-5.405l15.339-6.911c.657-.296 1.177-.882 1.44-1.621l6.14-17.263c.867-2.439 3.935-2.439 4.802 0z" fill="#faf1a9"/></g><g><g fill="#3c122c"><path d="m490.306 302.14c0-33.983-11.495-58.487-34.167-72.831-17.635-11.157-41.96-16.353-76.554-16.353-.297 0-.582.006-.877.007l-2.021-42.348c7.18-11.026 11.34-24.02 11.34-37.927 0-19.009-7.686-36.943-21.643-50.498-12.598-12.236-29.063-19.685-46.805-21.268-17.211-21.972-44.179-34.948-73.132-34.948-27.876 0-53.619 11.837-70.852 32.132-10.513-7.155-23.045-11.006-36.248-11.006-34.583 0-62.719 26.878-62.719 59.917 0 9.957 2.522 19.553 7.354 28.177-9.101 10.638-14.191 24.065-14.191 37.946 0 23.894 14.72 44.557 35.947 54.17l-11.36 245.241c-.468 10.098 3.189 19.759 10.297 27.204 7.429 7.782 17.995 12.245 28.989 12.245h218.146c11.004 0 21.578-4.47 29.008-12.264 7.109-7.455 10.757-17.128 10.275-27.234l-1.967-41.212c56.602-5.685 101.18-61.432 101.18-129.15zm-109.082-36.448c37.846.957 52.737 13.522 52.737 43.889 0 34.135-20.481 62.582-47.378 68.413zm-291.28-92.552c0-11.14 4.814-21.469 13.554-29.083 4.026-3.508 4.617-9.547 1.347-13.769-5.276-6.809-8.064-14.856-8.064-23.272 0-21.926 19.095-39.764 42.566-39.764 11.809 0 22.792 4.429 30.927 12.47 2.152 2.126 5.143 3.176 8.154 2.853 3.008-.321 5.713-1.977 7.367-4.51 13.059-19.999 35.733-31.939 60.652-31.939 24.087 0 46.354 11.339 59.563 30.331 1.83 2.631 4.803 4.235 8.007 4.319 30.2.794 53.856 23.595 53.856 51.911 0 28.646-24.869 51.951-55.438 51.951-11.025 0-21.68-3.034-30.815-8.773-2.661-1.671-5.949-2.007-8.892-.905-8.396 3.141-17.239 4.734-26.282 4.734-1.221 0-2.456-.03-3.673-.088-3.945-.197-7.625 1.936-9.434 5.438-7.069 13.678-22.124 22.517-38.356 22.517-7.937 0-15.68-2.057-22.392-5.947-3.681-2.135-8.306-1.726-11.556 1.021-7.838 6.622-17.969 10.269-28.527 10.269-23.469 0-42.564-17.838-42.564-39.764zm242.521 269.462c.178 4.524-1.324 8.787-4.122 11.697-1.391 1.447-3.717 3.172-6.896 3.172h-157.42c-3.176 0-5.5-1.722-6.891-3.167-2.795-2.904-4.3-7.161-4.127-11.68l8.256-216.247c2.526-1.246 4.973-2.65 7.313-4.223 8.235 3.652 17.242 5.56 26.406 5.56 21.815 0 41.58-10.537 53.016-27.88 9.284-.148 18.4-1.628 27.177-4.407 11.337 6.139 24.117 9.364 37.259 9.364 3.614 0 7.165-.259 10.645-.729zm33.767 43.227c-3.646 3.824-8.903 6.018-14.422 6.018h-218.146c-5.514 0-10.768-2.19-14.413-6.008-3.268-3.423-4.952-7.811-4.742-12.355l11.153-240.791c2.25.235 4.533.364 6.847.364 2.81 0 5.599-.19 8.354-.544l-7.992 209.341c-.38 9.964 3.172 19.595 9.746 26.424 5.8 6.026 13.403 9.344 21.41 9.344h157.421c8.013 0 15.621-3.323 21.423-9.357 6.576-6.84 10.123-16.482 9.731-26.455l-9.567-243.214c5.132-2.177 9.972-4.869 14.428-8.032l13.501 282.898c.217 4.547-1.464 8.94-4.732 12.367zm21.933-74.7-.998-20.911c33.313-6.087 58.886-39.927 58.886-80.637 0-21.362-7.215-36.758-21.446-45.761-10.356-6.552-24.402-9.833-43.961-10.241l-.977-20.47c65.112.017 90.484 19.376 90.484 69.031 0 56.871-36.058 103.747-81.988 108.989z"/><path d="m215.329 427.157c-14.272 0-25.883-11.611-25.883-25.883s11.611-25.884 25.883-25.884 25.884 11.611 25.884 25.884c-.001 14.272-11.612 25.883-25.884 25.883zm0-39.676c-7.604 0-13.792 6.187-13.792 13.792 0 7.604 6.187 13.792 13.792 13.792s13.792-6.187 13.792-13.792-6.187-13.792-13.792-13.792z"/><path d="m270.278 336.767c-12.522 0-22.71-10.188-22.71-22.71s10.188-22.709 22.71-22.709 22.709 10.187 22.709 22.709c.001 12.523-10.186 22.71-22.709 22.71zm0-33.327c-5.855 0-10.618 4.763-10.618 10.618s4.763 10.618 10.618 10.618c5.854 0 10.617-4.763 10.617-10.618.001-5.855-4.762-10.618-10.617-10.618z"/><path d="m230.11 291.944c-12.522 0-22.709-10.188-22.709-22.71s10.188-22.709 22.709-22.709c12.522 0 22.71 10.188 22.71 22.709 0 12.522-10.188 22.71-22.71 22.71zm0-33.328c-5.854 0-10.618 4.763-10.618 10.618s4.763 10.618 10.618 10.618 10.618-4.763 10.618-10.618-4.763-10.618-10.618-10.618z"/><path d="m225.891 152.997c-3.339 0-6.046-2.707-6.046-6.046 0-11.645-9.474-21.119-21.119-21.119s-21.119 9.474-21.119 21.119c0 3.339-2.707 6.046-6.046 6.046s-6.046-2.707-6.046-6.046c0-18.313 14.898-33.211 33.211-33.211s33.211 14.898 33.211 33.211c-.001 3.339-2.708 6.046-6.046 6.046z"/><path d="m283.241 122.644c-3.339 0-6.046-2.707-6.046-6.046 0-5.76-4.686-10.447-10.447-10.447-5.76 0-10.447 4.686-10.447 10.447 0 3.339-2.707 6.046-6.046 6.046s-6.046-2.707-6.046-6.046c0-12.428 10.111-22.538 22.539-22.538s22.538 10.111 22.538 22.538c.001 3.339-2.706 6.046-6.045 6.046z"/><path d="m297.193 255.923c-3.339 0-6.046-2.707-6.046-6.046v-12.364c0-3.339 2.707-6.046 6.046-6.046s6.046 2.707 6.046 6.046v12.364c0 3.339-2.707 6.046-6.046 6.046z"/><path d="m277.582 388.769c-3.339 0-6.046-2.707-6.046-6.046v-12.364c0-3.339 2.707-6.046 6.046-6.046s6.046 2.707 6.046 6.046v12.364c0 3.339-2.707 6.046-6.046 6.046z"/><path d="m304.726 406.883c-3.339 0-6.046-2.707-6.046-6.046v-12.364c0-3.339 2.707-6.046 6.046-6.046s6.046 2.707 6.046 6.046v12.364c0 3.339-2.707 6.046-6.046 6.046z"/></g><path d="m178.059 353.54c-.395 0-.793-.023-1.195-.07-5.527-.653-9.478-5.663-8.825-11.189.805-6.808.743-14.028.68-21.671-.067-7.919-.136-16.108.815-24.148.653-5.527 5.665-9.479 11.19-8.823 5.526.653 9.477 5.663 8.823 11.19-.801 6.777-.74 13.983-.676 21.612.067 7.932.136 16.135-.817 24.204-.606 5.125-4.958 8.895-9.995 8.895z" fill="#fff"/><path d="m180.612 275.031c-.111 0-.222-.002-.334-.006-5.562-.181-9.924-4.837-9.743-10.399l.474-14.538c.181-5.562 4.825-9.951 10.399-9.743 5.562.181 9.924 4.837 9.743 10.399l-.474 14.538c-.177 5.451-4.652 9.749-10.065 9.749z" fill="#fff"/></g></g></svg>