<svg id="Capa_1" enable-background="new 0 0 512 512" height="512" viewBox="0 0 512 512" width="512" xmlns="http://www.w3.org/2000/svg"><g><g><path d="m350.672 192.545-30.296-39.866c-4.833-6.359-7.458-14.2-7.458-22.274v-94.01h-127.813v94.01c0 8.074-2.626 15.915-7.458 22.274l-30.296 39.865c-12.752 16.78-19.69 37.465-19.711 58.769l-.244 209.967c-.023 22.42 17.629 40.608 39.41 40.608h164.41c21.781 0 39.432-18.187 39.41-40.608l-.244-209.968c-.02-21.302-6.958-41.987-19.71-58.767z" fill="#c1e5ef"/><path d="m324.337 204.764-24.286-31.958c-3.65-5.592-10.958-13.253-12.701-24.721v-18.044c0-6.713-5.236-12.152-11.685-12.138l-50.895.111c-6.376.014-11.559 5.356-11.636 11.993l-.271 18.613c-2.592 11.806-12.275 21.143-15.925 26.735l-22.934 30.354c-9.631 14.757-16.411 30.274-16.428 49.009l-.184 184.65c0 23.29 1.608 35.711 29.764 35.711h124.17c29.764 0 29.764-14.227 29.764-35.711l-.184-184.65c-.016-18.734-6.939-35.197-16.569-49.954z" fill="#fff"/><path d="m339.671 399.033h-182.066v-105.038h71.244v39.58h29.532v-39.58h21.312v64.85l31.359-.305v-64.545h28.619z" fill="#96b4eb"/><path d="m303.04 73.898h-108.056c-13.82 0-25.023-11.203-25.023-25.023v-13.741c0-13.82 11.203-25.023 25.023-25.023h108.056c13.82 0 25.023 11.203 25.023 25.023v13.741c0 13.82-11.203 25.023-25.023 25.023z" fill="#96b4eb"/><path d="m334.61 255.183c-.014-15.283-5.072-30.483-15.465-46.464l-8.092-10.648c2.391 8.407 3.65 17.256 3.658 26.236l.065 63.692h19.867z" fill="#e1bdfc"/><path d="m334.655 300.132h-17.389v45.329c0 3.604-.877 7.006-2.421 10.012l.038 37.12h19.864z" fill="#8286ea"/><path d="m281.054 145.369v-14.869c0-1.716-.643-3.303-1.811-4.468-1.039-1.037-2.383-1.647-3.795-1.603l-4.552.01c.797 4.941 2.582 9.624 5.265 13.629z" fill="#e1bdfc"/><path d="m146.487 483.262c5.486 5.492 12.703 8.517 20.319 8.517h164.41c7.777 0 15.102-3.135 20.626-8.827 5.601-5.771 8.682-13.464 8.674-21.66l-.245-209.965c-.019-19.008-6.287-37.71-17.65-52.663l-30.296-39.865c-6.138-8.077-9.518-18.16-9.518-28.392v-46.399c-.015 0-.03.001-.045.001h-32.35v28.298l5.01-.011h.039c4.64 0 9.025 1.827 12.352 5.147 3.466 3.458 5.374 8.095 5.374 13.057v17.563c1.257 7.447 5.495 13.243 8.913 17.918.962 1.316 1.873 2.562 2.678 3.78l24.159 31.792c.088.115.171.234.25.355 11.797 18.078 17.54 35.5 17.556 53.264l.184 184.65c0 21.491 0 41.784-35.83 41.784h-124.17c-32.021 0-35.594-16.053-35.817-39.078-5.138-1.344-9.782-4.205-13.571-8.164l-.031 26.929c-.009 8.362 3.18 16.164 8.979 21.969z" fill="#a6aaed"/><path d="m186.927 469.472h124.17c23.697 0 23.697-8.072 23.697-29.645l-.035-35.101h-19.863l.003 3.164c.017 19.603-13.59 35.505-30.38 35.505h-121.276c.171 19.706 2.307 26.077 23.684 26.077z" fill="#e1bdfc"/><path d="m80.982 55.668 8.305 23.354c.356 1 1.06 1.792 1.948 2.193l20.749 9.348c2.931 1.321 2.931 5.991 0 7.312l-20.749 9.348c-.888.4-1.592 1.193-1.948 2.193l-8.305 23.354c-1.173 3.299-5.323 3.299-6.496 0l-8.306-23.354c-.356-1-1.06-1.792-1.948-2.193l-20.749-9.348c-2.931-1.321-2.931-5.991 0-7.312l20.749-9.348c.888-.4 1.592-1.193 1.948-2.193l8.306-23.354c1.173-3.299 5.323-3.299 6.496 0z" fill="#c1e5ef"/><circle cx="426.924" cy="133.193" fill="#96b4eb" r="18.136"/><ellipse cx="29.016" cy="194.76" fill="#96b4eb" rx="7.823" ry="7.823"/><path d="m466.177 227.606 6.161 17.323c.264.742.786 1.329 1.445 1.626l15.391 6.934c2.174.98 2.174 4.444 0 5.424l-15.391 6.934c-.659.297-1.181.885-1.445 1.626l-6.161 17.323c-.87 2.447-3.948 2.447-4.819 0l-6.161-17.323c-.264-.742-.786-1.329-1.445-1.626l-15.391-6.934c-2.174-.98-2.174-4.444 0-5.424l15.391-6.934c.659-.297 1.181-.885 1.445-1.626l6.161-17.323c.871-2.447 3.949-2.447 4.819 0z" fill="#c1e5ef"/></g><g><g><g fill="#3c122c"><path d="m380.493 251.304c-.023-23.391-7.755-46.432-21.771-64.876l-30.296-39.865c-3.48-4.58-5.397-10.318-5.397-16.157v-52.796c9.147-6.409 15.145-17.021 15.145-29.013v-13.185c0-19.526-15.886-35.412-35.412-35.412h-107.501c-19.526 0-35.412 15.886-35.412 35.412v13.186c0 11.992 5.998 22.604 15.146 29.014v52.795c0 5.838-1.917 11.576-5.398 16.157l-30.295 39.865c-14.016 18.443-21.748 41.483-21.772 64.874l-.244 209.969c-.014 13.769 5.276 26.654 14.895 36.283 9.306 9.315 21.604 14.445 34.625 14.445h164.41c13.292 0 25.771-5.315 35.137-14.965 9.289-9.571 14.397-22.272 14.384-35.765zm-200.422-215.892c0-8.376 6.814-15.19 15.19-15.19h107.501c8.376 0 15.19 6.814 15.19 15.19v13.186c0 8.376-6.814 15.19-15.19 15.19h-107.501c-8.376 0-15.19-6.814-15.19-15.19zm171.771 447.539c-5.523 5.692-12.849 8.827-20.626 8.827h-164.41c-7.617 0-14.834-3.025-20.319-8.517-5.799-5.804-8.988-13.607-8.979-21.968l.244-209.969c.02-19.008 6.288-37.71 17.651-52.661l30.295-39.865c6.139-8.078 9.519-18.161 9.519-28.392v-46.398c.015 0 .03.001.044.001h107.501c.015 0 .03-.001.045-.001v46.398c0 10.231 3.381 20.315 9.518 28.392l30.296 39.865c11.363 14.953 17.631 33.655 17.65 52.663l.245 209.965c.008 8.196-3.072 15.889-8.674 21.66z"/><path d="m329.188 201.907c-.079-.121-24.409-32.147-24.409-32.147-.805-1.218-1.716-2.464-2.678-3.78-3.418-4.675-7.656-10.471-8.913-17.918v-17.562c0-4.962-1.909-9.599-5.374-13.057-3.328-3.32-7.713-5.147-12.352-5.147-.013 0-.026 0-.039 0l-50.895.111c-9.64.021-17.576 8.091-17.688 17.97l-.263 17.965c-1.767 7.217-6.822 13.601-10.903 18.757-1.534 1.937-2.866 3.62-3.924 5.214 0 0-22.98 30.422-23.056 30.539-12.028 18.43-17.399 34.566-17.414 52.319l-.185 184.656c0 24.462 2.57 41.778 35.83 41.778h124.17c35.83 0 35.83-20.293 35.83-41.784l-.184-184.65c-.013-17.763-5.756-35.186-17.553-53.264zm-150.446 7.75 22.807-30.186c.084-.111 2.23-3.062 3.638-4.841 4.7-5.937 11.137-14.067 13.372-24.25.088-.398.134-.805.14-1.212l.273-18.632c.038-3.299 2.542-5.989 5.582-5.995l50.896-.111c1.412-.045 2.756.566 3.795 1.603 1.168 1.165 1.811 2.752 1.811 4.468v18.045c0 .305.023.61.069.911 1.609 10.593 7.143 18.161 11.183 23.686.913 1.25 1.777 2.43 2.435 3.439.079.121 24.404 32.139 24.404 32.139 10.393 15.981 15.452 31.181 15.465 46.464l.033 32.816h-23.444c-3.35 0-6.066 2.716-6.066 6.066v51.396c0 5.439-4.424 9.863-9.863 9.863s-9.863-4.424-9.863-9.863v-51.395c0-3.35-2.716-6.067-6.066-6.067l-19.837-.001c-1.608 0-3.152.639-4.289 1.777-1.138 1.137-1.777 2.681-1.777 4.29v26.75c0 5.439-4.424 9.863-9.863 9.863-5.438 0-9.863-4.424-9.863-9.863v-26.75c0-3.35-2.716-6.066-6.067-6.066h-64.264l.033-32.817c.011-15.21 4.739-29.258 15.326-45.527zm64.832 133.154c12.129 0 21.996-9.868 21.996-21.996v-20.683h7.704v45.329c0 12.129 9.867 21.996 21.996 21.996s21.996-9.867 21.996-21.996v-45.329h17.389l.092 92.461h-171.471l.092-92.461h58.209v20.683c.001 12.129 9.868 21.996 21.997 21.996zm67.523 126.661h-124.17c-22.618 0-23.697-7.124-23.697-29.639l.035-35.107h171.495l.035 35.101c-.001 21.573-.001 29.645-23.698 29.645z"/></g><path d="m255.163 46.502h-26.285c-5.584 0-10.111-4.527-10.111-10.111s4.527-10.111 10.111-10.111h26.285c5.584 0 10.111 4.527 10.111 10.111s-4.527 10.111-10.111 10.111z" fill="#fff"/><path d="m201.819 46.502h-5.148c-5.584 0-10.111-4.527-10.111-10.111s4.527-10.111 10.111-10.111h5.148c5.584 0 10.111 4.527 10.111 10.111s-4.527 10.111-10.111 10.111z" fill="#fff"/><g fill="#3c122c"><path d="m188.518 355.446c-3.35 0-6.067-2.716-6.067-6.066v-11.141c0-3.35 2.716-6.066 6.067-6.066 3.35 0 6.066 2.716 6.066 6.066v11.141c.001 3.35-2.716 6.066-6.066 6.066z"/><path d="m220.257 375.68c-3.35 0-6.066-2.716-6.066-6.066v-11.141c0-3.35 2.716-6.066 6.066-6.066s6.066 2.716 6.066 6.066v11.141c0 3.349-2.716 6.066-6.066 6.066z"/></g></g></g></g></svg>