<svg id="Capa_1" enable-background="new 0 0 512 512" height="512" viewBox="0 0 512 512" width="512" xmlns="http://www.w3.org/2000/svg"><g><g><path d="m242.811 178.82c-6.153 0-12.052-3.467-14.867-9.395l-45.483-95.765-102.27-35.683c-8.555-3.052-13.016-12.461-9.964-21.016s12.459-13.018 21.016-9.965l108.68 37.97c4.105 1.464 7.46 4.498 9.33 8.435l48.403 101.913c3.897 8.204.405 18.015-7.8 21.911-2.278 1.082-4.681 1.595-7.045 1.595z" fill="#d789b9"/><g fill="#fff"><path d="m126.21 55.004-27.12-10.17v-35.595l27.12 9.04z"/><path d="m177.629 73.095-27.12-10.17v-35.595l27.12 9.04z"/><path d="m200.553 110.54-12.401-26.176 24.769-25.564 13.187 25.364z"/></g><path d="m398.203 126.534h-96.081-31.575-96.081c-13.833 0-25.047 11.214-25.047 25.047v325.307c0 13.832 11.214 25.046 25.047 25.046h96.081 31.575 96.081c13.833 0 25.047-11.214 25.047-25.046v-325.306c0-13.834-11.214-25.048-25.047-25.048z" fill="#e8c2d8"/><path d="m150.257 254.585h271.275v43.6h-271.275z" fill="#fff"/><path d="m423.608 253.645h-276.622v-98.919c0-12.71 10.303-23.013 23.013-23.013h230.596c12.71 0 23.013 10.303 23.013 23.013z" fill="#96b4eb"/><path d="m372.114 147.939v107.422h51.137v-103.401c0-14.043-10.754-25.426-24.02-25.426h-46.651c10.788 0 19.534 9.583 19.534 21.405z" fill="#8286ea"/><path d="m372.114 254.228h51.137v45.307h-51.137z" fill="#e1bdfc"/><path d="m372.114 298.401v122.756c0 11.822-8.746 21.405-19.535 21.405h-183.626c-10.789 0-19.535-9.583-19.535-21.405v55.352c0 14.043 10.754 25.426 24.02 25.426h225.792c13.266 0 24.02-11.383 24.02-25.426v-178.108z" fill="#d392d8"/><path d="m287.331 347.453c-4.783-7.047-19.765-5.224-33.463 4.073-.769.522-1.515 1.058-2.242 1.603-.386-1.026-.805-2.056-1.262-3.086-6.709-15.135-18.461-24.605-26.248-21.153s-8.66 18.519-1.951 33.654c4.477 10.099 11.198 17.669 17.489 20.567 6.125 4.563 19.336 2.217 31.535-6.064 13.699-9.295 20.925-22.546 16.142-29.594z" fill="#a1e8c3"/><path d="m194.29 389.337c-6.684 21.398-1.055 64.331 20.343 71.014 21.398 6.684 50.462-25.413 57.146-46.81 6.684-21.398-5.245-44.163-26.642-50.846-21.398-6.684-44.163 5.245-50.847 26.642z" fill="#d789b9"/><path d="m51.87 101.948 8.549 24.039c.366 1.029 1.091 1.845 2.005 2.257l21.357 9.622c3.017 1.359 3.017 6.167 0 7.526l-21.357 9.622c-.914.412-1.639 1.228-2.005 2.257l-8.549 24.038c-1.208 3.396-5.479 3.396-6.687 0l-8.549-24.038c-.366-1.029-1.091-1.845-2.005-2.257l-21.357-9.622c-3.017-1.359-3.017-6.167 0-7.526l21.357-9.622c.914-.412 1.639-1.228 2.005-2.257l8.549-24.039c1.208-3.397 5.48-3.397 6.687 0z" fill="#e8c2d8"/><ellipse cx="321.922" cy="19.742" fill="#d789b9" rx="18.668" ry="18.668" transform="matrix(.189 -.982 .982 .189 241.663 332.123)"/><path d="m500.991 127.208c0 4.366-3.539 7.905-7.905 7.905s-7.906-3.539-7.906-7.905 3.539-7.905 7.906-7.905c4.366 0 7.905 3.539 7.905 7.905z" fill="#d789b9"/><path d="m471.071 12.625 6.341 17.831c.271.763.809 1.368 1.487 1.674l15.843 7.138c2.238 1.008 2.238 4.575 0 5.583l-15.842 7.138c-.678.306-1.216.91-1.487 1.674l-6.341 17.832c-.896 2.519-4.064 2.519-4.96 0l-6.342-17.832c-.271-.764-.809-1.368-1.487-1.674l-15.843-7.138c-2.238-1.008-2.238-4.575 0-5.583l15.843-7.138c.678-.306 1.216-.911 1.487-1.674l6.342-17.831c.895-2.519 4.063-2.519 4.959 0z" fill="#e8c2d8"/></g><g><g><path d="m398.203 116.469h-152.31l-31.185-65.659c-2.574-5.42-7.104-9.515-12.794-11.545l-108.641-37.957c-11.673-4.164-24.567 1.945-28.734 13.624-4.166 11.676 1.946 24.566 13.663 28.747l99.887 34.851 18.019 37.939h-21.642c-19.361 0-35.112 15.751-35.112 35.112v325.307c0 19.36 15.751 35.111 35.112 35.111h123.364 4.292 96.081c19.361 0 35.112-15.751 35.112-35.111v-325.306c.001-19.362-15.75-35.113-35.112-35.113zm-305.111-80.387-10.871-3.793c-5.405-1.928-8.235-7.895-6.306-13.299 1.516-4.249 5.526-6.906 9.815-6.906 1.168 0 2.357.198 3.522.612l3.84 1.342zm27.019 9.427-14.941-5.213v-22.038l14.941 5.22zm26.234 9.154-14.156-4.939v-22.026l17.313 6.049zm27.063 9.442-15.459-5.394 3.157-20.91 15.458 5.401zm235.434 77.65-35.285 49.37-37.57-53.372h60.569c4.589-.001 8.826 1.495 12.286 4.002zm-43.577 72.559c1.877 2.668 4.931 4.26 8.194 4.272h.036c3.249 0 6.298-1.569 8.189-4.213l31.502-44.077v77.31h-75.951v-73.112zm-191.227-76.562h133.838c5.413 2.261 9.228 7.607 9.228 13.829v96.024h-157.62v-96.024c0-4.937 2.411-9.31 6.105-12.042 2.588-1.141 5.443-1.787 8.449-1.787zm-14.554 121.932h157.621v32.462h-157.621zm177.75 0h75.951v32.462h-75.951zm-150.401-190.895-1.822-.636 3.154-20.899 9.728 3.399c2.617.933 4.713 2.829 5.904 5.338l1.834 3.862-15.623 15.623zm24.299 2.644 6.533 13.755-15.623 15.622-6.533-13.755zm-3.591 40.957 15.623-15.623 9.357 19.702h-23.043zm90.289 379.48h-123.364c-8.261 0-14.982-6.721-14.982-14.982v-172.664h157.621v172.664c0 8.26-6.721 14.982-14.983 14.982zm100.373 0h-64.333c2.154-4.547 3.365-9.625 3.365-14.982v-172.664h75.951v172.664c0 8.261-6.721 14.982-14.983 14.982z" fill="#3c122c"/><path d="m275.713 198.934h-80.885c-3.335 0-6.039-2.704-6.039-6.039s2.704-6.039 6.039-6.039h80.885c3.335 0 6.039 2.704 6.039 6.039s-2.704 6.039-6.039 6.039z" fill="#3c122c"/><path d="m174.388 236.368c-5.558 0-10.065-4.507-10.065-10.065v-29.409c0-5.558 4.507-10.065 10.065-10.065s10.065 4.507 10.065 10.065v29.409c0 5.559-4.506 10.065-10.065 10.065z" fill="#fff"/><path d="m174.388 180.537c-5.558 0-10.065-4.507-10.065-10.065v-4.767c0-5.558 4.507-10.065 10.065-10.065s10.065 4.507 10.065 10.065v4.767c0 5.558-4.506 10.065-10.065 10.065z" fill="#fff"/><g fill="#3c122c"><path d="m292.327 344.061c-6.366-9.378-22.278-9.15-38.092.101-3.461-6.706-7.925-12.437-12.803-16.368-6.807-5.486-13.827-7.059-19.764-4.425-9.944 4.408-12.744 19.041-7.4 35.421-11.9 5.245-21.57 15.387-25.743 28.746-7.096 22.718-1.848 70.411 24.306 78.581 2.572.803 5.194 1.176 7.84 1.176 24.265 0 50.473-31.468 56.872-51.951 3.618-11.584 2.465-23.535-2.337-33.734 16.545-11.502 23.907-27.548 17.121-37.547zm-65.764-9.65c1.502-.667 4.364.429 7.291 2.788 3.898 3.142 7.646 8.242 10.426 14.105-1.506 1.315-2.897 2.668-4.178 4.044-4.806-.74-9.603-.699-14.245.032-3.911-11.672-1.87-19.827.706-20.969zm39.451 77.33c-5.601 17.932-28.671 43.474-45.323 43.472-1.474 0-2.901-.201-4.258-.625-16.683-5.21-22.476-43.93-16.378-63.45 4.613-14.769 18.285-24.253 33-24.253 3.404 0 6.864.508 10.28 1.576 18.186 5.679 28.359 25.095 22.679 43.28zm2.667-40.321c-4.136-4.927-9.315-9.046-15.349-11.959 1.198-.985 2.499-1.968 3.927-2.937 12.816-8.699 23.289-8.313 25.076-5.679 1.745 2.572-1.582 12.036-13.654 20.575z"/><path d="m230.058 393.617c0 3.591-2.911 6.503-6.503 6.503-3.591 0-6.503-2.912-6.503-6.503s2.911-6.503 6.503-6.503c3.591 0 6.503 2.911 6.503 6.503z"/><path d="m246.825 415.676c0 3.591-2.911 6.503-6.503 6.503s-6.503-2.911-6.503-6.503c0-3.591 2.911-6.503 6.503-6.503 3.591 0 6.503 2.911 6.503 6.503z"/></g></g></g></g></svg>