<svg id="Capa_1" enable-background="new 0 0 512 512" height="512" viewBox="0 0 512 512" width="512" xmlns="http://www.w3.org/2000/svg"><g><g><path d="m441.602 190.015-48.824-58.123v-121.807h-97.862v122.347l-48.376 57.29c-14.849 17.586-22.957 39.881-22.873 62.897l.758 207.422c.085 23.151 18.876 41.874 42.028 41.874h155.547c23.211 0 42.028-18.816 42.028-42.028v-207.863c0-22.655-7.935-44.595-22.426-62.009z" fill="#e8a284"/><path d="m305.112 8.053h78.922v59.532h-78.922z" fill="#9781dd"/><path d="m358.877 10.084h33.901v56.079h-33.901z" fill="#8962de"/><path d="m441.602 190.015-48.824-58.123v-65.729h-33.901v.347c13.442 20.531 11.669 41.327 0 62.294-7.388 12.15 3.832 22.819 10.899 31.984l28.138 36.492c11.586 15.168 17.93 34.278 17.93 54.012v150.585c0 20.218-15.045 36.607-33.603 36.607h-124.366c-17.883 0-32.51-15.224-33.541-34.44h-.113l.205 55.997c.084 23.151 18.876 41.874 42.027 41.874h155.547c23.211 0 42.028-18.817 42.028-42.028v-207.863c0-22.656-7.934-44.595-22.426-62.009z" fill="#d57b84"/><path d="m397.825 264.392c-2.782-27.357-25.887-48.705-53.978-48.705s-51.196 21.348-53.978 48.705h-17.536c-8.403 0-15.214 6.812-15.214 15.214v143.028c0 8.402 6.812 15.214 15.214 15.214h143.028c8.402 0 15.214-6.812 15.214-15.214v-143.028c0-8.403-6.812-15.214-15.214-15.214z" fill="#faf1a9"/><ellipse cx="343.847" cy="321.478" fill="#c2b2eb" rx="35.592" ry="35.592" transform="matrix(.707 -.707 .707 .707 -126.609 337.295)"/><path d="m240.907 501.915h-155.851c-16.666 0-30.177-13.511-30.177-30.177v-214.326c0-4.925 3.993-8.918 8.918-8.918h198.369c4.925 0 8.918 3.993 8.918 8.918v214.326c0 16.667-13.51 30.177-30.177 30.177z" fill="#c1e5ef"/><path d="m76.228 371.056v78.201c0 8.745 7.089 15.835 15.834 15.835h141.838c8.745 0 15.835-7.089 15.835-15.835v-78.201z" fill="#f6e06e"/><path d="m236.837 412.642-13.268-29.616c-4.119-9.194-14.911-13.308-24.105-9.189l-28.512 12.774c-9.194 4.119-13.308 14.912-9.189 24.106l13.268 29.615c4.119 9.194 14.911 13.308 24.105 9.189l28.512-12.774c9.194-4.119 13.308-14.911 9.189-24.105z" fill="#fff"/><path d="m150.324 404.851 13.698-29.419c4.253-9.133.296-19.984-8.837-24.237l-28.323-13.188c-9.133-4.253-19.984-.296-24.237 8.837l-13.698 29.419c-4.253 9.133-.296 19.984 8.837 24.237l28.323 13.188c9.134 4.253 19.985.296 24.237-8.837z" fill="#fff"/><path d="m262.18 248.494h-43.557c4.918 0 8.904 3.986 8.904 8.904v176.762c0 16.64-13.489 30.129-30.129 30.129h-112.39c-16.64 0-30.129-13.489-30.129-30.129v37.625c0 16.64 13.489 30.129 30.129 30.129h155.947c16.64 0 30.129-13.489 30.129-30.129v-214.387c0-4.918-3.986-8.904-8.904-8.904z" fill="#a6aaed"/><path d="m249.735 449.256v-78.201h-22.208v63.105c0 16.639-13.489 30.129-30.129 30.129h-110.288c1.559.513 3.221.801 4.952.801h141.839c8.745.001 15.834-7.089 15.834-15.834z" fill="#dda86a"/><path d="m236.774 412.501-9.247-20.639v42.298c0 .91-.048 1.808-.126 2.697l.106-.048c9.272-4.153 13.421-15.037 9.267-24.308z" fill="#e1bdfc"/><path d="m188.961 5.967 8.412 23.652c.36 1.013 1.073 1.815 1.973 2.22l21.014 9.468c2.969 1.338 2.969 6.068 0 7.405l-21.014 9.468c-.9.405-1.613 1.208-1.973 2.22l-8.412 23.652c-1.188 3.342-5.391 3.342-6.579 0l-8.412-23.652c-.36-1.013-1.073-1.815-1.973-2.22l-21.014-9.468c-2.969-1.338-2.969-6.068 0-7.405l21.014-9.468c.9-.405 1.613-1.208 1.973-2.22l8.412-23.652c1.188-3.341 5.391-3.341 6.579 0z" fill="#efc5b4"/><circle cx="161.399" cy="155.671" fill="#e8a284" r="18.367"/><path d="m107.682 12.483c0 4.376-3.547 7.923-7.923 7.923s-7.923-3.547-7.923-7.923 3.547-7.923 7.923-7.923 7.923 3.547 7.923 7.923z" fill="#e8a284"/><path d="m67.71 153.436 6.24 17.545c.267.751.796 1.346 1.463 1.647l15.588 7.023c2.202.992 2.202 4.501 0 5.493l-15.588 7.023c-.667.301-1.196.896-1.463 1.647l-6.24 17.545c-.882 2.479-3.999 2.479-4.881 0l-6.24-17.545c-.267-.751-.796-1.346-1.463-1.647l-15.588-7.023c-2.202-.992-2.202-4.501 0-5.493l15.588-7.023c.667-.301 1.196-.896 1.463-1.647l6.24-17.545c.882-2.479 3.999-2.479 4.881 0z" fill="#efc5b4"/></g><g><g fill="#3c122c"><path d="m449.354 183.564c-.197-.237-.405-.465-.622-.682l-51.818-51.785c15.509-22.52 14.354-49.282-3.386-68.721v-52.292c0-5.569-4.515-10.084-10.084-10.084h-78.41c-2.675 0-5.239 1.063-7.131 2.953-1.891 1.892-2.953 4.456-2.953 7.131l.001 53.42c-8.643 10.257-13.189 22.429-13.195 35.443-.006 11.254 3.408 22.315 9.947 32.428l-52.217 51.142c-.227.223-.444.456-.649.699-13.289 15.738-21.677 34.948-24.325 55.193h-150.64c-10.52 0-19.078 8.558-19.078 19.078v213.996c0 22.341 18.176 40.517 40.516 40.517h155.342c4.215 0 8.282-.649 12.107-1.849 4.367 1.196 8.955 1.849 13.693 1.849h155.548c28.736 0 52.113-23.377 52.113-52.112v-207.864c0-24.961-8.793-49.274-24.759-68.46zm-75.995-163.395v41.302h-58.24l-.001-41.302zm-288.049 471.662c-11.22 0-20.347-9.128-20.347-20.347v-212.905h196.037v212.905c0 11.219-9.127 20.347-20.347 20.347zm195.858-221.388h8.701c3.105 0 5.706-2.35 6.019-5.438 2.509-24.667 23.126-43.267 47.959-43.267 24.832 0 45.449 18.6 47.958 43.267.313 3.088 2.914 5.438 6.019 5.438h17.536c5.053 0 9.164 4.111 9.164 9.164v143.028c0 5.053-4.111 9.164-9.164 9.164h-134.192zm172.776 189.445c0 17.613-14.33 31.943-31.944 31.943h-146.334c3.491-5.984 5.502-12.934 5.502-20.347v-27.584h134.193c11.725 0 21.265-9.54 21.265-21.265v-143.029c0-11.725-9.54-21.265-21.265-21.265h-12.317c-5.434-28.122-29.984-48.705-59.197-48.705s-53.763 20.582-59.198 48.705h-3.481v-.854c0-10.52-8.558-19.078-19.078-19.078h-27.207c2.478-15.317 9.02-29.802 19.063-41.827l58.144-56.947c3.779-3.702 4.057-9.693.634-13.727-14.243-16.795-14.412-37.027-.427-51.543.244-.253.471-.52.685-.795h63.299c.077.078.146.161.225.236 14.995 14.213 14.78 34.358-.546 51.324-3.6 3.985-3.445 10.095.355 13.893l57.822 57.786c12.776 15.516 19.806 35.105 19.806 55.212v207.867z"/><path d="m343.847 363.121c22.962 0 41.643-18.681 41.643-41.643 0-22.963-18.681-41.643-41.643-41.643-22.963 0-41.643 18.681-41.643 41.643s18.681 41.643 41.643 41.643zm0-71.185c16.289 0 29.541 13.253 29.541 29.542s-13.253 29.541-29.541 29.541c-16.29 0-29.542-13.253-29.542-29.541 0-16.289 13.253-29.542 29.542-29.542z"/><path d="m394.498 384.404h-101.302c-5.569 0-10.084 4.515-10.084 10.084s4.515 10.084 10.084 10.084h101.302c5.569 0 10.084-4.515 10.084-10.084s-4.515-10.084-10.084-10.084z"/><path d="m403.689 343.797c-3.341 0-6.051 2.709-6.051 6.051v14.024c0 3.341 2.709 6.051 6.051 6.051 3.341 0 6.051-2.709 6.051-6.051v-14.024c0-3.342-2.709-6.051-6.051-6.051z"/><path d="m368.231 450.172c-3.341 0-6.051 2.709-6.051 6.051v14.024c0 3.341 2.709 6.051 6.051 6.051s6.051-2.709 6.051-6.051v-14.024c0-3.342-2.709-6.051-6.051-6.051z"/><path d="m398.149 450.172c-3.341 0-6.051 2.709-6.051 6.051v14.024c0 3.341 2.709 6.051 6.051 6.051 3.341 0 6.051-2.709 6.051-6.051v-14.024c-.001-3.342-2.71-6.051-6.051-6.051z"/><path d="m249.735 365.005h-78.165c-.22-1.88-.657-3.749-1.322-5.572-2.237-6.134-6.729-11.031-12.649-13.787l-28.042-13.058c-5.92-2.754-12.559-3.044-18.694-.805-6.134 2.236-11.031 6.728-13.787 12.648l-9.58 20.575h-11.268c-3.341 0-6.051 2.709-6.051 6.051v78.201c0 12.068 9.817 21.885 21.884 21.885h141.839c12.068 0 21.885-9.818 21.885-21.885v-78.201c.001-3.343-2.708-6.052-6.05-6.052zm-6.05 49.037c-.342-1.354-.798-2.697-1.389-4.015l-13.142-29.334c-.567-1.267-1.252-2.455-2.006-3.587h16.537zm-149.206-35.364.732-1.572h61.359l-11.665 25.052c-1.392 2.989-3.864 5.257-6.962 6.387-3.099 1.13-6.451.986-9.439-.407l-28.044-13.059c-2.989-1.392-5.257-3.864-6.386-6.962-1.132-3.097-.988-6.449.405-9.439zm74.964-.552c.157-.338.304-.678.445-1.02h7.481l-8.751 3.921c-.23.103-.452.215-.677.324zm-2.364 20.813c1.174-3.082 3.478-5.521 6.488-6.869l28.23-12.648c1.614-.723 3.327-1.086 5.043-1.086 1.485 0 2.973.272 4.402.816 3.08 1.175 5.52 3.478 6.868 6.488l13.142 29.335c2.783 6.212-.007 13.53-6.218 16.313l-28.231 12.648c-6.213 2.785-13.529-.007-16.313-6.218l-13.142-29.334c-1.349-3.01-1.444-6.364-.269-9.445zm-59.032-49.402c1.392-2.989 3.864-5.257 6.962-6.386 1.38-.502 2.81-.753 4.236-.753 1.777 0 3.546.389 5.205 1.161l28.043 13.058c2.989 1.392 5.257 3.864 6.386 6.962.171.47.304.947.416 1.427h-58.45zm125.854 109.503h-141.839c-5.395 0-9.783-4.389-9.783-9.784v-58.268c.13.427.269.852.424 1.275 2.237 6.134 6.729 11.031 12.648 13.787l28.044 13.059c3.283 1.528 6.787 2.298 10.304 2.298 2.824 0 5.656-.496 8.389-1.492 5.458-1.991 9.927-5.774 12.789-10.753.346 1.406.814 2.802 1.427 4.17l13.142 29.335c4.062 9.065 13.001 14.45 22.345 14.45 3.336 0 6.723-.686 9.959-2.136l28.232-12.648c7.102-3.182 11.938-9.359 13.703-16.378v23.302c0 5.394-4.39 9.783-9.784 9.783z"/></g><path d="m144.946 288.296c-9.082 0-18.103-.108-27.003-.325-5.568-.136-9.972-4.76-9.836-10.327.137-5.568 4.805-9.97 10.327-9.836 17.475.426 35.436.426 53.386 0 5.598-.098 10.189 4.275 10.321 9.842.132 5.568-4.274 10.189-9.842 10.321-9.134.217-18.274.325-27.353.325z" fill="#fff"/><path d="m91.516 287.974h-11.205c-5.569 0-10.084-4.515-10.084-10.084s4.515-10.084 10.084-10.084h11.205c5.569 0 10.084 4.515 10.084 10.084s-4.515 10.084-10.084 10.084z" fill="#fff"/><path d="m274.705 225.37c-2.194 0-4.403-.712-6.257-2.181-4.365-3.459-5.099-9.802-1.64-14.166l24.927-31.453c3.459-4.367 9.802-5.1 14.166-1.64 4.365 3.459 5.099 9.802 1.64 14.166l-24.926 31.453c-1.99 2.512-4.936 3.821-7.91 3.821z" fill="#fff"/><path d="m315.401 174.5c-2.209 0-4.434-.722-6.293-2.21-4.349-3.479-5.054-9.824-1.575-14.174l3.875-4.844c3.478-4.348 9.825-5.055 14.174-1.575 4.349 3.479 5.054 9.824 1.575 14.174l-3.875 4.844c-1.991 2.49-4.922 3.785-7.881 3.785z" fill="#fff"/></g></g></svg>