<svg id="Capa_1" enable-background="new 0 0 512 512" height="512" viewBox="0 0 512 512" width="512" xmlns="http://www.w3.org/2000/svg"><g><g><path d="m377.031 188.264h-252.729l-19.849 64.192c-29.062 84.102-11.564 177.299 46.023 245.133l3.639 4.287h193.101l3.639-4.287c57.587-67.834 75.085-161.031 46.023-245.133z" fill="#fff"/><path d="m396.879 252.456-19.849-64.192h-15.466c-.171-16.058-8.5-30.151-21.046-38.339 1.662-4.774 2.577-9.899 2.577-15.24 0-24.306-18.712-44.228-42.514-46.181.054-.971.086-1.947.086-2.93 0-28.952-43.931-52.422-52.422-52.422s-52.422 23.47-52.422 52.422c0 1.203.055 2.392.135 3.574-21.472 4.047-37.72 22.889-37.72 45.538 0 5.341.914 10.465 2.577 15.24-12.546 8.187-20.876 22.28-21.046 38.339h-15.466l-19.849 64.192c-1.918 5.551-3.627 11.142-5.142 16.761h302.709c-1.514-5.621-3.224-11.212-5.142-16.762z" fill="#c49a8b"/><path d="m396.878 252.456-19.849-64.192h-15.453c-.17-16.059-8.51-30.15-21.058-38.339 1.662-4.774 2.577-9.899 2.577-15.24 0-24.306-18.712-44.228-42.514-46.181.054-.971.086-1.947.086-2.93 0-28.952-43.931-52.422-52.422-52.422-6.621 0-34.785 14.269-46.874 34.279 9.344-7.462 19.638-12.099 22.941-12.099 6.51 0 40.191 17.993 40.191 40.19 0 .754-.025 1.503-.066 2.246 18.249 1.498 32.8 17.169 34.133 35.755.519 7.232-2.295 32.821-7.063 32.676h-138.974c-7.976 8.378-12.858 10.362-12.779 22.862.018 2.935.328 5.8.878 8.576h189.353l13.489 43.624c2.594 7.507 4.723 15.104 6.426 22.752h50.661c-1.132-3.868-2.358-7.723-3.683-11.557z" fill="#b2748a"/><path d="m351.893 274.138c7.77 45.454.177 92.167-21.412 132.702-12.062 22.646-35.622 36.805-61.281 36.805h-92.885c-25.503 0-49.039-13.94-61.074-36.425-14.274-26.667-22.485-56.026-24.238-85.949-3.372 63.353 17.296 126.637 59.472 176.317l3.639 4.287h193.101l3.639-4.287c52.679-62.053 71.803-145.328 52.435-223.451z" fill="#e1bdfc"/><path d="m469.475 2.577 8.65 24.322c.37 1.041 1.104 1.867 2.029 2.283l21.609 9.736c3.053 1.375 3.053 6.24 0 7.615l-21.609 9.736c-.925.417-1.658 1.242-2.029 2.283l-8.65 24.322c-1.222 3.436-5.544 3.436-6.766 0l-8.65-24.322c-.37-1.041-1.103-1.867-2.029-2.283l-21.609-9.736c-3.053-1.375-3.053-6.24 0-7.615l21.609-9.736c.925-.417 1.658-1.242 2.029-2.283l8.65-24.322c1.222-3.436 5.544-3.436 6.766 0z" fill="#efc5b4"/><ellipse cx="74.52" cy="72.684" fill="#e8a284" rx="18.887" ry="18.887"/><path d="m437.452 120.405c0 4.5-3.648 8.148-8.147 8.148-4.5 0-8.148-3.648-8.148-8.148s3.648-8.147 8.148-8.147c4.499 0 8.147 3.648 8.147 8.147z" fill="#e8a284"/><path d="m38.615 150.31 6.416 18.042c.275.773.819 1.385 1.505 1.694l16.03 7.222c2.265 1.02 2.265 4.628 0 5.649l-16.03 7.222c-.686.309-1.23.921-1.505 1.694l-6.416 18.042c-.907 2.549-4.112 2.549-5.019 0l-6.416-18.042c-.275-.772-.818-1.385-1.505-1.694l-16.029-7.222c-2.265-1.02-2.265-4.628 0-5.649l16.029-7.222c.686-.309 1.23-.921 1.505-1.694l6.416-18.042c.907-2.549 4.113-2.549 5.019 0z" fill="#efc5b4"/></g><g><g><g fill="#3c122c"><path d="m406.503 249.309-18.362-59.384c-1.311-4.242-5.233-7.133-9.673-7.133h-7.082c-1.509-14.321-8.402-27.444-19.306-36.818.756-3.706 1.138-7.48 1.138-11.288 0-14.269-5.337-27.89-15.028-38.353-7.548-8.15-17.203-13.821-27.807-16.449-2.444-17.036-15.419-30.62-26.479-39.331-10.786-8.496-26.95-17.525-35.66-17.525s-24.874 9.029-35.66 17.525c-11.382 8.965-24.793 23.089-26.665 40.826-22.334 7.8-37.806 29.034-37.806 53.307 0 3.808.381 7.583 1.137 11.288-10.904 9.374-17.796 22.497-19.305 36.818h-7.083c-4.439 0-8.361 2.892-9.672 7.133l-18.36 59.382c-14.787 42.88-18.179 89.103-9.809 133.684 8.38 44.636 28.345 86.529 57.737 121.15l3.639 4.287c1.924 2.266 4.746 3.572 7.718 3.572h193.101c2.973 0 5.795-1.306 7.719-3.572l3.638-4.287c29.392-34.621 49.357-76.514 57.737-121.15 8.372-44.581 4.98-90.802-9.807-133.682zm-240.155-90.905c3.896-2.543 5.559-7.414 4.028-11.808-1.336-3.837-2.013-7.844-2.013-11.911 0-17.403 12.394-32.37 29.471-35.588 5.037-.949 8.571-5.514 8.227-10.63-.077-1.136-.112-2.056-.112-2.894 0-20.659 34.21-40.442 42.298-42.233 8.088 1.792 42.298 21.574 42.298 42.233 0 .735-.023 1.509-.071 2.37-.304 5.478 3.812 10.202 9.281 10.651 18.626 1.528 33.217 17.38 33.217 36.091 0 4.065-.678 8.073-2.014 11.912-1.53 4.394.132 9.264 4.029 11.807 8.615 5.622 14.314 14.47 15.963 24.387h-200.565c1.649-9.917 7.348-18.765 15.963-24.387zm-52.325 97.358c.036-.104.071-.21.103-.315l16.204-52.407h240.672l16.204 52.407c.033.106.067.212.103.315.847 2.451 1.651 4.912 2.415 7.381h-278.116c.764-2.469 1.568-4.93 2.415-7.381zm229.114 235.275-.606.715h-183.73l-.607-.715c-50.587-59.588-68.962-140.624-49.996-215.745h284.935c18.967 75.12.592 156.158-49.996 215.745z"/><path d="m276.487 436.435c-3.355 0-6.075-2.72-6.075-6.075v-14.421c0-3.355 2.72-6.075 6.075-6.075s6.075 2.72 6.075 6.075v14.421c0 3.355-2.72 6.075-6.075 6.075z"/><path d="m334.008 408.162c-3.355 0-6.075-2.72-6.075-6.075v-14.421c0-3.355 2.72-6.075 6.075-6.075s6.075 2.72 6.075 6.075v14.421c-.001 3.355-2.721 6.075-6.075 6.075z"/><path d="m298.91 357.953c-3.355 0-6.075-2.72-6.075-6.074v-14.421c0-3.355 2.72-6.075 6.075-6.075s6.074 2.72 6.074 6.075v14.421c.001 3.354-2.719 6.074-6.074 6.074z"/></g><path d="m194.671 159.495c-.307 0-.617-.014-.929-.042-5.568-.506-9.672-5.431-9.166-10.999.661-7.271 3.04-16.497 6.06-23.506 2.213-5.134 8.17-7.501 13.304-5.291 5.135 2.213 7.504 8.169 5.292 13.304-2.175 5.048-4.021 12.173-4.49 17.327-.478 5.255-4.893 9.207-10.071 9.207z" fill="#fff"/><path d="m215.408 117.172c-1.929 0-3.879-.551-5.605-1.701-4.653-3.101-5.911-9.387-2.81-14.039 2.248-3.373 6.433-6.223 7.855-7.036 4.857-2.773 11.04-1.09 13.814 3.766 2.758 4.825.942 10.915-3.68 13.764-.359.234-2.138 1.773-2.484 2.108-2.466 2.369-3.97 3.138-7.09 3.138z" fill="#fff"/></g></g></g></svg>