<svg id="Capa_1" enable-background="new 0 0 512 512" height="512" viewBox="0 0 512 512" width="512" xmlns="http://www.w3.org/2000/svg"><g><g><ellipse cx="367.218" cy="141.548" fill="#c59b8c" rx="86.465" ry="86.465" transform="matrix(.707 -.707 .707 .707 7.466 301.121)"/><circle cx="367.218" cy="141.548" fill="#a1e8c3" r="67.926"/><path d="m406.666 86.247c7.947 11.121 12.625 24.738 12.625 39.448 0 37.515-30.412 67.927-67.926 67.927-14.711 0-28.328-4.678-39.449-12.625 12.319 17.239 32.497 28.478 55.302 28.478 37.515 0 67.926-30.412 67.926-67.926 0-22.805-11.238-42.983-28.478-55.302z" fill="#85adc2"/><path d="m337.873 501.969h-162.566c-15.052 0-27.388-13.538-27.878-30.592l-9.644-336.095h235.681l-7.71 335.89c-.393 17.136-12.761 30.797-27.883 30.797z" fill="#fff"/><path d="m261.449 444.771c1.243 0 2.505-.16 3.763-.493 7.828-2.073 12.494-10.099 10.421-17.928l-108.418-409.413c-2.072-7.829-10.099-12.495-17.928-10.421-7.828 2.073-12.494 10.099-10.421 17.928l108.417 409.415c1.74 6.569 7.675 10.912 14.166 10.912z" fill="#e8a284"/><path d="m313.345 459.714h-111.7c-15.047 0-27.38-13.889-27.869-31.386l-7.174-256.591h180.351l-5.734 256.38c-.393 17.582-12.756 31.597-27.874 31.597z" fill="#ccf3e2"/><path d="m307.664 135.281-6.178 280.577c-.315 14.315-10.226 25.726-22.343 25.726h-111.291c-10.757 0-19.778-8.998-21.882-21.05l1.459 50.843c.489 17.054 12.826 30.592 27.878 30.592h162.566c15.122 0 27.49-13.661 27.884-30.798l7.71-335.89z" fill="#e1bdfc"/><path d="m301.486 415.858c-.315 14.315-10.226 25.726-22.343 25.726h-102.52c4.553 10.76 14.066 18.13 25.023 18.13h111.7c15.117 0 27.481-14.015 27.874-31.597l5.734-256.38h-40.093z" fill="#b1b6e1"/><path d="m56.078 69.124 8.229 23.138c.352.991 1.05 1.776 1.93 2.172l20.557 9.262c2.904 1.309 2.904 5.936 0 7.244l-20.557 9.262c-.88.396-1.578 1.182-1.93 2.172l-8.229 23.138c-1.163 3.269-5.274 3.269-6.437 0l-8.229-23.138c-.352-.99-1.05-1.776-1.93-2.172l-20.557-9.262c-2.904-1.309-2.904-5.936 0-7.244l20.557-9.262c.88-.397 1.578-1.182 1.93-2.172l8.229-23.138c1.164-3.269 5.275-3.269 6.437 0z" fill="#efc5b4"/><path d="m297.632 20.93c0 9.923-8.045 17.968-17.968 17.968s-17.968-8.044-17.968-17.968 8.045-17.968 17.968-17.968c9.924 0 17.968 8.044 17.968 17.968z" fill="#e8a284"/><ellipse cx="487.501" cy="239.402" fill="#e8a284" rx="7.751" ry="7.751" transform="matrix(.16 -.987 .987 .16 173.102 682.261)"/><path d="m445.933 277.719 6.104 17.163c.261.735.779 1.317 1.432 1.611l15.249 6.87c2.154.971 2.154 4.403 0 5.374l-15.249 6.87c-.653.294-1.17.876-1.432 1.611l-6.104 17.163c-.862 2.425-3.912 2.425-4.774 0l-6.104-17.163c-.261-.735-.779-1.317-1.432-1.611l-15.249-6.87c-2.154-.971-2.154-4.403 0-5.374l15.249-6.87c.653-.294 1.17-.876 1.432-1.611l6.104-17.163c.862-2.425 3.912-2.425 4.774 0z" fill="#efc5b4"/></g><g><g fill="#3c122c"><path d="m441.722 196.242c11.286-15.33 17.979-34.239 17.979-54.694 0-50.996-41.488-92.484-92.483-92.484-45.435 0-83.315 32.936-91.038 76.186h-74.056l-29.09-109.854c-1.414-5.341-4.823-9.811-9.599-12.588-4.775-2.775-10.346-3.525-15.689-2.111-5.34 1.414-9.809 4.823-12.585 9.599-2.777 4.776-3.527 10.348-2.112 15.687l26.286 99.266h-21.55c-2.711 0-5.306 1.097-7.194 3.041-1.889 1.943-2.91 4.569-2.833 7.278l9.643 336.096c.65 22.618 17.3 40.335 37.906 40.335h162.566c20.737 0 37.389-17.833 37.912-40.598l5.473-238.465c13.704-2.097 26.427-7.199 37.468-14.631l5.315 5.315c1.175 1.175 2.716 1.763 4.255 1.763 1.54 0 3.081-.588 4.257-1.763 2.35-2.351 2.35-6.161-.001-8.512l-4.227-4.227c1.949-1.719 3.82-3.52 5.618-5.395l4.381 4.381c1.175 1.175 2.716 1.763 4.256 1.763s3.081-.588 4.255-1.763c2.351-2.351 2.351-6.161 0-8.512zm-297.037-173.34c-.591-2.232-.277-4.56.883-6.556 1.161-1.996 3.029-3.421 5.261-4.013.738-.195 1.485-.292 2.229-.292 1.506 0 2.992.397 4.329 1.174 1.995 1.16 3.421 3.028 4.011 5.261l28.274 106.773h-17.884zm194.962 153.932-5.597 250.227c-.317 14.178-10.122 25.712-21.857 25.712h-111.7c-11.656 0-21.459-11.455-21.853-25.535l-7.001-250.404zm-157.387-12.038-5.16-19.484h17.884l5.16 19.484zm173.468 306.145c-.267 11.578-8.276 20.997-17.856 20.997h-162.565c-9.513 0-17.521-9.353-17.851-20.848l-9.348-325.776h16.539l5.16 19.484h-4.358c-1.625 0-3.182.657-4.315 1.823-1.133 1.165-1.747 2.74-1.702 4.364l7.174 256.591c.585 20.88 15.469 37.236 33.886 37.236h111.7c18.535 0 33.422-16.464 33.891-37.48l5.735-256.38c.036-1.619-.581-3.185-1.713-4.343s-2.684-1.811-4.303-1.811h-133.206l-5.159-19.484h155.765zm-5.441-345.691c.185-.146.378-.277.548-.448 2.35-2.351 2.35-6.161-.001-8.512l-10.825-10.824c-2.349-2.35-6.161-2.35-8.512 0-2.35 2.351-2.35 6.161.001 8.512l10.825 10.824c.171.171.363.302.548.448h-35.356c7.172-26.251 31.209-45.609 59.703-45.609 34.136 0 61.907 27.772 61.907 61.908 0 29.047-20.12 53.455-47.149 60.093l.797-34.739 10.729 10.729c1.175 1.175 2.716 1.763 4.255 1.763 1.54 0 3.081-.588 4.257-1.763 2.35-2.351 2.35-6.161-.001-8.512l-10.825-10.824c-2.256-2.257-5.848-2.323-8.212-.245l.517-22.538c.063-2.7-.967-5.311-2.855-7.241-1.887-1.931-4.473-3.02-7.174-3.02h-23.177zm31.405 88.805c33.865-6.749 59.471-36.687 59.471-72.506 0-40.773-33.172-73.945-73.945-73.945-35.172 0-64.663 24.692-72.108 57.647h-6.637c7.558-36.566 39.973-64.148 78.744-64.148 44.358 0 80.446 36.088 80.446 80.447 0 39.469-28.578 72.367-66.124 79.144z"/><path d="m390.037 140.593c0 3.324 2.695 6.019 6.019 6.019h15.309c3.324 0 6.019-2.695 6.019-6.019s-2.695-6.019-6.019-6.019h-15.309c-3.324 0-6.019 2.695-6.019 6.019z"/><path d="m367.474 90.777c-3.324 0-6.019 2.695-6.019 6.019v15.308c0 3.324 2.695 6.019 6.019 6.019s6.019-2.695 6.019-6.019v-15.309c0-3.323-2.695-6.018-6.019-6.018z"/><path d="m386.934 126.565c1.54 0 3.081-.588 4.255-1.763l10.825-10.824c2.351-2.351 2.351-6.161.001-8.512-2.35-2.349-6.162-2.351-8.512 0l-10.825 10.824c-2.351 2.351-2.351 6.161-.001 8.512 1.176 1.175 2.716 1.763 4.257 1.763z"/><path d="m311.008 241.059c-3.324 0-6.019-2.695-6.019-6.019v-11.038c0-3.324 2.695-6.019 6.019-6.019s6.019 2.695 6.019 6.019v11.038c0 3.324-2.695 6.019-6.019 6.019z"/><path d="m270.711 284.453c-3.324 0-6.019-2.695-6.019-6.019v-11.038c0-3.324 2.695-6.019 6.019-6.019s6.019 2.695 6.019 6.019v11.038c0 3.324-2.695 6.019-6.019 6.019z"/><path d="m298.321 345.476c-3.324 0-6.019-2.695-6.019-6.019v-11.038c0-3.324 2.695-6.019 6.019-6.019s6.019 2.695 6.019 6.019v11.038c0 3.324-2.695 6.019-6.019 6.019z"/><path d="m217.996 327.626c-3.324 0-6.019-2.695-6.019-6.019v-11.038c0-3.324 2.695-6.019 6.019-6.019s6.019 2.695 6.019 6.019v11.038c0 3.324-2.695 6.019-6.019 6.019z"/><path d="m257.415 370.02c-3.324 0-6.019-2.695-6.019-6.019v-11.038c0-3.324 2.695-6.019 6.019-6.019s6.019 2.695 6.019 6.019v11.038c0 3.324-2.695 6.019-6.019 6.019z"/><path d="m226.92 419.108c-3.324 0-6.019-2.695-6.019-6.019v-11.038c0-3.324 2.695-6.019 6.019-6.019s6.019 2.695 6.019 6.019v11.038c0 3.324-2.695 6.019-6.019 6.019z"/><path d="m299.065 422.455c-3.324 0-6.019-2.695-6.019-6.019v-11.038c0-3.324 2.695-6.019 6.019-6.019s6.019 2.695 6.019 6.019v11.038c0 3.324-2.695 6.019-6.019 6.019z"/></g><path d="m201.618 290.456c-5.503 0-9.985-4.439-10.029-9.952l-.296-37.396c-.043-5.54 4.412-10.067 9.952-10.11.026-.001.055-.001.081-.001 5.504 0 9.985 4.439 10.029 9.952l.296 37.396c.043 5.54-4.412 10.067-9.952 10.11-.026.001-.055.001-.081.001z" fill="#fff"/><path d="m200.478 222.138c-5.462 0-9.935-4.381-10.027-9.864l-.152-9.109c-.092-5.539 4.324-10.105 9.863-10.197.057-.001.115-.001.171-.001 5.462 0 9.935 4.381 10.027 9.864l.152 9.109c.092 5.539-4.324 10.105-9.863 10.197-.057.001-.115.001-.171.001z" fill="#fff"/></g></g></svg>