<svg id="Capa_1" enable-background="new 0 0 512 512" height="512" viewBox="0 0 512 512" width="512" xmlns="http://www.w3.org/2000/svg"><g><g><path d="m356.986 118.175h-198.252l-43.283 139.981c-28.305 81.914-11.263 172.686 44.826 238.755l3.545 4.175h188.077l3.545-4.175c56.089-66.069 73.131-156.841 44.826-238.755z" fill="#fff"/><path d="m230.303 184.029c.338 3.585-.038 10.393 1.997 14.623 4.899-.726 9.865-.971 14.867-1.089l-47.753-180.333c-2.104-7.952-10.258-12.691-18.21-10.585-7.951 2.106-12.691 10.259-10.585 18.21l34.469 130.165c6.021.784 11.815 2.726 16.319 7.111 5.897 5.742 8.148 13.957 8.896 21.898z" fill="#c1e5ef"/><path d="m380.937 195.634h-246.154l-19.332 62.522c-28.305 81.914-11.263 172.686 44.826 238.755l3.545 4.175h188.077l3.545-4.175c56.089-66.069 73.131-156.841 44.826-238.755z" fill="#f4dab5"/><path d="m353.373 448.351-4.221-40.737c-1.038-10.02-10.004-17.302-20.025-16.264l-39.385 4.082c-.974.1-1.912.297-2.829.542l1.556-3.342c4.253-9.133.296-19.984-8.837-24.237l-35.896-16.714c-9.133-4.253-19.984-.296-24.237 8.836l-17.287 37.127c-4.253 9.133-.296 19.984 8.837 24.237l35.896 16.714c9.133 4.253 19.984.296 24.237-8.837l3.09-6.636 3.427 33.071c1.038 10.021 10.004 17.302 20.025 16.264l39.385-4.082c10.021-1.037 17.302-10.003 16.264-20.024z" fill="#fff"/><path d="m405.532 290.103h-60.52v45.573c0 9.759-7.912 17.671-17.671 17.671-9.76 0-17.671-7.912-17.671-17.671v-45.573h-31.622v64.174c0 9.759-7.912 17.671-17.671 17.671s-17.671-7.912-17.671-17.671v-64.174h-50.223v14.881c0 9.759-7.912 17.671-17.671 17.671-9.759 0-17.671-7.912-17.671-17.671v-14.881h-47.478l23.715-89.306h248.44z" fill="#c49a8b"/><path d="m400.269 258.155-19.332-62.521h-48.643l15.961 51.619c18.582 53.776 13.492 112.177-12.655 161.27-11.748 22.057-34.696 35.849-59.686 35.849h-90.468c-24.839 0-47.764-13.577-59.485-35.477-13.902-25.974-21.9-54.568-23.608-83.713-3.285 61.704 16.846 123.342 57.925 171.73l3.545 4.175h188.077l3.544-4.175c56.088-66.071 73.13-156.842 44.825-238.757z" fill="#dba2b3"/><path d="m276.473 444.361 1.226 11.832c1.038 10.021 10.004 17.302 20.025 16.264l39.385-4.082c10.021-1.038 17.303-10.003 16.264-20.024l-4.221-40.737c-.536-5.176-3.198-9.609-7.018-12.554-2.009 4.555-4.183 9.048-6.535 13.462-11.659 21.893-34.353 35.635-59.126 35.839z" fill="#e1bdfc"/><path d="m357.927 289.421h50.882c-2.138-10.517-4.979-20.961-8.54-31.266l-19.332-62.521h-48.643l15.961 51.619c4.778 13.829 7.979 27.964 9.672 42.168z" fill="#b2748a"/><path d="m412.503 27.808 8.214 23.098c.352.989 1.048 1.773 1.927 2.168l20.521 9.246c2.899 1.306 2.899 5.926 0 7.232l-20.521 9.246c-.879.396-1.575 1.18-1.927 2.168l-8.214 23.098c-1.16 3.263-5.265 3.263-6.425 0l-8.214-23.098c-.352-.989-1.048-1.773-1.927-2.168l-20.521-9.246c-2.899-1.306-2.899-5.926 0-7.232l20.521-9.246c.879-.396 1.575-1.18 1.927-2.168l8.214-23.098c1.16-3.264 5.264-3.264 6.425 0z" fill="#c1e5ef"/><ellipse cx="75.09" cy="71.268" fill="#96b4eb" rx="17.937" ry="17.937" transform="matrix(.232 -.973 .973 .232 -11.627 127.817)"/><circle cx="461.549" cy="146.344" fill="#96b4eb" r="7.737"/><path d="m71.837 140.611 6.093 17.133c.261.734.777 1.315 1.429 1.609l15.222 6.858c2.151.969 2.151 4.395 0 5.364l-15.222 6.858c-.652.294-1.168.875-1.429 1.609l-6.093 17.133c-.861 2.42-3.905 2.42-4.766 0l-6.093-17.133c-.261-.734-.777-1.315-1.429-1.609l-15.222-6.858c-2.151-.969-2.151-4.395 0-5.364l15.222-6.858c.652-.294 1.168-.875 1.429-1.609l6.093-17.133c.861-2.421 3.905-2.421 4.766 0z" fill="#c1e5ef"/></g><g><path d="m410.088 255.434-43.324-140.114c-1.298-4.198-5.18-7.061-9.573-7.061h-127.546l-24.54-92.67c-1.431-5.407-4.882-9.933-9.717-12.743-4.836-2.811-10.476-3.572-15.882-2.138-5.406 1.432-9.931 4.883-12.741 9.718-2.811 4.835-3.57 10.475-2.138 15.881l21.702 81.952h-27.799c-4.394 0-8.275 2.862-9.573 7.061l-43.325 140.114c-14.437 41.872-17.75 87.011-9.577 130.542 8.183 43.588 27.68 84.497 56.382 118.305l3.552 4.184c1.904 2.243 4.697 3.536 7.639 3.536h188.464c2.942 0 5.735-1.293 7.639-3.535l3.553-4.184c28.702-33.809 48.198-74.718 56.382-118.305 8.172-43.533 4.859-88.672-9.578-130.543zm-263.291-65.291.58 2.728h-1.423zm12.874 2.728-1.827-8.598c-.681-3.205-.073-6.484 1.712-9.231 1.784-2.748 4.533-4.636 7.738-5.317l38.811-8.247c.857-.182 1.719-.272 2.575-.272 2.345 0 4.643.676 6.657 1.983 2.748 1.785 4.636 4.533 5.317 7.738l4.663 21.944zm79.425 0h-1.488l-5.194-24.443c-2.355-11.084-11.967-18.796-22.804-19.225l-5.535-20.903h18.438l16.736 63.199zm34.233 0h-22.134l1.723-15.456c.363-3.256 1.972-6.176 4.532-8.223 2.196-1.755 4.865-2.687 7.635-2.687.459 0 .921.025 1.383.077l21.688 2.418-13.508 21.457c-.493.783-.923 1.592-1.319 2.414zm32.634-29.587c2.329-3.699 6.322-5.728 10.401-5.728 2.232 0 4.491.608 6.515 1.882l34.731 21.863c2.773 1.746 4.7 4.467 5.426 7.662.296 1.301.373 2.617.245 3.907h-75.943zm43.837-34.984 13.007 42.065-33.522-21.103c-11.334-7.135-26.361-3.719-33.498 7.616l-.513.816-27.474-3.062c-6.446-.72-12.791 1.116-17.859 5.168-2.034 1.626-3.76 3.536-5.15 5.651l-9.838-37.152h114.847zm-173.549-105.073c-.609-2.301-.286-4.701.91-6.759s3.123-3.527 5.424-4.137c.76-.201 1.531-.301 2.297-.301 1.553 0 3.085.41 4.464 1.211 2.058 1.196 3.527 3.122 4.135 5.424l23.725 89.593h-18.438zm-10.331 105.073h25.716l6.006 22.682-32.849 6.98c-3.492.742-6.645 2.21-9.345 4.203zm-41.19 133.209 17.505-56.613h230.89c.119 0 .235-.011.352-.018l17.51 56.631c.032.105.067.209.102.313 2.591 7.498 4.78 15.085 6.578 22.729h-.001-52.476c-3.32 0-6.012 2.692-6.012 6.012v45.667c0 6.449-5.246 11.695-11.695 11.695s-11.695-5.246-11.695-11.695v-45.667c0-3.32-2.692-6.012-6.012-6.012h-31.687c-3.321 0-6.012 2.692-6.012 6.012v64.307c0 6.449-5.247 11.695-11.695 11.695-6.449 0-11.695-5.246-11.695-11.695v-64.307c0-3.32-2.692-6.012-6.012-6.012h-50.327c-3.32 0-6.012 2.692-6.012 6.012v14.911c0 6.449-5.246 11.695-11.695 11.695s-11.695-5.247-11.695-11.695v-14.911c0-3.32-2.692-6.012-6.012-6.012h-38.88-.001c1.798-7.644 3.987-15.23 6.578-22.729.033-.105.067-.209.099-.313zm166.376 140.509 38.788-4.02c.428-.045.852-.066 1.273-.066 6.201 0 11.54 4.703 12.193 11.003l4.23 40.821c.338 3.259-.614 6.455-2.679 8.998-2.066 2.543-4.998 4.13-8.258 4.467l-39.466 4.09c-6.731.698-12.769-4.209-13.466-10.937l-3.263-31.487zm-8.024-11.254-17.323 37.204c-1.383 2.97-3.84 5.224-6.918 6.347-3.079 1.123-6.409.978-9.38-.405l-35.97-16.748c-6.132-2.855-8.797-10.166-5.942-16.298l17.323-37.204c2.077-4.462 6.513-7.088 11.139-7.088.24 0 .481.023.722.038.895 12.269 11.156 21.98 23.649 21.98 5.533 0 10.626-1.91 14.665-5.097l2.092.974c2.97 1.383 5.225 3.84 6.347 6.918 1.123 3.077.979 6.408-.404 9.379zm64.923 100.546-.551.649h-179.189l-.551-.648c-45.947-54.123-64.649-126.387-52.069-195.24.737.322 1.55.504 2.406.504h32.868v8.899c0 13.079 10.641 23.72 23.72 23.72s23.72-10.641 23.72-23.72v-8.899h38.302v47.993c-9.385-.246-18.482 4.979-22.691 14.016l-17.323 37.204c-5.654 12.143-.374 26.622 11.768 32.275l35.97 16.748c3.263 1.52 6.744 2.284 10.239 2.284 2.806 0 5.62-.493 8.335-1.483 2.638-.962 5.027-2.365 7.131-4.099l1.669 16.102c1.293 12.476 11.865 21.789 24.145 21.788.833 0 1.675-.043 2.522-.13l39.466-4.09c6.454-.669 12.262-3.811 16.352-8.847 4.091-5.037 5.976-11.365 5.307-17.819l-4.23-40.821c-1.381-13.323-13.35-23.035-26.666-21.658l-32.703 3.389c.653-4.043.273-8.208-1.168-12.161-2.198-6.029-6.593-10.846-12.379-13.601 1.091-2.722 1.697-5.688 1.697-8.795v-58.294h19.663v39.655c0 13.079 10.641 23.72 23.72 23.72s23.72-10.641 23.72-23.72v-39.655h46.464c.856 0 1.669-.182 2.406-.505 12.579 68.852-6.123 141.116-52.07 195.239z" fill="#3c122c"/><g fill="#fff"><path d="m139.175 395.419c-3.841 0-7.506-2.22-9.164-5.958-4.84-10.906-6.324-22.779-7.075-31.904-.454-5.516 3.649-10.355 9.165-10.809 5.517-.454 10.355 3.649 10.809 9.165.621 7.55 1.799 17.262 5.419 25.418 2.245 5.058-.035 10.979-5.094 13.224-1.321.586-2.702.864-4.06.864z"/><path d="m132.516 341.11c-.141 0-.282-.003-.424-.009-5.53-.23-9.825-4.899-9.595-10.429.11-2.65.26-5.062.457-7.372.471-5.514 5.313-9.6 10.837-9.132 5.514.471 9.602 5.323 9.132 10.837-.172 2.017-.304 4.143-.402 6.5-.225 5.389-4.664 9.605-10.005 9.605z"/><path d="m211.91 233.362h-25.665c-5.534 0-10.021-4.486-10.021-10.021s4.486-10.021 10.021-10.021h25.665c5.534 0 10.021 4.486 10.021 10.021s-4.486 10.021-10.021 10.021z"/><path d="m157.05 233.362h-3.454c-5.534 0-10.021-4.486-10.021-10.021s4.486-10.021 10.021-10.021h3.454c5.534 0 10.021 4.486 10.021 10.021s-4.486 10.021-10.021 10.021z"/></g></g></g></svg>