<svg id="Capa_1" enable-background="new 0 0 512 512" height="512" viewBox="0 0 512 512" width="512" xmlns="http://www.w3.org/2000/svg"><g><g><path d="m371.423 133.866h-225.499v-54.623c0-13.371 10.839-24.21 24.21-24.21h177.08c13.371 0 24.21 10.839 24.21 24.21z" fill="#d789b9"/><path d="m371.423 109.956h-223.666l-14.667 90.571v277.196c0 13.384 10.85 24.234 24.234 24.234h202.698c13.384 0 24.234-10.85 24.234-24.234v-277.196z" fill="#e8c2d8"/><path d="m133.091 402.646h251.166v36.591h-251.166z" fill="#fff"/><path d="m133.091 437.931v39.793c0 13.384 10.85 24.234 24.234 24.234h202.698c13.384 0 24.234-10.85 24.234-24.234v-39.793z" fill="#d789b9"/><path d="m329.773 77.17v26.891h41.65v-24.715c0-13.427-10.885-24.312-24.312-24.312h-37.401c11.08-.001 20.063 9.91 20.063 22.136z" fill="#c668b9"/><path d="m340.364 399.543h43.892v-199.016l-12.245-86.424h-41.074l9.427 73.399z" fill="#d392d8"/><path d="m340.364 409.586h43.893v23.136h-43.893z" fill="#e1bdfc"/><path d="m340.189 442.764c-1.28 10.824-9.664 19.185-19.824 19.185h-167.275c-11.045 0-19.999-9.879-19.999-22.065v37.839c0 13.384 10.85 24.234 24.234 24.234h202.698c13.384 0 24.234-10.85 24.234-24.234v-34.959z" fill="#c668b9"/><path d="m260.963 166.836c-5.726 0-11.216-3.227-13.836-8.743l-42.329-89.125-95.179-33.209c-7.962-2.84-12.114-11.597-9.273-19.559 2.84-7.962 11.595-12.115 19.559-9.273l101.144 35.337c3.82 1.363 6.943 4.186 8.683 7.85l45.046 94.846c3.627 7.636.377 16.766-7.259 20.392-2.12 1.007-4.356 1.484-6.556 1.484z" fill="#ccf3e2"/><path d="m309.446 232.604c34.255 30.147 37.586 82.355 7.439 116.611-30.147 34.255-82.355 37.586-116.611 7.439z" fill="#a1e8c3"/><path d="m291.239 253.292c22.83 20.092 25.049 54.886 4.958 77.715-20.091 22.83-54.886 25.049-77.716 4.958z" fill="#d789b9"/><path d="m461.86 55.476 8.403 23.628c.36 1.012 1.072 1.813 1.971 2.218l20.992 9.458c2.966 1.336 2.966 6.062 0 7.398l-20.992 9.458c-.899.405-1.611 1.207-1.971 2.218l-8.403 23.628c-1.187 3.338-5.385 3.338-6.573 0l-8.403-23.628c-.36-1.012-1.072-1.813-1.971-2.218l-20.992-9.458c-2.966-1.336-2.966-6.061 0-7.398l20.992-9.458c.899-.405 1.611-1.207 1.971-2.218l8.403-23.628c1.188-3.338 5.386-3.338 6.573 0z" fill="#e8c2d8"/><ellipse cx="62.092" cy="176.518" fill="#d789b9" rx="18.348" ry="18.348" transform="matrix(.875 -.483 .483 .875 -77.592 52.01)"/><path d="m504.461 178.705c0 4.291-3.479 7.77-7.77 7.77s-7.77-3.479-7.77-7.77c0-4.292 3.479-7.77 7.77-7.77 4.292-.001 7.77 3.478 7.77 7.77z" fill="#d789b9"/><path d="m37.331 250.884 6.233 17.527c.267.75.795 1.345 1.462 1.645l15.572 7.016c2.2.991 2.2 4.496 0 5.487l-15.572 7.016c-.667.3-1.195.895-1.462 1.645l-6.233 17.527c-.881 2.476-3.995 2.476-4.875 0l-6.233-17.527c-.267-.75-.795-1.345-1.462-1.645l-15.572-7.016c-2.2-.991-2.2-4.496 0-5.487l15.572-7.016c.667-.3 1.195-.895 1.462-1.645l6.233-17.527c.88-2.476 3.994-2.476 4.875 0z" fill="#e8c2d8"/></g><g><g><g><g fill="#3c122c"><path d="m394.2 199.118-12.734-89.868v-29.904c0-18.943-15.411-34.355-34.355-34.355h-113.387c-2.532-3.875-6.224-6.823-10.688-8.415l-101.107-35.324c-5.367-1.915-11.159-1.627-16.308.815-5.147 2.441-9.037 6.741-10.951 12.108-1.915 5.366-1.625 11.158.816 16.306s6.741 9.038 12.147 10.966l40.093 13.438c-6.333 6.232-10.267 14.893-10.267 24.459l.104 30.734-14.386 88.841c-.086.531-.129 1.068-.129 1.605v277.196c0 18.9 15.376 34.277 34.276 34.277h202.698c18.9 0 34.277-15.376 34.277-34.277v-277.193c0-.471-.033-.942-.099-1.409zm-158.891-51.863c-4.431 2.549-7.302 6.088-7.302 10.695 0 10.848 15.897 15.789 30.667 15.789s30.667-4.941 30.667-15.789c0-4.687-2.971-8.268-7.533-10.826-.345-1.62-.859-3.215-1.587-4.749l-10.628-22.377h93.11l10.76 75.939h-229.456l12.297-75.939h66.059zm138.905 60.734v190.097h-231.081v-190.097zm-231.081 202.147h231.081v22.232h-231.081zm218.248-330.79v20.568h-101.327l-16.546-34.838h103.603c7.868 0 14.27 6.402 14.27 14.27zm-255.005-54.027c-1.062-2.24-1.188-4.759-.355-7.094.834-2.336 2.526-4.206 4.765-5.268 3.022-1.265 6.09-.713 7.131-.341l101.107 35.324c2.333.832 4.202 2.522 5.264 4.759l45.047 94.847c1.064 2.239 1.192 4.758.36 7.093-.831 2.335-2.522 4.207-4.763 5.271-1.258.597-2.593.9-3.97.9-3.569 0-6.864-2.081-8.393-5.303l-43.409-91.4-97.517-34.025c-2.335-.831-4.206-2.523-5.267-4.763zm94.059 48.508 12.389 26.086h-55.28v-20.567c0-7.868 6.402-14.27 14.27-14.27h3.538zm159.587 418.088h-202.697c-7.825 0-14.191-6.366-14.191-14.192v-33.304h231.081v33.304c-.001 7.826-6.367 14.192-14.193 14.192z"/><path d="m196.294 361.177c16.325 14.367 39.409 22.878 64.21 21.922 23.631-1.508 45.261-12.127 60.904-29.903 15.644-17.775 23.429-40.579 21.922-64.21-1.508-23.631-12.128-45.261-29.903-60.904-2.498-2.199-6.307-1.955-8.504.542l-109.172 124.05c-2.199 2.497-1.956 6.305.543 8.503zm95.473-99.364c7.319 8.199 11.676 18.531 12.387 29.671.84 13.167-3.498 25.873-12.215 35.777-8.716 9.904-20.768 15.821-33.935 16.661-11.139.713-21.942-2.297-31.005-8.516zm-72.781 82.7c10.443 7.539 29.476 12.047 39.786 11.437 16.379-1.045 31.371-8.406 42.214-20.726 10.843-12.321 16.24-28.126 15.195-44.505-.916-14.358-6.687-27.649-16.396-38.015l10.051-11.42c12.725 13.072 20.294 30.069 21.468 48.47 1.302 20.419-5.424 40.122-18.941 55.482-13.518 15.359-32.206 24.535-52.625 25.838-18.404 1.172-36.222-4.174-50.805-15.135z"/><path d="m212.864 270.922c0-3.328-2.698-6.026-6.025-6.026h-40.824c-3.327 0-6.025 2.698-6.025 6.026 0 3.327 2.698 6.025 6.025 6.025h40.824c3.327.001 6.025-2.697 6.025-6.025z"/><path d="m166.015 247.691h72.801c3.327 0 6.025-2.698 6.025-6.025 0-3.328-2.698-6.025-6.025-6.025h-72.801c-3.327 0-6.025 2.698-6.025 6.025-.001 3.327 2.697 6.025 6.025 6.025z"/><path d="m261.698 335.542c3.328 0 6.025-2.698 6.025-6.025v-12.322c0-3.327-2.698-6.025-6.025-6.025-3.328 0-6.025 2.698-6.025 6.025v12.322c0 3.327 2.698 6.025 6.025 6.025z"/><path d="m284.416 309.257c3.328 0 6.025-2.698 6.025-6.026v-12.321c0-3.328-2.698-6.026-6.025-6.026-3.328 0-6.025 2.698-6.025 6.026v12.322c0 3.327 2.698 6.025 6.025 6.025z"/></g><path d="m171.395 189.493c-.495 0-.997-.037-1.502-.113-5.485-.822-9.264-5.936-8.441-11.421.59-3.935 2.198-14.189 2.777-18.049.822-5.485 5.934-9.265 11.421-8.441 5.485.823 9.264 5.936 8.441 11.421-.588 3.916-2.195 14.171-2.777 18.048-.747 4.981-5.031 8.555-9.919 8.555z" fill="#fff"/></g></g><ellipse cx="178.847" cy="133.648" fill="#fff" rx="10.968" ry="10.113" transform="matrix(.09 -.996 .996 .09 29.729 299.816)"/></g></g></svg>