<svg id="Capa_1" enable-background="new 0 0 512 512" height="512" viewBox="0 0 512 512" width="512" xmlns="http://www.w3.org/2000/svg"><g><g><path d="m342.516 501.952h-131.215c-42.325 0-77.155-33.306-79.049-75.588l-10.236-228.611c-.611-13.636 10.28-25.025 23.929-25.025h261.926c13.65 0 24.54 11.389 23.93 25.025l-10.236 228.611c-1.894 42.282-36.724 75.588-79.049 75.588z" fill="#fff"/><path d="m407.871 172.728h-68.463c10.381 0 18.663 8.661 18.199 19.032l-2.813 62.83h24.198c2.188 0 3.633 1.149 4.341 2.668 1.505.712 2.645 2.145 2.645 4.318v130.798c0 2.957-2.094 4.556-4.37 4.812v52.739h-10.229c.305 2.71-1.298 5.678-4.812 5.678h-178.54c-3.52 0-5.119-2.967-4.812-5.678l-8.922-3.924-5.232-22.893h-7.479c-14.009 0-25.884-9.454-29.45-22.437l1.787 35.849c.961 21.465 35.536 60.776 57.022 60.776h174.291c21.487 0 53.706-39.312 54.667-60.776l11.903-238.766c.609-13.637-10.281-25.026-23.931-25.026z" fill="#e1bdfc"/><g fill="#a1e8c3"><ellipse cx="233.418" cy="47.235" rx="15.158" ry="40.668" transform="matrix(.982 -.19 .19 .982 -4.722 45.129)"/><ellipse cx="233.418" cy="47.235" rx="15.158" ry="40.668" transform="matrix(.982 -.19 .19 .982 -4.722 45.129)"/><ellipse cx="273.312" cy="80.74" rx="40.668" ry="15.158" transform="matrix(.062 -.998 .998 .062 175.794 348.525)"/><ellipse cx="304.513" cy="111.023" rx="40.668" ry="15.158" transform="matrix(.276 -.961 .961 .276 113.843 373.128)"/><ellipse cx="329.29" cy="150.482" rx="40.668" ry="15.158" transform="matrix(.516 -.857 .857 .516 30.604 355.088)"/><ellipse cx="352.231" cy="189.942" rx="40.668" ry="15.158" transform="matrix(.738 -.675 .675 .738 -35.831 287.679)"/><ellipse cx="186.593" cy="83.952" rx="15.158" ry="40.668" transform="matrix(.11 -.994 .994 .11 82.713 260.229)"/><ellipse cx="215.958" cy="123.411" rx="40.668" ry="15.158" transform="matrix(.989 -.149 .149 .989 -15.986 33.578)"/><ellipse cx="238.9" cy="160.118" rx="40.668" ry="15.158" transform="matrix(.968 -.251 .251 .968 -32.542 65.089)"/><ellipse cx="262.759" cy="194.071" rx="40.668" ry="15.158" transform="matrix(.994 -.111 .111 .994 -19.986 30.482)"/></g><path d="m383.045 172.728h-33.851c-.716.548-1.432 1.11-2.148 1.689 6.492 3.006 10.904 9.704 10.561 17.343l-.629 14.058c1.835-1.468 3.671-3.031 5.489-4.695 10.662-9.761 18.118-20.402 20.578-28.395z" fill="#85adc2"/><path d="m352.134 460.262h-150.452c-15.714 0-28.646-10.599-29.349-24.055l-8.705-166.637c-.446-8.548 7.518-15.687 17.501-15.687h191.558c9.983 0 17.947 7.139 17.501 15.687l-8.705 166.637c-.703 13.456-13.635 24.055-29.349 24.055z" fill="#f3d4d2"/><path d="m354.686 256.998-6.131 136.926c-.731 16.326-14.178 29.184-30.519 29.184h-146.359v20.719c4.252 4.736 8.289 9.664 12.316 14.601h183.361c7.092-5.869 7.288-12.125 14.253-18.312l7.194-183.117h-34.115z" fill="#dba2b3"/><path d="m273.32 330.769-8.966-29.53c-2.927-9.64-13.114-15.082-22.754-12.155l-28.4 8.622c-9.64 2.927-15.082 13.114-12.155 22.754l8.966 29.53c2.927 9.64 13.114 15.082 22.754 12.155l28.4-8.622c9.64-2.927 15.082-13.114 12.155-22.754z" fill="#fff"/><path d="m467.64 16.863 8.961 25.198c.384 1.079 1.143 1.934 2.102 2.366l22.387 10.086c3.163 1.425 3.163 6.464 0 7.889l-22.387 10.086c-.958.432-1.718 1.287-2.102 2.366l-8.961 25.198c-1.266 3.56-5.743 3.56-7.009 0l-8.961-25.198c-.384-1.079-1.143-1.934-2.102-2.366l-22.388-10.086c-3.163-1.425-3.163-6.464 0-7.889l22.387-10.086c.959-.432 1.718-1.287 2.102-2.366l8.961-25.198c1.267-3.56 5.744-3.56 7.01 0z" fill="#cdf4e3"/><path d="m92.049 27.402c0 10.807-8.761 19.568-19.567 19.568-10.807 0-19.568-8.761-19.568-19.568s8.761-19.568 19.568-19.568c10.806 0 19.567 8.76 19.567 19.568z" fill="#a2e9c4"/><path d="m365.532 8.441c0 4.662-3.779 8.441-8.441 8.441s-8.441-3.779-8.441-8.441 3.779-8.441 8.441-8.441 8.441 3.779 8.441 8.441z" fill="#a2e9c4"/><path d="m40.309 151.826 6.647 18.691c.285.8.848 1.434 1.559 1.755l16.607 7.482c2.346 1.057 2.346 4.795 0 5.852l-16.607 7.482c-.711.32-1.274.954-1.559 1.755l-6.647 18.691c-.939 2.641-4.26 2.641-5.199 0l-6.647-18.691c-.285-.8-.848-1.434-1.559-1.755l-16.607-7.482c-2.346-1.057-2.346-4.795 0-5.852l16.607-7.482c.711-.32 1.274-.954 1.559-1.755l6.647-18.691c.939-2.64 4.26-2.64 5.199 0z" fill="#cdf4e3"/></g><g fill="#3c122c"><path d="m432.446 173.182c-6.476-6.773-15.204-10.503-24.575-10.503h-18.644c-.546-1.552-1.379-2.987-2.552-4.269-3.224-3.524-9.786-6.619-22.732-1.382-3.485 1.411-7.148 3.326-10.859 5.65h-6.434c.264-.426.537-.849.795-1.277 5.961-9.909 10.144-20.183 11.779-28.93 2.566-13.729-1.773-19.544-5.863-22.005-4.091-2.46-11.261-3.568-22.188 5.132-2.844 2.265-5.713 5.031-8.52 8.18.815-2.283 1.561-4.597 2.226-6.915 6.2-21.62 6.5-46.715-7.492-50.729-8.386-2.399-16.431 4.342-22.868 14.781 1.154-22.132-4.029-45.897-18.314-46.784-9.528-.593-16.294 9.409-20.218 22.691-.292-4.402-.872-8.977-1.766-13.606-2.193-11.354-5.953-21.792-10.586-29.389-7.273-11.926-14.387-13.354-19.073-12.442-4.688.905-10.76 4.876-13.068 18.65-1.47 8.777-1.072 19.862 1.122 31.216 1.289 6.671 3.204 13.378 5.64 19.418-7.859-3.799-18.228-6.555-29.341-7.779-22.356-2.463-47.143 1.476-48.737 15.945-1.594 14.471 21.741 23.712 44.096 26.174 4.158.458 8.261.685 12.215.685.567 0 1.126-.012 1.686-.022-5.695 1.679-10.865 3.763-15.173 6.154-12.214 6.775-13.93 13.824-13.218 18.545s4.43 10.952 18.098 13.824c4.49.943 9.614 1.416 15.092 1.415 5.146 0 10.605-.417 16.144-1.252.087-.013.173-.028.26-.041-11.378 4.67-21.016 11.089-24.593 18.36h-48.839c-9.371 0-18.098 3.73-24.575 10.503-6.476 6.773-9.812 15.658-9.393 25.02l10.236 228.61c2.139 47.772 41.271 85.19 89.087 85.19h131.215c47.817 0 86.949-37.418 89.087-85.188l10.236-228.61c.419-9.361-2.916-18.247-9.393-25.02zm-135.265 16.99c-.281 2.791-11.985 10.569-33.405 12.971-21.421 2.403-34.556-2.593-35.439-5.173.281-2.791 11.986-10.57 33.405-12.971 3.964-.445 7.644-.636 11.015-.636 14.846 0 23.704 3.706 24.424 5.809zm.776-34.126c2.139-.5 4.233-1.525 6.257-2.999-1.223 2.863-2.284 5.723-3.149 8.527-1.023-1.854-2.055-3.701-3.108-5.528zm29.317 29.461c-3.445 4.184-6.422 8.503-8.639 12.715-.904-2.191-1.838-4.35-2.775-6.506 3.71-.976 7.581-3.169 11.414-6.209zm18.793-2.299c.164-.15.324-.285.487-.432h24.347c-3.037 4.237-7.142 8.989-12.505 13.899-15.898 14.556-29.456 18.258-31.69 16.688-1.416-2.421 3.462-15.6 19.361-30.155zm-24.6-37.431c10.533-17.511 21.82-25.068 25.168-25.068.184 0 .344.023.478.068 2.046 1.919 1.11 15.942-10 34.411-1.648 2.74-3.314 5.23-4.966 7.492h-18.731c1.707-4.931 4.296-10.661 8.051-16.903zm-25.729-37.271c5.895-20.553 15.412-30.797 18.221-30.797.023 0 .045.001.067.003 2.473 1.323 5.205 15.108-.737 35.827s-15.601 30.938-18.287 30.795c-2.474-1.324-5.207-15.11.736-35.828zm-8.077 54.174h-8.256c1.979-2.152 3.459-4.41 4.299-6.746 1.346 2.223 2.659 4.477 3.957 6.746zm-9.725-37.286c.9-.554 1.768-1.207 2.597-1.97-.178 1.683-.303 3.344-.377 4.976-.727-1.011-1.481-2.003-2.22-3.006zm-13.735-45.219c1.336-21.514 8.525-33.59 11.218-34.014 2.7.759 8.34 13.63 7.005 35.144-1.336 21.514-8.524 33.59-11.218 34.013-2.701-.758-8.341-13.63-7.005-35.143zm-3.06 43.269c3.712 4.684 7.29 9.48 10.741 14.391-7.561-2.168-17.651-2.057-27.869-.415 1.732-.767 3.373-1.576 4.903-2.425 7.081-3.928 10.628-7.946 12.225-11.551zm-9.184-38.235c-.037 3.193.061 6.382.302 9.5-1.404-1.48-2.833-2.944-4.269-4.403 1.409-1.199 2.769-2.848 3.967-5.097zm-25.148-71.979c2.804.06 11.484 11.113 15.572 32.274 4.088 21.162.149 34.653-2.354 35.738-2.804-.059-11.484-11.112-15.573-32.275-4.087-21.164-.147-34.653 2.355-35.737zm5.56 78.612c3.601 3.454 7.108 6.98 10.524 10.578-6.132-1.157-13.335-1.481-20.979-.954 6.395-2.746 9.28-6.34 10.455-9.624zm-46.776 1.184c-21.425-2.36-33.143-10.117-33.438-12.828.727-2.177 9.648-5.934 24.605-5.934 3.321 0 6.941.186 10.834.614 21.424 2.36 33.143 10.117 33.438 12.828-.888 2.66-14.013 7.678-35.439 5.32zm31.727 39.412c-21.314 3.216-34.63-1.279-35.611-3.822.175-2.8 11.575-11.018 32.888-14.232 5.258-.793 10.027-1.117 14.247-1.117 12.884 0 20.625 3.022 21.364 4.939-.175 2.8-11.575 11.018-32.888 14.232zm19.288 18.843c8.518-2.209 15.841-3.001 21.613-3.001 8.365 0 13.468 1.666 14.201 3.104.078 1.877-4.605 6.693-13.97 11.296h-47.692c5.065-3.756 13.691-8.246 25.848-11.399zm174.918 274.632c-1.657 37.004-31.97 65.99-69.011 65.99h-131.214c-37.04 0-67.353-28.986-69.01-65.99l-10.236-228.61c-.172-3.828 1.193-7.462 3.841-10.232 2.649-2.77 6.217-4.295 10.05-4.295h61.432c3.594.861 7.672 1.266 12.031 1.266 2.097 0 4.259-.098 6.455-.272-8.535 5.584-9.973 11.384-9.511 15.503 1.323 11.795 18.047 16.56 36.294 16.56 4.132 0 8.346-.245 12.473-.708 11.492-1.288 22.193-4.211 30.133-8.228 5.027-2.544 8.347-5.197 10.487-7.769 7.105 16.687 13.212 34.417 18.343 53.291h12.603c-2.419-9.202-5.066-18.118-7.925-26.786 3.171-.076 7.036-.869 11.759-2.78 8.249-3.338 17.488-9.476 26.018-17.284 7.505-6.871 14.345-14.978 18.684-22.793h22.65c3.833 0 7.401 1.525 10.05 4.295s4.013 6.403 3.841 10.232z"/><path d="m352.134 466.29h-150.452c-18.961 0-34.497-13.076-35.369-29.768l-8.705-166.638c-.28-5.352 1.692-10.539 5.553-14.607 4.478-4.718 11.028-7.424 17.969-7.424h191.558c6.941 0 13.491 2.706 17.969 7.424 3.86 4.068 5.832 9.255 5.553 14.605l-8.705 166.639c-.873 16.694-16.409 29.769-35.371 29.769zm-171.004-206.378c-3.649 0-7.011 1.337-9.223 3.667-1.104 1.164-2.392 3.093-2.257 5.676l8.705 166.638c.538 10.285 10.784 18.34 23.328 18.34h150.452c12.544 0 22.79-8.056 23.328-18.34l8.705-166.638c.135-2.583-1.153-4.512-2.257-5.676-2.212-2.331-5.573-3.667-9.223-3.667z"/><path d="m227.537 368.942c-10.448 0-20.133-6.782-23.321-17.285l-8.914-29.361c-3.902-12.852 3.38-26.483 16.232-30.385l28.231-8.572c6.226-1.892 12.815-1.244 18.554 1.823 5.739 3.066 9.94 8.183 11.831 14.408l8.915 29.361c3.902 12.852-3.38 26.482-16.232 30.386l-28.231 8.571c-2.35.714-4.727 1.054-7.065 1.054zm19.32-74.601c-1.201 0-2.408.178-3.589.537l-28.231 8.572c-6.49 1.97-10.168 8.853-8.197 15.344l8.915 29.361c1.971 6.489 8.854 10.169 15.344 8.197l28.23-8.571c6.49-1.971 10.168-8.854 8.197-15.345l-8.915-29.361c-.954-3.144-3.076-5.728-5.974-7.276-1.809-.967-3.786-1.458-5.78-1.458z"/><path d="m306.481 407.084c-3.33 0-6.029-2.7-6.029-6.029v-15.324c0-3.33 2.699-6.029 6.029-6.029 3.329 0 6.029 2.699 6.029 6.029v15.324c0 3.33-2.699 6.029-6.029 6.029z"/><path d="m340.137 388.012c-3.329 0-6.029-2.7-6.029-6.029v-15.323c0-3.329 2.699-6.029 6.029-6.029s6.029 2.7 6.029 6.029v15.323c0 3.329-2.699 6.029-6.029 6.029z"/></g></g></svg>