<svg id="Capa_1" enable-background="new 0 0 512 512" height="512" viewBox="0 0 512 512" width="512" xmlns="http://www.w3.org/2000/svg"><g><g><path d="m328.865 454.701c1.246.1 2.524.042 3.812-.19 8.016-1.446 13.341-9.116 11.895-17.132l-75.631-419.216c-1.445-8.016-9.116-13.342-17.132-11.895-8.015 1.446-13.342 9.116-11.895 17.132l75.631 419.216c1.214 6.727 6.813 11.561 13.32 12.085z" fill="#fff"/><path d="m372.88 139.534h-5.048c.325-1.341.515-2.733.515-4.174v-11.431c0-9.778-7.927-17.705-17.706-17.705h-164.732c-9.779 0-17.706 7.927-17.706 17.705v11.431c0 1.441.191 2.833.515 4.174h-5.048c-9.779 0-17.706 7.927-17.706 17.705v21.84c0 9.624 7.683 17.437 17.247 17.682l6.506 290.898c.178 7.949 6.311 14.295 13.815 14.295h168.511c7.479 0 13.601-6.304 13.813-14.226l7.809-290.984c9.411-.414 16.919-8.153 16.919-17.666v-21.84c.001-9.777-7.926-17.704-17.704-17.704z" fill="#c1e5ef"/><path d="m326.725 196.155-5.93 247.003c-.165 6.894-4.932 12.382-10.755 12.382h-131.196c-4.566 0-8.469-3.38-10.027-8.157l.901 40.279c.178 7.949 6.31 14.295 13.815 14.295h168.511c7.479 0 13.601-6.305 13.813-14.226l7.825-291.575h-46.957z" fill="#a6aaed"/><path d="m329.935 475.166h-123.903c-5.518 0-10.027-4.057-10.158-9.138l-5.408-210.226c-.135-5.255 4.452-9.582 10.158-9.582h135.801c5.725 0 10.319 4.355 10.157 9.626l-6.49 210.225c-.156 5.065-4.657 9.095-10.157 9.095z" fill="#faf1a9"/><path d="m336.425 246.221h-10.902l-4.728 196.937c-.165 6.894-4.932 12.382-10.755 12.382h-114.436l.27 10.489c.131 5.082 4.64 9.138 10.158 9.138h123.904c5.499 0 10-4.03 10.157-9.094l6.489-210.225c.162-5.272-4.432-9.627-10.157-9.627z" fill="#dfb5a7"/><path d="m53.313 74.528 8.276 23.272c.354.996 1.056 1.786 1.941 2.185l20.676 9.315c2.921 1.316 2.921 5.97 0 7.286l-20.676 9.316c-.885.399-1.587 1.188-1.941 2.185l-8.277 23.272c-1.169 3.288-5.304 3.288-6.474 0l-8.277-23.272c-.354-.996-1.056-1.786-1.941-2.185l-20.677-9.316c-2.921-1.316-2.921-5.97 0-7.286l20.677-9.315c.885-.399 1.587-1.189 1.941-2.185l8.277-23.272c1.17-3.288 5.305-3.288 6.475 0z" fill="#faf1a9"/><ellipse cx="416.663" cy="54.901" fill="#f6e06e" rx="18.072" ry="18.072" transform="matrix(.231 -.973 .973 .231 267.141 447.668)"/><ellipse cx="145.674" cy="40.906" fill="#f6e06e" rx="7.796" ry="7.796" transform="matrix(.925 -.381 .381 .925 -4.6 58.566)"/><path d="m473.704 190.799 6.139 17.263c.263.739.783 1.325 1.44 1.621l15.337 6.91c2.167.976 2.167 4.429 0 5.405l-15.337 6.91c-.657.296-1.177.882-1.44 1.621l-6.139 17.263c-.867 2.439-3.935 2.439-4.802 0l-6.139-17.263c-.263-.739-.783-1.325-1.44-1.621l-15.338-6.91c-2.167-.976-2.167-4.429 0-5.405l15.338-6.91c.657-.296 1.177-.882 1.44-1.621l6.139-17.263c.868-2.439 3.935-2.439 4.802 0z" fill="#faf1a9"/></g><g><g fill="#3c122c"><path d="m329.935 481.193h-123.904c-8.858 0-15.966-6.594-16.182-15.01l-5.408-210.225c-.104-4.033 1.425-7.881 4.304-10.835 3.053-3.132 7.382-4.929 11.878-4.929h135.801c4.511 0 8.851 1.807 11.906 4.957 2.882 2.971 4.399 6.836 4.275 10.881l-6.49 210.226c-.258 8.374-7.365 14.935-16.18 14.935zm-129.311-228.946c-1.265 0-2.448.47-3.246 1.289-.418.429-.912 1.144-.887 2.112l5.408 210.225c.046 1.801 1.901 3.266 4.133 3.266h123.904c2.224 0 4.078-1.46 4.133-3.254l6.49-210.225c.03-.969-.463-1.687-.88-2.119-.798-.823-1.984-1.295-3.253-1.295h-135.802z"/><path d="m378.392 130.041v-6.111c0-15.302-12.449-27.751-27.75-27.751h-61.501l-14.268-79.086c-.984-5.461-4.037-10.211-8.596-13.377-4.559-3.165-10.077-4.368-15.537-3.379-5.461.985-10.212 4.037-13.377 8.595s-4.365 10.077-3.38 15.537l12.937 71.709h-61.012c-15.301 0-27.75 12.449-27.75 27.751v6.111c-12.67 2.564-22.238 13.784-22.238 27.198v21.841c0 11.653 7.224 21.645 17.425 25.75l6.33 283.055c.304 13.523 10.783 24.116 23.858 24.116h168.511c13.015 0 23.493-10.543 23.855-24.001l7.603-283.286c10.046-4.178 17.129-14.092 17.129-25.633v-21.841c-.001-13.414-9.57-24.634-22.239-27.198zm-132.546-107.712c-.414-2.292.09-4.608 1.418-6.522 1.329-1.914 3.323-3.195 5.616-3.609 2.291-.414 4.609.09 6.523 1.419 1.913 1.328 3.195 3.321 3.608 5.615l13.882 76.946h-17.724zm-59.937 93.939h164.733c4.224 0 7.661 3.437 7.661 7.662v5.56h-180.055v-5.56c0-4.225 3.436-7.662 7.661-7.662zm-29.899 40.971c0-4.224 3.437-7.661 7.661-7.661h209.209c4.224 0 7.661 3.437 7.661 7.661v21.841c0 4.224-3.437 7.661-7.661 7.661h-209.209c-4.224 0-7.661-3.437-7.661-7.661zm196.034 334.672h-168.511c-2.025 0-3.718-2.008-3.773-4.476l-6.276-280.605h189.863l-7.531 280.63c-.065 2.454-1.758 4.451-3.772 4.451z"/><path d="m285.807 332.612c-11.416 0-20.704-9.288-20.704-20.704s9.288-20.704 20.704-20.704 20.704 9.288 20.704 20.704-9.288 20.704-20.704 20.704zm0-29.355c-4.77 0-8.651 3.88-8.651 8.651 0 4.77 3.881 8.651 8.651 8.651s8.65-3.88 8.65-8.651c0-4.77-3.88-8.651-8.65-8.651z"/><path d="m251.562 394.635c-11.416 0-20.704-9.288-20.704-20.704s9.288-20.703 20.704-20.703 20.704 9.287 20.704 20.703-9.288 20.704-20.704 20.704zm0-29.353c-4.77 0-8.65 3.88-8.65 8.65s3.88 8.651 8.65 8.651 8.651-3.88 8.651-8.651c-.001-4.77-3.881-8.65-8.651-8.65z"/><path d="m311.024 402.118c-3.328 0-6.027-2.699-6.027-6.027v-12.363c0-3.328 2.699-6.027 6.027-6.027s6.027 2.698 6.027 6.027v12.363c0 3.328-2.699 6.027-6.027 6.027z"/><path d="m292.89 434.538c-3.328 0-6.027-2.699-6.027-6.027v-12.362c0-3.328 2.698-6.027 6.027-6.027 3.328 0 6.027 2.698 6.027 6.027v12.362c0 3.328-2.698 6.027-6.027 6.027z"/></g><path d="m218.339 352.245c-5.385 0-9.842-4.268-10.032-9.692l-1.047-29.82c-.195-5.544 4.142-10.196 9.686-10.391 5.549-.206 10.196 4.141 10.39 9.687l1.047 29.82c.195 5.544-4.142 10.196-9.686 10.391-.119.003-.239.005-.358.005z" fill="#fff"/><path d="m216.441 295.297c-5.393 0-9.852-4.279-10.033-9.71l-.295-8.853c-.185-5.544 4.16-10.189 9.704-10.373 5.553-.219 10.189 4.159 10.374 9.704l.295 8.853c.185 5.544-4.16 10.189-9.704 10.373-.113.004-.228.006-.341.006z" fill="#fff"/></g></g></svg>