<svg id="Capa_1" enable-background="new 0 0 512 512" height="512" viewBox="0 0 512 512" width="512" xmlns="http://www.w3.org/2000/svg"><g><g><path d="m490.056 429.537c-9.656 37.907-104.586 70.829-233.6 70.829s-226.596-32.343-233.6-70.829c-2.321-12.757-16.67-46.159-9.613-51.333 37.087-27.197 161.78-19.495 243.213-19.495 102.667 0 211.868-6.117 243.2 21.799 8.041 7.163-7.621 41.261-9.6 49.029z" fill="#a07575"/><ellipse cx="256.456" cy="382.804" fill="#c49a8b" rx="245.234" ry="70.829"/><ellipse cx="298.114" cy="391.342" fill="#b2748a" rx="185.101" ry="51.829"/><path d="m318.62 267.502c6.513-16.728 18.797-30.577 34.199-39.796l29.166-17.458-20.112-29.33-54.613 24.345c-2.013-1.406-4.143-2.275-6.334-2.529-3.983-6.035-8.874-11.257-14.532-15.736 2.298-2.791 3.536-5.744 3.536-8.799 0-17.229-39.174-31.195-87.497-31.195s-87.497 13.966-87.497 31.195c0 3.056 1.238 6.008 3.536 8.799-4.487 3.552-8.494 7.57-11.946 12.093-13.001-6.715-25.982-10.239-38.062-10.244-.008 0-.016 0-.024 0-19.611 0-36.447 8.959-48.689 25.91-8.462 11.716-11.532 26.755-8.644 42.349 4.117 22.232 19.981 44.27 42.434 58.951 14.929 9.761 32.082 14.871 49.015 14.871 4.732 0 9.448-.4 14.093-1.208 5.554 9.865 11.798 18.851 18.483 26.164 7.696 8.42 18.568 13.225 29.975 13.225h65.643c2.163 14.568 10.653 27.068 22.605 34.601 5.066 3.192 8.166 8.733 8.166 14.721v5.165h52.459v-3.557c0-6.768 3.34-13.14 8.994-16.862 13.453-8.856 22.336-24.084 22.336-41.395v-19.183h-67.086c12.576-17.565 23.111-39.966 29.148-61.205 4.656-2.048 8.581-7.042 11.248-13.892zm-248.064 22.535c-15.251-9.971-26.317-24.759-28.879-38.591-.938-5.065-1.13-12.383 3.278-18.487 6.846-9.48 15.279-12.988 24.012-12.988 8.409 0 17.091 3.258 24.907 7.565-1.223 5.937-1.869 12.355-1.869 19.29 0 15.473 4.067 34.432 10.892 52.975-11.04.034-22.543-3.356-32.341-9.764z" fill="#a07575"/><ellipse cx="202.434" cy="142.013" fill="#e8a284" rx="27.451" ry="27.451" transform="matrix(.707 -.707 .707 .707 -41.127 184.737)"/><path d="m227.726 345.625c.486-2.142 2.722-3.679 4.844-3.688 15.567-.065 31.08-1.385 46.571-.631 11.223-16.012 20.746-35.82 26.78-55.058-.03-.181-.061-.362-.091-.543-3.155-1.986-5.826-4.779-7.814-8.323-8.918-15.893-6.58-37.697-5.403-55.096.586-8.66 1.377-17.308 1.905-25.972h-3.57c-6.436 3.394-12.956 6.63-19.473 9.875 3.131 7.727 4.831 16.685 4.831 27.007 0 28.005-17.431 69.691-38.709 91.844-6.316 6.576-15.102 10.199-24.219 10.199h-60.37c-9.519 0-18.591-4.01-25.014-11.036-3.324-3.637-6.515-7.775-9.535-12.26h-10.665c7.353 16.748 16.802 32.416 27.338 43.943 7.696 8.42 18.568 13.225 29.975 13.225h62.53c-1.57-7.713-1.683-15.67.089-23.486z" fill="#925873"/><path d="m313.322 342.599v13.852c0 12.414-6.326 23.345-15.928 29.759-4.114 2.748-6.695 7.265-6.695 12.213 0 1.472-1.193 2.665-2.665 2.665h-29.717c-.254 2.087-.525 4.173-.794 6.26 2.528 3.014 4 6.816 4 10.863v5.385h52.459v-3.557c0-6.844 3.471-13.191 9.171-16.979 13.354-8.873 22.159-24.043 22.159-41.278v-19.183z" fill="#925873"/><path d="m374.984 297.046v19.183c0 17.664 9.248 33.159 23.164 41.929 5.066 3.192 8.166 8.733 8.166 14.721v5.165h52.459v-3.557c0-6.769 3.34-13.14 8.994-16.862 13.453-8.856 22.336-24.084 22.336-41.395v-19.183h-115.119z" fill="#a07575"/><path d="m459.648 297.047v14.108c0 12.644-6.443 23.776-16.223 30.309-4.19 2.799-6.819 7.4-6.819 12.439 0 1.499-1.215 2.713-2.713 2.713h-35.867v-3.798c0-4.363-2.21-8.451-5.909-10.765-10.288-6.438-17.133-17.866-17.133-30.897v5.075c0 17.659 9.243 33.15 23.152 41.921 5.019 3.165 8.178 8.574 8.178 14.508v5.385h52.459v-3.557c0-6.844 3.471-13.191 9.171-16.979 13.354-8.873 22.159-24.043 22.159-41.278v-19.183h-30.455z" fill="#925873"/><path d="m455.397 87.326 8.465 23.801c.362 1.019 1.08 1.826 1.985 2.234l21.146 9.527c2.987 1.346 2.987 6.106 0 7.452l-21.146 9.527c-.905.408-1.623 1.215-1.985 2.234l-8.465 23.801c-1.196 3.363-5.425 3.363-6.621 0l-8.464-23.801c-.362-1.019-1.08-1.827-1.985-2.234l-21.146-9.527c-2.987-1.346-2.987-6.106 0-7.452l21.146-9.527c.905-.408 1.623-1.215 1.985-2.234l8.464-23.801c1.197-3.363 5.426-3.363 6.621 0z" fill="#efc5b4"/><ellipse cx="30.842" cy="102.96" fill="#e8a284" rx="18.483" ry="18.483" transform="matrix(.117 -.993 .993 .117 -75.024 121.522)"/><path d="m336.452 91.116c0 4.403-3.57 7.973-7.973 7.973s-7.973-3.57-7.973-7.973 3.57-7.973 7.973-7.973 7.973 3.569 7.973 7.973z" fill="#e8a284"/><path d="m143.026 3.459 6.279 17.655c.269.756.801 1.355 1.473 1.658l15.686 7.067c2.216.998 2.216 4.529 0 5.528l-15.686 7.067c-.672.303-1.204.902-1.473 1.657l-6.279 17.655c-.887 2.494-4.024 2.494-4.911 0l-6.279-17.655c-.269-.756-.801-1.355-1.473-1.657l-15.686-7.067c-2.216-.998-2.216-4.529 0-5.528l15.686-7.067c.672-.303 1.204-.902 1.473-1.658l6.279-17.655c.887-2.495 4.024-2.495 4.911 0z" fill="#efc5b4"/></g><g><path d="m511.713 383.502c.005-.233.025-.465.025-.699 0-12.39-7.226-23.86-21.244-34.113 6.201-9.532 9.656-20.762 9.656-32.461v-17.992c0-6.197-5.041-11.238-11.238-11.238h-112.737c-6.196 0-11.238 5.041-11.238 11.238v10.885c-17.356-2.437-35.626-4.288-54.538-5.496 2.035-5.167 3.853-10.369 5.441-15.539 6.542-4.716 11.63-13.046 14.403-24.081 2.112-8.408 7.188-15.381 14.292-19.633l42.61-25.505c2.379-1.424 4.063-3.767 4.656-6.475.592-2.709.038-5.542-1.529-7.828l-20.112-29.331c-2.743-3.999-7.95-5.469-12.377-3.495l-35.027 15.615c-5.091 2.269-10.836 3.824-17.14 4.654-2.029-2.559-4.235-4.999-6.618-7.316.708-2.296.98-4.487.98-6.495 0-9.127-5.604-22.003-32.301-31.52-8.195-2.922-17.62-5.218-27.814-6.849-1.136-19.663-17.487-35.314-37.43-35.314-19.944 0-36.295 15.651-37.43 35.315-10.194 1.631-19.619 3.927-27.814 6.849-26.697 9.517-32.3 22.394-32.3 31.52 0 2.007.272 4.197.979 6.492-.686.667-1.355 1.347-2.012 2.034-12.022-5.201-24.015-7.919-35.417-7.924-22.972 0-42.624 10.399-56.834 30.074-10.085 13.964-13.77 31.742-10.378 50.062 4.607 24.878 22.108 49.375 46.816 65.53 3.31 2.164 6.718 4.114 10.199 5.865-37.432 14.093-57.067 32.032-57.067 52.473 0 .688.029 1.373.073 2.055.205 8.471 3.6 19.277 7.467 31.565 1.881 5.977 3.658 11.624 4.257 14.913 4.21 23.136 31.162 43.067 77.943 57.64 44.374 13.824 103.165 21.437 165.541 21.437 61.893 0 120.344-7.694 164.584-21.666 31.9-10.073 71.456-28.093 78.752-56.729v-.001c.314-1.231 1.504-4.456 2.655-7.576 6.112-16.567 10.779-30.743 9.266-40.94zm-126.681-76.409h95.025v9.136c0 13.049-6.447 25.245-17.246 32.623-6.77 4.625-11.445 11.487-13.252 19.144h-33.685c-1.413-7.574-5.822-14.209-12.384-18.35-11.557-7.291-18.457-19.783-18.457-33.417v-9.136zm9.268 60.875c1.239 1.415 1.967 3.326 1.967 5.347v3.538c0 6.197 5.041 11.238 11.238 11.238h16.316c-6.174 3.297-18.138 7.698-41.241 11.896-13.948 2.535-29.82 4.595-47.02 6.141 12.527-11.219 19.799-27.241 19.799-44.347v-.218c9.682 1.175 18.807 2.528 27.221 4.057 4.283.779 8.17 1.564 11.72 2.348zm-90.994-155.508c10.139-.824 19.418-3.09 27.632-6.75l27.383-12.208 9.335 13.614-33.44 20.017c-11.709 7.008-20.04 18.365-23.461 31.978-1.699 6.766-4.205 10.497-6.079 12.171-.814-4.345-.922-12.359-1-18.06-.062-4.594-.127-9.343-.387-14.255l-.015-.29c-.554-10.454-1.175-22.166.032-26.217zm-1.726 110.742c23.554 1.257 45.228 3.471 64.856 6.384 1.904 8.355 5.58 16.142 10.76 22.884-6.909-1.122-14.2-2.143-21.838-3.05v-6.821c0-5.548-4.498-10.047-10.047-10.047h-48.772c1.747-3.049 3.425-6.176 5.041-9.35zm-61.34 38.58v-9.135h95.025v9.135c0 13.323-6.659 25.661-17.813 33.004-6.637 4.368-11.176 11.116-12.827 18.764h-33.488c-1.348-7.512-5.782-14.153-12.424-18.339-11.568-7.291-18.473-19.788-18.473-33.429zm3.668 47.602c-42.965-.537-82.911-3.823-113.575-9.396-44.933-8.165-47.738-17.098-47.738-17.184 0-.085 2.805-9.018 47.738-17.183.096-.018.196-.034.292-.051 9.331 8.671 21.676 13.587 34.484 13.587h57.604c3.626 11.969 10.97 22.549 21.195 30.227zm-41.474-284.775c9.597 0 17.404 7.807 17.404 17.404s-7.808 17.405-17.404 17.405c-9.597 0-17.405-7.808-17.405-17.405s7.808-17.404 17.405-17.404zm-58.496 40.995c7.372-2.628 15.962-4.682 25.33-6.122 6.293 11.898 18.795 20.029 33.166 20.029 14.369 0 26.87-8.128 33.163-20.025 9.368 1.44 17.961 3.491 25.332 6.118 14.321 5.106 18.954 10.69 18.954 12.594s-4.633 7.489-18.954 12.595c-15.47 5.515-36.245 8.553-58.496 8.553s-43.025-3.038-58.496-8.553c-14.321-5.106-18.954-10.691-18.954-12.595.001-1.904 4.634-7.488 18.955-12.594zm-25.403 34.892c4.621 3.247 10.694 6.385 18.655 9.223 17.581 6.269 40.752 9.72 65.244 9.72s47.662-3.452 65.244-9.72c7.968-2.84 14.045-5.981 18.667-9.232.092.096.176.196.267.292-5.028 8.186-4.359 20.938-3.403 38.96l.016.29c.239 4.516.301 9.065.361 13.464.21 15.445.375 27.645 7.789 34.582.837.783 1.74 1.456 2.692 2.034-5.305 14.884-12.671 29.801-21.116 42.442h-42.757c-5.549 0-10.047 4.499-10.047 10.047v16.464h-55.037c-8.553 0-16.775-3.629-22.559-9.957-21.952-24.016-40.498-70.854-40.498-102.279-.001-19.523 5.428-34.798 16.482-46.33zm-97.548 54.781c-2.383-12.868.071-25.169 6.909-34.639 10.42-14.429 24.061-21.744 40.564-21.744 7.394.003 15.25 1.585 23.294 4.598-1.685 3.189-3.154 6.523-4.405 9.999-6.422-2.364-12.568-3.566-18.382-3.566-12.934 0-24.054 5.931-32.158 17.152-5.135 7.112-6.869 16.171-5.012 26.199 3.045 16.44 15.789 33.749 33.26 45.17 9.333 6.103 20.035 9.859 30.73 11.012 1.549 3.846 3.206 7.648 4.961 11.381-14.609-.347-28.992-4.877-41.708-13.192-20.2-13.207-34.426-32.785-38.053-52.37zm67.256 32.147c-4.236-1.361-8.363-3.294-12.189-5.796-12.834-8.391-22.45-20.956-24.497-32.012-.581-3.136-.785-7.551 1.544-10.775 4.347-6.019 9.389-8.823 15.867-8.823 4.054 0 8.713 1.125 13.779 3.265-.524 4.348-.788 8.862-.788 13.543-.001 12.415 2.284 26.416 6.284 40.598zm4.604 53.048c3.222.326 6.462.504 9.711.504 2.945 0 5.877-.147 8.787-.423 3.171 5.166 6.518 10.036 10.002 14.517-13.766 2.784-24.857 5.962-33.023 9.471-4.399 1.89-17.785 7.64-17.785 18.262s13.386 16.374 17.785 18.263c9.477 4.072 22.886 7.699 39.853 10.783 33.141 6.022 76.76 9.431 123.298 9.658v2.088c0 5.548 4.498 10.047 10.047 10.047h52.459c5.549 0 10.047-4.499 10.047-10.047v-3.557c0-.299.029-.593.053-.886 22.422-1.639 43.023-4.1 60.653-7.303 16.968-3.084 30.376-6.711 39.853-10.783 3.603-1.548 13.224-5.692 16.59-12.976h16.404c6.197 0 11.238-5.041 11.238-11.238v-1.724c0-3.786 1.991-7.407 5.325-9.685.899-.614 1.77-1.259 2.629-1.917 9.754 6.585 14.869 13.216 14.869 19.277 0 25.381-89.473 60.782-235.188 60.782-145.714 0-235.187-35.402-235.187-60.782.002-13.56 25.564-29.976 71.58-42.331zm322.142 129.114c-42.336 13.369-98.637 20.733-158.533 20.733-60.405 0-117.073-7.29-159.565-20.528-37.503-11.683-61.484-27.404-64.15-42.052-.265-1.458-.649-3.078-1.106-4.815 12.506 7.296 28.761 13.879 48.626 19.617 47.2 13.632 109.774 21.14 176.195 21.14s128.995-7.508 176.195-21.14c20.097-5.805 36.495-12.474 49.059-19.872-.61 1.734-1.083 3.185-1.389 4.389-3.799 14.91-28.222 30.809-65.332 42.528z" fill="#3c122c"/><path d="m141.235 306.747c-3.406 0-6.727-1.733-8.613-4.862-6.241-10.351-10.949-20.691-13.993-30.734-1.61-5.31 1.39-10.92 6.7-12.53 5.311-1.611 10.92 1.39 12.53 6.7 2.562 8.451 6.59 17.261 11.972 26.189 2.865 4.752 1.335 10.926-3.417 13.791-1.623.98-3.412 1.446-5.179 1.446z" fill="#fff"/><path d="m124.501 254.958c-5.496 0-9.983-4.425-10.044-9.935-.084-7.558.861-13.619 2.972-19.077 2.003-5.176 7.82-7.747 12.996-5.745 5.175 2.003 7.747 7.821 5.744 12.995-1.16 2.997-1.674 6.684-1.619 11.602.061 5.549-4.387 10.097-9.935 10.158-.038.002-.076.002-.114.002z" fill="#fff"/><g fill="#3c122c"><path d="m249.016 317.159c-3.329 0-6.028-2.699-6.028-6.028v-12.328c0-3.329 2.699-6.028 6.028-6.028s6.028 2.699 6.028 6.028v12.328c.001 3.329-2.699 6.028-6.028 6.028z"/><path d="m213.738 310.36c-3.329 0-6.028-2.699-6.028-6.028v-12.327c0-3.329 2.699-6.028 6.028-6.028s6.028 2.699 6.028 6.028v12.327c0 3.329-2.699 6.028-6.028 6.028z"/><path d="m253.572 265.347c-3.329 0-6.028-2.699-6.028-6.028v-12.328c0-3.329 2.699-6.028 6.028-6.028s6.028 2.699 6.028 6.028v12.328c.001 3.329-2.699 6.028-6.028 6.028z"/></g></g></g></svg>