<svg id="Capa_1" enable-background="new 0 0 512 512" height="512" viewBox="0 0 512 512" width="512" xmlns="http://www.w3.org/2000/svg"><g><path d="m501.917 192.532h-491.834c0 114.629 78.43 210.939 184.554 238.198l-16.23 59.907h155.187l-16.362-59.875c106.19-27.213 184.685-123.554 184.685-238.23z" fill="#fff"/><path d="m19.214 259.125c29.038 103.46 124.049 179.324 236.786 179.324s207.748-75.864 236.786-179.324z" fill="#d789b9"/><path d="m396.848 262.233c-28.278 75.885-101.385 129.939-187.125 129.939-108.536 0-196.842-86.611-199.576-194.488 2.745 133.436 111.76 240.765 245.853 240.765 111.604 0 205.827-74.351 235.881-176.216z" fill="#c668b9"/><path d="m492.102 261.489c6.38-21.881 9.815-45.017 9.815-68.957h-92.553c0 24.238-4.323 47.465-12.234 68.957z" fill="#e1bdfc"/><path d="m257.907 357.554c-9.632-7.837-11.087-21.998-3.25-31.629l198.545-244.023c7.837-9.632 21.998-11.087 31.629-3.25 9.632 7.837 11.087 21.998 3.25 31.629l-198.545 244.023c-7.837 9.632-21.997 11.087-31.629 3.25z" fill="#c1e5ef"/><ellipse cx="374.552" cy="297.486" fill="#f6e06e" rx="59.459" ry="59.459"/><path d="m422.411 262.233h-25.563c-12.062 32.368-32.285 60.76-58.16 82.683 9.968 7.547 22.385 12.03 35.852 12.03 32.837 0 59.457-26.62 59.457-59.457 0-13.2-4.308-25.391-11.586-35.256z" fill="#dda86a"/><ellipse cx="374.516" cy="297.49" fill="#faf1a9" rx="38.776" ry="38.775" transform="matrix(.099 -.995 .995 .099 41.581 640.881)"/><path d="m395.769 265.046c-9.563 24.517-23.832 46.678-41.696 65.375 5.941 3.7 12.952 5.844 20.466 5.844 21.416 0 38.776-17.361 38.776-38.777.001-13.576-6.982-25.515-17.546-32.442z" fill="#dfb5a7"/><path d="m176.265 290.037c12.258-21.387 12.431-48.704-1.897-70.816l-114.098 73.934c19.898 30.707 60.381 40.014 91.592 21.566 5.905 24.687 25.456 45.053 51.934 50.709 36.715 7.843 72.837-15.563 80.679-52.279z" fill="#f6e06e"/><path d="m155.339 231.551c13.607 20.998 7.614 49.05-13.384 62.657s-49.051 7.614-62.657-13.384z" fill="#faf1a9"/><path d="m262.302 308.415c-5.227 24.469-29.3 40.068-53.769 34.841s-40.068-29.3-34.841-53.769z" fill="#faf1a9"/><path d="m370.254 369.486-30.86 17.817c-8.725 5.037-19.881 2.048-24.918-6.677l-17.184-29.764c-5.037-8.725-2.048-19.881 6.677-24.919l30.86-17.817c8.725-5.037 19.881-2.048 24.918 6.677l17.185 29.765c5.036 8.724 2.047 19.881-6.678 24.918z" fill="#fff"/><path d="m306.66 367.089 7.741 13.407c5.079 8.796 16.327 11.811 25.124 6.732l30.6-17.667c8.797-5.079 11.811-16.327 6.732-25.124l-13.854-23.997c-15.703 18.797-34.799 34.657-56.343 46.649z" fill="#e1bdfc"/><path d="m174.256 403.961-34.684-8.174c-9.806-2.311-15.882-12.133-13.571-21.939l7.883-33.453c2.311-9.806 12.133-15.882 21.939-13.571l34.684 8.174c9.806 2.311 15.882 12.134 13.571 21.94l-7.883 33.453c-2.311 9.805-12.133 15.881-21.939 13.57z" fill="#fff"/><path d="m139.718 395.822 34.391 8.104c9.395 2.214 18.791-3.215 21.703-12.243-24.785-1.706-48.321-7.936-69.798-17.87-2.257 9.85 3.855 19.688 13.704 22.009z" fill="#e1bdfc"/><path d="m50.457 60.914 8.563 24.078c.367 1.031 1.092 1.848 2.008 2.261l21.393 9.638c3.022 1.362 3.022 6.177 0 7.539l-21.393 9.638c-.916.412-1.642 1.229-2.008 2.26l-8.563 24.078c-1.21 3.402-5.488 3.402-6.698 0l-8.563-24.078c-.367-1.031-1.092-1.848-2.008-2.26l-21.393-9.638c-3.022-1.362-3.022-6.177 0-7.539l21.393-9.638c.916-.413 1.642-1.229 2.008-2.261l8.563-24.078c1.209-3.401 5.488-3.401 6.698 0z" fill="#e8c2d8"/><ellipse cx="326.584" cy="89.349" fill="#d789b9" rx="18.698" ry="18.698"/><ellipse cx="166.799" cy="118.114" fill="#d789b9" rx="7.918" ry="7.919" transform="matrix(.973 -.23 .23 .973 -22.68 41.493)"/><path d="m201.469 13.173 6.352 17.861c.272.765.81 1.371 1.49 1.677l15.869 7.149c2.242 1.01 2.242 4.582 0 5.592l-15.869 7.15c-.679.306-1.218.912-1.49 1.677l-6.352 17.861c-.897 2.523-4.071 2.523-4.968 0l-6.352-17.861c-.272-.765-.81-1.371-1.49-1.677l-15.869-7.15c-2.242-1.01-2.242-4.582 0-5.592l15.869-7.149c.68-.306 1.218-.912 1.49-1.677l6.352-17.861c.897-2.524 4.071-2.524 4.968 0z" fill="#e8c2d8"/></g><g><path d="m512 192.532c0-5.568-4.514-10.083-10.082-10.083h-59.557l53.541-65.805c5.49-6.747 8.025-15.229 7.134-23.883-.889-8.653-5.094-16.442-11.842-21.931-6.749-5.49-15.228-8.023-23.882-7.134-8.653.889-16.441 5.095-21.931 11.842l-86.987 106.912h-348.312c-5.567 0-10.082 4.514-10.082 10.082 0 68.38 26.629 132.667 74.98 181.019 30.435 30.434 67.186 52.253 107.294 64.251l-13.6 50.199c-.82 3.031-.183 6.27 1.724 8.763 1.908 2.494 4.869 3.956 8.008 3.956h155.187c3.143 0 6.107-1.466 8.014-3.964 1.908-2.499 2.54-5.744 1.712-8.776l-13.703-50.146c40.151-11.991 76.941-33.821 107.403-64.283 48.352-48.352 74.981-112.639 74.981-181.019zm-20.378 10.082c-.772 18.244-3.64 35.954-8.346 52.907h-58.488c-7.008-8.378-16.071-14.972-26.402-19.026l27.567-33.881zm-63.674 94.875c0 25.841-18.45 47.447-42.868 52.354-.448-2.849-1.406-5.622-2.862-8.206 21.07-3.653 37.148-22.051 37.148-44.149 0-11.465-4.331-21.933-11.436-29.868h10.865c5.775 8.531 9.153 18.813 9.153 29.869zm-138.263 37.981c-.311 1.16-.534 2.33-.672 3.502l-7.297 8.968c-2.09 2.57-5.056 4.171-8.351 4.51-1.358.14-2.702.046-3.995-.244 10.28-9.887 17.826-22.824 21.023-37.791.698-3.267-1.384-6.482-4.652-7.179l-2.453-.524 31.806-39.091h1.175c-4.613 8.964-7.235 19.112-7.235 29.868 0 5.084.603 10.026 1.707 14.78l-4.266 5.243-5.4 3.118c-5.656 3.263-9.7 8.534-11.39 14.84zm-156.245 48.943c-1.734-2.804-2.272-6.114-1.516-9.324l7.814-33.159c1.338-5.677 6.419-9.513 12.014-9.513.933 0 1.883.106 2.831.33l34.392 8.105c6.623 1.561 10.743 8.221 9.182 14.845l-7.815 33.16c-.756 3.209-2.717 5.93-5.521 7.665-2.802 1.734-6.116 2.273-9.323 1.516l-34.392-8.104c-3.209-.756-5.931-2.716-7.666-5.521zm45.781-128.891h-10.257c-.084-7.671-1.884-15.206-5.317-22.145l8.688-5.63c4.565 8.813 6.803 18.329 6.886 27.775zm24.382 80.259c-2.919-2.992-6.631-5.269-10.911-6.458-9.42-7.875-14.911-19.92-14.181-32.622l76.446 16.33c-2.96 7.82-8.306 14.475-15.454 19.107-8.865 5.744-19.435 7.692-29.768 5.486-2.125-.452-4.17-1.077-6.132-1.843zm-43.211-14.095c-3.736-9.403-5.104-19.547-3.938-29.695l10.127 2.163c-1.025 10.922 1.504 21.54 6.726 30.576zm24.75-35.939c2.519-5.802 4.284-11.899 5.264-18.127h98.691l-27.957 34.36zm-12.115-2.587-10.363-2.213c2.252-4.138 3.939-8.611 5.007-13.326h10.465c-1.012 5.365-2.725 10.595-5.109 15.539zm-19.616-43.15c2.21 4.903 3.373 10.165 3.453 15.512h-27.393zm1.759 27.611c-1.983 6.357-7.719 15.852-16.346 21.756-8.865 5.744-19.43 7.695-29.767 5.486-8.331-1.78-15.698-6.093-21.251-12.344l22.993-14.899zm-77.599 21.531c7.376 8.929 17.462 15.087 28.959 17.542 3.625.775 7.272 1.157 10.893 1.157 9.309 0 18.44-2.532 26.559-7.435.075 3.758.441 7.47 1.075 11.112-26.043 13.076-57.99 6.11-76.174-16.746zm132.361 69.32c.671-2.845.81-5.694.486-8.443 2.563.384 5.129.584 7.683.584 9.855 0 19.514-2.835 27.981-8.321 9.866-6.393 17.094-15.741 20.802-26.713l10.128 2.164c-4.32 13.656-13.163 25.29-25.339 33.18-12.612 8.172-27.427 11.413-42.166 9.351zm177.96-90.851c11.406 5.12 19.375 16.577 19.375 29.868 0 17.685-14.103 32.128-31.652 32.7l-10.554-18.28c-4.872-8.436-14.045-12.866-23.163-12.133-.053-.756-.086-1.517-.086-2.286 0-13.291 7.968-24.749 19.374-29.868h26.706zm-58.178 29.868c0 2.153.161 4.268.459 6.34l-7.909 4.566c-.739-3.521-1.132-7.168-1.132-10.906 0-11.056 3.377-21.338 9.153-29.868h10.865c-7.105 7.935-11.436 18.403-11.436 29.868zm-22.591 33.618 30.6-17.667c1.939-1.12 4.058-1.651 6.15-1.651 4.269 0 8.427 2.214 10.711 6.169l17.034 29.504c3.403 5.894 1.376 13.457-4.517 16.859l-30.6 17.667c-5.895 3.404-13.458 1.375-16.861-4.517l-17.034-29.504c-3.404-5.894-1.377-13.457 4.517-16.86zm83.155-75.585c-4.9-1.844-10.202-2.859-15.738-2.859s-10.838 1.016-15.738 2.859h-17.235c9.088-7.156 20.536-11.441 32.973-11.441 12.438 0 23.887 4.285 32.974 11.441zm70.745-167.257c2.448-3.009 6.025-4.57 9.63-4.57 2.751 0 5.519.909 7.815 2.777 2.569 2.09 4.171 5.056 4.51 8.352.339 3.294-.626 6.524-2.717 9.094l-63.896 78.532h-31.973zm-93.039 114.349h31.973l-23.925 29.405c-.498-.011-.992-.038-1.493-.038-17.572 0-33.537 6.968-45.313 18.269zm-347.606 0h321.61l-43.047 52.907h-107.628c-.095-13.609-3.933-27.344-11.868-39.59-.872-1.347-2.244-2.291-3.813-2.626-1.569-.336-3.206-.033-4.553.839l-63.856 41.377h-78.5c-4.705-16.953-7.574-34.662-8.345-52.907zm12.061 65.007h56.113l-31.571 20.457c-1.347.872-2.291 2.244-2.626 3.813-.336 1.568-.034 3.207.839 4.553 14.157 21.847 37.965 33.751 62.242 33.751 5.401 0 10.824-.596 16.171-1.796-2.676 2.957-4.667 6.607-5.645 10.756l-7.814 33.159c-1.054 4.472-.832 9.043.585 13.295-40.767-28.653-72.09-69.877-88.294-117.988zm159.144 212.934 10.229-37.754c17.612 3.777 35.748 5.73 54.188 5.73 18.4 0 36.499-1.946 54.076-5.706l10.31 37.73zm64.416-52.188c-36.081 0-70.29-8.154-100.894-22.703l17.615 4.151c1.878.443 3.772.662 5.654.662 4.488 0 8.899-1.245 12.811-3.665 5.552-3.434 9.435-8.825 10.932-15.18l4.608-19.55c3.785.592 7.557.906 11.289.906 11.729 0 23.06-2.811 33.185-7.908.116.097.226.199.344.294 5.863 4.771 13.035 7.309 20.492 7.309 1.125 0 2.257-.058 3.39-.174 8.229-.845 15.67-4.695 21.102-10.871l12.634 21.882c4.523 7.833 12.756 12.215 21.208 12.215 4.144 0 8.341-1.053 12.18-3.269l30.6-17.667c4.93-2.847 8.635-7.22 10.623-12.475 31.762-4.502 56.275-31.851 56.275-64.836 0-10.756-2.622-20.905-7.236-29.868h46.751c-31.436 93.334-119.769 160.747-223.563 160.747z" fill="#3c122c"/></g></svg>