<svg id="Capa_1" enable-background="new 0 0 512 512" height="512" viewBox="0 0 512 512" width="512" xmlns="http://www.w3.org/2000/svg"><g><g><path d="m324.661 267.937 8.736-8.736c7.931-7.93 18.492-12.757 30.155-14.112 16.797-1.95 32.815-9.177 45.406-21.768 31.075-31.075 29.508-83.023-3.499-116.031-33.007-33.007-84.956-34.574-116.031-3.499-12.591 12.591-19.818 28.609-21.768 45.406-1.354 11.663-6.181 22.224-14.112 30.155l-8.736 8.736c-6.481 6.481-14.728 10.984-23.968 13.088-27.26 6.205-51.592 19.492-70.714 38.614l-132.777 132.777c-9.652 9.652-8.576 26.378 2.403 37.357l83.068 83.068c10.979 10.979 27.705 12.055 37.357 2.403l132.779-132.777c19.122-19.122 32.408-43.454 38.614-70.714 2.103-9.239 6.606-17.486 13.087-23.967z" fill="#c1e5ef"/><path d="m207.657 205.453c-15.116 3.023-48.665 25.474-57.527 34.336l-132.777 132.778c-9.652 9.652-8.576 26.377 2.403 37.357l83.068 83.068c10.979 10.98 27.705 12.056 37.357 2.403l132.779-132.777c8.862-8.862 32.451-44.295 33.963-57.9z" fill="#96b4eb"/><circle cx="343.654" cy="193.522" fill="#96b4eb" r="32.249"/><path d="m493.332 42.024-22.607-22.607c-10.542-10.542-27.634-10.542-38.177 0l-12.931 12.931c-6.3-1.547-13.228.118-18.15 5.04l-26.99 26.99c-7.49 7.49-7.49 19.633 0 27.122l48.413 48.413c7.49 7.49 19.633 7.49 27.122 0l26.99-26.99c5.583-5.583 6.999-13.751 4.257-20.651l12.072-12.072c10.544-10.542 10.544-27.634.001-38.176z" fill="#96b4eb"/><path d="m477.003 85.801-29.336-29.336c7.49 7.49 7.49 19.633 0 27.123l-26.99 26.99c-7.49 7.49-19.633 7.49-27.122 0l29.336 29.336c7.49 7.49 19.633 7.49 27.122 0l26.99-26.99c7.49-7.491 7.49-19.633 0-27.123z" fill="#8286ea"/><g fill="#d789b9"><path d="m239.611 269.117-20.735-20.735c-2.869-2.869-6.75-4.102-10.493-3.71-3.133.125-6.229 1.369-8.621 3.761l-26.183 26.183c-5.048 5.047-5.048 13.231 0 18.279 5.048 5.048 13.231 5.047 18.279 0l17.487-17.487 11.988 11.988c5.048 5.048 13.231 5.048 18.278 0 5.048-5.048 5.048-13.232 0-18.279z"/><path d="m146.872 381.672c-5.048-5.047-5.048-13.231 0-18.279l26.183-26.183c5.048-5.048 13.231-5.048 18.279 0 5.048 5.047 5.048 13.231 0 18.279l-26.183 26.183c-5.048 5.048-13.232 5.048-18.279 0z"/><path d="m91.077 437.467c-5.048-5.048-5.048-13.231 0-18.279l26.183-26.183c5.047-5.047 13.231-5.047 18.279 0 5.048 5.048 5.048 13.231 0 18.279l-26.183 26.183c-5.048 5.047-13.231 5.047-18.279 0z"/><path d="m60.042 406.432c-5.048-5.048-5.048-13.231 0-18.279l26.183-26.183c5.048-5.048 13.231-5.048 18.279 0 5.048 5.048 5.048 13.231 0 18.279l-26.183 26.183c-5.048 5.047-13.231 5.047-18.279 0z"/><circle cx="151.159" cy="316.797" r="13.973"/></g><path d="m272.521 278.092c-5.237 7.366-11.118 14.342-17.589 20.812l-117.136 117.137c-8.515 8.515-21.357 9.479-28.683 2.153l-55.428-55.428c-7.326-7.326-6.362-20.168 2.153-28.683l-38.484 38.484c-9.652 9.652-8.576 26.378 2.403 37.357l83.068 83.069c10.979 10.98 27.705 12.055 37.357 2.403l132.778-132.778c14.447-14.447 25.557-31.872 32.805-51.283-11.082-11.081-22.163-22.161-33.244-33.243z" fill="#8286ea"/><path d="m123.87 422.953c-5.49.641-10.892-.894-14.757-4.759l-8.521-8.521-9.515 9.515c-5.048 5.048-5.048 13.231 0 18.278 5.048 5.048 13.231 5.048 18.279 0z" fill="#c668b9"/><path d="m69.557 378.638-9.515 9.515c-5.048 5.048-5.048 13.231 0 18.279 5.047 5.047 13.231 5.047 18.279 0l9.515-9.516z" fill="#c668b9"/><path d="m405.459 107.29c-4.101-4.1-8.494-7.713-13.103-10.841 13.125 22.789 6.707 56.124-17.092 79.922-11.108 11.108-24.294 18.428-37.516 21.744-9.181 2.303-17.882 7.177-24.878 14.174l-7.707 7.707c-5.718 5.718-10.093 12.591-12.715 19.975-3.645 10.262-8.45 20.183-14.263 29.577 10.369 10.37 20.738 20.738 31.107 31.107.837-2.883 1.609-5.796 2.282-8.751 2.103-9.24 6.606-17.487 13.088-23.968l8.736-8.737c7.931-7.93 18.492-12.757 30.155-14.112 16.796-1.95 32.815-9.177 45.406-21.768 31.074-31.073 29.507-83.022-3.5-116.029z" fill="#a6aaed"/><path d="m366.457 216.325c10.09-10.091 12.088-25.201 6.008-37.289-10.492 9.615-22.587 16.037-34.717 19.079-7.973 1.999-15.581 5.941-22.028 11.525 1.38 2.389 3.087 4.641 5.131 6.686 12.593 12.593 33.012 12.593 45.606-.001z" fill="#8286ea"/><path d="m192.031 2.459 8.252 23.204c.353.993 1.053 1.781 1.936 2.178l20.616 9.288c2.913 1.312 2.913 5.953 0 7.265l-20.616 9.289c-.883.398-1.582 1.185-1.936 2.178l-8.252 23.204c-1.166 3.278-5.289 3.278-6.455 0l-8.252-23.204c-.353-.993-1.053-1.781-1.936-2.178l-20.616-9.289c-2.913-1.312-2.913-5.953 0-7.265l20.616-9.288c.883-.398 1.582-1.185 1.936-2.178l8.252-23.204c1.166-3.279 5.289-3.279 6.455 0z" fill="#c1e5ef"/><ellipse cx="131.963" cy="151.992" fill="#96b4eb" rx="18.02" ry="18.02" transform="matrix(.232 -.973 .973 .232 -46.454 245.177)"/><ellipse cx="308.834" cy="20.482" fill="#96b4eb" rx="7.773" ry="7.773" transform="matrix(.16 -.987 .987 .16 239.264 322.075)"/><path d="m471.93 232.372 6.121 17.213c.262.737.781 1.321 1.436 1.616l15.293 6.89c2.161.973 2.161 4.416 0 5.389l-15.293 6.89c-.655.295-1.174.879-1.436 1.616l-6.121 17.213c-.865 2.432-3.923 2.432-4.788 0l-6.122-17.213c-.262-.737-.781-1.321-1.436-1.616l-15.293-6.89c-2.16-.973-2.16-4.416 0-5.389l15.293-6.89c.655-.295 1.174-.879 1.436-1.616l6.122-17.213c.865-2.432 3.924-2.432 4.788 0z" fill="#c1e5ef"/></g><g><g fill="#3c122c"><path d="m343.654 231.799c-10.224 0-19.836-3.982-27.065-11.212-14.923-14.923-14.923-39.207 0-54.13 7.23-7.23 16.842-11.212 27.065-11.212 10.224 0 19.836 3.982 27.065 11.212 14.924 14.923 14.924 39.207 0 54.13-7.229 7.23-16.841 11.212-27.065 11.212zm0-64.498c-7.003 0-13.588 2.727-18.541 7.68-10.223 10.224-10.223 26.859 0 37.083 4.953 4.952 11.537 7.68 18.541 7.68s13.588-2.727 18.541-7.68c10.223-10.224 10.223-26.859 0-37.083-4.953-4.953-11.537-7.68-18.541-7.68z"/><path d="m511.285 61.112c0-9.894-3.853-19.196-10.849-26.193l-22.607-22.607c-6.996-6.996-16.298-10.85-26.192-10.85s-19.196 3.854-26.193 10.85l-9.448 9.449c-7.803-.256-15.689 2.58-21.632 8.523l-26.99 26.99c-4.508 4.508-7.225 10.135-8.166 15.995-.223-.223-.446-.446-.669-.669-27.436-4.238-55.823 3.696-76.214 24.087-13.826 13.827-22.348 31.584-24.643 51.351-1.115 9.603-5 17.973-11.237 24.209l-8.736 8.736c-5.124 5.124-11.726 8.719-19.094 10.395-29.037 6.611-55.175 20.894-75.587 41.306l-132.778 132.78c-6.741 6.74-10.1 15.949-9.458 25.929.611 9.494 4.823 18.598 11.86 25.635l83.069 83.069c7.895 7.895 18.112 11.903 27.991 11.903 8.738 0 17.212-3.138 23.574-9.5l132.778-132.778c20.412-20.412 34.695-46.55 41.305-75.589 1.677-7.367 5.271-13.97 10.396-19.093h.001l8.735-8.736c6.236-6.236 14.608-10.121 24.21-11.236 19.767-2.296 37.524-10.817 51.351-24.644 17.008-17.008 25.964-39.985 25.219-64.697-.106-3.507-.437-6.984-.929-10.429 6.136-.819 12.06-3.576 16.766-8.281l26.99-26.99c6.714-6.715 9.468-15.91 8.269-24.663l8.06-8.06c6.995-6.996 10.848-16.297 10.848-26.192zm-59.648-39.557c4.527 0 8.783 1.764 11.984 4.965l22.607 22.607c3.201 3.201 4.964 7.457 4.964 11.985 0 4.527-1.763 8.783-4.964 11.984l-3.861 3.861-46.576-46.576 3.861-3.861c3.202-3.201 7.458-4.965 11.985-4.965zm-185.781 333.96-132.777 132.777c-5.721 5.719-16.106 4.641-23.15-2.404l-83.069-83.068c-3.583-3.583-5.72-8.099-6.016-12.717-.266-4.131 1.017-7.836 3.614-10.432l132.778-132.778c14.151-14.151 31.516-24.908 50.831-31.612l89.401 89.402c-6.705 19.314-17.461 36.68-31.612 50.832zm135.998-139.298c-10.592 10.593-24.237 17.126-39.461 18.893-14.146 1.643-26.629 7.518-36.1 16.987l-8.736 8.736c-7.804 7.805-13.261 17.777-15.78 28.842-.139.612-.301 1.214-.447 1.823l-80.078-80.078c.608-.147 1.211-.308 1.823-.447 11.064-2.519 21.037-7.975 28.841-15.78l8.736-8.736c9.47-9.47 15.345-21.953 16.987-36.1 1.768-15.223 8.301-28.869 18.893-39.461 12.544-12.544 29.396-19.377 47.662-19.377.737 0 1.479.012 2.222.034 5.882.177 11.679 1.06 17.299 2.588 1.051 1.577 2.268 3.074 3.658 4.464l48.413 48.413c.941.941 1.935 1.797 2.966 2.583 1.434 5.444 2.273 11.047 2.444 16.733.578 19.117-6.292 36.832-19.342 49.883zm68.045-110.398-26.99 26.99c-3.56 3.561-9.353 3.561-12.914 0l-48.413-48.413c-3.561-3.56-3.561-9.354 0-12.914l26.989-26.99c1.781-1.781 4.119-2.671 6.458-2.671 2.338 0 4.678.89 6.457 2.671l48.413 48.413c3.561 3.56 3.561 9.354 0 12.914z"/><path d="m182.718 302.698c-4.854.001-9.706-1.846-13.401-5.542-7.389-7.389-7.389-19.414 0-26.803l26.183-26.183c7.39-7.391 19.415-7.39 26.803.001l20.735 20.734v.001c7.389 7.389 7.389 19.414 0 26.802-3.58 3.58-8.339 5.552-13.401 5.552-5.063 0-9.822-1.972-13.402-5.552l-7.333-7.334-12.782 12.781c-3.694 3.696-8.549 5.543-13.402 5.543zm26.183-52.02c-1.766 0-3.532.672-4.877 2.017l-26.183 26.182c-2.689 2.69-2.689 7.066 0 9.756 2.689 2.688 7.065 2.689 9.755-.001l17.043-17.043c1.13-1.131 2.664-1.766 4.262-1.766 1.599 0 3.132.635 4.262 1.766l11.596 11.596c1.303 1.303 3.034 2.02 4.877 2.02 1.842 0 3.574-.718 4.877-2.02 2.689-2.689 2.689-7.065 0-9.755l-20.735-20.735c-1.344-1.344-3.111-2.017-4.877-2.017z"/><path d="m156.011 391.486c-5.062 0-9.822-1.972-13.402-5.552-7.389-7.389-7.389-19.413 0-26.802l26.183-26.183c3.58-3.58 8.339-5.552 13.402-5.552s9.822 1.972 13.402 5.552c3.58 3.579 5.552 8.339 5.552 13.402 0 5.062-1.972 9.823-5.552 13.401l-26.182 26.182c-3.581 3.58-8.34 5.552-13.403 5.552zm-4.877-14.076c1.303 1.302 3.035 2.02 4.877 2.02s3.575-.718 4.877-2.02l26.183-26.183c1.303-1.303 2.02-3.034 2.02-4.877 0-1.842-.718-3.575-2.02-4.878-1.303-1.302-3.035-2.02-4.877-2.02s-3.574.718-4.877 2.02l-26.183 26.183c-2.689 2.689-2.689 7.066 0 9.755z"/><path d="m100.217 447.28c-5.063 0-9.822-1.972-13.402-5.552-3.58-3.579-5.551-8.339-5.551-13.401s1.971-9.823 5.551-13.401l26.182-26.183c3.58-3.58 8.339-5.552 13.402-5.552s9.822 1.972 13.402 5.552c3.58 3.579 5.551 8.339 5.551 13.402 0 5.061-1.972 9.822-5.551 13.4l-26.183 26.183c-3.58 3.58-8.339 5.552-13.401 5.552zm26.182-52.033c-1.842 0-3.574.718-4.877 2.02l-26.182 26.183c-1.303 1.303-2.021 3.035-2.021 4.878 0 1.841.718 3.574 2.021 4.877 1.303 1.303 3.035 2.02 4.877 2.02s3.574-.718 4.877-2.02l26.183-26.183c1.303-1.303 2.021-3.035 2.021-4.877s-.718-3.575-2.021-4.878c-1.303-1.302-3.035-2.02-4.878-2.02z"/><path d="m69.181 416.245c-5.062 0-9.821-1.972-13.401-5.551 0-.001 0-.001 0-.001-3.579-3.579-5.551-8.338-5.551-13.401 0-5.062 1.972-9.823 5.551-13.401l26.183-26.183c3.58-3.58 8.339-5.552 13.401-5.552 5.063 0 9.822 1.972 13.401 5.552 3.58 3.579 5.551 8.339 5.551 13.402 0 5.062-1.972 9.823-5.552 13.401l-26.183 26.182c-3.578 3.58-8.337 5.552-13.4 5.552zm26.183-52.033c-1.842 0-3.574.718-4.877 2.02l-26.183 26.183c-1.303 1.303-2.021 3.035-2.021 4.878 0 1.842.718 3.574 2.02 4.876 0 0 .001 0 .001.001 1.303 1.302 3.035 2.02 4.877 2.02s3.574-.717 4.877-2.02l26.183-26.183c1.303-1.303 2.021-3.034 2.021-4.877 0-1.842-.718-3.575-2.021-4.878s-3.034-2.02-4.877-2.02z"/><path d="m151.159 336.788c-5.122 0-10.243-1.949-14.143-5.849-3.778-3.777-5.858-8.799-5.858-14.141 0-5.343 2.08-10.365 5.858-14.142 3.778-3.778 8.8-5.858 14.143-5.858 5.342 0 10.365 2.08 14.143 5.858 3.778 3.777 5.858 8.799 5.858 14.142 0 5.342-2.08 10.364-5.858 14.141-3.9 3.899-9.021 5.849-14.143 5.849zm0-27.932c-2.035 0-4.069.775-5.618 2.323-3.098 3.098-3.098 8.138 0 11.236 3.098 3.096 8.138 3.096 11.236 0 3.098-3.098 3.098-8.138 0-11.236-1.549-1.548-3.583-2.323-5.618-2.323z"/><path d="m171.756 421.487c-1.547 0-3.093-.592-4.271-1.774-2.35-2.359-2.342-6.176.017-8.525l41.998-41.829c2.359-2.349 6.175-2.341 8.524.017 2.35 2.359 2.342 6.176-.017 8.524l-41.998 41.829c-1.176 1.172-2.715 1.758-4.253 1.758z"/><path d="m140.043 453.368c-1.525 0-3.052-.576-4.225-1.73-2.374-2.334-2.406-6.15-.072-8.524l11.684-11.884c2.333-2.375 6.15-2.407 8.524-.073s2.406 6.15.072 8.524l-11.684 11.884c-1.18 1.202-2.739 1.803-4.299 1.803z"/><path d="m125.727 467.685c-1.543 0-3.085-.589-4.262-1.765-2.354-2.354-2.355-6.171-.001-8.525l3.411-3.411c2.355-2.355 6.171-2.354 8.525-.001 2.354 2.354 2.355 6.171.001 8.525l-3.411 3.411c-1.178 1.177-2.72 1.766-4.263 1.766z"/></g><path d="m336.438 119.956c-4.572 0-8.705-3.14-9.779-7.785-1.25-5.406 2.119-10.802 7.524-12.052 2.239-.518 4.542-.937 6.845-1.247 5.499-.743 10.557 3.116 11.297 8.616.74 5.498-3.117 10.556-8.616 11.296-1.685.228-3.367.534-4.999.911-.761.177-1.523.261-2.272.261z" fill="#fff"/><path d="m297.075 159.333c-.923 0-1.861-.129-2.792-.397-5.331-1.539-8.404-7.109-6.865-12.439 3.724-12.893 10.298-23.956 19.012-31.993 4.078-3.761 10.434-3.504 14.196.575 3.762 4.078 3.504 10.435-.574 14.196-6.015 5.547-10.624 13.43-13.329 22.796-1.271 4.399-5.287 7.262-9.648 7.262z" fill="#fff"/><path d="m249.933 230.627c-2.37 0-4.618-1.407-5.576-3.735-1.267-3.078.2-6.601 3.278-7.868 28.114-11.577 33.834-35.451 33.889-35.691.737-3.245 3.966-5.277 7.213-4.541 3.246.738 5.28 3.967 4.542 7.214-.279 1.227-7.225 30.236-41.054 44.166-.75.307-1.528.455-2.292.455z" fill="#3c122c"/></g></g></svg>