<svg id="Capa_1" enable-background="new 0 0 512 512" height="512" viewBox="0 0 512 512" width="512" xmlns="http://www.w3.org/2000/svg"><g><g><path d="m335.795 324.042c6.033 0 11.819-3.4 14.579-9.213l44.602-93.912 100.291-34.992c8.389-2.993 12.764-12.22 9.771-20.609s-12.218-12.766-20.609-9.771l-106.576 37.235c-4.025 1.436-7.316 4.411-9.149 8.271l-47.466 99.94c-3.822 8.046-.397 17.666 7.649 21.487 2.234 1.062 4.59 1.564 6.908 1.564z" fill="#d789b9"/><path d="m119.014 275.371c-7.04 18.111-10.91 37.806-10.91 58.406 0 89.067 72.203 161.271 161.271 161.271s161.271-72.204 161.271-161.271c0-20.6-3.869-40.295-10.909-58.406z" fill="#a07575"/><path d="m428.313 316.528c-1.84-14.248-4.731-28.017-8.577-41.157h-300.722c-3.845 13.14-6.737 26.909-8.577 41.157z" fill="#c49a8b"/><path d="m331.501 272.164v77.46c0 10.124-8.207 18.33-18.33 18.33-10.124 0-18.33-8.207-18.33-18.33v-77.46" fill="#fff"/><path d="m391.73 274.656v45.549c0 10.124-8.207 18.33-18.33 18.33-10.124 0-18.33-8.207-18.33-18.33v-46.161" fill="#fff"/><path d="m363.798 314.884c.119 2.26.186 4.533.186 6.823 0 70.658-57.28 127.939-127.939 127.939-46.019 0-86.357-24.301-108.895-60.767h-9.381c22.515 61.933 81.894 106.17 151.608 106.17 89.067 0 161.271-72.203 161.271-161.27 0-6.392-.374-12.697-1.098-18.894h-65.752z" fill="#925873"/><path d="m373.399 338.535c10.124 0 18.33-8.207 18.33-18.33v-44.834h-36.401c5.585 14.368 8.654 29.992 8.654 46.335 0 4.648-.254 9.236-.738 13.756 2.909 1.939 6.399 3.073 10.155 3.073z" fill="#e1bdfc"/><path d="m392.848 314.884h36.7c-1.61-13.776-4.956-27.021-9.811-39.512h-26.888v39.512z" fill="#b2748a"/><path d="m112.659 119.93-75.476 88.783c-3.123 3.673.551 9.132 5.13 7.622l203.739-67.202c4.579-1.51 4.284-8.084-.411-9.178l-113.486-26.455c-7.19-1.677-14.714.805-19.496 6.43z" fill="#c1e5ef"/><path d="m172.271 303.846c-2.196 16.668-37.516 36.553-85.017 27.14-47.5-9.413-77.235-61.312-77.235-61.312s47.279-36.637 94.779-27.225c47.502 9.413 69.67 44.729 67.473 61.397z" fill="#a1e8c3"/><path d="m207.067 245.201c18.995 11.435-11.856 52.961-11.856 52.961s50.915-4.134 47.158 26.861-54.032 5.09-54.032 5.09 18.73 49.66-10.974 53.15c-29.704 3.491-21.538-49.815-21.538-49.815s-44.31 31.667-53.94 5.988c-9.631-25.679 40.721-35.878 40.721-35.878s-46.162-28.087-22.363-49.45c23.799-21.364 46.705 27.641 46.705 27.641s21.124-47.982 40.119-36.548z" fill="#f6e06e"/><path d="m341.951 71.782 8.384 23.573c.359 1.009 1.07 1.809 1.966 2.213l20.944 9.436c2.959 1.333 2.959 6.048 0 7.381l-20.944 9.436c-.897.404-1.607 1.204-1.966 2.213l-8.384 23.573c-1.184 3.33-5.373 3.33-6.557 0l-8.384-23.573c-.359-1.009-1.07-1.809-1.966-2.213l-20.944-9.436c-2.959-1.333-2.959-6.048 0-7.381l20.944-9.436c.897-.404 1.607-1.204 1.966-2.213l8.384-23.573c1.184-3.33 5.373-3.33 6.557 0z" fill="#e8c2d8"/><ellipse cx="455.101" cy="56.41" fill="#d789b9" rx="18.306" ry="18.306" transform="matrix(.383 -.924 .924 .383 228.825 455.282)"/><circle cx="61.913" cy="73.134" fill="#d789b9" r="7.752"/><path d="m228.91 8.785 6.219 17.486c.266.749.793 1.342 1.458 1.642l15.536 7c2.195.989 2.195 4.486 0 5.475l-15.536 7c-.665.3-1.192.893-1.458 1.642l-6.219 17.486c-.879 2.47-3.986 2.47-4.864 0l-6.219-17.486c-.266-.749-.793-1.342-1.459-1.642l-15.536-7c-2.195-.989-2.195-4.486 0-5.475l15.536-7c.665-.3 1.192-.893 1.459-1.642l6.219-17.486c.878-2.47 3.985-2.47 4.864 0z" fill="#e8c2d8"/></g><g fill="#3c122c"><path d="m510.701 163.296c-1.987-5.57-6.024-10.033-11.367-12.566-5.343-2.534-11.355-2.836-16.887-.86l-106.615 37.248c-5.563 1.986-10.023 6.018-12.558 11.354l-31.764 66.88h-113.244c1.003-4.487 1.323-8.882.541-12.844-1.064-5.387-4.052-9.695-8.64-12.457-4.587-2.76-9.75-3.352-14.935-1.708-6.456 2.047-12.467 7.536-17.583 13.869l-20.813-63.102 92.323-30.452c6.371-2.101 10.45-8.016 10.149-14.718-.3-6.702-4.892-12.228-11.425-13.751l-113.431-26.442c-10.912-2.543-22.189 1.179-29.442 9.711l-75.44 88.739c-4.345 5.112-4.748 12.285-1.002 17.851 2.828 4.201 7.391 6.557 12.199 6.556 1.563 0 3.153-.249 4.715-.765l92.322-30.452 20.395 61.833c-5.684-6.548-12.799-12.408-20.868-14.052-.032-.007-.068-.012-.1-.018-8.934-4.599-19.11-8.274-30.485-10.528-51.377-10.183-100.786 27.522-102.863 29.132-3.95 3.061-5.041 8.564-2.557 12.9 1.306 2.281 32.594 55.976 83.982 66.159 3.874.768 7.653 1.328 11.354 1.743.546 1.29 1.177 2.492 1.894 3.602 6.368 88.69 80.536 158.909 170.82 158.909 51.721 0 98.159-23.043 129.593-59.4l10.161 6.948c1.73 1.183 3.698 1.75 5.647 1.75 3.197 0 6.338-1.527 8.28-4.365 3.123-4.568 1.952-10.803-2.615-13.926l-9.253-6.327c2.659-3.917 5.154-7.953 7.488-12.092l8.632 5.902c1.73 1.183 3.698 1.75 5.647 1.75 3.197 0 6.339-1.527 8.28-4.365 3.123-4.567 1.952-10.803-2.615-13.926l-11.054-7.559c8.434-20.237 13.102-42.423 13.102-65.681 0-21.38-3.899-42.253-11.59-62.036-1.497-3.852-5.205-6.389-9.338-6.389h-39.209l18.8-39.585 97.958-34.178c5.57-1.987 10.033-6.024 12.567-11.368 2.53-5.343 2.831-11.354.844-16.924zm-390.423-36.859c1.878-2.209 4.581-3.432 7.396-3.432.74 0 1.486.085 2.228.257l95.266 22.207-168.25 55.496zm240.803 158.954h24.638v34.814c0 6.792-5.526 12.319-12.319 12.319-6.792 0-12.319-5.526-12.319-12.319zm-12.024 24.869h-11.545v-24.869h11.545zm-48.205-24.869h24.637v64.234c0 6.793-5.526 12.319-12.319 12.319s-12.319-5.526-12.319-12.319v-64.234zm-12.023 0v24.869h-42.925c-1.079-2.134-2.477-4.111-4.194-5.897-8.912-9.272-24.382-11.775-35.194-12.307 1.232-2.017 2.535-4.265 3.82-6.665zm-127.328-1.095c.999 2.137 3.133 3.503 5.514 3.466 2.359-.026 4.484-1.43 5.434-3.589 5.142-11.679 16.861-31.338 26.418-34.369 1.898-.601 3.472-.432 5.099.548 1.694 1.02 2.633 2.402 3.045 4.481 1.972 9.961-9.152 29.665-16.626 39.744-1.407 1.894-1.576 4.437-.432 6.501 1.146 2.064 3.396 3.267 5.743 3.076 7.516-.612 28.879-.267 37.344 8.541 2.888 3.004 3.956 6.692 3.361 11.604-.675 5.566-3.08 7.445-4.831 8.374-8.993 4.77-29.605-2.316-40.481-7.904-2.208-1.138-4.89-.798-6.748.855-1.857 1.652-2.505 4.279-1.631 6.606 2.877 7.662 8.987 29.773 2.792 39.939-1.83 3.001-4.639 4.629-8.842 5.124-5.392.631-7.963-1.312-9.431-2.831-8.149-8.428-6.635-32.381-5.463-40.103.366-2.389-.735-4.766-2.794-6.032-.968-.595-2.059-.89-3.148-.89-1.228 0-2.453.376-3.495 1.121-6.711 4.795-28.336 17.727-39.316 14.387-2.65-.807-4.346-2.541-5.501-5.62-1.265-3.372-1.108-6.291.493-9.186 5.828-10.531 27.816-17.062 35.793-18.689 2.423-.491 4.296-2.416 4.725-4.851.428-2.435-.68-4.885-2.79-6.174-6.933-4.232-25.163-17.803-26.249-29.608-.216-2.36.042-5.988 4.773-10.235 4.726-4.242 8.351-4.106 10.664-3.636 11.613 2.358 23.126 21.989 26.58 29.35zm-137.705-11.892c14.456-9.115 47.193-26.439 79.057-20.126 3.164.627 6.156 1.374 8.997 2.211-4.104 5.72-4.715 11.353-4.335 15.449.509 5.496 2.944 10.771 6.264 15.567l-36.955-7.475c-3.26-.66-6.425 1.447-7.084 4.701s1.446 6.426 4.701 7.084l53.891 10.901c.165.135.332.272.496.404-10.772 3.625-25.302 10.305-31.333 21.186-.033.06-.062.121-.094.181-2.673-.341-5.403-.774-8.198-1.328-31.854-6.314-55.523-34.821-65.407-48.755zm245.579 212.625c-76.075 0-139.199-56.46-149.702-129.677 10.182-.828 21.234-5.942 29.125-10.386-.385 11.71.851 28.598 9.778 37.843 4.218 4.368 9.742 6.628 16.12 6.627 1.099 0 2.222-.067 3.369-.202 7.842-.922 13.968-4.664 17.715-10.823 6.486-10.661 4.604-26.505 1.994-37.644 11.417 4.244 28.18 8.486 39.422 2.532 4.394-2.328 9.894-7.264 11.142-17.554.143-1.176.214-2.329.227-3.463h40.264v27.341c0 13.423 10.92 24.342 24.342 24.342s24.342-10.919 24.342-24.342v-27.341h11.64c1.059 12.452 11.525 22.264 24.247 22.264s23.188-9.811 24.247-22.264h22.545c.285 3.81.435 7.642.435 11.494 0 83.402-67.851 151.253-151.252 151.253zm149.43-174.769h-21.064v-24.869h14.977c2.742 8.115 4.769 16.422 6.087 24.869zm80.185-135.191c-1.159 2.442-3.198 4.286-5.703 5.18l-102.662 35.82-23.406 49.282h-22.399l29.314-61.721c1.159-2.439 3.197-4.282 5.701-5.176l106.615-37.248c1.112-.397 2.261-.594 3.407-.594 1.479 0 2.95.329 4.326.98 2.441 1.158 4.286 3.198 5.194 5.743.907 2.546.77 5.293-.387 7.734z"/><path d="m356.903 386.151c-3.32 0-6.012 2.692-6.012 6.012v13.036c0 3.32 2.692 6.012 6.012 6.012s6.012-2.692 6.012-6.012v-13.036c-.001-3.32-2.692-6.012-6.012-6.012z"/><path d="m324.096 419.309c-3.32 0-6.012 2.692-6.012 6.012v13.036c0 3.32 2.692 6.012 6.012 6.012s6.012-2.692 6.012-6.012v-13.036c0-3.32-2.692-6.012-6.012-6.012z"/><path d="m259.505 411.55c-3.32 0-6.012 2.692-6.012 6.012v13.036c0 3.32 2.692 6.012 6.012 6.012s6.012-2.692 6.012-6.012v-13.036c0-3.32-2.692-6.012-6.012-6.012z"/><path d="m145.651 318.622c.759 2.634 3.163 4.348 5.774 4.348.551 0 1.111-.076 1.667-.237l10.891-3.139 3.139 10.891c.759 2.634 3.163 4.348 5.774 4.348.551 0 1.112-.076 1.667-.237 3.191-.919 5.031-4.251 4.112-7.441l-3.139-10.891 10.891-3.139c3.191-.919 5.031-4.251 4.113-7.441-.92-3.19-4.251-5.031-7.441-4.112l-10.891 3.139-3.139-10.892c-.919-3.19-4.251-5.029-7.441-4.112-3.191.92-5.031 4.251-4.112 7.442l3.139 10.892-10.891 3.139c-3.191.92-5.031 4.251-4.113 7.442z"/></g></g></svg>