<svg id="Capa_1" enable-background="new 0 0 512 512" height="512" viewBox="0 0 512 512" width="512" xmlns="http://www.w3.org/2000/svg"><g><g><circle cx="428.233" cy="136.819" fill="#f6e06e" r="77.553"/><ellipse cx="428.233" cy="136.819" fill="#faf1a9" rx="55.83" ry="55.83" transform="matrix(.924 -.383 .383 .924 -19.761 174.292)"/><path d="m79.844 136.352v38.477c0 36.278 32.336 66.145 73.923 70.085 1.944 40.349 36.781 73.508 82.411 80.745v125.38l-80.467 46.003c-2.302 1.379-1.325 4.914 1.36 4.914h196.471c2.684 0 3.661-3.535 1.359-4.914l-79.888-46.003v-125.597c44.968-7.669 79.14-40.577 81.064-80.528 41.587-3.941 73.923-33.808 73.923-70.085v-38.477z" fill="#c1e5ef"/><path d="m118.74 171.429c0 28.218 38.437 51.449 70.785 54.515 1.713 35.563 28.309 69.619 65.397 69.619s64.878-34.056 66.591-69.619c32.348-3.066 69.591-26.297 69.591-54.515z" fill="#faf1a9"/><path d="m362.367 136.352v31.045c0 23.172-16.351 43.103-39.813 51.979-10.93 4.135-19.666 12.763-23.951 23.635-10.826 27.469-41.427 47.271-77.498 47.271-25.791 0-48.773-10.132-63.742-25.944 11.857 36.21 51.033 62.793 97.559 62.793 54.518 0 98.953-36.498 101.155-82.218 41.587-3.94 73.923-33.807 73.923-70.084v-38.477z" fill="#a6aaed"/><path d="m322.553 219.376c-10.93 4.135-19.666 12.763-23.951 23.635-9.95 25.246-36.608 44.002-68.86 46.875 7.622 3.617 16.083 5.676 25.179 5.676 37.088 0 64.878-34.056 66.591-69.618 32.348-3.066 69.591-26.297 69.591-54.515h-28.908c-1.772 21.434-17.553 39.591-39.642 47.947z" fill="#dfb5a7"/><path d="m39.774 22.106 8.282 23.288c.354.997 1.057 1.787 1.943 2.186l20.691 9.322c2.923 1.317 2.923 5.974 0 7.292l-20.691 9.322c-.886.399-1.588 1.189-1.943 2.186l-8.282 23.288c-1.17 3.29-5.308 3.29-6.478 0l-8.282-23.288c-.355-.997-1.057-1.787-1.943-2.186l-20.69-9.322c-2.923-1.317-2.923-5.974 0-7.292l20.691-9.322c.886-.399 1.588-1.189 1.943-2.186l8.282-23.288c1.169-3.29 5.307-3.29 6.477 0z" fill="#faf1a9"/><ellipse cx="155.463" cy="18.085" fill="#f6e06e" rx="18.085" ry="18.085" transform="matrix(.23 -.973 .973 .23 102.144 165.234)"/><path d="m312.75 74.41c0 4.309-3.493 7.801-7.801 7.801-4.309 0-7.801-3.493-7.801-7.801 0-4.309 3.493-7.801 7.801-7.801 4.308-.001 7.801 3.492 7.801 7.801z" fill="#f6e06e"/><path d="m449.55 270.583 6.144 17.275c.263.74.784 1.326 1.441 1.622l15.348 6.915c2.168.977 2.168 4.432 0 5.409l-15.348 6.915c-.657.296-1.178.882-1.441 1.622l-6.144 17.275c-.868 2.44-3.938 2.44-4.805 0l-6.144-17.275c-.263-.74-.784-1.326-1.441-1.622l-15.348-6.915c-2.168-.977-2.168-4.432 0-5.409l15.348-6.915c.657-.296 1.178-.882 1.441-1.622l6.144-17.275c.868-2.441 3.937-2.441 4.805 0z" fill="#faf1a9"/></g><g><path d="m428.233 53.241c-42.523 0-77.693 31.931-82.881 73.068h-265.508c-5.547 0-10.044 4.497-10.044 10.044v38.477c0 38.74 31.599 71.511 74.762 78.981 5.829 39.04 38.578 70.34 81.571 80.15v111.251l-75.408 43.111c-.059.034-.118.069-.177.104-4.954 2.968-7.248 8.701-5.708 14.267 1.539 5.566 6.454 9.306 12.229 9.306h196.471c5.775 0 10.69-3.74 12.23-9.306 1.539-5.566-.755-11.3-5.709-14.267-.049-.03-.099-.059-.149-.088l-74.856-43.106v-111.586c42.329-10.152 74.456-41.206 80.224-79.837 24.453-4.232 45.186-16.588 58.573-33.545 1.451.08 2.908.133 4.379.133 46.086 0 83.579-37.494 83.579-83.58 0-46.085-37.492-83.577-83.578-83.577zm-158.232 406.502 55.865 32.17h-140.947l56.243-32.154c3.128-1.789 5.059-5.116 5.059-8.72v-114.154c2.872.189 5.772.291 8.701.291 3.387 0 6.738-.133 10.048-.385v114.249c0 3.592 1.918 6.91 5.031 8.703zm149.956-284.914c0 30.753-27.87 56.584-64.827 60.087-4.974.471-8.844 4.525-9.084 9.515-1.963 40.743-41.989 72.658-91.123 72.658s-89.161-31.915-91.124-72.658c-.24-4.989-4.111-9.044-9.084-9.515-36.957-3.503-64.826-29.334-64.826-60.087v-28.433h330.069v28.433zm-40.395-48.52c1.581-7.326 4.772-14.06 9.191-19.804l19.804 19.804zm42.016-4.023-24.377-24.377c6.878-5.499 15.236-9.216 24.377-10.443zm10.099 85.973c1.717-3.259 3.183-6.634 4.391-10.104 30.419-3.865 54.021-29.884 54.021-61.336 0-34.108-27.748-61.856-61.856-61.856-30.523 0-55.926 22.23-60.933 51.346h-9.779c5.102-34.469 34.846-61.016 70.712-61.016 39.44 0 71.526 32.087 71.526 71.526 0 38.286-30.236 69.636-68.082 71.44zm10.475-65.399h35.507c-1.141 9.38-4.897 17.957-10.521 24.986zm16.389 33.432c-5.609 4.311-12.164 7.444-19.288 9.06.519-3.448.791-6.96.791-10.524v-17.034zm-16.39-45.484 25.005-25.006c5.619 7.037 9.37 15.622 10.504 25.006zm-8.521-8.522v-34.974c9.319 1.009 17.87 4.603 24.932 10.042z" fill="#3c122c"/><path d="m254.922 301.589c-44.708 0-67.499-34.502-71.042-70.269-34.653-5.207-71.166-29.954-71.166-59.891 0-3.328 2.698-6.026 6.026-6.026h272.364c3.328 0 6.026 2.698 6.026 6.026 0 29.98-35.895 54.704-69.983 59.888-3.601 34.762-27.039 70.272-72.225 70.272zm-129.419-124.134c5.199 21.383 36.949 39.869 64.591 42.489 2.984.284 5.306 2.716 5.45 5.709 1.532 31.798 20.485 63.883 59.377 63.883 39.717 0 59.04-32.085 60.572-63.883.144-2.993 2.467-5.426 5.45-5.709 27.742-2.629 58.492-20.783 63.444-42.489z" fill="#3c122c"/><path d="m233.487 202.666c-11.332 0-22.689-.018-34.007-.055-5.547-.019-10.029-4.529-10.011-10.076.018-5.536 4.512-10.011 10.043-10.011h.034c23.733.079 47.658.075 71.107-.012h.037c5.53 0 10.022 4.473 10.043 10.007.021 5.546-4.46 10.059-10.007 10.08-12.314.046-24.761.067-37.239.067z" fill="#fff"/><path d="m169.463 202.6h-8.743c-5.547 0-10.044-4.497-10.044-10.044 0-5.546 4.497-10.044 10.044-10.044h8.743c5.547 0 10.044 4.497 10.044 10.044-.001 5.547-4.497 10.044-10.044 10.044z" fill="#fff"/><g fill="#3c122c"><path d="m261.345 273.495c-.022 0-.044 0-.067 0-3.328-.036-5.996-2.764-5.96-6.092l.154-14.161c.036-3.305 2.727-5.96 6.025-5.96h.067c3.328.036 5.997 2.764 5.961 6.092l-.154 14.161c-.038 3.305-2.729 5.96-6.026 5.96z"/><path d="m285.169 255.134c-.022 0-.044 0-.066 0-3.328-.036-5.997-2.763-5.961-6.091l.153-14.162c.036-3.306 2.728-5.961 6.025-5.961h.066c3.328.036 5.997 2.763 5.961 6.091l-.153 14.162c-.036 3.306-2.728 5.961-6.025 5.961z"/></g></g></g></svg>