<svg id="Capa_1" enable-background="new 0 0 512 512" height="512" viewBox="0 0 512 512" width="512" xmlns="http://www.w3.org/2000/svg"><g><g><path d="m381.599 229.05h-224.073c-13.487 0-24.42 10.934-24.42 24.42v13.316h-9.476c-42.746 0-77.523 34.777-77.523 77.523v19.427c0 42.747 34.777 77.525 77.523 77.525h16.499c.49 0 .972-.028 1.46-.037 15.665 35.757 51.362 60.74 92.899 60.74h70.15c55.992 0 101.382-45.39 101.382-101.382v-147.112c-.001-13.487-10.934-24.42-24.421-24.42zm-257.969 176.118c-22.845 0-41.43-18.586-41.43-41.432v-19.427c0-22.844 18.585-41.43 41.43-41.43h9.476v97.702c0 1.537.04 3.065.108 4.586h-9.584z" fill="#c1e5ef"/><path d="m381.678 229.05h-61.703c13.443 0 24.341 10.898 24.341 24.341v85.818c0 55.81-45.242 101.052-101.052 101.052h-9.107c-55.809 0-101.052-45.243-101.052-101.052v61.702c0 55.81 45.242 101.053 101.052 101.053h70.81c55.809 0 101.052-45.243 101.052-101.053v-147.52c0-13.443-10.898-24.341-24.341-24.341z" fill="#a6aaed"/><path d="m285.623 470.793h-32.122c-48.914 0-88.567-39.653-88.567-88.567v-111.6c0-6.565 5.322-11.887 11.887-11.887h185.482c6.565 0 11.887 5.322 11.887 11.887v111.6c0 48.914-39.652 88.567-88.567 88.567z" fill="#a07575"/><path d="m362.26 258.739h-17.943v80.469c0 55.81-45.242 101.052-101.052 101.052h-9.107c-22.753 0-43.749-7.522-60.639-20.213 14.278 30.003 44.87 50.744 80.309 50.744h31.471c49.094 0 88.892-39.798 88.892-88.892v-111.229c-.001-6.59-5.342-11.931-11.931-11.931z" fill="#925873"/><path d="m384.347 193.228c-3.255-20.217-21.148-35.68-42.739-35.68-6.018 0-11.747 1.203-16.954 3.374-14.847-3.233-32.506-5.102-53.534-5.102-20.926 0-38.516 1.851-53.318 5.055-3.918-1.797-8.288-2.806-12.902-2.806-12.845 0-23.823 7.789-28.282 18.797-.148.094-.301.186-.447.28-2.436-.615-4.991-.942-7.624-.942-16.799 0-30.418 13.316-30.418 29.742 0 6.184 1.932 11.927 5.236 16.686-1.929 7.962-2.491 15.516-2.491 21.901 0 23.425 33.773 41.809 81.617 49.259-.063.422-.101.847-.101 1.278 0 8.091 11.288 14.651 25.213 14.651 9.519 0 17.803-3.066 22.094-7.59 5.775 5.602 14.995 9.238 25.401 9.238 15.493 0 28.379-8.043 31.129-18.668 44.385-8.053 75.139-25.816 75.139-48.168 0-14.127-2.735-33.967-17.019-51.305z" fill="#fff"/><path d="m335.948 224.351-13.653-1.523c-2.579-1.684-3.412-5.078-1.905-7.765l71.446-127.377c6.872-10.524 20.974-13.484 31.497-6.613 10.524 6.872 13.484 20.974 6.613 31.497l-86.119 110.395c-1.185 1.583-4.544 1.78-7.879 1.386z" fill="#96b4eb"/><path d="m41.272 4.161 8.428 23.699c.361 1.015 1.075 1.819 1.977 2.225l21.056 9.486c2.975 1.34 2.975 6.08 0 7.42l-21.056 9.486c-.902.406-1.616 1.21-1.977 2.225l-8.428 23.699c-1.191 3.348-5.402 3.348-6.592 0l-8.428-23.699c-.361-1.015-1.075-1.819-1.977-2.225l-21.056-9.486c-2.975-1.34-2.975-6.08 0-7.42l21.056-9.486c.901-.406 1.616-1.21 1.977-2.225l8.428-23.699c1.19-3.348 5.401-3.348 6.592 0z" fill="#efc5b4"/><path d="m82.589 153.624c0 10.164-8.24 18.404-18.403 18.404-10.164 0-18.404-8.24-18.404-18.404s8.24-18.404 18.404-18.404c10.163.001 18.403 8.24 18.403 18.404z" fill="#e8a284"/><path d="m473.468 35.669c0 4.385-3.554 7.939-7.939 7.939s-7.939-3.554-7.939-7.939c0-4.384 3.554-7.939 7.939-7.939s7.939 3.554 7.939 7.939z" fill="#e8a284"/><path d="m486.02 179.85 6.252 17.579c.268.753.797 1.349 1.466 1.65l15.619 7.037c2.207.994 2.207 4.51 0 5.504l-15.619 7.037c-.669.301-1.199.898-1.466 1.65l-6.252 17.58c-.883 2.483-4.007 2.483-4.89 0l-6.252-17.58c-.268-.753-.798-1.349-1.466-1.65l-15.619-7.037c-2.206-.994-2.206-4.51 0-5.504l15.619-7.037c.669-.301 1.199-.898 1.466-1.65l6.252-17.579c.883-2.484 4.007-2.484 4.89 0z" fill="#efc5b4"/></g><g><g fill="#3c122c"><path d="m442.986 93.391c-1.8-8.573-6.831-15.932-14.164-20.72-15.141-9.887-35.502-5.612-45.39 9.528-.124.189-.24.381-.35.578l-36.444 64.974c-1.657-.153-3.334-.24-5.031-.24-6.114 0-12.078 1.003-17.774 2.984-15.554-3.129-33.268-4.714-52.713-4.714-19.307 0-36.907 1.562-52.376 4.646-4.427-1.592-9.069-2.396-13.844-2.396-14.002 0-26.656 6.947-34 18.201-.783-.044-1.567-.067-2.352-.067-22.307 0-40.455 17.845-40.455 39.778 0 6.49 1.584 12.793 4.615 18.465-.4 2.057-.729 4.156-1.001 6.284-5.369 6.076-8.638 14.049-8.638 22.777v3.286c-48.023.304-86.999 39.46-86.999 87.553v19.427c0 48.281 39.279 87.561 87.56 87.561h11.666c18.485 36.01 56.008 60.704 99.191 60.704h70.15c61.437 0 111.418-49.982 111.418-111.418v-147.112c0-6.527-1.841-12.62-5.009-17.822-1.42-17.97-7.212-33.65-17.3-46.73-.723-3.363-1.778-6.581-3.103-9.646l47.218-60.528c.173-.222.336-.451.49-.686 4.789-7.334 6.435-16.094 4.635-24.667zm-350.75 270.345v-19.427c0-17.122 13.781-31.077 30.833-31.379v82.187c-17.052-.302-30.833-14.258-30.833-31.381zm31.394 67.488c-37.212 0-67.487-30.275-67.487-67.488v-19.427c0-37.024 29.972-67.169 66.926-67.472v16.02c-28.121.304-50.906 23.262-50.906 51.453v19.427c0 28.38 23.088 51.469 51.467 51.469h.4c.721 5.473 1.838 10.824 3.326 16.02h-3.726zm272.352-156.395v125.752c0 50.368-40.977 91.345-91.345 91.345h-70.15c-50.368 0-91.345-40.977-91.345-91.345v-128.54c4.233 4.309 9.515 8.311 15.77 11.96v103.882c0 49.037 39.894 88.931 88.931 88.931h43.438c49.037 0 88.931-39.894 88.931-88.931v-102.257c6.107-3.303 11.383-6.916 15.77-10.797zm-225.025 15.241c11.957 5.214 26.354 9.432 42.902 12.443 4.299 10.208 17.385 17.243 33.745 17.243 8.179 0 15.874-1.853 21.964-5.15 7.209 4.378 16.131 6.798 25.531 6.798 17.19 0 31.984-7.911 38.376-19.878 13.043-2.656 24.654-6.112 34.694-10.234v96.592c0 42.395-34.491 76.887-76.887 76.887h-43.438c-42.395 0-76.887-34.491-76.887-76.887zm205.644-90.461c9.773 11.864 14.729 26.978 14.729 44.923 0 15.644-26.883 31.032-66.894 38.293-3.851.698-6.944 3.572-7.924 7.361-1.418 5.478-9.815 11.144-21.412 11.144-7.395 0-14.279-2.395-18.413-6.405-1.875-1.819-4.382-2.833-6.988-2.833-.07 0-.139.001-.209.002-2.681.056-5.227 1.182-7.073 3.128-2.038 2.147-7.542 4.46-14.812 4.46-8.752 0-14.129-3.283-15.133-4.818.574-5.302-3.119-10.162-8.435-10.99-43.055-6.704-73.124-22.882-73.124-39.341 0-6.918.743-13.491 2.208-19.537.676-2.789.126-5.732-1.51-8.088-2.252-3.244-3.443-7.036-3.443-10.962 0-10.865 9.143-19.705 20.381-19.705 1.754 0 3.492.215 5.165.637 2.716.686 5.575.218 7.919-1.31l.384-.241c1.757-1.12 3.122-2.761 3.904-4.693 3.083-7.611 10.534-12.528 18.98-12.528 3.046 0 5.979.637 8.718 1.893 1.973.905 4.185 1.146 6.307.686 3.529-.764 7.204-1.432 11.002-2.015-2.305 3.065-3.689 6.859-3.689 10.981v15.146c0 3.326 2.696 6.022 6.022 6.022s6.022-2.696 6.022-6.022v-15.146c0-3.466 2.819-6.285 6.285-6.285h6.626c3.465 0 6.285 2.819 6.285 6.285 0 3.326 2.696 6.022 6.022 6.022s6.022-2.696 6.022-6.022c0-5.462-2.415-10.36-6.218-13.72 2.244-.047 4.514-.074 6.815-.074 19.254 0 36.547 1.64 51.399 4.873 2.004.434 4.1.247 5.996-.543 2.154-.898 4.38-1.559 6.659-1.994l-23.535 41.96c-.426.759-.766 1.543-1.056 2.338-10.44-.505-21.342.778-32.674 3.876-5.347 1.461-8.497 6.982-7.035 12.328 1.461 5.347 6.983 8.498 12.328 7.036 25.647-7.01 47.484-2.831 66.76 12.778 1.858 1.506 4.091 2.237 6.31 2.237 2.924 0 5.823-1.271 7.806-3.721 3.488-4.308 2.824-10.628-1.484-14.116-2.877-2.33-5.814-4.455-8.807-6.389l21.956-28.145c.256.429.537.845.858 1.234zm45.136-92.83-83.991 107.667c-.19-.016-.397-.035-.62-.062-.021-.003-.044-.005-.066-.008l-4.495-.502 67.836-120.943c1.859-2.714 4.645-4.574 7.875-5.253 3.329-.696 6.726-.059 9.57 1.799 5.772 3.77 7.473 11.462 3.891 17.302z"/><path d="m210.85 197.018c-2.664-4.108-6.769-6.932-11.557-7.953-4.789-1.019-9.687-.115-13.794 2.549l-5.561 3.607c-8.478 5.5-10.902 16.872-5.402 25.352l8.243 12.707c1.809 2.79 5.539 3.581 8.329 1.775 2.791-1.81 3.585-5.54 1.775-8.33l-8.243-12.706c-1.885-2.908-1.055-6.807 1.852-8.693l5.561-3.607c1.409-.913 3.09-1.222 4.729-.873 1.642.35 3.049 1.317 3.963 2.726l8.243 12.709c.913 1.407 1.224 3.087.874 4.729s-1.318 3.049-2.726 3.962c-2.79 1.81-3.585 5.539-1.776 8.329 1.154 1.778 3.086 2.746 5.059 2.746 1.123 0 2.259-.314 3.271-.97 4.108-2.664 6.932-6.768 7.952-11.557 1.021-4.788.115-9.687-2.549-13.794z"/><path d="m273.699 246.988c-1.254-10.028-10.438-17.151-20.461-15.915l-15.029 1.879c-10.028 1.254-17.167 10.433-15.914 20.461l.822 6.576c.381 3.046 2.975 5.276 5.968 5.276.249 0 .501-.016.754-.047 3.3-.413 5.641-3.423 5.229-6.723l-.822-6.576c-.43-3.438 2.018-6.586 5.456-7.015l15.03-1.879c1.668-.211 3.313.245 4.638 1.275s2.169 2.515 2.377 4.182l.822 6.575c.414 3.3 3.418 5.641 6.724 5.228 3.3-.414 5.641-3.424 5.228-6.724z"/></g><path d="m193.705 389.571c-5.543 0-10.037-4.494-10.037-10.037v-14.223c0-5.543 4.493-10.037 10.037-10.037s10.037 4.494 10.037 10.037v14.223c0 5.543-4.494 10.037-10.037 10.037z" fill="#fff"/><path d="m193.705 346.593c-5.543 0-10.037-4.494-10.037-10.037v-6.024c0-5.543 4.493-10.037 10.037-10.037s10.037 4.494 10.037 10.037v6.024c0 5.543-4.494 10.037-10.037 10.037z" fill="#fff"/><g fill="#3c122c"><path d="m317.161 380.179c-3.326 0-6.022-2.696-6.022-6.022v-14.051c0-3.326 2.696-6.022 6.022-6.022s6.022 2.696 6.022 6.022v14.051c0 3.325-2.697 6.022-6.022 6.022z"/><path d="m289.055 419.995c-3.326 0-6.022-2.696-6.022-6.022v-14.051c0-3.326 2.696-6.022 6.022-6.022s6.022 2.696 6.022 6.022v14.051c0 3.326-2.697 6.022-6.022 6.022z"/><path d="m337.363 406.622c-3.326 0-6.022-2.696-6.022-6.022v-14.051c0-3.326 2.696-6.022 6.022-6.022s6.022 2.696 6.022 6.022v14.051c0 3.326-2.696 6.022-6.022 6.022z"/><path d="m199.197 95.767c-2.185 0-4.385-.71-6.229-2.172-4.344-3.444-5.073-9.757-1.629-14.1 2.164-2.767 7.831-11.627 7.831-18.996 0-2.812-.713-3.711-2.83-6.381-2.857-3.603-7.174-9.048-7.174-18.852 0-15.658 10.93-29.892 12.177-31.465 3.444-4.344 9.757-5.071 14.1-1.627 4.334 3.437 5.069 9.733 1.648 14.075-2.184 2.792-7.851 11.649-7.851 19.017 0 2.812.713 3.711 2.83 6.381 2.857 3.603 7.174 9.048 7.174 18.852 0 15.66-10.93 29.896-12.176 31.468-1.981 2.498-4.912 3.8-7.871 3.8z"/><path d="m319.245 95.767c-2.185.001-4.384-.71-6.229-2.172-4.343-3.444-5.073-9.757-1.629-14.1 2.164-2.767 7.831-11.627 7.831-18.996 0-2.812-.713-3.712-2.83-6.381-2.856-3.603-7.174-9.048-7.174-18.852 0-15.658 10.93-29.892 12.176-31.465 3.442-4.342 9.754-5.073 14.1-1.627 4.335 3.437 5.069 9.735 1.646 14.077-2.185 2.794-7.849 11.65-7.849 19.015 0 2.812.712 3.712 2.83 6.381 2.856 3.603 7.174 9.048 7.174 18.852 0 15.66-10.93 29.896-12.176 31.468-1.979 2.498-4.911 3.8-7.87 3.8z"/><path d="m259.221 95.767c-2.185.001-4.384-.71-6.229-2.172-4.344-3.444-5.073-9.757-1.629-14.1 2.164-2.767 7.831-11.627 7.831-18.996 0-2.812-.713-3.712-2.83-6.381-2.857-3.603-7.174-9.048-7.174-18.852 0-15.658 10.93-29.892 12.176-31.465 3.443-4.342 9.754-5.073 14.1-1.627 4.335 3.437 5.069 9.735 1.646 14.077-2.185 2.794-7.849 11.65-7.849 19.015 0 2.812.712 3.712 2.83 6.381 2.856 3.603 7.174 9.048 7.174 18.852 0 15.66-10.93 29.896-12.176 31.468-1.979 2.498-4.911 3.8-7.87 3.8z"/></g></g></g></svg>