<svg id="Capa_1" enable-background="new 0 0 512 512" height="512" viewBox="0 0 512 512" width="512" xmlns="http://www.w3.org/2000/svg"><g><g><path d="m334.901 343.427c0-17.74 3.111-33.905 8.219-46.098.461-1.102.911-2.209 1.348-3.32 12.511-31.795 14.052-66.853 5.407-99.909-8.653-33.089-26.837-82.038-61.736-103.493v-34.281h-73.414v32.916c-36.231 20.654-54.72 70.915-63.374 104.724-8.482 33.139-6.955 68.211 5.571 100.043.437 1.111.887 2.218 1.348 3.32 5.108 12.193 8.219 28.358 8.219 46.098s1.123 34.963-3.985 47.156c-9.232 22.038-13.595 46.012-13.595 70.117 0 22.749 24.962 42.922 38.932 41.19s19.742-12.45 30.207-12.45c10.464 0 19.627 11.391 33.39 11.391s23.959-12.158 31.204-12.158 15.547 9.903 30.575 11.391 38.932-18.441 38.932-41.19c0-24.105-4.364-48.08-13.596-70.117-5.107-12.192-3.652-27.591-3.652-45.33z" fill="#c1e5ef"/><path d="m346.471 271.303h-187.73c-19.686-29.516-15.292-65.368 0-105.292h182.017c10.611 31.832 13.371 72.565 5.713 105.292z" fill="#fff"/><path d="m348.28 227.394-27.39-22.229-27.389 43.267-21.039-17.069-30.565 40.886h107.839z" fill="#a1e8c3"/><path d="m334.901 343.427c0-17.74 3.111-33.905 8.219-46.098.462-1.102.911-2.209 1.348-3.32 12.512-31.795 14.052-66.852 5.408-99.909-8.653-33.09-26.837-82.038-61.736-103.493v-28.995h-26.848v42.087c28.306 18.949 43.054 49.715 50.072 78.939 7.012 29.194 5.762 60.155-4.385 88.236-.355.982-.719 1.959-1.094 2.932-4.143 10.768-6.666 37.191-6.666 52.858s-1.18 29.267 2.963 40.035c7.488 19.462 11.027 28.489 11.027 49.777 0 20.091-19.388 37.692-31.577 36.378s-18.923-10.06-24.799-10.06-14.146 10.737-25.308 10.737c-11.163 0-18.594-10.061-27.081-10.061-8.488 0-13.169 9.466-24.5 10.995-8.758 1.182-22.837-9.198-28.78-23.25-1.505 9.724-2.253 19.593-2.253 29.486 0 22.748 24.962 42.921 38.932 41.19 13.97-1.733 19.742-12.45 30.207-12.45s19.627 11.392 33.39 11.392 23.959-12.158 31.204-12.158 15.547 9.903 30.575 11.392c15.029 1.488 38.932-18.442 38.932-41.19 0-24.104-4.364-48.08-13.595-70.116-5.11-12.196-3.655-27.594-3.655-45.334z" fill="#a6aaed"/><path d="m306.565 271.98h44.715c5.869-25.533 5.284-52.305-1.405-77.881-1.996-7.633-4.507-16.114-7.606-24.902h-34.683c1.452 4.485 2.705 8.98 3.777 13.44 7.012 29.194 5.762 60.155-4.385 88.236-.134.371-.276.738-.413 1.107z" fill="#e1bdfc"/><path d="m348.28 227.394-27.39-22.229-5.263 8.313c.784 19.497-2.024 39.06-8.65 57.395-.134.371-.276.738-.413 1.107h43.163z" fill="#85adc2"/><path d="m288.036 51.877h-73.207c-4.384 0-7.938-3.554-7.938-7.938v-20.589c0-7.366 5.972-13.338 13.338-13.338h62.408c7.366 0 13.338 5.972 13.338 13.338v20.589c-.001 4.384-3.555 7.938-7.939 7.938z" fill="#96b4eb"/><path d="m231.598 229.486c0 14.032-11.375 25.408-25.408 25.408-14.032 0-25.408-11.375-25.408-25.408 0-29.548 29.736-45.357 33.5-43.852 2.175.87 2.635 15.056 6.399 21.832 2.378 4.277 10.917 12.798 10.917 22.02z" fill="#96b4eb"/><path d="m101.083 43.82 8.224 23.125c.352.99 1.049 1.775 1.929 2.171l20.545 9.256c2.903 1.308 2.903 5.932 0 7.24l-20.545 9.257c-.88.396-1.577 1.181-1.929 2.171l-8.224 23.125c-1.162 3.267-5.271 3.267-6.433 0l-8.224-23.125c-.352-.99-1.049-1.775-1.929-2.171l-20.545-9.257c-2.903-1.308-2.903-5.932 0-7.24l20.545-9.256c.88-.396 1.577-1.181 1.929-2.171l8.224-23.125c1.162-3.267 5.271-3.267 6.433 0z" fill="#c1e5ef"/><circle cx="416.092" cy="123.369" fill="#96b4eb" r="17.958"/><circle cx="46.662" cy="204.136" fill="#96b4eb" r="7.746"/><path d="m448.698 261.939 6.1 17.154c.261.734.778 1.316 1.431 1.61l15.24 6.866c2.153.97 2.153 4.401 0 5.371l-15.24 6.866c-.652.294-1.169.876-1.431 1.61l-6.1 17.153c-.862 2.423-3.91 2.423-4.772 0l-6.1-17.153c-.261-.734-.778-1.316-1.431-1.61l-15.24-6.866c-2.153-.97-2.153-4.401 0-5.371l15.24-6.866c.652-.294 1.17-.876 1.431-1.61l6.1-17.154c.862-2.424 3.91-2.424 4.772 0z" fill="#c1e5ef"/></g><g><g fill="#3c122c"><path d="m299.23 365.06h-95.557c-3.317 0-6.007-2.69-6.007-6.007s2.69-6.007 6.007-6.007h95.557c3.317 0 6.007 2.69 6.007 6.007s-2.689 6.007-6.007 6.007z"/><path d="m299.23 330.019h-95.557c-3.317 0-6.007-2.69-6.007-6.007s2.69-6.007 6.007-6.007h95.557c3.317 0 6.007 2.69 6.007 6.007s-2.689 6.007-6.007 6.007z"/><path d="m299.23 400.101h-95.557c-3.317 0-6.007-2.69-6.007-6.007s2.69-6.007 6.007-6.007h95.557c3.317 0 6.007 2.69 6.007 6.007s-2.689 6.007-6.007 6.007z"/><path d="m206.191 260.9c-17.322 0-31.415-14.092-31.415-31.414 0-25.285 19.069-40.161 24.914-44.118 5.101-3.454 12.162-7.177 16.824-5.311 4.088 1.635 4.86 5.709 6.141 12.459.746 3.931 1.768 9.314 3.278 12.033.413.744 1.339 2.004 2.32 3.339 3.724 5.068 9.352 12.727 9.352 21.598 0 17.322-14.092 31.414-31.414 31.414zm4.301-68.02c-7.633 3.963-23.702 16.468-23.702 36.606 0 10.697 8.703 19.4 19.401 19.4s19.401-8.703 19.401-19.4c0-4.932-4.057-10.453-7.019-14.484-1.265-1.722-2.358-3.209-3.141-4.618-2.45-4.411-3.63-10.631-4.579-15.628-.112-.586-.234-1.232-.361-1.876zm3.396-1.35"/><path d="m344.812 353.251c.05-3.166.101-6.441.101-9.825 0-15.777 2.643-30.774 7.442-42.23.489-1.167.964-2.339 1.43-3.522 13.176-33.486 15.173-70.177 5.776-106.108-9.351-35.759-27.514-82.446-61.41-106.346v-26.47c4.725-3.239 7.834-8.671 7.834-14.82v-20.564c.001-12.884-10.481-23.366-23.364-23.366h-62.377c-12.883 0-23.365 10.482-23.365 23.366v20.564c0 6.149 3.109 11.581 7.834 14.82v24.908c-35.137 23.299-53.643 71.035-63.06 107.826-9.238 36.094-7.18 72.814 5.953 106.19.463 1.179.941 2.354 1.43 3.524 4.8 11.454 7.442 26.451 7.442 42.229 0 2.77.027 5.527.054 8.255.134 13.691.261 26.624-3.262 35.032-9.538 22.768-14.373 47.66-14.373 73.986 0 13.84 7.014 27.976 19.245 38.784 9.032 7.982 19.284 12.517 28.03 12.517.988 0 1.955-.058 2.9-.175 9.386-1.163 15.75-5.263 20.862-8.556 3.785-2.438 6.027-3.817 8.114-3.817 2.351 0 5.885 1.902 9.626 3.916 6.188 3.331 13.887 7.475 23.763 7.475 10.758 0 19.348-5.174 25.62-8.952 1.908-1.15 4.457-2.685 5.71-3.139 1.176.36 3.638 1.733 5.481 2.76 5.655 3.152 13.398 7.469 23.981 8.517 9.794.972 21.559-3.814 31.475-12.797 11.729-10.624 18.455-24.605 18.455-38.357 0-26.327-4.836-51.22-14.373-73.985-3.345-7.991-3.173-18.95-2.974-31.64zm-2.772-86.614h-88.447l19.938-26.671 16.185 13.131c1.332 1.08 3.06 1.543 4.757 1.263 1.692-.277 3.186-1.265 4.104-2.715l23.776-37.558 22.142 17.971c.231.188.475.348.724.496.259 11.508-.767 22.966-3.054 34.089-.043 0-.083-.006-.125-.006zm-180.989-70.188c1.676-6.547 3.89-14.275 6.708-22.52h165.533c2.902 8.337 5.18 16.137 6.898 22.705 1.686 6.446 2.942 12.974 3.786 19.531l-19.299-15.663c-1.334-1.081-3.061-1.545-4.757-1.264-1.693.277-3.187 1.265-4.104 2.715l-23.776 37.559-15.792-12.812c-1.269-1.03-2.9-1.499-4.526-1.296-1.622.201-3.092 1.055-4.07 2.364l-29.059 38.871h-79.433c-4.751-22.718-4.152-46.584 1.891-70.19zm55.851-173.083c0-1.843 1.499-3.342 3.342-3.342h62.377c1.843 0 3.342 1.499 3.342 3.342v18.499h-69.06v-18.499zm2.781 74.574 5.054-2.881v-28.721h53.392v29.866l4.768 2.931c21.49 13.212 36.224 38.852 45.889 62.78h-156.597c9.816-24.69 24.998-51.151 47.494-63.975zm110.58 384.452c-6.359 5.761-12.788 8.037-16.059 7.711-6.441-.638-11.404-3.405-16.205-6.08-4.726-2.635-9.614-5.36-15.357-5.36-5.829 0-10.728 2.952-15.916 6.076-4.963 2.989-10.095 6.081-15.287 6.081-4.829 0-9.416-2.469-14.273-5.083-5.493-2.957-11.72-6.308-19.117-6.308-8.08 0-13.858 3.723-18.958 7.007-4.096 2.639-7.633 4.917-12.481 5.519-2.302.284-8.443-1.496-15.208-7.475-7.815-6.906-12.48-15.795-12.48-23.779 0-23.655 4.313-45.944 12.819-66.249 5.116-12.215 4.97-27.151 4.815-42.965-.026-2.663-.053-5.355-.053-8.059 0-18.373-3.195-36.118-8.997-49.965-.433-1.035-.855-2.074-1.266-3.118-1.514-3.848-2.857-7.748-4.036-11.692h176.961c-1.171 3.958-2.505 7.859-4.01 11.686-.412 1.046-.834 2.087-1.268 3.123-5.802 13.848-8.997 31.593-8.997 49.966 0 3.228-.05 6.422-.099 9.512-.224 14.315-.436 27.835 4.529 39.688 8.506 20.303 12.819 42.592 12.819 66.249-.001 7.988-4.44 16.779-11.876 23.515z"/></g><path d="m200.253 160.361c-1.049 0-2.117-.167-3.168-.517-5.245-1.749-8.08-7.419-6.331-12.664 2.088-6.264 8.216-16.413 14.475-21.888 4.162-3.64 10.488-3.218 14.127.944 3.641 4.162 3.219 10.487-.944 14.127-3.111 2.722-7.519 9.715-8.663 13.15-1.398 4.195-5.305 6.848-9.496 6.848z" fill="#fff"/><path d="m229.783 126.272c-3.542 0-6.975-1.884-8.794-5.212-2.652-4.851-.869-10.935 3.982-13.587 1.168-.638 2.348-1.22 3.509-1.73 5.062-2.221 10.969.079 13.191 5.142 2.223 5.063-.079 10.969-5.143 13.192-.632.278-1.29.603-1.952.965-1.524.835-3.17 1.23-4.793 1.23z" fill="#fff"/></g></g></svg>