<svg id="Capa_1" enable-background="new 0 0 512 512" height="512" viewBox="0 0 512 512" width="512" xmlns="http://www.w3.org/2000/svg"><g><g><path d="m495.295 65.542-48.551-48.551c-8.91-8.91-23.356-8.91-32.266 0l-49.879 49.879c-27.236-13.648-60.924-10.544-85.436 10.021l-36.724 30.811c-6.487-4.399-15.382-3.733-21.129 2.014l-2.976 2.976c-5.504 5.503-6.336 13.89-2.535 20.288l-200.345 208.971c-7.419 7.738-7.29 19.988.291 27.569l126.315 126.315c7.562 7.562 19.774 7.712 27.519.338l209.735-199.68c6.397 3.795 14.778 2.961 20.28-2.54l2.976-2.976c5.789-5.79 6.418-14.771 1.912-21.269l30.692-36.131c20.863-24.56 24.059-58.514 10.27-85.917l49.852-49.852c8.909-8.91 8.909-23.356-.001-32.266z" fill="#96b4eb"/><path d="m495.295 65.542-48.551-48.551c-8.91-8.91-23.356-8.91-32.266 0l-2.517 2.517 36.787 36.787c7.954 7.954 7.954 20.85 0 28.804l-32.495 32.495c12.31 24.462 9.456 54.773-9.168 76.697l-39.405 44.261c4.022 5.801 3.462 13.818-1.706 18.986l-2.657 2.656c-4.911 4.911-12.393 5.656-18.104 2.267l-187.229 178.255c-6.914 6.583-17.816 6.449-24.566-.302l-108.42-108.419-9.545 9.956c-7.419 7.738-7.29 19.988.291 27.569l126.316 126.315c7.562 7.562 19.774 7.712 27.519.338l209.735-199.681c6.397 3.796 14.779 2.961 20.28-2.54l2.976-2.976c5.789-5.79 6.418-14.771 1.911-21.269l30.692-36.131c20.863-24.56 24.059-58.514 10.27-85.917l49.852-49.852c8.91-8.909 8.91-23.355 0-32.265z" fill="#8286ea"/><path d="m118.456 4.223 8.246 23.186c.353.993 1.052 1.779 1.934 2.177l20.6 9.281c2.91 1.311 2.91 5.948 0 7.259l-20.6 9.281c-.882.397-1.581 1.184-1.934 2.177l-8.246 23.186c-1.165 3.276-5.285 3.276-6.45 0l-8.246-23.186c-.353-.993-1.052-1.779-1.934-2.177l-20.6-9.281c-2.91-1.311-2.91-5.948 0-7.259l20.6-9.281c.882-.397 1.581-1.184 1.934-2.177l8.246-23.186c1.165-3.275 5.285-3.275 6.45 0z" fill="#c1e5ef"/><ellipse cx="71.026" cy="155.896" fill="#96b4eb" rx="18.005" ry="18.005" transform="matrix(.383 -.924 .924 .383 -100.184 161.857)"/><ellipse cx="245.166" cy="31.051" fill="#96b4eb" rx="7.767" ry="7.767" transform="matrix(.122 -.993 .993 .122 184.392 270.586)"/><path d="m486.406 297.21 6.117 17.199c.262.736.78 1.32 1.435 1.615l15.281 6.884c2.159.973 2.159 4.412 0 5.385l-15.281 6.884c-.654.295-1.173.878-1.435 1.615l-6.117 17.199c-.864 2.43-3.92 2.43-4.784 0l-6.116-17.199c-.262-.736-.78-1.32-1.435-1.615l-15.281-6.884c-2.159-.973-2.159-4.412 0-5.385l15.281-6.884c.654-.295 1.173-.878 1.435-1.615l6.116-17.199c.864-2.429 3.92-2.429 4.784 0z" fill="#c1e5ef"/></g><g><path d="m502.393 58.443-48.551-48.55c-12.811-12.809-33.653-12.807-46.463 0l-44.989 44.989c-9.165-3.673-18.956-5.826-29.026-6.266-22.139-.964-43.678 6.342-60.653 20.584l-31.86 26.731c-2.481-.748-5.087-1.137-7.752-1.137-7.135 0-13.843 2.778-18.887 7.823l-2.976 2.977c-6.779 6.78-9.141 16.327-7.093 25.039l-195.936 204.371c-11.113 11.592-10.916 30.26.439 41.614l126.315 126.315c5.847 5.846 13.432 8.78 21.027 8.78 7.353 0 14.715-2.751 20.512-8.271l205.135-195.301c2.026.478 4.098.721 6.169.721 6.839 0 13.68-2.604 18.887-7.811l2.976-2.976c5.045-5.046 7.823-11.753 7.823-18.887 0-2.717-.406-5.372-1.183-7.897l26.516-31.214c14.411-16.965 21.85-38.556 20.946-60.796-.415-10.214-2.592-20.14-6.329-29.422l44.952-44.952c12.81-12.811 12.81-33.654.001-46.464zm-339.736 430.46c-3.831 3.646-9.76 3.574-13.5-.167l-126.314-126.315c-3.69-3.69-3.754-9.757-.143-13.523l192.88-201.185 148.973 148.973zm232.815-205.024-2.976 2.976c-2.586 2.588-6.795 2.588-9.381 0l-157.684-157.684c-2.587-2.586-2.587-6.795 0-9.381l2.976-2.976c1.253-1.254 2.919-1.943 4.691-1.943s3.438.689 4.691 1.943l157.684 157.683c1.253 1.253 1.942 2.918 1.942 4.691 0 1.771-.69 3.438-1.943 4.691zm32.051-56.801-23.46 27.618-146.543-146.544 28.095-23.572c27.327-22.927 66.956-21.195 92.179 4.028l45.972 45.972c24.962 24.963 26.613 65.593 3.757 92.498zm60.673-136.368-40.818 40.817c-2.814-3.934-5.946-7.671-9.417-11.143l-45.971-45.972c-3.502-3.502-7.273-6.658-11.246-9.491l40.832-40.832c2.413-2.413 5.622-3.743 9.034-3.743 3.413 0 6.622 1.329 9.035 3.743l48.551 48.551c2.413 2.413 3.743 5.622 3.743 9.035s-1.329 6.621-3.743 9.035z" fill="#3c122c"/><path d="m212.325 197.724c-2.442 0-4.89-.885-6.822-2.677-4.065-3.768-4.306-10.12-.537-14.186l4.154-4.478c3.771-4.062 10.122-4.3 14.186-.529s4.301 10.122.53 14.187l-4.147 4.47c-1.978 2.133-4.667 3.213-7.364 3.213z" fill="#fff"/><path d="m152.496 262.213c-2.443 0-4.892-.886-6.825-2.679-4.064-3.77-4.303-10.121-.532-14.186l37.692-40.628c3.771-4.065 10.121-4.302 14.186-.532 4.064 3.77 4.302 10.122.532 14.186l-37.692 40.628c-1.977 2.132-4.666 3.211-7.361 3.211z" fill="#fff"/><g fill="#3c122c"><path d="m154.971 406.927c-1.542 0-3.083-.588-4.259-1.764-2.352-2.353-2.352-6.166 0-8.518l8.709-8.71c2.352-2.353 6.165-2.352 8.518-.001 2.352 2.353 2.352 6.166 0 8.518l-8.709 8.71c-1.176 1.176-2.717 1.765-4.259 1.765z"/><path d="m202.036 406.54c-1.542 0-3.083-.588-4.259-1.765-2.352-2.352-2.352-6.165 0-8.518l8.709-8.709c2.352-2.351 6.166-2.352 8.518.001 2.352 2.352 2.352 6.165 0 8.518l-8.709 8.709c-1.176 1.176-2.718 1.764-4.259 1.764z"/><path d="m219.01 366.805c-1.542 0-3.083-.588-4.259-1.764-2.352-2.352-2.352-6.165 0-8.518l8.709-8.709c2.352-2.352 6.167-2.351 8.518.001 2.352 2.352 2.352 6.165 0 8.518l-8.709 8.709c-1.176 1.175-2.718 1.763-4.259 1.763z"/></g></g></g></svg>