<svg id="Capa_1" enable-background="new 0 0 512 512" height="512" viewBox="0 0 512 512" width="512" xmlns="http://www.w3.org/2000/svg"><g><g><path d="m307.77 76.449c-4.571 18.613-23.364 29.996-41.977 25.425s-29.996-23.364-25.425-41.977 22.034-24.58 40.647-20.009 31.326 17.948 26.755 36.561z" fill="#d789b9"/><path d="m358.961 155.78c-1.38-12.324-7.912-23.086-17.398-30.083-.963-21.798-18.934-39.176-40.969-39.176h-76.006c-22.036 0-40.007 17.378-40.969 39.176-9.486 6.997-16.018 17.759-17.398 30.083h-14.888l9.105 317.322c.462 16.102 12.11 28.883 26.321 28.883h153.486c14.277 0 25.954-12.897 26.326-29.077l7.28-317.128z" fill="#fff"/><path d="m315.997 462.092h-105.461c-14.206 0-25.85-13.114-26.312-29.633l-6.773-242.259h170.278l-5.414 242.06c-.372 16.599-12.045 29.832-26.318 29.832z" fill="#e8c2d8"/><path d="m180.746 321.134 3.113 111.325c.462 16.519 12.106 29.633 26.312 29.633h105.461c14.273 0 25.946-13.232 26.317-29.832l2.486-111.126z" fill="#d789b9"/><path d="m307.858 155.78-5.833 264.905c-.298 13.516-9.655 24.289-21.095 24.289h-105.075c-10.156 0-18.673-8.495-20.66-19.874l1.377 48.003c.462 16.102 12.11 28.883 26.321 28.883h153.486c14.278 0 25.954-12.898 26.326-29.077l7.279-317.129h-62.126z" fill="#e1bdfc"/><path d="m304.198 321.98-2.173 98.705c-.298 13.515-9.655 24.289-21.096 24.289h-95.842c4.007 5.206 8.216 10.263 12.59 15.178h125.408c6.058-7.407 13.045-13.89 20.216-20.205v-117.967z" fill="#c668b9"/><path d="m345.909 189.022h-38.783l-2.885 131.002h41.668z" fill="#d392d8"/><path d="m440.609 48.277 8.379 23.561c.359 1.009 1.069 1.808 1.965 2.212l20.933 9.431c2.957 1.332 2.957 6.044 0 7.377l-20.933 9.431c-.896.404-1.607 1.203-1.965 2.212l-8.379 23.561c-1.184 3.329-5.37 3.329-6.554 0l-8.379-23.561c-.359-1.009-1.069-1.808-1.965-2.212l-20.933-9.431c-2.957-1.332-2.957-6.044 0-7.377l20.933-9.431c.896-.404 1.606-1.203 1.965-2.212l8.379-23.561c1.184-3.328 5.371-3.328 6.554 0z" fill="#e8c2d8"/><ellipse cx="110.644" cy="80.171" fill="#d789b9" rx="18.296" ry="18.296" transform="matrix(.385 -.923 .923 .385 -5.932 151.443)"/><circle cx="469.327" cy="191.124" fill="#d789b9" r="7.748"/><path d="m64.632 188.476 6.216 17.477c.266.748.793 1.341 1.458 1.641l15.528 6.996c2.194.988 2.194 4.484 0 5.472l-15.528 6.996c-.665.299-1.192.892-1.458 1.641l-6.216 17.477c-.878 2.469-3.983 2.469-4.862 0l-6.216-17.477c-.266-.748-.793-1.341-1.458-1.641l-15.528-6.996c-2.194-.988-2.194-4.484 0-5.472l15.528-6.996c.665-.3 1.192-.893 1.458-1.641l6.216-17.477c.879-2.469 3.984-2.469 4.862 0z" fill="#e8c2d8"/></g><g><g fill="#3c122c"><path d="m381.01 148.781c-1.885-1.928-4.466-3.015-7.162-3.015h-10.913c-2.893-9.134-8.372-17.126-15.572-23.117-2.043-19.69-16.283-35.81-35.014-40.649.485-1.343.911-2.714 1.257-4.12 4.275-17.407-4.214-32.775-21.476-40.523 2.523-7.708 7.578-18.175 17.599-26.793 2.516-2.163 2.802-5.958.638-8.473-2.163-2.516-5.957-2.804-8.473-.638-12.128 10.431-18.195 22.881-21.225 32.196-22.829-4.893-41.249 4.922-46.134 24.814-1.816 7.396-1.525 14.974.742 22.049h-10.688c-24.28 0-44.319 18.497-46.771 42.138-7.201 5.991-12.684 13.981-15.577 23.116h-10.908c-2.705 0-5.296 1.095-7.182 3.035-1.885 1.94-2.905 4.561-2.828 7.266l9.105 317.322c.621 21.65 16.58 38.61 36.331 38.61h153.486c19.876 0 35.837-17.07 36.338-38.861l7.279-317.128c.06-2.695-.968-5.301-2.852-7.229zm-134.807-87.452c3.064-12.478 12.821-16.891 23.21-16.891 3.393 0 6.853.47 10.169 1.285 13.472 3.308 26.418 12.741 22.354 29.292-.471 1.917-1.133 3.754-1.961 5.497h-51.814c-2.854-5.965-3.555-12.675-1.958-19.183zm-21.616 31.2h76.005c14.625 0 27.178 9.017 32.405 21.783-5.354-1.993-11.143-3.084-17.184-3.084h-106.447c-6.039 0-11.825 1.095-17.178 3.086 5.226-12.765 17.773-21.785 32.399-21.785zm-15.221 30.716h106.447c15.339 0 28.542 9.282 34.311 22.521h-175.064c5.768-13.238 18.968-22.521 34.306-22.521zm147.191 349.434c-.244 10.638-7.563 19.293-16.314 19.293h-153.486c-8.69 0-16.008-8.593-16.311-19.157l-8.81-307.02h201.965z"/><path d="m210.536 467.229h105.461c17.678 0 31.876-15.683 32.324-35.706l5.414-242.061c.036-1.617-.581-3.179-1.711-4.335s-2.679-1.807-4.296-1.807h-170.277c-1.622 0-3.176.656-4.307 1.82-1.131 1.163-1.744 2.734-1.699 4.357l6.773 242.259c.556 19.892 14.752 35.473 32.318 35.473zm125.772-35.973c-.295 13.21-9.406 23.957-20.31 23.957h-105.462c-10.83 0-19.939-10.673-20.306-23.792l-2.915-104.278h151.322zm5.276-235.919-2.679 119.788h-151.926l-3.349-119.788z"/><path d="m235.652 392.235c-11.913 0-21.604-9.691-21.604-21.604s9.691-21.605 21.604-21.605 21.604 9.691 21.604 21.605c0 11.913-9.691 21.604-21.604 21.604zm0-31.191c-5.286 0-9.587 4.301-9.587 9.588 0 5.286 4.301 9.587 9.587 9.587s9.587-4.301 9.587-9.587c0-5.287-4.301-9.588-9.587-9.588z"/><ellipse cx="300.198" cy="387.61" rx="8.817" ry="8.817" transform="matrix(.16 -.987 .987 .16 -130.389 622.035)"/><ellipse cx="270.402" cy="419.838" rx="8.817" ry="8.817" transform="matrix(.229 -.974 .974 .229 -200.182 586.967)"/></g><path d="m209.985 289.843c-5.464 0-9.932-4.389-10.01-9.871l-.365-25.532c-.079-5.53 4.341-10.077 9.87-10.156 5.54-.115 10.077 4.34 10.156 9.87l.365 25.532c.079 5.529-4.34 10.077-9.87 10.156-.048.001-.097.001-.146.001z" fill="#fff"/><path d="m209.215 235.934c-5.463 0-9.93-4.388-10.01-9.868l-.049-3.437c-.08-5.53 4.338-10.079 9.868-10.159.049-.001.099-.001.148-.001 5.463 0 9.931 4.388 10.01 9.868l.049 3.437c.08 5.53-4.338 10.079-9.868 10.159-.049.001-.099.001-.148.001z" fill="#fff"/></g></g></svg>