<svg id="Capa_1" enable-background="new 0 0 512 512" height="512" viewBox="0 0 512 512" width="512" xmlns="http://www.w3.org/2000/svg"><g><g><path d="m214.916 501.912h-163.616c-15.149 0-27.566-16.221-28.058-36.655l-9.706-402.71h237.204l-7.76 402.464c-.396 20.533-12.844 36.901-28.064 36.901z" fill="#fff"/><path d="m184.513 62.546-6.218 336.188c-.317 17.152-10.292 30.825-22.488 30.825h-112.01c-10.827 0-19.905-10.782-22.023-25.222l1.468 60.92c.492 20.434 12.909 36.655 28.058 36.655h163.616c15.22 0 27.667-16.368 28.064-36.902l7.76-402.464h-66.227z" fill="#e1bdfc"/><path d="m340.793 239.888c-53.946 0-100.269 32.609-120.353 79.186l3.617-192.513h-181.517l7.22 307.448c.492 20.964 12.905 37.606 28.049 37.606h112.422c15.215 0 27.658-16.793 28.054-37.859l.293-15.584c18.964 48.992 66.529 83.738 122.215 83.738 72.356 0 131.012-58.656 131.012-131.012s-58.657-131.01-131.012-131.01z" fill="#e8a284"/><path d="m340.793 239.888c-36.178 0-68.931 14.664-92.639 38.372 18.463-18.462 43.969-29.882 72.142-29.882 56.346 0 102.023 45.678 102.023 102.023s-45.677 102.024-102.023 102.024c-50.852 0-93.009-37.206-100.748-85.88l.678-36.085c3.833-19.342 13.127-36.719 26.217-50.448-10.86 11.271-19.716 24.482-26.003 39.062l3.617-192.513h-40.727l-5.034 272.172c-.317 17.152-10.292 30.825-22.488 30.825h-106.152l.104 4.451c.492 20.964 12.905 37.606 28.049 37.606h112.422c15.215 0 27.658-16.793 28.054-37.859l.293-15.584c18.964 48.992 66.529 83.738 122.215 83.738 72.356 0 131.012-58.656 131.012-131.012s-58.657-131.01-131.012-131.01z" fill="#d57b84"/><path d="m318.747 238.183c-1.472-15.691-5.142-34.389-5.861-41.67-.672-6.811 3.644-12.668 10.315-12.668 6.672 0 10.475 5.641 12.08 12.08 2.489 10.658 4.433 26.241 4.856 40.448" fill="#c49a8b"/><path d="m478.341 284.466c-7.259-14.875-20.207-35.702-40.059-48.46 10.05-9.368 17.386-20.561 22.174-29.326 4.253-7.785.366-18.351-7.918-21.523-15.53-5.948-40.8-12.456-63.682-4.038-30.43 11.195-46.966 45.225-51.496 55.878-1.955.882-3.03 1.431-3.03 1.431s16.913 54.543 58.698 72.137c26.37 11.104 56.343 4.838 74.87-1.296 9.881-3.272 15.008-15.448 10.443-24.803z" fill="#a1e8c3"/><path d="m411.969 226.378c9.81 2.938 19.731 5.985 28.93 10.216 10.294-9.642 17.815-21.127 22.733-30.13 4.391-8.038.378-18.948-8.176-22.224-16.036-6.141-35.45-4.438-23.531-1.207 6.358 1.723 8.433 12.893 4.708 18.325-5.112 7.455-13.386 17.506-24.664 25.02z" fill="#85adc2"/><path d="m481.578 286.016c-8.837-18.11-26.855-32.195-19.218-19.88 4.074 6.569-3.09 17.812-10.636 19.489-14.146 3.144-37.231 5.757-58.439-3.173-25.335-10.668-43.799-30.731-51.355-39.962-2.173.976-4.342 1.962-6.505 2.959 6.228 15.64 24.265 53.283 58.064 67.516 27.228 11.465 58.176 4.995 77.305-1.338 10.204-3.379 15.498-15.951 10.784-25.611z" fill="#85adc2"/><ellipse cx="489.848" cy="90.112" fill="#e8a284" rx="18.704" ry="18.704" transform="matrix(.16 -.987 .987 .16 322.434 559.2)"/><path d="m401.826 100.217c0 4.456-3.612 8.068-8.068 8.068s-8.068-3.612-8.068-8.068 3.612-8.068 8.068-8.068 8.068 3.612 8.068 8.068z" fill="#e8a284"/><path d="m326.398 1.893 6.354 17.866c.272.765.811 1.371 1.49 1.677l15.874 7.152c2.242 1.01 2.242 4.583 0 5.594l-15.874 7.152c-.68.306-1.218.912-1.49 1.677l-6.354 17.866c-.898 2.524-4.072 2.524-4.97 0l-6.354-17.866c-.272-.765-.81-1.371-1.49-1.677l-15.873-7.152c-2.243-1.01-2.243-4.583 0-5.594l15.873-7.152c.68-.306 1.218-.912 1.49-1.677l6.354-17.866c.897-2.524 4.072-2.524 4.97 0z" fill="#efc5b4"/></g><g><g fill="#fff"><path d="m77.806 302.14c-5.515 0-10.018-4.438-10.084-9.968l-.813-68.295c-.067-5.571 4.396-10.141 9.967-10.207.041-.001.082-.001.123-.001 5.515 0 10.018 4.438 10.084 9.968l.813 68.295c.067 5.571-4.396 10.141-9.967 10.207-.042.001-.082.001-.123.001z"/><path d="m76.474 190.165c-5.516 0-10.02-4.438-10.085-9.968l-.208-17.504c-.066-5.571 4.396-10.141 9.967-10.207.041-.001.082-.001.122-.001 5.516 0 10.02 4.438 10.085 9.968l.208 17.504c.066 5.571-4.396 10.141-9.967 10.207-.042.001-.082.001-.122.001z"/><path d="m297.759 289.55c-3.784 0-7.411-2.139-9.131-5.788-2.376-5.04-.217-11.051 4.822-13.426 1.369-.645 2.763-1.268 4.145-1.85 5.131-2.16 11.049.244 13.214 5.38 2.162 5.135-.245 11.05-5.38 13.214-1.124.473-2.259.98-3.374 1.505-1.391.654-2.856.965-4.296.965z"/><path d="m246.143 345.687c-1.2 0-2.42-.216-3.608-.671-5.202-1.993-7.804-7.827-5.81-13.029 5.342-13.943 13.636-27.053 23.985-37.913 3.131-3.286 6.486-6.409 9.973-9.279 4.301-3.542 10.66-2.925 14.2 1.375 3.542 4.301 2.926 10.659-1.375 14.2-2.862 2.356-5.617 4.92-8.19 7.621-8.525 8.947-15.355 19.741-19.752 31.215-1.54 4.014-5.365 6.481-9.423 6.481z"/></g><path d="m487.833 303.065c3.182-7.555 3.026-15.948-.427-23.023 0-.001 0-.001 0-.001-7.022-14.388-17.999-31.982-33.927-45.345 6.628-7.742 11.866-15.926 15.83-23.179 3.422-6.266 3.917-13.851 1.355-20.812-2.56-6.959-7.853-12.415-14.519-14.968-18.3-7.008-45.434-13.41-70.773-4.085-18.64 6.858-32.471 20.917-42.024 34.233-.649-4.096-1.386-7.962-2.194-11.422-2.602-10.438-9.312-16.669-17.953-16.669-4.645 0-8.887 1.859-11.945 5.235-3.315 3.658-4.917 8.79-4.394 14.08.302 3.066 1.037 7.665 1.969 13.49 1.061 6.636 2.321 14.547 3.236 22.152-20.251 4.205-38.923 12.767-54.996 24.653l3.753-194.661c.052-2.708-.987-5.324-2.884-7.258s-4.492-3.023-7.201-3.023h-237.203c-2.718 0-5.321 1.096-7.218 3.041-1.898 1.945-2.932 4.573-2.867 7.29l9.707 402.71c.628 26.075 17.383 46.499 38.143 46.499h163.616c16.846 0 30.99-13.38 36.102-32.322 24.41 20.179 55.7 32.32 89.773 32.32 77.802 0 141.1-63.297 141.1-141.1 0-18.481-3.585-36.136-10.075-52.326 7.13-2.603 12.943-8.21 16.016-15.509zm-95.493-112.48c20.486-7.538 44.25-.735 56.589 3.993h.001c1.212.464 2.259 1.62 2.801 3.093.542 1.474.495 3.034-.127 4.172-3.187 5.833-8.247 13.934-15.085 21.508-1.838-.943-3.72-1.83-5.655-2.645-11.663-4.91-23.83-6.806-35.518-6.897 6.134-1.98 12.851-3.45 20.174-4.103 3.33-.298 5.788-3.237 5.491-6.567-.297-3.329-3.23-5.778-6.567-5.491-23.523 2.097-41.475 11.315-54.016 20.677-.472.12-.938.242-1.403.365 7.726-11.063 18.802-22.766 33.315-28.105zm-72.112.57c.756-.834 1.757-1.257 2.974-1.257 3.776 0 5.51 4.694 6.186 7.404 1.922 8.232 3.466 19.442 4.238 30.304-2.216.995-3.572 1.678-3.892 1.842-.515.264-.989.576-1.439.913-1.431.126-2.857.272-4.276.441-.934-7.673-2.177-15.512-3.233-22.117-.864-5.401-1.61-10.064-1.877-12.767-.187-1.896.294-3.632 1.319-4.763zm-87.334 273.661c-.283 14.639-8.516 27.008-17.978 27.008h-163.616c-9.392 0-17.622-12.278-17.973-26.811l-9.457-392.379h216.586l-3.92 203.303c-3.811 4.18-7.368 8.592-10.661 13.206l3.073-163.572c.031-1.624-.594-3.193-1.732-4.352-1.138-1.16-2.695-1.814-4.32-1.814h-181.516c-1.629 0-3.191.657-4.33 1.824-1.139 1.165-1.76 2.742-1.721 4.371l7.22 307.448c.573 24.403 15.551 43.518 34.1 43.518h112.421c15.132 0 27.842-12.649 32.357-30.526 3.485 5.515 7.334 10.777 11.526 15.743zm-19.525-154.478c-8.764 18.359-13.676 38.896-13.676 60.561 0 19.788 4.103 38.632 11.491 55.739l-.111 5.9c-.331 17.602-10.201 31.921-22.003 31.921h-112.421c-11.719 0-21.587-14.219-21.998-31.696l-7.074-301.253h169.151zm127.423 181.486c-66.677 0-120.924-54.247-120.924-120.925 0-62.393 47.503-113.886 108.24-120.247 7.146 17.406 25.934 54.443 61.004 69.21 11.924 5.02 24.365 6.924 36.382 6.924 9.305 0 18.352-1.146 26.71-2.869 6.118 14.451 9.512 30.326 9.512 46.98 0 66.681-54.246 120.927-120.924 120.927zm128.447-196.589c-.921 2.189-2.566 3.814-4.513 4.458-18.266 6.048-44.854 11.231-67.784 1.575-23.275-9.8-38.22-33.281-46.113-49.379 16.492-1.077 47.825.621 76.743 23.163 1.105.861 2.415 1.279 3.717 1.279 1.801 0 3.584-.801 4.778-2.332 2.055-2.636 1.584-6.44-1.053-8.495-27.127-21.146-55.668-25.876-75.055-26.073 17.084-5.054 41.745-9.11 63.075-.13 22.929 9.655 37.802 32.296 46.241 49.588.899 1.844.886 4.156-.036 6.346z" fill="#3c122c"/><path d="m262.476 436.358c-3.342 0-6.053-2.71-6.053-6.053v-7.226c0-3.343 2.71-6.053 6.053-6.053s6.053 2.71 6.053 6.053v7.226c-.001 3.343-2.711 6.053-6.053 6.053z" fill="#3c122c"/><path d="m241.553 413.591c-3.343 0-6.053-2.71-6.053-6.053v-7.226c0-3.343 2.71-6.053 6.053-6.053 3.342 0 6.053 2.71 6.053 6.053v7.226c0 3.343-2.71 6.053-6.053 6.053z" fill="#3c122c"/><path d="m260.176 397.131c-3.343 0-6.053-2.71-6.053-6.053v-7.226c0-3.343 2.71-6.053 6.053-6.053s6.053 2.71 6.053 6.053v7.226c0 3.343-2.71 6.053-6.053 6.053z" fill="#3c122c"/></g></g></svg>