<svg id="Capa_1" enable-background="new 0 0 512 512" height="512" viewBox="0 0 512 512" width="512" xmlns="http://www.w3.org/2000/svg"><g><g><path clip-rule="evenodd" d="m137.539 202.735h324.081c0-48.896-42.715-39.776-57.026-68.757-19.283-39.007-83.451-49.611-108.915-15.548-6.126 6.95-18.432 20.081-63.097 11.043-42.302-8.544-98.421 36.122-95.043 73.262z" fill="#eb5468" fill-rule="evenodd"/></g><g><path clip-rule="evenodd" d="m299.086 114.391c26.865-2.06 56.861 11.235 69.003 35.821 12.471 25.245 46.478 21.591 55.048 52.522h38.484c0-48.896-42.715-39.776-57.026-68.757-18.487-37.386-78.178-48.676-105.509-19.586z" fill="#e5384f" fill-rule="evenodd"/></g><g><path clip-rule="evenodd" d="m495.271 93.487-33.65 109.248-40.435 27.47-35.93-27.47 57.548-132.955c10.741-24.833 66.201-20.795 52.467 23.707z" fill="#d87e49" fill-rule="evenodd"/></g><g><path clip-rule="evenodd" d="m133.034 202.735h352.787c10.273 0 18.679 8.406 18.679 18.68v90.211c0 59.912-49.005 108.918-108.915 108.918h-172.314c-38.374 0-72.271-20.108-91.692-50.325-10.878-16.949 9.312-43.375 7.801-64.857l-4.093-58.731-20.932-25.217c-6.537-7.911 8.406-18.679 18.679-18.679z" fill="#ffd772" fill-rule="evenodd"/></g><g><path clip-rule="evenodd" d="m7.5 244.104c54.554-18.57 78.589 12.828 118.118 43.128l9.669 18.13-19.586.659c-50.845-10.383-84.358-7.032-108.201-61.917z" fill="#dfa7d2" fill-rule="evenodd"/></g><g><path clip-rule="evenodd" d="m99.33 326.157c-.44 2.472-.192 4.752.852 6.675 1.538 2.857 4.615 4.505 8.57 4.945-34.447 26.398-52.686 46.699-101.252 30.189 23.843-54.885 57.356-51.534 108.201-61.945-9.065 5.659-15.218 13.543-16.371 20.136z" fill="#dfa7d2" fill-rule="evenodd"/></g><g><path clip-rule="evenodd" d="m139.05 154.635c-40.599 45.875-23.706 70.625-12.059 124.027 1.044-3.461 2.472-6.4 4.175-8.653 2.225-2.994 4.917-4.725 7.801-4.725 6.29 0 10.026 6.263 12.032 13.845 11.675-53.539 28.733-78.537-11.949-124.494z" fill="#dfa7d2" fill-rule="evenodd"/></g><g><path clip-rule="evenodd" d="m270.6 244.104c-54.581-18.57-78.589 12.828-118.118 43.128l-9.669 18.13 19.586.659c50.818-10.383 84.358-7.032 108.201-61.917z" fill="#dfa7d2" fill-rule="evenodd"/></g><g><path clip-rule="evenodd" d="m178.771 326.157c.44 2.472.192 4.752-.852 6.675-1.566 2.857-4.642 4.505-8.57 4.945 34.419 26.399 52.658 46.699 101.251 30.189-23.843-54.885-57.383-51.534-108.201-61.945 9.065 5.659 15.19 13.543 16.372 20.136z" fill="#dfa7d2" fill-rule="evenodd"/></g><g><path clip-rule="evenodd" d="m131.414 163.865c17.361 9.45 15.767 76.751 12.636 103.04 3.324 2.335 5.576 6.95 6.95 12.224 11.674-53.539 28.733-78.537-11.949-124.494-2.803 3.186-5.357 6.263-7.637 9.23z" fill="#d691c6" fill-rule="evenodd"/></g><g><path clip-rule="evenodd" d="m138.83 314.372c-3.461 3.544-7.472 16.784-11.839 19.064-11.674 53.402-28.54 78.124 12.059 123.999 40.572-45.847 23.733-70.543 12.086-123.917-1.071-.549-1.071-10.658-3.324-12.032s-6.454-4.559-8.982-7.114z" fill="#dfa7d2" fill-rule="evenodd"/></g><g><path clip-rule="evenodd" d="m162.042 305.802c-3.186-1.95-6.428-3.434-9.559-4.478 1.566-10.576-.852-36.041-13.515-36.041-7.774 0-14.064 12.581-14.064 28.102 0 2.665.165 5.329.549 7.939-3.104 1.044-6.345 2.527-9.532 4.478-12.663 7.774-19.778 19.861-15.877 27.03 3.873 7.142 17.306 6.675 29.941-1.099 3.461-2.115 6.483-4.533 8.982-7.115 2.527 2.582 5.549 5 8.982 7.115 12.663 7.774 26.068 8.241 29.969 1.099 3.874-7.169-3.213-19.256-15.876-27.03z" fill="#ffd772" fill-rule="evenodd"/></g><g><path clip-rule="evenodd" d="m138.968 265.284c-2.884 0-5.576 1.731-7.801 4.725 11.647 19.366 7.581 54.83 7.801 54.61 2.527 2.582 5.549 5 8.982 7.115 12.663 7.774 26.068 8.241 29.969 1.099 3.873-7.17-3.214-19.256-15.877-27.03-3.186-1.95-6.428-3.434-9.559-4.478 1.565-10.577-.852-36.041-13.515-36.041z" fill="#fbba58" fill-rule="evenodd"/></g><g><path clip-rule="evenodd" d="m169.349 337.777c34.419 26.399 52.658 46.699 101.251 30.189-1.346-3.077-2.692-5.961-4.093-8.68-37.688-.687-57.301-12.664-89.302-25.382-1.676 2.197-4.45 3.488-7.856 3.873z" fill="#d691c6" fill-rule="evenodd"/></g><g><path clip-rule="evenodd" d="m128.062 443.591c3.077 4.423 6.702 9.01 10.988 13.845 40.572-45.847 23.733-70.543 12.086-123.917-1.071-.549-2.115-1.126-3.186-1.786-1.373-.852-2.692-1.758-3.928-2.692-1.346-1.016-1.566 97.161-15.96 114.55z" fill="#d691c6" fill-rule="evenodd"/></g><g><path clip-rule="evenodd" d="m162.399 306.022c50.818-10.384 84.358-7.032 108.201-61.917-5.933-2.033-11.51-3.461-16.784-4.34-21.618 27.579-100.317 62.466-91.417 66.257z" fill="#d691c6" fill-rule="evenodd"/></g><g><path clip-rule="evenodd" d="m21.427 371.894c27.277-31.233 52.906-37.002 81.281-53.841 2.884-4.285 7.307-8.543 12.773-11.977-50.708 10.356-84.166 7.06-107.981 61.89 4.917 1.676 9.559 2.967 13.927 3.928z" fill="#d691c6" fill-rule="evenodd"/></g><g><path clip-rule="evenodd" d="m13.955 257.18c51.834-.797 99.658 34.063 110.948 36.205 0-2.198.11-4.34.357-6.428-39.308-30.217-63.343-61.367-117.76-42.853 2.06 4.78 4.23 9.12 6.455 13.076z" fill="#d691c6" fill-rule="evenodd"/></g><g><path clip-rule="evenodd" d="m442.118 221.414v90.211c0 23.542-7.582 45.408-20.41 63.263 16.976-1.703 28.623 7.582 38.732 20.053.687.852 1.401 1.621 2.17 2.39 17.525-13.762 30.765-32.744 37.303-54.555 2.967-9.889 4.587-20.328 4.587-31.151v-90.211c0-4.67-1.731-8.928-4.587-12.197-3.406-3.983-8.488-6.483-14.092-6.483h-24.2-38.182c10.273.001 18.679 8.406 18.679 18.68z" fill="#fbba58" fill-rule="evenodd"/></g><g><path clip-rule="evenodd" d="m462.72 93.487-21.344 69.224-12.334 40.024h32.578l33.65-109.248c11.07-35.931-22.909-45.49-42.083-34.777 9.395 5.576 15.026 16.921 9.533 34.777z" fill="#c86d35" fill-rule="evenodd"/></g><g><path clip-rule="evenodd" d="m487.414 430.213h-226.263c-.137-34.695 53.922-52.138 82.215-42.853 32.771 10.796 45.462 1.099 50.791-2.115 33.348-20.053 51.477-8.571 66.283 9.697 11.592 14.284 33.732 13.13 26.974 35.271z" fill="#eb5468" fill-rule="evenodd"/></g><g><path clip-rule="evenodd" d="m417.423 394.942c6.428 7.939 16.152 11.125 22.332 16.18 4.944 4.038 7.636 9.285 4.642 19.092h43.017c6.345-20.822-12.856-21.042-24.805-32.909-.769-.742-1.483-1.511-2.17-2.362-10.109-12.471-21.756-21.756-38.732-20.053-5.741.577-12.114 2.445-19.228 5.851 5.522 3.625 10.384 8.597 14.944 14.201z" fill="#e5384f" fill-rule="evenodd"/></g><g><path d="m323.617 168.432c6.757 0 13.509-2.507 18.92-7.533 3.035-2.819 3.21-7.564.391-10.599-2.818-3.035-7.564-3.21-10.599-.391-5.828 5.413-13.331 3.984-17.729-.226-2.993-2.864-7.741-2.76-10.604.234-2.864 2.993-2.759 7.74.234 10.604 5.507 5.27 12.449 7.911 19.387 7.911z"/><path d="m512 311.625v-90.211c0-14.435-11.744-26.179-26.179-26.179h-14.042l30.659-99.536c8.025-26.003-4.363-40.899-18.632-46.169-16.829-6.216-40.086-.757-47.883 17.271l-26.28 60.716c-11.557-20.348-34.587-34.309-61.025-36.732-24.274-2.228-46.212 6.332-58.754 22.902-2.472 2.801-6.316 6.979-14.651 9.411-5.4-22.596-14.292-46.453-23.999-63.181-2.08-3.582-6.668-4.8-10.251-2.722-3.583 2.079-4.801 6.669-2.722 10.251 8.691 14.975 16.88 36.865 21.99 57.589-6.937.059-15.496-.756-26.162-2.915-11.588-2.336-23.64-1.214-35.23 2.262-10.311-9.973-21.604-16.896-31.937-18.893-4.068-.786-8 1.874-8.787 5.94-.786 4.067 1.874 8.001 5.94 8.787 5.527 1.068 12.329 4.623 19.282 10.303-12.948 6.379-24.653 15.348-33.603 25.122-1.588-1.962-3.272-3.953-5.065-5.978-1.424-1.608-3.468-2.529-5.616-2.529s-4.192.921-5.616 2.529c-36.455 41.192-29.423 68.486-19.692 106.263 1.274 4.946 2.576 10.006 3.856 15.339-1.585-1.294-3.157-2.583-4.709-3.857-30.995-25.452-57.764-47.432-107.805-30.405-1.983.675-3.594 2.149-4.442 4.065-.848 1.917-.856 4.1-.021 6.022 18.293 42.136 42.948 52.668 73.471 58.943-30.517 6.278-55.17 16.818-73.47 58.944-.835 1.922-.828 4.107.021 6.023.848 1.917 2.46 3.391 4.444 4.066 12.901 4.385 23.953 6.288 33.781 6.288 26.454 0 44.019-13.793 64.759-30.081 2.438-1.914 4.966-3.891 7.551-5.891 1.755-.017 3.571-.183 5.426-.498-.954 3.846-1.913 7.567-2.856 11.225-9.745 37.784-16.786 65.083 19.687 106.295 1.423 1.608 3.468 2.529 5.616 2.529s4.193-.921 5.617-2.53c15.544-17.564 23.177-32.599 26.07-46.996 16.23 8.287 34.176 12.634 52.534 12.634h30.441c-.036.73-.064 1.461-.061 2.199.017 4.13 3.37 7.47 7.5 7.47h75.732c4.142 0 7.5-3.358 7.5-7.5s-3.358-7.5-7.5-7.5h-67.098c.003-.01.005-.02.007-.029 2.412-7.629 8.223-13.281 13.294-16.969 15.8-11.491 41.793-16.528 57.933-11.231 34.318 11.304 49.625 1.776 56.163-2.292.304-.189.585-.365.84-.519 28.055-16.872 42.454-9.45 56.594 7.996 4.921 6.063 11.021 9.61 16.402 12.738 7.144 4.153 10.177 6.124 10.213 10.307h-110.785c-4.142 0-7.5 3.358-7.5 7.5s3.358 7.5 7.5 7.5h116.964c3.299 0 6.21-2.156 7.173-5.311 6.129-20.082-6.679-27.528-16.03-32.964-1.353-.786-2.716-1.586-4.053-2.421 23.938-22.057 37.496-52.679 37.496-85.39zm-62.312-238.868c4.166-9.633 18.965-12.833 28.92-9.157 10.441 3.856 13.813 13.685 9.496 27.674 0 .001-.001.003-.001.004l-32.02 103.956h-59.408zm-310.638 93.525c24.886 31.297 19.689 51.442 10.726 86.174-.67 2.597-1.348 5.229-2.027 7.912-2.641-1.695-5.608-2.583-8.782-2.583-3.08 0-5.971.962-8.573 2.721-.728-2.888-1.444-5.67-2.126-8.32-8.909-34.585-14.076-54.643 10.782-85.904zm-44.689 173.195c-25.823 20.28-42.128 33.08-76.412 23.846 17.921-35.494 40.522-39.569 76.366-45.752-3.333 6.626-3.846 13.354-.864 18.836.48.886 1.049 1.703 1.677 2.469-.255.2-.514.403-.767.601zm.518-44.885c-36.17-6.235-58.908-10.152-76.914-45.806 36.956-9.565 57.574 7.363 85.405 30.216 4.53 3.72 9.201 7.545 14.108 11.396-.045.984-.074 1.977-.074 2.987 0 1.039.023 2.065.068 3.075-1.085.509-2.156 1.067-3.218 1.652-6.762-1.335-13.173-2.451-19.375-3.52zm13.295 35.491c-.786-.21-1.375-.527-1.542-.835-1.059-1.946 2.261-10.331 13.204-17.049 2.582-1.58 5.276-2.847 8.007-3.766 3.44-1.157 5.558-4.611 5.029-8.202-.312-2.114-.469-4.418-.469-6.846 0-13.312 5.022-20.229 6.564-20.602.241 0 .69 0 1.519.96 4.208 4.876 5.655 19.203 4.578 26.481-.533 3.6 1.595 7.063 5.047 8.214 2.727.909 5.421 2.172 8.007 3.754 10.939 6.716 14.258 15.119 13.219 17.044-.172.315-.758.632-1.566.848-3.531.939-10.434-.162-17.886-4.737-2.855-1.759-5.397-3.769-7.556-5.975-1.411-1.442-3.343-2.254-5.36-2.254-.007 0-.014 0-.021 0-2.024.006-3.961.83-5.369 2.284-2.115 2.185-4.64 4.181-7.522 5.943-7.451 4.583-14.349 5.682-17.883 4.738zm75.449-12.539c35.944 6.202 58.58 10.231 76.528 45.778-34.318 9.239-50.618-3.568-76.438-23.859-.272-.214-.546-.43-.821-.646.008-.009.001-.024.006-.034.601-.743 1.152-1.531 1.619-2.386 2.968-5.493 2.443-12.227-.894-18.853zm-.455-22.956c-6.227 1.072-12.663 2.189-19.454 3.53-1.102-.607-2.213-1.186-3.34-1.71.046-1.772.025-3.714-.08-5.751 5.033-3.942 9.817-7.858 14.455-11.666 27.826-22.846 48.438-39.77 85.384-30.206-18.022 35.663-40.772 39.575-76.965 45.803zm-44.118 151.2c-24.876-31.28-19.7-51.339-10.778-85.931 1.755-6.807 3.564-13.818 5.315-21.541.103-.062 1.961-1.222 2.758-1.767.904-.617 1.782-1.256 2.633-1.915.841.651 1.707 1.283 2.597 1.895.798.548 2.798 1.796 2.97 1.9 1.763 7.774 3.627 15.014 5.295 21.495 8.901 34.563 14.064 54.608-10.79 85.864zm251.233-66.965c-.318.192-.661.404-1.029.634-5.157 3.21-15.888 9.889-43.55.777-20.856-6.845-51.568-1.104-71.441 13.351-7.758 5.643-13.4 12.218-16.803 19.459h-34.189c-18.039 0-35.625-4.818-51.117-13.958-.259-13.66-3.794-27.397-7.786-42.902-.946-3.673-1.907-7.41-2.863-11.273 1.855.307 3.671.469 5.424.478 2.574 1.992 5.09 3.96 7.516 5.868 20.74 16.299 38.298 30.101 64.772 30.1 9.83 0 20.891-1.904 33.796-6.288 1.985-.674 3.597-2.149 4.445-4.066.849-1.917.856-4.101.021-6.024-18.305-42.136-42.967-52.669-73.498-58.948 30.53-6.269 55.193-16.802 73.498-58.938.835-1.922.828-4.106-.02-6.022-.848-1.917-2.459-3.391-4.443-4.066-50.034-17.023-76.797 4.951-107.786 30.393-1.558 1.279-3.136 2.572-4.726 3.871 1.261-5.231 2.543-10.201 3.798-15.065 4.301-16.666 8.076-31.3 7.859-45.969h93.495c4.142 0 7.5-3.358 7.5-7.5s-3.358-7.5-7.5-7.5h-95.227c-1.928-8.67-5.594-17.588-11.687-27.159 9.088-10.706 22.049-20.413 36.017-26.303 5.961 6.96 11.564 15.408 16.042 25.122 1.265 2.745 3.979 4.362 6.816 4.362 1.05 0 2.118-.222 3.135-.691 3.762-1.734 5.406-6.189 3.671-9.951-3.888-8.434-8.804-16.424-14.329-23.59 7.124-1.38 14.243-1.564 21.002-.202 13.014 2.633 23.586 3.523 32.306 3.181.674 3.856 1.211 7.595 1.579 11.147.4 3.857 3.656 6.726 7.451 6.726.259 0 .521-.013.784-.041 4.12-.428 7.113-4.114 6.686-8.234-.39-3.759-.944-7.684-1.636-11.714 11.092-2.981 17.858-8.618 23.042-14.5.133-.151.26-.307.38-.468 9.364-12.527 26.4-18.957 45.561-17.198 22.279 2.042 42.15 14.438 50.619 31.568 1.243 2.524 2.731 4.92 4.445 7.162l-21.981 50.782h-80.75c-4.142 0-7.5 3.358-7.5 7.5s3.358 7.5 7.5 7.5h186.241c6.164 0 11.179 5.015 11.179 11.179v90.211c0 28.89-12.161 55.916-33.588 75.2-14.468-16.526-35.886-30.401-73.131-8.001z"/></g></g></svg>