<svg id="basil" enable-background="new 0 0 300 300" height="512" viewBox="0 0 300 300" width="512" xmlns="http://www.w3.org/2000/svg"><g><circle cx="170" cy="128" fill="#fff0fd" r="92"/><path d="m74 252c-6.617 0-12-5.383-12-12s5.383-12 12-12 12 5.383 12 12-5.383 12-12 12zm0-16c-2.205 0-4 1.795-4 4s1.795 4 4 4 4-1.795 4-4-1.795-4-4-4z" fill="#4c241d"/><circle cx="42.397" cy="214.093" fill="#4c241d" r="4.276"/><path d="m238 92c-1.023 0-2.047-.391-2.828-1.172l-12-12c-1.562-1.562-1.562-4.094 0-5.656s4.094-1.562 5.656 0l12 12c1.562 1.562 1.562 4.094 0 5.656-.781.781-1.805 1.172-2.828 1.172z" fill="#4c241d"/><path d="m226 92c-1.023 0-2.047-.391-2.828-1.172-1.562-1.562-1.562-4.094 0-5.656l12-12c1.562-1.562 4.094-1.562 5.656 0s1.562 4.094 0 5.656l-12 12c-.781.781-1.805 1.172-2.828 1.172z" fill="#4c241d"/><circle cx="246.397" cy="50.093" fill="#4c241d" r="4.276"/><g><path d="m190 108.125c0-29.823-40-64.125-40-64.125-4 0-40 34.302-40 64.125s36 43.875 40 43.875 40-14.052 40-43.875z" fill="#a9ba5a"/><path d="m150 156c-5.1 0-44-15.344-44-47.875 0-30.684 36.244-68.125 44-68.125.955 0 1.879.342 2.604.963 1.691 1.449 41.396 35.859 41.396 67.162 0 32.531-38.9 47.875-44 47.875zm-.633-107.191c-7.939 5.775-35.367 34.212-35.367 59.316 0 26.795 33.221 39.559 36.148 39.881 2.631-.322 35.852-13.086 35.852-39.881 0-23.963-28.758-52.07-36.633-59.316z" fill="#4c241d"/></g><g><path d="m190 195.875c0 29.823-40 64.125-40 64.125-4 0-40-34.302-40-64.125s36-43.875 40-43.875 40 14.052 40 43.875z" fill="#a9ba5a"/><path d="m150 264c-7.756 0-44-37.441-44-68.125 0-32.531 38.9-47.875 44-47.875s44 15.344 44 47.875c0 31.303-39.705 65.713-41.396 67.162-.725.621-1.649.963-2.604.963zm0-4h.041zm-.148-104.006c-2.631.322-35.852 13.086-35.852 39.881 0 25.104 27.428 53.541 35.367 59.316 7.875-7.246 36.633-35.354 36.633-59.316 0-26.795-33.221-39.559-36.148-39.881z" fill="#4c241d"/></g><g><path d="m197.875 192c29.823 0 64.125-40 64.125-40 0-4-34.302-40-64.125-40s-43.875 36-43.875 40 14.051 40 43.875 40z" fill="#a9ba5a"/><path d="m197.875 196c-32.531 0-47.875-38.9-47.875-44s15.344-44 47.875-44c30.684 0 68.125 36.244 68.125 44 0 .955-.342 1.879-.963 2.604-1.451 1.691-35.861 41.396-67.162 41.396zm0-80c-26.795 0-39.559 33.221-39.881 36.148.322 2.631 13.086 35.852 39.881 35.852 23.963 0 52.07-28.758 59.316-36.633-5.775-7.939-34.212-35.367-59.316-35.367z" fill="#4c241d"/></g><g><path d="m102.125 192c-29.823 0-64.125-40-64.125-40 0-4 34.302-40 64.125-40s43.875 36 43.875 40-14.052 40-43.875 40z" fill="#a9ba5a"/><path d="m102.125 196c-31.303 0-65.713-39.705-67.162-41.396-.621-.725-.963-1.649-.963-2.604 0-7.756 37.441-44 68.125-44 32.531 0 47.875 38.9 47.875 44s-15.344 44-47.875 44zm-59.316-44.633c7.246 7.875 35.353 36.633 59.316 36.633 26.795 0 39.559-33.221 39.881-36.148-.322-2.631-13.086-35.852-39.881-35.852-25.104 0-53.541 27.428-59.316 35.367z" fill="#4c241d"/></g><g><path d="m174 124.375c0-18.778-24-40.375-24-40.375-2.4 0-24 21.597-24 40.375s21.6 27.625 24 27.625 24-8.847 24-27.625z" fill="#a9ba5a"/><path d="m150 156c-4.729 0-28-10.617-28-31.625 0-19.187 21.701-44.375 28-44.375.988 0 1.941.365 2.676 1.027 1.033.93 25.324 23.021 25.324 43.348 0 21.008-23.271 31.625-28 31.625zm.344-7.977h.041zm-.813-58.929c-5.568 4.965-19.531 21.422-19.531 35.281 0 14.998 16.77 22.623 20 23.562 3.23-.939 20-8.564 20-23.562 0-13.594-14.768-29.605-20.469-35.281z" fill="#4c241d"/></g><g><path d="m174 179.625c0 18.778-24 40.375-24 40.375-2.4 0-24-21.597-24-40.375s21.6-27.625 24-27.625 24 8.847 24 27.625z" fill="#a9ba5a"/><path d="m150 224c-6.299 0-28-25.188-28-44.375 0-21.008 23.271-31.625 28-31.625s28 10.617 28 31.625c0 20.326-24.291 42.418-25.324 43.348-.735.662-1.688 1.027-2.676 1.027zm.002-4.002h.039zm-.002-63.936c-3.23.939-20 8.564-20 23.562 0 13.859 13.963 30.316 19.531 35.281 5.701-5.675 20.469-21.686 20.469-35.28 0-14.998-16.77-22.623-20-23.563z" fill="#4c241d"/></g><g fill="#4c241d"><path d="m218 156h-136c-2.209 0-4-1.791-4-4s1.791-4 4-4h136c2.209 0 4 1.791 4 4s-1.791 4-4 4z"/><path d="m150 88c-2.209 0-4-1.791-4-4v-16c0-2.209 1.791-4 4-4s4 1.791 4 4v16c0 2.209-1.791 4-4 4z"/><path d="m150 240c-2.209 0-4-1.791-4-4v-16c0-2.209 1.791-4 4-4s4 1.791 4 4v16c0 2.209-1.791 4-4 4z"/><path d="m150 192c-2.209 0-4-1.791-4-4v-72c0-2.209 1.791-4 4-4s4 1.791 4 4v72c0 2.209-1.791 4-4 4z"/><path d="m190.004 168c-1.293 0-2.561-.625-3.332-1.781l-8-12c-.896-1.344-.896-3.094 0-4.438l8-12c1.227-1.836 3.705-2.338 5.547-1.109 1.838 1.225 2.334 3.709 1.109 5.547l-6.521 9.781 6.521 9.781c1.225 1.838.729 4.322-1.109 5.547-.682.455-1.453.672-2.215.672z"/><path d="m150 136c-.773 0-1.547-.225-2.219-.672l-12-8c-1.838-1.225-2.334-3.709-1.109-5.547 1.227-1.84 3.707-2.338 5.547-1.109l9.781 6.521 9.781-6.521c1.836-1.229 4.316-.73 5.547 1.109 1.225 1.838.729 4.322-1.109 5.547l-12 8c-.672.447-1.446.672-2.219.672z"/><path d="m161.996 184c-.762 0-1.533-.217-2.215-.672l-9.781-6.521-9.781 6.521c-1.84 1.223-4.32.725-5.547-1.109-1.225-1.838-.729-4.322 1.109-5.547l12-8c1.344-.895 3.094-.895 4.438 0l12 8c1.838 1.225 2.334 3.709 1.109 5.547-.771 1.156-2.039 1.781-3.332 1.781z"/><path d="m210.004 168c-1.293 0-2.561-.625-3.332-1.781l-8-12c-.896-1.344-.896-3.094 0-4.438l8-12c1.225-1.836 3.705-2.338 5.547-1.109 1.838 1.225 2.334 3.709 1.109 5.547l-6.521 9.781 6.521 9.781c1.225 1.838.729 4.322-1.109 5.547-.682.455-1.453.672-2.215.672z"/><path d="m109.996 168c-.762 0-1.533-.217-2.215-.672-1.838-1.225-2.334-3.709-1.109-5.547l6.521-9.781-6.521-9.781c-1.225-1.838-.729-4.322 1.109-5.547 1.836-1.229 4.32-.727 5.547 1.109l8 12c.896 1.344.896 3.094 0 4.438l-8 12c-.771 1.156-2.039 1.781-3.332 1.781z"/><path d="m89.996 168c-.762 0-1.533-.217-2.215-.672-1.838-1.225-2.334-3.709-1.109-5.547l6.521-9.781-6.521-9.781c-1.225-1.838-.729-4.322 1.109-5.547 1.838-1.229 4.32-.727 5.547 1.109l8 12c.896 1.344.896 3.094 0 4.438l-8 12c-.771 1.156-2.039 1.781-3.332 1.781z"/></g></g></svg>