<svg id="Capa_1" enable-background="new 0 0 512 512" height="512" viewBox="0 0 512 512" width="512" xmlns="http://www.w3.org/2000/svg"><g><g><path clip-rule="evenodd" d="m404.45 187.995c-8.481-3.125-15.459-4-29.209 5.531l-38.75 129.198c-4.296 15.902 2.037 23.463 9.82 26.978 8.202 2.316 17.91.614 24.857-14.312l53.536-123.842c3.29-9.552-6.869-18.651-15.378-21.72z" fill="#c86d35" fill-rule="evenodd"/></g><g><path clip-rule="evenodd" d="m31.122 350.203 76.52-13.867-7.919-82.216c-35.235-18.022-66.648-7.756-82.103 13.921-15.455 21.65-14.981 54.654 13.502 82.162z" fill="#ffd772" fill-rule="evenodd"/></g><g><path clip-rule="evenodd" d="m128.747 340.337c-5.273 7.337-7.771 22.335-5.395 35.533l114.158 71.867c14.172 8.397 23.127 4.324 28.595-2.232 4.436-7.309 5.384-17.102-7.142-27.787l-105.007-84.672c-14.979-5.377-25.209 7.291-25.209 7.291z" fill="#c86d35" fill-rule="evenodd"/></g><g><path clip-rule="evenodd" d="m209.333 232.583 49.351 125.543c6.444 15.177 16.069 17.185 24.383 15.149 7.895-3.264 14.451-10.574 10.685-26.615l-34.37-130.454c-7.404-27.211-53.64-17.211-50.049 16.377z" fill="#c86d35" fill-rule="evenodd"/></g><g><path clip-rule="evenodd" d="m150.302 157.229 74.18 36.296 38.024-73.01c-17.687-35.403-49.072-45.726-74.348-37.468-25.302 8.258-44.496 35.152-37.856 74.182z" fill="#ffd772" fill-rule="evenodd"/></g><g><path clip-rule="evenodd" d="m188.02 162.195-37.718-4.966-18.134-2.399c-3.292 56.801 35.263 80.543 77.165 77.753 8.676-.586 17.464-2.288 26.057-5.078 8.565-2.846 16.683-6.64 23.992-11.299 35.486-22.486 52.559-64.446 16.348-108.33l-13.224 12.638-27.507 26.308-28.79-8.509z" fill="#d87e49" fill-rule="evenodd"/></g><g><path clip-rule="evenodd" d="m202.945 232.806c2.12-.028 4.268-.084 6.389-.223 8.676-.586 17.464-2.288 26.057-5.078 8.565-2.846 16.683-6.64 23.992-11.299 35.486-22.486 52.559-64.446 16.348-108.33l-13.224 12.638-10.099 9.653c20.533 37.747 3.571 72.313-27.479 92.009-6.752 4.297-14.145 7.868-21.984 10.63z" fill="#c86d35" fill-rule="evenodd"/></g><g><path clip-rule="evenodd" d="m209.333 232.583 6.361 16.181c4.324 1.534 13.893-.195 25.638-4.38 9.346-3.32 8.955 3.459 11.745 14.033l29.934 113.603c.084.391.167.781.251 1.172 7.811-3.292 14.228-10.629 10.49-26.532l-34.37-130.454c-7.309 4.659-15.427 8.453-23.992 11.299-8.593 2.79-17.38 4.492-26.057 5.078z" fill="#ac5d2c" fill-rule="evenodd"/></g><g><path clip-rule="evenodd" d="m171.532 105.477c24.215-7.923 54.01 1.255 72.032 33.143l8.844-8.453 10.099-9.653c-17.687-35.403-49.072-45.726-74.348-37.468-14.674 4.799-27.312 15.846-34.007 31.916 5.217-4.24 11.103-7.42 17.38-9.485z" fill="#fbba58" fill-rule="evenodd"/></g><path d="m301.005 344.749-32.998-125.247c16.198-11.481 27.799-26.711 32.718-43.761 4.813-16.683 5.387-42.827-19.209-72.638-1.326-1.608-3.263-2.591-5.343-2.714-2.1-.125-4.12.627-5.626 2.066l-6.252 5.978c-20.891-33.234-53.663-40.621-78.463-32.517-24.819 8.1-46.909 33.421-44.114 72.607l-8.569-1.13c-2.065-.274-4.155.327-5.76 1.656-1.607 1.329-2.588 3.266-2.708 5.347-2.231 38.587 13.683 59.342 27.427 69.959 13.66 10.552 31.396 15.986 50.632 15.985.521 0 1.049-.025 1.572-.033l47.392 120.561c.025.063.051.126.077.188 7.017 16.524 17.616 20.383 25.983 20.383 2.648 0 5.073-.387 7.088-.88.369-.09.731-.208 1.082-.354 7.965-3.294 20.522-12.255 15.12-35.261-.016-.064-.032-.13-.049-.195zm-110.517-254.572c19.665-6.426 46.087.261 62.707 28.865l-.012.017-20.225 19.34-24.623-7.277c-2.988-.882-6.206.172-8.093 2.648l-15.554 20.421-27.745-3.659c-3.509-32.927 13.865-53.933 33.545-60.355zm-29.21 122.308c-13.909-10.745-21.362-27.625-21.784-49.124l47.545 6.27c2.67.353 5.318-.752 6.948-2.891l15.056-19.767 23.831 7.043c2.578.763 5.366.086 7.31-1.772l34.676-33.158c12.362 17.594 16.323 35.611 11.453 52.497-6.135 21.266-26.549 39.966-53.232 48.787-26.776 8.667-54.288 5.646-71.803-7.885zm119.448 153.634c-4.579.984-10.311.373-15.1-10.835l-45.733-116.341c5.908-.95 11.88-2.384 17.85-4.316 5.932-1.961 11.575-4.322 16.881-7.034l31.847 120.876c2.76 11.868-1.479 15.739-5.745 17.65z"/><g><path clip-rule="evenodd" d="m375.353 97.777 32.64 77.729 78.254-37.276c7.951-38.779-10.322-66.287-35.319-75.41-24.996-9.122-56.716.168-75.575 34.957z" fill="#ffd772" fill-rule="evenodd"/></g><g><path clip-rule="evenodd" d="m401.94 124.978-26.587-27.201-12.805-13.084c-37.662 42.657-22.011 85.146 12.694 108.832 7.142 4.882 15.121 8.955 23.602 12.08 8.509 3.069 17.241 5.078 25.861 5.942 41.791 4.213 81.127-18.218 79.76-75.103l-18.217 1.786-37.857 3.683-17.38-24.467z" fill="#d87e49" fill-rule="evenodd"/></g><g><path clip-rule="evenodd" d="m370.052 189.731c1.674 1.311 3.404 2.567 5.189 3.794 7.142 4.882 15.121 8.955 23.602 12.08 8.509 3.069 17.241 5.078 25.861 5.942 41.791 4.213 81.127-18.218 79.76-75.103l-18.217 1.786-13.893 1.339c-7.17 42.378-41.875 59.089-78.449 55.406-7.951-.808-15.985-2.566-23.853-5.244z" fill="#c86d35" fill-rule="evenodd"/></g><g><path clip-rule="evenodd" d="m375.241 193.525-4.994 16.655c2.427 3.85 11.02 8.425 22.848 12.387 9.402 3.153 4.91 8.258.558 18.301l-46.617 107.828c-.167.363-.335.725-.502 1.06 8.174 2.232 17.743.418 24.634-14.368l53.536-123.842c-8.62-.865-17.352-2.874-25.861-5.942-8.481-3.123-16.46-7.197-23.602-12.079z" fill="#ac5d2c" fill-rule="evenodd"/></g><g><path clip-rule="evenodd" d="m423.979 70.214c23.936 8.732 41.735 34.315 36.211 70.555l12.163-1.2 13.893-1.339c7.951-38.779-10.322-66.287-35.319-75.41-14.507-5.301-31.273-4.38-46.478 4.101 6.725-.111 13.337 1.033 19.53 3.293z" fill="#fbba58" fill-rule="evenodd"/></g><path d="m511.963 136.265c-.05-2.084-.965-4.053-2.526-5.435s-3.623-2.049-5.701-1.85l-8.618.84c4.108-39.044-17.103-65.098-41.62-74.045-24.519-8.95-57.528-2.671-79.531 29.87l-6.058-6.196c-1.457-1.49-3.474-2.299-5.552-2.254-2.084.053-4.052.97-5.432 2.532-25.592 28.972-25.898 55.124-21.647 71.961 4.343 17.202 15.424 32.807 31.234 44.826l-37.207 124.054c-.021.066-.039.132-.057.199-6.402 23.697 7.639 32.909 13.973 35.77.34.153.69.281 1.049.382 1.89.533 4.574 1.075 7.691 1.075 7.907 0 18.58-3.488 26.004-19.441.029-.063.058-.127.085-.191l13.363-30.939c1.643-3.802-.108-8.217-3.911-9.859-3.804-1.643-8.217.109-9.859 3.912l-13.32 30.839c-5.169 11.043-10.899 11.455-15.435 10.313-4.214-2.049-8.342-6.058-5.184-17.853l35.909-119.728c5.224 2.894 10.797 5.448 16.675 7.611 5.885 2.129 11.788 3.74 17.646 4.888l-23.233 53.712c-1.645 3.802.104 8.217 3.906 9.862.97.419 1.981.618 2.974.618 2.901 0 5.663-1.693 6.888-4.525l24.975-57.739c1.675.083 3.342.131 4.997.131 17.915-.001 34.549-4.836 47.727-14.321 14.106-10.149 30.722-30.362 29.795-69.019zm-63.606-66.399c19.441 7.095 36.091 28.674 31.479 61.444l-27.848 2.716-14.864-20.924c-1.802-2.537-4.985-3.698-7.996-2.917l-24.863 6.443-19.541-19.984-.016-.026c17.577-28.054 44.211-33.845 63.649-26.752zm25.053 123.242c-17.964 12.93-45.56 15.017-71.976 5.458-26.418-9.722-46.193-29.092-51.609-50.549-4.303-17.042.266-34.921 13.217-52.091l33.536 34.297c1.88 1.922 4.642 2.69 7.245 2.017l24.066-6.236 14.388 20.253c1.557 2.191 4.165 3.382 6.842 3.121l47.737-4.655c-1.149 21.487-9.171 38.112-23.446 48.385z"/><g><path clip-rule="evenodd" d="m64.432 331.846-33.31 18.357-16.041 8.816c31.05 47.706 76.189 43.968 108.271 16.851 6.612-5.58 12.693-12.164 17.966-19.501 5.217-7.365 9.485-15.26 12.638-23.323 15.204-39.17 4.101-83.054-51.081-96.947l-3.152 18.022-6.556 37.496-28.233 10.211z" fill="#d87e49" fill-rule="evenodd"/></g><g><path clip-rule="evenodd" d="m118.303 379.859c1.73-1.255 3.404-2.595 5.049-3.989 6.612-5.58 12.693-12.164 17.966-19.501 5.217-7.365 9.485-15.26 12.638-23.323 15.204-39.17 4.101-83.054-51.081-96.947l-3.152 18.022-2.399 13.754c38.89 18.246 45.724 56.132 32.417 90.391-2.901 7.449-6.751 14.73-11.438 21.593z" fill="#c86d35" fill-rule="evenodd"/></g><g><path clip-rule="evenodd" d="m123.352 375.87 14.702 9.262c4.38-1.283 11.075-8.37 18.05-18.692 5.552-8.23 9.262-2.539 17.771 4.324l91.449 73.764c.307.251.614.502.921.781 4.324-7.309 5.133-17.018-7.281-27.592l-105.007-84.672c-3.152 8.063-7.421 15.958-12.638 23.323-5.273 7.338-11.355 13.922-17.967 19.502z" fill="#ac5d2c" fill-rule="evenodd"/></g><g><path clip-rule="evenodd" d="m17.536 295.968c14.814-20.757 44.246-31.051 77.667-16.042l2.12-12.052 2.399-13.754c-35.235-18.022-66.648-7.756-82.103 13.921-8.955 12.554-12.582 28.931-8.453 45.865 1.675-6.527 4.548-12.581 8.37-17.938z" fill="#fbba58" fill-rule="evenodd"/></g><path d="m263.831 412.011c-.053-.045-.105-.089-.159-.132l-100.831-81.304c6.233-18.848 6.544-37.991.396-54.638-6.017-16.29-21.055-37.687-58.533-47.112-2.022-.509-4.163-.153-5.912.982-1.748 1.134-2.945 2.946-3.305 4.999l-1.491 8.525c-36.542-14.381-67.315-.89-82.481 20.352-15.157 21.231-17.92 54.703 7.53 84.591l-7.581 4.174c-1.826 1.005-3.152 2.726-3.658 4.748-.507 2.022-.148 4.164.988 5.911 21.08 32.407 46.204 39.692 63.568 40.097.532.013 1.065.019 1.597.019 17.221 0 34.619-6.473 49.956-18.136l31.54 19.865c1.241.782 2.624 1.155 3.99 1.155 2.491 0 4.928-1.24 6.353-3.504 2.208-3.505 1.156-8.136-2.349-10.344l-27.81-17.516c4.188-4.261 8.141-8.949 11.799-14.037 3.616-5.099 6.761-10.348 9.427-15.682l97.307 78.463c9.257 7.933 8.122 13.569 5.808 17.639-3.098 3.504-8.056 6.4-18.563.205l-44.409-27.937-5.049-3.208c-3.495-2.221-8.132-1.189-10.353 2.308-2.222 3.496-1.189 8.131 2.308 10.353l5.078 3.226 44.525 28.01c.056.036.112.07.17.104 7.077 4.193 13.199 5.738 18.38 5.738 10.272 0 16.842-6.073 19.799-9.618.239-.288.458-.593.652-.913 3.604-5.936 9.971-21.467-8.687-37.383zm-240.106-139.611c8.211-11.503 22.585-19.947 40.546-19.947 8.339 0 17.453 1.821 27.079 6.003v.007l-4.823 27.579-24.144 8.732c-2.927 1.059-4.897 3.815-4.949 6.928l-.429 25.671-24.51 13.495c-22.32-24.427-20.789-51.633-8.77-68.468zm111.504 79.59c-16.432 22.856-40.401 36.733-62.517 36.218-17.575-.409-33.585-9.589-46.673-26.66l42.011-23.132c2.356-1.297 3.837-3.756 3.882-6.445l.415-24.85 23.371-8.453c2.528-.915 4.374-3.112 4.837-5.761l8.266-47.265c20.382 6.839 34.255 19.003 40.344 35.49 7.671 20.77 2.32 47.936-13.936 70.858z"/></g></svg>