<svg id="bay" enable-background="new 0 0 300 300" height="512" viewBox="0 0 300 300" width="512" xmlns="http://www.w3.org/2000/svg"><g><circle cx="157.969" cy="121.946" fill="#fff0fd" r="92"/><path d="m89.969 253.946c-6.617 0-12-5.383-12-12s5.383-12 12-12 12 5.383 12 12-5.383 12-12 12zm0-16c-2.205 0-4 1.795-4 4s1.795 4 4 4 4-1.795 4-4-1.795-4-4-4z" fill="#4c241d"/><path d="m225.969 65.946c-1.023 0-2.047-.391-2.828-1.172l-12-12c-1.562-1.562-1.562-4.094 0-5.656s4.094-1.562 5.656 0l12 12c1.562 1.562 1.562 4.094 0 5.656-.781.782-1.805 1.172-2.828 1.172z" fill="#4c241d"/><path d="m213.969 65.946c-1.023 0-2.047-.391-2.828-1.172-1.562-1.562-1.562-4.094 0-5.656l12-12c1.562-1.562 4.094-1.562 5.656 0s1.562 4.094 0 5.656l-12 12c-.781.782-1.805 1.172-2.828 1.172z" fill="#4c241d"/><circle cx="86.366" cy="104.039" fill="#4c241d" r="4.276"/><g><path d="m193.969 129.946c0-35.346-40-76-40-76-4 0-40 40.654-40 76s36 52 40 52 40-16.653 40-52z" fill="#a9ba5a"/><path d="m153.969 185.946c-7.16 0-44-19.488-44-56 0-36.033 36.244-80 44-80 1.072 0 2.1.43 2.852 1.195 1.68 1.707 41.148 42.242 41.148 78.805 0 36.512-36.84 56-44 56zm.234-7.986h.041zm-.885-118.859c-8.293 7.471-35.35 41.354-35.35 70.846 0 31.629 31.777 46.895 36 47.963 4.223-1.068 36-16.334 36-47.963.001-28.649-28.429-61.846-36.65-70.846z" fill="#4c241d"/></g><g><path d="m236.549 184.614c17.857-23.246 12.09-70.191 12.09-70.191-2.631-2.021-46.846 6.528-64.703 29.774s-2.595 52.386.035 54.407 34.72 9.256 52.578-13.99z" fill="#a9ba5a"/><path d="m200.412 205.28c-9.715 0-17.312-2.301-18.877-3.502-3.559-2.734-20.654-34.135-.771-60.02 10.143-13.203 27.299-21.262 39.906-25.697.254-.088 25.211-8.809 30.406-4.811.85.652 1.402 1.621 1.533 2.684.242 1.984 5.752 48.85-12.889 73.117-11.134 14.495-26.937 18.229-39.308 18.229zm-13.973-9.89c3.938 1.562 31.484 6.902 46.938-13.213 14.002-18.227 12.475-53.086 11.605-63.953-9.941 1.029-43.43 9.605-57.875 28.41-15.453 20.115-3.189 45.349-.668 48.756z" fill="#4c241d"/></g><g><path d="m105.105 154.95c-15.633-17.684-53.626-20.333-53.626-20.333-2.001 1.769-2.032 38.031 13.601 55.715s41.01 10.094 43.011 8.325 12.646-26.023-2.986-43.707z" fill="#a9ba5a"/><path d="m92.156 205.792c-.168 0-.334 0-.502-.002-8.404-.092-20.357-2.387-29.57-12.811-15.676-17.73-18.43-56.781-13.256-61.359.803-.709 1.832-1.072 2.93-.994 1.617.113 39.816 2.979 56.344 21.676 9.215 10.422 10.025 22.564 9.084 30.918-.939 8.336-4.152 16.406-6.447 18.434-2.247 1.988-10.362 4.138-18.583 4.138zm-37.533-66.836c-.572 8.805 1.475 35.174 13.453 48.727 12.945 14.645 33.762 9.436 37.311 7.918 1.945-3.338 9.67-23.355-3.277-38.002-11.737-13.274-38.073-17.522-47.487-18.643zm.354-2.516" fill="#4c241d"/></g><g fill="#4c241d"><path d="m166.215 270.054c-1.807 0-3.447-1.232-3.887-3.068-20.637-86.213-13.557-208.662-13.482-209.889.131-2.207 2.045-3.924 4.232-3.752 2.205.133 3.885 2.027 3.752 4.232-.072 1.215-7.08 122.502 13.279 207.545.514 2.148-.811 4.307-2.959 4.822-.312.075-.627.11-.935.11z"/><path d="m151.602 120.813c-1.467 0-2.877-.807-3.58-2.207-.99-1.975-.191-4.377 1.783-5.369l17.352-8.705c1.969-.992 4.375-.193 5.369 1.783.99 1.975.191 4.377-1.783 5.369l-17.352 8.705c-.575.288-1.188.424-1.789.424z"/><path d="m152.129 148.235c-.76 0-1.527-.215-2.207-.666l-13.621-9.033c-1.842-1.221-2.344-3.703-1.123-5.545 1.221-1.84 3.707-2.342 5.545-1.123l13.621 9.033c1.842 1.221 2.344 3.703 1.123 5.545-.77 1.16-2.041 1.789-3.338 1.789z"/><path d="m158.559 232.733c-.451 0-.91-.078-1.359-.24-66.291-23.951-105.33-90.25-106.959-93.061-1.107-1.91-.457-4.357 1.453-5.465 1.91-1.115 4.354-.457 5.467 1.451.387.664 39.258 66.607 102.758 89.551 2.078.75 3.152 3.043 2.402 5.121-.589 1.63-2.126 2.643-3.762 2.643z"/><path d="m77.037 171.417c-.262 0-.527-.025-.793-.078-2.166-.438-3.568-2.547-3.133-4.711l2.676-13.283c.436-2.166 2.541-3.564 4.711-3.133 2.166.438 3.568 2.547 3.133 4.711l-2.676 13.283c-.383 1.9-2.053 3.211-3.918 3.211z"/><path d="m76.555 187.661c-2.031 0-3.77-1.539-3.977-3.602-.221-2.197 1.383-4.158 3.582-4.379l11.979-1.201c2.191-.225 4.158 1.385 4.379 3.582s-1.383 4.158-3.582 4.379l-11.979 1.201c-.135.014-.27.02-.402.02z"/><path d="m163.273 256.565c-.232 0-.469-.02-.705-.062-2.176-.387-3.625-2.465-3.236-4.639 11.049-61.99 80.887-134.51 83.855-137.568 1.537-1.582 4.07-1.621 5.654-.084 1.586 1.539 1.623 4.072.086 5.656-.711.732-71.104 73.832-81.721 133.398-.345 1.938-2.03 3.299-3.933 3.299z"/><path d="m198.861 178.747c-1.754 0-3.363-1.164-3.854-2.936l-5.078-18.359c-.588-2.129.66-4.332 2.789-4.922 2.127-.578 4.332.66 4.922 2.789l5.078 18.359c.588 2.129-.66 4.332-2.789 4.922-.357.098-.714.147-1.068.147z"/><path d="m214.693 159.198c-1.914 0-3.605-1.377-3.939-3.326-.371-2.178 1.092-4.244 3.27-4.617l19.086-3.258c2.199-.377 4.244 1.096 4.617 3.27.371 2.178-1.092 4.244-3.27 4.617l-19.086 3.258c-.228.039-.455.056-.678.056z"/></g></g></svg>