<svg id="Capa_1" enable-background="new 0 0 512 512" height="512" viewBox="0 0 512 512" width="512" xmlns="http://www.w3.org/2000/svg"><g><g><path clip-rule="evenodd" d="m255.773 255.986c0-27.318-27.704-56.377-93.458-75.522-29.244.595-65.942 15.444-108.391 53.22-15.982 14.198-15.982 30.35 0 44.576 42.45 37.747 79.175 52.568 108.42 53.078 55.457-5.02 87.991-31.332 93.429-75.352z" fill="#3bc3a4" fill-rule="evenodd"/></g><g><path clip-rule="evenodd" d="m349.458 180.492c-21.144-.028-75.468 2.616-93.259 75.494 14.07 48.317 37.547 69.665 93.231 75.38 29.301-.453 66.083-15.218 108.647-53.078 15.982-14.226 15.982-30.35 0-44.576-42.564-37.86-79.318-52.681-108.619-53.22z" fill="#3bc3a4" fill-rule="evenodd"/></g><g><path clip-rule="evenodd" d="m256.198 255.986c42.336-.085 84.531-27.432 93.259-75.494 7.226-39.702-8.388-93.517-65.545-157.788-17.938-20.177-38.312-20.177-56.279 0-57.129 64.243-72.629 118.058-65.318 157.76 8.841 48.09 51.149 75.437 93.458 75.522z" fill="#a7e9a6" fill-rule="evenodd"/></g><g><path clip-rule="evenodd" d="m255.773 255.986c-42.223.113-84.474 27.403-93.429 75.352-7.396 39.702 8.076 93.602 65.29 157.958 17.966 20.177 38.341 20.177 56.279 0 57.242-64.356 72.799-118.228 65.517-157.93-8.785-47.977-50.951-75.267-93.231-75.38-.142 0-.284 0-.426 0z" fill="#a7e9a6" fill-rule="evenodd"/></g><g><path clip-rule="evenodd" d="m320.156 182.334c-6.319 34.715-35.734 58.632-64.383 69.259-3.939 1.474-7.991 2.692-12.072 3.627 3.996.51 8.048.765 12.072.765h.425c42.336-.085 84.531-27.432 93.259-75.494 7.226-39.702-8.388-93.517-65.545-157.788-14.934-16.776-31.54-19.61-47.012-8.473 55.826 18.676 92.551 116.982 83.256 168.104z" fill="#7fdbae" fill-rule="evenodd"/></g><g><path clip-rule="evenodd" d="m255.773 257.658c32.333 8.813 60.217 33.836 67.189 71.866 7.283 39.702-8.303 93.573-65.517 157.93-5.412 6.093-11.052 10.343-16.776 12.752 14.396 8.161 29.528 4.506 43.243-10.91 57.242-64.356 72.799-118.228 65.517-157.93-8.785-47.977-50.951-75.267-93.231-75.38-.142 0-.283 0-.425 0-2.04.028-4.081.085-6.121.227 2.041.425 4.109.906 6.121 1.445z" fill="#7fdbae" fill-rule="evenodd"/></g><g><path clip-rule="evenodd" d="m256.198 255.986c14.991-.028 29.953-9.72 33.042-26.751 2.55-14.056-2.975-33.128-23.209-55.883-6.376-7.17-13.574-7.17-19.95 0-20.233 22.756-25.731 41.827-23.152 55.883 3.145 17.031 18.136 26.723 33.127 26.751z" fill="#3bc3a4" fill-rule="evenodd"/></g><g><path clip-rule="evenodd" d="m256.198 255.986c-14.991.057-29.925 9.72-33.042 26.751-2.55 14.084 2.975 33.156 23.237 55.912 6.348 7.17 13.574 7.17 19.921 0 20.261-22.756 25.759-41.827 23.152-55.883-3.117-17.031-18.108-26.723-33.098-26.78-.056 0-.113 0-.17 0z" fill="#3bc3a4" fill-rule="evenodd"/></g><g><path clip-rule="evenodd" d="m255.773 260.237c8.105 4.392 14.481 12.072 16.407 22.529 2.267 12.356-1.7 28.565-16.407 47.75-2.04 2.664-4.279 5.356-6.744 8.133-.425.51-.878.964-1.332 1.389 2.607 2.465 5.356 3.797 8.076 3.967 3.599.227 7.198-1.559 10.542-5.356 20.261-22.756 25.759-41.827 23.152-55.883-.822-4.477-2.465-8.445-4.704-11.874-6.234-9.493-17.144-14.764-28.083-14.878-.113-.028-.227-.028-.312-.028-.057 0-.113 0-.17 0-.028 0-.085 0-.142 0-.085 0-.198.028-.283 0-1.672.028-3.372.198-5.016.453-1.048.17-2.097.368-3.117.623 2.834.738 5.555 1.786 8.133 3.175z" fill="#00a887" fill-rule="evenodd"/></g><g><path clip-rule="evenodd" d="m255.773 255.986c.085.028.198 0 .283 0zm.595 0c13.744-.085 27.402-8.275 31.908-22.784.397-1.275.708-2.579.963-3.967 2.55-14.056-2.975-33.128-23.209-55.883-3.287-3.684-6.773-5.469-10.258-5.384-2.834.085-5.668 1.417-8.36 3.996.425.425.878.878 1.304 1.389 2.579 2.891 4.931 5.753 7.056 8.53 14.481 19.015 18.391 35.111 16.181 47.354-1.87 10.23-7.991 17.797-15.812 22.217-.113.085-.255.142-.368.227-2.607 1.417-5.412 2.522-8.303 3.231 2.72.708 5.526 1.049 8.303 1.077h.283.142c.057-.003.114-.003.17-.003z" fill="#00a887" fill-rule="evenodd"/></g><path d="m463.107 228.055c-36.602-32.558-72.707-51.283-105.029-54.602 2.291-22.369-2.064-46.661-13.021-72.359-1.64-3.847-6.088-5.635-9.934-3.995-3.847 1.64-5.635 6.087-3.995 9.934 11.159 26.174 14.819 50.433 10.878 72.107-5.636 31.038-25.489 51.058-48.414 61.229 1.413-3.047 2.468-6.32 3.096-9.783 2.348-12.938-.084-34.243-25.001-62.266-2.845-3.199-5.706-5.157-8.348-6.328v-16.689c11.145-1.891 22.725-6.937 34.693-15.162 3.446-2.368 4.32-7.082 1.951-10.528-2.368-3.446-7.082-4.32-10.528-1.951-9.234 6.346-17.889 10.415-26.116 12.233v-24.335c6.571-2.01 13.224-6.281 20.117-12.894 3.018-2.895 3.117-7.688.223-10.705s-7.687-3.117-10.705-.223c-3.39 3.252-6.607 5.708-9.634 7.38v-27.302c0-4.181-3.39-7.571-7.571-7.571s-7.571 3.39-7.571 7.571v28.314c-2.915-1.51-5.858-4.075-8.888-7.746-2.662-3.225-7.434-3.681-10.659-1.02-3.225 2.662-3.682 7.434-1.02 10.659 6.348 7.69 13.248 12.425 20.567 14.144v24.465c-8.846-1.197-17.252-5.341-25.433-12.447-3.157-2.742-7.939-2.406-10.681.751s-2.406 7.939.751 10.681c11.135 9.671 22.943 15.101 35.363 16.293v16.349c-2.48 1.195-5.134 3.092-7.775 6.061-24.916 28.023-27.315 49.336-24.939 62.289.648 3.508 1.731 6.822 3.183 9.902-23.101-10.132-43.169-30.213-48.906-61.419-5.562-30.203.945-80.979 63.527-151.354 7.442-8.359 15.01-12.596 22.495-12.596h.008c7.479.003 15.037 4.24 22.463 12.593 14.704 16.535 27.109 32.95 36.873 48.789 2.194 3.56 6.858 4.668 10.418 2.472 3.56-2.194 4.666-6.858 2.472-10.418-10.225-16.587-23.161-33.714-38.447-50.905-10.274-11.556-21.953-17.668-33.773-17.673-.005 0-.008 0-.013 0-11.822 0-23.512 6.111-33.808 17.673-61.364 69.006-71.85 121.687-68.309 155.769-32.252 3.379-68.268 22.098-104.771 54.581-9.5 8.44-14.525 18.095-14.53 27.923-.005 9.836 5.018 19.507 14.527 27.972 36.531 32.483 72.554 51.159 104.796 54.462-1.905 18.092.547 37.522 7.338 57.895 1.322 3.967 5.609 6.113 9.577 4.788 3.967-1.322 6.111-5.61 4.788-9.577-7.037-21.111-8.922-40.883-5.605-58.759 5.826-31.196 25.991-51.249 49.132-61.341-1.47 3.109-2.563 6.457-3.212 10.002-2.347 12.958.091 34.285 25.018 62.28 2.53 2.858 5.079 4.73 7.474 5.934v16.484c-12.415 1.196-24.226 6.624-35.363 16.297-3.157 2.742-3.493 7.524-.751 10.681 2.741 3.156 7.524 3.494 10.681.751 8.183-7.108 16.589-11.256 25.433-12.456v24.462c-7.323 1.719-14.225 6.459-20.571 14.161-2.658 3.227-2.198 7.999 1.029 10.658 1.41 1.162 3.115 1.728 4.81 1.728 2.184 0 4.351-.941 5.848-2.758 3.028-3.676 5.969-6.243 8.884-7.754v28.303c0 4.181 3.39 7.571 7.571 7.571s7.571-3.39 7.571-7.571v-27.29c3.026 1.676 6.241 4.136 9.634 7.391 3.018 2.895 7.81 2.796 10.705-.223 2.895-3.017 2.795-7.81-.223-10.705-6.896-6.616-13.546-10.876-20.117-12.888v-24.351c8.228 1.818 16.881 5.89 26.112 12.242 1.311.902 2.806 1.335 4.285 1.335 2.408 0 4.776-1.146 6.244-3.28 2.37-3.444 1.5-8.158-1.945-10.529-11.969-8.237-23.548-13.289-34.697-15.181v-16.541c2.724-1.154 5.69-3.138 8.629-6.457 24.964-28.038 27.342-49.354 24.944-62.281-.624-3.411-1.664-6.638-3.053-9.647 22.778 10.207 42.476 30.148 48.12 60.976 5.542 30.213-1.015 81.027-63.728 151.534-7.425 8.352-14.983 12.589-22.462 12.592-.003 0-.005 0-.008 0-7.484 0-15.053-4.238-22.493-12.594-19.25-21.637-34.505-43.058-45.344-63.67-1.947-3.701-6.524-5.123-10.225-3.177s-5.124 6.524-3.177 10.225c11.41 21.698 27.369 44.135 47.435 66.689 10.296 11.561 21.984 17.671 33.807 17.671h.013c11.82-.005 23.499-6.116 33.772-17.672 61.461-69.1 72.012-121.809 68.506-155.903 32.333-3.247 68.437-21.929 105.034-54.481 9.502-8.458 14.524-18.121 14.524-27.944.001-9.824-5.022-19.486-14.526-27.945zm-271.092 41.63c-17.927 13.562-30.145 32.05-35.655 53.75-29.278-2.599-62.798-20.061-97.402-50.83-6.273-5.584-9.452-11.186-9.45-16.651.003-5.458 3.18-11.046 9.449-16.614 34.571-30.764 68.074-48.266 97.361-50.954 5.464 21.749 17.664 40.283 35.604 53.875 2.916 2.209 5.962 4.241 9.101 6.125h-36.172c-2.35-9.195-8.152-18.562-17.562-28.363-2.895-3.016-7.689-3.114-10.705-.218s-3.114 7.688-.218 10.705c6.074 6.327 10.248 12.303 12.521 17.876h-29.565c-1.809-5.188-5.262-10.421-10.429-15.807-2.894-3.017-7.687-3.117-10.705-.222s-3.117 7.687-.222 10.705c1.78 1.856 3.248 3.631 4.415 5.324h-19.524c-4.181 0-7.571 3.39-7.571 7.571s3.39 7.571 7.571 7.571h20.286c-1.135 1.511-2.627 3.047-4.521 4.604-3.23 2.655-3.696 7.426-1.041 10.656 1.497 1.821 3.666 2.764 5.853 2.764 1.692 0 3.395-.565 4.803-1.723 6.103-5.017 10.001-10.483 11.66-16.301h30.178c-1.7 5.774-6.004 11.465-13.06 17.274-3.228 2.658-3.691 7.429-1.033 10.658 1.497 1.818 3.665 2.76 5.85 2.76 1.693 0 3.398-.566 4.808-1.726 10.881-8.957 17.227-18.686 18.937-28.965h35.605c-3.161 1.892-6.23 3.935-9.167 6.156zm59.724-91.303c1.604-1.803 3.177-2.837 4.317-2.837s2.714 1.034 4.317 2.837c16.281 18.31 23.887 35.89 21.417 49.501-2.553 14.072-15.053 20.506-25.593 20.532-.17-.002-.34-.01-.51-.008-10.469-.173-22.74-6.623-25.31-20.538-2.497-13.611 5.09-31.185 21.362-49.487zm8.908 155.248c-1.59 1.795-3.154 2.825-4.292 2.825s-2.702-1.03-4.306-2.841c-16.296-18.302-23.911-35.891-21.444-49.514 2.57-14.044 15.061-20.49 25.592-20.543.4.001.805.02 1.207.026 10.325.454 22.126 6.938 24.619 20.563 2.521 13.597-5.065 31.165-21.376 49.484zm192.397-60.999c-34.66 30.83-68.248 48.295-97.605 50.844-5.435-21.712-17.596-40.212-35.49-53.781-2.92-2.214-5.972-4.25-9.116-6.137h35.589c1.71 10.278 8.057 20.007 18.938 28.965 1.41 1.16 3.114 1.726 4.808 1.726 2.185 0 4.353-.941 5.85-2.76 2.657-3.229 2.195-8-1.033-10.658-7.057-5.809-11.361-11.5-13.061-17.274h30.162c1.658 5.812 5.55 11.276 11.642 16.295 1.41 1.162 3.115 1.729 4.81 1.729 2.184 0 4.35-.94 5.848-2.757 2.659-3.227 2.199-7.999-1.029-10.658-1.892-1.559-3.383-3.096-4.517-4.609h20.304c4.181 0 7.571-3.39 7.571-7.571s-3.39-7.571-7.571-7.571h-19.539c1.163-1.683 2.624-3.447 4.396-5.291 2.898-3.014 2.803-7.807-.212-10.705-3.015-2.897-7.807-2.803-10.705.212-5.089 5.294-8.552 10.573-10.384 15.784h-29.583c2.274-5.565 6.445-11.53 12.514-17.844 2.898-3.015 2.803-7.807-.212-10.705-3.014-2.898-7.807-2.803-10.705.212-9.41 9.79-15.212 19.148-17.563 28.338h-36.274c3.151-1.892 6.208-3.934 9.133-6.154 17.897-13.588 30.048-32.115 35.462-53.857 29.344 2.636 62.92 20.143 97.57 50.965 6.27 5.581 9.45 11.177 9.45 16.632-.001 5.455-3.18 11.051-9.448 16.63z"/></g></svg>