<svg id="Capa_1" enable-background="new 0 0 512 512" height="512" viewBox="0 0 512 512" width="512" xmlns="http://www.w3.org/2000/svg"><g><g><path clip-rule="evenodd" d="m110.8 78.2-36.5-4 4 36.5c3.4 30.7 21.2 63.8 46 90.7-35.7 1.3-70.4 11.8-93.3 32.9l-23.5 21.7 23.5 21.7c22.9 21.1 57.6 31.6 93.3 32.9-24.9 26.9-42.7 60-46 90.7l-4 36.5 36.5-4c30.8-3.4 64.2-21.4 91.1-46.5 2.3 33 12.7 64.8 32.5 86.2l21.6 23.5 21.7-23.5c19.8-21.5 30.1-53.2 32.5-86.2 26.9 25.1 60.3 43.1 91.1 46.5l36.5 4-4-36.5c-3.4-30.7-21.2-63.8-46-90.7 35.7-1.3 70.4-11.8 93.3-32.9l23.5-21.7-23.6-21.7c-22.9-21.1-57.6-31.6-93.3-32.9 24.8-26.9 42.7-60 46-90.7l4-36.5-36.5 4c-30.8 3.4-64.2 21.4-91.1 46.5-2.3-33-12.6-64.8-32.5-86.2l-21.6-23.5-21.7 23.5c-19.8 21.5-30.1 53.2-32.5 86.2-26.8-25.1-60.2-43.1-91-46.5z" fill="#d87e49" fill-rule="evenodd"/></g><g><path clip-rule="evenodd" d="m226 224.7c-3.1-49.3-65.5-111.4-118.5-117.2 5.8 53 67.9 115.4 117.2 118.5.5-.4.9-.8 1.3-1.3z" fill="#ac5d2c" fill-rule="evenodd"/></g><g><path clip-rule="evenodd" d="m256 58.4c-30.5 33.1-33.3 109.8-8.4 155.1 2.7-.5 5.5-.8 8.4-.8s5.7.3 8.4.8c24.9-45.2 22.1-122-8.4-155.1z" fill="#ac5d2c" fill-rule="evenodd"/></g><g><path clip-rule="evenodd" d="m404.5 107.5c-53 5.8-115.4 67.9-118.5 117.2.4.4.8.8 1.2 1.3 49.4-3.1 111.4-65.5 117.3-118.5z" fill="#ac5d2c" fill-rule="evenodd"/></g><g><path clip-rule="evenodd" d="m461.1 256c-34.8-32.1-118-33.5-161.9-4.2.1 1.4.2 2.8.2 4.2s-.1 2.8-.2 4.2c43.8 29.3 127 27.9 161.9-4.2z" fill="#ac5d2c" fill-rule="evenodd"/></g><g><path clip-rule="evenodd" d="m404.5 404.5c-5.8-53-67.9-115.4-117.2-118.5-.4.4-.8.8-1.2 1.3 3 49.3 65.4 111.3 118.4 117.2z" fill="#ac5d2c" fill-rule="evenodd"/></g><g><path clip-rule="evenodd" d="m256 453.6c30.5-33.1 33.3-109.8 8.4-155.1-2.7.5-5.5.8-8.4.8s-5.7-.3-8.4-.8c-24.9 45.2-22.1 122 8.4 155.1z" fill="#ac5d2c" fill-rule="evenodd"/></g><g><path clip-rule="evenodd" d="m107.5 404.5c53-5.8 115.4-67.9 118.5-117.2-.4-.4-.8-.8-1.3-1.3-49.3 3.1-111.3 65.5-117.2 118.5z" fill="#ac5d2c" fill-rule="evenodd"/></g><g><path clip-rule="evenodd" d="m50.9 256c34.8 32.1 118 33.5 161.9 4.2-.1-1.4-.2-2.8-.2-4.2s.1-2.8.2-4.2c-43.8-29.3-127-27.9-161.9 4.2z" fill="#ac5d2c" fill-rule="evenodd"/></g><g><path clip-rule="evenodd" d="m212.7 256c0 1.4.1 2.8.2 4.2 1 10 5.3 19 11.9 25.8l1.3 1.3c5.9 5.6 13.3 9.6 21.7 11.2 2.7.5 5.5.8 8.4.8s5.7-.3 8.4-.8c8.3-1.6 15.8-5.6 21.7-11.2.4-.4.8-.8 1.2-1.3 6.6-6.9 10.9-15.8 11.9-25.8.1-1.4.2-2.8.2-4.2s-.1-2.8-.2-4.2c-1-10-5.3-19-11.9-25.8-.4-.4-.8-.8-1.2-1.3-5.9-5.6-13.3-9.6-21.7-11.2-2.7-.5-5.5-.8-8.4-.8s-5.7.3-8.4.8c-8.3 1.6-15.8 5.6-21.7 11.2-.4.4-.8.8-1.3 1.3-6.6 6.9-10.9 15.8-11.9 25.8-.1 1.4-.2 2.8-.2 4.2z" fill="#d87e49" fill-rule="evenodd"/></g><g><path clip-rule="evenodd" d="m256 58.4c30.5 33.1 33.3 109.8 8.4 155.1 8.3 1.6 15.8 5.6 21.7 11.2 3.1-49.3 65.5-111.4 118.5-117.2-5.8 53-67.9 115.4-117.2 118.5 6.6 6.9 10.9 15.8 11.9 25.8 43.9-29.4 127.1-28 161.9 4.2-34.8 32.1-118 33.5-161.9 4.2-1 10-5.3 19-11.9 25.8 49.3 3.1 111.4 65.5 117.2 118.5-53-5.8-115.4-67.9-118.5-117.2-5.9 5.6-13.3 9.6-21.7 11.2 25 45.2 22.2 122-8.4 155.1-4.5-4.9-8.4-10.7-11.7-17.2-3 13.3-6.3 25.8-9.9 37.2l21.6 23.4 21.7-23.5c19.8-21.5 30.1-53.2 32.5-86.2 26.9 25.1 60.3 43.1 91.1 46.5l36.5 4-4-36.5c-3.4-30.7-21.2-63.8-46-90.7 35.7-1.3 70.4-11.8 93.3-32.9l23.5-21.7-23.6-21.7c-22.9-21.1-57.6-31.6-93.3-32.9 24.8-26.9 42.7-60 46-90.7l4-36.5-36.5 4c-30.8 3.4-64.2 21.4-91.1 46.5-2.3-33-12.6-64.8-32.5-86.2l-21.6-23.5-21.7 23.5c-1.6 1.7-3.1 3.5-4.6 5.3 4.2 11.6 8.1 24.4 11.6 38.3 3.9-9.2 8.8-17.2 14.7-23.7z" fill="#c86d35" fill-rule="evenodd"/></g><g><path clip-rule="evenodd" d="m238.3 216.4c11.2 11.5 17.7 24.9 17.7 39.3 0 14.5-6.6 28.1-18 39.6 3 1.4 6.3 2.4 9.7 3.1 2.7.5 5.5.8 8.4.8s5.7-.3 8.4-.8c8.3-1.6 15.8-5.6 21.7-11.2.4-.4.8-.8 1.2-1.3 6.6-6.9 10.9-15.8 11.9-25.8.1-1.4.2-2.8.2-4.2s-.1-2.8-.2-4.2c-1-10-5.3-19-11.9-25.8-.4-.4-.8-.8-1.2-1.3-5.9-5.6-13.3-9.6-21.7-11.2-2.7-.5-5.5-.8-8.4-.8s-5.7.3-8.4.8c-3.3.7-6.5 1.7-9.4 3z" fill="#c86d35" fill-rule="evenodd"/></g></g><g><g><path d="m248.5 356v27.5c0 4.1 3.4 7.5 7.5 7.5s7.5-3.4 7.5-7.5v-27.5c0-4.1-3.4-7.5-7.5-7.5s-7.5 3.4-7.5 7.5z"/><path d="m263.5 156v-27.5c0-4.1-3.4-7.5-7.5-7.5s-7.5 3.4-7.5 7.5v27.5c0 4.1 3.4 7.5 7.5 7.5s7.5-3.4 7.5-7.5z"/><path d="m356 263.5h27.4c4.1 0 7.5-3.4 7.5-7.5s-3.4-7.5-7.5-7.5h-27.4c-4.1 0-7.5 3.4-7.5 7.5s3.4 7.5 7.5 7.5z"/><path d="m156 248.5h-27.5c-4.1 0-7.5 3.4-7.5 7.5s3.4 7.5 7.5 7.5h27.5c4.1 0 7.5-3.4 7.5-7.5s-3.4-7.5-7.5-7.5z"/><path d="m321.4 332 19.4 19.4c1.5 1.5 3.4 2.2 5.3 2.2s3.8-.7 5.3-2.2c2.9-2.9 2.9-7.7 0-10.6l-19.4-19.4c-2.9-2.9-7.7-2.9-10.6 0-2.9 3-2.9 7.7 0 10.6z"/><path d="m160.5 160.5c-2.9 2.9-2.9 7.7 0 10.6l19.4 19.4c1.5 1.5 3.4 2.2 5.3 2.2s3.8-.7 5.3-2.2c2.9-2.9 2.9-7.7 0-10.6l-19.4-19.4c-2.9-2.9-7.6-2.9-10.6 0z"/><path d="m165.8 353.7c1.9 0 3.8-.7 5.3-2.2l19.4-19.4c2.9-2.9 2.9-7.7 0-10.6s-7.7-2.9-10.6 0l-19.4 19.4c-2.9 2.9-2.9 7.7 0 10.6 1.5 1.4 3.4 2.2 5.3 2.2z"/><path d="m340.9 160.5-19.5 19.5c-2.9 2.9-2.9 7.7 0 10.6 1.5 1.5 3.4 2.2 5.3 2.2s3.8-.7 5.3-2.2l19.4-19.4c2.9-2.9 2.9-7.7 0-10.6-2.9-3-7.6-3-10.5-.1z"/><path d="m441.2 400.4c-.6-5-1.5-10.2-2.8-15.4-1-4-5-6.5-9.1-5.5-4 1-6.5 5-5.5 9.1 1.1 4.6 1.9 9.1 2.4 13.5l3 27.2-27.2-3c-28.2-3.1-59.8-19.3-86.9-44.5-2.1-2-5.2-2.5-7.9-1.5-2.7 1.1-4.5 3.6-4.7 6.5-2.4 33.9-13.2 63-30.5 81.7l-16 17.5-16.1-17.5c-17.3-18.7-28.1-47.7-30.5-81.7-.2-2.9-2-5.4-4.7-6.5s-5.7-.5-7.9 1.5c-27 25.2-58.6 41.4-86.8 44.5l-27.2 3 3-27.2c3.1-28 19.1-59.5 44.1-86.4 2-2.2 2.5-5.3 1.4-8s-3.7-4.5-6.7-4.6c-36.9-1.3-68.3-12.3-88.5-30.9l-17.5-16.2 17.5-16.1c20.2-18.6 51.6-29.6 88.5-30.9 2.9-.1 5.5-1.9 6.7-4.6 1.1-2.7.6-5.8-1.4-8-15.7-17-28.1-36.1-35.9-55.3-1.6-3.8-5.9-5.7-9.8-4.1-3.8 1.6-5.7 5.9-4.1 9.8 6.7 16.6 16.6 33.1 28.9 48.4-34 3.7-63.1 15.4-83 33.8l-23.6 21.5c-1.5 1.4-2.4 3.4-2.4 5.5s.9 4.1 2.4 5.5l23.5 21.7c19.9 18.4 49 30.1 82.9 33.8-21.4 26.6-35.1 56.3-38 83.5l-4 36.5c-.2 2.3.5 4.5 2.2 6.1 1.6 1.6 3.9 2.4 6.1 2.2l36.5-4c27.5-3 57.6-17 84.4-38.8 4.5 31.1 15.9 57.8 32.9 76.2l21.7 23.5c1.4 1.5 3.4 2.4 5.5 2.4s4.1-.9 5.5-2.4l21.6-23.5c17-18.4 28.4-45.1 32.9-76.2 26.8 21.8 56.9 35.8 84.4 38.8l36.5 4c2.2.2 4.5-.5 6.1-2.2 1.6-1.6 2.4-3.9 2.2-6.1z"/><path d="m509.6 250.5-23.5-21.7c-19.9-18.4-49-30.1-83-33.8 21.4-26.6 35.1-56.4 38.1-83.5l4-36.5c.2-2.3-.5-4.5-2.2-6.1-1.6-1.6-3.9-2.4-6.1-2.2l-36.5 4c-27.5 3-57.6 17-84.4 38.8-4.4-31.1-15.9-57.8-32.9-76.2l-21.6-23.4c-1.4-1.5-3.4-2.4-5.5-2.4s-4.1.9-5.5 2.4l-21.7 23.5c-17 18.4-28.4 45.1-32.9 76.2-26.8-21.8-56.9-35.8-84.4-38.8l-36.5-4c-2.3-.3-4.5.5-6.1 2.2-1.6 1.6-2.4 3.9-2.2 6.1l4 36.5c.5 4.1 4.2 7.1 8.3 6.6s7.1-4.2 6.6-8.3l-3-27.2 27.2 3c28.2 3.1 59.8 19.3 86.8 44.5 2.1 2 5.2 2.6 7.9 1.5s4.5-3.6 4.7-6.4c2.4-34 13.2-63 30.5-81.7l16.3-17.6 16.1 17.5c17.3 18.7 28.1 47.7 30.5 81.7.2 2.9 2 5.4 4.7 6.5s5.7.5 7.9-1.5c27-25.2 58.7-41.4 86.8-44.5l27.2-3-3 27.2c-3.1 27.9-19.1 59.4-44.1 86.4-2 2.2-2.5 5.3-1.4 8s3.7 4.5 6.7 4.6c36.9 1.3 68.3 12.3 88.5 30.9l17.5 16.1-17.5 16.1c-20.2 18.6-51.6 29.6-88.5 30.9-2.9.1-5.5 1.9-6.7 4.6-1.1 2.7-.6 5.8 1.4 8 12.4 13.4 23 28.5 30.6 43.6 1.3 2.6 4 4.1 6.7 4.1 1.1 0 2.3-.3 3.4-.8 3.7-1.9 5.2-6.4 3.3-10.1-6.1-12.1-13.9-24.2-23.1-35.6 34-3.7 63.1-15.4 83-33.8l23.5-21.7c1.5-1.4 2.4-3.4 2.4-5.5s-.8-3.8-2.3-5.2z"/><path d="m108.3 100.1c-2.3-.2-4.5.5-6.1 2.2s-2.4 3.9-2.2 6.1c5.7 51.9 61.3 111.5 111.4 123.2-1.5 2.7-2.7 5.5-3.7 8.5-21.5-11.4-49.8-17.4-79.4-16.7-34.6.8-64.6 10.7-82.5 27.1-2.3 2.1-3.1 5.4-1.8 8.4.4 1 1.1 1.9 1.9 2.7 17.9 16.4 47.9 26.3 82.4 27.1 1.5 0 3 .1 4.5.1 28 0 54.5-6 74.9-16.8 1 3 2.2 5.8 3.7 8.5-50.1 11.7-105.7 71.3-111.4 123.2-.2 2.3.5 4.5 2.2 6.1 1.4 1.4 3.3 2.2 5.3 2.2h.8c51.9-5.7 111.5-61.3 123.2-111.4 1.7 1 3.6 1.8 5.4 2.6-9.9 22-14.8 49.7-13.5 77.8 1.6 32.5 11.4 60.8 27 77.7 1.4 1.5 3.4 2.4 5.5 2.4s4.1-.9 5.5-2.4c15.6-16.9 25.4-45.2 27-77.7 1.3-28.1-3.5-55.9-13.5-77.8 1.9-.8 3.7-1.6 5.4-2.6 11.7 50.1 71.3 105.7 123.2 111.4h.8c2 0 3.9-.8 5.3-2.2 1.6-1.6 2.4-3.9 2.2-6.1-5.7-51.9-61.3-111.5-111.4-123.2 1.5-2.7 2.7-5.5 3.7-8.5 20.4 10.8 46.9 16.8 74.9 16.8 1.5 0 3 0 4.5-.1 34.6-.8 64.6-10.7 82.5-27.1 1.5-1.4 2.4-3.4 2.4-5.5s-.9-4.1-2.4-5.5c-17.8-16.5-47.9-26.4-82.5-27.1-29.6-.7-57.9 5.3-79.4 16.7-1-3-2.2-5.8-3.7-8.5 50.1-11.7 105.7-71.3 111.4-123.2.2-2.3-.5-4.5-2.2-6.1-1.6-1.6-3.9-2.4-6.1-2.2-51.9 5.7-111.5 61.3-123.2 111.4-1.7-1-3.6-1.8-5.4-2.6 9.9-22 14.8-49.7 13.5-77.8-1.6-32.5-11.4-60.8-27-77.7-1.4-1.5-3.4-2.4-5.5-2.4s-4.1.9-5.5 2.4c-15.6 16.9-25.4 45.2-27 77.7-1.3 28.1 3.5 55.9 13.5 77.8-1.9.8-3.7 1.6-5.4 2.6-11.7-50.3-71.3-105.8-123.2-111.5zm96.9 156.1c-19.5 11.6-47.7 18.2-76.5 17.5-26.2-.6-50-7.1-65.6-17.7 15.7-10.6 39.4-17.1 65.6-17.7 28.8-.7 57 5.8 76.5 17.5v.2zm178.1-17.9c26.2.6 50 7.1 65.6 17.7-15.7 10.6-39.4 17.1-65.6 17.7-28.8.7-57-5.8-76.5-17.5 0-.1 0-.1 0-.2s0-.1 0-.2c19.5-11.6 47.7-18.1 76.5-17.5zm-203.1 118.6c-19.6 19.4-42.6 33.2-63.4 38.3 5.1-20.8 19-43.8 38.3-63.4 19.8-20 42.6-33.5 62.4-37.3-3.8 19.8-17.3 42.5-37.3 62.4zm-25-176.7c-19.4-19.6-33.2-42.6-38.3-63.4 20.8 5.1 43.8 19 63.4 38.3 20 19.8 33.5 42.6 37.3 62.4-19.9-3.8-42.6-17.3-62.4-37.3zm118.3 200c-1.2 24.8-7.5 46.5-17.5 61.3-10-14.8-16.3-36.5-17.5-61.3-1.3-27 3.6-53.4 13.4-73.6 1.4.1 2.7.2 4.1.2s2.8-.1 4.1-.2c9.8 20.2 14.7 46.7 13.4 73.6zm83.3-48.4c19.4 19.6 33.2 42.6 38.4 63.4-20.8-5.1-43.8-19-63.4-38.4-20-19.8-33.5-42.6-37.3-62.4 19.8 3.9 42.5 17.4 62.3 37.4zm-25-176.7c19.6-19.4 42.6-33.2 63.4-38.3-5.1 20.8-19 43.8-38.4 63.4-19.8 20-42.6 33.5-62.4 37.3 3.9-19.8 17.4-42.5 37.4-62.4zm-93.3-23.3c1.2-24.8 7.5-46.5 17.5-61.3 10 14.8 16.3 36.5 17.5 61.3 1.3 27-3.6 53.4-13.4 73.6-1.4-.1-2.7-.2-4.1-.2s-2.8.1-4.1.2c-9.8-20.2-14.7-46.7-13.4-73.6zm10.6 89c2.2-.4 4.5-.7 6.9-.7 19.8 0 35.8 16.1 35.8 35.8s-16.1 35.8-35.8 35.8-35.8-16.1-35.8-35.8c0-17.3 12.4-31.8 28.9-35.1z"/></g></g></svg>