<svg id="goji" enable-background="new 0 0 300 300" height="512" viewBox="0 0 300 300" width="512" xmlns="http://www.w3.org/2000/svg"><g><circle cx="148.985" cy="150" fill="#fff0fd" r="92"/><g fill="#4c241d"><path d="m52.985 214c-6.617 0-12-5.383-12-12s5.383-12 12-12 12 5.383 12 12-5.382 12-12 12zm0-16c-2.205 0-4 1.795-4 4s1.795 4 4 4 4-1.795 4-4-1.795-4-4-4z"/><path d="m248.985 214c-1.023 0-2.047-.391-2.828-1.172l-12-12c-1.562-1.562-1.562-4.094 0-5.656s4.094-1.562 5.656 0l12 12c1.562 1.562 1.562 4.094 0 5.656-.781.781-1.804 1.172-2.828 1.172z"/><path d="m236.985 214c-1.023 0-2.047-.391-2.828-1.172-1.562-1.562-1.562-4.094 0-5.656l12-12c1.562-1.562 4.094-1.562 5.656 0s1.562 4.094 0 5.656l-12 12c-.781.781-1.804 1.172-2.828 1.172z"/></g><g><path d="m112.985 198h-16v-11.681c0-2.385 1.934-4.319 4.319-4.319h7.362c2.385 0 4.319 1.934 4.319 4.319z" fill="#a9ba5a"/><path d="m112.985 202h-16c-2.209 0-4-1.791-4-4v-11.682c0-4.586 3.732-8.318 8.318-8.318h7.363c4.586 0 8.318 3.732 8.318 8.318v11.682c.001 2.209-1.79 4-3.999 4zm-12-8h8v-7.682c0-.176-.143-.318-.318-.318h-7.363c-.176 0-.318.143-.318.318v7.682z" fill="#4c241d"/></g><circle cx="65.382" cy="172.093" fill="#4c241d" r="4.276"/><circle cx="209.382" cy="52.093" fill="#4c241d" r="4.276"/><g><path d="m120.985 214c0-13.255-7.163-20-16-20s-16 6.745-16 20 7.163 28 16 28 16-14.745 16-28z" fill="#e66353"/><path d="m104.985 246c-11.787 0-20-16.865-20-32 0-16.578 10.045-24 20-24s20 7.422 20 24c0 15.135-8.212 32-20 32zm0-48c-7.402 0-12 6.131-12 16 0 12.699 6.711 24 12 24s12-11.301 12-24c0-9.869-4.597-16-12-16z" fill="#4c241d"/></g><g><path d="m184.985 190h-16v-11.681c0-2.385 1.934-4.319 4.319-4.319h7.362c2.385 0 4.319 1.934 4.319 4.319z" fill="#a9ba5a"/><path d="m184.985 194h-16c-2.211 0-4-1.791-4-4v-11.682c0-4.586 3.734-8.318 8.32-8.318h7.359c4.586 0 8.32 3.732 8.32 8.318v11.682c.001 2.209-1.788 4-3.999 4zm-12-8h8v-7.682c0-.176-.145-.318-.32-.318h-7.359c-.176 0-.32.143-.32.318v7.682z" fill="#4c241d"/></g><g><path d="m140.985 170h-16v-11.681c0-2.385 1.934-4.319 4.319-4.319h7.362c2.385 0 4.319 1.934 4.319 4.319z" fill="#a9ba5a"/><path d="m140.985 174h-16c-2.209 0-4-1.791-4-4v-11.682c0-4.586 3.732-8.318 8.318-8.318h7.363c4.588 0 8.318 3.732 8.318 8.318v11.682c.001 2.209-1.788 4-3.999 4zm-12-8h8v-7.682c0-.176-.143-.318-.318-.318h-7.363c-.176 0-.318.143-.318.318v7.682z" fill="#4c241d"/></g><g><path d="m148.985 186c0-13.255-7.163-20-16-20s-16 6.745-16 20 7.163 28 16 28 16-14.745 16-28z" fill="#e66353"/><path d="m132.985 218c-11.787 0-20-16.865-20-32 0-16.578 10.045-24 20-24 9.957 0 20 7.422 20 24 0 15.135-8.214 32-20 32zm0-48c-7.402 0-12 6.131-12 16 0 12.699 6.711 24 12 24s12-11.301 12-24c0-9.869-4.597-16-12-16z" fill="#4c241d"/></g><g><path d="m192.985 206c0-13.255-7.163-20-16-20s-16 6.745-16 20 7.163 28 16 28 16-14.745 16-28z" fill="#e66353"/><path d="m176.985 238c-11.785 0-20-16.865-20-32 0-16.578 10.043-24 20-24s20 7.422 20 24c0 15.135-8.214 32-20 32zm0-48c-7.402 0-12 6.131-12 16 0 12.699 6.711 24 12 24s12-11.301 12-24c0-9.869-4.597-16-12-16z" fill="#4c241d"/></g><g><path d="m204.985 214h-16v-11.681c0-2.385 1.934-4.319 4.319-4.319h7.362c2.385 0 4.319 1.934 4.319 4.319z" fill="#a9ba5a"/><path d="m204.985 218h-16c-2.211 0-4-1.791-4-4v-11.682c0-4.586 3.734-8.318 8.32-8.318h7.359c4.586 0 8.32 3.732 8.32 8.318v11.682c.001 2.209-1.788 4-3.999 4zm-12-8h8v-7.682c0-.176-.145-.318-.32-.318h-7.359c-.176 0-.32.143-.32.318v7.682z" fill="#4c241d"/></g><g><path d="m212.985 230c0-13.255-7.163-20-16-20s-16 6.745-16 20 7.163 28 16 28 16-14.745 16-28z" fill="#e66353"/><path d="m196.985 262c-11.785 0-20-16.865-20-32 0-16.578 10.043-24 20-24s20 7.422 20 24c0 15.135-8.214 32-20 32zm0-48c-7.402 0-12 6.131-12 16 0 12.699 6.711 24 12 24s12-11.301 12-24c0-9.869-4.597-16-12-16z" fill="#4c241d"/></g><path d="m136.312 156.498-7.951-.881.439-3.977c.074-.658.141-1.324.201-1.996 1.371-15.311-1.287-31.236-7.687-46.059l-1.586-3.672 7.344-3.172 1.586 3.672c6.928 16.041 9.801 33.312 8.312 49.943-.064.729-.139 1.449-.217 2.166z" fill="#4c241d"/><path d="m101.458 183.887c-4.865-9.098-7.793-19.342-8.465-29.627-.828-12.717 1.912-39.238 4.232-45.625l7.52 2.73c-1.783 4.908-4.545 30.439-3.768 42.375.598 9.154 3.203 18.273 7.535 26.373z" fill="#4c241d"/><g><path d="m44.985 118 71.828-34.826c1.574-.959 3.438-1.352 5.252-1.1l86.041 11.732 42.145-15.324 5.469 7.035-44 24c-1.219.445-2.523.594-3.816.408l-85.176-11.615-77.743 43.69" fill="#bf7e68"/><path d="m44.989 146c-1.398 0-2.758-.734-3.49-2.041-1.084-1.926-.398-4.363 1.527-5.445l77.742-43.689c.756-.428 1.633-.602 2.5-.477l85.174 11.615c.57.08 1.121.039 1.668-.123l39.562-21.582-.793-1.021-39.406 14.33c-.613.225-1.258.301-1.906.203l-86.043-11.732c-.912-.133-1.842.07-2.631.553l-72.163 35.009c-1.986.965-4.383.129-5.344-1.855-.963-1.986-.133-4.379 1.855-5.344l71.828-34.826c2.025-1.256 4.824-1.836 7.547-1.463l85.053 11.598 41.215-14.986c1.637-.594 3.457-.066 4.523 1.305l5.469 7.035c.723.926 1 2.123.758 3.271-.238 1.148-.969 2.133-2 2.695l-44 24c-.172.096-.355.178-.543.246-1.852.674-3.848.877-5.754.609l-83.82-11.43-76.572 43.031c-.62.35-1.292.514-1.956.514z" fill="#4c241d"/></g><path d="m180.95 174.529-7.93-1.059c.668-5.016.672-10.037 0-14.93-.871-6.404-2.617-10.652-4.305-14.762-1.715-4.182-3.336-8.131-3.719-13.494-.621-8.574 2.316-17.521 8.723-26.592l6.531 4.613c-5.309 7.521-7.758 14.723-7.277 21.406.293 4.086 1.551 7.148 3.145 11.027 1.789 4.361 3.816 9.303 4.832 16.719.766 5.604.766 11.346 0 17.072z" fill="#4c241d"/><path d="m192.985 198.115c-.332-11.525 1.07-22.709 4.16-33.242 1.434-4.877 2.879-8.436 4.148-11.574 1.641-4.039 2.934-7.23 3.75-11.977 1.609-9.35.336-19.395-3.781-29.857l7.445-2.93c4.66 11.844 6.078 23.332 4.219 34.143-.961 5.598-2.543 9.498-4.219 13.627-1.262 3.111-2.566 6.328-3.887 10.822-2.855 9.727-4.145 20.074-3.836 30.758z" fill="#4c241d"/><g><path d="m260.985 150h-28c-11.046 0-20-8.954-20-20h28c11.046 0 20 8.954 20 20z" fill="#a9ba5a"/><path d="m260.985 154h-28c-13.234 0-24-10.766-24-24 0-2.209 1.789-4 4-4h28c13.234 0 24 10.766 24 24 0 2.209-1.789 4-4 4zm-43.492-20c1.777 6.893 8.051 12 15.492 12h23.492c-1.777-6.893-8.051-12-15.492-12z" fill="#4c241d"/></g><g><path d="m104.985 42h39.2c15.464 0 28 12.536 28 28h-39.2c-15.464 0-28-12.536-28-28z" fill="#a9ba5a"/><path d="m172.185 74h-39.199c-17.645 0-32-14.355-32-32 0-2.209 1.791-4 4-4h39.199c17.645 0 32 14.355 32 32 0 2.209-1.789 4-4 4zm-62.866-28c1.91 11.336 11.795 20 23.666 20h34.867c-1.91-11.336-11.797-20-23.668-20z" fill="#4c241d"/></g><g><path d="m42.195 42.617 23.56 15.131c9.294 5.969 11.99 18.342 6.021 27.636l-23.56-15.131c-9.294-5.969-11.99-18.342-6.021-27.636z" fill="#a9ba5a"/><path d="m71.773 89.383c-.74 0-1.488-.205-2.158-.635l-23.561-15.131c-5.395-3.463-9.115-8.82-10.48-15.084s-.209-12.684 3.256-18.078c1.191-1.857 3.664-2.398 5.527-1.203l23.561 15.131c5.395 3.463 9.115 8.82 10.48 15.084s.209 12.684-3.256 18.078c-.764 1.189-2.053 1.838-3.369 1.838zm-27.954-40.967c-.891 2.688-1.049 5.574-.43 8.414.91 4.176 3.391 7.746 6.988 10.057l19.773 12.697c.891-2.688 1.049-5.574.43-8.414-.91-4.176-3.391-7.746-6.988-10.057z" fill="#4c241d"/></g><path d="m72.985 106c-2.209 0-4-1.791-4-4v-16c0-2.209 1.791-4 4-4s4 1.791 4 4v16c0 2.209-1.791 4-4 4z" fill="#4c241d"/><path d="m176.958 92.572c-2.145 0-3.918-1.701-3.992-3.861-.598-17.221-14.574-30.711-31.82-30.711h-16.16c-2.209 0-4-1.791-4-4s1.791-4 4-4h16.16c21.582 0 39.07 16.883 39.812 38.434.078 2.209-1.648 4.061-3.859 4.137-.047.001-.094.001-.141.001z" fill="#4c241d"/></g></svg>