<svg id="hand" enable-background="new 0 0 300 300" height="512" viewBox="0 0 300 300" width="512" xmlns="http://www.w3.org/2000/svg"><g><circle cx="150" cy="146" fill="#fff0fd" r="92"/><g><path d="m246 86.375c0-18.778-24-40.375-24-40.375-2.4 0-24 21.597-24 40.375s21.6 27.625 24 27.625 24-8.847 24-27.625z" fill="#a9ba5a"/><path d="m222 118c-4.727 0-28-10.617-28-31.625 0-19.187 21.703-44.375 28-44.375.988 0 1.941.365 2.676 1.027 1.035.93 25.324 23.022 25.324 43.348 0 21.008-23.273 31.625-28 31.625zm.344-7.977h.039zm-.813-58.929c-5.57 4.965-19.531 21.424-19.531 35.281 0 14.994 16.77 22.623 20 23.562 3.23-.939 20-8.568 20-23.562 0-13.594-14.766-29.605-20.469-35.281z" fill="#4c241d"/></g><path d="m222 98c-.773 0-1.547-.225-2.219-.672l-12-8c-1.84-1.225-2.336-3.709-1.109-5.547 1.223-1.842 3.703-2.34 5.547-1.109l9.781 6.521 9.781-6.521c1.844-1.23 4.324-.732 5.547 1.109 1.227 1.838.73 4.322-1.109 5.547l-12 8c-.672.447-1.446.672-2.219.672z" fill="#4c241d"/><g><circle cx="232" cy="168" fill="#ffce56" r="26"/><path d="m232 198c-16.543 0-30-13.457-30-30s13.457-30 30-30 30 13.457 30 30-13.457 30-30 30zm0-52c-12.129 0-22 9.869-22 22s9.871 22 22 22 22-9.869 22-22-9.871-22-22-22z" fill="#4c241d"/></g><circle cx="238.397" cy="160.093" fill="#4c241d" r="4.276"/><g><path d="m66 246 44-12 60 12 70.538-11.138c3.145-.497 5.462-3.207 5.462-6.392 0-3.574-2.897-6.471-6.471-6.471h-41.529v-4.614c0-8.497-6.889-15.386-15.386-15.386h-24.614s-8-20-36-16-24 12-56 12" fill="#ffded5"/><path d="m65.998 250.002c-1.76 0-3.371-1.17-3.857-2.949-.58-2.131.676-4.33 2.807-4.912l44-12c.596-.166 1.227-.188 1.838-.062l59.297 11.859 69.832-11.025c1.207-.191 2.086-1.219 2.086-2.441 0-1.363-1.109-2.471-2.473-2.471h-41.528c-2.211 0-4-1.791-4-4v-4.613c0-6.279-5.109-11.387-11.387-11.387h-24.613c-1.637 0-3.105-.996-3.715-2.514-.281-.676-7.352-17.018-31.719-13.527-11.525 1.646-17.258 3.939-22.801 6.158-7.564 3.025-14.708 5.882-33.765 5.882-2.209 0-4-1.791-4-4s1.791-4 4-4c17.516 0 23.67-2.461 30.795-5.312 5.701-2.279 12.164-4.865 24.639-6.646 24.477-3.496 35.457 10.141 38.961 15.959h22.219c10.691 0 19.387 8.697 19.387 19.387v.612h37.527c5.773 0 10.473 4.697 10.473 10.471 0 5.182-3.715 9.533-8.836 10.344l-70.539 11.137c-.469.076-.949.064-1.41-.029l-59.074-11.814-43.088 11.752c-.353.094-.708.141-1.056.141z" fill="#4c241d"/></g><g><path d="m202 226h-48c-.508 0-1.012-.098-1.484-.285l-20.002-8c-2.051-.822-3.049-3.148-2.229-5.201.822-2.051 3.164-3.043 5.199-2.229l19.286 7.715h47.23c2.211 0 4 1.791 4 4s-1.789 4-4 4z" fill="#4c241d"/></g><g><path d="m42 198h32v52l-32 4" fill="#ffce56"/><path d="m41.994 258c-1.986 0-3.711-1.48-3.963-3.504-.273-2.191 1.281-4.191 3.473-4.465l28.496-3.562v-44.469h-28c-2.209 0-4-1.791-4-4s1.791-4 4-4h32c2.209 0 4 1.791 4 4v52c0 2.018-1.502 3.719-3.504 3.969l-32 4c-.168.021-.336.031-.502.031z" fill="#4c241d"/></g><circle cx="194.018" cy="130.45" fill="#4c241d" r="4.276"/><path d="m138 82c-6.617 0-12-5.383-12-12s5.383-12 12-12 12 5.383 12 12-5.383 12-12 12zm0-16c-2.207 0-4 1.795-4 4s1.793 4 4 4 4-1.795 4-4-1.793-4-4-4z" fill="#4c241d"/><g><path d="m164.042 147.664c21.335-25.167 13.659-46.467 13.659-46.467s-22.154-5.014-43.991 20.262c-7.236 8.376-6.312 21.032 2.064 28.268 8.375 7.237 21.11 6.38 28.268-2.063z" fill="#bf7e68"/><path d="m148.891 158.629c-5.781 0-11.309-2.051-15.732-5.873-10.031-8.668-11.141-23.879-2.475-33.912 23.141-26.781 46.895-21.775 47.898-21.547 1.332.301 2.418 1.26 2.879 2.545.348.959 8.203 23.783-14.367 50.408v.002c-4.121 4.857-9.906 7.807-16.293 8.303-.641.049-1.278.074-1.91.074zm23.812-53.867c-6.867 0-21.309 2.346-35.965 19.312-5.783 6.693-5.043 16.844 1.648 22.627 3.285 2.836 7.473 4.217 11.793 3.877 4.242-.328 8.082-2.281 10.812-5.5 15.754-18.586 14.641-34.49 13.516-40.26-.523-.035-1.128-.056-1.804-.056zm-8.66 42.902h.039z" fill="#4c241d"/></g><g><path d="m153.934 131.709c-.688 0-1.387-.178-2.023-.553-1.906-1.119-2.539-3.57-1.422-5.475.348-.592 8.676-14.598 21.293-23.01 1.84-1.232 4.324-.73 5.547 1.109 1.227 1.838.73 4.322-1.109 5.547-11.109 7.404-18.758 20.279-18.832 20.408-.747 1.269-2.083 1.974-3.454 1.974z" fill="#4c241d"/></g><g fill="#4c241d"><path d="m222 118c-2.211 0-4-1.791-4-4v-40c0-2.209 1.789-4 4-4s4 1.791 4 4v40c0 2.209-1.789 4-4 4z"/><path d="m98 166c-1.023 0-2.047-.391-2.828-1.172l-12-12c-1.562-1.562-1.562-4.094 0-5.656s4.094-1.562 5.656 0l12 12c1.562 1.562 1.562 4.094 0 5.656-.781.781-1.805 1.172-2.828 1.172z"/><path d="m86 166c-1.023 0-2.047-.391-2.828-1.172-1.562-1.562-1.562-4.094 0-5.656l12-12c1.562-1.562 4.094-1.562 5.656 0s1.562 4.094 0 5.656l-12 12c-.781.781-1.805 1.172-2.828 1.172z"/></g></g></svg>