<svg id="Capa_1" enable-background="new 0 0 512 512" height="512" viewBox="0 0 512 512" width="512" xmlns="http://www.w3.org/2000/svg"><g><g><path clip-rule="evenodd" d="m269.95 178.926c28.628-51.872 96.145-68.312 154.194-58.42 42.29 7.2 30.272 41.923-5.896 41.327-108.106-1.701-160.884 86.85-162.244 147.707v-49.49-22.648c.001-23.045 5.131-42.461 13.946-58.476z" fill="#7fdbae" fill-rule="evenodd"/></g><g><path clip-rule="evenodd" d="m411.248 143.041c20.096-.765 19.87-10.261 19.87-20.976 33.815 9.637 21.173 40.307-12.868 39.768-108.106-1.701-160.884 86.85-162.244 147.707v-17.773-22.563c6.801-65.108 49.262-122.195 155.242-126.163z" fill="#3bc3a4" fill-rule="evenodd"/></g><g><path clip-rule="evenodd" d="m242.683 166.085c-27.267-49.491-91.638-65.138-146.995-55.727-40.334 6.86-28.883 39.967 5.612 39.428 103.089-1.644 153.401 82.797 154.705 140.82v-47.195-21.599c0-21.967-4.875-40.477-13.322-55.727z" fill="#7fdbae" fill-rule="evenodd"/></g><g><path clip-rule="evenodd" d="m107.99 131.844c-19.161-.709-18.934-9.779-18.934-19.983-32.256 9.184-20.21 38.436 12.245 37.926 103.089-1.644 153.401 82.797 154.705 140.82v-16.951-21.514c-6.492-62.076-46.968-116.5-148.016-120.298z" fill="#3bc3a4" fill-rule="evenodd"/></g><g><path clip-rule="evenodd" d="m242.059 265.861c-28.628-51.872-96.145-68.312-154.194-58.42-42.29 7.2-30.3 41.923 5.896 41.328 108.106-1.729 160.855 86.85 162.244 147.707v-49.491-22.676c0-23.016-5.131-42.433-13.946-58.448z" fill="#7fdbae" fill-rule="evenodd"/></g><g><path clip-rule="evenodd" d="m100.762 229.976c-20.096-.765-19.87-10.289-19.87-20.976-33.815 9.637-21.173 40.307 12.868 39.768 108.106-1.729 160.855 86.85 162.244 147.707v-17.773-22.563c-6.802-65.107-49.262-122.195-155.242-126.163z" fill="#3bc3a4" fill-rule="evenodd"/></g><g><path clip-rule="evenodd" d="m269.95 253.049c28.628-51.9 96.145-68.312 154.194-58.448 42.29 7.2 30.272 41.923-5.896 41.356-108.106-1.729-160.884 86.85-162.244 147.679v-49.463-22.676c.001-23.045 5.131-42.433 13.946-58.448z" fill="#7fdbae" fill-rule="evenodd"/></g><g><path clip-rule="evenodd" d="m411.248 217.135c20.096-.737 19.87-10.261 19.87-20.976 33.815 9.637 21.173 40.335-12.868 39.797-108.106-1.729-160.884 86.85-162.244 147.679v-17.744-22.563c6.801-65.137 49.262-122.196 155.242-126.193z" fill="#3bc3a4" fill-rule="evenodd"/></g><g><path clip-rule="evenodd" d="m269.95 303.815c28.628-51.872 96.145-68.312 154.194-58.42 42.29 7.2 30.272 41.894-5.896 41.327-108.106-1.729-160.884 86.85-162.244 147.707v-49.489-22.676c.001-23.045 5.131-42.434 13.946-58.449z" fill="#7fdbae" fill-rule="evenodd"/></g><g><path clip-rule="evenodd" d="m411.248 267.93c20.096-.765 19.87-10.289 19.87-20.976 33.815 9.637 21.173 40.307-12.868 39.769-108.106-1.729-160.884 86.85-162.244 147.707v-17.773-22.563c6.801-65.136 49.262-122.196 155.242-126.164z" fill="#3bc3a4" fill-rule="evenodd"/></g><g><path clip-rule="evenodd" d="m242.059 310.476c-28.628-51.872-96.145-68.312-154.194-58.42-42.29 7.2-30.3 41.923 5.896 41.327 108.106-1.701 160.855 86.85 162.244 147.707v-49.491-22.648c0-23.043-5.131-42.459-13.946-58.475z" fill="#7fdbae" fill-rule="evenodd"/></g><g><path clip-rule="evenodd" d="m100.762 274.591c-20.096-.765-19.87-10.261-19.87-20.976-33.815 9.637-21.173 40.307 12.868 39.768 108.106-1.701 160.855 86.85 162.244 147.707v-17.773-22.563c-6.802-65.107-49.262-122.194-155.242-126.163z" fill="#3bc3a4" fill-rule="evenodd"/></g><g><path clip-rule="evenodd" d="m244.894 400.53c-22.789-41.299-76.53-54.395-122.732-46.515-33.673 5.726-24.121 33.362 4.677 32.909 86.054-1.389 128.061 69.134 129.166 117.576v-39.4-18.028c0-18.367-4.082-33.787-11.111-46.542z" fill="#7fdbae" fill-rule="evenodd"/></g><g><path clip-rule="evenodd" d="m132.423 371.957c-16.015-.624-15.816-8.192-15.816-16.695-26.927 7.653-16.865 32.087 10.232 31.662 86.054-1.389 128.061 69.134 129.166 117.576v-14.144-17.971c-5.414-51.844-39.201-97.281-123.582-100.428z" fill="#3bc3a4" fill-rule="evenodd"/></g><g><path clip-rule="evenodd" d="m267.116 393.443c22.789-41.299 76.53-54.366 122.732-46.515 33.673 5.754 24.121 33.391-4.677 32.909-86.054-1.361-128.061 69.134-129.166 117.576v-39.372-18.056c0-18.338 4.081-33.786 11.111-46.542z" fill="#7fdbae" fill-rule="evenodd"/></g><g><path clip-rule="evenodd" d="m379.587 364.871c16.015-.595 15.816-8.163 15.816-16.695 26.927 7.682 16.865 32.115-10.232 31.662-86.054-1.361-128.061 69.134-129.166 117.576v-14.144-17.943c5.414-51.844 39.2-97.281 123.582-100.456z" fill="#3bc3a4" fill-rule="evenodd"/></g><g><path clip-rule="evenodd" d="m242.059 68.662c-28.628-51.871-96.144-68.312-154.194-58.419-42.29 7.2-30.3 41.923 5.896 41.327 108.106-1.729 160.855 86.85 162.244 147.707v-49.491-22.676c0-23.016-5.131-42.432-13.946-58.448z" fill="#7fdbae" fill-rule="evenodd"/></g><g><path clip-rule="evenodd" d="m100.762 32.777c-20.096-.765-19.87-10.289-19.87-20.976-33.815 9.638-21.173 40.308 12.869 39.769 108.106-1.729 160.855 86.85 162.244 147.707v-17.773-22.563c-6.803-65.108-49.263-122.195-155.243-126.164z" fill="#3bc3a4" fill-rule="evenodd"/></g><g><path clip-rule="evenodd" d="m268.76 96.243c26.162-47.45 87.868-62.473 140.957-53.431 38.662 6.576 27.693 38.323-5.385 37.784-98.837-1.559-147.08 79.395-148.327 135.009v-45.211-20.72c0-21.061 4.677-38.805 12.755-53.431z" fill="#7fdbae" fill-rule="evenodd"/></g><g><path clip-rule="evenodd" d="m397.926 63.419c18.367-.709 18.141-9.382 18.141-19.19 30.924 8.815 19.359 36.877-11.735 36.367-98.837-1.559-147.08 79.395-148.327 135.009v-16.214-20.635c6.236-59.525 45.011-111.709 141.921-115.337z" fill="#3bc3a4" fill-rule="evenodd"/></g><path d="m436.388 240.751c13.392-4.605 21.145-14.375 22.018-23.821 1.06-11.472-7.054-25.305-33.005-29.723-31.696-5.387-67.711-3.249-98.979 9.002 23.68-16.7 54.168-27.465 91.704-26.877.353.006.701.009 1.051.009 23.89-.001 38.026-13.546 39.229-26.501 1.064-11.474-7.046-25.308-33.001-29.727-45.44-7.743-99.772-.015-136.26 30.851 22.763-31.523 60.859-56.716 115.067-55.869 22.822.402 36.336-12.504 37.476-24.807.998-10.778-6.545-23.759-30.71-27.869-53.343-9.086-120.043 5.078-148.782 57.199-.67 1.214-1.309 2.447-1.93 3.691-2.475-11.206-6.352-21.665-11.642-31.274-8.557-15.481-20.628-28.592-35.875-38.967-3.424-2.33-8.089-1.443-10.42 1.981s-1.443 8.089 1.98 10.42c13.285 9.04 23.778 20.419 31.181 33.811 8.637 15.692 13.016 34.139 13.016 54.832v11.994c-23.421-49.828-74.464-96.34-154.867-95.033-16.239.252-24.612-7.526-25.108-12.877-.457-4.927 5.733-11.031 20.594-13.56 30.698-5.232 62.226-2.644 88.771 7.284 3.877 1.451 8.201-.518 9.651-4.397 1.451-3.88-.518-8.201-4.397-9.652-28.986-10.841-63.271-13.691-96.544-8.022-25.963 4.42-34.076 18.258-33.011 29.734 1.22 13.141 15.745 26.911 40.286 26.487 1.002-.016 1.984-.024 2.976-.024 68.327 0 112.905 37.98 135.071 80.205-34.582-35.114-90.913-44.204-137.496-36.286-24.985 4.249-32.793 17.618-31.77 28.713 1.155 12.517 14.773 25.617 37.802 25.616.316 0 .638-.002.957-.007.948-.015 1.888-.022 2.825-.022 72.938 0 117.415 45.438 135.253 91.047-34.762-45.263-99.872-57.3-152.891-48.263-25.963 4.42-34.076 18.257-33.012 29.733.71 7.65 5.943 15.503 15.025 20.653-11.839 6.314-15.787 15.743-15.025 23.962 1.219 13.141 15.763 26.874 40.284 26.487 61.293-.961 103.849 28.409 128.585 64.483-28.975-19.727-68.243-24.427-101.559-18.745-21.698 3.689-28.459 15.492-27.553 25.307 1.016 10.995 12.829 22.502 32.782 22.501.272 0 .549-.002.825-.006 81.151-1.316 120.515 65.012 121.547 110.248.093 4.079 3.428 7.329 7.496 7.329h.088c4.108-.047 7.414-3.391 7.414-7.499v-6.97c1.062-45.219 40.394-111.489 121.541-110.194 20.394.363 32.572-11.315 33.61-22.457.916-9.82-5.839-21.635-27.551-25.345-33.049-5.618-71.937-1.025-100.835 18.279 12.028-17.339 28.222-33.18 48.818-44.703 3.614-2.022 4.905-6.592 2.883-10.207-2.021-3.615-6.59-4.906-10.207-2.883-25.445 14.236-46.835 35.608-61.857 61.805-2.309 4.025-4.444 8.127-6.402 12.285v-11.846c0-20.692 4.38-39.14 13.012-54.824 27.736-50.257 93.499-63.661 146.369-54.651 14.85 2.528 21.04 8.623 20.584 13.542-.494 5.351-8.833 13.135-25.098 12.893-18.973-.308-37.218 2.101-54.247 7.17-3.97 1.182-6.23 5.358-5.049 9.328 1.183 3.97 5.357 6.231 9.328 5.049 15.56-4.632 32.275-6.84 49.727-6.549.337.005.669.008 1.002.008 23.924-.001 38.075-13.56 39.272-26.518.894-9.659-4.723-20.988-22.017-26.963zm-161.061-140.887c20.413-37.021 63.573-52.034 104.821-52.034 9.644 0 19.193.822 28.312 2.375 13.176 2.242 18.681 7.491 18.291 11.698-.424 4.575-7.564 11.199-21.566 11.199-.241 0-.487-.002-.733-.006-.992-.016-1.964-.023-2.945-.023-70.762 0-116.279 40.557-138.001 84.701v-8.1c0-18.847 3.976-35.604 11.82-49.805 0-.002.001-.003.001-.005zm-171.044 42.399c-1.022 0-2.067.008-3.1.025-15.33.222-23.126-7.013-23.586-11.989-.419-4.537 5.402-10.175 19.348-12.547 50.31-8.554 112.856 4.194 139.169 51.952.003.005.006.01.009.015 8.217 14.833 12.383 32.36 12.383 52.093v9.853c-22.366-46.427-69.911-89.402-144.223-89.402zm-35.752 86.132c-.457-4.927 5.733-11.031 20.594-13.56 52.867-9.011 118.625 4.394 146.364 54.643 5.699 10.354 9.545 21.91 11.502 34.517-.016-.028-.035-.053-.051-.081-25.214-42.578-74.386-60.794-121.965-61.98-1.567-.076-9.326-.075-11.642.004-6.613-.554-13.237-.778-19.695-.668-16.238.271-24.611-7.524-25.107-12.875zm179.974 221.731c-19.722-37.314-59.047-70.722-119.144-70.722-.872 0-1.76.007-2.641.021-11.47.159-18.078-5.039-18.432-8.876-.288-3.114 4.324-7.303 15.134-9.141 41.543-7.086 93.184 3.383 114.904 42.744 6.755 12.258 10.178 26.697 10.178 42.92v3.054zm0-69.199c-23.11-49.159-73.099-95.068-151.668-95.068-1.056 0-2.133.009-3.199.025-16.322.265-24.611-7.524-25.107-12.875-.457-4.927 5.733-11.031 20.594-13.56 52.872-9.011 118.632 4.393 146.368 54.65 8.634 15.69 13.012 34.145 13.012 54.852zm25.178 16.139c21.702-39.327 73.35-49.808 114.901-42.744 10.815 1.848 15.428 6.046 15.137 9.165-.352 3.766-6.723 8.857-17.818 8.857-.202 0-.408-.001-.614-.005-61.568-.958-101.779 32.869-121.784 70.721v-3.074c0-16.223 3.423-30.663 10.178-42.92zm-10.178-147.853v-11.811c0-20.707 4.379-39.163 13.012-54.852 27.736-50.257 93.499-63.661 146.369-54.65 14.854 2.529 21.042 8.63 20.584 13.554-.488 5.263-8.539 12.887-24.288 12.887-.27 0-.541-.002-.814-.007-79.938-1.244-130.901 44.707-154.484 94.214-.126.223-.255.442-.379.665zm154.864-20.755c-22.579-.364-43.992 3.089-63.627 10.26-.158.052-.309.109-.466.161-36.626 7.336-70.644 26.062-89.942 59.647-.002.001-.003.002-.005.003 1.651-13.422 5.719-27.815 12.242-41.947 27.742-50.166 93.458-63.568 146.315-54.587 14.851 2.528 21.04 8.63 20.584 13.555-.495 5.356-8.776 13.156-25.101 12.908z"/></g></svg>