<svg id="herbs" enable-background="new 0 0 300 300" height="512" viewBox="0 0 300 300" width="512" xmlns="http://www.w3.org/2000/svg"><g><g fill="#4c241d"><path d="m242.317 229.356c-6.617 0-12-5.383-12-12s5.383-12 12-12 12 5.383 12 12-5.383 12-12 12zm0-16c-2.207 0-4 1.795-4 4s1.793 4 4 4 4-1.795 4-4-1.793-4-4-4z"/><circle cx="214.714" cy="239.448" r="4.276"/><path d="m66.317 109.356c-1.023 0-2.047-.391-2.828-1.172l-12-12c-1.562-1.562-1.562-4.094 0-5.656s4.094-1.562 5.656 0l12 12c1.562 1.562 1.562 4.094 0 5.656-.781.781-1.805 1.172-2.828 1.172z"/><path d="m54.317 109.356c-1.023 0-2.047-.391-2.828-1.172-1.562-1.562-1.562-4.094 0-5.656l12-12c1.562-1.562 4.094-1.562 5.656 0s1.562 4.094 0 5.656l-12 12c-.781.781-1.805 1.172-2.828 1.172z"/><circle cx="82.714" cy="55.448" r="4.276"/></g><circle cx="150.317" cy="157.355" fill="#fff0fd" r="92"/><path d="m138.313 257.357c-.539 0-1.086-.111-1.613-.344-2.02-.893-2.934-3.254-2.043-5.275l76-172c.895-2.016 3.25-2.936 5.277-2.041 2.02.893 2.934 3.254 2.043 5.275l-76 172c-.66 1.495-2.125 2.385-3.664 2.385z" fill="#4c241d"/><g><path d="m229.97 60.778c-2.679 6.329-12.267 21.834-15.432 20.495-3.165-1.34 1.293-19.016 3.972-25.346 2.679-6.329 7.416-10.374 10.581-9.035 3.164 1.34 3.558 7.557.879 13.886z" fill="#a9ba5a"/><path d="m214.969 85.371c-.656 0-1.32-.131-1.988-.414-4.516-1.91-3.906-8.461-2.574-15.254 1.051-5.365 2.867-11.672 4.418-15.336 1.535-3.621 3.734-6.773 6.195-8.875 3.164-2.703 6.672-3.527 9.629-2.283 2.957 1.252 4.801 4.35 5.062 8.502.207 3.23-.523 7.004-2.059 10.627-1.551 3.664-4.812 9.357-7.934 13.846-3.362 4.843-6.964 9.187-10.749 9.187zm12.496-34.64c-1.09.453-3.492 2.549-5.273 6.756-1.746 4.121-3.523 10.979-4.328 15.932 2.992-4.027 6.676-10.078 8.422-14.199v-.002c1.781-4.206 1.613-7.39 1.179-8.487z" fill="#4c241d"/></g><g><path d="m228.966 102.767c-6.37 2.581-24.113 6.765-25.404 3.58s14.361-12.532 20.731-15.113 12.58-2.091 13.87 1.093-2.827 7.859-9.197 10.44z" fill="#a9ba5a"/><path d="m207.45 111.506c-3.609 0-6.477-.895-7.594-3.66-1.844-4.537 3.219-8.738 8.965-12.602 4.539-3.051 10.281-6.225 13.969-7.719 8.844-3.578 16.852-2.186 19.082 3.295 2.223 5.494-2.574 12.076-11.402 15.654-3.688 1.494-10.02 3.213-15.402 4.182-2.669.479-5.294.85-7.618.85zm24.64-17.934c-1.562 0-3.734.33-6.297 1.367-4.145 1.682-10.25 5.271-14.324 8.203 4.965-.73 11.848-2.402 15.992-4.082 4.234-1.717 6.367-4.086 6.84-5.168-.429-.177-1.191-.32-2.211-.32zm-3.125 9.196h.039z" fill="#4c241d"/></g><g><path d="m188.109 83.779c2.581 6.37 11.929 22.021 15.113 20.731 3.185-1.29-.999-19.034-3.58-25.404s-7.255-10.487-10.44-9.197c-3.184 1.29-3.674 7.5-1.093 13.87z" fill="#a9ba5a"/><path d="m202.805 108.602c-3.809 0-7.371-4.426-10.684-9.354-3.051-4.535-6.223-10.279-7.719-13.967-1.477-3.645-2.152-7.43-1.898-10.656.328-4.148 2.223-7.219 5.199-8.424 2.969-1.215 6.473-.316 9.59 2.432 2.43 2.141 4.578 5.326 6.055 8.973.109.266 10.148 27.055 1.379 30.611-.648.262-1.289.385-1.922.385zm.918-7.84h.039zm-12.957-26.99c-.449 1.09-.664 4.271 1.051 8.506 1.68 4.145 5.27 10.248 8.199 14.322-.73-4.965-2.402-11.846-4.082-15.992-1.715-4.235-4.086-6.366-5.168-6.836z" fill="#4c241d"/></g><g><path d="m218.052 132.552c-6.37 2.581-24.113 6.765-25.404 3.58-1.29-3.185 14.361-12.532 20.731-15.113s12.58-2.091 13.87 1.093c1.29 3.185-2.828 7.859-9.197 10.44z" fill="#a9ba5a"/><path d="m196.536 141.291c-3.609 0-6.477-.895-7.594-3.66-1.844-4.537 3.219-8.738 8.965-12.602 4.539-3.051 10.281-6.225 13.969-7.719 3.641-1.477 7.418-2.154 10.656-1.895 4.148.326 7.219 2.221 8.422 5.193 1.207 2.973.32 6.469-2.43 9.592-2.137 2.43-5.324 4.582-8.969 6.059h-.004c-3.688 1.494-10.02 3.213-15.398 4.182-2.668.479-5.297.85-7.617.85zm24.636-17.934c-1.559 0-3.734.33-6.289 1.367-4.148 1.682-10.254 5.271-14.328 8.203 4.965-.732 11.848-2.402 15.992-4.082 4.238-1.717 6.367-4.088 6.84-5.168-.433-.177-1.191-.32-2.215-.32zm-3.121 9.196h.039z" fill="#4c241d"/></g><g><path d="m173.194 113.564c2.581 6.37 11.929 22.021 15.113 20.731s-.999-19.034-3.58-25.404-7.255-10.487-10.44-9.197c-3.184 1.29-3.674 7.5-1.093 13.87z" fill="#a9ba5a"/><path d="m187.891 138.387c-3.812 0-7.375-4.426-10.688-9.354-3.051-4.537-6.223-10.281-7.715-13.969-1.477-3.645-2.152-7.43-1.898-10.654.328-4.148 2.223-7.219 5.199-8.424 2.973-1.209 6.473-.314 9.59 2.432 2.43 2.141 4.578 5.326 6.055 8.973.109.266 10.148 27.055 1.379 30.611-.648.262-1.289.385-1.922.385zm.914-7.84h.039zm-12.953-26.99c-.449 1.088-.664 4.27 1.051 8.506v.002c1.68 4.146 5.27 10.254 8.203 14.326-.73-4.965-2.406-11.85-4.086-15.998-1.715-4.235-4.086-6.366-5.168-6.836z" fill="#4c241d"/></g><g><path d="m203.137 166.337c-6.37 2.581-24.113 6.765-25.404 3.58s14.361-12.532 20.731-15.113 12.58-2.091 13.87 1.093-2.827 7.859-9.197 10.44z" fill="#a9ba5a"/><path d="m182.294 175.01c-3.969 0-7.188-.928-8.27-3.59-3.551-8.768 22.672-20.215 22.938-20.324 3.648-1.479 7.465-2.141 10.656-1.896 4.148.328 7.219 2.221 8.422 5.197 1.207 2.971.32 6.469-2.43 9.59-2.141 2.43-5.324 4.58-8.973 6.057-.226.091-13.25 4.966-22.343 4.966zm23.968-17.867c-1.562 0-3.734.33-6.293 1.367-4.148 1.682-10.254 5.271-14.328 8.203 4.965-.732 11.848-2.404 15.992-4.084h.004c4.234-1.715 6.367-4.088 6.836-5.168-.433-.176-1.191-.318-2.211-.318z" fill="#4c241d"/></g><g><path d="m158.28 147.349c2.581 6.37 11.929 22.021 15.113 20.731s-.999-19.034-3.58-25.404-7.255-10.487-10.44-9.197-3.674 7.5-1.093 13.87z" fill="#a9ba5a"/><path d="m173.2 172.117c-8.477 0-18.527-23.014-18.629-23.266 0 0 0 0 0-.002-3.574-8.83-2.188-16.854 3.297-19.078 5.504-2.225 12.074 2.574 15.652 11.402.109.268 10.148 27.057 1.379 30.613-.555.226-1.125.331-1.699.331zm-11.215-26.267c1.684 4.148 5.273 10.252 8.207 14.324-.73-4.965-2.406-11.848-4.086-15.996-1.715-4.234-4.086-6.367-5.168-6.838-.449 1.092-.664 4.275 1.047 8.51z" fill="#4c241d"/></g><g><path d="m188.222 200.122c-6.37 2.581-24.113 6.765-25.404 3.58-1.29-3.185 14.361-12.532 20.731-15.113s12.58-2.091 13.87 1.093c1.291 3.185-2.827 7.859-9.197 10.44z" fill="#a9ba5a"/><path d="m167.379 208.795c-3.969 0-7.188-.928-8.27-3.59-3.547-8.764 22.668-20.215 22.934-20.324 3.652-1.48 7.461-2.145 10.66-1.896 4.148.328 7.219 2.221 8.422 5.197 1.207 2.971.32 6.469-2.43 9.592-2.141 2.428-5.324 4.578-8.969 6.055-.186.075-13.241 4.966-22.347 4.966zm23.969-17.867c-1.562 0-3.738.33-6.301 1.367-4.145 1.682-10.246 5.271-14.32 8.203 4.965-.732 11.848-2.404 15.992-4.084 4.234-1.715 6.367-4.088 6.84-5.168-.433-.178-1.191-.318-2.211-.318z" fill="#4c241d"/></g><g><path d="m143.365 181.134c2.581 6.37 11.929 22.021 15.113 20.731 3.185-1.29-.999-19.034-3.58-25.404s-7.255-10.487-10.44-9.197c-3.184 1.291-3.674 7.5-1.093 13.87z" fill="#a9ba5a"/><path d="m158.059 205.957c-3.809 0-7.371-4.426-10.684-9.354-3.051-4.535-6.223-10.279-7.719-13.967 0 0 0 0 0-.002-3.574-8.83-2.188-16.854 3.297-19.078 5.504-2.223 12.074 2.574 15.652 11.402 1.496 3.686 3.215 10.02 4.184 15.4 1.223 6.814 1.734 13.373-2.812 15.213-.644.263-1.285.386-1.918.386zm-10.988-26.322c1.684 4.146 5.273 10.252 8.203 14.324-.73-4.965-2.402-11.848-4.082-15.996-1.715-4.234-4.086-6.367-5.168-6.838-.449 1.092-.664 4.275 1.047 8.51z" fill="#4c241d"/></g><g><path d="m176.222 228.122c-6.37 2.581-24.113 6.765-25.404 3.58-1.29-3.185 14.361-12.532 20.731-15.113s12.58-2.091 13.87 1.093c1.291 3.185-2.827 7.859-9.197 10.44z" fill="#a9ba5a"/><path d="m155.379 236.795c-3.969 0-7.188-.928-8.27-3.59-3.547-8.764 22.668-20.215 22.934-20.324 3.652-1.479 7.465-2.15 10.66-1.896 4.148.328 7.219 2.221 8.422 5.197 1.207 2.971.32 6.469-2.43 9.592-2.141 2.428-5.324 4.578-8.969 6.055-.186.075-13.241 4.966-22.347 4.966zm23.969-17.867c-1.562 0-3.738.33-6.301 1.367-4.145 1.682-10.246 5.271-14.32 8.203 4.965-.732 11.848-2.404 15.992-4.084 4.234-1.715 6.367-4.088 6.84-5.168-.433-.178-1.191-.318-2.211-.318z" fill="#4c241d"/></g><g><path d="m131.365 209.134c2.581 6.37 11.929 22.021 15.113 20.731 3.185-1.29-.999-19.034-3.58-25.404s-7.255-10.487-10.44-9.197c-3.184 1.291-3.674 7.5-1.093 13.87z" fill="#a9ba5a"/><path d="m146.059 233.957c-3.809 0-7.371-4.426-10.684-9.354-3.051-4.535-6.223-10.279-7.719-13.967 0 0 0 0 0-.002-3.574-8.83-2.188-16.854 3.297-19.078 5.504-2.221 12.074 2.574 15.652 11.402 1.496 3.686 3.215 10.02 4.184 15.4 1.223 6.814 1.734 13.373-2.812 15.213-.644.263-1.285.386-1.918.386zm-10.988-26.322c1.684 4.146 5.273 10.252 8.203 14.324-.73-4.965-2.402-11.848-4.082-15.996-1.715-4.234-4.086-6.367-5.168-6.838-.449 1.092-.664 4.275 1.047 8.51z" fill="#4c241d"/></g><path d="m58.313 257.357c-.539 0-1.086-.111-1.613-.344-2.02-.893-2.934-3.254-2.043-5.275l76-172c.895-2.016 3.25-2.936 5.277-2.041 2.02.893 2.934 3.254 2.043 5.275l-76 172c-.66 1.495-2.125 2.385-3.664 2.385z" fill="#4c241d"/><g><path d="m149.97 60.778c-2.679 6.329-12.267 21.834-15.432 20.495-3.165-1.34 1.293-19.016 3.972-25.346 2.679-6.329 7.416-10.374 10.581-9.035 3.164 1.34 3.558 7.557.879 13.886z" fill="#a9ba5a"/><path d="m134.969 85.371c-.656 0-1.32-.131-1.988-.414-4.516-1.91-3.906-8.461-2.574-15.254 1.051-5.365 2.867-11.672 4.418-15.336 1.535-3.621 3.734-6.773 6.195-8.875 3.168-2.703 6.676-3.527 9.629-2.283 2.957 1.252 4.801 4.35 5.062 8.502.207 3.23-.523 7.004-2.059 10.627-1.551 3.664-4.812 9.357-7.934 13.846-3.362 4.843-6.964 9.187-10.749 9.187zm12.496-34.64c-1.09.453-3.492 2.549-5.273 6.756-1.746 4.121-3.523 10.979-4.328 15.932 2.992-4.027 6.676-10.078 8.422-14.199v-.002c1.781-4.206 1.613-7.39 1.179-8.487z" fill="#4c241d"/></g><g><path d="m148.966 102.767c-6.37 2.581-24.113 6.765-25.404 3.58s14.361-12.532 20.731-15.113 12.58-2.091 13.87 1.093-2.827 7.859-9.197 10.44z" fill="#a9ba5a"/><path d="m127.45 111.506c-3.609 0-6.477-.895-7.594-3.66-1.844-4.537 3.219-8.738 8.965-12.602 4.539-3.051 10.281-6.225 13.969-7.719 8.844-3.578 16.852-2.186 19.082 3.295 2.223 5.494-2.574 12.076-11.402 15.654-3.688 1.494-10.02 3.213-15.402 4.182-2.669.479-5.294.85-7.618.85zm24.64-17.934c-1.562 0-3.734.33-6.297 1.367-4.145 1.682-10.25 5.271-14.324 8.203 4.965-.73 11.848-2.402 15.992-4.082 4.234-1.717 6.367-4.086 6.84-5.168-.429-.177-1.191-.32-2.211-.32zm-3.125 9.196h.039z" fill="#4c241d"/></g><g><path d="m108.109 83.779c2.581 6.37 11.929 22.021 15.113 20.731 3.185-1.29-.999-19.034-3.58-25.404s-7.255-10.487-10.44-9.197c-3.184 1.29-3.674 7.5-1.093 13.87z" fill="#a9ba5a"/><path d="m122.805 108.602c-3.809 0-7.371-4.426-10.684-9.354-3.051-4.535-6.223-10.279-7.719-13.967-1.477-3.645-2.152-7.43-1.898-10.656.328-4.148 2.223-7.219 5.199-8.424 2.969-1.215 6.473-.316 9.59 2.432 2.43 2.141 4.578 5.326 6.055 8.973.109.266 10.148 27.055 1.379 30.611-.648.262-1.289.385-1.922.385zm.918-7.84h.039zm-12.957-26.99c-.449 1.09-.664 4.271 1.051 8.506 1.68 4.145 5.27 10.248 8.199 14.322-.73-4.965-2.402-11.846-4.082-15.992-1.715-4.235-4.086-6.366-5.168-6.836z" fill="#4c241d"/></g><g><path d="m138.052 132.552c-6.37 2.581-24.113 6.765-25.404 3.58s14.361-12.532 20.731-15.113 12.58-2.091 13.87 1.093c1.29 3.185-2.828 7.859-9.197 10.44z" fill="#a9ba5a"/><path d="m116.536 141.291c-3.609 0-6.477-.895-7.594-3.66-1.844-4.537 3.219-8.738 8.965-12.602 4.539-3.051 10.281-6.225 13.969-7.719 3.645-1.477 7.426-2.154 10.656-1.895 4.148.326 7.219 2.221 8.422 5.193 1.207 2.973.32 6.469-2.43 9.592-2.137 2.43-5.324 4.582-8.969 6.059h-.004c-3.688 1.494-10.02 3.213-15.398 4.182-2.668.479-5.297.85-7.617.85zm24.636-17.934c-1.559 0-3.734.33-6.289 1.367-4.148 1.682-10.254 5.271-14.328 8.203 4.965-.732 11.848-2.402 15.992-4.082 4.238-1.717 6.367-4.088 6.84-5.168-.433-.177-1.191-.32-2.215-.32zm-3.121 9.196h.039z" fill="#4c241d"/></g><g><path d="m93.194 113.564c2.581 6.37 11.929 22.021 15.113 20.731s-.999-19.034-3.58-25.404-7.255-10.487-10.44-9.197c-3.184 1.29-3.674 7.5-1.093 13.87z" fill="#a9ba5a"/><path d="m107.891 138.387c-3.812 0-7.375-4.426-10.688-9.354-3.051-4.537-6.223-10.281-7.715-13.969-1.477-3.645-2.152-7.43-1.898-10.654.328-4.148 2.223-7.219 5.199-8.424 2.973-1.209 6.473-.314 9.59 2.432 2.43 2.141 4.578 5.326 6.055 8.973.109.266 10.148 27.055 1.379 30.611-.648.262-1.289.385-1.922.385zm.914-7.84h.039zm-12.953-26.99c-.449 1.088-.664 4.27 1.051 8.506v.002c1.68 4.146 5.27 10.254 8.203 14.326-.73-4.965-2.406-11.85-4.086-15.998-1.715-4.235-4.086-6.366-5.168-6.836z" fill="#4c241d"/></g><g><path d="m123.137 166.337c-6.37 2.581-24.113 6.765-25.404 3.58-1.29-3.185 14.361-12.532 20.731-15.113s12.58-2.091 13.87 1.093-2.827 7.859-9.197 10.44z" fill="#a9ba5a"/><path d="m102.294 175.01c-3.969 0-7.188-.928-8.27-3.59-3.551-8.768 22.672-20.215 22.938-20.324 3.648-1.479 7.465-2.141 10.656-1.896 4.148.328 7.219 2.221 8.422 5.197 1.207 2.971.32 6.469-2.43 9.59-2.141 2.43-5.324 4.58-8.973 6.057-.226.091-13.25 4.966-22.343 4.966zm23.968-17.867c-1.562 0-3.734.33-6.293 1.367-4.148 1.682-10.254 5.271-14.328 8.203 4.965-.732 11.848-2.404 15.992-4.084h.004c4.234-1.715 6.367-4.088 6.836-5.168-.433-.176-1.191-.318-2.211-.318z" fill="#4c241d"/></g><g><path d="m78.28 147.349c2.581 6.37 11.929 22.021 15.113 20.731s-.999-19.034-3.58-25.404-7.255-10.487-10.44-9.197-3.674 7.5-1.093 13.87z" fill="#a9ba5a"/><path d="m93.2 172.117c-8.477 0-18.527-23.014-18.629-23.266 0 0 0 0 0-.002-3.574-8.83-2.188-16.854 3.297-19.078 5.504-2.225 12.074 2.574 15.652 11.402.109.268 10.148 27.057 1.379 30.613-.555.226-1.125.331-1.699.331zm-11.215-26.267c1.684 4.148 5.273 10.252 8.207 14.324-.73-4.965-2.406-11.848-4.086-15.996-1.715-4.234-4.086-6.367-5.168-6.838-.449 1.092-.664 4.275 1.047 8.51z" fill="#4c241d"/></g><g><path d="m108.222 200.122c-6.37 2.581-24.113 6.765-25.404 3.58-1.29-3.185 14.361-12.532 20.731-15.113s12.58-2.091 13.87 1.093c1.291 3.185-2.827 7.859-9.197 10.44z" fill="#a9ba5a"/><path d="m87.379 208.795c-3.969 0-7.188-.928-8.27-3.59-3.547-8.764 22.668-20.215 22.934-20.324 3.652-1.48 7.453-2.145 10.66-1.896 4.148.328 7.219 2.221 8.422 5.197 1.207 2.971.32 6.469-2.43 9.592-2.141 2.428-5.324 4.578-8.969 6.055-.186.075-13.241 4.966-22.347 4.966zm23.969-17.867c-1.562 0-3.738.33-6.301 1.367-4.145 1.682-10.246 5.271-14.32 8.203 4.965-.732 11.848-2.404 15.992-4.084 4.234-1.715 6.367-4.088 6.84-5.168-.433-.178-1.191-.318-2.211-.318z" fill="#4c241d"/></g><g><path d="m63.365 181.134c2.581 6.37 11.929 22.021 15.113 20.731 3.185-1.29-.999-19.034-3.58-25.404s-7.255-10.487-10.44-9.197c-3.184 1.291-3.674 7.5-1.093 13.87z" fill="#a9ba5a"/><path d="m78.059 205.957c-3.809 0-7.371-4.426-10.684-9.354-3.051-4.535-6.223-10.279-7.719-13.967 0 0 0 0 0-.002-3.574-8.83-2.188-16.854 3.297-19.078 5.5-2.223 12.074 2.574 15.652 11.402 1.496 3.686 3.215 10.02 4.184 15.4 1.223 6.814 1.734 13.373-2.812 15.213-.644.263-1.285.386-1.918.386zm-10.988-26.322c1.684 4.146 5.273 10.252 8.203 14.324-.73-4.965-2.402-11.848-4.082-15.996-1.715-4.234-4.086-6.367-5.168-6.838-.449 1.092-.664 4.275 1.047 8.51z" fill="#4c241d"/></g><g><path d="m96.222 228.122c-6.37 2.581-24.113 6.765-25.404 3.58-1.29-3.185 14.361-12.532 20.731-15.113s12.58-2.091 13.87 1.093c1.291 3.185-2.827 7.859-9.197 10.44z" fill="#a9ba5a"/><path d="m75.379 236.795c-3.969 0-7.188-.928-8.27-3.59-3.547-8.764 22.668-20.215 22.934-20.324 3.652-1.479 7.457-2.15 10.66-1.896 4.148.328 7.219 2.221 8.422 5.197 1.207 2.971.32 6.469-2.43 9.592-2.141 2.428-5.324 4.578-8.969 6.055-.186.075-13.241 4.966-22.347 4.966zm23.969-17.867c-1.562 0-3.738.33-6.301 1.367-4.145 1.682-10.246 5.271-14.32 8.203 4.965-.732 11.848-2.404 15.992-4.084 4.234-1.715 6.367-4.088 6.84-5.168-.433-.178-1.191-.318-2.211-.318z" fill="#4c241d"/></g><g><path d="m51.365 209.134c2.581 6.37 11.929 22.021 15.113 20.731 3.185-1.29-.999-19.034-3.58-25.404s-7.255-10.487-10.44-9.197c-3.184 1.291-3.674 7.5-1.093 13.87z" fill="#a9ba5a"/><path d="m66.059 233.957c-3.809 0-7.371-4.426-10.684-9.354-3.051-4.535-6.223-10.279-7.719-13.967 0 0 0 0 0-.002-3.574-8.83-2.188-16.854 3.297-19.078 5.5-2.221 12.074 2.574 15.652 11.402 1.496 3.686 3.215 10.02 4.184 15.4 1.223 6.814 1.734 13.373-2.812 15.213-.644.263-1.285.386-1.918.386zm-10.988-26.322c1.684 4.146 5.273 10.252 8.203 14.324-.73-4.965-2.402-11.848-4.082-15.996-1.715-4.234-4.086-6.367-5.168-6.838-.449 1.092-.664 4.275 1.047 8.51z" fill="#4c241d"/></g></g></svg>