<svg id="jar-spices" enable-background="new 0 0 300 300" height="512" viewBox="0 0 300 300" width="512" xmlns="http://www.w3.org/2000/svg"><g><path d="m53.102 104.219c-1.023 0-2.047-.391-2.828-1.172l-12-12c-1.562-1.562-1.562-4.094 0-5.656s4.094-1.562 5.656 0l12 12c1.562 1.562 1.562 4.094 0 5.656-.782.781-1.805 1.172-2.828 1.172z" fill="#4c241d"/><path d="m41.102 104.219c-1.023 0-2.047-.391-2.828-1.172-1.562-1.562-1.562-4.094 0-5.656l12-12c1.562-1.562 4.094-1.562 5.656 0s1.562 4.094 0 5.656l-12 12c-.782.781-1.805 1.172-2.828 1.172z" fill="#4c241d"/><circle cx="170.898" cy="124" fill="#fff0fd" r="92"/><path d="m232.898 96c-7.719 0-14-6.281-14-14s6.281-14 14-14 14 6.281 14 14-6.281 14-14 14zm0-20c-3.309 0-6 2.691-6 6s2.691 6 6 6 6-2.691 6-6-2.691-6-6-6z" fill="#4c241d"/><circle cx="201.041" cy="42.391" fill="#4c241d" r="4.276"/><circle cx="237.041" cy="126.391" fill="#4c241d" r="4.276"/><g><path d="m182.898 98.778v-18.778h-88v18.778c0 7.302-5.92 13.222-13.222 13.222-8.161 0-14.778 6.616-14.778 14.778v122.445c0 8.161 6.616 14.778 14.778 14.778h114.445c8.161 0 14.778-6.616 14.778-14.778v-122.445c0-8.161-6.616-14.778-14.778-14.778-7.303 0-13.223-5.92-13.223-13.222z" fill="#ffce56"/><path d="m196.121 268h-114.445c-10.355 0-18.777-8.424-18.777-18.777v-122.446c0-10.354 8.422-18.777 18.777-18.777 5.086 0 9.223-4.137 9.223-9.223v-18.777c0-2.209 1.789-4 4-4h88c2.211 0 4 1.791 4 4v18.777c0 5.086 4.137 9.223 9.223 9.223 10.355 0 18.777 8.424 18.777 18.777v122.445c-.001 10.354-8.422 18.778-18.778 18.778zm-97.223-184v14.777c0 9.496-7.727 17.223-17.223 17.223-5.941 0-10.777 4.834-10.777 10.777v122.445c0 5.943 4.836 10.777 10.777 10.777h114.445c5.941 0 10.777-4.834 10.777-10.777v-122.445c0-5.943-4.836-10.777-10.777-10.777-9.496 0-17.223-7.727-17.223-17.223v-14.777z" fill="#4c241d"/></g><g><circle cx="210.898" cy="204" fill="#fff" r="44"/><path d="m210.898 252c-26.469 0-48-21.533-48-48s21.531-48 48-48 48 21.533 48 48-21.531 48-48 48zm0-88c-22.055 0-40 17.943-40 40s17.945 40 40 40 40-17.943 40-40-17.945-40-40-40z" fill="#4c241d"/></g><g><path d="m187.152 80h-96.507c-2.069 0-3.747-1.677-3.747-3.747v-12.506c0-2.069 1.677-3.747 3.747-3.747h96.507c2.069 0 3.747 1.677 3.747 3.747v12.507c-.001 2.069-1.678 3.746-3.747 3.746z" fill="#b5a19c"/><path d="m187.152 84h-96.507c-4.27 0-7.746-3.475-7.746-7.746v-12.508c0-4.271 3.477-7.746 7.746-7.746h96.508c4.27 0 7.746 3.475 7.746 7.746v12.508c-.001 4.271-3.477 7.746-7.747 7.746zm-.254-20.254-96.253.254.254 12.254 96-.254v-12.254z" fill="#4c241d"/></g><g><path d="m183.979 104c-.691-1.603-1.08-3.366-1.08-5.222v-18.778h-88v18.778c0 1.856-.389 3.619-1.08 5.222z" fill="#c1dbdc"/><path d="m183.977 108h-90.157c-1.344 0-2.598-.676-3.34-1.799-.738-1.123-.867-2.541-.336-3.777.5-1.168.754-2.395.754-3.646v-18.778c0-2.209 1.789-4 4-4h88c2.211 0 4 1.791 4 4v18.777c0 1.252.254 2.479.754 3.646.531 1.236.402 2.654-.336 3.777-.742 1.124-1.996 1.8-3.339 1.8zm-85.122-8h80.086c-.027-.406-.043-.812-.043-1.223v-14.777h-80v14.777c0 .411-.015.817-.043 1.223z" fill="#4c241d"/></g><g><path d="m240.898 204c0-4.418-3.582-8-8-8h-2.687l1.9-1.9c3.124-3.124 3.124-8.189 0-11.314-3.124-3.124-8.189-3.124-11.313 0l-1.9 1.9v-2.686c0-4.418-3.582-8-8-8s-8 3.582-8 8v2.686l-1.899-1.899c-3.124-3.124-8.189-3.124-11.314 0-3.124 3.124-3.124 8.19 0 11.314l1.9 1.9h-2.687c-4.418 0-8 3.582-8 8s3.582 8 8 8h2.686l-1.899 1.899c-3.124 3.124-3.124 8.189 0 11.314s8.189 3.124 11.314 0l1.899-1.899v2.685c0 4.418 3.582 8 8 8s8-3.582 8-8v-2.687l1.9 1.9c3.124 3.124 8.189 3.124 11.313 0s3.124-8.189 0-11.314l-1.899-1.899h2.686c4.419 0 8-3.582 8-8z" fill="#e66353"/><path d="m210.898 238c-4.957 0-9.223-3.021-11.051-7.322-4.336 1.746-9.488.867-12.992-2.637-3.504-3.506-4.383-8.658-2.637-12.99-4.297-1.828-7.32-6.092-7.32-11.051s3.023-9.225 7.324-11.051c-1.75-4.332-.871-9.484 2.633-12.99 3.504-3.508 8.66-4.391 12.992-2.637 1.828-4.301 6.094-7.322 11.051-7.322s9.223 3.021 11.051 7.322c4.332-1.756 9.484-.871 12.992 2.637 3.504 3.506 4.383 8.658 2.637 12.99 4.297 1.828 7.32 6.092 7.32 11.051s-3.023 9.225-7.324 11.051c1.75 4.334.871 9.486-2.633 12.99-3.508 3.506-8.656 4.385-12.992 2.637-1.828 4.301-6.094 7.322-11.051 7.322zm-8-18.686c.516 0 1.035.1 1.531.305 1.496.619 2.469 2.078 2.469 3.695v2.686c0 2.205 1.793 4 4 4s4-1.795 4-4v-2.688c0-1.619.977-3.076 2.469-3.695 1.5-.615 3.219-.277 4.359.869l1.898 1.9c1.566 1.561 4.102 1.555 5.66-.002 1.559-1.559 1.559-4.098-.004-5.66l-1.895-1.893c-1.148-1.145-1.492-2.865-.871-4.361.617-1.496 2.078-2.471 3.695-2.471h2.688c2.207 0 4-1.795 4-4s-1.793-4-4-4h-2.688c-1.617 0-3.078-.975-3.695-2.471-.621-1.494-.277-3.215.867-4.359l1.902-1.9c1.559-1.557 1.559-4.096 0-5.654-1.566-1.562-4.102-1.555-5.66 0l-1.898 1.898c-1.145 1.145-2.863 1.486-4.359.867s-2.469-2.078-2.469-3.695v-2.685c0-2.205-1.793-4-4-4s-4 1.795-4 4v2.686c0 1.617-.973 3.076-2.469 3.695-1.492.621-3.211.279-4.359-.867l-1.898-1.898c-1.566-1.562-4.102-1.555-5.66 0-1.559 1.559-1.559 4.098 0 5.656l1.902 1.898c1.145 1.145 1.488 2.865.867 4.359-.617 1.496-2.078 2.471-3.695 2.471h-2.688c-2.207 0-4 1.795-4 4s1.793 4 4 4h2.688c1.617 0 3.078.975 3.695 2.471.621 1.496.277 3.217-.871 4.361l-1.902 1.898c-1.555 1.557-1.555 4.096.004 5.654 1.566 1.561 4.102 1.557 5.66 0l1.898-1.898c.767-.765 1.79-1.172 2.829-1.172z" fill="#4c241d"/></g><g fill="#4c241d"><circle cx="210.898" cy="204" r="8"/><circle cx="93.041" cy="130.391" r="4.276"/><circle cx="97.041" cy="170.391" r="4.276"/><circle cx="145.041" cy="214.391" r="4.276"/><circle cx="161.041" cy="142.391" r="4.276"/><circle cx="169.041" cy="122.391" r="4.276"/><circle cx="85.041" cy="246.391" r="4.276"/><circle cx="141.041" cy="174.391" r="4.276"/><circle cx="129.041" cy="118.391" r="4.276"/><circle cx="157.041" cy="238.391" r="4.276"/></g><g><circle cx="130.898" cy="144" fill="#e66353" r="8"/><path d="m130.898 156c-6.617 0-12-5.383-12-12s5.383-12 12-12 12 5.383 12 12-5.382 12-12 12zm0-16c-2.207 0-4 1.795-4 4s1.793 4 4 4 4-1.795 4-4-1.793-4-4-4z" fill="#4c241d"/></g><g><circle cx="112.898" cy="230" fill="#e66353" r="10"/><path d="m112.898 244c-7.719 0-14-6.281-14-14s6.281-14 14-14 14 6.281 14 14-6.281 14-14 14zm0-20c-3.309 0-6 2.691-6 6s2.691 6 6 6 6-2.691 6-6-2.691-6-6-6z" fill="#4c241d"/></g><circle cx="97.041" cy="198.391" fill="#4c241d" r="4.276"/><circle cx="189.041" cy="146.391" fill="#4c241d" r="4.276"/><circle cx="121.041" cy="194.391" fill="#4c241d" r="4.276"/></g></svg>