<svg id="Capa_1" enable-background="new 0 0 512 512" height="512" viewBox="0 0 512 512" width="512" xmlns="http://www.w3.org/2000/svg"><g><g><path clip-rule="evenodd" d="m192.943 69.072c-55.926-19.19-207.575 72.595-90.904 101.168 20.862 5.131 47.11 4.422 69.843-1.276 57.372-8.021 61.766-77.867 21.061-99.892z" fill="#3bc3a4" fill-rule="evenodd"/></g><g><path clip-rule="evenodd" d="m181.463 245.698c-73.245-82.97-119.505 52.412-124.323 106.242-6.123 68.201 20.324 83.593 87.73 52.724 75.965-34.752 119.731-126.141 36.593-158.966z" fill="#3bc3a4" fill-rule="evenodd"/></g><g><path clip-rule="evenodd" d="m382.122 300.123c-74.577-43.398-113.241 5.357-99.011 37.162.198.482.425.964.68 1.446 7.852 15.505 20.125 24.463 40.619 20.523 13.776-2.665 26.475-9.638 55.812-26.249 10.829-6.123 14.854-25.342 1.9-32.882z" fill="#a7e9a6" fill-rule="evenodd"/></g><g><path clip-rule="evenodd" d="m185.488 504.5c64.486-.028 100.372-73.757 48.641-90.538-.227-.142-.454-.312-.709-.482-48.414-33.279-58.93 46.431-62.275 74.948-1.19 10.261 3.997 16.072 14.343 16.072z" fill="#a7e9a6" fill-rule="evenodd"/></g><g><path clip-rule="evenodd" d="m217.349 105.752c-5.329 14.457 2.154 33.109 22.421 43.427 13.974 5.159 32.286 6.123 50.852 3.742 19.587-2.495 39.429-8.731 54.65-17.66 4.11-2.409 8.107-4.932 11.877-7.54 18.141-12.387 31.379-26.277 29.961-36.453-2.183-15.619-77.355-46.063-125.032-40.649-26.049 4.45-46.6 32.74-44.729 55.133z" fill="#3bc3a4" fill-rule="evenodd"/></g><g><path clip-rule="evenodd" d="m265.82 220.923c2.296 7.03 6.236 13.55 11.82 19.105 48.499 48.075 151.734-20.693 174.835-68.003 8.277-16.923-.142-33.364-16.072-37.531-30.613-8.022-56.606-9.213-79.254-6.775-3.77 2.608-7.767 5.131-11.877 7.54-15.222 8.929-35.063 15.165-54.65 17.66-23.328 19.56-31.832 46.319-24.802 68.004z" fill="#3bc3a4" fill-rule="evenodd"/></g><g><path clip-rule="evenodd" d="m421.805 158.42c-18.68 38.239-89.742 90.538-141.926 83.707 49.378 43.908 149.835-23.527 172.596-70.1 8.277-16.923-.142-33.364-16.072-37.531-5.414-1.417-10.686-2.636-15.845-3.628 5.159 7.256 6.236 17.29 1.247 27.552z" fill="#00a887" fill-rule="evenodd"/></g><g><path clip-rule="evenodd" d="m202.241 256.867c15.845 40.932-22.478 96.576-77.979 121.974-29.536 13.55-51.22 18.17-65.733 13.379 7.653 32.655 35.205 35.858 86.341 12.444 68.539-31.379 110.887-108.85 57.371-147.797z" fill="#00a887" fill-rule="evenodd"/></g><g><path clip-rule="evenodd" d="m315.113 338.561c-11.792 2.296-20.834.312-27.892-4.734-2.523-1.786-4.762-3.968-6.803-6.463.368 3.402 1.276 6.746 2.693 9.921.198.482.425.964.68 1.446 7.852 15.505 20.125 24.463 40.619 20.523 13.776-2.665 26.475-9.638 55.812-26.249 10.828-6.123 14.853-25.342 1.899-32.882-.595-.368-1.219-.709-1.814-1.049-1.304 5.528-4.734 10.63-9.411 13.266-29.337 16.611-42.036 23.584-55.783 26.221z" fill="#7fdbae" fill-rule="evenodd"/></g><g><path clip-rule="evenodd" d="m240.932 416.74c15.817 27.411-17.574 75.061-69.418 75.089-.17 0-.34 0-.51 0 .227 8.135 5.357 12.671 14.485 12.671 61.424-.028 96.913-66.897 55.443-87.76z" fill="#7fdbae" fill-rule="evenodd"/></g><g><path clip-rule="evenodd" d="m62.469 124.631c-9.156 17.972-1.134 35.631 39.57 45.609 20.862 5.131 47.11 4.422 69.843-1.276 41.158-5.754 55.047-43.313 44.588-72.226-3.26 21.146-18.68 40.507-47.28 44.475-22.733 5.726-48.981 6.406-69.843 1.304-18.68-4.592-30.444-10.771-36.878-17.886z" fill="#00a887" fill-rule="evenodd"/></g><g><path clip-rule="evenodd" d="m284.159 125.198c-17.291 2.211-34.412 1.531-47.961-2.75 3.855 7.398 5.471 16.611 3.572 26.731 13.974 5.159 32.286 6.123 50.852 3.742 19.587-2.495 39.429-8.731 54.65-17.66 4.11-2.409 8.107-4.932 11.877-7.54 18.141-12.387 31.379-26.277 29.961-36.453-.51-3.628-4.989-8.079-12.189-12.699-5.357 7.002-14.003 14.428-24.207 21.43-3.798 2.58-7.795 5.131-11.905 7.54-15.221 8.928-35.063 15.136-54.65 17.659z" fill="#00a887" fill-rule="evenodd"/></g><g><path clip-rule="evenodd" d="m227.185 107.113c15.987-.425 28.289-7.087 33.051-25.71 2.126-8.277 2.494-16.894 1.842-30.784-.312-7.087-.907-15.505-1.672-25.937-.822-11.424-15.222-22.337-26.588-14.542-29.224 20.041-40.336 41.386-40.874 58.932-.51 17.716 9.779 31.549 23.215 36.283.397.113.794.255 1.191.397 3.145.964 6.462 1.446 9.835 1.361z" fill="#a7e9a6" fill-rule="evenodd"/></g><g><path clip-rule="evenodd" d="m239.77 149.179c3.94-21.09-7.256-38.097-22.421-43.427-.397-.142-.794-.255-1.191-.397-3.146-.964-6.463-1.446-9.836-1.361-15.987.425-28.289 7.087-33.079 25.682-2.523 9.865-2.551 20.211-1.361 39.288.312 5.131.737 10.885 1.191 17.461.85 11.395 15.25 22.337 26.617 14.513 14.881-10.205 25.086-20.75 31.549-30.954 4.563-7.199 7.284-14.201 8.531-20.805z" fill="#7fdbae" fill-rule="evenodd"/></g><path d="m460.293 145.261c-4.063-8.86-12.079-15.429-21.988-18.021-20.268-5.311-39.565-8-58.434-8.137 9.156-8.88 16.027-19.038 14.667-28.874-2.17-15.531-35.951-29.12-50.373-34.241-26.334-9.351-53.661-14.169-75.011-13.389-.332-5.405-.764-11.492-1.268-18.455-.636-8.851-6.815-17.57-15.377-21.694-7.742-3.729-16.102-3.181-22.936 1.506-18.499 12.699-31.422 26.769-38.411 41.821-2.313 4.981-3.786 9.681-4.667 14.066-34.399-5.353-87.697 16.401-115.18 41.843-15.815 14.641-22.344 29.449-18.882 42.821 3.908 15.094 19.998 26.203 47.815 33.016 9.967 2.451 21.179 3.669 32.767 3.669 10.563 0 21.432-1.027 31.949-3.04.194 2.777.404 5.707.629 8.816 0 .006.001.011.001.017.661 8.858 6.87 17.572 15.449 21.682 3.384 1.621 6.883 2.425 10.32 2.425 4.422 0 8.74-1.332 12.569-3.967 7.66-5.255 14.348-10.749 20.071-16.447.444 9.737 1.304 19.433 2.467 29.12-15.623 1.647-30.196 7.766-43.282 16.701-17.816-18.624-35.743-26.724-53.341-24.066-28.023 4.231-47.255 34.735-58.454 59.58-1.702 3.776-.021 8.217 3.755 9.919 3.777 1.704 8.218.021 9.919-3.755 13.666-30.316 30.364-48.398 47.019-50.912 12.185-1.837 25.345 4.374 39.175 18.472-26.529 23.123-45.222 57.283-51.401 85.075-.899 4.043 1.65 8.05 5.694 8.949.548.122 1.095.18 1.634.18 3.438 0 6.537-2.378 7.314-5.874 5.691-25.603 23.979-58.386 49.281-79.228 22.499 10.303 34.629 26.223 35.161 46.296.917 34.582-32.27 76.159-77.199 96.712-32.363 14.822-54.477 18.306-65.724 10.353-10.235-7.236-14.074-25.939-11.412-55.593 1.161-13.029 4.747-29.89 9.839-46.258 1.23-3.955-.979-8.159-4.934-9.39-3.953-1.228-8.158.979-9.39 4.934-5.394 17.34-9.205 35.339-10.456 49.378-3.264 36.353 2.358 58.335 17.693 69.177 6.533 4.619 14.538 6.942 24.254 6.942 14.636 0 33.155-5.271 56.373-15.904 50.887-23.279 87.034-69.856 85.95-110.749-.62-23.375-13.372-42.735-36.266-55.634 9.612-5.602 19.956-9.345 30.798-10.425 1.696 11.535 3.697 23.087 5.788 34.717 6.768 37.555 16.815 75.163 30.349 113.48-13.692 4.831-24.17 12.434-33.271 20.549-11.334-6.105-21.821-7.091-31.25-2.879-24.74 11.051-32.618 54.949-36.393 87.02-1.058 9.116 1.966 14.673 4.688 17.729 2.726 3.06 7.906 6.707 17.105 6.707h.003c43.728-.019 75.716-31.197 80.276-60.073 2.828-17.907-4.563-32.711-20.012-41.123 6.587-5.384 14.305-10.444 23.974-13.837 9.811 26.244 21.255 52.855 34.408 80.044 1.294 2.676 3.97 4.236 6.757 4.236 1.095 0 2.208-.241 3.261-.75 3.728-1.804 5.289-6.289 3.484-10.017-18.317-37.863-33.257-74.559-45.026-110.674 2.171-4.815 4.621-9.018 7.306-12.694 8.488 13.675 20.279 20.581 35.214 20.581 3.404 0 6.973-.357 10.7-1.074 14.964-2.895 27.837-9.96 58.08-27.084 8.198-4.635 13.748-14.536 13.811-24.637.057-9.098-4.256-16.845-11.833-21.256-20.978-12.206-40.685-18.334-58.619-18.189-20.141.154-32.792 8.131-39.858 14.796-11.831 11.161-16.847 26.714-13.981 41.218-2.434 2.602-4.755 5.474-6.937 8.648-7.277-24.62-13.085-49.017-17.475-73.377-1.091-6.07-2.159-12.116-3.171-18.144 5.255-6.441 10.584-12.34 16.004-17.708 2.659 5.299 6.174 10.179 10.504 14.471 12.326 12.22 28.683 18.499 47.861 18.499 4.655 0 9.477-.37 14.446-1.115 26.496-3.971 50.806-17.214 66.533-27.625 3.454-2.286 4.4-6.939 2.114-10.393s-6.94-4.4-10.393-2.114c-22.186 14.685-49.103 26.25-72.778 26.248-14.128 0-27.103-4.12-37.222-14.152-4.246-4.209-7.394-9.076-9.399-14.441 25.765-21.406 53.819-31.58 86.151-31.58 4.142 0 7.5-3.358 7.5-7.5s-3.357-7.5-7.5-7.5c-32.688 0-62.017 9.758-88.682 29.624.726-15.363 9.015-30.993 22.843-43.227 19.575-2.741 39.345-9.021 55.232-18.348 2.948-1.728 6.677-4.017 10.72-6.728 23.964-2.345 48.426-.142 74.72 6.748 5.625 1.471 9.941 4.939 12.154 9.764 2.34 5.102 2.013 11.216-.921 17.215-5.216 10.663-15.201 22.976-28.117 34.671-3.07 2.78-3.306 7.523-.525 10.594 1.48 1.635 3.518 2.466 5.561 2.466 1.796 0 3.597-.641 5.032-1.94 14.502-13.132 25.402-26.687 31.523-39.2 4.951-10.119 5.335-20.795 1.084-30.063zm-209.341 304.326c-3.614 22.885-30.783 47.398-65.465 47.413-2.839 0-4.935-.599-5.902-1.684-.963-1.081-1.314-3.221-.99-6.012 5.171-43.935 14.461-69.191 27.612-75.065 1.818-.812 3.783-1.217 5.893-1.217 2.524 0 5.254.584 8.178 1.742-7.572 9.758-12.559 22.168-14.848 37.033-.63 4.094 2.177 7.924 6.271 8.554.387.06.771.088 1.151.088 3.638 0 6.832-2.652 7.403-6.359 2.071-13.449 6.654-24.27 13.624-32.242 13.065 4.973 19.125 14.75 17.073 27.749zm76.613-159.178c14.811 0 32.291 5.436 50.783 16.196 2.929 1.705 4.401 4.462 4.378 8.198-.029 4.751-2.635 9.661-6.194 11.674-.002 0-.003.001-.004.002-28.73 16.266-40.893 22.965-53.533 25.41-15.025 2.891-24.988-2.071-32.241-16.042 13.252-10.36 29.626-13.287 46.03-14.437 4.132-.289 7.247-3.873 6.957-8.005-.288-4.132-3.857-7.253-8.006-6.957-15.304 1.072-32.534 3.86-47.711 13.137.952-6.72 4.269-13.315 9.685-18.424 7.619-7.189 17.862-10.752 29.856-10.752zm-89.506-274.084c1.285-.881 2.654-1.322 4.098-1.322 1.229 0 2.513.32 3.842.96 3.758 1.811 6.67 5.703 6.926 9.256v.004c.746 10.305 1.327 18.572 1.654 25.448.001.067.008.134.01.201.62 13.182.294 21.221-1.62 28.672-1.023 4-2.424 7.325-4.244 10.064-.232.29-.447.593-.634.914-4.426 6-11.181 8.829-21.102 9.093-1.007.027-2.004-.038-2.995-.145 1.069-13.264 4.252-23.774 9.676-31.993 2.281-3.457 1.329-8.109-2.128-10.391-3.456-2.28-8.109-1.328-10.391 2.128-6.019 9.121-9.817 20.143-11.518 33.441-3.387-3.195-6.076-7.326-7.626-12.104-6.56-20.216 6.918-44.227 36.052-64.226zm-134.236 146.631c-21.426-5.247-34.52-13.134-36.869-22.208-1.964-7.586 3.204-17.549 14.552-28.054 24.747-22.91 75.516-43.443 104.137-37.81.368 3.959 1.165 7.425 2.097 10.298 1.541 4.748 3.783 9.06 6.566 12.837-5.808 1.435-10.794 3.886-14.974 7.313-12.308-4.635-23.238-8.388-49.144 3.969-3.739 1.784-5.324 6.26-3.54 9.998 1.287 2.697 3.974 4.273 6.775 4.273 1.082 0 2.182-.236 3.224-.732 17.333-8.268 24.462-7.913 33.002-5.06-1.491 3.03-2.725 6.364-3.671 10.035-2.47 9.637-2.797 19.213-1.964 35.236-20.513 4.215-42.593 4.232-60.191-.095zm91.614 31.805c-2.369 1.63-5.031 1.757-7.912.377-3.711-1.778-6.708-5.761-6.972-9.265-2.189-30.23-2.961-42.952-.047-54.326 3.521-13.666 11.301-19.664 26.018-20.056.469-.013.934.009 1.4.025-1.741 11.285-5.86 21.563-12.304 30.622-2.401 3.375-1.611 8.057 1.764 10.459 1.319.938 2.837 1.389 4.341 1.389 2.345 0 4.655-1.097 6.118-3.153 7.21-10.135 12.012-21.487 14.361-33.852 4.174 3.34 7.496 8.015 9.295 13.552 1.689 5.2 2.043 10.651 1.155 16.219-.243.708-.376 1.428-.403 2.141-1.228 5.699-3.745 11.501-7.471 17.27-.014.023-.03.044-.043.068-6.378 9.847-16.267 19.589-29.3 28.53zm47.388 34.356c-2.691-19.045-4.422-37.977-4.113-56.979 1.344-2.254 2.568-4.529 3.637-6.83 1.063-2.29 1.939-4.517 2.676-6.686 8.146 2.028 17.279 3.011 26.862 3.027-9.674 12.578-15.309 26.966-15.903 41.313-.171 4.142.087 8.208.746 12.154-4.721 4.321-9.353 8.992-13.905 14.001zm98.65-100.324c-26.8 15.732-67.172 22.002-93.497 15.103.44-7.28-.719-13.391-2.215-17.996-1.539-4.739-3.778-9.043-6.557-12.813 8.122-2.008 14.659-5.975 19.579-11.874 14.727-2.225 26.211-1.379 35.04 2.57.994.445 2.034.655 3.058.655 2.867 0 5.604-1.653 6.85-4.44 1.69-3.781-.004-8.217-3.785-9.909-9.161-4.097-20.034-5.707-32.988-4.854.189-.646.369-1.301.54-1.967 1.938-7.546 2.556-15.064 2.331-25.689 18.826-.683 43.353 3.578 67.315 11.844 27.294 9.417 41.077 19.573 42.556 23.049.509 5.343-8.476 16.489-26.335 28.777-.311.182-.605.385-.884.608-3.366 2.285-7.035 4.607-11.008 6.936z"/></g></svg>