<svg id="mint" enable-background="new 0 0 300 300" height="512" viewBox="0 0 300 300" width="512" xmlns="http://www.w3.org/2000/svg"><g><circle cx="165.714" cy="131.405" fill="#fff0fd" r="92"/><path d="m69.714 75.405c-6.617 0-12-5.383-12-12s5.383-12 12-12 12 5.383 12 12-5.382 12-12 12zm0-16c-2.205 0-4 1.795-4 4s1.795 4 4 4 4-1.795 4-4-1.795-4-4-4z" fill="#4c241d"/><path d="m249.714 255.405c-1.023 0-2.047-.391-2.828-1.172l-12-12c-1.562-1.562-1.562-4.094 0-5.656s4.094-1.562 5.656 0l12 12c1.562 1.562 1.562 4.094 0 5.656-.781.782-1.804 1.172-2.828 1.172z" fill="#4c241d"/><path d="m237.714 255.405c-1.023 0-2.047-.391-2.828-1.172-1.562-1.562-1.562-4.094 0-5.656l12-12c1.562-1.562 4.094-1.562 5.656 0s1.562 4.094 0 5.656l-12 12c-.781.782-1.804 1.172-2.828 1.172z" fill="#4c241d"/><circle cx="106.111" cy="53.498" fill="#4c241d" r="4.276"/><circle cx="258.111" cy="213.498" fill="#4c241d" r="4.276"/><g><path d="m73.714 223.405c-18.499-8.116-33.578-21.695-32-28 .261-1.043 1.824-5.813 16-8-1.106.265-2.512.412-4 0-10.992-3.044-14.138-33.212-8-36 1.915-.87 5.414.616 12 8-1.682-19.917-.348-30.583 4-32 2.017-.658 4.684.675 8 4 5.868-21.57 11.201-32.235 16-32 2.856.14 5.522 4.14 8 12 13.778-23.083 23.112-33.75 28-32 2.451.877 3.785 4.877 4 12 11.544-14.678 22.466-22.794 28-20 1.361.687 3.284 2.483 4 8 20.611-14.024 32.611-19.358 36-16 1.333 1.321 1.333 3.988 0 8 15.301-15.788 34.031-17.969 40-12s3.788 24.699-12 40c.97.047 12.249.741 16 8 4.012 7.763-1.278 21.698-16 28 1.463 1.003 7.405 5.309 8 12 .751 8.448-7.262 17.978-20 20 6.205 3.04 7.592 6.39 8 8 2.062 8.129-8.562 20.179-28 28 13.063 9.962 12.491 14.546 12 16-2.729 8.086-31.673 4.554-36 4 1.176 1.111 10.264 9.861 8 16-2.218 6.013-15.218 9.224-32 4 4.101 6.175 5.434 10.175 4 12-2.638 3.357-14.639-.644-36-12-3.133 6.5-6.754 7.689-8 8-16 4-28-28-28-28z" fill="#a9ba5a"/><path d="m142.581 260.595c-5.402 0-14.6-3.17-31.322-11.859-2.941 4.303-6.176 5.953-8.578 6.551-17.205 4.309-29.098-21.543-32.094-28.9-17.867-8.195-35.137-22.428-32.754-31.951.631-2.51 2.637-5.535 8.008-7.932-4.318-5.354-6.506-13.938-7.076-21.234-.426-5.447-.305-14.963 5.295-17.506 2.912-1.316 5.994-.307 9.027 1.805-.602-16.391 1.686-24.105 7.387-25.965 2.516-.816 4.957-.145 7.012.977 6.16-20.959 11.516-29.492 18.424-29.17 3.857.191 6.566 3.207 8.574 7.068 16.582-26.416 23.57-28.633 28.578-26.838 2.781.994 4.396 3.441 5.342 6.357 8.148-9.018 19.08-18.213 27.113-14.162 1.994 1.006 3.535 2.727 4.611 5.139 24.256-15.967 32.207-16.566 36.4-12.41.566.561 1 1.178 1.326 1.832 8.324-6.322 17.662-9.973 26.15-10.039 5.279-.166 9.773 1.457 12.537 4.221s4.264 7.215 4.221 12.537c-.07 9.002-4.172 18.959-11.215 27.648 4.273 1.303 9.156 3.846 11.719 8.807 2.207 4.268 2.336 9.641.365 15.129-2.225 6.197-6.812 11.654-12.938 15.541 2.352 2.619 4.598 6.254 5.004 10.811.787 8.854-5.596 17.523-15.162 21.855 1.791 1.994 2.654 3.939 3.055 5.516 2.492 9.826-7.336 21.674-24.344 30.01 7.08 6.375 9.785 11.721 8.258 16.254-2.176 6.445-12.387 9.027-30.439 7.701 2.365 3.789 3.936 8.242 2.402 12.404-2.801 7.594-14.17 10.801-28.045 8.547 1.117 3.141 1.295 6.176-.564 8.539-1.304 1.66-3.159 2.717-6.277 2.717zm-32.867-21.19c.648 0 1.293.158 1.877.469 20.641 10.971 28.02 12.619 30.496 12.709-.328-1.104-1.23-3.238-3.705-6.965-.938-1.41-.885-3.258.131-4.611 1.016-1.357 2.766-1.932 4.391-1.42 15.6 4.854 25.908 1.559 27.057-1.564.783-2.121-2.289-7.264-6.994-11.711-1.258-1.189-1.607-3.053-.867-4.619.742-1.564 2.424-2.49 4.123-2.254 18.898 2.42 30.555.785 31.709-1.33-.021 0-.131-3.506-10.643-11.521-1.145-.873-1.73-2.293-1.539-3.719.193-1.424 1.137-2.637 2.473-3.174 19.516-7.852 26.822-18.549 25.615-23.305-.469-1.85-2.559-3.764-5.883-5.393-1.566-.768-2.455-2.461-2.195-4.186.258-1.725 1.605-3.084 3.328-3.357 10.641-1.689 17.195-9.479 16.643-15.693-.418-4.701-4.91-8.119-6.275-9.055-1.205-.826-1.863-2.24-1.721-3.693.143-1.451 1.064-2.711 2.406-3.285 6.781-2.902 11.871-7.908 13.963-13.732 1.193-3.324 1.215-6.516.059-8.754-2.193-4.242-9.227-5.676-12.641-5.84-1.592-.078-2.986-1.094-3.549-2.584-.562-1.492-.186-3.176.959-4.285 10.117-9.805 13.779-20.625 13.832-27.48.025-3.07-.678-5.617-1.877-6.818-1.199-1.199-3.785-1.99-6.818-1.877-6.855.053-17.676 3.715-27.48 13.832-1.301 1.34-3.355 1.604-4.947.637-1.596-.969-2.311-2.91-1.721-4.682.664-2 .793-3.148.795-3.73-1.756-.078-8.77 1.344-30.75 16.299-1.148.783-2.621.912-3.889.342-1.268-.568-2.148-1.756-2.328-3.133-.441-3.395-1.361-4.705-1.836-4.945-1.842-.939-10.186 2.541-23.053 18.902-1.041 1.324-2.797 1.855-4.396 1.326-1.598-.525-2.695-1.996-2.746-3.678-.168-5.559-1.033-7.604-1.408-8.236-1.463.469-7.539 3.996-23.158 30.166-.809 1.354-2.33 2.111-3.9 1.922-1.564-.182-2.877-1.268-3.35-2.77-2.125-6.738-3.838-8.637-4.4-9.109-1.096.682-5.352 4.791-11.926 28.957-.375 1.377-1.455 2.449-2.834 2.816-1.373.369-2.848-.029-3.857-1.043-2.793-2.799-4.037-2.979-4.119-2.986.18.039-3.139 3.248-1.062 27.826.145 1.715-.824 3.33-2.406 4.01-1.586.682-3.42.271-4.564-1.012-4.064-4.555-6.324-6.104-7.342-6.625-1.057 2.652-1.299 10.785 1.129 18.66 1.604 5.201 4.004 8.822 6.266 9.447.328.092.688.133 1.066.107.408-.07.828-.139 1.256-.205 2.109-.307 4.121 1.076 4.533 3.18.416 2.105-.904 4.162-2.99 4.662-.592.143-1.18.244-1.76.305-8.408 1.51-11.039 3.984-11.293 4.773-.311 2.996 10.59 14.975 29.727 23.371.986.432 1.758 1.246 2.137 2.256 2.799 7.432 13.07 28.084 23.285 25.525 1.84-.457 3.795-2.592 5.367-5.855.473-.98 1.324-1.727 2.359-2.064.4-.134.82-.201 1.24-.201zm-61.965-84.613" fill="#4c241d"/></g><g fill="#4c241d"><path d="m45.712 259.405c-.912 0-1.83-.311-2.582-.947-1.686-1.426-1.896-3.949-.469-5.637 3.604-4.26 88.842-104.758 136.652-140.615 1.775-1.33 4.279-.963 5.6.799 1.326 1.768.969 4.275-.799 5.6-47.094 35.32-134.471 138.348-135.348 139.385-.79.935-1.917 1.415-3.054 1.415z"/><path d="m149.621 146.698c-1.986 0-3.711-1.48-3.963-3.504l-3.912-31.293c-.273-2.191 1.281-4.191 3.473-4.465 2.172-.287 4.189 1.281 4.465 3.473l3.912 31.293c.273 2.191-1.281 4.191-3.473 4.465-.168.021-.336.031-.502.031z"/><path d="m169.72 163.405c-.166 0-.334-.01-.502-.031l-32-4c-2.191-.273-3.746-2.273-3.473-4.465.273-2.193 2.273-3.752 4.465-3.473l32 4c2.191.273 3.746 2.273 3.473 4.465-.252 2.024-1.977 3.504-3.963 3.504z"/><path d="m121.605 174.772c-1.922 0-3.615-1.387-3.941-3.342l-3.895-23.367c-.363-2.18 1.109-4.24 3.287-4.604 2.188-.365 4.24 1.109 4.604 3.287l3.895 23.367c.363 2.18-1.109 4.24-3.287 4.604-.224.038-.446.055-.663.055z"/><path d="m137.712 199.407c-.525 0-1.061-.105-1.574-.326l-27.215-11.664c-2.029-.869-2.971-3.221-2.1-5.252.867-2.029 3.217-2.975 5.252-2.1l27.215 11.664c2.029.869 2.971 3.221 2.1 5.252-.648 1.516-2.125 2.426-3.678 2.426z"/><path d="m93.716 203.407c-1.553 0-3.029-.91-3.678-2.426l-12-28c-.871-2.031.07-4.383 2.1-5.252 2.033-.873 4.383.07 5.252 2.1l12 28c.871 2.031-.07 4.383-2.1 5.252-.513.221-1.048.326-1.574.326z"/></g></g></svg>