<svg id="Capa_1" enable-background="new 0 0 512 512" height="512" viewBox="0 0 512 512" width="512" xmlns="http://www.w3.org/2000/svg"><g><g><path clip-rule="evenodd" d="m431.304 256.042c-16.327 16.639-24.604 39.827-36.849 59.556 37.785-9.723 62.757-26.617 96.092-55.474-22.989-19.361-48.529-12.813-59.243-4.082z" fill="#3bc3a4" fill-rule="evenodd"/></g><g><path clip-rule="evenodd" d="m394.454 315.598c4.337-11.764 5.216-51.194 3.713-91.105 3.798-39.855-7.908-50.23-16.327-58.564-22.534 14.229-39.173 65.763 12.614 149.669z" fill="#3bc3a4" fill-rule="evenodd"/></g><g><path clip-rule="evenodd" d="m394.454 315.598c-1.786-5.924-3.487-15.534-4.252-27.042-1.219-18.935.142-43.002 7.965-64.063 2.098-22.025-.539-35.065-4.734-43.71-4.79 8.22-8.787 16.923-12.16 25.937-12.698 34.071-5.64 78.377 13.181 108.878z" fill="#00a887" fill-rule="evenodd"/></g><g><path clip-rule="evenodd" d="m478.414 252.243c-24.122 20.409-44.333 34.327-69.418 43.767-4.535 6.746-9.411 13.323-14.541 19.587 37.785-9.723 62.757-26.617 96.092-55.474-3.998-3.344-8.079-5.952-12.133-7.88z" fill="#00a887" fill-rule="evenodd"/></g><g><path clip-rule="evenodd" d="m398.168 224.492c-12.585 33.789-8.475 75.401-3.713 91.105 14.91-18.227 27.552-38.891 36.849-59.556 12.756-28.205 19.275-56.409 16.894-78.264-26.645 6.123-41.838 24.775-50.03 46.715z" fill="#a7e9a6" fill-rule="evenodd"/></g><g><path clip-rule="evenodd" d="m430.51 184.467c-1.105 18.992-7.285 40.989-17.206 62.986-6.293 13.946-14.088 27.921-23.102 41.102.765 11.509 2.466 21.118 4.252 27.042 14.91-18.227 27.552-38.891 36.849-59.556 12.756-28.205 19.275-56.409 16.894-78.264-6.576 1.503-12.443 3.77-17.687 6.69z" fill="#7fdbae" fill-rule="evenodd"/></g><g><path clip-rule="evenodd" d="m113.549 67.737c-25.851 66.416 42.462 177.08 82.486 204.661 3.883 2.693 7.54 5.159 10.941 7.483-5.216-18.085-6.378-35.461-5.272-50.542-7.483-13.663-11.14-38.948-13.067-48.983-2.154-11.452-5.159-21.883-8.73-31.379-13.833-36.737-36.056-59.187-50.937-70.894-9.1-7.172-15.421-10.346-15.421-10.346z" fill="#a7e9a6" fill-rule="evenodd"/></g><g><path clip-rule="evenodd" d="m249.92 76.893c-33.533 21.657-39.571 73.786-35.262 112.308 6.434 23.329 21.854 21.146 28.686 29.14 2.324-17.858 18.935-33.392 16.384-68.513 6.264-35.348-9.808-72.935-9.808-72.935z" fill="#a7e9a6" fill-rule="evenodd"/></g><g><path clip-rule="evenodd" d="m174.379 135.91c-18.737-59.017-16.979-108.964-6.69-128.41-32.031 16.214-41.781 42.35-41.158 68.712-.028 7.795-3.231 48.841 47.848 59.698z" fill="#3bc3a4" fill-rule="evenodd"/></g><g><path clip-rule="evenodd" d="m272.115 314.01c.539 4.053 1.02 7.824 1.531 11.254 2.636 17.887 9.524 40.309 11.537 51.335.085.482.17.935.227 1.389 36.906-32.4 37.473-90.822 33.816-170.589-3.033-66.416 26.985-80.929 26.588-104.542-34.27 10.431-55.784 33.08-69.277 59.754-9.298 36.341 2.409 112.933-4.422 151.399z" fill="#3bc3a4" fill-rule="evenodd"/></g><g><path clip-rule="evenodd" d="m135.035 118.307c9.382 11.792 18.651 26.844 25.738 45.666.709 1.928 1.417 3.883 2.098 5.896 2.636 7.852 4.904 16.328 6.633 25.455 2.381 12.472 16.667 70.271 26.532 77.074 3.883 2.665 7.54 5.159 10.941 7.483-5.216-18.085-6.378-35.461-5.272-50.542-7.483-13.663-11.14-38.948-13.067-48.983-2.154-11.452-5.159-21.883-8.73-31.379-1.729-4.564-3.572-8.929-5.527-13.068-13.719-29.112-32.399-47.565-45.41-57.827-.822-.652-1.644-1.276-2.438-1.871-7.767-5.839-12.982-8.476-12.982-8.476-2.92 7.512-4.649 15.591-5.357 24.066.539.397 1.077.822 1.644 1.247 7.254 5.728 16.268 14.005 25.197 25.259z" fill="#7fdbae" fill-rule="evenodd"/></g><g><path clip-rule="evenodd" d="m147.961 21.078c-4.195 17.405-4.62 44.334 1.219 76.223 8.73 9.978 17.688 22.705 25.199 38.608-18.737-59.016-16.979-108.963-6.69-128.409-7.852 3.969-14.371 8.561-19.728 13.578z" fill="#00a887" fill-rule="evenodd"/></g><g><path clip-rule="evenodd" d="m259.728 149.828c-11.225 17.433-16.979 36-19.275 53.83-5.216 36.794 5.131 87.08 31.662 110.353 9.467-16.724 14.173-62.419 13.464-90.085-.51-19.276-5.017-43.257-9.042-61.313-3.458-15.42-6.576-26.476-6.576-26.476-3.827 4.45-7.229 9.042-10.233 13.691z" fill="#3bc3a4" fill-rule="evenodd"/></g><g><path clip-rule="evenodd" d="m266.02 271.689c2.721 15.137 4.507 30.019 6.094 42.321 9.467-16.724 14.173-62.419 13.464-90.085-.51-19.276-5.017-43.257-9.042-61.313-3.458-15.42-6.576-26.476-6.576-26.476-3.827 4.45-7.228 9.042-10.233 13.691-.737 1.191-1.474 2.353-2.183 3.515.255.992.51 2.041.737 3.09.482 1.984.935 4.054 1.417 6.18 4.053 18.057 8.532 42.038 9.042 61.313.342 13.465-.594 31.181-2.72 47.764z" fill="#00a887" fill-rule="evenodd"/></g><g><path clip-rule="evenodd" d="m321.011 113.658c-7.993 17.32-24.859 37.814-22.535 88.384 3.061 66.784 3.175 118.601-18.51 152.702 2.183 8.731 4.252 16.583 5.216 21.855.085.482.17.935.227 1.389 36.906-32.4 37.473-90.822 33.816-170.589-3.033-66.416 26.985-80.929 26.588-104.542-9.155 2.779-17.376 6.435-24.802 10.801z" fill="#00a887" fill-rule="evenodd"/></g><g><path clip-rule="evenodd" d="m234.245 91.491c6.548 15.761 16.355 59.471 11.026 89.66 2.863-9.383 6.86-18.737 12.274-27.808.709-1.162 1.446-2.324 2.183-3.515 6.264-35.348-9.808-72.935-9.808-72.935-6.094 3.94-11.31 8.9-15.675 14.598z" fill="#7fdbae" fill-rule="evenodd"/></g><g><path clip-rule="evenodd" d="m211.427 188.974c-4.394 9.071-8.504 23.272-9.723 40.365-1.105 15.08.057 32.457 5.272 50.542 4.422 15.392 11.792 31.323 23.187 46.828 2.098 2.891 25.993 28.602 55.217 51.25-.057-.454-.142-.907-.198-1.361-2.013-11.027-8.901-33.449-11.537-51.335-.51-3.43-.992-7.2-1.531-11.254-3.572-27.78-8.22-68.598-22.223-95.953-2.778-5.386-5.896-10.233-9.439-14.4-6.86-7.965-15.307-13.294-25.795-14.457-1.048-.111-2.125-.196-3.23-.225z" fill="#a7e9a6" fill-rule="evenodd"/></g><g><path clip-rule="evenodd" d="m211.427 188.974c-1.531 3.175-3.033 6.973-4.394 11.31 4.337 2.495 8.22 5.839 11.678 9.893 3.572 4.139 6.69 9.014 9.439 14.4 14.031 27.354 18.651 68.145 22.251 95.953.51 4.054 1.02 7.824 1.531 11.225.992 6.775 2.579 14.173 4.309 21.345 8.447 7.852 18.453 16.554 29.139 24.86-.057-.454-.142-.907-.198-1.361-2.013-11.027-8.901-33.449-11.537-51.335-.51-3.43-.992-7.2-1.531-11.254-3.572-27.78-8.22-68.598-22.223-95.953-2.778-5.386-5.896-10.233-9.439-14.4-6.86-7.965-15.307-13.294-25.795-14.457-1.048-.112-2.125-.197-3.23-.226z" fill="#7fdbae" fill-rule="evenodd"/></g><g><path clip-rule="evenodd" d="m233.253 419.941-44.956-18.454c-30.358-11.452-60.235-30.699-78.546-57.175-29.479-5.811-62.984 1.02-88.297 39.373 67.576-5.698 127.3 55.077 212.167 36.425-.113-.056-.255-.113-.368-.169z" fill="#3bc3a4" fill-rule="evenodd"/></g><g><path clip-rule="evenodd" d="m188.297 401.487 44.956 18.454c-93.484-85.181-117.465-147.827-128.293-185.868-21.259 44.646-14.995 81.666 4.79 110.239 18.312 26.476 48.188 45.723 78.547 57.175z" fill="#a7e9a6" fill-rule="evenodd"/></g><g><path clip-rule="evenodd" d="m200.769 423.682c10.545 0 21.486-1.077 32.853-3.572-.113-.057-.255-.113-.368-.17l-44.956-18.454c-30.358-11.452-60.235-30.699-78.546-57.175-10.686-2.098-21.94-2.551-33.108-.425 23.215 31.465 59.498 54.453 96.318 68.372z" fill="#00a887" fill-rule="evenodd"/></g><g><path clip-rule="evenodd" d="m94.728 262.647c12.585 34.044 37.445 81.014 96.517 140.06l42.008 17.235c-93.484-85.182-117.465-147.828-128.293-185.869-4.733 9.893-8.078 19.446-10.232 28.574z" fill="#7fdbae" fill-rule="evenodd"/></g><path d="m495.377 254.387c-17.197-14.484-35.782-16.217-50.14-12.855 8.497-23.532 12.411-46.193 10.417-64.565-.231-2.131-1.363-4.061-3.109-5.303-1.747-1.242-3.939-1.678-6.03-1.196-16.764 3.861-30.498 12.429-40.986 25.506-2.702-19.884-11.11-28.177-17.755-34.729l-.656-.648c-2.482-2.458-6.329-2.876-9.281-1.011-15.194 9.595-24.561 30.118-25.057 54.898-.593 29.656 11.066 65.041 33.732 102.484-.393 1.577-.668 2.686-.757 3.053-9.297 37.979-31.277 87.282-65.659 115.931-1.521-2.39-3.07-4.76-4.614-7.121-9.239-14.12-18.722-28.616-23.027-47.123 13.733-12.827 23.171-29.724 28.793-51.573 1.032-4.011-1.383-8.1-5.395-9.132-4.015-1.033-8.101 1.384-9.133 5.395-3.756 14.597-9.376 26.555-17.036 36.232-.416-1.664-.851-3.386-1.303-5.172-2.704-10.687-5.77-22.801-7.313-33.292-.399-2.699-.801-5.671-1.212-8.811 9.653-20.009 13.898-65.258 13.222-91.627-.497-18.99-4.659-42.05-8.602-60.036 12.12-22.91 29.233-39.361 51.036-49.023-1.339 3.057-3.08 6.331-5.056 10.043-8.75 16.447-20.732 38.972-18.721 83.029 1.577 34.398 2.207 62.218.161 86.184-.353 4.127 2.707 7.759 6.835 8.111.217.019.433.028.646.028 3.853 0 7.13-2.952 7.464-6.862 2.116-24.779 1.481-53.159-.122-88.146-1.824-39.952 8.602-59.551 16.979-75.298 5.255-9.879 9.793-18.41 9.615-29.027-.04-2.354-1.183-4.553-3.086-5.938-1.905-1.386-4.346-1.796-6.6-1.11-26.782 8.161-48.276 23.995-64.112 47.168-1.299-5.056-2.194-8.246-2.337-8.752-.751-2.66-2.904-4.692-5.603-5.287-.991-.218-1.995-.226-2.958-.05-.853-28.803-11.248-53.528-11.799-54.819-.869-2.032-2.591-3.578-4.704-4.224-2.114-.646-4.404-.327-6.262.872-33.898 21.893-42.521 71.286-39.261 112.65-.786.665-1.443 1.493-1.911 2.458-1.892 3.901-3.557 8.22-4.983 12.839-1.141-5.394-2.047-10.464-2.735-14.333-.359-2.019-.677-3.8-.955-5.247-3.343-17.626-8.557-32.935-14.748-46.151-11.206-35.259-20.666-95.783-6.936-121.807 1.523-2.888 1.003-6.43-1.286-8.758-2.289-2.329-5.822-2.908-8.735-1.433-26.168 13.247-41.389 34.431-44.614 61.743-1.531-.887-2.504-1.384-2.785-1.524-1.887-.944-4.085-1.049-6.052-.29-1.969.759-3.526 2.312-4.292 4.277-13.335 34.252-2.698 75.51 8.572 104.09 1.521 3.853 5.876 5.746 9.729 4.226s5.745-5.875 4.225-9.728c-9.306-23.599-18.241-56.404-11.292-84.452 5.625 3.865 13.777 10.214 22.414 19.44 14.467 15.45 33.333 42.42 41.064 83.181.271 1.408.575 3.121.92 5.063 2.106 11.831 5.565 31.215 11.901 44.09-.303 5.25-.349 10.568-.104 15.859.248 5.339.791 10.641 1.593 15.894-16.408-13.304-36.098-38.855-51.524-67.172-1.98-3.637-6.534-4.982-10.174-2.998-3.638 1.981-4.979 6.536-2.998 10.174 18.249 33.5 41.581 62.579 60.895 75.894 3.122 2.149 6.039 4.149 8.836 6.053 5.095 16.508 12.982 32.207 23.475 46.486 2.859 3.941 25.501 27.958 52.861 49.761 4.396 23.176 15.748 40.543 25.973 56.17 6.654 10.17 12.647 19.334 16.036 28.907-22.904-25.443-52.383-40.345-81.613-52.432-89.038-81.404-114.087-142.546-125.175-181.5-.854-3.001-3.479-5.16-6.588-5.42-3.105-.266-6.056 1.432-7.397 4.249-16.197 34.022-18.387 66.236-6.508 95.747 1.152 2.862 2.454 5.687 3.875 8.478-12.003-.5-23.451 1.282-34.177 5.351-18.022 6.837-33.561 20.002-46.185 39.129-1.583 2.398-1.656 5.49-.189 7.96 1.467 2.471 4.222 3.884 7.079 3.645 28.019-2.362 55.223 7.602 84.034 18.151 28.37 10.388 59.62 21.831 94.926 21.831 10.265 0 20.883-.985 31.862-3.228 30.938 12.845 65.165 29.748 87.711 64.837-.66 2.877-1.586 5.855-2.829 8.966-1.536 3.847.336 8.21 4.183 9.747.912.365 1.853.537 2.78.537 2.978 0 5.795-1.786 6.967-4.72 9.354-23.417 4.697-41.715-3.937-58.234 38.289-30.816 62.504-84.446 72.546-125.47.07-.29.239-.974.475-1.922 37.217-10.387 62.293-27.847 94.654-55.861 1.658-1.436 2.605-3.527 2.591-5.721-.015-2.194-.99-4.272-2.669-5.686zm-361.331-181.948c.301-19.371 7.066-35.072 20.189-46.892-3.544 21.002-1.283 46.676 2.583 69.004-8.08-9.549-16.075-16.821-22.772-22.112zm112.335 16.758c3.999 12.523 9.718 35.736 6.192 57.939-7.997 12.751-13.731 26.78-17.143 41.958-4.169-2.835-8.76-4.967-13.823-6.249-2.632-32.293 2.62-72.59 24.774-93.648zm-10.174 233.071c-36.995-50.343-28.363-103.469-20.073-125.246 34.322 6.78 42.804 73.095 47.965 113.435.734 5.747 1.429 11.174 2.127 15.899 1.506 10.236 4.265 21.519 6.853 31.786-20.132-17.458-35.124-33.571-36.872-35.874zm38.305-45.285c-4.494-27.09-11.771-56.472-26.186-75.394 2.724-17.927 8.843-34.186 18.262-48.531 4.346 17.823 10.895 48.134 11.494 71.059.403 15.758-.954 35.68-3.57 52.866zm-170.31-20.578c5.65 15.815 14.003 34.793 27.515 56.843 16.98 27.713 39.756 56.129 67.935 84.793l-8.508-3.492c-.065-.027-.132-.053-.198-.078-41.799-15.786-72.907-42.566-85.349-73.476-8.047-19.991-8.503-41.648-1.395-64.59zm7.073 138.82c-25.193-9.225-49.229-18.026-74.54-19.273 22.463-25.49 48.812-28.072 68.767-24.782 17.647 24.067 45.579 44.262 80.042 57.295l18.66 7.659c-33.715.771-63.717-10.203-92.929-20.899zm300.046-181.218c7.282-12.57 17.304-21.372 29.868-26.258-.102 18.754-5.966 41.35-16.181 64.222-.402.622-.704 1.292-.905 1.989-6.801 14.869-15.413 29.811-25.47 43.848-2.279-18.275-2.519-46.223 6.383-70.266.131-.294.246-.597.339-.911 1.667-4.371 3.639-8.608 5.966-12.624zm-43.546.778c.335-16.739 5.25-30.718 13.403-38.781 6.312 7.152 12.179 18.325 9.602 46.879-6.38 17.583-8.545 36.825-8.495 53.803-12.042-27.455-14.786-48.109-14.51-61.901zm46.667 86.527c8.849-13.008 16.554-26.687 22.843-40.392 8.229-5.807 24.633-9.685 41.065-.242-21.946 18.472-40.828 31.585-63.908 40.634z"/></g></svg>