<svg id="mustard" enable-background="new 0 0 300 300" height="512" viewBox="0 0 300 300" width="512" xmlns="http://www.w3.org/2000/svg"><g><circle cx="162" cy="134" fill="#fff0fd" r="92"/><g fill="#4c241d"><path d="m138 70c-6.617 0-12-5.383-12-12s5.383-12 12-12 12 5.383 12 12-5.383 12-12 12zm0-16c-2.205 0-4 1.795-4 4s1.795 4 4 4 4-1.795 4-4-1.795-4-4-4z"/><path d="m218 90c-1.023 0-2.047-.391-2.828-1.172l-12-12c-1.562-1.562-1.562-4.094 0-5.656s4.094-1.562 5.656 0l12 12c1.562 1.562 1.562 4.094 0 5.656-.781.781-1.805 1.172-2.828 1.172z"/><path d="m206 90c-1.023 0-2.047-.391-2.828-1.172-1.562-1.562-1.562-4.094 0-5.656l12-12c1.562-1.562 4.094-1.562 5.656 0s1.562 4.094 0 5.656l-12 12c-.781.781-1.805 1.172-2.828 1.172z"/><circle cx="174.397" cy="48.093" r="4.276"/><circle cx="238.397" cy="96.093" r="4.276"/></g><g><circle cx="138" cy="118" fill="#ffec95" r="32"/><path d="m138 154c-19.85 0-36-16.15-36-36s16.15-36 36-36 36 16.15 36 36-16.15 36-36 36zm0-64c-15.439 0-28 12.561-28 28s12.561 28 28 28 28-12.561 28-28-12.561-28-28-28z" fill="#4c241d"/></g><circle cx="150.397" cy="104.093" fill="#4c241d" r="4.276"/><g><circle cx="218" cy="154" fill="#ffec95" r="32"/><path d="m218 190c-19.85 0-36-16.15-36-36s16.15-36 36-36 36 16.15 36 36-16.15 36-36 36zm0-64c-15.439 0-28 12.561-28 28s12.561 28 28 28 28-12.561 28-28-12.561-28-28-28z" fill="#4c241d"/></g><circle cx="230.397" cy="140.093" fill="#4c241d" r="4.276"/><g><circle cx="90" cy="130" fill="#ffce56" r="32"/><path d="m90 166c-19.85 0-36-16.15-36-36s16.15-36 36-36 36 16.15 36 36-16.15 36-36 36zm0-64c-15.439 0-28 12.561-28 28s12.561 28 28 28 28-12.561 28-28-12.561-28-28-28z" fill="#4c241d"/></g><circle cx="102.397" cy="116.093" fill="#4c241d" r="4.276"/><g><circle cx="174" cy="150" fill="#ffce56" r="32"/><path d="m174 186c-19.85 0-36-16.15-36-36s16.15-36 36-36 36 16.15 36 36-16.15 36-36 36zm0-64c-15.439 0-28 12.561-28 28s12.561 28 28 28 28-12.561 28-28-12.561-28-28-28z" fill="#4c241d"/></g><circle cx="186.397" cy="136.093" fill="#4c241d" r="4.276"/><g><circle cx="134" cy="170" fill="#ffec95" r="32"/><path d="m134 206c-19.85 0-36-16.15-36-36s16.15-36 36-36 36 16.15 36 36-16.15 36-36 36zm0-64c-15.439 0-28 12.561-28 28s12.561 28 28 28 28-12.561 28-28-12.561-28-28-28z" fill="#4c241d"/></g><circle cx="146.397" cy="156.093" fill="#4c241d" r="4.276"/><g><circle cx="186" cy="198" fill="#ffce56" r="32"/><path d="m186 234c-19.85 0-36-16.15-36-36s16.15-36 36-36 36 16.15 36 36-16.15 36-36 36zm0-64c-15.439 0-28 12.561-28 28s12.561 28 28 28 28-12.561 28-28-12.561-28-28-28z" fill="#4c241d"/></g><circle cx="198.397" cy="184.093" fill="#4c241d" r="4.276"/><g><circle cx="82" cy="182" fill="#ffec95" r="32"/><path d="m82 218c-19.85 0-36-16.15-36-36s16.15-36 36-36 36 16.15 36 36-16.15 36-36 36zm0-64c-15.439 0-28 12.561-28 28s12.561 28 28 28 28-12.561 28-28-12.561-28-28-28z" fill="#4c241d"/></g><circle cx="94.397" cy="168.093" fill="#4c241d" r="4.276"/><g><circle cx="110" cy="222" fill="#ffce56" r="32"/><path d="m110 258c-19.85 0-36-16.15-36-36s16.15-36 36-36 36 16.15 36 36-16.15 36-36 36zm0-64c-15.439 0-28 12.561-28 28s12.561 28 28 28 28-12.561 28-28-12.561-28-28-28z" fill="#4c241d"/></g><circle cx="122.397" cy="208.093" fill="#4c241d" r="4.276"/></g></svg>