<svg id="no-nuts" enable-background="new 0 0 300 300" height="512" viewBox="0 0 300 300" width="512" xmlns="http://www.w3.org/2000/svg"><g><circle cx="176" cy="128" fill="#fff0fd" r="92"/><path d="m256 64c-6.617 0-12-5.383-12-12s5.383-12 12-12 12 5.383 12 12-5.383 12-12 12zm0-16c-2.205 0-4 1.795-4 4s1.795 4 4 4 4-1.795 4-4-1.795-4-4-4z" fill="#4c241d"/><path d="m88 184c-1.023 0-2.047-.391-2.828-1.172l-12-12c-1.562-1.562-1.562-4.094 0-5.656s4.094-1.562 5.656 0l12 12c1.562 1.562 1.562 4.094 0 5.656-.781.781-1.805 1.172-2.828 1.172z" fill="#4c241d"/><path d="m76 184c-1.023 0-2.047-.391-2.828-1.172-1.562-1.562-1.562-4.094 0-5.656l12-12c1.562-1.562 4.094-1.562 5.656 0s1.562 4.094 0 5.656l-12 12c-.781.781-1.805 1.172-2.828 1.172z" fill="#4c241d"/><circle cx="224.397" cy="146.093" fill="#4c241d" r="4.276"/><circle cx="180.397" cy="82.093" fill="#4c241d" r="4.276"/><g><path d="m148 105.714c-19.172-19.172-41.219-20.495-54-7.714s-11.458 34.828 7.714 54c4.91 4.91 10.514 9.152 16.35 12.533 7.2 4.172 13.23 10.202 17.402 17.402 3.382 5.836 7.623 11.44 12.534 16.35 19.172 19.172 41.219 20.496 54 7.714s11.458-34.828-7.714-54c-4.91-4.91-10.514-9.152-16.35-12.534-7.2-4.172-13.23-10.202-17.402-17.402-3.382-5.835-7.624-11.439-12.534-16.349z" fill="#bf7e68"/><path d="m181.529 218.459c-11.898 0-24.91-5.896-36.357-17.346-5.074-5.074-9.504-10.852-13.166-17.172-3.826-6.605-9.34-12.119-15.947-15.947-6.32-3.662-12.098-8.092-17.172-13.166-19.834-19.834-23.006-44.365-7.715-59.656 15.289-15.295 39.822-12.123 59.656 7.715 5.074 5.074 9.504 10.852 13.166 17.172 3.828 6.607 9.342 12.121 15.947 15.947 6.32 3.662 12.098 8.092 17.172 13.166 19.834 19.834 23.006 44.365 7.715 59.656-6.465 6.465-14.584 9.631-23.299 9.631zm-67.025-124.836c-6.689 0-12.832 2.361-17.676 7.205-11.961 11.961-8.787 31.84 7.715 48.344 4.52 4.52 9.889 8.633 15.527 11.9 7.812 4.527 14.334 11.049 18.857 18.857 3.268 5.639 7.381 11.008 11.9 15.527 16.498 16.5 36.377 19.678 48.344 7.715 11.961-11.961 8.787-31.84-7.715-48.344-4.52-4.52-9.889-8.633-15.527-11.9-7.809-4.523-14.33-11.045-18.857-18.857-3.268-5.639-7.381-11.008-11.9-15.527-9.82-9.82-20.836-14.92-30.668-14.92z" fill="#4c241d"/></g><g><path d="m150 36c-62.859 0-114 51.141-114 114s51.141 114 114 114 114-51.141 114-114-51.141-114-114-114zm0 216c-23.93 0-45.944-8.305-63.36-22.155l21.63-21.63c2.344-2.342 2.344-6.143 0-8.484-2.344-2.344-6.141-2.344-8.484 0l-22.112 22.112c-18.329-18.45-29.674-43.845-29.674-71.843 0-56.242 45.758-102 102-102 27.998 0 53.393 11.345 71.843 29.673l-24.983 24.982c-2.344 2.342-2.344 6.141 0 8.484 1.172 1.172 2.707 1.758 4.242 1.758s3.07-.586 4.242-1.758l24.501-24.499c13.85 17.416 22.155 39.43 22.155 63.36 0 56.242-45.758 102-102 102z" fill="#e66353"/><path d="m150 268c-65.066 0-118-52.934-118-118s52.934-118 118-118 118 52.934 118 118-52.934 118-118 118zm0-228c-60.654 0-110 49.346-110 110s49.346 110 110 110 110-49.346 110-110-49.346-110-110-110zm0 216c-24.139 0-46.908-7.961-65.85-23.023-.891-.709-1.439-1.766-1.504-2.904-.064-1.137.359-2.248 1.166-3.055l21.629-21.631c.51-.51.586-1.105.586-1.414s-.076-.904-.586-1.412c-.777-.781-2.047-.779-2.828-.002l-22.111 22.113c-.75.75-1.768 1.172-2.828 1.172-.002 0-.004 0-.006 0-1.064-.002-2.082-.426-2.832-1.182-19.885-20.017-30.836-46.533-30.836-74.662 0-58.449 47.551-106 106-106 28.127 0 54.643 10.951 74.662 30.834.754.75 1.18 1.768 1.182 2.832.002 1.062-.42 2.082-1.172 2.834l-24.984 24.982c-.51.51-.586 1.104-.586 1.414 0 .309.076.904.586 1.414s1.105.586 1.414.586.904-.076 1.414-.586l24.502-24.5c.805-.807 1.908-1.248 3.055-1.166 1.139.064 2.195.613 2.904 1.504 15.062 18.944 23.023 41.715 23.023 65.852 0 58.449-47.551 106-106 106zm-57.291-26.566c16.768 12.162 36.48 18.566 57.291 18.566 54.037 0 98-43.963 98-98 0-20.811-6.404-40.523-18.566-57.293l-21.262 21.26c-3.777 3.777-10.363 3.777-14.141 0-1.889-1.889-2.93-4.4-2.93-7.07 0-2.672 1.041-5.184 2.93-7.072l22.09-22.086c-18.133-16.63-41.457-25.739-66.121-25.739-54.037 0-98 43.963-98 98 0 24.664 9.111 47.988 25.74 66.121l19.217-19.219c3.898-3.898 10.242-3.898 14.141 0 1.889 1.887 2.93 4.398 2.93 7.07s-1.041 5.184-2.93 7.072z" fill="#4c241d"/></g><g fill="#4c241d"><circle cx="120" cy="116" r="4"/><circle cx="124" cy="128" r="4"/><circle cx="104" cy="112" r="4"/><circle cx="136" cy="112" r="4"/><circle cx="140" cy="128" r="4"/><circle cx="116" cy="104" r="4"/><circle cx="112" cy="124" r="4"/><circle cx="116" cy="140" r="4"/></g></g></svg>