<svg id="nut" enable-background="new 0 0 300 300" height="512" viewBox="0 0 300 300" width="512" xmlns="http://www.w3.org/2000/svg"><g><circle cx="140" cy="130.815" fill="#fff0fd" r="92"/><g fill="#4c241d"><path d="m248 250.815c-1.023 0-2.047-.391-2.828-1.172l-12-12c-1.562-1.562-1.562-4.094 0-5.656s4.094-1.562 5.656 0l12 12c1.562 1.562 1.562 4.094 0 5.656-.781.782-1.805 1.172-2.828 1.172z"/><path d="m236 250.815c-1.023 0-2.047-.391-2.828-1.172-1.562-1.562-1.562-4.094 0-5.656l12-12c1.562-1.562 4.094-1.562 5.656 0s1.562 4.094 0 5.656l-12 12c-.781.782-1.805 1.172-2.828 1.172z"/><path d="m212 66.815c-1.023 0-2.047-.391-2.828-1.172l-12-12c-1.562-1.562-1.562-4.094 0-5.656s4.094-1.562 5.656 0l12 12c1.562 1.562 1.562 4.094 0 5.656-.781.782-1.805 1.172-2.828 1.172z"/><path d="m200 66.815c-1.023 0-2.047-.391-2.828-1.172-1.562-1.562-1.562-4.094 0-5.656l12-12c1.562-1.562 4.094-1.562 5.656 0s1.562 4.094 0 5.656l-12 12c-.781.782-1.805 1.172-2.828 1.172z"/><path d="m96 66.815c-6.617 0-12-5.383-12-12s5.383-12 12-12 12 5.383 12 12-5.383 12-12 12zm0-16c-2.207 0-4 1.795-4 4s1.793 4 4 4 4-1.795 4-4-1.793-4-4-4z"/><circle cx="60.397" cy="84.908" r="4.276"/><circle cx="208.397" cy="256.908" r="4.276"/></g><g><path d="m256 166.814-18.563-17.366c-8.516-38.055-44.416-66.633-87.437-66.633-43.022 0-78.922 28.579-87.437 66.634l-18.563 17.366 18.563 17.366c8.515 38.055 44.416 66.634 87.437 66.634 43.022 0 78.923-28.58 87.438-66.635z" fill="#bf7e68"/><path d="m150 254.815c-43.438 0-81.523-28.752-91.059-68.543l-17.676-16.535c-.809-.758-1.266-1.814-1.266-2.922s.457-2.164 1.266-2.922l17.676-16.535c9.535-39.791 47.621-68.543 91.059-68.543s81.523 28.752 91.059 68.543l17.676 16.535c.809.758 1.266 1.814 1.266 2.922s-.457 2.164-1.266 2.922l-17.676 16.533c-9.536 39.791-47.621 68.545-91.059 68.545zm-100.145-88 15.441 14.445c.586.551.992 1.264 1.168 2.049 8.234 36.797 43.367 63.506 83.535 63.506s75.301-26.709 83.535-63.508c.176-.785.582-1.498 1.168-2.049l15.441-14.443-15.441-14.445c-.586-.551-.992-1.264-1.168-2.049-8.234-36.797-43.367-63.506-83.535-63.506s-75.301 26.709-83.535 63.506c-.176.785-.582 1.498-1.168 2.049z" fill="#4c241d"/></g><path d="m250.746 170.815h-22.746c-2.211 0-4-1.791-4-4s1.789-4 4-4h22.746c2.211 0 4 1.791 4 4s-1.789 4-4 4z" fill="#4c241d"/><path d="m88 170.815h-39.453c-2.211 0-4-1.791-4-4s1.789-4 4-4h39.453c2.211 0 4 1.791 4 4s-1.789 4-4 4z" fill="#4c241d"/><path d="m124 170.815h-12c-2.211 0-4-1.791-4-4s1.789-4 4-4h12c2.211 0 4 1.791 4 4s-1.789 4-4 4z" fill="#4c241d"/><path d="m192 170.815h-40c-2.211 0-4-1.791-4-4s1.789-4 4-4h40c2.211 0 4 1.791 4 4s-1.789 4-4 4z" fill="#4c241d"/><g><path d="m112 118.815c5.178 3.187 13.415 7.168 24 8 2.882.227 5.564.19 8 0" fill="#bf7e68"/><path d="m139.988 130.972c-1.441 0-2.879-.057-4.301-.168-9.008-.709-17.68-3.596-25.785-8.582-1.879-1.158-2.465-3.621-1.309-5.502 1.156-1.883 3.609-2.473 5.504-1.311 7.012 4.314 14.484 6.811 22.215 7.418 2.434.191 4.914.191 7.379 0 2.273-.166 4.125 1.479 4.297 3.678.172 2.203-1.477 4.127-3.68 4.299-1.437.111-2.878.168-4.32.168z" fill="#4c241d"/></g><g><path d="m168 110.815c6.908 9.981 12.258 12.1 16 12 2.012-.053 4.407-.771 8 0 3.578.768 6.262 2.564 8 4" fill="#bf7e68"/><path d="m199.996 130.815c-.895 0-1.797-.301-2.543-.916-1.98-1.635-4.098-2.701-6.293-3.174-1.957-.42-3.406-.262-4.938-.086-.754.084-1.453.156-2.117.174-6.484.201-12.883-4.314-19.395-13.721-1.258-1.816-.805-4.309 1.012-5.566 1.82-1.26 4.309-.803 5.566 1.012 4.66 6.73 8.965 10.281 12.469 10.281.043 0 .09-.002.137-.002.453-.012.926-.07 1.438-.129 1.805-.201 4.273-.479 7.508.217 3.461.742 6.73 2.365 9.707 4.826 1.703 1.406 1.945 3.928.539 5.631-.793.957-1.938 1.453-3.09 1.453z" fill="#4c241d"/></g><g><path d="m96 202.815c9.039-7.69 15.654-8.58 20-8 6.643.886 10.511 5.546 16 4 4.136-1.165 6.618-5.129 8-8" fill="#bf7e68"/><path d="m96 206.815c-1.129 0-2.254-.479-3.047-1.408-1.43-1.684-1.227-4.207.453-5.639 8.098-6.883 15.855-9.885 23.125-8.918 3.367.449 6.012 1.643 8.34 2.693 2.797 1.266 4.348 1.902 6.043 1.422 2.031-.572 3.875-2.553 5.48-5.887.961-1.986 3.352-2.822 5.34-1.867 1.992.959 2.828 3.35 1.871 5.34-2.648 5.49-6.188 8.895-10.523 10.113-4.59 1.297-8.258-.367-11.5-1.828-2.008-.906-3.902-1.762-6.113-2.057-4.895-.656-10.582 1.729-16.875 7.082-.754.642-1.676.954-2.594.954z" fill="#4c241d"/></g><g><path d="m136 218.815c9.366 5.18 15.813 5.084 20 4 3.879-1.005 6.291-2.981 12-4 4.972-.888 9.222-.475 12 0" fill="#bf7e68"/><path d="m151.242 227.407c-5.297 0-11.051-1.703-17.18-5.092-1.93-1.068-2.633-3.502-1.562-5.436 1.07-1.936 3.496-2.637 5.438-1.564 6.574 3.639 12.32 4.852 17.059 3.627 1.281-.33 2.418-.812 3.734-1.373 2.211-.939 4.719-2.004 8.566-2.691 4.344-.777 8.852-.779 13.375-.006 2.18.373 3.645 2.439 3.27 4.617-.371 2.176-2.434 3.656-4.613 3.27-3.617-.621-7.188-.615-10.625-.006-2.957.529-4.848 1.33-6.844 2.18-1.477.627-3.004 1.275-4.855 1.756-1.857.478-3.778.718-5.763.718z" fill="#4c241d"/></g><g><path d="m176 198.815s12 0 24-4" fill="#bf7e68"/><path d="m176 202.815c-2.207 0-3.996-1.789-4-3.996 0-2.209 1.789-4 3.996-4.004.113 0 11.539-.061 22.738-3.795 2.117-.705 4.359.436 5.059 2.529.699 2.096-.434 4.361-2.527 5.061-12.473 4.158-24.75 4.205-25.266 4.205z" fill="#4c241d"/></g><g><path d="m88 142.815s8-4 16 0" fill="#bf7e68"/><path d="m103.996 146.815c-.602 0-1.211-.135-1.785-.422-6.031-3.012-12.355-.033-12.422 0-1.973.986-4.375.188-5.367-1.789-.988-1.977-.188-4.379 1.789-5.367.402-.199 9.898-4.842 19.578 0 1.977.988 2.777 3.391 1.789 5.367-.703 1.403-2.113 2.211-3.582 2.211z" fill="#4c241d"/></g></g></svg>