<svg id="pistachio" enable-background="new 0 0 300 300" height="512" viewBox="0 0 300 300" width="512" xmlns="http://www.w3.org/2000/svg"><g><circle cx="135.663" cy="124" fill="#fff0fd" r="92"/><g fill="#4c241d"><path d="m63.663 96c-6.617 0-12-5.383-12-12s5.383-12 12-12 12 5.383 12 12-5.382 12-12 12zm0-16c-2.207 0-4 1.795-4 4s1.793 4 4 4 4-1.795 4-4-1.793-4-4-4z"/><path d="m247.663 248c-1.023 0-2.047-.391-2.828-1.172l-12-12c-1.562-1.562-1.562-4.094 0-5.656s4.094-1.562 5.656 0l12 12c1.562 1.562 1.562 4.094 0 5.656-.781.781-1.804 1.172-2.828 1.172z"/><path d="m235.663 248c-1.023 0-2.047-.391-2.828-1.172-1.562-1.562-1.562-4.094 0-5.656l12-12c1.562-1.562 4.094-1.562 5.656 0s1.562 4.094 0 5.656l-12 12c-.781.781-1.804 1.172-2.828 1.172z"/><circle cx="68.06" cy="122.093" r="4.276"/><circle cx="252.06" cy="202.093" r="4.276"/></g><g><path d="m95.826 200.271c0-47.628 56.317-144.271 59.837-144.271s59.838 96.643 59.838 144.271" fill="#a9ba5a"/><path d="m215.499 204.271c-2.211 0-4-1.791-4-4 0-41.354-44.277-121.746-55.836-138.256-11.559 16.51-55.836 96.902-55.836 138.256 0 2.209-1.789 4-4 4s-4-1.791-4-4c0-26.113 15.77-64.299 28.996-91.734 8.82-18.297 16.668-32.115 20.559-38.723 10.492-17.814 12-17.814 14.281-17.814s3.789 0 14.281 17.814c3.891 6.607 11.738 20.426 20.559 38.723 13.227 27.436 28.996 65.621 28.996 91.734 0 2.209-1.789 4-4 4z" fill="#4c241d"/></g><g><path d="m177.42 57.083-21.757 138.917-21.757-138.917c-32.356 16.177-46.243 70.917-46.243 125.334 0 54.124 64 81.583 68 81.583s68-27.459 68-81.583c0-54.417-13.886-109.157-46.243-125.334z" fill="#ffded5"/><path d="m155.663 268c-4.34 0-72-27.508-72-85.584 0-65.551 18.113-113.742 48.453-128.912 1.141-.57 2.488-.562 3.621.023 1.137.584 1.922 1.676 2.121 2.936l17.805 113.688 17.805-113.688c.199-1.26.984-2.352 2.121-2.936 1.133-.586 2.48-.594 3.621-.023 30.34 15.17 48.453 63.361 48.453 128.912 0 58.076-67.66 85.584-72 85.584zm-24.804-204.521c-28.785 19.273-39.195 73.195-39.195 118.938 0 49.092 56.68 75.584 64 77.523 7.32-1.939 64-28.432 64-77.523 0-45.742-10.41-99.664-39.195-118.938l-20.852 133.141c-.305 1.945-1.984 3.381-3.953 3.381s-3.648-1.436-3.953-3.381z" fill="#4c241d"/></g><path d="m155.663 108c-2.211 0-4-1.791-4-4v-48c0-2.209 1.789-4 4-4s4 1.791 4 4v48c0 2.209-1.789 4-4 4z" fill="#4c241d"/><path d="m155.663 224c-2.211 0-4-1.791-4-4v-24c0-2.209 1.789-4 4-4s4 1.791 4 4v24c0 2.209-1.789 4-4 4z" fill="#4c241d"/></g></svg>