<svg id="saffron" enable-background="new 0 0 300 300" height="512" viewBox="0 0 300 300" width="512" xmlns="http://www.w3.org/2000/svg"><g><circle cx="143.663" cy="138" fill="#fff0fd" r="92"/><g fill="#4c241d"><path d="m99.663 62c-6.617 0-12-5.383-12-12s5.383-12 12-12 12 5.383 12 12-5.382 12-12 12zm0-16c-2.207 0-4 1.795-4 4s1.793 4 4 4 4-1.795 4-4-1.793-4-4-4z"/><path d="m219.663 258c-1.023 0-2.047-.391-2.828-1.172l-12-12c-1.562-1.562-1.562-4.094 0-5.656s4.094-1.562 5.656 0l12 12c1.562 1.562 1.562 4.094 0 5.656-.781.781-1.804 1.172-2.828 1.172z"/><path d="m207.663 258c-1.023 0-2.047-.391-2.828-1.172-1.562-1.562-1.562-4.094 0-5.656l12-12c1.562-1.562 4.094-1.562 5.656 0s1.562 4.094 0 5.656l-12 12c-.781.781-1.804 1.172-2.828 1.172z"/><circle cx="60.06" cy="56.093" r="4.276"/><circle cx="244.06" cy="252.093" r="4.276"/></g><g><path d="m225.403 177.176c-13.723-9.6-55.016-24.632-69.068-27.176 14.051-2.543 55.344-17.576 69.068-27.176 16.292-11.397 18.034-37.024 18.034-37.024s-24.671-7.149-40.963 4.247c-12.097 8.462-35.495 35.594-45.81 50.351 6.18-16.911 14.999-51.636 14.999-66.399 0-19.882-20-36-20-36s-20 16.118-20 36c0 14.763 8.819 49.488 15 66.399-10.315-14.758-33.713-41.889-45.81-50.351-16.292-11.396-40.963-4.246-40.963-4.246s1.743 25.627 18.034 37.024c13.723 9.6 55.016 24.632 69.068 27.176-14.051 2.543-55.344 17.576-69.068 27.176-16.292 11.397-18.034 37.024-18.034 37.024s24.671 7.149 40.963-4.247c12.097-8.462 35.496-35.594 45.81-50.351-6.18 16.911-15 51.636-15 66.399 0 19.882 20 36 20 36s20-16.118 20-36c0-14.763-8.819-49.488-14.999-66.399 10.315 14.758 33.713 41.889 45.81 50.351 16.292 11.396 40.963 4.247 40.963 4.247s-1.743-25.628-18.034-37.025z" fill="#f4aeab"/><path d="m151.663 266c-.891 0-1.777-.295-2.512-.885-.875-.707-21.488-17.566-21.488-39.115 0-10.496 4.117-29.896 8.66-46.551-11.043 13.27-24.578 27.766-33.18 33.781-17.656 12.352-43.281 5.123-44.367 4.811-1.809-.523-3.004-2.236-2.879-4.113.078-1.125 2.078-27.678 19.734-40.029 10.66-7.457 37.25-18.039 55.887-23.898-18.637-5.859-45.227-16.441-55.887-23.898-17.655-12.353-19.655-38.906-19.733-40.031-.125-1.877 1.07-3.59 2.879-4.113 1.086-.312 26.715-7.541 44.367 4.811 8.602 6.016 22.137 20.512 33.18 33.781-4.543-16.654-8.66-36.055-8.66-46.551 0-21.549 20.613-38.408 21.488-39.115 1.469-1.18 3.555-1.18 5.023 0 .875.707 21.488 17.566 21.488 39.115 0 10.496-4.117 29.896-8.66 46.551 11.043-13.27 24.578-27.766 33.18-33.781 17.66-12.348 43.285-5.119 44.367-4.811 1.809.523 3.004 2.236 2.879 4.113-.078 1.125-2.078 27.678-19.734 40.029-10.66 7.457-37.25 18.039-55.887 23.898 18.637 5.859 45.227 16.441 55.887 23.898 17.656 12.352 19.656 38.904 19.734 40.029.125 1.877-1.07 3.59-2.879 4.113-1.082.312-26.703 7.543-44.367-4.811-8.602-6.016-22.137-20.512-33.18-33.781 4.543 16.654 8.66 36.055 8.66 46.551 0 21.549-20.613 38.408-21.488 39.115-.734.592-1.621.887-2.512.887zm-4.996-110.398c.625 0 1.258.146 1.844.453 1.781.928 2.598 3.033 1.91 4.92-5.941 16.26-14.758 50.729-14.758 65.025 0 13.666 10.938 25.756 16 30.617 5.062-4.861 16-16.951 16-30.617 0-14.297-8.816-48.766-14.758-65.025-.688-1.887.129-3.992 1.91-4.92 1.777-.934 3.977-.391 5.125 1.256 9.922 14.189 33.113 41.17 44.828 49.365 11.242 7.867 27.391 5.812 34.258 4.445-1.082-6.932-4.715-22.832-15.918-30.668-12.973-9.074-53.613-24.006-67.484-26.518-1.906-.344-3.289-2.002-3.289-3.936s1.383-3.592 3.289-3.936c13.871-2.512 54.512-17.443 67.484-26.518 11.199-7.834 14.836-23.727 15.918-30.66-6.887-1.361-23.062-3.4-34.258 4.438-11.715 8.195-34.906 35.176-44.828 49.365-1.145 1.648-3.348 2.186-5.125 1.256-1.781-.928-2.598-3.033-1.91-4.92 5.941-16.26 14.758-50.729 14.758-65.025 0-13.666-10.938-25.756-16-30.617-5.062 4.861-16 16.951-16 30.617 0 14.297 8.816 48.766 14.758 65.025.688 1.887-.129 3.992-1.91 4.92-1.785.93-3.98.387-5.125-1.256-9.922-14.189-33.113-41.17-44.828-49.365-11.242-7.863-27.395-5.812-34.258-4.445 1.082 6.932 4.715 22.832 15.918 30.668 12.973 9.074 53.613 24.006 67.484 26.518 1.906.344 3.289 2.002 3.289 3.936s-1.383 3.592-3.289 3.936c-13.871 2.512-54.512 17.443-67.484 26.518-11.199 7.834-14.836 23.727-15.918 30.66 6.887 1.363 23.062 3.393 34.258-4.438 11.715-8.195 34.906-35.176 44.828-49.365.77-1.104 2.012-1.709 3.281-1.709z" fill="#4c241d"/></g><g><path d="m179.162 159.023-19.054-12.205c-.161-.104-.336-.164-.502-.254.013-.19.057-.37.057-.563v-16c0-4.418-3.582-8-8-8s-8 3.582-8 8v16c0 .08.021.153.023.232-.392.17-.783.347-1.155.585l-19.054 12.205c-3.72 2.383-4.804 7.331-2.421 11.052 2.383 3.72 7.331 4.804 11.052 2.421l19.054-12.205c.058-.037.102-.087.158-.125.057.038.1.088.158.125l19.054 12.205c3.72 2.383 8.668 1.299 11.052-2.421 2.383-3.721 1.299-8.669-2.422-11.052z" fill="#e66353"/><path d="m127.82 177.764c-.863 0-1.73-.094-2.594-.283-3.133-.686-5.809-2.549-7.535-5.248-1.73-2.701-2.305-5.91-1.617-9.041.684-3.131 2.551-5.809 5.25-7.537l18.34-11.75v-13.905c0-6.617 5.383-12 12-12s12 5.383 12 12v14.346l17.656 11.309v.002c5.57 3.568 7.203 11.004 3.633 16.576-3.574 5.564-11.008 7.193-16.578 3.633l-17.07-10.938-17.039 10.938c-1.954 1.251-4.181 1.898-6.446 1.898zm19.843-31.957c.008.088.016.172.02.23.082 1.662-.875 3.199-2.402 3.863-.203.088-.41.17-.605.295l-19.039 12.195c-.898.578-1.52 1.469-1.75 2.512-.227 1.045-.035 2.115.539 3.016.578.898 1.469 1.52 2.512 1.748 1.039.23 2.113.039 3.016-.537l18.883-12.098c.086-.066.172-.131.238-.176 1.316-.895 3.039-.922 4.387-.068.098.061.219.148.332.234l18.895 12.107c1.859 1.188 4.336.643 5.531-1.215 1.188-1.854.645-4.332-1.211-5.521l-19.32-12.32c-1.387-.758-2.199-2.262-2.07-3.838.008-.078.043-.375.055-.451l-.011-15.783c0-2.205-1.793-4-4-4s-4 1.795-4 4z" fill="#4c241d"/></g><g><path d="m218.843 200.775c-1.336 0-2.641-.668-3.398-1.883-.164-.254-9.148-14.002-35.422-25.135-2.031-.863-2.98-3.211-2.121-5.244.867-2.041 3.211-2.973 5.246-2.123 28.965 12.277 38.695 27.635 39.094 28.283 1.16 1.879.578 4.344-1.301 5.504-.657.407-1.379.598-2.098.598z" fill="#4c241d"/></g><g><path d="m86.245 197.734c-.871 0-1.75-.285-2.488-.871-1.727-1.375-2.012-3.893-.637-5.621.766-.961 18.945-23.541 37.594-25.152 2.242-.221 4.137 1.441 4.328 3.641s-1.438 4.139-3.641 4.328c-12.66 1.096-27.41 16.373-32.023 22.168-.789.992-1.953 1.507-3.133 1.507z" fill="#4c241d"/></g><g><path d="m151.667 126c-.117 0-.238-.006-.359-.016-2.199-.195-3.824-2.139-3.629-4.338 2.059-23.172-4.664-45.104-4.73-45.322-.66-2.107.516-4.352 2.625-5.008 2.105-.652 4.348.51 5.008 2.623.301.951 7.27 23.615 5.066 48.414-.184 2.081-1.93 3.647-3.981 3.647z" fill="#4c241d"/></g></g></svg>