<svg id="soy" enable-background="new 0 0 300 300" height="512" viewBox="0 0 300 300" width="512" xmlns="http://www.w3.org/2000/svg"><g><path d="m234.62 64.109c-1.023 0-2.047-.391-2.828-1.172l-12-12c-1.562-1.562-1.562-4.094 0-5.656s4.094-1.562 5.656 0l12 12c1.562 1.562 1.562 4.094 0 5.656-.782.782-1.805 1.172-2.828 1.172z" fill="#4c241d"/><path d="m222.62 64.109c-1.023 0-2.047-.391-2.828-1.172-1.562-1.562-1.562-4.094 0-5.656l12-12c1.562-1.562 4.094-1.562 5.656 0s1.562 4.094 0 5.656l-12 12c-.782.782-1.805 1.172-2.828 1.172z" fill="#4c241d"/><path d="m66.416 255.891c-7.719 0-14-6.281-14-14s6.281-14 14-14 14 6.281 14 14-6.281 14-14 14zm0-20c-3.309 0-6 2.691-6 6s2.691 6 6 6 6-2.691 6-6-2.691-6-6-6z" fill="#4c241d"/><circle cx="158.416" cy="141.891" fill="#fff0fd" r="86"/><circle cx="184.416" cy="51.891" fill="#4c241d" r="4"/><circle cx="160.416" cy="247.891" fill="#4c241d" r="4"/><g><ellipse cx="108.416" cy="83.891" fill="#ffce56" rx="52" ry="32"/><path d="m108.416 119.891c-31.402 0-56-15.812-56-36s24.598-36 56-36c46.285 0 56 19.576 56 36s-9.714 36-56 36zm0-64c-26.02 0-48 12.822-48 28s21.98 28 48 28c31.852 0 48-9.42 48-28s-16.148-28-48-28z" fill="#4c241d"/></g><g><ellipse cx="120.416" cy="179.891" fill="#ffce56" rx="32" ry="52" transform="matrix(.753 -.658 .658 .753 -88.628 123.667)"/><path d="m136.737 230.176c-4.012 0-8.152-.801-12.375-2.41-9.867-3.762-20.316-11.898-31.055-24.186-20.66-23.648-24.938-52.576-9.738-65.857 7.52-6.576 18.484-8.072 30.879-4.229 11.711 3.635 23.457 11.699 33.078 22.707 30.453 34.855 22.105 55.053 9.738 65.857-6.172 5.393-13.125 8.118-20.527 8.118zm-35.09-90.764c-5.133 0-9.523 1.457-12.812 4.334-11.43 9.986-6.621 34.977 10.496 54.568 9.867 11.293 19.25 18.686 27.879 21.977 9.332 3.561 17.441 2.168 24.789-4.256 13.992-12.225 10.461-30.584-10.496-54.568-8.66-9.91-19.109-17.131-29.43-20.332-3.707-1.153-7.211-1.723-10.426-1.723z" fill="#4c241d"/></g><g><ellipse cx="194.032" cy="122.275" fill="#ffce56" rx="42.971" ry="26.443" transform="matrix(.707 -.707 .707 .707 -29.631 173.015)"/><path d="m177.987 162.01c-6.754 0-12.758-2.113-17.168-6.521-6.016-6.014-7.926-15.203-5.387-25.877 2.379-9.98 8.441-20.23 17.074-28.863 28.895-28.895 46.703-19.725 54.738-11.686 8.039 8.039 17.211 25.842-11.688 54.74-11.819 11.82-25.827 18.207-37.569 18.207zm30.476-73.047c-8.547 0-18.68 5.822-30.301 17.441-7.602 7.6-12.906 16.5-14.945 25.061-1.875 7.869-.719 14.393 3.258 18.367 8.605 8.6 28.492 3.248 43.426-11.686 18.285-18.285 22.219-32.896 11.688-43.428-3.841-3.837-8.223-5.755-13.126-5.755z" fill="#4c241d"/></g><g><ellipse cx="217.24" cy="196.369" fill="#ffce56" rx="35.274" ry="21.707" transform="matrix(.534 -.845 .845 .534 -64.812 275.114)"/><path d="m208.452 233.279c-4.992 0-9.164-1.797-12.191-3.711-8.117-5.129-19.004-18.045-.754-46.932 11.766-18.611 30.52-27.176 42.715-19.469 12.188 7.701 12.516 28.316.754 46.934-11.446 18.108-22.138 23.178-30.524 23.178zm19.664-64.931c-8.121 0-18.688 7.232-25.844 18.562-11.086 17.541-11.672 29.619-1.738 35.896 9.934 6.268 20.586.562 31.676-16.979 9.055-14.33 9.852-30.77 1.738-35.898-1.7-1.072-3.68-1.581-5.832-1.581z" fill="#4c241d"/></g><path d="m126.795 117.043c-1.527 0-2.984-.879-3.652-2.361l-6.02-13.379c-.906-2.014-.008-4.383 2.008-5.289 2.008-.906 4.379-.008 5.289 2.008l6.02 13.379c.906 2.014.008 4.383-2.008 5.289-.531.238-1.09.353-1.637.353z" fill="#4c241d"/><path d="m138.498 112.359c-1.551 0-3.027-.91-3.676-2.428l-4.012-9.365c-.871-2.029.07-4.381 2.102-5.252 2.008-.865 4.379.07 5.25 2.104l4.012 9.365c.871 2.029-.07 4.381-2.102 5.252-.511.219-1.046.324-1.574.324z" fill="#4c241d"/><path d="m111.745 118.713c-1.492 0-2.926-.838-3.613-2.273l-3.68-7.693c-.953-1.994-.109-4.383 1.883-5.336 1.996-.951 4.383-.111 5.336 1.883l3.68 7.693c.953 1.994.109 4.383-1.883 5.336-.559.265-1.145.39-1.723.39z" fill="#4c241d"/><g><path d="m84.979 91.619c-.648 0-1.309-.158-1.918-.492-5.812-3.182-13.367-8.148-11.879-14.512 1.844-7.891 16.879-9.684 25.672-10.051 2.168-.08 4.07 1.619 4.164 3.828.094 2.207-1.621 4.07-3.828 4.164-7.887.334-16.117 2.104-18.039 3.814.461.719 2.117 2.654 7.754 5.74 1.938 1.061 2.648 3.49 1.586 5.43-.727 1.327-2.098 2.079-3.512 2.079z" fill="#4c241d"/></g><g fill="#4c241d"><path d="m140.877 188.135c-1.953 0-3.66-1.428-3.953-3.416-.324-2.186 1.188-4.219 3.375-4.541l17.188-2.537c2.23-.32 4.219 1.189 4.543 3.373.324 2.186-1.188 4.219-3.371 4.541l-17.195 2.537c-.196.029-.395.043-.587.043z"/><path d="m149.616 199.969c-1.859 0-3.527-1.305-3.914-3.199-.445-2.164.953-4.277 3.117-4.719l12.398-2.535c2.152-.453 4.277.951 4.719 3.117.445 2.164-.953 4.277-3.117 4.719l-12.398 2.535c-.27.056-.54.082-.805.082z"/><path d="m185.686 159.113c-1.637 0-3.172-1.014-3.762-2.643l-4.789-13.244c-.75-2.076.324-4.369 2.402-5.121 2.078-.742 4.367.324 5.121 2.402l4.789 13.244c.75 2.076-.324 4.369-2.402 5.121-.449.163-.906.241-1.359.241z"/><path d="m191.881 213.777c-2.113 0-3.879-1.654-3.992-3.789-.113-2.207 1.578-4.09 3.785-4.205l10.707-.564c2.152-.162 4.09 1.576 4.207 3.783.113 2.207-1.578 4.09-3.785 4.205l-10.707.564c-.07.004-.144.006-.215.006z"/><path d="m196.393 155.449c-1.586 0-3.09-.953-3.715-2.516l-3.945-9.861c-.82-2.051.18-4.379 2.23-5.199 2.035-.822 4.379.172 5.199 2.227l3.945 9.861c.82 2.051-.18 4.379-2.23 5.199-.484.195-.988.289-1.484.289z"/><path d="m100.303 176.58c-1.984 0-3.703-1.471-3.965-3.488-.512-3.973-1.641-17.205 5.301-20.65 6.074-3.035 12.789 3.572 14.996 5.736 1.574 1.549 1.598 4.082.047 5.656-1.547 1.574-4.082 1.594-5.656.047-4.227-4.16-5.941-4.217-6.02-4.217 0 0 0 0-.004 0-.895.943-1.398 7.146-.727 12.41.277 2.191-1.27 4.193-3.461 4.475-.171.021-.343.031-.511.031z"/><path d="m217.241 194.609c-.664 0-1.34-.166-1.961-.516-1.918-1.084-2.602-3.512-1.523-5.436 2.895-5.164 10.688-13.738 19.418-9.201 1.961 1.016 2.727 3.432 1.711 5.393-1.016 1.959-3.445 2.721-5.391 1.709-3.961-2.041-8.723 5.943-8.766 6.023-.738 1.298-2.094 2.028-3.488 2.028z"/><path d="m197.518 108.668c-.773 0-1.559-.225-2.246-.693-1.824-1.242-2.297-3.723-1.059-5.549 1.16-1.719 7.297-10.271 14.59-9.541 2.602.252 6.234 1.791 8.742 7.686.867 2.033-.082 4.381-2.113 5.246-2.035.865-4.379-.08-5.246-2.113-.812-1.906-1.668-2.809-2.156-2.857-1.613-.057-5.191 3.139-7.203 6.078-.774 1.132-2.032 1.743-3.309 1.743z"/></g></g></svg>