<svg height="511pt" viewBox="0 0 511 511.99711" width="511pt" xmlns="http://www.w3.org/2000/svg"><path d="m191.789062 16.820312c-16.515624 9.269532-27.847656 23.738282-32.605468 39.210938 15.6875 3.996094 33.9375 1.851562 50.453125-7.417969 14.046875-7.886719 24.347656-19.53125 30.035156-32.355469 1.597656-3.59375-.722656-7.722656-4.621094-8.234374-13.910156-1.820313-29.214843.910156-43.261719 8.796874zm0 0" fill="#b4e6a0"/><path d="m235.050781 8.023438c-13.910156-1.820313-29.214843.910156-43.261719 8.796874-16.515624 9.269532-27.847656 23.738282-32.605468 39.210938l80.246094-45.035156c-.867188-1.550782-2.421876-2.714844-4.378907-2.972656zm0 0" fill="#96d7a5"/><path d="m160.28125 103.78125c-34.011719 0-70.148438-32.378906-113.367188-5.398438-39.636718 24.742188-48.894531 74.882813-28.34375 151.109376 21.875 81.152343 68.019532 118.730468 102.03125 118.730468 28.339844 0 28.339844-5.398437 39.679688-5.398437 11.335938 0 11.335938 5.398437 39.679688 5.398437 34.007812 0 80.15625-37.578125 102.03125-118.730468 20.546874-76.226563 11.289062-126.367188-28.34375-151.109376-43.222657-26.984374-79.359376 5.398438-113.367188 5.398438zm0 0" fill="#cdf5a0"/><path d="m92.53125 270.382812c-41.378906-82.292968-48.320312-142.523437-20.738281-181.695312-8.046875 1.398438-16.320313 4.351562-24.882813 9.695312-39.632812 24.742188-48.890625 74.882813-28.339844 151.109376 21.875 81.152343 68.019532 118.730468 102.03125 118.730468 28.339844 0 28.339844-5.398437 39.679688-5.398437.527344 0 1.007812.023437 1.492188.046875-23.019532-18.761719-47.332032-48.910156-69.242188-92.488282zm0 0" fill="#b4e6a0"/><path d="m344.660156 223.851562c-35.800781 0-73.839844-34.363281-119.335937-5.726562-41.71875 26.261719-51.464844 79.46875-29.835938 160.371094 23.027344 86.125 71.601563 126.003906 107.402344 126.003906 29.835937 0 29.835937-5.726562 41.769531-5.726562s11.933594 5.726562 41.765625 5.726562c35.800781 0 84.378907-39.878906 107.402344-126.003906 21.628906-80.902344 11.886719-134.113282-29.832031-160.371094-45.5-28.636719-83.535156 5.726562-119.335938 5.726562zm0 0" fill="#fff6d8"/><path d="m368.707031 368.222656c0 16.878906-11.84375 25.859375-18.910156 38.03125-2.289063 3.941406-7.988281 3.941406-10.277344 0-7.0625-12.171875-18.910156-21.152344-18.910156-38.03125s11.847656-25.863281 18.910156-38.03125c2.289063-3.945312 7.988281-3.945312 10.277344 0 7.066406 12.171875 18.910156 21.152344 18.910156 38.03125zm0 0" fill="#ffedb1"/><path d="m510.042969 276.453125c-5.320313-28.699219-19.46875-50.460937-42.054688-64.675781-32.992187-20.765625-62.289062-11.410156-88.140625-3.152344-9.582031 3.058594-18.753906 5.984375-27.488281 7.167969 2.164063-39.921875 22.144531-67.257813 22.347656-67.53125 2.484375-3.316407 1.8125-8.015625-1.5-10.5-3.3125-2.488281-8.015625-1.816407-10.5 1.5-.992187 1.324219-23.234375 31.519531-25.371093 76.582031-6.3125-.820312-12.859376-2.5625-19.625-4.628906 5.75-40.109375.894531-71.949219-14.460938-94.683594-2.320312-3.433594-6.984375-4.335938-10.414062-2.019531-3.433594 2.320312-4.335938 6.980469-2.019532 10.414062 12.914063 19.117188 17.066406 46.589844 12.382813 81.714844-24.292969-7.574219-51.519531-13.96875-81.875 5.136719-31.066407 19.554687-45.996094 53.195312-44.375 99.984375.144531 4.140625 3.636719 7.375 7.753906 7.238281 4.140625-.144531 7.378906-3.617188 7.238281-7.757812-1.445312-41.648438 10.78125-70.03125 37.375-86.769532 27.085938-17.046875 50.644532-9.523437 75.585938-1.558594 10.558594 3.371094 21.40625 6.835938 32.253906 8.015626v33.078124c0 4.144532 3.359375 7.5 7.5 7.5 4.144531 0 7.5-3.355468 7.5-7.5v-33.078124c10.851562-1.179688 21.699219-4.644532 32.257812-8.015626 24.941407-7.964843 48.5-15.488281 75.585938 1.558594 19.160156 12.0625 30.703125 29.957032 35.292969 54.714844 4.703125 25.390625 1.773437 58.152344-8.710938 97.371094-10.257812 38.371094-26.554687 70.21875-47.128906 92.097656-16.9375 18.011719-36.265625 28.34375-53.027344 28.34375-17.160156 0-23.539062-1.9375-28.664062-3.492188-1.765625-.535156-3.5625-1.078124-5.605469-1.496093v-19.578125c0-4.140625-3.355469-7.5-7.5-7.5-4.140625 0-7.5 3.359375-7.5 7.5v19.578125c-2.039062.417969-3.835938.960937-5.601562 1.496093-5.125 1.558594-11.5 3.492188-28.664063 3.492188-16.761719 0-36.089844-10.332031-53.027344-28.34375-20.574219-21.878906-36.871093-53.726562-47.128906-92.097656-3.226563-12.070313-5.769531-23.648438-7.558594-34.410156-.675781-4.085938-4.539062-6.851563-8.625-6.171876-4.085937.679688-6.847656 4.542969-6.171875 8.628907.816406 4.914062 1.792969 9.996093 2.902344 15.195312-4.773438-.648437-7.742188-1.539062-10.460938-2.355469-3.460937-1.042968-7.042968-2.121093-12.539062-2.121093s-9.078125 1.078125-12.542969 2.121093c-4.847656 1.457032-10.878906 3.273438-27.136719 3.273438-15.835937 0-34.101562-9.691406-50.125-26.589844-19.496093-20.566406-34.9375-50.507812-44.664062-86.589844-9.941406-36.878906-12.722656-67.675781-8.265625-91.53125 4.332031-23.195312 15.238281-39.964843 33.335937-51.261718 25.597657-15.984375 47.910157-8.914063 71.53125-1.433594 12.363282 3.917969 25.148438 7.96875 37.867188 7.96875 12.714844 0 25.5-4.050781 37.863281-7.96875 23.621094-7.480469 45.933594-14.550781 71.53125 1.433594 3.515625 2.191406 8.140625 1.121094 10.335938-2.390625 2.191406-3.515625 1.121093-8.140625-2.390625-10.335938-31.472656-19.648437-59.382813-10.808593-84.007813-3.007812-9.003906 2.855469-17.628906 5.582031-25.832031 6.714843v-3.78125c0-9.726562-1.015625-18.8125-2.625-27.148437 3.125.417969 6.292969.628906 9.484375.628906 13.148437 0 26.613281-3.507812 38.667969-10.273437 17.449218-9.796875 30.605468-25.667969 36.105468-43.550782.601563-1.960937.375-4.085937-.632812-5.875-1.003906-1.789062-2.695312-3.089843-4.6875-3.597656-18.125-4.617187-38.527344-1.648437-55.976562 8.148438-12.757813 7.160156-23.203126 17.578125-30.054688 29.644531-6.984375-18.308594-15.273438-29.359375-15.867188-30.140625-2.515624-3.292969-7.222656-3.925781-10.515624-1.410156-3.292969 2.511718-3.921876 7.21875-1.410157 10.511718.226563.292969 22.511719 29.984376 22.511719 73.058594v3.78125c-8.203125-1.132812-16.828125-3.859375-25.832031-6.710937-24.625-7.800781-52.535157-16.644531-84.007813 3.007812-21.558594 13.457031-35.0625 34.058594-40.140625 61.230469-4.871093 26.085938-2.003906 59.121094 8.527344 98.191406 10.375 38.480469 27.0625 70.640625 48.265625 93.003906 19.117188 20.167969 40.785156 31.273438 61.007812 31.273438 18.46875 0 25.980469-2.261719 31.464844-3.914062 3.074219-.925782 4.929688-1.484376 8.214844-1.484376 3.289062 0 5.144531.558594 8.214844 1.484376 3.859375 1.160156 8.972656 2.699218 18.402344 3.449218.433593 1.71875.882812 3.441406 1.34375 5.175782 10.898437 40.757812 28.425781 74.816406 50.695312 98.5 20.050781 21.324218 42.761719 33.066406 63.953125 33.066406 19.390625 0 27.269531-2.390625 33.019531-4.136719 3.265625-.992187 5.238282-1.589844 8.75-1.589844 3.507813 0 5.480469.597657 8.746094 1.589844 5.753906 1.746094 13.632812 4.136719 33.019531 4.136719 21.195313 0 43.90625-11.742188 63.957031-33.066406 22.265626-23.683594 39.792969-57.742188 50.691407-98.5 11.066406-41.386719 14.082031-76.371094 8.96875-103.976563zm-314.582031-253.09375c11.40625-6.402344 24.277343-9.226563 36.414062-8.136719-5.390625 10.925782-14.503906 20.449219-25.910156 26.851563-11.402344 6.402343-24.277344 9.226562-36.414063 8.136719 5.390625-10.925782 14.503907-20.449219 25.910157-26.851563zm0 0"/><path d="m344.65625 431.835938c4.144531 0 7.5-3.355469 7.5-7.5 0-9.523438 4.878906-16.027344 10.527344-23.558594 6.339844-8.449219 13.523437-18.03125 13.523437-32.558594 0-14.523438-7.183593-24.101562-13.523437-32.554688-5.648438-7.53125-10.527344-14.035156-10.527344-23.558593 0-4.140625-3.355469-7.5-7.5-7.5-4.140625 0-7.5 3.359375-7.5 7.5 0 9.523437-4.875 16.027343-10.523438 23.558593-6.339843 8.453126-13.523437 18.03125-13.523437 32.554688 0 14.527344 7.183594 24.105469 13.523437 32.558594 5.648438 7.53125 10.523438 14.035156 10.523438 23.558594 0 4.144531 3.359375 7.5 7.5 7.5zm-6.023438-87.171876c2.011719-2.675781 4.101563-5.46875 6.023438-8.492187 1.925781 3.023437 4.019531 5.816406 6.027344 8.492187 5.644531 7.53125 10.523437 14.03125 10.523437 23.558594 0 9.523438-4.878906 16.027344-10.523437 23.558594-2.007813 2.675781-4.101563 5.464844-6.027344 8.492188-1.921875-3.027344-4.015625-5.816407-6.023438-8.492188-5.644531-7.53125-10.523437-14.035156-10.523437-23.558594 0-9.527344 4.878906-16.027344 10.523437-23.558594zm0 0"/></svg>