<svg id="Layer_1" height="512" viewBox="0 0 64 64" width="512" xmlns="http://www.w3.org/2000/svg" data-name="Layer 1"><path d="m59.84 34.61a7.993 7.993 0 0 1 -14.29 3.11c.62-.97 1.28-1.9 1.99-2.82l1.46-1.9a4.7951 4.7951 0 0 0 -6.34-.38l-.22.17a27.3019 27.3019 0 0 0 -6.69 7.7 14.0418 14.0418 0 0 1 -7.5 0 27.3019 27.3019 0 0 0 -6.69-7.7l-3.56-2.79-1.3 1.3a2.7321 2.7321 0 0 0 -.8 1.94 2.7034 2.7034 0 0 0 .56 1.66c.71.92 1.37 1.85 1.99 2.82a7.9983 7.9983 0 1 1 -6.45-12.72 8.3372 8.3372 0 0 1 1.13.09 7.991 7.991 0 0 1 11.2-10.81 8.16 8.16 0 0 1 -.33-2.28 8.0042 8.0042 0 0 1 8-8 8.1275 8.1275 0 0 1 1.38.12 8.0035 8.0035 0 0 1 6.29 10.16 7.99 7.99 0 0 1 11.2 10.81 8.3372 8.3372 0 0 1 1.13-.09 8.01 8.01 0 0 1 7.84 9.61z" fill="#42a047"/><path d="m59.84 34.61a7.993 7.993 0 0 1 -14.29 3.11c.62-.97 1.28-1.9 1.99-2.82l1.46-1.9a4.7951 4.7951 0 0 0 -6.34-.38l-.22.17a26.9072 26.9072 0 0 0 -4.91 5.04 16.8062 16.8062 0 0 0 -1.15 1.65c-.22.33-.43.67-.63 1.01a14.0291 14.0291 0 0 1 -3.75.51v-37a8.1275 8.1275 0 0 1 1.38.12 8.0035 8.0035 0 0 1 6.29 10.16 7.99 7.99 0 0 1 11.2 10.81 8.3372 8.3372 0 0 1 1.13-.09 8.01 8.01 0 0 1 7.84 9.61z" fill="#378e43"/><path d="m52 38a4.9721 4.9721 0 0 1 -1.1807-.1406 1 1 0 0 1 .4727-1.9434 3.0027 3.0027 0 0 0 3.708-2.916 1 1 0 0 1 2 0 5.0059 5.0059 0 0 1 -5 5z" fill="#1e5f30"/><path d="m12 38a5.0059 5.0059 0 0 1 -5-5 1 1 0 0 1 2 0 3.0027 3.0027 0 0 0 3.708 2.916 1 1 0 0 1 .4727 1.9434 4.9721 4.9721 0 0 1 -1.1807.1406z" fill="#317e3d"/><path d="m48 22a1 1 0 0 1 -1-1 3.0033 3.0033 0 0 0 -3-3 1 1 0 0 1 0-2 5.0059 5.0059 0 0 1 5 5 1 1 0 0 1 -1 1z" fill="#1e5f30"/><path d="m16 22a1 1 0 0 1 -1-1 5.0059 5.0059 0 0 1 5-5 1 1 0 0 1 0 2 3.0033 3.0033 0 0 0 -3 3 1 1 0 0 1 -1 1z" fill="#317e3d"/><path d="m36 13a1 1 0 0 1 -1-1 3 3 0 0 0 -6 0 1 1 0 0 1 -2 0 5 5 0 0 1 10 0 1 1 0 0 1 -1 1z" fill="#1e5f30"/><path d="m49 33-1.46 1.9a41.1485 41.1485 0 0 0 -8.54 25.1h-14a41.2429 41.2429 0 0 0 -2.19-13.26 41.3247 41.3247 0 0 0 -6.35-11.84 2.7436 2.7436 0 0 1 .24-3.6l1.3-1.3 3.56 2.79a27.3462 27.3462 0 0 1 10.44 21.49 27.3462 27.3462 0 0 1 10.44-21.49l.22-.17a4.7951 4.7951 0 0 1 6.34.38z" fill="#81c785"/><path d="m49 33-1.46 1.9a41.1485 41.1485 0 0 0 -8.54 25.1h-7v-5.72a27.3462 27.3462 0 0 1 10.44-21.49l.22-.17a4.7951 4.7951 0 0 1 6.34.38z" fill="#66bb6a"/><path d="m40 27a1.0029 1.0029 0 0 1 -1 1 4.9971 4.9971 0 0 0 -1.72 9.69.768.768 0 0 1 .25.14 16.8062 16.8062 0 0 0 -1.15 1.65 6.9933 6.9933 0 0 1 2.62-13.48 1.0029 1.0029 0 0 1 1 1z" fill="#1e5f30"/><path d="m27 30a1 1 0 0 1 0-2 4 4 0 1 0 -4-4 1 1 0 0 1 -2 0 6 6 0 1 1 6 6z" fill="#317e3d"/><g fill="#1e5f30"><circle cx="37" cy="20" r="1"/><circle cx="42" cy="23" r="1"/><circle cx="47" cy="27" r="1"/><circle cx="38" cy="32" r="1"/></g><circle cx="13" cy="29" fill="#317e3d" r="1"/><circle cx="27" cy="24" fill="#317e3d" r="1"/><path d="m3.1758 34.8018c1.245 6.9209 10.2887 9.6035 15.1272 4.596a40.3973 40.3973 0 0 1 5.697 20.6022 1 1 0 0 0 1 1h14a1 1 0 0 0 1-1 40.3979 40.3979 0 0 1 5.697-20.6023c4.8427 5.008 13.8818 2.3237 15.1272-4.5961a9.0629 9.0629 0 0 0 -8.35-10.7889 9.01 9.01 0 0 0 -11.4869-11.4912c.1484-12.64-18.1268-12.5961-17.9717.001a9.01 9.01 0 0 0 -11.49 11.49 9.0629 9.0629 0 0 0 -8.3498 10.7893zm34.8359 24.1982h-12.0234a42.4462 42.4462 0 0 0 -6.689-21.7949c-.7072-1.61-3.5-3.3931-1.8942-5.1962l.675-.6749c3.6123 2.6669 7.1362 5.767 9.3681 9.7276a26.2221 26.2221 0 0 1 3.5518 13.2206 1 1 0 0 0 2 0 26.2221 26.2221 0 0 1 3.5518-13.2206 27.1818 27.1818 0 0 1 6.5107-7.4816 3.8249 3.8249 0 0 1 4.5475-.414c-1.0027 1.2857-2.0415 2.6674-2.91 4.0391a42.4462 42.4462 0 0 0 -6.6883 21.7949zm-7.8724-17.12a14.6035 14.6035 0 0 0 3.7214 0 28.0007 28.0007 0 0 0 -1.8607 4.8925 27.9928 27.9928 0 0 0 -1.8607-4.8925zm-23.5446-13.3273a6.9456 6.9456 0 0 1 6.3985-2.4727 1 1 0 0 0 .999-1.503 6.9893 6.9893 0 0 1 9.8-9.455 1.0015 1.0015 0 0 0 1.1426-.04c.9052-.7736-.1205-2.072.0652-3.082.0554-7.952 11.3082-9.6811 13.6951-2.0506a6.97 6.97 0 0 1 .0117 4.0477 1.0058 1.0058 0 0 0 1.501 1.1249c6.4425-4.0226 13.4921 3.3623 9.8 9.4552a1.006 1.006 0 0 0 .9992 1.5029 6.9557 6.9557 0 0 1 7.8543 8.3389c-.9639 5.5437-8.4756 7.5071-12.0648 3.2445.4912-.7319 1.003-1.4616 1.5327-2.1508l1.4639-1.9033a1 1 0 0 0 -.086-1.3164c-4.9935-4.6387-10.0286 1.1664-13.1038 5.086a5.0061 5.0061 0 0 1 2.3967-9.379 1 1 0 0 0 0-2c-7.086.01-9.6285 9.4529-3.5394 13.019-.1284.2-.2468.406-.37.6092a13.1273 13.1273 0 0 1 -6.1812 0 28.7717 28.7717 0 0 0 -6.7356-7.62l-3.5556-2.7939a.9968.9968 0 0 0 -1.3252.0791c-.576.6352-1.78 1.5968-2.0693 2.4191-1.1263 2.2455.7664 4.1905 1.98 5.9514-6.2837 6.5813-16.1556-1.8882-10.609-9.1112z"/><path d="m44 18a3.0033 3.0033 0 0 1 3 3 1 1 0 0 0 2 0 5.0059 5.0059 0 0 0 -5-5 1 1 0 0 0 0 2z"/><path d="m50.8193 37.8594a5.0218 5.0218 0 0 0 6.1807-4.8594 1 1 0 0 0 -2 0 3.0033 3.0033 0 0 1 -3 3c-.78-.063-1.6264-.35-1.916.6514a1 1 0 0 0 .7353 1.208z"/><path d="m12 38c.8559.0332 2.1682-.2164 1.916-1.3487a.9988.9988 0 0 0 -1.208-.7353 3.0134 3.0134 0 0 1 -3.708-2.916 1 1 0 0 0 -2 0 5.0059 5.0059 0 0 0 5 5z"/><path d="m28 13a1 1 0 0 0 1-1 3 3 0 0 1 6 0 1 1 0 0 0 2 0 5 5 0 0 0 -10 0 1 1 0 0 0 1 1z"/><path d="m16 22a1 1 0 0 0 1-1 3.0033 3.0033 0 0 1 3-3 1 1 0 0 0 0-2 5.0059 5.0059 0 0 0 -5 5 1 1 0 0 0 1 1z"/><path d="m22 25a1 1 0 0 0 1-1 4 4 0 1 1 4 4 1 1 0 0 0 0 2 6.0065 6.0065 0 0 0 6-6c-.2519-7.9293-11.7492-7.9277-12 0a.9994.9994 0 0 0 1 1z"/><path d="m36 20a1 1 0 0 0 2 0 1 1 0 0 0 -2 0z"/><path d="m42 24a1 1 0 0 0 0-2 1 1 0 0 0 0 2z"/><path d="m47 26a1 1 0 0 0 0 2 1 1 0 0 0 0-2z"/><path d="m38 31a1 1 0 0 0 0 2 1 1 0 0 0 0-2z"/><path d="m13 30a1 1 0 0 0 0-2 1 1 0 0 0 0 2z"/><path d="m27 25a1 1 0 0 0 0-2 1 1 0 0 0 0 2z"/></svg>