<svg height="512pt" viewBox="0 -28 512 512" width="512pt" xmlns="http://www.w3.org/2000/svg"><path d="m167.824219 69.941406c25.652343 0 32.0625-14.34375 64.128906-14.34375 40.078125 0 96.191406 28.6875 96.191406 107.582032 0 71.300781-31.933593 164.964843-160.320312 164.964843-128.390625 0-160.324219-93.664062-160.324219-164.964843 0-78.894532 56.113281-107.582032 96.195312-107.582032 32.0625 0 38.476563 14.34375 64.128907 14.34375zm0 0" fill="#e6646e"/><path d="m215.917969 288.0625c-128.386719 0-160.320313-93.660156-160.320313-164.960938 0-25.484374 5.902344-45.65625 15.179688-61.386718-32.335938 12.027344-63.277344 42.886718-63.277344 101.464844 0 71.300781 31.933594 164.964843 160.324219 164.964843 64.792969 0 104.996093-23.867187 128.949219-56.664062-21.335938 10.378906-47.898438 16.582031-80.855469 16.582031zm0 0" fill="#dc4655"/><path d="m344.175781 190.183594c25.652344 0 32.066407-14.34375 64.128907-14.34375 40.082031 0 96.195312 28.6875 96.195312 107.582031 0 71.300781-31.933594 164.964844-160.324219 164.964844-128.386719 0-160.320312-93.664063-160.320312-164.964844 0-78.894531 56.113281-107.582031 96.195312-107.582031 32.0625 0 38.476563 14.34375 64.125 14.34375zm0 0" fill="#ff8087"/><path d="m382.242188 256c-12.167969 0-22.03125-9.863281-22.03125-22.03125v-45.949219c-4.632813 1.296875-9.753907 2.164063-16.03125 2.164063-6.28125 0-11.402344-.867188-16.035157-2.164063v45.949219c0 12.167969-9.863281 22.03125-22.03125 22.03125-26.335937 0-49.300781 20.292969-50.089843 46.617188-.820313 27.238281 21.019531 49.574218 48.074218 49.574218h12.464844c5.550781 9.546875 15.777344 16.035156 27.617188 16.035156 11.835937 0 22.0625-6.492187 27.617187-16.035156h12.460937c27.054688 0 48.894532-22.335937 48.074219-49.574218-.789062-26.324219-23.753906-46.617188-50.089843-46.617188zm0 0" fill="#ffb4af"/><path d="m272.183594 300.945312c1.589844-16.671874 16.546875-28.914062 33.292968-28.914062h1.578126c9.5625 0 17.238281-7.875 17.078124-17.433594-.25-14.863281-9.332031-28.175781-23.128906-33.8125l-.183594-.074218c-7.804687-3.191407-11.722656-4.792969-20.773437-4.792969-5.742187 0-56.113281 1.894531-56.113281 67.503906 0 45.390625 13.277344 97.695313 68.925781 117.089844 15.339844 5.347656 31.277344-6.695313 31.277344-22.941407v-21.371093c0-11.066407-8.972657-20.039063-20.039063-20.039063-18.75 0-33.738281-16.089844-31.914062-35.214844zm0 0" fill="#e6646e"/><path d="m416.171875 300.945312c-1.589844-16.671874-16.546875-28.914062-33.292969-28.914062h-1.578125c-9.5625 0-17.238281-7.875-17.078125-17.433594.25-14.863281 9.332032-28.175781 23.128906-33.8125l.183594-.074218c7.804688-3.191407 11.722656-4.792969 20.773438-4.792969 5.742187 0 56.113281 1.894531 56.113281 67.503906 0 45.390625-13.277344 97.695313-68.929687 117.089844-15.339844 5.347656-31.273438-6.695313-31.273438-22.941407v-21.371093c0-11.066407 8.972656-20.039063 20.039062-20.039063 18.75 0 33.738282-16.089844 31.914063-35.214844zm0 0" fill="#e6646e"/><path d="m476.433594 194.457031c-18.550782-16.597656-43.378906-26.117187-68.125-26.117187-18.402344 0-29.226563 4.425781-38.777344 8.328125-7.894531 3.226562-14.714844 6.015625-25.351562 6.015625-3.433594 0-6.464844-.292969-9.265626-.792969.476563-6.175781.730469-12.445313.730469-18.707031 0-47.234375-19.339843-74.453125-35.5625-88.96875-18.550781-16.597656-43.382812-26.117188-68.128906-26.117188-15.078125 0-25.066406 2.96875-33.4375 6.191406l30.199219-24.976562c3.191406-2.640625 3.640625-7.367188 1-10.558594-2.636719-3.191406-7.367188-3.640625-10.558594-1l-43.832031 36.25v-46.503906c0-4.140625-3.359375-7.5-7.5-7.5s-7.5 3.359375-7.5 7.5v46.507812l-43.832031-36.253906c-3.191407-2.640625-7.921876-2.191406-10.558594 1-2.640625 3.191406-2.195313 7.917969 1 10.558594l30.199218 24.976562c-8.371093-3.21875-18.359374-6.191406-33.4375-6.191406-24.746093 0-49.578124 9.519532-68.128906 26.117188-16.226562 14.515625-35.566406 41.734375-35.566406 88.964844 0 44.261718 11.894531 84.636718 33.496094 113.695312 28.988281 38.996094 74.183594 58.769531 134.328125 58.769531 4.851562 0 9.660156-.136719 14.347656-.398437 5.535156 23.554687 14.910156 44.691406 27.679687 61.871094 28.992188 38.996093 74.183594 58.769531 134.328126 58.769531 60.140624 0 105.335937-19.773438 134.324218-58.769531 21.601563-29.058594 33.496094-69.433594 33.496094-113.695313 0-47.230469-19.339844-74.449219-35.566406-88.964844zm-308.613282 126.1875c-55.136718 0-96.28125-17.738281-122.285156-52.71875-26.566406-35.738281-30.535156-80.964843-30.535156-104.746093 0-79.164063 58.015625-100.082032 88.691406-100.082032 15.453125 0 24.027344 3.503906 33.101563 7.210938 8.574219 3.507812 17.441406 7.128906 31.019531 7.132812h.007812.003907.003906.003906c13.578125 0 22.445313-3.625 31.019531-7.132812 9.078126-3.707032 17.648438-7.210938 33.101563-7.210938 30.675781 0 88.691406 20.917969 88.691406 100.082032 0 4.695312-.15625 9.394531-.441406 14.050781-.457031-.1875-.917969-.375-1.378906-.5625-9.550781-3.90625-20.375-8.328125-38.777344-8.328125-24.746094 0-49.574219 9.515625-68.125 26.113281-16.226563 14.519531-35.566406 41.738281-35.566406 88.96875 0 12.695313.984375 25.066406 2.886719 36.949219-3.746094.175781-7.5625.273437-11.421876.273437zm298.644532 67.523438c-26.003906 34.980469-67.148438 52.71875-122.289063 52.71875s-96.28125-17.738281-122.285156-52.71875c-26.570313-35.738281-30.535156-80.96875-30.535156-104.746094 0-79.164063 58.015625-100.082031 88.691406-100.082031 15.453125 0 24.023437 3.503906 33.097656 7.210937 8.578125 3.507813 17.445313 7.132813 31.03125 7.132813 13.585938 0 22.453125-3.625 31.03125-7.132813 9.074219-3.707031 17.644531-7.210937 33.097657-7.210937 30.679687 0 88.695312 20.917968 88.695312 100.082031 0 23.78125-3.96875 69.007813-30.535156 104.746094zm0 0"/><path d="m461.804688 239.308594c-2.042969-3.601563-6.621094-4.863282-10.226563-2.820313-3.601563 2.042969-4.863281 6.621094-2.820313 10.222657 5.414063 9.546874 8.160157 21.898437 8.160157 36.710937 0 25.585937-4.320313 47.460937-12.839844 65.019531-10.539063 21.71875-27.71875 36.859375-51.054687 44.992188-4.773438 1.660156-9.945313.890625-14.183594-2.121094-4.460938-3.167969-7.121094-8.304688-7.121094-13.742188v-21.371093c0-6.914063 5.625-12.539063 12.539062-12.539063.347657 0 .695313-.015625 1.042969-.027344l11.5 25.351563c1.253907 2.769531 3.980469 4.40625 6.832031 4.40625 1.039063 0 2.089844-.21875 3.09375-.671875 3.773438-1.710938 5.445313-6.15625 3.734376-9.929688l-10.210938-22.515624c3.214844-1.417969 6.234375-3.269532 8.984375-5.503907l12.527344 10.59375c1.410156 1.191407 3.128906 1.773438 4.839843 1.773438 2.128907 0 4.246094-.90625 5.730469-2.660157 2.671875-3.164062 2.277344-7.894531-.886719-10.570312l-12.597656-10.648438c2.015625-3.652343 3.445313-7.605468 4.234375-11.703124h13.242188c4.144531 0 7.5-3.359376 7.5-7.5 0-4.140626-3.355469-7.5-7.5-7.5h-13.226563c-.761718-3.851563-2.128906-7.5-3.984375-10.867188l16.835938-14.089844c3.179687-2.65625 3.597656-7.386718.941406-10.566406-2.660156-3.175781-7.390625-3.59375-10.566406-.9375l-16.796875 14.054688c-2.644532-2.1875-5.574219-4.0625-8.71875-5.5625l7.3125-19.6875c1.441406-3.882813-.539063-8.199219-4.421875-9.640626-3.882813-1.445312-8.199219.535157-9.640625 4.417969l-7.800782 21c-1.117187-.089843-2.242187-.144531-3.378906-.144531h-1.855468c-5.132813 0-9.308594-4.175781-9.308594-9.308594 0-12.121094 7.25-22.910156 18.46875-27.496094l.1875-.074218c7.535156-3.082032 10.355468-4.234375 17.933594-4.234375 1.335937 0 8.429687.15625 16.707031 3.226562 3.886719 1.4375 8.203125-.542969 9.640625-4.425781 1.441406-3.882812-.539063-8.199219-4.421875-9.640625-10.414063-3.859375-19.414063-4.160156-21.925781-4.160156-10.523438 0-15.449219 2.011719-23.609376 5.347656l-.183593.078125c-16.886719 6.894531-27.796875 23.140625-27.796875 41.378906 0 13.402344 10.90625 24.308594 24.308594 24.308594h1.855468c13.296875 0 24.640625 9.71875 25.824219 22.125.671875 7.042969-1.554687 13.773438-6.265625 18.957031-4.648438 5.113281-11.277344 8.046875-18.183594 8.046875-15.183594 0-27.539062 12.355469-27.539062 27.539063v21.371093c0 10.285157 5.023437 19.992188 13.4375 25.96875 5.363281 3.8125 11.527344 5.773438 17.773437 5.769532 3.355469 0 6.738281-.566406 10.035157-1.710938 48.382812-16.863281 73.957031-59.800781 73.957031-124.175781 0-17.441406-3.402344-32.28125-10.113281-44.113281zm0 0"/><path d="m305.476562 279.53125h1.851563c13.402344 0 24.308594-10.902344 24.308594-24.308594 0-18.238281-10.910157-34.484375-27.789063-41.375l-.191406-.078125c-8.160156-3.335937-13.085938-5.351562-23.609375-5.351562-4.316406 0-19.546875.75-34.304687 10.367187-24.222657 15.785156-29.308594 43.863282-29.308594 64.636719 0 64.375 25.574218 107.3125 73.960937 124.175781 3.292969 1.144532 6.675781 1.710938 10.035157 1.710938 6.246093 0 12.40625-1.957032 17.769531-5.769532 8.414062-5.976562 13.4375-15.683593 13.4375-25.96875v-9.347656c0-4.144531-3.359375-7.5-7.5-7.5s-7.5 3.355469-7.5 7.5v9.347656c0 5.4375-2.664063 10.574219-7.125 13.742188-4.238281 3.011719-9.40625 3.78125-14.183594 2.117188-23.335937-8.132813-40.511719-23.269532-51.050781-44.988282-8.519532-17.558594-12.839844-39.433594-12.839844-65.019531 0-24.824219 7.566406-42.34375 22.496094-52.074219 11.582031-7.546875 23.789062-7.929687 26.117187-7.929687 7.574219 0 10.394531 1.152343 17.925781 4.230469l.191407.078124c11.21875 4.582032 18.46875 15.375 18.46875 27.496094 0 5.132813-4.175781 9.308594-9.308594 9.308594h-1.851563c-1.136718 0-2.265624.054688-3.382812.144531l-7.796875-21c-1.445313-3.886719-5.761719-5.863281-9.644531-4.421875-3.882813 1.441406-5.863282 5.761719-4.417969 9.644532l7.3125 19.6875c-3.148437 1.496093-6.078125 3.371093-8.722656 5.5625l-16.796875-14.054688c-3.171875-2.65625-7.90625-2.238281-10.5625.9375-2.660156 3.179688-2.238282 7.910156.9375 10.566406l16.835937 14.089844c-1.851562 3.367188-3.21875 7.015625-3.980469 10.867188h-13.230468c-4.140625 0-7.5 3.359374-7.5 7.5 0 4.140624 3.359375 7.5 7.5 7.5h13.242187c.792969 4.097656 2.21875 8.050781 4.234375 11.703124l-12.597656 10.648438c-3.160156 2.675781-3.558594 7.40625-.882812 10.570312 1.484374 1.753907 3.597656 2.660157 5.730468 2.660157 1.710938 0 3.429688-.582031 4.839844-1.773438l12.527344-10.59375c2.746094 2.234375 5.769531 4.085938 8.984375 5.503907l-10.210938 22.515624c-1.710937 3.773438-.039062 8.21875 3.734375 9.929688 1.003906.457031 2.054688.671875 3.089844.671875 2.855469 0 5.582031-1.636719 6.835938-4.40625l11.496093-25.351563c.347657.007813.695313.027344 1.046875.027344 1.746094 0 3.4375.351563 5.019532 1.042969 3.792968 1.660156 8.214843-.070313 9.875-3.867187 1.660156-3.796876-.070313-8.21875-3.863282-9.875-3.492187-1.527344-7.203125-2.300782-11.03125-2.300782-6.90625 0-13.535156-2.933594-18.183594-8.046875-4.710937-5.183593-6.9375-11.917969-6.265624-18.957031 1.183593-12.40625 12.527343-22.125 25.828124-22.125zm0 0"/></svg>