<svg id="Layer_1" height="512" viewBox="0 0 64 64" width="512" xmlns="http://www.w3.org/2000/svg" data-name="Layer 1"><path d="m48.7 23.12a19.8452 19.8452 0 0 0 -2.7.88c-5 2-3.61 10.77-3.61 10.77a.031.031 0 0 1 -.02-.01 10.2172 10.2172 0 0 0 -2.74-1.84 13.58 13.58 0 0 0 -2.54-.92c-.91-7-11.09-6-11.09-6a8.2431 8.2431 0 0 0 -2.53-3.72s-1.47-8.28 5.53-6.28a10.2681 10.2681 0 0 1 4.76 2.55.01.01 0 0 1 .01.01 3.8974 3.8974 0 0 1 1.23 3.44 9.2063 9.2063 0 0 1 6.17-3.13c2.19-.07 4.8.92 7.53 4.25z" fill="#7cb342"/><path d="m48.7 23.12a19.8452 19.8452 0 0 0 -2.7.88c-5 2-3.61 10.77-3.61 10.77a.031.031 0 0 1 -.02-.01 8.888 8.888 0 0 1 -2.74-1.84 8.7247 8.7247 0 0 1 -2.51-7.69 9.5164 9.5164 0 0 1 4.05-6.36c2.19-.07 4.8.92 7.53 4.25z" fill="#679f42"/><path d="m53 23s-1.27-.63-4.3.12c-7.3-8.89-13.7-1.12-13.7-1.12a3.8974 3.8974 0 0 0 -1.23-3.44.01.01 0 0 0 -.01-.01c-5.22-9.43-12.76-3.55-12.76-3.55a8.6718 8.6718 0 0 1 -1.29-3.6c-.17-.8-.25-1.4-.25-1.4a9.9537 9.9537 0 0 0 -1.42 2.49 48.7921 48.7921 0 0 0 -2.53 9.51 11.2419 11.2419 0 0 1 -2.11-5.16 34.6152 34.6152 0 0 1 -.52-5.82c.57-.5 1.16-.97 1.78-1.42a6.908 6.908 0 0 0 2.44-3.8c0-.01.01-.02.01-.03a2.5021 2.5021 0 0 1 3.5-1.51 5.994 5.994 0 0 0 4.18.61 29.971 29.971 0 0 1 7.21-.87 29.569 29.569 0 0 1 5.92.59 7.3754 7.3754 0 0 0 4.53-.36 2.5181 2.5181 0 0 1 1.45-.2 2.5467 2.5467 0 0 1 1.89 1.49c0 .01.01.02.01.03a7.4547 7.4547 0 0 0 2.6 3.38 26.9985 26.9985 0 0 1 4.41 3.68 7.339 7.339 0 0 0 -1.33 3.9 9.726 9.726 0 0 0 .03 1.53 14.0349 14.0349 0 0 0 1.49 4.96z" fill="#aed580"/><path d="m18.04 12.49a48.7921 48.7921 0 0 0 -2.53 9.51 11.2419 11.2419 0 0 1 -2.11-5.16 23.6339 23.6339 0 0 1 4.64-4.35z" fill="#9ccc65"/><path d="m53 23s-1.27-.63-4.3.12c-7.3-8.89-13.7-1.12-13.7-1.12a3.8974 3.8974 0 0 0 -1.23-3.44.01.01 0 0 0 -.01-.01c-5.22-9.43-12.76-3.55-12.76-3.55a8.6718 8.6718 0 0 1 -1.29-3.6 23.9539 23.9539 0 0 1 31.8 6.64 14.0349 14.0349 0 0 0 1.49 4.96z" fill="#9ccc65"/><g fill="#7cb342"><path d="m51.4805 17.51a.9968.9968 0 0 1 -.7549-.3438c-6.1675-7.0862-18.6738-8.0969-18.7998-8.1062a1 1 0 0 1 -.9229-1.0713.9881.9881 0 0 1 1.0708-.9229c.5459.04 13.4473 1.0752 20.1607 8.7881a1 1 0 0 1 -.7539 1.6563z"/><path d="m51.4805 22.51a.9968.9968 0 0 1 -.7549-.3438c-4.1162-4.73-11.1035-6.7383-14.9024-7.5146a1 1 0 1 1 .4-1.959c4.9429 1.01 11.7329 3.2461 16.0108 8.1611a1 1 0 0 1 -.7539 1.6563z"/><path d="m33.76 18.55a10.2681 10.2681 0 0 0 -4.76-2.55c-6.84-1.95-5.59 5.91-5.54 6.27a.138.138 0 0 0 -.04-.03c-3.41-2.64-7.91-.24-7.91-.24s1.41-9 3.95-12c0 0 .54 4 1.54 5 0 0 7.54-5.88 12.76 3.55z"/></g><path d="m33.76 18.55a10.2681 10.2681 0 0 0 -4.76-2.55c-6.84-1.95-5.59 5.91-5.54 6.27a.138.138 0 0 0 -.04-.03 12.7154 12.7154 0 0 1 -3.96-12.24s.54 4 1.54 5c0 0 7.54-5.88 12.76 3.55z" fill="#679f42"/><path d="m42.3906 35.77a.9985.9985 0 0 1 -.8066-.4082c-.21-.2851-5.1021-7.0547-2.7031-12.6357a1 1 0 1 1 1.8379.789c-1.9463 4.5284 2.4335 10.6036 2.478 10.6641a1 1 0 0 1 -.8062 1.5908z" fill="#568b3e"/><path d="m60 30a24.6415 24.6415 0 0 1 -5.45 15.4 16.4833 16.4833 0 0 1 -3.86-.54c6.69-8.14 4.35-18.86 4.35-18.86-.97 6-11.04 15-11.04 15a5.8629 5.8629 0 0 0 -1.61-6.23s-1.39-8.77 3.61-10.77a19.8452 19.8452 0 0 1 2.7-.88c3.03-.75 4.3-.12 4.3-.12a13.4024 13.4024 0 0 1 -1.52-6.49 7.339 7.339 0 0 1 1.33-3.9 8.469 8.469 0 0 1 3.19-2.61c0 .01 0 .01.01.02.24.42 3.99 7.39 3.99 19.98z" fill="#42a047"/><path d="m60 30a24.6415 24.6415 0 0 1 -5.45 15.4 16.4833 16.4833 0 0 1 -3.86-.54c6.69-8.14 4.35-18.86 4.35-18.86s1.95-11.96.97-15.98c.24.42 3.99 7.39 3.99 19.98z" fill="#378e43"/><path d="m54.55 45.4a26.3609 26.3609 0 0 1 -4.63 4.57 26.0606 26.0606 0 0 1 -3.11 1.93 12.8735 12.8735 0 0 0 -1.54.97h-.01a14.3 14.3 0 0 0 -5.19 6.93l-.07.2h-16a14.6243 14.6243 0 0 0 -6.64-7.84 27.9718 27.9718 0 0 1 -4.44-3.14 26.0329 26.0329 0 0 1 -6.28-8 24.9422 24.9422 0 0 1 -1.95-5.28 24.4827 24.4827 0 0 1 -.66-4.46c-.02-.43-.03-.85-.03-1.28a34.91 34.91 0 0 1 9-23s-.15 1.71-.12 4.02c.04 3.56.52 8.56 2.63 10.98 0 0 4.54-2.42 7.96.28a8.2431 8.2431 0 0 1 2.53 3.72s10.18-1 11.09 6a12.6048 12.6048 0 0 1 5.3 2.77 5.8629 5.8629 0 0 1 1.61 6.23 13.7247 13.7247 0 0 0 6.69 3.86 16.4833 16.4833 0 0 0 3.86.54z" fill="#42a047"/><path d="m54.55 45.4a26.3609 26.3609 0 0 1 -4.63 4.57c-2.85-1.95-7.75-3.03-14.28-4.8-.21-.05-.42-.11-.64-.17-10.83-2.95-24.56-15.6-24.99-15.99 0 0-4.01-10.01 2.99-22.01 0 0-.15 1.71-.12 4.02.04 3.56.52 8.56 2.63 10.98 0 0 4.54-2.42 7.96.28a8.2431 8.2431 0 0 1 2.53 3.72s10.18-1 11.09 6a12.6048 12.6048 0 0 1 5.3 2.77 5.8629 5.8629 0 0 1 1.61 6.23 13.7247 13.7247 0 0 0 6.69 3.86 16.4833 16.4833 0 0 0 3.86.54z" fill="#378e43"/><path d="m50.69 44.86a14.8849 14.8849 0 0 1 -3.8-1.58 11.4841 11.4841 0 0 1 -2.89-2.28s10.07-9 11.04-15c0 0 2.34 10.72-4.35 18.86z" fill="#317e3d"/><path d="m50.69 44.86a14.8849 14.8849 0 0 1 -3.8-1.58c7.89-5.72 8.15-17.28 8.15-17.28s2.34 10.72-4.35 18.86z" fill="#1e5f30"/><path d="m20 40a1 1 0 0 1 -1-1v-13a1 1 0 0 1 2 0v13a1 1 0 0 1 -1 1z" fill="#1e5f30"/><path d="m30 46a1 1 0 0 1 -1-1v-12a1 1 0 0 1 2 0v12a1 1 0 0 1 -1 1z" fill="#1e5f30"/><path d="m19.12 42.02h-8.12a1 1 0 0 1 0-2h8.12a1 1 0 0 1 0 2z" fill="#317e3d"/><path d="m29.12 50.02h-10.12a1 1 0 1 1 0-2h10.12a1 1 0 0 1 0 2z" fill="#317e3d"/><path d="m49.92 49.97a26.0606 26.0606 0 0 1 -3.11 1.93 14.48 14.48 0 0 0 -4.68 4.03c-7.34-2.42-18.54-7.93-25.01-14.91a32.3832 32.3832 0 0 1 -6.49-10.3c-.22-.56-.43-1.13-.62-1.71.43.39 14.16 13.04 24.99 15.99.22.06.43.12.64.17 6.53 1.77 11.43 2.85 14.28 4.8z" fill="#317e3d"/><path d="m49.92 49.97a26.0606 26.0606 0 0 1 -3.11 1.93 14.4156 14.4156 0 0 0 -1.55.97c-4.24-1.72-9.26-3.87-9.26-3.87s-19.98-7.98-25.99-19.99c.43.39 14.16 13.04 24.99 15.99.22.06.43.12.64.17 6.53 1.77 11.43 2.85 14.28 4.8z" fill="#1e5f30"/><path d="m10.77 19.53c-.06.06-3.9 4.66-5.31 15.37a.99.99 0 0 1 -.77.84 24.4827 24.4827 0 0 1 -.66-4.46c1.76-9 5.07-12.88 5.23-13.06a.9981.9981 0 0 1 1.41-.1 1.0085 1.0085 0 0 1 .1 1.41z" fill="#317e3d"/><path d="m56.8682 9.5039c-.9472-1.4961-3.3818.9716-4.13 1.6363-2.0328-2.2202-4.8282-2.9167-6.0356-6.0268a3.4813 3.4813 0 0 0 -4.67-1.79 6.4474 6.4474 0 0 1 -3.9136.2832 31.2749 31.2749 0 0 0 -13.5664.2979c-2.428.6639-3.73-1.3765-5.9111-.8a3.5183 3.5183 0 0 0 -2.5049 2.4229 5.8889 5.8889 0 0 1 -2.2366 3.3976c.0346-1.1085.0951-1.8273.0961-1.8381a1.0063 1.0063 0 0 0 -1.7032-.7939 35.5973 35.5973 0 0 0 -9.2929 23.707 25.2755 25.2755 0 0 0 .5068 5.0078c.0035.0139.0047.0278.0087.0416a26.4431 26.4431 0 0 0 8.7492 14.725 29.0128 29.0128 0 0 0 4.601 3.2549 13.64 13.64 0 0 1 6.1905 7.3018 1.0007 1.0007 0 0 0 .9438.6689h16a1.0594 1.0594 0 0 0 1.0136-.8692 13.37 13.37 0 0 1 6.276-7.3525 26.4984 26.4984 0 0 0 3.2382-2.0146 27.4223 27.4223 0 0 0 4.8047-4.7412 25.5346 25.5346 0 0 0 5.6675-16.0225c0-13.1152-3.9629-20.2012-4.1318-20.4961zm-1.2994 1.8877c1.0132 2.2441 3.4312 8.6475 3.4312 18.6084a23.5038 23.5038 0 0 1 -4.91 14.3619 15.8122 15.8122 0 0 1 -1.6433-.1672 24.3529 24.3529 0 0 0 3.928-15.6677c-.055-.7541-.1383-1.49-.257-2.2017-.0489-.6718-.3554-1.3354-1.105-1.3253-.9938.0271-.9583 1.0839-1.2006 1.8112-1.66 4.5577-5.2394 8.1734-8.5488 11.6009a7.0216 7.0216 0 0 0 -1.9251-4.107c-.2632-3.2116-.3523-7.77 3.0347-9.3774a18.9628 18.9628 0 0 1 2.5675-.8369 6.6953 6.6953 0 0 1 3.6153-.1953 1.0057 1.0057 0 0 0 1.3183-1.3819c-.005-.0088-.1617-.2943-.3691-.7759a12.0238 12.0238 0 0 1 -1.0269-5.1664v-.0013a6.3383 6.3383 0 0 1 3.0908-5.1784zm-29.4253 12.5569a9.2811 9.2811 0 0 0 -1.7368-2.1907c-.12-1.5135-.1522-3.3549.9643-4.5254 1.7309-1.5629 6.5191.6889 7.6622 2.0039a3.0565 3.0565 0 0 1 .9976 2.5186 1.0048 1.0048 0 0 0 1.7412.8808c2.4673-2.8635 7.091-4.3574 11.1126-.0275-3.7362.8468-5.4543 4.4894-5.6191 8.0382-.8847-2.1116-1.54-4.8211-.5467-7.1318a1 1 0 1 0 -1.8379-.789c-1.33 3.0954-.417 6.5527.6954 9.07a17.1123 17.1123 0 0 0 -1.6105-.5927c-1.1658-5.3338-7.4668-6.4275-11.3158-6.2517-.1571-.3538-.3271-.6862-.5065-1.0027zm-4.4559-3.6765a8.96 8.96 0 0 0 -4.8774.1528 41.36 41.36 0 0 1 2.1756-7.6123c.4338 1.3926 1.0067 3.8881 2.6289 2.9767.637-.6149 4.7445-2.7682 7.73-.7307-4.4594-1.47-7.1069 1.3992-7.0113 5.4269-.2151-.079-.4302-.1546-.6458-.2134zm24.8267 19.7245a48.4916 48.4916 0 0 0 7.91-9.7133 21.72 21.72 0 0 1 -4.1022 13.418 13.4851 13.4851 0 0 1 -4.8729-2.6773c.2844-.2676.6926-.6602 1.0651-1.0274zm-31.2628-29.5932a7.8357 7.8357 0 0 0 2.8164-4.3545 1.4934 1.4934 0 0 1 2.0908-.8945 7.0456 7.0456 0 0 0 4.8745.6914 29.2239 29.2239 0 0 1 12.6909-.2783 8.1929 8.1929 0 0 0 5.1533-.4307 1.502 1.502 0 0 1 .87-.1172 1.5406 1.5406 0 0 1 1.1328.919c1.2791 3.46 4.3764 4.4119 6.6572 6.8115a10.7342 10.7342 0 0 0 -.7009 1.6708c-6.9571-6.41-18.2524-7.318-18.7625-7.3554a.9881.9881 0 0 0 -1.0708.9229 1 1 0 0 0 .9226 1.0717c.1242.01 12.2963.998 18.5451 7.83a11.3608 11.3608 0 0 0 .2023 2.3864c-4.2472-3.8284-10.0713-5.6894-14.45-6.5838a1 1 0 1 0 -.4 1.959c3.6987.7559 10.4122 2.6877 14.5632 7.1537-.4384.0472-.8765.1217-1.3156.2056-3.5814-4.33-8.9649-5.6138-13.2959-2.0966a5.9047 5.9047 0 0 0 -1.2031-1.962c-2.9315-5.4887-8.2531-7.3083-13.2437-4.3564a18.6164 18.6164 0 0 1 -.8769-3.73c-2.0979-4.2326-5.2339 7.8377-5.4122 9.2486a24.9148 24.9148 0 0 1 -1.1453-7.6462c.4381-.367.8932-.7248 1.3578-1.065zm29.8885 41.3381c-4.0722-1.66-8.6979-3.64-8.7462-3.66a1 1 0 0 0 -.7871 1.8379c.0441.0188 3.93 1.6827 7.7222 3.2423a18.9051 18.9051 0 0 0 -1.5475 1.5955c-10.9114-3.9205-24.1273-11.078-29.2775-22.2434 5.1174 4.29 14.671 11.61 22.8745 13.6211 4.212 1.1535 9.8911 2.4814 12.6614 3.9-.9308.5878-1.9728 1.0879-2.8998 1.7066zm4.687-2.9979c-2.9365-1.8068-9.1926-3.25-13.9557-4.5462a28.1277 28.1277 0 0 1 -4.8713-1.7413v-9.456a1 1 0 0 0 -2 0v8.483a69.9682 69.9682 0 0 1 -8-4.9488v-10.5342a1 1 0 0 0 -2 0v9.0851c-4.3346-3.2231-7.6166-6.1751-8.3179-6.8151a1.0056 1.0056 0 0 0 -1.6215 1.0557 33.5968 33.5968 0 0 0 5.8748 10.6943h-3.9354a1 1 0 0 0 0 2h5.7a45.3537 45.3537 0 0 0 7.2321 6h-4.9321a1 1 0 0 0 0 2h8.0492a76.6612 76.6612 0 0 0 13.5271 6.4316 15.4523 15.4523 0 0 0 -1.277 2.5484h-14.6084a15.6942 15.6942 0 0 0 -6.834-7.708 27.0053 27.0053 0 0 1 -4.2841-3.03 24.4467 24.4467 0 0 1 -8.082-13.5354c1.4243-10.5841 5.2229-15.1329 5.2748-15.1941a1 1 0 0 0 -1.51-1.3114c-.1258.1449-2.3109 2.73-4.076 8.4635a34.7136 34.7136 0 0 1 6.6988-16.7764c-.0115 4.1715.3258 9.9345 2.9792 12.8365a.9416.9416 0 0 0 .725.2437c.5156.0481 3.5342-2.0433 6.7258-.2932a6.7554 6.7554 0 0 1 2.7566 3.6593 1.0089 1.0089 0 0 0 1.0327.6406c.0937-.0088 9.2241-.8369 10 5.1338.14.7123.5424.79 1.2715.9847a11.2023 11.2023 0 0 1 4.3257 2.3757 5.0524 5.0524 0 0 1 1.309 5.4521 1.1036 1.1036 0 0 0 .3717.8612 15.0242 15.0242 0 0 0 7.0581 4.0245 19.7831 19.7831 0 0 0 2.0845.4151 25.5064 25.5064 0 0 1 -2.6914 2.5013z"/></svg>