<svg id="Layer_1" height="512" viewBox="0 0 64 64" width="512" xmlns="http://www.w3.org/2000/svg" data-name="Layer 1"><path d="m37.69 43.86c-9.21 9.21-27.62 19.77-32.47 14.92-2.66-2.66-.68-9.41 3.17-16.48.33-.6.67-1.2 1.03-1.8a77.0609 77.0609 0 0 1 7.53-10.7c.44-.52.88-1.02 1.32-1.51.62-.7 1.25-1.36 1.87-1.98 9.21-9.21 13.58-5.73 18.43-.88s8.33 9.22-.88 18.43z" fill="#f58967"/><path d="m40.81 40.3c-.37.5-.79 1.03-1.26 1.57-.55.64-1.17 1.3-1.86 1.99a64.6944 64.6944 0 0 1 -7.82 6.56c-.54.4-1.09.79-1.65 1.18a65.8377 65.8377 0 0 1 -11.72 6.51c-.71.29-1.39.55-2.06.77-4.1 1.4-7.51 1.61-9.22-.1l33.35-33.35c4.18 4.18 7.34 8 2.24 14.87z" fill="#f37046"/><path d="m53.49 17.53c-4.36 4.36-12.98 9.84-14.92 7.9s3.54-10.56 7.9-14.92c4.36-4.37 5.96-2.82 7.9-.88s3.49 3.54-.88 7.9z" fill="#81c785"/><path d="m53.49 17.53c-4.36 4.36-12.98 9.84-14.92 7.9l15.8-15.8c1.94 1.94 3.49 3.54-.88 7.9z" fill="#66bb6a"/><path d="m55.05 26.04c-5.55 1.45-14.88 1.81-16.22-.45 1.18.69 3.85-.31 6.75-2.01a42.7591 42.7591 0 0 0 7.91-6.05c.44-.44.81-.85 1.13-1.24 3.8-.47 4.34 1.37 4.95 3.58.71 2.57 1.25 4.67-4.52 6.17z" fill="#81c785"/><path d="m55.05 26.04c-5.55 1.45-14.88 1.81-16.22-.45 1.18.69 3.85-.31 6.75-2.01l13.99-3.71c.71 2.57 1.25 4.67-4.52 6.17z" fill="#66bb6a"/><path d="m47.71 9.38c-.39.32-.8.69-1.24 1.13a42.7591 42.7591 0 0 0 -6.05 7.91c-1.7 2.9-2.7 5.57-2.01 6.75-2.26-1.34-1.9-10.67-.45-16.22 1.5-5.77 3.6-5.23 6.17-4.52 2.21.61 4.05 1.15 3.58 4.95z" fill="#81c785"/><path d="m47.71 9.38c-.39.32-.8.69-1.24 1.13a42.7591 42.7591 0 0 0 -6.05 7.91l3.71-13.99c2.21.61 4.05 1.15 3.58 4.95z" fill="#66bb6a"/><g fill="#e44c25"><path d="m40.81 40.3c-.37.5-.79 1.03-1.26 1.57l-6.07-6.08a.9959.9959 0 0 1 0-1.41.9784.9784 0 0 1 1.41 0z"/><path d="m29.87 50.42c-.54.4-1.09.79-1.65 1.18l-5.28-5.28a.9959.9959 0 0 1 0-1.41 1.008 1.008 0 0 1 1.42 0z"/><path d="m16.5 58.11c-.71.29-1.39.55-2.06.77l-2.03-2.03a.9959.9959 0 0 1 0-1.41 1.008 1.008 0 0 1 1.42 0z"/></g><path d="m24.36 35.79a1.0243 1.0243 0 0 1 -.71.29 1.0424 1.0424 0 0 1 -.71-.29l-5.99-5.99c.44-.52.88-1.02 1.32-1.51l6.09 6.09a.9959.9959 0 0 1 0 1.41z" fill="#f05223"/><path d="m13.83 46.32a1.01 1.01 0 0 1 -.71.3.9925.9925 0 0 1 -.71-.3l-4.02-4.02c.33-.6.67-1.2 1.03-1.8l4.41 4.41a.9959.9959 0 0 1 0 1.41z" fill="#f05223"/><path d="m4.5122 59.4878c3.0458 2.6438 7.2191 1.329 11.1858-.0216a.9581.9581 0 0 0 .2347-.0818 66.0864 66.0864 0 0 0 13.451-7.4364.8015.8015 0 0 0 .4095-.2839c7.8048-5.68 19.5333-14.9941 12.4368-23.6582a38.9894 38.9894 0 0 0 13.0746-.9966c4.77-1.142 6.6544-3.41 5.2327-7.4078-.4969-1.8057-1.1009-3.9717-3.9643-4.3253 1.5975-2.81.3289-4.5295-1.4955-6.3538s-3.5434-3.0939-6.3539-1.4959c-.3538-2.8622-2.5194-3.4671-4.3253-3.9641-4.0008-1.4214-6.264.4622-7.4076 5.2331a39.278 39.278 0 0 0 -.9966 13.0745c-6.4133-5.3616-13.4792-.0216-19.0671 6.538a81.5065 81.5065 0 0 0 -8.7359 12.3777.969.969 0 0 0 -.2371.4148c-4.244 7.5387-6.6834 15.1454-3.4418 18.3873zm54.0967-39.356c.3706 1.3482.5674 2.2159.1772 2.8916-.456.79-1.7968 1.48-3.9863 2.05a37.495 37.495 0 0 1 -11.9409 1.0052 39.247 39.247 0 0 0 12.2681-8.8325c2.6244-.2361 2.918.8365 3.4819 2.8857zm-4.9453-9.7954c1.5908 1.5913 2.5494 2.5553.2482 5.2725a37.2224 37.2224 0 0 1 -10.4579 7.9775c-1.0915.5822-3.5029 1.6074-4.1644 1.1242-.4832-.6646.5451-3.0791 1.1283-4.1723a37.2316 37.2316 0 0 1 7.9744-10.4514c2.2649-1.9381 3.4219-1.7569 5.2714.2495zm-14.7373-1.1364c.9981-3.63 1.818-4.9041 4.9419-3.809 2.0491.5633 3.1223.8589 2.8857 3.4817-.3182.28-.6455.5828-.9893.9264a40.5527 40.5527 0 0 0 -7.8446 11.3244 37.4916 37.4916 0 0 1 1.0063-11.9235zm-29.8044 33.8325 3.29 3.29a1 1 0 0 0 1.414-1.4141l-3.6929-3.6929a75.5291 75.5291 0 0 1 7.5232-10.7136l5.2876 5.2881a1 1 0 0 0 1.4141-1.4141l-5.385-5.385c3.4069-3.9047 8.4216-8.0256 11.9055-7.4015 2.5479.2914 4.6714 2.2313 6.9863 4.5463 4.5488 4.2437 6.3614 8.066 2.2233 13.4376l-5.1974-5.1974a1 1 0 1 0 -1.414 1.4141l5.36 5.36a56.6367 56.6367 0 0 1 -9.6657 8.5716l-4.8126-4.8126a1 1 0 0 0 -1.4141 1.4141l4.5672 4.5671a63.7729 63.7729 0 0 1 -11.7756 6.4611l-1.91-1.91a1 1 0 0 0 -1.414 1.4141l1.2494 1.25c-11.7057 3.8686-9.8755-5.0054-4.5393-15.0729z"/></svg>