<svg height="511pt" viewBox="-151 0 511 511.99878" width="511pt" xmlns="http://www.w3.org/2000/svg"><path d="m49.214844 74.390625c-15.957032 31.910156-92.433594 248.382813 15.351562 397.324219 32.378906 44.742187 101.402344 44.035156 128.105469-4.308594 10.226563-18.515625 13.359375-42.3125.832031-72.371094-40.082031-96.195312-72.144531-160.324218-56.113281-272.546875 10.753906-75.285156-64.128906-96.195312-88.175781-48.097656zm0 0" fill="#785a69"/><path d="m166.265625 454.9375c-121.207031-134.730469-76.136719-347.433594-58.640625-402.160156-20.617188-9.472656-46.132812-2.941406-58.410156 21.613281-15.957032 31.910156-92.429688 248.378906 15.355468 397.324219 31.105469 42.984375 95.921876 43.890625 124.652344 1.042968-8.382812-4.460937-16.210937-10.320312-22.957031-17.820312zm0 0" fill="#5d5360"/><path d="m107.265625 468.46875c-112.296875-152.339844-42.472656-380.570312-27.5-414.351562.757813-1.714844 1.585937-3.332032 2.460937-4.886719-13.175781 2.058593-25.546874 10.230469-33.011718 25.160156-15.957032 31.910156-92.433594 248.382813 15.351562 397.324219 21.8125 30.136718 60.160156 39.503906 91.058594 27.695312-18.289062-3.570312-35.777344-13.871094-48.359375-30.941406zm0 0" fill="#4b3f4e"/><path d="m124.785156 10.300781-.007812-.007812c-6.792969-5.347657-16.164063-2.765625-20.054688 5.53125l-15.808594 33.507812 35.324219 18.285157 6.28125-41.503907c.988281-6.097656-1.257812-12.289062-5.734375-15.8125zm0 0" fill="#96d7a5"/><path d="m49.214844 74.390625c-3.925782 7.847656-11.507813 26.894531-19.109375 53.308594 30.074219 12.53125 50.042969-24.011719 50.042969-24.011719s19.035156 32.566406 15.53125 67.636719c0 0 36.570312-19.035157 41.710937-48.835938 10.753906-75.285156-64.128906-96.195312-88.175781-48.097656zm0 0" fill="#b4e6a0"/><path d="m68.394531 53.886719c-7.671875 4.230469-14.425781 10.996093-19.179687 20.503906-3.921875 7.847656-11.507813 26.894531-19.109375 53.308594 30.074219 12.53125 50.042969-24.011719 50.042969-24.011719-6.960938-10.234375-18.253907-27.84375-11.753907-49.800781zm0 0" fill="#96d7a5"/><path d="m200.425781 392.148438c-2.976562-7.148438-5.914062-14.121094-8.789062-20.949219-31.03125-73.730469-54.558594-129.648438-50.5-210.140625 2.800781 2.214844 6.191406 3.957031 10.296875 5.007812 4.015625 1.027344 8.101562-1.394531 9.125-5.40625 1.027344-4.015625-1.394532-8.097656-5.40625-9.125-12.105469-3.097656-11.253906-20.230468-10.628906-25.878906.097656-.703125.191406-1.402344.292968-2.109375 2.886719-20.21875.128906-38.582031-7.976562-53.101563-1.425782-2.550781-3.011719-4.964843-4.734375-7.234374l5.816406-35.898438c1.414063-8.734375-1.921875-17.726562-8.507813-22.910156-4.902343-3.863282-11.117187-5.273438-17.039062-3.871094-6.265625 1.480469-11.53125 5.894531-14.445312 12.105469l-13.453126 28.660156c-5.070312.441406-10.054687 1.644531-14.769531 3.597656-11.664062 4.835938-21.070312 13.878907-27.203125 26.140625-4.078125 8.160156-10.410156 24.210938-16.921875 45.578125-1.972656-1.394531-3.953125-3.011719-5.945312-4.875-3.027344-2.828125-7.769531-2.671875-10.601563.355469-2.828125 3.027344-2.667968 7.773438.355469 10.601562 3.902344 3.648438 7.851563 6.636719 11.828125 8.972657-7.496094 27.253906-14.621094 60.824219-18.199219 96.753906-4.398437 44.191406-3.035156 85.988281 4.054688 124.230469 8.671875 46.757812 25.96875 88.296875 51.414062 123.457031 16.445313 22.726563 42.351563 35.890625 70.109375 35.890625 1.78125 0 3.570313-.054688 5.367188-.164062 28.101562-1.714844 51.894531-16.585938 65.269531-40.804688 12.882813-23.320312 13.285156-49.859375 1.191406-78.882812zm-88.917969-373.140626c.960938-2.042968 2.535157-3.457031 4.324219-3.882812 1.488281-.351562 2.976563.015625 4.3125 1.066406 2.324219 1.832032 3.519531 5.335938 2.972657 8.71875l-4.164063 25.683594c-4.472656-3.089844-9.367187-5.5-14.5625-7.121094-1.28125-.402344-2.578125-.742187-3.875-1.042968zm-55.585937 58.738282c7.710937-15.417969 20.820313-21.609375 33.117187-21.609375 3.761719 0 7.449219.582031 10.878907 1.652343 17.273437 5.394532 35.496093 25.277344 30.058593 63.558594-.015624.074219-.027343.148438-.039062.226563-2.886719 15.726562-16.414062 28.371093-26.453125 35.800781-1.515625-30.847656-16.144531-56.246094-16.863281-57.472656-1.363282-2.332032-3.910156-3.753906-6.585938-3.714844-2.703125.042969-5.175781 1.535156-6.472656 3.910156-.109375.199219-11.253906 19.878906-27.386719 22.480469-2.210937.355469-4.457031.359375-6.734375.03125 7.09375-23.339844 13.707032-39.316406 16.480469-44.863281zm130.183594 386.035156c-6.699219 12.128906-16.644531 21.363281-28.660157 26.980469-17.902343-2.925781-33.859374-12.367188-45.019531-26.703125-64.511719-82.863282-67.269531-190-58.226562-265.285156.496093-4.113282-2.4375-7.847657-6.550781-8.339844-4.117188-.496094-7.847657 2.4375-8.339844 6.550781-9.382813 78.082031-6.367188 189.398437 61.28125 276.289063 7.78125 9.996093 17.496094 18.027343 28.472656 23.71875-.148438 0-.296875.007812-.445312.007812-22.949219-.003906-44.375-10.890625-57.972657-29.683594-24.132812-33.34375-40.554687-72.84375-48.816406-117.398437-6.832031-36.851563-8.136719-77.226563-3.875-120.011719 3.53125-35.476562 10.332031-67.335938 17.300781-92.773438 4.417969.871094 8.855469.96875 13.3125.253907.371094-.0625.730469-.144531 1.097656-.214844-1.917968 8.484375-3.679687 17.074219-5.230468 25.683594-.734375 4.078125 1.976562 7.976562 6.054687 8.710937.449219.082032.894531.121094 1.335938.121094 3.5625 0 6.722656-2.546875 7.375-6.171875 2.179687-12.113281 4.761719-24.195313 7.664062-35.953125 4.855469-3.449219 8.90625-7.503906 12.046875-11.207031 4.957032 11.777343 11.367188 31.644531 9.308594 52.222656-.273438 2.742187.976562 5.410156 3.257812 6.957031 1.261719.855469 2.730469 1.289063 4.203126 1.289063 1.1875 0 2.375-.28125 3.464843-.847657.964844-.503906 14.851563-7.855468 27.175781-20.667968-2.007812 34.6875.777344 67.058594 8.445313 99.765625 9.359375 39.902343 24.972656 76.996093 43.050781 119.945312 2.863282 6.8125 5.792969 13.765625 8.765625 20.898438 10.242188 24.585937 10.082031 46.746093-.476562 65.863281zm0 0"/></svg>