<svg id="Layer_1" height="512" viewBox="0 0 64 64" width="512" xmlns="http://www.w3.org/2000/svg" data-name="Layer 1"><path d="m58.68 22.92a11.4939 11.4939 0 0 1 -2.44 1.82c1.3.28 1.61 1.33 1.61 2.58 0 1.48-.41 2.67-2.38 2.67a7.3012 7.3012 0 0 1 -2.97-.71 7.0148 7.0148 0 0 1 .66 3.1c-.06 1.97-1.27 2.33-2.74 2.28-1.48-.05-2.66-.5-2.59-2.46a6.3486 6.3486 0 0 1 .16-1.1l-25.78 25.78a10.4981 10.4981 0 0 1 -5.42 2.9 10.6691 10.6691 0 0 1 -9.67-17.99l25.74-25.74a5.9429 5.9429 0 0 1 -1.24.09c-1.97-.06-2.33-1.27-2.28-2.74.05-1.48.5-2.66 2.46-2.59a7.4257 7.4257 0 0 1 3.01.85 7.0937 7.0937 0 0 1 -.8-3.13c0-1.97 1.19-2.38 2.67-2.38 1.25 0 2.3.31 2.58 1.61a11.4939 11.4939 0 0 1 1.82-2.44c2.08-2.09 3.64-1.39 5.03 0 1.31 1.31 2 2.77.31 4.69a4.7042 4.7042 0 0 0 -.94-.08c-1.47 0-2.67.4-2.67 2.37a7.3089 7.3089 0 0 0 .8 3.14 7.2452 7.2452 0 0 0 -3-.86c-1.97-.06-2.41 1.12-2.47 2.59-.05 1.47.32 2.68 2.28 2.75.05 0 .1-.01.16-.01-.12 1.86-1.3 2.22-2.74 2.17-1.47-.05-2.65-.5-2.58-2.46a6.0673 6.0673 0 0 1 .15-1.09l-25.77 25.77a7.1135 7.1135 0 0 0 10.06 10.06l25.73-25.73a6.71 6.71 0 0 1 -1.24.09c-1.96-.07-2.32-1.28-2.27-2.75.05-1.38.46-2.49 2.14-2.57-.06 1.96 1.11 2.4 2.58 2.46 1.47.05 2.68-.32 2.75-2.28a7.199 7.199 0 0 0 -.66-3.11 7.1588 7.1588 0 0 0 2.97.72c1.97 0 2.37-1.2 2.37-2.67a4.7042 4.7042 0 0 0 -.08-.94c1.92-1.69 3.38-1 4.69.31 1.39 1.39 2.09 2.95 0 5.03z" fill="#42a047"/><path d="m46.42 10.01a4.7042 4.7042 0 0 0 -.94-.08c-1.47 0-2.67.4-2.67 2.37a7.3089 7.3089 0 0 0 .8 3.14 7.2452 7.2452 0 0 0 -3-.86c-1.97-.06-2.41 1.12-2.47 2.59-.05 1.47.32 2.68 2.28 2.75.05 0 .1-.01.16-.01-.12 1.86-1.3 2.22-2.74 2.17-1.47-.05-2.65-.5-2.58-2.46a6.0673 6.0673 0 0 1 .15-1.09l-25.77 25.77a7.11 7.11 0 0 0 0 10.06l-2.52 2.52a10.65 10.65 0 0 1 -2.9-9.68l41.89-41.88c1.31 1.31 2 2.77.31 4.69z" fill="#378e43"/><path d="m58.68 22.92a11.4939 11.4939 0 0 1 -2.44 1.82c1.3.28 1.61 1.33 1.61 2.58 0 1.48-.41 2.67-2.38 2.67a7.3012 7.3012 0 0 1 -2.97-.71 7.0148 7.0148 0 0 1 .66 3.1c-.06 1.97-1.27 2.33-2.74 2.28-1.48-.05-2.66-.5-2.59-2.46a6.3486 6.3486 0 0 1 .16-1.1l-25.78 25.78a10.4981 10.4981 0 0 1 -5.42 2.9l41.89-41.89c1.39 1.39 2.09 2.95 0 5.03z" fill="#378e43"/><path d="m54.91 14.12a11.2829 11.2829 0 0 1 -2.45 1.81c1.31.29 1.61 1.33 1.61 2.59 0 1.47-.4 2.67-2.37 2.67a7.1588 7.1588 0 0 1 -2.97-.72 7.199 7.199 0 0 1 .66 3.11c-.07 1.96-1.28 2.33-2.75 2.28-1.47-.06-2.65-.5-2.58-2.47a6.1916 6.1916 0 0 1 .15-1.09l-33.15 33.16a7.1294 7.1294 0 0 1 -2.52-2.52l33.12-33.11a6.71 6.71 0 0 1 -1.24.09c-1.96-.07-2.33-1.28-2.28-2.75.06-1.47.5-2.65 2.47-2.59a7.2452 7.2452 0 0 1 3 .86 7.3089 7.3089 0 0 1 -.8-3.14c0-1.97 1.2-2.37 2.67-2.37 1.26 0 2.3.3 2.59 1.61a11.2829 11.2829 0 0 1 1.81-2.45c2.08-2.09 3.64-1.39 5.03 0s2.09 2.94 0 5.03z" fill="#42a047"/><g fill="#378e43"><path d="m54.91 14.12a11.2829 11.2829 0 0 1 -2.45 1.81c1.31.29 1.61 1.33 1.61 2.59 0 1.47-.4 2.67-2.37 2.67a7.1588 7.1588 0 0 1 -2.97-.72 7.199 7.199 0 0 1 .66 3.11c-.07 1.96-1.28 2.33-2.75 2.28-1.47-.06-2.65-.5-2.58-2.47a6.1916 6.1916 0 0 1 .15-1.09l-33.15 33.16a6.765 6.765 0 0 1 -1.42-1.1l45.27-45.27c1.39 1.39 2.09 2.94 0 5.03z"/><path d="m45.32 35.9752h1.57a0 0 0 0 1 0 0v1.57a3.7659 3.7659 0 0 1 -3.7659 3.7659h-1.57a0 0 0 0 1 0 0v-1.57a3.7659 3.7659 0 0 1 3.7659-3.7659z" transform="matrix(.707 .707 -.707 .707 40.277 -19.951)"/><path d="m32.7431 23.3986h1.57a0 0 0 0 1 0 0v1.57a3.7659 3.7659 0 0 1 -3.7659 3.7659h-1.57a0 0 0 0 1 0 0v-1.57a3.7659 3.7659 0 0 1 3.7659-3.7659z" transform="matrix(.707 .707 -.707 .707 27.701 -14.742)"/></g><path d="m22.6889 17.11h1.57a3.7659 3.7659 0 0 1 3.7659 3.7659v1.57a0 0 0 0 1 0 0h-1.57a3.7659 3.7659 0 0 1 -3.7659-3.7659v-1.57a0 0 0 0 1 0 0z" fill="#42a047" transform="matrix(-.707 -.707 .707 -.707 29.302 51.694)"/><path d="m35.2655 29.6869h1.57a3.7659 3.7659 0 0 1 3.7659 3.7659v1.57a0 0 0 0 1 0 0h-1.57a3.7659 3.7659 0 0 1 -3.7659-3.7659v-1.57a0 0 0 0 1 0 0z" fill="#42a047" transform="matrix(-.707 -.707 .707 -.707 41.878 82.056)"/><path d="m54.4265 16.0723c-.034-.0482-.06-.105-.0964-.15 2.8061-1.9 4.1023-4.9927 1.2888-7.541-2.5471-2.8133-5.6442-1.5174-7.5408 1.289-.0454-.0367-.1022-.0624-.15-.0964.89-1.654.5335-3.3193-1.1123-4.9651-2.5473-2.8143-5.6419-1.5177-7.542 1.2891a4.0375 4.0375 0 0 0 -2.5976-.7422c-3.7809.1074-3.9032 2.5615-3.5088 4.8388-1.435-.3757-3.3112-.2315-4.102.92a4.211 4.211 0 0 0 -.7232 2.4463c-.0811 2.3349.9756 3.2861 2.1675 3.624l-2.0165 2.0152a4.7258 4.7258 0 0 0 -1.3194-2.5922c-.4125-.3325-1.2015-1.4734-1.8168-1.4033-.61-.0734-1.4094 1.0741-1.8175 1.4033a4.8373 4.8373 0 0 0 .4031 7.1429l-17.529 17.5293a11.6715 11.6715 0 0 0 16.5064 16.5058l17.5287-17.5287a4.8378 4.8378 0 0 0 7.1431.4028c.3307-.41 1.4746-1.2025 1.4033-1.8163.0731-.6111-1.0739-1.4088-1.4033-1.8175a4.7208 4.7208 0 0 0 -2.5925-1.3195l1.987-1.9871c.3272 1.1026 1.2383 2.0635 3.3946 2.1387 3.8461.02 4.0009-2.49 3.6543-4.8223 2.2675.3922 4.703.2531 4.81-3.5116a4.0412 4.0412 0 0 0 -.7423-2.5987c2.8079-1.9 4.1027-4.9935 1.2889-7.541-1.6454-1.6452-3.3107-2.003-4.9653-1.1123zm-5.489-4.0459c1.2261-2.1006 3.2542-4.6736 5.2675-2.2314 2.4384 2.017-.1273 4.0381-2.2315 5.2675a1.0065 1.0065 0 0 0 .2765 1.85c.2874.0621.6268.1469.761.8671.19 1.353.0545 2.5451-1.3108 2.4092a6.2518 6.2518 0 0 1 -2.5342-.6161 1.0059 1.0059 0 0 0 -1.3417 1.3213 6.24 6.24 0 0 1 .5683 2.6494c-.0362 1.0117-.3047 1.3613-1.7149 1.3134-.94-.0131-1.752-.24-1.62-1.4265v-.0012a5.3544 5.3544 0 0 1 .1338-.9141 1.0054 1.0054 0 0 0 -1.6836-.9208l-32.5588 32.5573a4.8354 4.8354 0 0 1 -1.1176-1.0841l32.5347-32.5352a1.0057 1.0057 0 0 0 -.8741-1.6933 5.4237 5.4237 0 0 1 -.8974.0752l-.1377.0039c-1.0117-.0352-1.3623-.3-1.3134-1.7149a2.3635 2.3635 0 0 1 .3064-1.2931c.6261-.7174 2.7736-.1149 3.6835.4062a1 1 0 0 0 1.3624-1.3418 6.2719 6.2719 0 0 1 -.6846-2.6758c-.1381-1.3609 1.06-1.5016 2.4093-1.31.72.1342.805.4736.8671.761a1.0072 1.0072 0 0 0 1.8498.2768zm-7.4687 16.4013a2.773 2.773 0 0 0 1.6152 1.1348l-2.0126 2.0128a5.0629 5.0629 0 0 0 -1.7237-2.9933l1.6168-1.6169a3.36 3.36 0 0 0 .5043 1.4626zm-6.6729 4.706a5.0646 5.0646 0 0 0 1.7233 2.9939l-17.5292 17.5296a6.1 6.1 0 0 1 -6.1878 1.47zm3.1373 1.58a2.9035 2.9035 0 0 1 0-4.7174 2.903 2.903 0 0 1 0 4.7172zm-29.3775 14.6193a6.07 6.07 0 0 1 1.7876-4.323l17.5288-17.5295a5.0644 5.0644 0 0 0 2.9934 1.7235l-22.0122 22.0129a6.1407 6.1407 0 0 1 -.2976-1.8839zm26.8618-24.6811a5.0626 5.0626 0 0 0 -2.9935-1.7233l1.9852-1.9852a2.928 2.928 0 0 0 2.647 2.07zm-5.7275 1.0108a2.913 2.913 0 0 1 4.3136.4033 2.9407 2.9407 0 0 1 -4.7173.0005zm-4.7363-3.9283a2.8693 2.8693 0 0 1 .4033-4.3155 2.9082 2.9082 0 0 1 0 4.7178zm21.224 16.5056.4034.4034a2.9093 2.9093 0 0 1 -4.7178 0 2.8685 2.8685 0 0 1 4.3144-.4034zm11.8-16.0244a10.5451 10.5451 0 0 1 -2.2314 1.65 1.0063 1.0063 0 0 0 .2764 1.85c.3662.0791.8222.1787.8222 1.6084 0 1.416-.3593 1.668-1.3711 1.668a6.26 6.26 0 0 1 -2.5351-.6162 1 1 0 0 0 -1.3418 1.3213 6.22 6.22 0 0 1 .5683 2.6494c-.0341.9668-.2832 1.3535-1.7148 1.3135-1.415-.05-1.6543-.418-1.6191-1.4307.0246-.6066.4454-1.6135-.3634-2.0019a1.0015 1.0015 0 0 0 -1.1874.17l-25.7746 25.7745c-5.9784 6.06-16.5845 1.693-16.5059-6.8391a9.6052 9.6052 0 0 1 2.8275-6.8387l19.0584-19.0578.2885-.2885 6.3881-6.388a1.0068 1.0068 0 0 0 -.7066-1.707 8.4863 8.4863 0 0 1 -1.2026.0927c-.9668-.0342-1.3628-.28-1.3125-1.7148a2.3607 2.3607 0 0 1 .3057-1.293c.63-.6942 2.7705-.1335 3.6835.4063a1.0057 1.0057 0 0 0 1.3623-1.3419 6.28 6.28 0 0 1 -.6845-2.6757c0-1.0118.252-1.3711 1.668-1.3711 1.43 0 1.5293.4551 1.6084.8213a1.0008 1.0008 0 0 0 .83.7763 1.0166 1.0166 0 0 0 1.02-.5c.7726-1.35 2.1811-3.2942 3.6142-3.2461 1.4335.3113 3.5472 2.4895 2.2452 3.94-3.8122-.3092-4.618 2.3748-4.0225 4.82-2.7725-.7556-4.8947.6323-4.8251 3.3673-.15 1.5233.6406 3.3088 2.1591 3.622-.23.2519-.6485.3564-1.4307.3271-1.4355-.0508-1.6533-.4629-1.62-1.4268.0285-.5922.4391-1.6367-.3624-2.0058a1.0006 1.0006 0 0 0 -1.1874.17l-6.428 6.4282-1.1119 1.1112-18.2355 18.2357a8.1143 8.1143 0 0 0 11.4751 11.4756l18.2342-18.235c0-.0049 1.1155-1.11 1.1159-1.1158l6.3843-6.3846a1.0063 1.0063 0 0 0 -.8741-1.6933 5.4205 5.4205 0 0 1 -1.0351.0791c-.8477-.03-1.0352-.3115-1.0967-.4043a3.3625 3.3625 0 0 1 .0869-2.582 3.3082 3.3082 0 0 0 3.3887 2.119c3.83.0086 4.0046-2.49 3.6543-4.8222 2.4365.5936 5.0981-.2335 4.792-4.0254 1.4414-1.3021 3.6292.81 3.9386 2.2452a2.6387 2.6387 0 0 1 -1.0158 1.9638z"/></svg>