<svg id="Layer_1" height="512" viewBox="0 0 64 64" width="512" xmlns="http://www.w3.org/2000/svg" data-name="Layer 1"><path d="m59.98 23.91-4.37 4.44-4.44-4.39-.07-.07-4.26 4.65-4.95-3.22c.04-.46.05-.9.07-1.35a9.0849 9.0849 0 0 1 6.94-8.81 8.2109 8.2109 0 0 1 1.28-.18l-2.2-10.98 3.14 1.44 5.34 2.45-2.42 7.66a9.0023 9.0023 0 0 1 1.69.87 9.4511 9.4511 0 0 1 4.25 7.49z" fill="#42a047"/><path d="m59.98 23.91-4.37 4.44-4.44-4.39a72.5635 72.5635 0 0 0 -.05-18.52l5.34 2.45-2.42 7.66a9.0023 9.0023 0 0 1 1.69.87 9.4511 9.4511 0 0 1 4.25 7.49z" fill="#378e43"/><path d="m59.96 25.17a38.8315 38.8315 0 0 1 -5.48 16.95 36.57 36.57 0 0 1 -48.73 13.53 3.39 3.39 0 0 1 -1.68-3.65 3.3426 3.3426 0 0 1 .42-1.11 3.1453 3.1453 0 0 1 3.61-1.39 26.0906 26.0906 0 0 0 29.84-11.7 27.87 27.87 0 0 0 3.95-12.48l4.95 3.22 4.26-4.65.07.07 4.44 4.39 4.37-4.44a7.576 7.576 0 0 1 -.02 1.26z" fill="#e53a35"/><path d="m59.96 25.17a38.8315 38.8315 0 0 1 -5.48 16.95 36.57 36.57 0 0 1 -48.73 13.53 3.39 3.39 0 0 1 -1.68-3.65s24.83 10.34 38.88-7.33c4.92-6.19 7.26-13.64 8.22-20.71l4.44 4.39 4.37-4.44a7.576 7.576 0 0 1 -.02 1.26z" fill="#d32e2e"/><path d="m30.4849 55.6035a1 1 0 0 1 -.229-1.9736 31.3221 31.3221 0 0 0 19.687-14.4424 1 1 0 1 1 1.7109 1.0352 33.31 33.31 0 0 1 -20.938 15.3544 1.04 1.04 0 0 1 -.2309.0264z" fill="#b72025"/><path d="m60.9794 23.8645v-.0115a.117.117 0 0 0 -.0035-.0329 10.454 10.454 0 0 0 -5.7139-8.8221l2.1475-6.81a1 1 0 0 0 -.5371-1.21l-8.479-3.8867a1 1 0 0 0 -1.397 1.1065l1.9943 9.9222c-5.1975.9679-8.3011 5.83-8.1 11.127a26.9526 26.9526 0 0 1 -3.8057 12.0323 25.2242 25.2242 0 0 1 -28.7032 11.2588c-3.1578-1.0335-6.1831 2.2309-5.2191 5.3262a4.3245 4.3245 0 0 0 2.1151 2.6718 38.0823 38.0823 0 0 0 17.9151 4.53c19.5346.4598 37.4292-17.0253 37.7865-37.2016zm-18.0307.3543a8.1437 8.1437 0 0 1 6.1724-8.083c.5326-.1895 1.45.01 1.8594-.5576a1.0013 1.0013 0 0 0 .1826-.8l-1.8193-9.0516 5.8925 2.7011-2.15 6.82c-.3583 1.296 1.3917 1.398 2.0977 2.0069a8.4693 8.4693 0 0 1 3.769 6.269l-3.3549 3.4064-3.7959-3.7549a1.0458 1.0458 0 0 0 -.728-.2891.9992.9992 0 0 0 -.7129.3252l-3.6836 4.0264-3.7514-2.4385c.0092-.1936.0156-.386.0224-.5803zm10.6753 17.3847a35.3894 35.3894 0 0 1 -47.4077 13.167 2.29 2.29 0 0 1 -1.1255-1.4375 2.2648 2.2648 0 0 1 2.7267-2.8759c15.9342 5.0012 33.1263-6.84 34.9037-23.4063l3.5771 2.3252a.97.97 0 0 0 .5987.1509 1.0343 1.0343 0 0 0 .6841-.314l3.5542-3.8848 3.769 3.7285a1 1 0 0 0 1.4155-.0087l2.5034-2.5417a38.1624 38.1624 0 0 1 -5.1992 15.0973z"/><path d="m51.3159 38.85a1 1 0 0 0 -1.373.3379 31.3221 31.3221 0 0 1 -19.687 14.4421 1.0026 1.0026 0 0 0 .229 1.9736 33.0906 33.0906 0 0 0 21.1689-15.3809 1 1 0 0 0 -.3379-1.3727z"/></svg>