<svg id="Layer_1" height="512" viewBox="0 0 64 64" width="512" xmlns="http://www.w3.org/2000/svg" data-name="Layer 1"><path d="m11.2408 45.5184a30.5715 30.5715 0 0 1 15.626-8.3852 30.687 30.687 0 0 0 -8.3853-27.8185l-3.62 3.62a30.7276 30.7276 0 0 0 -6 34.9629z" fill="#66bb6a"/><path d="m54.69 45.52-3.63 3.62a30.7216 30.7216 0 0 1 -34.96 6l-4.86 4.86-7.24-7.24 7.24-7.24a30.7334 30.7334 0 0 1 43.45 0z" fill="#388e3c"/><path d="m54.69 45.52-3.63 3.62a30.7216 30.7216 0 0 1 -34.96 6l-4.86 4.86-3.62-3.62 19.25-19.25a30.67 30.67 0 0 1 27.82 8.39z" fill="#2e7d32"/><path d="m29.3511 55.1318a27.9153 27.9153 0 0 1 -11.9561-2.7 2.98 2.98 0 0 0 -1.292-.2929 1 1 0 0 1 0-2 4.9531 4.9531 0 0 1 2.1532.4883 25.9093 25.9093 0 0 0 11.0948 2.5048 25.5437 25.5437 0 0 0 18.1782-7.5283l.583-.583a1 1 0 0 1 1.4141 1.4141l-.583.583a27.5292 27.5292 0 0 1 -19.5922 8.114z" fill="#1b5e20"/><path d="m32.28 19.45c-1.83 1.5-3.68 3.15-5.52 4.97a30.5627 30.5627 0 0 0 -2.4-6.86c1.83-1.37 3.71-2.69 5.6-3.93a29.3187 29.3187 0 0 0 2.32 5.82z" fill="#ffca28"/><path d="m26.87 37.13a31.1 31.1 0 0 0 -.11-12.71c1.84-1.82 3.69-3.47 5.52-4.97a29.02 29.02 0 0 0 5.21 7.06z" fill="#ffa000"/><path d="m44.55 31.72c-1.5 1.83-3.15 3.68-4.97 5.52a31.1 31.1 0 0 0 -12.71-.11l10.62-10.62a29.02 29.02 0 0 0 7.06 5.21z" fill="#ffb300"/><path d="m50.37 34.04c-1.24 1.89-2.56 3.77-3.93 5.6a30.5627 30.5627 0 0 0 -6.86-2.4c1.82-1.84 3.47-3.69 4.97-5.52a29.3187 29.3187 0 0 0 5.82 2.32z" fill="#ff8f00"/><path d="m54.51 27.11c-1.23 2.29-2.63 4.62-4.14 6.93a29.3187 29.3187 0 0 1 -5.82-2.32 73.2368 73.2368 0 0 0 4.62-6.29 21.2428 21.2428 0 0 0 5.34 1.68z" fill="#ffb300"/><path d="m49.17 25.43a73.2368 73.2368 0 0 1 -4.62 6.29 29.02 29.02 0 0 1 -7.06-5.21l5.43-5.43a21.4709 21.4709 0 0 0 6.25 4.35z" fill="#ff8f00"/><path d="m42.92 21.08-5.43 5.43a29.02 29.02 0 0 1 -5.21-7.06 73.2368 73.2368 0 0 1 6.29-4.62 21.4709 21.4709 0 0 0 4.35 6.25z" fill="#ffca28"/><path d="m38.57 14.83a73.2368 73.2368 0 0 0 -6.29 4.62 29.3187 29.3187 0 0 1 -2.32-5.82c2.31-1.51 4.64-2.91 6.93-4.14a21.2428 21.2428 0 0 0 1.68 5.34z" fill="#ffa000"/><path d="m45.23 10.89a74.2152 74.2152 0 0 0 -6.66 3.94 21.2428 21.2428 0 0 1 -1.68-5.34 65.0315 65.0315 0 0 1 7.35-3.43 13.8846 13.8846 0 0 0 .99 4.83z" fill="#ffca28"/><path d="m53.11 18.77a74.2152 74.2152 0 0 1 -3.94 6.66 21.4709 21.4709 0 0 1 -6.25-4.35l5.43-5.43a13.8375 13.8375 0 0 0 4.76 3.12z" fill="#ffb300"/><path d="m57.94 19.76a65.0315 65.0315 0 0 1 -3.43 7.35 21.2428 21.2428 0 0 1 -5.34-1.68 74.2152 74.2152 0 0 0 3.94-6.66 13.8846 13.8846 0 0 0 4.83.99z" fill="#ff8f00"/><path d="m57.94 19.76a13.8846 13.8846 0 0 1 -4.83-.99 58.8594 58.8594 0 0 0 5.2-13.08c2.55 2.56 2.04 7.8-.37 14.07z" fill="#ffb300"/><path d="m58.31 5.69a58.8594 58.8594 0 0 1 -5.2 13.08 13.8375 13.8375 0 0 1 -4.76-3.12z" fill="#ff8f00"/><path d="m58.31 5.69-9.96 9.96a13.8375 13.8375 0 0 1 -3.12-4.76 58.8594 58.8594 0 0 1 13.08-5.2z" fill="#ffca28"/><path d="m58.31 5.69a58.8594 58.8594 0 0 0 -13.08 5.2 13.8846 13.8846 0 0 1 -.99-4.83c6.27-2.41 11.51-2.92 14.07-.37z" fill="#ffa000"/><path d="m48.35 15.65-5.43 5.43a21.4709 21.4709 0 0 1 -4.35-6.25 74.2152 74.2152 0 0 1 6.66-3.94 13.8375 13.8375 0 0 0 3.12 4.76z" fill="#ffa000"/><path d="m23.3262 34.8838a1.0018 1.0018 0 0 1 -.9951-1.1065 25.6361 25.6361 0 0 0 -4.8653-18 1 1 0 0 1 1.6094-1.1873 27.626 27.626 0 0 1 5.2441 19.4 1 1 0 0 1 -.9931.8938z" fill="#378e43"/><path d="m22.3311 33.7773a1 1 0 0 0 1.9882.2129 27.626 27.626 0 0 0 -5.2441-19.4 1 1 0 0 0 -1.6093 1.1876 25.6361 25.6361 0 0 1 4.8652 17.9995z"/><path d="m10.5342 60.707a1.0054 1.0054 0 0 0 1.414 0l4.3663-4.367a31.78 31.78 0 0 0 35.457-6.4941l3.6211-3.62a1 1 0 0 0 0-1.4141 31.8366 31.8366 0 0 0 -7.4369-5.5392c1.1081-1.5121 2.1858-3.067 3.2181-4.6436 1.5064-2.3006 2.9164-4.6493 4.168-6.9729a.9626.9626 0 0 0 .0583-.1067 65.6259 65.6259 0 0 0 3.4034-7.3141.97.97 0 0 0 .0789-.2007c2.4742-6.4917 3.019-12.0934.1694-15.0024l-.02-.0222a.287.287 0 0 0 -.0416-.0416l-.0224-.02c-2.9106-2.8515-8.516-2.305-15.0112.1719a.9758.9758 0 0 0 -.1919.0755 65.6915 65.6915 0 0 0 -7.3607 3.4289c-.026.0147-.053.0255-.0774.0423-2.33 1.256-4.6827 2.6692-6.9907 4.1818-1.57 1.0292-3.119 2.1033-4.6251 3.2076a31.7288 31.7288 0 0 0 -5.5228-7.449 1.0294 1.0294 0 0 0 -1.4141 0l-3.62 3.6211a31.7612 31.7612 0 0 0 -6.4784 35.4415l-4.3825 4.3818a1.0054 1.0054 0 0 0 0 1.414zm43.458-34.7328a20.8138 20.8138 0 0 1 -3.3165-.992c1.101-1.7193 2.0753-3.3853 2.9285-4.9673a15.093 15.093 0 0 0 2.9067.6393c-.6988 1.6893-1.5481 3.4739-2.5187 5.32zm-4.0422 6.889a28.2692 28.2692 0 0 1 -3.8377-1.4907c1.2533-1.5829 2.4-3.1495 3.4381-4.6807a22.7511 22.7511 0 0 0 3.455 1.1135c-.9223 1.6476-1.944 3.3393-3.0554 5.0579zm-16.9871 2.6573c-1.0867 0-2.1573.0718-3.233.1636l7.7811-7.7811a30.4383 30.4383 0 0 0 5.49 4.1q-1.7412 2.07-3.749 4.1381a32.0327 32.0327 0 0 0 -6.2891-.6206zm5.9623-9.0316 4.0207-4.0207a22.5915 22.5915 0 0 0 4.7409 3.3533c-1.0295 1.5124-2.1512 3.0531-3.3916 4.61a28.45 28.45 0 0 1 -5.37-3.9426zm9.873-2.3436a20.5987 20.5987 0 0 1 -4.4382-3.0912l4.0233-4.0233a14.9622 14.9622 0 0 0 3.3261 2.2052c-.8475 1.564-1.8206 3.213-2.9112 4.9093zm.9992-8.5286 6.3862-6.3862a68.632 68.632 0 0 1 -3.5461 8.2346 12.9624 12.9624 0 0 1 -2.8401-1.8484zm-1.4141-1.4141a12.9624 12.9624 0 0 1 -1.8484-2.84 68.632 68.632 0 0 1 8.2351-3.5462zm-1.4141 1.4142-4.0233 4.0232a20.5987 20.5987 0 0 1 -3.0912-4.4383c1.6963-1.0906 3.3451-2.0637 4.9093-2.9111a14.9622 14.9622 0 0 0 2.2052 3.3262zm-7.9514-2.2925a20.8145 20.8145 0 0 1 -.9921-3.3168c1.8461-.9706 3.6307-1.82 5.32-2.5187a15.0944 15.0944 0 0 0 .6393 2.907c-1.5819.8532-3.2479 1.8275-4.9672 2.9285zm-1.71 1.1255c-1.5312 1.0382-3.0978 2.1848-4.6807 3.4381a28.2854 28.2854 0 0 1 -1.4904-3.8379c1.7186-1.1116 3.41-2.1334 5.0579-3.0555a22.7627 22.7627 0 0 0 1.1136 3.4555zm.87 1.8634a22.5915 22.5915 0 0 0 3.3533 4.7409l-4.0207 4.0207a28.45 28.45 0 0 1 -3.9427-5.37c1.5577-1.2404 3.0984-2.3621 4.6108-3.3916zm-2.0808 10.1758-7.8023 7.8023a31.1418 31.1418 0 0 0 -.4529-9.527q2.0715-2.022 4.1549-3.765a30.4383 30.4383 0 0 0 4.1003 5.4897zm5.4106 10.1993c1.1743-1.2394 2.2711-2.48 3.3028-3.7158a30.3186 30.3186 0 0 0 3.9844 1.6224c-.8461 1.2523-1.722 2.5116-2.6592 3.78a31.3218 31.3218 0 0 0 -4.628-1.6866zm15.76-17.9824a13.1325 13.1325 0 0 1 -2.7221-.5 65.52 65.52 0 0 0 4.0983-9.9823c.7545 2.3864.2347 6.0507-1.3766 10.4823zm-1.49-13.3495a65.5183 65.5183 0 0 0 -9.9836 4.0985 13.1287 13.1287 0 0 1 -.5-2.7224c4.4321-1.6115 8.0966-2.1314 10.4829-1.3761zm-30.1604 12.5136c1.271-.9393 2.533-1.8171 3.7879-2.665a30.3061 30.3061 0 0 0 1.6224 3.985c-1.239 1.0347-2.4834 2.135-3.7265 3.3131a32.2644 32.2644 0 0 0 -1.6838-4.6331zm-10.0488-4.2274 2.9016-2.9026a29.7542 29.7542 0 0 1 7.5183 25.555 32.5157 32.5157 0 0 0 -16.8083 9.8709 29.7763 29.7763 0 0 1 6.3884-32.5233zm-6.0011 34.9636c9.2956-10.6514 23.5654-14.2562 36.4741-8.0626a29.6965 29.6965 0 0 1 7.2186 4.9864c-9.31 10.8234-23.5617 14.9238-36.7277 8.7059a1.0026 1.0026 0 0 0 -1.1376.1954l-4.1533 4.1543-5.8273-5.8268z"/><path d="m16.1035 52.1387a2.9836 2.9836 0 0 1 1.292.2929 27.7728 27.7728 0 0 0 32.1309-5.9971 1 1 0 0 0 -1.4141-1.4139 25.8635 25.8635 0 0 1 -29.8555 5.6062c-.9594-.4252-3.0107-1.0671-3.1534.5119a1 1 0 0 0 1.0001 1z"/></svg>