<svg height="512pt" viewBox="0 0 512.00072 512" width="512pt" xmlns="http://www.w3.org/2000/svg"><path d="m175.542969 16.820312c-16.515625 9.269532-27.847657 23.734376-32.605469 39.210938 15.6875 3.996094 33.9375 1.851562 50.453125-7.417969 14.046875-7.886719 24.34375-19.53125 30.035156-32.355469 1.59375-3.59375-.722656-7.722656-4.621093-8.234374-13.914063-1.820313-29.21875.910156-43.261719 8.796874zm0 0" fill="#b4e6a0"/><path d="m218.804688 8.023438c-13.914063-1.820313-29.214844.910156-43.261719 8.796874-16.511719 9.269532-27.847657 23.734376-32.605469 39.210938l80.242188-45.035156c-.867188-1.550782-2.421876-2.71875-4.375-2.972656zm0 0" fill="#96d7a5"/><path d="m143.773438 87.644531c-39.179688 0-49.878907 41.277344-60.824219 68.496094-13.769531 34.25-32.1875 36.839844-59.675781 90.59375-36.726563 71.8125-8.035157 185.605469 72.664062 185.605469 25.457031 0 28.601562-8.839844 47.835938-8.839844 19.234374 0 22.378906 8.839844 47.835937 8.839844 80.699219 0 109.390625-113.792969 72.664063-185.605469-27.488282-53.753906-45.902344-56.34375-59.675782-90.59375-10.945312-27.21875-21.644531-68.496094-60.824218-68.496094zm0 0" fill="#ffe17d"/><path d="m368.226562 159.789062c-39.179687 0-49.878906 41.277344-60.824218 68.496094-13.773438 34.25-32.1875 36.84375-59.679688 90.59375-36.722656 71.8125-8.03125 185.605469 72.667969 185.605469 25.457031 0 28.601563-8.839844 47.835937-8.839844 19.234376 0 22.378907 8.839844 47.835938 8.839844 80.699219 0 109.390625-113.792969 72.664062-185.605469-27.488281-53.753906-45.90625-56.34375-59.675781-90.59375-10.945312-27.21875-21.644531-68.496094-60.824219-68.496094zm0 0" fill="#fff6d8"/><path d="m384.257812 409.710938c0 14.125-8.957031 21.210937-13.480468 31.777343-.976563 2.277344-4.125 2.277344-5.101563 0-4.523437-10.566406-13.480469-17.652343-13.480469-31.777343 0-14.121094 8.957032-21.207032 13.480469-31.777344.976563-2.277344 4.125-2.277344 5.101563 0 4.523437 10.570312 13.480468 17.65625 13.480468 31.777344zm0 0" fill="#ffedb1"/><path d="m71.375 262.480469c21.429688-70.175781 41.855469-76.445313 51.261719-120.523438 3.476562-16.277343 6.386719-36.210937 12.914062-53.589843-32.5 5.394531-42.46875 42.574218-52.601562 67.773437-13.769531 34.25-32.1875 36.839844-59.675781 90.59375-36.726563 71.8125-8.035157 185.605469 72.664062 185.605469.585938 0 1.101562-.027344 1.664062-.039063-31.425781-44.691406-43.183593-114.292969-26.226562-169.820312zm0 0" fill="#ffd164"/><path d="m495.40625 315.464844c-14.691406-28.726563-27.117188-43.535156-37.097656-55.429688-9.019532-10.742187-16.136719-19.230468-22.296875-34.546875-1.199219-2.984375-2.394531-6.136719-3.660157-9.472656-9.507812-25.082031-22.304687-58.792969-56.394531-63.226563 2.3125-36.261718 21.777344-61.125 22.160157-61.601562 2.59375-3.222656 2.09375-7.941406-1.125-10.542969-3.222657-2.601562-7.945313-2.101562-10.546876 1.121094-.996093 1.230469-23.175781 29.171875-25.503906 70.957031-34.429687 4.195313-47.285156 38.101563-56.835937 63.289063-1.265625 3.339843-2.460938 6.492187-3.660157 9.476562-6.160156 15.316407-13.28125 23.800781-22.296874 34.546875-2.078126-5.8125-4.476563-11.410156-7.191407-16.71875-11.605469-22.6875-21.539062-36.214844-28.898437-45.464844-2.578125-3.242187-7.292969-3.777343-10.539063-1.199218-3.238281 2.578125-3.777343 7.296875-1.199219 10.539062 6.925782 8.703125 16.28125 21.449219 27.28125 42.953125 3.765626 7.371094 6.871094 15.371094 9.257813 23.808594-7.605469 9.949219-16.226563 22.765625-25.8125 41.507813-7.78125 15.21875-12.90625 32.28125-15.230469 50.71875-.519531 4.109374 2.390625 7.859374 6.5 8.378906 4.113282.519531 7.863282-2.394532 8.378906-6.503906 2.109376-16.703126 6.71875-32.097657 13.707032-45.761719 13.917968-27.214844 25.246094-40.710938 35.234375-52.617188 9.484375-11.300781 17.671875-21.058593 24.722656-38.59375 1.257813-3.125 2.480469-6.34375 3.769531-9.753906 8.746094-23.066406 18.558594-48.925781 42.597656-53.367187v136.117187c0 4.140625 3.359376 7.5 7.5 7.5 4.144532 0 7.5-3.359375 7.5-7.5v-136.113281c24.039063 4.441406 33.851563 30.300781 42.597657 53.367187 1.292969 3.410157 2.511719 6.628907 3.769531 9.753907 7.050781 17.535156 15.242188 27.292968 24.722656 38.59375 9.992188 11.90625 21.316406 25.398437 35.234375 52.613281 21.234375 41.523437 19.722657 99.320312-3.59375 137.433593-10.398437 16.996094-29.664062 37.257813-62.394531 37.257813-12.34375 0-18.542969-2.167969-25.101562-4.460937-4.492188-1.570313-9.101563-3.175782-15.234376-3.929688v-32.207031c0-7.261719 3.019532-12.007813 6.84375-18.015625 4.308594-6.769532 9.1875-14.441406 9.1875-26.070313 0-11.632812-4.882812-19.304687-9.1875-26.074219-3.824218-6.007812-6.84375-10.753906-6.84375-18.015624 0-4.144532-3.359374-7.5-7.5-7.5-4.140624 0-7.5 3.355468-7.5 7.5 0 7.261718-3.019531 12.007812-6.84375 18.015624-4.308593 6.769532-9.1875 14.441407-9.1875 26.074219 0 11.628907 4.882813 19.300781 9.1875 26.070313 3.824219 6.007812 6.84375 10.753906 6.84375 18.015625v32.207031c-6.132812.753906-10.742187 2.359375-15.230468 3.929688-6.5625 2.292968-12.761719 4.460937-25.105469 4.460937-50.460937 0-76.777344-48.605469-80.472656-96.78125-.316407-4.128906-3.925781-7.214844-8.050781-6.90625-4.128907.320313-7.21875 3.921875-6.902344 8.054687.363281 4.777344.945312 9.488282 1.695312 14.121094-10.484375 6.210938-22.257812 9.367188-35.050781 9.367188-12.34375 0-18.539063-2.167969-25.101563-4.460938-6.152343-2.152344-12.515624-4.378906-22.734374-4.378906-10.214844 0-16.578126 2.226562-22.730469 4.378906-6.5625 2.292969-12.757813 4.460938-25.105469 4.460938-32.726562 0-51.992188-20.261719-62.390625-37.257813-23.316406-38.113281-24.832031-95.914062-3.597656-137.433593 13.917969-27.214844 25.242187-40.710938 35.234375-52.617188 9.484375-11.296875 17.671875-21.058594 24.722656-38.59375 1.257812-3.121094 2.480469-6.34375 3.769531-9.75 9.605469-25.332031 20.492188-54.042969 50.097657-54.042969 29.609374 0 40.492187 28.710938 50.097656 54.042969 1.292968 3.40625 2.511718 6.628906 3.769531 9.75 3.027344 7.53125 6.394531 13.996094 10.59375 20.347656 2.285156 3.457032 6.9375 4.40625 10.390625 2.125 3.457031-2.285156 4.40625-6.9375 2.121094-10.394531-3.625-5.488281-6.546875-11.105469-9.1875-17.675781-1.199219-2.984375-2.394532-6.136719-3.660156-9.472656-9.550782-25.1875-22.40625-59.09375-56.835938-63.292969-.304688-5.480469-.949219-10.722657-1.847656-15.699219 2.945312.367188 5.921875.550781 8.921875.550781 13.148437 0 26.613281-3.511719 38.664062-10.277343 17.449219-9.792969 30.605469-25.664063 36.101563-43.546876.601562-1.960937.375-4.085937-.628906-5.875-1.003907-1.789062-2.699219-3.089843-4.6875-3.597656-18.125-4.617187-38.527344-1.648437-55.976563 8.148438-12.53125 7.035156-22.828125 17.214844-29.683594 29.011718-7.101562-18.011718-15.753906-28.914062-16.367187-29.671874-2.597656-3.214844-7.304688-3.714844-10.527344-1.121094s-3.734375 7.308594-1.148438 10.539062c.210938.261719 19.839844 25.1875 22.164063 61.609375-34.089844 4.433594-46.886719 38.144531-56.394531 63.222657-1.265625 3.335937-2.460938 6.488281-3.660156 9.472656-6.160157 15.320312-13.28125 23.804687-22.296876 34.546875-9.980468 11.898437-22.40625 26.703125-37.097656 55.429687-11.496094 22.472656-17.359375 50.113282-16.519531 77.828125.835937 27.464844 8.175781 53.839844 20.671875 74.265625 17.527344 28.648438 44.230469 44.429688 75.1875 44.429688 14.890625 0 22.949219-2.816406 30.054688-5.304688 5.648437-1.972656 10.109374-3.535156 17.78125-3.535156 7.671874 0 12.132812 1.5625 17.78125 3.535156 7.105468 2.488282 15.160156 5.304688 30.054687 5.304688 13.777344 0 26.617187-3.027344 38.285156-9.015625 4.679688 17.808593 12.230469 33.863281 22.203125 46.746093 17.425782 22.515626 41.042969 34.414063 68.292969 34.414063 14.894531 0 22.949219-2.816406 30.054687-5.300781 5.648438-1.976563 10.109376-3.539063 17.78125-3.539063 7.671876 0 12.132813 1.5625 17.78125 3.539063 7.109376 2.484375 15.164063 5.300781 30.054688 5.300781 30.957031 0 57.660156-15.777344 75.1875-44.429687 12.5-20.425782 19.839844-46.796876 20.671875-74.261719.839844-27.71875-5.027344-55.359375-16.515625-77.828125zm-316.453125-292.105469c11.40625-6.40625 24.28125-9.226563 36.414063-8.140625-5.390626 10.925781-14.503907 20.449219-25.910157 26.851562-11.40625 6.40625-24.277343 9.226563-36.414062 8.140626 5.390625-10.925782 14.503906-20.449219 25.910156-26.851563zm180.742187 388.941406c0-7.265625 3.019532-12.011719 6.84375-18.019531.554688-.875 1.125-1.765625 1.6875-2.679688.566407.914063 1.132813 1.804688 1.6875 2.679688 3.824219 6.007812 6.84375 10.753906 6.84375 18.019531 0 7.261719-3.019531 12.007813-6.84375 18.015625-.554687.875-1.125 1.769532-1.6875 2.679688-.566406-.910156-1.132812-1.804688-1.6875-2.679688-3.824218-6.007812-6.84375-10.753906-6.84375-18.015625zm0 0"/></svg>