<?xml version="1.0" encoding="UTF-8"?>
<svg xmlns="http://www.w3.org/2000/svg" id="Layer_1" data-name="Layer 1" viewBox="0 0 64 64" width="512" height="512"><defs><style>.cls-1{fill:#edeff0;}.cls-2{fill:#cfd8dc;}.cls-3{fill:#fff;}</style></defs><path class="cls-1" d="M42,37c0,5.83-1.38,11.03-3.56,14.52A16.0167,16.0167,0,0,0,36,60l-4-2-4,2a16.0167,16.0167,0,0,0-2.44-8.48C23.38,48.03,22,42.83,22,37a31.21,31.21,0,0,1,2.05-11.51A51.83,51.83,0,0,0,28,6.24V4l2.04,2L32,4l1.98,2L36,4V6.24a51.83,51.83,0,0,0,3.95,19.25A31.21,31.21,0,0,1,42,37Z"/><path class="cls-2" d="M42,37c0,5.83-1.38,11.03-3.56,14.52A16.0167,16.0167,0,0,0,36,60l-4-2V4l1.98,2L36,4V6.24a51.83,51.83,0,0,0,3.95,19.25A31.21,31.21,0,0,1,42,37Z"/><path class="cls-3" d="M35.05,50.4a1.0005,1.0005,0,0,1-.8477-1.5293C35.9541,46.064,37,41.6265,37,37a1,1,0,0,1,2,0c0,4.9849-1.1592,9.8188-3.1006,12.93A.9982.9982,0,0,1,35.05,50.4Z"/><path class="cls-1" d="M28,59.92a5.9758,5.9758,0,0,0-4.73-5.72C16.6,52.78,12,49.22,12,41.7c0-6.74,3.69-15,9.26-20.06A20.6255,20.6255,0,0,0,27.99,6.48a49.35,49.35,0,0,1-2.47,14.91c-.44,1.39-.93,2.75-1.47,4.1A31.21,31.21,0,0,0,22,37c0,5.83,1.38,11.03,3.56,14.52a15.5862,15.5862,0,0,1,1.3,2.58A15.7918,15.7918,0,0,1,28,59.92Z"/><path class="cls-2" d="M26.86,54.1C20.41,52.63,16,49.06,16,41.7c0-6.74,3.69-15,9.26-20.06.09-.08.17-.16.26-.25-.44,1.39-.93,2.75-1.47,4.1A31.21,31.21,0,0,0,22,37c0,5.83,1.38,11.03,3.56,14.52A15.5862,15.5862,0,0,1,26.86,54.1Z"/><path class="cls-3" d="M19.8994,49.8247a.996.996,0,0,1-.48-.123C15.502,47.5566,15,44.2988,15,41.7a23.4387,23.4387,0,0,1,2.335-9.5371,1,1,0,0,1,1.8144.8428A21.4166,21.4166,0,0,0,17,41.7c0,2.2832.4092,4.6206,3.3809,6.2476a1,1,0,0,1-.4815,1.8769Z"/><path class="cls-2" d="M52,41.7c0,7.52-4.6,11.08-11.27,12.5A5.9758,5.9758,0,0,0,36,59.92a15.7918,15.7918,0,0,1,1.14-5.82,15.5862,15.5862,0,0,1,1.3-2.58C40.62,48.03,42,42.83,42,37a31.21,31.21,0,0,0-2.05-11.51c-.54-1.35-1.03-2.71-1.47-4.1A49.35,49.35,0,0,1,36.01,6.48a20.6255,20.6255,0,0,0,6.73,15.16C48.31,26.7,52,34.96,52,41.7Z"/><path class="cls-1" d="M48,41.7c0,7.36-4.41,10.93-10.86,12.4a15.5862,15.5862,0,0,1,1.3-2.58C40.62,48.03,42,42.83,42,37a31.21,31.21,0,0,0-2.05-11.51c-.54-1.35-1.03-2.71-1.47-4.1.09.09.17.17.26.25C44.31,26.7,48,34.96,48,41.7Z"/><path class="cls-3" d="M44.1016,49.8247a1,1,0,0,1-.4815-1.8769C46.5908,46.3208,47,43.9834,47,41.7a21.4133,21.4133,0,0,0-2.1494-8.6939,1,1,0,0,1,1.8144-.8427A23.4327,23.4327,0,0,1,49,41.7c0,2.5986-.502,5.8564-4.4189,8.0015A.996.996,0,0,1,44.1016,49.8247Z"/><path d="M34.5215,50.2485a1,1,0,0,0,1.3779-.3188C37.8408,46.8188,39,41.9849,39,37a1,1,0,0,0-2,0c0,4.6264-1.0459,9.0639-2.7979,11.871A1,1,0,0,0,34.5215,50.2485Z"/><path d="M23.0605,55.1792a4.96,4.96,0,0,1,3.9366,4.7451,1.0136,1.0136,0,0,0,1.45.97L32,59.1182l3.5527,1.7763a1.0141,1.0141,0,0,0,1.45-.97A4.96,4.96,0,0,1,40.94,55.1792c18.4916-3.3346,12.6845-24.9807,2.47-34.2775A19.765,19.765,0,0,1,37,6.2368V4a1.0069,1.0069,0,0,0-1.7041-.71L33.9893,4.5859c-.4918-.41-1.3714-1.6682-1.9922-1.5859-.6189-.08-1.4954,1.1839-1.9737,1.5859L28.7012,3.2866A1.0072,1.0072,0,0,0,27,4c.3952,6.3114-1.6477,12.6854-6.4093,16.9018C10.3763,30.1967,4.569,51.8467,23.0605,55.1792ZM42.0654,22.3833C47.3262,27.1577,51,35.1011,51,41.7c0,6.2524-3.4268,10.0215-10.4766,11.5229a6.945,6.945,0,0,0-2.3352.9676,15.4526,15.4526,0,0,1,1.1048-2.1433c4.31-6.6445,4.8409-19.2683,1.59-26.9268a57.9343,57.9343,0,0,1-2.2282-6.7057A21.224,21.224,0,0,0,42.0654,22.3833Zm-12.73-15.67a1.0064,1.0064,0,0,0,1.415-.0127l1.2539-1.2769,1.27,1.28a.8308.8308,0,0,0,.71.2959c.4213.0259.75-.32,1.0166-.6a54.6433,54.6433,0,0,0,4.3075,20.2256c2.7013,7.02,2.1362,18.4517-1.7119,24.3633a17.3092,17.3092,0,0,0-2.5214,7.43l-2.6269-1.3134a1.0008,1.0008,0,0,0-.8946,0l-2.6269,1.3134a17.3084,17.3084,0,0,0-2.5215-7.43c-3.9773-6.1163-4.4428-18.0435-1.4315-25.1221A53.1944,53.1944,0,0,0,29,6.3838Zm-7.4,15.67a21.2326,21.2326,0,0,0,3.4109-3.9686,57.9317,57.9317,0,0,1-2.2283,6.7059c-3.2512,7.6574-2.72,20.2836,1.59,26.9268a15.4732,15.4732,0,0,1,1.1046,2.1433,6.945,6.945,0,0,0-2.3352-.9676C16.4268,51.7217,13,47.9526,13,41.7,13,35.1011,16.6738,27.1577,21.9346,22.3833Z"/><path d="M19.42,49.7017a1,1,0,0,0,.9609-1.754c-5.4728-2.9568-3.2515-10.2116-1.2316-14.9418a1,1,0,0,0-1.8143-.8427C14.9188,37.8292,12.6712,45.93,19.42,49.7017Z"/><path d="M44.1016,49.8247c7.2862-3.0676,5.03-12.09,2.5636-17.661a1,1,0,0,0-1.8146.8426c2.0177,4.725,4.2434,11.9822-1.23,14.9415A1.0055,1.0055,0,0,0,44.1016,49.8247Z"/></svg>
