<svg id="Layer_1" height="512" viewBox="0 0 64 64" width="512" xmlns="http://www.w3.org/2000/svg" data-name="Layer 1"><path d="m60 9.33a28.02 28.02 0 0 1 -.56 5.04c-.13.63-.28 1.3-.47 1.99a22.65 22.65 0 0 1 -5.37 9.94 14.8853 14.8853 0 0 1 -1.59 1.46c-.18.15-.37.3-.56.44a16.2219 16.2219 0 0 1 -2.77 1.66 15.36 15.36 0 0 1 -1.92.77 19.5861 19.5861 0 0 1 -6.36 1.01c-.14 0-.28 0-.42-.01-.32 0-.66-.01-1-.03-.09.32-.18.64-.28.96-.21.69-.45 1.37-.7 2.02v.01c-.13.32-.25.63-.38.93.29.16.57.33.85.52a22.8521 22.8521 0 0 1 6.36 5.59c.13.16.25.32.37.49q.42.585.78 1.2a15.8408 15.8408 0 0 1 1.8 4.34 14.6483 14.6483 0 0 1 .35 1.98 16.7366 16.7366 0 0 1 -.57 6.47 5.52 5.52 0 0 1 -6.71 3.7 5.2619 5.2619 0 0 1 -3.93-6.13c.03-.12.06-.23.09-.35a7.4631 7.4631 0 0 0 .29-1.86 5.4938 5.4938 0 0 0 -.92-3.08c-.06-.09-.12-.19-.19-.28a8.3383 8.3383 0 0 0 -1.09-1.25 20.1182 20.1182 0 0 0 -6.93-4.03c-.63-.23-1.27-.44-1.93-.64a35.4883 35.4883 0 0 0 -6.38-1.24 21.7692 21.7692 0 0 1 -5.24-1.14 15.8417 15.8417 0 0 1 -10.62-14.68 5.3756 5.3756 0 0 1 5.47-5.28 5.382 5.382 0 0 1 5.47 5.21 5.199 5.199 0 0 0 1.97 3.96 7.6066 7.6066 0 0 0 4.04 1.42c.58.06 1.17.12 1.77.21 1.24.17 2.52.39 3.81.69.32.06.65.14.97.22.13-.31.26-.63.37-.95.21-.55.39-1.12.55-1.71.18-.63.33-1.28.46-1.95a47.3141 47.3141 0 0 0 .84-9.81h-.01a54.13 54.13 0 0 0 -.48-7.03c0-.03-.01-.05-.01-.07a5.3061 5.3061 0 0 1 4.62-5.98 4.4365 4.4365 0 0 1 .62-.05 1.0869 1.0869 0 0 1 .18-.01 5.41 5.41 0 0 1 5.4 4.52v.01a65.7862 65.7862 0 0 1 .58 7.26c.04 1.36.04 2.86-.01 4.43-.01.3-.04.57-.05.86a6.5191 6.5191 0 0 0 4.2-1.25 7.2283 7.2283 0 0 0 1.73-1.84 10.6971 10.6971 0 0 0 1-1.78 17.7669 17.7669 0 0 0 1.15-3.64c.15-.71.25-1.38.32-1.96.06-.56.09-1.04.1-1.4a5.3934 5.3934 0 0 1 5.47-5.2h.07a4.4053 4.4053 0 0 1 .52.03 5.3394 5.3394 0 0 1 4.88 5.29z" fill="#fcb64d"/><path d="m40.61 20.22c-.01.3-.04.57-.05.86l-5.64-.6s.05-10.22-.46-16.47a1.0869 1.0869 0 0 1 .18-.01 5.41 5.41 0 0 1 5.4 4.52v.01a65.7862 65.7862 0 0 1 .58 7.26c.04 1.36.04 2.86-.01 4.43z" fill="#faa629"/><path d="m60 9.33a28.02 28.02 0 0 1 -.56 5.04c-.13.63-.28 1.3-.47 1.99a22.65 22.65 0 0 1 -5.37 9.94 14.8853 14.8853 0 0 1 -1.59 1.46c-.18.15-.37.3-.56.44a16.2219 16.2219 0 0 1 -2.77 1.66 15.36 15.36 0 0 1 -1.92.77 19.5861 19.5861 0 0 1 -6.36 1.01c-.14 0-.28 0-.42-.01-.32 0-.66-.01-1-.03l1-5.27s16.03-.62 15.14-22.29a5.3394 5.3394 0 0 1 4.88 5.29z" fill="#faa629"/><path d="m42.29 60a5.48 5.48 0 0 1 -1.44-.19 5.2619 5.2619 0 0 1 -3.93-6.13c.03-.12.06-.23.09-.35a7.4631 7.4631 0 0 0 .29-1.86 5.4938 5.4938 0 0 0 -.92-3.08c-.06-.09-.12-.19-.19-.28a8.3383 8.3383 0 0 0 -1.09-1.25 20.1182 20.1182 0 0 0 -6.93-4.03c-.63-.23-1.27-.44-1.93-.64a35.4883 35.4883 0 0 0 -6.38-1.24 21.7692 21.7692 0 0 1 -5.24-1.14 15.8417 15.8417 0 0 1 -10.62-14.68 5.3756 5.3756 0 0 1 5.47-5.28s-3.14 10.47 8.2 15.81c11.33 5.34 29.91.34 24.62 24.34z" fill="#faa629"/><path d="m22.72 30.65a17.651 17.651 0 0 1 -3.58 5.63 18.0739 18.0739 0 0 1 -4.52 3.53 16.0523 16.0523 0 0 1 -6.26-4.04 12.0567 12.0567 0 0 0 8.55-6.75 7.6066 7.6066 0 0 0 4.04 1.42c.58.06 1.17.12 1.77.21z" fill="#f78c1e"/><path d="m19.14 36.28a18.0739 18.0739 0 0 1 -4.52 3.53 16.0523 16.0523 0 0 1 -6.26-4.04 11.9214 11.9214 0 0 0 5.37-2.59 17.9011 17.9011 0 0 0 3.94 2.48c.48.22.97.43 1.47.62z" fill="#f47c20"/><path d="m40.62 15.79a10.8494 10.8494 0 0 1 -5.71 2.17 9.1 9.1 0 0 1 -.91.04 11.0476 11.0476 0 0 1 -4.28-.86h-.01a54.13 54.13 0 0 0 -.48-7.03 6.9027 6.9027 0 0 0 4.77 1.89 7.55 7.55 0 0 0 .83-.05 6.9715 6.9715 0 0 0 5.21-3.42 65.7862 65.7862 0 0 1 .58 7.26z" fill="#f78c1e"/><path d="m40.62 15.79a10.8494 10.8494 0 0 1 -5.71 2.17c0-1.57-.03-3.72-.08-6.01a6.9715 6.9715 0 0 0 5.21-3.42 65.7862 65.7862 0 0 1 .58 7.26z" fill="#f47c20"/><g fill="#f78c1e"><path d="m38.47 36.04a.9884.9884 0 0 1 -.85.48 1.0343 1.0343 0 0 1 -.48-.12c-6.14-3.35-9.73-3.84-9.77-3.85a1.0019 1.0019 0 0 1 -.86-1.12.292.292 0 0 1 .02-.09c.32.06.65.14.97.22.13-.31.26-.63.37-.95a35.138 35.138 0 0 1 10.13 3.97v.01c-.13.32-.25.63-.38.93.29.16.57.33.85.52z"/><path d="m39.98 31.63c-.32 0-.66-.01-1-.03-.09.32-.18.64-.28.96a.7239.7239 0 0 1 -.27-.12 28.3062 28.3062 0 0 0 -9.92-3.52c-.03-.01-.06-.01-.09-.02.18-.63.33-1.28.46-1.95a30.2752 30.2752 0 0 1 10.65 3.81 1.005 1.005 0 0 1 .45.87z"/><path d="m59.44 14.37c-.13.63-.28 1.3-.47 1.99a.7257.7257 0 0 1 -.28-.1 36.8361 36.8361 0 0 0 -10.05-3.69c-.02 0-.03-.01-.05-.01a.9936.9936 0 0 1 -.74-1.2.9648.9648 0 0 1 1.11-.75.2769.2769 0 0 1 .09.01 40.2224 40.2224 0 0 1 10.39 3.75z"/><path d="m53.6 26.3a25.79 25.79 0 0 0 -5.81-9.87.8938.8938 0 0 0 -.3-.22 1.0065 1.0065 0 0 0 -1.11.14 1.0191 1.0191 0 0 0 -.08 1.42c.06.07.13.14.19.22 2.01 2.26 4.48 5.66 5.3 9.34a1.0989 1.0989 0 0 0 .22.43z"/><path d="m45.98 43.32a.8755.8755 0 0 1 -.26.12 28.515 28.515 0 0 0 -9.33 4.94.01.01 0 0 0 -.01.01c-.06-.09-.12-.19-.19-.28a8.3383 8.3383 0 0 0 -1.09-1.25c.02-.02.05-.04.07-.06a30.2544 30.2544 0 0 1 9.66-5.17z"/><path d="m36.92 53.68a.9759.9759 0 0 0 .76-.12c2.26-1.37 6.61-3.7 10.37-3.91a.1949.1949 0 0 0 .08-.01 14.6483 14.6483 0 0 0 -.35-1.98c-3.64.25-7.59 2.12-10.48 3.81z"/><path d="m48.68 29.86a15.36 15.36 0 0 1 -1.92.77 40.9237 40.9237 0 0 0 -5.35-4.82 1.0021 1.0021 0 0 1 1.18-1.62 43.7515 43.7515 0 0 1 5.93 5.4.7444.7444 0 0 1 .16.27z"/><path d="m26.24 42.19a1.2212 1.2212 0 0 1 .14-.28 68.5407 68.5407 0 0 1 4.89-5.98.9976.9976 0 1 1 1.46 1.36c-.02.03-2.45 2.65-4.56 5.54z"/><circle cx="8" cy="25" r="1"/><circle cx="11" cy="28" r="1"/><circle cx="34" cy="25" r="1"/><circle cx="53" cy="18" r="1"/><circle cx="55" cy="9" r="1"/><circle cx="35" cy="41" r="1"/><circle cx="26" cy="37" r="1"/><circle cx="42" cy="55" r="1"/></g><path d="m14.2773 40.749h.0022l.0037.0016a22.8363 22.8363 0 0 0 5.48 1.1943c6.7314.6543 13.2978 3.49 15.6123 6.7461a4.7234 4.7234 0 0 1 .6719 4.3652 6.0707 6.0707 0 0 0 .5791 4.71 6.5157 6.5157 0 0 0 5.6635 3.2338c9.1406-.3659 7.9362-13.7722 4.0035-19.0219a.9878.9878 0 0 0 -.0958-.1507 23.219 23.219 0 0 0 -7.3266-6.73c.3184-.8125.6035-1.6377.8525-2.4659a20.6974 20.6974 0 0 0 8.2854-1.4135.9682.9682 0 0 0 .2458-.097c10.9787-4.0663 12.9889-19.0502 12.7452-21.7833-.2186-8.2258-12.4762-8.4464-12.94-.1462-.0352 1.8378-.8242 7.59-3.9 9.8388a4.9627 4.9627 0 0 1 -2.542.9795 71.5849 71.5849 0 0 0 -.5811-11.583c-1.4261-8.1579-13.7469-6.5928-12.8064 1.7607h.0009l.0059.042.0039.0244a57.814 57.814 0 0 1 .48 7.0332c.0244 3.7861-.2881 8.9834-1.8281 13.1016-3.0352-.9609-6.6688-.3611-9.3707-2.16a4.15 4.15 0 0 1 -1.5824-3.1828c-.42-8.2423-12.644-8.1789-12.94.0841-.1616 5.9052 4.3914 13.4431 11.2773 15.619zm3.0176-10.3a10.9782 10.9782 0 0 0 3.9627 1.0343 17.1 17.1 0 0 1 -6.7029 7.2127 15.3082 15.3082 0 0 1 -4.2125-2.4385 13.0966 13.0966 0 0 0 6.9527-5.8083zm27.7069 13.221a14.9587 14.9587 0 0 1 1.7582 4.1158 26.37 26.37 0 0 0 -8.4948 3.1373 6.5106 6.5106 0 0 0 -1.0877-3.1213 28.5864 28.5864 0 0 1 7.8243-4.1318zm1.5949 12.17c-1.7 5.4743-10.2431 3.2025-8.5675-2.4815a26.9124 26.9124 0 0 1 9.0874-3.5974 15.7827 15.7827 0 0 1 -.5199 6.0789zm-2.7792-13.8866a30.7522 30.7522 0 0 0 -7.9147 4.3032 20.7817 20.7817 0 0 0 -7.1158-4.2458c1.9322-2.5454 3.9231-4.6957 3.9454-4.72a1 1 0 1 0 -1.4648-1.3608 69.8139 69.8139 0 0 0 -4.4664 5.3967c-3.0417-1.0665-6.5984-1.202-9.7893-1.8617a19.0575 19.0575 0 0 0 6.3051-7.7042c1.3664.203 2.73.4763 4.056.7913.0352.0039 3.6218.4949 9.7624 3.8424a23.1217 23.1217 0 0 1 6.6821 5.5589zm-13.3429-29.7718a8.0432 8.0432 0 0 0 8.8443-1.2106c.1365 1.424.2309 2.8732.283 4.319a10.0582 10.0582 0 0 1 -8.9007 1.1563c-.0294-1.4263-.1002-2.8526-.2266-4.2647zm-1.0832 16.9015a29.9494 29.9494 0 0 1 8.3992 2.98q-.31 1.032-.698 2.0451a38.1956 38.1956 0 0 0 -8.2489-3.2921q.3038-.8471.5477-1.733zm23.8686-3.8718a26.2911 26.2911 0 0 0 -5.0177-8.2613 18.2782 18.2782 0 0 0 1.3615-4.1411 37.1325 37.1325 0 0 1 8.4588 3.0976 22.06 22.06 0 0 1 -4.8026 9.3048zm-3.2-15.9838c.2783-5.5944 8.7985-5.5619 8.94.0919a27.3321 27.3321 0 0 1 -.484 4.5523 41.0379 41.0379 0 0 0 -8.59-3.0419c.114-.9513.133-1.5798.134-1.6023zm-4.71 11.41a8.3868 8.3868 0 0 0 1.8156-1.87 22.3829 22.3829 0 0 1 4.4719 8.0078 15.2925 15.2925 0 0 1 -3.61 2.2769 43.2548 43.2548 0 0 0 -5.438-4.8612 1 1 0 0 0 -1.1777 1.6172 42.2327 42.2327 0 0 1 4.5846 4.0178 19.192 19.192 0 0 1 -6.7222.7788 30.669 30.669 0 0 0 -9.4156-3.47 47.1872 47.1872 0 0 0 .8552-8.599 12.0109 12.0109 0 0 0 8.9308-.9406c.0023 1.127-.0033 2.303-.0835 3.4475a1 1 0 0 0 1.0063 1.0373 7.4338 7.4338 0 0 0 4.7826-1.4423zm-14.3451-13.8563c2.1337-2.9952 7.2551-1.9612 7.9618 1.5561a5.9737 5.9737 0 0 1 -8.772 1.2619 4.1276 4.1276 0 0 1 .8102-2.818zm-21.5349 14.0688a4.4053 4.4053 0 0 1 4.4717 4.2529 6.3161 6.3161 0 0 0 1.7174 4.136 11.0408 11.0408 0 0 1 -6.9438 5.406c-3.7564-4.3716-6.3443-13.246.7547-13.7949z"/><path d="m9 25a1 1 0 0 0 -2 0 1 1 0 0 0 2 0z"/><path d="m11 29a1 1 0 0 0 0-2 1 1 0 0 0 0 2z"/><path d="m34 24a1 1 0 0 0 0 2 1 1 0 0 0 0-2z"/><path d="m53 17a1 1 0 0 0 0 2 1 1 0 0 0 0-2z"/><path d="m55 10a1 1 0 0 0 0-2 1 1 0 0 0 0 2z"/><path d="m35 40a1 1 0 0 0 0 2 1 1 0 0 0 0-2z"/><path d="m26 36a1 1 0 0 0 0 2 1 1 0 0 0 0-2z"/><path d="m42 54a1 1 0 0 0 0 2 1 1 0 0 0 0-2z"/></svg>