<svg id="Layer_1" height="512" viewBox="0 0 64 64" width="512" xmlns="http://www.w3.org/2000/svg" data-name="Layer 1"><path d="m29.0414 47.7736-.5112-.73a19.53 19.53 0 0 1 -3.5302-11.1997v-2.927a20.244 20.244 0 0 0 -3.2146-10.629 11.9 11.9 0 0 1 -1.7849-6.1788 11.6247 11.6247 0 0 1 .1606-1.9565 9.9088 9.9088 0 0 0 -2.0354.5894 10.07 10.07 0 0 0 -5.515 12.698 9.8618 9.8618 0 0 0 3.1207 4.3078 16.7744 16.7744 0 0 1 5.48 7.37l.8243 2.28a16.1784 16.1784 0 0 0 5.8843 7.7243l1.1016.777c.0061-.7085.0084-1.4171.0198-2.1255z" fill="#378e43"/><g fill="#1e5f30"><path d="m22.2 24h-4.2a1 1 0 0 1 0-2h4.2a1 1 0 0 1 0 2z"/><path d="m23.99 28h-3.99a1 1 0 0 1 0-2h3.99a1 1 0 0 1 0 2z"/><path d="m24.88 32h-2.88a1 1 0 0 1 0-2h2.88a1 1 0 0 1 0 2z"/></g><path d="m45.8743 14.742a9.91 9.91 0 0 0 -2.0316-.5889 12.0249 12.0249 0 0 1 .1573 1.8469 11.9015 11.9015 0 0 1 -1.7625 6.2508 20.6321 20.6321 0 0 0 -3.2375 10.7692v2.8237a19.5292 19.5292 0 0 1 -3.5305 11.2l-.5109.73c.0116.7085.0136 1.4172.02 2.1258l1.1016-.777a16.1784 16.1784 0 0 0 5.8846-7.7245l.8243-2.28a16.7744 16.7744 0 0 1 5.48-7.37 9.8618 9.8618 0 0 0 3.1202-4.308 10.07 10.07 0 0 0 -5.515-12.698z" fill="#42a047"/><path d="m46 24h-4.2a1 1 0 0 1 0-2h4.2a1 1 0 0 1 0 2z" fill="#317e3d"/><path d="m44 28h-3.99a1 1 0 0 1 0-2h3.99a1 1 0 0 1 0 2z" fill="#317e3d"/><path d="m42 32h-2.88a1 1 0 0 1 0-2h2.88a1 1 0 0 1 0 2z" fill="#317e3d"/><path d="m44 16a11.9726 11.9726 0 0 1 -1.76 6.25 20.5752 20.5752 0 0 0 -3.24 10.77v2.82a19.5017 19.5017 0 0 1 -3.53 11.2l-.51.73q-.165-10.32-1.13-20.6c-.16-1.82-.35-3.63-.55-5.45q-.3-2.67-.66-5.34c-.19-1.46-.4-2.92-.62-4.38-.22 1.46-.43 2.92-.62 4.38q-.36 2.67-.66 5.34c-.2 1.82-.39 3.63-.55 5.45q-.96 10.275-1.13 20.6l-.51-.73a19.5017 19.5017 0 0 1 -3.53-11.2v-2.92a20.2179 20.2179 0 0 0 -3.21-10.63 11.8411 11.8411 0 0 1 -1.79-6.18 12.1126 12.1126 0 0 1 11.53-12.1c.16-.01.31-.01.47-.01a12.01 12.01 0 0 1 12 12z" fill="#42a047"/><path d="m44 16a11.9726 11.9726 0 0 1 -1.76 6.25 20.5752 20.5752 0 0 0 -3.24 10.77v2.82a19.5017 19.5017 0 0 1 -3.53 11.2l-.51.73q-.165-10.32-1.13-20.6c-.16-1.82-.35-3.63-.55-5.45q-.3-2.67-.66-5.34c-.19-1.46-.4-2.92-.62-4.38v-8a12.01 12.01 0 0 1 12 12z" fill="#378e43"/><path d="m32.62 17.38a1 1 0 0 1 -.707-1.707l4.38-4.38a1 1 0 0 1 1.414 1.414l-4.38 4.38a.9967.9967 0 0 1 -.707.293z" fill="#1e5f30"/><path d="m33.28 22.72a1 1 0 0 1 -.7071-1.707l3.72-3.72a1 1 0 0 1 1.414 1.414l-3.72 3.72a.9964.9964 0 0 1 -.7069.293z" fill="#1e5f30"/><path d="m33.83 28.17a1 1 0 0 1 -.7071-1.707l3.17-3.17a1 1 0 0 1 1.414 1.414l-3.17 3.17a.9967.9967 0 0 1 -.7069.293z" fill="#1e5f30"/><path d="m31.38 17.38a.9967.9967 0 0 1 -.707-.293l-4.38-4.38a1 1 0 0 1 1.414-1.414l4.38 4.38a1 1 0 0 1 -.707 1.707z" fill="#317e3d"/><path d="m30.72 22.72a.9964.9964 0 0 1 -.707-.293l-3.72-3.72a1 1 0 0 1 1.414-1.414l3.72 3.72a1 1 0 0 1 -.707 1.707z" fill="#317e3d"/><path d="m30.17 28.17a.9967.9967 0 0 1 -.707-.2929l-3.17-3.17a1 1 0 0 1 1.414-1.414l3.17 3.17a1 1 0 0 1 -.707 1.7069z" fill="#317e3d"/><path d="m35 52.22v4.78a3 3 0 0 1 -6 0v-4.78a270.7249 270.7249 0 0 1 3-40.22 270.7249 270.7249 0 0 1 3 40.22z" fill="#81c785"/><path d="m35 52.22v4.78a3.0045 3.0045 0 0 1 -3 3v-48a270.7249 270.7249 0 0 1 3 40.22z" fill="#66bb6a"/><path d="m46.2539 13.8174a10.7805 10.7805 0 0 0 -1.5272-.4833c-3.1422-13.7623-22.2886-13.6518-25.4359-.0041a11.0105 11.0105 0 0 0 -7.6174 14.4585 10.8937 10.8937 0 0 0 3.4366 4.7423 15.8514 15.8514 0 0 1 5.161 6.9262l.8242 2.28a17.3588 17.3588 0 0 0 6.9218 8.6769c-.0422 1.2429-.0033 5.2792-.017 6.5861a4 4 0 0 0 8 0c-.0183-1.33.02-5.3169-.017-6.5858a17.3644 17.3644 0 0 0 6.9222-8.6769l.8243-2.28a15.8413 15.8413 0 0 1 5.16-6.9262 10.89 10.89 0 0 0 3.4375-4.7427 11.0479 11.0479 0 0 0 -6.0731-13.971zm-14.6855-8.8081a11.0364 11.0364 0 0 1 11.2851 9.2687 11.7242 11.7242 0 0 1 -1.9675 8.3213l-.0083.0147a22.2631 22.2631 0 0 0 -1.7754 3.976c-.0106.0233-.0156.048-.0244.0722a20.6924 20.6924 0 0 0 -.953 4.3138c0 .0106-.0073.02-.0034.0307a47.2544 47.2544 0 0 0 -.1215 4.8333 18.4443 18.4443 0 0 1 -2.1151 8.58q-.2672-8.45-1.0136-16.8773l2.8357-2.8357a1 1 0 0 0 -1.4141-1.414l-1.6743 1.6743c-.0964-.9591-.1886-1.9187-.2951-2.8763l3.3835-3.384a1 1 0 0 0 -1.4141-1.414l-2.2714 2.2718c-.118-.9416-.223-1.8855-.3463-2.8259l4.0318-4.0319a1 1 0 0 0 -1.4141-1.414l-2.9637 2.9638a20.9112 20.9112 0 0 0 -.4563-2.7449 1 1 0 0 0 -1.7457 0 20.9575 20.9575 0 0 0 -.4567 2.7446l-2.9635-2.9635a1 1 0 0 0 -1.414 1.4141l4.032 4.0319c-.1229.94-.2281 1.8841-.3465 2.8255l-2.2715-2.2715a1 1 0 0 0 -1.414 1.4141l3.3838 3.3837c-.1065.9577-.1988 1.9175-.2952 2.8767l-1.6746-1.6745a1 1 0 0 0 -1.414 1.4141l2.8358 2.8358q-.7608 8.42-1.0137 16.8771a18.4349 18.4349 0 0 1 -2.1151-8.58c-.0048-.5.0175-3.1218-.0248-3.5661a21.4787 21.4787 0 0 0 -3.336-10.512 11.0037 11.0037 0 0 1 8.9292-16.7526zm-8.5923 36.0483a19.2552 19.2552 0 0 0 -6.6232-10.0932 8.8919 8.8919 0 0 1 -2.8046-3.8726 9.0265 9.0265 0 0 1 5.4654-11.6152 12.9029 12.9029 0 0 0 1.4591 6.5234h-2.4728a1 1 0 0 0 0 2h3.6193a21.3685 21.3685 0 0 1 .939 2h-2.5583a1 1 0 0 0 0 2h3.2683a18.4584 18.4584 0 0 1 .4637 2h-1.732a1 1 0 0 0 0 2h1.9643c.0564.62.0309 3.1725.0357 3.84a20.6756 20.6756 0 0 0 3.8618 11.9926 15.1028 15.1028 0 0 1 -4.8857-6.775zm11.0239 15.9424a2 2 0 0 1 -4 0c.0049-1.616-.01-5.5017.0176-7.0657a273.3164 273.3164 0 0 1 1.9824-30.5149 275.5292 275.5292 0 0 1 1.959 28.3706c.0153.6985.0079 1.444.0234 2.1441.0253 1.5498.0165 5.4626.0176 7.0659zm16.4521-29.9087a8.894 8.894 0 0 1 -2.8046 3.8731 17.8283 17.8283 0 0 0 -5.7989 7.8129c-1.0706 3.4507-2.7684 6.87-5.7109 9.0552a20.6469 20.6469 0 0 0 3.8623-11.9925c.003-.737-.0233-3.1331.04-3.84h1.96a1 1 0 0 0 0-2h-1.7175a18.8937 18.8937 0 0 1 .4651-2h3.2524a1 1 0 0 0 0-2h-2.5428a21.818 21.818 0 0 1 .9307-2h3.6121a1 1 0 0 0 0-2h-2.471a12.9184 12.9184 0 0 0 1.4584-6.5229q.2564.0871.5068.19v.0005a9.0312 9.0312 0 0 1 4.9579 11.4237z"/></svg>