<svg id="Layer_1" height="512" viewBox="0 0 64 64" width="512" xmlns="http://www.w3.org/2000/svg" data-name="Layer 1"><path d="m60 24.89a6.0664 6.0664 0 0 1 -.19 1.54c-.69 2.58-3.28 3.42-7.16 3.54-1.01.04-2.12.03-3.3-.01-1.52-.06-3.16-.17-4.91-.3-.53-.04-1.09-.07-1.63-.11-.47-1.35-.87-2.72-1.22-4.1-2.98-.21-6.2-.38-9.59-.38h-.17c-1.92 0-3.87.05-5.82.15-1.23.07-2.43.14-3.6.22-.34 1.38-.75 2.75-1.21 4.1-1.87.13-3.65.26-5.28.35a33.3253 33.3253 0 0 1 -7.39-.18c-.17-.03-.33-.07-.49-.1-2.31-.53-3.75-1.7-3.99-3.96a4.4749 4.4749 0 0 1 -.05-.76c0-5.84 6.56-14.16 16.04-18.31a28.3445 28.3445 0 0 1 5.65-1.86 27.9329 27.9329 0 0 1 6.31-.72 28.8864 28.8864 0 0 1 8.89 1.42h.03a27.6489 27.6489 0 0 1 3.29 1.27h.02a33.0805 33.0805 0 0 1 9.88 6.86 26.0917 26.0917 0 0 1 3.54 4.44 13.5479 13.5479 0 0 1 2.35 6.9z" fill="#6d4d42"/><path d="m60 24.89a6.0664 6.0664 0 0 1 -.19 1.54c-.69 2.58-3.28 3.42-7.16 3.54-1.01.04-2.12.03-3.3-.01-1.52-.06-3.16-.17-4.91-.3-.53-.04-1.09-.07-1.63-.11-.47-1.35-.87-2.72-1.22-4.1-2.98-.21-6.2-.38-9.59-.38v-21.07a28.8864 28.8864 0 0 1 8.89 1.42h.03a27.6489 27.6489 0 0 1 3.29 1.27h.02a33.0805 33.0805 0 0 1 9.88 6.86 26.0917 26.0917 0 0 1 3.54 4.44 13.5479 13.5479 0 0 1 2.35 6.9z" fill="#5e4137"/><path d="m50 46.94c0 7.21-6.31 13.06-14.1 13.06h-7.8c-7.79 0-14.1-5.85-14.1-13.06a12.3279 12.3279 0 0 1 2.01-6.73 48.8537 48.8537 0 0 0 6.4-14.77c1.17-.08 2.37-.15 3.6-.22 1.95-.1 3.9-.15 5.82-.15h.17c3.39 0 6.61.17 9.59.38a48.9068 48.9068 0 0 0 6.4 14.76 12.3279 12.3279 0 0 1 2.01 6.73z" fill="#a1887f"/><path d="m50 46.94c0 7.21-6.31 13.06-14.1 13.06h-3.9v-34.93c3.39 0 6.61.17 9.59.38a48.9068 48.9068 0 0 0 6.4 14.76 12.3279 12.3279 0 0 1 2.01 6.73z" fill="#8d6e63"/><path d="m46 47.9355a1 1 0 0 1 -1-1 7.36 7.36 0 0 0 -1.2061-4.0039 53.7466 53.7466 0 0 1 -6.2465-13.375 1 1 0 1 1 1.9111-.59 51.737 51.737 0 0 0 6.0142 12.8779 9.3607 9.3607 0 0 1 1.5273 5.091 1 1 0 0 1 -1 1z" fill="#5e4137"/><path d="m28.0957 57c-6.1182 0-11.0957-4.5146-11.0957-10.0645a1 1 0 1 1 2 0c0 4.4463 4.08 8.0645 9.0957 8.0645a1 1 0 0 1 0 2z" fill="#6d4d42"/><path d="m49.4854 26.959c-.0123 0-.0245 0-.0372-.001-1.5068-.0547-3.1948-.1719-4.7944-.2871l-.1938-.0127c-3.7286-.2783-7.9488-.5928-12.46-.5928h-.1733c-1.8916 0-3.8306.0528-5.7627.1582-2.0518.1055-4.0284.2452-5.8941.377-1.6157.1142-3.06.2158-4.4145.29a.9847.9847 0 0 1 -1.0533-.9433 1 1 0 0 1 .9439-1.0528c1.3437-.0742 2.7783-.1757 4.2871-.2822 1.9741-.14 3.9629-.2793 6.0249-.3867 1.9658-.1065 3.9409-.16 5.8687-.16h.1733c4.5854 0 8.8452.3174 12.6035.5977l.1914.0127c1.5845.1142 3.2525.23 4.7266.2842a1 1 0 0 1 -.0361 1.999z" fill="#4e342e"/><path d="m39.4585 28.9668a1 1 0 0 0 -1.9111.59 53.7476 53.7476 0 0 0 6.2465 13.3749 7.36 7.36 0 0 1 1.2061 4.0038 1 1 0 0 0 2 0 9.3607 9.3607 0 0 0 -1.5273-5.0908 51.737 51.737 0 0 1 -6.0142-12.8779z"/><path d="m28.0957 55c-5.0157 0-9.0957-3.6182-9.0957-8.0645a1 1 0 0 0 -2 0c0 5.5499 4.9775 10.0645 11.0957 10.0645a1 1 0 0 0 0-2z"/><path d="m54.82 12.8516a33.9086 33.9086 0 0 0 -10.268-7.1094 27.5291 27.5291 0 0 0 -3.4373-1.3022 29.4823 29.4823 0 0 0 -15.6284-.6953c-10.8398 2.0729-23.4027 13.1813-22.4272 22.0141.27 2.5391 1.8706 4.1621 4.8066 4.834.1492.0288.3459.074.4859.0967 3.382.6012 7.6673.1872 11.3838-.0486a47.7023 47.7023 0 0 1 -4.566 9.029 13.353 13.353 0 0 0 -2.1694 7.2656c0 7.7545 6.772 14.0645 15.0957 14.0645h7.8086c8.3237 0 15.0957-6.31 15.0957-14.0645a13.3472 13.3472 0 0 0 -2.1694-7.2646 47.7271 47.7271 0 0 1 -4.5613-9.017c5.0012.0965 14.7321 2.0582 16.512-3.9671 1.0909-4.8429-2.3681-10.1468-5.9613-13.8352zm-5.82 34.0839c0 6.6524-5.8745 12.0645-13.0957 12.0645h-7.8086c-7.2212 0-13.0957-5.4121-13.0957-12.0645a11.3619 11.3619 0 0 1 1.8481-6.1787 49.6764 49.6764 0 0 0 5.2919-10.8914c.3864-1.1393.7526-2.3145 1.0563-3.4718a119.6981 119.6981 0 0 1 17.6084.0064 49.6685 49.6685 0 0 0 6.3472 14.3577 11.3562 11.3562 0 0 1 1.8481 6.1778zm9.8477-20.7617c-1.1569 4.2833-11.1813 2.5127-15.3025 2.4221-.214-.6828-.4412-1.36-.62-2.0494 2.1452.1529 4.4462.3344 6.5225.4115a1 1 0 0 0 .0732-1.998c-2.53-.0974-5.2445-.3313-7.8575-.51h-.0018a125.8681 125.8681 0 0 0 -19.3273-.0025c-2.1916.1449-4.605.3324-6.6888.4478a1 1 0 0 0 -.9439 1.0528.9847.9847 0 0 0 1.0533.9433c1.5824-.0854 3.5185-.2288 5.3209-.3525-.1781.6875-.4048 1.3648-.6183 2.047-3.5926.2674-9.2279.688-11.7637.1337-.1338-.0227-.2983-.06-.4306-.085-2.0747-.4766-3.0366-1.3994-3.2246-3.1475-.8906-6.8839 10.4261-17.9288 20.8814-19.7898a27.5046 27.5046 0 0 1 14.7788.7021 29.6813 29.6813 0 0 1 3.1924 1.2344 30.3251 30.3251 0 0 1 12.9125 10.8887l.002.0029c1.6527 2.7958 2.5468 5.1033 2.042 7.6484z"/></svg>