<svg id="Layer_1" height="512" viewBox="0 0 64 64" width="512" xmlns="http://www.w3.org/2000/svg" data-name="Layer 1"><path d="m44.91 27.94-2 22.1a10.9553 10.9553 0 0 1 -21.82 0l-2-22.1a10.9417 10.9417 0 0 1 10.9-11.94h4.02a10.9417 10.9417 0 0 1 10.9 11.94z" fill="#e53a35"/><path d="m44.91 27.94-2 22.1a10.9636 10.9636 0 0 1 -10.91 9.96v-44h2.01a10.9417 10.9417 0 0 1 10.9 11.94z" fill="#d32e2e"/><path d="m40.9321 28.58c-.03 0-.06-.0015-.0913-.0039a1 1 0 0 1 -.9057-1.0864 5.95 5.95 0 0 0 -5.9258-6.4897 1 1 0 0 1 0-2 7.95 7.95 0 0 1 7.9179 8.67 1 1 0 0 1 -.9951.91z" fill="#ef5451"/><path d="m32 57a7.9123 7.9123 0 0 1 -7.918-7.231 1 1 0 0 1 1.9922-.1806 5.9216 5.9216 0 0 0 5.9258 5.4116 1 1 0 0 1 0 2z" fill="#e57373"/><path d="m51.729 31.9263a9.4871 9.4871 0 0 0 .2543-2.7138c-.3482-5.0998-4.328-9.2125-9.2733-9.2125h-.257a10.8856 10.8856 0 0 1 2.4614 7.9417l-2.009 22.0994a10.9434 10.9434 0 0 1 -6.1411 8.8622 8.7452 8.7452 0 0 0 7.2974.5449c4.2177-1.5728 6.5632-6.4182 5.7473-11.12l-.4047-2.3325a10.6821 10.6821 0 0 1 .1012-4.16z" fill="#d32e2e"/><path d="m27.24 58.9a8.8059 8.8059 0 0 1 -4.24 1.1 8.37 8.37 0 0 1 -1.67-.16 8.1767 8.1767 0 0 1 -1.39-.39c-4.22-1.57-6.56-6.42-5.75-11.12l.41-2.33a10.7845 10.7845 0 0 0 -.11-4.16l-2.22-9.91a9.238 9.238 0 0 1 -.25-2.72 10.0565 10.0565 0 0 1 4.4-7.74 8.8107 8.8107 0 0 1 4.87-1.47h.26a10.8635 10.8635 0 0 0 -2.46 7.94l2 22.1a10.9462 10.9462 0 0 0 6.15 8.86z" fill="#e53a35"/><path d="m27.24 58.9a8.8059 8.8059 0 0 1 -4.24 1.1 8.37 8.37 0 0 1 -1.67-.16 11.9492 11.9492 0 0 1 -3.95-11.26l.46-2.68a12.2587 12.2587 0 0 0 -.11-4.79l-2.56-11.39a11.0145 11.0145 0 0 1 -.29-3.13 11.92 11.92 0 0 1 1.54-5.12 8.8107 8.8107 0 0 1 4.87-1.47h.26a10.8635 10.8635 0 0 0 -2.46 7.94l2 22.1a10.9462 10.9462 0 0 0 6.15 8.86z" fill="#d32e2e"/><path d="m36.76 58.9a8.8059 8.8059 0 0 0 4.24 1.1 8.37 8.37 0 0 0 1.67-.16 11.9492 11.9492 0 0 0 3.95-11.26l-.46-2.68a12.2587 12.2587 0 0 1 .11-4.79l2.56-11.39a11.0145 11.0145 0 0 0 .29-3.13 11.92 11.92 0 0 0 -1.54-5.12 8.8107 8.8107 0 0 0 -4.87-1.47h-.26a10.8635 10.8635 0 0 1 2.46 7.94l-2 22.1a10.9462 10.9462 0 0 1 -6.15 8.86z" fill="#e53a35"/><path d="m37.98 16.76a10.87 10.87 0 0 0 -3.97-.76h-4.02a10.87 10.87 0 0 0 -3.97.76 5.977 5.977 0 0 1 3.98-5.41v-7.35h7l-1.79 2.99a8.4492 8.4492 0 0 0 -1.21 4.36 5.9914 5.9914 0 0 1 3.98 5.41z" fill="#317e3d"/><path d="m37.98 16.76a10.87 10.87 0 0 0 -3.97-.76h-2.01v-5.62a16.9272 16.9272 0 0 1 1.44-6.38h3.56l-1.79 2.99a8.4492 8.4492 0 0 0 -1.21 4.36 5.9914 5.9914 0 0 1 3.98 5.41z" fill="#1e5f30"/><path d="m34.0093 19a1 1 0 0 0 0 2 5.9758 5.9758 0 0 1 5.9257 6.4893 1 1 0 0 0 1.9922.1806 7.9855 7.9855 0 0 0 -7.9179-8.6699z"/><path d="m32 55a5.9216 5.9216 0 0 1 -5.9258-5.4116 1 1 0 0 0 -1.9922.1807 7.9123 7.9123 0 0 0 7.918 7.2309 1 1 0 0 0 0-2z"/><path d="m37.8574 4.5146a1.0069 1.0069 0 0 0 -.8574-1.5146h-7a1 1 0 0 0 -1 1v6.6807a6.9348 6.9348 0 0 0 -3.9076 5.3765 11.7224 11.7224 0 0 0 -4.0243 2.9543 10.626 10.626 0 0 0 -10.0491 10.133c-.2934 1.9664 2.1474 10.8114 2.5 12.91a9.6269 9.6269 0 0 1 .0915 3.7705l-.4048 2.3325c-1.55 8.3591 6.3515 15.6084 14.0233 11.8519a12.0942 12.0942 0 0 0 9.5423 0c7.6757 3.7533 15.5712-3.4893 14.0231-11.852l-.4044-2.3322a9.6288 9.6288 0 0 1 .0914-3.7705c.357-2.1344 2.7854-10.8838 2.5-12.91a10.6262 10.6262 0 0 0 -10.0495-10.1332 11.7239 11.7239 0 0 0 -4.0273-2.9559 6.9371 6.9371 0 0 0 -3.8758-5.3613c.0429-2.0586 1.8412-4.4588 2.8286-6.1797zm-17.5693 53.9966c-3.6675-1.3676-5.8652-5.6712-5.1118-10.0112l.4048-2.3325a11.6161 11.6161 0 0 0 -.1109-4.55c-.2857-1.7547-2.6977-10.7254-2.4562-12.3369a8.7979 8.7979 0 0 1 6.5065-8.0733 12.038 12.038 0 0 0 -1.4311 6.8252l2.0092 22.0991a11.9943 11.9943 0 0 0 4.8876 8.607 7.7844 7.7844 0 0 1 -4.6981-.2274zm24.1919-37.3042a8.7985 8.7985 0 0 1 6.5058 8.073c.2524 1.5417-2.18 10.6374-2.4559 12.3369a11.6142 11.6142 0 0 0 -.111 4.55l.4048 2.3331c1.1555 6.1246-3.9077 11.8725-9.81 10.2388a11.9932 11.9932 0 0 0 4.8875-8.607l2.0093-22.0991a12.0352 12.0352 0 0 0 -1.4305-6.8257zm-2.8-.5733.0013.002a10.0041 10.0041 0 0 1 2.2372 7.2159l-2.0093 22.0991a9.95 9.95 0 0 1 -19.8184 0l-2.0093-22.0991a10.0061 10.0061 0 0 1 2.2373-7.2159l.0013-.002a9.989 9.989 0 0 1 7.6711-3.6337c.741.0157 4.3145-.0445 4.9853.0509a9.9646 9.9646 0 0 1 6.7035 3.5828zm-7.3289-14.162a9.482 9.482 0 0 0 -1.3511 4.8769 1.0006 1.0006 0 0 0 .666.9429 4.9542 4.9542 0 0 1 3.0269 3.02c-1.68-.46-4.9466-.2809-6.7017-.3115a12.6889 12.6889 0 0 0 -2.687.3125 4.9555 4.9555 0 0 1 3.03-3.021 1.0006 1.0006 0 0 0 .6658-.9429v-6.3486h4.2339z"/></svg>