<svg id="Layer_1" height="512" viewBox="0 0 64 64" width="512" xmlns="http://www.w3.org/2000/svg" data-name="Layer 1"><path d="m18.5986 55.33c-4.8213-1.5684-4.0976-7.0108-4.0634-7.25.0035-.024-.0055-.0459-.0036-.07a.994.994 0 0 0 -.0153-.2939 1.6214 1.6214 0 0 0 -.3542-.5681c-.0143-.0112-.032-.0142-.0468-.0246a.9745.9745 0 0 0 -.1642-.0863.9849.9849 0 0 0 -.1824-.0662c-.0263-.0062-.0472-.0229-.0744-.027-.0322-.0041-.0612.007-.093.0058a.9743.9743 0 0 0 -.2249.0138.987.987 0 0 0 -.137.0312 1.36 1.36 0 0 0 -.33.18c-.0173.0145-.0388.0207-.0553.0364a8.7356 8.7356 0 0 1 -8.5449 1.61 1 1 0 1 0 -.6192 1.9035 10.7681 10.7681 0 0 0 7.4473-.1767c-2.3809 5.7148-1.4863 9.5087-1.44 9.6943a.9975.9975 0 0 0 .9677.7558 1.0026 1.0026 0 0 0 .9746-1.2343c-.0088-.0379-.709-3.1932 1.1857-8.0318a7.6194 7.6194 0 0 0 5.1542 5.5 1 1 0 1 0 .6191-1.9023z" fill="#d81b61"/><path d="m59.21 25.56a18.2912 18.2912 0 0 1 -.1 7.9 17.1008 17.1008 0 0 1 -.61 2.2 23.5928 23.5928 0 0 1 -2.81 5.64c-.37.56-.77 1.11-1.19 1.63a25.5034 25.5034 0 0 1 -5.22 5.01c-.56.4-1.13.78-1.71 1.12a20.4413 20.4413 0 0 1 -4.63 2.06 15.8187 15.8187 0 0 1 -2.32.52 13.7538 13.7538 0 0 1 -5.12-.13c-11.82-2.61-14.96-5.68-21.95-3.58a55.6653 55.6653 0 0 1 1.56-6.75c3.25-11.25 12.54-32.96 36.31-36.64a47.23 47.23 0 0 1 8.58-.52s-4.35 4.71-.79 21.54z" fill="#ec417a"/><path d="m29 45.01c-6.62-1.46-10.52-3.07-13.89-3.83a71.1355 71.1355 0 0 1 2.32-6.75q.39-.975.84-1.98a59.9214 59.9214 0 0 1 5.65-10.19c.38-.55.77-1.09 1.19-1.63a44.6224 44.6224 0 0 1 7.87-8.12c.52-.41 1.06-.81 1.61-1.21a38.9166 38.9166 0 0 1 6.67-3.8c.65-.29 1.32-.57 2.01-.82a39.5379 39.5379 0 0 1 8.15-2.14 50.4415 50.4415 0 0 0 1.29 14.52c2.97 14.06-11.89 28.56-23.71 25.95z" fill="#f06392"/><path d="m25.2 40.7a.9759.9759 0 0 1 -.71.3 1.001 1.001 0 0 1 -.7-.29l-6.36-6.28q.39-.975.84-1.98l6.92 6.84a.987.987 0 0 1 .01 1.41z" fill="#d81b61"/><path d="m33.63 30.56a.96.96 0 0 1 -.7.29.982.982 0 0 1 -.71-.29l-8.3-8.3c.38-.55.77-1.09 1.19-1.63l8.52 8.52a.9959.9959 0 0 1 0 1.41z" fill="#d81b61"/><path d="m37.33 15.47a1.0243 1.0243 0 0 1 -.71.29.97.97 0 0 1 -.7-.3l-2.94-2.95c.52-.41 1.06-.81 1.61-1.21l2.74 2.75a1.008 1.008 0 0 1 0 1.42z" fill="#d81b61"/><path d="m48.95 13.7a1.0243 1.0243 0 0 1 -.71.29.974.974 0 0 1 -.7-.28l-6.28-6.21c.65-.29 1.32-.57 2.01-.82l5.67 5.6a1.008 1.008 0 0 1 .01 1.42z" fill="#d81b61"/><path d="m59.11 33.46a17.1008 17.1008 0 0 1 -.61 2.2l-11.77-11.59a.9961.9961 0 0 1 -.02-1.41 1.0081 1.0081 0 0 1 1.42-.02z" fill="#c21e5c"/><path d="m55.69 41.3c-.37.56-.77 1.11-1.19 1.63l-6.63-6.59a.997.997 0 0 1 1.41-1.41z" fill="#c21e5c"/><path d="m49.28 47.94c-.56.4-1.13.78-1.71 1.12l-4.35-4.35a.997.997 0 1 1 1.41-1.41z" fill="#c21e5c"/><path d="m42.94 51.12a15.8187 15.8187 0 0 1 -2.32.52l-4.18-4.14a.9959.9959 0 0 1 -.01-1.41 1.008 1.008 0 0 1 1.42-.01z" fill="#c21e5c"/><g fill="#d81b61"><path d="m44.6533 32.8076a.9971.9971 0 0 1 -.6982-.2842l-2.9424-2.872a1 1 0 0 1 1.3965-1.4314l2.9424 2.8721a1 1 0 0 1 -.6983 1.7158z"/><circle cx="28" cy="36" r="1"/><circle cx="35" cy="38" r="1"/><circle cx="37" cy="23" r="1"/><circle cx="51" cy="17" r="1"/><circle cx="49" cy="31" r="1"/><circle cx="29" cy="45" r="1"/></g><path d="m3.69 50.7246a10.7681 10.7681 0 0 0 7.4473-.1767c-2.3809 5.7148-1.4863 9.5087-1.44 9.6943a1 1 0 0 0 1.9423-.4786c-.0088-.0378-.709-3.1931 1.1857-8.0317a7.6194 7.6194 0 0 0 5.1542 5.5 1 1 0 1 0 .6191-1.9023c-3.8988-1.2683-4.1711-5.0679-4.1147-6.6027 8.7389-2.4008 17.9517 5.9871 27.634 3.6293a.9591.9591 0 0 0 .1564-.0408c11.1357-2.5 20.62-16.166 17.9129-26.9635-3.3679-15.9071.5179-20.62.5472-20.6542a1.007 1.007 0 0 0 -.7071-1.6777c-38.4428-1.0306-46.648 40.0178-47.41 44.3956a8.7713 8.7713 0 0 1 -8.3073 1.4067 1 1 0 0 0 -.62 1.9023zm14.5324-15.4246 5.5588 5.4252a1 1 0 0 0 1.3965-1.4317l-6.1272-5.98a59.82 59.82 0 0 1 5.6584-10.2765l7.6173 7.4347a1 1 0 0 0 1.3965-1.4317l-7.8272-7.6395a44.0214 44.0214 0 0 1 7.868-8.12l2.2043 2.1509a1 1 0 1 0 1.3964-1.4314l-1.9734-1.9257a37.54 37.54 0 0 1 6.6235-3.7575l5.5257 5.3932a1 1 0 0 0 1.3965-1.4317l-4.89-4.7724a41.4138 41.4138 0 0 1 14.24-2.5039c-1.1543 2.625-2.6074 8.7138-.0566 20.7646a17.5952 17.5952 0 0 1 .0576 6.794l-10.1625-9.919a1 1 0 0 0 -1.3964 1.4317l11.01 10.7458a22.2066 22.2066 0 0 1 -2.7144 5.7128l-5.75-5.612a1 1 0 0 0 -1.3965 1.4317l5.9633 5.82a24.9885 24.9885 0 0 1 -5.291 5.0575l-3.9828-3.8874a1 1 0 0 0 -1.3965 1.4317l3.6533 3.5658a19.2832 19.2832 0 0 1 -4.6674 1.9466l-4.314-4.21a1 1 0 0 0 -1.3965 1.4317l3.3083 3.2283c-9.0783.4549-16.6285-5.98-24.9411-4.163a69.0561 69.0561 0 0 1 3.4091-11.2728z"/><path d="m43.9551 32.5234a1 1 0 0 0 1.3964-1.4316l-2.9423-2.8718a1 1 0 0 0 -1.3965 1.4317z"/><path d="m28 37a1 1 0 0 0 0-2 1 1 0 0 0 0 2z"/><path d="m35 39a1 1 0 0 0 0-2 1 1 0 0 0 0 2z"/><path d="m37 24a1 1 0 0 0 0-2 1 1 0 0 0 0 2z"/><path d="m51 18a1 1 0 0 0 0-2 1 1 0 0 0 0 2z"/><path d="m49 32a1 1 0 0 0 0-2 1 1 0 0 0 0 2z"/><path d="m28 45a1 1 0 0 0 2 0 1 1 0 0 0 -2 0z"/></svg>