<svg height="512pt" viewBox="0 -32 512.001 512" width="512pt" xmlns="http://www.w3.org/2000/svg"><path d="m7.5 183.859375c0 80.457031 68.191406 176.355469 152.308594 176.355469v-352.710938c-84.117188 0-152.308594 95.894532-152.308594 176.355469zm0 0" fill="#a06e50"/><path d="m47.582031 183.859375c0 80.457031 50.246094 176.355469 112.226563 176.355469v-352.710938c-61.980469 0-112.226563 95.894532-112.226563 176.355469zm0 0" fill="#b67f5f"/><path d="m312.113281 183.859375c0 80.457031-68.191406 176.355469-152.308593 176.355469v-352.710938c84.117187 0 152.308593 95.894532 152.308593 176.355469zm0 0" fill="#c48d66"/><path d="m272.03125 183.859375c0 80.457031-50.246094 176.355469-112.226562 176.355469v-352.710938c61.980468 0 112.226562 95.894532 112.226562 176.355469zm0 0" fill="#d29b6e"/><path d="m159.804688 7.5c30.992187 0 56.117187 95.894531 56.117187 176.351562 0 80.460938-25.125 176.355469-56.117187 176.355469-30.992188 0-56.113282-95.894531-56.113282-176.355469 0-80.457031 25.121094-176.351562 56.113282-176.351562zm0 0" fill="#c48d66"/><path d="m504.5 288.066406c0 84.117188-68.191406 152.304688-152.304688 152.304688-84.117187 0-152.308593-68.1875-152.308593-152.304688 0-84.117187 68.191406-152.304687 152.308593-152.304687 84.113282 0 152.304688 68.1875 152.304688 152.304687zm0 0" fill="#b67f5f"/><path d="m392.273438 400.292969c-84.117188 0-152.304688-68.191407-152.304688-152.304688 0-31.816406 9.78125-61.332031 26.464844-85.765625-40.164063 27.425782-66.546875 73.542969-66.546875 125.84375 0 84.117188 68.191406 152.308594 152.304687 152.308594 52.304688 0 98.421875-26.382812 125.84375-66.546875-24.429687 16.683594-53.945312 26.464844-85.761718 26.464844zm0 0" fill="#a06e50"/><path d="m472.4375 288.066406c0 66.40625-53.835938 120.242188-120.242188 120.242188-66.410156 0-120.242187-53.835938-120.242187-120.242188s53.832031-120.242187 120.242187-120.242187c66.40625 0 120.242188 53.835937 120.242188 120.242187zm0 0" fill="#fff6d8"/><path d="m424.339844 304.097656c-2.402344 37.660156-36.972656 58.503906-76.738282 55.96875-39.761718-2.535156-69.953124-50.371094-67.554687-88.03125 2.402344-37.660156 36.488281-50.882812 76.25-48.347656 39.765625 2.535156 70.441406 42.75 68.042969 80.410156zm0 0" fill="#faebc8"/><path d="m356.296875 223.6875c-31.769531-2.027344-59.859375 6.050781-71.117187 28.570312 13.6875-7.304687 31.738281-9.867187 51.175781-8.628906 39.765625 2.535156 70.441406 42.753906 68.039062 80.414063-.597656 9.402343-3.203125 17.753906-7.394531 24.960937 15.535156-9.519531 26.054688-24.78125 27.339844-44.90625 2.398437-37.660156-28.277344-77.875-68.042969-80.410156zm0 0" fill="#f5dcb4"/><path d="m352.191406 128.257812c-13.941406 0-27.472656 1.800782-40.375 5.171876-10.4375-34.738282-30.261718-67.207032-55.949218-91.574219-28.871094-27.382813-62.085938-41.855469-96.0625-41.855469-41.460938 0-81.777344 21.585938-113.523438 60.785156-28.980469 35.78125-46.28125 81.789063-46.28125 123.070313 0 41.277343 17.300781 87.285156 46.28125 123.070312 31.746094 39.195313 72.0625 60.785157 113.523438 60.785157 16.234374 0 32.453124-3.355469 48.199218-9.964844.109375-.046875.210938-.105469.316406-.15625 25.90625 53.386718 80.660157 90.28125 143.875 90.28125 88.117188 0 159.804688-71.691406 159.804688-159.808594 0-88.113281-71.6875-159.804688-159.808594-159.804688zm-149.757812 215.570313c-.082032.03125-.160156.050781-.238282.085937-13.898437 5.835938-28.160156 8.796876-42.386718 8.796876-31.871094 0-64.703125-30.5-85.726563-79.613282-1.605469-3.753906-5.910156-5.773437-9.714843-4.296875-3.96875 1.546875-5.84375 6.050781-4.1875 9.9375 7.964843 18.664063 17.777343 35.261719 28.8125 48.886719-11-8.179688-21.4375-18.265625-31.054688-30.140625-26.886719-33.195313-42.9375-75.675781-42.9375-113.628906 0-37.957031 16.050781-80.433594 42.9375-113.628907 9.625-11.882812 20.066406-21.972656 31.074219-30.15625-18.152344 22.410157-32.769531 52.644532-41.199219 85.34375-1.035156 4.007813 1.378906 8.097657 5.390625 9.132813.628906.164063 1.257813.242187 1.878906.242187 3.339844 0 6.382813-2.25 7.257813-5.628906 8.023437-31.117187 21.898437-59.734375 39.074218-80.585937 12.613282-15.316407 32.984376-33.574219 58.394532-33.574219 16.257812 0 32.289062 7.398438 47.65625 21.992188 14.511718 13.785156 27.496094 33.292968 37.554687 56.429687 1.625 3.746094 5.945313 5.746094 9.742188 4.246094 3.957031-1.566407 5.808593-6.082031 4.128906-9.960938-7.953125-18.351562-17.390625-34.21875-27.851563-47.226562 5.429688 4.066406 10.28125 8.25 14.507813 12.257812 23.859375 22.632813 42.257813 52.835938 51.945313 85.167969-29.917969 10.933594-55.671876 30.566406-74.203126 55.820312.082032-3.324218.132813-6.628906.132813-9.871093 0-28.847657-3.226563-60.628907-9.078125-89.480469-.824219-4.058594-4.78125-6.683594-8.839844-5.859375-4.0625.824219-6.683594 4.78125-5.859375 8.84375 5.660157 27.898437 8.777344 58.617187 8.777344 86.496094 0 4.277343-.304687 15.40625-1.136719 26.757812-.546875 7.480469-2.269531 14.8125-4.890625 21.839844-6.460937 17.328125-10.003906 36.058594-10.003906 55.613281-.003906 19.601563 3.554687 38.390625 10.042969 55.761719zm149.757812 89.042969c-79.84375 0-144.804687-64.960938-144.804687-144.804688 0-79.847656 64.960937-144.808594 144.804687-144.808594 79.847656 0 144.808594 64.960938 144.808594 144.808594 0 79.84375-64.960938 144.804688-144.808594 144.804688zm0 0"/><path d="m49.671875 153.605469c-4.109375-.453125-7.820313 2.523437-8.269531 6.640625-.878906 8-1.324219 15.945312-1.324219 23.609375 0 4.140625 3.359375 7.5 7.5 7.5 4.144531 0 7.5-3.359375 7.5-7.5 0-7.121094.417969-14.515625 1.234375-21.980469.449219-4.113281-2.523438-7.820312-6.640625-8.269531zm0 0"/><path d="m106.40625 232.300781c4.121094-.394531 7.148438-4.054687 6.753906-8.175781-1.304687-13.757812-1.96875-27.308594-1.96875-40.269531 0-10.617188.449219-21.691407 1.332032-32.917969.324218-4.128906-2.757813-7.742188-6.886719-8.066406-4.128907-.320313-7.742188 2.757812-8.066407 6.890625-.914062 11.617187-1.378906 23.085937-1.378906 34.09375 0 13.433593.6875 27.457031 2.039063 41.6875.367187 3.882812 3.632812 6.792969 7.457031 6.792969.238281-.003907.476562-.011719.71875-.035157zm0 0"/><path d="m118.71875 263.921875c-.757812-4.074219-4.675781-6.757813-8.746094-6-4.070312.757813-6.757812 4.671875-6 8.746094 1.875 10.054687 4.046875 19.742187 6.460938 28.792969.894531 3.355468 3.925781 5.570312 7.242187 5.570312.640625 0 1.289063-.082031 1.9375-.253906 4-1.066406 6.382813-5.179688 5.3125-9.179688-2.3125-8.6875-4.402343-18-6.207031-27.675781zm0 0"/><path d="m272.472656 208.34375c39.734375-39.734375 103.367188-43.964844 148.011719-9.839844 3.292969 2.519532 8 1.886719 10.511719-1.402344 2.515625-3.292968 1.886718-8-1.402344-10.515624-24.378906-18.632813-54.730469-27.84375-85.464844-25.953126-31.035156 1.914063-60.25 15.089844-82.261718 37.105469-22.011719 22.011719-35.191407 51.226563-37.105469 82.261719-1.894531 30.734375 7.320312 61.085938 25.957031 85.464844 1.476562 1.929687 3.707031 2.945312 5.960938 2.945312 1.589843 0 3.191406-.503906 4.550781-1.542968 3.289062-2.515626 3.917969-7.222657 1.40625-10.511719-34.125-44.648438-29.898438-108.277344 9.835937-148.011719zm0 0"/><path d="m453.671875 210.664062c-2.519531-3.289062-7.222656-3.917968-10.515625-1.402343s-3.917969 7.222656-1.402344 10.511719c34.125 44.648437 29.894532 108.277343-9.839844 148.011718-39.734374 39.730469-103.363281 43.960938-148.011718 9.835938-3.289063-2.511719-7.996094-1.882813-10.511719 1.40625-2.515625 3.289062-1.886719 7.996094 1.40625 10.511718 22.28125 17.035157 49.558594 26.199219 77.554687 26.199219 2.632813 0 5.269532-.082031 7.90625-.242187 31.039063-1.917969 60.25-15.09375 82.261719-37.105469s35.191407-51.226563 37.105469-82.261719c1.894531-30.734375-7.320312-61.085937-25.953125-85.464844zm0 0"/><path d="m356.773438 216.203125c-50.304688-3.203125-81.796876 17.484375-84.210938 55.351563-2.625 41.160156 30.050781 93.15625 74.5625 95.992187 2.324219.148437 4.628906.222656 6.917969.222656 18.945312 0 36.5625-5.035156 50.199219-14.441406 16.507812-11.394531 26.304687-28.707031 27.582031-48.753906 1.289062-20.222657-5.960938-41.582031-19.890625-58.605469-14.40625-17.601562-34.507813-28.453125-55.160156-29.765625zm60.082031 87.417969c-1.632813 25.585937-23.851563 51.820312-68.777344 48.957031-35.210937-2.246094-62.722656-45.902344-60.546875-80.070313 2.296875-35.980468 37.886719-41.605468 59.894531-41.605468 3.113281 0 5.957031.113281 8.394531.269531 16.75 1.066406 32.554688 9.695313 44.503907 24.296875 11.554687 14.121094 17.582031 31.667969 16.53125 48.152344zm0 0"/></svg>