<svg id="Layer_1" height="512" viewBox="0 0 64 64" width="512" xmlns="http://www.w3.org/2000/svg" data-name="Layer 1"><path d="m35.28 43.02c-16.98 16.98-31.28 16.98-31.28 16.98s0-6.7 5.44-16.38c.33-.58.68-1.18 1.05-1.78a69.1759 69.1759 0 0 1 8.05-10.58c.45-.48.9-.96 1.37-1.45.35-.36.7-.72 1.07-1.09 9.38-9.38 13.03-6.63 16.98-2.68s6.7 7.6-2.68 16.98z" fill="#edeff0"/><path d="m39.26 38.44q-.54.75-1.23 1.59c-.77.92-1.68 1.92-2.75 2.99a76.698 76.698 0 0 1 -6.81 6.07c-.54.43-1.07.84-1.6 1.23-13.04 9.68-22.87 9.68-22.87 9.68l33.96-33.96c3.23 3.23 5.66 6.26 1.3 12.4z" fill="#cfd8dc"/><path d="m39.26 38.44q-.54.75-1.23 1.59l-4.35-4.35a.997.997 0 0 1 1.41-1.41z" fill="#90a4ae"/><path d="m24.37 35.68a.982.982 0 0 1 -.71.29.96.96 0 0 1 -.7-.29l-4.42-4.42c.45-.48.9-.96 1.37-1.45l4.46 4.46a.9959.9959 0 0 1 0 1.41z" fill="#b0bec5"/><path d="m28.47 49.09c-.54.43-1.07.84-1.6 1.23l-3.91-3.91a1.0006 1.0006 0 0 1 1.41-1.42z" fill="#90a4ae"/><path d="m13.64 46.41a1.001 1.001 0 0 1 -.7.29 1.0243 1.0243 0 0 1 -.71-.29l-2.79-2.79c.33-.58.68-1.18 1.05-1.78l3.15 3.15a.99.99 0 0 1 0 1.42z" fill="#b0bec5"/><path d="m54.05 20.67a7.5413 7.5413 0 0 1 -3.5 1.99 7.5779 7.5779 0 1 1 -9.28 11.98c1.18-3.75-.82-6.12-3.31-8.6-2.48-2.49-4.85-4.49-8.6-3.31a7.579 7.579 0 1 1 11.98-9.28 7.5808 7.5808 0 1 1 12.71 7.22z" fill="#81c785"/><path d="m54.05 20.67a7.5413 7.5413 0 0 1 -3.5 1.99 7.5779 7.5779 0 1 1 -9.28 11.98c1.18-3.75-.82-6.12-3.31-8.6l16.09-16.09a7.5806 7.5806 0 0 1 0 10.72z" fill="#66bb6a"/><path d="m47.7939 31.5059a1 1 0 0 1 -.707-1.7071 1.53 1.53 0 0 0 0-2.1606 1 1 0 1 1 1.4141-1.4141 3.5315 3.5315 0 0 1 0 4.9888.9969.9969 0 0 1 -.7071.293z" fill="#a5d5a7"/><path d="m37.0688 17.2061a.9969.9969 0 0 1 -.707-.293 1.53 1.53 0 0 0 -2.1606 0 1 1 0 0 1 -1.4141-1.4141 3.53 3.53 0 0 1 4.9888 0 1 1 0 0 1 -.7071 1.7071z" fill="#c8e5c9"/><path d="m50.4756 14.5244a.9963.9963 0 0 1 -.707-.293 1.53 1.53 0 0 0 -2.1612 0 1 1 0 0 1 -1.414-1.414 3.531 3.531 0 0 1 4.9892 0 1 1 0 0 1 -.707 1.707z" fill="#c8e5c9"/><path d="m54.05 20.6747a7.5367 7.5367 0 0 1 -3.5 1.9815 7.4346 7.4346 0 0 1 3.016 5.5406 5.0374 5.0374 0 1 0 2.0583-9.8316 7.5493 7.5493 0 0 1 -1.5743 2.3095z" fill="#42a047"/><path d="m35.8032 10.4345a7.4334 7.4334 0 0 1 5.5405 3.016 7.52 7.52 0 0 1 4.2911-5.0743 5.0368 5.0368 0 1 0 -9.8316 2.0583z" fill="#66bb6a"/><path d="m4 61c.6006 0 14.9106-.1963 31.9883-17.2744a40.423 40.423 0 0 0 3.3561-3.7567 19.2223 19.2223 0 0 0 2.3818-3.8163c5.2318 3.2352 12.5564-.67 12.827-6.7894 6.9539.4817 8.9773-9.3961 2.387-11.697 1.963-6.2685-4.3394-12.5691-10.6064-10.6062-2.3183-6.5892-12.145-4.5783-11.6985 2.3873-6.13.2667-10.01 7.6154-6.7857 12.8245-2.4041.923-6.63 4.5455-9.327 7.5479-14.8882 15.7413-17.1321 31.8136-14.5226 31.1803zm53.812-40.5122a4.0571 4.0571 0 0 1 -3.3332 6.875 8.791 8.791 0 0 0 -2.0437-4.333 8.5739 8.5739 0 0 0 3.7387-3.5235 3.94 3.94 0 0 1 1.6382.9815zm-20.0361-14.2998a4.0625 4.0625 0 0 1 6.7178 1.6382 8.5739 8.5739 0 0 0 -3.5237 3.7387 8.7915 8.7915 0 0 0 -4.333-2.0432 4.0341 4.0341 0 0 1 1.1389-3.3337zm-7.15 7.15a6.6093 6.6093 0 0 1 9.9179.7134 1.0482 1.0482 0 0 0 .9971.38 1.0011 1.0011 0 0 0 .7725-.7359 6.5651 6.5651 0 0 1 3.745-4.4178c5.36-2.4344 11.0977 3.3057 8.664 8.6638a6.5651 6.5651 0 0 1 -4.4178 3.7452 1.0011 1.0011 0 0 0 -.7359.7725c-.201.7671.6924 1.1754 1.0933 1.604 5.4311 5.66-1.5726 14.35-8.2475 10.1719.8955-3.8523-1.2545-6.4151-3.7445-8.9051s-5.0537-4.6421-8.9048-3.7447a6.5688 6.5688 0 0 1 .8608-8.2474zm-20.4271 31.0371 2.0317 2.0316a1 1 0 0 0 1.414-1.4141l-2.41-2.41a66.9771 66.9771 0 0 1 8.0133-10.6088l3.7074 3.7074a1 1 0 0 0 1.414-1.414l-3.75-3.75c2.9009-3.17 6.9561-6.3406 8.9648-6.82 3.157-1.0209 5.2177.5506 7.6712 3.0461 2.4609 2.4452 4.07 4.4362 3.0481 7.6592a12.7331 12.7331 0 0 1 -1.7559 3.3179l-3.4533-3.4537a1 1 0 0 0 -1.414 1.414l3.6399 3.6402a68.5653 68.5653 0 0 1 -9.5674 9.0542l-3.3826-3.3824a1 1 0 1 0 -1.414 1.414l3.1905 3.1906c-10.0913 7.4339-18.2222 8.9941-21.0615 9.3182a40.3655 40.3655 0 0 1 5.1138-14.5404z"/><path d="m47.0869 26.2241a1 1 0 0 0 0 1.4141 1.53 1.53 0 0 1 0 2.1606 1 1 0 0 0 1.4141 1.414 3.5313 3.5313 0 0 0 0-4.9887 1 1 0 0 0 -1.4141 0z"/><path d="m34.2012 16.9131a1.53 1.53 0 0 1 2.1606 0 1 1 0 0 0 1.4141-1.4141 3.53 3.53 0 0 0 -4.9888 0 1 1 0 0 0 1.4141 1.4141z"/><path d="m47.6074 14.2314a1.53 1.53 0 0 1 2.1612 0 1 1 0 0 0 1.414-1.414 3.531 3.531 0 0 0 -4.9892 0 1 1 0 0 0 1.414 1.414z"/></svg>