<svg height="511pt" viewBox="0 -55 511.99724 511" width="511pt" xmlns="http://www.w3.org/2000/svg"><path d="m430.570312 159.015625c1.117188-4.746094 1.773438-9.667969 1.773438-14.75 0-35.417969-28.710938-64.125-64.125-64.125-.785156 0-1.546875.089844-2.324219.113281-6.867187-23.230468-28.332031-40.195312-53.785156-40.195312-1.804687 0-3.582031.105468-5.34375.273437-8.957031-19.085937-28.292969-32.335937-50.769531-32.335937-17.300782 0-32.765625 7.84375-43.058594 20.15625-6.507812-2.636719-13.609375-4.125-21.066406-4.125-28.269532 0-51.589844 20.929687-55.476563 48.125-.210937 0-.417969-.03125-.632812-.03125-35.414063 0-64.125 28.710937-64.125 64.125 0 8.90625 1.824219 17.386718 5.105469 25.097656-22.15625 12.3125-37.167969 35.929688-37.167969 63.078125 0 39.839844 32.296875 72.140625 72.140625 72.140625h288.566406c39.839844 0 72.140625-32.300781 72.140625-72.140625 0-29.007813-17.160156-53.953125-41.851563-65.40625zm0 0" fill="#fff6d8"/><path d="m127.746094 200.375c0-25.746094 16.03125-40.078125 26.652344-50.296875 3.667968-3.527344 4.667968-9.03125 2.960937-13.828125-3.578125-10.027344-5.5625-20.804688-5.5625-32.0625 0-33.449219 17.132813-62.796875 43.042969-80.011719-.015625-.0625-.003906-.007812-.019532-.070312-29.582031-1.515625-54.402343 19.914062-58.425781 48.050781-.210937-.003906-.417969-.03125-.632812-.03125-35.414063 0-64.125 28.707031-64.125 64.125 0 8.90625 1.824219 17.386719 5.105469 25.09375-23.515626 13.066406-38.976563 38.867188-36.996094 68.101562 2.589844 38.210938 35.910156 67.117188 74.207031 67.117188h158.074219c-96.1875 0-144.28125-48.09375-144.28125-96.1875zm0 0" fill="#ffedb1"/><path d="m494.109375 245.289062c-37.910156 39.503907-111.109375 51.429688-170.546875 52.972657-2.113281.054687-3.964844 1.332031-4.78125 3.285156l-12.640625 30.199219c-1.15625 2.765625.105469 5.929687 2.878906 7.0625 10.730469 4.378906 38.238281 13.863281 75.230469 13.863281 94.417969 0 114.757812-69.792969 119.089844-103.03125.671875-5.167969-5.621094-8.109375-9.230469-4.351563zm0 0" fill="#afdc82"/><path d="m111.714844 288.546875c-28.789063 0-72.515625-19.257813-96.746094-46.519531-2.558594-2.878906-7.226562-.929688-6.851562 2.898437 3.015624 30.769531 20.472656 107.746094 119.628906 107.746094 24.046875 0 40.078125-8.015625 40.078125-8.015625zm0 0" fill="#96cd82"/><path d="m211.390625 351.109375c5.964844 7.691406 11.988281 17.84375 17.019531 31.160156 2.367188 6.257813 8.3125 10.480469 15.003906 10.480469h25.164063c6.707031 0 12.644531-4.242188 15.019531-10.515625 7.761719-20.523437 19.882813-37.539063 28.511719-45.59375h-104.203125zm0 0" fill="#afdc82"/><path d="m239.519531 295.847656c-41.84375 5.117188-91.191406-5.789062-132.707031-52.164062-2.519531-2.816406-7.183594-.769532-6.75 2.980468 4.417969 38.050782 27.683594 154.101563 147.917969 89.976563zm0 0" fill="#afdc82"/><path d="m326.324219 253.078125c-14.535157 20.820313-59.308594 45.5-110.398438 43.871094l2.710938 9.242187c6.210937 21.183594 22.296875 38.792969 43.609375 44.542969 7.066406 1.90625 14.410156 2.578125 21.910156 1.9375 38.027344-3.257813 48.265625-62.511719 51.003906-96.597656.402344-5.003907-5.964844-7.113281-8.835937-2.996094zm0 0" fill="#cde682"/><path d="m185.992188 145.761719c4.488281-1.335938 9.164062-2.011719 13.894531-2.011719 15.882812 0 30.796875 7.789062 39.898437 20.832031 1.460938 2.089844 3.789063 3.210938 6.160156 3.210938 1.480469 0 2.976563-.4375 4.285157-1.351563 3.394531-2.371094 4.226562-7.042968 1.859375-10.441406-5.472656-7.839844-12.554688-14.226562-20.621094-18.84375-.007812-.300781-.035156-.605469-.035156-.90625 0-14.261719 7.628906-27.644531 19.90625-34.9375 3.5625-2.113281 4.734375-6.714844 2.617187-10.277344-2.113281-3.5625-6.714843-4.734375-10.277343-2.617187-15.292969 9.078125-25.3125 25.078125-26.992188 42.597656-5.414062-1.484375-11.058594-2.265625-16.800781-2.265625-6.183594 0-12.296875.886719-18.175781 2.636719-3.96875 1.179687-6.226563 5.355469-5.046876 9.328125 1.183594 3.96875 5.359376 6.230468 9.328126 5.046875zm0 0"/><path d="m302.207031 228.324219c1.976563 0 3.945313-.773438 5.421875-2.3125 2.550782-2.667969 5.5-4.839844 8.769532-6.457031 11.824218-5.855469 26.175781-3.652344 35.714843 5.472656 2.992188 2.863281 7.738281 2.761718 10.601563-.230469 2.867187-2.996094 2.761718-7.742187-.230469-10.605469-5.980469-5.71875-13.238281-9.589844-20.949219-11.496094 1.050782-13.8125-4.074218-27.425781-14.1875-37.105468-4.972656-4.757813-10.78125-8.277344-17.257812-10.460938-3.925782-1.320312-8.179688.789063-9.503906 4.714844-1.324219 3.925781.789062 8.179688 4.714843 9.5 4.375 1.476562 8.304688 3.859375 11.675781 7.085938 6.828126 6.53125 10.296876 15.710937 9.613282 25.039062-5.757813.457031-11.476563 1.984375-16.84375 4.640625-4.835938 2.394531-9.195313 5.601563-12.957032 9.53125-2.863281 2.992187-2.757812 7.738281.234376 10.601563 1.453124 1.390624 3.320312 2.082031 5.183593 2.082031zm0 0"/><path d="m185.785156 246.476562c5.046875 1.90625 10.367188 2.90625 15.804688 2.980469h.101562c4.09375 0 7.441406-3.292969 7.496094-7.398437.054688-4.144532-3.257812-7.546875-7.398438-7.601563-3.691406-.046875-7.292968-.726562-10.703124-2.015625-12.34375-4.660156-20.515626-16.660156-20.34375-29.859375.058593-4.144531-3.257813-7.542969-7.398438-7.601562-4.121094-.0625-7.542969 3.261719-7.597656 7.402343-.257813 19.488282 11.8125 37.207032 30.039062 44.09375zm0 0"/><path d="m511.980469 232.203125c-.101563-3.257813-2.296875-6.078125-5.429688-6.976563-3.132812-.898437-6.488281.332032-8.300781 3.039063-6.394531 9.5625-14.410156 17.710937-23.597656 24.660156 3.449218-9.003906 5.269531-18.636719 5.269531-28.503906 0-29.710937-16.179687-55.933594-40.855469-69.625.511719-3.476563.777344-7.003906.777344-10.53125 0-38.488281-30.519531-69.972656-68.625-71.550781-9.359375-23.496094-32.316406-40.152344-59.109375-40.152344-.277344 0-.558594.015625-.839844.019531-11.089843-19.480469-31.957031-32.082031-55.269531-32.082031-17.109375 0-33.304688 6.839844-45.21875 18.902344-6.097656-1.898438-12.433594-2.871094-18.90625-2.871094-29.808594 0-54.882812 20.617188-61.742188 48.335938-36.871093 2.882812-65.992187 33.785156-65.992187 71.382812 0 7.519531 1.160156 14.863281 3.429687 21.917969-6.683593 4.457031-12.71875 9.914062-17.816406 16.21875-11.398437 14.101562-17.675781 31.871093-17.675781 50.035156 0 9.929687 1.828125 19.574219 5.28125 28.578125-9.546875-7.242188-17.429687-15.492188-23.609375-24.730469-1.8125-2.710937-5.171875-3.941406-8.304688-3.039062-3.132812.898437-5.328124 3.71875-5.4257808 6.976562-.0703124 2.269531-1.2890622 55.980469 35.0390628 93.445313 22.214844 22.90625 53.402344 34.519531 92.691406 34.519531 9.199219 0 18.78125-.664063 28.507812-1.957031 8.394532 3.210937 17.425782 4.820312 27.066407 4.820312 7.953125 0 16.324219-1.105468 25.085937-3.285156 5.054688 7.296875 9.421875 15.734375 12.988282 25.171875 3.464843 9.171875 12.3125 15.332031 22.019531 15.332031h25.164062c9.703125 0 18.558594-6.175781 22.035157-15.363281 5.371093-14.207031 12.40625-25.984375 20.941406-35.09375 23.058594 6.96875 45.277344 10.496094 66.207031 10.496094 2.269531 0 4.527344-.042969 6.765625-.125 67.664062-2.503907 98.800781-37.277344 113.003906-66.007813 15.230469-30.816406 14.484375-60.699218 14.445313-61.957031zm-450.566407-48.386719c9.121094-11.277344 21.878907-19.246094 35.933594-22.4375 4.039063-.914062 6.570313-4.933594 5.652344-8.972656s-4.9375-6.574219-8.972656-5.652344c-4.445313 1.007813-8.78125 2.40625-12.964844 4.160156-1.273438-4.75-1.925781-9.65625-1.925781-14.667968 0-28.675782 21.4375-52.429688 49.125-56.113282v.007813c0 3.496094.289062 7.007813.855469 10.4375.605468 3.675781 3.785156 6.28125 7.390624 6.28125.40625 0 .816407-.035156 1.230469-.105469 4.089844-.671875 6.855469-4.535156 6.179688-8.621094-.4375-2.625-.65625-5.3125-.65625-7.996093 0-26.800781 21.808593-48.609375 48.609375-48.609375 6.3125 0 12.449218 1.191406 18.238281 3.535156 3.085937 1.25 6.519531.292969 8.554687-2.128906l.019532.019531c9.273437-11.09375 22.875-17.457031 37.3125-17.457031 22.304687 0 41.6875 15.082031 47.136718 36.675781.859376 3.398437 3.914063 5.667969 7.265626 5.667969.609374 0 1.226562-.078125 1.839843-.230469 4.019531-1.015625 6.453125-5.09375 5.4375-9.109375-.050781-.214844-.117187-.421875-.171875-.632812 24.269532 2.691406 43.210938 23.324218 43.210938 48.300781 0 3.304687-.332032 6.601562-.984375 9.804687-.832031 4.058594 1.785156 8.023438 5.84375 8.851563.507812.105469 1.011719.15625 1.511719.15625 3.488281 0 6.613281-2.449219 7.339843-6 .855469-4.191407 1.289063-8.5 1.289063-12.8125 0-2.738281-.191406-5.433594-.53125-8.085938 27.945312 3.445313 49.660156 27.316407 49.660156 56.179688 0 1.441406-.074219 2.878906-.183594 4.316406-3.5625-1.136719-7.242187-2.042969-11.027344-2.683594-4.085937-.691406-7.957031 2.0625-8.644531 6.144531-.691406 4.085938 2.0625 7.957032 6.144531 8.644532 31.167969 5.265625 53.789063 32.070312 53.789063 63.738281 0 16.476563-6.488281 32.507813-17.75 44.523437-.046875.050782-.027344.027344-.007813.003907-33.378906 14.984375-73.960937 20.375-109.257812 21.660156 2.5-12.070313 3.925781-23.9375 4.730469-33.9375.449219-5.613281-2.777344-10.652344-8.03125-12.542969-5.347657-1.917968-11.148438-.050781-14.433594 4.65625-15.96875 22.871094-58.625 38.539063-90.636719 40.472656-31.09375 1.882813-76.664062-5.371093-117.136718-50.578124-3.328126-3.722657-8.625-4.847657-13.175782-2.796876-4.527344 2.035157-7.183594 6.71875-6.609375 11.648438.941407 8.113281 2.789063 20.042969 6.296875 33.183594-12.371094-3.144532-23.652344-7-33.824218-11.550782-11.613282-12.09375-18.011719-27.921874-18.011719-44.742187 0-14.957031 4.960937-29 14.339843-40.605469zm66.332032 161.355469c-35.023438 0-62.554688-10.050781-81.832032-29.871094-18.078124-18.589843-25.597656-42.480469-28.714843-59.789062 20.472656 19.609375 49.609375 33.625 86.933593 41.835937 6.378907 17.425782 15.992188 35.085938 30.425782 47.695313-2.292969.085937-4.566406.128906-6.8125.128906zm148.835937 34.410156c-1.28125 3.390625-4.5 5.667969-8.007812 5.667969h-25.164063c-3.5 0-6.710937-2.265625-7.984375-5.632812-3.382812-8.957032-7.445312-17.144532-12.097656-24.496094 5.132813-1.890625 10.382813-4.109375 15.757813-6.679688 13.953124 9 29.59375 13.078125 45.710937 11.703125.296875-.023437.585937-.0625.882813-.09375-3.402344 5.996094-6.441407 12.511719-9.097657 19.53125zm6.933594-34.382812c-19.667969 1.6875-38.695313-7.125-53.558594-24.8125-2.664062-3.171875-7.398437-3.582031-10.566406-.914063-3.171875 2.664063-3.582031 7.394532-.917969 10.566406 2.378906 2.832032 4.855469 5.472657 7.414063 7.925782-28.5 12.238281-52.355469 13.300781-71.007813 3.136718-30.027344-16.355468-41.496094-58.414062-45.78125-84.109374 42.441406 42.265624 88.957032 49.199218 121.34375 47.238281 42.378906-2.558594 78.613282-21.039063 96.402344-39.988281-3.203125 28.851562-13.105469 78.367187-43.328125 80.957031zm200.324219-57.199219c-18.097656 36.15625-51.699219 55.394531-99.871094 57.175781-19.84375.734375-41.136719-2.089843-63.40625-8.378906 5.921875-8.996094 10.328125-19.816406 13.609375-31.070313 37.328125-1.03125 70.042969-5.949218 97.273437-14.660156 26.09375-8.347656 47.246094-20.210937 63.175782-35.398437-1.828125 9.484375-5.066406 20.914062-10.78125 32.332031zm0 0"/><path d="m447.167969 268.949219s.003906 0 .003906-.003907c.050781-.058593.019531-.023437-.003906.003907zm0 0"/></svg>