<svg height="512pt" viewBox="-72 0 512 512" width="512pt" xmlns="http://www.w3.org/2000/svg"><path d="m357.007812 352.195312c-21.265624-96.195312-140.203124-136.660156-145.832031-168.339843-6.484375-36.511719-8.539062-139.285157-9-168.511719-.070312-4.375-3.636719-7.84375-8.015625-7.84375h-20.652344c-4.375 0-7.945312 3.46875-8.011718 7.84375-.464844 29.226562-2.519532 132-9.003906 168.511719-5.628907 31.679687-124.566407 72.144531-145.832032 168.339843-20.878906 94.421876 63.800782 152.304688 173.175782 152.304688 109.371093 0 194.050781-57.882812 173.171874-152.304688zm0 0" fill="#dbd9dc"/><path d="m173.507812 7.5c-4.375 0-7.945312 3.46875-8.011718 7.84375-.464844 29.226562-2.519532 132-9.003906 168.511719-5.628907 31.679687-124.566407 72.144531-145.832032 168.339843-20.878906 94.421876 63.800782 152.304688 173.175782 152.304688v-497zm0 0" fill="#b7b2b8"/><path d="m183.835938 504.5v-332.667969c-41.785157 42.46875-121.019532 108.933594-133.164063 180.359375-16.050781 94.425782 49.0625 152.308594 133.164063 152.308594zm0 0" fill="#c9c6ca"/><path d="m173.507812 7.5c-4.375 0-7.945312 3.46875-8.011718 7.84375-.449219 28.246094-2.394532 124.984375-8.378906 164.425781-.179688 2.175781-.386719 3.585938-.625 4.085938-3.550782 18.203125-68.851563 94.1875-68.851563 196.394531 0 68.621094 43.066406 124.25 96.195313 124.25v-497zm0 0" fill="#dbd9dc"/><path d="m194.160156 7.5c4.378906 0 7.945313 3.46875 8.015625 7.84375.445313 28.246094 2.390625 124.984375 8.375 164.425781.183594 2.175781.390625 3.585938.625 4.085938 3.554688 18.203125 68.851563 94.1875 68.851563 196.394531 0 68.621094-43.066406 124.25-96.195313 124.25v-497zm0 0" fill="#edebed"/><path d="m364.332031 350.574219c-14.027343-63.449219-67.644531-102.925781-106.796875-131.746094-19.246094-14.167969-37.421875-27.546875-38.972656-36.285156-6.359375-35.796875-8.410156-137.117188-8.890625-167.316407-.128906-8.398437-7.089844-15.226562-15.511719-15.226562h-20.652344c-8.421874 0-15.378906 6.828125-15.511718 15.226562-.476563 30.199219-2.53125 131.519532-8.886719 167.316407-1.554687 8.738281-19.730469 22.117187-38.976563 36.285156-39.148437 28.824219-92.769531 68.296875-106.796874 131.746094-8.328126 37.671875-.992188 72.203125 21.214843 99.855469 15.554688 19.371093 38.527344 35.207031 66.429688 45.800781 27.175781 10.316406 59.28125 15.769531 92.855469 15.769531 33.570312 0 65.679687-5.453125 92.855468-15.769531 27.902344-10.59375 50.875-26.433594 66.429688-45.804688 22.207031-27.652343 29.542968-62.179687 21.210937-99.851562zm-32.90625 90.460937c-13.886719 17.289063-34.652343 31.527344-60.058593 41.171875-8.703126 3.300781-17.96875 6.058594-27.652344 8.277344 3.933594-3.246094 7.65625-6.839844 11.140625-10.769531 26.320312-29.6875 37.289062-75.292969 30.882812-128.417969-1.710937-14.199219-4.6875-28.144531-8.84375-41.449219-1.238281-3.953125-5.441406-6.15625-9.398437-4.917968-3.953125 1.234374-6.15625 5.441406-4.921875 9.394531 3.886719 12.433593 6.671875 25.476562 8.273437 38.765625 5.886719 48.808594-3.78125 90.242187-27.21875 116.675781-14.078125 15.878906-32.042968 25.066406-52.296875 26.878906v-240.644531c0-4.140625-3.355469-7.5-7.5-7.5-4.140625 0-7.5 3.359375-7.5 7.5v240.660156c-24.074219-2.183594-45.070312-14.925781-59.703125-36.433594-2.332031-3.425781-6.996094-4.3125-10.421875-1.980468-3.425781 2.332031-4.3125 6.996094-1.980469 10.417968 5.742188 8.441407 12.335938 15.726563 19.625 21.796876-9.648437-2.214844-18.878906-4.964844-27.550781-8.253907-25.40625-9.644531-46.171875-23.882812-60.058593-41.171875-19.257813-23.984375-25.574219-54.144531-18.261719-87.222656 12.8125-57.949219 63.808593-95.492188 101.042969-122.902344 24.527343-18.058594 42.25-31.101562 44.851562-45.742187 6.554688-36.898438 8.632812-139.222657 9.117188-169.707031.003906-.265626.21875-.460938.515624-.460938h20.652344c.292969 0 .507813.195312.511719.460938.484375 30.484374 2.566406 132.808593 9.121094 169.707031 2.601562 14.640625 20.320312 27.683593 44.847656 45.742187 37.234375 27.410156 88.230469 64.953125 101.042969 122.902344 7.316406 33.078125 1.003906 63.238281-18.257813 87.222656zm0 0"/><path d="m254.738281 260.242188c-2.09375-3.578126-6.691406-4.777344-10.261719-2.683594-3.574218 2.09375-4.777343 6.6875-2.683593 10.261718 2.683593 4.582032 5.203125 9.210938 7.492187 13.765626 1.316406 2.621093 3.960938 4.132812 6.707032 4.132812 1.132812 0 2.28125-.257812 3.363281-.800781 3.699219-1.859375 5.191406-6.367188 3.332031-10.066407-2.433594-4.839843-5.105469-9.757812-7.949219-14.609374zm0 0"/><path d="m123.503906 257.058594c-3.566406-2.101563-8.164062-.910156-10.265625 2.660156-17.152343 29.144531-27.394531 59.101562-31.308593 91.578125-3.71875 30.8125-1.679688 58.851563 6.054687 83.332031 1.011719 3.199219 3.964844 5.242188 7.148437 5.242188.75 0 1.511719-.113282 2.261719-.351563 3.949219-1.246093 6.140625-5.460937 4.894531-9.410156-7.085937-22.429687-8.925781-48.339844-5.46875-77.019531 3.664063-30.382813 13.261719-58.4375 29.34375-85.765625 2.101563-3.570313.910157-8.167969-2.660156-10.265625zm0 0"/></svg>