<svg height="512pt" viewBox="-54 0 512 512.00089" width="512pt" xmlns="http://www.w3.org/2000/svg"><path d="m238.140625 102.488281-36.503906 15.007813c-1.851563 45.847656 3.75 130.257812 43.144531 230.113281 50.402344 127.753906 100.824219 150.914063 121.070312 154.855469 5.984376 1.164062 12.003907-1.207032 15.582032-6.148438 12.101562-16.699218 33.128906-68.046875-17.273438-195.804687-39.394531-99.855469-93.359375-165.789063-126.019531-198.023438zm0 0" fill="#cdf5a0"/><path d="m345.019531 311.765625c-36.992187-94.535156-88.128906-165.1875-124.675781-206.136719l-18.707031 11.867188c-1.851563 45.847656 3.75 130.257812 43.144531 230.113281 50.402344 127.753906 100.824219 150.914063 121.070312 154.855469 4.214844.820312 8.402344-.195313 11.789063-2.546875 7.007813-33.679688 5.101563-91.746094-32.621094-188.152344zm0 0" fill="#b4e6a0"/><g fill="#cdf5a0"><path d="m319.703125 301.675781c0 13.289063-10.773437 24.0625-24.0625 24.0625s-24.0625-10.773437-24.0625-24.0625c0-13.289062 10.773437-24.0625 24.0625-24.0625s24.0625 10.773438 24.0625 24.0625zm0 0"/><path d="m303.042969 256.5c0 13.292969-10.773438 24.0625-24.0625 24.0625-13.289063 0-24.0625-10.769531-24.0625-24.0625 0-13.289062 10.773437-24.058594 24.0625-24.058594 13.289062 0 24.0625 10.769532 24.0625 24.058594zm0 0"/><path d="m284.636719 211.882812c0 13.289063-10.773438 24.0625-24.0625 24.0625-13.289063 0-24.0625-10.773437-24.0625-24.0625 0-13.289062 10.773437-24.0625 24.0625-24.0625 13.289062 0 24.0625 10.773438 24.0625 24.0625zm0 0"/><path d="m260.246094 169.667969c0 13.289062-10.773438 24.0625-24.0625 24.0625-13.289063 0-24.0625-10.773438-24.0625-24.0625 0-13.289063 10.773437-24.0625 24.0625-24.0625 13.289062 0 24.0625 10.773437 24.0625 24.0625zm0 0"/><path d="m337.058594 346.566406c0 13.289063-10.773438 24.0625-24.0625 24.0625-13.289063 0-24.0625-10.773437-24.0625-24.0625 0-13.289062 10.773437-24.0625 24.0625-24.0625 13.289062 0 24.0625 10.773438 24.0625 24.0625zm0 0"/><path d="m355.195312 390.945312c0 13.289063-10.773437 24.0625-24.0625 24.0625-13.289062 0-24.0625-10.773437-24.0625-24.0625 0-13.289062 10.773438-24.0625 24.0625-24.0625 13.289063 0 24.0625 10.773438 24.0625 24.0625zm0 0"/><path d="m365.644531 438.164062c0 13.289063-10.773437 24.0625-24.0625 24.0625-13.289062 0-24.0625-10.773437-24.0625-24.0625 0-13.289062 10.773438-24.0625 24.0625-24.0625 13.289063 0 24.0625 10.773438 24.0625 24.0625zm0 0"/></g><path d="m281.21875 330.6875c-40.144531-101.757812-59.691406-175.304688-68.890625-217.589844l-10.691406 4.394532c-1.851563 45.851562 3.75 130.257812 43.144531 230.113281 50.402344 127.757812 100.824219 150.917969 121.070312 154.859375 2.128907.414062 4.222657.234375 6.25-.203125-9.246093-6.695313-37.75-36.894531-90.882812-171.574219zm0 0" fill="#96d7a5"/><path d="m219.699219 109.183594 25.148437.117187c4.796875.023438 7.082032-5.894531 3.511719-9.097656l-42.089844-37.769531c-3.199219-2.875-8.304687-.859375-8.679687 3.421875l-4.964844 56.332031c-.421875 4.78125 5.289062 7.546875 8.777344 4.253906zm0 0" fill="#96d7a5"/><path d="m205.632812 83.738281-36.761718-14.371093c-33.011719 31.871093-87.273438 96.769531-127.773438 196.183593-51.816406 127.1875-31.363281 178.769531-19.449218 195.601563 3.527343 4.976562 9.515624 7.417968 15.515624 6.320312 20.285157-3.714844 70.960938-26.3125 122.777344-153.503906 40.503906-99.410156 47.035156-184.359375 45.691406-230.230469zm0 0" fill="#cdf5a0"/><path d="m138.328125 308.886719c38.566406-93.90625 50.402344-180.316407 52.265625-235.171875l-21.722656-4.34375c-33.011719 31.871094-87.273438 96.769531-127.773438 196.179687-51.816406 127.1875-31.363281 178.769531-19.449218 195.601563 2.484374 3.507812 6.214843 5.664062 10.285156 6.304687 28.335937-19.511719 67.070312-62.8125 106.394531-158.570312zm0 0" fill="#b4e6a0"/><path d="m133.660156 267.476562c0 13.289063-10.773437 24.0625-24.0625 24.0625-13.289062 0-24.0625-10.773437-24.0625-24.0625 0-13.289062 10.773438-24.0625 24.0625-24.0625 13.289063 0 24.0625 10.773438 24.0625 24.0625zm0 0" fill="#cdf5a0"/><path d="m152.824219 223.308594c0 13.289062-10.773438 24.058594-24.0625 24.058594-13.289063 0-24.0625-10.769532-24.0625-24.058594 0-13.292969 10.773437-24.0625 24.0625-24.0625 13.289062 0 24.0625 10.769531 24.0625 24.0625zm0 0" fill="#cdf5a0"/><path d="m170.339844 178.332031c0 13.289063-10.773438 24.0625-24.0625 24.0625-13.289063 0-24.0625-10.773437-24.0625-24.0625 0-13.289062 10.773437-24.0625 24.0625-24.0625 13.289062 0 24.0625 10.773438 24.0625 24.0625zm0 0" fill="#cdf5a0"/><path d="m181.871094 130.957031c0 13.292969-10.773438 24.0625-24.0625 24.0625-13.292969 0-24.0625-10.769531-24.0625-24.0625 0-13.289062 10.769531-24.0625 24.0625-24.0625 13.289062 0 24.0625 10.773438 24.0625 24.0625zm0 0" fill="#cdf5a0"/><path d="m115.199219 311.925781c0 13.289063-10.773438 24.0625-24.0625 24.0625-13.289063 0-24.0625-10.773437-24.0625-24.0625 0-13.289062 10.773437-24.0625 24.0625-24.0625 13.289062 0 24.0625 10.773438 24.0625 24.0625zm0 0" fill="#cdf5a0"/><path d="m97.652344 356.539062c0 13.289063-10.773438 24.0625-24.0625 24.0625-13.289063 0-24.0625-10.773437-24.0625-24.0625 0-13.289062 10.773437-24.0625 24.0625-24.0625 13.289062 0 24.0625 10.773438 24.0625 24.0625zm0 0" fill="#cdf5a0"/><path d="m72.585938 397.894531c0 13.289063-10.769532 24.0625-24.0625 24.0625-13.289063 0-24.0625-10.773437-24.0625-24.0625 0-13.289062 10.773437-24.0625 24.0625-24.0625 13.292968 0 24.0625 10.773438 24.0625 24.0625zm0 0" fill="#cdf5a0"/><path d="m79.128906 278.488281c41.273438-101.304687 77.953125-167.984375 100.511719-204.910156l-10.769531-4.207031c-33.011719 31.871094-87.273438 96.769531-127.773438 196.179687-51.816406 127.1875-31.363281 178.769531-19.449218 195.601563 1.253906 1.769531 2.890624 3.085937 4.660156 4.171875-2.058594-11.230469-1.804688-52.753907 52.820312-186.835938zm0 0" fill="#96d7a5"/><path d="m187.675781 75.839844 18.101563 17.460937c3.453125 3.328125 9.191406.625 8.820312-4.15625l-4.335937-56.382812c-.328125-4.285157-5.410157-6.355469-8.640625-3.519531l-42.503906 37.296874c-3.605469 3.164063-1.390626 9.109376 3.40625 9.140626zm0 0" fill="#96d7a5"/><path d="m371.070312 299.019531c-21.15625-53.632812-47.292968-101.644531-77.683593-142.703125-2.464844-3.332031-7.160157-4.03125-10.488281-1.566406-3.332032 2.464844-4.03125 7.160156-1.566407 10.488281 29.609375 40.007813 55.109375 86.871094 75.789063 139.285157 17.835937 45.21875 37.503906 109.144531 29.882812 156.894531-2.746094 17.21875-8.59375 28.074219-12.988281 33.503906-3.621094-3.117187-10.257813-10.199219-20.160156-25.882813 15.394531-6.796874 22.832031-24.652343 16.601562-40.441406-2.835937-7.1875-8.085937-12.960937-14.894531-16.460937 6.792969-8.546875 8.980469-20.386719 4.695312-31.25-3.53125-8.957031-10.734374-15.390625-19.207031-18.277344.40625-.761719.789063-1.535156 1.136719-2.335937 3.359375-7.734376 3.503906-16.3125.410156-24.152344-3.09375-7.84375-9.054687-14.011719-16.789062-17.371094-.796875-.34375-1.609375-.648438-2.425782-.929688 4.21875-7.890624 5.089844-17.511718 1.554688-26.46875-3.535156-8.957031-10.738281-15.390624-19.207031-18.277343.40625-.757813.789062-1.535157 1.136719-2.332031 3.359374-7.734376 3.503906-16.3125.410156-24.15625-3.535156-8.960938-10.746094-15.398438-19.21875-18.285157 4.222656-7.894531 5.09375-17.519531 1.558594-26.480469-4.285157-10.863281-13.96875-18.019531-24.765626-19.625 2.585938-7.207031 2.480469-15.011718-.355468-22.195312-3.09375-7.84375-9.054688-14.011719-16.789063-17.371094-6.597656-2.863281-13.808593-3.382812-20.652343-1.554687-2.042969-8.433594-3.789063-16.140625-5.28125-23.125l19.445312.09375c6.820312 6.921875 13.628906 14.371093 20.28125 22.183593 1.480469 1.746094 3.59375 2.640626 5.714844 2.640626 1.71875 0 3.445312-.585938 4.855468-1.789063 3.15625-2.683594 3.539063-7.414063.855469-10.570313-3.789062-4.453124-7.632812-8.789062-11.5-12.992187 1.835938-.777344 3.335938-2.253906 4.085938-4.191406 1.121093-2.90625.328125-6.199219-1.988281-8.28125l-43.085938-38.664063-3.296875-42.832031 5.382813-13.214844c1.566406-3.835937-.277344-8.214843-4.113282-9.777343-3.835937-1.5625-8.210937.28125-9.777344 4.117187l-5.382812 13.214844-59.328125 52.066406c-2.339844 2.054687-3.167969 5.339844-2.082031 8.257813.726562 1.941406 2.207031 3.4375 4.03125 4.234374-33.328125 35.363282-76.039063 92.855469-111.652344 180.277344-28.3125 69.492188-39.136719 125.667969-32.171875 166.964844 5.433594 32.214844 19.941406 43.304688 21.578125 44.460938.9375.667968 2.019531 1.105468 3.15625 1.289062.441406.066406 1.679688.230469 3.636719.230469 6.824219 0 22.347656-1.996094 42.867187-16.957031 33.84375-24.671876 65.359375-72.417969 93.671875-141.910157 15.214844-37.347656 25.6875-71.695312 32.757813-102.574219 6.796875 44.457032 19.515625 90.46875 38.027344 137.390626 27.535156 69.804687 58.519531 117.898437 92.085937 142.945312 20.742187 15.480469 36.441406 17.4375 43.058594 17.4375 1.734375 0 2.84375-.132812 3.257812-.195312 1.136719-.167969 2.222657-.597657 3.167969-1.25 1.648438-1.140626 16.28125-12.070313 22.070312-44.21875 7.425782-41.21875-2.773437-97.511719-30.3125-167.316407zm-14.78125 147.757813c-1.761718 4.054687-5 7.183594-9.113281 8.808594-.375.148437-.757812.277343-1.140625.398437-4.550781-7.96875-9.621094-17.457031-15.230468-28.757813 1.269531-1.007812 2.667968-1.84375 4.214843-2.453124 4.113281-1.625 8.617188-1.546876 12.671875.214843 4.058594 1.761719 7.1875 4.996094 8.8125 9.113281 1.625 4.113282 1.546875 8.617188-.214844 12.675782zm-184.316406-322.457032c1.714844 4.078126 1.742188 8.582032.074219 12.675782-1.667969 4.097656-4.835937 7.300781-8.910156 9.015625-4.078125 1.71875-8.582031 1.746093-12.675781.074219-.585938-.238282-1.144532-.511719-1.691407-.808594 5.527344-10.574219 10.785157-20.269532 15.746094-29.132813 3.347656 1.78125 5.964844 4.632813 7.457031 8.175781zm-28.8125 104.839844c-1.667968 4.09375-4.832031 7.296875-8.910156 9.011719-4.078125 1.71875-8.578125 1.746094-12.675781.074219-6.179688-2.515625-10.230469-8.453125-10.320313-15.128906 0-.105469-.011718-.210938-.019531-.320313 1.886719-4.1875 3.753906-8.277344 5.609375-12.308594.050781-.042969.109375-.082031.160156-.125 4.742188-4.078125 11.28125-5.148437 17.066406-2.792969 8.457032 3.445313 12.535157 13.128907 9.089844 21.589844zm-18.230468 31.890625c1.714843 4.074219 1.742187 8.578125.074218 12.675781-1.671875 4.097657-4.835937 7.296876-8.914062 9.015626-4.074219 1.714843-8.578125 1.742187-12.671875.074218-4.097657-1.671875-7.300781-4.835937-9.015625-8.910156-1.460938-3.464844-1.683594-7.230469-.699219-10.796875.574219-1.371094 1.152344-2.734375 1.726563-4.09375 3.019531-5.089844 8.511718-8.101563 14.257812-8.101563 2.078125 0 4.1875.394532 6.226562 1.226563 4.097657 1.667969 7.296876 4.832031 9.015626 8.910156zm-18.15625 44.566407c1.714843 4.078124 1.742187 8.578124.074218 12.675781-1.671875 4.097656-4.835937 7.296875-8.914062 9.015625-4.078125 1.714844-8.578125 1.742187-12.675782.074218-4.09375-1.667968-7.296874-4.835937-9.015624-8.910156-1.398438-3.328125-1.65625-6.9375-.800782-10.378906.527344-1.355469 1.058594-2.710938 1.601563-4.089844 1.789062-3.234375 4.578125-5.769531 8.039062-7.222656 2.070313-.871094 4.246094-1.308594 6.425781-1.308594 2.113282 0 4.230469.410156 6.25 1.234375 4.09375 1.667969 7.296876 4.832031 9.015626 8.910157zm-18.160157 44.566406c1.71875 4.078125 1.742188 8.578125.074219 12.675781-3.445312 8.457031-13.128906 12.53125-21.585938 9.089844-5.648437-2.300781-9.53125-7.457031-10.207031-13.507813 1.503907-4.386718 3.089844-8.929687 4.789063-13.667968.191406-.144532.382812-.296876.5625-.460938 4.769531-4.292969 11.414062-5.460938 17.351562-3.039062 4.097656 1.667968 7.300782 4.832031 9.015625 8.910156zm-39.332031 31.464844c1.609375.148437 3.195312.539062 4.734375 1.164062 8.457031 3.449219 12.535156 13.132812 9.085937 21.589844-3.445312 8.453125-13.128906 12.53125-21.585937 9.089844-.371094-.152344-.738281-.324219-1.097656-.5 2.214843-8.910157 5.105469-19.285157 8.863281-31.34375zm90.449219-187.96875c-4.816407-1.960938-8.402344-6.050782-9.746094-11.046876 3.289063-6.789062 6.511719-13.316406 9.664063-19.578124 4.015624-1.660157 8.523437-1.703126 12.578124-.050782 4.097657 1.671875 7.300782 4.835938 9.015626 8.910156 1.71875 4.078126 1.742187 8.582032.074218 12.679688-1.667968 4.097656-4.832031 7.296875-8.910156 9.011719-4.078125 1.71875-8.582031 1.742187-12.675781.074219zm29.078125-125.460938c-.03125-.023438-.058594-.046875-.089844-.070312l34.480469-30.261719 3.519531 45.734375c-.039062-.003906-.082031-.007813-.121094-.011719l-13.652344-13.167969c-1.386718-1.339844-3.230468-2.089844-5.160156-2.101562zm177.496094 318.171875c1.625 4.113281 1.546874 8.617187-.214844 12.675781-1.761719 4.058594-5 7.1875-9.113282 8.808594-5.671874 2.238281-12.042968 1.191406-16.714843-2.714844-1.945313-4.21875-3.941407-8.617187-5.996094-13.230468.039063-.226563.089844-.449219.109375-.683594.480469-6.394532 4.480469-11.832032 10.445312-14.183594 8.492188-3.351562 18.132813.832031 21.484376 9.328125zm-17.660157-44.765625c1.621094 4.113281 1.546875 8.617188-.214843 12.671875-1.761719 4.058594-5 7.1875-9.113282 8.8125-4.117187 1.625-8.617187 1.546875-12.675781-.214844-3.3125-1.4375-5.988281-3.871093-7.75-6.953125-.554687-1.34375-1.105469-2.6875-1.667969-4.058594-.9375-3.574218-.671875-7.335937.824219-10.777343 1.761719-4.058594 5-7.1875 9.113281-8.8125 1.96875-.777344 4.027344-1.164063 6.082032-1.164063 2.238281 0 4.476562.460938 6.59375 1.378906 4.054687 1.765626 7.183593 5 8.808593 9.117188zm-17.660156-44.765625c3.351563 8.496094-.835937 18.132813-9.328125 21.484375-4.117188 1.621094-8.617188 1.546875-12.675781-.214844-3.445313-1.496094-6.210938-4.0625-7.964844-7.320312-.515625-1.359375-1.027344-2.707032-1.535156-4.054688-.832031-3.464844-.539063-7.085937.90625-10.414062 1.761719-4.058594 5-7.1875 9.113281-8.8125 1.988281-.78125 4.039062-1.152344 6.058594-1.152344 6.601562 0 12.859375 3.976562 15.425781 10.484375zm-17.660156-44.769531c3.351562 8.496094-.832031 18.132812-9.328125 21.484375-6.207032 2.449219-13.238282.953125-17.914063-3.808594-.074219-.078125-.15625-.144531-.234375-.21875-1.53125-4.332031-3.007812-8.578125-4.449218-12.773437.007812-.066407.023437-.132813.027343-.203126.613281-6.222656 4.601563-11.515624 10.414063-13.808593 4.113281-1.625 8.617187-1.546875 12.675781.214843 4.054687 1.761719 7.183594 5 8.808594 9.113282zm-17.660157-44.765625c3.351563 8.496093-.835937 18.132812-9.332031 21.484375-4.835937 1.90625-10.253906 1.429687-14.675781-1.253906-2.3125-7.183594-4.492188-14.128907-6.539062-20.832032 1.757812-3.976562 4.984374-7.121094 9.0625-8.726562 4.113281-1.625 8.613281-1.546875 12.671874.214844 4.058594 1.761718 7.1875 5 8.8125 9.113281zm-33.933593-50.9375c4.058593 1.761719 7.1875 5 8.8125 9.117187 1.625 4.113282 1.546875 8.613282-.214844 12.671875-1.761719 4.058594-5 7.1875-9.117187 8.8125-.585938.230469-1.179688.417969-1.78125.582031-3.308594-11.464843-6.203126-22.109374-8.738282-31.941406 3.652344-1.027344 7.511719-.773437 11.039063.757813zm-2.910157-53.355469-15.625-.074219c.003907-.234375.019532-.46875 0-.707031l-1.09375-14.222656zm-190.710937 165.347656c38.214844-93.804687 84.585937-152.078125 117.96875-185.179687h.183594c-23.539063 39.207031-57.378907 102.542969-94.90625 194.652343-35.175781 86.335938-47.941407 134.792969-51.570313 161.914063-1.128906-3.644531-2.144531-7.808594-2.949218-12.570313-4.460938-26.476562-2.660157-75.519531 31.273437-158.816406zm104.953125 42.761719c-33.226562 81.558594-65.53125 117.933594-86.777344 134.082031-13.882812 10.550782-25.609375 14.363282-32.535156 15.25-.46875-4.757812-.371094-14.460937 3.300781-32.640625 3.515625 1.273438 7.121094 1.882813 10.675781 1.882813 12.457032 0 24.285157-7.425782 29.269532-19.65625 2.996094-7.359375 3-15.207032.585937-22.1875 10.820313-1.484375 20.589844-8.53125 24.996094-19.351563 3.183594-7.808593 3.132813-16.386719-.140625-24.15625-.339844-.808593-.714844-1.589843-1.117188-2.355469 8.503907-2.792968 15.78125-9.140624 19.414063-18.054687 3.632813-8.917969 2.871094-18.546875-1.257813-26.484375.820313-.269531 1.632813-.566406 2.433594-.902344 7.769532-3.273437 13.800782-9.375 16.980469-17.183594 3.632813-8.914062 2.871094-18.542968-1.257813-26.484374.820313-.265626 1.632813-.5625 2.433594-.902344 7.773438-3.269532 13.800782-9.371094 16.984375-17.179688 3.632813-8.914062 2.871094-18.546875-1.261719-26.484375.820313-.269531 1.632813-.5625 2.4375-.902343 7.769532-3.269532 13.800782-9.371094 16.980469-17.179688 3.179688-7.808594 3.132813-16.386719-.140625-24.15625-1.09375-2.59375-2.507812-4.988281-4.1875-7.152344 6.839844-3.425781 12.144532-9.136718 15.058594-16.285156 6.09375-14.964844-.171875-31.9375-14.003906-39.546875 4.214844-7.273437 8.164062-13.867187 11.8125-19.796875l.945312.003906 13.394532 12.925782c.75 47.007812-6.804688 121.09375-45.023438 214.898437zm98.632812 34.972656c-25.378906-64.332031-39.617187-126.789062-42.320312-185.632812-.003906-.09375-.019531-.183594-.027344-.273438.867188-6.871093 1.566406-13.484375 2.109375-19.835937 10.601563 44.679687 29.65625 110.515625 63.589844 196.53125 34.210937 86.722656 58.457031 130.578125 74.566406 152.691406-3.328125-1.855469-6.945312-4.164062-10.8125-7.050781-38.988281-29.09375-68.886719-90.25-87.105469-136.429688zm0 0"/></svg>