<svg height="511pt" viewBox="-100 1 511 511.99791" width="511pt" xmlns="http://www.w3.org/2000/svg"><path d="m201.03125 114.847656 32.394531-60.167968c4.980469-9.101563 5.976563-19.925782 2.546875-27.652344l-.003906-.011719c-5.207031-11.726563-27.035156-15.578125-36.996094-4.441406l-43.5 58.835937zm0 0" fill="#96d7a5"/><path d="m139.191406 79.273438c-23.429687 23.371093-157.675781 191.570312-125.382812 356.019531 9.699218 49.402343 63.585937 69.742187 101.046875 35.101562 14.34375-13.269531 25.003906-33.363281 25.65625-63.75 2.097656-97.234375-.660157-163.683593 50.585937-258.058593 34.375-63.304688-16.59375-104.539063-51.90625-69.3125zm0 0" fill="#b4e6a0"/><path d="m44.300781 445.355469c-29.433593-171.769531 108.96875-350.601563 133.011719-375.542969.464844-.476562.949219-.796875 1.417969-1.25-12.070313-4.636719-26.804688-1.996094-39.539063 10.710938-23.429687 23.371093-157.675781 191.570312-125.386718 356.019531 6.019531 30.644531 29.042968 50.070312 54.59375 52.164062-11.933594-9.257812-20.933594-23.628906-24.097657-42.101562zm0 0" fill="#96d7a5"/><path d="m140.511719 406.644531c2.097656-97.234375-.660157-163.683593 50.585937-258.058593 13.222656-24.351563 13.75-45.371094 7.464844-60.09375-40.609375 64.816406-119.734375 221.203124-84.070312 362.703124 1.296874 5.148438 3.125 9.832032 5.21875 14.242188 11.832031-13.167969 20.222656-31.953125 20.800781-58.792969zm0 0" fill="#cdf5a0"/><path d="m247.894531 106.761719 8.273438-67.832031c1.324219-10.289063-1.6875-20.734376-7.695313-26.683594l-.011718-.007813c-9.113282-9.027343-30.847657-4.671875-36.074219 9.328125l-19.09375 70.632813zm0 0" fill="#96d7a5"/><path d="m212.386719 21.566406-19.09375 70.632813 24.601562 6.5625 21.152344-90.890625c-10.105469-1.601563-22.824219 3.417968-26.660156 13.695312zm0 0" fill="#78c3a5"/><path d="m177.347656 96.136719c-13.316406 30.296875-77.125 235.824219 12.808594 377.238281 27.019531 42.480469 84.613281 41.808594 106.894531-4.089844 8.53125-17.578125 11.144531-40.175781.695313-68.714844-33.445313-91.332031-60.199219-152.214843-46.824219-258.769531 8.976563-71.476562-53.507813-91.328125-73.574219-45.664062zm0 0" fill="#b4e6a0"/><path d="m222.222656 471.644531c-89.9375-149.269531-26.125-366.210937-12.8125-398.195312.257813-.613281.59375-1.085938.863282-1.679688-12.925782.078125-25.6875 7.898438-32.925782 24.367188-13.3125 30.296875-77.125 235.824219 12.8125 377.238281 16.757813 26.347656 45.273438 36.0625 69.835938 28.710938-14.492188-4.277344-28.101563-14.386719-37.773438-30.441407zm0 0" fill="#96d7a5"/><path d="m297.746094 400.570312c-33.445313-91.332031-60.199219-152.214843-46.824219-258.769531 3.453125-27.496093-3.707031-47.261719-14.921875-58.6875-14.226562 75.152344-31 249.613281 53.726562 368.421875 3.082032 4.320313 6.488282 8.019532 10.042969 11.367188 6.226563-16.574219 7.203125-37.125-2.023437-62.332032zm0 0" fill="#cdf5a0"/><path d="m304.785156 397.992188c-2.484375-6.789063-4.933594-13.410157-7.332031-19.890626-29.75-80.429687-51.246094-138.542968-39.089844-235.363281 1.992188-15.875.703125-29.414062-2.78125-40.566406l8.023438-62.285156c1.632812-12.695313-2.140625-25.328125-9.855469-32.96875-.015625-.011719-.03125-.027344-.046875-.042969-6.089844-6.003906-15.769531-8.261719-25.90625-6.03125-5.699219 1.253906-10.734375 3.769531-14.710937 7.199219-8.875-.027344-16.898438 3.296875-22.148438 9.21875-.082031.089843-.160156.179687-.234375.277343l-33.714844 41.960938c-9.058593 1.867188-17.695312 6.765625-25.289062 14.410156-14.171875 14.261719-53.457031 64.183594-84.453125 127.460938-18.503906 37.777344-31.707032 75.167968-39.246094 111.125-9.222656 43.988281-9.945312 85.957031-2.148438 124.746094 5.378907 26.769531 22.921876 47.355468 46.925782 55.070312 6.375 2.046875 12.902344 3.050781 19.421875 3.050781 16.894531 0 33.683593-6.738281 47.320312-19.460937 17.921875-16.71875 27.261719-40.003906 27.761719-69.214844.085938-5.050781.160156-10.015625.230469-14.910156 8.101562 31.671875 20.261719 60.375 36.316406 85.621094 13.910156 21.871093 36.039063 34.601562 59.785156 34.597656 1.265625 0 2.542969-.035156 3.816407-.109375 24.007812-1.375 45.078124-16.078125 56.367187-39.332031 10.703125-22.042969 11.035156-47.132813.988281-74.5625zm-56.054687-360.023438-5.398438 41.878906c-3.542969-4.019531-7.503906-7.285156-11.707031-9.769531l13.054688-50.769531c3.335937 4.546875 4.945312 11.710937 4.050781 18.660156zm-18.613281-22.253906-12.613282 49.058594c-3.671875-.664063-7.320312-.796876-10.878906-.445313l12.847656-40.285156c1.761719-4.515625 6.480469-7.207031 10.644532-8.328125zm-27.851563 11.378906c.21875-.238281.460937-.449219.699219-.667969l-13.027344 40.863281c-4.269531-3.382812-9.0625-5.824218-14.15625-7.234374zm-69.980469 379.339844c-.429687 24.984375-8.164062 44.664062-22.996094 58.503906-12.960937 12.089844-28.753906 17.3125-44.300781 14.898438-4.917969-7.207032-8.488281-15.28125-10.589843-24.046876-12.589844-52.585937-9.675782-110.046874 8.667968-170.792968 13.757813-45.558594 36.683594-93.679688 66.304688-139.171875 2.257812-3.46875 1.277344-8.113281-2.195313-10.375-3.46875-2.261719-8.113281-1.277344-10.375 2.191406-30.382812 46.664063-53.929687 96.121094-68.09375 143.019531-19.121093 63.320313-22.113281 123.417969-8.894531 178.621094.976562 4.070312 2.21875 8.011719 3.714844 11.828125-11.574219-8.179687-19.820313-21.148437-22.96875-36.820313-7.394532-36.789062-6.679688-76.726562 2.125-118.714843 7.28125-34.742188 20.078125-70.945313 38.035156-107.605469 33.15625-67.691406 72.816406-114.625 81.621094-123.488281 6.148437-6.1875 14.214844-10.570313 22.410156-10.867188-6.554688 7.445313-16.144531 18.976563-27.769531 34.828125-2.449219 3.339844-1.726563 8.035156 1.613281 10.484375 1.335938.980469 2.890625 1.453125 4.429688 1.453125 2.308593 0 4.582031-1.0625 6.054687-3.066406 10.835937-14.773438 19.898437-25.722656 26.097656-32.824219-1.753906 2.652344-3.332031 5.527344-4.695312 8.632813-3.976563 9.046875-10.511719 28.324218-16.859375 53.917968-15.789063 32.59375-28.636719 65.621094-38.179688 98.171876-1.164062 3.976562 1.113282 8.144531 5.089844 9.308593.703125.207031 1.414062.304688 2.113281.304688 3.242188 0 6.234375-2.121094 7.191407-5.390625 3.132812-10.691406 6.640624-21.433594 10.492187-32.199219-1.078125 8.222656-2.015625 16.640625-2.765625 25.199219-1.792969 20.503906-2.429688 40.457031-1.929688 59.742187-2.242187 26.382813-2.625 53.9375-3.03125 83.101563-.09375 6.898437-.191406 13.941406-.316406 21.15625zm158.019532 59.574218c-7.742188 15.949219-20.597657 26.5-35.96875 29.84375-7.183594-4.953124-13.421876-11.199218-18.535157-18.621093-30.671875-44.53125-48.632812-99.191407-53.382812-162.472657-3.558594-47.453124.511719-100.601562 11.773437-153.703124.859375-4.050782-1.726562-8.03125-5.777344-8.894532-4.054687-.859375-8.035156 1.730469-8.894531 5.78125-11.554687 54.472656-15.722656 109.085938-12.058593 157.941406 4.949218 65.960938 23.789062 123.109376 55.988281 169.855469 2.371093 3.445313 4.953125 6.675781 7.71875 9.699219-13.742188-3.46875-26.101563-12.597656-34.679688-26.085938-20.136719-31.664062-33.84375-69.183593-40.746093-111.523437-5.707032-35.035156-6.796876-73.417969-3.238282-114.085937 6.574219-75.09375 26.683594-133.148438 31.707032-144.585938 3.921874-8.917969 9.964843-15.167969 16.960937-18.105469-3.433594 9.304688-8.210937 23.480469-13.335937 42.390625-1.082032 3.996094 1.28125 8.113282 5.277343 9.199219.65625.175781 1.316407.261719 1.964844.261719 3.304687 0 6.332031-2.199219 7.234375-5.539063 6.351562-23.429687 12.214844-39.480469 15.242188-47.179687 3.113281.910156 6.152343 2.40625 9 4.484375-6.5625 34.257812-15.792969 99.597656-9.589844 174.125.324218 3.917969 3.605468 6.878906 7.464844 6.878906.207031 0 .417968-.007813.628906-.027344 4.128906-.339843 7.195312-3.964843 6.851562-8.09375-5.34375-64.242187 1.058594-121.5 7.042969-157.0625 4.535156 10.015625 6.648437 23.5 4.527344 40.378907-12.613281 100.460937 9.417969 160.011718 39.90625 242.4375 2.390625 6.46875 4.835937 13.074218 7.3125 19.84375 8.59375 23.464843 8.460937 44.613281-.394531 62.859374zm0 0"/><path d="m235.457031 288.917969c-.589843-4.097657-4.390625-6.941407-8.492187-6.355469-4.101563.589844-6.945313 4.390625-6.355469 8.492188 4.703125 32.683593 12.367187 63.558593 22.785156 91.765624 1.117188 3.027344 3.984375 4.902344 7.035157 4.902344.863281 0 1.742187-.152344 2.597656-.464844 3.886718-1.4375 5.871094-5.75 4.4375-9.636718-10.054688-27.21875-17.457032-57.0625-22.007813-88.703125zm0 0"/><path d="m116.21875 270.984375c-4.039062-.925781-8.058594 1.597656-8.984375 5.636719-7.378906 32.1875-11.339844 63.75-11.769531 93.816406-.0625 4.140625 3.25 7.546875 7.390625 7.605469h.109375c4.089844 0 7.4375-3.285157 7.496094-7.390625.417968-29.011719 4.25-59.519532 11.390624-90.679688.925782-4.039062-1.59375-8.0625-5.632812-8.988281zm0 0"/></svg>