<svg height="512pt" viewBox="-123 0 512 512.00038" width="512pt" xmlns="http://www.w3.org/2000/svg"><path d="m246.132812 78.898438v-40.585938c0-5.089844-4.660156-8.910156-9.652343-7.910156l-41.277344 8.324218v52.945313zm0 0" fill="#e1ffa0"/><g fill="#b4e6a0"><path d="m158.828125 9.109375c3.5625-2.675781 8.621094-1.953125 11.292969 1.613281l19.535156 26.324219-56.648438 45.214844v-53.789063zm0 0"/><path d="m107.359375 9.109375c-3.566406-2.675781-8.621094-1.953125-11.296875 1.613281l-19.53125 26.324219 56.644531 45.214844v-53.789063zm0 0"/><path d="m70.3125 38.558594-40.441406-8.828125c-4.992188-1-9.648438 2.820312-9.648438 7.910156v39.578125l41.683594 12.101562zm0 0"/></g><path d="m221.929688 109.15625-22.820313 22.820312c-6.054687 6.050782-9.453125 14.257813-9.453125 22.820313v285.15625c0 26.738281-21.675781 48.410156-48.410156 48.410156h-8.066406v-387.277343h88.75zm0 0" fill="#e1ffa0"/><path d="m44.425781 109.15625 22.820313 22.820312c6.050781 6.050782 9.453125 14.257813 9.453125 22.820313v285.15625c0 26.738281 21.671875 48.410156 48.410156 48.410156h8.066406v-387.277343h-88.75zm0 0" fill="#b4e6a0"/><path d="m126.695312 72.402344-51.597656-39.636719c-4.027344-3.09375-9.898437-.636719-10.519531 4.40625l-4.898437 39.796875c-.441407 3.566406-3.9375 5.914062-7.402344 4.96875l-34.570313-9.410156c-6.023437-1.640625-11.550781 3.890625-9.90625 9.910156l10.15625 37.242188c1.914063 7.019531 8.289063 11.890624 15.566407 11.890624h33.316406v-3.195312c0-6.125 6.558594-10.015625 11.933594-7.082031l35.28125 19.246093 16.296874-57.070312c1.167969-4.085938-.28125-8.476562-3.65625-11.066406zm0 0" fill="#96d7a5"/><path d="m258.554688 82.433594-10.15625 37.246094c-1.917969 7.019531-8.292969 11.890624-15.570313 11.890624h-33.316406v-33.316406c0-7.277344 4.871093-13.652344 11.890625-15.570312l37.246094-10.15625c6.023437-1.640625 11.546874 3.886718 9.90625 9.90625zm0 0" fill="#cdf5a0"/><path d="m201.890625 37.171875c-.621094-5.042969-6.488281-7.5-10.519531-4.40625l-51.597656 39.636719c-3.375 2.589844-4.824219 6.980468-3.65625 11.070312l5.03125 17.613282h-32.175782v387.277343c0 8.914063 7.222656 16.136719 16.136719 16.136719h16.132813c8.914062 0 16.136718-7.222656 16.136718-16.136719v-336.164062c0-8.855469 4.839844-17.003907 12.613282-21.246094l34.523437-18.835937c3.734375-2.035157 5.84375-6.148438 5.324219-10.367188zm0 0" fill="#cdf5a0"/><path d="m133.175781 141.429688 28.847657-36.0625c2.070312-2.582032 2.347656-6.167969.707031-9.042969l-29.554688-51.714844-29.550781 51.714844c-1.640625 2.875-1.363281 6.460937.703125 9.042969zm0 0" fill="#b4e6a0"/><path d="m261.777344 69.304688c-2.289063-2.289063-5.121094-3.757813-8.144532-4.316407v-26.675781c0-4.683594-2.078124-9.070312-5.699218-12.039062s-8.332032-4.148438-12.921875-3.226563l-27.914063 5.582031c-1.28125-1.75-3.019531-3.167968-5.101562-4.066406-3.742188-1.613281-7.910156-1.289062-11.351563.800781l-14.355469-19.140625c-5.152343-6.867187-14.929687-8.265625-21.792968-3.113281l-21.320313 15.988281-21.316406-15.988281c-6.867187-5.152344-16.644531-3.757813-21.796875 3.113281l-14.355469 19.140625c-3.4375-2.089843-7.609375-2.414062-11.347656-.800781-2.085937.898438-3.820313 2.316406-5.101563 4.066406l-27.914062-5.582031c-4.59375-.917969-9.304688.257813-12.925781 3.226563-3.621094 2.96875-5.695313 7.355468-5.695313 12.039062v26.675781c-3.027344.5625-5.855468 2.027344-8.148437 4.316407-4 4-5.5 9.648437-4.011719 15.105468l10.160156 37.242188c2.796875 10.253906 12.175782 17.417968 22.804688 17.417968h29.96875c3.695312 4.613282 5.703125 10.296876 5.703125 16.292969v281.953125c0 23.144532 12.730469 44.617188 32.765625 55.851563 2.226562 10.738281 11.757812 18.832031 23.144531 18.832031h16.136719c11.386718 0 20.914062-8.089844 23.144531-18.824219 20.039063-11.234375 32.773437-32.710937 32.773437-55.859375v-281.953125c0-5.996093 2.011719-11.679687 5.703126-16.292969h29.960937c10.632813 0 20.007813-7.164062 22.804687-17.417968l10.160157-37.242188c1.484375-5.457031-.015625-11.105468-4.015625-15.105468zm-23.824219-31.546876c.070313-.015624.261719-.054687.472656.117188.207031.167969.207031.367188.207031.4375v29.171875l-23.777343 6.484375-4.242188-30.742188zm-37.394531 42.332032c-5.273438 4.394531-8.546875 10.988281-8.546875 18.164062v5.863282l-27.128907 21.707031v-12.023438l3-3.746093c4.015626-5.019532 4.546876-11.871094 1.359376-17.453126l-13.675782-23.925781 39.535156-28.144531zm-90.371094 20.59375c-.148438-.183594-.167969-.433594-.050781-.636719l23.039062-40.320313 23.042969 40.320313c.117188.203125.097656.453125-.050781.636719l-22.992188 28.738281zm53.308594-85.574219c.046875-.035156.183594-.140625.421875-.109375.230469.035156.339843.175781.375.222656l14.09375 18.792969-30.296875 21.570313-7.414063-12.96875v-10.394532zm-61.433594.113281c.035156-.046875.140625-.1875.375-.222656.234375-.03125.375.074219.421875.109375l22.816406 17.113281v10.394532l-7.410156 12.96875-30.300781-21.570313zm-30.808594 25.308594 39.53125 28.144531-13.671875 23.925781c-3.191406 5.582032-2.65625 12.433594 1.359375 17.449219l3 3.75v12.023438l-27.132812-21.707031v-5.863282c0-7.175781-3.269532-13.769531-8.542969-18.164062zm-43.324218-2.65625c.207031-.171875.398437-.132812.472656-.117188l27.335937 5.46875-4.242187 30.742188-23.773438-6.484375v-29.171875c-.003906-.074219-.003906-.269531.207032-.4375zm31.410156 86.195312h-25.816406c-3.882813 0-7.308594-2.617187-8.332032-6.363281l-10.15625-37.246093c-.035156-.117188-.085937-.316407.144532-.550782.234374-.230468.433593-.179687.554687-.144531l37.242187 10.15625c3.746094 1.023437 6.363282 4.449219 6.363282 8.332031zm122.824218 313.246094c0 14.488282-6.519531 28.121094-17.28125 37.3125v-276.722656c0-4.144531-3.359374-7.5-7.5-7.5-4.144531 0-7.5 3.355469-7.5 7.5v290.457031c0 4.761719-3.875 8.636719-8.636718 8.636719h-16.136719c-4.746094 0-8.609375-3.847656-8.636719-8.589844.003906-.144531 0-32.316406 0-32.316406 0-4.140625-3.359375-7.5-7.5-7.5-4.144531 0-7.5 3.359375-7.5 7.5v18.527344c-10.757812-9.191406-17.273437-22.820313-17.273437-37.304688v-281.953125c0-9.902343-3.484375-19.261719-9.859375-26.707031v-5.328125l27.132812 21.703125v278.785156c0 4.140625 3.355469 7.5 7.5 7.5 4.140625 0 7.5-3.359375 7.5-7.5v-291.261718l10.847656 13.558593c1.421876 1.777344 3.578126 2.816407 5.855469 2.816407 2.277344 0 4.433594-1.039063 5.855469-2.816407l10.847656-13.558593v33.078124c0 4.140626 3.359375 7.5 7.5 7.5 4.144532 0 7.5-3.359374 7.5-7.5v-20.601562l27.132813-21.703125v5.339844c-6.367188 7.441406-9.851563 16.796875-9.851563 26.695312v281.953125zm69.152344-356.855468-10.15625 37.246093c-1.023437 3.746094-4.449218 6.363281-8.332031 6.363281h-25.816406v-25.816406c0-3.882812 2.617187-7.308594 6.363281-8.332031l37.246094-10.15625c.117187-.035156.316406-.085937.550781.144531.234375.234375.179687.433594.144531.550782zm0 0"/></svg>