<svg height="511pt" viewBox="-32 0 511 511.99929" width="511pt" xmlns="http://www.w3.org/2000/svg"><path d="m290.960938 100.789062c5.449218 11.03125 12.492187 27.421876 18.328124 48.066407l19.355469-19.867188c-11.339843-13.292969-23.285156-24.578125-32.230469-32.410156-2.902343-2.542969-7.160156.753906-5.453124 4.210937zm0 0" fill="#cdf5a0"/><path d="m335.882812 140.011719s-13.09375 24.066406-16.625 72.105469c5.160157 8.015624 14.285157 14.703124 29.988282 12.296874 6.648437-1.019531 11.566406-6.832031 11.566406-13.558593 0-26.546875-11.113281-50.859375-24.929688-70.84375zm0 0" fill="#cdf5a0"/><path d="m335.882812 151.441406c4.175782-12.027344 8.359376-21.550781 11.628907-28.277344 1.441406-2.972656-2.101563-5.851562-4.730469-3.847656-16.753906 12.777344-48.082031 40.246094-60.972656 74.855469-4.136719 11.105469 3.023437 23.355469 14.796875 24.734375.816406.097656 1.644531.21875 2.476562.367188 10.648438 1.921874 20.785157-4.8125 22.320313-15.523438 4.996094-34.847656 14.480468-52.308594 14.480468-52.308594zm0 0" fill="#afdc82"/><path d="m98.855469 21.5c4.777343 9.664062 10.945312 24.027344 16.0625 42.113281l16.957031-17.40625c-9.9375-11.648437-20.40625-21.53125-28.242188-28.398437-2.539062-2.226563-6.273437.660156-4.777343 3.691406zm0 0" fill="#cdf5a0"/><path d="m183.347656 162.757812c-10.054687-6.34375-16.207031-17.324218-16.207031-29.214843v-3.988281c0-25.9375-10.855469-49.691407-24.355469-69.21875 4.074219-11.730469 8.15625-21.027344 11.34375-27.59375 1.417969-2.921876-2.058594-5.734376-4.640625-3.765626-20.957031 15.992188-65.273437 55.421876-65.273437 102.910157v1.65625c0 11.890625-6.152344 22.871093-16.203125 29.214843-35.6875 22.511719-59.8125 65.183594-59.8125 114.25 0 72.515626 52.597656 131.300782 117.480469 131.300782 64.882812 0 117.476562-58.785156 117.476562-131.300782 0-49.066406-24.125-91.742187-59.808594-114.25zm0 0" fill="#ff8087"/><path d="m125.679688 154.347656v189.828125h100.808593c10.515625-19.667969 16.667969-42.589843 16.667969-67.167969 0-49.066406-24.125-91.742187-59.808594-114.25-10.054687-6.34375-16.207031-17.324218-16.207031-29.214843v-3.988281c0-25.9375-10.855469-49.691407-24.355469-69.214844 0-.003906-17.105468 31.328125-17.105468 94.007812zm0 0" fill="#ff9ba0"/><path d="m142.785156 60.335938s-12.792968 23.511718-16.242187 70.449218c5.042969 7.832032 13.957031 14.367188 29.300781 12.015625 6.492188-.996093 11.296875-6.679687 11.296875-13.246093 0-25.9375-10.855469-49.691407-24.355469-69.21875zm0 0" fill="#cdf5a0"/><path d="m192.476562 300.089844-40.460937-55.523438c-7.097656-9.738281-11.375-21.261718-12.164063-33.289062-1.207031-18.449219-4.609374-46.273438-14.171874-56.929688-9.566407 10.65625-12.964844 38.484375-14.175782 56.929688-.789062 12.027344-5.066406 23.546875-12.164062 33.289062l-40.457032 55.523438s-.582031 30.726562 2.089844 32.730468c2.671875 2.003907 66.132813 46.09375 66.132813 46.09375l65.464843-72.144531zm0 0" fill="#e6646e"/><path d="m128.105469 408.167969c44.554687-1.015625 82.953125-29.707031 102.074219-71.367188 6.570312-52.273437-14.699219-85.230469-29.992188-101.640625-3.394531-3.640625-9.40625-.339844-8.046875 4.449219 3.390625 11.957031 6.203125 28.566406 2.425781 44.308594-9.335937 38.894531-48.679687 56.625-72.636718 79.800781zm0 0" fill="#e6646e"/><path d="m56.574219 283.917969c-3.851563-16.046875-.851563-32.992188 2.625-44.996094 1.359375-4.699219-4.402344-8.238281-7.828125-4.75-15.503906 15.796875-37.597656 48.390625-30.574219 101.75 19.328125 42.894531 58.980469 72.382813 104.882813 72.382813 7.46875 0 14.753906-.863282 21.835937-2.355469-7.214844-57.609375-77.203125-64.796875-90.941406-122.03125zm0 0" fill="#dc4655"/><path d="m54.917969 263.117188c.492187-9 2.324219-17.46875 4.316406-24.316407 1.359375-4.671875-4.433594-8.117187-7.847656-4.644531-5.484375 5.589844-11.785157 13.3125-17.335938 23.304688-2.890625 5.199218-1.046875 11.820312 4.058594 14.878906 7.285156 4.375 16.34375-.738282 16.808594-9.222656zm0 0" fill="#96cd82"/><g fill="#afdc82"><path d="m196.210938 263.117188c-.492188-9-2.324219-17.46875-4.316407-24.316407-1.359375-4.671875 4.4375-8.117187 7.847657-4.644531 5.488281 5.589844 11.789062 13.3125 17.339843 23.304688 2.890625 5.199218 1.042969 11.820312-4.058593 14.878906-7.289063 4.375-16.347657-.738282-16.8125-9.222656zm0 0"/><path d="m128.640625 223.933594c6.726563 0 11.679687-5.816406 11.222656-12.527344-.003906-.042969-.007812-.085938-.011719-.128906-1.207031-18.449219-4.609374-46.273438-14.171874-56.929688-9.566407 10.65625-12.964844 38.484375-14.175782 56.929688-.003906.042968-.007812.085937-.011718.128906-.457032 6.710938 4.496093 12.527344 11.222656 12.527344zm0 0"/><path d="m142.785156 60.335938c4.082032-11.75 8.167969-21.054688 11.359375-27.628907 1.414063-2.902343-2.050781-5.714843-4.617187-3.757812-16.367188 12.484375-46.976563 39.324219-59.570313 73.132812-4.042969 10.851563 2.953125 22.820313 14.453125 24.167969.800782.09375 1.605469.214844 2.421875.359375 10.402344 1.878906 20.308594-4.703125 21.804688-15.167969 4.882812-34.042968 14.148437-51.105468 14.148437-51.105468zm0 0"/></g><path d="m360.710938 223.933594v-8.015625c0-8.851563-7.179688-16.03125-16.035157-16.03125h-48.097656c-8.851563 0-16.03125 7.179687-16.03125 16.03125v8.015625c0 11.097656-5.753906 21.480468-15.34375 27.058594-38.492187 22.386718-64.816406 67.265624-64.816406 119.121093 0 74.21875 53.832031 134.386719 120.242187 134.386719s120.242188-60.167969 120.242188-134.386719c0-51.855469-26.324219-96.734375-64.816406-119.121093-9.59375-5.578126-15.34375-15.964844-15.34375-27.058594zm0 0" fill="#ff8087"/><path d="m329.191406 231.953125c2.734375 20.191406 15.449219 40.140625 33.355469 51.4375 28.535156 18 46.257813 52.414063 46.257813 89.816406 0 56.425781-39.554688 102.324219-88.175782 102.324219s-88.175781-45.898438-88.175781-102.324219c0-37.402343 17.722656-71.816406 46.257813-89.816406 17.90625-11.296875 30.621093-31.246094 33.355468-51.4375z" fill="#edebed"/><path d="m320.628906 239.96875c-8.855468 0-16.03125-7.179688-16.03125-16.035156v-24.046875h32.0625v24.046875c0 8.855468-7.175781 16.035156-16.03125 16.035156zm0 0" fill="#a06e50"/><path d="m379.824219 244.507812c-7.164063-4.167968-11.613281-12.050781-11.613281-20.574218v-8.015625c0-25.859375-7.730469-52.777344-20.746094-72.683594 8.046875-20.882813 15.9375-32.203125 16.066406-32.382813 2.074219-2.90625 1.8125-6.867187-.621094-9.476562s-6.367187-3.144531-9.410156-1.273438c-.605469.371094-11.523438 7.132813-25.164062 18.816407-18.058594-19.894531-34.933594-31.84375-35.703126-32.386719-2.9375-2.0625-6.925781-1.753906-9.511718.734375-2.585938 2.492187-3.046875 6.464844-1.097656 9.480469.113281.171875 10.953124 17.128906 20.242187 48.492187-19.171875 23.28125-29.21875 47.46875-29.21875 70.679688v8.015625c0 8.523437-4.449219 16.40625-11.613281 20.574218-4.46875 2.597657-8.742188 5.472657-12.84375 8.578126-1.460938-9.3125-3.761719-18.355469-6.839844-27.011719 10.960938-42.21875-11.773438-69.417969-12.75-70.558594-2.683594-3.132813-7.382812-3.496094-10.53125-.828125s-3.539062 7.394531-.886719 10.554688c.585938.699218 11.179688 13.65625 12.082031 35.148437-10.6875-17.859375-25.128906-33.007813-42.519531-43.976563-7.957031-5.019531-12.707031-13.570312-12.707031-22.871093v-3.988281c0-23.46875-8.199219-47.503907-24.335938-71.484376 8.023438-20.867187 15.875-32.171874 16.03125-32.394531 2.085938-2.921875 1.808594-6.910156-.660156-9.515625-2.472656-2.609375-6.441406-3.097656-9.46875-1.167968-.601562.378906-11.332031 7.261718-24.765625 19.085937-18.167969-20.089844-35.230469-32.171875-36.003906-32.71875-2.933594-2.058594-6.914063-1.75-9.5.730469-2.585937 2.484375-3.050781 6.457031-1.113281 9.472656.113281.179688 11.25 17.722656 20.554687 49.546875-18.808593 23.460937-28.660156 47.679687-28.660156 70.777344v1.65625c0 9.300781-4.75 17.851562-12.707031 22.871093-17.015625 10.730469-31.21875 25.5625-41.832032 42.992188 1.171876-20.859375 11.417969-33.417969 12.039063-34.160156 2.671875-3.144532 2.300781-7.863282-.839844-10.550782-3.144531-2.695312-7.878906-2.328124-10.574219.820313-.96875 1.132813-23.363281 27.945313-12.972656 69.636719-5.925781 16.246094-9.128906 33.816406-9.128906 51.855468 0 22.378907 4.800781 43.535157 13.308594 62.277344.199218.640625.480468 1.242188.828125 1.792969 20.878906 44.367187 62.726562 74.726563 110.839843 74.726563 24.582032 0 48.683594-8.128907 69.039063-23.089844 9.773437 67.53125 62.601563 119.285156 126.113281 119.285156 70.4375 0 127.742188-63.652344 127.742188-141.890625 0-52.882813-26.265625-101.011719-68.546875-125.601563zm-28.722657-51.222656c-2.042968-.582031-4.199218-.898437-6.425781-.898437h-10.46875c1.84375-11.074219 4.222657-21.128907 6.835938-30.089844 4.59375 9.457031 8.035156 20.042969 10.058593 30.988281zm-33.855468-64.253906c-1.097656 1.070312-2.199219 2.167969-3.304688 3.289062-1.261718-3.835937-2.539062-7.429687-3.792968-10.78125 2.320312 2.339844 4.703124 4.851563 7.097656 7.492188zm18.210937 3.636719c-6.113281 14.847656-12.554687 34.898437-16.457031 59.71875h-22.421875c-1.609375 0-3.183594.164062-4.707031.472656 8.050781-24.683594 27.355468-45.847656 43.585937-60.191406zm-8.183593 74.71875v14.191406c0 3.664063-2.980469 6.644531-6.644532 6.644531-3.664062 0-6.644531-2.980468-6.644531-6.644531v-14.191406zm-167.835938-77.832031v3.988281c0 14.480469 7.367188 27.773437 19.707031 35.558593 31.628907 19.953126 52.335938 55.652344 55.789063 95.898438-1.191406 1.191406-2.355469 2.40625-3.5 3.644531-13.722656-36.566406-40.8125-51.921875-42.074219-52.621093-2.863281-1.582032-6.421875-1.128907-8.792969 1.125-2.375 2.25-3.011718 5.777343-1.582031 8.71875.136719.285156 13.363281 27.917968 8.6875 53.417968l-30.652344-42.0625c-6.101562-8.378906-9.679687-18.160156-10.34375-28.285156-1.824219-27.808594-6.425781-47.003906-13.683593-57.167969.261718-30.105469 5.042968-55.449219 10.898437-75.335937 10.324219 18.050781 15.546875 35.867187 15.546875 53.121094zm-39.15625-85.21875c-1.160156 1.160156-2.324219 2.347656-3.492188 3.566406-1.34375-4.117188-2.699218-7.96875-4.039062-11.535156 2.460938 2.480468 4.988281 5.152343 7.53125 7.96875zm-104.78125 232.671874c0-44.648437 21.574219-85.996093 56.308594-107.90625 12.339844-7.785156 19.707031-21.078124 19.707031-35.558593v-1.65625c0-34.019531 25.324219-64.230469 46.046875-83.257813-9.316406 22.933594-19.199219 57.820313-19.570312 103.097656-7.273438 10.144532-11.886719 29.359376-13.714844 57.210938-.664063 10.125-4.242188 19.90625-10.347656 28.285156l-7.988282 10.960938c-2.4375 3.351562-1.703125 8.039062 1.644532 10.480468 3.347656 2.441407 8.039062 1.703126 10.480468-1.644531l7.988282-10.964843c7.78125-10.675782 12.34375-23.171876 13.191406-36.132813 1.066406-16.234375 3.269531-29.839844 6.230468-39.191406 2.960938 9.351562 5.167969 22.957031 6.230469 39.191406.851563 12.960937 5.414063 25.457031 13.191407 36.132813l36.859374 50.585937c-8.433593 16.597656-23.007812 27.664063-38.257812 39.234375-6.070312 4.609375-12.296875 9.339844-18.125 14.460938-5.808594-5.105469-12.003906-9.804688-18.136719-14.460938-15.199219-11.527344-29.726562-22.558594-38.171875-39.0625l10.625-14.582031c2.441406-3.347657 1.703125-8.039063-1.644531-10.480469-3.347656-2.4375-8.039063-1.703125-10.476563 1.644531l-4.46875 6.128907c-4.765624-25.457032 8.515626-53.375 8.652344-53.65625 1.429688-2.941407.789063-6.46875-1.585937-8.722657-2.371094-2.25-5.929688-2.703125-8.789063-1.121093-.644531.355468-15.945312 8.957031-29.425781 28.425781-6.117187 8.835937-12.449219 20.867187-16.402344 36.296875-.03125-1.242188-.050781-2.488282-.050781-3.738282zm109.976562 123.800782c-36.003906 0-68.015624-19.582032-88.089843-49.773438-6.910157-10.398437-10.558594-22.628906-10.832031-35.113281-.515626-23.742187 5.277343-44.644531 17.316406-62.324219 1.828125-2.6875 3.703125-5.136718 5.558594-7.355468-2.445313 11.65625-3.636719 25.742187-.351563 39.425781 7.3125 30.457031 28.550781 46.574219 49.09375 62.15625 19.664063 14.917969 36.796875 27.925781 41.207031 52.015625-4.570312.640625-9.210937.96875-13.902344.96875zm67.484376-26.085938c-11.742188 10.300782-24.890626 17.671875-38.917969 21.890625-2.804688-14.773437-9.460938-26.128906-17.960938-35.722656 5.132813-4.449219 10.6875-8.667969 16.484375-13.0625 20.542969-15.585937 41.78125-31.699219 49.09375-62.160156 3.285156-13.695313 2.09375-27.792969-.355468-39.453125 7.101562 8.511718 14.476562 20.449218 18.871093 36.300781-17.394531 24.523437-27.289062 55.160156-27.289062 87.597656 0 1.542969.03125 3.078125.074219 4.609375zm127.667968 122.277344c-62.167968 0-112.742187-56.921875-112.742187-126.886719 0-47.566406 23.40625-90.726562 61.089843-112.640625 11.761719-6.839844 19.070313-19.691406 19.070313-33.539062v-8.015625c0-4.703125 3.828125-8.53125 8.53125-8.53125h2.402344v14.191406c0 5.21875 1.859375 10.011719 4.945312 13.753906-3.21875 15.59375-12.726562 28.957031-26.371093 36.894531-32.445313 18.871094-52.605469 56.378907-52.605469 97.886719 0 60.558594 42.921875 109.824219 95.679687 109.824219 52.757813 0 95.675782-49.265625 95.675782-109.824219 0-41.507812-20.15625-79.015625-52.601563-97.886719-3.582031-2.082031-8.171875-.867187-10.253906 2.710938-2.085938 3.582031-.871094 8.171875 2.710937 10.257812 27.847656 16.191407 45.144532 48.730469 45.144532 84.917969 0 52.285157-36.191407 94.824219-80.675782 94.824219-44.488281 0-80.679687-42.539062-80.679687-94.824219 0-36.1875 17.300781-68.726562 45.148437-84.917969 15.980469-9.300781 27.507813-24.417968 32.414063-42.199218 1.019531.148437 2.058593.230468 3.117187.230468 1.0625 0 2.105469-.082031 3.128906-.230468 1.421876 5.121094 3.398438 10.074218 5.9375 14.777344 1.355469 2.515624 3.9375 3.941406 6.609376 3.941406 1.199218 0 2.417968-.289063 3.550781-.898438 3.648437-1.96875 5.007812-6.515625 3.042969-10.164062-2.601563-4.816406-4.46875-9.960938-5.574219-15.308594 3.089843-3.746094 4.949219-8.542969 4.949219-13.765625v-14.191406h2.402343c4.707031 0 8.535157 3.828125 8.535157 8.535156v8.015625c0 13.84375 7.304687 26.695312 19.070312 33.539062 37.679688 21.914063 61.089844 65.074219 61.089844 112.636719 0 69.964844-50.574219 126.886719-112.742188 126.886719zm0 0"/><path d="m304.675781 336.675781h-.078125c-4.144531 0-7.460937 3.359375-7.460937 7.5 0 4.144531 3.398437 7.5 7.539062 7.5s7.5-3.355469 7.5-7.5c0-4.140625-3.355469-7.5-7.5-7.5zm0 0"/><path d="m368.726562 351.675781c4.140626 0 7.5-3.355469 7.5-7.5 0-4.140625-3.359374-7.5-7.5-7.5h-.082031c-4.140625 0-7.460937 3.359375-7.460937 7.5 0 4.144531 3.402344 7.5 7.542968 7.5zm0 0"/><path d="m328.726562 376.757812h-.082031c-4.144531 0-7.460937 3.359376-7.460937 7.5 0 4.144532 3.398437 7.5 7.542968 7.5 4.140626 0 7.5-3.355468 7.5-7.5 0-4.140624-3.359374-7.5-7.5-7.5zm0 0"/><path d="m264.59375 376.757812h-.078125c-4.140625 0-7.460937 3.359376-7.460937 7.5 0 4.144532 3.398437 7.5 7.539062 7.5 4.144531 0 7.503906-3.355468 7.503906-7.5 0-4.140624-3.359375-7.5-7.503906-7.5zm0 0"/><path d="m328.644531 327.628906c4.140625 0 7.5-3.359375 7.5-7.5s-3.359375-7.5-7.5-7.5h-.078125c-4.144531 0-7.460937 3.359375-7.460937 7.5s3.398437 7.5 7.539062 7.5zm0 0"/><path d="m344.757812 424.855469h-.082031c-4.140625 0-7.457031 3.359375-7.457031 7.5s3.394531 7.5 7.539062 7.5c4.140626 0 7.5-3.359375 7.5-7.5s-3.359374-7.5-7.5-7.5zm0 0"/><path d="m288.5625 304.613281h-.078125c-4.144531 0-7.460937 3.355469-7.460937 7.5 0 4.140625 3.398437 7.5 7.539062 7.5 4.144531 0 7.5-3.359375 7.5-7.5 0-4.144531-3.355469-7.5-7.5-7.5zm0 0"/><path d="m304.675781 408.824219h-.078125c-4.144531 0-7.460937 3.355469-7.460937 7.5 0 4.140625 3.398437 7.5 7.539062 7.5s7.5-3.359375 7.5-7.5c0-4.144531-3.355469-7.5-7.5-7.5zm0 0"/></svg>