<svg height="512pt" viewBox="0 -1 512.00033 512" width="512pt" xmlns="http://www.w3.org/2000/svg"><path d="m297.679688 185.460938c0 61.976562-50.242188 112.21875-112.222657 112.21875-61.976562 0-112.21875-50.242188-112.21875-112.21875 0-61.976563 50.242188-112.222657 112.21875-112.222657 61.980469 0 112.222657 50.246094 112.222657 112.222657zm0 0" fill="#ff8087"/><path d="m228.023438 255.113281c-61.976563 0-112.21875-50.242187-112.21875-112.21875 0-20.050781 5.320312-38.832031 14.535156-55.121093-34.066406 19.265624-57.101563 55.757812-57.101563 97.6875 0 61.976562 50.242188 112.21875 112.21875 112.21875 41.929688 0 78.421875-23.035157 97.6875-57.101563-16.289062 9.214844-35.070312 14.535156-55.121093 14.535156zm0 0" fill="#e6646e"/><path d="m437.167969 325.40625c0 61.09375-49.527344 110.625-110.625 110.625-61.09375 0-110.625-49.53125-110.625-110.625s49.53125-110.625 110.625-110.625c61.097656 0 110.625 49.53125 110.625 110.625zm0 0" fill="#ffc369"/><path d="m405.101562 325.40625c0 43.386719-35.171874 78.558594-78.558593 78.558594s-78.558594-35.171875-78.558594-78.558594 35.171875-78.558594 78.558594-78.558594 78.558593 35.171875 78.558593 78.558594zm0 0" fill="#fff6d8"/><path d="m326.542969 403.964844c25.335937 0 47.808593-12.046875 62.175781-30.667969-13.265625 10.234375-29.84375 16.382813-47.890625 16.382813-43.386719 0-78.558594-35.171876-78.558594-78.558594 0-18.046875 6.148438-34.625 16.382813-47.890625-18.621094 14.367187-30.667969 36.839843-30.667969 62.175781 0 43.386719 35.171875 78.558594 78.558594 78.558594zm0 0" fill="#ffedb1"/><path d="m509.789062 311.964844c2.929688-2.929688 2.957032-7.703125.027344-10.632813-2.929687-2.929687-7.652344-2.953125-10.582031-.023437-.042969.039062-4.398437 4.171875-13.90625 8.253906-7.855469 3.375-20.75 7.3125-39.15625 8.160156-.320313-5.015625-.945313-9.945312-1.863281-14.773437 26.285156-10.871094 35.445312-25.484375 35.839844-26.125 2.15625-3.535157 1.0625-8.183594-2.476563-10.34375-3.535156-2.15625-8.128906-1.074219-10.285156 2.460937-.074219.113282-7 10.628906-26.855469 19.316406-1.664062-5.097656-3.65625-10.050781-5.960938-14.824218 22.613282-17.269532 27.714844-33.742188 27.929688-34.46875 1.175781-3.96875-1.078125-8.183594-5.050781-9.359375-3.96875-1.175781-8.132813 1.050781-9.308594 5.023437-.039063.128906-4.039063 12.082032-21.019531 25.597656-3.257813-5.011718-6.878906-9.761718-10.824219-14.21875 29.9375-32.519531 30.324219-58.546874 30.324219-59.695312 0-4.144531-3.359375-7.5-7.5-7.5s-7.5 3.355469-7.5 7.5c0 .050781-.15625 5.636719-3.640625 14.691406-3.132813 8.144532-9.515625 20.390625-22.3125 34.402344-3.71875-3.273438-7.640625-6.324219-11.742188-9.121094 10.921875-26.304687 7.0625-43.128906 6.886719-43.859375-.976562-4.027343-5.039062-6.542969-9.0625-5.566406-4.027344.976563-6.511719 4.988281-5.535156 9.015625.027344.132812 2.566406 12.46875-5.335938 32.664062-4.726562-2.414062-9.636718-4.515624-14.695312-6.292968 2.296875-17.070313.347656-29.289063-1.792969-36.6875 2.722656-1.941406 4.128906-3.308594 4.339844-3.519532 2.925781-2.929687 2.953125-7.703124.023437-10.632812-2.929687-2.929688-7.652344-2.953125-10.582031-.023438-.042969.042969-4.394531 4.171876-13.90625 8.257813-3.800781 1.628906-8.785156 3.394531-14.996094 4.878906-2.417969-8.882812-5.417969-15.769531-8.175781-20.859375 12.777344-8.4375 17.707031-16.292968 17.992188-16.761718 2.15625-3.535157 1.039062-8.148438-2.496094-10.308594-3.539063-2.15625-8.152344-1.039063-10.308594 2.496094-.066406.113281-6.878906 10.539062-26.8125 19.25-1.664062-5.101563-3.65625-10.054688-5.960938-14.828126 22.613282-17.269531 27.714844-33.742187 27.929688-34.46875 1.175781-3.96875-1.078125-8.183593-5.050781-9.359374-3.96875-1.175782-8.132813 1.050781-9.308594 5.023437-.039063.128906-4.039063 12.082031-21.019531 25.59375-3.257813-5.007813-6.878906-9.757813-10.824219-14.214844 29.9375-32.519531 30.324219-58.546875 30.324219-59.695312 0-4.144531-3.359375-7.5-7.5-7.5-4.144532 0-7.5 3.355469-7.5 7.5 0 .050781-.15625 5.636719-3.640625 14.691406-3.132813 8.144531-9.515625 20.386719-22.3125 34.402344-3.71875-3.273438-7.640625-6.324219-11.742188-9.121094 10.921875-26.304687 7.0625-43.128906 6.886719-43.859375-.976562-4.027344-5.039062-6.542969-9.0625-5.566406-4.027344.976562-6.511719 4.988281-5.535156 9.015625.027344.132812 2.566406 12.46875-5.335938 32.664062-4.726562-2.410156-9.632812-4.515625-14.691406-6.292969 3.78125-28.199218-4.265625-43.453124-4.625-44.113281-1.976562-3.636719-6.53125-4.988281-10.171875-3.011719-3.636719 1.976563-4.984375 6.53125-3.011719 10.171876.0625.113281 5.671875 11.230468 3.207032 32.847656-5.765626-1.230469-11.683594-2.046875-17.71875-2.414063-1.832032-44.117187-19.953126-62.78125-20.765626-63.589843-2.925781-2.929688-7.699218-2.957032-10.628906-.027344-2.929687 2.929687-2.953125 7.652344-.023437 10.582031.039062.042969 4.171875 4.398437 8.253906 13.90625 3.375 7.855469 7.3125 20.75 8.160156 39.15625-5.015625.320313-9.945312.945313-14.777343 1.867187-10.875-26.285156-25.472657-35.445312-26.121094-35.839843-3.535156-2.15625-8.183594-1.0625-10.34375 2.472656-2.15625 3.535156-1.074219 8.128906 2.460937 10.285156.117188.074219 10.625 7.003907 19.316407 26.859375-5.097657 1.664063-10.050782 3.65625-14.824219 5.960938-17.273438-22.617188-33.738281-27.714844-34.46875-27.929688-3.972657-1.179687-8.144531 1.089844-9.320313 5.0625-1.175781 3.96875 1.089844 8.144532 5.0625 9.320313.125.035156 11.972656 3.949219 25.519532 20.996093-5.011719 3.253907-9.761719 6.878907-14.21875 10.824219-32.519532-29.941406-58.546876-30.324219-59.695313-30.324219-4.144531 0-7.535156 3.355469-7.535156 7.5 0 4.140626 3.320312 7.496094 7.460937 7.496094.0625.003906 6.0625.160156 15.671875 3.996094 7.945313 3.171875 19.867188 9.515625 33.496094 21.957031-3.273437 3.71875-6.320313 7.636719-9.121094 11.742188-26.308593-10.917969-43.113281-7.066407-43.859375-6.886719-4.027344.976562-6.539062 5.039062-5.5625 9.0625.972656 4.027344 4.988282 6.511719 9.011719 5.535156.136719-.03125 12.464844-2.5625 32.664063 5.339844-2.410157 4.722656-4.515626 9.628906-6.292969 14.6875-28.199219-3.777344-43.4375 4.257812-44.113281 4.625-3.636719 1.976562-5.023438 6.550781-3.046876 10.1875 1.363282 2.507812 3.929688 3.9375 6.585938 3.9375 1.199219 0 2.417969-.289062 3.550781-.90625.121094-.0625 11.378907-5.679688 32.917969-3.242188-1.230469 5.765626-2.042969 11.679688-2.410156 17.71875-44.125 1.835938-62.789063 19.953126-63.597656 20.765626-2.929688 2.929687-2.957032 7.703124-.027344 10.628906 1.472656 1.472656 3.394531 2.210937 5.316406 2.210937 1.902344 0 3.808594-.726562 5.265625-2.183593.042969-.042969 4.398437-4.171876 13.90625-8.257813 7.855469-3.371094 20.75-7.3125 39.15625-8.15625.320313 5.011719.945313 9.941406 1.863281 14.769531-26.289062 10.875-35.4375 25.472656-35.835937 26.125-2.160157 3.539063-1.0625 8.1875 2.472656 10.34375 1.230469.75 2.585937 1.109375 3.921875 1.109375 2.511719 0 4.957031-1.265625 6.363281-3.570312.074219-.117188 6.996094-10.625 26.855469-19.320313 1.667969 5.101563 3.65625 10.054688 5.960938 14.828125-22.617188 17.273438-27.710938 33.734375-27.925782 34.46875-1.175781 3.972657 1.089844 8.144531 5.058594 9.320313.710938.210937 1.429688.3125 2.132812.3125 3.234376 0 6.222657-2.113282 7.1875-5.375.039063-.128906 3.949219-11.976563 20.996094-25.523438 3.257813 5.011719 6.878906 9.765625 10.828125 14.222656-29.941406 32.519532-30.324219 58.550782-30.324219 59.695313 0 4.144531 3.355469 7.5 7.5 7.5 4.140626 0 7.496094-3.355469 7.496094-7.5 0-.050781.15625-5.636719 3.640625-14.691406 3.132813-8.144531 9.519531-20.386719 22.316407-34.402344 3.714843 3.273437 7.636718 6.320313 11.738281 9.121094-10.921875 26.308593-7.066407 43.113281-6.886719 43.859375.835938 3.441406 3.921875 5.773437 7.3125 5.773437.578125 0 1.164062-.066406 1.75-.207031 4.027344-.976562 6.511719-4.988281 5.535156-9.015625-.03125-.132813-2.5625-12.464844 5.335938-32.664063 4.730468 2.414063 9.640625 4.515626 14.699218 6.296876-2.300781 17.101562-.316406 29.363281 1.792969 36.679687-2.722656 1.945313-4.132812 3.316406-4.34375 3.523437-2.925781 2.929688-2.953125 7.703126-.023437 10.632813 1.472656 1.46875 3.394531 2.207031 5.316406 2.207031 1.902344 0 3.804688-.726562 5.265625-2.183594.042969-.042968 4.398437-4.171874 13.90625-8.257812 3.800781-1.632812 8.792969-3.394531 15.007813-4.882812 2.429687 8.917968 5.4375 15.816406 8.164062 20.863281-12.777344 8.429687-17.703125 16.285156-17.992188 16.757812-2.15625 3.539063-1.0625 8.1875 2.472657 10.34375 1.230469.75 2.585937 1.109375 3.925781 1.109375 2.511719 0 4.953125-1.261718 6.363281-3.570312.074219-.113282 6.992188-10.621094 26.855469-19.316406 1.664062 5.097656 3.65625 10.050781 5.960938 14.824218-22.617188 17.273438-27.710938 33.734375-27.929688 34.46875-1.175781 3.972656 1.089844 8.144532 5.0625 9.320313.710938.210937 1.425781.3125 2.132812.3125 3.234376 0 6.222657-2.113281 7.1875-5.375.035157-.125 3.945313-11.976563 20.992188-25.519531 3.257812 5.011718 6.882812 9.761718 10.828125 14.21875-29.9375 32.519531-30.324219 58.550781-30.324219 59.699218 0 4.140625 3.359375 7.5 7.5 7.5s7.5-3.359375 7.5-7.5c0-.054687.15625-5.636718 3.640625-14.695312 3.132813-8.144532 9.515625-20.386719 22.3125-34.402344 3.71875 3.273438 7.636719 6.324219 11.738281 9.121094-10.917968 26.308594-7.0625 43.113281-6.882812 43.863281.832031 3.4375 3.917969 5.773437 7.308594 5.773437.578125 0 1.167968-.070312 1.753906-.210937 4.027344-.976563 6.507812-4.988281 5.535156-9.011719-.03125-.136718-2.5625-12.46875 5.335938-32.667968 4.722656 2.414062 9.628906 4.515624 14.6875 6.292968-3.777344 28.203125 4.261718 43.4375 4.625 44.113282 1.359375 2.503906 3.9375 3.921874 6.597656 3.921874 1.210938 0 2.4375-.292968 3.574219-.910156 3.640625-1.976562 4.988281-6.53125 3.011719-10.167968-.066407-.121094-5.667969-11.25-3.207032-32.847657 5.765625 1.230469 11.683594 2.042969 17.71875 2.410157 1.835938 44.125 19.957032 62.785156 20.769532 63.597656 1.46875 1.46875 3.40625 2.207031 5.339843 2.207031 1.917969 0 3.832031-.722656 5.289063-2.183594 2.929687-2.929687 2.953125-7.652343.027344-10.582031-.042969-.042969-4.175782-4.394531-8.257813-13.90625-3.371094-7.851562-7.3125-20.75-8.15625-39.15625 5.011719-.316406 9.9375-.945312 14.765625-1.863281 10.878906 26.292969 25.472656 35.4375 26.128906 35.839843 1.226563.746094 2.585938 1.105469 3.929688 1.105469 2.53125 0 5.003906-1.269531 6.414062-3.578125 2.15625-3.539062 1.074219-8.132812-2.460937-10.289062-.117188-.074219-10.621094-6.996094-19.316407-26.855469 5.097657-1.664063 10.050782-3.65625 14.824219-5.960937 17.273438 22.617187 33.738281 27.710937 34.46875 27.929687.710938.210937 1.425781.308594 2.132813.308594 3.234375 0 6.222656-2.109375 7.1875-5.371094 1.175781-3.972656-1.089844-8.144531-5.0625-9.320313-.128906-.039062-11.976563-3.949218-25.523438-20.996093 5.011719-3.257813 9.765625-6.878907 14.222656-10.828125 32.515626 29.941406 58.546876 30.324218 59.695313 30.324218 4.140625 0 7.535156-3.355468 7.535156-7.496093 0-4.144531-3.320312-7.5-7.464843-7.5-.058594-.003907-6.058594-.160157-15.671876-3.996094-7.945312-3.171875-19.867187-9.515625-33.496093-21.957031 3.277343-3.722656 6.328125-7.644532 9.128906-11.75 15.203125 6.308594 27.246094 7.699218 34.835937 7.699218 5.535157 0 8.707032-.730468 9.019532-.804687 4.027344-.976563 6.539062-5.039063 5.5625-9.066406-.972656-4.023438-4.988282-6.503907-9.011719-5.53125-.136719.027343-12.46875 2.566406-32.667969-5.335938 2.414063-4.726562 4.515625-9.632812 6.296875-14.691406 5.335938.714844 10.214844 1.011719 14.613281 1.011719 18.835938 0 28.957032-5.34375 29.496094-5.636719 3.640625-1.976563 4.988282-6.53125 3.015625-10.171875-1.976562-3.640625-6.53125-4.988281-10.171875-3.011719-.117187.0625-11.242187 5.664063-32.847656 3.203125 1.230469-5.765625 2.046875-11.679687 2.410156-17.714844 44.125-1.832031 62.789063-19.953124 63.597656-20.761718zm-183.257812 118.320312c-57.839844 0-104.894531-47.054687-104.894531-104.894531 0-57.835937 47.054687-104.890625 104.894531-104.890625s104.894531 47.054688 104.894531 104.890625c0 57.839844-47.054687 104.894531-104.894531 104.894531zm-132.09375-111.234375c-.625-4.257812-1.078125-8.902343-1.300781-13.945312 5.246093-.332031 10.453125-1.007813 15.589843-2.019531-.921874 4.894531-1.550781 9.886718-1.855468 14.96875-4.394532.183593-8.539063.523437-12.433594.996093zm-113.863281-133.582031c0-57.839844 47.058593-104.894531 104.894531-104.894531 57.25 0 103.925781 46.101562 104.871094 103.128906-6.597656-8.308594-11.988282-11.691406-12.375-11.929687-3.535156-2.152344-8.1875-1.058594-10.34375 2.476562-2.160156 3.535156-1.074219 8.128906 2.460937 10.285156.105469.070313 9.460938 6.234375 17.816407 23.59375-.304688 1.375-.636719 2.746094-.996094 4.109375-4.222656 1.484375-8.339844 3.1875-12.332032 5.113281-17.273437-22.613281-33.734374-27.710937-34.46875-27.929687-3.96875-1.171875-8.183593 1.082031-9.359374 5.050781-1.175782 3.972656 1.050781 8.132813 5.023437 9.308594.128906.042969 12.082031 4.039062 25.597656 21.019531-5.011719 3.257813-9.761719 6.878907-14.21875 10.828125-32.519531-29.941406-58.546875-30.324218-59.695312-30.324218-4.144531 0-7.535157 3.355468-7.535157 7.5 0 4.140624 3.320313 7.496093 7.460938 7.496093.0625.003907 6.0625.160157 15.671875 3.996094 7.945313 3.171875 19.867187 9.515625 33.496094 21.957031-3.273438 3.71875-6.320313 7.636719-9.121094 11.742188-26.308594-10.921875-43.113281-7.066406-43.859375-6.886719-4.027344.976563-6.539062 5.039063-5.5625 9.0625.972656 4.027344 4.992188 6.511719 9.011719 5.535156.136719-.027343 12.46875-2.5625 32.664062 5.339844-2.5625 5.019531-4.78125 10.242187-6.625 15.636719-8.949219 2.433594-18.210937 3.679687-27.582031 3.679687-57.835938 0-104.894531-47.054687-104.894531-104.894531zm236.996093 6.339844c.621094 4.257812 1.070313 8.902344 1.296876 13.941406-5.015626.320312-9.949219.945312-14.78125 1.867188-.175782-.433594-.355469-.867188-.535157-1.289063.785157-4.464844 1.300781-8.976563 1.578125-13.519531 4.398438-.183594 8.542969-.527344 12.441406-1zm33.25-8.695313c1.175782 5.53125 2.027344 13.886719.757813 25.023438-5.761719-1.226563-11.671875-2.039063-17.703125-2.40625-.246094-5.964844-.785156-11.472657-1.542969-16.523438 7.347657-1.734375 13.476563-3.894531 18.488281-6.09375zm-42.828124-22.171875c2.144531 3.96875 4.476562 9.285156 6.445312 16.128906-2.9375.328126-6.042969.578126-9.328125.726563-.316406-5.011719-.945313-9.941406-1.863281-14.769531 1.648437-.683594 3.230468-1.378906 4.746094-2.085938zm-146.800782 166.800782c-1.160156-5.496094-2.050781-13.847657-.777344-25.023438 5.761719 1.230469 11.675782 2.046875 17.710938 2.414062.25 5.964844.789062 11.46875 1.550781 16.519532-7.34375 1.734375-13.472656 3.890625-18.484375 6.089844zm42.820313 22.175781c-2.125-3.941407-4.460938-9.261719-6.433594-16.128907 2.929687-.324218 6.03125-.574218 9.3125-.726562.316406 5.011719.945313 9.941406 1.863281 14.769531-1.648437.683594-3.226562 1.378907-4.742187 2.085938zm0 0"/><path d="m366.695312 266.769531c3.417969 2.347657 8.085938 1.480469 10.429688-1.933593 2.347656-3.414063 1.480469-8.082032-1.933594-10.429688-34.128906-23.445312-80.183594-19.179688-109.503906 10.140625-29.324219 29.320313-33.585938 75.375-10.140625 109.503906 1.453125 2.117188 3.800781 3.253907 6.1875 3.253907 1.464844 0 2.941406-.429688 4.242187-1.320313 3.414063-2.34375 4.277344-7.015625 1.933594-10.429687-19.355468-28.171876-15.828125-66.191407 8.382813-90.402344 24.210937-24.210938 62.230469-27.734375 90.402343-8.382813zm0 0"/><path d="m399.496094 279.75c-2.199219-3.511719-6.828125-4.570312-10.339844-2.371094-3.507812 2.199219-4.570312 6.828125-2.371094 10.335938 8.390625 13.394531 12.082032 29.480468 10.386719 45.296875-1.746094 16.28125-8.800781 31.015625-20.402344 42.617187-11.601562 11.605469-26.339843 18.660156-42.617187 20.402344-15.820313 1.699219-31.90625-1.992188-45.300782-10.382812-3.507812-2.199219-8.136718-1.136719-10.335937 2.371093-2.199219 3.507813-1.136719 8.136719 2.375 10.335938 13.648437 8.558593 29.601563 13.078125 45.71875 13.078125 3.046875 0 6.097656-.160156 9.140625-.488282 19.441406-2.082031 37.773438-10.859374 51.625-24.707031 13.851562-13.851562 22.625-32.183593 24.710938-51.625 2.050781-19.148437-2.421876-38.632812-12.589844-54.863281zm0 0"/><path d="m114.25 145.542969-9.789062 10.492187c-2.824219 3.03125-2.660157 7.773438.371093 10.601563 1.441407 1.347656 3.277344 2.015625 5.113281 2.015625 2.003907 0 4.007813-.800782 5.484376-2.386719l9.789062-10.492187c2.824219-3.03125 2.660156-7.777344-.371094-10.601563-3.027344-2.824219-7.773437-2.660156-10.597656.371094zm0 0"/><path d="m151.875 142.125c4.144531 0 7.5-3.359375 7.5-7.5s-3.355469-7.5-7.5-7.5h-.078125c-4.144531 0-7.460937 3.359375-7.460937 7.5s3.398437 7.5 7.539062 7.5zm0 0"/><path d="m149.792969 250.867188h-.082031c-4.140626 0-7.457032 3.359374-7.457032 7.5 0 4.140624 3.394532 7.5 7.539063 7.5 4.140625 0 7.5-3.359376 7.5-7.5 0-4.140626-3.359375-7.5-7.5-7.5zm0 0"/><path d="m191.953125 150.640625c4.144531 0 7.5-3.355469 7.5-7.5 0-4.140625-3.355469-7.496094-7.5-7.496094h-.078125c-4.140625 0-7.460938 3.355469-7.460938 7.496094 0 4.144531 3.398438 7.5 7.539063 7.5zm0 0"/><path d="m219.507812 127.597656c4.140626 0 7.5-3.359375 7.5-7.5 0-4.144531-3.359374-7.5-7.5-7.5h-.078124c-4.144532 0-7.460938 3.355469-7.460938 7.5 0 4.140625 3.398438 7.5 7.539062 7.5zm0 0"/><path d="m172.414062 167.203125h-.078124c-4.140626 0-7.460938 3.359375-7.460938 7.5 0 4.144531 3.398438 7.5 7.539062 7.5 4.144532 0 7.5-3.355469 7.5-7.5 0-4.140625-3.355468-7.5-7.5-7.5zm0 0"/><path d="m149.277344 187.730469c0-4.144531-3.359375-7.5-7.5-7.5h-.082032c-4.140624 0-7.457031 3.355469-7.457031 7.5 0 4.140625 3.394531 7.5 7.539063 7.5 4.140625 0 7.5-3.359375 7.5-7.5zm0 0"/><path d="m210.992188 182.203125c4.140624 0 7.5-3.355469 7.5-7.5 0-4.140625-3.359376-7.5-7.5-7.5h-.082032c-4.140625 0-7.457031 3.359375-7.457031 7.5 0 4.144531 3.398437 7.5 7.539063 7.5zm0 0"/><path d="m153.300781 219.308594h-.082031c-4.140625 0-7.460938 3.355468-7.460938 7.496094 0 4.144531 3.398438 7.5 7.542969 7.5 4.140625 0 7.496094-3.355469 7.496094-7.5 0-4.140626-3.355469-7.496094-7.496094-7.496094zm0 0"/><path d="m171.925781 113.460938c1.199219 2.882812 3.988281 4.617187 6.925781 4.617187.960938 0 1.9375-.183594 2.882813-.578125 3.820313-1.59375 5.628906-5.984375 4.035156-9.804688l-2.503906-6.011718c-1.59375-3.824219-5.984375-5.632813-9.808594-4.039063-3.820312 1.589844-5.628906 5.980469-4.035156 9.804688zm0 0"/><path d="m235.992188 150.496094 10.019531 2.003906c.5.097656.992187.148438 1.480469.148438 3.5 0 6.632812-2.464844 7.347656-6.03125.8125-4.0625-1.824219-8.011719-5.886719-8.824219l-10.019531-2.003907c-4.0625-.8125-8.011719 1.820313-8.824219 5.882813-.808594 4.0625 1.824219 8.011719 5.882813 8.824219zm0 0"/><path d="m120.082031 205.296875c-2.195312-3.511719-6.820312-4.582031-10.332031-2.382813-3.515625 2.191407-4.582031 6.820313-2.386719 10.332032l5.007813 8.015625c1.421875 2.277343 3.867187 3.527343 6.367187 3.527343 1.359375 0 2.730469-.371093 3.96875-1.144531 3.511719-2.191406 4.582031-6.820312 2.382813-10.332031zm0 0"/></svg>