<svg height="512pt" viewBox="-7 0 512 512.00207" width="512pt" xmlns="http://www.w3.org/2000/svg"><path d="m280.652344 264.003906c0 91.648438-61.015625 144.300782-136.28125 144.300782s-136.28125-52.652344-136.28125-144.300782c0-91.648437 61.015625-144.296875 136.28125-144.296875s136.28125 52.652344 136.28125 144.296875zm0 0" fill="#be4150"/><path d="m276.6875 301.890625c-8.214844 19.75-21.339844 36.632813-38.167969 49.890625-24.527343 19.320312-58.6875 23.421875-85.746093 7.839844-23.757813-13.6875-56.5-55.53125-72.535157-103.632813l1.085938 31.328125c1.109375 12.214844 3.078125 23.597656 5.820312 34.09375 4.074219 15.585938-15.816406 25.652344-25.671875 12.90625-18.359375-23.753906-29.332031-55.539062-29.332031-94.363281 0-38.363281 10.792969-69.78125 28.746094-93.476563-32.078125 24.234376-52.796875 64.226563-52.796875 117.527344 0 91.648438 61.011718 144.296875 136.28125 144.296875 33.847656 0 64.667968-10.824219 88.46875-30.910156.007812-.003906.011718-.003906.015625-.003906.609375-.511719 1.164062-1.089844 1.761719-1.613281 3.742187-3.285157 7.289062-6.796876 10.644531-10.550782 1.378906-1.535156 2.730469-3.09375 4.039062-4.703125.839844-1.042969 1.789063-1.964843 2.605469-3.039062-.175781.136719-.367188.246093-.546875.375 11.839844-15.410157 20.664063-34.089844 25.328125-55.964844zm0 0" fill="#a03c4b"/><path d="m489.085938 360.203125c0 91.648437-61.015626 144.300781-136.28125 144.300781-75.269532 0-136.285157-52.652344-136.285157-144.300781 0-91.644531 61.015625-144.296875 136.285157-144.296875 75.265624 0 136.28125 52.648438 136.28125 144.296875zm0 0" fill="#f7d291"/><path d="m352.804688 247.972656c63.308593 0 104.214843 44.054688 104.214843 112.230469 0 68.179687-40.90625 112.234375-104.214843 112.234375-63.308594 0-104.21875-44.054688-104.21875-112.234375 0-68.175781 40.910156-112.230469 104.21875-112.230469" fill="#ffedb1"/><path d="m186.195312 21.746094c-25.246093 14.171875-42.570312 36.285156-49.839843 59.941406 23.980469 6.109375 51.878906 2.832031 77.121093-11.339844 21.472657-12.054687 37.214844-29.855468 45.914063-49.460937 2.4375-5.492188-1.105469-11.804688-7.066406-12.585938-21.265625-2.78125-44.660157 1.390625-66.128907 13.445313zm0 0" fill="#96d7a5"/><path d="m252.328125 8.300781c-21.269531-2.78125-44.664063 1.390625-66.132813 13.445313-25.246093 14.171875-42.570312 36.289062-49.839843 59.941406l122.660156-68.839844c-1.324219-2.371094-3.699219-4.152344-6.6875-4.546875zm0 0" fill="#78c3a5"/><path d="m359.484375 312.386719c-3.410156-4.367188-9.953125-4.367188-13.363281 0-10.257813 13.128906-25.382813 35.511719-25.382813 61.847656 0 42.085937 24.046875 58.121094 32.066407 58.121094 8.015624 0 32.066406-16.035157 32.066406-58.121094 0-26.335937-15.128906-48.71875-25.386719-61.847656zm0 0" fill="#f0c382"/><path d="m336.160156 366.128906c-3.292968-17.570312.636719-34.550781 5.875-48.324218-9.757812 13.441406-21.300781 33.425781-21.300781 56.429687 0 42.085937 24.050781 58.121094 32.070313 58.121094 4.289062 0 13.160156-4.660157 20.492187-15.386719-10.832031-2.558594-30.625-16.0625-37.136719-50.839844zm0 0" fill="#f5b97d"/><path d="m454.957031 247.765625c-24.171875-24.132813-57.339843-38.132813-94.0625-39.875 2.710938-30.597656 21.472657-51.546875 21.792969-51.902344 2.800781-3.042969 2.609375-7.777343-.429688-10.585937-3.042968-2.8125-7.789062-2.625-10.601562.417968-1 1.082032-23.109375 25.429688-25.824219 62.039063-22.234375.96875-43.179687 6.433594-61.628906 15.910156-10.75-50.3125-42.847656-88.015625-89.117187-104.132812-3.910157-1.363281-8.1875.707031-9.550782 4.617187-1.363281 3.910156.707032 8.1875 4.617188 9.550782 42.636718 14.851562 71.789062 50.511718 80.355468 98.0625-6.9375 4.671874-13.417968 9.972656-19.347656 15.898437-27.621094 27.566406-42.21875 66.328125-42.21875 112.085937 0 8.246094.484375 16.257813 1.421875 24.027344-14.714843 8.324219-31.492187 13.648438-49.332031 15.707032-20.507812-3.613282-38.222656-17.027344-51.289062-38.882813-14.664063-24.523437-22.414063-58.167969-22.414063-97.289063 0-8.023437.328125-15.917968.976563-23.464843.355468-4.128907-2.703126-7.761719-6.832032-8.117188-4.128906-.34375-7.757812 2.707031-8.113281 6.832031-.6875 7.972657-1.035156 16.300782-1.035156 24.75 0 41.832032 8.488281 78.136719 24.542969 104.984376 7.566406 12.65625 16.804687 23.03125 27.207031 30.804687-27.785157-3.835937-52.597657-15.6875-71.261719-34.320313-24.734375-24.691406-37.8125-59.777343-37.8125-101.46875 0-41.6875 13.078125-76.773437 37.8125-101.46875 23.050781-23.007812 55.476562-35.679687 91.304688-35.679687 5.59375 0 11.183593.308594 16.617187.917969 4.113281.460937 7.828125-2.5 8.289063-6.617188.464843-4.117187-2.5-7.828125-6.613282-8.289062-3.640625-.410156-7.34375-.679688-11.066406-.84375-.546875-7.394532-1.886719-14.285156-3.683594-20.589844 4.304688.535156 8.664063.804688 13.050782.804688 19.316406 0 39.113281-5.167969 56.851562-15.121094 25.652344-14.40625 44.988281-37.707032 53.050781-63.9375.601563-1.960938.375-4.085938-.628906-5.875-1.007813-1.789063-2.699219-3.089844-4.6875-3.59375-26.589844-6.777344-56.554687-2.402344-82.207031 12-20.636719 11.585937-37.175782 28.929687-47.054688 48.921875-5.324218-8.9375-10.066406-14.171875-10.519531-14.660157-2.8125-3.042968-7.554687-3.230468-10.597656-.417968s-3.230469 7.554687-.417969 10.597656c.203125.222656 19.078125 21.019531 21.785156 51.890625-36.726562 1.742187-69.894531 15.742187-94.070312 39.875-27.617188 27.570313-42.214844 66.332031-42.214844 112.089844 0 45.757812 14.597656 84.515625 42.214844 112.085937 25.882812 25.835938 62.074218 40.066406 101.902344 40.066406 24.746093 0 48.363281-5.539062 68.835937-16.046874 6.078125 28.613281 18.984375 53.226562 38.207031 72.414062 25.878906 25.835938 62.070313 40.066406 101.898438 40.066406s76.019531-14.230468 101.902344-40.066406c27.617187-27.570312 42.214843-66.328125 42.214843-112.085938 0-45.757812-14.597656-84.519531-42.21875-112.085937zm-264.523437-219.558594c19.714844-11.070312 42.242187-15.363281 63.007812-12.199219-8.109375 19.375-23.503906 36.371094-43.222656 47.441407-19.714844 11.066406-42.242188 15.363281-63.007812 12.195312 8.113281-19.371093 23.507812-36.371093 43.222656-47.4375zm253.925781 433.113281c-23.046875 23.011719-55.472656 35.683594-91.300781 35.683594s-68.253906-12.671875-91.300782-35.683594c-24.738281-24.691406-37.8125-59.78125-37.8125-101.46875s13.074219-76.777343 37.8125-101.46875c21.429688-21.390624 50.964844-33.84375 83.800782-35.488281v8.378907c0 4.140624 3.355468 7.5 7.5 7.5 4.140625 0 7.5-3.359376 7.5-7.5v-8.378907c32.835937 1.644531 62.371094 14.097657 83.800781 35.488281 24.738281 24.691407 37.8125 59.78125 37.8125 101.46875s-13.074219 76.777344-37.8125 101.46875zm0 0"/><path d="m370.617188 327.03125c-3.65625 1.953125-5.035157 6.496094-3.082032 10.152344 6.746094 12.628906 10.167969 24.984375 10.167969 36.730468 0 38.96875-21.367187 50.398438-24.644531 50.757813-3.28125-.359375-24.644532-11.789063-24.644532-50.757813 0-28.238281 19.25-51.828124 28.5-63.167968.742188-.90625 1.414063-1.726563 2-2.464844 2.589844-3.234375 2.0625-7.953125-1.171874-10.542969-3.234376-2.585937-7.953126-2.0625-10.542969 1.171875-.558594.703125-1.199219 1.488282-1.90625 2.351563-9.539063 11.691406-31.878907 39.070312-31.878907 72.652343 0 24.972657 7.925782 40.691407 14.578126 49.476563 7.371093 9.742187 17.441406 16.285156 25.066406 16.285156 7.621094 0 17.695312-6.542969 25.066406-16.285156 6.648438-8.785156 14.578125-24.503906 14.578125-49.476563 0-14.238281-4.015625-28.972656-11.9375-43.800781-1.949219-3.652343-6.496094-5.03125-10.148437-3.082031zm0 0"/></svg>