<svg height="512pt" viewBox="0 -82 512.0003 512" width="512pt" xmlns="http://www.w3.org/2000/svg"><path d="m271.628906 79.457031c2.449219-15.527343 7.941406-34.457031 19.597656-53.675781 1.925782-3.179688 1.5625-7.246094-1.066406-9.875l-5.222656-5.226562c-3.339844-3.335938-8.921875-3.128907-11.824219.597656-22.753906 29.21875-30.878906 57.808594-33.570312 77.734375-2.101563 15.558593-15.402344 27.101562-31.101563 27.101562h94.1875c-19.457031 0-34.03125-17.4375-31-36.65625zm0 0" fill="#96d7a5"/><path d="m254.769531 116.113281h-105.066406c-14.738281 0-29.183594 4.140625-41.683594 11.953125l-25.554687 15.972656c-12.5 7.8125-26.941406 11.957032-41.683594 11.957032h-.003906c-16.664063 0-31.542969 12.179687-33.125 28.769531-1.40625 14.765625 7.261718 27.71875 19.933594 32.777344 8.660156 3.457031 16.679687 8.335937 22.507812 15.621093l46.714844 58.390626c24.21875 30.273437 60.886718 47.898437 99.652344 47.898437h58.308593zm0 0" fill="#ff7350"/><path d="m257.230469 116.113281h105.066406c14.742187 0 29.183594 4.140625 41.683594 11.953125l25.554687 15.972656c12.5 7.8125 26.945313 11.957032 41.683594 11.957032h.003906c16.664063 0 31.542969 12.179687 33.125 28.769531 1.410156 14.765625-7.257812 27.71875-19.929687 32.777344-8.664063 3.457031-16.683594 8.335937-22.507813 15.621093l-46.714844 58.390626c-24.21875 30.273437-60.886718 47.898437-99.65625 47.898437h-58.308593zm0 0" fill="#ffaa5f"/><path d="m254.769531 116.113281h-67.785156c-9.507813 0-18.828125 4.140625-26.890625 11.953125l-16.488281 15.972656c-8.0625 7.8125-17.382813 11.957032-26.890625 11.957032h-.003906c-10.75 0-20.351563 12.179687-21.371094 28.769531-.910156 14.765625 4.683594 27.71875 12.859375 32.777344 5.589843 3.457031 10.761719 8.335937 14.523437 15.621093l30.136719 58.390626c15.625 30.273437 39.28125 47.898437 64.296875 47.898437h37.617188v-223.339844zm0 0" fill="#ff8c5a"/><path d="m254.769531 116.113281h67.785157c9.511718 0 18.828124 4.140625 26.890624 11.953125l16.488282 15.972656c8.066406 7.8125 17.382812 11.957032 26.894531 11.957032 10.75 0 20.351563 12.179687 21.371094 28.769531.910156 14.765625-4.683594 27.71875-12.859375 32.777344-5.585938 3.457031-10.761719 8.335937-14.519532 15.621093l-30.140624 58.390626c-15.625 30.273437-39.28125 47.898437-64.292969 47.898437h-37.617188zm0 0" fill="#ffc369"/><path d="m299.234375 144.039062c-8.320313-9.976562-12.558594-27.925781-12.558594-27.925781h-63.8125s-4.238281 17.949219-12.5625 27.925781c-5.410156 6.492188-19.304687 17.9375-19.304687 40.726563 0 17.425781 6.277344 28.394531 10.953125 48.398437 3.390625 14.515626 12.054687 58.390626 12.054687 58.390626 6.25 30.277343 15.710938 47.898437 25.71875 47.898437h30.09375c10.003906 0 19.46875-17.621094 25.71875-47.898437 0 0 8.660156-43.875 12.054688-58.390626 4.675781-20.003906 10.953125-30.972656 10.953125-48.398437 0-22.789063-13.894531-34.234375-19.308594-40.726563zm0 0" fill="#ffaa5f"/><path d="m511.8125 184.109375c-1.90625-20.019531-19.8125-35.703125-40.757812-35.703125-13.421876 0-26.53125-3.761719-37.914063-10.875l-25.683594-16.050781c-13.769531-8.605469-29.628906-13.15625-45.867187-13.15625h-57.492188c-7.121094 0-13.585937-2.972657-18.203125-8.375-4.648437-5.4375-6.667969-12.652344-5.542969-19.792969 2.882813-18.28125 9.175782-35.515625 18.699219-51.222656 3.765625-6.207032 2.867188-14.070313-2.179687-19.117188l-5.25-5.25c-3.160156-3.160156-7.527344-4.800781-12-4.5390622-4.382813.2695312-8.429688 2.3984372-11.105469 5.8320312-24.210937 31.09375-32.53125 61.605469-35.25 81.726563-1.597656 11.824218-11.839844 20.738281-23.824219 20.738281h-59.03125c-16.234375 0-32.097656 4.550781-45.863281 13.15625l-25.683594 16.050781c-11.382812 7.113281-24.496093 10.875-37.917969 10.875-20.945312 0-38.847656 15.683594-40.757812 35.703125-1.691406 17.71875 8.242188 34.039063 24.714844 40.617187 8.710937 3.476563 15.105468 7.867188 19.546875 13.417969l46.945312 58.683594c25.902344 32.378906 64.542969 50.949219 106.007813 50.949219h117.195312c41.46875 0 80.105469-18.570313 106.007813-50.949219l46.945312-58.683594c4.441407-5.550781 10.835938-9.941406 19.546875-13.417969 16.472656-6.578124 26.40625-22.898437 24.714844-40.617187zm-216.882812-35.414063c.871093 1.046876 1.875 2.140626 2.9375 3.300782 5.863281 6.382812 14.722656 16.03125 14.722656 32.824218 0 10.296876-2.4375 18.15625-5.523438 28.109376-1.683594 5.429687-3.59375 11.582031-5.285156 18.820312-3.402344 14.546875-11.8125 57.132812-12.15625 58.875-7.226562 34.996094-16.433594 42.148438-18.5 42.148438h-30.246094c-2.070312 0-11.277344-7.152344-18.488281-42.085938-.355469-1.808594-8.769531-44.394531-12.171875-58.9375-1.691406-7.238281-3.597656-13.394531-5.28125-18.820312-3.089844-9.953126-5.527344-17.8125-5.527344-28.109376 0-16.792968 8.859375-26.441406 14.722656-32.824218 1.0625-1.160156 2.070313-2.253906 2.941407-3.300782 6.308593-7.566406 10.445312-18.660156 12.539062-25.371093h52.777344c2.089844 6.710937 6.226563 17.804687 12.539063 25.371093zm-46.800782-59.101562c2.472656-18.289062 10.066406-46.0625 32.222656-74.515625.019532-.023437.054688-.070313.199219-.078125.09375-.011719.296875.007812.464844.171875l5.25 5.25c.164063.164063.101563.5-.039063.734375-10.542968 17.382812-17.503906 36.445312-20.691406 56.664062-1.71875 10.894532 1.144532 21.90625 7.851563 30.503907h-33.207031c4.160156-5.292969 7-11.691407 7.949218-18.730469zm-145.019531 197.863281-46.949219-58.683593c-6.101562-7.632813-14.507812-13.511719-25.695312-17.980469-10.230469-4.082031-16.398438-14.234375-15.34375-25.261719 1.183594-12.40625 12.527344-22.125 25.828125-22.125 16.234375 0 32.09375-4.550781 45.863281-13.15625l25.683594-16.050781c11.382812-7.113281 24.492187-10.875 37.917968-10.875h4.320313l-15.667969 15.179687c-6.6875 6.480469-14.230468 9.902344-21.808594 9.902344-15.253906 0-27.707031 15.457031-28.964843 35.953125-1.050781 17.050781 5.566406 33.035156 16.460937 39.777344 5.230469 3.234375 9.117188 7.410156 11.875 12.757812l13.773438 26.6875c1.332031 2.582031 3.953125 4.0625 6.671875 4.0625 1.15625 0 2.332031-.269531 3.433593-.835937 3.679688-1.902344 5.125-6.425782 3.226563-10.105469l-13.773437-26.683594c-3.988282-7.726562-9.8125-13.996093-17.3125-18.636719-5.261719-3.253906-10.175782-13.269531-9.382813-26.101562.804687-13.085938 7.886719-21.875 13.992187-21.875 11.554688 0 22.703126-4.886719 32.246094-14.128906l16.570313-16.050782c6.683593-6.480468 14.226562-9.902343 21.804687-9.902343h25.914063c-1.96875 5.390625-4.789063 11.625-8.238281 15.761719-.640626.773437-1.488282 1.695312-2.46875 2.761718-6.527344 7.109375-18.671876 20.335938-18.671876 42.972656 0 12.566407 3.007813 22.273438 6.199219 32.550782 1.6875 5.445312 3.433594 11.074218 5.003907 17.792968 3.339843 14.292969 11.972656 57.988282 12.074218 58.492188 2.785156 13.484375 7.003906 28.375 13.222656 39.121094h-2.714843c-22.371094 0-43.492188-16.066406-57.949219-44.074219l-1.78125-3.453125c-1.902344-3.679688-6.421875-5.125-10.105469-3.226562-3.679687 1.898437-5.125 6.425781-3.226562 10.105468l1.785156 3.449219c7.457031 14.453125 16.597656 26.21875 26.871094 34.894531-27.6875-5.460937-52.652344-20.476562-70.683594-43.015625zm378.425781-76.660156c-11.1875 4.464844-19.589844 10.34375-25.695312 17.976563l-46.945313 58.683593c-18.03125 22.539063-43 37.554688-70.683593 43.019531 10.273437-8.679687 19.414062-20.441406 26.875-34.894531l30.285156-58.683593c2.761718-5.347657 6.648437-9.523438 11.875-12.757813 10.898437-6.742187 17.515625-22.730469 16.464844-39.78125-.253907-4.132813-3.785157-7.285156-7.945313-7.023437-4.136719.253906-7.28125 3.8125-7.027344 7.945312.789063 12.835938-4.121093 22.847656-9.382812 26.101562-7.5 4.644532-13.324219 10.914063-17.3125 18.636719l-30.289063 58.683594c-14.457031 28.011719-35.578125 44.074219-57.949218 44.074219h-2.714844c6.21875-10.753906 10.445312-25.660156 13.238281-39.183594.085937-.4375 8.71875-44.132812 12.058594-58.429688 1.570312-6.71875 3.316406-12.34375 5.007812-17.789062 3.1875-10.277344 6.195313-19.984375 6.195313-32.554688 0-22.636718-12.144532-35.863281-18.671875-42.96875-.980469-1.070312-1.828125-1.992187-2.46875-2.761718-3.433594-4.117188-6.253907-10.363282-8.230469-15.765625h25.90625c7.578125 0 15.121094 3.425781 21.804688 9.902343l16.570312 16.050782c9.542969 9.242187 20.691406 14.128906 32.246094 14.128906 4.144531 0 7.5-3.355469 7.5-7.5s-3.359375-7.5-7.5-7.5c-7.582032 0-15.121094-3.421875-21.808594-9.902344l-15.667969-15.179687h4.320313c13.425781 0 26.535156 3.761719 37.917968 10.875l25.683594 16.054687c13.769532 8.605469 29.628906 13.152344 45.867188 13.152344 13.296875 0 24.640625 9.71875 25.824218 22.125 1.050782 11.027344-5.117187 21.179688-15.347656 25.265625zm0 0"/></svg>