<svg height="512pt" viewBox="0 0 511 512" width="512pt" xmlns="http://www.w3.org/2000/svg"><path d="m150.335938 408.121094c26.050781-75.191406-12.039063-125.585938-10.605469-168.152344l-88.9375 223.433594c36.964843 14.714844 83.058593-7.71875 99.542969-55.28125zm0 0" fill="#cdb96e"/><path d="m16.472656 354.835938c32.746094-72.527344 95.050782-82.957032 123.257813-114.867188l-88.9375 223.433594c-36.964844-14.714844-55.035157-62.6875-34.320313-108.566406zm0 0" fill="#9b9664"/><path d="m50.792969 463.402344c-16.429688-6.542969-16.675781-47.421875 2.863281-93.765625 30.886719-73.265625 65.300781-94.796875 86.074219-129.667969-8.875 39.605469 1.332031 78.898438-26.582031 153.347656-17.65625 47.09375-45.929688 76.625-62.355469 70.085938zm0 0" fill="#b4aa6e"/><path d="m391.832031 416.324219c-3.601562-79.496094-57.632812-112.226563-72.039062-152.308594v240.484375c39.785156 0 74.316406-37.890625 72.039062-88.175781zm0 0" fill="#cdb96e"/><path d="m247.753906 416.324219c3.601563-79.496094 57.632813-112.226563 72.039063-152.308594v240.484375c-39.785157 0-74.316407-37.890625-72.039063-88.175781zm0 0" fill="#9b9664"/><path d="m319.792969 504.5c-17.683594 0-33.03125-37.890625-32.019531-88.179688 1.601562-79.492187 25.617187-112.222656 32.019531-152.304687 6.402343 40.082031 30.414062 72.8125 32.015625 152.304687 1.011718 50.289063-14.335938 88.179688-32.015625 88.179688zm0 0" fill="#b4aa6e"/><path d="m504.164062 23.53125c0 8.855469-7.175781 16.03125-16.03125 16.03125-8.855468 0-16.03125-7.175781-16.03125-16.03125 0-8.851562 7.175782-16.03125 16.03125-16.03125 8.855469 0 16.03125 7.179688 16.03125 16.03125zm0 0" fill="#ffe17d"/><path d="m448.050781 167.824219c0 8.851562-7.175781 16.03125-16.03125 16.03125s-16.03125-7.179688-16.03125-16.03125c0-8.855469 7.175781-16.035157 16.03125-16.035157s16.03125 7.179688 16.03125 16.035157zm0 0" fill="#ffe17d"/><path d="m487.929688 0c-12.972657 0-23.53125 10.558594-23.53125 23.53125 0 .363281.011718.722656.027343 1.082031-37.324219 17.5-72.613281 50.757813-101.011719 95.003907-28.566406-9.761719-57.011718-11.511719-85.058593-5.164063-37.730469 8.539063-75.066407 32.367187-107.96875 68.910156-22.515625 25.007813-35.664063 47.683594-38.210938 52.230469-8.878906 10.027344-21.632812 18.027344-36.367187 27.257812-28.757813 18.019532-64.542969 40.445313-86.40625 90.238282-11.066406 25.207031-11.851563 53.042968-2.148438 76.367187 8.226563 19.765625 23.054688 34.628907 41.757813 41.851563 8.214843 3.171875 16.867187 4.75 25.628906 4.75 11.183594 0 22.554687-2.574219 33.417969-7.683594 22.859375-10.75 40.984375-31.890625 49.730468-57.996094 17.269532-51.5625 5.835938-92.222656-3.347656-124.890625-4.582031-16.285156-8.550781-30.441406-8.617187-43.53125 7.222656-12.476562 57.753906-95.246093 135.914062-112.890625 24.15625-5.453125 48.769531-4.191406 73.621094 3.71875-.550781.945313-1.105469 1.886719-1.652344 2.839844-24.929687 43.628906-41.148437 93.226562-41.59375 126.957031-4.71875 12.398438-13.644531 24.339844-23.945312 38.097657-20.335938 27.167968-45.644531 60.976562-48.105469 115.300781-1.246094 27.503906 8.050781 53.753906 25.503906 72.015625 14.789063 15.480468 33.976563 24.003906 54.027344 24.003906 20.046875 0 39.234375-8.523438 54.027344-24.003906 17.453125-18.261719 26.746094-44.511719 25.5-72.015625-2.460938-54.324219-27.769532-88.132813-48.105469-115.300781-10.273437-13.722657-19.175781-25.632813-23.90625-37.996094.433594-30.117188 15.554687-78.953125 42.605469-124.585938 13.222656 5.546875 26.5 12.953125 39.800781 22.230469-.792969 2.355469-1.230469 4.871094-1.230469 7.492187 0 12.976563 10.558594 23.53125 23.53125 23.53125 12.976563 0 23.53125-10.554687 23.53125-23.53125 0-12.972656-10.554687-23.53125-23.53125-23.53125-4.898437 0-9.453125 1.507813-13.226562 4.078126-13.605469-9.535157-27.230469-17.265626-40.832032-23.183594 23.613282-36.136719 54.804688-68.820313 92.132813-86.5625 4.320313 5.15625 10.800781 8.441406 18.039063 8.441406 12.976562 0 23.535156-10.554688 23.535156-23.53125s-10.558594-23.53125-23.535156-23.53125zm-466.824219 423.695312c-8.140625-19.5625-7.398438-43.097656 2.03125-64.574218 19.261719-43.863282 49.832031-64.207032 77.441406-81.550782-16.6875 20.539063-36.171875 46.761719-53.917969 90.109376-1.566406 3.832031.265625 8.210937 4.101563 9.78125 3.835937 1.566406 8.210937-.265626 9.78125-4.101563 19.28125-47.09375 39.960937-72.171875 58.207031-94.292969 2.894531-3.507812 5.738281-6.957031 8.503906-10.410156-.273437 4.414062-.484375 8.878906-.699218 13.421875-1.355469 28.644531-2.890626 61.109375-20.261719 108.945313-9.738281 26.816406-27.324219 57.410156-44.664063 65.300781-2.042968.929687-4.945312 1.851562-7.199218.996093-.003907-.003906-.007813-.003906-.015626-.007812-.011718-.003906-.019531-.007812-.027343-.011719-6.089844-2.398437-11.34375-20.183593-3.992188-52.316406.925781-4.039063-1.601562-8.0625-5.636719-8.984375-4.039062-.914062-8.0625 1.601562-8.984374 5.640625-3.507813 15.328125-4.652344 28.914063-3.585938 40-4.511719-5.152344-8.269531-11.183594-11.082031-17.945313zm122.460937-18.078124c-7.449218 22.242187-22.71875 40.167968-41.890625 49.183593-6.652343 3.128907-13.515625 5.078125-20.347656 5.855469 14.585937-13.335938 28.992187-36.777344 39.0625-64.511719 15.988281-44.027343 19.179687-76.539062 20.628906-102.964843 8.789063 31.398437 17.761719 67.007812 2.546875 112.4375zm111.480469 11.042968c2.167969-47.855468 23.359375-77.84375 42.871094-103.96875-8.167969 25.171875-16.898438 56.652344-17.84375 103.480469-.59375 29.5 4.402343 56.550781 13.207031 74.246094-6.09375-3.183594-11.792969-7.472657-16.875-12.785157-14.636719-15.316406-22.421875-37.539062-21.359375-60.972656zm129.089844 0c1.0625 23.433594-6.722657 45.65625-21.359375 60.972656-5.082032 5.316407-10.78125 9.605469-16.875 12.789063 8.804687-17.695313 13.800781-44.75 13.207031-74.25-.324219-16.113281-1.542969-31.050781-3.730469-45.664063-.609375-4.09375-4.425781-6.917968-8.527344-6.308593-4.09375.613281-6.917968 4.433593-6.308593 8.527343 2.089843 13.96875 3.257812 28.28125 3.570312 43.746094.574219 28.523438-4.8125 63.398438-18.148437 77.003906-1.574219 1.605469-3.957032 3.523438-6.371094 3.523438 0 0 0 0-.003906 0-2.414063 0-4.796875-1.917969-6.371094-3.523438-13.332031-13.605468-18.722656-48.480468-18.148438-77.003906 1.023438-50.878906 11.285157-81.71875 20.339844-108.929687 1.433594-4.3125 2.847656-8.558594 4.183594-12.773438 1.332031 4.214844 2.746094 8.457031 4.179688 12.773438 3.539062 10.636719 7.199218 21.636719 10.480468 34.335937 1.035156 4.007813 5.125 6.417969 9.136719 5.382813 4.011719-1.035157 6.421875-5.125 5.386719-9.136719-2.390625-9.261719-4.949219-17.550781-7.511719-25.4375 19.507813 26.125 40.703125 56.113281 42.871094 103.972656zm56.214843-248.839844c0 4.707032-3.828124 8.535157-8.535156 8.535157-4.703125 0-8.53125-3.828125-8.53125-8.535157 0-4.703124 3.828125-8.53125 8.53125-8.53125 4.707032 0 8.535156 3.828126 8.535156 8.53125zm47.578126-135.757812c-4.703126 0-8.53125-3.824219-8.53125-8.53125 0-4.703125 3.828124-8.53125 8.53125-8.53125 4.707031 0 8.535156 3.828125 8.535156 8.53125 0 4.707031-3.828125 8.53125-8.535156 8.53125zm0 0"/></svg>