<svg height="512pt" viewBox="-40 0 511 512" width="512pt" xmlns="http://www.w3.org/2000/svg"><path d="m260.09375 55.003906c-.964844-1.214844-2.558594-1.742187-4.066406-1.375l-19.570313 4.894532-16.195312-48.585938c-1.085938-3.25-6.464844-3.25-7.550781 0l-16.195313 48.585938-19.570313-4.894532c-1.5-.359375-3.09375.160156-4.066406 1.375-.972656 1.210938-1.148437 2.875-.457031 4.265625l40.503906 81.007813c.675781 1.34375 2.050781 2.199218 3.558594 2.199218s2.882813-.855468 3.5625-2.199218l40.503906-81.007813c.691407-1.390625.511719-3.054687-.457031-4.265625zm0 0" fill="#96d7a5"/><path d="m219.488281 180.589844-50.027343-64.636719c-.878907-1.132813-2.367188-1.679687-3.789063-1.367187-1.4375.300781-2.5625 1.382812-2.875 2.769531l-3.984375 17.496093-46.539062-6.410156c-1.585938-.183594-3.167969.578125-3.886719 1.980469-.726563 1.410156-.441407 3.105469.703125 4.207031l33.265625 32.234375-12.003907 13.621094c-.953124 1.082031-1.175781 2.605469-.558593 3.894531.617187 1.296875 1.941406 2.121094 3.410156 2.121094l83.285156-.070312c1.421875 0 2.726563-.785157 3.359375-2.015626.636719-1.238281.496094-2.71875-.359375-3.824218zm0 0" fill="#78c3a5"/><path d="m324.589844 130.421875c-.71875-1.402344-2.296875-2.171875-3.886719-1.980469l-46.542969 6.410156-3.980468-17.496093c-.316407-1.386719-1.4375-2.46875-2.875-2.769531-1.429688-.3125-2.914063.234374-3.792969 1.367187l-50.023438 64.636719c-.859375 1.105468-1 2.585937-.359375 3.824218.628906 1.230469 1.933594 2.015626 3.359375 2.015626l83.28125.070312c1.46875 0 2.796875-.828125 3.410157-2.121094.617187-1.289062.398437-2.8125-.554688-3.898437l-12.007812-13.621094 33.269531-32.230469c1.140625-1.101562 1.429687-2.796875.703125-4.207031zm0 0" fill="#b4e6a0"/><path d="m331.460938 305.984375 37.351562-60.34375c.832031-1.351563 2.378906-2.035156 3.945312-1.847656 1.570313.222656 2.851563 1.359375 3.273438 2.882812l4.40625 16.042969 42.296875-8.1875c1.648437-.296875 3.382813.472656 4.222656 1.957031.835938 1.492188.628907 3.347657-.515625 4.621094l-28.917968 31.929687 11.4375 12.082032c1.085937 1.148437 1.390624 2.84375.769531 4.304687-.628907 1.453125-2.058594 2.398438-3.644531 2.410157l-71.230469.214843c-.007813 0-.007813 0-.015625 0-1.4375 0-2.765625-.777343-3.472656-2.035156-.707032-1.265625-.667969-2.804687.09375-4.03125zm0 0" fill="#96d7a5"/><path d="m253.449219 263.816406c.910156-1.261718 2.492187-1.890625 3.992187-1.570312l15.8125 3.113281 11.238282-40.339844c.457031-1.65625 1.917968-2.820312 3.628906-2.90625 1.910156-.09375 3.285156.941407 3.90625 2.523438l15.222656 39.015625 15.417969-4.695313c1.472656-.441406 3.097656.007813 4.132812 1.167969 1.035157 1.15625 1.289063 2.820312.667969 4.242188l-30.195312 68.832031c-.605469 1.375-1.941407 2.300781-3.441407 2.371093-.070312.007813-.140625.007813-.203125.007813-1.429687 0-2.757812-.769531-3.464844-2.019531l-36.953124-65.453125c-.765626-1.351563-.671876-3.03125.238281-4.289063zm0 0" fill="#b4e6a0"/><path d="m290.335938 329.371094c.835937-1.242188 2.335937-1.925782 3.8125-1.71875l74.515624 9.839844c1.539063.207031 2.820313 1.289062 3.277344 2.773437.460938 1.484375.019532 3.097656-1.140625 4.132813l-11.996093 10.761718 25.476562 33.226563c1.042969 1.359375 1.105469 3.230469.140625 4.652343-.960937 1.421876-2.710937 2.082032-4.367187 1.601563l-40.328126-11.296875-5.523437 15.144531c-.535156 1.453125-1.863281 2.46875-3.417969 2.59375-.101562.007813-.210937.015625-.320312.015625-1.429688 0-2.757813-.769531-3.464844-2.027344l-36.839844-65.515624c-.734375-1.316407-.671875-2.933594.175782-4.183594zm0 0" fill="#78c3a5"/><path d="m101.515625 305.984375-37.351563-60.34375c-.832031-1.351563-2.378906-2.035156-3.949218-1.847656-1.570313.222656-2.851563 1.359375-3.269532 2.882812l-4.40625 16.042969-42.300781-8.1875c-1.644531-.296875-3.378906.472656-4.21875 1.957031-.839843 1.492188-.628906 3.347657.511719 4.621094l28.921875 31.929687-11.4375 12.082032c-1.089844 1.148437-1.390625 2.84375-.769531 4.304687.628906 1.453125 2.058594 2.398438 3.644531 2.410157l71.226563.214843h.015624c1.4375 0 2.765626-.777343 3.472657-2.035156.707031-1.265625.667969-2.804687-.089844-4.03125zm0 0" fill="#96d7a5"/><path d="m179.523438 263.816406c-.90625-1.261718-2.492188-1.890625-3.992188-1.570312l-15.8125 3.113281-11.234375-40.339844c-.460937-1.65625-1.921875-2.820312-3.628906-2.90625-1.914063-.09375-3.289063.941407-3.910157 2.523438l-15.222656 39.015625-15.414062-4.695313c-1.476563-.441406-3.101563.007813-4.132813 1.167969-1.035156 1.15625-1.292969 2.820312-.667969 4.242188l30.191407 68.832031c.605469 1.375 1.945312 2.300781 3.441406 2.371093.070313.007813.140625.007813.203125.007813 1.429688 0 2.757812-.769531 3.464844-2.019531l36.953125-65.453125c.765625-1.351563.671875-3.03125-.238281-4.289063zm0 0" fill="#b4e6a0"/><path d="m142.640625 329.371094c-.839844-1.242188-2.339844-1.925782-3.816406-1.71875l-74.515625 9.839844c-1.535156.207031-2.820313 1.289062-3.277344 2.773437s-.015625 3.097656 1.140625 4.132813l12 10.761718-25.480469 33.226563c-1.039062 1.359375-1.101562 3.230469-.140625 4.652343.964844 1.421876 2.714844 2.082032 4.367188 1.601563l40.328125-11.296875 5.523437 15.144531c.539063 1.453125 1.867188 2.46875 3.421875 2.59375.101563.007813.207032.015625.316406.015625 1.429688 0 2.757813-.769531 3.464844-2.027344l36.839844-65.515624c.738281-1.316407.675781-2.933594-.171875-4.183594zm0 0" fill="#78c3a5"/><path d="m431.507812 252.910156c-1.585937-2.8125-4.792968-4.292968-7.960937-3.679687l-39.4375 7.636719-3.585937-13.046876c-.789063-2.878906-3.207032-5.011718-6.160157-5.4375-2.953125-.425781-5.878906.9375-7.445312 3.476563l-37.636719 60.792969c-1.433594 2.316406-1.496094 5.230468-.167969 7.609375 1.328125 2.371093 3.832031 3.839843 6.546875 3.839843h.023438l71.761718-.21875c2.992188-.007812 5.691407-1.792968 6.871094-4.542968 1.179688-2.75.609375-5.941406-1.449218-8.113282l-9.300782-9.824218 26.964844-29.773438c2.167969-2.394531 2.5625-5.90625.976562-8.71875zm-43.722656 33.570313c-2.628906 2.902343-2.582031 7.34375.113282 10.191406l2.144531 2.265625-40.894531.121094 21.46875-34.679688.867187 3.160156c1.039063 3.777344 4.804687 6.113282 8.660156 5.375l24.164063-4.679687zm0 0"/><path d="m364.539062 354.484375 9.683594-8.683594c2.179688-1.953125 3.023438-5 2.160156-7.796875-.867187-2.800781-3.28125-4.839844-6.1875-5.222656l-65.179687-8.605469 26.410156-60.207031c1.179688-2.683594.683594-5.804688-1.257812-7.996094-1.945313-2.1875-4.984375-3.046875-7.792969-2.191406l-12.4375 3.78125-14.160156-36.289062c-1.175782-3.007813-4.128906-4.9375-7.367188-4.761719-3.222656.160156-5.980468 2.367187-6.847656 5.476562l-10.445312 37.527344-12.757813-2.515625c-2.875-.570312-5.8125.589844-7.527344 2.964844-1.71875 2.375-1.894531 5.53125-.453125 8.082031l33.539063 59.410156-54.855469 30.902344c-1.824219 1.027344-3.53125 2.203125-5.144531 3.480469v-175.558594l42.097656-56.03125 1.539063 6.941406c.847656 3.828125 4.496093 6.363282 8.375 5.804688l31.066406-4.410156-22.207032 22.171874c-2.773437 2.765626-2.945312 7.203126-.398437 10.183594l4.621094 5.398438-32.511719-.027344h-.003906c-4.140625 0-7.496094 3.355469-7.5 7.496094s3.351562 7.5 7.492187 7.503906l48.820313.042969h.003906c2.925781 0 5.585938-1.703125 6.8125-4.359375 1.226562-2.660156.792969-5.792969-1.113281-8.015625l-10.707031-12.515625 33.214843-33.160156c2.285157-2.28125 2.855469-5.769532 1.410157-8.65625-1.441407-2.886719-4.566407-4.527344-7.765626-4.078126l-46.464843 6.601563-3.5625-16.082031c-.632813-2.859375-2.871094-5.089844-5.734375-5.710938-2.859375-.617187-5.824219.484375-7.582032 2.824219l-39.898437 53.109375v-23.785156l40.015625-80.03125c1.3125-2.621094.976562-5.765625-.855469-8.046875-1.832031-2.285157-4.828125-3.292969-7.671875-2.585938l-16.578125 4.148438-15.296875-45.882813c-1.019531-3.0625-3.886718-5.128906-7.113281-5.128906-3.230469 0-6.097656 2.066406-7.117187 5.128906l-15.292969 45.878906-16.582031-4.144531c-2.839844-.707031-5.835938.296875-7.667969 2.582031-1.832031 2.285157-2.167969 5.429688-.859375 8.046876l40.019531 80.035156v23.785156l-39.902344-53.109375c-1.757812-2.339844-4.714843-3.441406-7.582031-2.824219-2.863281.621094-5.101562 2.851563-5.734375 5.710938l-3.558594 16.082031-46.46875-6.601563c-3.199219-.449218-6.324219 1.191407-7.765625 4.078126-1.441406 2.886718-.871094 6.375 1.414063 8.65625l33.210937 33.160156-10.707031 12.511718c-1.902344 2.226563-2.339844 5.355469-1.113281 8.015626 1.226562 2.660156 3.886718 4.363281 6.8125 4.363281h.003906l81.390625-.070313v170.449219c-1.578125-1.238281-3.246094-2.382813-5.027344-3.382813l-31.890625-17.867187c-3.613281-2.023437-8.183594-.738281-10.207031 2.878906-2.023437 3.613281-.734375 8.183594 2.878906 10.207031l31.875 17.859376c7 3.941406 11.582031 11.0625 12.371094 18.964843v114.105469c0 4.144531 3.355469 7.5 7.5 7.5 4.140625 0 7.5-3.355469 7.5-7.5 0 0 .101563-112.886719.070313-113.496094.609374-8.144531 5.253906-15.527344 12.4375-19.574218l54.851562-30.902344 33.4375 59.464844c1.335938 2.375 3.84375 3.824218 6.535156 3.824218.203125 0 .40625-.007812.609375-.023437 2.921875-.238281 5.4375-2.152344 6.441407-4.90625l4.457031-12.214844 37.507812 10.511719c3.109375.875 6.425781-.347656 8.234375-3.019532 1.808594-2.675781 1.707032-6.207031-.257812-8.769531zm-220.714843-178.144531 4.625-5.398438c2.546875-2.980468 2.371093-7.417968-.398438-10.183594l-22.207031-22.171874 31.0625 4.410156c3.886719.550781 7.53125-1.976563 8.378906-5.804688l1.535156-6.941406 34.59375 46.042969zm53.285156-109.09375c3.804687.949218 7.695313-1.1875 8.9375-4.90625l10.375-31.121094 10.371094 31.121094c1.238281 3.71875 5.132812 5.855468 8.933593 4.90625l7.5-1.875-26.808593 53.617187-26.808594-53.617187zm77.921875 208.332031c3.84375.765625 7.625-1.574219 8.675781-5.347656l6.273438-22.542969 8.507812 21.800781c1.421875 3.648438 5.417969 5.589844 9.167969 4.449219l3.484375-1.0625-17.847656 40.683594-21.835938-38.6875zm65.085938 94.777344c-3.777344-1.066407-7.726563.96875-9.070313 4.648437l-1.246094 3.421875-21.773437-38.722656 44.039062 5.816406-2.710937 2.429688c-2.917969 2.617187-3.328125 7.039062-.945313 10.148437l14.238282 18.566406zm0 0"/><path d="m182.597656 268.046875c1.4375-2.550781 1.261719-5.707031-.453125-8.078125-1.714843-2.378906-4.65625-3.539062-7.53125-2.96875l-12.757812 2.515625-10.445313-37.527344c-.867187-3.105469-3.625-5.3125-6.847656-5.476562-3.226562-.179688-6.191406 1.757812-7.363281 4.761719l-14.160157 36.292968-12.441406-3.785156c-2.804687-.855469-5.84375.003906-7.789062 2.195312-1.945313 2.1875-2.4375 5.308594-1.261719 7.992188l21.542969 49.117188-21.507813-12.050782-35.472656-59.089844c-1.542969-2.574218-4.472656-3.972656-7.449219-3.566406-2.972656.40625-5.417968 2.546875-6.210937 5.441406l-3.585938 13.050782-39.4375-7.640625c-3.167969-.617188-6.375.867187-7.960937 3.679687-1.582032 2.816406-1.191406 6.324219.976562 8.71875l26.964844 29.773438-9.300781 9.828125c-2.058594 2.171875-2.625 5.359375-1.449219 8.109375 1.179688 2.75 3.878906 4.535156 6.871094 4.546875l68.683594.210937 21 11.761719-52.433594 6.921875c-2.902344.386719-5.320313 2.421875-6.183594 5.222656-.867188 2.796875-.023438 5.84375 2.160156 7.800782l9.679688 8.679687-23.703125 30.910156c-1.960938 2.5625-2.066407 6.09375-.257813 8.769531 1.808594 2.675782 5.128906 3.894532 8.234375 3.019532l37.507813-10.511719 4.460937 12.214844c1.003907 2.753906 3.515625 4.667969 6.4375 4.90625.203125.015625.40625.023437.609375.023437 2.691406 0 5.199219-1.449218 6.535156-3.824218zm-57.28125 5.890625c3.753906 1.140625 7.746094-.796875 9.171875-4.449219l8.503907-21.800781 6.277343 22.542969c1.050781 3.777343 4.832031 6.109375 8.675781 5.347656l3.570313-.707031-21.835937 38.6875-17.84375-40.679688zm-82.386718 25 2.144531-2.265625c2.695312-2.847656 2.746093-7.289063.113281-10.191406l-16.523438-18.246094 24.167969 4.679687c3.847657.742188 7.617188-1.597656 8.65625-5.375l.78125-2.847656 20.632813 34.367188zm60.246093 79.488281-1.25-3.421875c-1.101562-3.023437-3.964843-4.929687-7.042969-4.929687-.667968 0-1.351562.089843-2.027343.28125l-22.527344 6.3125 14.234375-18.570313c2.386719-3.109375 1.972656-7.53125-.945312-10.144531l-2.710938-2.433594 44.042969-5.8125zm0 0"/></svg>