<svg height="512pt" viewBox="0 0 512.00051 512" width="512pt" xmlns="http://www.w3.org/2000/svg"><path d="m105.011719 406.984375c-1.09375-3.472656.589843-9.535156.5625-15.648437-.019531-4.453126-2.371094-9.5-1.785157-14.882813.507813-4.6875 3.855469-9.363281 4.851563-14.472656.929687-4.777344-.480469-10.179688.894531-15.097657 1.335938-4.78125 5.382813-8.859374 7.15625-13.578124 1.777344-4.726563 1.375-10.339844 3.609375-14.800782 2.292969-4.582031 7.082031-7.710937 9.878907-11.796875 2.921874-4.273437 4.132812-9.839843 7.621093-13.328125 2.804688-2.804687 7.496094-3.347656 10.757813-5.582031 3.261718-2.234375 5.5-6.445313 9.085937-8.082031 3.589844-1.636719 8.101563-.496094 11.882813-1.496094 3.800781-1.007812 7.316406-4.273438 11.175781-4.609375 3.902344-.339844 7.675781 2.292969 11.496094 2.671875 3.863281.378906 8.277343-1.433594 11.917969-.285156 3.65625 1.148437 6.011718 5.089844 9.300781 7.046875 3.234375 1.921875 7.910156 2.15625 10.644531 4.890625 2.734375 2.738281 2.96875 7.414062 4.894531 10.644531 1.953125 3.289063 5.894531 5.644531 7.046875 9.300781 1.144532 3.640625-.667968 8.054688-.289062 11.917969.378906 3.820313 3.011718 7.59375 2.671875 11.492187-.335938 3.863282-3.601563 7.378907-4.609375 11.179688-1 3.78125.136718 8.292969-1.496094 11.882812-1.636719 3.585938-5.847656 5.824219-8.082031 9.085938s-2.773438 7.953125-5.582031 10.757812c-3.488282 3.488282-9.050782 4.695313-13.320313 7.617188-4.085937 2.792969-7.214844 7.582031-11.792969 9.878906-4.460937 2.230469-10.074218 1.832032-14.800781 3.609375-4.714844 1.773438-8.792969 5.820313-13.578125 7.15625-4.917969 1.375-10.324219-.035156-15.101562.894531-5.113282.996094-9.796876 4.347657-14.492188 4.855469-5.382812.585938-10.429688-1.765625-14.886719-1.785156-6.109375-.027344-12.164062 1.652344-15.632812.5625zm0 0" fill="#ae6472"/><path d="m406.984375 105.007812c1.09375 3.472657-.589844 9.535157-.558594 15.652344.019531 4.453125 2.371094 9.496094 1.785157 14.878906-.511719 4.6875-3.859376 9.367188-4.855469 14.476563-.929688 4.773437.480469 10.175781-.890625 15.09375-1.335938 4.785156-5.382813 8.859375-7.15625 13.578125-1.777344 4.726562-1.375 10.339844-3.609375 14.800781-2.296875 4.582031-7.085938 7.710938-9.878907 11.796875-2.921874 4.273438-4.132812 9.839844-7.621093 13.328125-2.804688 2.804688-7.496094 3.347657-10.757813 5.582031-3.261718 2.234376-5.5 6.445313-9.085937 8.082032-3.589844 1.636718-8.101563.496094-11.882813 1.496094-3.800781 1.007812-7.316406 4.273437-11.179687 4.609374-3.898438.339844-7.671875-2.292968-11.492188-2.671874-3.863281-.378907-8.277343 1.433593-11.917969.285156-3.65625-1.148438-6.015624-5.089844-9.300781-7.046875-3.234375-1.921875-7.910156-2.15625-10.644531-4.890625-2.738281-2.738282-2.96875-7.414063-4.894531-10.644532-1.957031-3.289062-5.898438-5.644531-7.046875-9.300781-1.144532-3.640625.667968-8.054687.285156-11.917969-.375-3.820312-3.007812-7.59375-2.667969-11.492187.335938-3.863281 3.597657-7.378906 4.605469-11.179687 1.003906-3.78125-.136719-8.292969 1.5-11.882813 1.632812-3.585937 5.84375-5.824219 8.082031-9.085937 2.234375-3.261719 2.773438-7.953126 5.578125-10.757813 3.488282-3.488281 9.054688-4.695313 13.324219-7.617187 4.085937-2.792969 7.210937-7.582032 11.792969-9.878907 4.460937-2.230469 10.070312-1.832031 14.796875-3.605469 4.71875-1.777343 8.796875-5.824218 13.582031-7.160156 4.917969-1.375 10.324219.035156 15.101562-.894531 5.113282-.996094 9.796876-4.347656 14.492188-4.855469 5.382812-.585937 10.429688 1.765625 14.882812 1.785156 6.109376.03125 12.167969-1.652343 15.632813-.5625zm0 0" fill="#ae6472"/><path d="m285 285c4.992188-4.988281 13.515625-5.414062 19.414062-8.925781 5.992188-3.5625 10.292969-10.75 16.957032-12.847657 6.640625-2.089843 14.6875 1.214844 21.734375.519532 6.96875-.6875 13.851562-5.484375 20.960937-4.863282 7.039063.613282 13.453125 6.5625 20.382813 8.398438 6.898437 1.828125 15.121093-.25 21.667969 2.734375 6.539062 2.976563 10.621093 10.660156 16.570312 14.738281 5.945312 4.074219 14.5 5.058594 19.613281 10.171875 6.363281 6.363281 8.574219 16.515625 13.898438 24.304688 5.097656 7.457031 13.832031 13.15625 18.015625 21.515625 4.070312 8.136718 3.339844 18.371094 6.582031 26.992187 3.234375 8.601563 10.613281 16.035157 13.050781 24.757813 2.503906 8.964844-.070312 18.820312 1.625 27.527344 1.816406 9.316406 7.921875 17.84375 8.851563 26.398437 1.070312 9.8125-3.21875 19.011719-3.253907 27.132813-.050781 11.152343 3.015626 22.207031 1.023438 28.539062-6.332031 1.992188-17.386719-1.078125-28.539062-1.027344-8.121094.039063-17.320313 4.328125-27.132813 3.257813-8.554687-.929688-17.082031-7.035157-26.398437-8.851563-8.707032-1.695312-18.5625.878906-27.527344-1.628906-8.722656-2.433594-16.15625-9.816406-24.757813-13.046875-8.621093-3.242187-18.855469-2.511719-26.992187-6.585937-8.355469-4.183594-14.058594-12.914063-21.515625-18.011719-7.789063-5.328125-17.941407-7.535157-24.304688-13.898438-5.113281-5.117187-6.097656-13.667969-10.171875-19.613281-4.078125-5.949219-11.757812-10.035156-14.738281-16.570312-2.984375-6.546876-.90625-14.773438-2.734375-21.667969-1.835938-6.929688-7.785156-13.34375-8.398438-20.382813-.621093-7.113281 4.179688-13.992187 4.863282-20.960937.695312-7.046875-2.609375-15.09375-.519532-21.734375 2.097657-6.667969 9.285157-10.964844 12.851563-16.957032 3.507813-5.898437 3.933594-14.425781 8.921875-19.414062zm0 0" fill="#afdc82"/><path d="m226.996094 226.996094c-4.988282 4.988281-13.515625 5.410156-19.414063 8.921875-5.988281 3.5625-10.289062 10.75-16.957031 12.847656-6.636719 2.089844-14.6875-1.214844-21.734375-.519531-6.96875.6875-13.847656 5.484375-20.960937 4.867187-7.039063-.613281-13.449219-6.566406-20.382813-8.402343-6.894531-1.828126-15.121094.25-21.667969-2.734376-6.535156-2.976562-10.621094-10.660156-16.566406-14.734374-5.949219-4.074219-14.5-5.058594-19.617188-10.175782-6.363281-6.363281-8.570312-16.515625-13.898437-24.304687-5.097656-7.453125-13.828125-13.15625-18.011719-21.511719-4.074218-8.136719-3.34375-18.371094-6.585937-26.992188-3.230469-8.601562-10.613281-16.039062-13.046875-24.757812-2.507813-8.96875.066406-18.824219-1.628906-27.527344-1.816407-9.320312-7.921876-17.847656-8.851563-26.398437-1.066406-9.8125 3.222656-19.015625 3.257813-27.132813.050781-11.152344-3.019532-22.210937-1.027344-28.539062 6.332031-1.996094 17.386718 1.074218 28.539062 1.023437 8.121094-.039062 17.324219-4.324219 27.132813-3.257812 8.554687.929687 17.082031 7.035156 26.398437 8.851562 8.707032 1.695313 18.5625-.878906 27.527344 1.628907 8.722656 2.433593 16.15625 9.816406 24.757812 13.046874 8.621094 3.242188 18.859376 2.511719 26.992188 6.585938 8.359375 4.183594 14.058594 12.914062 21.511719 18.011719 7.792969 5.328125 17.945312 7.535156 24.308593 13.898437 5.113282 5.117188 6.097657 13.667969 10.171876 19.613282 4.078124 5.949218 11.757812 10.035156 14.738281 16.570312 2.984375 6.546875.90625 14.773438 2.734375 21.667969 1.835937 6.929687 7.785156 13.34375 8.398437 20.382812.621094 7.113281-4.179687 13.992188-4.863281 20.960938-.695312 7.046875 2.609375 15.09375.519531 21.734375-2.097656 6.667968-9.285156 10.964844-12.851562 16.957031-3.507813 5.898437-3.933594 14.429687-8.921875 19.417969zm0 0" fill="#afdc82"/><path d="m214.832031 211.589844c-12.585937 2.726562-25.589843 4.328125-38.992187 4.328125-58.28125 0-110.210938-27.070313-143.996094-69.289063 2.378906 8.089844 2.226562 17.203125 5.9375 24.621094 4.1875 8.355469 12.917969 14.058594 18.015625 21.511719 5.324219 7.792969 7.535156 17.941406 13.898437 24.304687 5.117188 5.117188 13.667969 6.101563 19.617188 10.175782 5.945312 4.078124 10.03125 11.757812 16.566406 14.738281 6.546875 2.980469 14.773438.902343 21.667969 2.730469 6.933594 1.839843 13.347656 7.789062 20.386719 8.402343 7.109375.621094 13.988281-4.179687 20.957031-4.867187 7.050781-.691406 15.097656 2.609375 21.738281.519531 6.664063-2.097656 10.964844-9.28125 16.957032-12.847656 5.894531-3.507813 14.421874-3.933594 19.410156-8.921875.054687-.054688.078125-.132813.132812-.1875-5.492187-4.140625-9.679687-9.324219-12.296875-15.21875zm0 0" fill="#96cd82"/><path d="m502.921875 461.527344c-19.535156 7.046875-40.589844 10.90625-62.554687 10.90625-83.339844 0-153.730469-55.3125-176.554688-131.214844-.003906.632812 0 1.265625-.0625 1.886719-.6875 6.96875-5.484375 13.847656-4.867188 20.957031.617188 7.042969 6.566407 13.453125 8.402344 20.386719 1.828125 6.894531-.25 15.121093 2.734375 21.667969 2.980469 6.539062 10.660157 10.621093 14.738281 16.570312 4.074219 5.945312 5.058594 14.5 10.171876 19.613281 6.363281 6.363281 16.515624 8.574219 24.304687 13.898438 7.453125 5.097656 13.15625 13.832031 21.515625 18.015625 8.132812 4.074218 18.371094 3.34375 26.992188 6.582031 8.601562 3.234375 16.035156 10.613281 24.757812 13.050781 8.964844 2.503906 18.820312-.066406 27.527344 1.628906 9.316406 1.816407 17.84375 7.917969 26.398437 8.851563 9.808594 1.066406 19.011719-3.21875 27.132813-3.257813 11.152344-.050781 22.207031 3.019532 28.539062 1.023438 1.992188-6.332031-1.078125-17.382812-1.027344-28.535156.015626-3.789063.957032-7.820313 1.851563-12.03125zm0 0" fill="#96cd82"/><path d="m151.789062 384.253906c-16.9375 0-32.941406-3.859375-47.34375-10.582031-.28125.929687-.558593 1.855469-.660156 2.78125-.585937 5.382813 1.765625 10.425781 1.789063 14.878906.027343 6.117188-1.65625 12.179688-.5625 15.652344 3.46875 1.089844 9.523437-.59375 15.632812-.5625 4.453125.019531 9.5 2.371094 14.886719 1.785156 4.691406-.507812 9.375-3.855469 14.492188-4.855469 4.773437-.929687 10.179687.480469 15.101562-.894531 4.78125-1.335937 8.859375-5.382812 13.578125-7.15625 4.726563-1.777343 10.339844-1.375 14.796875-3.609375 4.582031-2.292968 7.707031-7.082031 11.792969-9.878906 4.273437-2.917969 9.835937-4.128906 13.324219-7.617188 2.804687-2.804687 3.347656-7.496093 5.582031-10.757812s6.445312-5.5 8.082031-9.085938c.734375-1.613281.882812-3.421874.945312-5.257812-20.457031 21.609375-49.335937 35.160156-81.4375 35.160156zm0 0" fill="#8c5564"/><path d="m319.660156 217.519531c-8.191406 0-16.117187-1.015625-23.789062-2.714843-2.003906 3.53125-4.578125 6.71875-7.671875 9.441406 2.761719 2.523437 7.238281 2.835937 10.382812 4.707031 3.285157 1.953125 5.644531 5.894531 9.296875 7.046875 3.640625 1.144531 8.054688-.667969 11.921875-.285156 3.820313.375 7.59375 3.007812 11.492188 2.667968 3.859375-.339843 7.378906-3.601562 11.179687-4.609374 3.78125-1 8.292969.136718 11.878906-1.496094 3.585938-1.632813 5.828126-5.847656 9.089844-8.082032 3.257813-2.234374 7.949219-2.773437 10.753906-5.582031 3.488282-3.488281 4.703126-9.054687 7.621094-13.328125 2.796875-4.085937 7.585938-7.214844 9.878906-11.796875.511719-1.023437.859376-2.117187 1.152344-3.238281-19.65625 16.953125-45.195312 27.269531-73.1875 27.269531zm0 0" fill="#8c5564"/><path d="m508.570312 473.617188c.011719-2.65625.703126-5.890626 1.4375-9.3125 1.183594-5.535157 2.523438-11.8125 1.777344-18.675782-.613281-5.640625-2.832031-10.8125-4.976562-15.816406-1.683594-3.921875-3.269532-7.621094-3.976563-11.234375-.613281-3.160156-.515625-6.875-.40625-10.804687.144531-5.320313.308594-11.347657-1.359375-17.316407-1.617187-5.792969-4.738281-10.691406-7.757812-15.429687-2.207032-3.464844-4.289063-6.738282-5.5-9.957032-1.191406-3.164062-1.769532-6.886718-2.378906-10.828124-.863282-5.585938-1.757813-11.363282-4.519532-16.875-2.929687-5.847657-7.476562-10.433594-11.492187-14.476563-2.691407-2.714844-5.238281-5.277344-7.03125-7.902344-1.859375-2.714843-3.351563-5.964843-4.929688-9.402343-2.550781-5.554688-5.1875-11.300782-9.851562-15.964844-4.039063-4.035156-9.113281-6.011719-13.589844-7.753906-2.703125-1.050782-5.253906-2.042969-7.089844-3.300782-1.859375-1.273437-3.738281-3.335937-5.730469-5.519531-3.21875-3.53125-6.867187-7.53125-11.972656-9.859375-5.117187-2.328125-10.4375-2.417969-15.128906-2.5-2.882812-.046875-5.605469-.09375-7.726562-.65625-2.160157-.570312-4.617188-1.902344-7.222657-3.3125-4.179687-2.261719-8.914062-4.828125-14.433593-5.308594-5.671876-.496094-10.710938 1.289063-15.152344 2.859375-2.625.929688-5.105469 1.808594-7.191406 2.015625-2.128907.207032-4.800782-.152344-7.625-.53125-4.789063-.652344-10.214844-1.382812-15.625.316406-5.074219 1.601563-8.800782 4.878907-12.183594 8.105469-3 2.855469-3.113282 7.605469-.257813 10.601563 2.859375 3 7.605469 3.113281 10.605469.257812 2.191406-2.089844 4.328125-4.019531 6.339844-4.652344 2.214844-.695312 5.5625-.242187 9.109375.234376 3.390625.457031 7.230469.976562 11.105469.597656 3.902343-.386719 7.527343-1.667969 10.726562-2.804688 3.296875-1.164062 6.40625-2.269531 8.847656-2.054687 2.417969.210937 5.414063 1.832031 8.59375 3.554687 3.105469 1.683594 6.632813 3.59375 10.523438 4.621094 3.882812 1.03125 7.828125 1.097656 11.3125 1.15625 3.542968.0625 6.890625.117188 9.164062 1.152344 2.308594 1.050781 4.640625 3.609375 7.105469 6.3125 2.363281 2.59375 5.039063 5.527344 8.335937 7.785156 3.261719 2.238281 6.910157 3.65625 10.128907 4.910156 3.398437 1.324219 6.613281 2.574219 8.421875 4.382813 2.761718 2.761719 4.738281 7.0625 6.828125 11.613281 1.769531 3.855469 3.601562 7.84375 6.179687 11.609375 2.566406 3.753906 5.71875 6.933594 8.765625 10.003906 3.535157 3.5625 6.875 6.925781 8.730469 10.628907 1.707031 3.410156 2.386719 7.800781 3.105469 12.453124.699219 4.519532 1.425781 9.195313 3.160156 13.8125 1.761719 4.679688 4.367187 8.773438 6.890625 12.734376 2.542969 3.988281 4.941406 7.757812 5.960938 11.40625 1.058593 3.789062.9375 8.203124.8125 12.875-.125 4.570312-.25 9.296874.679687 14.078124 1.011719 5.183594 2.992187 9.808594 4.910156 14.277344 1.789063 4.175782 3.480469 8.117188 3.851563 11.527344.488281 4.464844-.496094 9.058594-1.535156 13.917969-.859376 4.015625-1.746094 8.171875-1.765626 12.378906-.023437 4.976563.511719 9.84375.984376 14.136719.273437 2.527344.574218 5.238281.675781 7.546875-2.3125-.101563-5.03125-.398438-7.566407-.679688-4.203124-.460937-8.960937-.984375-13.832031-.984375-.101562 0-.207031 0-.3125 0-4.207031.019532-8.359375.90625-12.378906 1.765625-4.855469 1.039063-9.445313 2.019531-13.90625 1.535157-3.40625-.371094-7.34375-2.058594-11.511719-3.847657-4.464844-1.917969-9.082031-3.898437-14.265625-4.910156-4.78125-.929687-9.503906-.800781-14.074219-.675781-4.671874.125-9.082031.246094-12.867187-.8125-3.648437-1.019532-7.417969-3.417969-11.40625-5.960938-3.957031-2.519531-8.054687-5.128906-12.730469-6.886718-4.617187-1.734376-9.292968-2.460938-13.816406-3.160157-4.652344-.71875-9.046875-1.398437-12.460938-3.109375-3.707031-1.855468-7.070312-5.195312-10.632812-8.730468-3.074219-3.046876-6.25-6.199219-10.003906-8.765626-3.769532-2.578124-7.753906-4.40625-11.613282-6.179687-4.554687-2.09375-8.855468-4.070313-11.621093-6.832031-1.808594-1.808594-3.058594-5.019532-4.382813-8.421875-1.253906-3.21875-2.671875-6.867188-4.910156-10.128907-2.253906-3.296874-5.191406-5.972656-7.78125-8.335937-2.707031-2.464844-5.261719-4.796875-6.316406-7.105469-1.035156-2.273437-1.089844-5.621094-1.152344-9.164062-.058594-3.480469-.125-7.429688-1.152344-11.3125-1.03125-3.890625-2.941406-7.414063-4.625-10.523438-1.71875-3.175781-3.34375-6.175781-3.554687-8.59375-.210938-2.433594.890625-5.546875 2.058593-8.847656 1.132813-3.195312 2.414063-6.824219 2.800782-10.726562.382812-3.871094-.136719-7.714844-.597656-11.105469-.476563-3.546875-.929688-6.898438-.234376-9.109375.699219-2.21875 2.984376-4.601563 5.40625-7.125 2.253907-2.355469 4.8125-5.019532 6.734376-8.25 1.863281-3.132813 2.933593-6.441406 3.96875-9.644532.121093-.382812.246093-.761718.367187-1.136718l18.757813 18.757812 39.511718 110.636719c1.097656 3.066406 3.984375 4.976563 7.0625 4.976563.835938 0 1.691406-.140626 2.523438-.4375 3.898437-1.394532 5.933594-5.6875 4.539062-9.585938l-28.863281-80.8125 51.375 51.375 20.90625 58.53125c1.09375 3.066406 3.980469 4.976562 7.0625 4.976562.835937 0 1.6875-.140624 2.523437-.4375 3.898438-1.394531 5.933594-5.683593 4.539063-9.585937l-10.253906-28.707031 44.550781 44.550781c1.464844 1.464844 3.386719 2.195313 5.304688 2.195313 1.921874 0 3.839843-.730469 5.304687-2.195313 2.929687-2.929687 2.929687-7.679687 0-10.605469l-44.550781-44.554687 28.710937 10.253906c3.898438 1.394531 8.191407-.636719 9.585938-4.539063 1.390625-3.902343-.640625-8.191406-4.542969-9.585937l-58.53125-20.90625-51.375-51.375 80.8125 28.863281c3.902344 1.394532 8.191406-.640625 9.585938-4.539062 1.394531-3.902344-.640626-8.191406-4.539063-9.585938l-110.636719-39.515625-25.910156-25.90625c-.003906-.003906-.007812-.007812-.011719-.011719-.003906-.003906-.007812-.007812-.011719-.011718l-23.683593-23.683594 22.605469-22.605469c.90625.34375 1.792968.632813 2.613281.902344 1.144531.367187 2.324219.75 2.921875 1.101563.628906.375 1.542968 1.25 2.421875 2.097656 2.074219 1.984375 4.652343 4.460937 8.460937 5.65625 3.6875 1.160156 7.207032.6875 10.035156.304687 1.289063-.175781 2.628907-.355469 3.398438-.277343.734375.070312 1.960938.503906 3.148438.925781 2.304687.816406 5.109374 1.808593 8.367187 1.808593.445313 0 .898437-.019531 1.363281-.058593 3.730469-.324219 6.78125-1.976563 9.234375-3.308594 1.1875-.644531 2.421875-1.3125 3.21875-1.519531.765625-.203125 2.117188-.226563 3.425781-.25 2.761719-.046875 6.195313-.101563 9.644532-1.675782 3.425781-1.5625 5.773437-4.136718 7.660156-6.203124.914062-1 1.855469-2.039063 2.554688-2.515626.683593-.46875 1.964843-.964843 3.203124-1.449218 2.628907-1.023438 5.898438-2.296875 8.617188-5.011719 2.988281-2.988281 4.632812-6.574219 6.085938-9.738281.804687-1.753906 1.566406-3.40625 2.425781-4.664063.808593-1.183593 2.097656-2.484375 3.464843-3.859375 2.378907-2.398437 5.078126-5.117187 6.925782-8.8125 1.75-3.496094 2.308594-7.085937 2.796875-10.253906.308593-1.984375.597656-3.855469 1.128906-5.265625.539063-1.433594 1.589844-3.082031 2.699219-4.832031 1.707031-2.675782 3.636718-5.707032 4.660156-9.367188 1.050781-3.765625.953125-7.339844.867188-10.5-.054688-1.960937-.105469-3.8125.160156-5.175781.316406-1.625 1.117187-3.492187 1.964844-5.46875 1.21875-2.828125 2.59375-6.039063 2.984374-9.632813.46875-4.304687-.359374-8.191406-1.027343-11.3125-.363281-1.699218-.707031-3.308593-.714844-4.414062-.007813-2.066406.234375-4.285156.472656-6.433594.445313-4.050781.867188-7.875-.257812-11.4375-.734375-2.332031-2.5625-4.164062-4.898438-4.898437-3.558593-1.117188-7.378906-.699219-11.421875-.253907-2.144531.234376-4.355468.507813-6.429687.46875-1.109375-.003906-2.714844-.347656-4.414063-.710937-3.125-.667969-7.007812-1.5-11.316406-1.03125-3.597656.390625-6.808594 1.769531-9.644531 2.984375-1.976563.847656-3.847657 1.648438-5.472657 1.96875-1.367187.265625-3.222656.214844-5.183593.160156-3.160157-.082031-6.734375-.183594-10.503907.871094-3.660156 1.023438-6.691406 2.953125-9.367187 4.65625-1.746094 1.113281-3.394531 2.164062-4.832031 2.703125-1.40625.53125-3.28125.820313-5.261719 1.128906-3.167969.488281-6.757813 1.042969-10.253906 2.796875-3.695313 1.847656-6.410157 4.546875-8.808594 6.925782-1.375 1.367187-2.675781 2.65625-3.859375 3.464843-1.253906.855469-2.90625 1.617188-4.660156 2.421875-3.160156 1.453125-6.746094 3.097656-9.734375 6.085938-2.714844 2.714844-3.988281 5.988281-5.011719 8.617187-.484375 1.238281-.980469 2.519531-1.449219 3.203125-.480469.695313-1.515625 1.640625-2.515625 2.554688-2.066406 1.886718-4.644531 4.230468-6.207031 7.664062-1.570313 3.445313-1.628906 6.882813-1.675781 9.640625-.019532 1.308594-.042969 2.664063-.246094 3.425781-.210938.796876-.875 2.027344-1.519531 3.214844-1.328125 2.453125-2.984375 5.507813-3.308594 9.234375-.335937 3.847657.820313 7.113281 1.75 9.734375.417969 1.1875.855469 2.410156.925781 3.148438.074219.773437-.105468 2.105468-.277344 3.394531-.382812 2.828125-.859374 6.351563.300782 10.039063 1.199218 3.808593 3.675781 6.386718 5.660156 8.457031.847656.882812 1.722656 1.796875 2.09375 2.421875.355469.59375.738281 1.777344 1.105469 2.921875.265625.824219.558593 1.710937.902343 2.621093l-22.601562 22.601563-19.308594-19.308594c1.347656-2.691406 2.253906-5.480469 3.09375-8.082031.8125-2.519531 1.582032-4.902344 2.582032-6.582031 1.042968-1.757813 2.804687-3.59375 4.671874-5.535157 3.34375-3.488281 7.132813-7.441406 8.886719-13.007812 1.703125-5.40625.96875-10.832031.320313-15.621094-.378906-2.828125-.742188-5.496094-.53125-7.628906.207031-2.085938 1.082031-4.566406 2.011718-7.191406 1.574219-4.441406 3.355469-9.476563 2.863282-15.152344-.480469-5.519531-3.046875-10.257812-5.308594-14.433594-1.410156-2.605468-2.742188-5.0625-3.316406-7.222656-.5625-2.121094-.609375-4.84375-.65625-7.726562-.082032-4.691407-.167969-10.015626-2.5-15.128907-2.328125-5.105469-6.328125-8.753906-9.855469-11.972656-2.183594-1.988281-4.246094-3.867187-5.519531-5.726563-1.257813-1.839843-2.253906-4.390624-3.304688-7.09375-1.742187-4.476562-3.71875-9.550781-7.753906-13.585937-4.664062-4.667969-10.410156-7.308594-15.96875-9.859375-3.4375-1.578125-6.6875-3.070312-9.40625-4.929688-2.625-1.796874-5.1875-4.339843-7.902344-7.03125-4.046875-4.015624-8.632812-8.566406-14.484375-11.496093-5.515625-2.761719-11.292969-3.65625-16.882812-4.523438-3.941407-.605469-7.664063-1.183593-10.828125-2.375-3.21875-1.207031-6.492188-3.292969-9.953125-5.5-4.738281-3.015625-9.636719-6.136719-15.429688-7.753906-5.96875-1.667969-11.992187-1.503906-17.3125-1.355469-3.929687.105469-7.640625.207032-10.796875-.40625-3.609375-.703125-7.304687-2.292968-11.21875-3.972656-5-2.140625-10.167968-4.359375-15.800781-4.972656-6.863281-.746094-13.136719.59375-18.671875 1.777344-3.421875.730468-6.652344 1.421874-9.3125 1.433593-4.132812.003907-8.347656-.445312-12.433594-.894531-7.011718-.769531-13.070312-1.4375-18.320312.21875-2.335938.734375-4.164063 2.5625-4.902344 4.898438-1.648438 5.25-.984375 11.296874-.214844 18.304687.449219 4.082031.914063 8.304687.894532 12.421875-.011719 2.660156-.703126 5.890625-1.4375 9.3125-1.179688 5.539062-2.523438 11.8125-1.777344 18.679688.613281 5.636718 2.832031 10.8125 4.980468 15.816406 1.679688 3.917968 3.265626 7.621094 3.96875 11.234375.617188 3.160156.515626 6.871093.410157 10.800781-.144531 5.320312-.304688 11.351562 1.359375 17.320312 1.621094 5.792969 4.738281 10.6875 7.757812 15.425782 2.207032 3.464844 4.289063 6.738281 5.5 9.957031 1.191406 3.167969 1.765625 6.886719 2.375 10.828125.867188 5.585938 1.761719 11.363281 4.519532 16.875 2.933593 5.851562 7.480468 10.433594 11.496093 14.480469 2.691407 2.710937 5.238281 5.273437 7.03125 7.898437 1.859375 2.71875 3.351563 5.96875 4.929688 9.40625 2.550781 5.554688 5.1875 11.296875 9.851562 15.960938 4.039063 4.035156 9.113281 6.011718 13.589844 7.753906 2.703125 1.054688 5.253906 2.046875 7.089844 3.304688 1.859375 1.273437 3.738281 3.335937 5.730469 5.519531 3.21875 3.527343 6.867187 7.53125 11.972656 9.855469 5.113281 2.332031 10.433594 2.421874 15.128906 2.5 2.878906.050781 5.601562.09375 7.722656.65625 2.160156.574218 4.621094 1.90625 7.222656 3.3125 4.179688 2.265624 8.914063 4.828124 14.433594 5.3125.660156.054687 1.308594.082031 1.949219.082031 4.886719 0 9.277344-1.554688 13.207031-2.945313 2.625-.929687 5.105469-1.808594 7.191406-2.011718 2.125-.210938 4.796876.148437 7.625.53125 4.789063.648437 10.214844 1.382812 15.628907-.324219 1.015625-.320313 2.023437-.722657 3-1.203125 3.722656-1.820313 5.261719-6.3125 3.4375-10.03125-1.820313-3.722656-6.3125-5.257813-10.03125-3.441406-.3125.15625-.617188.277343-.917969.371093-2.210938.699219-5.5625.242188-9.109375-.234375-3.386719-.457031-7.230469-.976562-11.105469-.597656-3.902344.386719-7.527344 1.667969-10.726562 2.804688-3.296875 1.164062-6.414063 2.257812-8.847656 2.054687-2.414063-.210937-5.414063-1.832031-8.589844-3.554687-3.109375-1.683594-6.632813-3.589844-10.523438-4.621094-3.886718-1.03125-7.832031-1.097656-11.3125-1.15625-3.542968-.058594-6.890625-.117188-9.164062-1.152344-2.308594-1.050781-4.640625-3.605469-7.105469-6.3125-2.363281-2.59375-5.042969-5.527344-8.335937-7.785156-3.261719-2.238282-6.910157-3.65625-10.128907-4.910156-3.402343-1.320313-6.613281-2.574219-8.421875-4.382813-2.761718-2.761719-4.738281-7.058594-6.828125-11.613281-1.769531-3.855469-3.601562-7.84375-6.179687-11.609375-2.566406-3.753907-5.71875-6.933594-8.765625-10.003907-3.535157-3.558593-6.875-6.921874-8.730469-10.628906-1.707031-3.410156-2.386719-7.804687-3.105469-12.453125-.699219-4.519531-1.421875-9.195312-3.160156-13.8125-1.757813-4.679687-4.367187-8.773437-6.890625-12.734375-2.539062-3.988281-4.941406-7.757812-5.960938-11.40625-1.058593-3.789062-.9375-8.203125-.8125-12.875.125-4.570312.253907-9.296875-.679687-14.078125-1.011719-5.183593-2.992187-9.808593-4.910156-14.277343-1.789063-4.175782-3.480469-8.117188-3.851563-11.523438-.484375-4.46875.496094-9.0625 1.535156-13.921875.859376-4.015625 1.746094-8.171875 1.769532-12.378906.023437-4.976563-.515625-9.84375-.984375-14.136719-.28125-2.527344-.578125-5.238281-.679688-7.546875 2.3125.101563 5.03125.398437 7.5625.679687 4.296875.472657 9.140625.96875 14.148438.984376 4.207031-.019532 8.363281-.90625 12.378906-1.765626 4.855469-1.039062 9.445313-2.019531 13.90625-1.535156 3.402344.371094 7.34375 2.0625 11.511719 3.847656 4.464844 1.917969 9.082031 3.898438 14.265625 4.910157 4.78125.929687 9.503906.804687 14.074219.679687 4.671874-.128906 9.082031-.25 12.867187.808594 3.648437 1.019531 7.417969 3.417969 11.40625 5.960938 3.960937 2.519531 8.054687 5.128906 12.730469 6.886718 4.621094 1.734375 9.292968 2.460938 13.816406 3.160156 4.652344.71875 9.046875 1.398438 12.460938 3.109376 3.707031 1.855468 7.070312 5.191406 10.632812 8.730468 3.070312 3.046875 6.25 6.199219 10.003906 8.765625 3.765625 2.578125 7.753906 4.40625 11.613282 6.179688 4.554687 2.09375 8.855468 4.070312 11.621093 6.832031 1.808594 1.808594 3.058594 5.023438 4.382813 8.421875 1.253906 3.21875 2.671875 6.867187 4.90625 10.128906 2.257812 3.296875 5.195312 5.972657 7.785156 8.335938 2.707031 2.46875 5.265625 4.796875 6.316406 7.105469 1.035156 2.273437 1.089844 5.621093 1.152344 9.164062.058594 3.480469.125 7.429688 1.15625 11.3125 1.03125 3.890625 2.9375 7.414062 4.621094 10.523438 1.722656 3.175781 3.34375 6.175781 3.554687 8.59375.214844 2.433593-.890625 5.546874-2.054687 8.84375-1.132813 3.199218-2.417969 6.828124-2.800782 10.730468-.382812 3.875.136719 7.714844.59375 11.105469.480469 3.546875.929688 6.898437.234376 9.109375-.699219 2.21875-2.984376 4.601562-5.402344 7.125-2.257813 2.355469-4.816406 5.019531-6.738282 8.25-1.863281 3.132812-2.933593 6.441406-3.964843 9.644531-.125.382813-.246094.761719-.371094 1.140625l-18.757813-18.761718-39.515624-110.636719c-1.390626-3.898438-5.683594-5.929688-9.582032-4.539063-3.902344 1.394532-5.9375 5.6875-4.542968 9.585938l28.863281 80.8125-51.375-51.375-20.90625-58.53125c-1.390625-3.902344-5.683594-5.929688-9.582031-4.542969-3.902344 1.394531-5.933594 5.6875-4.542969 9.585937l10.253906 28.710938-44.550781-44.550781c-2.929688-2.929688-7.679688-2.929688-10.609375 0-2.925781 2.929687-2.925781 7.675781 0 10.605469l44.554687 44.550781-28.710937-10.25c-3.898438-1.390625-8.195313.636719-9.585938 4.539062-1.394531 3.898438.640625 8.191407 4.539063 9.585938l58.535156 20.902343 51.375 51.375-80.816406-28.859374c-3.898438-1.394532-8.191406.636718-9.582032 4.539062-1.394531 3.898438.636719 8.191406 4.539063 9.585938l110.636719 39.515624 49.617187 49.613282-22.605469 22.605468c-.910156-.34375-1.792968-.636718-2.617187-.902343-1.140625-.367188-2.324219-.75-2.917969-1.101563-.632812-.375-1.542968-1.25-2.425781-2.097656-2.070313-1.988281-4.648437-4.460938-8.457031-5.660156-3.6875-1.15625-7.207032-.683594-10.039063-.300782-1.289062.175782-2.617187.355469-3.398437.277344-.734375-.074218-1.960938-.507812-3.144532-.925781-2.625-.929687-5.890624-2.082031-9.734374-1.75-3.726563.324219-6.78125 1.976563-9.234376 3.304687-1.1875.648438-2.417968 1.3125-3.214843 1.523438-.765625.203125-2.117188.226562-3.425781.25-2.761719.042969-6.195313.101562-9.644532 1.671875-3.429687 1.5625-5.777344 4.140625-7.664062 6.207031-.914063 1-1.855469 2.039063-2.550782 2.515625-.6875.46875-1.964843.964844-3.203124 1.449219-2.628907 1.023438-5.902344 2.296875-8.617188 5.011719-2.988281 2.988281-4.636719 6.574219-6.089844 9.738281-.804687 1.753906-1.566406 3.40625-2.421875 4.660156-.808593 1.1875-2.101562 2.484375-3.464843 3.863282-2.378907 2.394531-5.078126 5.113281-6.929688 8.808593-1.75 3.5-2.304688 7.089844-2.796875 10.257813-.304687 1.980468-.59375 3.855468-1.125 5.265625-.539063 1.433593-1.589844 3.085937-2.703125 4.832031-1.703125 2.675781-3.632812 5.707031-4.65625 9.367188-1.050781 3.765624-.953125 7.339843-.867188 10.496093.054688 1.960938.101563 3.816407-.164062 5.179688-.316406 1.625-1.117188 3.488281-1.964844 5.464843-1.214844 2.832032-2.589844 6.042969-2.984375 9.636719-.46875 4.304688.363281 8.191407 1.03125 11.3125.363281 1.699219.707031 3.304688.710938 4.414063.011719 2.066406-.234375 4.285156-.46875 6.433594-.445313 4.046874-.867188 7.871093.253906 11.433593.734375 2.335938 2.566406 4.164063 4.902344 4.902344 3.558593 1.113281 7.378906.695313 11.421875.253906 2.144531-.238281 4.382812-.476562 6.429687-.472656 1.105469.007813 2.714844.351563 4.414063.714844 2.488281.53125 5.457031 1.167969 8.742187 1.167969.839844 0 1.699219-.042969 2.574219-.140626 3.597656-.390624 6.808594-1.765624 9.644531-2.980468 1.976563-.851563 3.84375-1.652344 5.472657-1.96875 1.367187-.265625 3.21875-.214844 5.183593-.160156 3.15625.082031 6.734375.179687 10.5-.871094 3.660157-1.023438 6.691407-2.953125 9.367188-4.660156 1.75-1.113282 3.398437-2.164063 4.835937-2.703126 1.40625-.527343 3.28125-.820312 5.261719-1.125 3.167969-.492187 6.757813-1.046874 10.253906-2.796874 3.691407-1.851563 6.410157-4.546876 8.808594-6.929688 1.375-1.363281 2.671875-2.652344 3.859375-3.464844 1.25-.855468 2.90625-1.613281 4.65625-2.417968 3.164062-1.453126 6.746094-3.101563 9.734375-6.085938 2.71875-2.71875 3.992187-5.988281 5.015625-8.617188.480469-1.238281.980469-2.519531 1.449219-3.203124.476562-.695313 1.511719-1.640626 2.515625-2.554688 2.066406-1.886719 4.640625-4.234375 6.203125-7.664062 1.570312-3.445313 1.628906-6.882813 1.675781-9.644532.023438-1.308594.046875-2.660156.25-3.425781.210938-.792969.875-2.023437 1.519531-3.214844 1.328125-2.453125 2.984375-5.507812 3.308594-9.234375.335937-3.84375-.820313-7.109375-1.75-9.734375-.421875-1.1875-.855469-2.410156-.925781-3.144531-.078125-.777344.101562-2.109375.277344-3.398438.382812-2.828124.859374-6.347656-.300782-10.035156-1.199218-3.808594-3.671875-6.386718-5.660156-8.460937-.847656-.882813-1.722656-1.792969-2.097656-2.421875-.351563-.59375-.734375-1.773438-1.101563-2.917969-.265625-.824219-.558593-1.710937-.902343-2.617187l22.601562-22.605469 19.304688 19.308593c-1.347657 2.6875-2.25 5.480469-3.089844 8.078126-.8125 2.523437-1.582032 4.902343-2.582032 6.582031-1.046874 1.757812-2.804687 3.59375-4.671874 5.539062-3.34375 3.484375-7.132813 7.4375-8.886719 13.003907-1.703125 5.40625-.96875 10.835937-.320313 15.621093.378906 2.828125.742188 5.496094.53125 7.628907-.207031 2.085937-1.082031 4.566406-2.011718 7.191406-1.574219 4.441406-3.355469 9.476562-2.863282 15.15625.480469 5.515625 3.046875 10.253906 5.308594 14.429687 1.410156 2.605469 2.742188 5.0625 3.316406 7.226563.5625 2.121094.605469 4.839844.65625 7.722656.078125 4.695312.167969 10.015625 2.5 15.128906 2.324219 5.105469 6.328125 8.753906 9.855469 11.972656 2.183594 1.992188 4.246094 3.871094 5.519531 5.730469 1.257813 1.835938 2.25 4.386719 3.304688 7.089844 1.742187 4.476563 3.71875 9.550781 7.753906 13.589844 4.664062 4.664062 10.410156 7.304687 15.96875 9.855469 3.441406 1.578124 6.6875 3.070312 9.40625 4.929687 2.625 1.796875 5.1875 4.339844 7.902344 7.03125 4.046875 4.015625 8.632812 8.566406 14.484375 11.496094 5.515625 2.761719 11.292969 3.65625 16.882812 4.523437 3.941407.605469 7.664063 1.183594 10.828125 2.375 3.21875 1.207032 6.492188 3.292969 9.953125 5.5 4.738281 3.015625 9.636719 6.136719 15.425781 7.753906 5.96875 1.664063 11.996094 1.5 17.316407 1.355469 3.929687-.105469 7.636719-.207031 10.796875.40625 3.605468.703125 7.304687 2.292969 11.21875 3.972657 5 2.144531 10.167968 4.363281 15.800781 4.976562 1.375.148438 2.730469.214844 4.054687.214844 5.296876 0 10.191407-1.046875 14.617188-1.992188 3.417969-.730468 6.652344-1.425781 9.308594-1.4375 4.074218-.019531 8.351562.445313 12.4375.898438 7.015625.769531 13.070312 1.4375 18.320312-.21875 2.335938-.734375 4.164063-2.566406 4.898438-4.902344 1.652344-5.246094.988281-11.292969.21875-18.296875-.449219-4.085937-.914063-8.308594-.894532-12.429687zm-219.082031-264.039063c-1.253906-2.105469-2.796875-3.714844-4.160156-5.136719-.792969-.824218-1.992187-2.074218-2.175781-2.570312-.148438-.5625.09375-2.351563.253906-3.535156.273438-2.039063.589844-4.355469.339844-6.871094-.25-2.550782-1.027344-4.746094-1.714844-6.683594-.417969-1.191406-.996094-2.824219-.945312-3.425781.054687-.625.957031-2.292969 1.554687-3.394531 1.015625-1.871094 2.160156-3.992188 2.832031-6.515626.667969-2.527343.707032-4.910156.746094-7.015624.023438-1.371094.050781-3.074219.324219-3.675782.289062-.636718 1.664062-1.886718 2.664062-2.800781 1.558594-1.417969 3.320313-3.027344 4.78125-5.160156 1.445313-2.109375 2.300781-4.304688 3.054688-6.238281.511719-1.320313 1.152343-2.964844 1.640625-3.453126 1.085937-1.085937 3.175781-2.046874 5.390625-3.0625 2.136719-.980468 4.5625-2.09375 6.863281-3.667968 2.3125-1.582032 4.25-3.503906 5.960938-5.199219 1.753906-1.742187 3.410156-3.390625 4.957031-4.164063 1.398437-.699218 3.550781-1.03125 5.832031-1.386718 2.523438-.390625 5.386719-.832032 8.246094-1.90625 2.898437-1.089844 5.402344-2.6875 7.613281-4.09375 1.96875-1.253906 3.828125-2.4375 5.347656-2.863282 1.585938-.441406 3.761719-.382812 6.058594-.320312 2.5625.066406 5.46875.144531 8.457031-.4375 3.199219-.621094 6.023438-1.832031 8.515625-2.902344 2.050781-.878906 3.988281-1.710937 5.355469-1.855468 1.902344-.210938 4.164062.273437 6.554688.785156 2.375.507812 4.824218 1.03125 7.484374 1.042968 2.910157.003907 5.691407-.289062 8.136719-.558593.011719 0 .023438-.003907.035157-.003907-.003907.015626-.003907.03125-.003907.042969-.269531 2.449219-.574219 5.21875-.5625 8.144531.011719 2.65625.535157 5.109376 1.042969 7.480469.511719 2.390625.996094 4.644531.789062 6.550781-.148437 1.363282-.980468 3.296876-1.859374 5.34375-1.066407 2.488282-2.277344 5.3125-2.902344 8.511719-.582032 2.988281-.503906 5.894531-.433594 8.457031.0625 2.296876.121094 4.46875-.320312 6.054688-.421876 1.515625-1.609376 3.375-2.863282 5.34375-1.40625 2.210938-3 4.714844-4.089844 7.609375-1.074218 2.863281-1.519531 5.726563-1.910156 8.253906-.351562 2.28125-.6875 4.433594-1.386718 5.832031-.773438 1.546876-2.417969 3.203126-4.160157 4.960938-1.695312 1.707031-3.617187 3.644531-5.199219 5.960938-1.578124 2.304687-2.691406 4.730468-3.671874 6.867187-1.019532 2.214844-1.980469 4.304687-3.066407 5.390625-.488281.488281-2.128906 1.128906-3.453125 1.644531-1.933594.753907-4.125 1.605469-6.238281 3.050781-2.128906 1.460938-3.738281 3.226563-5.15625 4.785157-.914063 1-2.164063 2.371093-2.800781 2.660156-.601563.273437-2.308594.304687-3.675782.328125-2.105468.035156-4.488281.074219-7.015624.746094-2.523438.667968-4.644532 1.816406-6.519532 2.832031-1.101562.597656-2.765625 1.496094-3.390625 1.550781-.59375.042969-2.234375-.523437-3.429687-.945312-1.9375-.6875-4.128906-1.460938-6.679688-1.714844-.644531-.0625-1.277344-.089844-1.894531-.089844-1.792969 0-3.460937.226563-4.980469.429688-1.1875.160156-2.972656.398437-3.523437.257812-.507813-.1875-1.757813-1.382812-2.582031-2.175781-1.421876-1.363281-3.035157-2.910156-5.136719-4.160156-.503907-.300781-1.011719-.566407-1.515625-.808594l11.316406-11.3125 42.496094-15.179687c3.898437-1.394532 5.933594-5.683594 4.542968-9.585938-1.394531-3.898438-5.683593-5.929688-9.585937-4.539062l-12.675781 4.527343 36.53125-36.535156c2.929687-2.929687 2.929687-7.679687 0-10.605469-2.929688-2.929687-7.675782-2.929687-10.605469 0l-36.535156 36.535156 4.527343-12.679687c1.390626-3.898437-.640624-8.191406-4.542968-9.585937-3.898438-1.390626-8.191406.640624-9.585938 4.542968l-15.175781 42.5-11.3125 11.3125c-.242187-.507812-.507813-1.015625-.808594-1.519531zm-66.976562 92.839844c1.25 2.105469 2.796875 3.714843 4.160156 5.136719.792969.824218 1.992187 2.074218 2.171875 2.570312.152344.558594-.089844 2.347656-.25 3.53125-.277344 2.042969-.589844 4.359375-.339844 6.878906.25 2.546875 1.027344 4.742188 1.710938 6.679688.421875 1.191406 1 2.824218.949218 3.425781-.054687.625-.957031 2.292969-1.554687 3.394531-1.015625 1.871094-2.164063 3.992188-2.832031 6.515625-.667969 2.527344-.710938 4.914063-.746094 7.015625-.023438 1.367188-.050781 3.074219-.328125 3.679688-.289063.632812-1.660156 1.886718-2.664063 2.796875-1.554687 1.421875-3.320312 3.027343-4.78125 5.160156-1.445312 2.109375-2.296874 4.304687-3.050781 6.238281-.515625 1.320313-1.15625 2.964844-1.644531 3.453125-1.085938 1.085938-3.175781 2.046875-5.386719 3.0625-2.140625.980469-4.5625 2.09375-6.867187 3.667969-2.3125 1.582031-4.25 3.507812-5.957032 5.203125-1.753906 1.738281-3.410156 3.386719-4.960937 4.160156-1.394531.699219-3.546875 1.03125-5.828125 1.386719-2.527344.390625-5.390625.832031-8.25 1.90625-2.894531 1.089844-5.402344 2.6875-7.609375 4.09375-1.972656 1.253906-3.832031 2.4375-5.347656 2.863281-1.585938.441407-3.761719.382813-6.058594.320313-2.566406-.070313-5.472656-.148438-8.460937.4375-3.199219.621094-6.023438 1.832031-8.515626 2.902344-2.050781.878906-3.988281 1.710937-5.351562 1.855468-1.910156.214844-4.167969-.273437-6.558594-.785156-2.371094-.507812-4.824218-1.03125-7.480468-1.042969-.066407 0-.132813 0-.195313 0-2.851563 0-5.554687.296875-7.945313.558594-.011718 0-.019531.003906-.035156.003906.003906-.015625.003906-.027343.007813-.042969.269531-2.445312.574219-5.21875.558593-8.140624-.011718-2.660157-.535156-5.113282-1.042968-7.480469-.511719-2.390625-.992188-4.648438-.785156-6.554688.148437-1.363281.976562-3.296875 1.855468-5.34375 1.070313-2.488281 2.28125-5.3125 2.902344-8.511719.582031-2.988281.503906-5.894531.433594-8.457031-.0625-2.300781-.121094-4.46875.320312-6.054687.425782-1.515625 1.609375-3.375 2.863282-5.34375 1.40625-2.210938 3.003906-4.714844 4.089843-7.609375 1.078125-2.859375 1.519531-5.726563 1.910157-8.25.355468-2.285157.6875-4.4375 1.386718-5.835938.777344-1.546875 2.421875-3.207031 4.164063-4.960937 1.695312-1.710938 3.617187-3.644532 5.199219-5.960938 1.578124-2.304687 2.691406-4.726562 3.671874-6.867187 1.015626-2.214844 1.976563-4.304688 3.0625-5.390625.488282-.488282 2.132813-1.128906 3.453126-1.644532 1.9375-.753906 4.128906-1.605468 6.242187-3.054687 2.128906-1.457031 3.738281-3.222656 5.15625-4.777344.914063-1.003906 2.164063-2.375 2.800781-2.664062.601563-.273438 2.308594-.304688 3.675782-.328125 2.101562-.035156 4.488281-.074219 7.015624-.746094 2.523438-.667969 4.644532-1.816406 6.515626-2.832031 1.105468-.59375 2.769531-1.496094 3.394531-1.550781.601562-.050782 2.234375.523437 3.425781.945312 1.9375.6875 4.132812 1.460938 6.679688 1.714844 2.519531.246094 4.832031-.0625 6.875-.339844 1.1875-.160156 2.980468-.398438 3.523437-.257812.507813.1875 1.757813 1.382812 2.585937 2.179687 1.417969 1.363281 3.03125 2.90625 5.132813 4.15625.503906.300781 1.011719.570313 1.515625.808594l-12.710938 12.714843-42.5 15.179688c-3.898437 1.390625-5.933593 5.683594-4.539062 9.585938 1.390625 3.898437 5.683594 5.929687 9.582031 4.539062l12.679688-4.527344-35.132813 35.132813c-2.929687 2.929687-2.929687 7.679687 0 10.605469 1.464844 1.464843 3.382813 2.199218 5.300782 2.199218 1.921874 0 3.839843-.734375 5.304687-2.199218l35.132813-35.132813-4.527344 12.679687c-1.390625 3.898438.640625 8.191407 4.542968 9.585938.832032.296875 1.683594.4375 2.519532.4375 3.082031 0 5.96875-1.910156 7.0625-4.980469l15.179687-42.5 12.714844-12.710937c.242187.503906.507813 1.011718.808594 1.515625zm0 0"/></svg>