<svg height="512pt" viewBox="-20 0 512 512.00078" width="512pt" xmlns="http://www.w3.org/2000/svg"><path d="m458.871094 60.164062c3.019531-.148437 5.46875 2.40625 5.195312 5.417969-1.511718 16.558594-9.507812 65.710938-51.617187 86.765625-40.910157 20.453125-14.375 40.355469-34.277344 66.890625-19.902344 26.535157-70.761719-.828125-84.03125 12.441407 0 0-7.101563-23.226563-9.257813-47.683594-2.488281-28.195313 7.046876-46.023438 31.097657-53.902344 28.578125-9.359375 42.324219-23.703125 64.679687-42.703125 26.527344-22.546875 64.183594-26.535156 78.210938-27.226563zm0 0" fill="#96cd82"/><path d="m186.859375 92.175781c-34.535156-11.3125-51.144531-28.640625-78.15625-51.605469-32.640625-27.742187-79.238281-32.230468-95.410156-32.9375-3.164063-.140624-5.722657 2.464844-5.457031 5.621094 1.597656 18.984375 10.722656 79.941406 62.457031 105.808594 49.433593 24.714844 17.367187 48.761719 41.414062 80.828125 24.050781 32.0625 85.507813-1.003906 101.539063 15.03125l2.671875 1c.457031-3.453125 8.203125-55.074219 8.515625-58.617187 3.007812-34.070313-8.515625-55.609376-37.574219-65.128907zm0 0" fill="#96cd82"/><path d="m296.078125 504.5h-80.160156c-53.125 0-96.191407-43.066406-96.191407-96.191406 0-53.128906 43.066407-96.195313 96.191407-96.195313h80.160156c53.125 0 96.191406 43.066407 96.191406 96.195313 0 53.125-43.066406 96.191406-96.191406 96.191406zm0 0" fill="#cdf5a0"/><path d="m264.011719 480.453125c-53.125 0-96.191407-43.066406-96.191407-96.195313 0-27.90625 11.957032-52.957031 30.9375-70.527343-44.925781 8.101562-79.035156 47.316406-79.035156 94.578125 0 53.125 43.066406 96.191406 96.195313 96.191406h80.160156c24.355469 0 46.53125-9.125 63.476563-24.046875zm0 0" fill="#b4e6a0"/><path d="m464.539062 52.523438c-2.175781-.039063-53.816406-.53125-88.734374 29.148437-3.058594 2.597656-5.953126 5.109375-8.75 7.535156-17.5 15.175781-30.148438 26.140625-53.410157 33.761719-26.878906 8.804688-39.066406 29.558594-36.230469 61.6875 1.714844 19.453125 6.382813 37.890625 8.5 45.535156-1.207031 2.636719-2.335937 5.207032-3.386718 7.703125-5.65625 13.472657-9.53125 25.742188-12.191406 36.265625-4.148438-8.46875-10.171876-16.953125-18.917969-23.785156-5.640625-4.402344-11.957031-7.765625-18.921875-10.101562-1.953125-5.53125-4.15625-11.28125-6.65625-17.234376-12.492188-29.738281-29.667969-58.246093-51.054688-84.726562-10.886718-13.476562-22.902344-26.433594-35.945312-38.832031.554687-4.339844 1.34375-13.621094-.183594-24.066407 12.863281 9.597657 26.726562 17.617188 45.867188 23.886719 25.207031 8.257813 35.210937 25.941407 32.441406 57.34375-.289063 3.273438-.671875 6.703125-1.136719 10.191407-.542969 4.105468 2.34375 7.878906 6.449219 8.421874 4.109375.558594 7.875-2.339843 8.421875-6.445312.492187-3.707031.898437-7.355469 1.203125-10.847656 3.355468-38.003906-11.015625-62.535156-42.707032-72.917969-28.40625-9.304687-43.789062-22.640625-65.078124-41.101563-3.371094-2.921874-6.859376-5.949218-10.558594-9.089843-41.753906-35.492188-103.582032-34.8906252-106.179688-34.85156275-4.136718.07031255-7.4374998 3.47265575-7.378906 7.60546875.0117188.871094.390625 21.625 8.648438 46.476563 11.09375 33.378906 31.25 58.164062 58.289062 71.683593 25.394531 12.699219 25.871094 23.625 26.523438 38.746094.480468 11.132813 1.082031 24.988281 12.246093 39.875 16.625 22.164063 46.585938 18.332031 70.660157 15.253906 12.878906-1.648437 27.480468-3.515625 31.574218.582031.148438.148438.308594.289063.46875.421876 1.125 2.476562 2.226563 4.957031 3.28125 7.449218 1.234375 2.921875 2.394532 5.792969 3.488282 8.617188-12.242188-1.125-25.984376.203125-41.164063 3.996094-4.019531 1.007812-6.460937 5.078124-5.457031 9.097656 1.007812 4.019531 5.085937 6.457031 9.097656 5.457031 16.671875-4.167969 31.101562-4.996094 43.199219-2.550781 7.632812 23.660156 10.25 42.1875 11.140625 51.902344h-16.082032c-57.175781 0-103.691406 46.515624-103.691406 103.691406 0 57.175781 46.515625 103.691406 103.691406 103.691406h80.160157c57.175781 0 103.695312-46.515625 103.695312-103.691406 0-26.191406-9.792969-51.195313-27.570312-70.40625-17.675781-19.105469-41.644531-30.800782-67.492188-32.933594-4.121093-.335938-7.75 2.730469-8.089843 6.859375-.339844 4.128906 2.730468 7.75 6.859374 8.089844 16.351563 1.351562 31.828126 7.195312 44.898438 16.757812h-12.226562c-4.144532 0-7.5 3.359375-7.5 7.5 0 4.144531 3.355468 7.5 7.5 7.5h28.171874c13.210938 15.902344 20.445313 35.824219 20.445313 56.632813 0 17.9375-5.355469 34.640625-14.546875 48.613281h-42.082031c-4.140625 0-7.5 3.355469-7.5 7.5 0 4.140625 3.359375 7.5 7.5 7.5h29.675781c-15.980469 15.511719-37.761719 25.078125-61.738281 25.078125h-80.160157c-19.515624 0-37.578124-6.339844-52.242187-17.0625h12.160156c4.144531 0 7.5-3.359375 7.5-7.5 0-4.144531-3.355469-7.5-7.5-7.5h-28.125c-12.785156-15.375-20.488281-35.117188-20.488281-56.628906 0-17.9375 5.359375-34.640625 14.550781-48.613282h42.078125c4.144532 0 7.5-3.355468 7.5-7.5 0-4.140624-3.355468-7.5-7.5-7.5h-29.671875c15.980469-15.511718 37.761719-25.078124 61.738281-25.078124h56.109376c4.144531 0 7.5-3.359376 7.5-7.5 0-.285157.191406-28.800782 16.828124-68.410157.886719-2.113281 1.839844-4.289062 2.847657-6.507812.082031-.074219.164062-.140625.242187-.214844 2.941406-2.9375 15.71875-1.304687 25.050782-.113281 20.257812 2.59375 45.46875 5.816406 59.675781-13.128906 9.480469-12.640626 9.984375-24.328126 10.394531-33.722657.539062-12.519531.898438-20.792969 21.234375-30.960937 54.5-27.25 56.070313-96.015625 56.113281-98.929688.0625-4.136718-3.238281-7.535156-7.371094-7.605468zm-390.894531 59.828124c-45.863281-22.929687-55.890625-76.832031-58.058593-97.082031 17.292968 1.050781 59.046874 6.183594 88.261718 31.015625 3.328125 2.832032 9.773438 8.472656 9.882813 8.582032 8.566406 8.648437 10.613281 21.8125 10.789062 31.585937-15.054687-13.089844-31.316406-25.484375-48.730469-37.09375-3.445312-2.296875-8.105468-1.367187-10.402343 2.082031-2.296875 3.445313-1.363281 8.101563 2.082031 10.398438 35.734375 23.824218 66.457031 50.988281 91.433594 80.800781-25.203125-3.9375-45.988282-2.25-54.203125-1.265625-3.957031-9.785156-12.40625-19.699219-31.054688-29.023438zm100.820313 92.414063c-21.269532 2.71875-45.371094 5.804687-56.757813-9.375-8.378906-11.171875-8.804687-21.058594-9.257812-31.523437-.113281-2.539063-.222657-5.128907-.460938-7.757813 10.214844-1.074219 36.320313-2.648437 65.242188 4.769531 9.9375 13.523438 18.757812 27.53125 26.398437 41.917969-7.4375-.292969-15.992187.796875-25.164062 1.96875zm64.191406 54.960937c1.183594.757813 2.339844 1.550782 3.449219 2.410157 15.515625 12.0625 20.292969 31.761719 21.765625 42.480469h-16.785156c-.703126-8.699219-2.722657-24.464844-8.429688-44.890626zm53.695312-76.390624c-2.230468-25.277344 5.777344-39.5 25.960938-46.113282 14.828125-4.855468 25.851562-10.957031 35.921875-18.191406-.722656 7.101562-.269531 13.265625.128906 16.675781-26.730469 25.574219-45.226562 51.265625-57.976562 73.941407-1.613281-7.714844-3.207031-16.9375-4.035157-26.3125zm79.820313 31.402343c-8.96875 11.960938-27.679687 9.566407-45.769531 7.253907-6.734375-.863282-13.078125-1.671876-18.769532-1.683594 5.527344-10.160156 12.277344-21.011719 20.519532-32.246094 22.324218-5.621094 42.652344-4.734375 51.703125-3.886719-.125 1.753907-.203125 3.488281-.277344 5.195313-.367187 8.453125-.710937 16.441406-7.40625 25.367187zm36.921875-69.097656c-15.269531 7.632813-22.472656 15.742187-25.96875 23.777344-7.027344-.777344-22.230469-1.824219-40.695312.65625 18.253906-21.3125 42.054687-43.324219 73.074218-64.007813 3.445313-2.296875 4.378906-6.953125 2.078125-10.398437-2.296875-3.445313-6.953125-4.378907-10.398437-2.082031-14.105469 9.40625-26.773438 19.085937-38.175782 28.863281.488282-7.410157 2.464844-16.316407 8.410157-22.320313.082031-.078125.152343-.164062.226562-.25 2.523438-2.1875 5.132813-4.445312 7.875-6.777344 23.003907-19.550781 55.761719-24.167968 70.742188-25.25-2.101563 17.582032-10.875 59.640626-47.167969 77.789063zm0 0"/><path d="m231.949219 400.808594c-4.144531 0-7.5 3.355468-7.5 7.5 0 4.140625 3.355469 7.5 7.5 7.5h48.097656c4.140625 0 7.5-3.359375 7.5-7.5 0-4.144532-3.359375-7.5-7.5-7.5zm0 0"/></svg>