<svg height="512pt" viewBox="-60 0 512 512" width="512pt" xmlns="http://www.w3.org/2000/svg"><path d="m104.191406 23.945312c-27.980468 3.183594-51.167968 25.136719-55.726562 52.929688-1.230469 7.511719-1.144532 14.824219.058594 21.757812 4.5625 26.273438 6.617187 53.027344 1.773437 79.25-5.398437 29.21875-15.058594 57.523438-29.625 83.558594-8.390625 14.988282-13.175781 32.261719-13.175781 50.667969 0 57.554687 46.664062 104.191406 104.21875 104.191406v-392.769531c-2.480469 0-4.988282.125-7.523438.414062zm0 0" fill="#ff8c5a"/><path d="m106.097656 23.945312c-20.898437 3.183594-38.214844 25.136719-41.617187 52.929688-.921875 7.511719-.855469 14.824219.042969 21.757812 3.40625 26.273438 4.941406 53.027344 1.324218 79.25-4.03125 29.21875-11.246094 57.523438-22.125 83.558594-6.261718 14.988282-9.835937 32.261719-9.835937 50.667969 0 57.554687 34.84375 104.191406 77.828125 104.191406v-392.769531c-1.851563 0-3.726563.125-5.617188.414062zm0 0" fill="#ffaa5f"/><path d="m119.234375 23.945312c27.980469 3.183594 51.167969 25.136719 55.726563 52.929688 1.230468 7.511719 1.144531 14.824219-.058594 21.757812-4.558594 26.273438-6.617188 53.027344-1.773438 79.25 5.398438 29.21875 15.058594 57.523438 29.625 83.558594 8.390625 14.988282 13.175782 32.261719 13.175782 50.667969 0 57.554687-46.664063 104.191406-104.214844 104.191406v-392.769531c2.476562 0 4.980468.125 7.519531.414062zm0 0" fill="#ffe17d"/><path d="m371.101562 349.636719c-14.566406-26.03125-24.230468-54.335938-29.625-83.554688-4.84375-26.222656-2.789062-52.976562 1.773438-79.25 1.203125-6.933593 1.289062-14.246093.058594-21.761719-4.558594-27.789062-27.746094-49.746093-55.730469-52.925781-2.535156-.289062-5.042969-.414062-7.519531-.414062-2.476563 0-4.984375.125-7.519532.414062-27.984374 3.179688-51.171874 25.136719-55.726562 52.925781-1.234375 7.515626-1.148438 14.828126.054688 21.761719 4.5625 26.273438 6.621093 53.027344 1.777343 79.25-5.398437 29.21875-15.0625 57.523438-29.628906 83.554688-8.386719 14.992187-13.171875 32.265625-13.171875 50.671875 0 57.554687 46.660156 104.1875 104.214844 104.191406 57.554687-.003906 104.214844-46.636719 104.214844-104.191406 0-18.40625-4.785157-35.679688-13.171876-50.671875zm0 0" fill="#ffc369"/><path d="m153.730469 261.441406c-6.722657-26.035156-11.179688-54.339844-13.671875-83.558594-2.238282-26.222656-1.285156-52.976562.820312-79.25.554688-6.929687.59375-14.246093.023438-21.757812-2.101563-27.792969-12.804688-49.746094-25.71875-52.929688-1.171875-.289062-2.328125-.414062-3.46875-.414062-1.144532 0-2.300782.125-3.472656.414062-12.914063 3.183594-23.617188 25.136719-25.71875 52.929688-.570313 7.511719-.53125 14.824219.027343 21.757812 2.101563 26.273438 3.054688 53.027344.816407 79.25-2.488282 29.21875-6.949219 57.523438-13.671876 83.558594-3.871093 14.988282-6.082031 32.261719-6.082031 50.667969 0 57.554687 21.535157 104.191406 48.101563 104.191406 26.5625 0 48.097656-46.636719 48.097656-104.191406 0-18.40625-2.210938-35.679687-6.082031-50.667969zm0 0" fill="#ffc369"/><path d="m336.175781 400.308594c0-35.417969-25.125-64.132813-56.117187-64.132813-30.992188 0-56.117188 28.714844-56.117188 64.132813 0 35.417968 25.125 64.132812 56.117188 64.132812 30.992187 0 56.117187-28.714844 56.117187-64.132812zm0 0" fill="#ffaa5f"/><path d="m304.109375 400.308594c0-17.710938-10.769531-32.066406-24.050781-32.066406s-24.050782 14.355468-24.050782 32.066406c0 17.710937 10.769532 32.066406 24.050782 32.066406s24.050781-14.355469 24.050781-32.066406zm0 0" fill="#ffc369"/><path d="m377.644531 345.976562c-13.652343-24.402343-23.339843-51.742187-28.792969-81.257812-4.050781-21.914062-3.480468-46.253906 1.789063-76.605469 1.378906-7.953125 1.402344-16.113281.070313-24.253906-5.125-31.25-30.734376-55.582031-62.28125-59.167969-.289063-.035156-.578126-.058594-.871094-.085937v-8.925781c0-4.140626-3.355469-7.5-7.5-7.5-4.140625 0-7.5 3.359374-7.5 7.5v8.925781c-.289063.027343-.578125.050781-.867188.085937-31.546875 3.585938-57.15625 27.917969-62.28125 59.167969-1.332031 8.140625-1.308594 16.300781.070313 24.253906 5.078125 29.25 5.777343 52.910157 2.199219 74.203125-.761719-1.519531-1.546876-3.035156-2.378907-4.519531-13.65625-24.40625-23.34375-51.746094-28.796875-81.261719-4.046875-21.914062-3.480468-46.253906 1.789063-76.601562 1.378906-7.953125 1.402343-16.113282.070312-24.253906-5.125-31.25-30.734375-55.582032-62.277343-59.167969-.289063-.035157-.582032-.058594-.871094-.085938v-8.925781c0-4.144531-3.359375-7.5-7.5-7.5-4.144532 0-7.5 3.355469-7.5 7.5v8.925781c-.289063.027344-.582032.050781-.871094.085938-31.542969 3.585937-57.15625 27.917969-62.277344 59.167969-1.335937 8.140624-1.3125 16.300781.070313 24.253906 5.265625 30.347656 5.835937 54.691406 1.789062 76.601562-5.453125 29.515625-15.144531 56.855469-28.796875 81.261719-9.242187 16.515625-14.128906 35.304687-14.128906 54.332031 0 61.582032 50.113281 111.6875 111.714844 111.6875h.003906c20.320312 0 39.753906-5.347656 56.914062-15.554687 4.09375 57.886719 52.503907 103.734375 111.429688 103.738281 61.597656-.003906 111.710938-50.105469 111.710938-111.691406 0-19.027344-4.886719-37.816406-14.128907-54.332032zm-362.648437-33.847656c0-16.472656 4.226562-32.726562 12.21875-47.011718 14.460937-25.835938 24.707031-54.722657 30.457031-85.855469 4.382813-23.714844 3.824219-49.738281-1.757813-81.894531-1.09375-6.300782-1.109374-12.777344-.046874-19.265626 2.792968-17.050781 13.84375-31.804687 28.667968-40.042968-4.976562 10.210937-8.367187 23.390625-9.492187 38.265625-.582031 7.703125-.570313 15.414062.03125 22.925781 2.46875 30.828125 2.730469 55.617188.820312 78.011719-2.550781 29.910156-7.082031 57.605469-13.460937 82.320312-4.132813 16.003907-6.320313 34.171875-6.320313 52.546875 0 11.320313.808594 22.480469 2.402344 33.171875.554687 3.71875 3.753906 6.394531 7.410156 6.394531.367188 0 .738281-.027343 1.113281-.085937 4.097657-.609375 6.925782-4.425781 6.3125-8.523437-1.484374-9.957032-2.238281-20.375-2.238281-30.957032 0-17.125 2.023438-34 5.84375-48.796875 6.59375-25.519531 11.261719-54.050781 13.886719-84.796875 1.980469-23.234375 1.71875-48.808594-.816406-80.484375-.539063-6.734375-.546875-13.664062-.023438-20.59375 1.992188-26.328125 11.75-44.171875 20.039063-46.214843.515625-.125 1.074219-.1875 1.632812-.191407h.039063.039062c.558594.003907 1.121094.066407 1.640625.195313 6.101563 1.503906 14.46875 12.699218 18.414063 33.726562.761718 4.074219 4.679687 6.757813 8.753906 5.988282 4.070312-.761719 6.75-4.683594 5.988281-8.753907-1.730469-9.21875-4.316406-17.34375-7.582031-24.109375 14.789062 8.25 25.804688 22.984375 28.59375 40.003906 1.0625 6.484376 1.046875 12.964844-.046875 19.265626-5.582031 32.15625-6.140625 58.179687-1.757813 81.894531 5.75 31.132812 15.996094 60.019531 30.457032 85.855469 4.222656 7.550781 7.386718 15.617187 9.4375 23.992187-5.617188 20.28125-13.367188 39.335937-23.175782 56.867187-7.59375 13.566407-12.238281 28.667969-13.65625 44.175782-7.527343 5.519531-15.675781 9.859375-24.265624 12.957031 2.863281-4.140625 5.539062-8.867187 7.980468-14.160156 9.53125-20.644531 14.78125-47.925781 14.78125-76.820313 0-18.375-2.183594-36.542968-6.320312-52.546875-6.382813-24.714843-10.910156-52.410156-13.460938-82.320312-1.910156-22.390625-1.648437-47.175781.820313-78.007813.085937-1.042968.15625-2.089844.21875-3.144531.238281-4.136719-2.921875-7.679687-7.054688-7.917969-4.132812-.257812-7.683593 2.917969-7.921875 7.054688-.054687.941406-.117187 1.875-.191406 2.804687-2.539062 31.679688-2.796875 57.253907-.816406 80.484375 2.621094 30.742188 7.292968 59.273438 13.882812 84.796875 3.824219 14.796875 5.84375 31.671875 5.84375 48.796875 0 26.769532-4.757812 51.820313-13.398437 70.53125-7.675781 16.621094-17.589844 26.15625-27.199219 26.15625-11.382812 0-22.917969-13.117187-30.855469-35.09375-1.40625-3.894531-5.703125-5.90625-9.601562-4.503906-3.894531 1.40625-5.914063 5.703125-4.503907 9.601562 3.421876 9.476563 7.511719 17.605469 12.113282 24.25-37.210938-13.472656-63.875-49.152343-63.875-90.941406zm265.0625 184.871094c-53.328125-.003906-96.714844-43.378906-96.714844-96.691406 0-16.46875 4.226562-32.722656 12.21875-47.007813 14.457031-25.835937 24.707031-54.726562 30.457031-85.855469 4.382813-23.71875 3.824219-49.742187-1.757812-81.894531-1.09375-6.300781-1.109375-12.78125-.046875-19.265625 3.976562-24.265625 24.65625-43.902344 49.171875-46.6875 2.148437-.246094 4.332031-.367187 6.671875-.367187 2.34375 0 4.523437.121093 6.675781.367187 24.511719 2.785156 45.195313 22.421875 49.171875 46.6875 1.0625 6.484375 1.046875 12.964844-.046875 19.265625-5.582031 32.152344-6.140625 58.175781-1.757813 81.894531 5.75 31.132813 15.996094 60.019532 30.457032 85.855469 7.992187 14.285157 12.214844 30.539063 12.214844 47.007813 0 53.3125-43.386719 96.6875-96.714844 96.691406zm0 0"/><path d="m293.675781 345.96875c3.289063 1.121094 6.488281 2.652344 9.503907 4.5625 1.246093.785156 2.632812 1.160156 4.003906 1.160156 2.484375 0 4.917968-1.234375 6.34375-3.492187 2.214844-3.5 1.171875-8.132813-2.332032-10.347657-4.011718-2.535156-8.28125-4.582031-12.6875-6.082031-3.917968-1.339843-8.183593.761719-9.515624 4.679688-1.335938 3.921875.761718 8.183593 4.683593 9.519531zm0 0"/><path d="m325.273438 361.5625c-3.695313 1.871094-5.171876 6.382812-3.300782 10.078125 4.382813 8.652344 6.703125 18.566406 6.703125 28.667969 0 24.980468-14.394531 47.328125-35 54.34375-3.921875 1.332031-6.019531 5.59375-4.683593 9.515625 1.0625 3.121093 3.976562 5.085937 7.101562 5.085937.800781 0 1.617188-.132812 2.414062-.402344 27.015626-9.195312 45.167969-36.742187 45.167969-68.542968 0-12.445313-2.878906-24.703125-8.324219-35.449219-1.871093-3.695313-6.386718-5.171875-10.078124-3.296875zm0 0"/><path d="m266.441406 454.648438c-3.285156-1.117188-6.484375-2.652344-9.503906-4.5625-3.503906-2.214844-8.136719-1.167969-10.347656 2.332031-2.214844 3.503906-1.167969 8.136719 2.332031 10.347656 4.015625 2.539063 8.285156 4.585937 12.6875 6.085937.800781.269532 1.617187.402344 2.417969.402344 3.121094 0 6.035156-1.96875 7.097656-5.085937 1.335938-3.921875-.761719-8.183594-4.683594-9.519531zm0 0"/><path d="m261.609375 331.769531c-27.015625 9.195313-45.164063 36.738281-45.164063 68.539063 0 12.894531 3.074219 25.535156 8.894532 36.554687 1.34375 2.546875 3.945312 4 6.636718 4 1.183594 0 2.378907-.277343 3.496094-.867187 3.664063-1.933594 5.066406-6.472656 3.128906-10.136719-4.683593-8.867187-7.160156-19.085937-7.160156-29.550781 0-24.980469 14.394532-47.324219 35-54.339844 3.921875-1.335938 6.019532-5.597656 4.683594-9.519531-1.332031-3.917969-5.59375-6.019531-9.515625-4.679688zm0 0"/></svg>