<svg height="512pt" viewBox="0 -28 512.00138 512" width="512pt" xmlns="http://www.w3.org/2000/svg"><path d="m354.667969 416.261719c43.175781 30.753906 95.8125 37.886719 141.851562 23.847656 3.621094-1.105469 6.109375-4.601563 5.972657-8.382813-1.78125-48.101562-25.71875-95.515624-68.898438-126.273437-45.089844-32.117187-100.492188-38.46875-147.929688-21.855469-.199218 50.261719 23.910157 100.546875 69.003907 132.664063zm0 0" fill="#afdc82"/><path d="m400.089844 419.601562c-45.085938-32.117187-69.199219-82.402343-69-132.664062 13.386718-4.6875 27.417968-7.480469 41.667968-8.445312-29.335937-6.386719-59.554687-4.539063-87.09375 5.105468-.199218 50.257813 23.910157 100.542969 69.003907 132.664063 32.371093 23.058593 70.066406 32.835937 106.304687 30.367187-21.207031-4.605468-41.953125-13.546875-60.882812-27.027344zm0 0" fill="#96cd82"/><path d="m153.8125 129.777344c-37.484375-37.484375-88.214844-53.238282-135.941406-47.019532-3.753906.488282-6.789063 3.519532-7.277344 7.273438-6.214844 47.730469 9.535156 98.457031 47.019531 135.941406 39.148438 39.148438 92.730469 54.59375 142.265625 46.066406 8.523438-49.53125-6.921875-103.117187-46.066406-142.261718zm0 0" fill="#afdc82"/><path d="m199.351562 215.496094c-.375 4.917968-.914062 9.816406-1.75 14.675781-49.53125 8.523437-103.117187-6.921875-142.261718-46.066406-24.546875-24.546875-39.707032-54.777344-45.550782-86.117188-3.574218 45.351563 12.414063 92.574219 47.824219 127.984375 39.148438 39.144532 92.730469 54.589844 142.261719 46.066406 3.203125-18.601562 3.023438-37.777343-.523438-56.542968zm0 0" fill="#96cd82"/><path d="m376.238281 127.746094c0 66.410156-53.835937 120.246094-120.246093 120.246094-66.410157 0-120.246094-53.835938-120.246094-120.246094s53.835937-120.246094 120.246094-120.246094c66.410156 0 120.246093 53.835938 120.246093 120.246094zm0 0" fill="#ff8087"/><path d="m287.054688 216.929688c-66.410157 0-120.246094-53.839844-120.246094-120.246094 0-25.269532 7.828125-48.6875 21.144531-68.042969-31.515625 21.679687-52.207031 57.960937-52.207031 99.105469 0 66.410156 53.835937 120.246094 120.246094 120.246094 41.140624 0 77.421874-20.691407 99.101562-52.207032-19.351562 13.316406-42.773438 21.144532-68.039062 21.144532zm0 0" fill="#e6646e"/><path d="m153.4375 65.199219c.574219 3.070312 2.039062 6.003906 4.414062 8.378906 6.261719 6.261719 16.414063 6.261719 22.671876 0 6.261718 6.261719 16.414062 6.261719 22.675781 0s6.261719-16.414063 0-22.675781c6.261719-6.261719 6.261719-16.414063 0-22.675782-2.214844-2.210937-4.921875-3.597656-7.757813-4.25-17.195312 10.0625-31.621094 24.242188-42.003906 41.222657zm0 0" fill="#e6646e"/><path d="m168.234375 78.179688c2.777344-17.921876 9.546875-34.511719 19.316406-48.902344-13.679687 9.53125-25.390625 21.652344-34.109375 35.921875.570313 3.070312 2.035156 6.003906 4.410156 8.378906 2.886719 2.886719 6.605469 4.378906 10.382813 4.601563zm0 0" fill="#dc4655"/><path d="m456.402344 256.007812c0 66.410157-53.835938 120.246094-120.246094 120.246094s-120.246094-53.835937-120.246094-120.246094c0-66.410156 53.835938-120.246093 120.246094-120.246093s120.246094 53.835937 120.246094 120.246093zm0 0" fill="#e6646e"/><path d="m367.21875 345.191406c-66.410156 0-120.246094-53.839844-120.246094-120.246094 0-25.269531 7.828125-48.6875 21.144532-68.042968-31.515626 21.679687-52.207032 57.960937-52.207032 99.105468 0 66.410157 53.835938 120.246094 120.246094 120.246094 41.144531 0 77.425781-20.691406 99.105469-52.207031-19.355469 13.316406-42.773438 21.144531-68.042969 21.144531zm0 0" fill="#dc4655"/><path d="m280.042969 320.140625c0 66.410156-53.835938 120.242187-120.246094 120.242187s-120.246094-53.832031-120.246094-120.242187 53.835938-120.246094 120.246094-120.246094 120.246094 53.835938 120.246094 120.246094zm0 0" fill="#e6646e"/><path d="m163.117188 300.785156c6.261718-6.261718 6.261718-16.414062 0-22.671875-6.261719-6.261719-16.414063-6.261719-22.675782 0-6.257812-6.261719-16.410156-6.261719-22.671875 0-6.261719 6.257813-6.261719 16.410157 0 22.671875-6.261719 6.261719-6.261719 16.414063 0 22.675782 6.261719 6.257812 16.414063 6.257812 22.671875 0 6.261719 6.257812 16.414063 6.257812 22.675782 0 6.261718-6.261719 6.261718-16.414063 0-22.675782zm0 0" fill="#dc4655"/><path d="m190.859375 409.320312c-66.410156 0-120.246094-53.835937-120.246094-120.246093 0-25.265625 7.828125-48.683594 21.140625-68.039063-31.511718 21.679688-52.203125 57.960938-52.203125 99.105469 0 66.40625 53.835938 120.242187 120.246094 120.242187 41.140625 0 77.421875-20.6875 99.101563-52.203124-19.351563 13.3125-42.773438 21.140624-68.039063 21.140624zm0 0" fill="#dc4655"/><path d="m147.769531 300.097656c0 4.429688-3.585937 8.015625-8.015625 8.015625-4.425781 0-8.015625-3.585937-8.015625-8.015625 0-4.425781 3.589844-8.015625 8.015625-8.015625 4.429688 0 8.015625 3.589844 8.015625 8.015625zm0 0" fill="#be4150"/><path d="m400.285156 288.074219c8.855469 0 16.035156-7.179688 16.035156-16.035157 0-8.851562-7.179687-16.03125-16.035156-16.03125 0-8.855468-7.175781-16.03125-16.03125-16.03125-8.855468 0-16.03125 7.175782-16.03125 16.03125-8.855468 0-16.035156 7.179688-16.035156 16.03125 0 8.855469 7.179688 16.035157 16.035156 16.035157 0 8.851562 7.175782 16.03125 16.03125 16.03125 8.855469 0 16.03125-7.175781 16.03125-16.03125zm0 0" fill="#dc4655"/><path d="m392.269531 271.066406c0 4.429688-3.589843 8.015625-8.015625 8.015625-4.425781 0-8.015625-3.585937-8.015625-8.015625 0-4.425781 3.589844-8.015625 8.015625-8.015625 4.425782 0 8.015625 3.589844 8.015625 8.015625zm0 0" fill="#be4150"/><path d="m452.6875 308.335938c7.203125-15.980469 11.214844-33.691407 11.214844-52.328126 0-52.945312-32.75-99.714843-80.523438-118.726562.234375-3.164062.359375-6.363281.359375-9.535156 0-70.441406-57.308593-127.746094-127.746093-127.746094-22.808594 0-44.238282 6.015625-62.792969 16.53125-1.472657.351562-2.800781 1.140625-3.8125 2.25-29.558594 18.132812-51.207031 47.945312-58.476563 82.96875-36.578125-22.683594-79.925781-31.503906-123.132812-24.84375-3.304688.511719-5.871094 3.144531-6.296875 6.457031-3.507813 27.300781-.75 55.441407 7.972656 81.382813 9.167969 27.261718 24.320313 51.328125 45.03125 71.527344 1.660156 1.613281 3.355469 3.203124 5.078125 4.757812-17.21875 21.773438-27.511719 49.261719-27.511719 79.109375 0 70.4375 57.308594 127.746094 127.746094 127.746094 52.929687 0 98.441406-32.363281 117.800781-78.335938 9.484375 4.898438 19.542969 8.570313 29.929688 10.949219 10.988281 15.351562 24.316406 28.863281 39.648437 40.171875 23.285157 17.171875 49.484375 28.226563 77.875 32.863281 9.59375 1.566406 19.339844 2.347656 29.101563 2.347656 17.71875 0 35.488281-2.566406 52.496094-7.648437 3.199218-.957031 5.382812-3.917969 5.351562-7.257813-.492188-50.84375-22.046875-98.890624-59.3125-132.640624zm-256.515625-276.113282c.621094.363282 1.203125.792969 1.722656 1.3125 1.613281 1.609375 2.5 3.753906 2.5 6.03125 0 2.28125-.886719 4.421875-2.5 6.035156-1.40625 1.40625-2.195312 3.3125-2.195312 5.300782 0 1.992187.789062 3.898437 2.195312 5.304687 1.613281 1.613281 2.5 3.753907 2.5 6.035157 0 2.277343-.886719 4.421874-2.5 6.03125-1.613281 1.613281-3.753906 2.5-6.03125 2.5-2.28125 0-4.421875-.886719-6.035156-2.5-2.929687-2.929688-7.679687-2.929688-10.605469 0-3.328125 3.328124-8.742187 3.328124-12.066406 0-.628906-.628907-1.136719-1.355469-1.539062-2.132813 8.933593-13.640625 20.738281-25.234375 34.554687-33.917969zm-172.503906 127.738282c-7.398438-22.003907-10.117188-45.738282-7.941407-69.003907 39.988282-4.800781 79.785157 4.761719 112.878907 27.175781-.234375 3.171876-.359375 6.378907-.359375 9.613282 0 23.28125 6.199218 45.652344 17.988281 65.367187-4.292969.457031-8.523437 1.125-12.679687 1.996094l-64.648438-64.652344c-2.929688-2.925781-7.679688-2.925781-10.609375 0-2.929687 2.929688-2.929687 7.679688 0 10.609375l58.707031 58.707032c-18.023437 6.425781-34.195312 16.785156-47.464844 30.050781-1.550781-1.40625-3.085937-2.832031-4.582031-4.292969-18.992187-18.523438-32.882812-40.582031-41.289062-65.570312zm136.128906 272.921874c-62.167969 0-112.746094-50.574218-112.746094-112.742187s50.578125-112.746094 112.746094-112.746094 112.742187 50.578125 112.742187 112.746094-50.574218 112.742187-112.742187 112.742187zm71.566406-218.511718c15.425781-38.753906 51.765625-66.332032 93.308594-70.53125 4.121094-.417969 7.125-4.09375 6.707031-8.214844-.414062-4.121094-4.09375-7.136719-8.214844-6.710938-23.949218 2.421876-46.648437 11.554688-65.648437 26.414063-17.292969 13.527344-30.757813 31.179687-39.1875 51.285156-16.464844-8.523437-35.003906-13.566406-54.648437-14.15625-13.363282-19.015625-20.433594-41.34375-20.433594-64.710937 0-17.03125 3.804687-33.1875 10.59375-47.675782 7.53125 6.488282 18.230468 7.429688 26.675781 2.800782 3.4375 1.894531 7.3125 2.902344 11.347656 2.902344 6.285157 0 12.195313-2.449219 16.640625-6.894532 4.441406-4.445312 6.890625-10.351562 6.890625-16.640625 0-4.027343-1.003906-7.902343-2.898437-11.335937 1.894531-3.433594 2.898437-7.308594 2.898437-11.335938 0-5.460937-1.847656-10.636718-5.246093-14.816406 14.015624-6.261719 29.527343-9.75 45.84375-9.75 62.167968 0 112.746093 50.578125 112.746093 112.746094 0 1.558594-.035156 3.125-.097656 4.6875-2.515625-.65625-5.058594-1.25-7.636719-1.757813-4.070312-.800781-8.007812 1.847657-8.808594 5.910157-.800781 4.0625 1.84375 8.007812 5.90625 8.808593 52.613282 10.375 90.800782 56.894531 90.800782 110.613281 0 62.167969-50.578125 112.746094-112.746094 112.746094-18.75 0-37.152344-4.664062-53.523438-13.5 3.195313-11.164062 4.910157-22.941406 4.910157-35.117187 0-43.9375-22.300781-82.765625-56.179688-105.765625zm196.105469 224.359375c-26.019531-4.25-50.035156-14.386719-71.390625-30.132813-9.992187-7.367187-19.03125-15.777344-27.054687-25.058594 2.371093.132813 4.75.214844 7.132812.214844 20.875 0 40.597656-5.03125 58.015625-13.949218l44.589844 33.753906c1.351562 1.027344 2.941406 1.523437 4.519531 1.523437 2.269531 0 4.511719-1.027343 5.984375-2.972656 2.5-3.304687 1.851563-8.007813-1.453125-10.507813l-39.730469-30.078124c15.089844-10.316407 27.867188-23.78125 37.371094-39.441407 31.058594 29.488281 49.507813 70.101563 51.394531 113.324219-22.605468 5.910156-46.46875 7.066406-69.378906 3.324219zm0 0"/><path d="m168.421875 272.808594c-4.445313-4.445313-10.355469-6.890625-16.640625-6.894532-.003906 0-.003906 0-.003906 0-4.03125 0-7.910156 1.007813-11.34375 2.90625-8.9375-4.902343-20.40625-3.574218-27.96875 3.988282-7.566406 7.5625-8.894532 19.039062-3.984375 27.976562-4.90625 8.9375-3.578125 20.414063 3.984375 27.976563 7.5625 7.566406 19.042968 8.890625 27.976562 3.984375 3.519532 1.933594 7.429688 2.898437 11.335938 2.898437 6.027344 0 12.054687-2.296875 16.644531-6.882812 7.5625-7.5625 8.890625-19.039063 3.980469-27.976563 4.910156-8.9375 3.582031-20.414062-3.980469-27.976562zm-10.609375 33.28125c3.328125 3.324218 3.328125 8.738281 0 12.066406-3.324219 3.328125-8.738281 3.328125-12.066406 0-1.464844-1.464844-3.382813-2.199219-5.304688-2.199219-1.917968 0-3.835937.734375-5.300781 2.199219-3.328125 3.328125-8.742187 3.328125-12.066406 0-3.328125-3.328125-3.328125-8.742188 0-12.066406 2.925781-2.929688 2.925781-7.679688 0-10.609375-3.328125-3.324219-3.328125-8.738281 0-12.0625 3.324219-3.328125 8.738281-3.328125 12.066406 0 2.929687 2.929687 7.679687 2.929687 10.605469-.003907 1.609375-1.609374 3.753906-2.496093 6.03125-2.496093 2.28125 0 4.421875.886719 6.035156 2.5 3.328125 3.324219 3.328125 8.738281 0 12.0625-2.929688 2.929687-2.929688 7.679687 0 10.609375zm0 0"/><path d="m361.652344 294.640625c2.851562 9.789063 11.902344 16.964844 22.601562 16.964844 10.699219 0 19.75-7.175781 22.601563-16.964844 9.789062-2.847656 16.964843-11.902344 16.964843-22.601563 0-10.695312-7.175781-19.75-16.964843-22.597656-2.851563-9.792968-11.902344-16.96875-22.601563-16.96875-10.699218 0-19.75 7.175782-22.601562 16.96875-9.789063 2.847656-16.964844 11.902344-16.964844 22.597656 0 10.699219 7.175781 19.753907 16.964844 22.601563zm6.570312-31.132813c4.140625 0 7.5-3.355468 7.5-7.5 0-4.703124 3.824219-8.53125 8.53125-8.53125 4.703125 0 8.53125 3.828126 8.53125 8.53125 0 4.144532 3.359375 7.5 7.5 7.5 4.707032 0 8.53125 3.828126 8.53125 8.53125 0 4.707032-3.824218 8.535157-8.53125 8.535157-4.140625 0-7.5 3.355469-7.5 7.5 0 4.703125-3.828125 8.53125-8.53125 8.53125-4.707031 0-8.53125-3.828125-8.53125-8.53125 0-4.144531-3.359375-7.5-7.5-7.5-4.707031 0-8.535156-3.828125-8.535156-8.535157 0-4.703124 3.828125-8.53125 8.535156-8.53125zm0 0"/></svg>