<svg height="511pt" viewBox="0 0 511.99979 511" width="511pt" xmlns="http://www.w3.org/2000/svg"><path d="m264.484375 186.371094s-27.761719-90.152344-147.800781-132.820313c-15.933594-5.664062-17.585938-27.621093-2.863282-35.933593 22.328126-12.609376 49.664063-13.019532 72.070313-.546876 43.578125 24.261719 103.945313 75.976563 78.59375 169.300782zm0 0" fill="#96cd82"/><path d="m277.867188 179.085938s83.445312-43.996094 198.414062 10.882812c15.265625 7.285156 31.980469-7.046875 27.46875-23.34375-6.835938-24.714844-25.847656-44.363281-50.496094-51.421875-47.949218-13.730469-127.195312-19.964844-175.386718 63.882813zm0 0" fill="#96cd82"/><g fill="#f5b97d"><path d="m110.359375 144.234375c-8.109375-8.109375-19.757813-9.605469-26.019531-3.347656-6.261719 6.261719-4.761719 17.910156 3.347656 26.019531l7.34375 7.34375 22.671875-22.675781zm0 0"/><path d="m365.722656 245.75c-3.9375-7.933594-15.3125-10.304688-25.414062-5.292969l-9.144532 4.535157 14.25 28.726562 9.144532-4.535156c10.097656-5.011719 15.097656-15.503906 11.164062-23.433594zm0 0"/><path d="m88.875 468.738281-6.722656 6.722657c-7.421875 7.421874-8.363282 18.515624-2.105469 24.777343 6.261719 6.261719 17.355469 5.316407 24.777344-2.105469l6.722656-6.722656zm0 0"/></g><path d="m112.683594 271.257812c34.4375 34.433594 85.191406 39.511719 113.363281 11.335938 28.175781-28.171875 23.101563-78.929688-11.335937-113.363281-34.433594-34.433594-85.1875-39.511719-113.363282-11.335938-28.171875 28.175781-23.097656 78.929688 11.335938 113.363281zm0 0" fill="#ffc369"/><path d="m132.4375 251.738281c-30.460938-30.464843-37.898438-73.667969-19.714844-102.742187-4.085937 2.46875-7.90625 5.425781-11.375 8.894531-28.175781 28.175781-23.101562 78.929687 11.335938 113.367187 34.433594 34.4375 85.191406 39.511719 113.363281 11.335938 3.253906-3.25 6.011719-6.832031 8.382813-10.625-29.066407 17.574219-71.796876 9.960938-101.992188-20.230469zm0 0" fill="#ffaa5f"/><path d="m210.417969 471.894531c34.4375-34.4375 39.511719-85.191406 11.335937-113.367187-28.171875-28.171875-78.925781-23.097656-113.363281 11.339844-34.433594 34.433593-39.507813 85.1875-11.335937 113.363281 28.175781 28.171875 78.929687 23.097656 113.363281-11.335938zm0 0" fill="#ffc369"/><path d="m121.117188 462.707031c-26.703126-26.703125-23.492188-73.664062 6.226562-107.816406-6.65625 4.15625-13.046875 9.121094-18.9375 15.011719-34.4375 34.4375-39.511719 85.191406-11.339844 113.367187 28.175782 28.171875 78.929688 23.097657 113.367188-11.339843 1.800781-1.796876 3.472656-3.664063 5.109375-5.546876-32.230469 20.117188-71.074219 19.675782-94.425781-3.675781zm0 0" fill="#ffaa5f"/><path d="m207.902344 328.578125c0-39.84375-39.476563-72.144531-88.175782-72.144531-48.699218 0-88.175781 32.300781-88.175781 72.144531s39.476563 72.144531 88.175781 72.144531c48.699219 0 88.175782-32.300781 88.175782-72.144531zm0 0" fill="#ffaa5f"/><path d="m27.097656 312.546875c-10.824218 0-19.597656 7.179687-19.597656 16.03125 0 8.855469 8.773438 16.03125 19.597656 16.03125h9.796875v-32.0625zm0 0" fill="#f5b97d"/><path d="m297.242188 360.277344c43.628906-21.640625 64.644531-68.125 46.9375-103.820313-17.707032-35.695312-67.429688-47.089843-111.058594-25.449219-43.628906 21.640626-64.644532 68.125-46.9375 103.820313 17.707031 35.695313 67.429687 47.089844 111.058594 25.449219zm0 0" fill="#ffaa5f"/><path d="m328.636719 422.917969-7.082031-7.085938-22.675782 22.675781 7.085938 7.082032c7.820312 7.824218 19.238281 9.089844 25.5 2.828125 6.261718-6.261719 4.996094-17.679688-2.828125-25.5zm0 0" fill="#f5b97d"/><path d="m135.757812 376.675781c-48.699218 0-88.175781-32.300781-88.175781-72.144531 0-7.636719 1.476563-14.988281 4.160157-21.894531-12.609376 12.476562-20.191407 28.484375-20.191407 45.941406 0 39.84375 39.476563 72.144531 88.175781 72.144531 39.363282 0 72.679688-21.113281 84.015626-50.25-16.175782 16.003906-40.621094 26.203125-67.984376 26.203125zm0 0" fill="#ff8c5a"/><path d="m201.101562 420.078125c34.433594 34.433594 85.1875 39.507813 113.363282 11.335937 28.171875-28.175781 23.097656-78.929687-11.335938-113.363281-34.4375-34.4375-85.191406-39.511719-113.363281-11.335937-28.175781 28.171875-23.101563 78.925781 11.335937 113.363281zm0 0" fill="#ffaa5f"/><path d="m220.617188 403.238281c-31.90625-31.902343-38.550782-77.785156-16.957032-106.769531-5.027344 2.726562-9.734375 6.078125-13.902344 10.242188-28.171874 28.175781-23.097656 78.929687 11.335938 113.363281 34.4375 34.4375 85.191406 39.511719 113.367188 11.339843 2.070312-2.070312 3.902343-4.296874 5.617187-6.59375-28.972656 15.699219-70.117187 7.761719-99.460937-21.582031zm0 0" fill="#ff8c5a"/><path d="m510.980469 164.625c-7.542969-27.261719-28.871094-48.960938-55.664063-56.632812-45.164062-12.933594-127.238281-21.769532-179.167968 59.472656 13.148437-86.621094-47.328126-135.078125-86.609376-156.949219-24.351562-13.554687-54.777343-13.335937-79.40625.570313-9.472656 5.347656-14.773437 15.429687-13.835937 26.304687.929687 10.738281 7.777344 19.636719 17.878906 23.222656 59.96875 21.320313 95.675781 54.945313 115.066407 79.398438 19 23.964843 26.523437 44.070312 27.855468 47.917969-.789062 13.5-3.074218 23.617187-4.160156 27.808593-1.128906.28125-2.257812.585938-3.382812.90625-4.265626-19.257812-14.578126-37.753906-29.539063-52.71875-30.351563-30.347656-72.8125-39.367187-104.316406-24.957031l-3.382813-3.382812c-4.445312-4.445313-10.351562-6.894532-16.640625-6.894532-6.285156 0-12.195312 2.449219-16.640625 6.894532-9.175781 9.175781-9.175781 24.101562 0 33.277343l3.402344 3.402344c-10.84375 23.761719-8.574219 54.027344 6.871094 80.796875-29.042969 8.125-51.90625 27.558594-60.996094 51.984375h-4.78125c-12.972656 0-23.53125 10.558594-23.53125 23.535156 0 12.972657 10.558594 23.53125 23.53125 23.53125h4.761719c7.855469 21.246094 26.125 38.9375 50.515625 48.496094-9.859375 23.753906-9.898438 48.359375-.707032 68.296875l-3.355468 3.355469c-9.175782 9.175781-9.175782 24.105469 0 33.28125 4.589844 4.585937 10.613281 6.878906 16.640625 6.878906 6.023437 0 12.050781-2.292969 16.640625-6.878906l3.386718-3.390625c9.824219 4.492187 20.703126 6.71875 31.960938 6.71875 24.839844 0 51.464844-10.785156 72.351562-31.671875 7.894532-7.894531 14.460938-16.703125 19.59375-26.222657 10.863282 4.03125 22.011719 6.074219 32.824219 6.074219 11.25 0 22.132813-2.230469 31.957031-6.722656l3.390626 3.390625c4.445312 4.445312 10.355468 6.894531 16.640624 6.894531 6.285157 0 12.195313-2.449219 16.640626-6.894531 9.175781-9.175781 9.175781-24.101562 0-33.277344l-3.386719-3.386718c4.710937-10.257813 7.066406-21.855469 6.765625-34.113282-.316406-12.75-3.476563-25.730468-9.128906-37.980468 19.492187-19.9375 28.898437-45.320313 26.46875-68.863282l4.328124-2.144531c11.621094-5.765625 16.390626-19.914063 10.625-31.539063-2.792968-5.628906-7.613281-9.835937-13.570312-11.84375-5.953125-2.007812-12.335938-1.574218-17.96875 1.21875l-4.230469 2.097657c-9.664062-9.136719-22.140625-15.667969-36.625-18.988281-9.070312-2.078126-18.511719-2.769532-28.023437-2.15625 2.285156-7.105469 6.726562-18.128907 14.734375-29.4375 19.785156-8.109376 92.226562-31.46875 186.292969 13.429687 3.761718 1.792969 7.738281 2.675781 11.683593 2.675781 6.210938 0 12.335938-2.183594 17.382813-6.414062 8.363281-7.011719 11.761718-17.886719 8.859375-28.371094zm-391.785157-118.144531c-4.558593-1.621094-7.53125-5.5-7.953124-10.378907-.433594-5.027343 1.90625-9.496093 6.265624-11.957031 10.21875-5.769531 21.648438-8.65625 33.019532-8.65625 11.011718 0 21.96875 2.707031 31.714844 8.136719 34.480468 19.195312 52.992187 41.148438 62.445312 56.1875 7.332031 11.660156 12.433594 24.070312 15.359375 37.164062-13.285156-30.609374-40.332031-63.636718-94.246094-85.835937-3.828125-1.578125-8.210937.25-9.789062 4.078125-1.578125 3.832031.25 8.214844 4.078125 9.792969 29.726562 12.238281 53.042968 28.894531 69.296875 49.507812 12.703125 16.101563 21.183593 34.722657 25.246093 55.339844-3.65625-5.765625-8-12.007813-13.140624-18.535156-20.632813-26.207031-58.597657-62.199219-122.296876-84.84375zm-29.550781 111.777343c-3.328125-3.324218-3.328125-8.738281 0-12.066406 1.613281-1.609375 3.753907-2.5 6.03125-2.5 2.28125 0 4.421875.890625 6.035157 2.5l.757812.757813c-2.238281 1.730469-4.386719 3.601562-6.425781 5.640625-2.035157 2.035156-3.898438 4.195312-5.628907 6.4375zm17.003907 4.9375c25.207031-25.203124 71.304687-20.117187 102.757812 11.335938 13.4375 13.4375 22.523438 30.0625 25.894531 47.199219-1.847656.800781-3.6875 1.632812-5.507812 2.535156-20.875 10.355469-37.21875 26.261719-47.039063 44.367187-17.339844-12.597656-39.820312-19.699218-63.027344-19.699218-5.027343 0-9.964843.328125-14.785156.953125-19.546875-30.035157-19.035156-65.949219 1.707032-86.691407zm-83.117188 173.917969c-4.703125 0-8.53125-3.828125-8.53125-8.53125 0-4.707031 3.828125-8.535156 8.53125-8.535156h1.066406c-.359375 2.804687-.546875 5.652344-.546875 8.535156 0 2.875.203125 5.71875.5625 8.53125zm73.886719 157.820313c-1.609375 1.613281-3.753907 2.5-6.03125 2.5-2.28125 0-4.421875-.886719-6.035157-2.496094-3.324218-3.328125-3.324218-8.742188 0-12.070312l.753907-.75c1.734375 2.242187 3.613281 4.386718 5.644531 6.421874 2.039062 2.039063 4.195312 3.902344 6.433594 5.628907zm107.695312-28.339844c-31.453125 31.457031-77.550781 36.542969-102.757812 11.335938-17.460938-17.460938-20.894531-45.691407-9.164063-72.8125 1.03125.246093 2.0625.492187 3.105469.707031.519531.109375 1.035156.160156 1.542969.160156 3.476562 0 6.59375-2.429687 7.335937-5.964844.84375-4.054687-1.753906-8.03125-5.808593-8.878906-35.515626-7.421875-60.320313-33.148437-60.320313-62.558594 0-35.648437 36.191406-64.648437 80.679687-64.648437 21.296876 0 41.773438 6.828125 56.859376 18.839844-3.726563 11.09375-5.046876 22.636718-3.574219 33.972656-10.050781 18.433594-11.464844 41.269531-4.71875 63.402344-11.597657 7.042968-25.230469 11.417968-39.695313 12.6875-4.128906.363281-7.179687 4.003906-6.816406 8.128906.34375 3.902344 3.617188 6.84375 7.460938 6.84375.222656 0 .445312-.007813.667968-.027344 15.8125-1.390625 30.824219-6.019531 43.867188-13.453125 5.246094 11.058594 12.601562 21.640625 22.015625 31.054687 7.921875 7.917969 16.667969 14.382813 25.832031 19.363282-4.371094 7.898437-9.894531 15.234375-16.511719 21.847656zm121.046875-35.542969c3.328125 3.324219 3.328125 8.738281 0 12.0625-1.609375 1.613281-3.753906 2.5-6.03125 2.5s-4.421875-.886719-6.03125-2.5l-.769531-.765625c2.242187-1.730468 4.398437-3.59375 6.4375-5.632812 2.023437-2.023438 3.890625-4.183594 5.628906-6.433594zm32.84375-181.96875c2.089844 4.214844.359375 9.34375-3.855468 11.433594l-.96875.484375c-.921876-2.6875-2.007813-5.324219-3.285157-7.898438-1.273437-2.574218-2.710937-5.035156-4.28125-7.398437l.953125-.472656c4.214844-2.09375 9.34375-.363281 11.4375 3.851562zm-62.308594-19.5625c18.742188 4.292969 33.21875 15.035157 40.765626 30.246094 10.828124 21.835937 5.089843 49.691406-14.082032 71.382813-1.558594-2.390626-3.210937-4.734376-4.964844-7.023438-2.523437-3.285156-7.230468-3.910156-10.515624-1.386719-3.289063 2.523438-3.90625 7.230469-1.386719 10.515625 11.597656 15.117188 18.214843 32.894532 18.640625 50.058594.414062 16.867188-5.265625 32.066406-15.996094 42.796875-12.003906 12.007813-29.160156 17.558594-48.285156 15.652344-19.691406-1.96875-39.039063-11.554688-54.472656-26.988281-15.433594-15.433594-25.019532-34.78125-26.988282-54.472657-1.914062-19.132812 3.648438-36.28125 15.652344-48.285156 21.792969-21.792969 60.011719-21.304687 90.875 1.164063 3.347656 2.4375 8.039062 1.699218 10.476562-1.648438 2.441407-3.347656 1.699219-8.039062-1.648437-10.476562-35.238281-25.65625-79.160156-26.632813-106.59375-3.0625 3.828125-23.96875 21.808594-47.15625 48.289063-60.289063 19.550781-9.695313 40.945312-12.605469 60.234374-8.183594zm195.785157-48.015625c-3.75 3.144532-8.597657 3.777344-12.96875 1.695313-46.269531-22.085938-87.527344-28.269531-119.214844-28.269531-10.089844 0-19.210937.628906-27.210937 1.566406-8.980469 1.054687-17.066407 2.542968-24.15625 4.183594 2.21875-1.625 4.558593-3.191407 7.027343-4.679688 33.171875-20.023438 79.039063-20.886719 136.339844-2.574219 3.945313 1.257813 8.164063-.917969 9.425781-4.863281 1.261719-3.945312-.914062-8.164062-4.859375-9.425781-49.601562-15.855469-91.683593-18.050781-125.535156-6.644531 11.015625-6.785157 23.011719-11.691407 35.980469-14.625 31.390625-7.105469 62.9375-1.449219 83.878906 4.546874 21.804688 6.242188 39.179688 23.949219 45.335938 46.210938 1.335937 4.824219-.175782 9.636719-4.042969 12.878906zm0 0"/></svg>