<svg height="512pt" viewBox="-52 0 512 512" width="512pt" xmlns="http://www.w3.org/2000/svg"><path d="m127.824219 120.078125c66.347656 0 120.128906 92.394531 120.128906 218.386719 0 69.582031-53.78125 125.992187-120.128906 125.992187-66.347657 0-120.132813-56.410156-120.132813-125.992187 0-125.992188 53.785156-218.386719 120.132813-218.386719zm0 0" fill="#ffaa5f"/><path d="m181.183594 439.945312c-66.171875 4.800782-124.179688-51.5-129.5625-125.742187-5.0625-69.859375 5.089844-131.039063 25.269531-174.417969-40.878906 33.585938-69.199219 107.273438-69.199219 198.679688 0 69.582031 53.785156 125.992187 120.132813 125.992187 29.023437 0 55.644531-10.796875 76.410156-28.769531-7.398437 2.203125-15.09375 3.683594-23.050781 4.257812zm0 0" fill="#ff8c5a"/><path d="m400.121094 384.367188c0 66.347656-53.785156 120.132812-120.132813 120.132812-66.34375 0-120.128906-53.785156-120.128906-120.132812 0-66.34375 53.785156-120.128907 120.128906-120.128907 66.347657 0 120.132813 53.785157 120.132813 120.128907zm0 0" fill="#ffd164"/><path d="m373.734375 384.367188c0 51.773437-41.972656 93.746093-93.746094 93.746093-51.769531 0-93.742187-41.972656-93.742187-93.746093 0-51.769532 41.972656-93.742188 93.742187-93.742188 51.773438 0 93.746094 41.972656 93.746094 93.742188zm0 0" fill="#ffe17d"/><path d="m174.050781 21.730469c-25.21875 14.15625-42.527343 36.25-49.789062 59.878906 23.957031 6.105469 51.828125 2.832031 77.046875-11.328125 21.449218-12.042969 37.179687-29.824219 45.867187-49.410156 2.4375-5.488282-1.101562-11.792969-7.058593-12.574219-21.246094-2.777344-44.617188 1.390625-66.066407 13.433594zm0 0" fill="#96cd82"/><path d="m240.117188 8.296875c-21.246094-2.777344-44.617188 1.390625-66.066407 13.433594-25.21875 14.160156-42.527343 36.25-49.789062 59.878906l122.539062-68.769531c-1.324219-2.371094-3.695312-4.148438-6.683593-4.542969zm0 0" fill="#7dbe81"/><path d="m331.710938 369.25-21.089844 6.851562c-15.121094 4.910157-30.632813-6.359374-30.632813-22.257812v-22.890625c0-10.839844 10.472657-18.734375 20.851563-15.601563 16.425781 4.953126 30.382812 15.609376 39.550781 29.671876 5.808594 8.90625 1.433594 20.941406-8.679687 24.226562zm0 0" fill="#ffaa5f"/><path d="m261.042969 412.113281-11.824219 16.269531c-6.261719 8.609376-19.113281 9.074219-25.734375.738282-9.761719-12.285156-15.574219-27.820313-15.574219-44.753906 0-.070313 0-.144532 0-.214844.03125-10.667969 10.871094-17.984375 21.015625-14.6875l20.417969 6.628906c15.125 4.914062 21.050781 23.15625 11.699219 36.019531zm0 0" fill="#ff8c5a"/><g fill="#ffaa5f"><path d="m228.265625 369.25 21.089844 6.851562c15.121093 4.910157 30.632812-6.359374 30.632812-22.257812v-22.890625c0-10.839844-10.46875-18.734375-20.847656-15.601563-16.429687 4.953126-30.382813 15.609376-39.554687 29.671876-5.808594 8.90625-1.433594 20.941406 8.679687 24.226562zm0 0"/><path d="m298.933594 412.113281 11.828125 16.269531c6.257812 8.609376 19.109375 9.074219 25.734375.738282 9.761718-12.285156 15.570312-27.820313 15.570312-44.753906 0-.070313 0-.144532 0-.214844-.03125-10.667969-10.871094-17.984375-21.011718-14.6875l-20.421876 6.628906c-15.125 4.914062-21.046874 23.15625-11.699218 36.019531zm0 0"/><path d="m261.058594 412.09375-11.5 15.820312c-6.324219 8.703126-2.6875 21.339844 7.503906 24.78125 7.199219 2.429688 14.90625 3.753907 22.925781 3.753907 8.023438 0 15.730469-1.324219 22.929688-3.753907 10.191406-3.441406 13.828125-16.078124 7.503906-24.78125l-11.5-15.820312c-9.347656-12.859375-28.515625-12.859375-37.863281 0zm0 0"/><path d="m249.34375 376.09375-15.5-5.035156c-1.214844 4.230468-1.90625 8.6875-1.90625 13.308594 0 16.332031 8.167969 30.738281 20.617188 39.421874l8.488281-11.675781c9.351562-12.863281 3.425781-31.105469-11.699219-36.019531zm0 0"/></g><path d="m279.988281 336.316406v-5.363281c0-10.839844-10.46875-18.734375-20.847656-15.601563-16.429687 4.949219-30.382813 15.609376-39.554687 29.671876-5.804688 8.90625-1.429688 20.941406 8.679687 24.222656l5.582031 1.8125c5.773438-20.058594 24.226563-34.742188 46.140625-34.742188zm0 0" fill="#ff8c5a"/><path d="m340.390625 345.023438c-9.167969-14.0625-23.125-24.722657-39.550781-29.671876-10.378906-3.132812-20.851563 4.761719-20.851563 15.601563v5.363281c21.917969 0 40.371094 14.683594 46.144531 34.746094l5.582032-1.8125c10.109375-3.285156 14.484375-15.320312 8.675781-24.226562zm0 0" fill="#ff8c5a"/><path d="m307.421875 423.789062c-7.78125 5.425782-17.226563 8.632813-27.433594 8.632813-10.203125 0-19.648437-3.207031-27.429687-8.632813l-3 4.125c-6.324219 8.699219-2.6875 21.339844 7.503906 24.78125 7.199219 2.429688 14.90625 3.75 22.925781 3.75 8.023438 0 15.730469-1.320312 22.929688-3.75 10.191406-3.441406 13.828125-16.078124 7.5-24.78125zm0 0" fill="#ff8c5a"/><path d="m352.066406 384.152344c-.03125-10.664063-10.871094-17.984375-21.011718-14.6875l-4.921876 1.597656c1.21875 4.230469 1.910157 8.683594 1.910157 13.304688 0 16.332031-8.167969 30.742187-20.621094 39.421874l3.339844 4.597657c6.257812 8.609375 19.113281 9.070312 25.734375.738281 9.761718-12.285156 15.574218-27.824219 15.574218-44.753906-.003906-.074219-.003906-.148438-.003906-.21875zm0 0" fill="#ff8c5a"/><path d="m280.0625 256.503906c-10.859375 0-21.5 1.34375-31.820312 3.992188-8.269532-42.253906-23.230469-78.335938-43.4375-104.617188-19.757813-25.699218-43.300782-40.492187-68.53125-43.210937-.46875-7.929688-1.84375-15.304688-3.75-22.007813 4.285156.535156 8.625.800782 12.992187.800782 19.269531 0 39.027344-5.152344 56.722656-15.089844 25.59375-14.367188 44.886719-37.617188 52.929688-63.789063.601562-1.960937.375-4.082031-.628907-5.875-1.007812-1.789062-2.699218-3.085937-4.691406-3.59375-26.527344-6.757812-56.421875-2.394531-82.015625 11.972657-20.578125 11.554687-37.074219 28.847656-46.933593 48.78125-5.304688-8.902344-10.027344-14.113282-10.476563-14.597657-2.808594-3.039062-7.535156-3.226562-10.582031-.425781-3.042969 2.796875-3.242188 7.539062-.449219 10.589844.207031.226562 19.554687 21.734375 21.84375 53.039062-32.765625 2.695313-62.769531 25.738282-85.058594 65.574219-23.328125 41.6875-36.175781 98.597656-36.175781 160.253906 0 73.675781 57.308594 133.617188 127.75 133.617188 17.527344 0 34.441406-3.636719 50.351562-10.792969 23.34375 30.882812 60.359376 50.875 101.964844 50.875 70.4375 0 127.746094-57.308594 127.746094-127.75 0-70.4375-57.308594-127.746094-127.75-127.746094zm-104.886719-228.335937c19.65625-11.035157 42.117188-15.324219 62.816407-12.171875-8.09375 19.316406-23.441407 36.261718-43.097657 47.296875-19.660156 11.035156-42.117187 15.316406-62.820312 12.167969 8.09375-19.3125 23.445312-36.257813 43.101562-47.292969zm104.886719 468.832031c-62.167969 0-112.746094-50.578125-112.746094-112.75 0-34.644531 15.59375-66.871094 42.78125-88.417969 3.246094-2.574219 3.792969-7.289062 1.21875-10.535156-2.574218-3.25-7.289062-3.796875-10.535156-1.222656-30.800781 24.410156-48.464844 60.921875-48.464844 100.175781 0 23.390625 6.320313 45.324219 17.339844 64.203125-13.292969 5.617187-27.359375 8.460937-41.90625 8.460937-62.171875 0-112.75-53.207031-112.75-118.613281 0-118.371093 49.527344-211.097656 112.75-211.097656 23.609375 0 46.140625 13.078125 65.164062 37.820313 19.074219 24.804687 33.195313 59.351562 40.949219 100.085937-2.097656.816406-4.179687 1.6875-6.242187 2.617187-3.773438 1.703126-5.457032 6.144532-3.753906 9.921876 1.703124 3.777343 6.144531 5.457031 9.921874 3.757812 14.574219-6.570312 30.144532-9.902344 46.273438-9.902344 62.171875 0 112.75 50.578125 112.75 112.746094 0 62.171875-50.578125 112.75-112.75 112.75zm0 0"/><path d="m350.1875 365.578125c-.671875-.488281-1.371094-.929687-2.085938-1.339844.4375-.878906.828126-1.792969 1.164063-2.734375 2.46875-6.996094 1.574219-14.550781-2.457031-20.734375-10.265625-15.734375-25.789063-27.378906-43.710938-32.785156-7.210937-2.175781-14.832031-.832031-20.90625 3.679687-.75.554688-1.457031 1.152344-2.128906 1.777344-.667969-.625-1.378906-1.222656-2.128906-1.777344-6.074219-4.511718-13.695313-5.855468-20.90625-3.679687-17.921875 5.40625-33.445313 17.046875-43.710938 32.785156-4.03125 6.183594-4.925781 13.742188-2.453125 20.734375.332031.945313.722657 1.855469 1.160157 2.734375-.714844.410157-1.414063.851563-2.085938 1.339844-6.03125 4.371094-9.503906 11.089844-9.523438 18.457031v.214844c0 18.1875 5.953126 35.292969 17.214844 49.464844 4.476563 5.632812 11.144532 8.832031 18.363282 8.832031.175781 0 .351562 0 .527343-.003906.992188-.023438 1.972657-.105469 2.941407-.246094.167968.839844.378906 1.671875.640624 2.496094 2.273438 7.136719 7.597657 12.589843 14.609376 14.957031 8.160156 2.753906 16.6875 4.148438 25.347656 4.148438 8.664062 0 17.191406-1.394532 25.351562-4.148438 7.011719-2.367188 12.335938-7.820312 14.609375-14.957031.261719-.824219.46875-1.65625.640625-2.496094.964844.140625 1.945313.222656 2.941406.246094.175782.003906.351563.003906.527344.003906 7.21875 0 13.886719-3.199219 18.363282-8.832031 11.261718-14.171875 17.214843-31.277344 17.214843-49.464844v-.234375c-.015625-7.347656-3.488281-14.066406-9.519531-18.4375zm-61.625 23.117187c-.746094 2.296876-1.214844 4.628907-1.417969 6.960938-2.289062-.53125-4.65625-.808594-7.082031-.808594-2.421875 0-4.792969.277344-7.078125.808594-.207031-2.332031-.671875-4.664062-1.421875-6.960938-.746094-2.300781-1.738281-4.464843-2.945312-6.476562 2.160156-.914062 4.238281-2.082031 6.199218-3.503906 1.960938-1.425782 3.710938-3.039063 5.246094-4.808594 1.539062 1.769531 3.289062 3.382812 5.246094 4.808594 1.960937 1.421875 4.042968 2.589844 6.203125 3.503906-1.207031 2.011719-2.203125 4.175781-2.949219 6.476562zm2.574219-64.992187c1.53125-1.136719 3.324219-1.726563 5.148437-1.726563.828125 0 1.664063.121094 2.484375.367188 14.539063 4.386719 27.140625 13.839844 35.472657 26.621094 1.460937 2.238281 1.78125 4.988281.875 7.542968-.925782 2.625-2.964844 4.617188-5.597657 5.476563l-21.109375 6.855469c-4.90625 1.589844-10.109375.769531-14.28125-2.261719s-6.566406-7.726563-6.566406-12.882813v-22.910156c0-2.8125 1.304688-5.394531 3.574219-7.082031zm-65.25 25.261719c8.332031-12.78125 20.929687-22.234375 35.472656-26.617188 2.621094-.792968 5.402344-.296875 7.628906 1.355469 2.273438 1.6875 3.574219 4.269531 3.574219 7.082031v22.910156c0 5.15625-2.390625 9.851563-6.5625 12.882813s-9.375 3.855469-14.28125 2.261719l-21.113281-6.855469c-2.628907-.855469-4.667969-2.851563-5.597657-5.472656-.902343-2.558594-.582031-5.308594.878907-7.546875zm10.3125 78.582031c-2.71875.042969-5.179688-1.097656-6.824219-3.164063-9.132812-11.492187-13.957031-25.371093-13.957031-40.132812v-.191406c.007812-3.421875 2.085937-5.433594 3.324219-6.332032 1.527343-1.109374 3.359374-1.6875 5.203124-1.6875.90625 0 1.8125.140626 2.691407.425782l20.4375 6.640625c4.90625 1.59375 8.632812 5.320312 10.226562 10.226562 1.59375 4.902344.765625 10.109375-2.265625 14.28125l-3.351562 4.609375-8.144532 11.207032c-.003906.003906-.003906.007812-.007812.011718l-.335938.457032c-1.640624 2.257812-4.191406 3.585937-6.996093 3.648437zm69.53125 12.691406c-.476563 1.496094-1.773438 4.167969-5.117188 5.300781-6.609375 2.226563-13.523437 3.359376-20.550781 3.359376-7.023438 0-13.9375-1.132813-20.546875-3.359376-3.34375-1.132812-4.640625-3.804687-5.117187-5.300781-.878907-2.757812-.414063-5.667969 1.273437-7.988281l11.511719-15.839844c3.03125-4.167968 7.726562-6.5625 12.878906-6.5625 5.15625 0 9.851562 2.394532 12.882812 6.5625l.011719.015625c0 .003907 0 .003907.003907.007813l11.496093 15.816406c1.6875 2.320312 2.152344 5.234375 1.273438 7.988281zm25.023437-15.855469c-1.644531 2.066407-4.105468 3.230469-6.824218 3.164063-2.808594-.0625-5.355469-1.390625-6.996094-3.648437l-4.347656-5.976563-7.492188-10.3125c-3.035156-4.167969-3.859375-9.375-2.265625-14.28125 1.59375-4.902344 5.320313-8.632813 10.226563-10.226563l20.4375-6.636718c2.660156-.863282 5.609374-.394532 7.894531 1.261718 1.238281.894532 3.316406 2.910157 3.324219 6.359376v.164062c0 14.761719-4.824219 28.640625-13.957032 40.132812zm0 0"/></svg>