<svg height="512pt" viewBox="0 0 512 511" width="512pt" xmlns="http://www.w3.org/2000/svg"><path d="m194.144531 22.230469c-25.214843 14.15625-42.523437 36.246093-49.785156 59.875 23.957031 6.105469 51.828125 2.832031 77.042969-11.328125 21.449218-12.042969 37.175781-29.824219 45.867187-49.410156 2.433594-5.488282-1.105469-11.789063-7.058593-12.570313-21.246094-2.777344-44.617188 1.390625-66.066407 13.433594zm0 0" fill="#96d7a5"/><path d="m260.210938 8.796875c-21.246094-2.777344-44.617188 1.390625-66.066407 13.433594-25.214843 14.15625-42.523437 36.246093-49.785156 59.875l122.535156-68.765625c-1.324219-2.371094-3.699219-4.152344-6.683593-4.542969zm0 0" fill="#78c3a5"/><path d="m151.890625 464.929688c10.273437 0 19.398437-2.894532 25.253906-17.941407 2.539063-6.523437 8.066407-11.429687 14.734375-13.5625 60.15625-19.257812 104.164063-80.859375 104.164063-153.898437 0-88.457032-64.539063-160.167969-144.152344-160.167969-79.609375 0-144.148437 71.710937-144.148437 160.167969 0 73.039062 44.007812 134.640625 104.164062 153.898437 6.667969 2.132813 12.195312 7.039063 14.734375 13.5625 5.851563 15.046875 14.976563 17.941407 25.25 17.941407zm0 0" fill="#afdc82"/><path d="m219.621094 402.582031c-62.550782 8.796875-128.953125-27.554687-160.695313-93.335937-25.761719-53.390625-22.03125-112.519532 4.734375-156.1875-33.96875 29.304687-55.917968 74.988281-55.917968 126.46875 0 73.039062 44.007812 134.640625 104.164062 153.898437 6.667969 2.132813 12.195312 7.039063 14.734375 13.5625 5.851563 15.046875 14.976563 17.941407 25.25 17.941407s19.398437-2.894532 25.253906-17.941407c2.539063-6.523437 8.066407-11.429687 14.734375-13.5625 16.867188-5.402343 32.398438-14.230469 46.113282-25.609375-5.054688-4.296875-11.765626-6.164062-18.371094-5.234375zm0 0" fill="#96cd82"/><path d="m504.257812 352.8125c0 84.035156-60.652343 152.160156-160.164062 152.160156-99.515625 0-160.167969-68.125-160.167969-152.160156s60.652344-152.15625 160.164063-152.15625c99.515625 0 160.167968 68.121094 160.167968 152.15625zm0 0" fill="#e1f587"/><path d="m360.109375 352.8125c0 8.847656-7.171875 16.019531-16.019531 16.019531-8.84375 0-16.015625-7.171875-16.015625-16.019531 0-8.84375 7.171875-16.015625 16.015625-16.015625 8.847656 0 16.019531 7.171875 16.019531 16.015625zm0 0" fill="#fff"/><path d="m466.988281 239.65625c-30.6875-30.613281-73.15625-46.796875-122.8125-46.796875-20.703125 0-40.148437 2.824219-58.023437 8.324219-12.308594-25.84375-30.503906-47.730469-52.855469-63.488282-22.300781-15.71875-47.847656-24.621093-74.28125-26-.542969-7.375-1.875-14.25-3.664063-20.539062 4.285157.53125 8.625.796875 12.988282.796875 19.273437 0 39.023437-5.152344 56.71875-15.085937 25.59375-14.367188 44.886718-37.617188 52.929687-63.785157.601563-1.960937.375-4.085937-.628906-5.875-1.007813-1.789062-2.699219-3.089843-4.6875-3.59375-26.527344-6.757812-56.421875-2.394531-82.015625 11.972657-20.578125 11.550781-37.070312 28.84375-46.929688 48.777343-5.300781-8.902343-10.027343-14.109375-10.476562-14.597656-2.808594-3.035156-7.535156-3.226563-10.578125-.425781-3.046875 2.800781-3.242187 7.539062-.453125 10.589844.207031.226562 19.027344 21.160156 21.734375 51.773437-80.066406 4.523437-143.953125 77.972656-143.953125 167.605469 0 37 10.675781 72.085937 30.871094 101.460937 19.652344 28.578125 47.570312 49.792969 78.605468 59.726563 4.636719 1.488281 8.394532 4.910156 10.046876 9.15625 7.933593 20.382812 22.214843 22.738281 32.265624 22.738281 10.054688 0 24.335938-2.355469 32.269532-22.738281 1.652344-4.246094 5.40625-7.667969 10.042968-9.152344 1.929688-.621094 3.863282-1.289062 5.78125-1.996094 6.066407 9.84375 13.25 18.957032 21.480469 27.167969 30.691407 30.617187 73.160157 46.800781 122.816407 46.800781 49.652343 0 92.121093-16.183594 122.8125-46.800781 29.023437-28.953125 45.007812-69.085937 45.007812-113.007813 0-43.917968-15.984375-84.050781-45.011719-113.007812zm-268.988281-210.988281c19.65625-11.035157 42.117188-15.3125 62.8125-12.171875-8.089844 19.3125-23.441406 36.257812-43.09375 47.292968-19.65625 11.035157-42.117188 15.316407-62.816406 12.167969 8.09375-19.3125 23.441406-36.257812 43.097656-47.289062zm298.828125 316.496093h-130.351563c-.34375-1.019531-.753906-2.007812-1.230468-2.960937l56.378906-56.378906c2.929688-2.929688 2.929688-7.679688 0-10.605469-2.929688-2.929688-7.675781-2.929688-10.605469 0l-56.378906 56.378906c-.953125-.476562-1.941406-.886718-2.964844-1.230468v-122.367188c36.828125 1.328125 68.917969 12.492188 93.941407 32.617188l-10.550782 10.550781c-2.929687 2.929687-2.929687 7.675781 0 10.605469 1.464844 1.464843 3.386719 2.195312 5.304688 2.195312 1.917968 0 3.839844-.730469 5.304687-2.195312l11.105469-11.105469c24.292969 24.441406 38.363281 57.746093 40.046875 94.496093zm-305.300781 0c1.683594-36.75 15.75-70.054687 40.046875-94.492187l91.53125 91.53125c-.472657.953125-.882813 1.941406-1.226563 2.960937zm145.152344-137.164062v122.363281c-1.023438.347657-2.011719.757813-2.964844 1.230469l-90.976563-90.976562c25.023438-20.125 57.113281-31.289063 93.941407-32.617188zm-1.035157 144.664062c0-4.703124 3.828125-8.53125 8.535157-8.53125 4.703124 0 8.53125 3.828126 8.53125 8.53125 0 4.707032-3.828126 8.53125-8.53125 8.53125-4.707032 0-8.535157-3.824218-8.535157-8.53125zm16.035157 22.300782c1.019531-.34375 2.007812-.753906 2.960937-1.230469l90.976563 90.980469c-25.023438 20.125-57.113282 31.289062-93.9375 32.617187zm-162.15625 51.246094c-9.03125 2.894531-16.121094 9.453124-19.445313 18.003906-4.3125 11.074218-9.753906 13.175781-18.289063 13.175781-8.53125 0-13.976562-2.101563-18.285156-13.175781-3.328125-8.546875-10.414062-15.109375-19.449218-18.003906-27.894532-8.929688-53.042969-28.085938-70.820313-53.941407-18.472656-26.863281-28.234375-59.007812-28.234375-92.960937 0-84.261719 61.355469-152.816406 136.773438-152.824219h.015624.015626c25.875.003906 51.066406 8.121094 72.851562 23.472656 19.847656 13.992188 36.105469 33.375 47.292969 56.289063-19.144531 7.828125-36.164063 19.027344-50.585938 33.410156-29.023437 28.957031-45.007812 69.089844-45.007812 113.007812 0 26.007813 5.605469 50.6875 16.207031 72.507813-1.011719.351563-2.023438.714844-3.039062 1.039063zm2.003906-66.046876h130.351562c.34375 1.019532.753906 2.011719 1.230469 2.964844l-56.378906 56.378906c-2.929688 2.929688-2.929688 7.675782 0 10.605469 1.464843 1.464844 3.382812 2.195313 5.300781 2.195313 1.921875 0 3.839844-.730469 5.304688-2.195313l56.378906-56.378906c.953125.476563 1.941406.886719 2.964844 1.230469v122.363281c-36.828126-1.328125-68.917969-12.488281-93.941407-32.617187l10.550781-10.546876c2.929688-2.929687 2.929688-7.679687 0-10.605468-2.929687-2.929688-7.679687-2.929688-10.605468-.003906l-11.105469 11.105468c-24.300781-24.4375-38.367187-57.742187-40.050781-94.496094zm265.253906 94.496094-91.535156-91.53125c.476562-.953125.886718-1.945312 1.230468-2.964844h130.351563c-1.683594 36.753907-15.753906 70.058594-40.046875 94.496094zm0 0"/></svg>