<svg height="512pt" viewBox="-139 0 511 512" width="512pt" xmlns="http://www.w3.org/2000/svg"><path d="m39.835938 445.425781c33.261718 33.261719 58.332031 38.027344 70.851562 25.507813 12.523438-12.523438 7.753906-37.59375-25.507812-70.855469-33.257813-33.261719-58.328126-38.027344-70.851563-25.507813-12.523437 12.523438-7.753906 37.59375 25.507813 70.855469zm0 0" fill="#dc806e"/><path d="m50.273438 434.988281c-28.484376-28.484375-36.027344-50.929687-29.753907-64.664062-2.304687 1.054687-4.394531 2.449219-6.191406 4.246093-12.523437 12.523438-7.753906 37.59375 25.507813 70.855469 33.261718 33.261719 58.328124 38.027344 70.851562 25.507813 1.800781-1.800782 3.195312-3.886719 4.246094-6.191406-13.730469 6.269531-36.179688-1.273438-64.660156-29.753907zm0 0" fill="#c36960"/><path d="m194.234375 445.425781c-33.261719 33.261719-58.332031 38.027344-70.855469 25.507813-12.519531-12.523438-7.753906-37.59375 25.507813-70.855469s58.332031-38.027344 70.855469-25.507813c12.519531 12.523438 7.753906 37.59375-25.507813 70.855469zm0 0" fill="#dc806e"/><path d="m139.414062 454.898438c-11.460937-11.460938-8.367187-33.453126 17.726563-62.597657-2.695313 2.417969-5.433594 4.957031-8.253906 7.777344-33.261719 33.261719-38.027344 58.332031-25.507813 70.855469 12.523438 12.519531 37.59375 7.753906 70.855469-25.507813 2.820313-2.820312 5.359375-5.558593 7.777344-8.257812-29.144531 26.097656-51.136719 29.191406-62.597657 17.730469zm0 0" fill="#c36960"/><path d="m149.097656 75.636719c0 47.039062-14.355468 68.136719-32.0625 68.136719-17.710937 0-32.066406-21.097657-32.066406-68.136719 0-47.039063 14.355469-68.136719 32.066406-68.136719 17.707032 0 32.0625 21.097656 32.0625 68.136719zm0 0" fill="#dc806e"/><path d="m194.234375 325.183594c-33.261719 33.261718-58.332031 38.027344-70.855469 25.507812-12.519531-12.523437-7.753906-37.59375 25.507813-70.855468 33.261719-33.261719 58.332031-38.027344 70.855469-25.507813 12.519531 12.523437 7.753906 37.59375-25.507813 70.855469zm0 0" fill="#dc806e"/><path d="m139.414062 334.65625c-11.460937-11.460938-8.367187-33.453125 17.726563-62.597656-2.695313 2.417968-5.433594 4.957031-8.253906 7.777344-33.261719 33.261718-38.027344 58.332031-25.507813 70.851562 12.523438 12.523438 37.59375 7.753906 70.855469-25.503906 2.820313-2.820313 5.359375-5.558594 7.777344-8.257813-29.144531 26.097657-51.136719 29.191407-62.597657 17.730469zm0 0" fill="#c36960"/><path d="m194.234375 204.941406c-33.261719 33.261719-58.332031 38.027344-70.855469 25.507813-12.519531-12.523438-7.753906-37.59375 25.507813-70.855469 33.261719-33.257812 58.332031-38.027344 70.855469-25.503906 12.519531 12.519531 7.753906 37.589844-25.507813 70.851562zm0 0" fill="#dc806e"/><path d="m139.414062 214.414062c-11.460937-11.460937-8.367187-33.453124 17.726563-62.597656-2.695313 2.417969-5.433594 4.957032-8.253906 7.777344-33.261719 33.261719-38.027344 58.332031-25.507813 70.855469 12.523438 12.519531 37.59375 7.753906 70.855469-25.507813 2.820313-2.820312 5.359375-5.558594 7.777344-8.257812-29.144531 26.097656-51.136719 29.195312-62.597657 17.730468zm0 0" fill="#c36960"/><path d="m39.835938 325.183594c33.261718 33.261718 58.332031 38.027344 70.851562 25.507812 12.523438-12.523437 7.753906-37.59375-25.507812-70.855468-33.257813-33.261719-58.328126-38.027344-70.851563-25.507813-12.523437 12.523437-7.753906 37.59375 25.507813 70.855469zm0 0" fill="#dc806e"/><path d="m50.273438 314.746094c-28.484376-28.484375-36.027344-50.929688-29.753907-64.664063-2.304687 1.054688-4.394531 2.449219-6.191406 4.246094-12.523437 12.523437-7.753906 37.59375 25.507813 70.855469 33.261718 33.261718 58.328124 38.027344 70.851562 25.507812 1.800781-1.800781 3.195312-3.886718 4.246094-6.191406-13.730469 6.269531-36.179688-1.273438-64.660156-29.753906zm0 0" fill="#c36960"/><path d="m39.835938 204.941406c33.261718 33.261719 58.332031 38.027344 70.851562 25.507813 12.523438-12.523438 7.753906-37.59375-25.507812-70.855469-33.257813-33.257812-58.328126-38.027344-70.851563-25.503906-12.523437 12.519531-7.753906 37.589844 25.507813 70.851562zm0 0" fill="#dc806e"/><path d="m50.273438 194.503906c-28.484376-28.484375-36.027344-50.929687-29.753907-64.664062-2.304687 1.054687-4.394531 2.449218-6.191406 4.25-12.523437 12.519531-7.753906 37.589844 25.507813 70.851562 33.261718 33.261719 58.328124 38.03125 70.851562 25.507813 1.800781-1.800781 3.195312-3.886719 4.246094-6.191407-13.730469 6.269532-36.179688-1.273437-64.660156-29.753906zm0 0" fill="#c36960"/><path d="m133.066406 127.742188c-17.707031 0-32.066406-21.097657-32.066406-68.136719 0-22.96875 3.441406-39.714844 9.003906-50.875-14.324218 5.050781-25.035156 26.289062-25.035156 66.90625 0 47.039062 14.355469 68.136719 32.066406 68.136719 9.058594 0 17.226563-5.566407 23.058594-17.261719-2.261719.796875-4.609375 1.230469-7.027344 1.230469zm0 0" fill="#c36960"/><path d="m139.585938 364.515625c4.316406 0 8.914062-.746094 13.703124-2.257813 14.035157-4.429687 29.597657-15.121093 46.25-31.769531 16.648438-16.652343 27.339844-32.214843 31.769532-46.253906 4.476562-14.1875 2.253906-26.691406-6.265625-35.207031-8.515625-8.519532-21.019531-10.742188-35.207031-6.265625-14.039063 4.429687-29.601563 15.121093-46.25 31.769531-7.613282 7.609375-13.960938 14.988281-19.050782 22.101562v-56.023437c4.414063 2.429687 9.476563 3.683594 15.023438 3.683594 1.203125 0 2.433594-.058594 3.679687-.175781 4.125-.390626 7.148438-4.050782 6.757813-8.175782-.386719-4.121094-4.050782-7.144531-8.171875-6.757812-5.519531.523437-9.9375-.835938-13.140625-4.039063-2.679688-2.679687-4.054688-6.167969-4.148438-10.417969v-1.011718c.0625-2.617188.585938-5.5 1.582032-8.65625 3.644531-11.554688 13.355468-25.441406 28.074218-40.160156 18.953125-18.953126 36.628906-29.402344 48.921875-29.632813l-31.261719 31.261719c-2.929687 2.929687-2.929687 7.679687 0 10.609375 1.464844 1.460937 3.386719 2.195312 5.304688 2.195312s3.839844-.734375 5.300781-2.195312l34.417969-34.417969c6.082031 11.707031-4.355469 33.328125-27.945312 56.917969-7.066407 7.066406-13.957032 13.003906-20.488282 17.648437-3.375 2.398438-4.164062 7.082032-1.765625 10.457032 2.402344 3.378906 7.085938 4.167968 10.460938 1.765624 7.207031-5.125 14.746093-11.605468 22.398437-19.261718 16.652344-16.652344 27.34375-32.214844 31.773438-46.25 4.476562-14.1875 2.25-26.691406-6.265625-35.210938-8.515625-8.515625-21.019531-10.738281-35.210938-6.265625-14.035156 4.429688-29.597656 15.121094-46.25 31.769531-7.609375 7.613282-13.957031 14.992188-19.046875 22.105469v-26.128906c8.84375-2.402344 16.429688-9.089844 21.824219-19.457031 6.792969-13.0625 10.238281-31.621094 10.238281-55.171875 0-23.546875-3.441406-42.109375-10.238281-55.167969-6.863281-13.199219-17.28125-20.46875-29.324219-20.46875-12.046875 0-22.460937 7.269531-29.328125 20.46875-6.792969 13.058594-10.238281 31.621094-10.238281 55.167969 0 23.550781 3.445312 42.109375 10.238281 55.171875 5.394531 10.367187 12.984375 17.054687 21.828125 19.457031v26.128906c-5.089844-7.113281-11.441406-14.492187-19.050781-22.105469-16.652344-16.648437-32.210937-27.339843-46.25-31.769531-14.1875-4.476562-26.691406-2.253906-35.210937 6.265625-8.515626 8.519532-10.742188 21.019532-6.261719 35.210938 4.429687 14.035156 15.117187 29.597656 31.769531 46.25 16.652344 16.648437 32.210938 27.339844 46.25 31.769531 4.789062 1.511719 9.386719 2.257813 13.703125 2.257813 5.542969 0 10.617187-1.238282 15.050781-3.671876v56.035157c-5.089844-7.113281-11.441406-14.492188-19.050781-22.105469-16.652344-16.648438-32.210937-27.339844-46.25-31.769531-14.1875-4.472657-26.691406-2.25-35.210937 6.265625-8.515626 8.519531-10.742188 21.023437-6.261719 35.210937 4.429687 14.035157 15.117187 29.597657 31.769531 46.25 5.363281 5.363281 10.699219 10.175781 15.855469 14.3125 3.234375 2.589844 7.953125 2.070313 10.542969-1.164062 2.589843-3.230469 2.070312-7.949219-1.160157-10.542969-4.734375-3.789062-9.65625-8.238281-14.632812-13.210938-14.71875-14.722656-24.425781-28.609374-28.070313-40.160156-2.789062-8.835937-1.929687-15.597656 2.5625-20.089844 4.496094-4.488281 11.25-5.351562 20.089844-2.566406 11.550781 3.648438 25.4375 13.355469 40.160156 28.074219 18.953125 18.953125 29.402344 36.632813 29.628906 48.921875l-11.21875-11.21875c-2.929687-2.929688-7.679687-2.929688-10.605468 0-2.929688 2.929688-2.929688 7.675781 0 10.605469l14.375 14.378906c-4.269532 2.246094-9.882813 2.296875-16.761719.125-3.953125-1.246094-8.164063.945313-9.410156 4.898437-1.25 3.949219.945312 8.160157 4.894531 9.40625 4.789062 1.511719 9.382812 2.261719 13.703125 2.261719 5.542969 0 10.617187-1.242187 15.050781-3.675781v56.035156c-5.09375-7.113281-11.441406-14.492187-19.050781-22.101562-16.652344-16.652344-32.214844-27.34375-46.25-31.773438-14.1875-4.472656-26.691406-2.25-35.210937 6.265625-8.519532 8.519531-10.742188 21.019531-6.265626 35.210938 4.433594 14.035156 15.121094 29.597656 31.773438 46.25 16.648438 16.652343 32.210938 27.339843 46.25 31.769531 4.789062 1.511719 9.386719 2.261719 13.703125 2.261719 5.542969 0 10.617187-1.242188 15.050781-3.675781v23.414062c0 4.144531 3.355469 7.5 7.5 7.5 4.140625 0 7.5-3.355469 7.5-7.5v-23.414062c4.429688 2.433593 9.503906 3.671874 15.046875 3.671874 4.320313 0 8.914063-.746093 13.703125-2.257812 14.039063-4.433594 29.601563-15.121094 46.25-31.773438 16.652344-16.648437 27.34375-32.210937 31.773438-46.25 4.476562-14.1875 2.25-26.691406-6.265625-35.207031-8.515625-8.519531-21.019531-10.742187-35.210938-6.265625-14.035156 4.429688-29.597656 15.117188-46.25 31.769532-7.609375 7.609374-13.957031 14.988281-19.046875 22.101562v-56.03125c4.429688 2.429688 9.507813 3.671875 15.050782 3.671875zm-34.199219 101.113281c-10.554688 10.550782-34.203125.539063-60.25-25.507812-14.71875-14.71875-24.425781-28.605469-28.070313-40.15625-2.789062-8.839844-1.929687-15.597656 2.5625-20.089844 2.777344-2.773438 6.417969-4.164062 10.875-4.164062 2.761719 0 5.835938.53125 9.214844 1.597656 11.550781 3.644531 25.4375 13.355468 40.15625 28.074218 26.050781 26.046876 36.0625 49.695313 25.511719 60.246094zm48.804687-60.246094c14.71875-14.722656 28.605469-24.429687 40.15625-28.074218 3.207032-1.011719 6.132813-1.527344 8.785156-1.578125l-27.273437 27.273437c-2.929687 2.929688-2.929687 7.675782 0 10.605469 1.464844 1.464844 3.386719 2.195313 5.304687 2.195313 1.917969 0 3.839844-.730469 5.300782-2.195313l30.414062-30.410156c2.242188 4.269531 2.296875 9.882812.125 16.765625-3.644531 11.550781-13.355468 25.4375-28.074218 40.15625-26.046876 26.046875-49.695313 36.054687-60.246094 25.507812-10.550782-10.550781-.539063-34.199218 25.507812-60.246094zm0-120.242187c14.71875-14.71875 28.605469-24.425781 40.15625-28.074219 3.378906-1.066406 6.453125-1.597656 9.214844-1.597656 4.457031 0 8.101562 1.390625 10.875 4.164062 4.492188 4.492188 5.355469 11.25 2.566406 20.089844-3.648437 11.550782-13.355468 25.4375-28.074218 40.15625-23.589844 23.59375-45.214844 34.027344-56.921876 27.945313l38.425782-38.425781c2.929687-2.929688 2.929687-7.675782 0-10.605469-2.929688-2.929688-7.675782-2.929688-10.605469 0l-35.269531 35.269531c.226562-12.292969 10.679687-29.96875 29.632812-48.921875zm-61.722656-209.503906c0-21.570313 3.3125-38.660157 9.050781-49.128907v29.089844c0 4.140625 3.355469 7.5 7.5 7.5 4.140625 0 7.5-3.359375 7.5-7.5v-40.570312c.171875-.007813.339844-.027344.515625-.027344 14.921875 0 24.5625 23.800781 24.5625 60.636719 0 36.835937-9.640625 60.636719-24.5625 60.636719s-24.566406-23.800782-24.566406-60.636719zm-7.171875 152.074219c-11.550781-3.644532-25.4375-13.351563-40.160156-28.074219-26.042969-26.042969-36.058594-49.691407-25.503907-60.246094 2.789063-2.789063 6.488282-4.140625 10.910157-4.140625 12.304687 0 30.171875 10.484375 49.335937 29.648438 14.71875 14.71875 24.425782 28.605468 28.074219 40.15625.996094 3.15625 1.515625 6.042968 1.582031 8.660156v.128906l-27.277344-27.277344c-2.929687-2.929687-7.679687-2.929687-10.605468 0-2.929688 2.929688-2.929688 7.675782 0 10.605469l30.410156 30.414063c-4.273438 2.246093-9.886719 2.300781-16.765625.125zm0 0"/><path d="m55.617188 419.035156c-2.925782 2.929688-2.925782 7.679688 0 10.605469l24.050781 24.050781c1.460937 1.460938 3.382812 2.195313 5.300781 2.195313s3.839844-.734375 5.304688-2.195313c2.929687-2.929687 2.929687-7.679687 0-10.609375l-24.050782-24.046875c-2.925781-2.929687-7.675781-2.929687-10.605468 0zm0 0"/></svg>