<svg height="512pt" viewBox="0 -44 512.00031 512" width="512pt" xmlns="http://www.w3.org/2000/svg"><path d="m81.820312 13.886719c2.8125 8.570312 8.570313 24.25 16.53125 36.464843l29.390626 13.363282 40.082031-.335938c-30.238281-37.277344-66.84375-50.34375-81.457031-54.285156-2.890626-.777344-5.476563 1.953125-4.546876 4.792969zm0 0" fill="#afdc82"/><path d="m255.804688 13.886719c-2.808594 8.570312-8.570313 24.25-16.53125 36.464843l-29.390626 13.363282-40.082031-.335938c30.238281-37.277344 66.84375-50.34375 81.460938-54.285156 2.886719-.777344 5.476562 1.953125 4.542969 4.792969zm0 0" fill="#afdc82"/><path d="m253.042969 48.128906c-13.035157-1.351562-25.527344.410156-36.886719 4.664063-15.511719 5.804687-31.960938 8.347656-48.332031 7.859375-16.371094.488281-32.820313-2.054688-48.332031-7.859375-11.359376-4.253907-23.851563-6.015625-36.886719-4.664063-49.460938 5.128906-82.089844 55.582032-73.820313 106.84375 10.554688 65.417969 64.871094 117.15625 113.054688 117.15625 12.796875 0 20.707031-1.011718 30.847656-4.015625 4.941406-1.464843 10.039062-2.195312 15.136719-2.195312 5.09375 0 10.191406.730469 15.136719 2.195312 10.140624 3.003907 18.050781 4.015625 30.84375 4.015625 48.1875 0 102.503906-51.742187 113.058593-117.15625 8.269531-51.261718-24.359375-101.714844-73.820312-106.84375zm0 0" fill="#ffaa5f"/><path d="m153.90625 240.066406c-47.148438-9.957031-102.503906-51.742187-113.058594-117.15625-3.761718-23.3125 1.003906-46.40625 11.894532-65.195312-31.90625 17.867187-50.410157 57.265625-43.957032 97.257812 10.554688 65.417969 64.871094 117.15625 113.054688 117.15625 12.796875 0 20.707031-1.011718 30.847656-4.015625 4.941406-1.464843 10.039062-2.195312 15.136719-2.195312 5.09375 0 10.191406.730469 15.136719 2.195312 10.140624 3.003907 18.050781 4.015625 30.84375 4.015625 23.207031 0 47.792968-12.082031 68.269531-31.832031-23.160157 1.226563-93.988281 6.984375-128.167969-.230469zm0 0" fill="#ff8c5a"/><path d="m258.175781 158.175781c2.808594 8.570313 8.566407 24.25 16.527344 36.464844l29.394531 13.359375 40.078125-.332031c-30.238281-37.277344-66.84375-50.34375-81.457031-54.285157-2.890625-.777343-5.476562 1.949219-4.542969 4.792969zm0 0" fill="#afdc82"/><path d="m432.160156 158.175781c-2.8125 8.570313-8.570312 24.25-16.53125 36.464844l-29.394531 13.359375-40.078125-.332031c30.238281-37.277344 66.84375-50.34375 81.457031-54.285157 2.890625-.777343 5.476563 1.949219 4.546875 4.792969zm0 0" fill="#afdc82"/><path d="m429.394531 192.414062c-13.035156-1.351562-25.527343.414063-36.886719 4.667969-15.515624 5.804688-31.960937 8.347657-48.332031 7.855469-16.371093.492188-32.820312-2.050781-48.332031-7.855469-11.359375-4.253906-23.851562-6.019531-36.886719-4.667969-49.460937 5.128907-82.09375 55.582032-73.820312 106.847657 10.554687 65.414062 64.871093 117.15625 113.054687 117.15625 12.796875 0 20.707032-1.011719 30.847656-4.015625 4.945313-1.464844 10.039063-2.199219 15.136719-2.199219 5.097657 0 10.191407.734375 15.136719 2.199219 10.140625 3.003906 18.050781 4.015625 30.84375 4.015625 48.1875 0 102.503906-51.742188 113.058594-117.15625 8.269531-51.265625-24.359375-101.71875-73.820313-106.847657zm0 0" fill="#ff8c5a"/><path d="m392.507812 197.082031c-15.515624 5.804688-31.960937 8.347657-48.332031 7.855469-16.371093.492188-32.820312-2.050781-48.332031-7.855469-8.488281-3.179687-17.613281-4.960937-27.117188-5.097656l7.371094 12.574219c7.167969 12.222656 16.824219 22.917968 28.714844 30.628906.082031.054688.167969.105469.25.160156 10.140625 6.542969 17.113281 17.171875 18.355469 29.59375l3.128906 31.316406c1.007813 10.078126 10.335937 17.480469 20.761719 15.679688 8.007812-1.382812 13.78125-8.542969 14.589844-16.628906l3.035156-30.367188c1.242187-12.417968 8.214844-23.046875 18.351562-29.59375.082032-.054687.164063-.105468.25-.160156 11.886719-7.707031 21.546875-18.402344 28.714844-30.625l7.375-12.578125c-9.503906.136719-18.628906 1.917969-27.117188 5.097656zm0 0" fill="#ffc369"/><path d="m490.773438 219.644531c-15.246094-19.902343-36.78125-32.226562-60.640626-34.699219-.527343-.054687-1.050781-.09375-1.574218-.140624 7.890625-15.726563 10.960937-30.714844 11.113281-31.472657.480469-2.417969-.253906-4.917969-1.96875-6.6875-1.714844-1.773437-4.1875-2.59375-6.621094-2.183593-1.925781.320312-46.863281 8.25-86.984375 52.136718-5.25-5.742187-10.582031-10.871094-15.890625-15.445312 2.765625-8.203125 4.855469-16.597656 6.210938-25.011719 4.65625-28.847656-2.578125-58.316406-19.84375-80.855469-15.246094-19.902344-36.785157-32.222656-60.640625-34.699218-.527344-.054688-1.050782-.09375-1.574219-.140626 7.890625-15.722656 10.960937-30.710937 11.113281-31.472656.480469-2.417968-.253906-4.917968-1.96875-6.6875-1.714844-1.769531-4.1875-2.59375-6.621094-2.179687-1.789062.296875-40.878906 7.195312-78.644531 43.574219 2.921875-20.203126 12.5-30.355469 13.035157-30.910157 2.898437-2.929687 2.886718-7.652343-.03125-10.570312-2.929688-2.929688-7.679688-2.929688-10.605469 0-.667969.664062-14.675781 15.015625-17.667969 42.851562-38.195312-37.578125-78.238281-44.644531-80.054688-44.945312-2.433593-.414063-4.90625.410156-6.621093 2.179687-1.714844 1.773438-2.449219 4.273438-1.964844 6.6875.152344.761719 3.21875 15.75 11.113281 31.476563-.527344.042969-1.050781.085937-1.578125.140625-23.855469 2.472656-45.394531 14.796875-60.640625 34.699218-17.265625 22.535157-24.496094 52.003907-19.839844 80.851563 5.257813 32.59375 21.066407 63.574219 44.511719 87.230469 22.851563 23.0625 50.554688 36.285156 76 36.285156 13.578125 0 22.210938-1.132812 32.992188-4.324219 7.089843-2.101562 14.519531-2.445312 21.726562-1.046875-.734375 8.632813-.445312 17.441406.96875 26.210938 5.257813 32.59375 21.066407 63.574218 44.511719 87.234375 22.851562 23.058593 50.554688 36.285156 76.003906 36.285156 13.574219 0 22.207032-1.132813 32.988282-4.328125 8.515624-2.523438 17.515624-2.523438 26.027343 0 10.78125 3.195312 19.414063 4.328125 32.992188 4.328125 25.449219 0 53.148437-13.226563 76-36.285156 23.445312-23.660157 39.253906-54.640625 44.515625-87.234375 4.652344-28.847656-2.582032-58.316406-19.847656-80.851563zm-79.460938-34.683593c-7.320312.78125-14.503906 2.476562-21.488281 5.089843-7.804688 2.917969-15.886719 4.980469-24.179688 6.183594 21.375-19.613281 42.957031-29.226563 55.882813-33.628906-2.1875 6.511719-5.523438 14.730469-10.214844 22.355469zm-134.425781 0c-4.699219-7.644532-8.042969-15.878907-10.230469-22.398438 12.90625 4.367188 34.46875 13.949219 55.925781 33.683594-8.300781-1.207032-16.394531-3.269532-24.207031-6.195313-6.984375-2.613281-14.167969-4.308593-21.488281-5.089843zm-41.773438-144.359376c-7.320312.78125-14.503906 2.476563-21.488281 5.089844-7.808594 2.921875-15.894531 4.984375-24.191406 6.191406 21.378906-19.617187 42.964844-29.234374 55.894531-33.636718-2.1875 6.515625-5.523437 14.730468-10.214844 22.355468zm-88.734375 11.285157c-8.296875-1.207031-16.390625-3.269531-24.203125-6.195313-6.984375-2.613281-14.167969-4.304687-21.488281-5.085937-4.699219-7.644531-8.042969-15.878907-10.230469-22.402344 12.90625 4.371094 34.46875 13.953125 55.921875 33.683594zm349.433594 246.222656c-4.765625 29.527344-19.101562 57.605469-40.359375 79.0625-20.054687 20.234375-43.871094 31.84375-65.347656 31.84375-12.121094 0-19.371094-.9375-28.730469-3.710937-11.300781-3.34375-23.25-3.34375-34.546875 0-9.359375 2.773437-16.609375 3.710937-28.730469 3.710937-21.476562 0-45.292968-11.605469-65.347656-31.84375-21.261719-21.457031-35.597656-49.535156-40.359375-79.0625-5.242187-32.496094 7.210937-65.519531 31.730469-84.136719 3.300781-2.503906 3.941406-7.207031 1.4375-10.507812-2.503906-3.296875-7.210938-3.941406-10.507813-1.4375-18.308593 13.902344-30.914062 34.53125-36.132812 57.425781-9.390625-1.734375-19.054688-1.238281-28.292969 1.496094-9.359375 2.773437-16.605469 3.707031-28.730469 3.707031-21.472656 0-45.289062-11.605469-65.34375-31.839844-21.261719-21.457031-35.597656-49.535156-40.359375-79.066406-4-24.789062 2.171875-50.0625 16.941406-69.339844 12.710938-16.59375 30.566407-26.855468 50.28125-28.902344 11.53125-1.191406 22.804688.230469 33.503907 4.234376 16.136719 6.039062 33.285156 8.851562 50.980469 8.339843 17.703124.515625 34.847656-2.300781 50.984374-8.339843 10.699219-4.003907 21.96875-5.429688 33.503907-4.234376 19.710937 2.046876 37.566406 12.308594 50.28125 28.902344 14.765625 19.277344 20.941406 44.550782 16.941406 69.339844-.945313 5.859375-2.289063 11.707031-4 17.480469-30.394531-21.828125-57.027344-26.523438-58.496094-26.769531-2.4375-.40625-4.90625.414062-6.621093 2.183593-1.714844 1.769531-2.449219 4.269531-1.964844 6.6875.152344.761719 3.21875 15.75 11.113281 31.472657-.527344.046874-1.050781.085937-1.578125.144531-4.050781.417969-8.101562 1.132812-12.03125 2.121093-4.015625 1.007813-6.453125 5.082032-5.445312 9.101563 1.011718 4.015625 5.085937 6.453125 9.101562 5.445313 3.238281-.8125 6.578125-1.402344 9.925781-1.75 11.53125-1.195313 22.804688.226562 33.503907 4.230468 16.132812 6.039063 33.273437 8.84375 50.980468 8.339844 17.691406.496094 34.851563-2.300781 50.984375-8.339844 10.699219-4.003906 21.976563-5.425781 33.503907-4.230468 19.710937 2.042968 37.566406 12.308593 50.28125 28.898437 14.769531 19.277344 20.945312 44.550781 16.945312 69.34375zm0 0"/><path d="m392.1875 223.074219c-19.203125 5.722656-32.855469 21.875-34.78125 41.148437l-3.039062 30.382813c-.503907 5.035156-4.039063 9.234375-8.410157 9.988281-2.902343.503906-5.753906-.179688-8.039062-1.917969-2.289063-1.738281-3.707031-4.269531-3.992188-7.125l-3.132812-31.328125c-1.925781-19.273437-15.578125-35.425781-34.78125-41.148437-3.964844-1.179688-8.148438 1.074219-9.332031 5.042969-1.183594 3.96875 1.074218 8.144531 5.046874 9.332031 13.347657 3.976562 22.824219 15.074219 24.140626 28.265625l3.136718 31.328125c.691406 6.945312 4.277344 13.347656 9.835938 17.574219 4.445312 3.378906 9.726562 5.144531 15.214844 5.144531 1.476562 0 2.964843-.125 4.457031-.382813 11.054687-1.910156 19.601562-11.480468 20.78125-23.277344l3.039062-30.386718c1.320313-13.191406 10.796875-24.289063 24.144531-28.265625 3.96875-1.1875 6.226563-5.363281 5.042969-9.332031-1.183593-3.96875-5.359375-6.230469-9.332031-5.042969zm0 0"/></svg>