<svg height="512pt" viewBox="-69 0 512 512.00101" width="512pt" xmlns="http://www.w3.org/2000/svg"><path d="m254.324219 39.277344c-83.484375-76.03125-128.265625 8.292968-128.265625 8.292968l-3.003906 200.410157h136.277343zm0 0" fill="#b4e6a0"/><path d="m99.007812 376.238281c0-104.710937-74.246093-126.792969-88.179687-159.824219-13.527344-32.0625 18.726563-40.144531 10.523437-64.128906-13.027343-38.078125.585938-76.742187 46.175782-72.0625h39.496094v296.015625zm0 0" fill="#78c3a5"/><path d="m275.363281 376.238281c0-104.710937 74.246094-126.792969 88.179688-159.824219 13.527343-32.0625-18.726563-40.144531-10.519531-64.128906 13.023437-38.078125-.585938-76.742187-46.179688-72.0625h-39.496094v296.015625zm0 0" fill="#b4e6a0"/><path d="m187.183594 504.5c-48.699219 0-88.175782-39.480469-88.175782-88.179688v-176.359374h176.355469v176.359374c0 48.699219-39.476562 88.179688-88.179687 88.179688zm0 0" fill="#fff6d8"/><path d="m187.183594 472.433594c-30.988282 0-56.113282-25.121094-56.113282-56.113282v-240.488281h8.015626c57.554687 0 104.214843 46.65625 104.214843 104.214844v136.273437c0 30.992188-25.125 56.113282-56.117187 56.113282zm0 0" fill="#d2ebb9"/><path d="m171.152344 183.847656-40.078125-8.015625v232.472657c17.707031 0 32.0625-14.355469 32.0625-32.066407v-5.007812c0-74.152344 36.074219-119.574219 8.015625-187.382813zm0 0" fill="#b4e6a0"/><path d="m149.609375 113.375c12.234375-40.378906-16.242187-88.097656-50.601563-89.804688-5.25-.261718-10.636718.550782-16.035156 2.628907-26.050781 10.019531-27.554687 42.085937-17.535156 56.113281 23.660156 33.128906 33.570312 19.539062 33.570312 91.6875v154.140625c0 17.707031 14.355469 32.066406 32.0625 32.0625v-78.484375c0-44.089844 40.082032-49.769531 40.082032-95.195312 0-40.082032-31.5625-40.082032-21.542969-73.148438zm0 0" fill="#96d7a5"/><path d="m221.253906 223.929688s-2.742187 52.371093-18.035156 106.203124c-18.039062 63.476563-16.035156 108.820313-16.035156 142.300782 30.992187 0 56.117187-25.121094 56.117187-56.113282v-192.390624h-24.050781" fill="#b4e6a0"/><path d="m224.761719 113.375c-12.238281-40.378906 16.242187-88.097656 50.601562-89.804688 5.25-.261718 10.632813.550782 16.035157 2.628907 26.050781 10.019531 27.554687 42.085937 17.535156 56.113281-23.664063 33.128906-33.570313 19.539062-33.570313 91.6875v154.140625c0 17.707031-14.355469 32.066406-32.0625 32.0625v-78.484375c0-44.089844-40.082031-49.769531-40.082031-95.195312 0-40.082032 31.5625-40.082032 21.542969-73.148438zm0 0" fill="#96d7a5"/><path d="m159.390625 456.210938c-13.035156-9.105469-20.820313-24.015626-20.820313-39.890626v-24.042968c0-4.144532-3.355468-7.5-7.496093-7.5-4.144531 0-7.5 3.355468-7.5 7.5v24.042968c0 20.773438 10.179687 40.28125 27.226562 52.1875 1.308594.914063 2.804688 1.351563 4.289063 1.351563 2.367187 0 4.695312-1.117187 6.15625-3.207031 2.371094-3.394532 1.539062-8.070313-1.855469-10.441406zm0 0"/><path d="m365.203125 174.953125c-5.042969-8.328125-7.558594-13.007813-5.085937-20.242187 8.75-25.570313 6.9375-48.820313-4.96875-63.796876-5.804688-7.300781-16.3125-15.367187-34.621094-16.390624 2.238281-8.484376 2.1875-18.257813-.46875-27.101563-3.992188-13.292969-13.214844-23.316406-25.96875-28.222656-6.214844-2.390625-12.640625-3.4375-19.097656-3.121094-8.101563.402344-16.109376 3.003906-23.558594 7.472656-26.769532-19.152343-52.519532-26.683593-76.554688-22.371093-23.871094 4.28125-39.160156 19.152343-45.589844 26.734374-9.140624-7.15625-19.457031-11.316406-29.910156-11.835937-6.460937-.316406-12.882812.730469-19.097656 3.121094-12.753906 4.90625-21.976562 14.929687-25.96875 28.222656-2.65625 8.84375-2.707031 18.617187-.46875 27.101563-18.3125 1.023437-28.816406 9.089843-34.621094 16.390624-11.90625 14.976563-13.71875 38.226563-4.96875 63.796876 2.472656 7.234374-.042968 11.914062-5.082031 20.242187-5.964844 9.847656-14.132813 23.335937-5.253906 44.378906 4.890625 11.59375 15.4375 21.269531 27.648437 32.476563 26.707032 24.5 59.941406 54.996094 59.941406 124.433594v40.078124c0 52.757813 42.917969 95.679688 95.675782 95.679688 52.757812 0 95.679687-42.921875 95.679687-95.679688v-40.078124c0-69.4375 33.234375-99.933594 59.941407-124.433594 12.210937-11.207032 22.757812-20.882813 27.648437-32.476563 8.878906-21.042969.710937-34.53125-5.25-44.378906zm-323.496094 65.800781c-10.917969-10.019531-20.347656-18.671875-23.96875-27.253906-5.902343-13.992188-1.417969-21.398438 4.261719-30.777344 5.035156-8.316406 11.300781-18.667968 6.445312-32.863281-6.957031-20.332031-6.015624-38.878906 2.515626-49.609375 6.3125-7.941406 16.554687-11.542969 30.453124-10.730469 5.339844 7.132813 9.992188 12.0625 13.808594 16.113281 11.515625 12.207032 16.28125 17.257813 16.28125 68.367188v41.992188l-31.308594-66.402344c-1.765624-3.746094-6.234374-5.347656-9.980468-3.585938-3.746094 1.765625-5.351563 6.234375-3.585938 9.980469l44.875 95.175781v51.640625c-13.410156-28.652343-33.414062-47.015625-49.796875-62.046875zm314.925781-27.253906c-3.621093 8.582031-13.050781 17.234375-23.96875 27.253906-16.382812 15.03125-36.386718 33.394532-49.800781 62.046875v-51.636719l44.878907-95.179687c1.765624-3.746094.160156-8.214844-3.585938-9.980469s-8.21875-.164062-9.984375 3.585938l-31.308594 66.402344v-8.097657c0-4.144531-3.355469-7.5-7.5-7.5-4.140625 0-7.5 3.355469-7.5 7.5v208.425781c0 44.488282-36.191406 80.679688-80.679687 80.679688-44.484375 0-80.675782-36.191406-80.675782-80.679688v-344.699218c0-4.140625-3.359374-7.5-7.5-7.5-4.144531 0-7.5 3.359375-7.5 7.5v29.652344c-1.640624-1.941407-3.429687-3.875-5.371093-5.933594-4.207031-4.457032-8.96875-9.507813-14.597657-17.386719-3.636718-5.09375-6.085937-15.476563-2.859374-26.222656 1.855468-6.1875 6.3125-14.425781 16.988281-18.53125 4.25-1.636719 8.613281-2.355469 12.96875-2.140625 12.011719.597656 24.117187 8.347656 33.210937 21.261718 12.257813 17.410157 16.3125 39.972657 10.585938 58.878907-6.289063 20.75 1.785156 31.828125 8.90625 41.605469 6.324218 8.679687 12.296875 16.878906 12.3125 33.65625v.027343c0 .011719.003906.023438.003906.035157 0 20.265624-8.636719 31.132812-18.636719 43.714843-10.054687 12.644531-21.445312 26.980469-21.445312 51.476563v78.488281c0 4.144531 3.355469 7.5 7.5 7.5 4.140625 0 7.5-3.355469 7.5-7.5v-78.488281c0-19.261719 8.429687-29.867188 18.1875-42.144532 5.429687-6.832031 11.242187-14.152343 15.515625-23.304687 5.101562 27.640625-.261719 51.914063-6.265625 79.003906-5.097657 23.023438-10.371094 46.828125-10.371094 75.957031 0 4.144532 3.355469 7.5 7.496094 7.5 4.144531 0 7.5-3.355468 7.5-7.5 0-27.484374 5.09375-50.476562 10.023437-72.714843 7.976563-36 15.496094-70.03125-2.023437-113.46875-.375-20.75-8.558594-32-15.171875-41.070313-6.734375-9.242187-10.796875-14.820312-6.675782-28.421875 7.039063-23.230469 2.183594-50.765625-12.671874-71.867187-1.296876-1.835938-2.652344-3.578125-4.050782-5.25 4.464844-5.433594 17.371094-18.964844 37.671875-22.53125 18.8125-3.304688 39.429688 2.523437 61.351563 17.324218-3.148438 3.117188-6.113282 6.601563-8.832032 10.457032-12.738281 18.097656-18.117187 40.925781-14.953124 61.714844-.492188-.4375-.988282-.875-1.488282-1.3125-8.621094-7.570313-18.386718-16.152344-26.636718-37.808594-1.472657-3.867188-5.804688-5.8125-9.679688-4.335938-3.871094 1.472656-5.8125 5.804688-4.335938 9.675782 9.570313 25.128906 21.3125 35.445312 30.746094 43.738281 6.460938 5.675781 11.203125 9.855469 13.796875 17.707031-1.464843 3.582031-3.878906 6.902344-6.800781 10.910156-6.765625 9.285156-15.1875 20.847656-15.1875 42.550782 0 22.316406 8.90625 36.3125 18.011719 48.113281-.371094 5.761719-3.710938 52.234375-17.703125 99.386719-16.761719 56.503906-16.535156 98.816406-16.371094 129.714843.015625 2.988281.03125 5.886719.03125 8.695313 0 4.144531 3.355469 7.5 7.5 7.5 35.074219 0 63.613281-28.535156 63.613281-63.613282v-134.601562c0-24.5-11.394531-38.832031-21.445312-51.480469-10-12.582031-18.636719-23.449219-18.636719-43.714843 0-16.816407 5.980469-25.027344 12.3125-33.714844 7.121094-9.777344 15.195312-20.859375 8.910156-41.605469-5.730468-18.910156-1.675781-41.472656 10.582032-58.878906 9.09375-12.917969 21.199218-20.664063 33.210937-21.261719 4.359375-.222656 8.71875.5 12.972656 2.136719 10.671875 4.105469 15.128907 12.347656 16.984375 18.535156 3.226563 10.746094.777344 21.125-2.859375 26.222656-5.628906 7.875-10.394531 12.925781-14.597656 17.382813-1.941406 2.0625-3.730469 3.996094-5.371094 5.933594v-29.652344c0-4.140625-3.355469-7.5-7.496093-7.5-4.144532 0-7.5 3.359375-7.5 7.5v104.214844c0 4.144531 3.355468 7.5 7.5 7.5 4.140624 0 7.496093-3.355469 7.496093-7.5v-1.835938c0-51.109375 4.769531-56.160156 16.28125-68.367188 3.820313-4.050781 8.46875-8.980468 13.808594-16.113281 13.902344-.808593 24.144531 2.789063 30.457031 10.726563 8.53125 10.734375 9.472656 29.277344 2.515625 49.609375-4.855469 14.199219 1.410157 24.546875 6.445313 32.863281 5.679687 9.382812 10.164062 16.789062 4.261718 30.78125zm-129.429687 39.007812c5.097656 7.984376 8.597656 16.800782 8.597656 29.210938v134.601562c0 24.265626-17.871093 44.4375-41.144531 48.042969 0-.234375 0-.46875-.003906-.703125-.167969-31.628906-.378906-70.992187 15.757812-125.371094 9.996094-33.695312 14.695313-66.4375 16.792969-85.78125zm0 0"/></svg>