<svg height="512pt" viewBox="-100 0 512 512.0005" width="512pt" xmlns="http://www.w3.org/2000/svg"><path d="m169.699219 143.664062-41.621094 16.464844c-7.664063 3.03125-11.417969 11.699219-8.390625 19.359375l8.234375 20.8125s65.078125 148.164063 156.972656 274.949219l-66.574219-236-8.296874-28.007812c-6.269532-19.976563-13.261719-39.71875-20.964844-59.191407-3.027344-7.664062-11.695313-11.417969-19.359375-8.386719zm0 0" fill="#faebc8"/><path d="m147.320312 186.054688-8.234374-20.8125c-1.214844-3.074219-1.292969-6.296876-.511719-9.265626l-10.496094 4.152344c-7.664063 3.03125-11.417969 11.699219-8.386719 19.359375l8.230469 20.8125s65.078125 148.164063 156.972656 274.949219l-20.636719-73.152344c-70.191406-109.632812-116.9375-216.042968-116.9375-216.042968zm0 0" fill="#f5dcb4"/><path d="m180.75 81.378906-44.078125-19.25c-8.113281-3.542968-17.566406.160156-21.109375 8.273438l-9.625 22.039062s-63.621094 161.832032-90.640625 327.90625l129.433594-229.511718 15.0625-27.535157c10.476562-19.910156 20.226562-40.191406 29.234375-60.8125 3.542968-8.113281-.164063-17.566406-8.277344-21.109375zm0 0" fill="#faebc8"/><path d="m131.492188 96.433594 9.625-22.039063c1.421874-3.253906 3.816406-5.757812 6.671874-7.410156l-11.113281-4.851563c-8.117187-3.546874-17.566406.160157-21.109375 8.273438l-9.625 22.039062s-63.625 161.828126-90.640625 327.902344l40.121094-71.140625c30.382813-136.539062 76.070313-252.773437 76.070313-252.773437zm0 0" fill="#f5dcb4"/><path d="m117.726562 185.628906-7.34375-3.210937c-3.792968-1.65625-8.21875.074219-9.875 3.871093-1.660156 3.796876.074219 8.21875 3.871094 9.875l7.34375 3.210938c.976563.425781 1.996094.628906 3 .628906 2.890625 0 5.644532-1.683594 6.875-4.5 1.660156-3.796875-.074218-8.21875-3.871094-9.875zm0 0"/><path d="m310.03125 499.910156c-4.785156-6.183594-9.503906-12.445312-14.164062-18.757812l-72.578126-252.191406c-8.1875-28.488282-17.902343-56.894532-28.875-84.433594-2.082031-5.234375-5.984374-9.4375-10.882812-11.929688 1.753906-3.699218 10.410156-22.628906 12.367188-27.109375 2.515624-5.757812 2.640624-12.152343.34375-18.007812-2.058594-5.253907-5.859376-9.496094-10.785157-12.128907l30.882813-37.414062c2.636718-3.191406 2.183594-7.921875-1.011719-10.558594-3.195313-2.636718-7.917969-2.1875-10.558594 1.011719l-33.546875 40.644531-2.636718-1.152344 22.664062-51.894531c1.660156-3.796875-.074219-8.21875-3.871094-9.875-3.792968-1.65625-8.214844.074219-9.875 3.871094l-22.664062 51.894531-2.632813-1.148437 7.011719-52.234375c.550781-4.105469-2.328125-7.878906-6.433594-8.4296878-4.101562-.5429682-7.882812 2.3281248-8.433594 6.4335938l-6.457031 48.082031c-5.277343-1.824219-10.972656-1.730469-16.226562.332031-5.851563 2.292969-10.460938 6.730469-12.976563 12.492188l-9.625 22.039062c-.035156.082032-.070312.167969-.105468.253907-.796876 2.027343-79.875 204.621093-98.9179692 387.597656-.4296878 4.117187 2.5625002 7.804687 6.6835932 8.234375.261719.027344.523438.042969.785157.042969 3.792969-.003907 7.046875-2.871094 7.449219-6.726563 1.859374-17.855468 4.300781-35.902344 7.183593-53.933594l108.71875-193.988281c27.828125 57.792969 89.625 177.820313 167.304688 278.164063 1.480469 1.910156 3.695312 2.910156 5.9375 2.910156 1.605469 0 3.21875-.511719 4.585937-1.570312 3.273438-2.535157 3.875-7.246094 1.339844-10.519532zm-121.746094-189.996094c.640625.175782 1.300782.277344 1.976563.277344.925781 0 1.863281-.171875 2.773437-.535156l7.15625-2.851562c3.847656-1.53125 5.726563-5.894532 4.191406-9.742188-1.535156-3.847656-5.890624-5.722656-9.742187-4.191406l-7.15625 2.851562c-2.160156.859375-3.699219 2.613282-4.363281 4.664063-10.0625-18.699219-18.925782-35.90625-26.425782-50.890625l10.679688-4.253906c3.847656-1.53125 5.722656-5.894532 4.191406-9.742188-1.535156-3.847656-5.898437-5.722656-9.742187-4.191406l-11.8125 4.707031c-3.890625-7.929687-7.296875-15.015625-10.175781-21.101563l11.4375-20.40625c2.023437-3.613281.738281-8.183593-2.875-10.210937-3.609376-2.023437-8.183594-.738281-10.210938 2.878906l-107.910156 192.519531c11.207031-56.457031 25.785156-110.976562 39.574218-156.925781.746094 1.597657 2.046876 2.949219 3.792969 3.710938l7.347657 3.207031c.976562.425781 1.992187.628906 2.996093.628906 2.890625 0 5.644531-1.679687 6.875-4.5 1.660157-3.796875-.074219-8.21875-3.871093-9.875l-7.347657-3.207031c-2.324219-1.015625-4.882812-.753906-6.894531.46875 6.597656-21.601563 12.941406-41.097656 18.5625-57.730469l11.207031 4.890625c.976563.429688 1.992188.628907 2.996094.628907 2.890625 0 5.644531-1.679688 6.875-4.5 1.660156-3.796876-.074219-8.214844-3.871094-9.875l-12.332031-5.382813c9.484375-27.371094 16.027344-44.242187 16.683594-45.921875l.148437-.339844 29.855469 13.039063c.980469.429687 1.996094.628906 3 .628906 2.890625 0 5.644531-1.679687 6.875-4.5 1.660156-3.796875-.074219-8.214844-3.871094-9.875l-29.855468-13.039063 3.414062-7.820312c1.886719-4.308594 6.925781-6.289062 11.234375-4.402344l22.035156 9.621094c0 .003906 0 .003906.003907.003906h.003906l22.035156 9.625c2.089844.910156 3.695312 2.582032 4.527344 4.703125.832031 2.121094.789062 4.441407-.125 6.53125-1.136719 2.601563-2.285156 5.203125-3.453125 7.800781l-.433594-.1875c-3.796875-1.65625-8.21875.074219-9.875 3.867188-1.65625 3.796875.074219 8.21875 3.871094 9.875l.191406.085938c-2.410156 5.152343-4.871094 10.289062-7.375 15.398437l-36.375-15.886719c-3.796875-1.65625-8.21875.078125-9.875 3.871094-1.660156 3.796875.074219 8.21875 3.871094 9.875l35.65625 15.570312c-1.71875 3.367188-3.445313 6.722657-5.199219 10.050782-1.929688 3.667968-.523438 8.203125 3.144531 10.128906 3.664063 1.933594 8.199219.523438 10.128907-3.144531 3.59375-6.824219 7.109374-13.730469 10.550781-20.683594 1.566406.875 2.816406 2.257813 3.5 3.96875 4.640625 11.652344 9.039062 23.472656 13.207031 35.382813-.109375.035156-.21875.066406-.324219.109374l-35.785156 14.253907c-3.851563 1.535156-5.726563 5.898437-4.195313 9.742187 1.171876 2.941406 3.992188 4.726563 6.972657 4.726563.921875 0 1.863281-.171875 2.773437-.53125l35.394532-14.101563c3.675781 11.105469 7.136718 22.265625 10.351562 33.445313l60.59375 210.746093c-31.320312-46.082031-58.90625-93.097656-81.183594-133.9375zm0 0"/><path d="m190.320312 268.703125c.925782 0 1.863282-.171875 2.773438-.535156l7.15625-2.851563c3.847656-1.53125 5.726562-5.894531 4.191406-9.742187-1.53125-3.847657-5.894531-5.722657-9.742187-4.191407l-7.15625 2.851563c-3.847657 1.53125-5.726563 5.894531-4.191407 9.742187 1.171876 2.9375 3.988282 4.726563 6.96875 4.726563zm0 0"/></svg>