<svg height="512pt" viewBox="-136 0 512 512" width="512pt" xmlns="http://www.w3.org/2000/svg"><path d="m116.1875 12.921875c-14.777344 23.175781-23.582031 43.90625-28.824219 60.375l32.363281 30.398437 32.328126-30.496093c-5.246094-16.453125-14.042969-37.144531-28.789063-60.277344-1.625-2.546875-5.453125-2.546875-7.078125 0zm0 0" fill="#afdc82"/><path d="m189.421875 45.1875c-26.207031 15.289062-47.71875 31.859375-64.601563 46.972656-3.078124 2.75-7.617187 2.75-10.691406 0-16.882812-15.113281-38.394531-31.683594-64.601562-46.972656-2.984375-1.742188-6.425782 1.515625-4.890625 4.613281l32.835937 66.25 42 35.738281 42.003906-35.738281 32.835938-66.25c1.535156-3.097656-1.90625-6.355469-4.890625-4.613281zm0 0" fill="#96cd82"/><path d="m218.660156 84.953125c-38.472656 16.304687-68.65625 37.398437-89.65625 54.898437-3.011718 2.507813-7.28125 2.507813-10.289062 0-21-17.5-51.1875-38.59375-89.65625-54.898437-3.390625-1.4375-6.507813 2.554687-4.15625 5.390625 11.574218 13.953125 32.519531 40.523438 53.238281 73.46875l45.71875 39.292969 45.714844-39.292969c20.722656-32.945312 41.664062-59.515625 53.238281-73.46875 2.351562-2.835938-.761719-6.828125-4.152344-5.390625zm0 0" fill="#7dbe81"/><path d="m208.054688 141.132812c-33.882813 14.527344-60.503907 33.011719-79.207032 48.492188-3.007812 2.492188-7.300781 2.492188-10.3125 0-18.703125-15.476562-45.320312-33.964844-79.207031-48.492188-3.390625-1.457031-6.519531 2.578126-4.160156 5.417969 11.285156 13.582031 31.183593 38.695313 49.652343 67.863281l38.660157 24.300782.210937-.128906.207032.128906 38.660156-24.300782c18.472656-29.167968 38.371094-54.28125 49.65625-67.863281 2.359375-2.839843-.769532-6.871093-4.160156-5.417969zm0 0" fill="#96cd82"/><path d="m58.136719 204.019531c8.546875 10.101563 20.410156 25.738281 29.523437 43.964844l40.082032-8.015625s-30.566407-24.453125-65.339844-41.328125c-3.441406-1.671875-6.734375 2.457031-4.265625 5.378906zm0 0" fill="#7dbe81"/><path d="m200.386719 191.871094s-24.546875 24.046875-40.582031 56.113281l-40.078126-8.015625s40.082032-32.066406 80.660157-48.097656zm0 0" fill="#7dbe81"/><path d="m231.953125 368.226562c0 75.261719-23.683594 136.273438-112.226563 136.273438-88.542968 0-112.226562-61.011719-112.226562-136.273438 0-75.261718 23.683594-136.273437 112.226562-136.273437 88.542969 0 112.226563 61.011719 112.226563 136.273437zm0 0" fill="#c48d66"/><path d="m159.808594 472.433594c-88.546875 0-112.226563-61.011719-112.226563-136.273438 0-37.222656 5.832031-70.929687 22.402344-95.523437-48.003906 19.300781-62.484375 69.0625-62.484375 127.589843 0 75.261719 23.683594 136.273438 112.226562 136.273438 44.75 0 72.890626-15.617188 89.824219-40.75-13.730469 5.519531-30.054687 8.683594-49.742187 8.683594zm0 0" fill="#b67f5f"/><path d="m215.21875 267.609375c-10.128906-14.703125-23.535156-25.675781-40.082031-32.882813 16.722656-23.601562 30.410156-37.40625 30.554687-37.554687 2.496094-2.496094 2.914063-6.394531 1-9.363281-1.910156-2.964844-5.632812-4.203125-8.9375-2.960938-3.28125 1.230469-6.53125 2.519532-9.742187 3.867188 21.171875-29.945313 38.511719-47.445313 38.722656-47.652344 2.496094-2.496094 2.914063-6.398438 1-9.367188-1.910156-2.964843-5.632813-4.203124-8.9375-2.960937-9.078125 3.40625-17.648437 7.054687-25.714844 10.855469 24.011719-34.296875 43.933594-54.40625 44.171875-54.640625 2.496094-2.496094 2.914063-6.398438 1-9.363281-1.910156-2.96875-5.632812-4.203126-8.9375-2.964844-18.082031 6.78125-34.332031 14.445312-48.761718 22.371094l26.039062-52.074219c1.464844-2.929688.855469-6.472657-1.5-8.75-2.359375-2.277344-5.921875-2.757813-8.800781-1.1875-14.039063 7.660156-27.378907 15.90625-39.953125 24.671875-7.207032-18.289063-17.460938-36.609375-30.558594-54.570313-1.40625-1.9375-3.660156-3.082031-6.054688-3.082031-2.398437 0-4.648437 1.144531-6.0625 3.082031-13.089843 17.957031-23.34375 36.269531-30.546874 54.554688-11.867188-8.265625-25.136719-16.570313-39.960938-24.65625-2.878906-1.570313-6.441406-1.089844-8.800781 1.1875-2.355469 2.273437-2.964844 5.820312-1.5 8.75l23.191406 46.378906c-11.59375-5.890625-24.21875-11.546875-37.898437-16.675781-3.304688-1.238282-7.023438-.003906-8.933594 2.960937-1.914063 2.964844-1.496094 6.867188.996094 9.363281.238281.238282 20.175781 20.359376 44.195312 54.675782-8.070312-3.8125-16.648438-7.476563-25.734375-10.886719-3.304687-1.238281-7.023437-.007813-8.9375 2.960937-1.914063 2.964844-1.496094 6.863282.996094 9.363282.210937.210937 17.550781 17.707031 38.730469 47.65625-3.21875-1.347656-6.464844-2.636719-9.746094-3.867188-3.308594-1.238281-7.03125-.003906-8.941406 2.960938-1.910157 2.96875-1.492188 6.867187 1.003906 9.363281.136718.140625 12.828125 12.914063 28.78125 35.070313-19.449219 7.046874-34.953125 18.855468-46.328125 35.367187-16.304688 23.671875-24.230469 56.582031-24.230469 100.617187 0 44.03125 7.925781 76.945313 24.230469 100.613282 19.730469 28.640625 51.859375 43.160156 95.496093 43.160156 43.636719 0 75.765626-14.519531 95.492188-43.160156 16.304688-23.667969 24.230469-56.582032 24.230469-100.613282 0-44.035156-7.925781-76.945312-24.230469-100.617187zm-196.644531 55.933594c.882812.695312 1.777343 1.453125 2.738281 2.277343 5.101562 4.378907 11.453125 9.824219 23.578125 9.824219 12.121094 0 18.46875-5.445312 23.570313-9.824219 4.359374-3.738281 7.238281-6.207031 13.804687-6.207031 6.570313 0 9.453125 2.46875 13.808594 6.207031 5.105469 4.378907 11.453125 9.824219 23.578125 9.824219s18.480468-5.445312 23.585937-9.820312c4.363281-3.738281 7.25-6.210938 13.828125-6.210938 6.589844 0 9.472656 2.472657 13.84375 6.214844 5.109375 4.375 11.464844 9.820313 23.597656 9.820313 12.132813 0 18.492188-5.445313 23.601563-9.820313.964844-.828125 1.871094-1.59375 2.765625-2.296875 1.664062 9.222656 2.738281 19.238281 3.242188 30.046875-7.289063 1.703125-11.890626 5.632813-15.765626 8.953125-4.367187 3.742188-7.253906 6.210938-13.84375 6.210938-6.585937 0-9.472656-2.46875-13.839843-6.210938-5.109375-4.375-11.46875-9.820312-23.601563-9.820312-12.128906 0-18.480468 5.445312-23.585937 9.820312-4.367188 3.742188-7.25 6.210938-13.828125 6.210938-6.570313 0-9.453125-2.46875-13.808594-6.207032-5.105469-4.378906-11.453125-9.824218-23.578125-9.824218-12.121094 0-18.46875 5.449218-23.570313 9.824218-4.359374 3.738282-7.238281 6.207032-13.808593 6.207032-6.570313 0-9.449219-2.46875-13.8125-6.207032-3.871094-3.320312-8.464844-7.25-15.742188-8.957031.503907-10.804687 1.578125-20.816406 3.242188-30.035156zm130.304687-96.625c7.726563-5.28125 15.78125-10.144531 24.148438-14.5625-3.90625 5.054687-8.152344 10.800781-12.574219 17.1875-3.726563-1.035157-7.589844-1.90625-11.574219-2.625zm12.386719-25.238281c-12.175781 6.75-23.71875 14.402343-34.546875 22.910156-2.015625-.078125-4.058594-.121094-6.125-.128906-3.347656-2.625-6.769531-5.167969-10.25-7.628907 4.375-4.804687 13.089844-13.742187 26.027344-24.21875 13.011718-10.53125 32.359375-24.234375 57.550781-36.738281-9.296875 11.601562-20.898437 27.261719-32.65625 45.804688zm4.082031-47.417969c-17.003906 10.046875-30.878906 20.292969-41.664062 29.28125-4.832032-4.019531-10.359375-8.359375-16.589844-12.859375 3.707031-4.253906 14.035156-15.488282 30.785156-29.046875 14.863282-12.039063 37.246094-27.835938 66.523438-42.027344-10.792969 13.285156-24.921875 32.230469-39.054688 54.652344zm-8.773437-44.867188c-3.003907 1.964844-5.902344 3.925781-8.6875 5.871094-4.824219-5.621094-10.519531-11.796875-17.167969-18.34375 15.386719-13.742187 32.515625-26.53125 51.199219-38.1875zm-36.847657-88.820312c10.285157 15.320312 18.347657 30.8125 24.042969 46.199219-8.402343 6.363281-16.417969 12.976562-24.023437 19.816406-7.128906-6.414063-15.128906-13.074219-24.058594-19.832032 5.695312-15.378906 13.753906-30.863281 24.039062-46.183593zm-62.199218 38.148437c37.496094 23.375 62.535156 47.3125 78.207031 65.417969-4.363281 3.335937-8.375 6.574219-12.054687 9.671875-11.355469-9.542969-26.183594-20.65625-44.433594-31.65625zm-14.480469 40.863282c29.96875 14.496093 53.074219 30.871093 69.265625 44.285156-9.683594 9.019531-15.550781 15.75-17.65625 18.261718-3.941406-2.578124-8.097656-5.175781-12.46875-7.765624-14.324219-22.8125-28.207031-41.328126-39.140625-54.78125zm10.484375 56.269531c25.195312 12.492187 44.816406 26.328125 58.746094 37.722656-7.070313 6.582031-11.921875 11.832031-14.578125 14.863281-3.773438-2.351562-7.617188-4.613281-11.523438-6.777344-11.835937-18.691406-23.292969-34.140624-32.644531-45.808593zm20.910156 56.5c7.816406 4.128906 15.359375 8.65625 22.621094 13.542969-3.851562.511718-7.59375 1.164062-11.222656 1.953124-4-5.714843-7.839844-10.890624-11.398438-15.496093zm45.285156 27.097656c36.261719 0 62.6875 10.546875 79.925782 32.414063-1.46875.429687-3.128906.679687-5.140625.679687-2.1875 0-4.070313-.277344-5.757813-.855469-3.925781-1.332031-8.183594.765625-9.519531 4.6875-1.332031 3.917969.765625 8.179688 4.6875 9.515625 3.269531 1.113281 6.734375 1.652344 10.589844 1.652344 5.683593 0 10.054687-1.210937 13.523437-2.828125 3.734375 6.9375 6.824219 14.695312 9.273438 23.292969-3.683594 1.914062-6.519532 4.332031-8.957032 6.421875-4.367187 3.738281-7.253906 6.210937-13.839843 6.210937-6.589844 0-9.476563-2.472656-13.84375-6.210937-5.109375-4.375-11.464844-9.820313-23.601563-9.820313-12.125 0-18.480468 5.445313-23.585937 9.820313-4.363281 3.738281-7.25 6.210937-13.828125 6.210937-6.570313 0-9.449219-2.46875-13.808594-6.210937-5.105469-4.375-11.453125-9.824219-23.574219-9.824219-12.121093 0-18.472656 5.449219-23.574219 9.824219-4.359374 3.742187-7.238281 6.210937-13.804687 6.210937-6.574219 0-9.453125-2.472656-13.816406-6.210937-2.527344-2.167969-5.3125-4.535156-8.933594-6.417969 2.449219-8.59375 5.535156-16.347656 9.269531-23.285156 3.464844 1.613281 7.828125 2.816406 13.476563 2.816406 12.121093 0 18.472656-5.445313 23.574219-9.824219 4.355468-3.738281 7.234374-6.207031 13.804687-6.207031s9.449219 2.46875 13.808594 6.207031c5.105469 4.378906 11.453125 9.824219 23.574219 9.824219 12.128906 0 18.484374-5.445313 23.589843-9.820313 4.363281-3.742187 7.246094-6.210937 13.828125-6.210937 4.140625 0 7.5-3.359375 7.5-7.5 0-4.144531-3.359375-7.5-7.5-7.5-12.128906 0-18.480468 5.445313-23.589844 9.820313-4.363281 3.738281-7.246093 6.210937-13.828124 6.210937-6.570313 0-9.449219-2.46875-13.808594-6.207031-5.101563-4.378906-11.453125-9.824219-23.574219-9.824219s-18.46875 5.445313-23.574219 9.824219c-4.355468 3.738281-7.234375 6.207031-13.804687 6.207031-2.007813 0-3.652344-.238281-5.105469-.660156 17.242188-21.878907 43.667969-32.433594 79.945312-32.433594zm-65.527343 239.222656c6.429687-1.863281 10.664062-5.476562 14.261719-8.5625 4.359374-3.742187 7.238281-6.210937 13.804687-6.210937 6.570313 0 9.453125 2.46875 13.808594 6.210937 5.105469 4.375 11.453125 9.820313 23.578125 9.820313s18.480468-5.445313 23.585937-9.820313c4.363281-3.738281 7.25-6.210937 13.828125-6.210937 6.589844 0 9.472656 2.472656 13.84375 6.214844 3.613282 3.09375 7.859375 6.710937 14.324219 8.570312-16.433594 12.316406-38.175781 18.3125-65.507813 18.3125-27.34375 0-49.089843-6-65.527343-18.324219zm145.773437-14.503906c-1.613281.511719-3.402344.761719-5.464844.761719-6.585937 0-9.472656-2.46875-13.839843-6.210938-5.109375-4.375-11.46875-9.820312-23.601563-9.820312-12.128906 0-18.480468 5.445312-23.585937 9.820312-4.367188 3.742188-7.25 6.210938-13.828125 6.210938-6.570313 0-9.453125-2.46875-13.808594-6.207032-5.105469-4.378906-11.453125-9.824218-23.578125-9.824218-12.121094 0-18.46875 5.445312-23.570313 9.824218-4.359374 3.738282-7.238281 6.207032-13.808593 6.207032-1.992188 0-3.726563-.230469-5.296875-.710938-.03125-.007812-.058594-.011718-.089844-.019531-8.816406-11.324219-15.199219-25.648437-19.234375-43.082031.34375.292968.6875.585937 1.046875.894531 5.101562 4.375 11.453125 9.820313 23.574219 9.820313 1.78125 0 3.515625-.121094 5.160156-.359376 4.097656-.59375 6.9375-4.402343 6.339844-8.5-.59375-4.097656-4.402344-6.9375-8.5-6.34375-.925781.136719-1.9375.203126-3 .203126-6.570313 0-9.453125-2.46875-13.8125-6.207032-3.472657-2.980468-7.738281-6.632812-14.136719-8.527344-1.257812-10.09375-1.894531-21.023437-1.933594-32.800781 2.183594 1.089844 4.046875 2.679688 6.308594 4.617188 5.101562 4.375 11.453125 9.820312 23.574219 9.820312 12.121093 0 18.472656-5.445312 23.574219-9.824219 4.355468-3.738281 7.234374-6.207031 13.804687-6.207031s9.449219 2.472657 13.808594 6.210938c5.105469 4.375 11.453125 9.820312 23.574219 9.820312 12.128906 0 18.484374-5.445312 23.589843-9.820312 4.363281-3.738281 7.246094-6.210938 13.828125-6.210938 6.585938 0 9.472656 2.472657 13.84375 6.214844 5.105469 4.375 11.464844 9.816406 23.597656 9.816406 12.132813 0 18.492188-5.441406 23.601563-9.816406 2.269531-1.945313 4.140625-3.539063 6.335937-4.628906-.039062 11.777343-.675781 22.710937-1.933593 32.804687-6.410157 1.890625-10.683594 5.546875-14.160157 8.527344-4.371093 3.738281-7.253906 6.210938-13.84375 6.210938-6.585937 0-9.472656-2.472657-13.84375-6.210938-5.105468-4.375-11.464843-9.820312-23.597656-9.820312-12.128906 0-18.480468 5.445312-23.589844 9.820312-4.363281 3.742188-7.246093 6.210938-13.828124 6.210938-6.570313 0-9.449219-2.46875-13.808594-6.207032-5.101563-4.378906-11.453125-9.824218-23.574219-9.824218-3.042969 0-5.820313.335937-8.488281 1.03125-4.007813 1.039062-6.417969 5.132812-5.375 9.140624 1.042968 4.011719 5.136718 6.417969 9.144531 5.375 1.417969-.367187 2.960937-.546874 4.71875-.546874 6.570313 0 9.449219 2.46875 13.808594 6.210937 5.101562 4.375 11.453125 9.820313 23.574219 9.820313 12.128906 0 18.484374-5.445313 23.589843-9.820313 4.363281-3.738281 7.246094-6.210937 13.828125-6.210937 6.585938 0 9.472656 2.472656 13.839844 6.210937 5.109375 4.375 11.46875 9.820313 23.601562 9.820313 12.132813 0 18.488282-5.445313 23.597657-9.820313.371093-.316406.730469-.621094 1.082031-.917969-4.03125 17.429688-10.40625 31.753906-19.214844 43.074219zm0 0"/></svg>