<svg height="512pt" viewBox="-88 0 512 512" width="512pt" xmlns="http://www.w3.org/2000/svg"><path d="m273.101562 49.445312-49.214843 6.152344-50.898438-43.625c-3-2.574218-7.429687-2.574218-10.433593 0l-50.894532 43.625-49.214844-6.152344c-5.976562-.746093-10.140624 5.773438-6.949218 10.878907l29.777344 46.707031 82.5 76.824219 83.167968-76.824219 29.113282-46.714844c3.183593-5.105468-.984376-11.617187-6.953126-10.871094zm0 0" fill="#b4e6a0"/><path d="m190.015625 163.308594-52.089844-130.226563-26.265625 22.515625-49.214844-6.152344c-5.976562-.746093-10.140624 5.773438-6.949218 10.878907l29.777344 46.707031 58.882812 54.832031 41.769531 5.222657zm0 0" fill="#96d7a5"/><path d="m292.023438 260.007812c0 68.621094-55.628907 124.25-124.25 124.25-68.621094 0-124.25-55.628906-124.25-124.25 0-68.621093 55.628906-124.25 124.25-124.25 68.621093 0 124.25 55.628907 124.25 124.25zm0 0" fill="#e6646e"/><path d="m207.855469 456.402344c0-26.5625-17.945313-48.097656-40.082031-48.097656-22.136719 0-40.082032 21.535156-40.082032 48.097656s17.945313 48.097656 40.082032 48.097656c22.136718 0 40.082031-21.535156 40.082031-48.097656zm0 0" fill="#ff8087"/><path d="m146.523438 460.0625c-6.144532-18.929688-1.828126-38.28125 9.578124-49.667969-16.441406 5.996094-28.410156 24.320313-28.410156 46.007813 0 26.5625 17.945313 48.097656 40.082032 48.097656 8.949218 0 17.183593-3.5625 23.851562-9.511719-18.796875 1.445313-37.917969-12.769531-45.101562-34.925781zm0 0" fill="#e6646e"/><path d="m175.324219 416.425781c18.785156 18.78125 46.699219 21.320313 62.351562 5.667969 15.652344-15.652344 13.117188-43.566406-5.667969-62.351562-18.78125-18.78125-46.699218-21.320313-62.351562-5.667969-15.652344 15.652343-13.113281 43.570312 5.667969 62.351562zm0 0" fill="#ff8087"/><path d="m191.71875 400.390625c-15.484375-15.484375-19.726562-37.082031-12.039062-52.996094-3.644532 1.667969-7.097657 3.75-10.027344 6.679688-15.652344 15.652343-13.113282 43.566406 5.667968 62.351562 18.785157 18.78125 46.699219 21.320313 62.351563 5.667969 2.746094-2.75 4.734375-5.96875 6.371094-9.355469-15.847657 7.246094-37.054688 2.921875-52.324219-12.347656zm0 0" fill="#e6646e"/><path d="m223.421875 344.644531c18.785156 18.78125 46.699219 21.320313 62.351563 5.667969 15.652343-15.652344 13.113281-43.566406-5.667969-62.351562-18.78125-18.78125-46.699219-21.320313-62.351563-5.667969-15.652344 15.652343-13.113281 43.570312 5.667969 62.351562zm0 0" fill="#ff8087"/><path d="m239.816406 328.613281c-15.488281-15.484375-19.730468-37.085937-12.039062-52.996093-3.648438 1.667968-7.101563 3.75-10.027344 6.675781-15.652344 15.652343-13.117188 43.570312 5.667969 62.351562 18.78125 18.785157 46.699219 21.320313 62.351562 5.667969 2.746094-2.746094 4.730469-5.964844 6.371094-9.351562-15.847656 7.246093-37.054687 2.921874-52.324219-12.347657zm0 0" fill="#e6646e"/><path d="m255.851562 264.117188c18.785157 18.78125 46.699219 21.320312 62.351563 5.667968s13.113281-43.566406-5.667969-62.351562c-18.78125-18.78125-46.699218-21.320313-62.351562-5.667969s-13.113282 43.570313 5.667968 62.351563zm0 0" fill="#ff8087"/><path d="m272.246094 248.085938c-15.484375-15.484376-19.726563-37.085938-12.039063-52.996094-3.644531 1.667968-7.097656 3.75-10.027343 6.675781-15.652344 15.65625-13.113282 43.570313 5.667968 62.351563 18.785156 18.785156 46.699219 21.320312 62.351563 5.667968 2.746093-2.746094 4.734375-5.964844 6.371093-9.351562-15.847656 7.246094-37.054687 2.921875-52.324218-12.347656zm0 0" fill="#e6646e"/><path d="m173.75 241.863281c11.878906 23.757813 37.558594 34.992188 57.355469 25.089844 19.800781-9.898437 26.21875-37.183594 14.339843-60.941406-11.878906-23.757813-37.558593-34.992188-57.355468-25.09375-19.800782 9.902343-26.21875 37.183593-14.339844 60.945312zm0 0" fill="#ff8087"/><path d="m247.128906 249.441406c-19.800781 9.902344-45.480468-1.335937-57.359375-25.09375-7.335937-14.671875-7.652343-30.664062-2.191406-43.101562-19.375 10.125-25.613281 37.074218-13.839844 60.613281 11.878907 23.761719 37.558594 34.996094 57.359375 25.097656 7.570313-3.785156 13.144532-10.140625 16.527344-17.84375-.179688.09375-.316406.238281-.496094.328125zm0 0" fill="#e6646e"/><path d="m159.859375 416.785156c18.785156-18.78125 21.320313-46.695312 5.667969-62.347656s-43.566406-13.117188-62.351563 5.667969c-18.78125 18.78125-21.320312 46.695312-5.667969 62.347656 15.652344 15.652344 43.570313 13.117187 62.351563-5.667969zm0 0" fill="#ff8087"/><path d="m113.175781 406.425781c-13.261719-13.261719-13.332031-35.273437-1.667969-53.128906-2.90625 1.980469-5.71875 4.199219-8.332031 6.8125-18.78125 18.78125-21.320312 46.695313-5.667969 62.351563 15.652344 15.652343 43.566407 13.113281 62.351563-5.671876 2.871094-2.867187 5.226563-6 7.332031-9.222656-18 12.25-40.542968 12.335938-54.015625-1.140625zm0 0" fill="#e6646e"/><path d="m79.699219 264.117188c18.78125-18.785157 21.320312-46.699219 5.667969-62.351563-15.652344-15.652344-43.570313-13.117187-62.351563 5.667969-18.785156 18.78125-21.320313 46.699218-5.667969 62.351562s43.566406 13.113282 62.351563-5.667968zm0 0" fill="#ff8087"/><path d="m33.011719 253.753906c-13.257813-13.261718-13.328125-35.273437-1.664063-53.128906-2.90625 1.980469-5.722656 4.199219-8.332031 6.8125-18.785156 18.78125-21.320313 46.695312-5.667969 62.347656 15.652344 15.65625 43.566406 13.117188 62.347656-5.667968 2.871094-2.871094 5.230469-6 7.335938-9.222657-18 12.25-40.542969 12.335938-54.019531-1.140625zm0 0" fill="#e6646e"/><path d="m163.539062 241.851562c11.878907-23.757812 5.457032-51.042968-14.339843-60.941406-19.800781-9.902344-45.480469 1.335938-57.359375 25.09375-11.878906 23.757813-5.457032 51.042969 14.339844 60.941406 19.796874 9.898438 45.476562-1.335937 57.359374-25.09375zm0 0" fill="#ff8087"/><path d="m107.046875 217.703125c2.976563-19.675781 15.488281-35.054687 30.78125-40.140625-17.386719-1.988281-36.285156 9.050781-45.984375 28.449219-11.878906 23.757812-5.460938 51.042969 14.339844 60.941406 8.003906 4.003906 16.960937 4.5 25.585937 2.164063-17.457031-7.117188-28.203125-28.382813-24.722656-51.414063zm0 0" fill="#e6646e"/><path d="m207.855469 143.773438c0-26.5625-17.945313-48.097657-40.082031-48.097657-22.136719 0-40.082032 21.535157-40.082032 48.097657s17.945313 48.097656 40.082032 48.097656c22.136718 0 40.082031-21.535156 40.082031-48.097656zm0 0" fill="#ff8087"/><path d="m112.128906 176.304688c18.78125-18.78125 21.320313-46.699219 5.667969-62.351563s-43.570313-13.113281-62.351563 5.667969c-18.78125 18.785156-21.320312 46.699218-5.667968 62.351562s43.566406 13.113282 62.351562-5.667968zm0 0" fill="#ff8087"/><path d="m146.523438 147.433594c-6.144532-18.929688-1.828126-38.28125 9.578124-49.667969-16.441406 5.996094-28.410156 24.320313-28.410156 46.007813 0 26.5625 17.945313 48.097656 40.082032 48.097656 8.949218 0 17.183593-3.5625 23.851562-9.511719-18.796875 1.445313-37.917969-12.769531-45.101562-34.925781zm0 0" fill="#e6646e"/><path d="m65.445312 165.941406c-13.261718-13.257812-13.332031-35.273437-1.667968-53.128906-2.90625 1.980469-5.71875 4.199219-8.332032 6.8125-18.78125 18.78125-21.320312 46.695312-5.667968 62.351562 15.652344 15.652344 43.566406 13.113282 62.351562-5.667968 2.871094-2.871094 5.226563-6 7.332032-9.222656-18 12.25-40.542969 12.332031-54.015626-1.144532zm0 0" fill="#e6646e"/><path d="m111.761719 344.640625c18.785156-18.78125 21.320312-46.695313 5.667969-62.347656-15.652344-15.652344-43.566407-13.117188-62.347657 5.667969-18.785156 18.78125-21.320312 46.695312-5.667969 62.347656 15.652344 15.652344 43.566407 13.117187 62.347657-5.667969zm0 0" fill="#ff8087"/><path d="m65.078125 334.28125c-13.261719-13.261719-13.332031-35.273438-1.667969-53.128906-2.90625 1.980468-5.71875 4.199218-8.332031 6.8125-18.78125 18.78125-21.320313 46.695312-5.667969 62.347656 15.652344 15.65625 43.570313 13.117188 62.351563-5.667969 2.871093-2.871093 5.230469-6 7.335937-9.222656-18.003906 12.25-40.542968 12.335937-54.019531-1.140625zm0 0" fill="#e6646e"/><path d="m207.855469 312.113281c0-26.5625-17.945313-48.097656-40.082031-48.097656-22.136719 0-40.082032 21.535156-40.082032 48.097656s17.945313 48.097657 40.082032 48.097657c22.136718 0 40.082031-21.535157 40.082031-48.097657zm0 0" fill="#ff8087"/><path d="m146.523438 315.769531c-6.144532-18.929687-1.828126-38.277343 9.578124-49.667969-16.441406 6-28.410156 24.324219-28.410156 46.011719 0 26.5625 17.945313 48.097657 40.082032 48.097657 8.949218 0 17.183593-3.5625 23.851562-9.511719-18.796875 1.441406-37.917969-12.769531-45.101562-34.929688zm0 0" fill="#e6646e"/><path d="m223.421875 176.304688c18.78125 18.785156 46.699219 21.320312 62.351563 5.667968 15.652343-15.652344 13.113281-43.566406-5.667969-62.351562-18.785157-18.78125-46.699219-21.320313-62.351563-5.667969s-13.113281 43.570313 5.667969 62.351563zm0 0" fill="#ff8087"/><path d="m239.816406 160.273438c-15.488281-15.484376-19.730468-37.085938-12.039062-52.996094-3.648438 1.667968-7.101563 3.75-10.027344 6.675781-15.652344 15.65625-13.117188 43.570313 5.667969 62.351563 18.78125 18.785156 46.699219 21.324218 62.351562 5.667968 2.746094-2.746094 4.730469-5.964844 6.371094-9.351562-15.847656 7.246094-37.054687 2.921875-52.324219-12.347656zm0 0" fill="#e6646e"/><path d="m323.136719 275.089844c18.550781-18.550782 16.007812-51.28125-5.667969-72.957032-7.472656-7.472656-16.417969-12.855468-25.914062-15.730468 8.835937-9.132813 13.015624-21.695313 11.761718-35.472656-1.226562-13.523438-7.589844-26.652344-17.914062-36.976563-6.226563-6.226563-13.480469-11-21.222656-14.085937l22.230468-35.566407c3.023438-4.839843 2.996094-10.835937-.078125-15.648437-3.070312-4.808594-8.5-7.355469-14.160156-6.648438l-45.925781 5.738282-53.59375-45.9375c-2.808594-2.40625-6.953125-2.40625-9.761719 0l-53.59375 45.9375-45.921875-5.738282c-5.660156-.707031-11.089844 1.839844-14.164062 6.652344-3.070313 4.808594-3.101563 10.804688-.074219 15.644531l22.226562 35.566407c-7.738281 3.085937-14.992187 7.859374-21.222656 14.085937-10.320313 10.324219-16.683594 23.457031-17.914063 36.976563-1.25 13.777343 2.929688 26.339843 11.765626 35.472656-9.5 2.875-18.445313 8.257812-25.914063 15.730468-21.679687 21.675782-24.222656 54.40625-5.667969 72.957032 8.332032 8.332031 19.519532 12.40625 31.285156 12.40625.605469 0 1.214844-.023438 1.820313-.046875-7.585937 9.375-12.253906 20.457031-13.285156 31.816406-1.277344 14.035156 3.070312 26.8125 12.242187 35.984375 8.125 8.125 19.078125 12.464844 31.222656 12.464844 1.570313 0 3.15625-.074219 4.761719-.21875 2.898438-.265625 5.777344-.777344 8.613281-1.5-12.761718 20.566406-11.980468 45.917968 3.5 61.402344 7.8125 7.8125 18.390626 12.0625 29.804688 12.414062-1.421875 5.34375-2.183594 10.929688-2.183594 16.589844 0 30.65625 21.34375 55.597656 47.582032 55.597656 26.234374 0 47.582031-24.941406 47.582031-55.597656 0-5.671875-.765625-11.273438-2.195313-16.628906 11.222656-.328126 21.832032-4.394532 29.816406-12.378907 15.480469-15.480469 16.261719-40.832031 3.5-61.398437 2.835938.722656 5.714844 1.238281 8.613282 1.5 1.605468.144531 3.191406.21875 4.761718.21875 12.144532 0 23.097657-4.339844 31.222657-12.464844 9.171875-9.171875 13.519531-21.949219 12.242187-35.984375-1.03125-11.359375-5.699218-22.441406-13.285156-31.816406.605469.023437 1.214844.046875 1.820312.046875 11.761719 0 22.953126-4.074219 31.285157-12.40625zm-155.363281 77.621094c-17.964844 0-32.582032-18.214844-32.582032-40.597657 0-22.386719 14.617188-40.597656 32.582032-40.597656 17.964843 0 32.582031 18.210937 32.582031 40.597656s-14.617188 40.597657-32.582031 40.597657zm-14.890626-156.140626c9.507813 11.300782 9.90625 29.871094.875 45.519532-8.160156 14.128906-21.929687 22.457031-34.824218 22.457031-4.796875 0-9.472656-1.15625-13.691406-3.589844-15.558594-8.984375-19.109376-32.0625-7.917969-51.449219 9.40625-16.285156 26.398437-25.210937 41.335937-21.707031.042969.007813.085938.011719.128906.023438 4.199219 3.785156 8.957032 6.761719 14.09375 8.746093zm14.890626 59.945313c-2.03125 0-4.027344.160156-5.992188.449219 1.789062-2.304688 3.457031-4.761719 4.964844-7.375.355468-.613282.695312-1.230469 1.027344-1.851563.332031.621094.671874 1.238281 1.023437 1.851563 1.507813 2.609375 3.175781 5.066406 4.960937 7.371094-1.960937-.289063-3.957031-.445313-5.984374-.445313zm0-72.144531c-17.964844 0-32.582032-18.210938-32.582032-40.597656 0-22.382813 14.617188-40.597657 32.582032-40.597657 17.964843 0 32.582031 18.210938 32.582031 40.597657 0 22.386718-14.617188 40.597656-32.582031 40.597656zm120.605468-32.085938c.867188 9.523438-1.945312 18.050782-7.914062 24.019532s-14.503906 8.777343-24.019532 7.914062c-10.03125-.910156-19.878906-5.734375-27.722656-13.582031-7.847656-7.847657-12.671875-17.691407-13.582031-27.726563-.867187-9.519531 1.941406-18.050781 7.910156-24.015625 5.96875-5.96875 14.5-8.777343 24.019531-7.914062 10.035157.910156 19.878907 5.734375 27.726563 13.582031 7.847656 7.84375 12.667969 17.691406 13.582031 27.722656zm-15.082031-95.304687-24.445313 39.109375c-.140624-.015625-.28125-.035156-.421874-.046875-14.039063-1.277344-26.8125 3.074219-35.984376 12.242187-1.714843 1.71875-3.253906 3.5625-4.628906 5.515625-2.214844-4.027343-4.863281-7.699219-7.867187-10.929687l28.171875-40.246094zm-211.046875 0 48.480469 6.058593c2.097656.261719 4.207031-.375 5.808593-1.75l51.234376-43.910156 46.066406 39.488282-25.683594 36.691406c-6.179688-3.445313-13.089844-5.382813-20.382812-5.382813-7.292969 0-14.207032 1.933594-20.390626 5.378907l-10.613281-15.167969c-2.375-3.394531-7.054687-4.21875-10.445312-1.84375-3.394531 2.375-4.21875 7.050781-1.84375 10.445312l11.121093 15.886719c-3 3.230469-5.652343 6.898438-7.867187 10.925781-1.375-1.953125-2.917969-3.796875-4.632813-5.515625-9.175781-9.171875-21.949218-13.523437-35.984374-12.246094-.140626.015626-.28125.035157-.421876.050782zm-15.082031 95.304687c.910156-10.03125 5.734375-19.878906 13.582031-27.722656 7.84375-7.847656 17.691406-12.671875 27.722656-13.582031 1.132813-.105469 2.246094-.15625 3.347656-.15625 8.164063 0 15.414063 2.808593 20.671876 8.070312 5.96875 5.964844 8.78125 14.496094 7.914062 24.015625-.910156 10.035156-5.734375 19.878906-13.582031 27.726563-7.84375 7.847656-17.691407 12.671875-27.726563 13.582031-9.523437.867188-18.050781-1.945312-24.019531-7.914062-5.964844-5.96875-8.777344-14.496094-7.910156-24.019532zm-24.152344 112.199219c-12.703125-12.703125-10.160156-35.917969 5.667969-51.746094 7.847656-7.84375 17.691406-12.667969 27.726562-13.582031 9.523438-.867188 18.046875 1.945312 24.015625 7.914062.300781.296876.578125.617188.863281.929688-6.816406 15.25-7.066406 31.703125-1.554687 45.027344-1.496094 2.035156-3.164063 3.976562-4.976563 5.789062-15.828124 15.828125-39.039062 18.371094-51.742187 5.667969zm56.082031 88.074219c-9.523437.867187-18.050781-1.945313-24.019531-7.914063-5.964844-5.96875-8.777344-14.5-7.910156-24.019531.910156-10.03125 5.734375-19.878906 13.582031-27.726562 7.847656-7.84375 17.691406-12.667969 27.722656-13.582032 1.132813-.101562 2.246094-.152344 3.347656-.152344 8.164063 0 15.414063 2.808594 20.671876 8.066407 5.96875 5.96875 8.78125 14.5 7.914062 24.019531-.910156 10.035156-5.734375 19.878906-13.582031 27.726562-7.84375 7.84375-17.691407 12.667969-27.726563 13.582032zm88.675782 144.441406c-17.964844 0-32.582032-18.210938-32.582032-40.597656 0-6.558594 1.28125-12.972656 3.703125-18.738282 1.167969-.335937 2.332031-.703124 3.496094-1.121093 3.898437-1.398438 5.921875-5.695313 4.519531-9.59375-1.398437-3.898438-5.695312-5.921875-9.59375-4.519531-12.933594 4.644531-26.015625 2.484374-34.140625-5.640626-12.703125-12.703124-10.160156-35.917968 5.667969-51.742187 7.308594-7.3125 16.3125-11.96875 25.597656-13.320313 8.238282 9.472657 19.402344 15.46875 31.75 15.945313 5.230469 12.117187 1.949219 28.253906-8.617187 40.582031-2.695313 3.144532-2.328125 7.878906.816406 10.574219 1.414063 1.210937 3.148437 1.804687 4.875 1.804687 1.546875 0 3.085937-.480468 4.378906-1.414062.769531.855469 1.554688 1.695312 2.371094 2.507812 7.824219 7.828126 17.09375 13.140626 26.613281 15.886719 2.4375 5.777344 3.722656 12.210938 3.722656 18.789063.003907 22.386718-14.613281 40.597656-32.578124 40.597656zm64.59375-80.210938c-12.703126 12.703126-35.914063 10.160157-51.742188-5.667968-1.390625-1.390625-2.683594-2.859375-3.890625-4.386719 7.253906-13.410156 8.960937-28.375 4.644531-41.355469 7.523438-2.628906 14.269532-7.371094 19.730469-13.648437 9.203125 1.371093 18.386719 6.113281 25.589844 13.316406 15.828125 15.828125 18.371093 39.039063 5.667969 51.742187zm48.097656-72.144531c-5.96875 5.96875-14.503906 8.777344-24.019532 7.914063-10.03125-.914063-19.878906-5.734375-27.722656-13.582032-7.847656-7.847656-12.671875-17.691406-13.582031-27.726562-.867187-9.519531 1.941406-18.050781 7.910156-24.019531s14.5-8.777344 24.019531-7.914063c10.035157.914063 19.878907 5.738282 27.726563 13.582032 7.847656 7.847656 12.667969 17.695312 13.582031 27.726562.867188 9.519531-1.945312 18.050781-7.914062 24.019531zm-19.679688-85.828125c-1.804687-1.804687-3.445312-3.742187-4.9375-5.765625 1.015625-2.441406 1.855469-5.003906 2.484375-7.679687.945313-4.03125-1.558593-8.066406-5.59375-9.011719-4.03125-.945313-8.066406 1.558594-9.011719 5.589844-1.96875 8.394531-6.734374 15.144531-13.425781 19.007812-15.558593 8.980469-37.320312.515625-48.511719-18.867187-9.035156-15.648438-8.636718-34.21875.871094-45.519532 5.128906-1.980468 9.875-4.953124 14.066406-8.726562 14.800782-3.574219 32.09375 5.382812 41.492188 21.664062 1.035156 1.792969 1.964844 3.660157 2.765625 5.542969 1.210937 2.859375 3.988281 4.574219 6.910156 4.574219.972657 0 1.964844-.191406 2.921875-.597656 3.8125-1.613282 5.59375-6.015625 3.976563-9.832032-.167969-.398437-.347657-.796874-.527344-1.191406.28125-.3125.554687-.636718.851563-.933594 5.96875-5.96875 14.5-8.78125 24.019531-7.914062 10.03125.914062 19.878906 5.734375 27.726562 13.582031 15.828125 15.828125 18.371094 39.042969 5.667969 51.746094s-35.917969 10.160156-51.746094-5.667969zm0 0"/></svg>