<svg id="Capa_1" enable-background="new 0 0 512 512" height="512" viewBox="0 0 512 512" width="512" xmlns="http://www.w3.org/2000/svg"><g><g><path d="m110.885 315.364h198.037v126.561h-198.037z" fill="#ffb357"/><path d="m408.063 418.983-138.909-370.422h-82.338v179.359l23.087 23.087 79.656 212.416c9.527 25.405 33.639 41.08 59.261 41.077 7.381 0 14.892-1.301 22.211-4.045 32.723-12.273 49.303-48.748 37.032-81.472z" fill="#ffce71"/><path d="m269.154 48.561c-9.262-24.698-32.873-41.061-59.252-41.061s-49.99 16.363-59.252 41.061l-138.907 370.423c-12.271 32.723 4.309 69.198 37.032 81.47 32.721 12.268 69.2-4.308 81.472-37.033l79.656-212.416.001.002v-58.121c-.001-54.029 21.287-105.882 59.25-144.325z" fill="#ffb357"/></g><g fill="#ff8e9e"><ellipse cx="130.346" cy="226.92" rx="29.355" ry="23.377"/><ellipse cx="289.46" cy="226.92" rx="29.355" ry="23.377"/></g><g><path d="m399.792 176.657h-18.734c-7.76 0-14.051 6.291-14.051 14.051v206.522c0 4.335 1.722 8.492 4.787 11.557s7.222 4.787 11.557 4.787h14.147c9.021 0 16.344-7.319 16.344-16.344v-206.523c0-7.76-6.29-14.05-14.05-14.05z" fill="#c77464"/><g><path d="m484.193 237.719 19.892 19.892c-.003 6.681-.437 13.362-1.336 19.997-1.565 11.558-4.482 22.975-8.767 34.005-3.649 9.393-13.816 14.505-23.552 11.909-9.084-2.422-17.077-4.605-25.738-6.499v-35.883-36.543-6.88h39.501z" fill="#d4d4ff"/><path d="m444.692 244.599v-43.36c7.892-2.131 16.631-5.518 24.956-8.293 11.754-3.358 21.427 2.862 24.823 11.847 6.43 17.011 9.622 34.915 9.615 52.819-17.954-11.006-38.906-15.447-59.394-13.013z" fill="#9ea2e3"/></g><g><path d="m370.874 309.086h-3.76c-11.64 0-21.076-9.436-21.076-21.076v-30.443l-28.846-28.846c-6.639-6.639-1.937-17.989 7.451-17.989h42.363.107c28.476 0 51.968-2.577 77.578-9.493 8.381 13.196 14.152 27.485 16.311 42.868.617 4.398.955 8.881.955 13.46 0 8.792-.934 17.422-2.837 25.747-2.748 12.018-7.518 23.4-14.429 33.711-22.741-4.973-45.863-7.94-73.817-7.939z" fill="#ff8e9e"/><path d="m423.024 249.866c-26.773 10.059-47.405 31.912-55.91 59.22-11.64 0-21.076-9.436-21.076-21.076v-30.443l-28.846-28.846c-6.639-6.639-1.937-17.989 7.451-17.989h42.363.107c28.476 0 51.968-2.577 77.578-9.493 8.381 13.196 14.152 27.485 16.311 42.868-12.762-.742-25.7 1.146-37.978 5.759z" fill="#ea5b70"/></g></g><g><path d="m154.955 204.417v-12c0-4.142-3.358-7.5-7.5-7.5s-7.5 3.358-7.5 7.5v12c0 4.142 3.358 7.5 7.5 7.5s7.5-3.358 7.5-7.5z"/><path d="m279.852 204.417v-12c0-4.142-3.358-7.5-7.5-7.5s-7.5 3.358-7.5 7.5v12c0 4.142 3.358 7.5 7.5 7.5s7.5-3.358 7.5-7.5z"/><path d="m232.021 208.986c2.721-3.123 2.396-7.86-.727-10.582s-7.86-2.396-10.582.727c-5.727 6.571-15.899 6.564-21.62 0-2.721-3.123-7.459-3.448-10.582-.727s-3.448 7.458-.727 10.582c11.706 13.431 32.547 13.418 44.238 0z"/><path d="m179.902 307.864c-4.142 0-7.5 3.358-7.5 7.5s3.358 7.5 7.5 7.5h60c4.142 0 7.5-3.358 7.5-7.5s-3.358-7.5-7.5-7.5h-.668l-22.31-59.492c-1.098-2.927-3.896-4.867-7.022-4.867s-5.925 1.939-7.022 4.867l-22.309 59.492zm30.001-35.498 13.312 35.498h-26.625z"/><path d="m501.486 202.141c-5.242-13.865-20.401-20.87-34.211-16.31-10.309 3.438-24.004 9.131-45.933 13.058v-8.182c0-11.883-9.668-21.55-21.551-21.55h-18.734c-11.883 0-21.551 9.667-21.551 21.55v12.524h-24.341l-58.99-157.305c-10.3-27.469-36.934-45.926-66.273-45.926s-55.972 18.457-66.274 45.927l-36.267 96.713c-1.455 3.878.511 8.201 4.389 9.656 3.881 1.455 8.202-.513 9.656-4.389l36.267-96.712c8.119-21.65 29.108-36.195 52.229-36.195 23.122 0 44.111 14.545 52.229 36.194l57.301 152.803c-12.936 3.882-17.254 20.317-7.544 30.027l26.648 26.649v27.337c0 13.085 8.89 24.174 20.969 27.528v81.692c0 13.147 10.696 23.844 23.845 23.844h14.146c1.104 0 2.189-.082 3.253-.228 14.34 38.233-13.876 76.154-51.93 76.154-.003 0-.004 0-.006 0-23.118 0-44.109-14.552-52.231-36.21l-4.395-11.721c3.025-.966 5.216-3.798 5.216-7.143 0-4.142-3.358-7.5-7.5-7.5h-160c-4.142 0-7.5 3.358-7.5 7.5 0 3.345 2.191 6.177 5.216 7.143l-4.395 11.719c-10.798 28.796-43.01 43.439-71.812 32.646-.001 0-.003-.001-.004-.002-21.659-8.123-36.211-29.116-36.211-52.239 0-6.675 1.201-13.261 3.568-19.575l92.106-245.621c1.455-3.878-.511-8.201-4.389-9.656-3.88-1.455-8.202.511-9.656 4.389l-92.105 245.621c-3.002 8.004-4.721 16.362-4.721 24.842 0 38.549 31.975 70.793 70.917 70.793 28.669 0 55.709-17.548 66.353-45.931l6.236-16.629h132.796l6.237 16.631c10.304 27.482 36.937 45.943 66.274 45.943h.008c47.18 0 84.65-46.62 65.445-97.836 4.367-4.324 7.077-10.318 7.077-16.934v-26.339c0-4.142-3.357-7.5-7.5-7.5s-7.5 3.358-7.5 7.5v26.339c0 4.876-3.968 8.844-8.845 8.844h-14.146c-4.877 0-8.845-3.967-8.845-8.844v-80.594c11.771.163 22.098.729 31.836 1.723v22.532c0 4.142 3.357 7.5 7.5 7.5s7.5-3.358 7.5-7.5v-20.604c14.934 2.321 29.5 5.774 47.155 10.483 13.482 3.596 27.44-3.479 32.476-16.44 7.033-18.105 11.019-37.187 11.026-56.714.009-19.061-3.805-37.725-10.514-55.475zm-120.428-17.984h18.734c3.612 0 6.551 2.938 6.551 6.55v10.388c-9.302 1.093-19.835 1.842-31.836 2.063v-12.451c0-3.612 2.938-6.55 6.551-6.55zm-27.52 103.853v-30.443c0-1.989-.79-3.897-2.196-5.303l-28.846-28.846c-1.926-1.926-.578-5.186 2.148-5.186h42.47c33.166 0 56.794-3.919 74.043-8.335 19.218 33.547 16.033 71.617-.068 98.76-22.909-4.828-43.792-7.063-73.806-7.071-.084-.003-.166-.005-.238-.005-7.448-.039-13.507-6.126-13.507-13.571zm133.453 20.887c-2.264 5.827-8.553 8.998-14.628 7.378-5.612-1.497-10.918-2.868-16.033-4.124 16.349-30.644 18.929-70.509-.406-106.557 6.464-2.103 11.609-4.033 15.928-5.479 8.019-2.221 13.611 2.065 15.602 7.328 6.065 16.047 9.138 32.925 9.13 50.164-.006 17.666-3.234 34.922-9.593 51.29z"/></g></g></svg>