<svg id="Capa_1" enable-background="new 0 0 512 512" height="512" viewBox="0 0 512 512" width="512" xmlns="http://www.w3.org/2000/svg"><g><g><path d="m313.6 255.993-125.325-63.283c16.464 0 29.803-13.64 29.311-30.213-.473-15.95-13.978-28.438-29.934-28.438h-116.675v-126.566h115.809c85.97 0 156.862 68.98 157.37 154.953.207 35.013-11.186 67.401-30.556 93.547z" fill="#55dafe"/><path d="m344.159 348.602c0-34.653-11.361-66.697-30.559-92.609-27.86-37.604-78.526-63.283-125.324-63.283h-54.019v-58.651c-41.39-31.399-63.28-78.392-63.28-126.566-34.948 0-63.279 28.333-63.279 63.283v370.434c0 34.95 28.331 63.283 63.279 63.283h117.298c85.954 0 155.884-69.933 155.884-155.891zm-126.559 0c0 16.17-13.155 29.326-29.325 29.326h-54.019v-58.652h54.019c16.17-.001 29.325 13.155 29.325 29.326z" fill="#1cbbea"/></g><g fill="#ff8e9e"><ellipse cx="96.371" cy="266.913" rx="29.355" ry="23.377"/><ellipse cx="255.485" cy="266.913" rx="29.355" ry="23.377"/></g><g><path d="m340.377 417.081-49.584 73.594c-.066.098-.135.192-.209.284-6.921 8.601-17.215 13.534-28.244 13.534-19.98 0-36.234-16.255-36.234-36.234 0-11.03 5.123-21.463 13.724-28.383l73.689-49.653h26.858z" fill="#ce857a"/></g><path d="m421.273 251.737c15.903-15.903 41.686-15.903 57.589 0s15.903 41.686 0 57.589h-57.589z" fill="#fce3a0"/><g><path d="m495.536 326.001-1.942-1.942-43.528-43.528-1.941-1.942-4.882-4.882c-20.012-20.012-53.32-16.758-69.08 6.75l-66.109 98.606 43.504 43.504c26.588 10.33 57.794 5.215 79.801-15.357 14.522-13.575 31.791-23.872 50.65-30.158l1.601-.534c21.517-7.172 27.964-34.48 11.926-50.517z" fill="#ffce71"/><path d="m397.074 292.116c-5.052 18.44-14.818 35.247-28.338 48.767-22.084 22.084-27.807 54.329-17.178 81.685-9.591-3.727-18.582-9.458-26.322-17.206-29.845-29.815-29.854-78.18-.028-108.007 13.52-13.52 23.286-30.326 28.337-48.766v-.001c6.192-22.602 34.481-30.097 51.051-13.526l43.528 43.528c-16.569-16.571-44.858-9.076-51.05 13.526z" fill="#ffb357"/></g><g><path d="m7.5 348.847c4.142 0 7.5-3.358 7.5-7.5v-270.561c0-30.757 25.022-55.78 55.779-55.78h115.81c43.347 0 84.6 18.671 113.18 51.225 2.734 3.114 7.473 3.42 10.584.688 3.113-2.733 3.42-7.472.688-10.584-31.428-35.797-76.79-56.329-124.453-56.329h-115.809c-39.028.001-70.779 31.752-70.779 70.78v270.561c0 4.143 3.358 7.5 7.5 7.5z"/><path d="m126.559 319.272v58.649c0 4.142 3.358 7.5 7.5 7.5h54.019c20.305 0 36.825-16.52 36.825-36.825s-16.52-36.824-36.825-36.824h-54.019c-4.142 0-7.5 3.358-7.5 7.5zm15 7.5h46.519c12.034 0 21.825 9.79 21.825 21.824s-9.791 21.825-21.825 21.825h-46.519z"/><path d="m187.456 126.566h-53.397c-4.142 0-7.5 3.358-7.5 7.5v58.647c0 4.142 3.358 7.5 7.5 7.5h54.019c20.305 0 36.825-16.52 36.825-36.824-.001-20.317-17.109-36.823-37.447-36.823zm.622 58.647h-46.519v-43.647h45.897c12.129 0 22.447 9.708 22.447 21.823-.001 12.034-9.791 21.824-21.825 21.824z"/><path d="m105.782 232.41v12c0 4.142 3.358 7.5 7.5 7.5s7.5-3.358 7.5-7.5v-12c0-4.142-3.358-7.5-7.5-7.5s-7.5 3.358-7.5 7.5z"/><path d="m230.679 232.41v12c0 4.142 3.358 7.5 7.5 7.5s7.5-3.358 7.5-7.5v-12c0-4.142-3.358-7.5-7.5-7.5s-7.5 3.358-7.5 7.5z"/><path d="m197.849 248.98c2.721-3.123 2.396-7.86-.727-10.582-3.123-2.721-7.861-2.396-10.582.727-5.725 6.569-15.898 6.567-21.62 0-2.721-3.123-7.459-3.447-10.582-.727-3.123 2.722-3.448 7.459-.727 10.582 11.705 13.43 32.545 13.418 44.238 0z"/><path d="m500.84 320.698-11.784-11.784c13.729-18.777 12.216-45.371-4.891-62.479-17.369-17.37-44.031-18.379-62.479-4.89l-11.784-11.784c-20.637-20.637-55.871-11.326-63.588 16.848-2.736 9.986-6.983 19.478-12.528 28.153-3.3-6.486-7.025-12.763-11.17-18.767 36.555-52.884 37.873-121.005 6.785-174.204-2.09-3.576-6.685-4.78-10.259-2.691-3.577 2.09-4.782 6.683-2.692 10.26 27.494 47.052 26.97 106.843-3.493 154.093-2.059-2.391-4.208-4.742-6.446-7.03-2.896-2.96-7.645-3.013-10.606-.116-2.961 2.896-3.013 7.645-.116 10.606 11.823 12.084 21.061 26.201 27.799 41.241-4.495 4.994-28.281 25.301-28.227 63.29.018 12.814 2.896 25.177 8.307 36.375l-68.029 45.839c-.175.118-.346.244-.511.376-10.5 8.448-16.522 20.923-16.522 34.227 0 8.806 2.625 17.006 7.121 23.876-12.238 3.213-24.858 4.845-37.648 4.845h-117.3c-30.757-.002-55.779-25.025-55.779-55.782v-69.853c0-4.142-3.358-7.5-7.5-7.5s-7.5 3.358-7.5 7.5v69.853c0 39.028 31.751 70.78 70.779 70.78h117.298c16.91 0 33.556-2.583 49.532-7.676 7.04 4.845 15.558 7.689 24.73 7.689 13.312 0 25.736-5.953 34.087-16.333.003-.004.005-.008.008-.011.004-.005.008-.008.011-.013.197-.248.385-.503.566-.771l45.768-67.93c29.866 14.435 67.422 10.318 93.702-14.246 15.119-14.133 31.172-22.952 49.501-29.056 15.83-5.278 26.017-19.841 26.017-35.979.001-9.494-3.869-19.666-11.159-26.956zm-27.282-63.658c11.294 11.294 12.627 28.419 4.699 41.074l-45.772-45.773c12.648-7.922 29.777-6.598 41.073 4.699zm-188.888 229.3c-5.489 6.771-13.62 10.653-22.331 10.653-15.844 0-28.734-12.89-28.734-28.734 0-8.64 3.894-16.769 10.693-22.351l67.103-45.215c5.109 6.993 11.21 13.17 18.51 18.5zm211.687-133.479c-1.901 8.054-7.199 13.906-16.72 17.077-19.994 6.665-37.96 17.362-53.399 31.794-44.338 41.449-115.793 9.423-115.877-50.311-.047-33.164 20.881-48.489 27.84-57.242 10.475-12.752 18.204-27.636 22.58-43.609 4.674-17.064 26.013-22.706 38.514-10.205l90.938 90.938h.001c5.679 5.681 7.968 13.74 6.123 21.558z"/></g></g></svg>