<svg id="Capa_1" enable-background="new 0 0 512 512" height="512" viewBox="0 0 512 512" width="512" xmlns="http://www.w3.org/2000/svg"><g><g fill="#b9f0ff"><path d="m249.472 179.83 2.48-6.973 12.437 34.973c4.03 11.331 20.054 11.331 24.084 0l20.304-57.095-50.346-30-43.389 30 10.347 29.095c4.029 11.331 20.054 11.331 24.083 0z"/><path d="m91.737 363.124 42.182 118.616c4.414 12.412 21.968 12.412 26.382 0l42.182-118.616z"/><path d="m205.389 468.002c4.03 11.331 20.054 11.331 24.084 0l2.48-6.973 12.437 34.973c4.03 11.331 20.054 11.331 24.084 0l12.726-35.785 4.191 11.785c4.03 11.331 20.054 11.331 24.084 0l17.959-50.502h-138.582z"/><path d="m359.388 451.83c4.029 11.331 20.054 11.331 24.084 0l20.304-57.095h-64.692z"/><path d="m391.472 229.83 20.304-57.095h-64.692l20.304 57.095c4.03 11.331 20.055 11.331 24.084 0z"/></g><g><g fill="#7ce3ff"><path d="m263.985 141.866c23.171 0 44.922 8.946 61.247 25.192 26.282 26.155 68.794 26.153 95.046-.263 26.124-26.287 26.004-68.939-.265-95.079-42.676-42.471-98.789-64.216-156.033-64.216l-86.346 41v175.585c.855-20.809 9.298-41.304 25.097-57.026 16.328-16.246 38.082-25.193 61.254-25.193z"/><path d="m420.278 288.196c-26.244-26.407-68.755-26.424-95.044-.266-33.786 33.621-88.716 33.62-122.502 0-15.869-15.791-24.145-35.986-25.09-56.39v181.836l86.342 34.124c59 0 114.413-22.809 156.03-64.224 26.269-26.141 26.388-68.794.264-95.08z"/></g><path d="m177.634 224.085c.817-77.845 29.586-155.452 86.346-216.585-123.649 0-220.84 99.818-220.843 219.994 0 58.868 23.018 114.192 64.814 155.783 41.62 41.415 97.033 64.224 156.031 64.224-56.609-60.968-85.376-138.324-86.342-215.96-.114-2.485-.108-4.973-.006-7.456z" fill="#1cbbea"/></g><g><g fill="#ff8e9e"><ellipse cx="165.874" cy="104.687" rx="29.355" ry="23.377"/><ellipse cx="346.987" cy="104.687" rx="29.355" ry="23.377"/></g><g fill="#fff"><path d="m277.255 69.884-7.281-.004-7.28-4.378c-2.038-.26-4.13-.399-6.263-.399s-4.224.139-6.263.399l-7.28 4.378-7.281.004c-10.672 5.372-17.745 14.747-17.745 25.42 0 10.674 7.071 15.156 17.745 17.003l7.281-2.997 7.28 4.181c3.697.082 8.818.082 12.526 0l7.28-4.181 7.281 2.997c10.674-1.847 17.745-6.329 17.745-17.003 0-10.673-7.073-20.048-17.745-25.42z"/><path d="m182.982 48.5c-12.406 0-22.5 10.093-22.5 22.5v10.366c0 12.407 10.094 22.5 22.5 22.5s22.5-10.093 22.5-22.5v-10.366c0-12.407-10.094-22.5-22.5-22.5z"/><path d="m329.879 48.5c-12.406 0-22.5 10.093-22.5 22.5v10.366c0 12.407 10.094 22.5 22.5 22.5s22.5-10.093 22.5-22.5v-10.366c0-12.407-10.094-22.5-22.5-22.5z"/></g></g><g><path d="m425.597 282.909c-29.198-29.382-76.417-29.387-105.654-.295-19.228 19.134-40.564 23.15-55.078 23.15-38.382 0-79.809-29.788-79.809-77.913 0-24.171 10.699-45.667 28.06-60.148l5.206 14.64c4.927 13.852 21.816 17.495 32.167 8.784l6.833 19.216c6.395 17.98 31.828 17.964 38.217 0l16.065-45.176c2.918 2.194 5.708 4.591 8.338 7.207 7.236 7.201 15.693 12.728 24.892 16.415l15.489 43.554c6.396 17.986 31.83 17.96 38.216 0l18.901-53.152c36.65-27.615 39.929-80.882 7.864-112.791-4.073-4.053-8.342-7.995-12.688-11.716-3.146-2.694-7.882-2.326-10.575.82s-2.327 7.881.819 10.575c15.137 12.958 29.433 27.245 29.433 53.311 0 52.792-64.042 79.899-101.771 42.353-58.041-57.759-160.466-18.55-160.466 66.11 0 54.041 45.078 92.913 94.809 92.913 24.508 0 47.827-9.772 65.658-27.518 23.374-23.258 61.099-23.246 84.435.236 23.502 23.648 22.805 61.545-.235 84.478-40.202 40.005-93.736 62.038-150.74 62.038-117.639 0-213.345-95.33-213.345-212.506.002-117.17 95.707-212.494 213.342-212.494 41.327 0 81.321 11.681 115.657 33.779 3.479 2.24 8.123 1.236 10.365-2.248s1.235-8.124-2.248-10.366c-36.761-23.659-79.561-36.165-123.774-36.165-61.479 0-119.05 23.845-162.107 67.142-42.711 42.95-66.234 99.897-66.236 160.352 0 52.883 17.944 103.001 50.939 143.419.05.182.099.365.164.546l20.104 56.532c1.387 3.901 5.675 5.941 9.58 4.553 3.902-1.388 5.941-5.677 4.553-9.58l-9.128-25.669c17.145 15.29 36.255 27.736 56.751 37.104l-15.366 44.829c-2.051 5.769-10.198 5.766-12.249 0l-9.957-27.997c-1.388-3.903-5.679-5.94-9.58-4.553-3.902 1.388-5.941 5.677-4.553 9.58l9.957 27.997c6.757 19.006 33.71 19.135 40.542-.081l15.075-43.978c2.04.773 4.094 1.511 6.157 2.225l-.262.093 9.958 28.002c4.95 13.92 21.874 17.447 32.167 8.784l6.833 19.216c2.913 8.191 10.414 13.484 19.108 13.484s16.195-5.293 19.108-13.486l6.314-17.756c9.626 11.626 29.248 9.048 34.686-6.244l9.991-28.097c6.963-1.959 13.816-4.242 20.538-6.849l5.254 14.774c6.396 17.986 31.829 17.96 38.216 0l18.001-50.619c5.796-4.738 11.391-9.784 16.763-15.131 28.788-28.641 29.752-76.046.296-105.683zm-27.854-93.098-13.337 37.506c-1.673 4.705-8.279 4.699-9.95 0l-12.054-33.894c12.218 1.663 24.294.323 35.341-3.612zm-99.225-32.613-17.112 48.118c-1.672 4.703-8.279 4.702-9.951 0l-12.437-34.973c-2.36-6.639-11.777-6.626-14.133 0l-2.479 6.972c-1.672 4.703-8.279 4.702-9.951 0l-6.515-18.322c22.997-12.501 50.259-12.551 72.578-1.795zm3.888 312.29c-1.674 4.705-8.279 4.701-9.951 0-3.768-10.595-18.752-10.581-22.514 0l-8.535 24c-1.674 4.705-8.279 4.7-9.951 0l-9.957-28c-3.194-8.984-15.902-8.973-19.092 0-1.674 4.705-8.279 4.701-9.951 0l-6.328-17.794c34.307 8.85 69.836 9.47 102.999 2.898zm73.999-20.171c-1.673 4.705-8.279 4.699-9.95 0l-5.563-15.644c9.026-4.211 17.775-9.028 26.205-14.42z"/><path d="m175.482 71v10.366c0 4.142 3.358 7.5 7.5 7.5s7.5-3.358 7.5-7.5v-10.366c0-4.142-3.358-7.5-7.5-7.5s-7.5 3.358-7.5 7.5z"/><path d="m322.379 71v10.366c0 4.142 3.358 7.5 7.5 7.5 4.143 0 7.5-3.358 7.5-7.5v-10.366c0-4.142-3.357-7.5-7.5-7.5-4.142 0-7.5 3.358-7.5 7.5z"/><path d="m210.361 95.304c0 7.603 2.826 17.669 16.289 22.447 7.719 2.739 17.488 3.3 29.781 3.3s22.062-.561 29.781-3.3c13.463-4.777 16.289-14.844 16.289-22.447 0-20.789-20.667-37.702-46.069-37.702s-46.071 16.914-46.071 37.702zm15 0c0-6.669 3.957-12.675 10.245-16.832v26.167c-8.271-1.66-10.245-4.78-10.245-9.335zm24.806 10.666v-32.904c4.066-.61 8.356-.626 12.526 0v32.904c-3.997.109-8.523.109-12.526 0zm37.333-10.666c0 4.555-1.974 7.675-10.245 9.335v-26.167c6.287 4.157 10.245 10.163 10.245 16.832z"/><path d="m454.116 81.909c1.724 3.766 6.175 5.42 9.941 3.695 3.767-1.725 5.421-6.177 3.695-9.942-5.219-11.394-12.381-21.664-21.288-30.527-2.937-2.922-7.686-2.91-10.606.026-2.922 2.936-2.91 7.685.026 10.606 7.63 7.591 13.764 16.387 18.232 26.142z"/><path d="m469.874 341.412c-4.1-.559-7.885 2.313-8.444 6.418-2.797 20.527-12.242 38.488-26.262 52.089-6.851 6.742 2.934 18.276 11.296 9.938 16.387-16.306 26.701-37.054 29.829-60.002.559-4.103-2.314-7.884-6.419-8.443z"/><path d="m39.615 115.153c3.639 1.977 8.193.63 10.17-3.01 9.251-17.03 20.605-32.999 33.749-47.461 2.786-3.065 2.559-7.809-.506-10.594-3.066-2.787-7.81-2.559-10.594.506-13.951 15.351-26.005 32.305-35.829 50.389-1.977 3.64-.63 8.193 3.01 10.17z"/></g></g></svg>