<svg id="Capa_1" enable-background="new 0 0 512 512" height="512" viewBox="0 0 512 512" width="512" xmlns="http://www.w3.org/2000/svg"><g><g><path d="m393.468 57.115c-32.171-31.995-75.001-49.615-120.6-49.615l-78.121 24.833v126.258l18.546 18.546c.281-51.746 64.23-78.587 101.807-41.218 21.74 21.621 56.89 21.602 78.589-.217 21.605-21.728 21.506-56.982-.221-78.587z" fill="#70dcba"/><path d="m393.687 219.259c-21.704-21.824-56.851-21.834-78.587-.219-36.849 36.645-99.414 11.568-101.741-38.666l-18.612 18.613v103.321l85.044 45.044c41.32-1.657 82.15-18.151 113.677-49.504 21.778-21.658 21.88-56.809.219-78.589z" fill="#70dcba"/><path d="m213.312 178.872c-.002-.117-.005-.233-.007-.35-.006-.341-.02-.679-.02-1.022 0-.122.006-.241.007-.363-.862-60.02 18.911-120.361 59.576-169.637-95.588 0-170.761 77.213-170.75 170 .009 74.888 48.925 139.559 118.192 161.789l-2.646 15.994c-35.806 5.363-63.826 36.215-63.826 74.193 0 41.902 34.102 75.027 74.879 75.025 7.684 0 15.452-1.186 23.04-3.617 15.778-5.056 24.471-21.945 19.416-37.723-5.056-15.779-21.947-24.47-37.723-19.416-9.856 3.155-19.611-4.223-19.611-14.27 0-10.155 9.883-17.387 19.611-14.27 17.799 5.704 36.122-6.077 39.154-24.4l7.189-43.454c-42.616-47.555-64.828-107.004-66.432-166.978-.025-.497-.037-.999-.049-1.501z" fill="#18c08b"/></g><g fill="#ff8e9e"><ellipse cx="183.045" cy="103.68" rx="30.834" ry="24.555"/><ellipse cx="350.175" cy="103.68" rx="30.834" ry="24.555"/></g><g><path d="m161.338 429.475c0-33.164 24.692-61.872 57.437-66.775 3.218-.482 5.757-2.983 6.289-6.193l1.267-7.66c.53.115 1.06.186 1.584.186 3.307 0 6.335-2.205 7.237-5.55 1.078-4-1.291-8.115-5.29-9.193-70.902-19.104-120.236-82.948-120.244-156.79 0-89.603 73.234-162.5 163.25-162.5 22.6 0 44.415 4.454 64.839 13.237 3.807 1.638 8.217-.122 9.853-3.927 1.637-3.805-.121-8.216-3.927-9.853-22.307-9.593-46.116-14.457-70.765-14.457-99.468 0-178.25 80.147-178.25 177.501.009 76.32 48.465 141.999 117.256 166.83l-.75 4.536c-37.204 8.176-64.785 41.236-64.785 80.608 0 13.703 3.415 27.259 9.875 39.203 1.973 3.647 6.527 4.997 10.165 3.028 3.644-1.97 5-6.521 3.029-10.165-5.28-9.759-8.07-20.847-8.07-32.066z"/><path d="m231.161 422.347c21.927 7.027 44.992-7.05 48.841-30.318l6.211-37.545c42.522-3.152 82.288-21.23 112.543-51.319 24.792-24.652 24.795-64.511.249-89.195-24.653-24.786-64.508-24.796-89.193-.249-32.244 32.065-89.006 10.307-89.006-35.199 0-47.406 55.62-70.487 89.005-37.286 24.688 24.553 64.549 24.537 89.195-.247 24.502-24.641 24.485-64.6-.25-89.194-8.45-8.404-17.733-15.966-27.591-22.476-3.456-2.282-8.109-1.332-10.391 2.125-2.283 3.457-1.332 8.109 2.125 10.392 9.027 5.962 17.533 12.892 25.28 20.596 18.852 18.746 18.85 49.216.189 67.98-18.834 18.94-49.205 18.863-67.981.188-42.46-42.227-114.582-13.373-114.582 47.921 0 58.524 72.772 87.413 114.583 45.835 18.821-18.716 49.189-18.704 67.98.19 18.717 18.82 18.704 49.193-.19 67.981-31.087 30.916-73.102 47.949-117.174 47.446-.031 0-.062 0-.092 0-4.1 0-7.448 3.299-7.498 7.41-.05 4.142 3.267 7.54 7.409 7.59.035 0 .069 0 .104.001l-5.725 34.606c-2.208 13.346-15.711 22.889-29.467 18.481-14.595-4.671-29.398 6.22-29.398 21.413 0 15.052 14.631 26.142 29.4 21.412 14.601-4.678 29.373 6.241 29.373 21.435 0 9.814-6.286 18.422-15.643 21.419-6.748 2.162-13.73 3.259-20.751 3.259-15.227 0-30.185-5.278-42.118-14.862-3.231-2.595-7.951-2.079-10.544 1.151-2.594 3.229-2.078 7.95 1.151 10.544 14.588 11.716 32.882 18.168 51.512 18.168 8.577 0 17.099-1.338 25.328-3.975 15.59-4.996 26.065-19.344 26.065-35.704 0-25.386-24.685-43.493-48.949-35.72-5.061 1.623-9.824-2.177-9.824-7.126.001-5.186 5.041-8.658 9.824-7.128z"/><path d="m193.515 67.741v12c0 4.142 3.358 7.5 7.5 7.5s7.5-3.358 7.5-7.5v-12c0-4.142-3.358-7.5-7.5-7.5s-7.5 3.358-7.5 7.5z"/><path d="m278.249 74.74c-6.164 7.074-17.119 7.068-23.279 0-2.721-3.123-7.459-3.447-10.582-.727-3.123 2.722-3.448 7.459-.727 10.582 12.145 13.934 33.766 13.921 45.896 0 2.721-3.123 2.396-7.86-.727-10.582-3.123-2.721-7.859-2.396-10.581.727z"/><path d="m313.116 79.406c0 4.142 3.358 7.5 7.5 7.5s7.5-3.358 7.5-7.5c0-3.532 2.874-6.406 6.406-6.406s6.405 2.874 6.405 6.406c0 4.142 3.357 7.5 7.5 7.5s7.5-3.358 7.5-7.5c0-11.803-9.603-21.406-21.405-21.406-11.803 0-21.406 9.603-21.406 21.406z"/></g></g></svg>