<svg id="Capa_1" enable-background="new 0 0 512 512" height="512" viewBox="0 0 512 512" width="512" xmlns="http://www.w3.org/2000/svg"><g><path d="m404.55 247.574c-9.771-9.771-25.613-9.771-35.383 0l-111.342 111.342 35.384 35.384 111.343-111.343c9.769-9.77 9.769-25.612-.002-35.383z" fill="#4c5699"/><g><g><path d="m287.933 192.718h-124.539v126.566h124.539c34.95 0 63.279-28.333 63.279-63.283s-28.329-63.283-63.279-63.283z" fill="#ffb5c0"/><path d="m226.674 134.066h121.926c34.95 0 63.279-28.333 63.279-63.283s-28.33-63.283-63.28-63.283h-63.561l-78.365 29.006v70.079z" fill="#ffb5c0"/><path d="m163.394 7.5c-34.948 0-63.279 28.333-63.279 63.283v370.434c0 34.95 28.331 63.283 63.279 63.283l.007-.014c35.055-.004 63.271-28.441 63.271-63.279v-63.27l.001-.003v-243.868c0-46.423 19.058-92.217 58.365-126.566z" fill="#ff8e9e"/></g><g><g><g><ellipse cx="147.44" cy="270.897" fill="#ffdbe0" rx="29.355" ry="23.377"/></g><g><ellipse cx="296.553" cy="270.897" fill="#ffdbe0" rx="29.355" ry="23.377"/></g></g></g></g><g><g><path d="m192.531 433.678 15.73-40.762c4.21-10.91 13.361-19.278 24.703-22.129 8.971-2.255 17.427-6.286 24.859-11.871l35.384 35.384c-5.585 7.432-9.616 15.888-11.871 24.859-2.851 11.342-11.219 20.493-22.129 24.703l-40.762 15.73c-3.591 1.386-7.662.524-10.383-2.197-.487-.487-.94-.94-1.363-1.363v-10.607h-10.607c-.409-.409-.861-.861-1.363-1.363-2.722-2.722-3.583-6.792-2.198-10.384z" fill="#ffce71"/></g><path d="m249.121 350.213c4.807-4.807 12.599-4.807 17.407 0 5.237 5.238 30.156 30.157 35.383 35.383 4.807 4.807 4.807 12.601 0 17.406-4.805 4.807-12.598 4.808-17.407 0-5.238-5.238-30.157-30.157-35.383-35.383-4.806-4.806-4.806-12.599 0-17.406z" fill="#ffb357"/></g><g><path d="m100.115 85.827c4.142 0 7.5-3.357 7.5-7.5v-7.544c0-30.759 25.022-55.783 55.779-55.783h185.205c30.757 0 55.779 25.024 55.779 55.783s-25.022 55.783-55.779 55.783h-121.906c-.006 0-.013-.001-.019-.001s-.013.001-.019.001h-6.981c-4.142 0-7.5 3.357-7.5 7.5 0 3.974 3.092 7.216 7 7.475v51.177c0 4.143 3.358 7.5 7.5 7.5h61.26c13.006 0 25.664 4.571 35.643 12.872 1.401 1.166 3.102 1.734 4.792 1.734 2.151 0 4.287-.921 5.77-2.704 2.649-3.185 2.215-7.913-.97-10.562-12.667-10.538-28.732-16.341-45.235-16.341h-53.76v-43.651h114.426c39.028 0 70.779-31.753 70.779-70.783s-31.751-70.783-70.78-70.783h-185.205c-39.028 0-70.779 31.753-70.779 70.783v7.544c0 4.143 3.358 7.5 7.5 7.5z"/><path d="m152.048 236.395v12c0 4.143 3.358 7.5 7.5 7.5s7.5-3.357 7.5-7.5v-12c0-4.143-3.358-7.5-7.5-7.5s-7.5 3.357-7.5 7.5z"/><path d="m276.945 236.395v12c0 4.143 3.358 7.5 7.5 7.5s7.5-3.357 7.5-7.5v-12c0-4.143-3.358-7.5-7.5-7.5s-7.5 3.357-7.5 7.5z"/><path d="m232.807 243.109c-5.724 6.569-15.901 6.564-21.62 0-2.721-3.122-7.459-3.447-10.582-.727-3.123 2.722-3.448 7.459-.727 10.582 11.703 13.429 32.545 13.416 44.237 0 2.721-3.123 2.396-7.86-.727-10.582-3.122-2.721-7.859-2.396-10.581.727z"/><path d="m363.863 242.271-5.624 5.624c-.771-6.787-2.499-13.388-5.198-19.701-1.629-3.809-6.037-5.576-9.845-3.948-3.809 1.629-5.576 6.036-3.948 9.845 2.963 6.929 4.465 14.301 4.465 21.911 0 30.759-25.022 55.783-55.779 55.783h-61.26c-4.142 0-7.5 3.357-7.5 7.5v49.291c-8.025 4.951-14.386 12.512-17.909 21.64l-15.729 40.759c-2.371 6.135-1.119 13.381 3.892 18.393l13.332 13.332c2.689 2.687 6.114 4.358 9.816 4.865-9.559 17.94-28.233 29.433-49.18 29.435-30.758 0-55.782-25.022-55.782-55.778v-332.895c0-4.143-3.358-7.5-7.5-7.5s-7.5 3.357-7.5 7.5v332.895c0 39.027 31.752 70.778 70.783 70.778 30.92-.004 57.948-19.733 67.387-49.13l31.123-12.011c13.31-5.136 23.292-16.303 26.703-29.872.599-2.382 1.359-4.729 2.24-7.031 6.331.747 12.189-1.474 16.364-5.649 5.918-5.918 7.255-14.548 4.266-21.672l98.373-98.374c12.709-12.707 12.709-33.282.001-45.99-12.711-12.71-33.278-12.71-45.991 0zm-84.513 84.513-13.86 13.86c-7.068-2.966-15.71-1.695-21.671 4.264v.001c-4.174 4.173-6.395 10.032-5.648 16.365-1.318.504-2.648.976-3.996 1.389v-35.88h45.175zm-5.287 90.547c-2.224 8.848-8.786 16.15-17.555 19.534l-40.763 15.73c-1.623.628-2.523-.648-3.744-1.869l17.348-17.348.002.002c7.289.985 13.899-4.74 13.899-12.198 0-6.787-5.521-12.309-12.309-12.309-7.477 0-13.184 6.635-12.198 13.896l-17.348 17.351c-1.239-1.239-2.498-2.109-1.866-3.742l15.73-40.763c3.384-8.769 10.687-15.33 19.535-17.555 3.62-.91 7.185-2.092 10.642-3.52l32.152 32.152c-1.429 3.46-2.616 7.02-3.525 10.639zm22.545-19.631c-1.88 1.881-4.918 1.88-6.8-.001l-35.383-35.384c-1.878-1.878-1.88-4.919-.001-6.798 0-.001 0-.001.001-.001 1.877-1.878 4.917-1.882 6.798-.002l.002.002.005.005 35.374 35.374.005.005c.001 0 .001.001.002.002 1.875 1.879 1.877 4.917-.003 6.798zm102.639-120.047-97.335 97.336-24.777-24.777 24.832-24.831c27.789-5.613 49.729-27.553 55.343-55.343l17.16-17.161c6.848-6.846 17.929-6.85 24.778 0 6.845 6.846 6.845 17.932-.001 24.776z"/></g></g></svg>