<svg id="Capa_1" enable-background="new 0 0 512 512" height="512" viewBox="0 0 512 512" width="512" xmlns="http://www.w3.org/2000/svg"><g><g><path d="m255.998 134.065h55.322c34.952 0 63.283-28.333 63.283-63.283s-28.331-63.283-63.282-63.283h-55.322l-155.89 71.723v214.446h39.919c-25.66-78.816 33.523-159.603 115.97-159.603z" fill="#70dcba"/><path d="m441.217 192.718h-106.968c-34.952 0-63.283 28.333-63.283 63.283s28.331 63.283 63.283 63.283h26.034c-5.022 8.24-11.064 15.941-18.061 22.938-23.032 23.03-53.654 35.712-86.224 35.712-47.49 0-88.72-27.292-108.843-67.013v160.479h220.089l64.472-39.683c.001-.001.003-.002.004-.004 46.932-46.941 72.779-109.343 72.779-175.713.001-34.949-28.33-63.282-63.282-63.282z" fill="#70dcba"/><path d="m147.155 310.922c-2.799-5.524-5.186-11.289-7.128-17.254-40.527-110.471 9.065-234.571 115.971-286.169-137.023 0-248.498 111.478-248.498 248.502 0 137.023 111.475 248.5 248.499 248.5 66.377 0 128.779-25.846 175.719-72.783-112.237 39.165-235.242-13.722-284.563-120.796z" fill="#30cd9c"/></g><g fill="#4c5699"><path d="m207.705 407.555h-24.568c-10.322 0-18.015 9.518-15.851 19.61l1.361 6.346c2.287 10.665 11.713 18.284 22.621 18.284h8.307c10.908 0 20.334-7.619 22.621-18.284l1.361-6.346c2.162-10.092-5.531-19.61-15.852-19.61z"/><path d="m331.532 407.555h-24.568c-10.322 0-18.015 9.518-15.851 19.61l1.361 6.346c2.287 10.665 11.713 18.284 22.621 18.284h8.307c10.908 0 20.334-7.619 22.621-18.284l1.361-6.346c2.163-10.092-5.53-19.61-15.852-19.61z"/></g><g><path d="m422.783 429.991c-45.073 43.212-104.305 67.01-166.785 67.01-132.887 0-240.998-108.112-240.998-241 0-65.993 26.259-127.625 73.941-173.543 2.983-2.873 3.073-7.621.2-10.604-2.873-2.984-7.621-3.074-10.605-.2-48.573 46.776-78.536 112.159-78.536 184.347 0 141.159 114.84 255.999 255.999 255.999 66.368 0 129.287-25.278 177.166-71.181 2.99-2.867 3.09-7.614.224-10.604-2.868-2.989-7.615-3.09-10.606-.224z"/><path d="m441.217 185.218h-106.968c-39.03 0-70.783 31.753-70.783 70.783 0 39.029 31.753 70.782 70.783 70.782h11.685c-21.54 27.26-54.051 43.651-89.936 43.651-64.153 0-114.478-52.508-114.478-114.765 0-62.917 51.354-114.104 114.478-114.104h55.322c39.03 0 70.783-31.753 70.783-70.783s-31.752-70.782-70.782-70.782h-55.322c-56.031 0-109.277 17.844-153.981 51.604-3.305 2.497-3.961 7.2-1.465 10.505 2.497 3.307 7.199 3.963 10.505 1.466 42.08-31.779 92.2-48.576 144.941-48.576h55.322c30.758 0 55.783 25.024 55.783 55.783s-25.024 55.783-55.783 55.783h-55.322c-73.549 0-129.478 60.419-129.478 129.104 0 69.887 56.383 129.765 129.478 129.765 44.538 0 84.663-22.449 108.408-58.651h15.877c4.143 0 7.5-3.357 7.5-7.5s-3.357-7.5-7.5-7.5h-46.034c-30.759 0-55.783-25.023-55.783-55.782s25.024-55.783 55.783-55.783h106.968c30.759 0 55.783 25.024 55.783 55.783 0 55.564-19.346 109.776-54.475 152.647-2.625 3.204-2.155 7.93 1.048 10.555 3.199 2.623 7.926 2.159 10.556-1.047 37.317-45.546 57.87-103.134 57.87-162.155 0-39.03-31.753-70.783-70.783-70.783z"/><path d="m266.81 439.943c-5.724 6.57-15.9 6.566-21.62 0-2.721-3.122-7.459-3.447-10.582-.727-3.123 2.722-3.448 7.459-.727 10.582 11.706 13.431 32.544 13.416 44.237 0 2.721-3.123 2.396-7.86-.727-10.582-3.122-2.72-7.86-2.396-10.581.727z"/><path d="m283.78 428.737 1.36 6.346c3.009 14.029 15.606 24.212 29.955 24.212h8.307c14.348 0 26.946-10.183 29.955-24.212l1.36-6.346c1.508-7.035-.22-14.28-4.744-19.876s-11.245-8.806-18.44-8.806h-24.568c-5.39 0-10.513 1.801-14.646 5.057-23.709-3.008-46.206-3.015-69.967 0-4.133-3.255-9.256-5.057-14.646-5.057h-24.568c-7.196 0-13.917 3.21-18.441 8.807-4.523 5.596-6.252 12.841-4.743 19.875l1.36 6.346c3.009 14.029 15.606 24.212 29.954 24.212h8.307c14.348 0 26.946-10.183 29.955-24.212l1.36-6.346c.684-3.188.696-6.418.091-9.519 17.576-1.814 35.106-1.817 52.71 0-.607 3.101-.595 6.331.089 9.519zm23.184-13.681h24.568c2.644 0 5.113 1.179 6.775 3.235s2.296 4.717 1.742 7.302l-1.36 6.346c-1.535 7.16-7.965 12.356-15.288 12.356h-8.307c-7.323 0-13.752-5.196-15.288-12.356l-1.36-6.346c-1.155-5.389 2.961-10.537 8.518-10.537zm-90.742 10.537-1.36 6.346c-1.535 7.16-7.965 12.356-15.288 12.356h-8.307c-7.323 0-13.752-5.196-15.287-12.356l-1.361-6.347c-.554-2.584.081-5.245 1.743-7.301s4.131-3.235 6.775-3.235h24.568c5.542 0 9.674 5.138 8.517 10.537z"/></g></g></svg>