<svg id="Capa_1" enable-background="new 0 0 512 512" height="512" viewBox="0 0 512 512" width="512" xmlns="http://www.w3.org/2000/svg"><g><g><g><path d="m411.673 7.5c-34.951 0-63.283 28.333-63.283 63.283v121.935h-183.674v126.566h183.675v121.934c0 34.95 28.331 63.283 63.283 63.283 34.951 0 63.283-28.333 63.283-63.283v-370.435c-.001-34.95-28.332-63.283-63.284-63.283z" fill="#e8b5b1"/><path d="m164.716 504.5c-34.951 0-63.283-28.333-63.283-63.283v-340.434c0-34.95 28.331-63.283 63.283-63.283s63.283 28.333 63.283 63.283v340.434c0 34.95-28.332 63.283-63.283 63.283z" fill="#d6948c"/></g><g fill="#ffdbe0"><path d="m208.218 251.481c-16.308-.036-29.552 10.463-29.58 23.45s13.169 23.544 29.477 23.58 29.552-10.463 29.58-23.451c.029-12.986-13.169-23.544-29.477-23.579z"/><ellipse cx="368.223" cy="275.346" rx="23.515" ry="29.529" transform="matrix(.002 -1 1 .002 92.072 642.966)"/></g></g><g><g><g><path d="m247.172 52.853c-9.411-2.3-19.024-3.933-28.742-4.876-25.493-2.474-51.748-.271-77.275 6.561l-10.394 18.003 19.727 73.622 32.73 8.363c29.651-10.086 56.581-26.244 78.536-47.25 20.235-19.361 12.623-47.774-14.582-54.423z" fill="#676fb2"/></g><path d="m141.155 54.538c-.017.004-.034.008-.05.013-.005.001-.007.002-.011.003-25.482 6.828-49.303 18.048-70.141 32.94-7.943 5.676-15.449 11.891-22.453 18.593-20.235 19.361-12.623 47.774 14.583 54.423 34.117 8.338 70.795 7.751 106.067-1.698.005-.001.007-.002.011-.003 4.748-1.272 9.433-2.71 14.058-4.283-11.627-6.899-20.113-18.066-23.616-31.142z" fill="#4c5699"/></g><g><g fill="#676fb2"><path d="m218.43 47.977c-4.142-7.526-7.613-13.833-8.606-15.636-17.276-31.389-63.729-34.053-75.186-2.125v.001c0-.001 0-.001 0-.001l-10.394 18.003 12.732 47.516 87.937-23.563z"/><path d=""/></g><g><path d="m132.752 56.99c-2.381-8.885-1.717-18.311 1.886-26.775-25.859-21.899-64.784 3.607-64.051 39.433.042 2.064.19 9.26.365 17.844l6.483 24.194 65.285-17.493z" fill="#4c5699"/></g></g><g><path d="m218.43 47.977-7.002 6.699c-17.603 16.842-37.699 28.569-69.763 35.578l-3.957 8.213 4.992 18.63 16.903 6.287c31.552-8.086 56.275-22.589 76.989-42.408-1.937-3.518-11.043-20.063-18.162-32.999z" fill="#d4d4ff"/><path d="m144.06 99.194-2.395-8.94c-32.709 7.151-51.293 1.985-70.713-2.761.302 14.759.689 33.633.771 37.659 27.849 6.807 56.51 7.006 87.879-1.768-7.568-6.252-13.001-14.707-15.542-24.19z" fill="#9ea2e3"/></g></g><g><path d="m411.674 0c-39.03 0-70.783 31.753-70.783 70.783v114.435h-105.392c0-48.361.232-45.391-.582-47.333 11.503-7.403 22.24-15.832 32.022-25.19 24.519-23.462 14.937-59.082-17.988-67.129-8.462-2.066-17.135-3.619-25.836-4.629-3.682-6.691-6.467-11.751-6.72-12.211 0 0 0-.001-.001-.001-10.314-18.74-31.22-30.216-52.02-28.568-14.035 1.115-25.718 8.061-32.682 19.069-11.532-6.045-25.12-6.214-37.834-.162-18.842 8.97-31.207 29.359-30.769 50.737l.285 13.938c-7.04 5.233-13.775 10.915-20.06 16.928-24.519 23.46-14.937 59.082 17.987 67.128 10.679 2.61 21.594 4.364 32.632 5.29v22.995c0 4.143 3.358 7.5 7.5 7.5s7.5-3.357 7.5-7.5v-22.267c38.065.57 76.79-8.605 111.566-27.429v53.334c0 4.143 3.358 7.5 7.5 7.5 3.973 0 7.216-3.092 7.475-7h105.442c.258 3.908 3.501 7 7.475 7 4.143 0 7.5-3.357 7.5-7.5v-128.934c0-30.759 25.024-55.783 55.783-55.783s55.782 25.024 55.782 55.783v308.256c0 4.143 3.357 7.5 7.5 7.5s7.5-3.357 7.5-7.5v-308.256c0-39.031-31.753-70.784-70.782-70.784zm-184.48 79.457c-22.32 19.997-43.794 29.465-69.612 36.704-26.73 7.475-52.41 8.451-78.48 2.977l-.452-22.064c21.198 4.938 39.135 6.079 64.616.507 31.017-6.781 52.941-17.98 73.297-37.44 4.012 7.289 8.033 14.596 10.631 19.316zm-126.889-46.849c10.394-4.949 21.142-3.734 29.486 3.331 3.991 3.379 10.139 1.732 11.906-3.19 3.696-10.299 12.395-16.728 23.866-17.64 12.504-.979 29.006 5.067 37.691 20.848.247.449 2.833 5.148 6.307 11.459-1.206.31-2.353.919-3.317 1.842-18.233 17.445-38.026 27.516-66.18 33.67-27.915 6.102-44.75 2.772-61.73-1.348l-.247-12.083c-.37-18.002 10.893-31.499 22.218-36.889zm-35.443 120.617c-21.478-5.25-27.151-26.436-11.178-41.72 3.235-3.095 6.605-6.09 10.074-8.979l.359 17.538c.135 6.63 4.757 12.228 11.239 13.613 55.627 11.894 119.177-4.535 162.351-43.501 4.921-4.44 6.125-11.599 2.928-17.407-2.069-3.76-5.167-9.388-8.462-15.375 4.447.767 8.864 1.68 13.218 2.744 21.479 5.252 27.152 26.436 11.178 41.72-49.672 47.524-124.922 67.686-191.707 51.367z"/><path d="m474.956 401.54c-4.143 0-7.5 3.357-7.5 7.5v32.177c0 30.759-25.023 55.783-55.782 55.783s-55.783-25.024-55.783-55.783v-128.933c0-4.143-3.357-7.5-7.5-7.5-3.974 0-7.216 3.092-7.475 7h-105.442c-.259-3.908-3.501-7-7.475-7-4.142 0-7.5 3.357-7.5 7.5v128.934c0 30.759-25.024 55.783-55.783 55.783s-55.783-25.024-55.783-55.783v-215.139c0-4.143-3.358-7.5-7.5-7.5s-7.5 3.357-7.5 7.5v215.138c0 39.03 31.753 70.783 70.783 70.783s70.783-31.753 70.783-70.783v-114.433h105.392v114.434c0 39.03 31.753 70.783 70.783 70.783 39.029 0 70.782-31.753 70.782-70.783v-32.178c0-4.142-3.357-7.5-7.5-7.5z"/><path d="m233.16 257.481v-12c0-4.143-3.358-7.5-7.5-7.5s-7.5 3.357-7.5 7.5v12c0 4.143 3.358 7.5 7.5 7.5s7.5-3.358 7.5-7.5z"/><path d="m350.557 264.981c4.143 0 7.5-3.357 7.5-7.5v-12c0-4.143-3.357-7.5-7.5-7.5s-7.5 3.357-7.5 7.5v12c0 4.142 3.357 7.5 7.5 7.5z"/><path d="m288.29 281.14c14.123 12.386 36.411 2.337 36.411-16.505 0-4.143-3.358-7.5-7.5-7.5s-7.5 3.357-7.5 7.5c0 3.836-3.12 6.956-6.956 6.956s-6.956-3.12-6.956-6.956c0-4.143-3.358-7.5-7.5-7.5s-7.5 3.357-7.5 7.5c0 3.836-3.12 6.956-6.956 6.956s-6.956-3.12-6.956-6.956c0-4.143-3.358-7.5-7.5-7.5s-7.5 3.357-7.5 7.5c.002 18.831 22.28 28.9 36.413 16.505z"/></g></g></svg>