<svg id="Capa_1" enable-background="new 0 0 512 512" height="512" viewBox="0 0 512 512" width="512" xmlns="http://www.w3.org/2000/svg"><g><g><path d="m311.305 377.928h-28.382v-243.856h28.382c34.777 0 63.766-27.664 64.217-62.439.459-35.333-28.045-64.12-63.274-64.12h-40.013c-51.136 0-92.589 41.454-92.589 92.589v311.782.013c0 51.136 41.454 92.589 92.589 92.589h40.013c35.229 0 63.733-28.787 63.274-64.121-.451-34.773-29.44-62.437-64.217-62.437z" fill="#ffce71"/><path d="m219.646 411.884 56-59.531-56-55.8v-196.45c0-50.795 40.899-92.03 91.561-92.589h-184.164c-34.95 0-63.279 28.332-63.279 63.28s28.33 63.279 63.279 63.279h29.322v243.855h-29.322c-34.95 0-63.279 28.332-63.279 63.279 0 34.948 28.33 63.28 63.279 63.28h185.205c-51.143 0-92.602-41.46-92.602-92.603z" fill="#ffb357"/></g><g fill="#ff8e9e"><path d="m140.089 63.626c-16.212 0-29.355 10.466-29.355 23.376 0 12.911 13.143 23.377 29.355 23.377s29.355-10.466 29.355-23.377c0-12.909-13.143-23.376-29.355-23.376z"/><path d="m299.202 63.626c-16.212 0-29.355 10.466-29.355 23.376 0 12.911 13.143 23.377 29.355 23.377s29.355-10.466 29.355-23.377c0-12.909-13.142-23.376-29.355-23.376z"/></g><g><path d="m254.639 321.36-49.497 49.497c-11.716 11.716-11.716 30.711 0 42.426 11.716 11.716 30.711 11.716 42.426 0l49.497-49.497z" fill="#d6948c"/><g><path d="m424.614 251.008-46.064-46.064-112.777 112.778c-11.889 11.889-11.889 31.166 0 43.055l17.15 17.15 17.576 17.576c11.89 11.89 31.166 11.889 43.056 0l59.79-59.79c22.926-22.926 30.013-55.691 21.269-84.705z" fill="#ff8e9e"/><path d="m279.915 331.864 59.137-59.137c23.095-23.095 56.277-30.477 85.562-21.718-3.943-13.083-11.1-25.404-21.483-35.715-33.333-33.103-87.429-32.354-120.647.865l-59.137 59.137c-11.889 11.889-11.889 31.166 0 43.056l56.569 56.569c-11.89-11.891-11.89-31.168-.001-43.057z" fill="#ea5b70"/></g></g><g><path d="m428.033 370.553c-2.801-2.939-7.084-2.611-9.497-.096-9.184 9.573-20.287 24.302-20.287 36.772 0 13.717 11.188 24.841 24.993 24.84 13.74 0 24.994-10.726 24.994-24.84 0-12.162-11.141-27.166-20.203-36.676z" fill="#ea5b70"/></g><g><path d="m301.11 247.959-38.118 38.118c-5.786 5.786-5.837 15.165-.138 21.036 5.82 5.996 15.441 6.087 21.35.178l38.118-38.118c5.847-5.847 5.828-15.347-.019-21.194-5.847-5.849-15.346-5.868-21.193-.02z" fill="#d34459"/><g><path d="m350.241 295.965-38.738 38.737c-5.887 5.887-5.841 15.446.102 21.276 5.86 5.749 15.256 5.707 21.065-.093l38.767-38.708c5.89-5.881 5.839-15.451-.096-21.287-5.86-5.763-15.287-5.738-21.1.075z" fill="#ea5b70"/></g></g><g><path d="m149.697 57.5v12c0 4.143 3.358 7.5 7.5 7.5s7.5-3.357 7.5-7.5v-12c0-4.143-3.358-7.5-7.5-7.5s-7.5 3.357-7.5 7.5z"/><path d="m289.594 69.5v-12c0-4.143-3.358-7.5-7.5-7.5s-7.5 3.357-7.5 7.5v12c0 4.143 3.358 7.5 7.5 7.5s7.5-3.357 7.5-7.5z"/><path d="m241.764 74.07c2.721-3.123 2.396-7.86-.727-10.582-3.123-2.721-7.861-2.396-10.582.727-5.724 6.57-15.9 6.566-21.62 0-2.722-3.122-7.459-3.447-10.582-.727-3.123 2.722-3.448 7.459-.727 10.582 11.706 13.431 32.545 13.417 44.238 0z"/><g><path d="m249.216 496.986h-122.173c-30.757 0-55.779-25.022-55.779-55.779s25.022-55.779 55.779-55.779h39.322c4.142 0 7.5-3.357 7.5-7.5s-3.358-7.5-7.5-7.5h-2.5v-228.856h2.5c4.142 0 7.5-3.357 7.5-7.5s-3.358-7.5-7.5-7.5h-39.322c-30.757 0-55.779-25.022-55.779-55.779s25.022-55.779 55.779-55.779h32.647c4.142 0 7.5-3.357 7.5-7.5s-3.357-7.514-7.5-7.514h-32.647c-39.028 0-70.779 31.766-70.779 70.793s31.751 70.779 70.779 70.779h21.822v228.855h-21.822c-39.028 0-70.779 31.752-70.779 70.779s31.751 70.794 70.779 70.794h122.173c4.142 0 7.5-3.371 7.5-7.514s-3.358-7.5-7.5-7.5z"/><path d="m408.416 209.972c-32.223-31.999-82.111-34.896-117.993-10.15v-58.25h20.882c39.044 0 71.216-31.331 71.716-69.833.005-.313.006-.624.006-.934 0-18.627-7.151-36.201-20.136-49.487-13.426-13.738-31.782-21.318-51.684-21.318h-121.434c-4.142 0-7.5 3.371-7.5 7.514s3.358 7.5 7.5 7.5h121.434c31.862 0 56.82 24.507 56.82 55.792 0 .239-.001.48-.004.729-.395 30.348-25.839 55.037-56.718 55.037h-38.382c-4.142 0-7.5 3.357-7.5 7.5s3.358 7.5 7.5 7.5h2.5v71.04l-57.38 57.38c-14.829 14.831-14.831 38.83 0 53.663 1.884 1.883 6.185 6.184 11.847 11.846l-30.052 30.052c-14.654 14.655-14.657 38.372 0 53.033 14.656 14.654 38.376 14.655 53.033 0l30.052-30.052c5.949 5.949 10.44 10.44 12.272 12.273 14.044 14.042 37.788 15.869 54.374-.711 37.884 33.901 13.513 96.89-37.322 96.89h-32.957c-4.142 0-7.5 3.357-7.5 7.5s3.358 7.514 7.5 7.514h32.957c64.27 0 95.16-79.35 47.948-122.529l22.57-22.57c2.929-2.93 2.929-7.678 0-10.607-2.93-2.928-7.678-2.928-10.607 0l-33.906 33.906c-8.969 8.965-23.48 8.969-32.449.001-8.128-8.129-68.445-68.446-77.153-77.153-8.968-8.968-8.968-23.48 0-32.449l59.137-59.137c30.508-30.507 79.812-30.884 110.059-.848 30.451 30.241 30.577 79.417.195 109.796l-4.67 4.67c-2.929 2.93-2.929 7.678 0 10.607 2.93 2.928 7.678 2.928 10.607 0l4.67-4.67c36.221-36.223 36.15-94.914-.232-131.045zm-136.099 167.956-30.052 30.052c-8.79 8.791-23.026 8.796-31.819.001-8.792-8.794-8.797-23.023-.001-31.82l30.052-30.052c10.043 10.042 21.745 21.745 31.82 31.819z"/></g><path d="m306.413 253.263c2.921-2.921 7.667-2.903 10.587.018 2.928 2.93 7.677 2.929 10.606.001 2.93-2.929 2.93-7.678.001-10.606-8.786-8.788-23.023-8.797-31.801-.02l-38.118 38.118c-8.703 8.703-8.762 22.756-.216 31.563 8.769 9.036 23.185 9.106 32.035.258 2.929-2.929 2.93-7.678.001-10.606-2.929-2.93-7.678-2.929-10.606-.001-2.942 2.941-7.748 2.909-10.665-.098-2.842-2.926-2.836-7.614.059-10.509z"/><path d="m355.545 301.268c2.901-2.901 7.61-2.909 10.538-.029 2.951 2.903 7.7 2.866 10.605-.087s2.865-7.702-.087-10.606c-8.8-8.656-22.933-8.617-31.664.116l-38.737 38.736c-8.825 8.826-8.795 23.157.153 31.935 8.784 8.617 22.879 8.588 31.617-.141 2.931-2.927 2.934-7.676.007-10.606-2.927-2.932-7.676-2.933-10.606-.007-2.897 2.893-7.583 2.92-10.514.045-2.969-2.911-2.992-7.678-.051-10.618z"/><path d="m433.463 365.38c-2.71-2.844-6.329-4.414-10.19-4.421-.008 0-.015 0-.023 0-3.81 0-7.499 1.569-10.125 4.307-8.356 8.711-22.375 25.746-22.375 41.964 0 17.757 14.419 32.34 32.488 32.34h.005c18.221 0 32.494-14.205 32.494-32.34-.001-16.677-15.577-34.823-22.274-41.85zm-10.222 59.189c-.001 0-.002 0-.003 0-9.688 0-17.489-7.777-17.489-17.34 0-7.729 6.521-19.206 17.488-30.832 10.653 11.364 17.499 23.4 17.499 30.832 0 9.724-7.684 17.34-17.495 17.34z"/></g></g></svg>