<svg id="Capa_1" enable-background="new 0 0 512 512" height="512" viewBox="0 0 512 512" width="512" xmlns="http://www.w3.org/2000/svg"><g><g><path d="m287.573 7.513h-40.013c-51.136 0-92.589 41.454-92.589 92.589v274.688h94.29c5.828-17.992 8.988-37.162 8.988-57.052v-183.666h28.382c34.777 0 63.766-27.664 64.217-62.439.458-35.333-28.045-64.12-63.275-64.12z" fill="#70dcba"/><path d="m194.971 291.024v-190.921c0-50.795 40.899-92.03 91.561-92.589h-183.22c-34.777 0-63.766 27.664-64.218 62.438-.459 35.333 28.044 64.121 63.274 64.121h29.322v183.666c0 33.229-27.189 60.45-60.417 60.198-35.395-.268-64.128 28.522-63.769 63.936.355 35.085 30.266 63.001 65.351 62.616 81.24-.893 151.953-54.214 176.406-129.699-33.028-14.777-54.29-47.583-54.29-83.766z" fill="#18c08b"/></g><path d="m348.795 165.82c-1.035-6.996-5.445-13.025-11.8-16.128l-132.598-61.506c-5.145-2.514-10.961-2.873-16.377-1.01-5.414 1.862-9.78 5.721-12.291 10.866-2.512 5.144-2.871 10.96-1.01 16.375s5.721 9.78 10.866 12.293l122.45 56.55 13.713 72.196 21.145 13.88 22.081-14.631z" fill="#ea5b70"/><g><path d="m483.531 217.971h-59.429c-22.389 0-40.538 18.15-40.538 40.538v205.452c0 22.389 18.15 40.538 40.538 40.538h41.618c10.97 0 20.085-8.455 20.909-19.394l17.811-244.593c.916-12.165-8.709-22.541-20.909-22.541z" fill="#b9f0ff"/><path d="m397.542 476.753v-230.825c0-15.44 12.517-27.958 27.958-27.958h-113.947c-12.201 0-21.825 10.376-20.909 22.542l17.811 244.593c.824 10.939 9.939 19.394 20.909 19.394h92.759c-13.848-1.667-24.581-13.449-24.581-27.746z" fill="#7ce3ff"/></g><g><g fill="#ff8e9e"><ellipse cx="115.414" cy="91.116" rx="29.355" ry="23.377"/><ellipse cx="274.528" cy="91.116" rx="29.355" ry="23.377"/></g><g fill="#fff"><path d="m241.703 69.214c0-17.239 13.975-31.214 31.213-31.214s31.214 13.975 31.214 31.214-13.975 11.214-31.214 11.214-31.213 6.024-31.213-11.214z"/><path d="m148.239 69.214c0-17.239-13.975-31.214-31.213-31.214-17.239 0-31.214 13.975-31.214 31.214s13.975 11.214 31.214 11.214c17.238-.001 31.213 6.024 31.213-11.214z"/></g></g><g><g><g><path d="m470.815 289.612h-73.273l-13.979 13.052v146.885l13.979 10.998h42.175c10.487 0 19.193-8.1 19.948-18.559z" fill="#fce3a0"/></g></g><path d="m397.542 289.612h-73.274l11.15 152.375c.755 10.459 9.461 18.559 19.948 18.559h42.175v-170.934z" fill="#ffce71"/></g><g><path d="m123.718 59.96c0 4.005 3.246 7.251 7.251 7.251s7.251-3.247 7.251-7.251-3.246-7.251-7.251-7.251-7.251 3.247-7.251 7.251z"/><path d="m483.53 210.471h-118.984l-8.352-45.881c-1.434-9.387-7.372-17.469-15.908-21.638-.045-.021-.09-.043-.135-.064l-20.287-9.41c22.946-11.875 38.141-35.403 38.482-61.748.5-38.371-29.827-71.73-71.814-71.73h-184.164c-39.028 0-70.779 31.766-70.779 70.793s31.751 70.779 70.779 70.779h21.822v22.5c0 4.143 3.358 7.5 7.5 7.5s7.5-3.357 7.5-7.5v-22.5h2.5c4.142 0 7.5-3.357 7.5-7.5s-3.358-7.5-7.5-7.5h-39.322c-30.757 0-55.779-25.022-55.779-55.779s25.022-55.779 55.779-55.779h184.164c33.385 0 57.208 26.269 56.816 56.521-.325 25.009-17.71 46.815-42.333 53.2l-93.398-43.322c-14.177-6.883-31.501-1.259-38.627 13.339-6.935 14.2-1.31 31.56 13.304 38.697.048.023.097.047.146.069l68.308 31.546v152.673c0 18.662-2.901 37.079-8.623 54.74-23.85 73.622-91.908 123.659-169.394 124.511-32.025.209-57.424-24.981-57.729-55.2l-.002-.57c0-30.759 25.023-55.783 55.781-55.783l.947.004c37.199 0 67.462-30.37 67.462-67.7v-123.667c0-4.143-3.358-7.5-7.5-7.5s-7.5 3.357-7.5 7.5v123.666c0 29.059-23.534 52.7-52.462 52.7l-.947-.004c-39.029.001-70.781 31.754-70.781 70.784l.004.731c.401 39.689 34.329 70.051 72.933 70.051 41.239 0 80.616-13.727 113.879-38.361 32.971-24.418 57.031-57.801 69.58-96.537 6.206-19.156 9.353-39.129 9.353-59.363v-145.747l35.639 16.459 4.298 22.63c-13.623 2.863-23.606 15.444-22.522 29.978l17.812 244.604c1.111 14.764 13.581 26.337 28.387 26.337h136.357c14.806 0 27.275-11.573 28.39-26.356l2.892-39.707c.301-4.132-2.805-7.725-6.936-8.025-4.115-.298-7.725 2.805-8.025 6.936l-2.89 39.688c-.526 6.985-6.426 12.458-13.431 12.458h-136.357c-7.005 0-12.904-5.472-13.429-12.439-.125-1.718-17.851-244.853-17.851-245.642 0-7.412 6.042-13.441 13.469-13.441h171.978c7.726 0 14.029 6.546 13.429 14.498l-12.74 174.957c-.301 4.132 2.805 7.725 6.936 8.025 4.124.302 7.724-2.804 8.025-6.936l12.739-174.945c.054-.725.081-1.45.081-2.158 0-15.684-12.771-28.442-28.47-28.442zm-162.693 0-5.434-28.61c-.452-2.38-2.025-4.395-4.224-5.409l-122.368-56.513c-7.005-3.464-9.671-11.79-6.343-18.605 3.448-7.063 11.81-9.742 18.635-6.408.045.022.091.044.137.065l132.523 61.47c4.098 2.026 6.941 5.931 7.611 10.458.012.082.025.164.04.245l7.884 43.308h-28.461z"/><path d="m266.223 59.96c0-4.004-3.246-7.251-7.251-7.251s-7.251 3.247-7.251 7.251c0 4.005 3.246 7.251 7.251 7.251s7.251-3.246 7.251-7.251z"/><path d="m324.268 282.111c-4.356 0-7.794 3.702-7.48 8.04l11.15 154.37c1.034 14.31 13.082 25.519 27.429 25.519h84.351c14.347 0 26.395-11.209 27.429-25.52l11.15-154.369c.315-4.346-3.133-8.04-7.48-8.04zm127.917 161.328c-.47 6.505-5.946 11.601-12.468 11.601h-84.351c-6.521 0-11.998-5.096-12.468-11.6l-10.569-146.329h130.425z"/></g></g></svg>