<svg id="Capa_1" enable-background="new 0 0 512 512" height="512" viewBox="0 0 512 512" width="512" xmlns="http://www.w3.org/2000/svg"><g><g><path d="m392.07 407.823-112.645-186.573 59.538-60.976c24.417-25.007 23.939-65.073-1.068-89.491-25.007-24.417-65.067-23.944-89.484 1.063-50.084 51.293-127.931 131.022-127.931 131.022s160.547 265.911 163.24 270.373c11.89 19.69 32.799 31.26 54.236 31.26 48.805-.001 79.676-54.337 54.114-96.678z" fill="#676fb2"/><path d="m188.177 133.534v-62.75c0-35.229-28.785-63.734-64.12-63.277-34.777.448-62.446 29.438-62.446 64.22v368.547c0 34.781 27.668 63.771 62.446 64.221 35.335.457 64.12-28.049 64.12-63.277v-126.223l-17.613-29.172c-29.494-48.851-22.253-111.46 17.613-152.289z" fill="#4c5699"/></g><g fill="#ff8e9e"><path d="m112.319 245.626c-16.212 0-29.355 10.466-29.355 23.376 0 12.911 13.143 23.377 29.355 23.377s29.355-10.466 29.355-23.377c0-12.909-13.143-23.376-29.355-23.376z"/><path d="m251.432 245.626c-16.212 0-29.355 10.466-29.355 23.376 0 12.911 13.143 23.377 29.355 23.377s29.355-10.466 29.355-23.377c0-12.909-13.142-23.376-29.355-23.376z"/></g><g><path d="m288.923 335.525-29.358 32.239-21.209 23.292c-17.658 19.391-4.746 51.14 21.209 51.14 0-.004 0 .004 0 0h24.608c8.396 0 15.541-6.868 15.511-15.265-.019-5.32-2.772-9.994-6.925-12.697l36.137-38.736v-35.355-4.618z" fill="#ffb357"/><g><g><path d="m450.389 215.15c0-15.703-18.691-22.399-29.131-11.96l-1.172 1.172-102.737 152.518 15.09 15.09c5.858 5.85 15.815 5.383 21.67-.471l53.807-53.808c26.48-26.479 42.474-63.079 42.473-102.541z" fill="#d4d4ff"/></g><g><path d="m420.086 204.362-127.628 127.628 25.58 25.58 59.878-59.878c24.406-24.406 39.893-57.413 42.17-93.33z" fill="#9ea2e3"/></g></g><path d="m331.471 418.431c-.475 0-.955-.021-1.438-.063-8.305-.721-14.811-7.949-14.811-16.457 0-.771-.301-1.498-.847-2.044l-47.358-47.358c-6.324-6.324-6.587-16.316-.599-22.748 3.068-3.294 7.405-5.183 11.899-5.183 4.34 0 8.421 1.69 11.49 4.759l47.359 47.36c6.807 6.806 10.556 15.855 10.556 25.483 0 4.341-1.69 8.422-4.759 11.491-3.069 3.068-7.149 4.759-11.49 4.759-.001.001-.002.001-.002.001z" fill="#ffce71"/></g><g><path d="m136.927 246.5v-12c0-4.143-3.358-7.5-7.5-7.5s-7.5 3.357-7.5 7.5v12c0 4.143 3.358 7.5 7.5 7.5s7.5-3.357 7.5-7.5z"/><path d="m241.824 246.5v-12c0-4.143-3.358-7.5-7.5-7.5s-7.5 3.357-7.5 7.5v12c0 4.143 3.358 7.5 7.5 7.5s7.5-3.357 7.5-7.5z"/><path d="m181.875 261.144c8.478 0 16.54-3.672 22.119-10.073 2.721-3.123 2.396-7.86-.727-10.582-3.124-2.721-7.861-2.396-10.582.727-2.729 3.133-6.669 4.929-10.81 4.929s-8.081-1.796-10.81-4.929c-2.722-3.122-7.459-3.447-10.582-.727-3.123 2.722-3.448 7.459-.727 10.582 5.58 6.401 13.642 10.073 22.119 10.073z"/><path d="m457.889 215.15c0-21.257-25.553-33.645-43.106-16.092l-87.291 87.291-38.648-64.011 55.486-56.826c27.22-27.875 26.913-72.65-1.195-100.096-27.834-27.178-72.603-26.967-100.09 1.189l-47.367 48.511v-44.333c-.001-39.03-31.754-70.783-70.783-70.783-.314 0-.628.002-.934.007-38.515.497-69.85 32.671-69.85 71.72v7.657c0 4.143 3.358 7.5 7.5 7.5s7.5-3.357 7.5-7.5v-7.657c0-30.884 24.692-56.329 55.051-56.722.244-.003.488-.005.732-.005 30.758 0 55.782 25.024 55.782 55.783v71.338c0 4.143 3.358 7.5 7.5 7.5s7.5-3.357 7.5-7.5v-5.533l58.1-59.503c21.678-22.205 56.956-22.34 78.877-.936 22.151 21.628 22.395 56.914.942 78.885l-59.538 60.977c-2.386 2.443-2.82 6.191-1.054 9.115l43.561 72.15-24.317 24.317c-9.745-7.09-23.214-5.645-31.32 3.058-8.209 8.816-8.416 22.176-.827 31.387l-23.08 25.347-41.344-68.478v-4.824c0-4.143-3.358-7.5-7.5-7.5s-7.5 3.357-7.5 7.5v133.135c0 30.759-25.023 55.782-55.782 55.782-30.792 0-55.784-25.677-55.784-56.726v-330.89c0-4.143-3.358-7.5-7.5-7.5s-7.5 3.357-7.5 7.5v330.89c0 39.257 31.715 71.727 70.784 71.727 39.029 0 70.782-31.754 70.782-70.783v-99.29l31.48 52.139c-2.889 5.47-4.436 11.56-4.436 17.804 0 17.792 12.656 37.827 38.023 37.827l16.555 27.421c12.934 21.419 35.608 34.206 60.656 34.206 12.846 0 25.476-3.526 36.524-10.197 34.465-20.807 43.689-64.587 24.011-97.181l-2.53-4.19c-2.141-3.546-6.751-4.686-10.297-2.543-3.546 2.141-4.685 6.751-2.543 10.297l2.529 4.189c15.581 25.81 8.121 60.26-18.923 76.587-25.821 15.592-60.268 8.104-76.585-18.919l-11.876-19.67h5.909c14.392 0 22.991-11.694 22.991-23 0-4.659-1.396-9.017-3.97-12.676l5.38-5.791c4.887 17.864 26.853 23.583 39.69 10.746 9.845-9.847 8.029-25.238 2.188-36.627 3.359-1.148 6.446-3.034 8.96-5.545l3.222-3.222 4.979 8.246c2.142 3.546 6.752 4.684 10.297 2.544 3.547-2.142 4.686-6.751 2.545-10.298l-6.894-11.418 39.659-39.66c28.804-28.808 44.669-67.107 44.669-107.847zm-173.715 219.546h-24.608c-13.674 0-21.845-11.606-21.845-22.827 0-3.52.8-8.49 4.267-13.38l.021-.03c.561-.789 1.185-1.575 1.893-2.353l26.74-29.366 29.033 29.032-12.41 13.357c-1.506 1.621-2.22 3.824-1.949 6.021s1.497 4.161 3.351 5.369c2.892 1.883 3.499 4.398 3.499 6.177 0 3.878-2.801 8-7.992 8zm53.484-26.328c-1.835 1.836-4.328 2.75-6.978 2.528-4.463-.388-7.959-4.334-7.959-8.985 0-2.775-1.081-5.385-3.043-7.348l-47.359-47.358c-3.455-3.454-3.636-8.872-.414-12.333 1.654-1.775 3.991-2.794 6.411-2.794 2.337 0 4.535.91 6.187 2.562l47.359 47.361c5.391 5.39 8.359 12.557 8.359 20.18.001 2.338-.909 4.535-2.563 6.187zm11.15-42.174c-1.55 1.549-3.739 2.437-6.007 2.437-1.994 0-3.791-.698-5.062-1.967-.003-.002-.005-.005-.008-.007l-34.666-34.667 122.325-122.325c2.594-2.594 5.49-3.965 8.378-3.965 4.483 0 9.121 3.535 9.121 9.45 0 36.732-14.304 71.266-40.276 97.237z"/></g></g></svg>