<svg id="Capa_1" enable-background="new 0 0 512 512" height="512" viewBox="0 0 512 512" width="512" xmlns="http://www.w3.org/2000/svg"><g><g><path d="m465.433 12.32c-23.647-9.797-50.866-4.38-68.966 13.718l-140.465 140.468h-94.749l50 134.243c24.697 24.697 64.787 24.712 89.498 0l77.183-77.184v83.883l-20 66.117 20 57.046v10.607c0 34.95 28.331 63.282 63.283 63.282s63.283-28.333 63.283-63.282v-370.433c0-25.596-15.42-48.671-39.067-58.465z" fill="#b28ae4"/><path d="m256.002 166.506-140.47-140.468c-18.103-18.095-45.31-23.517-68.965-13.718-23.647 9.794-39.067 32.869-39.067 58.465v369.489c0 34.781 27.668 63.771 62.446 64.221 35.335.457 64.12-28.049 64.12-63.277v-152.777-64.879l77.186 77.187v-26.209c0-40.52 16.097-79.381 44.75-108.034z" fill="#976bcf"/></g><g><g><g><ellipse cx="175.972" cy="210.525" fill="#ff8e9e" rx="23.515" ry="29.529" transform="matrix(.002 -1 1 .002 -34.938 386.035)"/></g><g><ellipse cx="336.028" cy="210.875" fill="#ff8e9e" rx="23.515" ry="29.529" transform="matrix(.002 -1 1 .002 124.418 546.44)"/></g></g></g><g><g><path d="m134.066 223.562c-8.321 0-15.068 6.746-15.068 15.067v68.288l-54.028 30.396 35.164 49.409c26.65-6.256 48.999-28.747 49-50.702v-.001-.001-97.389c-.001-8.321-6.746-15.067-15.068-15.067z" fill="#7ce3ff"/><path d="m118.998 306.917c-32.024-3.198-67.865 24.058-67.865 52.108 0 21.649 21.938 34.05 49 27.697-12.239-27.829-4.539-60.401 18.865-79.805z" fill="#2ed0fc"/></g></g><g><path d="m418.834 296.489-3.56.954-18.144 4.862c-11.864 3.179-21.103 12.49-24.19 24.379l-5.006 19.282 10 27.6 45.53-12.2v31.374c-25.351 5.056-38.645 32.687-22.318 45.623 17.734 14.054 52.334-3.407 52.334-26.425v-88.863c.001-18.097-17.148-31.274-34.646-26.586z" fill="#fce3a0"/><path d="m415.274 297.442-43.247 11.588c-14.195 3.804-24.109 16.725-24.109 31.421v69.505c-25.721 4.634-38.828 33.316-22.315 46.4 18.049 14.302 52.332-4.188 52.332-25.747v-57.046-27.458c-.001-22.8 15.314-42.76 37.339-48.663z" fill="#ffce71"/></g><g><path d="m504.5 181.51c-4.143 0-7.5 3.357-7.5 7.5v252.208c0 30.759-25.024 55.782-55.783 55.782s-55.783-25.023-55.783-55.782c0-7.353 0-55.54 0-61.898l30.53-8.18v15.863c-27.902 9.481-39.425 41.431-19.476 57.236 22.588 17.904 64.492-2.842 64.492-32.302v-88.863c0-23.03-21.81-39.8-44.087-33.83h-.001l-31.459 8.43v-71.001l4.37-4.37c2.929-2.93 2.929-7.678 0-10.607-2.93-2.928-7.678-2.928-10.607 0l-83.749 83.75c-21.766 21.767-57.097 21.794-78.892 0l-60.173-60.173c-1.626-10.857-11.013-19.209-22.316-19.209-12.444 0-22.567 10.123-22.567 22.566v60.589c-33.505 1.315-67.865 29.157-67.865 59.808 0 11.022 4.674 20.797 13.161 27.521 18.772 14.877 48.493 10.637 69.772-3.03v57.701c0 30.758-25.024 55.781-55.782 55.781-30.793-.001-55.785-25.678-55.785-56.727v-319.264c0-4.143-3.358-7.5-7.5-7.5s-7.5 3.357-7.5 7.5v319.265c0 39.257 31.715 71.726 70.784 71.726 39.029 0 70.782-31.753 70.782-70.782v-70.293c9.371-10.265 15.067-22.602 15.067-34.906v-79.282l49.316 49.316c27.625 27.624 72.449 27.655 100.104 0l64.38-64.38v60.021l-.349.093c-17.468 4.681-29.668 20.58-29.668 38.664v63.684c-14.122 4.624-25.281 15.808-28.665 29.291-2.822 11.243.614 22.013 9.192 28.81 14.468 11.465 36.771 7.083 51.22-5.517 7.09 31.594 35.349 55.281 69.054 55.281 39.03 0 70.783-31.753 70.783-70.782v-252.208c0-4.143-3.357-7.5-7.5-7.5zm-362.867 154.511c-.001 30.876-51.921 57.476-75.523 38.771-24.023-19.037 12.985-64.334 52.144-60.411 4.448.429 8.245-3.051 8.245-7.463v-68.288c0-4.172 3.395-7.566 7.567-7.566s7.567 3.395 7.567 7.566zm212.777 114.587c-7.204 3.482-17.328 5.276-24.15-.129-5.048-4.001-4.939-9.497-3.959-13.402 1.976-7.872 9.999-17.406 22.946-19.739 3.571-.644 6.17-3.752 6.17-7.381v-69.506c0-11.308 7.628-21.249 18.551-24.176l46.808-12.543h-.001c6.068-1.624 12.399-.366 17.374 3.451 4.978 3.82 7.832 9.611 7.832 15.891v88.863c0 7.886-6.26 16.008-15.947 20.69-9.075 4.387-18.583 4.329-24.229-.146-4.782-3.789-4.749-8.889-3.878-12.5 1.866-7.741 9.861-17.268 23.005-19.889 3.508-.7 6.033-3.779 6.033-7.355v-31.373c0-2.332-1.084-4.53-2.935-5.95-1.851-1.419-4.253-1.899-6.507-1.294l-45.53 12.199c-3.278.878-5.559 3.85-5.559 7.244v57.047c0 7.328-6.44 15.365-16.024 19.998z"/><path d="m441.23 0c-18.914 0-36.694 7.363-50.066 20.734l-135.163 135.165-135.167-135.166c-13.375-13.369-31.155-20.733-50.064-20.733-38.519 0-70.77 31.067-70.77 70.785v20.224c0 4.143 3.358 7.5 7.5 7.5s7.5-3.357 7.5-7.5v-20.224c0-31.207 25.318-55.784 55.77-55.784 14.903 0 28.917 5.804 39.459 16.341l138.272 138.271v1.624c0 4.143 3.358 7.5 7.5 7.5s7.5-3.357 7.5-7.5v-1.624l138.27-138.271c10.538-10.539 24.552-16.343 39.459-16.343 30.412 0 55.77 24.546 55.77 55.786v88.225c0 4.143 3.357 7.5 7.5 7.5s7.5-3.357 7.5-7.5v-88.225c0-39.602-32.128-70.785-70.77-70.785z"/><path d="m200.965 200.009v-12c0-4.143-3.358-7.5-7.5-7.5s-7.5 3.357-7.5 7.5v12c0 4.143 3.358 7.5 7.5 7.5s7.5-3.358 7.5-7.5z"/><path d="m325.862 200.009v-12c0-4.143-3.358-7.5-7.5-7.5s-7.5 3.357-7.5 7.5v12c0 4.143 3.358 7.5 7.5 7.5s7.5-3.358 7.5-7.5z"/><path d="m256.096 223.669c3.865 3.39 8.923 5.451 14.456 5.451 12.106 0 21.956-9.85 21.956-21.956 0-4.143-3.358-7.5-7.5-7.5s-7.5 3.357-7.5 7.5c0 3.836-3.12 6.956-6.956 6.956s-6.956-3.12-6.956-6.956c0-4.143-3.358-7.5-7.5-7.5s-7.5 3.357-7.5 7.5c0 3.836-3.12 6.956-6.956 6.956s-6.956-3.12-6.956-6.956c0-4.143-3.358-7.5-7.5-7.5s-7.5 3.357-7.5 7.5c0 12.106 9.849 21.956 21.956 21.956 5.533 0 10.59-2.061 14.456-5.451z"/></g></g></svg>