<svg id="Capa_1" enable-background="new 0 0 512 512" height="512" viewBox="0 0 512 512" width="512" xmlns="http://www.w3.org/2000/svg"><g><g><path d="m342.428 7.507c-34.951 0-63.281 28.332-63.281 63.281v177.124l-86.886-118.48h-58.198v134.658l157.335 214.547c12.149 16.568 31.261 25.863 51.039 25.863 6.563 0 13.201-1.023 19.679-3.146 26.006-8.513 43.593-32.777 43.593-60.141v-370.425c.001-34.949-28.33-63.281-63.281-63.281z" fill="#70dcba"/><path d="m192.261 129.432-70.449-96.066c-16.179-22.065-44.715-31.239-70.719-22.718-26.006 8.513-43.593 32.777-43.593 60.14v369.483c0 34.78 27.668 63.77 62.445 64.219 35.334.456 64.118-28.048 64.118-63.276v-177.124c0-48.956 19.448-95.907 54.065-130.524z" fill="#30cd9c"/></g><g><g><ellipse cx="132.316" cy="211.712" fill="#ff8e9e" rx="24.637" ry="30.938" transform="matrix(.707 -.707 .707 .707 -110.948 155.571)"/></g><g><ellipse cx="250.893" cy="330.288" fill="#ff8e9e" rx="24.637" ry="30.938" transform="matrix(.707 -.707 .707 .707 -160.064 274.148)"/></g><g><ellipse cx="204.99" cy="257.615" fill="#313d40" rx="18.377" ry="16.423" transform="matrix(.707 -.707 .707 .707 -122.121 220.406)"/></g></g><path d="m401.371 169.214c-8.284 0-15 6.716-15 15v50h30v-50c0-8.284-6.716-15-15-15z" fill="#ce857a"/><g><path d="m390.832 327.492v96.791h46.215c28.191-22.817 46.215-57.698 46.215-96.791l-46.215-11.892z" fill="#ffb39d"/><path d="m390.832 327.492-37.362-11.892-33.989 11.892c0 47.315 26.402 88.462 65.277 109.515 5.178 2.805 10.896 4.207 16.614 4.207s11.436-1.402 16.614-4.207c6.755-3.659 13.133-7.925 19.061-12.724-28.19-22.817-46.215-57.698-46.215-96.791z" fill="#ff8f71"/></g><g><g><path d="m504.058 301.933c-8.115-39.596-35.086-64.626-67.034-75.086h-27.612l-46.691 46.691v53.954h28.11 92.431c13.467 0 23.499-12.368 20.796-25.559z" fill="#e8b5b1"/></g><path d="m370.034 301.935c8.107-39.603 35.059-64.629 66.99-75.087-11.458-3.752-23.555-5.631-35.652-5.634-45.835-.01-91.67 26.89-102.689 80.721-2.699 13.187 7.324 25.557 20.798 25.557h71.351c-13.475 0-23.497-12.371-20.798-25.557z" fill="#ce857a"/></g><g><path d="m7.5 384.385c4.142 0 7.5-3.357 7.5-7.5v-306.097c0-31.212 25.336-55.788 55.776-55.788 17.701 0 34.519 8.523 44.988 22.801 9.554 13.029 151.545 206.652 161 219.544 2.449 3.34 7.143 4.063 10.483 1.612 3.34-2.449 4.062-7.144 1.612-10.483-.302-.411-1.058-1.442-2.212-3.017v-174.669c0-30.758 25.023-55.781 55.781-55.781 30.759 0 55.782 25.023 55.782 55.781v13.991c0 4.143 3.357 7.5 7.5 7.5s7.5-3.357 7.5-7.5v-13.991c0-39.029-34.946-70.788-70.782-70.788-39.029 0-70.781 31.759-70.781 70.788v154.214c-1.289-1.758-142.559-194.396-143.787-196.072-13.283-18.115-34.08-28.93-57.084-28.93-38.7 0-70.776 31.245-70.776 70.788v306.097c0 4.142 3.358 7.5 7.5 7.5z"/><path d="m157.178 183.557-8.485 8.485c-2.929 2.93-2.929 7.678 0 10.607 2.93 2.929 7.678 2.928 10.606 0l8.485-8.485c2.929-2.93 2.929-7.678 0-10.607-2.928-2.928-7.677-2.928-10.606 0z"/><path d="m185.075 243.698c-9.889 9.889-10.945 25.652-1.382 35.213 9.583 9.584 25.348 8.485 35.214-1.381 9.894-9.894 10.942-25.655 1.382-35.214-9.329-9.327-25.126-8.705-35.214 1.382zm23.225 23.225c-4.394 4.395-10.685 4.698-14 1.382-3.321-3.32-3.007-9.611 1.382-13.999 4.242-4.242 10.521-4.861 14-1.382 3.314 3.314 3.014 9.604-1.382 13.999z"/><path d="m268.441 294.819-8.485 8.485c-2.929 2.93-2.929 7.678 0 10.607 2.93 2.929 7.678 2.928 10.606 0l8.485-8.485c2.929-2.93 2.929-7.678 0-10.607-2.928-2.927-7.677-2.927-10.606 0z"/><path d="m511.405 300.428c-9.137-44.584-43.115-76.572-87.535-84.68v-31.534c0-8.064-4.267-15.148-10.66-19.121v-50.313c0-4.143-3.357-7.5-7.5-7.5s-7.5 3.357-7.5 7.5v47.161c-10.915 1.542-19.34 10.94-19.34 22.273v31.572c-43.524 8.055-78.078 38.44-87.535 84.645-3.1 15.145 6.244 29.788 20.826 33.611 2.27 45.927 28.268 87.487 69.024 109.56 5.104 2.765 10.76 4.433 16.539 4.935-3.675 28.035-27.615 48.463-55.286 48.463-17.705 0-34.524-8.522-44.992-22.799l-162-220.908c-2.449-3.34-7.142-4.062-10.483-1.612-3.34 2.449-4.063 7.143-1.613 10.483l3.212 4.38v174.669c0 30.758-25.023 55.78-55.78 55.78-30.791.001-55.782-25.675-55.782-56.722v-33.386c0-4.143-3.358-7.5-7.5-7.5s-7.5 3.357-7.5 7.5v33.386c0 39.255 31.713 71.724 70.782 71.724 39.028 0 70.78-31.752 70.78-70.78v-154.215c4.13 5.632 139.668 190.455 143.788 196.073l.003.003c13.282 18.112 34.621 28.924 57.085 28.924 36.322 0 67.478-27.719 70.53-64.926 22.961-6.526 74.311-46.177 77.615-113.032 12.741-3.343 21.417-14.937 21.417-27.998 0-1.85-.208-3.729-.595-5.616zm-117.535-116.214c0-4.136 3.364-7.5 7.5-7.5s7.5 3.364 7.5 7.5v29.743c-2.477-.145-4.971-.243-7.496-.243-.01 0-.017 0-.026 0-2.504 0-4.995.098-7.478.248zm20.545 246.198c-8.115 4.394-17.952 4.405-26.086 0-35.628-19.296-58.543-55.385-61.102-95.42h148.289c-2.559 40.033-25.473 76.122-61.101 95.42zm68.848-110.42h-163.783c-8.707 0-15.202-7.997-13.45-16.554 10.567-51.624 55.482-74.725 95.319-74.725h.021c47.869.01 86.183 30.039 95.34 74.726 1.757 8.563-4.752 16.553-13.447 16.553z"/><circle cx="401.371" cy="268.949" r="7.5"/><circle cx="401.371" cy="298.949" r="7.5"/><circle cx="331.371" cy="287.949" r="7.5"/><circle cx="471.371" cy="287.949" r="7.5"/><circle cx="361.371" cy="257.949" r="7.5"/><circle cx="441.371" cy="257.949" r="7.5"/></g></g></svg>