<svg id="Capa_1" enable-background="new 0 0 512 512" height="512" viewBox="0 0 512 512" width="512" xmlns="http://www.w3.org/2000/svg"><g><g><path d="m256 7.5-121.935 78.603v169.897c0-67.234 54.7-121.935 121.935-121.935s121.935 54.701 121.935 121.935-54.7 121.935-121.935 121.935-121.935-54.701-121.935-121.935v165.233l121.935 83.267c137.023 0 248.5-111.478 248.5-248.5s-111.477-248.5-248.5-248.5z" fill="#ff8f71"/><path d="m134.065 256c0-97.239 45.025-188.999 121.935-248.5-137.023 0-248.5 111.478-248.5 248.5s111.477 248.5 248.5 248.5c-76.91-59.501-121.935-151.261-121.935-248.5z" fill="#ff6f4d"/></g><g fill="#ffdbe0"><path d="m146.443 97.483c-16.212 0-29.355 10.466-29.355 23.376 0 12.911 13.143 23.377 29.355 23.377s29.355-10.466 29.355-23.377c0-12.91-13.142-23.376-29.355-23.376z"/><path d="m365.557 97.483c-16.212 0-29.355 10.466-29.355 23.376 0 12.911 13.143 23.377 29.355 23.377s29.355-10.466 29.355-23.377c-.001-12.91-13.143-23.376-29.355-23.376z"/></g><path d="m323.529 124.875c-9.714 0-18.822-4.167-25.68-11.045-5.098-5.113-12.147-8.277-19.938-8.277-8.852 0-16.746 4.085-21.91 10.471-5.164-6.386-13.058-10.471-21.91-10.471-7.791 0-14.841 3.164-19.938 8.277-6.858 6.878-15.967 11.045-25.68 11.045-4.372 0-7.631 4.008-6.777 8.296 3.855 19.364 20.944 33.959 41.441 33.959 13.278 0 25.119-6.129 32.865-15.707 7.746 9.578 19.588 15.707 32.865 15.707 20.497 0 37.586-14.595 41.441-33.959.852-4.288-2.407-8.296-6.779-8.296z" fill="#4c5699"/><g><path d="m181.051 106.356v-12c0-4.143-3.358-7.5-7.5-7.5s-7.5 3.357-7.5 7.5v12c0 4.143 3.358 7.5 7.5 7.5s7.5-3.357 7.5-7.5z"/><path d="m345.948 106.356v-12c0-4.143-3.357-7.5-7.5-7.5s-7.5 3.357-7.5 7.5v12c0 4.143 3.357 7.5 7.5 7.5s7.5-3.357 7.5-7.5z"/><path d="m256 0c-141.159 0-256 114.841-256 256s114.841 256 256 256c63.31 0 124.119-23.384 171.228-65.845 3.076-2.773 3.322-7.516.55-10.593-2.775-3.077-7.518-3.321-10.593-.55-44.348 39.974-101.592 61.988-161.185 61.988-132.888 0-241-108.112-241-241s108.112-241 241-241 241 108.112 241 241c0 58.177-21.102 114.391-59.418 158.288-2.724 3.12-2.402 7.858.719 10.582 3.122 2.726 7.859 2.403 10.582-.719 40.702-46.63 63.117-106.346 63.117-168.151 0-141.159-114.841-256-256-256z"/><path d="m148.841 197.384c-3.747-1.768-8.216-.163-9.983 3.584-8.157 17.292-12.293 35.808-12.293 55.032 0 71.37 58.064 129.435 129.435 129.435 71.37 0 129.435-58.064 129.435-129.435 0-42.098-20.091-80.857-54.127-105.21 3.039-4.969 5.215-10.434 6.354-16.155 1.781-8.951-5.056-17.26-14.132-17.26-7.451 0-14.685-3.14-20.369-8.84-13.103-13.144-33.421-13.693-47.16-2.966-13.742-10.73-34.06-10.175-47.16 2.965-5.684 5.701-12.918 8.841-20.369 8.841-9.109 0-15.909 8.341-14.133 17.261 1.141 5.729 3.321 11.202 6.368 16.177-9.263 6.645-17.619 14.446-24.877 23.31-2.625 3.204-2.154 7.93 1.05 10.555 3.202 2.622 7.929 2.155 10.554-1.051 6.673-8.147 14.389-15.288 22.969-21.312 18.799 16.434 46.888 16.428 65.598-.084 18.664 16.472 46.753 16.563 65.604.079 30.68 21.492 48.831 56.085 48.831 93.69 0 63.1-51.335 114.435-114.435 114.435s-114.436-51.335-114.436-114.435c0-16.995 3.654-33.357 10.859-48.634 1.768-3.746.163-8.215-3.583-9.982zm112.991-50.678c-2.998-3.706-8.661-3.711-11.663 0-13.706 16.948-39.103 17.15-53.2 1.035-3.854-4.405-6.535-9.708-7.78-15.372 11.207-.192 21.933-4.878 30.275-13.244 8.685-8.712 22.971-7.949 30.706 1.614 3.003 3.714 8.667 3.706 11.663 0 7.739-9.569 22.025-10.323 30.706-1.613 8.341 8.365 19.067 13.051 30.274 13.243-1.246 5.665-3.927 10.967-7.78 15.371-14.113 16.135-39.512 15.894-53.201-1.034z"/></g></g></svg>