<svg id="Capa_1" enable-background="new 0 0 512 512" height="512" viewBox="0 0 512 512" width="512" xmlns="http://www.w3.org/2000/svg"><g><g><path d="m210.819 7.513c-48.715 0-82.106 49.095-64.207 94.402l12.705 32.157h51.502c29.472 0 53.449 23.54 53.449 52.476s-23.977 52.476-53.449 52.476h-51.502l-30 63.311 30 63.247h51.502c99.257 0 180.008-80.314 180.008-179.034s-80.751-179.035-180.008-179.035z" fill="#b28ae4"/><path d="m159.317 134.071v-75.07c0-28.442 23.06-51.496 51.502-51.489h-114.782c-34.95 0-63.28 28.331-63.28 63.279v370.416c0 34.948 28.33 63.279 63.28 63.279 34.949 0 63.279-28.331 63.279-63.279v-75.627-126.557-104.952z" fill="#976bcf"/></g><g><g><g><path d="m461.655 329.909c23.335-23.335 23.524-61.327 0-84.849-10.857-10.857-25.856-17.573-42.424-17.573h-.012c-15.912 0-31.173 6.321-42.424 17.573l-20.234 20.234 84.852 84.853z" fill="#ff8e9e"/><path d="m441.414 350.147c0-23.426-9.498-44.638-24.851-59.993-15.356-15.358-36.571-24.859-60.001-24.859l-81.21 81.21c3.72 3.721 81.111 81.132 84.841 84.862z" fill="#ffce71"/><path d="m360.192 431.366v-.021c0-23.423-9.492-44.629-24.84-59.981-15.354-15.359-36.568-24.859-60.001-24.859l-34.823 63.8 55.87 55.886zm-25.402-59.441c-.122.122-.17.17 0 0z" fill="#fad5cb"/><path d="m239.306 500.87 57.092-34.68c-8.254-26.624-29.253-47.625-55.87-55.886l-34.683 57.105c-5.798 9.546-4.404 22.07 3.434 30.028.054.055.109.108.163.163 7.958 7.837 20.318 9.069 29.864 3.27z" fill="#676fb2"/></g><g><path d="m436.47 270.245c9.004-9.004 21.216-14.062 33.949-14.062-2.481-4.049-5.425-7.783-8.764-11.123-10.857-10.857-25.856-17.573-42.424-17.573-15.92 0-31.187 6.324-42.444 17.581l-20.225 20.226c23.43 0 44.644 9.5 60.001 24.859z" fill="#ea5b70"/><path d="m416.562 290.153c-15.357-15.358-36.571-24.859-60.001-24.859l-81.21 81.21c23.433 0 44.647 9.5 60.001 24.859z" fill="#ffb357"/><path d="m317.776 388.94c7.212-7.211 13.584-13.584 17.576-17.576-15.354-15.359-36.568-24.859-60.001-24.859l-34.823 63.8c12.925 4.012 24.93 11.162 34.824 21.06 8.383-8.385 27.265-27.267 42.424-42.425z" fill="#ffb39d"/><path d="m225.441 504.458c0-14.844 5.897-29.08 16.393-39.577l33.518-33.518c-9.586-9.59-21.485-16.92-34.824-21.06l-34.683 57.105c-5.798 9.546-4.404 22.07 3.434 30.028 4.395 4.33 10.297 6.795 16.162 7.022z" fill="#4c5699"/></g></g></g><g><g><g><ellipse cx="112.155" cy="95.885" fill="#ff8e9e" rx="23.515" ry="29.529" transform="matrix(.002 -1 1 .002 16.025 207.829)"/></g><g><ellipse cx="272.211" cy="96.235" fill="#ff8e9e" rx="23.515" ry="29.529" transform="matrix(.002 -1 1 .002 175.38 368.234)"/></g></g></g><g><path d="m466.961 239.757c-19.638-19.639-48.323-24.647-72.587-15.045 2.586-12.324 3.952-25.089 3.952-38.165 0-102.856-84.115-186.547-187.507-186.547h-114.782c-39.028 0-70.779 31.764-70.779 70.792v285.78c0 4.142 3.357 7.5 7.5 7.5s7.5-3.358 7.5-7.5v-285.78c0-30.757 25.022-55.779 55.779-55.779h114.781c95.121 0 172.508 76.95 172.508 171.534 0 17.014-2.516 33.453-7.177 48.981l-106.002 105.576c-.496.476-1.074 1.222-1.448 1.939l-3.424 6.274c-17.126 5.68-35.435 8.764-54.456 8.764h-51.502c-4.143 0-7.5 3.358-7.5 7.5v75.626c0 30.757-25.022 55.779-55.779 55.779s-55.779-25.022-55.779-55.779v-54.636c0-4.142-3.357-7.5-7.5-7.5s-7.5 3.358-7.5 7.5v54.636c0 39.028 31.751 70.792 70.779 70.792 39.027 0 70.779-31.764 70.779-70.792v-68.126h44.002c15.284 0 30.141-1.842 44.373-5.291l-21.158 38.765-34.595 56.961c-7.656 12.606-5.806 28.719 4.528 39.212 6.097 6.124 14.188 9.271 22.407 9.271 5.76 0 11.583-1.533 16.829-4.72l56.943-34.588 63.491-34.66c.671-.347 1.387-.883 1.865-1.362 9.14-9.157-2.586 2.576 77.203-77.203.001-.001.002-.001.002-.002l24.254-24.252c26.322-26.323 26.427-69.03 0-95.455zm-231.546 254.702c-6.793 4.126-15.354 3.176-20.79-2.285-5.392-5.474-6.387-14.252-2.367-20.871l31.527-51.908c19.912 7.858 35.677 23.628 43.527 43.541zm148.547-97.469-17.76 17.76c-.67-3.72-1.59-7.43-2.71-11.02-1.204-3.869-5.281-6.162-9.4-4.92-3.95 1.24-6.149 5.46-4.92 9.4 0 .01.01.01.01.02 1.9 6.075 3.022 12.371 3.376 18.76l-52.112 28.448c-9.346-22.172-26.992-39.823-49.165-49.176l24.391-44.688 4.066-7.45c21.767 1.216 42.628 11.585 56.853 29.975 2.554 3.323 7.283 3.861 10.521 1.36 3.279-2.53 3.88-7.25 1.35-10.53-14.43-18.714-34.956-30.525-56.49-34.43 51.521-51.521 67.643-67.65 67.643-67.65 19.306.747 37.795 8.758 51.647 22.599 13.811 13.83 21.84 32.17 22.59 51.65-7.8 7.802-30.72 30.722-49.89 49.892zm72.393-72.384c-3.306 3.306-6.281 6.28-8.931 8.931-3.293-18.147-12.05-35.175-25.561-48.686-13.697-13.696-30.819-22.319-48.681-25.567 9.542-9.542 11.147-11.423 15.855-14.743 20.493-14.449 48.977-12.52 67.318 5.823 20.599 20.597 20.425 53.816 0 74.242z"/><path d="m134.183 82.641v-12c0-4.142-3.357-7.5-7.5-7.5s-7.5 3.358-7.5 7.5v12c0 4.142 3.357 7.5 7.5 7.5s7.5-3.358 7.5-7.5z"/><path d="m253.784 82.307c0-3.532 2.874-6.406 6.406-6.406s6.405 2.874 6.405 6.406c0 4.142 3.357 7.5 7.5 7.5s7.5-3.358 7.5-7.5c0-11.803-9.603-21.406-21.405-21.406-11.804 0-21.406 9.603-21.406 21.406 0 4.142 3.357 7.5 7.5 7.5s7.5-3.358 7.5-7.5z"/><path d="m192.278 107.029c14.122 12.385 36.411 2.337 36.411-16.504 0-4.142-3.357-7.5-7.5-7.5s-7.5 3.358-7.5 7.5c0 3.835-3.12 6.956-6.956 6.956-3.835 0-6.955-3.12-6.955-6.956 0-4.142-3.357-7.5-7.5-7.5s-7.5 3.358-7.5 7.5c0 3.835-3.12 6.956-6.956 6.956-3.835 0-6.955-3.12-6.955-6.956 0-4.142-3.357-7.5-7.5-7.5s-7.5 3.358-7.5 7.5c0 18.831 22.278 28.897 36.411 16.504z"/><path d="m144.817 239.022c0 4.142 3.357 7.5 7.5 7.5h58.502c33.607 0 60.949-26.905 60.949-59.975.001-8.384-1.732-16.504-5.153-24.136-1.693-3.78-6.134-5.47-9.911-3.776-3.78 1.694-5.471 6.132-3.776 9.912 2.55 5.688 3.842 11.743 3.841 17.999 0 24.8-20.612 44.976-45.949 44.976h-44.002v-89.951h44.002c9.168 0 18.024 2.646 25.611 7.654 3.453 2.28 8.106 1.332 10.391-2.128 2.281-3.458 1.328-8.109-2.129-10.391-10.046-6.63-21.759-10.134-33.873-10.134h-58.502c-4.143 0-7.5 3.358-7.5 7.5 0 3.973 3.092 7.216 7 7.475v90.002c-3.909.257-7.001 3.5-7.001 7.473z"/></g></g></svg>