<svg id="Capa_1" enable-background="new 0 0 512 512" height="512" viewBox="0 0 512 512" width="512" xmlns="http://www.w3.org/2000/svg"><g><g><path d="m283.899 336.429c49.138-32 81.67-87.229 81.67-149.882 0-98.72-80.751-179.034-180.008-179.034-48.715 0-82.106 49.095-64.207 94.402l12.705 32.157h51.502c29.472 0 53.449 23.54 53.449 52.476s-23.977 52.476-53.449 52.476h-51.502l-7.792 16.443c-2.396 1.795-4.7 3.771-6.879 5.95l.93 6.605-16.259 34.313 30 63.247 120.383 120.383c12.357 12.357 28.554 18.535 44.749 18.535s32.392-6.178 44.749-18.535c24.711-24.714 24.711-64.781 0-89.495z" fill="#ff8e9e"/><path d="m134.059 134.071v-75.07c0-28.442 23.06-51.496 51.502-51.489h-114.781c-34.95.001-63.28 28.332-63.28 63.28v370.416c0 34.948 28.33 63.292 63.28 63.292 34.949 0 63.279-28.344 63.279-63.292v-75.627-126.558z" fill="#ea5b70"/></g><g fill="#ffdbe0"><ellipse cx="87.464" cy="95.954" rx="29.355" ry="23.377"/><ellipse cx="246.577" cy="95.954" rx="29.355" ry="23.377"/></g><g><path d="m498.519 226.493-18.108-18.108h-46.792l-115.184 115.183v43.894h67.994l11.365-11.365v-10.607h10.607l11.365-11.365v-10.607h10.607l11.365-11.365v-10.607h10.607l11.365-11.365v-10.607h10.607l11.365-11.365v-10.607h10.607l2.232-2.232c3.829-3.829 5.978-9.02 5.978-14.436.001-5.417-2.15-10.61-5.98-14.441z" fill="#fce3a0"/><path d="m447.898 221.852c8.623-8.623 20.318-13.467 32.512-13.467-4.2-4.2-33.099-33.099-37.154-37.153-3.83-3.829-9.023-5.981-14.439-5.981h-.001c-5.416 0-10.61 2.151-14.439 5.981l-146.896 146.897c-3.83 3.829-5.981 9.023-5.981 14.439v.002c0 5.416 2.151 10.61 5.981 14.439l55.261 55.261c3.83 3.83 9.023 5.981 14.439 5.981h.003c5.415 0 10.604-2.147 14.433-5.976l2.234-2.234v-10.606h10.606c6.81-6.81 14.06-14.06 15.715-15.715l-23.138-23.139c-10.456-10.456-10.456-27.408 0-37.863z" fill="#ffce71"/></g><g><path d="m119.559 239.022c0 4.142 3.357 7.5 7.5 7.5h58.502c33.607 0 60.949-26.905 60.949-59.976s-27.342-59.976-60.949-59.976h-58.502c-4.143 0-7.5 3.358-7.5 7.5 0 3.973 3.092 7.216 7 7.475v90.001c-3.909.26-7 3.503-7 7.476zm111.951-52.475c0 24.8-20.612 44.976-45.949 44.976h-44.002v-89.951h44.002c25.336-.001 45.949 20.175 45.949 44.975z"/><path d="m112.073 80.451v-12c0-4.142-3.357-7.5-7.5-7.5s-7.5 3.358-7.5 7.5v12c0 4.142 3.357 7.5 7.5 7.5s7.5-3.358 7.5-7.5z"/><path d="m236.969 80.451v-12c0-4.142-3.357-7.5-7.5-7.5s-7.5 3.358-7.5 7.5v12c0 4.142 3.357 7.5 7.5 7.5s7.5-3.358 7.5-7.5z"/><path d="m189.139 85.021c2.722-3.123 2.396-7.86-.727-10.582-3.124-2.721-7.862-2.396-10.582.727-5.727 6.57-15.898 6.563-21.619 0-2.723-3.123-7.46-3.448-10.582-.727-3.122 2.722-3.448 7.459-.727 10.582 11.705 13.43 32.544 13.418 44.237 0z"/><path d="m503.819 221.186-7.109-7.109c-2.929-2.928-7.678-2.93-10.606 0-2.93 2.929-2.93 7.678-.001 10.606 7.138 7.138 10.897 9.677 10.897 16.25 0 3.451-1.343 6.694-3.782 9.134-.104.104-.892.892-2.231 2.231l-24.136-24.135c-2.93-2.929-7.678-2.929-10.607 0s-2.929 7.678 0 10.606l24.136 24.136c-3.301 3.301-7.127 7.128-11.365 11.366-5.171-5.17-13.716-13.715-14.139-14.138-2.929-2.927-7.678-2.927-10.606.004-2.928 2.93-2.926 7.679.005 10.607.424.423 8.967 8.966 14.134 14.134-3.631 3.631-7.438 7.437-11.365 11.365l-14.136-14.136c-2.93-2.929-7.678-2.929-10.607 0s-2.929 7.678 0 10.606l14.136 14.136c-3.741 3.741-7.544 7.544-11.365 11.365-7.606-7.606-23.824-23.823-24.13-24.13-2.924-2.932-7.673-2.938-10.606-.013-2.933 2.926-2.938 7.674-.013 10.607.306.307 16.529 16.53 24.142 24.143-3.822 3.822-7.624 7.624-11.365 11.365l-14.136-14.136c-2.93-2.929-7.678-2.929-10.607 0s-2.929 7.678 0 10.606l14.136 14.136c-3.928 3.928-7.735 7.735-11.365 11.365-5.249-5.249-14.003-14.002-14.143-14.142-2.934-2.927-7.682-2.919-10.605.013-2.926 2.932-2.92 7.681.012 10.606.174.174 8.895 8.894 14.13 14.13-4.238 4.238-8.065 8.065-11.365 11.365-7.111-7.111-21.762-21.762-23.879-23.88l-.257-.257c-2.93-2.929-7.678-2.929-10.607 0s-2.929 7.678 0 10.606l.257.257 23.88 23.88c-1.341 1.341-2.129 2.129-2.233 2.233-5.034 5.034-13.209 5.056-18.268-.004l-55.262-55.26c-2.44-2.441-3.784-5.686-3.784-9.139 0-3.451 1.344-6.696 3.784-9.136l94.009-94.009c.016-.015.03-.031.046-.046l52.843-52.843c5.043-5.045 13.22-5.053 18.269-.003.621.622 26.479 26.479 26.881 26.88 2.927 2.929 7.676 2.93 10.606 0 2.707-2.708 3.259-7.337-.331-10.938-13.078-13.077-25.83-25.829-26.546-26.545-10.911-10.912-28.573-10.914-39.486 0l-36.712 36.712c.462-5.347.708-10.719.708-16.094-.006-102.858-84.122-186.543-187.514-186.543h-114.782c-39.027 0-70.779 31.757-70.779 70.792v319.99c0 4.142 3.357 7.5 7.5 7.5s7.5-3.358 7.5-7.5v-319.99c0-30.764 25.022-55.792 55.779-55.792h114.781c95.122 0 172.509 76.956 172.509 171.547 0 11.357-1.143 22.699-3.369 33.755l-92.524 92.524c-5.272 5.273-8.176 12.284-8.176 19.744 0 7.457 2.904 14.468 8.177 19.742l55.262 55.26c8.297 8.298 20.347 10.179 30.297 6.12 4.752 8.34 7.237 17.728 7.237 27.498 0 14.917-5.802 28.935-16.335 39.47-10.537 10.537-24.546 16.34-39.447 16.34s-28.91-5.802-39.445-16.338l-120.384-120.384c-2.146-2.146-5.372-2.788-8.174-1.626-2.803 1.161-4.63 3.896-4.63 6.929v75.626c0 30.757-25.022 55.779-55.779 55.779s-55.779-25.021-55.779-55.778v-20.426c0-4.142-3.357-7.5-7.5-7.5s-7.5 3.358-7.5 7.5v20.426c0 39.028 31.752 70.779 70.779 70.779 39.028 0 70.779-31.751 70.779-70.779v-57.52l107.58 107.58c13.37 13.369 31.145 20.732 50.053 20.732 18.907 0 36.683-7.363 50.053-20.732 13.367-13.369 20.729-31.153 20.729-50.077 0-13.033-3.499-25.527-10.151-36.515 20.51-20.51 142.601-142.602 144.003-144.003 5.272-5.271 8.176-12.282 8.176-19.74-.001-7.456-2.904-14.468-8.182-19.747z"/></g></g></svg>