<svg id="Capa_1" enable-background="new 0 0 512 512" height="512" viewBox="0 0 512 512" width="512" xmlns="http://www.w3.org/2000/svg"><g><g><path d="m401.4 270.595c-27.987-48.363-79.248-63.858-116.674-75.174-9.366-2.83-24.237-7.326-34.159-11.654-10.668-4.654-14.599-14.716-13.202-24.577h-50.26v105.585l95.132 63.442c23.033 10.039 14.776 45.236-10.872 49.322l-60.289 57.273 55.339 69.687c85.958 0 155.891-69.933 155.891-155.891.001-27.401-7.228-54.377-20.906-78.013z" fill="#9ea2e3"/><path d="m261.542 134.448c12.505-1.961 24.178 3.722 30.314 14.321 17.506 30.25 56.219 40.58 86.468 23.077 30.251-17.504 40.583-56.218 23.077-86.468-13.328-23.031-32.165-41.864-54.268-55.246h-108.275v123.141c3.347-9.131 11.307-17.041 22.684-18.825z" fill="#9ea2e3"/><g fill="#8288cb"><path d="m237.365 159.19c.283-1.997.784-3.983 1.493-5.917 14.976-55.458 54.868-101.068 108.275-123.141-23.998-14.53-51.847-22.632-80.718-22.632-85.958 0-155.891 69.933-155.891 155.891 0 27.392 7.226 54.362 20.897 77.995 27.985 48.374 79.248 63.87 116.68 75.186 9.359 2.83 24.212 7.32 34.135 11.645-41.448-44.479-59.324-107.525-44.871-169.027z"/><path d="m271.365 377.539c-12.53 1.996-24.238-3.688-30.387-14.308-17.5-30.249-56.207-40.586-86.468-23.08-30.249 17.504-40.583 56.218-23.077 86.468 27.798 48.039 79.519 77.881 134.982 77.881-24.429-38.654-19.479-88.307 4.95-126.961z"/></g></g><path d="m155.031 88.499-19.395-2.834-8.674-17.675c-6.701-13.655-26.138-13.732-32.876 0l-8.674 17.675-19.395 2.834c-15.036 2.198-21.039 20.78-10.16 31.446l14.034 13.758-3.313 19.427c-2.568 15.06 13.149 26.545 26.597 19.434l17.347-9.172c15.677 8.289 10.515 5.56 17.347 9.172 13.448 7.111 29.166-4.374 26.597-19.434l-3.313-19.427 14.035-13.758c10.882-10.666 4.878-29.249-10.157-31.446z" fill="#ffce71"/><path d="m441.612 411.991c-4.879-2.986-10.229-5.279-15.911-6.741-1.463-5.683-3.756-11.032-6.742-15.911-3.636-5.941-12.149-5.941-15.784 0-2.986 4.879-5.279 10.229-6.742 15.911-5.682 1.463-11.031 3.755-15.911 6.741-5.941 3.635-5.941 12.148 0 15.784 4.879 2.986 10.231 5.289 15.914 6.752 1.463 5.682 3.753 11.021 6.739 15.9 3.635 5.941 12.148 5.941 15.784 0 2.986-4.879 5.275-10.218 6.739-15.9 5.682-1.463 11.035-3.766 15.913-6.752 5.941-3.636 5.942-12.148.001-15.784z" fill="#fce3a0"/><g><path d="m137.925 422.862c-15.667-27.072-5.843-61.067 20.341-76.219 27.085-15.668 61.072-5.841 76.222 20.345 7.802 13.474 22.602 20.417 38.058 17.958 32.784-5.222 42.768-50.495 12.688-63.604-10.326-4.5-25.149-8.982-34.961-11.948-36.233-10.953-85.857-25.954-112.358-71.762-10.883-18.813-17.456-39.853-19.321-61.49l5.773 3.053c18.907 9.995 41.131-6.011 37.497-27.326l-2.654-15.557 11.233-11.011c15.208-14.91 7.005-41.105-14.327-44.222h.001l-11.913-1.741c27.802-40.42 72.937-64.338 122.211-64.338 27.1 0 53.765 7.509 77.113 21.717 3.537 2.152 8.152 1.031 10.306-2.509 2.153-3.538 1.03-8.152-2.509-10.306-25.698-15.637-55.059-23.902-84.91-23.902-28.334 0-56.27 7.401-80.787 21.403-19.928 11.381-37.312 26.934-50.896 45.394l-1.036-2.112c-9.444-19.244-36.865-19.313-46.343 0l-6.934 14.129-15.486 2.263c-21.345 3.119-29.524 29.32-14.325 44.223l11.231 11.01-2.652 15.555c-3.63 21.241 18.525 37.354 37.496 27.328l6.815-3.603c1.832 24.47 9.136 48.299 21.431 69.552 29.471 50.94 82.374 66.932 121.004 78.61 8.897 2.69 23.789 7.192 33.308 11.34 16.06 7 9.235 32.127-9.055 35.04-9.621 1.534-18.229-2.908-22.715-10.658-19.227-33.232-62.358-45.691-96.718-25.815-33.284 19.262-45.658 62.426-25.811 96.715 8.397 14.513 18.966 27.609 31.409 38.926 1.438 1.307 3.243 1.951 5.044 1.951 2.039 0 4.07-.827 5.551-2.454 2.787-3.064 2.562-7.808-.503-10.595-11.299-10.274-20.894-22.164-28.518-35.34zm-48.253-256.929c-7.947 4.199-17.229-2.613-15.699-11.543l3.313-19.427c.413-2.423-.388-4.896-2.144-6.617l-14.033-13.757c-6.507-6.38-2.835-17.379 5.993-18.669l19.396-2.834c2.446-.358 4.559-1.898 5.648-4.117l8.674-17.675c3.987-8.126 15.432-8.107 19.409 0 10.077 20.535 7.349 14.974 8.674 17.675 1.09 2.219 3.202 3.759 5.648 4.117l19.395 2.834h.001c8.821 1.289 12.503 12.287 5.994 18.668l-14.035 13.758c-1.756 1.721-2.557 4.193-2.144 6.617l3.314 19.429c1.518 8.907-7.743 15.747-15.699 11.541-17.967-9.5-17.422-9.206-17.422-9.206-2.274-1.172-4.956-1.061-7.019.078z"/><path d="m205.209 252.218v12c0 4.142 3.357 7.5 7.5 7.5s7.5-3.358 7.5-7.5v-12c0-4.142-3.357-7.5-7.5-7.5s-7.5 3.358-7.5 7.5z"/><path d="m291.252 269.072c2.722-3.123 2.396-7.86-.727-10.582-3.125-2.721-7.861-2.396-10.582.727-6.165 7.074-17.121 7.067-23.279 0-2.722-3.123-7.46-3.447-10.582-.727-3.122 2.722-3.448 7.459-.727 10.582 12.143 13.934 33.766 13.92 45.897 0z"/><path d="m319.81 263.883c0-3.532 2.874-6.406 6.406-6.406s6.406 2.874 6.406 6.406c0 4.142 3.357 7.5 7.5 7.5s7.5-3.358 7.5-7.5c0-11.803-9.603-21.406-21.406-21.406s-21.406 9.603-21.406 21.406c0 4.142 3.357 7.5 7.5 7.5s7.5-3.358 7.5-7.5z"/><path d="m445.527 405.594c-4.346-2.66-8.967-4.8-13.785-6.386-1.548-4.701-3.632-9.212-6.204-13.469 9.412-40.342 3.133-82.992-17.647-118.901-29.469-50.924-82.363-66.917-120.995-78.597-8.902-2.69-23.802-7.192-33.33-11.35-7.808-3.405-8.974-10.166-8.974-13.892 0-10.034 7.959-21.436 21.822-21.436 7.892 0 14.976 4.098 18.949 10.96 19.261 33.285 62.419 45.656 96.715 25.812 33.285-19.259 45.66-62.425 25.813-96.716-8.393-14.503-18.968-27.6-31.432-38.926-3.064-2.787-7.809-2.559-10.595.506-2.785 3.065-2.559 7.809.507 10.594 11.318 10.285 20.919 22.175 28.537 35.339 15.667 27.072 5.844 61.068-20.342 76.219-27.023 15.637-61.036 5.898-76.221-20.343-6.688-11.55-18.624-18.446-31.932-18.446-22.257 0-36.822 18.327-36.822 36.436 0 12.398 6.72 22.731 17.976 27.641 10.34 4.511 25.174 8.993 34.997 11.961 36.228 10.953 85.843 25.954 112.344 71.749 17.506 30.254 24.226 66.83 17.077 103.061-6.262-.338-11.986 2.744-15.208 8.011-2.658 4.345-4.799 8.966-6.386 13.785-4.817 1.586-9.438 3.726-13.783 6.385-10.733 6.568-10.712 22.025-.001 28.579 2.56 1.567 5.221 2.93 7.948 4.128-28.06 36.928-71.535 58.702-118.14 58.702-27.126 0-53.799-7.507-77.135-21.711-3.537-2.152-8.152-1.031-10.306 2.507s-1.031 8.152 2.507 10.306c25.687 15.635 55.056 23.898 84.934 23.898 50.178 0 97.049-22.921 127.984-61.934.746 1.449 1.526 2.882 2.38 4.277 6.57 10.732 22.027 10.709 28.578-.001 2.658-4.345 4.797-8.963 6.382-13.775 4.809-1.585 9.431-3.728 13.789-6.396 10.731-6.568 10.71-22.023-.001-28.577zm-7.83 15.784c-4.334 2.652-9 4.632-13.869 5.886-2.646.681-4.712 2.747-5.393 5.393-1.257 4.878-3.232 9.54-5.873 13.856-.715 1.168-2.274 1.167-2.99-.001-2.64-4.313-4.615-8.974-5.872-13.855-.681-2.635-2.766-4.717-5.394-5.393-4.869-1.253-9.535-3.234-13.868-5.886-1.162-.711-1.175-2.271 0-2.989 4.314-2.641 8.979-4.618 13.864-5.875 2.646-.681 4.712-2.747 5.394-5.392 1.26-4.888 3.236-9.554 5.878-13.87.712-1.166 2.274-1.165 2.988.001 2.642 4.317 4.618 8.983 5.875 13.867.682 2.646 2.748 4.713 5.395 5.394 4.886 1.257 9.551 3.234 13.865 5.875 0 0 .001 0 .001.001 1.166.712 1.169 2.271-.001 2.988z"/><path d="m461.698 197.859h-6c-4.142 0-7.5 3.358-7.5 7.5s3.358 7.5 7.5 7.5h6c4.142 0 7.5-3.358 7.5-7.5s-3.358-7.5-7.5-7.5z"/><path d="m414.198 205.359c0 4.142 3.358 7.5 7.5 7.5h6c4.142 0 7.5-3.358 7.5-7.5s-3.358-7.5-7.5-7.5h-6c-4.142 0-7.5 3.358-7.5 7.5z"/><path d="m434.198 219.359v6c0 4.142 3.358 7.5 7.5 7.5s7.5-3.358 7.5-7.5v-6c0-4.142-3.358-7.5-7.5-7.5s-7.5 3.358-7.5 7.5z"/><path d="m441.698 198.859c4.142 0 7.5-3.358 7.5-7.5v-6c0-4.142-3.358-7.5-7.5-7.5s-7.5 3.358-7.5 7.5v6c0 4.142 3.358 7.5 7.5 7.5z"/><path d="m121.698 312.859c4.142 0 7.5-3.358 7.5-7.5s-3.358-7.5-7.5-7.5h-6c-4.142 0-7.5 3.358-7.5 7.5s3.358 7.5 7.5 7.5z"/><path d="m87.698 297.859h-6c-4.142 0-7.5 3.358-7.5 7.5s3.358 7.5 7.5 7.5h6c4.142 0 7.5-3.358 7.5-7.5s-3.358-7.5-7.5-7.5z"/><path d="m101.698 311.859c-4.142 0-7.5 3.358-7.5 7.5v6c0 4.142 3.358 7.5 7.5 7.5s7.5-3.358 7.5-7.5v-6c0-4.142-3.358-7.5-7.5-7.5z"/><path d="m101.698 298.859c4.142 0 7.5-3.358 7.5-7.5v-6c0-4.142-3.358-7.5-7.5-7.5s-7.5 3.358-7.5 7.5v6c0 4.142 3.358 7.5 7.5 7.5z"/></g></g></svg>