<svg id="Capa_1" enable-background="new 0 0 512 512" height="512" viewBox="0 0 512 512" width="512" xmlns="http://www.w3.org/2000/svg"><g><g><path d="m398 7.5h-60.438c-50.663.559-91.562 41.808-91.562 92.603v388.95h51.405c13.394-11.604 21.877-28.723 21.877-47.835v-307.153h78.718c34.951 0 63.283-28.333 63.283-63.282 0-34.95-28.331-63.283-63.283-63.283z" fill="#7ce3ff"/><path d="m256 411.884v-311.781c0-50.795 40.899-92.043 91.562-92.603h-233.562c-34.951 0-63.283 28.333-63.283 63.283s28.331 63.282 63.283 63.282h78.717v307.152c0 34.95 28.331 63.283 63.283 63.283 15.839 0 30.306-5.832 41.405-15.448-24.954-16.589-41.405-44.955-41.405-77.168z" fill="#2ed0fc"/></g><g><path d="m394.997 251.542c-3.534.023-7.067.377-10.551 1.03-28.557 5.359-49.192 30.445-49.932 59.491l-.117 4.6 37.697 5.768v-20.065c0-4.281.807-8.553 2.618-12.432 3.654-7.826 10.446-12.983 20.658-12.983 7.143 0 12.92-5.8 12.806-12.911-.113-7.009-6.113-12.544-13.179-12.498z" fill="#00b27a"/><path d="m378.531 311.739-10.361 4.925-3.844-10.808c-4.365-12.273-21.722-12.273-26.087 0l-3.844 10.808-10.361-4.925c-11.765-5.592-24.039 6.681-18.446 18.445l4.441 9.342 41.253 21.73 41.253-21.73 4.441-9.342c5.593-11.764-6.68-24.037-18.445-18.445z" fill="#00ce8e"/></g><g><g><path d="m390.454 336.291c-14.483-.016-27.937 4.975-39.171 13.539h-31.456v136.227l65.836 14.114c52.827-13.792 75.561-59.262 75.621-91.994.038-40.863-35.272-71.96-70.83-71.886z" fill="#ff8e9e"/></g><path d="m330.795 441.189c-10.009-31.925-2.195-66.765 20.488-91.359-11.233-8.563-24.687-13.555-39.171-13.539-35.418-.074-70.869 30.866-70.829 71.886.035 19.654 7.746 39.628 20.385 56.26 5.522 7.197 11.986 13.755 19.162 19.047 18.998 14.011 44.726 21.016 70.453 21.016 11.67 0 23.338-1.446 34.379-4.329-26.011-10.272-46.346-31.803-54.867-58.982z" fill="#ea5b70"/></g><g fill="#ff8e9e"><ellipse cx="176.444" cy="92.86" rx="29.355" ry="23.377"/><ellipse cx="335.557" cy="92.86" rx="29.355" ry="23.377"/></g><g><path d="m201.051 70.356v-12c0-4.142-3.357-7.5-7.5-7.5s-7.5 3.358-7.5 7.5v12c0 4.142 3.357 7.5 7.5 7.5s7.5-3.357 7.5-7.5z"/><path d="m325.949 70.356v-12c0-4.142-3.357-7.5-7.5-7.5s-7.5 3.358-7.5 7.5v12c0 4.142 3.357 7.5 7.5 7.5s7.5-3.357 7.5-7.5z"/><path d="m278.119 74.927c2.722-3.123 2.396-7.86-.727-10.582-3.124-2.721-7.862-2.396-10.582.727-5.727 6.57-15.899 6.563-21.619 0-2.723-3.123-7.46-3.448-10.582-.727-3.122 2.722-3.448 7.459-.727 10.582 11.704 13.43 32.544 13.417 44.237 0z"/><path d="m404.95 330.295c4.748-15.639-9.677-30.65-25.357-26.849 0-10.836 4.854-18.995 15.776-18.995 11.197 0 20.307-9.063 20.307-20.204l-.001-.207c0-.04 0-.081-.001-.121-.177-10.96-9.412-19.877-20.589-19.877-.017 0-.121 0-.138 0-34.428.227-63.2 26.841-67.417 61.053-.675-.321-.18-.086-.748-.34v-163.19h71.218c39.029 0 70.782-31.753 70.782-70.783s-31.752-70.782-70.782-70.782h-242.394c-4.143 0-7.5 3.358-7.5 7.5s3.357 7.5 7.5 7.5h242.394c30.759 0 55.782 25.024 55.782 55.783s-25.023 55.782-55.782 55.782h-88.718c-4.143 0-7.5 3.358-7.5 7.5s3.357 7.5 7.5 7.5h2.5v162.259c-10.496 3.337-17.736 14.733-14.167 26.472-34.491 7.177-63.834 38.645-63.834 77.812 0 .038 0 .083.001.131.075 31.945 18.458 64.625 45.907 83.478-7.353 3.474-15.379 5.283-23.689 5.283-30.759 0-55.783-25.024-55.783-55.783v-299.652h2.5c4.143 0 7.5-3.358 7.5-7.5s-3.357-7.5-7.5-7.5h-88.717c-30.759 0-55.783-25.024-55.783-55.783s25.025-55.782 55.783-55.782h11.605c4.143 0 7.5-3.358 7.5-7.5s-3.357-7.5-7.5-7.5h-11.605c-39.03 0-70.783 31.753-70.783 70.783s31.753 70.782 70.783 70.782h71.217v299.652c0 39.03 31.753 70.783 70.783 70.783 13.99 0 27.344-4.038 38.914-11.698 16.75 7.658 36.129 11.698 56.368 11.698 25.842 0 48.872-6.259 68.452-18.604 3.504-2.209 4.554-6.84 2.345-10.344-2.21-3.503-6.84-4.553-10.345-2.344-17.147 10.811-37.485 16.292-60.451 16.292-67.855 0-102.426-47.998-102.5-88.837 0-.035 0-.07-.001-.105.04-48.09 56.526-83.843 97.954-52.263 2.686 2.047 6.408 2.047 9.094 0 41.679-31.775 97.953 4.405 97.953 52.369-.036 19.429-7.518 38.791-21.067 54.521-2.703 3.139-2.351 7.874.788 10.578 3.136 2.703 7.872 2.352 10.577-.788 15.887-18.443 24.659-41.273 24.702-64.365 0-39.145-29.36-70.645-63.833-77.815zm-9.865-71.253c3.027 0 5.528 2.281 5.59 5.09l.001.115c0 2.87-2.381 5.204-5.307 5.204-16.537 0-27.08 10.949-29.981 24.98-4.748-4.191-11.207-6.082-17.8-4.961 8.799-18.02 26.887-30.294 47.497-30.428zm-4.882 67.923-.877 1.846c-13.448.203-26.48 4.262-38.047 11.84-11.211-7.323-24.177-11.609-38.039-11.843l-.876-1.843c-2.243-4.713 1.724-9.114 5.674-9.114 1.692 0 2.705.627 5.138 1.784 8.333 3.959 18.2-.212 21.257-8.807l.874-2.458c2.001-5.629 9.953-5.627 11.954-.001.915 2.574 2.424 8.455 9.281 11.461 6.765 2.966 12.101.161 15.201-1.312 5.429-2.582 11.039 3.023 8.46 8.447z"/></g></g></svg>