<svg id="Capa_1" enable-background="new 0 0 512 512" height="512" viewBox="0 0 512 512" width="512" xmlns="http://www.w3.org/2000/svg"><g><g><path d="m97.423 430.716c-7.138 7.138-19.041 7.359-26.044.089h-25.275v25.668c20.811 20.861 55.108 21.392 75.938.561 1.591-1.591 22.065-22.065 50.042-50.042l-25.469-25.469c-27.775 27.776-47.965 47.965-49.192 49.193z" fill="#676fb2"/><path d="m320.587 207.551c-1.469 1.469-108.683 108.683-173.972 173.972l25.469 25.469c65.426-65.426 171.898-171.898 173.972-173.972z" fill="#d4d4ff"/></g><g><path d="m418 7.5c-34.951 0-63.283 28.333-63.283 63.283v223.504c0 46.123-38.082 83.648-84.89 83.648l-69.766 63.282 69.765 63.283c116.599 0 211.457-94.301 211.457-210.213v-223.504c0-34.95-28.331-63.283-63.283-63.283z" fill="#ffce71"/><path d="m269.828 377.935c-46.808 0-84.89-37.524-84.89-83.648v-223.504c0-34.95-28.332-63.283-63.283-63.283s-63.283 28.333-63.283 63.283v223.504c0 115.912 94.858 210.213 211.454 210.213-26.353-38.073-26.352-88.492.002-126.565z" fill="#ffb357"/></g><path d="m415.857 137.034c-7.126-6.746-18.432-6.321-25.371.618l-69.899 69.899 25.469 25.469 70.164-70.164c7.152-7.151 7.031-18.823-.363-25.822z" fill="#d4d4ff"/><g><path d="m217.055 131.591c-13.311 7.937-14.182 27.54-.878 36.666 15.742 10.798 28.465 25.615 36.751 43.025 1.942 4.08 4.599 7.848 7.849 11.101h70.447l68.017-68.017c-49.407-49.406-124.795-56.998-182.186-22.775z" fill="#4c5699"/><path d="m399.24 154.367-68.016 68.016v70.446c3.149 3.151 6.876 5.84 11.1 7.85 17.411 8.287 32.227 21.01 43.026 36.752 9.108 13.278 28.715 12.454 36.666-.878 34.224-57.392 26.631-132.78-22.776-182.186z" fill="#8288cb"/><path d="m260.777 222.384c3.16 3.162 6.88 5.837 11.06 7.828 22.571 10.749 40.809 28.987 51.558 51.558 1.919 4.028 4.563 7.792 7.829 11.059 56.804-57.676 87.201-119.278 68.016-138.463-19.184-19.184-80.787 11.214-138.463 68.018z" fill="#676fb2"/></g><path d="m94.625 357.594c-7.003-7.27-18.906-7.05-26.044.088l-21.817 21.817c-20.989 20.989-21.624 55.959-.66 76.973 0-15.021 11.84-25.668 25.275-25.668-6.791-7.05-6.711-18.272.241-25.223l22.764-22.764c6.951-6.952 7.032-18.173.241-25.223z" fill="#4c5699"/><g><g><g><ellipse cx="189.8" cy="433.525" fill="#ff8e9e" rx="23.515" ry="29.529" transform="matrix(.002 -1 1 .002 -244.14 622.374)"/></g><g><ellipse cx="349.856" cy="433.875" fill="#ff8e9e" rx="23.515" ry="29.529" transform="matrix(.002 -1 1 .002 -84.784 782.78)"/></g></g></g><g><path d="m214.793 416.009v-12c0-4.143-3.357-7.5-7.5-7.5s-7.5 3.357-7.5 7.5v12c0 4.143 3.357 7.5 7.5 7.5s7.5-3.358 7.5-7.5z"/><path d="m339.69 416.009v-12c0-4.143-3.357-7.5-7.5-7.5s-7.5 3.357-7.5 7.5v12c0 4.143 3.357 7.5 7.5 7.5s7.5-3.358 7.5-7.5z"/><path d="m269.924 439.669c14.124 12.386 36.411 2.337 36.411-16.505 0-4.143-3.357-7.5-7.5-7.5s-7.5 3.357-7.5 7.5c0 3.836-3.12 6.956-6.955 6.956-3.836 0-6.956-3.12-6.956-6.956 0-4.143-3.357-7.5-7.5-7.5s-7.5 3.357-7.5 7.5c0 3.836-3.12 6.956-6.955 6.956-3.836 0-6.956-3.12-6.956-6.956 0-4.143-3.357-7.5-7.5-7.5s-7.5 3.357-7.5 7.5c-.001 18.831 22.278 28.9 36.411 16.505z"/><path d="m418 0c-39.03 0-70.783 31.753-70.783 70.783v41.701c-43.255-15.761-92.46-12.107-134.004 12.666-18.058 10.77-19.039 37.11-1.279 49.293 14.719 10.096 26.553 23.95 34.222 40.064 8.356 17.553 22.096 21.819 30.25 26.62l-79.278 79.277c-3.033-8.149-4.69-16.946-4.69-26.116v-223.505c0-39.03-31.753-70.783-70.783-70.783s-70.782 31.753-70.782 70.783v15.607c0 4.142 3.357 7.5 7.5 7.5s7.5-3.358 7.5-7.5v-15.607c0-30.759 25.024-55.783 55.782-55.783s55.782 25.024 55.782 55.783v223.504c0 50.259 41.446 91.147 92.391 91.147 41.064 0 77.302-26.892 88.75-65.825 7.892 6.267 14.848 13.698 20.587 22.065 12.205 17.79 38.542 16.749 49.292-1.281 32.392-54.32 28.674-121.737-7.341-171.826 11.127-11.127 9.929-27.482-.104-36.98-9.935-9.403-26.007-9.06-35.83.762l-.142.142c-7.274-5.23-14.911-9.782-22.823-13.638v-48.07c0-30.759 25.024-55.783 55.783-55.783s55.783 25.024 55.783 55.783v223.504c-.001 55.307-22.088 107.016-62.192 145.602-2.984 2.871-3.076 7.619-.204 10.604 2.869 2.983 7.616 3.078 10.604.204 20.89-20.099 37.316-43.666 48.825-70.049 11.921-27.33 17.967-56.386 17.967-86.361v-223.504c0-39.03-31.753-70.783-70.783-70.783zm-197.581 162.073c-8.913-6.114-8.029-18.968.477-24.041 47.772-28.486 106.73-26.096 151.624 4.027-9.164 1.634-19.672 5.328-31.386 11.091-24.869 12.233-52.92 32.734-79.645 58.121-2.907-4.658-12.438-29.558-41.07-49.198zm51.726 59.766c25.542-24.22 52.158-43.694 75.609-55.23 21.963-10.804 39.659-13.466 46.184-6.938 6.524 6.523 3.865 24.22-6.938 46.183-11.535 23.45-31.009 50.066-55.229 75.608-2.808-4.595-16.211-38.735-56.708-58.021-1.006-.479-1.973-1.024-2.918-1.602zm-67.956 112.718 84.719-84.719c5.451 4.429 10.433 9.411 14.862 14.862l-85.939 85.939c-5.263-4.706-9.853-10.124-13.642-16.082zm65.639 35.878c-14.522 0-28.118-3.963-39.742-10.837l82.395-82.395c1.49 2.531 2.875 5.13 4.143 7.793 8.374 17.573 23.061 22.508 28.756 25.726-7.742 34.366-39.354 59.713-75.552 59.713zm145.746-37.723c-5.051 8.47-17.899 9.426-24.04.478-19.493-28.419-44.3-38.012-49.197-41.07 25.387-26.726 45.888-54.777 58.121-79.646 5.763-11.716 9.458-22.224 11.091-31.389 30.114 44.874 32.514 103.852 4.025 151.627zm-4.874-190.232c4.071 3.853 4.339 10.047.983 14.212-2.283-2.605-4.661-5.151-7.139-7.629-2.466-2.466-4.999-4.833-7.59-7.105 4.142-3.13 10.02-3.004 13.746.522z"/><path d="m389.395 458.421c-34.973 25.238-76.319 38.579-119.569 38.579-63.23 0-121.804-29.057-160.146-77.332-6.195-7.8-11.833-16.099-16.818-24.722l6.826-6.826c9.865-9.867 9.955-25.742.339-35.729-7.113-7.385-17.836-9.513-27.311-6.02-4.538-16.941-6.843-34.416-6.843-52.084v-177.897c0-4.142-3.357-7.5-7.5-7.5s-7.5 3.358-7.5 7.5v177.897c0 20.933 3.005 41.621 8.929 61.566l-18.342 18.342c-23.501 23.503-24.914 63.263-.639 87.601 22.519 22.57 60.975 26.091 88.092-1.026 39.469 33.08 89.223 51.23 140.913 51.23 46.421 0 90.803-14.321 128.346-41.415 3.359-2.424 4.117-7.112 1.693-10.471s-7.112-4.115-10.47-1.693zm-295.539-34.745-1.738 1.737c-4.145 4.145-11.229 4.453-15.337.189-3.926-4.078-3.953-10.624.142-14.718l4.983-4.983c3.686 6.111 7.684 12.05 11.95 17.775zm-42.415 27.526c-18.259-18.307-17.205-48.57.627-66.399l21.816-21.817c4.146-4.148 11.233-4.453 15.338-.189 3.933 4.083 3.949 10.628-.142 14.717l-10.901 10.902c-.008.008-.015.015-.023.023l-11.841 11.842c-9.987 9.993-9.819 25.884-.337 35.729 9.316 9.67 25.804 10.956 37.307-.547 4.56 5.307 9.391 10.411 14.449 15.275-20.142 20.14-49.289 17.509-66.293.464z"/></g></g></svg>