<svg id="Capa_1" enable-background="new 0 0 512 512" height="512" viewBox="0 0 512 512" width="512" xmlns="http://www.w3.org/2000/svg"><g><g><path d="m463.423 11.551c-32.731-12.272-69.198 4.308-81.469 37.033l-124.351 331.6 57.693 83.251h46.253l138.904-370.415c12.272-32.724-4.307-69.199-37.03-81.469z" fill="#70dcba"/><path d="m302.299 315.06v-54.064l-79.658-212.414c-12.269-32.723-48.747-49.306-81.469-37.031-32.722 12.272-49.302 48.747-37.03 81.47l138.908 370.416c9.26 24.697 32.873 41.06 59.25 41.06 26.38 0 49.989-16.363 59.25-41.061-38.041-40.036-59.251-93.151-59.251-148.376z" fill="#30cd9c"/></g><g><path d="m237.5 419.526c0-32.516-14.645-61.608-37.697-81.048-8.171-6.891-8.73-19.297-1.172-26.855 8.827-8.827 2.612-23.956-9.871-23.956h-59.852l-52.217 55.211v161.619h98.536c14.923 0 29.155-6.593 38.569-18.172 14.82-18.229 23.704-41.475 23.704-66.799z" fill="#e8b5b1"/><path d="m87.189 421.33c-.552-33.212 14.177-62.998 37.616-82.798 8.191-6.919 8.818-19.329 1.236-26.911-8.827-8.827-2.61-23.954 9.873-23.954h-79.674c-12.483 0-18.7 15.127-9.873 23.954 7.582 7.582 6.955 19.992-1.236 26.911-23.439 19.8-38.169 49.586-37.616 82.798.411 24.724 9.371 47.39 24.005 65.222 9.401 11.456 23.559 17.945 38.378 17.945h60.089c-4.289-3.198-8.728-6.713-12.487-10.509-18.565-18.745-29.84-44.353-30.311-72.658z" fill="#d6948c"/></g><g><path d="m441.21 0c-29.339 0-55.975 18.469-66.278 45.95l-72.633 193.686-72.636-193.687c-10.304-27.481-36.939-45.949-66.281-45.949-49.11 0-83.625 49.362-66.264 95.655l69.193 184.512h-110.071c-18.978 0-28.786 23.155-15.177 36.758 4.475 4.473 4.068 11.79-.772 15.878-25.605 21.631-40.291 53.241-40.291 86.725 0 13.697 2.432 27.477 7.628 40.854 1.499 3.859 5.841 5.775 9.707 4.275 3.86-1.5 5.775-5.846 4.275-9.707-4.382-11.281-6.61-23.2-6.61-35.422 0-29.059 12.746-56.492 34.971-75.267 5.673-4.793 8.992-11.72 9.194-19.095h21.203c4.143 0 7.5-3.357 7.5-7.5s-3.357-7.5-7.5-7.5h-25.526c-.922-1.368-1.981-2.658-3.173-3.851-4.157-4.154-1.167-11.149 4.571-11.149h132.52c5.719 0 8.742 6.982 4.568 11.152-1.191 1.192-2.25 2.481-3.171 3.848h-25.528c-4.143 0-7.5 3.357-7.5 7.5s3.357 7.5 7.5 7.5h21.19c.192 7.366 3.495 14.277 9.148 19.044 41.298 34.83 46.654 96.001 13.01 137.382-7.959 9.79-19.896 15.404-32.749 15.404h-105.33c-12.777 0-24.652-5.541-32.585-15.208-.707-.86-1.4-1.735-2.08-2.622-2.518-3.287-7.223-3.913-10.515-1.394-3.288 2.519-3.912 7.226-1.394 10.515.783 1.023 1.584 2.033 2.396 3.021 10.791 13.149 26.893 20.692 44.178 20.692h105.33c29.68 0 48.533-20.104 60.318-47.209 11.358 30.277 38.604 47.209 66.753 47.209 29.34 0 55.973-18.46 66.272-45.931l124.047-330.796c1.454-3.879-.511-8.202-4.389-9.656-3.881-1.455-8.202.51-9.656 4.389l-124.047 330.797c-8.117 21.648-29.105 36.194-52.228 36.194-23.121 0-44.11-14.545-52.228-36.193l-7.245-19.321c8.028-40.572-6.581-82.083-38.188-108.739-4.773-4.026-5.192-11.33-.702-15.817 13.624-13.627 3.779-36.76-15.176-36.76h-6.428l-71.168-189.779c-13.714-36.568 13.619-75.384 52.219-75.384 23.123 0 44.115 14.552 52.236 36.212l79.181 211.141v3.026c0 4.143 3.357 7.5 7.5 7.5s7.5-3.357 7.5-7.5v-3.026l79.178-211.14c8.121-21.66 29.112-36.213 52.233-36.213 38.649 0 65.924 38.843 52.221 75.382l-4.324 11.53c-1.454 3.879.511 8.201 4.389 9.656 3.879 1.453 8.202-.511 9.656-4.389l4.324-11.53c3.003-8.007 4.524-16.367 4.524-24.845 0-38.306-31.194-70.808-70.79-70.808z"/><path d="m253.086 286.259c-4.393 5.04-12.196 5.035-16.584 0-2.721-3.124-7.459-3.449-10.581-.728-3.123 2.721-3.449 7.458-.728 10.581 10.369 11.901 28.842 11.89 39.201 0 2.722-3.123 2.396-7.86-.728-10.581s-7.859-2.397-10.58.728z"/><path d="m368.093 286.258c-4.391 5.041-12.197 5.037-16.585 0-2.723-3.122-7.461-3.447-10.582-.727-3.122 2.722-3.448 7.459-.727 10.582 10.371 11.899 28.839 11.89 39.202 0 2.722-3.123 2.396-7.86-.727-10.582-3.122-2.72-7.86-2.395-10.581.727z"/><path d="m313.859 294.422c-6.166 7.075-17.121 7.067-23.279 0-2.723-3.122-7.46-3.447-10.582-.727-3.122 2.722-3.448 7.459-.727 10.582 12.144 13.935 33.765 13.92 45.896 0 2.722-3.123 2.396-7.86-.727-10.582-3.124-2.721-7.861-2.395-10.581.727z"/></g></g></svg>