<svg id="Capa_1" enable-background="new 0 0 512 512" height="512" viewBox="0 0 512 512" width="512" xmlns="http://www.w3.org/2000/svg"><g><g><path d="m303.753 180.719c-7.512-19.854-26.525-32.989-47.753-32.989s-40.241 13.135-47.753 32.989l-19.695 52.055-58.235-153.921c-12.307-32.528-48.44-49.851-81.124-37.967-33.21 12.074-50.047 48.921-37.581 81.87l117.755 311.23c9.312 24.606 32.876 40.887 59.186 40.887s49.874-16.28 59.186-40.887l8.261-21.836h67.448v-179.376z" fill="#976bcf"/><path d="m462.807 40.885c-32.685-11.884-68.817 5.44-81.124 37.967l-125.683 333.298 8.262 21.837c9.312 24.606 32.875 40.887 59.186 40.887 26.31 0 49.874-16.28 59.186-40.887l117.755-311.23c12.465-32.95-4.372-69.797-37.582-81.872z" fill="#b28ae4"/></g><g fill="#ff8e9e"><path d="m176.023 315.312c-16.308-.036-29.552 10.464-29.58 23.451s13.169 23.544 29.477 23.58 29.552-10.463 29.58-23.45c.029-12.988-13.168-23.545-29.477-23.581z"/><path d="m336.079 315.663c-16.308-.036-29.552 10.463-29.58 23.45-.029 12.987 13.169 23.544 29.477 23.58s29.552-10.464 29.58-23.451c.029-12.987-13.168-23.544-29.477-23.579z"/></g><g><path d="m65.793 119.195 36.26-.633-.211-12.046" fill="#ffce71"/><path d="m46.188 147.414-28.773 11.046c-7.964 3.057-11.942 11.992-8.885 19.956l15.992 41.66c3.057 7.964 11.992 11.942 19.956 8.885l29.797-11.438z" fill="#ac6757"/><path d="m97.106 95.863c-3.76-9.795-14.747-14.69-24.548-10.927-9.796 3.761-14.688 14.752-10.927 24.548l4.552 11.874 35.475-13.621z" fill="#ffce71"/><path d="m191.36 156.3-15.992-41.66c-3.057-7.964-11.992-11.943-19.957-8.885l-23.428 8.726 26.011 70.906 24.481-9.13c7.964-3.057 11.942-11.992 8.885-19.957z" fill="#ce857a"/><g><path d="m147.313 203.9c-9.52 11.167-22.302 17.903-35.744 20.016-.128.02-.254.047-.382.066l-34.43-12.839-14.577-31.914 24.167-66.765 15.495-5.948c7.227-.068 14.477 1.2 21.373 3.801 6.21 2.342 12.131 5.765 17.471 10.319 4.645 3.96 8.524 8.486 11.623 13.388 5.182 8.195 8.183 17.444 8.933 26.872.166 2.083.21 4.174.156 6.265-.34 13.035-4.967 26.043-14.085 36.739z" fill="#ffce71"/><path d="m60.163 206.893c-26.385-26.929-21.149-71.791 11.429-91.715 9.334-5.708 19.807-8.562 30.25-8.661-31.528 34.485-27.252 88.394 9.345 117.466-18.413 2.768-37.351-3.134-51.024-17.09z" fill="#ffb357"/></g><path d="m101.856 136.521c18.591-.325 32.966 16.702 28.888 35.265-2.997 13.653-14.902 22.656-27.842 22.882-12.175.213-23.29-7.291-27.659-18.671-7.197-18.753 6.455-39.123 26.611-39.475.001-.001.001-.001.002-.001z" fill="#fff1d4"/></g><g><path d="m465.37 33.836c-36.805-13.382-77.073 6.344-90.701 42.361 0 .001-.001.003-.001.004s-.001.002-.001.004l-51.133 135.6-12.765-33.74c-8.562-22.631-30.571-37.836-54.768-37.836s-46.206 15.205-54.768 37.836l-12.68 33.515-9.81-25.928 6.418-2.394c11.556-4.433 17.822-17.624 13.2-29.646l-15.991-41.66c-4.455-11.609-17.703-17.788-29.577-13.227l-6.081 2.265-9.381-24.793c-13.606-35.961-53.848-55.764-90.701-42.361-27.891 10.141-46.629 36.88-46.629 66.539 0 8.549 1.546 16.972 4.596 25.036l9.894 26.149c-8.676 3.443-14.491 11.975-14.491 21.323 0 2.813.515 5.579 1.528 8.221l2.834 7.384c1.482 3.86 5.814 5.801 9.689 4.314 3.867-1.484 5.799-5.822 4.314-9.689l-2.834-7.385c-.354-.919-.532-1.876-.532-2.845 0-3.269 2.051-6.251 5.103-7.422l16.011-6.146c-2.144 21.731 6.47 42.398 22.246 56.284l-16.569 6.36c-4.202 1.616-8.743-.604-10.266-4.571l-2.406-6.269c-1.485-3.868-5.823-5.797-9.689-4.314-3.867 1.484-5.799 5.822-4.314 9.689l2.406 6.269c4.261 11.104 16.859 17.664 28.987 13.419l75.844 200.458c10.352 27.354 36.955 45.732 66.201 45.732 29.245 0 55.849-18.378 66.2-45.732l1.247-3.296 1.247 3.296c10.352 27.354 36.955 45.732 66.2 45.732 29.246 0 55.85-18.378 66.201-45.732l30.213-79.854c1.466-3.874-.486-8.203-4.36-9.669-3.873-1.469-8.203.485-9.669 4.36l-30.213 79.854c-8.157 21.558-29.124 36.041-52.172 36.041s-44.014-14.483-52.171-36.041l-8.262-21.837c-2.438-6.441-11.589-6.448-14.029 0l-8.262 21.837c-8.157 21.558-29.123 36.041-52.171 36.041s-44.015-14.483-52.172-36.041l-75.858-200.495 13.224-5.076c11.945 5.681 25.229 7.639 38.559 5.638 23.09-3.48 42.381-18.574 51.427-40.148l.955-.356 19.614 51.841c1.468 3.881 5.804 5.824 9.669 4.36 3.874-1.466 5.826-5.795 4.36-9.669l-1.76-4.651 18.69-49.401c6.369-16.834 22.74-28.145 40.738-28.145s34.369 11.311 40.738 28.145l18.789 49.662-1.861 4.936c-1.462 3.876.495 8.202 4.371 9.664 3.867 1.459 8.2-.488 9.664-4.371l60.997-161.758c10.739-28.38 42.448-44.152 71.547-33.572 21.986 7.992 36.757 29.066 36.757 52.44 0 6.73-1.22 13.368-3.626 19.728l-76.926 203.317c-1.466 3.874.486 8.203 4.36 9.669.874.331 1.771.487 2.653.487 3.028 0 5.881-1.848 7.016-4.848l76.926-203.318c3.05-8.063 4.597-16.485 4.597-25.036 0-29.657-18.739-56.397-46.63-66.538zm-307.269 78.919c4.207-1.615 8.744.609 10.266 4.572l15.993 41.665c1.625 4.226-.646 8.754-4.506 10.236l-11.39 4.248c.331-2.684.509-5.392.509-8.112 0-12.444-3.569-24.668-10.323-35.349-3.174-5.021-6.868-9.491-10.99-13.371zm-106.345-64.822c29.077-10.574 60.802 5.174 71.546 33.573l9.287 24.544c-7.984-4.04-16.834-6.403-26.188-6.894l-2.293-5.981c-5.098-13.278-20.27-20.597-34.239-15.241-13.343 5.124-20.573 20.354-15.241 34.235l1.961 5.114c-7.059 6.671-12.678 14.927-16.292 24.359l-11.806 4.532-9.864-26.071c-2.406-6.362-3.626-13-3.626-19.729 0-23.373 14.77-44.447 36.755-52.441zm17.333 60.056-.458-1.193c-2.335-6.084.874-12.654 6.612-14.857 6.141-2.353 12.673.918 14.858 6.61l.606 1.58c-7.715 1.378-15.012 4.062-21.618 7.86zm40.985 108.576c-37.729 5.657-68.577-29.9-56.737-66.844 13.289-41.433 69.193-48.766 92.635-11.689 5.234 8.279 8.001 17.73 8.001 27.333 0 25.833-18.464 47.366-43.899 51.2z"/><path d="m193.465 301.812c-4.143 0-7.5 3.357-7.5 7.5v12c0 4.143 3.357 7.5 7.5 7.5s7.5-3.357 7.5-7.5v-12c0-4.143-3.358-7.5-7.5-7.5z"/><path d="m318.362 301.812c-4.143 0-7.5 3.357-7.5 7.5v12c0 4.143 3.357 7.5 7.5 7.5s7.5-3.357 7.5-7.5v-12c0-4.143-3.357-7.5-7.5-7.5z"/><path d="m277.507 328.467c0 3.835-3.12 6.955-6.955 6.955-3.836 0-6.956-3.12-6.956-6.955 0-4.143-3.357-7.5-7.5-7.5s-7.5 3.357-7.5 7.5c0 3.835-3.12 6.955-6.955 6.955-3.836 0-6.956-3.12-6.956-6.955 0-4.143-3.357-7.5-7.5-7.5s-7.5 3.357-7.5 7.5c0 18.83 22.278 28.899 36.411 16.504 14.124 12.385 36.411 2.338 36.411-16.504 0-4.143-3.357-7.5-7.5-7.5s-7.5 3.358-7.5 7.5z"/><path d="m77.235 139.057c-10.348 9.867-14.49 25.296-8.995 39.625.001.001.001.002.001.003 5.552 14.453 19.631 23.76 34.792 23.481 20.229-.353 35.908-16.866 35.908-36.734 0-31.999-38.732-48.284-61.706-26.375zm5.01 34.253c-3.264-8.516-.766-17.574 5.342-23.397 13.552-12.926 36.354-3.188 36.354 15.52 0 24.347-33.216 29.953-41.696 7.877z"/></g></g></svg>