<svg id="Capa_1" enable-background="new 0 0 512 512" height="512" viewBox="0 0 512 512" width="512" xmlns="http://www.w3.org/2000/svg"><g><g><path d="m159.507 141.16c-19.385-29.078-58.673-36.936-87.751-17.55s-36.936 58.673-17.55 87.751l64.971 97.457-64.972 97.458c-19.541 29.311-11.4 68.995 18.253 88.212 29.184 18.913 68.281 10.139 87.572-18.797l35.198-52.796v-228.153z" fill="#30cd9c"/><path d="m271.279 308.818 64.971-97.457c19.385-29.078 11.528-68.365-17.55-87.751-29.078-19.385-68.365-11.528-87.751 17.55l-35.721 53.582c-46.053 69.079-46.053 159.073 0 228.152l35.198 52.796c19.291 28.937 58.388 37.71 87.572 18.797 29.653-19.217 37.793-58.901 18.253-88.212z" fill="#70dcba"/></g><g fill="#ff8e9e"><ellipse cx="135.169" cy="264.081" rx="24.941" ry="19.5"/><ellipse cx="255.288" cy="264.081" rx="24.941" ry="19.5"/></g><g><g><path d="m437.432 110.092c-19.883-46.98-56.495-82.645-99.894-96.395h-58.586v99.885h18.952 69.484l30 24.523c19.72 18.347 50.542-3.209 40.044-28.013z" fill="#ff8e9e"/><path d="m298.701 7.5c-43.92 0-87.303 43.731-87.303 106.083h67.555c0-15.032 3.26-29.354 7.958-42.31 9.69-26.717 27.628-47.692 50.627-57.576-13.701-4.341-28.278-6.197-38.837-6.197z" fill="#ea5b70"/></g><ellipse cx="423.222" cy="140.743" fill="#d4d4ff" rx="45.259" ry="45.259" transform="matrix(.634 -.773 .773 .634 46.062 378.809)"/></g><g><path d="m401.137 152.596c-20.505-47.859-64.022-79.144-112.467-85.884l-33.382 20.394v40.897l32.651 20.264c17.276 5.408 32.057 18.081 39.663 35.834 8.705 20.316 32.224 29.71 52.521 21.015 20.305-8.7 29.714-32.215 21.014-52.52z" fill="#efedff"/><path d="m288.67 66.711c-20.923-2.911-42.763-1.25-64.068 5.641-21.019 6.8-32.546 29.351-25.747 50.37 6.799 21.017 29.341 32.546 50.37 25.747 13.054-4.224 26.506-4.024 38.714-.203-21.349-22.632-21.184-59.178.731-81.555z" fill="#d4d4ff"/></g><g><path d="m435.835 89.531c-4.429-8.18-9.403-16.001-14.821-23.289-2.472-3.324-7.169-4.018-10.493-1.544-3.324 2.471-4.016 7.169-1.544 10.493 3.105 4.178 6.049 8.555 8.82 13.08-11.264 1.189-21.817 6.035-30.09 13.548-6.175-26.706-22.63-48.856-23.484-49.993-2.488-3.31-7.185-3.973-10.494-1.489-3.312 2.484-3.981 7.185-1.5 10.498.167.221 12.18 16.456 18.695 36.601-36.513-33.177-88.935-48.163-140.463-34.609 14.418-28.786 40.814-47.827 68.24-47.827 32.443 0 64.857 13.76 91.271 38.744 3.01 2.847 7.756 2.713 10.603-.294 2.847-3.01 2.715-7.757-.294-10.603-29.212-27.63-65.286-42.847-101.58-42.847-18.563 0-37.538 7.184-53.432 20.228-15.525 12.742-27.346 30.132-34.331 50.41-13.353 8.712-21.537 23.684-21.537 39.767 0 17.296 9.459 33.506 25.118 41.877l-19.292 28.939-29.48-44.222c-21.684-32.526-65.625-41.316-98.152-19.631-32.69 21.793-41.216 65.772-19.63 98.151l62.198 93.297-27.445 41.168c-2.298 3.446-1.366 8.103 2.08 10.4 3.444 2.297 8.101 1.369 10.4-2.08l27.991-41.987h1.987c4.143 0 7.5-3.357 7.5-7.5s-3.357-7.5-7.5-7.5h-1.986l-62.746-94.118c-16.99-25.486-10.325-60.154 15.47-77.351 25.685-17.124 60.297-10.11 77.352 15.471l34.461 51.692v3.73c0 4.143 3.357 7.5 7.5 7.5s7.5-3.357 7.5-7.5v-3.73l26.485-39.729c7.417 1.215 15.09.661 22.319-1.677 27.755-8.981 57.681 4.625 69.175 31.45 2.677 6.248 6.637 11.802 11.606 16.34-1.644 2.964 2.802-3.854-65.049 97.922h-1.986c-4.143 0-7.5 3.357-7.5 7.5s3.357 7.5 7.5 7.5h1.987l62.745 94.117c24.497 36.749-1.699 86.564-45.908 86.564-19.07 0-36.804-9.521-47.437-25.471l-33.938-50.906v-3.729c0-4.143-3.357-7.5-7.5-7.5s-7.5 3.357-7.5 7.5v3.729l-33.938 50.906c-10.63 15.951-28.362 25.473-47.433 25.473-44.137 0-70.458-49.739-45.909-86.565l18.112-27.168c2.298-3.446 1.366-8.103-2.08-10.4s-8.103-1.366-10.4 2.08l-18.112 27.168c-31.163 46.743 2.262 109.885 58.389 109.885 24.098 0 46.496-12.02 59.916-32.151l28.957-43.436 28.957 43.436c13.421 20.132 35.819 32.15 59.917 32.15 56.257 0 89.47-63.258 58.389-109.885l-62.198-93.298c67.756-101.634 62.754-94.002 64.575-97.165 11.897 5.373 25.718 5.708 38.207.358 10.002-4.284 18.151-11.862 23.2-21.342 34.476 11.715 69.706-14.155 69.706-49.925 0-24.513-16.67-45.47-40.146-51.211zm-58.665 108.691c-16.648 7.128-35.674-.737-42.675-17.074-14.569-34.004-52.501-51.163-87.577-39.814-21 6.791-42.516-8.946-42.516-30.929 0-13.807 8.818-26.489 22.507-30.916 66.709-21.571 139.495 11.087 167.334 76.062v.001c7.09 16.538-.66 35.639-17.073 42.67zm33.983-21.719c1.578-8.988.582-18.223-3.123-26.862-4.436-10.353-10-20.168-16.567-29.247 20.437-31.676 69.518-17.333 69.518 20.347 0 25.779-25.447 44.069-49.828 35.762z"/><path d="m155.279 248.454v-12c0-4.143-3.357-7.5-7.5-7.5s-7.5 3.357-7.5 7.5v12c0 4.143 3.357 7.5 7.5 7.5s7.5-3.357 7.5-7.5z"/><path d="m242.677 255.954c4.143 0 7.5-3.357 7.5-7.5v-12c0-4.143-3.357-7.5-7.5-7.5s-7.5 3.357-7.5 7.5v12c0 4.143 3.357 7.5 7.5 7.5z"/><path d="m213.383 253.928c2.722-3.123 2.396-7.86-.727-10.582s-7.86-2.396-10.582.727c-3.629 4.164-10.067 4.159-13.691 0-2.723-3.122-7.46-3.447-10.582-.727-3.122 2.722-3.448 7.459-.727 10.582 9.607 11.023 26.711 11.012 36.309 0z"/></g></g></svg>