<svg id="Capa_1" enable-background="new 0 0 512 512" height="512" viewBox="0 0 512 512" width="512" xmlns="http://www.w3.org/2000/svg"><g><path d="m382.974 18.064c-29.113-19.314-68.392-11.373-87.711 17.747l-70.743 106.628v133.38h63.388l112.812-170.04c19.323-29.123 11.377-68.393-17.746-87.715z" fill="#ffce71"/><path d="m224.52 142.439-70.744-106.628c-19.319-29.124-58.598-37.061-87.711-17.747-29.123 19.321-37.069 58.592-17.746 87.714l113.03 170.366v164.123c0 34.779 27.667 63.768 62.443 64.217 35.333.456 64.116-28.048 64.116-63.274v-165.39c-38.189-30.123-63.388-76.552-63.388-133.381z" fill="#ffb357"/><g fill="#ff8e9e"><ellipse cx="164.46" cy="211.264" rx="24.941" ry="19.5"/><ellipse cx="284.579" cy="211.264" rx="24.941" ry="19.5"/></g><g><path d="m463.279 347.646-55.838-21.676-37.675-62.082c-6.401-1.079-12.973-1.648-19.677-1.648-3.997 0-7.771.206-11.663.595l-.121 106.656h128.998c-.659-7.507-2.022-14.81-4.024-21.845z" fill="#ffb5c0"/><path d="m338.426 264.187c-.165-.455.178-.904 0-1.352-10.534 1.053-20.825 3.489-30.344 7.128l-21.568 54.65-48.148 18.305c-3.855 11.643-5.947 24.08-5.947 36.991 0 13.587 2.309 26.629 6.543 38.765l61.8 28.064 36.457 50.137c4.228.46 8.52.704 12.87.704 20.824 0 40.382-5.42 57.352-14.914l7.176-30.074c7.058 15.75 16.008 30.809 26.816 44.84 3.831 4.974 9.967 7.621 16.21 6.958 14.92-1.583 21.264-18.079 12.794-29.062-13.882-18-24.26-38.225-30.787-59.7l26.315-15.165c1.176-6.675 1.793-13.542 1.793-20.553 0-3.511-.154-6.986-.455-10.419-.471-.09-.944-.176-1.42-.251-58.307-9.277-107.36-49.531-127.457-105.052z" fill="#ff8e9e"/><g><path d="m431.324 279.154c-11.67-9.431-27.82-2.252-29.597 11.503-2.088 15.721-6.03 30.779-11.685 45.04v19.682h31.343c8.097-18.702 13.759-38.85 16.48-59.842.809-6.226-1.658-12.436-6.541-16.383z" fill="#ffb5c0"/><g fill="#fad5cb"><path d="m390.662 256.982c-12.149-4.008-23.492 4.662-24.004 16.282-.495 11.208-2.231 22.262-5.156 32.99v29.467h28.54c7.525-18.925 12.079-39.401 13.046-60.889.356-8.055-4.769-15.324-12.426-17.85z"/><path d="m465.805 321.889c-7.679-15.281-29.169-13.291-33.899 3.454-2.81 10.347-6.338 20.375-10.521 30.035v11.958h34.535c4.491-10.683 8.229-21.546 11.203-32.48 1.18-4.338.701-8.95-1.318-12.967z"/></g></g><g><path d="m344.393 402.82h-63.655c-10.449 4.985-21.561 8.802-33.167 11.287-11.632 2.49-17.606 15.495-12.063 26.02 4.211 7.994 12.505 11.188 20.033 9.563 5.68-1.226 14.862-3.86 14.144-3.587h38.788v24.329c-13.866 7.473-12.19 28.323 3.237 33.105 4.932 1.529 9.432 1.163 13.471-.706 18.39-8.504 35.607-19.067 51.486-31.577v-49.081z" fill="#ffb39d"/><path d="m376.667 422.174v-19.354h-32.274c-20.902 19.808-46.391 34.823-74.709 43.283-12.514 4.767-15.898 21.343-5.684 30.446 5.226 4.658 11.77 5.798 17.612 4.006 21.739-6.668 34.248-14.106 26.86-10.122 25.722-11.714 48.826-28.173 68.195-48.259z" fill="#ff8e9e"/></g><g><g fill="#ffb39d"><path d="m421.385 355.379h-26.267v45.216l47.262-5.698c5.103-8.999 9.616-18.208 13.549-27.562-12.047-2.695-23.625-6.733-34.544-11.956z"/><path d="m361.502 306.273c-2.993 10.974-7.233 21.599-12.677 31.703l17.362 40.435h23.864v-42.689c-10.687-8.544-20.291-18.432-28.549-29.449z"/></g><path d="m390.05 335.722c-6.032 15.208-14.031 29.496-23.864 42.689l10.481 24.409 18.451-2.224c10.305-13.74 19.215-28.926 26.267-45.216-11.182-5.354-21.716-11.967-31.335-19.658z" fill="#ff8e9e"/></g><g><path d="m461.169 398.867c-69.04-10.986-126.815-58.747-150.605-124.47-3.239-8.948-13.664-12.892-22.03-8.357-7.399 4.011-9.92 12.182-7.432 19.053 1.056 2.915 2.421 6.372 3.156 8.209-4.184-10.235-17.442-13.074-25.295-5.285-5.027 4.985-5.948 11.637-3.688 17.179 2.665 6.536 5.719 13.018 7.082 15.836-5.795-11.187-21.842-11.175-27.613.137-2.531 4.96-2.293 10.025-.227 14.222 36.555 74.249 102.973 128.176 181.036 149.639 4.703 1.293 9.749.323 13.608-2.66 10.644-8.228 7.113-23.891-4.781-27.399 3.104.828 10.081 2.613 16.942 3.987 6.125 1.227 12.42-1.3 15.928-6.469 6.656-9.809.993-22.101-9.863-24.272 2.005.389 5.781 1.103 8.83 1.588 7.563 1.205 14.887-3.296 17.21-10.594 3.117-9.794-3.219-18.905-12.258-20.344z" fill="#fad5cb"/><path d="m284.258 293.302c-4.184-10.235-17.442-13.074-25.295-5.285-5.027 4.985-5.948 11.637-3.688 17.179 2.665 6.536 5.719 13.018 7.082 15.836 32.067 65.199 91.812 114.511 162.022 133.938 3.104.828 10.081 2.613 16.942 3.987 6.125 1.227 12.42-1.3 15.928-6.469 6.656-9.809.993-22.101-9.863-24.272-71.739-15.672-135.296-66.58-163.128-134.914z" fill="#ffb5c0"/></g></g><g><path d="m153.849 404.883c0 4.143 3.357 7.5 7.5 7.5s7.5-3.357 7.5-7.5v-128.749c0-1.475-.435-2.917-1.25-4.146l-113.03-170.366c-6.088-9.177-9.307-19.819-9.307-30.779 0-31.198 25.34-55.843 55.728-55.843 18.778 0 36.175 9.325 46.537 24.946l69.493 104.745v2.294c0 4.143 3.357 7.5 7.5 7.5s7.5-3.357 7.5-7.5v-2.294l69.493-104.745c10.363-15.621 27.761-24.946 46.541-24.946 30.343 0 55.725 24.602 55.725 55.843 0 10.959-3.219 21.602-9.308 30.779l-15.743 23.729c-2.29 3.452-1.348 8.106 2.104 10.396 3.45 2.288 8.105 1.347 10.396-2.104l15.743-23.729c7.725-11.644 11.808-25.154 11.808-39.072 0-39.448-32.021-70.842-70.725-70.842-23.82 0-45.892 11.833-59.041 31.653l-64.493 97.208-64.493-97.208c-13.148-19.82-35.219-31.653-59.037-31.653-38.676 0-70.728 31.365-70.728 70.843 0 13.919 4.083 27.43 11.808 39.072l111.779 168.48z"/><path d="m169.571 183.637v12c0 4.143 3.357 7.5 7.5 7.5s7.5-3.357 7.5-7.5v-12c0-4.143-3.357-7.5-7.5-7.5s-7.5 3.357-7.5 7.5z"/><path d="m264.469 183.637v12c0 4.143 3.357 7.5 7.5 7.5s7.5-3.357 7.5-7.5v-12c0-4.143-3.357-7.5-7.5-7.5s-7.5 3.357-7.5 7.5z"/><path d="m231.366 191.255c-3.629 4.164-10.067 4.159-13.691 0-2.723-3.122-7.46-3.447-10.582-.727-3.122 2.722-3.448 7.459-.727 10.582 9.607 11.023 26.711 11.012 36.309 0 2.722-3.123 2.396-7.86-.727-10.582-3.123-2.721-7.86-2.396-10.582.727z"/><path d="m464.997 454.116c2.93-5.669 3.43-12.038 1.38-17.999 6.566-2.372 11.976-7.651 14.195-14.622 2.965-9.316.082-18.559-6.488-24.44 2.279-16.644 1.213-33.281-2.99-49.188 1.166-3.655 2.259-7.333 3.266-11.036 1.709-6.285.912-12.795-1.854-18.3-5.551-11.05-16.877-16.347-28.424-13.9 1.101-6.654 4.93-20.808-8.049-31.298-7.84-6.337-17.578-7.458-25.906-4.095-2.368-12.25-13.188-20.739-25.509-20.739-6.98 0-13.307 2.805-17.913 7.37-19.361-2.577-38.693-.66-56.816 5.487-.746-.566-1.524-1.094-2.339-1.568l67.091-101.125c2.29-3.452 1.348-8.106-2.104-10.396s-8.106-1.348-10.396 2.104l-70.839 106.775c-9.246 1.909-16.811 9.384-18.342 19.15-16.326-2.281-29.808 13.124-25.568 28.916-16.805.866-26.803 18.881-19.604 33.501.815 1.656 1.664 3.291 2.508 4.927-7.151 23.619-7.28 49.197.264 73.46-5.69 8.131-6.027 18.293-1.69 26.532 4.518 8.574 12.8 13.75 22.234 13.958-2.143 9.783 1.308 19.752 9.719 26.045-36.441 31.032-91.975 4.606-91.975-43.359v-5.374c0-4.143-3.357-7.5-7.5-7.5s-7.5 3.357-7.5 7.5v5.374c0 39.251 31.711 71.722 70.78 71.722 19.647 0 38.576-8.27 51.933-22.688.139-.15.265-.308.39-.466 3.963-.105 6.567-.86 14.611-3.642-.015.364-.039.726-.039 1.094 0 15.063 12.029 25.702 26.193 25.702 6.518 0 10.534-2.06 20.958-7.442 24.672 2.241 48.758-2.857 69.602-13.816 1.758.519 3.515 1.043 5.286 1.53 4.604 1.267 9.588 1.095 14.343-.713 2.435 3.555 4.965 7.06 7.583 10.46 4.813 6.251 12.385 9.982 20.253 9.982 22.208 0 33.36-24.74 20.633-41.243-4.094-5.311-7.898-10.899-11.377-16.64zm-25.695-127.341c2.553-8.918 15.014-11.04 19.801-1.511 1.156 2.302 1.496 5.015.783 7.632-1.131 4.159-2.376 8.287-3.719 12.382-.01.029-.02.059-.029.088-4.611 14.036-10.457 27.669-17.461 40.714-6.984-2.078-13.795-4.57-20.421-7.427 9.159-16.472 16.198-33.819 21.046-51.878zm20.381 64.224c-2.021-.352-4.032-.736-6.032-1.153 2.307-4.445 4.493-8.95 6.546-13.513.147 4.593.037 9.155-.514 14.666zm-50.523-99.368c1.012-7.835 10.27-12.429 17.445-6.631 2.882 2.329 4.287 5.942 3.818 9.585-3.532 27.217-12.156 53.422-25.715 77.576-6.343-3.371-12.464-7.112-18.351-11.18 12.288-22.161 19.774-46.059 22.803-69.35zm-35.009-18.027c.249-5.666 4.848-10.104 10.468-10.104 6.352 0 11.276 5.061 10.977 11.013-1.193 27.055-8.562 53.615-21.359 77.351-5.74-4.706-11.187-9.767-16.328-15.137 9.796-19.743 15.263-40.948 16.242-63.123zm-14.707-3.454c-.684 4.471-.072 26.638-12.325 54.272-11.923-14.891-21.616-31.737-28.557-50.089 13.162-3.929 27.008-5.359 40.882-4.183zm-63.496 1.503c3.011 0 6.279 1.76 7.564 5.307 24.743 68.36 84.85 117.927 156.478 129.324 4.568.727 7.997 5.296 6.289 10.661-1.188 3.732-5.014 6.074-8.883 5.463-77.628-12.37-142.478-65.961-169.242-139.859-2.022-5.582 2.521-10.896 7.794-10.896zm-41.987 170.715c-4.545.982-9.292-.933-11.817-5.727-3.249-6.172.218-13.742 6.997-15.191 10.232-2.19 20.239-5.414 29.829-9.585 5.305 5.551 10.822 10.888 16.537 16-13.187 6.521-27.118 11.389-41.546 14.503zm-12.732-79.384c8.072 13.104 17.124 25.489 27.049 37.07-7.227 2.839-14.682 5.103-22.277 6.729-.886.189-1.746.44-2.593.72-3.615-14.007-4.557-29.152-2.179-44.519zm38.183 110.411c-3.602 1.106-7.432.229-10.422-2.435-6.22-5.545-3.739-15.689 4.091-18.089.05-.015.096-.037.146-.053 11.992-3.687 23.591-8.526 34.667-14.47 6.121 4.897 12.438 9.55 18.937 13.947-14.897 8.92-30.8 16.002-47.419 21.1zm42.621 22.639c-2.521 1.166-5.129 1.271-8.103.35-9.27-2.873-10.049-15.616-1.226-19.687.047-.021.089-.048.135-.071 9.672-4.469 19.035-9.607 28.027-15.393 6.908 4.124 13.989 7.979 21.239 11.535-12.602 8.956-26.028 16.771-40.072 23.266zm42.833-6.951c4.387-2.941 8.683-6.013 12.885-9.209 3.128 1.313 6.287 2.563 9.467 3.77-7.228 2.583-14.724 4.407-22.352 5.439zm52.675-11.275c-76.848-21.129-141.104-74.242-176.295-145.72-2.53-5.138 1.066-11.918 7.356-11.918h.064c3.092.023 5.756 1.702 7.126 4.49l.014-.007c16.348 33.22 39.711 62.883 68.306 86.537 28.641 23.692 62.219 41.094 97.985 50.912l-.004.015c3.005.823 5.157 3.128 5.759 6.167 1.158 5.841-4.472 11.126-10.311 9.524zm-155.322-175.436c-2.393-5.866 2.807-12.434 9.171-11.134 2.721.556 4.883 2.349 5.931 4.921l.006-.002c29.249 71.805 92.68 124.23 168.716 139.441l-.001.007c5.386 1.076 8.665 7.282 5.001 12.682-1.807 2.662-5.046 3.967-8.248 3.326-81.629-16.354-149.134-72.144-180.576-149.241zm194.632 194.569c-3.589.387-7.256-1.193-9.477-4.077-2.728-3.542-5.361-7.201-7.872-10.917 2.816-4.529 4.014-9.878 3.28-15.236 4.005.287 7.789-.462 11.144-1.979 3.287 5.22 6.814 10.311 10.573 15.184 4.839 6.278 1.559 16.048-7.648 17.025z"/></g></g></svg>