<svg id="Capa_1" enable-background="new 0 0 511.975 511.975" height="512" viewBox="0 0 511.975 511.975" width="512" xmlns="http://www.w3.org/2000/svg"><g><g><path d="m435.249 40.919c-11.012-20.574-32.454-33.419-55.792-33.419h-158.814l-55.89 28.022v70.515l55.89 28.022h40.576l-146.798 243.857h136.334l181.352-272.037c12.948-19.417 14.154-44.383 3.142-64.96z" fill="#55dafe"/><g fill="#1cbbea"><path d="m220.643 7.5h-50.028-38.098c-34.949 0-63.28 28.331-63.28 63.279s28.33 63.279 63.28 63.279h88.126c-34.949-34.948-34.949-91.61 0-126.558z"/><path d="m379.457 377.916h-128.702c-31.025 0-53.298-29.877-44.438-59.61l54.901-184.247-181.352 272.036c-12.947 19.418-14.153 44.384-3.141 64.96 11.012 20.575 32.454 33.42 55.792 33.42h246.941c34.949 0 63.28-28.331 63.28-63.279s-28.331-63.28-63.281-63.28z"/></g></g><g><path d="m255.986 82.13c-16.662 0-30.17 13.507-30.17 30.17h60.339c0-16.663-13.507-30.17-30.169-30.17z" fill="#4c5699"/><path d="m237.078 215.512-34.726-97.055c17.191-6.764 35.199-10.201 53.525-10.214h.109c18.365 0 36.411 3.437 53.636 10.214l-34.729 97.055c-6.082-2.394-12.444-3.607-18.907-3.607h-.073c-6.414.005-12.763 1.219-18.835 3.607z" fill="#676fb2"/></g><g><g><path d="m182.742 105.048h-18.643c-9.189 0-17.662 4.963-22.156 12.977l-35.798 63.838 35.798 63.838c4.494 8.015 12.967 12.977 22.156 12.977h18.643c36.01-7.031 63.188-38.747 63.188-76.815s-27.178-69.784-63.188-76.815z" fill="#ffce71"/><path d="m119.554 181.863c0-38.068 27.178-69.784 63.188-76.815-4.882-.953-9.924-1.458-15.085-1.458-43.229 0-78.273 35.044-78.273 78.273s35.044 78.273 78.273 78.273c5.161 0 10.203-.505 15.085-1.458-36.01-7.031-63.188-38.747-63.188-76.815z" fill="#ffb357"/></g><g><path d="m187.77 138.182h-13.409l-27.991 43.68 27.991 43.68h13.409c16.505-7.63 27.991-24.334 27.991-43.68s-11.486-36.049-27.991-43.68z" fill="#b9f0ff"/><path d="m159.78 181.863c0-19.346 11.486-36.05 27.991-43.68-6.124-2.831-12.934-4.423-20.113-4.423-26.525 0-48.104 21.579-48.104 48.104s21.579 48.104 48.104 48.104c7.179 0 13.989-1.592 20.113-4.423-16.506-7.632-27.991-24.336-27.991-43.682z" fill="#7ce3ff"/></g></g><g><g><path d="m359.401 105.048h-18.643c-9.189 0-17.662 4.963-22.156 12.977l-35.798 63.838 35.798 63.838c4.494 8.015 12.967 12.977 22.156 12.977h18.643c36.01-7.031 63.188-38.747 63.188-76.815s-27.178-69.784-63.188-76.815z" fill="#ffce71"/><path d="m296.213 181.863c0-38.068 27.178-69.784 63.188-76.815-4.882-.953-9.924-1.458-15.085-1.458-43.229 0-78.273 35.044-78.273 78.273s35.044 78.273 78.273 78.273c5.161 0 10.203-.505 15.085-1.458-36.01-7.031-63.188-38.747-63.188-76.815z" fill="#ffb357"/></g><g><path d="m364.429 138.182h-13.409l-27.991 43.68 27.991 43.68h13.409c16.505-7.63 27.991-24.334 27.991-43.68s-11.486-36.049-27.991-43.68z" fill="#b9f0ff"/><path d="m336.439 181.863c0-19.346 11.486-36.05 27.991-43.68-6.124-2.831-12.935-4.423-20.113-4.423-26.525 0-48.104 21.579-48.104 48.104s21.579 48.104 48.104 48.104c7.178 0 13.989-1.592 20.113-4.423-16.506-7.632-27.991-24.336-27.991-43.682z" fill="#7ce3ff"/></g></g><g><path d="m379.458 370.416h-114.722l68.699-103.49c3.602.456 7.241.709 10.882.709 47.295 0 85.772-38.478 85.772-85.773 0-14.915-3.841-29.414-11.132-42.262l19.391-29.559c7.831-11.744 11.97-25.234 11.97-39.012 0-9.547-1.922-18.902-5.713-27.806-1.622-3.812-6.027-5.587-9.838-3.963-3.812 1.622-5.586 6.027-3.963 9.838 7.284 17.111 5.844 36.454-4.968 52.667l-16.126 24.582c-16.207-19.116-39.952-30.257-65.394-30.257-15.625 0-30.273 4.22-42.904 11.549-2.788-.865-5.594-1.649-8.415-2.353-3.26-17.596-18.519-30.657-37.012-30.657-18.494 0-33.754 13.061-37.013 30.658-2.82.703-5.625 1.487-8.411 2.352-12.631-7.33-27.28-11.55-42.905-11.55-23.365 0-44.566 9.401-60.051 24.606-18.861-9.408-30.869-28.63-30.869-49.917.001-30.756 25.023-55.778 55.78-55.778h246.941c13.402-.001 25.777 4.475 35.787 12.943 3.161 2.677 7.894 2.28 10.569-.882s2.281-7.895-.882-10.569c-12.753-10.79-28.477-16.493-45.473-16.492h-246.942c-39.027 0-70.779 31.752-70.779 70.779 0 25.768 13.862 49.154 35.916 61.615-9.916 13.991-15.768 31.054-15.768 49.468 0 45.679 35.894 83.123 80.957 85.63l-89.217 134.442c-11.548 17.318-14.895 38.123-9.363 57.961 1.112 3.981 5.239 6.322 9.24 5.209 3.989-1.113 6.321-5.25 5.209-9.24-4.382-15.704-1.681-31.997 7.403-45.622l95.379-143.73c26.96-4.367 49.913-21.049 62.429-45.386 7.92-2.267 16.229-2.264 24.146.007 10.385 20.125 28.366 35.339 49.682 42.298l-72.175 108.726-5.282 2.748c-3.675 1.911-5.104 6.44-3.192 10.114 1.908 3.67 6.434 5.107 10.114 3.192l5.373-2.795h126.869c30.757 0 55.779 25.022 55.779 55.779s-25.022 55.779-55.779 55.779h-246.941c-15.941 0-30.543-6.427-41.115-18.097-2.781-3.07-7.524-3.303-10.594-.523-3.07 2.781-3.304 7.524-.523 10.594 13.453 14.849 32.003 23.026 52.232 23.026h246.941c39.028 0 70.779-31.751 70.779-70.779.001-39.027-31.75-70.779-70.778-70.779zm-103.227-268.322c-13.298-1.774-26.794-1.83-40.49 0 8.313-16.628 32.197-16.587 40.49 0zm-100.03 150.028c-2.818.341-5.693.514-8.544.514-39.024 0-70.772-31.749-70.772-70.773s31.748-70.772 70.772-70.772c51.613 0 86.033 53.862 64.156 100.686-10.426 22.312-31.216 37.395-55.612 40.345zm74.156-47.42c8.256-29.882-.134-63.114-24.358-85.635 19.577-4.359 39.727-4.506 59.974 0-24.2 22.499-32.627 55.729-24.349 85.635-3.748-.361-7.518-.361-11.267 0zm29.82 7.08c-21.911-46.875 12.563-100.692 64.14-100.692 39.183 0 70.772 31.757 70.772 70.772 0 39.024-31.748 70.773-70.772 70.773-4.584 0-9.169-.44-13.626-1.31-22.069-4.303-40.953-19.086-50.514-39.543z"/><path d="m167.657 126.259c-30.66 0-55.604 24.943-55.604 55.604s24.943 55.604 55.604 55.604 55.604-24.943 55.604-55.604-24.944-55.604-55.604-55.604zm0 96.207c-22.389 0-40.604-18.215-40.604-40.604s18.215-40.604 40.604-40.604 40.604 18.215 40.604 40.604-18.216 40.604-40.604 40.604z"/><path d="m399.92 181.862c0-30.66-24.943-55.604-55.604-55.604s-55.604 24.943-55.604 55.604 24.943 55.604 55.604 55.604 55.604-24.944 55.604-55.604zm-96.207 0c0-22.389 18.215-40.604 40.604-40.604s40.604 18.215 40.604 40.604-18.215 40.604-40.604 40.604-40.604-18.215-40.604-40.604z"/><path d="m166.49 169.844c-4.143 0-7.5 3.357-7.5 7.5v12c0 4.143 3.357 7.5 7.5 7.5s7.5-3.357 7.5-7.5v-12c0-4.143-3.358-7.5-7.5-7.5z"/><path d="m348.887 189.344v-12c0-4.143-3.357-7.5-7.5-7.5s-7.5 3.357-7.5 7.5v12c0 4.143 3.357 7.5 7.5 7.5s7.5-3.358 7.5-7.5z"/><path d="m278.056 253.913c2.722-3.122 2.396-7.86-.728-10.581s-7.86-2.396-10.581.728c-5.725 6.569-15.899 6.564-21.619 0-2.721-3.124-7.459-3.448-10.581-.728-3.123 2.721-3.449 7.459-.728 10.581 11.703 13.431 32.546 13.419 44.237 0z"/></g></g></svg>