<svg id="Capa_1" enable-background="new 0 0 512 512" height="512" viewBox="0 0 512 512" width="512" xmlns="http://www.w3.org/2000/svg"><g><g><path d="m333.22 116.418c-24.532 0-44.49 19.958-44.49 44.489v190.186c0 24.531 19.958 44.489 44.49 44.489s44.49-19.958 44.49-44.489c0-10.025 0-180.083 0-190.186 0-24.531-19.958-44.489-44.49-44.489z" fill="#bd7669"/><g><path d="m460.01 116.418c-24.532 0-44.49 19.958-44.49 44.489v50.604h-37.81c-24.571 24.571-24.571 64.409 0 88.979h37.81v50.603c0 24.531 19.958 44.489 44.49 44.489s44.49-19.958 44.49-44.489v-190.186c0-24.531-19.958-44.489-44.49-44.489z" fill="#d6948c"/></g></g><g><path d="m246.778 291.869c-17.3-17.394-45.522-17.474-62.918-.175-19.984 19.874-52.504 19.876-72.49 0-9.547-9.494-14.824-22.31-14.884-35.694.054-13.393 5.332-26.194 14.884-35.693 19.987-19.874 52.507-19.877 72.49-.001 17.417 17.32 45.58 17.264 62.919-.174 17.338-17.435 17.263-45.577-.175-62.918-26.627-26.48-61.4-40.036-96.371-40.681l-71.366 31.829v107.638 106l68.749 33.508c37.43 0 72.584-14.461 98.988-40.72 17.435-17.338 17.515-45.481.174-62.919z" fill="#d6948c"/><g><path d="m96.48 256c0-.069.005.069.005 0 .406-49.872 18.352-99.802 53.747-139.467-36.716-.677-73.65 12.878-101.606 40.68-26.519 26.372-41.125 61.455-41.126 98.787 0 37.331 14.605 72.414 41.127 98.788 26.406 26.259 61.562 40.72 98.988 40.72-34.424-40.066-51.43-89.96-51.129-139.508 0-.077-.006.076-.006 0z" fill="#bd7669"/></g></g><g><path d="m504.5 188.985c4.143 0 7.5-3.357 7.5-7.5v-20.578c0-28.667-23.322-51.989-51.99-51.989s-51.99 23.322-51.99 51.989v43.104h-22.81v-43.104c0-28.667-23.322-51.989-51.99-51.989s-51.99 23.322-51.99 51.989v190.186c0 28.667 23.322 51.989 51.99 51.989s51.99-23.322 51.99-51.989v-43.103h22.81v43.103c0 28.667 23.322 51.989 51.99 51.989s51.99-23.322 51.99-51.989v-139.608c0-4.143-3.357-7.5-7.5-7.5s-7.5 3.357-7.5 7.5v139.607c0 20.396-16.594 36.989-36.99 36.989s-36.99-16.594-36.99-36.989v-43.238c3.47-.658 6.096-3.702 6.096-7.364 0-4.143-3.357-7.5-7.5-7.5h-50c-4.143 0-7.5 3.357-7.5 7.5 0 3.662 2.625 6.706 6.095 7.364v43.239c0 20.396-16.594 36.989-36.99 36.989s-36.99-16.594-36.99-36.989v-190.186c0-20.396 16.594-36.989 36.99-36.989s36.99 16.594 36.99 36.989v43.24c-3.47.658-6.095 3.702-6.095 7.364 0 4.143 3.357 7.5 7.5 7.5h50c4.143 0 7.5-3.357 7.5-7.5 0-3.662-2.625-6.706-6.096-7.364v-43.239c0-20.396 16.594-36.989 36.99-36.989s36.99 16.593 36.99 36.988v20.578c0 4.143 3.357 7.5 7.5 7.5z"/><path d="m147.628 212.9c11.703 0 22.692 4.519 30.943 12.724 20.388 20.272 53.264 20.173 73.525-.203 20.239-20.352 20.223-53.209-.204-73.525-27.814-27.66-64.848-42.894-104.277-42.894-39.431 0-76.464 15.233-104.276 42.893-27.946 27.791-43.338 64.762-43.339 104.105 0 39.342 15.392 76.314 43.338 104.105l.6.593c2.961 2.897 7.71 2.846 10.606-.112 2.897-2.96 2.848-7.708-.112-10.606l-.517-.51c-25.095-24.955-38.915-58.151-38.915-93.47.001-35.32 13.821-68.515 38.916-93.469 24.983-24.846 58.26-38.529 93.699-38.529s68.716 13.684 93.7 38.53c14.543 14.462 14.544 37.833.145 52.312-14.454 14.536-37.844 14.531-52.313.144-11.08-11.019-25.825-17.087-41.52-17.087-32.447 0-58.647 26.002-58.647 58.1 0 32.055 26.163 58.101 58.636 58.101 15.701 0 30.451-6.068 41.533-17.089 14.442-14.363 37.893-14.351 52.311.146 14.403 14.486 14.395 37.855-.146 52.313-24.988 24.852-58.266 38.538-93.699 38.538-25.335.001-49.876-7.05-70.971-20.39-3.499-2.213-8.134-1.171-10.348 2.33s-1.171 8.134 2.33 10.348c23.498 14.859 50.812 22.713 78.988 22.712 39.425 0 76.458-15.236 104.276-42.901 20.436-20.323 20.437-53.18.204-73.526-20.28-20.391-53.22-20.398-73.523-.204-8.252 8.206-19.245 12.725-30.956 12.725-24.171 0-43.636-19.328-43.636-43.101.001-23.761 19.446-43.103 43.649-43.103z"/><path d="m200.717 163.67c-.002 0-.004 0-.006 0-4.14 0-7.497 3.354-7.5 7.494l-.009 11.876c-.003 4.143 3.353 7.503 7.494 7.506h.006c4.14 0 7.497-3.354 7.5-7.494l.009-11.876c.003-4.143-3.353-7.503-7.494-7.506z"/><path d="m104.891 160.099c-1.198-3.961-5.38-6.206-9.347-5.008-6.359 1.917-14.212 2.808-16.494 1.905-2.762-2.797-7.259-2.999-10.262-.38-3.123 2.722-3.447 7.459-.726 10.581 4.328 4.965 11.962 5.561 18.546 4.954l-.008 10.766c-.003 4.142 3.352 7.503 7.494 7.506h.006c4.139 0 7.497-3.354 7.5-7.494l.01-11.877c0-.76-.114-1.493-.324-2.185 3.07-1.659 4.654-5.298 3.605-8.768z"/><path d="m212.903 148.822c-9.854-13.384-26.761-6.97-34.322-1.709-3.4 2.365-4.239 7.039-1.873 10.439 2.364 3.398 7.038 4.241 10.439 1.873.099-.068 10.038-6.652 13.678-1.709 2.456 3.335 7.15 4.047 10.486 1.592 3.335-2.455 4.048-7.151 1.592-10.486z"/><path d="m156.567 193.232h.131.12c4.143 0 7.5-3.357 7.5-7.5s-3.357-7.5-7.5-7.5h-.12c-.037 0-.073 0-.111 0-6.203 0-20.472-.022-29.859-3.86-3.833-1.567-8.213.271-9.78 4.104s.271 8.213 4.104 9.78c12.103 4.949 27.847 4.976 35.515 4.976z"/><path d="m458.306 235.647c-4.126 0-7.48 3.336-7.499 7.467l-.021 4.787c-.019 4.142 3.324 7.515 7.467 7.533h.034c4.126 0 7.48-3.336 7.499-7.467l.021-4.787c.019-4.142-3.324-7.515-7.467-7.533-.011 0-.023 0-.034 0z"/><path d="m335.169 235.099c-4.126 0-7.48 3.336-7.499 7.467l-.021 4.787c-.019 4.142 3.324 7.515 7.467 7.533h.034c4.126 0 7.48-3.336 7.499-7.467l.021-4.787c.019-4.142-3.324-7.515-7.467-7.533-.011 0-.022 0-.034 0z"/><path d="m397.317 226.998c-4.143 0-7.5 3.357-7.5 7.5s3.357 7.5 7.5 7.5c1.963 0 3.56 1.597 3.56 3.56s-1.597 3.56-3.56 3.56c-4.143 0-7.5 3.357-7.5 7.5s3.357 7.5 7.5 7.5c1.963 0 3.56 1.597 3.56 3.56s-1.597 3.56-3.56 3.56c-4.143 0-7.5 3.357-7.5 7.5s3.357 7.5 7.5 7.5c15.185 0 23.996-17.381 14.869-29.619 9.112-12.22.337-29.621-14.869-29.621z"/></g></g></svg>