<svg id="Capa_1" enable-background="new 0 0 512 512" height="512" viewBox="0 0 512 512" width="512" xmlns="http://www.w3.org/2000/svg"><g><g><g><path d="m256 7.5-85.733 62.125 85.733 62.125c45.895 0 86.055 25.016 107.57 62.125h-60.852l-10 8.694h-73.437l-10-8.694h-139.656v124.25h372.75c34.311 0 62.125-27.813 62.125-62.125 0-137.024-111.476-248.5-248.5-248.5z" fill="#ff8e9e"/><path d="m256 7.5c-137.024 0-248.5 111.476-248.5 248.5s111.476 248.5 248.5 248.5c53.064 0 103.705-16.502 146.449-47.722 27.705-20.236 33.762-59.104 13.523-86.811-20.23-27.699-59.094-33.759-86.811-13.523-21.322 15.573-46.621 23.806-73.161 23.806-68.51 0-124.25-55.74-124.25-124.25s55.74-124.25 124.25-124.25c-16.802-16.802-25.722-38.713-25.722-60.735 0-25.976 8.213-46.006 25.722-63.515z" fill="#ea5b70"/></g><g><g><g><ellipse cx="116.444" cy="269.171" fill="#ffdbe0" rx="29.355" ry="23.377"/></g><g><ellipse cx="395.557" cy="269.171" fill="#ffdbe0" rx="29.355" ry="23.377"/></g></g></g></g><path d="m290.965 211.27c-6.451-13.111-19.691-21.805-34.965-21.927-15.249.122-28.503 8.796-34.965 21.927l-6.622 13.459 26.918 13.244 6.622-13.459c1.522-3.094 4.602-5.245 8.047-5.245s6.524 2.151 8.047 5.245l6.622 13.459 26.918-13.244z" fill="#ffb357"/><g><g><path d="m214.951 180.425c-22.398-9.479-61.502-8.352-80.889 11.256-10.066 10.182-14.555 25.118-12.313 40.979 2.429 17.187 11.966 31.974 25.509 39.553 18.036 10.097 47.014 9.293 63.996 1.517 15.515-7.103 25.687-21.996 30.076-35.755 8.165-25.589-6.041-48.942-26.379-57.55z" fill="#ffb357"/><path d="m203.259 208.053c-12.972-5.49-38.681-4.565-47.862 4.719-8.18 8.273-3.602 27.601 6.516 33.263 9.107 5.098 28.049 4.448 36.854.416 8.344-3.82 14.008-14.724 14.91-22.007.766-6.169-3.861-13.616-10.418-16.391z" fill="#4c5699"/></g><g><path d="m300.742 273.727c-15.518-7.104-25.686-21.991-30.073-35.753-8.188-25.687 6.173-48.996 26.38-57.549 22.437-9.495 61.511-8.343 80.888 11.255 10.067 10.183 14.556 25.119 12.313 40.979-2.429 17.187-11.966 31.974-25.511 39.555-18.07 10.115-47.047 9.275-63.997 1.513z" fill="#ffce71"/><path d="m308.742 208.053c12.972-5.49 38.681-4.565 47.862 4.719 8.18 8.273 3.602 27.601-6.516 33.263-9.107 5.098-28.049 4.448-36.854.416-8.344-3.82-14.008-14.724-14.91-22.007-.766-6.169 3.86-13.616 10.418-16.391z" fill="#676fb2"/></g></g><g><path d="m252.032 0c-132.022 0-252.19 111.291-252.032 256.285.068 62.479 22.985 122.664 64.527 169.47 2.753 3.102 7.495 3.377 10.588.631 3.098-2.75 3.38-7.49.631-10.588-39.108-44.063-60.681-100.718-60.746-159.528-.142-130.526 105.869-238.739 236.317-241.225 134.953-2.628 245.968 106.329 245.683 241.472-.063 29.835-24.567 54.108-54.624 54.108-16.722 0-285.567 0-299.808 0-4.143 0-7.5 3.357-7.5 7.5s3.357 7.5 7.5 7.5h1.625c40.285 64.45 127.338 82.202 189.391 36.876 24.327-17.763 58.57-12.431 76.332 11.89 17.807 24.377 12.492 58.521-11.89 76.33-41.452 30.276-90.563 46.279-142.026 46.279-58.856.001-115.567-21.537-159.687-60.646-3.1-2.748-7.84-2.462-10.587.638-2.748 3.1-2.462 7.84.638 10.587 46.866 41.544 107.11 64.422 169.636 64.421 54.665 0 106.836-17.001 150.873-49.166 31.073-22.699 37.856-66.214 15.155-97.291-22.639-30.996-66.281-37.795-97.292-15.156-51.475 37.601-123.954 26.728-162.387-24.762h280.025c38.311 0 69.544-30.988 69.624-69.077.294-138.174-110.079-256.548-259.966-256.548z"/><path d="m293.257 145.346c3.925 1.323 8.18-.781 9.506-4.705 1.325-3.925-.781-8.181-4.705-9.506-49.565-16.74-106.589-2.831-142.724 39.983-58.003 17.729-49.333 86.599-11.739 107.638 19.84 11.106 51.251 10.735 70.782 1.792 15.395-7.048 28.014-21.85 33.882-39.667 6.702-13.621 6.645-14.112 7.741-14.112 1.099 0 1.047.507 7.744 14.118 5.863 17.813 18.48 32.61 33.876 39.658 19.471 8.916 50.89 9.347 70.782-1.787 37.587-21.037 46.271-89.934-11.768-107.656-8.633-10.221-18.69-19.057-29.963-26.25-3.49-2.228-8.129-1.204-10.356 2.288-2.229 3.492-1.204 8.129 2.288 10.356 4.589 2.928 8.939 6.178 13.06 9.694-20.657-.563-41.706 4.125-55.921 19.138-12.18-5.747-26.382-6.177-39.475-.004-14.316-15.111-35.477-19.688-55.974-19.128 31.805-27.205 74.922-34.699 112.964-21.85zm6.715 41.986c13.194-5.584 33.143-7.033 49.969-2.566.316.108.64.189.967.254 46.542 13.085 36.752 65.771 10.169 80.648-15.746 8.814-42.186 8.119-57.212 1.238-16.589-7.593-28.036-27.288-28.036-43.646-.001-16.107 10.278-30.06 24.143-35.928zm-33.166 11.497c-2.322 4.465-3.984 9.194-4.957 14.083-3.814-1.521-7.87-1.525-11.691-.002-.972-4.892-2.633-9.621-4.953-14.084 6.811-2.532 14.316-2.707 21.601.003zm-54.777-11.497c13.784 5.834 24.146 19.688 24.146 35.918 0 16.148-11.263 35.977-28.042 43.659-15.037 6.885-41.473 7.568-57.211-1.242-26.622-14.898-36.372-67.559 10.168-80.641.325-.065.646-.146.961-.253 16.882-4.483 36.837-3.002 49.978 2.559z"/><path d="m143.686 224.717c0 11.605 5.989 23.063 14.563 27.862 11.211 6.277 32.619 5.739 43.64.691 12.167-5.57 19.372-21.171 19.372-30.188 0-9.014-6.342-18.239-15.079-21.937-16.509-6.986-62.496-7.974-62.496 23.572zm17.044-6.671c6.414-6.488 28.684-7.709 39.606-3.086 3.734 1.58 6.22 6.01 5.898 8.563-.618 4.985-4.946 13.525-10.591 16.11-6.934 3.175-23.36 3.611-30.067-.142-6.185-3.462-9.178-17.064-4.846-21.445z"/><path d="m310.111 253.27c10.98 5.03 32.391 5.608 43.64-.689 8.575-4.801 14.564-16.258 14.564-27.863 0-31.455-45.894-30.597-62.496-23.571-8.737 3.697-15.079 12.923-15.079 21.937 0 8.984 7.18 24.605 19.371 30.186zm1.553-38.31c11.097-4.697 33.288-3.306 39.605 3.085 4.339 4.388 1.329 17.99-4.847 21.446-6.695 3.747-23.118 3.324-30.067.141-6.3-2.885-10.616-12.945-10.616-16.55.001-2.656 2.433-6.644 5.925-8.122z"/><path d="m266.81 278.384c-5.724 6.568-15.9 6.562-21.619 0-2.721-3.124-7.459-3.448-10.581-.728-3.123 2.721-3.449 7.459-.728 10.581 11.7 13.429 32.545 13.418 44.236 0 2.722-3.122 2.396-7.86-.728-10.581-3.121-2.721-7.86-2.396-10.58.728z"/></g></g></svg>