<svg id="Capa_1" enable-background="new 0 0 512 512" height="512" viewBox="0 0 512 512" width="512" xmlns="http://www.w3.org/2000/svg"><g><g><g><path d="m281 223.672h-38.73v274.656h38.73c17.079-8.997 28.73-26.912 28.73-47.558v-179.541c0-20.645-11.651-38.56-28.73-47.557z" fill="#70dcba"/><path d="m252.27 450.771v-179.542c0-20.646 11.65-38.561 28.73-47.558-7.469-3.935-15.971-6.172-25-6.172-29.675 0-53.73 24.055-53.73 53.729v179.541c0 29.674 24.055 53.729 53.73 53.729 9.029 0 17.531-2.237 25-6.172-17.079-8.995-28.73-26.91-28.73-47.555z" fill="#18c08b"/></g><g><path d="m319.64 33.856c-15.962-15.963-36.428-24.677-57.307-26.141l-96.333 89.785 96.333 89.785c20.879-1.464 41.345-10.177 57.307-26.141 17.573-17.575 26.36-40.609 26.36-63.644s-8.787-46.069-26.36-63.644z" fill="#70dcba"/><path d="m223.273 97.5c0-33.08 13.284-65.737 39.06-89.785-2.108-.148-4.221-.215-6.333-.215-49.686 0-90 40.249-90 90 0 49.686 40.247 90 90 90 2.112 0 4.225-.067 6.333-.215-25.018-23.341-39.06-55.664-39.06-89.785z" fill="#18c08b"/></g></g><g><path d="m256 210c-33.762 0-61.229 27.468-61.229 61.229v179.541c0 13.968 4.581 27.122 13.248 38.041 2.575 3.244 7.293 3.786 10.537 1.211s3.786-7.293 1.211-10.537c-6.539-8.238-9.996-18.168-9.996-28.715v-179.541c0-25.491 20.738-46.229 46.229-46.229s46.229 20.738 46.229 46.229v179.541c0 25.656-20.816 46.23-46.229 46.23-5.334 0-10.559-.898-15.528-2.67-3.904-1.392-8.192.645-9.583 4.546-1.391 3.902.645 8.192 4.546 9.583 6.591 2.35 13.51 3.541 20.565 3.541 33.47 0 61.229-27.071 61.229-61.229v-179.542c0-33.761-27.467-61.229-61.229-61.229z"/><path d="m338.076 44.841c-2.238-3.486-6.881-4.496-10.363-2.256-3.485 2.238-4.495 6.879-2.256 10.363 8.532 13.281 13.043 28.687 13.043 44.552 0 45.49-37.01 82.5-82.5 82.5s-82.5-37.01-82.5-82.5 37.01-82.5 82.5-82.5c18.365 0 36.264 6.014 51.055 17.678 3.252 2.564 7.969 2.006 10.533-1.244 2.565-3.253 2.008-7.969-1.244-10.533-17.187-13.555-38.267-20.901-60.344-20.901-53.762 0-97.5 43.738-97.5 97.5s43.738 97.5 97.5 97.5 97.5-43.738 97.5-97.5c0-18.745-5.333-36.955-15.424-52.659z"/><path d="m196.051 107.06v12c0 4.143 3.357 7.5 7.5 7.5s7.5-3.357 7.5-7.5v-12c0-4.143-3.357-7.5-7.5-7.5s-7.5 3.357-7.5 7.5z"/><path d="m300.948 107.06v12c0 4.143 3.357 7.5 7.5 7.5s7.5-3.357 7.5-7.5v-12c0-4.143-3.357-7.5-7.5-7.5s-7.5 3.357-7.5 7.5z"/><path d="m261.846 114.906c-1.477 1.694-3.607 2.666-5.846 2.666s-4.369-.972-5.846-2.666c-2.723-3.122-7.46-3.447-10.582-.727-3.123 2.722-3.448 7.459-.727 10.582 4.326 4.964 10.579 7.811 17.154 7.811s12.828-2.847 17.154-7.811c2.722-3.123 2.396-7.86-.727-10.582-3.12-2.721-7.859-2.395-10.58.727z"/></g></g></svg>