<svg id="Capa_1" enable-background="new 0 0 512 512" height="512" viewBox="0 0 512 512" width="512" xmlns="http://www.w3.org/2000/svg"><g><g><path d="m241 37.495h30v73.505h-30z" fill="#d4d4ff"/></g><g><path d="m131.234 37.495v.011c0 20.457 20.042 34.902 39.449 28.434l85.317-28.44-85.317-28.439c-19.407-6.469-39.449 7.976-39.449 28.434z" fill="#d4d4ff"/><path d="m341.317 9.061-85.317 28.439 85.317 28.439c19.407 6.468 39.449-7.977 39.449-28.434v-.011c0-20.457-20.042-34.902-39.449-28.433z" fill="#efedff"/></g><circle cx="256" cy="37.5" fill="#9ea2e3" r="30"/><g><path d="m316.507 144.672c-18.969-6.583-39.326-10.172-60.507-10.172l-60.501 39.286v140.375c2.714-31.005 28.805-55.411 60.501-55.411 33.497 0 60.75 27.253 60.75 60.75s-27.253 60.75-60.75 60.75c-31.697 0-57.787-24.406-60.501-55.411v137.101l60.501 42.56c102.01 0 185-82.99 185-185 0-80.828-52.109-149.705-124.493-174.828z" fill="#ff8f71"/><path d="m195.25 319.5c0-1.8.094-3.578.248-5.339 1.076-63.182 21.239-126.109 60.502-179.661-21.181 0-41.538 3.589-60.507 10.172-72.384 25.123-124.493 94-124.493 174.828 0 102.01 82.99 185 185 185-39.263-53.552-59.426-116.479-60.501-179.661-.155-1.761-.249-3.539-.249-5.339z" fill="#ff6f4d"/></g><path d="m256 97.5c-29.205 0-53.715 20.072-60.507 47.172 33.417 33.417 87.596 33.417 121.013 0-6.791-27.1-31.301-47.172-60.506-47.172z" fill="#55dafe"/><g><path d="m256 97.5-31.582 20v46.202c20.243 8.026 42.921 8.026 63.164 0v-46.202z" fill="#fce3a0"/><path d="m195.493 144.672c8.52 8.52 18.393 14.854 28.925 19.03 2.632-24.972 13.741-48.36 31.582-66.202-29.205 0-53.715 20.072-60.507 47.172z" fill="#55dafe"/><path d="m256 97.5c17.841 17.842 28.95 41.23 31.582 66.202 10.531-4.176 20.405-10.511 28.925-19.03-6.792-27.1-31.302-47.172-60.507-47.172z" fill="#ffb5c0"/></g><g><path d="m322.665 138.914c-6.679-21.32-23.073-38.049-44.165-45.19v-26.245c4.032-3.034 7.427-6.865 9.968-11.251l50.478 16.826c11.539 3.847 23.849 1.991 33.76-5.15 9.889-7.128 15.561-18.208 15.561-30.41-.001-21.532-18.2-37.494-37.763-37.494-3.803 0-7.691.656-11.56 1.945l-50.477 16.826c-6.49-11.208-18.608-18.771-32.467-18.771s-25.977 7.563-32.468 18.771l-50.477-16.826c-3.829-1.277-7.679-1.945-11.449-1.945-21.193 0-37.872 15.884-37.872 37.506 0 12.19 5.672 23.271 15.561 30.398 9.891 7.128 22.193 9.005 33.761 5.15l50.477-16.826c2.54 4.386 5.935 8.217 9.968 11.251v26.243c-21.092 7.143-37.486 23.871-44.165 45.191-75.432 27.907-125.836 99.981-125.836 180.587 0 49.684 18.943 96.876 53.34 132.882 2.864 2.999 7.613 3.1 10.604.242 2.995-2.861 3.104-7.608.242-10.604-31.718-33.202-49.186-76.713-49.186-122.52 0-74.022 46.105-140.236 115.194-166.197 17.555 15.852 40.017 23.958 62.306 23.958 22.285 0 44.748-8.103 62.306-23.958 69.089 25.961 115.194 92.175 115.194 166.197 0 97.874-79.626 177.5-177.5 177.5-38.888 0-75.835-12.396-106.847-35.849-3.302-2.497-8.007-1.845-10.506 1.459-2.498 3.304-1.845 8.007 1.459 10.506 33.638 25.438 73.713 38.884 115.894 38.884 106.145 0 192.5-86.355 192.5-192.5 0-80.606-50.404-152.68-125.835-180.586zm21.023-122.738c14.567-4.851 29.578 5.952 29.578 21.33 0 7.311-3.401 13.955-9.332 18.229-5.931 4.276-13.313 5.399-20.245 3.089l-50.469-16.823c.177-1.478.28-2.977.28-4.501s-.102-3.023-.28-4.501zm-87.688-1.176c12.406 0 22.5 10.094 22.5 22.5s-10.094 22.5-22.5 22.5-22.5-10.094-22.5-22.5 10.094-22.5 22.5-22.5zm-87.688 43.824c-6.937 2.314-14.314 1.187-20.246-3.089-5.931-4.274-9.332-10.919-9.332-18.241 0-15.358 15.012-26.173 29.577-21.318l50.468 16.823c-.177 1.478-.28 2.977-.28 4.501s.102 3.023.28 4.501zm87.688 16.176c2.568 0 5.076-.261 7.5-.755v16.167c-4.986-.537-9.798-.561-15 0v-16.167c2.424.494 4.932.755 7.5.755zm-18.724 33.31c-9.207 13.297-15.631 28.419-18.762 44.34-5.213-2.851-10.079-6.277-14.542-10.274 5.323-15.897 17.589-28.388 33.304-34.066zm-4.616 50.363c3.04-18.503 11.154-35.918 23.34-50.141 12.186 14.223 20.3 31.638 23.34 50.141-15.233 4.779-31.447 4.779-46.68 0zm60.826-6.024c-3.131-15.921-9.555-31.042-18.762-44.34 15.716 5.679 27.98 18.17 33.303 34.065-4.462 3.998-9.328 7.425-14.541 10.275z"/><path d="m193.465 192.117c-4.143 0-7.5 3.357-7.5 7.5v12c0 4.143 3.357 7.5 7.5 7.5s7.5-3.357 7.5-7.5v-12c0-4.142-3.358-7.5-7.5-7.5z"/><path d="m325.862 211.617v-12c0-4.143-3.357-7.5-7.5-7.5s-7.5 3.357-7.5 7.5v12c0 4.143 3.357 7.5 7.5 7.5s7.5-3.357 7.5-7.5z"/><path d="m256.096 235.276c14.124 12.385 36.411 2.338 36.411-16.504 0-4.143-3.357-7.5-7.5-7.5s-7.5 3.357-7.5 7.5c0 3.835-3.12 6.955-6.955 6.955-3.836 0-6.956-3.12-6.956-6.955 0-4.143-3.357-7.5-7.5-7.5s-7.5 3.357-7.5 7.5c0 3.835-3.12 6.955-6.955 6.955-3.836 0-6.956-3.12-6.956-6.955 0-4.143-3.357-7.5-7.5-7.5s-7.5 3.357-7.5 7.5c0 18.831 22.278 28.899 36.411 16.504z"/><path d="m187.75 319.5c0 37.633 30.617 68.25 68.25 68.25s68.25-30.617 68.25-68.25c0-10.533-2.348-20.644-6.977-30.05-1.828-3.716-6.323-5.243-10.041-3.418-3.717 1.829-5.247 6.325-3.418 10.041 3.606 7.329 5.436 15.211 5.436 23.427 0 29.362-23.888 53.25-53.25 53.25s-53.25-23.888-53.25-53.25 23.888-53.25 53.25-53.25c11.182 0 21.89 3.442 30.966 9.956 3.364 2.413 8.051 1.645 10.467-1.721 2.415-3.365 1.645-8.052-1.721-10.467-11.642-8.353-25.373-12.768-39.712-12.768-37.633 0-68.25 30.617-68.25 68.25z"/></g></g></svg>