<svg id="Capa_1" enable-background="new 0 0 512 512" height="512" viewBox="0 0 512 512" width="512" xmlns="http://www.w3.org/2000/svg"><g><g><path d="m279.784 504.5c103.554 0 187.801-83.831 187.801-186.873v-125.791c0-42.582-34.643-77.225-77.225-77.225s-77.226 34.643-77.226 77.225v125.791c0 17.878-14.96 32.423-33.349 32.423l-90.604 70z" fill="#ffce71"/><path d="m279.786 350.05c-18.389 0-33.35-14.545-33.35-32.423v-125.791c0-17.865-6.389-34.066-16.613-47.164-14.145-18.121-35.896-30.061-60.613-30.061-24.716 0-46.469 11.94-60.613 30.061-10.225 13.099-16.611 29.298-16.611 47.164v125.791c0 103.042 84.246 186.873 187.798 186.873-42.649-42.65-42.648-111.8.002-154.45z" fill="#ffb357"/></g><g><g><g><ellipse cx="199.757" cy="413.525" fill="#ff8e9e" rx="23.515" ry="29.529" transform="matrix(.002 -1 1 .002 -214.204 612.375)"/></g><g><ellipse cx="359.813" cy="413.875" fill="#ff8e9e" rx="23.515" ry="29.529" transform="matrix(.002 -1 1 .002 -54.848 772.781)"/></g></g></g><path d="m154.182 37.495h30v73.505h-30z" fill="#d4d4ff"/><g><path d="m44.416 37.495v.011c0 20.457 20.042 34.902 39.449 28.434l85.317-28.44-85.317-28.439c-19.408-6.469-39.449 7.976-39.449 28.434z" fill="#d4d4ff"/><path d="m254.498 9.061-85.316 28.439 85.317 28.439c19.407 6.468 39.449-7.977 39.449-28.434v-.011c0-20.457-20.042-34.902-39.45-28.433z" fill="#efedff"/></g><circle cx="169.182" cy="37.5" fill="#9ea2e3" r="30"/><g><path d="m169.182 97.5-31.582 20v46.202c20.243 8.026 42.921 8.026 63.164 0v-46.202z" fill="#fce3a0"/><path d="m108.597 144.672c8.52 8.52 18.471 14.854 29.003 19.03 2.632-24.972 13.741-48.36 31.582-66.202-29.206 0-53.793 20.072-60.585 47.172z" fill="#55dafe"/><path d="m169.182 97.5c17.841 17.842 28.95 41.23 31.582 66.202 10.531-4.176 20.54-10.511 29.06-19.03-6.792-27.1-31.437-47.172-60.642-47.172z" fill="#ff8e9e"/></g><g><path d="m390.36 107.123c-46.718 0-84.726 38.007-84.726 84.725v125.791c0 13.742-11.596 24.923-25.849 24.923-14.254 0-25.85-11.181-25.85-24.923v-125.791c0-18.112-5.972-35.541-17.256-50.519-6.262-22.8-23.4-40.344-44.998-47.629v-26.209c4.032-3.033 7.427-6.864 9.968-11.251l50.477 16.826c24.293 8.098 49.321-9.951 49.321-35.561 0-25.571-24.988-43.654-49.321-35.549l-50.476 16.827c-6.491-11.209-18.609-18.771-32.468-18.771s-25.977 7.563-32.468 18.771l-50.477-16.826c-24.29-8.092-49.321 9.934-49.321 35.561 0 25.507 24.933 43.674 49.321 35.549l50.478-16.826c2.54 4.386 5.935 8.217 9.968 11.251v26.217c-21.567 7.289-38.681 24.829-44.942 47.621-11.284 14.977-17.254 32.405-17.254 50.519v125.791c-.001 107.177 87.609 194.36 195.297 194.36 107.689 0 195.301-87.183 195.301-194.361v-125.791c-.001-46.718-38.007-84.725-84.725-84.725zm-169.017 35.263c-4.556 4.079-9.482 7.524-14.66 10.348-3.131-15.974-9.577-31.146-18.823-44.479 15.578 5.584 28.077 17.995 33.483 34.131zm-28.838 16.329c-15.165 4.705-31.482 4.699-46.644-.017 3.037-18.501 11.139-35.908 23.321-50.13 12.185 14.227 20.288 31.64 23.323 50.147zm64.366-142.527c14.532-4.846 29.577 5.921 29.577 21.33 0 15.354-15.014 26.179-29.577 21.318l-50.468-16.823c.178-1.478.28-2.977.28-4.501s-.102-3.023-.28-4.501zm-87.689-1.176c12.406 0 22.5 10.094 22.5 22.5s-10.094 22.5-22.5 22.5-22.5-10.094-22.5-22.5 10.094-22.5 22.5-22.5zm-87.689 43.824c-14.53 4.848-29.577-5.921-29.577-21.33 0-15.358 15.011-26.172 29.577-21.318l50.469 16.823c-.177 1.478-.28 2.977-.28 4.501s.102 3.023.28 4.501zm80.189 15.421c2.424.494 4.932.755 7.5.755s5.076-.261 7.5-.755v16.167c-5.08-.54-9.768-.558-15 .001zm-11.187 34.009c-9.236 13.322-15.677 28.479-18.809 44.438-5.159-2.818-10.068-6.253-14.61-10.318 5.402-16.125 17.876-28.53 33.419-34.12zm309.589 209.373c0 98.906-80.883 179.373-180.301 179.373-99.417 0-180.298-80.467-180.298-179.373v-125.791c0-12.632 3.577-24.895 10.391-35.891 17.16 14.184 38.244 21.288 59.333 21.288 21.09 0 42.172-7.104 59.333-21.288 6.815 10.998 10.393 23.26 10.393 35.891v125.791c0 22.014 18.325 39.923 40.85 39.923s40.849-17.909 40.849-39.923v-125.791c0-38.446 31.278-69.725 69.726-69.725 38.446 0 69.725 31.278 69.725 69.725v125.791z"/><path d="m217.25 376.509c-4.143 0-7.5 3.357-7.5 7.5v12c0 4.143 3.357 7.5 7.5 7.5s7.5-3.357 7.5-7.5v-12c0-4.143-3.357-7.5-7.5-7.5z"/><path d="m342.147 376.509c-4.143 0-7.5 3.357-7.5 7.5v12c0 4.143 3.357 7.5 7.5 7.5s7.5-3.357 7.5-7.5v-12c0-4.143-3.357-7.5-7.5-7.5z"/><path d="m308.792 395.664c-4.143 0-7.5 3.357-7.5 7.5 0 3.836-3.12 6.956-6.955 6.956-3.836 0-6.956-3.12-6.956-6.956 0-4.143-3.357-7.5-7.5-7.5s-7.5 3.357-7.5 7.5c0 3.836-3.12 6.956-6.955 6.956-3.836 0-6.956-3.12-6.956-6.956 0-4.143-3.357-7.5-7.5-7.5s-7.5 3.357-7.5 7.5c0 18.831 22.278 28.9 36.411 16.505 14.124 12.385 36.411 2.337 36.411-16.505 0-4.143-3.357-7.5-7.5-7.5z"/></g></g></svg>