<svg id="Capa_1" enable-background="new 0 0 512 512" height="512" viewBox="0 0 512 512" width="512" xmlns="http://www.w3.org/2000/svg"><g><path d="m437.826 204.982c2.932-4.352 2.932-10.062 0-14.414-9.262-13.747-24.971-22.793-42.801-22.793-4.797 0-9.44.655-13.845 1.879-11.971 3.328-22.186 10.865-28.956 20.914-2.932 4.352-2.932 10.062 0 14.414 9.262 13.747 24.971 22.793 42.801 22.793s33.539-9.046 42.801-22.793z" fill="#ff8f71"/><g><path d="m267.854 112.508 80.874 80.874c.542.542 1.108 1.021 1.696 1.442 6.298 4.512 14.969 2.251 20.436-3.215l6.146-6.146c30.719-30.719 39.946-74.924 23.941-113.266l-52.661-52.661-81.11 81.11z" fill="#ffb39d"/><path d="m280.646 101.396 6.146-6.146c30.723-30.723 76.148-38.725 114.155-23.052-5.135-12.3-12.859-23.998-23.313-34.452-40.904-40.906-107.137-39.952-147.717.628l-6.146 6.146c-5.976 5.976-8.121 15.783-1.772 22.132l56.876 56.876c-6.35-6.349-4.205-16.156 1.771-22.132z" fill="#ff8f71"/></g><g><path d="m294.78 393.125h-167.062v111.375h111.378 55.685c30.756 0 55.688-24.932 55.688-55.688-.001-30.755-24.933-55.687-55.689-55.687z" fill="#1cbbea"/><path d="m322.665 281.704c18.188-24.249 27.803-53.118 27.803-83.485 0-76.766-62.453-139.219-139.219-139.219l-85.412 56.15 87.427 55.294c14.733 1.012 25.915 13.178 25.829 27.946-.045 7.591-3.023 13.15-5.525 16.485l-150.4 200.525c-12.655 16.872-14.691 39.449-5.259 58.317 9.433 18.865 28.717 30.783 49.809 30.783h27.843 83.535c-34.418 0-54.064-39.293-33.413-66.827z" fill="#55dafe"/><path d="m188.583 115.15c-.38-21.017 7.802-41.286 22.666-56.15-49.531 0-95.724 26.65-120.546 69.55-15.404 26.62-6.311 60.685 20.309 76.089 26.615 15.404 60.685 6.314 76.089-20.309 5.393-9.316 15.3-14.631 26.163-13.885-15.392-14.318-24.301-34.277-24.681-55.295z" fill="#1cbbea"/></g><path d="m350.424 288.805c4.778 3.219 11.047 3.219 15.825 0 15.092-10.169 25.024-27.415 25.024-46.99s-9.932-36.822-25.024-46.99c-4.778-3.219-11.047-3.219-15.825 0-15.092 10.169-25.024 27.415-25.024 46.99s9.931 36.822 25.024 46.99z" fill="#ffb39d"/><g><g><g><ellipse cx="293.263" cy="163.506" fill="#ff8e9e" rx="29.756" ry="23.696"/></g><g><ellipse cx="131.978" cy="163.646" fill="#ff8e9e" rx="29.756" ry="23.696"/></g></g></g><g><path d="m339.307 483.086c-2.917-2.942-7.666-2.963-10.606-.047-9.083 9.002-21.13 13.96-33.92 13.96h-167.063c-39.228 0-62.47-45.206-38.55-77.1l150.399-200.523c4.605-6.14 7.04-13.42 7.04-21.052 0-36.537-48.012-48.82-65.998-17.751-13.115 22.664-42.493 31.087-65.841 17.574-22.651-13.107-31.093-42.484-17.574-65.842 5.528-9.553 12.266-18.396 20.024-26.284 2.905-2.953 2.866-7.702-.087-10.606s-7.701-2.867-10.606.087c-8.646 8.789-16.152 18.644-22.313 29.29-17.713 30.609-6.673 69.142 23.043 86.337 30.606 17.715 69.143 6.673 86.337-23.042 10.244-17.694 38.016-11.169 38.016 10.237 0 4.361-1.396 8.528-4.04 12.052l-150.4 200.524c-31.181 41.574-1.441 101.1 50.55 101.1h167.062c16.772 0 32.568-6.501 44.479-18.307 2.942-2.916 2.964-7.665.048-10.607z"/><path d="m142.29 121.308c-.002 0-.004 0-.006 0-4.142.003-7.497 3.363-7.494 7.505l.009 11.876c.003 4.141 3.36 7.495 7.5 7.495h.006c4.142-.003 7.497-3.363 7.494-7.505l-.009-11.876c-.003-4.141-3.36-7.495-7.5-7.495z"/><path d="m294.939 124.835c2.722-3.123 2.397-7.86-.726-10.582-3.003-2.618-7.499-2.417-10.262.38-2.283.906-10.136.011-16.487-1.903-3.967-1.202-8.151 1.035-9.355 4.998-1.054 3.472.533 7.116 3.607 8.776-.21.692-.325 1.425-.324 2.186l.01 11.876c.003 4.14 3.36 7.494 7.5 7.494h.006c4.143-.003 7.497-3.364 7.494-7.506l-.009-10.765c1.333.123 2.684.197 4.027.197 5.63-.001 11.117-1.249 14.519-5.151z"/><path d="m166.293 115.19c2.366-3.4 1.527-8.074-1.873-10.439-7.561-5.262-24.465-11.675-34.322 1.709-2.456 3.335-1.743 8.03 1.592 10.486 3.334 2.456 8.03 1.743 10.486-1.592 3.626-4.92 13.534 1.613 13.703 1.727 3.394 2.343 8.054 1.503 10.414-1.891z"/><path d="m196.3 151.87h.131c7.67 0 23.414-.028 35.519-4.976 3.834-1.567 5.672-5.946 4.104-9.78-1.566-3.834-5.946-5.672-9.78-4.104-9.445 3.862-23.842 3.9-29.973 3.861h-.118c-4.143 0-7.5 3.358-7.5 7.5s3.357 7.5 7.5 7.5h.117z"/><path d="m444.045 186.377c-9.317-13.829-23.869-22.94-40.05-25.418 21.102-41.556 15.117-92.34-21.056-128.516-21.467-21.467-50.039-32.443-77.955-32.443-29.026 0-58.184 10.884-80.372 33.071-6.107 6.107-11.104 10.086-13.213 18.431-28.522-.035-56.368 8.252-80.471 24.014-3.467 2.267-4.439 6.915-2.173 10.382 2.268 3.467 6.918 4.439 10.382 2.172 86.125-56.321 198.288 3.994 203.631 103.044-23.346 18.082-31.219 49.576-19.49 76.409-4.374 7.044 1.305-.87-99.84 133.976-2.485 3.314-1.813 8.015 1.5 10.5 3.311 2.484 8.013 1.815 10.5-1.5l7.407-9.875h51.935c31.249 0 54.522 29.549 46.685 60.182-1.212 4.732 2.361 9.362 7.271 9.362 3.345 0 6.394-2.253 7.261-5.642 10.284-40.161-20.25-78.901-61.216-78.901h-40.684c81.139-108.182 75.253-100.252 77.771-103.884 4.078 5.117 8.922 9.617 14.365 13.284 7.352 4.954 16.853 4.955 24.206 0 19.58-13.191 30.449-36.056 27.986-59.851 18.378-1.053 35.246-10.602 45.621-26.001 4.665-6.924 4.665-15.873-.001-22.796zm-216.912-134.016c1.085-1.858 1.46-2.058 8.086-8.684 37.976-37.976 99.483-38.257 137.111-.628 40.031 40.033 36.945 99.544-.629 137.111l-6.031 6.031c-2.683-.972-5.504-1.393-8.31-1.266-6.257-69.625-61.23-125.132-130.227-132.564zm134.924 230.224c-2.259 1.523-5.18 1.523-7.442 0-12.997-8.756-21.715-23.699-21.715-40.77 0-25.463 19.769-41.916 25.449-41.916 1.472 0 2.708.455 3.862 1.252h-.001c28.868 19.611 28.651 62.028-.153 81.434zm69.549-81.794c-8.214 12.192-21.877 19.473-36.552 19.483-3.464-9.719-9.239-18.44-16.8-25.452 4.879-4.879 10.493-10.199 17.095-19.537 14.562.107 28.098 7.364 36.257 19.474 1.234 1.832 1.234 4.199 0 6.032z"/></g></g></svg>