<svg id="Capa_1" enable-background="new 0 0 512 512" height="512" viewBox="0 0 512 512" width="512" xmlns="http://www.w3.org/2000/svg"><g><g><path d="m388.411 206.807c0-31.259-10.66-60.076-28.538-83.01-24.793-31.805-63.467-52.297-106.838-52.297l1.301 100.305c23.45-.304 38.662 23.631 30.169 44.773l-28.663 71.35 28.815 72.912c7.914 20.027-5.328 42.821-27.293 44.47l1.284 99.047c71.997-2.955 129.659-62.454 129.659-135.182 0-30.412-10.085-58.51-27.082-81.131 17.06-22.638 27.186-50.777 27.186-81.237z" fill="#70dcba"/><path d="m258.511 287.991c56.121-62.106 53.713-157.302-5.476-216.491-29.427 0-57.421 9.284-80.957 26.85-23.956 17.878-28.882 51.789-11.004 75.745s51.795 28.885 75.746 11.004c3.274-2.442 8.742-5.354 16.216-5.354 14.96 0 27.13 12.141 27.13 27.061 0 14.921-12.169 27.061-27.13 27.061-29.892 0-54.123 24.231-54.123 54.123s24.231 54.123 54.123 54.123c14.902 0 27.027 12.141 27.027 27.061s-12.125 27.061-27.027 27.061c-9.765 0-18.528-5.069-23.441-13.562-14.963-25.872-48.066-34.725-73.949-19.752-25.875 14.963-34.717 48.071-19.751 73.948 24.12 41.705 69.007 67.611 117.141 67.611 1.881 0 3.751-.049 5.613-.125 59.647-59.796 59.603-156.624-.138-216.364z" fill="#18c08b"/></g><g><g><path d="m343.645 58.65c-4.859-19.742-19.677-35.491-39.053-41.507l-7.734-2.401h-53.92v72.883c4.452-.21 8.98-.294 13.591-.244 36.605-.4 80.151 19.35 103.345 36.417-2.003-8.132-14.902-59.756-16.229-65.148z" fill="#ff8e9e"/><path d="m273.369 10.092c-5.808-1.15-11.51-2.617-17.362-2.592-5.853-.025-11.708.836-17.362 2.592l-30.18 7.051c-19.376 6.016-34.194 21.765-39.053 41.507-1.21 4.917-11.64 47.287-16.037 65.147 24.729-18.453 57.301-34.65 89.563-36.172 3.29-13.364 6.382-25.927 7.132-28.974 4.858-19.742 19.677-35.491 39.053-41.507l7.734-2.401z" fill="#ea5b70"/></g><path d="m168.728 44.534c-59.514 5.048-55.384 63.914-15.353 79.263 31.889-17.484 65.888-25.798 103.345-25.419 37.47-.364 71.263 7.935 103.153 25.419-33.376-34.997-115.226-85.702-191.145-79.263z" fill="#676fb2"/></g><g><path d="m227.562 279.5v12c0 4.142 3.357 7.5 7.5 7.5s7.5-3.358 7.5-7.5v-12c0-4.142-3.357-7.5-7.5-7.5s-7.5 3.358-7.5 7.5z"/><path d="m335.459 291.5v-12c0-4.142-3.357-7.5-7.5-7.5s-7.5 3.358-7.5 7.5v12c0 4.142 3.357 7.5 7.5 7.5s7.5-3.358 7.5-7.5z"/><path d="m302.902 285.488c-3.123-2.721-7.86-2.396-10.581.727-2.729 3.132-6.669 4.928-10.81 4.928s-8.081-1.796-10.81-4.928c-2.721-3.123-7.459-3.448-10.581-.727-3.123 2.721-3.449 7.458-.728 10.582 5.578 6.402 13.64 10.073 22.118 10.073s16.54-3.671 22.118-10.073c2.723-3.123 2.397-7.861-.726-10.582z"/><path d="m366.78 120.486c-1.277-5.161-4.302-17.291-7.381-29.635-1.003-4.019-5.068-6.465-9.093-5.461-4.019 1.002-6.464 5.073-5.462 9.092.593 2.375 1.183 4.739 1.759 7.051-35.799-29.189-95.926-62.402-157.101-64.9 5.814-6.138 12.941-10.411 20.641-12.18.422-.097 30.835-7.07 31.246-7.198 9.712-3.014 20.555-3.018 30.277 0l30.7 9.532c17.952 5.574 30.025 17.527 33.998 33.664l1.204 4.851c.849 3.412 3.908 5.691 7.272 5.691.6 0 1.209-.073 1.816-.224 4.02-1 6.468-5.069 5.468-9.089l-1.198-4.822c-5.275-21.435-20.941-37.202-44.112-44.396l-30.7-9.532c-6.261-1.944-12.767-2.93-19.34-2.93-6.542 0-12.84.792-19.554 2.844l-30.435 6.99c-14.681 3.371-27.707 13.154-36.299 27.084-30.223 2.475-50.25 17.026-53.891 39.443-3.265 20.106 8.45 41.199 27.806 51.562-12.773 55.608 50.995 97.454 96.902 63.188 12.759-9.518 31.361-.478 31.361 15.696 0 10.786-8.806 19.561-19.63 19.561-33.979 0-61.624 27.644-61.624 61.623s27.645 61.623 61.624 61.623c10.767 0 19.526 8.775 19.526 19.562 0 19.936-26.471 27.04-36.476 9.744-13.913-24.057-42.536-35.979-69.509-28.625-3.996 1.089-6.353 5.212-5.264 9.208 1.091 3.997 5.216 6.354 9.209 5.263 20.475-5.582 42.1 3.544 52.579 21.664 17.626 30.472 64.46 18.01 64.46-17.254 0-19.057-15.488-34.562-34.526-34.562-25.709 0-46.624-20.915-46.624-46.623s20.915-46.623 46.624-46.623c19.095 0 34.63-15.504 34.63-34.561 0-28.46-32.68-44.613-55.332-27.718-35.865 26.77-84.779-7.603-72.725-50.104 29.969-15.885 61.766-23.448 97.035-23.108.052.001.1.001.149 0 35.708-.338 67.787 7.441 98.085 23.762 34.055 44.755 34.574 105.78 2.514 150.909-4.117.03-7.445 3.374-7.445 7.497 0 4.121 3.325 7.463 7.438 7.497 58.899 83.16.672 201.441-104.351 201.441-45.468 0-87.865-24.472-110.649-63.866-10.279-17.771-7.747-40.175 6.273-55.175 2.828-3.026 2.668-7.772-.358-10.601-3.027-2.831-7.772-2.667-10.601.357-18.602 19.903-21.835 49.525-8.299 72.928 25.459 44.014 72.833 71.374 123.638 71.374 38.722 0 75.623-15.575 102.847-43.869 47.499-49.366 52.999-124.709 14.598-180.08 34.908-50.188 34.172-117.857-3.7-167.565zm-213.773-5.007c-14.776-7.085-23.938-22.345-21.604-36.714 6.969-42.922 104.981-34.762 185.794 19.636-46.792-12.772-109.968-11.522-164.19 17.078z"/></g></g></svg>