<svg id="Capa_1" enable-background="new 0 0 512 512" height="512" viewBox="0 0 512 512" width="512" xmlns="http://www.w3.org/2000/svg"><g><path d="m432.045 63.697h-62.421v57.949h62.421c16.002 0 28.974-12.972 28.974-28.974s-12.972-28.975-28.974-28.975z" fill="#ea5b70"/><g><path d="m398.899 318.12h-6.928-124.242-35.498c42.309-60.641 18.434-23.54 129.012-199.585v-84.441h-82.34l-61.059 87.514-155.647 223.086c-13.243 18.985-14.835 43.754-4.131 64.277s31.931 33.39 55.077 33.39l154.586.003h124.241l6.928-.003c34.309 0 62.121-27.812 62.121-62.12s-27.812-62.121-62.12-62.121z" fill="#ffb357"/><path d="m267.729 193.881v248.483c0 34.309 27.812 62.121 62.121 62.121s62.121-27.812 62.121-62.121c0-4.258 0-219.197 0-320.718l-30.727-48.173c-53.755 13.676-93.515 62.398-93.515 120.408z" fill="#ffce71"/></g><g fill="#ff8e9e"><ellipse cx="190.967" cy="230.503" rx="29.355" ry="23.377"/><ellipse cx="350.08" cy="230.503" rx="29.355" ry="23.377"/></g><g><path d="m385.78 54.567c-2.197-17.082-14.867-28.639-33.586-35.104-4.376-1.516-8.783-2.981-13.212-4.407h-40.46v22.027c2.147-.241 4.309-.36 6.47-.351 5.55-.02 11.104.784 16.406 2.407 6.942 2.121 12.02 7.435 13.404 13.845.777 3.569 1.538 7.14 2.282 10.712-10.112-1.805-20.822-2.747-32.1-2.648-4.687-.044-9.268.102-13.753.405l-7.452 10.055 4.765 22.521c5.34-.508 10.818-.747 16.434-.69 34.648-.325 63.773 10.423 86.993 28.306-.282-6.447-5.162-61.385-6.191-67.078z" fill="#ff8e9e"/><path d="m272.883 63.678c.746-3.571 1.509-7.142 2.288-10.71 1.388-6.41 6.469-11.721 13.412-13.838h.001c3.238-.989 6.571-1.669 9.938-2.046 5.875-9.431 15.357-13.529 27.308-17.648 4.356-1.506 8.743-2.961 13.152-4.379-5.531-1.781-11.098-3.499-16.71-5.137-5.584-1.63-11.428-2.438-17.27-2.419-5.842-.023-11.687.781-17.272 2.409-10.108 2.944-20.087 6.122-29.928 9.526-18.722 6.453-31.402 18.003-33.609 35.083-1.042 5.709-6.073 60.623-6.347 67.089 19.455-14.991 43.094-24.95 70.699-27.579.946-8.102 1.944-26.902 2.687-32.575-6.32.426-12.441 1.173-18.349 2.224z" fill="#ea5b70"/></g><g><path d="m202.108 144.161c3.397 2.37 8.072 1.538 10.442-1.859l10.735-15.386c46.036-34.829 114.448-35.313 161.185-1.474v146.73c0 4.142 3.357 7.5 7.5 7.5s7.5-3.358 7.5-7.5v-143.026h32.574c20.112 0 36.475-16.362 36.475-36.474s-16.362-36.474-36.475-36.474h-38.474c-.146-1.205-.271-2.143-.372-2.748-2.513-19.028-15.842-33.229-38.549-41.071-9.521-3.3-20.557-6.82-30.276-9.657-6.182-1.805-12.627-2.72-19.109-2.72-.078 0-.156 0-.233 0-6.617-.055-13.144.885-19.397 2.708-10.14 2.953-20.328 6.195-30.275 9.635-22.719 7.831-36.056 22.021-38.581 41.044-1.171 6.926-5.427 53.648-6.284 65.649l-10.242 14.679c-2.372 3.398-1.54 8.074 1.856 10.444zm229.937-72.964c11.841 0 21.475 9.633 21.475 21.474s-9.634 21.474-21.475 21.474h-33.095c-.821-10.323-2.456-28.903-3.815-42.948zm-200.475-15.33c.023-.128.044-.256.061-.386 1.713-13.258 11.341-23 28.622-28.957 9.721-3.362 19.671-6.528 29.575-9.413 9.386-2.736 20.321-2.917 30.342.009 9.492 2.771 20.27 6.208 29.575 9.434 17.271 5.964 26.892 15.711 28.597 28.971.016.126.035.252.059.378.775 4.296 4.046 40.838 4.893 50.777-46.61-27.938-109.236-28.513-156.744-.056 1.618-18.544 4.348-47.072 5.02-50.757z"/><path d="m200.575 196v12c0 4.142 3.357 7.5 7.5 7.5s7.5-3.358 7.5-7.5v-12c0-4.142-3.357-7.5-7.5-7.5s-7.5 3.357-7.5 7.5z"/><path d="m325.472 196v12c0 4.142 3.357 7.5 7.5 7.5s7.5-3.358 7.5-7.5v-12c0-4.142-3.357-7.5-7.5-7.5s-7.5 3.357-7.5 7.5z"/><path d="m292.642 212.57c2.722-3.123 2.396-7.86-.727-10.582-3.125-2.722-7.861-2.396-10.582.727-5.737 6.583-15.911 6.55-21.62 0-2.723-3.122-7.46-3.448-10.582-.727-3.122 2.722-3.448 7.459-.727 10.582 11.706 13.43 32.545 13.417 44.238 0z"/><path d="m399.471 310.634v-8.366c0-4.142-3.357-7.5-7.5-7.5s-7.5 3.358-7.5 7.5v23.852c0 4.142 3.357 7.5 7.5 7.5s7.5-3.358 7.5-7.5v-.485c29.854.309 54.049 24.68 54.049 54.606 0 29.925-24.192 54.294-54.049 54.606 0-11.049-15-10.361-15-.632v8.166c0 30.118-24.503 54.621-54.621 54.621-30.117 0-54.62-24.503-54.62-54.621v-8.166c0-9.685-15-10.452-15 .65l-147.086-.003c-44.323 0-69.857-49.942-44.796-85.875l127.039-182.081c2.37-3.397 1.537-8.072-1.86-10.442-3.396-2.372-8.072-1.537-10.441 1.859l-127.04 182.08c-31.924 45.768.57 109.458 57.098 109.458l147.494.003c3.746 34.882 33.352 62.136 69.211 62.136 35.863 0 65.471-27.258 69.214-62.143 38.313-.09 69.456-31.283 69.456-69.616 0-38.198-30.923-69.297-69.048-69.607z"/><path d="m337.084 71.199c4.757 0 8.311-4.379 7.343-9.029-.749-3.595-1.515-7.188-2.294-10.766-1.963-9.094-9.068-16.541-18.54-19.435-11.993-3.669-25.205-3.673-37.196-.012-9.478 2.889-16.587 10.332-18.553 19.412-.784 3.591-1.552 7.183-2.303 10.777-1.083 5.187 3.429 9.85 8.655 8.918 33.133-5.895 61.314.135 62.888.135zm-54.621-16.468c.936-4.282 4.322-7.21 8.312-8.427 9.036-2.759 19.396-2.755 28.433.01 4.046 1.236 7.379 4.201 8.302 8.43-14.568-1.636-30.361-1.653-45.047-.013z"/><path d="m267.729 333.62c4.143 0 7.5-3.358 7.5-7.5v-59.282c0-7.347-9.605-10.363-13.773-4.11-10.66 16.272-16.036 23.382-35.376 51.101-3.465 4.967.102 11.792 6.151 11.792h27.998v.5c0 4.141 3.358 7.499 7.5 7.499zm-21.094-23c5.604-7.982 9.904-14.063 13.595-19.348v19.348z"/></g></g></svg>