<svg id="Capa_1" enable-background="new 0 0 512 512" height="512" viewBox="0 0 512 512" width="512" xmlns="http://www.w3.org/2000/svg"><g><path d="m248.208 147.291h-.937v-15.53h87.517c34.142 0 62.6-27.159 63.041-61.298.449-34.686-27.532-62.943-62.115-62.943h-60.564c-43.085 0-78.014 34.928-78.014 78.013v137.088l76.288 49.537c18.194 11.814 29.172 32.033 29.172 53.726 0 29.971-24.399 54.355-54.389 54.355l-51.071 37.006v50.229l51.071 37.006c98.499 0 178.63-80.117 178.63-178.597.001-98.476-80.131-178.592-178.629-178.592z" fill="#ff8f71"/><path d="m248.208 380.24c-19.364 0-37.43-10.431-47.151-27.223-17.189-29.692-55.196-39.826-84.885-22.637-29.692 17.189-39.826 55.193-22.637 84.885 31.858 55.032 91.124 89.216 154.674 89.216-34.309-34.308-34.309-89.933-.001-124.241z" fill="#ff6f4d"/><path d="m239.519 205.957c-15.741-4.781-26.489-19.313-26.489-35.764v-100.553c0-34.309 27.812-62.121 62.121-62.121h-90c-34.308 0-62.121 27.812-62.121 62.121 0 147.27-.418 140.497-.418 140.497.388 34.169 28.824 61.395 62.994 61.395h62.602c29.99 0 54.389 24.381 54.389 54.353v-34.783c0-40.154-26.59-74.062-63.078-85.145z" fill="#ff6f4d"/><g><g><path d="m278.032 75.999h-39c-10.77 0-19.5 8.051-19.5 26 0 20.211 11.019 42.254 23.151 38.423 3.539 8.218 9.317 13.577 15.849 13.577s12.31-5.359 15.849-13.577c12.131 3.831 23.151-18.211 23.151-38.423 0-17.949-8.73-26-19.5-26z" fill="#ffce71"/><path d="m313.046 93.547c-1.472-5.677-3.612-11.181-6.383-16.366-6.688-12.513-18.703-21.232-32.964-23.92-6.069-1.144-11.966 1.576-15.166 6.426-3.2-4.849-9.099-7.569-15.167-6.426-14.261 2.688-26.275 11.407-32.963 23.92-2.77 5.184-4.91 10.689-6.383 16.366-2.448 9.439 4.621 18.662 14.372 18.662 6.719 0 12.692-4.487 14.349-10.998.885-3.477 2.186-6.847 3.881-10.018 2.385-4.464 6.965-7.723 12.252-8.72 4.125-.778 7.52-3.222 9.658-6.473 2.138 3.251 5.533 5.695 9.658 6.473 5.287.997 9.868 4.257 12.253 8.719 1.694 3.172 2.996 6.543 3.881 10.019 1.657 6.511 7.63 10.998 14.349 10.998 9.752 0 16.821-9.224 14.373-18.662z" fill="#fce3a0"/></g></g><g><path d="m375.804 12.712c-11.774-8.304-25.636-12.712-40.09-12.712h-150.564c-38.389 0-69.62 31.25-69.62 69.64v140.582c.431 37.942 31.637 68.81 70.077 68.81h62.602c25.855 0 46.889 21.018 46.889 46.853 0 25.836-21.034 46.855-46.889 46.855-16.695 0-32.276-8.998-40.661-23.481-18.92-32.68-61.35-44.928-95.134-25.37-32.68 18.92-44.928 61.347-25.37 95.133 11.711 20.229 26.973 37.882 45.363 52.469 3.246 2.575 7.964 2.029 10.537-1.215 2.574-3.245 2.03-7.962-1.215-10.537-16.909-13.413-30.94-29.64-41.703-48.232-15.375-26.561-5.684-59.824 19.903-74.637 26.514-15.349 59.798-5.726 74.637 19.904 11.058 19.1 31.612 30.965 53.643 30.965 34.126 0 61.889-27.748 61.889-61.855 0-34.105-27.763-61.853-61.889-61.853h-62.602c-32.625 0-55.945-27.765-55.077-54.081v-140.31c0-30.118 24.503-54.621 54.62-54.621h150.564c11.341 0 22.214 3.441 31.443 9.951 3.388 2.387 8.065 1.579 10.452-1.806 2.388-3.385 1.58-8.064-1.805-10.452z"/><path d="m288.657 144.095c1.748-1.369 3.346-3.003 4.798-4.834h41.333c52.724 0 86.545-55.428 62.863-101.443-1.896-3.683-6.419-5.129-10.102-3.236-3.683 1.896-5.132 6.418-3.236 10.101 18.501 35.935-7.731 79.578-49.525 79.578h-33.508c.562-1.644 1.052-3.292 1.478-4.926 12.508-2.293 20.875-14.845 17.548-27.671-6.989-26.939-23.96-41.766-45.217-45.774-5.795-1.092-11.662.106-16.556 3.375-4.894-3.269-10.762-4.469-16.556-3.375-21.231 4.003-38.223 18.813-45.216 45.774-3.322 12.806 5.018 25.373 17.545 27.67 2.67 10.238 7.958 21.202 16.251 26.276 2.494 1.526 5.102 2.423 7.737 2.68 8.762 14.598 23.159 16.783 33.66 8.089 84.203 11.363 147.383 83.772 147.383 169.505 0 94.343-76.769 171.097-171.13 171.097-28.71 0-57.264-7.376-82.575-21.333-3.627-2-8.188-.68-10.188 2.946-2 3.627-.682 8.189 2.946 10.189 27.523 15.176 58.582 23.217 89.818 23.217 102.633 0 186.13-83.501 186.13-186.116 0-87.273-60.053-163.156-145.681-181.789zm-77.376-48.665c1.33-5.129 3.261-10.08 5.737-14.714 5.612-10.5 15.723-17.821 27.738-20.086 1.937-.366 3.901.049 5.528 1.165 4.934 3.385 11.563 3.385 16.497-.001 1.627-1.116 3.591-1.528 5.527-1.164 12.018 2.266 22.128 9.586 27.738 20.085 2.478 4.636 4.408 9.587 5.738 14.715 1.306 5.034-2.803 9.921-8.117 9.199-2.979-.402-5.363-2.47-6.075-5.269-3.161-12.422-9.462-21.893-22.012-24.258-.987-.186-1.907-.567-2.734-1.133-4.985-3.404-11.666-3.39-16.631.002-.825.564-1.744.945-2.731 1.131-12.628 2.381-18.883 11.958-22.012 24.259-.81 3.184-3.863 5.348-7.08 5.348-4.828 0-8.331-4.573-7.111-9.279zm38.291 42.026c-1.522-3.537-5.477-5.342-9.147-4.186-.298.096-.854.271-2.039-.456-3.088-1.889-6.86-7.691-9.201-15.855 5.309-2.884 9.284-7.837 10.826-13.898.739-2.906 1.825-5.709 3.227-8.333 1.306-2.442 3.998-4.313 7.028-4.885 2.979-.563 5.761-1.702 8.268-3.387 2.511 1.686 5.291 2.825 8.269 3.387 3.03.571 5.724 2.442 7.027 4.882 1.402 2.625 2.488 5.43 3.228 8.335 1.542 6.061 5.517 11.013 10.824 13.897-2.341 8.165-6.113 13.968-9.201 15.857-1.187.725-1.741.55-2.039.456-3.667-1.156-7.623.649-9.147 4.186-2.365 5.494-5.883 9.043-8.961 9.043-3.08 0-6.596-3.55-8.962-9.043z"/><path d="m188.585 53.272v12c0 4.142 3.357 7.5 7.5 7.5s7.5-3.358 7.5-7.5v-12c0-4.142-3.357-7.5-7.5-7.5s-7.5 3.358-7.5 7.5z"/><path d="m313.483 53.272v12c0 4.142 3.357 7.5 7.5 7.5s7.5-3.358 7.5-7.5v-12c0-4.142-3.357-7.5-7.5-7.5s-7.5 3.358-7.5 7.5z"/></g></g></svg>