<svg id="Capa_1" enable-background="new 0 0 512 512" height="512" viewBox="0 0 512 512" width="512" xmlns="http://www.w3.org/2000/svg"><g><g><path d="m277.336 148.577h-70.809v154.754c8.835-19.313 28.26-31.791 49.481-31.791 29.971 0 54.355 24.384 54.355 54.355s-24.384 54.356-54.355 54.356l-85.731 62.12 85.731 62.121c98.48 0 178.597-80.117 178.597-178.597 0-91.262-68.808-166.743-157.269-177.318z" fill="#ff8e9e"/><path d="m270.983 13.16c-31.203-14.286-68.06-.555-82.334 30.642l-95.089 207.817c-.004.009-.008.017-.012.026-10.708 23.407-16.137 48.389-16.137 74.25 0 98.48 80.117 178.597 178.597 178.597-17.154-17.154-25.731-39.637-25.731-62.121s8.577-44.966 25.731-62.121c-29.971 0-54.355-24.384-54.355-54.356 0-7.902 1.641-15.494 4.875-22.564l70.809-154.754 24.289-53.083c14.273-31.196.554-68.059-30.643-82.333z" fill="#ea5b70"/></g><g><g><g><ellipse cx="175.98" cy="232.325" fill="#ffdbe0" rx="23.515" ry="29.529" transform="matrix(.002 -1 1 .002 -56.73 407.796)"/></g><g><ellipse cx="336.036" cy="232.675" fill="#ffdbe0" rx="23.515" ry="29.529" transform="matrix(.002 -1 1 .002 102.626 568.201)"/></g></g></g><g><path d="m291.008 220.403c-10.867-11.379-27.363-12.811-34.999-2.116-7.636-10.695-24.132-9.263-34.999 2.116-11.522 12.083-20.509 23.375-17.004 29.442 3.502 6.07 17.772 3.928 34-.005 8.064-1.963 14.507-6.67 18.004-12.432 3.497 5.762 9.94 10.469 18.004 12.432 16.227 3.933 30.498 6.075 34 .005 3.503-6.067-5.485-17.359-17.006-29.442z" fill="#4c5699"/></g><g><path d="m193.473 195.31c-4.143 0-7.5 3.357-7.5 7.5v12c0 4.143 3.357 7.5 7.5 7.5s7.5-3.357 7.5-7.5v-12c0-4.143-3.357-7.5-7.5-7.5z"/><path d="m325.871 214.81v-12c0-4.143-3.357-7.5-7.5-7.5s-7.5 3.357-7.5 7.5v12c0 4.143 3.357 7.5 7.5 7.5s7.5-3.358 7.5-7.5z"/><path d="m288.313 142.614 20.133-44c21.135-46.202-12.92-98.614-63.277-98.614-26.808 0-52.035 15.973-63.341 40.681l-95.1 207.843c-34.145 74.646-15.207 162.827 46.496 217.107 3.109 2.736 7.849 2.433 10.585-.677s2.433-7.85-.677-10.585c-56.682-49.863-74.19-130.909-42.752-199.631l95.089-207.817c12.38-27.057 44.637-39.651 72.394-26.942 26.995 12.351 39.665 44.588 26.942 72.393-14.319 31.294-13.978 30.547-28.225 61.686-1.723 3.767-.066 8.217 3.7 9.94 3.771 1.726 8.218.065 9.94-3.7l1.621-3.544c83.191 12.617 145.263 84.388 145.263 169.14 0 94.343-76.754 171.097-171.097 171.097-31.801.001-62.86-8.825-89.82-25.523-3.521-2.181-8.144-1.094-10.325 2.427-2.182 3.521-1.095 8.145 2.427 10.325 29.335 18.169 63.126 27.78 97.719 27.779 102.614 0 186.097-83.49 186.097-186.104 0-90.745-65.428-167.807-153.792-183.281z"/><path d="m278.762 284.946c3.614 2.017 8.186.724 10.204-2.894 2.019-3.616.724-8.185-2.894-10.204-40.994-22.885-91.92 6.897-91.92 54.047 0 34.107 27.748 61.855 61.855 61.855 47.26 0 77.024-51.136 53.928-92.132-2.033-3.609-6.604-4.884-10.216-2.853-3.608 2.033-4.886 6.606-2.853 10.216 17.488 31.041-5.071 69.769-40.859 69.769-25.836 0-46.855-21.02-46.855-46.855.001-35.69 38.553-58.287 69.61-40.949z"/><path d="m296.431 215.223c-11.399-11.936-28.568-15.431-40.423-7.304-11.825-8.107-28.994-4.663-40.427 7.308-12.679 13.296-24.518 27.21-18.073 38.365 6.436 11.157 24.407 7.866 42.27 3.535 6.187-1.506 11.778-4.39 16.23-8.271 4.453 3.882 10.046 6.767 16.237 8.273 8.859 2.147 17.745 4.039 25.238 4.039 7.608 0 13.78-1.952 17.021-7.571 6.447-11.16-5.392-25.074-18.07-38.37 0-.001-.002-.003-.003-.004zm-20.645 27.33c-5.791-1.409-10.787-4.787-13.366-9.036-2.916-4.804-9.906-4.806-12.822 0-2.579 4.249-7.575 7.627-13.359 9.034-17.082 4.142-23.215 3.856-25.35 3.32.6-2.122 3.422-7.575 15.545-20.289 7.23-7.571 18.526-9.864 23.471-2.938 2.988 4.186 9.22 4.187 12.209 0 4.94-6.92 16.226-4.647 23.471 2.938 12.125 12.716 14.945 18.168 15.545 20.289-2.135.54-8.268.821-25.344-3.318z"/></g></g></svg>