<svg id="Capa_1" enable-background="new 0 0 512 512" height="512" viewBox="0 0 512 512" width="512" xmlns="http://www.w3.org/2000/svg"><g><g><path d="m432.166 59.386c-1.004-5.15-5.042-9.188-10.192-10.192-16.27-3.171-33.774 1.54-46.382 14.148-12.37 12.37-17.385 29.773-14.148 46.382 1.004 5.15 5.042 9.188 10.192 10.192 16.27 3.171 33.774-1.54 46.382-14.148s17.319-30.113 14.148-46.382z" fill="#d4d4ff"/><path d="m429.636 180.46c5.654-1.102 10.088-5.535 11.19-11.19 3.482-17.862-1.69-37.08-15.533-50.922s-33.06-19.014-50.922-15.533c-5.654 1.102-10.088 5.535-11.19 11.19-3.482 17.862 1.69 37.08 15.533 50.922 13.842 13.843 33.06 19.015 50.922 15.533z" fill="#9ea2e3"/></g><g><path d="m296.654 67.993v38.059c38.811 0 69.855 28.211 61.846 60.25l17.328 13.5 21.826-13.5c0-55.973-45.219-98.309-101-98.309z" fill="#d4d4ff"/><path d="m195.654 169.341h23.538l16.202-22.877c4.353-17.415 19.286-33.207 44.886-38.693 3.56-13.446 8.001-26.717 13.323-39.728-54.369 1.62-97.949 46.35-97.949 101.298z" fill="#9ea2e3"/></g><g><path d="m350.538 16.356c-21.738 0-26.57 0-48.795 0l-102.738 410.947v68.34h58.363c13.653-8.177 24.186-21.563 28.352-38.223l88.651-354.604 4.53-18.12c6.543-26.18-4.533-54.07-28.363-68.34z" fill="#e8b5b1"/><path d="m240.311 480.6c-11.775-15.078-15.943-34.74-11.305-53.297l93.181-372.723c4.166-16.66 14.698-30.046 28.351-38.223-9.526-5.705-20.52-8.847-31.904-8.847h-186.362c-34.309 0-62.121 27.812-62.121 62.121s27.812 62.121 62.121 62.121h106.8l-73.887 295.537c-8.32 33.283 11.917 67.01 45.201 75.333 5.06 1.262 10.125 1.869 15.112 1.869 11.407 0 22.391-3.169 31.87-8.847-6.482-3.882-12.291-8.938-17.057-15.044z" fill="#d6948c"/></g><g fill="#ffdbe0"><ellipse cx="145.646" cy="74.403" rx="29.816" ry="23.744"/><ellipse cx="307.261" cy="74.403" rx="29.816" ry="23.744"/></g><g><path d="m358.5 166.302c-6.558 26.232-38.764 45.354-74.189 39.783l-14.608 6v90.751l26.952 17.657c1.449 0 2.896-.1 4.336-.279 3.239-.404 6.429-1.262 9.469-2.572 5.17-2.228 9.903-5.756 13.673-10.607 29.908-38.485 73.521-103.952 73.521-140.734h-39.154z" fill="#d4d4ff"/><path d="m292.318 310.091c-3.579-9.02-6.732-18.161-9.469-27.394-4.911-16.568-8.462-33.433-10.662-50.433-1.346-10.401 3.206-20.659 12.123-26.179-33.186-5.125-56.282-30.16-48.916-59.621l-39.74 22.877c0 36.782 43.614 99.209 73.522 137.695 3.77 4.851 8.503 8.379 13.673 10.607 3.04 1.31 6.229 2.168 9.469 2.572 1.439.178 2.887.279 4.336.279-1.509-3.45-2.953-6.917-4.336-10.403z" fill="#9ea2e3"/></g><g><path d="m142.652 66.502c0 4.143 3.357 7.5 7.5 7.5s7.5-3.357 7.5-7.5c0-3.455 2.811-6.266 6.265-6.266s6.265 2.811 6.265 6.266c0 4.143 3.357 7.5 7.5 7.5s7.5-3.357 7.5-7.5c0-11.726-9.539-21.266-21.265-21.266s-21.265 9.54-21.265 21.266z"/><path d="m265.697 66.502c0 4.143 3.357 7.5 7.5 7.5s7.5-3.357 7.5-7.5c0-3.455 2.811-6.266 6.265-6.266s6.265 2.811 6.265 6.266c0 4.143 3.357 7.5 7.5 7.5s7.5-3.357 7.5-7.5c0-11.726-9.539-21.266-21.265-21.266s-21.265 9.54-21.265 21.266z"/><path d="m246.85 78.317c0 3.835-3.12 6.955-6.956 6.955-3.835 0-6.955-3.12-6.955-6.955 0-4.143-3.357-7.5-7.5-7.5s-7.5 3.357-7.5 7.5c0 3.835-3.12 6.955-6.956 6.955-3.835 0-6.955-3.12-6.955-6.955 0-4.143-3.357-7.5-7.5-7.5s-7.5 3.357-7.5 7.5c0 18.831 22.276 28.898 36.411 16.504 14.123 12.384 36.412 2.338 36.412-16.504 0-4.143-3.357-7.5-7.5-7.5s-7.501 3.358-7.501 7.5z"/><path d="m425.613 108.596c12.198-13.659 17.477-32.294 13.899-50.644-1.596-8.195-7.922-14.522-16.118-16.12-13.349-2.602-26.985-.518-38.779 5.684-1.341-4.006-3.034-7.889-5.093-11.61-2.006-3.623-6.569-4.935-10.194-2.931-3.624 2.006-4.936 6.569-2.931 10.194 6.701 12.107 8.558 26.329 5.213 39.708l-20.401 81.605c-4.997 19.993-28.457 35.07-54.569 35.07-32.591 0-61.346-21.83-53.983-51.271l3.678-14.713c1.182-4.733-2.405-9.318-7.276-9.318h-106.8c-30.118 0-54.621-24.503-54.621-54.62 0-30.118 24.503-54.621 54.621-54.621h186.361c10.993 0 21.399 3.343 30.021 9.017 3.464 2.274 8.111 1.314 10.388-2.147 2.274-3.462 1.313-8.112-2.147-10.388-11.416-7.496-24.705-11.491-38.263-11.491h-186.361c-38.39 0-69.621 31.241-69.621 69.631 0 38.389 31.231 69.62 69.621 69.62h60.091c-9.573 33.379-1.78 57.23 14.919 88.73l-38.109 152.43c-1.004 4.019 1.438 8.091 5.457 9.096 4.036 1.006 8.094-1.452 9.096-5.457l34.299-137.19c14.644 24.168 32.083 47.862 45.229 64.777 11.865 15.27 31.411 19.705 47.712 13.875l-32.522 130.089c-6.269 25.073-28.738 41.39-52.945 41.39-35.536 0-61.681-33.299-53.037-67.883l3.988-15.954c1.004-4.019-1.439-8.091-5.457-9.096-4.021-.999-8.09 1.439-9.096 5.457l-3.988 15.955c-11.011 44.068 22.308 86.53 67.59 86.53 30.872 0 59.501-20.779 67.498-52.761l36.832-147.328c.073-.093.153-.18.226-.274 14.345-18.458 59.775-79.354 72.021-124.842 9.494 2.563 19.293 2.916 28.997 1.026 8.7-1.696 15.419-8.415 17.115-17.117 4.491-23.047-3.877-46.946-22.561-62.108zm-39.45-22.081c1.93-7.72 2.508-15.558 1.735-23.549 9.566-6.289 21.236-8.629 32.627-6.411 2.168.423 3.842 2.097 4.265 4.266 2.833 14.532-1.796 29.293-12.125 39.615-8.84-4.189-18.565-6.316-28.443-6.159zm3.052 89.168c-6.088 33.908-40.678 87.708-71.019 126.75-.298.383-.607.755-.922 1.119-.032.038-.063.076-.095.115-5.188 5.94-12.589 9.315-20.545 9.315-.001 0-.002 0-.003 0-8.484-.001-16.338-3.846-21.547-10.549-15.751-20.269-37.775-50.426-53.245-78.996-12.408-22.914-18.699-41.115-18.699-54.096 0-10.326 1.663-20.423 4.926-30.09h21.386l-1.349 5.394c-9.777 39.136 25.661 69.909 68.536 69.909 33.327 0 62.397-19.528 69.122-46.433l11.942-47.768c11.282 19.173 14.168 40.536 11.512 55.33zm44.235-7.848c-.521 2.677-2.588 4.743-5.263 5.265-7.827 1.523-15.802 1.138-23.359-1.096 1.939-20.666-4.117-43.651-16.307-62.666 11.746.725 22.783 5.663 31.456 14.336 11.743 11.744 16.655 27.84 13.473 44.161z"/></g></g></svg>