<svg id="Capa_1" enable-background="new 0 0 512 512" height="512" viewBox="0 0 512 512" width="512" xmlns="http://www.w3.org/2000/svg"><g><g><path d="m255.965 37.5s-.001 0-.002 0-.001 0-.002 0-.003 0-.004 0c-91.831.004-166.54 74.731-166.54 166.583h104.056c0-34.511 27.977-62.54 62.488-62.54l.008-104.043c-.001 0-.003 0-.004 0z" fill="#9ea2e3"/><path d="m255.969 37.5-.008 104.043c34.511 0 62.488 28.029 62.488 62.54h104.135c-.001-91.835-74.743-166.579-166.615-166.583z" fill="#d4d4ff"/></g><g><path d="m154 122.031h-34.583c-45.287 0-82 36.713-82 82s36.713 82 82 82h34.583z" fill="#976bcf"/><path d="m392.583 122.031h-34.583v164h34.583c45.287 0 82-36.713 82-82s-36.713-82-82-82z" fill="#b28ae4"/></g><g><path d="m353.264 33.611c-23.058-13.364-48.665-21.773-75.073-24.812h-37.617v76.474l15.391 15.391h84.522l20.979-36.336c6.206-10.749 2.536-24.493-8.202-30.717z" fill="#b28ae4"/><path d="m278.191 8.799c-7.349-.845-14.755-1.299-22.191-1.299-34.157 0-67.79 9.029-97.264 26.111-10.738 6.224-14.408 19.968-8.202 30.717l20.979 36.336h84.452v-37.62c0-20.307 7.995-39.782 22.226-54.245z" fill="#976bcf"/></g><g><path d="m392.583 204.053c0-75.296-61.289-136.553-136.622-136.553l1.313 101.229c23.666-.307 39.018 23.849 30.447 45.185l-28.927 72.007 29.08 73.583c7.987 20.211-5.377 43.215-27.544 44.88l1.296 99.959c72.66-2.983 130.853-63.029 130.853-136.426 0-30.692-10.177-59.049-27.331-81.878 17.216-22.848 27.435-51.246 27.435-81.986z" fill="#ffce71"/><path d="m261.459 286.032c56.65-62.692 54.253-158.785-5.494-218.532-75.313 0-136.548 61.27-136.548 136.583 0 30.722 10.199 59.106 27.384 81.948-17.186 22.843-27.384 51.226-27.384 81.949 0 75.312 64.069 136.521 139.381 136.521 60.21-60.363 62.964-158.166 2.661-218.469zm-5.459-109.266c15.061 0 27.317 12.255 27.317 27.317 0 15.038-12.217 27.276-27.246 27.315-.024 0-.047-.001-.07-.001-.024 0-.047.001-.07.001-15.029-.038-27.246-12.277-27.246-27.315-.002-15.062 12.254-27.317 27.315-27.317zm0 218.53c-15.061 0-27.317-12.255-27.317-27.316 0-15.038 12.217-27.277 27.246-27.315.024 0 .047.001.07.001.024 0 .047-.001.07-.001 15.029.038 27.246 12.277 27.246 27.315.002 15.061-12.254 27.316-27.315 27.316z" fill="#ffb357"/></g><g fill="#ff8e9e"><path d="m186.443 284.187c-16.212 0-29.355 10.466-29.355 23.376 0 12.911 13.142 23.377 29.355 23.377s29.355-10.466 29.355-23.377c0-12.91-13.142-23.376-29.355-23.376z"/><path d="m325.557 284.187c-16.212 0-29.355 10.466-29.355 23.376 0 12.911 13.143 23.377 29.355 23.377s29.355-10.466 29.355-23.377c0-12.91-13.143-23.376-29.355-23.376z"/></g><g><path d="m256 402.796c19.198 0 34.816-15.618 34.816-34.816 0-20.622-17.84-35.498-34.906-34.815-19.148.05-34.727 15.668-34.727 34.815.001 19.198 15.619 34.816 34.817 34.816zm.104-54.632c10.875.057 19.713 8.935 19.713 19.815 0 10.927-8.89 19.816-19.816 19.816s-19.816-8.89-19.816-19.816c-.001-10.02 7.654-19.5 19.919-19.815z"/><path d="m290.816 204.082c0-19.198-15.618-34.816-34.816-34.816s-34.816 15.618-34.816 34.816c0 19.148 15.578 34.767 34.746 34.815h.069c.036 0 .068.002.09 0 19.149-.048 34.727-15.667 34.727-34.815zm-34.733 19.815-.083-.001c-.028 0-.067 0-.106.001-10.873-.058-19.71-8.936-19.71-19.815 0-10.927 8.89-19.816 19.816-19.816s19.816 8.89 19.816 19.816c0 10.888-8.849 19.771-19.733 19.815z"/><path d="m211.051 285.06v-12c0-4.143-3.357-7.5-7.5-7.5s-7.5 3.357-7.5 7.5v12c0 4.143 3.357 7.5 7.5 7.5s7.5-3.358 7.5-7.5z"/><path d="m315.948 285.06v-12c0-4.143-3.357-7.5-7.5-7.5s-7.5 3.357-7.5 7.5v12c0 4.143 3.357 7.5 7.5 7.5s7.5-3.358 7.5-7.5z"/><path d="m266.81 279.776c-5.724 6.568-15.9 6.562-21.619 0-2.721-3.123-7.459-3.448-10.581-.728-3.123 2.721-3.449 7.459-.728 10.581 11.701 13.429 32.545 13.418 44.236 0 2.722-3.122 2.396-7.86-.728-10.581-3.122-2.721-7.86-2.396-10.58.728z"/><path d="m482.083 204.031c0-17.184-4.882-33.874-14.117-48.268-2.237-3.487-6.877-4.497-10.363-2.262-3.485 2.237-4.498 6.877-2.262 10.363 7.682 11.971 11.742 25.859 11.742 40.166 0 41.079-33.421 74.5-74.5 74.5h-13.293c28.598-46.78 27.203-103.306-.254-149h13.548c16.05 0 31.342 5.029 44.224 14.545 1.341.99 2.902 1.469 4.45 1.469 2.299 0 4.567-1.054 6.038-3.045 2.462-3.331 1.756-8.027-1.576-10.488-11.898-8.79-25.51-14.38-39.926-16.503-10.301-17.37-23.373-32.639-38.94-45.511l1.108-1.919c8.258-14.302 3.352-32.675-10.937-40.956-30.617-17.743-65.55-27.122-101.025-27.122-35.476 0-70.409 9.379-101.024 27.122-14.288 8.281-19.194 26.654-10.937 40.956l1.097 1.9c-15.572 12.877-28.646 28.153-38.945 45.532-43.102 6.412-76.274 43.664-76.274 88.521 0 49.351 40.149 89.5 89.5 89.5h13.301c-2.499 4.123-4.814 8.352-6.88 12.688-1.782 3.739-.194 8.215 3.545 9.996 3.734 1.779 8.215.195 9.996-3.545 3.177-6.667 6.952-13.088 11.238-19.139h3.185c4.143 0 7.5-3.357 7.5-7.5s-3.357-7.5-7.5-7.5h-3.168c-60.628-85.262 1.585-203.529 105.331-203.531 103.926.004 165.873 118.493 105.359 203.531h-3.17c-4.143 0-7.5 3.357-7.5 7.5s3.357 7.5 7.5 7.5h3.15c56.925 80.318 4.597 203.432-105.625 203.432-78.809-1.898-144.176-75.64-125.57-157.578.918-4.039-1.613-8.058-5.652-8.975-4.045-.915-8.058 1.613-8.975 5.652-10.686 47.044 2.511 97.21 40.157 133.798 27.961 27.174 64.596 42.14 103.16 42.14 37.368 0 75.008-17.351 100.905-44.265 46.169-47.983 52.64-119.657 19.533-174.204h13.346c49.351 0 89.5-40.149 89.5-89.5zm-349.412 74.5h-13.254c-41.079 0-74.5-33.421-74.5-74.5s33.421-74.5 74.5-74.5h13.6c-27.052 44.8-29.57 101.21-.346 149zm10.72-164h-18.8c7.954-11.66 17.373-22.162 28.157-31.369l7.634 13.221c-5.999 5.398-11.604 11.305-16.991 18.148zm196.461-27.767c-24.081-17.393-53.074-26.763-83.891-26.764-30.696.001-59.654 9.399-83.767 26.844l-15.165-26.266c-4.129-7.151-1.676-16.338 5.468-20.478 28.333-16.42 60.665-25.1 93.503-25.1 32.837 0 65.169 8.68 93.503 25.101 7.144 4.14 9.597 13.326 5.468 20.478zm11.815 9.535 7.574-13.118c10.78 9.202 20.196 19.697 28.15 31.35h-18.686c-5.12-6.529-10.659-12.494-17.038-18.232z"/></g></g></svg>