<svg id="Capa_1" enable-background="new 0 0 512 512" height="512" viewBox="0 0 512 512" width="512" xmlns="http://www.w3.org/2000/svg"><g><g><path d="m255.997 281.095c-25.359 0-45.99-20.632-45.99-45.99 0-25.359 20.631-45.99 45.99-45.99v-105.121c-83.324 0-151.111 67.787-151.111 151.11 0 77.217 58.218 141.081 133.065 150.029h59.911v-130.936c-7.475 16.34-23.91 26.898-41.865 26.898z" fill="#ff6f4d"/><path d="m255.997 83.994c.002.002-.002.004 0 .005v-.004c-14.514 14.514-21.771 33.537-21.771 52.56s7.257 38.046 21.771 52.56v-.002c25.357.001 45.99 20.632 45.99 45.99 0 6.685-1.388 13.109-4.125 19.092l-59.911 130.937-20.551 44.913c-12.078 26.396-.469 57.585 25.926 69.663 26.401 12.088 57.585.47 69.663-25.926l80.455-175.834c.003-.007.007-.014.01-.022 9.059-19.805 13.653-40.942 13.653-62.823.001-83.322-67.786-151.109-151.11-151.109z" fill="#ff8f71"/></g><g><g><path d="m247.192 139.17c2.869.109 5.75.164 8.642.164 30.023 0 59.459-5.809 87.054-17.002.367-14.06 1.311-28.092 2.828-42.063 1.419-13.068 3.333-26.083 5.753-39.014 1.719-9.184-3.682-18.222-12.593-21.033-26.97-8.506-54.941-12.738-82.909-12.723-2.234.001-4.469.039-6.702.095l-23.944 8.02v110.103z" fill="#8288cb"/><path d="m234.666 39.354c-2.401-12.828 3.694-25.475 14.598-31.759-25.715.637-51.363 4.854-76.181 12.648-8.922 2.802-14.334 11.846-12.614 21.039 2.427 12.971 4.345 26.027 5.765 39.136 1.508 13.93 2.447 27.922 2.812 41.94 24.362 9.816 50.698 15.773 78.146 16.812-.779-11.957-1.808-23.894-3.098-35.804-2.321-21.442-5.458-42.796-9.428-64.012z" fill="#676fb2"/></g><path d="m255.834 159.167c-39.031 0-77.064-9.194-111.932-26.334-12.949-6.366-16.191-23.743-5.709-34.227 6.704-6.702 16.638-7.971 24.557-4.012 28.966 14.476 60.283 21.816 93.084 21.816 32.865 0 64.236-7.366 93.241-21.896 7.881-3.946 17.842-2.743 24.596 4.009 10.409 10.411 7.339 27.771-5.635 34.217-34.278 17.041-72.401 26.427-112.202 26.427z" fill="#676fb2"/></g><g fill="#ffdbe0"><path d="m180.795 298.187c-13.807 0-25 8.914-25 19.909s11.193 19.909 25 19.909 25-8.914 25-19.909c.001-10.996-11.192-19.909-25-19.909z"/><path d="m331.199 298.187c-13.807 0-25 8.914-25 19.908 0 10.995 11.193 19.909 25 19.909s25-8.914 25-19.909-11.193-19.908-25-19.908z"/></g><g><path d="m185.962 292.31v12c0 4.143 3.357 7.5 7.5 7.5s7.5-3.357 7.5-7.5v-12c0-4.143-3.357-7.5-7.5-7.5s-7.5 3.357-7.5 7.5z"/><path d="m310.859 292.31v12c0 4.143 3.357 7.5 7.5 7.5s7.5-3.357 7.5-7.5v-12c0-4.143-3.357-7.5-7.5-7.5s-7.5 3.357-7.5 7.5z"/><path d="m277.504 311.465c0 3.835-3.12 6.955-6.955 6.955-3.836 0-6.956-3.12-6.956-6.955 0-4.143-3.357-7.5-7.5-7.5s-7.5 3.357-7.5 7.5c0 3.835-3.12 6.955-6.955 6.955-3.836 0-6.956-3.12-6.956-6.955 0-4.143-3.357-7.5-7.5-7.5s-7.5 3.357-7.5 7.5c0 18.83 22.277 28.899 36.411 16.504 14.123 12.386 36.411 2.338 36.411-16.504 0-4.143-3.357-7.5-7.5-7.5s-7.5 3.357-7.5 7.5z"/><path d="m378.478 134.459c11.401-10.92 12.295-29.436.496-41.238-6.995-6.994-16.883-9.785-26.222-7.842 1.432-14.473 3.434-28.56 6.088-42.74 2.403-12.798-4.974-25.552-17.708-29.568-27.507-8.676-56.062-13.071-85.168-13.071-28.744.014-57.549 4.426-85.129 13.087-12.727 3.999-20.145 16.742-17.737 29.574.48 2.565.936 5.106 1.367 7.628.701 4.083 4.579 6.826 8.659 6.126 4.083-.7 6.825-4.577 6.126-8.659-.445-2.596-.914-5.213-1.409-7.858-1.014-5.392 2.082-10.801 7.489-12.5 25.102-7.883 52.363-12.383 80.637-12.397 27.669 0 54.704 4.191 80.653 12.375 5.327 1.68 8.507 7.032 7.477 12.501-3.218 17.194-5.508 34.248-6.997 51.972-51.42 22.737-110.763 22.781-162.246.125-.398-4.763-.854-9.479-1.36-14.072-.455-4.117-4.16-7.086-8.278-6.632-4.117.455-7.086 4.161-6.632 8.278.216 1.957.419 3.942.616 5.939-9.362-1.984-19.292.801-26.31 7.817-11.901 11.903-10.799 30.433.54 41.252-23.298 28.342-36.043 63.72-36.043 100.55 0 76.839 55.045 142.159 129.616 155.938l-16.421 35.889c-18.283 39.949 11.237 85.067 54.584 85.067 23.439 0 44.889-13.772 54.644-35.089l26.277-57.429c1.723-3.767.066-8.217-3.7-9.94-3.762-1.723-8.217-.066-9.94 3.7l-26.277 57.428c-7.32 15.995-23.415 26.33-41.004 26.33-32.526 0-54.65-33.881-40.945-63.825l24-52.45c1.723-3.767.066-8.218-3.699-9.941-3.766-1.723-8.218-.066-9.941 3.699l-1.121 2.449c-69.396-10.951-121.073-70.98-121.073-141.826 0-34.098 12.071-66.824 34.088-92.769 68.718 31.754 147.799 33.154 218.984-.063 36.462 42.914 44.1 102.424 21.165 152.562l-41.696 91.127c-1.723 3.767-.066 8.217 3.7 9.94 3.756 1.72 8.214.074 9.94-3.7l41.706-91.148c24.69-53.973 17.539-118.827-21.796-166.596zm-231.267-8.356c-8.39-4.125-10.53-15.375-3.715-22.192 4.208-4.207 10.596-5.258 15.901-2.606 60.415 30.189 132.593 30.204 193.035-.082 5.311-2.658 11.715-1.613 15.935 2.605 6.419 6.421 5.419 17.845-4.333 22.516h.001c-64.645 31.896-141.28 35.622-216.824-.241z"/><path d="m309.487 235.105c0-29.483-23.897-53.42-53.361-53.489-.044-.001-.087-.001-.131-.001-29.493 0-53.488 23.996-53.488 53.49s23.996 53.489 53.49 53.489 53.49-23.994 53.49-53.489zm-53.49 38.49c-21.224 0-38.49-17.267-38.49-38.489 0-21.224 17.267-38.49 38.49-38.49s38.49 17.267 38.49 38.49c0 21.222-17.266 38.489-38.49 38.489z"/></g></g></svg>