<svg id="Capa_1" enable-background="new 0 0 512 512" height="512" viewBox="0 0 512 512" width="512" xmlns="http://www.w3.org/2000/svg"><g><g><path d="m256 7.5-85.733 62.125 85.733 62.126c34.254 0 62.121 27.868 62.121 62.125v124.248c0 34.257-27.866 62.125-62.121 62.125l-85.733 62.125 85.733 62.126c102.76 0 186.362-83.608 186.362-186.376v-124.248c0-102.768-83.602-186.376-186.362-186.376z" fill="#ff8e9e"/><path d="m256 380.249c-34.254 0-62.121-27.868-62.121-62.125v-124.248c0-34.257 27.866-62.125 62.121-62.125-34.311-34.312-34.311-89.94 0-124.251-102.76 0-186.362 83.608-186.362 186.376v124.248c0 102.768 83.602 186.376 186.362 186.376-34.311-34.311-34.311-89.939 0-124.251z" fill="#ea5b70"/></g><g><g><g><ellipse cx="176.443" cy="117.258" fill="#ffdbe0" rx="29.355" ry="23.377"/></g><g><ellipse cx="335.557" cy="117.258" fill="#ffdbe0" rx="29.355" ry="23.377"/></g></g></g><g fill="#4c5699"><path d="m207.705 57.082h-24.568c-10.321 0-18.015 9.518-15.851 19.61l1.361 6.346c2.287 10.665 11.713 18.285 22.621 18.285h8.307c10.908 0 20.334-7.619 22.621-18.285l1.361-6.346c2.162-10.093-5.531-19.61-15.852-19.61z"/><path d="m306.964 57.082h24.568c10.322 0 18.015 9.518 15.851 19.61l-1.361 6.346c-2.287 10.665-11.713 18.285-22.621 18.285h-8.307c-10.908 0-20.334-7.619-22.621-18.285l-1.361-6.346c-2.163-10.093 5.53-19.61 15.852-19.61z"/></g><g><path d="m448.385 169.884c-12.009-96.85-94.716-169.884-192.385-169.884-42.303 0-82.526 13.44-116.324 38.868-3.311 2.49-3.975 7.192-1.484 10.502s7.192 3.976 10.502 1.484c31.177-23.456 68.283-35.854 107.306-35.854 90.112 0 166.42 67.379 177.498 156.724v.006c.904 7.293 1.363 14.744 1.363 22.146v124.248c0 98.633-80.237 178.876-178.861 178.876s-178.861-80.243-178.861-178.876v-124.248c-.001-46.405 17.763-90.424 50.02-123.947 2.872-2.984 2.78-7.732-.204-10.604-2.985-2.873-7.733-2.781-10.604.204-34.96 36.331-54.213 84.043-54.212 134.347v124.248c0 106.903 86.965 193.876 193.861 193.876s193.861-86.973 193.861-193.876v-124.248c0-8.017-.497-16.089-1.476-23.992z"/><path d="m301.212 348.74c-2.328 3.427-1.438 8.091 1.987 10.419 3.427 2.328 8.09 1.438 10.419-1.987 7.853-11.556 12.003-25.059 12.003-39.048v-124.248c0-38.392-31.231-69.625-69.621-69.625s-69.621 31.233-69.621 69.625v124.248c0 38.392 31.231 69.625 69.62 69.625h.007c11.47 0 22.852-2.864 32.912-8.283 3.646-1.965 5.011-6.514 3.047-10.16-1.965-3.646-6.512-5.01-10.16-3.047-7.883 4.246-16.804 6.49-25.8 6.49-.001 0-.003 0-.005 0-30.118 0-54.621-24.505-54.621-54.625v-124.248c0-30.12 24.503-54.625 54.621-54.625s54.621 24.505 54.621 54.625v124.248c0 10.971-3.254 21.558-9.409 30.616z"/><path d="m278.118 99.324c2.722-3.122 2.396-7.86-.728-10.581s-7.86-2.396-10.581.728c-5.726 6.57-15.899 6.563-21.62-.001-2.723-3.124-7.46-3.447-10.582-.727-3.123 2.722-3.447 7.46-.727 10.582 11.729 13.454 32.57 13.391 44.238-.001z"/><path d="m353.355 84.609 1.36-6.346c3.169-14.777-8.103-28.682-23.184-28.682h-24.568c-5.39 0-10.513 1.801-14.646 5.057-23.708-3.008-46.207-3.015-69.967 0-4.133-3.255-9.256-5.057-14.646-5.057h-24.569c-15.113 0-26.346 13.936-23.184 28.683l1.361 6.345c3.007 14.029 15.604 24.212 29.953 24.212h8.308c14.348 0 26.945-10.183 29.953-24.211l1.361-6.347c.684-3.188.696-6.418.091-9.519 7.328-.756 16.097-1.36 26.354-1.36s19.027.604 26.355 1.36c-.604 3.101-.592 6.331.091 9.519l1.36 6.346c3.008 14.029 15.605 24.212 29.954 24.212h8.307c14.351 0 26.949-10.182 29.956-24.212zm-137.132-9.491-1.361 6.347c-1.536 7.16-7.965 12.356-15.287 12.356h-8.308c-7.323 0-13.752-5.196-15.287-12.357l-1.361-6.345c-1.163-5.429 2.977-10.537 8.518-10.537h24.569c5.542 0 9.673 5.137 8.517 10.536zm123.827.001-1.36 6.346c-1.536 7.16-7.965 12.356-15.288 12.356h-8.307c-7.323 0-13.752-5.196-15.288-12.356l-1.36-6.346c-1.154-5.39 2.962-10.537 8.518-10.537h24.568c5.55 0 9.678 5.118 8.517 10.537z"/></g></g></svg>