<svg id="Capa_1" enable-background="new 0 0 512 512" height="512" viewBox="0 0 512 512" width="512" xmlns="http://www.w3.org/2000/svg"><g><g><path d="m366.569 283.931c-10.968 0-17.845-5.939-20.967-9.479l-96.705-109.656c-26.184-29.69-63.896-46.72-103.469-46.722-76.053 0-137.928 61.875-137.928 137.928s61.875 137.929 137.929 137.929l45-55-45-55c-15.4 0-27.929-12.528-27.929-27.929s12.528-27.929 27.927-27.929c10.973 0 17.849 5.939 20.971 9.479l96.706 109.657c26.188 29.693 63.901 46.723 103.47 46.721l44.998-55.002z" fill="#9ea2e3"/><path d="m366.569 118.074c-39.57.002-77.283 17.031-103.467 46.722l-96.705 109.655c-3.122 3.541-10 9.481-20.969 9.48-30.357 30.356-30.396 79.606-.002 110 38.931 0 76.862-16.551 103.471-46.722l96.705-109.656c3.085-3.499 9.838-9.341 20.586-9.478 13.489-.171 25.412 9.425 27.834 22.696 3.229 17.689-10.338 33.159-27.451 33.159l-.207.211c-30.146 30.647-29.431 80.021 1.591 109.782 75.419-.745 136.545-62.33 136.545-137.922 0-76.052-61.875-137.927-137.931-137.927z" fill="#d4d4ff"/></g><g><g><g><ellipse cx="209.745" cy="322.257" fill="#ff8e9e" rx="29.355" ry="23.377" transform="matrix(.707 -.707 .707 .707 -166.438 242.701)"/></g><g><ellipse cx="322.255" cy="209.747" fill="#ff8e9e" rx="29.355" ry="23.377" transform="matrix(.707 -.707 .707 .707 -53.928 289.301)"/></g></g></g><g><path d="m211.233 299.552c2.929-2.93 2.929-7.678 0-10.607l-8.485-8.485c-2.93-2.928-7.678-2.928-10.607 0-2.929 2.93-2.929 7.678 0 10.607l8.485 8.485c2.931 2.929 7.678 2.928 10.607 0z"/><path d="m299.55 211.236c2.929-2.93 2.929-7.678 0-10.607l-8.485-8.485c-2.93-2.928-7.678-2.928-10.607 0-2.929 2.93-2.929 7.678 0 10.607l8.485 8.485c2.93 2.928 7.677 2.928 10.607 0z"/><path d="m238.707 253.997c-4.145-.286-7.713 2.836-7.996 6.969s2.837 7.713 6.969 7.996c17.822 1.214 32.495-13.568 31.28-31.28-.283-4.132-3.876-7.243-7.996-6.969-4.132.283-7.252 3.863-6.969 7.996.596 8.687-6.583 15.872-15.288 15.288z"/><path d="m398.257 382.539c-47.7 11.951-97.835-4.354-129.528-40.29-.256-.29-2.595-2.617-2.89-2.911l63.493-71.996 10.645 12.07c14.545 16.491 40.001 15.813 53.808-.744 6.754-8.099 9.529-18.757 7.614-29.243-5.206-28.531-41.722-39.173-61.422-16.833l-96.705 109.656c-24.763 28.078-60.427 44.182-97.846 44.183-71.917-.001-130.426-58.511-130.426-130.429 0-49.858 27.822-94.651 72.61-116.899 3.709-1.843 5.223-6.344 3.38-10.054-1.843-3.709-6.342-5.222-10.054-3.38-23.906 11.875-44.111 30.095-58.431 52.688-14.723 23.23-22.505 50.08-22.505 77.645 0 80.188 65.238 145.428 145.427 145.429h.002c40.407-.001 80.173-16.457 110.469-50.82l1.739 1.739c35.339 39.938 91.11 58.058 144.265 44.74 4.019-1.007 6.46-5.08 5.453-9.098-1.008-4.017-5.083-6.46-9.098-5.453zm-47.028-140.026c11.236-12.746 32.387-6.989 35.415 9.605 1.129 6.187-.426 12.203-4.378 16.942-3.807 4.565-9.474 7.371-15.696 7.371v-.001c-8.023 0-13.056-4.349-15.342-6.94l-11.895-13.488z"/><path d="m366.569 110.574c-40.408.002-80.17 16.457-110.467 50.82l-1.737-1.737c-36.18-40.891-91.816-57.694-143.788-44.862-4.021.993-6.477 5.058-5.483 9.079s5.056 6.48 9.079 5.483c46.676-11.524 96.656 3.61 129.1 40.399.256.29 2.594 2.616 2.889 2.91l-63.494 71.996-10.645-12.07c-21.496-24.37-62.022-9.225-62.022 23.41 0 32.62 40.528 47.789 62.022 23.409 6.006-6.81 91.156-103.363 96.705-109.655 24.761-28.077 60.423-44.181 97.842-44.183 71.92 0 130.431 58.51 130.431 130.429.001 49.665-27.668 94.382-72.208 116.698-3.703 1.855-5.201 6.361-3.346 10.064 1.855 3.705 6.365 5.202 10.064 3.346 23.788-11.918 43.885-30.133 58.117-52.675 14.637-23.179 22.372-49.955 22.372-77.433 0-80.189-65.24-145.428-145.431-145.428zm-205.798 158.917c-12.422 14.089-35.771 5.291-35.771-13.489 0-18.736 23.324-27.601 35.772-13.488l11.895 13.488z"/></g></g></svg>