<svg id="Capa_1" enable-background="new 0 0 512 512" height="512" viewBox="0 0 512 512" width="512" xmlns="http://www.w3.org/2000/svg"><g><g><path d="m160.569 464.502 104.254-389.079c7.711-28.779-9.367-58.36-38.146-66.071-28.779-7.711-58.36 9.367-66.071 38.146-2.589 9.663-100.391 374.663-104.254 389.079-7.711 28.779 9.368 58.36 38.146 66.071 28.779 7.712 58.36-9.367 66.071-38.146z" fill="#b28ae4"/></g><g><path d="m351.395 464.502 104.253-389.079c7.711-28.779-9.367-58.36-38.146-66.071-28.779-7.711-58.36 9.367-66.071 38.146-2.589 9.663-100.391 374.663-104.254 389.079-7.711 28.779 9.368 58.36 38.146 66.071 28.78 7.712 58.36-9.367 66.072-38.146z" fill="#b28ae4"/></g><g><path d="m450.553 98.812h-164.682l-62.344 53.458 62.344 54.436h164.682c29.794 0 53.947-24.153 53.947-53.947 0-29.795-24.153-53.947-53.947-53.947z" fill="#c9aaf2"/><path d="m285.871 98.812h-175.231c-29.794 0-53.947 24.152-53.947 53.947 0 29.793 24.153 53.947 53.947 53.947h175.231c-29.794-29.794-29.794-78.101 0-107.894z" fill="#b28ae4"/></g><g><path d="m401.36 305.295h-174.682l-62.346 53.947 62.346 53.947h174.682c29.794 0 53.947-24.153 53.947-53.947 0-29.795-24.153-53.947-53.947-53.947z" fill="#c9aaf2"/><path d="m226.678 305.294h-165.231c-29.794 0-53.947 24.152-53.947 53.947 0 29.794 24.153 53.947 53.947 53.947h165.231c-29.794-29.793-29.794-78.1 0-107.894z" fill="#b28ae4"/></g><g><g><g><g><ellipse cx="198.704" cy="170.626" fill="#ff8e9e" rx="29.355" ry="23.377"/></g><g><ellipse cx="357.817" cy="170.626" fill="#ff8e9e" rx="29.355" ry="23.377"/></g></g></g></g><g><path d="m355.817 447.997c-4.004-1.075-8.114 1.303-9.186 5.303l-2.481 9.261c-5.434 20.277-23.869 34.439-44.831 34.439-30.367 0-52.843-28.834-44.896-58.483l5.607-20.928 1.98-1.52c3.286-2.521 3.906-7.229 1.385-10.516s-7.23-3.908-10.516-1.385l-1.98 1.52h-72.882l-1.748-2.278c-2.521-3.287-7.23-3.908-10.516-1.385-3.286 2.521-3.906 7.229-1.385 10.516l1.749 2.279-12.792 47.741c-5.434 20.277-23.869 34.439-44.831 34.439-30.345 0-52.844-28.816-44.898-58.48l5.959-22.239 1.606-1.298c3.222-2.604 3.723-7.326 1.12-10.548-2.604-3.222-7.325-3.722-10.548-1.12l-2.847 2.3c-24.424-1.334-43.886-21.622-43.886-46.374 0-25.61 20.836-46.446 46.447-46.446h26.384l1.748 2.278c2.521 3.286 7.231 3.906 10.516 1.385 3.286-2.521 3.906-7.229 1.385-10.516l-1.749-2.279 24.799-92.558 2.981-2.288c3.285-2.521 3.905-7.23 1.384-10.516-2.522-3.286-7.229-3.908-10.517-1.385l-2.98 2.287h-4.759c-25.61 0-46.446-20.836-46.446-46.447s20.836-46.447 46.447-46.447h32.292l2.762 3.979c2.362 3.405 7.039 4.245 10.438 1.883 3.402-2.362 4.246-7.035 1.883-10.438l-3.015-4.341 3.106-11.593c1.072-4.001-1.302-8.113-5.303-9.186-4.001-1.077-8.113 1.302-9.186 5.303l-2.518 9.395h-30.46c-33.882 0-61.447 27.565-61.447 61.447 0 33.059 26.244 60.104 58.991 61.398l-22.41 83.639h-24.326c-33.882 0-61.447 27.564-61.447 61.446 0 31.016 23.102 56.738 53 60.869l-3.893 14.526c-10.481 39.116 19.128 77.364 59.387 77.364 27.738 0 52.132-18.733 59.319-45.557l12.26-45.755h63.597l-3.736 13.948c-10.514 39.222 19.241 77.364 59.385 77.364 27.738 0 52.132-18.733 59.319-45.557l2.481-9.261c1.073-4-1.301-8.114-5.302-9.185z"/><path d="m192.791 297.795c-4.143 0-7.5 3.357-7.5 7.5s3.357 7.5 7.5 7.5h100c4.143 0 7.5-3.357 7.5-7.5s-3.357-7.5-7.5-7.5h-.662l22.397-83.59h4.683c4.143 0 7.5-3.357 7.5-7.5s-3.357-7.5-7.5-7.5c-20.803 0-78.881 0-100 0-4.143 0-7.5 3.357-7.5 7.5 0 3.766 2.757 7.5 8.162 7.5l-22.397 83.59zm42.609-83.59h63.597l-22.397 83.59h-63.597z"/><path d="m450.553 214.205c33.882 0 61.447-27.565 61.447-61.447 0-31.016-23.102-56.737-53-60.868l3.893-14.526c10.517-39.251-19.271-77.364-59.386-77.364-27.739 0-52.133 18.733-59.32 45.557l-12.26 45.755h-63.597l3.736-13.948c10.522-39.252-19.269-77.364-59.384-77.364-27.739 0-52.133 18.733-59.321 45.56l-1.976 7.37c-1.073 4.001 1.301 8.113 5.302 9.187 3.994 1.07 8.113-1.3 9.187-5.302l1.977-7.375c5.433-20.278 23.869-34.44 44.831-34.44 30.35 0 52.843 28.819 44.896 58.481l-5.607 20.929-2.981 2.288c-3.285 2.521-3.905 7.23-1.384 10.516 2.523 3.287 7.231 3.905 10.517 1.385l2.98-2.287h72.881l1.748 2.278c2.521 3.286 7.231 3.906 10.516 1.385 3.286-2.521 3.906-7.229 1.385-10.516l-1.749-2.279 12.792-47.741c5.433-20.277 23.869-34.439 44.831-34.439 30.351 0 52.841 28.819 44.897 58.481l-5.959 22.238-1.606 1.298c-3.222 2.604-3.723 7.326-1.12 10.548 2.604 3.222 7.327 3.722 10.548 1.12l2.847-2.3c24.424 1.334 43.886 21.622 43.886 46.373 0 25.611-20.836 46.447-46.447 46.447h-26.384l-1.748-2.278c-2.521-3.287-7.23-3.908-10.516-1.385-3.286 2.521-3.906 7.229-1.385 10.516l1.749 2.279-24.8 92.558-1.98 1.52c-3.286 2.521-3.906 7.229-1.385 10.516 2.521 3.286 7.231 3.906 10.516 1.385l1.98-1.52h4.76c25.61 0 46.446 20.836 46.446 46.447s-20.836 46.447-46.446 46.447h-32.293l-2.762-3.979c-2.36-3.402-7.034-4.247-10.438-1.883-3.402 2.362-4.246 7.035-1.883 10.438l3.016 4.343-2.603 9.713c-1.072 4.001 1.302 8.114 5.303 9.186.65.175 1.304.258 1.946.258 3.312 0 6.342-2.21 7.239-5.561l2.014-7.516h30.461c33.882 0 61.446-27.565 61.446-61.447 0-33.06-26.247-60.092-58.995-61.385l22.414-83.652z"/><path d="m223.312 148.123v-12c0-4.143-3.357-7.5-7.5-7.5s-7.5 3.357-7.5 7.5v12c0 4.143 3.357 7.5 7.5 7.5s7.5-3.357 7.5-7.5z"/><path d="m348.209 148.123v-12c0-4.143-3.357-7.5-7.5-7.5s-7.5 3.357-7.5 7.5v12c0 4.143 3.357 7.5 7.5 7.5s7.5-3.357 7.5-7.5z"/><path d="m300.379 152.692c2.722-3.122 2.396-7.86-.728-10.581-3.123-2.722-7.86-2.396-10.581.728-5.726 6.57-15.899 6.563-21.62-.001-2.723-3.124-7.46-3.447-10.582-.727-3.123 2.722-3.447 7.46-.727 10.582 11.729 13.454 32.57 13.391 44.238-.001z"/></g></g></svg>