<svg id="Capa_1" enable-background="new 0 0 512 512" height="512" viewBox="0 0 512 512" width="512" xmlns="http://www.w3.org/2000/svg"><g><g><path d="m319.64 350.856c-15.962-15.963-36.428-24.677-57.307-26.141l-96.333 89.785 96.333 89.785c20.879-1.464 41.345-10.177 57.307-26.141 17.573-17.575 26.36-40.609 26.36-63.644s-8.787-46.069-26.36-63.644z" fill="#e8b5b1"/><path d="m223.273 414.5c0-33.08 13.284-65.737 39.06-89.785-2.108-.148-4.221-.215-6.333-.215-49.686 0-90 40.249-90 90 0 49.686 40.247 90 90 90 2.112 0 4.225-.067 6.333-.215-25.018-23.341-39.06-55.664-39.06-89.785z" fill="#d6948c"/></g><g><path d="m291 15.53h-57.511v266h57.511c9.241-7.942 15.754-18.968 17.933-31.485l25.88-148.736c6.357-36.525-12.967-70.74-43.813-85.779z" fill="#e8b5b1"/><path d="m273.067 250.045-25.88-148.736c-6.363-36.563 12.981-70.75 43.813-85.779-10.515-5.127-22.367-8.03-35-8.03-49.646 0-87.347 44.772-78.813 93.809l25.88 148.736c4.395 25.254 26.422 44.455 52.933 44.455 13.371 0 25.597-4.889 35-12.97-9.241-7.942-15.754-18.967-17.933-31.485z" fill="#d6948c"/></g><g fill="#ffdbe0"><ellipse cx="201.591" cy="419.977" rx="22.5" ry="17.918"/><ellipse cx="310.409" cy="419.977" rx="22.5" ry="17.918"/></g><ellipse cx="256" cy="415.767" fill="#4c5699" rx="16.423" ry="18.377"/><g><path d="m256 317c-53.762 0-97.5 43.738-97.5 97.5s43.738 97.5 97.5 97.5c2.338 0 4.645-.078 6.857-.233 22.021-1.544 43.08-10.646 59.297-25.63 3.042-2.812 3.229-7.557.419-10.599-2.812-3.042-7.557-3.229-10.599-.419-13.72 12.677-31.536 20.378-50.165 21.685-1.865.13-3.819.196-5.81.196-45.49 0-82.5-37.01-82.5-82.5s37.011-82.5 82.501-82.5 82.5 37.01 82.5 82.5c0 13.601-3.376 27.079-9.765 38.979-1.959 3.649-.588 8.196 3.062 10.155 3.65 1.956 8.195.587 10.155-3.062 7.555-14.074 11.548-30.006 11.548-46.073 0-53.761-43.738-97.499-97.5-97.499z"/><path d="m195.679 251.331c5.108 29.359 30.477 50.669 60.321 50.669s55.213-21.31 60.321-50.669l25.88-148.737c9.426-54.162-32.453-102.594-86.201-102.594-22.236 0-43.411 8.331-59.623 23.459-3.029 2.825-3.193 7.571-.367 10.6 2.825 3.028 7.571 3.194 10.6.367 13.425-12.527 30.966-19.426 49.39-19.426 44.6 0 79.229 40.166 71.424 85.022l-25.88 148.737c-3.856 22.158-23.01 38.241-45.544 38.241s-41.688-16.083-45.544-38.24l-25.88-148.736c-2.548-14.657-.724-29.8 6.008-43.809 1.793-3.733.221-8.215-3.513-10.008-3.734-1.796-8.215-.221-10.008 3.512-8.138 16.937-10.332 35.256-7.265 52.876z"/><path d="m199.825 392.966v12c0 4.143 3.357 7.5 7.5 7.5s7.5-3.357 7.5-7.5v-12c0-4.143-3.357-7.5-7.5-7.5s-7.5 3.357-7.5 7.5z"/><path d="m232.077 415.767c0 14.269 10.731 25.877 23.923 25.877s23.923-11.608 23.923-25.877-10.732-25.877-23.923-25.877-23.923 11.608-23.923 25.877zm32.846 0c0 5.998-4.003 10.877-8.923 10.877s-8.923-4.879-8.923-10.877 4.003-10.877 8.923-10.877 8.923 4.879 8.923 10.877z"/><path d="m297.175 392.966v12c0 4.143 3.357 7.5 7.5 7.5s7.5-3.357 7.5-7.5v-12c0-4.143-3.357-7.5-7.5-7.5s-7.5 3.357-7.5 7.5z"/></g></g></svg>