<svg id="Capa_1" enable-background="new 0 0 512 512" height="512" viewBox="0 0 512 512" width="512" xmlns="http://www.w3.org/2000/svg"><g><g><path d="m444.5 256h-8.5-15.524c-57.701 0-104.476 46.775-104.476 104.476v39.549c0 57.7 46.775 104.476 104.476 104.476h15.524 8.5c33.137 0 60-26.863 60-60v-128.501c0-33.137-26.863-60-60-60z" fill="#ff8e9e"/><path d="m377.119 456.031c3.014.6 6.129.92 9.32.92 26.208 0 47.455-21.246 47.455-47.455s-21.247-47.455-47.455-47.455c-3.588 0-7.079.411-10.439 1.166v-47.207c0-33.137 26.863-60 60-60h-120c-33.137 0-60 26.863-60 60v128.5c0 33.137 26.863 60 60 60h120c-29.191 0-53.503-20.851-58.881-48.469z" fill="#ea5b70"/></g><g><path d="m320.25 7.5h-8.5-12.333c-59.463 0-107.667 48.204-107.667 107.667v33.166c0 59.463 48.204 107.667 107.667 107.667h12.333 8.5c33.137 0 60-26.863 60-60v-128.5c0-33.137-26.863-60-60-60z" fill="#ffce71"/><path d="m251.75 196v-5.923h30.79l-25.048-66.796c-.897-2.394-3.186-3.979-5.742-3.979v-51.802c0-33.137 26.863-60 60-60h-120c-33.137 0-60 26.863-60 60v128.5c0 33.137 26.863 60 60 60h120c-33.137 0-60-26.863-60-60z" fill="#ffb357"/></g><path d="m309.778 205.75-34.802-92.806c-2.967-7.91-10.528-13.15-18.977-13.15s-16.01 5.24-18.977 13.15l-34.802 92.806c-2.993 7.981 1.255 16.905 9.464 19.551 7.688 2.477 15.939-1.852 18.775-9.414l2.179-5.81h46.721l2.179 5.81c2.836 7.563 11.088 11.891 18.775 9.414 8.21-2.646 12.458-11.57 9.465-19.551z" fill="#fff1d4"/><g><path d="m387.613 474.5c-35.919 0-65.283-28.854-65.279-64.965 0-57.385 70.227-86.943 111.408-45.99 5.875 5.842 5.902 15.34.061 21.213-5.844 5.877-15.342 5.898-21.213.061-22.199-22.073-60.256-6.309-60.256 24.717-.007 30.945 38.007 46.843 60.256 24.721 5.875-5.842 15.373-5.814 21.213.061 5.842 5.873 5.814 15.371-.061 21.213-12.717 12.645-29.424 18.969-46.129 18.969z" fill="#ffdbe0"/></g><g><path d="m196 256h-8.5-24.25c-52.881 0-95.75 42.869-95.75 95.75v57c0 52.881 42.869 95.75 95.75 95.75h24.25 8.5c33.137 0 60-26.863 60-60v-128.5c0-33.137-26.863-60-60-60z" fill="#55dafe"/><path d="m129.391 459.5 26.359-30v-50l-28.25-20v-43.5c0-33.137 26.863-60 60-60h-120c-33.137 0-60 26.863-60 60v128.5c0 33.137 26.863 60 60 60h120c-27.958 0-51.449-19.121-58.109-45z" fill="#1cbbea"/><path d="m174.058 383.841c0-21.423-17.431-38.854-38.854-38.854h-32.81c-7.154 0-12.951 5.798-12.951 12.951v103.61c0 7.153 5.798 12.951 12.951 12.951h32.81c21.423 0 38.854-17.431 38.854-38.854 0-9.941-3.754-19.024-9.917-25.902 6.163-6.878 9.917-15.961 9.917-25.902z" fill="#b9f0ff"/></g><g><path d="m504.5 374.785c4.143 0 7.5-3.357 7.5-7.5v-51.285c0-37.22-30.28-67.5-67.5-67.5h-81.889c15.319-12.385 25.139-31.313 25.139-52.5v-128.5c0-37.22-30.28-67.5-67.5-67.5h-128.5c-37.22 0-67.5 30.28-67.5 67.5v47.215c0 4.143 3.357 7.5 7.5 7.5s7.5-3.357 7.5-7.5v-47.215c0-28.948 23.552-52.5 52.5-52.5h128.5c28.948 0 52.5 23.552 52.5 52.5v128.5c0 28.948-23.552 52.5-52.5 52.5-6.463 0-121.891 0-128.5 0-28.948 0-52.5-23.552-52.5-52.5v-51.285c0-4.143-3.357-7.5-7.5-7.5s-7.5 3.357-7.5 7.5v51.285c0 21.188 9.82 40.115 25.139 52.5h-81.889c-37.22 0-67.5 30.28-67.5 67.5v128.5c0 37.22 30.28 67.5 67.5 67.5h128.5c26.102 0 48.774-14.902 60-36.637 11.226 21.735 33.898 36.637 60 36.637h128.5c37.22 0 67.5-30.28 67.5-67.5v-47.215c0-4.143-3.357-7.5-7.5-7.5s-7.5 3.357-7.5 7.5v47.215c0 28.948-23.552 52.5-52.5 52.5h-128.5c-28.948 0-52.5-23.552-52.5-52.5v-128.5c0-28.948 23.552-52.5 52.5-52.5h128.5c28.948 0 52.5 23.552 52.5 52.5v51.285c0 4.143 3.357 7.5 7.5 7.5zm-256 69.715c0 28.948-23.552 52.5-52.5 52.5h-128.5c-28.948 0-52.5-23.552-52.5-52.5v-128.5c0-28.948 23.552-52.5 52.5-52.5h128.5c28.948 0 52.5 23.552 52.5 52.5zm7.5-159.363c-4.331-8.385-10.358-15.751-17.639-21.637h35.278c-7.281 5.886-13.308 13.252-17.639 21.637z"/><path d="m243.89 187.577h24.221c4.143 0 7.5-3.357 7.5-7.5s-3.357-7.5-7.5-7.5h-13.398l8.311-22.161c1.454-3.879-.511-8.202-4.389-9.656-3.881-1.455-8.202.51-9.656 4.389l-12.11 32.295c-1.837 4.898 1.788 10.133 7.021 10.133z"/><path d="m195.199 203.116c-5.499 14.662 5.356 30.396 20.981 30.396 9.007-.001 17.659-5.268 21.656-15.935h36.326c7.829 20.893 33.527 20.409 41.828 3.23 2.664-5.512 2.959-11.96.81-17.691l-34.802-92.806c-8.965-23.901-43.005-23.976-51.998 0zm48.847-87.538c4.122-10.99 19.773-11.024 23.908 0l34.802 92.806c1.498 3.995-.62 8.45-4.741 9.778-3.741 1.202-7.984-.994-9.453-4.909l-2.179-5.81c-1.098-2.927-3.896-4.866-7.022-4.866h-46.721c-3.126 0-5.925 1.939-7.022 4.866l-2.179 5.81c-1.468 3.914-5.709 6.116-9.452 4.909-4.16-1.34-6.226-5.821-4.742-9.778z"/><path d="m135.204 337.487h-32.811c-11.276 0-20.451 9.175-20.451 20.451v103.61c0 11.276 9.175 20.451 20.451 20.451h32.811c37.083 0 59.127-41.62 38.426-72.256 20.67-30.592-1.3-72.256-38.426-72.256zm23.351 77.263c18.037 20.122 3.679 52.25-23.351 52.25h-32.811c-3.006 0-5.451-2.445-5.451-5.451v-103.61c0-3.006 2.445-5.451 5.451-5.451h32.811c27.028 0 41.387 32.122 23.35 52.252-2.553 2.848-2.552 7.161.001 10.01z"/><path d="m376.896 384.24c8.343-3.47 20.71-3.742 30.405 5.896 8.797 8.746 23.07 8.707 31.818-.09 8.771-8.817 8.729-23.05-.09-31.82-21.199-21.082-51.592-27.018-79.31-15.49-27.688 11.514-44.887 37.109-44.887 66.798-.006 64.981 78.928 96.333 124.196 51.313 8.816-8.768 8.863-23 .092-31.818-8.767-8.819-22.998-8.863-31.82-.092-17.517 17.416-47.473 4.852-47.468-19.402.002-13.418 8.816-21.864 17.064-25.295zm40.982 55.334c2.939-2.921 7.681-2.912 10.607.031 2.92 2.937 2.91 7.682-.032 10.605-35.851 35.658-98.625 10.973-98.619-40.676 0-23.517 13.658-43.806 35.646-52.949 22.044-9.166 46.169-4.436 62.975 12.277 2.938 2.923 2.955 7.666.03 10.606-2.918 2.932-7.675 2.944-10.606.03-12.488-12.416-30.397-15.904-46.741-9.11-16.224 6.748-26.303 21.747-26.303 39.144-.009 37.652 46.047 56.88 73.043 30.042z"/><path d="m200.404 43.68c-4.143 0-7.5 3.357-7.5 7.5v12c0 4.143 3.357 7.5 7.5 7.5s7.5-3.357 7.5-7.5v-12c0-4.143-3.357-7.5-7.5-7.5z"/><path d="m278.948 68.034c2.722-3.123 2.396-7.86-.727-10.582-3.125-2.722-7.862-2.396-10.582.727-6.166 7.075-17.121 7.067-23.279 0-2.723-3.122-7.46-3.447-10.582-.727-3.122 2.722-3.448 7.459-.727 10.582 12.145 13.935 33.766 13.92 45.897 0z"/><path d="m307.506 62.845c0-3.532 2.874-6.405 6.406-6.405s6.406 2.873 6.406 6.405c0 4.143 3.357 7.5 7.5 7.5s7.5-3.357 7.5-7.5c0-11.803-9.603-21.405-21.406-21.405s-21.406 9.603-21.406 21.405c0 4.143 3.357 7.5 7.5 7.5s7.5-3.358 7.5-7.5z"/><path d="m325.301 306.985v-12c0-4.143-3.357-7.5-7.5-7.5s-7.5 3.357-7.5 7.5v12c0 4.143 3.357 7.5 7.5 7.5s7.5-3.357 7.5-7.5z"/><path d="m450.198 306.985v-12c0-4.143-3.357-7.5-7.5-7.5s-7.5 3.357-7.5 7.5v12c0 4.143 3.357 7.5 7.5 7.5s7.5-3.357 7.5-7.5z"/><path d="m402.368 311.555c2.722-3.122 2.396-7.86-.728-10.581-3.122-2.722-7.861-2.396-10.581.728-5.726 6.569-15.898 6.563-21.619 0-2.721-3.124-7.46-3.449-10.581-.728-3.123 2.721-3.449 7.459-.728 10.581 11.703 13.43 32.546 13.419 44.237 0z"/><path d="m93.848 300.491c2.722-3.123 2.396-7.86-.727-10.582s-7.86-2.396-10.582.727c-4.396 5.043-12.195 5.037-16.585 0-2.723-3.122-7.46-3.447-10.582-.727-3.122 2.722-3.448 7.459-.727 10.582 10.374 11.903 28.84 11.89 39.203 0z"/><path d="m208.128 289.909c-3.123-2.722-7.86-2.396-10.582.727-4.396 5.043-12.195 5.037-16.585 0-2.723-3.122-7.46-3.447-10.582-.727-3.122 2.722-3.448 7.459-.727 10.582 10.374 11.902 28.839 11.89 39.202 0 2.722-3.123 2.396-7.86-.726-10.582z"/><path d="m154.621 308.656c2.722-3.123 2.396-7.86-.727-10.582-3.125-2.722-7.862-2.396-10.582.727-6.164 7.073-17.121 7.067-23.279 0-2.722-3.122-7.46-3.447-10.582-.727-3.122 2.722-3.448 7.459-.727 10.582 12.143 13.933 33.766 13.92 45.897 0z"/><path d="m135.008 417.345h-15.843c-4.143 0-7.5 3.357-7.5 7.5v18.655c0 4.143 3.357 7.5 7.5 7.5s7.5-3.357 7.5-7.5v-11.155h8.343c1.008 0 1.827.819 1.827 1.827 0 4.143 3.357 7.5 7.5 7.5s7.5-3.357 7.5-7.5c0-9.278-7.549-16.827-16.827-16.827z"/><path d="m135.008 368.487h-15.843c-4.143 0-7.5 3.357-7.5 7.5v18.655c0 4.143 3.357 7.5 7.5 7.5s7.5-3.357 7.5-7.5v-11.155h8.343c1.008 0 1.827.82 1.827 1.828 0 4.143 3.357 7.5 7.5 7.5s7.5-3.357 7.5-7.5c0-9.279-7.549-16.828-16.827-16.828z"/></g></g></svg>