<svg xmlns="http://www.w3.org/2000/svg" xmlns:xlink="http://www.w3.org/1999/xlink" width="500" zoomAndPan="magnify" viewBox="0 0 375 374.999991" height="500" preserveAspectRatio="xMidYMid meet" version="1.0"><defs><clipPath id="id1"><path d="M 74 57.089844 L 301 57.089844 L 301 318.089844 L 74 318.089844 Z M 74 57.089844 " clip-rule="nonzero"/></clipPath></defs><path fill="rgb(100%, 100%, 100%)" d="M 120.601562 228.003906 C 120.148438 229.019531 120.207031 230.011719 120.789062 231.078125 C 120.972656 231.421875 121.191406 231.75 121.433594 232.0625 C 121.199219 231.75 120.988281 231.421875 120.796875 231.078125 C 120.207031 230.011719 120.15625 229.011719 120.601562 228.003906 Z M 122.21875 232.925781 C 121.929688 232.660156 121.679688 232.363281 121.433594 232.0625 C 121.671875 232.375 121.929688 232.667969 122.21875 232.925781 Z M 128.691406 236.566406 C 127.890625 236.277344 127.136719 235.980469 126.378906 235.625 C 127.144531 235.984375 127.898438 236.289062 128.691406 236.566406 Z M 148.4375 243.449219 C 143.554688 240.085938 137.355469 239.144531 131.769531 237.523438 C 131.210938 237.363281 130.683594 237.207031 130.167969 237.054688 C 130.683594 237.210938 131.210938 237.375 131.769531 237.535156 C 137.355469 239.144531 143.546875 240.09375 148.4375 243.457031 C 150.605469 244.953125 152.363281 246.808594 153.617188 249.070312 C 152.371094 246.808594 150.613281 244.953125 148.4375 243.449219 Z M 155.960938 256.996094 C 156.1875 258.265625 156.449219 259.53125 156.851562 260.777344 C 157.054688 261.390625 157.304688 261.984375 157.660156 262.539062 C 157.304688 261.976562 157.054688 261.378906 156.863281 260.777344 C 156.464844 259.539062 156.207031 258.273438 155.960938 256.996094 Z M 157.660156 262.539062 C 157.828125 262.816406 158.019531 263.085938 158.25 263.339844 C 158.03125 263.085938 157.828125 262.816406 157.660156 262.539062 Z M 162.117188 265.171875 C 161.898438 265.152344 161.636719 265.109375 161.359375 265.054688 C 161.636719 265.121094 161.898438 265.160156 162.117188 265.179688 C 163.183594 265.261719 164.234375 265.210938 165.277344 265.0625 C 164.234375 265.203125 163.183594 265.253906 162.117188 265.171875 Z M 173.917969 262.261719 C 173.085938 262.609375 172.269531 262.945312 171.480469 263.253906 C 172.269531 262.945312 173.085938 262.597656 173.917969 262.261719 Z M 173.472656 205.976562 C 173.550781 204.976562 173.5 203.960938 173.398438 202.925781 C 173.28125 201.625 173.179688 200.457031 173.550781 199.363281 C 173.171875 200.449219 173.269531 201.625 173.390625 202.9375 C 173.488281 203.96875 173.539062 204.976562 173.472656 205.976562 Z M 181.863281 259.742188 C 180.5 259.960938 179.148438 260.324219 177.8125 260.777344 C 179.148438 260.332031 180.5 259.960938 181.863281 259.75 C 184.429688 259.355469 186.949219 259.390625 189.304688 260.128906 C 186.957031 259.382812 184.429688 259.347656 181.863281 259.742188 Z M 197.9375 269.136719 C 197.804688 268.820312 197.660156 268.5 197.507812 268.171875 C 197.652344 268.5 197.792969 268.820312 197.929688 269.136719 C 198.492188 270.480469 198.996094 271.828125 199.507812 273.1875 C 199.003906 271.835938 198.5 270.472656 197.9375 269.136719 Z M 199.507812 273.195312 C 199.636719 273.542969 199.769531 273.894531 199.902344 274.238281 C 199.9375 274.320312 200.039062 274.574219 200.117188 274.75 C 200.046875 274.566406 199.945312 274.3125 199.914062 274.238281 C 199.777344 273.886719 199.644531 273.550781 199.507812 273.195312 Z M 200.457031 275.53125 C 200.449219 275.507812 200.40625 275.425781 200.367188 275.332031 C 200.398438 275.425781 200.441406 275.5 200.457031 275.53125 Z M 201.769531 277.886719 C 201.417969 277.355469 201.097656 276.808594 200.804688 276.246094 C 201.089844 276.820312 201.417969 277.355469 201.769531 277.886719 Z M 201.980469 278.144531 C 201.953125 278.128906 201.941406 278.113281 201.921875 278.101562 C 201.929688 278.113281 201.945312 278.128906 201.972656 278.152344 C 202.164062 278.347656 202.359375 278.550781 202.542969 278.75 L 202.605469 278.808594 C 202.585938 278.785156 202.566406 278.769531 202.554688 278.75 C 202.367188 278.550781 202.175781 278.339844 201.980469 278.144531 Z M 202.6875 278.921875 L 202.695312 278.921875 C 202.679688 278.894531 202.660156 278.859375 202.605469 278.808594 C 202.652344 278.871094 202.667969 278.902344 202.6875 278.921875 Z M 202.804688 278.980469 C 202.820312 278.992188 202.847656 279.003906 202.871094 279.019531 C 203.046875 279.121094 203.226562 279.222656 203.402344 279.320312 C 203.214844 279.222656 203.046875 279.121094 202.871094 279.011719 C 202.847656 278.992188 202.820312 278.984375 202.804688 278.980469 Z M 204.257812 279.625 C 204.367188 279.648438 204.488281 279.675781 204.59375 279.691406 C 204.652344 279.699219 204.714844 279.699219 204.769531 279.699219 C 204.714844 279.699219 204.652344 279.691406 204.59375 279.683594 C 204.488281 279.675781 204.367188 279.648438 204.257812 279.625 Z M 209.253906 278.347656 C 209.335938 278.304688 209.417969 278.265625 209.496094 278.222656 C 209.882812 278.011719 210.261719 277.792969 210.640625 277.558594 C 210.261719 277.785156 209.882812 278.003906 209.496094 278.214844 C 209.414062 278.253906 209.335938 278.304688 209.253906 278.347656 Z M 209.875 218.984375 C 209.859375 218.941406 209.765625 218.734375 209.707031 218.601562 C 209.671875 218.523438 209.628906 218.40625 209.589844 218.320312 C 209.621094 218.40625 209.664062 218.523438 209.699219 218.605469 C 209.757812 218.734375 209.847656 218.953125 209.867188 218.984375 C 210.253906 219.832031 210.679688 220.664062 211.144531 221.472656 C 211.605469 222.289062 212.109375 223.070312 212.648438 223.835938 C 212.117188 223.070312 211.617188 222.28125 211.152344 221.472656 C 210.6875 220.664062 210.261719 219.832031 209.875 218.984375 Z M 213.121094 224.484375 C 213.152344 224.535156 213.175781 224.574219 213.195312 224.597656 C 213.195312 224.597656 213.203125 224.609375 213.214844 224.609375 C 213.214844 224.597656 213.214844 224.597656 213.203125 224.589844 C 213.1875 224.566406 213.164062 224.535156 213.121094 224.484375 Z M 213.226562 224.625 C 213.226562 224.617188 213.222656 224.625 213.222656 224.625 C 213.363281 224.792969 213.496094 224.96875 213.648438 225.136719 C 213.507812 224.96875 213.363281 224.800781 213.226562 224.625 Z M 214.078125 225.652344 C 213.933594 225.480469 213.789062 225.3125 213.648438 225.144531 C 213.785156 225.324219 213.929688 225.488281 214.070312 225.660156 C 214.691406 226.378906 215.347656 227.0625 216.039062 227.71875 C 215.355469 227.0625 214.699219 226.371094 214.078125 225.652344 Z M 218.265625 229.660156 C 218.292969 229.683594 218.324219 229.710938 218.347656 229.726562 C 218.527344 229.863281 218.703125 229.984375 218.886719 230.109375 C 218.710938 229.984375 218.527344 229.851562 218.347656 229.71875 C 218.324219 229.699219 218.292969 229.675781 218.265625 229.660156 Z M 234.882812 233.816406 C 229.882812 232.710938 225.117188 231.894531 220.71875 231.296875 C 220.476562 231.152344 220.230469 231.011719 219.996094 230.859375 C 220.230469 231.011719 220.476562 231.152344 220.710938 231.304688 C 225.105469 231.902344 229.882812 232.714844 234.882812 233.816406 Z M 242.949219 253.625 C 241.351562 254.179688 239.769531 254.8125 238.230469 255.53125 C 239.769531 254.820312 241.351562 254.179688 242.949219 253.625 Z M 236.566406 234.195312 C 241.054688 235.238281 245.714844 236.515625 250.4375 238.078125 C 245.714844 236.507812 241.054688 235.230469 236.566406 234.195312 Z M 245.386719 252.84375 C 246.605469 252.5 247.832031 252.1875 249.058594 251.917969 C 251.460938 251.398438 253.925781 251.035156 256.40625 250.835938 C 253.925781 251.03125 251.472656 251.390625 249.066406 251.910156 C 247.832031 252.179688 246.605469 252.480469 245.386719 252.84375 Z M 250.445312 238.078125 C 252.808594 238.867188 255.1875 239.71875 257.574219 240.652344 C 255.195312 239.71875 252.808594 238.859375 250.445312 238.078125 Z M 259.398438 250.675781 C 258.398438 250.703125 257.414062 250.761719 256.421875 250.835938 C 257.414062 250.761719 258.410156 250.707031 259.398438 250.675781 Z M 264.738281 243.699219 C 265.929688 244.246094 267.117188 244.820312 268.300781 245.40625 C 267.117188 244.8125 265.929688 244.246094 264.738281 243.699219 " fill-opacity="1" fill-rule="nonzero"/><path fill="rgb(76.858521%, 92.158508%, 70.588684%)" d="M 275.355469 249.230469 C 273.027344 247.867188 270.671875 246.589844 268.300781 245.40625 C 267.117188 244.820312 265.929688 244.246094 264.738281 243.699219 C 262.351562 242.597656 259.964844 241.582031 257.574219 240.652344 C 255.1875 239.71875 252.808594 238.867188 250.445312 238.078125 C 250.445312 238.078125 250.445312 238.078125 250.4375 238.078125 C 245.714844 236.515625 241.054688 235.238281 236.566406 234.195312 C 236.003906 234.070312 235.441406 233.941406 234.882812 233.816406 C 229.882812 232.714844 225.105469 231.902344 220.710938 231.304688 C 220.476562 231.152344 220.230469 231.011719 219.996094 230.859375 L 219.988281 230.859375 C 219.609375 230.617188 219.246094 230.375 218.886719 230.109375 C 218.703125 229.984375 218.527344 229.863281 218.347656 229.726562 C 218.324219 229.710938 218.292969 229.683594 218.265625 229.660156 C 218.230469 229.632812 218.207031 229.609375 218.171875 229.589844 C 217.433594 228.992188 216.71875 228.371094 216.039062 227.71875 C 215.347656 227.0625 214.691406 226.378906 214.070312 225.660156 C 213.929688 225.488281 213.785156 225.324219 213.648438 225.144531 C 213.640625 225.144531 213.648438 225.136719 213.648438 225.136719 C 213.496094 224.96875 213.363281 224.792969 213.222656 224.625 C 213.214844 224.617188 213.214844 224.617188 213.214844 224.609375 C 213.203125 224.609375 213.195312 224.597656 213.195312 224.597656 C 213.175781 224.574219 213.152344 224.535156 213.121094 224.484375 C 212.960938 224.269531 212.800781 224.054688 212.648438 223.835938 C 212.109375 223.070312 211.605469 222.289062 211.144531 221.472656 C 210.679688 220.664062 210.253906 219.832031 209.867188 218.984375 C 209.847656 218.953125 209.757812 218.734375 209.699219 218.605469 C 209.664062 218.523438 209.621094 218.40625 209.589844 218.320312 C 209.582031 218.289062 209.5625 218.253906 209.554688 218.238281 C 209.546875 218.230469 209.546875 218.230469 209.546875 218.222656 C 209.355469 217.71875 209.179688 217.222656 209.007812 216.707031 C 208.523438 215.246094 206.941406 214.136719 205.371094 214.648438 C 205.292969 214.675781 205.21875 214.699219 205.140625 214.734375 C 204.921875 214.816406 204.714844 214.933594 204.519531 215.078125 C 204.386719 215.171875 204.265625 215.261719 204.148438 215.378906 C 204.089844 215.425781 204.039062 215.480469 203.980469 215.550781 C 203.671875 215.886719 203.425781 216.289062 203.300781 216.726562 C 203.140625 217.210938 203.132812 217.75 203.308594 218.28125 C 203.402344 218.558594 203.496094 218.828125 203.59375 219.105469 C 204.183594 220.734375 204.90625 222.324219 205.738281 223.839844 C 206.015625 224.355469 206.308594 224.851562 206.613281 225.335938 C 207.519531 226.820312 208.535156 228.214844 209.664062 229.535156 C 209.847656 229.75 210.042969 229.96875 210.234375 230.1875 C 201.214844 229.496094 195.253906 229.734375 194.523438 229.769531 C 193.832031 229.800781 193.195312 230.035156 192.675781 230.414062 C 192.589844 230.476562 192.503906 230.539062 192.421875 230.617188 C 192.265625 230.75 192.121094 230.910156 191.984375 231.078125 C 191.851562 231.246094 191.734375 231.421875 191.632812 231.617188 C 191.355469 232.136719 191.210938 232.734375 191.242188 233.371094 C 191.253906 233.492188 191.261719 233.597656 191.28125 233.714844 C 191.3125 233.933594 191.363281 234.144531 191.4375 234.355469 C 191.4375 234.355469 191.429688 234.355469 191.4375 234.363281 C 191.648438 234.984375 192.042969 235.515625 192.550781 235.910156 C 192.707031 236.042969 192.890625 236.164062 193.085938 236.265625 C 193.609375 236.53125 194.203125 236.675781 194.84375 236.648438 C 194.886719 236.648438 195.1875 236.640625 195.726562 236.632812 C 196.660156 236.605469 198.28125 236.597656 200.476562 236.648438 L 200.507812 236.648438 C 201.449219 236.675781 202.503906 236.707031 203.644531 236.757812 C 204.234375 236.785156 204.855469 236.820312 205.496094 236.851562 C 206.109375 236.886719 206.746094 236.925781 207.410156 236.96875 L 207.445312 236.96875 C 208.101562 237.019531 208.789062 237.070312 209.488281 237.121094 C 211.757812 237.304688 214.230469 237.539062 216.878906 237.859375 C 217.464844 237.925781 218.0625 238.003906 218.667969 238.089844 C 218.894531 238.121094 219.121094 238.144531 219.359375 238.179688 C 219.980469 238.265625 220.601562 238.347656 221.242188 238.449219 C 221.5 238.480469 221.761719 238.523438 222.03125 238.566406 C 222.703125 238.667969 223.382812 238.765625 224.066406 238.886719 C 224.222656 238.910156 224.394531 238.9375 224.5625 238.96875 C 225.328125 239.085938 226.09375 239.21875 226.875 239.363281 C 227.035156 239.390625 227.183594 239.414062 227.34375 239.449219 C 228.210938 239.609375 229.09375 239.773438 229.984375 239.953125 C 230.464844 240.046875 230.949219 240.148438 231.4375 240.246094 C 228.714844 241.464844 226.09375 242.910156 223.609375 244.558594 C 222.214844 245.480469 220.863281 246.472656 219.558594 247.53125 C 218.828125 248.113281 218.113281 248.726562 217.425781 249.355469 C 216.726562 249.976562 216.054688 250.617188 215.398438 251.277344 C 214.734375 251.933594 214.09375 252.609375 213.472656 253.304688 C 212.40625 254.492188 212.296875 256.316406 213.472656 257.484375 C 213.683594 257.691406 213.917969 257.859375 214.1875 257.996094 C 214.449219 258.128906 214.734375 258.230469 215.027344 258.28125 C 215.027344 258.28125 215.027344 258.28125 215.035156 258.28125 C 215.785156 258.421875 216.59375 258.296875 217.222656 257.859375 C 217.371094 257.75 217.515625 257.625 217.648438 257.484375 C 220.492188 254.3125 223.710938 251.558594 227.234375 249.265625 C 228.242188 248.609375 229.269531 247.996094 230.320312 247.414062 C 231.371094 246.832031 232.445312 246.296875 233.539062 245.800781 C 234.632812 245.304688 235.742188 244.84375 236.878906 244.421875 C 238.578125 243.800781 240.308594 243.273438 242.082031 242.835938 C 246 243.9375 250 245.230469 254.007812 246.742188 C 255.339844 247.253906 256.675781 247.785156 258.011719 248.339844 C 259.347656 248.902344 260.683594 249.484375 262.015625 250.085938 C 262.457031 250.296875 262.894531 250.5 263.339844 250.707031 C 262.03125 250.652344 260.710938 250.640625 259.398438 250.675781 C 258.410156 250.707031 257.414062 250.761719 256.421875 250.835938 C 256.414062 250.835938 256.414062 250.835938 256.40625 250.835938 C 253.925781 251.035156 251.460938 251.398438 249.058594 251.917969 C 247.832031 252.1875 246.605469 252.5 245.386719 252.84375 C 245.386719 252.84375 245.378906 252.851562 245.367188 252.851562 C 244.964844 252.96875 244.558594 253.09375 244.15625 253.222656 C 243.753906 253.355469 243.351562 253.492188 242.949219 253.625 C 241.351562 254.179688 239.769531 254.820312 238.230469 255.53125 C 237.84375 255.714844 237.457031 255.894531 237.078125 256.085938 C 236.324219 256.464844 235.574219 256.871094 234.835938 257.289062 C 233.371094 258.128906 231.941406 259.054688 230.589844 260.054688 C 229.066406 261.1875 227.628906 262.40625 226.242188 263.675781 C 225.542969 264.3125 224.863281 264.960938 224.183594 265.613281 C 223.511719 266.273438 222.839844 266.933594 222.164062 267.601562 C 219.492188 270.253906 216.835938 272.9375 213.882812 275.296875 C 212.859375 276.121094 211.765625 276.875 210.640625 277.558594 C 210.261719 277.792969 209.882812 278.011719 209.496094 278.222656 C 209.417969 278.265625 209.335938 278.304688 209.253906 278.347656 C 208.628906 278.683594 207.957031 279.027344 207.257812 279.28125 C 207.117188 279.332031 206.980469 279.382812 206.839844 279.433594 C 206.160156 279.640625 205.460938 279.761719 204.769531 279.699219 C 204.714844 279.699219 204.652344 279.699219 204.59375 279.691406 C 204.488281 279.675781 204.367188 279.648438 204.257812 279.625 C 204.140625 279.597656 204.023438 279.566406 203.914062 279.535156 C 203.898438 279.523438 203.875 279.515625 203.847656 279.507812 C 203.796875 279.488281 203.746094 279.464844 203.6875 279.441406 C 203.652344 279.433594 203.628906 279.421875 203.59375 279.40625 C 203.546875 279.382812 203.5 279.363281 203.46875 279.347656 C 203.425781 279.332031 203.402344 279.320312 203.402344 279.320312 C 203.226562 279.222656 203.046875 279.121094 202.871094 279.019531 C 202.847656 279.003906 202.820312 278.992188 202.804688 278.980469 C 202.789062 278.96875 202.769531 278.960938 202.753906 278.953125 C 202.730469 278.933594 202.710938 278.929688 202.695312 278.921875 L 202.6875 278.921875 C 202.667969 278.902344 202.652344 278.871094 202.605469 278.808594 L 202.542969 278.75 C 202.359375 278.550781 202.164062 278.347656 201.972656 278.152344 C 201.945312 278.128906 201.929688 278.113281 201.921875 278.101562 C 201.90625 278.085938 201.898438 278.078125 201.890625 278.070312 C 201.863281 278.039062 201.828125 277.976562 201.769531 277.886719 C 201.417969 277.355469 201.089844 276.820312 200.804688 276.246094 C 200.683594 276.019531 200.570312 275.777344 200.457031 275.539062 C 200.457031 275.539062 200.457031 275.539062 200.457031 275.53125 C 200.441406 275.5 200.398438 275.425781 200.367188 275.332031 C 200.34375 275.261719 200.304688 275.195312 200.273438 275.128906 C 200.230469 275.027344 200.191406 274.9375 200.171875 274.894531 C 200.15625 274.863281 200.140625 274.8125 200.117188 274.75 C 200.039062 274.574219 199.9375 274.320312 199.902344 274.238281 C 199.769531 273.894531 199.636719 273.542969 199.507812 273.195312 L 199.507812 273.1875 C 198.996094 271.828125 198.492188 270.480469 197.929688 269.136719 C 197.792969 268.820312 197.652344 268.5 197.507812 268.171875 C 196.484375 265.9375 195.1875 263.792969 193.246094 262.230469 C 192.582031 261.699219 191.886719 261.257812 191.167969 260.886719 C 190.890625 260.742188 190.617188 260.617188 190.328125 260.5 C 189.992188 260.355469 189.648438 260.230469 189.304688 260.128906 C 186.949219 259.390625 184.429688 259.355469 181.863281 259.75 C 180.5 259.960938 179.148438 260.332031 177.8125 260.777344 C 177.375 260.917969 176.9375 261.082031 176.5 261.238281 C 175.625 261.566406 174.769531 261.917969 173.917969 262.261719 C 173.085938 262.597656 172.269531 262.945312 171.480469 263.253906 L 171.472656 263.265625 C 169.40625 264.085938 167.359375 264.769531 165.277344 265.0625 C 164.234375 265.210938 163.183594 265.261719 162.117188 265.179688 C 161.898438 265.160156 161.636719 265.121094 161.359375 265.054688 C 161.082031 264.988281 160.789062 264.902344 160.492188 264.800781 C 159.902344 264.597656 159.339844 264.332031 158.988281 264.054688 C 158.851562 263.941406 158.726562 263.835938 158.601562 263.707031 C 158.484375 263.59375 158.367188 263.472656 158.25 263.347656 C 158.238281 263.339844 158.25 263.339844 158.25 263.339844 C 158.019531 263.085938 157.828125 262.816406 157.660156 262.539062 C 157.304688 261.984375 157.054688 261.390625 156.851562 260.777344 C 156.449219 259.53125 156.1875 258.265625 155.960938 256.996094 C 155.566406 254.859375 155.230469 252.726562 154.398438 250.707031 C 154.164062 250.136719 153.902344 249.589844 153.617188 249.070312 C 152.363281 246.808594 150.605469 244.953125 148.4375 243.457031 C 143.546875 240.09375 137.355469 239.144531 131.769531 237.535156 C 131.210938 237.375 130.683594 237.210938 130.167969 237.054688 C 130.003906 237.003906 129.832031 236.953125 129.664062 236.894531 C 129.335938 236.785156 129.007812 236.675781 128.699219 236.566406 C 128.699219 236.566406 128.699219 236.566406 128.691406 236.566406 C 127.898438 236.289062 127.144531 235.984375 126.378906 235.625 C 125.621094 235.273438 124.855469 234.859375 124.058594 234.363281 C 123.394531 233.953125 122.773438 233.480469 122.21875 232.925781 C 121.929688 232.667969 121.671875 232.375 121.433594 232.0625 C 121.191406 231.75 120.972656 231.421875 120.789062 231.078125 C 120.207031 230.011719 120.148438 229.019531 120.601562 228.003906 C 120.671875 227.859375 120.746094 227.710938 120.839844 227.558594 C 121.15625 227.027344 121.542969 226.53125 121.980469 226.070312 C 122.132812 225.910156 122.285156 225.757812 122.445312 225.609375 C 122.761719 225.3125 123.097656 225.027344 123.453125 224.761719 C 125.21875 223.40625 127.378906 222.355469 129.179688 221.507812 C 129.597656 221.304688 130.019531 221.121094 130.445312 220.9375 C 131.304688 220.574219 132.179688 220.246094 133.0625 219.953125 C 133.507812 219.800781 133.953125 219.660156 134.398438 219.523438 C 136.1875 218.992188 138.011719 218.574219 139.835938 218.238281 C 141.6875 217.894531 143.5625 217.660156 145.4375 217.507812 C 147.3125 217.355469 149.195312 217.28125 151.078125 217.261719 C 152.0625 217.253906 153.054688 217.269531 154.046875 217.289062 C 155.8125 217.3125 157.574219 217.34375 159.332031 217.222656 C 159.675781 217.203125 160.015625 217.179688 160.359375 217.136719 C 161.339844 217.035156 162.308594 216.882812 163.277344 216.640625 C 163.277344 216.640625 163.285156 216.648438 163.285156 216.640625 C 163.601562 216.566406 163.921875 216.480469 164.242188 216.378906 C 164.921875 216.164062 165.597656 215.910156 166.253906 215.601562 C 169.085938 214.28125 171.53125 212.097656 172.75 209.179688 C 172.84375 208.953125 172.925781 208.734375 172.992188 208.507812 C 173.070312 208.289062 173.136719 208.070312 173.1875 207.851562 C 173.246094 207.617188 173.296875 207.371094 173.339844 207.136719 C 173.355469 207.011719 173.371094 206.875 173.398438 206.75 C 173.433594 206.492188 173.457031 206.238281 173.472656 205.976562 C 173.539062 204.976562 173.488281 203.96875 173.390625 202.9375 C 173.269531 201.625 173.171875 200.449219 173.550781 199.363281 C 173.632812 199.128906 173.734375 198.902344 173.851562 198.683594 C 173.917969 198.5625 173.984375 198.457031 174.0625 198.347656 C 174.273438 198.042969 174.515625 197.761719 174.777344 197.488281 C 175.171875 197.097656 175.625 196.734375 176.105469 196.40625 C 177.246094 195.648438 178.59375 195.09375 179.902344 194.75 C 180.25 194.660156 180.585938 194.585938 180.914062 194.515625 L 181.089844 194.492188 C 181.425781 194.433594 181.746094 194.382812 182.058594 194.355469 C 184.847656 194.085938 187.484375 194.484375 190.101562 195.289062 C 190.792969 195.507812 191.472656 195.742188 192.164062 196.011719 L 192.171875 196.011719 C 193.027344 196.347656 193.859375 196.71875 194.667969 197.113281 L 194.671875 197.113281 C 195.894531 197.714844 197.0625 198.398438 198.195312 199.117188 C 198.207031 199.128906 198.207031 199.117188 198.207031 199.117188 C 198.960938 199.617188 199.703125 200.128906 200.425781 200.660156 C 200.796875 200.925781 201.15625 201.195312 201.511719 201.472656 C 202.578125 202.304688 203.621094 203.179688 204.644531 204.070312 C 206.34375 205.566406 208 207.128906 209.640625 208.675781 C 210.3125 209.304688 210.984375 209.945312 211.667969 210.574219 C 212.335938 211.214844 213.027344 211.84375 213.71875 212.472656 C 214.40625 213.101562 215.105469 213.726562 215.816406 214.332031 C 216.878906 215.246094 217.960938 216.136719 219.070312 216.976562 C 219.441406 217.261719 219.820312 217.539062 220.199219 217.808594 C 221.324219 218.632812 222.492188 219.398438 223.6875 220.101562 C 224.089844 220.339844 224.492188 220.566406 224.90625 220.785156 C 225.71875 221.226562 226.554688 221.640625 227.410156 222.011719 C 231.488281 223.785156 235.683594 224.507812 240.070312 225.054688 C 241.003906 225.171875 241.9375 225.289062 242.863281 225.429688 C 244.949219 225.75 247.007812 226.152344 249.023438 226.777344 C 249.6875 226.984375 250.363281 227.222656 251.019531 227.480469 C 251.394531 227.632812 252 227.910156 252.597656 228.203125 L 252.605469 228.203125 C 253.371094 228.574219 254.109375 228.980469 254.851562 229.398438 C 255.945312 230.019531 257.003906 230.691406 258.035156 231.40625 C 258.382812 231.648438 258.726562 231.894531 259.0625 232.136719 C 259.382812 232.375 259.710938 232.617188 260.03125 232.859375 C 261.625 234.105469 263.207031 235.507812 264.71875 236.953125 C 264.71875 236.960938 264.71875 236.960938 264.730469 236.953125 C 265.324219 237.539062 265.921875 238.128906 266.496094 238.714844 C 267.300781 239.539062 268.085938 240.382812 268.855469 241.230469 C 271.160156 243.785156 273.3125 246.464844 275.355469 249.230469 " fill-opacity="1" fill-rule="nonzero"/><g clip-path="url(#id1)"><path fill="rgb(100%, 100%, 100%)" d="M 142.039062 105.34375 C 142.039062 82.808594 160.382812 64.472656 182.929688 64.472656 C 205.476562 64.472656 223.820312 82.808594 223.820312 105.34375 L 223.820312 108.277344 L 144.207031 108.277344 C 143.484375 108.277344 142.761719 108.296875 142.039062 108.328125 Z M 275.363281 249.238281 C 275.363281 249.238281 275.363281 249.230469 275.355469 249.230469 C 273.027344 247.867188 270.671875 246.589844 268.300781 245.40625 C 267.117188 244.820312 265.929688 244.246094 264.738281 243.699219 C 262.351562 242.597656 259.964844 241.582031 257.574219 240.652344 C 255.1875 239.71875 252.808594 238.867188 250.445312 238.078125 C 250.445312 238.078125 250.445312 238.078125 250.4375 238.078125 C 245.714844 236.515625 241.054688 235.238281 236.566406 234.195312 C 236.003906 234.070312 235.441406 233.941406 234.882812 233.816406 C 229.882812 232.714844 225.105469 231.902344 220.710938 231.304688 C 220.476562 231.152344 220.230469 231.011719 219.996094 230.859375 L 219.988281 230.859375 C 219.617188 230.625 219.246094 230.375 218.886719 230.109375 C 218.703125 229.984375 218.527344 229.863281 218.347656 229.726562 C 218.324219 229.710938 218.292969 229.683594 218.265625 229.660156 C 218.230469 229.632812 218.207031 229.609375 218.171875 229.589844 C 217.433594 228.992188 216.71875 228.371094 216.039062 227.71875 C 215.347656 227.0625 214.691406 226.378906 214.070312 225.660156 C 213.929688 225.488281 213.785156 225.324219 213.648438 225.144531 C 213.640625 225.144531 213.648438 225.136719 213.648438 225.136719 C 213.496094 224.96875 213.363281 224.792969 213.222656 224.625 C 213.214844 224.617188 213.214844 224.617188 213.214844 224.609375 C 213.203125 224.609375 213.195312 224.597656 213.195312 224.597656 C 213.175781 224.574219 213.152344 224.535156 213.121094 224.484375 C 212.960938 224.269531 212.800781 224.054688 212.648438 223.835938 C 212.109375 223.070312 211.605469 222.289062 211.144531 221.472656 C 210.679688 220.664062 210.253906 219.832031 209.867188 218.984375 C 209.847656 218.953125 209.757812 218.734375 209.699219 218.605469 C 209.664062 218.523438 209.621094 218.40625 209.589844 218.320312 C 209.570312 218.289062 209.5625 218.265625 209.554688 218.238281 C 209.546875 218.230469 209.546875 218.230469 209.546875 218.222656 C 209.355469 217.71875 209.179688 217.222656 209.007812 216.707031 C 208.523438 215.246094 206.941406 214.136719 205.371094 214.648438 C 205.292969 214.675781 205.21875 214.699219 205.140625 214.734375 C 204.921875 214.824219 204.722656 214.945312 204.519531 215.078125 C 204.386719 215.171875 204.265625 215.261719 204.148438 215.378906 L 203.980469 215.550781 C 203.671875 215.894531 203.425781 216.296875 203.300781 216.726562 C 203.140625 217.210938 203.132812 217.75 203.308594 218.28125 C 203.402344 218.558594 203.496094 218.828125 203.59375 219.105469 C 204.191406 220.734375 204.90625 222.324219 205.738281 223.839844 C 206.015625 224.355469 206.308594 224.851562 206.613281 225.335938 C 207.53125 226.808594 208.546875 228.214844 209.664062 229.535156 C 209.847656 229.75 210.042969 229.96875 210.234375 230.1875 C 201.214844 229.496094 195.253906 229.734375 194.523438 229.769531 C 193.832031 229.800781 193.195312 230.035156 192.675781 230.414062 C 192.589844 230.476562 192.503906 230.539062 192.421875 230.617188 C 192.265625 230.75 192.121094 230.910156 191.984375 231.078125 C 191.851562 231.246094 191.734375 231.421875 191.632812 231.617188 C 191.355469 232.136719 191.210938 232.734375 191.242188 233.371094 C 191.253906 233.492188 191.261719 233.597656 191.28125 233.714844 C 191.3125 233.933594 191.363281 234.144531 191.4375 234.355469 C 191.4375 234.355469 191.429688 234.355469 191.4375 234.363281 C 191.664062 234.976562 192.050781 235.515625 192.550781 235.910156 C 192.714844 236.042969 192.902344 236.164062 193.085938 236.265625 C 193.609375 236.53125 194.203125 236.675781 194.84375 236.648438 C 194.886719 236.648438 195.1875 236.640625 195.726562 236.632812 C 196.648438 236.605469 198.28125 236.59375 200.476562 236.648438 L 200.507812 236.648438 C 201.449219 236.667969 202.503906 236.699219 203.644531 236.757812 C 204.234375 236.785156 204.855469 236.820312 205.496094 236.851562 C 206.109375 236.886719 206.746094 236.917969 207.410156 236.96875 L 207.445312 236.96875 C 208.109375 237.011719 208.789062 237.0625 209.488281 237.121094 C 211.757812 237.304688 214.230469 237.539062 216.878906 237.859375 C 217.464844 237.9375 218.0625 238.011719 218.667969 238.089844 C 218.894531 238.121094 219.121094 238.144531 219.359375 238.179688 C 219.980469 238.265625 220.601562 238.347656 221.242188 238.449219 C 221.5 238.480469 221.761719 238.523438 222.03125 238.566406 C 222.703125 238.65625 223.375 238.765625 224.066406 238.886719 C 224.222656 238.910156 224.394531 238.9375 224.5625 238.96875 C 225.328125 239.085938 226.09375 239.21875 226.875 239.363281 C 227.035156 239.390625 227.183594 239.414062 227.34375 239.449219 C 228.210938 239.609375 229.09375 239.773438 229.984375 239.953125 C 230.464844 240.046875 230.949219 240.148438 231.4375 240.246094 C 228.714844 241.464844 226.09375 242.910156 223.609375 244.558594 C 222.214844 245.480469 220.863281 246.472656 219.558594 247.53125 C 218.828125 248.113281 218.113281 248.726562 217.425781 249.355469 C 216.726562 249.976562 216.054688 250.617188 215.398438 251.277344 C 214.734375 251.933594 214.09375 252.609375 213.472656 253.304688 C 212.40625 254.492188 212.296875 256.316406 213.472656 257.484375 C 213.683594 257.691406 213.917969 257.859375 214.1875 257.996094 C 214.449219 258.128906 214.734375 258.222656 215.027344 258.28125 C 215.027344 258.28125 215.027344 258.28125 215.035156 258.28125 C 215.785156 258.421875 216.59375 258.296875 217.222656 257.859375 C 217.371094 257.75 217.515625 257.625 217.648438 257.484375 C 220.492188 254.3125 223.710938 251.558594 227.234375 249.265625 C 228.242188 248.609375 229.269531 247.996094 230.320312 247.414062 C 231.371094 246.832031 232.445312 246.296875 233.539062 245.800781 C 234.632812 245.296875 235.742188 244.84375 236.878906 244.421875 C 238.578125 243.800781 240.308594 243.273438 242.082031 242.835938 C 246 243.9375 250 245.230469 254.007812 246.742188 C 255.339844 247.246094 256.675781 247.773438 258.011719 248.339844 C 259.347656 248.890625 260.683594 249.472656 262.015625 250.085938 C 262.457031 250.296875 262.894531 250.5 263.339844 250.707031 C 262.03125 250.652344 260.710938 250.640625 259.398438 250.675781 C 258.410156 250.707031 257.414062 250.761719 256.421875 250.835938 C 256.414062 250.835938 256.414062 250.835938 256.40625 250.835938 C 253.925781 251.035156 251.460938 251.398438 249.058594 251.917969 C 247.832031 252.1875 246.605469 252.5 245.386719 252.84375 C 245.386719 252.84375 245.378906 252.851562 245.367188 252.851562 C 244.964844 252.96875 244.558594 253.09375 244.15625 253.222656 C 243.753906 253.355469 243.351562 253.492188 242.949219 253.625 C 241.351562 254.179688 239.769531 254.820312 238.230469 255.53125 C 237.84375 255.714844 237.457031 255.894531 237.078125 256.085938 C 236.324219 256.464844 235.574219 256.871094 234.835938 257.289062 C 233.371094 258.128906 231.941406 259.054688 230.589844 260.054688 C 229.066406 261.1875 227.628906 262.40625 226.242188 263.675781 C 225.542969 264.3125 224.863281 264.960938 224.183594 265.613281 C 223.511719 266.273438 222.839844 266.933594 222.164062 267.601562 C 219.492188 270.253906 216.835938 272.9375 213.882812 275.296875 C 212.859375 276.121094 211.765625 276.875 210.640625 277.558594 C 210.261719 277.792969 209.882812 278.011719 209.496094 278.222656 C 209.417969 278.265625 209.335938 278.304688 209.253906 278.347656 C 208.628906 278.683594 207.957031 279.027344 207.257812 279.28125 C 207.125 279.339844 206.980469 279.382812 206.839844 279.433594 C 206.160156 279.640625 205.460938 279.761719 204.769531 279.699219 C 204.714844 279.699219 204.652344 279.699219 204.59375 279.691406 C 204.488281 279.675781 204.367188 279.648438 204.257812 279.625 C 204.140625 279.597656 204.023438 279.566406 203.914062 279.535156 C 203.898438 279.523438 203.875 279.515625 203.847656 279.507812 C 203.796875 279.488281 203.746094 279.472656 203.6875 279.441406 C 203.652344 279.433594 203.628906 279.421875 203.59375 279.40625 C 203.550781 279.390625 203.5 279.363281 203.46875 279.347656 C 203.425781 279.332031 203.402344 279.320312 203.402344 279.320312 C 203.226562 279.222656 203.046875 279.121094 202.871094 279.019531 C 202.847656 279.003906 202.820312 278.992188 202.804688 278.980469 C 202.789062 278.96875 202.769531 278.960938 202.753906 278.953125 C 202.730469 278.941406 202.710938 278.929688 202.695312 278.921875 L 202.6875 278.921875 C 202.667969 278.902344 202.652344 278.871094 202.605469 278.808594 L 202.542969 278.75 C 202.359375 278.550781 202.164062 278.347656 201.972656 278.152344 C 201.945312 278.128906 201.929688 278.113281 201.921875 278.101562 C 201.90625 278.085938 201.898438 278.078125 201.890625 278.070312 C 201.863281 278.039062 201.828125 277.976562 201.769531 277.886719 C 201.417969 277.355469 201.089844 276.820312 200.804688 276.246094 C 200.683594 276.019531 200.570312 275.777344 200.457031 275.539062 C 200.457031 275.539062 200.457031 275.539062 200.457031 275.53125 C 200.441406 275.5 200.398438 275.425781 200.367188 275.332031 C 200.332031 275.261719 200.304688 275.195312 200.273438 275.128906 C 200.230469 275.027344 200.191406 274.9375 200.171875 274.894531 C 200.15625 274.863281 200.140625 274.8125 200.117188 274.75 C 200.039062 274.574219 199.9375 274.320312 199.902344 274.238281 C 199.769531 273.894531 199.636719 273.542969 199.507812 273.195312 L 199.507812 273.1875 C 198.996094 271.828125 198.492188 270.480469 197.929688 269.136719 C 197.792969 268.820312 197.652344 268.5 197.507812 268.171875 C 196.484375 265.9375 195.1875 263.792969 193.246094 262.230469 C 192.582031 261.699219 191.886719 261.257812 191.167969 260.886719 C 190.890625 260.753906 190.617188 260.617188 190.328125 260.5 C 189.992188 260.363281 189.648438 260.238281 189.304688 260.128906 C 186.949219 259.390625 184.429688 259.355469 181.863281 259.75 C 180.5 259.960938 179.148438 260.332031 177.8125 260.777344 C 177.375 260.929688 176.9375 261.085938 176.5 261.238281 C 175.625 261.566406 174.769531 261.917969 173.917969 262.261719 C 173.085938 262.609375 172.269531 262.945312 171.480469 263.253906 L 171.472656 263.265625 C 169.40625 264.085938 167.359375 264.769531 165.277344 265.0625 C 164.234375 265.210938 163.183594 265.261719 162.117188 265.179688 C 161.898438 265.160156 161.636719 265.121094 161.359375 265.054688 C 161.082031 264.988281 160.789062 264.902344 160.492188 264.800781 C 159.902344 264.597656 159.339844 264.332031 158.988281 264.054688 C 158.851562 263.941406 158.726562 263.835938 158.601562 263.707031 C 158.476562 263.601562 158.359375 263.472656 158.25 263.347656 C 158.238281 263.339844 158.25 263.339844 158.25 263.339844 C 158.019531 263.085938 157.828125 262.816406 157.660156 262.539062 C 157.304688 261.984375 157.054688 261.390625 156.851562 260.777344 C 156.449219 259.53125 156.1875 258.265625 155.960938 256.996094 C 155.566406 254.859375 155.230469 252.726562 154.398438 250.707031 C 154.164062 250.136719 153.902344 249.589844 153.617188 249.070312 C 152.363281 246.808594 150.605469 244.953125 148.4375 243.457031 C 143.546875 240.09375 137.355469 239.144531 131.769531 237.535156 C 131.210938 237.375 130.683594 237.210938 130.167969 237.054688 C 130.003906 237.003906 129.832031 236.953125 129.664062 236.894531 C 129.335938 236.792969 129.019531 236.683594 128.699219 236.566406 C 128.699219 236.566406 128.699219 236.566406 128.691406 236.566406 C 127.898438 236.289062 127.144531 235.984375 126.378906 235.625 C 125.621094 235.273438 124.855469 234.859375 124.058594 234.363281 C 123.394531 233.953125 122.773438 233.480469 122.21875 232.925781 C 121.929688 232.667969 121.671875 232.375 121.433594 232.0625 C 121.191406 231.75 120.972656 231.421875 120.789062 231.078125 C 120.207031 230.011719 120.148438 229.019531 120.601562 228.003906 C 120.671875 227.859375 120.746094 227.710938 120.839844 227.558594 C 121.15625 227.027344 121.542969 226.53125 121.980469 226.070312 C 122.125 225.917969 122.285156 225.757812 122.445312 225.609375 C 122.761719 225.3125 123.097656 225.027344 123.453125 224.761719 C 125.21875 223.398438 127.378906 222.355469 129.179688 221.5 C 129.597656 221.304688 130.019531 221.113281 130.445312 220.9375 C 131.304688 220.574219 132.179688 220.246094 133.0625 219.953125 C 133.5 219.800781 133.953125 219.660156 134.398438 219.523438 C 136.1875 218.984375 138.011719 218.566406 139.835938 218.230469 C 141.6875 217.894531 143.5625 217.660156 145.4375 217.507812 C 147.3125 217.355469 149.195312 217.28125 151.078125 217.261719 C 152.0625 217.253906 153.054688 217.269531 154.046875 217.289062 C 155.800781 217.3125 157.574219 217.339844 159.332031 217.222656 C 159.675781 217.203125 160.015625 217.179688 160.359375 217.136719 C 161.339844 217.027344 162.308594 216.875 163.277344 216.640625 C 163.277344 216.640625 163.285156 216.648438 163.285156 216.640625 C 163.601562 216.554688 163.921875 216.472656 164.242188 216.371094 C 164.921875 216.164062 165.605469 215.902344 166.253906 215.601562 C 169.085938 214.28125 171.53125 212.097656 172.75 209.179688 C 172.84375 208.953125 172.925781 208.734375 172.992188 208.507812 C 173.070312 208.289062 173.136719 208.070312 173.1875 207.851562 C 173.246094 207.617188 173.296875 207.371094 173.339844 207.136719 C 173.355469 207.011719 173.371094 206.875 173.398438 206.75 C 173.433594 206.492188 173.457031 206.238281 173.472656 205.976562 C 173.539062 204.976562 173.488281 203.96875 173.390625 202.9375 C 173.269531 201.625 173.171875 200.449219 173.550781 199.363281 C 173.625 199.128906 173.726562 198.910156 173.851562 198.683594 C 173.917969 198.5625 173.984375 198.457031 174.0625 198.347656 C 174.273438 198.042969 174.515625 197.761719 174.777344 197.488281 C 175.171875 197.085938 175.617188 196.734375 176.105469 196.40625 C 177.246094 195.648438 178.59375 195.09375 179.902344 194.75 C 180.238281 194.660156 180.585938 194.585938 180.914062 194.515625 L 181.089844 194.492188 C 181.425781 194.421875 181.753906 194.382812 182.066406 194.347656 C 184.847656 194.078125 187.484375 194.484375 190.101562 195.289062 C 190.792969 195.507812 191.472656 195.742188 192.164062 196.011719 L 192.171875 196.011719 C 193.027344 196.339844 193.859375 196.707031 194.667969 197.113281 L 194.671875 197.113281 C 195.894531 197.707031 197.0625 198.378906 198.195312 199.117188 C 198.207031 199.128906 198.207031 199.117188 198.207031 199.117188 C 198.960938 199.609375 199.703125 200.121094 200.425781 200.660156 C 200.796875 200.925781 201.15625 201.195312 201.511719 201.472656 C 202.585938 202.304688 203.628906 203.171875 204.644531 204.070312 C 206.351562 205.558594 208.007812 207.121094 209.648438 208.664062 C 210.320312 209.304688 210.984375 209.933594 211.667969 210.574219 C 212.347656 211.214844 213.027344 211.84375 213.71875 212.472656 C 214.40625 213.101562 215.105469 213.726562 215.816406 214.332031 C 216.878906 215.238281 217.960938 216.128906 219.070312 216.976562 C 219.441406 217.261719 219.820312 217.539062 220.199219 217.808594 C 221.324219 218.625 222.484375 219.390625 223.6875 220.101562 C 224.089844 220.339844 224.492188 220.566406 224.90625 220.785156 C 225.71875 221.222656 226.5625 221.632812 227.417969 222.003906 C 231.488281 223.785156 235.683594 224.496094 240.070312 225.054688 C 241.003906 225.171875 241.9375 225.289062 242.863281 225.429688 C 244.949219 225.742188 247.015625 226.144531 249.023438 226.777344 C 249.6875 226.984375 250.363281 227.222656 251.019531 227.480469 C 251.394531 227.632812 252 227.910156 252.597656 228.203125 L 252.605469 228.203125 C 253.371094 228.574219 254.121094 228.96875 254.851562 229.390625 C 255.945312 230.011719 257.003906 230.683594 258.035156 231.40625 C 258.382812 231.648438 258.726562 231.894531 259.0625 232.136719 C 259.382812 232.375 259.710938 232.617188 260.03125 232.859375 C 261.625 234.09375 263.207031 235.488281 264.71875 236.953125 C 264.71875 236.960938 264.71875 236.960938 264.730469 236.953125 C 265.332031 237.535156 265.921875 238.128906 266.503906 238.714844 C 267.300781 239.539062 268.089844 240.382812 268.855469 241.230469 C 271.167969 243.792969 273.320312 246.472656 275.371094 249.238281 Z M 289.394531 259.019531 C 289.152344 258.816406 288.90625 258.625 288.671875 258.429688 C 281.484375 246.828125 273.277344 235.28125 262.199219 227.136719 C 259.355469 225.054688 256.3125 223.324219 253.050781 221.976562 C 249.402344 220.464844 245.59375 219.832031 241.695312 219.347656 C 237.683594 218.835938 233.582031 218.347656 229.882812 216.675781 C 226.636719 215.203125 223.652344 213.171875 220.921875 210.902344 C 214.953125 205.96875 209.804688 200.085938 203.488281 195.574219 C 197.3125 191.171875 189.453125 187.617188 181.695312 188.480469 C 177.683594 188.925781 173.667969 190.382812 170.722656 193.230469 C 169.296875 194.609375 168.117188 196.414062 167.648438 198.363281 C 167.125 200.558594 167.578125 202.660156 167.628906 204.867188 C 167.707031 208 165.132812 210.011719 162.234375 210.808594 C 158.191406 211.917969 153.792969 211.269531 149.648438 211.378906 C 141.410156 211.589844 133.09375 212.992188 125.65625 216.667969 C 122.132812 218.398438 118.425781 220.691406 116.136719 223.953125 C 113.507812 227.710938 114.148438 232.296875 116.878906 235.777344 C 121.066406 241.121094 128.40625 242.785156 134.640625 244.421875 C 136.097656 244.800781 137.558594 245.195312 138.996094 245.640625 C 139.679688 245.851562 140.351562 246.070312 141.015625 246.316406 C 141.335938 246.429688 141.660156 246.550781 141.980469 246.683594 C 141.988281 246.683594 142.074219 246.71875 142.148438 246.75 C 142.265625 246.800781 142.578125 246.945312 142.621094 246.960938 C 143.226562 247.238281 143.8125 247.539062 144.394531 247.875 C 144.671875 248.042969 144.957031 248.214844 145.226562 248.398438 C 145.378906 248.5 145.527344 248.609375 145.679688 248.707031 C 145.714844 248.734375 145.914062 248.890625 145.980469 248.9375 C 146.738281 249.558594 147.707031 250.640625 148.152344 251.363281 C 149.84375 254.078125 149.992188 257.625 150.742188 260.816406 C 151.609375 264.472656 153.546875 268.027344 157.046875 269.742188 C 160.449219 271.421875 164.25 271.347656 167.898438 270.566406 C 171.480469 269.800781 174.71875 268.121094 178.140625 266.875 C 181.289062 265.734375 184.929688 264.632812 187.992188 265.851562 C 189.007812 266.257812 189.828125 266.929688 190.640625 267.953125 C 190.667969 268.011719 191.003906 268.5 191.050781 268.574219 C 191.195312 268.800781 191.335938 269.035156 191.472656 269.269531 C 191.835938 269.910156 192.152344 270.574219 192.457031 271.246094 C 192.464844 271.257812 192.5 271.332031 192.523438 271.40625 C 192.5625 271.507812 192.640625 271.675781 192.648438 271.71875 C 192.777344 272.019531 192.890625 272.332031 193.019531 272.640625 C 193.269531 273.296875 193.515625 273.960938 193.765625 274.625 C 194.289062 276.019531 194.824219 277.414062 195.472656 278.757812 C 196.691406 281.308594 198.523438 283.644531 201.183594 284.777344 C 205.207031 286.507812 209.386719 285.101562 212.992188 283.027344 C 216.421875 281.054688 219.46875 278.429688 222.316406 275.699219 C 227.648438 270.589844 232.320312 265.304688 238.8125 261.851562 C 250.476562 255.625 265.191406 254.742188 277.574219 259.640625 C 278.757812 260.113281 280.015625 260.714844 281.265625 261.40625 C 282.523438 262.339844 283.773438 263.316406 285 264.332031 C 292.757812 270.753906 295.195312 280.011719 291.691406 289.75 C 287.863281 300.382812 276.382812 311.136719 261.84375 311.136719 L 123.964844 311.113281 C 111.378906 311.113281 99.5 305.601562 91.382812 295.988281 C 83.261719 286.371094 79.804688 273.75 81.898438 261.390625 L 102.160156 150.757812 C 105.117188 133.269531 118.339844 119.867188 135.0625 116.238281 L 135.0625 142.457031 C 132.664062 143.71875 131.027344 146.25 131.054688 149.160156 C 131.085938 153.132812 134.367188 156.476562 138.339844 156.589844 C 142.582031 156.703125 146.058594 153.308594 146.058594 149.09375 C 146.058594 146.214844 144.425781 143.707031 142.039062 142.457031 L 142.039062 115.3125 C 142.761719 115.277344 143.476562 115.253906 144.207031 115.253906 L 223.820312 115.253906 L 223.820312 142.457031 C 221.25 143.804688 219.558594 146.601562 219.832031 149.757812 C 220.136719 153.273438 222.964844 156.164062 226.46875 156.542969 C 230.992188 157.035156 234.808594 153.515625 234.808594 149.09375 C 234.808594 146.214844 233.1875 143.707031 230.796875 142.457031 L 230.796875 115.285156 C 250.984375 116.011719 267.882812 130.707031 271.292969 150.808594 L 283.992188 220.175781 C 284.339844 222.074219 286.15625 223.328125 288.050781 222.980469 C 289.949219 222.636719 291.207031 220.816406 290.859375 218.921875 L 278.164062 149.597656 C 274.195312 126.171875 254.40625 109.042969 230.796875 108.3125 L 230.796875 106.074219 C 230.796875 79.820312 209.949219 57.914062 183.6875 57.503906 C 156.953125 57.089844 135.0625 78.707031 135.0625 105.34375 L 135.0625 109.121094 C 114.902344 112.851562 98.8125 128.726562 95.28125 149.546875 L 75.027344 260.179688 C 72.582031 274.617188 76.601562 289.304688 86.050781 300.488281 C 95.5 311.675781 109.320312 318.085938 123.964844 318.085938 L 261.84375 318.027344 C 277.734375 318.027344 292.671875 307.363281 298.179688 292.078125 C 302.660156 279.640625 299.371094 267.28125 289.394531 259.019531 " fill-opacity="1" fill-rule="nonzero"/></g></svg>