<svg xmlns="http://www.w3.org/2000/svg" xmlns:xlink="http://www.w3.org/1999/xlink" width="500" zoomAndPan="magnify" viewBox="0 0 375 374.999991" height="500" preserveAspectRatio="xMidYMid meet" version="1.0"><defs><g/><clipPath id="id1"><path d="M 87 29.125 L 280 29.125 L 280 251.125 L 87 251.125 Z M 87 29.125 " clip-rule="nonzero"/></clipPath></defs><rect x="-37.5" width="450" fill="rgb(100%, 100%, 100%)" y="-37.499999" height="449.999989" fill-opacity="1"/><rect x="-37.5" width="450" fill="rgb(100%, 100%, 100%)" y="-37.499999" height="449.999989" fill-opacity="1"/><rect x="-37.5" width="450" fill="rgb(100%, 100%, 100%)" y="-37.499999" height="449.999989" fill-opacity="1"/><rect x="-37.5" width="450" fill="rgb(100%, 100%, 100%)" y="-37.499999" height="449.999989" fill-opacity="1"/><path fill="rgb(100%, 100%, 100%)" d="M 127.023438 174.496094 C 126.636719 175.363281 126.6875 176.207031 127.179688 177.117188 C 127.339844 177.40625 127.523438 177.6875 127.730469 177.949219 C 127.53125 177.6875 127.351562 177.40625 127.1875 177.117188 C 126.6875 176.207031 126.644531 175.355469 127.023438 174.496094 Z M 128.398438 178.6875 C 128.152344 178.460938 127.9375 178.207031 127.730469 177.949219 C 127.933594 178.214844 128.152344 178.464844 128.398438 178.6875 Z M 133.898438 181.78125 C 133.222656 181.539062 132.578125 181.28125 131.933594 180.980469 C 132.585938 181.289062 133.230469 181.546875 133.898438 181.78125 Z M 150.691406 187.636719 C 146.539062 184.777344 141.269531 183.976562 136.515625 182.597656 C 136.046875 182.460938 135.59375 182.324219 135.160156 182.195312 C 135.59375 182.332031 136.046875 182.46875 136.515625 182.605469 C 141.269531 183.976562 146.53125 184.785156 150.691406 187.640625 C 152.535156 188.914062 154.027344 190.496094 155.09375 192.417969 C 154.035156 190.496094 152.542969 188.914062 150.691406 187.636719 Z M 157.085938 199.160156 C 157.28125 200.238281 157.503906 201.316406 157.84375 202.375 C 158.015625 202.898438 158.230469 203.402344 158.53125 203.875 C 158.230469 203.398438 158.015625 202.886719 157.851562 202.375 C 157.515625 201.324219 157.292969 200.246094 157.085938 199.160156 Z M 158.53125 203.875 C 158.675781 204.109375 158.839844 204.339844 159.03125 204.554688 C 158.847656 204.339844 158.675781 204.109375 158.53125 203.875 Z M 162.320312 206.113281 C 162.132812 206.097656 161.910156 206.0625 161.675781 206.011719 C 161.910156 206.070312 162.132812 206.105469 162.320312 206.121094 C 163.226562 206.191406 164.121094 206.148438 165.007812 206.019531 C 164.121094 206.140625 163.226562 206.183594 162.320312 206.113281 Z M 172.355469 203.640625 C 171.648438 203.933594 170.953125 204.21875 170.28125 204.484375 C 170.953125 204.21875 171.648438 203.925781 172.355469 203.640625 Z M 171.976562 155.761719 C 172.039062 154.914062 171.996094 154.046875 171.910156 153.167969 C 171.8125 152.0625 171.726562 151.066406 172.039062 150.140625 C 171.71875 151.0625 171.804688 152.0625 171.90625 153.179688 C 171.988281 154.054688 172.03125 154.914062 171.976562 155.761719 Z M 179.109375 201.496094 C 177.953125 201.683594 176.800781 201.988281 175.664062 202.375 C 176.800781 201.996094 177.953125 201.683594 179.109375 201.5 C 181.289062 201.167969 183.433594 201.195312 185.433594 201.824219 C 183.441406 201.1875 181.289062 201.160156 179.109375 201.496094 Z M 192.773438 209.488281 C 192.660156 209.214844 192.539062 208.945312 192.410156 208.664062 C 192.53125 208.945312 192.652344 209.214844 192.769531 209.488281 C 193.246094 210.628906 193.675781 211.773438 194.113281 212.933594 C 193.683594 211.78125 193.253906 210.625 192.773438 209.488281 Z M 194.113281 212.9375 C 194.21875 213.234375 194.332031 213.535156 194.445312 213.824219 C 194.476562 213.894531 194.5625 214.109375 194.628906 214.261719 C 194.570312 214.105469 194.484375 213.890625 194.457031 213.824219 C 194.339844 213.523438 194.226562 213.238281 194.113281 212.9375 Z M 194.917969 214.925781 C 194.914062 214.90625 194.875 214.835938 194.84375 214.753906 C 194.871094 214.835938 194.90625 214.898438 194.917969 214.925781 Z M 196.035156 216.929688 C 195.734375 216.476562 195.460938 216.011719 195.214844 215.53125 C 195.457031 216.019531 195.734375 216.476562 196.035156 216.929688 Z M 196.214844 217.148438 C 196.191406 217.132812 196.179688 217.121094 196.164062 217.113281 C 196.167969 217.121094 196.183594 217.132812 196.207031 217.15625 C 196.367188 217.320312 196.535156 217.492188 196.691406 217.664062 L 196.742188 217.714844 C 196.726562 217.691406 196.710938 217.679688 196.699219 217.664062 C 196.542969 217.492188 196.378906 217.3125 196.214844 217.148438 Z M 196.8125 217.808594 L 196.820312 217.808594 C 196.808594 217.785156 196.792969 217.757812 196.742188 217.714844 C 196.785156 217.765625 196.796875 217.792969 196.8125 217.808594 Z M 196.914062 217.855469 C 196.925781 217.871094 196.949219 217.878906 196.96875 217.890625 C 197.121094 217.976562 197.269531 218.0625 197.421875 218.148438 C 197.265625 218.0625 197.121094 217.976562 196.96875 217.886719 C 196.949219 217.871094 196.925781 217.863281 196.914062 217.855469 Z M 198.148438 218.40625 C 198.242188 218.429688 198.34375 218.449219 198.4375 218.464844 C 198.484375 218.472656 198.535156 218.472656 198.585938 218.472656 C 198.535156 218.472656 198.484375 218.464844 198.4375 218.457031 C 198.34375 218.449219 198.242188 218.429688 198.148438 218.40625 Z M 202.394531 217.320312 C 202.46875 217.285156 202.539062 217.25 202.601562 217.214844 C 202.929688 217.035156 203.253906 216.847656 203.574219 216.648438 C 203.253906 216.84375 202.929688 217.027344 202.601562 217.207031 C 202.53125 217.242188 202.46875 217.285156 202.394531 217.320312 Z M 202.925781 166.828125 C 202.910156 166.792969 202.832031 166.613281 202.78125 166.5 C 202.753906 166.4375 202.714844 166.335938 202.683594 166.265625 C 202.710938 166.335938 202.746094 166.4375 202.773438 166.507812 C 202.824219 166.613281 202.902344 166.800781 202.917969 166.828125 C 203.246094 167.550781 203.609375 168.257812 204.003906 168.945312 C 204.394531 169.636719 204.824219 170.304688 205.28125 170.953125 C 204.832031 170.304688 204.40625 169.632812 204.011719 168.945312 C 203.617188 168.257812 203.253906 167.550781 202.925781 166.828125 Z M 205.683594 171.503906 C 205.710938 171.546875 205.734375 171.582031 205.75 171.601562 C 205.75 171.601562 205.753906 171.613281 205.761719 171.613281 C 205.761719 171.601562 205.761719 171.601562 205.753906 171.597656 C 205.742188 171.574219 205.71875 171.546875 205.683594 171.503906 Z M 205.777344 171.625 C 205.777344 171.617188 205.769531 171.625 205.769531 171.625 C 205.890625 171.769531 206.003906 171.917969 206.132812 172.0625 C 206.011719 171.917969 205.890625 171.773438 205.777344 171.625 Z M 206.5 172.5 C 206.375 172.355469 206.253906 172.210938 206.132812 172.070312 C 206.25 172.21875 206.371094 172.359375 206.492188 172.503906 C 207.019531 173.117188 207.578125 173.699219 208.164062 174.253906 C 207.585938 173.699219 207.027344 173.113281 206.5 172.5 Z M 210.058594 175.90625 C 210.082031 175.929688 210.109375 175.949219 210.128906 175.964844 C 210.28125 176.078125 210.429688 176.183594 210.585938 176.292969 C 210.4375 176.183594 210.28125 176.070312 210.128906 175.957031 C 210.109375 175.941406 210.082031 175.921875 210.058594 175.90625 Z M 224.1875 179.445312 C 219.9375 178.503906 215.886719 177.808594 212.144531 177.300781 C 211.9375 177.175781 211.730469 177.058594 211.53125 176.929688 C 211.730469 177.058594 211.9375 177.175781 212.136719 177.308594 C 215.875 177.816406 219.9375 178.507812 224.1875 179.445312 Z M 231.042969 196.292969 C 229.6875 196.765625 228.34375 197.300781 227.035156 197.914062 C 228.34375 197.308594 229.6875 196.765625 231.042969 196.292969 Z M 225.617188 179.765625 C 229.433594 180.652344 233.394531 181.738281 237.414062 183.066406 C 233.394531 181.730469 229.433594 180.644531 225.617188 179.765625 Z M 233.117188 195.628906 C 234.152344 195.335938 235.195312 195.070312 236.238281 194.839844 C 238.285156 194.398438 240.378906 194.089844 242.488281 193.917969 C 240.378906 194.085938 238.292969 194.390625 236.246094 194.832031 C 235.195312 195.0625 234.152344 195.320312 233.117188 195.628906 Z M 237.417969 183.066406 C 239.425781 183.738281 241.449219 184.460938 243.480469 185.257812 C 241.457031 184.460938 239.425781 183.734375 237.417969 183.066406 Z M 245.03125 193.785156 C 244.179688 193.804688 243.34375 193.855469 242.5 193.917969 C 243.34375 193.855469 244.1875 193.8125 245.03125 193.785156 Z M 249.570312 187.851562 C 250.585938 188.316406 251.59375 188.800781 252.601562 189.300781 C 251.59375 188.796875 250.585938 188.316406 249.570312 187.851562 " fill-opacity="1" fill-rule="nonzero"/><path fill="rgb(76.858521%, 92.158508%, 70.588684%)" d="M 258.597656 192.554688 C 256.617188 191.394531 254.617188 190.308594 252.601562 189.300781 C 251.59375 188.800781 250.585938 188.316406 249.570312 187.851562 C 247.539062 186.914062 245.511719 186.046875 243.480469 185.257812 C 241.449219 184.460938 239.425781 183.738281 237.417969 183.066406 C 237.417969 183.066406 237.417969 183.066406 237.414062 183.066406 C 233.394531 181.738281 229.433594 180.652344 225.617188 179.765625 C 225.140625 179.660156 224.660156 179.550781 224.1875 179.445312 C 219.9375 178.507812 215.875 177.816406 212.136719 177.308594 C 211.9375 177.175781 211.730469 177.058594 211.53125 176.929688 L 211.523438 176.929688 C 211.203125 176.722656 210.894531 176.515625 210.585938 176.292969 C 210.429688 176.183594 210.28125 176.078125 210.128906 175.964844 C 210.109375 175.949219 210.082031 175.929688 210.058594 175.90625 C 210.027344 175.886719 210.007812 175.863281 209.980469 175.851562 C 209.351562 175.339844 208.742188 174.8125 208.164062 174.253906 C 207.578125 173.699219 207.019531 173.117188 206.492188 172.503906 C 206.371094 172.359375 206.25 172.21875 206.132812 172.070312 C 206.128906 172.070312 206.132812 172.0625 206.132812 172.0625 C 206.003906 171.917969 205.890625 171.769531 205.769531 171.625 C 205.761719 171.617188 205.761719 171.617188 205.761719 171.613281 C 205.753906 171.613281 205.75 171.601562 205.75 171.601562 C 205.734375 171.582031 205.710938 171.546875 205.683594 171.503906 C 205.546875 171.324219 205.410156 171.140625 205.28125 170.953125 C 204.824219 170.304688 204.394531 169.636719 204.003906 168.945312 C 203.609375 168.257812 203.246094 167.550781 202.917969 166.828125 C 202.902344 166.800781 202.824219 166.613281 202.773438 166.507812 C 202.746094 166.4375 202.710938 166.335938 202.683594 166.265625 C 202.675781 166.238281 202.660156 166.207031 202.65625 166.195312 C 202.644531 166.183594 202.644531 166.183594 202.644531 166.179688 C 202.484375 165.75 202.332031 165.328125 202.1875 164.890625 C 201.773438 163.648438 200.429688 162.703125 199.09375 163.140625 C 199.03125 163.160156 198.964844 163.183594 198.902344 163.214844 C 198.714844 163.285156 198.535156 163.382812 198.371094 163.503906 C 198.257812 163.585938 198.15625 163.660156 198.058594 163.761719 C 198.007812 163.800781 197.964844 163.847656 197.914062 163.90625 C 197.652344 164.191406 197.441406 164.535156 197.335938 164.90625 C 197.199219 165.320312 197.191406 165.777344 197.34375 166.226562 C 197.421875 166.464844 197.5 166.695312 197.585938 166.929688 C 198.085938 168.316406 198.703125 169.667969 199.40625 170.960938 C 199.644531 171.398438 199.894531 171.816406 200.152344 172.230469 C 200.921875 173.492188 201.785156 174.679688 202.746094 175.800781 C 202.902344 175.984375 203.070312 176.171875 203.230469 176.355469 C 195.5625 175.769531 190.496094 175.972656 189.875 176 C 189.285156 176.027344 188.742188 176.226562 188.300781 176.550781 C 188.230469 176.601562 188.15625 176.65625 188.085938 176.722656 C 187.953125 176.835938 187.828125 176.972656 187.714844 177.117188 C 187.601562 177.257812 187.5 177.40625 187.414062 177.574219 C 187.179688 178.015625 187.058594 178.523438 187.085938 179.066406 C 187.09375 179.167969 187.101562 179.257812 187.113281 179.359375 C 187.140625 179.542969 187.1875 179.722656 187.25 179.902344 C 187.25 179.902344 187.242188 179.902344 187.25 179.910156 C 187.429688 180.4375 187.765625 180.886719 188.195312 181.222656 C 188.328125 181.339844 188.484375 181.4375 188.652344 181.527344 C 189.09375 181.753906 189.601562 181.875 190.144531 181.855469 C 190.179688 181.855469 190.4375 181.847656 190.894531 181.839844 C 191.691406 181.816406 193.066406 181.808594 194.933594 181.855469 L 194.960938 181.855469 C 195.761719 181.875 196.65625 181.902344 197.628906 181.945312 C 198.128906 181.96875 198.65625 181.996094 199.203125 182.023438 C 199.722656 182.054688 200.265625 182.089844 200.832031 182.125 L 200.859375 182.125 C 201.417969 182.167969 202 182.210938 202.597656 182.253906 C 204.523438 182.410156 206.628906 182.609375 208.878906 182.882812 C 209.378906 182.9375 209.886719 183.003906 210.398438 183.078125 C 210.59375 183.105469 210.785156 183.125 210.988281 183.152344 C 211.515625 183.226562 212.046875 183.296875 212.589844 183.382812 C 212.808594 183.410156 213.03125 183.449219 213.261719 183.484375 C 213.832031 183.570312 214.410156 183.652344 214.988281 183.753906 C 215.125 183.777344 215.269531 183.796875 215.414062 183.824219 C 216.0625 183.925781 216.714844 184.039062 217.378906 184.164062 C 217.511719 184.183594 217.640625 184.207031 217.777344 184.234375 C 218.511719 184.371094 219.265625 184.511719 220.019531 184.664062 C 220.429688 184.742188 220.84375 184.828125 221.257812 184.914062 C 218.941406 185.949219 216.714844 187.179688 214.601562 188.582031 C 213.417969 189.367188 212.265625 190.210938 211.160156 191.109375 C 210.539062 191.605469 209.929688 192.125 209.34375 192.660156 C 208.75 193.191406 208.179688 193.734375 207.621094 194.296875 C 207.058594 194.855469 206.511719 195.425781 205.984375 196.019531 C 205.078125 197.027344 204.984375 198.578125 205.984375 199.574219 C 206.164062 199.75 206.363281 199.894531 206.589844 200.007812 C 206.8125 200.121094 207.058594 200.207031 207.304688 200.25 C 207.304688 200.25 207.304688 200.25 207.3125 200.25 C 207.949219 200.375 208.636719 200.265625 209.171875 199.894531 C 209.300781 199.800781 209.421875 199.691406 209.535156 199.574219 C 211.953125 196.878906 214.691406 194.535156 217.683594 192.582031 C 218.542969 192.023438 219.414062 191.503906 220.308594 191.007812 C 221.203125 190.515625 222.117188 190.058594 223.042969 189.636719 C 223.972656 189.214844 224.917969 188.824219 225.882812 188.464844 C 227.328125 187.9375 228.800781 187.488281 230.308594 187.117188 C 233.636719 188.050781 237.042969 189.152344 240.449219 190.4375 C 241.578125 190.875 242.714844 191.324219 243.851562 191.796875 C 244.988281 192.273438 246.125 192.769531 247.253906 193.28125 C 247.632812 193.460938 248.003906 193.632812 248.382812 193.8125 C 247.269531 193.761719 246.144531 193.753906 245.03125 193.785156 C 244.1875 193.8125 243.34375 193.855469 242.5 193.917969 C 242.492188 193.917969 242.492188 193.917969 242.488281 193.917969 C 240.378906 194.089844 238.285156 194.398438 236.238281 194.839844 C 235.195312 195.070312 234.152344 195.335938 233.117188 195.628906 C 233.117188 195.628906 233.109375 195.632812 233.101562 195.632812 C 232.757812 195.734375 232.414062 195.839844 232.070312 195.949219 C 231.730469 196.0625 231.386719 196.179688 231.042969 196.292969 C 229.6875 196.765625 228.34375 197.308594 227.035156 197.914062 C 226.707031 198.070312 226.375 198.222656 226.054688 198.386719 C 225.410156 198.707031 224.773438 199.050781 224.144531 199.40625 C 222.902344 200.121094 221.6875 200.910156 220.535156 201.761719 C 219.242188 202.726562 218.019531 203.761719 216.839844 204.839844 C 216.246094 205.382812 215.667969 205.933594 215.089844 206.492188 C 214.519531 207.050781 213.945312 207.613281 213.375 208.179688 C 211.101562 210.4375 208.84375 212.71875 206.335938 214.726562 C 205.464844 215.425781 204.535156 216.070312 203.574219 216.648438 C 203.253906 216.847656 202.929688 217.035156 202.601562 217.214844 C 202.539062 217.25 202.46875 217.285156 202.394531 217.320312 C 201.867188 217.605469 201.296875 217.898438 200.703125 218.113281 C 200.582031 218.15625 200.464844 218.199219 200.34375 218.242188 C 199.765625 218.421875 199.171875 218.523438 198.585938 218.472656 C 198.535156 218.472656 198.484375 218.472656 198.4375 218.464844 C 198.34375 218.449219 198.242188 218.429688 198.148438 218.40625 C 198.050781 218.386719 197.949219 218.355469 197.855469 218.328125 C 197.84375 218.320312 197.824219 218.3125 197.800781 218.308594 C 197.757812 218.292969 197.714844 218.269531 197.664062 218.25 C 197.636719 218.242188 197.613281 218.234375 197.585938 218.222656 C 197.542969 218.199219 197.507812 218.183594 197.480469 218.171875 C 197.441406 218.15625 197.421875 218.148438 197.421875 218.148438 C 197.269531 218.0625 197.121094 217.976562 196.96875 217.890625 C 196.949219 217.878906 196.925781 217.871094 196.914062 217.855469 C 196.898438 217.847656 196.882812 217.84375 196.871094 217.835938 C 196.851562 217.820312 196.835938 217.816406 196.820312 217.808594 L 196.8125 217.808594 C 196.796875 217.792969 196.785156 217.765625 196.742188 217.714844 L 196.691406 217.664062 C 196.535156 217.492188 196.367188 217.320312 196.207031 217.15625 C 196.183594 217.132812 196.167969 217.121094 196.164062 217.113281 C 196.148438 217.101562 196.140625 217.089844 196.136719 217.085938 C 196.113281 217.058594 196.085938 217.003906 196.035156 216.929688 C 195.734375 216.476562 195.457031 216.019531 195.214844 215.53125 C 195.113281 215.339844 195.011719 215.132812 194.917969 214.933594 C 194.917969 214.933594 194.917969 214.933594 194.917969 214.925781 C 194.90625 214.898438 194.871094 214.835938 194.84375 214.753906 C 194.820312 214.695312 194.789062 214.640625 194.761719 214.582031 C 194.726562 214.496094 194.691406 214.421875 194.675781 214.382812 C 194.660156 214.355469 194.648438 214.3125 194.628906 214.261719 C 194.5625 214.109375 194.476562 213.894531 194.445312 213.824219 C 194.332031 213.535156 194.21875 213.234375 194.113281 212.9375 L 194.113281 212.933594 C 193.675781 211.773438 193.246094 210.628906 192.769531 209.488281 C 192.652344 209.214844 192.53125 208.945312 192.410156 208.664062 C 191.539062 206.765625 190.4375 204.941406 188.785156 203.613281 C 188.222656 203.160156 187.628906 202.785156 187.019531 202.46875 C 186.785156 202.347656 186.550781 202.238281 186.304688 202.140625 C 186.019531 202.015625 185.730469 201.910156 185.433594 201.824219 C 183.433594 201.195312 181.289062 201.167969 179.109375 201.5 C 177.953125 201.683594 176.800781 201.996094 175.664062 202.375 C 175.292969 202.496094 174.921875 202.632812 174.550781 202.769531 C 173.804688 203.046875 173.078125 203.347656 172.355469 203.640625 C 171.648438 203.925781 170.953125 204.21875 170.28125 204.484375 L 170.273438 204.492188 C 168.515625 205.191406 166.777344 205.769531 165.007812 206.019531 C 164.121094 206.148438 163.226562 206.191406 162.320312 206.121094 C 162.132812 206.105469 161.910156 206.070312 161.675781 206.011719 C 161.441406 205.957031 161.191406 205.882812 160.941406 205.796875 C 160.4375 205.625 159.960938 205.398438 159.660156 205.164062 C 159.546875 205.070312 159.4375 204.976562 159.332031 204.867188 C 159.230469 204.769531 159.132812 204.667969 159.03125 204.5625 C 159.023438 204.554688 159.03125 204.554688 159.03125 204.554688 C 158.839844 204.339844 158.675781 204.109375 158.53125 203.875 C 158.230469 203.402344 158.015625 202.898438 157.84375 202.375 C 157.503906 201.316406 157.28125 200.238281 157.085938 199.160156 C 156.75 197.34375 156.464844 195.527344 155.757812 193.8125 C 155.558594 193.324219 155.335938 192.859375 155.09375 192.417969 C 154.027344 190.496094 152.535156 188.914062 150.691406 187.640625 C 146.53125 184.785156 141.269531 183.976562 136.515625 182.605469 C 136.046875 182.46875 135.59375 182.332031 135.160156 182.195312 C 135.015625 182.152344 134.871094 182.109375 134.730469 182.0625 C 134.449219 181.96875 134.171875 181.875 133.90625 181.78125 C 133.90625 181.78125 133.90625 181.78125 133.898438 181.78125 C 133.230469 181.546875 132.585938 181.289062 131.933594 180.980469 C 131.292969 180.683594 130.640625 180.332031 129.960938 179.910156 C 129.398438 179.558594 128.867188 179.160156 128.398438 178.6875 C 128.152344 178.464844 127.933594 178.214844 127.730469 177.949219 C 127.523438 177.6875 127.339844 177.40625 127.179688 177.117188 C 126.6875 176.207031 126.636719 175.363281 127.023438 174.496094 C 127.082031 174.378906 127.144531 174.25 127.226562 174.121094 C 127.496094 173.667969 127.824219 173.246094 128.195312 172.855469 C 128.324219 172.71875 128.453125 172.589844 128.589844 172.460938 C 128.859375 172.210938 129.148438 171.96875 129.449219 171.742188 C 130.949219 170.589844 132.785156 169.695312 134.316406 168.972656 C 134.671875 168.800781 135.03125 168.644531 135.394531 168.488281 C 136.125 168.179688 136.867188 167.902344 137.617188 167.652344 C 137.996094 167.523438 138.375 167.402344 138.753906 167.285156 C 140.277344 166.835938 141.828125 166.480469 143.378906 166.195312 C 144.949219 165.898438 146.546875 165.699219 148.136719 165.570312 C 149.734375 165.441406 151.332031 165.378906 152.933594 165.363281 C 153.769531 165.355469 154.613281 165.371094 155.457031 165.386719 C 156.960938 165.40625 158.460938 165.433594 159.953125 165.328125 C 160.246094 165.3125 160.53125 165.292969 160.824219 165.257812 C 161.660156 165.171875 162.484375 165.042969 163.304688 164.835938 C 163.304688 164.835938 163.3125 164.84375 163.3125 164.835938 C 163.585938 164.769531 163.855469 164.699219 164.128906 164.613281 C 164.707031 164.429688 165.277344 164.214844 165.835938 163.949219 C 168.246094 162.828125 170.324219 160.96875 171.363281 158.488281 C 171.4375 158.296875 171.511719 158.109375 171.570312 157.914062 C 171.632812 157.730469 171.691406 157.542969 171.734375 157.359375 C 171.78125 157.15625 171.824219 156.949219 171.859375 156.75 C 171.875 156.644531 171.890625 156.527344 171.910156 156.421875 C 171.941406 156.203125 171.960938 155.988281 171.976562 155.761719 C 172.03125 154.914062 171.988281 154.054688 171.90625 153.179688 C 171.804688 152.0625 171.71875 151.0625 172.039062 150.140625 C 172.113281 149.941406 172.195312 149.746094 172.296875 149.558594 C 172.355469 149.457031 172.410156 149.367188 172.476562 149.273438 C 172.65625 149.015625 172.863281 148.773438 173.082031 148.546875 C 173.417969 148.210938 173.804688 147.902344 174.214844 147.621094 C 175.183594 146.980469 176.328125 146.507812 177.441406 146.214844 C 177.738281 146.136719 178.023438 146.074219 178.300781 146.015625 L 178.453125 145.992188 C 178.738281 145.945312 179.007812 145.902344 179.273438 145.878906 C 181.648438 145.648438 183.890625 145.988281 186.113281 146.671875 C 186.699219 146.859375 187.277344 147.058594 187.867188 147.289062 L 187.871094 147.289062 C 188.601562 147.574219 189.308594 147.886719 189.996094 148.222656 L 190 148.222656 C 191.039062 148.738281 192.035156 149.316406 192.996094 149.929688 C 193.003906 149.941406 193.003906 149.929688 193.003906 149.929688 C 193.648438 150.355469 194.277344 150.789062 194.890625 151.238281 C 195.207031 151.46875 195.511719 151.695312 195.8125 151.933594 C 196.722656 152.640625 197.609375 153.382812 198.480469 154.140625 C 199.921875 155.414062 201.332031 156.742188 202.726562 158.058594 C 203.296875 158.597656 203.867188 159.136719 204.449219 159.675781 C 205.019531 160.21875 205.605469 160.753906 206.191406 161.289062 C 206.777344 161.824219 207.371094 162.355469 207.976562 162.871094 C 208.878906 163.648438 209.800781 164.40625 210.742188 165.121094 C 211.058594 165.363281 211.378906 165.601562 211.703125 165.828125 C 212.660156 166.527344 213.652344 167.179688 214.667969 167.777344 C 215.011719 167.980469 215.355469 168.171875 215.703125 168.359375 C 216.398438 168.738281 217.105469 169.089844 217.835938 169.402344 C 221.300781 170.910156 224.867188 171.527344 228.597656 171.988281 C 229.390625 172.089844 230.1875 172.1875 230.972656 172.3125 C 232.746094 172.582031 234.496094 172.925781 236.210938 173.457031 C 236.777344 173.632812 237.347656 173.835938 237.90625 174.054688 C 238.226562 174.183594 238.742188 174.421875 239.25 174.667969 L 239.253906 174.667969 C 239.90625 174.984375 240.535156 175.328125 241.164062 175.683594 C 242.09375 176.214844 242.992188 176.785156 243.875 177.390625 C 244.167969 177.601562 244.460938 177.808594 244.746094 178.015625 C 245.015625 178.214844 245.296875 178.421875 245.570312 178.628906 C 246.925781 179.6875 248.269531 180.882812 249.554688 182.109375 C 249.554688 182.117188 249.554688 182.117188 249.5625 182.109375 C 250.070312 182.609375 250.578125 183.109375 251.0625 183.609375 C 251.75 184.3125 252.414062 185.027344 253.070312 185.75 C 255.03125 187.921875 256.863281 190.203125 258.597656 192.554688 " fill-opacity="1" fill-rule="nonzero"/><g clip-path="url(#id1)"><path fill="rgb(100%, 100%, 100%)" d="M 145.25 70.167969 C 145.25 51 160.847656 35.402344 180.015625 35.402344 C 199.1875 35.402344 214.78125 51 214.78125 70.167969 L 214.78125 72.664062 L 147.09375 72.664062 C 146.480469 72.664062 145.863281 72.679688 145.25 72.707031 Z M 258.605469 192.5625 C 258.605469 192.5625 258.605469 192.554688 258.597656 192.554688 C 256.617188 191.394531 254.617188 190.308594 252.601562 189.300781 C 251.59375 188.800781 250.585938 188.316406 249.570312 187.851562 C 247.539062 186.914062 245.511719 186.046875 243.480469 185.257812 C 241.449219 184.460938 239.425781 183.738281 237.417969 183.066406 C 237.417969 183.066406 237.417969 183.066406 237.414062 183.066406 C 233.394531 181.738281 229.433594 180.652344 225.617188 179.765625 C 225.140625 179.660156 224.660156 179.550781 224.1875 179.445312 C 219.9375 178.507812 215.875 177.816406 212.136719 177.308594 C 211.9375 177.175781 211.730469 177.058594 211.53125 176.929688 L 211.523438 176.929688 C 211.207031 176.730469 210.894531 176.515625 210.585938 176.292969 C 210.429688 176.183594 210.28125 176.078125 210.128906 175.964844 C 210.109375 175.949219 210.082031 175.929688 210.058594 175.90625 C 210.027344 175.886719 210.007812 175.863281 209.980469 175.851562 C 209.351562 175.339844 208.742188 174.8125 208.164062 174.253906 C 207.578125 173.699219 207.019531 173.117188 206.492188 172.503906 C 206.371094 172.359375 206.25 172.21875 206.132812 172.070312 C 206.128906 172.070312 206.132812 172.0625 206.132812 172.0625 C 206.003906 171.917969 205.890625 171.769531 205.769531 171.625 C 205.761719 171.617188 205.761719 171.617188 205.761719 171.613281 C 205.753906 171.613281 205.75 171.601562 205.75 171.601562 C 205.734375 171.582031 205.710938 171.546875 205.683594 171.503906 C 205.546875 171.324219 205.410156 171.140625 205.28125 170.953125 C 204.824219 170.304688 204.394531 169.636719 204.003906 168.945312 C 203.609375 168.257812 203.246094 167.550781 202.917969 166.828125 C 202.902344 166.800781 202.824219 166.613281 202.773438 166.507812 C 202.746094 166.4375 202.710938 166.335938 202.683594 166.265625 C 202.667969 166.238281 202.660156 166.214844 202.65625 166.195312 C 202.644531 166.183594 202.644531 166.183594 202.644531 166.179688 C 202.484375 165.75 202.332031 165.328125 202.1875 164.890625 C 201.773438 163.648438 200.429688 162.703125 199.09375 163.140625 C 199.03125 163.160156 198.964844 163.183594 198.902344 163.214844 C 198.714844 163.289062 198.542969 163.390625 198.371094 163.503906 C 198.257812 163.585938 198.15625 163.660156 198.058594 163.761719 L 197.914062 163.90625 C 197.652344 164.199219 197.441406 164.542969 197.335938 164.90625 C 197.199219 165.320312 197.191406 165.777344 197.34375 166.226562 C 197.421875 166.464844 197.5 166.695312 197.585938 166.929688 C 198.09375 168.316406 198.703125 169.667969 199.40625 170.960938 C 199.644531 171.398438 199.894531 171.816406 200.152344 172.230469 C 200.929688 173.484375 201.796875 174.679688 202.746094 175.800781 C 202.902344 175.984375 203.070312 176.171875 203.230469 176.355469 C 195.5625 175.769531 190.496094 175.972656 189.875 176 C 189.285156 176.027344 188.742188 176.226562 188.300781 176.550781 C 188.230469 176.601562 188.15625 176.65625 188.085938 176.722656 C 187.953125 176.835938 187.828125 176.972656 187.714844 177.117188 C 187.601562 177.257812 187.5 177.40625 187.414062 177.574219 C 187.179688 178.015625 187.058594 178.523438 187.085938 179.066406 C 187.09375 179.167969 187.101562 179.257812 187.113281 179.359375 C 187.140625 179.542969 187.1875 179.722656 187.25 179.902344 C 187.25 179.902344 187.242188 179.902344 187.25 179.910156 C 187.445312 180.429688 187.769531 180.886719 188.195312 181.222656 C 188.335938 181.339844 188.496094 181.4375 188.652344 181.527344 C 189.09375 181.753906 189.601562 181.875 190.144531 181.855469 C 190.179688 181.855469 190.4375 181.847656 190.894531 181.839844 C 191.679688 181.816406 193.066406 181.804688 194.933594 181.855469 L 194.960938 181.855469 C 195.761719 181.867188 196.65625 181.898438 197.628906 181.945312 C 198.128906 181.96875 198.65625 181.996094 199.203125 182.023438 C 199.722656 182.054688 200.265625 182.082031 200.832031 182.125 L 200.859375 182.125 C 201.425781 182.160156 202 182.203125 202.597656 182.253906 C 204.523438 182.410156 206.628906 182.609375 208.878906 182.882812 C 209.378906 182.949219 209.886719 183.011719 210.398438 183.078125 C 210.59375 183.105469 210.785156 183.125 210.988281 183.152344 C 211.515625 183.226562 212.046875 183.296875 212.589844 183.382812 C 212.808594 183.410156 213.03125 183.449219 213.261719 183.484375 C 213.832031 183.5625 214.402344 183.652344 214.988281 183.753906 C 215.125 183.777344 215.269531 183.796875 215.414062 183.824219 C 216.0625 183.925781 216.714844 184.039062 217.378906 184.164062 C 217.511719 184.183594 217.640625 184.207031 217.777344 184.234375 C 218.511719 184.371094 219.265625 184.511719 220.019531 184.664062 C 220.429688 184.742188 220.84375 184.828125 221.257812 184.914062 C 218.941406 185.949219 216.714844 187.179688 214.601562 188.582031 C 213.417969 189.367188 212.265625 190.210938 211.160156 191.109375 C 210.539062 191.605469 209.929688 192.125 209.34375 192.660156 C 208.75 193.191406 208.179688 193.734375 207.621094 194.296875 C 207.058594 194.855469 206.511719 195.425781 205.984375 196.019531 C 205.078125 197.027344 204.984375 198.578125 205.984375 199.574219 C 206.164062 199.75 206.363281 199.894531 206.589844 200.007812 C 206.8125 200.121094 207.058594 200.203125 207.304688 200.25 C 207.304688 200.25 207.304688 200.25 207.3125 200.25 C 207.949219 200.375 208.636719 200.265625 209.171875 199.894531 C 209.300781 199.800781 209.421875 199.691406 209.535156 199.574219 C 211.953125 196.878906 214.691406 194.535156 217.683594 192.582031 C 218.542969 192.023438 219.414062 191.503906 220.308594 191.007812 C 221.203125 190.515625 222.117188 190.058594 223.042969 189.636719 C 223.972656 189.210938 224.917969 188.824219 225.882812 188.464844 C 227.328125 187.9375 228.800781 187.488281 230.308594 187.117188 C 233.636719 188.050781 237.042969 189.152344 240.449219 190.4375 C 241.578125 190.867188 242.714844 191.316406 243.851562 191.796875 C 244.988281 192.265625 246.125 192.761719 247.253906 193.28125 C 247.632812 193.460938 248.003906 193.632812 248.382812 193.8125 C 247.269531 193.761719 246.144531 193.753906 245.03125 193.785156 C 244.1875 193.8125 243.34375 193.855469 242.5 193.917969 C 242.492188 193.917969 242.492188 193.917969 242.488281 193.917969 C 240.378906 194.089844 238.285156 194.398438 236.238281 194.839844 C 235.195312 195.070312 234.152344 195.335938 233.117188 195.628906 C 233.117188 195.628906 233.109375 195.632812 233.101562 195.632812 C 232.757812 195.734375 232.414062 195.839844 232.070312 195.949219 C 231.730469 196.0625 231.386719 196.179688 231.042969 196.292969 C 229.6875 196.765625 228.34375 197.308594 227.035156 197.914062 C 226.707031 198.070312 226.375 198.222656 226.054688 198.386719 C 225.410156 198.707031 224.773438 199.050781 224.144531 199.40625 C 222.902344 200.121094 221.6875 200.910156 220.535156 201.761719 C 219.242188 202.726562 218.019531 203.761719 216.839844 204.839844 C 216.246094 205.382812 215.667969 205.933594 215.089844 206.492188 C 214.519531 207.050781 213.945312 207.613281 213.375 208.179688 C 211.101562 210.4375 208.84375 212.71875 206.335938 214.726562 C 205.464844 215.425781 204.535156 216.070312 203.574219 216.648438 C 203.253906 216.847656 202.929688 217.035156 202.601562 217.214844 C 202.539062 217.25 202.46875 217.285156 202.394531 217.320312 C 201.867188 217.605469 201.296875 217.898438 200.703125 218.113281 C 200.585938 218.164062 200.464844 218.199219 200.34375 218.242188 C 199.765625 218.421875 199.171875 218.523438 198.585938 218.472656 C 198.535156 218.472656 198.484375 218.472656 198.4375 218.464844 C 198.34375 218.449219 198.242188 218.429688 198.148438 218.40625 C 198.050781 218.386719 197.949219 218.355469 197.855469 218.328125 C 197.84375 218.320312 197.824219 218.3125 197.800781 218.308594 C 197.757812 218.292969 197.714844 218.277344 197.664062 218.25 C 197.636719 218.242188 197.613281 218.234375 197.585938 218.222656 C 197.550781 218.207031 197.507812 218.183594 197.480469 218.171875 C 197.441406 218.15625 197.421875 218.148438 197.421875 218.148438 C 197.269531 218.0625 197.121094 217.976562 196.96875 217.890625 C 196.949219 217.878906 196.925781 217.871094 196.914062 217.855469 C 196.898438 217.847656 196.882812 217.84375 196.871094 217.835938 C 196.851562 217.828125 196.835938 217.816406 196.820312 217.808594 L 196.8125 217.808594 C 196.796875 217.792969 196.785156 217.765625 196.742188 217.714844 L 196.691406 217.664062 C 196.535156 217.492188 196.367188 217.320312 196.207031 217.15625 C 196.183594 217.132812 196.167969 217.121094 196.164062 217.113281 C 196.148438 217.101562 196.140625 217.089844 196.136719 217.085938 C 196.113281 217.058594 196.085938 217.003906 196.035156 216.929688 C 195.734375 216.476562 195.457031 216.019531 195.214844 215.53125 C 195.113281 215.339844 195.011719 215.132812 194.917969 214.933594 C 194.917969 214.933594 194.917969 214.933594 194.917969 214.925781 C 194.90625 214.898438 194.871094 214.835938 194.84375 214.753906 C 194.8125 214.695312 194.789062 214.640625 194.761719 214.582031 C 194.726562 214.496094 194.691406 214.421875 194.675781 214.382812 C 194.660156 214.355469 194.648438 214.3125 194.628906 214.261719 C 194.5625 214.109375 194.476562 213.894531 194.445312 213.824219 C 194.332031 213.535156 194.21875 213.234375 194.113281 212.9375 L 194.113281 212.933594 C 193.675781 211.773438 193.246094 210.628906 192.769531 209.488281 C 192.652344 209.214844 192.53125 208.945312 192.410156 208.664062 C 191.539062 206.765625 190.4375 204.941406 188.785156 203.613281 C 188.222656 203.160156 187.628906 202.785156 187.019531 202.46875 C 186.785156 202.355469 186.550781 202.238281 186.304688 202.140625 C 186.019531 202.023438 185.730469 201.917969 185.433594 201.824219 C 183.433594 201.195312 181.289062 201.167969 179.109375 201.5 C 177.953125 201.683594 176.800781 201.996094 175.664062 202.375 C 175.292969 202.503906 174.921875 202.640625 174.550781 202.769531 C 173.804688 203.046875 173.078125 203.347656 172.355469 203.640625 C 171.648438 203.933594 170.953125 204.21875 170.28125 204.484375 L 170.273438 204.492188 C 168.515625 205.191406 166.777344 205.769531 165.007812 206.019531 C 164.121094 206.148438 163.226562 206.191406 162.320312 206.121094 C 162.132812 206.105469 161.910156 206.070312 161.675781 206.011719 C 161.441406 205.957031 161.191406 205.882812 160.941406 205.796875 C 160.4375 205.625 159.960938 205.398438 159.660156 205.164062 C 159.546875 205.070312 159.4375 204.976562 159.332031 204.867188 C 159.226562 204.777344 159.125 204.667969 159.03125 204.5625 C 159.023438 204.554688 159.03125 204.554688 159.03125 204.554688 C 158.839844 204.339844 158.675781 204.109375 158.53125 203.875 C 158.230469 203.402344 158.015625 202.898438 157.84375 202.375 C 157.503906 201.316406 157.28125 200.238281 157.085938 199.160156 C 156.75 197.34375 156.464844 195.527344 155.757812 193.8125 C 155.558594 193.324219 155.335938 192.859375 155.09375 192.417969 C 154.027344 190.496094 152.535156 188.914062 150.691406 187.640625 C 146.53125 184.785156 141.269531 183.976562 136.515625 182.605469 C 136.046875 182.46875 135.59375 182.332031 135.160156 182.195312 C 135.015625 182.152344 134.871094 182.109375 134.730469 182.0625 C 134.449219 181.976562 134.179688 181.882812 133.90625 181.78125 C 133.90625 181.78125 133.90625 181.78125 133.898438 181.78125 C 133.230469 181.546875 132.585938 181.289062 131.933594 180.980469 C 131.292969 180.683594 130.640625 180.332031 129.960938 179.910156 C 129.398438 179.558594 128.867188 179.160156 128.398438 178.6875 C 128.152344 178.464844 127.933594 178.214844 127.730469 177.949219 C 127.523438 177.6875 127.339844 177.40625 127.179688 177.117188 C 126.6875 176.207031 126.636719 175.363281 127.023438 174.496094 C 127.082031 174.378906 127.144531 174.25 127.226562 174.121094 C 127.496094 173.667969 127.824219 173.246094 128.195312 172.855469 C 128.316406 172.726562 128.453125 172.589844 128.589844 172.460938 C 128.859375 172.210938 129.148438 171.96875 129.449219 171.742188 C 130.949219 170.582031 132.785156 169.695312 134.316406 168.964844 C 134.671875 168.800781 135.03125 168.636719 135.394531 168.488281 C 136.125 168.179688 136.867188 167.902344 137.617188 167.652344 C 137.988281 167.523438 138.375 167.402344 138.753906 167.285156 C 140.277344 166.828125 141.828125 166.472656 143.378906 166.183594 C 144.949219 165.898438 146.546875 165.699219 148.136719 165.570312 C 149.734375 165.441406 151.332031 165.378906 152.933594 165.363281 C 153.769531 165.355469 154.613281 165.371094 155.457031 165.386719 C 156.953125 165.40625 158.460938 165.429688 159.953125 165.328125 C 160.246094 165.3125 160.53125 165.292969 160.824219 165.257812 C 161.660156 165.164062 162.484375 165.035156 163.304688 164.835938 C 163.304688 164.835938 163.3125 164.84375 163.3125 164.835938 C 163.585938 164.761719 163.855469 164.691406 164.128906 164.605469 C 164.707031 164.429688 165.285156 164.207031 165.835938 163.949219 C 168.246094 162.828125 170.324219 160.96875 171.363281 158.488281 C 171.4375 158.296875 171.511719 158.109375 171.570312 157.914062 C 171.632812 157.730469 171.691406 157.542969 171.734375 157.359375 C 171.78125 157.15625 171.824219 156.949219 171.859375 156.75 C 171.875 156.644531 171.890625 156.527344 171.910156 156.421875 C 171.941406 156.203125 171.960938 155.988281 171.976562 155.761719 C 172.03125 154.914062 171.988281 154.054688 171.90625 153.179688 C 171.804688 152.0625 171.71875 151.0625 172.039062 150.140625 C 172.105469 149.941406 172.191406 149.753906 172.296875 149.558594 C 172.355469 149.457031 172.410156 149.367188 172.476562 149.273438 C 172.65625 149.015625 172.863281 148.773438 173.082031 148.546875 C 173.417969 148.203125 173.796875 147.902344 174.214844 147.621094 C 175.183594 146.980469 176.328125 146.507812 177.441406 146.214844 C 177.730469 146.136719 178.023438 146.074219 178.300781 146.015625 L 178.453125 145.992188 C 178.738281 145.9375 179.015625 145.902344 179.28125 145.871094 C 181.648438 145.644531 183.890625 145.988281 186.113281 146.671875 C 186.699219 146.859375 187.277344 147.058594 187.867188 147.289062 L 187.871094 147.289062 C 188.601562 147.566406 189.308594 147.878906 189.996094 148.222656 L 190 148.222656 C 191.039062 148.730469 192.035156 149.300781 192.996094 149.929688 C 193.003906 149.941406 193.003906 149.929688 193.003906 149.929688 C 193.648438 150.347656 194.277344 150.785156 194.890625 151.238281 C 195.207031 151.46875 195.511719 151.695312 195.8125 151.933594 C 196.726562 152.640625 197.613281 153.378906 198.480469 154.140625 C 199.929688 155.40625 201.339844 156.738281 202.730469 158.050781 C 203.304688 158.597656 203.867188 159.128906 204.449219 159.675781 C 205.027344 160.21875 205.605469 160.753906 206.191406 161.289062 C 206.777344 161.824219 207.371094 162.355469 207.976562 162.871094 C 208.878906 163.640625 209.800781 164.398438 210.742188 165.121094 C 211.058594 165.363281 211.378906 165.601562 211.703125 165.828125 C 212.660156 166.523438 213.648438 167.171875 214.667969 167.777344 C 215.011719 167.980469 215.355469 168.171875 215.703125 168.359375 C 216.398438 168.730469 217.113281 169.078125 217.839844 169.394531 C 221.300781 170.910156 224.867188 171.515625 228.597656 171.988281 C 229.390625 172.089844 230.1875 172.1875 230.972656 172.3125 C 232.746094 172.574219 234.503906 172.917969 236.210938 173.457031 C 236.777344 173.632812 237.347656 173.835938 237.90625 174.054688 C 238.226562 174.183594 238.742188 174.421875 239.25 174.667969 L 239.253906 174.667969 C 239.90625 174.984375 240.542969 175.320312 241.164062 175.679688 C 242.09375 176.207031 242.992188 176.777344 243.875 177.390625 C 244.167969 177.601562 244.460938 177.808594 244.746094 178.015625 C 245.015625 178.214844 245.296875 178.421875 245.570312 178.628906 C 246.925781 179.679688 248.269531 180.867188 249.554688 182.109375 C 249.554688 182.117188 249.554688 182.117188 249.5625 182.109375 C 250.078125 182.605469 250.578125 183.109375 251.070312 183.609375 C 251.75 184.3125 252.421875 185.027344 253.070312 185.75 C 255.039062 187.929688 256.867188 190.210938 258.613281 192.5625 Z M 270.535156 200.878906 C 270.328125 200.707031 270.121094 200.546875 269.921875 200.378906 C 263.808594 190.511719 256.832031 180.6875 247.410156 173.761719 C 244.996094 171.988281 242.40625 170.515625 239.636719 169.375 C 236.53125 168.085938 233.292969 167.550781 229.976562 167.136719 C 226.566406 166.699219 223.082031 166.285156 219.9375 164.863281 C 217.175781 163.613281 214.640625 161.882812 212.316406 159.953125 C 207.242188 155.757812 202.867188 150.753906 197.492188 146.917969 C 192.246094 143.171875 185.5625 140.148438 178.964844 140.882812 C 175.554688 141.261719 172.140625 142.5 169.636719 144.921875 C 168.421875 146.09375 167.421875 147.628906 167.023438 149.289062 C 166.578125 151.15625 166.964844 152.941406 167.007812 154.820312 C 167.074219 157.484375 164.886719 159.195312 162.417969 159.875 C 158.980469 160.820312 155.242188 160.265625 151.71875 160.359375 C 144.714844 160.539062 137.644531 161.734375 131.320312 164.855469 C 128.324219 166.328125 125.171875 168.28125 123.230469 171.054688 C 120.992188 174.25 121.535156 178.152344 123.859375 181.113281 C 127.417969 185.65625 133.65625 187.070312 138.960938 188.464844 C 140.199219 188.785156 141.441406 189.125 142.664062 189.5 C 143.242188 189.679688 143.8125 189.867188 144.378906 190.074219 C 144.652344 190.171875 144.929688 190.273438 145.203125 190.386719 C 145.207031 190.386719 145.28125 190.417969 145.34375 190.445312 C 145.445312 190.488281 145.707031 190.609375 145.742188 190.625 C 146.257812 190.859375 146.757812 191.117188 147.253906 191.402344 C 147.488281 191.546875 147.730469 191.691406 147.960938 191.847656 C 148.089844 191.933594 148.21875 192.023438 148.347656 192.109375 C 148.375 192.132812 148.546875 192.265625 148.601562 192.304688 C 149.246094 192.832031 150.070312 193.753906 150.449219 194.371094 C 151.882812 196.679688 152.011719 199.691406 152.648438 202.410156 C 153.386719 205.519531 155.035156 208.542969 158.007812 210 C 160.902344 211.429688 164.136719 211.367188 167.238281 210.699219 C 170.28125 210.050781 173.035156 208.621094 175.941406 207.5625 C 178.621094 206.59375 181.71875 205.65625 184.320312 206.691406 C 185.183594 207.035156 185.878906 207.605469 186.570312 208.476562 C 186.59375 208.527344 186.878906 208.945312 186.921875 209.007812 C 187.042969 209.203125 187.164062 209.402344 187.277344 209.601562 C 187.585938 210.144531 187.859375 210.710938 188.113281 211.28125 C 188.121094 211.289062 188.152344 211.351562 188.171875 211.414062 C 188.207031 211.5 188.273438 211.644531 188.28125 211.683594 C 188.386719 211.9375 188.484375 212.203125 188.59375 212.46875 C 188.808594 213.023438 189.015625 213.589844 189.230469 214.152344 C 189.671875 215.339844 190.128906 216.527344 190.679688 217.671875 C 191.71875 219.839844 193.277344 221.824219 195.535156 222.789062 C 198.957031 224.261719 202.511719 223.066406 205.578125 221.300781 C 208.492188 219.625 211.082031 217.390625 213.503906 215.070312 C 218.035156 210.722656 222.007812 206.226562 227.527344 203.289062 C 237.445312 197.992188 249.957031 197.242188 260.484375 201.410156 C 261.492188 201.808594 262.558594 202.324219 263.621094 202.910156 C 264.691406 203.703125 265.753906 204.535156 266.796875 205.398438 C 273.394531 210.859375 275.46875 218.738281 272.488281 227.019531 C 269.234375 236.0625 259.46875 245.210938 247.109375 245.210938 L 129.882812 245.191406 C 119.183594 245.191406 109.082031 240.5 102.179688 232.324219 C 95.273438 224.144531 92.335938 213.410156 94.117188 202.898438 L 111.34375 108.796875 C 113.859375 93.921875 125.101562 82.523438 139.316406 79.433594 L 139.316406 101.734375 C 137.28125 102.808594 135.886719 104.960938 135.910156 107.4375 C 135.9375 110.816406 138.726562 113.660156 142.105469 113.753906 C 145.710938 113.851562 148.667969 110.964844 148.667969 107.382812 C 148.667969 104.929688 147.28125 102.800781 145.25 101.734375 L 145.25 78.648438 C 145.863281 78.617188 146.472656 78.597656 147.09375 78.597656 L 214.78125 78.597656 L 214.78125 101.734375 C 212.597656 102.882812 211.15625 105.261719 211.390625 107.945312 C 211.648438 110.933594 214.054688 113.394531 217.035156 113.71875 C 220.878906 114.136719 224.125 111.140625 224.125 107.382812 C 224.125 104.929688 222.746094 102.800781 220.714844 101.734375 L 220.714844 78.625 C 237.875 79.242188 252.242188 91.742188 255.144531 108.839844 L 265.941406 167.84375 C 266.238281 169.457031 267.78125 170.523438 269.390625 170.226562 C 271.003906 169.933594 272.074219 168.386719 271.777344 166.773438 L 260.984375 107.808594 C 257.609375 87.882812 240.785156 73.316406 220.714844 72.691406 L 220.714844 70.789062 C 220.714844 48.457031 202.988281 29.824219 180.660156 29.476562 C 157.929688 29.121094 139.316406 47.511719 139.316406 70.167969 L 139.316406 73.378906 C 122.179688 76.550781 108.496094 90.054688 105.496094 107.765625 L 88.277344 201.867188 C 86.199219 214.148438 89.613281 226.640625 97.648438 236.152344 C 105.683594 245.667969 117.433594 251.121094 129.882812 251.121094 L 247.109375 251.070312 C 260.621094 251.070312 273.320312 242 278.003906 229 C 281.8125 218.421875 279.019531 207.90625 270.535156 200.878906 " fill-opacity="1" fill-rule="nonzero"/></g><g fill="rgb(100%, 100%, 100%)" fill-opacity="1"><g transform="translate(69.051768, 326.058934)"><g><path d="M 41.277344 -15.03125 C 41.277344 -18.847656 40.320312 -22.109375 38.492188 -24.65625 C 36.582031 -27.199219 34.039062 -28.949219 30.9375 -29.824219 C 32.765625 -30.617188 34.355469 -32.050781 35.550781 -34.199219 C 36.105469 -35.152344 36.503906 -36.105469 36.824219 -37.140625 C 37.140625 -38.175781 37.300781 -39.605469 37.300781 -41.433594 C 37.300781 -43.183594 36.824219 -45.015625 36.027344 -46.761719 C 33.640625 -51.613281 28.472656 -54.082031 20.597656 -54.082031 L 5.964844 -54.082031 L 5.964844 0 L 22.507812 0 C 27.996094 0 32.367188 -1.191406 35.707031 -3.738281 C 37.378906 -5.011719 38.730469 -6.679688 39.765625 -8.75 C 40.71875 -10.738281 41.277344 -12.804688 41.277344 -15.03125 Z M 31.734375 -40.558594 C 31.734375 -37.617188 30.859375 -35.46875 29.109375 -34.039062 C 27.359375 -32.605469 25.050781 -31.890625 22.1875 -31.890625 L 11.53125 -31.890625 L 11.53125 -48.75 L 20.597656 -48.75 C 27.996094 -48.75 31.734375 -45.96875 31.734375 -40.558594 Z M 35.707031 -16.144531 C 35.707031 -12.882812 34.59375 -10.257812 32.367188 -8.269531 C 30.222656 -6.28125 27.4375 -5.328125 24.097656 -5.328125 L 11.53125 -5.328125 L 11.53125 -26.324219 L 24.972656 -26.324219 C 27.757812 -26.324219 30.222656 -25.371094 32.367188 -23.460938 C 33.324219 -22.585938 34.117188 -21.550781 34.753906 -20.359375 C 35.390625 -19.085938 35.707031 -17.734375 35.707031 -16.144531 Z M 35.707031 -16.144531 "/></g></g></g><g fill="rgb(100%, 100%, 100%)" fill-opacity="1"><g transform="translate(114.857698, 326.058934)"><g><path d="M 33.800781 -17.496094 C 33.800781 -14.078125 32.605469 -11.054688 30.222656 -8.589844 C 27.835938 -6.042969 24.894531 -4.773438 21.472656 -4.773438 C 17.972656 -4.773438 15.03125 -6.042969 12.644531 -8.589844 C 10.257812 -11.054688 9.144531 -14.078125 9.144531 -17.496094 C 9.144531 -20.835938 10.257812 -23.859375 12.644531 -26.402344 C 15.03125 -28.949219 17.972656 -30.222656 21.472656 -30.222656 C 24.894531 -30.222656 27.835938 -28.949219 30.222656 -26.402344 C 32.605469 -23.859375 33.800781 -20.835938 33.800781 -17.496094 Z M 39.367188 0 L 39.367188 -34.992188 L 33.800781 -34.992188 L 33.800781 -28.949219 C 33.480469 -29.425781 33.085938 -29.824219 32.765625 -30.222656 C 29.425781 -33.878906 25.371094 -35.789062 20.597656 -35.789062 C 15.746094 -35.789062 11.691406 -33.878906 8.351562 -30.222656 C 5.167969 -26.5625 3.578125 -22.347656 3.578125 -17.496094 C 3.578125 -12.566406 5.167969 -8.351562 8.351562 -4.773438 C 11.691406 -1.035156 15.746094 0.796875 20.597656 0.796875 C 25.371094 0.796875 29.425781 -1.035156 32.765625 -4.773438 C 33.085938 -5.089844 33.480469 -5.488281 33.800781 -5.964844 L 33.800781 0 Z M 39.367188 0 "/></g></g></g><g fill="rgb(100%, 100%, 100%)" fill-opacity="1"><g transform="translate(163.128856, 326.058934)"><g><path d="M 34.277344 -17.496094 C 34.277344 -14.078125 33.085938 -11.054688 30.699219 -8.589844 C 28.3125 -6.042969 25.371094 -4.773438 21.949219 -4.773438 C 18.53125 -4.773438 15.585938 -6.042969 13.203125 -8.589844 C 10.816406 -11.054688 9.625 -13.996094 9.625 -17.496094 C 9.625 -20.917969 10.816406 -23.859375 13.203125 -26.402344 C 15.585938 -28.949219 18.53125 -30.222656 21.949219 -30.222656 C 25.371094 -30.222656 28.3125 -28.949219 30.699219 -26.402344 C 33.085938 -23.859375 34.277344 -20.835938 34.277344 -17.496094 Z M 9.464844 4.773438 L 3.738281 4.773438 C 4.375 8.507812 6.042969 11.769531 8.90625 14.554688 C 12.40625 18.132812 16.703125 19.882812 21.710938 19.882812 C 26.640625 19.882812 30.9375 18.132812 34.515625 14.554688 C 38.015625 11.054688 39.84375 6.761719 39.84375 1.75 L 39.84375 -34.992188 L 34.277344 -34.992188 L 34.277344 -29.109375 C 33.960938 -29.425781 33.640625 -29.824219 33.324219 -30.222656 C 29.824219 -33.878906 25.769531 -35.789062 21.15625 -35.789062 C 16.222656 -35.789062 12.167969 -33.878906 8.828125 -30.222656 C 5.648438 -26.5625 4.054688 -22.347656 4.054688 -17.496094 C 4.054688 -12.566406 5.648438 -8.351562 8.828125 -4.773438 C 12.167969 -1.035156 16.222656 0.796875 21.15625 0.796875 C 25.925781 0.796875 29.984375 -1.035156 33.324219 -4.773438 C 33.640625 -5.089844 33.960938 -5.488281 34.277344 -5.804688 L 34.277344 1.75 C 34.277344 5.25 33.003906 8.191406 30.539062 10.65625 C 28.074219 13.121094 25.132812 14.316406 21.710938 14.316406 C 18.210938 14.316406 15.269531 13.121094 12.804688 10.65625 C 11.054688 8.90625 9.941406 7 9.464844 4.773438 Z M 9.464844 4.773438 "/></g></g></g><g fill="rgb(100%, 100%, 100%)" fill-opacity="1"><g transform="translate(211.87716, 326.058934)"><g/></g></g><g fill="rgb(100%, 100%, 100%)" fill-opacity="1"><g transform="translate(236.291297, 326.058934)"><g><path d="M 11.53125 0 L 11.53125 -54.082031 L 5.964844 -54.082031 L 5.964844 0 Z M 11.53125 0 "/></g></g></g><g fill="rgb(100%, 100%, 100%)" fill-opacity="1"><g transform="translate(256.729276, 326.058934)"><g><path d="M 1.589844 -29.824219 L 10.339844 -29.824219 L 10.339844 0 L 15.90625 0 L 15.90625 -29.824219 L 24.574219 -29.824219 L 24.574219 -34.992188 L 15.90625 -34.992188 L 15.90625 -48.59375 L 10.339844 -48.59375 L 10.339844 -34.992188 L 1.589844 -34.992188 Z M 1.589844 -29.824219 "/></g></g></g></svg>