<svg width="1440" height="1024" viewBox="0 0 1440 1024" fill="none" xmlns="http://www.w3.org/2000/svg">
<rect width="1440" height="1024" fill="white"/>
<path d="M714.465 660.091H716.588V671.71C716.588 672.439 716.456 673.055 716.191 673.557C715.93 674.059 715.542 674.44 715.026 674.7C714.514 674.961 713.882 675.091 713.129 675.091C713.054 675.091 712.983 675.091 712.916 675.091C712.845 675.091 712.772 675.089 712.696 675.084V673.259C712.762 673.259 712.822 673.259 712.874 673.259C712.921 673.259 712.976 673.259 713.037 673.259C713.539 673.259 713.901 673.124 714.124 672.854C714.351 672.589 714.465 672.203 714.465 671.696V660.091ZM715.516 658.408C715.146 658.408 714.829 658.285 714.564 658.038C714.304 657.787 714.173 657.489 714.173 657.143C714.173 656.793 714.304 656.495 714.564 656.249C714.829 655.998 715.146 655.872 715.516 655.872C715.885 655.872 716.2 655.998 716.46 656.249C716.726 656.495 716.858 656.793 716.858 657.143C716.858 657.489 716.726 657.787 716.46 658.038C716.2 658.285 715.885 658.408 715.516 658.408ZM721.81 671L718.6 660.091H720.795L722.932 668.102H723.039L725.184 660.091H727.378L729.509 668.067H729.616L731.739 660.091H733.934L730.731 671H728.564L726.349 663.124H726.185L723.969 671H721.81ZM741.041 660.091V661.795H735.083V660.091H741.041ZM736.681 657.477H738.804V667.797C738.804 668.209 738.866 668.519 738.989 668.727C739.112 668.931 739.271 669.071 739.465 669.146C739.664 669.217 739.879 669.253 740.111 669.253C740.281 669.253 740.431 669.241 740.558 669.217C740.686 669.194 740.786 669.175 740.857 669.161L741.24 670.915C741.117 670.962 740.942 671.009 740.715 671.057C740.487 671.109 740.203 671.137 739.862 671.142C739.304 671.152 738.783 671.052 738.3 670.844C737.817 670.635 737.426 670.313 737.128 669.878C736.83 669.442 736.681 668.895 736.681 668.237V657.477Z" fill="#525252"/>
<path d="M340 235H240V335H340V235Z" fill="#3B48CC"/>
<path d="M307 288.973L298.187 297.773C299.772 297.331 301.302 296.709 302.747 295.92C303.169 296.182 303.529 296.532 303.803 296.946C304.077 297.36 304.258 297.829 304.333 298.32C304.333 300.76 299.16 303.413 291.48 304.493C289.111 304.814 286.724 304.983 284.333 305H283C272.227 304.747 264.333 301.347 264.333 298.333C264.409 297.842 264.59 297.374 264.864 296.959C265.137 296.545 265.498 296.195 265.92 295.933C270.107 298.267 276.893 299.653 284.333 299.653H284.48L285.227 296.987C284.933 296.987 284.64 296.987 284.333 296.987C277 296.987 270.2 295.533 266.587 293.24C265.147 292.293 264.347 291.267 264.333 290.373V284.2C268.413 287.32 276.547 288.947 284.333 288.947C285.387 288.947 286.44 288.947 287.467 288.853L288.227 286.187C286.893 286.28 285.653 286.32 284.333 286.32C272.893 286.32 264.333 282.813 264.333 279.653C264.409 279.162 264.59 278.694 264.864 278.279C265.137 277.865 265.498 277.515 265.92 277.253C269.6 279.32 275.253 280.613 281.667 280.907L281.733 278.24C275.427 277.933 269.733 276.573 266.587 274.56C265.16 273.64 264.36 272.6 264.333 271.693V265.533C268.413 268.653 276.547 270.28 284.333 270.28H284.627L286.04 267.613H284.333C272.893 267.613 264.333 264.107 264.333 260.947C264.333 257.787 272.893 254.28 284.333 254.28C288.186 254.264 292.027 254.711 295.773 255.613H303.093C299.093 253.173 292.187 251.613 284.333 251.613C273.347 251.613 261.667 254.867 261.667 260.947V271.68C261.707 272.44 261.907 273.184 262.254 273.861C262.601 274.539 263.087 275.136 263.68 275.613C263.079 276.098 262.589 276.706 262.241 277.396C261.894 278.086 261.698 278.842 261.667 279.613V290.28C261.697 291.052 261.893 291.808 262.24 292.498C262.587 293.188 263.078 293.795 263.68 294.28C263.079 294.765 262.589 295.373 262.241 296.063C261.894 296.752 261.698 297.508 261.667 298.28V308.947C261.659 309.04 261.659 309.133 261.667 309.227C262.027 315.08 273.493 318.227 284.333 318.227C295.173 318.227 306.64 315.08 307 309.2C307.013 309.107 307.013 309.013 307 308.92V298.253C306.974 297.48 306.781 296.722 306.433 296.032C306.086 295.341 305.592 294.734 304.987 294.253C305.588 293.769 306.079 293.161 306.426 292.471C306.773 291.781 306.969 291.025 307 290.253V288.973ZM304.333 308.973C304.333 312.12 295.773 315.64 284.333 315.64C272.893 315.64 264.333 312.16 264.333 308.973V302.84C268.413 305.933 276.547 307.56 284.333 307.56C292.12 307.56 300.253 305.933 304.333 302.84V308.973Z" fill="white"/>
<path d="M268.333 273.36C269.254 273.36 270 272.614 270 271.693C270 270.773 269.254 270.026 268.333 270.026C267.413 270.026 266.667 270.773 266.667 271.693C266.667 272.614 267.413 273.36 268.333 273.36Z" fill="white"/>
<path d="M268.333 292.027C269.254 292.027 270 291.28 270 290.36C270 289.44 269.254 288.693 268.333 288.693C267.413 288.693 266.667 289.44 266.667 290.36C266.667 291.28 267.413 292.027 268.333 292.027Z" fill="white"/>
<path d="M268.333 310.694C269.254 310.694 270 309.947 270 309.027C270 308.107 269.254 307.36 268.333 307.36C267.413 307.36 266.667 308.107 266.667 309.027C266.667 309.947 267.413 310.694 268.333 310.694Z" fill="white"/>
<path d="M287.667 303.64C287.432 303.637 287.202 303.573 287 303.453C286.74 303.303 286.539 303.071 286.427 302.793C286.316 302.514 286.302 302.207 286.387 301.92L293.88 276.973H286.333C286.1 276.976 285.871 276.918 285.667 276.804C285.464 276.691 285.294 276.526 285.174 276.327C285.054 276.127 284.988 275.9 284.983 275.667C284.978 275.434 285.035 275.204 285.147 275L293.147 259C293.257 258.78 293.427 258.595 293.636 258.465C293.846 258.336 294.087 258.267 294.333 258.266H311.667C311.883 258.256 312.098 258.298 312.294 258.389C312.49 258.48 312.661 258.617 312.793 258.789C312.924 258.961 313.011 259.162 313.047 259.375C313.084 259.589 313.067 259.807 313 260.013L309.587 270.266H317.067C317.327 270.267 317.582 270.345 317.799 270.489C318.016 270.633 318.186 270.837 318.288 271.077C318.39 271.317 318.42 271.581 318.373 271.838C318.327 272.094 318.206 272.331 318.027 272.52L288.693 303.186C288.565 303.332 288.407 303.448 288.23 303.526C288.053 303.605 287.86 303.643 287.667 303.64V303.64ZM288.493 274.306H295.667C295.874 274.306 296.078 274.354 296.263 274.447C296.448 274.54 296.609 274.674 296.733 274.84C296.857 275.005 296.941 275.197 296.978 275.401C297.015 275.605 297.005 275.814 296.947 276.013L290.533 297.346L313.88 272.946H307.667C307.449 272.958 307.232 272.916 307.034 272.824C306.837 272.732 306.665 272.594 306.533 272.42C306.402 272.246 306.315 272.043 306.28 271.828C306.245 271.613 306.263 271.393 306.333 271.186L309.747 260.946H295.08L288.493 274.306Z" fill="white"/>
<path d="M340 651H240V751H340V651Z" fill="url(#paint0_linear_8_41)"/>
<path d="M304.68 733C304.398 733.001 304.122 732.913 303.893 732.747C303.721 732.624 303.581 732.462 303.483 732.274C303.386 732.087 303.334 731.878 303.333 731.667V670.334C303.334 670.106 303.394 669.882 303.506 669.683C303.618 669.485 303.779 669.319 303.973 669.2C304.17 669.073 304.397 669 304.631 668.988C304.865 668.976 305.098 669.026 305.307 669.134L322.64 677.6C322.863 677.709 323.05 677.878 323.182 678.087C323.314 678.297 323.385 678.539 323.387 678.787V725.907C323.401 726.199 323.319 726.488 323.153 726.729C322.986 726.97 322.745 727.15 322.467 727.24L305.133 733C304.983 733.022 304.83 733.022 304.68 733ZM306.013 672.48V729.814L320.68 724.947V679.614L306.013 672.48Z" fill="white"/>
<path d="M275.334 733C275.192 733.019 275.048 733.019 274.907 733L257.574 727.24C257.298 727.147 257.06 726.967 256.896 726.726C256.732 726.485 256.652 726.198 256.667 725.907V678.787C256.669 678.539 256.74 678.297 256.872 678.087C257.003 677.878 257.191 677.709 257.414 677.6L274.747 669.134C274.955 669.026 275.188 668.976 275.422 668.988C275.657 669 275.883 669.073 276.08 669.2C276.272 669.32 276.431 669.487 276.54 669.686C276.65 669.884 276.707 670.107 276.707 670.334V731.667C276.706 731.878 276.655 732.087 276.557 732.274C276.46 732.462 276.319 732.624 276.147 732.747C275.914 732.924 275.626 733.013 275.334 733V733ZM259.334 725L274 729.867V672.534L259.334 679.694V725Z" fill="white"/>
<path d="M303.333 687.667H299.333V685H303.333V687.667ZM295.333 687.667H291.333V685H295.333V687.667ZM287.333 687.667H283.333V685H287.333V687.667ZM279.333 687.667H275.333V685H279.333V687.667Z" fill="white"/>
<path d="M303.333 717.001H299.333V714.334H303.333V717.001ZM295.333 717.001H291.333V714.334H295.333V717.001ZM287.333 717.001H283.333V714.334H287.333V717.001ZM279.333 717.001H275.333V714.334H279.333V717.001Z" fill="white"/>
<path d="M284.147 705.587L279.133 701.307C278.987 701.181 278.869 701.026 278.789 700.851C278.708 700.676 278.667 700.486 278.667 700.293C278.667 700.101 278.708 699.91 278.789 699.735C278.869 699.561 278.987 699.405 279.133 699.28L284.133 695L285.867 697.027L282.053 700.333L285.867 703.6L284.147 705.587Z" fill="white"/>
<path d="M295.867 705.587L294.133 703.56L297.947 700.333L294.12 697.08L295.853 695L300.867 699.267C301.013 699.392 301.131 699.547 301.211 699.722C301.292 699.897 301.334 700.087 301.334 700.28C301.334 700.473 301.292 700.663 301.211 700.838C301.131 701.013 301.013 701.168 300.867 701.293L295.867 705.587Z" fill="white"/>
<path d="M291.378 692.723L286.079 708.398L288.605 709.253L293.904 693.578L291.378 692.723Z" fill="white"/>
<path d="M514.787 514.709L520.397 501.063H532.667C537.169 501.063 541.138 497.852 541.806 493.401C542.001 492.112 541.916 490.797 541.556 489.545C541.197 488.293 540.572 487.133 539.724 486.144C538.876 485.155 537.824 484.361 536.641 483.815C535.458 483.269 534.172 482.985 532.869 482.982H492.185L514.787 460.379V469.224H532.802C543.563 469.224 553.93 477.891 555.474 488.541C555.958 491.686 555.772 494.898 554.929 497.966C554.086 501.034 552.604 503.889 550.581 506.345C548.558 508.801 546.039 510.802 543.189 512.217C540.339 513.633 537.222 514.43 534.043 514.557L552.54 533.055C562.353 526.233 569.398 516.121 572.399 504.553C575.399 492.984 574.156 480.723 568.896 469.992C563.635 459.26 554.704 450.768 543.722 446.054C532.74 441.34 520.432 440.715 509.029 444.294C497.625 447.873 487.881 455.418 481.562 465.562C475.242 475.706 472.765 487.778 474.58 499.591C476.394 511.404 482.38 522.176 491.453 529.956C500.525 537.736 512.084 542.009 524.036 542C529.348 542.007 534.624 541.136 539.652 539.423L514.787 514.709Z" fill="#59B4D9"/>
<path d="M269.061 347.939C268.475 347.354 267.525 347.354 266.939 347.939L257.393 357.485C256.808 358.071 256.808 359.021 257.393 359.607C257.979 360.192 258.929 360.192 259.515 359.607L268 351.121L276.485 359.607C277.071 360.192 278.021 360.192 278.607 359.607C279.192 359.021 279.192 358.071 278.607 357.485L269.061 347.939ZM269.5 637L269.5 349L266.5 349L266.5 637L269.5 637Z" fill="#525252"/>
<path d="M299.939 639.061C300.525 639.646 301.475 639.646 302.061 639.061L311.607 629.515C312.192 628.929 312.192 627.979 311.607 627.393C311.021 626.808 310.071 626.808 309.485 627.393L301 635.879L292.515 627.393C291.929 626.808 290.979 626.808 290.393 627.393C289.808 627.979 289.808 628.929 290.393 629.515L299.939 639.061ZM299.5 350L299.5 638L302.5 638L302.5 350L299.5 350Z" fill="#525252"/>
<path d="M348 331.5C347.172 331.5 346.5 332.172 346.5 333V346.5C346.5 347.328 347.172 348 348 348C348.828 348 349.5 347.328 349.5 346.5V334.5H361.5C362.328 334.5 363 333.828 363 333C363 332.172 362.328 331.5 361.5 331.5H348ZM473.061 455.939L349.061 331.939L346.939 334.061L470.939 458.061L473.061 455.939Z" fill="#525252"/>
<path d="M496 440.5C496.828 440.5 497.5 439.828 497.5 439L497.5 425.5C497.5 424.672 496.828 424 496 424C495.172 424 494.5 424.672 494.5 425.5L494.5 437.5L482.5 437.5C481.672 437.5 481 438.172 481 439C481 439.828 481.672 440.5 482.5 440.5L496 440.5ZM362.939 308.061L494.939 440.061L497.061 437.939L365.061 305.939L362.939 308.061Z" fill="#525252"/>
<path d="M203.778 774.455H205.98V784.021C205.98 785.039 205.74 785.941 205.262 786.727C204.784 787.509 204.112 788.124 203.245 788.574C202.379 789.019 201.363 789.241 200.198 789.241C199.038 789.241 198.025 789.019 197.159 788.574C196.292 788.124 195.62 787.509 195.142 786.727C194.663 785.941 194.424 785.039 194.424 784.021V774.455H196.619V783.844C196.619 784.502 196.763 785.087 197.052 785.598C197.346 786.109 197.76 786.512 198.295 786.805C198.83 787.094 199.464 787.239 200.198 787.239C200.937 787.239 201.574 787.094 202.109 786.805C202.649 786.512 203.061 786.109 203.345 785.598C203.633 785.087 203.778 784.502 203.778 783.844V774.455ZM217.175 780.754L215.25 781.095C215.169 780.849 215.041 780.615 214.866 780.392C214.696 780.17 214.464 779.987 214.17 779.845C213.877 779.703 213.51 779.632 213.069 779.632C212.468 779.632 211.966 779.767 211.564 780.037C211.161 780.302 210.96 780.645 210.96 781.067C210.96 781.431 211.095 781.725 211.365 781.947C211.635 782.17 212.07 782.352 212.672 782.494L214.405 782.892C215.408 783.124 216.157 783.482 216.649 783.964C217.141 784.447 217.388 785.075 217.388 785.847C217.388 786.5 217.198 787.082 216.819 787.594C216.445 788.1 215.922 788.498 215.25 788.787C214.582 789.076 213.808 789.22 212.927 789.22C211.706 789.22 210.709 788.96 209.937 788.439C209.166 787.913 208.692 787.168 208.517 786.202L210.569 785.889C210.697 786.424 210.96 786.829 211.358 787.104C211.756 787.374 212.274 787.509 212.913 787.509C213.609 787.509 214.166 787.364 214.582 787.075C214.999 786.782 215.207 786.424 215.207 786.003C215.207 785.662 215.079 785.375 214.824 785.143C214.573 784.911 214.187 784.736 213.666 784.618L211.819 784.213C210.801 783.981 210.049 783.612 209.561 783.105C209.078 782.598 208.836 781.957 208.836 781.18C208.836 780.536 209.016 779.973 209.376 779.49C209.736 779.007 210.233 778.631 210.868 778.361C211.502 778.086 212.229 777.949 213.048 777.949C214.227 777.949 215.155 778.205 215.832 778.716C216.509 779.223 216.957 779.902 217.175 780.754ZM224.424 789.22C223.349 789.22 222.424 788.991 221.647 788.531C220.875 788.067 220.279 787.416 219.857 786.578C219.441 785.735 219.232 784.748 219.232 783.616C219.232 782.499 219.441 781.514 219.857 780.662C220.279 779.81 220.866 779.144 221.619 778.666C222.376 778.188 223.262 777.949 224.275 777.949C224.891 777.949 225.487 778.051 226.065 778.254C226.642 778.458 227.161 778.777 227.62 779.213C228.079 779.649 228.442 780.214 228.707 780.911C228.972 781.602 229.105 782.442 229.105 783.432V784.185H220.433V782.594H227.024C227.024 782.035 226.91 781.54 226.683 781.109C226.455 780.674 226.136 780.33 225.724 780.08C225.317 779.829 224.838 779.703 224.289 779.703C223.693 779.703 223.172 779.85 222.727 780.143C222.286 780.432 221.945 780.811 221.704 781.28C221.467 781.744 221.349 782.248 221.349 782.793V784.036C221.349 784.765 221.477 785.385 221.732 785.896C221.993 786.408 222.355 786.798 222.819 787.068C223.283 787.333 223.825 787.466 224.445 787.466C224.848 787.466 225.215 787.409 225.546 787.295C225.878 787.177 226.164 787.002 226.406 786.77C226.647 786.538 226.832 786.251 226.96 785.911L228.97 786.273C228.809 786.865 228.52 787.383 228.103 787.828C227.691 788.268 227.173 788.612 226.548 788.858C225.927 789.099 225.22 789.22 224.424 789.22ZM231.461 789V778.091H233.513V779.824H233.627C233.826 779.237 234.176 778.775 234.678 778.439C235.185 778.098 235.758 777.928 236.397 777.928C236.529 777.928 236.686 777.932 236.866 777.942C237.05 777.951 237.195 777.963 237.299 777.977V780.009C237.214 779.985 237.062 779.959 236.844 779.93C236.626 779.897 236.409 779.881 236.191 779.881C235.689 779.881 235.242 779.987 234.849 780.2C234.46 780.409 234.153 780.7 233.925 781.074C233.698 781.443 233.584 781.865 233.584 782.338V789H231.461ZM245.829 789H243.499L248.733 774.455H251.269L256.503 789H254.174L250.062 777.097H249.948L245.829 789ZM246.219 783.304H253.776V785.151H246.219V783.304ZM265.344 784.476V778.091H267.475V789H265.387V787.111H265.273C265.022 787.693 264.619 788.179 264.066 788.567C263.516 788.95 262.832 789.142 262.013 789.142C261.312 789.142 260.692 788.988 260.152 788.68C259.617 788.368 259.196 787.906 258.888 787.295C258.585 786.685 258.433 785.929 258.433 785.03V778.091H260.557V784.774C260.557 785.518 260.763 786.109 261.175 786.55C261.587 786.99 262.122 787.21 262.78 787.21C263.178 787.21 263.573 787.111 263.966 786.912C264.364 786.713 264.693 786.412 264.953 786.01C265.218 785.607 265.349 785.096 265.344 784.476ZM275.42 778.091V779.795H269.461V778.091H275.42ZM271.059 775.477H273.183V785.797C273.183 786.209 273.245 786.519 273.368 786.727C273.491 786.931 273.649 787.071 273.844 787.146C274.042 787.217 274.258 787.253 274.49 787.253C274.66 787.253 274.809 787.241 274.937 787.217C275.065 787.194 275.165 787.175 275.236 787.161L275.619 788.915C275.496 788.962 275.321 789.009 275.094 789.057C274.866 789.109 274.582 789.137 274.241 789.142C273.683 789.152 273.162 789.052 272.679 788.844C272.196 788.635 271.805 788.313 271.507 787.878C271.209 787.442 271.059 786.895 271.059 786.237V775.477ZM280.127 782.523V789H278.004V774.455H280.099V779.866H280.234C280.49 779.279 280.88 778.813 281.406 778.467C281.931 778.122 282.618 777.949 283.465 777.949C284.213 777.949 284.867 778.103 285.426 778.411C285.989 778.718 286.425 779.178 286.732 779.788C287.045 780.394 287.201 781.152 287.201 782.061V789H285.078V782.317C285.078 781.517 284.872 780.896 284.46 780.456C284.048 780.011 283.475 779.788 282.741 779.788C282.239 779.788 281.789 779.895 281.392 780.108C280.999 780.321 280.688 780.634 280.461 781.045C280.239 781.453 280.127 781.945 280.127 782.523ZM294.737 789.22C293.662 789.22 292.736 788.991 291.96 788.531C291.188 788.067 290.591 787.416 290.17 786.578C289.753 785.735 289.545 784.748 289.545 783.616C289.545 782.499 289.753 781.514 290.17 780.662C290.591 779.81 291.178 779.144 291.931 778.666C292.689 778.188 293.574 777.949 294.588 777.949C295.203 777.949 295.8 778.051 296.377 778.254C296.955 778.458 297.473 778.777 297.933 779.213C298.392 779.649 298.754 780.214 299.019 780.911C299.285 781.602 299.417 782.442 299.417 783.432V784.185H290.745V782.594H297.336C297.336 782.035 297.222 781.54 296.995 781.109C296.768 780.674 296.448 780.33 296.036 780.08C295.629 779.829 295.151 779.703 294.602 779.703C294.005 779.703 293.484 779.85 293.039 780.143C292.599 780.432 292.258 780.811 292.017 781.28C291.78 781.744 291.661 782.248 291.661 782.793V784.036C291.661 784.765 291.789 785.385 292.045 785.896C292.305 786.408 292.668 786.798 293.132 787.068C293.596 787.333 294.138 787.466 294.758 787.466C295.16 787.466 295.527 787.409 295.859 787.295C296.19 787.177 296.477 787.002 296.718 786.77C296.96 786.538 297.144 786.251 297.272 785.911L299.282 786.273C299.121 786.865 298.832 787.383 298.416 787.828C298.004 788.268 297.485 788.612 296.86 788.858C296.24 789.099 295.532 789.22 294.737 789.22ZM303.897 782.523V789H301.773V778.091H303.812V779.866H303.947C304.198 779.289 304.59 778.825 305.126 778.474C305.665 778.124 306.345 777.949 307.164 777.949C307.907 777.949 308.558 778.105 309.117 778.418C309.676 778.725 310.109 779.185 310.417 779.795C310.724 780.406 310.878 781.161 310.878 782.061V789H308.755V782.317C308.755 781.526 308.549 780.908 308.137 780.463C307.725 780.013 307.159 779.788 306.439 779.788C305.947 779.788 305.509 779.895 305.126 780.108C304.747 780.321 304.446 780.634 304.224 781.045C304.006 781.453 303.897 781.945 303.897 782.523ZM318.819 778.091V779.795H312.86V778.091H318.819ZM314.458 775.477H316.581V785.797C316.581 786.209 316.643 786.519 316.766 786.727C316.889 786.931 317.048 787.071 317.242 787.146C317.441 787.217 317.656 787.253 317.888 787.253C318.059 787.253 318.208 787.241 318.336 787.217C318.464 787.194 318.563 787.175 318.634 787.161L319.018 788.915C318.894 788.962 318.719 789.009 318.492 789.057C318.265 789.109 317.981 789.137 317.64 789.142C317.081 789.152 316.56 789.052 316.077 788.844C315.594 788.635 315.204 788.313 314.905 787.878C314.607 787.442 314.458 786.895 314.458 786.237V775.477ZM321.168 789V778.091H323.291V789H321.168ZM322.24 776.408C321.871 776.408 321.554 776.285 321.289 776.038C321.028 775.787 320.898 775.489 320.898 775.143C320.898 774.793 321.028 774.495 321.289 774.249C321.554 773.998 321.871 773.872 322.24 773.872C322.61 773.872 322.924 773.998 323.185 774.249C323.45 774.495 323.583 774.793 323.583 775.143C323.583 775.489 323.45 775.787 323.185 776.038C322.924 776.285 322.61 776.408 322.24 776.408ZM330.743 789.22C329.688 789.22 328.778 788.981 328.016 788.503C327.259 788.02 326.676 787.355 326.269 786.507C325.862 785.66 325.658 784.689 325.658 783.595C325.658 782.487 325.867 781.509 326.283 780.662C326.7 779.81 327.287 779.144 328.045 778.666C328.802 778.188 329.695 777.949 330.722 777.949C331.551 777.949 332.289 778.103 332.938 778.411C333.587 778.714 334.11 779.14 334.508 779.689C334.91 780.238 335.149 780.88 335.225 781.614H333.158C333.045 781.102 332.784 780.662 332.377 780.293C331.974 779.923 331.435 779.739 330.758 779.739C330.166 779.739 329.647 779.895 329.202 780.207C328.762 780.515 328.419 780.955 328.172 781.528C327.926 782.097 327.803 782.769 327.803 783.545C327.803 784.341 327.924 785.027 328.165 785.605C328.407 786.183 328.748 786.63 329.188 786.947C329.633 787.265 330.156 787.423 330.758 787.423C331.16 787.423 331.525 787.35 331.851 787.203C332.183 787.052 332.46 786.836 332.682 786.557C332.91 786.277 333.068 785.941 333.158 785.548H335.225C335.149 786.254 334.92 786.884 334.536 787.438C334.153 787.991 333.639 788.427 332.995 788.744C332.356 789.062 331.605 789.22 330.743 789.22ZM340.671 789.241C339.979 789.241 339.354 789.114 338.796 788.858C338.237 788.598 337.794 788.221 337.468 787.729C337.146 787.236 336.985 786.633 336.985 785.918C336.985 785.302 337.103 784.795 337.34 784.398C337.576 784 337.896 783.685 338.298 783.453C338.701 783.221 339.151 783.046 339.648 782.928C340.145 782.809 340.652 782.719 341.168 782.658C341.821 782.582 342.352 782.52 342.759 782.473C343.166 782.421 343.462 782.338 343.646 782.224C343.831 782.111 343.923 781.926 343.923 781.67V781.621C343.923 781 343.748 780.52 343.398 780.179C343.052 779.838 342.536 779.668 341.85 779.668C341.135 779.668 340.571 779.826 340.159 780.143C339.752 780.456 339.47 780.804 339.314 781.188L337.318 780.733C337.555 780.07 337.901 779.535 338.355 779.128C338.815 778.716 339.343 778.418 339.939 778.233C340.536 778.044 341.163 777.949 341.821 777.949C342.257 777.949 342.718 778.001 343.206 778.105C343.699 778.205 344.158 778.389 344.584 778.659C345.015 778.929 345.368 779.315 345.642 779.817C345.917 780.314 346.054 780.96 346.054 781.756V789H343.98V787.509H343.895C343.758 787.783 343.552 788.053 343.277 788.318C343.003 788.583 342.65 788.804 342.219 788.979C341.788 789.154 341.272 789.241 340.671 789.241ZM341.132 787.537C341.719 787.537 342.221 787.421 342.638 787.189C343.059 786.957 343.379 786.654 343.597 786.28C343.819 785.901 343.931 785.496 343.931 785.065V783.659C343.855 783.735 343.708 783.806 343.49 783.872C343.277 783.934 343.033 783.988 342.759 784.036C342.484 784.078 342.217 784.118 341.956 784.156C341.696 784.189 341.478 784.218 341.303 784.241C340.891 784.294 340.514 784.381 340.173 784.504C339.837 784.627 339.567 784.805 339.364 785.037C339.165 785.264 339.066 785.567 339.066 785.946C339.066 786.472 339.26 786.869 339.648 787.139C340.036 787.404 340.531 787.537 341.132 787.537ZM353.975 778.091V779.795H348.016V778.091H353.975ZM349.614 775.477H351.738V785.797C351.738 786.209 351.799 786.519 351.922 786.727C352.046 786.931 352.204 787.071 352.398 787.146C352.597 787.217 352.813 787.253 353.045 787.253C353.215 787.253 353.364 787.241 353.492 787.217C353.62 787.194 353.719 787.175 353.79 787.161L354.174 788.915C354.051 788.962 353.876 789.009 353.648 789.057C353.421 789.109 353.137 789.137 352.796 789.142C352.237 789.152 351.716 789.052 351.233 788.844C350.751 788.635 350.36 788.313 350.062 787.878C349.763 787.442 349.614 786.895 349.614 786.237V775.477ZM356.324 789V778.091H358.448V789H356.324ZM357.396 776.408C357.027 776.408 356.71 776.285 356.445 776.038C356.184 775.787 356.054 775.489 356.054 775.143C356.054 774.793 356.184 774.495 356.445 774.249C356.71 773.998 357.027 773.872 357.396 773.872C357.766 773.872 358.081 773.998 358.341 774.249C358.606 774.495 358.739 774.793 358.739 775.143C358.739 775.489 358.606 775.787 358.341 776.038C358.081 776.285 357.766 776.408 357.396 776.408ZM365.9 789.22C364.877 789.22 363.984 788.986 363.222 788.517C362.46 788.048 361.868 787.393 361.447 786.55C361.025 785.707 360.814 784.722 360.814 783.595C360.814 782.464 361.025 781.474 361.447 780.626C361.868 779.779 362.46 779.121 363.222 778.652C363.984 778.183 364.877 777.949 365.9 777.949C366.922 777.949 367.815 778.183 368.577 778.652C369.34 779.121 369.931 779.779 370.353 780.626C370.774 781.474 370.985 782.464 370.985 783.595C370.985 784.722 370.774 785.707 370.353 786.55C369.931 787.393 369.34 788.048 368.577 788.517C367.815 788.986 366.922 789.22 365.9 789.22ZM365.907 787.438C366.57 787.438 367.119 787.262 367.555 786.912C367.99 786.562 368.312 786.095 368.52 785.513C368.733 784.93 368.84 784.289 368.84 783.588C368.84 782.892 368.733 782.253 368.52 781.67C368.312 781.083 367.99 780.612 367.555 780.257C367.119 779.902 366.57 779.724 365.907 779.724C365.239 779.724 364.685 779.902 364.245 780.257C363.809 780.612 363.485 781.083 363.272 781.67C363.064 782.253 362.959 782.892 362.959 783.588C362.959 784.289 363.064 784.93 363.272 785.513C363.485 786.095 363.809 786.562 364.245 786.912C364.685 787.262 365.239 787.438 365.907 787.438ZM375.479 782.523V789H373.355V778.091H375.394V779.866H375.529C375.78 779.289 376.173 778.825 376.708 778.474C377.247 778.124 377.927 777.949 378.746 777.949C379.489 777.949 380.14 778.105 380.699 778.418C381.258 778.725 381.691 779.185 381.999 779.795C382.307 780.406 382.46 781.161 382.46 782.061V789H380.337V782.317C380.337 781.526 380.131 780.908 379.719 780.463C379.307 780.013 378.741 779.788 378.021 779.788C377.529 779.788 377.091 779.895 376.708 780.108C376.329 780.321 376.028 780.634 375.806 781.045C375.588 781.453 375.479 781.945 375.479 782.523ZM277.733 813H275.403L280.638 798.455H283.173L288.408 813H286.078L281.966 801.097H281.852L277.733 813ZM278.124 807.304H285.68V809.151H278.124V807.304ZM290.508 813V798.455H295.693C296.824 798.455 297.762 798.661 298.505 799.072C299.249 799.484 299.805 800.048 300.174 800.763C300.544 801.473 300.728 802.273 300.728 803.163C300.728 804.058 300.541 804.863 300.167 805.578C299.798 806.288 299.239 806.852 298.491 807.268C297.748 807.68 296.813 807.886 295.686 807.886H292.12V806.026H295.487C296.202 806.026 296.782 805.902 297.227 805.656C297.672 805.405 297.999 805.064 298.207 804.634C298.415 804.203 298.52 803.713 298.52 803.163C298.52 802.614 298.415 802.126 298.207 801.7C297.999 801.274 297.67 800.94 297.22 800.699C296.775 800.457 296.188 800.337 295.458 800.337H292.703V813H290.508ZM305.496 798.455V813H303.301V798.455H305.496Z" fill="#525252"/>
<path d="M480.053 565.276C479.977 564.603 479.664 564.082 479.115 563.713C478.566 563.339 477.875 563.152 477.041 563.152C476.445 563.152 475.929 563.247 475.493 563.436C475.057 563.621 474.719 563.876 474.477 564.203C474.241 564.525 474.122 564.892 474.122 565.304C474.122 565.65 474.203 565.948 474.364 566.199C474.53 566.45 474.745 566.661 475.01 566.831C475.28 566.997 475.569 567.136 475.877 567.25C476.184 567.359 476.48 567.449 476.764 567.52L478.185 567.889C478.649 568.003 479.125 568.157 479.612 568.351C480.1 568.545 480.552 568.801 480.969 569.118C481.386 569.435 481.722 569.828 481.977 570.297C482.238 570.766 482.368 571.327 482.368 571.98C482.368 572.804 482.155 573.536 481.729 574.175C481.307 574.814 480.694 575.318 479.889 575.688C479.089 576.057 478.121 576.241 476.985 576.241C475.896 576.241 474.953 576.069 474.158 575.723C473.362 575.377 472.74 574.887 472.29 574.253C471.84 573.614 471.592 572.856 471.544 571.98H473.746C473.789 572.506 473.959 572.944 474.257 573.294C474.56 573.64 474.946 573.898 475.415 574.068C475.888 574.234 476.407 574.317 476.97 574.317C477.591 574.317 478.142 574.22 478.625 574.026C479.113 573.827 479.496 573.552 479.776 573.202C480.055 572.847 480.195 572.432 480.195 571.959C480.195 571.528 480.072 571.175 479.825 570.901C479.584 570.626 479.255 570.399 478.838 570.219C478.426 570.039 477.96 569.88 477.439 569.743L475.72 569.274C474.556 568.957 473.632 568.491 472.95 567.875C472.273 567.259 471.935 566.445 471.935 565.432C471.935 564.594 472.162 563.862 472.617 563.237C473.071 562.612 473.687 562.127 474.463 561.781C475.24 561.431 476.116 561.256 477.091 561.256C478.076 561.256 478.945 561.429 479.698 561.774C480.455 562.12 481.052 562.596 481.487 563.202C481.923 563.803 482.15 564.494 482.169 565.276H480.053ZM484.82 576V565.091H486.944V576H484.82ZM485.893 563.408C485.523 563.408 485.206 563.285 484.941 563.038C484.68 562.787 484.55 562.489 484.55 562.143C484.55 561.793 484.68 561.495 484.941 561.249C485.206 560.998 485.523 560.872 485.893 560.872C486.262 560.872 486.577 560.998 486.837 561.249C487.102 561.495 487.235 561.793 487.235 562.143C487.235 562.489 487.102 562.787 486.837 563.038C486.577 563.285 486.262 563.408 485.893 563.408ZM494.374 580.318C493.508 580.318 492.762 580.205 492.137 579.977C491.517 579.75 491.01 579.449 490.617 579.075C490.224 578.701 489.931 578.292 489.737 577.847L491.562 577.094C491.69 577.302 491.86 577.522 492.073 577.754C492.291 577.991 492.585 578.192 492.954 578.358C493.328 578.524 493.809 578.607 494.396 578.607C495.201 578.607 495.866 578.41 496.392 578.017C496.917 577.629 497.18 577.009 497.18 576.156V574.011H497.045C496.917 574.243 496.732 574.501 496.491 574.786C496.254 575.07 495.927 575.316 495.511 575.524C495.094 575.732 494.552 575.837 493.884 575.837C493.023 575.837 492.246 575.635 491.555 575.233C490.868 574.826 490.324 574.227 489.921 573.436C489.524 572.641 489.325 571.663 489.325 570.503C489.325 569.343 489.521 568.348 489.914 567.52C490.312 566.691 490.856 566.057 491.548 565.616C492.239 565.171 493.023 564.949 493.899 564.949C494.576 564.949 495.123 565.062 495.539 565.29C495.956 565.512 496.28 565.773 496.512 566.071C496.749 566.369 496.931 566.632 497.059 566.859H497.215V565.091H499.296V576.241C499.296 577.179 499.079 577.948 498.643 578.55C498.207 579.151 497.618 579.596 496.874 579.885C496.136 580.174 495.302 580.318 494.374 580.318ZM494.353 574.075C494.964 574.075 495.48 573.933 495.901 573.649C496.328 573.36 496.65 572.948 496.867 572.413C497.09 571.874 497.201 571.227 497.201 570.474C497.201 569.741 497.092 569.094 496.874 568.536C496.657 567.977 496.337 567.541 495.916 567.229C495.494 566.911 494.973 566.753 494.353 566.753C493.714 566.753 493.181 566.919 492.755 567.25C492.329 567.577 492.007 568.022 491.789 568.585C491.576 569.149 491.47 569.778 491.47 570.474C491.47 571.189 491.579 571.817 491.796 572.357C492.014 572.896 492.336 573.318 492.762 573.621C493.193 573.924 493.723 574.075 494.353 574.075ZM504.268 569.523V576H502.144V565.091H504.183V566.866H504.318C504.569 566.289 504.962 565.825 505.497 565.474C506.036 565.124 506.716 564.949 507.535 564.949C508.278 564.949 508.929 565.105 509.488 565.418C510.047 565.725 510.48 566.185 510.788 566.795C511.096 567.406 511.249 568.161 511.249 569.061V576H509.126V569.317C509.126 568.526 508.92 567.908 508.508 567.463C508.096 567.013 507.53 566.788 506.811 566.788C506.318 566.788 505.88 566.895 505.497 567.108C505.118 567.321 504.817 567.634 504.595 568.045C504.377 568.453 504.268 568.945 504.268 569.523ZM517.272 576.241C516.581 576.241 515.956 576.114 515.397 575.858C514.838 575.598 514.396 575.221 514.069 574.729C513.747 574.236 513.586 573.633 513.586 572.918C513.586 572.302 513.704 571.795 513.941 571.398C514.178 571 514.498 570.685 514.9 570.453C515.302 570.221 515.752 570.046 516.249 569.928C516.747 569.809 517.253 569.719 517.769 569.658C518.423 569.582 518.953 569.52 519.36 569.473C519.767 569.421 520.063 569.338 520.248 569.224C520.433 569.111 520.525 568.926 520.525 568.67V568.621C520.525 568 520.35 567.52 519.999 567.179C519.654 566.838 519.138 566.668 518.451 566.668C517.736 566.668 517.173 566.826 516.761 567.143C516.354 567.456 516.072 567.804 515.916 568.188L513.92 567.733C514.157 567.07 514.502 566.535 514.957 566.128C515.416 565.716 515.944 565.418 516.541 565.233C517.137 565.044 517.765 564.949 518.423 564.949C518.858 564.949 519.32 565.001 519.808 565.105C520.3 565.205 520.759 565.389 521.186 565.659C521.616 565.929 521.969 566.315 522.244 566.817C522.518 567.314 522.656 567.96 522.656 568.756V576H520.582V574.509H520.497C520.359 574.783 520.153 575.053 519.879 575.318C519.604 575.583 519.251 575.804 518.82 575.979C518.39 576.154 517.874 576.241 517.272 576.241ZM517.734 574.537C518.321 574.537 518.823 574.421 519.24 574.189C519.661 573.957 519.981 573.654 520.198 573.28C520.421 572.901 520.532 572.496 520.532 572.065V570.659C520.456 570.735 520.31 570.806 520.092 570.872C519.879 570.934 519.635 570.988 519.36 571.036C519.086 571.078 518.818 571.118 518.558 571.156C518.297 571.189 518.079 571.218 517.904 571.241C517.492 571.294 517.116 571.381 516.775 571.504C516.439 571.627 516.169 571.805 515.965 572.037C515.767 572.264 515.667 572.567 515.667 572.946C515.667 573.472 515.861 573.869 516.249 574.139C516.638 574.404 517.133 574.537 517.734 574.537ZM527.608 561.455V576H525.484V561.455H527.608ZM530.635 576V561.455H535.82C536.947 561.455 537.882 561.649 538.625 562.037C539.373 562.425 539.932 562.963 540.301 563.649C540.671 564.331 540.855 565.119 540.855 566.014C540.855 566.904 540.668 567.688 540.294 568.365C539.925 569.037 539.366 569.561 538.618 569.935C537.875 570.309 536.94 570.496 535.813 570.496H531.885V568.607H535.614C536.324 568.607 536.902 568.505 537.347 568.301C537.797 568.098 538.126 567.802 538.334 567.413C538.542 567.025 538.646 566.559 538.646 566.014C538.646 565.465 538.54 564.989 538.327 564.587C538.119 564.184 537.789 563.876 537.34 563.663C536.895 563.446 536.31 563.337 535.585 563.337H532.83V576H530.635ZM537.816 569.438L541.409 576H538.909L535.387 569.438H537.816ZM548.819 576V561.455H551.013V567.776H558.265V561.455H560.466V576H558.265V569.658H551.013V576H548.819ZM570.403 571.476V565.091H572.533V576H570.445V574.111H570.331C570.081 574.693 569.678 575.179 569.124 575.567C568.575 575.95 567.891 576.142 567.072 576.142C566.371 576.142 565.751 575.988 565.211 575.68C564.676 575.368 564.254 574.906 563.947 574.295C563.644 573.685 563.492 572.929 563.492 572.03V565.091H565.616V571.774C565.616 572.518 565.822 573.109 566.233 573.55C566.645 573.99 567.18 574.21 567.839 574.21C568.236 574.21 568.632 574.111 569.025 573.912C569.422 573.713 569.751 573.412 570.012 573.01C570.277 572.607 570.407 572.096 570.403 571.476ZM575.557 576V561.455H577.681V566.859H577.808C577.932 566.632 578.109 566.369 578.341 566.071C578.573 565.773 578.895 565.512 579.307 565.29C579.719 565.062 580.263 564.949 580.941 564.949C581.821 564.949 582.607 565.171 583.298 565.616C583.99 566.062 584.532 566.703 584.925 567.541C585.323 568.379 585.521 569.388 585.521 570.567C585.521 571.746 585.325 572.757 584.932 573.599C584.539 574.437 583.999 575.084 583.313 575.538C582.626 575.988 581.843 576.213 580.962 576.213C580.299 576.213 579.757 576.102 579.335 575.879C578.919 575.657 578.592 575.396 578.355 575.098C578.119 574.8 577.936 574.535 577.808 574.303H577.631V576H575.557ZM577.638 570.545C577.638 571.312 577.749 571.985 577.972 572.562C578.194 573.14 578.516 573.592 578.938 573.919C579.359 574.241 579.875 574.402 580.486 574.402C581.12 574.402 581.651 574.234 582.077 573.898C582.503 573.557 582.825 573.095 583.043 572.513C583.265 571.93 583.377 571.275 583.377 570.545C583.377 569.826 583.268 569.179 583.05 568.607C582.837 568.034 582.515 567.581 582.084 567.25C581.658 566.919 581.125 566.753 580.486 566.753C579.87 566.753 579.35 566.911 578.923 567.229C578.502 567.546 578.182 567.989 577.965 568.557C577.747 569.125 577.638 569.788 577.638 570.545Z" fill="#525252"/>
<path d="M246.838 201.276C246.762 200.603 246.45 200.082 245.9 199.713C245.351 199.339 244.66 199.152 243.827 199.152C243.23 199.152 242.714 199.247 242.278 199.436C241.843 199.621 241.504 199.876 241.263 200.203C241.026 200.525 240.907 200.892 240.907 201.304C240.907 201.65 240.988 201.948 241.149 202.199C241.315 202.45 241.53 202.661 241.795 202.831C242.065 202.997 242.354 203.136 242.662 203.25C242.97 203.359 243.265 203.449 243.55 203.52L244.97 203.889C245.434 204.003 245.91 204.157 246.398 204.351C246.885 204.545 247.337 204.801 247.754 205.118C248.171 205.435 248.507 205.828 248.763 206.297C249.023 206.766 249.153 207.327 249.153 207.98C249.153 208.804 248.94 209.536 248.514 210.175C248.093 210.814 247.479 211.318 246.675 211.688C245.874 212.057 244.906 212.241 243.77 212.241C242.681 212.241 241.738 212.069 240.943 211.723C240.148 211.377 239.525 210.887 239.075 210.253C238.625 209.614 238.377 208.856 238.329 207.98H240.531C240.574 208.506 240.744 208.944 241.042 209.294C241.345 209.64 241.731 209.898 242.2 210.068C242.674 210.234 243.192 210.317 243.756 210.317C244.376 210.317 244.927 210.22 245.41 210.026C245.898 209.827 246.282 209.552 246.561 209.202C246.84 208.847 246.98 208.432 246.98 207.959C246.98 207.528 246.857 207.175 246.611 206.901C246.369 206.626 246.04 206.399 245.623 206.219C245.211 206.039 244.745 205.88 244.224 205.743L242.506 205.274C241.341 204.957 240.417 204.491 239.736 203.875C239.059 203.259 238.72 202.445 238.72 201.432C238.72 200.594 238.947 199.862 239.402 199.237C239.856 198.612 240.472 198.127 241.248 197.781C242.025 197.431 242.901 197.256 243.876 197.256C244.861 197.256 245.73 197.429 246.483 197.774C247.24 198.12 247.837 198.596 248.273 199.202C248.708 199.803 248.935 200.494 248.954 201.276H246.838ZM257.124 207.284H259.283L260.803 209.266L261.52 210.146L263.942 213.307H261.698L260.078 211.197L259.524 210.43L257.124 207.284ZM264.411 204.727C264.411 206.28 264.127 207.616 263.558 208.733C262.99 209.846 262.211 210.703 261.222 211.304C260.237 211.901 259.117 212.199 257.862 212.199C256.603 212.199 255.478 211.901 254.489 211.304C253.504 210.703 252.727 209.843 252.159 208.726C251.591 207.608 251.307 206.276 251.307 204.727C251.307 203.174 251.591 201.841 252.159 200.729C252.727 199.611 253.504 198.754 254.489 198.158C255.478 197.556 256.603 197.256 257.862 197.256C259.117 197.256 260.237 197.556 261.222 198.158C262.211 198.754 262.99 199.611 263.558 200.729C264.127 201.841 264.411 203.174 264.411 204.727ZM262.237 204.727C262.237 203.544 262.046 202.547 261.662 201.737C261.283 200.923 260.762 200.307 260.1 199.891C259.441 199.469 258.696 199.259 257.862 199.259C257.024 199.259 256.276 199.469 255.618 199.891C254.96 200.307 254.439 200.923 254.056 201.737C253.677 202.547 253.487 203.544 253.487 204.727C253.487 205.911 253.677 206.91 254.056 207.724C254.439 208.534 254.96 209.15 255.618 209.571C256.276 209.988 257.024 210.196 257.862 210.196C258.696 210.196 259.441 209.988 260.1 209.571C260.762 209.15 261.283 208.534 261.662 207.724C262.046 206.91 262.237 205.911 262.237 204.727ZM267.147 212V197.455H269.341V210.111H275.932V212H267.147ZM278.265 212V201.091H280.389V212H278.265ZM279.338 199.408C278.969 199.408 278.651 199.285 278.386 199.038C278.126 198.787 277.996 198.489 277.996 198.143C277.996 197.793 278.126 197.495 278.386 197.249C278.651 196.998 278.969 196.872 279.338 196.872C279.707 196.872 280.022 196.998 280.282 197.249C280.548 197.495 280.68 197.793 280.68 198.143C280.68 198.489 280.548 198.787 280.282 199.038C280.022 199.285 279.707 199.408 279.338 199.408ZM288.338 201.091V202.795H282.379V201.091H288.338ZM283.977 198.477H286.101V208.797C286.101 209.209 286.163 209.519 286.286 209.727C286.409 209.931 286.567 210.071 286.762 210.146C286.96 210.217 287.176 210.253 287.408 210.253C287.578 210.253 287.727 210.241 287.855 210.217C287.983 210.194 288.083 210.175 288.154 210.161L288.537 211.915C288.414 211.962 288.239 212.009 288.012 212.057C287.784 212.109 287.5 212.137 287.159 212.142C286.601 212.152 286.08 212.052 285.597 211.844C285.114 211.635 284.723 211.313 284.425 210.878C284.127 210.442 283.977 209.895 283.977 209.237V198.477ZM295.272 212.22C294.197 212.22 293.271 211.991 292.495 211.531C291.723 211.067 291.126 210.416 290.705 209.578C290.288 208.735 290.08 207.748 290.08 206.616C290.08 205.499 290.288 204.514 290.705 203.662C291.126 202.81 291.714 202.144 292.466 201.666C293.224 201.188 294.109 200.949 295.123 200.949C295.738 200.949 296.335 201.051 296.912 201.254C297.49 201.458 298.009 201.777 298.468 202.213C298.927 202.649 299.289 203.214 299.555 203.911C299.82 204.602 299.952 205.442 299.952 206.432V207.185H291.28V205.594H297.871C297.871 205.035 297.758 204.54 297.53 204.109C297.303 203.674 296.983 203.33 296.572 203.08C296.164 202.829 295.686 202.703 295.137 202.703C294.54 202.703 294.019 202.85 293.574 203.143C293.134 203.432 292.793 203.811 292.552 204.28C292.315 204.744 292.197 205.248 292.197 205.793V207.036C292.197 207.765 292.324 208.385 292.58 208.896C292.84 209.408 293.203 209.798 293.667 210.068C294.131 210.333 294.673 210.466 295.293 210.466C295.696 210.466 296.063 210.409 296.394 210.295C296.725 210.177 297.012 210.002 297.253 209.77C297.495 209.538 297.68 209.251 297.807 208.911L299.817 209.273C299.656 209.865 299.367 210.383 298.951 210.828C298.539 211.268 298.02 211.612 297.395 211.858C296.775 212.099 296.067 212.22 295.272 212.22ZM312.481 212H307.772V197.455H312.63C314.055 197.455 315.279 197.746 316.302 198.328C317.324 198.906 318.108 199.737 318.653 200.821C319.202 201.901 319.476 203.196 319.476 204.706C319.476 206.221 319.199 207.523 318.645 208.612C318.096 209.701 317.301 210.539 316.259 211.126C315.217 211.709 313.958 212 312.481 212ZM309.966 210.082H312.36C313.468 210.082 314.389 209.874 315.123 209.457C315.857 209.036 316.406 208.428 316.77 207.632C317.135 206.832 317.317 205.857 317.317 204.706C317.317 203.565 317.135 202.597 316.77 201.801C316.411 201.006 315.873 200.402 315.158 199.99C314.443 199.578 313.555 199.372 312.495 199.372H309.966V210.082ZM322.205 212V197.455H327.532C328.564 197.455 329.419 197.625 330.096 197.966C330.773 198.302 331.28 198.759 331.616 199.337C331.952 199.91 332.12 200.556 332.12 201.276C332.12 201.882 332.009 202.393 331.786 202.81C331.564 203.222 331.266 203.553 330.892 203.804C330.522 204.05 330.115 204.23 329.67 204.344V204.486C330.153 204.509 330.624 204.666 331.083 204.955C331.547 205.239 331.931 205.643 332.234 206.169C332.537 206.695 332.688 207.334 332.688 208.087C332.688 208.83 332.513 209.498 332.163 210.089C331.817 210.677 331.282 211.143 330.558 211.489C329.833 211.83 328.908 212 327.781 212H322.205ZM324.4 210.118H327.568C328.619 210.118 329.372 209.914 329.826 209.507C330.281 209.1 330.508 208.591 330.508 207.98C330.508 207.521 330.392 207.099 330.16 206.716C329.928 206.332 329.597 206.027 329.166 205.8C328.74 205.572 328.233 205.459 327.646 205.459H324.4V210.118ZM324.4 203.747H327.34C327.833 203.747 328.276 203.652 328.669 203.463C329.066 203.274 329.381 203.009 329.613 202.668C329.85 202.322 329.968 201.915 329.968 201.446C329.968 200.845 329.758 200.34 329.336 199.933C328.915 199.526 328.268 199.322 327.397 199.322H324.4V203.747Z" fill="#525252"/>
<path d="M352.939 723.939C352.354 724.525 352.354 725.475 352.939 726.061L362.485 735.607C363.071 736.192 364.021 736.192 364.607 735.607C365.192 735.021 365.192 734.071 364.607 733.485L356.121 725L364.607 716.515C365.192 715.929 365.192 714.979 364.607 714.393C364.021 713.808 363.071 713.808 362.485 714.393L352.939 723.939ZM883 723.5L354 723.5V726.5L883 726.5V723.5Z" fill="#525252"/>
<path d="M884.061 690.061C884.646 689.475 884.646 688.525 884.061 687.939L874.515 678.393C873.929 677.808 872.979 677.808 872.393 678.393C871.808 678.979 871.808 679.929 872.393 680.515L880.879 689L872.393 697.485C871.808 698.071 871.808 699.021 872.393 699.607C872.979 700.192 873.929 700.192 874.515 699.607L884.061 690.061ZM354 690.5H883V687.5H354V690.5Z" fill="#525252"/>
<circle cx="1008" cy="295" r="9" fill="#525252" stroke="white" stroke-width="2"/>
<line x1="1009" y1="293.5" x2="1106" y2="293.5" stroke="#525252" stroke-width="3"/>
<circle cx="1008" cy="486" r="9" fill="#525252" stroke="white" stroke-width="2"/>
<line x1="1009" y1="484.5" x2="1106" y2="484.5" stroke="#525252" stroke-width="3"/>
<circle cx="1008" cy="677" r="9" fill="#525252" stroke="white" stroke-width="2"/>
<line x1="1009" y1="675.5" x2="1106" y2="675.5" stroke="#525252" stroke-width="3"/>
<path d="M1176.11 349.5C1176.11 353.642 1172.75 357 1168.61 357H1097.5C1093.36 357 1090 353.642 1090 349.5V239.5C1090 235.358 1093.36 232 1097.5 232H1168.61C1172.75 232 1176.11 235.358 1176.11 239.5V349.5Z" fill="#3E3E3E"/>
<path d="M1170.56 244.5H1095.56V332.555H1170.56V244.5Z" fill="#59B4D9"/>
<path d="M1140.28 344.774C1140.28 348.764 1137.04 351.997 1133.05 351.997C1129.07 351.997 1125.83 348.764 1125.83 344.774C1125.83 340.787 1129.07 337.552 1133.05 337.552C1137.04 337.552 1140.28 340.787 1140.28 344.774Z" fill="white"/>
<path d="M1137.79 344.775C1137.79 347.39 1135.67 349.513 1133.06 349.513C1130.44 349.513 1128.32 347.39 1128.32 344.775C1128.32 342.16 1130.44 340.04 1133.06 340.04C1135.67 340.04 1137.79 342.16 1137.79 344.775Z" fill="#B8D432"/>
<path opacity="0.15" d="M1095.56 332.555V244.5H1152.48L1157.55 232H1097.5C1093.36 232 1090 235.358 1090 239.5V349.5C1090 353.645 1093.36 357 1097.5 357H1106.74L1116.67 332.555H1095.56Z" fill="white"/>
<path d="M1145.84 239.043C1145.84 240.063 1145.01 240.888 1143.99 240.888H1122.13C1121.11 240.888 1120.28 240.063 1120.28 239.043C1120.28 238.023 1121.11 237.195 1122.13 237.195H1143.99C1145.01 237.195 1145.84 238.023 1145.84 239.043Z" fill="#1E1E1E"/>
<path d="M1145.84 239.043C1145.84 240.063 1145.01 240.888 1143.99 240.888H1122.13C1121.11 240.888 1120.28 240.063 1120.28 239.043C1120.28 238.023 1121.11 237.195 1122.13 237.195H1143.99C1145.01 237.195 1145.84 238.023 1145.84 239.043Z" fill="white"/>
<path d="M1133.13 285.277C1133.01 285.277 1132.9 285.242 1132.79 285.182L1110.78 272.477C1110.58 272.357 1110.45 272.135 1110.45 271.9C1110.45 271.662 1110.58 271.442 1110.78 271.325L1132.66 258.702C1132.86 258.587 1133.11 258.587 1133.32 258.702L1155.33 271.412C1155.54 271.53 1155.66 271.75 1155.66 271.987C1155.66 272.227 1155.54 272.445 1155.33 272.562L1133.46 285.182C1133.36 285.242 1133.25 285.277 1133.13 285.277Z" fill="white"/>
<path opacity="0.7" d="M1129.97 316.158C1129.84 316.158 1129.73 316.128 1129.63 316.068L1107.69 303.403C1107.48 303.286 1107.35 303.071 1107.35 302.826V277.411C1107.35 277.171 1107.48 276.953 1107.69 276.833C1107.89 276.711 1108.14 276.711 1108.36 276.833L1130.3 289.493C1130.5 289.618 1130.63 289.836 1130.63 290.076V315.491C1130.63 315.733 1130.5 315.948 1130.3 316.068C1130.19 316.128 1130.08 316.158 1129.97 316.158Z" fill="white"/>
<path opacity="0.4" d="M1136.18 316.157C1136.06 316.157 1135.95 316.127 1135.83 316.067C1135.64 315.947 1135.51 315.732 1135.51 315.49V290.235C1135.51 290 1135.64 289.78 1135.83 289.657L1157.78 276.997C1157.99 276.877 1158.23 276.877 1158.44 276.997C1158.65 277.115 1158.77 277.335 1158.77 277.572V302.825C1158.77 303.07 1158.65 303.285 1158.44 303.402L1136.5 316.067C1136.41 316.127 1136.29 316.157 1136.18 316.157Z" fill="white"/>
<path d="M1176.11 546.5C1176.11 550.642 1172.75 554 1168.61 554H1097.5C1093.36 554 1090 550.642 1090 546.5V436.5C1090 432.358 1093.36 429 1097.5 429H1168.61C1172.75 429 1176.11 432.358 1176.11 436.5V546.5Z" fill="#3E3E3E"/>
<path d="M1170.56 441.5H1095.56V529.555H1170.56V441.5Z" fill="#59B4D9"/>
<path d="M1140.28 541.774C1140.28 545.764 1137.04 548.997 1133.05 548.997C1129.07 548.997 1125.83 545.764 1125.83 541.774C1125.83 537.787 1129.07 534.552 1133.05 534.552C1137.04 534.552 1140.28 537.787 1140.28 541.774Z" fill="white"/>
<path d="M1137.79 541.775C1137.79 544.39 1135.67 546.513 1133.06 546.513C1130.44 546.513 1128.32 544.39 1128.32 541.775C1128.32 539.16 1130.44 537.04 1133.06 537.04C1135.67 537.04 1137.79 539.16 1137.79 541.775Z" fill="#B8D432"/>
<path opacity="0.15" d="M1095.56 529.555V441.5H1152.48L1157.55 429H1097.5C1093.36 429 1090 432.358 1090 436.5V546.5C1090 550.645 1093.36 554 1097.5 554H1106.74L1116.67 529.555H1095.56Z" fill="white"/>
<path d="M1145.84 436.043C1145.84 437.063 1145.01 437.888 1143.99 437.888H1122.13C1121.11 437.888 1120.28 437.063 1120.28 436.043C1120.28 435.023 1121.11 434.195 1122.13 434.195H1143.99C1145.01 434.195 1145.84 435.023 1145.84 436.043Z" fill="#1E1E1E"/>
<path d="M1145.84 436.043C1145.84 437.063 1145.01 437.888 1143.99 437.888H1122.13C1121.11 437.888 1120.28 437.063 1120.28 436.043C1120.28 435.023 1121.11 434.195 1122.13 434.195H1143.99C1145.01 434.195 1145.84 435.023 1145.84 436.043Z" fill="white"/>
<path d="M1133.13 482.277C1133.01 482.277 1132.9 482.242 1132.79 482.182L1110.78 469.477C1110.58 469.357 1110.45 469.135 1110.45 468.9C1110.45 468.662 1110.58 468.442 1110.78 468.325L1132.66 455.702C1132.86 455.587 1133.11 455.587 1133.32 455.702L1155.33 468.412C1155.54 468.53 1155.66 468.75 1155.66 468.987C1155.66 469.227 1155.54 469.445 1155.33 469.562L1133.46 482.182C1133.36 482.242 1133.25 482.277 1133.13 482.277Z" fill="white"/>
<path opacity="0.7" d="M1129.97 513.158C1129.84 513.158 1129.73 513.128 1129.63 513.068L1107.69 500.403C1107.48 500.286 1107.35 500.071 1107.35 499.826V474.411C1107.35 474.171 1107.48 473.953 1107.69 473.833C1107.89 473.711 1108.14 473.711 1108.36 473.833L1130.3 486.493C1130.5 486.618 1130.63 486.836 1130.63 487.076V512.491C1130.63 512.733 1130.5 512.948 1130.3 513.068C1130.19 513.128 1130.08 513.158 1129.97 513.158Z" fill="white"/>
<path opacity="0.4" d="M1136.18 513.157C1136.06 513.157 1135.95 513.127 1135.83 513.067C1135.64 512.947 1135.51 512.732 1135.51 512.49V487.235C1135.51 487 1135.64 486.78 1135.83 486.657L1157.78 473.997C1157.99 473.877 1158.23 473.877 1158.44 473.997C1158.65 474.115 1158.77 474.335 1158.77 474.572V499.825C1158.77 500.07 1158.65 500.285 1158.44 500.402L1136.5 513.067C1136.41 513.127 1136.29 513.157 1136.18 513.157Z" fill="white"/>
<path d="M1176.11 743.5C1176.11 747.642 1172.75 751 1168.61 751H1097.5C1093.36 751 1090 747.642 1090 743.5V633.5C1090 629.358 1093.36 626 1097.5 626H1168.61C1172.75 626 1176.11 629.358 1176.11 633.5V743.5Z" fill="#3E3E3E"/>
<path d="M1170.56 638.5H1095.56V726.555H1170.56V638.5Z" fill="#59B4D9"/>
<path d="M1140.28 738.774C1140.28 742.764 1137.04 745.997 1133.05 745.997C1129.07 745.997 1125.83 742.764 1125.83 738.774C1125.83 734.787 1129.07 731.552 1133.05 731.552C1137.04 731.552 1140.28 734.787 1140.28 738.774Z" fill="white"/>
<path d="M1137.79 738.775C1137.79 741.39 1135.67 743.513 1133.06 743.513C1130.44 743.513 1128.32 741.39 1128.32 738.775C1128.32 736.16 1130.44 734.04 1133.06 734.04C1135.67 734.04 1137.79 736.16 1137.79 738.775Z" fill="#B8D432"/>
<path opacity="0.15" d="M1095.56 726.555V638.5H1152.48L1157.55 626H1097.5C1093.36 626 1090 629.358 1090 633.5V743.5C1090 747.645 1093.36 751 1097.5 751H1106.74L1116.67 726.555H1095.56Z" fill="white"/>
<path d="M1145.84 633.043C1145.84 634.063 1145.01 634.888 1143.99 634.888H1122.13C1121.11 634.888 1120.28 634.063 1120.28 633.043C1120.28 632.023 1121.11 631.195 1122.13 631.195H1143.99C1145.01 631.195 1145.84 632.023 1145.84 633.043Z" fill="#1E1E1E"/>
<path d="M1145.84 633.043C1145.84 634.063 1145.01 634.888 1143.99 634.888H1122.13C1121.11 634.888 1120.28 634.063 1120.28 633.043C1120.28 632.023 1121.11 631.195 1122.13 631.195H1143.99C1145.01 631.195 1145.84 632.023 1145.84 633.043Z" fill="white"/>
<path d="M1133.13 679.277C1133.01 679.277 1132.9 679.242 1132.79 679.182L1110.78 666.477C1110.58 666.357 1110.45 666.135 1110.45 665.9C1110.45 665.662 1110.58 665.442 1110.78 665.325L1132.66 652.702C1132.86 652.587 1133.11 652.587 1133.32 652.702L1155.33 665.412C1155.54 665.53 1155.66 665.75 1155.66 665.987C1155.66 666.227 1155.54 666.445 1155.33 666.562L1133.46 679.182C1133.36 679.242 1133.25 679.277 1133.13 679.277Z" fill="white"/>
<path opacity="0.7" d="M1129.97 710.158C1129.84 710.158 1129.73 710.128 1129.63 710.068L1107.69 697.403C1107.48 697.286 1107.35 697.071 1107.35 696.826V671.411C1107.35 671.171 1107.48 670.953 1107.69 670.833C1107.89 670.711 1108.14 670.711 1108.36 670.833L1130.3 683.493C1130.5 683.618 1130.63 683.836 1130.63 684.076V709.491C1130.63 709.733 1130.5 709.948 1130.3 710.068C1130.19 710.128 1130.08 710.158 1129.97 710.158Z" fill="white"/>
<path opacity="0.4" d="M1136.18 710.157C1136.06 710.157 1135.95 710.127 1135.83 710.067C1135.64 709.947 1135.51 709.732 1135.51 709.49V684.235C1135.51 684 1135.64 683.78 1135.83 683.657L1157.78 670.997C1157.99 670.877 1158.23 670.877 1158.44 670.997C1158.65 671.115 1158.77 671.335 1158.77 671.572V696.825C1158.77 697.07 1158.65 697.285 1158.44 697.402L1136.5 710.067C1136.41 710.127 1136.29 710.157 1136.18 710.157Z" fill="white"/>
<rect x="1004" y="232" width="519" height="98" rx="5" transform="rotate(90 1004 232)" fill="#512BD4"/>
<path d="M937.676 374.604C937.676 373.673 938.006 372.871 938.665 372.201C939.335 371.531 940.142 371.195 941.085 371.195C942.017 371.195 942.813 371.531 943.472 372.201C944.142 372.871 944.477 373.673 944.477 374.604C944.477 375.536 944.142 376.337 943.472 377.008C942.813 377.678 942.017 378.013 941.085 378.013C940.46 378.013 939.886 377.854 939.364 377.536C938.852 377.229 938.443 376.82 938.136 376.309C937.83 375.798 937.676 375.229 937.676 374.604ZM972.909 413.425H938V408.585L963.602 390.84V390.516H938V385.249H972.909V390.124L947.273 407.886V408.21H972.909V413.425ZM938 421.109H972.909V442.995H968.375V426.376H957.739V441.853H953.222V426.376H942.534V443.2H938V421.109ZM968.375 448.309H972.909V475.326H968.375V464.434H938V459.184H968.375V448.309ZM972.909 493.999V500.391L945.773 511.505V511.914L972.909 523.028V529.42H938V524.408H963.261V524.085L938.051 513.789V509.63L963.278 499.335V499.011H938V493.999H972.909ZM938 540.026V534.435L972.909 546.998V553.083L938 565.646V560.055L966.568 550.185V549.913L938 540.026ZM951.67 540.964V559.1H947.239V540.964H951.67ZM972.909 593.136V598.42H949.949C947.506 598.42 945.341 597.846 943.455 596.698C941.58 595.55 940.102 593.937 939.023 591.857C937.955 589.778 937.42 587.34 937.42 584.545C937.42 581.761 937.955 579.329 939.023 577.249C940.102 575.17 941.58 573.556 943.455 572.408C945.341 571.261 947.506 570.687 949.949 570.687H972.909V575.954H950.375C948.795 575.954 947.392 576.3 946.165 576.994C944.938 577.698 943.972 578.692 943.267 579.977C942.574 581.261 942.227 582.783 942.227 584.545C942.227 586.317 942.574 587.846 943.267 589.13C943.972 590.425 944.938 591.414 946.165 592.096C947.392 592.789 948.795 593.136 950.375 593.136H972.909ZM972.909 611.344H938V606.077H972.909V611.344Z" fill="white"/>
<path d="M1110.91 376.185H1108.69C1108.6 375.711 1108.45 375.295 1108.21 374.935C1107.98 374.575 1107.7 374.269 1107.36 374.018C1107.03 373.768 1106.65 373.578 1106.23 373.45C1105.82 373.322 1105.38 373.259 1104.92 373.259C1104.08 373.259 1103.33 373.469 1102.67 373.891C1102.01 374.312 1101.49 374.93 1101.1 375.744C1100.73 376.559 1100.54 377.553 1100.54 378.727C1100.54 379.911 1100.73 380.91 1101.1 381.724C1101.49 382.539 1102.01 383.154 1102.67 383.571C1103.34 383.988 1104.08 384.196 1104.91 384.196C1105.37 384.196 1105.81 384.134 1106.22 384.011C1106.63 383.884 1107.01 383.696 1107.35 383.45C1107.68 383.204 1107.97 382.903 1108.2 382.548C1108.44 382.188 1108.6 381.777 1108.69 381.312L1110.91 381.32C1110.79 382.035 1110.56 382.693 1110.22 383.294C1109.88 383.891 1109.45 384.407 1108.92 384.842C1108.39 385.273 1107.79 385.607 1107.11 385.844C1106.44 386.08 1105.7 386.199 1104.9 386.199C1103.64 386.199 1102.52 385.901 1101.53 385.304C1100.55 384.703 1099.77 383.843 1099.2 382.726C1098.64 381.608 1098.36 380.276 1098.36 378.727C1098.36 377.174 1098.64 375.841 1099.21 374.729C1099.78 373.611 1100.55 372.754 1101.54 372.158C1102.52 371.556 1103.64 371.256 1104.9 371.256C1105.67 371.256 1106.39 371.367 1107.06 371.589C1107.73 371.807 1108.33 372.129 1108.87 372.555C1109.4 372.977 1109.84 373.493 1110.2 374.104C1110.55 374.71 1110.78 375.403 1110.91 376.185ZM1115.48 371.455V386H1113.36V371.455H1115.48ZM1118.34 386V375.091H1120.47V386H1118.34ZM1119.41 373.408C1119.04 373.408 1118.73 373.285 1118.46 373.038C1118.2 372.787 1118.07 372.489 1118.07 372.143C1118.07 371.793 1118.2 371.495 1118.46 371.249C1118.73 370.998 1119.04 370.872 1119.41 370.872C1119.78 370.872 1120.1 370.998 1120.36 371.249C1120.62 371.495 1120.76 371.793 1120.76 372.143C1120.76 372.489 1120.62 372.787 1120.36 373.038C1120.1 373.285 1119.78 373.408 1119.41 373.408ZM1128.02 386.22C1126.95 386.22 1126.02 385.991 1125.25 385.531C1124.48 385.067 1123.88 384.416 1123.46 383.578C1123.04 382.735 1122.83 381.748 1122.83 380.616C1122.83 379.499 1123.04 378.514 1123.46 377.662C1123.88 376.81 1124.47 376.144 1125.22 375.666C1125.98 375.188 1126.86 374.949 1127.87 374.949C1128.49 374.949 1129.09 375.051 1129.66 375.254C1130.24 375.458 1130.76 375.777 1131.22 376.213C1131.68 376.649 1132.04 377.214 1132.31 377.911C1132.57 378.602 1132.7 379.442 1132.7 380.432V381.185H1124.03V379.594H1130.62C1130.62 379.035 1130.51 378.54 1130.28 378.109C1130.06 377.674 1129.74 377.33 1129.32 377.08C1128.92 376.829 1128.44 376.703 1127.89 376.703C1127.29 376.703 1126.77 376.85 1126.33 377.143C1125.89 377.432 1125.55 377.811 1125.3 378.28C1125.07 378.744 1124.95 379.248 1124.95 379.793V381.036C1124.95 381.765 1125.08 382.385 1125.33 382.896C1125.59 383.408 1125.95 383.798 1126.42 384.068C1126.88 384.333 1127.42 384.466 1128.05 384.466C1128.45 384.466 1128.81 384.409 1129.15 384.295C1129.48 384.177 1129.76 384.002 1130.01 383.77C1130.25 383.538 1130.43 383.251 1130.56 382.911L1132.57 383.273C1132.41 383.865 1132.12 384.383 1131.7 384.828C1131.29 385.268 1130.77 385.612 1130.15 385.858C1129.53 386.099 1128.82 386.22 1128.02 386.22ZM1137.18 379.523V386H1135.06V375.091H1137.1V376.866H1137.23C1137.48 376.289 1137.88 375.825 1138.41 375.474C1138.95 375.124 1139.63 374.949 1140.45 374.949C1141.19 374.949 1141.85 375.105 1142.4 375.418C1142.96 375.725 1143.4 376.185 1143.7 376.795C1144.01 377.406 1144.17 378.161 1144.17 379.061V386H1142.04V379.317C1142.04 378.526 1141.84 377.908 1141.42 377.463C1141.01 377.013 1140.45 376.788 1139.73 376.788C1139.23 376.788 1138.8 376.895 1138.41 377.108C1138.03 377.321 1137.73 377.634 1137.51 378.045C1137.29 378.453 1137.18 378.945 1137.18 379.523ZM1152.11 375.091V376.795H1146.15V375.091H1152.11ZM1147.75 372.477H1149.87V382.797C1149.87 383.209 1149.93 383.519 1150.05 383.727C1150.18 383.931 1150.33 384.071 1150.53 384.146C1150.73 384.217 1150.94 384.253 1151.18 384.253C1151.35 384.253 1151.5 384.241 1151.62 384.217C1151.75 384.194 1151.85 384.175 1151.92 384.161L1152.3 385.915C1152.18 385.962 1152.01 386.009 1151.78 386.057C1151.55 386.109 1151.27 386.137 1150.93 386.142C1150.37 386.152 1149.85 386.052 1149.36 385.844C1148.88 385.635 1148.49 385.313 1148.19 384.878C1147.89 384.442 1147.75 383.895 1147.75 383.237V372.477ZM1165.24 371.455V386H1163.04V373.656H1162.95L1159.47 375.929V373.827L1163.1 371.455H1165.24Z" fill="#525252"/>
<path d="M1109.5 573.185H1107.28C1107.2 572.711 1107.04 572.295 1106.81 571.935C1106.58 571.575 1106.29 571.269 1105.96 571.018C1105.62 570.768 1105.24 570.578 1104.83 570.45C1104.41 570.322 1103.98 570.259 1103.51 570.259C1102.67 570.259 1101.92 570.469 1101.26 570.891C1100.6 571.312 1100.08 571.93 1099.7 572.744C1099.32 573.559 1099.13 574.553 1099.13 575.727C1099.13 576.911 1099.32 577.91 1099.7 578.724C1100.08 579.539 1100.6 580.154 1101.27 580.571C1101.93 580.988 1102.68 581.196 1103.5 581.196C1103.96 581.196 1104.4 581.134 1104.81 581.011C1105.23 580.884 1105.6 580.696 1105.94 580.45C1106.28 580.204 1106.56 579.903 1106.79 579.548C1107.03 579.188 1107.19 578.777 1107.28 578.312L1109.5 578.32C1109.38 579.035 1109.15 579.693 1108.81 580.294C1108.47 580.891 1108.04 581.407 1107.51 581.842C1106.99 582.273 1106.38 582.607 1105.71 582.844C1105.03 583.08 1104.29 583.199 1103.49 583.199C1102.23 583.199 1101.11 582.901 1100.12 582.304C1099.14 581.703 1098.36 580.843 1097.79 579.726C1097.23 578.608 1096.95 577.276 1096.95 575.727C1096.95 574.174 1097.23 572.841 1097.8 571.729C1098.37 570.611 1099.15 569.754 1100.13 569.158C1101.12 568.556 1102.24 568.256 1103.49 568.256C1104.26 568.256 1104.98 568.367 1105.65 568.589C1106.32 568.807 1106.93 569.129 1107.46 569.555C1108 569.977 1108.44 570.493 1108.79 571.104C1109.14 571.71 1109.38 572.403 1109.5 573.185ZM1114.08 568.455V583H1111.95V568.455H1114.08ZM1116.94 583V572.091H1119.06V583H1116.94ZM1118.01 570.408C1117.64 570.408 1117.32 570.285 1117.06 570.038C1116.8 569.787 1116.67 569.489 1116.67 569.143C1116.67 568.793 1116.8 568.495 1117.06 568.249C1117.32 567.998 1117.64 567.872 1118.01 567.872C1118.38 567.872 1118.69 567.998 1118.95 568.249C1119.22 568.495 1119.35 568.793 1119.35 569.143C1119.35 569.489 1119.22 569.787 1118.95 570.038C1118.69 570.285 1118.38 570.408 1118.01 570.408ZM1126.62 583.22C1125.54 583.22 1124.62 582.991 1123.84 582.531C1123.07 582.067 1122.47 581.416 1122.05 580.578C1121.63 579.735 1121.43 578.748 1121.43 577.616C1121.43 576.499 1121.63 575.514 1122.05 574.662C1122.47 573.81 1123.06 573.144 1123.81 572.666C1124.57 572.188 1125.46 571.949 1126.47 571.949C1127.08 571.949 1127.68 572.051 1128.26 572.254C1128.84 572.458 1129.35 572.777 1129.81 573.213C1130.27 573.649 1130.64 574.214 1130.9 574.911C1131.17 575.602 1131.3 576.442 1131.3 577.432V578.185H1122.63V576.594H1129.22C1129.22 576.035 1129.1 575.54 1128.88 575.109C1128.65 574.674 1128.33 574.33 1127.92 574.08C1127.51 573.829 1127.03 573.703 1126.48 573.703C1125.89 573.703 1125.37 573.85 1124.92 574.143C1124.48 574.432 1124.14 574.811 1123.9 575.28C1123.66 575.744 1123.54 576.248 1123.54 576.793V578.036C1123.54 578.765 1123.67 579.385 1123.93 579.896C1124.19 580.408 1124.55 580.798 1125.01 581.068C1125.48 581.333 1126.02 581.466 1126.64 581.466C1127.04 581.466 1127.41 581.409 1127.74 581.295C1128.07 581.177 1128.36 581.002 1128.6 580.77C1128.84 580.538 1129.03 580.251 1129.15 579.911L1131.16 580.273C1131 580.865 1130.71 581.383 1130.3 581.828C1129.88 582.268 1129.37 582.612 1128.74 582.858C1128.12 583.099 1127.41 583.22 1126.62 583.22ZM1135.78 576.523V583H1133.65V572.091H1135.69V573.866H1135.83C1136.08 573.289 1136.47 572.825 1137.01 572.474C1137.55 572.124 1138.23 571.949 1139.04 571.949C1139.79 571.949 1140.44 572.105 1141 572.418C1141.56 572.725 1141.99 573.185 1142.3 573.795C1142.61 574.406 1142.76 575.161 1142.76 576.061V583H1140.64V576.317C1140.64 575.526 1140.43 574.908 1140.02 574.463C1139.61 574.013 1139.04 573.788 1138.32 573.788C1137.83 573.788 1137.39 573.895 1137.01 574.108C1136.63 574.321 1136.33 574.634 1136.1 575.045C1135.89 575.453 1135.78 575.945 1135.78 576.523ZM1150.7 572.091V573.795H1144.74V572.091H1150.7ZM1146.34 569.477H1148.46V579.797C1148.46 580.209 1148.52 580.519 1148.65 580.727C1148.77 580.931 1148.93 581.071 1149.12 581.146C1149.32 581.217 1149.54 581.253 1149.77 581.253C1149.94 581.253 1150.09 581.241 1150.22 581.217C1150.34 581.194 1150.44 581.175 1150.51 581.161L1150.9 582.915C1150.78 582.962 1150.6 583.009 1150.37 583.057C1150.15 583.109 1149.86 583.137 1149.52 583.142C1148.96 583.152 1148.44 583.052 1147.96 582.844C1147.48 582.635 1147.08 582.313 1146.79 581.878C1146.49 581.442 1146.34 580.895 1146.34 580.237V569.477ZM1158.31 583V581.409L1163.24 576.31C1163.76 575.756 1164.19 575.27 1164.53 574.854C1164.88 574.432 1165.14 574.032 1165.31 573.653C1165.48 573.275 1165.56 572.872 1165.56 572.446C1165.56 571.963 1165.45 571.546 1165.22 571.196C1165 570.841 1164.69 570.569 1164.29 570.379C1163.9 570.185 1163.46 570.088 1162.97 570.088C1162.44 570.088 1161.99 570.195 1161.6 570.408C1161.21 570.621 1160.92 570.921 1160.71 571.31C1160.5 571.698 1160.39 572.152 1160.39 572.673H1158.3C1158.3 571.788 1158.5 571.014 1158.91 570.351C1159.32 569.688 1159.88 569.174 1160.59 568.81C1161.3 568.44 1162.1 568.256 1163.01 568.256C1163.92 568.256 1164.73 568.438 1165.42 568.803C1166.12 569.162 1166.67 569.655 1167.06 570.28C1167.46 570.9 1167.65 571.601 1167.65 572.382C1167.65 572.922 1167.55 573.45 1167.35 573.966C1167.15 574.482 1166.8 575.057 1166.3 575.692C1165.81 576.321 1165.11 577.086 1164.23 577.986L1161.34 581.011V581.118H1167.89V583H1158.31Z" fill="#525252"/>
<path d="M1112.19 770.185H1109.97C1109.89 769.711 1109.73 769.295 1109.5 768.935C1109.26 768.575 1108.98 768.269 1108.64 768.018C1108.31 767.768 1107.93 767.578 1107.51 767.45C1107.1 767.322 1106.66 767.259 1106.2 767.259C1105.36 767.259 1104.61 767.469 1103.95 767.891C1103.29 768.312 1102.77 768.93 1102.39 769.744C1102.01 770.559 1101.82 771.553 1101.82 772.727C1101.82 773.911 1102.01 774.91 1102.39 775.724C1102.77 776.539 1103.29 777.154 1103.96 777.571C1104.62 777.988 1105.36 778.196 1106.19 778.196C1106.65 778.196 1107.09 778.134 1107.5 778.011C1107.92 777.884 1108.29 777.696 1108.63 777.45C1108.96 777.204 1109.25 776.903 1109.48 776.548C1109.72 776.188 1109.88 775.777 1109.97 775.312L1112.19 775.32C1112.07 776.035 1111.84 776.693 1111.5 777.294C1111.16 777.891 1110.73 778.407 1110.2 778.842C1109.67 779.273 1109.07 779.607 1108.39 779.844C1107.72 780.08 1106.98 780.199 1106.18 780.199C1104.92 780.199 1103.8 779.901 1102.81 779.304C1101.83 778.703 1101.05 777.843 1100.48 776.726C1099.92 775.608 1099.64 774.276 1099.64 772.727C1099.64 771.174 1099.92 769.841 1100.49 768.729C1101.06 767.611 1101.83 766.754 1102.82 766.158C1103.8 765.556 1104.92 765.256 1106.18 765.256C1106.95 765.256 1107.67 765.367 1108.34 765.589C1109.01 765.807 1109.61 766.129 1110.15 766.555C1110.68 766.977 1111.13 767.493 1111.48 768.104C1111.83 768.71 1112.06 769.403 1112.19 770.185ZM1116.77 765.455V780H1114.64V765.455H1116.77ZM1119.62 780V769.091H1121.75V780H1119.62ZM1120.7 767.408C1120.33 767.408 1120.01 767.285 1119.74 767.038C1119.48 766.787 1119.35 766.489 1119.35 766.143C1119.35 765.793 1119.48 765.495 1119.74 765.249C1120.01 764.998 1120.33 764.872 1120.7 764.872C1121.06 764.872 1121.38 764.998 1121.64 765.249C1121.91 765.495 1122.04 765.793 1122.04 766.143C1122.04 766.489 1121.91 766.787 1121.64 767.038C1121.38 767.285 1121.06 767.408 1120.7 767.408ZM1129.31 780.22C1128.23 780.22 1127.3 779.991 1126.53 779.531C1125.76 779.067 1125.16 778.416 1124.74 777.578C1124.32 776.735 1124.11 775.748 1124.11 774.616C1124.11 773.499 1124.32 772.514 1124.74 771.662C1125.16 770.81 1125.75 770.144 1126.5 769.666C1127.26 769.188 1128.14 768.949 1129.16 768.949C1129.77 768.949 1130.37 769.051 1130.95 769.254C1131.52 769.458 1132.04 769.777 1132.5 770.213C1132.96 770.649 1133.32 771.214 1133.59 771.911C1133.85 772.602 1133.99 773.442 1133.99 774.432V775.185H1125.31V773.594H1131.9C1131.9 773.035 1131.79 772.54 1131.56 772.109C1131.34 771.674 1131.02 771.33 1130.6 771.08C1130.2 770.829 1129.72 770.703 1129.17 770.703C1128.57 770.703 1128.05 770.85 1127.61 771.143C1127.17 771.432 1126.83 771.811 1126.58 772.28C1126.35 772.744 1126.23 773.248 1126.23 773.793V775.036C1126.23 775.765 1126.36 776.385 1126.61 776.896C1126.87 777.408 1127.24 777.798 1127.7 778.068C1128.16 778.333 1128.71 778.466 1129.33 778.466C1129.73 778.466 1130.1 778.409 1130.43 778.295C1130.76 778.177 1131.05 778.002 1131.29 777.77C1131.53 777.538 1131.71 777.251 1131.84 776.911L1133.85 777.273C1133.69 777.865 1133.4 778.383 1132.98 778.828C1132.57 779.268 1132.05 779.612 1131.43 779.858C1130.81 780.099 1130.1 780.22 1129.31 780.22ZM1138.47 773.523V780H1136.34V769.091H1138.38V770.866H1138.51C1138.77 770.289 1139.16 769.825 1139.69 769.474C1140.23 769.124 1140.91 768.949 1141.73 768.949C1142.48 768.949 1143.13 769.105 1143.69 769.418C1144.24 769.725 1144.68 770.185 1144.99 770.795C1145.29 771.406 1145.45 772.161 1145.45 773.061V780H1143.32V773.317C1143.32 772.526 1143.12 771.908 1142.71 771.463C1142.29 771.013 1141.73 770.788 1141.01 770.788C1140.52 770.788 1140.08 770.895 1139.69 771.108C1139.32 771.321 1139.01 771.634 1138.79 772.045C1138.57 772.453 1138.47 772.945 1138.47 773.523ZM1153.39 769.091V770.795H1147.43V769.091H1153.39ZM1149.03 766.477H1151.15V776.797C1151.15 777.209 1151.21 777.519 1151.33 777.727C1151.46 777.931 1151.62 778.071 1151.81 778.146C1152.01 778.217 1152.22 778.253 1152.46 778.253C1152.63 778.253 1152.78 778.241 1152.9 778.217C1153.03 778.194 1153.13 778.175 1153.2 778.161L1153.59 779.915C1153.46 779.962 1153.29 780.009 1153.06 780.057C1152.83 780.109 1152.55 780.137 1152.21 780.142C1151.65 780.152 1151.13 780.052 1150.65 779.844C1150.16 779.635 1149.77 779.313 1149.47 778.878C1149.18 778.442 1149.03 777.895 1149.03 777.237V766.477ZM1166.06 780.199C1165.09 780.199 1164.22 780.031 1163.45 779.695C1162.69 779.358 1162.08 778.892 1161.64 778.295C1161.2 777.694 1160.96 776.998 1160.93 776.207H1163.16C1163.19 776.638 1163.33 777.012 1163.59 777.33C1163.86 777.642 1164.2 777.884 1164.63 778.054C1165.06 778.224 1165.53 778.31 1166.05 778.31C1166.62 778.31 1167.13 778.21 1167.57 778.011C1168.02 777.812 1168.36 777.536 1168.61 777.18C1168.87 776.821 1168.99 776.406 1168.99 775.938C1168.99 775.45 1168.87 775.021 1168.61 774.652C1168.37 774.278 1168.01 773.984 1167.53 773.771C1167.05 773.558 1166.48 773.452 1165.81 773.452H1164.58V771.662H1165.81C1166.35 771.662 1166.82 771.565 1167.23 771.371C1167.64 771.177 1167.96 770.907 1168.2 770.561C1168.43 770.211 1168.54 769.801 1168.54 769.332C1168.54 768.883 1168.44 768.492 1168.24 768.161C1168.04 767.824 1167.75 767.562 1167.39 767.372C1167.02 767.183 1166.59 767.088 1166.09 767.088C1165.62 767.088 1165.18 767.176 1164.76 767.351C1164.36 767.521 1164.03 767.768 1163.77 768.089C1163.51 768.407 1163.38 768.788 1163.36 769.233H1161.24C1161.26 768.447 1161.49 767.756 1161.93 767.159C1162.38 766.562 1162.96 766.096 1163.69 765.76C1164.42 765.424 1165.23 765.256 1166.12 765.256C1167.05 765.256 1167.86 765.438 1168.54 765.803C1169.22 766.162 1169.74 766.643 1170.11 767.244C1170.49 767.846 1170.67 768.504 1170.67 769.219C1170.67 770.033 1170.44 770.724 1169.99 771.293C1169.53 771.861 1168.92 772.242 1168.17 772.436V772.55C1169.13 772.696 1169.88 773.08 1170.41 773.7C1170.95 774.321 1171.21 775.09 1171.21 776.009C1171.21 776.809 1170.99 777.526 1170.54 778.161C1170.09 778.795 1169.49 779.295 1168.71 779.659C1167.94 780.019 1167.06 780.199 1166.06 780.199Z" fill="#525252"/>
<rect x="162" y="164" width="459" height="695" stroke="#C7C7C7" stroke-width="2" stroke-linecap="round" stroke-dasharray="4 8 12 16"/>
<rect x="818" y="164" width="459" height="695" stroke="#C7C7C7" stroke-width="2" stroke-linecap="round" stroke-dasharray="4 8 12 16"/>
<path d="M673.311 676.64C671.434 676.638 669.592 676.125 667.985 675.154C666.378 674.183 665.066 672.793 664.19 671.132C663.315 669.471 662.909 667.602 663.017 665.728C663.125 663.853 663.742 662.044 664.802 660.494C665.862 658.944 667.325 657.713 669.033 656.933C670.74 656.153 672.629 655.853 674.494 656.067C676.36 656.281 678.131 656.999 679.619 658.145C681.106 659.291 682.253 660.821 682.935 662.57H684.913L687.132 660.352C687.293 660.191 687.511 660.102 687.738 660.102C687.965 660.102 688.183 660.191 688.344 660.352L690.563 662.57H691.5L693.719 660.352C693.799 660.272 693.895 660.209 694 660.166C694.104 660.123 694.217 660.102 694.33 660.102C694.555 660.103 694.772 660.193 694.932 660.352L697.151 662.57H699.266C699.475 662.571 699.677 662.647 699.834 662.785L703.128 665.666C703.297 665.816 703.401 666.025 703.417 666.251C703.433 666.476 703.36 666.699 703.214 666.87L700.728 669.751C700.647 669.846 700.547 669.922 700.434 669.974C700.321 670.026 700.199 670.052 700.075 670.052H682.935C682.188 671.997 680.868 673.668 679.149 674.845C677.43 676.022 675.394 676.648 673.311 676.64V676.64ZM673.311 657.72C671.722 657.714 670.162 658.149 668.805 658.976C667.448 659.803 666.346 660.99 665.623 662.405C664.899 663.82 664.582 665.408 664.706 666.992C664.83 668.576 665.391 670.095 666.326 671.38C667.261 672.665 668.534 673.666 670.004 674.272C671.473 674.877 673.082 675.063 674.651 674.81C676.22 674.557 677.688 673.873 678.892 672.836C680.096 671.799 680.99 670.448 681.473 668.934C681.529 668.753 681.645 668.596 681.8 668.487C681.956 668.378 682.143 668.324 682.333 668.332H699.679L701.339 666.397L698.922 664.29H696.781C696.668 664.291 696.555 664.269 696.451 664.227C696.346 664.184 696.25 664.121 696.17 664.041L694.313 662.175L692.446 664.041C692.366 664.121 692.271 664.184 692.166 664.227C692.061 664.269 691.949 664.291 691.836 664.29H690.193C690.08 664.291 689.968 664.269 689.863 664.227C689.758 664.184 689.663 664.121 689.583 664.041L687.725 662.175L685.859 664.041C685.778 664.121 685.683 664.184 685.578 664.227C685.474 664.269 685.361 664.291 685.248 664.29H682.333C682.143 664.299 681.956 664.245 681.8 664.136C681.645 664.027 681.529 663.87 681.473 663.688C680.92 661.956 679.832 660.443 678.366 659.368C676.899 658.292 675.13 657.709 673.311 657.703V657.72ZM670.43 670.052C669.69 670.052 668.967 669.833 668.352 669.422C667.737 669.011 667.257 668.427 666.974 667.743C666.691 667.059 666.617 666.307 666.761 665.582C666.906 664.856 667.262 664.189 667.785 663.666C668.308 663.143 668.975 662.787 669.7 662.642C670.426 662.498 671.178 662.572 671.862 662.855C672.546 663.138 673.13 663.618 673.541 664.233C673.952 664.848 674.171 665.572 674.171 666.311C674.171 666.803 674.075 667.289 673.887 667.743C673.699 668.197 673.423 668.609 673.076 668.957C672.728 669.304 672.316 669.58 671.862 669.768C671.408 669.956 670.922 670.052 670.43 670.052V670.052ZM670.43 664.29C670.031 664.29 669.64 664.409 669.308 664.631C668.975 664.853 668.716 665.169 668.563 665.538C668.41 665.907 668.37 666.314 668.448 666.706C668.526 667.098 668.719 667.458 669.001 667.74C669.284 668.023 669.644 668.216 670.036 668.294C670.428 668.372 670.834 668.332 671.204 668.179C671.573 668.026 671.889 667.767 672.111 667.434C672.333 667.102 672.451 666.711 672.451 666.311C672.451 665.775 672.238 665.261 671.859 664.882C671.48 664.503 670.966 664.29 670.43 664.29Z" fill="#D6242D"/>
<rect x="250" y="881" width="283" height="52" rx="4" fill="#512BD4"/>
<path d="M318.477 914.135C318.089 914.135 317.755 913.998 317.476 913.723C317.196 913.444 317.057 913.107 317.057 912.714C317.057 912.326 317.196 911.995 317.476 911.72C317.755 911.441 318.089 911.301 318.477 911.301C318.865 911.301 319.199 911.441 319.479 911.72C319.758 911.995 319.898 912.326 319.898 912.714C319.898 912.975 319.831 913.214 319.699 913.432C319.571 913.645 319.4 913.815 319.187 913.943C318.974 914.071 318.738 914.135 318.477 914.135ZM334.653 899.455V914H332.635L325.242 903.332H325.107V914H322.912V899.455H324.944L332.344 910.136H332.479V899.455H334.653ZM337.854 914V899.455H346.973V901.344H340.048V905.776H346.497V907.658H340.048V912.111H347.058V914H337.854ZM349.187 901.344V899.455H360.444V901.344H355.906V914H353.719V901.344H349.187ZM373.104 914.199C372.456 914.189 371.816 914.071 371.187 913.844C370.562 913.616 369.993 913.238 369.482 912.707C368.971 912.177 368.561 911.464 368.253 910.57C367.95 909.675 367.799 908.557 367.799 907.217C367.799 905.948 367.924 904.821 368.175 903.837C368.431 902.852 368.798 902.021 369.276 901.344C369.754 900.662 370.332 900.143 371.009 899.788C371.686 899.433 372.446 899.256 373.289 899.256C374.155 899.256 374.925 899.426 375.597 899.767C376.269 900.108 376.814 900.579 377.231 901.18C377.652 901.782 377.92 902.466 378.033 903.233H375.867C375.72 902.627 375.429 902.132 374.993 901.749C374.558 901.365 373.99 901.173 373.289 901.173C372.224 901.173 371.393 901.637 370.796 902.565C370.204 903.493 369.906 904.784 369.901 906.436H370.008C370.259 906.024 370.566 905.674 370.931 905.385C371.3 905.091 371.712 904.866 372.167 904.71C372.626 904.549 373.109 904.469 373.616 904.469C374.458 904.469 375.221 904.675 375.903 905.087C376.589 905.494 377.136 906.057 377.543 906.777C377.95 907.497 378.154 908.321 378.154 909.249C378.154 910.177 377.943 911.017 377.522 911.77C377.105 912.523 376.518 913.119 375.76 913.56C375.003 913.995 374.117 914.208 373.104 914.199ZM373.097 912.352C373.656 912.352 374.155 912.215 374.596 911.94C375.036 911.666 375.384 911.296 375.64 910.832C375.895 910.368 376.023 909.85 376.023 909.277C376.023 908.718 375.898 908.209 375.647 907.75C375.401 907.291 375.06 906.926 374.624 906.656C374.193 906.386 373.701 906.251 373.147 906.251C372.725 906.251 372.335 906.332 371.975 906.493C371.62 906.654 371.307 906.876 371.037 907.161C370.768 907.445 370.555 907.771 370.398 908.141C370.247 908.505 370.171 908.891 370.171 909.298C370.171 909.843 370.296 910.347 370.547 910.811C370.803 911.275 371.151 911.649 371.591 911.933C372.037 912.213 372.538 912.352 373.097 912.352ZM386.233 914V899.455H391.559C392.592 899.455 393.446 899.625 394.123 899.966C394.8 900.302 395.307 900.759 395.643 901.337C395.979 901.91 396.148 902.556 396.148 903.276C396.148 903.882 396.036 904.393 395.814 904.81C395.591 905.222 395.293 905.553 394.919 905.804C394.55 906.05 394.142 906.23 393.697 906.344V906.486C394.18 906.509 394.651 906.666 395.111 906.955C395.575 907.239 395.958 907.643 396.261 908.169C396.564 908.695 396.716 909.334 396.716 910.087C396.716 910.83 396.541 911.498 396.19 912.089C395.845 912.677 395.309 913.143 394.585 913.489C393.861 913.83 392.935 914 391.808 914H386.233ZM388.427 912.118H391.595C392.646 912.118 393.399 911.914 393.854 911.507C394.308 911.1 394.535 910.591 394.535 909.98C394.535 909.521 394.419 909.099 394.187 908.716C393.955 908.332 393.624 908.027 393.193 907.8C392.767 907.572 392.26 907.459 391.673 907.459H388.427V912.118ZM388.427 905.747H391.368C391.86 905.747 392.303 905.652 392.696 905.463C393.094 905.274 393.408 905.009 393.64 904.668C393.877 904.322 393.996 903.915 393.996 903.446C393.996 902.845 393.785 902.34 393.363 901.933C392.942 901.526 392.296 901.322 391.425 901.322H388.427V905.747ZM402.323 914.241C401.632 914.241 401.007 914.114 400.448 913.858C399.889 913.598 399.447 913.221 399.12 912.729C398.798 912.236 398.637 911.633 398.637 910.918C398.637 910.302 398.755 909.795 398.992 909.398C399.229 909 399.548 908.685 399.951 908.453C400.353 908.221 400.803 908.046 401.3 907.928C401.797 907.809 402.304 907.719 402.82 907.658C403.474 907.582 404.004 907.52 404.411 907.473C404.818 907.421 405.114 907.338 405.299 907.224C405.483 907.111 405.576 906.926 405.576 906.67V906.621C405.576 906 405.401 905.52 405.05 905.179C404.705 904.838 404.189 904.668 403.502 904.668C402.787 904.668 402.224 904.826 401.812 905.143C401.404 905.456 401.123 905.804 400.966 906.188L398.971 905.733C399.207 905.07 399.553 904.535 400.008 904.128C400.467 903.716 400.995 903.418 401.591 903.233C402.188 903.044 402.815 902.949 403.474 902.949C403.909 902.949 404.371 903.001 404.858 903.105C405.351 903.205 405.81 903.389 406.236 903.659C406.667 903.929 407.02 904.315 407.295 904.817C407.569 905.314 407.706 905.96 407.706 906.756V914H405.633V912.509H405.547C405.41 912.783 405.204 913.053 404.93 913.318C404.655 913.583 404.302 913.804 403.871 913.979C403.44 914.154 402.924 914.241 402.323 914.241ZM402.785 912.537C403.372 912.537 403.874 912.421 404.29 912.189C404.712 911.957 405.031 911.654 405.249 911.28C405.472 910.901 405.583 910.496 405.583 910.065V908.659C405.507 908.735 405.36 908.806 405.143 908.872C404.93 908.934 404.686 908.988 404.411 909.036C404.136 909.078 403.869 909.118 403.608 909.156C403.348 909.189 403.13 909.218 402.955 909.241C402.543 909.294 402.167 909.381 401.826 909.504C401.49 909.627 401.22 909.805 401.016 910.037C400.817 910.264 400.718 910.567 400.718 910.946C400.718 911.472 400.912 911.869 401.3 912.139C401.689 912.404 402.183 912.537 402.785 912.537ZM415.13 914.22C414.074 914.22 413.165 913.981 412.403 913.503C411.645 913.02 411.063 912.355 410.656 911.507C410.249 910.66 410.045 909.689 410.045 908.595C410.045 907.487 410.253 906.509 410.67 905.662C411.087 904.81 411.674 904.144 412.431 903.666C413.189 903.188 414.081 902.949 415.109 902.949C415.937 902.949 416.676 903.103 417.325 903.411C417.973 903.714 418.497 904.14 418.894 904.689C419.297 905.238 419.536 905.88 419.612 906.614H417.545C417.431 906.102 417.171 905.662 416.764 905.293C416.361 904.923 415.821 904.739 415.144 904.739C414.552 904.739 414.034 904.895 413.589 905.207C413.149 905.515 412.805 905.955 412.559 906.528C412.313 907.097 412.19 907.769 412.19 908.545C412.19 909.341 412.311 910.027 412.552 910.605C412.794 911.183 413.134 911.63 413.575 911.947C414.02 912.265 414.543 912.423 415.144 912.423C415.547 912.423 415.911 912.35 416.238 912.203C416.57 912.052 416.847 911.836 417.069 911.557C417.296 911.277 417.455 910.941 417.545 910.548H419.612C419.536 911.254 419.306 911.884 418.923 912.438C418.539 912.991 418.026 913.427 417.382 913.744C416.742 914.062 415.992 914.22 415.13 914.22ZM423.836 910.3L423.822 907.707H424.191L428.537 903.091H431.08L426.123 908.347H425.789L423.836 910.3ZM421.883 914V899.455H424.006V914H421.883ZM428.772 914L424.866 908.815L426.329 907.331L431.378 914H428.772ZM437.268 914.22C436.193 914.22 435.267 913.991 434.491 913.531C433.719 913.067 433.123 912.416 432.701 911.578C432.285 910.735 432.076 909.748 432.076 908.616C432.076 907.499 432.285 906.514 432.701 905.662C433.123 904.81 433.71 904.144 434.463 903.666C435.22 903.188 436.106 902.949 437.119 902.949C437.734 902.949 438.331 903.051 438.909 903.254C439.486 903.458 440.005 903.777 440.464 904.213C440.923 904.649 441.285 905.214 441.551 905.911C441.816 906.602 441.948 907.442 441.948 908.432V909.185H433.276V907.594H439.867C439.867 907.035 439.754 906.54 439.526 906.109C439.299 905.674 438.98 905.33 438.568 905.08C438.16 904.829 437.682 904.703 437.133 904.703C436.536 904.703 436.016 904.85 435.57 905.143C435.13 905.432 434.789 905.811 434.548 906.28C434.311 906.744 434.193 907.248 434.193 907.793V909.036C434.193 909.765 434.32 910.385 434.576 910.896C434.837 911.408 435.199 911.798 435.663 912.068C436.127 912.333 436.669 912.466 437.289 912.466C437.692 912.466 438.059 912.409 438.39 912.295C438.722 912.177 439.008 912.002 439.249 911.77C439.491 911.538 439.676 911.251 439.803 910.911L441.813 911.273C441.652 911.865 441.364 912.383 440.947 912.828C440.535 913.268 440.017 913.612 439.392 913.858C438.771 914.099 438.063 914.22 437.268 914.22ZM446.428 907.523V914H444.305V903.091H446.343V904.866H446.478C446.729 904.289 447.122 903.825 447.657 903.474C448.197 903.124 448.876 902.949 449.695 902.949C450.439 902.949 451.09 903.105 451.648 903.418C452.207 903.725 452.64 904.185 452.948 904.795C453.256 905.406 453.41 906.161 453.41 907.061V914H451.286V907.317C451.286 906.526 451.08 905.908 450.668 905.463C450.256 905.013 449.69 904.788 448.971 904.788C448.478 904.788 448.04 904.895 447.657 905.108C447.278 905.321 446.977 905.634 446.755 906.045C446.537 906.453 446.428 906.945 446.428 907.523ZM460.341 914.213C459.461 914.213 458.675 913.988 457.983 913.538C457.297 913.084 456.757 912.437 456.364 911.599C455.976 910.757 455.782 909.746 455.782 908.567C455.782 907.388 455.978 906.379 456.371 905.541C456.769 904.703 457.314 904.062 458.005 903.616C458.696 903.171 459.48 902.949 460.356 902.949C461.033 902.949 461.577 903.062 461.989 903.29C462.406 903.512 462.728 903.773 462.955 904.071C463.187 904.369 463.367 904.632 463.495 904.859H463.623V899.455H465.746V914H463.672V912.303H463.495C463.367 912.535 463.182 912.8 462.941 913.098C462.704 913.396 462.377 913.657 461.961 913.879C461.544 914.102 461.004 914.213 460.341 914.213ZM460.81 912.402C461.421 912.402 461.937 912.241 462.358 911.919C462.785 911.592 463.107 911.14 463.324 910.562C463.547 909.985 463.658 909.312 463.658 908.545C463.658 907.788 463.549 907.125 463.331 906.557C463.114 905.989 462.794 905.546 462.373 905.229C461.951 904.911 461.43 904.753 460.81 904.753C460.171 904.753 459.638 904.919 459.212 905.25C458.786 905.581 458.464 906.034 458.246 906.607C458.033 907.179 457.927 907.826 457.927 908.545C457.927 909.275 458.036 909.93 458.253 910.513C458.471 911.095 458.793 911.557 459.219 911.898C459.65 912.234 460.18 912.402 460.81 912.402Z" fill="white"/>
<path d="M44.7943 22.8854H60.2544L44.2053 70.437C44.0404 70.9256 43.7263 71.3502 43.3074 71.651C42.8885 71.9518 42.3858 72.1137 41.8701 72.1138H29.8383C29.4476 72.1138 29.0625 72.0208 28.7148 71.8425C28.3671 71.6641 28.0669 71.4056 27.839 71.0882C27.6111 70.7708 27.462 70.4037 27.4041 70.0173C27.3462 69.6309 27.3812 69.2362 27.5061 68.866L42.4585 24.5621C42.6234 24.0733 42.9375 23.6485 43.3565 23.3476C43.7755 23.0467 44.2784 22.8848 44.7943 22.8848V22.8854Z" fill="url(#paint1_linear_8_41)"/>
<path d="M67.2603 54.7803H42.7443C42.5164 54.78 42.2937 54.8484 42.1052 54.9766C41.9167 55.1047 41.7711 55.2866 41.6875 55.4986C41.6039 55.7107 41.5861 55.943 41.6364 56.1653C41.6867 56.3876 41.8027 56.5896 41.9695 56.745L57.7228 71.4486C58.1815 71.8765 58.7854 72.1143 59.4127 72.1142H73.2945L67.2603 54.7803Z" fill="#0078D4"/>
<path d="M44.7946 22.8858C44.2731 22.8838 43.7646 23.0486 43.3434 23.3561C42.9222 23.6636 42.6103 24.0978 42.4534 24.5952L27.5248 68.826C27.3915 69.1976 27.3496 69.5958 27.4027 69.987C27.4559 70.3781 27.6025 70.7508 27.8301 71.0733C28.0577 71.3959 28.3597 71.6589 28.7104 71.84C29.0611 72.0212 29.4504 72.1152 29.8451 72.1142H42.1874C42.6471 72.032 43.0767 71.8294 43.4325 71.5268C43.7882 71.2243 44.0572 70.8328 44.2121 70.3923L47.1892 61.6184L57.8232 71.537C58.2689 71.9056 58.8279 72.1095 59.4062 72.1142H73.2364L67.1706 54.7802L49.4882 54.7844L60.3104 22.8858H44.7946Z" fill="url(#paint2_linear_8_41)"/>
<path d="M64.5408 24.5601C64.3761 24.0721 64.0625 23.648 63.6441 23.3476C63.2257 23.0472 62.7236 22.8857 62.2085 22.8857H44.9785C45.4936 22.8858 45.9956 23.0473 46.414 23.3477C46.8324 23.6481 47.146 24.0721 47.3108 24.5601L62.2638 68.8657C62.3888 69.236 62.4238 69.6308 62.366 70.0173C62.3081 70.4039 62.1591 70.7711 61.9312 71.0886C61.7033 71.4061 61.403 71.6647 61.0553 71.8432C60.7076 72.0216 60.3224 72.1147 59.9315 72.1147H77.1621C77.5529 72.1146 77.9381 72.0215 78.2857 71.843C78.6334 71.6645 78.9335 71.4058 79.1614 71.0883C79.3892 70.7708 79.5382 70.4037 79.596 70.0172C79.6538 69.6307 79.6188 69.236 79.4938 68.8657L64.5408 24.5601Z" fill="url(#paint3_linear_8_41)"/>
<rect x="906" y="881" width="283" height="52" rx="4" fill="#512BD4"/>
<path d="M972.631 914.135C972.243 914.135 971.909 913.998 971.63 913.723C971.351 913.444 971.211 913.107 971.211 912.714C971.211 912.326 971.351 911.995 971.63 911.72C971.909 911.441 972.243 911.301 972.631 911.301C973.02 911.301 973.353 911.441 973.633 911.72C973.912 911.995 974.052 912.326 974.052 912.714C974.052 912.975 973.986 913.214 973.853 913.432C973.725 913.645 973.555 913.815 973.342 913.943C973.129 914.071 972.892 914.135 972.631 914.135ZM988.807 899.455V914H986.79L979.396 903.332H979.261V914H977.067V899.455H979.098L986.499 910.136H986.634V899.455H988.807ZM992.008 914V899.455H1001.13V901.344H994.203V905.776H1000.65V907.658H994.203V912.111H1001.21V914H992.008ZM1003.34 901.344V899.455H1014.6V901.344H1010.06V914H1007.87V901.344H1003.34ZM1027.26 914.199C1026.61 914.189 1025.97 914.071 1025.34 913.844C1024.72 913.616 1024.15 913.238 1023.64 912.707C1023.13 912.177 1022.72 911.464 1022.41 910.57C1022.1 909.675 1021.95 908.557 1021.95 907.217C1021.95 905.948 1022.08 904.821 1022.33 903.837C1022.59 902.852 1022.95 902.021 1023.43 901.344C1023.91 900.662 1024.49 900.143 1025.16 899.788C1025.84 899.433 1026.6 899.256 1027.44 899.256C1028.31 899.256 1029.08 899.426 1029.75 899.767C1030.42 900.108 1030.97 900.579 1031.38 901.18C1031.81 901.782 1032.07 902.466 1032.19 903.233H1030.02C1029.87 902.627 1029.58 902.132 1029.15 901.749C1028.71 901.365 1028.14 901.173 1027.44 901.173C1026.38 901.173 1025.55 901.637 1024.95 902.565C1024.36 903.493 1024.06 904.784 1024.06 906.436H1024.16C1024.41 906.024 1024.72 905.674 1025.09 905.385C1025.45 905.091 1025.87 904.866 1026.32 904.71C1026.78 904.549 1027.26 904.469 1027.77 904.469C1028.61 904.469 1029.38 904.675 1030.06 905.087C1030.74 905.494 1031.29 906.057 1031.7 906.777C1032.1 907.497 1032.31 908.321 1032.31 909.249C1032.31 910.177 1032.1 911.017 1031.68 911.77C1031.26 912.523 1030.67 913.119 1029.91 913.56C1029.16 913.995 1028.27 914.208 1027.26 914.199ZM1027.25 912.352C1027.81 912.352 1028.31 912.215 1028.75 911.94C1029.19 911.666 1029.54 911.296 1029.79 910.832C1030.05 910.368 1030.18 909.85 1030.18 909.277C1030.18 908.718 1030.05 908.209 1029.8 907.75C1029.55 907.291 1029.21 906.926 1028.78 906.656C1028.35 906.386 1027.86 906.251 1027.3 906.251C1026.88 906.251 1026.49 906.332 1026.13 906.493C1025.77 906.654 1025.46 906.876 1025.19 907.161C1024.92 907.445 1024.71 907.771 1024.55 908.141C1024.4 908.505 1024.33 908.891 1024.33 909.298C1024.33 909.843 1024.45 910.347 1024.7 910.811C1024.96 911.275 1025.31 911.649 1025.75 911.933C1026.19 912.213 1026.69 912.352 1027.25 912.352ZM1040.39 914V899.455H1049.41V901.344H1042.58V905.776H1048.76V907.658H1042.58V914H1040.39ZM1051.8 914V903.091H1053.85V904.824H1053.96C1054.16 904.237 1054.51 903.775 1055.02 903.439C1055.52 903.098 1056.1 902.928 1056.73 902.928C1056.87 902.928 1057.02 902.932 1057.2 902.942C1057.39 902.951 1057.53 902.963 1057.64 902.977V905.009C1057.55 904.985 1057.4 904.959 1057.18 904.93C1056.96 904.897 1056.75 904.881 1056.53 904.881C1056.03 904.881 1055.58 904.987 1055.19 905.2C1054.8 905.409 1054.49 905.7 1054.26 906.074C1054.04 906.443 1053.92 906.865 1053.92 907.338V914H1051.8ZM1063.68 914.22C1062.66 914.22 1061.76 913.986 1061 913.517C1060.24 913.048 1059.65 912.393 1059.23 911.55C1058.8 910.707 1058.59 909.722 1058.59 908.595C1058.59 907.464 1058.8 906.474 1059.23 905.626C1059.65 904.779 1060.24 904.121 1061 903.652C1061.76 903.183 1062.66 902.949 1063.68 902.949C1064.7 902.949 1065.59 903.183 1066.36 903.652C1067.12 904.121 1067.71 904.779 1068.13 905.626C1068.55 906.474 1068.76 907.464 1068.76 908.595C1068.76 909.722 1068.55 910.707 1068.13 911.55C1067.71 912.393 1067.12 913.048 1066.36 913.517C1065.59 913.986 1064.7 914.22 1063.68 914.22ZM1063.69 912.438C1064.35 912.438 1064.9 912.262 1065.33 911.912C1065.77 911.562 1066.09 911.095 1066.3 910.513C1066.51 909.93 1066.62 909.289 1066.62 908.588C1066.62 907.892 1066.51 907.253 1066.3 906.67C1066.09 906.083 1065.77 905.612 1065.33 905.257C1064.9 904.902 1064.35 904.724 1063.69 904.724C1063.02 904.724 1062.46 904.902 1062.02 905.257C1061.59 905.612 1061.26 906.083 1061.05 906.67C1060.84 907.253 1060.74 907.892 1060.74 908.588C1060.74 909.289 1060.84 909.93 1061.05 910.513C1061.26 911.095 1061.59 911.562 1062.02 911.912C1062.46 912.262 1063.02 912.438 1063.69 912.438ZM1073.26 907.523V914H1071.13V903.091H1073.17V904.866H1073.31C1073.56 904.289 1073.95 903.825 1074.49 903.474C1075.03 903.124 1075.71 902.949 1076.53 902.949C1077.27 902.949 1077.92 903.105 1078.48 903.418C1079.04 903.725 1079.47 904.185 1079.78 904.795C1080.09 905.406 1080.24 906.161 1080.24 907.061V914H1078.12V907.317C1078.12 906.526 1077.91 905.908 1077.5 905.463C1077.09 905.013 1076.52 904.788 1075.8 904.788C1075.31 904.788 1074.87 904.895 1074.49 905.108C1074.11 905.321 1073.81 905.634 1073.58 906.045C1073.37 906.453 1073.26 906.945 1073.26 907.523ZM1088.18 903.091V904.795H1082.22V903.091H1088.18ZM1083.82 900.477H1085.94V910.797C1085.94 911.209 1086 911.519 1086.13 911.727C1086.25 911.931 1086.41 912.071 1086.6 912.146C1086.8 912.217 1087.02 912.253 1087.25 912.253C1087.42 912.253 1087.57 912.241 1087.7 912.217C1087.82 912.194 1087.92 912.175 1088 912.161L1088.38 913.915C1088.26 913.962 1088.08 914.009 1087.85 914.057C1087.63 914.109 1087.34 914.137 1087 914.142C1086.44 914.152 1085.92 914.052 1085.44 913.844C1084.96 913.635 1084.56 913.313 1084.27 912.878C1083.97 912.442 1083.82 911.895 1083.82 911.237V900.477ZM1095.11 914.22C1094.04 914.22 1093.11 913.991 1092.34 913.531C1091.56 913.067 1090.97 912.416 1090.55 911.578C1090.13 910.735 1089.92 909.748 1089.92 908.616C1089.92 907.499 1090.13 906.514 1090.55 905.662C1090.97 904.81 1091.56 904.144 1092.31 903.666C1093.07 903.188 1093.95 902.949 1094.96 902.949C1095.58 902.949 1096.18 903.051 1096.75 903.254C1097.33 903.458 1097.85 903.777 1098.31 904.213C1098.77 904.649 1099.13 905.214 1099.4 905.911C1099.66 906.602 1099.79 907.442 1099.79 908.432V909.185H1091.12V907.594H1097.71C1097.71 907.035 1097.6 906.54 1097.37 906.109C1097.14 905.674 1096.83 905.33 1096.41 905.08C1096.01 904.829 1095.53 904.703 1094.98 904.703C1094.38 904.703 1093.86 904.85 1093.42 905.143C1092.98 905.432 1092.63 905.811 1092.39 906.28C1092.16 906.744 1092.04 907.248 1092.04 907.793V909.036C1092.04 909.765 1092.17 910.385 1092.42 910.896C1092.68 911.408 1093.04 911.798 1093.51 912.068C1093.97 912.333 1094.51 912.466 1095.13 912.466C1095.54 912.466 1095.9 912.409 1096.24 912.295C1096.57 912.177 1096.85 912.002 1097.1 911.77C1097.34 911.538 1097.52 911.251 1097.65 910.911L1099.66 911.273C1099.5 911.865 1099.21 912.383 1098.79 912.828C1098.38 913.268 1097.86 913.612 1097.24 913.858C1096.62 914.099 1095.91 914.22 1095.11 914.22ZM1104.27 907.523V914H1102.15V903.091H1104.19V904.866H1104.32C1104.57 904.289 1104.97 903.825 1105.5 903.474C1106.04 903.124 1106.72 902.949 1107.54 902.949C1108.28 902.949 1108.94 903.105 1109.49 903.418C1110.05 903.725 1110.49 904.185 1110.79 904.795C1111.1 905.406 1111.26 906.161 1111.26 907.061V914H1109.13V907.317C1109.13 906.526 1108.93 905.908 1108.51 905.463C1108.1 905.013 1107.54 904.788 1106.82 904.788C1106.32 904.788 1105.89 904.895 1105.5 905.108C1105.12 905.321 1104.82 905.634 1104.6 906.045C1104.38 906.453 1104.27 906.945 1104.27 907.523ZM1118.19 914.213C1117.31 914.213 1116.52 913.988 1115.83 913.538C1115.14 913.084 1114.6 912.437 1114.21 911.599C1113.82 910.757 1113.63 909.746 1113.63 908.567C1113.63 907.388 1113.82 906.379 1114.22 905.541C1114.61 904.703 1115.16 904.062 1115.85 903.616C1116.54 903.171 1117.33 902.949 1118.2 902.949C1118.88 902.949 1119.42 903.062 1119.83 903.29C1120.25 903.512 1120.57 903.773 1120.8 904.071C1121.03 904.369 1121.21 904.632 1121.34 904.859H1121.47V899.455H1123.59V914H1121.52V912.303H1121.34C1121.21 912.535 1121.03 912.8 1120.79 913.098C1120.55 913.396 1120.22 913.657 1119.81 913.879C1119.39 914.102 1118.85 914.213 1118.19 914.213ZM1118.66 912.402C1119.27 912.402 1119.78 912.241 1120.2 911.919C1120.63 911.592 1120.95 911.14 1121.17 910.562C1121.39 909.985 1121.5 909.312 1121.5 908.545C1121.5 907.788 1121.4 907.125 1121.18 906.557C1120.96 905.989 1120.64 905.546 1120.22 905.229C1119.8 904.911 1119.28 904.753 1118.66 904.753C1118.02 904.753 1117.48 904.919 1117.06 905.25C1116.63 905.581 1116.31 906.034 1116.09 906.607C1115.88 907.179 1115.77 907.826 1115.77 908.545C1115.77 909.275 1115.88 909.93 1116.1 910.513C1116.32 911.095 1116.64 911.557 1117.06 911.898C1117.5 912.234 1118.03 912.402 1118.66 912.402Z" fill="white"/>
<path d="M884.061 483.061C884.646 482.475 884.646 481.525 884.061 480.939L874.515 471.393C873.929 470.808 872.979 470.808 872.393 471.393C871.808 471.979 871.808 472.929 872.393 473.515L880.879 482L872.393 490.485C871.808 491.071 871.808 492.021 872.393 492.607C872.979 493.192 873.929 493.192 874.515 492.607L884.061 483.061ZM594 483.5L883 483.5L883 480.5L594 480.5L594 483.5Z" fill="#525252"/>
<path d="M592.939 511.939C592.354 512.525 592.354 513.475 592.939 514.061L602.485 523.607C603.071 524.192 604.021 524.192 604.607 523.607C605.192 523.021 605.192 522.071 604.607 521.485L596.121 513L604.607 504.515C605.192 503.929 605.192 502.979 604.607 502.393C604.021 501.808 603.071 501.808 602.485 502.393L592.939 511.939ZM883 511.5L594 511.5V514.5H883V511.5Z" fill="#525252"/>
<g clip-path="url(#clip0_8_41)">
<path d="M746.459 473.344C731.036 471.643 728.456 465 728.456 465C728.456 465 724.986 473.739 702.8 473.739V509.594C702.8 513.93 705.209 517.99 708.545 521.539C716.108 529.586 728.458 535.001 728.458 535.001C728.458 535.001 754.115 523.761 754.115 509.593V473.739C751.262 473.739 748.724 473.595 746.459 473.344Z" fill="#7FBA00"/>
<path opacity="0.4" d="M734.804 488.16L746.459 473.344C731.036 471.643 728.456 465 728.456 465C728.456 465 724.986 473.739 702.8 473.739V509.594C702.8 513.93 705.209 517.99 708.545 521.539L717.161 510.588L734.804 488.16Z" fill="#B8D432"/>
<path d="M738.633 499.244H737.141V494.271C737.141 491.878 736.26 489.685 734.804 488.041C734.749 487.981 734.7 487.915 734.647 487.855C733.097 486.194 730.891 485.128 728.456 485.129C726.026 485.128 723.82 486.194 722.27 487.855C720.716 489.517 719.774 491.79 719.774 494.27V499.244H718.283C717.662 499.244 717.161 499.746 717.161 500.365V510.469V510.47V513.514C717.161 514.133 717.664 514.635 718.283 514.635H738.633C739.252 514.635 739.754 514.133 739.754 513.514V500.367C739.754 499.745 739.252 499.244 738.633 499.244ZM733.018 499.245H725.99L725.991 499.244H723.898V494.271C723.898 492.84 724.438 491.573 725.281 490.673C726.128 489.773 727.234 489.255 728.456 489.255C729.68 489.255 730.787 489.773 731.634 490.673C731.835 490.887 732.014 491.125 732.179 491.379L732.178 491.38C732.7 492.191 733.018 493.183 733.018 494.27V499.245Z" fill="white"/>
</g>
<defs>
<linearGradient id="paint0_linear_8_41" x1="219.28" y1="771.72" x2="360.707" y2="630.293" gradientUnits="userSpaceOnUse">
<stop stop-color="#BD0816"/>
<stop offset="1" stop-color="#FF5252"/>
</linearGradient>
<linearGradient id="paint1_linear_8_41" x1="50.429" y1="26.5334" x2="34.3734" y2="73.9657" gradientUnits="userSpaceOnUse">
<stop stop-color="#114A8B"/>
<stop offset="1" stop-color="#0669BC"/>
</linearGradient>
<linearGradient id="paint2_linear_8_41" x1="55.4447" y1="48.6385" x2="51.7308" y2="49.8943" gradientUnits="userSpaceOnUse">
<stop stop-opacity="0.3"/>
<stop offset="0.071" stop-opacity="0.2"/>
<stop offset="0.321" stop-opacity="0.1"/>
<stop offset="0.623" stop-opacity="0.05"/>
<stop offset="1" stop-opacity="0"/>
</linearGradient>
<linearGradient id="paint3_linear_8_41" x1="53.402" y1="25.1503" x2="71.0263" y2="72.1046" gradientUnits="userSpaceOnUse">
<stop stop-color="#3CCBF4"/>
<stop offset="1" stop-color="#2892DF"/>
</linearGradient>
<clipPath id="clip0_8_41">
<rect width="70" height="70" fill="white" transform="translate(693 465)"/>
</clipPath>
</defs>
</svg>
