<svg id="Filled" height="512" viewBox="0 0 512 512" width="512" xmlns="http://www.w3.org/2000/svg"><path d="m24 264h464v192h-464z" fill="#95573a"/><path d="m488 344v64h-40c-9.55 0-18.13-1.36-24-8-5.87 6.64-14.45 8-24 8s-18.13-1.36-24-8c-5.87 6.64-14.45 8-24 8s-18.13-1.36-24-8c-5.87 6.64-14.45 8-24 8s-18.13-1.36-24-8c-5.87 6.64-14.45 8-24 8s-18.13-1.36-24-8c-5.87 6.64-14.45 8-24 8s-18.13-1.36-24-8c-5.87 6.64-14.45 8-24 8s-18.13-1.36-24-8c-5.87 6.64-14.45 8-24 8s-18.13-1.36-24-8c-5.87 6.64-14.45 8-24 8h-40v-64h40c9.55 0 18.13 1.36 24 8 5.87-6.64 14.45-8 24-8s18.13 1.36 24 8c5.87-6.64 14.45-8 24-8s18.13 1.36 24 8c5.87-6.64 14.45-8 24-8s18.13 1.36 24 8c5.87-6.64 14.45-8 24-8s18.13 1.36 24 8c5.87-6.64 14.45-8 24-8s18.13 1.36 24 8c5.87-6.64 14.45-8 24-8s18.13 1.36 24 8c5.87-6.64 14.45-8 24-8s18.13 1.36 24 8c5.87-6.64 14.45-8 24-8z" fill="#e0b999"/><path d="m488 256v24h-24c-9.55 0-18.13-1.36-24-8-5.87 6.64-14.45 8-24 8s-18.13-1.36-24-8c-5.87 6.64-14.45 8-24 8s-18.13-1.36-24-8c-5.87 6.64-14.45 8-24 8s-18.13-1.36-24-8c-5.87 6.64-14.45 8-24 8s-18.13-1.36-24-8c-5.87 6.64-14.45 8-24 8s-18.13-1.36-24-8c-5.87 6.64-14.45 8-24 8s-18.13-1.36-24-8c-5.87 6.64-14.45 8-24 8s-18.13-1.36-24-8c-5.87 6.64-14.45 8-24 8h-8v176h-48v-208c.72-2.58 72.84-66.83 120-108.62l30.94-27.38 9.06-8c10.16-9.23 28-6.67 40 0z" fill="#e0b999"/><path d="m112 176h8l176 24-176 24h-8a24 24 0 0 1 0-48z" fill="#ff750a"/><path d="m152 88 8 8 105.132 136.566-137.132-104.966-8-7.6c-9.369-9.369-9.369-22.631 0-32s22.631-9.369 32 0z" fill="#ff750a"/><path d="m491.991 249.067-264-152-.1-.06c-14.352-7.976-35.865-11.049-49.218 1.028-.255.225-1.722 1.518-4.172 3.682l-8.158-10.6a8.118 8.118 0 0 0 -.682-.777l-8-8a30.667 30.667 0 0 0 -21.661-9.367 28.64 28.64 0 0 0 -8 1.156v-18.129a8 8 0 0 0 -16 0v12.686l-10.343-10.343a8 8 0 0 0 -11.314 11.314l10.343 10.343h-12.686a8 8 0 0 0 0 16h18.089c-2.958 10.145-.213 21.19 8.254 29.657.049.049.1.1.147.144l8 7.6a8.134 8.134 0 0 0 .648.552l8.01 6.131c-14.511 12.873-31.9 28.328-48.544 43.208l-12.947-12.949a8 8 0 0 0 -11.314 11.314l10.343 10.343h-20.686a8 8 0 0 0 0 16h7.069c-37.694 33.982-37.969 34.958-38.775 37.853a7.988 7.988 0 0 0 -.294 2.147v208a8 8 0 0 0 8 8h464a8 8 0 0 0 8-8v-200a8 8 0 0 0 -4.009-6.933zm-366.4-134.791c-6.217-6.274-6.195-14.358.066-20.619 6.283-6.283 14.4-6.283 20.686 0l7.634 7.634 67.692 87.932-88.469-67.723zm18.5 35.713 33.734 25.822-54.453-7.425q9.675-8.602 20.719-18.397zm-48.091 50.011a16.019 16.019 0 0 1 16-16h7.457l84.043 11.46 10.068 7.707-94.111 12.833h-7.457a16.019 16.019 0 0 1 -16-16zm384 248h-400v-32c7.459 0 16.434-.741 24-5.571 7.566 4.83 16.541 5.571 24 5.571s16.434-.741 24-5.571c7.566 4.83 16.541 5.571 24 5.571s16.434-.741 24-5.571c7.566 4.83 16.541 5.571 24 5.571s16.434-.741 24-5.571c7.566 4.83 16.541 5.571 24 5.571s16.434-.741 24-5.571c7.566 4.83 16.541 5.571 24 5.571s16.434-.741 24-5.571c7.566 4.83 16.541 5.571 24 5.571s16.434-.741 24-5.571c7.566 4.83 16.541 5.571 24 5.571s16.434-.741 24-5.571c7.566 4.83 16.541 5.571 24 5.571h16zm0-48h-16c-9.463 0-14.68-1.535-18.006-5.3a8 8 0 0 0 -11.988 0c-3.326 3.764-8.543 5.3-18.006 5.3s-14.68-1.535-18.006-5.3a8 8 0 0 0 -11.988 0c-3.326 3.764-8.543 5.3-18.006 5.3s-14.68-1.535-18.006-5.3a8 8 0 0 0 -11.988 0c-3.326 3.764-8.543 5.3-18.006 5.3s-14.68-1.535-18.006-5.3a8 8 0 0 0 -11.988 0c-3.326 3.764-8.543 5.3-18.006 5.3s-14.68-1.535-18.006-5.3a8 8 0 0 0 -11.988 0c-3.326 3.764-8.543 5.3-18.006 5.3s-14.68-1.535-18.006-5.3a8 8 0 0 0 -11.988 0c-3.326 3.764-8.543 5.3-18.006 5.3s-14.68-1.535-18.006-5.3a8 8 0 0 0 -11.988 0c-3.326 3.764-8.543 5.3-18.006 5.3s-14.68-1.535-18.006-5.3a8 8 0 0 0 -11.988 0c-3.326 3.765-8.543 5.3-18.006 5.3v-48c9.463 0 14.68 1.535 18.006 5.3a8 8 0 0 0 11.988 0c3.326-3.764 8.543-5.3 18.006-5.3s14.68 1.535 18.006 5.3a8 8 0 0 0 11.988 0c3.326-3.764 8.543-5.3 18.006-5.3s14.68 1.535 18.006 5.3a8 8 0 0 0 11.988 0c3.326-3.764 8.543-5.3 18.006-5.3s14.68 1.535 18.006 5.3a8 8 0 0 0 11.988 0c3.326-3.764 8.543-5.3 18.006-5.3s14.68 1.535 18.006 5.3a8 8 0 0 0 11.988 0c3.326-3.764 8.543-5.3 18.006-5.3s14.68 1.535 18.006 5.3a8 8 0 0 0 11.988 0c3.326-3.764 8.543-5.3 18.006-5.3s14.68 1.535 18.006 5.3a8 8 0 0 0 11.988 0c3.326-3.764 8.543-5.3 18.006-5.3s14.68 1.535 18.006 5.3a8 8 0 0 0 11.988 0c3.326-3.764 8.543-5.3 18.006-5.3h16zm0-64h-16c-7.459 0-16.434.741-24 5.571-7.566-4.83-16.541-5.571-24-5.571s-16.434.741-24 5.571c-7.566-4.83-16.541-5.571-24-5.571s-16.434.741-24 5.571c-7.566-4.83-16.541-5.571-24-5.571s-16.434.741-24 5.571c-7.566-4.83-16.541-5.571-24-5.571s-16.434.741-24 5.571c-7.566-4.83-16.541-5.571-24-5.571s-16.434.741-24 5.571c-7.566-4.83-16.541-5.571-24-5.571s-16.434.741-24 5.571c-7.566-4.83-16.541-5.571-24-5.571s-16.434.741-24 5.571c-7.566-4.83-16.541-5.571-24-5.571v-48c7.459 0 16.434-.741 24-5.571 7.566 4.83 16.541 5.571 24 5.571s16.434-.741 24-5.571c7.566 4.83 16.541 5.571 24 5.571s16.434-.741 24-5.571c7.566 4.83 16.541 5.571 24 5.571s16.434-.741 24-5.571c7.566 4.83 16.541 5.571 24 5.571s16.434-.741 24-5.571c7.566 4.83 16.541 5.571 24 5.571s16.434-.741 24-5.571c7.566 4.83 16.541 5.571 24 5.571s16.434-.741 24-5.571c7.566 4.83 16.541 5.571 24 5.571s16.434-.741 24-5.571c7.566 4.83 16.541 5.571 24 5.571h16zm0-64h-16c-9.463 0-14.68-1.535-18.006-5.3a8 8 0 0 0 -11.988 0c-3.326 3.764-8.543 5.3-18.006 5.3s-14.68-1.535-18.006-5.3a8 8 0 0 0 -11.988 0c-3.326 3.764-8.543 5.3-18.006 5.3s-14.68-1.535-18.006-5.3a8 8 0 0 0 -11.988 0c-3.326 3.764-8.543 5.3-18.006 5.3s-14.68-1.535-18.006-5.3a8 8 0 0 0 -11.988 0c-3.326 3.764-8.543 5.3-18.006 5.3s-14.68-1.535-18.006-5.3a8 8 0 0 0 -11.988 0c-3.326 3.764-8.543 5.3-18.006 5.3s-14.68-1.535-18.006-5.3a8 8 0 0 0 -11.988 0c-3.326 3.764-8.543 5.3-18.006 5.3s-14.68-1.535-18.006-5.3a8 8 0 0 0 -11.988 0c-3.326 3.764-8.543 5.3-18.006 5.3s-14.68-1.535-18.006-5.3a8 8 0 0 0 -11.988 0c-3.326 3.765-8.543 5.3-18.006 5.3h-8a8 8 0 0 0 -8 8v168h-32v-196.975c3.239-3.233 12.678-12.145 39.839-36.592l-6.994 13.989a8 8 0 1 0 14.31 7.156l7.829-15.658a31.95 31.95 0 0 0 25.016 12.08h8a7.98 7.98 0 0 0 1.081-.073l110.389-15.053 28.8 22.044a8 8 0 0 0 11.2-11.232l-11.333-14.721 36.943-5.038a8 8 0 0 0 0-15.854l-59.244-8.073-53.557-69.571c3.209-2.834 5.011-4.423 5.012-4.424.029-.026.06-.052.088-.079 6.834-6.207 20.954-4.344 30.685 1.044l259.936 149.655z"/></svg>