<svg id="Filled" height="512" viewBox="0 0 512 512" width="512" xmlns="http://www.w3.org/2000/svg"><path d="m24 288h464v168h-464z" fill="#fda2c6"/><path d="m24 416h464v40h-464z" fill="#ad6643"/><path d="m488 384h-16a16 16 0 0 1 -16-16v-8a16 16 0 0 0 -16-16 16 16 0 0 0 -16 16v8a16 16 0 0 1 -16 16h-8a16 16 0 0 1 -16-16 16 16 0 0 0 -16-16 16 16 0 0 0 -16 16 16 16 0 0 1 -16 16h-8a16 16 0 0 1 -16-16v-8a16 16 0 0 0 -16-16 16 16 0 0 0 -16 16v8a16 16 0 0 1 -16 16h-8a16 16 0 0 1 -16-16 16 16 0 0 0 -16-16 16 16 0 0 0 -16 16 16 16 0 0 1 -16 16h-8a16 16 0 0 1 -16-16v-8a16 16 0 0 0 -16-16 16 16 0 0 0 -16 16v8a16 16 0 0 1 -16 16h-8a16 16 0 0 1 -16-16 16 16 0 0 0 -16-16 16 16 0 0 0 -16 16 16 16 0 0 1 -16 16h-24v-96l176-160 288 160z" fill="#5e3725"/><path d="m152 240c-18.807 0-35.439-13.755-40-32l-24-96a32 32 0 0 1 32-32h64a32 32 0 0 1 32 32l-24 96c-4.561 18.245-21.193 32-40 32z" fill="#eb423f"/><g fill="#35a872"><path d="m149.12 87.46a2.34 2.34 0 0 1 -.24-.09c-.01 0-.02-.01-.03-.02.09.04.18.07.27.11z"/><path d="m150.15 87.77a2.744 2.744 0 0 1 -.39-.09c-.03-.01-.05-.02-.08-.03a3.593 3.593 0 0 0 .47.12z"/><path d="m154.32 87.65c-.03.01-.05.02-.08.03a2.744 2.744 0 0 1 -.39.09 3.593 3.593 0 0 0 .47-.12z"/><path d="m155.15 87.35c-.01.01-.02.02-.03.02a2.34 2.34 0 0 1 -.24.09c.09-.04.18-.07.27-.11z"/><path d="m149.12 87.46a2.34 2.34 0 0 1 -.24-.09c-.01 0-.02-.01-.03-.02.09.04.18.07.27.11z"/><path d="m150.28 87.81c-.17-.04-.35-.08-.52-.13-.03-.01-.05-.02-.08-.03a3.593 3.593 0 0 0 .47.12.5.5 0 0 0 .13.04z"/><path d="m153.85 87.77a3.593 3.593 0 0 0 .47-.12c-.03.01-.05.02-.08.03-.14.04-.29.08-.43.11.02-.01.03-.01.04-.02z"/><path d="m155.15 87.35c-.01.01-.02.02-.03.02a2.34 2.34 0 0 1 -.24.09c.09-.04.18-.07.27-.11z"/></g><circle cx="256" cy="152" fill="#ad6643" r="16"/><circle cx="296" cy="216" fill="#ffd33a" r="16"/><circle cx="232" cy="248" fill="#eb423f" r="16"/><circle cx="304" cy="288" fill="#ad6643" r="16"/><circle cx="384" cy="248" fill="#eb423f" r="16"/><circle cx="168" cy="288" fill="#ffd33a" r="16"/><circle cx="72" cy="248" fill="#ad6643" r="16"/><path d="m491.885 281.007-92.435-51.353a23.978 23.978 0 0 0 -8.092-4.5l-113.576-63.1a23.99 23.99 0 0 0 -41.827-23.238l-16.169-8.982 3.975-15.9a7.977 7.977 0 0 0 .239-1.934 40.062 40.062 0 0 0 -32.326-39.253l3.3-1.319a8 8 0 1 0 -5.942-14.856l-29.032 11.612v-12.184a8 8 0 0 0 -16 0v12.184l-29.029-11.612a8 8 0 1 0 -5.942 14.856l3.3 1.319a40.062 40.062 0 0 0 -32.329 39.253 7.977 7.977 0 0 0 .239 1.94l22.839 91.36-22.378 20.34a23.986 23.986 0 0 0 -31.79 28.9l-30.291 27.541a8 8 0 0 0 -2.619 5.919v168a8 8 0 0 0 8 8h464a8 8 0 0 0 8-8v-168a8 8 0 0 0 -4.115-6.993zm-107.885-41.007a7.987 7.987 0 0 1 1.348.123l4.617 2.565a7.988 7.988 0 1 1 -5.965-2.688zm-80-24a8 8 0 1 1 -8-8 8.009 8.009 0 0 1 8 8zm-48-72a8 8 0 1 1 -8 8 8.009 8.009 0 0 1 8-8zm-159.983-32.916a24.029 24.029 0 0 1 23.983-23.084h31.956.044.042 31.958a24.029 24.029 0 0 1 23.983 23.084l-23.744 94.976c-3.758 15.031-17.316 25.94-32.239 25.94s-28.481-10.909-32.239-25.94zm-24.017 128.916a8 8 0 1 1 -8 8 8.009 8.009 0 0 1 8-8zm408 208h-448v-24h448zm0-40h-448v-16h16a24.028 24.028 0 0 0 24-24 8 8 0 0 1 16 0 24.028 24.028 0 0 0 24 24h8a24.028 24.028 0 0 0 24-24v-8a8 8 0 0 1 16 0v8a24.028 24.028 0 0 0 24 24h8a24.028 24.028 0 0 0 24-24 8 8 0 0 1 16 0 24.028 24.028 0 0 0 24 24h8a24.028 24.028 0 0 0 24-24v-8a8 8 0 0 1 16 0v8a24.028 24.028 0 0 0 24 24h8a24.028 24.028 0 0 0 24-24 8 8 0 0 1 16 0 24.028 24.028 0 0 0 24 24h8a24.028 24.028 0 0 0 24-24v-8a8 8 0 0 1 16 0v8a24.028 24.028 0 0 0 24 24h8zm0-32h-8a8.009 8.009 0 0 1 -8-8v-8a24 24 0 0 0 -48 0v8a8.009 8.009 0 0 1 -8 8h-8a8.009 8.009 0 0 1 -8-8 24 24 0 0 0 -48 0 8.009 8.009 0 0 1 -8 8h-8a8.009 8.009 0 0 1 -8-8v-8a24 24 0 0 0 -48 0v8a8.009 8.009 0 0 1 -8 8h-8a8.009 8.009 0 0 1 -8-8 24 24 0 0 0 -48 0 8.009 8.009 0 0 1 -8 8h-8a8.009 8.009 0 0 1 -8-8v-8a24 24 0 0 0 -48 0v8a8.009 8.009 0 0 1 -8 8h-8a8.009 8.009 0 0 1 -8-8 24 24 0 0 0 -48 0 8.009 8.009 0 0 1 -8 8h-16v-84.461l26.264-23.876a23.982 23.982 0 0 0 34.618-31.471l15.944-14.5c8.574 15.766 25.189 26.308 43.174 26.308 22.162 0 42.248-16.006 47.761-38.06l16.007-64.028 16.432 9.128a23.978 23.978 0 0 0 33.792 18.773l33.108 18.394a24.023 24.023 0 1 0 15.452 8.584l53.207 29.559a23.993 23.993 0 1 0 39.818 22.121l72.423 40.236z"/><circle cx="120" cy="112" r="8"/><circle cx="152" cy="112" r="8"/><circle cx="184" cy="112" r="8"/><circle cx="136" cy="144" r="8"/><circle cx="168" cy="144" r="8"/><circle cx="136" cy="176" r="8"/><circle cx="168" cy="176" r="8"/><circle cx="152" cy="208" r="8"/><path d="m304 264a24.027 24.027 0 0 0 -24 24h-88a24 24 0 0 0 -48 0h-80a8 8 0 0 0 0 16h86.131a23.956 23.956 0 0 0 35.738 0h100.262a23.956 23.956 0 0 0 35.738 0h110.131a8 8 0 0 0 0-16h-104a24.027 24.027 0 0 0 -24-24zm-136 32a8 8 0 1 1 8-8 8.009 8.009 0 0 1 -8 8zm136 0a8 8 0 1 1 8-8 8.009 8.009 0 0 1 -8 8z"/><path d="m232 272a24 24 0 1 0 -24-24 24.027 24.027 0 0 0 24 24zm0-32a8 8 0 1 1 -8 8 8.009 8.009 0 0 1 8-8z"/></svg>