<svg id="Capa_1" enable-background="new 0 0 510.224 510.224" height="512" viewBox="0 0 510.224 510.224" width="512" xmlns="http://www.w3.org/2000/svg"><g><g><path d="m291.667 25.932c-17.82-24.53-54.38-24.59-72.28-.11l-114.23 156.19 111.538 114.763h118.296l62.647-93.671 7.459-21.082z" fill="#fbe88c"/><g><g id="XMLID_105_"><g><path d="m268.611 106.288-13.764 47.604v174.008h56.38v-170.638l-16.714-50.974z" fill="#f8deb6"/><path d="m367.599 55.801c0-10.102-8.189-18.292-18.292-18.292h-19.791c-10.102 0-18.292 8.189-18.292 18.292v152.015 134.557s56.863-88.19 56.374-90.906c-.487-2.717.001-195.666.001-195.666z" fill="#f8deb6"/><path d="m356.681 270.602c6.532-10.637 11.057-18.362 10.918-19.136-.181-1.008-.228-28.197-.215-62.001l-25.955 17.594c-6.184 4.192-14.54-.238-14.54-7.709v-128.44c0-10.102 8.189-18.292 18.292-18.292h19.791c.801 0 1.603.072 2.377.172-1.44-8.665-8.968-15.281-18.041-15.281h-19.791c-10.102 0-18.292 8.189-18.292 18.292v152.015 19.717 43.069z" fill="#f7d8a4"/><path d="m311.227 227.532-7.617 5.163c-8.045 5.453-18.282 6.526-27.282 2.859l-21.481-8.752v101.098h56.38z" fill="#f7d8a4"/><path d="m405.097 182.022-112.59 76.32-50.66 84.031v137.805l19.04 22.164c13.59-1.87 26.35-10.35 32.41-25.43l113.37-282.17c1.7-4.23 1.1-9.03-1.57-12.72z" fill="#fff9e4"/><path d="m269.448 449.018h-27.601v31.16l19.04 22.164c7.124-.98 14.039-3.791 19.861-8.403l-18.424-28.974z" fill="#fdf5cb"/><path d="m156.375 88.782-14.278 28.93v137.82h28.19 28.19v-134.44l-15.008-32.31z" fill="#f8deb6"/><path d="m254.85 121.088c0-10.102-8.189-18.292-18.292-18.292h-19.791c-10.102 0-18.292 8.189-18.292 18.292v172.466h56.374v-172.466z" fill="#f8deb6"/><g fill="#f7d8a4"><path d="m215.176 134.509c0-10.102 8.189-18.292 18.292-18.292h19.791c.315 0 .646.039.957.055-2.123-7.752-9.222-13.464-17.648-13.464h-19.791c-10.102 0-18.292 8.189-18.292 18.292v172.466h16.691z"/><path d="m254.847 147.36h17.613v180.541h-17.613z"/><path d="m254.85 226.803-56.374-22.968v89.719h56.374z"/><path d="m171.085 192.675c-7.348-2.994-12.152-10.138-12.152-18.073v-44.5-26.431l-16.835 14.041v63.153 74.667h16.835 11.354 28.19v-51.697z"/></g><path d="m321.357 270.102c2.71 1.1 4.15 4.06 3.36 6.88l-63.83 225.35v.01c-17.42 2.38-36.2-6.09-43.97-25.43l-113.36-282.14c-1.71-4.25-1.1-9.07 1.6-12.76l187.35 76.33z" fill="#fdf5cb"/><path d="m264.586 467.373-105.89-263.548-53.539-21.813c-2.7 3.69-3.31 8.51-1.6 12.76l113.36 282.14c7.77 19.34 26.55 27.81 43.97 25.43v-.01l7.723-27.268c-1.543-2.339-2.902-4.898-4.024-7.691z" fill="#fcf0b6"/></g></g><g id="XMLID_153_"><g><path d="m198.477 74.762v46.33l-19.92-4.4c-2.67-.59-5.36-1.03-8.06-1.33-9.5-1.03-19.14-.24-28.4 2.35v-42.95c0-10.1 8.19-18.29 18.3-18.29h19.79c10.1 0 18.29 8.19 18.29 18.29z" fill="#c9a291"/></g></g><g id="XMLID_155_"><g><path d="m311.227 87.152v70.11l-19.92-4.4c-12.05-2.66-24.57-2.31-36.46 1.03v-66.74c0-10.1 8.19-18.29 18.29-18.29h19.8c10.1 0 18.29 8.19 18.29 18.29z" fill="#c9a291"/></g></g></g><g fill="#be8f7d"><path d="m180.187 56.472h-19.79c-10.11 0-18.3 8.19-18.3 18.29v42.95c5.513-1.542 11.162-2.431 16.835-2.692v-27.868c0-10.1 8.19-18.29 18.3-18.29h19.79c.159 0 .341.039.499.043-2.449-7.214-9.292-12.433-17.334-12.433z"/><path d="m293.609 85.814 17.566.006c-.688-9.473-8.59-16.957-18.238-16.957h-19.8c-10.1 0-18.29 8.19-18.29 18.29v66.74c5.765-1.619 11.677-2.529 17.613-2.741v-46.903c0-10.181 9.47-18.435 21.149-18.435z"/></g></g><path d="m411.16 177.615-36.062-49.628v-20.293c0-4.142-3.357-7.5-7.5-7.5s-7.5 3.358-7.5 7.5v95.771l-13.187 8.939v-167.394h2.396c5.95 0 10.791 4.841 10.791 10.792v19.93c0 4.142 3.357 7.5 7.5 7.5s7.5-3.358 7.5-7.5v-19.93c0-14.222-11.569-25.792-25.791-25.792h-19.792c-7.669 0-14.563 3.368-19.291 8.699l-12.486-17.184c-9.921-13.654-25.29-21.499-42.167-21.525h-.084c-16.843 0-32.204 7.795-42.149 21.394l-22.019 30.106c-3.373-1.621-7.149-2.53-11.135-2.53h-19.791c-14.222 0-25.792 11.57-25.792 25.792v54.288l-35.5 48.539c-4.255 5.82-5.191 13.288-2.504 19.978l33.648 83.745c1.176 2.927 3.99 4.706 6.962 4.706.931 0 1.877-.174 2.794-.542 3.843-1.544 5.707-5.912 4.163-9.756l-33.492-83.357 206.396 84.09-23.45 82.79c-1.129 3.985 1.187 8.131 5.172 9.26.684.193 1.371.286 2.048.286 3.271 0 6.277-2.156 7.212-5.458l23.881-84.309c1.839-6.497-1.49-13.317-7.742-15.865l-15.869-6.466 89.851-60.912-111.834 278.337c-3.23 8.039-8.523 13.4-14.401 16.709l27.391-96.703c1.129-3.985-1.187-8.131-5.172-9.26-3.985-1.127-8.132 1.187-9.26 5.172l-29.795 105.19c-10.996-.002-24.97-5.548-31.222-21.107l-67.788-168.718c-1.545-3.844-5.911-5.708-9.756-4.163-3.843 1.544-5.707 5.912-4.163 9.756l67.788 168.716c7.563 18.822 24.863 30.515 45.148 30.515s37.585-11.693 45.147-30.516l113.372-282.167c2.68-6.665 1.757-14.114-2.466-19.925zm-36.062-24.111 19.372 26.659-19.372 13.133zm-56.374-97.703c0-5.951 4.841-10.792 10.791-10.792h2.396v177.563l-13.188 8.94v-23.697-120.661-31.353zm-169.123 67.851c4.345-.834 8.766-1.243 13.187-1.217v74.962l-13.187-5.373zm28.187.549 13.188 2.912v81.769l-13.188-5.373zm28.188-3.113c0-5.951 4.841-10.792 10.792-10.792h2.396v110.069l-13.187-5.373v-93.904zm28.187-10.792h2.396c5.951 0 10.792 4.841 10.792 10.792v110.761l-13.187-5.373v-116.18zm28.187 49.529c4.345-.834 8.766-1.242 13.187-1.217v84.725l-13.187-5.372zm0-15.211v-57.46c0-5.951 4.841-10.792 10.791-10.792h19.791c5.951 0 10.792 4.841 10.792 10.792v60.77l-10.799-2.385c-10.032-2.215-20.441-2.509-30.575-.925zm-36.905-114.365c7.102-9.709 18.059-15.242 30.103-15.249 12.029.019 22.984 5.61 30.056 15.342l18.134 24.956c-.003.168-.013.335-.013.504v7.936c-3.286-1.52-6.94-2.375-10.792-2.375h-19.791c-14.222 0-25.791 11.57-25.791 25.792v10.518c-3.286-1.52-6.94-2.375-10.792-2.375h-19.791c-3.852 0-7.506.855-10.792 2.375v-22.91c0-4.754-1.298-9.209-3.551-13.037zm-65.052 33.72h19.791c5.951 0 10.792 4.841 10.792 10.792v36.99l-10.799-2.385c-10.031-2.215-20.441-2.512-30.575-.93v-33.675c-.001-5.95 4.84-10.792 10.791-10.792zm-25.792 121.944-17.724-7.221 17.724-24.234zm155.936 63.532v-89.072l13.188 2.912v44.531 33.866l-12.103 8.205z"/></g></svg>