<svg id="Filled" height="512" viewBox="0 0 512 512" width="512" xmlns="http://www.w3.org/2000/svg"><path d="m56 376h400v48h-400z" fill="#c3c6c7"/><path d="m488 264a96 96 0 0 1 -96 96h-272v-192h272a96 96 0 0 1 96 96z" fill="#93573a"/><path d="m168 168c9.2 9.2 19.25 4.25 32 0l40-16a22.984 22.984 0 0 0 0-32l-16-16a22.984 22.984 0 0 0 -32 0l-24 32c-6.693 11.156-9.2 22.8 0 32z" fill="#eb423f"/><path d="m288 168c9.2 9.2 19.25 4.25 32 0l40-16a22.984 22.984 0 0 0 0-32l-16-16a22.984 22.984 0 0 0 -32 0l-24 32c-6.693 11.156-9.2 22.8 0 32z" fill="#eb423f"/><path d="m424 168a15.979 15.979 0 0 1 -16 16 24 24 0 0 1 -48 0 24 24 0 0 1 -48 0 24 24 0 0 1 -48 0 24 24 0 0 1 -48 0 24 24 0 0 1 -48 0h-16a16 16 0 1 1 0-32h256a16 16 0 0 1 16 16z" fill="#f5caa7"/><path d="m216 264a96.006 96.006 0 0 1 -88.01 95.67q-3.96.33-7.99.33a96 96 0 1 1 96-96z" fill="#ab6643"/><path d="m24 360h464a0 0 0 0 1 0 0 32 32 0 0 1 -32 32h-400a32 32 0 0 1 -32-32 0 0 0 0 1 0 0z" fill="#dadcde"/><path d="m496 264a104.187 104.187 0 0 0 -64-96.008 24.027 24.027 0 0 0 -24-23.992h-34.541a31.732 31.732 0 0 0 0-16h2.541a8 8 0 0 0 0-16h-12.686l10.343-10.343a8 8 0 0 0 -11.314-11.314l-10.343 10.343v-12.686a8 8 0 0 0 -16 0v2.573a30.975 30.975 0 0 0 -29.657 7.77c-.267.267-25.061 33.3-25.2 33.541a54.973 54.973 0 0 0 -5.543 12.116h-22.141a31.732 31.732 0 0 0 0-16h2.541a8 8 0 0 0 0-16h-12.686l10.343-10.343a8 8 0 0 0 -11.314-11.314l-10.343 10.343v-12.686a8 8 0 0 0 -16 0v2.573a30.975 30.975 0 0 0 -29.657 7.77c-.267.267-25.061 33.3-25.2 33.541a54.973 54.973 0 0 0 -5.543 12.116h-3.6a23.979 23.979 0 0 0 -22.776 16.414c-3.04-.269-6.115-.414-9.224-.414a103.975 103.975 0 0 0 -55.363 192h-40.637a8 8 0 0 0 -8 8 40.067 40.067 0 0 0 32 39.2v24.8a8 8 0 0 0 8 8h400a8 8 0 0 0 8-8v-24.8a40.067 40.067 0 0 0 32-39.2 8 8 0 0 0 -8-8h-40.637a104.016 104.016 0 0 0 48.637-88zm-201.345-123.541 23.364-31.15a15.029 15.029 0 0 1 20.324.348l16 16a14.471 14.471 0 0 1 4.141 10.343 14.822 14.822 0 0 1 -2.272 8h-63.46q.83-1.718 1.903-3.541zm-120 0 23.364-31.15a15.029 15.029 0 0 1 20.324.348l16 16a14.471 14.471 0 0 1 4.141 10.343 14.822 14.822 0 0 1 -2.272 8h-63.46q.83-1.718 1.903-3.541zm-28.328 21.888a7.985 7.985 0 0 1 5.673-2.347h256a8 8 0 1 1 0 16 8 8 0 0 0 -8 8 16 16 0 0 1 -32 0 8 8 0 0 0 -16 0 16 16 0 0 1 -32 0 8 8 0 0 0 -16 0 16 16 0 0 1 -32 0 8 8 0 0 0 -16 0 16 16 0 0 1 -32 0 8 8 0 0 0 -16 0 16.03 16.03 0 0 1 -7.873 13.772 104.2 104.2 0 0 0 -54.521-34.579 8.018 8.018 0 0 1 .721-.846zm-90.327 125.653a64.072 64.072 0 0 1 64-64 40 40 0 0 1 0 80 24 24 0 0 1 0-48 8 8 0 0 0 0-16 40 40 0 0 0 0 80 56 56 0 0 0 0-112 80.022 80.022 0 0 0 -78.4 95.944 87.992 87.992 0 1 1 78.4 48.056 64.072 64.072 0 0 1 -64-64zm392 128h-384v-16h384zm30.629-48a24.042 24.042 0 0 1 -22.629 16h-400a24.042 24.042 0 0 1 -22.629-16zm-86.629-16h-216.637a103.883 103.883 0 0 0 34-141.138 32.013 32.013 0 0 0 6.637-5.713 31.942 31.942 0 0 0 39.125 7.037 87.9 87.9 0 0 1 16.875 51.814 8 8 0 0 0 16 0 103.913 103.913 0 0 0 -13.332-50.913 31.961 31.961 0 0 0 37.332-7.942 32.02 32.02 0 0 0 17.305 10.144c.012.019.022.038.034.057a87.589 87.589 0 0 1 14.661 48.654 8 8 0 0 0 16 0 103.562 103.562 0 0 0 -12.818-50.027 32.132 32.132 0 0 0 12.818-8.828 31.943 31.943 0 0 0 32.91 9.585 87.342 87.342 0 0 1 15.09 49.27 8 8 0 0 0 16 0 103.237 103.237 0 0 0 -17.31-57.467 31.969 31.969 0 0 0 8.563-15.643 24.008 24.008 0 0 0 9.734-5.923 24.468 24.468 0 0 0 1.674-1.864 88.006 88.006 0 0 1 -34.661 168.897z"/></svg>