<svg id="Filled" height="512" viewBox="0 0 512 512" width="512" xmlns="http://www.w3.org/2000/svg"><path d="m280 408v-16h-48v16l8 16v16l-8 16v16h48v-16l-8-16v-16z" fill="#c1c4c5"/><path d="m96 232h320v144h-320z" fill="#fb82b1"/><path d="m120 136h272v96h-272z" fill="#fba0c4"/><g fill="#ffd33a"><path d="m184 96a45.255 45.255 0 0 1 0-64 45.255 45.255 0 0 1 0 64z"/><path d="m256 96a45.255 45.255 0 0 1 0-64 45.255 45.255 0 0 1 0 64z"/><path d="m328 96a45.255 45.255 0 0 1 0-64 45.255 45.255 0 0 1 0 64z"/></g><path d="m168 88h32v48h-32z" fill="#d4a811"/><path d="m240 88h32v48h-32z" fill="#d4a811"/><path d="m312 88h32v48h-32z" fill="#d4a811"/><path d="m120 168h272v32h-272z" fill="#5e3725"/><path d="m72 376h368a0 0 0 0 1 0 0 32 32 0 0 1 -32 32h-304a32 32 0 0 1 -32-32 0 0 0 0 1 0 0z" fill="#dadcde"/><path d="m136 456h240a32 32 0 0 1 32 32 0 0 0 0 1 0 0h-304a0 0 0 0 1 0 0 32 32 0 0 1 32-32z" fill="#dadcde"/><path d="m416 280a16 16 0 0 1 -16 16 16 16 0 0 1 -16-16 16 16 0 0 0 -16-16 16 16 0 0 0 -16 16v24a24 24 0 0 1 -24 24 24 24 0 0 1 -24-24v-8.477a15.522 15.522 0 0 0 -15.52-15.523h-.962a15.518 15.518 0 0 0 -15.518 15.52v.48a16 16 0 0 1 -16 16 16 16 0 0 1 -16-16v-8a16 16 0 0 0 -16-16 16 16 0 0 0 -16 16v16a24 24 0 0 1 -24 24 24 24 0 0 1 -24-24v-23.76a16 16 0 0 0 -16.238-16 16 16 0 0 0 -15.762 16 15.76 15.76 0 0 1 -15.76 15.76h-.48a15.76 15.76 0 0 1 -15.76-15.76v-48.24h320z" fill="#5e3725"/><path d="m104 416h123.056l4.944 9.889v12.222l-4.944 9.889h-91.056a40.045 40.045 0 0 0 -40 40 8 8 0 0 0 8 8h304a8 8 0 0 0 8-8 40.045 40.045 0 0 0 -40-40h-91.056l-4.944-9.889v-12.222l4.944-9.889h123.056a40.045 40.045 0 0 0 40-40 8 8 0 0 0 -8-8h-16v-136a8 8 0 0 0 -8-8h-16v-96a8 8 0 0 0 -8-8h-40v-40a8 8 0 0 0 -5.319-7.53 52.959 52.959 0 0 0 -13.024-54.127 8 8 0 0 0 -11.314 0 52.957 52.957 0 0 0 -13.024 54.127 8 8 0 0 0 -5.319 7.53v40h-24v-40a8 8 0 0 0 -5.319-7.53 52.957 52.957 0 0 0 -13.024-54.127 8 8 0 0 0 -11.314 0 52.957 52.957 0 0 0 -13.024 54.127 8 8 0 0 0 -5.319 7.53v40h-24v-40a8 8 0 0 0 -5.319-7.53 52.961 52.961 0 0 0 -13.024-54.127 8 8 0 0 0 -11.314 0 52.961 52.961 0 0 0 -13.024 54.127 8 8 0 0 0 -5.319 7.53v40h-40a8 8 0 0 0 -8 8v96h-16a8 8 0 0 0 -8 8v136h-16a8 8 0 0 0 -8 8 40.045 40.045 0 0 0 40 40zm272 48a24.042 24.042 0 0 1 22.629 16h-285.258a24.042 24.042 0 0 1 22.629-16zm-128.845-43.578-2.211-4.422h22.112l-2.211 4.422a7.994 7.994 0 0 0 -.845 3.578v16a7.994 7.994 0 0 0 .845 3.578l2.211 4.422h-22.112l2.211-4.422a7.994 7.994 0 0 0 .845-3.578v-16a7.994 7.994 0 0 0 -.845-3.578zm80.845-383.544a36.963 36.963 0 0 1 1.644 35.122h-3.288a36.963 36.963 0 0 1 1.644-35.122zm-8 51.122h16v32h-16zm-64-51.122a36.963 36.963 0 0 1 1.644 35.122h-3.288a36.963 36.963 0 0 1 1.644-35.122zm-8 51.122h16v32h-16zm-64-51.122a36.966 36.966 0 0 1 1.644 35.122h-3.288a36.966 36.966 0 0 1 1.644-35.122zm-8 51.122h16v32h-16zm-48 48h256v24h-256zm0 40h256v16h-256zm0 32h256v16h-256zm-24 72v-40h304v40a8 8 0 0 1 -16 0 24 24 0 0 0 -48 0v24a16 16 0 0 1 -32 0v-8.477a23.522 23.522 0 0 0 -23.52-23.523h-.961a23.519 23.519 0 0 0 -23.519 23.52v.48a8 8 0 0 1 -8 8 8.008 8.008 0 0 1 -8-8v-8a24 24 0 0 0 -48 0v16a16 16 0 1 1 -32 0v-23.76a24 24 0 0 0 -24.357-24 24.1 24.1 0 0 0 -23.644 24 7.769 7.769 0 0 1 -7.76 7.76h-.48a7.769 7.769 0 0 1 -7.76-7.76zm0 22.692a23.663 23.663 0 0 0 7.76 1.308h.48a23.787 23.787 0 0 0 23.76-23.76 8 8 0 0 1 13.616-5.7 7.937 7.937 0 0 1 2.385 5.7v23.76a32 32 0 1 0 64 0v-16a8 8 0 0 1 16 0v8a24.029 24.029 0 0 0 24 24 24 24 0 0 0 24-24v-.483a7.52 7.52 0 0 1 7.518-7.517h.961a7.522 7.522 0 0 1 7.52 7.522v8.478a31.791 31.791 0 0 0 9.373 22.628 32.406 32.406 0 0 0 2.7 2.408 8.012 8.012 0 0 0 -1.733 1.307l-8 8a8 8 0 0 0 11.314 11.314l8-8a7.979 7.979 0 0 0 2.269-6.684 32.028 32.028 0 0 0 40.077-30.973v-24a8 8 0 0 1 16 0 23.992 23.992 0 0 0 32 22.624v25.376a7.976 7.976 0 0 0 -5.657 2.343l-8 8a8 8 0 0 0 11.314 11.314l2.343-2.344v20.687h-44.687l2.344-2.343a8 8 0 0 0 -11.314-11.314l-8 8a7.976 7.976 0 0 0 -2.343 5.657h-76.687l2.344-2.343a8 8 0 0 0 -11.314-11.314l-8 8a7.976 7.976 0 0 0 -2.343 5.657h-68.687l2.344-2.343a8 8 0 1 0 -11.314-11.314l-8 8a7.976 7.976 0 0 0 -2.343 5.657h-56zm326.629 81.308a24.042 24.042 0 0 1 -22.629 16h-304a24.042 24.042 0 0 1 -22.629-16z"/><path d="m130.343 330.343-8 8a8 8 0 0 0 11.314 11.314l8-8a8 8 0 1 0 -11.314-11.314z"/><path d="m216 352a7.976 7.976 0 0 0 5.657-2.343l8-8a8 8 0 1 0 -11.314-11.314l-8 8a8 8 0 0 0 5.657 13.657z"/></svg>