<svg id="Capa_1" enable-background="new 0 0 511.648 511.648" height="512" viewBox="0 0 511.648 511.648" width="512" xmlns="http://www.w3.org/2000/svg"><g><g><path d="m418.034 152.299c-12.246-10.568-28.186-16.974-45.631-16.974h-233.158c-17.445 0-33.384 6.406-45.631 16.974l-44.006 35.052 36.315 49.18h330.016l57.976-45.57z" fill="#f7d8a4"/><g><g><path d="m93.614 152.299-44.006 35.052 36.315 49.18h330.016l57.976-45.57-55.88-38.662c-4.033-3.48-8.456-6.504-13.212-9.001-19.892 13.85-41.515 24.817-64.442 32.662-27.235 9.318-55.684 14.043-84.556 14.043s-57.32-4.725-84.555-14.043c-22.927-7.844-44.528-18.824-64.419-32.674-4.758 2.497-9.204 5.532-13.237 9.013z" fill="#f5cd8b"/><path d="m424.528 259.875c21.655-11.049 42.221-24.219 61.481-39.432 20.669-16.325 24.191-46.316 7.865-66.985-16.326-20.67-46.318-24.191-66.985-7.865-24.635 19.459-52.108 34.45-81.653 44.559-28.803 9.854-58.885 14.851-89.411 14.851s-60.608-4.996-89.411-14.851c-29.546-10.109-57.018-25.1-81.653-44.559-20.669-16.325-50.66-12.805-66.985 7.865-16.326 20.669-12.805 50.66 7.865 66.985 19.26 15.212 39.826 28.383 61.481 39.432l59.835 23.71h213.409 25.74z" fill="#ea9a98"/></g><path d="m372.403 221.531h-233.158c-9.281 0-18.213 1.504-26.575 4.275-9.711 3.218-20.367 1.77-28.858-3.936-7.878-5.293-15.572-10.9-23.066-16.819-20.669-16.325-24.191-46.316-7.865-66.985.75-.95 1.553-1.864 2.359-2.741-14.089.002-28.055 6.219-37.465 18.133-16.326 20.669-12.805 50.66 7.865 66.985 19.26 15.212 39.826 28.383 61.481 39.432l59.835 23.71h136.116 77.293 25.74l38.424-23.71c4.548-2.32 9.065-4.744 13.515-7.251-15.585-18.963-39.238-31.093-65.641-31.093zm-190.341 46.662-19.477-7.718 123.454-3.826-1.271 11.544z" fill="#e5827f"/><path d="m372.403 236.531h-233.158c-38.604 0-69.899 31.295-69.899 69.899 0 38.604 31.295 69.899 69.899 69.899h233.159c38.604 0 69.899-31.295 69.899-69.899-.001-38.604-31.296-69.899-69.9-69.899z" fill="#f7d8a4"/><path d="m417.804 346.375h-233.158c-38.604 0-69.899-31.295-69.899-69.899 0-14.34 4.314-27.693 11.722-38.787-32.505 6.002-57.123 34.499-57.123 68.741 0 38.604 31.295 69.899 69.899 69.899h233.159c24.264 0 45.65-12.378 58.183-31.148-4.142.764-8.421 1.194-12.783 1.194z" fill="#f5cd8b"/></g></g><g><path d="m499.759 148.81c-9.138-11.569-22.234-18.888-36.876-20.606-14.641-1.72-29.075 2.367-40.644 11.504-1.347 1.064-2.706 2.11-4.07 3.146-13.231-9.719-29.257-15.029-45.766-15.029h-28.75c-4.142 0-7.5 3.358-7.5 7.5s3.358 7.5 7.5 7.5h28.75c11.625 0 22.953 3.271 32.744 9.32-19.367 12.983-40.256 23.355-62.34 30.911-28.019 9.586-57.284 14.447-86.983 14.447s-58.965-4.86-86.983-14.447c-22.082-7.555-42.969-17.926-62.335-30.907 9.79-6.049 21.115-9.323 32.739-9.323h172.445c4.142 0 7.5-3.358 7.5-7.5s-3.358-7.5-7.5-7.5h-172.445c-16.51 0-32.54 5.306-45.773 15.024-1.362-1.035-2.719-2.079-4.064-3.141-11.568-9.137-26.004-13.221-40.645-11.504-14.642 1.719-27.738 9.037-36.875 20.606-9.138 11.569-13.224 26.003-11.504 40.645 1.719 14.642 9.037 27.737 20.604 36.873.255.201.512.397.77.594l.501.385c3.262 2.556 7.975 1.982 10.53-1.277 2.555-3.26 1.983-7.975-1.277-10.53-.221-.173-.443-.342-.666-.512-.187-.142-.373-.284-.559-.431-8.424-6.654-13.753-16.19-15.005-26.852s1.724-21.174 8.378-29.599 16.19-13.754 26.853-15.005c10.661-1.254 21.174 1.723 29.598 8.377 3.734 2.949 7.54 5.786 11.398 8.535v39.346c0 4.142 3.358 7.5 7.5 7.5s7.5-3.358 7.5-7.5v-29.363c14.185 8.804 29.092 16.32 44.612 22.485v18.887c0 4.142 3.358 7.5 7.5 7.5s7.5-3.358 7.5-7.5v-13.415c15.573 5.191 31.5 9.008 47.662 11.423v5.514c0 4.142 3.358 7.5 7.5 7.5s7.5-3.358 7.5-7.5v-3.685c8.962.853 17.982 1.296 27.041 1.296s18.079-.442 27.041-1.296v3.685c0 4.142 3.358 7.5 7.5 7.5s7.5-3.358 7.5-7.5v-5.514c16.162-2.415 32.09-6.232 47.662-11.423v13.415c0 4.142 3.358 7.5 7.5 7.5s7.5-3.358 7.5-7.5v-18.887c15.52-6.165 30.427-13.681 44.612-22.485v29.363c0 4.142 3.358 7.5 7.5 7.5s7.5-3.358 7.5-7.5v-39.346c3.859-2.748 7.664-5.585 11.398-8.535 8.424-6.653 18.935-9.628 29.597-8.377 10.663 1.252 20.199 6.581 26.854 15.006 6.654 8.424 9.629 18.936 8.377 29.598s-6.581 20.198-15.006 26.852c-17.301 13.665-35.908 25.767-55.357 36.068-1.656-1.595-3.38-3.124-5.179-4.57-13.664-10.979-30.86-17.025-48.421-17.025h-233.157c-20.783 0-39.665 8.25-53.583 21.627-9.686-5.135-19.298-10.805-28.64-16.904-3.468-2.264-8.116-1.289-10.38 2.181-2.264 3.468-1.288 8.116 2.181 10.38 8.774 5.728 17.783 11.087 26.873 16.01-8.718 12.524-13.849 27.722-13.849 44.105 0 42.678 34.721 77.398 77.399 77.398h233.158c17.561 0 34.757-6.046 48.421-17.025 13.45-10.807 23.011-25.965 26.923-42.683.944-4.033-1.561-8.068-5.594-9.012-4.03-.942-8.068 1.561-9.012 5.594-6.631 28.336-31.607 48.126-60.739 48.126h-233.158c-34.407 0-62.399-27.992-62.399-62.399s27.992-62.398 62.399-62.398h233.158c29.131 0 54.108 19.791 60.739 48.126.944 4.033 4.975 6.536 9.012 5.594 4.033-.944 6.538-4.979 5.594-9.012-2.221-9.489-6.266-18.473-11.804-26.447 19.19-10.38 37.574-22.424 54.715-35.963 11.569-9.138 18.887-22.233 20.606-36.875 1.718-14.641-2.368-29.075-11.506-40.644z"/><path d="m298.43 266.009c-4.142 0-7.5 3.358-7.5 7.5s3.358 7.5 7.5 7.5h5.589c4.142 0 7.5-3.358 7.5-7.5s-3.358-7.5-7.5-7.5z"/><path d="m374.139 287.349c-4.142 0-7.5 3.358-7.5 7.5s3.358 7.5 7.5 7.5h20.325c4.142 0 7.5-3.358 7.5-7.5s-3.358-7.5-7.5-7.5z"/><path d="m343.652 325.458c-4.142 0-7.5 3.358-7.5 7.5s3.358 7.5 7.5 7.5h6.098c4.142 0 7.5-3.358 7.5-7.5s-3.358-7.5-7.5-7.5z"/><path d="m242.03 335.112c-4.142 0-7.5 3.358-7.5 7.5s3.358 7.5 7.5 7.5h6.097c4.142 0 7.5-3.358 7.5-7.5s-3.358-7.5-7.5-7.5z"/><path d="m168.642 294.971c-4.142 0-7.5 3.358-7.5 7.5s3.358 7.5 7.5 7.5h32.52c4.142 0 7.5-3.358 7.5-7.5s-3.358-7.5-7.5-7.5z"/><path d="m133.426 325.458h-6.098c-4.142 0-7.5 3.358-7.5 7.5s3.358 7.5 7.5 7.5h6.098c4.142 0 7.5-3.358 7.5-7.5s-3.358-7.5-7.5-7.5z"/></g></g></svg>