<svg id="Filled" height="512" viewBox="0 0 512 512" width="512" xmlns="http://www.w3.org/2000/svg"><path d="m5.206 101.373h237.588v45.255h-237.588z" fill="#9aa3a8" transform="matrix(.707 -.707 .707 .707 -51.362 124)"/><circle cx="296" cy="296" fill="#e9eef2" r="192.299"/><circle cx="296.299" cy="296.299" fill="#e9eef2" r="192.299"/><path d="m57.206 159.029h237.588v33.941h-237.588z" fill="#9aa3a8" transform="matrix(.707 -.707 .707 .707 -72.902 176)"/><path d="m44.52 135.029h214.96v33.941h-214.96z" fill="#7e8589" transform="matrix(.707 -.707 .707 .707 -62.96 152)"/><circle cx="256" cy="440" fill="#ffd33a" r="40"/><circle cx="336" cy="440" fill="#eb423f" r="40"/><circle cx="296" cy="368" fill="#ff750a" r="40"/><circle cx="408" cy="400" fill="#67c5e0" r="40"/><path d="m376 312h64v48h-64z" fill="#ffd33a"/><path d="m376 312-32-8v64l32-8z" fill="#f2c837"/><path d="m440 312 32-8v64l-32-8z" fill="#f2c837"/><circle cx="280" cy="296" fill="#ffd33a" r="32"/><path d="m176 432-32-32 8-24 40-40 24-8 32 32-8 24-40 40z" fill="#fda2c6"/><path d="m224 392-31.09 32-24.91-56 32-32c.07.14 24 56 24 56z" fill="#fb82b1"/><path d="m296 95.7c-6.666 0-13.365.347-19.984 1l-4.7-4.7 22.344-22.343a8 8 0 0 0 0-11.314l-40-40a8 8 0 0 0 -11.314 0l-22.346 22.344-22.343-22.344a8 8 0 0 0 -11.314 0l-168 168a8 8 0 0 0 0 11.314l5.657 5.656v52.687a8 8 0 0 0 8 8h12.687l11.313 11.313v20.687a8 8 0 0 0 16 0v-20.687l12-12 12.7 12.7c-.655 6.619-1 13.318-1 19.984 0 110.445 89.854 200.3 200.3 200.3a199.641 199.641 0 0 0 140.549-57.737 48.379 48.379 0 0 0 11.979-12.889 199.415 199.415 0 0 0 47.772-129.671c0-110.445-89.855-200.3-200.3-200.3zm-66.343-34.043a8 8 0 0 0 1.409-9.409l16.934-16.935 28.687 28.687-16.687 16.687-6.343-6.344a8 8 0 0 0 -11.314 0l-2.343 2.344-12.687-12.687zm-37.657-26.343 20.686 20.686-156.686 156.686-20.686-20.686zm-117.657 207.029a8 8 0 0 0 -1.409 9.409l-8.934 8.935-10.343-10.344a8 8 0 0 0 -5.657-2.343h-8v-28.687l10.343 10.344a8 8 0 0 0 11.314 0l2.343-2.344 12.687 12.687zm.97-26.343 140.687-140.687 12.687 12.687-140.687 140.687zm16 32 156.687-156.686 12.686 12.686-156.686 156.686zm61.839 149.839 5.839-17.518 5.88-5.879 17.611 46.964-4.322 1.441zm26.848 41.261 22.53-7.51a7.992 7.992 0 0 0 3.127-1.932l4.807-4.808a47.842 47.842 0 0 0 2.042 35.425 184.828 184.828 0 0 1 -32.506-21.175zm17.31-23.723-20.01-53.363 17.6-17.6 22.012 51.361zm12.468-76.869 4.061-1.354 25.008 25.008-5.839 17.518-3.91 3.909zm46.222 133.492a32 32 0 1 1 32-32 32.036 32.036 0 0 1 -32 32zm-15.151-77.536 4.808-4.807a7.992 7.992 0 0 0 1.932-3.127l2.044-6.13a47.681 47.681 0 0 0 4.847 11.639 47.7 47.7 0 0 0 -13.631 2.425zm55.151-58.464a32 32 0 1 1 -32 32 32.036 32.036 0 0 1 32-32zm-40-40a24 24 0 1 1 24 24 24.028 24.028 0 0 1 -24-24zm40 184.3c-4.448 0-8.856-.168-13.226-.479a48.38 48.38 0 0 0 13.226-13.328 48.38 48.38 0 0 0 13.226 13.327c-4.37.311-8.778.48-13.226.48zm40-8.3a32 32 0 1 1 32-32 32.036 32.036 0 0 1 -32 32zm24.039-73.52a47.655 47.655 0 0 0 -22.519-6.441 47.648 47.648 0 0 0 5.811-16.094c.223.018.444.055.669.055a8.007 8.007 0 0 0 1.94-.239l25.017-6.254a47.77 47.77 0 0 0 -10.918 28.973zm-8.039-40.726v-43.508l16 4v35.508zm27.494 102.52a47.67 47.67 0 0 0 4.467-18.754 47.624 47.624 0 0 0 16.9 5.947 184.61 184.61 0 0 1 -21.367 12.807zm56.058-44.026q-4.464 5.174-9.294 10.01a32.021 32.021 0 1 1 9.294-10.01zm-51.552-64.248v-32h48v32zm70.809 37.415a47.863 47.863 0 0 0 -9.766-19.908l17.916 4.479q-3.717 7.926-8.15 15.429zm9.191-31.661-16-4v-35.508l16-4zm16-51.363v-2.391a8 8 0 0 0 -9.94-7.761l-31.045 7.761h-62.03l-31.045-7.761a8 8 0 0 0 -9.94 7.761v37.507a48.207 48.207 0 0 0 -25.773-19.354 39.985 39.985 0 1 0 -46.519 10.365 48.163 48.163 0 0 0 -12.814 19.063l-29.237-29.238a8 8 0 0 0 -8.187-1.932l-24 8a7.992 7.992 0 0 0 -3.127 1.932l-40 40a7.992 7.992 0 0 0 -1.932 3.127l-6 18a183.186 183.186 0 0 1 -26.711-95.47 187.031 187.031 0 0 1 1.274-21.662l161.364-161.363a187.031 187.031 0 0 1 21.662-1.275c101.623 0 184.3 82.676 184.3 184.3 0 3.487-.108 6.95-.3 10.391z"/><path d="m296 136a8 8 0 0 0 0 16c49.4 0 94.709 25.5 121.2 68.216a8 8 0 0 0 13.6-8.432c-29.432-47.454-79.824-75.784-134.8-75.784z"/></svg>