<svg id="Filled" height="512" viewBox="0 0 512 512" width="512" xmlns="http://www.w3.org/2000/svg"><path d="m112 24h112v224h-112z" fill="#fdb432"/><path d="m104 216h128v48h-128z" fill="#cf3330"/><path d="m240 248v224a16 16 0 0 1 -16 16h-112a16 16 0 0 1 -16-16v-224z" fill="#eb423f"/><circle cx="200" cy="328" fill="#ff750a" r="40"/><circle cx="312" cy="368" fill="#ffb632" r="40"/><path d="m152 248h32v160h-32z" fill="#cf3330"/><path d="m144 320h48v48h-48z" fill="#fdb432"/><path d="m416 248v224a16 16 0 0 1 -16 16h-112a16 16 0 0 1 -16-16v-224z" fill="#fdb432"/><path d="m272 32h144v216h-144z" fill="#eb423f"/><path d="m328 248h32v160h-32z" fill="#ff750a"/><path d="m320 360h48v48h-48z" fill="#cf3330"/><path d="m400 176h-32l-16-24v-128h32v128z" fill="#cf3330"/><path d="m368 480a23.6 23.6 0 0 1 -1.38 8h-45.24a23.6 23.6 0 0 1 -1.38-8 24 24 0 0 1 48 0z" fill="#ff750a"/><path d="m416 280v48a24 24 0 0 1 0-48z" fill="#67c5e0"/><path d="m128 432a24.006 24.006 0 0 1 -24 24 23.6 23.6 0 0 1 -8-1.38v-45.24a23.6 23.6 0 0 1 8-1.38 24.006 24.006 0 0 1 24 24z" fill="#67c5e0"/><path d="m224 16h-112a8 8 0 0 0 -8 8v184a8 8 0 0 0 -8 8v24a8 8 0 0 0 -8 8v216a32.036 32.036 0 0 0 32 32h96a32.036 32.036 0 0 0 32-32v-216a8 8 0 0 0 -8-8v-24a8 8 0 0 0 -8-8v-184a8 8 0 0 0 -8-8zm-104 16h96v176h-64v-152a8 8 0 0 0 -16 0v152h-16zm-8 192h112v16h-112zm40 136v-32h32v32zm24 16v24h-16v-24zm-16-64v-56h16v56zm-56 104a16 16 0 0 1 0 32zm128 48a16.019 16.019 0 0 1 -16 16h-96a16.019 16.019 0 0 1 -16-16 32 32 0 0 0 0-64v-144h40v56a8 8 0 0 0 -8 8v48a8 8 0 0 0 8 8v32a8 8 0 0 0 8 8h32a8 8 0 0 0 8-8v-32h8a47.806 47.806 0 0 0 32-12.261zm-32-104v-40a8 8 0 0 0 -8-8v-14.992a32 32 0 1 1 8 62.992zm32-67.739a47.806 47.806 0 0 0 -32-12.261 48.336 48.336 0 0 0 -8 .673v-24.673h40z"/><path d="m296 496h96a32.036 32.036 0 0 0 32-32v-432a8 8 0 0 0 -8-8h-24a8 8 0 0 0 -8-8h-32a8 8 0 0 0 -8 8h-72a8 8 0 0 0 -8 8v432a32.036 32.036 0 0 0 32 32zm32-16a16 16 0 0 1 32 0zm80-162.165a15.963 15.963 0 0 1 0-27.67zm-48-285.835h16v120a8 8 0 0 0 1.344 4.438l7.708 11.562h-12.771l-12.281-18.422zm-80 8h64v112a8 8 0 0 0 1.344 4.438l16 24a8 8 0 0 0 6.656 3.562h32a8 8 0 0 0 6.656-12.438l-14.656-21.984v-109.578h16v200h-128zm80 328v32h-32v-32zm-24-16v-96h16v96zm-56-96h40v64.675a48.355 48.355 0 0 0 -8-.675 47.8 47.8 0 0 0 -32 12.262zm32 80a32.054 32.054 0 0 1 8 1.006v14.994a8 8 0 0 0 -8 8v40a32 32 0 0 1 0-64zm-32 67.738a47.8 47.8 0 0 0 32 12.262h56a8 8 0 0 0 8-8v-48a8 8 0 0 0 -8-8v-96h40v17.013a32 32 0 0 0 0 61.974v129.013a16.019 16.019 0 0 1 -16 16h-16a32 32 0 0 0 -64 0h-16a16.019 16.019 0 0 1 -16-16z"/></svg>