<svg id="Capa_1" enable-background="new 0 0 512.593 512.593" height="512" viewBox="0 0 512.593 512.593" width="512" xmlns="http://www.w3.org/2000/svg"><g><g><path d="m417.186 143.209s-90.217-48.182-92.407-48.182c-1.738 0-49.82 34.551-67.57 45.907v17.125h-109.844v-51.552l-51.958 36.703c-9.84 6.54-15.43 17.84-14.65 29.63l2.31 35.17 89.135 89.834h206.392l50.933-89.834 2.31-35.17c.779-11.791-4.811-23.091-14.651-29.631z" fill="#81d9f8"/><g id="XMLID_181_"><g><path d="m386.983 82.035c0-6.068-4.919-10.987-10.987-10.987h-30.301c-6.068 0-10.987 4.919-10.987 10.987v283.848h52.275z" fill="#fcf0b6"/><path d="m282.434 291.132h-52.275v-272.645c0-6.068 4.919-10.987 10.987-10.987h30.301c6.068 0 10.987 4.919 10.987 10.987z" fill="#fcf0b6"/><path d="m334.708 49.586c0-6.068-4.919-10.987-10.987-10.987h-30.301c-6.068 0-10.987 4.919-10.987 10.987v275.676h54.055z" fill="#fbe372"/><path d="m230.159 121.826c0-6.068-4.919-10.987-10.987-10.987h-30.301c-6.068 0-10.987 4.919-10.987 10.987v188.183h52.275z" fill="#fbe372"/><path d="m177.885 54.699c0-6.068-4.919-10.987-10.987-10.987h-30.301c-6.068 0-10.987 4.919-10.987 10.987v264.966h52.275z" fill="#fcf0b6"/></g></g><path d="m421.229 334.518 8.298-126.51h-48.16c-3.87 0-7.58 1.54-10.32 4.27l-32.57 32.58c-2.74 2.74-6.46 4.27-10.33 4.27h-143.7c-3.87 0-7.59-1.53-10.33-4.27l-32.57-32.58c-2.74-2.73-6.45-4.27-10.32-4.27h-48.16l2.838 43.265h30.707v202.023h-17.458l1.552 23.662c1.04 15.83 14.18 28.13 30.04 28.13h251.1c15.86 0 29-12.3 30.04-28.13l4.678-71.331-15.166-13.22v-43.032z" fill="#cfeffc"/><g><path d="m172.964 461.765c-15.86 0-29-12.3-30.04-28.13l-14.799-225.627h-45.059l8.298 126.511.002-.001 13.432 6.537 2.276 52.651-11.047 11.922 4.678 71.33c1.04 15.83 14.18 28.13 30.04 28.13h251.1c15.86 0 29-12.3 30.04-28.13l.996-15.193z" fill="#a9e4f9"/><g id="XMLID_182_"><g><path d="m421.226 334.519-4.66 71.11h-29.58l-28.34 20.44c-10.93 7.88-24.05 12.12-37.52 12.12h-129.66c-13.47 0-26.59-4.24-37.52-12.12l-28.34-20.44h-29.58l-4.66-71.11h34.24l28.34-20.44c10.93-7.88 24.05-12.12 37.52-12.12h129.66c13.47 0 26.59 4.24 37.52 12.12l28.34 20.44z" fill="#fcf6ed"/></g></g><path d="m125.606 405.629 16.25 11.719-5.922-90.278-10.328 7.449h-34.24l2.863 43.676 1.799 27.434z" fill="#fcf1de"/></g></g><g><path d="m421.334 136.961-26.852-17.846v-37.08c0-10.194-8.293-18.487-18.487-18.487h-30.301c-1.193 0-2.356.124-3.486.34v-14.302c0-10.194-8.293-18.487-18.487-18.487h-30.301c-1.193 0-2.357.123-3.487.34v-12.952c0-10.194-8.293-18.487-18.486-18.487h-30.301c-10.193 0-18.486 8.293-18.486 18.487v85.193c-1.131-.217-2.294-.34-3.487-.34h-30.301c-1.193 0-2.357.124-3.487.34v-48.981c0-10.194-8.293-18.487-18.486-18.487h-30.301c-10.194 0-18.487 8.293-18.487 18.487v64.416l-26.853 17.845c-12.044 8.003-18.938 21.94-17.991 36.371l5.383 82.027c.261 3.966 3.559 7.009 7.477 7.009.165 0 .332-.005.499-.017 4.133-.271 7.264-3.842 6.993-7.975l-2.551-38.868h40.163c1.893 0 3.674.737 5.012 2.076l32.575 32.576c4.176 4.174 9.726 6.473 15.628 6.473h143.701c5.902 0 11.452-2.299 15.629-6.474l32.573-32.574c1.339-1.339 3.12-2.077 5.013-2.077h40.163l-7.318 111.508h-24.801l-26.377-19.024c-12.275-8.854-26.764-13.533-41.897-13.533h-10.213c-4.143 0-7.5 3.358-7.5 7.5s3.357 7.5 7.5 7.5h10.213c11.965 0 23.418 3.7 33.123 10.699l28.341 20.441c1.277.921 2.812 1.417 4.388 1.417h26.24l-3.682 56.115h-22.557c-1.575 0-3.11.496-4.388 1.417l-28.34 20.441c-9.705 6.999-21.159 10.699-33.124 10.699h-129.67c-11.965 0-23.419-3.7-33.123-10.699l-28.341-20.441c-1.277-.921-2.812-1.417-4.388-1.417h-22.557l-3.683-56.115h26.24c1.575 0 3.11-.496 4.388-1.417l28.34-20.441c9.706-7 21.159-10.699 33.124-10.699h87.494c4.143 0 7.5-3.358 7.5-7.5s-3.357-7.5-7.5-7.5h-87.494c-15.134 0-29.622 4.68-41.898 13.533l-26.376 19.024h-24.804l-2.67-40.677c-.271-4.133-3.855-7.275-7.975-6.993-4.133.271-7.264 3.842-6.993 7.975l12.478 190.131c1.293 19.706 17.775 35.141 37.523 35.141h251.096c19.748 0 36.23-15.436 37.523-35.141l19.958-304.122c.947-14.429-5.947-28.365-17.991-36.368zm-183.674-118.474c0-1.923 1.564-3.487 3.486-3.487h30.301c1.922 0 3.486 1.564 3.486 3.487v120.449c0 4.142 3.357 7.5 7.5 7.5s7.5-3.358 7.5-7.5v-89.35c0-1.923 1.564-3.487 3.487-3.487h30.301c1.923 0 3.487 1.564 3.487 3.487v192.046h-37.275v-70.734c0-4.142-3.357-7.5-7.5-7.5s-7.5 3.358-7.5 7.5v70.734h-37.273zm-48.788 99.852h30.301c1.923 0 3.487 1.564 3.487 3.487v119.806h-37.275v-119.806c-.001-1.923 1.564-3.487 3.487-3.487zm-100.636 54.01c-.597-9.084 3.743-17.857 11.325-22.896l18.549-12.328v63.382h-28.026zm58.613 34.627c-3.726-3.724-8.55-5.942-13.739-6.377v-145.9c0-1.923 1.564-3.487 3.487-3.487h30.301c1.923 0 3.486 1.564 3.486 3.487v175.813zm218.894.001-23.534 23.535v-148.477c0-1.923 1.564-3.487 3.486-3.487h30.301c1.923 0 3.487 1.564 3.487 3.487v118.564c-5.189.435-10.013 2.653-13.74 6.378zm28.74-6.469v-63.382l18.549 12.328c7.582 5.038 11.922 13.811 11.325 22.895l-1.848 28.159zm-12.639 297.085h-251.095c-11.871 0-21.778-9.278-22.555-21.123l-4.157-63.339h19.15l26.377 19.024c12.275 8.853 26.763 13.533 41.897 13.533h129.67c15.135 0 29.622-4.68 41.898-13.533l26.376-19.024h19.15l-4.157 63.339c-.775 11.844-10.683 21.123-22.554 21.123z"/></g></g></svg>