<svg id="Capa_1" enable-background="new 0 0 511.027 511.027" height="512" viewBox="0 0 511.027 511.027" width="512" xmlns="http://www.w3.org/2000/svg"><g><g><path d="m192.378 366.788-82.282 132.321c-2.763 4.443-8.678 5.759-13.212 2.94l-8.923-5.549c-4.534-2.819-5.97-8.707-3.207-13.15l81.991-131.852 48.56-77.612 28.703 13.104z" fill="#f6e2c4"/><path d="m256.175 269.512-87.016 1.786-27.141 33.399-1.752.781c4.055 21.646 16.825 41.586 37.002 54.133 38.15 23.72 88.32 12.03 112.05-26.13 5.263-8.467 8.787-17.515 10.661-26.744z" fill="#d8efa7"/><g><path d="m169.159 271.298-28.951 34.019c4.055 21.646 16.882 41.746 37.059 54.294 13.848 8.61 29.284 12.554 44.46 12.261l-11.305-6.048c-32.182-20.504-45.122-59.968-33.335-94.688z" fill="#c5e97d"/></g><g id="XMLID_197_"><g><path d="m301.597 290.517c0 5.55-.56 10.98-1.62 16.22-22.35 8.09-46.93 7.83-69.19-.81l-9.55-3.7c-21.36-8.3-44.95-8.89-66.7-1.68l-12.52 4.15-1.81.62c-.89-4.8-1.35-9.74-1.35-14.8 0-44.93 36.43-81.36 81.37-81.36s81.37 36.43 81.37 81.36z" fill="#e5bda7"/></g></g><path d="m220.228 209.157c-44.94 0-81.37 36.43-81.37 81.36 0 5.06.46 10 1.35 14.8l14.33-4.77c5.969-1.979 12.078-3.348 18.239-4.154.134-14.419 4.102-28.984 12.271-42.123 1.519-2.442 3.146-4.776 4.871-6.999 4.409-5.68 13.01-5.835 17.484-.206 6.8 8.558 15.17 16.012 24.89 21.981 15.052 9.242 32.334 14.127 49.979 14.128h.005c6.392 0 12.704-.602 18.809-1.802-4.55-40.621-39.014-72.215-80.858-72.215z" fill="#dfae91"/><path d="m344.434 223.83-20.281-41.992-82.894-26.791-38.613 42.04c2.353 23.586 15.536 45.694 37.494 59.178 37.482 23.014 86.774 11.672 110.089-25.352.506-.803.973-1.619 1.446-2.433z" fill="#fcf6ed"/><g><path d="m237.922 169.82-8.693 2.173-26.582 25.094c2.358 23.578 15.543 45.698 37.494 59.178 13.601 8.351 28.775 12.177 43.68 11.896-4.207-1.681-8.352-3.737-12.337-6.184-32.11-19.719-45.12-58.248-33.562-92.157z" fill="#fcf1de"/></g><path d="m283.557 109.687c-44.81 0-81.15 36.34-81.15 81.15 0 2.1.08 4.19.24 6.25l26.7-7.45c7.28-2.04 14.73-3.04 22.16-3.04 14.46 0 28.81 3.81 41.53 11.24 21.32 12.45 35.72 33.67 39.7 57.57.74 4.44 1.12 8.97 1.12 13.55v58.74c0 4.2 1.7 8 4.46 10.76 2.75 2.76 6.55 4.46 10.75 4.46 8.41 0 15.22-6.82 15.22-15.22 0 0 .43-134.03.43-136.86 0-44.81-36.34-81.15-81.16-81.15z" fill="#dfae91"/><path d="m301.597 115.034 93.504 4.394 32.548-31.185c.04-27.227-13.568-53.849-38.392-69.286-38.16-23.72-88.32-12.03-112.05 26.13-8.329 13.396-12.275 28.273-12.259 42.968z" fill="#ffc3e5"/><path d="m389.258 18.957c-38.16-23.72-88.32-12.03-112.05 26.13-8.328 13.395-12.295 28.266-12.28 42.96.189.065 14.945 5.026 32.655 10.983.469-13.751 4.433-27.568 12.219-40.091 18.185-29.243 51.9-42.934 83.833-37.064-1.42-1.013-2.876-1.985-4.377-2.918z" fill="#f2b2de"/><path d="m328.592 123.343.003-.012c-12.888-8.614-28.374-13.645-45.038-13.645-44.81 0-81.15 36.34-81.15 81.15 0 2.1.08 4.19.24 6.25l26.7-7.45c1.555-.436 3.117-.824 4.685-1.166.997-12.117 4.832-24.176 11.778-35.209 1.517-2.409 3.145-4.708 4.873-6.894 4.889-6.187 14.298-5.91 19.102.343 6.949 9.044 15.571 16.914 25.632 23.164 15.297 9.512 32.863 14.539 50.801 14.538 6.152 0 12.202-.577 18.094-1.685-2.458-24.764-16.065-46.243-35.72-59.384z" fill="#d79c7a"/><path d="m427.664 88.229c-.02 14.63-3.986 29.447-12.276 42.777-23.73 38.16-73.9 49.85-112.05 26.13-24.77-15.39-38.38-41.93-38.41-69.09h.01l12.51-4.15c21.75-7.21 45.34-6.61 66.71 1.68l9.54 3.7c23.859 9.261 50.386 8.883 73.966-1.047z" fill="#e5bda7"/><path d="m300.749 79.194c-7.88.617-15.698 2.182-23.302 4.703l-12.52 4.15c.03 27.16 13.64 53.7 38.41 69.09 8.916 5.544 18.478 9.151 28.216 10.941-28.525-20.368-40.259-56.361-30.804-88.884z" fill="#dfae91"/></g><g><path d="m432.83 67.869c-5.39-23.114-19.457-42.746-39.612-55.279-10.558-6.565-22.138-10.775-34.419-12.514-4.109-.586-7.897 2.273-8.478 6.375-.581 4.101 2.273 7.896 6.374 8.477 10.203 1.445 19.826 4.944 28.601 10.401 16.753 10.417 28.446 26.735 32.927 45.947.92 3.947 1.495 7.918 1.766 11.883-20.626 7.379-43.006 7.115-63.575-.869l-9.548-3.706c-22.934-8.902-48.426-9.542-71.779-1.803l-1.855.615c1.412-9.782 4.803-19.434 10.347-28.35 10.036-16.139 25.709-27.665 44.131-32.454 4.009-1.042 6.414-5.137 5.372-9.146-1.042-4.008-5.131-6.416-9.146-5.372-22.163 5.761-41.02 19.629-53.096 39.05-25.872 41.606-13.071 96.504 28.534 122.377 14.264 8.87 30.364 13.433 46.753 13.432 6.769 0 13.59-.779 20.346-2.354 23.114-5.39 42.746-19.458 55.279-39.612 12.534-20.155 16.467-43.984 11.078-67.098zm-86.654 94.013c-13.307-.001-26.773-3.59-38.88-11.119-20.815-12.943-32.94-34.628-34.619-57.382l7.128-2.362c20.052-6.646 41.941-6.095 61.633 1.548l9.548 3.706c12.431 4.825 25.426 7.233 38.413 7.232 10.078 0 20.146-1.476 29.938-4.374-1.483 9.784-4.94 19.259-10.323 27.915-13.975 22.476-38.136 34.838-62.838 34.836z"/><path d="m302.156 291.609c-4.124-.437-7.812 2.547-8.25 6.666-.097.909-.216 1.813-.345 2.714-19.638 6.118-40.802 5.425-60.061-2.05l-9.548-3.706c-22.935-8.902-48.426-9.543-71.779-1.803l-5.371 1.78c-.989-14.881 2.476-30.19 10.934-43.793 5.942-9.557 13.742-17.429 23.183-23.399 3.501-2.214 4.544-6.847 2.33-10.348-2.215-3.501-6.847-4.543-10.348-2.33-11.368 7.189-20.756 16.663-27.903 28.156-22.079 35.507-15.974 80.679 12.142 109.244l-44.089 70.9c-2.188 3.518-1.108 8.142 2.408 10.33 1.233.767 2.602 1.132 3.954 1.132 2.506 0 4.955-1.256 6.376-3.541l42.884-68.963c1.579 1.131 3.187 2.234 4.859 3.274 2.566 1.596 5.194 3.047 7.87 4.362l-77.675 124.913c-.576.925-1.868 1.164-2.883.532l-8.924-5.549c-.696-.433-.934-1.047-1.014-1.374-.088-.36-.122-.903.216-1.446l17.789-28.608c2.188-3.518 1.108-8.142-2.409-10.33-3.516-2.187-8.142-1.109-10.329 2.409l-17.787 28.609c-2.41 3.875-3.139 8.464-2.052 12.922 1.074 4.402 3.797 8.151 7.666 10.558l8.924 5.549c2.841 1.767 5.996 2.609 9.108 2.609 5.691 0 11.236-2.819 14.433-7.958l79.162-127.303c8.009 2.343 16.296 3.539 24.659 3.538 6.769 0 13.589-.779 20.346-2.354 23.113-5.389 42.745-19.457 55.278-39.612 7.146-11.493 11.49-24.102 12.911-37.479.438-4.12-2.546-7.813-6.665-8.251zm-64.93 70.733c-19.211 4.478-39.018 1.21-55.771-9.208-16.349-10.166-27.338-25.727-32.118-42.962l7.555-2.504c20.051-6.645 41.941-6.095 61.633 1.548l9.548 3.706c12.35 4.793 25.37 7.194 38.398 7.193 7.597 0 15.191-.846 22.659-2.487-1.617 4.061-3.601 7.998-5.958 11.788-10.416 16.753-26.734 28.447-45.946 32.926z"/><path d="m364.285 190.382c-4.143 0-7.5 3.358-7.5 7.5v56.734c0 4.142 3.357 7.5 7.5 7.5s7.5-3.358 7.5-7.5v-56.734c0-4.142-3.358-7.5-7.5-7.5z"/><path d="m364.285 279.079c-4.143 0-7.5 3.358-7.5 7.5v41.121c0 4.252-3.46 7.712-7.712 7.712-4.253 0-7.713-3.46-7.713-7.712v-58.743c0-31.818-17.068-61.551-44.564-77.608-.156-.09-.313-.176-.542-.299-.007-.004-.015-.007-.022-.011-20.756-11.916-45.869-15.061-68.906-8.626l-17.749 4.958c.3-12.738 3.879-25.557 11.081-37.138 5.943-9.557 13.743-17.43 23.183-23.4 3.501-2.214 4.544-6.847 2.33-10.348-2.215-3.501-6.847-4.542-10.348-2.33-11.367 7.189-20.755 16.662-27.903 28.157-25.872 41.606-13.072 96.504 28.535 122.377 14.178 8.816 30.265 13.412 46.805 13.411 1.618 0 3.244-.044 4.869-.132 13.526-.736 26.521-4.488 38.199-10.943.017.643.032 1.287.032 1.933v58.743c0 12.523 10.189 22.712 22.713 22.712s22.712-10.189 22.712-22.712v-41.121c0-4.143-3.358-7.501-7.5-7.501zm-119.909-27.13c-18.346-11.408-29.951-29.605-33.597-49.341l20.582-5.75c19.2-5.363 40.135-2.737 57.435 7.205.055.032.348.193.455.25 17.559 10.254 30.007 27.221 34.857 46.533-23.833 15.709-55.284 16.306-79.732 1.103z"/></g></g></svg>