<svg id="Filled" height="512" viewBox="0 0 512 512" width="512" xmlns="http://www.w3.org/2000/svg"><path d="m240 328h32v160h-32z" fill="#dadcde"/><circle cx="256" cy="192" fill="#eb423f" r="168"/><path d="m304 344v64l-48-24-48 24v-64l48 24z" fill="#35a872"/><g fill="#dfe1e4"><path d="m256 288a96 96 0 1 1 96-96 96.108 96.108 0 0 1 -96 96zm0-176a80 80 0 1 0 80 80 80.091 80.091 0 0 0 -80-80z"/><path d="m256 240a48 48 0 1 1 48-48 48.054 48.054 0 0 1 -48 48zm0-80a32 32 0 1 0 32 32 32.036 32.036 0 0 0 -32-32z"/><path d="m256 72a120 120 0 1 0 120 120 120 120 0 0 0 -120-120zm0 208a88 88 0 1 1 88-88 88 88 0 0 1 -88 88z"/><circle cx="256" cy="192" r="32"/></g><path d="m240 496h32a8 8 0 0 0 8-8v-83.056l20.422 10.211a8 8 0 0 0 11.578-7.155v-49.109a177.552 177.552 0 0 0 84.4-60.746 174.463 174.463 0 0 0 35.6-106.145c0-97.047-78.953-176-176-176s-176 78.953-176 176a174.463 174.463 0 0 0 35.6 106.145 177.552 177.552 0 0 0 84.4 60.746v49.109a8 8 0 0 0 11.578 7.155l20.422-10.211v83.056a8 8 0 0 0 8 8zm24-16h-16v-83.056l8-4 8 4zm-60.206-142.8a8 8 0 0 0 -3.54 4.812 161.559 161.559 0 0 1 -71.9-53.521 158.58 158.58 0 0 1 -32.354-96.491c0-88.224 71.775-160 160-160s160 71.776 160 160a158.58 158.58 0 0 1 -32.354 96.486 161.559 161.559 0 0 1 -71.9 53.521 8 8 0 0 0 -11.324-5.162l-44.422 22.211-44.422-22.211a8 8 0 0 0 -7.784.355zm12.206 57.856v-38.112l36.422 18.211a8 8 0 0 0 7.156 0l36.422-18.211v38.112l-36.422-18.211a8 8 0 0 0 -7.156 0z"/><path d="m392 192c0-74.991-61.01-136-136-136s-136 61.009-136 136 61.01 136 136 136 136-61.009 136-136zm-256 0a120 120 0 1 1 120 120 120.136 120.136 0 0 1 -120-120z"/><path d="m352 192a96 96 0 1 0 -96 96 96.108 96.108 0 0 0 96-96zm-176 0a80 80 0 1 1 80 80 80.091 80.091 0 0 1 -80-80z"/><path d="m304 192a48 48 0 1 0 -48 48 48.054 48.054 0 0 0 48-48zm-80 0a32 32 0 1 1 32 32 32.036 32.036 0 0 1 -32-32z"/></svg>