<svg id="Filled" height="512" viewBox="0 0 512 512" width="512" xmlns="http://www.w3.org/2000/svg"><path d="m232 24-24 64v24h-128v-24l-24-64z" fill="#dbb532"/><path d="m232 488h-176l24-64v-16h128v16z" fill="#dbb532"/><path d="m256 152v208a63.92 63.92 0 0 1 -64 64h-96a64 64 0 0 1 -64-64v-208a63.92 63.92 0 0 1 64-64h96a64 64 0 0 1 64 64z" fill="#ffd33a"/><g fill="#f2c837"><path d="m256 352v8c0 21.17-13.49 42.08-30.85 54.76a68.323 68.323 0 0 1 -17.15 9.24l-2.94-1.34-173.06-78.66v-96z"/><path d="m256 168v96l-224-104v-8c0-21.17 13.49-42.08 30.85-54.76a64.108 64.108 0 0 1 11.61-5.53 61.8 61.8 0 0 1 8.48-2.37z"/><path d="m120 88-8-64h64l-8 64z"/><path d="m168 424 8 64h-64l8-64z"/></g><path d="m480 440 8 48-16-16-16 16-16-16-16 16-16-16-16 16-16-16-16 16-16-16-16 16-16-16-16 16 8-48v-272l-8-48 16 16 16-16 16 16 16-16 16 16 16-16 16 16 16-16 16 16 16-16 16 16 16-16-8 48z" fill="#ff9494"/><rect fill="#eb423f" height="272" rx="32" width="192" x="296" y="168"/><path d="m296 264h192v80h-192z" fill="#ff9494"/><path d="m49.425 492.557a8 8 0 0 0 6.575 3.443h176a8 8 0 0 0 7.491-10.809l-21.731-57.948a72.181 72.181 0 0 0 46.24-67.243v-208a72.107 72.107 0 0 0 -46.248-67.221l21.739-57.97a8 8 0 0 0 -7.491-10.809h-176a8 8 0 0 0 -7.491 10.809l21.731 57.948a72.181 72.181 0 0 0 -46.24 67.243v208a72.107 72.107 0 0 0 46.248 67.221l-21.739 57.97a8 8 0 0 0 .916 7.366zm71.637-12.557 6-48h33.876l6 48zm99.394 0h-37.394l-6-48h14.938a72.662 72.662 0 0 0 10.183-.728zm-37.394-448h37.394l-18.275 48.733a72.284 72.284 0 0 0 -10.181-.733h-14.938zm-16.124 0-6 48h-33.876l-6-48zm25.062 64a56.064 56.064 0 0 1 56 56v3.576l-131.068-59.576zm-124.456-64h37.394l6 48h-14.938a72.662 72.662 0 0 0 -10.183.728zm-27.544 120a56.145 56.145 0 0 1 37.147-52.755c1.629-.581 3.282-1.078 4.952-1.5l165.901 75.406v78.315l-208-96.572zm0 20.534 208 96.572v70.36l-208-96.572zm0 88 208 96.572v2.894a56.145 56.145 0 0 1 -37.147 52.755c-1.629.581-3.282 1.078-4.952 1.5l-165.901-75.406zm0 99.466v-3.576l131.068 59.576h-75.068a56.064 56.064 0 0 1 -56-56zm45.819 71.267a72.284 72.284 0 0 0 10.181.733h14.938l-6 48h-37.394z"/><path d="m496 408v-208a39.947 39.947 0 0 0 -15.663-31.713l15.252-45.757a8 8 0 0 0 -13.246-8.187l-10.343 10.343-10.343-10.343a8 8 0 0 0 -11.314 0l-10.343 10.343-10.343-10.343a8 8 0 0 0 -11.314 0l-10.343 10.343-10.343-10.343a8 8 0 0 0 -11.314 0l-10.343 10.343-10.343-10.343a8 8 0 0 0 -11.314 0l-10.343 10.343-10.343-10.343a8 8 0 0 0 -11.314 0l-10.343 10.343-10.343-10.343a8 8 0 0 0 -13.246 8.187l15.252 45.757a39.947 39.947 0 0 0 -15.663 31.713v208a39.947 39.947 0 0 0 15.663 31.713l-15.252 45.757a8 8 0 0 0 13.246 8.187l10.343-10.343 10.343 10.343a8 8 0 0 0 11.314 0l10.343-10.343 10.343 10.343a8 8 0 0 0 11.314 0l10.343-10.343 10.343 10.343a8 8 0 0 0 11.314 0l10.343-10.343 10.343 10.343a8 8 0 0 0 11.314 0l10.343-10.343 10.343 10.343a8 8 0 0 0 11.314 0l10.343-10.343 10.343 10.343a8 8 0 0 0 13.246-8.187l-15.252-45.757a39.947 39.947 0 0 0 15.663-31.713zm-178.343-266.343 10.343-10.343 10.343 10.343a8 8 0 0 0 11.314 0l10.343-10.343 10.343 10.343a8 8 0 0 0 11.314 0l10.343-10.343 10.343 10.343a8 8 0 0 0 11.314 0l10.343-10.343 10.343 10.343a8 8 0 0 0 11.314 0l10.343-10.343 10.343 10.343a7.974 7.974 0 0 0 5.228 2.332l-5.745 17.236a39.9 39.9 0 0 0 -9.826-1.225h-128a39.9 39.9 0 0 0 -9.826 1.225l-5.745-17.236a7.974 7.974 0 0 0 5.228-2.332zm148.686 324.686-10.343 10.343-10.343-10.343a8 8 0 0 0 -11.314 0l-10.343 10.343-10.343-10.343a8 8 0 0 0 -11.314 0l-10.343 10.343-10.343-10.343a8 8 0 0 0 -11.314 0l-10.343 10.343-10.343-10.343a8 8 0 0 0 -11.314 0l-10.343 10.343-10.343-10.343a7.974 7.974 0 0 0 -5.228-2.332l5.745-17.236a39.9 39.9 0 0 0 9.826 1.225h128a39.9 39.9 0 0 0 9.826-1.225l5.745 17.236a7.974 7.974 0 0 0 -5.228 2.332zm13.657-58.343a24.028 24.028 0 0 1 -24 24h-128a24.028 24.028 0 0 1 -24-24v-56h176zm0-72h-176v-64h176zm0-80h-176v-56a24.028 24.028 0 0 1 24-24h128a24.028 24.028 0 0 1 24 24z"/></svg>