<svg id="Capa_1" enable-background="new 0 0 513.805 513.805" height="512" viewBox="0 0 513.805 513.805" width="512" xmlns="http://www.w3.org/2000/svg"><g><g><circle cx="251.995" cy="342.852" fill="#f7d8a4" r="116.311"/><path d="m352.542 182.344s-21.853-16.645-22.514-16.865c-.662-.221-104.35-14.119-104.35-14.119l-41.134 21.226-8.003 35.178s-7.301 2.892-13.169 5.251c7.242 47.449 46.808 83.729 94.53 83.729 52.86 0 95.72-44.51 95.72-99.41 0-5.099-.37-10.099-1.08-14.99z" fill="#f6e2c4"/><path d="m270.584 253.872c-6.553 7.817-18.609 8.049-25.145.217-3.559-4.264-7.441-8.268-11.627-11.969-13.399-11.849-29.364-20.137-46.474-24.334l3.936 19.518 47.987 52.762-3.179 4.075c7.009 1.699 14.312 2.605 21.82 2.605 47.295 0 86.595-35.656 94.343-82.481-32.552.613-61.753 15.859-81.661 39.607z" fill="#f7d8a4"/><path d="m202.138 197.332c0-13.061 2.302-25.583 6.517-37.187l-39.012 20.131-5.313 12.149.592.24-.209 3.456-2.519 2.132c.475 54.477 43.144 98.493 95.709 98.493 2.648 0 5.27-.117 7.864-.336-37.545-17.19-63.629-55.086-63.629-99.078z" fill="#f7d8a4"/><path d="m448.912 312.564s-21.853-16.645-22.514-16.865c-.662-.221-104.35-14.119-104.35-14.119l-56.035 28.915-4.815 11.01 1.109.288-.58 3.245-3.163 3.431c.474 54.478 43.143 98.496 95.709 98.496 52.86 0 95.72-44.51 95.72-99.41-.001-5.101-.371-10.101-1.081-14.991z" fill="#f6e2c4"/><path d="m255.824 312.938s-21.853-16.645-22.514-16.865c-.662-.221-104.35-14.119-104.35-14.119l-44.494 22.959-11.926 41.655s-2.127 1.063-4.904 2.472c9.323 44.758 47.665 78.297 93.549 78.297 52.86 0 95.72-44.51 95.72-99.41-.001-5.099-.371-10.099-1.081-14.989z" fill="#f6e2c4"/><path d="m255.824 312.938-9.4 5.706c-11.71 5.73-24.4 8.58-37.07 8.58-14.23 0-28.44-3.6-41.23-10.75-26.72-14.94-59.44-14.25-85.51 1.81l-17.15 10.57c.1-54.82 42.92-99.23 95.72-99.23 47.95 0 87.68 35.514 94.64 83.314z" fill="#fcf0b6"/><path d="m105.42 327.925c0-13.061 2.302-25.583 6.517-37.187l-39.012 20.131-6.619 15.135.043-.006v1.595l-.873 1.246c.472 54.48 43.142 98.499 95.709 98.499 2.648 0 5.27-.117 7.864-.336-37.545-17.189-63.629-55.085-63.629-99.077z" fill="#f7d8a4"/><path d="m166.967 229.824c-1.915-.119-3.839-.201-5.782-.201-52.8 0-95.62 44.41-95.72 99.23l17.15-10.57c7.73-4.762 16.047-8.161 24.617-10.214 6.364-34.551 29.032-63.392 59.735-78.245z" fill="#fbe88c"/><g><g><path d="m352.542 183.461-9.4 4.59c-11.71 5.73-24.4 8.58-37.07 8.58-14.23 0-28.44-3.6-41.23-10.75-26.72-14.94-59.44-14.25-85.51 1.81l-17.15 10.57c.1-54.82 42.92-99.23 95.72-99.23 47.95 0 87.68 36.63 94.64 84.43z" fill="#fcf0b6"/></g></g><path d="m263.705 99.215c-1.915-.119-3.859-.184-5.802-.184-52.8 0-95.62 44.41-95.72 99.23l17.15-10.57c7.73-4.762 16.043-8.173 24.613-10.225 6.364-34.553 29.056-63.399 59.759-78.251z" fill="#fbe88c"/><g><path d="m298.508 327.552c0-13.061 2.302-25.583 6.517-37.187l-39.012 20.131-7.347 16.799s-.114 1.127-.114 1.187c0 54.9 42.86 98.484 95.72 98.484 2.648 0 5.27-.117 7.864-.336-37.544-17.19-63.628-55.086-63.628-99.078z" fill="#f7d8a4"/><path d="m200.735 388.153-24.841-24.841c-1.603-1.603-3.776-2.503-6.043-2.503h-155.042c-4.037 0-7.309 3.272-7.309 7.309v14.888c0 1.37.385 2.712 1.111 3.874l52.976 84.762c5.215 8.343 14.36 13.412 24.198 13.412h342.234c9.839 0 18.984-5.069 24.198-13.412l52.976-84.762c.726-1.162 1.111-2.504 1.111-3.874v-14.888c0-4.037-3.272-7.309-7.309-7.309h-155.042c-2.266 0-4.44.9-6.043 2.503l-24.841 24.841c-1.603 1.603-3.776 2.503-6.043 2.503h-100.25c-2.265 0-4.439-.9-6.041-2.503z" fill="#cfeffc"/><path d="m122.21 448.571c-9.839 0-18.984-5.069-24.198-13.412l-46.468-74.349h-36.735c-4.037 0-7.309 3.272-7.309 7.309v14.888c0 1.37.385 2.712 1.111 3.874l52.976 84.762c5.215 8.343 14.359 13.412 24.198 13.412h342.234c9.839 0 18.984-5.069 24.198-13.412l14.482-23.172c-.747.059-344.489.1-344.489.1z" fill="#a9e4f9"/><g><g><path d="m448.912 312.564-9.4 5.706c-11.71 5.73-24.4 8.58-37.07 8.58-14.23 0-28.44-3.6-41.23-10.75-26.72-14.94-59.44-14.25-85.51 1.81l-17.15 10.57c.1-54.82 42.92-99.23 95.72-99.23 47.95.001 87.68 35.514 94.64 83.314z" fill="#fcf0b6"/></g></g></g><path d="m360.078 229.43c-1.915-.119-3.862-.18-5.806-.18-52.8 0-95.62 44.41-95.72 99.23l17.15-10.57c7.73-4.762 16.047-8.161 24.617-10.214 6.365-34.552 29.056-63.414 59.759-78.266z" fill="#fbe88c"/></g><g><path d="m498.995 353.31h-42.035c2.127-8.381 3.226-17.003 3.226-25.758 0-30.096-12.976-58.766-35.6-78.661-3.111-2.735-7.85-2.431-10.585.68s-2.431 7.85.68 10.585c14.184 12.472 23.935 28.971 28.151 47.026l-6.612 3.232c-22.66 11.075-49.331 10.338-71.344-1.971-29.072-16.257-64.749-15.502-93.107 1.971l-4.905 3.022c6.791-42.788 43.936-75.602 88.604-75.602 11.759 0 23.197 2.245 33.998 6.671 3.835 1.57 8.213-.263 9.784-4.096s-.263-8.213-4.096-9.784c-11.328-4.642-23.251-7.223-35.5-7.703 2.287-8.668 3.466-17.598 3.466-26.674 0-38.667-21.067-72.502-52.324-90.64v-76.858c0-4.142-3.358-7.5-7.5-7.5s-7.5 3.358-7.5 7.5v69.689c-11.619-4.457-24.225-6.907-37.394-6.907-57.742 0-104.718 46.976-104.718 104.718 0 9.072 1.173 17.999 3.455 26.666-10.433.382-20.68 2.293-30.512 5.711-3.912 1.36-5.981 5.635-4.621 9.547 1.361 3.913 5.636 5.982 9.547 4.621 9.465-3.291 19.383-4.96 29.479-4.96 42.463 0 78.129 29.653 87.382 69.339l-6.63 3.241c-22.66 11.076-49.331 10.338-71.344-1.971-29.073-16.257-64.749-15.502-93.107 1.971l-4.912 3.026c3.491-22.216 15.172-42.293 33.239-56.485 3.257-2.559 3.824-7.273 1.265-10.531-2.558-3.257-7.273-3.823-10.531-1.265-25.472 20.008-40.08 50.039-40.08 82.393 0 8.755 1.094 17.378 3.224 25.758h-44.728c-8.166 0-14.81 6.644-14.81 14.81v14.888c0 2.78.779 5.495 2.251 7.849l18.137 29.02c2.196 3.512 6.821 4.581 10.335 2.385 3.512-2.195 4.58-6.822 2.385-10.335l-18.108-28.976v-14.642h154.852c.275 0 .544.112.739.306l24.841 24.841c3.031 3.031 7.06 4.7 11.346 4.7h100.25c4.286 0 8.315-1.669 11.346-4.7l24.841-24.841c.195-.194.464-.306.739-.306h154.852v14.642l-52.947 84.716c-3.87 6.191-10.539 9.887-17.839 9.887h-342.234c-7.3 0-13.969-3.696-17.839-9.887l-17.82-28.513c-2.195-3.512-6.822-4.581-10.335-2.385-3.512 2.195-4.58 6.822-2.385 10.335l17.82 28.513c6.629 10.605 18.053 16.937 30.559 16.937h342.233c12.506 0 23.93-6.332 30.559-16.937l52.975-84.76c1.474-2.356 2.252-5.071 2.252-7.851v-14.888c0-8.166-6.644-14.809-14.81-14.809zm-240.593-246.779c13.339 0 26.004 2.93 37.394 8.174v35.187c0 4.142 3.358 7.5 7.5 7.5s7.5-3.358 7.5-7.5v-26.428c17.301 12.49 29.994 30.984 34.988 52.406l-6.63 3.241c-22.66 11.076-49.331 10.338-71.344-1.971-29.073-16.257-64.749-15.502-93.107 1.971l-4.905 3.022c6.792-42.788 43.936-75.602 88.604-75.602zm-85.471 117.001c-2.395-7.494-3.789-15.249-4.149-23.155l13.789-8.496c23.732-14.621 53.589-15.253 77.917-1.649 26.306 14.71 58.175 15.59 85.252 2.355l2.253-1.101c.083 1.577.127 3.165.127 4.763 0 9.32-1.428 18.461-4.227 27.243-38.974 4.308-71.56 30.079-85.648 65.208-14.049-35.03-46.485-60.754-85.314-65.168zm33.846 159.624c-.279 0-.542-.109-.739-.306l-24.841-24.841c-3.03-3.031-7.06-4.7-11.346-4.7h-94.764c-2.102-7.018-3.342-14.258-3.676-21.63l13.79-8.496c23.732-14.622 53.589-15.254 77.917-1.649 26.306 14.709 58.175 15.589 85.252 2.355l2.253-1.101c.083 1.577.127 3.165.127 4.763 0 20.208-6.846 39.816-19.326 55.605zm42.949 0c3.352-5.349 6.191-10.983 8.518-16.82 2.327 5.839 5.18 11.469 8.53 16.82zm191.689-29.846h-97.461c-4.286 0-8.315 1.669-11.346 4.7l-24.841 24.841c-.198.197-.46.306-.739.306h-21.951c-11.629-14.711-18.364-32.738-19.229-51.477l13.789-8.496c23.731-14.622 53.588-15.253 77.917-1.649 26.306 14.709 58.175 15.589 85.252 2.355l2.252-1.101c.084 1.582.127 3.17.127 4.762.001 8.797-1.278 17.435-3.77 25.759z"/><path d="m220.528 151.067h3.384c4.142 0 7.5-3.358 7.5-7.5s-3.358-7.5-7.5-7.5h-3.384c-4.142 0-7.5 3.358-7.5 7.5s3.358 7.5 7.5 7.5z"/><path d="m257.902 137.01h8.698c4.142 0 7.5-3.358 7.5-7.5s-3.358-7.5-7.5-7.5h-8.698c-4.142 0-7.5 3.358-7.5 7.5s3.358 7.5 7.5 7.5z"/><path d="m141.137 271.844c4.142 0 7.5-3.358 7.5-7.5s-3.358-7.5-7.5-7.5h-3.904c-4.142 0-7.5 3.358-7.5 7.5s3.358 7.5 7.5 7.5z"/><path d="m190.594 286.343c4.142 0 7.5-3.358 7.5-7.5s-3.358-7.5-7.5-7.5h-4.425c-4.142 0-7.5 3.358-7.5 7.5s3.358 7.5 7.5 7.5z"/><path d="m330.112 261.79c-4.142 0-7.5 3.358-7.5 7.5s3.358 7.5 7.5 7.5h5.206c4.142 0 7.5-3.358 7.5-7.5s-3.358-7.5-7.5-7.5z"/><path d="m392.063 275.065h-7.028c-4.142 0-7.5 3.358-7.5 7.5s3.358 7.5 7.5 7.5h7.028c4.142 0 7.5-3.358 7.5-7.5s-3.358-7.5-7.5-7.5z"/></g></g></svg>