<svg id="Capa_1" enable-background="new 0 0 510.979 510.979" height="512" viewBox="0 0 510.979 510.979" width="512" xmlns="http://www.w3.org/2000/svg"><g><g><g id="XMLID_183_"><g><path d="m255.49 7.503c122.63 0 222.04 99.41 222.04 222.03 0 122.63-99.41 222.04-222.04 222.04s-222.04-99.41-222.04-222.04c0-122.62 99.41-222.03 222.04-222.03zm90.85 222.03c0-50.17-40.67-90.85-90.85-90.85s-90.85 40.68-90.85 90.85c0 50.18 40.67 90.86 90.85 90.86s90.85-40.68 90.85-90.86z" fill="#f7d8a4"/></g></g><g><path d="m105.14 234.612c0-115.798 88.673-210.89 201.818-221.113-16.516-3.919-33.754-5.995-51.469-5.995-122.63 0-222.04 99.41-222.04 222.03 0 122.63 99.41 222.04 222.04 222.04 6.823 0 13.584-.309 20.249-.911-97.814-23.212-170.598-111.136-170.598-216.051z" fill="#f5cd8b"/></g><g id="XMLID_196_"><g><path d="m423.4 199.333c6.63 8.97 9.94 19.59 9.94 30.2s-3.31 21.23-9.94 30.2c-6.46 8.75-9.95 19.34-9.95 30.21v17.47c0 10.96-3.51 21.28-9.61 29.73-2.31 3.21-3.46 7.11-3.46 11.06v115.8c0 3.88-1.57 7.4-4.12 9.94s-6.06 4.12-9.94 4.12c-7.77 0-14.06-6.3-14.06-14.06v-37.01c0-4.27-1.73-8.13-4.53-10.92-2.8-2.8-6.66-4.53-10.93-4.53-8.54 0-15.46 6.92-15.46 15.45v59.49c0 4.7-1.9 8.94-4.97 12.02-3.08 3.08-7.32 4.98-12.02 4.98-9.38 0-16.99-7.61-16.99-17v-78.23c0-2.12-1.88-3.76-3.98-3.47-7.79 1.11-15.91.41-23.71-2.28l-8.07-2.79c-10.76-3.72-22.46-3.72-33.22 0l-8.07 2.79c-21.06 7.28-44.41-.01-57.59-17.97l-5.42-7.38c-6.56-8.94-15.87-15.49-26.5-18.65l-7.92-2.36c-21.57-6.41-36.35-26.23-36.35-48.73v-17.47c0-5.44-.87-10.8-2.55-15.9s-4.17-9.94-7.4-14.31c-6.63-8.97-9.94-19.59-9.94-30.2s3.31-21.23 9.94-30.2c6.46-8.74 9.95-19.33 9.95-30.2v-17.47c0-22.5 14.78-42.32 36.35-48.74l7.92-2.35c10.63-3.16 19.94-9.71 26.5-18.65l5.42-7.38c13.18-17.96 36.53-25.25 57.59-17.97l8.07 2.79c10.76 3.72 22.46 3.72 33.22 0l8.07-2.79c21.06-7.28 44.41.01 57.59 17.97l5.42 7.38c6.56 8.94 15.87 15.49 26.5 18.65l7.92 2.35c21.57 6.42 36.35 26.24 36.35 48.74v17.47c0 10.87 3.49 21.46 9.95 30.2zm-77.06 30.2c0-50.17-40.67-90.85-90.85-90.85s-90.85 40.68-90.85 90.85c0 50.18 40.67 90.86 90.85 90.86s90.85-40.68 90.85-90.86z" fill="#ffc3e5"/></g></g><g><path d="m132.88 356.143 7.92 2.36c.918.273 1.8.56 2.697.883-24.216-35.566-38.356-78.506-38.356-124.775 0-53.864 19.194-103.241 51.105-141.687-4.648 3.386-9.861 5.989-15.445 7.649l-7.92 2.35c-21.57 6.42-36.35 26.24-36.35 48.74v17.47c0 10.87-3.49 21.46-9.95 30.2-6.63 8.97-9.94 19.59-9.94 30.2s3.31 21.23 9.94 30.2c3.23 4.37 5.72 9.21 7.4 14.31s2.55 10.46 2.55 15.9v17.47c-.001 22.5 14.779 42.32 36.349 48.73z" fill="#f2b2de"/></g></g><g><path d="m276.626 443.037c-7.034.688-14.146 1.037-21.137 1.037-57.305 0-111.18-22.316-151.7-62.836s-62.836-94.396-62.836-151.7c0-48.998 16.09-95.131 46.531-133.413 2.578-3.242 2.04-7.96-1.202-10.538-3.242-2.579-7.96-2.041-10.538 1.202-32.574 40.961-49.791 90.323-49.791 142.748 0 61.312 23.876 118.953 67.229 162.307 43.354 43.354 100.996 67.229 162.307 67.229 7.477 0 15.08-.373 22.597-1.108 4.123-.403 7.138-4.072 6.734-8.194-.403-4.123-4.077-7.146-8.194-6.734z"/><path d="m417.797 67.23c-43.354-43.354-100.996-67.23-162.307-67.23-58.735 0-114.621 22.178-157.365 62.449-3.015 2.84-3.156 7.587-.316 10.602s7.586 3.156 10.602.316c39.95-37.638 92.183-58.367 147.079-58.367 57.305 0 111.18 22.315 151.7 62.836 40.521 40.521 62.836 94.396 62.836 151.7 0 48.435-15.752 94.144-45.553 132.185-2.554 3.261-1.981 7.975 1.279 10.529 1.372 1.075 3.002 1.596 4.62 1.596 2.227 0 4.43-.987 5.909-2.875 31.889-40.707 48.745-89.614 48.745-141.435 0-61.311-23.876-118.953-67.229-162.306z"/><path d="m157.135 229.537c0 54.233 44.122 98.355 98.355 98.355s98.355-44.122 98.355-98.355c0-30.721-13.97-59.118-38.327-77.91-3.28-2.53-7.99-1.923-10.52 1.356-2.53 3.28-1.923 7.989 1.356 10.52 20.648 15.931 32.49 39.999 32.49 66.034 0 45.962-37.393 83.355-83.355 83.355s-83.355-37.393-83.355-83.355 37.393-83.355 83.355-83.355c8.46 0 16.803 1.261 24.796 3.748 3.958 1.233 8.16-.978 9.39-4.933 1.231-3.955-.978-8.159-4.933-9.39-9.438-2.937-19.28-4.426-29.253-4.426-54.232.001-98.354 44.123-98.354 98.356z"/><path d="m429.429 194.88c-5.465-7.401-8.475-16.545-8.475-25.746v-17.47c0-25.625-17.155-48.623-41.719-55.925l-7.919-2.354c-9.007-2.678-17.029-8.324-22.589-15.899l-5.419-7.382c-15.219-20.733-41.778-29.021-66.087-20.621l-8.075 2.791c-9.129 3.154-19.183 3.154-28.311 0l-8.076-2.791c-24.311-8.399-50.868-.113-66.087 20.62l-5.419 7.382c-5.561 7.575-13.583 13.222-22.591 15.899l-7.917 2.354c-24.563 7.302-41.719 30.3-41.719 55.925v17.47c0 9.201-3.01 18.345-8.476 25.746-15.306 20.729-15.306 48.584 0 69.313 5.466 7.402 8.476 16.545 8.476 25.747v17.469c0 25.625 17.155 48.623 41.718 55.925l.723.215c3.967 1.179 8.146-1.081 9.326-5.052 1.18-3.97-1.081-8.146-5.052-9.326l-.723-.215c-18.248-5.425-30.993-22.51-30.993-41.547v-17.468c0-12.385-4.052-24.693-11.408-34.657-11.371-15.4-11.371-36.093 0-51.493 7.357-9.963 11.409-22.271 11.409-34.656v-17.47c0-19.038 12.745-36.123 30.994-41.547l7.917-2.354c12.124-3.604 22.923-11.204 30.408-21.401l5.419-7.382c11.306-15.403 31.038-21.559 49.096-15.319l8.076 2.791c12.288 4.245 25.821 4.245 38.109 0l8.075-2.791c18.059-6.241 37.79-.084 49.097 15.319l5.419 7.382c7.484 10.196 18.282 17.796 30.406 21.4l7.919 2.354c18.249 5.425 30.993 22.51 30.993 41.547v17.47c0 12.385 4.052 24.693 11.408 34.656 11.371 15.4 11.371 36.093 0 51.493-7.356 9.964-11.408 22.271-11.408 34.657v17.469c0 9.153-2.833 17.918-8.195 25.348-3.193 4.427-4.881 9.769-4.881 15.448v115.796c0 3.618-2.943 6.561-6.561 6.561s-6.562-2.943-6.562-6.561v-37.005c0-12.658-10.297-22.955-22.955-22.955-12.657 0-22.955 10.297-22.955 22.955v59.49c0 5.235-4.259 9.494-9.494 9.494s-9.494-4.259-9.494-9.494v-78.232c0-3.19-1.381-6.218-3.789-8.309-2.403-2.087-5.586-3.028-8.737-2.582-6.761.958-13.75.283-20.21-1.95l-8.076-2.791c-12.286-4.244-25.82-4.245-38.109 0l-8.075 2.791c-18.06 6.241-37.791.084-49.098-15.319l-5.418-7.381c-1.79-2.439-3.804-4.771-5.985-6.931-2.943-2.915-7.692-2.892-10.606.051-2.915 2.943-2.892 7.692.051 10.606 1.625 1.609 3.122 3.342 4.449 5.15l5.418 7.381c15.219 20.733 41.774 29.02 66.088 20.621l8.075-2.791c9.129-3.154 19.183-3.154 28.311 0l8.076 2.791c7.248 2.504 14.988 3.553 22.636 3.085v73.81c0 13.506 10.988 24.494 24.494 24.494s24.494-10.988 24.494-24.494v-59.49c0-4.387 3.569-7.955 7.955-7.955 4.387 0 7.955 3.568 7.955 7.955v37.005c0 11.889 9.672 21.561 21.562 21.561 11.889 0 21.561-9.672 21.561-21.561v-115.795c0-2.473.727-4.842 2.046-6.671 7.216-10.001 11.031-21.801 11.031-34.125v-17.469c0-9.201 3.01-18.345 8.476-25.747 15.303-20.729 15.303-48.584-.003-69.313z"/><path d="m289.968 105.52c4.142 0 7.5-3.358 7.5-7.5s-3.358-7.5-7.5-7.5h-7.648c-4.142 0-7.5 3.358-7.5 7.5s3.358 7.5 7.5 7.5z"/><path d="m164.635 124.757h-7.745c-4.142 0-7.5 3.358-7.5 7.5s3.358 7.5 7.5 7.5h7.745c4.142 0 7.5-3.358 7.5-7.5s-3.358-7.5-7.5-7.5z"/><path d="m140.426 200.581c0-4.142-3.358-7.5-7.5-7.5h-6.119c-4.142 0-7.5 3.358-7.5 7.5s3.358 7.5 7.5 7.5h6.119c4.142 0 7.5-3.358 7.5-7.5z"/><path d="m143.124 304.448h7.138c4.142 0 7.5-3.358 7.5-7.5s-3.358-7.5-7.5-7.5h-7.138c-4.142 0-7.5 3.358-7.5 7.5s3.357 7.5 7.5 7.5z"/><path d="m209.917 347.064c-4.142 0-7.5 3.358-7.5 7.5s3.358 7.5 7.5 7.5h8.158c4.142 0 7.5-3.358 7.5-7.5s-3.358-7.5-7.5-7.5z"/><path d="m286.654 352.299c-4.142 0-7.5 3.358-7.5 7.5s3.358 7.5 7.5 7.5h6.628c4.142 0 7.5-3.358 7.5-7.5s-3.358-7.5-7.5-7.5z"/><path d="m353.958 334.341h-9.688c-4.142 0-7.5 3.358-7.5 7.5s3.358 7.5 7.5 7.5h9.688c4.142 0 7.5-3.358 7.5-7.5s-3.358-7.5-7.5-7.5z"/><path d="m370.784 298.33c4.142 0 7.5-3.358 7.5-7.5s-3.358-7.5-7.5-7.5h-5.609c-4.142 0-7.5 3.358-7.5 7.5s3.358 7.5 7.5 7.5z"/><path d="m371.549 139.034h-12.747c-4.142 0-7.5 3.358-7.5 7.5s3.358 7.5 7.5 7.5h12.747c4.142 0 7.5-3.358 7.5-7.5s-3.358-7.5-7.5-7.5z"/><path d="m396.023 231.025c4.142 0 7.5-3.358 7.5-7.5s-3.358-7.5-7.5-7.5h-6.118c-4.142 0-7.5 3.358-7.5 7.5s3.358 7.5 7.5 7.5z"/></g></g></svg>