<svg id="Capa_1" enable-background="new 0 0 512.207 512.207" height="512" viewBox="0 0 512.207 512.207" width="512" xmlns="http://www.w3.org/2000/svg"><g><g><path d="m360.924 106.219 5.461-18.4c3.902-13.147-2.4-27.17-14.821-32.982-5.781-2.705-10.452-7.322-13.221-13.073l-.993-2.062c-4.922-10.218-15.575-16.405-26.889-15.617l-11.75.819c-7.04.491-14.001-1.723-19.464-6.19l-6.103-4.989c-10.204-8.343-24.873-8.343-35.077 0l-6.103 4.989c-5.463 4.467-12.425 6.681-19.464 6.19l-11.75-.819c-11.314-.788-21.967 5.398-26.889 15.617l-.993 2.062c-2.77 5.75-7.44 10.368-13.221 13.073-12.422 5.811-18.723 19.835-14.821 32.982l5.461 18.4s25.385 89.361 26.607 89.092 149.523 0 149.523 0z" fill="#d8efa7"/><g><path d="m183.877 119.727-5.461-18.4c-3.902-13.147 2.4-27.171 14.821-32.982 5.781-2.705 10.451-7.322 13.221-13.073l.993-2.062c4.922-10.218 15.575-16.405 26.889-15.617l11.75.819c7.04.49 14.001-1.723 19.464-6.19l6.103-4.99c3.539-2.894 7.619-4.759 11.86-5.646-1.501-.818-2.933-1.777-4.274-2.874l-6.103-4.99c-10.204-8.343-24.873-8.343-35.077 0l-6.103 4.99c-5.463 4.467-12.425 6.681-19.464 6.19l-11.75-.819c-11.314-.788-21.967 5.398-26.889 15.617l-.993 2.062c-2.77 5.75-7.44 10.368-13.221 13.073-12.422 5.811-18.724 19.835-14.821 32.982l5.462 18.4s25.385 89.361 26.607 89.092c.341-.075 12.144-.108 28.976-.117-7.641-24.954-21.99-75.465-21.99-75.465z" fill="#c5e97d"/></g><path d="m360.924 106.219 4.368-14.717c-2.593-.812-5.35-1.251-8.208-1.251h-12.32c-32.79 0-63.83 11.346-88.654 32.165-24.803-20.835-55.785-32.165-88.666-32.165h-12.32c-3.195 0-6.262.553-9.117 1.559l4.277 14.409s25.385 89.361 26.607 89.092 149.523 0 149.523 0z" fill="#c5e97d"/><path d="m329.229 106.219c-9.132-32.071-38.625-55.564-73.625-55.564-34.96 0-64.425 23.439-73.594 55.453 0 0-14.473 60.108-14.473 61.831s.751 119.682.751 119.682h175.7l-1.361-124.906z" fill="#f6e2c4"/><g><g id="XMLID_198_"><g><path d="m344.582 410.954-84.992-52.066-92.542 86.043-9.045 25.059c15.03 21.02 39.63 34.72 67.44 34.72h61.32c27.81 0 52.41-13.7 67.44-34.72z" fill="#fcf1de"/><path d="m187.771 91.726c-2.382 4.545-4.322 9.358-5.761 14.382 0 0-14.473 60.108-14.473 61.831s.751 119.682.751 119.682h175.7l-1.36-124.906-13.398-56.496c-1.427-5.013-3.353-9.817-5.718-14.354-24.84 3.812-48.016 14.293-67.401 30.55-19.621-16.48-43.107-27.006-68.34-30.689z" fill="#f7d8a4"/><path d="m296.481 115.068c-5.234-17.63-21.549-30.492-40.878-30.492-19.192 0-35.42 12.68-40.771 30.118l-13.154 47.239v141.969s107.146 4.822 107.146 0 0-153.755 0-153.755z" fill="#ea9a98"/><path d="m308.825 287.62v-137.473l-12.344-35.079c-1.457-4.906-3.774-9.442-6.773-13.436-7.06 3.067-13.867 6.727-20.354 10.961-8.045 5.25-18.392 5.281-26.432.023-6.736-4.405-13.817-8.188-21.171-11.328-3.049 3.975-5.413 8.502-6.918 13.405l-13.154 47.239v125.688z" fill="#e5827f"/><path d="m357.084 105.25h-12.32c-34.03 0-64.84 13.79-87.14 36.09l-1.64 1.43-42.208 87.995 2.868 155.937 39.46 45.638c22.41 23.21 53.85 37.65 88.66 37.65h9.44c9.7-13.57 15.4-30.17 15.4-48.12v-304.1c0-6.92-5.61-12.52-12.52-12.52z" fill="#fcf6ed"/><path d="m330.05 487.35h-61.32c-27.81 0-52.41-13.7-67.44-34.72-5.872-8.215-10.265-17.545-12.829-27.607l-21.412 19.909-9.045 25.059c15.03 21.02 39.63 34.72 67.44 34.72h61.32c19.341 0 37.139-6.634 51.236-17.741-2.612.248-5.273.38-7.95.38z" fill="#f6e2c4"/><path d="m255.984 142.77-42.208 87.995 2.868 155.937 39.46 45.638c4.636 4.801 9.665 9.233 15.024 13.233 25.513-26.746 39.556-61.808 39.556-98.823v-118.27c0-37.017-14.049-72.061-39.568-98.814-4.776 3.565-9.286 7.468-13.492 11.674z" fill="#fcf1de"/><path d="m255.984 142.77c21.48 22.18 34.7 52.4 34.7 85.71v118.27c0 33.25-13.17 63.43-34.58 85.59-22.41 23.22-53.85 37.65-88.66 37.65h-9.44c-9.7-13.57-15.4-30.17-15.4-48.12v-304.1c0-6.92 5.61-12.52 12.52-12.52h12.32c34.75 0 66.14 14.38 88.54 37.52z" fill="#fcf6ed"/><path d="m201.29 452.63c-9.7-13.57-15.4-30.17-15.4-48.12l.009-297.891c-6.018-.903-12.185-1.368-18.455-1.368h-12.32c-6.91 0-12.52 5.6-12.52 12.52v304.1c0 17.95 5.7 34.55 15.4 48.12h9.44c14.826 0 29.037-2.626 42.203-7.426-3.033-3.087-5.833-6.405-8.357-9.935z" fill="#fcf1de"/></g></g><g fill="#f6e2c4"><path d="m240.516 309.237c-8.609 0-15.588-6.979-15.588-15.588v-27.255c0-8.609 6.979-15.588 15.588-15.588 8.609 0 15.588 6.979 15.588 15.588v27.255c0 8.609-6.979 15.588-15.588 15.588z"/><path d="m205.626 398.829c-9.041 0-16.369-7.329-16.369-16.369v-11.693c0-9.041 7.329-16.369 16.369-16.369 9.041 0 16.369 7.329 16.369 16.369v11.693c0 9.04-7.328 16.369-16.369 16.369z"/></g></g></g><g><path d="m369.604 186.897c4.143 0 7.5-3.358 7.5-7.5v-61.626c0-6.175-2.812-11.702-7.22-15.378l3.692-12.439c4.998-16.84-2.923-34.465-18.834-41.91-4.203-1.966-7.628-5.353-9.643-9.534l-.993-2.062c-6.291-13.062-19.694-20.851-34.167-19.844l-11.751.819c-5.157.361-10.195-1.244-14.196-4.515l-6.103-4.989c-12.912-10.558-31.658-10.558-44.571 0l-6.103 4.99c-4 3.27-9.041 4.876-14.195 4.514l-11.751-.819c-14.453-1.011-27.875 6.782-34.167 19.843l-.995 2.063c-2.014 4.181-5.438 7.567-9.642 9.534-15.911 7.444-23.832 25.069-18.833 41.91l3.904 13.155c-3.946 3.66-6.434 8.87-6.434 14.663v230.451c0 4.142 3.358 7.5 7.5 7.5s7.5-3.358 7.5-7.5v-230.452c0-2.77 2.253-5.023 5.023-5.023h12.318c63.817 0 115.736 51.919 115.736 115.736v118.269c0 63.817-51.919 115.736-115.736 115.736h-5.405c-7.541-11.73-11.937-25.665-11.937-40.616v-42.98c0-4.142-3.358-7.5-7.5-7.5s-7.5 3.358-7.5 7.5v42.98c0 49.812 40.524 90.336 90.336 90.336h61.33c49.811 0 90.335-40.524 90.335-90.335v-210.515c0-4.142-3.357-7.5-7.5-7.5s-7.5 3.358-7.5 7.5v210.512c0 14.951-4.396 28.886-11.937 40.616h-5.404c-29.349 0-56.882-10.781-78.278-30.49 19.743-22.905 31.696-52.705 31.696-85.246v-118.268c0-32.54-11.953-62.339-31.694-85.244 21.407-19.697 49.011-30.492 78.276-30.492h12.317c2.77 0 5.023 2.253 5.023 5.023v61.626c.003 4.143 3.36 7.501 7.503 7.501zm-144.165 310.31c-19.636 0-37.536-7.559-50.959-19.91 31.39-1.673 59.872-14.472 81.575-34.512 22.493 20.842 51.038 32.911 81.67 34.515-13.423 12.35-31.321 19.907-50.955 19.907zm-.957-386.345c5.973-11.449 17.795-18.786 31.122-18.786 13.253 0 25.329 7.614 31.265 19.122-11.122 5.503-21.49 12.629-30.811 21.255-9.366-8.649-19.994-15.952-31.576-21.591zm109.985-12.713c-12.057-32.673-43.62-54.995-78.864-54.995-6.159 0-12.339.683-18.37 2.029-4.042.902-6.588 4.911-5.686 8.954s4.91 6.584 8.954 5.686c4.959-1.107 10.04-1.668 15.101-1.668 27.828 0 52.861 16.938 63.56 42.083-6.293 1.242-12.459 2.942-18.458 5.084-8.285-16.961-25.825-28.246-45.102-28.246-19.47 0-36.684 10.983-44.995 28.002-5.979-2.097-12.155-3.771-18.492-4.986 4.765-11.093 12.445-20.919 22.197-28.215 3.317-2.481 3.994-7.181 1.513-10.498-2.48-3.316-7.181-3.994-10.498-1.513-12.985 9.713-22.955 23.124-28.555 38.217-3.082-.218-6.192-.336-9.328-.336h-11.852l-3.58-12.063c-2.869-9.666 1.677-19.782 10.81-24.054 7.325-3.427 13.292-9.326 16.799-16.61l.994-2.063c3.611-7.497 11.302-11.974 19.611-11.39l11.75.819c8.984.625 17.765-2.167 24.733-7.865l6.103-4.99c7.412-6.06 18.17-6.06 25.583 0l6.103 4.989c6.969 5.698 15.743 8.494 24.733 7.865l11.751-.819c8.309-.575 15.999 3.893 19.61 11.389l.993 2.063c3.51 7.285 9.477 13.185 16.801 16.611 9.132 4.272 13.678 14.389 10.809 24.055l-3.58 12.062h-10.852c-3.455.001-6.888.139-10.296.403z"/><path d="m263.604 266.394c0-12.731-10.357-23.088-23.088-23.088s-23.088 10.357-23.088 23.088v27.255c0 12.73 10.357 23.088 23.088 23.088 12.73 0 23.088-10.357 23.088-23.088zm-15 27.255c0 4.459-3.628 8.088-8.088 8.088s-8.088-3.628-8.088-8.088v-27.255c0-4.459 3.628-8.088 8.088-8.088 4.459 0 8.088 3.628 8.088 8.088z"/><path d="m181.757 370.767v11.693c0 13.162 10.708 23.869 23.869 23.869s23.87-10.708 23.87-23.869v-11.693c0-13.162-10.708-23.869-23.87-23.869s-23.869 10.707-23.869 23.869zm15 0c0-4.891 3.979-8.869 8.869-8.869s8.87 3.979 8.87 8.869v11.693c0 4.891-3.979 8.869-8.87 8.869s-8.869-3.979-8.869-8.869z"/><path d="m182.511 255.677c-4.142 0-7.5 3.358-7.5 7.5v5.63c0 4.142 3.358 7.5 7.5 7.5s7.5-3.358 7.5-7.5v-5.63c0-4.142-3.358-7.5-7.5-7.5z"/><path d="m205.142 325.462v-10.909c0-4.142-3.358-7.5-7.5-7.5s-7.5 3.358-7.5 7.5v10.909c0 4.142 3.358 7.5 7.5 7.5s7.5-3.358 7.5-7.5z"/><path d="m246.094 346.928v7.469c0 4.142 3.358 7.5 7.5 7.5 4.143 0 7.5-3.358 7.5-7.5v-7.469c0-4.142-3.357-7.5-7.5-7.5-4.142 0-7.5 3.358-7.5 7.5z"/></g></g></svg>