<svg id="Capa_1" enable-background="new 0 0 515.273 515.273" height="512" viewBox="0 0 515.273 515.273" width="512" xmlns="http://www.w3.org/2000/svg"><g><g><circle cx="339.605" cy="174.556" fill="#dfae91" r="167.056"/><g><path d="m373.395 143.692c-23.481-23.481-51.24-41.127-81.518-52.218-14.391-5.272-17.891-23.913-6.395-34.05 28.439-25.078 65.497-40.637 106.148-41.664-16.618-5.439-34.398-8.348-52.855-8.258-92.54.451-167.525 76.946-166.209 169.478 1.296 91.145 75.586 164.633 167.039 164.633 1.438 0 2.871-.018 4.3-.054-66.797-21.863-115.052-84.687-115.052-158.791 0-10.028.886-19.848 2.58-29.39l48.916 105.339-11.727 9.848 23.553 31.416 99.434 12.266-5.04 22.671c19.207-5.617 36.982-14.591 52.646-26.244.05-1.96.078-3.923.078-5.891 0-60.096-23.403-116.596-65.898-159.091z" fill="#d79c7a"/><circle cx="214.303" cy="302.784" fill="#e5bda7" r="204.99"/><path d="m75.359 307.481c0-106.958 81.936-194.771 186.454-204.148-15.245-3.617-31.159-5.539-47.51-5.539-113.213 0-204.99 91.777-204.99 204.99s91.777 204.99 204.99 204.99c6.254 0 12.44-.28 18.552-.828-90.309-21.427-157.496-102.603-157.496-199.465z" fill="#dfae91"/><g fill="#d79c7a"><circle cx="239.257" cy="226.983" r="21.799"/><circle cx="155.033" cy="395.513" r="17.515"/><circle cx="97.305" cy="318.425" r="29.561"/><circle cx="133.234" cy="213.906" r="26.501"/><circle cx="337.729" cy="267.575" r="18.792"/><circle cx="220.464" cy="315.146" r="15.924"/><circle cx="242.033" cy="424.349" r="22.939"/><circle cx="318.937" cy="366.794" r="28.719"/><g><circle cx="440.252" cy="187.406" r="17.692"/><circle cx="323.665" cy="64.278" r="23.991"/><circle cx="411.726" cy="102.902" r="21.507"/></g></g></g></g><g><path d="m209.957 226.983c0 16.156 13.144 29.299 29.3 29.299 16.155 0 29.299-13.144 29.299-29.299s-13.144-29.299-29.299-29.299c-16.156 0-29.3 13.144-29.3 29.299zm43.599 0c0 7.885-6.414 14.299-14.299 14.299s-14.3-6.415-14.3-14.299 6.415-14.299 14.3-14.299 14.299 6.415 14.299 14.299z"/><path d="m180.049 395.513c0-13.793-11.222-25.015-25.016-25.015-13.793 0-25.015 11.222-25.015 25.015s11.222 25.015 25.015 25.015c13.794 0 25.016-11.221 25.016-25.015zm-25.016 10.015c-5.522 0-10.015-4.493-10.015-10.015s4.492-10.015 10.015-10.015 10.016 4.493 10.016 10.015-4.493 10.015-10.016 10.015z"/><path d="m60.244 318.425c0 20.435 16.625 37.061 37.061 37.061s37.061-16.625 37.061-37.061-16.625-37.061-37.061-37.061-37.061 16.626-37.061 37.061zm59.121 0c0 12.164-9.896 22.061-22.061 22.061s-22.061-9.896-22.061-22.061 9.896-22.061 22.061-22.061 22.061 9.897 22.061 22.061z"/><path d="m133.234 179.906c-18.748 0-34.001 15.252-34.001 34s15.253 34 34.001 34 34-15.252 34-34-15.252-34-34-34zm0 53.001c-10.478 0-19.001-8.523-19.001-19s8.523-19 19.001-19c10.477 0 19 8.523 19 19s-8.523 19-19 19z"/><path d="m311.437 267.575c0 14.498 11.795 26.292 26.293 26.292 14.497 0 26.292-11.795 26.292-26.292s-11.795-26.292-26.292-26.292c-14.499 0-26.293 11.795-26.293 26.292zm26.292-11.292c6.227 0 11.292 5.066 11.292 11.292s-5.065 11.292-11.292 11.292-11.293-5.066-11.293-11.292 5.067-11.292 11.293-11.292z"/><path d="m197.04 315.146c0 12.916 10.508 23.424 23.424 23.424s23.425-10.508 23.425-23.424-10.509-23.424-23.425-23.424-23.424 10.508-23.424 23.424zm23.424-8.424c4.646 0 8.425 3.779 8.425 8.424s-3.779 8.424-8.425 8.424c-4.645 0-8.424-3.779-8.424-8.424s3.779-8.424 8.424-8.424z"/><path d="m242.032 393.91c-16.784 0-30.438 13.655-30.438 30.439s13.654 30.439 30.438 30.439 30.439-13.655 30.439-30.439-13.655-30.439-30.439-30.439zm0 45.878c-8.513 0-15.438-6.926-15.438-15.439s6.926-15.439 15.438-15.439c8.514 0 15.439 6.926 15.439 15.439s-6.925 15.439-15.439 15.439z"/><path d="m282.718 366.794c0 19.971 16.248 36.219 36.219 36.219s36.219-16.248 36.219-36.219-16.248-36.219-36.219-36.219-36.219 16.248-36.219 36.219zm36.219-21.218c11.7 0 21.219 9.519 21.219 21.219s-9.519 21.219-21.219 21.219-21.219-9.519-21.219-21.219 9.518-21.219 21.219-21.219z"/><path d="m193.554 147.195h-7.002c-4.143 0-7.5 3.358-7.5 7.5s3.357 7.5 7.5 7.5h7.002c4.143 0 7.5-3.358 7.5-7.5s-3.358-7.5-7.5-7.5z"/><path d="m277.434 162.333c0-4.142-3.357-7.5-7.5-7.5h-8.878c-4.143 0-7.5 3.358-7.5 7.5s3.357 7.5 7.5 7.5h8.878c4.142 0 7.5-3.358 7.5-7.5z"/><path d="m316.397 194.295h-7.001c-4.143 0-7.5 3.358-7.5 7.5s3.357 7.5 7.5 7.5h7.001c4.143 0 7.5-3.358 7.5-7.5s-3.357-7.5-7.5-7.5z"/><path d="m172.549 270.417h-6.562c-4.143 0-7.5 3.358-7.5 7.5s3.357 7.5 7.5 7.5h6.562c4.143 0 7.5-3.358 7.5-7.5s-3.358-7.5-7.5-7.5z"/><path d="m70.805 243.016h-5.048c-4.143 0-7.5 3.358-7.5 7.5s3.357 7.5 7.5 7.5h5.048c4.143 0 7.5-3.358 7.5-7.5s-3.358-7.5-7.5-7.5z"/><path d="m80.539 378.218c-4.143 0-7.5 3.358-7.5 7.5s3.357 7.5 7.5 7.5h3.966c4.143 0 7.5-3.358 7.5-7.5s-3.357-7.5-7.5-7.5z"/><path d="m168.15 463.884h8.292c4.143 0 7.5-3.358 7.5-7.5s-3.357-7.5-7.5-7.5h-8.292c-4.143 0-7.5 3.358-7.5 7.5s3.358 7.5 7.5 7.5z"/><path d="m292.175 299.981h-4.326c-4.143 0-7.5 3.358-7.5 7.5s3.357 7.5 7.5 7.5h4.326c4.143 0 7.5-3.358 7.5-7.5s-3.358-7.5-7.5-7.5z"/><path d="m304.073 420.041c-4.143 0-7.5 3.358-7.5 7.5s3.357 7.5 7.5 7.5h5.408c4.143 0 7.5-3.358 7.5-7.5s-3.357-7.5-7.5-7.5z"/><path d="m465.443 187.406c0-13.891-11.301-25.192-25.191-25.192s-25.191 11.301-25.191 25.192 11.301 25.191 25.191 25.191 25.191-11.301 25.191-25.191zm-25.191 10.191c-5.619 0-10.191-4.572-10.191-10.191s4.572-10.192 10.191-10.192 10.191 4.572 10.191 10.192-4.572 10.191-10.191 10.191z"/><path d="m292.175 64.278c0 17.364 14.126 31.49 31.49 31.49s31.49-14.126 31.49-31.49-14.126-31.491-31.49-31.491-31.49 14.127-31.49 31.491zm47.98 0c0 9.093-7.397 16.49-16.49 16.49s-16.49-7.397-16.49-16.49 7.397-16.491 16.49-16.491 16.49 7.399 16.49 16.491z"/><path d="m382.72 102.902c0 15.995 13.013 29.007 29.007 29.007s29.007-13.012 29.007-29.007-13.013-29.007-29.007-29.007-29.007 13.013-29.007 29.007zm43.013 0c0 7.724-6.283 14.007-14.007 14.007s-14.007-6.283-14.007-14.007 6.283-14.007 14.007-14.007 14.007 6.284 14.007 14.007z"/><path d="m206.617 73.606c1.399 1.159 3.094 1.724 4.779 1.723 2.156 0 4.298-.926 5.78-2.717 30.319-36.613 74.938-57.612 122.42-57.612 39.934 0 78.109 14.88 107.494 41.9 3.048 2.803 7.793 2.604 10.597-.444 2.804-3.049 2.605-7.794-.444-10.598-32.161-29.572-73.942-45.858-117.647-45.858-51.964 0-100.795 22.979-133.972 63.046-2.642 3.191-2.197 7.918.993 10.56z"/><path d="m479.582 70.747c-2.459-3.333-7.155-4.042-10.488-1.583s-4.041 7.155-1.582 10.488c20.246 27.442 30.948 60.02 30.948 94.211 0 45.732-19.74 89.276-54.159 119.467-3.114 2.731-3.425 7.47-.693 10.584 1.483 1.69 3.557 2.554 5.642 2.554 1.756 0 3.52-.613 4.942-1.862 37.666-33.039 59.269-80.693 59.269-130.744-.001-37.418-11.716-73.075-33.879-103.115z"/><path d="m384.832 416.801c-3.354-2.429-8.043-1.679-10.473 1.676-17.95 24.787-41.739 45.357-68.796 59.486-27.949 14.595-59.507 22.31-91.261 22.31-108.896 0-197.489-88.594-197.489-197.49 0-36.446 10.012-72.057 28.951-102.983 2.164-3.532 1.054-8.149-2.479-10.313-3.533-2.162-8.149-1.054-10.312 2.479-20.385 33.285-31.16 71.605-31.16 110.817 0 117.167 95.322 212.49 212.489 212.49 34.161 0 68.12-8.304 98.204-24.014 29.106-15.199 54.696-37.325 74.001-63.985 2.431-3.354 1.681-8.043-1.675-10.473z"/><path d="m214.303 90.294c-62.233 0-121.139 27.169-161.611 74.541-2.69 3.149-2.319 7.883.83 10.574 3.15 2.692 7.885 2.318 10.574-.83 37.619-44.031 92.367-69.284 150.207-69.284 108.896 0 197.49 88.593 197.49 197.49 0 31.366-7.143 61.362-21.23 89.156-1.873 3.694-.396 8.208 3.299 10.081 1.087.551 2.244.812 3.385.812 2.736 0 5.374-1.503 6.695-4.111 15.163-29.916 22.852-62.194 22.852-95.938-.001-117.169-95.323-212.491-212.491-212.491z"/></g></g></svg>