<svg id="Filled" height="512" viewBox="0 0 512 512" width="512" xmlns="http://www.w3.org/2000/svg"><path d="m464 288c0 136.333-64 160-64 160s-17 40-64 40-64-40-64-40c-63.67-41.67-64-160-64-160 0-75.67 64-136 64-136s17-40 64-40 64 40 64 40c68 72.5 64 136 64 136z" fill="#ad6643"/><path d="m432 304c0 79.529-34.144 136-96 136s-96-56.471-96-136 34.144-128 96-128 96 48.471 96 128z" fill="#8a5237"/><ellipse cx="368" cy="216" fill="#5e3725" rx="40" ry="16"/><ellipse cx="296" cy="216" fill="#5e3725" rx="40" ry="16"/><ellipse cx="336" cy="240" fill="#7a4830" rx="40" ry="16"/><ellipse cx="376" cy="264" fill="#5e3725" rx="40" ry="16"/><ellipse cx="296" cy="264" fill="#5e3725" rx="40" ry="16"/><ellipse cx="336" cy="288" fill="#7a4830" rx="40" ry="16"/><ellipse cx="376" cy="312" fill="#5e3725" rx="40" ry="16"/><ellipse cx="296" cy="312" fill="#5e3725" rx="40" ry="16"/><ellipse cx="336" cy="336" fill="#7a4830" rx="40" ry="16"/><ellipse cx="376" cy="360" fill="#5e3725" rx="40" ry="16"/><ellipse cx="296" cy="360" fill="#5e3725" rx="40" ry="16"/><ellipse cx="336" cy="384" fill="#7a4830" rx="40" ry="16"/><ellipse cx="296" cy="400" fill="#5e3725" rx="40" ry="16"/><path d="m304 288c0 136.333-64 160-64 160s-17 40-64 40-64-40-64-40c-63.67-41.67-64-160-64-160 0-75.67 64-136 64-136s17-40 64-40 64 40 64 40c68 72.5 64 136 64 136z" fill="#95573a"/><g fill="#5e3725"><ellipse cx="264" cy="464" rx="40" ry="16"/><ellipse cx="344" cy="472" rx="40" ry="16"/><ellipse cx="424" cy="472" rx="40" ry="16"/></g><ellipse cx="336" cy="432" fill="#7a4830" rx="40" ry="16"/><path d="m432 448c-4.384 7.672-20.819 2.96-40-8s-28.384-24.328-24-32 20.819-2.96 40 8 28.384 24.328 24 32z" fill="#5e3725"/><ellipse cx="336" cy="192" fill="#7a4830" rx="40" ry="16"/><path d="m406.721 147.475c-3.737-7.717-23.598-43.475-70.721-43.475-46.757 0-66.674 35.2-70.63 43.289-1.692 1.674-5.144 5.2-9.617 10.312q-4.294-5.028-9.032-10.126c-3.521-7.265-21.333-39.369-62.721-43.109v-24.48c92.436-2.5 154.117-47.494 156.769-49.462a8 8 0 0 0 -9.531-12.853c-.609.45-60.208 43.756-147.238 46.308v-23.879a8 8 0 0 0 -16 0v23.9c-41.862-1.061-67.884-10.335-82.578-18.191-16.46-8.8-22.46-17.679-22.654-17.973a8 8 0 0 0 -13.578 8.464c1.073 1.738 26.682 41.506 118.81 43.7v24.465c-41.023 3.707-58.887 35.281-62.624 42.912-9.07 8.915-65.376 67.237-65.376 140.745a328.5 328.5 0 0 0 8.329 66.154c10.9 47.163 30.2 80.537 57.4 99.247 4.692 9.247 24.777 42.577 70.271 42.577 18.589 0 35.53-5.891 49.348-17.059a40.7 40.7 0 0 0 7.4 3.8c8.474 3.392 19.574 5.259 31.252 5.259s22.778-1.867 31.256-5.259q2.046-.819 3.776-1.7c2.385 3.344 6.548 6.835 13.712 9.7 8.478 3.392 19.578 5.259 31.256 5.259s22.778-1.867 31.256-5.259a38.553 38.553 0 0 0 8.744-4.741 38.553 38.553 0 0 0 8.744 4.741c8.478 3.392 19.578 5.259 31.256 5.259s22.778-1.867 31.256-5.259c14.568-5.827 16.744-14.241 16.744-18.741s-2.176-12.914-16.744-18.741a71.588 71.588 0 0 0 -15.082-4c1.535-4.438 1.848-11.552-4.882-20.746-.041-.056-.086-.112-.128-.168 17.852-23.265 36.8-65.528 36.836-140.123.266-5.422 1.789-68.672-65.279-140.747zm-190.721 316.525a14.354 14.354 0 0 0 .12 1.839c-11.192 9.396-24.67 14.161-40.12 14.161-40.9 0-56.026-33.723-56.638-35.129a8 8 0 0 0 -2.981-3.565c-59.281-38.799-60.381-152.191-60.381-153.306 0-71.218 60.877-129.6 61.487-130.179a8.167 8.167 0 0 0 1.864-2.663c.623-1.435 15.749-35.158 56.649-35.158s56.026 33.723 56.638 35.129a7.992 7.992 0 0 0 1.527 2.344c33.735 35.967 48.752 69.419 55.409 91.146 7.2 23.512 6.448 38.754 6.442 38.878-.011.167-.016.335-.016.5 0 67.321-16.157 105.3-29.712 125.311-14.42 21.287-28.983 27.154-29.062 27.186a8.077 8.077 0 0 0 -4.576 4.343s-.091.207-.265.568c-14.239 5.824-16.385 14.135-16.385 18.595zm125.551-72.176c-2.266-3.6-6.511-7.452-14.3-10.565a66.068 66.068 0 0 0 -10.325-3.106 79.113 79.113 0 0 1 19.074-2.153c18.778 0 29.739 5.382 31.8 8-1.848 2.347-10.872 6.905-26.249 7.824zm19.016 13.133a16.422 16.422 0 0 0 -1.577 5.679 92.782 92.782 0 0 0 -17.422-2.488c.064-.1.124-.2.185-.305a90.959 90.959 0 0 0 18.814-2.886zm-48.575-115.74c0-.336.008-.662.008-1 .033-.673.085-2.244.023-4.614 6.357-2.287 14.935-3.6 23.977-3.6 18.723 0 29.674 5.35 31.781 7.977-.09.105-.211.23-.349.364a79.4 79.4 0 0 0 -22.688 4.918 38.433 38.433 0 0 0 -8.786 4.773c-5.558-4.141-13.777-7.216-23.966-8.818zm15.781 22.768c-.089.1-.208.228-.344.36a87.853 87.853 0 0 0 -16.323 2.784q.321-4.761.53-9.731c9.716 1.846 14.812 5.016 16.137 6.587zm-.349-47.636a87.233 87.233 0 0 0 -17 2.985c-.508-3.189-1.172-6.693-2.032-10.479 11.178 1.617 17.8 5.141 19.385 7.122-.088.106-.211.234-.353.372zm-17.945 68.282c6.453-2.882 16.307-4.631 26.521-4.631 18.721 0 29.673 5.35 31.781 7.976-.09.105-.212.231-.35.365a79.4 79.4 0 0 0 -22.687 4.918 38.553 38.553 0 0 0 -8.744 4.741 38.553 38.553 0 0 0 -8.744-4.741 75 75 0 0 0 -18.3-4.466c.184-1.37.356-2.761.523-4.162zm57.777-15.372a79.375 79.375 0 0 0 -22.69-4.918c-.138-.135-.258-.259-.348-.364 2.108-2.627 13.059-7.977 31.782-7.977 18.778 0 29.739 5.382 31.8 8-2.062 2.618-13.023 8-31.8 8-1.057 0-2.112-.024-3.161-.06a43.622 43.622 0 0 0 -5.583-2.681zm5.582-45.319a43.536 43.536 0 0 0 -5.582-2.681 79.4 79.4 0 0 0 -22.692-4.918c-.141-.138-.258-.262-.345-.364 2.107-2.627 13.058-7.977 31.781-7.977 18.778 0 29.739 5.382 31.8 8-2.062 2.618-13.023 8-31.8 8-1.053 0-2.109-.025-3.162-.06zm-5.4-31.6a79.375 79.375 0 0 0 -22.69 4.918 38.553 38.553 0 0 0 -8.748 4.742 38.553 38.553 0 0 0 -8.744-4.741 79.383 79.383 0 0 0 -22.691-4.918c-.141-.138-.259-.262-.346-.364 2.108-2.627 13.06-7.977 31.781-7.977s29.672 5.349 31.781 7.976c-.087.102-.205.224-.347.365zm-61.031 112.26c12.377 1.465 19.694 5.281 21.374 7.376-.09.1-.211.23-.349.364a79.4 79.4 0 0 0 -22.688 4.918c-.411.164-.808.331-1.2.5q1.55-6.289 2.863-13.158zm60.849 12.658a79.963 79.963 0 0 0 -23.256-4.958c1.394-2.478 12.462-8.3 32-8.3 18.778 0 29.739 5.382 31.8 8-2.062 2.618-13.023 8-31.8 8-1.052 0-2.106-.022-3.157-.057a43.484 43.484 0 0 0 -5.587-2.684zm36.775 57.687c16.8 9.6 21.121 18.43 21.075 20.743-2.409.534-11.276-.429-29.137-10.635-16.813-9.607-21.128-18.444-21.077-20.742 2.387-.539 11.269.423 29.139 10.635zm-6.6-21.239c-6.708-2.886-13.436-4.975-19.4-5.384 4.991-4.562 5.969-9.316 5.969-12.322 0-.1 0-.2 0-.3a79.933 79.933 0 0 0 23.261-4.958c1.492-.6 2.848-1.222 4.091-1.866a109.222 109.222 0 0 1 -13.923 24.831zm9.827-60.448a79.947 79.947 0 0 0 -23.264-4.958c0-.1.008-.2.008-.3s0-.2 0-.3a79.933 79.933 0 0 0 23.261-4.958c12.192-4.876 15.7-11.565 16.524-16.254a215.14 215.14 0 0 1 -4.146 34.8c-2.518-2.811-6.407-5.638-12.385-8.029zm0-48a79.947 79.947 0 0 0 -23.264-4.958c0-.1.008-.2.008-.3s0-.2 0-.3a79.933 79.933 0 0 0 23.261-4.958c8.088-3.235 12.353-7.267 14.55-10.985a226.272 226.272 0 0 1 2.187 32.243c0 2.17-.034 4.316-.087 6.449-.513-4.699-3.628-11.979-16.657-17.19zm0-48a79.94 79.94 0 0 0 -23.262-4.958c0-.1.006-.2.006-.3 0-.369-.017-.767-.052-1.186 11.093-1.695 19.818-5.1 25.345-9.745a124.852 124.852 0 0 1 8.3 22.212 35.842 35.842 0 0 0 -10.339-6.022zm-34.055-21.4c-.158.009-.32.012-.479.02a43.664 43.664 0 0 0 -5.466-2.615 79.947 79.947 0 0 0 -23.264-4.958c0-.1.008-.2.008-.3s0-.2-.008-.3a79.947 79.947 0 0 0 23.264-4.958 43.788 43.788 0 0 0 5.478-2.621c15.807.772 25.121 5.5 27.048 7.94-1.77 2.091-10.028 6.851-26.584 7.788zm-37.203-23.858c-18.778 0-29.739-5.382-31.8-8 1.925-2.444 11.611-7.294 28.169-7.928 1.2-.041 2.408-.072 3.632-.072 18.778 0 29.739 5.382 31.8 8-2.062 2.618-13.023 8-31.801 8zm-31.256 10.741a79.4 79.4 0 0 0 22.689 4.918c.128.125.241.242.328.342-.087.1-.2.215-.327.34a79.375 79.375 0 0 0 -22.69 4.918 41.757 41.757 0 0 0 -6.8 3.409c-2.215-5.274-4.774-10.778-7.733-16.479 1.907-.121 3.84-.189 5.784-.189 1.057 0 2.112.024 3.161.06a43.553 43.553 0 0 0 5.588 2.681zm-9.865 234.374c-8.2-3.209-18.78-5.01-29.944-5.106a114.091 114.091 0 0 0 14.409-17.344 99.767 99.767 0 0 0 11.088 1.188 15.251 15.251 0 0 0 -2.432 8.147c0 3.18 1.094 8.318 6.879 13.115zm-30.879 26.885c-18.778 0-29.739-5.382-31.8-8 2.062-2.618 13.023-8 31.8-8s29.739 5.382 31.8 8c-2.061 2.618-13.022 8-31.8 8zm32-64c-2.63 0-5.23-.116-7.762-.334a168.482 168.482 0 0 0 7.05-15.652c.238 0 .474-.014.712-.014 18.778 0 29.739 5.382 31.8 8-2.061 2.618-13.022 8-31.8 8zm8.2 24c2.062-2.618 13.023-8 31.8-8s29.739 5.382 31.8 8c-2.062 2.618-13.023 8-31.8 8s-29.739-5.382-31.8-8zm.922 18.885a63.585 63.585 0 0 0 7.567 2.4q-2.013.809-3.72 1.677a21.663 21.663 0 0 0 -3.848-4.077zm38.878 29.115c-18.778 0-29.739-5.382-31.8-8 2.062-2.618 13.023-8 31.8-8s29.739 5.382 31.8 8c-2.061 2.618-13.022 8-31.8 8zm31.256-26.741a63.132 63.132 0 0 0 -7.944-2.541c6.435-2.583 10.442-5.671 12.911-8.7q3.652 2.547 7.808 4.929c2.9 1.657 5.93 3.286 9.013 4.8-1.493.466-2.934.968-4.3 1.515a38.553 38.553 0 0 0 -8.744 4.738 38.553 38.553 0 0 0 -8.744-4.741zm80.544 18.741c-2.062 2.618-13.023 8-31.8 8s-29.739-5.382-31.8-8c2.062-2.618 13.023-8 31.8-8s29.739 5.382 31.8 8zm.215-184.5c-.011.167-.016.335-.016.5 0 68.646-16.419 107.445-32.26 128.911a97.261 97.261 0 0 0 -11.771-7.857l-.041-.023c18.398-25.459 28.073-61.516 28.073-105.031 0-41.685-8.871-74.85-26.366-98.571-17.6-23.864-43.546-36.757-75.15-37.4-.825-.019-1.652-.031-2.484-.031q-2.211 0-4.39.089c-21.048.738-39.241 6.827-54.3 18.135q-5.148-7.839-11.341-15.978c6.737-7.881 11.462-12.376 11.513-12.425a7.981 7.981 0 0 0 1.875-2.692c.155-.349 15.413-35.127 56.643-35.127 40.9 0 56.026 33.723 56.638 35.129a7.992 7.992 0 0 0 1.527 2.344c33.735 35.967 48.752 69.419 55.409 91.146 7.204 23.512 6.448 38.754 6.442 38.881z"/><path d="m176 136a8 8 0 0 0 -8 8v312a8 8 0 0 0 16 0v-312a8 8 0 0 0 -8-8z"/><path d="m147.871 153a8 8 0 0 0 -10.871 3.129c-1.675 3.027-41 74.977-41 147.871 0 73.11 39.523 137.519 41.206 140.225a8 8 0 0 0 13.59-8.446c-.388-.625-38.796-63.342-38.796-131.779 0-68.688 38.612-139.425 39-140.131a8 8 0 0 0 -3.129-10.869z"/><path d="m215 156.129a8 8 0 1 0 -14 7.742c.391.706 39 71.322 39 140.129 0 68.437-38.408 131.154-38.794 131.775a8 8 0 1 0 13.588 8.45c1.683-2.706 41.206-67.115 41.206-140.225 0-72.894-39.325-144.844-41-147.871z"/></svg>