<svg id="Filled" height="512" viewBox="0 0 512 512" width="512" xmlns="http://www.w3.org/2000/svg"><path d="m128 24h256v280h-256z" fill="#663c28"/><path d="m384 280-32 32v64l32 32z" fill="#ad6643"/><path d="m120 280h272v208h-272z" fill="#eb423f"/><path d="m120 488 32-32v-176h-32z" fill="#d13330"/><path d="m392 488-32-32v-144h32z" fill="#d13330"/><path d="m120 280 40 48 248 32-16-80z" fill="#f7cca9"/><path d="m152 456h208l32 32h-272z" fill="#962523"/><path d="m160 56h64v64h-64z" fill="#8c5237"/><path d="m288 56h64v64h-64z" fill="#8c5237"/><g fill="#ad6643"><path d="m256 24-32 32v64l32 32z"/><path d="m128 24 32 32h64l32-32z"/><path d="m384 24-32 32v64l32 32z"/><path d="m256 24 32 32h64l32-32z"/></g><path d="m160 184h64v64h-64z" fill="#8c5237"/><path d="m288 184h64v64h-64z" fill="#8c5237"/><path d="m256 152-32 32v64l32 32z" fill="#ad6643"/><path d="m128 152 32 32h64l32-32z" fill="#ad6643"/><path d="m384 152-32 32v64l32 32z" fill="#ad6643"/><path d="m256 152 32 32h64l32-32z" fill="#ad6643"/><path d="m120 496h272a8 8 0 0 0 8-8v-120.966l6.976.9a7.846 7.846 0 0 0 1.024.066 8 8 0 0 0 7.845-9.569l-16-80a8 8 0 0 0 -7.845-6.431v-248a8 8 0 0 0 -8-8h-256a8 8 0 0 0 -8 8v248a7.983 7.983 0 0 0 -7.994 8h-.006v208a8 8 0 0 0 8 8zm24-16 12-16h200.687l16 16zm16-32v-111.934l192 24.774v87.16zm224 20.687-16-16v-89.782l16 2.064zm1.441-180.687 12.528 62.64-233.832-30.173-27.056-32.467zm-164.754-160 16 16h-89.374l16-16zm-52.687-16v-48h48v48zm68.687 48-16 16h-57.374l-16-16zm11.313 11.313v89.374l-16-16v-57.374zm-32 20.687v48h-48v-48zm4.687 64 16 16h-89.374l16-16zm128-128 16 16h-89.374l16-16zm-52.687-16v-48h48v48zm68.687 48-16 16h-57.374l-16-16zm11.313 11.313v89.374l-16-16v-57.374zm-32 20.687v48h-48v-48zm4.687 64 16 16h-89.374l16-16zm27.313-123.313-16-16v-57.374l16-16zm-11.313-100.687-16 16h-57.374l-16-16zm-100.687 11.313 16 16v57.374l-16 16zm0 128 16 16v57.374l-16 16zm-16-38.626-16-16v-57.374l16-16zm-11.313-100.687-16 16h-57.374l-16-16zm-100.687 11.313 16 16v57.374l-16 16zm0 128 16 16v57.374l-16 16zm-8 130.787 16 19.2v132.034l-16 21.333z"/></svg>