<?xml version="1.0" encoding="UTF-8"?>
<svg xmlns="http://www.w3.org/2000/svg" id="Filled" viewBox="0 0 512 512" width="512" height="512"><path d="M256,352h0c-33.434,0-63.891-23.564-72-56L152,128c0-31.419,16.581-64,48-64H312c31.419,0,48,32.581,48,64L328,296C319.891,328.436,289.434,352,256,352Z" style="fill:#eb423f"/><path d="M252.69,71.28a1.111,1.111,0,0,1-.16-.07,2.116,2.116,0,0,1-.21-.11A2.528,2.528,0,0,0,252.69,71.28Z" style="fill:#35a872"/><path d="M252.69,71.28a1.111,1.111,0,0,1-.16-.07,2.116,2.116,0,0,1-.21-.11A2.528,2.528,0,0,0,252.69,71.28Z" style="fill:#35a872"/><path d="M351.59,456H304a15.978,15.978,0,0,0,16-16.129A16.268,16.268,0,0,0,303.59,424H272V382.727c41.423-6.5,76.727-37.706,87.04-78.967l.22-.88,11.658-61.189a31.968,31.968,0,0,0-10.5-30.191C353.662,205.671,347.665,200,336,200c-24,0-24,24-56,24s-32-48-72-48c-29.28,0-41.415,25.723-55.229,39.5a37.856,37.856,0,0,0-10.215,33.9L152.74,302.88l.22.88c10.313,41.261,45.617,72.465,87.04,78.967V424H208a16,16,0,0,0,0,32H160a15.978,15.978,0,0,0-16,16.128A16.268,16.268,0,0,0,160.41,488H352a15.978,15.978,0,0,0,16-16.129A16.268,16.268,0,0,0,351.59,456Z" style="fill:#95573a"/><path d="M226.49,336.861a66.286,66.286,0,0,1-34.675-42.588l-7.576-39.77a8,8,0,0,0-15.717,2.994l7.62,40c.028.149.06.3.1.443a82.264,82.264,0,0,0,43.027,53.2,8,8,0,0,0,7.224-14.278Z"/><path d="M366.8,305.7l.219-.88c.037-.146.069-.293.1-.441l15.6-81.88a8,8,0,0,0-4.876-8.921c-5.236-2.1-9.055-5.41-13.1-8.912a71.449,71.449,0,0,0-9.776-7.489l12.89-67.678A7.916,7.916,0,0,0,368,128c0-17.755-4.945-35.334-13.567-48.229C344.183,64.442,329.113,56,312,56H293.7l37.551-16.689a8,8,0,1,0-6.5-14.622L264,51.69V24a8,8,0,0,0-16,0V51.69l-60.751-27a8,8,0,1,0-6.5,14.622L218.3,56H200c-17.113,0-32.183,8.442-42.433,23.771C148.945,92.666,144,110.245,144,128a7.916,7.916,0,0,0,.142,1.5l13.066,68.6q-.576.707-1.142,1.4c-6.905,8.5-12.869,15.845-19.13,16.445a8,8,0,0,0-7.094,9.461l15.04,78.97c.028.147.06.3.1.441l.22.881c10.379,41.525,44.8,74.393,86.8,83.655V416H208a24,24,0,0,0-22.629,32H160a24,24,0,0,0,0,48H352a24,24,0,0,0,0-48H326.642A24.035,24.035,0,0,0,304,416H280V389.354C322,380.092,356.422,347.224,366.8,305.7ZM170.868,88.665C175.951,81.062,185.132,72,200,72H312c14.868,0,24.049,9.062,29.132,16.665,6.791,10.155,10.734,24.187,10.865,38.6l-12.364,64.911c-1.168-.1-2.367-.174-3.633-.174-14.121,0-21.889,6.728-28.742,12.662C300.233,210.746,294.166,216,280,216c-10.558,0-16.412-7.135-25.089-18.776-2.662-3.572-5.5-7.382-8.744-11.032A27.168,27.168,0,0,0,248,176c0-8.837-3.582-16-8-16-4.12,0-7.51,6.231-7.949,14.237A46.491,46.491,0,0,0,208,168c-16.4,0-28.091,6.771-37.33,15.268l-10.667-56C160.134,112.852,164.077,98.82,170.868,88.665ZM272,432h32a8,8,0,1,1,0,16,8,8,0,0,0,0,16h48a8,8,0,1,1,0,16H160a8,8,0,1,1,0-16h48a8,8,0,0,0,0-16,8,8,0,1,1,0-16h32a8,8,0,0,0,8-8V382.727a8,8,0,0,0-6.76-7.9c-38.767-6.085-71.126-35.423-80.518-73l-.165-.66-13.636-71.6c8.537-3.933,15.135-12.056,21.565-19.973C178.7,197.009,189.271,184,208,184c17.1,0,24.97,10.559,34.083,22.785C250.892,218.6,260.877,232,280,232c20.131,0,29.891-8.451,37.732-15.243C323.821,211.483,327.844,208,336,208s12.179,3.484,18.271,8.76a75.1,75.1,0,0,0,11.591,8.72l-14.419,75.68-.165.659c-9.392,37.581-41.751,66.919-80.518,73a8,8,0,0,0-6.76,7.9V424A8,8,0,0,0,272,432Z"/><ellipse cx="192" cy="128" rx="8" ry="16"/><ellipse cx="288" cy="176" rx="8" ry="16"/><ellipse cx="232" cy="128" rx="8" ry="16"/><ellipse cx="280" cy="128" rx="8" ry="16"/><ellipse cx="320" cy="128" rx="8" ry="16"/><path d="M232,456a8,8,0,0,0,8,8h32a8,8,0,0,0,0-16H240A8,8,0,0,0,232,456Z"/></svg>
