<svg id="Capa_1" enable-background="new 0 0 512.555 512.555" height="512" viewBox="0 0 512.555 512.555" width="512" xmlns="http://www.w3.org/2000/svg"><g><g><g><path d="m470.888 71.273-401.078-6.298c-3.941-.062-7.104-3.275-7.104-7.216v-11.096c0-3.986 3.231-7.217 7.217-7.217h401.189c4.067 0 7.363 3.297 7.363 7.363v16.994c.001 4.172-3.416 7.535-7.587 7.47z" fill="#f6e2c4"/></g><g><g id="XMLID_206_"><g><path d="m207.411 23.477h30.21v255.93h-30.21z" fill="#fbe88c"/><path d="m146.981 23.477h30.22v255.93h-30.22z" fill="#fbe88c"/><g fill="#fcf0b6"><path d="m177.201 23.477h30.21v255.93h-30.21z"/><path d="m116.771 23.477h30.21v255.93h-30.21z"/></g></g></g></g><circle cx="319.126" cy="264.811" fill="#fbe88c" r="70.053"/><circle cx="141.166" cy="267.021" fill="#fbe88c" r="70.053"/><g fill="#fbe372"><path d="m302.912 196.638c-30.869 7.317-53.838 35.066-53.838 68.172 0 38.689 31.364 70.053 70.053 70.053 6.588 0 12.956-.929 19.001-2.63 5.675-13.7 8.816-28.707 8.816-44.435-.001-36.862-17.222-69.802-44.032-91.16z"/><path d="m113.984 287.799c0 16.769 3.568 32.719 9.976 47.138 5.506 1.391 11.268 2.136 17.206 2.136 38.689 0 70.053-31.364 70.053-70.052 0-33.682-23.775-61.802-55.455-68.519-25.521 21.384-41.78 53.475-41.78 89.297z"/><path d="m173.207 301.184c0-49.091 30.197-91.136 73.014-108.589-5.124-.841-10.395-1.275-15.757-1.275-53.284 0-96.479 43.195-96.479 96.479 0 44.215 29.744 81.481 70.314 92.886-19.297-20.893-31.092-48.818-31.092-79.501z"/></g><path d="m364.991 413.497 54.05 20.09c5.09 1.89 10.13-2.9 8.49-8.08l-39.9-125.91c-.4-1.26-1.16-2.34-2.16-3.12-1.11-.89-2.52-1.4-4.01-1.4h-301c-1.43 0-2.78.47-3.87 1.29-1.07.79-1.88 1.91-2.3 3.23l-39.9 125.91c-1.64 5.18 3.4 9.97 8.5 8.08l54.04-20.09 136.464-48.955z" fill="#de6a66"/><g><circle cx="230.463" cy="287.799" fill="#fbe88c" r="96.479"/><path d="m381.461 295.077h-301c-1.43 0-2.78.47-3.87 1.29l.13.71 15.562 86.128 22.448-3.328 9.771 91.843-15.866 1.971 2.575 14.245c1.8 9.91 10.42 17.12 20.49 17.12h199.46c10.1 0 18.74-7.25 20.5-17.2l9.246-52.306-5.045-2.916 1.099-9.228 6.598-2.856 1.252-7.084 20.39-115.39.27-1.6c-1.11-.889-2.52-1.399-4.01-1.399z" fill="#ea9a98"/><path d="m381.461 295.077h-264.39-36.61c-1.43 0-2.78.47-3.87 1.29l.13.71 7.365 40.76 14.948 82.715 4.328 2.691 1.303 9.618-2.921 2.689 9.467 52.387c1.8 9.91 10.42 17.12 20.49 17.12h199.46c10.1 0 18.74-7.25 20.5-17.2l1.655-9.365h-185.704c-10.07 0-18.69-7.21-20.49-17.12l-10.252-56.722c-2.932-16.225 9.535-31.148 26.023-31.148h176.509c9.777 0 18.762-4.917 24.033-13.153l14.866-23.232 6.899-39.041.27-1.6c-1.109-.889-2.519-1.399-4.009-1.399z" fill="#e5827f"/><path d="m381.462 295.074-34.873 54.495c-1.568 2.451-4.277 3.934-7.187 3.934h-216.877c-2.91 0-5.619-1.483-7.187-3.934l-34.873-54.495z" fill="#ea9a98"/><path d="m289.877 455.38h-118.827c-4.063 0-7.357-3.294-7.357-7.357v-35.983c0-4.063 3.294-7.357 7.357-7.357h118.827c4.063 0 7.357 3.294 7.357 7.357v35.983c.001 4.063-3.293 7.357-7.357 7.357z" fill="#fcf6ed"/></g><g><path d="m473.817 39.446h-403.894c-3.986 0-7.217-3.231-7.217-7.217v-11.096c0-3.942 3.163-7.154 7.104-7.216l403.849-6.341c2.59-.041 4.703 2.059 4.671 4.649-.078 6.331.017 16.627.086 22.577.03 2.56-2.038 4.644-4.599 4.644z" fill="#fcf1de"/></g></g><g><path d="m289.877 397.182h-118.827c-8.192 0-14.857 6.665-14.857 14.857v35.983c0 8.192 6.665 14.857 14.857 14.857h118.828c8.192 0 14.857-6.665 14.857-14.857v-35.983c0-8.192-6.665-14.857-14.858-14.857zm-.142 50.698h-118.543v-35.698h118.542v35.698z"/><path d="m478.593 63.893-233.473-3.666v-13.282h233.355c4.142 0 7.5-3.358 7.5-7.5s-3.358-7.5-7.5-7.5h-408.269v-10.534l331.625-5.207c4.142-.065 7.446-3.475 7.381-7.617s-3.493-7.404-7.617-7.381l-331.903 5.211c-7.987.125-14.486 6.727-14.486 14.716v11.096c0 2.623.698 5.082 1.905 7.217-1.208 2.135-1.905 4.594-1.905 7.217v11.096c0 7.988 6.499 14.59 14.486 14.715l39.58.621v42.467c0 4.142 3.358 7.5 7.5 7.5s7.5-3.358 7.5-7.5v-68.617h15.212v144.076c-5.22.148-10.306.825-15.212 1.984v-45.481c0-4.142-3.358-7.5-7.5-7.5s-7.5 3.358-7.5 7.5v50.741c-25.54 12.154-43.24 38.207-43.24 68.323 0 8.703 1.48 17.169 4.363 25.264-1.454 1.513-2.584 3.366-3.252 5.474l-39.897 125.911c-1.633 5.151-.216 10.666 3.697 14.392 2.667 2.54 6.108 3.881 9.633 3.881 1.646 0 3.311-.292 4.923-.892l46.425-17.255 11.91 65.909c2.438 13.491 14.158 23.283 27.868 23.283h199.455c13.763 0 25.491-9.837 27.887-23.391l11.589-65.567 45.795 17.021c5.065 1.883 10.643.738 14.556-2.989 3.913-3.726 5.33-9.241 3.698-14.392l-39.897-125.911c-.78-2.461-2.189-4.576-4.011-6.205 2.719-7.874 4.122-16.091 4.122-24.533 0-13.373-3.557-26.534-10.285-38.062-2.088-3.577-6.681-4.785-10.258-2.696-3.577 2.088-4.785 6.681-2.697 10.258 5.391 9.235 8.24 19.782 8.24 30.5 0 7.24-1.279 14.275-3.767 20.985h-16.389c3.342-6.424 5.155-13.609 5.155-20.985 0-25.156-20.466-45.623-45.622-45.623-3.156 0-6.289.331-9.364.979-3.672-4.347-7.693-8.39-12.021-12.085 6.795-2.561 14.034-3.894 21.385-3.894 11.617 0 22.919 3.312 32.683 9.578 1.254.805 2.657 1.189 4.044 1.189 2.469 0 4.886-1.218 6.319-3.45 2.237-3.486 1.225-8.125-2.261-10.363-12.186-7.82-26.289-11.954-40.784-11.954-12.393 0-24.535 3.034-35.403 8.799-11.638-6.995-24.749-11.774-38.749-13.758v-110.777l233.238 3.662c.04 0 .08.001.12.001 4.087 0 7.432-3.281 7.497-7.382.062-4.142-3.242-7.552-7.384-7.617zm-159.168 223.681h-15.018c-.738-40.158-33.613-72.605-73.944-72.605s-73.206 32.447-73.944 72.605h-15.017c.738-48.431 40.358-87.605 88.962-87.605 48.603 0 88.223 39.174 88.961 87.605zm48.333 15-27.486 42.952c-.19.298-.516.477-.87.477h-216.877c-.354 0-.68-.178-.87-.476l-27.486-42.952h273.589zm-256.725-35.985c0-16.672 13.395-30.266 29.987-30.606-9.008 15.154-14.273 32.777-14.519 51.591h-7.099c-5.343-5.667-8.369-13.172-8.369-20.985zm163.374 20.985c-.73-23.615-20.155-42.605-43.944-42.605s-43.214 18.99-43.944 42.605h-15c.735-31.887 26.884-57.605 58.944-57.605s58.209 25.718 58.944 57.605zm-15 0h-57.888c.72-15.344 13.426-27.605 28.944-27.605s28.224 12.261 28.944 27.605zm-74.711-91.973v-148.656h15.212v142.608c-5.26 1.621-10.342 3.65-15.212 6.048zm30.212-9.468v-139.188h15.212v138.028c-5.167.018-10.246.412-15.212 1.16zm-105.636-128.04-39.066-.613v-10.535h39.066zm60.424-11.148v149.405c-4.903-1.958-10.001-3.396-15.212-4.29v-145.115zm-28.041 159.021c7.351 0 14.588 1.334 21.383 3.895-4.327 3.694-8.347 7.737-12.019 12.084-3.076-.648-6.208-.979-9.365-.979-25.156 0-45.622 20.466-45.622 45.623 0 7.374 1.805 14.561 5.144 20.985h-16.385c-2.487-6.708-3.759-13.744-3.759-20.985.001-33.427 27.196-60.623 60.623-60.623zm-99.505 219.895 31.985-100.941 15.079 83.448zm302.122 60.693c-1.126 6.375-6.642 11.001-13.115 11.001h-199.455c-6.448 0-11.96-4.605-13.107-10.951l-9.226-51.054h29.435c4.142 0 7.5-3.358 7.5-7.5s-3.358-7.5-7.5-7.5h-32.145l-17.786-98.422 20.147 31.483c2.961 4.628 8.01 7.391 13.504 7.391h216.877c5.494 0 10.542-2.763 13.504-7.391l20.535-32.089-17.503 99.029h-32.815c-4.142 0-7.5 3.358-7.5 7.5s3.358 7.5 7.5 7.5h30.164zm75.505-60.693-46.491-17.28 14.686-83.091zm-69.884-159.272c0 7.813-3.026 15.318-8.369 20.985h-7.099c-.245-18.814-5.511-36.438-14.519-51.591 16.593.34 29.987 13.934 29.987 30.606z"/><path d="m433.673 15.703c.04 0 .08 0 .12-.001l44.8-.704c4.142-.065 7.446-3.475 7.381-7.617s-3.494-7.406-7.616-7.381l-44.8.704c-4.142.065-7.446 3.475-7.381 7.617.064 4.101 3.409 7.382 7.496 7.382z"/></g></g></svg>