<svg id="Filled" height="512" viewBox="0 0 512 512" width="512" xmlns="http://www.w3.org/2000/svg"><path d="m88 152s33.667-120 144-120 144 120 144 120l-144 96z" fill="#f7cca9"/><path d="m200 32h64v280h-64z" fill="#a1603f"/><path d="m200 216-64 8-32-184 64-8z" fill="#8a5237"/><path d="m264 32h64v232h-64z" fill="#8a5237"/><path d="m230.059 24.235h67.882v271.529h-67.882z" fill="#ab6643" transform="matrix(.707 .707 -.707 .707 190.461 -139.813)"/><path d="m376 152-144 336-80-192 82.53-53.05z" fill="#e0b999"/><path d="m315.49 293.2-83.49 194.8-144-336z" fill="#f0c6a4"/><path d="m344 256h64v224h-64z" fill="#ab6643"/><path d="m424 256v63.458c0 13.449-11.006 24.787-24.452 24.538a24.006 24.006 0 0 1 -23.548-23.996v47.458c0 13.449-11.006 24.787-24.452 24.538a24.006 24.006 0 0 1 -23.548-23.996v-112a32 32 0 0 1 32-32h32a32 32 0 0 1 32 32z" fill="#5e3725"/><path d="m344 488h24a8 8 0 0 0 16 0h24a8 8 0 0 0 8-8v-132.423a32.351 32.351 0 0 0 6.156-4.74 32.978 32.978 0 0 0 9.844-23.379v-63.458a40.045 40.045 0 0 0 -40-40h-32c-.932 0-1.854.044-2.771.107l26.124-60.956a7.964 7.964 0 0 0 .331-5.307h.019c-.193-.688-4.493-15.784-14.846-35.382l20.8-20.8a8 8 0 0 0 0-11.314l-18.343-18.348 2.343-2.343a8 8 0 0 0 -11.314-11.314l-2.343 2.343-18.343-18.343a7.976 7.976 0 0 0 -5.657-2.343 8 8 0 0 0 -8-8h-24a8 8 0 0 0 -16 0h-48a8 8 0 0 0 -16 0h-24a8 8 0 0 0 -7.534 5.332 136.546 136.546 0 0 0 -15.847 5.537l-.737-4.24a8 8 0 0 0 -8.874-6.567l-24.336 3.038-.794-4.495a8 8 0 0 0 -15.756 2.782l.653 3.7-23.767 2.971a8 8 0 0 0 -6.89 9.309l9.594 55.165c-18.036 27.448-25.112 52.232-25.412 53.307h.019a7.964 7.964 0 0 0 .331 5.307l144 336a7.993 7.993 0 0 0 14.7 0h.006l80.644-188.171v65.025a32.131 32.131 0 0 0 16 27.656v84.344a8 8 0 0 0 8 8zm24-16h-16v-72a31.178 31.178 0 0 0 16-4.409zm32 0h-16v-124.334a31.63 31.63 0 0 0 15.4 4.334c.2 0 .4-.006.6-.007zm-40-240h32a24.028 24.028 0 0 1 24 24v63.458a16.881 16.881 0 0 1 -5.053 11.961 15.521 15.521 0 0 1 -11.247 4.581 16.075 16.075 0 0 1 -15.7-16 8 8 0 0 0 -16 0v47.458a16.881 16.881 0 0 1 -5.053 11.961 15.606 15.606 0 0 1 -11.247 4.581 16.075 16.075 0 0 1 -15.7-16v-112a24.028 24.028 0 0 1 24-24zm-56-192h16v4.686l-16 16zm-32 0h16v36.686l-16 16zm-32 0h16v68.686l-16 16zm-32 0h16v100.686l-16 16zm-2.351 141.665.016-.016 130.335-130.336 12.686 12.687-82.343 82.343a8 8 0 0 0 11.314 11.314l82.343-82.343 12.686 12.686-144.567 144.566-14.834-9.537 36.372-36.372a8 8 0 0 0 -11.314-11.314l-38.832 38.832-16.053-10.32zm160.826-33.052-30.475 19.587v-20.89l20.972-20.972a201.2 201.2 0 0 1 9.503 22.275zm-46.475 14.701v15.175l-42.492 27.317zm-128-117.125v77.119l-12.559-72.208a120.918 120.918 0 0 1 12.559-4.911zm-62.441-1.322 20.563 116.524a8 8 0 0 0 15.756-2.782l-20.422-115.729 15.969-2 24.056 138.321-15.8 15.8-34.461-22.153-21.9-125.948zm-19.634 75.893 7.014 40.333-19.412-12.479a205.568 205.568 0 0 1 12.398-27.854zm122.075 346.932-126.36-294.841 198.133 127.371zm88-211.692v6.358l-9.836 22.951-63.37-40.738 111.566-71.721-21.738 50.723a39.964 39.964 0 0 0 -16.622 32.427z"/></svg>