<?xml version="1.0" encoding="UTF-8"?>
<svg xmlns="http://www.w3.org/2000/svg" id="Filled" viewBox="0 0 512 512" width="512" height="512"><rect x="80" y="152" width="192" height="64" rx="32" ry="32" style="fill:#c2846a"/><rect x="64" y="184" width="224" height="64" rx="32" ry="32" style="fill:#ad6643"/><polygon points="208 152 136 120 136 152 208 152" style="fill:#ad6643"/><rect x="48" y="216" width="256" height="144" rx="32" ry="32" style="fill:#c2846a"/><path d="M24,360H488a0,0,0,0,1,0,0v0a32,32,0,0,1-32,32H56a32,32,0,0,1-32-32v0a0,0,0,0,1,0,0Z" style="fill:#dadcde"/><path d="M240,216h0a32,32,0,0,0-32,32v31.551c0,8.618-6.626,16.031-15.235,16.431A16,16,0,0,1,176,280v23.551c0,8.618-6.626,16.031-15.235,16.431A16,16,0,0,1,144,304V248a16,16,0,0,1-32,0v23.551c0,8.618-6.626,16.031-15.235,16.431A16,16,0,0,1,80,272V232a16,16,0,0,0-16-16H240Z" style="fill:#eec4a2"/><circle cx="368" cy="264" r="96" style="fill:#d49073"/><path d="M488,352H423.341A103.96,103.96,0,1,0,290.128,195.147,40.27,40.27,0,0,0,280,184.04c0-.014,0-.027,0-.04a40.045,40.045,0,0,0-40-40H209.7l-70.449-31.311A8,8,0,0,0,128,120v24H112a40.045,40.045,0,0,0-40,40v.021A39.965,39.965,0,0,0,56,216v.021A39.965,39.965,0,0,0,40,248v80a39.788,39.788,0,0,0,8.022,24H24a8,8,0,0,0-8,8,40.045,40.045,0,0,0,40,40H456a40.045,40.045,0,0,0,40-40A8,8,0,0,0,488,352Zm-100.791-2.118L455.8,269.859A88.179,88.179,0,0,1,387.209,349.882ZM304,288a64.072,64.072,0,0,1,64-64,39.792,39.792,0,0,1,24.363,8.307l-44.614,60.548A23.981,23.981,0,0,1,368,256a8,8,0,0,0,0-16,39.968,39.968,0,0,0-30.131,66.264L320.1,330.379A63.725,63.725,0,0,1,304,288Zm8.657,64h-8.685a39.923,39.923,0,0,0,2.7-4.075Q309.588,350.063,312.657,352Zm90.4-107.236A39.981,39.981,0,0,1,368,304a23.894,23.894,0,0,1-7.66-1.261ZM350.571,316A39.765,39.765,0,0,0,368,320a55.694,55.694,0,0,0,33-10.8l-36.593,42.692a63.605,63.605,0,0,1-32.259-10.9Zm103.77-69.021-36.6,42.7A55.823,55.823,0,0,0,413.2,231l19.545-26.525A87.816,87.816,0,0,1,454.341,246.976ZM420.833,193.67l-18.981,25.759A55.7,55.7,0,0,0,368,208a79.929,79.929,0,0,0-16.743,1.777l47.22-28.333A87.922,87.922,0,0,1,420.833,193.67ZM368,176c2.649,0,5.269.125,7.859.355l-88.894,53.336A88.136,88.136,0,0,1,368,176Zm-87.184,76.041,26.172-15.7A79.874,79.874,0,0,0,289.6,303.944,87.46,87.46,0,0,1,280,264,88.372,88.372,0,0,1,280.816,252.041ZM144,132.311,170.3,144H144ZM112,160H240a24.04,24.04,0,0,1,22.825,16.592A39.727,39.727,0,0,0,256,176H96a39.98,39.98,0,0,0-6.825.595A24.037,24.037,0,0,1,112,160ZM96,192H256a24.075,24.075,0,0,1,22.612,16H80a39.98,39.98,0,0,0-6.825.595A24.037,24.037,0,0,1,96,192Zm48,48a8,8,0,0,0-8,8,8,8,0,0,1-16,0,8,8,0,0,0-16,0v24a8,8,0,0,1-16,0V232a23.889,23.889,0,0,0-1.376-8h121.4A39.788,39.788,0,0,0,200,248v31.551a8.324,8.324,0,0,1-7.606,8.44A8,8,0,0,1,184,280a8,8,0,0,0-16,0v24a8,8,0,0,1-16,0V248A8,8,0,0,0,144,240Zm-88,8a24.031,24.031,0,0,1,13.655-21.653A7.976,7.976,0,0,1,72,232v40a24,24,0,0,0,48,0v-1.371a24.026,24.026,0,0,0,16,0V304a24,24,0,0,0,48,0v-1.354a24.041,24.041,0,0,0,32-23.1V248a24.028,24.028,0,0,1,24-24h32a103.85,103.85,0,0,0,22.169,113.171A24.092,24.092,0,0,1,272,352H80a24.028,24.028,0,0,1-24-24ZM456,384H56a24.042,24.042,0,0,1-22.629-16H478.629A24.042,24.042,0,0,1,456,384Z"/></svg>
