<svg id="Capa_1" enable-background="new 0 0 510.969 510.969" height="512" viewBox="0 0 510.969 510.969" width="512" xmlns="http://www.w3.org/2000/svg"><g><g><g><g id="XMLID_200_"><g><path d="m469.824 260.259c12.93 15.07 18.2 35.26 14.3 54.73l-.01.07-1.93 27.01-21.28 10.21h-419.76l-14.3-37.29c-3.9-19.47 1.37-39.66 14.3-54.73l17.41-18.33 25.16-79.69 91.79-24.02 31.67-5.92c3.61-.67 7.11-1.75 10.45-3.21 3.34-1.45 6.52-3.28 9.48-5.45 8.59-6.32 18.74-9.48 28.88-9.48s20.29 3.16 28.88 9.48c5.91 4.35 12.72 7.31 19.93 8.66l31.67 5.92 86.19 21.04z" fill="#d8efa7"/></g></g></g><g><circle cx="393.25" cy="210.064" fill="#e5827f" r="92.134"/><path d="m393.25 269.198c-32.606 0-59.134-26.527-59.134-59.134s26.527-59.134 59.134-59.134c32.605 0 59.133 26.527 59.133 59.134s-26.528 59.134-59.133 59.134z" fill="#ea9a98"/><circle cx="118.991" cy="210.064" fill="#e5827f" r="92.134"/><path d="m144.95 298.426c-50.884 0-92.134-41.25-92.134-92.134 0-41.795 27.832-77.084 65.972-88.359-50.79.11-91.931 41.315-91.931 92.131 0 50.884 41.25 92.134 92.134 92.134 9.089 0 17.868-1.323 26.162-3.775-.068.001-.135.003-.203.003z" fill="#de6a66"/><path d="m118.992 269.198c-32.606 0-59.134-26.527-59.134-59.134s26.527-59.134 59.134-59.134c32.605 0 59.133 26.527 59.133 59.134s-26.528 59.134-59.133 59.134z" fill="#ea9a98"/><circle cx="476.088" cy="342.069" fill="#e5827f" r="27.382"/><circle cx="34.882" cy="342.069" fill="#e5827f" r="27.382"/><path d="m451.519 396.869h-392.069c-10.108 0-18.303-8.194-18.303-18.303 0-118.375 95.962-214.337 214.337-214.337 118.375 0 214.337 95.962 214.337 214.337.001 10.108-8.194 18.303-18.302 18.303z" fill="#f6e2c4"/><path d="m125.584 311.106c14.618-47.659 40.005-114.895 72.477-139.099-90.487 25.105-156.914 108.076-156.914 206.559 0 10.108 8.194 18.303 18.303 18.303h392.069c10.108 0 18.303-8.194 18.303-18.303 0-5.479-.208-10.909-.612-16.285h-305.802c-26.611 0-45.627-25.733-37.824-51.175z" fill="#f8deb6"/><g fill="#f7d8a4"><path d="m376.507 294.639h-35.338c-8.364 0-15.145-6.78-15.145-15.145 0-8.364 6.78-15.145 15.145-15.145h35.338c8.364 0 15.145 6.781 15.145 15.145-.001 8.365-6.781 15.145-15.145 15.145z"/><path d="m308.107 345.891h-26.796c-8.514 0-15.416-6.902-15.416-15.416 0-8.514 6.902-15.416 15.416-15.416h26.796c8.514 0 15.416 6.902 15.416 15.416 0 8.514-6.902 15.416-15.416 15.416z"/></g></g></g><g><path d="m417.174 183.09c2.467-3.327 1.771-8.024-1.557-10.492-3.325-2.466-8.023-1.771-10.492 1.557l-1.537 2.073c-2.467 3.327-1.771 8.024 1.557 10.492 1.343.996 2.909 1.476 4.462 1.476 2.294 0 4.559-1.049 6.03-3.033z"/><path d="m390.773 172.156c-.607-4.098-4.434-6.926-8.519-6.319-4.098.607-6.927 4.421-6.319 8.519l.251 1.693c.552 3.725 3.754 6.401 7.409 6.401.366 0 .737-.027 1.109-.082 4.098-.607 6.927-4.421 6.319-8.519z"/><path d="m431.77 202.564c-.608-4.098-4.422-6.926-8.52-6.319l-1.692.251c-4.097.608-6.926 4.422-6.318 8.519.553 3.725 3.754 6.401 7.409 6.401.366 0 .737-.027 1.11-.082l1.692-.251c4.097-.608 6.926-4.422 6.319-8.519z"/><path d="m510.969 342.069c0-13.53-7.501-25.337-18.56-31.494 2.128-18.148-2.658-36.205-13.506-50.929 10.574-18.869 14.9-41.004 11.622-63.108-3.938-26.554-18.061-49.886-39.768-65.698-3.347-2.438-8.038-1.703-10.479 1.646-2.438 3.348-1.701 8.039 1.646 10.478 18.429 13.425 30.419 33.232 33.762 55.774 4.055 27.339-5.588 54.741-25.386 73.539-2.755-5.032-5.711-9.964-8.865-14.787 14.219-15.04 20.808-35.624 17.741-56.304-5.469-36.879-39.913-62.436-76.803-56.967-18.481 2.741-34.65 12.811-45.289 27.948-5.351-2.114-10.783-4.024-16.293-5.713 13.026-20.844 34.551-35.099 59.134-38.745 12.037-1.785 24.022-.998 35.623 2.339 3.979 1.144 8.136-1.154 9.281-5.135s-1.154-8.136-5.135-9.281c-13.677-3.934-27.799-4.863-41.97-2.761-15.772 2.339-30.471 8.391-43.072 17.376l-28.486-5.324c-6.062-1.134-11.893-3.665-16.86-7.322-19.932-14.671-46.718-14.67-66.651 0-4.967 3.656-10.797 6.188-16.859 7.321l-29.277 5.472c-12.646-9.067-27.42-15.172-43.278-17.524-37.737-5.596-75.854 11.277-97.107 42.985-2.306 3.441-1.386 8.1 2.055 10.406 3.44 2.307 8.1 1.386 10.406-2.054 18.045-26.923 50.41-41.25 82.445-36.499 24.584 3.645 46.108 17.901 59.134 38.745-5.51 1.689-10.942 3.599-16.293 5.713-10.638-15.137-26.807-25.208-45.29-27.948-36.875-5.466-71.333 20.087-76.802 56.967-3.066 20.681 3.523 41.264 17.741 56.304-3.154 4.822-6.11 9.754-8.865 14.786-19.798-18.797-29.44-46.2-25.385-73.539.354-2.395.831-4.852 1.416-7.303.96-4.029-1.527-8.074-5.557-9.035-4.034-.962-8.074 1.528-9.035 5.556-.685 2.872-1.244 5.76-1.662 8.582-3.278 22.106 1.05 44.244 11.623 63.116-10.839 14.714-15.629 32.755-13.506 50.92-11.057 6.16-18.559 17.967-18.559 31.497 0 19.066 14.892 34.712 33.653 35.938 0 .186-.007.372-.007.558 0 14.228 11.575 25.803 25.803 25.803h312.072c4.143 0 7.5-3.358 7.5-7.5s-3.357-7.5-7.5-7.5h-312.072c-5.957 0-10.803-4.846-10.803-10.803 0-114.05 92.787-206.837 206.838-206.837s206.838 92.787 206.838 206.837c0 5.957-4.846 10.803-10.803 10.803h-48.035c-4.143 0-7.5 3.358-7.5 7.5s3.357 7.5 7.5 7.5h48.035c14.228 0 25.803-11.575 25.803-25.803 0-.186-.006-.372-.007-.558 18.763-1.226 33.654-16.871 33.654-35.938zm-41.134-68.953c5.952 9.941 8.705 21.395 7.9 33.046-.922-.071-1.85-.119-2.79-.119-3.144 0-6.268.417-9.286 1.223-2.427-7.176-5.225-14.215-8.381-21.096 4.612-3.997 8.811-8.367 12.557-13.054zm-428.698.012c3.745 4.686 7.934 9.063 12.546 13.06-3.154 6.88-5.951 13.917-8.377 21.091-3.017-.808-6.137-1.235-9.281-1.235-.943 0-1.874.048-2.799.119-.809-11.622 1.951-23.081 7.911-33.035zm-26.137 68.941c0-11.593 9.432-21.025 21.025-21.025 1.679 0 3.346.211 4.967.605-3.54 13.432-5.831 27.262-6.802 41.352-10.736-.934-19.19-9.958-19.19-20.932zm83.621-120.366c-7.32 7.32-14.052 15.07-20.2 23.178-9.646-11.46-14.024-26.438-11.792-41.494 4.255-28.698 31.052-48.589 59.765-44.329 13.335 1.977 25.126 8.869 33.375 19.264-22.403 10.73-43.064 25.297-61.148 43.381zm106.612-59.279c-4.004-7.113-8.823-13.633-14.316-19.458l17.638-3.297c8.27-1.546 16.222-4.999 22.995-9.985 14.615-10.758 34.253-10.757 48.868 0 6.774 4.987 14.727 8.439 22.996 9.986l16.792 3.139c-5.556 5.865-10.429 12.438-14.47 19.616-16.29-3.755-33.121-5.695-50.252-5.695s-33.961 1.939-50.251 5.694zm145.967 15.899c8.25-10.395 20.04-17.287 33.375-19.264 28.712-4.258 55.51 15.631 59.765 44.329 2.233 15.057-2.14 30.04-11.786 41.502-6.15-8.111-12.884-15.864-20.206-23.187-18.084-18.083-38.745-32.651-61.148-43.38zm125.578 184.678c-.97-14.09-3.261-27.92-6.801-41.352 1.621-.395 3.288-.605 4.967-.605 11.593 0 21.024 9.432 21.024 21.025.001 10.974-8.454 19.998-19.19 20.932z"/><path d="m105.842 174.153c-2.467-3.328-7.166-4.021-10.492-1.554-3.326 2.468-4.021 7.166-1.553 10.492l1.538 2.073c1.471 1.983 3.735 3.031 6.028 3.031 1.554 0 3.12-.481 4.464-1.478 3.326-2.468 4.021-7.166 1.553-10.492z"/><path d="m128.714 165.837c-4.099-.607-7.912 2.221-8.519 6.319l-.251 1.693c-.607 4.098 2.222 7.912 6.319 8.519.373.055.743.082 1.109.082 3.655 0 6.857-2.677 7.409-6.401l.251-1.693c.609-4.098-2.22-7.912-6.318-8.519z"/><path d="m89.411 196.496-1.692-.251c-4.096-.608-7.911 2.221-8.52 6.319-.607 4.097 2.222 7.911 6.318 8.519l1.692.251c.373.055.744.082 1.11.082 3.655 0 6.856-2.677 7.409-6.401.609-4.097-2.22-7.911-6.317-8.519z"/><path d="m376.507 302.139c12.486 0 22.645-10.158 22.645-22.645s-10.158-22.645-22.645-22.645h-35.338c-12.486 0-22.645 10.158-22.645 22.645s10.158 22.645 22.645 22.645zm-42.983-22.644c0-4.215 3.43-7.645 7.645-7.645h35.338c4.215 0 7.645 3.429 7.645 7.645s-3.43 7.645-7.645 7.645h-35.338c-4.215-.001-7.645-3.43-7.645-7.645z"/><path d="m281.312 353.391h26.796c12.636 0 22.916-10.28 22.916-22.916s-10.28-22.917-22.916-22.917h-26.796c-12.636 0-22.916 10.28-22.916 22.917 0 12.635 10.28 22.916 22.916 22.916zm0-30.833h26.796c4.365 0 7.916 3.551 7.916 7.917 0 4.365-3.551 7.916-7.916 7.916h-26.796c-4.365 0-7.916-3.551-7.916-7.916 0-4.366 3.55-7.917 7.916-7.917z"/><path d="m267.348 265.852c0-4.142-3.357-7.5-7.5-7.5h-6.047c-4.143 0-7.5 3.358-7.5 7.5s3.357 7.5 7.5 7.5h6.047c4.142 0 7.5-3.358 7.5-7.5z"/><path d="m183.366 287.139c-4.143 0-7.5 3.358-7.5 7.5s3.357 7.5 7.5 7.5h10.316c4.143 0 7.5-3.358 7.5-7.5s-3.357-7.5-7.5-7.5z"/><path d="m399.151 338.064c0-4.142-3.357-7.5-7.5-7.5h-8.297c-4.143 0-7.5 3.358-7.5 7.5s3.357 7.5 7.5 7.5h8.297c4.143 0 7.5-3.357 7.5-7.5z"/></g></g></svg>