<svg id="Filled" height="512" viewBox="0 0 512 512" width="512" xmlns="http://www.w3.org/2000/svg"><circle cx="184" cy="328" fill="#95573a" r="160"/><path d="m328 24a159.835 159.835 0 1 0 154.12 116.88 40 40 0 0 1 -74.12-20.88 20.231 20.231 0 0 1 8-16c-19.95-2.26-40-19.45-40-40a39.83 39.83 0 0 1 11.86-28.42 159.462 159.462 0 0 0 -59.86-11.58z" fill="#ad6643"/><g fill="#5e3725"><circle cx="296" cy="112" r="24"/><circle cx="240" cy="240" r="16"/><circle cx="376" cy="240" r="24"/><circle cx="112" cy="288" r="24"/><circle cx="176" cy="384" r="24"/><circle cx="280" cy="408" r="32"/><path d="m96 408a32.016 32.016 0 0 1 -26.69 31.56 160.174 160.174 0 0 1 -32.43-48.56 32.006 32.006 0 0 1 59.12 17z"/><path d="m312 328a23.907 23.907 0 0 1 -4.98 14.63 158.55 158.55 0 0 1 -42.86-11.87 22.859 22.859 0 0 1 -.16-2.76 24 24 0 0 1 48 0z"/></g><path d="m296 80a32 32 0 1 0 32 32 32.036 32.036 0 0 0 -32-32zm0 48a16 16 0 1 1 16-16 16.019 16.019 0 0 1 -16 16z"/><path d="m240 216a24 24 0 1 0 24 24 24.027 24.027 0 0 0 -24-24zm0 32a8 8 0 1 1 8-8 8.009 8.009 0 0 1 -8 8z"/><path d="m376 208a32 32 0 1 0 32 32 32.036 32.036 0 0 0 -32-32zm0 48a16 16 0 1 1 16-16 16.019 16.019 0 0 1 -16 16z"/><path d="m144 288a32 32 0 1 0 -32 32 32.036 32.036 0 0 0 32-32zm-32 16a16 16 0 1 1 16-16 16.019 16.019 0 0 1 -16 16z"/><path d="m208 384a32 32 0 1 0 -32 32 32.036 32.036 0 0 0 32-32zm-32 16a16 16 0 1 1 16-16 16.019 16.019 0 0 1 -16 16z"/><path d="m304 192a8 8 0 0 0 5.657-13.657l-8-8a8 8 0 0 0 -11.314 11.314l8 8a7.974 7.974 0 0 0 5.657 2.343z"/><path d="m221.657 154.343a8 8 0 0 0 -11.314 0l-8 8a8 8 0 0 0 11.314 11.314l8-8a8 8 0 0 0 0-11.314z"/><path d="m429.657 194.343a8 8 0 0 0 -11.314 11.314l8 8a8 8 0 1 0 11.314-11.314z"/><path d="m368 160a7.974 7.974 0 0 0 5.657-2.343l8-8a8 8 0 0 0 -11.314-11.314l-8 8a8 8 0 0 0 5.657 13.657z"/><path d="m306.343 242.343-8 8a8 8 0 0 0 11.314 11.314l8-8a8 8 0 0 0 -11.314-11.314z"/><path d="m341.657 50.343-8-8a8 8 0 0 0 -11.314 11.314l8 8a8 8 0 0 0 11.314-11.314z"/><path d="m365.657 290.343a8 8 0 0 0 -11.314 11.314l8 8a8 8 0 0 0 11.314-11.314z"/><path d="m130.343 229.657a8 8 0 0 0 11.314-11.314l-8-8a8 8 0 1 0 -11.314 11.314z"/><path d="m130.343 338.343-8 8a8 8 0 0 0 11.314 11.314l8-8a8 8 0 1 0 -11.314-11.314z"/><path d="m133.657 426.343a8 8 0 1 0 -11.314 11.314l8 8a8 8 0 1 0 11.314-11.314z"/><path d="m234.343 346.343-8 8a8 8 0 0 0 11.314 11.314l8-8a8 8 0 1 0 -11.314-11.314z"/><path d="m178.343 317.657a8 8 0 1 0 11.314-11.314l-8-8a8 8 0 0 0 -11.314 11.314z"/><path d="m202.343 434.343-8 8a8 8 0 0 0 11.314 11.314l8-8a8 8 0 1 0 -11.314-11.314z"/><path d="m58.343 314.343-8 8a8 8 0 0 0 11.314 11.314l8-8a8 8 0 0 0 -11.314-11.314z"/><path d="m483.228 132.957a8 8 0 0 0 -7.928 3.743 32 32 0 0 1 -59.3-16.7 12.2 12.2 0 0 1 4.99-9.748 8 8 0 0 0 -4.09-14.2c-19.388-2.198-32.9-18.652-32.9-32.052a31.744 31.744 0 0 1 9.486-22.732 8 8 0 0 0 -2.629-13.1 167.009 167.009 0 0 0 -62.857-12.168c-85.008 0-155.462 63.468-166.49 145.505a168.012 168.012 0 0 0 -145.51 166.495c0 92.635 75.364 168 168 168a168.012 168.012 0 0 0 166.5-145.51c82.032-11.028 145.5-81.482 145.5-166.49a168.331 168.331 0 0 0 -6.175-45.271 8 8 0 0 0 -6.597-5.772zm-411.238 297.681a152.526 152.526 0 0 1 -25.852-38.666 24 24 0 1 1 25.852 38.666zm208.01 1.362a24 24 0 1 1 24-24 24.028 24.028 0 0 1 -24 24zm38.8-33.71a40 40 0 1 0 -41.389 49.617 151.844 151.844 0 0 1 -193.2-5.349 40.02 40.02 0 1 0 -44.394-66.43 152.026 152.026 0 0 1 120.306-198.253c-.073 2.033-.123 4.073-.123 6.125 0 92.636 75.364 168 168 168 2.052 0 4.092-.05 6.126-.124a151.167 151.167 0 0 1 -15.326 46.414zm-46.57-72.89a15.99 15.99 0 1 1 30.632 8.507 150.728 150.728 0 0 1 -30.632-8.507zm55.77 10.6c-3 0-5.979-.1-8.938-.27a32.005 32.005 0 0 0 -61.646-17.147 152.14 152.14 0 0 1 -81.416-134.583c0-83.813 68.187-152 152-152a151.419 151.419 0 0 1 46.8 7.338 47.666 47.666 0 0 0 -6.8 24.662c0 20.731 16.108 37.752 34.359 44.772a27.529 27.529 0 0 0 -2.359 11.228 48.044 48.044 0 0 0 77.735 37.727 153.124 153.124 0 0 1 2.265 26.273c0 83.813-68.187 152-152 152z"/></svg>