<svg id="Filled" height="512" viewBox="0 0 512 512" width="512" xmlns="http://www.w3.org/2000/svg"><path d="m272 406.813c39.087-5.875 69.133-32.883 71.8-66.01 27.705-11.433 48.2-52.227 48.2-100.803 0-38.624-12.957-72.329-32.193-90.266.116-1.894.193-3.8.193-5.734 0-39.765-25.072-72-56-72a48 48 0 0 0 -96 0c-30.928 0-56 32.235-56 72 0 1.932.077 3.84.193 5.734-19.236 17.937-32.193 51.642-32.193 90.266 0 48.576 20.5 89.37 48.2 100.8 2.668 33.127 32.714 60.135 71.8 66.01" fill="#fba0c4"/><path d="m240 376h32v112h-32z" fill="#f7cca9"/><path d="m272 424v40l-32-24v-40z" fill="#d28e73"/><path d="m160.771 346.155c4.928 32.567 33.19 59.211 71.229 67.321v74.524a8 8 0 0 0 8 8h32a8 8 0 0 0 8-8v-74.524c38.019-8.106 66.27-34.726 71.22-67.27 10.876-5.639 20.734-15.288 28.848-28.475 12.854-20.885 19.932-48.492 19.932-77.731 0-38.223-11.916-72.8-32.037-93.473.024-.869.037-1.709.037-2.527 0-40.938-24.729-74.793-56.494-79.453a56 56 0 0 0 -111.012 0l.01.02c-31.769 4.657-56.504 38.492-56.504 79.433q0 1.267.033 2.531c-20.118 20.669-32.033 55.249-32.033 93.469 0 48.39 19.835 91.061 48.771 106.155zm103.229 133.845h-16v-20.686l16 16zm0-27.314-16-16v-25.372l16 16zm0-48-16-16v-4.686h16zm-116.964-236.364c4.137 16.219 12.34 30.61 23.623 40.729a8 8 0 1 0 10.682-11.912c-13.362-11.985-21.341-31.849-21.341-53.139 0-35.29 21.532-64 48-64a8 8 0 0 0 8-8 40 40 0 0 1 80 0 8 8 0 0 0 8 8c26.467 0 48 28.71 48 64 0 1.589-.059 3.3-.178 5.24a8 8 0 0 0 2.529 6.346c18.288 17.052 29.649 49.397 29.649 84.414 0 26.319-6.235 50.947-17.559 69.347-10.577 17.187-24.228 26.653-38.441 26.653-14.65 0-28.605-9.968-39.294-28.068a8 8 0 1 0 -13.777 8.136c13.684 23.171 32.532 35.932 53.071 35.932a48.945 48.945 0 0 0 5.559-.317c-6.737 21.438-26.964 38.71-53.559 45.375v-21.058a8 8 0 0 0 -8-8h-32a8 8 0 0 0 -8 8v21.058c-31.22-7.824-53.681-30.262-55.826-56.9a8 8 0 0 0 -4.923-6.753c-25.062-10.34-43.251-49.623-43.251-93.405 0-27.622 7.074-53.576 19.036-71.678z"/><path d="m330.91 286.642a8 8 0 0 0 10.18 12.343c11.487-9.473 18.91-32.627 18.91-58.985s-7.423-49.512-18.91-58.985a8 8 0 1 0 -10.18 12.343c6.505 5.365 13.09 23.109 13.09 46.642s-6.585 41.277-13.09 46.642z"/><path d="m200 179.719a8 8 0 0 0 6.049-13.232c-2.788-3.23-6.049-11.058-6.049-22.487s3.261-19.257 6.053-22.487a8 8 0 0 0 -12.106-10.463c-6.228 7.207-9.947 19.524-9.947 32.95s3.719 25.743 9.947 32.95a7.984 7.984 0 0 0 6.053 2.769z"/><path d="m195.849 319.859a8 8 0 1 0 8.3-13.675c-15.176-9.215-27.1-28.175-32.722-52.019a8 8 0 0 0 -15.575 3.67c6.599 27.991 21.176 50.599 39.997 62.024z"/></svg>