<svg id="Capa_1" enable-background="new 0 0 513.002 513.002" height="512" viewBox="0 0 513.002 513.002" width="512" xmlns="http://www.w3.org/2000/svg"><g><g><g><g id="XMLID_203_"><g><path d="m235.44 76.858c110.43 0 199.95 89.52 199.95 199.95s-89.52 199.96-199.95 199.96-199.95-89.53-199.95-199.96 89.52-199.95 199.95-199.95zm91.32 199.95c0-50.43-40.88-91.32-91.32-91.32s-91.32 40.89-91.32 91.32c0 50.44 40.88 91.33 91.32 91.33s91.32-40.89 91.32-91.33z" fill="#f5cd8b"/><circle cx="226.015" cy="270.23" fill="#f7d8a4" r="131.795"/></g></g><g><path d="m358.176 282.019-55.939-70.569c-1.447-1.826-4.034-2.326-6.023-1.112-4.602 2.808-10.132 4.244-16.025 3.732-12.545-1.09-22.704-11.199-23.846-23.74-.743-8.161 2.245-15.639 7.452-20.926 1.629-1.654 1.717-4.284.275-6.102l-19.183-24.2-27.091-39.173-112.306 78.317-95.315 75.555c-2.942 2.332-3.437 6.608-1.104 9.55l105.014 132.478c1.521 1.918 4.25 2.261 6.268.875 6.187-4.251 13.841-6.521 22.051-5.886 16.352 1.265 29.682 14.276 31.301 30.597 1.128 11.372-3.325 21.741-10.943 28.712-1.829 1.674-2.112 4.447-.572 6.39l36.794 46.417c2.332 2.942 6.608 3.437 9.55 1.104l124.246-98.488 77.087-64.023z" fill="#fcf0b6"/></g></g><path d="m332.781 405.549 77.087-64.023-51.692-59.507-12.471-15.733c-11.467 7.874-25.333 12.494-40.263 12.494-39.325 0-71.319-31.999-71.319-71.33 0-20.813 8.965-39.569 23.233-52.619l-12.468-15.729-27.091-39.173-112.305 78.317-19.565 15.509c-.277 4.541-.433 9.106-.433 13.695 0 58.751 22.879 113.987 64.421 155.533 41.488 41.491 96.631 64.363 155.294 64.424z" fill="#fbe88c"/><circle cx="282.539" cy="282.956" fill="#fbe372" r="29.241"/><circle cx="121.954" cy="297.26" fill="#fbe372" r="29.241"/><g id="XMLID_201_"><g><path d="m305.442 7.5c110.43 0 199.95 89.52 199.95 199.95s-89.52 199.96-199.95 199.96-199.95-89.53-199.95-199.96 89.52-199.95 199.95-199.95zm91.32 199.95c0-50.43-40.88-91.32-91.32-91.32s-91.32 40.89-91.32 91.32c0 50.44 40.88 91.33 91.32 91.33s91.32-40.89 91.32-91.33z" fill="#f8deb6"/></g></g><g><path d="m380.802 391.612c-110.43 0-199.95-89.53-199.95-199.96 0-82.716 50.242-153.715 121.861-184.134-109.164 1.471-197.221 90.42-197.221 199.932 0 110.43 89.52 199.96 199.95 199.96 27.712 0 54.118-5.643 78.112-15.834-.913.013-1.836.036-2.752.036z" fill="#f7d8a4"/></g></g><g><path d="m512.896 207.453c0-114.39-93.063-207.453-207.453-207.453-38.731 0-76.525 10.758-109.297 31.111-3.519 2.185-4.6 6.809-2.414 10.328s6.812 4.6 10.328 2.414c30.394-18.875 65.451-28.853 101.383-28.853 106.119 0 192.453 86.334 192.453 192.453s-86.334 192.453-192.453 192.453c-17.619 0-35.091-2.387-51.93-7.095-3.997-1.114-8.128 1.215-9.242 5.204-1.115 3.989 1.214 8.127 5.203 9.243 18.153 5.075 36.984 7.648 55.969 7.648 1.176 0 2.346-.025 3.517-.045l-104.534 82.864-34.761-43.852c8.56-8.83 12.734-20.787 11.503-33.198-1.991-20.075-18.051-35.776-38.186-37.334-8.766-.676-17.243 1.308-24.663 5.759l-102.935-129.857 83.103-65.875c-.317 4.673-.497 9.368-.497 14.084 0 20.292 2.936 40.273 8.643 59.404-11.039 5.694-18.252 17.134-18.252 30.023 0 18.642 15.166 33.808 33.808 33.808 4.968 0 9.749-1.062 14.138-3.096 20.952 29.456 49.12 52.926 81.947 68.148 1.021.474 2.094.698 3.15.698 2.83 0 5.54-1.61 6.809-4.347 1.743-3.758.109-8.217-3.648-9.959-32.853-15.234-60.693-39.363-80.512-69.778-20.334-31.207-31.082-67.481-31.082-104.901 0-55.758 24.164-108.731 66.296-145.335 3.127-2.717 3.459-7.454.743-10.581-2.718-3.127-7.455-3.459-10.581-.743-16.076 13.967-29.711 30.154-40.637 47.894-47.204 28.009-81.771 74.105-95.305 127.049l-27.99 22.187c-6.178 4.898-7.22 13.909-2.322 20.087l25.069 31.625c8.523 79.227 62.141 146.868 137.394 173.327l27.451 34.631c2.819 3.555 7.001 5.409 11.22 5.409 3.112 0 6.245-1.009 8.867-3.087l32.253-25.567c68.114-3.552 129.947-40.233 165.84-98.545 60.788-36.214 101.607-102.6 101.607-178.35zm-409.515 89.427c0-6.369 3.17-12.094 8.177-15.516 4.41 11.566 9.869 22.752 16.341 33.431-1.824.581-3.739.893-5.71.893-10.37 0-18.808-8.437-18.808-18.808zm10.85-169.872c-6.09 14.471-10.532 29.644-13.217 45.238-.06.044-.124.077-.183.123l-46.345 36.737c12.193-32.089 32.925-60.554 59.745-82.098zm-66.291 197.451 60.267 76.028c3.93 4.958 11.13 6.013 16.394 2.397 5.068-3.482 11.024-5.068 17.226-4.59 12.667.98 23.164 11.238 24.416 23.859.846 8.519-2.269 16.698-8.54 22.438-2.181 1.994-3.473 4.622-3.856 7.361-52.787-24.371-91.735-71.458-105.907-127.493zm219.673 142.319 68.261-54.11c16.294-2.406 31.975-6.713 46.814-12.688-29.227 35.294-69.976 58.966-115.075 66.798z"/><path d="m355.775 140.419c3.309 2.489 8.01 1.825 10.502-1.485 2.489-3.311 1.824-8.012-1.486-10.502-17.223-12.955-37.745-19.802-59.348-19.802-54.491 0-98.822 44.332-98.822 98.823s44.331 98.823 98.822 98.823 98.823-44.332 98.823-98.823c0-19.149-5.491-37.73-15.879-53.735-2.256-3.476-6.902-4.461-10.374-2.208-3.475 2.255-4.463 6.9-2.208 10.375 8.807 13.567 13.461 29.324 13.461 45.568 0 25.672-11.612 48.673-29.846 64.062l-51.306-64.724c-3.807-4.802-10.603-6.03-15.808-2.854-3.434 2.095-7.401 3.016-11.468 2.662-8.897-.773-16.217-8.06-17.026-16.948-.507-5.57 1.435-11.031 5.326-14.982 4.269-4.333 4.616-11.223.81-16.025l-14.569-18.379c13.979-10.443 31.312-16.634 50.064-16.634 18.324-.001 35.728 5.805 50.332 16.788zm-55.66 150.67c-13.003-.82-25.203-4.619-35.94-10.719 1.85-8.441 9.375-14.782 18.363-14.782 10.371 0 18.809 8.438 18.809 18.808 0 2.307-.421 4.569-1.232 6.693zm-51.24-100.079c1.481 16.275 14.378 29.116 30.665 30.531 6.415.561 12.691-.662 18.322-3.538l49.252 62.133c-9.452 5.441-20.054 9.086-31.351 10.48.383-2.039.583-4.12.583-6.222 0-18.642-15.166-33.808-33.809-33.808-14.04 0-26.094 8.609-31.194 20.821-18.164-15.388-29.724-38.342-29.724-63.956 0-22.07 8.587-42.161 22.578-57.146l12.495 15.763c-5.813 6.894-8.647 15.844-7.817 24.942z"/></g></g></svg>