<?xml version="1.0" encoding="UTF-8"?>
<svg xmlns="http://www.w3.org/2000/svg" id="Filled" viewBox="0 0 512 512" width="512" height="512"><circle cx="256" cy="256" r="232" style="fill:#d0d2d4"/><path d="M256,456,72,200s25-96,184-96,184,96,184,96Z" style="fill:#e0b999"/><path d="M416,144.667h0A55.332,55.332,0,0,1,360.667,200H151.333A55.332,55.332,0,0,1,96,144.667h0c0-17.434,13.666-32.172,31.093-32.654A32,32,0,0,1,160,144a32,32,0,0,1,32-32H320a32,32,0,0,1,32,32,32,32,0,0,1,32.907-31.987C402.334,112.5,416,127.234,416,144.667Z" style="fill:#e9eef2"/><path d="M72,200s87.5-24,184-24,184,24,184,24L256,456Z" style="fill:#f7cca9"/><path d="M248,144h0c9.2,9.2,19.25,4.25,32,0l40-16a22.984,22.984,0,0,0,0-32L304,80a22.984,22.984,0,0,0-32,0l-24,32C241.307,123.156,238.8,134.8,248,144Z" style="fill:#c7312e"/><path d="M200,136h0c9.2,9.2,19.25,4.25,32,0l40-16a22.984,22.984,0,0,0,0-32L256,72a22.984,22.984,0,0,0-32,0l-24,32C193.307,115.156,190.8,126.8,200,136Z" style="fill:#eb423f"/><path d="M256,16A240,240,0,0,0,86.294,425.705,240,240,0,1,0,425.706,86.3,238.433,238.433,0,0,0,256,16ZM414.392,414.392A224,224,0,0,1,97.608,97.608,224,224,0,0,1,414.392,414.392Z"/><path d="M385.129,104.016a39.706,39.706,0,0,0-29.016,11.31A40.731,40.731,0,0,0,352,119.984a39.9,39.9,0,0,0-17.993-13.453q-.222-1.282-.548-2.531H336a8,8,0,0,0,0-16H323.314l10.343-10.343a8,8,0,0,0-11.314-11.314L312,76.686V64a8,8,0,0,0-16,0v2.573a31.7,31.7,0,0,0-8.15-1.031,8,8,0,0,0-13.507-7.2L264,68.686V56a8,8,0,0,0-16,0v2.573a30.975,30.975,0,0,0-29.657,7.77c-.267.267-25.062,33.3-25.2,33.541-.851,1.419-1.609,2.8-2.293,4.151a39.963,39.963,0,0,0-30.832,15.97,40.685,40.685,0,0,0-4.127-4.678,39.611,39.611,0,0,0-29.016-11.311C105.438,104.609,88,122.845,88,144.667a62.91,62.91,0,0,0,1.059,11.477c-19.365,21.641-24.58,40.989-24.8,41.839a8,8,0,0,0,1.246,6.686l33.067,46.006A283.11,283.11,0,0,0,71.7,265.192a8,8,0,0,0,8.4,13.616,271.393,271.393,0,0,1,27.955-14.93l21.456,29.853q-4.482,1.62-8.924,3.35a34.354,34.354,0,0,0,23.359,64.586q14.091-4.639,28.6-8.057L249.5,460.669a8,8,0,0,0,12.992,0l77.447-107.752a317.1,317.1,0,0,1,49.07,15.146,8,8,0,0,0,5.974-14.843,330.526,330.526,0,0,0-44.939-14.363l23.4-32.562q12.7,4.31,24.631,9.6a33.063,33.063,0,0,0,29.678-59.01c-3.893-2.2-8.451-4.622-13.649-7.158L446.5,204.669a8,8,0,0,0,1.246-6.685c-.221-.851-5.436-20.2-24.8-41.84A62.91,62.91,0,0,0,424,144.667C424,122.845,406.562,104.609,385.129,104.016ZM274.971,127.428a8.01,8.01,0,0,0,2.686-1.771A30.362,30.362,0,0,0,286.484,104a31.624,31.624,0,0,0-1.025-8H288a7.993,7.993,0,0,0,6.047-13.228,13.774,13.774,0,0,1,4.3,2.885l16,16A14.471,14.471,0,0,1,318.484,112a14.636,14.636,0,0,1-3.163,9.256s-40.647,16.1-41.894,16.538c-11.4,3.954-15.45,4.869-19.77.55a14.844,14.844,0,0,1-1.522-1.782Zm-68.315-18.969,23.363-31.15a15.029,15.029,0,0,1,20.324.348l16,16A14.471,14.471,0,0,1,270.484,104a14.636,14.636,0,0,1-3.163,9.256s-40.648,16.1-41.894,16.538c-11.4,3.954-15.449,4.871-19.77.549C203.406,128.092,198.158,122.843,206.656,108.459ZM127.314,120.01A24,24,0,0,1,152,144a8,8,0,0,0,16,0,24.042,24.042,0,0,1,18.006-23.242,27.1,27.1,0,0,0,8.337,20.9c5.654,5.654,11.6,7.548,17.531,7.548,6.417,0,12.815-2.22,18.8-4.3,1.258-.436,6.409-2.326,6.409-2.326a29.362,29.362,0,0,0,5.263,7.073c5.654,5.654,11.6,7.548,17.531,7.548,6.417,0,12.815-2.22,18.8-4.3,1.258-.436,44.3-17.482,44.3-17.482a8.01,8.01,0,0,0,2.686-1.771,29.848,29.848,0,0,0,6.688-10.23A23.985,23.985,0,0,1,344,144a8,8,0,0,0,16,0,24,24,0,0,1,24.686-23.99c12.856.355,23.314,11.417,23.314,24.657a47.5,47.5,0,0,1-17.154,36.452C355.988,174.74,307.074,168,256,168s-99.988,6.74-134.846,13.119A47.5,47.5,0,0,1,104,144.667C104,131.427,114.459,120.365,127.314,120.01ZM95.155,173.851a63.742,63.742,0,0,0,7.192,10.928c-6.408,1.323-12.017,2.561-16.68,3.634A110.942,110.942,0,0,1,95.155,173.851ZM138.948,346.47a18.354,18.354,0,0,1-12.515-34.492c4.237-1.662,8.515-3.217,12.816-4.707L162.5,339.613Q150.594,342.654,138.948,346.47ZM256,442.293l-66.326-92.279A365.353,365.353,0,0,1,256,344a394.087,394.087,0,0,1,66.687,5.511Zm77.019-107.158A405.5,405.5,0,0,0,256,328a380.041,380.041,0,0,0-76.6,7.718l-24.122-33.562A358.374,358.374,0,0,1,256,288a397.993,397.993,0,0,1,58.26,4.184,347.2,347.2,0,0,1,43.071,9.127Zm34.22-47.609a360.359,360.359,0,0,0-50.634-11.17A414.212,414.212,0,0,0,256,272a373.35,373.35,0,0,0-110.606,16.406l-22.313-31.044A354.74,354.74,0,0,1,256,232a379.732,379.732,0,0,1,92.706,11.018,311.358,311.358,0,0,1,40.943,13.328Zm52.656-16.71a17.074,17.074,0,0,1,5.5,24.839,17.168,17.168,0,0,1-20.823,5.612q-10.406-4.615-21.381-8.519l21.438-29.827C410.533,265.728,415.645,268.417,419.9,270.816Zm-20.648-27.824A326.187,326.187,0,0,0,352.616,227.5,395.708,395.708,0,0,0,256,216a370.387,370.387,0,0,0-142.508,28.021L85.378,204.906C111.885,198.627,181.616,184,256,184s144.114,14.626,170.621,20.906Zm27.087-54.579c-4.663-1.073-10.272-2.31-16.681-3.634a63.742,63.742,0,0,0,7.192-10.928A110.952,110.952,0,0,1,426.334,188.413Z"/></svg>
