<svg id="Capa_1" enable-background="new 0 0 509.987 509.987" height="512" viewBox="0 0 509.987 509.987" width="512" xmlns="http://www.w3.org/2000/svg"><g><g><path d="m434.226 7.504h-358.44c-3.63 0-6.56 2.93-6.56 6.56v26.08c0 .88.17 1.75.51 2.56l10.48 24.75 40.376 51.853h267.216l41.988-51.853 10.48-24.75c.34-.81.51-1.68.51-2.56v-26.08c0-3.63-2.93-6.56-6.56-6.56z" fill="#fcf6ed"/><path d="m132.401 33.885-.512-26.381h-56.103c-3.623 0-6.56 2.937-6.56 6.56v26.08c0 .88.17 1.75.51 2.56l10.48 24.75 5.963 7.658h47.503l13.319 44.194h240.807l41.988-51.853 6.352-15h-284.815c-10.315.001-18.732-8.255-18.932-18.568z" fill="#fcf1de"/><g><g id="XMLID_207_"><g><path d="m440.146 466.994-10.35-24.46-30.352-44.333h-243.934l-75.294 44.333-10.35 24.46c-.43 1-.64 2.08-.64 3.17v24.2c0 4.49 3.63 8.12 8.12 8.12h355.32c4.49 0 8.12-3.63 8.12-8.12v-24.2c0-1.09-.21-2.17-.64-3.17z" fill="#fcf6ed"/><g><path d="m436.143 457.534-6.347-15-23.006-33.604-7.345-10.729h-243.935l-20.254 11.925-55.04 32.407-10.35 24.46c-.43 1-.64 2.08-.64 3.17v24.2c0 4.484 3.635 8.12 8.12 8.12h56.916l.525-20.474c.349-13.618 11.489-24.476 25.111-24.476h276.245z" fill="#fcf1de"/></g><path d="m436.816 86.834c39.37 108.65 39.37 227.67 0 336.32l-7.02 19.38h-349.58l-7.02-19.38c-39.37-108.65-39.37-227.67 0-336.32l7.02-19.38h349.58z" fill="#cfeffc"/><path d="m132.316 392.911c-20.076-83.437-21.287-170.844-3.651-254.763 5.747-27.346 29.746-47 57.689-47h251.999c-.507-1.439-1.016-2.878-1.537-4.314l-7.02-19.38h-349.58l-7.02 19.38c-39.37 108.65-39.37 227.67 0 336.32l7.02 19.38h349.58l7.02-19.38c.422-1.163.832-2.33 1.245-3.496h-271.738c-16.149 0-30.23-11.047-34.007-26.747z" fill="#a9e4f9"/></g></g><circle cx="255.006" cy="216.148" fill="#fcf6ed" r="121.494"/><g id="XMLID_210_"><g><path d="m317.646 182.224-27.824 9.045-42.063 31.547 4.429 25.649c-.072.057-.14.122-.212.179l.31.39 9.66 3.93c26.94 10.96 57.89 1.91 74.67-21.85 4.05-5.74 5.86-11.97 5.86-18.01 0-14.43-10.31-27.8-24.83-30.88z" fill="#fbe88c"/><path d="m286.335 235.623 45.319-46.286c-3.9-3.462-8.663-5.98-14.008-7.114l-25.155 8.178-2.669.868-30.969 23.227-11.093 8.32 4.429 25.649c-.072.057-.14.122-.212.179l.31.39 9.66 3.93c22.421 9.122 47.612 4.372 65.108-11.171-11.33 5.516-24.202 7.542-36.888 5.59-5.571-.858-7.775-7.733-3.832-11.76z" fill="#fbe372"/><path d="m317.646 182.224-60.5 61.77c-1.65 1.68-3.38 3.23-5.17 4.65-9.76 7.71-21.45 11.45-33.06 11.45-17.88 0-35.58-8.86-45.86-25.74-13.36-21.97 3.25-48.68 27.05-48.68 2.44 0 4.96.28 7.53.88 24.28 5.64 49.51 5.87 73.89.65l22.88-4.9c4.66-1 9.12-.95 13.24-.08z" fill="#fcf0b6"/><path d="m238.881 251.145c-17.88 0-35.58-8.86-45.86-25.74-8.524-14.018-4.837-29.954 5.123-39.662-22.735 1.417-38.078 27.251-25.088 48.611 10.28 16.88 27.98 25.74 45.86 25.74 10.952 0 21.973-3.332 31.38-10.181-3.766.818-7.594 1.232-11.415 1.232z" fill="#fbe88c"/></g></g><path d="m392.523 411.025h-274.034c-3.823 0-6.921-3.099-6.921-6.921v-26.987c0-3.823 3.099-6.921 6.921-6.921h274.034c3.823 0 6.921 3.099 6.921 6.921v26.987c.001 3.822-3.098 6.921-6.921 6.921z" fill="#fcf6ed"/><path d="m118.489 411.025h24.831c-5.331-4.652-9.276-10.927-11.024-18.194-1.807-7.514-3.443-15.063-4.944-22.636h-8.863c-3.823 0-6.921 3.099-6.921 6.921v26.987c0 3.823 3.099 6.922 6.921 6.922z" fill="#fcf1de"/></g></g><g><path d="m437.852 442.317 6.019-16.611c39.89-110.085 39.89-231.338 0-341.423l-6.019-16.612 9.328-22.047c.737-1.743 1.111-3.586 1.111-5.479v-26.082c0-7.754-6.309-14.063-14.063-14.063h-358.443c-7.754 0-14.062 6.309-14.062 14.063v26.082c0 1.892.374 3.735 1.111 5.48l9.327 22.045-6.019 16.611c-6.948 19.175-12.783 38.999-17.342 58.92-.924 4.038 1.6 8.06 5.638 8.984 4.04.924 8.06-1.6 8.984-5.638 4.423-19.326 10.083-38.556 16.822-57.156l5.23-14.434h339.065l5.23 14.434c38.695 106.79 38.695 224.414 0 331.203l-5.23 14.434h-339.065l-5.23-14.434c-28.107-77.569-36.011-161.629-22.857-243.093.66-4.089-2.12-7.939-6.209-8.6-4.09-.664-7.939 2.119-8.6 6.209-13.559 83.977-5.411 170.631 23.563 250.593l6.019 16.612-9.203 21.753c-.82 1.937-1.235 3.985-1.235 6.088v24.204c0 8.615 7.009 15.625 15.625 15.625h355.319c8.615 0 15.625-7.009 15.625-15.625v-24.204c0-2.104-.416-4.152-1.235-6.088zm-4.561-402.361-8.463 20.003h-17.883v-44.959h26.346zm-278.238-24.956h20.984v44.958h-20.984zm-15 44.958h-20.985v-44.958h20.985zm50.984-44.958h20.985v44.958h-20.985zm35.985 0h20.984v44.958h-20.984zm35.984 0h20.984v44.958h-20.984zm35.985 0h20.985v44.958h-20.985zm35.985 0h20.984v44.958h-20.984zm35.984 0h20.985v44.958h-20.985zm-294.238 0h27.346v44.958h-18.883l-8.463-20.003zm78.331 435.029h20.984v44.958h-20.984zm-15 44.958h-20.985v-44.958h20.985zm50.984-44.958h20.985v44.958h-20.985zm35.985 0h20.984v44.958h-20.984zm35.984 0h20.984v44.958h-20.984zm35.985 0h20.985v44.958h-20.985zm35.985 0h20.984v44.958h-20.984zm35.984 0h20.985v44.958h-20.985zm-294.238 44.334v-24.204c0-.084.017-.166.049-.243l8.413-19.887h18.883v44.958h-26.72c-.345 0-.625-.28-.625-.624zm356.569 0c0 .344-.28.625-.625.625h-25.721v-44.958h17.883l8.414 19.887c.032.077.049.159.049.243z"/><path d="m336.267 115.973c-22.883-18.584-51.742-28.819-81.261-28.819-71.127 0-128.994 57.867-128.994 128.994s57.867 128.994 128.994 128.994 128.994-57.867 128.994-128.994c0-27.311-8.436-53.415-24.396-75.492-2.427-3.356-7.115-4.111-10.472-1.684s-4.111 7.115-1.684 10.472c14.1 19.503 21.552 42.569 21.552 66.704 0 62.856-51.138 113.994-113.994 113.994s-113.994-51.138-113.994-113.994 51.138-113.994 113.994-113.994c26.086 0 51.586 9.043 71.805 25.462 3.215 2.612 7.939 2.122 10.55-1.094 2.611-3.215 2.121-7.938-1.094-10.549z"/><path d="m302.832 174.97-22.879 4.897c-23.145 4.953-47.564 4.74-70.62-.617-15.767-3.666-31.452 2.207-40.939 15.32s-10.155 29.851-1.742 43.678c9.875 16.229 26.362 26.78 45.236 28.945 2.376.273 4.743.407 7.097.407 12.126 0 23.824-3.576 33.799-10.271l6.339 2.579c30.336 12.343 64.719 2.281 83.616-24.469 9.452-13.381 9.718-30.188.694-43.861-9.023-13.672-24.582-20.036-40.601-16.608zm-51.044 63.779c-10.03 10.241-23.948 15.176-38.19 13.542-14.24-1.633-26.681-9.594-34.131-21.839-6.237-10.251-3.531-20.715 1.08-27.089 3.816-5.274 10.698-10.185 19.58-10.185 1.853 0 3.794.214 5.812.683 25.188 5.854 51.868 6.086 77.154.674l15.184-3.25zm79.126-38.908c4.345 6.583 6.514 17.119-.426 26.945-14.718 20.835-41.39 28.789-65.071 19.485l54.419-55.561c4.892 1.979 8.673 5.487 11.078 9.131z"/><path d="m104.068 377.116v26.987c0 7.952 6.469 14.422 14.421 14.422h274.034c7.952 0 14.421-6.47 14.421-14.422v-26.987c0-7.952-6.469-14.421-14.421-14.421h-220.475c-4.142 0-7.5 3.358-7.5 7.5s3.358 7.5 7.5 7.5h219.896v25.83h-272.876v-25.83h21.018c4.142 0 7.5-3.358 7.5-7.5s-3.358-7.5-7.5-7.5h-21.597c-7.952 0-14.421 6.469-14.421 14.421z"/></g></g></svg>