<svg id="Filled" height="512" viewBox="0 0 512 512" width="512" xmlns="http://www.w3.org/2000/svg"><path d="m96 208s-72 18.333-72 136 38.333-24 104-24v-112z" fill="#e09f2c"/><path d="m416 208s72 18.333 72 136-38.333-24-104-24v-112z" fill="#e09f2c"/><path d="m200 344h-64a16 16 0 0 1 -16-16l-24-112a64 64 0 0 1 64-64h40a16 16 0 0 1 16 16v160a16 16 0 0 1 -16 16z" fill="#eba72e"/><path d="m376 344h-64a16 16 0 0 1 -16-16v-160a16 16 0 0 1 16-16h40a64 64 0 0 1 64 64l-24 112a16 16 0 0 1 -16 16z" fill="#eba72e"/><path d="m304 352h-96a16 16 0 0 1 -16-16l-16-192a16 16 0 0 1 16-16h128a16 16 0 0 1 16 16l-16 192a16 16 0 0 1 -16 16z" fill="#f7b030"/><path d="m422.586 201.792a72.119 72.119 0 0 0 -70.586-57.792h-8a24.027 24.027 0 0 0 -24-24h-128a24.027 24.027 0 0 0 -24 24h-8a72.119 72.119 0 0 0 -70.586 57.792c-7.079 2.732-21.245 9.6-35.263 24.625-31.532 33.795-38.151 82.596-38.151 117.583 0 36.724 3.372 50.345 13.362 53.98a12.882 12.882 0 0 0 4.445.811c9.038 0 17.465-10.045 29.37-24.235 13.739-16.379 32.175-38.34 53.035-44.723l1 3.988a23.966 23.966 0 0 0 23.28 18.179h49.642a23.94 23.94 0 0 0 17.866 8h96a23.94 23.94 0 0 0 17.866-8h49.642a23.966 23.966 0 0 0 23.283-18.179l1-3.988c20.86 6.383 39.3 28.344 53.035 44.723 11.906 14.191 20.331 24.237 29.37 24.235a12.905 12.905 0 0 0 4.445-.811c9.987-3.635 13.359-17.256 13.359-53.98 0-34.987-6.619-83.788-38.151-117.583-14.018-15.024-28.184-21.893-35.263-24.625zm-371.668 162.48c-5.182 6.178-11.966 14.265-15.913 17.341-1.256-3.696-3.005-13.227-3.005-37.613 0-45.531 11.459-82.15 33.139-105.9a86.516 86.516 0 0 1 23.539-18.4l23.649 94.595c-25.746 7.485-46.183 31.828-61.409 49.977zm89.574-28.272a7.99 7.99 0 0 1 -7.761-6.06l-28.723-114.893a56.066 56.066 0 0 1 55.992-55.047h9.306l14.666 176zm171.536-.664q-.029.332-.028.664a8.009 8.009 0 0 1 -8 8h-96a8.009 8.009 0 0 1 -8-8q0-.333-.028-.664l-15.967-191.612a8.008 8.008 0 0 1 7.995-7.724h128a8.008 8.008 0 0 1 8 7.724zm67.241-5.4a7.99 7.99 0 0 1 -7.761 6.06h-43.48l14.666-176h9.306a56.066 56.066 0 0 1 55.992 55.047zm97.731 51.677c-3.947-3.076-10.731-11.163-15.913-17.341-15.226-18.149-35.663-42.492-61.409-49.978l23.644-94.594a86.516 86.516 0 0 1 23.539 18.4c21.68 23.75 33.139 60.369 33.139 105.9 0 24.386-1.749 33.917-3 37.613z"/></svg>