<svg id="Capa_1" enable-background="new 0 0 511.15 511.15" height="512" viewBox="0 0 511.15 511.15" width="512" xmlns="http://www.w3.org/2000/svg"><g><g><g><path d="m365.145 32.556-.43 284.21h-219.71v-284.21c0-13.84 11.21-25.06 25.05-25.06h170.04c13.84 0 25.05 11.22 25.05 25.06z" fill="#f6e2c4"/></g><g><g id="XMLID_211_"><g><path d="m405.805 477.486-16.59-16.59-14.78-28.619h-223.5l-29 28.619-16.59 16.59c-.69.69-1.08 1.64-1.08 2.62v19.84c0 2.05 1.65 3.7 3.7 3.7h295.22c2.05 0 3.7-1.65 3.7-3.7v-19.84c0-.98-.39-1.93-1.08-2.62z" fill="#fcf6ed"/><path d="m162.318 491.3c-8.572 0-15.52-6.949-15.52-15.52v-8.02c0-.986.392-1.931 1.089-2.629l16.581-16.581 16.49-16.273h-30.023l-29 28.619-16.59 16.59c-.692.692-1.08 1.63-1.08 2.608v19.852c0 2.043 1.657 3.7 3.7 3.7h295.22c2.043 0 3.7-1.657 3.7-3.7v-8.646z" fill="#fcf1de"/><path d="m185.999 57.202c0-13.84 11.22-25.06 25.06-25.06h154.075c-.222-13.648-11.339-24.646-25.04-24.646h-170.04c-13.835 0-25.05 11.215-25.05 25.05v284.22h40.994v-48.94l75.473 48.94h103.243l.197-130.04h-149.734c-16.115 0-29.178-13.063-29.178-29.178z" fill="#f8deb6"/></g></g><path d="m128.535 206.726c-3.65 0-6.6 2.95-6.6 6.6v247.57h267.28v-178.28l-80.989-26.46z" fill="#ea9a98"/><g id="XMLID_213_"><path d="m128.535 206.726c-3.645 0-6.6 2.955-6.6 6.6v247.57h30.168v-195.597c0-8.382 9.289-13.43 16.322-8.869l127.071 82.399c5.141 3.332 11.097 5.093 17.226 5.093 5.418 0 10.78-1.401 15.529-4.064l60.964-34.294v-22.947l-88.665-26.46z" fill="#e5827f"/><path d="m347.969 409.405c0 7.363-5.969 13.332-13.332 13.332h-159.124c-7.363 0-13.332-5.969-13.332-13.332v-192.025h185.788z" fill="#fcf0b6"/><path d="m347.969 217.38h-185.788v35.001l133.315 86.448c5.141 3.332 11.097 5.093 17.226 5.093 5.418 0 10.78-1.401 15.529-4.064l19.718-11.092z" fill="#fbe88c"/><g><path d="m389.215 213.326v69.29l-70.77 39.81c-3.78 2.12-8.43 1.98-12.07-.38l-177.84-115.32h254.08c3.65 0 6.6 2.95 6.6 6.6z" fill="#fcf6ed"/></g><path d="m321.07 300.472c-3.78 2.12-8.43 1.98-12.07-.38l-143.983-93.365h-36.482l177.84 115.32c3.64 2.36 8.29 2.5 12.07.38l70.77-39.81v-20.478z" fill="#fcf1de"/></g></g></g><g><path d="m121.933 283.054c4.142 0 7.5-3.358 7.5-7.5v-59.307l25.249 16.372v176.786c0 11.487 9.345 20.832 20.832 20.832h159.123c11.486 0 20.832-9.345 20.832-20.832v-99.204l26.249-14.766v87.838c0 4.142 3.357 7.5 7.5 7.5s7.5-3.358 7.5-7.5v-169.948c0-7.775-6.326-14.101-14.102-14.101h-9.968v-166.672c0-17.949-14.602-32.552-32.552-32.552h-170.043c-17.949 0-32.551 14.603-32.551 32.552v166.673h-8.968c-7.775 0-14.101 6.326-14.101 14.101v62.229c0 4.141 3.358 7.499 7.5 7.499zm259.785-4.828-66.949 37.66c-1.354.762-3.007.712-4.312-.136l-29.288-18.992c-3.474-2.252-8.118-1.262-10.373 2.212-2.254 3.476-1.263 8.12 2.213 10.374l29.288 18.992c3.174 2.058 6.795 3.094 10.426 3.094 3.229 0 6.467-.82 9.4-2.471l18.347-10.32v90.766c0 3.216-2.616 5.832-5.832 5.832h-159.125c-3.216 0-5.832-2.616-5.832-5.832v-167.06l76.41 49.546c1.261.817 2.675 1.208 4.074 1.208 2.456 0 4.864-1.206 6.3-3.42 2.254-3.476 1.263-8.12-2.212-10.374l-100.367-65.081h227.832zm-95.231-79.001 71.161-71.161v32.213l-38.947 38.948zm71.161-92.375-92.375 92.375h-32.214l124.589-124.59zm-2.448-83.194c1.545 2.613 2.448 5.647 2.448 8.896v20.87l-145.802 145.803h-32.214zm-15.285 175.569 17.734-17.734v17.734zm-104.127-184.225-83.286 83.287v-32.215l51.071-51.072zm-83.286 104.5 104.499-104.5h32.214l-136.713 136.714zm17.551-104.5h12.307l-29.859 29.859v-12.307c.001-9.678 7.874-17.552 17.552-17.552zm-17.551 157.927 157.927-157.927h29.667c.805 0 1.591.073 2.367.179l-184.044 184.046h-5.917z"/><path d="m411.107 472.184-14.39-14.389v-42.558c0-4.142-3.357-7.5-7.5-7.5s-7.5 3.358-7.5 7.5v38.165h-252.284v-145.885c0-4.142-3.358-7.5-7.5-7.5s-7.5 3.358-7.5 7.5v150.278l-14.392 14.391c-2.114 2.115-3.278 4.927-3.278 7.917v19.849c0 6.175 5.024 11.199 11.199 11.199h295.226c6.175 0 11.198-5.024 11.198-11.199v-19.849c0-2.991-1.164-5.802-3.279-7.919zm-11.721 23.966h-287.623v-14.474l13.276-13.275h261.071l13.276 13.275z"/></g></g></svg>