<?xml version="1.0" encoding="UTF-8"?>
<svg xmlns="http://www.w3.org/2000/svg" id="Filled" viewBox="0 0 512 512" width="512" height="512"><rect x="32" y="264" width="304" height="80" rx="32" ry="32" style="fill:#f7cca9"/><path d="M344,264a32,32,0,0,0-32-32H56a32,32,0,0,0-32,32v23.46C24,300.915,35.011,312.251,48.464,312A24,24,0,0,0,72,288a24,24,0,0,1,48,0,24,24,0,0,0,48,0,24,24,0,0,1,48,0,24,24,0,0,0,48,0,24,24,0,0,1,24-24Z" style="fill:#5e3725"/><rect x="32" y="56" width="304" height="80" rx="32" ry="32" style="fill:#f7cca9"/><rect x="32" y="136" width="304" height="96" rx="32" ry="32" style="fill:#fba0c4"/><rect x="32" y="344" width="304" height="96" rx="32" ry="32" style="fill:#fba0c4"/><path d="M24,79.46C24,92.915,35.011,104.251,48.464,104A24,24,0,0,0,72,80a24,24,0,0,1,48,0,24,24,0,0,0,48,0,24,24,0,0,1,48,0,24,24,0,0,0,48,0,24,24,0,0,1,48,0c0,.414-.015-.409,0,0,.773,20.723,32,21.065,32,.327V56a32,32,0,0,0-32-32H56A32,32,0,0,0,24,56Z" style="fill:#5e3725"/><path d="M328,168A159.994,159.994,0,0,0,168,328q0,6.63.53,13.12v.01c.2,2.42.45,4.82.76,7.22,0,0-.01,0,0,.01A160.078,160.078,0,0,0,398.23,471.8q4.695-2.3,9.22-4.89a160.773,160.773,0,0,0,59.46-59.46q2.595-4.515,4.89-9.22A160.062,160.062,0,0,0,328,168Zm0,216a56,56,0,1,1,56-56A56,56,0,0,1,328,384Z" style="fill:#ad6643"/><path d="M343.322,160.706A40.054,40.054,0,0,0,327.972,136,39.964,39.964,0,0,0,344,104V98.259c4.753-3.936,8-9.957,8-17.932V56a40.045,40.045,0,0,0-40-40H56A40.045,40.045,0,0,0,16,56V79.459a32.966,32.966,0,0,0,8,21.4V104a39.964,39.964,0,0,0,16.028,32A39.964,39.964,0,0,0,24,168v32a39.885,39.885,0,0,0,12.557,29.061A40.022,40.022,0,0,0,16,264v23.459a32.966,32.966,0,0,0,8,21.4V312a39.964,39.964,0,0,0,16.028,32A39.964,39.964,0,0,0,24,376v32a40.045,40.045,0,0,0,40,40H210.554A167.435,167.435,0,0,0,328,496c92.636,0,168-75.364,168-168C496,240.53,428.8,168.471,343.322,160.706ZM328,104a24.027,24.027,0,0,1-24,24H64a24.04,24.04,0,0,1-22.886-16.775,31.359,31.359,0,0,0,7.5.769A32.158,32.158,0,0,0,80,80a16,16,0,0,1,32,0,32,32,0,0,0,64,0,16,16,0,0,1,32,0,32,32,0,0,0,64,0,16,16,0,0,1,32-.257c0,.134,0,.271,0,.407q0,.279.027.552c.76,14.811,12.685,22.767,23.977,23ZM37.055,91.422A16.877,16.877,0,0,1,32,79.459V56A24.027,24.027,0,0,1,56,32H312a24.027,24.027,0,0,1,24,24V80.327c0,6.541-5.128,7.342-7.333,7.383-.845.009-8.3-.071-8.667-7.887A32,32,0,0,0,256,80a16,16,0,0,1-32,0,32,32,0,0,0-64,0,16,16,0,0,1-32,0,32,32,0,0,0-64,0A16.077,16.077,0,0,1,48.312,96,15.6,15.6,0,0,1,37.055,91.422ZM40,168a24.027,24.027,0,0,1,24-24H304a24.038,24.038,0,0,1,22.63,16.017A167.791,167.791,0,0,0,196.153,224H64a24.027,24.027,0,0,1-24-24ZM37.055,299.422A16.872,16.872,0,0,1,32,287.459V264a24.027,24.027,0,0,1,24-24H184.951a167.756,167.756,0,0,0-11.374,21.862A32.127,32.127,0,0,0,160,288a16,16,0,0,1-32,0,32,32,0,0,0-64,0,16.077,16.077,0,0,1-15.688,16A15.548,15.548,0,0,1,37.055,299.422ZM160.2,336H64a24.041,24.041,0,0,1-22.885-16.769,31.115,31.115,0,0,0,7.5.763A32.158,32.158,0,0,0,80,288a16,16,0,0,1,32,0,31.986,31.986,0,0,0,48.47,27.425q-.463,6.228-.47,12.575C160,330.682,160.07,333.348,160.2,336ZM64,432a24.028,24.028,0,0,1-24-24V376a24.028,24.028,0,0,1,24-24h97.722a167.246,167.246,0,0,0,34.431,80ZM466.343,317.657a8,8,0,0,0,11.314,0l1.853-1.853q.482,6.036.49,12.2a151.087,151.087,0,0,1-14.245,64.2A8.048,8.048,0,0,0,464,392h-8a8,8,0,0,0,0,16h1.187A153.18,153.18,0,0,1,408,457.187V456a8,8,0,0,0-16,0v8a8.048,8.048,0,0,0,.2,1.755A151.911,151.911,0,0,1,191.83,395.484l5.827-5.827a8,8,0,1,0-11.314-11.314l-1.3,1.3a152.25,152.25,0,0,1-6.742-78.034l.045.045a8,8,0,1,0,11.314-11.314l-6.969-6.968C201.8,221.271,259.71,176,328,176c73.085,0,134.281,51.851,148.752,120.7a7.983,7.983,0,0,0-2.409,1.647l-8,8A8,8,0,0,0,466.343,317.657Z"/><path d="M352,216a7.976,7.976,0,0,0,5.657-2.343l8-8a8,8,0,0,0-11.314-11.314l-8,8A8,8,0,0,0,352,216Z"/><path d="M314.343,245.657a8,8,0,0,0,11.314,0l8-8a8,8,0,0,0-11.314-11.314l-8,8A8,8,0,0,0,314.343,245.657Z"/><path d="M381.657,250.343a8,8,0,0,0-11.314,11.314l8,8a8,8,0,0,0,11.314-11.314Z"/><path d="M405.657,237.657l8-8a8,8,0,0,0-11.314-11.314l-8,8a8,8,0,0,0,11.314,11.314Z"/><path d="M298.343,213.657a8,8,0,1,0,11.314-11.314l-8-8a8,8,0,0,0-11.314,11.314Z"/><path d="M272,272a8,8,0,0,0,5.657-13.657l-8-8a8,8,0,0,0-11.314,11.314l8,8A7.976,7.976,0,0,0,272,272Z"/><path d="M202.343,330.343l-8,8a8,8,0,0,0,11.314,11.314l8-8a8,8,0,1,0-11.314-11.314Z"/><path d="M229.657,269.657a8,8,0,0,0,0-11.314l-8-8a8,8,0,0,0-11.314,11.314l8,8a8,8,0,0,0,11.314,0Z"/><path d="M256,232a7.976,7.976,0,0,0,5.657-2.343l8-8a8,8,0,0,0-11.314-11.314l-8,8A8,8,0,0,0,256,232Z"/><path d="M418.343,277.657a8,8,0,0,0,11.314,0l8-8a8,8,0,0,0-11.314-11.314l-8,8A8,8,0,0,0,418.343,277.657Z"/><path d="M429.657,306.343a8,8,0,0,0-11.314,11.314l8,8a8,8,0,0,0,11.314-11.314Z"/><path d="M341.657,410.343a8,8,0,0,0-11.314,0l-8,8a8,8,0,0,0,11.314,11.314l8-8A8,8,0,0,0,341.657,410.343Z"/><path d="M240,384a8,8,0,0,0,5.657-13.657l-8-8a8,8,0,0,0-11.314,11.314l8,8A7.976,7.976,0,0,0,240,384Z"/><path d="M232,312a8,8,0,0,0,16,0v-8a8,8,0,0,0-16,0Z"/><path d="M248,408h-8a8,8,0,0,0,0,16h8a8,8,0,0,0,0-16Z"/><path d="M413.657,386.343a8,8,0,0,0-11.314,11.314l8,8a8,8,0,0,0,11.314-11.314Z"/><path d="M440,352h-8a8,8,0,0,0,0,16h8a8,8,0,0,0,0-16Z"/><path d="M384,408a8,8,0,0,0-8,8v8a8,8,0,0,0,16,0v-8A8,8,0,0,0,384,408Z"/><path d="M293.657,434.343a8,8,0,0,0-11.314,11.314l8,8a8,8,0,0,0,11.314-11.314Z"/><path d="M352,448h-8a8,8,0,0,0,0,16h8a8,8,0,0,0,0-16Z"/><path d="M328,264a63.951,63.951,0,0,0-48,106.264V384a8,8,0,0,0,16,0v-.61A63.987,63.987,0,1,0,328,264Zm0,16v32a24.027,24.027,0,0,1-24,24H280.679A47.958,47.958,0,0,1,328,280Zm-41.542,72H304a24.028,24.028,0,0,1,24,24A48.014,48.014,0,0,1,286.458,352ZM343.9,373.283A39.978,39.978,0,0,0,327.972,344,39.964,39.964,0,0,0,344,312V282.752a47.989,47.989,0,0,1-.1,90.531Z"/></svg>
