<svg id="Filled" height="512" viewBox="0 0 512 512" width="512" xmlns="http://www.w3.org/2000/svg"><path d="m104 184h240a80 80 0 0 1 80 80v32a32 32 0 0 1 -32 32h-336a32 32 0 0 1 -32-32v-32a80 80 0 0 1 80-80z" fill="#eec4a2"/><path d="m88 152a63.983 63.983 0 0 0 -64 63.862 16.056 16.056 0 0 0 16 16.138h64a32 32 0 0 1 32 32v8a16 16 0 0 0 16 16 16 16 0 0 0 16-16v-8a32 32 0 0 1 32-32h208a15.979 15.979 0 0 0 16-16 64.012 64.012 0 0 0 -53.332-63.115z" fill="#8a5237"/><path d="m168 248h240a80 80 0 0 1 80 80v32a32 32 0 0 1 -32 32h-336a32 32 0 0 1 -32-32v-32a80 80 0 0 1 80-80z" fill="#f7cca9"/><path d="m152 216a63.983 63.983 0 0 0 -64 63.862 16.056 16.056 0 0 0 16 16.138h64a32 32 0 0 1 32 32v8a16 16 0 0 0 16 16 16 16 0 0 0 16-16v-8a32 32 0 0 1 32-32h208a15.979 15.979 0 0 0 16-16 64.012 64.012 0 0 0 -53.332-63.115z" fill="#ad6643"/><path d="m128 168v-32l40 8-16 40z" fill="#75452e"/><path d="m87.029 151.029h33.941v33.941h-33.941z" fill="#5e3725" transform="matrix(.707 -.707 .707 .707 -88.333 122.745)"/><path d="m176 176-16-16 32-32 24 32z" fill="#5e3725"/><path d="m352 232v-32l40 8-16 40z" fill="#75452e"/><path d="m311.029 215.029h33.941v33.941h-33.941z" fill="#5e3725" transform="matrix(.707 -.707 .707 .707 -67.98 299.882)"/><path d="m400 240-16-16 32-32 24 32z" fill="#5e3725"/><path d="m439.207 209.609-9.935-13.247a71.951 71.951 0 0 0 -69.272-52.362h-146l-15.6-20.8a8 8 0 0 0 -12.057-.857l-14.6 14.6a7.979 7.979 0 0 0 -2.175-.787l-40-8a8 8 0 0 0 -9.568 7.844v12.686l-10.343-10.343a8 8 0 0 0 -11.314 0l-5.657 5.657h-4.686a71.982 71.982 0 0 0 -72 71.845 23.975 23.975 0 0 0 6.05 16.043 87.269 87.269 0 0 0 -6.05 32.112v32a40.045 40.045 0 0 0 40 40h24v24a40.045 40.045 0 0 0 40 40h336a40.045 40.045 0 0 0 40-40v-32a87.284 87.284 0 0 0 -6.037-32.078 23.864 23.864 0 0 0 6.037-15.922 71.739 71.739 0 0 0 -56.793-70.391zm-24.072-5.429 12.2 16.269-25.41 10.164-6.612-6.613zm-224-64 12.2 16.269-25.41 10.164-6.612-6.613zm-55.135 5.579 21 4.2-8.766 21.915-12.234-8.155zm-32 9.554 12.687 12.687-12.687 12.687-12.687-12.687zm-55.6 21.087a55.6 55.6 0 0 1 26.817-14.925l-.871.871a8 8 0 0 0 0 11.314l24 24a8 8 0 0 0 11.314 0l19.363-19.363 18.542 12.362a8 8 0 0 0 11.866-3.685l4.636-11.592 6.279 6.278a8 8 0 0 0 8.628 1.771l40-16a7.93 7.93 0 0 0 5.014-7.431h136.012a55.993 55.993 0 0 1 48.579 28.106l-12.835 12.836a7.979 7.979 0 0 0 -2.175-.787l-40-8a8 8 0 0 0 -9.569 7.845v12.686l-10.343-10.343a8 8 0 0 0 -11.314 0l-5.657 5.657h-164.686a71.46 71.46 0 0 0 -45.264 16h-66.736a7.892 7.892 0 0 1 -5.621-2.34 8.1 8.1 0 0 1 -2.379-5.782 55.639 55.639 0 0 1 16.4-39.478zm332.6 37.559-8.766 21.915-12.234-8.155v-17.96zm-40.313 18.041-12.687 12.687-12.687-12.687 12.687-12.687zm-260.687 47.845a23.979 23.979 0 0 0 6.05 16.043 86.759 86.759 0 0 0 -5.689 24.112h-24.361a24.028 24.028 0 0 1 -24-24v-32a71.479 71.479 0 0 1 4.217-24.3 24.094 24.094 0 0 0 3.783.3h52.1a71.523 71.523 0 0 0 -12.1 39.845zm400 80.155a24.028 24.028 0 0 1 -24 24h-336a24.028 24.028 0 0 1 -24-24v-32a71.479 71.479 0 0 1 4.217-24.3 24.094 24.094 0 0 0 3.783.3h64a24.028 24.028 0 0 1 24 24v8a24 24 0 0 0 48 0v-8a24.028 24.028 0 0 1 24-24h208a24.336 24.336 0 0 0 3.783-.3 71.476 71.476 0 0 1 4.217 24.3zm-2.326-74.347a7.991 7.991 0 0 1 -5.674 2.347h-208a40.045 40.045 0 0 0 -40 40v8a8 8 0 0 1 -16 0v-8a40.045 40.045 0 0 0 -40-40h-64a7.892 7.892 0 0 1 -5.621-2.34 8.1 8.1 0 0 1 -2.379-5.782 55.983 55.983 0 0 1 56-55.878h148.686l-2.343 2.343a8 8 0 0 0 0 11.314l24 24a8 8 0 0 0 11.314 0l19.363-19.363 18.542 12.362a8 8 0 0 0 11.866-3.685l4.636-11.592 6.279 6.278a8 8 0 0 0 8.628 1.771l40-16a8 8 0 0 0 3.517-2.751 55.8 55.8 0 0 1 33.512 51.323 7.974 7.974 0 0 1 -2.326 5.653z"/></svg>