<svg id="Capa_1" enable-background="new 0 0 510.853 510.853" height="512" viewBox="0 0 510.853 510.853" width="512" xmlns="http://www.w3.org/2000/svg"><g><g><path d="m266.246 12.675c-5.56-6.9-16.08-6.9-21.64 0l-162.6 201.72 90.462 174.221h180.774l75.604-174.221z" fill="#de6a66"/><circle cx="255.426" cy="235.199" fill="#f4c67b" r="101.201"/><path d="m307.349 123.329c-.702-9.883-8.4-18.094-18.22-19.413-1.903-.256-3.763-.252-5.552-.024-2.404.307-4.797-.665-6.16-2.669-4.782-7.032-12.845-11.652-21.99-11.652s-17.209 4.62-21.99 11.652c-1.363 2.004-3.756 2.975-6.16 2.669-1.789-.228-3.649-.232-5.552.024-9.819 1.319-17.517 9.53-18.22 19.413-.599 8.433 3.75 15.904 10.436 19.813 2.128 1.244 2.856 3.998 1.536 6.08-2.728 4.302-4.143 9.519-3.676 15.088.972 11.604 10.29 21.027 21.884 22.112 6.394.599 12.337-1.282 16.982-4.791 2.829-2.137 6.692-2.137 9.521 0 4.645 3.509 10.588 5.39 16.982 4.791 11.594-1.086 20.912-10.508 21.884-22.113.466-5.57-.948-10.786-3.676-15.088-1.32-2.082-.593-4.836 1.536-6.08 6.685-3.908 11.034-11.379 10.435-19.812z" fill="#f5cd8b"/><path d="m235.516 170.639c-.466-5.57.948-10.786 3.676-15.089 1.32-2.082.593-4.836-1.536-6.08-6.687-3.909-11.036-11.38-10.436-19.813.702-9.883 8.4-18.094 18.22-19.413 1.903-.256 3.763-.252 5.552-.024 2.404.307 4.797-.665 6.16-2.669 3.743-5.504 9.51-9.515 16.219-11.005-4.727-4.328-11.03-6.976-17.945-6.976-9.145 0-17.209 4.62-21.99 11.652-1.363 2.004-3.756 2.975-6.16 2.669-1.789-.228-3.649-.232-5.552.024-9.819 1.319-17.517 9.53-18.22 19.413-.599 8.433 3.75 15.904 10.436 19.812 2.128 1.244 2.856 3.999 1.536 6.081-2.728 4.302-4.143 9.519-3.676 15.088.971 11.604 10.29 21.027 21.884 22.113 3.073.288 6.039-.002 8.81-.766-3.911-3.942-6.492-9.206-6.978-15.017z" fill="#f4c67b"/><path d="m391.307 149.038c-.702-9.883-8.4-18.094-18.22-19.413-1.903-.256-3.763-.252-5.552-.024-2.404.307-4.797-.665-6.16-2.669-4.782-7.032-12.845-11.652-21.99-11.652s-17.209 4.62-21.99 11.652c-1.363 2.004-3.756 2.975-6.16 2.669-1.789-.228-3.649-.232-5.552.024-9.819 1.319-17.517 9.53-18.22 19.413-.599 8.433 3.75 15.904 10.436 19.813 2.128 1.244 2.856 3.998 1.536 6.08-2.728 4.302-4.143 9.519-3.676 15.088.972 11.604 10.29 21.027 21.884 22.112 6.394.599 12.337-1.282 16.982-4.791 2.829-2.137 6.692-2.137 9.521 0 4.645 3.509 10.588 5.39 16.982 4.791 11.594-1.086 20.912-10.508 21.884-22.113.466-5.57-.948-10.786-3.676-15.088-1.32-2.082-.593-4.836 1.536-6.08 6.685-3.908 11.034-11.379 10.435-19.812z" fill="#f8deb6"/><g><path d="m315.755 196.068c-.466-5.57.948-10.786 3.676-15.088 1.32-2.082.593-4.836-1.536-6.081-6.687-3.909-11.036-11.38-10.436-19.813.702-9.883 8.4-18.094 18.22-19.413 1.903-.256 3.763-.252 5.552-.024 2.404.307 4.797-.665 6.16-2.669 4.263-6.27 11.151-10.614 19.072-11.485-4.617-3.876-10.578-6.216-17.079-6.216-9.145 0-17.209 4.62-21.99 11.652-1.363 2.004-3.756 2.975-6.16 2.669-1.789-.228-3.649-.232-5.552.024-9.819 1.319-17.517 9.53-18.22 19.413-.599 8.433 3.75 15.904 10.436 19.813 2.128 1.244 2.856 3.998 1.536 6.08-2.728 4.302-4.143 9.519-3.676 15.089.972 11.604 10.29 21.027 21.884 22.112 2.068.194 4.087.124 6.031-.172-4.428-4.022-7.394-9.632-7.918-15.891z" fill="#f7d8a4"/></g><g><g id="XMLID_247_"><g><path d="m224.391 147.722c-.702-9.883-8.4-18.094-18.22-19.413-1.903-.256-3.763-.252-5.552-.024-2.404.307-4.797-.665-6.16-2.669-4.782-7.032-12.845-11.652-21.99-11.652s-17.209 4.62-21.99 11.652c-1.363 2.004-3.756 2.975-6.16 2.669-1.789-.228-3.649-.232-5.552.024-9.819 1.319-17.517 9.53-18.22 19.413-.599 8.433 3.75 15.904 10.436 19.813 2.128 1.244 2.856 3.998 1.536 6.08-2.728 4.302-4.143 9.519-3.676 15.088.972 11.604 10.29 21.027 21.884 22.112 6.394.599 12.337-1.282 16.982-4.791 2.829-2.137 6.692-2.137 9.521 0 4.645 3.509 10.588 5.39 16.982 4.791 11.594-1.086 20.912-10.508 21.884-22.113.466-5.57-.948-10.786-3.676-15.088-1.32-2.082-.593-4.836 1.536-6.08 6.685-3.908 11.034-11.379 10.435-19.812z" fill="#f8deb6"/><g><path d="m152.194 192.172c-.466-5.57.948-10.786 3.676-15.088 1.32-2.082.593-4.836-1.536-6.081-6.687-3.909-11.036-11.38-10.436-19.812.702-9.883 8.4-18.094 18.22-19.413 1.903-.256 3.763-.252 5.552-.024 2.404.307 4.797-.665 6.16-2.669 3.287-4.834 8.136-8.529 13.81-10.366-4.3-2.995-9.534-4.755-15.172-4.755-9.145 0-17.209 4.62-21.99 11.652-1.363 2.004-3.756 2.975-6.16 2.669-1.789-.228-3.649-.232-5.552.024-9.819 1.319-17.518 9.53-18.22 19.413-.599 8.433 3.75 15.904 10.436 19.813 2.128 1.244 2.856 3.998 1.536 6.081-2.728 4.302-4.143 9.519-3.676 15.088.972 11.604 10.29 21.027 21.884 22.112 3.874.363 7.58-.189 10.934-1.458-5.282-4.062-8.883-10.223-9.466-17.186z" fill="#f7d8a4"/></g><path d="m228.081 233.342c-.702-9.883-8.4-18.094-18.22-19.413-1.903-.256-3.763-.252-5.552-.024-2.404.307-4.797-.665-6.16-2.669-4.782-7.032-12.845-11.652-21.99-11.652s-17.209 4.62-21.99 11.652c-1.363 2.004-3.756 2.975-6.16 2.669-1.789-.228-3.649-.232-5.552.024-9.819 1.319-17.517 9.53-18.22 19.413-.599 8.433 3.75 15.904 10.436 19.813 2.128 1.244 2.856 3.998 1.536 6.08-2.728 4.302-4.143 9.519-3.676 15.089.972 11.604 10.29 21.027 21.884 22.112 6.394.599 12.337-1.282 16.982-4.791 2.829-2.137 6.692-2.137 9.521 0 4.645 3.509 10.588 5.39 16.982 4.791 11.594-1.086 20.912-10.509 21.884-22.113.466-5.57-.948-10.786-3.676-15.088-1.32-2.082-.593-4.836 1.536-6.08 6.685-3.909 11.034-11.38 10.435-19.813z" fill="#f5cd8b"/><g><path d="m152.398 275.568c-.454-5.258.924-10.183 3.581-14.244 1.286-1.966.577-4.565-1.496-5.74-6.514-3.69-10.751-10.743-10.167-18.703.684-9.329 8.183-17.081 17.749-18.326 1.854-.241 3.666-.238 5.409-.022 2.342.289 4.673-.627 6.001-2.52 4.218-6.011 11.075-10.143 18.943-10.873-4.492-3.478-10.139-5.555-16.26-5.555-9.145 0-17.209 4.62-21.99 11.652-1.363 2.004-3.756 2.975-6.16 2.669-1.789-.228-3.649-.232-5.552.024-9.819 1.319-17.518 9.53-18.22 19.413-.599 8.433 3.75 15.904 10.436 19.813 2.128 1.244 2.856 3.998 1.536 6.081-2.728 4.302-4.143 9.519-3.676 15.088.972 11.604 10.29 21.027 21.884 22.113 4.281.401 8.356-.314 11.978-1.88-7.69-3.335-13.266-10.541-13.996-18.99z" fill="#f4c67b"/></g><path d="m388.311 233.342c-.702-9.883-8.4-18.094-18.22-19.413-1.903-.256-3.763-.252-5.552-.024-2.404.307-4.797-.665-6.16-2.669-4.782-7.032-12.845-11.652-21.99-11.652s-17.209 4.62-21.99 11.652c-1.363 2.004-3.756 2.975-6.16 2.669-1.789-.228-3.649-.232-5.552.024-9.819 1.319-17.517 9.53-18.22 19.413-.599 8.433 3.75 15.904 10.436 19.813 2.128 1.244 2.856 3.998 1.536 6.08-2.728 4.302-4.143 9.519-3.676 15.089.972 11.604 10.29 21.027 21.884 22.112 6.394.599 12.337-1.282 16.982-4.791 2.829-2.137 6.692-2.137 9.521 0 4.645 3.509 10.588 5.39 16.982 4.791 11.594-1.086 20.912-10.509 21.884-22.113.466-5.57-.948-10.786-3.676-15.088-1.32-2.082-.593-4.836 1.536-6.08 6.685-3.909 11.034-11.38 10.435-19.813z" fill="#f8deb6"/><g><path d="m314.775 280.011c-.466-5.57.948-10.786 3.676-15.088 1.32-2.082.593-4.836-1.536-6.081-6.687-3.909-11.036-11.38-10.436-19.813.702-9.883 8.4-18.094 18.22-19.413 1.903-.256 3.763-.252 5.552-.024 2.404.307 4.797-.665 6.16-2.669 3.885-5.713 9.95-9.837 16.987-11.182-4.608-3.841-10.542-6.158-17.01-6.158-9.145 0-17.209 4.62-21.99 11.652-1.363 2.004-3.756 2.975-6.16 2.669-1.789-.228-3.649-.232-5.552.024-9.819 1.319-17.517 9.53-18.22 19.413-.599 8.433 3.75 15.904 10.436 19.813 2.128 1.244 2.856 3.998 1.536 6.081-2.728 4.302-4.143 9.519-3.676 15.088.971 11.604 10.29 21.027 21.884 22.113 2.782.26 5.479.051 8.021-.558-4.413-4.021-7.369-9.62-7.892-15.867z" fill="#f7d8a4"/></g><path d="m307.349 175.327c-.702-9.883-8.4-18.094-18.22-19.413-1.903-.256-3.763-.252-5.552-.024-2.404.307-4.797-.665-6.16-2.669-4.782-7.032-12.845-11.652-21.99-11.652s-17.209 4.62-21.99 11.652c-1.363 2.004-3.756 2.975-6.16 2.669-1.789-.228-3.649-.232-5.552.024-9.819 1.319-17.517 9.53-18.22 19.413-.599 8.433 3.75 15.904 10.436 19.813 2.128 1.244 2.856 3.998 1.536 6.08-2.728 4.302-4.143 9.519-3.676 15.088.972 11.604 10.29 21.027 21.884 22.112 6.394.599 12.337-1.282 16.982-4.791 2.829-2.137 6.692-2.137 9.521 0 4.645 3.509 10.588 5.39 16.982 4.791 11.594-1.086 20.912-10.508 21.884-22.113.466-5.57-.948-10.786-3.676-15.088-1.32-2.082-.593-4.836 1.536-6.08 6.685-3.908 11.034-11.38 10.435-19.812z" fill="#f5cd8b"/><g><path d="m230.632 219.174c-.466-5.57.948-10.786 3.676-15.088 1.32-2.082.593-4.836-1.536-6.081-6.687-3.909-11.036-11.38-10.436-19.813.702-9.883 8.4-18.094 18.22-19.413 1.903-.256 3.763-.252 5.552-.024 2.404.307 4.797-.665 6.16-2.669 3.76-5.53 9.57-9.562 16.319-11.034-3.878-2.214-8.375-3.483-13.161-3.483-9.145 0-17.209 4.62-21.99 11.652-1.363 2.004-3.756 2.975-6.16 2.669-1.789-.228-3.649-.232-5.552.024-9.819 1.319-17.517 9.53-18.22 19.413-.599 8.433 3.75 15.904 10.436 19.812 2.128 1.244 2.856 3.999 1.536 6.081-2.728 4.302-4.143 9.519-3.676 15.088.971 11.604 10.29 21.027 21.884 22.113 2.93.274 5.764.023 8.423-.663-6.372-3.956-10.821-10.769-11.475-18.584z" fill="#f4c67b"/></g><path d="m307.349 265.026c-.702-9.883-8.4-18.094-18.22-19.413-1.903-.256-3.763-.252-5.552-.024-2.404.307-4.797-.665-6.16-2.669-4.782-7.032-12.845-11.652-21.99-11.652s-17.209 4.62-21.99 11.652c-1.363 2.004-3.756 2.975-6.16 2.669-1.789-.228-3.649-.232-5.552.024-9.819 1.319-17.517 9.53-18.22 19.413-.599 8.433 3.75 15.904 10.436 19.813 2.128 1.244 2.856 3.998 1.536 6.08-2.728 4.302-4.143 9.519-3.676 15.089.972 11.604 10.29 21.027 21.884 22.112 6.394.599 12.337-1.282 16.982-4.791 2.829-2.137 6.692-2.137 9.521 0 4.645 3.509 10.588 5.39 16.982 4.791 11.594-1.086 20.912-10.508 21.884-22.113.466-5.57-.948-10.786-3.676-15.088-1.32-2.082-.593-4.836 1.536-6.08 6.685-3.908 11.034-11.38 10.435-19.813z" fill="#f8deb6"/><g><path d="m232.797 313.266c-.466-5.57.948-10.786 3.676-15.089 1.32-2.082.593-4.836-1.536-6.08-6.687-3.909-11.036-11.38-10.436-19.813.702-9.883 8.401-18.094 18.22-19.413 1.903-.256 3.763-.252 5.552-.024 2.404.306 4.797-.665 6.16-2.669 4.319-6.352 11.341-10.718 19.394-11.507-4.774-4.577-11.265-7.403-18.401-7.403-9.145 0-17.209 4.62-21.99 11.652-1.363 2.004-3.756 2.975-6.16 2.669-1.789-.228-3.649-.232-5.552.024-9.819 1.319-17.517 9.53-18.22 19.413-.599 8.433 3.75 15.904 10.436 19.813 2.128 1.244 2.856 3.998 1.536 6.08-2.728 4.302-4.143 9.519-3.676 15.089.971 11.604 10.29 21.027 21.884 22.112 1.99.186 3.937.132 5.815-.136-3.751-3.91-6.228-9.049-6.702-14.718z" fill="#f7d8a4"/></g><path d="m428.846 214.395c5.14 6.37 6.96 14.8 4.91 22.73l-61.99 239.77c-4.9 18.94-24.28 30.28-43.19 25.26l-22.95-6.09c-32.9-8.73-67.5-8.73-100.4 0l-22.95 6.09c-18.91 5.02-38.29-6.32-43.19-25.26l-61.99-239.77c-2.05-7.93-.23-16.36 4.91-22.73l98.31 71.55c5.98 4.36 13.2 6.71 20.6 6.71h109.02c7.4 0 14.62-2.35 20.6-6.71z" fill="#ea9a98"/></g></g><ellipse cx="255.926" cy="391.186" fill="#fcf6ed" rx="89.108" ry="58.503"/></g><path d="m356.416 469.849-29.306-6.09c-42.285-8.787-85.925-8.787-128.211 0-11.17 2.321-22.199-4.522-25.078-15.561-14.331-54.944-53.427-205.864-53.427-205.864l-38.387-27.938c-5.14 6.37-6.96 14.8-4.91 22.73l61.99 239.77c4.9 18.94 24.28 30.28 43.19 25.26l22.95-6.09c32.897-8.729 67.503-8.729 100.4 0l22.95 6.09c18.91 5.02 38.29-6.32 43.19-25.26l1.582-6.12c-5.512.52-11.238.257-16.933-.927z" fill="#e5827f"/></g><g><path d="m434.684 209.688-16.136-20.018c-2.599-3.225-7.322-3.732-10.546-1.132-3.225 2.6-3.731 7.321-1.132 10.546l11.192 13.884-24.27 17.665c-1.235-8.278-6.048-15.462-12.849-19.849 5.35-5.186 8.88-12.235 9.542-20.136.499-5.956-.627-11.774-3.267-17.003 7.898-5.802 12.279-15.176 11.57-25.136-.956-13.454-11.345-24.521-24.702-26.314-2.314-.31-4.646-.342-6.94-.097-6.398-8.979-16.719-14.315-27.761-14.315-9.585 0-18.621 4.025-25.025 10.958-2.999-10.855-12.261-19.241-23.731-20.783-2.313-.311-4.646-.344-6.94-.096-6.397-8.979-16.718-14.315-27.761-14.315s-21.364 5.338-27.761 14.315c-2.297-.247-4.629-.214-6.94.096-11.47 1.541-20.732 9.927-23.731 20.783-6.404-6.933-15.44-10.958-25.025-10.958-11.042 0-21.363 5.338-27.761 14.315-2.294-.246-4.626-.213-6.939.097-13.358 1.794-23.747 12.86-24.703 26.313-.708 9.961 3.673 19.335 11.57 25.137-2.64 5.229-3.766 11.047-3.267 17.003.645 7.704 4.02 14.594 9.146 19.741-7.134 4.335-12.22 11.685-13.503 20.207l-24.219-17.628 12.075-14.98c2.599-3.226 2.092-7.947-1.133-10.546-3.225-2.601-7.946-2.092-10.546 1.132l-17.019 21.114c-6.595 8.182-8.962 19.141-6.332 29.314l45.531 176.106c.874 3.381 3.919 5.625 7.256 5.625.622 0 1.253-.078 1.883-.24 4.01-1.037 6.42-5.129 5.384-9.139l-45.535-176.106c-.835-3.231-.75-6.605.163-9.747l91.375 66.507c7.318 5.327 15.971 8.143 25.022 8.143h109.012c9.052 0 17.705-2.815 25.022-8.143l91.375-66.507c.914 3.142.998 6.516.163 9.747l-18.402 71.175c-1.037 4.01 1.374 8.102 5.384 9.138.63.163 1.261.241 1.883.241 3.336 0 6.382-2.244 7.256-5.625l18.402-71.175c2.632-10.174.265-21.133-6.33-29.314zm-111.089-78.537c3.563-5.24 9.466-8.369 15.789-8.369 6.322 0 12.225 3.129 15.789 8.37 2.93 4.308 8.034 6.568 13.312 5.891 1.18-.15 2.393-.146 3.604.019 6.244.838 11.29 6.216 11.737 12.511.373 5.25-2.209 10.157-6.741 12.806-2.784 1.628-4.817 4.355-5.577 7.484-.763 3.14-.232 6.367 1.493 9.088 1.971 3.108 2.848 6.72 2.537 10.445-.65 7.76-6.842 14.178-14.516 15.188-6.444-7.875-16.084-12.498-26.354-12.498-11.038 0-21.354 5.337-27.749 14.314-.397-.042-.795-.065-1.194-.091-.52-1.703-1.172-3.362-1.969-4.95 7.9-5.803 12.283-15.179 11.574-25.14-.85-11.973-9.18-22.037-20.416-25.376-.009-.422-.002-.846.029-1.271.447-6.294 5.493-11.672 11.738-12.51 1.211-.164 2.423-.169 3.604-.019 5.277.673 10.382-1.584 13.31-5.892zm-30.467 147.213c-2.574 1.504-4.492 3.954-5.37 6.786h-64.663c-.878-2.832-2.796-5.282-5.37-6.786-4.53-2.648-7.113-7.556-6.74-12.807.447-6.294 5.493-11.672 11.738-12.51 1.21-.164 2.422-.168 3.604-.019 5.28.675 10.381-1.584 13.312-5.892 3.563-5.24 9.466-8.369 15.788-8.369s12.225 3.129 15.789 8.37c2.93 4.308 8.034 6.565 13.312 5.891 1.18-.15 2.393-.146 3.604.019 6.244.838 11.29 6.216 11.737 12.511.372 5.251-2.211 10.158-6.741 12.806zm-17.556-47.986c-5.768-4.232-12.793-6.609-20.145-6.609-7.353 0-14.378 2.378-20.146 6.61-1.401-8.834-6.897-16.383-14.507-20.585.403-1.097.913-2.15 1.536-3.133 1.725-2.721 2.255-5.948 1.493-9.088-.76-3.128-2.793-5.855-5.578-7.483-4.531-2.649-7.113-7.557-6.74-12.808.447-6.293 5.493-11.671 11.738-12.51 1.208-.164 2.422-.168 3.604-.019 5.281.674 10.382-1.583 13.312-5.891 3.563-5.24 9.465-8.369 15.788-8.369s12.225 3.129 15.789 8.37c2.929 4.307 8.032 6.561 13.308 5.891 1.186-.152 2.399-.146 3.608.018 6.244.839 11.29 6.217 11.737 12.511.373 5.25-2.209 10.157-6.74 12.807-2.785 1.627-4.817 4.354-5.578 7.482-.763 3.14-.233 6.367 1.493 9.089.537.847.992 1.746 1.366 2.68-8.043 4.097-13.887 11.88-15.338 21.037zm-52.349-117.554c1.208-.165 2.42-.168 3.604-.018 5.281.676 10.381-1.584 13.312-5.892 3.563-5.24 9.465-8.369 15.788-8.369s12.225 3.129 15.789 8.37c2.93 4.308 8.031 6.566 13.312 5.891 1.183-.15 2.396-.146 3.604.018 5.534.743 10.12 5.055 11.404 10.407-10.198 3.178-17.923 11.925-19.72 22.562-6.359-6.524-15.114-10.3-24.388-10.3s-18.029 3.775-24.388 10.3c-1.797-10.637-9.522-19.384-19.72-22.562 1.282-5.351 5.868-9.663 11.403-10.407zm-95.196 36.747c.447-6.294 5.493-11.672 11.738-12.51 1.211-.163 2.422-.168 3.604-.019 5.281.676 10.382-1.584 13.312-5.892 3.563-5.24 9.466-8.369 15.788-8.369 6.323 0 12.225 3.129 15.788 8.369 2.929 4.308 8.034 6.569 13.313 5.892 1.18-.15 2.393-.145 3.604.019 6.244.838 11.29 6.216 11.737 12.511.03.425.037.848.029 1.271-11.236 3.339-19.565 13.403-20.416 25.375-.708 9.962 3.674 19.338 11.575 25.141-.789 1.574-1.438 3.215-1.954 4.901-.743.022-1.486.062-2.224.141-6.398-8.979-16.719-14.315-27.761-14.315-10.214 0-19.804 4.573-26.249 12.364-7.243-1.38-12.969-7.605-13.593-15.054-.312-3.726.565-7.337 2.537-10.445 1.725-2.721 2.255-5.948 1.493-9.088-.76-3.129-2.792-5.856-5.578-7.485-4.533-2.649-7.116-7.556-6.743-12.807zm56.698 130.31-49.924-36.337c-2.235-2.709-3.337-6.112-3.084-9.67.447-6.293 5.493-11.671 11.738-12.51 1.208-.164 2.422-.169 3.604-.019 5.28.675 10.382-1.583 13.312-5.891 3.563-5.24 9.466-8.369 15.788-8.369 6.323 0 12.225 3.129 15.789 8.37 2.929 4.307 8.029 6.559 13.308 5.891 1.186-.152 2.399-.146 3.607.018.466.062.923.158 1.374.27.074.021.147.043.221.061 5.487 1.462 9.733 6.433 10.142 12.178.106 1.498-.038 2.979-.404 4.403-13.099 2.014-23.23 12.946-24.173 26.218-.547 7.696 1.949 15.037 6.753 20.656h-1.855c-5.859 0-11.46-1.822-16.196-5.269zm141.402 0c-4.736 3.447-10.337 5.27-16.195 5.27h-1.855c4.804-5.619 7.3-12.96 6.753-20.655-.943-13.274-11.075-24.207-24.174-26.22-.366-1.423-.51-2.905-.403-4.402.418-5.877 4.844-10.954 10.51-12.283.092-.015.182-.038.273-.056.313-.066.627-.129.946-.172 1.208-.162 2.42-.168 3.6-.018 5.281.672 10.38-1.584 13.31-5.892 3.561-5.24 9.458-8.368 15.775-8.368s12.215 3.128 15.776 8.368c2.927 4.308 8.026 6.561 13.306 5.893 1.185-.151 2.397-.146 3.604.018 6.239.838 11.281 6.217 11.729 12.51.256 3.604-.874 7.044-3.162 9.768z"/><path d="m409.209 332.06c-4.01-1.034-8.102 1.374-9.139 5.385l-35.569 137.577c-1.865 7.211-6.433 13.254-12.862 17.015-6.43 3.76-13.937 4.779-21.134 2.868l-22.956-6.092c-34.1-9.049-70.146-9.049-104.246 0l-22.956 6.092c-7.197 1.912-14.704.893-21.134-2.868s-10.998-9.804-12.862-17.015l-8.458-32.715c-1.037-4.01-5.127-6.417-9.139-5.385-4.01 1.037-6.42 5.129-5.384 9.139l8.458 32.715c2.872 11.108 9.908 20.416 19.812 26.208 9.903 5.792 21.463 7.362 32.554 4.419l22.956-6.092c31.582-8.381 64.969-8.381 96.551 0l22.956 6.092c3.655.97 7.361 1.45 11.042 1.45 7.488 0 14.873-1.985 21.512-5.869 9.904-5.792 16.94-15.1 19.812-26.208l35.569-137.577c1.038-4.011-1.372-8.102-5.383-9.139z"/><path d="m180.245 92.522c3.225 2.601 7.946 2.094 10.546-1.132l59.656-74.009c1.67-2.072 3.836-2.382 4.979-2.382s3.309.31 4.979 2.382l59.812 74.203c1.482 1.838 3.653 2.793 5.844 2.793 1.652 0 3.315-.543 4.702-1.661 3.225-2.6 3.731-7.32 1.132-10.546l-59.812-74.202c-4.082-5.064-10.153-7.968-16.657-7.968s-12.575 2.904-16.657 7.968l-59.656 74.009c-2.599 3.225-2.092 7.946 1.132 10.545z"/><path d="m193.078 358.877c3.301-2.502 3.949-7.206 1.448-10.508-2.502-3.301-7.207-3.948-10.507-1.447-15.928 12.071-24.7 27.791-24.7 44.264 0 18.237 10.471 35.155 29.483 47.638 18.039 11.843 41.877 18.365 67.125 18.365s49.086-6.522 67.125-18.365c19.012-12.482 29.483-29.4 29.483-47.638s-10.471-35.155-29.483-47.638c-18.039-11.843-41.877-18.365-67.125-18.365-14.38 0-28.209 2.081-41.105 6.187-3.947 1.256-6.128 5.475-4.872 9.422s5.475 6.131 9.421 4.871c11.422-3.636 23.721-5.479 36.555-5.479 22.356 0 43.271 5.648 58.892 15.904 14.648 9.617 22.715 22.082 22.715 35.099s-8.067 25.481-22.715 35.099c-15.621 10.256-36.536 15.904-58.892 15.904s-43.271-5.648-58.892-15.904c-14.648-9.617-22.715-22.082-22.715-35.099 0-11.668 6.662-23.142 18.759-32.31z"/></g></g></svg>