<svg id="Capa_1" enable-background="new 0 0 512.142 512.142" height="512" viewBox="0 0 512.142 512.142" width="512" xmlns="http://www.w3.org/2000/svg"><g><g><g><g id="XMLID_248_"><g><path d="m502.631 111.071h-14.441c-3.418 0-6.697 1.358-9.114 3.775l-14.995 14.995-50.422 61.801v152.663l50.422 37.996 14.995 14.995c2.417 2.417 5.696 3.775 9.114 3.775h14.441c1.11 0 2.01-.9 2.01-2.01v-285.98c0-1.11-.9-2.01-2.01-2.01z" fill="#d08a61"/><path d="m48.061 129.841-16.095-16.095c-1.713-1.713-4.036-2.675-6.458-2.675h-15.997c-1.11 0-2.01.9-2.01 2.01v285.98c0 1.11.9 2.01 2.01 2.01h15.997c2.422 0 4.745-.962 6.458-2.675l16.095-16.095 35.881-53.254v-169.616z" fill="#d08a61"/><path d="m464.081 129.841v252.46l-27.06 8.79c-117.61 38.2-244.29 38.2-361.9 0l-27.06-8.79v-252.46l27.06-8.79c117.61-38.2 244.29-38.2 361.9 0z" fill="#dfae91"/><path d="m450.95 337.637c-109.8 35.663-227.505 38.032-338.355 7.105-13.967-3.897-23.654-16.595-23.82-31.094l-2.242-196.172c-3.813 1.153-7.618 2.342-11.413 3.575l-27.06 8.79v227.627 24.833l27.06 8.79c117.61 38.2 244.29 38.2 361.9 0l27.06-8.79v-48.929z" fill="#d79c7a"/></g></g><path d="m402.226 358.704c15.758-66.659 15.226-135.224-1.599-205.695-.663-2.775-2.81-4.97-5.57-5.693-45.346-11.882-91.958-17.915-138.986-17.915-47.325 0-94.229 6.108-139.846 18.14-2.739.723-4.875 2.894-5.548 5.646-16.745 68.531-16.923 137.061-.529 205.592.662 2.765 2.8 4.952 5.549 5.68 45.782 12.124 92.865 18.279 140.373 18.279 47.588 0 94.751-6.175 140.606-18.34 2.754-.729 4.895-2.922 5.55-5.694z" fill="#fcf6ed"/><path d="m112.595 344.742c-2.126-.593-4.138-1.413-6.047-2.389 1.098 5.476 2.291 10.952 3.601 16.428.662 2.765 2.8 4.952 5.549 5.68 45.782 12.125 92.865 18.279 140.373 18.279 47.588 0 94.751-6.175 140.606-18.34 2.753-.73 4.894-2.923 5.549-5.695.628-2.657 1.221-5.318 1.797-7.981-95.966 22.557-196.223 20.579-291.428-5.982z" fill="#fcf1de"/><path d="m332.696 295.419c-11.442 24.208-40.341 34.556-64.548 23.115s-34.556-40.341-23.115-64.548c7.235-15.307 39.03-37.217 61.434-51.259 10.896-6.829 25.198-.07 26.838 12.685 3.371 26.224 6.626 64.7-.609 80.007z" fill="#dfae91"/><path d="m324.733 208.464c1.505-.943 3.075-1.618 4.668-2.063-5.359-6.432-15.039-8.622-22.934-3.674-22.403 14.042-54.199 35.952-61.434 51.259-11.442 24.208-1.093 53.107 23.115 64.548 5.073 2.398 10.352 3.826 15.633 4.383-3.484-1.911-6.644-4.201-9.458-6.791-3.193-2.939-4.109-7.616-2.382-11.597 3.19-7.351 4.963-15.452 4.963-23.963 0-6.663-2.146-14.783-5.417-23.314-1.463-3.816-.58-8.149 2.324-11.025 13.148-13.023 34.541-27.495 50.922-37.763z" fill="#d79c7a"/><path d="m264.903 280.566c0 26.775-21.706 48.481-48.481 48.481s-48.481-21.706-48.481-48.481c0-16.931 19.384-50.326 33.638-72.595 6.933-10.831 22.752-10.831 29.685 0 14.255 22.269 33.639 55.664 33.639 72.595z" fill="#dfae91"/><path d="m186.732 280.566c0-16.931 19.384-50.326 33.638-72.595 1.471-2.298 3.345-4.104 5.447-5.427-7.802-4.911-18.776-3.105-24.238 5.427-14.254 22.269-33.638 55.664-33.638 72.595 0 26.775 21.706 48.481 48.481 48.481 3.215 0 6.355-.321 9.395-.918-22.277-4.377-39.085-24.004-39.085-47.563z" fill="#d79c7a"/></g></g><g><path d="m504.642 304.584c4.142 0 7.5-3.357 7.5-7.5v-184.004c0-5.243-4.266-9.509-9.509-9.509h-19.781c-1.989 0-3.896.79-5.303 2.196l-15.52 15.52-22.688-7.368c-59.281-19.254-120.942-29.017-183.271-29.017s-123.989 9.763-183.27 29.016l-22.688 7.368-15.52-15.52c-1.407-1.406-3.314-2.196-5.303-2.196h-19.78c-5.243 0-9.509 4.266-9.509 9.509v285.982c0 5.243 4.266 9.509 9.509 9.509h19.781c1.989 0 3.896-.79 5.303-2.196l15.52-15.52 22.688 7.368c59.281 19.254 120.942 29.017 183.271 29.017s123.99-9.763 183.271-29.017l22.688-7.368 15.52 15.52c1.407 1.406 3.314 2.196 5.303 2.196h19.781c5.243 0 9.509-4.266 9.509-9.509v-70.016c0-4.143-3.358-7.5-7.5-7.5s-7.5 3.357-7.5 7.5v64.524h-11.184l-14.375-14.375v-246.248l14.375-14.375h11.184v178.514c-.002 4.142 3.356 7.499 7.498 7.499zm-69.934 79.374c-57.782 18.767-117.884 28.282-178.637 28.282s-120.855-9.516-178.637-28.282l-21.875-7.105v-176.854c0-4.143-3.358-7.5-7.5-7.5s-7.5 3.357-7.5 7.5v178.959c0 .076.009.15.011.226l-14.387 14.387h-11.183v-275h11.184l14.375 14.375v35.09c0 4.143 3.358 7.5 7.5 7.5s7.5-3.357 7.5-7.5v-32.748l21.875-7.105c57.782-18.767 117.884-28.282 178.637-28.282s120.855 9.516 178.637 28.282l21.875 7.105v241.564z"/><path d="m396.958 140.062c-11.866-3.109-24.091-5.877-36.334-8.225-4.07-.777-7.999 1.886-8.778 5.954-.78 4.067 1.885 7.998 5.953 8.778 11.917 2.284 23.812 4.977 35.358 8.003.082.021.155.097.175.179 16.472 68.99 17.008 137.029 1.595 202.228-.019.078-.091.15-.173.172-45.245 12.003-91.904 18.089-138.683 18.089-46.699 0-93.281-6.066-138.454-18.029-.082-.022-.155-.096-.174-.175-16.037-67.036-15.862-135.021.52-202.066.02-.08.093-.153.175-.175 45.012-11.873 91.419-17.893 137.933-17.893 23.298 0 46.831 1.53 69.944 4.547 4.111.538 7.872-2.358 8.408-6.466s-2.359-7.871-6.466-8.407c-23.754-3.102-47.94-4.674-71.886-4.674-47.804 0-95.499 6.187-141.756 18.388-5.409 1.426-9.594 5.686-10.923 11.118-16.953 69.384-17.134 139.741-.537 209.118 1.307 5.462 5.493 9.747 10.923 11.185 46.424 12.295 94.298 18.529 142.293 18.529 48.077 0 96.03-6.255 142.53-18.591 5.444-1.444 9.629-5.743 10.924-11.219 15.957-67.5 15.417-137.872-1.603-209.163-1.31-5.483-5.511-9.777-10.964-11.205z"/><path d="m326.198 198.499c-7.696-3.858-16.706-3.534-24.105.865-14.65 8.714-33.708 20.868-47.651 32.695-4.705-8.542-10.326-17.923-16.86-28.13-4.641-7.251-12.551-11.58-21.159-11.58s-16.518 4.329-21.159 11.58c-23.106 36.097-34.822 61.882-34.822 76.638 0 30.868 25.113 55.98 55.981 55.98 14.21 0 27.192-5.331 37.075-14.087 2.534 1.859 5.223 3.515 8.057 4.936 8.032 4.028 16.578 5.935 25.005 5.935 20.523 0 40.322-11.318 50.132-30.879 6.615-13.19 7.702-41.491 3.229-84.116-.899-8.563-6.029-15.978-13.723-19.837zm-37.114 26.677c-8.727 13.396-15.899 24.914-21.485 34.5-1.613-4.267-3.632-8.91-6.054-13.925 7.634-6.833 17.577-14.001 27.539-20.575zm-113.643 55.39c0-8.757 7.056-25.651 19.762-47.723-2.92 25.834-4.397 45.413-4.397 58.39 0 7.465.223 14.756.66 21.806-9.735-7.499-16.025-19.262-16.025-32.473zm31.629 39.891c-.835-9.264-1.263-19.066-1.263-29.224 0-16.292 2.606-45.08 7.546-83.406.972-.303 1.998-.478 3.069-.478s2.097.176 3.069.478c4.94 38.327 7.546 67.115 7.546 83.406 0 10.158-.427 19.96-1.263 29.224-3.006.705-6.135 1.089-9.353 1.089s-6.345-.384-9.351-1.089zm34.306-7.416c.436-7.053.662-14.342.662-21.808 0-12.978-1.477-32.555-4.396-58.389 12.705 22.072 19.761 38.965 19.761 47.722 0 13.212-6.29 24.976-16.027 32.475zm21.963-1.991c5.45-8.359 8.723-18.254 9.024-28.885.006-.011.011-.022.016-.033 7.304-14.565 22.54-39.13 44.136-71.174 1.005.165 2.001.468 2.958.948.958.48 1.796 1.097 2.529 1.804-12.766 36.474-23.341 63.376-30.645 77.939-4.554 9.081-9.331 17.652-14.23 25.557-3.003-.718-5.972-1.776-8.848-3.219-1.723-.864-3.368-1.853-4.94-2.937zm59.944-15.323c-5.923 11.81-16.821 19.506-28.887 21.844 3.552-6.108 7.022-12.521 10.37-19.197 5.817-11.599 13.276-29.771 22.246-54.169 1.462 25.429.197 43.694-3.729 51.522z"/></g></g></svg>