<svg id="Filled" height="512" viewBox="0 0 512 512" width="512" xmlns="http://www.w3.org/2000/svg"><path d="m408 296a33.944 33.944 0 0 1 -48 0l-2.34-2.34-11.32-11.32-18.34-18.34v112l32 72a15.979 15.979 0 0 1 16 16v8a16 16 0 0 1 -16 16h-64l-40-88-40 88h-64a16 16 0 0 1 -16-16v-8a16 16 0 0 1 16-16l32-72v-112l-18.34 18.34-11.32 11.32-2.34 2.34a33.941 33.941 0 0 1 -48-48l2.34-2.34 11.32-11.32 30.06-30.06a96.558 96.558 0 0 1 68.28-28.28 66.7 66.7 0 0 1 -30.01-28.98c-6.67-12.42-9.99-27.18-9.99-43.02a80 80 0 0 1 160 0c0 31.67-13.3 59.04-40 72a96.583 96.583 0 0 1 68.28 28.28l30.06 30.06 11.32 11.32 2.34 2.34a33.95 33.95 0 0 1 0 48z" fill="#ad6643"/><circle cx="224" cy="96" fill="#ad6643" r="8"/><circle cx="288" cy="96" fill="#ad6643" r="8"/><g fill="#f7cca9"><circle cx="256" cy="240" r="16"/><circle cx="256" cy="304" r="16"/><circle cx="288" cy="96" r="16"/><circle cx="224" cy="96" r="16"/></g><path d="m369.941 198.627a103.849 103.849 0 0 0 -51.741-28.279c16.61-15.629 25.8-38.796 25.8-66.348a88 88 0 0 0 -176 0c0 27.552 9.19 50.719 25.8 66.348a103.846 103.846 0 0 0 -51.74 28.279l-43.717 43.716a41.941 41.941 0 0 0 59.314 59.314l8-8 10.343-10.344v90.987l-29.479 66.328a24.041 24.041 0 0 0 -18.521 23.372v8a24.028 24.028 0 0 0 24 24h64a8 8 0 0 0 7.283-4.689l32.717-71.978 32.717 71.978a8 8 0 0 0 7.283 4.689h64a24.028 24.028 0 0 0 24-24v-8a24.041 24.041 0 0 0 -18.521-23.369l-29.479-66.331v-90.99l10.339 10.34 8 8a41.941 41.941 0 0 0 59.314-59.314zm-223.6 91.716a25.941 25.941 0 1 1 -36.686-36.686l2.345-2.343 36.686 36.686zm64.508 189.657h-58.849a8.009 8.009 0 0 1 -8-8v-8a8.009 8.009 0 0 1 8-8h69.758zm157.151-16v8a8.009 8.009 0 0 1 -8 8h-58.849l-10.909-24h69.758a8.009 8.009 0 0 1 8 8zm-16-187.314-18.343-18.343a8 8 0 0 0 -13.657 5.657v112a8.007 8.007 0 0 0 .689 3.249l27 60.751h-64.72l-19.686-43.311a8 8 0 0 0 -14.566 0l-19.686 43.311h-64.721l27-60.751a8.007 8.007 0 0 0 .69-3.249v-112a8 8 0 0 0 -13.657-5.657l-18.343 18.343-36.686-36.686 30.059-30.059a87.988 87.988 0 0 1 62.627-25.941 8 8 0 0 0 3.493-15.2c-22.556-10.946-35.493-34.566-35.493-64.8a72 72 0 0 1 144 0c0 30.234-12.937 53.854-35.493 64.8a8 8 0 0 0 3.493 15.2 87.989 87.989 0 0 1 62.627 25.941l30.059 30.059zm50.343 13.657a25.969 25.969 0 0 1 -36.686 0l-2.343-2.343 36.686-36.686 2.343 2.343a25.941 25.941 0 0 1 0 36.686z"/><path d="m248 96a24 24 0 1 0 -24 24 24.027 24.027 0 0 0 24-24zm-32 0a8 8 0 1 1 8 8 8.009 8.009 0 0 1 -8-8z"/><path d="m288 120a24 24 0 1 0 -24-24 24.028 24.028 0 0 0 24 24zm0-32a8 8 0 1 1 -8 8 8.009 8.009 0 0 1 8-8z"/><path d="m246.169 138.906a8 8 0 0 0 -12.381 10.134c.84 1.037 8.567 10.145 20.757 10.778.452.024.9.036 1.35.036 7.676 0 14.992-3.426 21.762-10.2a8 8 0 0 0 -11.314-11.314c-3.793 3.792-7.443 5.661-10.874 5.5-5.163-.211-9.131-4.74-9.3-4.934z"/><path d="m256 216a24 24 0 1 0 24 24 24.027 24.027 0 0 0 -24-24zm0 32a8 8 0 1 1 8-8 8.009 8.009 0 0 1 -8 8z"/><path d="m256 280a24 24 0 1 0 24 24 24.027 24.027 0 0 0 -24-24zm0 32a8 8 0 1 1 8-8 8.009 8.009 0 0 1 -8 8z"/><path d="m296 352h-80a8 8 0 0 0 0 16h80a8 8 0 0 0 0-16z"/></svg>