<svg id="Capa_1" enable-background="new 0 0 512.008 512.008" height="512" viewBox="0 0 512.008 512.008" width="512" xmlns="http://www.w3.org/2000/svg"><g><g><g id="XMLID_249_"><g><path d="m364.374 450.683c8.64 16.94 1.58 37.67-15.6 45.81-4.59 2.17-9.52 3.24-14.44 3.24-6.45 0-12.88-1.85-18.46-5.5l-8.72-5.71c-6.18-4.05-14.33-3.33-19.71 1.74l-3.28 3.09c-15.81 14.9-40.51 14.9-56.32 0l-3.28-3.09c-5.38-5.07-13.53-5.79-19.71-1.74l-8.72 5.71c-9.82 6.43-22.29 7.28-32.9 2.26-12.2-5.78-19.29-17.9-19.29-30.51 0-5.15 1.18-10.39 3.69-15.3l27.94-54.77c2.56-5.01 2.38-10.98-.48-15.83l-2-3.4c-37.45-63.59-36.1-142.8 3.5-205.08l46.99-73.92v-78.28h65.85l-1.01 78.28 46.99 73.92c39.6 62.28 40.95 141.49 3.5 205.08l-2 3.4c-2.86 4.85-3.04 10.82-.48 15.83z" fill="#f3fbff"/></g></g><path d="m367.189 458.366c-2.79 2.728-6.108 5.061-9.9 6.804-4.781 2.193-9.916 3.275-15.04 3.275-6.718 0-13.416-1.87-19.227-5.559l-9.083-5.771c-6.437-4.094-14.926-3.366-20.529 1.759l-3.416 3.123c-16.467 15.059-42.194 15.059-58.662 0l-3.417-3.123c-5.604-5.124-14.093-5.852-20.529-1.759l-9.083 5.771c-.034.022-.068.043-.102.065-3.549 2.237-7.786-1.704-5.902-5.452 8.453-16.82 24.777-48.956 24.777-48.956 2.56-5.01 2.38-10.98-.48-15.83l-2-3.4c-37.45-63.59-36.1-142.8 3.5-205.08l39.558-62.229c4.854-7.636 7.432-16.496 7.432-25.544v-12.719c0-10.321 8.367-18.688 18.688-18.688h5.071l.426-33.02.163-12.63h-65.85v45.65 32.63l-46.99 73.92c-39.6 62.28-40.95 141.49-3.5 205.08l2 3.4c2.86 4.85 3.04 10.82.48 15.83l-27.94 54.77c-2.51 4.91-3.69 10.15-3.69 15.3 0 12.61 7.09 24.73 19.29 30.51 8.805 4.166 18.885 4.276 27.675.523 1.802-.77 3.554-1.689 5.225-2.783l8.72-5.71c6.18-4.05 14.33-3.33 19.71 1.74l3.28 3.09c15.81 14.9 40.51 14.9 56.32 0l3.28-3.09c5.38-5.07 13.53-5.79 19.71-1.74l8.72 5.71c5.58 3.65 12.01 5.5 18.46 5.5 4.92 0 9.85-1.07 14.44-3.24 14.644-6.939 21.933-23.038 18.415-38.127z" fill="#e3f6fc"/><g><path d="m288.422 45.052h-64.835c-6.818 0-12.345-5.527-12.345-12.345v-12.863c0-6.818 5.527-12.345 12.345-12.345h64.835c6.818 0 12.345 5.527 12.345 12.345v12.863c-.001 6.819-5.528 12.345-12.345 12.345z" fill="#fcf6ed"/><path d="m238.943 33.843c-6.818 0-12.344-5.527-12.344-12.344v-12.864c0-.383.023-.761.057-1.135h-3.069c-6.818 0-12.344 5.527-12.344 12.344v12.864c0 6.818 5.527 12.344 12.344 12.344h64.835c6.434 0 11.713-4.924 12.287-11.209z" fill="#fcf1de"/><g id="XMLID_250_"><g><path d="m335.414 171.603c35.66 56.08 40.3 125.89 13.53 185.66-61.8 7.79-123.76 7.74-185.88 0-26.77-59.77-22.13-129.58 13.53-185.66 53.16-8.88 106.1-8.96 158.82 0z" fill="#cfeffc"/></g></g></g><path d="m229.891 165.677c-17.741.991-35.507 2.954-53.297 5.926-35.66 56.08-40.3 125.89-13.53 185.66 12.602 1.57 25.197 2.807 37.786 3.743-22.52-57.716-16.659-123.449 17.246-176.773z" fill="#a9e4f9"/></g><path d="m371.058 447.279-27.943-54.77c-1.399-2.744-1.303-5.966.26-8.618l2.006-3.406c19.075-32.392 28.818-69.38 28.178-106.965-.642-37.585-11.641-74.219-31.81-105.94l-16.308-25.65c-2.223-3.497-6.86-4.527-10.353-2.306-3.496 2.223-4.528 6.857-2.306 10.353l7.491 11.783c-42.445-5.702-85.547-5.703-128.553.023l38.195-60.075c.765-1.203 1.171-2.599 1.171-4.024v-45.131h49.835v45.131c0 1.426.406 2.821 1.171 4.023l13.511 21.251c1.429 2.248 3.855 3.478 6.336 3.478 1.377 0 2.77-.379 4.017-1.172 3.496-2.223 4.528-6.857 2.306-10.353l-12.34-19.41v-44.431c7.232-2.966 12.344-10.074 12.344-18.362v-12.863c0-10.943-8.903-19.845-19.844-19.845h-64.835c-10.942 0-19.845 8.902-19.845 19.845v12.863c0 8.288 5.112 15.397 12.345 18.362v44.431l-45.827 72.078c-18.395 28.933-29.262 62.314-31.426 96.536-.262 4.134 2.877 7.697 7.012 7.959.161.01.321.015.48.015 3.926 0 7.227-3.054 7.478-7.026 1.935-30.592 11.396-60.447 27.366-86.585 50.078-8.006 100.389-8.011 149.658-.01 17.564 28.729 27.157 61.598 27.732 95.309.45 26.369-4.629 52.417-14.79 76.543-12.146 1.457-24.619 2.648-37.18 3.514-4.133.285-7.252 3.866-6.967 7.998.273 3.957 3.567 6.984 7.475 6.984.173 0 .349-.006.523-.018 9.593-.662 19.133-1.516 28.527-2.523-1.19 2.219-2.412 4.424-3.693 6.6l-2.006 3.406c-4.178 7.095-4.438 15.709-.696 23.045l27.944 54.771c3.249 6.369 3.77 13.604 1.464 20.373-2.306 6.768-7.134 12.181-13.596 15.241-8.194 3.885-17.997 3.21-25.586-1.757l-8.717-5.706c-9.122-5.97-21.031-4.917-28.963 2.558l-3.275 3.087c-12.907 12.165-33.13 12.164-46.04-.001l-3.274-3.085c-7.933-7.477-19.843-8.528-28.964-2.559l-8.716 5.706c-7.588 4.965-17.392 5.638-25.586 1.757-6.461-3.061-11.29-8.474-13.595-15.241-2.306-6.769-1.786-14.004 1.463-20.373l27.945-54.771c3.742-7.335 3.481-15.95-.697-23.044l-2.006-3.406c-1.285-2.181-2.507-4.387-3.698-6.605 26.783 2.848 53.745 4.293 80.514 4.293 6.333 0 12.658-.08 18.964-.24 4.141-.106 7.412-3.548 7.306-7.689-.104-4.075-3.439-7.309-7.493-7.309-.064 0-.13.001-.195.002-35.366.906-71.259-.787-106.744-5.005-7.309-17.31-11.953-35.56-13.847-54.515-.412-4.121-4.085-7.137-8.208-6.718-4.122.412-7.129 4.087-6.717 8.208 2.954 29.576 12.104 57.565 27.193 83.189l2.006 3.406c1.562 2.652 1.659 5.874.26 8.617l-27.945 54.771c-5.108 10.013-5.925 21.387-2.301 32.026s11.215 19.149 21.374 23.961c12.883 6.103 28.295 5.045 40.222-2.763l8.716-5.706c3.294-2.155 7.595-1.776 10.461.925l3.275 3.085c9.339 8.801 21.321 13.201 33.307 13.2 11.982-.001 23.969-4.4 33.306-13.199l3.276-3.087c2.865-2.7 7.165-3.08 10.461-.924l8.717 5.706c11.927 7.807 27.34 8.864 40.223 2.763 10.158-4.812 17.748-13.321 21.372-23.961 3.625-10.642 2.807-22.015-2.301-32.028zm-152.316-427.434c0-2.672 2.173-4.845 4.845-4.845h64.835c2.671 0 4.844 2.173 4.844 4.845v12.863c0 2.672-2.173 4.845-4.844 4.845h-64.835c-2.671 0-4.845-2.173-4.845-4.845z"/></g></svg>