<svg id="Filled" height="512" viewBox="0 0 512 512" width="512" xmlns="http://www.w3.org/2000/svg"><path d="m208 24h96v40h-96z" fill="#67c3de"/><circle cx="256" cy="176" fill="#e9eef2" r="128"/><path d="m360 480h-208l16-208h176z" fill="#67c3de"/><path d="m144 456h224v32h-224z" fill="#6ed0ee"/><path d="m216 336h80v72h-80z" fill="#d8dadc"/><path d="m224 408h64v48h-64z" fill="#57a4bb"/><circle cx="256" cy="336" fill="#e9eef2" r="40"/><path d="m192 256a16 16 0 0 1 -16 16 15.772 15.772 0 0 1 -5.93-1.14.01.01 0 0 1 -.01-.01 124.826 124.826 0 0 1 -8.91-8.91.01.01 0 0 1 -.01-.01 15.772 15.772 0 0 1 -1.14-5.93 16 16 0 0 1 32 0z" fill="#ffd33a"/><circle cx="240" cy="256" fill="#fb82b1" r="16"/><circle cx="272" cy="256" fill="#ffd33a" r="16"/><circle cx="304" cy="256" fill="#eb423f" r="16"/><path d="m352 256a15.636 15.636 0 0 1 -1.15 5.94 124.826 124.826 0 0 1 -8.91 8.91 15.636 15.636 0 0 1 -5.94 1.15 16 16 0 1 1 16-16z" fill="#fb82b1"/><circle cx="208" cy="256" fill="#eb423f" r="16"/><circle cx="216" cy="200" fill="#ffd33a" r="16"/><circle cx="280" cy="208" fill="#67c5e0" r="16"/><circle cx="200" cy="120" fill="#67c5e0" r="16"/><circle cx="160" cy="176" fill="#eb423f" r="16"/><circle cx="256" cy="144" fill="#fb82b1" r="16"/><circle cx="280" cy="104" fill="#eb423f" r="16"/><circle cx="320" cy="152" fill="#fb82b1" r="16"/><circle cx="352" cy="208" fill="#ffd33a" r="16"/><circle cx="192" cy="232" fill="#fb82b1" r="16"/><path d="m312 52.071v-28.071a8 8 0 0 0 -8-8h-96a8 8 0 0 0 -8 8v28.071a135.98 135.98 0 0 0 -40.045 220.2l-13.517 175.729h-2.438a8 8 0 0 0 -8 8v32a8 8 0 0 0 8 8h224a8 8 0 0 0 8-8v-32a8 8 0 0 0 -8-8h-2.438l-13.517-175.727a135.98 135.98 0 0 0 -40.045-220.202zm-96-20.071h80v14.006a136.2 136.2 0 0 0 -80 0zm144 432v16h-208v-16zm-184.592-184h161.184l12.923 168h-53.515v-32a8 8 0 0 0 8-8v-72a48 48 0 0 0 -96 0v72a8 8 0 0 0 8 8v32h-53.515zm-7.408-24a8.011 8.011 0 0 1 6.3-7.813 24.083 24.083 0 0 0 9.574 6.393 7.99 7.99 0 0 1 -7.874 9.42h-1.58q-3.22-2.986-6.189-6.185a8.036 8.036 0 0 1 -.231-1.815zm41.7-7.813a8 8 0 1 1 -9.7 7.813c0-.455-.039-.9-.064-1.354a24.082 24.082 0 0 0 9.764-6.459zm-1.7-48.187a8 8 0 1 1 8 8 8.009 8.009 0 0 1 -8-8zm-16 40a8 8 0 1 1 8-8 8.009 8.009 0 0 1 -8 8zm40 16a8 8 0 1 1 8 8 8.009 8.009 0 0 1 -8-8zm32 0a8 8 0 1 1 8 8 8.009 8.009 0 0 1 -8-8zm32 0a8 8 0 1 1 8 8 8.009 8.009 0 0 1 -8-8zm32 0a8 8 0 1 1 15.792 1.79q-2.983 3.21-6.212 6.21h-1.58a8.009 8.009 0 0 1 -8-8zm-104 144v-28.261a47.889 47.889 0 0 0 64 0v28.261zm56 16v32h-48v-32zm-56-80a31.8 31.8 0 0 1 4.444-16.242l43.8 43.8a31.979 31.979 0 0 1 -48.244-27.558zm59.556 16.242-43.8-43.8a31.979 31.979 0 0 1 43.8 43.8zm68.444-168.242a24 24 0 1 0 11.657 44.969 120.293 120.293 0 0 1 -7.805 13.56 23.964 23.964 0 0 0 -35.852-4.4 23.943 23.943 0 0 0 -32 0 23.943 23.943 0 0 0 -32 0 23.943 23.943 0 0 0 -32 0 24.017 24.017 0 0 0 -8.041-4.769c.025-.451.041-.905.041-1.362a23.877 23.877 0 0 0 -1.391-8.043c.461.026.924.043 1.391.043a24.011 24.011 0 1 0 -22.609-15.957c-.461-.026-.924-.043-1.391-.043a24.027 24.027 0 0 0 -24 24c0 .457.016.911.041 1.362a24.119 24.119 0 0 0 -11.893 9.167 120 120 0 1 1 217.77-44.289 24.029 24.029 0 0 0 -21.918-14.238zm8 24a8 8 0 1 1 -8-8 8.009 8.009 0 0 1 8 8z"/><path d="m280 184a24 24 0 1 0 24 24 24.027 24.027 0 0 0 -24-24zm0 32a8 8 0 1 1 8-8 8.009 8.009 0 0 1 -8 8z"/><path d="m200 96a24 24 0 1 0 24 24 24.027 24.027 0 0 0 -24-24zm0 32a8 8 0 1 1 8-8 8.009 8.009 0 0 1 -8 8z"/><path d="m160 200a24 24 0 1 0 -24-24 24.027 24.027 0 0 0 24 24zm0-32a8 8 0 1 1 -8 8 8.009 8.009 0 0 1 8-8z"/><path d="m280 144a23.928 23.928 0 0 0 -7.179-17.1 24.069 24.069 0 1 0 -9.642-5.8 24 24 0 1 0 16.821 22.9zm0-48a8 8 0 1 1 -8 8 8.009 8.009 0 0 1 8-8zm-32 48a8 8 0 1 1 8 8 8.009 8.009 0 0 1 -8-8z"/><path d="m320 128a24 24 0 1 0 24 24 24.027 24.027 0 0 0 -24-24zm0 32a8 8 0 1 1 8-8 8.009 8.009 0 0 1 -8 8z"/></svg>