<svg id="Filled" height="512" viewBox="0 0 512 512" width="512" xmlns="http://www.w3.org/2000/svg"><path d="m352 192v64a32 32 0 0 1 -32 32h-16c-17.673 0-16 14.327-16 32v48h-64v-48a32 32 0 0 0 -32-32 32 32 0 0 1 -32-32v-64z" fill="#f2c837"/><path d="m368 24-56 40-56-40-56 40-56-40-56 40v56l56 40v56l56 40 56-40 56 40 56-40v-56l56-40v-56z" fill="#ffd33a"/><path d="m200 120-56 40-56-40v-56l56-40 56 40z" fill="#f2c837"/><path d="m256 216-56 40-56-40v-56l56-40 56 40z" fill="#ffd33a"/><path d="m368 216-56 40-56-40v-56l56-40 56 40z" fill="#ffd33a"/><path d="m424 120-56 40-56-40v-56l56-40 56 40z" fill="#f2c837"/><path d="m312 424h-128a16 16 0 0 1 -16-16 16 16 0 0 1 16-16h128a32 32 0 0 1 32 32 32 32 0 0 1 -32 32h16a16 16 0 0 1 16 16 16 16 0 0 1 -16 16h-128a32 32 0 0 1 -32-32 32 32 0 0 1 32-32" fill="#ffd33a"/><path d="m312 432h-112a8 8 0 0 1 0-16h112a8 8 0 0 1 0 16z" fill="#f2c837"/><path d="m312 464h-112a8 8 0 0 1 0-16h112a8 8 0 0 1 0 16z" fill="#f2c837"/><rect fill="#ffd33a" height="32" rx="16" width="128" x="192" y="360"/><path d="m304 400h-96a8 8 0 0 1 0-16h96a8 8 0 0 1 0 16z" fill="#f2c837"/><path d="m80 64v56a8 8 0 0 0 3.351 6.51l52.649 37.606v51.884a8 8 0 0 0 3.351 6.51l12.649 9.035v24.455a40.045 40.045 0 0 0 40 40 24.027 24.027 0 0 1 24 24v32h-8a23.992 23.992 0 0 0 -22.624 32h-1.376a23.995 23.995 0 0 0 -12.815 44.284 39.98 39.98 0 0 0 28.815 67.716h128a23.995 23.995 0 0 0 12.815-44.284 39.975 39.975 0 0 0 -15.185-65.322 24 24 0 0 0 -21.63-34.394h-8s-.011-34.889-.022-36.293c-.058-7.458-.124-15.91 2.25-18.3 1.151-1.16 3.774-1.4 5.772-1.4h16a40.045 40.045 0 0 0 40-40v-24.462l12.649-9.035a8 8 0 0 0 3.351-6.51v-51.884l52.649-37.606a8 8 0 0 0 3.351-6.51v-56a8 8 0 0 0 -3.351-6.51l-56-40a8 8 0 0 0 -9.3 0l-51.349 36.679-51.351-36.679a8 8 0 0 0 -9.3 0l-51.349 36.679-51.351-36.679a8 8 0 0 0 -9.3 0l-56 40a8 8 0 0 0 -3.349 6.51zm256 360a24.028 24.028 0 0 1 -24 24h-112a8 8 0 0 0 0 16h128a8 8 0 0 1 0 16h-128a24 24 0 0 1 0-48h112a8 8 0 0 0 0-16h-128a8 8 0 0 1 0-16h128a24.028 24.028 0 0 1 24 24zm-32-56a8 8 0 0 1 0 16h-96a8 8 0 0 1 0-16zm40-112a24.028 24.028 0 0 1 -24 24h-16c-7.327 0-13.091 2.064-17.13 6.135-7.067 7.123-6.982 18.088-6.891 29.7.01 1.365.021 36.165.021 36.165h-16v-56a8 8 0 0 0 -16 0v56h-16v-32a40.045 40.045 0 0 0 -40-40 24.028 24.028 0 0 1 -24-24v-13.026l27.351 19.536a8 8 0 0 0 9.3 0l51.349-36.679 51.351 36.679a8 8 0 0 0 9.3 0l27.349-19.536zm-24-187.883 48-34.286 48 34.286v47.766l-48 34.286-48-34.286zm40 96v47.766l-48 34.286-48-34.286v-47.766l48-34.286zm-152-96 48-34.286 48 34.286v47.766l-48 34.286-48-34.286zm40 96v47.766l-48 34.286-48-34.286v-47.766l48-34.286zm-152-96 48-34.286 48 34.286v47.766l-48 34.286-48-34.286z"/><path d="m312.008 224a7.967 7.967 0 0 0 4.43-1.345l24-16a8 8 0 0 0 3.562-6.655v-24a8 8 0 0 0 -16 0v19.719l-20.438 13.625a8 8 0 0 0 4.446 14.656z"/><path d="m200.008 224a7.967 7.967 0 0 0 4.43-1.345l24-16a8 8 0 0 0 3.562-6.655v-24a8 8 0 0 0 -16 0v19.719l-20.438 13.625a8 8 0 0 0 4.446 14.656z"/><path d="m260.438 126.656 24-16a8 8 0 0 0 3.562-6.656v-24a8 8 0 0 0 -16 0v19.719l-20.438 13.625a8 8 0 1 0 8.876 13.312z"/><path d="m372.438 126.656 24-16a8 8 0 0 0 3.562-6.656v-24a8 8 0 0 0 -16 0v19.719l-20.438 13.625a8 8 0 1 0 8.876 13.312z"/><path d="m148.438 126.656 24-16a8 8 0 0 0 3.562-6.656v-24a8 8 0 0 0 -16 0v19.719l-20.438 13.625a8 8 0 1 0 8.876 13.312z"/></svg>