<svg id="Capa_1" enable-background="new 0 0 512.776 512.776" height="512" viewBox="0 0 512.776 512.776" width="512" xmlns="http://www.w3.org/2000/svg"><g><g><path d="m338.039 67.302v-25.601c0-18.889-15.312-34.201-34.201-34.201-18.889 0-34.201 15.312-34.201 34.201v25.601 16.57l68.402 4.054z" fill="#fcf6ed"/><g><g><path d="m385.638 200.551v210.32c0 22.98-9.13 45.02-25.38 61.27l-22.62 21.36h-169.28l-15.84-21.36c-16.25-16.25-25.38-38.29-25.38-61.27v-210.32c0-22.98 9.13-45.02 25.38-61.27l6.43-6.43v-54.14s194.88-2.25 194.88 0 0 54.14 0 54.14l6.43 6.43c16.25 16.25 25.38 38.29 25.38 61.27z" fill="#fcf6ed"/></g><path d="m296.159 52.303c-4.286 0-7.76-3.474-7.76-7.76v-1.796c0-16.294 11.392-29.929 26.647-33.367-3.514-1.219-7.278-1.879-11.207-1.879-18.889 0-34.201 15.312-34.201 34.201v25.601 16.57l68.402 4.054v-.067-20.558-15h-41.881z" fill="#fcf1de"/><path d="m201.257 149.497c4.118-4.118 6.432-9.703 6.432-15.527v-.344c0-7.282 5.903-13.185 13.185-13.185h132.954v-26.362h-194.88v38.772l-6.43 6.43c-16.251 16.25-25.38 38.29-25.38 61.272v210.318c0 22.98 9.13 45.02 25.38 61.27l15.84 21.36h41.166l-8.265-11.145c-16.25-16.25-25.38-38.29-25.38-61.27v-210.32c0-22.98 9.129-45.019 25.378-61.269z" fill="#fcf1de"/><path d="m361.26 100.442h-208.743c-4.711 0-8.529-3.819-8.529-8.529v-16.081c0-4.711 3.819-8.529 8.529-8.529h208.743c4.711 0 8.529 3.819 8.529 8.529v16.081c0 4.71-3.819 8.529-8.529 8.529z" fill="#fcf6ed"/><g id="XMLID_252_"><g><path d="m385.638 281.221v129.65c0 22.98-9.13 45.02-25.38 61.27l-22.62 21.36h-169.28l-15.84-21.36c-16.25-16.25-25.38-38.29-25.38-61.27v-147.89c32.48-25.62 76.75-30.39 113.95-12.28l55.91 27.22c24.01 11.69 51.52 14.05 77.17 6.62z" fill="#fcf0b6"/><path d="m385.638 200.551v80.67l-11.47 3.32c-25.65 7.43-53.16 5.07-77.17-6.62l-55.91-27.22c-37.2-18.11-81.47-13.34-113.95 12.28v-62.43c0-7.26.91-14.42 2.67-21.34h253.16c1.76 6.92 2.67 14.08 2.67 21.34z" fill="#f3fbff"/></g></g></g><path d="m361.26 452.137h-154.233c-17.039 0-31.084-13.69-31.147-30.729 0-.107-.001-.214-.001-.322v-179.736c-17.474 2.96-34.277 10.223-48.741 21.631v147.89c0 22.98 9.13 45.02 25.38 61.27l15.84 21.36h18.321 22.845 128.114l22.62-21.36c5.194-5.194 9.667-10.99 13.34-17.209-3.732-1.795-7.927-2.795-12.338-2.795z" fill="#fbe88c"/><path d="m361.26 505.277h-208.743c-4.711 0-8.529-3.819-8.529-8.529v-16.081c0-4.711 3.819-8.529 8.529-8.529h208.743c4.711 0 8.529 3.819 8.529 8.529v16.081c0 4.71-3.819 8.529-8.529 8.529z" fill="#fcf6ed"/><path d="m127.138 200.551v62.43c14.464-11.409 31.267-18.671 48.741-21.631v-30.584c0-10.906 2.079-21.591 5.977-31.555h-52.048c-1.76 6.92-2.67 14.08-2.67 21.34z" fill="#e3f6fc"/></g><g><path d="m393.139 200.554c0-25.148-9.793-48.791-27.576-66.574l-4.237-4.236v-21.805c8.808-.036 15.964-7.209 15.964-16.026v-16.08c0-8.839-7.191-16.029-16.03-16.029h-15.721v-18.103c0-22.994-18.707-41.701-41.7-41.701-22.994 0-41.701 18.707-41.701 41.701v18.102h-60.491c-4.143 0-7.5 3.357-7.5 7.5s3.357 7.5 7.5 7.5h159.613c.568 0 1.03.462 1.03 1.029v16.08c0 .567-.462 1.029-1.03 1.029h-208.743c-.568 0-1.03-.462-1.03-1.029v-16.08c0-.567.462-1.029 1.03-1.029h17.167c4.143 0 7.5-3.357 7.5-7.5s-3.357-7.5-7.5-7.5h-17.167c-8.839 0-16.03 7.19-16.03 16.029v16.08c0 8.479 6.623 15.422 14.964 15.975v21.855l-4.238 4.237c-17.782 17.783-27.575 41.426-27.575 66.575v161.604c0 4.143 3.357 7.5 7.5 7.5s7.5-3.357 7.5-7.5v-95.463c14.229-10.422 30.925-16.903 48.51-18.797 18.78-2.026 37.676 1.276 54.653 9.542l55.91 27.219c2.783 1.355 5.711 2.633 8.702 3.795.893.348 1.812.512 2.715.512 3.004 0 5.839-1.817 6.992-4.785 1.501-3.86-.413-8.207-4.273-9.707-2.608-1.014-5.153-2.124-7.567-3.3l-55.912-27.22c-19.519-9.503-41.244-13.294-62.826-10.97-16.673 1.796-32.639 7.201-46.903 15.758v-48.188c0-4.691.428-9.313 1.222-13.84h241.058c.794 4.526 1.222 9.148 1.222 13.839v75.03l-6.052 1.752c-11.224 3.25-22.827 4.506-34.503 3.739-4.129-.29-7.705 2.856-7.977 6.99-.272 4.133 2.856 7.704 6.99 7.977 2.55.169 5.097.252 7.639.252 10.833 0 21.573-1.523 32.022-4.55l1.88-.544v119.667c0 20.127-7.476 39.097-21.091 53.771h-201.321c-13.615-14.674-21.091-33.644-21.091-53.771v-16.744c0-4.143-3.357-7.5-7.5-7.5s-7.5 3.357-7.5 7.5v16.744c0 21.801 7.379 42.458 20.924 59.159-2.525 2.834-4.074 6.555-4.074 10.641v16.081c0 8.839 7.19 16.029 16.029 16.029h208.744c8.839 0 16.029-7.19 16.029-16.029v-16.081c0-4.367-1.76-8.328-4.603-11.222 13.245-16.598 20.452-37.03 20.452-58.578v-210.312zm-116.002-158.853c0-14.723 11.979-26.701 26.701-26.701s26.7 11.979 26.7 26.701v18.102h-53.401zm85.153 455.046c0 .567-.462 1.029-1.029 1.029h-208.745c-.567 0-1.029-.462-1.029-1.029v-16.081c0-.567.462-1.029 1.029-1.029h208.744c.567 0 1.029.462 1.029 1.029v16.081zm-222.233-325.032c3.926-10.046 9.906-19.272 17.762-27.128l6.435-6.434c1.407-1.406 2.197-3.314 2.197-5.304v-24.908h179.875v24.908c0 1.989.79 3.897 2.197 5.304l6.434 6.434c7.856 7.856 13.836 17.082 17.763 27.128z"/><path d="m308.225 33.758h-6.192c-4.143 0-7.5 3.357-7.5 7.5s3.357 7.5 7.5 7.5h6.192c4.143 0 7.5-3.357 7.5-7.5s-3.357-7.5-7.5-7.5z"/></g></g></svg>