<svg id="Capa_1" enable-background="new 0 0 511.043 511.043" height="512" viewBox="0 0 511.043 511.043" width="512" xmlns="http://www.w3.org/2000/svg"><g><g><path d="m306.572 169.979c-1.675-45.46-25.215-87.318-63.212-112.346l-.212-.139c-9.784-6.434-22.569-5.928-31.812 1.271-18.376 14.328-32.627 32.751-41.894 53.429-8.707 19.428-13.019 40.837-12.209 62.7l7.144 72.086 41.339 46.426s100.552-21.465 100.76-23.52c.208-2.054.096-99.907.096-99.907z" fill="#fcf1de"/><g><path d="m487.38 300.851c21.29-40.202 21.845-88.221 1.464-128.9l-.114-.226c-5.254-10.466-16.577-16.423-28.182-14.812-23.079 3.214-44.634 12.038-63.003 25.307-17.258 12.467-31.701 28.848-41.936 48.184l-29.873 65.992 12.571 60.878s97.804 31.712 99.013 30.038c1.208-1.675 50.06-86.461 50.06-86.461z" fill="#fcf1de"/><path d="m437.32 387.311c1.208-1.675 50.06-86.461 50.06-86.461 2.281-4.308 4.31-8.71 6.115-13.178-24.141-9.864-50.984-9.642-74.758.345-6.048 2.54-12.919-1.078-14.212-7.509-1.945-9.674-5.353-18.976-10.141-27.667-2.52-4.574-1.997-10.255 1.298-14.307 7.802-9.593 16.798-18.075 26.735-25.253 18.368-13.27 39.923-22.093 63.003-25.307 3.562-.494 7.109-.267 10.45.576-1.972-5.638-4.315-11.187-7.027-16.601l-.114-.226c-5.254-10.466-16.577-16.423-28.182-14.812-23.079 3.214-44.634 12.038-63.003 25.307-17.258 12.467-31.701 28.848-41.936 48.184l-29.873 65.992 8.909 43.141 3.663 17.737s.055.018.139.045c1.053.341 8.716 2.822 19.36 6.229.092.03.18.058.273.087 28.641 9.166 78.381 24.87 79.241 23.678z" fill="#f6e2c4"/><path d="m397.44 318.324 12.338-8.43c25.424-17.371 58.38-19.222 85.589-4.807 3.491 1.85 4.822 6.179 2.972 9.67l-38.038 71.797c-23.504 44.365-78.523 61.275-122.887 37.771-44.365-23.504-61.275-78.523-37.771-122.887l38.038-71.797c1.85-3.491 6.179-4.822 9.67-2.972 27.209 14.415 44.188 42.722 44.095 73.513l-.045 14.943c-.009 3.108 3.472 4.953 6.039 3.199z" fill="#dfae91"/><g><path d="m368.006 424.464c-44.365-23.504-61.275-78.523-37.771-122.887l33.609-63.413c-4.945-4.427-10.472-8.306-16.493-11.496-3.491-1.85-7.82-.519-9.67 2.972l-38.038 71.797c-23.504 44.365-6.593 99.383 37.771 122.887 18.303 9.697 38.412 12.516 57.381 9.365-9.128-1.608-18.156-4.652-26.789-9.225z" fill="#d79c7a"/></g><path d="m306.476 269.887c.208-2.054.097-99.907.097-99.907-.179-4.871-.625-9.697-1.298-14.47-25.838 3.535-48.969 17.155-64.559 37.695-3.966 5.225-11.726 5.529-16.062.608-6.523-7.404-14.128-13.754-22.621-18.884-4.47-2.701-6.859-7.881-6.032-13.037 1.957-12.209 5.504-24.054 10.517-35.241 9.267-20.678 23.518-39.101 41.894-53.429 2.837-2.21 6.022-3.787 9.337-4.728-4.527-3.896-9.332-7.528-14.389-10.859l-.212-.139c-9.784-6.434-22.569-5.928-31.812 1.271-18.376 14.328-32.627 32.751-41.894 53.429-8.707 19.428-13.019 40.837-12.209 62.7l7.144 72.086 29.294 32.899 12.044 13.526s.057-.012.143-.031c1.083-.231 8.959-1.916 19.88-4.291.095-.02.185-.04.28-.061 29.385-6.392 80.31-17.676 80.458-19.137z" fill="#f6e2c4"/><path d="m237.435 230.1 6.466-13.472c13.324-27.759 40.935-45.848 71.706-46.977 3.948-.145 7.266 2.938 7.411 6.886l2.978 81.196c1.84 50.172-37.341 92.337-87.513 94.178-50.173 1.84-92.337-37.341-94.178-87.513l-2.978-81.196c-.145-3.948 2.938-7.266 6.886-7.411 30.771-1.129 59.633 14.889 74.955 41.597l7.436 12.962c1.548 2.697 5.486 2.553 6.831-.25z" fill="#dfae91"/><path d="m265.043 336.729c-10.114.371-19.902-.929-29.1-3.648-4.524-1.337-8.181-4.657-10-9.009-.821-1.966-1.707-3.918-2.662-5.855l-35.924-72.879c-2.043-4.143-5.226-7.43-9.071-9.568-4.914-2.732-8.192-7.674-8.397-13.293l-1.643-44.982c-6.472-1.355-13.172-1.949-19.956-1.707-3.974.142-7.108 3.44-6.962 7.413l2.978 81.196c1.841 50.173 44.005 89.354 94.177 87.513 20.699-.759 39.522-8.377 54.371-20.594-8.708 3.174-18.049 5.055-27.811 5.413z" fill="#d79c7a"/><path d="m156.213 252.712c-20.12-40.8-58.72-69.37-103.63-76.67l-.25-.04c-11.56-1.87-23.02 3.82-28.51 14.17-10.91 20.59-16.38 43.23-16.38 65.89 0 21.29 4.82 42.59 14.5 62.21l36 62.86 56.71 25.46s82.98-60.71 82.33-62.67-40.77-91.21-40.77-91.21z" fill="#fcf1de"/><path d="m196.983 343.922c-.65-1.96-40.77-91.21-40.77-91.21-2.156-4.372-4.536-8.594-7.102-12.674-22.133 13.792-37.671 35.681-43.498 60.801-1.482 6.39-8.439 9.841-14.409 7.123-8.981-4.089-18.517-6.773-28.365-7.982-5.184-.636-9.482-4.387-10.837-9.43-3.207-11.942-4.814-24.201-4.814-36.46 0-22.66 5.47-45.3 16.38-65.89 1.685-3.177 3.947-5.919 6.587-8.134-5.725-1.703-11.595-3.053-17.572-4.025l-.25-.04c-11.56-1.87-23.02 3.82-28.51 14.17-10.91 20.59-16.38 43.23-16.38 65.89 0 21.29 4.82 42.59 14.5 62.21l36 62.86 40.187 18.042 16.523 7.418s.047-.034.118-.086c.893-.654 7.392-5.412 16.386-12.046.078-.057.152-.112.231-.17 24.2-17.849 66.057-48.973 65.595-50.367z" fill="#f6e2c4"/><path d="m117.708 335.85.392-14.938c.807-30.781 18.606-58.58 46.224-72.194 3.544-1.747 7.832-.29 9.579 3.253l35.924 72.878c22.198 45.032 3.687 99.533-41.345 121.731-45.032 22.198-99.533 3.687-121.731-41.345l-35.924-72.878c-1.747-3.544-.29-7.832 3.253-9.579 27.618-13.614 60.507-10.801 85.412 7.306l12.087 8.787c2.514 1.829 6.048.087 6.129-3.021z" fill="#dfae91"/><g><path d="m186.509 421.864c-45.032 22.198-99.533 3.687-121.731-41.345l-31.721-64.378c-6.484 1.416-12.865 3.624-18.977 6.637-3.544 1.747-5 6.035-3.253 9.579l35.924 72.878c22.198 45.032 76.699 63.543 121.731 41.345 18.579-9.158 32.64-23.807 41.194-41.029-6.65 6.458-14.404 11.994-23.167 16.313z" fill="#d79c7a"/></g></g></g><path d="m500.282 297.05c-.519-.256-1.043-.493-1.565-.738 17.949-41.184 16.27-88.768-4.87-128.653-6.994-13.195-21.591-20.454-36.316-18.059l-.269.043c-12.367 2.011-24.479 5.605-36.001 10.686-3.79 1.671-5.508 6.098-3.837 9.888 1.671 3.791 6.102 5.511 9.888 3.837 10.358-4.566 21.245-7.798 32.335-9.602l.268-.043c8.383-1.358 16.698 2.766 20.679 10.275 19.129 36.09 20.536 79.195 4.055 116.385-26.335-7.397-54.843-2.527-77.504 13.949l-6.49 4.719-.211-8.021c-.733-27.998-14.222-53.565-36.114-69.949 9.009-16.361 21.503-30.841 36.43-42.115 3.305-2.496 3.961-7.199 1.464-10.505-2.497-3.305-7.198-3.962-10.505-1.464-16.378 12.371-30.119 28.216-40.11 46.115-.523-.27-1.041-.547-1.57-.808-5.508-2.716-11.912-1.63-16.238 2.228l-2.827-49.065c-.226-3.907-1.959-7.493-4.881-10.097-2.923-2.604-6.681-3.917-10.59-3.688-.588.034-1.175.079-1.761.124-4.871-44.81-30.03-85.333-68.389-109.465l-.214-.135c-12.639-7.951-28.915-6.961-40.502 2.464-35.018 28.491-55.118 71.659-54.642 116.579-.574.022-1.147.036-1.722.07-3.908.226-7.493 1.959-10.097 4.881s-3.914 6.684-3.688 10.591l1.369 23.763c-7.151-7.298-15.052-13.881-23.611-19.591-3.445-2.298-8.103-1.369-10.401 2.077-2.299 3.445-1.369 8.103 2.077 10.401 17.82 11.887 32.513 27.935 42.801 46.638-21.893 16.384-35.383 41.952-36.116 69.951l-.211 8.021-6.49-4.719c-22.661-16.476-51.167-21.346-77.503-13.948-16.482-37.187-15.076-80.294 4.054-116.386 3.98-7.509 12.293-11.633 20.701-10.271l.223.036c8.435 1.37 16.818 3.588 24.917 6.59 3.884 1.438 8.199-.542 9.639-4.426s-.541-8.199-4.426-9.639c-9.006-3.339-18.333-5.806-27.746-7.335l-.223-.035c-14.737-2.399-29.344 4.858-36.339 18.055-21.141 39.887-22.823 87.475-4.874 128.657-.52.244-1.042.481-1.56.736-3.512 1.729-6.139 4.724-7.397 8.431-1.259 3.706-.999 7.68.73 11.191l35.925 72.878c11.622 23.576 31.729 41.216 56.618 49.669 10.384 3.527 21.08 5.279 31.734 5.279 14.883-.001 29.683-3.419 43.423-10.191 36.035-17.764 56.39-54.783 54.794-92.56 3.568.391 7.159.592 10.759.592 1.902 0 3.808-.055 5.713-.165 14.729-.849 28.777-4.889 41.36-11.74 1.25 35.777 22.021 68.703 54.824 84.874 13.949 6.876 28.757 10.132 43.35 10.131 36.32 0 71.311-20.169 88.426-54.888l35.924-72.879c3.567-7.249.577-16.051-6.67-19.624zm-293.018 94.816c-7.165 21.095-22.115 38.138-42.099 47.987-19.984 9.851-42.607 11.327-63.701 4.165-21.095-7.165-38.137-22.116-47.986-42.1l-35.771-72.565c25.133-12.248 54.748-9.653 77.375 6.798l18.024 13.104c2.254 1.638 5.229 1.893 7.727.661s4.108-3.747 4.181-6.531l.584-22.276c.733-27.967 16.714-53.037 41.731-65.51l35.771 72.567c9.85 19.982 11.329 42.604 4.164 63.7zm34.936-45.666c-5.862.336-11.721.054-17.483-.827-1.648-8.088-4.345-16.096-8.162-23.84l-35.925-72.878c-3.571-7.245-12.375-10.232-19.622-6.665-.526.259-1.04.534-1.559.802-2.292-4.11-4.776-8.103-7.442-11.965l-2.526-43.866c27.917-1.488 54.179 12.45 68.604 36.42l11.491 19.094c1.361 2.263 3.805 3.633 6.425 3.633.144 0 .288-.004.433-.013 2.78-.16 5.244-1.849 6.396-4.384l9.221-20.287c2.991-6.582 6.922-12.702 11.682-18.189 2.714-3.129 2.377-7.866-.752-10.58-3.128-2.712-7.864-2.377-10.58.752-5.704 6.577-10.417 13.915-14.006 21.811l-3.32 7.305-4.138-6.875c-14.447-24.007-38.794-39.602-65.936-43.056-.682-40.67 17.417-79.818 49.103-105.6 6.594-5.363 15.854-5.927 23.045-1.403l.214.135c34.698 21.828 57.389 58.572 61.562 99.151-6.562 1.627-12.929 3.991-19.046 7.088-3.695 1.871-5.175 6.384-3.304 10.079 1.871 3.696 6.386 5.174 10.079 3.304 9.199-4.658 19.077-7.342 29.364-7.981l4.654 80.77c1.281 22.241-6.175 43.651-20.996 60.284-14.822 16.632-35.234 26.498-57.476 27.781zm215.369 36.718c-14.507 29.43-44.159 46.525-74.946 46.522-12.366-.001-24.922-2.761-36.742-8.588-30.756-15.16-49.058-47.697-46.261-81.66 3.991-3.27 7.757-6.87 11.256-10.796 17.486-19.625 26.283-44.885 24.771-71.127l-.222-3.846 8.293-16.826c25.021 12.474 40.999 37.543 41.732 65.51l.584 22.276c.072 2.784 1.683 5.299 4.181 6.531 2.5 1.231 5.475.978 7.727-.661l18.024-13.104c22.629-16.452 52.242-19.046 77.376-6.798z"/></g></svg>