<svg id="Filled" height="512" viewBox="0 0 512 512" width="512" xmlns="http://www.w3.org/2000/svg"><path d="m160 216h192l-96 272z" fill="#ab6643"/><path d="m352 216-52.1 147.62-8.28 23.47-13.48 38.19-8.54 24.19-13.6 38.53-13.6-38.54-8.53-24.18-15.08-42.72-8.08-22.88-13.67-38.74-8.08-22.88-28.96-82.06z" fill="#ab6643"/><path d="m384 208c0 19.25-22.2 34.6-56 40v56a16 16 0 0 1 -32 0v-56c-12.58.81-26.03 0-40 0-70.69 0-128-9.07-128-40 0-13.48 9-24 32-24-8.33-15.65-16-29.04-16-48a112 112 0 0 1 224 0c0 18.96-7.67 32.35-16 48 25 0 32 10.52 32 24z" fill="#fda2c6"/><path d="m384 208c0 19.25-22.2 34.6-56 40v56a16 16 0 0 1 -32 0v-56c-12.58.81-26.03 0-40 0-70.69 0-128-9.07-128-40 0-13.48 9-24 32-24-8.33-15.65-16-29.04-16-48a112 112 0 0 1 224 0c0 18.96-7.67 32.35-16 48 25 0 32 10.52 32 24z" fill="#fda2c6"/><path d="m120 208c0 18.257 14.3 31.4 42.481 39.067l85.975 243.595a8 8 0 0 0 15.088 0l58.131-164.706a24.029 24.029 0 0 0 14.325-21.956v-18.63l11.9-33.715c27.622-8.413 44.1-24.316 44.1-43.655 0-12.494-5.083-27.043-27.277-30.977 6.232-12.241 11.277-24.74 11.277-41.023a120 120 0 0 0 -240 0c0 16.327 5.073 28.851 11.329 41.124-25.138 4.887-27.329 24.333-27.329 30.876zm60.847 43.029q9.549 1.61 20.672 2.691l1.49 4.283-10.8 25.209zm19.22 54.457 10.741-25.062 14.7 42.265-10.291 25.726zm68.48 20.09-12.547 36.072-13.416-38.569 12.916-32.292zm-4.226-56.838 5.026-12.565c.163 0 12.748.253 18.653.147v13.328l-11.23 32.287zm-29.751 31.3-14.411-41.438 1.464-3.415q9.865.506 20.789.695l4.751 12.668zm-11.432 70.819.29.116 10.095-25.24 14.007 40.267-9.454 27.179zm32.862 93.106-9.392-26.61 9.392-27 9.392 27zm17.924-50.784-9.454-27.179 12.866-36.988 9.909 26.424zm21.606-61.217-9.972-26.59 4.255-12.232a24.115 24.115 0 0 0 14.609 13.627zm-135.53-159.962a8 8 0 0 0 7.062-11.759l-1.221-2.289c-7.733-14.482-13.841-25.921-13.841-41.952a104 104 0 0 1 208 0c0 16.031-6.108 27.47-13.841 41.952l-1.221 2.289a8 8 0 0 0 7.062 11.759c24 0 24 10.408 24 16 0 14.492-19.8 27.393-49.262 32.1a8 8 0 0 0 -6.738 7.9v56a8 8 0 0 1 -16 0v-56a8 8 0 0 0 -8-8c-.17 0-.342.006-.514.017-7.986.513-34.677-.017-39.486-.017-104.41 0-120-20.049-120-32 0-3.957 0-16 24-16z"/><path d="m187.562 206.656c1.063.708 26.498 17.344 68.438 17.344s67.375-16.636 68.438-17.344a8 8 0 0 0 -8.853-13.328c-.223.147-22.773 14.672-59.585 14.672-36.666 0-59.183-14.41-59.582-14.669a8 8 0 0 0 -8.856 13.325z"/></svg>