<svg id="Capa_1" enable-background="new 0 0 512.179 512.179" height="512" viewBox="0 0 512.179 512.179" width="512" xmlns="http://www.w3.org/2000/svg"><g><g><path d="m365.497 23.713c0-8.954-7.259-16.213-16.213-16.213h-185.389c-8.954 0-16.213 7.259-16.213 16.213v269.601h217.815z" fill="#dfae91"/><g><path d="m182.378 178.745h50.983c2.679 0 4.851-2.172 4.851-4.851v-46.975c0-2.679-2.172-4.851-4.851-4.851h-50.983c-2.679 0-4.851 2.172-4.851 4.851v46.975c0 2.68 2.172 4.851 4.851 4.851z" fill="#d79c7a"/><path d="m330.801 178.745h-50.983c-2.679 0-4.851-2.172-4.851-4.851v-46.975c0-2.679 2.172-4.851 4.851-4.851h50.983c2.679 0 4.851 2.172 4.851 4.851v46.975c0 2.68-2.172 4.851-4.851 4.851z" fill="#d79c7a"/><g id="XMLID_253_"><path d="m399.039 450.831-9.89-9.89-21.937-35.846h-220.697l-23.485 35.846-9.89 9.89c-5.54 5.54-8.65 13.06-8.65 20.89v23.92c0 4.99 4.04 9.04 9.04 9.04h285.12c5 0 9.04-4.05 9.04-9.04v-23.92c-.001-7.83-3.111-15.35-8.651-20.89z" fill="#fcf6ed"/><path d="m365.497 207.783v-59.163h-145.727c-15.006 0-27.17-12.165-27.17-27.17v-113.95h-28.705c-8.954 0-16.213 7.259-16.213 16.213v184.07z" fill="#d79c7a"/><path d="m274.967 148.62v25.274c0 2.679 2.172 4.851 4.851 4.851h50.983c2.679 0 4.851-2.172 4.851-4.851v-25.274z" fill="#d08a61"/><path d="m219.77 148.62c-14.798 0-26.825-11.833-27.155-26.552h-10.237c-2.679 0-4.851 2.172-4.851 4.851v46.975c0 2.679 2.172 4.851 4.851 4.851h50.983c2.679 0 4.851-2.172 4.851-4.851v-25.274z" fill="#d08a61"/><path d="m123.029 174.43v266.51h266.12v-266.51l-93.315 21.143z" fill="#fbe88c"/><path d="m276.293 279.812c4.454 2.403 9.48 3.673 14.535 3.673 7.862 0 15.34-2.979 21.059-8.39l77.262-73.127v-27.538l-93.315 21.143-127.463-15.595-45.342-5.548v266.51h266.12v-27.241h-189.735c-17.144 0-31.042-13.898-31.042-31.042v-136.383c0-11.144 11.902-18.247 21.71-12.957z" fill="#fbe372"/><path d="m354.159 386.918c0 3.839-3.112 6.95-6.95 6.95h-183.239c-3.838 0-6.95-3.112-6.95-6.95v-208.173h197.139z" fill="#fcf6ed"/><path d="m295.834 195.573-127.463-15.595-10.074-1.233h-1.277v208.173c0 3.839 3.112 6.95 6.95 6.95h6.497c-1.348-3.479-2.096-7.256-2.096-11.211v-136.383c0-11.144 11.902-18.247 21.71-12.957l86.211 46.496c4.454 2.403 9.48 3.673 14.535 3.673 7.862 0 15.34-2.979 21.059-8.39l42.272-40.009v-52.728z" fill="#fcf1de"/><path d="m389.149 174.431-91.01 86.14c-3.34 3.16-8.31 3.82-12.35 1.64l-162.76-87.78c0-3.21 2.59-5.81 5.8-5.81h254.52c3.21 0 5.8 2.6 5.8 5.81z" fill="#fdf5cb"/></g><path d="m181.878 93.31h50.983c2.679 0 4.851-2.172 4.851-4.851v-46.975c0-2.679-2.172-4.851-4.851-4.851h-50.983c-2.679 0-4.851 2.172-4.851 4.851v46.975c0 2.679 2.172 4.851 4.851 4.851z" fill="#d79c7a"/><path d="m181.878 93.31h10.722v-56.677h-10.722c-2.679 0-4.851 2.172-4.851 4.851v46.975c0 2.679 2.172 4.851 4.851 4.851z" fill="#d08a61"/><path d="m330.301 93.31h-50.983c-2.679 0-4.851-2.172-4.851-4.851v-46.975c0-2.679 2.172-4.851 4.851-4.851h50.983c2.679 0 4.851 2.172 4.851 4.851v46.975c0 2.679-2.172 4.851-4.851 4.851z" fill="#d79c7a"/></g></g><g><path d="m404.344 445.53-7.691-7.692v-263.412c0-7.335-5.967-13.303-13.302-13.303h-10.354v-82.489c0-4.143-3.358-7.5-7.5-7.5s-7.5 3.357-7.5 7.5v82.489h-15.345v-32.247c0-6.811-5.541-12.352-12.351-12.352h-50.983c-6.811 0-12.351 5.541-12.351 12.352v32.247h-21.755v-32.247c0-6.811-5.541-12.352-12.351-12.352h-50.983c-6.811 0-12.351 5.541-12.351 12.352v32.247h-14.345v-137.41c0-4.805 3.909-8.713 8.713-8.713h185.389c4.804 0 8.713 3.908 8.713 8.713v22.958c0 4.143 3.358 7.5 7.5 7.5s7.5-3.357 7.5-7.5v-22.958c0-13.075-10.638-23.713-23.713-23.713h-185.389c-13.075 0-23.713 10.638-23.713 23.713v137.41h-11.354c-7.335 0-13.302 5.968-13.302 13.303v179.987c0 4.143 3.358 7.5 7.5 7.5s7.5-3.357 7.5-7.5v-167.421l18.994 10.244v189.682c0 7.968 6.482 14.45 14.45 14.45h183.238c7.968 0 14.45-6.482 14.45-14.45v-176.142l19.994-18.925v241.593h-251.126v-47.068c0-4.143-3.358-7.5-7.5-7.5s-7.5 3.357-7.5 7.5v51.462l-7.691 7.691c-6.997 6.996-10.85 16.299-10.85 26.193v23.913c0 9.122 7.421 16.543 16.543 16.543h285.123c9.122 0 16.543-7.421 16.543-16.543v-23.913c0-9.894-3.853-19.197-10.85-26.192zm-122.377-314.006h45.685v29.599h-45.685zm-97.44 0h45.685v29.599h-45.685zm162.132 254.844h-182.139v-181.042l61.093 32.949c1.132.61 2.351.899 3.553.899 2.668 0 5.252-1.428 6.608-3.94 1.966-3.646.605-8.195-3.041-10.162l-90.76-48.949h234.475l-83.47 79.005c-.98.927-2.439 1.122-3.627.479l-28.394-15.313c-3.643-1.964-8.194-.604-10.161 3.041-1.966 3.646-.605 8.195 3.041 10.162l28.394 15.312c2.715 1.465 5.673 2.18 8.608 2.18 4.524 0 8.997-1.698 12.451-4.967l43.369-41.049zm-158.754 62.076h22.842v48.734h-22.842zm-15 48.735h-22.842v-48.734h22.842zm52.842-48.735h22.842v48.734h-22.842zm37.842 0h22.842v48.734h-22.842zm37.843 0h22.842v48.734h-22.842zm37.842 0h22.842v48.734h-22.842zm-227.289 47.192v-23.913c0-5.888 2.293-11.424 6.456-15.587l7.691-7.691h8.931v48.734h-21.535c-.851 0-1.543-.693-1.543-1.543zm288.209 0c0 .851-.692 1.543-1.543 1.543h-21.535v-48.734h8.93l7.691 7.692c4.163 4.162 6.456 9.698 6.456 15.586v23.913z"/><path d="m181.878 29.133c-6.811 0-12.351 5.54-12.351 12.351v46.976c0 6.811 5.541 12.351 12.351 12.351h50.983c6.811 0 12.351-5.54 12.351-12.351v-46.977c0-6.811-5.541-12.351-12.351-12.351h-50.983zm48.334 56.677h-45.685v-41.677h45.685z"/><path d="m279.318 29.133c-6.811 0-12.351 5.54-12.351 12.351v46.976c0 6.811 5.541 12.351 12.351 12.351h50.983c6.811 0 12.351-5.54 12.351-12.351v-46.977c0-6.811-5.541-12.351-12.351-12.351h-50.983zm48.334 56.677h-45.685v-41.677h45.685z"/></g></g></svg>