<svg id="Filled" enable-background="new 0 0 512 512" height="512" viewBox="0 0 512 512" width="512" xmlns="http://www.w3.org/2000/svg"><g fill="#8a5237"><path d="m200 200h272c8.8 0 16 7.2 16 16v8c0 8.8-7.2 16-16 16h-272c-8.8 0-16-7.2-16-16v-8c0-8.8 7.2-16 16-16z"/><path d="m200 240h272c8.8 0 16 7.2 16 16v8c0 8.8-7.2 16-16 16h-272c-8.8 0-16-7.2-16-16v-8c0-8.8 7.2-16 16-16z"/><path d="m200 48h272c8.8 0 16 7.2 16 16v8c0 8.8-7.2 16-16 16h-272c-8.8 0-16-7.2-16-16v-8c0-8.8 7.2-16 16-16z"/><path d="m200 392h272c8.8 0 16 7.2 16 16v8c0 8.8-7.2 16-16 16h-272c-8.8 0-16-7.2-16-16v-8c0-8.8 7.2-16 16-16z"/></g><path d="m416 408v8c0 8.8 7.2 16 16 16h7.6c8.9-.1 16.2 7 16.4 15.9.1 8.8-7 16-15.8 16.1-.1 0-.1 0-.2 0h-79.6c-8.9.1-16.2-7-16.4-15.9-.1-8.8 7-16 15.8-16.1h.2 8c8.8 0 16-7.2 16-16v-8c0-8.8-7.2-16-16-16h-127.2c-30.8 0-56.4-24.5-56.8-55.3-.4-30.9 24.3-56.3 55.3-56.7h.7 191.2c30.8 0 56.4 24.5 56.8 55.3.4 30.9-24.3 56.3-55.3 56.7-.2 0-.5 0-.7 0-8.8 0-16 7.2-16 16z" fill="#f7cca9"/><path d="m488 144c0 30.9-25.1 56-56 56h-8v32c0 8.8-7.2 16-16 16s-16-7.2-16-16v-32h-152c-30.9 0-56-25.1-56-56s25.1-56 56-56h192c30.9 0 56 25.1 56 56z" fill="#f7cca9"/><circle cx="176" cy="280" fill="#95573a" r="152"/><circle cx="176" cy="280" fill="#ad6643" r="120"/><ellipse cx="176" cy="280" fill="#95573a" rx="48" ry="16"/><path d="m472 40h-272c-13.2 0-24 10.8-24 24v8c0 12.5 9.6 22.8 21.9 23.9-7.5 6.5-13.4 14.7-17.3 24.2-1.5 0-3.1-.1-4.6-.1-88.2 0-160 71.8-160 160s71.8 160 160 160h161.4c-.9 2.6-1.4 5.4-1.4 8.2.1 13.1 11.1 23.8 24.4 23.8h79.6c6.4 0 12.4-2.5 17-7 4.6-4.6 7.1-10.7 7-17.2 0-2.7-.5-5.4-1.4-7.8h9.4c13.2 0 24-10.8 24-24v-8c0-12.5-9.6-22.8-21.8-23.9 1.1-1 2.3-2 3.4-3.1 12.1-12.3 18.7-28.5 18.4-45.8-.2-18.8-8.8-35.7-22.2-47.2 12.4-1 22.2-11.4 22.2-24v-8c0-6.1-2.3-11.8-6.1-16 3.8-4.2 6.1-9.9 6.1-16v-8c0-12.5-9.6-22.8-21.9-23.9 13.4-11.7 21.9-28.9 21.9-48.1s-8.5-36.4-21.9-48.1c12.3-1.1 21.9-11.4 21.9-23.9v-8c0-13.2-10.8-24-24-24zm-296 384c-79.4 0-144-64.6-144-144s64.6-144 144-144 144 64.6 144 144-64.6 144-144 144zm142.9-216h65.1v24h-55.4c-2.6-8.3-5.9-16.3-9.7-24zm-73.2 216c13.1-6.4 25.2-14.5 36-24h86.3c4.4 0 8 3.6 8 8v8c0 4.4-3.6 8-8 8zm234.3-16v8c0 4.4-3.6 8-8 8h-40c-4.4 0-8-3.6-8-8v-8c0-4.4 3.6-8 8-8h40c4.4 0 8 3.6 8 8zm0-72.6c.2 12.9-4.7 25.1-13.8 34.4-9.1 9.2-21.2 14.3-34.2 14.3-13.2 0-24 10.8-24 24v8c0 13.2 10.8 24 24 24h7.6c4.6 0 8.4 3.6 8.4 7.9 0 2.2-.8 4.2-2.3 5.7s-3.5 2.3-5.7 2.3h-79.6c-4.6 0-8.4-3.6-8.4-7.9 0-2.2.8-4.2 2.3-5.7s3.5-2.3 5.7-2.3h8c13.2 0 24-10.8 24-24v-8c0-13.2-10.8-24-24-24h-70.5c22.4-26.1 36.5-59.5 38.3-96h95.4c26.6-.1 48.5 21.1 48.8 47.3zm0-71.4c0 4.4-3.6 8-8 8h-136.2c-.4-8.2-1.4-16.2-3-24h57.3c4.4 4.9 10.8 8 17.9 8s13.5-3.1 17.9-8h46.1c4.4 0 8 3.6 8 8zm0-48v8c0 4.4-3.6 8-8 8h-40v-24h40c4.4 0 8 3.6 8 8zm0-72c0 26.5-21.5 48-48 48h-8c-4.4 0-8 3.6-8 8v32c0 4.4-3.6 8-8 8s-8-3.6-8-8v-32c0-4.4-3.6-8-8-8h-82.4c-14-21.2-32.9-38.8-55-51.4 2.2-3.1 1.9-7.5-.9-10.3l-16-16c-3.1-3.1-8.2-3.1-11.3 0s-3.1 8.2 0 11.3l3.8 3.8c-10.4-3.7-21.3-6.4-32.5-8 8.1-15.3 24.4-25.4 42.3-25.4h192c26.5 0 48 21.5 48 48zm0-72c0 4.4-3.6 8-8 8h-272c-4.4 0-8-3.6-8-8v-8c0-4.4 3.6-8 8-8h272c4.4 0 8 3.6 8 8z"/><path d="m309.7 141.7c3.1-3.1 3.1-8.2 0-11.3l-16-16c-3.1-3.1-8.2-3.1-11.3 0s-3.1 8.2 0 11.3l16 16c1.6 1.6 3.6 2.3 5.7 2.3s4-.8 5.6-2.3z"/><path d="m322.3 146.3-16 16c-3.1 3.1-3.1 8.2 0 11.3 1.6 1.6 3.6 2.3 5.7 2.3s4.1-.8 5.7-2.3l16-16c3.1-3.1 3.1-8.2 0-11.3-3.2-3.1-8.2-3.1-11.4 0z"/><path d="m365.7 141.7c3.1-3.1 3.1-8.2 0-11.3l-16-16c-3.1-3.1-8.2-3.1-11.3 0s-3.1 8.2 0 11.3l16 16c1.6 1.6 3.6 2.3 5.7 2.3s4-.8 5.6-2.3z"/><path d="m378.3 146.3-16 16c-3.1 3.1-3.1 8.2 0 11.3 1.6 1.6 3.6 2.3 5.7 2.3s4.1-.8 5.7-2.3l16-16c3.1-3.1 3.1-8.2 0-11.3-3.2-3.1-8.2-3.1-11.4 0z"/><path d="m421.7 141.7c3.1-3.1 3.1-8.2 0-11.3l-16-16c-3.1-3.1-8.2-3.1-11.3 0s-3.1 8.2 0 11.3l16 16c1.6 1.6 3.6 2.3 5.7 2.3s4-.8 5.6-2.3z"/><path d="m434.3 146.3-16 16c-3.1 3.1-3.1 8.2 0 11.3 1.6 1.6 3.6 2.3 5.7 2.3s4.1-.8 5.7-2.3l16-16c3.1-3.1 3.1-8.2 0-11.3-3.2-3.1-8.2-3.1-11.4 0z"/><path d="m176 152c-70.6 0-128 57.4-128 128s57.4 128 128 128 128-57.4 128-128-57.4-128-128-128zm0 240c-61.8 0-112-50.2-112-112s50.2-112 112-112 112 50.2 112 112-50.2 112-112 112z"/><path d="m112.8 235.6c1.4 2.8 4.2 4.4 7.2 4.4 1.2 0 2.4-.3 3.6-.8 4-2 5.6-6.8 3.6-10.7l-8-16c-2-4-6.8-5.6-10.7-3.6-4 2-5.6 6.8-3.6 10.7z"/><path d="m152.8 235.6c1.4 2.8 4.2 4.4 7.2 4.4 1.2 0 2.4-.3 3.6-.8 4-2 5.6-6.8 3.6-10.7l-8-16c-2-4-6.8-5.6-10.7-3.6-4 2-5.6 6.8-3.6 10.7z"/><path d="m192.8 235.6c1.4 2.8 4.2 4.4 7.2 4.4 1.2 0 2.4-.3 3.6-.8 4-2 5.6-6.8 3.6-10.7l-8-16c-2-4-6.8-5.6-10.7-3.6-4 2-5.6 6.8-3.6 10.7z"/><path d="m239.2 212.4c-2-4-6.8-5.6-10.7-3.6-4 2-5.6 6.8-3.6 10.7l8 16c1.4 2.8 4.2 4.4 7.2 4.4 1.2 0 2.4-.3 3.6-.8 4-2 5.6-6.8 3.6-10.7z"/><path d="m99.6 264.8c-4-2-8.8-.4-10.7 3.6l-8 16c-2 4-.4 8.8 3.6 10.7 1.1.6 2.4.8 3.6.8 2.9 0 5.8-1.6 7.2-4.4l8-16c1.8-3.9.2-8.7-3.7-10.7z"/><path d="m267.6 264.8c-4-2-8.8-.4-10.7 3.6l-8 16c-2 4-.4 8.8 3.6 10.7 1.1.6 2.4.8 3.6.8 2.9 0 5.8-1.6 7.2-4.4l8-16c1.8-3.9.2-8.7-3.7-10.7z"/><path d="m119.2 324.4c-2-4-6.8-5.6-10.7-3.6-4 2-5.6 6.8-3.6 10.7l8 16c1.4 2.8 4.2 4.4 7.2 4.4 1.2 0 2.4-.3 3.6-.8 4-2 5.6-6.8 3.6-10.7z"/><path d="m159.2 324.4c-2-4-6.8-5.6-10.7-3.6-4 2-5.6 6.8-3.6 10.7l8 16c1.4 2.8 4.2 4.4 7.2 4.4 1.2 0 2.4-.3 3.6-.8 4-2 5.6-6.8 3.6-10.7z"/><path d="m199.2 324.4c-2-4-6.8-5.6-10.7-3.6-4 2-5.6 6.8-3.6 10.7l8 16c1.4 2.8 4.2 4.4 7.2 4.4 1.2 0 2.4-.3 3.6-.8 4-2 5.6-6.8 3.6-10.7z"/><path d="m239.2 324.4c-2-4-6.8-5.6-10.7-3.6-4 2-5.6 6.8-3.6 10.7l8 16c1.4 2.8 4.2 4.4 7.2 4.4 1.2 0 2.4-.3 3.6-.8 4-2 5.6-6.8 3.6-10.7z"/><path d="m232 280c0-16.6-28.1-24-56-24s-56 7.4-56 24 28.1 24 56 24 56-7.4 56-24zm-56 8c-22.1 0-35.5-5-39.3-8 3.8-3 17.2-8 39.3-8s35.5 5 39.3 8c-3.8 3-17.2 8-39.3 8z"/><path d="m456 328c-4.4 0-8 3.6-8 8 0 8.8-7.2 16-16 16-4.4 0-8 3.6-8 8s3.6 8 8 8c17.6 0 32-14.4 32-32 0-4.4-3.6-8-8-8z"/></svg>