<svg id="Filled" height="512" viewBox="0 0 512 512" width="512" xmlns="http://www.w3.org/2000/svg"><path d="m408 56-12.16 40.52-4.63 15.44-10.14 33.79-4.26 14.2-16.81 56.05-32-8 21.39-71.29 4.91-16.37 9.86-32.86 4.63-15.44 7.21-24.04z" fill="#f7cca9"/><g fill="#95573a"><path d="m176 216-78.23-72.21-9.68-8.94-16.09-14.85s15-48 96-48l1.34 24.11.86 15.57z"/><path d="m176 216-104-96s15-48 96-48z"/><path d="m176 216-104-96s15-48 96-48z"/><path d="m176 216-76.88-70.96-11.9-10.99-15.22-14.05s15-48 96-48l1.3 23.47.89 15.99z"/></g><circle cx="256" cy="200" fill="#fda2c6" r="88"/><path d="m128 184h256v32h-256z" fill="#dadcde"/><path d="m336 256v40a80.014 80.014 0 0 1 -64 78.39v81.61h24a31.991 31.991 0 0 1 32 32h-144a32 32 0 0 1 32-32h24v-81.61a80.014 80.014 0 0 1 -64-78.39v-40c0-25.5-40-40-40-40h240c-41.5 0-40 40-40 40z" fill="#e9eef2"/><circle cx="256" cy="48" fill="#eb423f" r="24"/><path d="m312 120c0 12.5-11.58 16-16 16h-80a16 16 0 0 1 -16-16c0-4.42 3.5-16 16-16h8a16 16 0 0 1 -16-16c0-4.42 3.25-16 16-16h64a16 16 0 0 1 16 16c0 12.75-11.58 16-16 16h8a16 16 0 0 1 16 16z" fill="#f7cca9"/><path d="m256 240a8 8 0 0 0 -8 8v80a8 8 0 0 0 16 0v-80a8 8 0 0 0 -8-8z"/><path d="m216 248a8 8 0 0 0 -16 0c0 65.425 16.466 83.779 18.343 85.657a8 8 0 1 0 11.314-11.314c-.136-.136-13.657-16.265-13.657-74.343z"/><path d="m304 240a8 8 0 0 0 -8 8c0 58.078-13.521 74.207-13.657 74.343a8 8 0 0 0 11.314 11.314c1.877-1.878 18.343-20.232 18.343-85.657a8 8 0 0 0 -8-8z"/><path d="m414.954 52.045a8.005 8.005 0 0 0 -5.014-3.806l-32-8a8 8 0 0 0 -9.6 5.462l-30.99 103.291a96.058 96.058 0 0 0 -18.473-21.5 24.668 24.668 0 0 0 1.123-7.492 24 24 0 0 0 -10.943-20.13 24.282 24.282 0 0 0 -21.057-35.87h-4.3a31.894 31.894 0 0 0 -.139-32.242l2.1-2.1a8 8 0 0 0 -11.314-11.314l-2.1 2.1a31.977 31.977 0 0 0 -43.942 43.556h-4.305c-16.554 0-24 14.034-24 24a23.851 23.851 0 0 0 3.05 11.7 25.365 25.365 0 0 0 -11.05 20.3 23.9 23.9 0 0 0 1.184 7.433 96.305 96.305 0 0 0 -13.31 14.066l-3.886-69.942a8 8 0 0 0 -7.988-7.557c-85.894 0-102.952 51.425-103.636 53.614a8 8 0 0 0 2.21 8.265l56.307 51.975a7.983 7.983 0 0 0 -2.881 6.146v32a8 8 0 0 0 8 8h8a32.036 32.036 0 0 1 32 32v40a88.277 88.277 0 0 0 64 84.677v67.323h-16a40.045 40.045 0 0 0 -40 40 8 8 0 0 0 8 8h144a8 8 0 0 0 8-8 39.991 39.991 0 0 0 -40-40h-16v-67.323a88.277 88.277 0 0 0 64-84.677v-40q0-.15-.006-.3c-.005-.139-.277-14.206 8.528-23.346 5.339-5.543 13.238-8.354 23.478-8.354h8a8 8 0 0 0 8-8v-32a8 8 0 0 0 -8-8h-3.648l35.311-117.7a8 8 0 0 0 -.709-6.255zm-67.447 118.773 8.307-27.69 13.612 13.612-5.778 19.26h-14.7q-.675-2.623-1.489-5.2zm-91.507-138.818a15.925 15.925 0 0 1 4.127.559l-1.784 1.784a8 8 0 0 0 11.314 11.314l1.784-1.784a15.99 15.99 0 1 1 -15.441-11.873zm-40 80h8a8 8 0 0 0 0-16 8.009 8.009 0 0 1 -8-8c0-.08.218-8 8-8h64a8.009 8.009 0 0 1 8 8c0 7.782-7.92 8-8 8a8 8 0 0 0 0 16h8a8.009 8.009 0 0 1 8 8c0 7.53-7.92 8-8 8h-80a8.009 8.009 0 0 1 -8-8c0-.08.47-8 8-8zm-13.043 28.13a23.847 23.847 0 0 0 13.043 3.87h80a25.23 25.23 0 0 0 12.96-3.94 79.679 79.679 0 0 1 23.362 35.94h-152.644a79.668 79.668 0 0 1 23.279-35.87zm-110.457-12.096-10.859-10.022c5.624-10.362 24.824-35.685 78.8-37.863l.893 16.06c-36.522 2.253-61.086 23.962-68.834 31.825zm11.783 10.876c6.591-6.5 27.646-24.732 57.94-26.716l3.122 56.2q-1.3 3.744-2.291 7.61h-18.59zm223.717 117.19v39.9a72.179 72.179 0 0 1 -57.591 70.551 8 8 0 0 0 -6.409 7.84v81.609a8 8 0 0 0 8 8h24a24.033 24.033 0 0 1 22.642 16h-125.271a24.042 24.042 0 0 1 22.629-16h24a8 8 0 0 0 8-8v-81.609a8 8 0 0 0 -6.409-7.84 72.179 72.179 0 0 1 -57.591-70.551v-40a47.8 47.8 0 0 0 -12.261-32h166.847c-10.645 13.25-10.633 29.985-10.586 32.1zm48-48.1h-240v-16h240zm-1.352-68.666-13.612-13.612 9.547-31.822 13.617 13.609zm14.769-49.234-13.612-13.609 5.663-18.878 16.461 4.116z"/></svg>