<svg id="Filled" height="512" viewBox="0 0 512 512" width="512" xmlns="http://www.w3.org/2000/svg"><path d="m88.4 184.4c21.869-21.869 58.131-21.869 80 0 17.818 39.593 46.131 67.126 80 80 21.869 21.869 21.869 58.131 0 80-21.869 21.869-58.131 21.869-80 0-38.318-16.842-66.35-45.147-80-80-21.867-21.867-21.867-58.129 0-80z" fill="#ff750a"/><path d="m263.6 471.6c-21.869-21.869-21.869-58.131 0-80 39.593-17.818 67.126-46.131 80-80 21.869-21.869 58.131-21.869 80 0 21.869 21.869 21.869 58.131 0 80-16.842 38.318-45.147 66.35-80 80-21.871 21.867-58.133 21.867-80 0z" fill="#eb423f"/><path d="m316.114 250.274c-30.928 0-56.568-25.64-56.568-56.568 15.4-40.6 14.845-80.085 0-113.137 0-30.927 25.64-56.568 56.568-56.568 30.928 0 56.569 25.641 56.569 56.568 15.186 39 14.993 78.84 0 113.137 0 30.928-25.641 56.568-56.569 56.568z" fill="#fba0c4"/><path d="m175.7 181.119a8 8 0 0 0 -1.638-2.373 64.572 64.572 0 0 0 -92.5 90.1c14.509 35.8 43.638 64.934 82.283 82.288a64.572 64.572 0 0 0 90.217-92.385 7.991 7.991 0 0 0 -2.814-1.82c-32.703-12.435-58.827-38.648-75.548-75.81zm67.048 157.626c-18.616 18.617-50.07 18.617-68.686 0a8.04 8.04 0 0 0 -2.438-1.667c-35.959-15.8-62.869-42.651-75.77-75.593a8 8 0 0 0 -1.792-2.739c-18.616-18.617-18.616-50.071 0-68.686a48.994 48.994 0 0 1 67.684-.974c18.243 39.742 46.592 68.093 82.13 82.141 17.476 18.739 17.101 49.287-1.131 67.518z"/><path d="m194.932 304.812c-33.812-11.27-58.211-32.753-66.941-58.94a8 8 0 1 0 -15.179 5.061c10.337 31.008 38.425 56.179 77.06 69.059a8 8 0 0 0 5.06-15.18z"/><path d="m429.255 305.94a64.976 64.976 0 0 0 -91.314 0 8.02 8.02 0 0 0 -1.821 2.815c-12.43 32.7-38.643 58.824-75.805 75.548a7.984 7.984 0 0 0 -2.374 1.637 64.573 64.573 0 0 0 90.1 92.5c35.8-14.508 64.935-43.637 82.288-82.283a64.992 64.992 0 0 0 -1.071-90.217zm-11.314 80a8.027 8.027 0 0 0 -1.667 2.439c-15.805 35.96-42.651 62.868-75.593 75.769a8.027 8.027 0 0 0 -2.74 1.792 48.974 48.974 0 0 1 -68.686 0 48.995 48.995 0 0 1 -.973-67.683c39.743-18.242 68.093-46.592 82.14-82.13 18.74-17.48 49.287-17.105 67.519 1.127 18.616 18.617 18.616 50.071 0 68.686z"/><path d="m394.128 360.008a8 8 0 0 0 -10.119 5.059c-11.272 33.814-32.755 58.213-58.941 66.941a8 8 0 1 0 5.06 15.18c31.009-10.336 56.181-38.424 69.06-77.06a8 8 0 0 0 -5.06-10.12z"/><path d="m251.545 193.706a64.572 64.572 0 0 0 129.115 1.7c15.055-35.573 15.06-76.772 0-116.37a64.572 64.572 0 0 0 -129.12 1.533 8 8 0 0 0 .7 3.278c14.333 31.912 14.27 68.92-.183 107.023a8.013 8.013 0 0 0 -.512 2.836zm16.029-114.76c.891-25.611 22.757-46.946 48.54-46.946 26.327 0 48.569 22.241 48.569 48.568a8 8 0 0 0 .545 2.9c14.251 36.6 14.3 74.614.125 107.031a8 8 0 0 0 -.67 3.2c0 26.327-22.242 48.568-48.569 48.568a49 49 0 0 1 -48.548-47.167c15.203-41 15.203-81.093.008-116.154z"/><path d="m331.586 178.813a8 8 0 1 0 14.314 7.157c14.618-29.237 12.556-66.9-5.657-103.322a8 8 0 1 0 -14.313 7.152c15.939 31.883 18.001 64.326 5.656 89.013z"/></svg>