<svg id="Capa_1" enable-background="new 0 0 511.444 511.444" height="512" viewBox="0 0 511.444 511.444" width="512" xmlns="http://www.w3.org/2000/svg"><g><g><path d="m247.291 154.15 22.704 1.79 14.27-18.94v-101.95c0-15.22-12.33-27.55-27.54-27.55-7.61 0-14.5 3.08-19.48 8.07-4.99 4.98-8.07 11.87-8.07 19.48v72.87z" fill="#f8deb6"/><path d="m255.724 35.05c0-7.61 3.08-14.5 8.07-19.48 1.829-1.832 3.917-3.404 6.202-4.663-3.936-2.169-8.458-3.406-13.27-3.406-7.61 0-14.5 3.08-19.48 8.07-4.99 4.98-8.07 11.87-8.07 19.48v72.87s13.116 16.699 26.549 33.8v-106.671z" fill="#f7d8a4"/><g><path d="m284.265 137v137.81h-55.09v-166.89l10.9 7.93c13.32 9.68 28.3 16.85 44.19 21.15z" fill="#fdf5cb"/></g><path d="m255.724 125.664c-5.423-2.906-10.653-6.183-15.649-9.814l-10.9-7.93v166.89h26.549z" fill="#fcf0b6"/><g><path d="m394.925 220.01c25.45 31.29 32.26 73.51 18.5 110.93-.49 1.33-.76 2.74-.76 4.16v86.49c0 8.41-7.01 15.18-15.51 14.78-7.95-.38-14.07-7.23-14.07-15.2v-19.93c0-1.03-1.4-1.34-1.83-.41l-25.287 54.162c-1.222 2.617.689 5.618 3.577 5.618 5.98 0 11.4 2.42 15.32 6.35 3.92 3.92 6.35 9.33 6.35 15.32 0 11.96-9.7 21.66-21.67 21.66h-207.64c-5.98 0-11.4-2.43-15.32-6.35-4.233-4.233-6.729-10.203-6.303-16.753.745-11.473 10.621-20.227 22.119-20.227 2.658 0 4.416-2.761 3.292-5.169l-53.978-115.631c-7.16-15.34-10.67-31.75-10.67-48.07 0-25.66 8.68-51.07 25.48-71.73 31.59-38.84 84.87-52.44 131.21-33.49l3.01 1.23c3.19 1.3 6.77 1.3 9.96 0l3.01-1.23c46.34-18.95 99.62-5.35 131.21 33.49z" fill="#fbe88c"/></g><path d="m378.639 472.033c-3.539 2.515-7.863 3.999-12.536 3.999h-97.732c-27.711 0-52.798-16.395-63.922-41.775l-37.279-85.053c-8.812-20.108-13.133-41.619-13.133-63.011 0-33.636 10.683-66.944 31.36-94.025 3.768-4.934 7.816-9.571 12.053-13.875-30.878 1.995-60.466 16.564-80.925 41.72-16.8 20.66-25.48 46.07-25.48 71.73 0 16.32 3.51 32.73 10.67 48.07l53.977 115.631c1.124 2.408-.634 5.169-3.292 5.169-11.497 0-21.373 8.754-22.119 20.227-.426 6.549 2.07 12.52 6.303 16.753 3.92 3.92 9.34 6.35 15.32 6.35h207.64c11.97 0 21.67-9.7 21.67-21.66.001-3.714-.933-7.201-2.575-10.25z" fill="#fbe372"/></g><g><path d="m231.642 453.112c-4.143 0-7.5 3.357-7.5 7.5s3.357 7.5 7.5 7.5h68.358c4.143 0 7.5-3.357 7.5-7.5s-3.357-7.5-7.5-7.5z"/><path d="m405.876 222.07c-2.381-3.388-7.059-4.206-10.449-1.822-3.389 2.382-4.204 7.061-1.822 10.449 20.018 28.476 24.796 64.981 12.782 97.649-.812 2.205-1.224 4.478-1.224 6.755v86.49c0 2.013-.803 3.887-2.26 5.277-1.455 1.39-3.382 2.083-5.393 2.006-3.821-.181-6.93-3.635-6.93-7.701v-19.938c0-3.996-2.725-7.392-6.625-8.257s-7.807 1.058-9.497 4.679l-25.89 55.456h-14.201c-4.143 0-7.5 3.357-7.5 7.5s3.357 7.5 7.5 7.5l25.181-.001c7.811 0 14.165 6.354 14.165 14.166s-6.354 14.166-14.165 14.166h-207.646c-7.811 0-14.165-6.354-14.165-14.166s6.354-14.166 14.165-14.166h47.778c4.143 0 7.5-3.357 7.5-7.5s-3.357-7.5-7.5-7.5h-36.799l-54.373-116.47c-8.445-18.091-11.614-38.126-9.164-57.94 2.45-19.813 10.403-38.474 23.001-53.963 14.477-17.799 33.879-30.206 56.108-35.88 22.229-5.676 45.204-4.085 66.441 4.6l3.016 1.232c5.04 2.062 10.591 2.058 15.631 0l3.014-1.232c35.662-14.584 76.49-8.677 106.551 15.413 3.232 2.591 7.953 2.07 10.543-1.162 2.591-3.232 2.069-7.953-1.162-10.543-25.857-20.718-58.689-29.646-90.719-25.668v-61.401c0-4.143-3.357-7.5-7.5-7.5s-7.5 3.357-7.5 7.5v16.673c-11.508-4.087-22.341-9.761-32.283-16.99l-7.81-5.679v-69.056c0-11.054 8.992-20.046 20.046-20.046s20.047 8.992 20.047 20.046v43.089c0 4.143 3.357 7.5 7.5 7.5s7.5-3.357 7.5-7.5v-43.089c0-19.324-15.722-35.046-35.047-35.046-19.324 0-35.046 15.722-35.046 35.046v136.682c-15.529-2.211-31.389-1.371-46.931 2.597-25.371 6.476-47.515 20.636-64.036 40.949-14.377 17.678-23.455 38.974-26.251 61.587-2.796 22.614.82 45.48 10.459 66.127l51.64 110.615c-13.537 2.519-23.819 14.418-23.819 28.675 0 16.082 13.083 29.166 29.165 29.166h207.646c16.082 0 29.165-13.084 29.165-29.166 0-14.257-10.281-26.156-23.819-28.675l11.805-25.286c2.815 8.708 10.646 15.095 20.104 15.54 6.159.299 12.001-1.888 16.453-6.135 4.389-4.187 6.906-10.066 6.906-16.131v-86.49c0-.503.101-1.031.301-1.574 13.713-37.289 8.26-78.955-14.587-111.457zm-169.201-99.439c12.281 8.77 25.738 15.477 40.093 19.984v31.716c-5.368 1.37-10.678 3.112-15.891 5.243l-3.012 1.232c-1.38.564-2.899.564-4.279 0l-3.014-1.232c-4.568-1.868-9.207-3.447-13.897-4.738z"/></g></g></svg>