<svg id="Filled" height="512" viewBox="0 0 512 512" width="512" xmlns="http://www.w3.org/2000/svg"><path d="m112 200h288v240h-288z" fill="#f2c837"/><path d="m400 440 8 32-8 16-16-16-16 16-16-16-16 16-16-16-16 16-16-16-16 16-16-16-16 16-16-16-16 16-16-16-16 16-16-16-16 16-16-16-16 16-8-16 8-32z" fill="#dbb532"/><ellipse cx="256" cy="320" fill="#e9eef2" rx="104" ry="40"/><path d="m226.333 200a33.944 33.944 0 0 1 3.344-24.54l9.613-17.291c4-13.637-9.578-25.984-23.22-21.068-19.154 6.899-40.07 21.977-40.07 54.899a71.277 71.277 0 0 0 .438 8" fill="#fda2c6"/><path d="m200 88c-32.922 0-48-20.916-54.9-40.07-4.916-13.642 7.431-27.216 21.068-23.22l17.291 9.613a33.947 33.947 0 0 0 33.08 0l17.291-9.613c13.637-4 25.984 9.578 21.068 23.22-6.898 19.154-21.976 40.07-54.898 40.07z" fill="#ff750a"/><path d="m376 112c0 32.922-20.916 48-40.07 54.9-13.642 4.916-27.216-7.431-23.22-21.068l9.613-17.291a33.947 33.947 0 0 0 0-33.08l-9.613-17.292c-4-13.637 9.578-25.984 23.22-21.068 19.154 6.899 40.07 21.977 40.07 54.899z" fill="#eb423f"/><path d="m379.5 200c-8.065 16.521-23.178 32-51.5 32s-43.435-15.479-51.5-32z" fill="#ff750a"/><path d="m367.488 440c-6.86-7.12-11.392-15.761-14.387-24.07-4.916-13.642 7.431-27.216 21.068-23.22l17.291 9.613a34.2 34.2 0 0 0 8.54 3.344v34.333z" fill="#fda2c6"/><path d="m186.333 440a34.2 34.2 0 0 1 3.344-8.54l9.613-17.291c4-13.637-9.578-25.984-23.22-21.068-17.529 6.317-36.534 19.478-39.632 46.9" fill="#ff750a"/><path d="m112 264v-64h30.124a65.358 65.358 0 0 1 1.876 16c0 28.322-15.479 43.435-32 51.5" fill="#eb423f"/><path d="m104 200v239.015l-7.761 31.045a8 8 0 0 0 .606 5.518l8 16a8 8 0 0 0 12.812 2.079l10.343-10.343 10.343 10.343a8 8 0 0 0 11.314 0l10.343-10.343 10.343 10.343a8 8 0 0 0 11.314 0l10.343-10.343 10.343 10.343a8 8 0 0 0 11.314 0l10.343-10.343 10.343 10.343a8 8 0 0 0 11.314 0l10.343-10.343 10.343 10.343a8 8 0 0 0 11.314 0l10.343-10.343 10.343 10.343a8 8 0 0 0 11.314 0l10.343-10.343 10.343 10.343a8 8 0 0 0 11.314 0l10.343-10.343 10.343 10.343a8 8 0 0 0 11.314 0l10.343-10.343 10.343 10.343a8 8 0 0 0 5.657 2.343 7.914 7.914 0 0 0 1.281-.1 8 8 0 0 0 5.874-4.318l8-16a7.99 7.99 0 0 0 .606-5.518l-7.761-31.047v-239.017a8 8 0 0 0 -8-8h-166.624a26.007 26.007 0 0 1 3.293-12.652l9.614-17.292a8.027 8.027 0 0 0 .685-1.638 25.013 25.013 0 0 0 -6.957-25.35 25.9 25.9 0 0 0 -26.653-5.493c-20.692 7.457-45.358 24.34-45.358 62.425h-56a8 8 0 0 0 -8 8zm260.9 8c-8.946 10.618-21.3 16-36.9 16s-27.958-5.382-36.9-16zm-146.117-63.372a9.84 9.84 0 0 1 10.264 2.093 8.954 8.954 0 0 1 2.755 8.454l-9.117 16.4a41.97 41.97 0 0 0 -5.31 20.425h-33.375c0-23.117 11.7-39.056 34.783-47.372zm-98.783 63.372h15.484a62.346 62.346 0 0 1 .516 8c0 15.6-5.382 27.958-16 36.9zm0 64.317c20.96-11.937 32-31.307 32-56.317a79.637 79.637 0 0 0 -.4-8h120.083c11.936 20.96 31.306 32 56.317 32s44.381-11.04 56.317-32h7.683v185.469l-13.944-7.752a8.027 8.027 0 0 0 -1.638-.685 25.011 25.011 0 0 0 -25.35 6.957 25.9 25.9 0 0 0 -5.493 26.653 85.26 85.26 0 0 0 6.134 13.358h-153.178l7.752-13.944a8.027 8.027 0 0 0 .685-1.638 25.013 25.013 0 0 0 -6.957-25.35 25.9 25.9 0 0 0 -26.653-5.493c-23.948 8.63-38.927 24.6-43.7 46.425h-9.658zm272 139.113v20.57h-20.936a61.54 61.54 0 0 1 -10.436-18.782 9.843 9.843 0 0 1 2.093-10.265 8.962 8.962 0 0 1 8.455-2.755l16.4 9.116a42.326 42.326 0 0 0 4.424 2.116zm-200.2-.255-9.116 16.4a42.326 42.326 0 0 0 -2.114 4.425h-34.36c4.369-14.6 15.272-25.138 32.573-31.372a9.838 9.838 0 0 1 10.264 2.093 8.954 8.954 0 0 1 2.753 8.454zm-73.554 36.825h275.508l5.767 23.069-1.712 3.426-8.152-8.152a8 8 0 0 0 -11.314 0l-10.343 10.343-10.343-10.343a8 8 0 0 0 -11.314 0l-10.343 10.343-10.343-10.343a8 8 0 0 0 -11.314 0l-10.343 10.343-10.343-10.343a8 8 0 0 0 -11.314 0l-10.343 10.343-10.343-10.343a8 8 0 0 0 -11.314 0l-10.343 10.343-10.343-10.343a8 8 0 0 0 -11.314 0l-10.343 10.343-10.343-10.343a8 8 0 0 0 -11.314 0l-10.343 10.343-10.343-10.343a8 8 0 0 0 -11.314 0l-10.343 10.343-10.343-10.343a8 8 0 0 0 -11.314 0l-8.152 8.152-1.712-3.426z"/><path d="m256 368c54.3 0 112-16.823 112-48s-57.7-48-112-48-112 16.823-112 48 57.705 48 112 48zm0-80c59.479 0 96 18.638 96 32s-36.521 32-96 32-96-18.638-96-32 36.521-32 96-32z"/><path d="m200 328h112a8 8 0 0 0 0-16h-112a8 8 0 0 0 0 16z"/><path d="m200 96c38.085 0 54.968-24.666 62.425-45.358a25.9 25.9 0 0 0 -5.493-26.653 25.016 25.016 0 0 0 -25.35-6.957 8.027 8.027 0 0 0 -1.638.685l-17.292 9.614a25.878 25.878 0 0 1 -25.3 0l-17.292-9.614a8.027 8.027 0 0 0 -1.638-.685 25.016 25.016 0 0 0 -25.35 6.957 25.9 25.9 0 0 0 -5.493 26.653c7.453 20.692 24.336 45.358 62.421 45.358zm-45.279-61.047a8.788 8.788 0 0 1 8.454-2.755l16.4 9.117a41.788 41.788 0 0 0 40.854 0l16.4-9.117a8.962 8.962 0 0 1 8.454 2.755 9.841 9.841 0 0 1 2.093 10.265c-8.32 23.082-24.259 34.782-47.376 34.782s-39.056-11.7-47.372-34.783a9.84 9.84 0 0 1 2.093-10.264z"/><path d="m305.718 141.944a7.948 7.948 0 0 0 -.685 1.638 25.012 25.012 0 0 0 6.956 25.35 25.84 25.84 0 0 0 17.746 7.058 26.243 26.243 0 0 0 8.907-1.565c20.692-7.457 45.358-24.34 45.358-62.425s-24.666-54.968-45.357-62.425a25.9 25.9 0 0 0 -26.654 5.493 25.012 25.012 0 0 0 -6.956 25.35 7.948 7.948 0 0 0 .685 1.638l9.613 17.292a25.883 25.883 0 0 1 0 25.3zm23.6-50.371-9.116-16.4a8.953 8.953 0 0 1 2.754-8.454 9.843 9.843 0 0 1 10.265-2.093c23.079 8.319 34.779 24.257 34.779 47.374s-11.7 39.055-34.783 47.373a9.845 9.845 0 0 1 -10.264-2.094 8.953 8.953 0 0 1 -2.754-8.454l9.116-16.4a41.786 41.786 0 0 0 0-40.852z"/></svg>