<svg id="Capa_1" enable-background="new 0 0 512.205 512.205" height="512" viewBox="0 0 512.205 512.205" width="512" xmlns="http://www.w3.org/2000/svg"><g><g><path d="m434.498 99.022-8.14-25.2-20.737-28.43h-274.718l-45.085 28.43-8.14 25.2c-32.97 102.13-32.97 212.03 0 314.16l8.14 25.2 45.045 33.16h263.523l31.972-33.16 8.14-25.2c32.97-102.13 32.97-212.029 0-314.16z" fill="#e5bda7"/><g><g id="XMLID_308_"><g><path d="m149.98 413.183c-32.97-102.13-32.97-212.03 0-314.16 1.001-3.1 3.887-5.2 7.144-5.2h275.694l-6.46-20-20.737-28.43h-202.416-41.257-31.045l-45.085 28.43-8.14 25.2c-32.97 102.13-32.97 212.03 0 314.16l8.14 25.2 35.44 26.089 9.605 7.071h72.302 191.221l31.972-33.16 6.46-20h-275.694c-3.257 0-6.143-2.101-7.144-5.2z" fill="#dfae91"/><g fill="#fcf6ed"><path d="m440.068 11.713v41.21c0 .87-.27 1.71-.76 2.42l-12.95 18.48h-340.54l-12.95-18.48c-.49-.71-.76-1.55-.76-2.42v-41.21c0-2.33 1.89-4.21 4.21-4.21h359.54c2.32 0 4.21 1.88 4.21 4.21z"/><path d="m440.068 459.283v41.21c0 2.33-1.89 4.21-4.21 4.21h-359.54c-2.32 0-4.21-1.88-4.21-4.21v-41.21c0-.87.27-1.71.76-2.42l12.95-18.48h340.54l12.95 18.48c.49.71.76 1.55.76 2.42z"/></g></g></g><g><g><path d="m311.332 331.742c8.75 22-5.48 46.36-28.92 49.67-48.61 6.87-96.19 6.75-142.79.07-23.24-3.33-37.2-27.57-28.69-49.45 17.68-45.43 41.85-86.18 72.04-122.58 14.71-17.72 41.91-17.59 56.49.23 30.09 36.81 54.12 77.45 71.87 122.06z" fill="#f8deb6"/></g><path d="m190.257 358.066c-23.24-3.33-37.2-27.57-28.69-49.45 3.76-9.663 7.819-19.11 12.166-28.349 1.508-3.204 6.262-2.235 6.454 1.301.481 8.844 3.055 17.556 7.676 25.467 8.725 14.931 23.524 24.898 40.606 27.347 24.296 3.482 49.062 5.248 73.61 5.248 3.783 0 7.593-.053 11.396-.137-.417-2.589-1.125-5.187-2.145-7.75-17.75-44.61-41.78-85.25-71.87-122.06-4.356-5.324-9.838-9.069-15.777-11.231-13.94-5.074-30.398-1.426-40.713 11-30.19 36.4-54.36 77.15-72.04 122.58-8.51 21.88 5.45 46.12 28.69 49.45 46.6 6.68 94.18 6.8 142.79-.07 12.917-1.824 23.042-10.05 28.061-20.742-40.783 3.977-80.857 3.038-120.214-2.604z" fill="#f7d8a4"/><g id="XMLID_303_"><path d="m403.018 264.843c8.75 22-5.48 46.36-28.92 49.67-48.61 6.87-96.19 6.75-142.79.07-23.24-3.33-37.2-27.57-28.69-49.45 17.68-45.43 41.85-86.18 72.04-122.58 14.71-17.72 41.91-17.59 56.49.23 30.09 36.81 54.12 77.45 71.87 122.06z" fill="#fcf1de"/></g><path d="m274.847 295.549c-23.24-3.33-37.2-27.57-28.69-49.45 8.12-20.866 17.618-40.738 28.432-59.661l-7.082 1.809-36.81 17.856c-10.664 18.735-20.048 38.394-28.079 59.029-8.51 21.88 5.45 46.12 28.69 49.45 46.6 6.68 94.18 6.8 142.79-.07 11.301-1.596 20.468-8.096 25.944-16.853-42.505 4.556-84.238 3.761-125.195-2.11z" fill="#f6e2c4"/><g id="XMLID_305_"><g><path d="m375.428 207.323-10.54 3.09c-12.43 3.63-25.27 5.46-38.12 5.46-10.31 0-20.63-1.18-30.75-3.53-5.25-1.22-10.26 2.76-10.26 8.15v45.13c0 4.4-1.79 8.38-4.67 11.27-2.89 2.89-6.88 4.67-11.28 4.67-8.8 0-15.94-7.14-15.94-15.94v-42.65c0-9.31-7.55-16.86-16.86-16.86h-6.33c12.81-22.52 27.5-43.69 43.98-63.56 14.71-17.72 41.91-17.59 56.49.23 16.62 20.34 31.4 41.84 44.28 64.54z" fill="#d8efa7"/></g></g></g></g><path d="m237.008 206.113c9.31 0 16.86 7.55 16.86 16.86v4.58c15.519-35.196 35.109-67.456 58.559-96.927-13.257-3.592-28.171.365-37.769 11.927-16.48 19.87-31.17 41.04-43.98 63.56z" fill="#c5e97d"/></g><g><path d="m434.645 437.136 6.99-21.65c28.486-88.245 32.78-182.732 12.416-273.249-.91-4.041-4.916-6.576-8.964-5.671-4.041.909-6.58 4.923-5.671 8.964 19.776 87.899 15.606 179.655-12.057 265.348l-6.458 20.005h-329.626l-6.458-20.004c-3.103-9.611-5.972-19.535-8.529-29.496-1.031-4.012-5.118-6.428-9.13-5.399-4.012 1.03-6.43 5.118-5.399 9.13 2.633 10.254 5.588 20.474 8.783 30.374l6.99 21.649-10.804 15.429c-1.385 1.979-2.116 4.302-2.116 6.716v41.214c0 6.457 5.254 11.711 11.711 11.711h359.531c6.457 0 11.711-5.254 11.711-11.711v-41.216c0-2.414-.732-4.737-2.118-6.718zm-279.509 8.746h21.15v51.323h-21.15zm-15 51.323h-21.151v-51.323h21.151zm51.15-51.323h21.151v51.323h-21.151zm36.152 0h21.15v51.323h-21.15zm36.15 0h21.15v51.323h-21.15zm36.151 0h21.151v51.323h-21.151zm36.151 0h21.15v51.323h-21.15zm36.15 0h21.151v51.323h-21.151zm-292.428 14.434 10.107-14.435h14.266v51.323h-24.373zm352.953 36.889h-24.373v-51.323h14.266l10.107 14.435z"/><path d="m63.463 359.413c4.068-.777 6.737-4.706 5.96-8.774-15.832-82.865-10.509-169.075 15.394-249.311l6.458-20.005h329.626l6.458 20.003c1.279 3.966 2.573 8.197 4.072 13.318 1.164 3.976 5.328 6.259 9.305 5.092 3.976-1.164 6.255-5.33 5.092-9.305-1.538-5.256-2.871-9.612-4.193-13.713l-6.99-21.649 10.804-15.429c1.384-1.979 2.116-4.301 2.116-6.716v-41.213c0-6.457-5.254-11.711-11.711-11.711h-359.531c-6.457 0-11.711 5.254-11.711 11.711v41.214c0 2.415.731 4.737 2.118 6.718l10.802 15.427-6.99 21.65c-26.673 82.625-32.155 171.402-15.853 256.733.687 3.594 3.831 6.095 7.358 6.094.467 0 .942-.043 1.416-.134zm293.577-293.09h-21.15v-51.323h21.15zm15-51.323h21.151v51.323h-21.151zm-51.15 51.323h-21.151v-51.323h21.151zm-36.151 0h-21.15v-51.323h21.15zm-36.151 0h-21.15v-51.323h21.15zm-36.15 0h-21.151v-51.323h21.151zm-36.152 0h-21.15v-51.323h21.15zm-36.15 0h-21.151v-51.323h21.151zm292.429-14.435-10.107 14.436h-14.266v-51.324h24.373zm-352.953-36.888h24.373v51.323h-14.266l-10.107-14.435z"/><path d="m407.153 300.396c6.818-11.748 7.852-25.717 2.834-38.326-12.852-32.296-29.274-63.14-48.811-91.674-2.34-3.417-7.007-4.29-10.426-1.951-3.418 2.34-4.291 7.008-1.951 10.426 5.348 7.811 10.445 15.806 15.301 23.956l-1.317.385c-21.128 6.181-43.625 6.812-65.069 1.826-4.739-1.103-9.647.001-13.461 3.029-3.812 3.027-5.998 7.555-5.998 12.423v45.132c0 4.654-3.787 8.441-8.441 8.441s-8.441-3.787-8.441-8.441v-42.65c0-11.243-7.659-20.727-18.031-23.521 11.059-18.229 23.434-35.639 37.095-52.104 5.542-6.681 13.686-10.506 22.359-10.506h.104c8.73.031 16.911 3.929 22.444 10.695 1.585 1.938 3.143 3.891 4.691 5.849 2.57 3.25 7.287 3.801 10.535 1.229 3.249-2.569 3.8-7.286 1.23-10.534-1.601-2.022-3.21-4.04-4.846-6.04-8.38-10.248-20.773-16.152-34.003-16.199-.053 0-.104 0-.157 0-13.15 0-25.501 5.8-33.903 15.928-30.947 37.304-55.597 79.242-73.262 124.65-4.916 12.636-3.812 26.597 3.027 38.305 6.789 11.621 18.302 19.379 31.588 21.282 23.717 3.398 47.719 5.098 71.854 5.098 24.277-.001 48.689-1.721 73.049-5.159 13.498-1.908 25.164-9.762 32.006-21.549zm-174.782 6.761c-8.729-1.251-16.297-6.354-20.764-14.001-4.518-7.733-5.247-16.954-2.001-25.299 7.285-18.724 15.808-36.831 25.496-54.246h1.91c5.161 0 9.359 4.198 9.359 9.359v42.65c0 12.926 10.516 23.441 23.441 23.441s23.441-10.516 23.441-23.441v-45.132c0-.104 0-.417.327-.677.217-.172.466-.229.734-.166 23.948 5.571 49.079 4.864 72.678-2.039l4.786-1.4c9.135 16.589 17.252 33.774 24.27 51.409 3.306 8.305 2.624 17.508-1.869 25.249-4.517 7.782-12.219 12.967-21.132 14.225-47.174 6.661-94.505 6.683-140.676.068z"/><path d="m188.919 213.582c3.82-4.604 8.859-7.872 14.572-9.448 3.993-1.101 6.337-5.23 5.236-9.224-1.102-3.993-5.232-6.34-9.225-5.235-8.688 2.396-16.339 7.352-22.129 14.33-30.946 37.302-55.596 79.239-73.262 124.65-4.916 12.635-3.812 26.597 3.028 38.306 6.789 11.62 18.302 19.377 31.587 21.28 23.719 3.399 47.722 5.099 71.856 5.098 24.277 0 48.687-1.72 73.045-5.159 19.436-2.743 34.883-18.235 37.564-37.673.566-4.104-2.302-7.889-6.404-8.455-4.111-.563-7.889 2.302-8.455 6.404-1.771 12.832-11.969 23.06-24.802 24.87-47.171 6.66-94.503 6.684-140.678.067-8.728-1.251-16.296-6.354-20.763-14-4.518-7.733-5.247-16.955-2.001-25.3 17.085-43.905 40.914-84.451 70.831-120.511z"/></g></g></svg>