<svg id="Capa_1" enable-background="new 0 0 511.701 511.701" height="512" viewBox="0 0 511.701 511.701" width="512" xmlns="http://www.w3.org/2000/svg"><g><g><path d="m387.034 32.127c-64.71 0-117.16 52.46-117.16 117.16v39.063c0 2.823 2.047 5.229 4.834 5.681l138.171 22.406 88.68-22.518c1.556-.395 2.645-1.796 2.645-3.401v-41.231c0-64.7-52.46-117.16-117.17-117.16z" fill="#a59ca6"/><path d="m501.891 126.03c-22.779-38.759-65.729-64.944-114.857-64.944-9.625 0-19.009 1.014-28.05 2.93-4.886 1.035-7.973-5.141-4.195-8.407 11.947-10.328 26-18.284 41.436-23.125-3.033-.235-6.098-.357-9.191-.357-64.71 0-117.16 52.46-117.16 117.16v39.063c0 2.823 2.047 5.229 4.834 5.681l39.797 6.454 98.374 15.953 88.679-22.518c1.556-.395 2.646-1.796 2.646-3.401v-41.231c0-7.965-.799-15.741-2.313-23.258z" fill="#8f8390"/><path d="m387.034 76.087c-64.71 0-117.16 50.782-117.16 113.434s52.45 113.444 117.16 113.444 117.17-50.792 117.17-113.444c0-62.653-52.46-113.434-117.17-113.434z" fill="#fcf6ed"/><path d="m387.034 178.056c-24.562 0-47.628 6.501-67.587 17.86-2.478 1.41-5.592-.399-5.594-3.25 0-.022 0-.044 0-.066 0-56.644 40.202-103.899 93.623-114.799-6.635-1.129-13.473-1.715-20.443-1.715-64.71 0-117.16 50.782-117.16 113.434s52.45 113.443 117.16 113.443c1.446 0 2.883-.034 4.316-.084-32.974-11.863-59.073-38.101-70.782-71.148l110.146 18.434 45.341 13.099c8.241-9.318 14.956-19.927 19.752-31.496-25.097-32.63-64.517-53.712-108.772-53.712z" fill="#fcf1de"/><circle cx="387.037" cy="193.25" fill="#f5cd8b" r="60.043"/><path d="m327.008 191.919c-.01.447-.014.881-.014 1.33 0 16.608 6.744 31.639 17.641 42.509l68.669 11.492c19.996-9.744 33.776-30.261 33.776-54.001 0-.447-.005-.889-.014-1.333-18.137-8.868-38.519-13.861-60.031-13.861-21.512.001-41.894 4.996-60.027 13.864z" fill="#f4c67b"/><path d="m387.034 198.055c-64.71 0-117.16 52.46-117.16 117.16v39.063c0 2.823 2.047 5.229 4.834 5.681l138.171 22.406 88.68-22.518c1.556-.395 2.645-1.796 2.645-3.401v-41.231c0-64.7-52.46-117.16-117.17-117.16z" fill="#a59ca6"/><path d="m121.769 35.358c-64.71 0-117.16 52.46-117.16 117.16v39.063c0 2.823 2.047 5.229 4.834 5.681l138.171 22.406 88.68-22.518c1.556-.395 2.645-1.796 2.645-3.401v-41.231c0-64.7-52.46-117.16-117.17-117.16z" fill="#a59ca6"/><path d="m236.626 129.261c-22.779-38.759-65.729-64.944-114.857-64.944-9.625 0-19.009 1.014-28.05 2.93-4.886 1.035-7.973-5.141-4.195-8.407 11.947-10.328 26-18.284 41.436-23.125-3.033-.235-6.098-.357-9.191-.357-64.71 0-117.16 52.46-117.16 117.16v39.063c0 2.823 2.047 5.229 4.834 5.681l39.797 6.454 98.374 15.953 88.679-22.518c1.556-.395 2.646-1.796 2.646-3.401v-41.231c0-7.964-.798-15.741-2.313-23.258z" fill="#8f8390"/><path d="m121.769 79.318c-64.71 0-117.16 50.782-117.16 113.434s52.45 113.443 117.16 113.443 117.17-50.792 117.17-113.443c0-62.652-52.46-113.434-117.17-113.434z" fill="#fcf6ed"/><path d="m127.55 182.323c-25.332 0-49.074 6.914-69.456 18.942-4.171 2.462-9.501-.477-9.506-5.32 0-.038 0-.076 0-.113 0-56.644 40.179-103.902 93.6-114.801-6.635-1.129-13.45-1.713-20.42-1.713-64.71 0-117.16 50.782-117.16 113.434s52.45 113.443 117.16 113.443c1.446 0 2.883-.034 4.316-.084-30.685-11.039-55.417-34.528-68.141-64.366l56.33 14.78 88.036 7.348v11.239c13.252-12.154 23.586-27.248 29.844-44.235-25.18-29.674-62.726-48.554-104.603-48.554z" fill="#fcf1de"/><circle cx="121.772" cy="196.481" fill="#f5cd8b" r="60.043"/><path d="m61.788 199.158c1.129 25.679 18.389 47.168 41.894 54.587l5.597 1.469c4.031.853 8.208 1.311 12.493 1.311 33.161 0 60.043-26.882 60.043-60.043 0-.999-.033-2.008-.081-2.995-16.632-7.186-34.945-11.163-54.184-11.163-23.814-.001-46.23 6.109-65.762 16.834z" fill="#f4c67b"/><path d="m127.55 202.323c-64.71 0-117.16 52.46-117.16 117.16v39.063c0 2.823 2.047 5.229 4.834 5.681l138.171 22.406 88.68-22.518c1.556-.395 2.645-1.796 2.645-3.401v-41.231c0-64.7-52.46-117.16-117.17-117.16z" fill="#a59ca6"/><path d="m242.408 296.227c-22.779-38.759-65.729-64.944-114.857-64.944-9.625 0-19.009 1.014-28.05 2.93-4.886 1.035-7.973-5.141-4.195-8.407 11.947-10.328 26-18.284 41.436-23.125-3.033-.235-6.098-.357-9.191-.357-64.71 0-117.16 52.46-117.16 117.16v39.063c0 2.823 2.047 5.229 4.834 5.681l39.797 6.454 98.374 15.953 88.679-22.518c1.556-.395 2.646-1.796 2.646-3.401v-41.231c-.001-7.965-.799-15.741-2.313-23.258z" fill="#8f8390"/><path d="m127.55 246.283c-64.71 0-117.16 50.782-117.16 113.434s52.45 113.444 117.16 113.444 117.17-50.792 117.17-113.444-52.46-113.434-117.17-113.434z" fill="#fcf6ed"/><path d="m54.37 362.797c0-56.644 40.199-103.899 93.62-114.799-6.635-1.129-13.471-1.715-20.44-1.715-64.71 0-117.16 50.782-117.16 113.434s52.45 113.443 117.16 113.443c1.446 0 2.883-.034 4.316-.084-45.186-16.256-77.496-59.492-77.496-110.279z" fill="#fcf1de"/><circle cx="127.553" cy="363.446" fill="#f5cd8b" r="60.043"/><g><g><path d="m501.891 291.958c-22.779-38.759-65.729-64.944-114.857-64.944-9.625 0-19.009 1.014-28.05 2.93-4.886 1.035-7.973-5.141-4.195-8.407 11.947-10.328 26-18.284 41.436-23.125-3.033-.235-6.098-.357-9.191-.357-64.71 0-117.16 52.46-117.16 117.16v39.063c0 2.823 2.047 5.229 4.834 5.681l39.797 6.454 98.374 15.953 88.679-22.518c1.556-.395 2.646-1.796 2.646-3.401v-41.231c0-7.964-.799-15.74-2.313-23.258z" fill="#8f8390"/><path d="m387.034 242.015c-64.71 0-117.16 50.782-117.16 113.434s52.45 113.444 117.16 113.444 117.17-50.792 117.17-113.444-52.46-113.434-117.17-113.434z" fill="#fcf6ed"/><path d="m313.853 358.529c0-56.644 40.201-103.901 93.623-114.801-6.635-1.129-13.473-1.713-20.442-1.713-64.71 0-117.16 50.782-117.16 113.434s52.45 113.443 117.16 113.443c1.446 0 2.899-.032 4.332-.082-45.187-16.256-77.513-59.494-77.513-110.281z" fill="#fcf1de"/><circle cx="387.037" cy="359.178" fill="#f5cd8b" r="60.043"/></g></g></g><g><path d="m124.665 190.555c-68.741 0-124.665 55.924-124.665 124.665 0 0 .273 53.438.812 58.179.468 4.115 4.181 7.069 8.299 6.604 4.116-.468 7.073-4.184 6.605-8.3-.475-4.18-.716-8.393-.716-12.524 0-60.47 49.195-109.665 109.665-109.665s109.665 49.195 109.665 109.665c0 60.469-49.195 109.664-109.665 109.664-44.734 0-84.588-26.756-101.532-68.164-1.568-3.832-5.948-5.667-9.782-4.101-3.833 1.568-5.67 5.948-4.101 9.782 19.261 47.068 64.564 77.482 115.415 77.482 68.741 0 124.665-55.924 124.665-124.664 0 0 0 0 0-.001v-43.957c0-68.741-55.925-124.665-124.665-124.665zm0 43.959c-46.234 0-86.669 25.3-108.192 62.782 8.58-51.973 53.826-91.741 108.192-91.741s99.611 39.769 108.192 91.741c-21.523-37.482-61.958-62.782-108.192-62.782z"/><path d="m192.208 359.178c0-37.243-30.3-67.543-67.543-67.543s-67.543 30.3-67.543 67.543c0 37.244 30.3 67.544 67.543 67.544s67.543-30.3 67.543-67.544zm-120.086 0c0-28.973 23.571-52.543 52.543-52.543 28.973 0 52.543 23.57 52.543 52.543s-23.571 52.544-52.543 52.544c-28.973 0-52.543-23.572-52.543-52.544z"/><path d="m121.776 337.742c1.826 0 3.658-.663 5.102-2.004l5.781-5.368c3.035-2.819 3.211-7.564.392-10.6-2.818-3.035-7.563-3.211-10.599-.393l-5.781 5.368c-3.035 2.819-3.211 7.564-.392 10.6 1.477 1.593 3.484 2.397 5.497 2.397z"/><path d="m150.842 366.353c1.468 2.019 3.754 3.09 6.072 3.09 1.529 0 3.073-.467 4.405-1.436 3.35-2.436 4.091-7.127 1.655-10.477l-3.304-4.543c-2.436-3.349-7.126-4.091-10.477-1.654-3.35 2.436-4.091 7.127-1.655 10.477z"/><path d="m134.849 388.782c0-4.143-3.358-7.5-7.5-7.5h-5.368c-4.142 0-7.5 3.357-7.5 7.5s3.358 7.5 7.5 7.5h5.368c4.142 0 7.5-3.357 7.5-7.5z"/><path d="m100.251 352.577-6.607-2.271c-3.917-1.347-8.185.736-9.531 4.654-1.347 3.917.737 8.185 4.654 9.531l6.607 2.271c.808.277 1.63.409 2.439.409 3.113 0 6.023-1.954 7.092-5.063 1.347-3.917-.737-8.184-4.654-9.531z"/><path d="m117.165 357.178v2.764c0 4.143 3.358 7.5 7.5 7.5s7.5-3.357 7.5-7.5v-2.764c0-4.143-3.358-7.5-7.5-7.5s-7.5 3.357-7.5 7.5z"/><path d="m124.665 27.858c-68.741 0-124.665 55.924-124.665 124.664v43.959c0 9.35 1.045 18.686 3.105 27.748.791 3.48 3.883 5.84 7.307 5.84.55 0 1.11-.062 1.669-.188 4.039-.918 6.569-4.937 5.651-8.976-1.813-7.974-2.732-16.191-2.732-24.424 0-60.469 49.195-109.664 109.665-109.664 14.849 0 29.247 2.915 42.795 8.663 3.812 1.615 8.215-.163 9.833-3.975 1.618-3.813-.162-8.216-3.975-9.834-15.412-6.539-31.781-9.854-48.654-9.854-46.234 0-86.669 25.3-108.192 62.782 8.581-51.972 53.826-91.741 108.192-91.741 54.303 0 99.505 39.675 108.162 91.558-7.669-13.337-17.852-25.311-30.251-35.25-3.233-2.591-7.953-2.07-10.543 1.162-2.591 3.231-2.071 7.952 1.161 10.543 26.143 20.954 41.136 52.158 41.136 85.61 0 8.233-.919 16.451-2.732 24.423-.918 4.039 1.611 8.058 5.65 8.977.56.127 1.119.188 1.67.188 3.423 0 6.515-2.359 7.307-5.839 2.061-9.062 3.105-18.397 3.105-27.749v-43.959c.001-68.74-55.924-124.664-124.664-124.664z"/><path d="m175.146 181.915c.947 3.287 3.946 5.426 7.204 5.426.687 0 1.386-.096 2.079-.295 3.98-1.146 6.278-5.303 5.131-9.283-8.28-28.747-34.966-48.824-64.896-48.824s-56.614 20.077-64.894 48.824c-1.146 3.98 1.151 8.137 5.131 9.283 3.981 1.15 8.136-1.151 9.283-5.131 6.44-22.36 27.199-37.977 50.481-37.977s44.041 15.617 50.481 37.977z"/><path d="m122.451 156.682-5.781 5.369c-3.035 2.818-3.21 7.564-.391 10.6 1.478 1.591 3.484 2.396 5.497 2.396 1.826 0 3.658-.663 5.102-2.005l5.781-5.369c3.035-2.818 3.21-7.564.391-10.6-2.818-3.035-7.564-3.213-10.599-.391z"/><path d="m387.037 190.555c-68.74 0-124.665 55.925-124.665 124.665v43.958c0 68.74 55.924 124.665 124.665 124.665s124.665-55.925 124.665-124.665v-43.958c-.001-68.741-55.925-124.665-124.665-124.665zm0 278.288c-60.469 0-109.665-49.195-109.665-109.665 0-60.469 49.195-109.664 109.665-109.664s109.665 49.195 109.665 109.664c-.001 60.469-49.196 109.665-109.665 109.665zm0-234.329c-46.232 0-86.666 25.298-108.189 62.777 8.583-51.97 53.825-91.736 108.189-91.736s99.607 39.766 108.19 91.737c-21.524-37.48-61.958-62.778-108.19-62.778z"/><path d="m430.721 317.314c-3.321 2.476-4.006 7.174-1.531 10.495 6.797 9.117 10.389 19.965 10.389 31.369 0 28.973-23.571 52.543-52.543 52.543s-52.543-23.57-52.543-52.543 23.571-52.543 52.543-52.543c6.914 0 13.644 1.329 20.003 3.951 3.828 1.579 8.213-.245 9.792-4.074 1.579-3.83-.245-8.214-4.075-9.793-8.181-3.373-16.835-5.084-25.721-5.084-37.243 0-67.543 30.3-67.543 67.543s30.3 67.543 67.543 67.543 67.543-30.3 67.543-67.543c0-14.66-4.621-28.607-13.363-40.334-2.474-3.321-7.173-4.007-10.494-1.53z"/><path d="m395.423 319.771c-2.818-3.033-7.563-3.211-10.6-.393l-5.781 5.368c-3.035 2.818-3.211 7.564-.393 10.6 1.478 1.591 3.485 2.396 5.498 2.396 1.826 0 3.657-.663 5.102-2.004l5.781-5.368c3.036-2.818 3.212-7.564.393-10.599z"/><path d="m411.566 351.332c-3.35 2.437-4.091 7.127-1.655 10.477l3.303 4.543c1.468 2.02 3.753 3.091 6.072 3.091 1.529 0 3.073-.467 4.404-1.435 3.35-2.437 4.091-7.127 1.655-10.477l-3.303-4.543c-2.435-3.35-7.125-4.09-10.476-1.656z"/><path d="m376.853 388.782c0 4.143 3.358 7.5 7.5 7.5h5.368c4.142 0 7.5-3.357 7.5-7.5s-3.358-7.5-7.5-7.5h-5.368c-4.143 0-7.5 3.358-7.5 7.5z"/><path d="m356.017 350.306c-3.92-1.347-8.184.736-9.531 4.654-1.347 3.917.737 8.185 4.654 9.531l6.607 2.271c.808.277 1.63.409 2.439.409 3.113 0 6.023-1.954 7.092-5.063 1.347-3.917-.737-8.185-4.654-9.531z"/><path d="m394.537 359.941v-2.764c0-4.143-3.358-7.5-7.5-7.5s-7.5 3.357-7.5 7.5v2.764c0 4.143 3.358 7.5 7.5 7.5s7.5-3.357 7.5-7.5z"/><path d="m387.037 27.858c-68.74 0-124.665 55.924-124.665 124.664v43.959c0 9.352 1.045 18.688 3.105 27.749.792 3.479 3.883 5.839 7.307 5.839.551 0 1.11-.062 1.67-.188 4.039-.919 6.569-4.938 5.65-8.977-1.813-7.972-2.732-16.188-2.732-24.423 0-60.469 49.195-109.664 109.665-109.664s109.665 49.195 109.665 109.664c0 8.233-.919 16.45-2.732 24.423-.918 4.039 1.612 8.059 5.651 8.977 4.036.919 8.058-1.612 8.976-5.65 2.06-9.062 3.105-18.398 3.105-27.749v-43.959c-.001-68.741-55.925-124.665-124.665-124.665zm0 43.959c-46.234 0-86.669 25.3-108.192 62.782 8.581-51.972 53.826-91.741 108.192-91.741 54.365 0 99.608 39.767 108.19 91.738-21.523-37.48-61.957-62.779-108.19-62.779z"/><path d="m437.518 181.915c.947 3.286 3.946 5.426 7.204 5.426.687 0 1.386-.096 2.079-.295 3.98-1.146 6.278-5.303 5.131-9.283-8.28-28.747-34.965-48.824-64.895-48.824s-56.615 20.077-64.895 48.824c-1.146 3.98 1.151 8.137 5.131 9.283 3.983 1.15 8.137-1.151 9.283-5.131 6.44-22.36 27.198-37.977 50.481-37.977s44.041 15.617 50.481 37.977z"/><path d="m384.823 156.682-5.781 5.369c-3.035 2.818-3.21 7.563-.392 10.599 1.478 1.592 3.485 2.396 5.498 2.396 1.826 0 3.658-.663 5.102-2.005l5.781-5.369c3.035-2.818 3.21-7.563.392-10.599s-7.564-3.213-10.6-.391z"/></g></g></svg>