<svg id="Filled" height="512" viewBox="0 0 512 512" width="512" xmlns="http://www.w3.org/2000/svg"><rect fill="#d49073" height="32" rx="16" width="312" x="104" y="184"/><rect fill="#ad6643" height="32" rx="16" width="304" x="120" y="216"/><rect fill="#d49073" height="32" rx="16" width="312" x="104" y="248"/><rect fill="#ad6643" height="32" rx="16" width="304" x="120" y="280"/><rect fill="#d49073" height="32" rx="16" width="288" x="112" y="312"/><rect fill="#ad6643" height="32" rx="16" width="296" x="120" y="344"/><path d="m24 376h464a0 0 0 0 1 0 0 32 32 0 0 1 -32 32h-400a32 32 0 0 1 -32-32 0 0 0 0 1 0 0z" fill="#dadcde"/><path d="m240 120h64v48h-64z" fill="#ffe76c"/><path d="m200 248a16 16 0 0 0 -16 16v96a16 16 0 0 1 -16 16 16 16 0 0 1 -16-16v-160a32 32 0 0 1 32-32h40a16 16 0 0 1 16-16h64a16 16 0 0 1 16 16h32a32 32 0 0 1 32 32v88c0 13.25-2.75 24-16 24s-16-10.75-16-24v-56a16 16 0 0 0 -16-16h-8a16 16 0 0 0 -16 16v16h-8a16 16 0 0 0 -16 16 16 16 0 0 1 -16 16 16 16 0 0 1 -16-16v-32a16 16 0 0 0 -16-16h-7.557c-8.787 0-16.46 7.182-16.443 15.969v16.031z" fill="#ffd33a"/><path d="m488 368h-65.376a23.986 23.986 0 0 0 -16.324-31.154 23.923 23.923 0 0 0 .324-16.846h1.376a23.99 23.99 0 0 0 12.9-44.223 23.914 23.914 0 0 0 0-23.554 23.971 23.971 0 0 0 0-40.446 23.982 23.982 0 0 0 -20.9-35.777h-16.022a39.962 39.962 0 0 0 -31.978-16h-25.371a24.107 24.107 0 0 0 -14.629-14.613v-25.387a8 8 0 0 0 -8-8h-64a8 8 0 0 0 -8 8v25.387a24.109 24.109 0 0 0 -14.629 14.613h-33.371a39.962 39.962 0 0 0 -31.978 16h-32.022a24 24 0 0 0 -6.3 47.154 23.9 23.9 0 0 0 0 17.692 24 24 0 0 0 0 46.308 23.914 23.914 0 0 0 1.4 20.623 23.972 23.972 0 0 0 0 40.446 23.93 23.93 0 0 0 -1.724 19.777h-89.376a8 8 0 0 0 -8 8 40.045 40.045 0 0 0 40 40h400a40.045 40.045 0 0 0 40-40 8 8 0 0 0 -8-8zm-80-8a8.009 8.009 0 0 1 -8 8h-209.376a23.885 23.885 0 0 0 1.376-8v-8h208a8.009 8.009 0 0 1 8 8zm8-128a8.009 8.009 0 0 1 -8 8h-16v-16h16a8.009 8.009 0 0 1 8 8zm-8 32a8.009 8.009 0 0 1 -8 8h-8v-16h8a8.009 8.009 0 0 1 8 8zm-8-72a8 8 0 0 1 0 16h-8v-8a40.028 40.028 0 0 0 -.805-8zm-8 96h16a8 8 0 0 1 0 16h-18a53.4 53.4 0 0 0 2-16zm-8 32a8 8 0 0 1 0 16h-192v-16zm-136-64v8a23.885 23.885 0 0 0 1.376 8h-57.376v-8a8.009 8.009 0 0 1 8-8zm-24-16v-8.046a7.583 7.583 0 0 1 2.326-5.361 8.73 8.73 0 0 1 6.117-2.593h7.557a8.009 8.009 0 0 1 8 8v8zm120 48a53.4 53.4 0 0 0 2 16h-154v-16zm0-32v16h-49.376a23.885 23.885 0 0 0 1.376-8 8.009 8.009 0 0 1 8-8zm-24-16v-8a8.009 8.009 0 0 1 8-8h8a8.009 8.009 0 0 1 8 8v8zm-72-112h48v16h-48zm-88 72a24.027 24.027 0 0 1 24-24h40a8 8 0 0 0 8-8 8.009 8.009 0 0 1 8-8h64a8.009 8.009 0 0 1 8 8 8 8 0 0 0 8 8h32a24.027 24.027 0 0 1 24 24v88c0 16-4.25 16-8 16s-8 0-8-16v-56a24.027 24.027 0 0 0 -24-24h-8a24.027 24.027 0 0 0 -24 24v8a24.027 24.027 0 0 0 -24 24 8 8 0 0 1 -16 0v-32a24.027 24.027 0 0 0 -24-24h-7.557a24.841 24.841 0 0 0 -17.443 7.29 23.465 23.465 0 0 0 -7 16.679v8.031h-8a24.027 24.027 0 0 0 -24 24v96a8 8 0 0 1 -16 0zm-24 120h8v16h-16a8 8 0 0 1 0-16zm-8-24a8.009 8.009 0 0 1 8-8h8v16h-8a8.009 8.009 0 0 1 -8-8zm8 56h8v8a23.885 23.885 0 0 0 1.376 8h-9.376a8 8 0 0 1 0-16zm8-112h-8a8 8 0 0 1 0-16h8zm-32-40a8.009 8.009 0 0 1 8-8h24.805a40.028 40.028 0 0 0 -.805 8v8h-24a8.009 8.009 0 0 1 -8-8zm0 64a8.009 8.009 0 0 1 8-8h24v16h-24a8.009 8.009 0 0 1 -8-8zm344 136h-400a24.042 24.042 0 0 1 -22.629-16h445.258a24.042 24.042 0 0 1 -22.629 16z"/><path d="m256 192h32a8 8 0 0 0 0-16h-32a8 8 0 0 0 0 16z"/></svg>