<svg id="Filled" height="512" viewBox="0 0 512 512" width="512" xmlns="http://www.w3.org/2000/svg"><path d="m40 256c0-79.529 96.706-144 216-144s216 64.471 216 144z" fill="#e09f2c"/><path d="m480 240-32 160h-384l-32-160z" fill="#95573a"/><g fill="#f7b030"><ellipse cx="344" cy="240" rx="48" ry="24"/><ellipse cx="432" cy="240" rx="48" ry="24"/><ellipse cx="80" cy="240" rx="48" ry="24"/><ellipse cx="168" cy="240" rx="48" ry="24"/><ellipse cx="256" cy="240" rx="48" ry="24"/></g><path d="m256 176a8 8 0 0 0 8-8v-24a8 8 0 0 0 -16 0v24a8 8 0 0 0 8 8z"/><path d="m200 176a7.974 7.974 0 0 0 5.657-2.343l24-24a8 8 0 0 0 -11.314-11.314l-24 24a8 8 0 0 0 5.657 13.657z"/><path d="m306.343 173.657a8 8 0 1 0 11.314-11.314l-24-24a8 8 0 0 0 -11.314 11.314z"/><path d="m470.988 213.042c-27.712-64.389-115.336-109.042-214.988-109.042s-187.276 44.653-214.988 109.042c-15.281 5.59-25.012 15.365-25.012 26.958 0 9.448 6.469 17.686 17.129 23.44l22.979 137.875a8 8 0 0 0 7.892 6.685h384a8 8 0 0 0 7.892-6.685l22.979-137.875c10.66-5.754 17.129-13.992 17.129-23.44 0-11.593-9.731-21.368-25.012-26.958zm-344.343-63.393c37.155-19.396 81.886-29.649 129.355-29.649s92.2 10.253 129.355 29.649c29.562 15.433 52.3 35.992 65.5 58.908a105.6 105.6 0 0 0 -10.855-.557c-20.864 0-38.37 5.877-48 15.041-9.63-9.164-27.136-15.041-48-15.041-17.533 0-33.647 4.413-43.977 11.767-10.088-7.267-25.767-11.767-44.023-11.767s-33.91 4.5-44 11.75c-10.311-7.366-26.336-11.75-44-11.75-20.864 0-38.37 5.877-48 15.041-9.63-9.164-27.136-15.041-48-15.041a105.6 105.6 0 0 0 -10.853.557c13.194-22.916 35.936-43.475 65.498-58.908zm183.741 82.391c6.784-4.357 18.6-8.04 33.614-8.04 24.418 0 40 9.477 40 16s-15.582 16-40 16c-14.977 0-26.828-3.7-33.612-8.045a20.435 20.435 0 0 0 0-15.915zm-108.781 15.9c-6.761 4.335-18.551 8.06-33.605 8.06-24.418 0-40-9.477-40-16s15.582-16 40-16c11.507 0 25.278 2.5 33.638 7.979a20.445 20.445 0 0 0 -.033 15.959zm-169.605-7.94c0-6.523 15.582-16 40-16s40 9.477 40 16-15.582 16-40 16-40-9.477-40-16zm38.777 152-20.383-122.3a98.483 98.483 0 0 0 21.606 2.3c3.319 0 6.548-.157 9.679-.444l13.383 120.444zm40.383 0-13.7-123.272c9.421-2.618 17.193-6.685 22.536-11.769l.064.058 15 134.983zm40 0-13.882-124.946a87.285 87.285 0 0 0 24.43 4.759l13.354 120.187zm40 0-13.384-120.457a83.782 83.782 0 0 0 23.3-5.41l13.986 125.867zm56.84 0h-16.84l-14.3-128.707c8.2 4.488 18.924 7.488 31.14 8.4zm32.84 0h-16.84v-120.3c12.216-.916 22.941-3.916 31.14-8.4zm-24.84-136c-24.418 0-40-9.477-40-16s15.582-16 40-16 40 9.477 40 16-15.582 16-40 16zm64.84 136h-23.9l13.99-125.927a84.541 84.541 0 0 0 23.3 5.445zm40 0h-23.9l13.354-120.187a87.285 87.285 0 0 0 24.43-4.759zm40 0h-23.9l15-134.983.064-.058c5.343 5.084 13.115 9.151 22.536 11.769zm40.383 0h-24.285l13.383-120.444c3.131.287 6.36.444 9.679.444a98.483 98.483 0 0 0 21.606-2.3zm-1.223-136c-24.418 0-40-9.477-40-16s15.582-16 40-16 40 9.477 40 16-15.582 16-40 16z"/></svg>