<?xml version="1.0" encoding="UTF-8"?>
<svg xmlns="http://www.w3.org/2000/svg" id="Filled" viewBox="0 0 512 512" width="512" height="512"><path d="M368,56c-51.06,0-94.67,38.27-112,92.21C238.67,94.27,195.06,56,144,56,77.73,56,24,120.47,24,200c0,141.38,103.87,256,232,256S488,341.38,488,200C488,120.47,434.27,56,368,56ZM256,408C145.54,408,72,328.13,72,200c0-57.44,23.4-96,72-96s72,38.56,72,96h80c0-57.44,23.4-96,72-96s72,38.56,72,96C440,328.13,366.46,408,256,408Z" style="fill:#995b3c"/><path d="M256,192s8.333,158.333-168,224h0a24,24,0,0,0,24,24h0s184-24.333,184-248Z" style="fill:#a1603f"/><path d="M256,192S239.667,350.333,416,416h0a24,24,0,0,1-24,24h0S216,415.667,216,192Z" style="fill:#ab6643"/><path d="M272,225.316l-48-16c-12.411-4.654-20.654-19.589-16-32h0c4.654-12.411,20.023-20.654,32.433-16l47.987,16c12.411,4.654,20.234,19.589,15.58,32h0C299.346,221.727,284.411,229.97,272,225.316Z" style="fill:#ab6643"/><path d="M272,278.684l-48-16c-12.411-4.654-20.654-19.589-16-32h0c4.654-12.411,20.023-20.654,32.433-16l47.987,16c12.411,4.654,20.234,19.589,15.58,32h0C299.346,275.1,284.411,283.338,272,278.684Z" style="fill:#a1603f"/><circle cx="280" cy="248" r="8"/><path d="M368,48c-26.625,0-52.141,9.595-73.789,27.747A146.137,146.137,0,0,0,256,126.323a146.149,146.149,0,0,0-38.211-50.576C196.14,57.6,170.624,48,144,48,73.421,48,16,116.187,16,200A282.775,282.775,0,0,0,41.762,319.127a264.02,264.02,0,0,0,59.682,82.831q-7.922,3.436-16.236,6.545A8,8,0,0,0,80,416a32.036,32.036,0,0,0,32,32,8,8,0,0,0,1.049-.069c.782-.1,16.2-2.221,38.086-10.424a220.747,220.747,0,0,0,207.021,1.428c18.819,6.974,31.865,8.868,32.748,8.99A8.052,8.052,0,0,0,392,448a32.036,32.036,0,0,0,32-32,8,8,0,0,0-5.208-7.5c-3.65-1.359-7.223-2.787-10.757-4.248a263.3,263.3,0,0,0,61.7-84.047A282.59,282.59,0,0,0,496,200C496,116.187,438.579,48,368,48ZM297.6,227.752a35.228,35.228,0,0,0,13.888-16.943c4.066-10.841,1.169-23.268-6.24-32.206C311.964,123.677,342.921,112,368,112c23.9,0,64,11.433,64,88,0,78.867-28.3,140.225-79.814,173.473a223.739,223.739,0,0,1-29.233-25.126,206.1,206.1,0,0,1-40.387-59.228,33.767,33.767,0,0,0,12.014-3.611,35.5,35.5,0,0,0,16.91-18.7C316.752,252.779,310.358,236.088,297.6,227.752Zm-95.11-29.172a36.252,36.252,0,0,0,12.2,13.586,35.044,35.044,0,0,0-14.186,17.025c-2.976,7.934-2.253,17.189,1.982,25.389a36.159,36.159,0,0,0,13.342,14.3q2.817,12.846,6.65,24.969a223.8,223.8,0,0,1-66.5,77.072C106.937,337.127,80,276.684,80,200c0-76.567,40.1-88,64-88,16.709,0,30.415,5.034,40.737,14.962,9.41,9.049,16.061,22.075,19.8,38.747a32.487,32.487,0,0,0-4.027,7.482C197.534,181.125,198.257,190.38,202.492,198.58Zm14.216,48.657a15.514,15.514,0,0,1-1.218-12.428,19.56,19.56,0,0,1,9.437-10.074c4.324-2.194,8.953-2.647,12.7-1.245.092.035.185.068.278.1l47.833,15.949c8.5,3.272,13.736,13.754,10.774,21.653a19.338,19.338,0,0,1-9.273,10.1,15.522,15.522,0,0,1-12.428,1.218c-.092-.035-.186-.069-.279-.1l-47.845-15.948A19.363,19.363,0,0,1,216.708,247.237Zm79.8-42.046a19.338,19.338,0,0,1-9.273,10.1,15.518,15.518,0,0,1-12.428,1.218c-.092-.035-.186-.069-.279-.1l-47.845-15.948a19.363,19.363,0,0,1-9.977-9.225,15.514,15.514,0,0,1-1.218-12.428,19.56,19.56,0,0,1,9.437-10.074c4.324-2.194,8.953-2.648,12.7-1.245.092.035.185.068.278.1l1.347.449a8.014,8.014,0,1,0,6.113,2.038l40.373,13.462C294.241,186.81,299.472,197.292,296.51,205.191ZM59.1,318.314a8,8,0,1,0-3.089-6.521,264.874,264.874,0,0,1-23.337-92.587,8,8,0,1,0-.332-5.513C32.122,209.153,32,204.59,32,200a157.52,157.52,0,0,1,16.175-70.339,8.018,8.018,0,1,0,5-9.137c18.9-31.754,48.791-53.248,82.846-56.175a7.989,7.989,0,0,0,15.964,0c19.937,1.707,38.991,9.792,55.527,23.657,18.577,15.577,32.711,37.24,40.875,62.649h0v0c.421,1.309.817,2.632,1.205,3.96l-6.5-2.167c-7.765-2.858-16.834-2.193-24.988,1.815-7.761-26.529-22.925-44.562-44.161-52.926a8.007,8.007,0,1,0-13.808-3.91A89.2,89.2,0,0,0,144,96c-25.906,0-46.914,10.316-60.751,29.833-8.119,11.452-13.684,25.719-16.668,42.6A8,8,0,1,0,64,184c.21,0,.417-.016.623-.031Q64.011,191.69,64,200a308.014,308.014,0,0,0,3.793,48.956,8,8,0,1,0,2.257,12.269c5.961,28.5,16.271,53.9,30.6,75.518a7.995,7.995,0,1,0,9.2,12.7,171.863,171.863,0,0,0,32.1,31.11A277.731,277.731,0,0,1,117.175,394.6,246.191,246.191,0,0,1,59.1,318.314Zm52.37,113.677a16.032,16.032,0,0,1-14.611-10.817,323.8,323.8,0,0,0,33.564-15.446,7.987,7.987,0,0,0,13.36-7.556,264.453,264.453,0,0,0,42.444-31.486A242.467,242.467,0,0,0,208,343.989V344a8.011,8.011,0,1,0,6.286-7.812,236.564,236.564,0,0,0,15.383-22.477A237.507,237.507,0,0,0,245.6,345.729a204.585,204.585,0,0,1-45.646,47.107A8.251,8.251,0,0,0,200,392a8,8,0,1,0-9.876,7.77,219.127,219.127,0,0,1-29.691,16.546C135.135,427.931,114.916,431.451,111.469,431.991Zm143.5-71.887c.589.832,1.166,1.675,1.765,2.5a215.633,215.633,0,0,0,31.77,34.833,206.56,206.56,0,0,1-68.006-.518A219.58,219.58,0,0,0,254.971,360.1ZM256,448c-5.382,0-10.724-.231-16.032-.641a8,8,0,0,0-15.587-1.795,203.622,203.622,0,0,1-53.894-16.3,235.015,235.015,0,0,0,33.431-19.541A211.979,211.979,0,0,0,256,416c5.407,0,10.749-.21,16.029-.582-.013.193-.029.385-.029.582a8,8,0,1,0,15.672-2.254q8.767-1.269,17.191-3.255,5.182,3.744,10.6,7.215a225.435,225.435,0,0,0,23.113,12.882A203.227,203.227,0,0,1,256,448Zm136.552-16.01c-4.405-.719-34.793-6.3-68.488-27.776a203.468,203.468,0,0,1-17.609-12.6,8,8,0,1,0-10.348-8.859,199.526,199.526,0,0,1-26.441-29.577,208.875,208.875,0,0,1-16.624-26.968,8,8,0,0,0-6.673-14.041,248.818,248.818,0,0,1-12.464-36.432l29.846,9.948a222.04,222.04,0,0,0,28.907,51.822,8.033,8.033,0,1,0,2.816,3.662,225.379,225.379,0,0,0,16.017,18.343,238.794,238.794,0,0,0,29.064,25.278,8,8,0,1,0,11.406,7.974,298.548,298.548,0,0,0,55.181,28.411A16.031,16.031,0,0,1,392.552,431.99Zm86.084-204.459a8.009,8.009,0,1,0-1.209,10.335,263.364,263.364,0,0,1-22.195,75.589,253.026,253.026,0,0,1-15.53,28.4,8.036,8.036,0,1,0-6.719,10.074,239.621,239.621,0,0,1-41.031,45.136,273.134,273.134,0,0,1-25.42-13.961c24.154-16.987,43.391-39.9,57.278-68.271q2.74-5.6,5.16-11.435a8,8,0,1,0,5.624-14.964C443.5,261.886,448,232.264,448,200a191.466,191.466,0,0,0-1.464-24.14,8,8,0,1,0-2.616-14.733c-3.195-13.721-8.25-25.534-15.169-35.294C414.914,106.316,393.906,96,368,96c-24.631,0-44.411,9.3-58.145,26.562a7.994,7.994,0,1,0-8.422,13.01,113.786,113.786,0,0,0-10.784,32.739l-22.991-7.666c-.939-4.175-2.02-8.314-3.255-12.37,8.269-24.381,22.094-45.179,40.088-60.267C323.222,72.3,345.183,64,368,64c2.08,0,4.145.075,6.2.211a8,8,0,1,0,5.024.469C402.273,67.478,423.283,78.8,440.087,96c-.029,0-.058,0-.087,0a8,8,0,1,0,7.952,8.865C467.763,129.409,480,163,480,200Q480,213.922,478.636,227.531Z"/></svg>
