<svg id="Filled" height="512" viewBox="0 0 512 512" width="512" xmlns="http://www.w3.org/2000/svg"><path d="m256 24h48v208h-48z" fill="#f7cca9"/><path d="m344 482c9.2 9.2 20.844 6.693 32 0l64-32a22.984 22.984 0 0 0 0-32l-32-32a22.984 22.984 0 0 0 -32 0l-32 64c-6.693 11.159-9.2 22.8 0 32z" fill="#eb423f"/><path d="m360 488h-160l-48-288h256z" fill="#fba0c4"/><path d="m160 168s16.333-32 56-32 40 32 96 32c64 0 80-24 80-24s16 16.667 16 56h-256s2.667-22 8-32z" fill="#fba0c4"/><g fill="#eb423f"><path d="m288 384c0 13.255-10.745 32-24 32s-24-18.745-24-32a24 24 0 0 1 48 0z"/><path d="m360 288c0 13.255-10.745 32-24 32s-24-18.745-24-32a24 24 0 0 1 48 0z"/><circle cx="272" cy="456" r="8"/><path d="m209.373 479.332c-13.3 13.3-39.874 9.676-56 0l-72-48c-12.5-12.5-12.5-27.5 0-40l48-48c12.5-12.5 27.5-12.5 40 0l48 80c9.675 16.126 5.298 42.702-8 56z"/></g><path d="m144 200h272v32h-272z" fill="#dadcde"/><path d="m264 352a32.036 32.036 0 0 0 -32 32c0 15.924 12.763 40 32 40s32-24.076 32-40a32.036 32.036 0 0 0 -32-32zm0 56c-6.609 0-16-12.412-16-24a16 16 0 0 1 32 0c0 11.588-9.391 24-16 24z"/><path d="m336 256a32.036 32.036 0 0 0 -32 32c0 15.924 12.763 40 32 40s32-24.076 32-40a32.036 32.036 0 0 0 -32-32zm0 56c-6.609 0-16-12.412-16-24a16 16 0 0 1 32 0c0 11.588-9.391 24-16 24z"/><path d="m456 393.969h-12.686l10.343-10.344a8 8 0 0 0 -11.314-11.313l-10.343 10.343v-12.686a8 8 0 0 0 -16 0v12.72l-2.343-2.342a30.819 30.819 0 0 0 -26.191-8.478l21.979-131.869h6.555a8 8 0 0 0 8-8v-32a8 8 0 0 0 -8-8h-.242c-3.522-60.417-46.658-110.364-103.758-124.188v-43.812a8 8 0 0 0 -8-8h-48a8 8 0 0 0 -8 8v43.812c-57.1 13.824-100.236 63.771-103.758 124.188h-.242a8 8 0 0 0 -8 8v32a8 8 0 0 0 8 8h6.556l15.07 90.424a32.742 32.742 0 0 0 -16.253-4.464c-9.121 0-17.993 4.051-25.657 11.716l-15.1 15.1 12.184-30.476a8 8 0 0 0 -14.856-5.943l-11.491 28.743-7.421-7.421a8 8 0 0 0 -11.314 11.313l7.029 7.029-29.716 11.884a8 8 0 1 0 5.942 14.855l32.764-13.106-16.021 16.022c-7.664 7.664-11.716 16.536-11.716 25.657s4.052 17.992 11.716 25.656a7.958 7.958 0 0 0 1.22 1l72 48c.1.07.212.138.321.2a71.881 71.881 0 0 0 32.826 9.748c.646.028 1.917.06 1.917.06h176c.154 0 .732-.035.764-.038 7.314-.5 13.494-3.6 19.085-6.939l63.729-31.864a8.013 8.013 0 0 0 2.079-1.5 31.037 31.037 0 0 0 0-43.313l-2.378-2.378h12.721a8 8 0 0 0 0-16zm-304-169.969v-16h256v16zm9.333-32c1.271-7 3.253-15.6 5.726-20.235l.067-.128a56.153 56.153 0 0 1 48.874-27.637c15.683 0 23.914 5.549 34.334 12.575 13.506 9.105 28.813 19.425 61.666 19.425 46.285 0 69.24-12.033 79.534-20.272a119.136 119.136 0 0 1 8.193 36.272zm102.667-45.549v-13.507l32 16v9.971c-14.512-2.128-23.762-7.115-32-12.464zm32-15.395-32-16v-22.112l32 16zm0-40-21.824-10.913c1.93-.092 3.871-.143 5.824-.143a120.675 120.675 0 0 1 16 1.069zm88.294 49.644c-1.8 1.823-5.883 5.346-13.363 8.866-10.114 4.761-28.548 10.434-58.931 10.434v-75.661a120.519 120.519 0 0 1 72.294 56.361zm-88.294-108.7v19.056l-32-16v-3.056zm-32 20.944 22.423 11.212c-2.129-.1-4.27-.156-6.423-.156a136.786 136.786 0 0 0 -16 .946zm-16 31.395v51.846a62.544 62.544 0 0 0 -32-8.185 71.257 71.257 0 0 0 -39.523 11.379 120.509 120.509 0 0 1 71.523-55.04zm-44.284 389.337c-9.738 9.735-32.041 7.228-46.07-1.11l-71.141-47.427c-3.084-3.223-6.5-8.089-6.5-13.806 0-6.045 3.823-11.137 7.03-14.344l48-48c3.206-3.206 8.3-7.029 14.343-7.029 5.64 0 10.45 3.328 13.674 6.378l47.466 79.11c7.595 12.668 4.293 35.134-6.802 46.228zm149.507 6.324h-133.9c12.587-16.947 15.139-43.738 4.912-60.783l-38.2-63.661-19.258-115.556h226.446zm81.9-36.5s-64.464 32.368-65.043 32.7l3.124-18.74a8 8 0 1 0 2.8-15.487c-.074 0-.146.009-.219.011l8.748-52.487a15.081 15.081 0 0 1 17.814 2.167l32 32a15.057 15.057 0 0 1 .774 19.836z"/><circle cx="400" cy="425.969" r="8"/><circle cx="216" cy="280" r="8"/><circle cx="320" cy="360" r="8"/><circle cx="216" cy="336" r="8"/><circle cx="320" cy="416" r="8"/><circle cx="272" cy="456" r="8"/><circle cx="264" cy="304" r="8"/><circle cx="136.002" cy="399.333" r="8"/><circle cx="112" cy="416" r="8"/><circle cx="152.002" cy="375.333" r="8"/><circle cx="144" cy="432" r="8"/><circle cx="168" cy="408" r="8"/><circle cx="176" cy="440" r="8"/></svg>