<svg id="Filled" height="512" viewBox="0 0 512 512" width="512" xmlns="http://www.w3.org/2000/svg"><circle cx="192" cy="208" fill="#95573a" r="144"/><path d="m336 208a24.006 24.006 0 0 0 -24 24 24 24 0 0 0 -48 0 24 24 0 0 0 -48 0 24 24 0 0 0 -48 0 24 24 0 0 0 -48 0 24 24 0 0 0 -48 0 24 24 0 0 0 -48 0l32 160h272l32-160a24.006 24.006 0 0 0 -24-24z" fill="#dadcde"/><path d="m168 232 8 160h-40l-16-160a24 24 0 0 1 48 0z" fill="#e9eef2"/><path d="m72 232 24 160h-40l-32-160a24 24 0 0 1 48 0z" fill="#e9eef2"/><path d="m264 232-16 160h-40l8-160a24 24 0 0 1 48 0z" fill="#e9eef2"/><path d="m360 232-32 160h-40l24-160a24 24 0 0 1 48 0z" fill="#e9eef2"/><circle cx="320" cy="240" fill="#ad6643" r="144"/><g fill="#5e3725"><path d="m360 88h32v32h-32z"/><path d="m279.029 175.029h33.941v33.941h-33.941z" transform="matrix(.707 -.707 .707 .707 -49.068 265.539)"/><path d="m278.111 86.111h35.777v35.777h-35.777z" transform="matrix(.894 -.447 .447 .894 -15.261 143.355)"/><path d="m374.111 166.111h35.777v35.777h-35.777z" transform="matrix(.894 -.447 .447 .894 -40.903 194.733)"/><path d="m206.111 134.111h35.777v35.777h-35.777z" transform="matrix(.894 -.447 .447 .894 -44.328 116.223)"/></g><path d="m464 240a24.006 24.006 0 0 0 -24 24 24 24 0 0 0 -48 0 24 24 0 0 0 -48 0 24 24 0 0 0 -48 0 24 24 0 0 0 -48 0 24 24 0 0 0 -48 0 24 24 0 0 0 -48 0l32 160h272l32-160a24.006 24.006 0 0 0 -24-24z" fill="#e9eef2"/><path d="m296 264 8 160h-40l-16-160a24 24 0 0 1 48 0z" fill="#dadcde"/><path d="m200 264 24 160h-40l-32-160a24 24 0 0 1 48 0z" fill="#dadcde"/><path d="m392 264-16 160h-40l8-160a24 24 0 0 1 48 0z" fill="#dadcde"/><path d="m488 264-32 160h-40l24-160a24 24 0 0 1 48 0z" fill="#dadcde"/><path d="m471.816 232.969a152.628 152.628 0 0 0 -71.816-122.228v-22.741a8 8 0 0 0 -8-8h-32a8 8 0 0 0 -8 8v3.379a152.765 152.765 0 0 0 -32-3.379c-1.009 0-2.023.021-3.035.041l-5.81-11.619a8 8 0 0 0 -10.733-3.577l-21.252 10.626a151.859 151.859 0 0 0 -25.088-14.287 8 8 0 0 0 -11.382-11.174q-2.628 2.327-5.148 4.9a151.456 151.456 0 0 0 -37.56-6.7 7.991 7.991 0 0 0 -13.292-6.2c-2.272 2.011-4.479 4.176-6.631 6.457a150.9 150.9 0 0 0 -36.069 7.307 8 8 0 0 0 -13.3-5.763 122.166 122.166 0 0 0 -18.024 20.381 152.1 152.1 0 0 0 -72.508 122.581 32.055 32.055 0 0 0 -24.168 31.027 8.026 8.026 0 0 0 .155 1.569l32 160a8 8 0 0 0 7.845 6.431h115.041l5.114 25.569a8 8 0 0 0 7.845 6.431h272a8 8 0 0 0 7.845-6.431l32-160a8.026 8.026 0 0 0 .155-1.569 32.056 32.056 0 0 0 -24.184-31.031zm-87.816-136.969v16h-16v-16zm-32 11.8v12.2a8 8 0 0 0 8 8h32a7.965 7.965 0 0 0 3.775-.947 136.6 136.6 0 0 1 60.025 106.02 32.054 32.054 0 0 0 -15.8 9.782 31.959 31.959 0 0 0 -48 0 31.959 31.959 0 0 0 -48 0 31.959 31.959 0 0 0 -48 0 31.959 31.959 0 0 0 -48 0 31.959 31.959 0 0 0 -48 0 32.056 32.056 0 0 0 -15.806-9.783 134.834 134.834 0 0 1 17.4-59.991l7.249 14.5a7.993 7.993 0 0 0 10.733 3.577l32-16a8 8 0 0 0 3.577-10.733l-16-32a7.944 7.944 0 0 0 -.757-1.214 135.533 135.533 0 0 1 33.116-18.291l9.331 18.661a7.993 7.993 0 0 0 10.733 3.577l32-16a8 8 0 0 0 3.577-10.733l-2.164-4.329a136.24 136.24 0 0 1 27.011 3.704zm-111.959 157.009v.017l15.119 151.174h-24.27l-22.867-152.447a15.992 15.992 0 0 1 31.977.447c0 .269.014.534.04.8zm15.972-1.075a15.995 15.995 0 0 1 31.987.266c0 .135 7.59 152 7.59 152h-24.35zm47.992.165a16 16 0 0 1 31.99 0l-7.605 152.101h-16.78zm48 .1a15.995 15.995 0 0 1 31.987-.262l-15.232 152.263h-24.35s7.59-151.865 7.59-152zm47.956.835v-.036c.026-.262.04-.527.04-.8a15.991 15.991 0 0 1 31.977-.444l-22.867 152.446h-24.271zm-207.961-192.834a136.589 136.589 0 0 1 34.176 4.326c-20.656 27.837-34.959 67.02-44.206 99.955a150.3 150.3 0 0 0 -11.693 37.484 31.951 31.951 0 0 0 -36.126-12.207c8.29-36.579 25.267-96.008 53.414-129.478 1.473-.048 2.95-.08 4.435-.08zm72.6 20.973a7.977 7.977 0 0 0 -.191 5.533 151.84 151.84 0 0 0 -49.793 31.959c7.624-18.202 16.798-35.465 27.684-48.865a134.825 134.825 0 0 1 22.3 11.373zm-36.181 53.76 8.845 17.689-17.689 8.845-8.845-17.689zm76.481-47.045c.013.027.027.053.04.08l4.328 8.654-17.689 8.845-8.845-17.689 17.689-8.845zm-188.47 107.712a31.921 31.921 0 0 0 -37.165-2.657c7.783-33.1 22.082-81.6 44.488-114.335a135.084 135.084 0 0 1 42.036-15.859c-27.214 40.505-42.534 100.151-49.359 132.851zm-25.425-90.382c-13.45 29.9-22.506 62.679-28.02 86.719a31.793 31.793 0 0 0 -6.81-2.675 135.471 135.471 0 0 1 34.83-84.044zm-58.989 114.268a16 16 0 0 1 31.984.714 8.028 8.028 0 0 0 .08 1.069c0 .039 0 .078.008.118l22.622 150.813h-24.151zm70.874 152.714-22.881-152.537a16 16 0 0 1 31.991.537c0 .061 15.16 152 15.16 152zm40.35 0-15.177-151.765c.183-1.121.53-3.2 1.046-6.048a15.991 15.991 0 0 1 30.891 5.813c0 .133.2 4.19.2 4.19a32.016 32.016 0 0 0 -16.2 27.81 8.026 8.026 0 0 0 .155 1.569l23.686 118.431zm16.776-120.714a16 16 0 0 1 31.984.714 8.119 8.119 0 0 0 .1 1.185h-.009l22.619 150.815h-24.151zm289.425 152.714h-24.152l22.622-150.813h-.008a8.119 8.119 0 0 0 .097-1.187 16 16 0 0 1 31.984-.714z"/><path d="m301.657 162.343a8 8 0 0 0 -11.314 0l-24 24a8 8 0 0 0 0 11.314l24 24a8 8 0 0 0 11.314 0l24-24a8 8 0 0 0 0-11.314zm-5.657 42.344-12.687-12.687 12.687-12.687 12.687 12.687z"/><path d="m376.845 211.578a7.993 7.993 0 0 0 10.733 3.577l32-16a8 8 0 0 0 3.577-10.733l-16-32a8 8 0 0 0 -10.733-3.577l-32 16a8 8 0 0 0 -3.577 10.733zm19.577-40.845 8.845 17.689-17.689 8.845-8.845-17.689z"/></svg>