<svg id="Capa_1" enable-background="new 0 0 507.966 507.966" height="512" viewBox="0 0 507.966 507.966" width="512" xmlns="http://www.w3.org/2000/svg"><g><g><path d="m486.211 225.629-4.929-19.441c-1.32-5.206-.663-10.716 1.844-15.465l4.11-7.786c4.479-8.486 2.801-18.912-4.114-25.564-8.214-7.901-21.162-8.031-29.533-.297l-12.379 11.438-88.928 43.993 12.581 87.482 104.762-15.166 24.026-39.87z" fill="#d8efa7"/><path d="m351.268 113.405 1.539-2.996c6.35-12.362.228-27.478-12.934-31.938-5.355-1.815-11.194-1.57-16.378.687l-15.452 6.725c-8.342 3.631-17.76 3.914-26.305.792l-10.609-3.876c-3.842-1.404-7.945-1.946-12.02-1.588l-.432.038c-16.721 1.468-28.375 17.255-24.852 33.667l12.662 71.074h74.234z" fill="#d8efa7"/><path d="m266.072 134.649c-3.523-16.412 8.131-32.199 24.852-33.667l.432-.038c4.075-.357 8.178.185 12.02 1.588l10.609 3.876c8.545 3.122 17.964 2.838 26.305-.792l15.019-6.523c-.382-9.033-6.162-17.479-15.437-20.622-5.355-1.814-11.194-1.57-16.378.687l-15.452 6.725c-8.342 3.63-17.76 3.914-26.305.792l-10.609-3.876c-3.842-1.403-7.945-1.946-12.02-1.588l-.432.038c-16.722 1.468-28.376 17.255-24.852 33.667l12.662 71.074h28.732z" fill="#c5e97d"/><path d="m116.15 143.371-26.96 9.009c-4.213 1.408-8.839-.295-11.134-4.098l-.053-.088c-5.23-8.667-15.25-13.228-25.221-11.481-10.931 1.916-19.212 10.937-20.188 21.992-.316 3.583-2.63 6.679-5.977 7.997l-4.45 1.752c-4.315 1.699-8.022 4.652-10.641 8.479-5.472 7.993-5.399 18.544.181 26.462l15.671 22.234s49.933 75.7 50.385 74.344 100.963-70.521 100.963-70.521l-14.659-104.426z" fill="#d8efa7"/><g><path d="m66.824 219.52-15.671-22.234c-5.58-7.917-5.652-18.469-.181-26.461 2.62-3.827 6.326-6.78 10.641-8.479l4.45-1.752c3.347-1.318 5.661-4.414 5.977-7.997.278-3.157 1.17-6.138 2.531-8.845-5.57-5.718-13.696-8.457-21.79-7.038-10.932 1.916-19.212 10.937-20.188 21.992-.316 3.583-2.63 6.679-5.977 7.997l-4.45 1.752c-4.315 1.699-8.022 4.653-10.641 8.479-5.472 7.993-5.4 18.544.181 26.462l15.671 22.234s49.933 75.7 50.385 74.344c.159-.478 12.739-9.373 28.963-20.691-14.765-21.656-39.901-59.763-39.901-59.763z" fill="#c5e97d"/></g><g><circle cx="370.059" cy="185.989" fill="#dfae91" r="76.348"/><circle cx="185.786" cy="168.607" fill="#d79c7a" r="76.348"/><path d="m139.53 168.663c0-37.069 26.431-67.965 61.466-74.893-4.913-.993-10.005-1.51-15.211-1.51-42.166 0-76.348 34.182-76.348 76.347 0 42.166 34.182 76.348 76.348 76.348 5.097 0 10.074-.51 14.891-1.462-34.882-7.049-61.146-37.87-61.146-74.83z" fill="#d08a61"/><path d="m344.001 239.349 10.155-2.862c.314-3.162.493-6.363.493-9.607 0-21.528-7.085-41.424-19.038-57.5-4.099-5.513-4.968-12.816-1.968-18.997 9.31-19.178 26.424-33.886 47.206-39.985-3.524-.499-7.129-.757-10.791-.757-43.212 0-78.039 35.9-76.284 79.501 1.557 38.674 32.371 70.351 70.984 73.011 9.372.646 18.396-.442 26.827-2.916-24.292-3.434-36.262.791-47.584-19.888z" fill="#d79c7a"/><circle cx="258.006" cy="226.88" fill="#e5bda7" r="81.643"/><path d="m210.247 226.88c0-39.28 27.752-72.085 64.71-79.886-5.467-1.154-11.141-1.757-16.951-1.757-45.09 0-81.644 36.553-81.644 81.644s36.553 81.644 81.644 81.644c5.811 0 11.475-.618 16.942-1.771-36.958-7.803-64.701-40.594-64.701-79.874z" fill="#dfae91"/><path d="m500.466 229.947c0 110.874-89.881 200.756-200.755 200.756h-83.41c-110.874 0-200.755-89.881-200.755-200.755 0-2.385 1.933-4.318 4.318-4.318h476.285c2.384-.001 4.317 1.932 4.317 4.317z" fill="#f8deb6"/><path d="m356.178 392.595h-90.368c-107.646 0-197.013-72.183-214.42-166.966h-31.527c-2.385 0-4.318 1.933-4.318 4.318 0 110.874 89.881 200.755 200.755 200.755h83.41c51.476 0 98.428-19.375 133.96-51.229-24.071 8.474-50.196 13.122-77.492 13.122z" fill="#f7d8a4"/></g></g><g><path d="m496.148 218.129h-4.102l-3.494-13.783c-.865-3.412-.437-7.007 1.207-10.121l4.109-7.786c6.006-11.376 3.725-25.551-5.548-34.47-11.061-10.639-28.551-10.812-39.821-.4l-4.395 4.061c-3.262-8.527-7.962-16.509-13.984-23.548-2.692-3.146-7.427-3.516-10.575-.823-3.147 2.693-3.516 7.428-.823 10.575 10.128 11.837 15.705 26.93 15.705 42.499 0 .912-.023 1.821-.06 2.728h-26.076c-4.143 0-7.5 3.357-7.5 7.5s3.357 7.5 7.5 7.5h23.694c-1.581 5.624-3.92 11.02-6.978 16.069h-80.576c-1.069-12.412-4.742-24.089-10.499-34.466h18.349c4.143 0 7.5-3.357 7.5-7.5s-3.357-7.5-7.5-7.5h-28.899c-4.028-4.617-8.521-8.817-13.429-12.498 10.766-22.499 33.807-37.264 59.044-37.264 9.292 0 18.294 1.926 26.757 5.725 3.774 1.697 8.218.009 9.913-3.771 1.696-3.778.009-8.217-3.771-9.913-10.406-4.672-21.476-7.041-32.899-7.041-2.173 0-4.332.096-6.475.271.723-5.192.099-10.539-1.915-15.512-3.307-8.163-9.987-14.466-18.329-17.293-7.136-2.418-14.872-2.094-21.778.913l-15.451 6.725c-6.606 2.876-13.972 3.097-20.739.624l-10.607-3.874c-4.84-1.769-10.114-2.468-15.254-2.016l-.429.037c-10.111.888-19.368 6.08-25.396 14.247-2.718 3.682-4.662 7.812-5.783 12.147-12.383-7.631-26.913-11.927-42.273-11.927-10.435 0-20.615 1.987-30.258 5.907-3.837 1.561-5.684 5.936-4.124 9.772 1.56 3.837 5.937 5.684 9.772 4.124 7.841-3.188 16.121-4.804 24.609-4.804 25.43 0 48.051 14.479 58.859 36.835-38.521 6.544-68.477 38.558-71.874 78.049h-29.783c-14.405-12.458-22.633-30.33-22.633-49.455 0-16.407 6.105-32.103 17.19-44.194 2.799-3.054 2.593-7.798-.461-10.597-3.052-2.8-7.797-2.593-10.596.46-6.274 6.844-11.232 14.635-14.776 23.01l-23.683 7.914c-.891.299-1.851-.056-2.326-.843l-.062-.104c-6.778-11.232-20.015-17.255-32.937-14.993-14.251 2.498-25.092 14.309-26.364 28.721-.066.756-.547 1.398-1.253 1.677l-4.451 1.752c-5.733 2.258-10.603 6.138-14.082 11.222-7.203 10.522-7.107 24.595.239 35.019l8.44 11.975c-3.561 2.039-5.97 5.868-5.97 10.257 0 114.833 93.423 208.256 208.255 208.256h83.41c53.182 0 103.812-20.054 142.567-56.467 3.019-2.836 3.166-7.583.33-10.602-2.837-3.019-7.584-3.165-10.602-.33-35.962 33.79-82.945 52.398-132.296 52.398h-83.41c-55.585 0-105.757-23.595-141.045-61.286h103.47c4.142 0 7.5-3.357 7.5-7.5s-3.358-7.5-7.5-7.5h-116.168c-14.03-18.397-24.835-39.379-31.572-62.092h49.226c4.142 0 7.5-3.357 7.5-7.5s-3.358-7.5-7.5-7.5h-53.014c-2.5-11.873-3.92-24.138-4.124-36.696h469.869c-.198 12.474-1.572 24.74-4.066 36.696h-80.583c-4.143 0-7.5 3.357-7.5 7.5s3.357 7.5 7.5 7.5h76.813c-6.69 22.679-17.576 44.009-32.408 63.197-2.533 3.277-1.931 7.987 1.347 10.521 3.279 2.534 7.987 1.929 10.521-1.347 28.394-36.733 43.401-80.735 43.401-127.249.001-6.516-5.3-11.818-11.817-11.818zm-46.72-33.797c0-4.141-.34-8.251-.969-12.302l10.221-9.444c5.445-5.032 13.898-4.948 19.243.193 4.48 4.31 5.583 11.159 2.681 16.657l-4.109 7.786c-3.379 6.402-4.261 13.793-2.481 20.809l2.56 10.098h-34.604c4.894-10.528 7.458-22.001 7.458-33.797zm-208.621-73.233c-.504-5.013.862-10.073 3.886-14.168 3.475-4.707 8.811-7.701 14.643-8.213l.428-.037c2.958-.261 6 .143 8.791 1.162l10.609 3.875c10.399 3.801 21.721 3.46 31.872-.96l15.451-6.725c3.481-1.517 7.381-1.68 10.979-.46 4.205 1.425 7.572 4.602 9.239 8.717s1.459 8.741-.569 12.69l-.171.333c-20.955 6.323-38.818 21.055-48.826 40.897-11.411-5.792-24.259-9.134-37.862-9.331-4.239-10.669-10.584-20.066-18.47-27.78zm17.199 42.749c37.047 0 67.624 28.213 71.387 64.28h-142.762c3.763-36.066 34.329-64.28 71.375-64.28zm-240.291 27.322c1.779-2.599 4.269-4.583 7.2-5.737l4.45-1.752c6.031-2.374 10.132-7.86 10.701-14.316.676-7.659 6.438-13.936 14.012-15.263 6.869-1.204 13.902 1.997 17.495 7.951l.063.105c4.14 6.858 12.337 9.875 19.932 7.335l13.772-4.602c-.783 4.52-1.201 9.126-1.201 13.783 0 18.197 6.056 35.473 16.999 49.455h-89.872l-13.429-19.054c-3.756-5.33-3.805-12.525-.122-17.905z"/><path d="m359.667 142.666c-4.143 0-7.5 3.357-7.5 7.5s3.357 7.5 7.5 7.5h10.392c4.143 0 7.5-3.357 7.5-7.5s-3.357-7.5-7.5-7.5z"/><path d="m400.466 142.666h-5.389c-4.143 0-7.5 3.357-7.5 7.5s3.357 7.5 7.5 7.5h5.389c4.143 0 7.5-3.357 7.5-7.5s-3.358-7.5-7.5-7.5z"/><path d="m227.19 190.601h-11.162c-4.142 0-7.5 3.357-7.5 7.5s3.358 7.5 7.5 7.5h11.162c4.142 0 7.5-3.357 7.5-7.5s-3.358-7.5-7.5-7.5z"/><path d="m288.004 174.436h-22.709c-4.143 0-7.5 3.357-7.5 7.5s3.357 7.5 7.5 7.5h22.709c4.143 0 7.5-3.357 7.5-7.5s-3.358-7.5-7.5-7.5z"/><path d="m192.549 137.09c4.142 0 7.5-3.357 7.5-7.5s-3.358-7.5-7.5-7.5h-8.083c-4.142 0-7.5 3.357-7.5 7.5s3.358 7.5 7.5 7.5z"/><path d="m131.548 168.607c0 4.143 3.358 7.5 7.5 7.5h25.019c4.142 0 7.5-3.357 7.5-7.5s-3.358-7.5-7.5-7.5h-25.019c-4.142 0-7.5 3.358-7.5 7.5z"/><path d="m128.704 269.825c-4.142 0-7.5 3.357-7.5 7.5s3.358 7.5 7.5 7.5h17.981c4.142 0 7.5-3.357 7.5-7.5s-3.358-7.5-7.5-7.5z"/><path d="m214.109 376.757c0 4.143 3.358 7.5 7.5 7.5h66.395c4.143 0 7.5-3.357 7.5-7.5s-3.357-7.5-7.5-7.5h-66.395c-4.142 0-7.5 3.357-7.5 7.5z"/><path d="m265.295 311.243c4.143 0 7.5-3.357 7.5-7.5s-3.357-7.5-7.5-7.5h-29.251c-4.142 0-7.5 3.357-7.5 7.5s3.358 7.5 7.5 7.5z"/><path d="m320.721 257.013c-4.143 0-7.5 3.357-7.5 7.5s3.357 7.5 7.5 7.5h15.78c4.143 0 7.5-3.357 7.5-7.5s-3.357-7.5-7.5-7.5z"/><path d="m352.282 335.474c-4.143 0-7.5 3.357-7.5 7.5s3.357 7.5 7.5 7.5h31.424c4.143 0 7.5-3.357 7.5-7.5s-3.357-7.5-7.5-7.5z"/></g></g></svg>