<svg id="Capa_1" enable-background="new 0 0 508.623 508.623" height="512" viewBox="0 0 508.623 508.623" width="512" xmlns="http://www.w3.org/2000/svg"><g><g><g><path d="m372.242 189.014-8.84 28.17-95.22 273.81c-4.71 13.54-23.88 13.49-28.51-.08l-93.45-273.73-9.85-28.17z" fill="#f6e2c4"/></g><path d="m136.372 189.014 9.85 28.17 93.45 273.73c4.63 13.57 23.8 13.62 28.51.08l7.006-20.146-68.559-200.821c-5.498-16.105 6.473-32.842 23.491-32.842h126.327l6.956-20.001 8.84-28.17z" fill="#f8deb6"/><path d="m381.354 182.067c10.585 14.645.121 35.119-17.949 35.119h-217.188c-18.07 0-28.534-20.474-17.949-35.119l20.165-25.087h201.908 17.217z" fill="#ffe1f2"/><g fill="#ffd1eb"><path d="m381.354 182.066-13.796-25.086h-17.217-201.907l-20.165 25.086c-3.442 4.763-4.658 10.148-4.11 15.239 6.711 3.823 14.395 5.883 22.148 5.884h.002c6.058 0 11.957-1.208 17.53-3.59l15.4-6.581c6.751-2.885 13.896-4.348 21.236-4.348 8.461 0 16.922 2.024 24.466 5.854l9.169 4.655c6.229 3.162 13.215 4.835 20.201 4.835s13.972-1.673 20.2-4.835l9.17-4.655c7.544-3.83 16.005-5.854 24.466-5.854 7.341 0 14.485 1.463 21.237 4.349l15.398 6.579c5.574 2.383 11.474 3.591 17.532 3.591 8.169 0 16.248-2.297 23.208-6.523.385-4.901-.867-10.033-4.168-14.6z"/><path d="m142.013 119.797c0 .497-.194.973-.541 1.328l-16.354 16.735c-12.412 12.701-10.937 33.394 3.151 44.206 8.49 6.516 19.835 7.946 29.677 3.74l15.399-6.581c18.789-8.029 40.168-7.324 58.387 1.925l9.17 4.655c8.428 4.279 18.392 4.279 26.821 0l9.17-4.655c18.219-9.249 39.599-9.954 58.387-1.925l15.399 6.581c9.842 4.206 21.186 2.776 29.677-3.74 14.088-10.812 15.563-31.505 3.151-44.206l-16.354-16.735c-.347-.355-.541-.832-.541-1.328 0-62.021-50.278-112.298-112.298-112.298-62.023 0-112.301 50.278-112.301 112.298z"/></g><path d="m240.901 185.807c8.428 4.279 18.392 4.279 26.821 0l9.17-4.655c18.219-9.249 39.598-9.954 58.387-1.926l14.888 6.362c9.814 4.194 21.223 3.136 29.794-3.224 10.83-8.036 14.459-21.808 10.326-33.605-1.381 1.658-2.966 3.191-4.758 4.566-8.49 6.516-19.835 7.946-29.677 3.74l-15.399-6.58c-18.789-8.029-40.168-7.324-58.387 1.925l-9.169 4.655c-8.428 4.279-18.392 4.279-26.82 0l-9.17-4.656c-18.219-9.25-39.598-9.955-58.387-1.926-2.128.909-3.962-1.769-2.344-3.424 3.591-4.156 5.671-9.378 6.065-14.857 4.186-58.202 52.733-104.121 112.004-104.121 10.522 0 20.697 1.425 30.355 4.13-19.242-15.465-43.68-24.711-70.288-24.711-62.021 0-112.298 50.277-112.298 112.298 0 .497-.194.973-.541 1.328l-15.942 16.313c-11.314 11.577-11.754 30.253-.428 41.819 8.672 8.856 21.718 11.303 32.844 6.549l15.399-6.581c18.789-8.029 40.169-7.324 58.388 1.926z" fill="#ffc3e5"/></g><path d="m388.869 132.618-14.781-15.126c-.445-23.588-7.721-46.237-21.109-65.642-2.352-3.409-7.022-4.267-10.432-1.914-3.41 2.352-4.267 7.022-1.914 10.432 12.087 17.521 18.477 38.07 18.477 59.429 0 2.476.954 4.812 2.678 6.57l16.354 16.735c4.419 4.521 6.695 10.729 6.246 17.035s-3.583 12.13-8.599 15.979c-6.33 4.858-14.822 5.93-22.163 2.794l-15.399-6.58c-20.884-8.925-44.478-8.146-64.729 2.134l-9.17 4.655c-6.271 3.184-13.76 3.184-20.029 0l-9.17-4.655c-6.323-3.21-13.072-5.525-20.06-6.881-4.069-.79-8.002 1.867-8.791 5.934s1.867 8.002 5.934 8.791c5.619 1.091 11.045 2.951 16.126 5.531l9.17 4.655c5.262 2.672 11.033 4.007 16.806 4.007 5.771 0 11.545-1.336 16.806-4.007l9.17-4.655c16.283-8.266 35.254-8.89 52.044-1.716l15.399 6.58c9.739 4.162 20.679 3.892 30.086-.426.616 3.126.176 6.405-1.369 9.428-2.554 4.997-7.43 7.98-13.042 7.98h-217.19c-5.612 0-10.488-2.983-13.042-7.98-1.475-2.886-1.944-6.005-1.449-9.002 4.627 1.973 9.597 2.98 14.595 2.98 4.932 0 9.892-.98 14.57-2.979l15.401-6.581c2.297-.981 4.795-1.857 7.425-2.602 3.985-1.129 6.302-5.274 5.174-9.26-1.129-3.986-5.279-6.3-9.26-5.174-3.245.919-6.353 2.01-9.235 3.243l-15.399 6.58c-7.339 3.136-15.832 2.065-22.163-2.793-5.016-3.85-8.149-9.674-8.599-15.979s1.827-12.515 6.246-17.035l16.344-16.727c1.733-1.767 2.688-4.104 2.688-6.579 0-57.785 47.011-104.797 104.798-104.797 24.001 0 47.459 8.324 66.051 23.438 3.215 2.613 7.938 2.125 10.551-1.088 2.613-3.215 2.126-7.938-1.088-10.551-21.26-17.281-48.078-26.799-75.514-26.799-65.287 0-118.543 52.495-119.776 117.492l-14.781 15.126c-7.413 7.586-11.233 18.005-10.479 28.586.597 8.381 4.029 16.247 9.609 22.369-3.354 7.952-3.111 17.041.936 24.958 4.234 8.285 11.944 13.945 20.853 15.624l91.904 269.185c3.16 9.257 11.521 15.256 21.303 15.283h.068c9.751 0 18.116-5.945 21.321-15.161l93.652-269.302c8.922-1.671 16.644-7.335 20.883-15.629 4.175-8.168 4.307-17.584.609-25.711 5.183-6.007 8.363-13.577 8.936-21.616.753-10.581-3.068-21-10.481-28.586zm-38.804 100.093c-.037.036-.077.066-.114.103l-141.994 141.994-5.96-17.457 36.038-36.038c2.929-2.93 2.929-7.678 0-10.607-2.93-2.928-7.678-2.928-10.607 0l-30.83 30.83-5.96-17.457 99.392-99.393h23.418l-61.768 61.768c-2.929 2.93-2.929 7.678 0 10.607 1.465 1.464 3.385 2.196 5.304 2.196s3.839-.732 5.304-2.196l72.375-72.375h18.194zm-23.792 68.417c-.007.007-.015.013-.022.02l-106.934 106.933-5.96-17.458 125.403-125.402zm-47.592 136.853-36.644 36.644-5.96-17.457 55.09-55.089zm23.796-68.428-71.8 71.801-5.96-17.458 90.246-90.245zm-101.712-144.867h23.417l-50.304 50.305-5.96-17.458zm-38.247 17.031-5.815-17.032h22.847zm82.878-17.031h23.418l-83.577 83.578-5.96-17.458zm8.544 268.937c-.006 0-.013 0-.019 0-1.087-.003-4.37-.292-6.307-3.361l19.755-19.755-6.269 18.027c-1.638 4.713-5.869 5.089-7.16 5.089z"/></g></svg>