<svg id="Filled" height="512" viewBox="0 0 512 512" width="512" xmlns="http://www.w3.org/2000/svg"><path d="m128 200h256v80h-256z" fill="#eb423f"/><path d="m208 24h160v464h-160z" fill="#95573a"/><path d="m176 24h160v464h-160z" fill="#ad6643"/><path d="m144 24h160v464h-160z" fill="#95573a"/><path d="m200 488h-56a16 16 0 0 1 -16-16v-272l72 72z" fill="#eb423f"/><path d="m304 488h-120v-144l120-120z" fill="#eb423f"/><path d="m184 344v144h32v-176z" fill="#d13330"/><path d="m384 200h-48l-32 24v264h64a16 16 0 0 0 16-16z" fill="#d13330"/><path d="m184 344 56 16 64-136z" fill="#ed6f6d"/><path d="m128 200 32 104 40-32z" fill="#ed6f6d"/><path d="m368 16h-224a8 8 0 0 0 -8 8v172.686l-2.343-2.343a8 8 0 0 0 -13.657 5.657v272a24.027 24.027 0 0 0 24 24h224a24.027 24.027 0 0 0 24-24v-272a8 8 0 0 0 -8-8h-8v-168a8 8 0 0 0 -8-8zm-24 16h16v160h-16zm-32 0h16v164l-16 12zm-72 204.686-20.686-20.686 20.686-20.686 20.686 20.686zm8.686 31.314-20.686 20.686-8.686-8.686 20.686-20.686zm-40.686-63.314-20.686-20.686 20.686-20.686 20.686 20.686zm11.314-52.686 20.686-20.686 20.686 20.686-20.686 20.686zm0-64 20.686-20.686 20.686 20.686-20.686 20.686zm9.372 32-20.686 20.686-20.686-20.686 20.686-20.686zm-52.686-11.314-16.686-16.686 20.686-20.686 16.686 16.686zm20.686 43.314-20.686 20.686-20.686-20.686 20.686-20.686zm0 64-20.686 20.686-20.686-20.686 20.686-20.686zm11.314 11.314 20.686 20.686-20.686 20.686-20.686-20.686zm8.686 72.686-8.686 8.686v-17.372zm60.557-37.929-41.585 88.368-36.387-10.4zm-17.243-5.385-8.686-8.686 20.686-20.686 8.686 8.686zm12-52-20.686-20.686 20.686-20.686 20.686 20.686zm-20.686-84.686 20.686-20.686 20.686 20.686-20.686 20.686zm0-64 16.686-16.686 20.686 20.686-16.686 16.686zm1.372-24-12.686 12.686-12.686-12.686zm-24 24-20.686 20.686-16.686-16.686 20.686-20.686zm-32-24-16.686 16.686-16.686-16.686zm-44.686 11.314 16.686 16.686-16.686 16.686zm0 64 12.686 12.686-12.686 12.686zm0 64 12.686 12.686-12.686 12.686zm36.023 100.023-23.836 19.063-19.068-61.972zm-12.023 72.663v136h-32a8.009 8.009 0 0 1 -8-8v-218.8l16.354 53.151a8 8 0 0 0 12.646 3.896l27-21.6v36.041l-13.657 13.657a8 8 0 0 0 -2.343 5.655zm32 136h-16v-125.394l16 4.571zm16 0v-116.251l13.8 3.943a7.995 7.995 0 0 0 9.437-4.286l48.763-103.616v220.21zm72-259.314-4 4-8.686-8.686 12.686-12.686zm0-56-12.686-12.686 12.686-12.686zm0-64-12.686-12.686 12.686-12.686zm0-56-12.686-12.686h12.686zm80 427.314a8.009 8.009 0 0 1 -8 8h-56v-252l26.667-20h37.333z"/></svg>