<svg xmlns="http://www.w3.org/2000/svg" viewBox="0 0 1008 999"><defs><style>.cls-1{fill:#ff3568;}.cls-2{fill:#5b7514;}.cls-3{fill:#698e19;}.cls-4{fill:#85a03c;}.cls-5{fill:#f4b006;}.cls-6{fill:#ffd400;}.cls-7{fill:#fff35f;}.cls-8{fill:#9fe05a;}.cls-9{fill:#ceaa45;}.cls-10{fill:#8c6700;}.cls-11{fill:#ffb88a;}.cls-12{fill:#fff;}</style></defs><g id="Layer_2" data-name="Layer 2"><g id="Layer_1-2" data-name="Layer 1"><ellipse class="cls-1" cx="504" cy="499.5" rx="504" ry="499.5"/><path class="cls-2" d="M579.76,253c-2.64,3.26-62.53,101.11-61.86,147.54-2.53-2.9-8.14-4.9-14.66-4.93L503,60.08h.12c22.38-.6,43.12,18.21,47.72,46,26.16-15.51,51,3.67,51.07,38.26,0,30.42-16.28,44.14-18.34,52.14C599,208.92,594.94,234.11,579.76,253Z"/><path class="cls-3" d="M503.13,60V395.64c-6.49,0-12.08,1.93-14.69,4.8C489,354,429.12,256.33,426.49,253.06c-15.21-18.91-19.29-44.1-3.85-56.58-2.09-8-18.39-21.65-18.39-52.1,0-34.6,24.87-53.78,51-38.3C459.88,78.26,480.65,59.38,503.13,60Z"/><path class="cls-4" d="M551,255.11c-21.15-4.67-38.26,14.38-45.75,24.64v-32c2.37-5.45,15.21-32.16,38.93-31.24a2.2,2.2,0,0,0,2.17-2.16v-.08a2.27,2.27,0,0,0-1.92-2.58c-20.08-.85-33,15.91-39.18,26.56V208.42c2-4.18,10.84-20.94,24.15-24.67a2.36,2.36,0,0,0,1.48-2.66V181a2.09,2.09,0,0,0-2.58-1.92c-10.71,3-18.58,13.07-23,20.3V151.58a2.34,2.34,0,1,0-4.64,0v47.18c-4.52-7.17-12.23-16.7-22.63-19.66a2.09,2.09,0,0,0-2.58,1.92v.07a2.36,2.36,0,0,0,1.48,2.66c12.59,3.53,21.15,18.69,23.74,23.86v30c-6.3-10.67-19.11-26.71-38.76-25.88a2.27,2.27,0,0,0-1.93,2.58v.08a2.2,2.2,0,0,0,2.18,2.16c22.61-.88,35.33,23.37,38.51,30.34V279.2c-7.68-10.37-24.56-28.68-45.34-24.09A2.39,2.39,0,0,0,453.7,258v.08a2.1,2.1,0,0,0,2.45,1.73c22-4.72,40.12,20.5,44.43,27.13v33.28c-6.3-10.67-19.11-26.71-38.76-25.88a2.27,2.27,0,0,0-1.93,2.58V297a2.2,2.2,0,0,0,2.18,2.15c22.61-.88,35.33,23.37,38.51,30.34v20.63c-4.36-6.87-12.42-15.94-24.37-15.43A1.48,1.48,0,0,0,475,336.4v.06a1.43,1.43,0,0,0,1.42,1.4c13.18-.51,21.19,12.05,24.21,18v39.82h4.64v-39c2.68-5.48,10.81-19.31,24.62-18.77a1.45,1.45,0,0,0,1.42-1.4v-.06a1.48,1.48,0,0,0-1.26-1.68c-12.32-.52-20.51,9.15-24.78,16.07V330.42c2.37-5.44,15.21-32.16,38.93-31.24a2.21,2.21,0,0,0,2.17-2.15v-.09a2.27,2.27,0,0,0-1.92-2.58c-20.08-.85-33,15.91-39.18,26.56V287.58c3.46-5.45,22-32.63,44.85-27.75a2.1,2.1,0,0,0,2.44-1.73V258A2.39,2.39,0,0,0,551,255.11Z"/><path class="cls-5" d="M656.59,308.39c0,47.77-15.23,108.41-60.91,108.41-35.6,0-60.91-60.64-60.91-108.41s27.27-62.13,60.91-62.13S656.59,260.62,656.59,308.39Z"/><path class="cls-5" d="M614.09,308.39c0,47.77,15.23,108.41,60.92,108.41,37.13,0,60.91-60.64,60.91-108.41S708.65,246.26,675,246.26,614.09,260.62,614.09,308.39Z"/><path class="cls-6" d="M696.25,312.84C696.25,364,681,429,635.34,429c-50.76,0-60.91-65-60.91-116.2s27.27-66.58,60.91-66.58S696.25,261.65,696.25,312.84Z"/><path class="cls-7" d="M626.37,297.25c-9.71,18.57.93,44.77-9.74,44.77-20.61,0-24.73-26.39-24.73-47.17s11.07-27,24.73-27S634.76,281.22,626.37,297.25Z"/><path class="cls-8" d="M640.69,228c.53-14.23,6.23-25.31,21.22-30L653.45,178c-19.78,10.07-30.28,25.28-27,50.67-17.64,4-30.81,9.57-30.81,19.17,0,11.14,17.76,3.86,39.66,3.86S675,259,675,247.84C675,237.62,660.07,230.69,640.69,228Z"/><path class="cls-9" d="M333.39,333.55c7.46,9.13,7.65,21.47,13.2,31.81C359.8,390,400.78,403.85,427.17,393c55.4-22.76,61.95-77.65,18.06-124.61-37.52-40.15-122.79-50.33-161.53-23-17.77,12.54-21.06,33-10.59,50.13,12.53,20.49,36.24,19.84,54.88,33A27.17,27.17,0,0,1,333.39,333.55Z"/><path class="cls-10" d="M329.94,252.53c2.05,6.94-7.05,14.29-16.15,15Z"/><path class="cls-10" d="M335.4,254.54a13.67,13.67,0,0,1-3.35,8.57c-4,4.87-11,8.35-17.82,8.86-2.84.21-5.34-1.62-5.58-4.09s1.86-4.64,4.7-4.85a15.7,15.7,0,0,0,10.27-5.11c.86-1.06,1.79-2.66,1.32-4.28-.71-2.4.95-4.84,3.72-5.46s5.57.83,6.28,3.23A10.78,10.78,0,0,1,335.4,254.54Z"/><path class="cls-10" d="M385.67,286c11.8-.31,20.6-12.15,14.93-19Z"/><path class="cls-10" d="M406.35,267.05c2.12,4.1,1.35,9.17-2.23,13.74a24,24,0,0,1-18.26,8.82c-2.85.07-5.25-1.5-5.35-3.51s2.12-3.69,5-3.77a13,13,0,0,0,9.6-5.05c2.39-3,2.8-6.4,1.05-8.52-1.44-1.72-.59-4,1.88-5s5.62-.42,7.05,1.32A10.55,10.55,0,0,1,406.35,267.05Z"/><path class="cls-10" d="M376.12,321.74c-.56,7.3-7.23,13.3-15.84,12.37Z"/><path class="cls-10" d="M381.29,321.73c0,.1,0,.2,0,.31A17.61,17.61,0,0,1,373.82,335a20.44,20.44,0,0,1-14.18,3.57c-2.83-.31-4.82-2.55-4.49-5s2.93-4.2,5.77-3.9a8.9,8.9,0,0,0,10-8.21c.2-2.47,2.66-4.35,5.51-4.18S381.29,319.39,381.29,321.73Z"/><path class="cls-10" d="M415.9,330.58c9.34,4,20.28-4.32,18.16-12.82Z"/><path class="cls-10" d="M439.48,319.86c0,4.79-2.69,9.57-7.36,12.76a19.6,19.6,0,0,1-18.48,2,4.25,4.25,0,0,1-2.39-6,5.55,5.55,0,0,1,6.91-2.06,8.18,8.18,0,0,0,7.59-1c2.58-1.76,3.84-4.44,3.27-6.84s1.17-4.81,4-5.34,5.54,1,6.14,3.44A12.66,12.66,0,0,1,439.48,319.86Z"/><path class="cls-10" d="M390.5,372.31c7.82,4.59,15.58-.59,15.22-7.17Z"/><path class="cls-10" d="M410.9,365.56A12.91,12.91,0,0,1,403.38,377a16.69,16.69,0,0,1-15.77-1,4.12,4.12,0,0,1-1.39-6.23,5.66,5.66,0,0,1,7.17-1.21,5.23,5.23,0,0,0,4.93.58,4,4,0,0,0,2.24-3.82c-.1-2.5,2.08-4.57,4.92-4.69s5.27,1.8,5.4,4.27C410.89,365.14,410.9,365.35,410.9,365.56Z"/><path class="cls-10" d="M309.3,301.69c8.87,2.79,14.94-3.87,12.74-10.18Z"/><path class="cls-10" d="M327.65,294.1a12.2,12.2,0,0,1-4.54,9.4c-4,3.31-9.84,4.21-15.57,2.41-2.68-.84-4.07-3.41-3.1-5.74a5.41,5.41,0,0,1,6.61-2.7c1.44.46,3.47.74,4.95-.48a3.78,3.78,0,0,0,1.1-4.18c-.83-2.37.71-4.88,3.44-5.6a5.33,5.33,0,0,1,6.44,3A11.7,11.7,0,0,1,327.65,294.1Z"/><rect class="cls-11" x="244" y="312" width="520" height="525" rx="27.08"/><rect class="cls-12" x="332" y="667.9" width="343" height="23.9" transform="translate(1007 1359.71) rotate(-180)"/><rect class="cls-12" x="332" y="589.99" width="343" height="23.9" transform="translate(1007 1203.89) rotate(-180)"/><rect class="cls-12" x="332" y="512.08" width="343" height="23.9" transform="translate(1007 1048.07) rotate(-180)"/><rect class="cls-12" x="332.8" y="436.1" width="343" height="23.9" transform="translate(1008.6 896.1) rotate(-180)"/></g></g></svg>