<svg height="511pt" viewBox="-13 0 511 511.99871" width="511pt" xmlns="http://www.w3.org/2000/svg"><path d="m470.175781 235.632812c-16.835937-52.246093-55.734375-98.660156-108.105469-116.636718-17.828124-6.121094-32.648437-12.46875-48.507812-22.5625-15.816406-10.066406-26.835938-26.679688-38.78125-40.871094-16.453125-19.554688-30.933594-34.292969-55.976562-42.394531-16.96875-5.492188-35.144532-7.042969-52.875-5.5625-13.757813 1.152343-27.445313 3.007812-41.152344 4.667969.390625-.050782.765625-.078126 1.152344-.117188-2.933594.3125-5.929688.773438-9.011719 1.429688-31.242188 6.660156-49.910157 23.703124-58.464844 48.464843-2.988281 8.648438-4.746094 18.238281-5.371094 28.667969-1.164062 19.324219 1.785157 38.785156-1.394531 58.011719-3.792969 22.933593-12.300781 44.777343-20.929688 66.242187-15.421874 38.378906-26.417968 79.636719-22.519531 120.8125 5.742188 60.65625 45.242188 116.148438 98.925781 144.960938 25.980469 13.941406 54.789063 20.34375 84 22.632812 17.617188 1.378906 35.289063 2.320313 52.964844 2.023438 22.089844-.371094 44.234375-2.390625 65.886719-6.867188 10.871094-2.246094 21.621094-5.113281 32.09375-8.804687 18.464844-6.507813 35.660156-16.238281 51.472656-27.714844 51.597657-37.460937 83.949219-89.824219 86.339844-154.722656.890625-24.191407-2.324219-48.601563-9.746094-71.660157zm0 0" fill="#d33737"/><path d="m470.171875 235.632812c-16.832031-52.246093-55.730469-98.65625-108.105469-116.636718-17.824218-6.125-32.644531-12.46875-48.507812-22.5625-15.8125-10.0625-26.835938-26.675782-38.78125-40.867188-16.445313-19.550781-30.933594-34.296875-55.96875-42.402344-16.980469-5.488281-35.148438-7.035156-52.878906-5.558593-2.554688.214843-5.105469.453125-7.648438.710937 7.3125.988282 14.523438 2.582032 21.539062 4.847656 22.695313 7.332032 41.796876 23.023438 55.183594 42.195313 15.335938 21.972656 35.964844 40.253906 59.691406 52.722656 18.714844 9.832031 37.984376 18.28125 57.253907 26.933594 19.722656 8.855469 33.269531 21.800781 48.175781 36.878906 38.3125 38.753907 54.941406 96.394531 46.777344 149.890625-8.367188 54.828125-48.070313 108.125-92.304688 140.238282-15.816406 11.476562-33.011718 21.203124-51.476562 27.714843-10.472656 3.691407-21.21875 6.550781-32.09375 8.800781-17.59375 3.640626-35.511719 5.660157-53.453125 6.480469 8.847656.375 17.703125.535157 26.558593.386719 22.085938-.367188 44.234376-2.386719 65.882813-6.867188 10.867187-2.246093 21.621094-5.109374 32.089844-8.800781 18.464843-6.511719 35.664062-16.234375 51.476562-27.714843 51.59375-37.464844 83.953125-89.832032 86.335938-154.726563.894531-24.195313-2.324219-48.605469-9.746094-71.664063zm0 0" fill="#bc2222"/><path d="m58.453125 62.050781c-2.988281 8.648438-4.742187 18.242188-5.371094 28.667969-1.160156 19.324219 1.789063 38.785156-1.390625 58.011719-3.792968 22.933593-12.304687 44.777343-20.933594 66.246093-15.421874 38.378907-26.417968 79.632813-22.519531 120.808594 5.742188 60.660156 45.242188 116.148438 98.929688 144.960938 53.683593 28.8125 119.785156 31.542968 177.167969 11.054687 32.894531-11.746093 63.597656-32.132812 88.425781-56.5625 32.097656-31.582031 48.464843-76.320312 50.09375-120.832031.851562-23.324219-2.246094-46.867188-9.40625-69.09375-13.34375-41.417969-33.742188-70.554688-72.328125-92.207031-19.160156-10.75-39.839844-18.476563-59.292969-28.660157-56.765625-29.710937-86.480469-127.566406-164.90625-110.859374-31.246094 6.660156-49.914063 23.703124-58.46875 48.464843zm0 0" fill="#e57670"/><path d="m422.855469 314.410156c-1.632813 44.511719-18 89.246094-50.09375 120.824219-24.824219 24.441406-55.53125 44.816406-88.425781 56.5625-2.007813.710937-4.027344 1.40625-6.054688 2.066406 23.808594-11.84375 45.863281-27.964843 64.578125-46.378906 32.101563-31.574219 48.46875-76.3125 50.101563-120.832031.851562-23.324219-2.246094-46.863282-9.414063-69.089844-13.335937-41.421875-33.742187-70.554688-72.324219-92.207031-19.15625-10.753907-39.839844-18.484375-59.292968-28.65625-56.769532-29.714844-86.484376-127.574219-164.90625-110.867188-.4375.085938-.871094.1875-1.296876.296875 8.546876-5.691406 18.898438-9.925781 31.191407-12.539062 78.429687-16.714844 108.144531 81.140625 164.90625 110.859375 19.453125 10.179687 40.136719 17.910156 59.292969 28.65625 38.582031 21.652343 58.984374 50.78125 72.324218 92.207031 7.164063 22.222656 10.261719 45.765625 9.414063 69.097656zm0 0" fill="#e05c56"/><path d="m476.765625 233.507812c-14.40625-44.710937-43.890625-83.394531-80.894531-106.128906-3.261719-2.003906-7.527344-.984375-9.53125 2.273438-2 3.261718-.984375 7.527344 2.277344 9.527344 34.234374 21.035156 61.558593 56.964843 74.964843 98.574218 7.125 22.140625 10.292969 45.453125 9.417969 69.285156-2.195312 59.664063-31.066406 111.316407-83.484375 149.371094-16.46875 11.953125-33.191406 20.96875-49.710937 26.789063-9.582032 3.378906-20.078126 6.257812-31.1875 8.554687-3.253907.671875-6.550782 1.273438-9.871094 1.84375 28.347656-12.03125 55.402344-30.328125 78.875-53.421875 31.355468-30.855469 50.363281-76.605469 52.15625-125.515625.898437-24.582031-2.375-48.628906-9.734375-71.472656-14.8125-45.976562-37.402344-74.726562-75.535157-96.121094-10.839843-6.082031-22.207031-11.246094-33.199218-16.238281-8.71875-3.960937-17.734375-8.054687-26.269532-12.519531-19.691406-10.308594-36.050781-29.445313-53.367187-49.707032-14.984375-17.53125-30.476563-35.652343-48.695313-48.019531-3.574218-2.425781-7.175781-4.566406-10.804687-6.433593 15.800781-.714844 30.746094 1.15625 44.503906 5.609374 24.09375 7.792969 37.625 22.21875 52.808594 40.261719 2.585937 3.074219 5.09375 6.21875 7.746094 9.550781 9.5 11.917969 19.324219 24.246094 32.613281 32.703126 14.808594 9.429687 29.289062 16.167968 49.976562 23.269531 3.621094 1.242187 7.558594-.683594 8.800782-4.300781 1.242187-3.617188-.683594-7.558594-4.300782-8.800782-19.585937-6.722656-33.214843-13.054687-47.039062-21.855468-11.335938-7.210938-20.425781-18.621094-29.214844-29.648438-2.597656-3.253906-5.277344-6.621094-7.980468-9.835938-16.0625-19.085937-31.597657-35.613281-59.148438-44.527343-32.664062-10.566407-72.308594-6.828125-105.460938.238281-32.421874 6.910156-53.8125 24.734375-63.570312 52.976562-3.136719 9.074219-5.066406 19.339844-5.738281 30.515626-.242188 4.027343-.3125 8.054687-.296875 12.050781.015625 3.996093.113281 7.960937.210937 11.859375.007813.253906.011719.503906.019531.757812.285157 11.304688.507813 22.007813-1.246093 32.628906-3.566407 21.5625-11.40625 42.101563-20.523438 64.792969-18.558593 46.179688-26 84.582031-23.292969 120.457031.089844 1.199219.191407 2.394532.300782 3.585938.363281 3.828125.855468 7.648438 1.480468 11.460938 4.355469 26.679687 15.027344 52.828124 31.203126 76.246093 12.441406 18.015625 27.746093 33.890625 45.070312 46.871094 7.875 5.902344 16.167969 11.203125 24.796875 15.835937 1.625.871094 3.269531 1.714844 4.929687 2.539063 29.910157 14.984375 63.96875 22.601563 98.566407 22.601563 34.96875 0 69.445312.472656 104.03125-6.671876 11.722656-2.421874 22.820312-5.46875 32.992187-9.054687 17.78125-6.269531 35.691406-15.90625 53.242188-28.644531 55.992187-40.648438 86.832031-96 89.191406-160.074219.9375-25.445313-2.453125-50.355469-10.078125-74.039063zm-255.625-155.90625c17.410156 20.371094 35.414063 41.433594 57.476563 52.980469 8.878906 4.648438 18.070312 8.824219 26.964843 12.863281 10.726563 4.871094 21.820313 9.910157 32.144531 15.703126 34.8125 19.53125 55.484376 45.9375 69.128907 88.289062 6.863281 21.304688 9.917969 43.75 9.074219 66.714844-1.660157 45.414062-19.167969 87.75-48.027344 116.148437-25.359375 24.957031-55.0625 43.964844-85.898438 54.976563-21.488281 7.671875-43.976562 11.890625-66.359375 12.726562-7.335937-.339844-15.214843-.84375-23.9375-1.527344-31.828125-2.492187-58.308593-9.582031-80.941406-21.664062-.105469-.058594-.214844-.109375-.324219-.167969-22.472656-12.0625-42.496094-29.023437-58.441406-49.421875-2.277344-2.914062-4.46875-5.898437-6.578125-8.949218-17.140625-24.820313-27.613281-52.878907-30.289063-81.140626-3.277343-34.617187 3.730469-71.980468 22.054688-117.574218 9.425781-23.460938 17.539062-44.746094 21.335938-67.695313 2.011718-12.15625 1.707031-24.277343 1.410156-35.996093-.148438-5.886719-.292969-11.53125-.164063-17.132813.042969-1.867187.117188-3.730469.226563-5.597656.074218-1.238281.167968-2.464844.273437-3.675781.761719-8.476563 2.347657-16.25 4.730469-23.148438 7.25-20.972656 21.792969-34.648438 44.316406-41.601562 2.886719-.890626 5.898438-1.675782 9.050782-2.347657 2.71875-.582031 5.433593-1.011719 8.296874-1.316406h.003907c.078125-.007813.152343-.027344.226562-.039063 40.582031-4.179687 66.699219 26.371094 94.246094 58.59375zm0 0"/><path d="m89.183594 97.117188c-.875 19.589843 2.777344 41.269531 1.933594 55.601562-1.996094 33.886719-18.988282 61.539062-29.855469 92.722656-13.363281 38.363282-22.953125 77.371094-7.402344 116.222656 13.644531 34.082032 39.765625 63.070313 72.09375 80.421876 44.351563 23.804687 98.960937 26.058593 146.363281 9.132812 27.171875-9.707031 52.539063-26.542969 73.050782-46.730469 27.285156-26.847656 39.449218-70.546875 37.21875-108.179687-1.738282-29.28125-10.980469-58.78125-28.621094-82.441406-32.414063-43.472657-93.824219-49.9375-127.335938-90.679688-6.875-8.359375-12.675781-17.515625-18.78125-26.429688-11.621094-16.960937-24.367187-33.382812-43.632812-42.019531-20.359375-9.125-42.480469-6.683593-59.015625 8.820313-9.394531 8.804687-15.433594 20.582031-16.015625 33.558594zm0 0" fill="#ffc1b8"/><g fill="#d33737"><path d="m242.027344 138.339844c-12.925782 7.355468-28.066406 10.957031-41.503906 5.394531-20.027344-8.277344-32.492188-25.457031-55.082032-27.691406-9.085937-.898438-18.371094-.890625-27.101562-3.558594-13.050782-3.988281-17.949219-13.839844-24.300782-24.796875-.78125-1.355469-1.503906-2.742188-2.15625-4.15625 2.710938-7.558594 7.332032-14.367188 13.320313-19.976562 16.535156-15.5 38.648437-17.941407 59.015625-8.820313 19.265625 8.640625 32.011719 25.066406 43.628906 42.027344 6.105469 8.90625 11.902344 18.070312 18.78125 26.421875 4.640625 5.648437 9.824219 10.636718 15.398438 15.15625zm0 0"/><path d="m109.621094 194.589844c-2.015625 9.859375-5.664063 19.117187-12.390625 28.140625-5.402344 7.238281-12.265625 17.984375-13.386719 27.191406-1.320312 10.820313 9.230469 16.355469 18.699219 18.238281 7.355469 1.464844 14.894531 1.097656 22.246093 2.351563 11.757813 2.003906 23.71875 8.289062 34.378907 13.324219 12.898437 6.097656 27.296875 8.574218 41.484375 6.789062 12.433594-1.5625 30-5.832031 37.019531-17.285156 19.277344-31.464844-14.101563-47.800782-31.476563-66.996094-12.277343-13.570312-16.40625-32.777344-29.699218-45.816406-12.832032-12.585938-38.058594-29.234375-55.902344-16.605469-8.09375 5.726563-8.261719 15.714844-8.507812 24.753906-.25 9.183594-.796876 17.753907-2.464844 25.914063zm0 0"/><path d="m187.613281 364.65625c30.117188.339844 59.976563-7.023438 88.792969-15.402344 13.316406-3.875 27.605469-8.601562 35.511719-19.996094 9.769531-14.078124 5.546875-38.945312-10.929688-46.734374-18.796875-8.886719-39.589843 11.238281-55.078125 18.78125-16.628906 8.101562-33.734375 12.679687-52.390625 10.652343-8.460937-.921875-18.210937.121094-24.261719 6.929688-7.234374 8.144531-9.152343 24.90625-5.640624 34.921875 3.054687 8.710937 13.65625 10.730468 23.996093 10.847656zm0 0"/><path d="m206.710938 462.21875c-28.09375-.277344-56.019532-6.855469-80.757813-20.136719-32.328125-17.347656-58.453125-46.332031-72.089844-80.421875-4.730469-11.792968-7.132812-23.621094-7.816406-35.425781 1.246094-15.335937 8.214844-29.496094 23.441406-35.234375 6.609375-2.496094 14.03125-3.789062 21.386719-3.664062 15.207031.277343 30.140625 6.679687 37.097656 21.335937 8.210938 17.296875-2.8125 36.308594 1.570313 54.019531 4.253906 17.140625 20.027343 21.949219 35.605469 24.144532 20.769531 2.9375 43.417968.355468 49.929687 24.6875 4.425781 16.488281.347656 35.929687-8.367187 50.695312zm0 0"/><path d="m360.492188 385.65625c-.71875.527344-1.464844 1.03125-2.234376 1.496094-11.339843 6.894531-35.625 4.808594-36.691406-11.925782-.605468-9.371093 10.011719-18.550781 13.527344-26.609374 10.804688-24.757813 11.566406-53.96875 1.382812-79.054688-5.917968-14.585938-35.316406-72.265625 1.871094-72.292969h.089844c5.660156 4.914063 10.882812 10.378907 15.527344 16.59375 17.640625 23.660157 26.882812 53.15625 28.625 82.449219 1.761718 29.765625-5.480469 63.328125-22.097656 89.34375zm0 0"/><path d="m279.746094 374.496094c-6.191406.367187-12.222656 1.773437-16.320313 3.441406-13.089843 5.320312-20.839843 18.222656-21.351562 32.089844-.582031 15.71875 3.90625 25.144531 20.707031 20.878906 10.050781-2.546875 21.855469-8.203125 29.222656-15.695312 7.613282-7.738282 16.558594-20.582032 11.214844-31.683594-3.65625-7.605469-13.761719-9.601563-23.472656-9.03125zm0 0"/><path d="m278.476562 190.957031c5.761719 4.773438 11.265626 9.910157 16.023438 16.136719 8.1875 10.722656 12.0625 34.09375 2.015625 44.8125-7.292969 7.78125-22.503906 7.765625-26.425781-3.261719-3.144532-8.839843-1.6875-15.984375-7.292969-24.15625-4.820313-7.027343-11.464844-12.582031-17.453125-18.5625-7.933594-7.929687-30.558594-29.195312-9.6875-38.292969 8.359375-3.648437 16.339844 1.726563 22.617188 7.128907 6.582031 5.667969 13.566406 10.691406 20.203124 16.195312zm0 0"/></g><path d="m279.339844 367.582031c-6.472656.382813-13.394532 1.851563-18.523438 3.9375-14.957031 6.082031-25.03125 21.097657-25.664062 38.25-.289063 7.785157.214844 18.847657 7.882812 25.039063 6.046875 4.890625 14.304688 4.625 21.453125 2.8125 9.785157-2.484375 23.453125-8.398438 32.457031-17.554688 13.460938-13.6875 18.023438-28.101562 12.515626-39.542968-4.4375-9.226563-15.140626-13.824219-30.121094-12.941407zm7.726562 42.773438c-5.769531 5.863281-15.96875 11.296875-25.988281 13.835937-4.484375 1.140625-7.800781 1.085938-9.335937-.15625-1.179688-.953125-3.105469-4.007812-2.746094-13.753906.4375-11.898438 6.96875-21.835938 17.039062-25.929688 2.933594-1.191406 8.183594-2.589843 14.117188-2.941406 8.742187-.511718 15.035156 1.398438 16.824218 5.117188 4.121094 8.566406-6.542968 20.402344-9.910156 23.828125zm0 0"/><path d="m205.652344 297.496094c0 26.929687-21.828125 48.757812-48.753906 48.757812-26.929688 0-48.757813-21.828125-48.757813-48.757812 0-26.925782 21.828125-48.757813 48.757813-48.757813 26.925781 0 48.753906 21.832031 48.753906 48.757813zm0 0" fill="#ffc1b8"/><path d="m205.648438 297.5c0 26.925781-21.828126 48.753906-48.753907 48.753906-11.964843 0-22.929687-4.3125-31.410156-11.46875 3.605469.851563 7.363281 1.296875 11.234375 1.296875 26.925781 0 48.753906-21.828125 48.753906-48.753906 0-14.953125-6.730468-28.339844-17.335937-37.277344 21.511719 5.078125 37.511719 24.390625 37.511719 47.449219zm0 0" fill="#ffb3a8"/><path d="m239.476562 209.859375s.972657.964844.972657.964844c5.574219 5.550781 12.027343 10.859375 16.632812 17.578125 4.484375 6.535156 3.910157 15.324218 6.480469 22.558594 1.3125 3.699218 3.6875 6.957031 6.851562 9.285156 9.375 6.898437 23.394532 4.675781 31.15625-3.605469 5.949219-6.34375 8.675782-16.195313 7.675782-27.738281-.847656-9.820313-4.304688-19.546875-9.242188-26.015625-4.449218-5.820313-9.726562-11.148438-17.105468-17.265625-6.664063-5.523438-13.546876-10.464844-20.109376-16.109375-4.484374-3.863281-16.402343-14.117188-29.898437-8.230469-8.878906 3.871094-11.683594 9.707031-12.476563 13.921875-2.484374 13.253906 11.53125 27.175781 19.0625 34.65625zm-5.257812-32.09375c.074219-2.625 2.019531-4.386719 7.097656-4.386719 3.277344 0 7.191406 2.117188 12.4375 6.632813 6.578125 5.660156 13.625 10.742187 20.304688 16.277343 6.539062 5.421876 11.148437 10.050782 14.933594 15.011719 6.925781 9.066407 9.414062 28.457031 2.472656 35.867188-2.398438 2.554687-6.550782 3.820312-10.097656 3.082031-2.402344-.503906-4.003907-1.824219-4.753907-3.925781-1.003906-2.832031-1.460937-5.554688-1.945312-8.441407-.863281-5.167968-1.847657-11.023437-6.160157-17.316406-4.035156-5.878906-9.027343-10.648437-13.851562-15.261718-5.089844-4.863282-9.625-9.242188-14.007812-14.839844-2.660157-3.394532-6.558594-8.09375-6.429688-12.699219zm0 0"/><path d="m389.503906 295.902344c-2.21875-37.53125-16.125-75.929688-44.097656-101.707032-2.4375-2.242187-4.960938-4.390624-7.566406-6.4375-5.070313-3.988281-10.4375-7.585937-15.925782-10.976562-9.820312-6.070312-20.097656-11.355469-30.359374-16.628906-18.945313-9.742188-38.574219-19.621094-53.683594-34.898438-2.789063-2.820312-5.410156-5.804687-7.859375-8.921875-4.382813-5.585937-8.347657-11.484375-12.308594-17.371093-1.375-2.042969-2.75-4.085938-4.140625-6.117188-3.5-5.109375-7.25-10.402344-11.390625-15.558594-.027344-.035156-.054687-.070312-.082031-.105468-.09375-.117188-.195313-.230469-.289063-.347657-9.132812-11.292969-20.183593-21.886719-34.75-28.417969-7.394531-3.3125-14.90625-5.21875-22.292969-5.761718-19.640624-1.445313-39.113281 7.6875-51.066406 23.351562-.101562.136719-.210937.269532-.3125.40625-2.714844 3.621094-4.742187 7.074219-6.550781 11.160156-.105469.238282-.214844.472657-.316406.707032-2.503907 5.890625-3.960938 12.140625-4.25 18.53125-.476563 10.683594.347656 22.011718 1.070312 32.007812.640625 8.8125 1.242188 17.136719.867188 23.496094-1.320313 22.46875-9.609375 42.105469-18.386719 62.894531-1.03125 2.441407-2.0625 4.882813-3.082031 7.332031-1.472657 3.53125.199219 7.585938 3.730469 9.058594 3.527343 1.46875 7.585937-.199218 9.058593-3.730468 10.027344-24.066407 20.953125-48.28125 22.507813-74.742188.429687-7.265625-.207032-16.03125-.878906-25.308594-.570313-7.855468-1.144532-15.917968-1.167969-23.765625 4.675781 6.464844 10.671875 12.105469 20.335937 15.058594 7.265625 2.21875 14.601563 2.757813 21.695313 3.277344 2.332031.171875 4.535156.332031 6.746093.550781 11.964844 1.183594 21.078126 7.460938 30.722657 14.113281 6.820312 4.699219 13.875 9.5625 22.394531 13.085938 5.203125 2.152343 10.8125 3.21875 16.667969 3.21875 8.570312 0 17.660156-2.289063 26.773437-6.796875 13.59375 10.308594 28.910156 18.203125 43.902344 25.914062 13.414062 6.894532 26.410156 13.589844 38.023438 21.730469-2.894532 1.828125-4.878907 4.046875-6.214844 6.097656-11.003906 16.839844 3.113281 49.101563 10.699218 66.433594.949219 2.175781 1.773438 4.054687 2.332032 5.433594 9.304687 22.925781 8.816406 50.472656-1.316406 73.683593-.960938 2.207032-2.886719 4.898438-4.925782 7.75-4.550781 6.363282-9.710937 13.578126-9.164062 22.070313.511718 7.992187 4.882812 14.527344 12.3125 18.398437 4.46875 2.328126 9.851562 3.539063 15.300781 3.691407-.582031.605469-1.164063 1.207031-1.757813 1.792969-20.824218 20.492187-45.210937 36.101562-70.519531 45.140624-16.867187 6.023438-34.480469 9.4375-52.050781 10.328126 6.019531-14.945313 7.539062-31.480469 3.835938-45.289063-6.667969-24.917969-28.195313-26.976563-45.492188-28.628906-3.367188-.324219-6.851562-.65625-10.164062-1.125-18.507813-2.613281-27.15625-8.105469-29.847657-18.953125-.945312-3.824219-1.011719-7.871094-.699219-12.097656 6.375 2.652343 13.347657 4.148437 20.65625 4.234374.25 1.019532.527344 2.007813.855469 2.9375 3.535157 10.085938 13.78125 15.292969 30.449219 15.480469.691406.007813 1.382812.011719 2.074219.011719 30.519531 0 60.660156-7.523438 88.734375-15.6875 14.910156-4.335938 30.222656-9.660156 39.269531-22.699219 6.257813-9.015625 8.097656-21.488281 4.921875-33.359375-2.878906-10.765625-9.652344-19.363281-18.582031-23.585937-17.566407-8.304688-35.160157 2.875-49.296875 11.855469-4.25 2.703124-8.269532 5.253906-11.777344 6.960937-10.875 5.296875-20.957031 8.515625-30.796875 9.789063.320313-2.414063.5-4.871094.5-7.371094 0-.648438-.027344-1.292969-.046875-1.9375 12.078125-2.800782 24.675781-8.207032 31.042969-18.601563 8.019531-13.085937 8.960937-25.828125 2.800781-37.875-5.074219-9.914062-14.058594-17.925781-22.742188-25.671875-4.523437-4.027344-8.792968-7.835937-12.300781-11.714844-5.203125-5.75-8.875-12.820312-12.761719-20.308593-4.636718-8.925781-9.425781-18.152344-17.226562-25.804688-17.25-16.921875-44.5625-31.609375-64.753906-17.316406-10.816406 7.65625-11.164063 20.5-11.417969 29.875l-.011719.34375c-.207031 7.605469-.644531 16.484375-2.328125 24.71875-2 9.796875-5.546875 17.863281-11.15625 25.382813-8.714843 11.6875-13.664062 21.949218-14.707031 30.5-1.546875 12.675781 7.734375 22.589843 24.222656 25.867187 1.511719.300781 3.003906.515625 4.488282.699219-.867188 2.023437-1.605469 4.117187-2.230469 6.253906-3.925781-.902344-8.085938-1.414062-12.457031-1.496094-8.175782-.132812-16.453126 1.277344-23.949219 4.105469-4.210938 1.585937-8.003907 3.800781-11.355469 6.542969 1.820312-9.679688 4.570312-20.484375 8.515625-32.65625 1.179687-3.640625-.816406-7.546875-4.453125-8.722656-3.640625-1.179688-7.546875.8125-8.726562 4.453124-4.382813 13.535157-8.0625 27.34375-10.179688 41.425782-1.078125 7.15625-1.75 14.375-1.863281 21.613281-.257813 16.574219 2.304687 31.71875 8.449219 47.066406 2.425781 6.050781 5.25 11.964844 8.421874 17.707031 11.550782 20.90625 27.839844 39.457032 47.148438 53.742188 6.261719 4.636719 12.839844 8.832031 19.679688 12.503906 15.335937 8.230469 32.109374 14.050782 49.25 17.421875 6.007812 1.179688 12.074218 2.066407 18.171874 2.65625 28.398438 2.746094 57.636719-.921875 84.542969-10.527343 27.195313-9.710938 53.328125-26.417969 75.582031-48.316407 4.308594-4.238281 8.234376-8.859375 11.792969-13.742187 2.945313-4.039063 5.664063-8.320313 8.136719-12.730469 2.027344-3.621094 3.890625-7.332031 5.574219-11.066406 2.246093-4.988281 4.210937-10.101563 5.902343-15.304688 5.042969-15.496093 7.785157-31.925781 8.101563-48.148437.003906-.074219.003906-.148438.007813-.21875.074218-4.011719 0-8.289063-.238282-12.3125zm-186.332031-158.570313c-7.164063-2.960937-13.316406-7.199219-19.828125-11.6875-10.667969-7.355469-21.699219-14.960937-37.222656-16.496093-2.386719-.234376-4.78125-.410157-7.097656-.578126-6.621094-.488281-12.878907-.945312-18.65625-2.710937-10.453126-3.195313-16.019532-13.679687-20.890626-22.640625-.765624-1.40625 5.628907-10.792969 6.648438-11.921875 3.25-3.585937 8.679688-7.003906 12.84375-9.367187 5.96875-3.386719 12.472656-5.257813 19.253906-5.574219 7.5-.347657 15.335938 1.199219 23.160156 4.703125 12.679688 5.683594 22.332032 15.179687 30.644532 25.703125 11.328125 14.347656 19.96875 30.617187 32.238281 44.28125.167969.1875.332031.375.503906.5625 1.011719 1.109375 2.050781 2.203125 3.121094 3.285156.097656.101563.199219.199219.300781.300781.457032.457032.910156.917969 1.375 1.367188-7.59375 2.832031-17.261718 4.554687-26.394531.773437zm-46.273437 201.996094c-23.066407 0-41.832032-18.765625-41.832032-41.832031 0-23.0625 18.765625-41.828125 41.832032-41.828125 23.0625 0 41.828124 18.761719 41.828124 41.828125s-18.765624 41.832031-41.828124 41.832031zm92.046874-31.796875c4.210938-2.050781 8.546876-4.804688 13.136719-7.722656 12.429688-7.898438 25.285157-16.0625 35.945313-11.023438 5.246094 2.476563 9.296875 7.8125 11.125 14.640625 2.101562 7.867188.980468 16.253907-2.925782 21.882813-6.464843 9.320312-18.710937 13.5-31.753906 17.292968-27.6875 8.050782-57.355468 15.460938-86.78125 15.125-10.183594-.113281-16.074218-2.1875-17.511718-6.160156 17.175781-4.21875 31.25-16.421875 38.027343-32.441406 13.171875-.890625 26.621094-4.714844 40.738281-11.59375zm-145.050781-46.164062c-3.3125-.660157-14.058593-3.371094-13.175781-10.605469.726562-5.953125 5.011719-14.4375 12.0625-23.890625 6.871094-9.214844 11.199219-19.03125 13.625-30.894532 1.894531-9.277343 2.378906-18.914062 2.601562-27.113281l.011719-.347656c.25-9.234375.773438-15.542969 5.570313-18.941406 14.171875-10.027344 36.976562 6.011719 47.050781 15.898437 6.226563 6.105469 10.308594 13.96875 14.632813 22.296875 4.121093 7.9375 8.382812 16.144531 14.785156 23.21875 4.007812 4.429688 8.757812 8.664063 13.351562 12.761719 18.25 16.273438 28.851563 27.199219 17.351563 45.96875-3.289063 5.371094-10.761719 9.546875-21.4375 12.132812-6.777344-23.109374-28.15625-40.039062-53.429688-40.039062-17.441406 0-33.027343 8.066406-43.242187 20.65625-3.40625-.230469-6.652344-.484375-9.757813-1.101562zm98.792969 193.792968c-15.339844-.507812-30.460938-2.960937-44.832031-7.332031-.058594-.019531-.121094-.039063-.183594-.054687-4.082031-1.25-8.300781-2.726563-12.113281-4.234376-12.46875-4.929687-24.957032-11.867187-35.707032-20.003906-15.417968-11.671875-28.664062-26.332031-38.683593-42.777344-4.226563-6.9375-7.882813-14.1875-10.875-21.671874-4.195313-10.460938-6.585938-21.179688-7.300781-32.757813.78125-8.617187 4.3125-23.335937 18.941406-28.847656 5.875-2.214844 12.375-3.328125 18.8125-3.21875 2.503906.046875 6.320312.339843 10.511718 1.417969-.019531.605468-.046874 1.210937-.046874 1.820312 0 17.707031 8.316406 33.496094 21.242187 43.703125-.960937 7.519531-1.589844 15.25.367187 23.160156 6.046876 24.351563 31.699219 27.96875 41.355469 29.332031 3.621094.511719 7.261719.863282 10.78125 1.199219 18.679688 1.785157 29.445313 3.523438 33.429688 18.425781 3.394531 12.632813 1.195312 28.332032-5.699219 41.839844zm165.953125-103.519531c-1.394531 4.328125-2.964844 8.539063-4.765625 12.703125-2.511719 5.8125-5.386719 11.335938-8.589844 16.496094-.210937.136718-.421875.269531-.628906.394531-4.875 2.964844-14.816406 3.921875-21.289062.550781-4.121094-2.148437-4.761719-5.023437-4.890626-7.003906-.230468-3.5625 3.40625-8.640625 6.609376-13.125 2.367187-3.304688 4.8125-6.726562 6.355468-10.265625 11.761719-26.953125 12.292969-57.726563 1.453125-84.429687-.628906-1.554688-1.484375-3.511719-2.476562-5.777344-5.113281-11.6875-18.699219-42.734375-11.792969-53.304688.519531-.796875 1.972656-3.019531 7.308594-3.5625.75.683594 1.488281 1.378906 2.21875 2.085938 23.875 23.109375 35.578125 57.660156 37.519531 90.316406.011719.175781.015625.355469.023437.53125 1.023438 18.34375-1.414062 36.914062-7.054687 54.390625zm0 0"/></svg>