<svg height="511pt" viewBox="-13 0 511 511.99971" width="511pt" xmlns="http://www.w3.org/2000/svg"><path d="m478.585938 414.585938c-.933594-15.421876-3.5-30.417969-5.375-42.070313-4-24.855469-10.457032-49.429687-11.039063-74.722656-.304687-13.273438.394531-26.566407 1.503906-39.789063 1.285157-15.308594 3.046875-30.644531 5.632813-45.792968 11.195312-48.230469 2.296875-96.269532-33.664063-131.859376-11.652343-11.53125-24.65625-21.640624-38.570312-30.300781-25.859375-16.09375-54.730469-26.980469-84.351563-33.796875-31.871094-7.335937-63.261718-8.546875-95.699218-8.363281-53.457032.304687-107.300782 16.132813-148.460938 46.601563-69.609375 51.527343-86.199219 162.34375-15.71875 220.1875 36.316406 29.800781 84.382812 50.03125 114.484375 86.800781 23.648437 28.882812 27.296875 60.820312 42.960937 93.292969 16.613282 34.433593 57.152344 51.636718 94.652344 49.535156 0 0 .097656.546875.097656.546875 26.601563.734375 53.351563-1.070313 79.910157-2.3125 36.527343-1.707031 80.195312-10.027344 90.535156-50.898438 3.042969-12.015625 3.847656-24.703125 3.101563-37.058593zm0 0" fill="#704138"/><path d="m475.488281 451.652344c-9.367187 36.996094-46.046875 47.320312-80.023437 50.203125 25.386718-5.980469 48.140625-19.148438 55.238281-48.152344 3.039063-12.4375 3.847656-25.5625 3.097656-38.351563-.925781-15.957031-3.496093-31.476562-5.371093-43.535156-3.996094-25.714844-10.457032-51.148437-11.042969-77.324218-.300781-13.734376.398437-27.488282 1.503906-41.171876 1.285156-15.847656 3.050781-31.714843 5.640625-47.390624 11.195312-49.90625 2.292969-99.621094-33.667969-136.449219-11.652343-11.9375-24.65625-22.394531-38.570312-31.355469-3.121094-2.011719-6.289063-3.9375-9.5-5.789062 11.851562 5.023437 23.34375 10.902343 34.285156 17.710937 13.90625 8.660156 26.914063 18.777344 38.5625 30.308594 35.972656 35.582031 44.863281 83.621093 33.667969 131.851562-2.582032 15.148438-4.355469 30.488281-5.628906 45.796875-1.117188 13.21875-1.816407 26.511719-1.507813 39.789063.578125 25.296875 7.039063 49.875 11.035156 74.722656 1.882813 11.648437 4.445313 26.648437 5.382813 42.070313.746094 12.359374-.0625 25.046874-3.101563 37.066406zm0 0" fill="#633029"/><path d="m52.84375 274.679688c36.3125 29.800781 84.378906 50.03125 114.484375 86.800781 23.648437 28.882812 27.296875 60.820312 42.960937 93.292969 22.164063 45.9375 86.902344 61.203124 130.203126 40.894531 44.824218-21.023438 74.644531-58.089844 66.953124-109.761719-8.890624-59.714844-6.398437-115.628906 5.949219-176.148438 14.539063-71.277343-11.367187-136.515624-76.46875-172.847656-79.996093-44.640625-194.570312-37.042968-268.363281 17.582032-69.609375 51.527343-86.199219 162.34375-15.71875 220.1875zm0 0" fill="#d33737"/><path d="m413.394531 209.757812c-12.34375 60.523438-14.839843 116.4375-5.953125 176.152344 7.679688 51.5625-22.007812 88.589844-66.679687 109.632813 28.160156-21.800781 44.394531-52.882813 38.488281-92.566407-8.898438-59.722656-6.402344-115.628906 5.949219-176.152343 14.539062-71.277344-11.371094-136.515625-76.46875-172.847657-69.539063-38.804687-165.210938-38.132812-237.5-1.417968 73.867187-52.863282 186.660156-59.757813 265.691406-15.648438 65.109375 36.332032 91.007813 101.570313 76.472656 172.847656zm0 0" fill="#bc2222"/><path d="m185.109375 140.597656c-35.828125 14.949219-62.503906 36.410156-54.203125 56.40625 9.476562 22.828125 49.371094 10.25 66.039062 20.941406 25.609376 16.421876 38.542969 72.570313 50.125 101.976563 6.226563 15.808594 14.714844 72.777344 36.679688 71.144531 23.445312-1.746094 1.007812-74.109375-1.28125-92.042968-3.847656-30.117188-13.355469-67.40625-3.71875-97.195313 8.082031-24.988281 61.921875-35.664063 38.105469-66.460937-18.039063-23.324219-83.269531-15-131.746094 5.230468zm0 0" fill="#ffc1b8"/><path d="m278.753906 201.832031c-9.640625 29.78125-.125 67.070313 3.714844 97.195313 2.292969 17.933594 24.726562 90.296875 1.289062 92.035156-3.070312.234375-5.875-.683594-8.457031-2.484375 10.699219-17.28125-7-75.671875-9.066406-91.863281-4.03125-31.640625-14.027344-70.808594-3.90625-102.09375 8.40625-25.964844 63.875-37.214844 40.792969-68.800782 5.832031 2.25 10.527344 5.394532 13.738281 9.546876 23.816406 30.792968-30.03125 41.46875-38.105469 66.464843zm0 0" fill="#ffb3a8"/><path d="m485.550781 414.164062c-.882812-14.527343-3.15625-28.582031-4.988281-39.878906l-.464844-2.878906c-1.191406-7.414062-2.617187-14.878906-3.992187-22.097656-.871094-4.5625-1.769531-9.277344-2.59375-13.90625l-.171875-1.339844c-.480469-3.820312-3.972656-6.53125-7.796875-6.042969-3.824219.480469-6.53125 3.972657-6.042969 7.796875l.191406 1.515625c.011719.113281.03125.230469.050782.347657.851562 4.765624 1.769531 9.582031 2.65625 14.242187 1.359374 7.121094 2.761718 14.488281 3.925781 21.703125l.46875 2.894531c1.777343 10.984375 3.992187 24.660157 4.828125 38.488281.761718 12.570313-.214844 24.320313-2.898438 34.929688-7.289062 28.796875-34.011718 43.296875-84.097656 45.640625-4.765625.222656-9.539062.460937-14.316406.703125-5.703125.289062-11.457032.574219-17.238282.835938 20.085938-10.945313 35.679688-24.699219 46.417969-40.996094 13.78125-20.910156 18.78125-44.878906 14.855469-71.238282-8.503906-57.144531-6.632812-112.347656 5.886719-173.730468 7.535156-36.925782 4.492187-72.777344-8.792969-103.675782-13.40625-31.171874-37.277344-57.238281-69.113281-75.515624 18.5625 6.402343 35.660156 14.429687 51.066406 24.015624 13.773437 8.570313 26.339844 18.441407 37.347656 29.335938 31.917969 31.585938 43.203125 76.09375 31.777344 125.320312-.03125.132813-.058594.269532-.082031.402344-2.410156 14.128906-4.277344 29.300782-5.707032 46.386719-1.320312 15.699219-1.804687 28.582031-1.527343 40.53125.03125 1.386719.078125 2.773437.144531 4.15625.179688 3.847656 3.449219 6.820313 7.296875 6.640625s6.824219-3.445312 6.640625-7.292969c-.058594-1.273437-.101562-2.546875-.132812-3.824219-.265626-11.445312.207031-23.851562 1.480468-39.046874 1.390625-16.605469 3.199219-31.328126 5.523438-45.003907 12.488281-54.042969-.152344-103.109375-35.597656-138.191406-11.746094-11.621094-25.136719-22.140625-39.792969-31.261719-24.996094-15.558594-54.089844-27.222656-86.472657-34.675781-46.945312-10.804687-98.230468-12.570313-145.546874-4.144531-12.695313 2.261718-25.234376 5.390625-37.484376 9.421875-23.851562 7.855469-46.65625 19.160156-66.84375 34.152343-19.152343 14.175782-35.171874 33.269532-46.328124 55.214844-10.886719 21.417969-16.953126 45.101563-17.539063 68.488282-1.078125 43.09375 15.925781 81.265624 47.875 107.488281 14.0625 11.542969 29.972656 21.757812 45.355469 31.636719 24.65625 15.828124 50.148437 32.199218 68.152344 54.191406 14.371093 17.546875 21.015624 36.460937 28.054687 56.484375 4.042969 11.5 8.222656 23.390625 14.023437 35.421875 7.144532 14.808594 18.5 27.152344 32.550782 36.035156.019531.011719.035156.019531.058594.035156 5.203124 3.339844 9.285156 5.464844 14.90625 7.871094 4.464843 1.929688 9.140624 3.613281 14.011718 5.015625 10.972656 3.164063 22.238282 4.726563 33.292969 4.726563 1.296875 0 2.589844-.027344 3.878906-.070313.902344.308594 1.703125.390625 2.140625.40625 4.300782.117187 8.609375.171875 12.925782.171875 17.867187 0 35.792968-.902344 53.238281-1.785156 4.757812-.242188 9.515625-.480469 14.265625-.703125 20.714844-.96875 83.75-3.914063 96.972656-56.152344 3.035156-12.003906 4.148438-25.191406 3.300781-39.195313zm-232.679687 72.824219c-17.332032-8.558593-30.421875-22.074219-38.28125-39.5-4.488282-9.945312-8.015625-19.980469-11.441406-29.726562-7.128907-20.28125-14.5-41.25-30.421876-60.699219-19.402343-23.699219-45.839843-40.675781-71.410156-57.09375-15.046875-9.664062-30.605468-19.652344-44.042968-30.683594-28.554688-23.429687-43.746094-57.648437-42.777344-96.351562.277344-10.957032 1.875-21.878906 4.664062-32.496094 8.371094-31.859375 27.445313-61.011719 53.554688-80.339844.109375-.082031.222656-.15625.332031-.238281 1.023437-.753906 2.054687-1.5 3.097656-2.238281.691407-.492188 1.398438-.972656 2.097657-1.457032.425781-.292968.847656-.589843 1.277343-.878906 1.003907-.679687 2.015625-1.351562 3.035157-2.015625.082031-.054687.164062-.109375.246093-.160156 19.785157-12.878906 41.773438-22.308594 64.488281-28.617187 12.109376-3.363282 24.464844-5.832032 36.925782-7.433594 50.5-6.488282 104.339844.847656 149.3125 25.945312 30.554687 17.050782 52.457031 40.597656 65.09375 69.984375 12.15625 28.273438 14.902344 61.253907 7.941406 95.375-12.859375 63.023438-14.769531 119.769531-6.015625 178.574219 8.820313 59.257812-35.695313 89.601562-63.011719 102.414062-26.164062 12.269532-59.070312 10.269532-84.664062-2.363281zm0 0"/><path d="m182.421875 134.15625c-2.371094.992188-4.726563 2.019531-7 3.054688-3.503906 1.601562-5.050781 5.738281-3.449219 9.246093 1.597656 3.503907 5.738282 5.050781 9.242188 3.449219 2.132812-.972656 4.347656-1.9375 6.582031-2.871094 52.058594-21.726562 109.785156-25.179687 123.539063-7.398437 3.472656 4.492187 4.945312 8.328125 4.496093 11.734375-.90625 6.910156-10.023437 13.855468-18.835937 20.574218-10.382813 7.910157-21.117188 16.09375-24.882813 27.738282-8.210937 25.375-3.5 55.1875.65625 81.488281 1.039063 6.566406 2.015625 12.773437 2.78125 18.734375.519531 4.09375 1.886719 10.246094 3.617188 18.035156 2.59375 11.671875 5.824219 26.203125 7.347656 39.191406 2.183594 18.632813-.378906 24.414063-1.582031 26.035157-.484375.652343-.894532.878906-1.699219.9375-5.460937.398437-10.585937-8.863281-13.15625-14.425781-4.847656-10.496094-8.515625-24.246094-11.464844-35.292969-1.859375-6.976563-3.46875-13.007813-5.050781-17.023438-2.558594-6.496093-5.246094-14.511719-8.09375-23.003906-10.195312-30.410156-22.882812-68.261719-44.753906-82.285156-8.191406-5.253907-19.769532-5.886719-30.96875-6.5-17.140625-.941407-28.65625-2.234375-32.394532-11.242188-4.21875-10.164062 6.207032-20.910156 15.695313-28.136719 3.066406-2.332031 3.660156-6.710937 1.324219-9.777343-2.335938-3.066407-6.710938-3.65625-9.777344-1.324219-24.265625 18.476562-24.339844 34.445312-20.132812 44.589844 7.386718 17.78125 27.976562 18.914062 44.519531 19.820312 9.394531.515625 19.109375 1.050782 24.203125 4.316406 17.734375 11.371094 29.558594 46.636719 39.054687 74.976563 2.90625 8.664063 5.648438 16.851563 8.34375 23.683594 1.285157 3.269531 2.800781 8.941406 4.550781 15.503906 6.789063 25.453125 16.03125 60.097656 37.601563 60.097656.503906 0 1.015625-.019531 1.535156-.058593 4.855469-.363282 8.957031-2.621094 11.863281-6.53125 9.734376-13.101563 4.246094-42.433594-3.34375-76.578126-1.585937-7.144531-2.957031-13.316406-3.398437-16.777343-.789063-6.164063-1.785156-12.46875-2.839844-19.144531-3.910156-24.753907-8.34375-52.8125-1.164062-75.015626 2.421875-7.488281 11.394531-14.324218 20.066406-20.933593 11.085937-8.449219 22.550781-17.1875 24.214844-29.855469.941406-7.179688-1.511719-14.609375-7.292969-22.085938-22.324219-28.863281-95.277344-15.585937-139.953125 3.054688zm0 0"/></svg>