<svg height="480pt" viewBox="0 0 480 480" width="480pt" xmlns="http://www.w3.org/2000/svg"><path d="m8 8h464v464h-464zm0 0" fill="#f9ddac"/><path d="m184 272h112v96h-112zm0 0" fill="#e97424"/><path d="m184 368h48v80c-26.507812 0-48-21.492188-48-48zm0 0" fill="#f3bb59"/><path d="m264 368h32v32c0 17.671875-14.328125 32-32 32zm0 0" fill="#f3bb59"/><path d="m216 192h48c8.835938 0 16 7.164062 16 16v64h-80v-64c0-8.835938 7.164062-16 16-16zm0 0" fill="#e4544f"/><g fill="#f9ddac"><path d="m256 328h16v16h-16zm0 0"/><path d="m240 312h16v16h-16zm0 0"/><path d="m208 296h16v16h-16zm0 0"/></g><path d="m312 120h112v96h-112zm0 0" fill="#e97424"/><path d="m360 40v80h-48v-32c0-26.507812 21.492188-48 48-48zm0 0" fill="#f3bb59"/><path d="m392 56c17.671875 0 32 14.328125 32 32v32h-32zm0 0" fill="#f3bb59"/><path d="m328 216h80v64c0 8.835938-7.164062 16-16 16h-48c-8.835938 0-16-7.164062-16-16zm0 0" fill="#e4544f"/><path d="m384 144h16v16h-16zm0 0" fill="#f9ddac"/><path d="m368 160h16v16h-16zm0 0" fill="#f9ddac"/><path d="m336 176h16v16h-16zm0 0" fill="#f9ddac"/><path d="m338.347656 221.660156 11.3125-11.3125 32.003906 32-11.316406 11.316406zm0 0" fill="#f3bb59"/><path d="m322.347656 253.65625 11.316406-11.3125 24 24.003906-11.3125 11.3125zm0 0" fill="#f3bb59"/><path d="m71.414062 39.894531c-35.402343 33.300781-37.109374 88.992188-3.808593 124.398438 33.296875 35.402343 88.992187 37.109375 124.394531 3.8125l-21.921875-23.304688c-22.53125 21.1875-57.976563 20.101563-79.167969-2.433593-21.1875-22.53125-20.097656-57.976563 2.433594-79.167969zm0 0" fill="#f3bb59"/><path d="m93.34375 63.199219c-22.53125 21.191406-23.621094 56.636719-2.433594 79.167969 21.191406 22.535156 56.636719 23.621093 79.167969 2.433593zm0 0" fill="#f9f443"/><path d="m71.414062 168c-35.230468 33.332031-36.851562 88.890625-3.621093 124.21875s88.78125 37.109375 124.207031 3.980469l-21.921875-23.304688c-22.53125 21.191407-57.976563 20.101563-79.167969-2.429687-21.1875-22.535156-20.097656-57.980469 2.433594-79.167969zm0 0" fill="#f3bb59"/><path d="m93.34375 191.3125c-22.53125 21.191406-23.621094 56.632812-2.433594 79.167969 21.191406 22.53125 56.636719 23.621093 79.167969 2.429687zm0 0" fill="#f9f443"/><path d="m264 96c0-13.253906-7.164062-24-16-24s-16 10.746094-16 24 7.164062 24 16 24 16-10.746094 16-24zm0 0" fill="#67c086"/><path d="m376 352c-11.046875-11.046875-25.375-14.628906-32-8.003906-6.628906 6.628906-3.042969 20.953125 8.003906 32.003906 11.046875 11.046875 25.375 14.628906 32 8.003906 6.625-6.628906 3.042969-20.953125-8.003906-32.003906zm0 0" fill="#67c086"/><path d="m128.003906 367.996094c-6.628906-6.628906-20.953125-3.042969-32 8.003906-11.050781 11.046875-14.632812 25.375-8.007812 32 6.628906 6.625 20.957031 3.042969 32.003906-8.003906s14.628906-25.375 8.003906-32zm0 0" fill="#67c086"/><path d="m224 152h16v16h-16zm0 0" fill="#e4544f"/><path d="m160 72h16v16h-16zm0 0" fill="#e4544f"/><path d="m408 320h16v16h-16zm0 0" fill="#e4544f"/><path d="m448 448h-48v-16h32v-48h16zm0 0" fill="#d3843d"/><path d="m80 448h-48v-64h16v48h32zm0 0" fill="#d3843d"/><path d="m240 248h16v24h-16zm0 0" fill="#f3bb59"/><path d="m240 216h16v16h-16zm0 0" fill="#f3bb59"/><path d="m90.921875 142.398438c-7.582031-8.042969-12.59375-18.164063-14.402344-29.070313l55.191407-9.328125-12.65625 54.542969c-10.769532-2.472657-20.5625-8.09375-28.132813-16.144531zm0 0" fill="#fffaa4"/><path d="m90.921875 270.472656c-7.582031-8.046875-12.59375-18.167968-14.402344-29.074218l55.199219-9.292969-12.65625 54.542969c-10.777344-2.480469-20.574219-8.113282-28.140625-16.175782zm0 0" fill="#fffaa4"/><path d="m256 328h16v16h-16zm0 0"/><path d="m240 312h16v16h-16zm0 0"/><path d="m208 296h16v16h-16zm0 0"/><path d="m312 224h8v56c0 13.253906 10.746094 24 24 24h48c13.253906 0 24-10.746094 24-24v-56h8c4.417969 0 8-3.582031 8-8v-128c-.027344-22.082031-17.917969-39.972656-40-40h-8v64h-16v-80h-8c-30.914062.035156-55.964844 25.085938-56 56v128c0 4.417969 3.582031 8 8 8zm88 56c0 4.417969-3.582031 8-8 8h-48c-4.417969 0-8-3.582031-8-8v-12.6875l10.34375 10.34375 11.3125-11.3125-21.65625-21.65625v-20.6875h4.6875l29.65625 29.65625 11.3125-11.3125-18.34375-18.34375h36.6875zm0-214.632812c9.582031 3.402343 15.988281 12.464843 16 22.632812v24h-16zm-80 22.632812c.019531-19 13.386719-35.375 32-39.199219v63.199219h-32zm96 40v80h-96v-80zm0 0"/><path d="m384 144h16v16h-16zm0 0"/><path d="m368 160h16v16h-16zm0 0"/><path d="m336 176h16v16h-16zm0 0"/><path d="m472 0h-464c-4.417969 0-8 3.582031-8 8v464c0 4.417969 3.582031 8 8 8h464c4.417969 0 8-3.582031 8-8v-464c0-4.417969-3.582031-8-8-8zm-8 464h-448v-448h448zm0 0"/><path d="m61.785156 297.871094c17.40625 18.613281 41.539063 29.484375 67.015625 30.183594 1.007813 0 2.015625.050781 3.015625.050781 15.386719.011719 30.546875-3.703125 44.183594-10.824219v82.71875c.035156 30.914062 25.085938 55.964844 56 56h8v-80h16v64h8c22.082031-.027344 39.972656-17.917969 40-40v-128c0-4.417969-3.582031-8-8-8h-8v-56c0-13.253906-10.746094-24-24-24h-48c-13.253906 0-24 10.746094-24 24v56h-8c-3.027344.019531-5.777344 1.757812-7.097656 4.480469l-6.503906-6.878907-60.199219-64c6.089843 1.398438 12.300781 2.199219 18.542969 2.398438 1.011718 0 2.019531.046875 3.019531.046875 24.429687.050781 47.945312-9.28125 65.695312-26.070313l5.832031-5.480468-131.519531-139.902344-5.832031 5.476562c-37.980469 35.6875-40.484375 95.179688-5.640625 133.929688-33.351563 37.082031-32.703125 93.539062 1.488281 129.847656zm67.480469 14.191406c-30.898437-.9375-58.488281-19.589844-70.871094-47.910156-12.386719-28.320313-7.347656-61.242188 12.941407-84.558594l11.0625 11.726562c-20.53125 24.855469-19.371094 61.109376 2.714843 84.597657 22.085938 23.492187 58.195313 26.886719 84.269531 7.921875l11.042969 11.726562c-14.628906 11.257813-32.710937 17.089844-51.160156 16.496094zm-32.523437-47.070312c-4.617188-4.925782-8.140626-10.769532-10.34375-17.152344l34.824218-5.855469-8 34.328125c-6.230468-2.566406-11.847656-6.425781-16.480468-11.320312zm39.378906-16.519532 22.09375 23.488282c-8.667969 5.777343-18.984375 8.558593-29.382813 7.917968zm-52.359375-16.417968c0-.46875-.050781-.941407 0-1.421876.292969-9.960937 3.703125-19.578124 9.75-27.496093l22.160156 23.558593zm140.238281 207.144531c-18.613281-3.824219-31.980469-20.199219-32-39.199219v-24h32zm64-39.199219c-.011719 10.167969-6.417969 19.230469-16 22.632812v-46.632812h16zm-80-192c0-4.417969 3.582031-8 8-8h48c4.417969 0 8 3.582031 8 8v56h-16v-16h-16v16h-32zm-16 72h96v80h-96v-53.28125c1.863281-1.503906 3.71875-3.03125 5.480469-4.6875l5.832031-5.480469-11.3125-12.023437zm-95.257812-143.113281c-4.617188-4.921875-8.140626-10.761719-10.34375-17.144531l34.824218-5.863282-8 34.328125c-6.230468-2.5625-11.851562-6.421875-16.480468-11.320312zm39.378906-16.519531 22.09375 23.488281c-8.667969 5.777343-18.984375 8.558593-29.382813 7.929687zm-42.640625-45.335938 22.160156 23.5625-31.878906 5.40625c0-.480469-.050781-.953125 0-1.433594.277343-9.96875 3.675781-19.597656 9.71875-27.535156zm-22.144531-23.535156 11.0625 11.703125c-20.5625 24.855469-19.417969 61.128906 2.675781 84.636719 22.097656 23.503906 58.230469 26.890624 84.308593 7.898437l11.042969 11.738281c-31.136719 23.914063-75.035156 21.652344-103.546875-5.335937l-5.109375-5.449219-.082031.074219c-26.503906-30.035157-26.652344-75.054688-.351562-105.265625zm0 0"/><path d="m248 128c13.457031 0 24-14.054688 24-32s-10.542969-32-24-32-24 14.054688-24 32 10.542969 32 24 32zm0-48c3.265625 0 8 6.230469 8 16s-4.734375 16-8 16-8-6.230469-8-16 4.734375-16 8-16zm0 0"/><path d="m338.34375 338.34375c-9.902344 9.902344-6.398438 28.929688 8 43.3125 7.449219 8.066406 17.734375 12.941406 28.695312 13.601562 5.429688.179688 10.699219-1.839843 14.617188-5.601562 9.902344-9.902344 6.398438-28.929688-8-43.3125s-33.410156-17.910156-43.3125-8zm40 40c-2.519531 2.535156-12.0625.625-20.6875-8s-10.519531-18.160156-8-20.6875c.949219-.761719 2.15625-1.132812 3.367188-1.03125 6.683593.792969 12.84375 4.007812 17.320312 9.03125 8.625 8.625 10.519531 18.160156 8 20.6875zm0 0"/><path d="m90.34375 370.34375c-14.398438 14.398438-17.902344 33.410156-8 43.3125 3.917969 3.761719 9.1875 5.78125 14.617188 5.601562 10.960937-.660156 21.246093-5.535156 28.695312-13.601562 14.398438-14.398438 17.902344-33.410156 8-43.3125s-28.921875-6.390625-43.3125 8zm24 24c-8.617188 8.617188-18.144531 10.527344-20.6875 8s-.625-12.0625 8-20.6875c4.476562-5.023438 10.636719-8.238281 17.320312-9.03125 1.210938-.101562 2.417969.269531 3.367188 1.03125 2.519531 2.527344.625 12.0625-8 20.6875zm0 0"/><path d="m224 152h16v16h-16zm0 0"/><path d="m160 72h16v16h-16zm0 0"/><path d="m408 320h16v16h-16zm0 0"/><path d="m432 432h-32v16h48v-64h-16zm0 0"/><path d="m80 432h-32v-48h-16v64h48zm0 0"/><path d="m240 216h16v16h-16zm0 0"/></svg>