<svg height="511pt" viewBox="0 0 511.99975 511" width="511pt" xmlns="http://www.w3.org/2000/svg"><path d="m195.578125 262.824219-41.660156 42.976562 35.238281 34.160157 11.445312-7.421876c8.796876-5.707031 20.039063-6.035156 29.15625-.855468 4.722657 2.683594 10.660157 1.835937 14.441407-2.066406l9.824219-10.132813zm0 0" fill="#bc7d53"/><path d="m254.023438 319.488281-9.820313 10.128907c-3.777344 3.898437-9.726563 4.75-14.445313 2.074218-9.113281-5.1875-20.351562-4.855468-29.160156.84375l-11.441406 7.429688-11.503906-11.15625c.042968.042968 7.085937-6.792969 7.667968-7.347656 3.398438-3.257813 7.273438-5.605469 11.777344-7.074219 6.871094-2.238281 14.949219-2.597657 21.878906-.414063 6.144532 1.933594 14.359376 3.566406 20.175782-.320312.675781-.453125 4.867187-3.828125 3.988281-4.714844.003906.003906 10.882813 10.550781 10.882813 10.550781zm0 0" fill="#af663e"/><path d="m153.917969 305.800781-137.460938 141.804688c-12.894531 13.300781-12.5625 34.53125.734375 47.421875 15.421875 14.949218 40.726563 11.753906 51.945313-6.5625l3.808593-6.222656c11.425782-18.648438 25.730469-35.375 42.382813-49.550782l11.070313-9.425781c17-14.472656 31.550781-31.597656 43.085937-50.710937l19.671875-32.59375zm0 0" fill="#bc7d53"/><path d="m64.578125 494.351562c-12.535156 12.929688-33.800781 13.847657-47.382813.679688-1.980468-1.917969-3.667968-4.015625-5.058593-6.265625 13.207031 7.753906 30.25 5.472656 40.953125-5.566406 1.6875-1.742188 3.207031-3.703125 4.546875-5.878907l3.808593-6.226562c11.421876-18.652344 25.730469-35.371094 42.375-49.554688l11.070313-9.417968c17-14.46875 31.554687-31.601563 43.085937-50.722656l19.671876-32.589844 11.507812 11.15625-19.671875 32.585937c-11.53125 19.121094-26.097656 36.242188-43.089844 50.722657l-11.066406 9.417968c-16.65625 14.175782-30.953125 30.902344-42.375 49.554688l-3.820313 6.214844c-1.328124 2.1875-2.867187 4.148437-4.554687 5.890624zm0 0" fill="#af663e"/><path d="m125.570312 390.117188c0 5.804687-4.703124 10.511718-10.507812 10.511718s-10.507812-4.707031-10.507812-10.511718c0-5.800782 4.703124-10.507813 10.507812-10.507813s10.507812 4.707031 10.507812 10.507813zm0 0" fill="#111"/><path d="m195.972656 263.207031s119.050782-141.3125 298.167969-254.597656c5.460937-3.453125 12.332031 1.652344 10.589844 7.871094-11.09375 39.550781-54.867188 148.53125-223.425781 319.929687-2.652344 2.695313-6.988282 2.738282-9.703126.105469zm0 0" fill="#bfbfbf"/><path d="m281.296875 336.40625c-2.648437 2.691406-6.972656 2.742188-9.691406.101562l-9.648438-9.347656c154.710938-157.320312 207.929688-263.886718 226.054688-314.632812 2.035156-1.308594 4.082031-2.605469 6.136719-3.914063 5.460937-3.457031 12.332031 1.648438 10.578124 7.875-11.089843 39.546875-54.859374 148.515625-223.429687 319.917969zm0 0" fill="#acacac"/><path d="m506.320312 3.308594c-4.710937-3.507813-10.960937-3.75-15.917968-.613282-93.007813 58.820313-169.523438 125.25-217.332032 170.617188-44.71875 42.433594-141.4375 145.421875-141.4375 145.421875-2.691406 2.777344-2.621093 7.207031.152344 9.898437 2.777344 2.691407 7.207032 2.621094 9.898438-.15625l12.386718-12.777343 26.21875 25.414062-16.796874 27.824219c-11.167969 18.503906-25.175782 34.992188-41.632813 49l-11.066406 9.421875c-17.242188 14.679687-31.984375 31.917969-43.8125 51.226563l-3.8125 6.222656c-4.230469 6.910156-11.269531 11.453125-19.304688 12.46875-8.03125 1.019531-15.980469-1.636719-21.796875-7.273438-10.507812-10.1875-10.769531-27.019531-.582031-37.527344l96.933594-99.996093c2.6875-2.777344 2.621093-7.207031-.15625-9.898438-2.773438-2.691406-7.203125-2.621093-9.894531.15625l-96.9375 99.996094c-7.535157 7.773437-11.59375 18.019531-11.42578175 28.84375.16796875 10.828125 4.54296875 20.941406 12.31640575 28.476563 7.640626 7.40625 17.679688 11.4375 28.148438 11.4375 1.707031 0 3.425781-.109376 5.148438-.324219 12.273437-1.550781 23.023437-8.492188 29.484374-19.042969l3.8125-6.226562c11.058594-18.046876 24.835938-34.15625 40.953126-47.878907l11.066406-9.421875c17.605468-14.988281 32.59375-32.628906 44.542968-52.425781l18.839844-31.214844 10.09375-6.546875c6.628906-4.296875 15.015625-4.542968 21.890625-.640625 7.492188 4.261719 16.921875 2.910157 22.921875-3.28125l4.957032-5.109375 12.550781 12.164063c2.6875 2.605469 6.179687 3.90625 9.667969 3.90625 3.597656 0 7.191406-1.382813 9.894531-4.132813 52.675781-53.558594 97.707031-105.679687 133.835937-154.898437l7.582032-10.476563 1.5-2.105468c2.242187-3.148438 1.511718-7.519532-1.636719-9.761719-3.148438-2.246094-7.519531-1.511719-9.761719 1.636719l-7.316406 10.175781-1.644532 2.238281c-35.722656 48.660156-80.285156 100.238281-132.457031 153.292969l-67.242187-65.179688-3.550782-3.445312c22.8125-25.898438 134.855469-148.707031 292.273438-248.300781.046875.011718.125.070312.113281.101562-5.496093 19.601562-20.832031 61.800781-61.75 124.164062-2.121093 3.234376-1.21875 7.574219 2.011719 9.695313s7.570312 1.21875 9.691406-2.011719c18.007813-27.449218 50.207032-80.578125 63.527344-128.066406 1.582031-5.644531-.4375-11.558594-5.148438-15.066406zm-267.148437 321.4375c-1.558594 1.609375-4.011719 1.960937-5.957031.851562-11.4375-6.496094-25.394532-6.085937-36.421875 1.070313l-6.769531 4.386719-26.210938-25.40625 31.917969-32.929688 48.394531 46.917969zm0 0"/><path d="m63.878906 453.761719c0 5.804687-4.707031 10.507812-10.511718 10.507812-5.804688 0-10.507813-4.703125-10.507813-10.507812 0-5.804688 4.703125-10.507813 10.507813-10.507813 5.804687 0 10.511718 4.703125 10.511718 10.507813zm0 0" fill="#111"/></svg>