<svg height="480pt" viewBox="0 -120 480.00134 480" width="480pt" xmlns="http://www.w3.org/2000/svg"><path d="m456 232h-432l-16-48h464zm0 0" fill="#f9ddac"/><path d="m360 56c-39.769531 0-72 7.160156-72 16l8 80c1.046875 17.222656 14.777344 30.953125 32 32h64c17.21875-1.046875 30.953125-14.777344 32-32l8-80c0-8.800781-32.234375-16-72-16zm0 0" fill="#dd3e46"/><path d="m432 72c0-8.835938-32.234375-16-72-16s-72 7.164062-72 16 32.234375 16 72 16 72-7.164062 72-16zm0 0" fill="#f3bb59"/><path d="m256 184h-160l-48-64h208zm0 0" fill="#e97424"/><path d="m256 152h-184l-24-32h208zm0 0" fill="#f9ddac"/><path d="m256 120h-160l-48-64h208zm0 0" fill="#f3bb59"/><g fill="#e97424"><path d="m184 80h72v16h-72zm0 0"/><path d="m72 80h96v16h-96zm0 0"/><path d="m352 0h16v16h-16zm0 0"/><path d="m304 16h16v16h-16zm0 0"/><path d="m392 16h16v16h-16zm0 0"/></g><path d="m1.511719 179.328125c-1.5039065 2.085937-1.914063 4.761719-1.105469 7.199219l16 48c1.089844 3.269531 4.148438 5.472656 7.59375 5.472656h432c3.445312 0 6.503906-2.203125 7.589844-5.472656l16-48c.8125-2.4375.40625-5.121094-1.101563-7.207032-1.503906-2.085937-3.917969-3.320312-6.488281-3.320312h-49.097656c5.261718-6.664062 8.425781-14.738281 9.097656-23.199219l8-80s0-.519531 0-.800781c0-22.269531-61.234375-24-80-24-18.769531 0-80 1.730469-80 24 0 .28125.039062.800781.039062.800781l8 79.769531c.65625 8.535157 3.820313 16.6875 9.097657 23.429688h-33.136719v-120c0-4.417969-3.582031-8-8-8h-208c-3.03125 0-5.800781 1.710938-7.15625 4.421875s-1.0625 5.953125.753906 8.378906l38.402344 51.199219h-32c-3.03125 0-5.800781 1.710938-7.15625 4.421875s-1.0625 5.953125.753906 8.378906l38.402344 51.199219h-72c-2.574219.003906-4.988281 1.242188-6.488281 3.328125zm358.488281-115.328125c20.617188-.847656 41.226562 1.859375 60.925781 8-19.699219 6.140625-40.308593 8.847656-60.925781 8-20.617188.847656-41.226562-1.859375-60.929688-8 19.703126-6.140625 40.3125-8.847656 60.929688-8zm-56.039062 87.199219-6.273438-62.75c20.3125 5.429687 41.289062 7.972656 62.3125 7.550781 21.023438.421875 42-2.121094 62.3125-7.550781l-6.3125 62.984375c-.683594 13.058594-10.960938 23.578125-24 24.566406h-64c-13.125-1.015625-23.433594-11.652344-24.039062-24.800781zm-215.960938-55.199219h80v-16h-92l-12-16h184v16h-64v16h64v16h-148zm-24 32h184v16h-172zm24 32h160v16h-148zm372.902344 32-10.671875 32h-420.464844l-10.671875-32zm0 0"/><path d="m352 0h16v16h-16zm0 0"/><path d="m304 16h16v16h-16zm0 0"/><path d="m392 16h16v16h-16zm0 0"/></svg>