<svg height="512pt" viewBox="0 -34 512.00063 512" width="512pt" xmlns="http://www.w3.org/2000/svg"><path d="m465.449219 48.910156-35.132813 33.789063c-7.707031 7.410156-19.265625 5.953125-24.40625-3.078125l-17.414062-30.597656c-1.03125-2.265626-2.253906-4.417969-3.65625-6.425782-4.675782-6.695312-11.320313-11.800781-19.417969-14.207031-20.601563-6.117187-42.96875 7.667969-49.621094 30.589844-4.773437 16.453125-.277343 33.167969 10.273438 43.503906l46.363281 61.566406c9.898438 13.144531 28.527344 13.410157 40.066406.566407l51.214844-56.988282c6.875-7.648437 17.769531-8.273437 24.589844-1.40625l11.277344 14.183594c2.023437 2.539062 5.96875.25 5.34375-3.105469l-11.1875-60.207031c-3.292969-13.371094-18.367188-17.730469-28.292969-8.183594zm0 0" fill="#ffc1b8"/><path d="m495.050781 64.152344c-6.8125-4.894532-16.535156-4.636719-23.785156 2.335937-8.417969 8.09375-16.832031 16.1875-25.246094 24.28125-8.984375 8.640625-21.261719 25.351563-35.410156 19.972657-5.226563-1.988282-8.699219-6.894532-11.621094-11.667969-10.0625-16.4375-18.164062-38.488281-35.054687-49.28125-7.660156-4.894531-17.078125-6.886719-26.007813-4.96875-5.640625 1.210937-21.035156 7.597656-22.171875 14.34375.007813-.058594.027344-.128907.046875-.1875 6.652344-22.921875 29.019531-36.707031 49.625-30.589844 4.046875 1.203125 7.738281 3.082031 10.988281 5.5 3.25 2.40625 6.085938 5.359375 8.421876 8.710937 1.402343 2.007813 2.625 4.15625 3.660156 6.425782l17.414062 30.597656c5.140625 9.03125 16.695313 10.484375 24.402344 3.074219l35.132812-33.792969c9.925782-9.546875 25-5.179688 28.292969 8.183594zm0 0" fill="#ffb3a8"/><path d="m46.550781 48.910156 35.136719 33.789063c7.703125 7.410156 19.261719 5.953125 24.402344-3.078125l17.414062-30.597656c1.03125-2.265626 2.253906-4.417969 3.65625-6.425782 4.675782-6.695312 11.320313-11.800781 19.421875-14.207031 20.601563-6.117187 42.964844 7.667969 49.617188 30.589844 4.773437 16.453125.277343 33.167969-10.273438 43.503906l-46.363281 61.566406c-9.898438 13.144531-28.527344 13.410157-40.066406.566407l-51.214844-56.988282c-6.871094-7.648437-17.769531-8.273437-24.589844-1.40625l-11.277344 14.183594c-2.019531 2.539062-5.964843.25-5.339843-3.105469l11.183593-60.207031c3.292969-13.371094 18.367188-17.730469 28.292969-8.183594zm0 0" fill="#ffc1b8"/><path d="m16.949219 64.152344c6.8125-4.894532 16.539062-4.636719 23.785156 2.335937 8.417969 8.09375 16.832031 16.1875 25.246094 24.28125 8.984375 8.640625 21.261719 25.351563 35.410156 19.972657 5.226563-1.988282 8.699219-6.894532 11.621094-11.667969 10.0625-16.4375 18.164062-38.488281 35.054687-49.28125 7.664063-4.894531 17.082032-6.886719 26.007813-4.96875 5.644531 1.210937 21.035156 7.597656 22.175781 14.34375-.011719-.058594-.03125-.128907-.050781-.1875-6.652344-22.921875-29.019531-36.707031-49.625-30.589844-4.046875 1.203125-7.734375 3.082031-10.988281 5.5-3.25 2.40625-6.085938 5.359375-8.421876 8.710937-1.402343 2.007813-2.625 4.15625-3.660156 6.425782l-17.414062 30.597656c-5.140625 9.03125-16.695313 10.484375-24.402344 3.074219l-35.132812-33.792969c-9.925782-9.546875-25-5.183594-28.292969 8.183594zm0 0" fill="#ffb3a8"/><path d="m292.476562 400.660156c-3.632812 10.777344 2.160157 22.460938 12.9375 26.09375 5.757813 1.941406 11.769532 1.191406 16.675782-1.566406 2.238281 5.167969 6.570312 9.402344 12.324218 11.34375 10.777344 3.632812 22.460938-2.160156 26.097657-12.9375 3.632812-10.78125-2.160157-22.464844-12.9375-26.097656-.691407-.230469-1.382813-.421875-2.074219-.578125l11.371094-33.726563-26.5-8.929687-11.335938 33.632812c-.15625-.058593-.308594-.117187-.464844-.171875-10.777343-3.632812-22.460937 2.160156-26.09375 12.9375zm0 0" fill="#e7e7e7"/><path d="m347.570312 397.5c-.691406-.230469-1.378906-.421875-2.070312-.582031l11.371094-33.730469-8.847656-2.980469c-2.191407 6.59375-4.382813 13.183594-6.574219 19.777344-1.539063 4.628906-3.078125 9.253906-4.617188 13.890625-.917969 2.757812-2.25 6.128906-1.691406 9.085938.929687 4.894531 7.796875 4.972656 11.132813 7.570312 5.019531 3.90625 5.136718 11.421875 3.230468 17.0625-1.402344 4.144531-3.996094 7.558594-7.265625 9.976562 8.125-.488281 15.511719-5.804687 18.273438-13.980468 3.632812-10.777344-2.160157-22.457032-12.941407-26.089844zm0 0" fill="#cecece"/><path d="m315.402344 251.839844c12.046875-35.734375 47.640625-56 79.503906-45.257813 31.863281 10.738281 47.929688 48.417969 35.882812 84.15625-6.347656 18.828125-19.230468 33.351563-34.664062 41.3125-12.574219 6.488281-22.066406 16.859375-26.363281 29.609375-.980469 2.914063-4.417969 4.386719-7.675781 3.289063l-36.929688-12.445313c-3.257812-1.101562-5.101562-4.351562-4.117188-7.269531 4.296876-12.746094 3.019532-26.75-3.058593-39.523437-7.460938-15.679688-8.925781-35.042969-2.578125-53.871094zm0 0" fill="#ffc1b8"/><path d="m430.792969 290.738281c-6.355469 18.824219-19.238281 33.347657-34.671875 41.3125-12.570313 6.488281-22.066406 16.855469-26.359375 29.605469-.761719 2.261719-2.992188 3.65625-5.484375 3.65625-.722656 0-1.464844-.113281-2.195313-.363281 0 0-5.546875-1.867188-5.617187-1.890625-.84375-.285156-.183594-1.839844-.019532-2.347656 2.109376-6.503907 7.277344-12.683594 11.183594-18.171876 4.808594-6.761718 9.640625-13.160156 16.378906-18.101562 2.21875-1.625 4.464844-3.214844 6.660157-4.871094 4.472656-3.367187 8.78125-7.039062 12.089843-11.597656 10.613282-14.625 15.328126-35.410156 15.71875-53.160156.496094-22.402344-9.246093-40.277344-30.292968-50.023438 2.253906.449219 4.503906 1.050782 6.726562 1.800782 31.859375 10.738281 47.921875 48.410156 35.882813 84.152343zm0 0" fill="#ffb3a8"/><path d="m193.429688 387.722656c-.15625.050782-.308594.113282-.464844.167969l-11.335938-33.632813-26.5 8.933594 11.371094 33.726563c-.695312.15625-1.386719.347656-2.074219.578125-10.777343 3.632812-16.570312 15.316406-12.9375 26.09375 3.632813 10.78125 15.316407 16.574218 26.097657 12.941406 5.753906-1.941406 10.085937-6.179688 12.324218-11.34375 4.90625 2.757812 10.917969 3.507812 16.675782 1.566406 10.777343-3.632812 16.570312-15.316406 12.9375-26.09375-3.632813-10.777344-15.316407-16.570312-26.09375-12.9375zm0 0" fill="#e7e7e7"/><path d="m151.488281 423.589844c2.761719 8.175781 10.148438 13.492187 18.277344 13.984375-3.273437-2.421875-5.867187-5.835938-7.269531-9.980469-1.90625-5.640625-1.789063-13.15625 3.230468-17.0625 3.335938-2.597656 10.207032-2.675781 11.132813-7.570312.5625-2.957032-.773437-6.328126-1.691406-9.085938-1.539063-4.632812-3.078125-9.261719-4.617188-13.890625-2.1875-6.589844-4.378906-13.183594-6.570312-19.777344l-8.847657 2.984375 11.367188 33.726563c-.691406.160156-1.378906.351562-2.070312.582031-10.78125 3.632812-16.574219 15.3125-12.941407 26.089844zm0 0" fill="#cecece"/><path d="m196.597656 251.839844c-12.046875-35.734375-47.640625-56-79.503906-45.257813-31.863281 10.738281-47.925781 48.417969-35.882812 84.15625 6.347656 18.828125 19.234374 33.351563 34.664062 41.3125 12.574219 6.488281 22.066406 16.859375 26.363281 29.609375.984375 2.914063 4.421875 4.386719 7.675781 3.289063l36.929688-12.445313c3.257812-1.101562 5.101562-4.351562 4.117188-7.269531-4.296876-12.746094-3.019532-26.75 3.058593-39.523437 7.464844-15.679688 8.925781-35.042969 2.578125-53.871094zm0 0" fill="#ffc1b8"/><path d="m81.207031 290.738281c6.355469 18.824219 19.238281 33.347657 34.671875 41.3125 12.570313 6.488281 22.066406 16.855469 26.363282 29.605469.757812 2.261719 2.992187 3.65625 5.484374 3.65625.71875 0 1.460938-.113281 2.191407-.363281 0 0 5.546875-1.867188 5.617187-1.890625.65625-.222656.316406-1.15625.253906-1.617188-.328124-2.484375-2.433593-5.25-3.691406-7.328125-2.097656-3.457031-4.371094-6.808593-6.695312-10.117187-4.601563-6.558594-9.238282-13.445313-15.703125-18.292969-2.386719-1.792969-4.832031-3.511719-7.230469-5.289063-4.878906-3.609374-9.636719-7.5-13.226562-12.445312-10.613282-14.625-15.328126-35.410156-15.71875-53.160156-.496094-22.402344 9.246093-40.277344 30.292968-50.023438-2.253906.449219-4.503906 1.050782-6.726562 1.800782-31.859375 10.738281-47.921875 48.410156-35.882813 84.152343zm0 0" fill="#ffb3a8"/><path d="m371.582031 89.410156c-4.917969-41.003906-24.238281-61.933594-41.242187-72.542968-17.050782-10.640626-38.15625-12.898438-56.957032-5.800782-3.769531 1.421875-6.886718 2.992188-9.390624 4.480469-4.929688 2.921875-11.050782 2.921875-15.980469 0-2.507813-1.488281-5.625-3.058594-9.394531-4.480469-18.800782-7.097656-39.90625-4.839844-56.957032 5.800782-17 10.609374-36.320312 31.539062-41.242187 72.542968-2.746094 22.867188-5.285157 45.199219-3.097657 68.328125 1.777344 18.789063 3.65625 37.601563 7.097657 56.175781 9.664062 52.167969 44.132812 76.371094 91.519531 83.386719 13.054688 1.933594 26.308594 1.933594 39.40625.34375 10.355469-1.257812 20.617188-3.253906 30.523438-6.457031 34.898437-11.289062 55.453124-43.085938 61.839843-77.945312 3.363281-18.355469 5.21875-36.941407 6.976563-55.507813 2.1875-23.128906-.355469-45.457031-3.101563-68.324219zm0 0" fill="#ffc1b8"/><path d="m374.679688 157.734375c-1.75 18.566406-3.613282 37.152344-6.972657 55.507813-6.386719 34.859374-26.945312 66.65625-61.84375 77.949218-9.910156 3.203125-20.167969 5.191406-30.515625 6.453125-11.210937 1.363281-22.53125 1.5625-33.738281.371094 1.128906-.109375 2.261719-.230469 3.390625-.371094 10.359375-1.261719 20.617188-3.25 30.527344-6.453125 34.898437-11.292968 55.457031-43.089844 61.84375-77.949218 3.363281-18.355469 5.214844-36.941407 6.972656-55.507813 2.183594-23.128906-.359375-45.457031-3.101562-68.328125-4.921876-41.003906-24.238282-61.929688-41.246094-72.539062-6.003906-3.753907-12.507813-6.457032-19.246094-8.078126 16.804688-4.101562 34.742188-1.191406 49.59375 8.078126 16.996094 10.609374 36.320312 31.535156 41.234375 72.539062 2.753906 22.871094 5.296875 45.199219 3.101563 68.328125zm0 0" fill="#ffb3a8"/><path d="m511.816406 116.023438-11.1875-60.210938c-.023437-.128906-.050781-.261719-.082031-.394531-2.152344-8.738281-8.324219-15.367188-16.511719-17.738281-8.191406-2.371094-16.953125-.0625-23.441406 6.179687l-35.132812 33.789063c-2.183594 2.101562-4.945313 3.085937-7.570313 2.707031-2.457031-.355469-4.546875-1.847657-5.886719-4.199219l-17.265625-30.332031c-1.183593-2.546875-2.578125-4.980469-4.152343-7.234375-5.78125-8.277344-13.792969-14.128906-23.167969-16.914063-6.664063-1.976562-13.644531-2.246093-20.460938-.878906-4.367187-4.039063-8.765625-7.289063-12.910156-9.875-18.90625-11.800781-42.511719-14.199219-63.136719-6.414063-3.742187 1.414063-7.269531 3.097657-10.492187 5.011719-2.722657 1.613281-6.109375 1.613281-8.832031 0-3.222657-1.914062-6.753907-3.597656-10.492188-5.011719-20.625-7.785156-44.230469-5.386718-63.140625 6.414063-4.140625 2.582031-8.535156 5.828125-12.898437 9.863281-6.816407-1.363281-13.800782-1.089844-20.46875.890625-9.375 2.785157-17.386719 8.632813-23.167969 16.910157-1.574219 2.257812-2.972657 4.691406-4.152344 7.234374l-17.265625 30.335938c-1.339844 2.351562-3.429688 3.84375-5.886719 4.199219-2.621093.378906-5.386719-.605469-7.570312-2.707031l-35.136719-33.789063c-6.484375-6.242187-15.246094-8.550781-23.4375-6.179687-8.1875 2.371093-14.359375 9-16.511719 17.738281-.03125.132812-.0625.265625-.085937.394531l-11.1875 60.210938c-.894532 4.804687 1.550781 9.558593 5.949218 11.5625 4.175782 1.90625 8.90625.773437 11.765626-2.820313l11.003906-13.839844c2.230468-2.101562 4.675781-2.503906 6.367187-2.460937 2.867188.070312 5.636719 1.4375 7.800781 3.84375l33.207032 36.953125c2.585937 2.878906 7.015625 3.113281 9.894531.527343 2.875-2.585937 3.113281-7.015624.527344-9.890624l-33.207031-36.953126c-4.765626-5.304687-11.113282-8.320312-17.871094-8.488281-6.375-.160156-12.367188 2.265625-16.902344 6.824219-.179688.183594-.351562.378906-.511719.578125l-1.492187 1.875 8.390625-45.144531c.984375-3.78125 3.4375-6.492188 6.757812-7.453125 3.371094-.976563 6.953125.054687 9.832031 2.820312l35.132813 33.792969c5.320313 5.117188 12.355469 7.480469 19.292969 6.472656 6.730468-.972656 12.582031-5.03125 16.054687-11.136718l17.414063-30.597657c.105468-.179687.199218-.367187.285156-.558593.859375-1.882813 1.878906-3.671876 3.027344-5.320313 3.949218-5.652344 9.367187-9.628906 15.667968-11.503906 1.53125-.453125 3.09375-.757813 4.671876-.941407-9.199219 12.769532-16.894532 30.328126-19.78125 54.410157-2.550782 21.234375-5.4375 45.300781-3.117188 69.820312.148438 1.589844.300781 3.152344.449219 4.71875-6.191407 5.074219-14.882813 5.390625-22.113281.351563-3.175782-2.214844-7.542969-1.433594-9.753907 1.738281-2.214843 3.175781-1.433593 7.542969 1.738281 9.753906 5.941407 4.140625 12.585938 6.148438 19.101563 6.148438 4.339844 0 8.613281-.894531 12.585937-2.636719.667969 6.195312 1.390626 12.261719 2.222657 18.285156-6.589844-.007812-13.222657 1-19.71875 3.1875-35.472657 11.957032-53.542969 53.691406-40.28125 93.03125 6.648437 19.734375 20.53125 36.246094 38.085937 45.304688 11.164063 5.757812 19.3125 14.859375 22.9375 25.621094 1.105469 3.273437 3.605469 5.953124 6.863282 7.351562 1.667968.710938 3.453124 1.070312 5.257812 1.070312.996094 0 1.992188-.117187 2.980469-.335937l7.023437 20.828125c-4.925781 2.6875-8.902344 6.8125-11.445312 11.941406-3.273438 6.605469-3.78125 14.089844-1.425782 21.078125 2.355469 6.984375 7.289063 12.636719 13.894532 15.910157 3.871094 1.921874 8.039062 2.886718 12.234375 2.886718 2.96875 0 5.949219-.484375 8.84375-1.457031 5.195312-1.753906 9.714843-5.011719 13.019531-9.28125 5.210938 1.398437 10.78125 1.253906 15.980469-.496094 14.421875-4.863281 22.199219-20.550781 17.335937-34.972656-2.351562-6.988281-7.289062-12.636719-13.894531-15.914063-4.613281-2.285156-9.652344-3.21875-14.660156-2.777343l-7.128907-21.152344c2.582032-1.191406 4.726563-3.128906 6.109376-5.574219 1.75-3.085937 2.117187-6.730468 1.015624-10.007812-3.628906-10.757813-2.652343-22.933594 2.746094-34.277344 1.816406-3.820312 3.269532-7.820312 4.398438-11.929688 9.171875 3.328126 19.21875 5.820313 30.164062 7.441407 7.058594 1.046875 14.300782 1.570312 21.671875 1.570312 6.449219 0 13-.402343 19.605469-1.203125 11.648438-1.414062 21.921875-3.582031 31.398438-6.613281 1.078124 3.691406 2.425781 7.285156 4.066406 10.734375 5.398437 11.34375 6.375 23.519531 2.746094 34.277344-1.101563 3.277344-.734376 6.925781 1.011718 10.007812 1.386719 2.445313 3.527344 4.382813 6.113282 5.574219l-7.132813 21.152344c-5-.445313-10.046875.492187-14.660156 2.777343-6.605469 3.277344-11.539063 8.925782-13.894531 15.914063-4.859376 14.421875 2.917968 30.109375 17.339843 34.972656 5.195313 1.75 10.765625 1.894531 15.980469.496094 3.300781 4.269531 7.820312 7.527344 13.019531 9.28125 2.894531.972656 5.875 1.457031 8.839844 1.457031 4.195313 0 8.367187-.96875 12.238281-2.886718 6.605469-3.273438 11.539063-8.921876 13.894532-15.910157 2.355468-6.988281 1.847656-14.472656-1.425782-21.078125-2.546875-5.128906-6.523437-9.253906-11.445312-11.941406l7.019531-20.828125c.988281.21875 1.988281.335937 2.984375.335937 1.804688 0 3.589844-.355468 5.253906-1.070312 3.257813-1.398438 5.761719-4.078125 6.863282-7.351562 3.628906-10.761719 11.773437-19.859376 22.9375-25.621094 1.59375-.820313 3.183593-1.722656 4.726562-2.667969 3.296875-2.027344 4.324219-6.34375 2.300781-9.640625-2.027343-3.292969-6.34375-4.324219-9.640625-2.296875-1.246094.765625-2.527344 1.488281-3.8125 2.152344-13.953125 7.203125-24.3125 18.613281-29.3125 32.242187l-30.992187-10.445312-4.488281-1.511719c4.269531-13.875 2.933593-29.230469-3.8125-43.410156-1.527344-3.210938-2.75-6.574219-3.679688-10.042969 27.613281-13.96875 47.398438-42.261719 53.96875-78.152344.230469-1.242187.433594-2.484375.648438-3.722656 5.816406-.253906 11.695312.507812 17.425781 2.441406 28.148437 9.488282 42.273437 43.257813 31.480469 75.277344-1.667969 4.941406-3.871094 9.667969-6.546876 14.039062-2.019531 3.300782-.980468 7.613282 2.316407 9.632813 3.300781 2.019531 7.613281.980469 9.632812-2.316406 3.222657-5.265625 5.871094-10.945313 7.875-16.882813 13.257813-39.339844-4.8125-81.070312-40.285156-93.03125-6.496094-2.1875-13.132813-3.203125-19.726563-3.195312.835938-6.03125 1.5625-12.105469 2.234376-18.304688 3.503906 1.542969 7.28125 2.449219 11.179687 2.617188.460937.019531.917969.03125 1.378906.03125 9.5 0 18.730469-4.25 25.507813-11.789063l51.214844-56.988281c2.164062-2.410156 4.933593-3.773438 7.800781-3.847656 1.695312-.042969 4.136719.359375 6.367187 2.460937l11.003906 13.839844c2.859376 3.59375 7.585938 4.726563 11.765626 2.824219 4.398437-2.007813 6.84375-6.761719 5.949218-11.566406zm-157.945312 305.332031c-2.394532 7.101562-10.117188 10.929687-17.21875 8.539062-3.640625-1.230469-6.605469-3.957031-8.132813-7.488281-.789062-1.820312-2.3125-3.222656-4.191406-3.855469-.726563-.246093-1.484375-.367187-2.238281-.367187-1.1875 0-2.371094.300781-3.433594.898437-3.351562 1.882813-7.363281 2.261719-11.003906 1.035157-3.441406-1.160157-6.222656-3.589844-7.835938-6.839844-1.609375-3.253906-1.859375-6.9375-.703125-10.378906 1.160157-3.4375 3.589844-6.222657 6.84375-7.835938 3.25-1.609375 6.9375-1.859375 10.429688-.679688l.257812.097657c1.773438.640625 3.730469.542969 5.429688-.273438 1.699219-.820312 2.996093-2.289062 3.597656-4.074219l9.101563-26.996093 13.21875 4.457031-9.132813 27.089844c-.632813 1.878906-.4375 3.941406.53125 5.667968.972656 1.730469 2.632813 2.964844 4.570313 3.402344.472656.105469.933593.234375 1.371093.382813 3.441407 1.160156 6.222657 3.589843 7.835938 6.839843 1.613281 3.253907 1.863281 6.941407.703125 10.378907zm-158.515625-26.875.335937-.125c3.429688-1.152344 7.109375-.902344 10.351563.707031 3.253906 1.613281 5.683593 4.394531 6.839843 7.835938 1.160157 3.441406.910157 7.125-.699218 10.378906-1.613282 3.25-4.394532 5.679687-7.835938 6.839844-3.640625 1.226562-7.652344.847656-11.003906-1.039063-1.730469-.96875-3.789062-1.164063-5.671875-.53125-1.882813.636719-3.40625 2.039063-4.191406 3.859375-1.527344 3.53125-4.492188 6.257812-8.132813 7.484375-7.101562 2.394531-14.824218-1.433594-17.21875-8.535156-1.160156-3.441407-.910156-7.125.703125-10.378907 1.613281-3.25 4.394531-5.679687 7.832031-6.839843.441407-.148438.902344-.277344 1.375-.382813 1.9375-.4375 3.597657-1.671875 4.566407-3.402344.972656-1.730468 1.167969-3.789062.535156-5.671874l-9.132813-27.085938 6.609376-2.230469 6.609374-2.226562 9.097657 26.992187c.605469 1.789063 1.902343 3.257813 3.601562 4.074219 1.699219.820313 3.65625.917969 5.429688.277344zm-7.660157-91.78125c-6.75 14.179687-8.085937 29.535156-3.8125 43.410156l-35.480468 11.957031c-5-13.628906-15.363282-25.039062-29.316406-32.238281-14.347657-7.40625-25.734376-21.011719-31.234376-37.328125-10.792968-32.019531 3.328126-65.789062 31.476563-75.277344 5.03125-1.695312 10.171875-2.503906 15.289063-2.503906.707031 0 1.414062.023438 2.121093.054688.253907 1.472656.515625 2.945312.789063 4.417968 6.632812 35.800782 24.820312 61.226563 54.210937 76.015625-.960937 3.976563-2.304687 7.835938-4.042969 11.492188zm180.011719-145.625c-1.847656 19.542969-3.640625 37.160156-6.890625 54.902343-6.59375 35.988282-27.941406 63.109376-57.105468 72.542969-8.734376 2.824219-18.289063 4.839844-29.210938 6.167969-12.910156 1.566406-25.539062 1.460938-37.535156-.316406-49.300782-7.300782-77.320313-32.730469-85.660156-77.734375-3.316407-17.914063-5.140626-35.761719-7.011719-55.558594-2.175781-23.023437.617187-46.300781 3.082031-66.835937 2.585938-21.558594 11.28125-50.761719 37.996094-67.433594 9.328125-5.820313 20.066406-8.804688 30.796875-8.804688 6.78125 0 13.5625 1.195313 19.976562 3.613282 2.980469 1.125 5.769531 2.457031 8.292969 3.953124 7.132812 4.230469 15.992188 4.230469 23.128906 0 2.523438-1.496093 5.3125-2.828124 8.289063-3.949218 16.566406-6.253906 35.546875-4.3125 50.773437 5.1875 26.71875 16.675781 35.410156 45.875 38 67.4375 2.464844 20.53125 5.253906 43.808594 3.078125 66.828125zm126.085938-55.210938c-.160157-.203125-.332031-.398437-.511719-.578125-4.535156-4.5625-10.523438-6.984375-16.902344-6.828125-6.757812.171875-13.105468 3.183594-17.871094 8.488281l-51.214843 56.988282c-4.292969 4.78125-10.066407 7.378906-15.855469 7.125-3.804688-.164063-7.316406-1.542969-10.234375-3.933594.152344-1.566406.304687-3.140625.453125-4.730469 2.316406-24.519531-.570312-48.585937-3.117188-69.820312-2.890624-24.082031-10.585937-41.640625-19.78125-54.410157 1.574219.1875 3.136719.488282 4.667969.945313 6.304688 1.871094 11.722657 5.847656 15.667969 11.5 1.152344 1.648437 2.171875 3.4375 3.027344 5.320313.085937.191406.183594.378906.285156.5625l17.417969 30.59375c3.472656 6.105468 9.324219 10.164062 16.054687 11.136718 6.941406 1.003906 13.96875-1.355468 19.292969-6.472656l35.132813-33.792969c2.875-2.765625 6.460937-3.792969 9.832031-2.820312 3.316406.960937 5.769531 3.671875 6.757812 7.453125l8.386719 45.144531zm0 0"/></svg>