<svg height="480pt" viewBox="-110 0 480 480" width="480pt" xmlns="http://www.w3.org/2000/svg"><path d="m129.535156 200h-64l-32-176h64zm0 0" fill="#e97424"/><path d="m193.535156 200h-64l32-192h64zm0 0" fill="#e97424"/><path d="m201.535156 472h-144l-48-272h240zm0 0" fill="#f9ddac"/><path d="m221.304688 360 16.933593-96h-217.40625l16.9375 96zm0 0" fill="#f3bb59"/><path d="m113.535156 288v-24h-92.703125l16.9375 96h75.765625v-24c13.253906 0 24-10.746094 24-24s-10.746094-24-24-24zm0 0" fill="#e97424"/><g fill="#f3bb59"><path d="m17.535156 224h48v16h-48zm0 0"/><path d="m81.535156 224h16v16h-16zm0 0"/><path d="m177.535156 224h64v16h-64zm0 0"/><path d="m175.304688 448h-29.769532v-16h18.234375l6.183594-18.527344 15.167969 5.054688zm0 0"/><path d="m89.535156 200h-64l-16-112h64zm0 0"/><path d="m169.535156 200h64l16-112h-64zm0 0"/><path d="m153.535156 200h-48l-8-144h64zm0 0"/></g><path d="m50.824219 480h157.421875l50.824218-288h-16.308593l14.695312-102.863281c.328125-2.296875-.355469-4.625-1.875-6.378907-1.519531-1.75-3.726562-2.757812-6.046875-2.757812h-27.910156l11.800781-70.679688c.386719-2.320312-.265625-4.691406-1.785156-6.488281s-3.753906-2.832031-6.105469-2.832031h-64c-3.910156 0-7.246094 2.832031-7.886718 6.6875l-6.886719 41.3125h-36.714844l-4.648437-25.441406c-.695313-3.796875-4-6.554688-7.863282-6.558594h-64c-2.371094 0-4.621094 1.050781-6.140625 2.875-1.523437 1.820312-2.15625 4.222656-1.730469 6.558594l9.886719 54.566406h-26.015625c-2.320312 0-4.523437 1.007812-6.046875 2.757812-1.519531 1.753907-2.203125 4.082032-1.871093 6.378907l14.695312 102.863281h-16.3125zm-31.753907-272h220.929688l-2.824219 16h-59.640625v16h56.800782l-2.824219 16h-204l-2.777344-16h40.800781v-16h-43.640625zm86.921876-144h47.085937l-7.109375 128h-32.863281zm-75.65625 208h75.199218v24h8c8.835938 0 16 7.164062 16 16s-7.164062 16-16 16h-8v24h-61.046875zm91.199218 70.984375c14.128906-3.648437 24-16.390625 24-30.984375s-9.871094-27.335938-24-30.984375v-9.015625h107.199219l-14.148437 80h-93.050782zm73.289063 121.015625h-130.578125l-16.941406-96h164.464843zm31.777343-272h-47.839843l13.710937-96h47.839844zm-10.511718-176-10.691406 64h-19.863282c-3.980468 0-7.355468 2.925781-7.917968 6.863281l-15.023438 105.136719h-.601562l7.542968-135.550781c.128906-2.199219-.65625-4.351563-2.167968-5.953125-1.203126-1.1875-2.75-1.960938-4.421876-2.207032l5.367188-32.289062zm-172.953125 16h47.75l3.097656 16.945312c-2.925781 1.300782-4.710937 4.308594-4.449219 7.503907l7.542969 135.550781h-.597656l-15.023438-105.136719c-.566406-3.9375-3.941406-6.863281-7.921875-6.863281h-21.710937zm-24.351563 64h47.839844l13.710938 96h-47.839844zm0 0"/><path d="m81.535156 224h16v16h-16zm0 0"/><path d="m163.769531 432h-18.234375v16h29.769532l9.816406-29.472656-15.167969-5.054688zm0 0"/></svg>