<svg height="480pt" viewBox="0 -68 480 480" width="480pt" xmlns="http://www.w3.org/2000/svg"><path d="m216 96c0-8.839844 7.164062-16 16-16h152c16.421875-1.085938 31.3125-10.023438 40-24 8-16 8-48 8-48l-32 32c-6.554688 5.859375-15.238281 8.753906-24 8h-144c-35.347656 0-64 28.652344-64 64 0 35.34375 28.652344 64 64 64h160c8.835938 0 16 7.160156 16 16 0 8.835938-7.164062 16-16 16h-304c-26.511719 0-80 21.484375-80 48 0 26.511719 53.488281 48 80 48h288c53.019531 0 96-42.980469 96-96s-42.980469-96-96-96h-144c-8.835938 0-16-7.164062-16-16zm0 0" fill="#aabece"/><g fill="#394d5c"><path d="m8 256h48v16h-48zm0 0"/><path d="m72 232h16v16h-16zm0 0"/><path d="m96 312-.070312-16c3.269531-.066406 32.070312-1.90625 32.070312-48h16c0 63.261719-47.519531 64-48 64zm0 0"/><path d="m144 312-.144531-16c.984375 0 24.144531-1.449219 24.144531-48h16c0 63.269531-38.398438 64-40 64zm0 0"/><path d="m368 240h-160l-32-32h208zm0 0"/><path d="m312 336h-64l-40-32h160zm0 0"/><path d="m256 144h80l32 32h-128zm0 0"/></g><path d="m416 232h16v16h-16zm0 0" fill="#426d78"/><path d="m432 200h16v16h-16zm0 0" fill="#426d78"/><path d="m384 264h16v16h-16zm0 0" fill="#426d78"/><path d="m216 264h16v16h-16zm0 0" fill="#426d78"/><path d="m64 160c0 8.835938-7.164062 16-16 16s-16-7.164062-16-16c0-8.839844 7.164062-16 16-16s16 7.160156 16 16zm0 0" fill="#7fcac9"/><path d="m120 120c0 8.835938-7.164062 16-16 16s-16-7.164062-16-16c0-8.839844 7.164062-16 16-16s16 7.160156 16 16zm0 0" fill="#7fcac9"/><path d="m376 104h-144c-4.417969 0-8-3.582031-8-8 0-4.421875 3.582031-8 8-8h152c19.453125-1.132812 37.101562-11.761719 47.199219-28.425781 8.695312-17.488281 8.800781-50.191407 8.800781-51.574219 0-3.238281-1.949219-6.152344-4.9375-7.390625s-6.429688-.5546875-8.71875 1.734375l-32 32c-5.078125 4.320312-11.710938 6.363281-18.34375 5.65625h-144c-39.765625 0-72 32.234375-72 72 0 39.761719 32.234375 72 72 72h160c4.417969 0 8 3.578125 8 8 0 4.417969-3.582031 8-8 8h-304c-30.128906 0-88 23.644531-88 56 0 32.351562 57.871094 56 88 56h117.183594l37.816406 30.246094c1.417969 1.136718 3.183594 1.753906 5 1.753906h64c1.402344.003906 2.78125-.359375 4-1.058594l54.121094-30.941406h5.878906c57.4375 0 104-46.5625 104-104s-46.5625-104-104-104zm-123.054688 64 8-16h71.742188l16 16zm118.109376 48-8 16h-151.742188l-16-16zm-61.183594 112h-59.0625l-20-16h107.0625zm66.128906-32h-204.191406c9.035156-14.308594 13.304687-31.113281 12.191406-48h-16c0 46.550781-23.160156 47.957031-24.144531 48h-14.878907c10.835938-13.558594 16.195313-30.6875 15.023438-48h-16c0 46.09375-28.800781 47.933594-32.070312 48h-7.929688c-22.789062-1.496094-44.589844-9.867188-62.527344-24h30.527344v-16h-40c0-19.441406 46.824219-40 72-40h84.6875l29.65625 29.652344c1.5 1.503906 3.535156 2.34375 5.65625 2.347656h160c3.046875.015625 5.839844-1.699219 7.199219-4.425781l13.746093-27.574219h3.054688c13.253906 0 24-10.746094 24-24 0-13.257812-10.746094-24-24-24h-20.6875l-29.65625-29.65625c-1.5-1.5-3.535156-2.34375-5.65625-2.34375h-80c-3.046875-.019531-5.839844 1.695312-7.199219 4.421875l-13.746093 27.578125h-3.054688c-30.929688 0-56-25.074219-56-56 0-30.929688 25.070312-56 56-56h144c10.890625.792969 21.625-2.949219 29.65625-10.347656l16.992188-16.988282c-.695313 8.171876-2.65625 16.1875-5.808594 23.757813-7.296875 11.289063-19.441406 18.527344-32.839844 19.578125h-152c-13.253906 0-24 10.742188-24 24 0 13.253906 10.746094 24 24 24h144c48.601562 0 88 39.398438 88 88 0 48.597656-39.398438 88-88 88zm0 0"/><path d="m72 232h16v16h-16zm0 0"/><path d="m416 232h16v16h-16zm0 0"/><path d="m432 200h16v16h-16zm0 0"/><path d="m384 264h16v16h-16zm0 0"/><path d="m216 264h16v16h-16zm0 0"/><path d="m24 160c0 13.253906 10.746094 24 24 24s24-10.746094 24-24c0-13.257812-10.746094-24-24-24s-24 10.742188-24 24zm32 0c0 4.417969-3.582031 8-8 8s-8-3.582031-8-8c0-4.421875 3.582031-8 8-8s8 3.578125 8 8zm0 0"/><path d="m104 144c13.253906 0 24-10.746094 24-24 0-13.257812-10.746094-24-24-24s-24 10.742188-24 24c0 13.253906 10.746094 24 24 24zm0-32c4.417969 0 8 3.578125 8 8 0 4.417969-3.582031 8-8 8s-8-3.582031-8-8c0-4.421875 3.582031-8 8-8zm0 0"/></svg>