<svg height="511pt" viewBox="0 1 511 511.99952" width="511pt" xmlns="http://www.w3.org/2000/svg"><path d="m385.464844 50.699219-42.25-38.449219c-7.371094-6.707031-19.78125-7.097656-27.132813-.371094-4.816406 4.40625-6.921875 10.492188-6.414062 16.375.34375 3.992188-2.761719 7.519532-6.769531 7.535156-5.359376.019532-10.691407 2.199219-14.589844 6.476563-3.980469 4.378906-5.640625 10.046875-5.054688 15.5.429688 4.011719-2.886718 7.398437-6.921875 7.386719-5.65625-.019532-11.300781 2.371094-15.269531 7.082031-6.933594 8.230469-5.71875 20.59375 2.242188 27.835937l28.769531 26.179688c7.441406 6.773438 7.984375 18.300781 1.210937 25.742188l-132.171875 145.246093 41.460938 37.734375 23.855469-26.214844c7.816406-8.589843 21.117187-9.21875 29.707031-1.402343l59.882812 54.496093c2.375 2.160157 6.050781 1.988282 8.210938-.386718l178.519531-196.179688c2.160156-2.375 1.988281-6.050781-.386719-8.210937zm0 0" fill="#bfbfbf"/><path d="m316.023438 361.851562-33.976563-30.917968 186.34375-204.773438 33.972656 30.914063c2.375 2.160156 2.546875 5.835937.386719 8.210937l-178.519531 196.179688c-2.160157 2.371094-5.835938 2.546875-8.207031.386718zm0 0" fill="#e7e7e7"/><path d="m502.746094 165.285156-178.515625 196.175782c-2.160157 2.375-5.835938 2.546874-8.210938.386718l-13.304687-12.109375c2.371094 2.160157 6.050781 1.988281 8.210937-.386719l178.515625-196.175781c2.15625-2.371093 1.984375-6.050781-.386718-8.207031l13.304687 12.105469c2.375 2.160156 2.546875 5.839843.386719 8.210937zm0 0" fill="#cecece"/><path d="m380.019531 103.257812c0 10.78125-8.738281 19.523438-19.519531 19.523438s-19.523438-8.742188-19.523438-19.523438 8.742188-19.523437 19.523438-19.523437 19.519531 8.742187 19.519531 19.523437zm0 0" fill="#e8e5ea"/><path d="m360.488281 129.761719c-6.375 0-12.761719-2.277344-17.835937-6.894531-5.238282-4.765626-8.304688-11.285157-8.640625-18.363282-.332031-7.074218 2.109375-13.855468 6.875-19.09375 9.84375-10.8125 26.644531-11.605468 37.457031-1.761718 5.238281 4.765624 8.308594 11.285156 8.640625 18.363281.332031 7.074219-2.109375 13.855469-6.875 19.089843-5.222656 5.742188-12.410156 8.660157-19.621094 8.660157zm14.449219-13.363281h.011719zm-14.433594-25.664063c-3.40625 0-6.804687 1.378906-9.269531 4.089844-4.648437 5.113281-4.277344 13.050781.832031 17.699219 5.113282 4.652343 13.050782 4.277343 17.699219-.832032s4.277344-13.050781-.832031-17.699218c-2.398438-2.179688-5.417969-3.257813-8.429688-3.257813zm0 0"/><path d="m160.964844 297.113281-33.980469 37.339844 30.617187 27.867187 9.453126-6.5625c7.265624-5.046874 16.734374-5.625 24.558593-1.5 4.050781 2.136719 9.035157 1.261719 12.121094-2.125l4.101563-4.507812c2.160156-2.375 1.988281-6.050781-.386719-8.207031zm0 0" fill="#bc7d53"/><path d="m207.449219 339.421875c2.375 2.15625 2.546875 5.832031.386719 8.207031l-4.097657 4.503906c-3.082031 3.386719-8.078125 4.265626-12.125 2.136719-7.820312-4.132812-17.289062-3.554687-24.5625 1.484375l-9.449219 6.566406-9.996093-9.097656c.039062.035156 5.792969-5.914062 6.269531-6.398437 2.777344-2.835938 5.984375-4.917969 9.742188-6.277344 5.734374-2.070313 12.535156-2.589844 18.433593-.933594 5.234375 1.46875 12.203125 2.625 17.003907-.804687.554687-.398438 4-3.355469 3.234374-4.082032zm0 0" fill="#af663e"/><path d="m126.984375 334.457031-112.125 123.210938c-10.515625 11.558593-9.671875 29.449219 1.882813 39.964843 13.402343 12.195313 34.648437 8.824219 43.621093-6.914062l3.046875-5.347656c9.136719-16.027344 20.75-30.511719 34.414063-42.90625l9.082031-8.238282c13.949219-12.65625 25.757812-27.480468 34.976562-43.902343l15.71875-28.003907zm0 0" fill="#bc7d53"/><path d="m56.675781 495.800781c-10.222656 11.234375-28.128906 12.574219-39.929687 1.832031-1.722656-1.5625-3.199219-3.285156-4.433594-5.144531 11.34375 6.183594 25.652344 3.808594 34.382812-5.785156 1.375-1.511719 2.605469-3.207031 3.675782-5.078125l3.046875-5.351562c9.132812-16.027344 20.75-30.503907 34.410156-42.90625l9.078125-8.234376c13.949219-12.652343 25.765625-27.484374 34.980469-43.914062l15.71875-27.996094 9.996093 9.097656-15.71875 27.996094c-9.214843 16.429688-21.035156 31.253906-34.976562 43.914063l-9.082031 8.234375c-13.664063 12.394531-25.273438 26.878906-34.410157 42.90625l-3.054687 5.34375c-1.0625 1.878906-2.308594 3.574218-3.683594 5.085937zm0 0" fill="#af663e"/><path d="m507.070312 151.902344-159.148437-144.824219c-10.21875-9.296875-26.617187-9.457031-36.558594-.359375-6.214843 5.683594-9.371093 13.726562-8.667969 22.078125-7.433593.078125-14.554687 3.265625-19.554687 8.765625-5.089844 5.585938-7.585937 13.078125-6.875 20.597656-7.941406 0-15.429687 3.488282-20.554687 9.570313-9.324219 11.074219-8.058594 27.554687 2.886718 37.511719l28.769532 26.183593c2.21875 2.015625 3.519531 4.777344 3.660156 7.773438.140625 2.996093-.894532 5.871093-2.914063 8.085937l-83.242187 91.476563c-2.597656 2.859375-2.390625 7.28125.46875 9.882812 2.851562 2.597657 7.277344 2.390625 9.878906-.46875l83.242188-91.476562c4.53125-4.980469 6.855468-11.429688 6.539062-18.15625-.316406-6.726563-3.234375-12.929688-8.21875-17.460938l-28.769531-26.183593c-5.273438-4.796876-5.992188-12.945313-1.601563-18.15625 2.460938-2.921876 6.054688-4.597657 9.863282-4.597657h.082031c3.980469 0 7.777343-1.683593 10.429687-4.628906 2.582032-2.867187 3.828125-6.691406 3.421875-10.496094-.394531-3.664062.800781-7.324219 3.277344-10.042969 2.445313-2.691406 5.800781-4.183593 9.441406-4.195312 3.820313-.015625 7.503907-1.652344 10.097657-4.488281 2.628906-2.878907 3.945312-6.757813 3.609374-10.636719-.34375-4.011719 1.175782-7.878906 4.167969-10.617188 4.589844-4.199218 12.863281-4.019531 17.707031.386719l120 109.199219-176.925781 194.429688-20.738281-18.871094c-5.535156-5.039063-12.710938-7.613282-20.179688-7.265625-7.476562.351562-14.367187 3.597656-19.40625 9.132812l-19.148437 21.042969-31.117187-28.320312 21.890624-24.050782c2.597657-2.859375 2.390626-7.28125-.46875-9.878906-2.855468-2.601562-7.277343-2.394531-9.875.464844l-172.851562 189.652344c-6.34375 6.972656-9.59375 15.996093-9.148438 25.410156.445313 9.414062 4.527344 18.089844 11.5 24.433594 6.566407 5.976562 14.972657 9.195312 23.683594 9.195312 1.851563 0 3.722656-.144531 5.585938-.441406 10.636718-1.6875 19.796875-8.019532 25.128906-17.375l3.050781-5.351563c8.78125-15.410156 19.898438-29.269531 33.035157-41.191406l9.082031-8.238281c14.535156-13.1875 26.773437-28.546875 36.378906-45.660156l14.929687-26.597657 8.128907-5.644531c5.140625-3.566406 11.773437-3.972656 17.308593-1.054688 6.875 3.625 15.324219 2.140626 20.554688-3.605468l4.101562-4.507813c4.664063-5.121093 4.371094-13.019531-.570312-17.804687l19.167969-21.066406c2.519531-2.769532 5.972656-4.394532 9.71875-4.570313 3.726562-.179687 7.332031 1.113281 10.105469 3.636719l59.886718 54.496094c2.449219 2.226562 5.53125 3.328124 8.609375 3.328124 3.484375 0 6.953125-1.410156 9.476563-4.179687l41.652344-45.773437c2.597656-2.859376 2.390624-7.28125-.46875-9.878907-2.855469-2.601562-7.277344-2.394531-9.878907.464844l-40.855469 44.898437-27.929687-25.414062 176.929687-194.429688 27.929688 25.414063-113.089844 124.273437c-2.601562 2.859376-2.390625 7.28125.464844 9.882813 1.339844 1.21875 3.023438 1.820313 4.707031 1.820313 1.898438 0 3.792969-.769532 5.171875-2.289063l113.886719-125.148437c2.300781-2.527344 3.480469-5.804688 3.320313-9.21875-.160157-3.417969-1.640626-6.570313-4.171876-8.871094zm-371.285156 234.996094c-8.867187 15.792968-20.164062 29.972656-33.578125 42.144531l-9.082031 8.242187c-14.234375 12.914063-26.273438 27.925782-35.789062 44.621094l-3.050782 5.347656c-3.21875 5.648438-8.746094 9.46875-15.167968 10.488282-6.417969 1.015624-12.859376-.90625-17.667969-5.28125-4.207031-3.828126-6.671875-9.066407-6.941407-14.75-.265624-5.679688 1.695313-11.128907 5.523438-15.335938l107.414062-118.042969 21.335938 19.414063zm62.777344-39.472657c-.9375 1.03125-2.453125 1.300781-3.6875.648438-10.175781-5.363281-22.359375-4.621094-31.808594 1.9375l-4.878906 3.386719-13.457031-12.25-7.867188-7.160157 24.566407-27 40.441406 36.800781zm0 0"/><g fill="#111"><path d="m105.332031 406.578125c0 4.894531-3.96875 8.863281-8.863281 8.863281-4.898438 0-8.867188-3.96875-8.867188-8.863281s3.96875-8.863281 8.867188-8.863281c4.894531 0 8.863281 3.96875 8.863281 8.863281zm0 0"/><path d="m55.011719 461.878906c0 4.894532-3.96875 8.863282-8.867188 8.863282-4.894531 0-8.863281-3.96875-8.863281-8.863282 0-4.894531 3.96875-8.863281 8.863281-8.863281 4.898438 0 8.867188 3.96875 8.867188 8.863281zm0 0"/></g></svg>