<svg height="480pt" viewBox="0 0 480 480" width="480pt" xmlns="http://www.w3.org/2000/svg"><path d="m472 240c0 128.128906-103.871094 232-232 232s-232-103.871094-232-232 103.871094-232 232-232 232 103.871094 232 232zm0 0" fill="#f9ddac"/><path d="m144 368-40.871094-27.246094c-4.453125-2.96875-7.128906-7.964844-7.128906-13.3125v-149.554687c0-6.058594 3.425781-11.601563 8.847656-14.3125l39.152344-19.574219zm0 0" fill="#e97424"/><path d="m240 376-40.871094-27.246094c-4.453125-2.96875-7.128906-7.964844-7.128906-13.3125v-149.554687c0-6.058594 3.425781-11.601563 8.847656-14.3125l39.152344-19.574219zm0 0" fill="#e97424"/><path d="m336 352-40.871094-27.246094c-4.453125-2.96875-7.128906-7.964844-7.128906-13.3125v-149.554687c0-6.058594 3.425781-11.601563 8.847656-14.3125l39.152344-19.574219zm0 0" fill="#e97424"/><path d="m32 232h16v16h-16zm0 0" fill="#f3bb59"/><path d="m48 216h-16c1.839844-27.085938 10.488281-53.265625 25.144531-76.121094l13.710938 8.242188c-13.035157 20.425781-20.882813 43.726562-22.855469 67.878906zm0 0" fill="#f3bb59"/><path d="m144 352 40.871094-27.246094c4.453125-2.96875 7.128906-7.964844 7.128906-13.3125v-149.554687c0-6.058594-3.425781-11.601563-8.847656-14.3125l-39.152344-19.574219zm0 0" fill="#dd3e46"/><path d="m240 392 40.871094-27.246094c4.453125-2.96875 7.128906-7.964844 7.128906-13.3125v-149.554687c0-6.058594-3.425781-11.601563-8.847656-14.3125l-39.152344-19.574219zm0 0" fill="#dd3e46"/><path d="m336 368 40.871094-27.246094c4.453125-2.96875 7.128906-7.964844 7.128906-13.3125v-149.554687c0-6.058594-3.425781-11.601563-8.847656-14.3125l-39.152344-19.574219zm0 0" fill="#dd3e46"/><path d="m256 104h-16c0-26.507812 21.492188-48 48-48h16c0 26.507812-21.492188 48-48 48zm0 0" fill="#67c086"/><path d="m176 56h16c26.507812 0 48 21.492188 48 48h-16c-26.507812 0-48-21.492188-48-48zm0 0" fill="#67c086"/><path d="m232 104h16v24h-16zm0 0" fill="#426d78"/><g fill="#f9ddac"><path d="m96 192h24v16h-24zm0 0"/><path d="m120 256h24v16h-24zm0 0"/><path d="m144 208h24v16h-24zm0 0"/><path d="m168 288h24v16h-24zm0 0"/><path d="m192 240h24v16h-24zm0 0"/><path d="m240 288h24v16h-24zm0 0"/><path d="m288 200h24v16h-24zm0 0"/><path d="m312 248h24v16h-24zm0 0"/><path d="m336 304h24v16h-24zm0 0"/><path d="m360 200h24v16h-24zm0 0"/></g><path d="m240 0c-132.546875 0-240 107.453125-240 240s107.453125 240 240 240 240-107.453125 240-240c-.148438-132.484375-107.515625-239.851562-240-240zm0 464c-123.710938 0-224-100.289062-224-224s100.289062-224 224-224 224 100.289062 224 224c-.140625 123.652344-100.347656 223.859375-224 224zm0 0"/><path d="m32 232h16v16h-16zm0 0"/><path d="m32 216h16c1.96875-24.160156 9.816406-47.472656 22.855469-67.902344l-13.710938-8.242187c-14.660156 22.859375-23.308593 49.050781-25.144531 76.144531zm0 0"/><path d="m378.734375 156.425781-34.734375-17.371093v-11.054688c0-2.773438-1.433594-5.347656-3.792969-6.808594-2.355469-1.457031-5.300781-1.589844-7.78125-.351562l-39.160156 19.585937c-8.152344 4.042969-13.292969 12.363281-13.265625 21.460938v17.167969l-32-16v-11.054688c0-2.773438-1.433594-5.347656-3.792969-6.808594-2.355469-1.457031-5.300781-1.589844-7.78125-.351562l-36.425781 18.214844v-1.167969c.027344-9.097657-5.113281-17.417969-13.265625-21.460938l-39.160156-19.585937c-2.480469-1.238282-5.425781-1.105469-7.78125.351562-2.359375 1.460938-3.792969 4.035156-3.792969 6.808594v11.054688l-34.734375 17.371093c-8.152344 4.042969-13.292969 12.363281-13.265625 21.460938v149.554687c-.019531 8.035156 3.996094 15.546875 10.6875 20l40.871094 27.246094c2.460937 1.640625 5.625 1.792969 8.230468.390625 2.605469-1.398437 4.222657-4.121094 4.210938-7.078125v-11.71875l32-21.335938v.496094c-.019531 8.035156 3.996094 15.546875 10.6875 20l37.3125 24.839844v11.71875c0 2.949219 1.625 5.664062 4.226562 7.054688 2.601563 1.390624 5.757813 1.238281 8.214844-.398438l40.871094-27.25c6.683594-4.441406 10.695312-11.941406 10.6875-19.964844v-16.496094l32 21.335938v11.71875c0 2.949219 1.625 5.664062 4.226562 7.054688 2.601563 1.390624 5.757813 1.238281 8.214844-.398438l40.871094-27.25c6.683594-4.441406 10.695312-11.941406 10.6875-19.964844v-149.554687c.027344-9.097657-5.113281-17.417969-13.265625-21.460938zm-242.734375 196.628907-28.441406-18.957032c-2.222656-1.484375-3.558594-3.984375-3.558594-6.65625v-119.441406h16v-16h-16v-14.113281c-.011719-3.03125 1.703125-5.808594 4.425781-7.152344l27.574219-13.789063v99.054688h-16v16h16zm44.441406-34.957032-28.441406 18.957032v-113.054688h16v-16h-16v-67.054688l27.574219 13.789063c2.722656 1.34375 4.4375 4.121094 4.425781 7.152344v126.113281h-16v16h16v7.441406c0 2.671875-1.335938 5.171875-3.558594 6.65625zm23.117188 24c-2.222656-1.484375-3.558594-3.984375-3.558594-6.65625v-79.441406h16v-16h-16v-54.113281c-.011719-3.03125 1.703125-5.808594 4.425781-7.152344l27.574219-13.789063v196.109376zm76.441406 9.34375c0 2.671875-1.335938 5.171875-3.558594 6.65625l-28.441406 18.957032v-73.054688h16v-16h-16v-107.054688l27.574219 13.789063c2.722656 1.34375 4.4375 4.121094 4.425781 7.152344zm19.558594-33.34375c-2.222656-1.484375-3.558594-3.984375-3.558594-6.65625v-95.441406h16v-16h-16v-38.113281c-.011719-3.03125 1.703125-5.808594 4.425781-7.152344l27.574219-13.789063v107.054688h-16v16h16v73.054688zm72.882812 16-28.441406 18.957032v-33.054688h16v-16h-16v-147.054688l27.574219 13.789063c2.722656 1.34375 4.4375 4.121094 4.425781 7.152344v22.113281h-16v16h16v111.441406c0 2.671875-1.335938 5.171875-3.558594 6.65625zm0 0"/><path d="m224 112h8v16h16v-16h8c30.910156-.039062 55.960938-25.089844 56-56v-8h-24c-19.6875.03125-37.910156 10.398438-48 27.304688-10.089844-16.90625-28.3125-27.273438-48-27.304688h-24v8c.039062 30.910156 25.089844 55.960938 56 56zm64-48h7.199219c-3.824219 18.613281-20.199219 31.980469-39.199219 32h-7.199219c3.824219-18.613281 20.199219-31.980469 39.199219-32zm-96 0c19 .019531 35.375 13.386719 39.199219 32h-7.199219c-19-.019531-35.375-13.386719-39.199219-32zm0 0"/></svg>