<svg height="512pt" viewBox="0 -101 512.0011 512" width="512pt" xmlns="http://www.w3.org/2000/svg"><path d="m136.714844 17.644531c20.121094 11.195313 39.605468 23.6875 58.695312 36.550781 18.25 12.292969 36.109375 25.191407 53.320313 38.910157 11.667969 9.300781 20.914062 21.464843 33.414062 29.789062 13.917969 9.269531 22.335938 4.421875 37.519531 5.488281 12.109376.851563 23.484376 5.238282 30.863282 15.226563 8.4375 11.425781 4.492187 32.648437 19.660156 38.113281 13.328125 4.804688 33.105469 7.601563 47.183594 6.722656 0 0 75.394531-9.695312 87.585937 59.207032.5 2.824218-1.726562 5.40625-4.597656 5.40625h-15.558594s10.136719 24.242187 8.773438 39.417968c-.1875 2.078126-1.777344 3.75-3.839844 4.09375-14.054687 2.363282-70.179687 9.464844-104.253906-20.648437l-3.742188 22.457031c-.460937 2.753906-3.21875 4.472656-5.902343 3.714844-43.851563-12.402344-54.007813-78.128906-106.535157-68.996094l-166.296875 19.960938zm0 0" fill="#ffc1b8"/><path d="m500.363281 253.0625h-13.195312c-19.667969-52.378906-83.515625-44.175781-83.515625-44.175781-14.082032.886719-33.851563-1.914063-47.1875-6.71875-15.164063-5.46875-11.21875-26.6875-19.660156-38.117188-7.375-9.984375-18.742188-14.367187-30.863282-15.226562-15.175781-1.066407-23.59375 3.777343-37.515625-5.492188-12.496093-8.320312-21.746093-20.484375-33.414062-29.785156-17.210938-13.722656-35.066407-26.617187-53.324219-38.914063-15.914062-10.722656-32.109375-21.195312-48.71875-30.859374l3.746094-26.128907c20.121094 11.199219 39.601562 23.683594 58.695312 36.550781 18.246094 12.296876 36.101563 25.191407 53.324219 38.902344 11.667969 9.308594 20.914063 21.464844 33.410156 29.796875 13.914063 9.269531 22.332031 4.425781 37.519531 5.492188 12.109376.847656 23.480469 5.230469 30.863282 15.226562 8.429687 11.417969 4.492187 32.644531 19.660156 38.105469 13.332031 4.804688 33.105469 7.605469 47.1875 6.726562 0 0 75.394531-9.695312 87.582031 59.203126.5 2.832031-1.722656 5.414062-4.59375 5.414062zm0 0" fill="#ffb3a8"/><path d="m17.316406 61.4375c-10.484375 25.382812-11.464844 53.683594-9.632812 81.085938 1.492187 22.347656 4.886718 45.03125 14.933594 65.050781 14.058593 28.019531 43.894531 49.226562 75.78125 46.160156 8.601562-.828125 17.332031-2.453125 24.800781-6.800781 52.125-30.367188 55.164062-116.882813 46.742187-168.714844-3.128906-19.242188-10.265625-38.632812-24.054687-52.789062-1.828125-1.875-3.742188-3.65625-5.769531-5.308594-15.457032-12.589844-37.40625-14.140625-56.539063-12.960938-3.929687.242188-7.847656.734375-11.699219 1.539063-7.640625 1.601562-15.082031 4.484375-21.410156 9.113281-14.621094 10.695312-26.265625 26.964844-33.152344 43.625zm0 0" fill="#e57670"/><path d="m123.203125 246.929688c-7.472656 4.351562-16.207031 5.972656-24.800781 6.800781-6.425782.621093-12.757813.25-18.898438-.949219 6.113282-1.03125 12.09375-2.742188 17.425782-5.851562 52.132812-30.363282 55.175781-116.882813 46.753906-168.714844-3.132813-19.238282-10.265625-38.628906-24.0625-52.785156-12.824219-13.164063-25.011719-16.515626-41.328125-17.777344 5.273437-.652344 10.59375-.789063 15.757812-.582032 21.890625.882813 36.394531 2.511719 51.832031 18.359376 13.796876 14.15625 20.929688 33.546874 24.0625 52.785156 8.421876 51.832031 5.378907 138.351562-46.742187 168.714844zm0 0" fill="#e05c56"/><path d="m37.21875 78.078125c-7.339844 19.089844-8.023438 40.371094-6.742188 60.980469 1.042969 16.808594 3.421876 33.863281 10.449219 48.917968 9.839844 21.074219 30.71875 37.019532 53.035157 34.714844 6.015624-.625 12.125-1.84375 17.351562-5.113281 36.476562-22.839844 38.605469-87.902344 32.710938-126.878906-2.1875-14.46875-7.183594-29.054688-16.835938-39.699219-6.066406-6.691406-14.195312-10.785156-22.980469-12.582031-8.882812-1.816407-18.785156-2.015625-27.679687-.238281-5.804688 1.160156-11.429688 3.414062-16.109375 7.09375-10.234375 8.042968-18.382813 20.277343-23.199219 32.804687zm0 0" fill="#d33737"/><path d="m111.3125 217.574219c-5.222656 3.269531-11.339844 4.496093-17.359375 5.113281-5.191406.539062-10.304687.089844-15.214844-1.195312 3.46875-.789063 6.824219-2.003907 9.882813-3.917969 36.484375-22.839844 38.605468-87.902344 32.707031-126.875-2.183594-14.46875-7.175781-29.058594-16.832031-39.699219-8.28125-9.140625-16.171875-11.988281-26.316406-13.113281 4.234374-.707031 8.558593-.867188 12.734374-.691407 15.316407.660157 25.472657 1.882813 36.273438 13.804688 9.65625 10.640625 14.648438 25.230469 16.832031 39.699219 5.898438 38.972656 3.765625 104.035156-32.707031 126.875zm0 0" fill="#bc2222"/><path d="m70.59375 84.832031c-2.539062 6.605469-2.773438 13.964844-2.332031 21.09375.363281 5.8125 1.183593 11.710938 3.617187 16.917969 3.402344 7.289062 10.625 12.804688 18.339844 12.007812 2.082031-.214843 4.195312-.636718 6.003906-1.769531 12.617188-7.898437 13.351563-30.402343 11.3125-43.886719-.757812-5.003906-2.484375-10.046874-5.820312-13.730468-3.738282-4.121094-7.25-4.546875-12.546875-4.777344-3.617188-.15625-7.558594.445312-10.550781 2.796875-3.535157 2.78125-6.355469 7.015625-8.023438 11.347656zm0 0" fill="#ffc1b8"/><path d="m96.226562 133.082031c-1.8125 1.136719-3.925781 1.554688-6.007812 1.773438-2.542969.257812-5.035156-.160157-7.34375-1.105469.449219-.179688.875-.410156 1.292969-.667969 12.617187-7.894531 13.351562-30.40625 11.3125-43.886719-.757813-5.003906-2.480469-10.046874-5.820313-13.734374-2.171875-2.402344-4.277344-3.546876-6.707031-4.125 2.023437-.578126 4.175781-.738282 6.21875-.648438 5.289063.230469 8.808594.660156 12.542969 4.773438 3.339844 3.6875 5.0625 8.730468 5.820312 13.730468 2.042969 13.488282 1.308594 35.996094-11.308594 43.890625zm0 0" fill="#ffb3a8"/><path d="m132.355469 46.3125c-17.800781-19.632812-55.273438-23.019531-76.25-6.523438-10.601563 8.335938-19.859375 21.378907-25.398438 35.789063-8.613281 22.40625-8.230469 47.207031-7.195312 63.914063.925781 14.867187 3.019531 34.148437 11.09375 51.433593.648437 1.390625 1.351562 2.78125 2.085937 4.128907 1.84375 3.382812 6.082032 4.628906 9.464844 2.785156s4.628906-6.082032 2.78125-9.464844c-.59375-1.09375-1.164062-2.222656-1.691406-3.347656-7.082032-15.164063-8.960938-32.761719-9.808594-46.398438-.957031-15.40625-1.347656-38.179687 6.289062-58.042968 4.664063-12.132813 12.320313-23.003907 21-29.828126 15.421876-12.121093 44.253907-9.453124 57.292969 4.929688 7.578125 8.355469 12.800781 20.824219 15.105469 36.054688 1.605469 10.632812 4.785156 38.464843-.433594 67.203124-3.222656 17.761719-10.886718 41.328126-29.082031 52.71875-4.410156 2.765626-9.996094 3.636719-14.367187 4.089844-7.820313.808594-15.945313-1.089844-23.492188-5.480468-3.332031-1.9375-7.601562-.808594-9.539062 2.519531s-.808594 7.601562 2.519531 9.539062c8.5625 4.980469 17.785156 7.554688 26.949219 7.554688 1.667968 0 3.335937-.085938 4.996093-.257813 5.875-.605468 13.492188-1.851562 20.335938-6.140625 18.078125-11.3125 29.988281-32.191406 35.410156-62.050781 3.933594-21.6875 4.117187-47.851562.496094-71.78125-2.753907-18.210938-9-32.792969-18.5625-43.34375zm0 0"/><path d="m88.742188 141.902344c.730468 0 1.464843-.035156 2.195312-.113282 2.324219-.238281 5.785156-.789062 8.988281-2.792968 14.964844-9.371094 17.167969-33.246094 14.507813-50.839844-1.089844-7.203125-3.628906-13.050781-7.550782-17.375-7.828124-8.632812-23.414062-9.984375-32.578124-2.777344-4.355469 3.425782-7.988282 8.511719-10.222657 14.324219-3.296875 8.582031-3.167969 17.824219-2.78125 24.03125.34375 5.542969 1.136719 12.761719 4.257813 19.4375 4.605468 9.859375 13.722656 16.105469 23.183594 16.105469zm-11.636719-54.566406c1.304687-3.394532 3.480469-6.519532 5.816406-8.359376 3.429687-2.703124 10.738281-2.011718 13.625 1.175782 2.015625 2.222656 3.429687 5.710937 4.09375 10.089844 2.1875 14.457031.101563 31.785156-8.117187 36.929687-.824219.515625-2.476563.6875-3.019532.742187-4.738281.484376-9.269531-3.664062-11.304687-8.019531-2.125-4.550781-2.707031-10.085937-2.972657-14.402343-.304687-4.902344-.441406-12.117188 1.878907-18.15625zm0 0"/><path d="m511.824219 246.4375c-6.417969-36.285156-31.007813-59.144531-69.234375-64.367188-3.816406-.515624-7.335938 2.148438-7.855469 5.964844-.523437 3.820313 2.148437 7.335938 5.96875 7.859375 21.890625 2.992188 49.230469 14.175781 56.84375 50.1875h-8.59375c-6.734375-7.378906-21.300781-20.3125-43.953125-25.054687-3.785156-.789063-7.472656 1.628906-8.257812 5.398437-.789063 3.773438 1.628906 7.46875 5.398437 8.257813 18.242187 3.820312 30.289063 14.234375 35.9375 20.222656.074219.285156.171875.566406.289063.84375 2.488281 5.957031 8.542968 23.0625 8.355468 34.238281-13.996094 2.132813-64.347656 7.574219-95.132812-18.050781-1.699219-5.570312-6.570313-19.488281-14.628906-26.203125-2.960938-2.46875-7.359376-2.066406-9.824219.890625-2.46875 2.960938-2.070313 7.359375.890625 9.828125 4.367187 3.636719 8.433594 13.550781 10.3125 19.871094l-3.046875 18.292969c-15.359375-5.304688-26.273438-18.339844-37.792969-32.09375-16.535156-19.753907-35.269531-42.136719-69.210938-36.332032l-126.203124 15.148438c16.554687-15.8125 28.1875-39.410156 34.035156-69.382813 5.589844-28.648437 5.84375-63.226562.703125-94.859375-2.023438-12.445312-5.382813-23.570312-10.023438-33.320312 7.742188 4.917968 15.914063 10.277344 24.707031 16.203125 19.429688 13.085937 36.722657 25.707031 52.871094 38.578125 4.695313 3.742187 8.976563 7.976562 13.511719 12.464844 6.226563 6.164062 12.664063 12.535156 20.382813 17.675781 11.625 7.742187 20.703124 7.238281 29.472656 6.753906 3.566406-.199219 7.253906-.40625 11.425781-.109375 11.601563.816406 20.261719 4.988281 25.742187 12.410156 2.453126 3.320313 3.652344 8.433594 4.925782 13.847656 2.3125 9.835938 5.191406 22.078126 17.984375 26.683594 11.042969 3.980469 26.394531 6.75 40.0625 7.226563 3.871093.144531 7.082031-2.878907 7.214843-6.726563.136719-3.851562-2.878906-7.082031-6.726562-7.214844-12.132812-.421874-26.195312-2.9375-35.824219-6.40625-5.398437-1.945312-6.984375-7.636718-9.128906-16.757812-1.539063-6.542969-3.132813-13.3125-7.285156-18.9375-7.90625-10.703125-20.351563-16.941406-35.988281-18.042969-5.042969-.351562-9.363282-.113281-13.175782.097657-7.953125.445312-13.207031.734374-20.964844-4.433594-6.597656-4.394532-12.285156-10.023438-18.304687-15.980469-4.597656-4.546875-9.351563-9.25-14.628906-13.457031-16.441407-13.105469-34.03125-25.941406-53.769531-39.242188-16.859376-11.355468-33.949219-22.460937-51.601563-32.554687-17.65625-10.089844-32.863281-14.921875-53.375-15.753907-19.777344-.804687-35.925781 3.265626-47.980469 12.082032-14.78125 10.8125-27.710937 27.796875-35.480468 46.59375-5.828126 14.105468-13.21875 38.179687-10.148438 84.214844 1.308594 19.605468 4.273438 45.015624 15.660156 67.710937 7.617188 15.175781 19.582032 28.492187 33.691406 37.492187 13.234376 8.441407 27.671876 12.8125 42.136719 12.8125 2.285157 0 4.574219-.109374 6.859375-.328124 2.710938-.261719 5.699219-.621094 8.8125-1.179688l162.25-19.476562c.121094-.015626.242188-.03125.363282-.054688 26.125-4.539062 40.113281 12.164062 56.3125 31.507812 12.941406 15.460938 26.328124 31.449219 47.128906 37.332032 1.046875.292968 2.117187.4375 3.179687.4375 2.195313 0 4.371094-.613282 6.257813-1.8125 2.789062-1.769532 4.699218-4.652344 5.242187-7.90625l1.84375-11.070313c14.425781 9.421875 32.554688 15.101563 54.066407 16.917969 20.976562 1.773438 39.410156-.757812 46.363281-1.925781 5.203125-.875 9.160156-5.128907 9.628906-10.351563.9375-10.40625-2.726563-24.023437-5.726563-33.066406h5.566407c3.457031 0 6.710937-1.519531 8.933593-4.167969 2.207032-2.625 3.128907-6.0625 2.535157-9.425781zm-392.136719-5.53125c-6.871094 4.003906-15.34375 5.246094-21.957031 5.882812-26.757813 2.570313-55.074219-14.839843-68.878907-42.34375-10.269531-20.464843-12.988281-44.089843-14.207031-62.386718-2.878906-43.121094 3.824219-65.144532 9.121094-77.957032 6.816406-16.496093 18.050781-31.316406 30.820313-40.660156 11.765624-8.609375 27.804687-9.863281 39.183593-9.40625 22.132813.894532 33.996094 2.789063 47.121094 16.257813 11.304687 11.605469 18.761719 28.105469 22.164063 49.039062 2.3125 14.226563 6.878906 51.472657-.625 89.953125-6.824219 34.976563-21.203126 59.070313-42.742188 71.621094zm0 0"/></svg>