<svg height="478pt" viewBox="0 -103 478.20269 478" width="478pt" xmlns="http://www.w3.org/2000/svg"><path d="m143.996094 120.101562s24-48 56-64l80 72zm0 0" fill="#394d5c"/><path d="m231.996094 216.101562 32 32 104-32-32-24zm0 0" fill="#aabece"/><path d="m151.996094 216.101562h48v48c-26.511719 0-48-21.492187-48-48zm0 0" fill="#aabece"/><path d="m7.996094 168.101562s40-56 160-56c144.222656 0 216 56 216 56s-16 56-224 56c-55.839844.710938-109.972656-19.230468-152-56zm0 0" fill="#394d5c"/><path d="m167.996094 112.101562c-120 0-160 56-160 56h376s-71.777344-56-216-56zm0 0" fill="#aabece"/><g fill="#6a9eaa"><path d="m144.839844 164.523438 16-32 14.3125 7.15625-16 31.996093zm0 0"/><path d="m176.839844 164.523438 16-32 14.3125 7.15625-16 32zm0 0"/><path d="m209.335938 163.660156 16-24 13.3125 8.875-16 24.003906zm0 0"/></g><path d="m119.996094 152.101562c0 8.835938-7.164063 16-16 16-8.835938 0-16-7.164062-16-16 0-8.835937 7.164062-16 16-16 8.835937 0 16 7.164063 16 16zm0 0" fill="#394d5c"/><path d="m383.996094 168.101562s40-31 72-32 0 32 0 32 32 33 0 32-72-32-72-32zm0 0" fill="#aabece"/><path d="m431.996094 160.101562h32v16h-32zm0 0" fill="#6a9eaa"/><path d="m55.996094 80.101562c0 8.835938-7.164063 16-16 16-8.835938 0-16-7.164062-16-16 0-8.835937 7.164062-16 16-16 8.835937 0 16 7.164063 16 16zm0 0" fill="#7fcac9"/><path d="m127.996094 32.101562c0 13.253907-10.746094 24-24 24s-24-10.746093-24-24c0-13.253906 10.746094-24 24-24s24 10.746094 24 24zm0 0" fill="#7fcac9"/><path d="m383.996094 80.101562c-22.898438.523438-45.65625-3.734374-66.816406-12.503906-19.355469-8.101562-40.207032-12.019531-61.183594-11.496094v-16c22.898437-.523437 45.65625 3.734376 66.816406 12.503907 19.355469 8.101562 40.207031 12.019531 61.183594 11.496093zm0 0" fill="#aabece"/><path d="m407.996094 120.101562c-22.898438.523438-45.65625-3.734374-66.816406-12.503906-19.355469-8.101562-40.207032-12.019531-61.183594-11.496094v-16c22.898437-.523437 45.65625 3.734376 66.816406 12.503907 19.355469 8.101562 40.207031 12.019531 61.183594 11.496093zm0 0" fill="#aabece"/><path d="m476.953125 137.742188c-2.972656-6.738282-10.03125-10.089844-21.207031-9.601563-27.765625.863281-59.832032 21.601563-71.832032 30.136719-32.339843-20.246094-68.039062-34.539063-105.414062-42.207032l-73.152344-65.882812c-2.445312-2.199219-5.984375-2.683594-8.929687-1.214844-24.414063 12.214844-44 40.890625-53.070313 56-103.730468 6.890625-140.257812 56.234375-141.855468 58.480469-2.273438 3.179687-1.914063 7.539063.847656 10.304687 39.273437 34.804688 89.238281 55.1875 141.65625 57.785157v.558593c.757812 0 1.597656-.039062 2.398437-.089843 6.914063 23.832031 28.789063 40.191406 53.601563 40.089843h8v-41.121093c9.066406-.429688 17.707031-.964844 25.925781-1.597657l27.824219 27.824219 123.609375-38.074219-25.289063-18.992187c10.136719-4.882813 19.132813-11.84375 26.402344-20.429687 13.503906 9.285156 43.277344 27.574218 69.316406 28.382812h1.601563c7.882812 1.171875 15.667969-2.644531 19.566406-9.59375 4.347656-9.839844-3.527344-22.253906-10.222656-30.398438 6.695312-8.105468 14.570312-20.519531 10.222656-30.359374zm-299.878906 78.214843c4.777343-7.019531 7.199219-15.371093 6.921875-23.855469h-16c.976562 12.042969-7.960938 22.613282-20 23.648438-41.964844-2.105469-82.515625-15.832031-117.128906-39.648438h336.472656c-16.945313 14.160157-64.144532 37.878907-190.265625 39.855469zm48.265625-76.296875-13.625 20.441406h-14.777344l10.257812-20.425781-14.320312-7.152343-13.824219 27.578124h-14.113281l10.257812-20.425781-14.320312-7.152343-13.824219 27.578124h-20.527343c.945312-2.5625 1.445312-5.269531 1.472656-8 0-13.253906-10.746094-24-24-24s-24 10.746094-24 24c.027344 2.730469.523437 5.4375 1.472656 8h-53.785156c19.511718-15.585937 62.429687-40 140.3125-40 92.957031 0 155.414062 23.902344 186.976562 40h-124l7.710938-11.558593zm-129.34375 12.441406c0-4.417968 3.582031-8 8-8 4.417968 0 8 3.582032 8 8 0 4.417969-3.582032 8-8 8-4.417969 0-8-3.582031-8-8zm102.902344-86.214843 49.257812 44.351562c-26.519531-4.132812-53.320312-6.1875-80.160156-6.136719-1.777344 0-3.480469.054688-5.226563.070313 9.359375-15.050781 21.644531-28.070313 36.128907-38.285156zm-6.902344 189.414062c-12.753906-2.566406-23.425782-11.242187-28.546875-23.199219 9.953125 0 19.441406-.191406 28.546875-.464843zm158.640625-42.238281-84.394531 25.976562-11.679688-11.683593c30.351562-2.707031 60.222656-9.324219 88.878906-19.6875zm105.605469-20.960938c-20.4375-.640624-45.351563-15.3125-58.398438-24 13.03125-8.695312 37.917969-23.359374 58.398438-24 1.996093-.121093 4 .054688 5.945312.519532-2.125 5.777344-5.429688 11.050781-9.703125 15.480468h-20.488281v16h20.488281c4.273437 4.433594 7.578125 9.707032 9.703125 15.488282-1.945312.464844-3.949219.640625-5.945312.511718zm0 0"/><path d="m63.996094 80.101562c0-13.253906-10.746094-24-24-24s-24 10.746094-24 24c0 13.253907 10.746094 24 24 24s24-10.746093 24-24zm-32 0c0-4.417968 3.582031-8 8-8 4.417968 0 8 3.582032 8 8 0 4.417969-3.582032 8-8 8-4.417969 0-8-3.582031-8-8zm0 0"/><path d="m135.996094 32.101562c0-17.671874-14.328125-32-32-32-17.675782 0-32 14.328126-32 32 0 17.671876 14.324218 32 32 32 17.671875 0 32-14.328124 32-32zm-48 0c0-8.835937 7.164062-16 16-16 8.835937 0 16 7.164063 16 16 0 8.835938-7.164063 16-16 16-8.835938 0-16-7.164062-16-16zm0 0"/><path d="m255.996094 40.101562v16c20.976562-.523437 41.828125 3.394532 61.183594 11.496094 21.160156 8.769532 43.917968 13.027344 66.816406 12.503906v-16c-20.976563.523438-41.828125-3.394531-61.183594-11.496093-21.160156-8.769531-43.917969-13.027344-66.816406-12.503907zm0 0"/><path d="m279.996094 80.101562v16c20.976562-.523437 41.828125 3.394532 61.183594 11.496094 21.160156 8.769532 43.917968 13.027344 66.816406 12.503906v-16c-20.976563.523438-41.828125-3.394531-61.183594-11.496093-21.160156-8.769531-43.917969-13.027344-66.816406-12.503907zm0 0"/></svg>