<svg height="480pt" viewBox="0 -23 480.32891 480" width="480pt" xmlns="http://www.w3.org/2000/svg"><path d="m472.328125 177.316406c0 97.199219-130.527344 258.597656-192 247.398438-61.472656-11.199219-57.429687-184.375-40-280 17.433594-95.625 34.527344-123.199219 96-112 61.472656 11.199218 136 48.601562 136 144.601562zm0 0" fill="#426d78"/><path d="m8.328125 128.714844c-6.824219 96.960937 103.199219 327.03125 152 288 40-32 73.175781-159.039063 80-256 6.824219-96.960938-9.664063-147.617188-72-152-62.335937-4.382813-153.175781 23-160 120zm0 0" fill="#426d78"/><path d="m416.328125 249.316406c-31.695313 95.09375-74.527344 186.597656-136 175.398438-61.472656-11.199219-33.429687-127.777344-16-223.398438 17.433594-95.625 26.527344-123.203125 88-112 61.472656 11.199219 104 40 64 160zm0 0" fill="#aabece"/><path d="m304.328125 361.316406s-40-8-24-72 8-144 56-128 72 32 48 80-16 128-80 120zm0 0" fill="#fff69a"/><path d="m278.832031 165.960938-13.007812-9.292969c1.800781-2.53125 44.800781-61.699219 90.625-34.210938l-8.242188 13.714844c-33.253906-19.945313-69.015625 29.292969-69.375 29.789063zm0 0" fill="#426d78"/><path d="m364.75 144.472656 7.15625-14.3125 16 8-7.15625 14.3125zm0 0" fill="#426d78"/><path d="m280.328125 385.316406h16v16h-16zm0 0" fill="#426d78"/><path d="m313.871094 339.410156c-4.535156 0-9.015625-1-13.117188-2.9375l7.078125-14.351562c3.585938 1.675781 7.734375 1.640625 11.289063-.09375 3.433594-2.175782 9.207031-9.320313 9.207031-32.710938h16c0 23.847656-5.679687 39.453125-16.878906 46.398438-4.089844 2.476562-8.792969 3.757812-13.578125 3.695312zm0 0" fill="#e97424"/><path d="m328.328125 257.316406h16v16h-16zm0 0" fill="#e97424"/><path d="m96.328125 97.316406c-66.207031 16.550782-71.527344 93.964844-68.464844 140.429688 32.746094 99.390625 97.921875 206.601562 132.464844 178.96875 39.519531-31.617188 72.359375-156 79.730469-252.472656-18.859375-27.128907-69.242188-85.550782-143.730469-66.925782zm0 0" fill="#aabece"/><path d="m233.023438 132.570312c-.300782-.671874-30.757813-67.253906-88.695313-67.253906v-16c68.417969 0 101.914063 73.597656 103.3125 76.75zm0 0" fill="#aabece"/><path d="m112.328125 49.316406h16v16h-16zm0 0" fill="#aabece"/><g fill="#426d78"><path d="m24.328125 201.316406h80v16h-80zm0 0"/><path d="m72.328125 233.316406h80v16h-80zm0 0"/><path d="m152.328125 153.316406h80v16h-80zm0 0"/><path d="m152.328125 297.316406h64v16h-64zm0 0"/><path d="m128.328125 329.316406h32v16h-32zm0 0"/></g><path d="m337.769531 24.800781c-44.34375-8.09375-71.257812-.863281-90.703125 57.722657-6.578125-44.128907-26.898437-78.183594-78.175781-81.792969-36.652344-2.863281-73.332031 5.167969-105.433594 23.078125-37.605469 21.589844-61.453125 61.007812-63.128906 104.339844-6.070313 86.238281 73.226563 266.214843 130.519531 296.277343 5.265625 2.957031 11.175782 4.574219 17.210938 4.722657 6.289062-.011719 12.382812-2.195313 17.246094-6.1875 22.25-17.804688 42.128906-61.8125 56.984374-114.023438.960938 30.070312 7.0625 59.75 18.039063 87.761719 4.726563 18.484375 19.804687 32.511719 38.585937 35.886719 4.21875.789062 8.503907 1.195312 12.800782 1.214843 15.0625 0 32.703125-5.460937 52.167968-25.078125 3.421876-2.558594 6.75-5.144531 9.804688-7.6875 61.144531-50.96875 126.640625-153.023437 126.640625-223.71875 0-114.027344-99.695313-144.640625-142.558594-152.515625zm-321.441406 104.515625c1.128906-38.113281 22.050781-72.875 55.199219-91.714844 25.53125-14.285156 54.351562-21.644531 83.601562-21.351562 4.203125 0 8.40625.148438 12.609375.441406 41.300781 2.910156 61.429688 27.726563 65.261719 84.664063-15.984375-22.441407-45.285156-52.039063-88.671875-52.039063v16c57.9375 0 88.394531 66.582032 88.695313 67.253906l.585937-.253906c-.074219 3.359375-.113281 6.664063-.265625 10.191406-25.558594-29.898437-73.351562-69.359374-138.949219-52.953124-48.738281 12.183593-67.007812 53.910156-72.800781 94.449218-4.15625-17.917968-5.925781-36.308594-5.265625-54.6875zm139 281.148438c-2.832031 2.265625-7.671875 4.699218-17.015625-.207032-33.335938-17.488281-77.414062-98.398437-102.527344-174.296874-.351562-5.75-.550781-12.039063-.527344-18.644532h69.070313v-16h-68.511719c2.769532-39.785156 16.519532-84.753906 62.449219-96.242187 57.664063-14.398438 100.3125 21.265625 123.253906 48.242187h-69.191406v16h79.3125c-3.851563 43.234375-11.417969 86.058594-22.617187 128h-56.695313v16h52.152344c-13.558594 45.324219-30.742188 82.398438-49.152344 97.148438zm98.328125-25.109375c-8.800781-37.191407 2.6875-98.160157 13.792969-157.113281 1.601562-8.601563 3.199219-17.128907 4.742187-25.496094 2.601563-14.253906 4.992188-26.703125 7.34375-37.71875 5-6.542969 37.882813-47.320313 68.671875-28.855469l8.242188-13.714844c-26.34375-15.804687-51.746094-2.957031-68.9375 11.296875 9.128906-28.503906 20.34375-38.863281 42.144531-38.863281 7.132812.132813 14.238281.902344 21.234375 2.296875 33.855469 6.167969 53.597656 16.742188 64 34.296875 13.910156 23.503906 11.910156 61.214844-6.113281 115.300781-25.054688 75.203125-50.402344 125.074219-76.496094 150.625-20.289062 14.785156-37.960938 21.679688-50.480469 19.390625-10.519531-1.917969-19.351562-10.742187-26.398437-25.246093-.632813-1.960938-1.226563-4.007813-1.746094-6.199219zm133.265625-41.183594c14.4375-29.890625 26.796875-60.738281 36.992187-92.328125 19.582032-58.746094 21.125-100.800781 4.710938-128.511719-16.609375-28.058593-48.734375-37.128906-74.855469-41.890625-70.511719-12.847656-80.226562 24.671875-97.304687 118.441406-1.527344 8.335938-3.128906 16.800782-4.734375 25.398438-5.152344 27.320312-10.363281 55.042969-13.671875 80.984375-1.167969-21.355469-1.246094-42.761719-.242188-64.128906 4.996094-26.722657 8.503906-53.707031 10.511719-80.820313.535156-7.246094.914063-14.480468 1.136719-21.714844 16.976562-90.09375 32.96875-108.613281 85.417968-99.085937 48.34375 8.902344 129.445313 38.472656 129.445313 136.800781 0 48.734375-35.566406 116.046875-77.40625 166.855469zm0 0"/><path d="m302.730469 369.15625.574219.09375c3.226562.414062 6.476562.625 9.726562.632812 43.664062 0 54.074219-41.433593 63.320312-78.28125 3.425782-16.054687 8.511719-31.707031 15.175782-46.710937 10.679687-21.367187 12.984375-37.785156 7.203125-51.671875-7.800781-18.816406-29.601563-29.398438-59.867188-39.496094-9.578125-3.957031-20.441406-3.285156-29.460937 1.816406-18.335938 11.375-22.625 42.574219-27.585938 78.65625-2.136718 17.875-5.222656 35.625-9.246094 53.175782-6.640624 26.4375-5.042968 47.542968 4.558594 62.742187 5.765625 9.40625 14.933594 16.222657 25.601563 19.042969zm-14.640625-77.898438c4.175781-18.109374 7.378906-36.429687 9.597656-54.878906 4.226562-30.769531 8.226562-59.824218 20.167969-67.25 5.027343-2.492187 10.910156-2.574218 16-.222656 26.128906 8.710938 44.664062 17.222656 50.136719 30.398438 3.792968 9.152343 1.601562 21.714843-6.765626 38.402343-7.210937 16.042969-12.695312 32.804688-16.363281 50.007813-10.910156 43.488281-19.382812 69.984375-55.117187 65.71875-6.4375-2.015625-11.894532-6.347656-15.3125-12.160156-6.90625-11.222657-7.703125-28.511719-2.34375-50.015626zm0 0"/><path d="m364.75 144.472656 7.15625-14.3125 16 8-7.15625 14.3125zm0 0"/><path d="m280.328125 385.316406h16v16h-16zm0 0"/><path d="m327.449219 335.714844c11.199219-6.945313 16.878906-22.550782 16.878906-46.398438h-16c0 23.390625-5.773437 30.535156-9.207031 32.710938-3.554688 1.734375-7.703125 1.769531-11.289063.09375l-7.078125 14.394531c4.101563 1.933594 8.582032 2.9375 13.117188 2.933594 4.789062.050781 9.492187-1.242188 13.578125-3.734375zm0 0"/><path d="m328.328125 257.316406h16v16h-16zm0 0"/><path d="m112.328125 49.316406h16v16h-16zm0 0"/><path d="m72.328125 233.316406h80v16h-80zm0 0"/><path d="m128.328125 329.316406h32v16h-32zm0 0"/></svg>