<svg height="511pt" viewBox="-2 0 511 511.99923" width="511pt" xmlns="http://www.w3.org/2000/svg"><path d="m202.074219 34.960938c-12.890625-11.136719-28.824219-19.28125-46.4375-24.292969-28.085938-7.984375-65.84375-2.464844-91.578125 11.277343-25.347656 13.535157-45.589844 37.183594-53.261719 65.0625-3.457031 12.554688-4.320313 26.105469-1.910156 38.929688 1.234375 6.582031 3.351562 13.042969 6.65625 18.886719 13.058593 23.082031 42.113281 27.363281 65.570312 18.929687 8.425781-3.03125 18.273438-10.207031 21.265625-19.09375 5.234375-15.550781-4.324218-27.035156-20.074218-25.28125-7.953126.882813-15.136719 2.929688-21.917969-2.824218-8.476563-7.191407-9.339844-18.449219-6.425781-28.304688 5.183593-17.550781 22.8125-28.5625 40.644531-28.730469 21.046875-.191406 39.152343 15.871094 50.453125 32.269531 13.441406 19.5 18.472656 53.546876 48.328125 53.945313 15.394531.207031 31.441406-4.960937 40.128906-18.449219 10.550781-16.382812 3.753906-36.425781-3.441406-53-6.320313-14.558594-15.933594-28.902344-28-39.324218zm0 0" fill="#bc7d53"/><path d="m220.417969 139.46875c-8.050781 4.53125-17.664063 6.394531-27.035157 6.265625-29.851562-.398437-34.882812-34.441406-48.328124-53.949219-11.296876-16.386718-29.410157-32.457031-50.449219-32.265625-17.832031.167969-35.453125 11.175781-40.648438 28.730469-.839843 2.855469-1.363281 5.832031-1.472656 8.777344-2.363281-5.640625-2.886719-12.1875-1.503906-18.191406 3.179687-13.804688 12.117187-26.6875 25.203125-32.457032 12.738281-5.613281 27.6875-6.585937 41.242187-3.765625 18 3.746094 34.8125 13.613281 47.480469 26.859375 14.019531 14.664063 27.863281 31.023438 37.246094 49.109375 3.929687 7.554688 7.769531 16.054688 15.4375 19.785157.910156.441406 1.863281.800781 2.828125 1.101562zm0 0" fill="#af663e"/><path d="m305.710938 34.960938c12.890624-11.136719 28.824218-19.28125 46.4375-24.292969 28.085937-7.984375 65.84375-2.464844 91.574218 11.277343 25.351563 13.535157 45.59375 37.183594 53.265625 65.0625 3.453125 12.554688 4.320313 26.105469 1.910157 38.929688-1.238282 6.582031-3.355469 13.042969-6.660157 18.886719-13.058593 23.082031-42.113281 27.363281-65.570312 18.929687-8.425781-3.03125-18.273438-10.207031-21.265625-19.09375-5.234375-15.550781 4.324218-27.035156 20.074218-25.28125 7.953126.882813 15.136719 2.929688 21.921876-2.824218 8.476562-7.191407 9.339843-18.449219 6.425781-28.304688-5.1875-17.550781-22.8125-28.5625-40.648438-28.730469-21.042969-.191406-39.152343 15.871094-50.453125 32.269531-13.441406 19.5-18.46875 53.546876-48.324218 53.945313-15.398438.207031-31.445313-4.960937-40.128907-18.449219-10.550781-16.382812-3.757812-36.425781 3.441407-53 6.320312-14.558594 15.929687-28.902344 28-39.324218zm0 0" fill="#bc7d53"/><path d="m287.367188 139.46875c8.046874 4.53125 17.660156 6.394531 27.035156 6.265625 29.851562-.398437 34.882812-34.441406 48.324218-53.949219 11.296876-16.386718 29.410157-32.457031 50.449219-32.265625 17.835938.167969 35.457031 11.175781 40.648438 28.730469.84375 2.855469 1.363281 5.832031 1.472656 8.777344 2.367187-5.640625 2.886719-12.1875 1.503906-18.191406-3.175781-13.804688-12.117187-26.6875-25.203125-32.457032-12.734375-5.613281-27.6875-6.585937-41.238281-3.765625-18.003906 3.746094-34.8125 13.613281-47.480469 26.859375-14.023437 14.664063-27.867187 31.023438-37.25 49.109375-3.929687 7.554688-7.769531 16.054688-15.4375 19.785157-.910156.441406-1.863281.800781-2.824218 1.101562zm0 0" fill="#af663e"/><path d="m299.445312 413.078125h-91.105468c-1.621094 14.632813-2.511719 39.789063-2.667969 54.507813-.058594 5.539062 1.058594 12.554687 6.417969 13.941406 2.050781.53125 4.242187.003906 6.1875-.839844 3.886718-1.675781 7.210937-4.617188 9.34375-8.269531 2.898437 6.671875 6.207031 13.164062 9.894531 19.4375 3.722656 6.320312 9.039063 13.109375 16.375 13.128906 7.335937-.019531 12.652344-6.808594 16.371094-13.128906 3.691406-6.273438 7-12.765625 9.898437-19.4375 2.132813 3.652343 5.460938 6.59375 9.34375 8.269531 1.945313.84375 4.132813 1.371094 6.1875.839844 5.359375-1.386719 6.476563-8.402344 6.417969-13.941406-.15625-14.71875-1.046875-39.875-2.664063-54.507813zm0 0" fill="#bc7d53"/><path d="m302.109375 467.585938c.0625 5.535156-1.058594 12.554687-6.410156 13.9375-2.058594.53125-4.25 0-6.199219-.832032-.863281-.371094-1.6875-.800781-2.488281-1.292968 1.878906-3.074219 2.363281-7.527344 2.316406-11.328126-.160156-14.699218-.996094-39.171874-2.523437-54.988281h12.636718c1.617188 14.628907 2.515625 39.785157 2.667969 54.503907zm0 0" fill="#af663e"/><path d="m135.707031 161.929688c-.066406.046874-71.640625 50.488281-55.125 199.136718 1.292969 10.695313 8.554688 59.722656 22.195313 59.535156 10.898437-.152343 19.0625-9.792968 24.898437-18.996093 20.640625-32.542969 30.042969-70.1875 32.984375-108.292969 2.417969-31.277344 3.398438-70.207031-5.53125-99.539062-1.265625-4.15625-11.664062-37.277344-19.421875-31.84375zm0 0" fill="#bc7d53"/><path d="m160.660156 293.3125c-2.9375 38.105469-12.347656 75.746094-32.988281 108.292969-5.835937 9.203125-13.992187 18.839843-24.894531 18.992187-3.015625.046875-5.71875-2.324218-8.117188-6.152344 6.402344-3.492187 11.546875-10.066406 15.589844-16.433593 20.636719-32.546875 30.042969-70.183594 32.988281-108.292969 2.414063-31.28125 3.394531-70.210938-5.53125-99.535156-.710937-2.332032-4.292969-13.792969-8.6875-22.433594 4.085938-3.976562 6.683594-5.808594 6.691407-5.820312 7.75-5.429688 18.152343 27.691406 19.417968 31.847656 8.925782 29.324218 7.949219 68.253906 5.53125 99.535156zm0 0" fill="#af663e"/><path d="m372.074219 161.929688c.066406.046874 71.644531 50.488281 55.125 199.136718-1.289063 10.695313-8.550781 59.722656-22.195313 59.535156-10.898437-.152343-19.058594-9.792968-24.898437-18.996093-19.40625-30.601563-28.964844-65.816407-32.414063-101.640625-3.195312-33.1875-4.839844-73.992188 4.960938-106.191406 1.265625-4.15625 11.667968-37.277344 19.421875-31.84375zm0 0" fill="#bc7d53"/><path d="m427.195312 361.0625c-1.285156 10.699219-8.550781 59.726562-22.191406 59.535156-3.90625-.054687-7.464844-1.328125-10.6875-3.367187 8.21875-13.777344 12.726563-44.589844 13.722656-52.808594 13.066407-117.648437-29.035156-173.78125-47.203124-192.09375 3.546874-7.238281 7.667968-12.894531 11.234374-10.398437.074219.046874 71.648438 50.484374 55.125 199.132812zm0 0" fill="#af663e"/><path d="m257.890625 76.007812c-36.019531-.871093-72.371094 11.640626-97.078125 36.867188-38.085938 38.886719-37.027344 95.554688-26.445312 143.425781 0 0 17.242187 54.246094 17.242187 78.769531 0 26.640626 3.957031 54.242188 27.65625 73.058594 9.1875 7.292969 20.394531 12.117188 32.238281 14.777344 7.570313 1.699219 15.363282 2.519531 23.15625 2.753906 30.441406.90625 65.335938 2.917969 91.039063-15.203125 16.375-11.542969 25.421875-29.070312 29.082031-47.144531 1.921875-9.511719 1.683594-18.683594 1.683594-28.242188 0-24.519531 17.242187-78.769531 17.242187-78.769531 12.539063-56.722656 9.652344-124.835937-48.347656-160.859375-20.039063-12.445312-43.679687-18.859375-67.46875-19.433594zm0 0" fill="#e7e7e7"/><path d="m214.207031 254.578125c0 6.796875-5.507812 12.304687-12.304687 12.304687s-12.304688-5.507812-12.304688-12.304687 5.507813-12.308594 12.304688-12.308594 12.304687 5.511719 12.304687 12.308594zm0 0" fill="#111"/><path d="m318.1875 254.578125c0 6.796875-5.511719 12.304687-12.308594 12.304687-6.792968 0-12.304687-5.507812-12.304687-12.304687s5.511719-12.308594 12.304687-12.308594c6.796875 0 12.308594 5.511719 12.308594 12.308594zm0 0" fill="#111"/><path d="m373.707031 256.300781s-17.234375 54.246094-17.234375 78.773438c0 9.554687.230469 18.726562-1.6875 28.234375-3.65625 18.082031-12.710937 35.601562-29.082031 47.152344-22.695313 15.996093-52.566406 16.300781-80.199219 15.519531 19.625-.835938 38.960938-4.355469 54.792969-15.519531 16.378906-11.550782 25.425781-29.070313 29.089844-47.152344 1.921875-9.507813 1.679687-18.679688 1.679687-28.234375 0-24.527344 17.242188-78.773438 17.242188-78.773438 12.535156-56.722656 9.652344-124.84375-48.34375-160.855469-17.476563-10.847656-37.683594-17.117187-58.339844-18.933593 5.394531-.464844 10.839844-.644531 16.261719-.511719 23.789062.585938 47.429687 6.996094 67.476562 19.445312 57.996094 36.011719 60.878907 104.132813 48.34375 160.855469zm0 0" fill="#cecece"/><path d="m503.753906 85.148438c-8.015625-29.132813-28.695312-54.425782-56.726562-69.394532-28.320313-15.121094-68.125-19.988281-96.800782-11.832031-19.109374 5.433594-35.632812 14.089844-49.105468 25.726563-11.679688 10.089843-21.988282 24.367187-29.164063 40.320312-4.578125-.53125-9.214843-.863281-13.898437-.976562-7.511719-.183594-14.933594.175781-22.199219 1.050781-7.175781-15.984375-17.496094-30.285157-29.199219-40.394531-13.472656-11.636719-29.992187-20.292969-49.105468-25.726563-28.675782-8.15625-68.480469-3.289063-96.800782 11.832031-28.03125 14.972656-48.707031 40.265625-56.722656 69.394532-3.867188 14.054687-4.574219 28.609374-2.042969 42.085937 1.472657 7.828125 3.976563 14.910156 7.449219 21.046875 7.074219 12.507812 18.597656 21.03125 33.320312 24.640625 5.039063 1.238281 10.320313 1.847656 15.683594 1.847656 8.347656 0 16.898438-1.484375 25.046875-4.414062 14.816407-5.328125 23.019531-15.964844 25.539063-23.457031 3.261718-9.6875 2.039062-19.082032-3.355469-25.773438-5.363281-6.652344-14.160156-9.832031-24.144531-8.722656-1.167969.132812-2.316406.285156-3.453125.4375-6.550781.875-9.84375 1.167968-13.152344-1.636719-7.527344-6.382813-5.46875-16.785156-4.234375-20.964844 4.015625-13.585937 18.304688-23.554687 33.980469-23.699219.085937 0 .171875-.003906.261719-.003906 7.492187 0 26.238281 2.960938 44.351562 29.234375 3.347656 4.859375 6.210938 10.886719 9.242188 17.269531.304687.644532.621093 1.300782.933593 1.957032-10.925781 13.132812-18.703125 28.4375-23.347656 45.824218-7.4375 6.835938-21.027344 21.59375-32.898437 46.800782-1.652344 3.503906-.148438 7.6875 3.359374 9.335937 3.507813 1.652344 7.683594.148438 9.335938-3.355469 5.152344-10.941406 10.664062-19.707031 15.710938-26.535156-1.796876 21.152344.152343 44.757813 5.898437 70.746094.042969.207031.101563.410156.164063.613281.167968.53125 16.910156 53.476563 16.910156 76.640625 0 3.171875.054687 6.445313.203125 9.785156-5.457031 19.671876-13.152344 37.394532-23.042969 52.992188-6.550781 10.332031-12.695312 15.484375-18.769531 15.730469-.773438-.523438-5.027344-4.15625-9.824219-23.027344-3.601562-14.164063-5.414062-28.710937-5.601562-30.253906-4.792969-43.15625-2.488282-82.015625 6.855468-115.507813 1.042969-3.734375-1.140625-7.601562-4.871094-8.644531-3.730468-1.039063-7.605468 1.140625-8.644531 4.871094-9.828125 35.230469-12.28125 75.882812-7.277343 120.894531.226562 1.898438 2.363281 19.015625 6.660156 34.84375 3.597656 13.269531 9.832031 30.867188 22.410156 30.863281h.1875c16.761719-.230469 27.273438-16.808593 30.726562-22.253906 6.023438-9.5 11.265626-19.722656 15.75-30.605469 4.152344 14.195313 11.761719 27.921875 25.554688 38.871094 7.226562 5.734375 15.683594 10.222656 25.234375 13.402344-.90625 14.191406-1.382813 30.570312-1.488281 40.480468-.164063 15.429688 7.242187 19.660157 11.675781 20.808594 3.308594.859375 6.917969.457032 10.730469-1.1875 1.589844-.6875 3.109375-1.527344 4.535156-2.503906 1.839844 3.664062 3.804688 7.265625 5.875 10.785156 2.410156 4.09375 9.742188 16.558594 22.4375 16.589844 12.664062-.03125 19.996094-12.496094 22.402344-16.589844 2.070312-3.515625 4.035156-7.121094 5.875-10.785156 1.425781.976562 2.949218 1.820312 4.539062 2.507812 3.808594 1.640626 7.421875 2.042969 10.726563 1.183594 4.433593-1.144531 11.84375-5.375 11.675781-20.804687-.105469-9.898438-.578125-26.238281-1.484375-40.410157 7.761719-2.53125 15.199219-6.046874 22.097656-10.910156 16.144531-11.382812 24.609375-26.917968 29.039063-40.519531 4.40625 10.527344 9.535156 20.441406 15.398437 29.6875 3.453125 5.449219 13.964844 22.023437 30.730469 22.253906h.230469c6.078125 0 14.90625-3.375 22.367187-30.863281 4.292969-15.828125 6.429688-32.945312 6.667969-34.910156 4.808594-43.292969 4.898437-106.039063-21.996094-159.117188-11.457031-22.605468-24.085937-36.035156-30.945312-42.28125-4.308594-16.019531-11.527344-31.625-22.886719-45.492187.304688-.640625.613281-1.28125.910156-1.914063 3.03125-6.378906 5.894532-12.40625 9.246094-17.269531 5.542969-8.046875 12.09375-14.945313 18.9375-19.953125 3.128906-2.289062 3.804688-6.679688 1.519531-9.804688-2.289062-3.128906-6.679687-3.808593-9.808593-1.519531-8.097657 5.925781-15.777344 13.988281-22.203126 23.316407-3.375 4.894531-6.214843 10.535156-8.90625 16.152343-5.566406-5.199219-11.859374-10.054687-18.980468-14.476562-12.894532-8.011719-27.359375-13.785157-42.726563-17.128907 6.222657-12.742187 14.613281-24.007812 23.960938-32.085937 11.914062-10.289063 26.640625-17.976563 43.773437-22.851563 25.464844-7.242187 60.972656-2.832031 86.347656 10.71875 24.289063 12.96875 42.910157 35.675782 49.804688 60.734376 3.308594 12.011718 3.921875 24.378906 1.78125 35.773437-1.183594 6.3125-3.160156 11.941406-5.871094 16.726563-8.222656 14.53125-29.59375 25.664062-57.085937 15.78125-6.804688-2.445313-14.824219-8.292969-16.992188-14.730469-1.726562-5.125-1.375-9.5625.984375-12.488281 2.328125-2.886719 6.472656-4.15625 11.664063-3.582032 1.0625.117188 2.113281.257813 3.148437.398438 7.074219.945312 15.875 2.121094 24.085938-4.84375 9.585937-8.132813 12.808594-21.457032 8.617187-35.640625-5.59375-18.9375-23.628906-32.46875-44.871093-33.679688-3.851563-.222656-7.183594 2.738281-7.402344 6.605469-.222656 3.871094 2.734375 7.1875 6.605468 7.40625 15.105469.859375 28.351563 10.582031 32.210938 23.644531 1.234375 4.175781 3.289062 14.578125-4.238281 20.964844-3.304688 2.804687-6.597657 2.507813-13.148438 1.632813-1.136719-.152344-2.289062-.304688-3.453125-.4375-9.988281-1.109376-18.78125 2.070312-24.144531 8.722656-5.394531 6.691406-6.617187 16.085937-3.359375 25.773437 2.523438 7.492188 10.722656 18.128907 25.542969 23.457031 8.148437 2.933594 16.699219 4.417969 25.046875 4.417969 5.363281 0 10.644531-.613281 15.679687-1.851562 14.722657-3.609375 26.246094-12.128907 33.324219-24.640625 3.46875-6.132813 5.976562-13.214844 7.445312-21.046875 2.535157-13.472657 1.832032-28.027344-2.035156-42.082031zm-408.757812-32.644532c-.152344 0-.300782 0-.453125 0-22.042969.207032-41.5 14.085938-47.3125 33.757813-4.191407 14.1875-.96875 27.511719 8.617187 35.644531 8.207032 6.964844 17.011719 5.785156 24.085938 4.84375 1.035156-.140625 2.085937-.28125 3.148437-.398438 5.191407-.578124 9.335938.695313 11.664063 3.582032 2.359375 2.925781 2.710937 7.363281.984375 12.488281-2.167969 6.4375-10.1875 12.28125-16.992188 14.730469-27.492187 9.886718-48.863281-1.25-57.085937-15.78125-2.707032-4.789063-4.683594-10.417969-5.867188-16.726563-2.144531-11.394531-1.527344-23.761719 1.777344-35.773437 6.894531-25.058594 25.515625-47.765625 49.804688-60.734375 17.207031-9.191407 39.066406-14.171875 59.300781-14.171875 9.609375 0 18.851562 1.121094 27.050781 3.453125 17.128906 4.875 31.855469 12.5625 43.769531 22.851562 9.382813 8.105469 17.792969 19.421875 24.023438 32.214844-23.601563 5.214844-44.972657 16.058594-61.710938 31.601563-2.707031-5.660157-5.5625-11.347657-8.960937-16.277344-7.339844-10.648438-27.417969-35.304688-55.84375-35.304688zm200.097656 415.160156c.050781 4.464844-.855469 6.53125-1.234375 7.054688-.21875-.019531-.71875-.105469-1.574219-.472656-2.523437-1.089844-4.675781-2.996094-6.0625-5.371094-1.335937-2.28125-3.808594-3.617188-6.476562-3.464844-2.636719.15625-4.964844 1.785156-6.019532 4.207032-2.773437 6.386718-5.972656 12.671874-9.507812 18.679687-3.769531 6.40625-7.25 9.660156-10.308594 9.667969-3.089844-.007813-6.570312-3.261719-10.34375-9.671875-3.535156-6.003907-6.734375-12.289063-9.507812-18.675781-1.054688-2.421876-3.382813-4.050782-6.019532-4.207032-.140624-.007812-.28125-.011718-.417968-.011718-2.484375 0-4.796875 1.316406-6.054688 3.480468-1.390625 2.371094-3.542968 4.28125-6.0625 5.367188-.882812.382812-1.386718.460937-1.574218.480468-.375-.515624-1.289063-2.578124-1.238282-7.0625.097656-9.148437.511719-23.875 1.296875-37.09375-.09375 1.546876 42.898438 2.664063 45.640625 2.664063 11.402344 0 22.984375-.566406 34.175782-2.644531.777343 13.210937 1.195312 27.929687 1.289062 37.074218zm85.464844-209.847656c4.210937-19.039062 7.796875-44.699218 5.3125-71.148437 4.53125 6.085937 9.449218 13.730469 14.15625 23.128906 24.972656 49.871094 24.769531 109.367187 20.207031 150.429687-.195313 1.613282-2.007813 16.15625-5.609375 30.320313-4.796875 18.871094-9.050781 22.503906-9.824219 23.03125-6.074219-.25-12.21875-5.398437-18.769531-15.730469-9.640625-15.203125-17.179688-32.386718-22.59375-51.359375.621094-30.25 7.703125-59.246093 16.957031-88.0625.066407-.203125.121094-.40625.164063-.609375zm-58.898438-156.414062c24.820313 15.417968 40.796875 38.375 47.476563 68.238281 5.429687 24.246094 4.660156 53.578125-2.214844 84.84375-5.738281 18.195313-11.390625 36.519531-14.570313 55.367187-2.902343 17.210938-1.007812 35.054688-4.449218 52.066407-2.617188 12.929687-9.292969 30.851562-26.246094 42.804687-15.320312 10.800782-34.570312 13.636719-52.878906 14.3125-18.011719.664063-38.160156.972656-55.734375-2.976562-11.40625-2.5625-21.578125-7.203125-29.410157-13.425782-12.367187-9.8125-25.003906-25.515624-25.003906-67.5625-.003906-24.613281-15.925781-75.679687-17.476562-80.585937-13.292969-60.421875-4.992188-106.414063 24.671875-136.703125 22.488281-22.960938 55.980469-35.628906 91.894531-34.761719 23.378906.566407 45.488281 6.921875 63.941406 18.382813zm0 0"/><path d="m203.289062 300.324219c0 8.089843-6.554687 14.644531-14.644531 14.644531-8.085937 0-14.644531-6.554688-14.644531-14.644531 0-8.089844 6.558594-14.644531 14.644531-14.644531 8.089844 0 14.644531 6.554687 14.644531 14.644531zm0 0" fill="#ff7a7a"/><path d="m333.78125 300.324219c0 8.089843-6.554688 14.644531-14.644531 14.644531-8.085938 0-14.644531-6.554688-14.644531-14.644531 0-8.089844 6.558593-14.644531 14.644531-14.644531 8.089843 0 14.644531 6.554687 14.644531 14.644531zm0 0" fill="#ff7a7a"/><path d="m279.265625 325.710938c-11.4375-14.363282-35.332031-14.285157-46.707031 0-4.949219 6.214843-6.488282 14.558593-3.589844 21.953124 7.191406 18.34375 46.738281 18.238282 53.886719 0 2.898437-7.394531 1.359375-15.738281-3.589844-21.953124zm0 0" fill="#bc7d53"/><path d="m282.855469 347.664062c-4.117188 10.507813-18.996094 15-32.238281 13.40625 9.78125-1.167968 18.6875-5.644531 21.730468-13.40625 2.898438-7.394531 1.359375-15.738281-3.589844-21.953124-4.570312-5.738282-11.128906-9.171876-18.082031-10.3125 10.421875-1.710938 21.738281 1.710937 28.589844 10.3125 4.949219 6.214843 6.492187 14.558593 3.589844 21.953124zm0 0" fill="#af663e"/><path d="m284.753906 321.339844c-6.777344-8.507813-17.28125-13.386719-28.828125-13.386719-11.5625 0-22.082031 4.878906-28.855469 13.386719-6.597656 8.28125-8.371093 19.351562-4.632812 28.886718 3.675781 9.378907 13.71875 15.921876 26.457031 17.683594v16.53125c-1.316406-1.003906-2.433593-2.289062-3.222656-3.828125-1.761719-3.453125-5.988281-4.820312-9.4375-3.058593-3.453125 1.761718-4.820313 5.988281-3.058594 9.441406 4.332031 8.484375 12.9375 13.753906 22.460938 13.753906 10.152343 0 19.269531-6.042969 23.226562-15.394531 1.507813-3.570313-.160156-7.6875-3.730469-9.195313-3.570312-1.511718-7.683593.160156-9.195312 3.726563-.6875 1.625-1.730469 3.023437-3.007812 4.121093v-16.109374c12.746093-1.769532 22.78125-8.304688 26.457031-17.671876 3.738281-9.535156 1.964843-20.601562-4.632813-28.886718zm-8.429687 23.765625c-2.140625 5.453125-10.546875 9.257812-20.445313 9.257812-9.859375 0-18.238281-3.804687-20.375-9.257812-1.917968-4.890625-.941406-10.644531 2.542969-15.019531 4.097656-5.148438 10.617187-8.101563 17.878906-8.097657 7.246094 0 13.753907 2.949219 17.851563 8.097657 3.484375 4.375 4.460937 10.128906 2.546875 15.019531zm0 0"/></svg>