<svg height="480pt" viewBox="0 -24 480 480" width="480pt" xmlns="http://www.w3.org/2000/svg"><path d="m416 200c0 61.855469-32.230469 144-72 144s-72-82.144531-72-144 8.230469-80 48-80 96 18.144531 96 80zm0 0" fill="#426d78"/><path d="m104 344c61.855469 0 144-32.230469 144-72s-82.144531-72-144-72-80 8.230469-80 48 18.144531 96 80 96zm0 0" fill="#426d78"/><path d="m8 344h464v80h-464zm0 0" fill="#f9ddac"/><path d="m320 152c-23.246094 0-38.199219 15.199219-47.769531 32.910156-.140625 4.746094-.230469 9.699219-.230469 15.089844 0 61.855469 32.230469 144 72 144 30.902344 0 57.257812-49.601562 67.464844-100.800781-18.242188-76.320313-47.464844-91.199219-91.464844-91.199219zm0 0" fill="#aabece"/><path d="m376 256c0 64-9.976562 86.289062-32 88-25.753906 2-53.503906-43-64-88-8-34.398438 17.910156-64 40-64s56 16 56 64zm0 0" fill="#fff69a"/><path d="m344 272c0 40 22.023438 70.289062 0 72-25.753906 2-53.503906-43-64-88-8-34.398438 40-32 40-32 24 0 24 24 24 48zm0 0" fill="#f3bb59"/><path d="m56 248c0-23.246094 15.199219-38.199219 32.910156-47.769531 4.746094-.140625 9.699219-.230469 15.089844-.230469 61.855469 0 144 32.230469 144 72 0 30.902344-49.601562 57.257812-100.800781 67.464844-76.320313-18.242188-91.199219-47.464844-91.199219-91.464844zm0 0" fill="#aabece"/><path d="m63.335938 267.199219-14.6875-6.335938c7.472656-15.460937 20.433593-27.582031 36.359374-34.007812 20.121094-7.878907 43.761719-5.925781 70.238282 5.847656l-6.492188 14.625c-22.328125-9.929687-41.738281-11.832031-57.675781-5.65625-12.027344 4.875-21.886719 13.945313-27.742187 25.527344zm0 0" fill="#426d78"/><path d="m200 272c0 8.835938-7.164062 16-16 16s-16-7.164062-16-16 7.164062-16 16-16 16 7.164062 16 16zm0 0" fill="#fff69a"/><path d="m88 264h16v16h-16zm0 0" fill="#426d78"/><path d="m120 280h16v16h-16zm0 0" fill="#426d78"/><g fill="#e97424"><path d="m64 368h16v16h-16zm0 0"/><path d="m104 384h48v16h-48zm0 0"/><path d="m240 368h16v16h-16zm0 0"/><path d="m304 384h32v16h-32zm0 0"/><path d="m416 368h16v16h-16zm0 0"/><path d="m432 384h16v16h-16zm0 0"/><path d="m32 384h16v16h-16zm0 0"/></g><path d="m224 168c0 8.835938-7.164062 16-16 16s-16-7.164062-16-16 7.164062-16 16-16 16 7.164062 16 16zm0 0" fill="#7fcac9"/><path d="m160 80c0 13.253906-10.746094 24-24 24s-24-10.746094-24-24 10.746094-24 24-24 24 10.746094 24 24zm0 0" fill="#7fcac9"/><path d="m272 56c0 8.835938-7.164062 16-16 16s-16-7.164062-16-16 7.164062-16 16-16 16 7.164062 16 16zm0 0" fill="#7fcac9"/><path d="m392 56c0 13.253906-10.746094 24-24 24s-24-10.746094-24-24 10.746094-24 24-24 24 10.746094 24 24zm0 0" fill="#7fcac9"/><path d="m120 160h16v16h-16zm0 0" fill="#beedea"/><path d="m200 88h16v16h-16zm0 0" fill="#beedea"/><path d="m288 80h16v16h-16zm0 0" fill="#beedea"/><path d="m312 0h16v16h-16zm0 0" fill="#beedea"/><path d="m184 296c13.253906 0 24-10.746094 24-24s-10.746094-24-24-24-24 10.746094-24 24 10.746094 24 24 24zm0-32c4.417969 0 8 3.582031 8 8s-3.582031 8-8 8-8-3.582031-8-8 3.582031-8 8-8zm0 0"/><path d="m88 264h16v16h-16zm0 0"/><path d="m120 280h16v16h-16zm0 0"/><path d="m64 368h16v16h-16zm0 0"/><path d="m104 384h48v16h-48zm0 0"/><path d="m240 368h16v16h-16zm0 0"/><path d="m304 384h32v16h-32zm0 0"/><path d="m416 368h16v16h-16zm0 0"/><path d="m432 384h16v16h-16zm0 0"/><path d="m32 384h16v16h-16zm0 0"/><path d="m472 336h-94.480469c28.824219-28.894531 46.480469-91 46.480469-136 0-40.59375-27.199219-88-104-88-47.910156 0-56 27.152344-56 88 0 45 17.65625 107.105469 46.480469 136h-122.222657c37.34375-13.953125 67.742188-36.28125 67.742188-64 0-48.097656-91.488281-80-152-80-60.847656 0-88 8.089844-88 56 0 44.671875 16.097656 72.480469 37.519531 88h-45.519531c-4.417969 0-8 3.582031-8 8v80c0 4.417969 3.582031 8 8 8h464c4.417969 0 8-3.582031 8-8v-80c0-4.417969-3.582031-8-8-8zm-192-136c0-4.558594.054688-8.753906.152344-12.800781 10.175781-17.984375 23.558594-27.199219 39.847656-27.199219 40.726562 0 66.136719 13.398438 83.199219 83.289062-4.230469 21.382813-11.683594 41.996094-22.101563 61.144532 2.164063-16.050782 3.136719-32.238282 2.902344-48.433594 0-52.800781-38.273438-72-64-72-14.234375.871094-27.328125 8.070312-35.695312 19.617188-1.4375 1.820312-2.773438 3.71875-4 5.6875-.167969-3.128907-.304688-6.25-.304688-9.304688zm78.039062 111.910156c-3.605468-13.011718-5.632812-26.410156-6.039062-39.910156 0-23.632812 0-56-31.585938-56-9.472656-.390625-18.9375 1.023438-27.886718 4.167969 1.257812-2.316407 2.703125-4.53125 4.320312-6.617188 5.386719-7.660156 13.835938-12.605469 23.152344-13.550781 16.601562 0 48 11.703125 48 56 0 34.753906-3.039062 54.535156-7.695312 65.769531-.632813-3.074219-1.417969-6.34375-2.265626-9.859375zm-70.246093-57.726562c-1.597657-4.585938-.855469-9.660156 1.984375-13.597656 6.542968-7.84375 24.125-8.859376 30.222656-8.585938 13.6875 0 16 9.992188 16 40 .378906 14.765625 2.554688 29.425781 6.488281 43.664062 2.082031 6.417969 3.160157 13.117188 3.199219 19.863282-.625.246094-1.28125.390625-1.953125.433594-23.199219-.273438-45.359375-38.402344-56.414063-81.671876zm32.207031-126.183594c9.007812 0 88 2.015625 88 72 0 1.550781-.105469 3.160156-.152344 4.734375-19.917968-49.535156-49.121094-60.734375-87.847656-60.734375-13.929688-.070312-27.367188 5.144531-37.601562 14.601562 4.289062-25.875 15.027343-30.601562 37.601562-30.601562zm-80 144c0 25.246094-44.96875 49.320312-92.695312 59.199219-60.121094-14.703125-78.402344-35.574219-82.359376-67.039063 5.988282-10.183594 15.175782-18.105468 26.132813-22.527344 15.9375-6.175781 35.347656-4.273437 57.675781 5.65625l6.492188-14.625c-26.476563-11.777343-50.117188-13.726562-70.238282-5.847656-7.320312 2.886719-14.066406 7.046875-19.929687 12.296875 3.816406-13.636719 13.359375-24.941406 26.160156-30.984375 4-.097656 8.203125-.152344 12.800781-.152344 59.34375.023438 135.960938 31.054688 135.960938 64.023438zm-208-24c0-22.574219 4.726562-33.3125 30.609375-37.601562-9.460937 10.230468-14.683594 23.667968-14.609375 37.601562 0 38.734375 11.199219 67.9375 60.734375 87.847656-1.597656.046875-3.199219.152344-4.734375.152344-69.976562 0-72-78.992188-72-88zm432 168h-448v-64h448zm0 0"/><path d="m184 168c0 13.253906 10.746094 24 24 24s24-10.746094 24-24-10.746094-24-24-24-24 10.746094-24 24zm24-8c4.417969 0 8 3.582031 8 8s-3.582031 8-8 8-8-3.582031-8-8 3.582031-8 8-8zm0 0"/><path d="m168 80c0-17.671875-14.328125-32-32-32s-32 14.328125-32 32 14.328125 32 32 32 32-14.328125 32-32zm-48 0c0-8.835938 7.164062-16 16-16s16 7.164062 16 16-7.164062 16-16 16-16-7.164062-16-16zm0 0"/><path d="m280 56c0-13.253906-10.746094-24-24-24s-24 10.746094-24 24 10.746094 24 24 24 24-10.746094 24-24zm-32 0c0-4.417969 3.582031-8 8-8s8 3.582031 8 8-3.582031 8-8 8-8-3.582031-8-8zm0 0"/><path d="m400 56c0-17.671875-14.328125-32-32-32s-32 14.328125-32 32 14.328125 32 32 32 32-14.328125 32-32zm-48 0c0-8.835938 7.164062-16 16-16s16 7.164062 16 16-7.164062 16-16 16-16-7.164062-16-16zm0 0"/><path d="m120 160h16v16h-16zm0 0"/><path d="m200 88h16v16h-16zm0 0"/><path d="m288 80h16v16h-16zm0 0"/><path d="m312 0h16v16h-16zm0 0"/></svg>