<svg height="512pt" viewBox="-150 0 512 512.004" width="512pt" xmlns="http://www.w3.org/2000/svg"><path d="m150.339844 70.339844h-88.363282c-6.714843 0-12.15625-5.441406-12.15625-12.152344v-39.039062c0-6.714844 5.445313-12.15625 12.15625-12.15625h88.363282c6.710937 0 12.152344 5.445312 12.152344 12.15625v39.039062c0 6.710938-5.441407 12.152344-12.152344 12.152344zm0 0" fill="#e7e7e7"/><path d="m162.492188 19.144531v39.042969c0 6.710938-5.441407 12.15625-12.15625 12.15625h-24.644532c6.710938 0 12.148438-5.445312 12.148438-12.15625v-39.042969c0-6.710937-5.4375-12.148437-12.148438-12.148437h24.644532c6.714843 0 12.15625 5.433594 12.15625 12.148437zm0 0" fill="#cecece"/><path d="m185.332031 505.007812h-158.585937c-11.277344 0-20.269532-10.769531-19.730469-23.636718l8.292969-200.015625c.398437-9.5 2.835937-18.589844 6.953125-26.53125 4.125-7.953125 9.921875-14.765625 17.023437-19.730469 14.054688-9.820312 23.007813-26.886719 23.957032-45.6875l1.636718-32.476562 2.566406-51.03125 1.789063-35.554688h73.609375l1.789062 35.554688 2.566407 51.03125 1.640625 32.476562c.945312 18.800781 9.898437 35.867188 23.953125 45.6875 14.207031 9.929688 23.1875 27.25 23.976562 46.261719l8.292969 200.011719c.539062 12.871093-8.453125 23.640624-19.730469 23.640624zm0 0" fill="#ff5f00"/><path d="m185.332031 505.007812h-24.535156c11.277344 0 20.269531-10.769531 19.730469-23.636718l-8.292969-200.015625c-.789063-19.007813-9.769531-36.332031-23.976563-46.261719-14.054687-9.820312-23.003906-26.882812-23.953124-45.6875l-1.640626-32.476562-2.566406-51.03125-1.789062-35.554688h24.539062l1.785156 35.554688 2.570313 51.03125 1.636719 32.476562c.949218 18.804688 9.902344 35.867188 23.957031 45.6875 14.207031 9.929688 23.1875 27.253906 23.976563 46.261719l8.292968 200.015625c.535156 12.867187-8.457031 23.636718-19.734375 23.636718zm0 0" fill="#f15300"/><path d="m147.199219 156.929688h-82.320313l2.570313-51.03125h77.183593zm0 0" fill="#d5f3f7"/><path d="m147.199219 156.929688h-24.535157l-2.566406-51.03125h24.535156zm0 0" fill="#afeaf2"/><path d="m164.167969 287.675781h-20.195313c-3.152344 0-5.796875-2.300781-6.324218-5.410156-2.574219-15.128906-15.746094-26.652344-31.609376-26.652344-15.863281 0-29.035156 11.523438-31.605468 26.652344-.527344 3.109375-3.171875 5.410156-6.328125 5.410156h-20.191407c-2.191406 0-3.984374 1.738281-4.054687 3.929688l-5.738281 183.246093c-.074219 2.285157 1.761718 4.179688 4.050781 4.179688h127.734375c2.289062 0 4.125-1.894531 4.054688-4.179688l-5.742188-183.246093c-.066406-2.191407-1.863281-3.929688-4.050781-3.929688zm0 0" fill="#d5f3f7"/><path d="m173.964844 474.847656c.066406 2.285156-1.769532 4.183594-4.058594 4.183594h-13.167969l-5.503906-168.332031c-.070313-2.1875-1.855469-3.925781-4.054687-3.925781-8.269532 0-22.863282 3.015624-25.828126-7.726563-2.414062-8.746094-3.183593-15.9375-10.183593-22.605469-5.933594-5.644531-13.921875-8.839844-22.109375-8.839844-3.128906 0-6.136719.449219-8.992188 1.277344 5.824219-8.039062 15.285156-13.265625 25.972656-13.265625 15.863282 0 29.03125 11.519531 31.609376 26.652344.53125 3.109375 3.167968 5.40625 6.324218 5.40625h20.191406c2.195313 0 3.984376 1.75 4.054688 3.9375zm0 0" fill="#afeaf2"/><path d="m212.050781 481.078125-8.292969-200.011719c-.878906-21.195312-10.957031-40.523437-26.957031-51.707031-12.296875-8.589844-20.136719-23.65625-20.976562-40.304687l-5.625-111.722657h.140625c10.558594 0 19.148437-8.589843 19.148437-19.148437v-39.035156c-.003906-10.558594-8.589843-19.148438-19.148437-19.148438h-88.363282c-10.558593 0-19.148437 8.589844-19.148437 19.148438v39.039062c0 10.523438 8.539063 19.089844 19.054687 19.140625l-5.625 111.726563c-.839843 16.648437-8.683593 31.714843-20.980468 40.308593-7.886719 5.511719-14.535156 13.203125-19.222656 22.242188-4.621094 8.917969-7.296876 19.105469-7.734376 29.464843l-.5625 13.597657c-.15625 3.859375 2.839844 7.117187 6.699219 7.277343 3.851563.140626 7.117188-2.839843 7.277344-6.699218l.5625-13.59375c.351563-8.328125 2.484375-16.492188 6.175781-23.605469 3.652344-7.042969 8.777344-12.996094 14.816406-17.21875 15.8125-11.046875 25.882813-30.136719 26.9375-51.066406l1.300782-25.835938h69.027344l1.300781 25.835938c1.054687 20.929687 11.125 40.019531 26.933593 51.066406 12.445313 8.699219 20.292969 23.960937 20.996094 40.820313l8.292969 200.015624c.199219 4.839844-1.429687 9.433594-4.480469 12.613282-2.3125 2.410156-5.246094 3.742187-8.265625 3.742187h-158.585937c-3.015625 0-5.949219-1.328125-8.261719-3.742187-3.050781-3.179688-4.683594-7.773438-4.480469-12.613282l6.378906-153.867187c.160157-3.859375-2.835937-7.117187-6.695312-7.277344-3.890625-.148437-7.117188 2.839844-7.277344 6.699219l-6.378906 153.863281c-.363281 8.621094 2.683594 16.960938 8.355469 22.875 4.976562 5.1875 11.496093 8.046875 18.359375 8.046875h158.585937c6.863281 0 13.382813-2.855468 18.359375-8.042968 5.671875-5.921876 8.71875-14.261719 8.359375-22.882813zm-139.816406-331.140625 1.863281-37.042969h63.882813l1.863281 37.042969zm2.566406-51.03125 1.085938-21.566406h60.304687l1.085938 21.566406zm-12.824219-35.558594c-2.847656 0-5.160156-2.316406-5.160156-5.160156v-39.039062c0-2.847657 2.316406-5.160157 5.160156-5.160157h88.363282c2.84375 0 5.160156 2.316407 5.160156 5.160157v39.039062c0 2.84375-2.316406 5.160156-5.160156 5.160156zm0 0"/><path d="m141.503906 479.03125c0 3.863281 3.132813 6.992188 6.992188 6.992188h21.410156c2.972656 0 5.863281-1.222657 7.933594-3.359376 2.070312-2.132812 3.203125-5.0625 3.109375-8.035156l-5.738281-183.246094c-.191407-6-5.039063-10.699218-11.042969-10.699218h-19.699219c-3.359375-18.605469-19.457031-32.0625-38.429688-32.0625-18.96875 0-35.0625 13.457031-38.425781 32.0625h-19.699219c-6.003906 0-10.855468 4.699218-11.042968 10.703125l-5.738282 183.246093c-.09375 2.96875 1.039063 5.898438 3.109376 8.03125 2.066406 2.136719 4.960937 3.359376 7.933593 3.359376h72.523438c3.863281 0 6.992187-3.128907 6.992187-6.992188 0-3.859375-3.128906-6.992188-6.992187-6.992188h-69.492188l5.554688-177.367187h17.347656c6.554687 0 12.113281-4.726563 13.21875-11.234375 2.050781-12.070312 12.445313-20.828125 24.710937-20.828125 12.269532 0 22.664063 8.757813 24.714844 20.828125 1.105469 6.507812 6.667969 11.230469 13.222656 11.230469h17.34375l5.554688 177.371093h-18.375c-3.863281-.003906-6.996094 3.128907-6.996094 6.992188zm0 0"/></svg>