<svg height="512pt" viewBox="-3 0 512 512.00076" width="512pt" xmlns="http://www.w3.org/2000/svg"><path d="m151.578125 188.3125s-66.65625-32.871094-58.441406-123.585938c1.503906-16.601562 6.195312-32.765624 13.585937-47.703124l3.425782-6.914063c2.324218-4.707031 9.261718-3.890625 10.4375 1.222656 6.980468 30.359375 28.921874 93.046875 91.871093 100.136719l15.792969 2.242188zm0 0" fill="#bc7d53"/><path d="m171.65625 168.769531-20.082031 19.539063s-66.652344-32.871094-58.441407-123.582032c1.5-16.605468 6.191407-32.769531 13.585938-47.699218l3.433594-6.921875c.15625-.316407.328125-.601563.527344-.859375-1.15625 5.632812-2 11.355468-2.53125 17.105468-8.121094 89.796876 46.058593 131.445313 63.507812 142.417969zm0 0" fill="#af663e"/><path d="m125.316406 188.449219s-35.140625-40.46875-110.589844-24.65625c-5.339843 1.117187-8.746093 6.390625-7.449218 11.6875 5.535156 22.585937 26.792968 78.082031 102.78125 85.203125zm0 0" fill="#ffc1b8"/><path d="m114.214844 240.992188-4.160156 19.695312c-75.988282-7.117188-97.242188-62.621094-102.78125-85.203125-1.289063-5.300781 2.117187-10.570313 7.453124-11.691406 1.390626-.292969 2.757813-.5625 4.113282-.808594 7.601562 24.585937 30.273437 69.597656 95.375 78.007813zm0 0" fill="#ffb3a8"/><path d="m354.070312 188.3125s66.660157-32.871094 58.441407-123.585938c-1.503907-16.601562-6.191407-32.765624-13.585938-47.703124l-3.421875-6.914063c-2.328125-4.707031-9.261718-3.890625-10.4375 1.222656-6.980468 30.359375-28.921875 93.046875-91.875 100.136719l-15.792968 2.242188zm0 0" fill="#bc7d53"/><path d="m333.992188 168.769531 20.082031 19.539063s66.652343-32.871094 58.445312-123.582032c-1.503906-16.605468-6.195312-32.769531-13.589843-47.699218l-3.433594-6.921875c-.15625-.316407-.328125-.601563-.527344-.859375 1.15625 5.632812 2 11.355468 2.53125 17.105468 8.121094 89.796876-46.058594 131.445313-63.507812 142.417969zm0 0" fill="#af663e"/><path d="m380.332031 188.449219s35.140625-40.46875 110.589844-24.65625c5.339844 1.117187 8.75 6.390625 7.449219 11.6875-5.535156 22.585937-26.789063 78.082031-102.78125 85.203125zm0 0" fill="#ffc1b8"/><path d="m391.4375 240.992188 4.15625 19.695312c75.988281-7.117188 97.242188-62.621094 102.78125-85.203125 1.289062-5.300781-2.117188-10.570313-7.453125-11.691406-1.390625-.292969-2.757813-.5625-4.113281-.808594-7.601563 24.585937-30.269532 69.597656-95.371094 78.007813zm0 0" fill="#ffb3a8"/><path d="m257.546875 89.007812c-42.554687-1.027343-85.511719 13.753907-114.703125 43.5625-43.128906 44.035157-43.773438 107.363282-32.75 162.347657.867188 4.3125 1.972656 8.574219 3.25 12.78125 4.933594 16.292969 18.625 63.660156 18.625 87.414062.003906 31.476563 4.675781 64.09375 32.683594 86.328125 10.847656 8.613282 24.09375 14.3125 38.089844 17.457032 8.945312 2.007812 18.15625 2.976562 27.359374 3.253906 35.972657 1.074218 77.203126 3.449218 107.570313-17.960938 19.347656-13.640625 30.039063-34.351562 34.363281-55.707031 2.273438-11.238281 1.992188-22.074219 1.992188-33.367187 0-23.746094 13.679687-71.074219 18.621094-87.390626 1.441406-4.765624 2.628906-9.597656 3.574218-14.484374 12.570313-65.140626 6.601563-140.554688-58.949218-181.269532-23.679688-14.707031-51.617188-22.285156-79.726563-22.964844zm0 0" fill="#e7e7e7"/><path d="m396.21875 293.246094c-.941406 4.878906-2.132812 9.71875-3.566406 14.480468-4.945313 16.316407-18.625 63.652344-18.625 87.390626 0 11.296874.277344 22.132812-1.992188 33.367187-4.328125 21.355469-15.011718 42.070313-34.367187 55.707031-25.363281 17.875-58.292969 19.171875-89.414063 18.492188 24.472656-.714844 48.773438-4.585938 68.492188-18.492188 19.355468-13.636718 30.042968-34.351562 34.367187-55.707031 2.269531-11.234375 1.992188-22.070313 1.992188-33.367187 0-23.738282 13.679687-71.074219 18.613281-87.390626 1.445312-4.761718 2.640625-9.601562 3.578125-14.480468 12.574219-65.140625 6.605469-140.558594-58.941406-181.269532-21.921875-13.609374-47.484375-21.121093-73.460938-22.695312 4.875-.296875 9.765625-.394531 14.65625-.273438 28.109375.679688 56.046875 8.261719 79.726563 22.96875 65.546875 40.710938 71.515625 116.128907 58.941406 181.269532zm0 0" fill="#cecece"/><path d="m353.738281 364.453125c-13.199219-10.722656-29.023437-17.097656-44.746093-21.425781-37.523438-10.328125-74.871094-10.3125-112.332032 0-15.726562 4.328125-31.546875 10.703125-44.746094 21.425781-24.375 19.804687-36.355468 60.066406-24.304687 91.914063 14.101563 37.269531 47.09375 47.90625 80.613281 48.34375 29.875.386718 59.316406.390624 89.203125 0 33.519531-.4375 66.515625-11.074219 80.617188-48.34375 12.046875-31.847657.070312-72.109376-24.304688-91.914063zm0 0" fill="#ffc1b8"/><path d="m378.039062 456.371094c-14.105468 37.261718-47.09375 47.902344-80.609374 48.339844-18.097657.234374-36.03125.328124-53.988282.269531 11.707032-.023438 23.417969-.117188 35.207032-.269531 33.519531-.4375 66.519531-11.078126 80.625-48.339844 12.046874-31.851563.070312-72.109375-24.3125-91.921875-13.199219-10.722657-29.019532-17.097657-44.742188-21.421875-15.621094-4.296875-31.191406-6.8125-46.777344-7.515625 21.832032-1.019531 43.664063 1.492187 65.554688 7.515625 15.722656 4.324218 31.542968 10.699218 44.746094 21.421875 24.367187 19.8125 36.347656 60.070312 24.296874 91.921875zm0 0" fill="#ffb3a8"/><path d="m248.902344 189.050781c-13.257813 10.933594-33.308594 5.921875-49.546875 11.496094-13.800781 4.746094-23.75 16.785156-31.535157 29.117187-7.796874 12.339844-14.351562 25.730469-24.769531 35.949219-9.195312 9.015625-22.277343 12.070313-35.851562 12.730469-7.578125-50.78125-3.207031-106.109375 35.640625-145.769531 28.855468-29.453125 71.132812-44.238281 113.191406-43.59375-.203125.742187-.390625 1.46875-.566406 2.183593-4.027344 16.417969-3.710938 29.726563 1.304687 49.925782 4.136719 16.628906 5.34375 37.074218-7.867187 47.960937zm0 0" fill="#5a5c5e"/><path d="m503.09375 164.40625c-2.398438-3.816406-6.3125-6.535156-10.738281-7.460938-11.5-2.410156-22.804688-3.691406-33.648438-3.808593l-2.171875-.007813-.75.007813c-3.863281.035156-6.96875 3.195312-6.933594 7.058593.035157 3.84375 3.160157 6.933594 6.996094 6.933594h.0625l.660156-.003906 2.03125.007812c9.886719.105469 20.273438 1.285157 30.882813 3.507813 1.003906.210937 1.539063.855469 1.769531 1.21875.261719.417969.53125 1.097656.320313 1.960937-4.992188 20.367188-22.886719 66.59375-83.277344 78.019532.984375-21.640625-.828125-41.753906-5.46875-60.105469-.847656-3.347656-1.789063-6.621094-2.816406-9.828125 6.1875-3.734375 14.390625-7.667969 24.640625-10.523438 3.71875-1.035156 5.898437-4.894531 4.859375-8.613281-1.035157-3.722656-4.890625-5.902343-8.613281-4.867187-10.441407 2.910156-19.03125 6.796875-25.855469 10.679687-.710938-1.664062-1.460938-3.300781-2.226563-4.925781 14.816406-19.027344 31.019532-51.445312 26.664063-99.5625-1.570313-17.3125-6.375-34.191406-14.285157-50.171875l-3.421874-6.917969c-2.390626-4.828125-7.382813-7.542968-12.738282-6.9140622-5.347656.6289062-9.582031 4.4257812-10.789062 9.6757812-3.472656 15.101563-10.429688 37.136719-23.863282 56.351563-9.277343 13.273437-20.292968 23.191406-32.917968 29.707031-11.421875-4.96875-23.4375-8.589844-35.6875-10.871094-18.941406-3.53125-40.007813-4.53125-59.035156-1.078125-14.394532 2.617188-28.476563 6.691406-41.734376 12.382812-12.972656-6.507812-24.261718-16.578124-33.742187-30.140624-13.429687-19.214844-20.390625-41.25-23.863281-56.351563-1.207032-5.25-5.441406-9.046875-10.789063-9.6757812-5.347656-.6289058-10.347656 2.0859372-12.738281 6.9140622l-3.421875 6.917969c-7.910156 15.980469-12.714844 32.863281-14.285156 50.171875-4.328125 47.785156 11.628906 80.09375 26.359375 99.175781-.910156 1.539063-1.726563 3.199219-2.484375 4.914063-18.765625-10.558594-50.621094-20.910156-96.75-11.238282-4.421875.925782-8.335938 3.644532-10.738281 7.457032-2.410157 3.832031-3.148438 8.355468-2.070313 12.746094 2.695313 11.007812 9.730469 32.320312 26.515625 51.359374 17.902344 20.308594 41.957031 32.972657 71.59375 37.757813.28125 2.675781.585938 5.355469.945312 8.023437 1.59375 11.984376 3.601563 23.859376 7.109376 35.441407 3.808593 12.585937 16.144531 54.796875 18.070312 79.523437-9.90625 21.746094-11.890625 47.816406-3.652344 69.589844 10.882813 28.757812 33.210938 45.980469 66.363282 51.191406 3.816406.601563 7.398437-2.007812 8-5.828125.597656-3.816406-2.007813-7.394531-5.828126-7.996093-28.214843-4.433594-46.351562-18.273438-55.449218-42.320313-10.53125-27.832031-.585938-65.519531 22.171875-84.007813 10.644531-8.644531 24.445312-15.222656 42.191406-20.109374 36.035156-9.921876 72.582031-9.921876 108.617187 0 17.746094 4.882812 31.546876 11.464843 42.191407 20.109374 22.757812 18.488282 32.703125 56.175782 22.171875 84.007813-10.964844 28.980469-35.222656 43.316406-74.160156 43.824219-25.1875.328125-49.695313.378906-74.921876.15625-.019531 0-.039062 0-.0625 0-3.835937 0-6.960937 3.089844-6.996093 6.933594-.035157 3.863281 3.070312 7.023437 6.933593 7.058593 10.320313.089844 20.519532.136719 30.695313.136719 14.800781 0 29.546875-.097656 44.535156-.292969 44.722657-.585937 74.015625-18.371093 87.066407-52.863281 8.226562-21.734375 6.257812-47.753906-3.601563-69.476562.222656-.589844.378906-1.210938.441406-1.867188 2.289063-24.320312 13.292969-62.472656 17.917969-77.746094 1.496094-4.945312 2.757812-10.054687 3.75-15.1875 1.867188-9.691406 3.257812-19.140625 4.167969-28.339844 29.542969-4.808593 53.527343-17.457031 71.390625-37.71875 16.785156-19.039062 23.816406-40.351562 26.515625-51.359374 1.074219-4.386719.339843-8.914063-2.074219-12.742188zm-137.242188-90.269531c13.609376-19.472657 21.101563-41.339844 25.117188-57.417969l1.6875 3.40625c7.140625 14.429688 11.476562 29.648438 12.886719 45.230469 2.976562 32.851562-3.789063 61.3125-20.101563 84.730469-11.003906-17.753907-25.863281-32.496094-44.476562-44.054688-1.496094-.929688-3.015625-1.824219-4.542969-2.695312 11.066406-7.265626 20.902344-17.003907 29.429687-29.199219zm-265.746093-8.78125c1.410156-15.582031 5.75-30.800781 12.890625-45.226563l1.6875-3.410156c4.015625 16.078125 11.503906 37.945312 25.113281 57.417969 8.679687 12.414062 18.714844 22.28125 30.023437 29.582031-19.285156 10.753906-36.140624 25.492188-48.691406 44.816406-.277344.429688-.554687.859375-.828125 1.289063-.023437.039062-.046875.082031-.070312.125-12.859375-18.601563-23.613281-46.097657-20.125-84.59375zm-86.03125 108.460937c-.210938-.859375.058593-1.539062.320312-1.957031.230469-.363281.765625-1.007813 1.769531-1.21875 11.8125-2.476563 22.539063-3.484375 32.179688-3.484375 20.335938 0 35.828125 4.480469 46.394531 9.101562 4.019531 1.757813 7.542969 3.625 10.597657 5.453126-.457032 1.578124-.902344 3.128906-1.332032 4.605468-2.710937 9.355469-4.539062 18.957032-5.632812 28.632813-1.179688 10.480469-1.5 21.046875-1.160156 31.585937.058593 1.777344.152343 3.550782.246093 5.324219-60.46875-11.390625-78.386719-57.660156-83.382812-78.042969zm99.144531 96.980469c-3.078125-24.230469-3.261719-49.207031 2.335938-73.101563 6.457031-27.550781 22.101562-52.242187 44.09375-70.015624 11.136718-9 23.710937-16.171876 37.042968-21.371094 16.824219-6.558594 31.960938-9.492188 49.84375-10.210938.242188-.007812.480469-.015625.71875-.023437-2.730468 14.804687-1.875 28.164062 2.726563 46.703125 6.195312 24.914062.414062 35.980468-5.53125 40.878906-6.273438 5.171875-15.417969 5.875-25.101563 6.617188-7.355468.566406-14.957031 1.148437-22.269531 3.660156-17.140625 5.894531-28.285156 21.082031-35.171875 31.992187-1.960938 3.105469-3.855469 6.285157-5.683594 9.363281-5.582031 9.382813-10.855468 18.25-18.070312 25.328126-5.628906 5.523437-13.820313 8.886718-24.929688 10.214843 0-.011719-.003906-.023437-.003906-.035156zm276.132812 21.117187c-.898437 4.660157-2.042968 9.300782-3.398437 13.785157-3.867187 12.757812-12.070313 41.121093-16.289063 65.027343-3.445312-4.328124-7.292968-8.273437-11.515624-11.703124-12.179688-9.894532-27.648438-17.332032-47.300782-22.742188-38.5-10.597656-77.542968-10.597656-116.046875 0-19.652343 5.410156-35.125 12.847656-47.300781 22.742188-4.113281 3.339843-7.859375 7.167968-11.230469 11.355468-4.214843-23.707031-12.28125-51.652344-16.230469-64.707031-1.296874-4.28125-2.308593-8.25-3.085937-12.128906-.597656-2.996094-1.136719-5.949219-1.644531-8.882813 14.078125-1.753906 24.8125-6.375 32.644531-14.054687 8.511719-8.347657 14.503906-18.421875 20.296875-28.164063 1.78125-2.996094 3.625-6.097656 5.488281-9.042968 9.15625-14.503907 18.019531-22.835938 27.886719-26.230469 5.617188-1.929688 12.019531-2.421875 18.792969-2.941407 11.425781-.878906 23.242187-1.785156 32.933593-9.777343 12.972657-10.691407 16.503907-29.726563 10.210938-55.046875-4.382812-17.636719-4.988281-29.398438-2.058594-43.234375 26.324219 1.289062 51.167969 8.765625 72.078125 21.75 28.453125 17.671875 47.1875 43.660156 55.679688 77.246093 7.0625 27.921876 7.09375 60.472657.089843 96.75zm0 0"/><g fill="#111"><path d="m203.554688 287.566406c0 6.09375-4.941407 11.035156-11.035157 11.035156-6.097656 0-11.039062-4.941406-11.039062-11.035156 0-6.097656 4.941406-11.039062 11.039062-11.039062 6.09375 0 11.035157 4.941406 11.035157 11.039062zm0 0"/><path d="m324.167969 287.566406c0 6.09375-4.941407 11.035156-11.039063 11.035156-6.09375 0-11.035156-4.941406-11.035156-11.035156 0-6.097656 4.941406-11.039062 11.035156-11.039062 6.097656 0 11.039063 4.941406 11.039063 11.039062zm0 0"/><path d="m231.4375 425.472656c0-8.574218-4.066406-15.527344-9.085938-15.527344-5.019531 0-9.085937 6.953126-9.085937 15.527344 0 8.570313 4.066406 15.523438 9.085937 15.523438 5.019532 0 9.085938-6.953125 9.085938-15.523438zm0 0"/><path d="m292.382812 425.472656c0-8.574218-4.066406-15.527344-9.085937-15.527344-5.015625 0-9.085937 6.953126-9.085937 15.527344 0 8.570313 4.070312 15.523438 9.085937 15.523438 5.019531 0 9.085937-6.953125 9.085937-15.523438zm0 0"/></g></svg>