<svg height="512pt" viewBox="0 0 512 511" width="512pt" xmlns="http://www.w3.org/2000/svg"><path d="m210.871094 276.449219s202.332031-172.972657 282.152344-266.550781c4.441406-5.203126 12.941406-1.316407 11.902343 5.445312-3.554687 23.179688-24.964843 70.9375-117.316406 156.078125 0 0-123.714844 107.136719-126.585937 161.941406zm0 0" fill="#bfbfbf"/><path d="m261.023438 333.351562-12.871094-14.605468c2.878906-54.792969 129.449218-158.675782 129.449218-158.675782 86.132813-79.402343 110.5625-126.296874 116.335938-151.054687 4.585938-3.800781 11.953125.003906 10.980469 6.324219-3.550781 23.183594-24.960938 70.941406-117.3125 156.078125 0 0-123.707031 107.140625-126.582031 161.933593zm0 0" fill="#acacac"/><path d="m211.042969 276.632812-44.824219 39.5 32.386719 36.757813 11.972656-6.488281c9.199219-4.988282 20.414063-4.433594 29.078125 1.433594 4.488281 3.039062 10.460938 2.660156 14.53125-.925782l5.410156-4.765625c2.851563-2.511719 3.125-6.855469.613282-9.707031zm0 0" fill="#bc7d53"/><path d="m260.214844 332.441406c2.507812 2.851563 2.234375 7.195313-.613282 9.707032l-5.410156 4.761718c-4.0625 3.585938-10.050781 3.964844-14.535156.933594-8.664062-5.875-19.875-6.429688-29.082031-1.445312l-11.96875 6.492187-10.574219-12c.039062.046875 7.582031-6.203125 8.207031-6.710937 3.636719-2.976563 7.679688-5.007813 12.277344-6.113282 7.011719-1.691406 15.078125-1.414062 21.800781 1.300782 5.964844 2.40625 14.011719 4.675781 20.105469 1.261718.703125-.394531 5.136719-3.425781 4.335937-4.375zm0 0" fill="#af663e"/><path d="m166.21875 316.132812-147.902344 130.332032c-13.871094 12.226562-15.207031 33.378906-2.984375 47.25 14.175781 16.085937 39.601563 14.886718 52.203125-2.457032l4.28125-5.894531c12.828125-17.664062 28.375-33.183593 46.054688-45.988281l11.753906-8.507812c18.050781-13.070313 33.871094-28.972657 46.851562-47.085938l22.128907-30.890625zm0 0" fill="#bc7d53"/><path d="m62.535156 496.753906c-13.484375 11.882813-34.71875 11.128906-47.203125-3.039062-1.816406-2.0625-3.332031-4.28125-4.539062-6.628906 12.53125 8.753906 29.671875 7.816406 41.1875-2.328126 1.816406-1.601562 3.480469-3.433593 4.984375-5.492187l4.28125-5.898437c12.828125-17.664063 28.375-33.179688 46.050781-45.988282l11.753906-8.503906c18.050781-13.066406 33.878907-28.972656 46.851563-47.097656l22.128906-30.882813 10.574219 12-22.128907 30.882813c-12.972656 18.121094-28.808593 34.019531-46.851562 47.097656l-11.753906 8.503906c-17.683594 12.796875-33.222656 28.324219-46.050782 45.988282l-4.289062 5.886718c-1.496094 2.066406-3.179688 3.898438-4.996094 5.5zm0 0" fill="#af663e"/><path d="m503.941406 1.777344c-5.671875-2.59375-12.195312-1.15625-16.234375 3.582031-18.902343 22.15625-46.457031 50.792969-81.910156 85.109375-2.773437 2.6875-2.84375 7.109375-.160156 9.886719 2.683593 2.773437 7.109375 2.84375 9.886719.160156 35.476562-34.34375 63.175781-63.113281 82.386718-85.570313-3.378906 20.289063-22.984375 66.453126-114.964844 151.265626-1.863281 1.621093-32.304687 28.222656-62.671874 60.867187-34.707032 37.308594-55.925782 67.847656-63.324219 91.082031l-36.148438-41.027344c20.027344-17.261718 92.578125-80.1875 161.761719-145.203124l9.8125-9.261719c2.808594-2.648438 2.9375-7.074219.289062-9.878907-2.648437-2.8125-7.074218-2.9375-9.882812-.289062l-9.804688 9.246094c-80.589843 75.738281-359.28125 319.476562-359.28125 319.476562-16.742187 14.75-18.359374 40.371094-3.609374 57.113282 7.738281 8.78125 18.703124 13.714843 30.328124 13.714843.644532 0 1.289063-.015625 1.941407-.046875 12.335937-.582031 23.574219-6.644531 30.835937-16.640625l4.28125-5.890625c12.414063-17.097656 27.390625-32.046875 44.5-44.4375l11.753906-8.507812c4.726563-3.421875 9.378907-7.089844 13.816407-10.898438.039062-.035156.078125-.066406.113281-.101562l6.542969-5.855469c.042969-.042969.089843-.082031.132812-.125l3.378907-3.226563c2.777343-2.679687 2.855468-7.105468.175781-9.882812-2.683594-2.777344-7.109375-2.855469-9.886719-.175781l-3.195312 3.054687-6.417969 5.75c-4.136719 3.542969-8.460938 6.953125-12.859375 10.136719l-11.753906 8.511719c-18.308594 13.253906-34.328126 29.25-47.613282 47.539062l-4.28125 5.894532c-4.75 6.542968-12.109375 10.511718-20.183594 10.890624-8.070312.378907-15.773437-2.882812-21.117187-8.945312-9.65625-10.957031-8.597656-27.726562 2.359375-37.382812l142.65625-125.707032 24.09375 27.335938-18.894531 26.371094c-.628907.875-1.261719 1.746093-1.902344 2.613281-2.300781 3.101562-1.652344 7.480469 1.449219 9.777343 3.101562 2.300782 7.480468 1.652344 9.777344-1.449218.6875-.925782 1.367187-1.863282 2.042968-2.800782l21.191406-29.582031 10.554688-5.722656c6.9375-3.757813 15.296875-3.34375 21.828125 1.078125 7.125 4.824219 16.617187 4.222656 23.074219-1.46875l5.410156-4.769531c4.367188-3.847657 5.722656-9.851563 3.894531-15.03125 1.929688-20.824219 23.421875-53.84375 62.316407-95.667969 30.675781-32.988281 61.449218-59.71875 61.753906-59.984375.054687-.046875.109375-.09375.164062-.144531 91.371094-84.238282 115.410156-133.589844 119.488282-160.15625.945312-6.152344-2.230469-12.03125-7.894532-14.625zm-260.363281 340.269531c-10.871094-7.363281-24.792969-8.046875-36.332031-1.792969l-7.074219 3.835938-24.085937-27.332032 34.332031-30.253906 44.472656 50.46875-5.324219 4.691406c-1.675781 1.480469-4.140625 1.636719-5.988281.382813zm0 0"/><g fill="#111"><path d="m131.433594 396.992188c0 5.792968-4.695313 10.488281-10.488282 10.488281-5.792968 0-10.488281-4.695313-10.488281-10.488281 0-5.792969 4.695313-10.488282 10.488281-10.488282 5.792969 0 10.488282 4.695313 10.488282 10.488282zm0 0"/><path d="m65.054688 455.488281c0 5.792969-4.699219 10.488281-10.492188 10.488281s-10.488281-4.695312-10.488281-10.488281c0-5.796875 4.695312-10.492187 10.488281-10.492187s10.492188 4.695312 10.492188 10.492187zm0 0"/></g></svg>