<svg height="480pt" viewBox="-44 0 480 480" width="480pt" xmlns="http://www.w3.org/2000/svg"><path d="m8 8h376v464h-376zm0 0" fill="#f9ddac"/><g fill="#cfdfe8"><path d="m344 128c-28.25 26.1875-65.484375 40.507812-104 40-66.273438 0-152-17.910156-152-40s85.726562-40 152-40c38.515625-.507812 75.75 13.8125 104 40zm0 0"/><path d="m48 240c28.25 26.1875 65.484375 40.507812 104 40 66.273438 0 152-17.910156 152-40s-85.726562-40-152-40c-38.515625-.507812-75.75 13.8125-104 40zm0 0"/><path d="m344 352c-28.25 26.1875-65.484375 40.507812-104 40-66.273438 0-152-17.910156-152-40s85.726562-40 152-40c38.515625-.507812 75.75 13.8125 104 40zm0 0"/></g><path d="m40 192v-32c0-17.671875 14.328125-32 32-32h16v32c0 17.671875-14.328125 32-32 32zm0 0" fill="#aabece"/><path d="m88 96v32h-16c-17.671875 0-32-14.328125-32-32v-32h16c17.671875 0 32 14.328125 32 32zm0 0" fill="#aabece"/><path d="m245.191406 172c-17.589844-26.671875-17.589844-61.261719 0-87.9375l13.359375 8.800781c-14.070312 21.324219-14.070312 48.980469 0 70.304688zm0 0" fill="#426d78"/><path d="m216 136h-16c0-43.679688 18.328125-54.113281 20.425781-55.160156l7.148438 14.320312-3.574219-7.160156 3.863281 7c-.109375.070312-11.863281 7.671875-11.863281 41zm0 0" fill="#aabece"/><path d="m181.601562 167.703125c-9.21875-14.175781-13.957031-30.796875-13.601562-47.703125h16c-.363281 13.6875 3.40625 27.167969 10.816406 38.679688zm0 0" fill="#aabece"/><path d="m152 128h-16c-1.035156-15.84375 6.839844-30.941406 20.425781-39.160156l7.148438 14.320312-3.574219-7.160156 3.679688 7.105469c-8.117188 5.566406-12.585938 15.09375-11.679688 24.894531zm0 0" fill="#aabece"/><path d="m272 120h16v16h-16zm0 0" fill="#426d78"/><path d="m304 272v-32h16c17.671875 0 32 14.328125 32 32v32h-16c-17.671875 0-32-14.328125-32-32zm0 0" fill="#aabece"/><path d="m352 176v32c0 17.671875-14.328125 32-32 32h-16v-32c0-17.671875 14.328125-32 32-32zm0 0" fill="#aabece"/><path d="m146.808594 284-13.359375-8.800781c14.070312-21.320313 14.070312-48.980469 0-70.304688l13.359375-8.796875c17.589844 26.671875 17.589844 61.261719 0 87.933594zm0 0" fill="#426d78"/><path d="m192 248h-16c0-33.328125-11.753906-40.929688-11.863281-41l7.4375-14.160156c2.097656 1.046875 20.425781 11.480468 20.425781 55.160156zm0 0" fill="#aabece"/><path d="m208.894531 281.800781-12.796875-9.601562c8.167969-11.777344 12.34375-25.871094 11.902344-40.199219h16c.496094 17.796875-4.804688 35.277344-15.105469 49.800781zm0 0" fill="#aabece"/><path d="m256 240h-16c.90625-9.800781-3.5625-19.328125-11.679688-24.894531l7.253907-14.265625c13.585937 8.21875 21.460937 23.316406 20.425781 39.160156zm0 0" fill="#aabece"/><path d="m104 232h16v16h-16zm0 0" fill="#426d78"/><path d="m40 416v-32c0-17.671875 14.328125-32 32-32h16v32c0 17.671875-14.328125 32-32 32zm0 0" fill="#aabece"/><path d="m88 320v32h-16c-17.671875 0-32-14.328125-32-32v-32h16c17.671875 0 32 14.328125 32 32zm0 0" fill="#aabece"/><path d="m245.191406 396c-17.589844-26.671875-17.589844-61.261719 0-87.9375l13.359375 8.800781c-14.070312 21.324219-14.070312 48.980469 0 70.304688zm0 0" fill="#426d78"/><path d="m216 360h-16c0-43.679688 18.328125-54.113281 20.425781-55.199219l7.148438 14.320313-3.574219-7.121094 3.863281 7c-.109375.070312-11.863281 7.671875-11.863281 41zm0 0" fill="#aabece"/><path d="m183.105469 393.800781c-10.300781-14.523437-15.601563-32.003906-15.105469-49.800781h16c-.441406 14.328125 3.726562 28.417969 11.894531 40.199219zm0 0" fill="#aabece"/><path d="m152 352h-16c-1.046875-15.855469 6.828125-30.972656 20.425781-39.199219l7.148438 14.320313-3.574219-7.121094 3.679688 7.105469c-8.117188 5.566406-12.585938 15.09375-11.679688 24.894531zm0 0" fill="#aabece"/><path d="m272 344h16v16h-16zm0 0" fill="#426d78"/><path d="m360 96h-16v-48h-24v-16h40zm0 0" fill="#d3843d"/><path d="m360 448h-32v-16h16v-24h16zm0 0" fill="#d3843d"/><path d="m288 32h16v16h-16zm0 0" fill="#d3843d"/><path d="m120 56h16v16h-16zm0 0" fill="#e97424"/><path d="m304 408h16v16h-16zm0 0" fill="#e97424"/><path d="m40 200h16c22.082031-.027344 39.972656-17.917969 40-40v-11.199219c31.65625 18.800781 102.847656 27.199219 144 27.199219 40.734375.605469 80.113281-14.636719 109.824219-42.511719 2.90625-3.082031 2.90625-7.894531 0-10.976562-29.710938-27.875-69.089844-43.117188-109.824219-42.511719-41.152344 0-112.34375 8.414062-144 27.199219v-11.199219c-.027344-22.082031-17.917969-39.972656-40-40h-16c-4.417969 0-8 3.582031-8 8v32c.035156 12.640625 6.0625 24.511719 16.246094 32-10.183594 7.488281-16.210938 19.359375-16.246094 32v32c0 4.417969 3.582031 8 8 8zm216.289062-40.894531c-11.050781-19.265625-11.050781-42.945313 0-62.210938 27.679688 2.953125 53.945313 13.746094 75.710938 31.105469-21.765625 17.359375-48.03125 28.152344-75.710938 31.105469zm-116.351562-51.273438c-2.6875 6.378907-4.027344 13.246094-3.9375 20.167969h16c-.90625-9.800781 3.5625-19.328125 11.679688-24.894531l-.152344-.289063c14.367187-2.558594 28.855468-4.390625 43.410156-5.496094-5.042969 12.25-7.410156 25.4375-6.9375 38.679688h16c0-26.351562 7.328125-36.59375 10.464844-39.769531 4.074218-.152344 8.1875-.230469 12.34375-.230469-9.078125 20.351562-9.078125 43.601562 0 63.953125-14.949219-.054687-29.882813-.878906-44.746094-2.464844-6.890625-11.269531-10.382812-24.285156-10.0625-37.488281h-16c-.105469 12.019531 2.207031 23.941406 6.800781 35.046875-46.105469-6.976563-78.800781-19.671875-78.800781-27.046875 0-5.328125 17.078125-13.441406 43.9375-20.167969zm-91.9375-11.832031v-24h8c13.253906 0 24 10.746094 24 24v24h-8c-13.253906 0-24-10.746094-24-24zm0 64c0-13.253906 10.746094-24 24-24h8v24c0 13.253906-10.746094 24-24 24h-8zm0 0"/><path d="m272 120h16v16h-16zm0 0"/><path d="m352 168h-16c-22.082031.027344-39.972656 17.917969-40 40v11.199219c-31.65625-18.785157-102.847656-27.199219-144-27.199219-40.734375-.605469-80.113281 14.636719-109.824219 42.511719-2.90625 3.082031-2.90625 7.894531 0 10.976562 29.710938 27.875 69.089844 43.117188 109.824219 42.511719 41.152344 0 112.34375-8.414062 144-27.199219v11.199219c.027344 22.082031 17.917969 39.972656 40 40h16c4.417969 0 8-3.582031 8-8v-32c-.035156-12.640625-6.0625-24.511719-16.246094-32 10.183594-7.488281 16.210938-19.359375 16.246094-32v-32c0-4.417969-3.582031-8-8-8zm-216.289062 40.886719c11.050781 19.269531 11.050781 42.957031 0 62.226562-27.679688-2.960937-53.945313-13.753906-75.710938-31.113281 21.765625-17.359375 48.03125-28.152344 75.710938-31.113281zm81.480468 58.160156c4.621094-11.101563 6.933594-23.023437 6.808594-35.046875h-16c.308594 13.210938-3.179688 26.230469-10.054688 37.511719-14.867187 1.597656-29.804687 2.425781-44.753906 2.488281 9.078125-20.351562 9.078125-43.601562 0-63.953125 4.148438 0 8.265625.070313 12.34375.210937 3.136719 3.148438 10.464844 13.390626 10.464844 39.742188h16c.472656-13.242188-1.894531-26.429688-6.9375-38.679688 14.550781 1.101563 29.035156 2.9375 43.402344 5.496094l-.144532.289063c8.117188 5.566406 12.585938 15.09375 11.679688 24.894531h16c.089844-6.921875-1.25-13.789062-3.9375-20.167969 26.859375 6.726563 43.9375 14.839844 43.9375 20.167969 0 7.375-32.695312 20.078125-78.808594 27.046875zm126.808594 4.953125v24h-8c-13.253906 0-24-10.746094-24-24v-24h8c13.253906 0 24 10.746094 24 24zm0-64c0 13.253906-10.746094 24-24 24h-8v-24c0-13.253906 10.746094-24 24-24h8zm0 0"/><path d="m104 232h16v16h-16zm0 0"/><path d="m40 424h16c22.082031-.027344 39.972656-17.917969 40-40v-11.199219c31.65625 18.800781 102.847656 27.199219 144 27.199219 40.734375.605469 80.113281-14.636719 109.824219-42.511719 2.90625-3.082031 2.90625-7.894531 0-10.976562-29.710938-27.875-69.089844-43.117188-109.824219-42.511719-41.152344 0-112.34375 8.414062-144 27.199219v-11.199219c-.027344-22.082031-17.917969-39.972656-40-40h-16c-4.417969 0-8 3.582031-8 8v32c.035156 12.640625 6.0625 24.511719 16.246094 32-10.183594 7.488281-16.210938 19.359375-16.246094 32v32c0 4.417969 3.582031 8 8 8zm216.289062-40.894531c-11.050781-19.265625-11.050781-42.945313 0-62.210938 27.679688 2.953125 53.945313 13.746094 75.710938 31.105469-21.765625 17.359375-48.03125 28.152344-75.710938 31.105469zm-116.351562-51.273438c-2.6875 6.378907-4.027344 13.246094-3.9375 20.167969h16c-.90625-9.800781 3.5625-19.328125 11.679688-24.894531l-.152344-.289063c14.367187-2.558594 28.855468-4.390625 43.410156-5.496094-5.042969 12.25-7.410156 25.4375-6.9375 38.679688h16c0-26.351562 7.328125-36.59375 10.464844-39.769531 4.074218-.152344 8.1875-.230469 12.34375-.230469-9.078125 20.351562-9.078125 43.601562 0 63.953125-14.949219-.054687-29.886719-.878906-44.753906-2.464844-6.871094-11.277343-10.359376-24.289062-10.054688-37.488281h-16c-.125 12.023438 2.1875 23.945312 6.808594 35.046875-46.113282-6.96875-78.808594-19.671875-78.808594-27.046875 0-5.328125 17.078125-13.441406 43.9375-20.167969zm-91.9375-11.832031v-24h8c13.253906 0 24 10.746094 24 24v24h-8c-13.253906 0-24-10.746094-24-24zm0 64c0-13.253906 10.746094-24 24-24h8v24c0 13.253906-10.746094 24-24 24h-8zm0 0"/><path d="m272 344h16v16h-16zm0 0"/><path d="m0 0v480h392v-480zm376 464h-360v-448h360zm0 0"/><path d="m344 96h16v-64h-40v16h24zm0 0"/><path d="m344 432h-16v16h32v-40h-16zm0 0"/><path d="m288 32h16v16h-16zm0 0"/><path d="m120 56h16v16h-16zm0 0"/><path d="m304 408h16v16h-16zm0 0"/></svg>