<svg height="511pt" viewBox="-9 0 511 511.99976" width="511pt" xmlns="http://www.w3.org/2000/svg"><path d="m408.640625 402.425781c7.453125-5.867187 9.34375-16.367187 4.441406-24.488281-13.535156-22.441406-8.566406-33.222656-30.308593-60.832031-25.6875-32.617188-37.28125-23.488281-62.96875-56.105469s-14.089844-41.75-39.773438-74.367188c-25.6875-32.621093-37.285156-23.488281-62.972656-56.109374-25.6875-32.617188-14.089844-41.75-39.777344-74.371094-21.742188-27.609375-33.390625-25.308594-52.03125-43.734375-6.746094-6.664063-17.394531-7.292969-24.847656-1.421875l-85.757813 67.53125c-9.246093 7.28125-9.570312 21.15625-.722656 28.914062 16.257813 14.261719 27.722656 14.308594 47.753906 39.746094 25.6875 32.621094 14.09375 41.753906 39.777344 74.375 25.6875 32.617188 37.285156 23.484375 62.972656 56.105469 25.683594 32.617187 14.089844 41.75 39.773438 74.367187 25.6875 32.621094 37.285156 23.488282 62.96875 56.105469 20.03125 25.4375 17.390625 36.589844 27.4375 55.738281 5.46875 10.421875 19.03125 13.359375 28.277343 6.078125zm0 0" fill="#d33737"/><path d="m14.640625 78.523438 65.480469-51.554688-65.664063 51.707031c.0625-.054687.125-.105469.183594-.152343zm0 0" fill="#99170a"/><path d="m125.246094 12.421875c18.644531 18.421875 30.292968 16.117187 52.039062 43.726563 25.679688 32.625 14.085938 41.761718 39.777344 74.382812 25.679688 32.613281 37.28125 23.484375 62.972656 56.097656 25.679688 32.621094 14.085938 41.75 39.765625 74.371094 25.691407 32.625 37.285157 23.484375 62.972657 56.109375 21.746093 27.609375 16.773437 38.386719 30.308593 60.832031 4.898438 8.121094 3.011719 18.617188-4.4375 24.480469l-20.285156 15.976563c7.449219-5.867188 9.34375-16.371094 4.445313-24.492188-13.542969-22.4375-8.570313-33.222656-30.316407-60.824219-25.679687-32.621093-37.28125-23.492187-62.960937-56.105469-25.691406-32.625-14.097656-41.75-39.78125-74.371093-25.6875-32.625-37.28125-23.488281-62.96875-56.109375-25.691406-32.621094-14.089844-41.75-39.777344-74.371094-21.746094-27.613281-33.394531-25.308594-52.03125-43.738281-6.746094-6.664063-17.398438-7.28125-24.847656-1.417969l20.285156-15.972656c7.449219-5.867188 18.09375-5.238282 24.839844 1.425781zm0 0" fill="#bc2222"/><path d="m75.773438 30.390625c25.6875 32.617187 37.285156 23.488281 62.972656 56.109375s14.089844 41.75 39.777344 74.371094c25.6875 32.617187 37.285156 23.488281 62.972656 56.105468 25.683594 32.617188 14.089844 41.75 39.773437 74.371094 25.6875 32.617188 37.28125 23.484375 62.96875 56.105469 25.6875 32.617187 14.089844 41.75 39.777344 74.367187l-38.535156 30.34375c-25.6875-32.617187-14.089844-41.75-39.777344-74.367187-25.683594-32.617187-37.28125-23.488281-62.96875-56.105469-25.6875-32.617187-14.089844-41.75-39.773437-74.367187-25.6875-32.621094-37.285157-23.488281-62.972657-56.105469-25.6875-32.621094-14.089843-41.753906-39.777343-74.375s-37.285157-23.488281-62.972657-56.109375zm0 0" fill="#ffc1b8"/><path d="m75.773438 30.390625c25.691406 32.613281 37.28125 23.488281 62.96875 56.109375 25.691406 32.621094 14.097656 41.75 39.78125 74.371094 25.6875 32.625 37.289062 23.488281 62.96875 56.109375 25.691406 32.613281 14.089843 41.746093 39.777343 74.363281 25.691407 32.621094 37.28125 23.492188 62.972657 56.105469 25.679687 32.621093 14.089843 41.75 39.769531 74.371093l-15.308594 12.054688c-25.679687-32.625-14.085937-41.75-39.765625-74.371094-25.691406-32.613281-37.28125-23.484375-62.972656-56.109375-25.691406-32.613281-14.089844-41.75-39.777344-74.363281-25.679688-32.621094-37.28125-23.484375-62.972656-56.105469-25.679688-32.621093-14.089844-41.75-39.777344-74.375-25.6875-32.621093-37.28125-23.492187-62.972656-56.105469zm0 0" fill="#ffb3a8"/><path d="m127.933594 499.527344c6.707031 6.707031 17.355468 7.339844 24.84375 1.519531 20.683594-16.09375 31.976562-12.433594 56.828125-37.28125 29.355469-29.359375 18.917969-39.792969 48.277343-69.152344 29.355469-29.359375 39.792969-18.917969 69.152344-48.277343 29.355469-29.359376 18.917969-39.796876 48.277344-69.152344 29.359375-29.359375 39.796875-18.921875 69.15625-48.285156 24.851562-24.847657 21.191406-36.144532 37.285156-56.832032 5.824219-7.484375 5.1875-18.132812-1.519531-24.839844l-77.183594-77.183593c-8.320312-8.320313-22.136719-7.007813-28.800781 2.695312-12.238281 17.828125-10.929688 29.21875-33.828125 52.113281-29.359375 29.359376-39.796875 18.921876-69.15625 48.28125-29.359375 29.359376-18.921875 39.796876-48.277344 69.15625-29.359375 29.355469-39.796875 18.917969-69.152343 48.277344-29.359376 29.355469-18.921876 39.792969-48.28125 69.152344-22.894532 22.894531-34.28125 21.585938-52.109376 33.824219-9.703124 6.660156-11.015624 20.476562-2.695312 28.796875zm0 0" fill="#d33737"/><path d="m403.054688 70.042969 58.921874 58.929687-59.097656-59.097656c.066406.054688.121094.109375.175782.167969zm0 0" fill="#99170a"/><path d="m481.75 172.066406c-16.089844 20.691406-12.425781 31.988282-37.277344 56.839844-29.359375 29.351562-39.804687 18.917969-69.164062 48.277344-29.351563 29.355468-18.917969 39.796875-48.269532 69.15625-29.363281 29.351562-39.796874 18.917968-69.15625 48.273437-29.363281 29.359375-18.917968 39.792969-48.28125 69.152344-24.851562 24.855469-36.140624 21.191406-56.832031 37.28125-7.484375 5.820313-18.128906 5.1875-24.832031-1.515625l-18.257812-18.257812c6.707031 6.703124 17.359374 7.347656 24.84375 1.523437 20.683593-16.097656 31.976562-12.433594 56.820312-37.285156 29.363281-29.351563 18.929688-39.796875 48.28125-69.148438 29.359375-29.359375 39.792969-18.929687 69.15625-48.28125 29.359375-29.359375 18.917969-39.792969 48.277344-69.152343 29.363281-29.363282 39.796875-18.921876 69.15625-48.28125 24.851562-24.851563 21.1875-36.148438 37.289062-56.832032 5.820313-7.484375 5.179688-18.136718-1.527344-24.839844l18.257813 18.257813c6.707031 6.703125 7.339844 17.347656 1.515625 24.832031zm0 0" fill="#bc2222"/><path d="m458.066406 125.0625c-29.359375 29.359375-18.921875 39.796875-48.28125 69.15625s-39.796875 18.921875-69.15625 48.28125-18.917968 39.796875-48.277344 69.15625c-29.359374 29.355469-39.796874 18.917969-69.152343 48.277344-29.359375 29.355468-18.921875 39.792968-48.277344 69.152344-29.359375 29.355468-39.796875 18.917968-69.152344 48.277343l-34.683593-34.683593c29.359374-29.359376 39.796874-18.921876 69.152343-48.277344 29.359375-29.359375 18.921875-39.792969 48.277344-69.152344 29.359375-29.359375 39.796875-18.917969 69.152344-48.277344 29.359375-29.359375 18.921875-39.796875 48.28125-69.152344 29.359375-29.359374 39.796875-18.921874 69.15625-48.28125 29.359375-29.363281 18.921875-39.796874 48.28125-69.160156zm0 0" fill="#ffc1b8"/><path d="m458.066406 125.0625c-29.351562 29.359375-18.917968 39.792969-48.28125 69.15625-29.359375 29.359375-39.792968 18.925781-69.15625 48.277344-29.359375 29.363281-18.917968 39.804687-48.28125 69.15625-29.351562 29.359375-39.792968 18.917968-69.144531 48.28125-29.363281 29.359375-18.929687 39.792968-48.28125 69.15625-29.359375 29.351562-39.792969 18.917968-69.152344 48.269531l-13.777343-13.777344c29.359374-29.351562 39.792968-18.917969 69.15625-48.269531 29.351562-29.359375 18.917968-39.792969 48.277343-69.15625 29.351563-29.359375 39.796875-18.917969 69.148438-48.28125 29.359375-29.351562 18.917969-39.792969 48.28125-69.152344 29.359375-29.351562 39.792969-18.917968 69.152343-48.28125 29.363282-29.363281 18.929688-39.792968 48.28125-69.15625zm0 0" fill="#ffb3a8"/><path d="m485.179688 142.285156-22.164063-22.164062s0 0-.003906-.003906l-34.679688-34.679688h-.003906l-20.332031-20.335938c-5.433594-5.429687-12.933594-8.140624-20.574219-7.433593-7.667969.707031-14.570313 4.757812-18.933594 11.113281-4.707031 6.855469-7.519531 12.773438-10.242187 18.492188-4.597656 9.675781-8.941406 18.8125-22.769532 32.636718-13.828124 13.828125-22.960937 18.171875-32.636718 22.769532-9.59375 4.5625-19.496094 9.277343-33.328125 22.40625-6.242188-5.488282-11.792969-8.992188-17.242188-12.421876-9.0625-5.707031-17.621093-11.097656-29.71875-26.460937-12.097656-15.363281-15.332031-24.949219-18.757812-35.097656-1.972657-5.847657-4.015625-11.894531-7.691407-19.015625-1.773437-3.429688-5.992187-4.773438-9.421874-3-3.433594 1.769531-4.773438 5.988281-3.003907 9.417968 3.195313 6.179688 4.980469 11.46875 6.871094 17.070313 3.652344 10.824219 7.429687 22.015625 21.019531 39.273437 13.589844 17.257813 23.582032 23.554688 33.25 29.644532 4.914063 3.09375 9.679688 6.101562 14.941406 10.648437-10.554687 11.910157-14.808593 20.863281-18.949218 29.566407-.054688.121093-.113282.242187-.171875.359374-10.476563-11.710937-18.804688-16.960937-26.902344-22.058593-9.058594-5.710938-17.621094-11.101563-29.714844-26.464844-12.101562-15.363281-15.335937-24.949219-18.761719-35.097656-3.652343-10.824219-7.429687-22.019531-21.019531-39.277344-13.589843-17.257813-23.585937-23.554687-33.253906-29.644531-7.910156-4.984375-15.4375-9.726563-25.269531-21.070313l19.011718-14.96875c4.660157-3.671875 11.371094-3.28125 15.605469.90625 8.171875 8.074219 15.066407 12.417969 21.734375 16.621094 7.164063 4.511719 13.929688 8.773437 22.382813 17.851563 2.628906 2.824218 7.054687 2.984374 9.882812.351562 2.824219-2.632812 2.980469-7.054688.351563-9.878906-9.695313-10.410156-17.558594-15.367188-25.164063-20.15625-6.308593-3.972656-12.269531-7.730469-19.355469-14.734375-9.246093-9.132813-23.898437-9.96875-34.089843-1.945313l-85.753907 67.53125c-6.03125 4.75-9.609374 11.875-9.8125 19.550782-.203124 7.699218 3.007813 15.03125 8.804688 20.113281 6.25 5.480469 11.792969 8.972656 17.152344 12.351562 9.0625 5.707031 17.621094 11.097657 29.71875 26.464844 12.097656 15.363281 15.332031 24.945313 18.757812 35.09375 3.652344 10.828125 7.429688 22.019531 21.019532 39.277344 13.59375 17.257812 23.585937 23.554687 33.253906 29.644531 8.378906 5.277344 16.332031 10.292969 27.046875 23.164062-2.339844 2.054688-4.785157 4.34375-7.371094 6.929688-15.53125 15.527344-20.605469 26.199219-25.507813 36.515625-4.597656 9.671875-8.945312 18.808594-22.769531 32.636719-13.828125 13.824218-22.960937 18.167968-32.636719 22.765625-5.71875 2.722656-11.632812 5.535156-18.488281 10.238281-6.355469 4.363281-10.40625 11.265625-11.113281 18.933594-.707031 7.644531 2.003906 15.144531 7.429688 20.574218l20.332031 20.332032c.003906 0 .003906.003906.003906.003906l34.683594 34.683594 22.167969 22.164062c4.984374 4.984375 11.585937 7.527344 18.222656 7.527344 5.574218 0 11.171875-1.792969 15.851562-5.433594 7.863282-6.117187 14.226563-9.144531 20.960938-12.34375 6.765625-3.21875 13.761718-6.542968 22.292968-12.976562l1.164063-.898438c3.0625-2.351562 3.640625-6.738281 1.289063-9.800781-2.351563-3.0625-6.742188-3.636719-9.804688-1.289063l-1.117188.859376c-7.347656 5.542968-13.410156 8.425781-19.828124 11.476562-7.113282 3.382812-14.472657 6.882812-23.542969 13.9375-4.699219 3.65625-11.410157 3.246094-15.601563-.945312l-17.109375-17.109376c11.101563-10.101562 19.136719-13.921874 27.578125-17.9375 10.316406-4.90625 20.988282-9.976562 36.515625-25.507812 15.53125-15.53125 20.605469-26.203125 25.511719-36.519531 4.597656-9.671875 8.941406-18.808594 22.769531-32.636719 13.824219-13.824219 22.960938-18.167969 32.632813-22.765625 10.316406-4.90625 20.984375-9.980469 36.515625-25.511719s20.605469-26.199218 25.511719-36.515625c4.597656-9.671875 8.941406-18.808593 22.769531-32.636719 13.828125-13.824218 22.960937-18.171874 32.636719-22.769531 10.316406-4.90625 20.988281-9.980469 36.519531-25.511719s20.605469-26.203124 25.511719-36.519531c4.011718-8.441406 7.835937-16.476562 17.9375-27.578125l17.109374 17.105469c4.195313 4.195313 4.601563 10.90625.941407 15.605469-7.054688 9.070312-10.550781 16.429687-13.9375 23.546875-4.597657 9.671875-8.941407 18.808593-22.769531 32.636719-13.828126 13.828124-22.964844 18.171874-32.636719 22.769531-10.316407 4.90625-20.988281 9.980469-36.519531 25.511719s-20.605469 26.199218-25.507813 36.515624c-4.601563 9.675782-8.945313 18.808594-22.773437 32.636719-13.824219 13.828125-22.957032 18.171875-32.632813 22.769531-10.316406 4.90625-20.984375 9.976563-36.515625 25.507813s-20.605469 26.199219-25.511719 36.519531c-3.191406 6.714844-6.207031 13.054688-12.285156 20.886719-2.367187 3.050781-1.816406 7.441406 1.234375 9.808594 3.050781 2.371093 7.441406 1.816406 9.808594-1.234375 7.011718-9.03125 10.5-16.363282 13.871094-23.457032 3.808593-8.015624 7.464843-15.667968 16.460937-25.917968 1.652344 1.871094 3.363281 3.910156 5.160156 6.191406 12.097657 15.359375 15.332031 24.945312 18.753907 35.09375 2.027343 6 4.121093 12.207031 7.984374 19.566406 3.582032 6.828125 9.957032 11.667969 17.488282 13.273438 1.796875.386718 3.605468.574218 5.402344.574218 5.71875 0 11.3125-1.910156 15.90625-5.527343l85.753906-67.53125c10.191406-8.023438 12.8125-22.464844 6.101562-33.589844-5.144531-8.53125-7.398437-15.207031-9.785156-22.273437-3.652344-10.824219-7.429688-22.015626-21.015625-39.273438-6.878906-8.730469-12.832031-14.648438-18.289063-19.160156 2.730469-3.496094 6.058594-7.273438 10.277344-11.492188 13.828125-13.828125 22.964844-18.171875 32.636719-22.769531 10.316406-4.90625 20.988281-9.980469 36.519531-25.511719s20.605469-26.203125 25.511719-36.519531c3.203125-6.738281 6.226563-13.097656 12.347656-20.964844 7.980469-10.257812 7.078125-24.90625-2.089843-34.078125zm-410.460938-102.167968c11.386719 13.265624 20.230469 18.835937 28.816406 24.242187 9.0625 5.710937 17.621094 11.101563 29.71875 26.464844s15.332032 24.949219 18.757813 35.097656c3.652343 10.824219 7.429687 22.019531 21.023437 39.277344 13.585938 17.253906 23.582032 23.554687 33.25 29.640625 8.453125 5.324218 16.464844 10.378906 27.320313 23.492187-3.464844 5.527344-8.140625 11.59375-15.5625 19.015625-2.90625 2.90625-5.59375 5.371094-8.132813 7.527344-.472656-.617188-.957031-1.242188-1.457031-1.875-13.585937-17.257812-23.582031-23.554688-33.25-29.644531-9.0625-5.707031-17.621094-11.101563-29.71875-26.464844-12.097656-15.359375-15.332031-24.945313-18.757813-35.097656-3.652343-10.824219-7.429687-22.015625-21.019531-39.273438-13.59375-17.257812-23.589843-23.554687-33.253906-29.644531-7.910156-4.984375-15.4375-9.726562-25.273437-21.070312l18.644531-14.683594zm61.949219 203.582031c-9.0625-5.707031-17.621094-11.101563-29.71875-26.464844-12.097657-15.363281-15.335938-24.949219-18.757813-35.097656-3.65625-10.824219-7.433594-22.015625-21.019531-39.273438-13.589844-17.257812-23.589844-23.554687-33.253906-29.644531-5.128907-3.230469-9.96875-6.28125-15.386719-11.03125-2.664062-2.335938-4.136719-5.703125-4.042969-9.234375.09375-3.507813 1.726563-6.765625 4.480469-8.933594l17.21875-13.558593c11.386719 13.257812 20.230469 18.835937 28.8125 24.242187 9.0625 5.710937 17.621094 11.101563 29.71875 26.464844s15.332031 24.949219 18.757812 35.097656c3.652344 10.824219 7.429688 22.019531 21.019532 39.277344 13.589844 17.257812 23.585937 23.554687 33.253906 29.644531 9.0625 5.707031 17.621094 11.101562 29.71875 26.460938.402344.511718.789062 1.011718 1.167969 1.507812-4.617188 2.859375-8.871094 4.886719-13.226563 6.957031-5.683594 2.703125-11.472656 5.457031-18.117187 9.976563-12.273438-14.828125-21.59375-20.699219-30.625-26.390625zm-80.972657 173.699219c-2.480468-2.480469-3.71875-5.90625-3.398437-9.402344.324219-3.515625 2.1875-6.683594 5.105469-8.6875 5.941406-4.078125 11.109375-6.535156 16.582031-9.136719 10.316406-4.90625 20.984375-9.976563 36.515625-25.507813 15.535156-15.535156 20.605469-26.203124 25.511719-36.519531 4.597656-9.675781 8.941406-18.808593 22.769531-32.636719 13.824219-13.824218 22.960938-18.167968 32.632812-22.765624 10.316407-4.90625 20.988282-9.980469 36.515626-25.511719 15.535156-15.53125 20.605468-26.199219 25.511718-36.515625 4.597656-9.675782 8.941406-18.808594 22.769532-32.636719 13.828124-13.828125 22.964843-18.171875 32.636718-22.769531 10.316406-4.90625 20.988282-9.980469 36.519532-25.511719s20.605468-26.203125 25.511718-36.519531c2.597656-5.472656 5.054688-10.640625 9.136719-16.582032 2.003906-2.917968 5.171875-4.78125 8.691406-5.105468 3.484375-.324219 6.917969.914062 9.398438 3.398437l15.496093 15.496094c-11.820312 12.871094-16.3125 22.3125-20.671874 31.472656-4.597657 9.671875-8.941407 18.808594-22.769532 32.632813-13.828125 13.828125-22.960937 18.171875-32.636718 22.773437-10.316407 4.90625-20.988282 9.976563-36.519532 25.511719-15.53125 15.53125-20.605468 26.199219-25.507812 36.515625-4.601563 9.671875-8.945313 18.808594-22.769532 32.636719-13.828124 13.824218-22.964843 18.167968-32.636718 22.765625-10.316406 4.90625-20.984375 9.980469-36.515625 25.511719-15.535157 15.53125-20.605469 26.199218-25.511719 36.515624-4.597656 9.675782-8.941406 18.808594-22.769531 32.636719-13.824219 13.824219-22.960938 18.167969-32.632813 22.769531-9.160156 4.355469-18.601562 8.847657-31.472656 20.667969zm371.917969-260.757813c-4.597656 9.671875-8.941406 18.808594-22.769531 32.632813-13.828125 13.828124-22.964844 18.171874-32.636719 22.773437-10.320312 4.90625-20.988281 9.976563-36.519531 25.511719-15.53125 15.53125-20.605469 26.199218-25.511719 36.515625-4.597656 9.675781-8.941406 18.808593-22.769531 32.636719-13.824219 13.824218-22.960938 18.167968-32.632812 22.769531-10.316407 4.902343-20.988282 9.976562-36.515626 25.507812-15.535156 15.53125-20.605468 26.199219-25.511718 36.519531-4.597656 9.671876-8.941406 18.808594-22.769532 32.632813-13.824218 13.824219-22.960937 18.167969-32.632812 22.769531-9.160156 4.355469-18.601562 8.839844-31.472656 20.664063l-24.785156-24.785157c11.101562-10.101562 19.136718-13.917968 27.578124-17.933593 10.316407-4.90625 20.988282-9.976563 36.519532-25.511719 15.53125-15.527344 20.601562-26.199219 25.507812-36.515625 4.597656-9.671875 8.941406-18.808594 22.769532-32.636719 13.824218-13.824218 22.960937-18.167968 32.632812-22.765625 10.316406-4.90625 20.988281-9.980469 36.519531-25.511719s20.605469-26.199218 25.507813-36.515624c4.597656-9.675782 8.945312-18.808594 22.769531-32.636719 13.828125-13.828125 22.964844-18.171875 32.636719-22.769531 10.320312-4.90625 20.988281-9.980469 36.519531-25.511719s20.605469-26.203125 25.511719-36.519531c4.015625-8.445313 7.835937-16.480469 17.9375-27.582032l24.785156 24.785156c-11.824219 12.875-16.3125 22.3125-20.667969 31.476563zm-95.636719 194.640625c1.21875-1.21875 2.363282-2.402344 3.457032-3.5625 1.078125 1.277344 2.175781 2.613281 3.3125 4.058594 12.097656 15.359375 15.332031 24.945312 18.753906 35.09375 3.246094 9.609375 6.585938 19.511718 16.808594 33.691406l-27.539063 21.6875c-8.71875-12.21875-11.5625-20.648438-14.550781-29.503906-3.652344-10.824219-7.429688-22.019532-21.023438-39.277344-.933593-1.1875-1.847656-2.304688-2.75-3.390625 6.753907-4.007813 14.28125-9.546875 23.53125-18.796875zm-13.417968 113.183594c-2.753906 2.167968-6.304688 2.992187-9.734375 2.261718-3.457031-.738281-6.382813-2.960937-8.027344-6.09375-3.351563-6.382812-5.179687-11.804687-7.113281-17.542968-3.65625-10.824219-7.429688-22.015625-21.019532-39.273438-2.214843-2.8125-4.335937-5.332031-6.375-7.605468 11.929688-11.207032 20.332032-15.21875 29.171876-19.421876.082031-.039062.164062-.078124.25-.117187 1.449218 1.667969 2.945312 3.46875 4.5 5.449219 12.097656 15.363281 15.332031 24.945312 18.757812 35.09375 3.242188 9.609375 6.589844 19.515625 16.808594 33.691406zm58.722656-143.035156c12.097656 15.363281 15.332031 24.949218 18.757812 35.09375 2.515626 7.46875 5.121094 15.1875 11.058594 25.023437 3.074219 5.101563 1.878906 11.714844-2.78125 15.386719l-19.011718 14.96875c-8.71875-12.214844-11.566407-20.644532-14.554688-29.503906-3.652344-10.824219-7.429688-22.015626-21.019531-39.273438-1.765625-2.242188-3.46875-4.296875-5.121094-6.195312 6.332031-8.402344 9.640625-15.363282 12.878906-22.167969 1.488281-3.128907 2.953125-6.203125 4.71875-9.398438 4.527344 3.875 9.410157 8.875 15.074219 16.066407zm0 0"/></svg>