<svg height="511pt" viewBox="0 0 511.99942 511" width="511pt" xmlns="http://www.w3.org/2000/svg"><path d="m185.816406 260.335938 170.21875-188.496094s71.980469-89.152344 142.527344-57.660156c5.347656 2.386718 7.796875 8.632812 5.652344 14.082031-11.558594 29.351562-56.335938 127.28125-190.320313 286.800781-3.4375 4.097656-9.3125 5.167969-13.96875 2.535156l-55.402343-31.363281c-3.792969-2.148437-8.570313-1.375-11.492188 1.863281l-7.398438 8.1875zm0 0" fill="#bfbfbf"/><path d="m223.222656 294.105469 2.890625 1.636719-.484375.535156zm0 0" fill="#acacac"/><path d="m313.886719 315.066406c-3.4375 4.089844-9.308594 5.164063-13.960938 2.523438l-9.964843-5.636719c138.40625-165.878906 186.183593-268.609375 199.226562-301.253906 3.136719.921875 6.253906 2.085937 9.382812 3.480469 5.34375 2.378906 7.792969 8.632812 5.640626 14.089843-11.550782 29.34375-56.332032 127.273438-190.324219 286.796875zm0 0" fill="#acacac"/><path d="m186.164062 260.648438-39.683593 43.945312 36.03125 32.535156 11.054687-7.738281c8.496094-5.945313 19.601563-6.664063 28.792969-1.863281 4.761719 2.488281 10.601563 1.441406 14.203125-2.546875l4.792969-5.308594c2.519531-2.792969 2.300781-7.101563-.492188-9.621094zm0 0" fill="#bc7d53"/><path d="m240.863281 310.054688c2.792969 2.519531 3.015625 6.832031.492188 9.625l-4.789063 5.300781c-3.597656 3.984375-9.449218 5.035156-14.207031 2.554687-9.191406-4.808594-20.289063-4.089844-28.796875 1.855469l-11.050781 7.742187-11.761719-10.625c.046875.042969 6.765625-6.960937 7.324219-7.535156 3.242187-3.335937 6.996093-5.792968 11.398437-7.402344 6.710938-2.453124 14.6875-3.089843 21.613282-1.175781 6.140624 1.699219 14.320312 3.023438 19.933593-1.023437.648438-.46875 4.675781-3.953125 3.777344-4.800782zm0 0" fill="#af663e"/><path d="m146.480469 304.59375-130.925781 144.988281c-12.28125 13.597657-11.210938 34.574219 2.386718 46.855469 15.769532 14.238281 40.671875 10.195312 51.117188-8.304688l3.554687-6.285156c10.640625-18.835937 24.195313-35.867187 40.160157-50.46875l10.613281-9.703125c16.300781-14.902343 30.085937-32.339843 40.820312-51.640625l18.308594-32.90625zm0 0" fill="#bc7d53"/><path d="m64.761719 494.109375c-11.9375 13.222656-32.929688 14.871094-46.820313 2.328125-2.019531-1.828125-3.765625-3.839844-5.214844-6.015625 13.324219 7.207031 30.097657 4.351563 40.289063-6.9375 1.609375-1.777344 3.039063-3.773437 4.289063-5.96875l3.550781-6.289063c10.636719-18.835937 24.195312-35.863281 40.15625-50.46875l10.609375-9.695312c16.300781-14.902344 30.089844-32.347656 40.820312-51.652344l18.308594-32.902344 11.765625 10.625-18.308594 32.902344c-10.730469 19.304688-24.53125 36.738282-40.820312 51.648438l-10.613281 9.699218c-15.96875 14.59375-29.515626 31.628907-40.15625 50.46875l-3.558594 6.277344c-1.238282 2.207032-2.691406 4.203125-4.296875 5.980469zm0 0" fill="#af663e"/><path d="m501.414062 7.785156c-31.183593-13.917968-67.328124-7.8203122-104.523437 17.640625-26.460937 18.105469-44.351563 39.625-46.175781 41.855469l-299.089844 331.914062c-2.59375 2.871094-2.367188 7.296876.503906 9.886719 2.867188 2.589844 7.292969 2.367188 9.882813-.503906l84.976562-94.097656 26.703125 24.113281-15.601562 28.039062c-10.390625 18.675782-23.65625 35.457032-39.425782 49.878907l-10.613281 9.703125c-16.535156 15.121094-30.511719 32.679687-41.535156 52.191406l-3.550781 6.285156c-3.929688 6.957032-10.707032 11.679688-18.589844 12.960938-7.886719 1.285156-15.8125-1.054688-21.742188-6.410156-10.710937-9.671876-11.554687-26.257813-1.882812-36.96875l18.777344-20.796876c2.59375-2.867187 2.367187-7.292968-.503906-9.882812-2.867188-2.59375-7.296876-2.367188-9.886719.503906l-18.777344 20.792969c-7.191406 7.964844-10.851563 18.253906-10.3046875 28.972656.5429685 10.714844 5.2343745 20.578125 13.1953125 27.769531 7.464844 6.742188 16.992188 10.367188 26.851562 10.367188 2.164063 0 4.339844-.175781 6.515626-.527344 12.105468-1.96875 22.507812-9.21875 28.539062-19.894531l3.550781-6.285156c10.292969-18.222657 23.34375-34.621094 38.792969-48.746094l10.609375-9.703125c16.886719-15.4375 31.089844-33.40625 42.214844-53.402344l17.523437-31.5 9.734375-6.8125c6.382813-4.46875 14.632813-5 21.535157-1.394531 7.59375 3.964844 16.902343 2.292969 22.640624-4.0625l4.789063-5.304687c5.105469-5.652344 4.660156-14.40625-.992187-19.511719l-10.039063-9.066407 2.707031-3c.730469-.808593 1.902344-1 2.851563-.460937l55.402343 31.363281c2.792969 1.578125 5.855469 2.34375 8.894532 2.34375 5.207031 0 10.335937-2.246094 13.878906-6.46875 63.070312-75.089844 113.898438-145.324218 151.089844-208.773437l3.125-5.378907c.03125-.046874.054687-.09375.082031-.144531l2.570313-4.667969c1.863281-3.386718.628906-7.644531-2.757813-9.507812s-7.644531-.628906-9.507813 2.757812l-2.527343 4.597657-3.074219 5.285156c-36.78125 62.753906-87.15625 132.339844-149.71875 206.832031-1.273438 1.515625-3.445312 1.910156-5.160156.941406l-55.402344-31.363281c-6.699219-3.792969-14.976562-2.453125-20.136719 3.261719l-2.707031 2.996094-29.421875-26.570313 165.523437-183.300781c.085938-.09375.167969-.191406.25-.292969.171876-.214843 17.648438-21.691406 43.316407-39.257812 33.445312-22.886719 64.03125-28.40625 90.914062-16.40625 1.878907.835937 2.773438 3.140625 1.992188 5.125-3 7.613281-8.472657 20.414062-17.527344 38.167969-1.757813 3.441406-.390625 7.65625 3.054687 9.414062 3.445313 1.757812 7.660157.390625 9.414063-3.054688 9.308594-18.25 14.972656-31.496093 18.082031-39.398437 3.546875-9.007813-.539062-19.128906-9.308594-23.042969zm-270.046874 312.503906c-1.460938 1.617188-3.832032 2.042969-5.765626 1.035157-11.554687-6.035157-25.367187-5.140625-36.046874 2.332031l-6.488282 4.542969-10.585937-9.558594-16.113281-14.550781 30.300781-33.554688 49.367187 44.585938zm0 0"/><g fill="#111"><path d="m121.417969 389.304688c0 5.742187-4.65625 10.394531-10.394531 10.394531-5.742188 0-10.394532-4.652344-10.394532-10.394531 0-5.742188 4.652344-10.394532 10.394532-10.394532 5.738281 0 10.394531 4.652344 10.394531 10.394532zm0 0"/><path d="m62.65625 454.378906c0 5.738282-4.65625 10.394532-10.394531 10.394532-5.742188 0-10.394531-4.65625-10.394531-10.394532 0-5.742187 4.652343-10.394531 10.394531-10.394531 5.738281 0 10.394531 4.652344 10.394531 10.394531zm0 0"/></g></svg>