<svg height="512pt" viewBox="0 -92 512.00095 512" width="512pt" xmlns="http://www.w3.org/2000/svg"><path d="m438.972656 140.335938c0 .261718.019532.519531.027344.785156l-115.195312.625.496093 44.460937 115.351563-.628906c-.101563 1.125-.152344 2.265625-.140625 3.417969.207031 18.855468 16.308593 33.8125 35.429687 32.28125 15.949219-1.277344 28.816406-14.222656 29.976563-30.179688.566406-7.796875-1.589844-15.054687-5.609375-20.929687-2.535156-3.703125-2.589844-8.574219-.136719-12.332031 3.886719-5.960938 5.882813-13.261719 5.144531-21.042969-1.511718-15.929688-14.664062-28.589844-30.636718-29.511719-19.152344-1.109375-34.917969 14.199219-34.707032 33.054688zm0 0" fill="#e7e7e7"/><path d="m499.324219 170.191406c-2.542969-3.722656-2.601563-8.601562-.140625-12.378906 3.410156-5.230469 5.355468-11.492188 5.28125-18.203125-.199219-18.085937-15.019532-32.582031-33.113282-32.382813-2.863281.027344-5.640624.429688-8.289062 1.15625 13.75 3.753907 23.925781 16.257813 24.097656 31.226563.078125 6.707031-1.878906 12.96875-5.285156 18.203125-2.457031 3.777344-2.402344 8.652344.140625 12.375 3.519531 5.152344 5.605469 11.371094 5.683594 18.082031.167969 15.21875-10.074219 28.128907-24.097657 31.953125 2.867188.789063 5.894532 1.191406 9.019532 1.160156 18.082031-.199218 32.582031-15.027343 32.382812-33.113281-.070312-6.707031-2.160156-12.925781-5.679687-18.078125zm0 0" fill="#cecece"/><path d="m359.0625 164.769531c-.226562-37.996093-16.890625-76.007812-49.320312-100.835937-26.03125-19.925782-57.230469-32.40625-88.699219-40.792969-6.933594-1.847656-118.203125-20.164063-118.203125-14.585937v119.210937 193.191406c40.996094 1.179688 83.578125-4.8125 122.9375-15.882812 31.851562-8.953125 63.40625-22.292969 89.082031-43.558594 29.878906-24.742187 44.421875-60.738281 44.203125-96.746094zm0 0" fill="#bc7d53"/><path d="m359.0625 164.773438c.222656 36.007812-14.328125 71.996093-44.207031 96.738281-25.671875 21.269531-57.226563 34.609375-89.082031 43.566406-1.816407.511719-3.644532 1.011719-5.46875 1.488281 21.699218-8.886718 42.347656-20.308594 60.390624-35.257812 33.253907-27.539063 49.441407-67.601563 49.199219-107.683594-.25-42.300781-18.800781-84.609375-54.898437-112.25-12.375-9.488281-25.8125-17.433594-39.875-24.183594 26.601562 8.234375 52.484375 19.789063 74.625 36.746094 32.421875 24.824219 49.089844 62.839844 49.316406 100.835938zm0 0" fill="#af663e"/><path d="m18.371094 76.5625c-11.542969 32.1875-12.617188 68.078125-10.605469 102.828125 1.644531 28.339844 5.382813 57.097656 16.441406 82.484375 15.476563 35.535156 48.316407 62.425781 83.421875 58.535156 9.464844-1.046875 19.078125-3.105468 27.296875-8.621094 57.382813-38.511718 60.730469-148.222656 51.457031-213.949218-3.441406-24.398438-11.296874-48.992188-26.480468-66.941406-17-20.097657-32.960938-22.160157-57.0625-23.28125-16.445313-.765626-34.375 2.164062-47.976563 13.625-16.09375 13.5625-28.914062 34.191406-36.492187 55.320312zm0 0" fill="#ffc1b8"/><path d="m134.925781 311.789062c-8.21875 5.511719-17.835937 7.570313-27.300781 8.617188-6.761719.75-13.441406.359375-19.921875-1.015625 7.089844-1.28125 14.039063-3.464844 20.199219-7.601563 57.390625-38.511718 60.734375-148.226562 51.457031-213.949218-3.445313-24.398438-11.292969-48.992188-26.480469-66.945313-14.441406-17.066406-28.128906-21.128906-46.695312-22.648437 5.574218-.726563 11.195312-.886719 16.65625-.628906 24.097656 1.117187 40.0625 3.1875 57.058594 23.277343 15.1875 17.953125 23.039062 42.546875 26.484374 66.945313 9.273438 65.726562 5.929688 175.4375-51.457031 213.949218zm0 0" fill="#ffb3a8"/><path d="m40.050781 98.6875c-8.113281 24.230469-8.867187 51.242188-7.453125 77.402344 1.152344 21.332031 3.78125 42.980468 11.550782 62.089844 10.875 26.746093 33.945312 46.988281 58.609374 44.058593 6.648438-.789062 13.402344-2.335937 19.175782-6.488281 40.316406-28.988281 42.664062-111.570312 36.148437-161.042969-2.417969-18.367187-7.9375-36.878906-18.601562-50.390625-11.945313-15.128906-23.15625-16.679687-40.089844-17.527344-11.550781-.574218-24.148437 1.628907-33.703125 10.257813-11.308594 10.210937-20.3125 25.738281-25.636719 41.640625zm0 0" fill="#e57670"/><path d="m121.933594 275.753906c-5.773438 4.152344-12.523438 5.699219-19.171875 6.488282-4.953125.589843-9.855469.242187-14.597657-.917969 4.710938-.976563 9.324219-2.617188 13.4375-5.570313 40.3125-28.988281 42.660157-111.570312 36.148438-161.050781-2.414062-18.363281-7.9375-36.875-18.601562-50.386719-9.925782-12.570312-19.34375-15.765625-31.964844-16.976562 4.085937-.617188 8.207031-.746094 12.210937-.546875 16.925781.839843 28.140625 2.394531 40.082031 17.523437 10.667969 13.511719 16.1875 32.023438 18.605469 50.386719 6.519531 49.480469 4.164063 132.0625-36.148437 161.050781zm0 0" fill="#e05c56"/><path d="m66.402344 112.367188c-3.601563 10.761718-3.9375 22.757812-3.308594 34.375.511719 9.472656 1.679688 19.089843 5.128906 27.574218 4.832032 11.878906 15.078125 20.871094 26.03125 19.570313 2.953125-.351563 5.949219-1.039063 8.515625-2.882813 17.90625-12.875 18.949219-49.550781 16.054688-71.523437-1.074219-8.15625-3.523438-16.378907-8.261719-22.378907-5.304688-6.71875-10.285156-7.40625-17.804688-7.785156-5.128906-.253906-10.722656.726563-14.96875 4.554688-5.019531 4.535156-9.019531 11.433594-11.386718 18.496094zm0 0" fill="#ffc1b8"/><path d="m102.769531 191.003906c-2.566406 1.835938-5.558593 2.527344-8.515625 2.875-4.132812.492188-8.167968-.476562-11.84375-2.515625.179688-.121093.359375-.238281.53125-.359375 17.902344-12.871094 18.941406-49.546875 16.054688-71.527344-1.078125-8.15625-3.523438-16.375-8.269532-22.378906-2.644531-3.355468-5.21875-5.210937-8.066406-6.269531 3.226563-1.316406 6.761719-1.675781 10.09375-1.507813 7.519532.371094 12.503906 1.058594 17.804688 7.777344 4.746094 6.003906 7.191406 14.222656 8.269531 22.378906 2.886719 21.980469 1.847656 58.65625-16.058594 71.527344zm0 0" fill="#ffb3a8"/><path d="m164.476562 110.03125c-.589843-3.816406-4.164062-6.429688-7.976562-5.839844s-6.429688 4.160156-5.839844 7.972656c.179688 1.152344.339844 2.300782.492188 3.453126 1.796875 13.628906 5.339844 49.316406-.488282 86.203124-3.632812 22.984376-12.273437 53.484376-32.808593 68.253907-3.839844 2.761719-8.753907 4.371093-15.921875 5.226562-19.742188 2.339844-40.839844-14.003906-51.308594-39.753906-7.984375-19.636719-10.097656-42.292969-11.046875-59.835937-1.070313-19.804688-1.5-49.109376 7.101563-74.804688 5.265624-15.734375 13.898437-29.828125 23.6875-38.667969 16.777343-15.152343 50.160156-10.652343 63.625 6.410157 2.867187 3.628906 5.453124 7.859374 7.695312 12.570312 1.65625 3.488281 5.828125 4.972656 9.3125 3.3125 3.488281-1.65625 4.972656-5.824219 3.3125-9.3125-2.6875-5.65625-5.832031-10.785156-9.34375-15.234375-18.296875-23.171875-61.28125-28.613281-83.96875-8.125-11.519531 10.40625-21.570312 26.664063-27.578125 44.609375-9.359375 27.960938-8.9375 59.046875-7.804687 79.996094 1.007812 18.632812 3.289062 42.789062 12.054687 64.347656 12.121094 29.804688 35.855469 48.699219 60.332031 48.699219 1.855469 0 3.71875-.109375 5.578125-.332031 6.496094-.769532 14.914063-2.347657 22.433594-7.753907 19.632813-14.117187 32.570313-40.167969 38.460937-77.425781 6.113282-38.6875 2.414063-75.972656.539063-90.207031-.164063-1.253907-.34375-2.507813-.539063-3.761719zm0 0"/><path d="m73.105469 88.6875c-5.679688 5.128906-10.414063 12.75-13.332031 21.460938-4.367188 13.046874-4.179688 27.347656-3.660157 36.96875.464844 8.582031 1.523438 19.722656 5.636719 29.832031 5.988281 14.730469 17.9375 24.050781 30.390625 24.050781.976563 0 1.957031-.058594 2.9375-.175781 3.085937-.363281 7.664063-1.195313 11.773437-4.144531 9.589844-6.898438 15.867188-19.324219 18.648438-36.9375 1.96875-12.449219 2.058594-27.457032.253906-41.175782-1.414062-10.75-4.679687-19.429687-9.707031-25.796875-9.585937-12.144531-31.195313-14.691406-42.941406-4.082031zm38.585937 68.875c-2.148437 13.59375-6.644531 23.191406-13 27.765625-1.144531.820313-2.765625 1.320313-5.261718 1.617187-7.035157.828126-14.738282-5.441406-18.730469-15.261718-3.328125-8.183594-4.21875-17.832032-4.625-25.320313-.457031-8.476562-.648438-20.996093 2.957031-31.777343 2.132812-6.375 5.578125-12.03125 9.441406-15.523438 2.394532-2.164062 5.5-3.28125 8.714844-3.472656 5.214844-.316406 10.710938 1.808594 13.898438 5.851562 3.390624 4.300782 5.742187 10.855469 6.808593 18.953125.773438 5.882813 2.308594 21.289063-.203125 37.167969zm0 0"/><path d="m505.074219 166.21875c-.941407-1.375-.960938-3.167969-.050781-4.566406 4.953124-7.59375 7.113281-16.417969 6.253906-25.519532-1.832032-19.308593-17.820313-34.710937-37.195313-35.832031-11.15625-.644531-21.742187 3.230469-29.792969 10.917969-6.421874 6.128906-10.585937 14.257812-11.878906 22.945312l-4.511718.023438c-3.859376.023438-6.972657 3.167969-6.953126 7.027344.023438 3.847656 3.148438 6.953125 6.992188 6.953125h.039062l11.0625-.058594c1.890626-.011719 3.695313-.785156 5.003907-2.148437 1.3125-1.363282 2.011719-3.199219 1.945312-5.089844l-.027343-.613282c-.078126-7.21875 2.753906-13.941406 7.980468-18.925781 5.21875-4.984375 12.085938-7.5 19.335938-7.074219 12.546875.722657 22.898437 10.695313 24.082031 23.191407.5625 5.921875-.835937 11.648437-4.042969 16.566406-4.011718 6.148437-3.921875 14.039063.222656 20.097656 3.316407 4.84375 4.839844 10.539063 4.410157 16.472657-.910157 12.523437-11.042969 22.71875-23.566407 23.71875-7.238281.582031-14.15625-1.777344-19.484374-6.644532-5.335938-4.867187-8.316407-11.527344-8.398438-18.742187-.007812-.878907.027344-1.785157.113281-2.699219.183594-1.964844-.476562-3.914062-1.808593-5.367188-1.332032-1.453124-3.226563-2.296874-5.191407-2.265624l-74.214843.40625c.460937-4.707032.683593-9.464844.65625-14.265626-.03125-5.472656-.382813-10.878906-1.027344-16.207031l29.828125-.15625c3.859375-.023437 6.972656-3.167969 6.953125-7.027343-.019532-3.847657-3.144532-6.953126-6.988282-6.953126h-.039062l-32.175781.167969c-6.867188-30.320312-23.769531-57.148437-48.613281-76.167969-34.183594-26.167968-75.652344-39.855468-117.519532-46.691406-11.277344-1.84375-22.566406-3.585937-33.875-5.222656-23.601562-3.417969-38.074218-5.058594-47.144531-5.652344-12.210937-1.59375-24.808594-.832031-36.558594 2.132813-10.765625 2.710937-20.769531 7.804687-29.46875 14.671875-18.074219 14.265625-29.957031 35.1875-37.632812 56.578125-6.328125 17.648437-14.355469 47.789062-11.003907 105.59375 1.425782 24.609375 4.648438 56.5 17.007813 84.875 8.257813 18.953125 21.261719 35.605469 36.621094 46.894531 18.574219 13.648438 36.351562 16.53125 58.660156 16.53125 37.128906 0 76.519531-5.582031 114.589844-16.289062 38.128906-10.71875 68.109375-25.410157 91.652343-44.90625 22.753907-18.847657 38.046876-44.886719 43.972657-73.914063l69.425781-.378906c.980469 9.675781 5.519531 18.777343 12.75 25.378906 7.410156 6.765625 16.796875 10.390625 26.734375 10.390625 1.09375 0 2.191406-.042969 3.296875-.132812 19.339844-1.546876 34.988281-17.300782 36.390625-36.640626.664063-9.121093-1.695313-17.898437-6.816406-25.382812zm-374.042969 139.765625c-7.59375 5.097656-16.90625 6.671875-24.171875 7.480469-14.914063 1.652344-30.1875-2.902344-44.164063-13.171875-13.398437-9.847657-24.796874-24.480469-32.082031-41.207031-11.480469-26.351563-14.511719-56.648438-15.871093-80.101563-3.199219-55.253906 4.292968-83.570313 10.207031-100.0625 7.621093-21.25 20.167969-40.324219 34.417969-52.335937 11.550781-9.734376 26.742187-12.09375 38.757812-12.09375 1.519531 0 2.988281.039062 4.390625.105468 22.898437 1.066406 36.609375 2.558594 52.050781 20.8125 12.523438 14.808594 21.132813 36.734375 24.894532 63.40625 2.566406 18.1875 7.632812 65.800782-.703126 115.035156-7.511718 44.359376-24.011718 76.21875-47.726562 92.132813zm179.371094-49.851563c-22.007813 18.226563-50.304688 32.035157-86.515625 42.214844-25.945313 7.292969-52.492188 12.113282-78.441407 14.332032 23.667969-19.234376 39.503907-51.632813 47.097657-96.492188 8.660156-51.164062 3.417969-100.492188.761719-119.324219-4.191407-29.703125-13.632813-53.417969-28.066407-70.480469-1.917969-2.265624-3.964843-4.375-6.128906-6.339843 1.773437.265625 3.550781.535156 5.320313.792969 10.421874 1.523437 20.832031 3.128906 31.226562 4.824218 39.050781 6.378906 77.964844 19.425782 109.835938 43.824219 29.375 22.484375 46.351562 57.230469 46.582031 95.328125.214843 35.921875-14.972657 69.207031-41.671875 91.320312zm0 0"/></svg>