<svg height="512pt" viewBox="0 -1 512.00025 512" width="512pt" xmlns="http://www.w3.org/2000/svg"><path d="m426.460938 502.132812h-340.859376c-1.105468 0-2-.894531-2-2v-44.574218c0-6.53125 5.292969-11.824219 11.824219-11.824219h321.210938c6.527343 0 11.824219 5.292969 11.824219 11.824219v44.574218c0 1.105469-.894532 2-2 2zm0 0" fill="#d5f3f7"/><path d="m428.464844 455.5625v44.574219c0 1.097656-.898438 2-2 2h-24.609375c1.101562 0 2.003906-.902344 2.003906-2v-44.574219c0-6.535156-5.296875-11.828125-11.832031-11.828125h24.609375c6.523437 0 11.828125 5.292969 11.828125 11.828125zm0 0" fill="#afeaf2"/><path d="m504.535156 172.136719c-.695312-55.292969-45.488281-100.609375-100.773437-101.917969-11.363281-.269531-22.316407 1.304688-32.597657 4.429688-22.714843-40.089844-65.761718-67.144532-115.132812-67.144532s-92.417969 27.058594-115.136719 67.148438c-10.28125-3.128906-21.234375-4.703125-32.597656-4.433594-55.285156 1.3125-100.078125 46.625-100.773437 101.921875-.621094 49.519531 33.613281 91.152344 79.714843 101.90625 8.738281 2.039063 14.886719 9.878906 14.886719 18.847656v150.839844h307.8125v-150.835937c0-8.972657 6.148438-16.8125 14.886719-18.851563 46.101562-10.753906 80.339843-52.386719 79.710937-101.910156zm0 0" fill="#e7e7e7"/><path d="m504.539062 172.136719c.621094 49.527343-33.613281 91.15625-79.714843 101.914062-8.738281 2.03125-14.890625 9.878907-14.890625 18.84375v150.839844h-24.808594v-167.652344c0-8.976562 6.144531-16.8125 14.878906-18.851562 46.105469-10.757813 67.949219-35.566407 67.320313-85.09375-.621094-49.824219-37.058594-91.546875-84.722657-100.261719 6.84375-1.25 13.921876-1.820312 21.15625-1.652344 55.289063 1.3125 100.082032 46.625 100.78125 101.914063zm0 0" fill="#cecece"/><path d="m482 238.316406c-3.03125-2.828125-7.78125-2.652344-10.605469.378906-13.050781 14.019532-29.746093 23.71875-48.277343 28.042969-12.179688 2.839844-20.6875 13.597657-20.6875 26.15625v143.332031h-292.800782v-16.953124c0-4.144532-3.359375-7.507813-7.503906-7.507813s-7.503906 3.363281-7.503906 7.507813v16.996093c-10.285156.425781-18.527344 8.902344-18.527344 19.289063v44.574218c0 5.242188 4.265625 9.503907 9.507812 9.503907h340.859376c5.238281 0 9.503906-4.261719 9.503906-9.503907v-44.574218c0-10.386719-8.238282-18.863282-18.523438-19.289063v-143.371093c0-5.546876 3.734375-10.292969 9.085938-11.542969 21.449218-5.003907 40.765625-16.21875 55.855468-32.433594 2.824219-3.035156 2.652344-7.78125-.382812-10.605469zm-61.046875 217.242188v39.070312h-329.847656v-39.070312c0-2.378906 1.9375-4.320313 4.320312-4.320313h321.210938c2.382812 0 4.316406 1.941407 4.316406 4.320313zm0 0"/><path d="m512 173.472656c.042969-10.324218-1.226562-19.789062-4.039062-29.839844-1.363282-4.878906-3.070313-9.664062-5.09375-14.308593-3.996094-9.160157-9.242188-17.765625-15.535157-25.527344-12.34375-15.214844-28.675781-27.050781-46.996093-33.992187-1.789063-.675782-3.707032-1.34375-5.40625-1.882813-3.972657-1.273437-8.003907-2.308594-12.097657-3.117187-3.105469-.617188-6.238281-1.101563-9.386719-1.449219-12.984374-1.425781-26.117187-.570313-38.753906 2.542969-23.835937-38.21875-64.777344-62.664063-109.554687-65.601563-.03125 0-.0625-.003906-.09375-.007813-5.992188-.3867182-12.03125-.382812-18.023438 0-.035156.003907-.066406.007813-.101562.007813-44.773438 2.941406-85.710938 27.386719-109.546875 65.601563-2.109375-.519532-4.234375-.964844-6.371094-1.359376-.035156-.007812-.074219-.015624-.109375-.019531-10.265625-1.894531-20.726563-2.320312-31.128906-1.285156-9.851563.976563-18.496094 2.980469-27.832031 6.496094-.066407.023437-.132813.050781-.203126.074219-18.738281 7.089843-35.386718 19.316406-47.820312 35.019531-7.328125 9.257812-13.316406 19.566406-17.363281 30.675781-12.984375 35.648438-6.375 76.800781 17.4375 106.796875 15.519531 19.546875 37.378906 33.417969 61.554687 39.058594 5.347656 1.246093 9.085938 5.996093 9.085938 11.542969v93.015624c0 4.144532 3.359375 7.507813 7.503906 7.507813s7.503906-3.363281 7.503906-7.507813v-93.015624c0-12.5625-8.503906-23.320313-20.683594-26.160157-20.890624-4.875-39.785156-16.867187-53.207031-33.773437-22.1875-27.945313-26.910156-66.660156-12.160156-98.992188 4.695313-10.296875 11.246094-19.714844 19.199219-27.761718 12.058594-12.195313 26.824218-20.785157 42.90625-25.167969.074218-.019531.152344-.042969.226562-.0625 10.410156-2.804688 22.992188-3.855469 33.691406-2.875.199219.015625.398438.03125.597657.050781 30.105469 2.949219 57.597656 20.554688 73.054687 46.636719 8.703125 14.683593 13.316406 31.609375 13.316406 48.675781 0 4.144531 3.363282 7.507812 7.507813 7.507812s7.503906-3.363281 7.503906-7.507812c0-46.476562-28.769531-86.355469-69.4375-102.773438.367188-.546874.742188-1.085937 1.113281-1.628906 11.3125-16.40625 25.992188-29.59375 43.660157-39.113281 7.042969-3.796875 14.148437-6.792969 21.777343-9.195313 7.519532-2.367187 15.238282-4.042968 23.070313-4.933593 16.277344-1.847657 31.90625-.644531 47.78125 3.800781 5.035156 1.414062 9.992187 3.105469 14.816406 5.140625 16.480469 6.953125 31.3125 17.394531 43.402344 30.488281 4.574219 4.949219 8.613281 9.6875 12.035156 15.394532-6.34375 3.589843-13.15625 6.183593-19.335937 10.253906-6.074219 4.003906-11.757813 8.605468-16.9375 13.714844-10.402344 10.253906-18.765625 22.550781-24.433594 36.015624-5.695312 13.527344-8.617188 28.164063-8.617188 42.839844 0 4.144532 3.359376 7.503906 7.503907 7.503906 4.148437 0 7.507812-3.359374 7.507812-7.503906 0-29.441406 13.949219-57.703125 37.203125-75.730468 4.792969-3.710938 9.933594-6.972657 15.335938-9.714844 9.5-4.828125 20.097656-8.117188 30.640625-9.503906 8.921875-1.171876 19.882812-.984376 28.882812.5625 2.953125.507812 5.660157 1.105468 8.601563 1.894531.070312.019531.140625.039062.214844.058593 16.082031 4.382813 30.851562 12.972657 42.910156 25.171876 14.269531 14.425781 23.445312 32.585937 26.566406 52.167968.007812.039063.015625.082032.019531.121094.675781 4.289062 1.082031 9.058594 1.152344 13.402344.007813.3125.011719.621094.011719.933594.089844 13.636718-2.617188 26.824218-8.070313 39.199218-1.667969 3.792969.050781 8.222656 3.847657 9.894532 3.789062 1.667968 8.21875-.050782 9.894531-3.84375 6.207031-14.085938 9.234375-29.390626 9.300781-44.613282zm0 0"/><path d="m170.492188 388.933594c-4.144532 0-7.503907-3.363282-7.503907-7.507813v-36.382812c0-4.144531 3.359375-7.503907 7.503907-7.503907 4.148437 0 7.507812 3.359376 7.507812 7.503907v36.382812c0 4.144531-3.359375 7.507813-7.507812 7.507813zm0 0"/><path d="m227.519531 388.933594c-4.144531 0-7.507812-3.363282-7.507812-7.507813v-36.382812c0-4.144531 3.363281-7.503907 7.507812-7.503907s7.503907 3.359376 7.503907 7.503907v36.382812c0 4.144531-3.359376 7.507813-7.503907 7.507813zm0 0"/><path d="m284.542969 388.933594c-4.144531 0-7.503907-3.363282-7.503907-7.507813v-36.382812c0-4.144531 3.359376-7.503907 7.503907-7.503907s7.503906 3.359376 7.503906 7.503907v36.382812c0 4.144531-3.359375 7.507813-7.503906 7.507813zm0 0"/><path d="m341.566406 388.933594c-4.144531 0-7.503906-3.363282-7.503906-7.507813v-36.382812c0-4.144531 3.359375-7.503907 7.503906-7.503907 4.144532 0 7.503906 3.359376 7.503906 7.503907v36.382812c0 4.144531-3.359374 7.507813-7.503906 7.507813zm0 0"/></svg>