<svg height="480pt" viewBox="0 -44 480 480" width="480pt" xmlns="http://www.w3.org/2000/svg"><path d="m40 80h400c17.671875 0 32 14.328125 32 32v240c0 17.671875-14.328125 32-32 32h-400c-17.671875 0-32-14.328125-32-32v-240c0-17.671875 14.328125-32 32-32zm0 0" fill="#dd3e46"/><path d="m40 80h400c17.671875 0 32 14.328125 32 32v176c0 17.671875-14.328125 32-32 32h-400c-17.671875 0-32-14.328125-32-32v-176c0-17.671875 14.328125-32 32-32zm0 0" fill="#426d78"/><path d="m416 120c-28.25 26.1875-65.484375 40.507812-104 40-66.273438 0-152-17.910156-152-40s85.726562-40 152-40c38.515625-.507812 75.75 13.8125 104 40zm0 0" fill="#cfdfe8"/><path d="m416 200c-28.25 26.1875-65.484375 40.507812-104 40-66.273438 0-152-17.910156-152-40s85.726562-40 152-40c38.515625-.507812 75.75 13.8125 104 40zm0 0" fill="#bad6e2"/><path d="m416 280c-28.25 26.1875-65.484375 40.507812-104 40-66.273438 0-152-17.910156-152-40s85.726562-40 152-40c38.515625-.507812 75.75 13.8125 104 40zm0 0" fill="#cfdfe8"/><path d="m323.871094 80.441406c-15.828125 23.996094-15.828125 55.121094 0 79.117188 34.363281-2.125 66.921875-16.109375 92.128906-39.558594-25.207031-23.449219-57.765625-37.433594-92.128906-39.558594zm0 0" fill="#7d8d9c"/><path d="m344 112h16v16h-16zm0 0" fill="#cfdfe8"/><path d="m323.871094 160.441406c-15.828125 23.996094-15.828125 55.121094 0 79.117188 34.363281-2.125 66.921875-16.109375 92.128906-39.558594-25.207031-23.449219-57.765625-37.433594-92.128906-39.558594zm0 0" fill="#7d8d9c"/><path d="m344 192h16v16h-16zm0 0" fill="#cfdfe8"/><path d="m323.871094 240.441406c-15.828125 23.996094-15.828125 55.121094 0 79.117188 34.363281-2.125 66.921875-16.109375 92.128906-39.558594-25.207031-23.449219-57.765625-37.433594-92.128906-39.558594zm0 0" fill="#7d8d9c"/><path d="m344 272h16v16h-16zm0 0" fill="#cfdfe8"/><path d="m288 320h-248c-17.671875 0-32-14.328125-32-32v-176c0-17.671875 14.328125-32 32-32h120l128 128zm0 0" fill="#f98c96"/><path d="m96 296h-56c-4.417969 0-8-3.582031-8-8v-48h16v40h48zm0 0" fill="#dd3e46"/><path d="m112 280h16v16h-16zm0 0" fill="#dd3e46"/><path d="m440 360h-80v-16h80c13.253906 0 24-10.746094 24-24h16c-.027344 22.082031-17.917969 39.972656-40 40zm0 0" fill="#f98c96"/><path d="m296 344h48v16h-48zm0 0" fill="#f98c96"/><path d="m224 192c0 35.347656-28.652344 64-64 64s-64-28.652344-64-64 28.652344-64 64-64 64 28.652344 64 64zm0 0" fill="#f9ddac"/><g fill="#ea7a92"><path d="m232 0h16v32h-16zm0 0"/><path d="m146.347656 29.65625 11.3125-11.316406 24.003906 24.003906-11.316406 11.3125zm0 0"/><path d="m298.347656 42.34375 24.003906-24 11.3125 11.3125-24.003906 24.003906zm0 0"/></g><path d="m288 208h-128v-128zm0 0" fill="#426d78"/><path d="m344 112h16v16h-16zm0 0"/><path d="m344 192h16v16h-16zm0 0"/><path d="m344 272h16v16h-16zm0 0"/><path d="m440 72h-400c-22.082031.027344-39.9726562 17.917969-40 40v240c.0273438 22.082031 17.917969 39.972656 40 40h400c22.082031-.027344 39.972656-17.917969 40-40v-240c-.027344-22.082031-17.917969-39.972656-40-40zm-288 128v8c0 4.417969 3.582031 8 8 8h50.566406c-1.316406 2.808594-2.867187 5.5-4.636718 8.046875-14.613282 21.007813-41.609376 29.441406-65.578126 20.480469-23.972656-8.957032-38.820312-33.023438-36.074218-58.464844 2.746094-25.445312 22.390625-45.789062 47.722656-49.421875zm16 0v-100.6875l100.6875 100.6875zm142.289062 32c-1.535156 0-3.058593 0-4.617187 0-3.199219-.054688-6.398437-.167969-9.671875-.320312v-23.679688c-.105469-.863281-.277344-1.722656-.511719-2.558594-.476562-1.105468-1.09375-2.148437-1.832031-3.097656l-31.390625-31.390625c16.113281-1.859375 32.320313-2.84375 48.542969-2.953125-9.089844 20.363281-9.089844 43.636719 0 64zm.519532-80c-24.871094-.179688-49.6875-2.40625-74.191406-6.664062l-40.890626-40.886719c37.390626-10.902344 76.136719-16.4375 115.082032-16.449219-9.078125 20.351562-9.078125 43.601562 0 63.953125zm-5.207032 160c-3.203124-.054688-6.402343-.160156-9.601562-.320312v-63.367188c5.007812-.207031 9.945312-.3125 14.816406-.3125-9.085937 20.367188-9.085937 43.632812 0 64zm14.398438-32c.046875-10.84375 2.867188-21.492188 8.191406-30.9375 27.699219 2.890625 53.996094 13.621094 75.808594 30.9375-21.824219 17.3125-48.128906 28.042969-75.832031 30.9375-5.316407-9.449219-8.128907-20.097656-8.167969-30.9375zm0-80c.046875-10.84375 2.867188-21.492188 8.191406-30.9375 27.699219 2.890625 53.996094 13.621094 75.808594 30.9375-21.824219 17.3125-48.128906 28.042969-75.832031 30.9375-5.316407-9.449219-8.128907-20.097656-8.167969-30.9375zm0-80c.046875-10.84375 2.867188-21.492188 8.191406-30.9375 27.699219 2.890625 53.996094 13.621094 75.808594 30.9375-21.824219 17.3125-48.128906 28.042969-75.832031 30.9375-5.316407-9.449219-8.128907-20.097656-8.167969-30.9375zm-125.289062-32c-4.085938 1.246094-7.957032 2.542969-11.503907 3.894531l-3.894531-3.894531zm-178.710938 24c0-13.253906 10.746094-24 24-24h112v32.472656c-32.953125 3.691406-59.121094 29.410156-63.382812 62.292969-4.265626 32.882813 14.480468 64.425781 45.398437 76.398437 30.921875 11.976563 66.019531 1.285157 85.015625-25.890624 3.738281-5.328126 6.726562-11.136719 8.890625-17.273438h52.078125v96h-240c-13.253906 0-24-10.746094-24-24zm424 248c8.683594-.03125 17.117188-2.914062 24-8.207031v.207031c0 13.253906-10.746094 24-24 24h-400c-13.253906 0-24-10.746094-24-24v-32.207031c6.882812 5.292969 15.316406 8.175781 24 8.207031h400c8.683594-.03125 17.117188-2.914062 24-8.207031v.207031c0 13.253906-10.746094 24-24 24h-80v16zm24-72c0 13.253906-10.746094 24-24 24h-56.863281c14.304687-6.582031 27.386719-15.546875 38.6875-26.511719 2.90625-3.082031 2.90625-7.894531 0-10.976562-16.675781-15.910157-36.820313-27.726563-58.847657-34.511719 22.027344-6.78125 42.171876-18.59375 58.847657-34.503906 2.90625-3.082032 2.90625-7.894532 0-10.976563-16.675781-15.914062-36.820313-27.730469-58.847657-34.519531 22.027344-6.78125 42.171876-18.59375 58.847657-34.503906 2.90625-3.082032 2.90625-7.894532 0-10.976563-11.296875-10.964843-24.375-19.929687-38.671875-26.519531h56.847656c13.253906 0 24 10.746094 24 24zm0 0"/><path d="m40 296h56v-16h-48v-40h-16v48c0 4.417969 3.582031 8 8 8zm0 0"/><path d="m112 280h16v16h-16zm0 0"/><path d="m296 344h48v16h-48zm0 0"/><path d="m232 0h16v32h-16zm0 0"/><path d="m146.347656 29.65625 11.3125-11.316406 24.003906 24.003906-11.316406 11.3125zm0 0"/><path d="m298.347656 42.34375 24.003906-24 11.3125 11.3125-24.003906 24.003906zm0 0"/></svg>