<svg height="511pt" viewBox="0 -140 511.99998 511" width="511pt" xmlns="http://www.w3.org/2000/svg"><path d="m425.234375 98.925781c19.753906-6.015625 39.488281-14.460937 60.402344-15.140625 8.214843-.265625 17.269531 1.3125 19.101562 10.496094 2.25 11.265625-10.125 18.984375-6.253906 30.570312 3.648437 10.921876 6.957031 18.972657-6.789063 22.527344-10.375 2.683594-66.457031-12.804687-66.457031-12.804687v-35.648438zm0 0" fill="#e57670"/><path d="m498.488281 124.851562c3.640625 10.925782 6.953125 18.96875-6.796875 22.53125-2.824218.726563-9.046875.109376-16.597656-1.179687 9.527344-3.988281 6.503906-11.492187 3.222656-21.351563-3.871094-11.589843 8.5-19.304687 6.253906-30.566406-1.097656-5.5-4.769531-8.273437-9.308593-9.550781 3.433593-.507813 6.882812-.835937 10.375-.945313 8.222656-.269531 17.269531 1.304688 19.105469 10.496094 2.246093 11.261719-10.125 18.976563-6.253907 30.566406zm0 0" fill="#e05c56"/><path d="m405.0625 116.433594c-.003906-.082032 0-.164063 0-.246094h-.003906c.125-50.304688-19.589844-81.363281-54.984375-97.824219-19.96875-9.285156-42.804688-9.457031-64.828125-9.457031-50.929688 0-101.863282 0-152.792969 0l-1.117187 107.28125h-.007813l.003906.246094-.003906.25h.007813l1.117187 107.277344c50.929687.003906 101.863281.003906 152.792969.003906 22.023437 0 44.859375-.171875 64.828125-9.457032 35.394531-16.460937 55.109375-47.523437 54.984375-97.824218h.003906c0-.085938-.003906-.164063 0-.25zm0 0" fill="#d33737"/><path d="m405.0625 115.722656v.960938c.121094 50.300781-19.59375 81.359375-54.992188 97.820312-19.964843 9.289063-42.800781 9.460938-64.828124 9.460938h-40.089844c22.03125 0 44.859375-.171875 64.832031-9.460938 35.398437-16.460937 55.113281-47.519531 54.984375-97.820312h.007812c0-.082032-.007812-.160156 0-.25-.007812-.082032 0-.160156 0-.25h-.007812c.128906-50.300782-19.585938-81.359375-54.984375-97.824219-19.503906-9.058594-41.722656-9.445313-63.261719-9.457031h38.519532c22.027343 0 44.867187.179687 64.828124 9.457031 35.289063 16.414063 54.992188 47.332031 54.992188 97.363281zm0 0" fill="#bc2222"/><path d="m223.460938 115.722656c0 59.78125-48.460938 108.242188-108.238282 108.242188s-108.238281-48.460938-108.238281-108.242188c0-59.777344 48.460937-108.238281 108.238281-108.238281s108.238282 48.460937 108.238282 108.238281zm0 0" fill="#ffc1b8"/><path d="m223.464844 115.722656c0 59.78125-48.46875 108.242188-108.238282 108.242188-4.050781 0-8.0625-.222656-11.992187-.667969 54.132813-5.957031 96.246094-51.84375 96.246094-107.574219 0-55.730468-42.113281-101.613281-96.246094-107.570312 3.929687-.449219 7.941406-.667969 11.992187-.667969 59.769532 0 108.238282 48.457031 108.238282 108.238281zm0 0" fill="#ffb3a8"/><g fill="#e57670"><path d="m83.632812 89.265625c0 9.753906-7.902343 17.660156-17.65625 17.660156-9.75 0-17.65625-7.90625-17.65625-17.660156 0-9.75 7.90625-17.65625 17.65625-17.65625 9.753907 0 17.65625 7.90625 17.65625 17.65625zm0 0"/><path d="m71.574219 154.132812c0 6.660157-5.394531 12.054688-12.054688 12.054688-6.65625 0-12.054687-5.394531-12.054687-12.054688 0-6.65625 5.398437-12.054687 12.054687-12.054687 6.660157 0 12.054688 5.398437 12.054688 12.054687zm0 0"/><path d="m127.277344 115.242188c0 6.65625-5.394532 12.054687-12.054688 12.054687-6.65625 0-12.054687-5.398437-12.054687-12.054687 0-6.660157 5.398437-12.054688 12.054687-12.054688 6.660156 0 12.054688 5.394531 12.054688 12.054688zm0 0"/><path d="m155.304688 59.335938c0 13.242187-10.734376 23.976562-23.976563 23.976562s-23.976563-10.734375-23.976563-23.976562c0-13.242188 10.734376-23.976563 23.976563-23.976563s23.976563 10.734375 23.976563 23.976563zm0 0"/><path d="m139.199219 175.386719c0 13.238281-10.734375 23.972656-23.976563 23.972656-13.242187 0-23.976562-10.734375-23.976562-23.972656 0-13.242188 10.734375-23.976563 23.976562-23.976563 13.242188 0 23.976563 10.734375 23.976563 23.976563zm0 0"/><path d="m192.632812 127.300781c0 8.964844-7.269531 16.234375-16.234374 16.234375-8.964844 0-16.230469-7.269531-16.230469-16.234375 0-8.964843 7.265625-16.230469 16.230469-16.230469 8.964843 0 16.234374 7.265626 16.234374 16.230469zm0 0"/></g><path d="m71.441406 106.054688c-7.050781 2.300781-14.511718-.089844-18.992187-5.441407 2.082031.101563 4.199219-.167969 6.289062-.847656 9.273438-3.023437 14.339844-12.980469 11.332031-22.25-.71875-2.222656-1.851562-4.210937-3.269531-5.890625 7.121094.328125 13.628907 4.988281 15.96875 12.179688 3.019531 9.269531-2.058593 19.238281-11.328125 22.25zm0 0" fill="#e05c56"/><path d="m63.25 165.59375c-5.910156 1.921875-12.238281-.96875-14.710938-6.519531 1.300782.03125 2.621094-.160157 3.921876-.582031 6.328124-2.058594 9.789062-8.859376 7.730468-15.199219-.140625-.417969-.292968-.820313-.480468-1.207031 5.007812.066406 9.640624 3.289062 11.277343 8.316406 2.0625 6.332031-1.410156 13.132812-7.738281 15.191406zm0 0" fill="#e05c56"/><path d="m118.949219 126.703125c-5.679688 1.851563-11.738281-.75-14.410157-5.867187.570313-.101563 1.140626-.242188 1.710938-.421876 6.328125-2.058593 9.800781-8.859374 7.738281-15.199218-.207031-.652344-.476562-1.269532-.777343-1.859375 5.800781-.992188 11.609374 2.398437 13.480468 8.160156 2.058594 6.328125-1.410156 13.128906-7.742187 15.1875zm0 0" fill="#e05c56"/><path d="m138.75 82.132812c-8.660156 2.820313-17.761719.441407-23.929688-5.417968 3.640626.589844 7.46875.347656 11.21875-.871094 12.601563-4.101562 19.480469-17.628906 15.390626-30.21875-1.28125-3.929688-3.480469-7.3125-6.289063-9.960938 8.589844 1.378907 16.109375 7.410157 18.988281 16.25 4.101563 12.601563-2.789062 26.121094-15.378906 30.21875zm0 0" fill="#e05c56"/><path d="m122.640625 198.183594c-8.660156 2.820312-17.769531.441406-23.941406-5.417969 3.640625.589844 7.480469.347656 11.242187-.871094 12.589844-4.101562 19.480469-17.628906 15.378906-30.21875-1.28125-3.941406-3.480468-7.3125-6.289062-9.960937 8.589844 1.378906 16.117188 7.398437 18.988281 16.25 4.101563 12.597656-2.789062 26.121094-15.378906 30.21875zm0 0" fill="#e05c56"/><path d="m181.421875 142.734375c-6.691406 2.179687-13.773437-.230469-17.851563-5.492187 1.710938.011718 3.441407-.25 5.148438-.796876 8.519531-2.769531 13.191406-11.929687 10.410156-20.460937-.597656-1.832031-1.488281-3.480469-2.597656-4.921875 6.789062.0625 13.078125 4.402344 15.296875 11.222656 2.78125 8.519532-1.878906 17.679688-10.40625 20.449219zm0 0" fill="#e05c56"/><path d="m417.21875 155.605469h-16.933594c3.1875-11.4375 4.804688-24.378907 4.773438-38.917969v-.972656c0-14.359375-1.617188-27.136719-4.773438-38.453125h16.980469c8.277344 0 15.351563 5.925781 16.84375 14.066406 2.144531 11.722656 3.808594 29.773437-.054687 50.292969-1.527344 8.101562-8.589844 13.984375-16.835938 13.984375zm0 0" fill="#ffc1b8"/><path d="m77.15625 67.308594c-5.863281-2.988282-12.542969-3.507813-18.800781-1.472656-12.921875 4.199218-20.011719 18.132812-15.808594 31.054687 3.382813 10.394531 13.0625 17.019531 23.445313 17.019531 2.523437 0 5.085937-.390625 7.609374-1.210937 6.257813-2.035157 11.347657-6.386719 14.335938-12.253907 2.984375-5.867187 3.507812-12.542968 1.46875-18.800781-2.03125-6.261719-6.386719-11.351562-12.25-14.335937zm-1.667969 26.800781c-1.292969 2.539063-3.5 4.425781-6.210937 5.304687-5.589844 1.820313-11.628906-1.25-13.449219-6.84375-1.820313-5.597656 1.25-11.632812 6.847656-13.453124 1.085938-.355469 2.203125-.53125 3.3125-.53125 1.660157 0 3.308594.394531 4.832031 1.167968 2.539063 1.292969 4.425782 3.5 5.308594 6.210938.878906 2.710937.652344 5.601562-.640625 8.144531zm0 0"/><path d="m41.414062 160.023438c1.574219 4.835937 4.9375 8.769531 9.46875 11.078124 2.714844 1.382813 5.65625 2.082032 8.617188 2.082032 1.980469 0 3.972656-.3125 5.910156-.945313 4.835938-1.574219 8.769532-4.933593 11.078125-9.46875 2.308594-4.53125 2.710938-9.691406 1.136719-14.527343-1.570312-4.835938-4.933594-8.769532-9.464844-11.078126-4.535156-2.304687-9.695312-2.710937-14.527344-1.136718-9.984374 3.246094-15.46875 14.011718-12.21875 23.996094zm16.539063-10.714844c.515625-.167969 1.046875-.25 1.574219-.25.789062 0 1.574218.1875 2.292968.554687 1.207032.613281 2.105469 1.660157 2.523438 2.949219s.3125 2.664062-.304688 3.871094c-.613281 1.207031-1.660156 2.105468-2.949218 2.523437-1.289063.417969-2.660156.3125-3.871094-.304687-1.207031-.613282-2.105469-1.660156-2.523438-2.949219-.863281-2.660156.597657-5.527344 3.257813-6.394531zm0 0"/><path d="m97.117188 121.132812c1.574218 4.835938 4.9375 8.769532 9.46875 11.078126 2.714843 1.382812 5.65625 2.082031 8.617187 2.082031 1.980469 0 3.972656-.3125 5.910156-.945313 9.984375-3.246094 15.464844-14.011718 12.214844-23.996094-1.570313-4.835937-4.933594-8.769531-9.46875-11.078124-4.527344-2.304688-9.6875-2.710938-14.527344-1.136719-4.835937 1.574219-8.769531 4.933593-11.078125 9.46875-2.304687 4.53125-2.710937 9.691406-1.136718 14.527343zm13.585937-8.191406c.613281-1.207031 1.660156-2.105468 2.949219-2.523437.515625-.167969 1.046875-.25 1.574218-.25.789063 0 1.574219.1875 2.296876.554687 1.207031.613282 2.105468 1.664063 2.523437 2.949219.863281 2.660156-.597656 5.527344-3.257813 6.394531-1.285156.417969-2.660156.3125-3.867187-.304687-1.207031-.613281-2.105469-1.660157-2.523437-2.949219-.417969-1.289062-.308594-2.664062.304687-3.871094zm0 0"/><path d="m121.75 29.894531c-7.863281 2.554688-14.261719 8.023438-18.011719 15.394531-3.753906 7.371094-4.410156 15.761719-1.851562 23.625 4.25 13.0625 16.414062 21.382813 29.464843 21.382813 3.167969 0 6.386719-.492187 9.554688-1.519531 16.234375-5.285156 25.144531-22.789063 19.863281-39.019532-5.28125-16.234374-22.785156-25.144531-39.019531-19.863281zm14.835938 45.597657c-8.90625 2.902343-18.515626-1.988282-21.414063-10.898438-1.40625-4.316406-1.042969-8.921875 1.015625-12.964844 2.058594-4.046875 5.570312-7.046875 9.882812-8.453125 1.742188-.566406 3.507813-.832031 5.246094-.832031 7.160156 0 13.839844 4.566406 16.171875 11.734375 2.898438 8.910156-1.992187 18.515625-10.902343 21.414063zm0 0"/><path d="m85.78125 184.964844c4.25 13.0625 16.414062 21.382812 29.460938 21.382812 3.167968 0 6.390624-.492187 9.558593-1.519531 16.234375-5.28125 25.144531-22.789063 19.863281-39.019531-2.558593-7.867188-8.027343-14.261719-15.394531-18.011719-7.371093-3.753906-15.757812-4.410156-23.625-1.851563-16.234375 5.28125-25.144531 22.785157-19.863281 39.019532zm24.183594-25.738282c1.730468-.5625 3.507812-.84375 5.277344-.84375 2.640624 0 5.265624.625 7.691406 1.859376 4.042968 2.058593 7.042968 5.570312 8.449218 9.886718 2.898438 8.90625-1.992187 18.515625-10.902343 21.414063-8.910157 2.902343-18.515625-1.992188-21.417969-10.902344-2.898438-8.910156 1.992188-18.515625 10.902344-21.414063zm0 0"/><path d="m154.324219 134.484375c1.914062 5.898437 6.015625 10.695313 11.542969 13.507813 3.3125 1.6875 6.898437 2.539062 10.507812 2.539062 2.414062 0 4.84375-.382812 7.207031-1.152344 5.898438-1.917968 10.695313-6.019531 13.507813-11.542968 2.8125-5.527344 3.304687-11.816407 1.386718-17.714844-1.917968-5.898438-6.019531-10.695313-11.546874-13.507813-5.523438-2.8125-11.8125-3.304687-17.710938-1.386719-5.898438 1.917969-10.695312 6.019532-13.507812 11.542969-2.816407 5.527344-3.308594 11.820313-1.386719 17.714844zm13.832031-11.378906c1.121094-2.199219 3.03125-3.835938 5.378906-4.597657.945313-.308593 1.910156-.457031 2.871094-.457031 1.441406 0 2.867188.339844 4.1875 1.007813 2.203125 1.121094 3.835938 3.035156 4.601562 5.382812.761719 2.347656.566407 4.855469-.554687 7.054688-1.117187 2.203125-3.03125 3.835937-5.378906 4.601562-2.351563.761719-4.855469.566406-7.058594-.554687-2.199219-1.121094-3.832031-3.03125-4.597656-5.382813-.765625-2.347656-.570313-4.851562.550781-7.054687zm0 0"/><path d="m505.109375 122.640625c-1.078125-3.226563.191406-6.085937 2.53125-10.867187 2.4375-4.992188 5.476563-11.203126 3.945313-18.859376-2.925782-14.660156-17.660157-16.394531-26.175782-16.109374-15.863281.515624-30.832031 5.148437-45.3125 9.941406-3.246094-9.710938-12.355468-16.46875-22.832031-16.46875h-11.875c-8.800781-26.605469-26.304687-46.125-52.375-58.246094-21.59375-10.042969-45.867187-10.109375-67.335937-10.109375h-35.828126c-3.855468 0-6.984374 3.128906-6.984374 6.984375s3.128906 6.984375 6.984374 6.984375h35.394532c20.097656 0 42.945312 0 61.882812 8.804687 24.183594 11.246094 39.589844 29.390626 46.574219 55 1.519531 5.574219 2.570313 11.28125 3.269531 17.015626 1.09375 8.902343 1.441406 17.90625 1.0625 26.867187-.441406 10.539063-1.585937 19.511719-4.328125 29.574219-6.980469 25.621094-22.390625 43.769531-46.582031 55.019531-18.800781 8.746094-41.425781 8.808594-61.449219 8.808594h-.429687l-115.074219-.003907c35.875-19.546874 60.273437-57.605468 60.273437-101.253906 0-42.613281-23.257812-79.898437-57.742187-99.832031h44.386719c3.855468 0 6.984375-3.128906 6.984375-6.984375s-3.128907-6.984375-6.984375-6.984375c0 0-95.34375-1.421875-101.867188-1.421875-63.535156 0-115.222656 51.691406-115.222656 115.222656 0 15.832032 3.152344 31.171875 9.375 45.59375 1.527344 3.542969 5.636719 5.175782 9.179688 3.648438 3.539062-1.527344 5.171874-5.636719 3.644531-9.179688-5.460938-12.664062-8.230469-26.144531-8.230469-40.0625 0-55.832031 45.421875-101.253906 101.253906-101.253906 55.832032 0 101.257813 45.421875 101.257813 101.253906 0 55.832032-45.425781 101.257813-101.257813 101.257813-29.410156 0-57.324218-12.765625-76.589844-35.027344-2.527343-2.914063-6.9375-3.234375-9.851562-.707031-2.917969 2.523437-3.234375 6.933594-.710938 9.851562 21.921876 25.324219 53.6875 39.847656 87.152344 39.847656h170.023438.433594c21.472656 0 45.746093-.066406 67.339843-10.105468 26.066407-12.125 43.570313-31.640625 52.371094-58.25h11.832031c10.597656 0 19.824219-6.9375 22.960938-16.851563 16.105468 4.050781 37.515625 8.855469 48.5625 8.855469 1.898437 0 3.492187-.144531 4.699218-.457031 6.679688-1.726563 11.066407-4.667969 13.410157-8.992188 3.589843-6.625 1.199219-13.734375-1.328125-21.261719zm-77.921875 17.6875c-.90625 4.808594-5.097656 8.292969-9.96875 8.292969h-8.09375c1.277344 0 2.898438-22.539063 2.984375-24.523438.371094-8.738281-.058594-17.5-.957031-26.195312-.011719-.148438-.03125-.292969-.042969-.441406-.480469-4.558594-1.132813-8.976563-1.984375-13.214844h8.140625c4.894531 0 9.089844 3.507812 9.972656 8.339844 2.007813 10.988281 3.632813 28.191406-.050781 47.742187zm67.902344-34.691406c-2.75 5.625-6.167969 12.625-3.230469 21.425781l.425781 1.269531c1.679688 5.003907 4.902344 10.90625-2.382812 12.296875-2.839844.539063-6.089844-.15625-8.898438-.550781-12.964844-1.820313-25.800781-4.964844-38.480468-8.160156 1.261718-11.78125.921874-22.460938-.019532-31.253907 14.15625-4.707031 28.761719-9.425781 43.359375-9.898437 10.964844-.351563 11.710938 3.3125 12.027344 4.882813.574219 2.882812-.6875 5.671874-2.800781 9.988281zm0 0"/></svg>