<svg height="511pt" viewBox="-97 1 511 511.99535" width="511pt" xmlns="http://www.w3.org/2000/svg"><path d="m7.078125 434.589844c-5.144531 19.453125 5.039063 40.054687 23.613281 47.789062 9.996094 4.160156 20.566406 4.050782 29.824219.605469 3.195313-1.1875 6.746094.023437 8.550781 2.914063 5.230469 8.386718 13.535156 14.929687 23.992188 17.738281 19.429687 5.21875 40.082031-4.878907 47.882812-23.421875 9.238282-21.953125-2.15625-46.746094-24.308594-54.296875-1.355468-.460938-2.71875-.84375-4.082031-1.15625l22.652344-66.457031-52.210937-17.796876-22.589844 66.269532c-.304688-.109375-.605469-.234375-.914063-.339844-22.15625-7.546875-46.320312 5.125-52.410156 28.152344zm0 0" fill="#e7e7e7"/><path d="m140.941406 480.214844c-5.660156 13.441406-18.070312 22.457031-31.882812 24.394531 3.792968-3.664063 6.902344-8.121094 9.046875-13.214844 9.230469-21.953125-2.15625-46.746093-24.308594-54.300781-.011719-.007812-.027344-.011719-.039063-.015625-2.171874-.726563-3.34375-3.0625-2.554687-5.207031l26.355469-79.578125 17.640625 6.015625-22.65625 66.453125c1.371093.316406 2.730469.695312 4.089843 1.160156 22.152344 7.546875 33.542969 32.339844 24.308594 54.292969zm0 0" fill="#cecece"/><path d="m47.527344 112.957031c26.894531-78.898437 105.71875-123.414062 176.0625-99.4375 70.34375 23.976563 105.566406 107.371094 78.671875 186.265625-14.167969 41.566406-42.753907 73.574219-76.917969 91.058594-27.84375 14.246094-48.898438 37.097656-58.492188 65.242188-2.195312 6.4375-9.800781 9.667968-16.992187 7.21875l-81.527344-27.792969c-7.191406-2.449219-11.242187-9.65625-9.046875-16.089844 9.59375-28.144531 6.878906-59.101563-6.464844-87.386719-16.375-34.707031-19.460937-77.511718-5.292968-119.078125zm0 0" fill="#bc7d53"/><path d="m302.265625 199.785156c-14.167969 41.570313-42.753906 73.570313-76.917969 91.054688-27.839844 14.25-48.898437 37.105468-58.492187 65.242187-1.699219 4.984375-6.632813 8.042969-12.101563 8.042969-1.609375 0-3.269531-.269531-4.894531-.824219l-18.648437-6.351562c2.253906-1.382813 4.023437-3.457031 4.90625-6.050781 9.589843-28.136719 30.648437-50.992188 58.492187-65.238282 34.164063-17.488281 62.75-49.488281 76.917969-91.058594 26.894531-78.894531-8.332032-162.285156-78.667969-186.265624-1.257813-.425782-2.53125-.84375-3.800781-1.21875 11.554687.4375 23.164062 2.519531 34.53125 6.402343 70.34375 23.980469 105.5625 107.371094 78.675781 186.265625zm0 0" fill="#af663e"/><path d="m312.214844 101.585938c-1.046875-3.714844-4.910156-5.878907-8.621094-4.832032-3.714844 1.046875-5.878906 4.90625-4.832031 8.621094 8.378906 29.730469 7.304687 61.597656-3.113281 92.15625-12.984376 38.09375-39.773438 69.835938-73.488282 87.089844-29.941406 15.320312-51.933594 39.902344-61.921875 69.210937-.554687 1.628907-1.957031 2.429688-2.742187 2.761719-1.625.691406-3.535156.722656-5.378906.09375l-81.53125-27.789062c-3.472657-1.183594-5.617188-4.492188-4.6875-7.222657 9.992187-29.308593 7.589843-62.203125-6.757813-92.621093-16.160156-34.253907-17.984375-75.75-4.996094-113.84375 12.449219-36.53125 36.796875-66.527344 68.554688-84.464844 31.496093-17.789063 66.527343-21.558594 98.632812-10.613282 27.734375 9.453126 51.117188 29.570313 65.839844 56.640626 1.847656 3.390624 6.089844 4.644531 9.480469 2.800781 3.386718-1.847657 4.640625-6.089844 2.796875-9.480469-16.402344-30.160156-42.542969-52.601562-73.605469-63.191406-35.933594-12.246094-75.003906-8.101563-110.015625 11.671875-34.75 19.625-61.355469 52.34375-74.914063 92.128906-14.144531 41.496094-12.109374 86.804687 5.585938 124.3125 12.792969 27.121094 14.984375 56.292969 6.167969 82.152344-3.433594 10.070312 2.582031 21.269531 13.40625 24.957031l8.046875 2.742188-18.191406 53.371093c-10.582032-2.195312-21.496094-.730469-31.28125 4.289063-11.589844 5.941406-20.058594 16.09375-23.847657 28.578125-1.121093 3.695312.964844 7.597656 4.65625 8.714843 3.691407 1.121094 7.597657-.964843 8.71875-4.65625 2.679688-8.828124 8.660157-16.003906 16.847657-20.199218 8.191406-4.199219 17.496093-4.878906 26.214843-1.910156.113281.039062.222657.085937.335938.125l.414062.15625c1.765625.648437 3.71875.558593 5.417969-.25 1.699219-.8125 3-2.273438 3.609375-4.054688l20.332031-59.65625 38.980469 13.289062-20.394531 59.839844c-.640625 1.875-.453125 3.929688.507812 5.65625.964844 1.730469 2.617188 2.96875 4.542969 3.410156 1.167969.269532 2.308594.589844 3.390625.960938 8.929688 3.042969 15.972656 9.460938 19.839844 18.066406 3.863281 8.605469 3.960937 18.15625.28125 26.902344-6.46875 15.378906-23.503906 23.714844-39.625 19.382812-8.300782-2.230468-15.359375-7.445312-19.875-14.683593-3.539063-5.671875-10.652344-8.09375-16.917969-5.769531-7.996094 2.976562-16.769531 2.792968-24.703125-.507813-6.707031-2.792969-12.222656-7.625-15.949219-13.972656-1.953125-3.328125-6.238281-4.441407-9.566406-2.488281-3.328125 1.957031-4.441406 6.238281-2.488281 9.566406 5.28125 8.984375 13.105468 15.832031 22.632812 19.796875 11.210938 4.667969 23.621094 4.917969 34.945313.707031.089843-.03125.140625-.011719.1875.0625 6.394531 10.253906 16.375 17.632812 28.105469 20.785156 4.066406 1.09375 8.171874 1.617188 12.226562 1.617188 18.726562 0 36.375-11.167969 43.910156-29.078125 5.199219-12.355469 5.050782-25.867188-.414062-38.042969-5.015625-11.167969-14.21875-20.015625-25.503906-24.613281l18.097656-53.089844 8.046875 2.742187c2.34375.796876 4.761719 1.195313 7.152343 1.195313 2.820313 0 5.609376-.554687 8.203126-1.65625 5.0625-2.148437 8.792968-6.097656 10.503906-11.117187 8.8125-25.855469 28.367187-47.617188 55.058594-61.277344 36.921874-18.890625 66.207031-53.527344 80.351562-95.023438 11.335938-33.246094 12.492188-67.984375 3.339844-100.449218zm0 0"/></svg>