<svg height="481pt" viewBox="-4 0 481 481.096" width="481pt" xmlns="http://www.w3.org/2000/svg"><path d="m224.046875 393.097656h16v88h-16zm0 0" fill="#6a9eaa"/><path d="m112.046875 393.097656h16v88h-16zm0 0" fill="#6a9eaa"/><path d="m336.046875 393.097656h16v88h-16zm0 0" fill="#6a9eaa"/><path d="m248.046875 409.097656c0-15.664062 16-15.664062 16-31.320312s-16-15.664063-16-31.328125c0-15.664063 16-15.632813 16-31.273438s-16-15.632812-16-31.265625c0-15.628906 16-15.621094 16-31.253906s-16-15.640625-16-31.273438c0-15.628906 16-15.628906 16-31.261718 0-15.632813-16-15.640625-16-31.273438 0-15.632812 16-15.625 16-31.253906 0-15.632812-16-15.617188-16-31.242188s16-23.625 16-39.253906c0-32-40-48-40-48s-32 24-24 56c3.792969 15.160156 16 15.628906 16 31.253906s-16 15.625-16 31.242188c0 15.613281 16 15.628906 16 31.253906s-16 15.632813-16 31.273438 16 15.632812 16 31.261718c0 15.632813-16 15.632813-16 31.273438s16 15.632812 16 31.253906c0 15.625-16 15.632813-16 31.265625 0 15.632813 16 15.640625 16 31.273438 0 15.628906-16 15.664062-16 31.328125 0 15.664062 16 15.65625 16 31.320312 0 8.835938 7.164063 16 16 16s16-7.164062 16-16zm0 0" fill="#67c086"/><path d="m152.046875 385.097656c0-18.523437-16-18.523437-16-37.042968 0-18.519532 16-18.519532 16-37.03125 0-18.511719-16-18.511719-16-37.015626 0-18.503906 16-18.488281 16-36.984374 0-18.496094-16-18.488282-16-36.96875 0-18.480469 16-18.496094 16-36.992188s-16-18.488281-16-36.984375c0-18.492187 11.511719-19.039063 16-36.980469 8-32-24-56-24-56-40 24-40 56-40 56 0 18.496094 16 18.496094 16 36.980469 0 18.488281-16 18.496094-16 36.984375s16 18.496094 16 36.992188c0 18.496093-16 18.480468-16 36.96875 0 18.488281 16 18.496093 16 36.984374 0 18.488282-16 18.503907-16 37.015626 0 18.511718 16 18.511718 16 37.03125 0 18.519531-16 18.519531-16 37.042968 0 0 0 32 32 32s32-32 32-32zm0 0" fill="#67c086"/><path d="m312.046875 385.097656c0-18.523437 16-18.523437 16-37.042968 0-18.519532-16-18.519532-16-37.03125 0-18.511719 16-18.511719 16-37.015626 0-18.503906-16-18.488281-16-36.984374 0-18.496094 16-18.488282 16-36.96875 0-18.480469-16-18.496094-16-36.992188s16-18.488281 16-36.984375c0-18.492187-11.511719-19.039063-16-36.980469-8-32 24-56 24-56 40 24 40 56 40 56 0 18.496094-16 18.496094-16 36.980469 0 18.488281 16 18.496094 16 36.984375s-16 18.496094-16 36.992188c0 18.496093 16 18.480468 16 36.96875 0 18.488281-16 18.496093-16 36.984374 0 18.488282 16 18.503907 16 37.015626 0 18.511718-16 18.511718-16 37.03125 0 18.519531 16 18.519531 16 37.042968 0 0 0 32-32 32s-32-32-32-32zm0 0" fill="#67c086"/><g fill="#cfdfe8"><path d="m112.125 87.964844 8.011719-55.996094 15.839843 2.265625-8.011718 55.996094zm0 0"/><path d="m216.15625 10.414062 15.78125-2.628906 8 48-15.78125 2.628906zm0 0"/><path d="m90.390625 222.757812 11.316406-11.3125 15.996094 15.996094-11.3125 11.3125zm0 0"/><path d="m114.394531 299.4375 24.003907-24.003906 11.3125 11.316406-24.003907 24zm0 0"/><path d="m90.390625 366.757812 11.316406-11.3125 24 24-11.3125 11.316407zm0 0"/><path d="m114.394531 155.4375 24.003907-24 11.3125 11.3125-24.003907 24zm0 0"/><path d="m328.128906 34.222656 15.839844-2.261718 8 56-15.839844 2.261718zm0 0"/><path d="m346.394531 227.4375 15.996094-15.996094 11.316406 11.3125-16 16zm0 0"/><path d="m314.390625 286.757812 11.316406-11.3125 24 24-11.3125 11.3125zm0 0"/><path d="m338.394531 379.4375 24.003907-24 11.3125 11.3125-24.003907 24zm0 0"/><path d="m314.390625 142.757812 11.316406-11.3125 24 24-11.3125 11.316407zm0 0"/><path d="m202.394531 110.75 11.3125-11.3125 24 24-11.3125 11.316406zm0 0"/><path d="m226.394531 187.4375 24.003907-24 11.3125 11.3125-24.003907 24zm0 0"/><path d="m202.390625 238.757812 11.3125-11.316406 24.003906 24.003906-11.3125 11.3125zm0 0"/><path d="m226.390625 315.433594 24.003906-24 11.3125 11.3125-24 24.003906zm0 0"/><path d="m202.394531 358.753906 11.316407-11.3125 24 24-11.3125 11.3125zm0 0"/></g><path d="m440.046875 145.097656c0 8.835938-7.164063 16-16 16s-16-7.164062-16-16c0-8.839844 7.164063-16 16-16s16 7.160156 16 16zm0 0" fill="#7fcac9"/><path d="m80.046875 25.097656c0 8.835938-7.164063 16-16 16s-16-7.164062-16-16c0-8.839844 7.164063-16 16-16s16 7.160156 16 16zm0 0" fill="#7fcac9"/><path d="m424.046875 25.097656c0 8.835938-7.164063 16-16 16s-16-7.164062-16-16c0-8.839844 7.164063-16 16-16s16 7.160156 16 16zm0 0" fill="#7fcac9"/><path d="m64.046875 193.097656c0 8.835938-7.164063 16-16 16s-16-7.164062-16-16c0-8.839844 7.164063-16 16-16s16 7.160156 16 16zm0 0" fill="#7fcac9"/><path d="m40.046875 393.097656c0 8.835938-7.164063 16-16 16s-16-7.164062-16-16c0-8.839844 7.164063-16 16-16s16 7.160156 16 16zm0 0" fill="#7fcac9"/><path d="m464.046875 305.097656c0 8.835938-7.164063 16-16 16s-16-7.164062-16-16c0-8.839844 7.164063-16 16-16s16 7.160156 16 16zm0 0" fill="#7fcac9"/><path d="m272.046875 57.097656c0-36.992187-43.199219-54.699218-45.023437-55.433594l-4.175782-1.664062-3.601562 2.695312c-1.476563 1.113282-36.140625 27.609376-26.957032 64.335938 1.769532 6.757812 5.324219 12.914062 10.285157 17.824219 3.464843 2.8125 5.472656 7.035156 5.472656 11.496093 0 4.257813-1.710937 6.113282-5.597656 9.894532-6.574219 5.136718-10.414063 13.011718-10.414063 21.351562s3.839844 16.210938 10.414063 21.347656c3.878906 3.78125 5.597656 5.597657 5.597656 9.902344 0 4.304688-1.710937 6.128906-5.597656 9.921875-6.570313 5.136719-10.410157 13.011719-10.410157 21.351563s3.839844 16.214844 10.410157 21.351562c3.878906 3.792969 5.597656 5.648438 5.597656 9.910156 0 4.265626-1.710937 6.128907-5.597656 9.914063-6.570313 5.136719-10.410157 13.011719-10.410157 21.351563 0 8.339843 3.839844 16.214843 10.410157 21.351562 3.878906 3.792969 5.597656 5.648438 5.597656 9.921875 0 4.269531-1.710937 6.117187-5.597656 9.910156-6.570313 5.136719-10.410157 13.011719-10.410157 21.351563s3.839844 16.214844 10.410157 21.351562c3.878906 3.785156 5.597656 5.648438 5.597656 9.914063 0 4.261719-1.710937 6.152343-5.597656 9.941406-6.558594 5.160156-10.386719 13.039063-10.386719 21.382813 0 8.339843 3.828125 16.222656 10.386719 21.378906 3.886719 3.792968 5.597656 5.65625 5.597656 9.945312-.128906 10.226563 6.324219 19.382813 16 22.703125v49.296875h16v-49.296875c9.675781-3.320312 16.128906-12.476562 16-22.703125 0-4.289062 1.714844-6.152344 5.601563-9.945312 6.558593-5.15625 10.386718-13.039063 10.386718-21.378906 0-8.34375-3.828125-16.222657-10.386718-21.382813-3.886719-3.789063-5.601563-5.65625-5.601563-9.941406 0-4.289063 1.714844-6.128907 5.601563-9.914063 6.570312-5.136718 10.410156-13.011718 10.410156-21.351562s-3.839844-16.214844-10.410156-21.351563c-3.878907-3.792969-5.601563-5.648437-5.601563-9.910156 0-4.265625 1.714844-6.128906 5.601563-9.921875 6.570312-5.136719 10.410156-13.011719 10.410156-21.351562 0-8.339844-3.839844-16.214844-10.410156-21.351563-3.878907-3.785156-5.601563-5.648437-5.601563-9.914063 0-4.261718 1.714844-6.117187 5.601563-9.910156 6.570312-5.136718 10.410156-13.011718 10.410156-21.351562s-3.839844-16.214844-10.410156-21.351563c-3.878907-3.792969-5.601563-5.648437-5.601563-9.921875 0-4.273437 1.714844-6.121094 5.601563-9.902344 6.570312-5.136718 10.414062-13.007812 10.414062-21.347656s-3.84375-16.214844-10.414062-21.351562c-3.871094-3.78125-5.601563-5.597656-5.601563-9.894532.644531-5.59375 2.949219-10.867187 6.625-15.136718 5.601563-6.84375 8.882813-15.289063 9.375-24.117188zm-22.621094 15.148438c-5.601562 6.839844-8.882812 15.28125-9.378906 24.105468.105469 8.3125 3.921875 16.140626 10.402344 21.34375 3.878906 3.785157 5.597656 5.601563 5.597656 9.898438 0 4.292969-1.710937 6.117188-5.597656 9.902344-6.480469 5.210937-10.292969 13.039062-10.402344 21.351562-.046875 4.179688.953125 8.308594 2.914063 12l-16.570313 16.566406 11.3125 11.3125 15.585937-15.582031c1.832032 1.839844 2.828126 4.355469 2.757813 6.953125 0 4.261719-1.710937 6.125-5.597656 9.910156-6.570313 5.136719-10.410157 13.011719-10.410157 21.351563s3.839844 16.214844 10.410157 21.351563c3.878906 3.792968 5.597656 5.648437 5.597656 9.914062 0 4.261719-1.710937 6.128906-5.597656 9.917969-6.488281 5.214843-10.304688 13.054687-10.402344 21.378906-.078125 4.917969 1.316406 9.753906 4 13.878906l-17.597656 17.597657 11.3125 11.3125 16.8125-16.816407c1.027343 1.574219 1.542969 3.429688 1.472656 5.304688 0 4.265625-1.710937 6.121093-5.597656 9.914062-6.570313 5.144531-10.40625 13.023438-10.40625 21.367188s3.835937 16.222656 10.40625 21.367187c3.886719 3.792969 5.597656 5.65625 5.597656 9.945313 0 4.285156-1.710937 6.144531-5.597656 9.933593-6.457031 5.203126-10.269531 13.007813-10.402344 21.296876.019531 4.417968-3.542969 8.015624-7.960937 8.035156-4.421876.019531-8.019532-3.542969-8.039063-7.960938-.105469-8.324218-3.917969-16.164062-10.398437-21.386718-3.878907-3.789063-5.601563-5.65625-5.601563-9.933594.054687-3.492188 1.726563-6.757813 4.519531-8.847656l13.824219 13.824218 11.3125-11.3125-15.429687-15.433594c1.199218-3.054687 1.804687-6.316406 1.773437-9.601562-.117187-8.296875-3.929687-16.109375-10.398437-21.308594-3.878907-3.792968-5.601563-5.648437-5.601563-9.914062 0-4.261719 1.714844-6.128906 5.601563-9.917969 6.570312-5.136719 10.410156-13.011719 10.410156-21.351563 0-8.335937-3.839844-16.210937-10.410156-21.347656-3.878907-3.789062-5.601563-5.644531-5.601563-9.917968-.058594-2.230469.691406-4.40625 2.113281-6.128907l16.230469 16.234375 11.3125-11.3125-17.070313-17.074218c2.304688-3.933594 3.488282-8.425782 3.414063-12.984376-.105469-8.3125-3.917969-16.144531-10.398437-21.351562-3.878907-3.785156-5.601563-5.648438-5.601563-9.910156 0-4.265625 1.714844-6.128906 5.601563-9.914063 6.570312-5.136719 10.410156-13.015625 10.410156-21.355469 0-8.339843-3.839844-16.21875-10.410156-21.355468-3.878907-3.785156-5.601563-5.601563-5.601563-9.902344-.042969-2.960938 1.222656-5.789062 3.457031-7.730469l14.886719 14.890625 11.3125-11.3125-16.054687-16.058594c1.621093-3.449218 2.441406-7.21875 2.398437-11.03125.046875-8.417968-3.433594-16.472656-9.597656-22.207031-3.1875-2.980469-5.492188-6.78125-6.65625-10.984375-2.515625-13.523437 1.527343-27.4375 10.902343-37.503906l5.464844 32.75 15.777344-2.621094-5.289062-31.730468c9.832031 6.722656 21.398437 17.839843 21.398437 33.042968-.640625 5.597656-2.949219 10.875-6.621094 15.148438zm0 0"/><path d="m159.808594 91.03125c9.183594-36.726562-25.480469-63.199219-26.960938-64.335938l-4.304687-3.199218-4.613281 2.769531c-43.386719 26.03125-43.882813 61.335937-43.882813 62.832031-.035156 8.929688 3.558594 17.492188 9.953125 23.726563 3.839844 3.332031 6.046875 8.167969 6.046875 13.253906 0 5.089844-2.207031 9.925781-6.046875 13.257813-6.367188 6.253906-9.953125 14.804687-9.953125 23.726562 0 8.925781 3.585937 17.476562 9.953125 23.730469 3.839844 3.332031 6.046875 8.167969 6.046875 13.253906s-2.207031 9.921875-6.046875 13.257813c-6.363281 6.253906-9.949219 14.800781-9.949219 23.722656s3.585938 17.472656 9.949219 23.726562c3.828125 3.339844 6.027344 8.175782 6.027344 13.257813s-2.199219 9.917969-6.027344 13.261719c-6.367188 6.261718-9.953125 14.820312-9.953125 23.75 0 8.933593 3.585937 17.488281 9.953125 23.753906 3.847656 3.339844 6.058594 8.1875 6.058594 13.285156s-2.210938 9.945312-6.058594 13.289062c-6.394531 6.242188-9.984375 14.808594-9.953125 23.746094-.589844 19.234375 13.042969 35.984375 32 39.308594v56.691406h16v-56.691406c18.957031-3.324219 32.59375-20.074219 32-39.308594.035156-8.9375-3.550781-17.503906-9.941406-23.746094-3.851563-3.34375-6.0625-8.191406-6.0625-13.289062s2.210937-9.945312 6.0625-13.285156c6.363281-6.265625 9.949219-14.820313 9.949219-23.753906 0-8.929688-3.585938-17.488282-9.949219-23.75l-.457031-.496094-.265626-.265625c-3.453124-3.234375-5.386718-7.773438-5.335937-12.503907.03125-5.078124 2.230469-9.90625 6.050781-13.253906 6.363282-6.253906 9.949219-14.804687 9.949219-23.726562s-3.585937-17.46875-9.949219-23.722656c-3.84375-3.335938-6.050781-8.171876-6.050781-13.257813s2.207031-9.921875 6.050781-13.253906c6.363282-6.253907 9.949219-14.804688 9.949219-23.730469 0-8.921875-3.585937-17.472656-9.949219-23.726562-3.820312-3.351563-6.019531-8.175782-6.050781-13.257813-.171875-5.722656 1.9375-11.285156 5.863281-15.453125 4.695313-5.726562 8.074219-12.414062 9.898438-19.59375zm-15.519532-3.871094c-1.320312 5.117188-3.78125 9.867188-7.199218 13.894532-6.011719 6.933593-9.234375 15.851562-9.042969 25.023437-.066406 4.492187.839844 8.941406 2.65625 13.050781l-16.3125 16.3125 11.3125 11.3125 14.402344-14.402344c2.636719 2.933594 4.050781 6.769532 3.941406 10.710938-.027344 5.082031-2.230469 9.90625-6.046875 13.257812-6.367188 6.253907-9.953125 14.804688-9.953125 23.726563 0 8.925781 3.585937 17.476563 9.953125 23.730469 3.839844 3.332031 6.046875 8.164062 6.046875 13.25 0 5.085937-2.207031 9.921875-6.046875 13.253906-6.394531 6.234375-9.988281 14.796875-9.953125 23.726562-.015625 3.464844.527344 6.914063 1.601563 10.207032l-15.199219 15.199218 11.3125 11.3125 12.613281-12.613281c3.636719 3.300781 5.699219 7.992188 5.671875 12.902344-.023437 5.09375-2.226563 9.933594-6.054687 13.296875-6.363282 6.265625-9.949219 14.820312-9.949219 23.75 0 8.933594 3.585937 17.488281 9.949219 23.753906 3.824218 3.359375 6.027343 8.191406 6.054687 13.28125.34375 6.460938-2.074219 12.769532-6.652344 17.34375-4.578125 4.578125-10.882812 6.996094-17.347656 6.65625-6.464844.34375-12.769531-2.074218-17.347656-6.652344-4.578125-4.578124-6.996094-10.882812-6.652344-17.347656-.113281-3.464844.980469-6.859375 3.097656-9.601562l15.246094 15.246094 11.3125-11.308594-16.925781-16.929688c2.242187-4.480468 3.363281-9.4375 3.269531-14.449218.039063-8.9375-3.546875-17.511719-9.941406-23.757813-3.847657-3.34375-6.054688-8.1875-6.054688-13.285156 0-5.09375 2.207031-9.941407 6.054688-13.285157 6.363281-6.253906 9.949219-14.804687 9.949219-23.730468 0-8.925782-3.585938-17.476563-9.949219-23.730469-3.820313-3.347656-6.023438-8.164063-6.058594-13.242187-.066406-2.445313.464844-4.875 1.546875-7.070313l8.796875 8.800781 11.3125-11.3125-10.398437-10.402344c3.230468-5.066406 4.878906-10.980468 4.742187-16.992187.042969-8.9375-3.550781-17.511719-9.949219-23.75-3.84375-3.335937-6.050781-8.171875-6.050781-13.257813 0-5.085937 2.207031-9.921874 6.050781-13.253906 6.363282-6.253906 9.949219-14.804687 9.949219-23.730468 0-8.921876-3.585937-17.472657-9.949219-23.726563-3.800781-3.324219-6-8.113281-6.050781-13.160156 1.734375-15.160157 9.4375-29.007813 21.410156-38.472657l-5.328125 37.257813 15.839844 2.269531 5.734375-40.191406c9.183594 10.015625 13.105469 23.777344 10.585937 37.128906zm0 0"/><path d="m384.046875 89.097656c0-1.496094-.503906-36.800781-43.878906-62.859375l-4.617188-2.742187-4.304687 3.199218c-1.476563 1.113282-36.140625 27.609376-26.957032 64.335938 1.820313 7.179688 5.199219 13.867188 9.894532 19.59375 3.925781 4.167969 6.035156 9.730469 5.863281 15.453125-.027344 5.082031-2.230469 9.90625-6.046875 13.257813-6.367188 6.253906-9.953125 14.804687-9.953125 23.726562 0 8.925781 3.585937 17.476562 9.953125 23.730469 3.839844 3.332031 6.046875 8.167969 6.046875 13.253906s-2.207031 9.921875-6.046875 13.257813c-6.363281 6.253906-9.949219 14.800781-9.949219 23.722656s3.585938 17.472656 9.949219 23.726562c3.816406 3.347656 6.019531 8.175782 6.046875 13.253906.03125 4.730469-1.921875 9.261719-5.390625 12.480469l-.265625.265625-.414063.492188c-6.367187 6.265625-9.953124 14.824218-9.953124 23.753906s3.585937 17.488281 9.953124 23.753906c3.847657 3.339844 6.058594 8.1875 6.058594 13.285156 0 5.097657-2.210937 9.945313-6.058594 13.289063-6.390624 6.25-9.972656 14.828125-9.929687 23.769531-.589844 19.234375 13.042969 35.984375 32 39.308594v56.691406h16v-56.691406c18.957031-3.324219 32.59375-20.074219 32-39.308594.035156-8.9375-3.550781-17.503906-9.941406-23.746094-3.851563-3.34375-6.0625-8.191406-6.0625-13.289062s2.210937-9.945312 6.0625-13.285156c6.363281-6.265625 9.949219-14.820313 9.949219-23.753906 0-8.929688-3.585938-17.488282-9.949219-23.75-3.832031-3.34375-6.027344-8.179688-6.027344-13.261719s2.195313-9.917969 6.027344-13.257813c6.363281-6.253906 9.949219-14.804687 9.949219-23.726562s-3.585938-17.46875-9.949219-23.722656c-3.84375-3.335938-6.050781-8.171876-6.050781-13.257813s2.207031-9.921875 6.050781-13.253906c6.363281-6.253907 9.949219-14.804688 9.949219-23.730469 0-8.921875-3.585938-17.472656-9.949219-23.726562-3.84375-3.332032-6.050781-8.167969-6.050781-13.257813 0-5.085937 2.207031-9.921875 6.050781-13.253906 6.390625-6.234375 9.980469-14.796875 9.941406-23.726563zm-22.046875 13.253906c-6.367188 6.253907-9.953125 14.804688-9.953125 23.726563 0 8.925781 3.585937 17.476563 9.953125 23.730469 3.839844 3.332031 6.046875 8.167968 6.046875 13.253906s-2.207031 9.921875-6.046875 13.257812c-6.394531 6.234376-9.988281 14.796876-9.953125 23.726563-.136719 6.011719 1.515625 11.925781 4.746094 16.992187l-10.402344 10.402344 11.3125 11.3125 8.800781-8.800781c1.082032 2.195313 1.613282 4.625 1.542969 7.070313-.027344 5.082031-2.230469 9.90625-6.046875 13.257812-6.367188 6.253906-9.953125 14.804688-9.953125 23.730469s3.585937 17.476562 9.953125 23.730469c3.847656 3.34375 6.054688 8.191406 6.054688 13.285156 0 5.097656-2.207032 9.941406-6.054688 13.285156-6.394531 6.242188-9.984375 14.808594-9.953125 23.742188-.09375 5.015624 1.027344 9.972656 3.273437 14.457031l-16.929687 16.929687 11.3125 11.3125 15.25-15.257812c2.113281 2.726562 3.207031 6.105468 3.09375 9.550781 0 13.257813-10.742187 24-24 24-13.253906 0-24-10.742187-24-24 .039063-5.074219 2.238281-9.894531 6.050781-13.246094 6.363282-6.265625 9.945313-14.824219 9.945313-23.753906s-3.582031-17.484375-9.945313-23.75c-3.820312-3.359375-6.023437-8.195313-6.050781-13.28125-.003906-4.910156 2.078125-9.59375 5.730469-12.878906l12.613281 12.617187 11.3125-11.3125-15.199219-15.203125c1.074219-3.292969 1.617188-6.738281 1.601563-10.207031.03125-8.929688-3.558594-17.492188-9.953125-23.726562-3.839844-3.332032-6.046875-8.167969-6.046875-13.253907 0-5.082031 2.207031-9.917969 6.046875-13.25 6.367187-6.253906 9.949218-14.804687 9.949218-23.730469 0-8.921874-3.582031-17.472656-9.949218-23.726562-3.847656-3.347656-6.070313-8.183594-6.105469-13.28125-.113281-3.945312 1.292969-7.789062 3.929687-10.726562l14.398438 14.398437 11.3125-11.308594-16.3125-16.3125c1.820312-4.101562 2.730469-8.546875 2.671875-13.035156.179687-9.160156-3.042969-18.0625-9.046875-24.980469-3.417969-4.03125-5.878906-8.78125-7.199219-13.898437-2.519531-13.347657 1.402344-27.105469 10.582031-37.121094l5.738282 40.195313 15.839844-2.273438-5.320313-37.304688c11.953125 9.449219 19.65625 23.265626 21.40625 38.402344-.027344 5.078125-2.230469 9.902344-6.046875 13.253906zm0 0"/><path d="m400.046875 145.097656c0 13.253906 10.746094 24 24 24 13.257813 0 24-10.746094 24-24 0-13.257812-10.742187-24-24-24-13.253906 0-24 10.742188-24 24zm32 0c0 4.417969-3.582031 8-8 8s-8-3.582031-8-8c0-4.421875 3.582031-8 8-8s8 3.578125 8 8zm0 0"/><path d="m64.046875 1.097656c-13.253906 0-24 10.742188-24 24 0 13.253906 10.746094 24 24 24 13.257813 0 24-10.746094 24-24 0-13.257812-10.742187-24-24-24zm0 32c-4.417969 0-8-3.582031-8-8 0-4.421875 3.582031-8 8-8s8 3.578125 8 8c0 4.417969-3.582031 8-8 8zm0 0"/><path d="m408.046875 1.097656c-13.253906 0-24 10.742188-24 24 0 13.253906 10.746094 24 24 24 13.257813 0 24-10.746094 24-24 0-13.257812-10.742187-24-24-24zm0 32c-4.417969 0-8-3.582031-8-8 0-4.421875 3.582031-8 8-8s8 3.578125 8 8c0 4.417969-3.582031 8-8 8zm0 0"/><path d="m24.046875 193.097656c0 13.253906 10.746094 24 24 24 13.257813 0 24-10.746094 24-24 0-13.257812-10.742187-24-24-24-13.253906 0-24 10.742188-24 24zm24-8c4.417969 0 8 3.578125 8 8 0 4.417969-3.582031 8-8 8s-8-3.582031-8-8c0-4.421875 3.582031-8 8-8zm0 0"/><path d="m.046875 393.097656c0 13.253906 10.746094 24 24 24 13.257813 0 24-10.746094 24-24 0-13.257812-10.742187-24-24-24-13.253906 0-24 10.742188-24 24zm32 0c0 4.417969-3.582031 8-8 8s-8-3.582031-8-8c0-4.421875 3.582031-8 8-8s8 3.578125 8 8zm0 0"/><path d="m448.046875 281.097656c-13.253906 0-24 10.742188-24 24 0 13.253906 10.746094 24 24 24 13.257813 0 24-10.746094 24-24 0-13.257812-10.742187-24-24-24zm0 32c-4.417969 0-8-3.582031-8-8 0-4.421875 3.582031-8 8-8s8 3.578125 8 8c0 4.417969-3.582031 8-8 8zm0 0"/></svg>