<svg height="512pt" viewBox="-14 0 512 512.00075" width="512pt" xmlns="http://www.w3.org/2000/svg"><path d="m326.753906 165.96875c-.011718 0-3.453125-54.082031-6.34375-79.496094-.640625-5.601562-1.320312-11.199218-2.09375-16.78125-1.539062-11.128906-3.410156-22.214844-5.957031-33.125-1.699219-7.265625-4.0625-14.363281-7.859375-20.664062-2.304688-3.824219.21875-8.90625 4.425781-8.90625h37.320313c3.398437 0 6.492187 2.164062 7.863281 5.542968 5.367187 13.21875 13.324219 53.28125 21.792969 153.425782 0 .003906-49.101563.003906-49.148438.003906zm0 0" fill="#e7e7e7"/><path d="m375.898438 165.96875s-10.703126 0-22.128907 0c-8.46875-100.144531-16.425781-140.207031-21.792969-153.421875-1.371093-3.390625-4.46875-5.546875-7.867187-5.546875h22.140625c3.398438 0 6.488281 2.15625 7.855469 5.546875 5.371093 13.214844 13.328125 53.277344 21.792969 153.421875zm0 0" fill="#cecece"/><path d="m477.800781 399.449219c-.621093-15.273438-3.984375-30.832031-6.875-45.890625-6.367187-33.128906-15.5625-63.335938-26.339843-95.65625-7.707032-23.097656-12.816407-40.503906-27.96875-79.238282-2.988282-7.65625-10.367188-12.695312-18.582032-12.695312h-44.503906c-1.808594 0-3.570312.238281-5.238281.699219.136719.039062.269531.082031.40625.125-1.804688-.535157-3.695313-.824219-5.640625-.824219h-44.503906c-9.496094 0-17.679688 6.6875-19.554688 15.996094-3.847656 19.105468-10.449219 48.851562-11.304688 51.550781-10.746093 33.863281-27.582031 57.34375-51.960937 82.515625-28.605469 29.535156-45.886719 54.953125-38.226563 97.277344 3.789063 20.921875 13.890626 40.324218 28.910157 55.375 16.484375 16.523437 38.101562 27.335937 60.726562 32.550781 14.261719 3.289063 29.039063 3.617187 43.597657 2.886719 54.375-2.726563 122.644531-10.660156 155.269531-60.921875 7.949219-12.246094 12.480469-26.726563 11.789062-43.75zm0 0" fill="#704138"/><path d="m477.800781 399.449219c-.621093-15.273438-3.976562-30.835938-6.878906-45.890625-6.367187-33.128906-15.5625-63.339844-26.339844-95.65625-7.703125-23.101563-12.8125-40.503906-27.96875-79.238282-2.988281-7.65625-10.363281-12.695312-18.582031-12.695312h-28.109375c8.21875 0 15.59375 5.039062 18.582031 12.695312 15.15625 38.734376 20.265625 56.136719 27.96875 79.238282 10.777344 32.316406 19.976563 62.527344 26.339844 95.65625 2.890625 15.054687 6.261719 30.617187 6.878906 45.890625.691406 17.023437-3.847656 31.5-11.796875 43.753906-32.027343 49.34375-98.402343 57.878906-152.261719 60.765625 8.347657.640625 16.765626.570312 25.109376.152344 54.371093-2.730469 122.644531-10.65625 155.261718-60.917969 7.957032-12.253906 12.488282-26.730469 11.796875-43.753906zm0 0" fill="#633029"/><path d="m343.058594 165.96875h-44.507813c-9.492187 0-17.675781 6.6875-19.550781 15.996094-3.847656 19.105468-10.453125 48.851562-11.308594 51.546875-10.742187 33.867187-27.578125 57.34375-51.957031 82.515625-28.605469 29.539062-45.890625 54.957031-38.226563 97.28125 3.785157 20.917968 13.890626 40.320312 28.90625 55.375 53.996094 54.121094 169.835938 47.761718 206.183594-24.851563 13.980469-27.929687 8.992188-60.871093 3.347656-90.277343-6.363281-33.128907-15.566406-63.335938-26.339843-95.652344-7.703125-23.101563-12.8125-40.5-27.964844-79.242188-2.992187-7.652344-10.367187-12.691406-18.582031-12.691406zm0 0" fill="#ffc1b8"/><path d="m412.59375 443.832031c-22.449219 44.855469-75.230469 64.425781-125.03125 60.070313 40.792969-3.550782 79.539062-23.324219 97.933594-60.070313 13.984375-27.929687 8.996094-60.867187 3.347656-90.273437-6.359375-33.128906-15.5625-63.339844-26.339844-95.65625-7.695312-23.101563-12.804687-40.503906-27.957031-79.238282-3-7.65625-10.367187-12.695312-18.585937-12.695312h27.101562c8.207031 0 15.582031 5.039062 18.582031 12.695312 15.15625 38.734376 20.261719 56.136719 27.960938 79.238282 10.773437 32.316406 19.972656 62.527344 26.339843 95.65625 5.644532 29.40625 10.632813 62.34375-3.351562 90.273437zm0 0" fill="#ffb3a8"/><path d="m303.121094 230.550781c-8.875 13.574219-11.972656 34.921875-16.683594 46.601563-6.871094 17.050781-12.886719 34.820312-24.222656 49.710937-13.492188 17.71875-37.183594 29.710938-45.792969 50.800781-18.515625 45.339844 22.527344 82.191407 65.972656 88.789063 35.648438 5.414063 71.207031-4.515625 85.128907-38.761719 10.738281-26.414062 8.925781-60.039062 6.625-87.949218-2.4375-29.558594-8.898438-58.769532-18.75-86.878907-4.699219-13.398437-9.125-31.21875-26.273438-34.285156-12.308594-2.203125-20.335938 3.300781-26.003906 11.972656zm0 0" fill="#e57670"/><path d="m367.523438 427.6875c-13.324219 32.769531-46.453126 43.273438-80.519532 39.375 23.960938-3.015625 44.742188-15.074219 54.617188-39.375 10.746094-26.410156 8.925781-60.035156 6.628906-87.945312-2.4375-29.558594-8.894531-58.769532-18.753906-86.878907-3.828125-10.914062-7.464844-24.738281-17.941406-31.15625 4.648437-3.070312 10.382812-4.410156 17.570312-3.128906 17.144531 3.066406 21.574219 20.882813 26.269531 34.285156 9.847657 28.109375 16.316407 57.320313 18.753907 86.878907 2.300781 27.910156 4.109374 61.535156-6.625 87.945312zm0 0" fill="#e05c56"/><path d="m158.089844 165.96875c-.011719 0-3.453125-54.082031-6.34375-79.496094-.640625-5.601562-1.320313-11.199218-2.09375-16.78125-1.539063-11.128906-3.410156-22.214844-5.957032-33.125-1.699218-7.265625-4.0625-14.363281-7.859374-20.664062-2.304688-3.824219.21875-8.90625 4.425781-8.90625h37.320312c3.398438 0 6.492188 2.164062 7.863281 5.542968 5.367188 13.21875 13.324219 53.28125 21.792969 153.425782 0 .003906-49.101562.003906-49.148437.003906zm0 0" fill="#e7e7e7"/><path d="m207.234375 165.96875s-10.703125 0-22.132813 0c-8.464843-100.144531-16.421874-140.207031-21.789062-153.421875-1.371094-3.390625-4.46875-5.546875-7.867188-5.546875h22.140626c3.398437 0 6.488281 2.15625 7.855468 5.546875 5.371094 13.214844 13.328125 53.277344 21.792969 153.421875zm0 0" fill="#cecece"/><path d="m309.136719 399.449219c-.621094-15.273438-3.984375-30.832031-6.875-45.890625-6.367188-33.128906-15.5625-63.335938-26.339844-95.65625-7.707031-23.097656-12.816406-40.503906-27.96875-79.238282-2.988281-7.65625-10.367187-12.695312-18.582031-12.695312h-44.503906c-1.808594 0-3.570313.238281-5.238282.699219.136719.039062.269532.082031.40625.125-1.804687-.535157-3.695312-.824219-5.640625-.824219h-44.503906c-9.496094 0-17.679687 6.6875-19.554687 15.996094-3.847657 19.105468-10.449219 48.851562-11.304688 51.550781-10.746094 33.863281-27.582031 57.34375-51.960938 82.515625-28.605468 29.535156-45.886718 54.953125-38.226562 97.277344 3.785156 20.921875 13.890625 40.324218 28.910156 55.375 16.484375 16.523437 38.101563 27.335937 60.726563 32.550781 14.261719 3.289063 29.039062 3.617187 43.597656 2.886719 54.375-2.726563 122.644531-10.660156 155.269531-60.921875 7.949219-12.246094 12.480469-26.726563 11.789063-43.75zm0 0" fill="#704138"/><path d="m309.136719 399.449219c-.621094-15.273438-3.976563-30.835938-6.878907-45.890625-6.367187-33.128906-15.5625-63.339844-26.339843-95.65625-7.707031-23.101563-12.8125-40.503906-27.96875-79.238282-2.988281-7.65625-10.363281-12.695312-18.582031-12.695312h-28.109376c8.21875 0 15.59375 5.039062 18.582032 12.695312 15.15625 38.734376 20.265625 56.136719 27.96875 79.238282 10.777344 32.316406 19.972656 62.527344 26.339844 95.65625 2.890624 15.054687 6.257812 30.617187 6.878906 45.890625.691406 17.023437-3.847656 31.5-11.796875 43.753906-32.027344 49.34375-98.402344 57.878906-152.261719 60.765625 8.347656.640625 16.765625.570312 25.109375.152344 54.371094-2.730469 122.644531-10.65625 155.261719-60.917969 7.957031-12.253906 12.488281-26.730469 11.796875-43.753906zm0 0" fill="#633029"/><path d="m174.394531 165.96875h-44.507812c-9.496094 0-17.675781 6.6875-19.550781 15.996094-3.847657 19.105468-10.453126 48.851562-11.308594 51.546875-10.742188 33.867187-27.578125 57.34375-51.957032 82.515625-28.605468 29.539062-45.890624 54.957031-38.226562 97.28125 3.785156 20.917968 13.890625 40.320312 28.90625 55.375 53.996094 54.121094 169.835938 47.761718 206.183594-24.851563 13.980468-27.929687 8.992187-60.871093 3.347656-90.277343-6.363281-33.128907-15.566406-63.335938-26.339844-95.652344-7.703125-23.101563-12.8125-40.5-27.964844-79.242188-2.992187-7.652344-10.367187-12.691406-18.582031-12.691406zm0 0" fill="#ffc1b8"/><path d="m243.933594 443.832031c-22.453125 44.855469-75.234375 64.425781-125.035156 60.070313 40.796874-3.550782 79.539062-23.324219 97.933593-60.070313 13.984375-27.929687 8.996094-60.867187 3.347657-90.273437-6.355469-33.128906-15.5625-63.339844-26.339844-95.65625-7.695313-23.101563-12.804688-40.503906-27.957032-79.238282-3-7.65625-10.367187-12.695312-18.585937-12.695312h27.101563c8.207031 0 15.585937 5.039062 18.582031 12.695312 15.15625 38.734376 20.265625 56.136719 27.960937 79.238282 10.773438 32.316406 19.972656 62.527344 26.339844 95.65625 5.648438 29.40625 10.636719 62.34375-3.347656 90.273437zm0 0" fill="#ffb3a8"/><path d="m134.457031 230.550781c-8.875 13.574219-11.972656 34.921875-16.679687 46.601563-6.875 17.050781-12.890625 34.820312-24.226563 49.710937-13.492187 17.71875-37.179687 29.710938-45.792969 50.800781-18.515624 45.339844 22.527344 82.191407 65.972657 88.789063 35.648437 5.414063 71.207031-4.515625 85.128906-38.761719 10.742187-26.414062 8.925781-60.039062 6.625-87.949218-2.4375-29.558594-8.898437-58.769532-18.75-86.878907-4.695313-13.398437-9.125-31.21875-26.273437-34.285156-12.308594-2.203125-20.335938 3.300781-26.003907 11.972656zm0 0" fill="#e57670"/><path d="m198.859375 427.6875c-13.328125 32.769531-46.453125 43.273438-80.519531 39.375 23.960937-3.015625 44.742187-15.074219 54.617187-39.375 10.746094-26.410156 8.925781-60.035156 6.628907-87.945312-2.4375-29.558594-8.898438-58.769532-18.753907-86.878907-3.828125-10.914062-7.464843-24.738281-17.941406-31.15625 4.648437-3.070312 10.382813-4.410156 17.570313-3.128906 17.144531 3.066406 21.574218 20.882813 26.269531 34.285156 9.847656 28.109375 16.316406 57.320313 18.753906 86.878907 2.300781 27.910156 4.109375 61.535156-6.625 87.945312zm0 0" fill="#e05c56"/><path d="m193.496094 250.5c-5.34375-16.867188-12.132813-35.292969-31.804688-38.8125-9.503906-1.699219-22.953125-.472656-33.089844 15.03125-6.367187 9.738281-9.835937 22.355469-12.898437 33.492188-2.070313 7.53125-4.671875 14.910156-7.507813 22.121093-5.742187 14.613281-11.171874 28.417969-20.210937 40.292969-4.933594 6.476562-11.449219 12.21875-18.347656 18.296875-11.082031 9.761719-22.539063 19.851563-28.355469 34.097656-8.429688 20.636719-6.207031 41.96875 6.257812 60.058594 2.191407 3.183594 6.546876 3.988281 9.730469 1.792969 3.183594-2.191406 3.984375-6.546875 1.792969-9.730469-6.859375-9.957031-13.265625-26.167969-4.828125-46.832031 4.578125-11.203125 14.328125-19.792969 24.652344-28.886719 7.109375-6.261719 14.457031-12.738281 20.230469-20.316406 10.222656-13.425781 16.261718-28.792969 22.105468-43.65625 3.121094-7.941407 5.691406-15.226563 7.976563-23.53125 2.789062-10.140625 5.949219-21.636719 11.117187-29.539063 4.976563-7.613281 10.808594-10.363281 18.914063-8.914062 16.496093 2.957031 20.878906 28.859375 24.960937 41.992187 7.359375 23.679688 12.28125 48.136719 14.320313 72.859375 2.308593 28.023438 3.929687 59.988282-6.132813 84.738282-5.832031 14.347656-16.109375 24.574218-30.554687 30.402343-13.222657 5.332031-29.488281 6.742188-47.042969 4.078125-11.652344-1.769531-23.113281-5.871094-33.148438-11.863281-3.316406-1.980469-7.613281-.898437-9.59375 2.417969-1.980468 3.316406-.898437 7.613281 2.417969 9.59375 11.578125 6.917968 24.796875 11.648437 38.222657 13.6875 6.652343 1.011718 13.082031 1.507812 19.261718 1.507812 34.988282 0 61.765625-15.925781 73.402344-44.550781 11.222656-27.605469 9.558594-61.53125 7.117188-91.160156-2.257813-27.363281-7.898438-54.421875-16.386719-80.519531-.855469-2.625-1.699219-5.367188-2.578125-8.148438zm0 0"/><path d="m484.792969 399.167969c-.566407-13.945313-3.289063-27.910157-5.925781-41.417969-.359376-1.84375-.71875-3.679688-1.070313-5.515625-6.71875-34.964844-16.742187-67.066406-26.574219-96.546875-1.484375-4.453125-2.871094-8.691406-4.253906-12.914062-5.671875-17.320313-11.539062-35.226563-23.832031-66.65625-4.066407-10.417969-13.917969-17.148438-25.101563-17.148438 0 0-6.847656 0-15.707031 0-6.878906-79.472656-14.382813-130.957031-21.734375-149.058594-2.445312-6.019531-8.078125-9.910156-14.347656-9.910156h-37.320313c-4.410156 0-8.371093 2.351562-10.597656 6.292969-2.324219 4.113281-2.257813 9.183593.175781 13.222656 2.992188 4.964844 5.230469 10.886719 7.039063 18.640625 2.226562 9.535156 4.136719 20.164062 5.84375 32.492188.683593 4.964843 1.34375 10.246093 2.070312 16.617187 2.054688 18.050781 4.390625 50.519531 5.816407 71.703125h-20.722657c-12.78125 0-23.886719 9.089844-26.410156 21.613281-1.679687 8.339844-3.800781 18.300781-5.742187 27.203125-3.234376-8.984375-7.082032-19.269531-11.929688-31.667968-4.066406-10.417969-13.917969-17.148438-25.101562-17.148438 0 0-6.847657 0-15.707032 0-6.878906-79.472656-14.378906-130.957031-21.734375-149.058594-2.441406-6.019531-8.074219-9.910156-14.34375-9.910156h-37.320312c-4.410157 0-8.371094 2.351562-10.597657 6.292969-2.324218 4.113281-2.257812 9.183593.179688 13.222656 2.988281 4.964844 5.226562 10.886719 7.035156 18.640625 2.226563 9.535156 4.136719 20.164062 5.84375 32.492188.683594 4.945312 1.339844 10.226562 2.070313 16.617187 2.054687 18.050781 4.390625 50.519531 5.816406 71.703125h-20.722656c-12.78125 0-23.886719 9.089844-26.410157 21.613281-3.953124 19.621094-10.355468 48.296875-11.117187 50.816407-4.964844 15.648437-11.226563 28.808593-18.679687 40.691406-7.488282 11.800781-17.476563 24.421875-31.421876 38.847656-.074218.074219-.144531.148438-.214843.222656-11.765625 12.152344-21.457031 23.585938-28.558594 35.433594-8.875 14.8125-13.703125 30.273438-13.4765625 48.601562.0742187 6.105469.7109375 12.535157 1.9492185 19.359376 2.78125 15.359374 8.636719 29.75 17.191407 42.472656.0625.089844.117187.1875.179687.277344.054687.078124.109375.15625.164063.234374 3.898437 5.726563 8.339843 11.113282 13.304687 16.089844.957031.957032 1.933594 1.898438 2.929687 2.824219 16.289063 15.210937 37.34375 26.105469 61.179688 31.601563 9.976562 2.300781 20.175781 3.269531 30.402344 3.378906 31.277344.339844 64.394531-3 94.726562-11.078125 4.003906-1.066407 7.988282-2.253907 11.933594-3.566407 9.78125 4.871094 20.378906 8.675782 31.601562 11.265626 31.378907 7.234374 63.5625 3.199218 95.109376-1.574219 29.296874-4.433594 59.179687-12.613281 83.425781-30.308594 10.921875-7.96875 20.40625-17.8125 27.773437-29.160156 9.277344-14.292969 13.621094-30.390625 12.914063-47.84375zm-165.621094-364.195313c-1.960937-8.394531-4.421875-15.121094-7.691406-20.976562h34.765625c.539062 0 1.09375.472656 1.378906 1.179687 3.917969 9.636719 11.730469 41.121094 20.65625 143.792969h-34.980469c-1.429687-21.285156-3.824219-54.703125-5.941406-73.285156-.738281-6.488282-1.40625-11.875-2.109375-16.953125-1.765625-12.757813-3.753906-23.800781-6.078125-33.757813zm-168.664063 0c-1.960937-8.394531-4.421874-15.121094-7.691406-20.976562h34.765625c.539063 0 1.09375.472656 1.378907 1.179687 3.917968 9.636719 11.730468 41.121094 20.65625 143.792969h-13.414063c-6.890625 0-11.804687 0-11.808594 0h-9.757812c-1.429688-21.285156-3.824219-54.703125-5.941407-73.285156-.738281-6.507813-1.410156-11.890625-2.109374-16.953125-1.765626-12.757813-3.753907-23.800781-6.078126-33.757813zm-22.542968 462.449219c-25.046875-.78125-50.519532-7.808594-71.292969-22.109375-25.808594-17.761719-41.964844-47.976562-42.597656-79.175781-.125-6.347657.40625-12.714844 1.820312-18.910157 4.546875-19.960937 17.242188-36.753906 36.203125-56.328124 17.277344-17.84375 32.882813-37.433594 43.652344-59.9375 3-6.265626 5.535156-12.832032 7.742188-19.570313 5.808593-17.738281 9.328124-36.683594 13-54.582031.246093-1.203125.480468-2.359375.703124-3.460938 1.210938-6.015625 6.550782-10.382812 12.691407-10.382812h28.1875.015625 16.320312c5.363282.007812 10.089844 3.242187 12.046875 8.246094 12.179688 31.125 17.726563 48.074218 23.597657 66.015624 1.378906 4.210938 2.765624 8.441407 4.246093 12.886719 11.195313 33.578125 19.917969 62.542969 26.105469 94.761719 5.644531 29.390625 10.082031 60.222656-2.730469 85.824219-14.445312 28.859375-44.257812 48.886719-81.785156 54.945312-9.152344 1.476563-18.65625 2.066407-27.925781 1.777344zm85.804687-9.429687c15.6875-10.65625 28.1875-24.574219 36.421875-41.027344 14.773438-29.519532 10.058594-62.984375 3.960938-94.730469-6.707032-34.914063-16.734375-67.035156-26.574219-96.546875-4.53125-13.601562-8.773437-26.96875-13.53125-40.535156-4.59375-13.109375-9.492187-26.105469-14.554687-39.042969-.425782-1.09375-.933594-2.136719-1.480469-3.144531h31.359375c5.375 0 10.109375 3.234375 12.066406 8.246094 12.152344 31.066406 17.695312 47.996093 23.566406 65.917968 11.585938 35.382813 23.320313 70.972656 30.386719 107.746094.355469 1.84375.714844 3.695312 1.078125 5.550781 2.535156 12.992188 5.152344 26.429688 5.675781 39.308594.589844 14.5-3 27.84375-10.667969 39.652344-17.261718 26.597656-45.675781 40.796875-77.707031 48.605469zm110.785157 7.652343c-3.496094.566407-7.003907.984375-10.515626 1.289063-1.214843.070312-2.4375.136718-3.648437.199218-4.96875.246094-9.617187.34375-14.019531.289063-15.117188-.5-29.902344-3.308594-43.460938-8.160156 9.4375-4.429688 18.394532-9.773438 26.527344-16.214844.632812.105469 1.265625.226563 1.90625.324219 6.652344 1.007812 13.082031 1.503906 19.261719 1.503906 34.988281 0 61.761719-15.921875 73.398437-44.546875 11.226563-27.605469 9.558594-61.53125 7.117188-91.160156-1.457032-17.648438-4.59375-36.65625-9.074219-54.96875-.917969-3.753907-4.707031-6.054688-8.460937-5.132813-3.753907.917969-6.050782 4.707032-5.132813 8.460938 4.308594 17.609375 7.324219 35.863281 8.71875 52.789062 2.3125 28.019532 3.933594 59.988282-6.128906 84.738282-5.832031 14.347656-16.113281 24.574218-30.554688 30.402343-10.839843 4.371094-23.726562 6.09375-37.691406 5.109375 1.390625-1.535156 2.738281-3.109375 4.042969-4.734375 2.273437-2.832031 4.398437-5.777343 6.375-8.824219 9.277344-14.289062 13.621094-30.386718 12.914062-47.84375-.566406-13.941406-3.289062-27.910156-5.925781-41.417968-.359375-1.84375-.71875-3.679688-1.070313-5.511719-4.628906-24.09375-10.828124-46.828125-17.453124-68.28125 2.324218-6.707031 4.367187-13.441406 6.179687-20.035156 2.792969-10.140625 5.953125-21.636719 11.117187-29.539063 4.980469-7.617187 10.8125-10.363281 18.914063-8.914062 10.699219 1.914062 14.871094 11.945312 19.597656 25.90625.4375 1.296875.871094 2.570312 1.304688 3.808594l.363281 1.042968c1.265625 3.652344 5.253906 5.585938 8.902344 4.320313 3.652344-1.265625 5.585937-5.25 4.320312-8.902344l-.378906-1.089844c-.417969-1.191406-.832031-2.414062-1.257812-3.664062-4.523438-13.367188-10.722657-31.679688-30.386719-35.195313-9.503907-1.699218-22.957031-.472656-33.09375 15.03125-6.363281 9.738282-9.832031 22.351563-12.894531 33.488282-.046876.167968-.097657.332031-.144532.496093-.554687-1.679687-1.109375-3.351562-1.664062-5.015625-1.484375-4.453125-2.871094-8.691406-4.253906-12.914062-1.058594-3.230469-2.125-6.484375-3.238282-9.839844 2.117188-8.671875 7.703125-34.253906 10.792969-49.589844 1.210937-6.015625 6.550781-10.378906 12.691406-10.378906h28.1875.015625 16.320313c5.363281.007812 10.09375 3.242188 12.050781 8.242188 12.175781 31.128906 17.722656 48.078124 23.597656 66.019531 1.378906 4.210937 2.761719 8.441406 4.242188 12.882812 11.195312 33.578125 19.917968 62.546875 26.105468 94.765625 5.644532 29.386719 10.085938 60.222656-2.730468 85.824219-14.445313 28.855469-44.253906 48.882813-81.785156 54.941406zm135.585937-56.253906c-17.261719 26.59375-45.675781 40.796875-77.707031 48.601563 15.6875-10.65625 28.1875-24.574219 36.421875-41.027344 14.773437-29.519532 10.058593-62.984375 3.960937-94.730469-6.707031-34.914063-16.734375-67.035156-26.574218-96.546875-2.921876-8.765625-5.691407-17.390625-8.605469-26.125-1.683594-5.03125-3.394531-10.054688-5.152344-15.058594-4.527344-12.890625-9.351563-25.671875-14.328125-38.394531-.425781-1.09375-.933594-2.136719-1.484375-3.144531h31.363281c5.371094 0 10.109375 3.234375 12.066406 8.246094 5.054688 12.953124 9.96875 25.964843 14.558594 39.089843 4.667969 13.339844 8.832032 26.457031 13.285156 39.8125 5.15625 15.464844 10.132813 30.988281 14.566407 46.675781 4.9375 17.460938 9.15625 35.882813 12.621093 53.640626 2.53125 12.992187 5.152344 26.425781 5.675782 39.300781.589844 14.503906-3 27.847656-10.667969 39.660156zm0 0"/></svg>