<svg height="480pt" viewBox="-40 0 480 480" width="480pt" xmlns="http://www.w3.org/2000/svg"><path d="m8 248v80c0 61.855469 50.144531 112 112 112h-24v32h208v-32h-24c61.855469 0 112-50.144531 112-112v-80zm0 0" fill="#f9ddac"/><g fill="#f3bb59"><path d="m8 248h384v32h-384zm0 0"/><path d="m224 432h72v16h-72zm0 0"/><path d="m192 432h16v16h-16zm0 0"/></g><path d="m104 248s40-200 208-216c0 0-24 120 8 216zm0 0" fill="#aabece"/><path d="m120 120h-16c.132812-9.148438 3.539062-17.945312 9.601562-24.800781 3.945313-4.09375 6.226563-9.511719 6.398438-15.199219-.171875-5.6875-2.453125-11.105469-6.398438-15.199219-6.0625-6.855469-9.46875-15.652343-9.601562-24.800781.136719-9.148438 3.539062-17.945312 9.601562-24.800781 3.9375-4.101563 6.21875-9.515625 6.398438-15.199219h16c-.136719 9.148438-3.539062 17.945312-9.601562 24.800781-3.9375 4.101563-6.21875 9.515625-6.398438 15.199219.171875 5.6875 2.453125 11.105469 6.398438 15.199219 6.0625 6.855469 9.46875 15.652343 9.601562 24.800781-.132812 9.148438-3.539062 17.945312-9.601562 24.800781-3.945313 4.09375-6.226563 9.511719-6.398438 15.199219zm0 0" fill="#e97424"/><path d="m56 208h-16c.132812-9.148438 3.539062-17.945312 9.601562-24.800781 4.09375-3.996094 6.40625-9.476563 6.40625-15.199219s-2.3125-11.203125-6.40625-15.199219c-12.796874-14.058593-12.796874-35.542969 0-49.601562 3.9375-4.101563 6.21875-9.515625 6.398438-15.199219h16c-.136719 9.148438-3.539062 17.945312-9.601562 24.800781-4.09375 3.996094-6.402344 9.476563-6.402344 15.199219s2.308594 11.203125 6.402344 15.199219c12.789062 14.0625 12.789062 35.539062 0 49.601562-3.945313 4.09375-6.226563 9.511719-6.398438 15.199219zm0 0" fill="#e97424"/><path d="m368 168h-16c.132812-9.148438 3.539062-17.945312 9.601562-24.800781 4.09375-3.996094 6.40625-9.476563 6.40625-15.199219s-2.3125-11.203125-6.40625-15.199219c-6.0625-6.855469-9.46875-15.652343-9.601562-24.800781.136719-9.148438 3.539062-17.945312 9.601562-24.800781 3.9375-4.101563 6.21875-9.515625 6.398438-15.199219h16c-.136719 9.148438-3.539062 17.945312-9.601562 24.800781-3.9375 4.101563-6.21875 9.515625-6.398438 15.199219.171875 5.6875 2.453125 11.105469 6.398438 15.199219 12.789062 14.0625 12.789062 35.539062 0 49.601562-3.945313 4.09375-6.226563 9.511719-6.398438 15.199219zm0 0" fill="#e97424"/><path d="m120 416c-69.601562 0-88-68-88-104h16c0 3.59375 1.03125 88 72 88zm0 0" fill="#f3bb59"/><path d="m151.953125 248.878906-15.90625-1.757812c7.695313-50.101563 30.875-96.542969 66.296875-132.800782l11.3125 11.3125c-32.699219 33.796876-54.238281 76.816407-61.703125 123.246094zm0 0" fill="#e8e8e8"/><path d="m218.347656 98.339844 15.996094-16 11.316406 11.316406-16 15.996094zm0 0" fill="#e8e8e8"/><path d="m0 328c.0703125 53.929688 36.042969 101.21875 88 115.671875v36.328125h224v-36.328125c51.957031-14.453125 87.929688-61.742187 88-115.671875v-88h-74.128906c-28.269532-91.902344-6.253906-205.273438-6.03125-206.398438.496094-2.480468-.210938-5.050781-1.902344-6.929687-1.703125-1.867187-4.179688-2.828125-6.699219-2.601563-154.636719 14.699219-204.742187 181.097657-213.558593 215.929688h-97.679688zm384 0c-.066406 57.410156-46.589844 103.933594-104 104h-56v16h72v16h-192v-16h16v-16c-57.410156-.066406-103.933594-46.589844-104-104v-40h368zm-81.742188-286.761719c-4.90625 30.625-15.90625 120 6.886719 198.761719h-155.671875c8.734375-43.078125 29.617188-82.753906 60.183594-114.34375l-11.3125-11.3125c-33.667969 34.527344-56.355469 78.25-65.199219 125.65625h-22.953125c10.304688-38.320312 56.839844-179.3125 188.066406-198.761719zm-286.257812 214.761719h368v16h-368zm0 0"/><path d="m192 432h16v16h-16zm0 0"/><path d="m104 120h16c.171875-5.6875 2.453125-11.105469 6.398438-15.199219 6.0625-6.855469 9.46875-15.652343 9.601562-24.800781-.132812-9.148438-3.539062-17.945312-9.601562-24.800781-3.945313-4.09375-6.226563-9.511719-6.398438-15.199219.179688-5.683594 2.460938-11.097656 6.398438-15.199219 6.0625-6.855469 9.464843-15.652343 9.601562-24.800781h-16c-.179688 5.683594-2.460938 11.097656-6.398438 15.199219-6.0625 6.855469-9.464843 15.652343-9.601562 24.800781.132812 9.148438 3.539062 17.945312 9.601562 24.800781 3.945313 4.09375 6.226563 9.511719 6.398438 15.199219-.171875 5.6875-2.453125 11.105469-6.398438 15.199219-6.0625 6.855469-9.46875 15.652343-9.601562 24.800781zm0 0"/><path d="m40 208h16c.171875-5.6875 2.453125-11.105469 6.398438-15.199219 12.789062-14.0625 12.789062-35.539062 0-49.601562-4.09375-3.996094-6.402344-9.476563-6.402344-15.199219s2.308594-11.203125 6.402344-15.199219c6.0625-6.855469 9.464843-15.652343 9.601562-24.800781h-16c-.179688 5.683594-2.460938 11.097656-6.398438 15.199219-12.796874 14.058593-12.796874 35.542969 0 49.601562 4.09375 3.996094 6.40625 9.476563 6.40625 15.199219s-2.3125 11.203125-6.40625 15.199219c-6.0625 6.855469-9.46875 15.652343-9.601562 24.800781zm0 0"/><path d="m352 168h16c.171875-5.6875 2.453125-11.105469 6.398438-15.199219 12.789062-14.0625 12.789062-35.539062 0-49.601562-3.945313-4.09375-6.226563-9.511719-6.398438-15.199219.179688-5.683594 2.460938-11.097656 6.398438-15.199219 6.0625-6.855469 9.464843-15.652343 9.601562-24.800781h-16c-.179688 5.683594-2.460938 11.097656-6.398438 15.199219-6.0625 6.855469-9.464843 15.652343-9.601562 24.800781.132812 9.148438 3.539062 17.945312 9.601562 24.800781 4.09375 3.996094 6.40625 9.476563 6.40625 15.199219s-2.3125 11.203125-6.40625 15.199219c-6.0625 6.855469-9.46875 15.652343-9.601562 24.800781zm0 0"/><path d="m120 416v-16c-70.96875 0-72-84.414062-72-88h-16c0 36 18.398438 104 88 104zm0 0"/><path d="m218.347656 98.339844 15.996094-16 11.316406 11.316406-16 15.996094zm0 0"/></svg>