<svg height="480pt" viewBox="0 -56 480 480" width="480pt" xmlns="http://www.w3.org/2000/svg"><path d="m8 8h464v352h-464zm0 0" fill="#f9ddac"/><path d="m168 288h16c26.507812 0 48-21.492188 48-48h-16c-26.507812 0-48 21.492188-48 48zm0 0" fill="#e97424"/><path d="m40 144h56v16h-56zm0 0" fill="#f3bb59"/><path d="m56 176h56v16h-56zm0 0" fill="#f3bb59"/><path d="m112 200h64l16-48h-96zm0 0" fill="#e97424"/><path d="m232 152v48h-56l16-48zm0 0" fill="#f3bb59"/><path d="m240 152c26.507812 0 48 21.492188 48 48h-56v-48zm0 0" fill="#e97424"/><path d="m256 240h-24v-40h56v8c0 17.671875-14.328125 32-32 32zm0 0" fill="#f3bb59"/><path d="m136 152h16v24h-16zm0 0" fill="#394d5c"/><path d="m40 56h56v16h-56zm0 0" fill="#f3bb59"/><path d="m56 88h56v16h-56zm0 0" fill="#f3bb59"/><path d="m112 112h64l16-48h-96zm0 0" fill="#e97424"/><path d="m232 64v48h-56l16-48zm0 0" fill="#f3bb59"/><path d="m240 64c26.507812 0 48 21.492188 48 48h-56v-48zm0 0" fill="#e97424"/><path d="m256 152h-24v-40h56v8c0 17.671875-14.328125 32-32 32zm0 0" fill="#f3bb59"/><path d="m136 64h16v24h-16zm0 0" fill="#394d5c"/><path d="m408.585938 143.894531c35.402343 33.300781 37.109374 88.992188 3.808593 124.398438-33.296875 35.402343-88.992187 37.109375-124.394531 3.8125l21.921875-23.304688c22.53125 21.1875 57.976563 20.101563 79.167969-2.433593 21.1875-22.53125 20.097656-57.976563-2.433594-79.167969zm0 0" fill="#f3bb59"/><path d="m386.65625 167.199219c22.53125 21.191406 23.621094 56.636719 2.433594 79.167969-21.191406 22.535156-56.636719 23.621093-79.167969 2.433593zm0 0" fill="#f9f443"/><path d="m376 40v16c0 26.507812-21.492188 48-48 48v-16c0-26.507812 21.492188-48 48-48zm0 0" fill="#67c086"/><path d="m408 64v16c0 26.507812-21.492188 48-48 48v-16c0-26.507812 21.492188-48 48-48zm0 0" fill="#67c086"/><path d="m120 280c0 17.671875-14.328125 32-32 32s-32-14.328125-32-32 14.328125-32 32-32 32 14.328125 32 32zm0 0" fill="#f98c96"/><g fill="#dd3e46"><path d="m312 144h16v16h-16zm0 0"/><path d="m240 288h16v16h-16zm0 0"/><path d="m136 232h16v16h-16zm0 0"/></g><path d="m389.078125 246.398438c7.582031-8.042969 12.59375-18.164063 14.402344-29.070313l-55.191407-9.328125 12.65625 54.542969c10.769532-2.472657 20.5625-8.09375 28.132813-16.144531zm0 0" fill="#fffaa4"/><path d="m95.566406 176h-39.566406v16h44.894531l3.511719 10.527344c1.089844 3.269531 4.148438 5.472656 7.59375 5.472656h64v40.878906c-10.257812 10.4375-16 24.488282-16 39.121094 0 4.417969 3.582031 8 8 8h16c27.8125-.03125 51.386719-20.472656 55.359375-48h16.640625c22.082031-.027344 39.972656-17.917969 40-40v-8c-.011719-17.445312-8.175781-33.882812-22.0625-44.441406 13.476562-6.738282 22.011719-20.492188 22.0625-35.558594v-8c-.035156-30.914062-25.085938-55.964844-56-56h-200v16h50.230469l5.335937 16h-39.566406v16h44.894531l3.511719 10.527344c1.089844 3.269531 4.148438 5.472656 7.59375 5.472656h112v24h-184v16h50.230469zm88.433594 104h-7.199219c3.824219-18.613281 20.199219-31.980469 39.199219-32h7.199219c-3.824219 18.613281-20.199219 31.980469-39.199219 32zm32-48c-8.308594.007812-16.511719 1.878906-24 5.480469v-29.480469h32v24zm40 0h-16v-24h40c0 13.253906-10.746094 24-24 24zm-16-40v-32c19 .019531 35.375 13.386719 39.199219 32zm16-48h-16v-24h40c0 13.253906-10.746094 24-24 24zm23.199219-40h-39.199219v-32c19 .019531 35.375 13.386719 39.199219 32zm-55.199219 0h-36.894531l10.664062-32h26.230469zm-116.902344-32h28.902344v16h16v-16h28.894531l-10.664062 32h-52.460938zm116.902344 120h-36.894531l10.664062-32h26.230469zm-88-32v16h16v-16h28.894531l-10.664062 32h-52.460938l-10.671875-32zm0 0"/><path d="m276.6875 272.449219 5.832031 5.480469c17.746094 16.789062 41.265625 26.121093 65.695313 26.070312 1 0 2.007812 0 3.015625-.046875 38.808593-1.191406 73.078125-25.640625 86.832031-61.949219 13.753906-36.3125 4.28125-77.328125-24-103.933594l-5.832031-5.476562zm132-116.953125c27.089844 30.988281 26.246094 77.472656-1.953125 107.457031-28.195313 29.984375-74.542969 33.679687-107.132813 8.542969l11.070313-11.777344c10.894531 7.992188 24.058594 12.292969 37.566406 12.28125h2.007813c24.445312-.703125 46.34375-15.285156 56.417968-37.566406 10.074219-22.28125 6.554688-48.355469-9.0625-67.167969zm-12.390625 51.03125v1.433594l-31.882813-5.367188 22.195313-23.59375c6.019531 7.941406 9.398437 17.566406 9.664063 27.527344zm-2.695313 17.214844c-4.457031 12.914062-14.226562 23.296874-26.839843 28.53125l-8-34.402344zm-49.738281.625 7.304688 31.496093c-.472657 0-.945313.097657-1.425781.113281-9.964844.367188-19.792969-2.433593-28.070313-8zm0 0"/><path d="m472 0h-464c-4.417969 0-8 3.582031-8 8v352c0 4.417969 3.582031 8 8 8h464c4.417969 0 8-3.582031 8-8v-352c0-4.417969-3.582031-8-8-8zm-8 352h-448v-336h448zm0 0"/><path d="m352.289062 106.398438c-.195312 1.863281-.289062 3.730468-.289062 5.601562v24h8c30.914062-.035156 55.964844-25.085938 56-56v-24h-8c-8.414062.003906-16.71875 1.917969-24.289062 5.601562.195312-1.863281.289062-3.730468.289062-5.601562v-24h-8c-30.914062.035156-55.964844 25.085938-56 56v24h8c8.414062-.003906 16.71875-1.917969 24.289062-5.601562zm47.710938-26.398438c-.019531 19-13.386719 35.375-32 39.199219v-7.199219c.019531-19 13.386719-35.375 32-39.199219zm-64 8c.019531-19 13.386719-35.375 32-39.199219v7.199219c-.019531 19-13.386719 35.375-32 39.199219zm0 0"/><path d="m88 240c-22.089844 0-40 17.910156-40 40s17.910156 40 40 40 40-17.910156 40-40c-.027344-22.082031-17.917969-39.972656-40-40zm0 64c-13.253906 0-24-10.746094-24-24s10.746094-24 24-24 24 10.746094 24 24-10.746094 24-24 24zm0 0"/><path d="m312 144h16v16h-16zm0 0"/><path d="m240 288h16v16h-16zm0 0"/><path d="m136 232h16v16h-16zm0 0"/></svg>