<svg height="480pt" viewBox="0 0 480 480" width="480pt" xmlns="http://www.w3.org/2000/svg"><path d="m8 104h464v272h-464zm0 0" fill="#f9ddac"/><path d="m56 424h16c0 26.507812-21.492188 48-48 48h-16c0-26.507812 21.492188-48 48-48zm0 0" fill="#f3bb59"/><path d="m136 472h-16c-26.507812 0-48-21.492188-48-48h16c26.507812 0 48 21.492188 48 48zm0 0" fill="#f3bb59"/><path d="m72 424-32-48h64zm0 0" fill="#e97424"/><path d="m40 328h64v48h-64zm0 0" fill="#f3bb59"/><path d="m40 280h64v48h-64zm0 0" fill="#e97424"/><path d="m224 424h16c0 26.507812-21.492188 48-48 48h-16c0-26.507812 21.492188-48 48-48zm0 0" fill="#f3bb59"/><path d="m304 472h-16c-26.507812 0-48-21.492188-48-48h16c26.507812 0 48 21.492188 48 48zm0 0" fill="#f3bb59"/><path d="m240 424-32-48h64zm0 0" fill="#e97424"/><path d="m208 328h64v48h-64zm0 0" fill="#f3bb59"/><path d="m208 280h64v48h-64zm0 0" fill="#e97424"/><path d="m336 56h-16c0-26.507812 21.492188-48 48-48h16c0 26.507812-21.492188 48-48 48zm0 0" fill="#f3bb59"/><path d="m256 8h16c26.507812 0 48 21.492188 48 48h-16c-26.507812 0-48-21.492188-48-48zm0 0" fill="#f3bb59"/><path d="m320 56 32 48h-64zm0 0" fill="#e97424"/><path d="m352 152h-64v-48h64zm0 0" fill="#f3bb59"/><path d="m352 200h-64v-48h64zm0 0" fill="#e97424"/><path d="m168 56h-16c0-26.507812 21.492188-48 48-48h16c0 26.507812-21.492188 48-48 48zm0 0" fill="#f3bb59"/><path d="m88 8h16c26.507812 0 48 21.492188 48 48h-16c-26.507812 0-48-21.492188-48-48zm0 0" fill="#f3bb59"/><path d="m152 56 32 48h-64zm0 0" fill="#e97424"/><path d="m184 152h-64v-48h64zm0 0" fill="#f3bb59"/><path d="m184 200h-64v-48h64zm0 0" fill="#e97424"/><path d="m392 424h16c0 26.507812-21.492188 48-48 48h-16c0-26.507812 21.492188-48 48-48zm0 0" fill="#f3bb59"/><path d="m472 472h-16c-26.507812 0-48-21.492188-48-48h16c26.507812 0 48 21.492188 48 48zm0 0" fill="#f3bb59"/><path d="m408 424-32-48h64zm0 0" fill="#e97424"/><path d="m376 328h64v48h-64zm0 0" fill="#f3bb59"/><path d="m376 280h64v48h-64zm0 0" fill="#e97424"/><path d="m416 200c0 48.601562-39.398438 88-88 88s-88-39.398438-88-88h32c0 30.929688 25.070312 56 56 56s56-25.070312 56-56zm0 0" fill="#f3bb59"/><path d="m384 200c0 30.929688-25.070312 56-56 56s-56-25.070312-56-56zm0 0" fill="#fefe90"/><path d="m240 200c0 48.601562-39.398438 88-88 88s-88-39.398438-88-88h32c0 30.929688 25.070312 56 56 56s56-25.070312 56-56zm0 0" fill="#f3bb59"/><path d="m208 200c0 30.929688-25.070312 56-56 56s-56-25.070312-56-56zm0 0" fill="#fefe90"/><path d="m216 168h16c17.671875 0 32 14.328125 32 32h-16c-17.671875 0-32-14.328125-32-32zm0 0" fill="#67c086"/><path d="m56 200h-16c0-17.671875 14.328125-32 32-32h16c0 17.671875-14.328125 32-32 32zm0 0" fill="#67c086"/><path d="m400 200h-16c0-17.671875 14.328125-32 32-32h16c0 17.671875-14.328125 32-32 32zm0 0" fill="#67c086"/><g fill="#dd3e46"><path d="m168 312h16v16h-16zm0 0"/><path d="m248 128h16v16h-16zm0 0"/><path d="m432 240h16v16h-16zm0 0"/><path d="m32 240h16v16h-16zm0 0"/></g><path d="m328 256c11.054688.015625 21.867188-3.261719 31.054688-9.40625l-31.054688-46.59375-31.054688 46.59375c9.1875 6.144531 20 9.421875 31.054688 9.40625zm0 0" fill="#f9f443"/><path d="m152 256c11.054688.015625 21.867188-3.261719 31.054688-9.40625l-31.054688-46.59375-31.054688 46.59375c9.1875 6.144531 20 9.421875 31.054688 9.40625zm0 0" fill="#f9f443"/><path d="m472 96h-115.71875l-21.335938-32h1.054688c30.914062-.035156 55.964844-25.085938 56-56v-8h-24c-19.6875.03125-37.910156 10.398438-48 27.304688-10.089844-16.90625-28.3125-27.273438-48-27.304688h-24v8c.035156 30.914062 25.085938 55.964844 56 56h1.054688l-21.335938 32h-95.4375l-21.335938-32h1.054688c30.914062-.035156 55.964844-25.085938 56-56v-8h-24c-19.6875.03125-37.910156 10.398438-48 27.304688-10.089844-16.90625-28.3125-27.273438-48-27.304688h-24v8c.035156 30.914062 25.085938 55.964844 56 56h1.054688l-21.335938 32h-107.71875c-4.417969 0-8 3.582031-8 8v272c0 4.417969 3.582031 8 8 8h27.71875l21.335938 32h-1.054688c-30.914062.035156-55.9648438 25.085938-56 56v8h24c19.6875-.03125 37.910156-10.398438 48-27.304688 10.089844 16.90625 28.3125 27.273438 48 27.304688h24v-8c-.035156-30.914062-25.085938-55.964844-56-56h-1.054688l21.335938-32h95.4375l21.335938 32h-1.054688c-30.914062.035156-55.964844 25.085938-56 56v8h24c19.6875-.03125 37.910156-10.398438 48-27.304688 10.089844 16.90625 28.3125 27.273438 48 27.304688h24v-8c-.035156-30.914062-25.085938-55.964844-56-56h-1.054688l21.335938-32h95.4375l21.335938 32h-1.054688c-30.914062.035156-55.964844 25.085938-56 56v8h24c19.6875-.03125 37.910156-10.398438 48-27.304688 10.089844 16.90625 28.3125 27.273438 48 27.304688h24v-8c-.035156-30.914062-25.085938-55.964844-56-56h-1.054688l21.335938-32h27.71875c4.417969 0 8-3.582031 8-8v-272c0-4.417969-3.582031-8-8-8zm-72 96h-6.632812c3.402343-9.582031 12.464843-15.988281 22.632812-16h6.632812c-3.402343 9.582031-12.464843 15.988281-22.632812 16zm-8.550781 16h16.152343c-4.105468 40.882812-38.511718 72.011719-79.601562 72.011719s-75.496094-31.128907-79.601562-72.011719h16.152343c4.007813 31.992188 31.207031 55.996094 63.449219 55.996094s59.441406-24.003906 63.449219-55.996094zm-7.449219 128h48v32h-48zm48-16h-48v-32h48zm-64 48h-88v-84.992188c26.875 15.726563 59.75 17.292969 88 4.191407zm-318.632812-176c3.402343-9.582031 12.464843-15.988281 22.632812-16h6.632812c-3.402343 9.582031-12.464843 15.988281-22.632812 16zm39.199218 16c4.007813 31.992188 31.207032 55.996094 63.449219 55.996094s59.441406-24.003906 63.449219-55.996094h16.136718c-4.105468 40.882812-38.511718 72.011719-79.601562 72.011719s-75.496094-31.128907-79.601562-72.011719zm255.433594-64h-48v-32h48zm-48.800781 90.800781c-7.636719-7.109375-12.738281-16.523437-14.535157-26.800781h32.382813zm32.800781-20.402343 19.503906 29.25c-12.363281 5.769531-26.644531 5.769531-39.007812 0zm-48-22.398438h-8.800781c-3.828125-18.613281-20.199219-31.976562-39.199219-32h-24v8c.03125 8.683594 2.914062 17.117188 8.207031 24h-24.207031v-80h88zm-16 128h-48v-32h48zm-48.710938-48c10.609376-9.300781 19.042969-20.820312 24.710938-33.742188 5.667969 12.921876 14.101562 24.441407 24.710938 33.742188zm10.078126-96h6.632812c10.167969.011719 19.230469 6.417969 22.632812 16h-6.632812c-10.167969-.011719-19.230469-6.417969-22.632812-16zm-40.566407 58.800781-17.847656-26.800781h32.382813c-1.796876 10.277344-6.898438 19.691406-14.535157 26.800781zm-13.3125 8.871094c-12.363281 5.769531-26.644531 5.769531-39.007812 0l19.519531-29.273437zm4.511719-99.671875h-48v-32h48zm-48 16h48v32h-48zm9.046875 48-17.847656 26.800781c-7.636719-7.109375-12.738281-16.523437-14.535157-26.800781zm-41.046875 112h-48v-32h48zm-48 16h48v32h-48zm64-48.800781c28.242188 13.113281 61.117188 11.5625 88-4.152344v84.953125h-88zm104 48.800781h48v32h-48zm144.800781-101.199219-17.847656-26.800781h32.382813c-1.796876 10.277344-6.898438 19.691406-14.535157 26.800781zm-64.800781-42.800781v-32h48v32zm72-176h7.199219c-3.824219 18.613281-20.199219 31.980469-39.199219 32h-7.199219c3.824219-18.613281 20.199219-31.980469 39.199219-32zm-103.199219 0h7.199219c19 .019531 35.375 13.386719 39.199219 32h-7.199219c-19-.019531-35.375-13.386719-39.199219-32zm55.199219 54.398438 17.046875 25.601562h-34.09375zm-120-54.398438h7.199219c-3.824219 18.613281-20.199219 31.980469-39.199219 32h-7.199219c3.824219-18.613281 20.199219-31.980469 39.199219-32zm-103.199219 0h7.199219c19 .019531 35.375 13.386719 39.199219 32h-7.199219c-19-.019531-35.375-13.386719-39.199219-32zm55.199219 54.398438 17.046875 25.601562h-34.09375zm-136 41.601562h96v80h-24.207031c5.292969-6.882812 8.175781-15.316406 8.207031-24v-8h-24c-22.082031.027344-39.972656 17.917969-40 40v8h24 .398438c2.082031 24.710938 13.664062 47.65625 32.3125 64h-48.710938c-4.417969 0-8 3.582031-8 8v88h-16zm8 352h-7.199219c3.824219-18.613281 20.199219-31.980469 39.199219-32h7.199219c-3.824219 18.613281-20.199219 31.980469-39.199219 32zm103.199219 0h-7.199219c-19-.019531-35.375-13.386719-39.199219-32h7.199219c19 .019531 35.375 13.386719 39.199219 32zm-55.199219-54.398438-17.046875-25.601562h34.09375zm120 54.398438h-7.199219c3.824219-18.613281 20.199219-31.980469 39.199219-32h7.199219c-3.824219 18.613281-20.199219 31.980469-39.199219 32zm103.199219 0h-7.199219c-19-.019531-35.375-13.386719-39.199219-32h7.199219c19 .019531 35.375 13.386719 39.199219 32zm-55.199219-54.398438-17.046875-25.601562h34.09375zm120 54.398438h-7.199219c3.824219-18.613281 20.199219-31.980469 39.199219-32h7.199219c-3.824219 18.613281-20.199219 31.980469-39.199219 32zm103.199219 0h-7.199219c-19-.019531-35.375-13.386719-39.199219-32h7.199219c19 .019531 35.375 13.386719 39.199219 32zm-55.199219-54.398438-17.046875-25.601562h34.09375zm56-41.601562h-16v-88c0-4.417969-3.582031-8-8-8h-48.710938c20.769532-18.164062 32.691407-44.40625 32.710938-72v-.207031c10.035156-7.492188 15.964844-19.269531 16-31.792969v-8h-24c-19 .023438-35.371094 13.386719-39.199219 32h-16.800781v-80h104zm0 0"/><path d="m168 312h16v16h-16zm0 0"/><path d="m248 128h16v16h-16zm0 0"/><path d="m432 240h16v16h-16zm0 0"/><path d="m32 240h16v16h-16zm0 0"/></svg>