<svg height="511pt" viewBox="-25 0 511 511.998" width="511pt" xmlns="http://www.w3.org/2000/svg"><path d="m253.824219 504.984375h162.066406c3.546875 0 6.421875-2.875 6.421875-6.421875v-40.371094c0-3.546875-2.875-6.421875-6.421875-6.421875h-162.066406c-3.546875 0-6.421875 2.875-6.421875 6.421875v40.371094c0 3.546875 2.875 6.421875 6.421875 6.421875zm0 0" fill="#ff5f00"/><path d="m422.3125 458.191406v40.371094c0 3.542969-2.871094 6.421875-6.425781 6.421875h-17.886719c3.554688 0 6.421875-2.878906 6.421875-6.421875v-40.371094c0-3.542968-2.867187-6.421875-6.421875-6.421875h17.890625c3.550781 0 6.421875 2.878907 6.421875 6.421875zm0 0" fill="#f15300"/><path d="m241.796875 183.417969c12.714844.238281 22.949219 10.625 22.949219 23.398437l.546875-118.117187c0-12.925781 10.476562-23.402344 23.402343-23.402344 12.925782 0 23.402344 10.476563 23.402344 23.402344l.289063-22.113281c0-12.925782 10.480469-23.402344 23.402343-23.402344 12.925782 0 23.40625 10.476562 23.40625 23.402344v20.539062c.808594-12.191406 10.949219-21.828125 23.34375-21.828125 12.925782 0 23.402344 10.476563 23.402344 23.402344l.878906 69.125c0-12.925781 10.476563-23.402344 23.402344-23.402344 12.925782 0 23.402344 10.476563 23.402344 23.402344v135.328125c0 21.328125-8.398438 41.796875-23.378906 56.976562-14.980469 15.179688-23.378906 35.648438-23.378906 56.972656v44.667969h-145.394532v-55.738281c0-15.722656-6.035156-30.851562-16.863281-42.253906l-9.804687-10.328125c-10.828126-11.40625-16.863282-26.53125-16.863282-42.257813v-93.847656c0-13.121094 10.738282-24.175781 23.855469-23.925781zm0 0" fill="#f6ac39"/><path d="m453.621094 157.824219v135.335937c0 21.320313-8.398438 41.789063-23.375 56.964844-7.496094 7.597656-13.332032 16.507812-17.308594 26.183594-3.972656 9.683594-6.066406 20.128906-6.066406 30.792968v44.667969h-19.363282v-44.667969c0-10.664062 2.101563-21.109374 6.070313-30.792968 3.972656-9.671875 9.816406-18.585938 17.304687-26.183594 14.972657-15.175781 23.375-35.644531 23.375-56.964844v-135.335937c0-6.453125-2.617187-12.308594-6.855468-16.546875-1.976563-1.976563-4.292969-3.601563-6.867188-4.761719 2.945313-1.34375 6.226563-2.09375 9.683594-2.09375 6.464844 0 12.316406 2.613281 16.550781 6.855469 4.238281 4.238281 6.851563 10.09375 6.851563 16.546875zm0 0" fill="#f39d0a"/><path d="m207.3125 468.816406h-162.0625c-3.546875 0-6.421875-2.875-6.421875-6.421875v-40.367187c0-3.546875 2.875-6.421875 6.421875-6.421875h162.0625c3.546875 0 6.421875 2.875 6.421875 6.421875v40.367187c0 3.546875-2.875 6.421875-6.421875 6.421875zm0 0" fill="#ff5f00"/><path d="m213.730469 422.027344v40.367187c0 3.542969-2.867188 6.421875-6.421875 6.421875h-17.886719c3.550781 0 6.421875-2.875 6.421875-6.421875v-40.367187c0-3.542969-2.871094-6.421875-6.421875-6.421875h17.886719c3.554687 0 6.421875 2.878906 6.421875 6.421875zm0 0" fill="#f15300"/><path d="m219.34375 147.253906c-12.714844.238282-22.949219 10.625-22.949219 23.398438l-.546875-118.117188c0-12.925781-10.480468-23.402344-23.402344-23.402344-12.925781 0-23.40625 10.476563-23.40625 23.402344l-.285156-22.113281c0-12.925781-10.480468-23.40625-23.40625-23.40625-12.921875 0-23.402344 10.480469-23.402344 23.40625v20.539063c-.808593-12.191407-10.949218-21.828126-23.34375-21.828126-12.925781 0-23.402343 10.476563-23.402343 23.402344l-.878907 69.125c0-12.925781-10.476562-23.402344-23.402343-23.402344s-23.402344 10.476563-23.402344 23.402344v135.328125c0 21.328125 8.398437 41.796875 23.378906 56.976563 14.980469 15.179687 23.378907 35.644531 23.378907 56.972656v44.667969h145.394531v-55.738281c0-15.726563 6.035156-30.851563 16.863281-42.253907l9.804688-10.332031c10.828124-11.402344 16.863281-26.527344 16.863281-42.253906v-93.847656c0-13.121094-10.738281-24.175782-23.855469-23.925782zm0 0" fill="#f6ac39"/><path d="m243.199219 171.179688v93.847656c0 15.722656-6.035157 30.855468-16.863281 42.253906l-9.808594 10.328125c-10.828125 11.402344-16.863282 26.53125-16.863282 42.253906v55.742188h-17.582031v-55.742188c0-15.722656 6.035157-30.851562 16.863281-42.253906l9.808594-10.328125c10.828125-11.398438 16.859375-26.53125 16.859375-42.253906v-93.847656c0-9.886719-6.085937-18.59375-14.703125-22.175782 2.609375-1.082031 5.449219-1.691406 8.429688-1.746094 13.125-.25 23.859375 10.796876 23.859375 23.921876zm0 0" fill="#f39d0a"/><path d="m430.222656 127.40625c-6.410156 0-12.355468 1.996094-17.265625 5.394531v-44.101562c0-16.773438-13.644531-30.417969-30.417969-30.417969-6.089843 0-11.761718 1.804688-16.523437 4.898438-1.699219-15.175782-14.601563-27.015626-30.226563-27.015626-15.691406 0-28.644531 11.945313-30.25 27.222657-4.824218-3.222657-10.617187-5.105469-16.84375-5.105469-16.773437 0-30.417968 13.644531-30.417968 30.417969v19.449219c0 3.875 3.140625 7.015624 7.015625 7.015624 3.878906 0 7.019531-3.140624 7.019531-7.015624v-19.449219c0-9.035157 7.347656-16.386719 16.382812-16.386719 9.035157 0 16.390626 7.351562 16.390626 16.386719v106.792969c0 3.875 3.140624 7.015624 7.015624 7.015624s7.015626-3.140624 7.015626-7.015624l.289062-128.90625c0-9.035157 7.351562-16.386719 16.386719-16.386719 9.035156 0 16.386719 7.351562 16.386719 16.386719v20.300781c-.035157.601562-.058594 1.203125-.058594 1.8125v106.792969c0 3.875 3.140625 7.015624 7.015625 7.015624h.027343.03125c3.875 0 7.015626-3.140624 7.015626-7.015624v-107.953126c.601562-8.492187 7.683593-15.226562 16.328124-15.226562 9.035157 0 16.386719 7.351562 16.386719 16.386719v106.792969c0 3.875 3.140625 7.015624 7.015625 7.015624.148438 0 .292969-.011718.441406-.023437.144532.011719.289063.023437.4375.023437 3.875 0 7.019532-3.140624 7.019532-7.015624v-37.667969c0-9.035157 7.347656-16.386719 16.382812-16.386719s16.386719 7.351562 16.386719 16.386719v135.328125c0 19.609375-7.585937 38.09375-21.355469 52.046875-16.382812 16.597656-25.402344 38.582031-25.402344 61.902343v37.652344h-131.363281v-48.722656c0-17.601562-6.671875-34.320312-18.789062-47.085938l-9.804688-10.328124c-6-6.320313-10.3125-13.859376-12.71875-22.03125l4.25-4.472657c12.117188-12.765625 18.789063-29.484375 18.789063-47.085937v-71.96875c4.515625 2.921875 7.515625 7.992187 7.515625 13.757812v49.269532c0 3.875 3.140625 7.015624 7.015625 7.015624s7.019531-3.140624 7.019531-7.015624l.546875-114.191407c0-3.875-3.140625-7.015625-7.019531-7.015625-3.875 0-7.015625 3.140625-7.015625 7.015625v39.664063c-2.457032-1.652344-5.171875-2.941406-8.0625-3.824219v-7.085937c0-16.769532-13.644532-30.417969-30.417969-30.417969-6.265625 0-12.089844 1.90625-16.933594 5.160156v-92.855469c0-16.773437-13.644531-30.417968-30.417969-30.417968-6.226562 0-12.019531 1.882812-16.84375 5.105468-1.605468-15.277344-14.558593-27.222656-30.253906-27.222656-15.621094 0-28.523437 11.839844-30.222656 27.015625-4.761719-3.09375-10.433594-4.902344-16.523438-4.902344-16.773437 0-30.417968 13.648438-30.417968 30.421875v44.097656c-4.910156-3.394531-10.859375-5.394531-17.265625-5.394531-16.773438 0-30.417969 13.648438-30.417969 30.421875v135.328125c0 23.320313 9.019531 45.300781 25.398438 61.902344 13.773437 13.957031 21.359374 32.441406 21.359374 52.046875v37.648438h-2.007812c-7.410156 0-13.4375 6.027343-13.4375 13.4375v40.371093c0 7.410157 6.027344 13.4375 13.4375 13.4375h29.78125c3.875 0 7.015625-3.140625 7.015625-7.015625s-3.140625-7.015625-7.015625-7.015625h-29.183594v-39.183593h160.871094v39.183593h-97.773438c-3.875 0-7.015624 3.140625-7.015624 7.015625s3.140624 7.015625 7.015624 7.015625h98.367188c7.410156 0 13.441406-6.027343 13.441406-13.4375v-40.371093c0-7.410157-6.03125-13.4375-13.441406-13.4375h-.628906v-48.722657c0-11.339843 3.488281-22.21875 9.9375-31.335937 3.144531 7.214844 7.542968 13.902344 13.09375 19.75l9.808594 10.328125c9.628906 10.144531 14.933593 23.4375 14.933593 37.425781v48.722656h-.628906c-7.410156 0-13.4375 6.027344-13.4375 13.4375v40.367188c0 7.410156 6.027344 13.4375 13.4375 13.4375h162.0625c7.410156 0 13.4375-6.027344 13.4375-13.4375v-40.367188c0-7.410156-6.027344-13.4375-13.4375-13.4375h-2.003906v-37.652344c0-19.605468 7.582031-38.089843 21.355469-52.042968 16.378906-16.601563 25.398437-38.585938 25.398437-61.90625v-135.328125c0-16.773438-13.644531-30.417969-30.417969-30.417969zm-237.570312 232.460938v48.722656h-131.363282v-37.652344c0-23.320312-9.019531-45.304688-25.398437-61.902344-13.773437-13.957031-21.359375-32.441406-21.359375-52.046875v-135.328125c0-9.035156 7.351562-16.386718 16.386719-16.386718 9.035156 0 16.386719 7.351562 16.386719 16.386718v37.664063c0 3.875 3.140624 7.019531 7.015624 7.019531.148438 0 .292969-.015625.441407-.023438.144531.007813.289062.023438.4375.023438 3.875 0 7.019531-3.140625 7.019531-7.019531v-106.789063c0-9.035156 7.347656-16.386718 16.382812-16.386718 8.644532 0 15.730469 6.734374 16.328126 15.226562v107.949219c0 3.875 3.140624 7.019531 7.019531 7.019531h.027343.03125c3.875 0 7.015626-3.140625 7.015626-7.019531l-.058594-128.902344c0-9.035156 7.351562-16.386719 16.386718-16.386719 9.035157 0 16.382813 7.351563 16.382813 16.386719l.289063 128.902344c0 3.875 3.140624 7.019531 7.019531 7.019531 3.875 0 7.015625-3.140625 7.015625-7.019531v-106.789063c0-9.035156 7.351562-16.386718 16.386718-16.386718 9.035157 0 16.386719 7.351562 16.386719 16.386718l.546875 167.382813c0 3.875 3.140625 7.019531 7.015625 7.019531s7.015625-3.140625 7.015625-7.019531v-49.269531c0-9.035157 7.351563-16.382813 16.386719-16.382813s16.386719 7.347656 16.386719 16.382813v94.378906c0 13.988281-5.304688 27.28125-14.933594 37.425781l-9.804688 10.328125c-12.121093 12.765625-18.792968 29.484375-18.792968 47.085938zm222.640625 98.917968v39.183594h-160.871094v-39.183594zm0 0"/></svg>