<svg height="480pt" viewBox="0 0 480.04752 480" width="480pt" xmlns="http://www.w3.org/2000/svg"><path d="m240.53125 224.023438-96 79.769531c-20.734375 18.394531-24.191406 49.5-8 72l72 80.230469c8.230469 8.960937 19.835938 14.058593 32 14.058593s23.773438-5.097656 32-14.058593l72-80.230469c16.609375-20.488281 12.359375-63.007813-8-79.769531zm0 0" fill="#e97424"/><path d="m272.042969 176.023438s32-112 104-32 96 32 96 32-5.65625 68.855468-72 32c-72-40-64-96-96-32zm0 0" fill="#e97424"/><path d="m208.042969 176.023438s-32-112-104-32-96 32-96 32 5.65625 68.855468 72 32c72-40 64-96 96-32zm0 0" fill="#e97424"/><path d="m320.042969 176.023438h-160l48 224c1.085937 8.269531 7.539062 14.808593 15.792969 16h32.207031c8.304687-1.171876 14.828125-7.695313 16-16zm0 0" fill="#f3bb59"/><path d="m232.042969.0234375h16v176.0000005h-16zm0 0" fill="#e97424"/><g fill="#aabece"><path d="m120.042969 416.023438h16v64h-16zm0 0"/><path d="m120.042969 208.023438h16v64h-16zm0 0"/><path d="m152.042969 440.023438h16v40h-16zm0 0"/><path d="m88.042969 256.023438h16v40h-16zm0 0"/><path d="m352.042969 216.023438h16v64h-16zm0 0"/><path d="m384.042969 264.023438h16v40h-16zm0 0"/><path d="m344.042969 416.023438h16v64h-16zm0 0"/><path d="m312.042969 440.023438h16v40h-16zm0 0"/></g><path d="m72.042969 352.023438c0 8.835937-7.164063 16-16 16-8.835938 0-16-7.164063-16-16 0-8.835938 7.164062-16 16-16 8.835937 0 16 7.164062 16 16zm0 0" fill="#7fcac9"/><path d="m464.042969 288.023438c0 8.835937-7.164063 16-16 16-8.835938 0-16-7.164063-16-16 0-8.835938 7.164062-16 16-16 8.835937 0 16 7.164062 16 16zm0 0" fill="#7fcac9"/><path d="m312.042969 40.023438c0 8.835937-7.164063 16-16 16-8.835938 0-16-7.164063-16-16 0-8.835938 7.164062-16 16-16 8.835937 0 16 7.164062 16 16zm0 0" fill="#7fcac9"/><path d="m208.042969 72.023438c0 8.835937-7.164063 16-16 16-8.835938 0-16-7.164063-16-16 0-8.835938 7.164062-16 16-16 8.835937 0 16 7.164062 16 16zm0 0" fill="#7fcac9"/><path d="m474.203125 168.320312c-3.695313-1.039062-7.605469.695313-9.320313 4.128907-3.226562 5.292969-8.695312 8.828125-14.847656 9.597656-9.597656 1.328125-31.304687-2.582031-68.046875-43.414063-22.34375-24.800781-44-35.074218-64.273437-30.359374-30.085938 6.957031-46.253906 44.964843-51.464844 59.710937h-18.207031v-167.9609375h-16v168.0000005h-18.207031c-5.207032-14.742188-21.375-52.75-51.464844-59.710938-20.269532-4.6875-41.910156 5.527344-64.269532 30.398438-36.523437 40.511718-58.160156 44.511718-67.761718 43.417968-6.253906-.726562-11.828125-4.300781-15.097656-9.679687-1.65625-3.539063-5.625-5.359375-9.386719-4.3125-3.765625 1.046875-6.21875 4.660156-5.8125002 8.542969.1132812 1.34375 2.9843752 33.175781 26.0742192 45.511718 5.980468 3.164063 12.664062 4.777344 19.429687 4.695313 13.59375-.664063 26.800781-4.75 38.402344-11.871094 21.882812-12.347656 41.292969-28.640625 57.246093-48.054687 3.449219-4.460938 7.417969-8.488282 11.824219-12 1 .34375 3.738281 2.480468 9.746094 13.078124h-2.722656c-2.417969 0-4.703125 1.09375-6.222657 2.972657-1.519531 1.878906-2.109374 4.34375-1.601562 6.707031l19.882812 92.800781-32.671874 27.105469c-24.195313 21.3125-28.042969 57.597656-8.859376 83.511719l72.296876 80.550781c9.824218 10.257812 23.351562 16.140625 37.550781 16.328125 14.40625-.21875 28.117187-6.214844 38.058593-16.640625l72.253907-80.550781c19.417969-23.894531 14.632812-71.511719-9.398438-91.199219l-32.257812-24.226562 18.792969-87.695313c.507812-2.363281-.078126-4.828125-1.597657-6.707031-1.519531-1.882813-3.808593-2.972656-6.226562-2.972656h-2.710938c6-10.601563 8.664063-12.734376 9.34375-13.054688 4.667969 3.347656 8.792969 7.398438 12.230469 12 15.957031 19.414062 35.363281 35.707031 57.25 48.054688 11.585938 7.113281 24.777344 11.199218 38.359375 11.871093 6.769531.082031 13.449219-1.53125 19.433594-4.695312 23.085937-12.335938 25.957031-44.167969 26.070312-45.511719.320313-3.824219-2.121093-7.332031-5.816406-8.367188zm-319.039063-29.214843c-9.734374-1.296875-16.574218 6.535156-26.023437 17.316406-14.730469 18.042969-32.699219 33.171875-52.984375 44.609375-18.089844 10.046875-32.375 12.433594-42.398438 7.089844-4.640624-2.640625-8.4375-6.539063-10.960937-11.242188 1.683594.476563 3.398437.832032 5.136719 1.066406 22.71875 3.039063 50.308594-13.273437 82.078125-48.570312 18.167969-20.183594 34.59375-28.75 48.753906-25.480469 18.285156 4.21875 31.519531 28 38.03125 44.128907h-15.839844c-9.359375-18.191407-16.273437-27.703126-25.792969-28.917969zm176.289063 163.101562c16.796875 13.808594 20.621094 51.59375 7.117187 68.234375l-71.703124 79.925782c-6.6875 7.378906-16.167969 11.613281-26.125 11.671874-9.960938.0625-19.488282-4.0625-26.265626-11.359374l-71.738281-79.929688c-13.472656-19.074219-10.507812-45.222656 6.898438-60.796875l26.253906-21.800781 24.265625 113.199218c1.71875 12.113282 11.503906 21.480469 23.679688 22.671876h32.207031c12.125-1.085938 21.953125-10.292969 23.824219-22.320313l25.511718-119.0625zm-67.296875 96.503907c-.761719 4.511718-4.914062 9.3125-8.113281 9.3125h-32.207031c-3.144532 0-7.128907-4.703126-8-9.679688l-45.894532-214.320312h140.207032zm182.289062-190.625c-10.074218 5.394531-24.363281 3-42.472656-7.054688-20.285156-11.4375-38.257812-26.566406-52.984375-44.609375-8.800781-10.023437-15.289062-17.453125-24-17.453125-.679687-.003906-1.359375.042969-2.03125.136719-9.519531 1.214843-16.433593 10.726562-25.792969 28.917969h-15.847656c6.511719-16.152344 19.742188-39.910157 38.03125-44.128907 14.175782-3.269531 30.59375 5.304688 48.753906 25.480469 31.765626 35.304688 59.375 51.609375 82.078126 48.570312 1.722656-.234374 3.421874-.585937 5.097656-1.050781-2.492188 4.671875-6.246094 8.550781-10.832032 11.191407zm0 0"/><path d="m120.042969 416.023438h16v64h-16zm0 0"/><path d="m120.042969 208.023438h16v64h-16zm0 0"/><path d="m152.042969 440.023438h16v40h-16zm0 0"/><path d="m88.042969 256.023438h16v40h-16zm0 0"/><path d="m352.042969 216.023438h16v64h-16zm0 0"/><path d="m384.042969 264.023438h16v40h-16zm0 0"/><path d="m344.042969 416.023438h16v64h-16zm0 0"/><path d="m312.042969 440.023438h16v40h-16zm0 0"/><path d="m56.042969 328.023438c-13.253907 0-24 10.746093-24 24 0 13.253906 10.746093 24 24 24 13.253906 0 24-10.746094 24-24 0-13.253907-10.746094-24-24-24zm0 32c-4.417969 0-8-3.582032-8-8 0-4.417969 3.582031-8 8-8s8 3.582031 8 8c0 4.417968-3.582031 8-8 8zm0 0"/><path d="m448.042969 264.023438c-13.253907 0-24 10.746093-24 24 0 13.253906 10.746093 24 24 24 13.253906 0 24-10.746094 24-24 0-13.253907-10.746094-24-24-24zm0 32c-4.417969 0-8-3.582032-8-8 0-4.417969 3.582031-8 8-8s8 3.582031 8 8c0 4.417968-3.582031 8-8 8zm0 0"/><path d="m272.042969 40.023438c0 13.253906 10.746093 24 24 24 13.253906 0 24-10.746094 24-24 0-13.253907-10.746094-24-24-24-13.253907 0-24 10.746093-24 24zm32 0c0 4.417968-3.582031 8-8 8s-8-3.582032-8-8c0-4.417969 3.582031-8 8-8s8 3.582031 8 8zm0 0"/><path d="m192.042969 96.023438c13.253906 0 24-10.746094 24-24 0-13.253907-10.746094-24-24-24-13.253907 0-24 10.746093-24 24 0 13.253906 10.746093 24 24 24zm0-32c4.417969 0 8 3.582031 8 8 0 4.417968-3.582031 8-8 8s-8-3.582032-8-8c0-4.417969 3.582031-8 8-8zm0 0"/></svg>