<svg height="512pt" viewBox="0 -93 512.00139 512" width="512pt" xmlns="http://www.w3.org/2000/svg"><path d="m502.777344 122.757812c.273437-8.457031.6875-16.890624 1.265625-25.273437.578125-8.324219 1.242187-16.648437 1.117187-24.996094-.433594-29.144531-31.527344-52.25-72.386718-60.804687-52.492188-10.992188-102.433594 2.277344-155.378907-2.730469-48.742187-4.613281-100.070312.191406-143.128906 15.773437-43.0625 15.585938-77.128906 42.304688-89.210937 73.425782-5.644532 14.539062-10.667969 25.152344-22.941407 37.871094-9.453125 9.804687-14.042969 18.417968-14.828125 25.964843-.082031.019531-.128906.019531-.128906.019531-.3125.019532.335938 35.222657.425781 55.609376.023438 6.890624-.335937 35.269531-.492187 36.871093-2.753906 26.320313 34.964844 36.433594 58.050781 41.121094 33.757813 6.851563 70.15625 8.589844 104.605469 5.367187 41.296875-3.824218 74.984375 7.402344 114.179687 14.859376 43.9375 8.375 91.742188.683593 129.949219-14.585938 11.097656-4.429688 20.917969-9.976562 31.050781-15.246094 15.035157-7.8125 35.90625-16.089844 45.660157-26.867187 11.652343-12.90625 13.199218-51.636719 12.640624-66.21875-.890624-23.195313-1.210937-46.769531-.449218-70.160157zm0 0" fill="#704138"/><path d="m505.15625 72.488281c-.058594-3.933593-.667969-7.761719-1.796875-11.453125-7.199219-23.660156-35.242187-41.957031-70.582031-49.359375-52.492188-10.980469-102.4375 2.285157-155.386719-2.722656-48.738281-4.609375-100.0625.191406-143.125 15.769531-43.0625 15.59375-77.128906 42.308594-89.207031 73.429688-5.648438 14.535156-10.675782 25.148437-22.945313 37.867187-8.785156 9.113281-13.375 17.195313-14.601562 24.359375-.089844.546875-.160157 1.085938-.222657 1.613282-.089843.011718-.128906.011718-.128906.011718-.179687.011719-.058594 10.84375.101563 23.972656 0 .207032 0 .40625.007812.605469.46875 23.992188 36.050781 33.457031 58.1875 37.957031 33.753907 6.851563 70.15625 8.589844 104.601563 5.367188 41.296875-3.820312 74.992187 7.402344 114.183594 14.863281 43.933593 8.378907 91.742187.675781 129.949218-14.585937 11.09375-4.429688 20.917969-9.976563 31.054688-15.253906 15.03125-7.808594 35.898437-16.089844 45.65625-26.863282 6.902344-7.648437 10.152344-16.21875 11.53125-24.976562-.160156-12.019532-.113282-24.082032.21875-36.101563.03125-1.414062.070312-2.832031.121094-4.238281.277343-8.449219.6875-16.886719 1.273437-25.269531.570313-8.324219 1.238281-16.644531 1.109375-24.992188zm0 0" fill="#bc7d53"/><path d="m504.050781 97.484375c.566407-8.328125 1.234375-16.648437 1.105469-24.996094-.429688-29.140625-31.519531-52.253906-72.378906-60.808593-25.148438-5.269532-49.71875-4.960938-74.304688-3.761719 9.046875.65625 18.144532 1.84375 27.320313 3.761719 40.859375 8.558593 71.953125 31.667968 72.382812 60.808593.128907 8.347657-.539062 16.667969-1.109375 24.996094-.578125 8.378906-.996094 16.820313-1.265625 25.269531-.757812 23.390625-.4375 46.972656.449219 70.164063.558594 14.585937-.988281 53.308593-12.636719 66.214843-9.757812 10.785157-30.636719 19.0625-45.667969 26.875-10.136718 5.265626-19.949218 10.8125-31.042968 15.242188-20.679688 8.257812-44.152344 14.304688-68.3125 16.777344 39.703125 4.398437 81.289062-3.191406 115.285156-16.777344 11.101562-4.429688 20.917969-9.976562 31.054688-15.242188 15.03125-7.808593 35.910156-16.089843 45.65625-26.875 11.660156-12.90625 13.207031-51.628906 12.636718-66.214843-.886718-23.191407-1.207031-46.773438-.449218-70.164063.277343-8.449218.6875-16.890625 1.277343-25.269531zm0 0" fill="#633029"/><path d="m505.117188 72.488281c-.3125-5.441406-1.253907-10.78125-3.355469-15.824219-6.023438-14.460937-17.441407-23.675781-30.769531-31.128906-7.933594-4.433594-16.449219-7.914062-25.1875-10.535156-11.054688-3.3125-21.292969-5.179688-32.875-6.414062-12.746094-1.355469-25.621094-1.621094-38.308594-1.277344-4.308594.101562-8.609375.257812-12.917969.457031l-3.230469.152344c9.046875.65625 18.144532 1.84375 27.320313 3.761719 40.859375 8.558593 71.953125 31.667968 72.382812 60.808593.246094 16.691407-1.835937 33.5625-2.375 50.265625-.757812 23.390625-.4375 46.972656.449219 70.164063.160156 4.050781.148438 9.957031-.191406 16.660156 13.027344-6.296875 27.28125-13.148437 34.84375-21.507813 6.902344-7.652343 10.15625-16.21875 11.53125-24.976562.609375-3.871094-.238282-8.574219-.195313-12.53125.054688-5.121094.144531-10.246094.234375-15.371094.074219-4.148437.164063-8.300781.300782-12.4375.277343-8.449218.6875-16.886718 1.277343-25.269531.550781-8.105469 1.542969-16.671875 1.066407-24.996094zm0 0" fill="#af663e"/><path d="m500.972656 231.421875c-3.738281-.832031-7.449218 1.519531-8.28125 5.257813-2.394531 10.730468-5.269531 15.605468-7.25 17.800781-6.601562 7.296875-20.328125 13.929687-32.433594 19.785156-3.976562 1.921875-7.730468 3.734375-11.28125 5.582031-2.015624 1.046875-4.015624 2.101563-6.011718 3.160156-8.152344 4.308594-15.847656 8.378907-24.414063 11.800782-41.179687 16.457031-87.136719 21.636718-126.078125 14.210937-8.890625-1.691406-17.621094-3.605469-26.058594-5.457031-29.394531-6.453125-57.15625-12.542969-90.0625-9.492188-21.027343 1.96875-42.496093 2.050782-63.804687.246094-3.816406-.320312-7.175781 2.511719-7.496094 6.332032-.324219 3.816406 2.507813 7.175781 6.328125 7.496093 22.125 1.875 44.417969 1.789063 66.257813-.257812 30.753906-2.847657 57.496093 3.019531 85.800781 9.230469 8.535156 1.875 17.359375 3.808593 26.441406 5.539062 12.46875 2.375 25.59375 3.546875 39.046875 3.542969 31.28125 0 64.304688-6.328125 94.777344-18.5 9.25-3.699219 17.636719-8.132813 25.746094-12.421875 1.972656-1.042969 3.945312-2.085938 5.925781-3.117188 3.371094-1.75 7.039062-3.523437 10.921875-5.398437 13.894531-6.71875 28.265625-13.667969 36.6875-22.972657 4.582031-5.070312 8.015625-12.949218 10.5-24.085937.832031-3.738281-1.523437-7.449219-5.261719-8.28125zm0 0"/><path d="m511.800781 85.140625c.210938-4.023437.296875-8.375.050781-12.742187-.359374-6.441407-1.4375-12.917969-3.871093-18.414063-3.597657-8.113281-9.289063-15.148437-15.796875-21.113281-20.738282-19-46.382813-25.839844-73.210938-30.535156-.160156-.027344-.320312-.046876-.484375-.0625-12.917969-1.65625-25.703125-2.113282-38.335937-1.984376-12.148438.125-24.15625.78125-35.996094 1.4375-.386719.019532-.777344.042969-1.167969.0625-.085937 0-.171875.011719-.261719.015626-21.105468 1.167968-42.894531 2.300781-64.679687.242187-29.4375-2.789063-61-3.324219-89.976563 2.234375-6.113281 1.171875-12.277343 2.007812-18.375 3.289062-23.242187 4.875-45.292968 12.113282-66.292968 23.148438-.085938.046875-.179688.09375-.269532.140625-.21875.117187-.429687.234375-.648437.351563-31.511719 16.78125-54.171875 39.382812-63.898437 64.429687-2.359376 6.070313-4.535157 11.175781-6.996094 15.855469-3.296875 6.261718-7.40625 11.945312-12.128906 17.207031-5.046876 5.621094-9.496094 10.054687-13.351563 16.507813-7.503906 12.550781-5.789063 26.75-5.789063 40.765624 0 .289063.003907.5625.015626.851563.003906.476563.011718.949219.015624 1.429687.117188 9.824219.253907 20.960938.292969 29.382813.019531 6.882813-.324219 33.683594-.46875 36.242187-3.535156 34.902344 46.976563 45.15625 63.582031 48.523438 2.117188.433594 4.3125.855469 6.523438 1.257812.421875.078126.839844.113282 1.253906.113282 3.285156 0 6.207032-2.34375 6.816406-5.695313.6875-3.769531-1.808593-7.382812-5.578124-8.070312-2.09375-.382813-4.179688-.78125-6.253907-1.203125-36.414062-7.390625-54.089843-18.695313-52.527343-33.644532.214843-2.203124.546874-31.734374.527343-37.578124-.007812-1.648438-.019531-3.398438-.03125-5.21875 15.453125 12.035156 39.359375 16.894531 49.585938 18.972656 9.863281 2.003906 19.96875 3.570312 30.207031 4.726562.058594.007813.121094.011719.183594.019532 25.066406 2.816406 50.949218 3.09375 76.226562.726562 30.761719-2.839844 57.511719 3.023438 85.828125 9.238281 8.53125 1.871094 17.347657 3.804688 26.421875 5.53125 12.464844 2.378907 25.59375 3.550781 39.042969 3.550781 3.667969 0 7.363281-.097656 11.074219-.269531.035156 0 .070312.007813.109375.007813.136719 0 .277343-.019532.414062-.027344 27.757813-1.355469 56.445313-7.535156 83.179688-18.214844 14.59375-5.828125 28.5-14.121094 42.605469-20.945312 13.894531-6.714844 28.257812-13.664063 36.683593-22.964844.074219-.082031.140625-.164062.210938-.246094.011719.238282.019531.472656.027343.710938.125 3.234375.125 7.304687-.003906 11.464844-.113281 3.832031 2.898438 7.03125 6.726563 7.144531 3.804687.109375 7.03125-2.894531 7.144531-6.722657.136719-4.46875.136719-8.878906 0-12.417968-1.027344-26.785156-1.386719-53.722656.023438-80.410156.480468-9.039063 1.144531-18.066407 1.621093-27.101563zm-444.960937 132.601563c-34.621094-7.035157-52.324219-17.550782-52.628906-31.253907-.183594-15.195312-1.679688-28.394531 8.601562-40.851562.09375-.109375.183594-.222657.277344-.335938 1.21875-1.457031 2.558594-2.941406 4.019531-4.457031 2.0625-2.140625 3.917969-4.226562 5.628906-6.277344l49.464844 85.894532c-5.175781-.796876-10.304687-1.691407-15.363281-2.71875zm32.652344 4.933593-57.917969-100.570312c.738281-1.25 1.453125-2.5 2.117187-3.75 3.058594-5.726563 5.425782-11.496094 7.832032-17.691407 3.960937-10.203124 10.6875-20.121093 19.660156-29.351562l87.824218 152.488281c-19.839843 1.265625-39.914062.882813-59.515624-1.125zm87.476562-.484375c-4.136719 0-8.34375.136719-12.632812.421875l-92.683594-160.925781c7.226562-5.960938 15.429687-11.527344 24.453125-16.574219.296875-.164062.585937-.335937.886719-.5.011718-.007812.023437-.011719.03125-.019531 5.929687-3.269531 12.210937-6.308594 18.789062-9.09375l110.648438 192.132812c-16.066407-3.128906-32.175782-5.441406-49.492188-5.441406zm98.574219 15.761719c-8.886719-1.691406-17.609375-3.605469-26.042969-5.457031-1.617188-.351563-3.226562-.707032-4.832031-1.058594l-115.75-200.992188c12.277343-4.300781 25.375-7.773437 39.054687-10.382812 4.785156-.914062 9.644532-1.71875 14.5625-2.421875l128.777344 223.617187c-12.328125-.042968-24.351562-1.125-35.769531-3.304687zm51.496093 2.804687-129.523437-224.910156c18.15625-1.757812 36.957031-2.109375 55.894531-1l124.894532 216.871094c-16.929688 4.867188-34.265626 7.902344-51.265626 9.039062zm105.003907-31.976562c-1.988281 1.03125-3.964844 2.078125-5.9375 3.125-8.175781 4.320312-15.898438 8.40625-24.488281 11.835938-3.234376 1.292968-6.496094 2.503906-9.785157 3.65625l-121.652343-211.242188c20.125 1.621094 39.863281.777344 59.058593-.261719l109.222657 189.664063c-2.207032 1.078125-4.351563 2.148437-6.417969 3.222656zm43.714843-25.367188c-5.238281 5.785157-14.957031 11.152344-24.792968 16.046876l-106.199219-184.414063c7.6875-.398437 15.285156-.738281 22.835937-.871094 12-.210937 23.898438.097657 35.890626 1.457031l81.945312 142.296876c.011719 1.542968.03125 3.09375.050781 4.648437-1.398437 8.3125-4.585937 15.136719-9.730469 20.835937zm9.863282-52.890624c-14.285156-26.871094-30.441406-52.945313-45.636719-79.332032-4.46875-7.761718-8.941406-15.527344-13.414063-23.289062-1.808593-3.140625-2.75-6.589844-5.203124-9.34375 17.542968 3.664062 35.199218 10.238281 49.328124 21.636718 12.824219 10.347657 16.558594 24.617188 17 39.6875.496094 16.949219-2.246093 33.957032-2.074218 50.640626zm0 0"/></svg>