<svg height="480pt" viewBox="0 0 480 480" width="480pt" xmlns="http://www.w3.org/2000/svg"><path d="m8 440h464v32h-464zm0 0" fill="#f9ddac"/><path d="m368 440h-256l-16-112h288zm0 0" fill="#aabece"/><path d="m224 360h32v48h-32zm0 0" fill="#394d5c"/><path d="m144 360h32v48h-32zm0 0" fill="#394d5c"/><path d="m304 360h32v48h-32zm0 0" fill="#394d5c"/><path d="m432 328h-384l-32-96h448zm0 0" fill="#426d78"/><path d="m160 232h-96l-8-16c-10.640625-21.28125.207031-48 24-48h32c12.121094 0 24 8 32 24zm0 0" fill="#aabece"/><path d="m384 232h-48l56-48zm0 0" fill="#aabece"/><g fill="#394d5c"><path d="m328 136h32c17.671875 0 32 14.328125 32 32v16h-32c-17.671875 0-32-14.328125-32-32zm0 0"/><path d="m424 184h-32v-16c0-17.671875 14.328125-32 32-32h32v16c0 17.671875-14.328125 32-32 32zm0 0"/><path d="m64.847656 171.578125 14.3125-7.152344 16 31.996094-14.3125 7.15625zm0 0"/><path d="m117.46875 192.414062 23.996094-8.007812 5.058594 15.167969-23.992188 8.007812zm0 0"/></g><path d="m336 296h-192l-16-32h224zm0 0" fill="#aabece"/><path d="m408 256h16v16h-16zm0 0" fill="#aabece"/><path d="m232 184c0 8.835938-7.164062 16-16 16s-16-7.164062-16-16 7.164062-16 16-16 16 7.164062 16 16zm0 0" fill="#f3bb59"/><path d="m376 80c0 8.835938-7.164062 16-16 16s-16-7.164062-16-16 7.164062-16 16-16 16 7.164062 16 16zm0 0" fill="#f3bb59"/><path d="m120 72c0 8.835938-7.164062 16-16 16s-16-7.164062-16-16 7.164062-16 16-16 16 7.164062 16 16zm0 0" fill="#f3bb59"/><path d="m296 184h16v16h-16zm0 0" fill="#dd3e46"/><path d="m120 120h16v16h-16zm0 0" fill="#dd3e46"/><path d="m240 136h16v16h-16zm0 0" fill="#dd3e46"/><path d="m232 120h-16c.136719-9.148438 3.542969-17.945312 9.601562-24.800781 3.949219-4.09375 6.230469-9.511719 6.398438-15.199219-.167969-5.6875-2.449219-11.105469-6.398438-15.199219-6.058593-6.855469-9.464843-15.652343-9.601562-24.800781.136719-9.148438 3.539062-17.945312 9.601562-24.800781 3.941407-4.097657 6.222657-9.515625 6.398438-15.199219h16c-.136719 9.148438-3.539062 17.945312-9.601562 24.800781-3.941407 4.097657-6.222657 9.515625-6.398438 15.199219.167969 5.6875 2.449219 11.105469 6.398438 15.199219 6.058593 6.855469 9.464843 15.652343 9.601562 24.800781-.136719 9.148438-3.542969 17.945312-9.601562 24.800781-3.949219 4.09375-6.230469 9.511719-6.398438 15.199219zm0 0" fill="#e97424"/><path d="m168 160h-16c.136719-9.148438 3.542969-17.945312 9.601562-24.800781 3.949219-4.09375 6.230469-9.511719 6.398438-15.199219-.167969-5.6875-2.449219-11.105469-6.398438-15.199219-6.058593-6.855469-9.464843-15.652343-9.601562-24.800781.136719-9.148438 3.539062-17.945312 9.601562-24.800781 3.941407-4.097657 6.222657-9.515625 6.398438-15.199219h16c-.136719 9.148438-3.539062 17.945312-9.601562 24.800781-3.941407 4.097657-6.222657 9.515625-6.398438 15.199219.167969 5.6875 2.449219 11.105469 6.398438 15.199219 12.789062 14.0625 12.789062 35.539062 0 49.601562-3.949219 4.09375-6.230469 9.511719-6.398438 15.199219zm0 0" fill="#e97424"/><path d="m296 160h-16c.136719-9.148438 3.542969-17.945312 9.601562-24.800781 3.949219-4.09375 6.230469-9.511719 6.398438-15.199219-.167969-5.6875-2.449219-11.105469-6.398438-15.199219-6.058593-6.855469-9.464843-15.652343-9.601562-24.800781.136719-9.148438 3.539062-17.945312 9.601562-24.800781 3.941407-4.097657 6.222657-9.515625 6.398438-15.199219h16c-.136719 9.148438-3.539062 17.945312-9.601562 24.800781-3.941407 4.097657-6.222657 9.515625-6.398438 15.199219.167969 5.6875 2.449219 11.105469 6.398438 15.199219 12.789062 14.0625 12.789062 35.539062 0 49.601562-3.949219 4.09375-6.230469 9.511719-6.398438 15.199219zm0 0" fill="#e97424"/><path d="m390.9375 336h41.0625c3.445312 0 6.503906-2.203125 7.59375-5.472656l32-96c.8125-2.4375.402344-5.121094-1.101562-7.207032-1.503907-2.085937-3.921876-3.320312-6.492188-3.320312h-70.558594l5.335938-32h25.222656c22.082031-.027344 39.972656-17.917969 40-40v-16c0-4.417969-3.582031-8-8-8h-32c-12.640625.035156-24.511719 6.0625-32 16.246094-7.488281-10.183594-19.359375-16.210938-32-16.246094h-32c-4.417969 0-8 3.582031-8 8v16c.027344 22.082031 17.917969 39.972656 40 40h10.398438l-37.328126 32h-167.65625l-14.214843-35.574219c-9.070313-18.027343-23.351563-28.425781-39.199219-28.425781h-32c-12.242188-.160156-23.65625 6.167969-30 16.640625-7.734375 13.164063-8.171875 29.375-1.160156 42.933594l2.214844 4.425781h-35.054688c-2.570312 0-4.988281 1.234375-6.492188 3.320312-1.503906 2.085938-1.914062 4.769532-1.101562 7.207032l32 96c1.089844 3.269531 4.148438 5.472656 7.59375 5.472656h41.0625l13.714844 96h-102.777344v48h480v-48h-102.777344zm33.0625-192h24v8c0 13.253906-10.746094 24-24 24h-24v-8c0-13.253906 10.746094-24 24-24zm-88 8v-8h24c13.253906 0 24 10.746094 24 24v8h-24c-13.253906 0-24-10.746094-24-24zm44.488281 52.40625-3.265625 19.59375h-19.621094zm-317.328125 8c-4.488281-8.609375-4.320312-18.90625.449219-27.367188 1.34375-2.183593 3.101563-4.085937 5.175781-5.597656l12.054688 24.117188 14.320312-7.152344-10.214844-20.40625h27.054688c8.121094.488281 15.535156 4.78125 20 11.585938l-14.496094 4.796874 5.054688 15.203126 16.847656-5.601563 8.777344 22.015625h-79.199219zm-9.390625 107.59375-26.671875-80h425.804688l-26.671875 80zm51.453125 16h269.554688l-13.714844 96h-242.125zm358.777344 112v16h-448v-16zm0 0"/><path d="m256 352h-32c-4.417969 0-8 3.582031-8 8v48c0 4.417969 3.582031 8 8 8h32c4.417969 0 8-3.582031 8-8v-48c0-4.417969-3.582031-8-8-8zm-8 48h-16v-32h16zm0 0"/><path d="m176 352h-32c-4.417969 0-8 3.582031-8 8v48c0 4.417969 3.582031 8 8 8h32c4.417969 0 8-3.582031 8-8v-48c0-4.417969-3.582031-8-8-8zm-8 48h-16v-32h16zm0 0"/><path d="m336 352h-32c-4.417969 0-8 3.582031-8 8v48c0 4.417969 3.582031 8 8 8h32c4.417969 0 8-3.582031 8-8v-48c0-4.417969-3.582031-8-8-8zm-8 48h-16v-32h16zm0 0"/><path d="m352 256h-224c-2.773438 0-5.347656 1.433594-6.808594 3.792969-1.457031 2.355469-1.589844 5.300781-.351562 7.78125l16 32c1.355468 2.714843 4.128906 4.425781 7.160156 4.425781h192c3.046875.015625 5.839844-1.699219 7.199219-4.425781l16-32c1.242187-2.484375 1.105469-5.4375-.363281-7.800781-1.46875-2.359376-4.054688-3.789063-6.835938-3.773438zm-20.945312 32h-182.109376l-8-16h198.109376zm0 0"/><path d="m408 256h16v16h-16zm0 0"/><path d="m216 160c-13.253906 0-24 10.746094-24 24s10.746094 24 24 24 24-10.746094 24-24-10.746094-24-24-24zm0 32c-4.417969 0-8-3.582031-8-8s3.582031-8 8-8 8 3.582031 8 8-3.582031 8-8 8zm0 0"/><path d="m336 80c0 13.253906 10.746094 24 24 24s24-10.746094 24-24-10.746094-24-24-24-24 10.746094-24 24zm32 0c0 4.417969-3.582031 8-8 8s-8-3.582031-8-8 3.582031-8 8-8 8 3.582031 8 8zm0 0"/><path d="m128 72c0-13.253906-10.746094-24-24-24s-24 10.746094-24 24 10.746094 24 24 24 24-10.746094 24-24zm-24 8c-4.417969 0-8-3.582031-8-8s3.582031-8 8-8 8 3.582031 8 8-3.582031 8-8 8zm0 0"/><path d="m296 184h16v16h-16zm0 0"/><path d="m120 120h16v16h-16zm0 0"/><path d="m240 136h16v16h-16zm0 0"/><path d="m238.398438 55.199219c-3.949219-4.09375-6.230469-9.511719-6.398438-15.199219.175781-5.683594 2.457031-11.101562 6.398438-15.199219 6.0625-6.855469 9.464843-15.652343 9.601562-24.800781h-16c-.175781 5.683594-2.457031 11.101562-6.398438 15.199219-6.0625 6.855469-9.464843 15.652343-9.601562 24.800781.136719 9.148438 3.542969 17.945312 9.601562 24.800781 3.949219 4.09375 6.230469 9.511719 6.398438 15.199219-.167969 5.6875-2.449219 11.105469-6.398438 15.199219-6.058593 6.855469-9.464843 15.652343-9.601562 24.800781h16c.167969-5.6875 2.449219-11.105469 6.398438-15.199219 6.058593-6.855469 9.464843-15.652343 9.601562-24.800781-.136719-9.148438-3.542969-17.945312-9.601562-24.800781zm0 0"/><path d="m184 40h-16c-.175781 5.683594-2.457031 11.101562-6.398438 15.199219-6.0625 6.855469-9.464843 15.652343-9.601562 24.800781.136719 9.148438 3.542969 17.945312 9.601562 24.800781 3.949219 4.09375 6.230469 9.511719 6.398438 15.199219-.167969 5.6875-2.449219 11.105469-6.398438 15.199219-6.058593 6.855469-9.464843 15.652343-9.601562 24.800781h16c.167969-5.6875 2.449219-11.105469 6.398438-15.199219 12.789062-14.0625 12.789062-35.539062 0-49.601562-3.949219-4.09375-6.230469-9.511719-6.398438-15.199219.175781-5.683594 2.457031-11.101562 6.398438-15.199219 6.0625-6.855469 9.464843-15.652343 9.601562-24.800781zm0 0"/><path d="m312 40h-16c-.175781 5.683594-2.457031 11.101562-6.398438 15.199219-6.0625 6.855469-9.464843 15.652343-9.601562 24.800781.136719 9.148438 3.542969 17.945312 9.601562 24.800781 3.949219 4.09375 6.230469 9.511719 6.398438 15.199219-.167969 5.6875-2.449219 11.105469-6.398438 15.199219-6.058593 6.855469-9.464843 15.652343-9.601562 24.800781h16c.167969-5.6875 2.449219-11.105469 6.398438-15.199219 12.789062-14.0625 12.789062-35.539062 0-49.601562-3.949219-4.09375-6.230469-9.511719-6.398438-15.199219.175781-5.683594 2.457031-11.101562 6.398438-15.199219 6.0625-6.855469 9.464843-15.652343 9.601562-24.800781zm0 0"/></svg>