<svg height="511pt" viewBox="0 0 511 511.99986" width="511pt" xmlns="http://www.w3.org/2000/svg"><path d="m22.230469 494.113281-3.863281-3.863281c-14.5-14.503906-14.5-38.011719 0-52.515625l127.5-127.5c2.039062-2.039063 5.347656-2.039063 7.386718 0l48.992188 48.988281c2.039062 2.042969 2.039062 5.347656 0 7.390625l-127.503906 127.5c-14.5 14.5-38.011719 14.5-52.511719 0zm0 0" fill="#ff5f00"/><path d="m202.242188 366.613281-127.496094 127.496094c-14.503906 14.503906-38.011719 14.503906-52.515625 0l-3.859375-3.863281c-2.042969-2.042969-3.796875-4.261719-5.25-6.613282 14.324218 8.957032 33.425781 7.203126 45.890625-5.257812l127.496093-127.496094c2.042969-2.042968 2.042969-5.347656 0-7.390625l15.734376 15.738281c2.042968 2.042969 2.042968 5.34375 0 7.386719zm0 0" fill="#f15300"/><path d="m426.019531 173.167969 79.167969-119.734375c1.1875-1.769532-1.621094-4.222656-3.117188-2.726563l-105.515624 105.515625c-10.925782 10.921875-28.726563 11.734375-40.03125 1.203125-11.871094-11.054687-12.121094-29.648437-.746094-41.019531l105.996094-105.996094c1.496093-1.496094-.957032-4.304687-2.726563-3.117187l-119.734375 79.167969c-23.019531 15.222656-38.84375 39.167968-43.820312 66.3125l-.230469 1.257812c-1.039063 5.679688-1.15625 11.40625-.410157 16.984375 1.125 8.371094-1.484374 16.808594-7.457031 22.78125l-125.289062 125.289063 31.289062 31.289062 125.289063-125.292969c5.972656-5.972656 14.410156-8.578125 22.78125-7.457031 5.574218.75 11.300781.632812 16.980468-.410156l1.261719-.230469c27.144531-4.976563 51.089844-20.796875 66.3125-43.816406zm0 0" fill="#bfbfbf"/><path d="m359.707031 216.984375-1.257812.230469c-5.683594 1.046875-11.410157 1.160156-16.988281.414062-8.371094-1.125-16.804688 1.480469-22.777344 7.453125l-125.292969 125.292969-13.3125-13.3125 128.367187-128.363281c6.554688-6.554688 16.082032-9.007813 25.0625-6.714844 6.425782 1.640625 13.125 2.578125 18.71875 1.546875l1.269532-.222656c27.140625-4.980469 51.085937-20.808594 66.308594-43.828125l51.746093-78.257813 30.519531-30.519531c1.492188-1.492187 4.300782.960937 3.117188 2.722656l-79.164062 119.738281c-15.222657 23.019532-39.164063 38.847657-66.316407 43.820313zm0 0" fill="#acacac"/><path d="m509.023438 45.371094c-3.667969-3.015625-8.679688-2.855469-11.914063.375l-105.511719 105.515625c-8.351562 8.351562-21.941406 8.8125-30.292968 1.03125-4.320313-4.019531-6.753907-9.472657-6.859376-15.355469-.101562-5.882812 2.128907-11.414062 6.289063-15.570312l105.996094-105.996094c3.234375-3.234375 3.394531-8.246094.375-11.917969-3.023438-3.679687-8.167969-4.53125-11.925781-2.011719l-119.734376 79.171875c-10.609374 7.015625-19.824218 15.757813-27.386718 25.984375-2.300782 3.117188-1.644532 7.507813 1.472656 9.808594 3.113281 2.304688 7.503906 1.644531 9.808594-1.46875 6.582031-8.90625 14.601562-16.515625 23.839844-22.625l79.019531-52.246094-71.378907 71.378906c-6.878906 6.878907-10.566406 16.019532-10.394531 25.742188s4.191407 18.730469 11.320313 25.371094c13.816406 12.867187 36.144531 12.246094 49.769531-1.378906l70.902344-70.902344-52.25 79.023437c-14.089844 21.3125-36.589844 36.179688-61.722657 40.785157l-1.261718.230468c-4.886719.898438-9.859375 1.019532-14.789063.355469-10.769531-1.4375-21.21875 2-28.667969 9.453125l-120.332031 120.332031-21.371093-21.371093 120.332031-120.332032c7.449219-7.449218 10.894531-17.898437 9.449219-28.667968-.660157-4.925782-.539063-9.902344.355468-14.789063l.230469-1.257813c.109375-.59375.222656-1.183593.339844-1.757812.007812-.042969.894531-4.335938 1.710937-7.03125l.832032-2.78125c1.117187-3.707031-.984376-7.617188-4.695313-8.734375-3.703125-1.113281-7.617187.984375-8.734375 4.695313l-.835938 2.773437c-.996093 3.300781-1.976562 8.054687-2.019531 8.265625-.136719.675781-.269531 1.355469-.394531 2.039062l-.230469 1.261719c-1.164062 6.335938-1.320312 12.789063-.464843 19.179688.859374 6.402343-1.132813 12.554687-5.464844 16.886719l-120.328125 120.332031-3.890625-3.890625c-4.773438-4.773438-12.535156-4.769532-17.304688 0l-127.5 127.5c-17.214844 17.210937-17.214844 45.21875 0 62.429687l3.863282 3.863281c8.335937 8.335938 19.421874 12.929688 31.214843 12.929688 11.789063 0 22.875-4.59375 31.214844-12.929688l50.460937-50.464843c2.738282-2.738281 2.738282-7.179688 0-9.917969-2.738281-2.738281-7.179687-2.738281-9.917968 0l-50.460938 50.464844c-5.6875 5.6875-13.253906 8.824218-21.296875 8.824218-8.046875 0-15.609375-3.136718-21.296875-8.824218l-3.863281-3.863282c-11.742187-11.742187-11.742187-30.851562 0-42.59375l126.234375-126.234374 46.457031 46.457031-51.863281 51.867187c-2.742188 2.738282-2.742188 7.179688 0 9.917969 2.738281 2.734375 7.179688 2.734375 9.917969 0l53.128906-53.132813c4.769531-4.769531 4.769531-12.535156 0-17.304687l-3.890625-3.890625 120.328125-120.332031c4.332031-4.332031 10.484375-6.316407 16.890625-5.464844 6.386719.855469 12.84375.699219 19.179688-.460937l1.261718-.230469c28.867188-5.292969 54.707032-22.371094 70.894532-46.851563l79.144531-119.699218c2.546875-3.796876 1.691406-8.941407-1.988281-11.964844zm0 0"/><path d="m55.4375 467.105469c0 5.558593-4.507812 10.0625-10.0625 10.0625-5.558594 0-10.0625-4.503907-10.0625-10.0625 0-5.554688 4.503906-10.0625 10.0625-10.0625 5.554688 0 10.0625 4.507812 10.0625 10.0625zm0 0" fill="#111"/></svg>