<svg height="480pt" viewBox="0 0 480 480" width="480pt" xmlns="http://www.w3.org/2000/svg"><g fill="#426d78"><path d="m0 72h16v408h-16zm0 0"/><path d="m464 72h16v408h-16zm0 0"/><path d="m88 136h16v40h-16zm0 0"/><path d="m152 136h16v40h-16zm0 0"/><path d="m88 224h16v32h-16zm0 0"/><path d="m152 224h16v32h-16zm0 0"/></g><path d="m240 248h192v64h-192zm0 0" fill="#f9ddac"/><path d="m240 312h192v64h-192zm0 0" fill="#f3bb59"/><path d="m240 376h192v96h-192zm0 0" fill="#edaa72"/><path d="m240 400h88v16h-88zm0 0" fill="#d3843d"/><path d="m384 400h48v16h-48zm0 0" fill="#d3843d"/><path d="m264 432h32v16h-32zm0 0" fill="#d3843d"/><path d="m312 432h56v16h-56zm0 0" fill="#d3843d"/><path d="m392 432h40v16h-40zm0 0" fill="#d3843d"/><path d="m288 280h16v32h-32v-16c0-8.835938 7.164062-16 16-16zm0 0" fill="#f98c96"/><path d="m304 376h-32v-32h16c8.835938 0 16 7.164062 16 16zm0 0" fill="#dd3e46"/><path d="m368 376h-32v-32h16c8.835938 0 16 7.164062 16 16zm0 0" fill="#f98c96"/><path d="m400 376h-32v-32h16c8.835938 0 16 7.164062 16 16zm0 0" fill="#dd3e46"/><path d="m48 352h192v64h-192zm0 0" fill="#f9ddac"/><path d="m112 416h-32v-32h16c8.835938 0 16 7.164062 16 16zm0 0" fill="#f98c96"/><path d="m176 416h-32v-32h16c8.835938 0 16 7.164062 16 16zm0 0" fill="#dd3e46"/><path d="m208 416h-32v-32h16c8.835938 0 16 7.164062 16 16zm0 0" fill="#f98c96"/><path d="m320 280h16v32h-32v-16c0-8.835938 7.164062-16 16-16zm0 0" fill="#dd3e46"/><path d="m352 280h16v32h-32v-16c0-8.835938 7.164062-16 16-16zm0 0" fill="#f98c96"/><path d="m384 280h16v32h-32v-16c0-8.835938 7.164062-16 16-16zm0 0" fill="#dd3e46"/><path d="m48 416h32v56h-32zm0 0" fill="#d3843d"/><path d="m208 416h32v56h-32zm0 0" fill="#d3843d"/><path d="m8 8h464v64h-464zm0 0" fill="#cfdfe8"/><path d="m480 80h-480v-80h480zm-464-16h448v-48h-448zm0 0" fill="#cfdfe8"/><path d="m48 72h48v64h-48zm0 0" fill="#f98c96"/><path d="m96 72h48v64h-48zm0 0" fill="#dd3e46"/><path d="m144 72h48v64h-48zm0 0" fill="#f98c96"/><path d="m192 72h48v64h-48zm0 0" fill="#dd3e46"/><path d="m240 72h48v64h-48zm0 0" fill="#f98c96"/><path d="m288 72h48v64h-48zm0 0" fill="#dd3e46"/><path d="m336 72h48v64h-48zm0 0" fill="#f98c96"/><path d="m384 72h48v64h-48zm0 0" fill="#dd3e46"/><path d="m8 32h80v16h-80zm0 0" fill="#426d78"/><path d="m104 32h16v16h-16zm0 0" fill="#426d78"/><path d="m344 32h128v16h-128zm0 0" fill="#426d78"/><path d="m64 176h128v48h-128zm0 0" fill="#f3bb59"/><path d="m64 256h128v48h-128zm0 0" fill="#f3bb59"/><path d="m440 240h-208v104h-192v136h48v-56h112v56h240zm-192 16h176v48h-16v-32h-24c-2.730469.027344-5.4375.523438-8 1.472656v-1.472656h-24c-2.730469.027344-5.4375.523438-8 1.472656v-1.472656h-24c-2.730469.027344-5.4375.523438-8 1.472656v-1.472656h-24c-13.253906 0-24 10.746094-24 24v8h-16zm48 40v8h-16v-8c0-4.417969 3.582031-8 8-8h8zm16 0c0-4.417969 3.582031-8 8-8h8v16h-16zm32 0c0-4.417969 3.582031-8 8-8h8v16h-16zm32 0c0-4.417969 3.582031-8 8-8h8v16h-16zm-128 24h176v48h-16v-8c0-13.253906-10.746094-24-24-24h-24v1.472656c-2.5625-.949218-5.269531-1.445312-8-1.472656h-24v32h-16v-8c0-13.253906-10.746094-24-24-24h-24v32h-16zm112 48h-16v-16h8c4.417969 0 8 3.582031 8 8zm16-8v-8h8c4.417969 0 8 3.582031 8 8v8h-16zm-80 8h-16v-16h8c4.417969 0 8 3.582031 8 8zm-224 96h-16v-40h16zm16-56v-16h8c4.417969 0 8 3.582031 8 8v8zm32 0v-8c0-13.253906-10.746094-24-24-24h-24v32h-16v-48h176v48h-16v-8c0-13.253906-10.746094-24-24-24h-24v1.472656c-2.5625-.949218-5.269531-1.445312-8-1.472656h-24v32zm32 0v-16h8c4.417969 0 8 3.582031 8 8v8zm32 0v-16h8c4.417969 0 8 3.582031 8 8v8zm48 56h-16v-40h16zm16 0v-48h80v-16h-80v-16h176v16h-40v16h40v16h-32v16h32v16zm0 0"/><path d="m264 432h32v16h-32zm0 0"/><path d="m312 432h56v16h-56zm0 0"/><path d="m0 480h16v-400h24v64h48v24h-32v64h32v16h-32v64h144v-64h-32v-16h32v-64h-32v-24h272v-64h24v400h16v-480h-480zm56-352v-48h32v48zm48-48h32v48h-32zm80 216h-112v-32h112zm-32-48h-48v-16h48zm32-32h-112v-32h112zm-32-48h-48v-24h48zm32-40h-32v-48h32zm48 0h-32v-48h32zm48 0h-32v-48h32zm48 0h-32v-48h32zm48 0h-32v-48h32zm48 0h-32v-48h32zm40-112v16h-120v16h120v16h-448v-16h72v-16h-72v-16zm0 0"/><path d="m104 32h16v16h-16zm0 0"/></svg>