<svg height="480pt" viewBox="0 -100 480 480" width="480pt" xmlns="http://www.w3.org/2000/svg"><path d="m8 192h464v48h-464zm0 0" fill="#f9ddac"/><path d="m40 240h112v32h-112zm0 0" fill="#ebb562"/><path d="m328 240h112v32h-112zm0 0" fill="#ebb562"/><path d="m448 136c-33.722656-10.285156-68.746094-15.675781-104-16-35.253906.324219-70.277344 5.714844-104 16v-48c33.722656-10.285156 68.746094-15.675781 104-16 35.253906.324219 70.277344 5.714844 104 16zm0 0" fill="#dd3e46"/><path d="m448 136c-33.722656-10.285156-68.746094-15.675781-104-16-35.253906.324219-70.277344 5.714844-104 16v56h208zm0 0" fill="#edf2f4"/><path d="m344 72c-13.371094.035156-26.730469.875-40 2.519531v117.480469h80v-117.480469c-13.269531-1.644531-26.628906-2.484375-40-2.519531zm0 0" fill="#426d78"/><path d="m240 136c-33.722656-10.285156-68.746094-15.675781-104-16-35.253906.324219-70.277344 5.714844-104 16v56h208zm0 0" fill="#cfdfe8"/><path d="m187.671875 76.144531-25.320313 45.007813c26.339844 2.164062 52.371094 7.144531 77.648438 14.847656v-48c-17.117188-5.273438-34.609375-9.234375-52.328125-11.855469zm0 0" fill="#e97424"/><path d="m136 72c-6.960938 0-13.792969.246094-20.425781.679688l-32.261719 51.625c17.425781-2.785157 35.039062-4.226563 52.6875-4.304688 9.0625 0 17.878906.449219 26.351562 1.152344l25.320313-45.007813c-17.09375-2.683593-34.367187-4.070312-51.671875-4.144531zm0 0" fill="#e4544f"/><path d="m115.574219 72.679688c-28.351563 1.878906-56.398438 7.019531-83.574219 15.320312v48c16.789062-5.171875 33.941406-9.082031 51.3125-11.695312zm0 0" fill="#e97424"/><g fill="#fff"><path d="m64 152h16v16h-16zm0 0"/><path d="m112 144h16v16h-16zm0 0"/><path d="m152 152h16v16h-16zm0 0"/><path d="m184 144h16v16h-16zm0 0"/><path d="m280 152h24v16h-24zm0 0"/><path d="m384 152h24v16h-24zm0 0"/></g><path d="m232 0h16v32h-16zm0 0" fill="#ea7a92"/><path d="m178.34375 21.660156 11.3125-11.3125 24.003906 24-11.316406 11.3125zm0 0" fill="#ea7a92"/><path d="m266.34375 34.339844 24.003906-24 11.3125 11.3125-24 24.003906zm0 0" fill="#ea7a92"/><path d="m232 0h16v32h-16zm0 0"/><path d="m178.34375 21.660156 11.3125-11.3125 24.003906 24-11.316406 11.3125zm0 0"/><path d="m266.34375 34.339844 24.003906-24 11.3125 11.3125-24 24.003906zm0 0"/><path d="m480 184h-24v-96c0-3.445312-2.203125-6.503906-5.472656-7.59375-34.527344-10.597656-70.410156-16.121094-106.527344-16.40625-35.226562.304688-70.234375 5.558594-104 15.609375-16.753906-4.972656-33.832031-8.773437-51.113281-11.378906-17.496094-2.742188-35.175781-4.15625-52.886719-4.230469-6.761719 0-13.808594.230469-20.9375.695312-29.046875 1.894532-57.773438 7.167969-85.597656 15.710938-3.265625 1.09375-5.46875 4.152344-5.464844 7.59375v96h-24v64h32v32h128v-32h160v32h128v-32h32zm-232 0v-42.0625c15.757812-4.472656 31.792969-7.910156 48-10.289062v20.351562h-16v16h16v16zm48-68.527344c-16.1875 2.28125-32.21875 5.566406-48 9.832032v-31.367188c15.757812-4.460938 31.792969-7.878906 48-10.242188zm16-33.785156.574219-.0625c5.242187-.519531 10.402343-.921875 15.464843-1.191406h.457032c10.328125-.539063 20.679687-.539063 31.007812 0h.457032c5.078124.269531 10.222656.671875 15.464843 1.191406l.574219.0625v102.3125h-64zm80 86.3125h16v-16h-16v-20.351562c16.207031 2.378906 32.242188 5.816406 48 10.289062v42.0625h-48zm48-42.695312c-15.78125-4.265626-31.8125-7.550782-48-9.832032v-31.777344c16.207031 2.363282 32.242188 5.78125 48 10.242188zm-248.097656-40.375c13.523437 2.253906 26.910156 5.261718 40.097656 9.007812v31.359375c-18.589844-5.03125-37.527344-8.675781-56.65625-10.898437zm-71.796875-4.402344c5.382812-.28125 10.773437-.527344 15.894531-.527344 13.015625.042969 26.015625.875 38.929688 2.488281l-17.035157 30.3125c-7.09375-.480469-14.398437-.800781-21.894531-.800781-12.324219.03125-24.640625.734375-36.886719 2.113281zm-19.832031 1.542968-21.785157 34.859376c-12.964843 2.125-25.8125 4.917968-38.488281 8.367187v-31.367187c19.734375-5.582032 39.894531-9.546876 60.273438-11.859376zm-60.273438 59.867188c31.242188-8.882812 63.523438-13.570312 96-13.9375 32.476562.367188 64.757812 5.054688 96 13.9375v42.0625h-192zm104 122.0625h-96v-16h96zm288 0h-96v-16h96zm32-32h-448v-32h448zm0 0"/><path d="m64 152h16v16h-16zm0 0"/><path d="m112 144h16v16h-16zm0 0"/><path d="m152 152h16v16h-16zm0 0"/><path d="m184 144h16v16h-16zm0 0"/></svg>