<svg height="480pt" viewBox="0 -2 480 480" width="480pt" xmlns="http://www.w3.org/2000/svg"><path d="m8 388.652344h464v80h-464zm0 0" fill="#f9ddac"/><path d="m192 388.652344s-32-39.300782 32-112c64-72.695313 0-119.917969-8-128-8-8.078125-72-55.382813-16-120 56-64.613282 0 39.617187 72 80 40.800781 22.875 84.433594 48.304687 56 144-24 80.800781-48 79.457031-32 136zm0 0" fill="#67c086"/><path d="m328 252.652344c28.433594-95.695313-15.199219-121.125-56-144-57.65625-32.34375-33.28125-105.535156-50.015625-100.269532-8.3125 16.367188-36.769531 83.472657 26.015625 132.269532 72 56 56 104 32 136s-40 64-16 112h32c-16-56.542969 8-55.199219 32-136zm0 0" fill="#d1f5c9"/><path d="m288 300.652344h16v16h-16zm0 0" fill="#67c086"/><path d="m256 332.652344h16v16h-16zm0 0" fill="#67c086"/><path d="m312 172.652344h24v16h-24zm0 0" fill="#67c086"/><path d="m264 148.652344h32v16h-32zm0 0" fill="#67c086"/><g fill="#e97424"><path d="m64 412.652344h16v16h-16zm0 0"/><path d="m104 428.652344h48v16h-48zm0 0"/><path d="m240 412.652344h16v16h-16zm0 0"/><path d="m304 428.652344h32v16h-32zm0 0"/><path d="m416 412.652344h16v16h-16zm0 0"/><path d="m432 428.652344h16v16h-16zm0 0"/><path d="m32 428.652344h16v16h-16zm0 0"/></g><path d="m176 196.652344c0 8.839844-7.164062 16-16 16s-16-7.160156-16-16c0-8.835938 7.164062-16 16-16s16 7.164062 16 16zm0 0" fill="#7fcac9"/><path d="m344 44.652344c0 13.257812-10.746094 24-24 24s-24-10.742188-24-24c0-13.253906 10.746094-24 24-24s24 10.746094 24 24zm0 0" fill="#7fcac9"/><path d="m416 132.652344c0 8.839844-7.164062 16-16 16s-16-7.160156-16-16c0-8.835938 7.164062-16 16-16s16 7.164062 16 16zm0 0" fill="#7fcac9"/><path d="m136 284.652344c0 13.257812-10.746094 24-24 24s-24-10.742188-24-24c0-13.253906 10.746094-24 24-24s24 10.746094 24 24zm0 0" fill="#7fcac9"/><path d="m400 276.652344c0 8.839844-7.164062 16-16 16s-16-7.160156-16-16c0-8.835938 7.164062-16 16-16s16 7.164062 16 16zm0 0" fill="#7fcac9"/><path d="m128 60.652344h16v16h-16zm0 0" fill="#beedea"/><path d="m176 244.652344h16v16h-16zm0 0" fill="#beedea"/><path d="m336 100.652344h16v16h-16zm0 0" fill="#beedea"/><path d="m376 196.652344h16v16h-16zm0 0" fill="#beedea"/><path d="m328 340.652344h16v16h-16zm0 0" fill="#beedea"/><path d="m64 412.652344h16v16h-16zm0 0"/><path d="m104 428.652344h48v16h-48zm0 0"/><path d="m240 412.652344h16v16h-16zm0 0"/><path d="m304 428.652344h32v16h-32zm0 0"/><path d="m416 412.652344h16v16h-16zm0 0"/><path d="m432 428.652344h16v16h-16zm0 0"/><path d="m32 428.652344h16v16h-16zm0 0"/><path d="m472 380.652344h-169.863281c-7.144531-28.46875-2.226563-38.894532 8.726562-62.070313 10.023438-20.488281 18.316407-41.78125 24.800781-63.648437 30.496094-102.640625-19.542968-130.703125-59.761718-153.253906-33.261719-18.625-36.167969-52.515626-38.085938-74.914063-1.167968-13.601563-2.007812-23.367187-10.65625-26.183594-8.894531-2.894531-17.800781 5.0625-33.207031 22.832031-46.753906 53.984376-18.351563 99.640626 13.742187 128.441407 1.136719 1.023437 2.046876 1.824219 2.617188 2.398437.566406.574219 1.695312 1.601563 2.984375 2.777344 14.519531 13.101562 58.6875 52.984375 4.695313 114.300781-47.097657 53.539063-44.960938 90.921875-38.792969 109.320313h-171.199219c-4.417969 0-8 3.582031-8 8v80c0 4.417968 3.582031 8 8 8h464c4.417969 0 8-3.582032 8-8v-80c0-4.417969-3.582031-8-8-8zm-203.910156-265.023438c24 13.457032 48.429687 27.25 57.375 57.023438h-13.464844v16h16.441406c1.277344 20.90625-1.476562 41.859375-8.113281 61.722656-5.019531 17.191406-11.277344 33.992188-18.726563 50.277344h-13.601562v16h6.105469c-11.132813 19.394531-14.148438 42.394531-8.394531 64h-16.597657c-4.851562-10.046875-7.84375-20.886719-8.839843-32h11.726562v-16h-10.96875c4.1875-18.867188 12.894531-36.4375 25.367188-51.199219 29.945312-39.925781 29.210937-79.078125-1.773438-116.800781h11.375v-16h-26.398438c-5.097656-4.796875-10.554687-9.597656-16.65625-14.320313-44.480468-34.589843-39.503906-78.855469-30.9375-105.015625 2.0625 24.304688 6.046876 63.867188 46.082032 86.3125zm-38.082032 166.3125c29.390626-33.382812 52.207032-84.214844-5.984374-136.800781-1.007813-.902344-1.816407-1.597656-2.335938-2.160156-.726562-.726563-1.855469-1.75-3.304688-3.046875-14.222656-12.800782-56.886718-51.136719-14.855468-103.015625-10.734375 41.332031 4.96875 85.019531 39.5625 110.054687 78.398437 60.992188 42.398437 109.082032 30.511718 124.882813-20.707031 27.605469-40.671874 60.855469-21.867187 108.796875h-55.320313c-5.078124-9.789063-15.511718-42.941406 33.59375-98.710938zm233.992188 178.710938h-448v-64h448zm0 0"/><path d="m160 172.652344c-13.253906 0-24 10.746094-24 24 0 13.257812 10.746094 24 24 24s24-10.742188 24-24c0-13.253906-10.746094-24-24-24zm0 32c-4.417969 0-8-3.582032-8-8 0-4.417969 3.582031-8 8-8s8 3.582031 8 8c0 4.417968-3.582031 8-8 8zm0 0"/><path d="m320 12.652344c-17.671875 0-32 14.328125-32 32 0 17.675781 14.328125 32 32 32s32-14.324219 32-32c0-17.671875-14.328125-32-32-32zm0 48c-8.835938 0-16-7.160156-16-16 0-8.835938 7.164062-16 16-16s16 7.164062 16 16c0 8.839844-7.164062 16-16 16zm0 0"/><path d="m424 132.652344c0-13.253906-10.746094-24-24-24s-24 10.746094-24 24c0 13.257812 10.746094 24 24 24s24-10.742188 24-24zm-32 0c0-4.417969 3.582031-8 8-8s8 3.582031 8 8c0 4.417968-3.582031 8-8 8s-8-3.582032-8-8zm0 0"/><path d="m80 284.652344c0 17.675781 14.328125 32 32 32s32-14.324219 32-32c0-17.671875-14.328125-32-32-32s-32 14.328125-32 32zm48 0c0 8.839844-7.164062 16-16 16s-16-7.160156-16-16c0-8.835938 7.164062-16 16-16s16 7.164062 16 16zm0 0"/><path d="m360 276.652344c0 13.257812 10.746094 24 24 24s24-10.742188 24-24c0-13.253906-10.746094-24-24-24s-24 10.746094-24 24zm24-8c4.417969 0 8 3.582031 8 8 0 4.417968-3.582031 8-8 8s-8-3.582032-8-8c0-4.417969 3.582031-8 8-8zm0 0"/><path d="m128 60.652344h16v16h-16zm0 0"/><path d="m176 244.652344h16v16h-16zm0 0"/><path d="m336 100.652344h16v16h-16zm0 0"/><path d="m376 196.652344h16v16h-16zm0 0"/><path d="m328 340.652344h16v16h-16zm0 0"/></svg>