<svg height="511pt" viewBox="-34 0 511 511.99962" width="511pt" xmlns="http://www.w3.org/2000/svg"><path d="m37.445312 47.378906c-3.042968-9.992187-7.316406-19.976562-7.660156-30.554687-.132812-4.15625.667969-8.734375 5.3125-9.664063 5.695313-1.136718 9.601563 5.121094 15.460938 3.164063 5.527344-1.84375 9.597656-3.515625 11.394531 3.433593 1.359375 5.25-6.476563 33.617188-6.476563 33.617188h-18.03125zm0 0" fill="#e57670"/><path d="m55.476562 47.378906h-8.351562s7.832031-28.371094 6.476562-33.621094c-.472656-1.8125-1.089843-3.039062-1.859374-3.824218 4.925781-1.648438 8.542968-2.617188 10.214843 3.824218 1.359375 5.25-6.480469 33.621094-6.480469 33.621094zm0 0" fill="#e05c56"/><path d="m389.601562 47.378906c-3.039062-9.992187-7.3125-19.976562-7.65625-30.554687-.136718-4.15625.664063-8.734375 5.308594-9.664063 5.699219-1.136718 9.601563 5.121094 15.464844 3.164063 5.523438-1.84375 9.597656-3.515625 11.394531 3.433593 1.355469 5.25-6.476562 33.617188-6.476562 33.617188h-18.035157zm0 0" fill="#e57670"/><path d="m407.636719 47.378906h-8.355469s7.832031-28.371094 6.476562-33.621094c-.46875-1.8125-1.089843-3.039062-1.855468-3.824218 4.925781-1.648438 8.542968-2.617188 10.214844 3.824218 1.355468 5.25-6.480469 33.621094-6.480469 33.621094zm0 0" fill="#e05c56"/><path d="m53.421875 190.027344h-14.953125c-17.089844 0-30.945312-13.855469-30.945312-30.941406v-86.949219c0-17.089844 13.855468-30.941407 30.945312-30.941407h14.953125c17.089844 0 30.941406 13.851563 30.941406 30.941407v86.949219c0 17.089843-13.851562 30.941406-30.941406 30.941406zm0 0" fill="#ffc1b8"/><path d="m84.363281 72.136719v86.949219c0 14.339843-9.75 26.394531-22.984375 29.90625 7.929688-5.96875 13.058594-15.457032 13.058594-26.144532v-94.472656c0-10.6875-5.128906-20.175781-13.058594-26.144531 13.234375 3.511719 22.984375 15.566406 22.984375 29.90625zm0 0" fill="#ffb3a8"/><path d="m53.421875 339.390625h-14.953125c-17.089844 0-30.945312-13.855469-30.945312-30.941406v-86.949219c0-17.089844 13.855468-30.945312 30.945312-30.945312h14.953125c17.089844 0 30.941406 13.855468 30.941406 30.945312v86.949219c0 17.089843-13.851562 30.941406-30.941406 30.941406zm0 0" fill="#ffc1b8"/><path d="m84.363281 221.5v86.949219c0 14.339843-9.75 26.394531-22.984375 29.90625 7.929688-5.96875 13.058594-15.457031 13.058594-26.144531v-94.472657c0-10.6875-5.128906-20.175781-13.058594-26.148437 13.234375 3.515625 22.984375 15.570312 22.984375 29.910156zm0 0" fill="#ffb3a8"/><path d="m132.84375 471.042969-13.09375 7.230469c-14.957031 8.261718-33.78125 2.832031-42.042969-12.125l-42.035156-76.113282c-8.261719-14.960937-2.832031-33.785156 12.125-42.046875l13.09375-7.230469c14.960937-8.261718 33.78125-2.832031 42.046875 12.128907l42.035156 76.113281c8.257813 14.957031 2.832032 33.78125-12.128906 42.042969zm0 0" fill="#ffc1b8"/><path d="m102.9375 352.882812 42.035156 76.117188c6.929688 12.550781 4.222656 27.820312-5.660156 37.289062 4.054688-9.058593 3.957031-19.839843-1.210938-29.199218l-45.671874-82.695313c-5.167969-9.359375-14.242188-15.183593-24.070313-16.578125 13.28125-3.324218 27.644531 2.515625 34.578125 15.066406zm0 0" fill="#ffb3a8"/><path d="m390.625 190.027344h14.953125c17.089844 0 30.945313-13.855469 30.945313-30.941406v-86.949219c0-17.089844-13.855469-30.941407-30.945313-30.941407h-14.953125c-17.089844 0-30.941406 13.851563-30.941406 30.941407v86.949219c0 17.089843 13.851562 30.941406 30.941406 30.941406zm0 0" fill="#ffc1b8"/><path d="m436.523438 73.328125v86.945313c0 14.121093-9.457032 26.035156-22.382813 29.753906 6.691406-6.226563 10.871094-15.109375 10.871094-24.972656v-95.839844c0-10.367188-4.628907-19.660156-11.933594-25.910156 13.46875 3.351562 23.445313 15.519531 23.445313 30.023437zm0 0" fill="#ffb3a8"/><path d="m390.625 339.390625h14.953125c17.089844 0 30.945313-13.855469 30.945313-30.941406v-86.949219c0-17.089844-13.855469-30.945312-30.945313-30.945312h-14.953125c-17.089844 0-30.941406 13.855468-30.941406 30.945312v86.949219c0 17.089843 13.851562 30.941406 30.941406 30.941406zm0 0" fill="#ffc1b8"/><path d="m436.519531 221.5v86.945312c0 14.117188-9.457031 26.035157-22.378906 29.753907 6.6875-6.226563 10.871094-15.109375 10.871094-24.972657v-95.839843c0-10.367188-4.632813-19.660157-11.933594-25.910157 13.464844 3.351563 23.441406 15.519532 23.441406 30.023438zm0 0" fill="#ffb3a8"/><path d="m311.203125 471.042969 13.089844 7.230469c14.960937 8.261718 33.785156 2.832031 42.046875-12.125l42.035156-76.113282c8.261719-14.960937 2.832031-33.785156-12.128906-42.046875l-13.089844-7.230469c-14.960938-8.261718-33.785156-2.832031-42.046875 12.128907l-42.035156 76.113281c-8.261719 14.957031-2.832031 33.78125 12.128906 42.042969zm0 0" fill="#ffc1b8"/><path d="m408.375 390.035156-42.03125 76.113282c-6.582031 11.910156-19.859375 17.78125-32.554688 15.492187 7.792969-2.796875 14.628907-8.339844 18.945313-16.152344l48.027344-86.96875c4.1875-7.578125 5.296875-16.03125 3.75-23.914062 8.394531 9.527343 10.359375 23.671875 3.863281 35.429687zm0 0" fill="#ffb3a8"/><path d="m296.390625 458.332031.09375 14.953125c.109375 17.089844-13.65625 31.03125-30.746094 31.136719l-86.945312.554687c-17.089844.105469-31.027344-13.65625-31.136719-30.746093l-.097656-14.953125c-.105469-17.089844 13.660156-31.03125 30.746094-31.140625l86.945312-.550781c17.089844-.109376 31.03125 13.65625 31.140625 30.746093zm0 0" fill="#ffc1b8"/><path d="m296.484375 473.285156c.113281 17.089844-13.65625 31.027344-30.742187 31.136719h-13.074219c17.085937-.109375 30.855469-14.046875 30.742187-31.136719l-.089844-14.949218c-.109374-16.355469-12.863281-29.640626-28.917968-30.683594l10.847656-.070313c17.089844-.101562 31.035156 13.65625 31.148438 30.753907zm0 0" fill="#ffb3a8"/><path d="m443.546875 159.085938v-86.949219c0-16.667969-10.800781-30.847657-25.765625-35.941407 2.445312-10.261718 4.1875-20.109374 3.132812-24.195312-1.117187-4.308594-3.222656-7.328125-6.265624-8.976562-4.6875-2.539063-9.589844-.894532-13.53125.429687l-.625.210937c-.351563.117188-1.859376-.617187-2.855469-1.105468-2.679688-1.308594-6.730469-3.285156-11.757813-2.285156-3.433594.6875-11.378906 3.695312-10.953125 16.777343.21875 6.722657 1.777344 13.015625 3.652344 19.089844-15.042969 5.050781-25.917969 19.273437-25.917969 35.996094v86.949219c0 12.917968 6.492188 24.347656 16.378906 31.207031-9.890624 6.863281-16.378906 18.289062-16.378906 31.207031v86.949219c0 8.351562 2.71875 16.082031 7.308594 22.359375-10.261719 2.285156-19.535156 8.777344-25.007812 18.683594l-42.035157 76.109374c-.835937 1.515626-1.546875 3.066407-2.15625 4.636719-6.976562-6.257812-15.886719-9.679687-25.3125-9.679687-.082031 0-.167969.003906-.25.003906l-86.945312.550781c-9.519531.058594-18.203125 3.644531-24.835938 9.496094-.640625-1.699219-1.402343-3.371094-2.304687-5.007813l-42.035156-76.109374c-5.46875-9.90625-14.746094-16.398438-25.007813-18.6875 4.589844-6.273438 7.3125-14.003907 7.3125-22.359376v-10.804687c0-3.878906-3.144531-7.023437-7.027344-7.023437-3.878906 0-7.023437 3.144531-7.023437 7.023437v10.808594c0 13.1875-10.730469 23.917969-23.917969 23.917969h-14.953125c-13.191406 0-23.921875-10.730469-23.921875-23.917969v-86.949219c0-13.1875 10.730469-23.917969 23.921875-23.917969h14.953125c13.1875 0 23.917969 10.730469 23.917969 23.917969v42.023438c0 3.878906 3.144531 7.023437 7.023437 7.023437 3.878907 0 7.023438-3.140625 7.023438-7.023437v-42.023438c0-12.917969-6.492188-24.347656-16.378907-31.207031 9.890626-6.859375 16.378907-18.285157 16.378907-31.207031v-86.949219c0-16.667969-10.796875-30.847657-25.761719-35.941407 2.441406-10.261718 4.1875-20.109374 3.128906-24.195312-1.113281-4.308594-3.222656-7.328125-6.261718-8.976562-4.6875-2.542969-9.589844-.894532-13.53125.429687l-.625.210937c-.355469.117188-1.859376-.621093-2.855469-1.105468-2.679688-1.3125-6.730469-3.285156-11.757813-2.285156-3.4375.6875-11.378906 3.695312-10.953125 16.777343.21875 6.722657 1.777344 13.015625 3.65625 19.089844-15.050781 5.046875-25.925781 19.269531-25.925781 35.996094v86.949219c0 12.917968 6.492188 24.34375 16.378906 31.207031-9.886718 6.859375-16.378906 18.285156-16.378906 31.207031v86.945312c0 20.738282 16.714844 37.636719 37.378906 37.953126-13.246094 11.488281-17.164062 31.082031-8.355468 47.03125l42.035156 76.113281c6.917968 12.523437 19.910156 19.605469 33.296875 19.605469 6.203125 0 12.492187-1.523438 18.292969-4.726563l13.089843-7.230469c1.550781-.855468 3.011719-1.8125 4.394531-2.847656.171876 20.820312 17.160157 37.65625 37.960938 37.65625h.242188l86.949218-.554688c10.140625-.0625 19.648438-4.074218 26.773438-11.289062 6.851562-6.941406 10.703125-16.050781 10.929687-25.757812 1.359375 1.011718 2.792969 1.953124 4.316407 2.792968l13.09375 7.230469c5.800781 3.203125 12.085937 4.726563 18.289062 4.726563 13.382812 0 26.382812-7.085938 33.300781-19.605469l5-9.054688c1.875-3.394531.640625-7.667969-2.753906-9.542969-3.394531-1.871093-7.667969-.644531-9.546875 2.753907l-5 9.050781c-6.375 11.546875-20.953125 15.753906-32.5 9.375l-13.089844-7.230469c-11.546875-6.375-15.75-20.953125-9.375-32.5l42.03125-76.113281c6.378906-11.542969 20.960938-15.75 32.503906-9.375l13.089844 7.230469c11.546875 6.375 15.75 20.957031 9.375 32.5l-20.734375 37.550781c-1.875 3.394531-.644531 7.667969 2.753907 9.542969 3.390624 1.871093 7.667968.644531 9.542968-2.753907l20.734375-37.546874c8.808594-15.949219 4.890625-35.542969-8.355469-47.03125 20.664063-.316407 37.378907-17.210938 37.378907-37.949219v-86.949219c0-12.917969-6.492188-24.347656-16.378907-31.207031 9.890626-6.863281 16.382813-18.289063 16.382813-31.207031zm-406.601563-144.953126c.648438.207032 1.714844.730469 2.363282 1.046876 3.054687 1.492187 7.671875 3.746093 13.476562 1.808593l.648438-.21875c.507812-.167969 1.09375-.367187 1.648437-.542969-.179687 3.15625-1.613281 10.277344-3.457031 17.945313h-11.089844c-1.933594-5.988281-3.539062-11.761719-3.726562-17.574219-.039063-1.210937.046875-1.992187.136718-2.464844zm-22.398437 144.953126v-86.949219c0-13.1875 10.730469-23.917969 23.921875-23.917969h14.953125c13.1875 0 23.917969 10.730469 23.917969 23.917969v86.949219c0 13.1875-10.730469 23.917968-23.917969 23.917968h-14.953125c-13.191406 0-23.921875-10.730468-23.921875-23.917968zm114.902344 305.808593-13.09375 7.230469c-11.542969 6.378906-26.125 2.171875-32.5-9.375l-42.035157-76.113281c-6.375-11.542969-2.171874-26.125 9.375-32.5l13.089844-7.230469c3.65625-2.019531 7.617188-2.976562 11.523438-2.976562 8.433594 0 16.621094 4.460937 20.976562 12.351562l42.035156 76.113281c6.378907 11.546875 2.171876 26.125-9.371093 32.5zm153.113281 25.394531c-4.488281 4.546876-10.480469 7.070313-16.867188 7.113282l-86.945312.550781c-.054688 0-.101562 0-.15625 0-13.117188 0-23.832031-10.628906-23.914062-23.765625l-.097657-14.957031c-.039062-6.386719 2.410157-12.410157 6.898438-16.957031 4.492187-4.546876 10.480469-7.070313 16.871093-7.113282l86.945313-.550781h.15625c6.332031 0 12.292969 2.445313 16.800781 6.898437 4.546875 4.488282 7.074219 10.480469 7.113282 16.867188l.09375 14.957031c.042968 6.386719-2.40625 12.410157-6.898438 16.957031zm106.539062-476.15625c.648438.207032 1.71875.730469 2.367188 1.046876 3.050781 1.492187 7.671875 3.746093 13.472656 1.808593l.652344-.21875c.507812-.167969 1.089844-.367187 1.648438-.542969-.179688 3.15625-1.617188 10.277344-3.457032 17.945313h-11.09375c-1.933594-5.988281-3.539062-11.761719-3.726562-17.574219-.039063-1.210937.046875-1.992187.136718-2.464844zm40.394532 207.367188v86.949219c0 13.1875-10.726563 23.917969-23.917969 23.917969h-14.953125c-13.1875 0-23.917969-10.730469-23.917969-23.917969v-86.949219c0-13.1875 10.730469-23.917969 23.917969-23.917969h14.953125c13.191406 0 23.917969 10.730469 23.917969 23.917969zm0-62.414062c0 13.1875-10.726563 23.917968-23.917969 23.917968h-14.953125c-13.1875 0-23.917969-10.730468-23.917969-23.917968v-86.949219c0-13.1875 10.730469-23.917969 23.917969-23.917969h14.953125c13.191406 0 23.917969 10.730469 23.917969 23.917969zm0 0"/></svg>