<svg height="512pt" viewBox="0 0 512.00017 512" width="512pt" xmlns="http://www.w3.org/2000/svg"><path d="m173.492188 279.070312 235.132812-258.789062c10.726562-11.804688 27.375-16.234375 42.550781-11.316406 16.894531 5.476562 38.089844 12.347656 49.136719 15.925781 3.703125 1.199219 5.644531 5.257813 4.238281 8.886719-2.144531 5.546875-4.535156 12.804687-4.996093 13.835937-7.8125 17.53125-16.957032 34.5-27.234376 50.703125-53.242187 83.9375-153.597656 127.304688-204.1875 213.765625-2.183593 3.730469-7.226562 4.539063-10.425781 1.628907l-8.851562-8.042969c-2.773438-2.519531-7.066407-2.3125-9.585938.460937l-16.28125 17.917969zm0 0" fill="#bfbfbf"/><path d="m268.136719 312.085938c-2.191407 3.722656-7.234375 4.535156-10.429688 1.632812l-8.855469-8.050781c-2.773437-2.515625-7.066406-2.3125-9.585937.460937l-16.277344 17.914063s-15.910156-14.453125-15.910156-14.453125c-.722656-.773438 10.355469-12.945313 11.234375-13.933594 8.902344-10.015625 16.214844-9.347656 28.527344-9.433594 5.148437-.039062 10.046875-2.503906 13.957031-5.859375 12.6875-10.890625 22.539063-25.722656 34.234375-37.785156 17.847656-18.414063 37.367188-35.09375 56.929688-51.621094 38.082031-32.1875 77.453124-64.523437 104.453124-107.09375 10.28125-16.199219 19.417969-33.175781 27.234376-50.695312.425781-.953125 2.421874-7.003907 4.398437-12.25 4.742187 1.542969 8.957031 2.894531 12.265625 3.976562 3.699219 1.195313 5.640625 5.253907 4.25 8.882813-2.15625 5.539062-4.535156 12.800781-5.003906 13.84375-7.816406 17.519531-16.964844 34.488281-27.238282 50.695312-53.238281 83.941406-153.597656 127.304688-204.183593 213.769532zm0 0" fill="#acacac"/><path d="m173.492188 279.070312-36.867188 40.578126 33.269531 30.230468 10.257813-7.136718c7.882812-5.480469 18.164062-6.117188 26.664062-1.644532 4.402344 2.316406 9.8125 1.363282 13.160156-2.320312l4.449219-4.898438c2.34375-2.578125 2.152344-6.566406-.425781-8.910156zm0 0" fill="#bc7d53"/><path d="m224 324.972656c2.578125 2.34375 2.769531 6.332032.425781 8.914063l-4.445312 4.890625c-3.34375 3.683594-8.765625 4.636718-13.164063 2.328125-8.496094-4.476563-18.777344-3.84375-26.671875 1.636719l-10.25 7.136718-10.863281-9.867187c.039062.035156 6.285156-6.429688 6.800781-6.957031 3.015625-3.082032 6.496094-5.34375 10.574219-6.820313 6.222656-2.253906 13.609375-2.820313 20.015625-1.027344 5.683594 1.589844 13.253906 2.839844 18.460937-.890625.601563-.433594 4.339844-3.648437 3.511719-4.433594zm0 0" fill="#af663e"/><path d="m136.625 319.648438-121.644531 133.878906c-11.40625 12.554687-10.476563 31.984375 2.078125 43.390625 14.558594 13.230469 37.628906 9.554687 47.359375-7.542969l3.304687-5.808594c9.90625-17.414062 22.503906-33.144531 37.332032-46.617187l9.851562-8.953125c15.136719-13.753906 27.949219-29.863282 37.945312-47.703125l17.042969-30.417969zm0 0" fill="#bc7d53"/><path d="m60.417969 494.898438c-11.09375 12.207031-30.53125 13.671874-43.355469 2.023437-1.871094-1.699219-3.476562-3.570313-4.816406-5.585937 12.320312 6.707031 27.855468 4.113281 37.324218-6.308594 1.496094-1.644532 2.828126-3.484375 3.988282-5.515625l3.304687-5.8125c9.90625-17.410157 22.507813-33.140625 37.324219-46.617188l9.855469-8.949219c15.136719-13.75 27.953125-29.863281 37.941406-47.707031l17.046875-30.414062 10.863281 9.867187-17.046875 30.414063c-9.992187 17.84375-22.816406 33.949219-37.941406 47.710937l-9.855469 8.949219c-14.828125 13.464844-27.421875 29.203125-37.324219 46.613281l-3.3125 5.808594c-1.152343 2.035156-2.503906 3.878906-3.996093 5.523438zm0 0" fill="#af663e"/><path d="m510.667969 25.421875c-1.621094-3.40625-4.609375-6.027344-8.199219-7.191406-11.046875-3.578125-32.242188-10.445313-49.136719-15.921875-17.753906-5.753906-37.335937-.542969-49.882812 13.269531l-298.933594 329.003906c-2.601563 2.859375-2.386719 7.289063.46875 9.886719 2.863281 2.597656 7.285156 2.386719 9.886719-.472656l22.226562-24.460938.773438.699219 23.195312 21.078125-14.320312 25.5625c-9.648438 17.214844-21.941406 32.671875-36.546875 45.941406l-9.851563 8.953125c-15.398437 13.992188-28.421875 30.253907-38.707031 48.335938l-3.308594 5.808593c-3.578125 6.292969-9.734375 10.554688-16.882812 11.695313-7.152344 1.140625-14.324219-1-19.683594-5.867187-4.691406-4.261719-7.4375-10.09375-7.742187-16.421876-.304688-6.328124 1.875-12.398437 6.136718-17.085937l72.488282-79.78125c2.601562-2.859375 2.386718-7.285156-.472657-9.886719-2.863281-2.597656-7.289062-2.386718-9.886719.476563l-72.484374 79.777343c-6.777344 7.457032-10.242188 17.105469-9.7617192 27.167969.4843752 10.0625 4.8554692 19.335938 12.3125002 26.109375 7.015625 6.378906 15.992187 9.8125 25.292969 9.808594 1.992187 0 3.996093-.15625 6-.476562 11.371093-1.808594 21.15625-8.585938 26.847656-18.59375l3.308594-5.808594c9.554687-16.792969 21.652343-31.898438 35.957031-44.898438l9.851562-8.953125c15.71875-14.285156 28.957031-30.925781 39.339844-49.457031l16.257813-29.011719 8.933593-6.214843c5.761719-4.007813 13.199219-4.46875 19.414063-1.199219 7.222656 3.804687 16.105468 2.238281 21.59375-3.804688l4.453125-4.898437c3.578125-3.941406 4.335937-9.457032 2.414062-14.074219l12.285157-13.519531 8.695312 7.894531c3.085938 2.804687 7.21875 4.050781 11.332031 3.417969 4.136719-.632813 7.722657-3.074219 9.839844-6.691406 25.417969-43.4375 64.785156-76.660157 102.859375-108.789063 30.664062-25.875 62.371094-52.628906 87.234375-84.871094 2.359375-3.0625 1.789063-7.457031-1.269531-9.816406-3.0625-2.363281-7.453125-1.792969-9.816406 1.269531-23.949219 31.058594-55.074219 57.324219-85.175782 82.722656-38.917968 32.84375-79.160156 66.804688-105.792968 112.21875l-8.648438-7.859374c-2.726562-2.476563-6.253906-3.742188-9.929688-3.566407-3.675781.175781-7.066406 1.777344-9.539062 4.5l-11.578125 12.738281-35.5-32.253906-3.636719-3.308594 230.429688-253.613281c8.859375-9.75 22.675781-13.425781 35.210937-9.363281 16.785157 5.441406 37.816407 12.257812 48.921875 15.851562-1.28125 3.332032-2.621094 7.160157-3.601562 9.972657-.496094 1.414062-1.054688 3.019531-1.175782 3.316406-4.699218 10.550781-9.992187 21.089844-15.722656 31.324219-.019531.027344-.035156.058594-.050781.089844-.011719.015624-.96875 1.785156-2.949219 5.15625-.015625.03125-1.125 1.96875-2.652344 4.507812l-.457031.757812c-1.988281 3.316407-.90625 7.613282 2.40625 9.601563 3.316407 1.984375 7.613281.90625 9.601563-2.410156l.441406-.738281c1.605469-2.660157 2.765625-4.691407 2.773438-4.703126 1.917968-3.273437 2.9375-5.132812 3.117187-5.460937 5.929687-10.589844 11.40625-21.5 16.273437-32.421875.292969-.660156.640626-1.644531 1.605469-4.402344.972657-2.78125 2.304688-6.597656 3.527344-9.761718 1.359375-3.515626 1.210937-7.480469-.410156-10.882813zm-295.871094 308.652344c-1.203125 1.320312-3.144531 1.664062-4.722656.832031-10.851563-5.710938-23.851563-4.910156-33.917969 2.09375l-5.679688 3.949219-23.96875-21.773438 27.457032-30.21875 44.816406 40.726563zm0 0"/><g fill="#111"><path d="m120.042969 390.207031c0 5.71875-4.632813 10.351563-10.351563 10.351563-5.714844 0-10.347656-4.632813-10.347656-10.351563 0-5.714843 4.632812-10.347656 10.347656-10.347656 5.71875 0 10.351563 4.632813 10.351563 10.347656zm0 0"/><path d="m61.339844 454.816406c0 5.71875-4.632813 10.351563-10.351563 10.351563-5.714843 0-10.347656-4.632813-10.347656-10.351563 0-5.714844 4.632813-10.347656 10.347656-10.347656 5.71875 0 10.351563 4.632812 10.351563 10.347656zm0 0"/></g></svg>