<svg height="512pt" viewBox="0 -1 512 511" width="512pt" xmlns="http://www.w3.org/2000/svg"><path d="m485.605469 88.011719h-458.214844v-71.597657c0-5.746093 4.660156-10.40625 10.410156-10.40625h437.394531c5.75 0 10.410157 4.660157 10.410157 10.40625zm0 0" fill="#87e0ec"/><path d="m485.605469 16.421875v71.589844h-16.886719v-71.589844c0-5.75-4.660156-10.410156-10.410156-10.410156h16.886718c5.75 0 10.410157 4.660156 10.410157 10.410156zm0 0" fill="#2dd2e3"/><path d="m485.109375 298.84375h-29.820313l.496094-210.832031h29.820313zm0 0" fill="#bc7d53"/><path d="m485.109375 298.84375h-14.910156l.496093-210.832031h14.910157zm0 0" fill="#af663e"/><path d="m56.710938 298.84375h-29.820313l.5-210.832031h29.816406zm0 0" fill="#bc7d53"/><path d="m56.710938 298.84375h-14.910157l.5-210.832031h14.90625zm0 0" fill="#af663e"/><path d="m480.109375 504.269531h-448.21875c-2.757813 0-5-2.238281-5-5v-170.574219h458.214844v170.574219c.003906 2.761719-2.238281 5-4.996094 5zm0 0" fill="#87e0ec"/><path d="m485.109375 328.691406v170.578125c0 2.761719-2.238281 5-5 5h-15.898437c2.757812 0 5-2.238281 5-5v-170.578125zm0 0" fill="#2dd2e3"/><path d="m501.503906 328.695312h-491.007812c-2.757813 0-5-2.238281-5-5v-19.851562c0-2.761719 2.242187-5 5-5h491.003906c2.761719 0 5 2.238281 5 5v19.851562c.003906 2.761719-2.238281 5-4.996094 5zm0 0" fill="#d5f3f7"/><path d="m506.5 303.839844v19.851562c0 2.769532-2.238281 5-5 5h-16c2.761719 0 5-2.230468 5-5v-19.851562c0-2.757813-2.238281-5-5-5h16c2.761719 0 5 2.242187 5 5zm0 0" fill="#afeaf2"/><path d="m107.324219 152.125h-7.695313c-11.726562 0-21.234375-9.507812-21.234375-21.234375v-42.996094h50.164063v42.996094c0 11.726563-9.503906 21.234375-21.234375 21.234375zm0 0" fill="#d5f3f7"/><path d="m209.339844 152.125h-7.699219c-11.726563 0-21.230469-9.507812-21.230469-21.234375v-42.996094h50.164063v42.996094c0 11.726563-9.507813 21.234375-21.234375 21.234375zm0 0" fill="#d5f3f7"/><path d="m311.351562 152.125h-7.695312c-11.726562 0-21.234375-9.507812-21.234375-21.234375v-42.996094h50.164063v42.996094c0 11.726563-9.507813 21.234375-21.234376 21.234375zm0 0" fill="#d5f3f7"/><path d="m413.363281 152.125h-7.695312c-11.726563 0-21.234375-9.507812-21.234375-21.234375v-42.996094h50.164062v42.996094c0 11.726563-9.503906 21.234375-21.234375 21.234375zm0 0" fill="#d5f3f7"/><g fill="#f6ac39"><path d="m56.320312 152.125h-7.699218c-11.726563 0-21.230469-9.507812-21.230469-21.234375v-42.996094h50.164063v42.996094c0 11.726563-9.507813 21.234375-21.234376 21.234375zm0 0"/><path d="m158.332031 152.125h-7.695312c-11.726563 0-21.234375-9.507812-21.234375-21.234375v-42.996094h50.164062v42.996094c0 11.726563-9.507812 21.234375-21.234375 21.234375zm0 0"/><path d="m260.347656 152.125h-7.699218c-11.726563 0-21.234376-9.507812-21.234376-21.234375v-42.996094h50.164063v42.996094c0 11.726563-9.503906 21.234375-21.230469 21.234375zm0 0"/><path d="m362.359375 152.125h-7.699219c-11.726562 0-21.230468-9.507812-21.230468-21.234375v-42.996094h50.164062v42.996094c0 11.726563-9.507812 21.234375-21.234375 21.234375zm0 0"/><path d="m464.371094 152.125h-7.695313c-11.730469 0-21.234375-9.507812-21.234375-21.234375v-42.996094h50.164063v42.996094c0 11.726563-9.507813 21.234375-21.234375 21.234375zm0 0"/></g><path d="m128.558594 87.890625v43c0 11.730469-9.5 21.238281-21.230469 21.238281h-7.699219c-1.671875 0-3.292968-.1875-4.84375-.558594 9.390625-2.191406 16.382813-10.621093 16.382813-20.679687v-43zm0 0" fill="#afeaf2"/><path d="m230.578125 87.890625v43c0 11.730469-9.511719 21.238281-21.242187 21.238281h-7.6875c-1.671876 0-3.292969-.1875-4.851563-.558594 9.390625-2.191406 16.378906-10.621093 16.378906-20.679687v-43zm0 0" fill="#afeaf2"/><path d="m332.585938 87.890625v43c0 11.730469-9.507813 21.238281-21.238282 21.238281h-7.691406c-1.667969 0-3.289062-.1875-4.847656-.558594 9.386718-2.191406 16.378906-10.621093 16.378906-20.679687v-43zm0 0" fill="#afeaf2"/><path d="m434.597656 87.890625v43c0 11.730469-9.511718 21.238281-21.230468 21.238281h-7.699219c-1.671875 0-3.289063-.1875-4.851563-.558594 9.390625-2.191406 16.390625-10.621093 16.390625-20.679687v-43zm0 0" fill="#afeaf2"/><path d="m77.558594 87.890625v43c0 11.730469-9.511719 21.238281-21.242188 21.238281h-7.6875c-1.671875 0-3.292968-.1875-4.851562-.558594 9.390625-2.191406 16.378906-10.621093 16.378906-20.679687v-43zm0 0" fill="#f39d0a"/><path d="m179.566406 87.890625v43c0 11.730469-9.507812 21.238281-21.230468 21.238281h-7.699219c-1.667969 0-3.289063-.1875-4.851563-.558594 9.390625-2.191406 16.390625-10.621093 16.390625-20.679687v-43zm0 0" fill="#f39d0a"/><path d="m281.578125 87.890625v43c0 11.730469-9.5 21.238281-21.230469 21.238281h-7.699218c-1.671876 0-3.292969-.1875-4.851563-.558594 9.390625-2.191406 16.390625-10.621093 16.390625-20.679687v-43zm0 0" fill="#f39d0a"/><path d="m383.585938 87.890625v43c0 11.730469-9.5 21.238281-21.230469 21.238281h-7.699219c-1.667969 0-3.289062-.1875-4.839844-.558594 9.390625-2.191406 16.378906-10.621093 16.378906-20.679687v-43zm0 0" fill="#f39d0a"/><path d="m485.605469 87.890625v43c0 11.730469-9.507813 21.238281-21.238281 21.238281h-7.691407c-1.667969 0-3.289062-.1875-4.847656-.558594 9.390625-2.191406 16.378906-10.621093 16.378906-20.679687v-43zm0 0" fill="#f39d0a"/><path d="m500.070312 291.628906h-9.324218l.480468-202.644531v-71.175781c0-9.542969-7.765624-17.308594-17.308593-17.308594h-434.847657c-9.542968 0-17.304687 7.765625-17.304687 17.308594v16.457031c0 3.84375 3.113281 6.960937 6.957031 6.960937s6.960938-3.117187 6.960938-6.960937v-16.457031c0-1.871094 1.519531-3.390625 3.386718-3.390625h434.847657c1.867187 0 3.390625 1.519531 3.390625 3.390625v64.101562h-42.914063c-.140625 0-.277343.015625-.417969.023438-.136718-.007813-.277343-.023438-.417968-.023438h-49.871094c-.140625 0-.28125.015625-.421875.023438-.136719-.007813-.277344-.023438-.417969-.023438h-49.871094c-.140624 0-.28125.015625-.417968.023438-.140625-.007813-.277344-.023438-.417969-.023438h-49.871094c-.140625 0-.28125.015625-.421875.023438-.136718-.007813-.277344-.023438-.417968-.023438h-49.871094c-.140625 0-.28125.015625-.417969.023438-.140625-.007813-.277344-.023438-.417969-.023438h-49.875c-.140625 0-.277344.015625-.417968.023438-.140626-.007813-.277344-.023438-.417969-.023438h-49.871094c-.140625 0-.28125.015625-.417969.023438-.140625-.007813-.277344-.023438-.421875-.023438h-49.867187c-.144532 0-.28125.015625-.421875.023438-.136719-.007813-.277344-.023438-.417969-.023438h-42.910156v-14.007812c0-3.84375-3.117188-6.957032-6.960938-6.957032s-6.957031 3.117188-6.957031 6.957032v21.082031l-.480469 202.644531h-9.355468c-6.578126 0-11.929688 5.351563-11.929688 11.929688v19.738281c0 6.578125 5.351562 11.929687 11.929688 11.929687h9.339843v162.617188c0 6.582031 5.351563 11.929688 11.929688 11.929688h445.601562c6.578125 0 11.929688-5.347657 11.929688-11.929688v-162.617188h9.339843c6.578126 0 11.929688-5.351562 11.929688-11.929687v-19.738281c0-6.578125-5.351562-11.929688-11.929688-11.929688zm-23.242187 0h-15.726563l.3125-131.945312h1.742188c5.09375 0 9.871094-1.371094 13.992188-3.75zm-35.472656-195.683594h35.953125v35.671876c0 7.804687-6.347656 14.148437-14.152344 14.148437h-7.652344c-7.800781 0-14.148437-6.347656-14.148437-14.148437zm-50.710938 0h35.953125v35.671876c0 7.804687-6.347656 14.148437-14.148437 14.148437h-7.652344c-7.804687 0-14.152344-6.347656-14.152344-14.148437zm-50.707031 0h35.953125v35.671876c0 7.804687-6.351563 14.148437-14.152344 14.148437h-7.652343c-7.800782 0-14.148438-6.347656-14.148438-14.148437zm-50.710938 0h35.953126v35.671876c0 7.804687-6.347657 14.148437-14.148438 14.148437h-7.652344c-7.804687 0-14.152344-6.347656-14.152344-14.148437zm-50.707031 0h35.953125v35.671876c0 7.804687-6.351562 14.148437-14.152344 14.148437h-7.652343c-7.800781 0-14.148438-6.347656-14.148438-14.148437zm-50.710937 0h35.953125v35.671876c0 7.804687-6.347657 14.148437-14.148438 14.148437h-7.652343c-7.804688 0-14.152344-6.347656-14.152344-14.148437zm-50.707032 0h35.953126v35.671876c0 7.804687-6.351563 14.148437-14.152344 14.148437h-7.652344c-7.800781 0-14.148438-6.347656-14.148438-14.148437zm-50.710937 0h35.953125v35.671876c0 7.804687-6.347656 14.148437-14.148438 14.148437h-7.652343c-7.804688 0-14.152344-6.347656-14.152344-14.148437zm-50.707031 0h35.953125v35.671876c0 7.804687-6.351563 14.148437-14.152344 14.148437h-7.652344c-7.800781 0-14.148437-6.347656-14.148437-14.148437zm-.160156 59.808594c4.195312 2.492188 9.085937 3.933594 14.308593 3.933594h1.410157l-.3125 131.941406h-15.726563zm441.289062 340.101563h-441.625v-160.628907h441.625zm21.269531-174.546875h-484.164062v-15.761719h336.527343c3.84375 0 6.960938-3.113281 6.960938-6.957031s-3.117188-6.960938-6.960938-6.960938h-285.597656l.316406-133.015625c5.480469-1.5625 10.285157-4.75 13.847657-9.011719 5.152343 6.160157 12.890625 10.082032 21.53125 10.082032h7.652343c8.636719 0 16.375-3.921875 21.527344-10.082032 5.152344 6.160157 12.890625 10.082032 21.53125 10.082032h7.648438c8.640625 0 16.378906-3.921875 21.53125-10.082032 5.152344 6.160157 12.890625 10.082032 21.527344 10.082032h7.652343c8.640625 0 16.375-3.921875 21.53125-10.082032 5.152344 6.160157 12.886719 10.082032 21.527344 10.082032h7.652344c8.640625 0 16.375-3.921875 21.527343-10.082032 5.15625 6.160157 12.890626 10.082032 21.53125 10.082032h7.652344c8.636719 0 16.375-3.921875 21.527344-10.082032 5.152344 6.160157 12.890625 10.082032 21.53125 10.082032h7.648438c8.640624 0 16.378906-3.921875 21.53125-10.082032 5.152343 6.160157 12.890624 10.082032 21.527343 10.082032h7.652344c8.640625 0 16.375-3.921875 21.53125-10.082032 3.492187 4.175782 8.175781 7.320313 13.519531 8.914063l-.3125 133.113281h-62.6875c-3.84375 0-6.960937 3.117188-6.960937 6.960938s3.117187 6.957031 6.960937 6.957031h113.585938v15.761719zm0 0"/></svg>