<svg height="480pt" viewBox="0 -31 480 479" width="480pt" xmlns="http://www.w3.org/2000/svg"><path d="m240 8.5c-128.128906 0-232 28.65625-232 64v272c0 35.34375 103.871094 64 232 64s232-28.65625 232-64v-272c0-35.34375-103.871094-64-232-64zm0 0" fill="#f98c96"/><path d="m240 8.5c-128.128906 0-232 28.65625-232 64v40c0 35.34375 103.871094 64 232 64s232-28.65625 232-64v-40c0-35.34375-103.871094-64-232-64zm0 0" fill="#dd3e46"/><path d="m48 204.429688v176c41.734375 16.941406 112.152344 28.070312 192 28.070312s150.265625-11.128906 192-28.070312v-176c-41.734375 16.941406-112.152344 28.070312-192 28.070312s-150.265625-11.128906-192-28.070312zm0 0" fill="#dd3e46"/><path d="m160 304.5s104-64 184 8c0 0-16 40-96 40s-88-48-88-48zm0 0" fill="#cfdfe8"/><path d="m472 72.5c0-35.347656-103.871094-64-232-64s-232 28.652344-232 64 103.871094 64 232 64 232-28.652344 232-64zm0 0" fill="#cfdfe8"/><path d="m208 72.5c0-13.253906-28.652344-24-64-24s-64 10.746094-64 24 28.652344 24 64 24 64-10.746094 64-24zm0 0" fill="#426d78"/><path d="m450.398438 102.203125c-.390626-.375-40.886719-38.046875-178.839844-45.710937l.898437-16c145.375 8.078124 187.488281 48.617187 189.207031 50.335937zm0 0" fill="#aabece"/><path d="m232 40.5h16v16h-16zm0 0" fill="#aabece"/><path d="m160 304.5s0 32-40 48c9.28125-31.328125 9.28125-64.671875 0-96 0 0 40 24 40 48zm0 0" fill="#aabece"/><g fill="#f98c96"><path d="m368 272.5v-16c22.199219 0 60.640625-15.273438 61.03125-15.433594l5.9375 14.867188c-1.6875.671875-41.722656 16.566406-66.96875 16.566406zm0 0"/><path d="m336 256.5h16v16h-16zm0 0"/><path d="m72 344.5h16v16h-16zm0 0"/></g><path d="m240 .5c-116.34375 0-240 25.230469-240 72v272c0 46.769531 123.65625 72 240 72s240-25.230469 240-72v-272c0-46.769531-123.65625-72-240-72zm-184 374.230469v-158.765625c44.800781 15.445312 112.265625 24.535156 184 24.535156s139.238281-9.089844 184-24.535156v27.015625c-17.925781 7.15625-36.785156 11.707031-56 13.519531v16c19.171875-1.441406 38.035156-5.652344 56-12.503906v114.734375c-38 14.257812-101.542969 25.769531-184 25.769531s-146-11.511719-184-25.769531zm384-6.878907v-175.304687l-11.007812 4.464844c-42.398438 17.214843-113.054688 27.488281-188.992188 27.488281s-146.59375-10.273438-188.992188-27.488281l-11.007812-4.464844v175.304687c-15.679688-7.839843-24-16.046874-24-23.351562v-204.761719c37.078125 29.242188 132.800781 44.761719 224 44.761719s186.921875-15.519531 224-44.761719v204.761719c0 7.304688-8.320312 15.511719-24 23.351562zm-200-199.351562c-138.785156 0-224-32.617188-224-56v-12.761719c37.078125 29.242188 132.800781 44.761719 224 44.761719s186.921875-15.519531 224-44.761719v12.761719c0 23.382812-85.214844 56-224 56zm215.632812-82.519531c-15.90625-11.351563-65.960937-38.953125-183.199218-45.472657l-.898438 16c101.855469 5.65625 150.542969 27.65625 169.234375 38.945313-34.183593 17.382813-104.601562 33.046875-200.769531 33.046875-138.785156 0-224-32.617188-224-56s85.214844-56 224-56 224 32.617188 224 56c-.714844 5.488281-3.765625 10.402344-8.367188 13.480469zm0 0"/><path d="m144 40.5c-35.785156 0-72 10.992188-72 32s36.214844 32 72 32 72-10.992188 72-32-36.214844-32-72-32zm0 48c-36.375 0-56-11.351562-56-16s19.625-16 56-16 56 11.351562 56 16-19.625 16-56 16zm0 0"/><path d="m232 40.5h16v16h-16zm0 0"/><path d="m165.601562 292.5c-8.554687-22.449219-37.601562-40.535156-41.457031-42.832031-2.871093-1.71875-6.507812-1.472657-9.117187.621093s-3.640625 5.589844-2.585938 8.761719c8.671875 29.699219 8.671875 61.257813 0 90.953125-.984375 2.953125-.160156 6.210938 2.105469 8.34375 2.265625 2.136719 5.5625 2.761719 8.453125 1.609375 16.648438-5.875 30.515625-17.730469 38.902344-33.265625 11.28125 15.410156 35.296875 33.808594 86.097656 33.808594 84.449219 0 102.695312-43.199219 103.433594-45.023438l2.0625-5.183593-4.144532-3.738281c-68.9375-62.054688-155.160156-28.167969-183.75-14.054688zm-33.601562 44.558594c3.808594-20.125 4.15625-40.753906 1.03125-61 8.238281 6.292968 14.601562 14.714844 18.402344 24.363281l-.234375.078125.753906 4.496094c-1.566406 13.113281-8.878906 24.847656-19.953125 32.039062zm116 7.441406c-56.800781 0-73.703125-24.992188-78.398438-36.167969 21.132813-11.015625 100.269532-46.265625 164.152344 5.894531-6.984375 9.539063-28.699218 30.273438-85.753906 30.273438zm0 0"/><path d="m336 256.5h16v16h-16zm0 0"/><path d="m72 344.5h16v16h-16zm0 0"/></svg>