<svg height="511pt" viewBox="0 -32 511.99997 511" width="511pt" xmlns="http://www.w3.org/2000/svg"><path d="m468.605469 80.007812c-18.957031-25.328124-44.71875-44.507812-75.5625-56.257812-16.398438-6.246094-33.535157-10.492188-50.863281-13.175781-19.117188-2.960938-38.570313-3.828125-57.871094-2.519531-35.515625 2.410156-71.375 16.050781-95.386719 42.714843-7.566406 8.40625-13.015625 17.371094-17.160156 26.796875-7.511719 17.078125-12.265625 37.019532-12.503907 55.710938-.332031 25.824218-4.625 49.371094-18.246093 71.519531-14.230469 23.140625-17.273438 51.929687-10.964844 78.097656 4.152344 17.230469 12.644531 33.25 24.804687 46.167969 15.191407 16.128906 34.167969 28.652344 54.945313 36.339844 11.828125 4.375 24.109375 7.519531 36.570313 9.46875 26.355468 4.121094 52.757812 4.527344 79.265624 3.109375 18.445313-.984375 36.917969-3.046875 54.835938-7.660157 36.777344-9.476562 69.308594-29.054687 91.1875-60.808593 45.226562-65.636719 44.714844-165.691407-3.050781-229.503907zm0 0" fill="#704138"/><path d="m468.609375 80.011719c-18.960937-25.332031-44.722656-44.507813-75.566406-56.261719-16.394531-6.246094-33.535157-10.488281-50.871094-13.179688-18.085937-2.796874-36.484375-3.722656-54.765625-2.703124 8.625.476562 17.214844 1.378906 25.742188 2.703124 17.332031 2.691407 34.460937 6.933594 50.867187 13.179688 30.835937 11.753906 56.597656 30.929688 75.558594 56.261719 47.765625 63.8125 48.273437 163.859375 3.058593 229.5-21.890624 31.75-54.425781 51.332031-91.199218 60.804687-17.914063 4.621094-36.390625 6.675782-54.832032 7.664063-3.832031.207031-7.664062.378906-11.5.496093 13.492188.476563 26.992188.226563 40.535157-.496093 18.441406-.988281 36.917969-3.046875 54.832031-7.664063 36.777344-9.472656 69.3125-29.054687 91.1875-60.804687 45.226562-65.640625 44.710938-165.691407-3.046875-229.5zm0 0" fill="#633029"/><path d="m171.761719 77.566406c-7.511719 17.078125-12.265625 37.019532-12.503907 55.710938-.332031 25.824218-4.625 49.371094-18.246093 71.519531-14.230469 23.140625-17.273438 51.929687-10.964844 78.097656 4.152344 17.230469 12.640625 33.25 24.804687 46.167969 15.191407 16.128906 34.164063 28.652344 54.945313 36.339844 11.828125 4.375 24.105469 7.519531 36.570313 9.46875 18.789062 2.9375 33.273437 3.429687 52.058593.832031 38.628907-5.34375 80.777344-25.664063 105.015625-57.003906 23.734375-30.6875 32.613282-70.808594 33.664063-108.914063.882812-32.089844-4.667969-64.339844-14.820313-94.734375-20.832031-62.394531-64.394531-111.984375-137.976562-106.996093-35.515625 2.410156-71.375 16.050781-95.386719 42.714843-7.570313 8.40625-13.015625 17.371094-17.160156 26.796875zm0 0" fill="#ffc1b8"/><path d="m437.109375 209.785156c-1.058594 38.101563-9.925781 78.226563-33.667969 108.910156-24.234375 31.347657-66.394531 51.664063-105.011718 57.003907-13.714844 1.90625-25.136719 2.152343-37.605469 1 2.765625-.257813 5.621093-.589844 8.570312-1 38.628907-5.339844 80.777344-25.65625 105.023438-57.003907 23.726562-30.683593 32.609375-70.808593 33.65625-108.910156.890625-32.09375-4.664063-64.335937-14.816407-94.742187-18.429687-55.195313-54.648437-100.371094-113.722656-106.59375 1.59375-.160157 3.179688-.289063 4.769532-.398438 73.585937-4.984375 117.144531 44.605469 137.980468 106.992188 10.152344 30.40625 15.707032 62.648437 14.824219 94.742187zm0 0" fill="#ffb3a8"/><path d="m199.648438 95.582031c-5.542969 11.191407-9.507813 23.367188-11.617188 36.03125-4.75 28.515625-1.671875 48.863281-17.269531 74.496094-29.34375 48.226563-5.574219 105.761719 42.613281 127.992187 34.574219 15.949219 73.949219 13.648438 109.230469 3.398438 88.183593-25.621094 99.796875-125.125 75.789062-206.292969-16.046875-54.25-54.078125-97.261719-110.550781-96.03125-39.023438.851563-71.109375 25.941407-88.195312 60.40625zm0 0" fill="#e57670"/><path d="m322.601562 337.503906c-22.101562 6.414063-45.800781 9.71875-68.925781 7.371094 12.886719-1.203125 25.65625-3.808594 37.929688-7.371094 88.183593-25.625 99.800781-125.132812 75.792969-206.300781-14.253907-48.230469-45.90625-87.570313-92.449219-94.835937 4.199219-.699219 8.507812-1.097657 12.898437-1.195313 56.46875-1.226563 94.503906 41.785156 110.546875 96.035156 24.007813 81.164063 12.390625 180.671875-75.792969 206.296875zm0 0" fill="#e05c56"/><path d="m318.132812 196.035156c25.824219 28.71875 68.296876 5.867188 66.785157-29.851562-.90625-21.367188-12.925781-46.601563-25.65625-63.578125-10.292969-13.726563-23.636719-25.644531-39.339844-32.792969-15.859375-7.222656-38.027344-15.09375-53.824219-3.085938-10.679687 8.117188-9.421875 22.636719-3.457031 33.246094 6.925781 12.328125 21.894531 14.476563 30.039063 25.71875 15.066406 20.796875 8.152343 51.109375 25.453124 70.34375zm0 0" fill="#ffc1b8"/><path d="m360.800781 205.726562c4.960938-7.074218 7.867188-15.914062 7.449219-25.71875-.90625-21.371093-12.917969-46.609374-25.65625-63.585937-10.292969-13.726563-23.632812-25.644531-39.339844-32.792969-12.714844-5.792968-29.5-12.003906-43.785156-8.03125 1.25-3.359375 3.390625-6.40625 6.632812-8.871094 15.792969-12.015624 37.960938-4.136718 53.820313 3.089844 15.707031 7.148438 29.046875 19.066406 39.335937 32.78125 12.738282 16.988282 24.753907 42.214844 25.65625 63.585938.773438 18.28125-9.96875 33.191406-24.113281 39.542968zm0 0" fill="#ffb3a8"/><path d="m348.667969 141.566406c-18.957031-25.328125-44.71875-44.503906-75.558594-56.253906-16.402344-6.246094-33.539063-10.492188-50.867187-13.179688-19.117188-2.960937-38.566407-3.824218-57.867188-2.515624-35.519531 2.40625-71.378906 16.046874-95.386719 42.710937-7.570312 8.40625-13.015625 17.375-17.164062 26.800781-7.507813 17.074219-12.261719 37.015625-12.503907 55.710938-.332031 25.820312-4.625 49.367187-18.246093 71.519531-14.226563 23.140625-17.269531 51.925781-10.964844 78.09375 4.15625 17.230469 12.644531 33.253906 24.808594 46.167969 15.191406 16.132812 34.164062 28.65625 54.945312 36.34375 11.828125 4.375 24.105469 7.519531 36.566407 9.46875 26.359374 4.117187 52.757812 4.527344 79.269531 3.109375 18.441406-.988281 36.914062-3.046875 54.832031-7.664063 36.777344-9.476562 69.3125-29.054687 91.1875-60.804687 45.226562-65.640625 44.714844-165.695313-3.050781-229.507813zm0 0" fill="#704138"/><path d="m348.671875 141.570312c-18.957031-25.332031-44.71875-44.503906-75.566406-56.261718-16.394531-6.242188-33.535157-10.484375-50.867188-13.175782-18.089843-2.800781-36.488281-3.726562-54.769531-2.703124 8.625.472656 17.214844 1.375 25.742188 2.703124 17.332031 2.691407 34.460937 6.929688 50.871093 13.175782 30.832031 11.757812 56.597657 30.929687 75.554688 56.261718 47.769531 63.8125 48.273437 163.859376 3.058593 229.5-21.886718 31.75-54.421874 51.332032-91.199218 60.808594-17.914063 4.617188-36.390625 6.671875-54.832032 7.664063-3.832031.203125-7.664062.375-11.496093.496093 13.488281.472657 26.988281.226563 40.535156-.496093 18.441406-.992188 36.914063-3.046875 54.828125-7.664063 36.777344-9.476562 69.3125-29.058594 91.1875-60.808594 45.230469-65.640624 44.710938-165.6875-3.046875-229.5zm0 0" fill="#633029"/><path d="m51.824219 139.128906c-7.511719 17.074219-12.261719 37.015625-12.503907 55.710938-.332031 25.820312-4.625 49.367187-18.246093 71.519531-14.230469 23.140625-17.273438 51.925781-10.964844 78.09375 4.152344 17.230469 12.644531 33.253906 24.804687 46.167969 15.195313 16.132812 34.167969 28.65625 54.945313 36.34375 11.828125 4.375 24.109375 7.519531 36.570313 9.46875 18.792968 2.9375 33.273437 3.429687 52.058593.832031 38.628907-5.34375 80.777344-25.664063 105.019531-57.007813 23.734376-30.683593 32.613282-70.808593 33.660157-108.914062.886719-32.089844-4.667969-64.339844-14.820313-94.734375-20.832031-62.394531-64.390625-111.980469-137.972656-106.992187-35.519531 2.40625-71.378906 16.046874-95.390625 42.710937-7.566406 8.40625-13.011719 17.375-17.160156 26.800781zm0 0" fill="#ffc1b8"/><path d="m317.171875 271.34375c-1.054687 38.101562-9.925781 78.226562-33.664063 108.910156-24.234374 31.351563-66.394531 51.667969-105.011718 57.007813-13.714844 1.902343-25.140625 2.152343-37.605469 1 2.765625-.257813 5.621094-.59375 8.570313-1 38.625-5.339844 80.777343-25.65625 105.023437-57.007813 23.726563-30.683594 32.609375-70.808594 33.652344-108.910156.894531-32.089844-4.660157-64.335938-14.8125-94.738281-18.433594-55.199219-54.648438-100.371094-113.722657-106.59375 1.59375-.160157 3.175782-.289063 4.769532-.398438 73.585937-4.984375 117.144531 44.601563 137.976562 106.992188 10.152344 30.402343 15.707032 62.648437 14.824219 94.738281zm0 0" fill="#ffb3a8"/><path d="m79.714844 157.144531c-5.546875 11.1875-9.511719 23.363281-11.617188 36.027344-4.75 28.515625-1.675781 48.863281-17.269531 74.496094-29.347656 48.226562-5.574219 105.761719 42.613281 127.992187 34.574219 15.949219 73.949219 13.648438 109.226563 3.398438 88.183593-25.617188 99.800781-125.125 75.792969-206.289063-16.050782-54.253906-54.082032-97.265625-110.554688-96.03125-39.019531.847657-71.109375 25.941407-88.191406 60.40625zm0 0" fill="#e57670"/><path d="m202.664062 399.0625c-22.101562 6.417969-45.796874 9.722656-68.921874 7.375 12.886718-1.207031 25.65625-3.8125 37.929687-7.375 88.183594-25.621094 99.800781-125.132812 75.792969-206.296875-14.253906-48.230469-45.90625-87.570313-92.449219-94.839844 4.199219-.699219 8.503906-1.097656 12.898437-1.191406 56.46875-1.230469 94.503907 41.78125 110.542969 96.03125 24.007813 81.164063 12.394531 180.675781-75.792969 206.296875zm0 0" fill="#e05c56"/><path d="m148.917969 414.160156c-18.953125 0-39.050781-3.226562-58.402344-12.15625-26.914063-12.414062-47.128906-35.214844-55.464844-62.558594-7.765625-25.46875-4.28125-52.25 9.808594-75.410156 10.414063-17.117187 11.804687-31.316406 13.5625-49.292968.699219-7.144532 1.421875-14.527344 2.785156-22.714844 2.207031-13.257813 6.328125-26.039063 12.25-37.984375 19.523438-39.394531 54.777344-63.425781 94.296875-64.289063 28.308594-.628906 54.363282 9.441406 75.363282 29.089844 18.78125 17.578125 33.320312 42.453125 42.042968 71.945312 8.023438 27.121094 11.859375 55.253907 11.089844 81.359376-.855469 29.101562-7.195312 54.664062-18.84375 75.980468-15.734375 28.785156-40.226562 48.179688-72.785156 57.640625-15.515625 4.503907-34.917969 8.390625-55.703125 8.390625zm21.269531-310.597656c-18.84375.097656-36.914062 6.574219-52.96875 19.121094-22.203125 17.351562-37.609375 43.882812-42.230469 71.636718-1.289062 7.722657-1.984375 14.871094-2.660156 21.78125-1.777344 18.183594-3.457031 35.355469-15.535156 55.199219-11.992188 19.710938-14.96875 42.464844-8.378907 64.070313 7.175782 23.539062 24.652344 43.199218 47.949219 53.949218 36.667969 16.910157 76.988281 10.984376 104.355469 3.035157 28.863281-8.386719 50.539062-25.523438 64.425781-50.925781 20.316407-37.167969 22.789063-92 6.617188-146.675782-7.703125-26.039062-21-51.433594-42.058594-69.113281-9.199219-7.722656-19.761719-13.789063-31.195313-17.511719-9.527343-3.105468-19.019531-4.613281-28.320312-4.566406zm-90.472656 53.582031h.011718zm0 0"/><path d="m198.195312 257.597656c25.824219 28.71875 68.296876 5.863282 66.785157-29.855468-.90625-21.363282-12.925781-46.597657-25.65625-63.578126-10.289063-13.726562-23.632813-25.640624-39.335938-32.792968-15.863281-7.21875-38.027343-15.09375-53.824219-3.085938-10.679687 8.121094-9.425781 22.636719-3.460937 33.25 6.929687 12.324219 21.894531 14.476563 30.039063 25.714844 15.066406 20.800781 8.15625 51.109375 25.453124 70.347656zm0 0" fill="#ffc1b8"/><path d="m240.863281 267.285156c4.964844-7.070312 7.871094-15.910156 7.449219-25.71875-.902344-21.371094-12.917969-46.605468-25.65625-63.585937-10.289062-13.726563-23.628906-25.644531-39.335938-32.792969-12.714843-5.792969-29.5-12.003906-43.789062-8.03125 1.25-3.359375 3.394531-6.40625 6.632812-8.871094 15.792969-12.015625 37.960938-4.132812 53.820313 3.089844 15.707031 7.148438 29.046875 19.066406 39.339844 32.78125 12.734375 16.992188 24.75 42.214844 25.652343 63.585938.777344 18.28125-9.96875 33.191406-24.113281 39.542968zm0 0" fill="#ffb3a8"/><path d="m91.449219 225.886719c-1.230469 11.160156-5.652344 21.789062-10.03125 32.238281-5.988281 14.289062-12.039063 28.734375-14.519531 43.90625-2.484376 15.171875-1.101563 31.367188 7.011718 44.375 9.835938 15.769531 28.691406 24.371094 47.472656 25.285156 16.574219.8125 37.652344-7.957031 36.4375-27.136718-1.160156-18.316407-20.417968-27.890626-25.429687-44.558594-5.476563-18.21875-3.496094-34.355469-.488281-52.960938 3.507812-21.675781 17.054687-45.480468-3.804688-63.382812-8.652344-7.425782-25.226562-8.25-32.09375 2.296875-7.652344 11.761719-3.125 26.9375-4.554687 39.9375zm0 0" fill="#ffc1b8"/><path d="m221.441406 297.707031c-5.652344 8.121094-9.300781 17.480469-14.886718 25.578125-5.59375 8.113282-14.363282 12.488282-21.074219 19.679688-12.984375 13.914062-.195313 27.664062 16.351562 26.976562 31.617188-1.308594 57.359375-29.1875 56.160157-61.355468-.90625-24.3125-22.046876-31.6875-36.550782-10.878907zm0 0" fill="#ffc1b8"/><path d="m201.835938 369.941406c-9.9375.40625-18.515626-4.382812-20.972657-11.296875 2.273438.519531 4.707031.753907 7.234375.648438 31.621094-1.304688 57.363282-29.1875 56.15625-61.355469-.171875-4.800781-1.140625-8.945312-2.703125-12.339844 8.765625.691406 15.921875 9.054688 16.441407 22.988282 1.195312 32.167968-24.535157 60.042968-56.15625 61.355468zm0 0" fill="#ffb3a8"/><path d="m134.101562 212.265625c.449219 9.710937 1.917969 17.390625-2.308593 26.460937-3.621094 7.765626-9.03125 14.546876-13.148438 22.039063-7.101562 12.90625-7.253906 30.144531-1.796875 43.660156 3.679688 9.121094 11.632813 18.238281 21.363282 20.972657 13.488281 3.785156 25.398437-6.183594 37.335937-10.566407 10.742187-3.941406 19.929687-2.441406 29.828125 3.316407 5.683594 3.304687 13.03125 8.039062 20.316406 5.847656 8.777344-2.644532 16.65625-12.957032 19.308594-21.265625 11.363281-35.59375-13.742188-76.695313-39.070312-99.972657-12.851563-11.8125-26.308594-22.78125-44.296876-20.460937-16.835937 2.171875-28.371093 11.601563-27.53125 29.96875zm0 0" fill="#d33737"/><path d="m244.996094 302.726562c-2.648438 8.3125-10.527344 18.625-19.300782 21.265626-2.433593.730468-4.867187.6875-7.246093.191406 1.789062-2.753906 3.164062-5.617188 4.015625-8.277344 11.359375-35.59375-13.746094-76.699219-39.070313-99.972656-12.851562-11.8125-26.3125-22.78125-44.300781-20.46875-.441406.054687-.882812.121094-1.3125.183594 4.59375-7.664063 13.15625-11.96875 23.855469-13.347657 17.992187-2.324219 31.4375 8.644531 44.292969 20.453125 25.328124 23.289063 50.4375 64.382813 39.066406 99.972656zm0 0" fill="#bc2222"/><path d="m205.351562 247.234375c0 11.28125-9.144531 20.425781-20.425781 20.425781s-20.425781-9.144531-20.425781-20.425781 9.144531-20.425781 20.425781-20.425781 20.425781 9.144531 20.425781 20.425781zm0 0" fill="#ffc1b8"/><path d="m188.355469 267.371094c-5.875 1.003906-11.59375-.613282-15.964844-4.015625 1.121094 0 2.261719-.09375 3.402344-.289063 11.121093-1.894531 18.605469-12.445312 16.710937-23.566406-.894531-5.242188-3.714844-9.679688-7.601562-12.691406 9.796875-.035156 18.464844 7.015625 20.164062 17 1.894532 11.117187-5.585937 21.667968-16.710937 23.5625zm0 0" fill="#ffb3a8"/><path d="m254.75 283.976562c-.027344-5.28125-.617188-10.597656-1.6875-15.898437 12.273438-9.394531 19.582031-24.511719 18.898438-40.632813-1.039063-24.5625-15.21875-51.699218-27.046876-67.472656-11.78125-15.714844-26.316406-27.804687-42.03125-34.960937-13.710937-6.242188-29.40625-11.941407-44.691406-9.28125-13.65625 2.378906-26.3125 13.496093-26.976562 27.921875-.324219 6.96875 1.59375 14.535156 5.398437 21.304687 3.339844 5.941407 8.066407 9.898438 12.839844 13.121094-4.230469 1.570313-7.910156 3.691406-11.003906 6.296875-1.628907-2.0625-3.535157-4.078125-5.800781-6.023438-6.496094-5.574218-16.039063-8.253906-24.910157-6.976562-7.523437 1.078125-13.769531 4.898438-17.585937 10.761719-6.355469 9.765625-5.929688 20.898437-5.558594 30.726562.589844 15.527344-3.617188 28.242188-9.617188 42.5625-6.074218 14.488281-12.355468 29.472657-14.972656 45.476563-1.898437 11.601562-1.53125 22.988281 1.058594 32.921875.972656 3.734375 4.789062 5.972656 8.519531 4.996093 3.734375-.972656 5.972657-4.785156 5-8.519531-2.101562-8.0625-2.375-17.449219-.789062-27.144531 2.351562-14.375 8.308593-28.589844 14.070312-42.332031 6.722657-16.039063 11.359375-31.027344 10.695313-48.496094-.324219-8.496094-.628906-16.523437 3.304687-22.570313 2.035157-3.125 5.394531-4.203124 7.855469-4.554687 4.855469-.699219 10.410156.8125 13.832031 3.75 2.746094 2.359375 4.75 4.800781 6.160157 7.378906.441406.800781-2.128907 7.507813-2.304688 8.882813-1.320312 10.136718 2.570312 20.871094-1.941406 30.558594-3.652344 7.832031-8.8125 14.121093-12.941406 21.621093-7.773438 14.140625-8.621094 33.625-2.152344 49.644531 4.917968 12.191407 15.109375 22.039063 25.953125 25.085938 2.773437.777344 5.457031 1.113281 8.0625 1.113281.707031 0 1.40625-.035156 2.101562-.082031 2.421875 3.714844 4.085938 7.511719 4.359375 11.839844.289063 4.546875-1.121094 8.332031-4.304687 11.5625-5.269531 5.347656-15.238281 8.632812-24.820313 8.160156-11.667968-.570312-22.773437-4.355469-31.273437-10.65625-3.101563-2.296875-7.476563-1.648438-9.773438 1.449219-2.296875 3.101562-1.648437 7.476562 1.449219 9.773437 20.136719 14.933594 54.992188 20.746094 74.371094 1.082032 5.964844-6.054688 8.835937-13.75 8.296875-22.253907-.351563-5.503906-1.996094-10.308593-4.289063-14.636719 2.824219-1.195312 5.546875-2.546874 8.167969-3.851562 3.253906-1.617188 6.324219-3.144531 9.285156-4.230469 7.164063-2.628906 13.296875-2.386719 20.394531.945313-2.363281 2.554687-5.199218 4.824218-8.164062 7.1875-3.277344 2.609375-6.667969 5.308594-9.8125 8.671875-7.09375 7.601562-9.078125 16.5-5.441406 24.414062 3.996094 8.695313 14.214844 14.34375 25.726562 14.34375.484375 0 .972656-.011719 1.464844-.03125 35.398438-1.46875 64.183594-32.882812 62.851562-68.597656-.394531-10.480469-4.148437-19.113281-10.226562-24.351563zm-105.957031-125.867187c-3.371094-5.996094-6.828125-17.855469 1.597656-24.261719 6.140625-4.664062 17.65625-9.339844 46.703125 3.882813 13.589844 6.1875 26.261719 16.777343 36.644531 30.625 10.628907 14.175781 23.359375 38.3125 24.265625 59.683593.4375 10.414063-3.53125 18.988282-9.226562 25.074219-7.746094-21.03125-22.160156-40.832031-38.117188-55.5-11.597656-10.65625-24.1875-20.949219-40.195312-22.433593-2.804688-2.160157-5.710938-3.96875-8.441406-5.652344-5.59375-3.449219-10.429688-6.429688-13.230469-11.417969zm44.464843 148.054687c-6.796874-1.140624-13.671874-.253906-20.117187 2.109376-3.679687 1.351562-7.246094 3.125-10.691406 4.839843-8.160157 4.058594-15.207031 7.558594-22.347657 5.558594-7.769531-2.179687-14.023437-10.042969-16.777343-16.863281-4.957031-12.28125-4.394531-27.074219 1.441406-37.679688 1.601563-2.917968 3.433594-5.738281 5.371094-8.726562 2.792969-4.3125 5.679687-8.769532 7.988281-13.726563 4.472656-9.597656 3.425781-19.523437 2.957031-29.730469-.601562-13.164062 6.613281-20.808593 21.445313-22.722656 14.882812-1.910156 26.324218 7.324219 38.675781 18.679688 13.160156 12.09375 24.699219 27.808594 31.664063 43.117187 5.714843 12.554688 11.300781 31.351563 5.480468 49.585938-2.09375 6.5625-8.492187 14.839843-14.671875 16.699219-4.894531 1.476562-9.800781-2.671876-13.953125-4.53125-5.003906-2.238282-11.03125-5.699219-16.464844-6.609376zm8.285157 56.796876c-7.117188.289062-12.402344-2.886719-13.917969-6.1875-1.492188-3.25.789062-6.710938 2.964844-9.042969 2.433594-2.609375 5.28125-4.875 8.296875-7.277344 4.175781-3.324219 8.476562-6.757813 12.09375-11.40625 4.933593 2.113281 10.695312 3.453125 16.722656 1.636719 10.617187-3.199219 19.382813-13.949219 23.179687-23.675782.058594.601563.105469 1.210938.128907 1.835938 1.050781 28.179688-21.601563 52.964844-49.46875 54.117188zm0 0"/><path d="m211.949219 242.632812c-1.230469-7.21875-5.195313-13.527343-11.167969-17.761718s-13.238281-5.890625-20.457031-4.660156c-7.21875 1.226562-13.523438 5.195312-17.757813 11.167968-4.238281 5.972656-5.890625 13.238282-4.664062 20.453125 1.230468 7.21875 5.195312 13.527344 11.171875 17.761719 4.683593 3.324219 10.164062 5.058594 15.792969 5.058594 1.546874 0 3.105468-.132813 4.660156-.398438 14.902344-2.535156 24.957031-16.722656 22.421875-31.621094zm-24.765625 17.851563c-3.542969.601563-7.105469-.210937-10.03125-2.285156-2.929688-2.078125-4.875-5.171875-5.476563-8.710938-.601562-3.539062.207031-7.097656 2.285157-10.027343 2.078124-2.925782 5.167968-4.871094 8.707031-5.476563.765625-.128906 1.527343-.195313 2.285156-.195313 2.761719 0 5.449219.851563 7.746094 2.480469 2.929687 2.078125 4.871093 5.171875 5.476562 8.707031 1.242188 7.304688-3.6875 14.261719-10.992187 15.507813zm0 0"/><path d="m511.988281 194c-.480469-44.292969-13.902343-86.261719-37.789062-118.179688-1.078125-1.4375-2.195313-2.878906-3.320313-4.289062-2.40625-3.011719-6.804687-3.503906-9.816406-1.09375-3.015625 2.40625-3.507812 6.804688-1.097656 9.816406 1.03125 1.292969 2.058594 2.617188 3.046875 3.9375 22.125 29.558594 34.554687 68.609375 35.003906 109.957032.445313 41.136718-10.960937 80.699218-32.113281 111.398437-19.480469 28.269531-49.625 48.332031-87.179688 58.003906-5.121094 1.320313-10.445312 2.453125-16.03125 3.429688 1.644532-2.691407 3.230469-5.429688 4.746094-8.222657 16.523438-9.808593 30.867188-21.996093 41.53125-35.785156 21.710938-28.074218 33.859375-67.148437 35.121094-112.996094.875-31.683593-4.234375-64.367187-15.175782-97.140624-11.707031-35.058594-28.960937-62.59375-51.273437-81.839844-3.398437-2.933594-6.894531-5.644532-10.484375-8.152344 8.132812 2.121094 15.957031 4.601562 23.398438 7.4375 17.292968 6.585938 32.992187 15.632812 46.664062 26.894531 2.980469 2.453125 7.382812 2.027344 9.835938-.949219 2.453124-2.980468 2.027343-7.382812-.953126-9.835937-14.84375-12.226563-31.859374-22.039063-50.570312-29.167969-16.011719-6.101562-33.605469-10.660156-52.285156-13.554687-55.28125-8.5625-119.992188-1.472657-159.515625 42.425781-4.496094 4.996094-8.429688 10.335938-11.894531 16.121094-32.5625 1.488281-64.640626 10.070312-90.957032 29.867187-6.261718 4.707031-11.988281 9.914063-17.082031 15.574219-7.578125 8.410156-13.582031 17.785156-18.367187 28.660156-8.199219 18.640625-12.847657 39.394532-13.09375 58.433594-.363282 28.226562-5.671876 49.183594-17.210938 67.949219-12.015625 19.539062-17.039062 43.636719-14.46875 67.925781.542969 5.160156 1.425781 10.328125 2.664062 15.464844 4.484376 18.613281 13.652344 35.667968 26.511719 49.320312 15.875 16.863282 35.796875 30.035156 57.605469 38.105469 12.089844 4.472656 24.847656 7.773437 37.914062 9.816406 1.769532.277344 3.484376.523438 5.179688.753907 15.316406 2.128906 31.214844 3.1875 48.625 3.1875 8.570312 0 17.507812-.253907 26.914062-.757813 22.078126-1.179687 39.9375-3.683594 56.203126-7.875 37.402343-9.636719 68.140624-28.882813 89.503906-55.914063 11.015625-1.363281 21.003906-3.214843 30.433594-5.644531 40.859374-10.53125 73.78125-32.523437 95.199218-63.609375 22.773438-33.050781 35.050782-75.480468 34.578125-119.472656zm-317.875-138.558594c14.359375-15.945312 34.46875-27.890625 57.570313-34.609375 25.214844-7.332031 49.441406-9.027343 75.039062-1.847656 15.425782 4.328125 29.667969 12.132813 41.792969 22.589844 20.382813 17.578125 36.246094 43.042969 47.144531 75.6875 10.425782 31.21875 15.292969 62.28125 14.464844 92.328125-.824219 29.894531-7.082031 72.347656-32.207031 104.832031-5.339844 6.90625-11.839844 13.410156-19.1875 19.382813 3.859375-10.40625 6.910156-21.265626 9.117187-32.429688 3.453125-4.621094 6.621094-9.554688 9.492188-14.808594 11.648437-21.316406 17.992187-46.878906 18.847656-75.984375.765625-26.101562-3.070312-54.234375-11.09375-81.355469-8.722656-29.492187-23.257812-54.367187-42.042969-71.945312-20.996093-19.648438-47.0625-29.722656-75.359375-29.089844-28.722656.625-55.183594 13.5-74.996094 35.601563-7.917968-.921875-15.9375-1.523438-23.984374-1.730469 1.699218-2.289062 3.496093-4.503906 5.402343-6.621094zm182.585938 121.953125c-5.902344-14.492187-13.421875-27.96875-22.4375-40.011719-19.609375-26.203124-46.8125-46.464843-78.667969-58.601562-2.769531-1.054688-5.597656-2.046875-8.460938-3.011719.792969-1.269531 1.832032-2.449219 3.191407-3.484375 3.136719-2.382812 7.675781-4.769531 15.242187-4.769531 7.242188 0 17.257813 2.1875 31.460938 8.652344 13.589844 6.1875 26.261718 16.777343 36.644531 30.625 10.625 14.175781 23.359375 38.3125 24.261719 59.683593.167968 3.914063-.296875 7.558594-1.234375 10.917969zm15.195312-11.507812c-1.039062-24.566407-15.21875-51.699219-27.042969-67.472657-11.785156-15.714843-26.316406-27.804687-42.035156-34.960937-17.167968-7.816406-42.167968-16.5625-60.945312-2.289063-3.726563 2.832032-6.519532 6.371094-8.328125 10.464844-7.65625-2.085937-15.578125-3.859375-23.722657-5.308594 16.292969-15.050781 36.523438-23.6875 58.175782-24.160156.710937-.015625 1.417968-.023437 2.128906-.023437 46.78125 0 84.660156 33.878906 101.570312 91.054687 14.117188 47.730469 14.023438 95.578125.257813 131.695313.09375-3.101563.128906-6.207031.097656-9.324219-.222656-20.679688-3.269531-40.851562-8.882812-59.730469 5.957031-8.539062 9.191406-19.003906 8.726562-29.945312zm-214.359375 264.457031c-28.78125 3.984375-58.085937.117188-85.25-9.933594-19.332031-7.148437-38.402344-19.835937-52.28125-34.578125-28.679687-30.453125-35.117187-79.808593-12.976562-115.8125 12.9375-21.039062 18.882812-44.199219 19.277344-75.089843.363281-28.105469 9.082031-57.058594 27.875-77.925782 13.902343-15.441406 33.199218-27.125 55.382812-33.949218 11.140625-3.429688 23.003906-5.636719 35.285156-6.46875 3.230469-.21875 6.421875-.328126 9.566406-.328126 28.550782 0 53.460938 9.019532 74.164063 26.875 20.382813 17.582032 36.246094 43.046876 47.148437 75.6875 10.421876 31.21875 15.289063 62.285157 14.460938 92.328126-.824219 29.894531-7.078125 72.347656-32.207031 104.835937-21.285157 27.523437-60.714844 48.863281-100.445313 54.359375zm168.433594-63.238281c-19.480469 28.273437-49.628906 48.332031-87.179688 58.007812-9.734374 2.507813-20.132812 4.375-31.824218 5.695313 25.152344-10.878906 47.183594-27.03125 62.070312-46.277344 21.710938-28.070312 33.855469-67.144531 35.117188-112.996094.875-31.683594-4.230469-64.367187-15.175782-97.140625-11.707031-35.058593-28.957031-62.59375-51.273437-81.839843-3.394531-2.929688-6.894531-5.644532-10.484375-8.148438 8.136719 2.117188 15.957031 4.597656 23.402344 7.433594 29.796875 11.351562 54.175781 29.492187 72.457031 53.914062 22.125 29.5625 34.554687 68.609375 35 109.957032.445313 41.136718-10.957031 80.695312-32.109375 111.394531zm0 0"/></svg>