<svg height="511pt" viewBox="-13 1 511 511.99888" width="511pt" xmlns="http://www.w3.org/2000/svg"><path d="m304.066406 192.1875 25.917969 26.914062-163.734375 157.683594-25.917969-26.910156zm0 0" fill="#bfbfbf"/><path d="m317.023438 205.640625 12.960937 13.460937-163.734375 157.683594-12.960938-13.457031zm0 0" fill="#acacac"/><path d="m248.644531 150.308594-28.269531-29.351563 107.019531-103.070312 28.265625 29.351562c2.136719 2.214844 2.070313 5.742188-.144531 7.875l-98.996094 95.339844c-2.214843 2.136719-5.742187 2.070313-7.875-.144531zm0 0" fill="#d5f3f7"/><path d="m355.511719 55.113281-98.992188 95.339844c-2.214843 2.128906-5.734375 2.074219-7.875-.148437l-13.390625-13.90625c2.132813 2.214843 5.660156 2.28125 7.875.148437l98.992188-95.339844c2.214844-2.132812 2.28125-5.660156.148437-7.875l13.390625 13.90625c2.136719 2.222657 2.066406 5.742188-.148437 7.875zm0 0" fill="#afeaf2"/><path d="m350.886719 240.792969 30.796875 31.976562c7.972656 8.28125 21.210937 9.203125 29.792968 1.554688 4.910157-4.378907 7.289063-10.480469 7.101563-16.523438-.136719-4.304687 3.378906-7.949219 7.675781-7.609375 5.839844.460938 11.84375-1.484375 16.398438-5.867187 4.453125-4.289063 6.617187-10.050781 6.476562-15.777344-.105468-4.277344 3.566406-7.699219 7.839844-7.453125 6.296875.363281 12.734375-2.066406 17.292969-7.34375 6.960937-8.050781 6.164062-21.292969-1.21875-28.960938l-30.800781-31.980468zm0 0" fill="#bfbfbf"/><path d="m411.480469 274.324219c-8.582031 7.644531-21.824219 6.726562-29.796875-1.554688l-13.769532-14.296875c7.976563 8.28125 21.214844 9.199219 29.796876 1.554688 4.910156-4.375 7.285156-10.484375 7.101562-16.519532-.140625-4.304687 3.378906-7.957031 7.671875-7.609374 5.835937.457031 11.84375-1.492188 16.394531-5.875 4.453125-4.289063 6.625-10.046876 6.480469-15.765626-.109375-4.289062 3.570313-7.710937 7.84375-7.464843 6.296875.371093 12.730469-2.066407 17.289063-7.339844 6.964843-8.050781 6.164062-21.292969-1.222657-28.964844l13.769531 14.296875c7.386719 7.671875 8.183594 20.914063 1.21875 28.964844-4.554687 5.273438-10.992187 7.710938-17.285156 7.339844-4.273437-.246094-7.953125 3.175781-7.84375 7.464844.140625 5.71875-2.027344 11.476562-6.480468 15.765624-4.550782 4.382813-10.558594 6.332032-16.394532 5.875-4.296875-.347656-7.8125 3.304688-7.675781 7.609376.1875 6.035156-2.195313 12.136718-7.097656 16.519531zm0 0" fill="#acacac"/><path d="m351.695312 58.800781 90.546876 94.019531-91.359376 87.984376-90.546874-94.019532zm0 0" fill="#bfbfbf"/><path d="m374.523438 82.507812 67.71875 70.3125-91.359376 87.984376-67.714843-70.3125zm0 0" fill="#5a5c5e"/><path d="m428.472656 138.523438 13.769532 14.296874-91.359376 87.984376-13.769531-14.296876zm0 0" fill="#444"/><path d="m19.472656 495.410156-3.199218-3.320312c-12.015626-12.472656-11.640626-32.324219.832031-44.335938l109.667969-105.621094c1.753906-1.6875 4.546874-1.636718 6.234374.117188l40.582032 42.136719c1.691406 1.753906 1.640625 4.546875-.117188 6.238281l-109.667968 105.621094c-12.46875 12.011718-32.320313 11.636718-44.332032-.835938zm0 0" fill="#87e0ec"/><path d="m173.472656 390.625-109.664062 105.617188c-12.476563 12.015624-32.320313 11.640624-44.335938-.832032l-3.199218-3.320312c-1.691407-1.757813-3.136719-3.660156-4.328126-5.667969 11.953126 7.785156 28.109376 6.609375 38.828126-3.714844l109.664062-105.613281c1.757812-1.695312 1.808594-4.480469.117188-6.238281l13.035156 13.535156c1.691406 1.757813 1.636718 4.542969-.117188 6.234375zm0 0" fill="#2dd2e3"/><path d="m478.085938 179.933594-30.800782-31.980469-67.714844-70.3125c-.003906 0-.003906 0-.003906-.003906l-18.058594-18.75c3.835938-4.855469 3.605469-11.929688-.800781-16.503907l-28.269531-29.351562-10.480469-10.886719c-2.6875-2.785156-7.117187-2.867187-9.902343-.1875-2.785157 2.683594-2.867188 7.117188-.1875 9.902344l5.625 5.839844-7.75 7.464843-5.625-5.84375c-2.683594-2.785156-7.113282-2.867187-9.898438-.1875-2.789062 2.683594-2.871094 7.117188-.1875 9.902344l5.625 5.839844-7.75 7.464844-5.625-5.839844c-2.683594-2.789062-7.117188-2.871094-9.902344-.1875s-2.867187 7.113281-.1875 9.898438l5.628906 5.84375-7.75 7.460937-5.625-5.839844c-2.683593-2.785156-7.117187-2.871093-9.902343-.1875-2.785157 2.683594-2.867188 7.117188-.1875 9.902344l5.628906 5.839844-7.75 7.464843-5.625-5.84375c-2.683594-2.78125-7.117187-2.867187-9.902344-.183593-2.785156 2.683593-2.867187 7.113281-.183593 9.898437l5.625 5.84375-7.75 7.460938-5.625-5.839844c-2.683594-2.785156-7.117188-2.871094-9.902344-.1875s-2.867188 7.113281-.183594 9.902344l5.625 5.839844-7.75 7.460937-5.289062-5.492187c-2.683594-2.785157-7.117188-2.867188-9.902344-.1875-2.785156 2.683593-2.867188 7.117187-.1875 9.902343l10.148437 10.535157 28.269531 29.351562v.003906c2.464844 2.554688 5.757813 3.84375 9.054688 3.84375 2.605469 0 5.207031-.816406 7.410156-2.425781l18.054688 18.746094c0 .003906.003906.003906.003906.007812l16.054688 16.667969-22.742188 22.011719c-2.78125 2.691406-2.851562 7.125-.164062 9.902343 2.691406 2.777344 7.121093 2.851563 9.902343.160157l22.71875-21.984375 16.191407 16.808594-153.640626 147.976562-16.203124-16.824219 107.4375-103.472656c2.785156-2.679687 2.867187-7.113281.1875-9.898437-2.683594-2.785157-7.117188-2.871094-9.902344-.1875l-107.4375 103.472656-2.472656-2.570313c-2.117188-2.195312-4.960938-3.4375-8.007813-3.496093-3.0625-.046876-5.9375 1.078124-8.132813 3.191406l-109.664062 105.621094c-7.382812 7.105468-11.550781 16.664062-11.742188 26.90625-.195312 10.242187 3.613282 19.949218 10.722657 27.328124l3.199219 3.324219c7.519531 7.804688 17.566406 11.730469 27.632812 11.730469 9.582031 0 19.175781-3.558594 26.605469-10.710938l2.488281-2.402343c2.785156-2.679688 2.871094-7.113281.1875-9.898438-2.683594-2.785156-7.113281-2.871093-9.902344-.1875l-2.488281 2.398438c-9.671875 9.316406-25.121094 9.027343-34.433594-.644531l-3.203125-3.324219c-4.511718-4.683594-6.929687-10.847657-6.804687-17.351563.121093-6.5 2.769531-12.566406 7.453125-17.082031l107.800781-103.820313 36.988281 38.402344-81.148437 78.148438c-2.785157 2.683594-2.867188 7.117187-.1875 9.902344 2.683593 2.785156 7.117187 2.867187 9.902343.1875l83.011719-79.945313c4.53125-4.367187 4.667969-11.605469.304688-16.140625l-2.476563-2.570312 153.640625-147.96875 16.042969 16.65625 30.796875 31.980468c5.746094 5.964844 13.351563 8.992188 20.917969 8.992188 6.648437 0 13.269531-2.335938 18.578125-7.070313 6.261719-5.582031 9.703125-13.589843 9.4375-21.96875-.007813-.265625.15625-.40625.128906-.410156 8.039063.628906 15.996094-2.210937 21.804687-7.804687 5.671876-5.464844 8.816407-13.113282 8.621094-20.988282 0-.027344 0-.078125.082032-.160156.070312-.066406.199218-.144531.351562-.132812 8.832031.511718 17.199219-3.046876 23-9.757813 9.253906-10.714844 8.59375-27.9375-1.476562-38.394531zm-225.390626-35.515625-22.417968-23.277344 96.929687-93.351563 22.417969 23.277344zm17.542969 2.546875 4.871094-4.695313 76.398437-73.574219 13.113282 13.617188-81.265625 78.269531zm22.832031 23.703125 81.269532-78.269531 58 60.222656-40.632813 39.132812-40.636719 39.136719zm175.890626 38.503906c-2.929688 3.390625-7.15625 5.179687-11.59375 4.929687-4.03125-.226562-7.992188 1.246094-10.894532 4.050782-2.859375 2.765625-4.441406 6.617187-4.347656 10.566406.101562 4.023438-1.4375 7.773438-4.332031 10.558594-2.929688 2.820312-6.941407 4.265625-10.988281 3.933594-3.949219-.308594-7.863282 1.085937-10.746094 3.839843-2.980469 2.84375-4.613282 6.839844-4.480469 10.972657.128906 4.222656-1.605469 8.257812-4.765625 11.074218-5.621094 5.011719-14.632812 4.480469-20.085938-1.183594l-25.941406-26.9375 40.632813-39.132812 40.636719-39.132812 25.941406 26.9375c5.007812 5.199218 5.460937 14.324218.964844 19.523437zm0 0"/><path d="m47.9375 472.980469c0 4.691406-3.804688 8.496093-8.496094 8.496093-4.695312 0-8.496094-3.804687-8.496094-8.496093 0-4.691407 3.800782-8.496094 8.496094-8.496094 4.691406 0 8.496094 3.804687 8.496094 8.496094zm0 0" fill="#111"/></svg>