<svg height="512pt" viewBox="-173 0 512 512.00005" width="512pt" xmlns="http://www.w3.org/2000/svg"><path d="m66.398438 87.109375c-6.035157-19.828125-14.515626-39.644531-15.199219-60.640625-.265625-8.25 1.320312-17.335938 10.539062-19.179688 11.308594-2.257812 19.058594 10.164063 30.691407 6.28125 10.96875-3.660156 19.050781-6.984374 22.617187 6.816407 2.695313 10.417969-12.855469 66.722656-12.855469 66.722656zm0 0" fill="#e57670"/><path d="m102.1875 87.113281h-16.578125s15.546875-56.3125 12.851563-66.730469c-.929688-3.597656-2.164063-6.03125-3.683594-7.589843 9.773437-3.277344 16.957031-5.199219 20.273437 7.589843 2.695313 10.417969-12.863281 66.730469-12.863281 66.730469zm0 0" fill="#e05c56"/><path d="m66.398438 424.890625c-6.035157 19.828125-14.515626 39.640625-15.199219 60.640625-.265625 8.25 1.320312 17.335938 10.539062 19.179688 11.308594 2.257812 19.058594-10.164063 30.691407-6.28125 10.96875 3.660156 19.050781 6.980468 22.617187-6.816407 2.695313-10.417969-12.855469-66.722656-12.855469-66.722656zm0 0" fill="#e57670"/><path d="m102.1875 424.886719h-16.578125s15.546875 56.3125 12.851563 66.730469c-.929688 3.59375-2.164063 6.027343-3.683594 7.589843 9.773437 3.277344 16.957031 5.199219 20.273437-7.589843 2.695313-10.417969-12.863281-66.730469-12.863281-66.730469zm0 0" fill="#e05c56"/><path d="m98.109375 448.898438h-29.683594c-33.917969 0-61.414062-27.5-61.414062-61.417969v-262.308594c0-33.921875 27.496093-61.417969 61.414062-61.417969h29.683594c33.917969 0 61.414063 27.5 61.414063 61.417969v262.308594c0 33.917969-27.496094 61.417969-61.414063 61.417969zm0 0" fill="#d33737"/><path d="m159.523438 125.167969v262.316406c0 28.457031-19.351563 52.386719-45.613282 59.359375 15.734375-11.851562 25.910156-30.683594 25.910156-51.898438v-277.242187c0-21.214844-10.175781-40.046875-25.910156-51.894531 26.261719 6.972656 45.613282 30.902344 45.613282 59.359375zm0 0" fill="#bc2222"/><path d="m7.011719 173.441406h152.511719v165.769532h-152.511719zm0 0" fill="#e7e7e7"/><path d="m139.359375 173.441406h20.164063v165.769532h-20.164063zm0 0" fill="#cecece"/><path d="m116.496094 59.273438c3.78125-16.46875 7.023437-34.140626 5.339844-40.640626-1.734376-6.710937-4.6875-11.113281-9.027344-13.464843-6.652344-3.609375-13.789063-1.207031-21.347656 1.332031l-1.25.421875c-3.234376 1.078125-6.109376-.195313-10.910157-2.542969-5.011719-2.449218-11.246093-5.5-18.933593-3.964844-14.71875 2.941407-16.453126 17.726563-16.175782 26.28125.367188 11.257813 2.800782 22.0625 5.894532 32.566407-28.851563 8.039062-50.085938 34.53125-50.085938 65.910156v262.308594c0 31.3125 21.148438 57.761719 49.910156 65.863281-3.011718 10.3125-5.359375 20.917969-5.71875 31.960938-.277344 8.550781 1.453125 23.339843 16.171875 26.28125 1.441407.289062 2.828125.414062 4.167969.414062 5.8125 0 10.695312-2.386719 14.769531-4.378906 4.800781-2.347656 7.671875-3.617188 10.910157-2.542969l1.25.421875c7.554687 2.539062 14.695312 4.941406 21.34375 1.335938 4.339843-2.355469 7.292968-6.757813 9.03125-13.46875 1.660156-6.421876-1.480469-23.722657-5.199219-40.011719 17.546875-4.933594 32.671875-16.757813 41.632812-33.25 1.847657-3.40625.589844-7.660157-2.8125-9.511719-3.40625-1.84375-7.660156-.585938-9.507812 2.816406-9.542969 17.5625-27.875 28.476563-47.84375 28.476563h-29.679688c-29.996093 0-54.402343-24.40625-54.402343-54.40625v-41.257813h138.488281v37.992188c0 3.871094 3.136719 7.011718 7.011719 7.011718 3.871093 0 7.011718-3.140624 7.011718-7.011718v-259.042969c0-31.363281-21.214844-57.84375-50.039062-65.898437zm-58.285156 426.488281c.324218-10.058594 2.65625-20.113281 5.617187-30.023438 1.519531.101563 3.050781.171875 4.601563.171875h29.679687c1.566406 0 3.125-.054687 4.675781-.160156 3.96875 17.292969 6.21875 30.753906 5.476563 34.105469-1.039063 4.015625-2.125 4.644531-2.136719 4.648437-1.285156.691406-6.648438-1.105468-10.195312-2.296875l-1.277344-.429687c-8.835938-2.949219-15.863282.484375-21.507813 3.246094-4.335937 2.117187-7.136719 3.386718-10.03125 2.8125-1.574219-.316407-5.261719-1.054688-4.902343-12.074219zm4.902343-471.59375c2.890625-.578125 5.695313.691406 10.027344 2.808593 5.644531 2.757813 12.671875 6.195313 21.511719 3.246094l1.277344-.429687c3.546874-1.191407 8.910156-2.988281 10.195312-2.296875.011719.003906 1.097656.632812 2.128906 4.628906.753906 3.40625-1.5625 17.175781-5.625 34.785156-1.496094-.097656-3-.167968-4.519531-.167968h-29.683594c-1.480469 0-2.949219.066406-4.40625.160156-3.046875-10.121094-5.476562-20.390625-5.808593-30.664063-.359376-11.019531 3.328124-11.757812 4.902343-12.070312zm-49.089843 318.03125v-151.746094h21.5c3.871093 0 7.011718-3.140625 7.011718-7.011719 0-3.875-3.140625-7.011718-7.011718-7.011718h-21.5v-41.257813c0-30 24.40625-54.40625 54.40625-54.40625h29.679687c29.996094 0 54.402344 24.40625 54.402344 54.40625v41.257813h-83.601563c-3.871094 0-7.011718 3.140624-7.011718 7.011718s3.140624 7.011719 7.011718 7.011719h83.601563v151.746094zm0 0"/><path d="m114.636719 251.441406h-62.734375c-3.875 0-7.011719-3.136718-7.011719-7.011718 0-3.871094 3.136719-7.011719 7.011719-7.011719h62.734375c3.871093 0 7.011719 3.140625 7.011719 7.011719 0 3.875-3.140626 7.011718-7.011719 7.011718zm0 0"/><path d="m102.957031 275.230469h-39.378906c-3.875 0-7.011719-3.136719-7.011719-7.011719 0-3.871094 3.136719-7.011719 7.011719-7.011719h39.382813c3.871093 0 7.011718 3.140625 7.011718 7.011719-.003906 3.875-3.140625 7.011719-7.015625 7.011719zm0 0"/></svg>