<svg height="512pt" viewBox="0 0 512 512" width="512pt" xmlns="http://www.w3.org/2000/svg"><path d="m205.214844 359.519531-52.792969-52.808593 17.03125-17.027344c3.984375-3.984375 10.441406-3.984375 14.421875 0l38.375 38.382812c3.980469 3.984375 3.980469 10.441406-.003906 14.421875zm0 0" fill="#acacac"/><path d="m222.25 342.484375-17.035156 17.03125-12.117188-12.121094 17.035156-17.03125c3.976563-3.976562 3.988282-10.433593 0-14.421875l12.117188 12.117188c3.988281 3.988281 3.976562 10.449218 0 14.425781zm0 0" fill="#9c9c9c"/><path d="m188.488281 391.109375-67.664062-67.675781c-4.335938-4.335938-4.335938-11.371094.003906-15.707032l8.535156-8.535156c4.335938-4.335937 11.371094-4.335937 15.707031.003906l67.660157 67.675782c4.339843 4.339844 4.335937 11.371094 0 15.707031l-8.535157 8.535156c-4.339843 4.335938-11.371093 4.335938-15.707031-.003906zm0 0" fill="#5a5c5e"/><path d="m212.734375 382.582031-8.535156 8.53125c-4.335938 4.335938-11.375 4.328125-15.710938-.007812l-12.117187-12.121094c4.335937 4.335937 11.367187 4.335937 15.703125.003906l8.535156-8.535156c4.335937-4.335937 4.335937-11.363281 0-15.699219l12.117187 12.117188c4.335938 4.335937 4.34375 11.375.007813 15.710937zm0 0" fill="#444"/><path d="m215.183594 320.996094-24.242188-24.242188 284.789063-284.726562c6.695312-6.691406 17.546875-6.691406 24.238281.003906 6.695312 6.695312 6.691406 17.546875 0 24.242188zm0 0" fill="#e7e7e7"/><path d="m499.96875 36.265625-284.785156 284.722656-9.441406-9.441406 284.785156-284.722656c3.351562-3.351563 5.011718-7.734375 5.011718-12.117188.011719-2.191406-.40625-4.382812-1.234374-6.449219 2.054687.839844 3.996093 2.101563 5.667968 3.773438 3.339844 3.339844 5.019532 7.726562 5.007813 12.117188 0 4.382812-1.664063 8.765624-5.011719 12.117187zm0 0" fill="#cecece"/><path d="m19.796875 495.457031-3.355469-3.351562c-12.578125-12.585938-12.578125-32.984375.007813-45.5625l113.835937-113.8125 48.910156 48.917969-113.839843 113.8125c-12.582031 12.578124-32.980469 12.578124-45.558594-.003907zm0 0" fill="#bc7d53"/><path d="m179.191406 381.648438-113.832031 113.808593c-12.585937 12.582031-32.980469 12.578125-45.5625-.003906l-3.351563-3.351563c-1.769531-1.773437-3.292968-3.699218-4.554687-5.738281 12.429687 7.769531 29.003906 6.25 39.816406-4.558593l110.628907-110.605469c1.773437-1.773438 1.773437-4.636719 0-6.410157zm0 0" fill="#af663e"/><path d="m512 24.152344c0-6.449219-2.511719-12.515625-7.070312-17.078125-4.5625-4.558594-10.628907-7.074219-17.078126-7.074219h-.003906c-6.449218 0-12.511718 2.511719-17.074218 7.070312l-115.171876 115.144532c-2.738281 2.738281-2.738281 7.175781 0 9.914062 2.738282 2.738282 7.175782 2.738282 9.914063.003906l115.171875-115.148437c1.910156-1.910156 4.457031-2.964844 7.160156-2.964844h.003906c2.703126 0 5.25 1.054688 7.160157 2.96875 1.914062 1.914063 2.96875 4.457031 2.96875 7.164063 0 2.703125-1.054688 5.25-2.96875 7.164062l-279.828125 279.769532-14.328125-14.332032 140.667969-140.636718c2.738281-2.734376 2.738281-7.175782.003906-9.914063-2.738282-2.734375-7.175782-2.734375-9.914063 0l-140.667969 140.636719-2.113281-2.113282c-6.707031-6.710937-17.625-6.710937-24.335937 0l-11.992188 11.988282-2.476562-2.476563c-3.421875-3.421875-7.96875-5.308593-12.808594-5.308593s-9.390625 1.886718-12.8125 5.304687l-8.535156 8.535156c-3.421875 3.421875-5.308594 7.972657-5.308594 12.808594 0 4.839844 1.886719 9.390625 5.304688 12.8125l4.421874 4.421875-108.796874 108.773438c-7.410157 7.40625-11.492188 17.257812-11.492188 27.734374 0 10.480469 4.078125 20.328126 11.488281 27.742188l3.351563 3.347656c7.40625 7.410156 17.257812 11.492188 27.734375 11.492188h.003906c10.476563 0 20.328125-4.078125 27.734375-11.484375l70.792969-70.777344c2.738281-2.734375 2.738281-7.175781 0-9.914063-2.738281-2.734374-7.175781-2.734374-9.914063 0l-70.792968 70.777344c-4.757813 4.757813-11.085938 7.378906-17.820313 7.378906s-13.0625-2.621093-17.824219-7.386718l-3.351562-3.347656c-4.761719-4.761719-7.382813-11.09375-7.382813-17.828126.003907-6.730468 2.625-13.058593 7.386719-17.820312l108.796875-108.773438 38.992187 39.003907-14.496093 14.492187c-2.738281 2.738282-2.738281 7.175782 0 9.914063s7.175781 2.738281 9.914062.003906l14.496094-14.496094 4.421875 4.421875c3.53125 3.53125 8.171875 5.300782 12.8125 5.300782 4.636719 0 9.273438-1.765626 12.808594-5.296876l8.535156-8.535156c7.0625-7.0625 7.0625-18.554687 0-25.621094l-2.476562-2.476562 11.992187-11.992188c6.710937-6.707031 6.710937-17.625.003906-24.335937l-2.113281-2.109375 279.832031-279.769531c4.5625-4.5625 7.074219-10.625 7.074219-17.078125zm-304.226562 353.46875-8.535157 8.535156c-1.597656 1.59375-4.199219 1.597656-5.792969-.003906l-67.664062-67.675782c-.773438-.773437-1.195312-1.800781-1.195312-2.894531s.425781-2.121093 1.199218-2.898437l8.535156-8.53125c.773438-.773438 1.800782-1.203125 2.894532-1.203125h.003906c1.09375 0 2.121094.429687 2.894531 1.203125l6.554688 6.554687c.234375.335938.496093.660157.796875.960938l52.796875 52.804687c.292969.296875.617187.558594.957031.792969l6.558594 6.5625c1.59375 1.597656 1.59375 4.195313-.003906 5.792969zm9.519531-40.089844-11.992188 11.992188-42.882812-42.894532 11.992187-11.988281c1.242188-1.242187 3.265625-1.242187 4.507813 0l38.371093 38.382813c1.246094 1.242187 1.246094 3.265624.003907 4.507812zm0 0"/></svg>