<svg height="511pt" viewBox="-22 0 511 511.99946" width="511pt" xmlns="http://www.w3.org/2000/svg"><path d="m209.09375 150.40625c-66.632812-160.386719-156.757812-142.8125-156.757812-142.8125-4.335938-.8125-8.074219 3.515625-9.050782 7.816406-2.277344 10.070313 10.101563 28.945313 13.792969 39.136719 5.789063 15.996094 12.785156 31.621094 17.265625 48.066406 3.847656 14.132813 3.199219 28.601563 4.066406 43.160157.566406 9.496093 1.136719 19.039062 3.226563 28.320312 3.472656 15.4375 8.074219 36.195312 21.976562 44.898438 8.351563 5.230468 25.320313 20.910156 35.089844 18.484374 6.28125-1.558593 79.960937-49.550781 79.960937-49.550781-4.484374-29.035156-9.570312-37.519531-9.570312-37.519531zm0 0" fill="#cecece"/><path d="m218.664062 187.929688s-5.949218 3.871093-14.617187 9.453124c-4.390625-27.011718-9.171875-35-9.171875-35-57.371094-138.089843-132.160156-144.257812-151.835938-143.300781-.082031-1.316406 0-2.542969.25-3.671875.964844-4.304687 4.710938-8.625 9.042969-7.816406 0 0 90.125-17.570312 156.757813 142.8125 0-.003906 5.089844 8.484375 9.574218 37.523438zm0 0" fill="#e7e7e7"/><path d="m190.210938 192.085938c-10.320313-26.265626-23.417969-51.726563-37.597657-76.082032-12.535156-21.527344-26.410156-42.40625-42.464843-61.484375-8.164063-9.703125-16.894532-18.976562-26.433594-27.34375-7.296875-6.402343-21.835938-17.796875-31.378906-19.582031-4.335938-.8125-8.074219 3.515625-9.050782 7.816406-2.277344 10.070313 10.101563 28.945313 13.792969 39.136719 5.789063 15.996094 12.785156 31.621094 17.265625 48.066406 3.847656 14.132813 3.199219 28.601563 4.066406 43.160157.566406 9.496093 1.136719 19.039062 3.226563 28.320312 3.472656 15.4375 8.074219 36.195312 21.976562 44.898438 8.351563 5.230468 25.320313 20.90625 35.089844 18.484374 6.28125-1.558593 15.40625-13.445312 20.222656-17.703124 2.304688-2.039063 32.054688-26.140626 31.285157-27.6875zm0 0" fill="#ffc1b8"/><path d="m151.039062 227.917969c-4.144531 4.324219-8.714843 8.65625-12.339843 9.554687-9.761719 2.425782-26.734375-13.257812-35.089844-18.480468-13.894531-8.703126-18.496094-29.457032-21.972656-44.898438-2.085938-9.285156-2.664063-18.828125-3.222657-28.320312-.867187-14.558594-.21875-29.03125-4.074218-43.15625-4.472656-16.453126-11.46875-32.074219-17.257813-48.066407-3.695312-10.191406-16.074219-29.070312-13.796875-39.144531.976563-4.300781 4.710938-8.625 9.054688-7.816406 2.117187.390625 4.472656 1.261718 6.9375 2.449218.976562 10.492188 10.78125 25.945313 13.996094 34.816407 5.789062 15.992187 12.785156 31.625 17.257812 48.066406 3.855469 14.136719 3.207031 28.601563 4.074219 43.167969.570312 9.492187 1.136719 19.035156 3.222656 28.320312 3.476563 15.433594 8.078125 36.195313 21.984375 44.890625 7.335938 4.59375 21.3125 17.25 31.226562 18.617188zm0 0" fill="#ffb3a8"/><path d="m258.730469 150.40625c66.632812-160.386719 156.757812-142.8125 156.757812-142.8125 4.335938-.8125 8.074219 3.515625 9.050781 7.816406 2.277344 10.070313-10.105468 28.945313-13.792968 39.136719-5.789063 15.996094-12.785156 31.621094-17.265625 48.066406-3.847657 14.132813-3.199219 28.601563-4.066407 43.160157-.566406 9.496093-1.136718 19.039062-3.226562 28.320312-3.472656 15.4375-8.074219 36.195312-21.976562 44.898438-8.351563 5.230468-25.320313 20.910156-35.089844 18.484374-6.285156-1.558593-79.960938-49.550781-79.960938-49.550781 4.484375-29.035156 9.570313-37.519531 9.570313-37.519531zm0 0" fill="#cecece"/><path d="m249.160156 187.929688s5.949219 3.871093 14.617188 9.453124c4.390625-27.011718 9.171875-35 9.171875-35 57.371093-138.089843 132.160156-144.257812 151.835937-143.300781.082032-1.316406 0-2.542969-.25-3.671875-.96875-4.304687-4.710937-8.625-9.042968-7.816406 0 0-90.125-17.570312-156.757813 142.8125 0-.003906-5.089844 8.484375-9.574219 37.523438zm0 0" fill="#e7e7e7"/><path d="m277.613281 192.085938c10.320313-26.265626 23.417969-51.726563 37.597657-76.082032 12.535156-21.527344 26.410156-42.40625 42.464843-61.484375 8.164063-9.703125 16.894531-18.976562 26.433594-27.34375 7.292969-6.402343 21.835937-17.796875 31.378906-19.582031 4.335938-.8125 8.074219 3.515625 9.050781 7.816406 2.277344 10.070313-10.105468 28.945313-13.792968 39.136719-5.789063 15.996094-12.785156 31.621094-17.265625 48.066406-3.847657 14.132813-3.199219 28.605469-4.066407 43.164063-.566406 9.492187-1.136718 19.039062-3.226562 28.316406-3.472656 15.441406-8.074219 36.199219-21.976562 44.898438-8.351563 5.230468-25.320313 20.910156-35.089844 18.484374-6.285156-1.558593-15.40625-13.445312-20.222656-17.703124-2.304688-2.039063-32.054688-26.140626-31.285157-27.6875zm0 0" fill="#ffc1b8"/><path d="m316.785156 227.917969c4.144532 4.324219 8.714844 8.65625 12.339844 9.554687 9.761719 2.425782 26.734375-13.257812 35.089844-18.480468 13.894531-8.703126 18.496094-29.457032 21.972656-44.898438 2.085938-9.285156 2.664062-18.828125 3.222656-28.320312.867188-14.558594.21875-29.03125 4.074219-43.15625 4.46875-16.453126 11.46875-32.074219 17.257813-48.066407 3.695312-10.191406 16.074218-29.070312 13.796874-39.144531-.976562-4.300781-4.710937-8.625-9.054687-7.816406-2.117187.390625-4.472656 1.261718-6.9375 2.449218-.976563 10.492188-10.78125 25.945313-13.996094 34.816407-5.789062 15.992187-12.789062 31.625-17.257812 48.066406-3.855469 14.136719-3.207031 28.601563-4.074219 43.167969-.570312 9.492187-1.136719 19.035156-3.222656 28.320312-3.476563 15.433594-8.078125 36.195313-21.984375 44.890625-7.335938 4.59375-21.3125 17.25-31.226563 18.617188zm0 0" fill="#ffb3a8"/><path d="m362.664062 389.347656c-2.90625-25.855468-13.890624-50.136718-21.714843-74.71875-6.40625-20.125 3.546875-37.710937 2.875-57.515625-1.285157-37.695312-18.949219-63.675781-52.984375-78.949219-30.730469-13.789062-84.003906-13.652343-114.589844.1875-33.988281 15.386719-51.566406 41.429688-52.722656 79.128907-.605469 19.804687 9.402344 37.355469 3.0625 57.503906-7.742188 24.609375-18.640625 48.925781-21.464844 74.789063-1.390625 12.75-.65625 25.671874 3.3125 37.929687 5.121094 15.808594 15.050781 25.300781 28.589844 34.289063 15.09375 10.019531 34.105468 8.328124 49.503906 18.078124 7.585938 4.800782 13.234375 12.089844 20.234375 17.707032 5.703125 4.578125 17.644531 7.097656 27.320313 7.222656 9.679687-.160156 21.613281-2.714844 27.300781-7.3125 6.980469-5.644531 12.605469-12.949219 20.175781-17.777344 15.363281-9.796875 34.382812-8.167968 49.441406-18.238281 13.507813-9.035156 23.410156-18.5625 28.476563-34.386719 3.925781-12.269531 4.617187-25.195312 3.183593-37.9375zm0 0" fill="#e7e7e7"/><path d="m359.476562 427.285156c-4.5625 14.28125-13.074218 23.433594-24.628906 31.734375 2.898438-4.367187 5.273438-9.246093 7.078125-14.871093 4.1875-13.078126 4.929688-26.863282 3.394531-40.441407-3.09375-27.570312-14.804687-53.457031-23.140624-79.660156-6.828126-21.449219 3.773437-40.203125 3.058593-61.308594-1.371093-40.1875-20.195312-67.886719-56.480469-84.171875-12.546874-5.632812-28.628906-9.089844-45.515624-10.375 24.21875-1.355468 49.71875 1.953125 67.601562 9.972656 34.035156 15.273438 51.703125 41.257813 52.976562 78.953126.679688 19.804687-9.277343 37.386718-2.863281 57.515624 7.820313 24.578126 18.804688 48.863282 21.710938 74.71875 1.433593 12.746094.738281 25.660157-3.191407 37.933594zm0 0" fill="#cecece"/><path d="m254.59375 367.335938c-.339844-3.917969-2.910156-7.378907-5.699219-10.929688-3.996093-5.09375-7.75-8.296875-14.195312-8.695312-7.082031-.441407-11.460938 3.203124-15.773438 8.695312-2.785156 3.550781-5.355469 7.011719-5.699219 10.929688-.160156 1.84375.171876 3.792968 1.210938 5.898437 1.375 2.796875 3.71875 5.113281 6.390625 6.679687 8.195313 4.800782 17.949219 4.8125 26.164063 0 2.671874-1.566406 5.015624-3.882812 6.394531-6.679687 1.039062-2.105469 1.371093-4.054687 1.207031-5.898437zm0 0" fill="#5a5c5e"/><path d="m253.382812 373.238281c-1.375 2.789063-3.71875 5.109375-6.390624 6.675781-6.875 4.03125-14.828126 4.675782-22.042969 1.964844 4.949219.277344 9.949219-.910156 14.480469-3.566406 2.675781-1.5625 5.019531-3.882812 6.394531-6.675781 1.039062-2.109375 1.375-4.054688 1.210937-5.902344-.34375-3.917969-2.914062-7.378906-5.703125-10.925781-2.503906-3.195313-4.914062-5.644532-7.953125-7.125.425782-.007813.867188.003906 1.316406.03125 6.449219.394531 10.199219 3.597656 14.199219 8.695312 2.785157 3.546875 5.355469 7.007813 5.699219 10.925782.164062 1.84375-.175781 3.792968-1.210938 5.902343zm0 0" fill="#444"/><path d="m168.824219 355.023438c0 10.816406-8.773438 19.585937-19.589844 19.585937-10.820313 0-19.589844-8.769531-19.589844-19.585937 0-10.820313 8.769531-19.589844 19.589844-19.589844 10.816406 0 19.589844 8.769531 19.589844 19.589844zm0 0" fill="#ff7a7a"/><path d="m338.179688 355.023438c0 10.816406-8.769532 19.585937-19.589844 19.585937-10.816406 0-19.589844-8.769531-19.589844-19.585937 0-10.820313 8.773438-19.589844 19.589844-19.589844 10.820312 0 19.589844 8.769531 19.589844 19.589844zm0 0" fill="#ff7a7a"/><path d="m202.308594 318.59375c0-7.394531-3.507813-13.390625-7.835938-13.390625s-7.839844 5.996094-7.839844 13.390625c0 7.398438 3.511719 13.394531 7.839844 13.394531s7.835938-5.996093 7.835938-13.394531zm0 0" fill="#111"/><path d="m281.191406 318.59375c0-7.394531-3.511718-13.390625-7.839844-13.390625-4.328124 0-7.839843 5.996094-7.839843 13.390625 0 7.398438 3.511719 13.394531 7.839843 13.394531 4.328126 0 7.839844-5.996093 7.839844-13.394531zm0 0" fill="#111"/><path d="m224.230469 445.828125c-8.84375-2.777344-13.847657-7.355469-16.476563-10.671875-1.84375-2.324219-4.933594-3.246094-7.742187-2.296875-4.574219 1.550781-6.246094 7.15625-3.261719 10.953125 4.082031 5.191406 11.25 11.601562 23.277344 15.386719 4.28125 1.34375 8.929687 2.023437 13.820312 2.023437h.128906c4.890626 0 9.539063-.679687 13.816407-2.023437 12.03125-3.785157 19.199219-10.195313 23.28125-15.386719 2.984375-3.796875 1.3125-9.402344-3.265625-10.953125-2.808594-.949219-5.898438-.027344-7.738282 2.296875-2.628906 3.316406-7.632812 7.894531-16.476562 10.671875-.863281.273437-1.765625.492187-2.683594.683594v-56.773438c3.3125-.738281 6.558594-1.988281 9.621094-3.785156 3.980469-2.332031 7.222656-5.75 9.132812-9.625 1.546876-3.136719 2.1875-6.367187 1.902344-9.601563-.542968-6.203124-4.371094-11.082031-7.167968-14.640624-4.355469-5.550782-9.707032-10.769532-19.265626-11.363282-10.804687-.6875-17.28125 5.722656-21.710937 11.363282-2.796875 3.5625-6.625 8.4375-7.167969 14.640624-.28125 3.234376.359375 6.464844 1.90625 9.605469 1.910156 3.875 5.152344 7.292969 9.132813 9.621094 3.0625 1.796875 6.308593 3.046875 9.617187 3.785156v56.773438c-.914062-.191407-1.816406-.410157-2.679687-.683594zm.136719-71.953125c-1.617188-.949219-2.949219-2.308594-3.648438-3.730469-.542969-1.097656-.554688-1.78125-.515625-2.199219.175781-2.050781 2.519531-5.035156 4.230469-7.214843 3.859375-4.914063 6.203125-6.058594 9.050781-6.058594.257813 0 .515625.007813.78125.023437 3.535156.21875 5.664063 1.628907 9.125 6.035157 1.710937 2.179687 4.050781 5.160156 4.230469 7.214843.039062.417969.023437 1.105469-.515625 2.195313-.699219 1.425781-2.03125 2.785156-3.648438 3.734375-5.871093 3.4375-13.449219 3.304688-19.089843 0zm0 0"/><path d="m464.089844 439.417969c-32.066406-20.492188-66.3125-30.722657-93.773438-35.8125.109375-4.882813-.117187-9.898438-.695312-15.039063-2.199219-19.558594-8.785156-38.117187-15.152344-56.066406-2.328125-6.566406-4.734375-13.355469-6.847656-19.992188-3.335938-10.476562-1.445313-20.605468.558594-31.324218 1.441406-7.71875 2.933593-15.695313 2.640624-24.308594-.222656-6.464844-.914062-12.625-2.058593-18.492188 4.289062-2.632812 8.472656-5.722656 12.304687-8.570312 2.613282-1.9375 5.082032-3.773438 6.859375-4.886719 8.363281-5.234375 13.515625-13.339843 17.242188-22.195312.050781-.113281.09375-.230469.144531-.34375 3.671875-8.839844 5.824219-18.402344 7.644531-26.488281l.058594-.269532c2.21875-9.855468 2.8125-19.808594 3.382813-29.4375.484374-8.105468.476562-16.167968 1.082031-24.28125.441406-5.882812 1.199219-11.753906 2.753906-17.457031 2.9375-10.785156 7.128906-21.554687 11.183594-31.972656 1.972656-5.070313 4.015625-10.316407 5.910156-15.550781.972656-2.691407 2.796875-6.398438 4.730469-10.324219 4.816406-9.789063 11.871094-21.347657 9.269531-32.730469-1.582031-6.917969-6.9375-13.121094-14.519531-13.355469-.132813-.003906-.265625.003907-.402344.003907-.246094 0-.492188-.003907-.738281.007812-8.625-1.230469-61.09375-5.542969-114.429688 61.132812-2.414062 3.019532-1.925781 7.421876 1.09375 9.835938 3.019531 2.417969 7.425781 1.925781 9.839844-1.09375 26.996094-33.746094 53.335937-47.148438 70.679687-52.449219.695313-.210937 1.378907-.410156 2.054688-.601562-2.171875 1.753906-4.023438 3.335937-5.414062 4.554687-9.066407 7.953125-17.953126 17.144532-27.171876 28.101563-14.816406 17.605469-28.933593 38.039062-43.15625 62.46875-11.195312 19.230469-20.613281 37.25-28.5 54.546875-5.996093-1.761719-12.425781-3.144532-19.105468-4.152344.113281-.390625.222656-.785156.34375-1.175781 6.78125-22.25 19.148437-44.457031 31.355468-64.265625 2.027344-3.289063 1.003907-7.601563-2.285156-9.632813-3.292968-2.027343-7.605468-1.003906-9.632812 2.285157-10.378906 16.835937-20.113282 36.113281-28.933594 57.292968-.773438 1.472656-2.691406 5.597656-4.960938 13.960938-8.953124-.632813-18.105468-.636719-27.070312-.015625-2.273438-8.359375-4.183594-12.472657-4.960938-13.945313-15.449218-37.105468-33.480468-67.886718-53.597656-91.492187-16.371094-19.203125-34.175781-33.765625-52.921875-43.273438-29.011719-14.71875-51.398437-12.824219-56.722656-12.078125-.351563-.023437-.707031-.023437-1.0625-.015625-.019531 0-.039063 0-.054687 0-8.769532.316407-14.316407 8.328125-15.011719 16.4375-.867188 10.167969 5.410156 20.882813 9.722656 29.648438 1.933594 3.925781 3.757813 7.632812 4.730469 10.324219 1.894531 5.234374 3.9375 10.480468 5.910156 15.550781 4.054688 10.417969 8.246094 21.1875 11.183594 31.972656 2.667968 9.792969 3.007812 19.902344 3.363281 30.601563.121094 3.632812.246094 7.386718.46875 11.136718.574219 9.628906 1.167969 19.582032 3.386719 29.4375l.058594.269532c1.816406 8.085937 3.972656 17.648437 7.644531 26.488281.046875.113281.09375.230469.144531.351562 2.351562 5.566407 4.960938 11.351563 9.023438 15.902344 3.996093 4.476563 10.242187 7.582031 15.078124 11.175781 3.710938 2.753906 7.75 5.742188 11.894532 8.320313-1.203125 6.058593-1.917969 12.433593-2.125 19.132812-.261719 8.609375 1.253906 16.582031 2.722656 24.292969 2.035156 10.714844 3.960938 20.835938.660156 31.324219-2.089844 6.644531-4.476562 13.445312-6.78125 20.019531-6.308594 17.96875-12.828125 36.546875-14.964844 56.113281-.542968 4.980469-.757812 9.847657-.65625 14.585938-27.460937 5.089843-61.707031 15.320312-93.777343 35.8125-3.257813 2.082031-4.210938 6.410156-2.128907 9.667969 1.335938 2.089843 3.597657 3.230468 5.90625 3.230468 1.289063 0 2.59375-.355468 3.761719-1.101562 29.542969-18.878906 61.59375-28.53125 87.550781-33.457032.707032 4.164063 1.691407 8.203126 2.957032 12.105469.75 2.316407 1.59375 4.496094 2.519531 6.566407-16.320313 5.835937-35.421875 14.210937-54.660156 26.070312-3.289063 2.03125-4.3125 6.34375-2.285157 9.632812 1.324219 2.144532 3.617188 3.328126 5.964844 3.328126 1.253906 0 2.519532-.335938 3.667969-1.042969 19.199219-11.835938 38.488281-20.0625 54.644531-25.660157 6.210938 8.113282 13.847656 13.972657 21.523438 19.070313 8.6875 5.765625 18.117187 8.019531 27.234375 10.199219 4.605469 1.101562 8.957031 2.140625 13.132812 3.601562 3.65625 1.269532 7.644531-.652344 8.917969-4.300781 1.277344-3.648437-.648438-7.640625-4.296875-8.914063-4.847656-1.695312-9.753906-2.867187-14.496094-4.003906-8.296875-1.980468-16.132812-3.855468-22.746093-8.246094-5.660157-3.757812-10.632813-7.570312-14.808594-12.007812 15.703125-4.558594 26.03125-6.136719 26.253906-6.167969 3.824219-.5625 6.46875-4.113281 5.914062-7.9375-.558593-3.824219-4.121093-6.480469-7.9375-5.917969-1.03125.152344-13.847656 2.089844-32.644531 7.851563-.96875-2.011719-1.839843-4.140625-2.582031-6.4375-1.050781-3.234375-1.839844-6.609375-2.433594-10.082031 22.65625-3.214844 38.082032-2.777344 38.417969-2.765625 3.890625.164062 7.105469-2.878907 7.246094-6.742188s-2.875-7.109375-6.738281-7.25c-1.429688-.054687-17.167969-.527343-40.085938 2.632813 0-3.515625.175781-7.113282.582031-10.804688 1.960938-17.964844 8.210938-35.777344 14.253907-52.996094 2.347656-6.679687 4.769531-13.589843 6.929687-20.453124 4.359375-13.847657 2.007813-26.199219-.265625-38.140626-1.386719-7.289062-2.695312-14.175781-2.476562-21.25 1.066406-34.773437 16.96875-58.640624 48.609374-72.964843 28.972657-13.113281 79.832032-13.199219 108.839844-.179688 31.691406 14.21875 47.671875 38.035157 48.855469 72.800781.238281 7.078126-1.046875 13.964844-2.410156 21.261719-2.234375 11.949219-4.539063 24.308594-.136719 38.140625 2.179688 6.855469 4.625 13.753906 6.992188 20.425782 6.105468 17.203124 12.414062 34.992187 14.433593 52.949218.433594 3.832032.617188 7.566406.617188 11.214844-22.921875-3.15625-38.660157-2.6875-40.089844-2.636719-3.859375.140625-6.875 3.382813-6.738281 7.246094.140625 3.859375 3.382812 6.882813 7.246094 6.746094.335937-.011719 15.75-.453125 38.402343 2.761719-.578125 3.335937-1.335937 6.578124-2.335937 9.6875-.777344 2.441406-1.699219 4.695312-2.734375 6.816406-18.757813-5.75-31.542969-7.679688-32.574219-7.832032-3.820312-.554687-7.378906 2.09375-7.9375 5.917969s2.089844 7.378907 5.917969 7.9375c.21875.03125 10.476562 1.582031 26.113281 6.113281-4.105469 4.320313-8.96875 8.0625-14.484375 11.75-6.601563 4.414063-14.429687 6.3125-22.722656 8.324219-8.867188 2.152344-18.035157 4.375-26.59375 9.832031-5.117188 3.265626-9.257813 7.335938-13.265625 11.273438-2.558594 2.511719-4.976563 4.882812-7.542969 6.960938-3.859375 3.121093-13.695313 5.589843-22.914063 5.757812-9.214843-.140625-19.058593-2.574219-22.929687-5.679688-.898437-.722656-1.824219-1.519531-2.835937-2.4375-2.867188-2.589843-7.292969-2.375-9.890626.488282-2.59375 2.867187-2.375 7.292968.488282 9.886718 1.222656 1.105469 2.355468 2.082032 3.476562 2.976563 7.804688 6.265625 21.90625 8.636719 31.613282 8.765625h.09375.113281c9.707031-.160156 23.800781-2.578125 31.585937-8.867188 3.09375-2.503906 5.867188-5.230468 8.550782-7.863281 3.652343-3.589843 7.105468-6.980469 10.984374-9.457031 6.59375-4.203125 14.257813-6.0625 22.367188-8.03125 9.113281-2.210938 18.539062-4.496094 27.203125-10.289062 7.546875-5.050782 15.054687-10.839844 21.1875-18.789063 16.160156 5.59375 35.480469 13.832031 54.757813 25.714844 1.144531.707031 2.414062 1.042969 3.667968 1.042969 2.347656 0 4.640625-1.183594 5.964844-3.328126 2.027344-3.292968 1.003906-7.601562-2.285156-9.632812-19.261719-11.871094-38.386719-20.257812-54.722656-26.09375.988281-2.195312 1.890624-4.515625 2.679687-6.984375 1.207031-3.765625 2.152344-7.660156 2.839844-11.667969 25.960937 4.925782 58.019531 14.578125 87.570312 33.460938 1.167969.746094 2.472657 1.101562 3.761719 1.101562 2.308594 0 4.570312-1.140625 5.90625-3.230468 2.082031-3.257813 1.128906-7.585938-2.128906-9.667969zm-290.730469-267.441407c-25.40625 11.503907-42.382813 28.921876-50.769531 51.972657-2.925782-1.992188-5.636719-4-7.484375-5.375-2.964844-2.203125-5.527344-4.105469-7.777344-5.515625-4.714844-2.949219-8.210937-7.984375-10.917969-13.859375-3.808594-8.265625-6.046875-18.203125-7.882812-26.375l-.0625-.265625c-1.96875-8.75-2.527344-18.128906-3.066406-27.199219-.214844-3.570313-.335938-7.230469-.453126-10.773437-.371093-11.03125-.75-22.441407-3.847656-33.8125-3.132812-11.5-7.460937-22.617188-11.644531-33.371094-1.945313-4.996094-3.957031-10.160156-5.792969-15.238282-1.238281-3.417968-3.226562-7.460937-5.332031-11.738281-3.464844-7.042969-9.265625-18.832031-8.21875-23.46875.066406-.28125.15625-.546875.261719-.796875.050781-.117187.117187-.21875.171875-.332031.0625-.121094.121093-.25.1875-.355469.066406-.105468.128906-.183594.195312-.273437.066407-.09375.132813-.199219.199219-.277344.058594-.074219.109375-.117187.167969-.175781.0625-.0625.128906-.140625.183593-.183594 6.734376 1.519531 18.644532 9.996094 27.621094 17.871094 8.527344 7.484375 16.933594 16.183594 25.695313 26.589844 14.289062 16.980468 27.953125 36.773437 41.769531 60.5 10.722656 18.417968 19.765625 35.675781 27.355469 52.210937-.179688.085937-.375.160156-.558594.242187zm13.769531-5.007812c-7.882812-17.28125-17.285156-35.28125-28.46875-54.488281-14.222656-24.429688-28.34375-44.863281-43.15625-62.46875-9.21875-10.953125-18.105468-20.144531-27.175781-28.101563-1.371094-1.203125-3.199219-2.761718-5.332031-4.488281 30.453125 8.671875 79.210937 38.375 119.632812 135.671875.152344.367188.222656.539062.425782.859375.203124.394531 1.480468 2.976563 3.203124 8.90625-6.675781.996094-13.113281 2.367187-19.128906 4.109375zm158.332032 56.832031c-.195313.136719-.394532.269531-.589844.402344-8.367188-23.289063-25.425782-40.835937-51.015625-52.355469 7.601562-16.574218 16.65625-33.863281 27.40625-52.320312 13.816406-23.730469 27.476562-43.519532 41.769531-60.503906 8.757812-10.40625 17.164062-19.105469 25.695312-26.589844 8.976563-7.875 20.882813-16.351563 27.621094-17.871094.054688.046875.121094.121094.183594.1875.054688.054688.105469.101562.167969.171875.0625.078125.132812.183594.199219.277344.0625.089843.128906.167969.191406.273437.066406.109375.125.238282.1875.355469.058594.113281.121094.214844.171875.335937.109375.246094.199219.515626.261719.792969 1.050781 4.636719-4.75 16.425781-8.21875 23.46875-2.101563 4.28125-4.09375 8.320313-5.328126 11.738281-1.839843 5.078126-3.851562 10.246094-5.792968 15.242188-4.1875 10.75-8.515625 21.871094-11.644532 33.367188-3.097656 11.371093-3.480468 22.78125-3.847656 33.816406-.121094 3.539062-.242187 7.203125-.453125 10.769531-.542969 9.070313-1.101562 18.449219-3.070312 27.199219l-.058594.265625c-1.839844 8.175781-4.078125 18.109375-7.886719 26.378906-2.703125 5.875-6.203125 10.90625-10.914062 13.855469-2.25 1.410156-4.8125 3.3125-7.78125 5.519531-1.785156 1.324219-4.378906 3.25-7.195313 5.183594-.019531.011719-.039062.027343-.058593.039062zm0 0"/></svg>