<svg height="480pt" viewBox="0 0 480 480" width="480pt" xmlns="http://www.w3.org/2000/svg"><path d="m368 0h16v448h-16zm0 0" fill="#edaa72"/><path d="m368 416h16v64h-16zm0 0" fill="#edaa72"/><path d="m104 0h16v408h-16zm0 0" fill="#edaa72"/><path d="m128 160h-16c-26.507812 0-48-21.492188-48-48h16c26.507812 0 48 21.492188 48 48zm0 0" fill="#e97424"/><path d="m200 16h56v16h-56zm0 0" fill="#f3bb59"/><path d="m184 48h56v16h-56zm0 0" fill="#f3bb59"/><path d="m184 72h-64l-16-48h96zm0 0" fill="#e97424"/><path d="m64 24v48h56l-16-48zm0 0" fill="#f3bb59"/><path d="m56 24c-26.507812 0-48 21.492188-48 48h56v-48zm0 0" fill="#e97424"/><path d="m8 72h56v40h-24c-17.671875 0-32-14.328125-32-32zm0 0" fill="#f3bb59"/><path d="m144 24h16v24h-16zm0 0" fill="#426d78"/><path d="m352 232h16c26.507812 0 48-21.492188 48-48h-16c-26.507812 0-48 21.492188-48 48zm0 0" fill="#e97424"/><path d="m224 88h56v16h-56zm0 0" fill="#f3bb59"/><path d="m240 120h56v16h-56zm0 0" fill="#f3bb59"/><path d="m296 144h64l16-48h-96zm0 0" fill="#e97424"/><path d="m416 96v48h-56l16-48zm0 0" fill="#f3bb59"/><path d="m424 96c26.507812 0 48 21.492188 48 48h-56v-48zm0 0" fill="#e97424"/><path d="m440 184h-24v-40h56v8c0 17.671875-14.328125 32-32 32zm0 0" fill="#f3bb59"/><path d="m320 96h16v24h-16zm0 0" fill="#426d78"/><path d="m128 336h-16c-26.507812 0-48-21.492188-48-48h16c26.507812 0 48 21.492188 48 48zm0 0" fill="#e97424"/><path d="m200 192h56v16h-56zm0 0" fill="#f3bb59"/><path d="m184 224h56v16h-56zm0 0" fill="#f3bb59"/><path d="m184 248h-64l-16-48h96zm0 0" fill="#e97424"/><path d="m64 200v48h56l-16-48zm0 0" fill="#f3bb59"/><path d="m56 200c-26.507812 0-48 21.492188-48 48h56v-48zm0 0" fill="#e97424"/><path d="m8 248h56v40h-24c-17.671875 0-32-14.328125-32-32zm0 0" fill="#f3bb59"/><path d="m144 200h16v24h-16zm0 0" fill="#426d78"/><path d="m352 416h16c26.507812 0 48-21.492188 48-48h-16c-26.507812 0-48 21.492188-48 48zm0 0" fill="#e97424"/><path d="m224 272h56v16h-56zm0 0" fill="#f3bb59"/><path d="m240 304h56v16h-56zm0 0" fill="#f3bb59"/><path d="m296 328h64l16-48h-96zm0 0" fill="#e97424"/><path d="m416 280v48h-56l16-48zm0 0" fill="#f3bb59"/><path d="m424 280c26.507812 0 48 21.492188 48 48h-56v-48zm0 0" fill="#e97424"/><path d="m440 368h-24v-40h56v8c0 17.671875-14.328125 32-32 32zm0 0" fill="#f3bb59"/><path d="m320 280h16v24h-16zm0 0" fill="#426d78"/><path d="m104 336h16v144h-16zm0 0" fill="#edaa72"/><g fill="#dd3e46"><path d="m306.347656 37.660156 11.3125-11.3125 15.996094 15.996094-11.3125 11.3125zm0 0"/><path d="m154.347656 125.660156 11.3125-11.3125 16 15.996094-11.316406 11.316406zm0 0"/><path d="m290.347656 218.339844 15.996094-15.996094 11.316406 11.3125-16 15.996094zm0 0"/><path d="m410.339844 34.339844 16-15.996094 11.3125 11.3125-16 15.996094zm0 0"/><path d="m154.339844 285.65625 11.3125-11.316406 16 16-11.3125 11.3125zm0 0"/><path d="m298.339844 373.65625 11.316406-11.3125 15.996094 15.996094-11.3125 11.316406zm0 0"/></g><path d="m424 88h-40v-88h-16v88h-144v16h50.230469l5.335937 16h-39.566406v16h44.894531l3.511719 10.527344c1.089844 3.269531 4.148438 5.472656 7.59375 5.472656h72v34.113281c-15.023438 10.449219-23.988281 27.585938-24 45.886719 0 4.417969 3.582031 8 8 8h16v32h-144v16h50.230469l5.335937 16h-39.566406v16h44.894531l3.511719 10.527344c1.089844 3.269531 4.148438 5.472656 7.59375 5.472656h72v34.113281c-15.023438 10.449219-23.988281 27.585938-24 45.886719 0 4.417969 3.582031 8 8 8h16v56h16v-58.398438c20.859375-6.269531 36.207031-24.050781 39.359375-45.601562h16.640625c22.082031-.027344 39.972656-17.917969 40-40v-8c-.035156-30.914062-25.085938-55.964844-56-56h-40v-34.398438c20.859375-6.269531 36.207031-24.050781 39.359375-45.601562h16.640625c22.082031-.027344 39.972656-17.917969 40-40v-8c-.035156-30.914062-25.085938-55.964844-56-56zm-132.902344 200h28.902344v16h16v-16h28.894531l-10.664062 32h-52.460938zm76.902344 120h-7.199219c3.824219-18.613281 20.199219-31.980469 39.199219-32h7.199219c-3.824219 18.613281-20.199219 31.980469-39.199219 32zm32-48c-5.421875.015625-10.8125.824219-16 2.398438v-26.398438h24v24zm40 0h-16v-24h40c0 13.253906-10.746094 24-24 24zm23.199219-40h-39.199219v-32c19 .019531 35.375 13.386719 39.199219 32zm-55.199219-32v32h-36.894531l10.664062-32zm55.199219-152h-39.199219v-32c19 .019531 35.375 13.386719 39.199219 32zm-55.199219 0h-36.894531l10.664062-32h26.230469zm-116.902344-32h28.902344v16h16v-16h28.894531l-10.664062 32h-52.460938zm76.902344 120h-7.199219c3.824219-18.613281 20.199219-31.980469 39.199219-32h7.199219c-3.824219 18.613281-20.199219 31.980469-39.199219 32zm32-48c-5.421875.015625-10.8125.824219-16 2.398438v-26.398438h24v24zm40 0h-16v-24h40c0 13.253906-10.746094 24-24 24zm0 0"/><path d="m56 192c-30.914062.035156-55.9648438 25.085938-56 56v8c.0273438 22.082031 17.917969 39.972656 40 40h16.640625c3.566406 24.527344 22.832031 43.792969 47.359375 47.359375v136.640625h16v-136h8c4.417969 0 8-3.582031 8-8 .003906-14.632812-5.742188-28.679688-16-39.113281v-40.886719h64c3.445312 0 6.503906-2.203125 7.59375-5.472656l3.511719-10.527344h44.894531v-16h-39.566406l5.335937-16h50.230469v-16h-136v-24h8c4.417969 0 8-3.582031 8-8 .003906-14.632812-5.742188-28.679688-16-39.113281v-40.886719h64c3.445312 0 6.503906-2.203125 7.59375-5.472656l3.511719-10.527344h44.894531v-16h-39.566406l5.335937-16h50.230469v-16h-136v-16h-16v16h-48c-30.914062.035156-55.9648438 25.085938-56 56v8c.0273438 22.082031 17.917969 39.972656 40 40h16.640625c3.566406 24.527344 22.832031 43.792969 47.359375 47.359375v24.640625zm16-160h26.230469l10.664062 32h-36.894531zm106.230469 32h-52.460938l-10.664062-32h28.894531v16h16v-16h28.902344zm-122.230469-32v32h-39.199219c3.824219-18.613281 20.199219-31.980469 39.199219-32zm-40 48h40v24h-16c-13.253906 0-24-10.746094-24-24zm56 24v-24h32v29.480469c-7.488281-3.597657-15.691406-5.46875-24-5.480469zm.800781 16h7.199219c19 .019531 35.375 13.386719 39.199219 32h-7.199219c-19-.019531-35.375-13.386719-39.199219-32zm-.800781 88h26.230469l10.664062 32h-36.894531zm-16 0v32h-39.199219c3.824219-18.613281 20.199219-31.980469 39.199219-32zm-40 48h40v24h-16c-13.253906 0-24-10.746094-24-24zm56.800781 40h7.199219c19 .019531 35.375 13.386719 39.199219 32h-7.199219c-19-.019531-35.375-13.386719-39.199219-32zm31.199219-10.519531c-7.488281-3.597657-15.691406-5.46875-24-5.480469h-8v-24h32zm74.230469-45.480469h-52.460938l-10.664062-32h28.894531v16h16v-16h28.902344zm0 0"/><path d="m306.347656 37.660156 11.3125-11.3125 15.996094 15.996094-11.3125 11.3125zm0 0"/><path d="m154.347656 125.660156 11.3125-11.3125 16 15.996094-11.316406 11.316406zm0 0"/><path d="m290.347656 218.339844 15.996094-15.996094 11.316406 11.3125-16 15.996094zm0 0"/><path d="m410.339844 34.339844 16-15.996094 11.3125 11.3125-16 15.996094zm0 0"/><path d="m154.339844 285.65625 11.3125-11.316406 16 16-11.3125 11.3125zm0 0"/><path d="m298.339844 373.65625 11.316406-11.3125 15.996094 15.996094-11.3125 11.316406zm0 0"/></svg>