<svg height="480pt" viewBox="0 -50 480 480" width="480pt" xmlns="http://www.w3.org/2000/svg"><path d="m120 132.800781c-28.238281 1.597657-112 16-112 16v96s83.742188 14.824219 112 16c61.886719 2.574219 247.351562-14.554687 247.351562-14.554687 6.402344-.375 12.675782 1.90625 17.339844 6.304687 4.664063 4.398438 7.308594 10.527344 7.308594 16.9375.007812 6.179688-2.441406 12.109375-6.808594 16.480469-4.367187 4.375-10.292968 6.832031-16.472656 6.832031h-56.71875c-17.671875 0-32 14.324219-32 32 0 17.671875 14.328125 32 32 32h80c44.183594 0 80-35.816406 80-80v-51.554687c0-42.773438-29.273438-82.503906-72-84.445313 0 0-210.078125-12-280-8zm0 0" fill="#dd3e46"/><path d="m64 164.800781h16v16h-16zm0 0" fill="#394d5c"/><path d="m64 204.800781h16v16h-16zm0 0" fill="#394d5c"/><path d="m33.246094 177.097656c-1.085938-1.722656-26.550782-42.402344-11.636719-78.859375 9.101563-22.238281 30.832031-37.4375 64.589844-45.238281 61.328125-14.144531 73.265625-30.214844 75.554687-36.472656.960938-2.21875.90625-4.75-.152344-6.925782l12.796876-9.601562c4.398437 6.488281 5.296874 14.734375 2.402343 22.015625-7.015625 19.199219-36.28125 34.878906-86.976562 46.585937-28.367188 6.542969-46.320313 18.535157-53.359375 35.636719-11.808594 28.730469 10.085937 63.921875 10.320312 64.28125zm0 0" fill="#6a9eaa"/><path d="m118.398438 377.601562-12.796876-9.601562c.65625-.96875 17.597657-26.824219-38.402343-68.800781-27.152344-20.359375-41.648438-40.941407-43.078125-61.175781-.96875-11.257813 2.726562-22.421876 10.222656-30.878907l11.3125 11.3125-5.65625-5.65625 5.726562 5.597657c-4.34375 5.285156-6.363281 12.101562-5.597656 18.898437 1.269532 15.078125 13.960938 32.0625 36.695313 49.117187 69.574219 52.1875 42.75 89.585938 41.574219 91.1875zm0 0" fill="#6a9eaa"/><g fill="#394d5c"><path d="m108.121094 187.65625-8.242188-13.710938c10.453125-4.984374 18.59375-13.789062 22.738282-24.601562 1.113281-4.097656.632812-8.464844-1.34375-12.222656l13.382812-8.761719c4.332031 7.261719 5.644531 15.933594 3.65625 24.152344-2.945312 13.089843-13.105469 24.886719-30.191406 35.144531zm0 0"/><path d="m143.886719 262.113281-15.773438-2.625c2.792969-10.203125 1-21.117187-4.914062-29.886719-5.035157-5.335937-11.953125-8.492187-19.277344-8.800781l.078125-16c11.964844.359375 23.277344 5.554688 31.34375 14.398438 8.710938 10.25 11.585938 24.695312 8.542969 42.914062zm0 0"/><path d="m183.886719 262.113281-15.773438-2.625c2.472657-14.871093 1-26.128906-4.28125-32.527343-2.980469-3.585938-7.285156-5.8125-11.9375-6.160157l.105469-16c9.238281.347657 17.90625 4.566407 23.878906 11.625 8.664063 10.222657 11.359375 25.597657 8.007813 45.6875zm0 0"/><path d="m304 92.800781h16v16c0 17.671875-14.328125 32-32 32h-16v-16c0-17.675781 14.328125-32 32-32zm0 0"/><path d="m256 276.800781h-32v16c0 17.671875 14.328125 32 32 32-17.671875 0-32 14.324219-32 32v16h32c17.671875 0 32-14.328125 32-32v-32c0-17.675781-14.328125-32-32-32zm0 0"/><path d="m146.96875 188.230469-5.9375-14.863281c33.136719-13.246094 27.464844-37.597657 27.199219-38.632813l15.523437-3.871094c3.367188 13.410157-.011718 42.65625-36.785156 57.367188zm0 0"/></g><path d="m360 196.800781s-60.65625 16-96 16c-22.277344-.371093-44.171875-5.84375-64-16 19.828125-10.15625 41.722656-15.632812 64-16 35.34375 0 96 16 96 16zm0 0" fill="#fff"/><path d="m336 292.800781h16v24h-16zm0 0" fill="#394d5c"/><path d="m312 332.800781h16v24h-16zm0 0" fill="#394d5c"/><path d="m376 332.800781h16v24h-16zm0 0" fill="#394d5c"/><path d="m400 300.800781h16v16h-16zm0 0" fill="#394d5c"/><path d="m432 268.800781h16v16h-16zm0 0" fill="#394d5c"/><path d="m408 236.800781h16v16h-16zm0 0" fill="#394d5c"/><path d="m400.457031 132.800781c-3.320312-.191406-35.5625-2.007812-77.863281-3.945312 3.542969-6.089844 5.410156-13.007813 5.40625-20.054688v-24h-24c-22.082031.027344-39.972656 17.917969-40 40v1.597657c-55.257812-2.039063-113.246094-3.375-144.457031-1.597657-18.191407 1.03125-58.046875 7.109375-85.222657 11.503907-2.4375-10.671876-1.703124-21.824219 2.121094-32.082032 7.039063-17.101562 24.992188-29.09375 53.359375-35.636718 50.695313-11.707032 79.960938-27.378907 86.976563-46.585938 2.894531-7.273438 2.003906-15.511719-2.378906-22l-12.796876 9.601562c1.058594 2.175782 1.113282 4.707032.152344 6.925782-2.289062 6.257812-14.226562 22.328125-75.554687 36.472656-33.757813 7.800781-55.488281 23-64.597657 45.238281-4.957031 12.972657-6.042968 27.105469-3.121093 40.683594-6.703125 1.109375-11.097657 1.871094-11.839844 2-3.835937.660156-6.640625 3.984375-6.640625 7.878906v96c.00390625 3.875 2.785156 7.191407 6.601562 7.871094 1.09375.199219 10.015626 1.769531 22.574219 3.863281 8.980469 17.128906 22.039063 31.78125 38.023438 42.664063 56 41.976562 39.058593 67.832031 38.402343 68.800781l12.796876 9.601562c1.175781-1.601562 28-39-41.597657-91.203124-10.351562-7.429688-19.519531-16.378907-27.199219-26.542969 25.246094 4 55.039063 8.3125 70.09375 8.9375 61.746094 2.558593 240.800782-13.871094 248.160157-14.554688 5.585937-.359375 10.917969 2.363281 13.910156 7.089844 2.992187 4.730469 3.160156 10.714844.441406 15.609375-2.71875 4.890625-7.890625 7.90625-13.488281 7.863281h-56.71875c-7.246094.035157-14.34375 2.054688-20.519531 5.847657-6.816407-13.339844-20.5-21.769532-35.480469-21.847657h-40v24c.035156 12.640625 6.0625 24.511719 16.246094 32-10.183594 7.484375-16.210938 19.359375-16.246094 32v24h40c14.980469-.082031 28.664062-8.507812 35.480469-21.847656 6.175781 3.789063 13.273437 5.8125 20.519531 5.847656h80c48.578125-.058593 87.941406-39.421875 88-88v-51.554687c0-49.796875-34.976562-90.40625-79.542969-92.445313zm-120.457031-8c0-13.253906 10.746094-24 24-24h8v8c-.011719 7.621094-3.699219 14.769531-9.902344 19.199219-7.203125-.3125-14.59375-.617188-22.097656-.921875zm-48 168v-8h24c10.699219.054688 20.074219 7.1875 22.976562 17.488281-3.007812 4.375-5.109374 9.308594-6.175781 14.511719h-16.800781c-13.253906 0-24-10.746093-24-24zm24 72h-24v-8c0-13.253906 10.746094-24 24-24h16.800781c1.066407 5.199219 3.160157 10.136719 6.167969 14.511719-2.902344 10.296875-12.269531 17.429688-22.96875 17.488281zm208-88c-.042969 39.746094-32.253906 71.957031-72 72v-16h-16v16h-48v-16h-16v16c-13.253906 0-24-10.746093-24-24 0-13.253906 10.746094-24 24-24h24v16h16v-16h16.71875c11.40625-.039062 21.882812-6.28125 27.351562-16.289062 5.46875-10.007813 5.058594-22.195313-1.070312-31.8125-6.128906-9.617188-17.003906-15.140625-28.382812-14.410157-1.378907.125-104.28125 9.550782-181.5625 13.277344 1.648437-12.460937-1.644532-25.074218-9.175782-35.140625-5.972656-7.058593-14.640625-11.277343-23.878906-11.625l-.105469 16c4.652344.347657 8.957031 2.574219 11.9375 6.160157 4.800781 7.503906 6.601563 16.539062 5.046875 25.3125-8.550781.328124-16.605468.566406-24 .6875 1.375-12.070313-2.050781-24.195313-9.535156-33.761719-8.066406-8.84375-19.378906-14.039063-31.34375-14.398438l-.054688 16c7.328126.308594 14.246094 3.464844 19.277344 8.800781 4.8125 6.78125 6.796875 15.171876 5.539063 23.390626-2.992188-.039063-5.859375-.097657-8.433594-.199219-16.433594-.679688-52.71875-6.199219-79.351563-10.546875-.414062-1.636719-.707031-3.300782-.871093-4.980469-.765625-6.796875 1.253906-13.613281 5.597656-18.898437l-5.703125-5.566407-5.65625-5.65625c-7.496094 8.457031-11.191406 19.621094-10.222656 30.878907 0 .488281.167968.984374.214844 1.472656l-8.335938-1.425782v-82.511718l6.695312-1.117188c2.714844 7.898438 6.25 15.492188 10.550782 22.65625l13.515625-8.578125c-3.160157-5.316406-5.839844-10.90625-8-16.703125 26.839843-4.3125 64.757812-10.074218 81.695312-11.015625l2.191407-.105469c.703124 2.847657.703124 5.820313 0 8.664063-4.144532 10.8125-12.285157 19.621094-22.738282 24.601563l8.242188 13.710937c17.085937-10.257813 27.246094-22.078125 30.191406-35.144531.914062-4.050782 1.078125-8.234375.480469-12.34375 8.953125-.160156 19.03125-.191406 29.953125-.105469 0 8.128906-3.5625 23.648437-27.714844 33.304687l5.9375 14.863282c29.601562-11.855469 37.601562-33.132813 37.777344-48 88.320312 1.417968 213.199218 8.441406 214.886718 8.539062 40.257813 1.847656 64.335938 40.320313 64.335938 76.460938zm0 0"/><path d="m64 164.800781h16v16h-16zm0 0"/><path d="m64 204.800781h16v16h-16zm0 0"/><path d="m362.039062 189.0625c-2.519531-.664062-62.039062-16.261719-98.039062-16.261719-23.644531.339844-46.886719 6.167969-67.894531 17.015625-2.53125 1.414063-4.101563 4.085938-4.101563 6.984375 0 2.898438 1.570313 5.570313 4.101563 6.984375 21.007812 10.847656 44.25 16.671875 67.894531 17.015625 36 0 95.519531-15.601562 98.039062-16.265625 3.515626-.925781 5.960938-4.101562 5.960938-7.734375 0-3.632812-2.445312-6.8125-5.960938-7.738281zm-98.039062 15.738281c-14.964844-.191406-29.789062-2.894531-43.855469-8 14.066407-5.105469 28.890625-7.8125 43.855469-8 20.332031.84375 40.546875 3.519531 60.398438 8-19.851563 4.476563-40.066407 7.15625-60.398438 8zm0 0"/><path d="m400 300.800781h16v16h-16zm0 0"/><path d="m432 268.800781h16v16h-16zm0 0"/><path d="m408 236.800781h16v16h-16zm0 0"/></svg>