<svg height="512pt" viewBox="-1 0 512 512.00026" width="512pt" xmlns="http://www.w3.org/2000/svg"><path d="m144.730469 279.101562 196.761719-267.550781c3.648437-4.964843 10.632812-6.03125 15.597656-2.378906l143.15625 105.28125c4.800781 3.53125 5.980468 10.210937 2.675781 15.171875l-50.730469 76.191406c-25.71875 38.621094-53.226562 76.023438-82.429687 112.082032l-57.613281 71.128906c-3.75 4.632812-10.476563 5.5-15.28125 1.96875zm0 0" fill="#bfbfbf"/><path d="m369.761719 317.902344-57.617188 71.128906c-3.742187 4.625-10.472656 5.5-15.28125 1.960938l-27.089843-19.921876c4.796874 3.453126 11.464843 2.566407 15.195312-2.023437l57.605469-71.136719c29.210937-36.054687 56.722656-73.460937 82.433593-112.085937l50.738282-76.1875c3.300781-4.96875 2.121094-11.644531-2.679688-15.171875l27.175782 19.984375c4.808593 3.535156 5.988281 10.210937 2.679687 15.171875l-50.726563 76.195312c-25.722656 38.621094-53.234374 76.027344-82.433593 112.085938zm0 0" fill="#e7e7e7"/><path d="m369.761719 317.90625-57.613281 71.128906c-3.742188 4.625-10.472657 5.496094-15.28125 1.960938l-11.859376-8.71875c4.808594 3.535156 11.542969 2.664062 15.285157-1.960938l57.613281-71.132812c29.203125-36.058594 56.710938-73.464844 82.433594-112.085938l50.726562-76.191406c3.308594-4.960938 2.128906-11.636719-2.679687-15.175781l11.859375 8.722656c4.804687 3.535156 5.988281 10.210937 2.679687 15.171875l-50.730469 76.191406c-25.71875 38.621094-53.230468 76.027344-82.433593 112.089844zm0 0" fill="#cecece"/><path d="m377.628906 66.042969c0 7.992187-6.480468 14.472656-14.472656 14.472656s-14.472656-6.480469-14.472656-14.472656c0-7.996094 6.480468-14.476563 14.472656-14.476563s14.472656 6.480469 14.472656 14.476563zm0 0" fill="#e7e7e7"/><path d="m374.816406 74.617188c-4.738281 6.445312-13.792968 7.816406-20.234375 3.078124-4.164062-3.0625-6.210937-7.933593-5.851562-12.734374.734375.894531 1.601562 1.710937 2.574219 2.425781 6.441406 4.738281 15.503906 3.355469 20.234374-3.078125 1.675782-2.277344 2.578126-4.875 2.773438-7.5 4.144531 5.003906 4.523438 12.347656.503906 17.808594zm0 0" fill="#cecece"/><path d="m363.128906 87.503906c-4.417968 0-8.871094-1.351562-12.691406-4.164062-4.621094-3.398438-7.644531-8.390625-8.507812-14.0625-.863282-5.667969.53125-11.335938 3.929687-15.957032 7.015625-9.539062 20.480469-11.59375 30.019531-4.578124 4.621094 3.398437 7.640625 8.394531 8.503906 14.0625.867188 5.671874-.53125 11.335937-3.929687 15.957031-4.203125 5.714843-10.722656 8.742187-17.324219 8.742187zm.039063-28.9375c-2.300781 0-4.570313 1.054688-6.035157 3.046875-1.183593 1.605469-1.667968 3.582031-1.367187 5.554688.300781 1.976562 1.351563 3.714843 2.960937 4.894531 3.320313 2.441406 8.011719 1.730469 10.453126-1.59375 1.183593-1.605469 1.667968-3.582031 1.367187-5.554688-.300781-1.972656-1.351563-3.710937-2.960937-4.894531-1.332032-.980469-2.882813-1.453125-4.417969-1.453125zm0 0"/><path d="m144.730469 279.101562-30.726563 41.777344 34.257813 25.191406 8.953125-7.714843c6.882812-5.925781 16.492187-7.527344 24.925781-4.152344 4.367187 1.75 9.367187.324219 12.152344-3.464844l7.246093-9.851562zm0 0" fill="#bc7d53"/><path d="m201.539062 320.890625-7.242187 9.847656c-2.785156 3.789063-7.792969 5.21875-12.15625 3.476563-8.429687-3.386719-18.042969-1.785156-24.933594 4.144531l-8.949219 7.714844-11.183593-8.222657c.042969.027344 5.289062-6.664062 5.722656-7.210937 2.53125-3.191406 5.585937-5.664063 9.28125-7.449219 5.632813-2.730468 12.527344-3.984375 18.730469-2.925781 5.5.941406 12.746094 1.378906 17.28125-2.636719.527344-.464844 3.726562-3.855468 2.871094-4.515625.003906 0 10.578124 7.777344 10.578124 7.777344zm0 0" fill="#af663e"/><path d="m114.003906 320.878906-101.371094 137.839844c-9.507812 12.925781-6.734374 31.113281 6.195313 40.621094 14.988281 11.023437 36.332031 5.3125 43.816406-11.722656l2.542969-5.789063c7.621094-17.347656 17.9375-33.378906 30.570312-47.503906l8.394532-9.386719c12.898437-14.417969 23.378906-30.824219 31.042968-48.582031l13.066407-30.285157zm0 0" fill="#bc7d53"/><path d="m59.421875 493.203125c-9.246094 12.570313-27.390625 15.847656-40.59375 6.136719-1.925781-1.414063-3.621094-3.015625-5.078125-4.785156 12.246094 5.109374 26.613281 1.152343 34.503906-9.578126 1.246094-1.695312 2.316406-3.554687 3.214844-5.578124l2.539062-5.792969c7.617188-17.347657 17.9375-33.378907 30.566407-47.503907l8.394531-9.382812c12.898438-14.414062 23.382812-30.828125 31.039062-48.59375l13.066407-30.277344 11.183593 8.226563-13.066406 30.277343c-7.65625 17.765626-18.148437 34.167969-31.039062 48.59375l-8.394532 9.378907c-12.636718 14.121093-22.949218 30.15625-30.566406 47.507812l-2.550781 5.78125c-.882813 2.03125-1.972656 3.898438-3.21875 5.589844zm0 0" fill="#af663e"/><path d="m510.902344 129.027344c.035156-.105469.082031-.207032.113281-.3125.035156-.113282.054687-.226563.085937-.339844.914063-3.214844.917969-6.585938.050782-9.742188-1.042969-3.808593-3.335938-7.300781-6.761719-9.820312l-48.644531-35.773438c-3.113282-2.289062-7.492188-1.621093-9.78125 1.492188-2.292969 3.113281-1.625 7.496094 1.488281 9.785156l21.460937 15.78125c.003907 0 .003907.003906.003907.003906l.011719.007813c1.785156 1.320313 2.21875 3.804687.992187 5.648437l-50.738281 76.1875c-25.488282 38.292969-53.09375 75.824219-82.046875 111.558594l-57.597657 71.128906c-1.382812 1.703126-3.855468 2.042969-5.644531.78125l-116.253906-85.5-3.128906-2.300781 31.304687-42.566406c2.289063-3.113281 1.621094-7.492187-1.492187-9.78125-3.113281-2.292969-7.496094-1.625-9.785157 1.488281l-66.167968 89.976563s0 .003906-.003906.003906l-101.371094 137.839844c-11.777344 16.015625-8.332032 38.625 7.683594 50.402343 6.28125 4.621094 13.71875 7.023438 21.304687 7.023438 3.121094 0 6.273437-.410156 9.375-1.238281 10.628906-2.84375 19.265625-10.253907 23.691406-20.328125l2.542969-5.789063c7.335938-16.699219 17.21875-32.058593 29.378906-45.65625l8.394532-9.386719c13.425781-15.007812 24.277343-31.988281 32.25-50.476562l12.429687-28.804688 7.734375-6.660156c4.921875-4.242187 11.722656-5.375 17.753906-2.960937 7.332032 2.9375 15.71875.546875 20.394532-5.816407l3.101562-4.214843 62.542969 46c.019531.011719.035156.027343.050781.042969l27.089844 19.921874c3.246094 2.382813 7.019531 3.542969 10.761718 3.542969 4.632813 0 9.21875-1.773437 12.691407-5.183593.496093-.484376.96875-1.003907 1.417969-1.558594l19.179687-23.683594 38.429687-47.441406c6.71875-8.296875 52.761719-68.789063 68.25-91.1875 4.917969-7.117188 9.792969-14.253906 14.570313-21.425782l26.296875-39.5 24.433594-36.691406c.945312-1.421875 1.65625-2.925781 2.15625-4.476562zm-220.492188 244.421875 57.601563-71.132813c29.230469-36.074218 57.09375-73.960937 82.820312-112.613281l50.746094-76.195313c.625-.945312 1.152344-1.925781 1.585937-2.933593l10.417969 7.664062 2.515625 1.847657c1.796875 1.320312 2.234375 3.804687 1 5.65625l-22.53125 33.84375-28.199218 42.351562c-5.039063 7.566406-10.183594 15.09375-15.382813 22.59375-15.269531 22.035156-31.1875 43.742188-47.625 64.925781-6.277344 8.085938-12.613281 16.113281-19.03125 24.035157l-37.835937 46.710937-19.785157 24.425781c-.171875.214844-.363281.40625-.566406.578125-1.441406 1.199219-3.554687 1.304688-5.121094.148438l-12.941406-9.519531c.832031-.707032 1.613281-1.503907 2.332031-2.386719zm-161.640625.132812c-7.378906 17.097657-17.414062 32.808594-29.832031 46.691407l-8.394531 9.386718c-13.148438 14.695313-23.835938 31.300782-31.765625 49.355469l-2.542969 5.789063c-2.707031 6.164062-7.988281 10.699218-14.492187 12.4375-6.507813 1.738281-13.347657.449218-18.769532-3.539063-9.800781-7.207031-11.910156-21.039063-4.703125-30.839844l97.226563-132.199219 24.128906 17.746094zm59.886719-46.988281c-.898438 1.21875-2.503906 1.679688-3.914062 1.117188-10.898438-4.367188-23.199219-2.320313-32.097657 5.34375l-4.730469 4.078124-24.125-17.742187 22.429688-30.503906 45.535156 33.492187zm0 0"/><path d="m195.195312 210.476562c1.25.917969 2.703126 1.363282 4.140626 1.363282 2.152343 0 4.273437-.988282 5.644531-2.855469l142.148437-193.289063c.65625-.894531 1.625-1.480468 2.722656-1.648437 1.101563-.167969 2.195313.105469 3.089844.761719l67.417969 49.578125c3.113281 2.289062 7.492187 1.621093 9.78125-1.492188 2.292969-3.113281 1.625-7.492187-1.492187-9.785156l-67.414063-49.574219c-3.90625-2.875-8.695313-4.054687-13.492187-3.324218-4.792969.730468-9.015626 3.285156-11.886719 7.191406l-142.152344 193.292968c-2.289063 3.113282-1.621094 7.492188 1.492187 9.78125zm0 0"/><g fill="#111"><path d="m99.644531 397.8125c0 5.027344-4.078125 9.105469-9.105469 9.105469-5.027343 0-9.105468-4.078125-9.105468-9.105469s4.078125-9.105469 9.105468-9.105469c5.027344 0 9.105469 4.078125 9.105469 9.105469zm0 0"/><path d="m54.144531 459.675781c0 5.027344-4.074219 9.105469-9.105469 9.105469-5.027343 0-9.101562-4.078125-9.101562-9.105469 0-5.027343 4.074219-9.105469 9.101562-9.105469 5.03125 0 9.105469 4.078126 9.105469 9.105469zm0 0"/></g></svg>