<svg height="512pt" viewBox="-88 0 512 512.002" width="512pt" xmlns="http://www.w3.org/2000/svg"><path d="m265.664062 237.789062-8.941406-146.570312c-.289062-4.757812-4.234375-8.46875-9-8.46875h-159.777344c-4.765624 0-8.707031 3.710938-9 8.46875l-8.941406 146.570312c-.582031 9.5-3.996094 18.609376-9.8125 26.144532l-43.277344 56.089844c-6.417968 8.320312-9.898437 18.53125-9.898437 29.039062v146.90625c0 4.980469 4.039063 9.015625 9.019531 9.015625h303.601563c4.976562 0 9.015625-4.035156 9.015625-9.015625v-146.90625c0-10.507812-3.480469-20.71875-9.898438-29.035156l-43.277344-56.09375c-5.816406-7.535156-9.230468-16.644532-9.8125-26.144532zm0 0" fill="#f6ac39"/><path d="m328.648438 349.0625v146.90625c0 4.980469-4.03125 9.019531-9.019532 9.019531h-26.199218c4.976562 0 9.015624-4.039062 9.015624-9.019531v-146.90625c0-10.507812-3.476562-20.71875-9.898437-29.035156l-43.273437-56.089844c-5.8125-7.535156-9.226563-16.640625-9.808594-26.140625l-8.949219-146.574219c-.289063-4.757812-4.226563-8.464844-8.996094-8.464844h26.203125c4.765625 0 8.714844 3.707032 8.996094 8.464844l8.945312 146.574219c.582032 9.5 4 18.605469 9.808594 26.140625l43.273438 56.089844c6.425781 8.316406 9.902344 18.523437 9.902344 29.035156zm0 0" fill="#f39d0a"/><path d="m234.464844 320.628906h-133.261719v-26.9375c0-3.261718 2.648437-5.910156 5.910156-5.910156h121.441407c3.261718 0 5.910156 2.648438 5.910156 5.910156zm0 0" fill="#e7e7e7"/><path d="m209.390625 389.304688h-83.113281c-13.847656 0-25.074219-11.226563-25.074219-25.074219v-43.601563h133.261719v43.601563c0 13.847656-11.226563 25.074219-25.074219 25.074219zm0 0" fill="#bc7d53"/><path d="m234.464844 293.695312v26.933594h-26.203125v-26.933594c0-3.265624-2.644531-5.914062-5.910157-5.914062h26.199219c3.265625.003906 5.914063 2.648438 5.914063 5.914062zm0 0" fill="#cecece"/><path d="m234.464844 320.628906v43.605469c0 13.84375-11.222656 25.066406-25.070313 25.066406h-26.210937c13.847656 0 25.078125-11.222656 25.078125-25.066406v-43.605469zm0 0" fill="#af663e"/><path d="m141.632812 82.75h-44.664062v-70.726562c0-2.765626 2.242188-5.011719 5.011719-5.011719h34.640625c2.769531 0 5.011718 2.246093 5.011718 5.011719zm0 0" fill="#bc7d53"/><path d="m238.699219 82.75h-44.664063v-70.726562c0-2.765626 2.242188-5.011719 5.011719-5.011719h34.640625c2.769531 0 5.011719 2.246093 5.011719 5.011719zm0 0" fill="#bc7d53"/><path d="m238.703125 12.027344v70.726562h-16.695313v-70.726562c0-2.765625-2.242187-5.011719-5.007812-5.011719h16.691406c2.765625 0 5.011719 2.246094 5.011719 5.011719zm0 0" fill="#af663e"/><path d="m141.632812 12.027344v70.726562h-16.695312v-70.726562c0-2.765625-2.242188-5.011719-5.007812-5.011719h16.691406c2.765625 0 5.011718 2.246094 5.011718 5.011719zm0 0" fill="#af663e"/><path d="m241.476562 320.628906v-26.9375c0-7.125-5.796874-12.921875-12.921874-12.921875h-121.441407c-7.125 0-12.921875 5.796875-12.921875 12.921875v70.539063c0 17.691406 14.394532 32.085937 32.085938 32.085937h83.109375c17.695312 0 32.089843-14.394531 32.089843-32.085937zm-14.027343 43.601563c0 9.957031-8.101563 18.058593-18.058594 18.058593h-83.113281c-9.957032 0-18.058594-8.101562-18.058594-18.058593v-36.589844h119.230469zm0-50.617188h-119.230469v-18.816406h119.230469zm0 0"/><path d="m324.304688 315.742188-43.277344-56.09375c-4.972656-6.449219-7.867188-14.15625-8.363282-22.285157l-1.589843-26.066406c-.234375-3.867187-3.582031-6.800781-7.425781-6.574219-3.867188.238282-6.808594 3.5625-6.574219 7.429688l1.589843 26.066406c.667969 10.941406 4.5625 21.316406 11.257813 30l43.277344 56.089844c5.441406 7.054687 8.4375 15.84375 8.4375 24.753906v125.539062h-14.035157c-3.875 0-7.011718 3.136719-7.011718 7.011719s3.136718 7.015625 7.011718 7.015625h14.035157v7.339844c0 1.105469-.898438 2.003906-2.003907 2.003906h-199.226562c-3.871094 0-7.011719 3.140625-7.011719 7.015625s3.140625 7.015625 7.011719 7.015625h199.226562c8.839844 0 16.03125-7.195312 16.03125-16.03125v-146.910156c0-11.992188-4.03125-23.824219-11.359374-33.320312zm0 0"/><path d="m139.273438 481.613281c0-3.875-3.140626-7.015625-7.011719-7.015625h-25.050781c-3.875 0-7.015626 3.140625-7.015626 7.015625s3.140626 7.015625 7.015626 7.015625h25.050781c3.871093 0 7.011719-3.140625 7.011719-7.015625zm0 0"/><path d="m207.40625 474.601562c-3.875 0-7.011719 3.136719-7.011719 7.011719s3.136719 7.015625 7.011719 7.015625h25.050781c3.871094 0 7.011719-3.140625 7.011719-7.015625s-3.140625-7.011719-7.011719-7.011719zm0 0"/><path d="m157.308594 474.601562c-3.875 0-7.011719 3.136719-7.011719 7.011719s3.136719 7.015625 7.011719 7.015625h25.050781c3.871094 0 7.011719-3.140625 7.011719-7.015625s-3.140625-7.011719-7.011719-7.011719zm0 0"/><path d="m57.113281 474.601562c-3.875 0-7.011719 3.136719-7.011719 7.011719s3.136719 7.015625 7.011719 7.015625h25.050781c3.871094 0 7.011719-3.140625 7.011719-7.015625s-3.140625-7.011719-7.011719-7.011719zm0 0"/><path d="m250.492188 481.613281c0 3.875 3.140624 7.015625 7.011718 7.015625h25.050782c3.875 0 7.011718-3.140625 7.011718-7.015625s-3.136718-7.015625-7.011718-7.015625h-25.050782c-3.871094.003906-7.011718 3.140625-7.011718 7.015625zm0 0"/><path d="m88.011719 497.972656h-71.976563c-1.105468 0-2.003906-.898437-2.003906-2.003906v-7.339844h18.035156c3.871094 0 7.011719-3.140625 7.011719-7.015625s-3.140625-7.015625-7.011719-7.015625h-18.035156v-125.535156c0-8.910156 2.996094-17.699219 8.4375-24.753906l43.273438-56.089844c6.699218-8.683594 10.59375-19.054688 11.261718-30l7.457032-122.195312h5.839843c3.875 0 7.015625-3.140626 7.015625-7.015626s-3.140625-7.015624-7.015625-7.015624h-4.988281l.632812-10.347657c.066407-1.054687.941407-1.882812 2-1.882812h159.773438c1.054688 0 1.933594.828125 2 1.882812l.628906 10.347657h-4.984375c-3.875 0-7.015625 3.140624-7.015625 7.015624s3.140625 7.015626 7.015625 7.015626h5.839844l3.832031 62.773437c.238282 3.867187 3.566406 6.824219 7.429688 6.574219 3.867187-.238282 6.808594-3.5625 6.574218-7.429688l-4.167968-68.300781c.019531-.207031-1.152344-18.847656-1.152344-18.847656-.515625-8.441407-7.542969-15.054688-16-15.054688h-2.007812v-63.714843c0-6.628907-5.394532-12.023438-12.023438-12.023438h-34.644531c-6.628907 0-12.023438 5.394531-12.023438 12.023438v63.714843h-38.375v-63.714843c0-6.628907-5.394531-12.023438-12.023437-12.023438h-34.644532c-6.628906 0-12.023437 5.394531-12.023437 12.023438v63.714843h-2.007813c-8.457031 0-15.488281 6.613281-16 15.054688 0 0-1.171874 18.640625-1.152343 18.847656l-7.792969 127.722656c-.496094 8.128907-3.386719 15.835938-8.363281 22.285157l-43.277344 56.09375c-7.324219 9.496093-11.359375 21.328124-11.359375 33.320312v146.90625c0 8.839844 7.191406 16.03125 16.03125 16.03125h71.980469c3.871093 0 7.011719-3.140625 7.011719-7.015625.003906-3.871094-3.136719-7.011719-7.011719-7.011719zm113.039062-483.945312h30.632813v61.710937h-30.632813zm-97.070312 0h30.636719v61.710937h-30.636719zm0 0"/><path d="m112.453125 116.023438h22.152344c3.875 0 7.015625-3.140626 7.015625-7.015626s-3.140625-7.015624-7.015625-7.015624h-22.152344c-3.875 0-7.011719 3.140624-7.011719 7.015624s3.136719 7.015626 7.011719 7.015626zm0 0"/><path d="m178.910156 116.023438c3.875 0 7.015625-3.140626 7.015625-7.015626s-3.140625-7.015624-7.015625-7.015624h-22.152344c-3.875 0-7.015624 3.140624-7.015624 7.015624s3.140624 7.015626 7.015624 7.015626zm0 0"/><path d="m223.214844 116.023438c3.875 0 7.011718-3.140626 7.011718-7.015626s-3.136718-7.015624-7.011718-7.015624h-22.152344c-3.875 0-7.015625 3.140624-7.015625 7.015624s3.140625 7.015626 7.015625 7.015626zm0 0"/><g fill="#111"><path d="m122.230469 54.117188c-3.898438-1.617188-8.371094.234374-9.984375 4.136718-1.617188 3.898438.234375 8.367188 4.132812 9.984375 3.902344 1.613281 8.371094-.238281 9.988282-4.136719 1.613281-3.898437-.238282-8.371093-4.136719-9.984374zm0 0"/><path d="m223.914062 59.949219c-.675781-4.164063-4.601562-6.992188-8.765624-6.316407-4.167969.675782-6.996094 4.601563-6.320313 8.765626.675781 4.167968 4.601563 6.996093 8.769531 6.320312 4.164063-.675781 6.992188-4.601562 6.316406-8.769531zm0 0"/></g></svg>