<svg height="480pt" viewBox="0 -40 480 480" width="480pt" xmlns="http://www.w3.org/2000/svg"><path d="m432 312h-256l-16-160h288zm0 0" fill="#edaa72"/><path d="m8 312h464v16c0 17.671875-14.328125 32-32 32h-400c-17.671875 0-32-14.328125-32-32zm0 0" fill="#f9ddac"/><path d="m56 360h368v32h-368zm0 0" fill="#ebb562"/><g fill="#e4544f"><path d="m208 136c0 8.835938-7.164062 16-16 16s-16-7.164062-16-16 7.164062-16 16-16 16 7.164062 16 16zm0 0"/><path d="m304 136c0 8.835938-7.164062 16-16 16s-16-7.164062-16-16 7.164062-16 16-16 16 7.164062 16 16zm0 0"/><path d="m272 136c0 8.835938-7.164062 16-16 16s-16-7.164062-16-16 7.164062-16 16-16 16 7.164062 16 16zm0 0"/><path d="m336 136c0 8.835938-7.164062 16-16 16s-16-7.164062-16-16 7.164062-16 16-16 16 7.164062 16 16zm0 0"/><path d="m368 136c0 8.835938-7.164062 16-16 16s-16-7.164062-16-16 7.164062-16 16-16 16 7.164062 16 16zm0 0"/></g><path d="m352 104c0 8.835938-7.164062 16-16 16s-16-7.164062-16-16 7.164062-16 16-16 16 7.164062 16 16zm0 0" fill="#ea7a92"/><path d="m104 296c0 8.835938-7.164062 16-16 16s-16-7.164062-16-16 7.164062-16 16-16 16 7.164062 16 16zm0 0" fill="#e4544f"/><path d="m136 296c0 8.835938-7.164062 16-16 16s-16-7.164062-16-16 7.164062-16 16-16 16 7.164062 16 16zm0 0" fill="#e4544f"/><path d="m120 264c0 8.835938-7.164062 16-16 16s-16-7.164062-16-16 7.164062-16 16-16 16 7.164062 16 16zm0 0" fill="#e4544f"/><path d="m288 104c0 8.835938-7.164062 16-16 16s-16-7.164062-16-16 7.164062-16 16-16 16 7.164062 16 16zm0 0" fill="#ea7a92"/><path d="m240 136c0 8.835938-7.164062 16-16 16s-16-7.164062-16-16 7.164062-16 16-16 16 7.164062 16 16zm0 0" fill="#e4544f"/><path d="m256 104c0 8.835938-7.164062 16-16 16s-16-7.164062-16-16 7.164062-16 16-16 16 7.164062 16 16zm0 0" fill="#ea7a92"/><path d="m272 72c0 8.835938-7.164062 16-16 16s-16-7.164062-16-16 7.164062-16 16-16 16 7.164062 16 16zm0 0" fill="#e4544f"/><path d="m432 136c0 8.835938-7.164062 16-16 16s-16-7.164062-16-16 7.164062-16 16-16 16 7.164062 16 16zm0 0" fill="#e4544f"/><path d="m439.199219 240 4.800781-48h-280l4.800781 48zm0 0" fill="#d3843d"/><path d="m272 56h-16c0-26.507812 21.492188-48 48-48h16c0 26.507812-21.492188 48-48 48zm0 0" fill="#67c086"/><path d="m192 8h16c26.507812 0 48 21.492188 48 48h-16c-26.507812 0-48-21.492188-48-48zm0 0" fill="#67c086"/><path d="m384 272h56v16h-56zm0 0" fill="#d3843d"/><path d="m352 272h16v16h-16zm0 0" fill="#d3843d"/><path d="m472 304h-31.199219l15.199219-151.199219c.226562-2.257812-.515625-4.503906-2.039062-6.183593-1.527344-1.675782-3.691407-2.628907-5.960938-2.617188h-9.472656c.949218-2.5625 1.445312-5.269531 1.472656-8 0-13.253906-10.746094-24-24-24s-24 10.746094-24 24c.027344 2.730469.523438 5.4375 1.472656 8h-18.945312c2.328125-6.273438 1.882812-13.238281-1.222656-19.164062-3.109376-5.925782-8.582032-10.253907-15.066407-11.90625 4.066407-10.027344.925781-21.535157-7.675781-28.097657-8.597656-6.566406-20.527344-6.566406-29.125 0-8.601562 6.5625-11.742188 18.070313-7.675781 28.097657-3.628907.976562-6.972657 2.796874-9.761719 5.308593-2.789062-2.511719-6.132812-4.332031-9.761719-5.308593 2.585938-6.347657 2.3125-13.496094-.753906-19.625-3.0625-6.128907-8.617187-10.636719-15.246094-12.375 2.289063-5.539063 2.347657-11.746094.160157-17.320313 28.242187-3.28125 49.558593-27.179687 49.601562-55.609375v-8h-24c-19.6875.03125-37.910156 10.398438-48 27.304688-10.089844-16.90625-28.3125-27.273438-48-27.304688h-24v8c.042969 28.429688 21.359375 52.328125 49.601562 55.609375-2.1875 5.574219-2.128906 11.78125.160157 17.320313-6.628907 1.738281-12.183594 6.246093-15.246094 12.375-3.066406 6.128906-3.339844 13.277343-.753906 19.625-3.628907.976562-6.972657 2.796874-9.761719 5.308593-8.09375-7.476562-20.257812-8.429687-29.417969-2.304687-9.160156 6.125-12.925781 17.730468-9.109375 28.066406h-9.472656c-2.269531-.011719-4.433594.941406-5.960938 2.617188-1.523437 1.679687-2.265624 3.925781-2.039062 6.183593l15.199219 151.199219h-24.671875c2.328125-6.273438 1.882812-13.238281-1.222656-19.164062-3.109376-5.925782-8.582032-10.253907-15.066407-11.90625 4.066407-10.027344.925781-21.535157-7.675781-28.097657-8.597656-6.566406-20.527344-6.566406-29.125 0-8.601562 6.5625-11.742188 18.070313-7.675781 28.097657-6.484375 1.652343-11.957031 5.980468-15.066407 11.90625-3.105468 5.925781-3.550781 12.890624-1.222656 19.164062h-57.472656c-4.417969 0-8 3.582031-8 8v16c.0273438 22.082031 17.917969 39.972656 40 40h8v24c0 4.417969 3.582031 8 8 8h368c4.417969 0 8-3.582031 8-8v-24h8c22.082031-.027344 39.972656-17.917969 40-40v-16c0-4.417969-3.582031-8-8-8zm-299.160156-104h262.359375l-3.199219 32h-255.960938zm235.160156-64c0-4.417969 3.582031-8 8-8s8 3.582031 8 8-3.582031 8-8 8-8-3.582031-8-8zm-56 8c-4.417969 0-8-3.582031-8-8s3.582031-8 8-8 8 3.582031 8 8-3.582031 8-8 8zm-16-48c4.417969 0 8 3.582031 8 8s-3.582031 8-8 8-8-3.582031-8-8 3.582031-8 8-8zm-16 32c4.417969 0 8 3.582031 8 8s-3.582031 8-8 8-8-3.582031-8-8 3.582031-8 8-8zm-32 16c-4.417969 0-8-3.582031-8-8s3.582031-8 8-8 8 3.582031 8 8-3.582031 8-8 8zm-32-80c4.417969 0 8 3.582031 8 8s-3.582031 8-8 8-8-3.582031-8-8 3.582031-8 8-8zm-8 72c0-4.417969 3.582031-8 8-8s8 3.582031 8 8-3.582031 8-8 8-8-3.582031-8-8zm24-24c-4.417969 0-8-3.582031-8-8s3.582031-8 8-8 8 3.582031 8 8-3.582031 8-8 8zm32-96h7.199219c-3.824219 18.613281-20.199219 31.980469-39.199219 32h-7.199219c3.824219-18.613281 20.199219-31.980469 39.199219-32zm-103.199219 0h7.199219c19 .019531 35.375 13.386719 39.199219 32h-7.199219c-19-.019531-35.375-13.386719-39.199219-32zm39.199219 80c4.417969 0 8 3.582031 8 8s-3.582031 8-8 8-8-3.582031-8-8 3.582031-8 8-8zm-16 32c4.417969 0 8 3.582031 8 8s-3.582031 8-8 8-8-3.582031-8-8 3.582031-8 8-8zm-40 8c0-4.417969 3.582031-8 8-8s8 3.582031 8 8-3.582031 8-8 8-8-3.582031-8-8zm255.199219 24-2.398438 24h-265.5625l-2.398437-24zm-261.558594 88h252.757813l-2.398438 24h-44v16h42.398438l-1.597657 16h-241.5625zm-57.640625 56c-4.417969 0-8-3.582031-8-8s3.582031-8 8-8 8 3.582031 8 8-3.582031 8-8 8zm-16-48c4.417969 0 8 3.582031 8 8s-3.582031 8-8 8-8-3.582031-8-8 3.582031-8 8-8zm-24 40c0-4.417969 3.582031-8 8-8s8 3.582031 8 8-3.582031 8-8 8-8-3.582031-8-8zm336 88h-352v-16h352zm48-56c0 13.253906-10.746094 24-24 24h-400c-13.253906 0-24-10.746094-24-24v-8h448zm0 0"/><path d="m352 272h16v16h-16zm0 0"/></svg>