<svg height="512pt" viewBox="0 -62 512.001 512" width="512pt" xmlns="http://www.w3.org/2000/svg"><path d="m330.492188 35.195312c0 15.289063-12.394532 27.683594-27.683594 27.683594-15.292969 0-27.6875-12.394531-27.6875-27.683594 0-15.292968 12.394531-27.6875 27.6875-27.6875 15.289062 0 27.683594 12.394532 27.683594 27.6875zm0 0" fill="#5a5c5e"/><path d="m330.496094 35.199219c0 15.285156-12.402344 27.679687-27.6875 27.679687-11.832032 0-21.933594-7.417968-25.898438-17.871094 4.449219 3.0625 9.84375 4.847657 15.644532 4.847657 15.296874 0 27.691406-12.402344 27.691406-27.691407 0-3.453124-.632813-6.765624-1.792969-9.8125 7.273437 4.992188 12.042969 13.359376 12.042969 22.847657zm0 0" fill="#444"/><path d="m125.148438 231.570312c0-98.117187 79.539062-177.65625 177.660156-177.65625 98.117187 0 177.65625 79.539063 177.65625 177.65625zm0 0" fill="#bfbfbf"/><path d="m480.472656 231.574219h-34.726562c0-92.265625-70.324219-168.097657-160.296875-176.816407 5.707031-.554687 11.503906-.84375 17.363281-.84375 98.113281 0 177.660156 79.535157 177.660156 177.660157zm0 0" fill="#acacac"/><path d="m493.238281 306.1875h-380.859375c-6.21875 0-11.261718-5.039062-11.261718-11.257812v-52.097657c0-6.21875 5.042968-11.261719 11.261718-11.261719h380.859375c6.21875 0 11.257813 5.042969 11.257813 11.261719v52.097657c0 6.21875-5.042969 11.257812-11.257813 11.257812zm0 0" fill="#9c9c9c"/><path d="m493.238281 306.1875h-19.808593v-74.617188h19.808593c6.21875 0 11.257813 5.042969 11.257813 11.261719v52.097657c0 6.21875-5.042969 11.257812-11.257813 11.257812zm0 0" fill="#838383"/><path d="m380.828125 285.105469c-5.773437-6.890625-15.316406-9.300781-23.667969-5.976563-11.40625 4.535156-23.058594 8.703125-34.296875 13.644532-8.078125 3.550781-59.804687 24.777343-55.554687-.800782 2.308594-13.878906 26.90625-14.78125 17.210937-33.207031-3.816406-7.238281-12.207031-10.785156-20.058593-8.476563l-62.238282 18.300782c-11.207031 3.296875-22.828125 4.96875-34.511718 4.96875h-12.8125v82.265625c33.402343 25.273437 79.921874 27.984375 119.671874 22.375 41.277344-5.828125 76.847657-35.8125 105.269532-65.234375 7.410156-7.667969 7.835937-19.6875.988281-27.859375zm0 0" fill="#fed2a4"/><path d="m379.84375 312.964844c-28.425781 29.421875-63.996094 59.402344-105.269531 65.230468-39.753907 5.617188-86.273438 2.898438-119.675781-22.367187 0 0 0-12.289063 0-27.355469 33.402343 25.277344 79.921874 27.984375 119.675781 22.378906 41.273437-5.828124 76.84375-35.808593 105.269531-65.238281.25-.261719.492188-.53125.722656-.804687.089844.09375.179688.191406.257813.292968 6.851562 8.175782 6.421875 20.191407-.980469 27.863282zm0 0" fill="#ffbd86"/><path d="m123.789062 373.289062h-112.285156c-2.210937 0-4-1.789062-4-3.996093v-105.738281c0-2.207032 1.789063-4 4-4h112.285156c2.207032 0 3.996094 1.792968 3.996094 4v105.738281c0 2.207031-1.789062 3.996093-3.996094 3.996093zm0 0" fill="#f6ac39"/><path d="m123.789062 373.289062h-112.285156c-2.210937 0-4-1.789062-4-3.996093v-35.992188h120.28125v35.992188c0 2.207031-1.789062 3.996093-3.996094 3.996093zm0 0" fill="#f39d0a"/><path d="m151.074219 364.039062h-23.289063v-95.230468h23.289063c2.113281 0 3.824219 1.714844 3.824219 3.828125v87.574219c0 2.113281-1.710938 3.828124-3.824219 3.828124zm0 0" fill="#e7e7e7"/><path d="m151.074219 364.039062h-23.289063v-35.078124h27.113282v31.25c0 2.113281-1.710938 3.828124-3.824219 3.828124zm0 0" fill="#cecece"/><path d="m493.238281 224.066406h-5.4375c-2.367187-58.664062-32.371093-112.792968-81.308593-145.925781-3.429688-2.324219-8.097657-1.425781-10.417969 2.007813-2.324219 3.429687-1.425781 8.09375 2.003906 10.417968 44.808594 30.339844 72.359375 79.820313 74.71875 133.5h-339.980469c3.941406-90.355468 78.679688-162.652344 169.992188-162.652344 22.601562 0 44.550781 4.359376 65.234375 12.953126 3.828125 1.589843 8.21875-.222657 9.808593-4.050782 1.589844-3.828125-.222656-8.21875-4.050781-9.808594-12.519531-5.203124-25.464843-8.972656-38.714843-11.300781 1.871093-4.296875 2.914062-9.035156 2.914062-14.015625 0-19.402344-15.789062-35.191406-35.191406-35.191406-19.40625 0-35.191406 15.789062-35.191406 35.191406 0 4.988282 1.066406 9.726563 2.949218 14.027344-84.386718 14.882812-149.238281 87.105469-152.753906 174.847656h-5.433594c-10.347656 0-18.765625 8.417969-18.765625 18.761719v9.222656h-24.675781c-4.144531 0-7.503906 3.359375-7.503906 7.503907 0 4.144531 3.359375 7.503906 7.503906 7.503906h51.347656v98.726562h-105.277344v-98.726562h18.820313c4.144531 0 7.507813-3.359375 7.507813-7.503906 0-4.140626-3.363282-7.503907-7.507813-7.503907h-22.324219c-6.34375.003907-11.503906 5.164063-11.503906 11.503907v105.738281c0 6.339843 5.160156 11.5 11.503906 11.5h112.285156c5.570313 0 10.230469-3.984375 11.277344-9.25h16.007813c3.269531 0 6.210937-1.402344 8.28125-3.625 14.726562 9.03125 32.121093 15.113281 51.878906 18.09375 9.480469 1.433593 19.390625 2.148437 29.671875 2.148437 11.164062 0 22.765625-.84375 34.710938-2.53125 22.101562-3.121094 57.511718-13.503906 109.621093-67.449218 1.351563-1.398438 2.527344-2.90625 3.535157-4.488282h104.464843c10.347657 0 18.761719-8.414062 18.761719-18.761718v-52.097657c0-10.347656-8.417969-18.765625-18.761719-18.765625zm-210.613281-188.871094c0-11.128906 9.054688-20.183593 20.183594-20.183593s20.179687 9.054687 20.179687 20.183593c0 4.464844-1.464843 8.585938-3.929687 11.925782-5.378906-.464844-10.796875-.714844-16.25-.714844-5.476563 0-10.890625.253906-16.246094.722656-2.46875-3.34375-3.9375-7.46875-3.9375-11.933594zm-135.230469 321.339844h-12.101562v-80.21875h12.101562zm227.046875-48.785156c-23.417968 24.242188-59.359375 57.152344-100.921875 63.015625-59.597656 8.414063-94.371093-7.191406-111.117187-18.773437 0-7.960938 0-27.019532 0-44.355469v-26.574219h5.308594c12.402343 0 24.726562-1.773438 36.625-5.273438l62.238281-18.300781c4.410156-1.296875 9.164062.710938 11.304687 4.769531 2.625 4.992188 1.898438 5.949219-5.011718 11.171876-5.136719 3.878906-11.53125 8.707031-12.960938 17.308593-1.621094 9.738281 2.847656 14.855469 5.65625 17.035157 6.6875 5.199218 17.640625 5.515624 34.46875 1 12.398438-3.324219 23.710938-8.191407 25.851562-9.132813 7.328126-3.222656 15.046876-6.1875 22.507813-9.054687 3.785156-1.457032 7.699219-2.960938 11.542969-4.488282 5.351562-2.132812 11.441406-.59375 15.144531 3.824219 4.390625 5.242187 4.117187 12.90625-.636719 17.828125zm122.550782-12.820312c0 2.070312-1.683594 3.753906-3.753907 3.753906h-100.027343c.046874-6.507813-2.144532-13.046875-6.632813-18.398438-7.867187-9.394531-20.808594-12.660156-32.191406-8.128906-3.761719 1.496094-7.632813 2.980469-11.378907 4.421875-7.625 2.929687-15.511718 5.957031-23.164062 9.324219-1.289062.566406-12.929688 5.621094-24.957031 8.707031-14.492188 3.71875-19.597657 1.945313-20.164063 1.273437-.003906-.007812-.34375-.671874-.011718-2.679687.417968-2.515625 3-4.625 7.203124-7.796875 6.71875-5.074219 17.964844-13.570312 9.246094-30.140625-5.460937-10.359375-17.582031-15.480469-28.816406-12.175781l-62.238281 18.300781c-10.523438 3.097656-21.421875 4.664063-32.394531 4.664063h-7.433594c-2.054688-2.871094-5.410156-4.75-9.203125-4.75h-16.007813c-1.046875-5.269532-5.703125-9.253907-11.277344-9.253907h-15.167968v-9.222656c0-2.070313 1.6875-3.753906 3.757812-3.753906h380.859375c2.070313 0 3.753907 1.683593 3.753907 3.753906zm0 0"/></svg>