<svg height="480pt" viewBox="0 -40 480 480" width="480pt" xmlns="http://www.w3.org/2000/svg"><path d="m472 200c0-106.039062-103.871094-192-232-192s-232 85.960938-232 192 103.871094 192 232 192 232-85.960938 232-192zm0 0" fill="#f9ddac"/><path d="m56 192s40-72 160-72c144.222656 0 216 72 216 72s-16 72-224 72c-96 0-152-72-152-72zm0 0" fill="#f98c96"/><g fill="#f3bb59"><path d="m147.199219 66.929688-6.398438-14.65625c31.328125-13.488282 65.09375-20.386719 99.199219-20.273438v16c-31.902344-.117188-63.492188 6.328125-92.800781 18.929688zm0 0"/><path d="m108.800781 89.113281-9.601562-12.847656c5.25-3.890625 10.839843-7.632813 16.632812-11.121094l8.257813 13.710938c-5.335938 3.222656-10.488282 6.664062-15.289063 10.257812zm0 0"/><path d="m93.472656 101.839844-10.929687-11.679688c5.289062-4.941406 10.847656-9.582031 16.65625-13.894531l9.601562 12.847656c-5.34375 3.953125-10.460937 8.203125-15.328125 12.726563zm0 0"/></g><path d="m154.335938 186.347656 40-40 11.316406 11.316406-40 40zm0 0" fill="#dd3e46"/><path d="m210.34375 178.34375 40-40 11.3125 11.3125-40 40zm0 0" fill="#dd3e46"/><path d="m266.347656 178.339844 32-32 11.3125 11.3125-32 32zm0 0" fill="#dd3e46"/><path d="m272 176h16c17.671875 0 32 14.328125 32 32h-16c-17.671875 0-32-14.328125-32-32zm0 0" fill="#67c086"/><path d="m96 176h16c17.671875 0 32 14.328125 32 32h-16c-17.671875 0-32-14.328125-32-32zm0 0" fill="#67c086"/><path d="m376.328125 183.863281c35.402344 33.300781 37.109375 88.992188 3.8125 124.398438-33.300781 35.402343-88.992187 37.109375-124.398437 3.808593l21.929687-23.269531c22.535156 21.1875 57.976563 20.097657 79.164063-2.4375 21.1875-22.53125 20.097656-57.976562-2.4375-79.164062zm0 0" fill="#f3bb59"/><path d="m354.398438 207.199219c22.535156 21.191406 23.625 56.636719 2.433593 79.167969-21.191406 22.535156-56.636719 23.621093-79.167969 2.433593zm0 0" fill="#fefe90"/><path d="m222.328125 183.863281c35.402344 33.300781 37.109375 88.992188 3.8125 124.398438-33.300781 35.402343-88.992187 37.109375-124.398437 3.808593l21.929687-23.269531c22.535156 21.1875 57.976563 20.101563 79.167969-2.433593 21.191406-22.53125 20.101562-57.976563-2.433594-79.167969zm0 0" fill="#f3bb59"/><path d="m200.40625 207.199219c22.535156 21.191406 23.625 56.636719 2.433594 79.167969-21.191406 22.535156-56.632813 23.621093-79.167969 2.433593zm0 0" fill="#fefe90"/><path d="m344 104h16v16h-16zm0 0" fill="#dd3e46"/><path d="m296 80h16v16h-16zm0 0" fill="#dd3e46"/><path d="m356.800781 286.335938c7.574219-8.050782 12.585938-18.167969 14.398438-29.070313l-55.160157-9.265625 12.65625 54.542969c10.765626-2.5 20.550782-8.140625 28.105469-16.207031zm0 0" fill="#f9f443"/><path d="m202.832031 286.335938c7.574219-8.050782 12.585938-18.167969 14.398438-29.070313l-55.191407-9.265625 12.65625 54.542969c10.777344-2.492188 20.574219-8.132813 28.136719-16.207031zm0 0" fill="#f9f443"/><path d="m49.007812 188.121094c-1.558593 2.800781-1.296874 6.265625.671876 8.800781 24.140624 28.402344 55.21875 50.070313 90.214843 62.902344l-49.429687 52.625 5.808594 5.472656c17.742187 16.796875 41.261718 26.132813 65.695312 26.078125 1.007812 0 2.023438 0 3.039062-.046875 43.199219-1.34375 80.1875-31.359375 90.398438-73.351563 10.730469-.640624 21.027344-1.503906 30.832031-2.59375l-41.742187 44.457032 5.808594 5.472656c17.746093 16.789062 41.265624 26.121094 65.695312 26.0625 1.007812 0 2.023438 0 3.039062-.046875 28.148438-.851563 54.496094-14.046875 72.039063-36.070313 17.542969-22.027343 24.507813-50.660156 19.042969-78.28125 24.941406-17.457031 29.261718-33.96875 29.695312-35.890624.585938-2.664063-.222656-5.445313-2.152344-7.375-3.023437-3.015626-75.785156-74.335938-221.664062-74.335938-123.289062 0-165.265625 73.007812-166.992188 76.121094zm151.257813 30.902344c6.046875 7.917968 9.457031 17.53125 9.75 27.488281v1.417969l-31.878906-5.371094zm-19.746094 73.199218-8-34.398437 34.808594 5.863281c-4.484375 12.886719-14.242187 23.253906-26.832031 28.511719zm-15.582031 3.601563c-.488281 0-.960938.097656-1.449219.113281-9.949219.296875-19.738281-2.527344-28-8.074219l22.113281-23.535156zm76-34.207031c-4.800781 27.589843-23.667969 50.671874-49.753906 60.859374-26.085938 10.191407-55.601563 6.007813-77.832032-11.027343l11.03125-11.769531c26.070313 18.898437 62.121094 15.484374 84.179688-7.96875 22.0625-23.457032 23.261719-59.644532 2.804688-84.511719l11.039062-11.75c15.804688 18.144531 22.601562 42.4375 18.503906 66.152343zm113.351562-42.59375c6.035157 7.921874 9.433594 17.535156 9.710938 27.488281v1.417969l-31.878906-5.371094zm-19.746093 73.199218-8-34.398437 34.808593 5.863281c-4.484374 12.886719-14.242187 23.253906-26.832031 28.511719zm-15.582031 3.601563c-.488282 0-.960938.097656-1.449219.113281-9.949219.296875-19.738281-2.527344-28-8.082031l22.152343-23.535157zm55.390624 6.945312c-28.140624 29.941407-74.390624 33.691407-106.992187 8.679688l11.039063-11.769531c11.484374 8.355468 25.414062 12.664062 39.609374 12.25 24.414063-.757813 46.265626-15.34375 56.332032-37.601563 10.0625-22.253906 6.582031-48.296875-8.972656-67.128906l11.03125-11.742188c27.023437 30.976563 26.125 77.398438-2.070313 107.3125zm31.074219-89.601562c-5.164062-13.320313-13.222656-25.324219-23.59375-35.144531l-5.832031-5.503907-72.496094 77.082031c-13.976562 2.132813-29.328125 3.726563-45.75 4.796876 1.832032-27.285157-8.101562-54.054688-27.289062-73.542969l31.199218-31.199219-11.3125-11.3125-40 40 3.199219 3.199219-61.550781 65.449219c-32.882812-11.046876-62.460938-30.191407-86-55.671876 6.308594-8.617187 13.703125-16.382812 22-23.105468v7.785156c.027344 22.082031 17.917969 39.972656 40 40h24v-8c-.027344-22.082031-17.917969-39.972656-40-40h-23.734375c22.847656-18.742188 62.933594-40 127.734375-40 120.640625 0 189.902344 52.0625 206.464844 66.167969-4.339844 7.425781-10.148438 13.890625-17.066406 19zm-300.058593-29.167969h6.632812c10.167969.011719 19.230469 6.417969 22.632812 16h-6.632812c-10.167969-.011719-19.230469-6.417969-22.632812-16zm0 0"/><path d="m240 0c-132.335938 0-240 89.71875-240 200s107.664062 200 240 200 240-89.71875 240-200-107.664062-200-240-200zm0 384c-123.511719 0-224-82.535156-224-184s100.488281-184 224-184 224 82.535156 224 184-100.488281 184-224 184zm0 0"/><path d="m240 48v-16c-34.105469-.113281-67.871094 6.785156-99.199219 20.273438l6.398438 14.65625c29.308593-12.601563 60.898437-19.046876 92.800781-18.929688zm0 0"/><path d="m93.472656 101.839844c4.867188-4.523438 9.984375-8.773438 15.328125-12.726563 4.800781-3.59375 9.976563-7.035156 15.335938-10.257812l-8.257813-13.710938c-5.789062 3.488281-11.382812 7.199219-16.632812 11.121094-5.820313 4.308594-11.390625 8.945313-16.6875 13.886719zm0 0"/><path d="m154.335938 186.347656 40-40 11.316406 11.316406-40 40zm0 0"/><path d="m304 216h24v-8c-.066406-18.21875-12.429688-34.089844-30.078125-38.609375l11.734375-11.734375-11.3125-11.3125-21.65625 21.65625h-12.6875v8c.027344 22.082031 17.917969 39.972656 40 40zm-16-32c10.167969.011719 19.230469 6.417969 22.632812 16h-6.632812c-9.617188-.03125-18.289062-5.796875-22.03125-14.65625l1.34375-1.34375zm0 0"/><path d="m344 104h16v16h-16zm0 0"/><path d="m296 80h16v16h-16zm0 0"/></svg>