<svg height="512pt" viewBox="0 -13 512.00071 512" width="512pt" xmlns="http://www.w3.org/2000/svg"><path d="m287.019531 30.253906c-12.738281 6.121094-26.136719 13.585938-31.964843 26.460938-3.902344 8.625-3.796876 18.433594-5.070313 27.816406-3.390625 25.054688-17.539063 48.46875-38.140625 63.125-10.003906 7.121094-22.265625 13.257812-26.199219 24.894531-4.136719 12.234375 3.320313 25.980469 14.039063 33.175781 10.722656 7.199219 23.949218 9.34375 36.726562 11.195313 50.359375 7.289063 100.984375 12.753906 151.738282 16.375 1.53125.109375 2.53125 1.664063 1.980468 3.09375-17.324218 44.804687.265625 95.804687 21.941406 139.027344 9.292969 18.527343 19.539063 36.941406 34.183594 51.609375 9.347656 9.363281 36.003906 30.417968 51.738282 22.890625 16.625-7.957031-.96875-48.890625-5.339844-62.453125-10.910156-33.878906-15.582032-69.753906-13.746094-105.296875.113281-2.257813 3.046875-3.011719 4.25-1.097657 3.421875 5.457032 8.910156 9.664063 15.136719 11.296876 1.332031.347656 2.664062-.617188 2.816406-1.984376 3.933594-35.378906 4.90625-71.824218-5.8125-105.730468-10.972656-34.703125-36.074219-66.605469-70.746094-77.679688-7.417969-2.371094-15.445312-3.917968-21.390625-8.953125-24.375-20.644531 5.453125-63.996093-22.382812-84.675781-23.84375-17.710938-71.75 6.335938-93.757813 16.910156zm0 0" fill="#bc7d53"/><path d="m481.457031 207.9375c-11.765625-37.226562-38.6875-71.457031-75.890625-83.335938-7.953125-2.539062-16.570312-4.195312-22.945312-9.59375-26.152344-22.15625 5.847656-68.652343-24.015625-90.839843-14.796875-10.996094-38.226563-7-59.917969.527343 24.359375-11.363281 61.882812-26.367187 82.09375-11.351562 27.828125 20.679688-1.988281 64.03125 22.382812 84.667969 5.941407 5.042969 13.972657 6.585937 21.394532 8.960937 34.664062 11.066406 59.769531 42.972656 70.742187 77.671875 10.710938 33.910157 9.746094 70.355469 5.816407 105.734375-.160157 1.367188-1.496094 2.332032-2.828126 1.988282-2.859374-.75-5.5625-2.035157-7.972656-3.757813 1.167969-27.347656-.644531-54.703125-8.859375-80.671875zm0 0" fill="#af663e"/><path d="m62.054688 136.007812c-10.375 9.597657-20.984376 20.675782-22.769532 34.695313-1.195312 9.390625 1.792969 18.734375 3.335938 28.078125 4.125 24.941406-2.511719 51.480469-17.890625 71.546875-7.472657 9.75-17.382813 19.222656-17.722657 31.5-.355468 12.90625 10.8125 23.851563 23.175782 27.582031 12.363281 3.726563 25.636718 1.882813 38.394531-.105468 50.277344-7.839844 100.269531-17.503907 149.84375-28.96875 1.496094-.347657 2.910156.84375 2.800781 2.375-3.382812 47.917968 28.429688 91.488281 61.855469 126.421874 14.328125 14.976563 29.539063 29.566407 47.851563 39.277344 11.6875 6.199219 43.355468 18.484375 56.179687 6.664063 13.550781-12.492188-15.300781-46.445313-23.464844-58.121094-20.394531-29.171875-35.40625-62.089844-44.109375-96.601563-.550781-2.191406 2.03125-3.773437 3.742188-2.296874 4.875 4.210937 11.359375 6.617187 17.789062 6.34375 1.378906-.058594 2.367188-1.367188 2.109375-2.722657-6.644531-34.972656-16.433593-70.089843-36.648437-99.347656-20.691406-29.941406-54.0625-53.054687-90.460938-53.441406-7.789062-.082031-15.914062.796875-23.078125-2.265625-29.367187-12.5625-13.605469-62.769532-46.296875-74.347656-27.996094-9.914063-66.710937 27.15625-84.636718 43.734374zm0 0" fill="#bc7d53"/><path d="m300.144531 248.660156c-22.191406-32.121094-57.988281-56.921875-97.042969-57.335937-8.34375-.089844-17.066406.863281-24.75-2.421875-31.507812-13.480469-14.597656-67.335938-49.667968-79.761719-17.375-6.15625-38.59375 4.554687-57.113282 18.128906 19.941407-18.023437 51.394532-43.402343 75.125-34.992187 32.683594 11.582031 16.933594 61.785156 46.292969 74.34375 7.160157 3.074218 15.289063 2.183594 23.085938 2.273437 36.386719.382813 69.765625 23.496094 90.457031 53.433594 20.203125 29.257813 30 64.378906 36.648438 99.347656.246093 1.351563-.742188 2.667969-2.117188 2.730469-2.953125.128906-5.914062-.308594-8.726562-1.246094-6.921876-26.484375-16.703126-52.097656-32.191407-74.5zm0 0" fill="#af663e"/><path d="m300.273438 120.828125c.054687-3.863281-3.035157-7.039063-6.898438-7.09375-3.875-.09375-7.039062 3.039063-7.09375 6.902344-.058594 4.082031-.640625 8.238281-1.257812 12.636719-.820313 5.84375-1.671876 11.886718-1.308594 18.207031 1.015625 17.835937 12.230468 27.773437 22.226562 29.464843.394532.066407.785156.097657 1.171875.097657 3.355469 0 6.316407-2.414063 6.894531-5.832031.644532-3.808594-1.921874-7.421876-5.734374-8.066407-6.328126-1.070312-10.179688-9.277343-10.585938-16.457031-.285156-4.945312.433594-10.054688 1.195312-15.464844.652344-4.636718 1.324219-9.429687 1.390626-14.394531zm0 0"/><path d="m445.148438 272.335938c-3.339844-1.949219-7.625-.820313-9.570313 2.519531l-9.839844 16.855469c-1.949219 3.335937-.820312 7.621093 2.515625 9.570312 1.109375.648438 2.324219.957031 3.519532.957031 2.410156 0 4.75-1.242187 6.050781-3.472656l9.839843-16.855469c1.949219-3.339844.820313-7.625-2.515624-9.574218zm0 0"/><path d="m450.066406 319.738281c-3.339844-1.945312-7.625-.820312-9.570312 2.519531l-9.839844 16.855469c-1.945312 3.335938-.820312 7.621094 2.515625 9.570313 1.109375.648437 2.324219.957031 3.523437.957031 2.40625 0 4.75-1.242187 6.046876-3.472656l9.84375-16.859375c1.945312-3.335938.820312-7.621094-2.519532-9.570313zm0 0"/><path d="m450.335938 359.210938-9.839844 16.855468c-1.949219 3.339844-.820313 7.625 2.515625 9.574219 1.109375.648437 2.324219.953125 3.519531.953125 2.40625 0 4.75-1.242188 6.050781-3.46875l9.839844-16.859375c1.949219-3.335937.820313-7.621094-2.515625-9.570313-3.339844-1.949218-7.625-.820312-9.570312 2.515626zm0 0"/><path d="m501.597656 391.886719c-.929687-2.605469-1.730468-4.855469-2.28125-6.566407-9.558594-29.671874-14.183594-60.410156-13.785156-91.527343 3.308594 2.472656 7.050781 4.308593 10.988281 5.34375 2.589844.675781 5.34375.191406 7.558594-1.332031 2.234375-1.535157 3.6875-3.960938 3.984375-6.648438 3.421875-30.765625 5.824219-70.914062-6.09375-108.613281-12.816406-40.53125-40.960938-71.273438-75.285156-82.238281-1.507813-.480469-3.039063-.929688-4.574219-1.378907-5.542969-1.625-10.777344-3.160156-14.425781-6.25-9.128906-7.730469-8.382813-20.390625-7.519532-35.046875 1.023438-17.332031 2.183594-36.980468-15.214843-49.902344-26.480469-19.671874-73.523438 3-98.792969 15.179688l-2.164062 1.039062c-24.464844 11.753907-31.429688 21.308594-35.308594 29.886719-3.386719 7.472657-4.136719 15.25-4.867188 22.769531-.234375 2.429688-.457031 4.726563-.761718 6.992188-3.125 23.054688-16.308594 44.875-35.265626 58.363281-1.746093 1.242188-3.566406 2.457031-5.492187 3.738281-4.40625 2.933594-9.089844 6.066407-13.203125 9.855469-5.816406-6.101562-8.199219-15.808593-10.84375-26.648437-4.121094-16.867188-8.789062-35.988282-29.21875-43.222656-31.105469-11.015626-69.390625 24.484374-89.964844 43.558593l-1.761718 1.632813c-19.925782 18.429687-23.773438 29.609375-24.960938 38.945312-1.035156 8.140625.53125 15.792969 2.046875 23.195313.492187 2.394531.953125 4.652343 1.328125 6.910156 3.792969 22.957031-2.390625 47.683594-16.542969 66.152344-1.308593 1.703125-2.691406 3.394531-4.152343 5.1875-6.878907 8.421875-14.671876 17.964843-15.0117192 30.375-.2187498 7.898437 2.7539062 15.535156 8.5898432 22.082031 5.105469 5.726562 12.054688 10.128906 19.5625 12.390625 13.304688 4.011719 26.664063 2.421875 41.492188.109375 2.996094-.464844 5.992188-.9375 8.988281-1.417969 3.816407-.613281 6.414063-4.203125 5.800781-8.019531-.613281-3.816406-4.203124-6.410156-8.015624-5.800781-2.976563.476562-5.953126.945312-8.929688 1.410156-13.109375 2.042969-24.8125 3.480469-35.296875.320313-9.023437-2.722657-18.472656-10.898438-18.199219-20.6875.207032-7.640626 5.867188-14.570313 11.859375-21.90625 1.46875-1.796876 2.984375-3.65625 4.421875-5.53125 16.460938-21.480469 23.652344-50.246094 19.238282-76.945313-.414063-2.523437-.925782-5.019531-1.421876-7.433594-1.34375-6.574219-2.617187-12.78125-1.871093-18.621093 1.519531-11.925782 11.417969-21.964844 20.578125-30.4375l1.773437-1.644532c17.09375-15.847656 52.660157-48.820312 75.773438-40.632812 13.300781 4.710937 16.542969 17.984375 20.296875 33.351562 3.820312 15.644532 8.152344 33.378906 25.585937 40.835938 7.121094 3.046875 14.660157 2.945312 21.316407 2.855468 1.484374-.019531 2.964843-.042968 4.4375-.027343 31.027343.332031 63.515624 19.652343 84.777343 50.421875 19.5 28.222656 28.675781 62.382812 34.304688 90.390625-2.609375-.761719-5.097657-2.105469-7.226563-3.941407-3.089844-2.667968-7.5-3.023437-10.96875-.878906-3.464844 2.136719-5.121094 6.230469-4.125 10.1875 8.972656 35.597656 24.167969 68.871094 45.15625 98.898438 1.152344 1.648437 2.640625 3.644531 4.363282 5.953125 5.40625 7.246093 12.808593 17.171875 17.441406 26.511719 1.9375 3.910156 6.078125 13.34375 2.652344 16.5-8.015626 7.390624-33.117188.277343-48.15625-7.699219-16.484376-8.746094-30.339844-21.488281-46.074219-37.933594-43.511719-45.472656-62.554688-83.949219-59.933594-121.089844.207031-2.917969-.996094-5.796875-3.222656-7.699219-2.234375-1.90625-5.273438-2.652343-8.132813-1.988281-35.246094 8.148438-71.171875 15.480469-106.785156 21.785157-3.804688.675781-6.34375 4.304687-5.667969 8.113281.671875 3.804687 4.308594 6.34375 8.109375 5.667969 33.824219-5.988282 67.933594-12.898438 101.480469-20.550782-.601563 51.652344 35.960937 96.09375 64.039063 125.4375 14.425781 15.078125 30.421874 30.433594 49.628906 40.621094 1.308594.695312 23.84375 12.484375 43.621094 12.484375 7.773437 0 15.121093-1.824219 20.582031-6.859375 16.375-15.089844-5.371094-44.246094-18.363281-61.664062-1.652344-2.21875-3.082032-4.132813-4.109376-5.609376-17.863281-25.546874-31.320312-53.566406-40.089843-83.425781 3.886719 1.390625 7.996093 2.046875 12.074219 1.875 2.667968-.113281 5.160156-1.386719 6.828124-3.488281 1.683594-2.125 2.363282-4.871094 1.855469-7.535156-4.84375-25.507813-12.324219-57.113282-27.871093-85.835938 19.785156 2.039063 39.582031 3.828125 59.3125 5.296875-8.285157 25.761719-7.089844 54.917969 3.601562 88.882813 1.160156 3.6875 5.085938 5.730468 8.773438 4.574218 3.6875-1.160156 5.734374-5.089843 4.574218-8.777343-10.53125-33.464844-11.117187-61.464844-1.785156-85.597657 1.054688-2.726562.75-5.832031-.820312-8.304687-1.570313-2.476563-4.257813-4.082031-7.1875-4.292969-25.125-1.789062-50.375-4.074218-75.574219-6.796875-.265625-.386719-.519531-.777343-.789063-1.164062-24.164062-34.972657-60.105468-56.078125-96.140625-56.460938-1.578125-.015625-3.175781.003907-4.773437.027344-2.703125.035156-5.332032.0625-7.820313-.105469 2.0625-1.503906 4.261719-2.976562 6.503907-4.472656 1.929687-1.285156 3.925781-2.613281 5.851562-3.984375 22.050781-15.6875 37.382812-41.066406 41.015625-67.882813.34375-2.535156.589844-5.070312.828125-7.523437.644531-6.679687 1.257812-12.988281 3.683594-18.347656 4.960937-10.957031 17.375-17.636719 28.621094-23.042969l2.179687-1.050781c20.996094-10.117188 64.683594-31.171875 84.371094-16.546875 11.328125 8.410156 10.523437 22.050781 9.589843 37.84375-.949218 16.074218-2.023437 34.296875 12.445313 46.550781 5.914063 5.007813 13.152344 7.128906 19.539063 9 1.425781.417969 2.847656.832031 4.246093 1.28125 29.558594 9.4375 54.925781 37.457031 66.199219 73.121094 10.34375 32.707031 9.0625 68.054687 6.207031 96.480469-2.269531-1.496094-4.25-3.511719-5.746093-5.890626-2.167969-3.457031-6.277344-5.09375-10.222657-4.066406-3.941406 1.023438-6.730469 4.445313-6.941406 8.523438-1.890625 36.664062 2.84375 72.933594 14.074219 107.804687.617187 1.917969 1.453125 4.257813 2.421875 6.972657 3.035156 8.515624 7.191406 20.179687 8.871093 30.46875.703126 4.304687 1.886719 14.542968-2.3125 16.550781-9.832031 4.707031-31.738281-9.476563-43.765624-21.523438-13.1875-13.203125-22.683594-29.460937-32.882813-49.804687-2.972656-5.925782-5.722656-11.722656-8.175781-17.226563-1.570313-3.53125-5.707032-5.117187-9.238282-3.542969-3.53125 1.570313-5.117187 5.707032-3.546874 9.238282 2.539062 5.699218 5.382812 11.6875 8.449218 17.804687 9.355469 18.652344 20.125 38.035157 35.488282 53.421875 1.25 1.25 26.824218 26.566406 49.058593 26.566406 3.6875 0 7.277344-.695312 10.652344-2.3125 20.085937-9.609374 7.875-43.871093.582031-64.339843zm0 0"/><path d="m124.453125 274.476562c3.832031-.507812 6.527344-4.019531 6.023437-7.851562-.503906-3.832031-4.019531-6.53125-7.851562-6.027344-6.359375.839844-12.457031-5.875-14.957031-12.617187-1.726563-4.644531-2.539063-9.738281-3.40625-15.132813-.738281-4.621094-1.503907-9.398437-2.902344-14.167968-1.085937-3.707032-4.96875-5.832032-8.679687-4.75-3.710938 1.085937-5.835938 4.976562-4.75 8.683593 1.148437 3.917969 1.808593 8.0625 2.515624 12.449219.933594 5.828125 1.898438 11.851562 4.101563 17.789062 5.675781 15.296876 17.554687 21.796876 27.226563 21.796876.914062 0 1.8125-.058594 2.679687-.171876zm0 0"/><path d="m278.347656 353.707031c3.175782 0 6.050782-2.175781 6.808594-5.40625l4.445312-19.003906c.882813-3.765625-1.457031-7.527344-5.21875-8.410156-3.765624-.878907-7.527343 1.457031-8.410156 5.222656l-4.445312 19.003906c-.878906 3.765625 1.457031 7.527344 5.21875 8.410157.539062.125 1.074218.183593 1.601562.183593zm0 0"/><path d="m296.988281 397.566406c3.179688 0 6.054688-2.179687 6.808594-5.402344l4.445313-19.007812c.882812-3.761719-1.457032-7.527344-5.21875-8.40625-3.761719-.878906-7.527344 1.457031-8.410157 5.21875l-4.445312 19.003906c-.878907 3.765625 1.460937 7.53125 5.222656 8.410156.535156.125 1.070313.183594 1.597656.183594zm0 0"/><path d="m317.261719 429.996094c3.175781 0 6.050781-2.179688 6.808593-5.40625l4.445313-19.003906c.878906-3.765626-1.457031-7.527344-5.21875-8.410157-3.765625-.878906-7.527344 1.457031-8.410156 5.222657l-4.445313 19.003906c-.882812 3.761718 1.457032 7.527344 5.21875 8.40625.535156.125 1.070313.1875 1.601563.1875zm0 0"/></svg>