<svg height="480pt" viewBox="0 0 480 480" width="480pt" xmlns="http://www.w3.org/2000/svg"><path d="m8 8h464v464h-464zm0 0" fill="#f9ddac"/><path d="m440 320-64-48v-48l64-48c-9.066406 23.015625-14.464844 47.3125-16 72 1.535156 24.6875 6.933594 48.984375 16 72zm0 0" fill="#98a1a1"/><path d="m392 248c0 61.855469-74.160156 112-165.648438 112-124.230468 0-186.351562-112-186.351562-112s55.199219-112 186.351562-112c91.488282 0 165.648438 50.144531 165.648438 112zm0 0" fill="#aabece"/><g fill="#426d78"><path d="m208 184s-48 64 0 128c0 0-56-19.199219-56-64 0-51.199219 56-64 56-64zm0 0"/><path d="m272 184s-48 56.800781 0 120c0 0-56-12.632812-56-56.800781 0-50.566407 56-63.199219 56-63.199219zm0 0"/><path d="m328 200s-38.398438 48 0 96c0 0-48-14.398438-48-48 0-38.398438 48-48 48-48zm0 0"/></g><path d="m448 448h-48v-16h32v-48h16zm0 0" fill="#d3843d"/><path d="m80 448h-48v-64h16v48h32zm0 0" fill="#d3843d"/><path d="m83.199219 230.402344 9.597656-12.796875 32 24-9.597656 12.796875zm0 0" fill="#426d78"/><path d="m81.753906 251.011719 31.984375-40.011719 12.5 9.992188-31.984375 40.011718zm0 0" fill="#426d78"/><path d="m40 40h400v32h-400zm0 0" fill="#d3843d"/><path d="m40 72h400v32h-400zm0 0" fill="#edaa72"/><path d="m304 40h32v32h-32zm0 0" fill="#ad6327"/><path d="m304 72h32v32h-32zm0 0" fill="#d3843d"/><path d="m304 440h-16c-26.507812 0-48-21.492188-48-48h16c26.507812 0 48 21.492188 48 48zm0 0" fill="#67c086"/><path d="m240 440h-16c-26.507812 0-48-21.492188-48-48h16c26.507812 0 48 21.492188 48 48zm0 0" fill="#dd3e46"/><path d="m176 440h-16c-26.507812 0-48-21.492188-48-48h16c26.507812 0 48 21.492188 48 48zm0 0" fill="#67c086"/><path d="m368 440h-16c-26.507812 0-48-21.492188-48-48h16c26.507812 0 48 21.492188 48 48zm0 0" fill="#dd3e46"/><path d="m80 344h16v16h-16zm0 0" fill="#67c086"/><path d="m384 144h16v16h-16zm0 0" fill="#67c086"/><path d="m226.351562 128c-134.550781 0-192.953124 115.296875-193.550781 116.464844-1.160156 2.351562-1.09375 5.121094.175781 7.414062 2.65625 4.746094 65.894532 116.121094 193.375 116.121094 73.703126 0 136.800782-31.910156 161.945313-76.800781l46.902344 35.199219c2.871093 2.15625 6.820312 2.136718 9.667969-.042969 2.847656-2.183594 3.898437-5.992188 2.566406-9.324219-8.683594-22.074219-13.886719-45.363281-15.433594-69.03125 1.546875-23.667969 6.75-46.957031 15.433594-69.03125 1.332031-3.332031.28125-7.140625-2.566406-9.324219-2.847657-2.179687-6.796876-2.199219-9.667969-.042969l-46.894531 35.199219c-25.167969-44.890625-88.25-76.800781-161.953126-76.800781zm0 224c-105.351562 0-165.167968-85.296875-177.128906-104.207031 10.921875-18.992188 65.839844-103.792969 177.128906-103.792969 86.929688 0 157.648438 46.65625 157.648438 104s-70.71875 104-157.648438 104zm197.945313-154.222656c-4.964844 16.300781-7.757813 33.1875-8.296875 50.222656.539062 17.035156 3.328125 33.921875 8.296875 50.222656l-29.226563-21.910156c6.574219-18.300781 6.574219-38.316406 0-56.617188zm0 0"/><path d="m214.398438 188.800781c2.011718-2.6875 2.132812-6.34375.304687-9.15625-1.832031-2.816406-5.222656-4.1875-8.496094-3.4375-21.511719 4.914063-62.207031 26.25-62.207031 71.792969 0 49.945312 58.894531 70.703125 61.40625 71.566406 3.324219 1.140625 7-.023437 9.0625-2.863281 2.066406-2.839844 2.039062-6.695313-.070312-9.503906-43.710938-58.289063-1.796876-116 0-118.398438zm-27.132813 103.382813c-13.265625-9.199219-27.265625-23.757813-27.265625-44.183594.148438-20.484375 11.816406-39.136719 30.167969-48.230469-13.867188 29.039063-14.921875 62.5625-2.902344 92.414063zm0 0"/><path d="m278.128906 189.152344c2.21875-2.628906 2.507813-6.382813.71875-9.320313-1.789062-2.9375-5.253906-4.402343-8.609375-3.640625-21.527343 4.855469-62.238281 25.945313-62.238281 71.007813 0 50.023437 59.695312 64.074219 62.238281 64.648437.582031.113282 1.171875.164063 1.761719.152344 3.03125 0 5.800781-1.710938 7.15625-4.421875s1.0625-5.953125-.757812-8.378906c-25.925782-32.066407-26.039063-77.855469-.269532-110.046875zm-25.417968 98.742187c-13.574219-7.328125-28.710938-20.117187-28.710938-40.695312.160156-19.8125 11.351562-37.882813 29.015625-46.855469-13.441406 27.613281-13.554687 59.847656-.304687 87.550781zm0 0"/><path d="m334.257812 204.984375c2.066407-2.628906 2.285157-6.265625.539063-9.121094s-5.082031-4.324219-8.363281-3.679687c-18.832032 3.738281-54.433594 20.257812-54.433594 55.816406 0 39.105469 51.503906 55 53.703125 55.664062.746094.222657 1.519531.335938 2.296875.335938 3.078125 0 5.878906-1.761719 7.214844-4.535156 1.332031-2.773438.957031-6.0625-.96875-8.464844-33.804688-42.265625-1.445313-84.222656.011718-86.015625zm-26.113281 72.679687c-10.234375-6.703124-20.144531-16.574218-20.144531-29.664062.589844-14.398438 9.320312-27.207031 22.503906-33.023438-8.953125 19.78125-9.800781 42.285157-2.359375 62.6875zm0 0"/><path d="m472 0h-464c-4.417969 0-8 3.582031-8 8v464c0 4.417969 3.582031 8 8 8h464c4.417969 0 8-3.582031 8-8v-464c0-4.417969-3.582031-8-8-8zm-8 464h-448v-448h448zm0 0"/><path d="m432 432h-32v16h48v-64h-16zm0 0"/><path d="m80 432h-32v-48h-16v64h48zm0 0"/><path d="m113.753906 211-11.160156 13.953125-9.792969-7.351563-9.601562 12.796876 9.402343 7.050781-10.847656 13.550781 12.492188 10 11.160156-13.953125 9.792969 7.351563 9.601562-12.796876-9.402343-7.050781 10.847656-13.550781zm0 0"/><path d="m40 112h400c4.417969 0 8-3.582031 8-8v-64c0-4.417969-3.582031-8-8-8h-400c-4.417969 0-8 3.582031-8 8v64c0 4.417969 3.582031 8 8 8zm8-16v-16h248v16zm264 0v-16h16v16zm120 0h-88v-16h88zm0-48v16h-88v-16zm-104 0v16h-16v-16zm-280 0h248v16h-248zm0 0"/><path d="m320 384h-24v8c.015625 3.324219.328125 6.640625.929688 9.910156-10.554688-11.410156-25.386719-17.902344-40.929688-17.910156h-24v8c.015625 3.324219.328125 6.640625.929688 9.910156-10.554688-11.410156-25.386719-17.902344-40.929688-17.910156h-24v8c.015625 3.324219.328125 6.640625.929688 9.910156-10.554688-11.410156-25.386719-17.902344-40.929688-17.910156h-24v8c.035156 30.914062 25.085938 55.964844 56 56h24v-8c-.015625-3.324219-.328125-6.640625-.929688-9.910156 10.554688 11.410156 25.386719 17.902344 40.929688 17.910156h24v-8c-.015625-3.324219-.328125-6.640625-.929688-9.910156 10.554688 11.410156 25.386719 17.902344 40.929688 17.910156h24v-8c-.015625-3.324219-.328125-6.640625-.929688-9.910156 10.554688 11.410156 25.386719 17.902344 40.929688 17.910156h24v-8c-.035156-30.914062-25.085938-55.964844-56-56zm-160 48c-19-.019531-35.375-13.386719-39.199219-32h7.199219c19 .019531 35.375 13.386719 39.199219 32zm64 0c-19-.019531-35.375-13.386719-39.199219-32h7.199219c19 .019531 35.375 13.386719 39.199219 32zm64 0c-19-.019531-35.375-13.386719-39.199219-32h7.199219c19 .019531 35.375 13.386719 39.199219 32zm64 0c-19-.019531-35.375-13.386719-39.199219-32h7.199219c19 .019531 35.375 13.386719 39.199219 32zm0 0"/><path d="m80 344h16v16h-16zm0 0"/><path d="m384 144h16v16h-16zm0 0"/></svg>