<svg height="511pt" viewBox="0 -100 511.9992 511" width="511pt" xmlns="http://www.w3.org/2000/svg"><path d="m220.113281 7.921875c37.339844-1.273437 76.210938.035156 113.140625 5.632813 17.402344 2.636718 34.851563 6.003906 51.359375 12.269531 8.429688 3.199219 16.589844 7.132812 24.1875 12.007812 35.066407 22.484375 68.839844 58.4375 83.382813 98.113281 13.003906 35.480469 21.101562 87.269532-1.230469 120.542969-15.828125 23.582031-44.519531 27.820313-70.464844 31.6875-12.214843 1.820313-24.53125 2.792969-36.796875 4.199219-23.828125 2.738281-112.375 7.894531-132.632812 10.058594-11.882813 1.265625-27.351563 2.699218-33.667969-10.144532-9.882813-20.101562-6.109375-51.039062-11.078125-73.023437-4.308594-19.058594-11.339844-37.371094-18.417969-55.582031-10.769531-27.695313-21.722656-55.320313-32.8125-82.890625-4.757812-11.832031-8.246093-25.519531-16.761719-34.972657-4.945312-5.496093-16.246093-16.191406-6.035156-23.375 1.429688-1.003906 3.136719-1.511718 4.8125-2 15.75-4.613281 31.890625-7.804687 48.175782-9.832031 11.578124-1.445312 23.195312-2.296875 34.839843-2.691406zm0 0" fill="#d33737"/><path d="m490.953125 256.492188c-15.832031 23.570312-44.515625 27.816406-70.46875 31.679687-5.449219.820313-10.90625 1.464844-16.386719 2.042969 17.941406-4.402344 34.691406-11.933594 45.621094-28.222656 23.539062-35.082032 15.003906-89.695313 1.292969-127.105469-15.332031-41.835938-50.941407-79.742188-87.921875-103.457031-8.007813-5.128907-16.617188-9.28125-25.503906-12.652344-9.15625-3.476563-18.589844-6.105469-28.144532-8.21875 8 .808594 15.949219 1.804687 23.808594 3 17.40625 2.628906 34.859375 5.996094 51.359375 12.265625 8.429687 3.195312 16.597656 7.132812 24.191406 12.003906 35.066407 22.484375 68.839844 58.441406 83.386719 98.113281 13.003906 35.488282 21.101562 87.273438-1.234375 120.550782zm0 0" fill="#bc2222"/><path d="m77.730469 51.914062c-18.710938 19.582032-31.4375 44.023438-42.929688 68.550782-15.398437 32.871094-42.035156 101.753906-18.542969 135.964844 11.742188 17.09375 34.007813 24.429687 52.570313 31.054687 12.324219 4.398437 25 7.738281 37.898437 9.9375 40.972657 6.980469 91.089844 11.023437 132.230469 4.800781 21.246094-3.214844 51.507813-10.414062 64.082031-29.296875 27.105469-40.707031 7.46875-106.1875-11.671874-145.535156-13.757813-28.285156-31.875-54.957031-56.246094-74.84375-46.996094-38.34375-113.328125-46.738281-157.390625-.632813zm0 0" fill="#ffc1b8"/><path d="m303.035156 272.917969c-12.574218 18.890625-42.832031 26.09375-64.082031 29.300781-20.214844 3.0625-42.589844 3.636719-64.976563 2.601562 9.117188-.46875 18.011719-1.316406 26.519532-2.601562 21.242187-3.207031 51.507812-10.410156 64.082031-29.300781 27.097656-40.695313 7.460937-106.183594-11.675781-145.527344-13.757813-28.28125-31.871094-54.964844-56.238282-74.847656-19.269531-15.710938-41.777343-26.402344-64.671874-30.367188 35.019531-6.457031 73.039062 5.816407 103.125 30.367188 24.378906 19.882812 42.492187 46.566406 56.25 74.847656 19.140624 39.347656 38.777343 104.832031 11.667968 145.527344zm0 0" fill="#ffb3a8"/><path d="m240.976562 129.234375c.976563-16.929687-5.480468-34.996094-16.8125-47.257813-11.765624-12.726562-27.363281-21.773437-43.410156-27.980468-26.859375-10.386719-64.5-11.847656-74.972656 21.332031-1.574219 4.996094-2.003906 10.542969-.050781 15.402344 3.351562 8.324219 12.527343 12.507812 21.015625 15.410156 9.289062 3.175781 18.773437 5.777344 28.378906 7.789063 6.433594 1.347656 13.023438 2.460937 18.925781 5.367187 15.925781 7.84375 20.660157 29.078125 35.761719 36.351563 17.753906 8.546874 29.511719-8.195313 31.015625-24.457032.0625-.652344.109375-1.304687.148437-1.957031zm0 0" fill="#e57670"/><path d="m240.976562 129.238281c-.039062.644531-.089843 1.304688-.148437 1.953125-.90625 9.78125-5.519531 19.742188-12.921875 24.257813.9375-2.851563 1.554688-5.847657 1.832031-8.828125.058594-.648438.109375-1.304688.148438-1.953125.976562-16.9375-5.488281-35-16.816407-47.261719-11.765624-12.726562-27.367187-21.769531-43.40625-27.976562-20.1875-7.8125-46.457031-10.582032-62.707031 2.617187 11.855469-29.789063 47.851563-28.082031 73.792969-18.050781 16.050781 6.207031 31.652344 15.253906 43.410156 27.976562 11.335938 12.265625 17.792969 30.335938 16.816406 47.265625zm0 0" fill="#e05c56"/><path d="m55.914062 173.164062c-4.8125-15.460937-3.023437-35.03125 6.1875-45.410156 8.777344-9.894531 25.835938-8.238281 36.480469-3.132812 7.492188 3.59375 14.6875 8.375 22.929688 9.464844 15.582031 2.066406 23.671875-1.574219 34.285156 11.574218 29.714844 36.820313-14.125 55.449219-45.195313 58.890625-9.132812 1.011719-18.582031.871094-27.238281-2.207031-12.023437-4.277344-23.660156-17.023438-27.449219-29.179688zm0 0" fill="#e57670"/><path d="m147.355469 193.585938c4.105469-8.617188 2.808593-19.378907-7.722657-32.429688-10.609374-13.148438-18.699218-9.503906-34.28125-11.566406-8.238281-1.09375-15.433593-5.878906-22.933593-9.472656-7.191407-3.449219-17.316407-5.320313-25.824219-3.121094 1.386719-3.515625 3.21875-6.664063 5.507812-9.246094 8.777344-9.890625 25.835938-8.238281 36.476563-3.125 7.5 3.585938 14.695313 8.367188 22.933594 9.464844 15.582031 2.0625 23.671875-1.574219 34.28125 11.574218 18.234375 22.585938 8.777343 38.328126-8.4375 47.921876zm0 0" fill="#e05c56"/><path d="m239.035156 201.214844c-7.960937 14.902344-23.441406 25.234375-23.140625 43.453125.082031 4.910156.5 9.921875 2.464844 14.417969 4.429687 10.140624 16.332031 15.652343 27.367187 14.832031 11.035157-.820313 21.09375-6.953125 29.015626-14.679688 3.984374-3.886719 7.597656-8.292969 9.707031-13.445312 5.644531-13.800781 1.871093-28.207031.472656-42.117188-1.335937-13.308593-2.785156-24.417969-12.453125-34.773437-6.898438-7.390625-17.90625-4.433594-24.007812 2.734375-6.746094 7.941406-3.992188 18.042969-8.28125 27.289062-.363282.773438-.742188 1.535157-1.144532 2.289063zm0 0" fill="#e57670"/><path d="m284.441406 245.792969c-2.101562 5.148437-5.71875 9.5625-9.703125 13.449219-7.917969 7.71875-17.980469 13.855468-29.011719 14.675781-3.578124.265625-7.242187-.132813-10.710937-1.136719 8.429687-2.253906 16.089844-7.394531 22.398437-13.539062 3.984376-3.886719 7.589844-8.300782 9.703126-13.453126 5.648437-13.796874 1.871093-28.203124.46875-42.113281-1.335938-13.308593-2.78125-24.417969-12.445313-34.777343-.539063-.570313-1.09375-1.085938-1.671875-1.535157 6.046875-3.714843 13.726562-4.113281 18.996094 1.535157 9.664062 10.359374 11.121094 21.46875 12.457031 34.777343 1.394531 13.910157 5.171875 28.316407-.480469 42.117188zm0 0" fill="#e05c56"/><path d="m127.34375 235.699219c-19.035156 2.066406-38.246094-1.742188-56.316406-7.519531-5.632813-1.804688-11.371094-3.824219-17.335938-3.613282-5.964844.210938-12.300781 3.308594-14.050781 8.667969-2.78125 8.53125 6.757813 15.800781 15.226563 19.765625 34.617187 16.222656 73.519531 24.445312 112.347656 23.75 3.671875-.066406 7.480468-.246094 10.742187-1.84375 6.585938-3.230469 8.800781-11.113281 8.714844-18.054688-.085937-6.9375-1.738281-13.984374.019531-20.742187 2.351563-9.039063 13.519532-18.050781 11.664063-27.785156-2.261719-11.871094-11.914063-9.957031-18.464844-3.417969-16.050781 16.023438-27.464844 28.0625-52.546875 30.792969zm0 0" fill="#e57670"/><path d="m194.976562 221.023438c-4.011718-3.546876-10.359374-1.226563-15.082031 3.488281-16.050781 16.019531-27.46875 28.054687-52.554687 30.785156-19.027344 2.070313-38.238282-1.734375-56.308594-7.511719-5.640625-1.804687-11.378906-3.828125-17.335938-3.617187-3.050781.109375-6.195312.964843-8.777343 2.5-4.234375-3.746094-6.933594-8.367188-5.28125-13.429688 1.753906-5.359375 8.089843-8.457031 14.058593-8.667969 5.957032-.21875 11.695313 1.804688 17.335938 3.605469 18.074219 5.78125 37.28125 9.597657 56.308594 7.523438 25.085937-2.730469 36.503906-14.765625 52.554687-30.785157 6.546875-6.546874 16.199219-8.457031 18.460938 3.40625.828125 4.363282-.945313 8.570313-3.378907 12.703126zm0 0" fill="#e05c56"/><path d="m498.734375 133.546875c-13.902344-37.925781-46.113281-75.902344-86.167969-101.589844-7.566406-4.851562-16.140625-9.109375-25.476562-12.65625-17.953125-6.8125-36.761719-10.214843-52.789063-12.640625-13.492187-2.046875-27.796875-3.601562-42.523437-4.625-3.863282-.277344-7.175782 2.628906-7.441406 6.472656-.269532 3.839844 2.628906 7.171876 6.472656 7.441407 14.355468.996093 28.28125 2.511719 41.402344 4.5 15.300781 2.316406 33.203124 5.546875 49.925781 11.894531 8.4375 3.203125 16.144531 7.023438 22.902343 11.355469 37.582032 24.097656 67.710938 59.480469 80.597657 94.644531 13.011719 35.507812 19.722656 84.167969-.472657 114.257812-14.085937 20.984376-40.261718 24.886719-65.578124 28.65625l-.125.019532c-7.898438 1.175781-16.0625 2.015625-23.953126 2.824218-4.128906.425782-8.398437.863282-12.609374 1.347657-12.816407 1.472656-45.707032 3.730469-74.71875 5.722656-5.410157.371094-10.753907.738281-15.902344 1.09375 7.125-4.457031 12.664062-9.613281 16.566406-15.476563 13.128906-19.71875 17.371094-46.015624 12.597656-78.164062-4.707031-31.734375-16.933594-60.160156-23.804687-74.28125-15.9375-32.769531-35.488281-58.746094-58.109375-77.199219-17.101563-13.957031-36.40625-23.933593-56.164063-29.238281.925781-.125 1.84375-.257812 2.773438-.375 10.820312-1.347656 22.332031-2.234375 34.214843-2.640625 12.617188-.429687 25.105469-.546875 37.121094-.351563.039063 0 .078125.003907.117188.003907 3.800781 0 6.910156-3.046875 6.972656-6.859375.0625-3.851563-3.007812-7.027344-6.859375-7.089844-12.246094-.199219-24.976563-.082031-37.828125.355469-12.300781.421875-24.230469 1.34375-35.464844 2.742187-27.019531 3.367188-58.441406 8.886719-82.878906 21.574219-10.761719 5.585937-20.46875 13.074219-28.839844 21.828125-18.261718 19.109375-30.878906 41.96875-44.203125 70.414062-6.457031 13.777344-18.203125 41.050782-24.351562 68.9375-7.160157 32.46875-5.015625 57.34375 6.375 73.929688 12.515625 18.226562 35.28125 26.320312 53.574219 32.824219l2.398437.855469c12.75 4.546874 25.894531 7.992187 39.074219 10.238281 20.242187 3.449219 53.492187 7.988281 88.28125 7.988281 19.382812 0 38.828125-.875 57.960937-2.914062 9.09375-.972657 32.527344-2.582032 57.335938-4.28125 30.585937-2.101563 62.21875-4.273438 75.351562-5.78125 4.132813-.476563 8.355469-.910157 12.445313-1.328126 8.046875-.828124 16.367187-1.683593 24.582031-2.90625l.125-.019531c26.992187-4.019531 57.585937-8.578125 75.105469-34.679687 29.089844-43.339844 8.875-108.03125 1.988281-126.824219zm-260.820313 161.777344c-46.992187 7.105469-101.628906.054687-130.015624-4.78125-12.378907-2.109375-24.738282-5.347657-36.726563-9.625l-2.417969-.863281c-17.242187-6.128907-36.789062-13.078126-46.746094-27.574219-9.117187-13.277344-10.546874-34.484375-4.25-63.035157 5.855469-26.566406 17.148438-52.769531 23.359376-66.023437 12.742187-27.203125 24.703124-48.953125 41.65625-66.691406 44.082031-46.125 107.585937-31.703125 147.9375 1.21875 21.039062 17.164062 39.335937 41.554687 54.382812 72.492187 6.519531 13.402344 18.117188 40.34375 22.554688 70.230469 4.246093 28.621094.742187 51.628906-10.414063 68.386719-8.5 12.761718-28.457031 21.601562-59.320313 26.265625zm0 0"/><path d="m230.816406 161.828125c9.230469-5.222656 15.730469-16.71875 16.957032-30.003906.066406-.730469.125-1.464844.164062-2.195313 1.078125-18.699218-6.066406-38.769531-18.65625-52.386718-11.40625-12.34375-26.886719-22.351563-46.011719-29.75-22.417969-8.667969-45.21875-9.320313-60.992187-1.738282-11.324219 5.441406-19.109375 14.683594-23.148438 27.476563-2.289062 7.253906-2.242187 14.207031.132813 20.105469 4.460937 11.082031 15.828125 16.191406 25.230469 19.40625 9.523437 3.253906 19.351562 5.953124 29.203124 8.015624.785157.164063 1.574219.324219 2.367188.488282 5.410156 1.105468 10.519531 2.152344 14.90625 4.308594 6.449219 3.175781 10.953125 9.582031 15.722656 16.371093 5.402344 7.679688 10.984375 15.621094 20.09375 20.003907 4.558594 2.195312 8.683594 3.019531 12.3125 3.019531 4.851563 0 8.8125-1.476563 11.71875-3.121094zm-17.980468-12.464844c-5.835938-2.8125-10.15625-8.957031-14.730469-15.460937-5.308594-7.554688-11.328125-16.113282-20.976563-20.863282-5.992187-2.949218-12.234375-4.226562-18.273437-5.460937-.765625-.15625-1.535157-.3125-2.300781-.472656-9.292969-1.945313-18.566407-4.492188-27.550782-7.5625-6.589844-2.253907-14.453125-5.585938-16.800781-11.417969-1.140625-2.824219-1.058594-6.625.230469-10.699219 2.871094-9.09375 8.066406-15.34375 15.886718-19.101562 5.484376-2.636719 12.207032-3.941407 19.640626-3.941407 9.324218 0 19.765624 2.054688 30.277343 6.121094 17.125 6.621094 30.855469 15.4375 40.804688 26.207032 10.105469 10.929687 15.839843 27.070312 14.972656 42.121093 0 0 0 .003907-.003906.007813-.03125.574218-.074219 1.144531-.125 1.707031-.789063 8.535156-4.78125 16.226563-9.9375 19.144531-3.226563 1.824219-6.859375 1.71875-11.113281-.328125zm0 0"/><path d="m81.027344 208.914062c5.96875 2.121094 12.570312 3.171876 20.027344 3.171876 2.519531 0 5.132812-.121094 7.855468-.359376 3.835938-.335937 6.671875-3.71875 6.335938-7.554687-.335938-3.839844-3.714844-6.683594-7.558594-6.339844-8.738281.765625-15.929688.09375-21.988281-2.0625-9.734375-3.460937-19.894531-14.300781-23.125-24.679687-4.382813-14.078125-2.34375-30.71875 4.742187-38.710938 6.449219-7.265625 20.398438-5.234375 28.246094-1.472656 1.699219.8125 3.386719 1.695312 5.171875 2.628906 6.085937 3.183594 12.382813 6.472656 19.859375 7.464844 4.0625.535156 7.601562.710938 10.726562.867188 8.90625.441406 12.96875.640624 19.050782 8.171874 6.789062 8.414063 9.449218 15.855469 7.90625 22.113282-1.695313 6.855468-8.867188 13.328125-20.207032 18.226562-3.535156 1.527344-5.160156 5.632813-3.632812 9.167969s5.628906 5.167969 9.167969 3.636719c15.652343-6.765625 25.410156-16.339844 28.210937-27.6875 2.644532-10.71875-.917968-22.230469-10.59375-34.214844-10.003906-12.394531-19.335937-12.855469-29.214844-13.347656-2.992187-.148438-6.089843-.300782-9.582031-.761719-5.03125-.667969-9.984375-3.257813-15.230469-6-1.8125-.945313-3.683593-1.925781-5.601562-2.84375-14.105469-6.761719-33.992188-7.289063-44.710938 4.792969-10.394531 11.71875-13.53125 33.148437-7.625 52.117187 4.542969 14.582031 17.902344 28.746094 31.769532 33.675781zm0 0"/><path d="m292.851562 211.078125c-.371093-2.804687-.726562-5.453125-.992187-8.101563-1.242187-12.355468-2.648437-26.359374-14.292969-38.832031-4.039062-4.328125-9.503906-6.628906-15.425781-6.503906-6.976563.160156-14.074219 3.703125-18.992187 9.484375-5.21875 6.136719-6.148438 12.925781-6.96875 18.914062-.492188 3.597657-.957032 7-2.332032 9.957032-.289062.625-.613281 1.277344-.964844 1.933594-2.382812 4.464843-5.605468 8.570312-9.011718 12.914062-7.121094 9.078125-15.191406 19.367188-14.945313 33.941406.085938 5.207032.515625 11.308594 3.042969 17.09375 5.03125 11.515625 17.726562 19.097656 31.496094 19.097656.921875 0 1.851562-.035156 2.777344-.101562 14.585937-1.085938 26.195312-9.648438 33.367187-16.640625 5.410156-5.273437 9.105469-10.441406 11.296875-15.800781 5.226562-12.785156 3.484375-25.839844 1.945312-37.355469zm-14.859374 32.074219c-1.472657 3.601562-4.050782 7.128906-8.117188 11.09375-5.515625 5.375-14.269531 11.945312-24.664062 12.71875-8.859376.667968-17.472657-3.828125-20.460938-10.667969-1.542969-3.535156-1.816406-7.917969-1.878906-11.746094-.164063-9.625 5.460937-16.792969 11.972656-25.09375 3.628906-4.628906 7.382812-9.414062 10.34375-14.957031.476562-.890625.917969-1.777344 1.316406-2.636719 2.253906-4.855469 2.914063-9.679687 3.496094-13.933593.667969-4.882813 1.195312-8.738282 3.773438-11.769532 2.304687-2.710937 5.714843-4.507812 8.6875-4.574218.0625-.003907.121093-.003907.179687-.003907 1.878906 0 3.425781.679688 4.730469 2.078125 7.863281 8.425782 9.253906 17.222656 10.609375 30.710938.289062 2.875.671875 5.757812 1.046875 8.550781 1.433594 10.742187 2.785156 20.886719-1.035156 30.230469zm0 0"/><path d="m194.550781 193.359375c-6.203125-1.914063-13.523437.558594-19.585937 6.613281l-1.308594 1.308594c-15.121094 15.113281-25.113281 25.097656-47.070312 27.484375-15.484376 1.6875-32.964844-.679687-53.433594-7.230469l-1.25-.402344c-5.492188-1.769531-11.699219-3.773437-18.457032-3.535156-8.078124.289063-17.527343 4.566406-20.433593 13.472656-3.4375 10.535157 3.628906 21.09375 18.894531 28.246094 34.207031 16.027344 72.398438 24.445313 110.742188 24.445313 1.5625 0 3.128906-.011719 4.691406-.039063 4.453125-.082031 9.179687-.34375 13.6875-2.554687 8.039062-3.945313 12.757812-13.066407 12.617187-24.402344-.027343-2.433594-.226562-4.796875-.414062-7.078125-.355469-4.292969-.695313-8.347656.210937-11.824219.644532-2.488281 2.609375-5.519531 4.683594-8.730469 3.886719-6.007812 8.726562-13.484374 7.082031-22.113281-1.824219-9.59375-7.460937-12.675781-10.65625-13.660156zm-8.132812 28.199219c-2.585938 3.996094-5.261719 8.128906-6.476563 12.796875-1.503906 5.773437-1.027344 11.46875-.609375 16.488281.175781 2.136719.34375 4.152344.367188 6.097656.054687 4.488282-1.179688 9.921875-4.8125 11.707032-1.9375.949218-4.792969 1.074218-7.792969 1.128906-37.78125.683594-75.582031-7.304688-109.265625-23.089844-6.40625-3.003906-12.636719-7.980469-11.554687-11.289062.652343-2 4.089843-3.734376 7.667968-3.859376.207032-.007812.414063-.011718.621094-.011718 4.113281 0 8.464844 1.402344 13.0625 2.882812l1.277344.410156c22.367187 7.15625 41.730468 9.710938 59.195312 7.808594 26.835938-2.917968 39.449219-15.523437 55.417969-31.484375l1.300781-1.300781c2.757813-2.753906 5.132813-3.277344 5.542969-3.199219.175781.136719.765625.976563 1.148437 2.984375.59375 3.136719-2.296874 7.605469-5.089843 11.929688zm0 0"/></svg>