<svg height="480pt" viewBox="-28 0 480 480" width="480pt" xmlns="http://www.w3.org/2000/svg"><path d="m176 480h-16c.101562-8.042969 3.816406-15.617188 10.113281-20.625 3.628907-3.519531 5.238281-5.238281 5.238281-9.128906 0-3.886719-1.597656-5.597656-5.238281-9.125-6.382812-4.933594-10.117187-12.546875-10.117187-20.613282 0-8.066406 3.734375-15.675781 10.117187-20.613281 3.710938-3.605469 5.230469-5.222656 5.230469-9.101562 0-3.882813-1.519531-5.496094-5.238281-9.105469-6.382813-4.925781-10.117188-12.535156-10.117188-20.59375 0-8.0625 3.734375-15.667969 10.117188-20.597656 3.710937-3.601563 5.230469-5.214844 5.230469-9.097656 0-3.878907-1.519532-5.496094-5.230469-9.09375-6.296875-5.003907-10.007813-12.570313-10.105469-20.609376-.125-6.554687 1.589844-13.011718 4.953125-18.640624 2.113281-3.289063 3.175781-7.144532 3.046875-11.054688h16c.128906 6.558594-1.589844 13.019531-4.960938 18.648438-2.105468 3.289062-3.167968 7.140624-3.039062 11.046874 0 3.878907 1.511719 5.496094 5.230469 9.105469 6.386719 4.925781 10.125 12.535157 10.125 20.597657 0 8.066406-3.738281 15.675781-10.125 20.601562-3.726563 3.601562-5.230469 5.214844-5.230469 9.097656 0 3.878906 1.511719 5.488282 5.230469 9.09375 6.386719 4.929688 10.125 12.535156 10.125 20.601563 0 8.0625-3.738281 15.671875-10.125 20.597656-3.71875 3.609375-5.230469 5.226563-5.230469 9.105469s1.601562 5.601562 5.238281 9.128906c6.378907 4.941406 10.113281 12.554688 10.113281 20.621094 0 8.070312-3.734374 15.683594-10.113281 20.625-3.636719 3.527344-5.238281 5.242187-5.238281 9.128906zm0 0" fill="#aabece"/><path d="m256 472h-16c0-3.800781-1.601562-5.414062-5.449219-9.015625-6.628906-4.828125-10.550781-12.535156-10.550781-20.738281 0-8.199219 3.921875-15.90625 10.550781-20.734375 3.882813-3.601563 5.449219-5.214844 5.449219-9.015625 0-3.800782-1.601562-5.390625-5.449219-8.992188-6.628906-4.816406-10.554687-12.515625-10.554687-20.710937 0-8.195313 3.925781-15.894531 10.554687-20.714844 3.875-3.589844 5.441407-5.207031 5.441407-8.980469 0-3.777344-1.601563-5.394531-5.441407-8.984375-6.628906-4.816406-10.554687-12.519531-10.554687-20.714843 0-8.195313 3.925781-15.894532 10.554687-20.710938 3.882813-3.589844 5.449219-5.199219 5.449219-8.992188.121094-3.882812-.976562-7.703124-3.144531-10.925781-3.515625-5.621093-5.320313-12.140625-5.191407-18.769531h16c-.121093 3.882812.976563 7.710938 3.144532 10.9375 3.519531 5.613281 5.324218 12.132812 5.191406 18.757812-.140625 8.164063-4.03125 15.804688-10.550781 20.71875-3.882813 3.59375-5.449219 5.203126-5.449219 8.984376 0 3.785156 1.601562 5.394531 5.449219 8.984374 6.628906 4.816407 10.554687 12.519532 10.554687 20.714844 0 8.195313-3.925781 15.894532-10.554687 20.710938-3.882813 3.589844-5.449219 5.199218-5.449219 8.984375 0 3.78125 1.601562 5.390625 5.449219 8.992187 6.640625 4.8125 10.570312 12.519532 10.570312 20.722656 0 8.203126-3.929687 15.910157-10.570312 20.722657-3.882813 3.601562-5.449219 5.21875-5.449219 9.015625 0 3.800781 1.601562 5.417968 5.449219 9.019531 6.515625 4.921875 10.40625 12.566406 10.550781 20.734375zm0 0" fill="#aabece"/><path d="m128 472h-16c0-3.800781-1.601562-5.414062-5.449219-9.015625-6.628906-4.828125-10.550781-12.535156-10.550781-20.738281 0-8.199219 3.921875-15.90625 10.550781-20.734375 3.882813-3.601563 5.449219-5.214844 5.449219-9.015625 0-3.800782-1.601562-5.390625-5.449219-8.992188-6.628906-4.816406-10.554687-12.515625-10.554687-20.710937 0-8.195313 3.925781-15.894531 10.554687-20.714844 3.875-3.589844 5.441407-5.207031 5.441407-8.980469 0-3.777344-1.601563-5.394531-5.441407-8.984375-6.628906-4.816406-10.554687-12.519531-10.554687-20.714843 0-8.195313 3.925781-15.894532 10.554687-20.710938 3.882813-3.589844 5.449219-5.199219 5.449219-8.992188.121094-3.882812-.976562-7.703124-3.144531-10.925781-3.515625-5.621093-5.320313-12.140625-5.191407-18.769531h16c-.121093 3.882812.976563 7.710938 3.144532 10.9375 3.519531 5.613281 5.324218 12.132812 5.191406 18.757812-.140625 8.164063-4.03125 15.804688-10.550781 20.71875-3.882813 3.59375-5.449219 5.203126-5.449219 8.984376 0 3.785156 1.601562 5.394531 5.449219 8.984374 6.628906 4.816407 10.554687 12.519532 10.554687 20.714844 0 8.195313-3.925781 15.894532-10.554687 20.710938-3.882813 3.589844-5.449219 5.199218-5.449219 8.984375 0 3.78125 1.601562 5.390625 5.449219 8.992187 6.640625 4.8125 10.570312 12.519532 10.570312 20.722656 0 8.203126-3.929687 15.910157-10.570312 20.722657-3.882813 3.601562-5.449219 5.21875-5.449219 9.015625 0 3.800781 1.601562 5.417968 5.449219 9.019531 6.515625 4.921875 10.40625 12.566406 10.550781 20.734375zm0 0" fill="#aabece"/><path d="m304.648438 472h-16c.105468-8.042969 3.816406-15.613281 10.113281-20.625 3.628906-3.519531 5.238281-5.238281 5.238281-9.128906 0-3.886719-1.601562-5.597656-5.238281-9.125-6.382813-4.933594-10.117188-12.546875-10.117188-20.613282 0-8.066406 3.734375-15.675781 10.117188-20.613281 3.71875-3.605469 5.230469-5.222656 5.230469-9.101562 0-3.882813-1.511719-5.496094-5.238282-9.105469-6.382812-4.925781-10.117187-12.535156-10.117187-20.59375 0-8.0625 3.734375-15.667969 10.117187-20.597656 3.71875-3.601563 5.230469-5.214844 5.230469-9.097656 0-3.878907-1.511719-5.496094-5.230469-9.09375-6.300781-5-10.015625-12.566407-10.121094-20.609376-.125-6.554687 1.589844-13.011718 4.953126-18.640624 2.117187-3.289063 3.1875-7.144532 3.0625-11.054688h16c.128906 6.558594-1.589844 13.019531-4.960938 18.648438-2.105469 3.289062-3.167969 7.140624-3.039062 11.046874 0 3.878907 1.519531 5.496094 5.230468 9.105469 6.382813 4.925781 10.121094 12.535157 10.121094 20.597657 0 8.066406-3.738281 15.675781-10.121094 20.601562-3.71875 3.601562-5.230468 5.214844-5.230468 9.097656 0 3.878906 1.519531 5.488282 5.230468 9.09375 6.382813 4.929688 10.121094 12.535156 10.121094 20.601563 0 8.0625-3.738281 15.671875-10.121094 20.597656-3.710937 3.609375-5.230468 5.226563-5.230468 9.105469s1.597656 5.601562 5.238281 9.128906c6.378906 4.941406 10.113281 12.554688 10.113281 20.621094 0 8.070312-3.734375 15.683594-10.113281 20.625-3.628907 3.527344-5.238281 5.242187-5.238281 9.128906zm0 0" fill="#aabece"/><path d="m376 184c0-83.945312-75.199219-176-168-176s-168 92.054688-168 176c-1.210938 18.441406 4.445312 36.679688 15.878906 51.199219-8.941406 10.285156-10.359375 25.117187-3.53125 36.910156s20.394532 17.949219 33.765625 15.3125c13.371094-2.632813 23.59375-13.472656 25.4375-26.972656l.800781.117187c-.175781 1.136719-.292968 2.285156-.351562 3.433594 0 17.671875 14.328125 32 32 32s32-14.328125 32-32c0 17.671875 14.328125 32 32 32s32-14.328125 32-32c0 17.671875 14.328125 32 32 32s32-14.328125 32-32c-.054688-1.15625-.167969-2.304688-.34375-3.449219l.800781-.117187c1.804688 13.542968 12.027344 24.4375 25.429688 27.09375 13.40625 2.660156 27.011719-3.507813 33.847656-15.339844s5.382813-26.703125-3.613281-36.988281c11.433594-14.519531 17.089844-32.757813 15.878906-51.199219zm0 0" fill="#6a9eaa"/><g fill="#cfdfe8"><path d="m87.648438 146.351562-15.296876-4.703124c11.453126-42.167969 40.785157-77.210938 80.28125-95.90625 17.351563-8.230469 36.179688-12.902344 55.367188-13.742188v16c-3.664062 0-90.542969 1.496094-120.351562 98.351562zm0 0"/><path d="m64 160h16v16h-16zm0 0"/><path d="m320 112c0 17.671875-14.328125 32-32 32s-32-14.328125-32-32 14.328125-32 32-32 32 14.328125 32 32zm0 0"/><path d="m264 184c0 13.253906-10.746094 24-24 24s-24-10.746094-24-24 10.746094-24 24-24 24 10.746094 24 24zm0 0"/><path d="m336 208c0 8.835938-7.164062 16-16 16s-16-7.164062-16-16 7.164062-16 16-16 16 7.164062 16 16zm0 0"/></g><path d="m40 40c0 8.835938-7.164062 16-16 16s-16-7.164062-16-16 7.164062-16 16-16 16 7.164062 16 16zm0 0" fill="#7fcac9"/><path d="m416 80c0 8.835938-7.164062 16-16 16s-16-7.164062-16-16 7.164062-16 16-16 16 7.164062 16 16zm0 0" fill="#7fcac9"/><path d="m208 0c-99.121094 0-176 98.910156-176 184-.894531 18.15625 3.957031 36.128906 13.863281 51.367188-9.980469 16.191406-6.980469 37.203124 7.136719 49.953124l-.207031.199219c2.066406 1.769531 3.238281 4.367188 3.199219 7.089844 0 3.878906-1.511719 5.496094-5.230469 9.09375-6.386719 4.929687-10.125 12.535156-10.125 20.601563 0 8.0625 3.738281 15.671874 10.125 20.597656 3.71875 3.601562 5.230469 5.21875 5.230469 9.097656s-1.511719 5.496094-5.230469 9.105469c-6.382813 4.933593-10.117188 12.542969-10.117188 20.609375s3.734375 15.679687 10.117188 20.613281c3.628906 3.519531 5.238281 5.238281 5.238281 9.128906 0 3.886719-1.601562 5.597657-5.238281 9.128907-6.296875 5.007812-10.007813 12.578124-10.113281 20.621093h16c0-3.886719 1.597656-5.597656 5.238281-9.128906 6.378906-4.9375 10.113281-12.554687 10.113281-20.621094 0-8.070312-3.734375-15.683593-10.113281-20.625-3.628907-3.519531-5.238281-5.238281-5.238281-9.128906 0-3.886719 1.519531-5.496094 5.230468-9.101563 6.382813-4.929687 10.121094-12.539062 10.121094-20.601562s-3.738281-15.671875-10.121094-20.601562c-3.710937-3.597657-5.230468-5.214844-5.230468-9.09375 0-3.878907 1.519531-5.488282 5.230468-9.097657 5.535156-4.496093 9.101563-10.972656 9.945313-18.054687 2.6875.558594 5.429687.84375 8.175781.847656 11-.027344 21.496094-4.605469 29-12.648438.328125.59375.734375 1.128907 1.097656 1.695313 1.375 2.667969 2.03125 5.648437 1.902344 8.648437 0 3.792969-1.601562 5.402344-5.449219 8.992188-6.628906 4.816406-10.554687 12.515625-10.554687 20.710938 0 8.195312 3.925781 15.898437 10.554687 20.714843 3.875 3.589844 5.441407 5.199219 5.441407 8.984375 0 3.78125-1.601563 5.390625-5.441407 8.980469-6.628906 4.820313-10.554687 12.519531-10.554687 20.714844 0 8.195312 3.925781 15.894531 10.554687 20.710937 3.882813 3.601563 5.449219 5.207032 5.449219 8.992188s-1.601562 5.414062-5.449219 9.015625c-6.628906 4.828125-10.550781 12.535156-10.550781 20.734375 0 8.203125 3.921875 15.910156 10.550781 20.738281 3.882813 3.601563 5.449219 5.214844 5.449219 9.015625h16c-.144531-8.167969-4.035156-15.8125-10.550781-20.734375-3.882813-3.601563-5.449219-5.21875-5.449219-9.019531 0-3.796875 1.601562-5.414063 5.449219-9.015625 6.640625-4.8125 10.570312-12.519531 10.570312-20.722657 0-8.203124-3.929687-15.910156-10.570312-20.722656-3.882813-3.601562-5.449219-5.210937-5.449219-8.992187 0-3.785157 1.601562-5.394531 5.449219-8.984375 6.628906-4.816406 10.554687-12.515625 10.554687-20.710938 0-8.195312-3.925781-15.898437-10.554687-20.714844-3.847657-3.582031-5.449219-5.183593-5.449219-8.984374 0-3.796876 1.601562-5.390626 5.449219-8.984376 4.566406-3.667968 7.941406-8.613281 9.695312-14.207031 10.402344 4.933594 22.441407 5.058594 32.945313.34375 0 .410157-.089844.722657-.089844 1.144531.101562 8.042969 3.820312 15.609376 10.121094 20.609376 3.710937 3.597656 5.230468 5.214843 5.230468 9.09375 0 3.882812-1.519531 5.496093-5.230468 9.097656-6.382813 4.929687-10.117188 12.535156-10.117188 20.597656 0 8.058594 3.734375 15.667969 10.117188 20.59375 3.71875 3.609375 5.238281 5.222656 5.238281 9.105469 0 3.878906-1.519531 5.496093-5.230469 9.101562-6.382812 4.9375-10.117187 12.546875-10.117187 20.613281 0 8.066407 3.734375 15.679688 10.117187 20.613282 3.632813 3.519531 5.238282 5.238281 5.238282 9.125 0 3.890625-1.597657 5.601562-5.238282 9.128906-6.304687 5.003906-10.023437 12.578125-10.128906 20.625h16c0-3.886719 1.601562-5.601562 5.238281-9.128906 6.378907-4.941406 10.113281-12.554688 10.113281-20.625 0-8.066406-3.734374-15.679688-10.113281-20.621094-3.628906-3.519531-5.238281-5.242188-5.238281-9.128906 0-3.886719 1.511719-5.496094 5.230469-9.105469 6.386719-4.925781 10.125-12.535156 10.125-20.597656 0-8.066407-3.738281-15.671875-10.125-20.601563-3.71875-3.605468-5.230469-5.222656-5.230469-9.09375 0-3.875 1.503906-5.496094 5.230469-9.097656 6.386719-4.925781 10.125-12.535156 10.125-20.601562 0-8.0625-3.738281-15.671876-10.125-20.597657-3.71875-3.601562-5.230469-5.199219-5.230469-9.105469-.132812-3.683593.820312-7.324218 2.742188-10.472656 7.945312 8.574219 19.25 13.234375 30.925781 12.742188 11.679687-.492188 22.554687-6.082032 29.746093-15.292969.40625 1.644531.605469 3.332031.585938 5.023437 0 3.792969-1.601562 5.402344-5.449219 8.992188-6.628906 4.816406-10.554687 12.515625-10.554687 20.710938 0 8.195312 3.925781 15.898437 10.554687 20.714843 3.875 3.589844 5.441407 5.199219 5.441407 8.984375 0 3.78125-1.601563 5.390625-5.441407 8.980469-6.628906 4.820313-10.554687 12.519531-10.554687 20.714844 0 8.195312 3.925781 15.894531 10.554687 20.710937 3.882813 3.601563 5.449219 5.207032 5.449219 8.992188s-1.601562 5.414062-5.449219 9.015625c-6.628906 4.828125-10.550781 12.535156-10.550781 20.734375 0 8.203125 3.921875 15.910156 10.550781 20.738281 3.882813 3.601563 5.449219 5.214844 5.449219 9.015625h16c-.144531-8.167969-4.035156-15.8125-10.550781-20.734375-3.882813-3.601563-5.449219-5.21875-5.449219-9.019531 0-3.796875 1.601562-5.414063 5.449219-9.015625 6.640625-4.8125 10.570312-12.519531 10.570312-20.722657 0-8.203124-3.929687-15.910156-10.570312-20.722656-3.882813-3.601562-5.449219-5.210937-5.449219-8.992187 0-3.785157 1.601562-5.394531 5.449219-8.984375 6.628906-4.816406 10.554687-12.515625 10.554687-20.710938 0-8.195312-3.925781-15.898437-10.554687-20.714844-3.847657-3.582031-5.449219-5.183593-5.449219-8.984374 0-3.796876 1.601562-5.390626 5.449219-8.984376 4.566406-3.667968 7.941406-8.613281 9.695312-14.207031 10.863281 5.15625 23.492188 5.050781 34.269531-.285156 1.617188 5.621094 4.875 10.636719 9.355469 14.398437 3.71875 3.601563 5.230469 5.214844 5.230469 9.09375 0 3.882813-1.511719 5.496094-5.230469 9.097657-6.382812 4.929687-10.117187 12.535156-10.117187 20.597656 0 8.058594 3.734375 15.667969 10.117187 20.59375 3.726563 3.609375 5.238281 5.226563 5.238281 9.105469s-1.511718 5.496094-5.230468 9.101562c-6.382813 4.9375-10.117188 12.546875-10.117188 20.613282 0 8.066406 3.734375 15.679687 10.117188 20.613281 3.628906 3.519531 5.238281 5.238281 5.238281 9.128906 0 3.886719-1.601563 5.597656-5.238281 9.125-6.296875 5.003906-10.015625 12.570313-10.128906 20.609375h16c0-3.886719 1.597656-5.601562 5.238281-9.128906 6.378906-4.941406 10.113281-12.554688 10.113281-20.625 0-8.066406-3.734375-15.679688-10.113281-20.621094-3.628907-3.519531-5.238281-5.242188-5.238281-9.128906 0-3.886719 1.519531-5.496094 5.230468-9.105469 6.382813-4.925781 10.121094-12.535156 10.121094-20.597656 0-8.066407-3.738281-15.671875-10.121094-20.601563-3.710937-3.605468-5.230468-5.222656-5.230468-9.09375 0-3.875 1.511718-5.496094 5.230468-9.097656 6.382813-4.925781 10.121094-12.535156 10.121094-20.601562 0-8.0625-3.738281-15.671876-10.121094-20.597657-3.710937-3.609375-5.230468-5.226562-5.230468-9.105469-.136719-3.5625.757812-7.085937 2.574218-10.152343 7.480469 7.917969 17.882813 12.421875 28.777344 12.457031h.230469c-.148438 1.136719-.226563 2.277344-.230469 3.425781.109375 8.03125 3.824219 15.585938 10.121094 20.574219 3.71875 3.601562 5.230468 5.214844 5.230468 9.097656 0 3.878906-1.519531 5.488282-5.230468 9.09375-6.382813 4.929688-10.121094 12.535156-10.121094 20.601563 0 8.0625 3.738281 15.671875 10.121094 20.597656 3.710937 3.609375 5.230468 5.226563 5.230468 9.105469s-1.597656 5.601562-5.238281 9.128906c-6.378906 4.941406-10.113281 12.554688-10.113281 20.621094 0 8.070312 3.734375 15.683594 10.113281 20.625 3.628907 3.519531 5.238281 5.242187 5.238281 9.128906h16c-.105468-8.042969-3.816406-15.613281-10.113281-20.625-3.628906-3.519531-5.238281-5.238281-5.238281-9.128906 0-3.886719 1.601562-5.597656 5.238281-9.125 6.382813-4.933594 10.117188-12.546875 10.117188-20.613282 0-8.066406-3.734375-15.675781-10.117188-20.613281-3.71875-3.605469-5.230469-5.222656-5.230469-9.101562 0-3.882813 1.511719-5.496094 5.238282-9.105469 6.382812-4.925781 10.117187-12.535156 10.117187-20.59375 0-8.0625-3.734375-15.667969-10.117187-20.597656-3.71875-3.601563-5.230469-5.214844-5.230469-9.097656 0-3.878907 1.511719-5.496094 5.242187-9.101563l1.429688-1.402344c17.5-11.917969 22.546875-35.484375 11.464844-53.527343 9.902344-15.242188 14.746094-33.214844 13.847656-51.367188 0-85.089844-76.878906-184-176-184zm146.078125 229.929688-4.550781 5.238281 4.535156 5.246093c3.808594 4.304688 5.917969 9.84375 5.9375 15.585938.027344 12.589844-9.703125 23.046875-22.265625 23.925781-12.558594.875-23.648437-8.132812-25.367187-20.605469l-1.902344-7.847656-15.601563 2.289063.992188 8.894531c.078125.445312.125.894531.144531 1.34375-.015625 10.519531-6.878906 19.800781-16.929688 22.898438-10.054687 3.097656-20.953124-.710938-26.886718-9.394532-.464844-.894531-.9375-1.777344-1.375-2.566406-.359375-.640625-.671875-1.21875-.976563-1.800781-1.207031-2.894531-1.832031-6-1.832031-9.136719h-16.335938c0 .703125.113282 1.230469.144532 1.886719-.941406 12.875-11.917969 22.683593-24.816406 22.175781-12.898438-.507812-23.070313-11.15625-22.992188-24.0625h-16c-.019531 10.515625-6.882812 19.789062-16.929688 22.886719-10.046874 3.097656-20.941406-.707031-26.878906-9.382813-.464844-.894531-.933594-1.777344-1.382812-2.574218-.359375-.640626-.671875-1.226563-.984375-1.808594-1.199219-2.894532-1.816407-5.992188-1.824219-9.121094.019531-.449219.066406-.898438.144531-1.34375l.183594-8.914062-15.527344-2.542969-1.136719 8.097656c-1.597656 12.582031-12.734374 21.734375-25.386718 20.859375-12.65625-.875-22.429688-11.472656-22.277344-24.15625.019531-5.742188 2.128906-11.28125 5.9375-15.585938l4.535156-5.246093-4.550781-5.238281c-10.125-13.082032-15.082031-29.429688-13.921875-45.929688 0-77.6875 69.886719-168 160-168s160 90.3125 160 168c1.160156 16.5-3.796875 32.847656-13.921875 45.929688zm0 0"/><path d="m208 32c-19.1875.839844-38.015625 5.511719-55.367188 13.742188-39.496093 18.695312-68.828124 53.738281-80.28125 95.90625l15.296876 4.703124c29.808593-96.855468 116.6875-98.351562 120.351562-98.351562zm0 0"/><path d="m64 160h16v16h-16zm0 0"/><path d="m288 72c-22.089844 0-40 17.910156-40 40s17.910156 40 40 40 40-17.910156 40-40c-.027344-22.082031-17.917969-39.972656-40-40zm0 64c-13.253906 0-24-10.746094-24-24s10.746094-24 24-24 24 10.746094 24 24-10.746094 24-24 24zm0 0"/><path d="m240 152c-17.671875 0-32 14.328125-32 32s14.328125 32 32 32 32-14.328125 32-32-14.328125-32-32-32zm0 48c-8.835938 0-16-7.164062-16-16s7.164062-16 16-16 16 7.164062 16 16-7.164062 16-16 16zm0 0"/><path d="m296 208c0 13.253906 10.746094 24 24 24s24-10.746094 24-24-10.746094-24-24-24-24 10.746094-24 24zm32 0c0 4.417969-3.582031 8-8 8s-8-3.582031-8-8 3.582031-8 8-8 8 3.582031 8 8zm0 0"/><path d="m24 16c-13.253906 0-24 10.746094-24 24s10.746094 24 24 24 24-10.746094 24-24-10.746094-24-24-24zm0 32c-4.417969 0-8-3.582031-8-8s3.582031-8 8-8 8 3.582031 8 8-3.582031 8-8 8zm0 0"/><path d="m424 80c0-13.253906-10.746094-24-24-24s-24 10.746094-24 24 10.746094 24 24 24 24-10.746094 24-24zm-32 0c0-4.417969 3.582031-8 8-8s8 3.582031 8 8-3.582031 8-8 8-8-3.582031-8-8zm0 0"/></svg>