<svg height="512pt" viewBox="-114 0 512 512" width="512pt" xmlns="http://www.w3.org/2000/svg"><path d="m241.582031 176.597656h-199.828125l-34.195312 256.792969c-5.050782 37.917969 24.453125 71.609375 62.707031 71.609375h142.804687c38.253907 0 67.753907-33.691406 62.707032-71.609375zm0 0" fill="#d5f3f7"/><path d="m213.066406 505.003906h-21c38.257813 0 67.757813-33.699218 62.707032-71.617187l-34.1875-256.789063h20.996093l34.191407 256.789063c5.046874 37.917969-24.453126 71.617187-62.707032 71.617187zm0 0" fill="#afeaf2"/><path d="m253.429688 176.597656h-223.523438c-3.425781 0-6.203125-2.777344-6.203125-6.203125v-34.101562c0-3.425781 2.777344-6.203125 6.203125-6.203125h223.523438c3.425781 0 6.203124 2.777344 6.203124 6.203125v34.101562c0 3.425781-2.777343 6.203125-6.203124 6.203125zm0 0" fill="#9c9c9c"/><path d="m259.632812 136.289062v34.109376c0 3.421874-2.78125 6.199218-6.199218 6.199218h-20.851563c3.421875 0 6.199219-2.777344 6.199219-6.199218v-34.109376c0-3.429687-2.777344-6.199218-6.199219-6.199218h20.851563c3.417968 0 6.199218 2.769531 6.199218 6.199218zm0 0" fill="#838383"/><path d="m250.976562 130.089844h-218.621093v-32.988282c0-49.761718 40.339843-90.101562 90.105469-90.101562h38.414062c49.761719 0 90.101562 40.339844 90.101562 90.101562zm0 0" fill="#bfbfbf"/><path d="m250.984375 97.101562v32.988282h-20.371094v-32.988282c0-49.757812-40.335937-90.105468-90.105469-90.105468h20.371094c49.753906 0 90.105469 40.347656 90.105469 90.105468zm0 0" fill="#acacac"/><path d="m201.429688 235.578125h-119.523438c-6.414062 0-11.832031 4.75-12.679688 11.105469l-22.808593 171.28125c-3.589844 26.933594 17.367187 50.863281 44.535156 50.863281h101.425781c27.171875 0 48.125-23.929687 44.539063-50.863281l-22.808594-171.28125c-.847656-6.355469-6.265625-11.105469-12.679687-11.105469zm0 0" fill="#e7e7e7"/><path d="m192.382812 468.824219h-26.058593c27.171875 0 48.128906-23.929688 44.539062-50.855469l-22.808593-171.285156c-.851563-6.359375-6.269532-11.109375-12.679688-11.109375h26.058594c6.410156 0 11.828125 4.75 12.679687 11.109375l22.808594 171.285156c3.582031 26.925781-17.367187 50.855469-44.539063 50.855469zm0 0" fill="#cecece"/><g fill="#111"><path d="m282.714844 432.464844-33.140625-248.867188h3.855469c7.277343 0 13.203124-5.921875 13.203124-13.203125v-34.101562c0-5.679688-3.613281-10.519531-8.65625-12.378907v-26.8125c0-53.542968-43.558593-97.101562-97.101562-97.101562h-38.414062c-53.542969 0-97.105469 43.558594-97.105469 97.101562v26.8125c-5.039063 1.859376-8.652344 6.695313-8.652344 12.378907v34.101562c0 7.28125 5.921875 13.203125 13.203125 13.203125h3.855469l-29.941407 224.84375c-.511718 3.832032 2.183594 7.351563 6.015626 7.863282 3.824218.503906 7.351562-2.183594 7.859374-6.015626l30.1875-226.691406h187.566407l33.386719 250.714844c2.140624 16.074219-2.757813 32.292969-13.441407 44.492188-10.683593 12.199218-26.109375 19.195312-42.324219 19.195312h-142.804687c-30.636719 0-55.878906-24.863281-56.265625-55.429688-.050781-3.863281-3.238281-6.976562-7.089844-6.910156-3.863281.050782-6.957031 3.222656-6.910156 7.089844.484375 38.183594 32.007812 69.25 70.265625 69.25h142.804687c20.25 0 39.515626-8.738281 52.859376-23.972656 13.339843-15.238282 19.457031-35.488282 16.785156-55.5625zm-243.359375-335.363282c0-45.824218 37.28125-83.101562 83.105469-83.101562h38.414062c45.824219 0 83.101562 37.28125 83.101562 83.101562v25.988282h-204.621093zm2.398437 72.496094h-11.050781v-32.511718h221.929687v32.511718zm0 0"/><path d="m76.164062 247.605469c.382813-2.863281 2.851563-5.027344 5.742188-5.027344h119.523438c2.890624 0 5.359374 2.164063 5.742187 5.027344l4.121094 30.953125c.511719 3.832031 4.03125 6.523437 7.863281 6.015625 3.832031-.511719 6.523438-4.03125 6.015625-7.863281l-4.125-30.953126c-1.300781-9.792968-9.734375-17.175781-19.617187-17.175781h-119.523438c-9.882812 0-18.316406 7.382813-19.621094 17.175781l-22.808594 171.285157c-1.976562 14.835937 2.546876 29.804687 12.410157 41.066406 9.859375 11.261719 24.097656 17.71875 39.066406 17.71875h101.425781c14.96875 0 29.210938-6.457031 39.070313-17.71875s14.382812-26.230469 12.40625-41.066406l-14.242188-106.96875c-.511719-3.835938-4.027343-6.523438-7.863281-6.015625-3.832031.511718-6.527344 4.03125-6.015625 7.863281l14.246094 106.96875c1.441406 10.839844-1.859375 21.769531-9.0625 29.996094-7.203125 8.226562-17.605469 12.945312-28.539063 12.945312h-101.425781c-10.933594 0-21.332031-4.71875-28.535156-12.945312-7.203125-8.222657-10.507813-19.15625-9.0625-29.996094zm0 0"/><path d="m115.398438 49.300781c-.964844-4.101562-5.074219-6.636719-9.171876-5.671875-4.101562.96875-6.640624 5.078125-5.671874 9.175782.96875 4.101562 5.078124 6.636718 9.175781 5.671874 4.097656-.96875 6.636719-5.078124 5.667969-9.175781zm0 0"/><path d="m149.078125 49.296875c-.964844-4.097656-5.074219-6.636719-9.171875-5.667969-4.101562.96875-6.640625 5.074219-5.671875 9.175782.96875 4.097656 5.078125 6.636718 9.175781 5.667968s6.636719-5.074218 5.667969-9.175781zm0 0"/><path d="m182.976562 51.066406c0 4.210938-3.417968 7.625-7.628906 7.625-4.210937 0-7.625-3.414062-7.625-7.625 0-4.210937 3.414063-7.628906 7.625-7.628906 4.210938 0 7.628906 3.417969 7.628906 7.628906zm0 0"/></g></svg>