<svg height="480pt" viewBox="-48 0 480 480" width="480pt" xmlns="http://www.w3.org/2000/svg"><g fill="#e97424"><path d="m168.003906 448c-12.496094 12.496094-30.625 17.375-40 8s-4.496094-27.503906 8-40c15.664063-13.714844 35.265625-22.117188 56-24 0 0-11.503906 43.503906-24 56zm0 0"/><path d="m215.859375 448c12.496094 12.496094 30.632813 17.375 40 8s4.496094-27.503906-8-40c-15.664063-13.714844-35.265625-22.117188-56-24 0 0 11.503906 43.503906 24 56zm0 0"/><path d="m24.003906 88h80v64c0 8.835938-7.164062 16-16 16h-48c-8.835937 0-16-7.164062-16-16zm0 0"/><path d="m192.003906 88s-40 17.070312-40 48v72c12.945313-4.332031 26.382813-7.019531 40-8 13.617188.980469 27.054688 3.667969 40 8v-72c0-30.929688-40-48-40-48zm0 0"/><path d="m152.003906 264h80v32h-80zm0 0"/><path d="m152.003906 328h80v32h-80zm0 0"/><path d="m344.003906 168h-48c-8.835937 0-16-7.164062-16-16v-64h80v64c0 8.835938-7.164062 16-16 16zm0 0"/></g><path d="m72.003906 8v80h-48v-32c0-26.507812 21.488282-48 48-48zm0 0" fill="#f3bb59"/><path d="m72.003906 24c17.671875 0 32 14.328125 32 32v32h-32zm0 0" fill="#e4544f"/><path d="m152.003906 264v-56c12.945313-4.332031 26.382813-7.019531 40-8 13.617188.980469 27.054688 3.667969 40 8v56zm0 0" fill="#f3bb59"/><path d="m152.003906 296h80v32h-80zm0 0" fill="#f3bb59"/><path d="m152.003906 360h80v32h-80zm0 0" fill="#f3bb59"/><path d="m216.003906 440c0 17.671875-10.746094 32-24 32-13.257812 0-24-14.328125-24-32s10.742188-48 24-48c13.253906 0 24 30.328125 24 48zm0 0" fill="#f3bb59"/><path d="m152.003906 136h24v16h-24zm0 0" fill="#394d5c"/><path d="m208.003906 136h24v16h-24zm0 0" fill="#394d5c"/><path d="m80.003906 216h72v32h-72zm0 0" fill="#e97424"/><path d="m48.003906 168h32v80h-32zm0 0" fill="#f3bb59"/><path d="m360.003906 88h-48v-80c26.507813 0 48 21.492188 48 48zm0 0" fill="#f3bb59"/><path d="m312.003906 88h-32v-32c0-17.671875 14.328125-32 32-32zm0 0" fill="#e4544f"/><path d="m304.003906 248h-72v-32h72zm0 0" fill="#e97424"/><path d="m336.003906 248h-32v-80h32zm0 0" fill="#f3bb59"/><path d="m152.003906 312h-40c-1.730468 0-3.414062-.5625-4.800781-1.601562l-32-24 9.601563-12.796876 29.863281 22.398438h37.335937zm0 0" fill="#e4544f"/><path d="m152.003906 352h-40c-1.453125 0-2.875-.394531-4.121094-1.144531l-40-24 8.242188-13.710938 38.09375 22.855469h37.785156zm0 0" fill="#e4544f"/><path d="m272.003906 312h-40v-16h37.335938l29.863281-22.398438 9.601563 12.796876-32 24c-1.386719 1.039062-3.070313 1.601562-4.800782 1.601562zm0 0" fill="#e4544f"/><path d="m272.003906 352h-40v-16h37.785156l38.09375-22.855469 8.242188 13.710938-40 24c-1.246094.75-2.671875 1.144531-4.121094 1.144531zm0 0" fill="#e4544f"/><path d="m40.363281 410.398438-40-128c-.792969-2.539063-.269531-5.304688 1.390625-7.382813l128-160c2.355469-2.945313 6.449219-3.847656 9.824219-2.160156l16 8-7.152344 14.320312-10.214843-5.113281-121.304688 151.609375 38.738281 123.929687zm0 0" fill="#e4544f"/><path d="m343.644531 410.398438-15.28125-4.796876 38.734375-123.945312-121.300781-151.609375-10.21875 5.113281-7.152344-14.320312 16-8c3.375-1.6875 7.46875-.785156 9.824219 2.160156l128 160c1.664062 2.078125 2.1875 4.84375 1.394531 7.382812zm0 0" fill="#e4544f"/><path d="m48.003906 112h16v16h-16zm0 0" fill="#f3bb59"/><path d="m320.003906 112h40v16h-40zm0 0" fill="#f3bb59"/><path d="m328.363281 405.601562 15.28125 4.796876 40-128c.792969-2.539063.269531-5.304688-1.394531-7.382813l-38.246094-47.816406v-51.199219c13.253906 0 24-10.746094 24-24v-96c-.035156-30.914062-25.085937-55.9648438-56-56h-8v16.800781c-18.613281 3.828125-31.976562 20.199219-32 39.199219v81.199219l-17.753906-22.199219c-2.355469-2.945312-6.449219-3.847656-9.824219-2.160156l-8.664062 4.335937c-10.878907-23.542969-39.140625-35.902343-40.613281-36.535156-2.011719-.847656-4.277344-.847656-6.289063 0-1.472656.632813-29.734375 12.992187-40.617187 36.535156l-8.664063-4.335937c-3.375-1.6875-7.46875-.785156-9.824219 2.160156l-17.75 22.199219v-81.199219c-.023437-19-13.390625-35.371094-32-39.199219v-16.800781h-8c-30.914062.0351562-55.964844 25.085938-56 56v96c0 13.253906 10.746094 24 24 24v51.199219l-38.25 47.800781c-1.660156 2.078125-2.183594 4.84375-1.390625 7.382812l40 128 15.28125-4.796874-38.738281-123.914063 24.058594-30.0625c1.332031 2.671875 4.050781 4.367187 7.039062 4.390625h96v40h-29.335937l-29.863281-22.398438-9.601563 12.796876 32 24c1.386719 1.039062 3.070313 1.601562 4.800781 1.601562h32v24h-29.785156l-38.09375-22.855469-8.242188 13.710938 40 24c1.246094.75 2.667969 1.144531 4.121094 1.144531h32v40c.027344 2.425781 1.171875 4.703125 3.101563 6.167969-6.101563 3.3125-11.75 7.40625-16.796875 12.175781-16.632813 16.632812-20.144532 39.199219-8 51.3125 4.960937 4.804688 11.652344 7.402344 18.558594 7.199219 8.585937-.269531 16.90625-3.050781 23.929687-8 4.640625 11.078125 15.214844 18.515625 27.207031 19.144531 11.941406-.636719 22.472656-8.027344 27.128906-19.039062 6.996094 4.898437 15.269532 7.648437 23.804688 7.910156 6.90625.199218 13.597656-2.398438 18.5625-7.199219 12.144531-12.144531 8.632812-34.679687-8-51.3125-5.019531-4.75-10.628906-8.828125-16.695312-12.136719 1.980468-1.457031 3.167968-3.761718 3.199218-6.222656v-40h32c1.449219 0 2.875-.394531 4.121094-1.144531l40-24-8.242188-13.710938-38.09375 22.855469h-29.785156v-24h32c1.730469 0 3.414063-.5625 4.800782-1.601562l32-24-9.601563-12.796876-29.863281 22.398438h-29.335938v-40h96c2.984375-.023438 5.707032-1.71875 7.039063-4.390625l24.054687 30.0625zm-.359375-198.402343-16-20v-11.199219h16zm24-151.199219v24h-32v-63.199219c18.613282 3.824219 31.980469 20.199219 32 39.199219zm-64 0c.011719-10.167969 6.417969-19.230469 16-22.632812v46.632812h-16zm64 40v16h-32v16h32v24c0 4.417969-3.582031 8-8 8h-48c-4.417968 0-8-3.582031-8-8v-56zm-106.207031 34.046875 50.207031 62.753906v15.199219h-56v-72c0-1.015625-.152344-1.960938-.214844-2.945312zm-21.792969 189.953125h-64v-16h64zm-64 64v-16h64v16zm64-32h-64v-16h64zm-64-64v-16h64v16zm0-32v-42.089844c10.382813-3.269531 21.132813-5.257812 32-5.910156 10.867188.660156 21.613282 2.644531 32 5.910156v42.089844zm32-159.121094c8.632813 4.464844 32 18.457032 32 39.121094h-16v16h16v45.296875c-10.417968-3.039063-21.160156-4.816406-32-5.296875-10.839844.480469-21.582031 2.257812-32 5.296875v-45.296875h16v-16h-16c0-20.664062 23.367188-34.65625 32-39.121094zm-53.792968 33.167969 6.007812 3.007813c-.0625.984374-.214844 1.929687-.214844 2.945312v72h-56v-15.199219zm-42.207032-74.046875v24h-16v-46.632812c9.582032 3.402343 15.988282 12.464843 16 22.632812zm-64 0c.019532-19 13.386719-35.375 32-39.199219v63.199219h-32zm0 96v-56h64v56c0 4.417969-3.582031 8-8 8h-48c-4.417968 0-8-3.582031-8-8zm24 24h16v11.199219l-16 20zm0 56.800781 16-20v27.199219h-16zm32 7.199219v-16h56v16zm45.65625 210.34375c-5.503906-5.511719-1.769531-18.910156 8-28.6875 7.667969-6.796875 16.523438-12.125 26.121094-15.710938-4.765625 10.742188-7.40625 22.308594-7.777344 34.054688 0 1.414062.214844 2.753906.335938 4.121094-9.527344 8.375-21.527344 11.367187-26.679688 6.222656zm58.34375 13.65625c-8.671875 0-16-10.992188-16-24 0-18 10.710938-40 16-40 5.289063 0 16 22 16 40 0 13.007812-7.328125 24-16 24zm58.183594-13.65625c-5.046875 5.039062-16.664062 2.28125-26.527344-6.136719.121094-1.398437.34375-2.765625.34375-4.207031-.371094-11.714844-3-23.246094-7.738281-33.96875 9.519531 3.585938 18.304687 8.882812 25.921875 15.625 9.769531 9.777344 13.503906 23.144531 8 28.6875zm-10.183594-226.34375h56v16h-56zm88 16h-16v-27.199219l16 20zm0 0"/><path d="m48.003906 112h16v16h-16zm0 0"/></svg>