<svg height="512pt" viewBox="0 -57 512.00124 512" width="512pt" xmlns="http://www.w3.org/2000/svg"><path d="m364.46875 80.5625c3.792969-4.453125 34.328125 10.929688 37.789062 12.835938 25.414063 13.96875 56.132813 55.167968 53.421876 84.882812-14.839844 6.726562-32.804688 8.675781-48.863282 7.773438-16.511718-.929688-32.648437-5.535157-47.160156-13.472657-4.566406-2.496093-47.070312-31.121093-43.28125-35.574219.042969-.042968 48.039062-56.378906 48.09375-56.445312zm0 0" fill="#bc7d53"/><path d="m452.984375 179.429688c-14.289063 5.804687-31.070313 7.472656-46.171875 6.625-16.5-.925782-32.648438-5.535157-47.152344-13.476563-3.714844-2.035156-32.554687-21.367187-41.125-30.890625 8.792969-13.910156 16.773438-26.539062 16.789063-26.570312 3.128906-4.949219 35.53125 5.964843 39.230469 7.355468 21.964843 8.285156 62.859374 32.300782 78.429687 56.957032zm0 0" fill="#ffc1b8"/><path d="m452.980469 179.433594c-14.285157 5.800781-31.070313 7.472656-46.167969 6.617187-16.503906-.921875-32.648438-5.539062-47.152344-13.472656-3.714844-2.039063-32.554687-21.363281-41.128906-30.886719 3.207031-5.058594 6.296875-9.960937 8.933594-14.132812 11.519531 10.085937 33.109375 24.511718 36.289062 26.25 14.503906 7.933594 30.648438 12.550781 47.152344 13.472656 9.835938.554688 20.390625.039062 30.5-1.992188 4.59375 4.621094 8.5625 9.371094 11.574219 14.144532zm0 0" fill="#ffb3a8"/><path d="m147.535156 80.5625c-3.792968-4.453125-34.328125 10.929688-37.792968 12.835938-25.410157 13.96875-56.128907 55.167968-53.417969 84.882812 14.839843 6.726562 32.800781 8.675781 48.863281 7.773438 16.507812-.929688 32.648438-5.535157 47.160156-13.472657 4.5625-2.496093 47.070313-31.121093 43.277344-35.574219-.039062-.042968-48.035156-56.378906-48.089844-56.445312zm0 0" fill="#bc7d53"/><path d="m59.019531 179.429688c14.285157 5.804687 31.070313 7.472656 46.171875 6.625 16.5-.925782 32.648438-5.535157 47.152344-13.476563 3.714844-2.035156 32.554688-21.367187 41.121094-30.890625-8.789063-13.910156-16.769532-26.539062-16.785156-26.570312-3.128907-4.949219-35.53125 5.964843-39.234376 7.355468-21.960937 8.285156-62.855468 32.300782-78.425781 56.957032zm0 0" fill="#ffc1b8"/><path d="m59.023438 179.433594c14.28125 5.800781 31.070312 7.472656 46.167968 6.617187 16.503906-.921875 32.644532-5.539062 47.152344-13.472656 3.714844-2.039063 32.554688-21.363281 41.128906-30.886719-3.207031-5.058594-6.296875-9.960937-8.9375-14.132812-11.519531 10.085937-33.105468 24.511718-36.285156 26.25-14.503906 7.933594-30.648438 12.550781-47.152344 13.472656-9.835937.554688-20.394531.039062-30.503906-1.992188-4.589844 4.621094-8.558594 9.371094-11.570312 14.144532zm0 0" fill="#ffb3a8"/><path d="m260.007812 39.117188c-36.101562-.871094-72.546874 11.671874-97.3125 36.957031-36.585937 37.359375-37.132812 91.085937-27.78125 137.734375.734376 3.660156 1.671876 7.273437 2.753907 10.84375 4.183593 13.824218 15.804687 54.007812 15.804687 74.160156 0 26.703125 3.964844 54.375 27.722656 73.238281 9.207032 7.308594 20.441407 12.144531 32.316407 14.808594 7.589843 1.707031 15.402343 2.527344 23.210937 2.761719 30.519532.910156 65.496094 2.925781 91.261719-15.238282 16.414063-11.570312 25.484375-29.140624 29.152344-47.261718 1.929687-9.53125 1.6875-18.726563 1.6875-28.308594 0-20.144531 11.605469-60.296875 15.796875-74.136719 1.226562-4.042969 2.234375-8.144531 3.035156-12.289062 10.667969-55.265625 5.601562-119.242188-50.011719-153.785157-20.089843-12.476562-43.789062-18.90625-67.636719-19.484374zm0 0" fill="#bc7d53"/><path d="m377.652344 212.386719c-.796875 4.144531-1.808594 8.25-3.027344 12.289062-4.191406 13.839844-15.796875 54-15.796875 74.140625 0 9.582032.234375 18.773438-1.691406 28.304688-3.671875 18.121094-12.738281 35.691406-29.15625 47.261718-21.515625 15.164063-49.453125 16.265626-75.855469 15.6875 20.761719-.601562 41.375-3.890624 58.105469-15.6875 16.421875-11.570312 25.488281-29.140624 29.15625-47.261718 1.925781-9.53125 1.691406-18.722656 1.691406-28.304688 0-20.140625 11.605469-60.296875 15.792969-74.140625 1.226562-4.039062 2.238281-8.144531 3.035156-12.289062 10.667969-55.261719 5.601562-119.242188-50.007812-153.78125-18.597657-11.546875-40.28125-17.921875-62.320313-19.257813 4.132813-.25 8.285156-.332031 12.433594-.226562 23.847656.574218 47.546875 7.003906 67.636719 19.484375 55.609374 34.539062 60.675781 98.519531 50.003906 153.78125zm0 0" fill="#af663e"/><path d="m357.132812 327.117188c-3.660156 18.125-12.730468 35.691406-29.148437 47.265624-25.761719 18.167969-60.742187 16.148438-91.257813 15.238282-7.8125-.230469-15.625-1.058594-23.210937-2.757813-11.875-2.667969-23.113281-7.503906-32.316406-14.816406-23.359375-18.539063-27.585938-45.59375-27.71875-71.875 48.988281-26.222656 101.570312-26.328125 102.503906-26.328125h.019531c.105469 0 53.355469-.109375 102.820313 26.484375.015625 9.039063.140625 17.761719-1.691407 26.789063zm0 0" fill="#5a5c5e"/><path d="m357.136719 327.121094c-1.601563 7.929687-4.246094 15.75-8.078125 23.015625-1.644532 3.105469-3.507813 6.109375-5.605469 8.984375-2.09375 2.871094-4.429687 5.601562-6.996094 8.15625-11.386719 11.320312-26.546875 17.503906-42.085937 20.421875-1.21875.230469-2.433594.429687-3.667969.613281-4.910156.734375-9.820313 1.199219-14.765625 1.492188-5.796875.339843-11.609375.40625-17.410156.359374-.953125-.003906-1.914063-.019531-2.867188-.035156-1.152344-.007812-2.300781-.03125-3.453125-.058594 20.730469-.613281 41.316407-3.90625 58.023438-15.6875 16.421875-11.570312 25.488281-29.144531 29.15625-47.261718 1.925781-9.53125 1.691406-18.722656 1.691406-28.308594 0-2.058594.117187-4.324219.347656-6.753906 5.785157 2.421875 11.621094 5.160156 17.402344 8.269531.019531 9.039063.132813 17.765625-1.691406 26.792969zm0 0" fill="#444"/><g fill="#111"><path d="m206.886719 180.992188c0 6.074218-4.925781 11-11 11-6.078125 0-11.003907-4.925782-11.003907-11 0-6.078126 4.925782-11.003907 11.003907-11.003907 6.074219 0 11 4.925781 11 11.003907zm0 0"/><path d="m327.117188 180.992188c0 6.074218-4.925782 11-11 11-6.078126 0-11.003907-4.925782-11.003907-11 0-6.078126 4.925781-11.003907 11.003907-11.003907 6.074218 0 11 4.925781 11 11.003907zm0 0"/><path d="m234.683594 316.9375c0-8.546875-4.054688-15.472656-9.058594-15.472656-5 0-9.054688 6.925781-9.054688 15.472656s4.054688 15.476562 9.054688 15.476562c5.003906 0 9.058594-6.929687 9.058594-15.476562zm0 0"/><path d="m295.433594 316.9375c0-8.546875-4.054688-15.472656-9.054688-15.472656-5.003906 0-9.058594 6.925781-9.058594 15.472656s4.054688 15.476562 9.058594 15.476562c5 0 9.054688-6.929687 9.054688-15.476562zm0 0"/></g><path d="m220.859375 8.492188c13.453125 3.148437 26.039063 11.40625 32.109375 26.613281 8.503906 21.292969-1.292969 42.785156-18.132812 52.5-20.789063 11.988281-44.777344-.003907-66.597657 1.773437-10.367187.847656-20.648437 2.847656-30.847656 5.117188-20.074219 4.464844-39.933594 10.703125-60.277344 13.296875-31.316406 3.992187-56.507812-9.296875-67.355469-45.9375-3.089843-10.4375-6.519531-34.632813 7.324219-35.84375 4.75-.417969 8.792969 4.117187 11.230469 8.945312 16.339844 32.398438 48.0625 34.9375 76.140625 19.457031 27.644531-15.238281 51.160156-38.429687 82.03125-44.890624 7.292969-1.527344 14.773437-2.675782 22.195313-2.539063 4.039062.078125 8.148437.5625 12.179687 1.507813zm0 0" fill="#5a5c5e"/><path d="m234.835938 87.609375c-20.789063 11.988281-44.773438-.011719-66.597657 1.769531-10.367187.851563-20.648437 2.84375-30.851562 5.117188-20.066407 4.460937-39.925781 10.703125-60.277344 13.300781-28.542969 3.640625-52.011719-7.082031-64.140625-36.769531 13.667969 14.910156 32.632812 20.054687 54.410156 17.273437 21.445313-2.734375 42.382813-9.308593 63.550782-14.015625 10.757812-2.398437 21.597656-4.503906 32.523437-5.398437 23.011719-1.871094 48.308594 10.777343 70.226563-1.871094 10.082031-5.816406 17.769531-15.628906 20.882812-27.136719 5.410156 19.664063-4.136719 38.734375-19.726562 47.730469zm0 0" fill="#444"/><path d="m291.144531 8.492188c-13.453125 3.148437-26.039062 11.40625-32.109375 26.613281-8.503906 21.292969 1.292969 42.785156 18.132813 52.5 20.785156 11.988281 44.777343-.003907 66.597656 1.773437 10.367187.847656 20.644531 2.847656 30.847656 5.117188 20.074219 4.464844 39.929688 10.703125 60.277344 13.296875 31.316406 3.992187 56.507813-9.296875 67.355469-45.9375 3.089844-10.4375 6.519531-34.632813-7.324219-35.84375-4.75-.417969-8.796875 4.117187-11.230469 8.945312-16.34375 32.398438-48.0625 34.9375-76.144531 19.457031-27.640625-15.238281-51.15625-38.429687-82.027344-44.890624-7.292969-1.527344-14.773437-2.675782-22.195312-2.539063-4.039063.078125-8.148438.5625-12.179688 1.507813zm0 0" fill="#5a5c5e"/><path d="m277.164062 87.609375c20.789063 11.988281 44.777344-.011719 66.601563 1.769531 10.367187.851563 20.644531 2.84375 30.851563 5.117188 20.066406 4.460937 39.925781 10.703125 60.277343 13.300781 28.542969 3.640625 52.011719-7.082031 64.140625-36.769531-13.667968 14.910156-32.632812 20.054687-54.410156 17.273437-21.445312-2.734375-42.382812-9.308593-63.554688-14.015625-10.753906-2.398437-21.59375-4.503906-32.519531-5.398437-23.011719-1.871094-48.308593 10.777343-70.226562-1.871094-10.082031-5.816406-17.769531-15.628906-20.882813-27.136719-5.414062 19.664063 4.136719 38.734375 19.722656 47.730469zm0 0" fill="#444"/><path d="m507.765625 26.207031c-2.875-4.222656-7.105469-6.695312-12.234375-7.144531-7.085938-.628906-13.667969 4.027344-18.070312 12.753906-6.050782 12.003906-14.523438 19.761719-25.175782 23.054688-12.171875 3.765625-26.863281 1.433594-41.371094-6.5625-8.863281-4.890625-17.554687-10.800782-25.957031-16.515625-17.703125-12.039063-36.007812-24.488281-58.007812-29.09375-9.488281-1.988281-16.816407-2.804688-23.757813-2.683594-4.636718.085937-9.226562.652344-13.636718 1.683594-14.832032 3.472656-26.488282 11.832031-33.554688 23.835937-7.0625-12.003906-18.71875-20.363281-33.550781-23.835937-4.410157-1.03125-9-1.597657-13.636719-1.6875002-6.949219-.1249998-14.269531.6992192-23.757812 2.6835932-17.425782 3.648438-32.242188 12.175782-44.441407 20.03125-3.238281 2.085938-4.167969 6.402344-2.082031 9.640626 2.085938 3.238281 6.398438 4.171874 9.636719 2.085937 11.125-7.167969 24.542969-14.921875 39.746093-18.105469 8.421876-1.761718 14.792969-2.5 20.636719-2.390625 3.65625.070313 7.265625.515625 10.71875 1.324219 9.195313 2.152344 21.382813 7.789062 27.222657 22.410156 1.390624 3.476563 2.195312 6.910156 2.5 10.25-.144532 2.15625-.148438 4.277344-.007813 6.363282-1.140625 11.921874-8.480469 21.976562-17.632813 27.257812-11.132812 6.421875-24.035156 4.578125-37.699218 2.621094-8.484375-1.210938-17.261719-2.46875-25.984375-1.753906-11.363281.925781-22.449219 3.175781-31.792969 5.257812-6.644531 1.476562-13.328125 3.164062-19.792969 4.792969-13.058593 3.292969-26.558593 6.699219-39.851562 8.394531-30.464844 3.882812-50.582031-9.910156-59.785157-41-2.671874-9.027344-3.582031-21.554688-.679687-25.820312.507813-.746094.976563-1.015626 1.921875-1.097657.476562.027344 2.484375 1.347657 4.398438 5.140625 7.714843 15.296875 19.300781 25.707032 33.507812 30.097656 15.824219 4.898438 34.371094 2.167969 52.230469-7.675781 3.792969-2.089843 7.773437-4.46875 12.167969-7.273437 3.246093-2.070313 4.199218-6.382813 2.128906-9.632813-2.070313-3.246093-6.382813-4.199219-9.632813-2.128906-4.140625 2.644531-7.871093 4.875-11.402343 6.820313-14.507813 7.996093-29.199219 10.328124-41.371094 6.566406-10.648438-3.296875-19.121094-11.050782-25.175782-23.054688-4.402343-8.726562-10.992187-13.382812-18.066406-12.757812-5.132812.453125-9.363281 2.921875-12.238281 7.144531-8.335937 12.242187-1.925781 35.066406-1.164063 37.628906 9.949219 33.617188 32.320313 51.621094 63.589844 51.621094 2.664063 0 5.394532-.136719 8.1875-.398437-2.867187 3.519531-5.617187 7.191406-8.164062 11.007812-12.554688 18.8125-18.699219 37.582031-17.308594 52.847656.226562 2.496094 1.78125 4.683594 4.066406 5.71875 13.445313 6.097656 29.71875 8.605469 44.386719 8.605469 8.863281 0 17.722656-.941406 26.378906-2.828125.875 7.992188 2.160157 16.246094 3.867188 24.769531.742187 3.703125 1.699219 7.460938 2.917969 11.492188 3.636718 12.011719 15.503906 52.714843 15.503906 72.136719 0 25.90625 4.433594 52.976562 23.277344 72.300781.042968.042969.082031.089843.128906.136719.425781.433593.871094.859374 1.3125 1.285156.300781.296875.597656.59375.90625.886718.046875.042969.09375.085938.140625.128907 1.453125 1.355469 2.980469 2.679687 4.597656 3.964843 9.796875 7.777344 22.972656 13.421876 35.128906 16.152344.433594.097656.875.183594 1.3125.277344 20.5 4.324219 41.816407 4.011719 62.578125 2.859375 19.332032-1.070313 38.984375-5.003906 55.21875-16.101563.300782-.207031.605469-.40625.902344-.617187.144531-.101563.285156-.210937.429688-.3125 14.3125-10.242187 22.519531-23.746094 27.21875-36.195313 2.015624-5.332031 3.390624-10.46875 4.320312-15.074218 1.878906-9.273438 1.855469-18.210938 1.835938-26.855469l-.003907-2.832031c0-6.054688 1.175781-14.824219 3.5-26.066406.78125-3.773438-1.644531-7.464844-5.417969-8.242188-3.773437-.78125-7.460937 1.644531-8.242187 5.417969-1.527344 7.390625-2.59375 13.871093-3.199219 19.394531-47.101562-22.136719-93.960937-22.449219-96.457031-22.449219-2.105469 0-49.019531.269531-96.148437 22.324219-2.398438-21.644531-11.324219-52.792969-15.496094-66.5625-1.089844-3.597656-1.9375-6.933594-2.589844-10.191406-9.511719-47.449219-5.328125-85.726563 12.378906-114.191406 4.777344-.820313 9.71875-1.511719 14.671875-1.917969 7.164063-.585938 14.796875.507812 22.875 1.664062 14.6875 2.101563 31.332031 4.480469 46.640625-4.347656 6.984375-4.03125 13.210938-10.050781 17.683594-17.398437 4.46875 7.34375 10.695312 13.367187 17.679688 17.398437 15.308593 8.828125 31.957031 6.449219 46.644531 4.347656 8.078125-1.15625 15.710937-2.246093 22.871093-1.664062 4.933594.402343 9.851563 1.09375 14.609376 1.910156 14.933593 24.210937 23.195312 60.003906 13 112.824219-.753907 3.921875-1.71875 7.820312-2.859376 11.589844-.945312 3.125-2.421874 8.09375-4.070312 13.996093-1.039062 3.707031 1.128906 7.554688 4.835938 8.59375 3.710937 1.035157 7.558593-1.128906 8.597656-4.839843 1.613281-5.78125 3.058594-10.648438 3.988281-13.710938 1.277344-4.226562 2.359375-8.59375 3.203125-12.988281 1.53125-7.933594 2.679688-15.675781 3.457031-23.226563 3.941407.863282 7.925781 1.535156 11.929688 1.984375 11.980469 1.355469 24.253906 1.003907 36.128906-1.085937.101563-.015625.203125-.035156.304687-.050782 14.691407-2.628906 27.683594-3.507812 26.320313-21.066406-1.230469-15.910156-8.589844-31.101562-17.328125-44.195312-2.539062-3.808594-5.269531-7.488282-8.132812-11.003906 2.78125.261718 5.503906.394531 8.160156.394531 31.265625 0 53.640625-18.003907 63.589844-51.621094.761718-2.554687 7.171874-25.378906-1.164063-37.621094zm-251.753906 254.609375c.613281 0 49.660156.253906 95.847656 23.742188 0 11.785156-1.128906 23.324218-5.390625 34.4375-.003906.011718-.007812.023437-.011719.035156-.019531.046875-.039062.09375-.054687.136719-3.984375 10.292969-10.792969 21.308593-22.4375 29.515625-22.664063 15.976562-54.59375 14.976562-82.761719 14.097656-4.507813-.140625-9.222656-.289062-13.71875-.746094-7.996094-.816406-15.019531-2.226562-22.554687-4.933594-7.339844-2.636718-13.9375-6.1875-19.390626-10.515624-8.816406-6.996094-14.574218-15.386719-18.320312-24.421876-3.6875-9.203124-6.21875-21.324218-6.683594-37.800781 46.042969-23.269531 94.949219-23.546875 95.476563-23.546875zm-132.921875-104.421875c-3.988282.953125-8.03125 1.679688-12.097656 2.15625-4.972657.582031-10.285157.8125-15.289063.71875-.023437 0-.042969-.003906-.066406-.003906-8.996094-.160156-17.613281-1.320313-25.3125-3.398437 13.183593-15.554688 36.1875-30.894532 55.140625-40.429688-2.300782 12.660156-3.09375 26.320312-2.375 40.957031zm6.675781-58.335937c-18.953125 8.105468-46.351563 24.40625-64.5 42.757812 2.421875-8.484375 6.84375-17.75 13.023437-27.007812 5.554688-8.324219 12.21875-16.128906 19.054688-22.5 7.488281-1.613282 14.890625-3.46875 22.152344-5.300782 5.46875-1.378906 11.097656-2.792968 16.664062-4.074218-2.476562 5.140625-4.609375 10.519531-6.394531 16.125zm295.414063 60.722656c-8.394532.785156-18.214844.613281-26.265626-.5-3.339843-.460938-6.65625-1.101562-9.941406-1.886719.601563-14.53125-.28125-28.257812-2.671875-41.070312 19.003907 9.527343 42.140625 24.925781 55.378907 40.542969-5.140626 1.390624-10.6875 2.367187-16.5 2.914062zm21.558593-17.964844c-18.234375-18.4375-45.808593-34.804687-64.777343-42.875-1.78125-5.59375-3.882813-10.945312-6.308594-16.050781 5.628906 1.292969 11.324218 2.722656 16.855468 4.117187 7.265626 1.832032 14.664063 3.6875 22.152344 5.300782 6.835938 6.371094 13.5 14.175781 19.054688 22.5 6.179687 9.257812 10.601562 18.523437 13.023437 27.007812zm48.820313-100.941406c-9.203125 31.089844-29.320313 44.886719-59.789063 41-13.289062-1.691406-26.792969-5.097656-39.847656-8.390625-6.464844-1.632813-13.148437-3.316406-19.792969-4.796875-9.347656-2.078125-20.433594-4.332031-31.796875-5.257812-1.757812-.144532-3.515625-.207032-5.277343-.207032-6.96875 0-13.929688.996094-20.707032 1.964844-13.660156 1.953125-26.5625 3.796875-37.695312-2.625-9.15625-5.28125-16.496094-15.332031-17.632813-27.253906.140625-2.085938.136719-4.210938-.011719-6.367188.308594-3.335937 1.113282-6.773437 2.5-10.25 5.839844-14.621094 18.027344-20.257812 27.222657-22.410156 3.457031-.808594 7.0625-1.253906 10.71875-1.324219 5.847656-.109375 12.214843.628907 20.636719 2.394531 19.300781 4.039063 35.679687 15.179688 53.023437 26.972657 8.667969 5.898437 17.632813 11.996093 27.070313 17.199219 17.855468 9.84375 36.402343 12.570312 52.226562 7.675781 14.207031-4.394531 25.792969-14.804688 33.507812-30.101563 1.914063-3.792968 3.921876-5.113281 4.394532-5.140625.949218.082031 1.417968.351563 1.925781 1.097657 2.90625 4.265624 1.996094 16.796874-.675781 25.820312zm0 0"/></svg>