<svg height="512pt" viewBox="0 -1 512.00065 512" width="512pt" xmlns="http://www.w3.org/2000/svg"><path d="m108.738281 80.882812c-18.753906 9.042969-39.222656 20.386719-59.992187 23.210938-6.023438.820312-12.117188 1.03125-18.1875.722656-12.253906-.621094-27.558594.484375-22.589844 16.972656 3.230469 10.71875 14.421875 18.425782 23.710938 23.089844 17.449218 8.761719 38.628906 11.691406 57.59375 6.734375 9.496093-2.484375 20.78125-5.507812 28.902343-11.246093 2.621094-1.855469 6.433594-3.632813 9.445313-5.527344 2.933594-1.839844 6.128906-6.347656 9.34375-7.117188-6.207032-17.410156-11.839844-35.078125-17.738282-52.605468.148438.441406-4.199218 2.734374-10.488281 5.765624zm0 0" fill="#ff5f00"/><path d="m136.964844 127.722656c-3.210938.769532-6.410156 5.28125-9.339844 7.121094-3.023438 1.890625-6.832031 3.667969-9.453125 5.519531-8.121094 5.738281-19.398437 8.769531-28.902344 11.25-18.960937 4.949219-40.140625 2.03125-57.589843-6.730469-9.292969-4.671874-20.484376-12.378906-23.714844-23.089843-1.277344-4.25-1.207032-7.480469-.1875-9.921875 4.851562 5.171875 11.289062 9.191406 17 12.0625 17.453125 8.757812 38.632812 11.6875 57.59375 6.726562 9.5-2.476562 20.78125-5.507812 28.902344-11.238281 2.621093-1.859375 6.429687-3.628906 9.449218-5.53125 2.839844-1.789063 5.941406-6.089844 9.0625-7.039063 2.339844 6.980469 4.707032 13.941407 7.179688 20.871094zm0 0" fill="#f15300"/><path d="m495.136719 233.421875c-3.058594-10.050781-15.515625-13.566406-23.464844-6.691406-8.289063 7.164062-17.039063 13.800781-26.171875 19.835937-36.753906 24.289063-85.457031 41.550782-129.679688 31.140625-42.589843-10.03125-67.59375-44.417969-74.503906-86.128906-8.851562-53.453125 16.609375-161.015625-55.46875-181.902344-27.070312-7.839843-64.269531 1.652344-81.136718 25.414063-16.660157 23.476562-14.640626 58.75 2.929687 80.957031 15.632813 19.757813 46.554687 29.710937 58.46875 51.585937 20.632813 37.898438-15.449219 72.507813-31.414063 104.726563-7.832031 15.816406-14.410156 32.316406-19.042968 49.355469-10.359375 38.078125-12.777344 74.378906 6.925781 110.675781 42.109375 77.582031 156.597656 74.816406 231.484375 67.035156 45.757812-4.757812 88.96875-27.78125 117.050781-64.445312 27.527344-35.9375 33.640625-75.445313 33.878907-118.816407.15625-27.4375-1.769532-56.15625-9.855469-82.742187zm0 0" fill="#f6ac39"/><path d="m504.996094 316.164062c-.242188 43.371094-6.351563 82.875-33.882813 118.816407-28.082031 36.660156-71.292969 59.683593-117.046875 64.441406-61.632812 6.402344-150.078125 9.410156-202.929687-32.960937 53.179687 27.773437 127.683593 24.773437 181.636719 19.160156 45.765624-4.75 88.964843-27.769532 117.058593-64.433594 27.519531-35.941406 33.632813-75.453125 33.871094-118.824219.152344-25.78125-1.550781-52.703125-8.460937-77.914062 7.691406-3.480469 17.261718.328125 19.890624 8.980469 8.09375 26.578124 10.011719 55.300781 9.863282 82.734374zm0 0" fill="#f39d0a"/><path d="m427.101562 273.664062-117.945312-39.628906c-42.46875-14.265625-88.457031 8.59375-102.726562 51.0625-14.265626 42.46875 8.59375 88.460938 51.0625 102.726563 29.273437 9.835937 60.222656 2.023437 81.300781-17.691407v.003907l91.785156-78.605469c6.171875-5.285156 4.230469-15.28125-3.476563-17.867188zm0 0" fill="#ff5f00"/><path d="m430.582031 291.53125-91.785156 78.605469c-21.082031 19.710937-52.035156 27.519531-81.304687 17.691406-11.621094-3.902344-21.773438-10.191406-30.101563-18.121094 3.5 1.777344 7.179687 3.328125 11.019531 4.617188 29.28125 9.832031 60.222656 2.023437 81.304688-17.6875l91.785156-78.605469c2.628906-2.25 3.789062-5.371094 3.640625-8.390625l11.960937 4.019531c7.710938 2.589844 9.648438 12.589844 3.480469 17.871094zm0 0" fill="#f15300"/><path d="m159.835938 59.546875c0 6.921875-5.613282 12.535156-12.535157 12.535156s-12.535156-5.613281-12.535156-12.535156 5.613281-12.535156 12.535156-12.535156 12.535157 5.613281 12.535157 12.535156zm0 0"/><path d="m501.832031 231.386719c-2.117187-6.96875-7.570312-12.335938-14.585937-14.363281-7.066406-2.039063-14.597656-.390626-20.152344 4.410156-8.039062 6.953125-16.605469 13.445312-25.453125 19.292968-12.082031 7.984376-23.628906 14.128907-34.523437 18.835938l-90.089844-30.265625c-3.664063-1.226563-7.632813.742187-8.863282 4.40625-1.234374 3.667969.742188 7.636719 4.40625 8.867187l112.304688 37.730469c1.726562.578125 2.179688 2.027344 2.296875 2.621094.117187.597656.234375 2.109375-1.148437 3.296875l-40.402344 34.597656c-10.144532-.84375-23.609375-7.019531-39.171875-18.015625-13.230469-9.339843-23.207031-18.867187-23.386719-19.039062-2.785156-2.675781-7.21875-2.589844-9.898438.199219-2.675781 2.785156-2.589843 7.21875.199219 9.894531 1.46875 1.414062 30.890625 29.441406 58.941407 38.363281l-27.675782 23.703125c-12.195312-2.664063-28.308594-13.566406-45.847656-31.105469-2.730469-2.734375-7.164062-2.734375-9.898438 0-2.734374 2.734375-2.734374 7.164063 0 9.898438 11.640626 11.640625 27.519532 25.273437 43.398438 31.867187-19.847656 17.4375-47.429688 23.046875-72.558594 14.605469-18.769531-6.304688-33.957031-19.539062-42.769531-37.269531-8.808594-17.726563-10.191406-37.824219-3.886719-56.59375 9.917969-29.515625 37.484375-49.816407 68.597656-50.515625 3.867188-.085938 6.929688-3.289063 6.84375-7.15625-.085937-3.8125-3.203124-6.84375-6.996093-6.84375-.054688 0-.105469 0-.160157.003906-7.371093.164062-14.566406 1.269531-21.46875 3.1875-5.515624-10.4375-9.472656-22.363281-11.660156-35.566406-2.207031-13.332032-2.1875-30.6875-2.167968-49.0625.058593-54.128906.128906-121.5-58.261719-138.421875-14.550781-4.214844-32.164063-3.898438-48.316407.867187-17.25 5.085938-31.625 14.753906-40.472656 27.222656-10.609375 14.945313-14.566406 34.21875-12.074218 52.707032-12.898438 6.148437-26.050782 11.632812-39.128907 13.410156-5.417969.738281-11.101562.964844-16.882812.667969-9.597657-.484375-21.398438-.050781-27.484375 7.71875-3.675782 4.691406-4.40625 10.839843-2.164063 18.269531 4 13.269531 17.035157 22.183594 27.269531 27.320312 13.003907 6.53125 27.390626 9.898438 41.464844 9.898438 7.167969 0 14.257813-.875 21.039063-2.648438 9.21875-2.410156 21.84375-5.707031 31.171875-12.300781 1.167968-.824219 2.832031-1.738281 4.589844-2.703125.453124-.25.914062-.507812 1.371093-.761718.894531.613281 1.789063 1.226562 2.679688 1.832031 12.003906 8.199219 23.34375 15.945312 29.105469 26.53125 13.703124 25.171875-1.328126 48.875-17.246094 73.972656-5.058594 7.976563-10.289063 16.226563-14.289063 24.300781-8.46875 17.089844-15.039062 34.121094-19.527343 50.625-11.664063 42.882813-10.789063 75.679688 2.839843 106.34375 1.570313 3.53125 5.707031 5.121094 9.238281 3.550782 3.535157-1.570313 5.125-5.707032 3.554688-9.238282-12.230469-27.515625-12.882812-57.425781-2.121094-96.980468 4.25-15.628907 10.496094-31.808594 18.5625-48.085938 3.671875-7.414062 8.480469-14.992188 13.566406-23.015625 16.574219-26.136719 35.363282-55.761719 17.71875-88.167969-7.375-13.550781-20.660156-22.621094-33.503906-31.398437-9.910156-6.769531-19.273437-13.164063-25.621094-21.1875-16.023437-20.253907-17.214843-52.125-2.710937-72.558594 7.039063-9.917969 18.765625-17.691406 33.015625-21.898437 13.660156-4.027344 28.410156-4.335938 40.460938-.84375 48.273437 13.988281 48.210937 72.941406 48.15625 124.957031-.019532 18.972656-.039063 36.890625 2.355468 51.363281 2.28125 13.757812 6.449219 26.625 12.277344 38.113281-21.683594 9.960938-38.996094 28.535157-46.890625 52.035157-7.496094 22.3125-5.855469 46.207031 4.621094 67.285156 10.476562 21.074218 28.535156 36.808594 50.847656 44.308594 9.203125 3.089843 18.679687 4.597656 28.078125 4.597656 21.941406 0 43.460938-8.210938 60.058594-23.652344l91.734375-78.558594c4.835937-4.140625 6.996093-10.347656 5.78125-16.597656-1.214844-6.253906-5.546875-11.195312-11.582031-13.226562l-3.15625-1.058594c7.800781-3.992188 15.546874-8.511719 23.179687-13.558594 9.355469-6.183594 18.402344-13.039062 26.894531-20.382812 1.988282-1.71875 4.578125-2.285157 7.105469-1.550782 2.484375.714844 4.335937 2.535156 5.082031 4.988282 6.703125 22.042968 9.738282 47.671874 9.550782 80.660156-.207032 37.800781-4.28125 77.847656-32.433594 114.601562-26.484375 34.574219-67.386719 57.078125-112.214844 61.738282-28.96875 3.007812-72.320312 6.339843-114.148438.5-44.101562-6.152344-76.984374-21.453126-97.734374-45.472657-2.527344-2.925781-6.949219-3.25-9.875-.722656-2.925782 2.527344-3.246094 6.949219-.71875 9.875 23.035156 26.664063 58.832031 43.550781 106.394531 50.1875 15.988281 2.230469 32.996093 3.347656 51.65625 3.347656 19.839843 0 41.550781-1.261719 65.871093-3.792969 48.644532-5.054687 93.070313-29.527343 121.882813-67.144531 13.511719-17.644531 22.800781-36.996093 28.402344-59.167969 4.578125-18.132812 6.777343-38.425781 6.917969-63.871093.195312-34.433594-3.03125-61.382813-10.160157-84.8125zm-399.683593-111c3.898437 4.925781 8.574218 9.234375 13.589843 13.207031-.550781.34375-1.089843.695312-1.605469 1.054688-7.25 5.125-18.449218 8.050781-26.628906 10.191406-16.851562 4.402344-36.050781 2.136718-52.683594-6.214844-10.992187-5.523438-18.144531-12.21875-20.148437-18.855469-.800781-2.652343-.878906-4.746093-.214844-5.59375.625-.800781 2.972657-2.480469 11.613281-2.480469 1.246094 0 2.617188.035157 4.136719.113282 6.644531.335937 13.203125.078125 19.480469-.777344 13.890625-1.890625 27.609375-7.34375 40.425781-13.316406 2.664063 8.167968 6.671875 15.894531 12.035157 22.671875zm0 0"/></svg>