<svg height="512pt" viewBox="-87 0 512 512.08709" width="512pt" xmlns="http://www.w3.org/2000/svg"><path d="m93.015625 92.1875c.597656-22.800781-1.402344-46.5 5.199219-68.601562 2.597656-8.699219 7.398437-17.597657 17.699218-16.398438 12.601563 1.597656 16.398438 17.199219 29.898438 17.199219 12.703125 0 22.300781-.699219 21.300781 15-.800781 11.800781-36.597656 65.199219-36.597656 65.199219zm0 0" fill="#e57670"/><path d="m259.015625 413.886719c20.796875 9.398437 43.398437 16.699219 61.199219 31.398437 7 5.800782 13.398437 13.703125 8.199218 22.601563-6.300781 11-22.199218 8.398437-27.5 20.898437-4.898437 11.703125-8 20.800782-22 13.800782-10.601562-5.300782-45.898437-59-45.898437-59zm0 0" fill="#e57670"/><path d="m35.8125 101.585938c-26.5 38.800781-32.5 87.300781-26.699219 133.101562 4.199219 33.199219 14.101563 65.800781 28.601563 95.898438 7.300781 15.101562 15.800781 29.699218 25.398437 43.5 21.699219 31 50.902344 59 84.300781 76.902343 25.699219 13.796875 67 26.296875 95 12.796875 40.800782-19.597656 49-67.199218 18.601563-100.296875-15.300781-16.703125-35.703125-27.703125-54-40.601562-44.800781-31.601563-65.203125-89.398438-55.203125-141.699219 3.703125-19 9.203125-38.101562 6.5-57.601562-4.199219-30-25.199219-51.5-55.199219-55.398438-30.199219-4-52.097656 11.199219-67.300781 33.398438zm0 0" fill="#d33737"/><path d="m268.414062 442.488281c-.5-16.5-7.199218-33.300781-20.300781-47.601562-17.097656-18.601563-39.800781-30.898438-60.199219-45.300781-49.898437-35.199219-72.699218-99.597657-61.5-157.800782 4.101563-21.199218 10.300782-42.398437 7.300782-64.199218-4.101563-29.300782-22.601563-51.300782-49.699219-59.300782 6-.898437 12.398437-1 19.296875-.097656 30 4 51.101562 25.398438 55.203125 55.398438 2.699219 19.5-2.800781 38.601562-6.5 57.601562-10.101563 52.300781 10.398437 110.097656 55.199219 141.699219 18.300781 12.898437 38.699218 24 54 40.601562 22 24.199219 23.597656 56 7.199218 79zm0 0" fill="#bc2222"/><path d="m324.714844 439.886719c-11.800782-9.699219-25.402344-16.300781-39-22.199219 3-20.699219-4-42-19.402344-58.902344-4.5-4.898437-9.597656-9.597656-15.796875-14.398437-3-2.398438-7.402344-1.898438-9.800781 1.199219-2.402344 3.101562-1.902344 7.402343 1.199218 9.800781 5.5 4.398437 10.101563 8.601562 14.101563 12.898437 13.199219 14.402344 18.796875 32.5 15.5 49.703125-3.300781 17.097657-14.703125 31.097657-32 39.5-23.703125 11.398438-61.601563 1.796875-88.703125-12.703125-30.597656-16.398437-59.597656-42.898437-81.898438-74.796875-9.300781-13.300781-17.601562-27.601562-24.800781-42.5-14.5-30.101562-23.898437-61.601562-28-93.800781-4.398437-34.902344-3.597656-85.5 25.601563-128.300781 2-2.898438 4.097656-5.699219 6.300781-8.300781 2.5-2.898438 2.199219-7.398438-.800781-9.898438-2.902344-2.5-7.402344-2.199219-9.902344.800781-2.5 2.898438-4.898438 6.097657-7.199219 9.5-31.699219 46.597657-32.699219 100.796875-28 138.097657 4.300781 33.601562 14.101563 66.601562 29.300781 98.101562 7.5 15.597656 16.199219 30.5 26 44.398438 23.5 33.601562 54.300782 61.699218 86.800782 79.101562 19.199218 10.300781 45.699218 19.398438 70.097656 19.398438 10.300781 0 20.300781-1.597657 29.101562-5.398438 11.5 16.199219 25.300782 34.199219 32.398438 37.699219 4.300781 2.199219 8.101562 3.199219 11.601562 3.199219 1.898438 0 3.800782-.300782 5.5-1 7.5-2.800782 10.699219-10.300782 14-18.300782l.601563-1.296875c1.597656-3.703125 4.796875-5.203125 10.398437-7.601562 5.601563-2.300781 12.5-5.199219 16.699219-12.5 7.902344-13.800781-2.800781-25.699219-9.898437-31.5zm-2.300782 24.601562c-1.699218 3-4.898437 4.5-9.898437 6.597657-6.300781 2.601562-14.101563 5.902343-17.902344 15.101562l-.597656 1.398438c-1.800781 4.402343-4.101563 9.800781-5.902344 10.5-.300781.101562-1.800781.5-6-1.597657-3.5-1.800781-14-14.703125-26.398437-32.101562 12.300781-8.300781 21.398437-19.699219 26.398437-32.800781 12 5.300781 23.800781 11.199218 33.601563 19.300781 9.898437 7.898437 7.699218 11.898437 6.699218 13.601562zm0 0"/><path d="m222.613281 324.988281c-3.699219-2.402343-7.597656-5-11.5-7.800781-41.199219-29.101562-62.199219-83.101562-52.300781-134.601562.703125-3.398438 1.402344-7 2.101562-10.398438 3.398438-15.902344 6.800782-32.402344 4.398438-49.5-1.898438-13.902344-7.097656-26.101562-14.898438-36 10.800782-17.300781 23.101563-38.5 23.601563-46.800781.5-7.398438-1-12.898438-4.601563-16.699219-5.5-5.902344-13.601562-5.800781-22.199218-5.800781h-1.5c-4 0-6.699219-2.398438-11-6.699219-4.300782-4.199219-9.699219-9.5-18-10.5-15.902344-2-22.601563 12.5-25.300782 21.300781-3.898437 13-4.898437 26.199219-5.199218 39.398438-6.800782.699219-13.300782 2.300781-19.601563 5-3.597656 1.5-5.199219 5.601562-3.699219 9.199219 1.5 3.601562 5.601563 5.199218 9.199219 3.699218 9.199219-3.898437 19.300781-5.097656 30.101563-3.699218 26.597656 3.5 45.398437 22.5 49.199218 49.5 2.101563 14.699218-1 29.300781-4.300781 44.699218-.699219 3.5-1.5 7.101563-2.199219 10.601563-10.898437 56.800781 12.398438 116.601562 58 148.699219 4 2.800781 8.101563 5.5 11.800782 8 1.199218.800781 2.5 1.199218 3.898437 1.199218 2.300781 0 4.5-1.097656 5.902344-3.097656 2.199219-3.199219 1.296875-7.601562-1.902344-9.699219zm-122.300781-264.101562c.300781-12 1.300781-24 4.703125-35.300781 3.597656-12.199219 8.199219-11.597657 10.097656-11.398438 3.402344.398438 6 2.800781 9.902344 6.597656 4.796875 4.800782 10.898437 10.703125 20.796875 10.703125h1.5c4.703125 0 10.703125 0 12 1.398438.203125.199219 1.101562 1.5.800781 6.101562-.300781 4-8.398437 19-19.800781 37.5-9.898438-8-22.097656-13.300781-36.199219-15.203125-1.300781-.199218-2.5-.296875-3.800781-.398437zm0 0"/><path d="m82.613281 275.085938c-1.597656 0-3.300781-.597657-4.597656-1.699219-2.902344-2.5-3.203125-7-.703125-9.898438l20.902344-24c2.5-2.902343 7-3.203125 9.898437-.703125 2.902344 2.5 3.199219 7 .699219 9.902344l-20.898438 24c-1.398437 1.597656-3.398437 2.398438-5.300781 2.398438zm0 0"/><path d="m72.113281 203.386719c-1.597656 0-3.300781-.601563-4.597656-1.699219-2.902344-2.5-3.203125-7-.703125-9.902344l20.902344-24c2.5-2.898437 7-3.199218 9.898437-.699218 2.902344 2.5 3.199219 7 .699219 9.902343l-20.898438 24c-1.398437 1.597657-3.300781 2.398438-5.300781 2.398438zm0 0"/><path d="m114.015625 342.386719c-1.5 0-3.101563-.5-4.402344-1.5-3-2.398438-3.5-6.800781-1.097656-9.800781l19.796875-24.898438c2.402344-3 6.800781-3.5 9.800781-1.101562 3 2.402343 3.5 6.800781 1.101563 9.800781l-19.800782 24.898437c-1.300781 1.703125-3.398437 2.601563-5.398437 2.601563zm0 0"/><path d="m159.714844 399.988281c-1.402344 0-2.699219-.402343-3.902344-1.203125-3.199219-2.199218-4-6.5-1.796875-9.699218l17.898437-26.199219c2.199219-3.199219 6.5-4 9.699219-1.800781 3.199219 2.199218 4 6.5 1.800781 9.699218l-17.898437 26.203125c-1.300781 2-3.5 3-5.800781 3zm0 0"/></svg>