<svg height="480pt" viewBox="-88 0 480 480" width="480pt" xmlns="http://www.w3.org/2000/svg"><path d="m24 88h256c8.835938 0 16 7.164062 16 16v352c0 8.835938-7.164062 16-16 16h-256c-8.835938 0-16-7.164062-16-16v-352c0-8.835938 7.164062-16 16-16zm0 0" fill="#aabece"/><path d="m8 144h288v312c0 8.835938-7.164062 16-16 16h-256c-8.835938 0-16-7.164062-16-16zm0 0" fill="#6a9eaa"/><path d="m78.464844 384c-10.292969.078125-19.519532-6.332031-23.039063-16-5.988281-23.515625-8.679687-47.746094-8-72-.679687-24.253906 2.011719-48.484375 8-72 3.945313-9.761719 13.46875-16.109375 24-16 7.558594.769531 14.453125 4.664062 19.011719 10.742188 4.558594 6.078124 6.367188 13.785156 4.988281 21.257812-5.128906 18.230469-7.820312 37.0625-8 56 .257813 18.933594 2.949219 37.753906 8 56 1.347657 7.621094-.597656 15.453125-5.359375 21.558594-4.757812 6.101562-11.882812 9.894531-19.601562 10.441406zm0 0" fill="#f3bb59"/><path d="m144.960938 320c10.289062.078125 19.515624-6.332031 23.039062-16 5.984375-23.515625 8.679688-47.746094 8-72 .679688-24.253906-2.015625-48.484375-8-72-3.949219-9.761719-13.472656-16.109375-24-16-7.558594.769531-14.453125 4.664062-19.011719 10.742188-4.558593 6.078124-6.367187 13.785156-4.988281 21.257812 5.128906 18.230469 7.816406 37.0625 8 56-.261719 18.933594-2.949219 37.753906-8 56-1.351562 7.621094.597656 15.453125 5.355469 21.558594 4.761719 6.101562 11.886719 9.894531 19.605469 10.441406zm0 0" fill="#f9ddac"/><path d="m238.464844 344c-10.292969.078125-19.519532-6.332031-23.039063-16-5.988281-23.515625-8.679687-47.746094-8-72-.679687-24.253906 2.011719-48.484375 8-72 3.945313-9.761719 13.46875-16.109375 24-16 7.558594.769531 14.453125 4.664062 19.011719 10.742188 4.558594 6.078124 6.367188 13.785156 4.988281 21.257812-5.128906 18.230469-7.820312 37.0625-8 56 .257813 18.933594 2.949219 37.753906 8 56 1.347657 7.621094-.597656 15.453125-5.359375 21.558594-4.757812 6.101562-11.882812 9.894531-19.601562 10.441406zm0 0" fill="#f9ddac"/><path d="m191.023438 440c-10.285157.070312-19.503907-6.335938-23.023438-16-5.984375-23.515625-8.679688-47.746094-8-72-.679688-24.253906 2.015625-48.484375 8-72 3.949219-9.761719 13.472656-16.109375 24-16 7.558594.769531 14.453125 4.664062 19.011719 10.742188 4.558593 6.078124 6.367187 13.785156 4.988281 21.257812-5.125 18.234375-7.8125 37.0625-8 56 .265625 18.933594 2.953125 37.75 8 56 1.351562 7.621094-.597656 15.460938-5.363281 21.5625-4.761719 6.101562-11.890625 9.894531-19.613281 10.4375zm0 0" fill="#f3bb59"/><path d="m40 56h224v32h-224zm0 0" fill="#6a9eaa"/><path d="m24 8h256v48h-256zm0 0" fill="#7fcac9"/><path d="m144 8h16v24h-16zm0 0" fill="#426d78"/><path d="m176 8h16v24h-16zm0 0" fill="#426d78"/><path d="m208 8h16v24h-16zm0 0" fill="#426d78"/><path d="m240 8h16v24h-16zm0 0" fill="#426d78"/><path d="m112 8h16v24h-16zm0 0" fill="#426d78"/><path d="m48 8h16v24h-16zm0 0" fill="#426d78"/><path d="m80 8h16v24h-16zm0 0" fill="#426d78"/><path d="m56 168h16v16h-16zm0 0" fill="#fff"/><path d="m120 392h16v16h-16zm0 0" fill="#fff"/><path d="m64 448h-32v-40h16v24h16zm0 0" fill="#aabece"/><g fill="#fff"><path d="m248 368h16v16h-16zm0 0"/><path d="m240 432h32v16h-32zm0 0"/><path d="m48 256h24v16h-24zm0 0"/><path d="m72 288h23.425781v16h-23.425781zm0 0"/><path d="m48 320h24v16h-24zm0 0"/><path d="m80 344h23.425781v16h-23.425781zm0 0"/><path d="m120 176h24v16h-24zm0 0"/><path d="m152 200h24v16h-24zm0 0"/><path d="m128 232h24v16h-24zm0 0"/><path d="m159.976562 344h24.023438v16h-24.023438zm0 0"/><path d="m192 384h24v16h-24zm0 0"/><path d="m192 312h16v16h-16zm0 0"/><path d="m208 200h24v16h-24zm0 0"/><path d="m232 240h24v16h-24zm0 0"/><path d="m208 280h24v16h-24zm0 0"/></g><path d="m110.3125 346.398438c-4.414062-16.441407-6.730469-33.375-6.886719-50.398438.101563-17.078125 2.425781-34.070312 6.910157-50.550781l.863281-3.59375c2.125-10.277344-.519531-20.960938-7.199219-29.054688-5.789062-7.808593-14.84375-12.527343-24.558594-12.800781-14.050781-.140625-26.691406 8.503906-31.648437 21.648438-6.207031 24.277343-9.023438 49.300781-8.367188 74.351562-.664062 25.066406 2.148438 50.105469 8.351563 74.398438 4.570312 13.015624 16.898437 21.695312 30.695312 21.601562 10.097656-.234375 19.535156-5.089844 25.597656-13.167969 6.585938-7.984375 9.203126-18.519531 7.121094-28.65625zm-31.839844 29.601562c-6.777344.058594-12.894531-4.054688-15.402344-10.351562-2.757812-9.695313-4.632812-19.617188-5.597656-29.648438h14.527344v-16h-15.855469c-.457031-7.648438-.71875-15.664062-.71875-24s.261719-16.351562.71875-24h15.855469v-16h-14.519531c.96875-10.015625 2.84375-19.921875 5.597656-29.601562 2.914063-6.402344 9.335937-10.484376 16.371094-10.398438 4.804687.339844 9.210937 2.8125 12 6.742188 3.617187 4.257812 5.164062 9.898437 4.214843 15.402343l-.847656 3.542969c-4.0625 15.132812-6.476562 30.660156-7.199218 46.3125h-15.617188v16h15.59375c.621094 13.488281 2.542969 26.882812 5.734375 40h-13.328125v16h15.609375c-.605469 3.25-1.996094 6.300781-4.058594 8.886719-3.070312 4.214843-7.871093 6.828125-13.078125 7.113281zm0 0"/><path d="m24 80c-13.253906 0-24 10.746094-24 24v352c0 13.253906 10.746094 24 24 24h256c13.253906 0 24-10.746094 24-24v-352c0-13.253906-10.746094-24-24-24h-8v-16h16v-64h-272v64h16v16zm256 384h-256c-4.417969 0-8-3.582031-8-8v-304h101.191406c-3.695312 5.667969-5.691406 12.273438-5.75 19.039062-.011718 2.296876.257813 4.585938.796875 6.816407l.839844 3.472656c4.503906 16.515625 6.828125 33.550781 6.921875 50.671875-.160156 17.070312-2.488281 34.050781-6.929688 50.535156l-.863281 3.632813c-2.082031 10.125.527344 20.648437 7.097657 28.632812 6.074218 8.101563 15.53125 12.964844 25.65625 13.199219 2.621093-.042969 5.230468-.402344 7.765624-1.070312-.480468 8-.75 16.316406-.75 25.070312-.660156 25.066406 2.148438 50.105469 8.351563 74.398438 4.574219 13.015624 16.902344 21.691406 30.695313 21.601562 10.101562-.234375 19.535156-5.089844 25.601562-13.167969 6.582031-7.984375 9.203125-18.519531 7.128906-28.65625l-.90625-3.792969c-4.398437-16.4375-6.703125-33.367187-6.847656-50.382812 0-3.054688.089844-5.945312.214844-8.753906 6.703125 6.328125 15.804687 9.46875 24.980468 8.617187 9.175782-.847656 17.546876-5.605469 22.972657-13.054687 6.566406-7.988282 9.167969-18.515625 7.078125-28.640625l-.855469-3.632813c-4.449219-16.480468-6.785156-33.464844-6.949219-50.535156.101563-17.089844 2.425782-34.09375 6.917969-50.585938l.800781-3.445312c.554688-2.265625.824219-4.59375.800782-6.929688-.03125-18.378906-14.195313-33.640624-32.519532-35.039062-14.03125-.132812-26.65625 8.488281-31.640625 21.601562-6.21875 24.292969-9.035156 49.332032-8.359375 74.398438v1.121094c-2.417968-.710938-4.921875-1.089844-7.441406-1.121094-2.960938.03125-5.90625.453125-8.761719 1.246094.503907-8 .800781-16.429688.800781-25.246094.675782-25.066406-2.136718-50.109375-8.359374-74.398438-.648438-1.964843-1.535157-3.847656-2.632813-5.601562h114.953125v304c0 4.417969-3.582031 8-8 8zm-119.640625-301.601562c3.417969 12.28125 5.5625 24.882812 6.402344 37.601562h-14.761719v16h15.664062c.199219 5.199219.335938 10.519531.335938 16 0 12.71875-.566406 24.601562-1.601562 35.441406-2.726563 2.925782-4.78125 6.40625-6.03125 10.207032-2.972657 10.320312-5.011719 20.882812-6.09375 31.566406-2.785157 1.777344-6.011719 2.742187-9.3125 2.785156-5.222657-.289062-10.039063-2.910156-13.121094-7.136719-3.539063-4.148437-5.027344-9.667969-4.046875-15.03125l.847656-3.59375c3.238281-12.546875 5.480469-25.335937 6.695313-38.238281h16.664062v-16h-16c.039062-13.441406-1.335938-26.847656-4.105469-40h12.105469v-16h-15.769531l-.460938-1.929688c-.234375-.992187-.347656-2.011718-.328125-3.03125.085938-9.554687 7.109375-17.628906 16.558594-19.039062 7.027344-.066406 13.4375 4.007812 16.359375 10.398438zm95.296875 35.777343-.839844 3.511719c-3.328125 12.558594-5.585937 25.375-6.746094 38.3125h-16.070312v16h15.441406c.164063 18.316406 2.636719 36.539062 7.359375 54.238281l.847657 3.59375c.976562 5.367188-.515626 10.886719-4.054688 15.03125-3.078125 4.230469-7.890625 6.851563-13.113281 7.136719-6.789063.042969-12.90625-4.089844-15.410157-10.398438-1.203124-3.972656-2.191406-8.007812-2.957031-12.089843.902344-4.230469 1.855469-8.238281 2.773438-12.0625l.875-3.59375c.140625-.609375.207031-1.230469.316406-1.855469h7.921875v-16h-9.367188c-1.386718-4.050781-3.449218-7.835938-6.097656-11.199219-.269531-.359375-.625-.609375-.910156-.945312-.097656-3.871094-.183594-7.757813-.183594-11.886719-.046875-13.359375.632813-26.714844 2.039063-40h14.519531v-15.96875h-12.183594c.828125-4.59375 1.917969-9.132812 3.261719-13.601562 2.921875-6.390626 9.332031-10.46875 16.363281-10.398438 9.449219 1.410156 16.472656 9.484375 16.558594 19.039062.011719 1.046876-.105469 2.089844-.34375 3.105469zm-51.65625 80.566407c1.902344 2.425781 3.269531 5.226562 4 8.21875v8l-.65625 2.734374c-1.085938 4.503907-2.214844 9.25-3.253906 14.3125h-12.089844v16h9.414062c-.964843 7.960938-1.4375 15.972657-1.414062 23.992188 0 10.722656.898438 21.425781 2.6875 32h-10.6875v16h13.878906c.480469 2.089844.960938 4.128906 1.425782 6.078125l.878906 3.746094c.976562 5.378906-.519532 10.910156-4.070313 15.0625-3.078125 4.214843-7.878906 6.824219-13.089843 7.113281-6.777344.054688-12.890626-4.054688-15.398438-10.351562-5.136719-20.144532-7.675781-40.859376-7.554688-61.648438h15.929688v-16h-15.929688c-.117187-20.769531 2.417969-41.472656 7.554688-61.601562 2.910156-6.40625 9.335938-10.488282 16.375-10.398438 4.808594.335938 9.210938 2.8125 12 6.742188zm76-182.742188c4.417969 0 8 3.582031 8 8v32h-272v-32c0-4.417969 3.582031-8 8-8zm-248-80h16v16h16v-16h16v16h16v-16h16v16h16v-16h16v16h16v-16h16v16h16v-16h16v16h16v-16h16v16h16v-16h16v32h-240zm16 48h208v16h-208zm0 0"/><path d="m56 168h16v16h-16zm0 0"/><path d="m120 392h16v16h-16zm0 0"/><path d="m48 408h-16v40h32v-16h-16zm0 0"/><path d="m248 368h16v16h-16zm0 0"/><path d="m240 432h32v16h-32zm0 0"/></svg>