<svg height="480pt" viewBox="0 -26 480.04175 480" width="480pt" xmlns="http://www.w3.org/2000/svg"><path d="m452.648438 251.875-92.648438-27.855469v-48h96c8.839844 0 16 7.164063 16 16v44.210938c.003906 4.832031-2.179688 9.40625-5.9375 12.441406-3.757812 3.039063-8.6875 4.21875-13.414062 3.203125zm0 0" fill="#f9ddac"/><path d="m432 200.019531h40v16h-40zm0 0" fill="#e97424"/><path d="m400 216.019531c0 101.621094-82.378906 184-184 184-101.617188 0-184-82.378906-184-184 0-101.617187 82.382812-184 184-184 101.621094 0 184 82.382813 184 184zm0 0" fill="#e97424"/><path d="m160 216.019531c80 0 104-40 184-40h51.59375c-18.835938-84.703125-94.289062-144.734375-181.0625-144.050781-86.769531.679688-161.269531 61.894531-178.769531 146.882812 36.652343 24.769532 80.003906 37.738282 124.238281 37.167969zm0 0" fill="#dd3e46"/><path d="m24 144.019531h32c8.839844 0 16 7.164063 16 16 0 8.839844-7.160156 16-16 16h-32c-8.835938 0-16-7.160156-16-16 0-8.835937 7.164062-16 16-16zm0 0" fill="#f3bb59"/><path d="m24 176.019531h32c8.839844 0 16 7.164063 16 16 0 8.839844-7.160156 16-16 16h-32c-8.835938 0-16-7.160156-16-16 0-8.835937 7.164062-16 16-16zm0 0" fill="#f9ddac"/><path d="m184 136.019531c0 22.09375-17.90625 40-40 40-22.089844 0-40-17.90625-40-40 0-22.089843 17.910156-40 40-40 22.09375 0 40 17.910157 40 40zm0 0" fill="#f9ddac"/><path d="m144 152.019531c-8.835938 0-16-7.160156-16-16 0-8.835937 7.164062-16 16-16 8.839844 0 16 7.164063 16 16 0 8.839844-7.160156 16-16 16zm0-16" fill="#426d78"/><path d="m312 184.019531-80-8v-48l80-8zm0 0" fill="#f9ddac"/><path d="m264 144.019531h48v16h-48zm0 0" fill="#e97424"/><path d="m200 56.019531h16v16h-16zm0 0" fill="#f9ddac"/><path d="m248 72.019531h16v16h-16zm0 0" fill="#f9ddac"/><path d="m200 96.019531h16v16h-16zm0 0" fill="#f9ddac"/><path d="m296 80.019531h16v16h-16zm0 0" fill="#f9ddac"/><path d="m336 136.019531h16v16h-16zm0 0" fill="#f9ddac"/><path d="m192 176.019531h16v16h-16zm0 0" fill="#f9ddac"/><path d="m264 248.019531c0 8.839844-7.160156 16-16 16-8.835938 0-16-7.160156-16-16 0-8.835937 7.164062-16 16-16 8.839844 0 16 7.164063 16 16zm0 0" fill="#426d78"/><path d="m192 272.019531c0 8.839844-7.160156 16-16 16-8.835938 0-16-7.160156-16-16 0-8.835937 7.164062-16 16-16 8.839844 0 16 7.164063 16 16zm0 0" fill="#426d78"/><path d="m344 272.019531c0 13.257813-10.742188 24-24 24-13.253906 0-24-10.742187-24-24 0-13.253906 10.746094-24 24-24 13.257812 0 24 10.746094 24 24zm0 0" fill="#426d78"/><path d="m224 288.019531h16v16h-16zm0 0" fill="#f9ddac"/><path d="m120 240.019531h16v16h-16zm0 0" fill="#f9ddac"/><path d="m296 208.019531h16v16h-16zm0 0" fill="#f9ddac"/><path d="m216 376.019531c-3.09375 0-76.230469-.574219-118.140625-50.871093l12.285156-10.253907c37.175781 44.613281 105.175781 45.125 105.855469 45.125zm0 0" fill="#f9ddac"/><path d="m80.84375 291.59375 14.3125-7.152344 8 16-14.3125 7.152344zm0 0" fill="#f9ddac"/><g fill="#426d78"><path d="m74.34375 53.679688 11.316406-11.316407 24 24.003907-11.3125 11.3125zm0 0"/><path d="m121.339844 28.453125 13.3125-8.875 32 48-13.3125 8.875zm0 0"/><path d="m43.203125 102.421875 9.597656-12.800781 32 24-9.597656 12.800781zm0 0"/><path d="m184 .0195312h16v31.9999998h-16zm0 0"/><path d="m232.410156 29.488281 8.003906-23.996093 15.179688 5.0625-8.003906 23.996093zm0 0"/><path d="m273.605469 43.226562 23.992187-32.003906 12.796875 9.59375-23.992187 32.003906zm0 0"/><path d="m314.34375 58.359375 24.003906-24.003906 11.3125 11.316406-24 24zm0 0"/><path d="m330.910156 105.894531 40.007813-31.964843 9.984375 12.496093-40.007813 31.964844zm0 0"/><path d="m374.054688 128.261719 32-8.007813 3.878906 15.515625-31.996094 8.007813zm0 0"/><path d="m66.34375 370.363281 24.003906-24.003906 11.3125 11.316406-24 24zm0 0"/><path d="m144.84375 420.4375 16-31.996094 14.308594 7.152344-15.996094 32zm0 0"/><path d="m232 400.019531h16v24h-16zm0 0"/><path d="m282.347656 389.675781 11.3125-11.3125 24.003906 24-11.316406 11.316407zm0 0"/><path d="m329.632812 363.246094 9.597657-12.796875 25.574219 19.179687-9.601563 12.800782zm0 0"/></g><path d="m456 168.019531h-54.167969c-2.464843-9.507812-5.675781-18.808593-9.597656-27.816406l17.71875-4.421875-3.886719-15.519531-20.9375 5.238281c-5.273437-9.804688-11.390625-19.132812-18.277344-27.878906l14.148438-11.320313-10-12.496093-14.597656 11.679687c-7.523438-8.023437-15.71875-15.394531-24.488282-22.03125l17.742188-17.746094-11.308594-11.34375-19.785156 19.785157c-7.542969-4.804688-15.410156-9.082032-23.542969-12.800782l15.382813-20.527344-12.800782-9.597656-17.894531 23.871094c-9.660156-3.417969-19.578125-6.050781-29.65625-7.871094l5.542969-16.632812-15.199219-5.058594-6.480469 19.449219c-5.914062-.609375-11.878906-.960938-17.914062-.960938-5.375 0-10.703125.273438-16 .714844v-24.7148438h-16v26.7617188c-12.875 2.136719-25.503906 5.585938-37.679688 10.296875l-11.664062-17.496094-13.308594 8.878907 10.125 15.199218c-9.726562 4.777344-19.027344 10.371094-27.808594 16.722656l-18.007812-18.011718-11.308594 11.3125 16.644532 16.648437c-9.785157 8.414063-18.695313 17.796875-26.597657 28l-11.59375-8.710937-9.597656 12.800781 11.917969 8.933594c-5.097656 7.882812-9.617188 16.125-13.519532 24.664062h-17.601562c-9.484375-.039062-18.09375 5.53125-21.945312 14.199219-3.847657 8.667969-2.207032 18.792969 4.1875 25.800781-6.394532 7.007813-8.035157 17.132813-4.1875 25.800781 3.851562 8.671876 12.460937 14.242188 21.945312 14.199219-.015625 52.066407 21.179688 101.894531 58.699219 137.992188l-16.351563 16.351562 11.308594 11.3125 17-16.992187c18.183594 14.871094 38.941406 26.277344 61.242188 33.648437l-11.058594 22.113281 14.320312 7.152344 12.410156-24.800781c14.554688 3.472656 29.46875 5.226563 44.429688 5.222656 5.394531 0 10.714844-.3125 16-.742187v16.742187h16v-18.789062c13.382812-2.207031 26.492188-5.832031 39.105469-10.808594l19.242187 19.238281 11.308594-11.3125-14.933594-14.917968c11.289063-5.738282 21.984375-12.582032 31.917969-20.433594l20.5625 15.425781 9.597656-12.800781-17.695312-13.273438c31.28125-29.191406 51.847656-68.050781 58.398437-110.335937l45.488282 13.671875c1.679687.363281 3.394531.546875 5.113281.546875 13.230469-.035157 23.9375-10.773438 23.9375-24v-44.210938c0-6.371093-2.535157-12.480469-7.042969-16.984375-4.511719-4.5-10.625-7.023437-17-7.015625zm-380.796875-41.597656 9.597656-12.800781-7.605469-5.703125c16.804688-21.660157 38.449219-39.082031 63.199219-50.875l12.941407 19.417969 13.3125-8.878907-11.199219-16.800781c66.070312-24.324219 140.28125-6.6875 188.34375 44.757812l-12.800781 10.234376 10 12.496093 13.28125-10.625c14.152343 17.902344 24.632812 38.417969 30.839843 60.375h-41.113281c-8.015625.039063-16.027344.503907-24 1.394531v-49.394531c0-2.257812-.957031-4.410156-2.628906-5.925781-1.683594-1.511719-3.917969-2.246094-6.167969-2.03125l-80 8c-4.105469.410156-7.222656 3.875-7.203125 8v48c-.019531 4.121094 3.097656 7.585938 7.203125 8l23.742187 2.398438-5.777343 2.199218c-28.078125 12.503906-58.429688 19.097656-89.167969 19.359375-27.402344.09375-54.578125-4.96875-80.109375-14.917969 0-.367187.109375-.710937.109375-1.082031-.019531-5.921875-2.242188-11.625-6.238281-16 6.015625-6.574219 7.851562-15.957031 4.761719-24.316406-3.089844-8.355469-10.589844-14.289063-19.433594-15.371094 2.6875-5.265625 5.640625-10.390625 8.847656-15.359375zm164.796875 42.398437v-33.519531l64-6.398437v15.117187h-40v16h40v15.203125zm-216-16.800781h32c4.421875 0 8 3.582031 8 8s-3.578125 8-8 8h-32c-4.417969 0-8-3.582031-8-8s3.582031-8 8-8zm-8 40c0-4.417969 3.582031-8 8-8h32c4.421875 0 8 3.582031 8 8s-3.578125 8-8 8h-32c-4.417969 0-8-3.582031-8-8zm375.007812 42.832031c-9.921874 93.078126-90.964843 162.105469-184.433593 157.089844-93.472657-5.015625-166.664063-82.316406-166.574219-175.921875h16c6.839844-.019531 13.339844-2.972656 17.851562-8.109375 27.445313 10.738282 56.675782 16.207032 86.148438 16.109375 32.707031-.3125 65.003906-7.296875 94.914062-20.527343 12.75-5.175782 25.796876-9.59375 39.070313-13.230469l17.21875 1.757812h.796875c1.984375 0 3.898438-.738281 5.371094-2.070312 1.222656-1.183594 2.035156-2.730469 2.3125-4.410157 8.066406-.980468 16.1875-1.484374 24.316406-1.519531h44.960938c1.992187 10.550781 3.007812 21.265625 3.039062 32 .015625 6.292969-.316406 12.578125-.992188 18.832031zm70.035157 7.609376c-1.6875 1.429687-3.90625 2.0625-6.089844 1.734374l-47.496094-14.292968c.320313-4.511719.542969-9.082032.542969-13.882813 0-10.722656-.902344-21.425781-2.695312-32h50.695312c4.421875 0 8 3.582031 8 8v8h-32v16h32v20.242188c.007812 2.40625-1.082031 4.6875-2.957031 6.199219zm0 0"/><path d="m144 184.019531c26.511719 0 48-21.488281 48-48 0-26.507812-21.488281-48-48-48-26.507812 0-48 21.492188-48 48 .027344 26.5 21.503906 47.976563 48 48zm0-80c17.675781 0 32 14.328125 32 32 0 17.675781-14.324219 32-32 32-17.671875 0-32-14.324219-32-32 0-17.671875 14.328125-32 32-32zm0 0"/><path d="m160 136.019531c0 8.839844-7.160156 16-16 16-8.835938 0-16-7.160156-16-16 0-8.835937 7.164062-16 16-16 8.839844 0 16 7.164063 16 16zm0 0"/><path d="m200 56.019531h16v16h-16zm0 0"/><path d="m248 72.019531h16v16h-16zm0 0"/><path d="m200 96.019531h16v16h-16zm0 0"/><path d="m296 80.019531h16v16h-16zm0 0"/><path d="m336 136.019531h16v16h-16zm0 0"/><path d="m192 176.019531h16v16h-16zm0 0"/><path d="m248 224.019531c-13.253906 0-24 10.746094-24 24 0 13.257813 10.746094 24 24 24 13.257812 0 24-10.742187 24-24 0-13.253906-10.742188-24-24-24zm0 32c-4.417969 0-8-3.582031-8-8s3.582031-8 8-8c4.421875 0 8 3.582031 8 8s-3.578125 8-8 8zm0 0"/><path d="m176 296.019531c13.257812 0 24-10.742187 24-24 0-13.253906-10.742188-24-24-24-13.253906 0-24 10.746094-24 24 0 13.257813 10.746094 24 24 24zm0-32c4.421875 0 8 3.582031 8 8s-3.578125 8-8 8c-4.417969 0-8-3.582031-8-8s3.582031-8 8-8zm0 0"/><path d="m320 240.019531c-17.671875 0-32 14.328125-32 32 0 17.675781 14.328125 32 32 32 17.675781 0 32-14.324219 32-32 0-17.671875-14.324219-32-32-32zm0 48c-8.835938 0-16-7.160156-16-16 0-8.835937 7.164062-16 16-16 8.839844 0 16 7.164063 16 16 0 8.839844-7.160156 16-16 16zm0 0"/><path d="m224 288.019531h16v16h-16zm0 0"/><path d="m120 240.019531h16v16h-16zm0 0"/><path d="m296 208.019531h16v16h-16zm0 0"/><path d="m110.144531 314.894531-12.285156 10.253907c41.910156 50.296874 115.046875 50.871093 118.140625 50.871093v-16c-.679688 0-68.679688-.511719-105.855469-45.125zm0 0"/><path d="m80.84375 291.59375 14.3125-7.152344 8 16-14.3125 7.152344zm0 0"/></svg>