<svg height="480pt" viewBox="0 -112 480 480" width="480pt" xmlns="http://www.w3.org/2000/svg"><path d="m144 8h-56c-44.183594 0-80 35.816406-80 80s35.816406 80 80 80h56c44.183594 0 80-35.816406 80-80s-35.816406-80-80-80zm0 0" fill="#aabece"/><path d="m161.296875 56h56c-12.722656-29.144531-41.496094-47.988281-73.296875-48h-56c31.800781.011719 60.574219 18.855469 73.296875 48zm0 0" fill="#6a9eaa"/><path d="m168 88c0 44.183594-35.816406 80-80 80s-80-35.816406-80-80 35.816406-80 80-80 80 35.816406 80 80zm0 0" fill="#f9ddac"/><path d="m136 88c0 26.507812-21.492188 48-48 48s-48-21.492188-48-48 21.492188-48 48-48 48 21.492188 48 48zm0 0" fill="#f98c96"/><path d="m392 8h-88c-44.183594 0-80 35.816406-80 80s35.816406 80 80 80h88c44.183594 0 80-35.816406 80-80s-35.816406-80-80-80zm0 0" fill="#aabece"/><path d="m377.296875 56h88c-12.722656-29.144531-41.496094-47.988281-73.296875-48h-88c31.800781.011719 60.574219 18.855469 73.296875 48zm0 0" fill="#6a9eaa"/><path d="m384 88c0 44.183594-35.816406 80-80 80s-80-35.816406-80-80 35.816406-80 80-80 80 35.816406 80 80zm0 0" fill="#f9ddac"/><path d="m352 88c0 26.507812-21.492188 48-48 48s-48-21.492188-48-48 21.492188-48 48-48 48 21.492188 48 48zm0 0" fill="#f98c96"/><path d="m8 168h464v48h-464zm0 0" fill="#dd3e46"/><g fill="#e97424"><path d="m88 40c-6.847656.003906-13.613281 1.480469-19.839844 4.328125 18.421875 23.046875 40.507813 42.910156 65.367188 58.800781 4.890625-14.632812 2.4375-30.722656-6.585938-43.234375-9.023437-12.511719-23.515625-19.914062-38.941406-19.894531zm0 0"/><path d="m88 136c9.640625.011719 19.054688-2.894531 27.015625-8.328125-20.523437-20.785156-46.46875-35.382813-74.886719-42.136719-.050781.863282-.128906 1.664063-.128906 2.464844 0 26.507812 21.492188 48 48 48zm0 0"/><path d="m304 40c-6.847656.003906-13.613281 1.480469-19.839844 4.328125 18.421875 23.046875 40.507813 42.910156 65.367188 58.800781 4.890625-14.632812 2.4375-30.722656-6.585938-43.234375-9.023437-12.511719-23.515625-19.914062-38.941406-19.894531zm0 0"/><path d="m304 136c9.640625.011719 19.054688-2.894531 27.015625-8.328125-20.523437-20.785156-46.46875-35.382813-74.886719-42.136719-.050781.800782-.128906 1.601563-.128906 2.464844 0 26.507812 21.492188 48 48 48zm0 0"/></g><path d="m32 216h416v32h-416zm0 0" fill="#ebb562"/><path d="m432 80h16v16h-16zm0 0" fill="#6a9eaa"/><path d="m144 88c0-30.929688-25.070312-56-56-56s-56 25.070312-56 56 25.070312 56 56 56c30.910156-.039062 55.960938-25.089844 56-56zm-56-40c22.082031.027344 39.972656 17.917969 40 40 0 .519531-.136719 1.007812-.152344 1.527344-16.789062-11.816406-32.140625-25.550782-45.742187-40.925782 1.945312-.351562 3.917969-.550781 5.894531-.601562zm-21.808594 6.550781c16.652344 19.707031 35.949219 37.015625 57.34375 51.433594-2.054687 4.097656-4.792968 7.8125-8.101562 10.984375-18.90625-17.53125-41.722656-30.296875-66.554688-37.242188 2.21875-10.347656 8.441406-19.398437 17.3125-25.175781zm-17.269531 41.839844c19.257813 6.023437 37.0625 15.964844 52.285156 29.210937-4.234375 1.542969-8.699219 2.355469-13.207031 2.398438-18.839844-.035156-35.105469-13.191406-39.078125-31.609375zm0 0"/><path d="m480 88c-.058594-48.578125-39.421875-87.9414062-88-88h-88c-34.457031.0507812-65.714844 20.195312-80 51.550781-14.285156-31.355469-45.542969-51.4999998-80-51.550781h-56c-38.394531-.015625-72.363281 24.886719-83.898438 61.511719-11.535156 36.621093 2.027344 76.492187 33.5 98.488281h-37.601562v64h24v32h432v-32h24v-64h-37.558594c23.515625-16.433594 37.535156-43.308594 37.558594-72zm-88-72c24.03125.015625 46.472656 12.019531 59.824219 32h-69.511719c-6.53125-12.777344-16.089844-23.765625-27.839844-32zm-88 0c28.621094.007812 54.519531 16.96875 65.96875 43.199219 12.734375 29.183593 4.792969 63.265625-19.535156 83.8125-24.328125 20.542969-59.261719 22.667969-85.898438 5.222656-26.640625-17.445313-38.65625-50.3125-29.550781-80.824219 9.109375-30.511718 37.175781-51.417968 69.015625-51.410156zm-50.398438 144h-59.121093c12.816406-9.027344 23.003906-21.296875 29.519531-35.550781 6.539062 14.265625 16.753906 26.535156 29.601562 35.550781zm-41.761718-96c7.886718 22.03125 4.542968 46.527344-8.960938 65.636719-13.507812 19.113281-35.476562 30.441406-58.878906 30.363281h-5.601562c30.777343-21.378906 44.511718-59.988281 34.152343-96zm-67.839844-48c24.03125.015625 46.472656 12.019531 59.824219 32h-37.535157c-6.550781-12.765625-16.109374-23.75-27.847656-32zm-128 72c0-39.765625 32.234375-72 72-72s72 32.234375 72 72-32.234375 72-72 72c-39.746094-.042969-71.957031-32.253906-72-72zm424 152h-400v-16h400zm24-64v32h-448v-32zm-72-16h-37.558594c30.789063-21.367188 44.523438-59.992188 34.132813-96h71.203125c7.882812 22.019531 4.546875 46.503906-8.945313 65.609375-13.488281 19.109375-35.441406 30.449219-58.832031 30.390625zm0 0"/><path d="m304 144c30.929688 0 56-25.070312 56-56s-25.070312-56-56-56-56 25.070312-56 56c.039062 30.910156 25.089844 55.960938 56 56zm0-16c-18.839844-.035156-35.105469-13.191406-39.078125-31.609375 19.257813 6.023437 37.0625 15.964844 52.285156 29.210937-4.234375 1.542969-8.699219 2.355469-13.207031 2.398438zm0-80c22.082031.027344 39.972656 17.917969 40 40 0 .519531-.136719 1.007812-.152344 1.527344-16.789062-11.816406-32.140625-25.550782-45.742187-40.925782 1.945312-.351562 3.917969-.550781 5.894531-.601562zm-21.808594 6.550781c16.652344 19.707031 35.949219 37.015625 57.34375 51.433594-2.054687 4.097656-4.792968 7.8125-8.101562 10.984375-18.90625-17.53125-41.722656-30.296875-66.554688-37.242188 2.21875-10.347656 8.441406-19.398437 17.3125-25.175781zm0 0"/><path d="m432 80h16v16h-16zm0 0"/></svg>