<svg height="479pt" viewBox="-39 0 479 479.98988" width="479pt" xmlns="http://www.w3.org/2000/svg"><path d="m200.496094 8c-106.042969 0-192 127.871094-192 256 0 93.199219 46.398437 171.105469 112 208-15.804688-29.527344-24.046875-62.507812-24-96 0-79.527344 46.558594-136 104-136 57.4375 0 104 56.472656 104 136 .046875 33.492188-8.199219 66.472656-24 96 65.597656-36.894531 112-114.800781 112-208 0-128.128906-85.960938-256-192-256zm0 0" fill="#f3bb59"/><g fill="#e97424"><path d="m160.496094 48c-37.722656 15.550781-69.722656 50.246094-91.199219 93.601562l115.199219-40v-37.601562c-.460938-5.601562-3.457032-10.683594-8.132813-13.800781-4.675781-3.121094-10.519531-3.929688-15.867187-2.199219zm0 0"/><path d="m43.855469 222.480469c-2.179688 13.734375-3.304688 27.613281-3.359375 41.519531 0 42.648438 24 88 24 88 8-72 56-136 120-144v-34.398438zm0 0"/><path d="m240.496094 48c37.71875 15.550781 69.71875 50.246094 91.199218 93.601562l-115.199218-40v-37.601562c.460937-5.601562 3.453125-10.683594 8.128906-13.800781 4.679688-3.121094 10.523438-3.929688 15.871094-2.199219zm0 0"/><path d="m357.136719 222.480469c2.179687 13.734375 3.300781 27.613281 3.359375 41.519531 0 42.648438-24 88-24 88-8-72-56-136-120-144v-34.398438zm0 0"/></g><path d="m43.855469 222.480469 140.640625-48.878907v-72l-115.199219 40c-12.542969 25.507813-21.125 52.78125-25.441406 80.878907zm0 0" fill="#e4544f"/><path d="m357.136719 222.480469-140.640625-48.878907v-72l115.199218 40c12.542969 25.507813 21.121094 52.78125 25.441407 80.878907zm0 0" fill="#e4544f"/><path d="m117.6875 152.507812 64.003906-23.992187 5.617188 14.984375-64.003906 23.992188zm0 0" fill="#f3bb59"/><path d="m213.6875 143.488281 5.621094-14.984375 64 24-5.621094 14.984375zm0 0" fill="#f3bb59"/><path d="m84.914062 168.84375 16-8 7.15625 14.3125-16 8zm0 0" fill="#f3bb59"/><path d="m274.789062 477.601562c2.53125 2.558594 6.460938 3.117188 9.601563 1.359376 71.625-40.25 116.105469-122.625 116.105469-214.960938 0-140.640625-93.457032-264-200-264-106.546875 0-200 123.359375-200 264 0 92.335938 44.480468 174.710938 116.078125 214.976562 3.140625 1.753907 7.066406 1.191407 9.59375-1.367187 2.527343-2.558594 3.03125-6.492187 1.238281-9.609375-15.046875-28.332031-22.914062-59.921875-22.910156-92 0-72.976562 41.269531-128 96-128 54.726562 0 96 55.023438 96 128 .003906 32.078125-7.863282 63.667969-22.914063 92-1.796875 3.109375-1.300781 7.035156 1.207031 9.601562zm-74.292968-245.601562c-63.847656 0-112 61.902344-112 144 .128906 25.175781 4.53125 50.144531 13.015625 73.847656-53.015625-40.925781-85.015625-109.695312-85.015625-185.847656 0-129.792969 87.695312-248 184-248 96.304687 0 184 118.207031 184 248 0 76.152344-32 144.921875-85.015625 185.847656 8.484375-23.703125 12.882812-48.671875 13.015625-73.847656 0-82.097656-48.152344-144-112-144zm0 0"/><path d="m180.863281 43.574219c-6.820312-4.839844-15.605469-5.953125-23.417969-2.964844-71.230468 29.359375-124.949218 125.398437-124.949218 223.390625 0 44.128906 23.910156 89.816406 24.925781 91.742188 1.386719 2.621093 4.109375 4.257812 7.074219 4.257812.5 0 1-.046875 1.496094-.144531 3.449218-.65625 6.066406-3.484375 6.453124-6.976563 8.050782-72.167968 55.5625-129.75 113.042969-136.878906 4.027344-.503906 7.039063-3.941406 7.007813-8v-144c-.226563-8.324219-4.589844-15.984375-11.632813-20.425781zm-4.367187 86.882812-58.808594 22.046875 5.597656 14.992188 53.210938-19.953125v20.335937l-122.402344 42.585938c4.378906-21.539063 11.363281-42.464844 20.800781-62.3125l101.601563-35.351563zm-12.953125-75.066406c.808593-.316406 1.667969-.472656 2.535156-.460937 2.109375.0625 4.15625.738281 5.890625 1.941406 2.570312 1.507812 4.253906 4.160156 4.527344 7.128906v31.878906l-90.242188 31.386719c20.136719-33.34375 46.945313-59.363281 77.289063-71.875zm-102.246094 269.21875c-7.71875-19.320313-12.050781-39.820313-12.800781-60.609375.019531-11.882812.84375-23.75 2.460937-35.519531l125.539063-43.679688v16.359375c-54.265625 10.253906-99.472656 59.480469-115.199219 123.449219zm0 0"/><path d="m335 359.855469c.492188.097656.992188.144531 1.496094.144531 2.960937 0 5.683594-1.636719 7.070312-4.257812 1.015625-1.925782 24.929688-47.613282 24.929688-91.742188 0-97.992188-53.722656-194.03125-124.953125-223.390625-7.816407-2.753906-16.476563-1.664063-23.367188 2.9375-6.894531 4.601563-11.222656 12.175781-11.679687 20.453125v144c-.003906 4.035156 3 7.445312 7.007812 7.945312 57.480469 7.199219 105.023438 64.75 113.039063 136.917969.382812 3.496094 3 6.335938 6.457031 6.992188zm-110.503906-212.3125 53.191406 19.953125 5.597656-14.992188-58.789062-22.046875v-17.65625l101.597656 35.335938c9.460938 19.84375 16.464844 40.769531 20.855469 62.3125l-122.453125-42.570313zm4.527344-90.671875c2.40625-1.816406 5.539062-2.367188 8.421874-1.480469 30.34375 12.511719 57.152344 38.539063 77.289063 71.882813l-90.238281-31.394532v-31.878906c.269531-2.96875 1.957031-5.621094 4.527344-7.128906zm-4.527344 144.304687v-16.375l125.535156 43.679688c1.621094 11.769531 2.441406 23.636719 2.464844 35.519531-.757813 20.78125-5.085938 41.273438-12.800782 60.585938-15.746093-63.953126-60.945312-113.171876-115.199218-123.410157zm0 0"/><path d="m84.914062 168.84375 16-8 7.15625 14.3125-16 8zm0 0"/></svg>