<svg height="480pt" viewBox="0 -16 480 480" width="480pt" xmlns="http://www.w3.org/2000/svg"><path d="m24 376h432v32h-432zm0 0" fill="#d3843d"/><path d="m24 408h432v32h-432zm0 0" fill="#edaa72"/><path d="m8 8h464v336h-464zm0 0" fill="#f9ddac"/><path d="m200.335938 160h-128c-14.640626-.511719-27.410157-10.089844-32-24-8-24 128-56 152-40s48 64 8 64zm0 0" fill="#e97424"/><path d="m102.6875 160c27.347656-26.261719 59.914062-46.480469 95.585938-59.335938-1.875-1.683593-3.859376-3.242187-5.9375-4.664062-24-16-160 16-152 40 4.589843 13.910156 17.359374 23.488281 32 24zm0 0" fill="#f3bb59"/><path d="m186.609375 208h-128c-14.640625-.511719-27.410156-10.089844-32-24-8-24 128-56 152-40s48 64 8 64zm0 0" fill="#e33e5c"/><path d="m88.960938 208c27.34375-26.261719 59.90625-46.480469 95.574218-59.335938-1.871094-1.683593-3.851562-3.238281-5.925781-4.664062-24-16-160 16-152 40 4.589844 13.910156 17.359375 23.488281 32 24zm0 0" fill="#ea7a92"/><path d="m304 160h128c14.640625-.511719 27.410156-10.089844 32-24 8-24-128-56-152-40s-48 64-8 64zm0 0" fill="#e33e5c"/><path d="m280 208h128c14.640625-.511719 27.410156-10.089844 32-24 8-24-128-56-152-40s-48 64-8 64zm0 0" fill="#e97424"/><path d="m168.335938 256h-128c-14.640626-.511719-27.410157-10.089844-32-24-8-24 128-56 152-40s48 64 8 64zm0 0" fill="#e97424"/><path d="m96.007812 39.996094c-6.628906-6.625-20.957031-3.042969-32.003906 8.003906-11.046875 11.050781-14.628906 25.375-8.003906 32.003906 6.628906 6.625 20.953125 3.042969 32-8.003906 11.050781-11.050781 14.632812-25.375 8.007812-32.003906zm0 0" fill="#67c086"/><g fill="#f3bb59"><path d="m336 184h-16c0-15.199219-25.902344-28.945312-34.976562-32.566406l5.945312-14.867188c4.605469 1.832032 45.03125 18.839844 45.03125 47.433594zm0 0"/><path d="m376 184h-16c-.269531-12.71875-5.121094-24.917969-13.664062-34.34375l11.320312-11.3125c11.5 12.457031 18.027344 28.703125 18.34375 45.65625zm0 0"/><path d="m416 184h-16c-1.140625-9.046875-5.203125-17.476562-11.574219-24l12.140625-10.398438c8.839844 9.421876 14.273438 21.53125 15.433594 34.398438zm0 0"/><path d="m360 136h-16c0-15.199219-25.902344-28.945312-34.976562-32.566406l5.945312-14.867188c4.605469 1.832032 45.03125 18.839844 45.03125 47.433594zm0 0"/><path d="m400 136h-16c-.269531-12.71875-5.121094-24.917969-13.664062-34.34375l11.320312-11.3125c11.5 12.457031 18.027344 28.703125 18.34375 45.65625zm0 0"/><path d="m440 136h-16c-1.140625-9.046875-5.203125-17.476562-11.574219-24l12.140625-10.398438c8.839844 9.421876 14.273438 21.53125 15.433594 34.398438zm0 0"/><path d="m70.6875 256c27.347656-26.261719 59.914062-46.480469 95.585938-59.335938-1.875-1.683593-3.859376-3.242187-5.9375-4.664062-24-16-160 16-152 40 4.589843 13.910156 17.359374 23.488281 32 24zm0 0"/><path d="m376 304h-16c-26.507812 0-48-21.492188-48-48h16c26.507812 0 48 21.492188 48 48zm0 0"/><path d="m432 304h-16c-26.507812 0-48-21.492188-48-48h16c26.507812 0 48 21.492188 48 48zm0 0"/><path d="m256 256h16c26.507812 0 48 21.492188 48 48h-16c-26.507812 0-48-21.492188-48-48zm0 0"/><path d="m168 304h-16c-26.507812 0-48-21.492188-48-48h16c26.507812 0 48 21.492188 48 48zm0 0"/><path d="m224 304h-16c-26.507812 0-48-21.492188-48-48h16c26.507812 0 48 21.492188 48 48zm0 0"/><path d="m48 256h16c26.507812 0 48 21.492188 48 48h-16c-26.507812 0-48-21.492188-48-48zm0 0"/></g><path d="m448 80h-16v-32h-24v-16h40zm0 0" fill="#d3843d"/><path d="m376 32h16v16h-16zm0 0" fill="#d3843d"/><path d="m304 376h32v32h-32zm0 0" fill="#ad6327"/><path d="m304 408h32v32h-32zm0 0" fill="#d3843d"/><path d="m256.335938 256h128c14.640624-.511719 27.410156-10.089844 32-24 8-24-128-56-152-40s-48 64-8 64zm0 0" fill="#e33e5c"/><path d="m312.335938 232h-16c0-15.199219-25.902344-28.945312-34.976563-32.566406l5.945313-14.867188c4.605468 1.832032 45.03125 18.839844 45.03125 47.433594zm0 0" fill="#f3bb59"/><path d="m352.335938 232h-16c-.269532-12.71875-5.121094-24.917969-13.664063-34.34375l11.320313-11.3125c11.5 12.457031 18.027343 28.703125 18.34375 45.65625zm0 0" fill="#f3bb59"/><path d="m392.335938 232h-16c-1.128907-9.042969-5.179688-17.46875-11.535157-24l12.144531-10.398438c8.820313 9.429688 14.238282 21.535157 15.390626 34.398438zm0 0" fill="#f3bb59"/><path d="m58.34375 42.34375c-14.398438 14.398438-17.902344 33.410156-8 43.3125 3.917969 3.761719 9.1875 5.78125 14.617188 5.601562 10.960937-.660156 21.246093-5.535156 28.695312-13.601562 14.398438-14.398438 17.902344-33.410156 8-43.3125s-28.921875-6.34375-43.3125 8zm24 24c-8.625 8.617188-18.152344 10.527344-20.6875 8s-.625-12.0625 8-20.6875c4.476562-5.023438 10.636719-8.238281 17.320312-9.03125 1.210938-.101562 2.417969.269531 3.367188 1.03125 2.519531 2.527344.625 12.0625-8 20.6875zm0 0"/><path d="m472 0h-464c-4.417969 0-8 3.582031-8 8v336c0 4.417969 3.582031 8 8 8h464c4.417969 0 8-3.582031 8-8v-336c0-4.417969-3.582031-8-8-8zm-307.617188 205.878906c2.144532 2.183594 4.136719 4.507813 5.960938 6.960938 9.015625 11.855468 13.433594 24.726562 10.511719 30.617187-1.855469 3.75-7.847657 4.542969-12.535157 4.542969h-76.113281c21.511719-18.011719 45.914063-32.253906 72.175781-42.121094zm-61.183593 90.121094h-7.199219c-19-.019531-35.375-13.386719-39.199219-32h7.199219c19 .019531 35.375 13.386719 39.199219 32zm16.800781-32c19 .019531 35.375 13.386719 39.199219 32h-7.199219c-19-.019531-35.375-13.386719-39.199219-32zm56 0c19 .019531 35.375 13.386719 39.199219 32h-7.199219c-19-.019531-35.375-13.386719-39.199219-32zm4.542969-64c-4.519531-5.609375-9.820313-10.542969-15.742188-14.648438-8.109375-4.242187-17.21875-6.199218-26.351562-5.65625 7.125-4.558593 14.488281-8.726562 22.0625-12.496093 7.183593-3.5625 14.582031-6.675781 22.152343-9.320313 2.160157 2.191406 4.164063 4.527344 6 6.992188 9.015626 11.855468 13.433594 24.730468 10.511719 30.617187-1.855469 3.75-7.839843 4.542969-12.535156 4.542969zm19.777343-48h-1.457031c-4.527343-5.621094-9.84375-10.554688-15.785156-14.65625-9.65625-4.65625-20.40625-6.574219-31.078125-5.542969 13.867188-8.988281 28.710938-16.363281 44.246094-21.984375 11.203125 11.429688 19.601562 28.136719 17.058594 36.542969-.449219 1.402344-1.738282 5.640625-12.984376 5.640625zm-76.894531-19.824219-3.425781 2.679688c-19.714844 3.140625-39.128906 7.957031-58.023438 14.402343-6.539062-2.886718-11.59375-8.34375-13.976562-15.082031.511719-1.816406 6.710938-8.320312 28.945312-16.511719 35.300782-13.007812 79.4375-19.488281 100.480469-17.601562-19.195312 8.5625-37.316406 19.339844-54 32.113281zm-59.800781 33.425781c.214844-.058593.425781-.128906.632812-.210937 19.453126-6.847656 39.5-11.867187 59.886719-14.992187l.390625-.046876c12.984375-2.265624 26.1875-3.015624 39.34375-2.238281-3.445312 1.503907-6.871094 2.976563-10.472656 4.757813-16.226562 8.191406-31.609375 17.953125-45.925781 29.152344-20.765625 2.957031-41.230469 7.730468-61.160157 14.257812-5.609374-3.074219-9.894531-8.09375-12.046874-14.113281.527343-1.847657 6.839843-8.414063 29.351562-16.566407zm-16 47.132813c.210938-.050781.421875-.117187.632812-.191406 20.605469-7.015625 41.84375-12.03125 63.414063-14.976563 11.195313-1.722656 22.546875-2.203125 33.847656-1.4375-28.539062 13.058594-54.824219 30.566406-77.871093 51.871094h-27.273438c-10.980469-.386719-20.628906-7.40625-24.375-17.734375v-.167969c.679688-2.035156 7.542969-8.867187 31.632812-17.402344zm-31.625 123.265625v-80.480469c7.082031 5.1875 15.550781 8.140625 24.320312 8.480469h.320313c3.972656 27.527344 27.546875 47.96875 55.359375 48h24v-8c0-.734375-.078125-1.457031-.113281-2.191406 9.394531 6.632812 20.613281 10.191406 32.113281 10.191406h24v-8c0-.734375-.078125-1.457031-.113281-2.191406 9.394531 6.632812 20.613281 10.191406 32.113281 10.191406h24v-8c-.042969-23.664062-14.941406-44.75-37.230469-52.695312.132813-.25.300781-.496094.421875-.738282 5.03125-10.140625 1.863282-23.199218-4.160156-34.8125 9.351562.082032 17.988281-4.984375 22.480469-13.1875 5.121093-10.328125 1.769531-23.679687-4.464844-35.445312 9.101563-1.101563 16.734375-7.394532 19.546875-16.121094 6.214844-20.535156-14.707031-50.230469-31.832031-61.65625-23.449219-15.625-125.363281 5.648438-154.488281 27.894531-10.960938 8.363281-11.242188 16.203125-9.546876 21.289063 2.246094 6.804687 6.171876 12.929687 11.417969 17.808594-20.367187 9.449218-28.730469 19.382812-25.089843 30.207031 2.03125 6.128906 5.410156 11.726562 9.890624 16.378906-4.457031 1.90625-8.78125 4.105469-12.945312 6.582031v-193.503906h448v102.910156c-.640625-.558594-1.214844-1.109375-1.953125-1.671875-29.125-22.246093-131.054687-43.527343-154.480469-27.902343-17.335937 11.535156-33.6875 36.382812-32.796875 55.199218-13.601562 12.898438-24.800781 32.496094-23.929687 48.21875-14.503906 13.988282-27.953125 37.238282-22.800782 54.238282 2.910157 9.070312 10.980469 15.507812 20.472657 16.328124 3.671875 27.84375 27.402343 48.664063 55.488281 48.679688h24v-8c0-.734375-.078125-1.457031-.113281-2.191406 9.394531 6.632812 20.613281 10.191406 32.113281 10.191406h24v-8c0-.734375-.078125-1.457031-.113281-2.191406 9.394531 6.632812 20.613281 10.191406 32.113281 10.191406h24v-8c-.015625-20.761719-11.515625-39.8125-29.878906-49.496094 6.476562-5.15625 11.277344-12.117187 13.800781-20 2.015625-7.503906-1.0625-15.449218-7.609375-19.632812 14.738281-3.222656 26.652344-14.035156 31.289062-28.390625 1.90625-7.453125-1.105468-15.300781-7.511718-19.558594 9.359375-2.078125 17.769531-7.199219 23.910156-14.5625v183.640625zm295.199219-40h-7.199219c-19-.019531-35.375-13.386719-39.199219-32h7.199219c19 .019531 35.375 13.386719 39.199219 32zm56 0h-7.199219c-19-.019531-35.375-13.386719-39.199219-32h7.199219c19 .019531 35.375 13.386719 39.199219 32zm56 0h-7.199219c-19-.019531-35.375-13.386719-39.199219-32h7.199219c19 .019531 35.375 13.386719 39.199219 32zm-38.855469-48h-128c-11.253906 0-12.535156-4.238281-12.960938-5.601562-2.917968-9.597657 8.472657-30.152344 22.082032-41.109376 11.039062 5.269532 30.878906 17.480469 30.878906 30.75h16c0-15.863281-12.457031-28.144531-24.320312-36.261718 12.109374.28125 24.183593 1.476562 36.113281 3.582031 7.671875 9.167969 11.976562 20.6875 12.199219 32.640625h16c-.0625-9.855469-2.371094-19.566406-6.75-28.390625 6.679687 1.597656 13.359374 3.335937 19.917968 5.335937 5.980469 6.332032 9.773438 14.410157 10.832032 23.054688h16c-.09375-4.972656-1.117188-9.878906-3.023438-14.472656 7.316406 2.417968 13.96875 6.507812 19.429688 11.945312-3.484376 10.652344-13.207032 18.035156-24.40625 18.527344zm-71.199219-142.761719c10.609375 5.074219 29.3125 16.570313 30.71875 29.257813-16.890625-3.214844-34.214843-3.484375-51.199219-.800782 4.285157-11.070312 11.328126-20.867187 20.457032-28.457031zm-24.738281 48.457031c.21875-.183593.441406-.3125.65625-.488281 10.609375 5.058594 29.433594 16.59375 30.808594 29.335938-16.953125-3.152344-34.320313-3.378907-51.351563-.671875 4.183594-10.890625 11.011719-20.574219 19.863281-28.175782zm119.59375 46.304688h-19.425781c-19.289063-7.1875-39.214844-12.542969-59.511719-16h6.9375c0-15.871094-12.464844-28.152344-24.328125-36.273438 12.09375.253907 24.148437 1.429688 36.0625 3.519532 7.71875 9.191406 12.050781 20.753906 12.265625 32.753906h16c-.0625-9.867188-2.375-19.59375-6.769531-28.433594 6.699219 1.601563 13.386719 3.335938 19.90625 5.328125 5.992187 6.347657 9.796875 14.441407 10.863281 23.105469h16c-.09375-4.964844-1.117188-9.871094-3.023438-14.457031 7.28125 2.484375 13.921876 6.558593 19.429688 11.929687-3.484375 10.65625-13.207031 18.035156-24.40625 18.527344zm4.40625-48c-19.230469-7.15625-39.082031-12.511719-59.300781-16h6.894531c0-15.855469-12.441406-28.136719-24.304688-36.246094 12.097657.253906 24.15625 1.4375 36.074219 3.535156 7.699219 9.183594 12.015625 20.730469 12.230469 32.710938h16c-.0625-9.871094-2.378906-19.601562-6.777344-28.441406 6.679688 1.601562 13.371094 3.371094 19.9375 5.363281 5.976563 6.339844 9.777344 14.425781 10.839844 23.078125h16c-.09375-4.972656-1.121094-9.878906-3.023438-14.472656 7.316407 2.417968 13.96875 6.507812 19.429688 11.945312-3.484375 10.65625-13.207031 18.035156-24.40625 18.527344zm0 0"/><path d="m432 80h16v-48h-40v16h24zm0 0"/><path d="m376 32h16v16h-16zm0 0"/><path d="m456 368h-432c-4.417969 0-8 3.582031-8 8v64c0 4.417969 3.582031 8 8 8h432c4.417969 0 8-3.582031 8-8v-64c0-4.417969-3.582031-8-8-8zm-8 16v16h-104v-16zm-120 0v16h-16v-16zm-296 0h264v16h-264zm0 48v-16h264v16zm280 0v-16h16v16zm136 0h-104v-16h104zm0 0"/></svg>