<svg height="481pt" viewBox="-7 0 481 481.65714" width="481pt" xmlns="http://www.w3.org/2000/svg"><g fill="#6a9eaa"><path d="m233.984375 0h16v72h-16zm0 0"/><path d="m107.429688 12.59375 13.109374-9.175781 56 80-13.105468 9.175781zm0 0"/><path d="m324.035156 98.644531 72.003906-79.996093 11.894532 10.703124-72.007813 79.996094zm0 0"/><path d="m400.851562 279.914062 2.261719-15.84375 56 8-2.261719 15.84375zm0 0"/><path d="m.328125 470.34375 124-124 11.3125 11.316406-124 123.996094zm0 0"/><path d="m138.835938 452.421875 39.996093-80 14.3125 7.15625-40 79.996094zm0 0"/><path d="m233.984375 392h16v64h-16zm0 0"/><path d="m332.332031 365.664062 11.316407-11.316406 112 112-11.316407 11.316406zm0 0"/><path d="m7.015625 159.429688 5.945313-14.863282 80 31.996094-5.945313 14.863281zm0 0"/><path d="m5.871094 321.148438 79.992187-48.011719 8.234375 13.71875-79.992187 48.011719zm0 0"/><path d="m25.984375 232h56v16h-56zm0 0"/></g><path d="m401.984375 232c0 88.367188-71.632813 160-160 160-88.363281 0-160-71.632812-160-160s71.636719-160 160-160c88.367187 0 160 71.632812 160 160zm0 0" fill="#426d78"/><path d="m241.984375 400c-92.78125 0-168-75.214844-168-168s75.21875-168 168-168c92.785156 0 168 75.214844 168 168-.105469 92.738281-75.257813 167.894531-168 168zm0-320c-83.945313 0-152 68.050781-152 152s68.054687 152 152 152c83.949219 0 152-68.050781 152-152-.089844-83.910156-68.089844-151.90625-152-152zm0 0" fill="#426d78"/><path d="m369.984375 232c0 70.695312-41.300781 80-112 80-70.695313 0-48-25.304688-48-96s-38.695313-112 32-112 128 57.308594 128 128zm0 0" fill="#aabece"/><path d="m241.984375 368c-75.074219-.082031-135.914063-60.925781-136-136h16c.078125 66.242188 53.757813 119.925781 120 120zm0 0" fill="#aabece"/><path d="m281.984375 208h16v16h-16zm0 0" fill="#fff"/><path d="m241.984375 272h16v16h-16zm0 0" fill="#fff"/><path d="m185.746094 249.9375-15.519532-3.875c7.457032-29.832031-7.898437-99.621094-8.046874-100.328125-1.539063-10.261719 1.371093-20.695313 8-28.679687 11.496093-13.964844 32.949218-21.054688 63.804687-21.054688v16c-31.878906 0-45.421875 8.128906-51.199219 14.945312-3.757812 4.273438-5.554687 9.929688-4.960937 15.589844.640625 2.746094 16.28125 73.960938 7.921875 107.402344zm0 0" fill="#aabece"/><path d="m161.984375 264h16v16h-16zm0 0" fill="#aabece"/><path d="m265.984375 136c0 17.671875-14.324219 32-32 32-17.671875 0-32-14.328125-32-32s14.328125-32 32-32c17.675781 0 32 14.328125 32 32zm0 0" fill="#cfdfe8"/><path d="m345.984375 168c0 13.253906-10.742187 24-24 24-13.253906 0-24-10.746094-24-24s10.746094-24 24-24c13.257813 0 24 10.746094 24 24zm0 0" fill="#cfdfe8"/><path d="m353.984375 272c0 17.671875-14.324219 32-32 32-17.671875 0-32-14.328125-32-32s14.328125-32 32-32c17.675781 0 32 14.328125 32 32zm0 0" fill="#cfdfe8"/><path d="m257.984375 224c0 13.253906-10.742187 24-24 24-13.253906 0-24-10.746094-24-24s10.746094-24 24-24c13.257813 0 24 10.746094 24 24zm0 0" fill="#cfdfe8"/><path d="m4.324219 29.65625 11.3125-11.3125 128 127.996094-11.316407 11.316406zm0 0" fill="#6a9eaa"/><path d="m267.253906 356.324219 13.457032-8.652344 72 111.996094-13.460938 8.652343zm0 0" fill="#6a9eaa"/><path d="m346.199219 319.046875 7.589843-14.09375 104 56-7.589843 14.09375zm0 0" fill="#6a9eaa"/><path d="m341.429688 145.421875 103.992187-72.003906 9.109375 13.152343-103.992188 72.007813zm0 0" fill="#6a9eaa"/><path d="m368.671875 216.109375 96-16.015625 2.632813 15.78125-96 16.015625zm0 0" fill="#6a9eaa"/><path d="m105.984375 232c.085937 75.074219 60.925781 135.917969 136 136v-16c-66.242187-.074219-119.921875-53.757812-120-120zm0 0"/><path d="m281.984375 208h16v16h-16zm0 0"/><path d="m241.984375 272h16v16h-16zm0 0"/><path d="m161.984375 264h16v16h-16zm0 0"/><path d="m11.640625 481.65625 121.722656-121.71875c11.875 10.0625 25.085938 18.429688 39.261719 24.863281l-33.800781 67.589844 14.320312 7.152344 34.402344-68.800781c14.980469 5.140624 30.617187 8.121093 46.4375 8.851562v56.40625h16v-56.40625c13.792969-.59375 27.457031-2.894531 40.679687-6.839844l48.59375 75.574219 13.457032-8.65625-46.585938-72.472656c10.871094-4.496094 21.234375-10.128907 30.921875-16.800781l107.277344 107.28125 11.3125-11.3125-105.75-105.773438c9.207031-7.796875 17.554687-16.554688 24.894531-26.128906l75.375 40.582031 7.585938-14.09375-73.71875-39.695313c8.09375-12.769531 14.417968-26.578124 18.796875-41.050781l53.992187 7.714844 2.273438-15.84375-52.304688-7.476563c2.125-10.738281 3.195313-21.65625 3.199219-32.601562 0-2.191406-.246094-4.328125-.328125-6.503906l57.648438-9.601563-2.640626-15.773437-56.367187 9.390625c-3.421875-25.78125-12.820313-50.40625-27.445313-71.910157l73.6875-51.015624-9.105468-13.152344-74.214844 51.367187c-7.863281-9.375-16.710938-17.875-26.402344-25.34375l63.089844-70.105469-11.863281-10.703124-64.386719 71.535156c-24.511719-15.5625-52.664062-24.449219-81.671875-25.777344v-64.40625h-16v64.40625c-20.941406.945312-41.523437 5.828125-60.65625 14.402344l-52.796875-75.410156-13.097656 9.1875 51.496094 73.597656c-15.625 8.941406-29.71875 20.328125-41.742188 33.726562l-101.601562-101.597656-11.257813 11.34375 102.707031 102.703125c-9.289062 12.542969-16.777344 26.324219-22.257812 40.9375l-71.816406-28.730469-5.949219 14.867188 72.871093 29.140625c-3.863281 14.15625-5.84375 28.753906-5.898437 43.425781h-48v16h48.800781c.960938 9.65625 2.761719 19.214844 5.375 28.558594l-74.292968 44.585937 8.238281 13.710938 71.199219-42.71875c8.152343 21.21875 20.527343 40.5625 36.371093 56.863281l-121.347656 121.34375zm380.898437-269.527344-15.769531 2.632813c-2.65625-21.132813-10.265625-41.335938-22.207031-58.96875l13.144531-9.097657c13.285157 19.566407 21.789063 41.980469 24.832031 65.433594zm-70.554687 83.871094c-11.984375.054688-22.191406-8.703125-23.957031-20.558594-1.765625-11.855468 5.445312-23.210937 16.925781-26.652344 11.484375-3.4375 23.75 2.078126 28.792969 12.953126 5.046875 10.871093 1.335937 23.800781-8.703125 30.347656-1.367188.757812-2.746094 1.503906-4.21875 2.175781-2.808594 1.136719-5.808594 1.726563-8.839844 1.734375zm37.335937-38c-5.796874-15.726562-20.800781-26.152344-37.5625-26.097656-16.757812.054687-31.695312 10.578125-37.390624 26.339844-5.695313 15.761718-.933594 33.40625 11.921874 44.15625-12.730468 1.175781-25.515624 1.710937-38.304687 1.601562-21.855469 0-34.398437-2.519531-39.34375-7.945312-5.535156-6.023438-4.390625-19.558594-2.816406-38.285157.195312-2.226562.394531-4.640625.585937-7.074219 13.277344 8.816407 31.019532 6.515626 41.609375-5.394531 10.589844-11.910156 10.804688-29.796875.5-41.957031-10.304687-12.15625-27.984375-14.878906-41.46875-6.382812-.855469-9.640626-2.175781-18.648438-3.625-26.832032 6.183594 3.804688 13.296875 5.835938 20.558594 5.871094 22.082031-.027344 39.976563-17.917969 40-40-.019531-7.484375-2.160156-14.808594-6.175781-21.128906 17.101562 3.796875 33.160156 11.308594 47.035156 22-14.589844 3.292968-24.945312 16.257812-24.929688 31.214844.019532 14.953124 10.402344 27.898437 25 31.15625 14.59375 3.257812 29.496094-4.042969 35.871094-17.570313 7.363282 15.757813 11.183594 32.9375 11.199219 50.328125.105469 8.738281-.789063 17.460938-2.664063 26zm-101.335937-122c.039063 12.535156-9.574219 22.988281-22.066406 23.996094-12.496094 1.007812-23.660157-7.769532-25.632813-20.144532-1.972656-12.378906 5.914063-24.191406 18.101563-27.117187 2.199219-.261719 4.535156-.46875 7.09375-.582031 12.609375.785156 22.449219 11.214844 22.503906 23.847656zm-24 72c8.839844 0 16 7.164062 16 16s-7.160156 16-16 16c-8.835937 0-16-7.164062-16-16s7.164063-16 16-16zm104-40c0 8.835938-7.160156 16-16 16-8.835937 0-16-7.164062-16-16s7.164063-16 16-16c8.839844 0 16 7.164062 16 16zm-209.46875-36.800781c29.167969-33.039063 71.285156-51.734375 115.355469-51.203125 44.070312.527344 85.726562 20.230468 114.089844 53.964844l-13.246094 9.167968c-25.753906-29.910156-63.261719-47.117187-102.730469-47.128906-2.269531 0-4.382813.070312-6.46875.152344-.523437 0-1.007813-.152344-1.53125-.152344-30.855469 0-52.308594 7.089844-63.765625 21.054688-6.628906 7.984374-9.539062 18.417968-8 28.679687.152344.707031 15.503906 70.496094 8.046875 100.328125l15.519531 3.875c8.359375-33.441406-7.277344-104.65625-7.894531-107.402344-.597656-5.660156 1.199219-11.316406 4.960937-15.589844 2.804688-3.179687 6.226563-5.753906 10.054688-7.578124-3.199219 11.199218-.496094 25.359374 2.703125 42.175781 3.894531 17.902343 6.03125 36.140625 6.375 54.457031 0 15.585938-1.109375 28.800781-2.09375 40.425781-1.929687 22.78125-3.320313 39.253907 6.96875 50.453125 8.566406 9.3125 23.375 13.121094 51.125 13.121094 65.65625 0 120-6.625 120-88 0-.40625-.054687-.800781-.0625-1.214844l15.871094-2.640625c0 1.296875.191406 2.550781.191406 3.855469.003906 28.960938-8.328125 57.316406-24 81.671875l-16.191406-8.71875-7.582031 14.09375 14.398437 7.761719c-16.667969 20.804687-38.5 36.882812-63.320313 46.625l-16.566406-25.761719-13.457031 8.65625 14.3125 22.265625c-61.957031 16.882812-127.832031-7.074219-164.46875-59.816406-36.636719-52.738282-36.097656-122.832032 1.347656-175l13.878907 13.878906 11.3125-11.3125zm0 0"/></svg>