<svg height="480pt" viewBox="0 -92 480.00385 480" width="480pt" xmlns="http://www.w3.org/2000/svg"><path d="m403.042969 240h-102.082031c-16.433594.003906-30.195313-12.445312-31.839844-28.796875l-13.121094-131.203125h192l-13.117188 131.203125c-1.644531 16.351563-15.40625 28.800781-31.839843 28.796875zm0 0" fill="#f3bb59"/><path d="m456 288h-432l-16-48h464zm0 0" fill="#f9ddac"/><path d="m434.882812 211.203125 9.917969-99.203125h-185.597656l9.917969 99.203125c1.644531 16.351563 15.40625 28.800781 31.839844 28.796875h102.082031c16.433593.003906 30.195312-12.445312 31.839843-28.796875zm0 0" fill="#dd3e46"/><path d="m282.34375 149.664062 11.3125-11.316406 16 16-11.316406 11.3125zm0 0" fill="#f9ddac"/><path d="m368 160c0 8.839844-7.160156 16-16 16-8.835938 0-16-7.160156-16-16 0-8.835938 7.164062-16 16-16 8.839844 0 16 7.164062 16 16zm0 0" fill="#f3bb59"/><path d="m392.847656 148.425781 8-16 14.3125 7.15625-8 16zm0 0" fill="#f9ddac"/><path d="m306.34375 202.339844 15.996094-15.996094 11.316406 11.3125-16 16zm0 0" fill="#f9ddac"/><path d="m408 192c0 8.839844-7.160156 16-16 16-8.835938 0-16-7.160156-16-16 0-8.835938 7.164062-16 16-16 8.839844 0 16 7.164062 16 16zm0 0" fill="#f3bb59"/><path d="m248 208c-30.132812-4.699219-59.648438-12.75-88-24-39.597656-16.964844-92.6875-25.941406-104 8-11.308594 33.945312 66.746094 51.3125 112 40 45.257812-11.308594 80-24 80-24zm0 0" fill="#dd3e46"/><path d="m56 200c-16.597656 0-48-8.359375-48-40h16c0 23.730469 30.699219 24 32 24zm0 0" fill="#67c086"/><g fill="#e97424"><path d="m344 0h16v32h-16zm0 0"/><path d="m290.347656 21.65625 11.316406-11.3125 24 24-11.3125 11.316406zm0 0"/><path d="m378.351562 34.347656 24-24.003906 11.3125 11.3125-24 24.003906zm0 0"/></g><path d="m472 232h-36.957031c4.378906-5.828125 7.078125-12.742188 7.800781-20l13.15625-131.199219c.230469-2.253906-.511719-4.503906-2.039062-6.179687-1.523438-1.679688-3.691407-2.628906-5.960938-2.621094h-192c-2.257812 0-4.414062.957031-5.929688 2.636719-1.519531 1.675781-2.253906 3.914062-2.027343 6.164062l13.117187 131.199219c.722656 7.257812 3.421875 14.171875 7.800782 20h-70.109376c30.398438-8.695312 51.621094-16.382812 51.894532-16.484375 3.433594-1.265625 5.574218-4.695313 5.195312-8.335937-.375-3.640626-3.175781-6.558594-6.796875-7.089844-29.441406-4.617188-58.285156-12.480469-86-23.441406-14.0625-6.03125-62.34375-24.597657-93.300781-10.703126-8.152344 3.523438-14.816406 9.789063-18.84375 17.703126-9-1.0625-27-5.460938-27-23.648438h-16c0 26.539062 22.074219 36.675781 38.992188 39.257812.304687 7.136719 3.226562 13.914063 8.210937 19.03125 5.96875 5.933594 13.074219 10.597657 20.894531 13.710938h-68.097656c-2.570312 0-4.984375 1.238281-6.488281 3.324219-1.5039065 2.085937-1.914063 4.765625-1.101563 7.207031l16 48c1.089844 3.265625 4.148438 5.472656 7.589844 5.46875h432c3.445312.003906 6.503906-2.203125 7.59375-5.46875l16-48c.8125-2.441406.402344-5.121094-1.101562-7.207031-1.503907-2.085938-3.917969-3.324219-6.492188-3.324219zm-408.40625-37.46875c1.992188-6.324219 6.679688-11.441406 12.800781-13.984375 6.492188-2.648437 13.464844-3.910156 20.472657-3.703125 20.734374 1.027344 41.085937 5.949219 60 14.511719 19.292968 7.949219 39.242187 14.203125 59.621093 18.695312-13.597656 4.238281-31.078125 9.359375-50.398437 14.191407-33.601563 8.40625-83.601563-.089844-99.097656-16.800782-3.699219-3.183594-5.050782-8.320312-3.398438-12.910156zm375.609375-106.53125-1.601563 16h-171.160156l-1.597656-16zm-162.121094 122.402344-9.039062-90.402344h167.957031l-9.039062 90.402344c-1.195313 12.296875-11.5625 21.65625-23.917969 21.597656h-102.082031c-12.339844.039062-22.683594-9.316406-23.878907-21.597656zm173.152344 69.597656h-420.464844l-10.671875-32h441.808594zm0 0"/><path d="m282.34375 149.664062 11.3125-11.316406 16 16-11.316406 11.3125zm0 0"/><path d="m376 160c0-13.253906-10.742188-24-24-24-13.253906 0-24 10.746094-24 24 0 13.257812 10.746094 24 24 24 13.257812 0 24-10.742188 24-24zm-24 8c-4.417969 0-8-3.578125-8-8 0-4.417969 3.582031-8 8-8 4.421875 0 8 3.582031 8 8 0 4.421875-3.578125 8-8 8zm0 0"/><path d="m392.847656 148.425781 8-16 14.3125 7.15625-8 16zm0 0"/><path d="m306.34375 202.339844 15.996094-15.996094 11.316406 11.3125-16 16zm0 0"/><path d="m416 192c0-13.253906-10.742188-24-24-24-13.253906 0-24 10.746094-24 24 0 13.257812 10.746094 24 24 24 13.257812 0 24-10.742188 24-24zm-24 8c-4.417969 0-8-3.578125-8-8 0-4.417969 3.582031-8 8-8 4.421875 0 8 3.582031 8 8 0 4.421875-3.578125 8-8 8zm0 0"/><path d="m344 0h16v32h-16zm0 0"/><path d="m290.347656 21.65625 11.316406-11.3125 24 24-11.3125 11.316406zm0 0"/><path d="m378.351562 34.347656 24-24.003906 11.3125 11.3125-24 24.003906zm0 0"/></svg>