<svg height="511pt" viewBox="-16 0 511 511.998" width="511pt" xmlns="http://www.w3.org/2000/svg"><path d="m92.390625 100.984375c-.097656.066406-105.601563 74.414063-81.257813 293.53125 1.90625 15.765625 12.609376 88.03125 32.71875 87.753906 16.066407-.222656 28.097657-14.429687 36.703126-28 30.421874-47.96875 44.28125-103.457031 48.621093-159.625 3.558594-46.109375 5.007813-103.488281-8.15625-146.722656-1.863281-6.128906-17.195312-54.949219-28.628906-46.9375zm0 0" fill="#5a5c5e"/><path d="m129.179688 294.636719c-4.347657 56.179687-18.203126 111.667969-48.628907 159.632812-8.605469 13.570313-20.632812 27.777344-36.699219 28.003907-4.203124.054687-8.007812-3.058594-11.394531-8.179688 6.527344-5.359375 12.003907-12.679688 16.527344-19.824219 30.425781-47.964843 44.289063-103.453125 48.625-159.632812 3.5625-46.097657 5-103.484375-8.15625-146.71875-1.035156-3.398438-6.199219-19.902344-12.550781-32.570313 9.160156-9.902344 15.46875-14.347656 15.492187-14.359375 11.425781-8.015625 26.761719 40.808594 28.625 46.929688 13.160157 43.234375 11.710938 100.621093 8.160157 146.71875zm0 0" fill="#444"/><path d="m386.84375 100.984375c.097656.066406 105.601562 74.414063 81.257812 293.53125-1.90625 15.765625-12.609374 88.03125-32.71875 87.753906-16.066406-.222656-28.097656-14.429687-36.703124-28-28.605469-45.105469-42.695313-97.019531-47.777344-149.824219-4.710938-48.917968-7.136719-109.0625 7.3125-156.523437 1.863281-6.128906 17.199218-54.949219 28.628906-46.9375zm0 0" fill="#5a5c5e"/><path d="m468.105469 394.519531c-1.90625 15.761719-12.613281 88.027344-32.722657 87.753907-7.59375-.097657-14.269531-3.332032-20.109374-8.125 12.820312-19.28125 19.835937-67.15625 21.351562-79.628907 18.417969-165.761719-37.472656-248.671875-65.816406-279.25 5.097656-10.171875 10.945312-17.84375 16.035156-14.28125.097656.066407 105.605469 74.414063 81.261719 293.53125zm0 0" fill="#444"/><path d="m245.113281 63.417969c-49.476562-1.097657-99.414062 14.679687-133.351562 46.484375-50.136719 46.992187-50.886719 114.570312-38.070313 173.246094 1.007813 4.605468 2.292969 9.148437 3.777344 13.640624 5.734375 17.386719 21.652344 67.929688 21.65625 93.28125 0 33.589844 5.429688 68.394532 37.992188 92.121094 12.613281 9.191406 28.011718 15.273438 44.277343 18.628906 10.402344 2.144532 21.109375 3.179688 31.808594 3.472657 41.820313 1.144531 89.75 3.679687 125.054687-19.167969 22.492188-14.558594 34.921876-36.65625 39.949219-59.445312 2.640625-11.992188 2.3125-23.554688 2.3125-35.609376 0-25.335937 15.90625-75.839843 21.648438-93.253906 1.675781-5.082031 3.058593-10.242187 4.15625-15.457031 14.617187-69.511719 7.675781-149.988281-68.53125-193.433594-27.527344-15.695312-60.003907-23.78125-92.679688-24.507812zm0 0" fill="#e7e7e7"/><path d="m406.320312 281.363281c-1.09375 5.207031-2.476562 10.371094-4.148437 15.453125-5.746094 17.410156-21.648437 67.921875-21.648437 93.257813 0 12.054687.324218 23.613281-2.316407 35.605469-5.03125 22.789062-17.453125 44.890624-39.953125 59.445312-29.480468 19.074219-67.765625 20.457031-103.945312 19.734375 28.449218-.761719 56.695312-4.894531 79.621094-19.734375 22.5-14.554688 34.925781-36.65625 39.953124-59.445312 2.640626-11.992188 2.316407-23.550782 2.316407-35.605469 0-25.335938 15.90625-75.847657 21.640625-93.257813 1.679687-5.082031 3.066406-10.246094 4.160156-15.453125 14.617188-69.511719 7.675781-149.992187-68.527344-193.4375-25.484375-14.523437-55.199218-22.539062-85.398437-24.21875 5.664062-.316406 11.351562-.417969 17.039062-.289062 32.679688.726562 65.152344 8.8125 92.683594 24.507812 76.203125 43.445313 83.144531 123.925781 68.523437 193.4375zm0 0" fill="#cecece"/><path d="m159.929688 335.664062c0 13.027344-10.558594 23.585938-23.585938 23.585938-13.023438 0-23.585938-10.558594-23.585938-23.585938 0-13.023437 10.5625-23.585937 23.585938-23.585937 13.027344 0 23.585938 10.5625 23.585938 23.585937zm0 0" fill="#ff7a7a"/><path d="m366.480469 335.664062c0 13.027344-10.558594 23.585938-23.585938 23.585938-13.023437 0-23.582031-10.558594-23.582031-23.585938 0-13.023437 10.558594-23.585937 23.582031-23.585937 13.027344 0 23.585938 10.5625 23.585938 23.585937zm0 0" fill="#ff7a7a"/><path d="m340.453125 30.652344c-17.0625-.640625-32.785156 5.59375-44.515625 16.214844-8.855469-22.523438-30.375-38.847657-56.105469-39.820313-26.375-.996094-49.550781 14.425781-59.710937 37.121094-10.101563-8.003907-22.738282-12.992188-36.605469-13.515625-34.667969-1.304688-63.832031 25.738281-65.140625 60.40625-1.308594 34.667968 25.738281 63.832031 60.40625 65.140625 26.371094.996093 49.546875-14.425781 59.707031-37.121094 10.101563 8.003906 22.742188 12.992187 36.605469 13.515625 17.0625.644531 32.785156-5.589844 44.515625-16.214844 8.855469 22.527344 30.375 38.851563 56.109375 39.820313 34.667969 1.308593 63.832031-25.734375 65.140625-60.402344s-25.734375-63.835937-60.40625-65.144531zm0 0" fill="#acacac"/><path d="m400.863281 95.796875c-1.316406 34.671875-30.480469 61.710937-65.140625 60.410156-7.507812-.292969-14.664062-1.882812-21.242187-4.566406 32.375-1.386719 58.773437-27.433594 60.003906-60.386719 1.023437-27.144531-15.335937-50.917968-39.132813-60.585937 1.683594-.070313 3.390626-.082031 5.097657-.011719 34.675781 1.300781 61.714843 30.464844 60.414062 65.140625zm0 0" fill="#9c9c9c"/><path d="m457.652344 197.023438c-1.292969-3.644532-5.292969-5.550782-8.9375-4.261719-3.644532 1.292969-5.550782 5.296875-4.257813 8.941406 19.210938 54.179687 24.824219 118.792969 16.691407 191.976563-.320313 2.671874-3.328126 26.746093-9.335938 48.898437-7.285156 26.839844-14.234375 32.691406-16.316406 32.691406h-.015625c-10.3125-.140625-20.417969-8.238281-30.886719-24.75-6.648438-10.476562-12.617188-21.589843-17.925781-33.292969.898437-8.046874.882812-15.910156.859375-23.582031l-.003906-3.570312c0-24.585938 16.296874-75.914063 21.292968-91.0625 1.742188-5.273438 3.207032-10.730469 4.359375-16.210938 8.601563-40.898437 8.496094-77.835937-.308593-109.789062-4.003907-14.535157-9.789063-27.855469-17.304688-39.933594 1.976562-2.859375 3.734375-5.851563 5.253906-8.953125 9.523438 11.046875 20.738282 26.761719 30.765625 47.023438 1.714844 3.464843 5.914063 4.886718 9.378907 3.167968 3.46875-1.714844 4.886718-5.914062 3.171874-9.378906-13.242187-26.757812-27.546874-44.8125-38.003906-55.832031.96875-4.242188 1.558594-8.601563 1.726563-13.042969.703125-18.636719-5.894531-36.429688-18.574219-50.105469s-29.925781-21.59375-48.5625-22.296875c-15.199219-.578125-29.890625 3.738282-42.222656 12.261719-11.75-21.152344-33.796875-34.941406-58.402344-35.8710938-25.785156-.9843752-49.496094 12.0898438-62.496094 33.8203128-10.167968-6.25-21.710937-9.753906-33.816406-10.210938-18.636719-.703125-36.433594 5.894532-50.105469 18.574219-13.675781 12.679687-21.59375 29.925781-22.296875 48.5625-.238281 6.28125.367188 12.425781 1.71875 18.316406-10.128906 10.679688-23.867187 27.957031-36.742187 53.324219-13.871094 27.324219-23.867188 58.480469-29.710938 92.605469-7.261719 42.429687-8.09375 89.613281-2.460937 140.3125.335937 2.777343 3.457031 27.785156 9.726562 50.886719 7.960938 29.34375 17.4375 43.03125 29.804688 43.03125.078125 0 .15625-.003907.234375-.003907 15.410156-.210937 29.316406-10.433593 42.519531-31.25 4.101562-6.46875 7.945312-13.175781 11.558594-20.09375 5.476562 18.261719 15.796875 35.957031 34.964844 49.925781 12.875 9.382813 28.6875 16.054688 46.988281 19.824219 10.191406 2.105469 20.996093 3.285157 33.03125 3.613281l5.828125.164063c9.304687.269531 18.886718.542969 28.5625.542969 33.078125 0 67.191406-3.21875 94.65625-20.992188 22.480468-14.550781 33.910156-34.679687 39.707031-51.972656 3.449219 6.523438 7.113281 12.859375 11.003906 18.988281 13.199219 20.816407 27.109375 31.039063 42.515625 31.25.078125 0 .15625.003907.234375.003907 12.367188-.003907 21.84375-13.6875 29.804688-43.03125 6.269531-23.105469 9.390625-48.109376 9.734375-50.949219 8.375-75.371094 2.519531-142.078125-17.40625-198.269531zm-383.011719 253.496093c-10.46875 16.511719-20.574219 24.605469-30.882813 24.75h-.019531c-2.082031 0-9.03125-5.855469-16.316406-32.695312-6.007813-22.148438-9.011719-46.226563-9.328125-48.832031-5.449219-49.035157-4.699219-94.65625 2.230469-135.601563 5.523437-32.652344 14.964843-62.417969 28.066406-88.472656 9.832031-19.550781 20.742187-34.765625 30.035156-45.542969 1.507813 3.082031 3.238281 6.042969 5.175781 8.863281-24.628906 38.828125-30.292968 89.644531-16.75 151.65625 1.007813 4.613281 2.304688 9.304688 3.96875 14.339844 4.996094 15.148437 21.300782 66.488281 21.300782 91.085937 0 7.980469.300781 16.472657 1.320312 25.136719-5.523437 12.460938-11.785156 24.25-18.800781 35.3125zm298.886719-56.839843c.027344 10.515624.054687 20.449218-2.160156 30.492187-3.65625 16.59375-13.03125 39.617187-36.914063 55.074219-31.84375 20.605468-76.136719 19.335937-115.210937 18.210937l-5.847657-.164062c-11.203125-.308594-21.207031-1.398438-30.585937-3.332031-16.101563-3.316407-30.476563-9.347657-41.570313-17.429688-17.363281-12.652344-35.113281-32.820312-35.113281-86.460938 0-25.957031-15.390625-75.414062-22.007812-95.472656-1.507813-4.570312-2.679688-8.804687-3.585938-12.941406-12.257812-56.121094-7.964844-102.15625 12.679688-137.4375 8.917968 8.425781 20.121093 14.578125 32.808593 17.378906 3.773438.835938 7.515625-1.550781 8.347657-5.324218.832031-3.777344-1.550782-7.515626-5.328126-8.347657-26.320312-5.8125-44.6875-29.617187-43.667968-56.601562.5625-14.902344 6.894531-28.6875 17.824218-38.824219 10.933594-10.136719 25.167969-15.410156 40.058594-14.847656 11.929688.449218 23.171875 4.601562 32.515625 12.003906 1.695313 1.34375 3.914063 1.824219 6.015625 1.3125 2.097656-.511719 3.84375-1.964844 4.726563-3.9375 9.359375-20.902344 30.179687-33.867188 53.054687-32.988281 22.164063.835937 41.734375 14.726562 49.855469 35.386719.84375 2.140624 2.679687 3.730468 4.917969 4.253906 2.238281.523437 4.59375-.082032 6.296875-1.625 10.875-9.84375 24.925781-14.960938 39.554687-14.40625 14.898438.5625 28.6875 6.894531 38.824219 17.824218 10.136719 10.933594 15.410156 25.15625 14.847656 40.058594-.5625 14.898438-6.894531 28.683594-17.824219 38.820313-10.933593 10.136719-25.152343 15.417969-40.054687 14.847656-22.164063-.835937-41.734375-14.726563-49.859375-35.386719-.839844-2.136718-2.675781-3.730468-4.917969-4.253906-2.234375-.523438-4.589843.085938-6.292969 1.625-10.871093 9.84375-24.929687 14.964844-39.554687 14.410156-11.929687-.449218-23.175781-4.601562-32.519531-12.007812-1.695313-1.34375-3.914063-1.824219-6.011719-1.3125-2.101563.515625-3.84375 1.96875-4.726563 3.941406-6.546874 14.617188-19.054687 25.734375-34.316406 30.503906-3.691406 1.152344-5.75 5.082032-4.597656 8.773438 1.15625 3.6875 5.082031 5.746094 8.773438 4.59375 16.410156-5.128906 30.273437-16.121094 39.042968-30.71875 10.171875 6.253906 21.71875 9.761718 33.828125 10.21875 15.199219.578125 29.886719-3.738282 42.21875-12.261719 11.75 21.152344 33.800781 34.941406 58.40625 35.871094.898438.03125 1.796875.050781 2.695313.050781 17.648437-.003906 34.394531-6.558594 47.40625-18.625.117187-.109375.226562-.222656.34375-.332031 5.734375 9.941406 10.25 20.75 13.464844 32.433593 8.207031 29.78125 8.242187 64.5.105468 103.191407-1.046875 4.976562-2.375 9.921875-3.953125 14.707031-6.613281 20.054688-22 69.5-22 95.445312zm0 0"/><path d="m184.804688 284.179688c0 6.78125-5.5 12.28125-12.28125 12.28125s-12.277344-5.5-12.277344-12.28125 5.496094-12.277344 12.277344-12.277344 12.28125 5.496094 12.28125 12.277344zm0 0" fill="#111"/><path d="m318.988281 284.179688c0 6.78125-5.496093 12.28125-12.277343 12.28125s-12.28125-5.5-12.28125-12.28125 5.5-12.277344 12.28125-12.277344 12.277343 5.496094 12.277343 12.277344zm0 0" fill="#111"/><path d="m273.207031 375.1875c0-12.34375-15.039062-22.351562-33.585937-22.351562-18.550782 0-33.585938 10.007812-33.585938 22.351562 0 12.347656 15.035156 22.355469 33.585938 22.355469 18.546875 0 33.585937-10.007813 33.585937-22.355469zm0 0" fill="#5a5c5e"/><path d="m273.207031 375.191406c0 12.347656-15.039062 22.351563-33.585937 22.351563-2.0625 0-4.078125-.121094-6.039063-.359375 15.671875-1.894532 27.546875-11.019532 27.546875-21.996094 0-10.972656-11.875-20.101562-27.546875-21.992188 1.960938-.238281 3.976563-.359374 6.039063-.359374 18.546875 0 33.585937 10.007812 33.585937 22.355468zm0 0" fill="#444"/><path d="m277.175781 426.769531c-3.664062-1.238281-7.636719.722657-8.878906 4.382813-.035156.097656-3.75 9.933594-18.996094 14.726562-.867187.273438-1.769531.492188-2.683593.6875v-42.445312c19.308593-2.335938 33.589843-14.199219 33.589843-28.929688 0-16.460937-17.828125-29.355468-40.585937-29.355468-22.761719 0-40.589844 12.894531-40.589844 29.355468 0 14.726563 14.277344 26.59375 33.582031 28.929688v42.371094c-.777343-.175782-1.542969-.378907-2.285156-.613282-15.246094-4.792968-18.960937-14.625-18.996094-14.722656-1.238281-3.664062-5.214843-5.625-8.875-4.382812-11.15625 3.769531.515625 18.398437 5.246094 22.578124 15.363281 13.558594 41.476563 15.171876 58.949219 4.800782 3.953125-2.34375 13.328125-11.253906 15.367187-18.496094 1.082031-3.839844.101563-7.214844-4.84375-8.886719zm-37.554687-36.226562c-14.164063 0-26.585938-7.175781-26.585938-15.355469 0-8.175781 12.421875-15.351562 26.585938-15.351562 14.160156 0 26.582031 7.175781 26.582031 15.351562 0 8.179688-12.421875 15.355469-26.582031 15.355469zm0 0"/></svg>