<svg height="511pt" viewBox="0 0 511.99976 511" width="511pt" xmlns="http://www.w3.org/2000/svg"><path d="m467.988281 9.039062c-2.058593-2.078124-5.40625-2.09375-7.484375-.035156l-238.796875 236.546875-28.574219 28.304688 40.53125 40.914062 21.023438-20.824219c4.171875-4.128906 10.898438-4.097656 15.027344.070313l41.214844 41.605469c2.585937 2.609375 6.800781 2.628906 9.410156.042968l146.792968-145.410156c50.277344-49.804687 50.660157-130.9375.855469-181.214844zm0 0" fill="#bfbfbf"/><path d="m467.132812 190.253906-146.792968 145.414063c-2.609375 2.582031-6.824219 2.5625-9.410156-.046875l-24.90625-25.144532 197.035156-195.183593c8.621094-8.539063 15.78125-18.007813 21.472656-28.066407.386719 4.1875.582031 8.394532.5625 12.589844-.15625 32.800782-12.824219 65.539063-37.960938 90.4375zm0 0" fill="#e7e7e7"/><path d="m467.132812 190.253906-146.792968 145.414063c-2.609375 2.582031-6.824219 2.5625-9.410156-.046875l-11.234376-11.339844c2.582032 2.605469 6.796876 2.628906 9.40625.042969l146.796876-145.414063c21.023437-20.824218 33.320312-47.128906 36.875-74.378906 4.4375-5.503906 8.359374-11.296875 11.757812-17.304688.386719 4.191407.582031 8.394532.5625 12.59375-.15625 32.796876-12.824219 65.535157-37.960938 90.433594zm0 0" fill="#cecece"/><path d="m193.136719 273.855469-41.066407 40.679687 33.355469 33.671875 11.195313-6.941406c8.605468-5.335937 19.464844-5.433594 28.164062-.257813 4.507813 2.683594 10.257813 1.980469 13.984375-1.710937l4.957031-4.910156c2.613282-2.585938 2.632813-6.800781.046876-9.410157zm0 0" fill="#bc7d53"/><path d="m243.773438 324.984375c2.585937 2.609375 2.566406 6.820313-.042969 9.40625l-4.953125 4.90625c-3.722656 3.691406-9.484375 4.398437-13.988282 1.722656-8.699218-5.1875-19.554687-5.089843-28.171874.242188l-11.191407 6.949219-10.890625-10.996094c.042969.042968 6.976563-6.417969 7.546875-6.945313 3.34375-3.078125 7.136719-5.269531 11.515625-6.597656 6.675782-2.027344 14.480469-2.214844 21.128906.027344 5.894532 1.988281 13.796876 3.722656 19.488282.085937.660156-.421875 4.769531-3.601562 3.941406-4.472656zm0 0" fill="#af663e"/><path d="m152.070312 314.535156-135.5 134.222656c-12.707031 12.589844-12.804687 33.09375-.214843 45.804688 14.597656 14.734375 39.089843 12.144531 50.277343-5.320312l3.804688-5.933594c11.394531-17.785156 25.53125-33.652344 41.890625-47.015625l10.871094-8.878907c16.695312-13.644531 31.082031-29.894531 42.59375-48.125l19.632812-31.082031zm0 0" fill="#bc7d53"/><path d="m62.117188 494.835938c-12.355469 12.238281-32.90625 12.707031-45.761719-.273438-1.871094-1.890625-3.460938-3.949219-4.761719-6.148438 12.601562 7.746094 29.101562 5.878907 39.652344-4.570312 1.664062-1.648438 3.167968-3.515625 4.503906-5.585938l3.800781-5.941406c11.394531-17.785156 25.535157-33.644531 41.886719-47.011718l10.871094-8.878907c16.699218-13.636719 31.085937-29.894531 42.59375-48.128906l19.632812-31.078125 10.886719 10.992188-19.628906 31.078124c-11.507813 18.238282-25.90625 34.484376-42.597657 48.132813l-10.871093 8.875c-16.359375 13.359375-30.488281 29.230469-41.882813 47.015625l-3.808594 5.929688c-1.328124 2.078124-2.851562 3.945312-4.515624 5.59375zm0 0" fill="#af663e"/><path d="m123.054688 395.183594c0 5.605468-4.542969 10.148437-10.148438 10.148437s-10.152344-4.542969-10.152344-10.148437c0-5.605469 4.546875-10.148438 10.152344-10.148438s10.148438 4.542969 10.148438 10.148438zm0 0" fill="#111"/><path d="m62.238281 455.425781c0 5.605469-4.542969 10.148438-10.148437 10.148438-5.605469 0-10.148438-4.542969-10.148438-10.148438s4.542969-10.148437 10.148438-10.148437c5.605468 0 10.148437 4.542968 10.148437 10.148437zm0 0" fill="#111"/><path d="m511.496094 87.523438c.027344-.632813-.035156-1.261719-.175782-1.871094-2.972656-29.738282-15.753906-58.683594-38.378906-81.527344-4.757812-4.800781-12.539062-4.839844-17.34375-.078125l-14.964844 14.820313c-2.738281 2.714843-2.757812 7.128906-.046874 9.867187 2.710937 2.738281 7.128906 2.757813 9.867187.046875l13.757813-13.625c19.226562 19.949219 30.25 44.898438 33.097656 70.585938-5.292969 8.953124-11.71875 17.226562-19.160156 24.597656l-192.078126 190.269531-11.398437-11.503906c-6.832031-6.894531-17.996094-6.949219-24.894531-.117188l-16.066406 15.917969-.246094-.25-30.460938-30.753906 223.539063-221.4375c2.738281-2.710938 2.757812-7.128906.046875-9.863282-2.710938-2.742187-7.128906-2.761718-9.867188-.046874l-405.0625 401.246093c-7.46875 7.398438-11.6093748 17.265625-11.660156 27.78125s4 20.417969 11.398438 27.890625c7.460937 7.53125 17.449218 11.664063 27.90625 11.664063 1.394531 0 2.796874-.074219 4.203124-.222657 11.949219-1.261718 22.519532-7.789062 29.003907-17.90625l3.800781-5.9375c11.015625-17.1875 24.617188-32.457031 40.429688-45.375l10.871093-8.878906c17.3125-14.144531 32.144531-30.902344 44.082031-49.800781l18.773438-29.726563 9.832031-6.09375c6.414063-3.980468 14.429688-4.054687 20.917969-.191406 7.242188 4.3125 16.476562 3.179688 22.464844-2.75l4.957031-4.914062c5.339844-5.289063 5.378906-13.933594.089844-19.273438l-5.199219-5.25 16.070312-15.917968c1.429688-1.414063 3.742188-1.40625 5.160157.023437l16.296875 16.453125c.003906.003906.003906.007812.007812.011719.003906.003906.007813.007812.011719.011719l24.898437 25.132812c2.660157 2.683594 6.167969 4.03125 9.679688 4.03125 3.46875 0 6.941406-1.3125 9.59375-3.941406l20.28125-20.089844c2.738281-2.710938 2.757812-7.128906.046875-9.867188-2.710937-2.738281-7.128906-2.757812-9.867187-.042968l-20.050782 19.859375-19.769531-19.957031 192.082031-190.273438c3.40625-3.371094 6.617188-6.917969 9.636719-10.609375-2.367187 27.65625-14.167969 54.640625-35.386719 75.660156l-102.429687 101.460938c-2.738281 2.710937-2.757813 7.128906-.046875 9.867187 1.363281 1.378906 3.160156 2.066406 4.957031 2.066406 1.773437 0 3.550781-.671874 4.910156-2.019531l102.429688-101.464843c29.613281-29.332032 42.777343-69.085938 39.453125-107.6875zm-351.601563 288.042968c-11.132812 17.625-24.964843 33.25-41.109375 46.441406l-10.871094 8.882813c-16.957031 13.851563-31.539062 30.21875-43.351562 48.652344l-3.800781 5.933593c-4.1875 6.53125-11.011719 10.746094-18.722657 11.5625-7.714843.820313-15.269531-1.878906-20.726562-7.386718-4.777344-4.824219-7.390625-11.214844-7.359375-18.003906.03125-6.789063 2.707031-13.15625 7.527344-17.933594l130.542969-129.308594 24.539062 24.769531zm73.964844-41.222656c-1.464844 1.449219-3.726563 1.730469-5.503906.671875-10.980469-6.539063-24.550781-6.414063-35.410157.320313l-6.472656 4.015624-24.535156-24.769531 31.152344-30.855469 35.617187 35.957032c.003907 0 .003907.003906.007813.003906l9.875 9.972656zm0 0"/></svg>