<svg height="480pt" viewBox="-20 0 480 480.00021" width="480pt" xmlns="http://www.w3.org/2000/svg"><path d="m168 200v-96h-32v80c0 8.835938-7.164062 16-16 16s-16-7.164062-16-16v-96c0-8.835938 7.164062-16 16-16h64c8.835938 0 16 7.164062 16 16v112c0 8.835938-7.164062 16-16 16s-16-7.164062-16-16zm0 0" fill="#426d78"/><path d="m376 24c0 8.835938-7.164062 16-16 16h-96v127.144531c.179688 8.039063-5.429688 15.046875-13.3125 16.640625-4.648438.792969-9.410156-.507812-13.011719-3.550781-3.601562-3.042969-5.679687-7.519531-5.675781-12.234375v-128c0-17.671875 14.328125-32 32-32h96c8.835938 0 16 7.164062 16 16zm0 0" fill="#426d78"/><path d="m88 24c0 8.835938 7.164062 16 16 16h96v127.144531c-.179688 8.039063 5.429688 15.046875 13.3125 16.640625 4.648438.792969 9.410156-.507812 13.011719-3.550781 3.601562-3.042969 5.679687-7.519531 5.675781-12.234375v-128c0-17.671875-14.328125-32-32-32h-96c-8.835938 0-16 7.164062-16 16zm0 0" fill="#6a9eaa"/><path d="m296 200v-96h32v80c0 8.835938 7.164062 16 16 16s16-7.164062 16-16v-96c0-8.835938-7.164062-16-16-16h-64c-8.835938 0-16 7.164062-16 16v112c0 8.835938 7.164062 16 16 16s16-7.164062 16-16zm0 0" fill="#6a9eaa"/><path d="m296 216c0 39.769531-28.65625 40-64 40s-64-.230469-64-40 28.65625-72 64-72 64 32.230469 64 72zm0 0" fill="#cfdfe8"/><path d="m168 328s-32-40-64 8 96 104 96 104zm0 0" fill="#426d78"/><path d="m296 328s32-40 64 8-96 104-96 104zm0 0" fill="#426d78"/><path d="m296 424c-8.945312 17.886719-64 48-64 48s-55.054688-30.113281-64-48c-23.257812-46.511719 0-208 0-208 19.480469-11.054688 41.609375-16.589844 64-16 22.390625-.589844 44.519531 4.945312 64 16 0 0 23.257812 161.488281 0 208zm0 0" fill="#aabece"/><path d="m184.023438 319.476562 7.984374-120 15.972657 1.0625-7.984375 120zm0 0" fill="#fff"/><path d="m184 336h16v16h-16zm0 0" fill="#fff"/><path d="m256.007812 200.472656 15.972657-.9375 8 135.996094-15.972657.9375zm0 0" fill="#fff"/><g fill="#7fcac9"><path d="m80 240c0 8.835938-7.164062 16-16 16s-16-7.164062-16-16 7.164062-16 16-16 16 7.164062 16 16zm0 0"/><path d="m432 184c0 8.835938-7.164062 16-16 16s-16-7.164062-16-16 7.164062-16 16-16 16 7.164062 16 16zm0 0"/><path d="m392 264c0 8.835938-7.164062 16-16 16s-16-7.164062-16-16 7.164062-16 16-16 16 7.164062 16 16zm0 0"/><path d="m40 344c0 8.835938-7.164062 16-16 16s-16-7.164062-16-16 7.164062-16 16-16 16 7.164062 16 16zm0 0"/></g><path d="m228.167969 479.015625c2.386719 1.3125 5.277343 1.3125 7.664062 0 9.273438-5.0625 54.710938-30.617187 66.222657-49.601563 41.257812-23.71875 64.867187-46.695312 70-68.300781 2.546874-10.160156.578124-20.925781-5.398438-29.527343-7.339844-13.140626-19.699219-22.730469-34.25-26.578126-6.511719-1.136718-13.210938-.53125-19.414062 1.753907-2.59375-46.042969-8.382813-87.121094-8.992188-91.632813-.042969-3.210937-.265625-6.414062-.65625-9.601562.429688-1.8125.652344-3.664063.65625-5.527344v-88h16v72c0 13.253906 10.746094 24 24 24 13.222656-.074219 23.925781-10.777344 24-24v-96c0-13.253906-10.746094-24-24-24h-64c-2.730469.027344-5.4375.523438-8 1.472656v-17.472656h88c13.253906 0 24-10.746094 24-24s-10.746094-24-24-24h-96c-12.640625.0351562-24.511719 6.0625-32 16.246094-7.488281-10.183594-19.359375-16.2109378-32-16.246094h-96c-13.253906 0-24 10.746094-24 24s10.746094 24 24 24h88v17.472656c-2.5625-.949218-5.269531-1.445312-8-1.472656h-64c-13.253906 0-24 10.746094-24 24v96c.066406 13.226562 10.773438 23.933594 24 24 13.253906 0 24-10.746094 24-24v-72h16v88c.019531 1.851562.253906 3.695312.695312 5.496094-.390624 3.1875-.609374 6.390625-.65625 9.601562-.648437 4.511719-6.398437 45.597656-9.039062 91.613282-6.199219-2.285157-12.898438-2.894532-19.40625-1.757813-14.550781 3.84375-26.910156 13.4375-34.25 26.574219-5.976562 8.601562-7.945312 19.367187-5.398438 29.527344 5.136719 21.601562 28.742188 44.585937 70 68.304687 11.511719 19.039063 56.949219 44.59375 66.222657 49.65625zm3.832031-16.167969c-20.65625-11.664062-51.496094-31.71875-56.800781-42.398437-17.664063-35.3125-6.277344-152.394531.226562-199.472657 5.015625-2.613281 10.246094-4.800781 15.628907-6.535156l-7.054688 105.03125 16 1.054688 7.351562-110.230469c16.277344-3.074219 32.980469-3.074219 49.257813 0l7.390625 126.175781 16-.945312-7.136719-121.128906c5.425781 1.75 10.695313 3.941406 15.761719 6.554687 6.496094 47.09375 17.878906 164.125.214844 199.445313-5.34375 10.722656-36.183594 30.800781-56.839844 42.449218zm0-310.847656c26.792969 0 49.230469 21.601562 54.703125 50.398438-35.144531-13.886719-74.261719-13.886719-109.40625 0 5.472656-28.796876 27.910156-50.398438 54.703125-50.398438zm97.433594 168.703125c10.261718 3.164063 18.859375 10.257813 23.910156 19.738281 3.480469 4.914063 4.628906 11.105469 3.152344 16.941406-3.351563 14.074219-19.777344 30.945313-46.542969 48.402344 4.199219-27.144531 5.492187-54.664062 3.847656-82.082031 4.699219-2.796875 10.230469-3.855469 15.632813-3zm-49.433594-240.703125h64c4.417969 0 8 3.582031 8 8v96c.003906 2.15625-.882812 4.214844-2.449219 5.695312-1.457031 1.492188-3.464843 2.324219-5.550781 2.304688-4.417969 0-8-3.582031-8-8v-80c0-4.417969-3.582031-8-8-8h-32c-4.417969 0-8 3.582031-8 8v61.824219c-4.480469-6.207031-9.875-11.699219-16-16.296875v-61.527344c0-4.417969 3.582031-8 8-8zm-16-64h96c4.417969 0 8 3.582031 8 8s-3.582031 8-8 8h-96c-4.417969 0-8 3.582031-8 8v100.664062c-5.136719-2.050781-10.511719-3.441406-16-4.144531v-96.519531c0-13.253906 10.746094-24 24-24zm-160 16c-4.417969 0-8-3.582031-8-8s3.582031-8 8-8h96c13.253906 0 24 10.746094 24 24v96.519531c-5.488281.703125-10.863281 2.09375-16 4.144531v-100.664062c0-4.417969-3.582031-8-8-8zm64 64h-32c-4.417969 0-8 3.582031-8 8v80c0 4.417969-3.582031 8-8 8-2.15625.003906-4.222656-.878906-5.703125-2.449219-1.484375-1.464843-2.3125-3.464843-2.296875-5.550781v-96c0-4.417969 3.582031-8 8-8h64c4.417969 0 8 3.582031 8 8v61.527344c-6.125 4.597656-11.519531 10.089844-16 16.296875v-61.824219c0-4.417969-3.582031-8-8-8zm-60.496094 261.382812c-1.476562-5.835937-.328125-12.027343 3.152344-16.941406 5.050781-9.480468 13.648438-16.574218 23.910156-19.738281 5.402344-.859375 10.933594.203125 15.632813 3-1.640625 27.417969-.351563 54.9375 3.847656 82.082031-26.765625-17.457031-43.191406-34.328125-46.542969-48.402344zm0 0"/><path d="m184 336h16v16h-16zm0 0"/><path d="m88 240c0-13.253906-10.746094-24-24-24s-24 10.746094-24 24 10.746094 24 24 24 24-10.746094 24-24zm-32 0c0-4.417969 3.582031-8 8-8s8 3.582031 8 8-3.582031 8-8 8-8-3.582031-8-8zm0 0"/><path d="m440 184c0-13.253906-10.746094-24-24-24s-24 10.746094-24 24 10.746094 24 24 24 24-10.746094 24-24zm-32 0c0-4.417969 3.582031-8 8-8s8 3.582031 8 8-3.582031 8-8 8-8-3.582031-8-8zm0 0"/><path d="m400 264c0-13.253906-10.746094-24-24-24s-24 10.746094-24 24 10.746094 24 24 24 24-10.746094 24-24zm-32 0c0-4.417969 3.582031-8 8-8s8 3.582031 8 8-3.582031 8-8 8-8-3.582031-8-8zm0 0"/><path d="m0 344c0 13.253906 10.746094 24 24 24s24-10.746094 24-24-10.746094-24-24-24-24 10.746094-24 24zm32 0c0 4.417969-3.582031 8-8 8s-8-3.582031-8-8 3.582031-8 8-8 8 3.582031 8 8zm0 0"/></svg>