<svg height="511pt" viewBox="-34 0 511 511.99709" width="511pt" xmlns="http://www.w3.org/2000/svg"><path d="m155.152344 43.652344c.34375-7.007813-3.429688-13.875-10.886719-15.507813-4.464844-.976562-9.5.328125-13.367187 3.089844-2.40625 1.722656-5.816407.597656-6.707032-2.226563-3.996094-12.691406-18.792968-20.722656-30.945312-9.644531-1.550782 1.417969-2.847656 3.070313-3.878906 4.882813-1.667969 2.929687-5.949219 2.859375-7.589844-.082032-2.261719-4.042968-5.292969-7.679687-9.226563-11.167968-6.476562-5.738282-16.015625-7.472656-24.308593-4.746094-9.894532 3.253906-14.5625 10.882812-14.882813 20.925781-.238281 7.425781 2.417969 14.972657 7.472656 20.449219 3.523438 3.8125 8.019531 6.597656 11.726563 10.230469 2.226562 2.183593 4.199218 4.855469 5.25 7.753906.941406 2.585937 4.082031 3.636719 6.433594 2.203125 10.710937-6.535156 21.964843-10.175781 34.933593-10.753906 7.578125-.335938 15.195313.222656 22.648438 1.652344 1.441406.277343 12.671875 3.832031 18.09375 5.605468 1.757812.574219 3.683593-.011718 4.828125-1.464844 4.984375-6.34375 9.992187-12.738281 10.40625-21.199218zm0 0" fill="#d33737"/><path d="m155.148438 43.65625c-.175782 3.585938-1.167969 6.808594-2.664063 9.804688-.492187-7.277344-7.070313-16.046876-15.054687-12.8125-2.164063.875-4.125 2.195312-6.296876 3.050781-10.058593 3.945312-12.964843-10.6875-22.214843-12-1.117188-.160157-2.246094-.1875-3.375-.136719-3.601563.152344-6.507813.886719-9.34375 3.085938-2.640625 2.042968-5.332031 4.144531-8.484375 5.25-1.546875.542968-3.234375.835937-4.828125.449218-2.996094-.726562-4.992188-5.070312-6.5-7.496094-1.832031-2.953124-3.988281-5.753906-6.480469-7.964843-6.472656-5.742188-16.003906-7.476563-24.300781-4.75-5.867188 1.925781-9.894531 5.402343-12.269531 9.992187 0-.316406.011718-.632812.019531-.949218.324219-10.042969 4.996093-17.667969 14.890625-20.925782 8.292968-2.734375 17.828125-.992187 24.300781 4.742188 3.941406 3.492187 6.964844 7.125 9.226563 11.171875 1.644531 2.933593 5.925781 3.007812 7.597656.078125 1.03125-1.8125 2.324218-3.464844 3.871094-4.882813 12.152343-11.074219 26.957031-3.050781 30.949218 9.648438.886719 2.824219 4.300782 3.949219 6.710938 2.226562 3.859375-2.761719 8.902344-4.066406 13.359375-3.089843 7.460937 1.628906 11.230469 8.496093 10.886719 15.507812zm0 0" fill="#bc2222"/><path d="m60.484375 131.035156c2.722656 16.289063-18.957031 26.679688-19.644531 42.667969-.828125 19.144531 23.800781 21.84375 37.855468 16.949219 7.804688-2.71875 14.910157-7.910156 18.976563-15.101563 3.757813-6.640625 4.820313-14.652343 9.261719-20.851562-8.199219-3.765625-37.070313-23.664063-46.449219-23.664063zm0 0" fill="#d33737"/><path d="m106.933594 154.695312c-4.4375 6.199219-5.507813 14.21875-9.265625 20.859376-4.0625 7.179687-11.171875 12.371093-18.972657 15.089843-12.257812 4.277344-32.570312 2.765625-36.996093-10.410156 8.027343 3 18.464843 2.539063 25.921875-.050781 7.800781-2.71875 14.910156-7.910156 18.972656-15.105469 3.164062-5.589844 4.417969-12.164063 7.394531-17.800781 5.5625 3.34375 10.320313 6.207031 12.945313 7.417968zm0 0" fill="#bc2222"/><path d="m52.039062 83.972656-38.386718 20.46875c-8.808594 4.699219-7.976563 17.5625 1.347656 21.121094 13.730469 5.238281 32.109375 8.121094 47.800781-3.625zm0 0" fill="#d33737"/><path d="m59.703125 111.011719 3.09375 10.925781c-15.683594 11.746094-34.0625 8.863281-47.789063 3.625-5.789062-2.207031-8.308593-8.003906-7.273437-13.203125.285156.136719.589844.265625.898437.382813 14.660157 5.601562 33.976563 8.835937 51.070313-1.730469zm0 0" fill="#bc2222"/><path d="m60.050781 70.160156c-.769531.941406-1.515625 1.914063-2.226562 2.921875-12.03125 16.96875-9.835938 45.457031 7.394531 57.980469 10.996094 7.984375 27.34375 11.011719 31.957031 23.796875 1.839844 5.089844 1.253907 10.703125.394531 16.046875-8.578124 53.347656-42.257812 104.96875-29.546874 157.488281 8.011718 33.089844 35.582031 60.652344 68.675781 68.648438 8.644531 2.085937 17.722656 2.984375 25.679687 6.960937 7.753906 3.875 13.8125 10.363282 20.523438 15.851563 38.5625 31.546875 102.570312 24.621093 133.496094-14.445313 5.945312-7.507812 10.925781-16.109375 18.820312-21.539062 6.144531-4.222656 13.523438-6.144532 20.480469-8.820313 19.050781-7.332031 35.5625-20.992187 46.574219-38.160156 2.738281-4.277344-1.125-9.730469-6.035157-8.433594-8.886719 2.34375-18.0625 3.589844-27.257812 3.726563-6.125.089844-7.910157-8.269532-2.277344-10.679688 17.082031-7.324218 32.101563-20.089844 42.992187-35.316406 14.230469-19.898438 22.15625-43.558594 26.535157-67.734375.855469-4.710937-4.246094-8.175781-8.363281-5.730469-16.851563 10.007813-37.429688 13.753906-56.703126 10.160156-3.519531-.660156-5.539062-4.394531-4.113281-7.679687 9.496094-21.882813 11.980469-46.761719 7.0625-70.101563-.914062-4.34375-6.351562-5.890624-9.425781-2.691406-33.179688 34.460938-79.960938 61.800782-124.964844 47.921875-12.6875-3.914062-24.191406-11-33.960937-19.929687-21.433594-19.585938-32.636719-49.542969-44.304688-75.410156-11.074219-24.550782-37.914062-48.59375-66.714843-43.757813-13.589844 2.28125-25.804688 8.097656-34.691407 18.925781zm0 0" fill="#e7e7e7"/><path d="m436.234375 218.449219c-4.378906 24.179687-12.304687 47.835937-26.535156 67.738281-10.886719 15.226562-25.910157 27.988281-43 35.3125-5.628907 2.410156-3.84375 10.777344 2.277343 10.679688 9.199219-.132813 18.375-1.382813 27.265626-3.722657 4.910156-1.300781 8.769531 4.152344 6.035156 8.425781-11.011719 17.179688-27.53125 30.835938-46.582032 38.164063-6.957031 2.679687-14.335937 4.597656-20.472656 8.820313-7.898437 5.4375-12.875 14.027343-18.824218 21.539062-22.902344 28.9375-63.964844 40.246094-99.382813 31.335938 22.945313-.375 47.28125-3.523438 65.480469-16.886719 7.136718-5.238281 13.269531-11.722657 19.253906-18.214844 5.742188-6.230469 9.296875-14.089844 15.789062-19.914063 9.171876-8.226562 21.117188-12.117187 32.433594-16.375 5.71875-2.15625 11.433594-4.402343 16.765625-7.410156 3.742188-2.109375 12.296875-6.214844 12.855469-11.023437.621094-5.292969-19.605469-3.40625-23.660156-4.019531-5.714844-.867188-15.339844-2.980469-14.726563-10.597657.390625-4.789062 4.105469-9.28125 7.722657-12.1875 8.320312-6.695312 16.855468-13.121093 25.585937-19.269531 13.863281-9.765625 26.933594-21.296875 34.578125-36.835938 2.320312-4.726562 4.132812-9.675781 6.3125-14.464843 1.726562-3.789063 7.5-16.09375.285156-16.378907-7.582031-.300781-15.765625 3.902344-23.460937 4.417969-7.804688.523438-15.578125 2.070313-23.429688 1.46875-5.515625-.417969-13.972656-1.125-17.734375-5.636719-3.917968-4.695312 2.632813-17.28125 4.296875-21.878906 2.445313-6.746094 4.246094-13.71875 5.398438-20.800781 2.3125-14.148437 2.03125-28.742187-.921875-42.785156-.035156-.175781-.078125-.355469-.140625-.519531 1.695312-1.65625 3.359375-3.324219 4.984375-5.023438 3.078125-3.191406 8.515625-1.644531 9.429687 2.691406 4.917969 23.34375 2.4375 48.222656-7.0625 70.105469-1.425781 3.28125.589844 7.019531 4.117188 7.679687 19.269531 3.597657 39.847656-.148437 56.699219-10.160156 4.121093-2.445312 9.21875 1.011719 8.367187 5.726563zm0 0" fill="#cecece"/><path d="m108.464844 83.972656c0 3.890625-3.152344 7.046875-7.042969 7.046875s-7.046875-3.15625-7.046875-7.046875 3.15625-7.046875 7.046875-7.046875 7.042969 3.15625 7.042969 7.046875zm0 0" fill="#111"/><path d="m243.363281 340.46875c-2.117187-2.980469.695313-6.992188 4.210938-5.980469 22.304687 6.417969 46.550781 6.054688 68.640625-1.070312 3.230468-1.042969 3.683594-5.375.753906-7.082031-6.867188-3.988282-13.191406-8.90625-18.75-14.578126-2.152344-2.195312-1.039062-5.933593 1.976562-6.527343 22.792969-4.464844 42.613282-22.425781 49.199219-44.710938.785157-2.660156-1.378906-5.304687-4.132812-4.992187-14.769531 1.6875-29.878907.359375-44.117188-3.902344-21.980469-6.582031-41.296875-19.816406-62.308593-29.035156-21.007813-9.222656-46.003907-14.175782-66.464844-3.796875-13.910156 7.050781-24.097656 21.003906-26.578125 36.398437-7.359375 45.664063 51.355469 89.042969 94.164062 91.398438 3.257813.179687 5.296875-3.460938 3.40625-6.121094zm0 0" fill="#acacac"/><path d="m349.390625 260.515625c-6.578125 22.289063-26.402344 40.246094-49.191406 44.714844-3.015625.589843-4.132813 4.335937-1.980469 6.527343 5.558594 5.671876 11.882812 10.589844 18.746094 14.582032 2.9375 1.707031 2.480468 6.03125-.75 7.078125-22.09375 7.125-46.332032 7.484375-68.644532 1.066406-3.507812-1.003906-6.324218 3-4.203124 5.980469 1.890624 2.664062-.148438 6.304687-3.414063 6.128906-21.246094-1.167969-46.417969-12.445312-65.480469-29.09375 4.558594 3.21875 9.332032 6.140625 14.257813 8.734375 9.332031 4.917969 22.269531 11.820313 33.070312 10.527344 2.566407-.308594 5.628907-1.777344 5.734375-4.214844.007813-.15625 0-.316406-.019531-.472656-.140625-1.335938-1.160156-2.421875-1.449219-3.730469-.519531-2.347656 1.554688-4.636719 3.886719-5.25 2.332031-.609375 4.777344-.027344 7.125.527344 18.742187 4.386718 41.695313 8.769531 60.695313 4.195312 6.699218-1.617187 7.605468-4.546875.964843-8.242187-3.910156-2.1875-8.097656-4.210938-10.929687-7.6875-3.132813-3.84375-4.382813-13.289063 2.277344-14.597657 21.566406-4.230468 40.484374-20.554687 48.019531-41.179687 2.386719-.113281 4.777343-.308594 7.152343-.582031 2.761719-.3125 4.925782 2.332031 4.132813 4.988281zm0 0" fill="#9c9c9c"/><path d="m175.535156 225.035156c10.890625-5.523437 30.226563-9.316406 60.488282 3.964844 2.589843 1.136719 5.289062 2.394531 8.253906 3.851562 3.472656 1.707032 7.667968.269532 9.371094-3.203124 1.703124-3.472657.269531-7.667969-3.203126-9.371094-3.144531-1.542969-6.023437-2.886719-8.796874-4.101563-35.265626-15.480469-58.863282-10.519531-72.445313-3.632812-15.871094 8.050781-27.492187 23.964843-30.324219 41.535156-2.90625 18.042969 2.992188 36.808594 17.054688 54.273437 20.15625 25.03125 54.550781 43.628907 83.636718 45.234376.207032.011718.414063.015624.621094.015624 3.984375 0 7.601563-2.121093 9.542969-5.640624.921875-1.671876 1.371094-3.496094 1.363281-5.308594 22.074219 5.25 45.746094 4.371094 67.269532-2.570313 4.09375-1.320312 7.035156-4.933593 7.496093-9.199219.460938-4.273437-1.652343-8.4375-5.378906-10.597656-4.71875-2.746094-9.144531-5.953125-13.21875-9.570312 22.871094-6.644532 42.101563-25.394532 48.84375-48.210938 1.042969-3.523437.25-7.308594-2.117187-10.125-2.347657-2.796875-5.902344-4.21875-9.527344-3.808594-13.78125 1.578126-28.070313.3125-41.3125-3.652343-6.859375-2.054688-14.113282-4.996094-22.828125-9.261719-3.472657-1.699219-7.667969-.261719-9.367188 3.214844-1.699219 3.472656-.261719 7.667968 3.210938 9.367187 9.421875 4.609375 17.355469 7.816407 24.96875 10.097657 13.480469 4.035156 27.910156 5.605468 42.027343 4.605468-7.007812 17.761719-23.488281 31.730469-42.316406 35.417969-3.90625.769531-7.070312 3.613281-8.257812 7.425781-1.191406 3.839844-.183594 8.007813 2.628906 10.875 4.363281 4.453125 9.148438 8.464844 14.289062 11.980469-18.90625 4.792969-39.246093 4.515625-58-.882813-4.496093-1.289062-9.148437.339844-11.855468 4.160157-1.554688 2.191406-2.21875 4.75-1.992188 7.253906-24.089844-3.039063-52.328125-19.128906-68.820312-39.605469-8.023438-9.960937-16.988282-25.554687-14.132813-43.257812 2.132813-13.230469 10.878907-25.210938 22.828125-31.273438zm0 0"/><path d="m437.945312 207.175781c-4.109374-2.855469-9.339843-3.035156-13.652343-.476562-14.933594 8.871093-33.09375 12.332031-50.101563 9.597656 9.457032-22.746094 11.867188-48.464844 6.773438-72.644531-.957032-4.546875-4.335938-8.171875-8.816406-9.457032-4.484376-1.285156-9.277344 0-12.507813 3.355469-17.507813 18.191407-36.808594 32.207031-55.8125 40.535157-21.941406 9.613281-42.816406 11.484374-62.042969 5.550781-11.175781-3.445313-21.707031-9.636719-31.300781-18.402344-17.496094-15.988281-27.902344-39.667969-37.964844-62.570313-1.570312-3.566406-3.121093-7.097656-4.679687-10.550781-3.960938-8.785156-9.65625-17.21875-16.386719-24.464843 5-6.414063 10.210937-13.738282 10.695313-23.652344.542968-11.128906-6.191407-20.460938-16.386719-22.691406-5.21875-1.144532-11.027344-.21875-16.074219 2.464843-3.453125-7.800781-10.054688-13.734375-17.84375-15.832031-8.1875-2.207031-16.46875.011719-23.316406 6.253906-1.015625.929688-1.964844 1.941406-2.832032 3.027344-2.289062-3.324219-5.097656-6.445312-8.5-9.460938-8.195312-7.265624-20.417968-9.6875-31.136718-6.15625-12.269532 4.03125-19.261719 13.746094-19.699219 27.347657-.300781 9.414062 3.097656 18.679687 9.332031 25.429687 3.582032 3.878906 8.1875 6.773438 11.96875 10.480469 1.703125 1.671875 2.96875 3.496094 3.566406 5.140625.027344.074219.066407.136719.09375.207031-1.75 2.652344-3.222656 5.535157-4.417968 8.570313l-36.542969 19.484375c-6.523437 3.480469-10.2851562 10.21875-9.824219 17.589843.464844 7.386719 5.050782 13.613282 11.96875 16.253907 8.792969 3.355469 17.210938 5.027343 25.105469 5.027343 5.644531 0 11.015625-.882812 16.070313-2.59375-.304688 4.410157-3.464844 8.792969-8.296876 14.960938-5.214843 6.652344-11.121093 14.195312-11.542968 23.898438-.355469 8.316406 2.84375 15.230468 9.253906 19.996093 6.042969 4.492188 14.269531 6.371094 22.277344 6.371094 5.59375 0 11.078125-.917969 15.628906-2.503906 1.273438-.441407 2.5-.949219 3.707031-1.488281-2.78125 9.804687-6.015625 19.578124-9.199219 29.175781-11.289062 34.046875-22.964843 69.257812-14.289062 105.09375.246094 1.011719.503906 2.015625.785156 3.019531 1.035156 3.726562 4.894532 5.90625 8.621094 4.871094 3.726562-1.039063 5.90625-4.898438 4.871094-8.625-.234375-.851563-.457032-1.707032-.664063-2.5625-7.734375-31.9375 2.808594-63.730469 13.96875-97.390625 6.171875-18.609375 12.554688-37.855469 15.6875-57.335938 1.011719-6.300781 1.625-13.027343-.722656-19.539062-4.050781-11.222657-14.363281-16.363281-23.460937-20.902344-4.027344-2.007813-7.828126-3.902344-10.96875-6.183594-7.707032-5.597656-11.433594-15.367187-12.011719-24.613281-1.457031-23.234375 16.796875-38.984375 38.578125-42.640625 13.4375-2.253906 26.675781 3.160156 37.09375 11.394531 5.570312 4.402344 10.472656 9.664063 14.601562 15.433594 5.15625 7.199219 8.578125 15.320312 12.097656 23.328125 10.152344 23.105469 21.660157 49.292969 41.34375 67.273437 11.128907 10.171876 23.449219 17.390626 36.617188 21.449219 22.53125 6.949219 46.6875 4.894531 71.796875-6.109375 19.957031-8.746094 40.078125-23.121094 58.34375-41.660156 3.886719 21.164062 1.371094 43.484375-7.167969 63.160156-1.53125 3.523438-1.375 7.488282.429688 10.878906 1.808594 3.40625 5.023437 5.765626 8.820312 6.472657 19.800782 3.695312 41.078125.230469 58.886719-9.496094-4.882813 25.136719-12.996094 45.390625-24.765625 61.84375-10.496094 14.675781-24.722656 26.378906-40.058594 32.953125-5.597656 2.402344-8.621094 8.230469-7.355468 14.171875 1.25 5.882813 6.296874 9.949219 12.304687 9.949219h.195313c8.523437-.125 17.003906-1.152344 25.265624-3.050782-10.246093 14.632813-24.742187 26.058594-41.164062 32.378907-7.757812 2.984375-14.878906 4.738281-21.933594 9.585937-8.632812 5.933594-13.984375 14.929688-20.34375 22.964844-13.582031 17.160156-35.140625 28.488281-59.148437 31.085938-25.878907 2.800781-50.570313-5.253907-69.695313-22.257813-4.980468-4.398437-10.128906-8.941406-16.554687-12.152344-8.566407-4.28125-18.003907-5.292969-27.164063-7.507812-19.015625-4.59375-36.292968-16.132813-48.660156-32.496094-2.332031-3.085937-6.722656-3.695313-9.808594-1.363281-3.085937 2.332031-3.695312 6.722656-1.363281 9.808594 14.3125 18.9375 34.390625 32.316406 56.542969 37.667968 8.035156 1.941406 16.695312 2.671875 24.191406 6.417969 13.136719 6.566406 22.398438 18.964844 35.675781 25.675781 2.957031 1.492188 5.988281 2.820313 9.078125 4v34.191406l-27.09375 11.5c-3.558594 1.511719-5.222656 5.621094-3.710937 9.183594 1.132812 2.664063 3.726562 4.265625 6.449219 4.265625.914062 0 1.839843-.179687 2.734374-.558593l16.8125-7.136719-4.671874 10.832031c-1.535157 3.550781.101562 7.671875 3.652343 9.203125.90625.390625 1.847657.574219 2.773438.574219 2.710937 0 5.289062-1.582032 6.433593-4.230469l7.601563-17.617187 16.78125 14.277343c1.316406 1.121094 2.929687 1.667969 4.535156 1.667969 1.980469 0 3.949219-.835938 5.335938-2.464844 1.609375-1.894531 2.03125-4.394531 1.351562-6.605468l13.28125-5.636719-4.675781 10.832031c-1.53125 3.550781.105469 7.671875 3.652344 9.203125.90625.390625 1.847656.574219 2.773437.574219 2.710938 0 5.289063-1.582032 6.433594-4.230469l7.601563-17.617187 16.78125 14.277343c1.316406 1.117188 2.929687 1.667969 4.535156 1.667969 1.980468 0 3.953125-.839844 5.335937-2.46875 2.507813-2.945312 2.148438-7.363281-.796875-9.871094l-22.832031-19.417968v-32.894532c18.792969-6.050781 35.222656-17.042968 46.8125-31.6875 5.40625-6.828125 9.953125-15.0625 17.296875-20.109375 5.230469-3.597656 12.664062-5.660156 18.492188-8.183593 6.492187-2.808594 12.75-5.265626 18.789062-9.132813 12.675781-8.117187 23.578125-18.988281 31.699219-31.660156 2.832031-4.421875 2.671875-10.015625-.414063-14.253907-3.058594-4.199218-8.277344-6.054687-13.300781-4.730468-6.027344 1.589844-12.210937 2.648437-18.453125 3.15625 15.117188-7.863282 28.921875-19.941406 39.390625-34.578125 13.476563-18.839844 22.546875-41.921875 27.730469-70.5625.886718-4.890625-1.09375-9.691407-5.175782-12.523438zm-420.445312-88.15625c-2.523438-.964843-2.929688-3.148437-2.984375-4.042969-.054687-.890624.070313-3.09375 2.433594-4.355468l26.335937-14.042969c-.082031 2.625.007813 5.28125.300782 7.933594.679687 6.125 2.378906 11.886719 4.929687 17.011719-8.902344 2.800781-19.285156 1.972656-31.015625-2.503907zm49.351562 21.347657c2.382813 1.339843 4.8125 2.554687 7.203126 3.746093 6.449218 3.214844 13.820312 5.601563 16.535156 13.117188 4.605468 12.753906-2.101563 22.589843-14.199219 26.804687-7.335937 2.558594-18.960937 2.566406-24.941406-1.882812-2.621094-1.949219-3.769531-4.539063-3.613281-8.148438.222656-5.210937 4.28125-10.386718 8.574218-15.867187 4.113282-5.246094 8.59375-10.972657 10.441406-17.769531zm81.308594-97.054688c-.265625 5.382812-3.261718 9.898438-7.042968 14.808594-.75-.582032-1.503907-1.148438-2.261719-1.699219-14.4375-10.460937-30.09375-14.644531-45.273438-12.09375-12.992187 2.183594-23.882812 7.136719-32.511719 14.742187-4.226562-5.886718-10.347656-9.585937-14.84375-14.425781-3.554687-3.824219-6.089843-8.355469-5.867187-15.246093.246094-7.710938 3.445313-12.316407 10.074219-14.496094 1.886718-.621094 3.851562-.921875 5.796875-.921875 4.316406 0 8.546875 1.484375 11.671875 4.257812 3.386718 3 5.925781 6.054688 7.761718 9.34375 1.996094 3.578125 5.792969 5.8125 9.90625 5.828125h.046876c4.066406 0 7.828124-2.179687 9.832031-5.695312.695312-1.222656 1.542969-2.289063 2.511719-3.175782 3.28125-2.988281 6.726562-4.027343 10.234374-3.078124 4.167969 1.121093 7.824219 4.910156 9.316407 9.652343 1.085937 3.453125 3.792969 6.199219 7.234375 7.351563 3.449218 1.152344 7.269531.582031 10.226562-1.53125 2.375-1.699219 5.433594-2.460938 7.792969-1.945313 4.234375.921875 5.550781 5.0625 5.394531 8.324219zm112.914063 430.820312-27.09375 11.5c-.582031.246094-1.109375.570313-1.585938.945313l-14.386719-12.242187v-30.183594c7.664063 1.714844 15.523438 2.566406 23.371094 2.566406 3.9375 0 7.910156-.214844 11.890625-.644531 2.628907-.285157 5.230469-.660157 7.804688-1.128907zm0 0"/></svg>