<svg height="480pt" viewBox="0 0 480 480" width="480pt" xmlns="http://www.w3.org/2000/svg"><path d="m472 240c0 128.128906-103.871094 232-232 232s-232-103.871094-232-232 103.871094-232 232-232 232 103.871094 232 232zm0 0" fill="#f9ddac"/><path d="m432 240c0 106.039062-85.960938 192-192 192s-192-85.960938-192-192 85.960938-192 192-192 192 85.960938 192 192zm0 0" fill="#fefe90"/><path d="m304 348.550781c-30.136719-4.699219-59.652344-12.746093-88-24-39.601562-16.964843-92.6875-25.933593-104 8-11.3125 33.9375 66.742188 51.3125 112 40s80-24 80-24zm0 0" fill="#dd3e46"/><path d="m328 376v-16c17.671875 0 32 14.328125 32 32v16c-17.671875 0-32-14.328125-32-32zm0 0" fill="#67c086"/><path d="m216 296h-16c0-17.671875 14.328125-32 32-32h16c0 17.671875-14.328125 32-32 32zm0 0" fill="#67c086"/><path d="m256 72v16c-17.671875 0-32-14.328125-32-32v-16c17.671875 0 32 14.328125 32 32zm0 0" fill="#67c086"/><path d="m280 248h16c26.507812 0 48-21.492188 48-48h-16c-26.507812 0-48 21.492188-48 48zm0 0" fill="#e97424"/><path d="m152 104h56v16h-56zm0 0" fill="#f3bb59"/><path d="m168 136h56v16h-56zm0 0" fill="#f3bb59"/><path d="m224 160h64l16-48h-96zm0 0" fill="#e97424"/><path d="m344 112v48h-56l16-48zm0 0" fill="#f3bb59"/><path d="m352 112c26.507812 0 48 21.492188 48 48h-56v-48zm0 0" fill="#e97424"/><path d="m368 200h-24v-40h56v8c0 17.671875-14.328125 32-32 32zm0 0" fill="#f3bb59"/><path d="m248 112h16v24h-16zm0 0" fill="#426d78"/><path d="m95.414062 119.894531c-35.402343 33.300781-37.109374 88.992188-3.808593 124.398438 33.296875 35.402343 88.992187 37.109375 124.394531 3.8125l-21.921875-23.304688c-22.53125 21.1875-57.976563 20.101563-79.167969-2.433593-21.1875-22.53125-20.097656-57.976563 2.433594-79.167969zm0 0" fill="#f3bb59"/><path d="m117.34375 143.199219c-22.53125 21.191406-23.621094 56.636719-2.433594 79.167969 21.191406 22.535156 56.636719 23.621093 79.167969 2.433593zm0 0" fill="#f9f443"/><path d="m152 336c-.023438-9.964844-4.710938-19.34375-12.664062-25.34375-12.558594 1.449219-23.179688 9.957031-27.335938 21.894531-4.558594 13.679688 5.40625 24.65625 21.871094 32.160157 11.058594-5.289063 18.105468-16.453126 18.128906-28.710938zm0 0" fill="#67c086"/><path d="m99.695312 345.28125c-14.261718.523438-28.078124-5.03125-38.007812-15.28125l11.808594-10.800781c13.246094 14.480469 36.359375 9.089843 36.59375 9.03125l3.855468 15.53125c-4.679687 1.039062-9.457031 1.550781-14.25 1.519531zm0 0" fill="#67c086"/><path d="m344 271.996094c-8.835938-8.835938-26.746094-5.253906-40 8.003906-13.257812 13.253906-16.839844 31.164062-8.003906 40 8.835937 8.835938 26.742187 5.25 40-8.003906 13.253906-13.257813 16.839844-31.164063 8.003906-40zm0 0" fill="#67c086"/><g fill="#dd3e46"><path d="m395.15625 252.84375c-8.835938-8.835938-26.746094-5.253906-40 8.003906-13.257812 13.253906-16.839844 31.164063-8.003906 40 8.832031 8.835938 26.742187 5.25 39.996094-8.003906 13.257812-13.257812 16.839843-31.164062 8.007812-40zm0 0"/><path d="m224 192h16v16h-16zm0 0"/><path d="m248 392h16v16h-16zm0 0"/><path d="m80 280h16v16h-16zm0 0"/><path d="m360 328h16v16h-16zm0 0"/></g><path d="m114.921875 222.398438c-7.582031-8.042969-12.59375-18.164063-14.402344-29.070313l55.191407-9.328125-12.65625 54.542969c-10.769532-2.472657-20.5625-8.09375-28.132813-16.144531zm0 0" fill="#f7ea08"/><path d="m382.328125 240h-.070313c-12.484374.660156-24.230468 6.101562-32.800781 15.199219-2.136719 2.140625-4.097656 4.441406-5.871093 6.890625-6.074219-2.90625-12.941407-3.699219-19.515626-2.25-9.804687 2.222656-18.75 7.253906-25.742187 14.480468-16.632813 16.632813-20.144531 39.199219-8 51.3125 4.988281 4.796876 11.695313 7.390626 18.617187 7.199219 2.332032-.007812 4.660157-.242187 6.949219-.695312 9.808594-2.222657 18.753907-7.257813 25.746094-14.480469 2.128906-2.144531 4.09375-4.445312 5.871094-6.886719 3.875 1.960938 8.160156 2.976563 12.503906 2.957031 12.476563-.613281 24.222656-6.0625 32.746094-15.199218 9.125-8.574219 14.585937-20.347656 15.238281-32.855469.28125-6.890625-2.332031-13.585937-7.210938-18.460937-4.875-4.878907-11.570312-7.492188-18.460937-7.210938zm-69.527344 76.441406c-3.832031 1.101563-7.953125.324219-11.121093-2.097656-4.886719-4.886719-2.808594-17.871094 8-28.6875 4.785156-4.972656 10.890624-8.476562 17.601562-10.097656 1.292969-.261719 2.613281-.398438 3.933594-.40625 2.636718-.152344 5.226562.746094 7.199218 2.503906 4.890626 4.886719 2.808594 17.871094-8 28.6875-4.785156 4.976562-10.898437 8.480469-17.613281 10.097656zm68.664063-29.242187c-9.503906 9.496093-20.722656 12.234375-26.601563 9.425781 2.566407-7.183594 2.53125-15.035156-.101562-22.191406 1.65625-2.886719 3.679687-5.550782 6.015625-7.921875 5.589844-6.066407 13.25-9.816407 21.46875-10.511719h.042968c2.652344-.292969 5.296876.636719 7.1875 2.523438 1.886719 1.890624 2.816407 4.535156 2.523438 7.1875-.691406 8.230468-4.453125 15.902343-10.535156 21.488281zm0 0"/><path d="m240 0c-132.546875 0-240 107.453125-240 240s107.453125 240 240 240 240-107.453125 240-240c-.148438-132.484375-107.515625-239.851562-240-240zm0 464c-123.710938 0-224-100.289062-224-224s100.289062-224 224-224 224 100.289062 224 224c-.140625 123.652344-100.347656 223.859375-224 224zm0 0"/><path d="m248.105469 40.289062c-6.90625-5.339843-15.378907-8.253906-24.105469-8.289062h-8v9.527344c-104.992188 12.703125-181.9375 104.96875-175.578125 210.535156s93.820313 187.925781 199.578125 187.9375c36.015625-.003906 71.351562-9.804688 102.222656-28.351562 5.503906 2.820312 11.59375 4.3125 17.777344 4.351562h8v-22.398438c63.601562-52.898437 88.03125-139.515624 61.449219-217.851562-26.585938-78.339844-98.6875-132.195312-181.34375-135.460938zm-29.007813 79.710938h28.902344v16h16v-16h28.894531l-10.664062 32h-52.460938zm90.671875 0h26.230469v32h-36.894531zm42.230469 0c19 .019531 35.375 13.386719 39.199219 32h-39.199219zm0 48h40c0 13.253906-10.746094 24-24 24h-16zm-120-118.632812c9.582031 3.402343 15.988281 12.464843 16 22.632812v6.632812c-9.582031-3.402343-15.988281-12.464843-16-22.632812zm-124.273438 133.160156c.296876-9.957032 3.707032-19.570313 9.753907-27.488282l22.152343 23.554688-31.871093 5.40625c0-.519531-.050781-.992188-.035157-1.472656zm13.015626 34.351562c-4.617188-4.917968-8.144532-10.757812-10.34375-17.136718l34.808593-5.863282-8 34.402344c-6.230469-2.59375-11.84375-6.480469-16.464843-11.402344zm39.378906-16.503906 22.160156 23.5625c-8.265625 5.535156-18.058594 8.335938-28 8-.480469 0-.953125-.082031-1.425781-.113281zm-68.386719-18.335938c-1.097656 35.34375 26.671875 64.882813 62.019531 65.960938 14.214844.542969 28.195313-3.765625 39.636719-12.222656l11.035156 11.726562c-14.585937 11.34375-32.699219 17.179688-51.160156 16.488282-30.894531-.941407-58.480469-19.59375-70.863281-47.910157-12.386719-28.316406-7.347656-61.234375 12.933594-84.554687l11.0625 11.671875c-9.097657 10.941406-14.257813 24.617187-14.664063 38.839843zm260.265625 216.59375c-9.582031-3.402343-15.988281-12.464843-16-22.632812v-6.632812c9.582031 3.402343 15.988281 12.464843 16 22.632812zm12.351562-23.105468c-6.457031-14.289063-20.667968-23.488282-36.351562-23.527344h-8v24c.039062 9.078125 3.195312 17.867188 8.945312 24.894531-82.757812 46-186.925781 21.460938-240.449218-56.636719 3.695312.667969 7.445312 1.007813 11.199218 1.023438 1.402344 0 2.695313-.050781 3.945313-.121094 1.300781 5.136719 3.910156 9.851563 7.574219 13.679688 15.417968 16.65625 50.113281 25.160156 81.585937 25.160156 11.144531.113281 22.265625-1.113281 33.121094-3.65625 45.132813-11.28125 80.445313-24.121094 80.796875-24.238281 3.445312-1.257813 5.589844-4.695313 5.214844-8.339844-.378906-3.648437-3.1875-6.570313-6.8125-7.09375-29.445313-4.617187-58.285156-12.480469-86-23.441406-14.066406-6.03125-62.359375-24.597657-93.304688-10.703125-9.847656 4.21875-17.464844 12.390625-20.984375 22.511718-11 1.578126-22.140625-1.722656-30.503906-9.039062-12.089844-24.933594-18.359375-52.289062-18.328125-80 .054688-13.835938 1.699219-27.617188 4.894531-41.078125 7.15625 45.601563 45.765625 79.644531 91.90625 81.03125 1.007813 0 2.015625.046875 3.015625.046875 17.90625.027344 35.457032-4.996094 50.640625-14.496094-9.105469 7.515625-14.402343 18.6875-14.457031 30.496094v8h24c22.082031-.027344 39.972656-17.917969 40-40v-8h-24c-6.804688.046875-13.480469 1.847656-19.382812 5.230469 3.09375-2.253907 6.054687-4.695313 8.863281-7.300781l5.832031-5.480469-123.625-131.433594c29.234375-32.523437 69.136719-53.523437 112.496094-59.199219.945312 21.320313 18.476562 38.132813 39.816406 38.183594h8v-24c-.019531-5.035156-.996094-10.023438-2.878906-14.695312 39.546875 4.3125 76.605468 21.414062 105.542968 48.710937-4.777343-1.320313-9.707031-1.996094-14.664062-2.015625h-200v16h50.230469l5.335937 16h-39.566406v16h44.894531l3.511719 10.527344c1.089844 3.269531 4.148438 5.472656 7.59375 5.472656h112v24h-8c-30.914062.035156-55.964844 25.085938-56 56 0 4.417969 3.582031 8 8 8h16c27.804688-.054688 51.367188-20.484375 55.359375-48h16.640625c22.082031-.027344 39.972656-17.917969 40-40v-3.632812c10.59375 23.804687 16.046875 49.578124 16 75.632812.085938 51.558594-21.570312 100.765625-59.648438 135.527344zm-208.976562-58.023438c19.855469 1.390625 39.308594 6.261719 57.472656 14.398438 19.296875 7.949218 39.246094 14.207031 59.625 18.699218-13.601562 4.238282-31.082031 9.359376-50.402344 14.199219-23.847656 5.042969-48.574218 4.152344-72-2.59375 10.914063-12.339843 13.015626-30.160156 5.28125-44.703125zm-18.398438 1.910156c5.039063 4.953126 7.574219 11.910157 6.910157 18.941407-.664063 7.035156-4.464844 13.390625-10.34375 17.308593-3.917969-1.964843-7.496094-4.550781-10.582031-7.664062-3.679688-3.1875-5.019532-8.308594-3.367188-12.886719 1.988281-6.328125 6.675781-11.449219 12.796875-13.992187 1.492187-.671875 3.027344-1.242188 4.59375-1.707032zm72.390626-31.414062c3.402343-9.582031 12.464843-15.988281 22.632812-16h6.632812c-3.402343 9.582031-12.464843 15.988281-22.632812 16zm125.832031-80c-3.824219 18.613281-20.199219 31.980469-39.199219 32h-7.199219c3.824219-18.613281 20.199219-31.980469 39.199219-32zm0 0"/><path d="m224 192h16v16h-16zm0 0"/><path d="m248 392h16v16h-16zm0 0"/><path d="m80 280h16v16h-16zm0 0"/><path d="m360 328h16v16h-16zm0 0"/></svg>