<svg height="512pt" viewBox="-89 0 512 512" width="512pt" xmlns="http://www.w3.org/2000/svg"><path d="m301.933594 6.988281h-269.480469c-14.0625 0-25.464844 11.402344-25.464844 25.464844v303.253906c0 14.0625 11.402344 25.464844 25.464844 25.464844h81.246094c10.824219 0 19.34375 9.238281 18.464843 20.027344l-6.359374 78.0625c-2.457032 24.492187 16.773437 45.75 41.390624 45.75 24.613282 0 43.84375-21.257813 41.390626-45.75l-6.363282-78.0625c-.878906-10.789063 7.640625-20.027344 18.464844-20.027344h81.246094c14.0625 0 25.464844-11.402344 25.464844-25.464844v-303.253906c0-14.0625-11.398438-25.464844-25.464844-25.464844zm0 0" fill="#bc7d53"/><path d="m327.402344 32.449219v303.261719c0 14.058593-11.402344 25.460937-25.472656 25.460937h-81.234376c-10.835937 0-19.351562 9.234375-18.472656 20.027344l6.359375 78.0625c.140625 1.417969.210938 2.828125.210938 4.214843 0 22.667969-18.414063 41.539063-41.597657 41.539063-4.601562 0-9.015624-.742187-13.128906-2.109375 16.714844-5.480469 28.617188-21.246094 28.617188-39.46875 0-1.386719-.070313-2.796875-.210938-4.214844l-6.359375-96.152344c-.878906-10.785156 7.636719-20.03125 18.460938-20.03125h81.246093c14.070313 0 25.472657-11.402343 25.472657-25.460937v-303.25c0-2.546875-.378907-5.011719-1.078125-7.339844h1.714844c14.070312 0 25.472656 11.402344 25.472656 25.460938zm0 0" fill="#af663e"/><path d="m285 331.050781h-235.609375c-5.449219 0-9.867187-4.417969-9.867187-9.867187v-274.207032c0-5.449218 4.417968-9.867187 9.867187-9.867187h235.609375c5.449219 0 9.863281 4.417969 9.863281 9.867187v274.207032c.003907 5.449218-4.414062 9.867187-9.863281 9.867187zm0 0" fill="#c39b7c"/><path d="m294.859375 46.976562v274.207032c0 5.449218-4.410156 9.863281-9.863281 9.863281h-26.109375c5.453125 0 9.863281-4.414063 9.863281-9.863281v-274.207032c0-5.449218-4.410156-9.863281-9.863281-9.863281h26.109375c5.453125 0 9.863281 4.414063 9.863281 9.863281zm0 0" fill="#bc7d53"/><path d="m185.574219 459.261719c0 10.152343-8.226563 18.378906-18.378907 18.378906-10.152343 0-18.378906-8.226563-18.378906-18.378906 0-10.152344 8.226563-18.378907 18.378906-18.378907 10.152344 0 18.378907 8.226563 18.378907 18.378907zm0 0" fill="#e7e7e7"/><path d="m185.578125 459.261719c0 10.15625-8.230469 18.382812-18.382813 18.382812-5.273437 0-10.023437-2.214843-13.371093-5.769531.859375.128906 1.746093.1875 2.648437.1875 10.144532 0 18.371094-8.226562 18.371094-18.371094 0-4.890625-1.90625-9.335937-5.023438-12.621094 8.917969 1.269532 15.757813 8.925782 15.757813 18.191407zm0 0" fill="#cecece"/><path d="m301.855469 321.183594v-274.207032c0-9.292968-7.5625-16.855468-16.855469-16.855468h-235.609375c-9.292969 0-16.855469 7.5625-16.855469 16.855468v30.960938c0 3.863281 3.128906 6.992188 6.988282 6.992188 3.859374 0 6.988281-3.128907 6.988281-6.992188v-30.960938c0-1.585937 1.292969-2.875 2.878906-2.875h235.609375c1.585938 0 2.875 1.289063 2.875 2.875v274.207032c0 1.585937-1.289062 2.875-2.875 2.875h-235.609375c-1.585937 0-2.878906-1.289063-2.878906-2.875v-210.710938c0-3.859375-3.128907-6.992187-6.988281-6.992187-3.859376 0-6.988282 3.128906-6.988282 6.992187v210.710938c0 9.292968 7.5625 16.855468 16.855469 16.855468h235.609375c9.292969 0 16.855469-7.5625 16.855469-16.855468zm0 0"/><path d="m301.933594 0h-269.480469c-17.894531 0-32.453125 14.558594-32.453125 32.453125v303.253906c0 17.894531 14.558594 32.453125 32.453125 32.453125h81.246094c3.261719 0 6.273437 1.320313 8.480469 3.71875 2.210937 2.394532 3.28125 5.503906 3.015624 8.753906l-6.351562 78c-1.347656 13.613282 3.144531 27.234376 12.320312 37.378907 9.195313 10.160156 22.328126 15.988281 36.03125 15.988281 13.703126 0 26.835938-5.828125 36.03125-15.988281 9.175782-10.148438 13.664063-23.765625 12.320313-37.378907l-6.355469-78c-.265625-3.25.804688-6.359374 3.015625-8.753906 2.210938-2.398437 5.222657-3.71875 8.480469-3.71875h21.726562c3.859376 0 6.988282-3.128906 6.988282-6.988281s-3.128906-6.988281-6.988282-6.988281h-21.726562c-7.105469 0-13.941406 2.996094-18.757812 8.21875-4.816407 5.226562-7.25 12.285156-6.671876 19.367187l6.359376 78.058594c.003906.042969.007812.089844.011718.132813.972656 9.710937-2.222656 19.433593-8.773437 26.671874-6.546875 7.238282-15.902344 11.390626-25.664063 11.390626-9.757812 0-19.113281-4.152344-25.664062-11.390626-6.546875-7.238281-9.746094-16.960937-8.769532-26.671874.003907-.042969.007813-.089844.011719-.132813l6.359375-78.058594c.574219-7.082031-1.855468-14.140625-6.671875-19.367187-4.816406-5.222656-11.652343-8.21875-18.761719-8.21875h-81.242187c-10.1875 0-18.472656-8.289063-18.472656-18.476563v-303.253906c0-10.1875 8.285156-18.472656 18.472656-18.472656h269.480469c10.1875 0 18.476562 8.285156 18.476562 18.472656v303.253906c0 10.1875-8.289062 18.476563-18.476562 18.476563h-25.820313c-3.859375 0-6.988281 3.128906-6.988281 6.988281s3.128906 6.988281 6.988281 6.988281h25.820313c17.898437 0 32.457031-14.558594 32.457031-32.453125v-303.253906c0-17.894531-14.558594-32.453125-32.457031-32.453125zm0 0"/><path d="m141.824219 459.261719c0 13.988281 11.382812 25.371093 25.371093 25.371093 13.988282 0 25.367188-11.378906 25.367188-25.371093 0-13.988281-11.378906-25.367188-25.367188-25.367188-13.988281 0-25.371093 11.378907-25.371093 25.367188zm36.761719 0c0 6.28125-5.109376 11.390625-11.390626 11.390625s-11.390624-5.109375-11.390624-11.390625 5.109374-11.390625 11.390624-11.390625 11.390626 5.109375 11.390626 11.390625zm0 0"/></svg>