<svg height="512pt" viewBox="-11 0 512 512.0015" width="512pt" xmlns="http://www.w3.org/2000/svg"><path d="m436.160156 504.988281h-381.425781c-20.386719 0-36.910156-16.527343-36.910156-36.914062v-31.980469c0-3.609375 2.921875-6.535156 6.53125-6.535156h442.183593c3.609376 0 6.53125 2.925781 6.53125 6.535156v31.980469c0 20.386719-16.527343 36.914062-36.910156 36.914062zm0 0" fill="#ff9d5c"/><path d="m473.070312 436.09375v31.980469c0 20.390625-16.523437 36.914062-36.910156 36.914062h-21.402344c20.390626 0 36.910157-16.523437 36.910157-36.914062v-31.980469c0-3.609375-2.925781-6.535156-6.53125-6.535156h21.402343c3.605469 0 6.53125 2.925781 6.53125 6.535156zm0 0" fill="#ff8835"/><path d="m392.277344 42.132812c-45.003906-24.242187-99.582032-34.488281-146.832032-35.117187-102.363281 1.363281-238.433593 47.429687-238.429687 183.019531 0 11.132813 8.257813 20.160156 18.445313 20.160156h439.972656c10.1875 0 18.445312-9.027343 18.445312-20.160156 0-72.742187-39.347656-119.753906-91.601562-147.902344zm0 0" fill="#ff9d5c"/><path d="m483.875 190.039062c0 11.132813-8.257812 20.152344-18.4375 20.152344h-13.480469c2.828125-3.542968 4.554688-8.179687 4.554688-13.253906 0-72.738281-39.347657-119.761719-91.605469-147.90625-44.996094-24.246094-99.574219-34.484375-146.824219-35.117188-22.027343.300782-45.617187 2.660157-69.082031 7.546876 32.136719-9.617188 65.792969-14.03125 96.445312-14.445313 47.253907.632813 101.832032 10.867187 146.839844 35.113281 52.242188 28.148438 91.589844 75.167969 91.589844 147.910156zm0 0" fill="#ff8835"/><path d="m462.265625 264.664062h-433.636719v-38.980468c0-8.558594 6.9375-15.492188 15.496094-15.492188h402.644531c8.558594 0 15.496094 6.933594 15.496094 15.492188zm0 0" fill="#80cf00"/><path d="m28.628906 264.664062h433.636719v42.5625h-433.636719zm0 0" fill="#f6ac39"/><path d="m446.769531 429.558594h-402.644531c-8.558594 0-15.496094-6.933594-15.496094-15.492188v-38.980468h433.636719v38.980468c0 8.558594-6.9375 15.492188-15.496094 15.492188zm0 0" fill="#d33737"/><path d="m28.628906 307.226562h433.636719v66.882813h-433.636719zm0 0" fill="#bc7d53"/><path d="m462.265625 264.664062h-27.542969v-54.472656h12.046875c8.558594 0 15.496094 6.933594 15.496094 15.492188zm0 0" fill="#6db000"/><path d="m434.722656 264.664062h27.539063v42.5625h-27.539063zm0 0" fill="#f39d0a"/><path d="m446.769531 429.558594h-12.046875v-54.472656h27.542969v38.980468c0 8.558594-6.9375 15.492188-15.496094 15.492188zm0 0" fill="#bc2222"/><path d="m434.722656 307.226562h27.539063v66.882813h-27.539063zm0 0" fill="#af663e"/><path d="m127.785156 374.109375 64.410156 32.179687c.902344.449219 1.972657.417969 2.847657-.089843l55.414062-32.089844zm0 0" fill="#f6ac39"/><path d="m250.457031 374.113281-55.410156 32.085938c-.878906.507812-1.953125.539062-2.855469.089843l-11.460937-5.722656 45.679687-26.453125zm0 0" fill="#f39d0a"/><path d="m490.894531 190.035156c0-38.957031-10.945312-73.203125-32.53125-101.785156-2.332031-3.089844-6.734375-3.703125-9.824219-1.371094-3.089843 2.335938-3.703124 6.734375-1.371093 9.824219 19.707031 26.09375 29.699219 57.496094 29.699219 93.332031-.003907 7.25-5.128907 13.144532-11.433594 13.144532h-18.507813c-.054687 0-.101562-.003907-.15625-.003907h-402.648437c-.050782 0-.101563.003907-.152344.003907h-18.507812c-6.304688 0-11.433594-5.894532-11.433594-13.140626 0-30.761718 7.34375-58.332031 21.824218-81.945312 12.949219-21.109375 31.671876-39.25 55.652344-53.921875 40.433594-24.730469 96.539063-39.363281 153.941406-40.140625 30.648438.414062 89.957032 5.429688 143.507813 34.277344 13.429687 7.234375 25.558594 15.546875 36.046875 24.707031 2.917969 2.550781 7.347656 2.25 9.894531-.664063 2.550781-2.917968 2.25-7.347656-.664062-9.898437-11.28125-9.851563-24.273438-18.765625-38.625-26.496094-56.242188-30.292969-118.160157-35.53125-150.066407-35.957031-.058593 0-.125 0-.1875 0-59.882812.800781-118.625 16.183594-161.167968 42.207031-25.890625 15.835938-46.171875 35.535157-60.289063 58.554688-15.855469 25.851562-23.894531 55.890625-23.894531 89.277343 0 14.210938 10.28125 25.902344 23.320312 27.066407-1.097656 2.644531-1.703124 5.542969-1.703124 8.578125v148.425781c0 .164063.011718.328125.023437.488281-.011719.164063-.023437.324219-.023437.488282v38.984374c0 3.015626.601562 5.898438 1.683593 8.53125-6.976562.539063-12.492187 6.378907-12.492187 13.492188v31.980469c0 24.222656 19.703125 43.925781 43.925781 43.925781h72.480469c3.875 0 7.015625-3.136719 7.015625-7.011719s-3.140625-7.015625-7.015625-7.015625h-72.480469c-16.484375 0-29.898437-13.410156-29.898437-29.898437v-31.5h421.933593.003907 19.285156v31.5c0 16.488281-13.414063 29.898437-29.898438 29.898437h-274.628906c-3.871094 0-7.011719 3.140625-7.011719 7.015625s3.140625 7.011719 7.011719 7.011719h274.628906c24.21875 0 43.925782-19.703125 43.925782-43.925781v-31.980469c0-7.113281-5.515626-12.949219-12.492188-13.492188 1.082031-2.632812 1.683594-5.515624 1.683594-8.53125v-38.984374c0-.164063-.011719-.324219-.023438-.488282.011719-.160156.023438-.324218.023438-.488281v-148.425781c0-3.035156-.609375-5.933594-1.703125-8.578125 13.039062-1.167969 23.316406-12.855469 23.320312-27.070313zm-35.644531 224.035156c0 4.671876-3.804688 8.476563-8.476562 8.476563h-402.652344c-4.671875 0-8.476563-3.804687-8.476563-8.476563v-31.96875h92.445313l60.96875 30.457032c1.417968.710937 2.949218 1.0625 4.480468 1.0625 1.734376 0 3.464844-.453125 5.019532-1.351563l52.09375-30.167969h204.597656zm-295.773438-31.96875h63.1875l-29.265624 16.945313zm295.773438-15.007812h-419.605469v-52.851562h419.605469zm0-66.878906h-419.605469v-28.535156h419.605469zm0-42.5625h-419.605469v-31.96875c0-4.648438 3.761719-8.433594 8.402344-8.476563h402.800781c4.636719.042969 8.402344 3.828125 8.402344 8.476563zm0 0"/><path d="m176.539062 49.925781-21.992187 20.039063c-2.863281 2.609375-3.070313 7.042968-.460937 9.90625 1.386718 1.519531 3.28125 2.289062 5.1875 2.289062 1.683593 0 3.378906-.605468 4.722656-1.828125l21.988281-20.039062c2.863281-2.609375 3.070313-7.046875.460937-9.910157-2.609374-2.859374-7.042968-3.066406-9.90625-.457031zm0 0"/><path d="m226.65625 49.925781-21.988281 20.039063c-2.863281 2.609375-3.070313 7.042968-.460938 9.90625 1.382813 1.519531 3.28125 2.289062 5.1875 2.289062 1.683594 0 3.375-.605468 4.71875-1.828125l21.992188-20.039062c2.863281-2.609375 3.070312-7.046875.460937-9.910157-2.609375-2.859374-7.042968-3.066406-9.910156-.457031zm0 0"/><path d="m276.777344 49.925781-21.988282 20.039063c-2.863281 2.609375-3.070312 7.042968-.460937 9.90625 1.382813 1.519531 3.28125 2.289062 5.1875 2.289062 1.683594 0 3.375-.605468 4.71875-1.828125l21.992187-20.039062c2.863282-2.609375 3.070313-7.046875.460938-9.910157-2.609375-2.859374-7.042969-3.066406-9.910156-.457031zm0 0"/><path d="m326.898438 49.925781-21.992188 20.039063c-2.863281 2.609375-3.070312 7.042968-.457031 9.90625 1.382812 1.519531 3.28125 2.289062 5.183593 2.289062 1.6875 0 3.378907-.605468 4.722657-1.828125l21.992187-20.039062c2.863282-2.609375 3.070313-7.046875.460938-9.910157-2.609375-2.859374-7.046875-3.066406-9.910156-.457031zm0 0"/></svg>