<svg height="511pt" viewBox="-30 1 511 511.999" width="511pt" xmlns="http://www.w3.org/2000/svg"><path d="m330.753906 504.996094h-311.421875c-3.035156 0-5.496093-2.460938-5.496093-5.496094v-33.667969c0-3.035156 2.460937-5.492187 5.496093-5.492187h311.421875c3.03125 0 5.492188 2.457031 5.492188 5.492187v33.667969c0 3.035156-2.460938 5.496094-5.492188 5.496094zm0 0" fill="#bfbfbf"/><path d="m336.242188 465.828125v33.671875c0 3.03125-2.457032 5.5-5.488282 5.5h-17.546875c3.027344 0 5.488281-2.46875 5.488281-5.5v-33.671875c0-3.03125-2.460937-5.488281-5.488281-5.488281h17.546875c3.03125 0 5.488282 2.457031 5.488282 5.488281zm0 0" fill="#9c9c9c"/><path d="m440.667969 118.796875h-38.222657c-2.574218 0-4.660156-2.085937-4.660156-4.664063v-18.945312c0-2.574219 2.085938-4.660156 4.660156-4.660156h38.222657c2.574219 0 4.664062 2.085937 4.664062 4.660156v18.945312c0 2.578126-2.089843 4.664063-4.664062 4.664063zm0 0" fill="#f6ac39"/><path d="m445.328125 95.183594v18.953125c0 2.570312-2.085937 4.65625-4.664063 4.65625h-12.703124c2.566406 0 4.664062-2.085938 4.664062-4.65625v-18.953125c0-2.566406-2.097656-4.65625-4.664062-4.65625h12.703124c2.578126 0 4.664063 2.089844 4.664063 4.65625zm0 0" fill="#f39d0a"/><path d="m336.582031 282.925781h-28.636719v-53.515625h28.636719c2.769531 0 5.015625 2.246094 5.015625 5.019532v43.476562c0 2.773438-2.246094 5.019531-5.015625 5.019531zm0 0" fill="#d5f3f7"/><path d="m341.601562 234.429688v43.476562c0 2.769531-2.246093 5.015625-5.015624 5.015625h-14.027344c2.777344 0 5.015625-2.25 5.015625-5.015625v-43.476562c0-2.769532-2.238281-5.015626-5.015625-5.015626h14.027344c2.769531 0 5.015624 2.246094 5.015624 5.015626zm0 0" fill="#afeaf2"/><path d="m38.875 330.433594h-23.34375c-4.433594 0-8.027344-3.59375-8.027344-8.027344v-132.472656c0-4.433594 3.59375-8.027344 8.027344-8.027344h23.34375c4.433594 0 8.027344 3.59375 8.027344 8.027344v132.472656c0 4.433594-3.59375 8.027344-8.027344 8.027344zm0 0" fill="#d5f3f7"/><path d="m46.90625 189.929688v132.472656c0 4.4375-3.601562 8.027344-8.027344 8.027344h-19.703125c4.433594 0 8.027344-3.589844 8.027344-8.027344v-132.472656c0-4.433594-3.59375-8.027344-8.027344-8.027344h19.703125c4.425782 0 8.027344 3.59375 8.027344 8.027344zm0 0" fill="#afeaf2"/><path d="m299.601562 319.125h-252.699218v-125.914062h252.699218c4.609376 0 8.34375 3.738281 8.34375 8.347656v109.222656c0 4.609375-3.734374 8.34375-8.34375 8.34375zm0 0" fill="#87e0ec"/><path d="m307.949219 201.558594v109.226562c0 4.605469-3.742188 8.335938-8.347657 8.335938h-19.695312c4.605469 0 8.335938-3.730469 8.335938-8.335938v-109.226562c0-4.613282-3.730469-8.347656-8.335938-8.347656h19.695312c4.605469 0 8.347657 3.734374 8.347657 8.347656zm0 0" fill="#2dd2e3"/><path d="m65.199219 11.117188v35.351562l35.800781 228.214844 74.042969-.003906 74.039062.003906 35.800781-228.214844v-35.351562c0-2.273438-1.839843-4.113282-4.113281-4.113282h-211.453125c-2.273437 0-4.117187 1.839844-4.117187 4.113282zm0 0" fill="#e7e7e7"/><path d="m284.882812 11.121094v35.347656l-35.800781 228.210938h-18.550781l35.796875-228.210938v-39.460938h14.4375c2.273437 0 4.117187 1.839844 4.117187 4.113282zm0 0" fill="#cecece"/><path d="m175.472656 221.050781h-.863281c-38.984375 0-73.3125 28.894531-84.339844 70.984375l-44.085937 168.304688h257.71875l-44.089844-168.304688c-11.023438-42.089844-45.355469-70.984375-84.339844-70.984375zm0 0" fill="#f6ac39"/><path d="m303.90625 460.335938h-22.207031l-44.085938-168.304688c-10.003906-38.199219-39.210937-65.527344-73.664062-70.246094 3.5-.480468 7.0625-.730468 10.664062-.730468h.863281c38.980469 0 73.316407 28.886718 84.339844 70.976562zm0 0" fill="#f39d0a"/><path d="m220.539062 302.273438c0 25.128906-20.367187 45.5-45.496093 45.5-25.128907 0-45.5-20.371094-45.5-45.5 0-25.128907 20.371093-45.5 45.5-45.5 25.128906 0 45.496093 20.371093 45.496093 45.5zm0 0" fill="#e7e7e7"/><path d="m220.535156 302.273438c0 25.125-20.367187 45.503906-45.488281 45.503906-9.421875 0-18.171875-2.859375-25.4375-7.769532 2.558594.453126 5.199219.683594 7.886719.683594 25.125 0 45.492187-20.367187 45.492187-45.492187 0-15.710938-7.96875-29.566407-20.078125-37.746094 21.371094 3.722656 37.625 22.375 37.625 44.820313zm0 0" fill="#cecece"/><path d="m284.882812 46.300781h-219.683593v-35.347656c0-2.273437 1.84375-4.117187 4.117187-4.117187h211.453125c2.273438 0 4.113281 1.84375 4.113281 4.117187zm0 0" fill="#f6ac39"/><path d="m284.882812 46.300781h-18.554687v-39.464843h14.441406c2.273438 0 4.113281 1.84375 4.113281 4.117187zm0 0" fill="#f39d0a"/><path d="m175.042969 249.769531c-28.953125 0-52.503907 23.554688-52.503907 52.503907 0 28.949218 23.554688 52.503906 52.503907 52.503906 12.171875 0 24.035156-4.261719 33.40625-11.996094 2.980469-2.464844 3.402343-6.878906.941406-9.859375-2.464844-2.980469-6.878906-3.40625-9.859375-.941406-6.867188 5.667969-15.566406 8.789062-24.488281 8.789062-21.226563 0-38.496094-17.269531-38.496094-38.496093 0-21.226563 17.269531-38.496094 38.496094-38.496094 21.226562 0 38.496093 17.269531 38.496093 38.496094 0 1.445312-.082031 2.902343-.242187 4.328124-.429687 3.84375 2.339844 7.308594 6.183594 7.738282 3.84375.421875 7.308593-2.339844 7.738281-6.183594.214844-1.941406.324219-3.921875.324219-5.882812 0-28.949219-23.550781-52.503907-52.5-52.503907zm0 0"/><path d="m440.667969 83.519531h-38.222657c-6.429687 0-11.664062 5.234375-11.664062 11.667969v2.472656h-16.097656c-11.40625 0-20.691406 9.28125-20.691406 20.691406v124.125c0 3.242188-2.320313 5.953126-5.390626 6.558594v-14.605468c0-6.628907-5.390624-12.019532-12.019531-12.019532h-21.632812v-20.855468c0-8.464844-6.882813-15.347657-15.347657-15.347657h-29.550781l21.753907-138.652343c.023437-.148438.019531-.300782.035156-.449219.011718-.109375.015625-.21875.023437-.328125.007813-.105469.027344-.207032.027344-.308594v-35.351562c-.003906-6.128907-4.988281-11.117188-11.121094-11.117188h-211.453125c-6.132812 0-11.121094 4.988281-11.121094 11.117188v35.351562c0 .101562.019532.203125.027344.308594.003906.109375.011719.21875.023438.328125.015625.148437.011718.300781.035156.449219l6.269531 39.953124c.597657 3.820313 4.179688 6.429688 8.003907 5.832032 3.820312-.597656 6.433593-4.179688 5.832031-8.003906l-5.023438-32.03125h203.359375l-30.710937 195.761718c-4.023438-4.972656-8.484375-9.550781-13.375-13.664062-16.597657-13.972656-36.363281-21.355469-57.164063-21.355469h-.859375c-20.800781 0-40.570312 7.382813-57.164062 21.355469-4.890625 4.113281-9.351563 8.691406-13.378907 13.664062l-20.613281-131.421875c-.601562-3.820312-4.183593-6.429687-8.003906-5.832031-3.824219.597656-6.433594 4.183594-5.835937 8.003906l10.414062 66.390625h-26.609375c-1.664063-6.488281-7.542969-11.304687-14.546875-11.304687h-23.34375c-8.289062 0-15.03125 6.742187-15.03125 15.027344v132.472656c0 8.289062 6.742188 15.03125 15.03125 15.03125h23.34375c7 0 12.882812-4.816406 14.546875-11.304688h20.679687l-33.324218 127.203125h-21.445313c-6.890625 0-12.5 5.609375-12.5 12.5v33.667969c0 6.894531 5.609375 12.5 12.5 12.5h311.421875c6.890625 0 12.496094-5.609375 12.496094-12.5v-33.667969c0-6.890625-5.605469-12.5-12.496094-12.5h-21.445312l-33.324219-127.203125h23.617187c8.460938 0 15.347657-6.886718 15.347657-15.351562v-20.851563h21.632812c6.628907 0 12.019531-5.390625 12.019531-12.019531v-14.804688c10.804688-.671874 19.398438-9.652343 19.398438-20.625v-124.125c0-3.6875 3-6.683593 6.683594-6.683593h16.09375v2.464843c0 6.433594 5.234375 11.667969 11.667968 11.667969h38.21875c6.433594 0 11.667969-5.234375 11.667969-11.667969v-18.945312c0-6.429688-5.230469-11.667969-11.664062-11.667969zm-368.464844-44.222656v-25.289063h205.679687v25.289063zm-32.304687 153.914063v129.195312c0 .5625-.457032 1.019531-1.019532 1.019531h-23.347656c-.566406 0-1.023438-.457031-1.023438-1.019531v-12.410156h5.550782c3.871094 0 7.003906-3.136719 7.003906-7.003906 0-3.867188-3.132812-7.003907-7.003906-7.003907h-5.550782v-9.402343h5.550782c3.871094 0 7.003906-3.136719 7.003906-7.003907 0-3.871093-3.132812-7.003906-7.003906-7.003906h-5.550782v-9.40625h5.550782c3.871094 0 7.003906-3.132813 7.003906-7 0-3.871094-3.132812-7.003906-7.003906-7.003906h-5.550782v-9.40625h5.550782c3.871094 0 7.003906-3.136719 7.003906-7.003907 0-3.867187-3.132812-7.003906-7.003906-7.003906h-5.550782v-9.402344h5.550782c3.871094 0 7.003906-3.136718 7.003906-7.003906 0-3.867187-3.132812-7.003906-7.003906-7.003906h-5.550782v-12.410156c0-.5625.457032-1.023438 1.023438-1.023438h23.34375c.566406 0 1.023438.460938 1.023438 1.023438zm14.007812 118.910156v-111.90625h28.324219l10.398437 66.296875c-3.859375 7.394531-6.933594 15.347656-9.132812 23.75l-5.726563 21.859375zm275.335938 155.21875v30.652344h-308.402344v-30.652344zm-34.414063-14.007813h-239.570313l41.789063-159.523437c5.039063-19.242188 15.214844-35.734375 29.417969-47.691406 14.042968-11.816407 30.691406-18.0625 48.148437-18.0625h.859375c17.457032 0 34.105469 6.246093 48.148438 18.0625 14.203125 11.957031 24.378906 28.449218 29.417968 47.691406zm6.117187-223.917969v81.367188c0 .738281-.605468 1.339844-1.34375 1.339844h-27.285156l-5.726562-21.859375c-2.203125-8.402344-5.273438-16.355469-9.136719-23.75l10.402344-66.296875h31.746093c.742188 0 1.34375.601562 1.34375 1.34375zm33.648438 46.507813h-19.644531v-39.503906h19.644531zm103.734375-164.128906h-33.542969v-14.265625h33.542969zm0 0"/></svg>