<svg height="511pt" viewBox="0 -6 511.99933 511" width="511pt" xmlns="http://www.w3.org/2000/svg"><path d="m357.070312 91.074219s-2.640624-46.425781 41.5625-66.464844c6.285157-2.851563 12.949219-4.78125 19.746094-5.976563l63.550782-11.195312s43.496093 90.152344-27.914063 149.628906l-15.285156 15.914063-81.6875-60.992188zm0 0" fill="#e57670"/><path d="m397.398438 142.121094 41.332031 30.859375 15.28125-15.910157c71.410156-59.480468 27.917969-149.632812 27.917969-149.632812s-69.207032 57.601562-84.53125 134.683594zm0 0" fill="#e7e7e7"/><path d="m454.015625 157.074219-15.285156 15.902343-19.011719-14.191406 14.113281-14.703125c48.398438-40.308593 44.019531-94.699219 36.167969-125.578125 7.230469-7.160156 11.929688-11.070312 11.929688-11.070312s43.488281 90.15625-27.914063 149.640625zm0 0" fill="#cecece"/><path d="m154.867188 91.074219s2.640624-46.425781-41.5625-66.464844c-6.285157-2.851563-12.949219-4.78125-19.746094-5.976563l-63.550782-11.195312s-43.5 90.152344 27.914063 149.628906l15.285156 15.914063 81.6875-60.988281zm0 0" fill="#e57670"/><path d="m32.753906 19.390625c-3.191406 8.976563-7.53125 23.976563-8.609375 41.46875-2.292969 37.214844 10.578125 67.773437 38.257813 90.832031.199218.164063.390625.339844.570312.527344l11 11.453125 32.78125-24.480469c-13.027344-57.136718-56.628906-103.261718-74-119.800781zm0 0"/><path d="m114.539062 142.121094-41.332031 30.859375-15.285156-15.910157c-71.410156-59.480468-27.914063-149.632812-27.914063-149.632812s69.207032 57.601562 84.53125 134.683594zm0 0" fill="#e7e7e7"/><path d="m57.921875 157.074219 15.28125 15.902343 19.015625-14.191406-14.113281-14.703125c-48.402344-40.308593-44.019531-94.699219-36.167969-125.578125-7.230469-7.160156-11.933594-11.070312-11.933594-11.070312s-43.488281 90.15625 27.917969 149.640625zm0 0" fill="#cecece"/><path d="m453.28125 145.25c-46.53125-57.398438-122.226562-90.480469-196.75-89.074219-74.820312 1.414063-149.859375 29.890625-197.839844 89.070313-55.34375 68.265625-69.660156 170.183594-26.59375 248.320312 36.425782 66.085938 118.78125 97.644532 191.15625 99.449219 74.847656 1.859375 163.992188-.789063 222.171875-54.988281 31.734375-29.558594 50.859375-70.445313 57.179688-113.042969 9.410156-63.402344-8.984375-129.980469-49.324219-179.734375zm0 0" fill="#ffc1b8"/><path d="m502.609375 324.988281c-6.324219 42.597657-25.445313 83.476563-57.183594 113.042969-58.179687 54.191406-147.328125 56.84375-222.175781 54.980469-14.03125-.347657-28.433594-1.820313-42.816406-4.441407 2.589844.140626 5.171875.25 7.742187.3125 74.84375 1.859376 163.992188-.78125 222.164063-54.980468 31.734375-29.566406 50.859375-70.445313 57.179687-113.042969 9.414063-63.402344-8.980469-129.988281-49.320312-179.738281-35.84375-44.226563-89.015625-74.015625-145.628907-84.707032 69.183594 3.230469 137.519532 35.558594 180.707032 88.839844 40.339844 49.746094 58.734375 116.332032 49.332031 179.734375zm0 0" fill="#ffb3a8"/><path d="m189.8125 250.417969c0 6.925781-5.613281 12.539062-12.539062 12.539062-6.925782 0-12.535157-5.613281-12.535157-12.539062 0-6.921875 5.609375-12.535157 12.535157-12.535157 6.925781 0 12.539062 5.613282 12.539062 12.535157zm0 0" fill="#111"/><path d="m347.199219 250.417969c0 6.925781-5.613281 12.539062-12.539063 12.539062-6.921875 0-12.535156-5.613281-12.535156-12.539062 0-6.921875 5.613281-12.535157 12.535156-12.535157 6.925782 0 12.539063 5.613282 12.539063 12.535157zm0 0" fill="#111"/><path d="m326.917969 316.238281c-34.75-43.636719-107.335938-43.398437-141.902344 0-15.03125 18.875-19.710937 44.226563-10.902344 66.695313 21.847657 55.726562 141.984375 55.402344 163.710938 0 8.808593-22.464844 4.128906-47.820313-10.90625-66.695313zm0 0" fill="#e57670"/><path d="m337.824219 382.929688c-12.511719 31.925781-57.710938 45.570312-97.941407 40.726562 29.71875-3.550781 56.773438-17.152344 66.015626-40.726562 8.8125-22.464844 4.128906-47.820313-10.902344-66.695313-13.882813-17.433594-33.808594-27.863281-54.929688-31.335937 31.65625-5.191407 66.042969 5.203124 86.855469 31.335937 15.035156 18.875 19.714844 44.230469 10.902344 66.695313zm0 0" fill="#e05c56"/><g fill="#111"><path d="m332.394531 311.878906c-17.855469-22.421875-45.695312-35.28125-76.382812-35.28125-.003907 0 0 0-.003907 0-30.738281 0-58.613281 12.859375-76.46875 35.28125-16.867187 21.175782-21.445312 49.382813-11.945312 73.609375 10.984375 28.019531 45.632812 46.121094 88.265625 46.121094 42.765625 0 77.496094-18.105469 88.480469-46.121094 9.5-24.226562 4.921875-52.429687-11.945313-73.609375zm-1.089843 68.496094c-10.082032 25.71875-45.15625 37.230469-75.445313 37.230469-36.832031 0-66.359375-14.613281-75.230469-37.226563-7.679687-19.589844-3.898437-42.496094 9.863282-59.777344 15.183593-19.066406 39.066406-30 65.519531-30 26.398437 0 50.246093 10.933594 65.429687 29.996094 13.765625 17.285156 17.542969 40.191406 9.863282 59.777344zm0 0"/><path d="m235.308594 346.476562c-4.214844 0-7.628906 3.414063-7.628906 7.628907 0 4.210937 3.414062 7.628906 7.628906 7.628906s7.628906-3.417969 7.628906-7.628906c0-4.214844-3.414062-7.628907-7.628906-7.628907zm0 0"/><path d="m276.628906 346.476562c-4.214844 0-7.628906 3.414063-7.628906 7.628907 0 4.210937 3.414062 7.628906 7.628906 7.628906 4.210938 0 7.628906-3.417969 7.628906-7.628906 0-4.214844-3.417968-7.628907-7.628906-7.628907zm0 0"/></g><path d="m141.832031 317.949219c0 18.972656-15.378906 34.351562-34.351562 34.351562-18.96875 0-34.347657-15.378906-34.347657-34.351562 0-18.96875 15.378907-34.347657 34.347657-34.347657 18.972656 0 34.351562 15.378907 34.351562 34.347657zm0 0" fill="#ff7a7a"/><path d="m438.804688 317.949219c0 18.972656-15.378907 34.351562-34.351563 34.351562-18.96875 0-34.347656-15.378906-34.347656-34.351562 0-18.96875 15.378906-34.347657 34.347656-34.347657 18.972656 0 34.351563 15.378907 34.351563 34.347657zm0 0" fill="#ff7a7a"/><path d="m503.351562 228.144531c-7.359374-26.757812-19.402343-52.28125-35.125-74.675781 24.355469-24.832031 35.910157-57.050781 33.511719-93.972656-1.859375-28.597656-11.386719-50.511719-13.210937-54.476563-2.460938-5.351562-7.316406-4.566406-12.238282-3.699219-4.726562.835938-9.457031 1.667969-14.183593 2.5-14.980469 2.640626-29.960938 5.277344-44.941407 7.917969-7.699218 1.355469-14.910156 3.539063-21.421874 6.492188-19.871094 9.007812-34.078126 24.515625-41.085938 44.84375-.375 1.085937-.714844 2.160156-1.03125 3.21875-30.785156-11.671875-63.96875-17.75-97.222656-17.117188-34.660156.652344-67.722656 6.859375-97.839844 17.957031-2.105469-7.289062-5.511719-15.433593-11.035156-23.320312-2.21875-3.167969-6.582032-3.941406-9.753906-1.71875-3.167969 2.21875-3.933594 6.582031-1.71875 9.75 4.84375 6.914062 7.707031 14.160156 9.402343 20.503906-14.132812 6.058594-27.523437 13.246094-40.023437 21.488282-15.898438-33.140626-38.324219-59.605469-53.703125-75.460938l40.675781 7.164062c6.136719 1.082032 11.835938 2.753907 16.941406 4.972657 1.183594.515625 2.375 1.070312 3.539063 1.652343 3.460937 1.726563 7.664062.320313 9.390625-3.140624 1.730468-3.460938.324218-7.664063-3.136719-9.390626-1.386719-.691406-2.808594-1.355468-4.214844-1.964843-6.109375-2.65625-12.867187-4.648438-20.089843-5.917969-9.167969-1.617188-18.339844-3.230469-27.507813-4.847656-9.351563-1.648438-18.703125-3.292969-28.054687-4.941406-2.441407-.429688-4.902344-.992188-7.363282-1.296876-5.769531-.7187495-7.015625.863282-9.269531 6.085938-2.894531 6.710938-10.769531 27.023438-12.441406 52.742188-2.269531 34.941406 7.945312 65.675781 29.683593 89.917968 1.238282 1.378906 2.523438 2.730469 3.835938 4.070313-50.59375 71.992187-58.300781 169.898437-17.753906 243.464843 17.613281 31.957032 47.078125 58.503907 85.207031 76.765626 33.394531 15.996093 73.136719 25.335937 111.90625 26.300781 9.183594.230469 18.757813.394531 28.59375.394531 29.027344 0 60.292969-1.441406 90.195313-6.976562 45.652343-8.453126 81.089843-24.898438 108.332031-50.277344 13.746093-12.804688 25.550781-27.957032 35.085937-45.035156 1.882813-3.375.675782-7.640626-2.699218-9.523438-3.382813-1.886719-7.644532-.679688-9.527344 2.699219-8.824219 15.804687-19.726563 29.804687-32.402344 41.613281-25.234375 23.507812-58.382812 38.800781-101.339844 46.753906-38.761718 7.175782-80.332031 7.242188-115.886718 6.355469-36.835938-.917969-74.554688-9.773437-106.207032-24.933594-35.480468-16.992187-62.792968-41.507812-78.992187-70.894531-40.296875-73.109375-29.644531-172.019531 25.902343-240.53125 43.347657-53.46875 113.519532-84.988281 192.53125-86.480469 73.539063-1.417969 146.808594 31.75 191.179688 86.484375 39.007812 48.113282 56.890625 113.273438 47.835938 174.296875-1.921876 12.957031-5.066407 25.679688-9.339844 37.808594-1.285156 3.648437.632812 7.648437 4.277344 8.933594 3.648437 1.28125 7.644531-.632813 8.929687-4.277344 4.570313-12.972656 7.929687-26.566406 9.984375-40.40625 4.753906-32.03125 2.617188-65.875-6.179688-97.871094zm-450.097656-87.308593c-.351562.433593-.691406.871093-1.039062 1.304687-.484375.605469-15.042969-20.105469-16.15625-22.175781-16.496094-30.640625-14.785156-67.75-3.5625-99.835938.085937-.25.171875-.496094.257812-.738281 13.414063 12.773437 42.433594 43.183594 60.972656 82.667969-15.113281 11.3125-28.71875 24.277344-40.472656 38.777344zm313.324219-69.238282c3.730469-13.386718 12.84375-30.59375 34.945313-40.613281 5.445312-2.46875 11.523437-4.304687 18.070312-5.457031l40.613281-7.15625c-15.339843 15.816406-37.6875 42.191406-53.578125 75.207031-12.589844-8.449219-26.027344-15.800781-40.050781-21.980469zm93.160156 70.53125c-.34375-.425781-.675781-.863281-1.019531-1.289062-11.734375-14.476563-25.371094-27.53125-40.433594-38.945313 18.542969-39.40625 47.503906-69.753906 60.894532-82.503906.09375.261719.1875.527344.28125.796875 1.320312 3.78125 2.492187 7.613281 3.515624 11.484375 1.355469 5.132813 2.453126 10.28125 3.285157 15.496094 3.425781 21.480469 2.191406 44.054687-6.332031 64.324219-2.375 5.652343-5.28125 11.074218-8.664063 16.1875-.875 1.320312-11.390625 14.621093-11.527344 14.449218zm0 0" fill="#111"/></svg>