<svg height="512pt" viewBox="0 -46 512.00068 512" width="512pt" xmlns="http://www.w3.org/2000/svg"><path d="m16.117188 405.273438c-11.371094-10.339844-12.210938-27.9375-1.871094-39.308594l324.808594-357.257813c1.925781-2.117187 5.203124-2.273437 7.320312-.351562l33.507812 30.46875c2.117188 1.925781 2.273438 5.199219.351563 7.320312l-324.8125 357.257813c-10.335937 11.371094-27.933594 12.207031-39.304687 1.871094zm0 0" fill="#bc7d53"/><path d="m380.234375 46.140625-324.816406 357.265625c-10.335938 11.371094-27.933594 12.207031-39.304688 1.867188-1.996093-1.8125-3.667969-3.851563-5.007812-6.046876 10.832031 5.308594 24.285156 3.097657 32.8125-6.277343l324.816406-357.269531c1.921875-2.113282 1.765625-5.394532-.351563-7.320313l11.503907 10.457031c2.117187 1.925782 2.273437 5.207032.347656 7.324219zm0 0" fill="#af663e"/><path d="m333.476562 97.570312-41.179687-37.4375-112.820313 124.09375 41.179688 37.4375 103.375 156.308594c4.109375 6.210938 12.964844 6.890625 17.972656 1.382813l79.988282-87.976563 79.984374-87.976562c5.007813-5.507813 3.488282-14.261719-3.085937-17.761719zm0 0" fill="#d33737"/><path d="m318.578125 357.28125 11.265625 16.886719c1.042969 1.554687 2.542969 1.890625 3.34375 1.949219.792969.058593 2.332031-.046876 3.59375-1.433594l160.050781-176.039063c1.261719-1.386719 1.222657-2.921875 1.085938-3.714843-.136719-.792969-.609375-2.253907-2.257813-3.140626l-17.882812-9.613281zm183.441406-153.925781h.007813zm0 0"/><path d="m502.015625 203.355469-160.050781 176.042969c-4.996094 5.496093-13.824219 4.835937-17.949219-1.34375l-14.304687-21.4375 166.5625-183.207032 22.703124 12.207032c6.539063 3.519531 8.039063 12.246093 3.039063 17.738281zm0 0" fill="#e7e7e7"/><path d="m502.015625 203.359375-160.046875 176.039063c-5 5.496093-13.828125 4.839843-17.949219-1.347657l-2.964843-4.429687c3.757812.738281 7.847656-.390625 10.691406-3.519532l160.046875-176.035156c2.84375-3.128906 3.578125-7.308594 2.488281-10.976562l4.691406 2.527344c6.550782 3.519531 8.042969 12.246093 3.042969 17.742187zm0 0" fill="#cecece"/><path d="m511.730469 192.5625c-.964844-5.632812-4.40625-10.410156-9.433594-13.117188l-157.574219-83.828124 40.695313-44.761719c2.191406-2.40625 3.308593-5.523438 3.15625-8.777344-.15625-3.25-1.566407-6.25-3.976563-8.4375l-33.507812-30.46875c-2.410156-2.191406-5.507813-3.320313-8.78125-3.15625-3.253906.15625-6.25 1.566406-8.4375 3.976563l-10.488282 11.535156c-2.601562 2.863281-2.390624 7.296875.46875 9.898437 2.867188 2.601563 7.296876 2.394531 9.902344-.46875l9.257813-10.1875 30.808593 28.011719-40.8125 44.890625-30.808593-28.007813 8.433593-9.277343c2.601563-2.863281 2.390626-7.292969-.472656-9.898438-2.859375-2.601562-7.292968-2.390625-9.898437.472657l-291.203125 320.289062c-6.257813 6.882812-9.460938 15.792969-9.0195315 25.089844.4453125 9.292968 4.4765625 17.859375 11.3632815 24.117187 6.664062 6.058594 15.050781 9.042969 23.417968 9.042969 9.476563 0 18.925782-3.835938 25.789063-11.382812l159.171875-175.074219 42.621094 64.441406c2.132812 3.226563 6.476562 4.117187 9.707031 1.980469 3.230469-2.136719 4.117187-6.484375 1.980469-9.710938l-47.589844-71.957031c-.320312-.484375-.699219-.925781-1.128906-1.320313l-35.996094-32.722656 103.394531-113.722656 35.992188 32.722656c.433593.390625.910156.726563 1.421875 1l134.730468 71.734375-154.214843 169.621094-17.816407-26.941406c-2.136718-3.226563-6.484374-4.117188-9.710937-1.980469s-4.113281 6.480469-1.980469 9.710938l37 56.046874c3.167969 4.75 8.253906 7.722657 13.949219 8.148438.472656.035156.941406.050781 1.40625.050781 5.183594 0 10.082031-2.152343 13.605469-6.03125l.039062-.042969s0 0 .003906-.003906l22.507813-24.757812 137.503906-151.238282c3.839844-4.226562 5.488281-9.878906 4.523438-15.507812zm-300.972657 29.570312-160.519531 176.554688c-3.738281 4.117188-8.859375 6.527344-14.414062 6.792969-5.574219.269531-10.878907-1.652344-14.996094-5.390625-4.113281-3.742188-6.523437-8.863282-6.789063-14.417969-.265624-5.554687 1.652344-10.878906 5.390626-14.992187l160.519531-176.554688zm286.035157-23.441406-110.992188 122.078125-48.980469 53.871094c-1.261718 1.390625-2.796874 1.492187-3.601562 1.433594-.800781-.0625-2.304688-.402344-3.339844-1.96875l-11.203125-16.9375 159.003907-174.882813 17.921874 9.542969c1.65625.882813 2.136719 2.34375 2.273438 3.136719.136719.796875.179688 2.335937-1.082031 3.726562zm0 0"/></svg>