<svg height="512pt" viewBox="-63 0 512 512.00217" width="512pt" xmlns="http://www.w3.org/2000/svg"><path d="m66.726562 505.011719h-54.75c-2.753906 0-4.988281-2.234375-4.988281-4.988281v-22.757813h64.726563v22.757813c0 2.753906-2.234375 4.988281-4.988282 4.988281zm0 0" fill="#5a5c5e"/><path d="m374.445312 505.011719h-54.746093c-2.757813 0-4.992188-2.234375-4.992188-4.988281v-22.757813h64.730469v22.757813c0 2.753906-2.234375 4.988281-4.992188 4.988281zm0 0" fill="#5a5c5e"/><path d="m379.4375 477.265625v22.757813c0 2.753906-2.234375 4.988281-4.988281 4.988281h-15.300781c2.753906 0 4.988281-2.234375 4.988281-4.988281v-22.757813zm0 0" fill="#444"/><path d="m379.4375 477.265625h-372.449219v-70.402344c0-8.394531 6.804688-15.199219 15.199219-15.199219h342.050781c8.394531 0 15.199219 6.804688 15.199219 15.199219zm0 0" fill="#e7e7e7"/><path d="m379.4375 406.863281v70.402344h-16.644531v-70.402344c0-8.394531-6.800781-15.199219-15.203125-15.199219h16.648437c8.394531 0 15.199219 6.808594 15.199219 15.199219zm0 0" fill="#cecece"/><path d="m367.476562 355.21875h-348.527343c-6.605469 0-11.960938 5.355469-11.960938 11.960938v12.519531c0 6.609375 5.355469 11.964843 11.960938 11.964843h348.527343c6.605469 0 11.960938-5.355468 11.960938-11.964843v-12.519531c0-6.605469-5.355469-11.960938-11.960938-11.960938zm0 0" fill="#5a5c5e"/><path d="m379.4375 367.183594v12.515625c0 6.605469-5.359375 11.964843-11.964844 11.964843h-18.636718c6.609374 0 11.957031-5.359374 11.957031-11.964843v-12.515625c0-6.609375-5.347657-11.96875-11.957031-11.96875h18.636718c6.605469 0 11.964844 5.359375 11.964844 11.96875zm0 0" fill="#444"/><path d="m362.292969 56c2.082031-8.335938-2.488281-16.902344-10.578125-19.792969-27.386719-9.796875-90.878906-29.464843-158.503906-29.21875-67.621094-.246093-131.113282 19.421875-158.5 29.21875-8.09375 2.890625-12.660157 11.457031-10.582032 19.792969l39.808594 159.660156c8.15625 32.714844 12.28125 66.304688 12.28125 100.019532v39.539062h233.984375v-39.539062c0-33.714844 4.125-67.304688 12.28125-100.019532zm0 0" fill="#e7e7e7"/><path d="m362.292969 56-39.804688 159.660156c-8.164062 32.714844-12.285156 66.300782-12.285156 100.023438v39.53125h-19.28125v-41.347656c0-35.261719 4.3125-70.390626 12.84375-104.605469l41.628906-166.984375c.699219-2.792969.679688-5.609375.0625-8.253906 2.253907.769531 4.339844 1.496093 6.257813 2.1875 8.089844 2.882812 12.664062 11.457031 10.578125 19.789062zm0 0" fill="#cecece"/><path d="m87.070312 160.496094-16.402343-64.359375c-1.007813-3.957031 1.125-8.03125 4.949219-9.453125 17.300781-6.429688 65.761718-22.496094 117.59375-22.308594 51.832031-.1875 100.296874 15.878906 117.59375 22.308594 3.828124 1.421875 5.960937 5.496094 4.953124 9.453125l-16.402343 64.359375c-.902344 3.535156-4.089844 6.011718-7.738281 6.011718h-196.808594c-3.652344 0-6.835938-2.476562-7.738282-6.011718zm0 0" fill="#d5f3f7"/><path d="m315.753906 96.140625-16.398437 64.355469c-.898438 3.53125-4.09375 6.007812-7.738281 6.007812h-21.097657c3.992188 0 7.476563-2.703125 8.464844-6.566406l17.921875-70.332031c.808594-3.164063-.226562-6.410157-2.492188-8.523438 6.867188 2.167969 12.433594 4.132813 16.386719 5.597657 3.835938 1.429687 5.96875 5.5 4.953125 9.460937zm0 0" fill="#afeaf2"/><path d="m100.507812 127.59375c-3.203124 0-6.089843-2.214844-6.8125-5.472656l-4.539062-20.410156c-.835938-3.765626 1.539062-7.496094 5.304688-8.335938 3.769531-.839844 7.5 1.539062 8.335937 5.304688l4.535156 20.410156c.839844 3.765625-1.535156 7.5-5.304687 8.335937-.507813.117188-1.019532.167969-1.519532.167969zm0 0"/><path d="m165.558594 117.023438c-3.472656 0-6.484375-2.589844-6.921875-6.125l-2.582031-20.75c-.480469-3.828126 2.238281-7.316407 6.070312-7.792969 3.824219-.484375 7.316406 2.242187 7.792969 6.070312l2.582031 20.746094c.476562 3.828125-2.242188 7.320313-6.070312 7.796875-.292969.035156-.582032.054688-.871094.054688zm0 0"/><path d="m118.113281 110.050781c-3.203125 0-6.089843-2.214843-6.8125-5.472656l-1.441406-6.496094c-.839844-3.765625 1.535156-7.5 5.300781-8.335937 3.769532-.84375 7.5 1.539062 8.335938 5.304687l1.445312 6.496094c.835938 3.769531-1.539062 7.5-5.304687 8.335937-.511719.113282-1.019531.167969-1.523438.167969zm0 0"/><path d="m140.925781 104.949219c-3.203125 0-6.089843-2.21875-6.8125-5.472657l-1.441406-6.5c-.835937-3.765624 1.539063-7.496093 5.304687-8.332031 3.769532-.839843 7.496094 1.535157 8.332032 5.300781l1.445312 6.5c.835938 3.765626-1.539062 7.496094-5.304687 8.332032-.511719.117187-1.019531.171875-1.523438.171875zm0 0"/><path d="m182.992188 101.699219c-.011719 0-.023438 0-.035157 0-3.859375-.019531-6.972656-3.167969-6.949219-7.023438l.035157-6.65625c.019531-3.84375 3.140625-6.949219 6.984375-6.949219h.035156c3.859375.019532 6.972656 3.164063 6.949219 7.023438l-.035157 6.65625c-.019531 3.84375-3.140624 6.949219-6.984374 6.949219zm0 0"/><path d="m285.917969 127.59375c-.503907 0-1.011719-.054688-1.523438-.167969-3.765625-.835937-6.140625-4.570312-5.304687-8.335937l4.539062-20.410156c.835938-3.765626 4.570313-6.144532 8.332032-5.304688 3.769531.839844 6.140624 4.570312 5.304687 8.335938l-4.535156 20.410156c-.722657 3.257812-3.613281 5.472656-6.8125 5.472656zm0 0"/><path d="m220.867188 117.023438c-.289063 0-.582032-.019532-.871094-.054688-3.828125-.480469-6.546875-3.96875-6.070313-7.796875l2.582031-20.746094c.476563-3.828125 3.972657-6.554687 7.796876-6.070312 3.828124.476562 6.546874 3.964843 6.070312 7.792969l-2.585938 20.75c-.4375 3.535156-3.449218 6.125-6.921874 6.125zm0 0"/><path d="m268.308594 110.050781c-.5 0-1.011719-.054687-1.519532-.167969-3.765624-.835937-6.140624-4.566406-5.304687-8.335937l1.441406-6.496094c.835938-3.765625 4.5625-6.148437 8.335938-5.304687 3.765625.835937 6.140625 4.570312 5.304687 8.335937l-1.441406 6.496094c-.726562 3.257813-3.613281 5.472656-6.816406 5.472656zm0 0"/><path d="m245.496094 104.949219c-.5 0-1.011719-.054688-1.519532-.171875-3.765624-.835938-6.140624-4.566406-5.304687-8.332032l1.441406-6.5c.835938-3.765624 4.566407-6.144531 8.335938-5.300781 3.765625.835938 6.140625 4.566407 5.304687 8.332031l-1.445312 6.5c-.722656 3.253907-3.609375 5.472657-6.8125 5.472657zm0 0"/><path d="m203.429688 101.699219c-3.839844 0-6.964844-3.105469-6.984376-6.949219l-.035156-6.65625c-.019531-3.859375 3.09375-7.003906 6.949219-7.023438h.039063c3.839843 0 6.964843 3.105469 6.984374 6.949219l.035157 6.65625c.019531 3.859375-3.089844 7.003907-6.949219 7.023438-.011719 0-.023438 0-.039062 0zm0 0"/><path d="m196.402344 37.195312 17.585937-29.210937h-41.550781l17.570312 29.207031c1.453126 2.410156 4.945313 2.414063 6.394532.003906zm0 0" fill="#d33737"/><path d="m213.992188 7.984375-17.585938 29.214844c-1.457031 2.402343-4.949219 2.402343-6.398438 0l-3.351562-5.578125c1.644531.824218 3.8125.355468 4.867188-1.410156l13.386718-22.226563zm0 0" fill="#bc2222"/><path d="m322.96875 412.214844h-259.515625c-3.859375 0-6.984375 3.128906-6.984375 6.984375 0 3.859375 3.128906 6.988281 6.984375 6.988281h259.515625c3.859375 0 6.988281-3.128906 6.988281-6.988281 0-3.855469-3.128906-6.984375-6.988281-6.984375zm0 0"/><path d="m322.96875 442.738281h-259.515625c-3.859375 0-6.984375 3.128907-6.984375 6.988281 0 3.855469 3.128906 6.984376 6.984375 6.984376h259.515625c3.859375 0 6.988281-3.128907 6.988281-6.984376 0-3.859374-3.128906-6.988281-6.988281-6.988281zm0 0"/><path d="m386.421875 367.179688c0-10.449219-8.5-18.949219-18.949219-18.949219h-50.28125v-32.550781c0-33.113282 4.0625-66.195313 12.074219-98.328126l39.808594-159.660156c2.960937-11.878906-3.488281-23.945312-15.007813-28.0625-10.070312-3.601562-26.242187-8.96875-46.089844-14.09375-3.730468-.964844-7.546874 1.28125-8.511718 5.019532-.960938 3.738281 1.285156 7.546874 5.019531 8.511718 19.339844 4.992188 35.082031 10.214844 44.878906 13.71875 4.722657 1.6875 7.367188 6.644532 6.152344 11.527344l-39.808594 159.660156c-8.289062 33.238282-12.488281 67.457032-12.488281 101.707032v32.550781h-220.011719v-32.550781c0-32.371094-3.761719-64.761719-11.171875-96.273438-.882812-3.753906-4.640625-6.089844-8.402344-5.199219-3.753906.882813-6.082031 4.644531-5.199218 8.398438 7.167968 30.464843 10.800781 61.78125 10.800781 93.074219v32.550781h-50.285156c-10.445313 0-18.949219 8.503906-18.949219 18.949219v12.519531c0 5.015625 1.972656 9.566406 5.160156 12.957031-3.21875 3.851562-5.160156 8.808594-5.160156 14.207031v93.160157c0 6.605468 5.375 11.980468 11.976562 11.980468h54.75c6.605469 0 11.976563-5.375 11.976563-11.980468v-15.769532h229.019531v15.769532c0 6.605468 5.371094 11.980468 11.976563 11.980468h54.746093c6.605469 0 11.980469-5.375 11.980469-11.980468v-93.160157c0-5.398437-1.941406-10.351562-5.160156-14.207031 3.1875-3.390625 5.160156-7.941406 5.160156-12.957031v-12.519531zm-321.691406 130.847656h-50.757813v-13.777344h50.757813zm307.71875 0h-50.753907v-13.777344h50.753907zm0-27.75h-358.476563v-63.414063c0-4.53125 3.683594-8.214843 8.214844-8.214843h342.050781c4.527344 0 8.210938 3.6875 8.210938 8.214843zm0-90.578125c0 2.742187-2.230469 4.976562-4.976563 4.976562h-348.523437c-2.742188 0-4.976563-2.234375-4.976563-4.976562v-12.519531c0-2.746094 2.234375-4.976563 4.976563-4.976563h348.527343c2.742188 0 4.976563 2.230469 4.976563 4.976563v12.519531zm0 0"/><path d="m306.125 162.222656 16.402344-64.359375c1.894531-7.4375-2.097656-15.058593-9.289063-17.730469-18.460937-6.863281-66.863281-22.746093-119.058593-22.746093-.3125 0-.628907 0-.941407.003906-52.632812-.179687-101.476562 15.839844-120.050781 22.742187-7.191406 2.671876-11.183594 10.292969-9.289062 17.730469l16.402343 64.359375c1.691407 6.636719 7.660157 11.273438 14.507813 11.273438h196.808594c6.851562 0 12.816406-4.636719 14.507812-11.273438zm-212.285156-3.453125-16.402344-64.359375c-.128906-.492187.136719-1.003906.613281-1.179687 17.753907-6.597657 64.265625-21.871094 114.289063-21.871094h1.792968c49.96875 0 96.484376 15.277344 114.238282 21.871094.476562.175781.742187.6875.613281 1.183593l-16.402344 64.355469c-.113281.445313-.511719.753907-.96875.753907h-196.808593c-.453126 0-.851563-.308594-.964844-.753907zm0 0"/><path d="m262.726562 134.445312c-24.40625-5.382812-47.765624-8.058593-69.488281-7.988281-19.886719-.09375-41.296875 2.1875-63.546875 6.71875-3.785156.769531-6.222656 4.457031-5.453125 8.242188.769531 3.777343 4.453125 6.214843 8.242188 5.449219 20.984375-4.273438 41.105469-6.441407 59.867187-6.441407h1.785156c20.453126 0 42.515626 2.578125 65.582032 7.667969.507812.109375 1.011718.164062 1.511718.164062 3.207032 0 6.097657-2.222656 6.816407-5.484374.832031-3.765626-1.550781-7.496094-5.316407-8.328126zm0 0"/><path d="m50.453125 190.449219c.792969 3.175781 3.640625 5.300781 6.773437 5.300781.558594 0 1.128907-.070312 1.695313-.210938 3.746094-.933593 6.023437-4.726562 5.089844-8.46875l-33.101563-132.757812c-1.21875-4.882812 1.425782-9.839844 6.152344-11.53125 21.421875-7.660156 73.328125-24.199219 131.304688-28.011719l15.65625 26.027344c1.953124 3.25 5.386718 5.191406 9.183593 5.191406 3.792969 0 7.226563-1.9375 9.183594-5.191406l15.671875-26.035156c17.371094 1.128906 35.460938 3.476562 54.039062 7.023437 3.792969.726563 7.449219-1.761718 8.171876-5.550781.722656-3.789063-1.761719-7.449219-5.550782-8.171875-28.023437-5.351562-55.011718-8.0625-80.203125-8.0625-.425781 0-.855469 0-1.28125.00390625-67.238281-.28515625-129.648437 18.45312475-160.882812 29.62499975-11.515625 4.117188-17.96875 16.183594-15.003907 28.0625zm151.175781-175.476563-8.421875 13.984375-8.414062-13.984375zm0 0"/><path d="m208.476562 184.972656h-30.527343c-3.859375 0-6.988281 3.125-6.988281 6.984375s3.128906 6.984375 6.988281 6.984375h30.527343c3.859376 0 6.988282-3.125 6.988282-6.984375s-3.128906-6.984375-6.988282-6.984375zm0 0"/><path d="m208.476562 207.59375h-30.527343c-3.859375 0-6.988281 3.128906-6.988281 6.988281 0 3.855469 3.128906 6.984375 6.988281 6.984375h30.527343c3.859376 0 6.988282-3.128906 6.988282-6.984375 0-3.859375-3.128906-6.988281-6.988282-6.988281zm0 0"/></svg>