<svg height="512pt" viewBox="0 -45 512 512" width="512pt" xmlns="http://www.w3.org/2000/svg"><g fill="#e7e7e7"><path d="m100.777344 70.953125h-59.664063v-54.253906c0-5.363281 4.351563-9.710938 9.714844-9.710938h40.234375c5.367188 0 9.714844 4.347657 9.714844 9.710938zm0 0"/><path d="m91.0625 415.78125h-40.234375c-5.363281 0-9.714844-4.347656-9.714844-9.714844v-54.253906h59.664063v54.253906c0 5.367188-4.347656 9.714844-9.714844 9.714844zm0 0"/><path d="m224.144531 70.953125h-59.660156v-54.253906c0-5.363281 4.347656-9.710938 9.714844-9.710938h40.234375c5.363281 0 9.710937 4.347657 9.710937 9.710938zm0 0"/><path d="m214.433594 415.78125h-40.234375c-5.367188 0-9.714844-4.347656-9.714844-9.714844v-54.253906h59.660156v54.253906c0 5.367188-4.347656 9.714844-9.710937 9.714844zm0 0"/><path d="m347.515625 70.953125h-59.660156v-54.253906c0-5.363281 4.347656-9.710938 9.710937-9.710938h40.234375c5.367188 0 9.714844 4.347657 9.714844 9.710938zm0 0"/><path d="m337.800781 415.78125h-40.234375c-5.363281 0-9.710937-4.347656-9.710937-9.714844v-54.253906h59.660156v54.253906c0 5.367188-4.347656 9.714844-9.714844 9.714844zm0 0"/><path d="m470.886719 70.953125h-59.664063v-54.253906c0-5.363281 4.347656-9.710938 9.714844-9.710938h40.234375c5.363281 0 9.714844 4.347657 9.714844 9.710938zm0 0"/><path d="m461.171875 415.78125h-40.234375c-5.367188 0-9.714844-4.347656-9.714844-9.714844v-54.253906h59.664063v54.253906c0 5.367188-4.351563 9.714844-9.714844 9.714844zm0 0"/></g><path d="m100.773438 16.703125v54.246094h-23.695313v-54.246094c0-5.367187-4.347656-9.71875-9.71875-9.71875h23.703125c5.371094 0 9.710938 4.351563 9.710938 9.71875zm0 0" fill="#cecece"/><path d="m100.773438 351.820312v54.242188c0 5.371094-4.339844 9.722656-9.710938 9.722656h-23.703125c5.367187 0 9.71875-4.351562 9.71875-9.722656v-54.242188zm0 0" fill="#cecece"/><path d="m224.140625 16.703125v54.246094h-23.691406v-54.246094c0-5.367187-4.351563-9.71875-9.722657-9.71875h23.703126c5.371093 0 9.710937 4.351563 9.710937 9.71875zm0 0" fill="#cecece"/><path d="m224.140625 351.820312v54.242188c0 5.371094-4.339844 9.722656-9.710937 9.722656h-23.703126c5.371094 0 9.722657-4.351562 9.722657-9.722656v-54.242188zm0 0" fill="#cecece"/><path d="m347.519531 16.703125v54.246094h-23.703125v-54.246094c0-5.367187-4.351562-9.71875-9.71875-9.71875h23.703125c5.367188 0 9.71875 4.351563 9.71875 9.71875zm0 0" fill="#cecece"/><path d="m347.519531 351.820312v54.242188c0 5.371094-4.347656 9.722656-9.71875 9.722656h-23.703125c5.367188 0 9.71875-4.351562 9.71875-9.722656v-54.242188zm0 0" fill="#cecece"/><path d="m470.890625 16.703125v54.246094h-23.707031v-54.246094c0-5.367187-4.347656-9.71875-9.710938-9.71875h23.695313c5.371093 0 9.722656 4.351563 9.722656 9.71875zm0 0" fill="#cecece"/><path d="m470.890625 351.820312v54.242188c0 5.371094-4.351563 9.722656-9.722656 9.722656h-23.695313c5.359375 0 9.710938-4.351562 9.710938-9.722656v-54.242188zm0 0" fill="#cecece"/><path d="m505.015625 210.386719h-.007813c-.191406-55.492188-9.609374-110.628907-13.503906-131.097657-.917968-4.839843-5.152344-8.335937-10.078125-8.335937h-80.742187c-4.925782 0-9.160156 3.496094-10.082032 8.335937-1.011718 5.332032-2.402343 13.023438-3.90625 22.460938-1.328124 8.335938-13.324218 8.335938-14.652343 0-1.503907-9.4375-2.890625-17.128906-3.90625-22.460938-.921875-4.839843-5.15625-8.335937-10.078125-8.335937h-80.746094c-4.925781 0-9.160156 3.496094-10.078125 8.335937-1.015625 5.332032-2.40625 13.023438-3.90625 22.460938-1.328125 8.335938-13.324219 8.335938-14.652344 0-1.503906-9.4375-2.894531-17.128906-3.910156-22.460938-.917969-4.839843-5.152344-8.335937-10.078125-8.335937h-80.742188c-4.925781 0-9.160156 3.496094-10.082031 8.335937-1.011719 5.332032-2.402343 13.023438-3.90625 22.460938-1.328125 8.335938-13.324219 8.335938-14.652343 0-1.503907-9.4375-2.890626-17.128906-3.90625-22.460938-.921876-4.839843-5.15625-8.335937-10.078126-8.335937h-80.746093c-4.925781 0-9.160157 3.496094-10.078125 8.335937-3.894532 20.46875-13.308594 75.605469-13.503906 131.097657h-.007813c0 .289062.003906.578125.003906.867187 0 .289063-.003906.578125-.003906.867188h.007813c.191406 55.492187 9.609374 110.628906 13.503906 131.097656.917968 4.839844 5.152344 8.335938 10.078125 8.335938h80.742187c4.925782 0 9.160156-3.496094 10.082032-8.335938 1.011718-5.332031 2.402343-13.023438 3.90625-22.460938 1.328124-8.335937 13.324218-8.335937 14.652343 0 1.503907 9.4375 2.890625 17.128907 3.90625 22.460938.921875 4.839844 5.15625 8.335938 10.078125 8.335938h80.746094c4.925781 0 9.160156-3.496094 10.078125-8.335938 1.015625-5.332031 2.40625-13.023438 3.90625-22.460938 1.328125-8.335937 13.324219-8.335937 14.652344 0 1.503906 9.4375 2.894531 17.128907 3.910156 22.460938.917969 4.839844 5.152344 8.335938 10.078125 8.335938h80.742188c4.925781 0 9.160156-3.496094 10.082031-8.335938 1.011719-5.332031 2.402343-13.023438 3.90625-22.460938 1.328125-8.335937 13.324219-8.335937 14.652343 0 1.503907 9.4375 2.890626 17.128907 3.90625 22.460938.921876 4.839844 5.15625 8.335938 10.078126 8.335938h80.746093c4.925781 0 9.160157-3.496094 10.078125-8.335938 3.894532-20.46875 13.308594-75.605469 13.503906-131.097656h.003907c0-.289063 0-.578125 0-.867188 0-.289062.003906-.578125.003906-.867187zm0 0" fill="#bc7d53"/><path d="m505.011719 210.386719v1.734375c-.199219 55.492187-9.609375 110.625-13.503907 131.09375-.929687 4.84375-5.160156 8.335937-10.078124 8.335937h-20.960938c4.921875 0 9.152344-3.492187 10.082031-8.335937 3.890625-20.46875 13.300781-75.601563 13.503907-131.09375v-1.734375c-.203126-55.492188-9.613282-110.625-13.503907-131.09375-.929687-4.839844-5.160156-8.34375-10.082031-8.34375h20.960938c4.917968 0 9.148437 3.503906 10.078124 8.34375 3.894532 20.46875 13.304688 75.601562 13.503907 131.09375zm0 0" fill="#af663e"/><path d="m54.265625 143.199219c-2.539063 0-4.988281-1.386719-6.222656-3.800781-1.757813-3.4375-.402344-7.644532 3.035156-9.402344l33.367187-17.085938c3.4375-1.761718 7.644532-.402344 9.402344 3.035156 1.757813 3.433594.402344 7.644532-3.035156 9.402344l-33.367188 17.082032c-1.019531.523437-2.105468.769531-3.179687.769531zm0 0"/><path d="m54.265625 198.921875c-2.539063 0-4.988281-1.386719-6.222656-3.804687-1.757813-3.433594-.402344-7.640626 3.035156-9.402344l33.367187-17.082032c3.4375-1.761718 7.644532-.402343 9.402344 3.035157 1.757813 3.433593.402344 7.640625-3.035156 9.402343l-33.367188 17.082032c-1.019531.523437-2.105468.769531-3.179687.769531zm0 0"/><path d="m54.265625 254.644531c-2.539063 0-4.988281-1.386719-6.222656-3.800781-1.757813-3.4375-.402344-7.644531 3.035156-9.402344l33.367187-17.085937c3.4375-1.761719 7.644532-.402344 9.402344 3.035156 1.757813 3.433594.402344 7.640625-3.035156 9.398437l-33.367188 17.085938c-1.019531.523438-2.105468.769531-3.179687.769531zm0 0"/><path d="m54.265625 310.367188c-2.539063 0-4.988281-1.386719-6.222656-3.804688-1.757813-3.433594-.402344-7.640625 3.035156-9.402344l33.367187-17.082031c3.4375-1.761719 7.644532-.402344 9.402344 3.03125 1.757813 3.4375.402344 7.644531-3.035156 9.402344l-33.367188 17.085937c-1.019531.523438-2.105468.769532-3.179687.769532zm0 0"/><path d="m177.636719 143.199219c-2.539063 0-4.988281-1.386719-6.226563-3.800781-1.757812-3.4375-.398437-7.644532 3.035156-9.402344l33.371094-17.085938c3.433594-1.761718 7.644532-.402344 9.402344 3.035156 1.757812 3.433594.398438 7.644532-3.035156 9.402344l-33.371094 17.082032c-1.015625.523437-2.105469.769531-3.175781.769531zm0 0"/><path d="m177.636719 198.921875c-2.539063 0-4.988281-1.386719-6.226563-3.804687-1.757812-3.433594-.398437-7.644532 3.035156-9.402344l33.371094-17.082032c3.433594-1.761718 7.644532-.402343 9.402344 3.035157 1.757812 3.433593.398438 7.644531-3.035156 9.402343l-33.371094 17.082032c-1.015625.523437-2.105469.769531-3.175781.769531zm0 0"/><path d="m177.636719 254.644531c-2.539063 0-4.988281-1.386719-6.226563-3.800781-1.757812-3.4375-.398437-7.644531 3.035156-9.402344l33.371094-17.085937c3.433594-1.761719 7.644532-.402344 9.402344 3.035156 1.757812 3.433594.398438 7.640625-3.035156 9.398437l-33.371094 17.085938c-1.015625.523438-2.105469.769531-3.175781.769531zm0 0"/><path d="m177.636719 310.367188c-2.539063 0-4.988281-1.386719-6.226563-3.804688-1.757812-3.433594-.398437-7.640625 3.035156-9.402344l33.371094-17.082031c3.433594-1.761719 7.644532-.402344 9.402344 3.03125 1.757812 3.4375.398438 7.644531-3.035156 9.402344l-33.371094 17.085937c-1.015625.523438-2.105469.769532-3.175781.769532zm0 0"/><path d="m301.003906 143.199219c-2.539062 0-4.988281-1.386719-6.222656-3.800781-1.757812-3.4375-.402344-7.644532 3.035156-9.402344l33.371094-17.085938c3.433594-1.761718 7.640625-.402344 9.402344 3.035156 1.757812 3.433594.398437 7.644532-3.035156 9.402344l-33.371094 17.082032c-1.019532.523437-2.109375.769531-3.179688.769531zm0 0"/><path d="m301.003906 198.921875c-2.539062 0-4.988281-1.386719-6.222656-3.804687-1.757812-3.433594-.402344-7.644532 3.035156-9.402344l33.371094-17.082032c3.429688-1.761718 7.640625-.402343 9.402344 3.035157 1.757812 3.433593.398437 7.644531-3.035156 9.402343l-33.371094 17.082032c-1.019532.523437-2.109375.769531-3.179688.769531zm0 0"/><path d="m301.003906 254.644531c-2.539062 0-4.988281-1.386719-6.222656-3.800781-1.757812-3.4375-.402344-7.644531 3.035156-9.402344l33.371094-17.085937c3.433594-1.761719 7.640625-.402344 9.402344 3.035156 1.757812 3.433594.398437 7.640625-3.035156 9.398437l-33.371094 17.085938c-1.019532.523438-2.109375.769531-3.179688.769531zm0 0"/><path d="m301.003906 310.367188c-2.539062 0-4.988281-1.386719-6.222656-3.804688-1.757812-3.433594-.402344-7.640625 3.035156-9.402344l33.371094-17.082031c3.433594-1.761719 7.640625-.402344 9.402344 3.03125 1.757812 3.4375.398437 7.644531-3.035156 9.402344l-33.371094 17.085937c-1.019532.523438-2.109375.769532-3.179688.769532zm0 0"/><path d="m512 210.386719c0-.105469-.003906-.207031-.007812-.316407-.226563-55.757812-9.597657-110.929687-13.625-132.089843-1.542969-8.121094-8.667969-14.011719-16.941407-14.011719h-3.554687v-47.269531c0-9.207031-7.492188-16.699219-16.699219-16.699219h-40.234375c-9.210938 0-16.703125 7.492188-16.703125 16.699219v47.269531h-3.554687c-8.273438 0-15.398438 5.894531-16.941407 14.011719-.933593 4.90625-2.375 12.816406-3.941406 22.667969-.03125.191406-.074219.285156-.070313.289062-.140624.105469-.574218.105469-.699218.019531-.011719-.019531-.054688-.117187-.085938-.308593-1.566406-9.839844-3.007812-17.757813-3.941406-22.664063-1.546875-8.121094-8.671875-14.015625-16.941406-14.015625h-3.554688v-9.777344c0-3.855468-3.128906-6.984375-6.988281-6.984375s-6.984375 3.128907-6.984375 6.984375v9.777344h-45.691406v-47.269531c0-1.503907 1.222656-2.726563 2.726562-2.726563h40.234375c1.503907 0 2.730469 1.222656 2.730469 2.726563v3.5625c0 3.855469 3.125 6.984375 6.984375 6.984375s6.988281-3.128906 6.988281-6.984375v-3.5625c0-9.207031-7.492187-16.699219-16.703125-16.699219h-40.234375c-9.207031 0-16.699218 7.492188-16.699218 16.699219v47.269531h-3.554688c-8.273438 0-15.398438 5.894531-16.941406 14.015625-.933594 4.910156-2.378906 12.828125-3.941406 22.664063-.03125.191406-.074219.285156-.070313.289062-.140625.105469-.578125.105469-.699219.019531-.015625-.019531-.058594-.117187-.085937-.304687-1.566407-9.839844-3.007813-17.757813-3.941407-22.667969-1.546874-8.121094-8.671874-14.015625-16.945312-14.015625h-3.554688v-47.269531c0-9.207031-7.492187-16.699219-16.699218-16.699219h-40.234375c-9.207031 0-16.699219 7.492188-16.699219 16.699219v47.269531h-3.554688c-8.273437 0-15.398437 5.894531-16.941406 14.015625-.933594 4.90625-2.375 12.824219-3.945312 22.664063-.027344.191406-.070313.285156-.066406.289062-.140626.105469-.578126.105469-.699219.019531-.015625-.019531-.058594-.117187-.085938-.304687-1.570312-9.851563-3.011719-17.765625-3.945312-22.667969-1.542969-8.121094-8.667969-14.015625-16.941407-14.015625h-3.554687v-47.269531c0-9.207031-7.492187-16.699219-16.699219-16.699219h-40.238281c-9.207031 0-16.699219 7.492188-16.699219 16.699219v47.269531h-3.554687c-8.273438 0-15.398438 5.894531-16.941407 14.011719-4.027343 21.164062-13.402343 76.34375-13.6249995 132.105469-.00390625.097656-.0078125.199218-.0078125.300781l.00390625.855469-.00390625.878906c0 .101562.00390625.199218.0078125.300781.0820313 20.964844 1.4726565 43.910156 4.1328125 68.214844.417969 3.835937 3.863281 6.597656 7.703125 6.1875 3.835938-.421875 6.605469-3.871094 6.1875-7.707031-2.617188-23.925782-3.980469-46.472657-4.054688-67.023438 0-.074219 0-.152344-.003906-.226562l.003906-.625-.003906-.601563c.003906-.074219.003906-.152344.003906-.230469.191407-54.6875 9.421876-109.003906 13.382813-129.816406.292969-1.539062 1.644531-2.652344 3.214844-2.652344h80.742187c1.574219 0 2.925782 1.113282 3.21875 2.652344.914063 4.808594 2.328125 12.574219 3.871094 22.253906 1.136719 7.144532 6.988281 12.136719 14.226562 12.136719 7.234376 0 13.085938-4.992187 14.222657-12.136719 1.542969-9.671875 2.957031-17.441406 3.871093-22.253906.292969-1.539062 1.644532-2.652344 3.214844-2.652344h80.746094c1.570312 0 2.921875 1.113282 3.214844 2.652344.917968 4.816406 2.332031 12.585938 3.871094 22.253906 1.140624 7.148438 6.988281 12.140625 14.226562 12.140625s13.085938-4.992187 14.226562-12.140625c1.539063-9.667968 2.953126-17.4375 3.871094-22.253906.292969-1.539062 1.644532-2.652344 3.214844-2.652344h80.742188c1.574218 0 2.925781 1.113282 3.21875 2.652344.914062 4.8125 2.328124 12.582031 3.871093 22.253906 1.136719 7.144532 6.988281 12.136719 14.222657 12.136719 7.238281 0 13.089843-4.992187 14.226562-12.136719 1.542969-9.679687 2.957031-17.445312 3.875-22.253906.289062-1.539062 1.644531-2.652344 3.214844-2.652344h80.742187c1.570313 0 2.921875 1.113282 3.214844 2.652344 3.960937 20.8125 13.191406 75.125 13.382813 129.816406 0 .082032 0 .164063.003906.242188l-.003906.613281.003906.589844c-.003906.078125-.003906.160156-.003906.242187-.191407 54.691406-9.421876 109.003906-13.382813 129.816406-.292969 1.539063-1.644531 2.65625-3.214844 2.65625h-80.742187c-1.574219 0-2.925782-1.117187-3.21875-2.65625-.914063-4.804687-2.328125-12.566406-3.871094-22.253906-1.136719-7.144531-6.988281-12.140625-14.226562-12.140625-7.234376 0-13.085938 4.996094-14.222657 12.140625-1.542969 9.679688-2.957031 17.445313-3.871093 22.253906-.292969 1.539063-1.644532 2.65625-3.214844 2.65625h-80.746094c-1.570312 0-2.921875-1.117187-3.214844-2.65625-.917968-4.8125-2.332031-12.578124-3.871094-22.253906-1.140624-7.144531-6.988281-12.140625-14.226562-12.140625s-13.085938 4.996094-14.226562 12.140625c-1.539063 9.675782-2.953126 17.441406-3.871094 22.253906-.292969 1.539063-1.644532 2.65625-3.214844 2.65625h-80.742188c-1.574218 0-2.925781-1.117187-3.214843-2.65625-.917969-4.808593-2.332031-12.578124-3.875-22.253906-1.136719-7.144531-6.988281-12.140625-14.222657-12.140625-7.238281 0-13.085937 4.996094-14.226562 12.140625-1.542969 9.6875-2.957031 17.449219-3.871094 22.253906-.292968 1.539063-1.644531 2.65625-3.214844 2.65625h-80.746093c-1.570313 0-2.921875-1.117187-3.214844-2.65625-1.207031-6.339843-3.050781-16.578124-4.96875-29.320312-.574219-3.816406-4.136719-6.4375-7.949219-5.867188-3.816406.574219-6.445312 4.132813-5.867187 7.949219 1.953125 12.964844 3.828125 23.386719 5.058593 29.851563 1.542969 8.121094 8.667969 14.011718 16.941407 14.011718h3.554687v47.527344c0 9.207032 7.492188 16.703125 16.699219 16.703125h40.234375c9.210938 0 16.703125-7.492187 16.703125-16.703125v-47.527344h3.554687c8.273438 0 15.398438-5.894531 16.941407-14.011718.933593-4.902344 2.375-12.8125 3.941406-22.667969.03125-.1875.074219-.285156.070313-.285156.136718-.109375.574218-.109375.699218-.023438.011719.023438.054688.121094.085938.308594 1.570312 9.847656 3.007812 17.761719 3.941406 22.667969 1.546875 8.121094 8.671875 14.011718 16.941406 14.011718h3.554688v47.527344c0 9.207032 7.492187 16.699219 16.703125 16.699219h40.234375c9.207031 0 16.699218-7.492187 16.699218-16.699219v-47.527344h3.554688c8.273438 0 15.398438-5.894531 16.941406-14.015624.933594-4.90625 2.375-12.824219 3.941406-22.664063.03125-.191406.074219-.289063.070313-.289063.140625-.105468.578125-.105468.699219-.019531.011718.019531.054687.117188.085937.304688 1.566407 9.84375 3.011719 17.761719 3.941407 22.667969 1.546874 8.121093 8.671874 14.015624 16.945312 14.015624h3.554688v47.523438c0 9.210938 7.492187 16.703125 16.699218 16.703125h40.234375c9.207031 0 16.699219-7.492187 16.699219-16.703125v-47.523438h3.554688c8.273437 0 15.398437-5.894531 16.941406-14.015624.933594-4.90625 2.375-12.820313 3.945312-22.667969.027344-.1875.070313-.285157.066406-.285157.140626-.109374.574219-.109374.699219-.023437.015625.023437.058594.117187.085938.308594 1.570312 9.855469 3.011719 17.765625 3.945312 22.664062 1.542969 8.121094 8.667969 14.015625 16.941407 14.015625h3.554687v47.527344c0 9.207031 7.492187 16.699219 16.699219 16.699219h40.234375c9.210937 0 16.699219-7.492188 16.699219-16.699219v-47.527344h3.558593c8.269531 0 15.394531-5.894531 16.941407-14.011718 4.023437-21.160157 13.398437-76.332032 13.625-132.09375.003906-.101563.003906-.210938.003906-.316407v-.851562zm-463.898438-146.417969v-47.269531c0-1.503907 1.222657-2.726563 2.726563-2.726563h40.234375c1.503906 0 2.730469 1.222656 2.730469 2.726563v47.269531zm123.371094 0v-47.269531c0-1.503907 1.222656-2.726563 2.726563-2.726563h40.234375c1.503906 0 2.726562 1.222656 2.726562 2.726563v47.269531zm246.738282 0v-47.269531c0-1.503907 1.222656-2.726563 2.726562-2.726563h40.234375c1.503906 0 2.726563 1.222656 2.726563 2.726563v47.269531zm-324.421876 342.097656c0 1.503906-1.222656 2.730469-2.726562 2.730469h-40.234375c-1.503906 0-2.726563-1.226563-2.726563-2.730469v-47.265625h45.6875zm123.371094 0c0 1.503906-1.222656 2.730469-2.726562 2.730469h-40.234375c-1.503907 0-2.730469-1.226563-2.730469-2.730469v-47.265625h45.691406zm123.367188 0c0 1.503906-1.222656 2.730469-2.726563 2.730469h-40.234375c-1.503906 0-2.726562-1.226563-2.726562-2.730469v-47.265625h45.6875zm123.371094 0c0 1.503906-1.222657 2.730469-2.726563 2.730469h-40.234375c-1.503906 0-2.730469-1.226563-2.730469-2.730469v-47.265625h45.691407zm0 0"/><path d="m424.375 143.199219c-2.539062 0-4.988281-1.386719-6.226562-3.800781-1.757813-3.4375-.398438-7.644532 3.035156-9.402344l33.371094-17.085938c3.433593-1.761718 7.644531-.402344 9.402343 3.035156 1.757813 3.433594.398438 7.644532-3.035156 9.402344l-33.371094 17.082032c-1.015625.523437-2.105469.769531-3.175781.769531zm0 0"/><path d="m424.375 198.921875c-2.539062 0-4.988281-1.386719-6.226562-3.804687-1.757813-3.433594-.398438-7.640626 3.035156-9.402344l33.371094-17.082032c3.433593-1.761718 7.644531-.402343 9.402343 3.035157 1.757813 3.433593.398438 7.640625-3.035156 9.402343l-33.371094 17.082032c-1.015625.523437-2.105469.769531-3.175781.769531zm0 0"/><path d="m424.375 254.644531c-2.539062 0-4.988281-1.386719-6.226562-3.800781-1.757813-3.4375-.398438-7.644531 3.035156-9.402344l33.371094-17.085937c3.433593-1.761719 7.644531-.402344 9.402343 3.035156 1.757813 3.433594.398438 7.640625-3.035156 9.398437l-33.371094 17.085938c-1.015625.523438-2.105469.769531-3.175781.769531zm0 0"/><path d="m424.375 310.367188c-2.539062 0-4.988281-1.386719-6.226562-3.804688-1.757813-3.433594-.398438-7.640625 3.035156-9.402344l33.371094-17.082031c3.433593-1.761719 7.644531-.402344 9.402343 3.03125 1.757813 3.4375.398438 7.644531-3.035156 9.402344l-33.371094 17.085937c-1.015625.523438-2.105469.769532-3.175781.769532zm0 0"/></svg>