<svg height="511pt" viewBox="0 -4 511.9988 511" width="511pt" xmlns="http://www.w3.org/2000/svg"><path d="m43.226562 194.476562c-11.417968 0-20.679687-9.257812-20.679687-20.679687v-46.03125h41.363281v46.03125c0 11.421875-9.261718 20.679687-20.683594 20.679687zm0 0" fill="#d33737"/><path d="m63.910156 127.761719v46.03125c0 11.425781-9.265625 20.6875-20.6875 20.6875-2.738281 0-5.359375-.53125-7.757812-1.515625 7.578125-3.058594 12.929687-10.5 12.929687-19.171875v-46.03125zm0 0" fill="#bc2222"/><path d="m43.792969 75.546875c-10.601563 6.890625-25.28125 20.253906-36.328125 45.152344-1.472656 3.320312.933594 7.066406 4.566406 7.066406h69.761719v-58.941406h-15.167969c-8.101562 0-16.039062 2.308593-22.832031 6.722656zm0 0" fill="#f6ac39"/><path d="m81.796875 108.160156v19.601563h-69.769531c-3.632813 0-6.03125-3.742188-4.558594-7.066407 2.019531-4.554687 4.167969-8.722656 6.386719-12.535156zm0 0" fill="#f39d0a"/><path d="m393.984375 236.101562-55.652344 12.039063-16.460937-76.101563c-3.324219-15.367187 6.4375-30.519531 21.804687-33.84375 15.367188-3.324218 30.523438 6.4375 33.84375 21.808594zm0 0" fill="#d33737"/><path d="m377.519531 160 16.464844 76.105469-16.015625 3.464843-16.460938-76.105468c-1.664062-7.679688-6.285156-13.960938-12.402343-17.914063-3.90625-2.507812-8.425781-4.082031-13.183594-4.445312 2.371094-1.316407 4.972656-2.304688 7.757813-2.90625 7.679687-1.664063 15.308593-.050781 21.4375 3.890625 6.121093 3.949218 10.742187 10.230468 12.402343 17.910156zm0 0" fill="#bc2222"/><path d="m430.195312 249.367188-56.257812-8.777344 12.003906-76.929688c2.425782-15.535156 16.984375-26.164062 32.519532-23.738281 15.535156 2.421875 26.164062 16.984375 23.738281 32.519531zm0 0" fill="#f6ac39"/><path d="m442.324219 164.492188c.320312 2.574218.296875 5.25-.125 7.945312l-12.007813 76.933594-17.414062-2.714844 11.769531-75.402344c.421875-2.695312.449219-5.359375.125-7.945312-1.277344-10.183594-8.03125-19-17.625-22.851563 3.621094-.925781 7.476563-1.140625 11.410156-.53125 12.847657 1.996094 22.328125 12.28125 23.867188 24.566407zm0 0" fill="#f39d0a"/><path d="m467.929688 260.699219-51.167969-24.972657 34.144531-69.972656c6.894531-14.128906 23.941406-19.996094 38.070312-13.097656 14.132813 6.894531 19.996094 23.9375 13.101563 38.070312zm0 0" fill="#d33737"/><path d="m504.972656 178.265625c0 4.191406-.933594 8.445313-2.890625 12.457031l-34.148437 69.976563-17.617188-8.601563 33.800782-69.28125c1.957031-4.023437 2.890624-8.277344 2.890624-12.46875 0-7.679687-3.128906-15.140625-8.734374-20.535156 3.617187.226562 7.246093 1.160156 10.703124 2.839844 10.113282 4.9375 15.996094 15.070312 15.996094 25.613281zm0 0" fill="#bc2222"/><path d="m96.457031 196.40625c-16.34375 16.675781-32.058593 34.671875-43.136719 55.367188-8.195312 15.3125-12.253906 32.792968-14.476562 49.882812-6.441406 49.476562 11.683594 107.230469 47.800781 142.523438 36.535157 35.699218 89.558594 49.46875 139.261719 52.097656 47.761719 2.527344 97.671875-4.265625 142.027344-22.609375 93.984375-38.871094 118.714844-137.597657 115.683594-230.417969-.175782-5.285156-4.554688-9.457031-9.84375-9.425781-24.074219.144531-48.148438.226562-72.222657.292969-28.90625.078124-57.8125.148437-86.71875.097656-26.050781-.046875-52.109375 1.226562-78.019531 1.015625-12.515625-.101563-26.914062-6.878907-30.824219-19.75-5.066406-16.695313 1.722657-37.457031 8.296875-52.507813 6.1875-14.179687 15.410156-27.964844 20.808594-42.300781 14.011719-37.1875-5.785156-87.390625-41.648438-104.710937-27.726562-13.390626-62.527343-10.492188-87.875 6.859374-30.160156 20.648438-43.488281 57.632813-32.382812 92.613282 3.851562 12.128906 10.503906 23.242187 19.210938 32.507812 1.902343 2.027344 12.28125 12.125 19.816406 18.847656 4.011718 3.578126 4.160156 9.796876.328125 13.566407-4.882813 4.8125-10.621094 10.476562-16.085938 16.050781zm0 0" fill="#893d1b"/><path d="m367.933594 473.671875c-44.351563 18.339844-94.265625 25.136719-142.027344 22.601563-30.054688-1.589844-61.320312-7.242188-89.417969-19.371094 20.355469 5.710937 41.570313 8.710937 62.203125 9.804687 47.761719 2.535157 97.679688-4.261719 142.03125-22.601562 93.898438-38.851563 118.675782-137.429688 115.6875-230.1875 5.78125-.03125 11.574219-.058594 17.367188-.089844 5.285156-.03125 9.667968 4.132813 9.835937 9.417969 3.039063 92.828125-21.699219 191.546875-115.679687 230.425781zm0 0" fill="#7a2e10"/><path d="m368.484375 257.90625-102.714844-34.507812c-36.980469-12.421876-77.035156 7.484374-89.457031 44.46875-12.425781 36.980468 7.484375 77.035156 44.464844 89.457031 25.496094 8.566406 52.445312 1.761719 70.800781-15.40625v.003906l79.933594-68.453125c5.375-4.601562 3.683593-13.308594-3.027344-15.5625zm0 0" fill="#f6ac39"/><path d="m371.511719 273.472656-79.929688 68.453125v-.007812c-18.363281 17.167969-45.308593 23.972656-70.800781 15.410156-21.917969-7.375-37.855469-24.453125-44.59375-44.839844 8.335938 11.542969 20.230469 20.695313 34.753906 25.574219 25.496094 8.5625 52.449219 1.757812 70.800782-15.402344l78.761718-67.441406 7.976563 2.683594c6.71875 2.253906 8.40625 10.96875 3.03125 15.570312zm0 0" fill="#f39d0a"/><path d="m492.058594 146.339844c-8.523438-4.160156-18.152344-4.75-27.117188-1.664063-6.941406 2.386719-12.832031 6.765625-17.070312 12.570313-3.980469-12.378906-14.628906-22.128906-28.328125-24.265625-15.597657-2.4375-30.449219 5.738281-37.191407 19.144531-6.527343-15.355469-23.265624-24.453125-40.164062-20.796875-9.265625 2.003906-17.195312 7.5-22.332031 15.46875-5.132813 7.96875-6.859375 17.460937-4.851563 26.730469l11.609375 53.675781c-3.921875-.003906-22.027343.027344-27.164062.097656l-31.441407-10.5625c-17.9375-6.027343-36.5625-5.097656-52.945312 1.308594-1.074219-1.492187-1.878906-3.050781-2.351562-4.609375-3.480469-11.472656-.785157-27.503906 8.011718-47.652344 2.613282-5.984375 5.769532-11.859375 9.109375-18.078125 4.253907-7.914062 8.652344-16.101562 11.839844-24.554687 15.292969-40.605469-6.238281-94.710938-45.171875-113.519532-29.957031-14.464843-67.207031-11.566406-94.898438 7.394532-16.511718 11.300781-28.289062 27.09375-34.429687 44.769531h-.546875c-9.53125 0-18.75 2.71875-26.660156 7.859375-11.246094 7.308594-27.128906 21.605469-38.921875 48.191406-1.664063 3.753906-1.324219 8.042969.910156 11.476563 2.226563 3.425781 5.996094 5.46875 10.078125 5.46875h3.492188v39.003906c0 15.277344 12.429687 27.707031 27.703124 27.707031 15.277344 0 27.707032-12.429687 27.707032-27.707031v-39.003906h3.113281c3.660156 6.445312 8.101563 12.503906 13.230469 17.960937 2.082031 2.214844 12.585937 12.433594 20.257812 19.277344.640625.570312.75 1.273438.757813 1.636719.011719.371093-.066407 1.078125-.679688 1.683593-4.976562 4.902344-10.742187 10.597657-16.171875 16.136719-13.261718 13.527344-23.191406 25.03125-31.246094 36.195313-2.273437 3.144531-1.5625 7.539062 1.585938 9.808594 3.144531 2.269531 7.539062 1.558593 9.808594-1.585938 7.632812-10.578125 17.128906-21.570312 29.886718-34.582031 5.351563-5.457031 11.0625-11.101563 15.996094-15.960938 3.207032-3.15625 4.980469-7.542969 4.871094-12.039062-.113281-4.492188-2.097656-8.785157-5.453125-11.777344-7.640625-6.816406-17.742187-16.675781-19.375-18.414063-8.070313-8.589843-14.167969-18.902343-17.632813-29.824218-10.046874-31.636719 1.871094-65.667969 29.65625-84.6875 23.246094-15.914063 55.738282-18.460938 80.847657-6.332032 15.503906 7.488282 28.644531 22.492188 36.054687 41.167969 7.398438 18.65625 8.15625 38.605469 2.078125 54.742188-2.855469 7.582031-6.84375 15-11.0625 22.855469-3.328125 6.195312-6.769531 12.601562-9.613281 19.109374-10.171875 23.296876-13.058594 42.59375-8.578125 57.355469.691406 2.277344 1.753906 4.585938 3.152344 6.839844-14.882813 9.195313-26.769531 23.425781-32.765625 41.269531-13.636719 40.59375 8.292968 84.71875 48.890625 98.355469 8.109375 2.726563 16.464843 4.054687 24.75 4.054687 11.179687 0 22.320312-2.445312 32.472656-7.121093 5.339844-2.460938 10.40625-5.53125 15.054687-9.132813 29.113282-22.546875 56.96875-48.746094 85.261719-72.980468 4.46875-3.828126 6.46875-9.5625 5.34375-15.339844-1.121093-5.777344-5.125-10.34375-10.703125-12.21875l-29.730468-9.988282c19.5-.007812 106.46875-.25 132.839843-.40625 1.476563 0 2.710938 1.175782 2.761719 2.628907 1.679688 51.4375-5.351562 96.003906-20.902344 132.453125-18.503906 43.375-48.933594 74.070312-90.445312 91.238281-41.285156 17.078125-89.34375 24.707031-138.96875 22.089844-40.242188-2.128907-96.28125-12.550781-134.722656-50.109375-33.707032-32.9375-52.09375-87.828125-45.746094-136.589844 1.980468-15.203125 5.101562-27.835938 9.542968-38.621094 1.476563-3.589844-.234374-7.695312-3.824218-9.171875-3.582032-1.476562-7.691406.230469-9.171875 3.820313-4.914063 11.933594-8.339844 25.722656-10.480469 42.15625-6.890625 52.925781 13.148438 112.585937 49.859375 148.457031 41.570313 40.621094 101.144531 51.835937 143.800781 54.089844 6.621094.351562 13.214844.523437 19.773438.523437 44.664062 0 87.632812-8.078125 125.308594-23.65625 45.03125-18.625 78.003906-51.835937 98.003906-98.714844 16.359375-38.347656 23.765625-84.921874 22.015625-138.425781-.09375-2.949219-.941407-5.679687-2.339844-8.035156l9.046875-18.542969c1.703125-3.488281.253906-7.695312-3.230469-9.394531-3.488281-1.703125-7.695312-.253906-9.398437 3.234375l-8.171875 16.75c-.882813-.140625-1.78125-.234375-2.707031-.234375h-.105469c-15.464844.09375-30.832031.160156-44.898438.210937l28.386719-58.171874c2.511719-5.148438 6.878906-9.011719 12.296875-10.875 5.417969-1.863282 11.234375-1.507813 16.378906 1.007812 8.347657 4.070312 13.109375 12.984375 11.847657 22.179688-.523438 3.84375 2.164062 7.386718 6.007812 7.914062 3.847656.523438 7.390625-2.164062 7.917969-6.007812 2.085937-15.21875-5.792969-29.972657-19.609375-36.714844zm-435.175782 27.457031c0 7.53125-6.125 13.65625-13.65625 13.65625-7.527343 0-13.652343-6.125-13.652343-13.65625v-39.003906h27.308593zm-41.707031-53.058594c10.214844-21.628906 23.1875-33.28125 32.449219-39.300781 4.765625-3.097656 10.21875-4.945312 15.914062-5.441406-2.292968 13.550781-1.4375 27.746094 2.949219 41.5625.339844 1.066406.703125 2.125 1.085938 3.179687zm351.070313 143.828125c1.003906.335938 1.300781 1.136719 1.386718 1.582032.085938.445312.113282 1.296874-.691406 1.984374l-34.882812 29.875c-18.347656-1.777343-44.601563-23.40625-53.535156-31.976562-2.796876-2.6875-7.246094-2.597656-9.933594.199219-2.6875 2.800781-2.597656 7.246093.199218 9.9375.378907.363281 9.410157 9.003906 21.746094 17.734375 10.351563 7.328125 19.824219 12.460937 28.347656 15.386718l-22.460937 19.234376c-10.382813-2.429688-24.078125-11.769532-39.03125-26.726563-2.742187-2.742187-7.191406-2.742187-9.933594 0-2.746093 2.746094-2.746093 7.195313-.003906 9.9375 9.863281 9.863281 23.207031 21.355469 36.710937 27.355469-16.945312 14.207031-40.050781 18.664062-61.152343 11.574218-33.25-11.167968-51.210938-47.308593-40.042969-80.558593 8.921875-26.558594 33.769531-43.359375 60.355469-43.359375 6.699219 0 13.515625 1.066406 20.207031 3.316406zm2.675781-37.394531c-9.460937.019531-18.730469.03125-27.929687.035156l-12.253907-56.652343c-2.503906-11.554688 4.867188-22.992188 16.421875-25.492188 1.523438-.328125 3.042969-.488281 4.539063-.488281 9.875 0 18.785156 6.878906 20.953125 16.914062l4.949218 22.871094zm66.335937-55.816406-2.394531 15.347656-19.691406 40.355469c-4.070313.011718-7.964844.023437-11.640625.035156-6.246094.015625-12.359375.03125-18.382812.046875l9.734374-62.394531c1.824219-11.683594 12.816407-19.699219 24.496094-17.882813 11.679688 1.824219 19.703125 12.8125 17.878906 24.492188zm0 0"/><path d="m141.542969 65.792969c0 6.804687-5.515625 12.320312-12.320313 12.320312-6.808594 0-12.324218-5.515625-12.324218-12.320312 0-6.808594 5.515624-12.324219 12.324218-12.324219 6.804688 0 12.320313 5.515625 12.320313 12.324219zm0 0" fill="#111"/></svg>