<svg id="Capa_1" enable-background="new 0 0 513.969 513.969" height="512" viewBox="0 0 513.969 513.969" width="512" xmlns="http://www.w3.org/2000/svg"><g><g><path d="m158.242 240.352-85.195-75.653 3.765-35.557c.597-5.636-5.731-9.345-10.357-6.07l-56.169 39.766c-4.465 3.161-3.354 10.073 1.878 11.675l31.501 9.646 86.702 182.782 18.095 43.739 45.01-137.683z" fill="#f8f3f2"/><path d="m158.242 240.352-17.129-15.21-11.673 53.04c-2.022 9.187-14.529 10.609-18.561 2.109l-48.749-102.771c-3.102-6.539-8.811-11.471-15.731-13.59l-2.19-.671c-3.577-1.095-4.338-5.822-1.284-7.984l33.641-23.817.245-2.317c.597-5.636-5.731-9.345-10.357-6.07l-56.169 39.766c-4.465 3.161-3.354 10.073 1.877 11.675l31.501 9.647 86.702 182.782 18.095 43.739 45.01-137.683z" fill="#f2eae7"/><path d="m419.242 388.941h-267.179l-23.802 32.953c8.19 20.2 27.96 34.96 51.82 34.96h192.74c23.86 0 43.63-14.76 51.82-34.96z" fill="#f2eae7"/><path d="m339.059 134.973v-10.284c0-20.717 16.854-37.572 37.572-37.572h62.266c20.718 0 37.572 16.855 37.572 37.572v169.145c0 16.104-13.103 29.207-29.207 29.207h-105.627v30h105.628c32.646 0 59.207-26.56 59.207-59.207v-169.145c0-37.259-30.312-67.572-67.572-67.572h-62.266c-37.26 0-67.572 30.313-67.572 67.572v10.284 70.105h33.945z" fill="#f8f3f2"/><g><path d="m433.334 323.04h-91.699v30h98.301z" fill="#f2eae7"/></g><path d="m228.537 434.763c-24.716 0-45.195-14.76-53.679-34.96-1.46-3.475-2.555-7.113-3.264-10.862h-19.531l-23.802 32.953c8.19 20.2 27.96 34.96 51.82 34.96h192.74c18.412 0 34.395-8.8 44.495-22.097z" fill="#ede2dd"/><path d="m342.671 199.159-3.612-64.187v-10.284c0-3.36.45-6.615 1.281-9.716h-30.572c-.459 3.174-.708 6.416-.708 9.716v10.284 64.187z" fill="#f2eae7"/><path d="m427.37 388.993c2.54 11.55 1.33 22.89-2.73 32.9h-296.38c-4.06-10.01-5.27-21.35-2.73-32.9l46.18-209.83 4.65-22.1h199.35l5.48 22.1z" fill="#b3e5ee"/><path d="m206.195 217.041c2.385-10.461 11.688-17.882 22.418-17.882h152.579c1.469 0 2.918-.083 4.347-.235l-4.349-19.761-5.48-22.1h-199.35l-50.83 231.93c-2.54 11.55-1.33 22.89 2.73 32.9h63.331c-7.347-5.905-13.127-13.503-16.734-22.09-4.206-10.01-5.459-21.35-2.828-32.9z" fill="#86d7e5"/><path d="m381.192 179.159h-209.484c-11.41 0-20.66-9.25-20.66-20.66v-2.866c0-11.41 9.25-20.66 20.66-20.66h209.484c11.41 0 20.66 9.25 20.66 20.66v2.866c0 11.41-9.25 20.66-20.66 20.66z" fill="#f9f7f7"/></g><path d="m506.469 232.767c4.143 0 7.5-3.358 7.5-7.5v-100.578c0-41.395-33.678-75.072-75.072-75.072h-62.266c-41.395 0-75.072 33.677-75.072 75.072v2.784h-78.226c-4.143 0-7.5 3.358-7.5 7.5s3.357 7.5 7.5 7.5h157.858c7.257 0 13.16 5.904 13.16 13.16v2.866c0 7.256-5.903 13.16-13.16 13.16h-209.482c-7.257 0-13.16-5.904-13.16-13.16v-2.866c0-7.256 5.903-13.16 13.16-13.16h19.663c4.143 0 7.5-3.358 7.5-7.5s-3.357-7.5-7.5-7.5h-19.663c-15.527 0-28.16 12.633-28.16 28.16v2.866c0 12.379 8.033 22.91 19.156 26.675l-9.041 41.083-72.753-64.605 3.358-31.721c.591-5.576-2.048-10.801-6.885-13.636-4.838-2.836-10.685-2.584-15.265.656l-56.168 39.766c-4.418 3.128-6.628 8.391-5.768 13.734.859 5.344 4.608 9.648 9.783 11.233l28.339 8.678 19.444 40.992c1.775 3.743 6.252 5.337 9.99 3.562 3.743-1.775 5.338-6.249 3.562-9.991l-20.862-43.98c-.903-1.904-2.565-3.34-4.58-3.957l-29.726-9.103 53.006-37.527-3.552 33.55c-.255 2.408.668 4.79 2.479 6.397l81.904 72.731-22.208 100.916-42.662-89.938c-1.776-3.743-6.252-5.337-9.99-3.562-3.743 1.775-5.338 6.248-3.562 9.991l50.953 107.418-4.295 19.517c-4.147 18.843.407 38.274 12.495 53.312s30.087 23.663 49.381 23.663h192.735c19.294 0 37.292-8.625 49.38-23.662 12.089-15.037 16.644-34.469 12.497-53.312l-5.906-26.839h18.474c36.782 0 66.707-29.924 66.707-66.707v-36.603c0-4.142-3.357-7.5-7.5-7.5s-7.5 3.358-7.5 7.5v36.604c0 28.511-23.195 51.707-51.707 51.707h-21.775l-3.301-15h25.076c20.24 0 36.707-16.466 36.707-36.707v-169.145c0-24.853-20.22-45.072-45.072-45.072h-62.266c-24.853 0-45.072 20.219-45.072 45.072v2.784h-15v-2.784c0-33.124 26.948-60.072 60.072-60.072h62.266c33.124 0 60.072 26.948 60.072 60.072v100.579c0 4.141 3.358 7.499 7.5 7.499zm-86.424 157.836c1.763 8.011 1.46 16.16-.744 23.792h-285.701c-2.204-7.632-2.507-15.781-.744-23.792l44.882-203.943h197.425zm-47.227 58.75h-192.735c-14.727 0-28.464-6.583-37.69-18.061-.5-.622-.975-1.257-1.44-1.898h270.996c-.466.641-.941 1.277-1.441 1.898-9.227 11.479-22.964 18.061-37.69 18.061zm-26.259-324.664c0-16.582 13.49-30.072 30.072-30.072h62.266c16.582 0 30.072 13.49 30.072 30.072v169.145c0 11.969-9.737 21.707-21.707 21.707h-28.377l-28.69-130.366c11.124-3.765 19.156-14.297 19.156-26.675v-2.866c0-15.527-12.633-28.16-28.16-28.16h-34.633v-2.785z"/></g></svg>