<svg id="Capa_1" enable-background="new 0 0 512.091 512.091" height="512" viewBox="0 0 512.091 512.091" width="512" xmlns="http://www.w3.org/2000/svg"><g><g><path d="m401.172 433.047v-31.657c0-13.272-2.229-26.45-6.595-38.984l-9.583-27.513 16.178-265.004 3.643-34.379h-240.511v34.379 211.648c0 16.963-10.821 32.035-26.893 37.459l-94.844 32.009c-15.444 5.212-25.843 19.696-25.843 35.996v52.296 25.502h382.051z" fill="#b3e5ee"/><path d="m90.458 377.836 94.844-32.009c16.072-5.424 26.893-20.497 26.893-37.459v-198.103c0-11.253 9.122-20.376 20.376-20.376h167.381l1.221-20 3.643-34.379h-206.422-34.091v34.379 211.648c0 16.963-10.821 32.035-26.893 37.459l-94.844 32.009c-15.444 5.212-25.843 19.696-25.843 35.996v52.296 25.502h40.881 7.01 334.159l2.398-31.752v-14.667c-2.624-.626-5.357-.968-8.171-.968h-324.805c-1.977 0-3.58-1.603-3.58-3.58 0-16.3 10.398-30.783 25.843-35.996z" fill="#86d7e5"/><path d="m401.172 69.889h-236.868c-8.925 0-16.161-7.235-16.161-16.161v-17.674c0-8.925 7.235-16.161 16.161-16.161h236.869c8.925 0 16.161 7.235 16.161 16.161v17.674c-.001 8.925-7.236 16.161-16.162 16.161z" fill="#b3e5ee"/><path d="m136.127 435.412h-112.07c-8.394 0-15.198 6.805-15.198 15.198v24.376c0 8.394 6.805 15.198 15.198 15.198h22.978c.876 0 1.716-.348 2.335-.967l11.349-11.348c1.648-1.648 4.321-1.648 5.969 0l12.154 12.154c.103.103.244.161.39.161h5.094c.146 0 .287-.058.39-.161l12.154-12.154c1.648-1.648 4.321-1.648 5.969 0l12.154 12.154c.103.103.244.161.39.161h5.094c.146 0 .287-.058.39-.161l12.154-12.154c.855-.855 1.984-1.257 3.104-1.225v-41.232z" fill="#f6e2c4"/><path d="m488.43 433.053v-31.657c0-13.272-2.229-26.45-6.595-38.984l-9.583-27.513 16.178-265.004 3.643-34.379h-240.512v34.379 211.648c0 16.963-10.821 32.035-26.893 37.459l-94.844 32.009c-15.444 5.212-25.843 19.696-25.843 35.996v52.296 25.502h382.051z" fill="#b3e5ee"/><path d="m177.715 377.842 94.844-32.009c16.072-5.424 26.893-20.497 26.893-37.459v-198.103c0-11.253 9.122-20.376 20.376-20.376h167.381l1.221-20 3.643-34.379h-206.421-34.091v34.379 211.648c0 16.963-10.821 32.035-26.893 37.459l-94.844 32.009c-15.444 5.212-25.843 19.696-25.843 35.996v52.296 25.502h40.881 7.01 334.159l2.398-31.752v-14.667c-2.624-.626-5.357-.968-8.171-.968h-324.806c-1.977 0-3.58-1.603-3.58-3.58.001-16.3 10.399-30.783 25.843-35.996z" fill="#86d7e5"/><g><path d="m401.172 19.893h-176.24c-2.874 4.716-4.531 10.252-4.531 16.167v17.673c0 5.91 1.654 11.441 4.523 16.155h176.248c8.925 0 16.161-7.235 16.161-16.161v-17.673c0-8.925-7.235-16.161-16.161-16.161z" fill="#86d7e5"/><path d="m488.43 69.895h-236.869c-8.925 0-16.161-7.235-16.161-16.161v-17.674c0-8.925 7.235-16.161 16.161-16.161h236.869c8.925 0 16.161 7.235 16.161 16.161v17.674c0 8.925-7.236 16.161-16.161 16.161z" fill="#e1f5f8"/><path d="m480.259 437.419h-368.944c-8.394 0-15.198 6.805-15.198 15.198v24.376c0 8.394 6.805 15.198 15.198 15.198h22.978c.876 0 1.716-.348 2.335-.967l11.349-11.349c1.648-1.648 4.321-1.648 5.969 0l12.154 12.154c.103.103.244.162.39.162h5.094c.146 0 .287-.058.39-.162l12.154-12.154c1.648-1.648 4.321-1.648 5.969 0l12.154 12.154c.103.103.244.162.39.162h5.094c.146 0 .287-.058.39-.162l12.154-12.154c1.648-1.648 4.321-1.648 5.969 0l12.316 12.316h89.734l26.96-16.23c4.243-2.555 9.651.501 9.651 5.455v7.663c0 1.719 1.393 3.112 3.112 3.112h112.237c8.394 0 15.198-6.805 15.198-15.198v-24.376c.002-8.394-6.803-15.198-15.197-15.198z" fill="#fcf1de"/></g></g><g><path d="m68.75 429.918h-45.885v-42.911c0-13.093 8.335-24.704 20.741-28.891l94.844-32.008c19.137-6.458 31.995-24.368 31.995-44.566v-204.147h37.897c4.142 0 7.5-3.358 7.5-7.5s-3.358-7.5-7.5-7.5h-45.397c-4.775 0-8.661-3.885-8.661-8.661v-17.674c0-4.775 3.885-8.661 8.661-8.661h45.382c4.142 0 7.5-3.358 7.5-7.5s-3.358-7.5-7.5-7.5h-45.382c-13.046 0-23.661 10.614-23.661 23.661v17.674c0 10.425 6.78 19.291 16.161 22.436v205.373c0 13.757-8.757 25.955-21.792 30.353l-94.844 32.009c-18.509 6.247-30.944 23.568-30.944 43.103v48.45c-4.812 4.165-7.865 10.311-7.865 17.159v24.375c0 12.516 10.183 22.699 22.699 22.699h22.978c2.884 0 5.596-1.123 7.639-3.164l11.349-11.349c2.929-2.929 2.929-7.678 0-10.606-2.929-2.929-7.678-2.929-10.606 0l-10.119 10.119h-21.24c-4.245 0-7.699-3.454-7.699-7.699v-24.375c0-4.245 3.454-7.699 7.699-7.699h46.05c4.142 0 7.5-3.358 7.5-7.5s-3.358-7.5-7.5-7.5z"/><path d="m488.43 12.399h-30.991c-4.142 0-7.5 3.358-7.5 7.5s3.358 7.5 7.5 7.5h30.991c4.776 0 8.661 3.885 8.661 8.661v17.674c0 4.776-3.885 8.661-8.661 8.661h-236.868c-4.776 0-8.661-3.885-8.661-8.661v-17.674c0-4.775 3.885-8.661 8.661-8.661h173.915c4.142 0 7.5-3.358 7.5-7.5s-3.358-7.5-7.5-7.5h-173.915c-13.047 0-23.661 10.614-23.661 23.661v17.674c0 10.426 6.781 19.291 16.161 22.436v92.127c0 4.142 3.358 7.5 7.5 7.5s7.5-3.358 7.5-7.5v-90.902h221.397l-15.692 257.047c-.061.992.076 1.986.403 2.924l9.583 27.513c4.099 11.768 6.177 24.054 6.177 36.517v28.539c-.223-.007-.446-.017-.671-.017h-31.441c-4.142 0-7.5 3.358-7.5 7.5s3.358 7.5 7.5 7.5h31.441c4.245 0 7.699 3.454 7.699 7.699v24.375c0 4.245-3.454 7.699-7.699 7.699h-107.849v-3.276c0-4.991-2.699-9.616-7.043-12.072-4.346-2.457-9.701-2.383-13.976.192l-25.175 15.156h-84.544l-10.119-10.119c-2.214-2.214-5.157-3.433-8.288-3.433s-6.074 1.219-8.288 3.433l-9.788 9.788-9.788-9.788c-2.214-2.214-5.157-3.433-8.288-3.433s-6.075 1.219-8.288 3.433l-9.788 9.788-9.788-9.788c-4.569-4.57-12.005-4.57-16.576 0l-10.119 10.119h-21.24c-4.245 0-7.698-3.454-7.698-7.699v-24.375c0-4.245 3.454-7.699 7.698-7.699h305.541c4.142 0 7.5-3.358 7.5-7.5s-3.358-7.5-7.5-7.5h-305.374v-42.911c0-13.093 8.335-24.704 20.741-28.89l94.844-32.009c19.138-6.458 31.996-24.368 31.996-44.566v-81.284c0-4.142-3.358-7.5-7.5-7.5s-7.5 3.358-7.5 7.5v81.284c0 13.756-8.757 25.955-21.792 30.353l-94.844 32.009c-18.508 6.246-30.944 23.568-30.944 43.103v48.45c-4.812 4.165-7.865 10.31-7.865 17.159v24.375c0 12.516 10.183 22.699 22.698 22.699h22.978c2.886 0 5.599-1.124 7.639-3.164l9.03-9.03 9.835 9.835c1.521 1.521 3.542 2.358 5.693 2.358h5.094c2.126 0 4.206-.864 5.693-2.358l9.836-9.835 9.836 9.835c1.521 1.521 3.542 2.358 5.693 2.358h5.093c2.151 0 4.173-.837 5.693-2.358l9.836-9.835 9.997 9.997c1.406 1.407 3.314 2.197 5.303 2.197h89.734c1.363 0 2.701-.372 3.868-1.075l25.243-15.196v8.771c0 4.142 3.358 7.5 7.5 7.5h115.349c12.516 0 22.699-10.183 22.699-22.699v-24.375c0-6.443-2.702-12.262-7.028-16.398v-34.824c0-14.146-2.359-28.093-7.012-41.451l-9.088-26.092 15.723-257.556c9.577-3.03 16.538-11.998 16.538-22.564v-17.671c.001-13.046-10.613-23.661-23.66-23.661z"/></g></g></svg>