<svg id="Capa_1" enable-background="new 0 0 512 512" height="512" viewBox="0 0 512 512" width="512" xmlns="http://www.w3.org/2000/svg"><g><g><ellipse cx="240.07" cy="385.105" fill="#fcf1de" rx="69.153" ry="65.599"/><path d="m189.896 384.816c0-31.592 23.416-58.074 54.905-65.155-1.561-.1-3.142-.156-4.73-.156-38.193 0-69.153 29.371-69.153 65.599 0 36.23 30.961 65.599 69.153 65.599 2.269 0 4.51-.111 6.724-.313-32.498-6.385-56.899-33.314-56.899-65.574z" fill="#f6e2c4"/><g><path d="m281.436 335.049-26.607 26.771c-2.1 2.112-5.469 2.255-7.74.328l-41.054-34.833c-1.832-1.555-4.452-1.811-6.531-.609-27.153 15.702-45.699 47.247-45.699 83.607 0 52.025 37.961 94.201 84.79 94.201s84.79-42.175 84.79-94.201c0-30.971-13.456-58.447-34.224-75.616-2.289-1.889-5.633-1.752-7.725.352z" fill="#c9a291"/><g><path d="m184.169 406.421c0-28.911 11.732-54.767 30.185-72.045l-8.319-7.059c-1.832-1.555-4.452-1.811-6.531-.609-27.153 15.702-45.699 47.246-45.699 83.607 0 52.025 37.961 94.201 84.79 94.201 8.633 0 16.962-1.438 24.809-4.101-44.238-3.181-79.235-44.044-79.235-93.994z" fill="#be8f7d"/></g><path d="m311.415 97.206h-34.648v-19.48c18.233-30.503 32.566-64.169 70.242-70.242h27.261c4.079 0 7.386 3.307 7.386 7.386v12.093c0 38.795-31.448 70.243-70.241 70.243z" fill="#c5e97d"/><path d="m291.729 85.512c0-38.793 31.448-70.243 70.243-70.243h19.686v-.399c0-4.079-3.307-7.386-7.386-7.386h-27.262c-36.01 6.406-64.677 33.612-64.677 72.406l-5.566 17.317h14.962z" fill="#b1e254"/><path d="m223.688 186.447h-36.491c-35.529 0-64.331-28.802-64.331-64.331v-12.446c0-2.583 2.094-4.676 4.676-4.676h31.815c35.529 0 64.331 28.802 64.331 64.331z" fill="#c5e97d"/><path d="m144.826 122.116v-17.124h-17.284c-2.583 0-4.676 2.094-4.676 4.676v12.447c0 35.529 28.802 64.331 64.331 64.331h21.96c-35.529.001-64.331-28.8-64.331-64.33z" fill="#b1e254"/><path d="m264.404 278.53h-25.81v-11.493c0-20.867 16.916-37.782 37.782-37.782h22.229c1.978 0 3.581 1.604 3.581 3.581v7.911c0 20.867-16.916 37.783-37.782 37.783z" fill="#d8efa7"/><path d="m246.077 274.177c0-20.867 16.916-37.782 37.782-37.782h18.328v-3.558c0-1.978-1.604-3.581-3.581-3.581h-22.229c-20.867 0-37.782 16.916-37.782 37.782v11.493h7.483v-4.353h-.001z" fill="#c5e97d"/></g></g><g><path d="m193.797 386.056c-3.999-1.046-8.087 1.352-9.131 5.352-1.608 6.16-2.423 12.52-2.423 18.907 0 13.76 3.607 26.943 10.432 38.123 1.41 2.311 3.873 3.586 6.394 3.586 1.329 0 2.675-.353 3.892-1.097 3.528-2.153 4.642-6.759 2.489-10.287-5.39-8.832-8.239-19.318-8.239-30.326 0-5.111.652-10.201 1.937-15.128 1.045-3.998-1.352-8.086-5.351-9.13z"/><path d="m381.748 0h-27.261c-12.627 0-25.182 3.112-36.309 9.002-3.653 1.934-5.047 6.463-3.113 10.116 1.933 3.652 6.46 5.047 10.116 3.113 9.105-4.82 18.965-7.263 29.306-7.263h27.164v11.996c0 34.605-28.153 62.759-62.759 62.759h-27.164v-3.863-8.134c0-13.281 4.111-25.983 11.889-36.733 2.423-3.349 1.672-8.028-1.676-10.451-3.348-2.422-8.027-1.672-10.451 1.676-9.637 13.319-14.731 29.055-14.731 45.507v8.134 11.347 21.693c0 17.127-4.932 33.768-14.266 48.128l-20.458 31.476c-2.29-5.109-5.517-9.809-9.595-13.886l-1.27-1.27v-14.023c0-21.558-9.56-41.783-26.228-55.49-3.194-2.624-7.908-2.165-10.535 1.027-2.625 3.192-2.165 7.909 1.027 10.535 13.198 10.853 20.768 26.865 20.768 43.929v9.639h-29.007c-31.345 0-56.847-25.502-56.847-56.847v-9.639h29.007c3.447 0 6.961.328 10.445.975 4.061.754 7.969-1.927 8.724-5.992.754-4.063-1.929-7.97-5.992-8.724-4.383-.813-8.815-1.226-13.177-1.226h-31.815c-6.706 0-12.161 5.455-12.161 12.16v12.448c0 39.6 32.215 71.815 71.815 71.815h33.392l1.27 1.27c5.966 5.966 9.251 13.897 9.251 22.333v98.097c-7.324.691-14.485 2.396-21.4 5.103-4.143-2.792-9.577-3.039-13.953-.508-30.493 17.633-49.436 52.152-49.436 90.085 0 56.069 41.393 101.685 92.274 101.685s92.274-45.616 92.274-101.685c0-.237-.004-.472-.009-.708l-.005-.333c-.037-4.11-3.381-7.417-7.483-7.417-.022 0-.046 0-.068 0-4.133.037-7.454 3.418-7.417 7.551l.014.907c0 47.815-34.679 86.717-77.306 86.717s-77.306-38.901-77.306-86.717c0-32.144 15.623-61.319 40.861-76.48l40.097 34.022c5.214 4.424 13.072 4.09 17.891-.759l25.458-25.614c11.624 10.001 20.43 23.358 25.508 38.727 1.296 3.925 5.524 6.057 9.455 4.758 3.925-1.296 6.054-5.53 4.758-9.454-6.137-18.573-16.991-34.682-31.387-46.582-4.002-3.31-9.338-3.915-13.795-1.926-10.508-6.363-22.089-10.221-34.056-11.36v-29.632h18.326c24.96 0 45.266-20.307 45.266-45.266v-7.911c0-6.102-4.964-11.065-11.065-11.065h-22.229c-11.642 0-22.271 4.42-30.298 11.668v-13.684l28.966-44.57c10.915-16.793 16.685-36.256 16.685-56.284v-14.209h27.164c42.858 0 77.727-34.868 77.727-77.727v-12.095c0-8.2-6.67-14.871-14.87-14.871zm-131.07 355.38-27.41-23.257c5-1.239 10.121-1.88 15.325-1.88 10.344 0 20.49 2.52 29.788 7.324zm25.697-118.642h18.326v4.008c0 16.706-13.591 30.298-30.298 30.298h-18.326v-4.008c.001-16.705 13.592-30.298 30.298-30.298z"/></g></g></svg>