<svg id="Capa_1" enable-background="new 0 0 510.078 510.078" height="512" viewBox="0 0 510.078 510.078" width="512" xmlns="http://www.w3.org/2000/svg"><g><g><path d="m400.489 7.499h-290.9c-16.59 0-30.05 13.45-30.05 30.05v34.7l27.221 23.164h309.531l14.247-23.164v-34.7c.001-16.6-13.459-30.05-30.049-30.05z" fill="#b3e5ee"/><path d="m420.632 158.351 6.967 11.046c11.213 17.778 17.163 38.368 17.163 59.387v223.198c0 27.943-22.653 50.596-50.596 50.596h-278.255c-27.943 0-50.596-22.653-50.596-50.596v-223.198c0-21.019 5.95-41.608 17.163-59.387l6.967-11.046 38.675-60.387h258.868z" fill="#fcf0b6"/><g><path d="m255.539 254.676c0 10.235 8.298 18.533 18.533 18.533 10.235 0 18.533-8.298 18.533-18.533v-38.505c0-9.112 7.387-16.499 16.499-16.499 9.112 0 16.499 7.387 16.499 16.499v2.217c0 9.205 7.462 16.667 16.667 16.667 9.205 0 16.667-7.462 16.667-16.667v-122.975h-103.398z" fill="#fbe88c"/><path d="m171.657 465.663c-27.943 0-50.596-21.111-50.596-47.153v-208.011c0-14.579 3.307-28.932 9.619-42.152 1.752-3.669 6.331-5.123 9.783-2.975.021.013.043.027.064.04l11.218 7.022c11.871 7.442 25.551 11.375 39.561 11.375 11.759 0 23.508-2.836 33.988-8.208l20.525-10.538c2.84-1.457 6.028-2.227 9.22-2.227 3.191 0 6.38.77 9.215 2.225l20.542 10.546c10.47 5.366 22.22 8.203 33.978 8.202 14.011-.001 27.69-3.935 39.547-11.368l11.252-7.043c3.214-2.018 6.922-3.084 10.722-3.084 3.271 0 6.529.807 9.419 2.332l21.586 11.394c6.704 3.536 13.829 5.329 21.178 5.329.548 0 1.113-.03 1.659-.051-1.927-4.086-4.111-8.074-6.537-11.921l-6.967-11.047-33.644-60.387h-209.571-19.848-29.449l-38.675 60.387-6.966 11.046c-11.213 17.779-17.164 38.368-17.164 59.388v223.198c0 27.943 22.653 50.596 50.596 50.596h278.255c23.201 0 42.74-15.621 48.709-36.915z" fill="#fbe88c"/><path d="m255.539 162.852c3.023.076 6.028.831 8.715 2.21l20.542 10.546c10.47 5.366 22.22 8.203 33.978 8.202 14.011-.001 27.69-3.935 39.547-11.368l.616-.386v-74.093h-103.398z" fill="#fbe372"/><path d="m109.442 72.249v-34.7c0-16.6 13.46-30.05 30.05-30.05h-29.904c-16.59 0-30.05 13.45-30.05 30.05v34.7l21.43 18.236z" fill="#86d7e5"/><path d="m455.249 125.429c10.18 21.89-13.27 44.18-34.62 32.92l-21.58-11.39c-12.68-6.69-27.97-6.12-40.11 1.5l-11.23 7.03c-16.27 10.2-36.7 11.08-53.79 2.32l-20.53-10.54c-11.52-5.91-25.18-5.91-36.7 0l-20.53 10.54c-17.09 8.76-37.52 7.88-53.79-2.32l-11.23-7.03c-12.14-7.62-27.43-8.19-40.11-1.5l-21.58 11.39c-21.35 11.26-44.8-11.03-34.62-32.92l24.71-53.18h351z" fill="#e1f5f8"/><path d="m274.072 388.285c-10.236 0-18.533-8.298-18.533-18.533v-42.427c0-10.236 8.298-18.533 18.533-18.533 10.235 0 18.533 8.297 18.533 18.533v42.427c0 10.235-8.298 18.533-18.533 18.533z" fill="#fbe88c"/></g><path d="m455.249 125.429-.303-.652c-5.939 11.526-20.557 18.212-34.317 10.956l-21.58-11.39c-12.68-6.69-27.97-6.12-40.11 1.5l-11.23 7.03c-16.27 10.2-36.7 11.08-53.79 2.32l-20.53-10.54c-11.52-5.91-25.18-5.91-36.7 0l-20.53 10.54c-17.09 8.76-37.52 7.88-53.79-2.32l-11.23-7.03c-12.14-7.62-27.43-8.19-40.11-1.5l-21.58 11.39c-.023.012-.047.025-.07.037-3.426 1.794-7.315-1.382-6.443-5.15.398-1.721.991-3.457 1.797-5.191l24.71-53.18h-29.904l-24.407 52.528-.303.652c-10.18 21.89 13.27 44.18 34.62 32.92l21.58-11.39c12.68-6.69 27.97-6.12 40.11 1.5l11.23 7.03c16.27 10.2 36.7 11.08 53.79 2.32l20.53-10.54c11.52-5.91 25.18-5.91 36.7 0l20.53 10.54c17.09 8.76 37.52 7.88 53.79-2.32l11.23-7.03c12.14-7.62 27.43-8.19 40.11-1.5l21.58 11.39c21.35 11.26 44.8-11.03 34.62-32.92z" fill="#b3e5ee"/></g><g><path d="m462.053 122.272-24.019-51.676v-33.05c0-20.703-16.843-37.546-37.546-37.546h-28.186c-4.143 0-7.5 3.358-7.5 7.5s3.357 7.5 7.5 7.5h28.186c12.432 0 22.546 10.114 22.546 22.545v27.208h-260.358c-4.143 0-7.5 3.358-7.5 7.5s3.357 7.5 7.5 7.5h263.074l22.7 48.841c3.951 8.502.6 16.058-3.855 20.293-4.455 4.237-12.171 7.204-20.462 2.83l-21.587-11.388c-14.992-7.91-33.229-7.231-47.593 1.773l-11.224 7.036c-13.957 8.749-31.729 9.512-46.384 1.995l-20.534-10.534c-13.633-6.994-29.911-6.994-43.544 0l-20.536 10.534c-14.653 7.517-32.427 6.753-46.383-1.995l-11.224-7.036c-14.364-9.005-32.602-9.684-47.593-1.773l-21.587 11.388c-8.291 4.375-16.007 1.407-20.462-2.83-4.455-4.236-7.807-11.792-3.854-20.293l22.699-48.841h43.793c4.143 0 7.5-3.358 7.5-7.5s-3.357-7.5-7.5-7.5h-41.076v-27.208c0-12.431 10.114-22.545 22.546-22.545h230.751c4.143 0 7.5-3.358 7.5-7.5s-3.357-7.5-7.5-7.5h-230.751c-20.703 0-37.546 16.843-37.546 37.545v33.05l-24.018 51.676c-6.015 12.939-3.22 27.654 7.121 37.486 5.423 5.157 12.085 8.151 19.013 8.893-10.701 18.231-16.345 38.937-16.345 60.132v223.199c0 32.034 26.062 58.096 58.097 58.096h278.254c32.034 0 58.097-26.062 58.097-58.096v-54.803c0-4.142-3.357-7.5-7.5-7.5s-7.5 3.358-7.5 7.5v54.803c0 23.763-19.333 43.096-43.097 43.096h-278.254c-23.764 0-43.097-19.333-43.097-43.096v-223.197c0-19.63 5.535-38.783 16.007-55.386l5.897-9.35 19.813-10.452c10.277-5.423 22.78-4.957 32.626 1.216l11.224 7.036c9.987 6.261 21.454 9.422 32.944 9.422 9.693 0 19.405-2.251 28.252-6.79l20.536-10.534c2.532-1.299 5.199-2.234 7.925-2.829v28.282c0 4.142 3.357 7.5 7.5 7.5s7.5-3.358 7.5-7.5v-28.051c2.378.598 4.704 1.458 6.926 2.598l20.534 10.534c19.244 9.871 42.563 8.916 60.938-2.475v56.384c0 5.055-4.112 9.167-9.167 9.167-5.054 0-9.166-4.112-9.166-9.167v-2.217c0-13.233-10.767-23.999-24-23.999-13.232 0-23.998 10.766-23.998 23.999v38.505c0 6.083-4.949 11.033-11.033 11.033s-11.033-4.95-11.033-11.033v-43.315c0-4.142-3.357-7.5-7.5-7.5s-7.5 3.358-7.5 7.5v43.315c0 14.355 11.679 26.033 26.033 26.033s26.033-11.678 26.033-26.033v-38.505c0-4.962 4.036-8.999 8.998-8.999 4.963 0 9 4.037 9 8.999v2.217c0 13.326 10.841 24.167 24.166 24.167 13.326 0 24.167-10.841 24.167-24.167v-65.479c9.193-4.289 20.019-4.109 29.11.687l19.812 10.452 5.897 9.35c10.472 16.603 16.007 35.755 16.007 55.386v136.433c0 4.142 3.357 7.5 7.5 7.5s7.5-3.358 7.5-7.5v-136.434c0-21.196-5.644-41.901-16.346-60.133 6.928-.742 13.591-3.736 19.014-8.893 10.34-9.832 13.135-24.547 7.122-37.486z"/><path d="m274.072 301.292c-14.354 0-26.033 11.678-26.033 26.033v42.427c0 14.354 11.679 26.033 26.033 26.033s26.033-11.678 26.033-26.033v-42.427c0-14.355-11.678-26.033-26.033-26.033zm11.033 68.46c0 6.083-4.949 11.033-11.033 11.033s-11.033-4.949-11.033-11.033v-42.427c0-6.083 4.949-11.033 11.033-11.033s11.033 4.95 11.033 11.033z"/></g></g></svg>