<svg id="Capa_1" enable-background="new 0 0 510.248 510.248" height="512" viewBox="0 0 510.248 510.248" width="512" xmlns="http://www.w3.org/2000/svg"><g><g><path d="m321.499 110.603 8.787-1.966c41.51-9.29 73.788-41.94 82.6-83.554l.837-3.953c.49-2.314-1.397-4.443-3.753-4.234l-36.659 3.251c-32.192 2.853-61.774 18.878-81.75 44.282l-17.791 22.626-33.227 40.774z" fill="#b1e254"/><g><path d="m223.289 146.196c-2.532 0-5.002-1.282-6.414-3.602-2.153-3.539-1.031-8.153 2.508-10.306l56.37-34.303 89.049-56.254c3.501-2.211 8.134-1.166 10.346 2.335s1.167 8.134-2.335 10.346l-89.102 56.288c-.035.022-.071.044-.106.066l-56.423 34.335c-1.22.742-2.565 1.095-3.893 1.095z" fill="#a5d44d"/></g><path d="m353.667 129.634c74.35 31.986 125.543 99.026 125.543 176.562 0 108.552-100.326 196.552-224.085 196.552s-224.086-87.999-224.086-196.551c0-77.537 51.193-144.577 125.543-176.562l51.918-19.031h93.003z" fill="#ea9a98"/><path d="m408.31 194.695-.602-4.385c-1.748-12.736-5.451-25-10.929-36.404-13.198-9.453-27.664-17.625-43.113-24.271l-52.164-19.031h-66.288l-.675 12.461-44.365 8.773-27.805 13.617c16.13-13.239 34.489-24.416 54.535-33.04l4.943-1.812h-13.348l-51.918 19.031c-74.349 31.986-125.542 99.026-125.542 176.563 0 108.552 100.326 196.552 224.085 196.552 35.483 0 69.033-7.231 98.851-20.109-12.518 1.903-25.389 2.89-38.527 2.89-123.759 0-224.085-87.999-224.085-196.552 0-18.568 2.939-36.532 8.428-53.558 3.161-9.805 13.749-14.912 23.577-11.825 1.588.499 3.12.803 4.492.803 5.864 0 11.641-2.033 16.268-5.725l35.993-28.725c4.262-3.401 9.541-5.403 14.993-5.333 9.983.128 18.624 6.588 21.56 16.157l11.51 37.505c3.707 12.08 14.86 20.59 27.494 20.347 12.143-.234 22.632-8.122 26.209-19.776l11.686-38.075c2.966-9.666 11.752-16.159 21.862-16.159 5.163 0 10.229 1.774 14.265 4.994l36.42 29.067c4.627 3.692 10.405 5.725 16.27 5.724 7.571 0 14.775-3.283 19.765-9.005 4.94-5.666 7.183-13.21 6.155-20.699z" fill="#e5827f"/><path d="m247.48 232.979-11.686-38.076c-5.525-18.002-22.151-30.291-40.982-30.291-9.717 0-19.145 3.301-26.74 9.362l-36.42 29.066c-4.327 3.453-10.653-.142-9.9-5.627l.602-4.384c6.974-50.809 50.386-88.67 101.671-88.67h6.518c3.277 0 5.934-2.657 5.934-5.934v-46.692l-11.562-24.927c-4.177-9.006 2.4-19.306 12.328-19.306h35.763c9.928 0 16.505 10.3 12.327 19.306l-11.562 24.927v46.693c0 3.277 2.657 5.934 5.934 5.934h6.518c51.285 0 94.698 37.861 101.671 88.67l.602 4.384c.753 5.485-5.573 9.08-9.9 5.627l-36.42-29.066c-7.595-6.061-17.023-9.362-26.74-9.362-18.831 0-35.457 12.289-40.982 30.291l-11.686 38.076c-2.312 7.532-12.976 7.532-15.288-.001z" fill="#c5e97d"/></g><g><path d="m467.39 224.467c-1.842-3.709-6.342-5.224-10.053-3.382-3.71 1.842-5.224 6.343-3.382 10.053 11.781 23.728 17.754 48.98 17.754 75.058 0 104.244-97.16 189.052-216.585 189.052-41.155 0-81.194-10.123-115.787-29.275-33.536-18.566-60.594-44.758-78.25-75.742-2.05-3.599-6.631-4.853-10.229-2.804-3.599 2.051-4.854 6.631-2.804 10.229 19.019 33.377 48.071 61.539 84.017 81.439 36.811 20.38 79.362 31.152 123.052 31.152 61.676 0 119.705-21.106 163.397-59.43 43.971-38.569 68.188-89.93 68.188-144.622.001-28.411-6.499-55.908-19.318-81.728z"/><path d="m48.23 362.267c-6.431-18.087-9.691-36.952-9.691-56.07 0-35.875 11.57-70.786 33.46-100.958 14.786-20.38 33.805-37.986 55.946-52.021-6.667 11.913-11.135 25.046-13.022 38.792l-.602 4.384c-.763 5.555 1.895 10.935 6.769 13.706 4.875 2.771 10.857 2.301 15.239-1.197l36.42-29.066c6.242-4.981 14.077-7.724 22.062-7.724 15.636 0 29.224 10.043 33.812 24.992l11.686 38.075c2.01 6.549 7.963 10.949 14.814 10.949s12.804-4.4 14.814-10.949l11.686-38.075c4.588-14.948 18.176-24.992 33.812-24.992 7.985 0 15.82 2.743 22.062 7.724l36.42 29.066c4.385 3.498 10.366 3.967 15.239 1.196 4.875-2.771 7.532-8.15 6.769-13.705l-.602-4.385c-1.888-13.757-6.362-26.899-13.038-38.82 22.017 13.96 40.949 31.461 55.703 51.699 1.468 2.014 3.751 3.083 6.067 3.083 1.532 0 3.079-.468 4.412-1.44 3.347-2.44 4.083-7.132 1.643-10.479-22.783-31.25-54.734-56.41-92.437-72.839-4.544-3.876-9.365-7.357-14.418-10.417 38.758-12.931 68.393-45.666 76.968-86.158l.837-3.955c.72-3.402-.227-6.988-2.534-9.59-2.307-2.603-5.751-3.976-9.22-3.667l-36.66 3.25c-6.368.565-12.741 1.63-18.943 3.165-4.021.995-6.474 5.062-5.479 9.082.995 4.021 5.063 6.475 9.082 5.479 5.457-1.351 11.063-2.287 16.666-2.784l31.289-2.774c-8.58 38.009-38.516 67.95-76.613 76.476l-6.742 1.509c-5.999-2.055-12.177-3.59-18.472-4.586l69.378-43.827c3.502-2.212 4.548-6.845 2.335-10.346s-6.845-4.547-10.346-2.335l-83.53 52.768v-4.853l16.187-20.585c8.792-11.181 19.521-20.425 31.89-27.477 3.598-2.052 4.852-6.632 2.801-10.23-2.052-3.598-6.631-4.852-10.23-2.801-14.06 8.016-26.256 18.525-36.251 31.236l-4.396 5.59v-11.995l10.866-23.425c3.045-6.564 2.538-14.124-1.356-20.223-3.896-6.099-10.541-9.74-17.777-9.74h-35.763c-7.236 0-13.881 3.641-17.775 9.74s-4.401 13.659-1.356 20.223l10.866 23.426v43.471h-4.952c-26.212 0-51.528 9.361-71.451 26.353-37.869 16.501-69.916 41.791-92.716 73.217-23.76 32.75-36.319 70.707-36.319 109.767 0 20.835 3.552 41.39 10.557 61.095 1.092 3.073 3.982 4.99 7.067 4.99.834 0 1.682-.14 2.512-.435 3.903-1.389 5.942-5.678 4.555-9.58zm175.795-250.407h6.519c7.407 0 13.434-6.026 13.434-13.434v-46.693c0-1.09-.238-2.167-.696-3.156l-11.562-24.927c-1.267-2.732-.148-4.993.392-5.839.54-.845 2.121-2.812 5.132-2.812h35.763c3.011 0 4.592 1.967 5.132 2.812.54.846 1.659 3.107.392 5.839l-11.562 24.927c-.458.989-.696 2.066-.696 3.156v46.693c0 7.407 6.026 13.434 13.434 13.434h6.519c22.991 0 45.196 8.322 62.523 23.434 17.328 15.111 28.592 35.978 31.718 58.755l.136.996-33.746-26.933c-8.889-7.093-20.046-11-31.418-11-22.268 0-41.619 14.303-48.152 35.59l-11.686 38.075c-.069.226-.107.351-.474.351s-.405-.125-.474-.351l-11.686-38.075c-6.533-21.288-25.884-35.59-48.152-35.59-11.372 0-22.53 3.907-31.418 11l-33.746 26.932.136-.995c3.126-22.778 14.391-43.645 31.718-58.756 17.325-15.111 39.529-23.433 62.52-23.433z"/></g></g></svg>