<svg id="Capa_1" enable-background="new 0 0 510.129 510.129" height="512" viewBox="0 0 510.129 510.129" width="512" xmlns="http://www.w3.org/2000/svg"><g><g><path d="m223.65 363.873-2.565 6.376v28.339c0 6.533-5.296 11.829-11.83 11.829h-38.52v-99.982h87.547l-3.02 27.587z" fill="#fcf1de"/><g><path d="m384.869 410.417c-5.672 0-10.27-4.598-10.27-10.27v-4.119c0-3.162 1.457-6.148 3.949-8.095l8.594-6.711v-26.075-44.713h54.389v99.982h-56.662z" fill="#fcf1de"/><g id="XMLID_223_"><g><path d="m221.085 375.892v-5.643l2.565-6.376 31.612-25.85 3.02-27.587h-87.547v99.982h24.93c2.004-3.489 3.157-7.526 3.157-11.83v-11.313c0-6.481 5.36-11.639 11.838-11.473 2.74.07 5.479.106 8.212.106.738-.001 1.476-.011 2.213-.016z" fill="#f6e2c4"/><path d="m441.532 310.435h-54.389v44.713 13.187c5.846 2.472 11.926 4.466 18.2 5.944l2.99.704c3.66.861 5.314 5.128 3.191 8.231l-2.231 3.261c-2.095 3.056-3.201 6.632-3.201 10.343v7.3c0 2.216.416 4.332 1.141 6.3h34.299z" fill="#f6e2c4"/><path d="m355.893 331.487-4.71 2.59c-41.75 19.84-86.97 29.83-132.31 29.83-9.65 0-19.32-.45-28.95-1.36l-3.1 7.7v28.34c0 6.53-5.29 11.83-11.83 11.83h-27.07c-6.32 0-11.45-5.12-11.45-11.45v-6.12c0-2.85 1.07-5.59 2.98-7.7l7.41-8.15 2-21.14c-12.07-2.82-24.03-6.36-35.79-10.66l-65.78-24.05h-33.81c-3.3 0-5.98-2.68-5.98-5.99v-40.12c0-3.303 2.677-5.98 5.98-5.98h10.38c3.4 0 6.33-2.4 7.01-5.73l1.36-6.71c4.2-20.61 14.74-39.39 30.14-53.71l4.29-3.98 7.035-22.905c.78-2.54 3.72-3.694 6.02-2.363l21.356 12.358c2.138 1.237 4.727 1.415 7.014.482l187.885-76.641c16.88-6.89 34.32-10.14 51.47-10.14 54.77 0 106.55 33.23 127.39 87.6 14.89 38.83 11.25 82.33-9.89 118.14l-2.27 3.85v91.39c0 5.368-4.352 9.72-9.72 9.72h-28.56c-3.479 0-6.3-2.821-6.3-6.3v-7.3c0-1.27.38-2.51 1.1-3.56l9.6-14.03-2.47-12.34-18.23-4.29c-20.64-4.861-38.7-15.941-52.2-31.111z" fill="#fcf1de"/></g><g><g id="XMLID_224_"><g><g><path d="m143.078 409.331c1.473.69 3.111 1.086 4.844 1.086h4.347z" fill="#f3c9c7"/><path d="m204.755 308.652-60.396-5.975c-3.956 5.524-7.237 11.471-9.57 17.612-3.047 8.021-12.061 12.028-20.153 9.178l-24.801-8.736c-23.769-8.372-38.422-32.251-35.123-57.234l1.924-14.564c4.2-20.61 14.74-39.39 30.14-53.71 2.81-2.607 4.883-5.91 6.008-9.574l1.155-3.76-14.221-8.229c-2.3-1.331-5.24-.177-6.02 2.364l-7.035 22.905-4.29 3.98c-15.4 14.32-25.94 33.1-30.14 53.71l-1.36 6.71c-.68 3.33-3.61 5.73-7.01 5.73h-10.38c-3.303 0-5.98 2.677-5.98 5.98v40.12c0 3.31 2.68 5.99 5.98 5.99h33.81l65.78 24.05c6.343 2.319 12.748 4.403 19.193 6.286.001.006.003.011.004.017.953.278 12.155 3.32 16.593 4.357l-.172 1.823 41.23 4.873.002-.005c5.238.495 10.478.853 15.729 1.078l4.255-10.563c5.551-13.784.185-30.909-5.152-44.413z" fill="#f6e2c4"/></g><path d="m204.993 296.027v4.96c0 15.92-3.05 31.7-9 46.47l-6.07 15.09-3.1 7.7v28.34c0 6.53-5.29 11.83-11.83 11.83h-27.07c-6.32 0-11.45-5.12-11.45-11.45v-6.12c0-2.85 1.07-5.59 2.98-7.7l7.41-8.15 2-21.14.07-.71-.23-.73c-5.98-18.55-7.14-38.32-3.37-57.44l1.01-5.1z" fill="#fcf1de"/></g></g></g></g></g></g><g><path d="m506.172 138.729c-3.661-5.774-9.352-9.773-16.024-11.261-6.67-1.488-13.522-.287-19.29 3.384l-15.594 9.925c-12.235-13.832-27.128-25.285-44.043-33.635-3.713-1.833-8.212-.31-10.046 3.405-1.833 3.714-.309 8.211 3.405 10.045 29.143 14.386 51.605 39.036 63.251 69.407 14.151 36.911 10.745 77.605-9.348 111.65l-2.271 3.85c-.681 1.155-1.04 2.471-1.04 3.811v29.855c0 4.142 3.357 7.5 7.5 7.5s7.5-3.358 7.5-7.5v-27.808l1.23-2.085c22.43-38.006 26.233-83.437 10.435-124.644-4.402-11.481-10.193-22.226-17.186-32.046l14.262-9.077c2.382-1.516 5.214-2.013 7.971-1.398s5.108 2.268 6.621 4.654c2.688 4.239 2.005 9.832-1.627 13.298l-4.196 4.005c-2.996 2.86-3.106 7.607-.246 10.604 1.474 1.544 3.448 2.322 5.426 2.322 1.861 0 3.725-.688 5.178-2.075l4.196-4.005c8.786-8.388 10.442-21.922 3.936-32.181z"/><path d="m80.094 325.153-30.222-11.048c-.825-.302-1.696-.456-2.575-.456h-32.297v-37.094h8.858c6.939 0 12.98-4.936 14.364-11.737l1.363-6.705c3.902-19.192 13.549-36.383 27.896-49.715l4.281-3.978c.966-.896 1.678-2.032 2.064-3.291l5.799-18.863 21.084 12.203c2.008 1.163 4.441 1.329 6.59.453l191.504-78.12c24.64-10.052 51.331-12.251 77.188-6.36 4.036.92 8.059-1.608 8.979-5.646s-1.607-8.059-5.646-8.979c-28.873-6.578-58.677-4.125-86.186 7.097l-188.098 76.73-26.057-15.081c-1.979-1.145-4.37-1.326-6.496-.491-2.128.835-3.758 2.594-4.43 4.778l-7.977 25.95-2.809 2.609c-16.656 15.477-27.854 35.434-32.385 57.714l-1.308 6.431h-10.091c-7.436.001-13.487 6.051-13.487 13.488v40.12c0 7.437 6.051 13.487 13.487 13.487h32.481l28.975 10.592c.85.311 1.72.458 2.574.458 3.06 0 5.934-1.886 7.045-4.927 1.422-3.89-.578-8.197-4.468-9.619z"/><path d="m462.671 363.629c-4.143 0-7.5 3.358-7.5 7.5v29.564c0 1.227-.998 2.224-2.225 2.224h-27.356v-5.73l9.39-13.724c1.141-1.667 1.561-3.725 1.164-5.706l-2.469-12.345c-.576-2.879-2.778-5.158-5.637-5.83l-18.226-4.288c-36.954-8.695-64.719-38.534-70.734-76.017-.656-4.09-4.5-6.875-8.594-6.217-4.09.656-6.873 4.504-6.217 8.594 2.825 17.601 9.784 33.748 19.907 47.407-44.885 20.58-94.193 29.768-143.47 26.787l2.249-5.589c6.331-15.737 9.541-32.316 9.541-49.275v-4.958c0-4.142-3.357-7.5-7.5-7.5s-7.5 3.358-7.5 7.5v4.958c0 15.032-2.846 29.728-8.457 43.676l-9.169 22.788c-.358.89-.542 1.84-.542 2.8v28.339c0 2.387-1.942 4.33-4.329 4.33h-27.075c-2.176 0-3.945-1.77-3.945-3.945v-6.126c0-.983.364-1.926 1.026-2.654l7.405-8.146c1.091-1.2 1.763-2.721 1.917-4.335l2.076-21.854c.096-1.016-.016-2.041-.329-3.012l-.234-.726c-5.569-17.297-6.657-35.864-3.146-53.693l1.005-5.103c.801-4.064-1.846-8.008-5.909-8.808-4.062-.796-8.007 1.846-8.808 5.91l-1.005 5.103c-3.25 16.501-3.035 33.556.558 49.943-7.755-2.146-15.417-4.589-22.889-7.32l-5.383-1.968c-3.886-1.421-8.197.579-9.619 4.468-1.423 3.89.578 8.197 4.469 9.62l5.383 1.968c9.853 3.602 20.017 6.735 30.294 9.358l-1.16 12.209-5.725 6.297c-3.177 3.495-4.927 8.021-4.927 12.743v6.126c0 10.446 8.499 18.945 18.945 18.945h61.333c10.658 0 19.33-8.671 19.33-19.33v-26.887l.182-.453c43.375-1.36 86.161-11.644 125.569-30.37 7.412 7.454 15.923 13.831 25.307 18.886v17.8l-5.711 4.459c-4.343 3.392-6.833 8.496-6.833 14.006v4.119c0 9.798 7.972 17.77 17.77 17.77h68.077c9.498 0 17.225-7.727 17.225-17.224v-29.564c.001-4.142-3.357-7.5-7.499-7.5zm-253.416 39.288h-15.435c.321-1.394.507-2.839.507-4.33v-26.887l.5-1.243c6.253.48 12.508.782 18.759.89v27.239c-.001 2.389-1.943 4.331-4.331 4.331zm172.845-2.77v-4.119c0-.859.389-1.655 1.064-2.183l8.595-6.71c1.82-1.421 2.885-3.602 2.885-5.912v-14.788c3.81 1.359 7.725 2.517 11.733 3.46l13.534 3.184.904 4.521-7.813 11.42c-1.578 2.305-2.412 4.999-2.412 7.792v6.104h-25.721c-1.527.001-2.769-1.241-2.769-2.769z"/></g></g></svg>