<svg id="Capa_1" enable-background="new 0 0 511.67 511.67" height="512" viewBox="0 0 511.67 511.67" width="512" xmlns="http://www.w3.org/2000/svg"><g><g><circle cx="309.892" cy="301.217" fill="#f3b658" r="32.914"/><circle cx="361.761" cy="265.865" fill="#f5c374" r="58.07"/><path d="m326.218 263.245c0-25.826 16.877-47.721 40.19-55.266-1.531-.121-3.085-.183-4.647-.183-32.071 0-58.07 25.999-58.07 58.069 0 32.071 25.999 58.07 58.07 58.07 6.245 0 12.254-.997 17.891-2.821-29.902-2.365-53.434-27.361-53.434-57.869z" fill="#f3b658"/><g><g id="XMLID_226_"><g><path d="m201.255 236.934 55.08 98.14-59.89 53.22-49.1-84.97-43.35-81.41c-4.78-8.97-7.22-18.92-7.22-28.93 0-5.04.62-10.1 1.87-15.06 3.65-14.47 16.63-23.91 30.67-23.91 3.55 0 7.16.6 10.71 1.88 14.38 5.17 26.33 15.5 33.51 28.99z" fill="#f8deb6"/></g></g></g><path d="m171.047 298.035-43.35-81.41c-4.78-8.97-7.22-18.92-7.22-28.93 0-5.04.62-10.1 1.87-15.06 1.94-7.691 6.53-13.939 12.5-18.126-1.849-.331-3.699-.495-5.532-.495-14.04 0-27.02 9.44-30.67 23.91-1.25 4.96-1.87 10.02-1.87 15.06 0 10.01 2.44 19.96 7.22 28.93l43.35 81.41 49.1 84.97 17.68-15.711z" fill="#f7d8a4"/><path d="m316.651 269.078c.085 1.318.144 2.642.144 3.981 0 11.019-2.939 21.346-8.052 30.266l-18.03 26.539h-71.855l-15.93-26.539c-5.114-8.92-8.052-19.247-8.052-30.266 0-1.47.071-2.922.173-4.366l3.381-16.982 35.223-30.848h48.608l29.235 34.461z" fill="#ea9a98"/><g><g id="XMLID_225_"><g><path d="m485.455 303.324v26.54h-30v-26.54-66.2c0-110.07-89.55-199.62-199.62-199.62s-199.62 89.55-199.62 199.62v66.2 24.06h-30v-24.06-66.2c0-63.41 25.7-120.82 67.25-162.37s98.96-67.25 162.37-67.25c126.82 0 229.62 102.8 229.62 229.62z" fill="#fcf1de"/></g></g></g><path d="m23.759 339.302 17.678 104.462c5.902 34.878 36.113 60.406 71.487 60.406h285.822c35.374 0 65.584-25.527 71.487-60.406l17.678-104.462 3.886-24.386h-475.291z" fill="#d3b5a8"/><g><path d="m58.789 314.916h-1.678-40.605l7.253 24.386 17.678 104.462c5.902 34.878 36.113 60.406 71.487 60.406h285.822c24.057 0 45.717-11.793 58.976-30.319-7.613 2.703-15.778 4.159-24.246 4.159h-285.822c-35.374 0-65.585-25.527-71.487-60.406l-8.258-48.799c-1.284-7.585 4.562-14.504 12.255-14.504h405.208l2.538-15 3.886-24.386h-433.007z" fill="#c9a291"/><path d="m316.651 269.078-5.157-13.754-29.235-34.461h-24.869-23.739l-35.223 30.848-3.381 16.982c-.102 1.444-.173 2.896-.173 4.366 0 11.019 2.939 21.346 8.052 30.266l15.93 26.539h23.739l-15.93-26.539c-4.241-7.398-6.987-15.765-7.8-24.691-.312-3.421 1.289-6.74 4.112-8.699l3.449-2.394c2.936-2.038 6.942-1.498 9.234 1.245l6.363 7.614c2.884 3.451 6.86 5.899 11.299 6.621 6.53 1.061 12.95-1.389 17.085-6.335l6.755-8.083c2.205-2.638 6.059-3.158 8.883-1.197l19.422 13.481c3.054 2.119 6.621 3.26 10.311 3.288.666-3.6 1.016-7.322 1.016-11.115.001-1.34-.058-2.664-.143-3.982z" fill="#e5827f"/><path d="m487.911 339.302h-464.152c-8.33 0-15.084-6.753-15.084-15.084v-5.81c0-8.33 6.753-15.084 15.084-15.084h464.152c8.33 0 15.084 6.753 15.084 15.084v5.81c0 8.331-6.754 15.084-15.084 15.084z" fill="#be8f7d"/><path d="m258.897 267.067 16.167-19.345c1.856-2.221 5.101-2.658 7.479-1.008l31.478 21.85c2.312 1.605 5.45-.194 5.233-3l-.074-.956c-1.854-24.035-15.357-45.64-36.148-57.839l-11.03-6.472v-24.155c0-1.979-1.604-3.583-3.583-3.583h-24.17c-1.979 0-3.583 1.604-3.583 3.583v24.155l-11.03 6.472c-20.791 12.2-34.294 33.805-36.148 57.839l-.074.956c-.216 2.806 2.922 4.605 5.233 3l31.478-21.85c2.378-1.651 5.623-1.213 7.479 1.008l16.167 19.345c1.336 1.598 3.791 1.598 5.126 0z" fill="#c5e97d"/></g></g><g><path d="m492.96 296.401v-59.276c0-63.338-24.665-122.886-69.452-167.673-44.787-44.786-104.334-69.452-167.673-69.452-54.517 0-107.757 18.967-149.914 53.407-3.208 2.621-3.684 7.345-1.063 10.553 2.62 3.207 7.345 3.685 10.554 1.063 39.484-32.258 89.355-50.023 140.423-50.023 59.332 0 115.112 23.105 157.066 65.059 41.953 41.954 65.059 97.734 65.059 157.066v58.7h-15v-58.7c0-114.209-92.916-207.125-207.125-207.125s-207.125 92.916-207.125 207.125v58.7h-15v-58.7c0-56.142 21.01-109.737 59.158-150.913 2.814-3.039 2.634-7.784-.404-10.599-3.039-2.816-7.784-2.634-10.6.404-40.725 43.958-63.154 101.173-63.154 161.108v59.276c-10.029 2.3-17.535 11.291-17.535 22.008v5.81c0 10.194 6.791 18.828 16.085 21.627l16.782 99.17c6.535 38.622 39.71 66.654 78.882 66.654h285.822c39.172 0 72.347-28.032 78.882-66.654l16.782-99.17c9.294-2.798 16.085-11.432 16.085-21.627v-5.81c0-10.717-7.506-19.708-17.535-22.008zm-429.25-59.276c0-105.938 86.186-192.125 192.125-192.125s192.125 86.187 192.125 192.125v58.7h-27.888c4.726-9.137 7.259-19.331 7.259-29.747 0-9.561-2.046-18.787-6.081-27.423-1.754-3.754-6.22-5.373-9.97-3.62-3.753 1.753-5.373 6.217-3.62 9.97 3.1 6.633 4.671 13.723 4.671 21.073 0 10.738-3.492 21.173-9.875 29.747h-82.073c2.572-7.284 3.912-14.989 3.912-22.766 0-.121-.003-.247-.003-.369 1.749-2.116 2.662-4.835 2.441-7.707l-.074-.952c-.674-8.735-2.755-17.178-6.053-25.058 9.161-14.126 24.883-22.763 41.856-22.763 9.534 0 18.812 2.712 26.83 7.844 3.487 2.233 8.127 1.215 10.36-2.274 2.232-3.489 1.214-8.127-2.274-10.36-10.437-6.68-22.511-10.21-34.916-10.21-19.407 0-37.547 8.686-49.744 23.261-6.656-9.73-15.435-18.036-25.89-24.171l-7.325-4.298v-19.86c0-6.111-4.972-11.083-11.083-11.083h-24.17c-6.111 0-11.083 4.972-11.083 11.083v19.86l-7.325 4.298c-9.535 5.595-17.674 12.995-24.083 21.633l-21.606-40.574c-8.074-15.163-21.423-26.714-37.588-32.526-10.375-3.731-21.909-2.898-31.641 2.285-9.732 5.182-16.859 14.286-19.556 24.977-4.201 16.657-2.068 34.181 6.006 49.343l37.481 70.388h-71.145zm88.14 58.7-41.235-77.438c-6.32-11.869-7.99-25.585-4.701-38.625 1.687-6.691 5.971-12.162 12.061-15.405 6.091-3.244 13.022-3.745 19.516-1.409 11.987 4.31 21.99 12.656 28.384 23.614l-19.585 10.428c-3.656 1.947-5.041 6.489-3.095 10.145 1.349 2.533 3.943 3.977 6.627 3.977 1.188 0 2.396-.284 3.519-.881l19.627-10.451 13.619 25.575-19.627 10.451c-3.656 1.947-5.041 6.489-3.095 10.145 1.349 2.533 3.943 3.977 6.627 3.977 1.188 0 2.396-.284 3.519-.881l17.809-9.483c-3.156 7.711-5.15 15.95-5.807 24.466l-.074.961c-.175 2.275.37 4.454 1.468 6.319-.018.6-.03 1.185-.03 1.752 0 7.777 1.342 15.481 3.914 22.766h-39.441zm116.357-89.059 11.029 6.472c16.278 9.551 27.592 25.544 31.323 43.794l-23.74-16.479c-5.605-3.89-13.134-2.877-17.511 2.36l-12.974 15.524-12.974-15.525c-2.59-3.099-6.283-4.719-10.029-4.719-2.584 0-5.193.771-7.481 2.359l-23.74 16.478c3.73-18.248 15.044-34.242 31.323-43.794l11.029-6.472c2.295-1.347 3.704-3.808 3.704-6.469v-20.238h16.336v20.238c.001 2.663 1.41 5.124 3.705 6.471zm-60.729 89.059c-3.062-6.497-4.792-13.574-5.062-20.774.171-.105.342-.21.509-.326l30.046-20.854 15.047 18.007c2.065 2.471 5.097 3.888 8.317 3.888s6.252-1.417 8.317-3.888c0 0 0 0 0-.001l15.047-18.006 29.574 20.527c-.187 7.425-1.926 14.735-5.081 21.428h-96.714zm288.017 28.394c0 4.182-3.402 7.584-7.584 7.584h-386.827c-4.143 0-7.5 3.358-7.5 7.5s3.357 7.5 7.5 7.5h377.952l-5.751 33.987h-14.299c-4.143 0-7.5 3.358-7.5 7.5s3.357 7.5 7.5 7.5h11.76l-7.907 46.723c-5.311 31.381-32.266 54.157-64.093 54.157h-285.822c-31.827 0-58.782-22.776-64.093-54.157l-7.907-46.723h11.76c4.143 0 7.5-3.358 7.5-7.5s-3.357-7.5-7.5-7.5h-14.298l-5.751-33.987h36.487c4.143 0 7.5-3.358 7.5-7.5s-3.357-7.5-7.5-7.5h-45.363c-4.182 0-7.584-3.402-7.584-7.584v-5.81c0-4.182 3.402-7.584 7.584-7.584h464.152c4.182 0 7.584 3.402 7.584 7.584z"/><path d="m246.338 395.79h21.993c4.143 0 7.5-3.358 7.5-7.5s-3.357-7.5-7.5-7.5h-21.993c-4.143 0-7.5 3.358-7.5 7.5s3.357 7.5 7.5 7.5z"/><path d="m174.455 395.79h21.994c4.143 0 7.5-3.358 7.5-7.5s-3.357-7.5-7.5-7.5h-21.994c-4.143 0-7.5 3.358-7.5 7.5s3.357 7.5 7.5 7.5z"/><path d="m102.573 395.79h21.994c4.143 0 7.5-3.358 7.5-7.5s-3.357-7.5-7.5-7.5h-21.994c-4.143 0-7.5 3.358-7.5 7.5s3.358 7.5 7.5 7.5z"/><path d="m315.221 395.79h21.994c4.143 0 7.5-3.358 7.5-7.5s-3.357-7.5-7.5-7.5h-21.994c-4.143 0-7.5 3.358-7.5 7.5s3.357 7.5 7.5 7.5z"/><path d="m387.103 395.79h21.994c4.143 0 7.5-3.358 7.5-7.5s-3.357-7.5-7.5-7.5h-21.994c-4.143 0-7.5 3.358-7.5 7.5s3.357 7.5 7.5 7.5z"/><path d="m246.338 474.186h21.993c4.143 0 7.5-3.358 7.5-7.5s-3.357-7.5-7.5-7.5h-21.993c-4.143 0-7.5 3.358-7.5 7.5s3.357 7.5 7.5 7.5z"/><path d="m174.455 474.186h21.994c4.143 0 7.5-3.358 7.5-7.5s-3.357-7.5-7.5-7.5h-21.994c-4.143 0-7.5 3.358-7.5 7.5s3.357 7.5 7.5 7.5z"/><path d="m102.573 474.186h21.994c4.143 0 7.5-3.358 7.5-7.5s-3.357-7.5-7.5-7.5h-21.994c-4.143 0-7.5 3.358-7.5 7.5s3.358 7.5 7.5 7.5z"/><path d="m337.215 459.186h-21.994c-4.143 0-7.5 3.358-7.5 7.5s3.357 7.5 7.5 7.5h21.994c4.143 0 7.5-3.358 7.5-7.5s-3.358-7.5-7.5-7.5z"/><path d="m387.103 474.186h21.994c4.143 0 7.5-3.358 7.5-7.5s-3.357-7.5-7.5-7.5h-21.994c-4.143 0-7.5 3.358-7.5 7.5s3.357 7.5 7.5 7.5z"/><path d="m273.606 430.229c0 4.142 3.357 7.5 7.5 7.5h21.994c4.143 0 7.5-3.358 7.5-7.5s-3.357-7.5-7.5-7.5h-21.994c-4.142 0-7.5 3.358-7.5 7.5z"/><path d="m201.725 430.229c0 4.142 3.357 7.5 7.5 7.5h21.994c4.143 0 7.5-3.358 7.5-7.5s-3.357-7.5-7.5-7.5h-21.994c-4.143 0-7.5 3.358-7.5 7.5z"/><path d="m129.843 430.229c0 4.142 3.357 7.5 7.5 7.5h21.993c4.143 0 7.5-3.358 7.5-7.5s-3.357-7.5-7.5-7.5h-21.993c-4.143 0-7.5 3.358-7.5 7.5z"/><path d="m87.454 422.729h-19.994c-4.143 0-7.5 3.358-7.5 7.5s3.357 7.5 7.5 7.5h19.994c4.143 0 7.5-3.358 7.5-7.5s-3.357-7.5-7.5-7.5z"/><path d="m342.49 430.229c0 4.142 3.357 7.5 7.5 7.5h21.993c4.143 0 7.5-3.358 7.5-7.5s-3.357-7.5-7.5-7.5h-21.993c-4.142 0-7.5 3.358-7.5 7.5z"/><path d="m414.372 430.229c0 4.142 3.357 7.5 7.5 7.5h21.994c4.143 0 7.5-3.358 7.5-7.5s-3.357-7.5-7.5-7.5h-21.994c-4.143 0-7.5 3.358-7.5 7.5z"/></g></g></svg>