<svg id="Capa_1" enable-background="new 0 0 516.53 516.53" height="512" viewBox="0 0 516.53 516.53" width="512" xmlns="http://www.w3.org/2000/svg"><g><path d="m174.813 255.433-26.664-31.514c-1.76-2.08-4.346-3.279-7.07-3.279h-42.008c-5.115 0-9.261 4.146-9.261 9.261v25.532 39.502h115.973v-6.575z" fill="#fcf0b6"/><path d="m457.904 65.599v180.554h-30.681v-180.554-24.5l30.681 2.421z" fill="#ded4cf"/><path d="m281.633 65.599-12.565 141.543-5.478 43.316-28.854 2.951 3.527-46.237 12.568-141.573 1.694-24.5 31.232 1.514z" fill="#ded4cf"/><path d="m463.562 207.139h-224.51c-5.49 0-10.42 3.35-12.46 8.44l-15.9 39.85h-120.88c-10.149 0-19.527 4.096-26.348 10.892l5.182 1.058-16.388 80.271-14.124-2.884-19.481 76.893h458.32v-135.39-65.72c-.001-7.4-6.011-13.41-13.411-13.41z" fill="#fbe88c"/><path d="m463.562 207.139h-224.51c-5.49 0-10.42 3.35-12.46 8.44l-15.9 39.85h-120.88c-17.11 0-32.03 11.64-36.2 28.24l4.144 10.579-9.412 30.72-6.271 4.251-23.42 92.44h23.109 12.612 97.781s0 0 0-.001c0-39.522-28.876-72.407-66.635-78.712-5.774-.964-9.535-6.587-8.097-12.261l6.355-25.086c4.17-16.6 19.09-28.24 36.2-28.24h109.159c7.078 0 13.441-4.312 16.064-10.886l11.557-28.964c2.04-5.09 6.97-8.44 12.46-8.44h207.755v-8.521c-.001-7.406-6.004-13.409-13.411-13.409z" fill="#fbe372"/><g><path d="m469.416 65.599h-241.5c-4.172 0-7.554-3.382-7.554-7.554v-20.446c0-4.172 3.382-7.554 7.554-7.554h241.5c4.172 0 7.554 3.382 7.554 7.554v20.446c0 4.172-3.382 7.554-7.554 7.554z" fill="#fbe88c"/><path d="m249.555 449.224h-64.364c-4.153 0-7.52-3.367-7.52-7.52v-21.731c0-4.153 3.367-7.52 7.52-7.52h64.364c4.153 0 7.52 3.367 7.52 7.52v21.731c0 4.153-3.367 7.52-7.52 7.52z" fill="#cbc0bb"/><g><path d="m476.972 286.269v-16.433l-.95-.95c-4.458-4.458-10.386-6.914-16.691-6.914-2.863 0-5.647.506-8.258 1.482-7.108-3.815-14.56-6.902-22.275-9.23-3.731-8.131-11.95-13.791-21.466-13.791h-27.655c-9.501 0-17.709 5.643-21.449 13.786-7.72 2.328-15.176 5.417-22.289 9.233-2.607-.972-5.396-1.479-8.262-1.479-6.305 0-12.233 2.455-16.691 6.913l-19.555 19.555c-6.719 6.719-8.533 16.514-5.416 24.92-3.822 7.117-6.915 14.579-9.246 22.305-8.13 3.732-13.791 11.951-13.791 21.466v27.655c0 9.501 5.642 17.709 13.785 21.449 1.591 5.274 3.545 10.421 5.835 15.423h194.375v-135.39z" fill="#fbe372"/><path d="m500.425 348.527h-.085c-1.327 0-2.461-.923-2.766-2.214-2.666-11.301-7.123-21.91-13.059-31.51-.698-1.129-.548-2.584.391-3.522l.064-.064c3.36-3.36 3.36-8.809 0-12.169l-19.555-19.555c-3.36-3.36-8.809-3.36-12.169 0l-.064.064c-.939.939-2.393 1.089-3.522.391-9.6-5.936-20.208-10.393-31.51-13.059-1.292-.305-2.214-1.439-2.214-2.766v-.085c0-4.752-3.853-8.605-8.605-8.605h-27.655c-4.752 0-8.605 3.853-8.605 8.605v.085c0 1.327-.923 2.461-2.214 2.766-11.301 2.666-21.91 7.123-31.51 13.059-1.129.698-2.584.548-3.522-.391l-.064-.064c-3.36-3.36-8.809-3.361-12.169 0l-19.555 19.555c-3.36 3.36-3.36 8.809 0 12.169l.064.064c.939.939 1.089 2.393.391 3.522-5.936 9.6-10.393 20.208-13.059 31.51-.305 1.292-1.439 2.214-2.766 2.214h-.085c-4.752 0-8.605 3.853-8.605 8.605v27.655c0 4.752 3.853 8.605 8.605 8.605h.085c1.327 0 2.461.923 2.766 2.214 2.666 11.301 7.123 21.91 13.059 31.51.698 1.129.548 2.584-.391 3.522l-.064.064c-3.36 3.36-3.36 8.809 0 12.169l19.555 19.555c3.36 3.36 8.809 3.36 12.169 0l.064-.064c.939-.939 2.393-1.089 3.522-.391 9.6 5.935 20.208 10.393 31.51 13.059 1.292.305 2.214 1.439 2.214 2.766v.085c0 4.752 3.853 8.605 8.605 8.605h27.655c4.752 0 8.605-3.853 8.605-8.605v-.085c0-1.327.923-2.461 2.214-2.766 11.301-2.666 21.91-7.123 31.51-13.059 1.129-.698 2.584-.548 3.522.391l.064.064c3.36 3.36 8.809 3.36 12.169 0l19.555-19.555c3.36-3.36 3.36-8.809 0-12.169l-.064-.064c-.939-.939-1.089-2.393-.391-3.522 5.936-9.6 10.393-20.208 13.059-31.51.305-1.292 1.439-2.214 2.766-2.214h.085c4.752 0 8.605-3.853 8.605-8.605v-27.655c0-4.753-3.852-8.605-8.605-8.605z" fill="#ded4cf"/><circle cx="393.504" cy="370.959" fill="#cbc0bb" r="70.391"/><circle cx="72.327" cy="421.658" fill="#ded4cf" r="64.827"/><path d="m32.578 422.68c0-32.411 23.785-59.286 54.852-64.085-4.848-1.157-9.901-1.765-15.103-1.765-35.803 0-64.827 29.024-64.827 64.827s29.024 64.827 64.827 64.827c3.392 0 6.723-.263 9.975-.765-28.515-6.807-49.724-32.438-49.724-63.039z" fill="#cbc0bb"/><circle cx="72.327" cy="421.658" fill="#b7acac" r="32.351"/><circle cx="393.504" cy="370.959" fill="#b7acac" r="34.63"/><g><g id="XMLID_228_"><g><path d="m229.952 298.499v16.15c0 8.19-6.64 14.84-14.83 14.84l-173.05-.27 11.54-45.55h161.51c8.19 0 14.83 6.64 14.83 14.83z" fill="#ded4cf"/></g></g></g><path d="m53.612 283.669-.93 3.671-10.61 41.879 35.707.056 5.998-23.675c2.318-9.226 7.959-16.916 15.448-21.931z" fill="#cbc0bb"/></g><g><path d="m311.697 376.462c0-59.866 45.537-109.095 103.863-114.943-1.077-3.523-4.353-6.086-8.228-6.086h-27.655c-4.752 0-8.605 3.853-8.605 8.605v.085c0 1.327-.923 2.462-2.214 2.766-11.301 2.666-21.91 7.123-31.51 13.059-1.129.698-2.584.548-3.522-.391l-.064-.064c-3.36-3.36-8.809-3.36-12.169 0l-19.555 19.555c-3.36 3.36-3.36 8.809 0 12.169l.064.064c.939.939 1.089 2.393.391 3.522-5.936 9.6-10.393 20.208-13.059 31.51-.305 1.292-1.439 2.214-2.766 2.214h-.085c-4.752 0-8.605 3.853-8.605 8.605v27.655c0 4.752 3.853 8.605 8.605 8.605h.084c1.327 0 2.461.923 2.766 2.214 2.666 11.301 7.123 21.91 13.059 31.51.698 1.129.548 2.584-.391 3.522l-.064.064c-3.36 3.36-3.36 8.809 0 12.169l19.555 19.555c3.36 3.36 8.809 3.36 12.169 0l.064-.064c.939-.938 2.393-1.089 3.522-.391 8.67 5.361 18.164 9.516 28.247 12.234-32.389-20.466-53.897-56.597-53.897-97.743z" fill="#cbc0bb"/></g></g><g><path d="m504.085 341.447c-2.593-9.743-6.459-19.07-11.524-27.805 3.866-6.212 3.104-14.506-2.288-19.897l-5.804-5.804v-67.388c0-10.907-8.398-19.878-19.066-20.817v-126.637h4.012c8.301 0 15.054-6.753 15.054-15.054v-20.446c0-8.301-6.753-15.054-15.054-15.054h-23.242c-4.142 0-7.5 3.358-7.5 7.5s3.358 7.5 7.5 7.5l23.296.054-.054 20.5-241.554-.054.054-20.5h186.295c4.142 0 7.5-3.358 7.5-7.5s-3.358-7.5-7.5-7.5h-186.294c-8.301 0-15.054 6.753-15.054 15.054v20.446c0 8.301 6.753 15.054 15.054 15.054h14.719l-11.365 128.031c-5.215 2.077-9.463 6.215-11.642 11.675l-14.014 35.128h-27.323l-24.417-28.857c-3.191-3.772-7.855-5.936-12.795-5.936h-42.008c-9.242 0-16.761 7.519-16.761 16.761v18.66c-17.31 2.918-31.578 15.786-35.97 33.278l-21.403 85.251c-15.261 13.269-24.937 32.804-24.937 54.568 0 39.881 32.446 72.327 72.328 72.327 37.349 0 68.174-28.457 71.938-64.827h25.905v12.546c0 8.282 6.738 15.02 15.02 15.02h64.364c8.282 0 15.02-6.738 15.02-15.02v-12.546h29.374c-3.278 6.098-2.356 13.875 2.785 19.016l19.555 19.554c3.042 3.042 7.086 4.718 11.388 4.718 3.045 0 5.961-.839 8.506-2.431 8.737 5.067 18.065 8.933 27.808 11.525 1.662 7.123 8.064 12.445 15.686 12.445h27.655c7.602 0 13.99-5.293 15.672-12.441 9.746-2.592 19.075-6.458 27.814-11.525 2.53 1.582 5.457 2.428 8.514 2.427 4.302 0 8.346-1.675 11.388-4.717l19.555-19.555c5.396-5.396 6.156-13.7 2.29-19.901 5.064-8.733 8.929-18.059 11.522-27.801 7.123-1.662 12.445-8.064 12.445-15.686v-27.655c-.002-7.621-5.324-14.023-12.447-15.684zm-53.681-141.805h-15.681v-126.543h15.681zm-30.681-126.543v126.543h-142.46l11.233-126.543zm-146.286 0-11.233 126.543h-15.743l11.234-126.543zm-174.366 155.041h42.008c.519 0 1.008.227 1.344.624l16.219 19.169h-61.331v-18.032c0-.971.79-1.761 1.76-1.761zm-51.11 108.845h167.157c12.315 0 22.334-10.019 22.334-22.334v-16.152c0-12.315-10.019-22.334-22.334-22.334h-77.364c-4.142 0-7.5 3.358-7.5 7.5s3.358 7.5 7.5 7.5h77.364c4.044 0 7.334 3.29 7.334 7.334v16.152c0 4.044-3.29 7.334-7.334 7.334h-163.391l7.738-30.821h46.327c4.142 0 7.5-3.358 7.5-7.5s-3.358-7.5-7.5-7.5h-40.76c5.412-8.094 14.594-13.231 24.779-13.231h120.886c3.069 0 5.829-1.87 6.966-4.721l15.897-39.849c.902-2.26 3.057-3.721 5.49-3.721h224.51c3.259 0 5.91 2.651 5.91 5.91v52.522c-5.348-4.343-12.853-4.747-18.636-1.165-8.739-5.069-18.07-8.938-27.818-11.532-1.662-7.123-8.063-12.445-15.685-12.445h-27.655c-7.602 0-13.99 5.294-15.672 12.441-9.748 2.593-19.079 6.459-27.818 11.527-6.213-3.868-14.506-3.104-19.897 2.288l-19.555 19.555c-5.375 5.375-6.149 13.637-2.28 19.884-5.069 8.739-8.938 18.071-11.531 27.818-7.123 1.662-12.445 8.063-12.445 15.685v27.655c0 7.602 5.293 13.99 12.441 15.672 1.242 4.67 2.784 9.24 4.603 13.699h-24.12c-2.277-5.402-7.626-9.204-13.847-9.204h-64.364c-6.221 0-11.569 3.802-13.847 9.204h-27.078c-3.764-36.371-34.589-64.828-71.938-64.828-10.308 0-20.111 2.183-28.994 6.086zm24.367 142c-31.61 0-57.328-25.717-57.328-57.327s25.717-57.328 57.328-57.328 57.327 25.717 57.327 57.328-25.717 57.327-57.327 57.327zm177.24-37.262s-.004 0-.013 0l-64.384-.02.02-21.75 64.384.02zm251.962-56.937c0 .609-.496 1.105-1.189 1.105-4.816 0-8.956 3.287-10.065 7.992-2.445 10.361-6.529 20.215-12.139 29.288-2.543 4.113-1.939 9.365 1.447 12.75.006.007.077.078.084.084.431.431.431 1.132 0 1.562l-19.555 19.555c-.268.267-.572.323-.781.323-.208 0-.514-.056-.761-.303-.006-.007-.077-.078-.084-.084-3.406-3.407-8.658-4.01-12.77-1.467-9.075 5.611-18.929 9.695-29.288 12.138-4.706 1.11-7.992 5.25-7.992 10.15 0 .609-.496 1.105-1.104 1.105h-27.655c-.609 0-1.105-.496-1.105-1.189 0-4.816-3.287-8.956-7.992-10.066-10.359-2.444-20.213-6.527-29.287-12.137-1.693-1.047-3.579-1.561-5.455-1.561-2.68 0-5.338 1.049-7.38 3.091-.268.267-.572.323-.781.323-.208 0-.513-.056-.781-.324l-19.555-19.555c-.431-.431-.431-1.132.064-1.627 3.406-3.406 4.009-8.657 1.466-12.77-5.61-9.073-9.694-18.926-12.138-29.287-1.11-4.706-5.25-7.992-10.15-7.992-.609 0-1.105-.496-1.105-1.105v-27.655c0-.609.496-1.104 1.189-1.104 4.816 0 8.956-3.287 10.066-7.992 2.444-10.36 6.527-20.214 12.138-29.288 2.542-4.112 1.939-9.364-1.531-12.833-.431-.431-.431-1.132 0-1.563l19.555-19.555c.431-.431 1.132-.431 1.626.064 3.407 3.408 8.658 4.011 12.77 1.467 9.073-5.61 18.927-9.694 29.288-12.138 4.706-1.11 7.992-5.25 7.992-10.15 0-.609.496-1.105 1.105-1.105h27.655c.609 0 1.104.496 1.104 1.189 0 4.816 3.287 8.956 7.992 10.066 10.36 2.444 20.214 6.528 29.288 12.139 4.113 2.543 9.365 1.939 12.833-1.531.43-.43 1.132-.431 1.563 0l19.555 19.555c.431.431.431 1.132-.062 1.625-3.408 3.406-4.012 8.658-1.468 12.771 5.61 9.073 9.694 18.927 12.138 29.288 1.11 4.706 5.25 7.992 10.066 7.992h.084c.609 0 1.105.496 1.105 1.104z"/><path d="m454.895 335.721c-3.79 1.672-5.506 6.1-3.834 9.889 3.54 8.024 5.335 16.552 5.335 25.349 0 34.678-28.213 62.891-62.891 62.891s-62.891-28.213-62.891-62.891c0-34.679 28.213-62.892 62.891-62.892 14.754 0 29.101 5.222 40.397 14.703 3.174 2.664 7.904 2.249 10.566-.923 2.663-3.173 2.25-7.904-.923-10.566-13.994-11.745-31.766-18.213-50.041-18.213-42.949 0-77.891 34.942-77.891 77.892 0 42.949 34.942 77.891 77.891 77.891s77.891-34.942 77.891-77.891c0-10.895-2.224-21.46-6.611-31.403-1.673-3.791-6.101-5.509-9.889-3.836z"/><path d="m72.328 381.807c-21.974 0-39.851 17.877-39.851 39.851s17.877 39.851 39.851 39.851 39.851-17.877 39.851-39.851-17.878-39.851-39.851-39.851zm0 64.702c-13.703 0-24.851-11.148-24.851-24.851s11.148-24.851 24.851-24.851 24.851 11.148 24.851 24.851-11.149 24.851-24.851 24.851z"/><path d="m393.504 328.829c-23.23 0-42.13 18.899-42.13 42.13 0 23.23 18.899 42.129 42.13 42.129s42.13-18.899 42.13-42.129-18.9-42.13-42.13-42.13zm0 69.26c-14.959 0-27.13-12.17-27.13-27.129s12.17-27.13 27.13-27.13 27.13 12.17 27.13 27.13c0 14.958-12.171 27.129-27.13 27.129z"/><path d="m249.861 265.585c.877.333 1.777.491 2.663.491 3.025 0 5.875-1.843 7.013-4.838l9.438-24.841c1.471-3.872-.475-8.204-4.347-9.675-3.874-1.472-8.204.476-9.675 4.347l-9.438 24.841c-1.472 3.872.474 8.204 4.346 9.675z"/><path d="m285.384 265.585c.877.333 1.777.491 2.663.491 3.024 0 5.875-1.843 7.012-4.838l9.439-24.841c1.472-3.872-.475-8.204-4.347-9.675-3.871-1.472-8.204.475-9.675 4.347l-9.439 24.841c-1.472 3.872.475 8.204 4.347 9.675z"/></g></g></svg>