<svg id="Capa_1" enable-background="new 0 0 513.575 513.575" height="512" viewBox="0 0 513.575 513.575" width="512" xmlns="http://www.w3.org/2000/svg"><g><g><path d="m453.886 187.488 4.958 9.549c8.937 17.214 13.602 36.325 13.602 55.721v189.186c0 35.419-28.713 64.131-64.131 64.131h-303.054c-35.419 0-64.131-28.713-64.131-64.131v-189.186c0-19.396 4.665-38.507 13.602-55.721l4.958-9.549 26.546-42.702h339.571z" fill="#ea9a98"/><path d="m105.931 420.558v-166.526c0-17.073 4.665-33.895 13.602-49.047l1.79-2.845c3.569-5.672 11.087-7.34 16.723-3.714.002.001.003.002.003.002 10.534 7.215 23.085 10.577 35.948 9.56 6.872-.543 13.564-2.475 19.804-5.404l12.542-5.886c1.425-.669 2.927-1.185 4.484-1.419 4.057-.609 8.056.331 11.343 2.613l2.175 1.511c9.073 6.301 19.736 10.078 30.778 10.402 11.995.351 23.586-3.096 33.409-9.916l2.578-1.791c2.419-1.68 5.229-2.774 8.168-2.965 2.69-.174 5.291.316 7.706 1.449l13.445 6.312c7.352 3.45 15.527 5.274 23.645 5.274 11.275 0 22.151-3.368 31.453-9.738l5.494-3.763c2.105-1.442 4.491-2.474 7.019-2.817 2.523-.342 5.032-.083 7.395.757l39.342 13.974c4.152 1.475 8.426 2.223 12.702 2.223 5.375 0 10.571-1.205 15.294-3.399-1.205-2.831-2.507-5.625-3.93-8.365l-4.958-9.549-28.079-42.702h-289.036-50.534l-26.546 42.702-4.958 9.549c-8.937 17.214-13.602 36.325-13.602 55.72v189.186c0 35.419 28.713 64.131 64.131 64.131h303.053c22.474 0 42.235-11.569 53.687-29.067h-291.939c-35.418-.002-64.131-25.275-64.131-56.452z" fill="#e5827f"/><path d="m417.95 114.214 41.938 45.698c12.118 13.204-1.529 33.819-18.418 27.82l-39.342-13.974c-10.747-3.817-22.673-2.263-32.082 4.182l-5.822 3.987c-10.428 7.142-23.857 8.23-35.298 2.86l-13.445-6.311c-11.515-5.405-25.037-4.266-35.485 2.989l-2.874 1.996c-12.227 8.49-28.442 8.49-40.67 0l-2.874-1.996c-10.448-7.255-23.97-8.393-35.485-2.989l-13.445 6.311c-11.441 5.37-24.871 4.282-35.298-2.86l-5.822-3.987c-9.41-6.445-21.335-7.999-32.082-4.182l-39.342 13.974c-16.888 5.999-30.536-14.616-18.418-27.82l41.938-45.698 25.118-26.138h277.71z" fill="#fbe88c"/><g><path d="m426.607 82.863h-339.638c-9.331 0-16.895-7.564-16.895-16.895v-41.574c0-9.331 7.564-16.895 16.895-16.895h339.638c9.331 0 16.895 7.564 16.895 16.895v41.574c-.001 9.331-7.565 16.895-16.895 16.895z" fill="#fcf0b6"/><path d="m115.913 61.529c-9.331 0-16.895-7.564-16.895-16.895v-37.134h-12.049c-9.331 0-16.895 7.564-16.895 16.895v41.574c0 9.331 7.564 16.895 16.895 16.895h339.638c9.331 0 16.895-7.564 16.895-16.895v-4.439h-327.589z" fill="#fbe88c"/><path d="m461.17 161.47c-4.101 5.71-11.523 9.041-19.699 6.137l-39.341-13.974c-10.748-3.818-22.673-2.263-32.083 4.182l-5.822 3.987c-10.428 7.142-23.857 8.23-35.299 2.86l-13.445-6.311c-11.515-5.405-25.038-4.266-35.486 2.99l-2.873 1.995c-12.227 8.491-28.442 8.491-40.67 0l-2.875-1.996c-10.448-7.255-23.969-8.394-35.484-2.989l-13.445 6.311c-11.442 5.371-24.871 4.283-35.3-2.859l-5.822-3.987c-9.41-6.445-21.336-7.999-32.084-4.182l-16.703 5.933c-3.012 1.07-5.461-2.587-3.325-4.964 5.582-6.209 13.268-14.689 20.161-22.276 1.803-1.985 4.358-3.113 7.039-3.113h299.336c4.107 0 8.017-.859 11.564-2.4l-11.563-12.6-19.497-26.138h-245.274-12.864-19.573l-25.118 26.138-41.938 45.698c-.461.503-.877 1.019-1.265 1.541-.002-.002-.004-.005-.005-.007-9.792 13.197 3.445 32.055 19.688 26.286l39.342-13.974c10.747-3.818 22.673-2.263 32.082 4.182l5.821 3.987c10.428 7.142 23.857 8.23 35.298 2.86l13.446-6.311c11.514-5.405 25.036-4.266 35.484 2.989l2.874 1.995c12.228 8.49 28.443 8.49 40.671 0l2.874-1.995c10.449-7.255 23.972-8.394 35.487-2.989l13.444 6.311c11.441 5.37 24.87 4.282 35.298-2.86l5.822-3.988c9.41-6.445 21.335-8 32.082-4.182l39.342 13.974c16.241 5.77 29.489-13.064 19.698-26.261z" fill="#fbe372"/><path d="m417.95 82.863h-322.325c-7.802 0-14.126 6.325-14.126 14.126v3.099c0 7.802 6.325 14.126 14.126 14.126h322.325c7.802 0 14.126-6.325 14.126-14.126v-3.099c0-7.802-6.324-14.126-14.126-14.126z" fill="#fcf1de"/><path d="m406.532 464.359h-299.489c-6.036 0-10.929-4.893-10.929-10.929v-213.297c0-6.036 4.893-10.929 10.929-10.929h299.489c6.036 0 10.929 4.893 10.929 10.929v213.297c0 6.036-4.893 10.929-10.929 10.929z" fill="#f9f7f7"/><path d="m129.617 464.359c-14.45-10.351-23.686-26.124-23.686-43.801v-166.526c0-8.393 1.134-16.724 3.342-24.827h-2.229c-6.036 0-10.929 4.893-10.929 10.929v213.296c0 6.036 4.893 10.929 10.929 10.929z" fill="#f8f3f2"/><path d="m228.907 411.975-21.668-40.711c-14.102-26.497 5.1-58.47 35.116-58.47h28.865c30.016 0 49.219 31.974 35.116 58.47l-21.668 40.711c-11.883 22.326-43.878 22.326-55.761 0z" fill="#ea9a98"/><path d="m248.273 405.403-21.668-38.948c-11.813-21.234-.25-46.132 21.454-53.661h-5.704c-30.016 0-49.219 31.974-35.116 58.47l21.668 40.711c9.867 18.538 33.59 21.667 48.163 9.42-11.271.306-22.69-5.015-28.797-15.992z" fill="#e5827f"/><g id="XMLID_230_"><g fill="#c5e97d"><path d="m298.868 262.285c2.5 2.49 4.04 5.94 4.04 9.75 0 7.62-6.17 13.79-13.79 13.79h-28.54-3.29v-9.31c0-10.09 8.18-18.27 18.27-18.27h13.56c3.81 0 7.26 1.54 9.75 4.04z"/><path d="m257.288 276.515v9.31h-3.29-28.54c-3.81 0-7.26-1.54-9.75-4.04-2.5-2.49-4.04-5.94-4.04-9.75 0-7.62 6.17-13.79 13.79-13.79h13.56c10.09 0 18.27 8.18 18.27 18.27z"/></g></g></g></g><g><path d="m465.5 193.581-1.852-3.566c1.548-1.401 2.95-3.021 4.162-4.851 6.375-9.628 5.412-21.814-2.396-30.323l-34.426-37.512c5.214-3.952 8.589-10.209 8.589-17.241v-3.099c0-3.292-.743-6.414-2.064-9.21 7.99-4.011 13.489-12.279 13.489-21.811v-41.573c-.001-13.452-10.944-24.395-24.396-24.395h-27.554c-4.143 0-7.5 3.358-7.5 7.5s3.357 7.5 7.5 7.5h27.554c5.181 0 9.396 4.214 9.396 9.395v41.574c0 5.18-4.215 9.395-9.396 9.395h-339.637c-5.181 0-9.396-4.214-9.396-9.395v-41.574c0-5.18 4.215-9.395 9.396-9.395h280.121c4.143 0 7.5-3.358 7.5-7.5s-3.357-7.5-7.5-7.5h-280.121c-13.452 0-24.395 10.943-24.395 24.395v41.574c0 9.532 5.499 17.8 13.489 21.811-1.322 2.796-2.064 5.917-2.064 9.21v3.099c0 7.032 3.375 13.289 8.589 17.241l-34.426 37.512c-7.809 8.508-8.771 20.694-2.396 30.323 1.212 1.831 2.614 3.45 4.162 4.851l-1.852 3.567c-9.451 18.204-14.446 38.667-14.446 59.176v119.601c0 4.142 3.357 7.5 7.5 7.5s7.5-3.358 7.5-7.5v-119.602c0-18.114 4.412-36.187 12.759-52.265l2.263-4.359c3.586.37 7.312-.037 10.963-1.334l39.342-13.974c8.458-3.005 17.928-1.77 25.333 3.302l5.822 3.988c12.565 8.606 28.936 9.934 42.723 3.461l13.445-6.311c9.064-4.254 19.801-3.35 28.021 2.359l2.875 1.997c7.36 5.11 15.986 7.666 24.612 7.666s17.252-2.556 24.613-7.666l2.873-1.996c8.222-5.708 18.96-6.613 28.021-2.359l13.445 6.311c13.787 6.471 30.158 5.144 42.723-3.461l5.822-3.988c7.403-5.071 16.875-6.307 25.333-3.302l39.342 13.973c3.651 1.297 7.377 1.704 10.963 1.334l2.263 4.359c8.347 16.079 12.759 34.151 12.759 52.265v189.187c0 31.227-25.405 56.631-56.632 56.631h-303.052c-31.227 0-56.632-25.404-56.632-56.631v-37.622c0-4.142-3.357-7.5-7.5-7.5s-7.5 3.358-7.5 7.5v37.622c0 39.498 32.134 71.631 71.632 71.631h303.053c39.498 0 71.632-32.133 71.632-71.631v-189.187c0-20.509-4.995-40.972-14.446-59.177zm-47.55-103.218c3.654 0 6.627 2.973 6.627 6.626v3.099c0 3.654-2.973 6.626-6.627 6.626h-322.325c-3.654 0-6.627-2.973-6.627-6.626v-3.099c0-3.654 2.973-6.626 6.627-6.626zm-13.31 76.328c-12.966-4.605-27.48-2.713-38.831 5.061l-5.822 3.988c-8.196 5.615-18.876 6.481-27.873 2.259l-13.445-6.311c-13.89-6.52-30.346-5.133-42.95 3.617l-2.873 1.996c-9.604 6.668-22.512 6.668-32.114 0l-2.875-1.997c-12.602-8.75-29.06-10.136-42.949-3.617l-13.445 6.311c-8.995 4.223-19.676 3.356-27.873-2.258l-5.822-3.988c-11.35-7.774-25.864-9.666-38.831-5.062l-39.342 13.974c-5.26 1.868-9.3-.727-11.321-3.782-2.021-3.054-2.837-7.784.94-11.9l39.709-43.269h315.731l39.709 43.269c3.777 4.116 2.962 8.846.94 11.9s-6.056 5.652-11.321 3.782z"/><path d="m256.788 436.219c14.698 0 27.596-7.746 34.502-20.721l21.667-40.71c7.871-14.79 7.421-32.194-1.205-46.557-8.626-14.362-23.777-22.937-40.531-22.937h-6.433v-11.965h24.328c11.74 0 21.292-9.552 21.292-21.292s-9.552-21.292-21.292-21.292h-13.556c-7.135 0-13.601 2.916-18.272 7.617-4.671-4.701-11.137-7.617-18.272-7.617h-13.556c-11.74 0-21.292 9.552-21.292 21.292s9.552 21.292 21.292 21.292h24.328v11.965h-7.433c-16.754 0-31.905 8.575-40.531 22.937-8.626 14.363-9.076 31.767-1.205 46.557l21.667 40.711c6.906 12.975 19.803 20.72 34.502 20.72zm18.772-170.474h13.556c3.47 0 6.292 2.823 6.292 6.292s-2.822 6.292-6.292 6.292h-24.328v-1.812c0-5.939 4.832-10.772 10.772-10.772zm-50.101 12.584c-3.47 0-6.292-2.823-6.292-6.292s2.822-6.292 6.292-6.292h13.556c5.94 0 10.772 4.833 10.772 10.772v1.812zm-10.776 57.625c5.889-9.806 16.233-15.66 27.672-15.66h28.865c11.438 0 21.783 5.854 27.672 15.66 5.89 9.806 6.197 21.688.822 31.787l-9.202 17.289c-.193-.015-.386-.029-.583-.029h-7.832c-4.143 0-7.5 3.358-7.5 7.5s3.357 7.5 7.5 7.5h.448l-4.498 8.451c-4.255 7.995-12.202 12.768-21.26 12.768s-17.005-4.773-21.26-12.768l-4.497-8.452h1.448c4.143 0 7.5-3.358 7.5-7.5s-3.357-7.5-7.5-7.5h-7.832c-.52 0-1.027.053-1.517.154l-9.268-17.414c-5.375-10.097-5.068-21.98.822-31.786z"/><path d="m231.478 351.167h7.831c4.143 0 7.5-3.358 7.5-7.5s-3.357-7.5-7.5-7.5h-7.831c-4.143 0-7.5 3.358-7.5 7.5s3.357 7.5 7.5 7.5z"/><path d="m275.266 351.167h7.831c4.143 0 7.5-3.358 7.5-7.5s-3.357-7.5-7.5-7.5h-7.831c-4.143 0-7.5 3.358-7.5 7.5s3.358 7.5 7.5 7.5z"/><path d="m253.372 373.081h7.832c4.143 0 7.5-3.358 7.5-7.5s-3.357-7.5-7.5-7.5h-7.832c-4.143 0-7.5 3.358-7.5 7.5s3.357 7.5 7.5 7.5z"/><path d="m357.516 229.205c0-4.142-3.357-7.5-7.5-7.5h-242.973c-10.162 0-18.429 8.267-18.429 18.429v213.296c0 10.162 8.267 18.429 18.429 18.429h299.488c10.162 0 18.429-8.267 18.429-18.429v-213.297c0-10.162-8.267-18.429-18.429-18.429h-24.554c-4.143 0-7.5 3.358-7.5 7.5s3.357 7.5 7.5 7.5h24.554c1.891 0 3.429 1.538 3.429 3.429v213.297c0 1.891-1.538 3.429-3.429 3.429h-299.488c-1.891 0-3.429-1.538-3.429-3.429v-213.297c0-1.891 1.538-3.429 3.429-3.429h242.973c4.143.001 7.5-3.357 7.5-7.499z"/></g></g></svg>