<svg id="Capa_1" enable-background="new 0 0 511.692 511.692" height="512" viewBox="0 0 511.692 511.692" width="512" xmlns="http://www.w3.org/2000/svg"><g><g><g><path d="m498.256 504.189h-484.82l10.75-10.75c26.05-26.05 46.02-57.54 58.47-92.22l40.12-111.82c28.44-79.24 109.97-108.15 177.18-86.79l31.5 14.5c25.01 15.57 45.74 39.66 57.46 72.29l40.12 111.82c12.45 34.68 32.42 66.17 58.47 92.22z" fill="#f6e2c4"/></g><g><path d="m498.256 504.189h-484.82l10.75-10.75c26.05-26.05 46.02-57.54 58.47-92.22l40.12-111.82c28.44-79.24 109.97-108.15 177.18-86.79l31.5 14.5c25.01 15.57 45.74 39.66 57.46 72.29l40.12 111.82c12.45 34.68 32.42 66.17 58.47 92.22z" fill="#f6e2c4"/></g><path d="m331.456 11.564v285.355c0 2.244-1.819 4.064-4.064 4.064h-23.372c-2.244 0-4.064-1.819-4.064-4.064v-285.355c0-2.244 1.819-4.064 4.064-4.064h23.372c2.245 0 4.064 1.82 4.064 4.064z" fill="#be8f7d"/><g><path d="m342.024 312.893h-52.636v-22.343c0-5.837 4.731-10.568 10.568-10.568h31.5c5.837 0 10.568 4.731 10.568 10.568z" fill="#ded4cf"/><path d="m487.506 493.439c-5.356-5.356-10.439-10.954-15.269-16.75h-357.581c-9.109 0-14.548-10.235-9.361-17.724 12.342-17.82 22.353-37.222 29.722-57.747l40.12-111.82c18.848-52.515 61.015-82.915 106.877-91.236-63.141-11.456-133.288 18.935-159.237 91.236l-40.12 111.82c-12.45 34.68-32.42 66.17-58.47 92.22l-10.75 10.75h49.773 2.588 432.46z" fill="#f7d8a4"/></g></g><g><path d="m165.077 235.549c1.692 0 3.394-.569 4.795-1.736 33.313-27.741 79.822-37.323 122.583-25.585v65.906c-6.225 2.856-10.568 9.132-10.568 16.417v16.208c-17.132 4.586-29.787 20.238-29.787 38.797v49.551c-4.162 2.73-8.164 5.734-11.973 9.009l-7.703 6.622c-3.141 2.7-3.499 7.436-.798 10.577 1.483 1.726 3.581 2.611 5.691 2.611 1.731 0 3.47-.596 4.886-1.812l7.703-6.622c18.299-15.731 41.667-24.396 65.8-24.396 24.132 0 47.5 8.664 65.8 24.395l7.702 6.622c3.141 2.701 7.877 2.344 10.576-.798 2.701-3.141 2.343-7.876-.798-10.576l-7.702-6.622c-3.809-3.274-7.811-6.278-11.973-9.009v-49.551c0-18.559-12.655-34.21-29.788-38.797v-16.21c0-7.285-4.343-13.562-10.568-16.417v-42.581c19.38 15.234 34.093 35.856 42.897 60.385l18.607 51.847c1.099 3.062 3.983 4.968 7.06 4.968.841 0 1.696-.143 2.533-.443 3.898-1.399 5.925-5.694 4.525-9.593l-18.607-51.847c-11.123-30.993-30.802-56.416-57.015-73.819v-91.192c0-4.142-3.358-7.5-7.5-7.5s-7.5 3.358-7.5 7.5v150.623h-16.5v-264.981c0-4.142-3.358-7.5-7.5-7.5s-7.5 3.358-7.5 7.5v185.227c-46.336-11.374-96.159-.438-132.182 29.558-3.183 2.65-3.615 7.379-.964 10.562 1.484 1.782 3.618 2.702 5.768 2.702zm169.447 55.001v14.842h-37.635v-14.842c0-1.691 1.376-3.068 3.068-3.068h31.5c1.69 0 3.067 1.377 3.067 3.068zm-67.423 55.006c0-13.875 11.288-25.163 25.163-25.163h15.942v55.948c-14.291.927-28.221 4.498-41.105 10.446zm97.21 0v41.23c-12.884-5.948-26.814-9.519-41.105-10.446v-55.948h15.942c13.875.001 25.163 11.289 25.163 25.164z"/><path d="m503.185 496.692h-1.825l-8.551-8.551c-25.106-25.106-44.716-56.041-56.709-89.459l-10.713-29.851c-1.399-3.899-5.693-5.924-9.593-4.525-3.898 1.399-5.925 5.694-4.525 9.593l10.713 29.851c12.414 34.588 32.527 66.654 58.223 92.943h-448.717c25.695-26.289 45.809-58.355 58.223-92.943l40.128-111.811c4.751-13.238 11.235-25.415 19.272-36.193 2.476-3.321 1.791-8.02-1.529-10.496-3.321-2.476-8.019-1.792-10.496 1.529-8.924 11.969-16.112 25.458-21.365 40.092l-40.128 111.811c-11.994 33.418-31.604 64.353-56.709 89.459l-8.551 8.551h-1.826c-4.142 0-7.5 3.358-7.5 7.5s3.358 7.5 7.5 7.5h494.679c4.142 0 7.5-3.358 7.5-7.5s-3.359-7.5-7.501-7.5z"/><path d="m331.456 97.396c4.142 0 7.5-3.358 7.5-7.5v-82.396c0-4.142-3.358-7.5-7.5-7.5s-7.5 3.358-7.5 7.5v82.396c0 4.143 3.358 7.5 7.5 7.5z"/><path d="m170.749 269.136-9.267 12.974c-2.408 3.371-1.627 8.055 1.744 10.462 1.322.944 2.844 1.397 4.353 1.397 2.34 0 4.646-1.092 6.109-3.141l9.267-12.974c2.408-3.371 1.627-8.055-1.744-10.462s-8.054-1.626-10.462 1.744z"/><path d="m221.029 342.639c1.662 0 3.335-.549 4.725-1.679 3.215-2.612 3.703-7.335 1.091-10.55l-8.031-9.884c-2.612-3.214-7.336-3.703-10.55-1.091-3.215 2.612-3.703 7.335-1.091 10.55l8.031 9.884c1.482 1.824 3.644 2.77 5.825 2.77z"/><path d="m146.642 368.639-9.885 16.415c-2.137 3.549-.992 8.157 2.556 10.294 1.211.729 2.545 1.076 3.862 1.076 2.544 0 5.024-1.294 6.433-3.632l9.884-16.415c2.137-3.549.993-8.157-2.556-10.294-3.551-2.14-8.157-.991-10.294 2.556z"/><path d="m93.79 454.249c-2.799 3.054-2.592 7.798.461 10.597l7.414 6.795c1.44 1.32 3.255 1.971 5.066 1.971 2.029 0 4.052-.819 5.531-2.432 2.799-3.054 2.592-7.798-.461-10.597l-7.414-6.795c-3.053-2.8-7.797-2.592-10.597.461z"/><path d="m295.778 439.46c-4.142 0-7.5 3.358-7.5 7.5s3.358 7.5 7.5 7.5h9.885c4.142 0 7.5-3.358 7.5-7.5s-3.358-7.5-7.5-7.5z"/><path d="m398.946 450.103-9.177 6.487c-3.382 2.391-4.186 7.071-1.795 10.454 1.462 2.068 3.778 3.171 6.131 3.171 1.497 0 3.008-.447 4.323-1.376l9.177-6.487c3.382-2.391 4.186-7.071 1.795-10.454-2.392-3.383-7.074-4.185-10.454-1.795z"/><path d="m194.521 450.532c-3.145 2.696-3.509 7.431-.814 10.576l5.56 6.487c1.484 1.731 3.584 2.619 5.698 2.619 1.727 0 3.463-.593 4.877-1.805 3.145-2.696 3.509-7.431.814-10.576l-5.56-6.487c-2.696-3.145-7.429-3.51-10.575-.814z"/><path d="m233.793 262.861 7.24 3.85c1.122.597 2.327.879 3.515.879 2.684 0 5.28-1.445 6.628-3.98 1.945-3.657.557-8.199-3.101-10.144l-7.24-3.85c-3.657-1.943-8.198-.557-10.144 3.101-1.943 3.658-.555 8.2 3.102 10.144z"/></g></g></svg>