<svg id="Capa_1" enable-background="new 0 0 508.989 508.989" height="512" viewBox="0 0 508.989 508.989" width="512" xmlns="http://www.w3.org/2000/svg"><g><g><path d="m335.924 18.655-1.899-7.945c-.893-3.737-5.933-4.388-7.745-1l-71.786 134.153-38.179 65.004.945 12.734 1.038 14.653-26.403 15.569c-3.159 1.863-5.746 4.559-7.477 7.793l-38.634 72.198-15.097 28.225 35.813 17.034 17.413-24.856 36.479-68.172 18.486-12.724c5.397-3.715 10.6-7.629 15.615-11.719l37.234-38.001c44.073-56.391 61.424-130.856 44.197-202.946z" fill="#f8f3f2"/><path d="m278.947 135.782 58.641-109.588c-.516-2.515-1.064-5.028-1.664-7.539l-1.899-7.945c-.893-3.737-5.933-4.388-7.745-1l-71.786 134.153-38.179 65.004.945 12.734 1.038 14.653-5.709 3.366-20.694 12.203c-3.16 1.863-5.746 4.559-7.477 7.793l-38.633 72.198-15.097 28.225 16.045 7.631 19.768 9.402 17.413-24.856 7.076-13.223-15.859-8.489c-3.657-1.957-5.034-6.508-3.078-10.165l27.801-51.955c1.73-3.234 4.317-5.93 7.476-7.793l9.444-5.569c3.746-2.209 8.493-1.615 11.611 1.417 4.453 4.329 9.074 8.503 13.858 12.512 4.201-3.001 8.287-6.119 12.25-9.351l37.234-38.001c4.222-5.402 8.189-10.975 11.913-16.691.012-.294.027-.626.039-.92l-24.734-46.224c-3.673-6.865-3.673-15.115.002-21.982z" fill="#f2eae7"/><path d="m183.914 352.221-38.13-20.41c-3.61-1.93-8.11-.57-10.04 3.04l-11.597 21.672c2.153 1.401 3.836 2.51 3.836 2.51l-25.818 50.366-4.956-2.535-27.765 51.887c-7.56 14.14-2.24 31.74 11.91 39.31 14.14 7.56 31.74 2.24 39.3-11.91l35.307-65.975-6.544-8.709 9.802-17.332 12.955-4.254 14.781-27.62c1.93-3.61.569-8.11-3.041-10.04z" fill="#ea9a98"/><path d="m363.204 331.814-38.634-72.198c-1.731-3.234-4.317-5.93-7.476-7.793l-26.403-15.569 1.281-18.085c.174-2.463-.351-4.925-1.516-7.103l-107.747-201.356c-1.813-3.388-6.853-2.737-7.746 1l-1.899 7.945c-22.985 96.185 15.582 196.598 97.045 252.667l18.486 12.724 36.479 68.172 27.911 51.661 37.109-17.935z" fill="#f9f7f7"/><path d="m363.204 331.814-7.079-13.228-5.303 2.839c-6.765 3.621-15.184 1.072-18.804-5.693l-19.616-36.657c-1.627-3.04-3.958-5.647-6.798-7.601l-14.164-9.749c-76.862-52.902-115.526-145.281-100.343-236.338l-8.388-15.677c-1.813-3.388-6.852-2.737-7.745 1l-1.899 7.945c-22.986 96.184 15.581 196.597 97.043 252.665l18.488 12.725 29.404 54.95 7.075 13.222 27.911 51.661 37.109-17.935z" fill="#f8f3f2"/><path d="m439.544 458.751-35.302-65.97-5.742-1.449-10.477-19.033v-9.817l.004-.002-14.784-27.628c-1.93-3.61-6.43-4.97-10.04-3.04l-38.13 20.41c-3.61 1.93-4.97 6.43-3.04 10.04l10.058 18.794 6.679-5.693s26.163 49.847 26.163 50.948c0 .323-2.533 2.207-6.105 4.705l29.505 55.134c7.56 14.15 25.16 19.47 39.3 11.91 14.151-7.569 19.471-25.169 11.911-39.309z" fill="#ea9a98"/><g><g id="XMLID_243_"><g><path d="m405.208 480.141-61.901-113.243c-1.802-3.3-.532-7.413 2.838-9.177l30.722-16.1-3.623-6.77c-1.93-3.61-6.43-4.97-10.04-3.04l-38.13 20.41c-3.61 1.93-4.97 6.43-3.04 10.04l14.781 27.62 5.673 2.027 12.101 23.324-1.56 4.947 35.305 65.973c7.56 14.15 25.16 19.47 39.3 11.91 2.229-1.192 4.237-2.634 6.011-4.271-11.177 1.856-22.798-3.317-28.437-13.65z" fill="#e5827f"/><path d="m356.476 418.334 47.768-25.553-16.22-30.3-46.43 24.842c3.501 7.336 10.596 22.185 14.882 31.011z" fill="#e5827f"/><path d="m353.029 420.178 15.013-8.03-16.484-30.156-14.743 7.889z" fill="#de6a66"/><path d="m183.91 352.22-38.13-20.41c-3.61-1.93-8.11-.57-10.04 3.04l-14.785 27.629 2.949 6.054-13.972 22.797-5.191 1.45-35.301 65.97c-7.56 14.14-2.24 31.74 11.91 39.31 5.137 2.746 10.743 3.792 16.146 3.333-.46-.208-.931-.434-1.383-.67-13.149-6.856-18.093-22.797-11.068-35.604l61.612-112.219c1.793-3.27 5.975-4.501 9.33-2.753l29.273 15.272 1.69-3.159c1.93-3.61.57-8.11-3.04-10.04z" fill="#e5827f"/><path d="m127.395 365.922-16.194 30.313 44.763 23.946 16.21-30.3z" fill="#e5827f"/><path d="m120.96 362.48-13.161 24.586-3.058 5.714 15.475 8.279 16.54-30.127z" fill="#de6a66"/></g></g></g></g><g><path d="m446.155 455.213-66.297-123.896c-2.59-4.84-7.488-7.656-12.615-7.851l-36.059-67.387c-2.379-4.447-5.934-8.152-10.28-10.715l-22.404-13.212.551-7.773c12.919-16.858 23.641-35.383 31.871-55.106 1.595-3.823-.211-8.215-4.034-9.81-3.818-1.596-8.214.21-9.81 4.033-5.947 14.251-13.293 27.823-21.88 40.539l-32.198-60.171 65.764-122.9c8.778 37.154 8.199 76.278-1.683 113.181-1.071 4.001 1.304 8.113 5.306 9.185 3.996 1.071 8.113-1.303 9.185-5.305 10.574-39.493 11.145-81.373 1.647-121.113l-1.899-7.946c-1.138-4.759-5.009-8.239-9.861-8.866-4.86-.63-9.48 1.756-11.791 6.071l-65.173 121.796-20.115-37.589c-1.953-3.652-6.499-5.029-10.15-3.074-3.652 1.954-5.029 6.499-3.074 10.151l62.688 117.15c.498.932.723 1.981.647 3.034l-1.281 18.084c-.201 2.838 1.221 5.545 3.672 6.991l26.402 15.569c1.977 1.166 3.593 2.85 4.674 4.872l35.094 65.586-24.903 13.325-32.94-61.559c-.565-1.056-1.375-1.96-2.361-2.64l-18.486-12.724c-38.717-26.647-68.089-63.924-84.94-107.8-16.782-43.694-19.959-90.841-9.196-136.379l25.852 48.311c1.953 3.651 6.496 5.027 10.15 3.074 3.652-1.954 5.029-6.499 3.075-10.151l-29.981-56.028c-2.31-4.315-6.935-6.7-11.793-6.07-4.854.627-8.724 4.108-9.86 8.867l-1.898 7.945c-11.631 48.673-8.295 99.093 9.648 145.809 8.58 22.34 20.217 43.068 34.524 61.726l.546 7.705-22.403 13.211c-4.345 2.562-7.899 6.267-10.28 10.715l-36.059 67.388c-5.126.195-10.025 3.011-12.615 7.852l-42.344 79.132c-1.955 3.652-.578 8.197 3.074 10.151 3.648 1.955 8.197.577 10.15-3.074l7.811-14.597 37.987 20.327-31.764 59.36c-2.715 5.073-7.243 8.786-12.75 10.454-5.505 1.667-11.333 1.092-16.405-1.624-5.074-2.715-8.786-7.243-10.454-12.75s-1.091-11.333 1.623-16.406l8.874-16.583c1.955-3.652.578-8.197-3.073-10.151-3.654-1.955-8.197-.579-10.151 3.074l-8.874 16.583c-4.605 8.605-5.584 18.49-2.755 27.831 2.829 9.342 9.127 17.022 17.733 21.627 5.473 2.929 11.365 4.317 17.178 4.317 13.054 0 25.702-7.004 32.279-19.296l66.299-123.896c2.589-4.841 2.215-10.478-.467-14.851l33.044-61.755 16.985-11.69c3.823-2.632 7.621-5.42 11.349-8.313 3.703 2.869 7.496 5.641 11.378 8.313l16.985 11.69 33.04 61.747c-.665 1.083-1.208 2.249-1.587 3.498-1.154 3.814-.755 7.849 1.125 11.362l66.298 123.896c6.577 12.292 19.225 19.295 32.279 19.295 5.812 0 11.706-1.389 17.178-4.317 8.606-4.605 14.904-12.286 17.733-21.627 2.829-9.342 1.85-19.226-2.755-27.832zm-331.256-65.509 9.135-17.072 37.986 20.327-9.135 17.072zm54.199-9.97-37.986-20.327 11.206-20.942 37.986 20.327zm65.529-114.591-18.486 12.724c-.986.679-1.796 1.584-2.361 2.64l-32.939 61.56-13.428-7.185-11.476-6.141 35.094-65.585c1.082-2.022 2.698-3.706 4.674-4.871l26.403-15.569c.715-.422 1.33-.96 1.855-1.569 5.874 6.39 12.102 12.472 18.655 18.234-2.64 1.988-5.309 3.916-7.991 5.762zm112.341 127.816 37.986-20.326 9.135 17.072-37.986 20.326zm19.703-54.494 11.206 20.942-37.986 20.327-11.206-20.942zm67.882 140.231c-1.668 5.507-5.38 10.035-10.454 12.75h.001c-10.473 5.603-23.552 1.642-29.156-8.83l-31.764-59.36 37.986-20.326 31.764 59.361c2.714 5.072 3.291 10.898 1.623 16.405z"/><path d="m261.502 207.655v-6.565c0-4.142-3.357-7.5-7.5-7.5s-7.5 3.358-7.5 7.5v6.565c0 4.142 3.357 7.5 7.5 7.5s7.5-3.358 7.5-7.5z"/></g></g></svg>