<svg id="Capa_1" enable-background="new 0 0 510.356 510.356" height="512" viewBox="0 0 510.356 510.356" width="512" xmlns="http://www.w3.org/2000/svg"><g><g><g><path d="m476.2 34.365-10.133-21.583c-1.369-2.916-4.843-4.17-7.759-2.801l-399.179 187.409c-4.958 2.328-7.09 8.234-4.763 13.192l6.661 14.188c2.328 4.958 8.234 7.09 13.192 4.763l399.18-187.41c2.916-1.369 4.17-4.842 2.801-7.758z" fill="#c9a291"/></g><g id="XMLID_242_"><g><path d="m290.607 262.295c.85.84 1 2.16.35 3.17l-1.89 2.96c-6.5 10.21-14.01 19.53-22.33 27.89l-100.78 98.81-42.42-34.08-2.49-34.08 75.19-30.65c28.11-11.84 52.88-31.38 71.06-57.11z" fill="#f2eae7"/><path d="m224.537 196.855 42.76 42.35c-18.18 25.73-42.95 45.27-71.06 57.11l-75.19 30.65-2.24-30.65-4.2-47.85-49.15-104.67c-2.39-5.09-.2-11.15 4.89-13.54l18.34-8.61c3.73-1.75 8.15-1.08 11.19 1.7l20.98 19.19 58.4-19.92c5.12-1.74 10.73.64 13.02 5.53z" fill="#ded4cf"/></g></g><g><path d="m165.957 395.125 100.78-98.81c4.676-4.698 9.085-9.71 13.213-15.002h-55.899c-8.787 5.873-18.094 10.908-27.814 15.002l-75.19 30.65 2.49 34.08z" fill="#ede2dd"/><path d="m224.051 281.313h-67.832c-8.984 0-16.477-6.867-17.259-15.816l-2.905-33.237-49.15-104.67c-.708-1.509-1.005-3.102-.953-4.66l-15.604 7.326c-5.09 2.39-7.279 8.453-4.889 13.543l49.149 104.667 4.2 47.85 2.24 30.65 23.368-9.526 51.822-21.124c9.719-4.095 19.026-9.131 27.813-15.003z" fill="#cbc0bb"/><path d="m334.702 320.617-25.98 19.176-1.304-29.19c-.357-7.993-6.941-14.29-14.942-14.29h-222.316c-8.001 0-14.585 6.297-14.942 14.29l-4.13 92.482-15.758 24.293c-2.386 3.678-3.655 7.968-3.655 12.352v51.551c0 6.392 5.182 11.574 11.574 11.574h276.139c6.392 0 11.574-5.182 11.574-11.574v-51.551c0-4.384-1.27-8.674-3.655-12.352l-15.758-24.293-.998-22.354 30.93-30.93c.977-.977 1.526-2.302 1.526-3.684v-21.309c-.002-4.274-4.866-6.729-8.305-4.191z" fill="#c9a291"/><g><path d="m73.651 485.089c-6.392 0-11.574-4.135-11.574-9.235v-41.135c0-3.498 1.27-6.922 3.655-9.857l7.612-9.364c5.295-6.514 8.399-14.534 8.868-22.915l3.408-60.903c.357-6.378 6.941-11.403 14.942-11.403h207.288l-.432-9.674c-.357-7.993-6.941-14.29-14.942-14.29h-222.316c-8.001 0-14.585 6.297-14.942 14.29l-4.13 92.482-15.758 24.293c-2.386 3.678-3.655 7.968-3.655 12.352v51.551c0 6.392 5.182 11.574 11.574 11.574h276.139c6.392 0 11.574-5.182 11.574-11.574v-6.192z" fill="#be8f7d"/></g></g></g><g><path d="m330.961 471.531c-4.142 0-7.5 3.357-7.5 7.5v12.25c0 2.246-1.827 4.074-4.073 4.074h-48.189v-20.532c0-4.143-3.358-7.5-7.5-7.5s-7.5 3.357-7.5 7.5v20.532h-46.11v-128.46c0-4.143-3.358-7.5-7.5-7.5s-7.5 3.357-7.5 7.5v128.46h-90.246v-20.532c0-4.143-3.358-7.5-7.5-7.5s-7.5 3.357-7.5 7.5v20.532h-46.595c-2.246 0-4.074-1.828-4.074-4.074v-51.551c0-2.942.847-5.803 2.447-8.271l15.758-24.294c.727-1.119 1.141-2.413 1.201-3.746l1.616-36.189c.185-4.139-3.02-7.643-7.158-7.827-4.11-.222-7.643 3.02-7.827 7.157l-1.525 34.153-14.649 22.583c-3.181 4.905-4.863 10.588-4.863 16.434v51.551c0 10.518 8.557 19.074 19.074 19.074h276.139c10.517 0 19.073-8.557 19.073-19.074v-12.25c.001-4.142-3.357-7.5-7.499-7.5z"/><path d="m392.262 48.492c1.068 0 2.152-.229 3.183-.713l71.331-33.489c3.75-1.761 5.362-6.227 3.602-9.977-1.761-3.749-6.229-5.36-9.977-3.602l-71.331 33.49c-3.75 1.761-5.362 6.227-3.602 9.977 1.277 2.719 3.977 4.314 6.794 4.314z"/><path d="m485.468 36.457c-1.761-3.749-6.229-5.361-9.977-3.602l-261.93 122.973-8.716-18.565 161.667-75.9c3.75-1.761 5.362-6.227 3.602-9.977-1.761-3.749-6.229-5.36-9.977-3.602l-161.726 75.928c-4.259-7.511-13.282-11.024-21.577-8.194l-54.192 18.487-17.698-16.191c-5.305-4.854-12.94-6.014-19.449-2.96l-18.334 8.608c-4.275 2.006-7.513 5.558-9.117 10-1.604 4.441-1.381 9.242.625 13.518l16.288 34.692-19.015 8.928c-4.212 1.977-7.401 5.476-8.981 9.852s-1.361 9.104.616 13.316l6.662 14.188c1.977 4.212 5.476 7.402 9.852 8.981 1.931.697 3.931 1.045 5.925 1.044 2.524 0 5.039-.556 7.392-1.66l19.016-8.927 10.824 23.055 3.372 38.363h-40.46c-12.043 0-21.897 9.425-22.435 21.455l-1.086 24.331c-.185 4.139 3.02 7.643 7.158 7.827 4.112.21 7.643-3.02 7.827-7.157l1.086-24.331c.178-3.995 3.451-7.125 7.45-7.125h19.682v133.666c0 4.143 3.358 7.5 7.5 7.5s7.5-3.357 7.5-7.5v-133.665h46.11v145.547c0 4.143 3.358 7.5 7.5 7.5s7.5-3.357 7.5-7.5v-145.547h90.246v133.666c0 4.143 3.358 7.5 7.5 7.5s7.5-3.357 7.5-7.5v-133.666h21.278c3.999 0 7.271 3.13 7.449 7.125l1.304 29.19c.124 2.768 1.763 5.241 4.263 6.435 2.501 1.192 5.455.91 7.684-.735l22.33-16.481v15.822l-30.259 30.259c-1.489 1.489-2.283 3.535-2.189 5.639l.998 22.354c.06 1.333.474 2.627 1.2 3.746l15.758 24.295c1.601 2.468 2.447 5.327 2.447 8.27v7.338c0 4.143 3.358 7.5 7.5 7.5s7.5-3.357 7.5-7.5v-7.338c0-5.847-1.682-11.528-4.863-16.433l-14.648-22.584-.76-17.017 28.591-28.592c2.401-2.4 3.724-5.593 3.724-8.988v-21.309c0-4.824-2.676-9.172-6.983-11.347-4.307-2.173-9.394-1.744-13.275 1.121l-14.661 10.821-.676-15.137c-.538-12.03-10.392-21.455-22.435-21.455h-8.92c4.257-5.218 8.22-10.678 11.837-16.353l1.892-2.968c2.525-3.959 1.935-9.229-1.4-12.528l-65.124-64.502-10.824-23.055 261.931-122.972c3.749-1.761 5.361-6.227 3.601-9.977zm-414.435 186.286c-.789.372-1.497.214-1.849.086-.352-.127-.997-.458-1.367-1.247l-6.662-14.188c-.37-.788-.212-1.496-.085-1.848s.458-.997 1.247-1.367l19.016-8.928 8.716 18.565zm192.53 66.07h-37.268c15.916-10.34 30.051-23.231 41.83-38.23l14.359 14.221c-5.509 8.587-11.869 16.643-18.921 24.009zm-6.159-48.849c-16.385 21.337-37.941 38.13-62.743 48.849h-68.983l-3.604-41.003c-.077-.877-.308-1.733-.682-2.53l-49.144-104.673c-.411-.875-.235-1.66-.095-2.05s.507-1.105 1.382-1.516l18.335-8.608c.987-.464 2.143-.288 2.948.448l20.977 19.191c2.021 1.85 4.892 2.449 7.484 1.565l58.398-19.923c1.498-.51 3.139.185 3.813 1.62l32.257 68.707c.374.797.886 1.521 1.511 2.142z"/></g></g></svg>