<svg id="Capa_1" enable-background="new 0 0 509.706 509.706" height="512" viewBox="0 0 509.706 509.706" width="512" xmlns="http://www.w3.org/2000/svg"><g><g><path d="m350.789 134.35 2.512-3.028c12.955-15.617 30.189-27.109 49.585-33.067l10.153-3.118c3.389-1.041 4.408-5.343 1.846-7.794l-17.666-16.898-5.768-32.787c-.37-2.104-2.38-3.506-4.483-3.127l-37.383 6.742-25.151-15.105c-2.806-1.685-6.428-.016-6.97 3.212l-2.226 13.271c-3.552 21.174-13.56 40.733-28.655 56.001l-10.645 10.767-36.106 29.422 14.52 59.073 53.4-13.472z" fill="#c5e97d"/><path d="m275.939 95.007 8.769-23.479c2.654-7.105-2.6-14.676-10.185-14.676h-40.341c-7.585 0-12.839 7.571-10.185 14.676l8.769 23.479v85.537h43.172v-85.537z" fill="#f8deb6"/><g><ellipse cx="160.299" cy="309.454" fill="#f5c374" rx="152.799" ry="175.104"/><ellipse cx="349.407" cy="309.454" fill="#f5c374" rx="152.799" ry="175.104"/><path d="m184.237 136.481c-17.858 9.171-34.323 21.886-48.603 37.83-31.327 34.978-48.58 81.374-48.58 130.642 0 49.269 17.253 95.665 48.58 130.643 17.695 19.757 40.349 34.11 63.277 43.348 66.535-18.937 114.186-87.384 114.186-169.489.001-87.39-55.826-159.825-128.86-172.974z" fill="#f3b658"/><path d="m325.506 136.487c-73.034 13.148-128.898 85.578-128.898 172.967 0 82.105 49.31 151.006 115.846 169.942 22.929-9.238 43.924-24.044 61.618-43.801 31.327-34.978 48.58-81.374 48.58-130.643 0-49.268-17.253-95.664-48.58-130.642-14.28-15.942-30.708-28.651-48.566-37.823z" fill="#f3b658"/><ellipse cx="254.853" cy="304.953" fill="#f7cf8f" rx="152.799" ry="170.603"/><path d="m160.299 298.51c0-77.147 45.88-142.334 108.825-163.426-4.695-.485-9.462-.734-14.271-.734-84.388 0-152.799 76.382-152.799 170.603 0 94.222 68.41 170.603 152.799 170.603 15.293 0 30.056-2.52 43.987-7.188-77.702-8.03-138.541-81.005-138.541-169.858z" fill="#f5c374"/></g><path d="m200.803 474.977c-74.136-12.051-131.164-85.071-131.164-173.355 0-77.705 44.184-143.585 105.319-166.477-4.821-.526-9.717-.795-14.659-.795-84.388 0-152.799 78.397-152.799 175.104s68.41 175.104 152.799 175.104c13.342 0 26.29-1.965 38.628-5.648z" fill="#f3b658"/></g><path d="m475.156 194.472c-2.35-3.41-7.021-4.271-10.432-1.92s-4.27 7.021-1.92 10.432c20.572 29.852 31.901 67.6 31.901 106.291 0 92.319-62.872 167.426-140.151 167.426-13.495 0-26.694-2.275-39.429-6.749 22.577-10.185 43.037-26.047 59.57-46.713 2.587-3.234 2.063-7.954-1.171-10.542s-7.954-2.064-10.542 1.171c-27.551 34.438-66.962 54.188-108.13 54.188-80.118 0-145.299-73.168-145.299-163.104s65.182-163.102 145.3-163.102 145.299 73.167 145.299 163.103c0 29.378-7.047 58.188-20.381 83.314-1.941 3.659-.549 8.199 3.109 10.141s8.199.549 10.141-3.109c14.478-27.284 22.131-58.525 22.131-90.346 0-69.849-36.383-130.424-89.194-159.589 9.364-2.328 18.928-3.513 28.596-3.513 32.202 0 63.66 13.395 88.58 37.715 1.458 1.424 3.349 2.133 5.238 2.133 1.95 0 3.898-.756 5.368-2.262 2.893-2.964 2.835-7.713-.129-10.605-24.489-23.9-54.778-38.313-86.408-41.363 10.737-10.125 23.64-17.668 37.884-22.042l10.153-3.119c4.163-1.278 7.247-4.571 8.251-8.81 1.003-4.237-.276-8.564-3.423-11.573l-15.89-15.198-5.342-30.367c-.527-2.996-2.192-5.604-4.687-7.346-2.496-1.74-5.52-2.402-8.513-1.862l-34.608 6.241-22.731-13.653c-3.447-2.071-7.684-2.301-11.335-.62-3.651 1.683-6.228 5.055-6.893 9.02l-2.226 13.271c-2.849 16.984-10.057 32.642-20.968 45.755l4.86-13.011c2.106-5.639 1.314-11.957-2.117-16.902s-9.074-7.897-15.094-7.897h-40.341c-6.02 0-11.662 2.952-15.094 7.897-.013.019-.024.039-.038.058l-17.316-15.023c-15.33-13.299-38.353-12.254-52.412 2.384l-4.645 4.834c-6.205 6.46-9.372 15.286-8.689 24.217s5.154 17.173 12.268 22.613c5.727 4.38 12.459 6.525 19.151 6.524 8.479 0 16.889-3.443 23.094-10.148l7.117-7.69c2.813-3.04 2.629-7.785-.411-10.599-3.041-2.812-7.786-2.63-10.599.411l-7.116 7.69c-5.812 6.281-15.324 7.098-22.123 1.897-3.78-2.892-6.062-7.097-6.425-11.843-.363-4.745 1.253-9.249 4.551-12.682l4.645-4.835c8.521-8.869 22.474-9.506 31.765-1.444l25.735 22.327 7.627 20.419v33.541c-7.292 1.518-14.412 3.58-21.323 6.158-15.711-6.111-32.11-9.211-48.793-9.211-43.048 0-83.053 20.222-112.646 56.941-2.599 3.225-2.091 7.946 1.134 10.546 1.386 1.117 3.049 1.66 4.702 1.66 2.19 0 4.362-.955 5.844-2.794 26.688-33.116 62.546-51.354 100.966-51.354 9.671 0 19.238 1.181 28.603 3.51-52.814 29.164-89.201 89.741-89.201 159.593 0 74.518 41.408 138.482 99.996 165.01-12.726 4.468-25.915 6.738-39.399 6.738-77.279 0-140.151-75.107-140.151-167.426 0-32.256 7.706-63.576 22.284-90.574 1.968-3.645.608-8.194-3.036-10.163-3.646-1.966-8.196-.608-10.163 3.036-15.756 29.181-24.085 62.965-24.085 97.701 0 48.492 15.987 94.138 45.015 128.528 29.336 34.757 68.451 53.897 110.136 53.897 20.824 0 41.001-4.773 60.029-14.169 12.692 3.604 25.984 5.524 39.673 5.524 13.482 0 26.781-1.908 39.617-5.552 19.044 9.414 39.24 14.197 60.084 14.197 41.686 0 80.799-19.141 110.136-53.897 29.028-34.39 45.015-80.036 45.015-128.528.001-41.701-12.269-82.473-34.549-114.803zm-152.52-150.58 1.532-9.135 21.556 12.945c1.559.937 3.403 1.275 5.192.951l33.782-6.093 5.134 29.185c.277 1.572 1.048 3.017 2.203 4.12l14.147 13.531-5.498 1.688c-20.849 6.403-39.229 18.661-53.156 35.448l-.441.532c-12.942.721-25.675 3.314-38.006 7.751l50.751-55.701c2.79-3.062 2.569-7.806-.493-10.596-3.062-2.789-7.806-2.568-10.595.492l-57.034 62.596c-2.731-.717-5.488-1.36-8.27-1.919v-17.188l8.479-8.576c16.267-16.452 26.889-37.211 30.717-60.031zm-82.843 48.491-8.77-23.479c-.537-1.438.013-2.561.389-3.103.375-.541 1.235-1.449 2.771-1.449h40.341c1.535 0 2.395.908 2.771 1.449.375.542.926 1.664.389 3.103l-8.77 23.479c-.313.839-.474 1.728-.474 2.624v32.489c-4.48-.42-9.01-.646-13.586-.646-4.917 0-9.78.261-14.586.745v-32.588c-.001-.896-.162-1.785-.475-2.624z"/></g></svg>