<svg id="Capa_1" enable-background="new 0 0 506.546 506.546" height="512" viewBox="0 0 506.546 506.546" width="512" xmlns="http://www.w3.org/2000/svg"><g><g><path d="m72.593 83.791 1.62 15.95 15.39 341.62 14.911 17.097h294.517l16.912-17.097 15.39-341.62 1.51-20.09z" fill="#d9f2f6"/><g><path d="m440.827 67.845h-375.108c-5.742 0-10.396-4.655-10.396-10.396v-22.808c0-5.742 4.655-10.396 10.396-10.396h375.109c5.742 0 10.396 4.655 10.396 10.396v22.808c0 5.742-4.655 10.396-10.397 10.396z" fill="#f9f7f7"/><path d="m130.659 83.124-58.066.667 1.62 15.95 15.39 341.62 14.911 17.097h294.517l3.417-3.454-253.6 6.313-1.461-23.41-13.382-297.039c-.641-14.236 10.727-26.127 24.977-26.127h271.676l.676-15 1.51-20.09z" fill="#b3e5ee"/><path d="m431.338 67.845h-357.13c-5.241 0-9.489 4.249-9.489 9.489v12.917c0 5.241 4.249 9.489 9.489 9.489h357.13c5.241 0 9.489-4.249 9.489-9.489v-12.916c0-5.241-4.248-9.49-9.489-9.49z" fill="#f2eae7"/><g id="XMLID_244_"><g><path d="m415.943 441.361-.89 19.76c-.53 11.85-10.3 21.18-22.16 21.18h-280.24c-11.86 0-21.63-9.33-22.16-21.18l-.89-19.76z" fill="#f9f7f7"/></g></g><path d="m169.813 463.649c-11.86 0-21.63-9.33-22.16-21.18l-.05-1.108h-58l.89 19.76c.53 11.85 10.3 21.18 22.16 21.18h280.24c11.001 0 20.204-8.034 21.903-18.653z" fill="#f2eae7"/></g><path d="m337.395 312.055h-168.244c-3.836 0-6.946-3.11-6.946-6.946v-22.346c0-3.836 3.11-6.946 6.946-6.946h168.245c3.836 0 6.946 3.11 6.946 6.946v22.346c-.001 3.837-3.111 6.946-6.947 6.946z" fill="#f9f7f7"/></g><path d="m491.162 36.26h-32.438v-1.619c0-9.868-8.028-17.896-17.896-17.896h-27.368c-4.143 0-7.5 3.357-7.5 7.5s3.357 7.5 7.5 7.5h27.368c1.597 0 2.896 1.3 2.896 2.896v22.808c0 1.597-1.3 2.896-2.896 2.896h-375.109c-1.597 0-2.896-1.3-2.896-2.896v-22.808c0-1.597 1.299-2.896 2.896-2.896h315.779c4.143 0 7.5-3.357 7.5-7.5s-3.357-7.5-7.5-7.5h-315.779c-9.868 0-17.896 8.028-17.896 17.896v1.619h-32.438c-8.484 0-15.385 6.902-15.385 15.385v117.681c0 52.485 30.766 97.916 75.209 119.215l7.792 172.913c.716 15.896 13.742 28.348 29.653 28.348h280.236c15.912 0 28.938-12.452 29.653-28.348l7.771-172.435c44.991-21.089 76.231-66.808 76.231-119.693v-117.681c.001-8.483-6.9-15.385-15.383-15.385zm-57.834 41.075v12.917c0 1.097-.893 1.989-1.989 1.989h-357.131c-1.097 0-1.989-.893-1.989-1.989v-12.917c0-1.097.893-1.989 1.989-1.989h357.13c1.097-.001 1.99.892 1.99 1.989zm-418.328 91.991v-117.681c0-.212.172-.385.385-.385h32.438v6.188c0 6.978 4.023 13.02 9.863 15.97-.3 1.258-.467 2.567-.467 3.916v12.917c0 6.775 3.996 12.619 9.746 15.345l3.334 73.978c.181 4.022 3.5 7.162 7.486 7.162.114 0 .229-.002.344-.008 4.138-.187 7.341-3.692 7.154-7.83l-3.229-71.658h341.438l-7.736 171.661c-12.857 4.864-26.782 7.535-41.321 7.535h-22.595v-3.674c0-7.965-6.48-14.445-14.445-14.445h-168.244c-7.965 0-14.446 6.48-14.446 14.445v3.674h-22.595c-14.923 0-29.201-2.811-42.338-7.923l-3.049-67.653c-.187-4.138-3.694-7.35-7.83-7.154-4.138.187-7.341 3.692-7.155 7.83l2.689 59.678c-35.456-20.152-59.427-58.271-59.427-101.888zm321.84 113.992v21.237h-167.135v-21.237zm71.933 150.542h-48.451c-4.143 0-7.5 3.357-7.5 7.5s3.357 7.5 7.5 7.5h47.775l-.537 11.918c-.354 7.863-6.798 14.023-14.669 14.023h-280.236c-7.871 0-14.314-6.16-14.669-14.023l-.537-11.918h230.911c4.143 0 7.5-3.357 7.5-7.5s-3.357-7.5-7.5-7.5h-231.587l-6.271-139.142c13.088 4.354 27.076 6.719 41.608 6.719h22.595v3.673c0 7.965 6.48 14.445 14.446 14.445h168.244c7.965 0 14.445-6.48 14.445-14.445v-3.673h22.595c14.157 0 27.798-2.248 40.594-6.389zm82.773-264.534c0 44.036-24.435 82.467-60.455 102.463l7.489-166.192c5.751-2.726 9.747-8.57 9.747-15.345v-12.917c0-1.194-.139-2.354-.376-3.477 6.332-2.76 10.773-9.072 10.773-16.409v-6.189h32.438c.212 0 .385.173.385.385v117.681z"/></g></svg>