<svg id="Capa_1" enable-background="new 0 0 513.418 513.418" height="512" viewBox="0 0 513.418 513.418" width="512" xmlns="http://www.w3.org/2000/svg"><g><g><path d="m250.333 185.143h225.208v39.364h-225.208z" fill="#f6e2c4"/><path d="m458.541 125.33h32.56v151.576h-32.56z" fill="#f7d8a4" transform="matrix(-1 0 0 -1 949.642 402.236)"/><path d="m234.774 123.33h32.56v154.576h-32.56z" fill="#f7d8a4"/><path d="m234.778 256.906v-72.28c0-6.98-5.66-12.64-12.64-12.64h-25.28l-39.065 32.838-88.755 53.082-53.1 16.37c-5.02 1.54-8.44 6.17-8.44 11.42v16.2l10.308 16.495-10.308 16.495v29.13c0 6.61 5.35 11.96 11.96 11.96h215.32l35.424-30.569v-75.807z" fill="#f2eae7"/><path d="m140.963 362.543c-2.37 0-4.525-1.461-5.316-3.696-7.073-19.988-26.149-34.35-48.529-34.35-20.789 0-38.725 12.393-46.84 30.176-2.464 5.4-10.716 3.767-10.806-2.168-.001-.045-.001-.089-.001-.134v-58.604c0-4.465 3.42-8.402 8.44-9.712l35.716-9.364c10.956-2.872 19.948-10.688 24.318-21.138l7.215-17.251-36.122 21.604-53.1 16.37c-5.02 1.54-8.44 6.17-8.44 11.42v16.2l10.308 16.495-10.308 16.495v29.13c0 6.605 5.355 11.96 11.96 11.96h215.32l15.567-13.434h-109.382z" fill="#ede2dd"/><path d="m498.119 298.586 7.799-7.28v-28.53c0-3.24-2.63-5.87-5.87-5.87h-265.27v119.07h265.27c3.24 0 5.87-2.63 5.87-5.88v-36.74l-7.799-3.934z" fill="#ded4cf"/><path d="m454.762 355.023c-4.606 0-8.819-2.441-11.268-6.342-9.112-14.515-25.262-24.184-43.629-24.184-18.366 0-34.516 9.669-43.628 24.184-2.449 3.901-6.661 6.342-11.268 6.342h-71.723c-7.519 0-13.615-6.096-13.615-13.615v-84.502h-24.854v119.07h265.27c3.24 0 5.87-2.63 5.87-5.88v-15.073z" fill="#cbc0bb"/><circle cx="87.118" cy="375.974" fill="#ded4cf" r="36.477"/><path d="m103.065 407.84c-20.146 0-36.477-16.332-36.477-36.477 0-13.666 7.52-25.57 18.644-31.818-19.269.981-34.591 16.916-34.591 36.429 0 20.146 16.331 36.477 36.477 36.477 6.479 0 12.573-1.694 17.847-4.657-.625.032-1.267.046-1.9.046z" fill="#cbc0bb"/><g><g id="XMLID_245_"><g><path d="m44.298 313.316v10.16c0 6.3-5.11 11.41-11.41 11.41h-25.39v-32.99h25.39c6.3 0 11.41 5.11 11.41 11.42z" fill="#f7cf8f"/><g><path d="m218.832 197.066h15.946v-12.44c0-6.98-5.66-12.64-12.64-12.64h-25.28l-29.835 25.08z" fill="#ede2dd"/></g><path d="m196.858 171.986v76.35c0 5.29-4.28 9.57-9.57 9.57h-118.25l27.57-77.52c1.79-5.03 6.56-8.4 11.91-8.4z" fill="#b3e5ee"/><path d="m118.582 204.209c1.79-4.277 6.56-7.144 11.91-7.144h66.366v-25.08h-88.34c-5.35 0-10.12 3.37-11.91 8.4l-27.57 77.52h26.735z" fill="#86d7e5"/></g></g><g id="XMLID_246_"><g><path d="m505.918 291.306v42.05h-2.12-22.81c-3.35 0-6.07-2.72-6.07-6.07v-29.91c0-3.35 2.72-6.07 6.07-6.07z" fill="#de6a66"/></g></g><path d="m498.842 140.33h-271.809c-3.908 0-7.077-3.168-7.077-7.077v-25.21c0-3.908 3.168-7.077 7.077-7.077h271.809c3.908 0 7.077 3.168 7.077 7.077v25.21c-.001 3.909-3.169 7.077-7.077 7.077z" fill="#f6e2c4"/></g><path d="m7.498 301.896h21.974v32.99h-21.974z" fill="#f3b658"/><circle cx="399.866" cy="375.974" fill="#ded4cf" r="36.477"/><path d="m415.813 407.84c-20.146 0-36.477-16.332-36.477-36.477 0-13.666 7.52-25.57 18.644-31.818-19.269.981-34.591 16.916-34.591 36.429 0 20.146 16.331 36.477 36.477 36.477 6.479 0 12.575-1.695 17.849-4.658-.625.032-1.269.047-1.902.047z" fill="#cbc0bb"/></g><g><path d="m185.948 287.988h-7.994c-4.143 0-7.5 3.357-7.5 7.5s3.357 7.5 7.5 7.5h7.994c4.143 0 7.5-3.357 7.5-7.5s-3.357-7.5-7.5-7.5z"/><path d="m498.842 147.83c8.037 0 14.576-6.539 14.576-14.577v-25.21c0-8.037-6.539-14.576-14.576-14.576h-20.646c-4.143 0-7.5 3.357-7.5 7.5s3.357 7.5 7.5 7.5h20.222v24.363h-270.962v-24.363h218.777c4.143 0 7.5-3.357 7.5-7.5s-3.357-7.5-7.5-7.5h-219.2c-8.038 0-14.577 6.539-14.577 14.576v25.21c0 8.038 6.539 14.577 14.577 14.577h.24v17.347c-1.642-.434-3.357-.688-5.134-.688h-57.228c-4.143 0-7.5 3.357-7.5 7.5s3.357 7.5 7.5 7.5h24.447v68.848c0 1.142-.929 2.07-2.071 2.07h-107.619l24.007-67.505c.726-2.042 2.67-3.413 4.838-3.413h24.437c4.143 0 7.5-3.357 7.5-7.5s-3.357-7.5-7.5-7.5h-24.437c-8.5 0-16.124 5.38-18.971 13.388l-26.308 73.972-49.511 15.258c-8.207 2.528-13.723 9.998-13.723 18.589v78.324c0 10.727 8.728 19.454 19.454 19.454h24.34c3.571 20.687 21.633 36.477 43.324 36.477s39.752-15.79 43.324-36.477h226.1c3.571 20.687 21.632 36.477 43.324 36.477s39.753-15.79 43.324-36.477h56.854c7.374 0 13.374-6 13.374-13.375v-107.319c0-7.374-6-13.374-13.374-13.374h-1.443v-101.576zm-224.009 101.576v-17.4h176.208v17.4zm176.208-32.4h-176.208v-24.363h176.208zm0-39.363h-176.208v-29.813h176.208zm-191.208-29.813v101.576h-17.56v-101.576zm-244.833 161.568h17.886c2.16 0 3.917 1.757 3.917 3.917v10.159c0 2.159-1.757 3.916-3.917 3.916h-17.886zm72.118 95.553c-15.979 0-28.978-12.999-28.978-28.977 0-15.979 12.999-28.978 28.978-28.978 15.978 0 28.977 12.999 28.977 28.978 0 15.978-12.999 28.977-28.977 28.977zm312.747 0c-15.978 0-28.977-12.999-28.977-28.977 0-15.979 12.999-28.978 28.977-28.978 15.979 0 28.978 12.999 28.978 28.978 0 15.978-12.999 28.977-28.978 28.977zm43.325-36.476c-3.571-20.687-21.633-36.478-43.324-36.478s-39.752 15.791-43.324 36.478h-114.269v-24.182c0-4.143-3.357-7.5-7.5-7.5s-7.5 3.357-7.5 7.5v24.182h-96.832c-3.571-20.687-21.632-36.478-43.324-36.478s-39.753 15.791-43.324 36.478h-24.34c-2.456 0-4.454-1.998-4.454-4.454v-21.63h17.886c10.431 0 18.917-8.485 18.917-18.916v-10.159c0-10.431-8.486-18.917-18.917-18.917h-17.885v-8.702c0-1.967 1.263-3.678 3.143-4.257l52.027-16.033h117.119c9.413 0 17.071-7.657 17.071-17.07v-68.848h17.78c2.831 0 5.134 2.303 5.134 5.134v127.709c0 4.143 3.357 7.5 7.5 7.5s7.5-3.357 7.5-7.5v-47.925h256.145v19.4h-17.433c-7.481 0-13.568 6.087-13.568 13.568v29.912c0 7.481 6.087 13.568 13.568 13.568h17.433v27.619h-55.229zm55.228-42.62h-16.001v-27.049h16.001zm-14.817-76.449h-17.56v-101.576h17.56z"/></g></g></svg>