<svg id="Capa_1" enable-background="new 0 0 512.025 512.025" height="512" viewBox="0 0 512.025 512.025" width="512" xmlns="http://www.w3.org/2000/svg"><g><g><g fill="#d9f2f6"><circle cx="288.956" cy="459.095" r="25.82"/><circle cx="225.735" cy="459.095" r="25.82"/><circle cx="224.114" cy="395.411" r="25.82"/></g><path d="m399.306 221.06-6.015-47.321 12.031-40.357c-3.94-13.271-9.586-25.81-16.709-37.343l-9.474-1.953-18.78-17.374-.934-15.403c-27.504-24.444-63.721-39.299-103.412-39.299-30.413 0-58.789 8.728-82.769 23.802l9.587 5.582-51.827 51.053-7.601 25.527s-19.731 83.027-19.473 82.253c.054-.162-1.323-.908-3.513-1.979l.087 18.52h311.25v-8.554z" fill="#f7cf8f"/><g><g><circle cx="287.567" cy="395.411" fill="#d9f2f6" r="25.82"/></g><path d="m302.419 29.026c-14.659-4.57-30.248-7.034-46.412-7.034-39.691 0-75.915 14.859-103.418 39.306l1.552 4.446-24.326 27.014-6.416 3.271c-7.13 11.541-12.788 24.065-16.725 37.339l12.147 16.399s-1.536 70.162-2.049 68.882c-.212-.531-7.661.775-16.301 2.484l.026 5.619h46.806l-.197-42.001c0-43 17.43-81.94 45.62-110.12 28.086-28.087 66.863-45.49 109.693-45.605z" fill="#f5c374"/><path d="m411.753 177.739v49.03h-311.25l-.23-49.03c0-15.41 2.22-30.309 6.4-44.369 95.37 37.31 203.28 37.319 298.65.009 4.17 14.07 6.43 28.95 6.43 44.36z" fill="#fbe88c"/><path d="m411.252 165.385-6.146 2.905c-22.674 10.715-47.442 16.273-72.521 16.273h-153.145c-6.73 0-13.471-.412-20.17-1.222-7.002-.847-12.077-7.121-11.382-14.14.717-7.246 1.92-14.342 3.598-21.262-15.176-3.974-30.139-8.829-44.813-14.57-3.052 10.265-5.046 20.981-5.907 32.013-.318 4.079-.494 8.197-.494 12.356l.23 49.03h311.25v-49.03c.001-4.159-.178-8.276-.5-12.353z" fill="#fbe372"/><path d="m100.506 181.85-57.033-26.954c-10.945-5.173-24.021-1.83-31.141 7.96-7.254 9.974-6.221 23.734 2.441 32.514l44.885 45.496c34.713 35.185 82.079 54.993 131.506 54.993h129.699c49.427 0 96.792-19.807 131.506-54.993l44.885-45.496c8.662-8.78 9.695-22.539 2.441-32.514-7.12-9.79-20.197-13.133-31.141-7.96l-57.033 26.954c-24.68 11.664-51.637 17.713-78.934 17.713h-153.147c-27.296 0-54.254-6.049-78.934-17.713z" fill="#f7cf8f"/><path d="m462.424 212.76c-34.713 35.185-82.079 54.992-131.506 54.992h-129.698c-49.427 0-96.792-19.807-131.506-54.992l-44.885-45.496c-2.984-3.025-5.04-6.646-6.186-10.495-2.39 1.607-4.536 3.646-6.311 6.087-7.254 9.974-6.221 23.734 2.441 32.513l44.885 45.496c34.713 35.185 82.079 54.992 131.506 54.992h129.699c49.427 0 96.792-19.807 131.506-54.992l44.885-45.496c6.471-6.559 8.68-15.896 6.361-24.359z" fill="#f5c374"/><g id="XMLID_248_"><g><path d="m388.613 96.039c-85.52 29.15-179.694 29.142-265.214-.008 6.38-10.34 13.944-19.872 22.494-28.412 2.17-2.17 4.396-4.28 6.696-6.32 67.6 17.5 139.234 17.51 206.834.01 11.34 10.07 21.18 21.76 29.19 34.73z" fill="#fbe88c"/></g></g><g id="XMLID_247_"><g><path d="m277.943 447.849v21.36c0 11.49-9.32 20.81-20.81 20.81-5.75 0-10.96-2.33-14.72-6.1-3.77-3.76-6.1-8.96-6.1-14.71v-20.13h-21.36c-11.49 0-20.81-9.32-20.81-20.82 0-5.74 2.33-10.95 6.1-14.71 3.76-3.77 8.97-6.1 14.71-6.1h20.13v-21.36c0-11.49 9.32-20.81 20.81-20.81 5.75 0 10.96 2.33 14.72 6.1 3.77 3.76 6.1 8.96 6.1 14.71v20.13h21.36c11.49 0 20.81 9.32 20.81 20.81 0 5.75-2.33 10.95-6.1 14.72-3.76 3.77-8.97 6.1-14.71 6.1z" fill="#b3e5ee"/></g></g><circle cx="256.513" cy="427.647" fill="#fbe372" r="28.784"/></g><path d="m152.589 61.299c-2.3 2.04-4.526 4.15-6.696 6.32-8.55 8.54-16.114 18.072-22.494 28.412 14.375 4.9 28.998 8.956 43.78 12.209 6.979-12.347 15.588-23.652 25.548-33.608 1.493-1.493 3.023-2.949 4.575-4.381-15.041-2.153-29.973-5.136-44.713-8.952z" fill="#fbe372"/></g><path d="m504.638 156.99c-9.512-11.662-25.891-15.207-39.827-8.621l-45.749 21.621c-4.062-86.423-75.638-155.483-163.049-155.483-5.904 0-11.922.33-17.885.979-4.118.449-7.092 4.151-6.644 8.269.449 4.117 4.146 7.096 8.269 6.644 5.426-.592 10.896-.892 16.26-.892 32.344 0 62.295 10.419 86.691 28.068-57.072 12.488-116.487 12.47-173.553-.044 12.185-8.787 25.855-15.826 40.716-20.69 3.937-1.288 6.083-5.524 4.795-9.461-1.288-3.936-5.522-6.086-9.461-4.795-32.439 10.617-60.341 30.822-80.686 58.431-19.229 26.094-30.056 56.71-31.552 88.974l-4.915-2.323c-3.615-1.738-8.027-.307-9.929 3.225-1.964 3.646-.6 8.195 3.048 10.159.382.205.772.374 1.17.508l14.955 7.068c25.521 12.062 53.933 18.437 82.162 18.437h153.119c28.229 0 56.641-6.375 82.162-18.437l56.486-26.695c7.562-3.58 16.731-1.668 21.793 4.539 5.731 7.028 5.259 17.188-1.1 23.632l-44.885 45.496c-8.008 8.117-16.864 15.502-26.325 21.952-3.139 2.058-4.309 6.185-2.589 9.623 1.313 2.628 3.963 4.147 6.714 4.147 1.127 0 2.271-.256 3.349-.794.166-.083.33-.173.49-.269.13-.077.257-.158.381-.243 10.3-7.012 19.941-15.047 28.658-23.882l16.355-16.578v46.259c0 82.554-65.807 150.018-147.719 152.712.026-.495.04-.992.04-1.493 0-8.558-3.822-16.236-9.844-21.433 4.092-10.885 1.621-23.414-6.948-31.984-8.715-8.714-21.772-11.06-32.793-6.604-5.181-5.671-12.633-9.235-20.901-9.235-8.569 0-16.255 3.832-21.451 9.865-10.882-4.088-23.398-1.639-31.965 6.927-8.713 8.714-11.06 21.771-6.605 32.793-5.671 5.181-9.235 12.632-9.235 20.901 0 .087.006.173.007.26-81.896-2.711-147.685-70.166-147.685-152.708v-45.245l15.355 15.565c17.978 18.222 39.066 32.468 62.681 42.343 23.615 9.876 48.567 14.883 74.164 14.883h129.699c27.363 0 53.899-5.696 78.87-16.93.093-.042.186-.086.277-.132.721-.36 1.384-.838 1.954-1.407 2.929-2.93 2.929-7.678 0-10.607-2.316-2.315-5.771-2.801-8.56-1.455-22.974 10.307-47.378 15.531-72.542 15.531h-129.698c-47.101 0-93.086-19.23-126.167-52.761l-44.885-45.496c-6.358-6.444-6.831-16.604-1.101-23.632 5.062-6.205 14.23-8.114 21.794-4.539l10.878 5.141c.136.086.273.168.416.246 3.627 2.001 8.189.685 10.189-2.943 1.004-1.818 1.213-4.018.569-5.992-.64-1.963-2.089-3.607-3.955-4.49l-11.688-5.523c-13.938-6.584-30.313-3.043-39.828 8.621-10.582 12.977-9.702 31.74 2.047 43.647l14.529 14.727v60.45c0 92.333 74.96 167.48 167.22 167.798 1.473 2.273 3.261 4.321 5.305 6.084-4.092 10.885-1.623 23.412 6.946 31.982 5.832 5.831 13.608 8.813 21.419 8.813 3.857 0 7.714-.753 11.355-2.229 5.182 5.683 12.642 9.255 20.92 9.255 8.564 0 16.247-3.828 21.443-9.856 3.426 1.294 7.013 1.944 10.592 1.944 7.784 0 15.512-3.011 21.381-8.88 8.713-8.714 11.06-21.771 6.605-32.793 1.425-1.301 2.711-2.749 3.847-4.314h.261c92.528 0 167.806-75.277 167.806-167.806v-61.463l13.529-13.714c11.751-11.908 12.631-30.672 2.048-43.648zm-377.9-51.964c41.806 13.568 85.538 20.371 129.274 20.371 43.695 0 87.386-6.79 129.156-20.332 4.271 7.559 7.895 15.528 10.802 23.833-44.631 16.556-91.675 24.964-139.958 24.964-48.304 0-95.366-8.418-140.013-24.988 2.881-8.288 6.481-16.266 10.739-23.848zm27.829-35.496c33.23 8.268 67.337 12.414 101.446 12.414 34.042 0 68.081-4.13 101.25-12.365 7.247 6.788 13.821 14.287 19.593 22.396-78.355 24.562-163.479 24.55-241.826-.042 5.731-8.087 12.272-15.597 19.537-22.403zm24.886 122.533c-24.532 0-49.21-5.227-71.669-15.139.062-11.512 1.439-22.772 4.011-33.617 46.021 16.945 94.489 25.555 144.218 25.555 49.72 0 98.18-8.606 144.192-25.545 2.578 10.797 3.971 22.047 4.035 33.608-22.458 9.912-47.136 15.138-71.667 15.138zm22.189 236.199c0-7.342 5.973-13.314 13.314-13.314h7.571c-1.483 3.955-2.299 8.233-2.299 12.7 0 4.933.993 9.637 2.784 13.929h-8.057c-7.341 0-13.313-5.973-13.313-13.315zm33.586-.614c0-11.736 9.548-21.285 21.284-21.285s21.284 9.549 21.284 21.285-9.548 21.284-21.284 21.284-21.284-9.548-21.284-21.284zm54.784-13.93h8.057c7.342 0 13.314 5.973 13.314 13.314s-5.973 13.314-13.314 13.314h-7.571c1.483-3.955 2.299-8.233 2.299-12.699 0-4.933-.994-9.637-2.785-13.929zm8.973-29.496c4.005 4.006 5.362 9.727 3.895 14.913-1.565-.269-3.17-.417-4.811-.417h-13.857v-12.628c0-1.922-.194-3.799-.561-5.614 5.283-1.637 11.253-.336 15.334 3.746zm-43.088-11.446c7.342 0 13.314 5.973 13.314 13.314v7.571c-3.955-1.483-8.233-2.299-12.699-2.299-4.933 0-9.638.993-13.93 2.785v-8.057c.001-7.342 5.974-13.314 13.315-13.314zm-42.808 12.398c4.005-4.005 9.725-5.361 14.911-3.894-.269 1.564-.417 3.17-.417 4.81v13.857h-12.627c-1.922 0-3.799.194-5.614.561-1.637-5.282-.334-11.252 3.747-15.334zm.951 85.899c-4.005-4.006-5.362-9.727-3.895-14.913 1.565.269 3.17.417 4.811.417h13.857v12.628c0 1.922.194 3.798.561 5.614-5.283 1.637-11.253.335-15.334-3.746zm43.088 11.446c-7.342 0-13.314-5.973-13.314-13.314v-7.571c3.955 1.483 8.233 2.299 12.699 2.299 4.933 0 9.638-.993 13.93-2.785v8.057c-.001 7.341-5.973 13.314-13.315 13.314zm42.808-12.399c-4.005 4.005-9.725 5.362-14.911 3.895.269-1.565.417-3.17.417-4.811v-13.857h12.627c1.917 0 3.79-.194 5.601-.559 1.641 5.283.348 11.25-3.734 15.332z"/></g></svg>