<svg id="Capa_1" enable-background="new 0 0 512 512" height="512" viewBox="0 0 512 512" width="512" xmlns="http://www.w3.org/2000/svg"><g><g><path d="m174.441 385.946h163.118v118.585h-163.118z" fill="#fcf1de"/><path d="m174.441 385.946v118.585h25.596v-60.377c0-7.199 5.837-13.036 13.036-13.036h124.486v-41.644-3.527h-163.118z" fill="#f6e2c4"/><path d="m326.352 322.67 18.79 43.393c.449 1.037.68 2.154.68 3.284v38.57c0 4.563-3.699 8.263-8.263 8.263h-163.118c-4.563 0-8.263-3.7-8.263-8.263v-38.57c0-1.129.231-2.247.68-3.284l19.691-45.475 7.152-109.318c2.147-32.828 29.4-58.356 62.298-58.356 32.898 0 60.151 25.528 62.298 58.356l3.726 56.944z" fill="#c9a291"/><path d="m208.299 394.389c-4.563 0-8.263-3.393-8.263-7.579v-35.377c0-1.036.231-2.061.68-3.012l15.246-32.295c2.938-6.223 4.697-12.938 5.186-19.802l6.411-89.884c1.756-24.624 20.305-44.779 44.996-51.304-5.281-1.451-10.83-2.222-16.556-2.222-32.898 0-60.151 25.528-62.298 58.356l-7.152 109.318-19.691 45.475c-.449 1.037-.68 2.154-.68 3.284v38.57c0 4.563 3.7 8.263 8.263 8.263h163.118c4.563 0 8.263-3.7 8.263-8.263v-13.527h-137.523z" fill="#be8f7d"/><g><path d="m277.755 504.531h-44.505v-15.764c0-12.29 9.963-22.253 22.253-22.253 12.29 0 22.253 9.963 22.253 22.253v15.764z" fill="#f6e2c4"/></g><g fill="#d9f2f6"><path d="m200.036 268.714-107.748 107.747c-1.135 1.135-2.978 1.135-4.113 0l-20.954-20.954c-1.135-1.135-1.135-2.968 0-4.103l105.696-105.696c1.086-1.086 2.828-1.086 3.904 0z"/><path d="m429.696 365.318c1.135 1.135 1.135 2.978 0 4.113l-20.954 20.954c-1.135 1.135-2.978 1.135-4.113 0l-105.696-105.696c-1.076-1.076-1.076-2.828 0-3.904l23.155-23.065z"/><path d="m449.974 55.174c1.135 1.135 1.135 2.968 0 4.103l-105.696 105.696c-1.086 1.086-2.828 1.086-3.904 0l-23.165-23.055 107.698-107.698c1.135-1.135 2.978-1.135 4.113 0z"/></g><g><path d="m218.898 114.293c1.076 1.076 1.076 2.828 0 3.904l-23.105 23.115-107.659-107.648c-1.135-1.135-1.135-2.978 0-4.113l20.954-20.954c1.135-1.135 2.978-1.135 4.113 0z" fill="#d9f2f6"/></g><circle cx="256" cy="202.19" fill="#be8f7d" r="20.668"/><path d="m246.137 201.319c0-8.958 5.714-16.577 13.684-19.445-1.238-.231-2.515-.353-3.82-.353-11.415 0-20.668 9.254-20.668 20.668s9.254 20.668 20.668 20.668c2.457 0 4.812-.428 6.998-1.215-9.59-1.791-16.862-10.213-16.862-20.323z" fill="#b37e67"/></g><path d="m377.733 130.586c2.917 2.916 7.647 2.916 10.563 0l66.854-66.856c4.045-4.045 4.045-10.628 0-14.674l-20.954-20.954c-4.045-4.044-10.628-4.044-14.673 0l-127.444 127.446c-10.572-6.408-22.931-10.104-36.079-10.104s-25.507 3.696-36.079 10.104l-14.515-14.515 17.828-17.829c1.934-1.932 2.999-4.503 2.999-7.236s-1.065-5.303-2.997-7.234l-23.384-23.384c-2.917-2.916-7.647-2.916-10.563 0-2.917 2.918-2.917 7.647 0 10.564l20.055 20.055-14.5 14.5-99.142-99.14 14.501-14.501 56.577 56.577c2.917 2.916 7.647 2.916 10.563 0 2.917-2.918 2.917-7.647 0-10.564l-59.804-59.802c-1.96-1.96-4.565-3.039-7.336-3.039-2.772 0-5.378 1.08-7.336 3.039l-20.955 20.953c-1.96 1.96-3.04 4.565-3.04 7.337s1.08 5.377 3.04 7.337l126.022 126.022c-12.366 11.732-20.498 27.934-21.686 46.095l-2.052 31.356-7.184-7.184c-1.932-1.933-4.503-2.999-7.235-2.999s-5.302 1.065-7.233 2.997l-105.696 105.696c-4.045 4.045-4.045 10.628 0 14.674l20.953 20.952c1.96 1.961 4.565 3.041 7.338 3.041 2.772 0 5.377-1.079 7.337-3.039l88.752-88.752-2.047 31.282-19.176 44.285c-.859 1.985-1.296 4.088-1.296 6.253v38.569c0 5.973 3.346 11.178 8.262 13.842v25.001c0 4.126 3.344 7.469 7.469 7.469s7.469-3.343 7.469-7.469v-23.111h148.18v73.414h-44.866v-8.295c0-16.389-13.333-29.722-29.722-29.722s-29.722 13.333-29.722 29.722v8.295h-43.87v-18.471c0-4.126-3.344-7.469-7.469-7.469s-7.469 3.343-7.469 7.469v18.471h-7.111c-4.125 0-7.469 3.343-7.469 7.469s3.344 7.469 7.469 7.469h194.314c4.125 0 7.469-3.343 7.469-7.469s-3.344-7.469-7.469-7.469h-9.147v-75.304c4.916-2.664 8.262-7.869 8.262-13.842v-38.569c0-2.165-.436-4.268-1.296-6.251l-3.221-7.438 45.685 45.685c1.96 1.96 4.565 3.039 7.337 3.039s5.378-1.08 7.336-3.039l20.955-20.954c1.96-1.96 3.04-4.565 3.04-7.337s-1.08-5.377-3.04-7.337l-100.792-100.793-3.541-54.138c-1.188-18.16-9.32-34.364-21.686-46.095l13.092-13.092 17.829 17.829c1.932 1.933 4.503 2.999 7.235 2.999 2.734 0 5.303-1.065 7.234-2.997l16.332-16.332c2.917-2.918 2.917-7.647 0-10.564-2.917-2.916-7.647-2.916-10.563 0l-13.003 13.004-14.5-14.501 99.14-99.14 14.501 14.501-63.629 63.629c-2.918 2.916-2.918 7.645-.001 10.563zm-137.014 358.179c0-8.152 6.632-14.783 14.783-14.783 8.152 0 14.783 6.632 14.783 14.783v8.295h-29.567zm15.281-328.381c9.021 0 17.575 2.203 25.131 6.112l-11.24 11.24c-4.101-2.339-8.841-3.683-13.891-3.683s-9.79 1.343-13.891 3.683l-11.24-11.24c7.555-3.909 16.11-6.112 25.131-6.112zm-13.2 41.807c0-7.278 5.921-13.199 13.199-13.199s13.199 5.921 13.199 13.199-5.921 13.199-13.199 13.199-13.199-5.922-13.199-13.199zm-24.313-26.949 13.058 13.057c-2.339 4.102-3.683 8.841-3.683 13.891s1.344 9.79 3.683 13.891l-32.82 32.82 2.43-37.145c.942-14.416 7.449-27.27 17.332-36.514zm-133.349 187.247-14.501-14.501 99.14-99.14 13.121 13.121-.193 2.953zm253.149 6.545c.043.099.065.204.065.313v38.569c0 .437-.356.794-.793.794h-163.118c-.437 0-.793-.356-.793-.794v-38.569c0-.109.022-.215.065-.315l19.691-45.475c.341-.787.543-1.625.6-2.481l3.243-49.568 44.863-44.863c4.101 2.339 8.841 3.683 13.891 3.683s9.79-1.344 13.891-3.683l36.703 36.703-17.832 17.831c-3.986 3.988-3.986 10.478.001 14.467l31.299 31.3zm63.509 18.519-99.14-99.14 14.501-14.501 99.14 99.14zm-90.951-175.795 2.43 37.145-32.82-32.82c2.339-4.102 3.683-8.841 3.683-13.891s-1.344-9.79-3.683-13.891l13.057-13.057c9.883 9.242 16.39 22.096 17.333 36.514z"/></g></svg>