<svg id="Capa_1" enable-background="new 0 0 511.8 511.8" height="512" viewBox="0 0 511.8 511.8" width="512" xmlns="http://www.w3.org/2000/svg"><g><g><path d="m192.915 178.516c0-20.411-8.108-39.985-22.54-54.418l-8.529-8.529v-45.536l7.228-7.228c2.358-2.358 3.682-5.555 3.682-8.889v-10.447l.254-20.554h-86.904v20.554 10.446c0 3.334 1.324 6.532 3.682 8.889l7.228 7.228v45.537l-8.529 8.529c-14.432 14.432-22.54 34.007-22.54 54.418v92.732h126.969v-92.732z" fill="#f9f7f7"/><path d="m104.71 22.915h-18.604v20.554 10.446c0 3.334 1.324 6.532 3.682 8.889l7.228 7.228v45.537l-8.529 8.529c-14.432 14.432-22.54 34.007-22.54 54.417v92.733h27.959v-90.163c0-20.411 8.108-39.986 22.541-54.418l2.82-2.82c3.655-3.655 5.709-8.612 5.709-13.782v-29.39c0-5.169-2.054-10.127-5.709-13.782l-1.518-1.518c-2.358-2.357-3.682-5.555-3.682-8.889 0-.561.455-1.016 1.016-1.016h54.141c1.186 0 2.342-.123 3.473-.321.04-.408.061-.82.061-1.233v-10.447l.254-20.554z" fill="#f8f3f2"/><path d="m169.222 43.469h-79.582c-4.506 0-8.159-3.653-8.159-8.159v-19.652c0-4.506 3.653-8.159 8.159-8.159h79.582c4.506 0 8.159 3.653 8.159 8.159v19.652c0 4.507-3.653 8.159-8.159 8.159z" fill="#d9f2f6"/><path d="m101.837 34.289c-4.506 0-8.159-3.653-8.159-8.159v-18.63h-4.038c-4.506 0-8.159 3.653-8.159 8.159v19.652c0 4.506 3.653 8.159 8.159 8.159h79.582c4.506 0 8.159-3.653 8.159-8.159v-1.021h-75.544z" fill="#b3e5ee"/><path d="m319.884 177.569c0-20.411-8.108-39.985-22.54-54.418l-8.529-8.529v-45.537l7.228-7.228c2.358-2.358 3.682-5.555 3.682-8.889v-10.446l.254-20.554h-86.904v20.554 10.446c0 3.334 1.324 6.532 3.682 8.889l7.228 7.228v45.537l-8.529 8.529c-14.432 14.432-22.54 34.007-22.54 54.418v92.732h126.969v-92.732z" fill="#f9f7f7"/><path d="m231.679 21.968h-18.604v20.554 10.446c0 3.334 1.324 6.532 3.682 8.889l7.228 7.228v45.537l-8.529 8.529c-14.432 14.432-22.54 34.007-22.54 54.417v92.733h27.959v-90.163c0-20.411 8.108-39.986 22.541-54.418l2.82-2.82c3.655-3.655 5.709-8.612 5.709-13.782v-29.39c0-5.169-2.054-10.127-5.709-13.782l-1.518-1.518c-2.358-2.357-3.682-5.555-3.682-8.889 0-.561.455-1.016 1.016-1.016h54.141c1.186 0 2.342-.123 3.473-.321.04-.408.061-.82.061-1.233v-10.447l.254-20.554z" fill="#f8f3f2"/><path d="m296.191 42.522h-79.582c-4.506 0-8.159-3.653-8.159-8.159v-19.652c0-4.506 3.653-8.159 8.159-8.159h79.582c4.506 0 8.159 3.653 8.159 8.159v19.652c0 4.506-3.653 8.159-8.159 8.159z" fill="#d9f2f6"/><path d="m228.806 33.342c-4.506 0-8.159-3.653-8.159-8.159v-18.631h-4.038c-4.506 0-8.159 3.653-8.159 8.159v19.652c0 4.506 3.653 8.159 8.159 8.159h79.582c4.506 0 8.159-3.653 8.159-8.159v-1.021z" fill="#b3e5ee"/><path d="m446.853 178.516c0-20.411-8.108-39.985-22.54-54.418l-8.529-8.529v-45.536l7.228-7.228c2.358-2.358 3.682-5.555 3.682-8.889v-10.447l.254-20.554h-86.904v20.554 10.446c0 3.334 1.324 6.532 3.682 8.889l7.228 7.228v45.537l-8.529 8.529c-14.432 14.432-22.54 34.007-22.54 54.418v92.732h126.969v-92.732z" fill="#f9f7f7"/><path d="m358.648 22.915h-18.604v20.554 10.446c0 3.334 1.324 6.532 3.682 8.889l7.228 7.228v45.537l-8.529 8.529c-14.432 14.432-22.54 34.007-22.54 54.417v92.733h27.959v-90.163c0-20.411 8.108-39.986 22.541-54.418l2.82-2.82c3.655-3.655 5.709-8.612 5.709-13.782v-29.39c0-5.169-2.054-10.127-5.709-13.782l-1.518-1.518c-2.358-2.357-3.682-5.555-3.682-8.889 0-.561.455-1.016 1.016-1.016h54.141c1.186 0 2.342-.123 3.473-.321.04-.408.061-.82.061-1.233v-10.447l.254-20.554z" fill="#f8f3f2"/><path d="m423.16 43.469h-79.582c-4.506 0-8.159-3.653-8.159-8.159v-19.652c0-4.506 3.653-8.159 8.159-8.159h79.582c4.506 0 8.159 3.653 8.159 8.159v19.652c0 4.507-3.653 8.159-8.159 8.159z" fill="#d9f2f6"/><path d="m355.775 34.289c-4.506 0-8.159-3.653-8.159-8.159v-18.63h-4.038c-4.506 0-8.159 3.653-8.159 8.159v19.652c0 4.506 3.653 8.159 8.159 8.159h79.582c4.506 0 8.159-3.653 8.159-8.159v-1.021h-75.544z" fill="#b3e5ee"/><g><g fill="#c9a291"><path d="m487.439 298.113h-463.079c-9.245 0-16.74-7.495-16.74-16.74v-35.248c0-9.245 7.495-16.74 16.74-16.74h463.079c9.245 0 16.74 7.495 16.74 16.74v35.248c.001 9.245-7.494 16.74-16.74 16.74z"/><path d="m487.439 366.842h-463.079c-9.245 0-16.74-7.495-16.74-16.74v-35.248c0-9.245 7.495-16.74 16.74-16.74h463.079c9.245 0 16.74 7.495 16.74 16.74v35.248c.001 9.245-7.494 16.74-16.74 16.74z"/><path d="m487.439 435.571h-463.079c-9.245 0-16.74-7.495-16.74-16.74v-35.248c0-9.245 7.495-16.74 16.74-16.74h463.079c9.245 0 16.74 7.495 16.74 16.74v35.248c.001 9.245-7.494 16.74-16.74 16.74z"/><path d="m487.439 504.3h-463.079c-9.245 0-16.74-7.495-16.74-16.74v-35.248c0-9.245 7.495-16.74 16.74-16.74h463.079c9.245 0 16.74 7.495 16.74 16.74v35.248c.001 9.245-7.494 16.74-16.74 16.74z"/></g><path d="m52.08 280.505c-9.245 0-16.74-7.495-16.74-16.74v-34.381h-10.98c-9.245 0-16.74 7.495-16.74 16.74v35.248c0 9.245 7.495 16.74 16.74 16.74h463.079c9.245 0 16.74-7.495 16.74-16.74v-.867z" fill="#be8f7d"/><path d="m52.08 349.234c-9.245 0-16.74-7.495-16.74-16.74v-34.381h-10.98c-9.245 0-16.74 7.495-16.74 16.74v35.248c0 9.245 7.495 16.74 16.74 16.74h463.079c9.245 0 16.74-7.495 16.74-16.74v-.867z" fill="#be8f7d"/><path d="m52.08 417.963c-9.245 0-16.74-7.495-16.74-16.74v-34.381h-10.98c-9.245 0-16.74 7.495-16.74 16.74v35.248c0 9.246 7.495 16.74 16.74 16.74h463.079c9.245 0 16.74-7.495 16.74-16.74v-.867z" fill="#be8f7d"/><path d="m52.08 486.692c-9.245 0-16.74-7.495-16.74-16.74v-34.381h-10.98c-9.245 0-16.74 7.495-16.74 16.74v35.248c0 9.246 7.495 16.74 16.74 16.74h463.079c9.245 0 16.74-7.495 16.74-16.74v-.867z" fill="#be8f7d"/></g></g><g><path d="m511.68 246.124c0-13.366-10.874-24.24-24.24-24.24h-33.086v-43.368c0-22.561-8.785-43.77-24.737-59.72l-6.332-6.333v-39.324l5.031-5.03c3.791-3.791 5.878-8.831 5.878-14.192v-7.507c2.854-2.838 4.625-6.765 4.625-11.098v-19.654c0-8.634-7.025-15.658-15.659-15.658h-19.086c-4.142 0-7.5 3.357-7.5 7.5s3.358 7.5 7.5 7.5h19.086c.363 0 .659.295.659.658v19.652c0 .363-.295.659-.659.659h-79.583c-.363 0-.659-.296-.659-.659v-19.652c0-.363.295-.658.659-.658h28.533c4.142 0 7.5-3.357 7.5-7.5s-3.358-7.5-7.5-7.5h-28.533c-8.634 0-15.659 7.024-15.659 15.658v19.652c0 4.333 1.771 8.26 4.625 11.098v7.507c0 5.36 2.088 10.401 5.879 14.192l5.031 5.03v39.324l-6.332 6.332c-7.309 7.309-13.093 15.731-17.237 24.871-4.144-9.141-9.928-17.562-17.237-24.87l-6.332-6.333v-39.322l5.031-5.03c3.791-3.791 5.879-8.832 5.879-14.192v-7.508c2.854-2.838 4.625-6.764 4.625-11.098v-19.653c0-8.634-7.025-15.658-15.659-15.658h-79.582c-8.634 0-15.659 7.024-15.659 15.658v19.652c0 4.333 1.771 8.26 4.625 11.098v7.508c0 5.36 2.088 10.401 5.879 14.192l5.031 5.03v39.324l-6.332 6.332c-7.309 7.309-13.093 15.73-17.237 24.871-4.144-9.14-9.928-17.562-17.237-24.87l-6.332-6.333v-39.323l5.031-5.03c3.791-3.791 5.879-8.832 5.879-14.192v-7.507c2.854-2.838 4.625-6.765 4.625-11.098v-19.654c-.001-8.634-7.026-15.658-15.66-15.658h-79.582c-8.634 0-15.659 7.024-15.659 15.658v19.652c0 4.333 1.771 8.26 4.625 11.098v7.506c0 5.361 2.087 10.402 5.878 14.193l5.031 5.03v39.324l-6.332 6.332c-15.952 15.951-24.737 37.16-24.737 59.721v.19c0 4.143 3.358 7.5 7.5 7.5s7.5-3.357 7.5-7.5v-.19c0-18.554 7.225-35.995 20.344-49.114l8.529-8.529c1.407-1.406 2.197-3.313 2.197-5.303v-45.536c0-1.989-.79-3.896-2.197-5.304l-7.228-7.228c-.944-.943-1.485-2.25-1.485-3.586v-2.944h71.65v2.946c0 1.354-.527 2.628-1.485 3.585l-7.228 7.228c-1.407 1.407-2.197 3.314-2.197 5.304v45.537c0 1.989.79 3.896 2.197 5.303l8.529 8.53c13.119 13.118 20.344 30.561 20.344 49.113v43.368h-111.97v-11.215c0-4.143-3.358-7.5-7.5-7.5s-7.5 3.357-7.5 7.5v11.215h-34.086c-13.366 0-24.24 10.874-24.24 24.24v35.248c0 6.489 2.568 12.385 6.734 16.741-4.167 4.355-6.734 10.252-6.734 16.741v35.248c0 6.489 2.568 12.385 6.734 16.74-4.166 4.355-6.734 10.252-6.734 16.74v35.249c0 6.489 2.568 12.385 6.734 16.74-4.166 4.355-6.734 10.252-6.734 16.74v35.248c0 13.366 10.874 24.24 24.24 24.24h463.079c13.366 0 24.24-10.874 24.24-24.24v-35.248c0-6.489-2.568-12.385-6.734-16.74 4.166-4.355 6.734-10.252 6.734-16.74v-35.249c0-6.489-2.568-12.385-6.734-16.74 4.166-4.355 6.734-10.252 6.734-16.74v-35.248c0-6.489-2.568-12.385-6.734-16.741 4.167-4.355 6.734-10.252 6.734-16.741v-35.248zm-422.699-230.466c0-.363.295-.658.659-.658h79.583c.363 0 .659.295.659.658v19.652c0 .363-.295.659-.659.659h-79.583c-.363 0-.659-.296-.659-.659zm126.969 0c0-.363.295-.658.659-.658h79.582c.363 0 .659.295.659.658v19.652c0 .363-.295.659-.659.659h-79.582c-.363 0-.659-.296-.659-.659zm-15.534 162.858c0-18.554 7.225-35.996 20.344-49.114l8.529-8.529c1.407-1.406 2.197-3.313 2.197-5.303v-45.538c0-1.989-.79-3.896-2.197-5.304l-7.228-7.228c-.958-.957-1.485-2.23-1.485-3.585v-2.945h71.65v2.946c0 1.354-.527 2.628-1.485 3.585l-7.228 7.228c-1.407 1.407-2.197 3.314-2.197 5.304v45.537c0 1.989.79 3.896 2.197 5.303l8.529 8.53c13.119 13.117 20.344 30.56 20.344 49.113v43.368h-111.97zm-185.296 67.608c0-5.095 4.145-9.24 9.24-9.24h363.732c4.142 0 7.5-3.357 7.5-7.5s-3.358-7.5-7.5-7.5h-60.708v-43.368c0-18.553 7.225-35.995 20.344-49.114l8.529-8.529c1.407-1.406 2.197-3.313 2.197-5.303v-45.538c0-1.989-.79-3.896-2.197-5.304l-7.228-7.228c-.958-.957-1.485-2.23-1.485-3.585v-2.945h71.65v2.946c0 1.354-.527 2.628-1.485 3.585l-7.228 7.228c-1.407 1.407-2.197 3.314-2.197 5.304v45.537c0 1.989.79 3.896 2.197 5.303l8.529 8.53c13.119 13.117 20.344 30.56 20.344 49.113v43.368h-19.299c-4.142 0-7.5 3.357-7.5 7.5s3.358 7.5 7.5 7.5h67.385c5.095 0 9.24 4.146 9.24 9.24v35.248c0 5.095-4.145 9.24-9.24 9.24h-463.08c-5.095 0-9.24-4.146-9.24-9.24zm481.56 103.978c0 5.095-4.145 9.24-9.24 9.24h-463.08c-5.095 0-9.24-4.146-9.24-9.24v-35.248c0-5.095 4.145-9.24 9.24-9.24h463.079c5.095 0 9.24 4.146 9.24 9.24v35.248zm0 33.48v35.249c0 5.095-4.145 9.24-9.24 9.24h-463.08c-5.095 0-9.24-4.146-9.24-9.24v-35.249c0-5.095 4.145-9.24 9.24-9.24h463.079c5.096 0 9.241 4.145 9.241 9.24zm0 103.978c0 5.095-4.145 9.24-9.24 9.24h-463.08c-5.095 0-9.24-4.146-9.24-9.24v-35.248c0-5.095 4.145-9.24 9.24-9.24h463.079c5.095 0 9.24 4.146 9.24 9.24v35.248z"/><path d="m48.814 271.248h4.566c4.142 0 7.5-3.357 7.5-7.5s-3.358-7.5-7.5-7.5h-4.566c-4.142 0-7.5 3.357-7.5 7.5s3.358 7.5 7.5 7.5z"/><path d="m53.38 324.978h-4.566c-4.142 0-7.5 3.357-7.5 7.5s3.358 7.5 7.5 7.5h4.566c4.142 0 7.5-3.357 7.5-7.5s-3.358-7.5-7.5-7.5z"/><path d="m48.814 408.706h4.566c4.142 0 7.5-3.357 7.5-7.5s-3.358-7.5-7.5-7.5h-4.566c-4.142 0-7.5 3.357-7.5 7.5s3.358 7.5 7.5 7.5z"/><path d="m53.38 462.436h-4.566c-4.142 0-7.5 3.357-7.5 7.5s3.358 7.5 7.5 7.5h4.566c4.142 0 7.5-3.357 7.5-7.5s-3.358-7.5-7.5-7.5z"/><path d="m459.42 271.248h4.566c4.142 0 7.5-3.357 7.5-7.5s-3.358-7.5-7.5-7.5h-4.566c-4.142 0-7.5 3.357-7.5 7.5s3.358 7.5 7.5 7.5z"/><path d="m463.986 324.978h-4.566c-4.142 0-7.5 3.357-7.5 7.5s3.358 7.5 7.5 7.5h4.566c4.142 0 7.5-3.357 7.5-7.5s-3.358-7.5-7.5-7.5z"/><path d="m459.42 408.706h4.566c4.142 0 7.5-3.357 7.5-7.5s-3.358-7.5-7.5-7.5h-4.566c-4.142 0-7.5 3.357-7.5 7.5s3.358 7.5 7.5 7.5z"/><path d="m463.986 462.436h-4.566c-4.142 0-7.5 3.357-7.5 7.5s3.358 7.5 7.5 7.5h4.566c4.142 0 7.5-3.357 7.5-7.5s-3.358-7.5-7.5-7.5z"/></g></g></svg>