<svg id="Capa_1" enable-background="new 0 0 512.374 512.374" height="512" viewBox="0 0 512.374 512.374" width="512" xmlns="http://www.w3.org/2000/svg"><g><g><path d="m312.937 264.123h-125.526c-3.75 0-6.467 3.575-5.463 7.188l13.534 48.719 7.368 27.178 95.122-2.665 6.894-24.513 13.534-48.72c1.003-3.613-1.714-7.187-5.463-7.187z" fill="#d9f2f6"/><path d="m219.899 333.044-11.822-42.556c-1.864-6.711 3.183-13.351 10.148-13.351h98.556l1.619-5.827c1.004-3.613-1.713-7.188-5.463-7.188h-125.526c-3.75 0-6.467 3.575-5.463 7.188l13.534 48.719 7.368 27.178 20.731-.581z" fill="#b3e5ee"/><path d="m359.78 114.153h33.88v225.876h-33.88z" fill="#f7d8a4" transform="matrix(-1 0 0 -1 753.44 454.182)"/><path d="m104.252 108.153h33.88v231.876h-33.88z" fill="#f7d8a4"/><g><path d="m359.78 114.153h33.88v36h-33.88z" fill="#f5cd8b"/><path d="m104.252 108.153h33.88v42h-33.88z" fill="#f5cd8b"/><path d="m405.096 130.153h-308.844c-6.123 0-10.457-5.983-8.548-11.801l34.336-104.66c1.212-3.694 4.66-6.192 8.548-6.192h240.172c3.888 0 7.336 2.498 8.548 6.192l34.336 104.66c1.909 5.817-2.425 11.801-8.548 11.801z" fill="#c9a291"/><path d="m411.436 111.622h-277.068c-6.123 0-10.457-5.983-8.548-11.801l30.288-92.321h-25.52c-3.888 0-7.336 2.498-8.548 6.192l-34.336 104.66c-1.909 5.818 2.426 11.801 8.548 11.801h308.844c6.123 0 10.457-5.983 8.548-11.801z" fill="#be8f7d"/><path d="m104.252 300.029h33.88v40h-33.88z" fill="#f5cd8b"/><path d="m359.78 300.029h33.88v40h-33.88z" fill="#f5cd8b"/><path d="m423.218 320.029h-346.088c-7.838 0-14.192 6.354-14.192 14.192v148.225h374.472v-148.225c0-7.838-6.354-14.192-14.192-14.192z" fill="#f6e2c4"/><path d="m115.686 442.122c-7.882 0-14.272-6.39-14.272-14.272v-95.545c0-5.249 2.857-9.821 7.094-12.276h-31.378c-7.838 0-14.192 6.354-14.192 14.192v148.225h374.472v-40.323h-321.724z" fill="#f8dbac"/><path d="m445.345 462.446h-390.342c-5.379 0-9.74 4.361-9.74 9.74v22.949c0 5.379 4.361 9.74 9.74 9.74h390.342c5.379 0 9.74-4.361 9.74-9.74v-22.949c-.001-5.379-4.361-9.74-9.74-9.74z" fill="#f2eae7"/><path d="m288.982 195.244h-76.615c-4.509 0-8.164-3.655-8.164-8.164v-20.175c0-4.509 3.655-8.164 8.164-8.164h76.615c4.509 0 8.164 3.655 8.164 8.164v20.175c-.001 4.509-3.656 8.164-8.164 8.164z" fill="#f7d8a4"/><path d="m224.791 186.198c-4.509 0-8.164-3.655-8.164-8.164v-19.293h-4.26c-4.509 0-8.164 3.655-8.164 8.164v20.175c0 4.509 3.655 8.164 8.164 8.164h76.615c4.509 0 8.164-3.655 8.164-8.164v-.881h-72.355z" fill="#f5cd8b"/></g></g><path d="m467.11 211.671h-18.621v-34.679c0-4.143-3.357-7.5-7.5-7.5h-36.394v-31.84h.5c5.272 0 10.267-2.549 13.359-6.818 3.094-4.27 3.959-9.81 2.315-14.82l-34.336-104.66c-2.226-6.792-8.525-11.354-15.673-11.354h-30.139c-4.143 0-7.5 3.357-7.5 7.5s3.357 7.5 7.5 7.5h30.139c.648 0 1.221.414 1.423 1.029l34.335 104.659c.197.601-.005 1.063-.209 1.346-.205.282-.581.618-1.213.618h-308.844c-.632 0-1.008-.336-1.213-.618-.204-.282-.406-.745-.21-1.345l34.336-104.66c.202-.615.774-1.029 1.423-1.029h178.071c4.143 0 7.5-3.357 7.5-7.5s-3.357-7.5-7.5-7.5h-178.071c-7.148 0-13.447 4.562-15.675 11.354l-34.337 104.661c-1.643 5.01-.777 10.55 2.316 14.819 3.093 4.27 8.087 6.818 13.359 6.818h.5v118.449c0 4.143 3.357 7.5 7.5 7.5s7.5-3.357 7.5-7.5v-118.449h18.88v174.877h-18.88v-24.465c0-4.143-3.357-7.5-7.5-7.5s-7.5 3.357-7.5 7.5v24.465h-19.621c-11.961 0-21.692 9.73-21.692 21.691v120.726h-.435c-9.506 0-17.239 7.733-17.239 17.239v22.949c0 9.506 7.733 17.239 17.239 17.239h390.342c9.506 0 17.239-7.733 17.239-17.239v-22.949c0-9.506-7.733-17.239-17.239-17.239h-.435v-29.69c0-4.143-3.357-7.5-7.5-7.5s-7.5 3.357-7.5 7.5v29.69h-359.472v-120.725c0-3.689 3.002-6.691 6.692-6.691h346.088c3.69 0 6.692 3.002 6.692 6.691v59.072c0 4.143 3.357 7.5 7.5 7.5s7.5-3.357 7.5-7.5v-59.072c0-11.961-9.731-21.691-21.692-21.691h-18.622v-128.038h28.894v34.679c0 4.143 3.357 7.5 7.5 7.5h26.121c4.143 0 7.5-3.357 7.5-7.5s-3.358-7.5-7.501-7.5zm-19.526 260.515v22.949c0 1.234-1.005 2.239-2.239 2.239h-390.342c-1.234 0-2.239-1.005-2.239-2.239v-22.949c0-1.234 1.005-2.239 2.239-2.239h390.342c1.234-.001 2.239 1.004 2.239 2.239zm-247.396-256.966c0-5.309 1.27-10.429 3.655-15.016 2.456 1.6 5.38 2.539 8.522 2.539h76.615c3.145 0 6.071-.94 8.528-2.542 2.383 4.588 3.65 9.71 3.65 15.019v41.402h-100.97zm11.514-28.14v-20.175c0-.366.298-.664.664-.664h76.615c.366 0 .664.298.664.664v20.175c0 .365-.298.663-.664.663h-76.615c-.366 0-.664-.298-.664-.663zm-21.884 84.542h120.711l-11.364 40.907h-97.982zm135.808 1.696c1.111-4 .308-8.19-2.204-11.496-1.844-2.425-4.396-4.082-7.263-4.797v-41.805c0-11.363-3.977-22.138-11.248-30.728h50.805v128.037h-40.983zm30.09-135.666v31.84h-51.07v-2.587c0-8.637-7.027-15.664-15.664-15.664h-76.615c-8.637 0-15.664 7.027-15.664 15.664v2.587h-51.07v-31.84zm-210.084 46.84h50.805c-7.271 8.589-11.248 19.364-11.248 30.728v41.609c-3.271.551-6.208 2.291-8.263 4.994-2.512 3.306-3.315 7.496-2.204 11.496l10.893 39.211h-39.983zm225.084 128.037v-174.877h18.88v174.877z"/></g></svg>