<svg id="Capa_1" enable-background="new 0 0 511.53 511.53" height="512" viewBox="0 0 511.53 511.53" width="512" xmlns="http://www.w3.org/2000/svg"><g><g><g><g id="XMLID_277_"><g><path d="m192.725 165.327c0-6.19 2.51-11.79 6.56-15.85 4.06-4.05 9.66-6.56 15.85-6.56 12.37 0 22.4 10.03 22.4 22.41v92.7c0 10.78-3.01 21.34-8.67 30.5l-29.45 47.64 1.14 150.28h-169.72v-160.73l-6.66-15.69c-3.98-9.36-6.02-19.43-6.02-29.6v-115.1-82.99c0-6.02 2.44-11.48 6.39-15.43s9.4-6.39 15.43-6.39c12.05 0 21.82 9.77 21.82 21.82v-24.02c0-6.02 2.44-11.48 6.39-15.43s9.4-6.39 15.43-6.39c12.05 0 21.82 9.77 21.82 21.82v-28.99c0-6.03 2.45-11.49 6.4-15.44s9.41-6.39 15.43-6.39c12.05 0 21.82 9.77 21.82 21.83v21.51c0-6.02 2.44-11.48 6.39-15.43s9.41-6.39 15.43-6.39c12.05 0 21.82 9.77 21.82 21.82z" fill="#d9f2f6"/></g><g fill="#b3e5ee"><path d="m149.085 165.327c10.486 0 18.987-8.501 18.987-18.987v-95.503c0-6.02 2.44-11.48 6.39-15.43 1.719-1.719 3.724-3.151 5.936-4.221-2.87-1.389-6.09-2.169-9.492-2.169-6.02 0-11.48 2.44-15.43 6.39s-6.39 9.41-6.39 15.43z"/><g><path d="m124.302 29.327c0-6.03 2.45-11.49 6.4-15.44 1.734-1.734 3.76-3.177 5.996-4.25-2.855-1.371-6.054-2.14-9.433-2.14-6.02 0-11.48 2.44-15.43 6.39s-6.4 9.41-6.4 15.44v134.94c10.42 0 18.867-8.447 18.867-18.867z"/><g id="XMLID_279_"><path d="m218.111 149.477c1.854-1.849 4.039-3.374 6.444-4.488-2.862-1.328-6.057-2.071-9.419-2.071-6.19 0-11.79 2.51-15.85 6.56-4.05 4.06-6.56 9.66-6.56 15.85v48.47c10.397 0 18.826-8.429 18.826-18.826v-29.644c-.001-6.191 2.509-11.791 6.559-15.851z"/><path d="m80.718 82.337v-24.02c0-6.02 2.44-11.48 6.39-15.43 1.728-1.728 3.742-3.166 5.966-4.238-2.862-1.379-6.07-2.152-9.459-2.152-6.03 0-11.48 2.44-15.43 6.39s-6.39 9.41-6.39 15.43v24.02 81.93c10.451 0 18.923-8.472 18.923-18.923z"/></g></g></g></g><g id="XMLID_270_"><g><path d="m449.735 82.337c0-6.02 2.44-11.48 6.39-15.43s9.4-6.39 15.43-6.39c12.05 0 21.82 9.77 21.82 21.82v82.99 115.1c0 10.17-2.04 20.24-6.02 29.6l-6.66 15.69-.21 158.89h-168.37v-148.44l-29.45-47.64c-5.66-9.16-8.67-19.72-8.67-30.5v-92.7c0-6.19 2.51-11.79 6.56-15.85 4.05-4.05 9.65-6.56 15.84-6.56 12.38 0 22.41 10.03 22.41 22.41v-114.49c0-12.05 9.77-21.82 21.82-21.82 6.02 0 11.48 2.44 15.43 6.39s6.39 9.41 6.39 15.43v-21.51c0-12.06 9.77-21.83 21.82-21.83 6.02 0 11.48 2.44 15.43 6.39s6.4 9.41 6.4 15.44v28.99c0-12.05 9.77-21.82 21.82-21.82 6.03 0 11.48 2.44 15.43 6.39s6.39 9.41 6.39 15.43z" fill="#d9f2f6"/></g><g id="XMLID_271_"><path d="m466.007 82.337c0-6.02 2.44-11.48 6.39-15.43 2.064-2.064 4.552-3.712 7.303-4.819-2.514-1.011-5.269-1.571-8.145-1.571-6.03 0-11.48 2.44-15.43 6.39s-6.39 9.41-6.39 15.43v82.99c8.986 0 16.271-7.285 16.271-16.271v-66.719z" fill="#b3e5ee"/><g><g id="XMLID_272_" fill="#b3e5ee"><path d="m436.933 38.44c-2.795-1.269-5.911-1.968-9.189-1.943-12.069.093-21.649 10.264-21.649 22.333v105.436c9.948 0 18.013-8.065 18.013-18.013v-87.936c0-8.839 5.269-16.448 12.825-19.877z"/><g id="XMLID_275_"><path d="m381.076 30.382c0-9.158 5.636-16.991 13.624-20.232-3.102-1.692-6.658-2.653-10.435-2.653-12.05 0-21.82 9.77-21.82 21.83v134.94c10.29 0 18.631-8.342 18.631-18.631z"/><path d="m334.933 51.957c0-9.729 6.37-17.968 15.165-20.782-2.834-1.367-6.008-2.14-9.357-2.158-12.066-.063-21.935 10.282-21.935 22.349v113.961c8.907 0 16.127-7.22 16.127-16.127z"/></g></g></g></g></g></g><path d="m480.544 440.291c-1.763-.282-3.568-.434-5.409-.434h-125.525c-5.956 0-10.784-4.828-10.784-10.784v-87.077c0-5.978-1.665-11.838-4.809-16.924l-24.641-39.861c-5.66-9.16-8.67-19.72-8.67-30.5v-92.7c0-6.19 2.51-11.79 6.56-15.85.092-.092.199-.181.292-.272-3.285-1.889-7.1-2.972-11.163-2.972-6.19 0-11.79 2.51-15.84 6.56-4.05 4.06-6.56 9.66-6.56 15.85v92.7c0 10.78 3.01 21.34 8.67 30.5l29.45 47.64v148.44h20.557 147.813l.004-3.315z" fill="#b3e5ee"/><path d="m316.215 504.03h158.919c7.787 0 14.1-6.313 14.1-14.1v-15.972c0-7.787-6.313-14.1-14.1-14.1h-158.919c-7.787 0-14.1 6.313-14.1 14.1v15.972c-.001 7.787 6.312 14.1 14.1 14.1z" fill="#d9f2f6"/><path d="m200.505 479.807-.301-39.594c-1.598-.23-3.229-.356-4.889-.356h-124.776c-6.795 0-12.303-5.508-12.303-12.303v-108.477l-6.66-15.69c-3.98-9.36-6.02-19.43-6.02-29.6v-115.1-82.99c0-4.807 1.546-9.268 4.185-12.878-2.942-1.479-6.25-2.303-9.767-2.303-6.03 0-11.48 2.44-15.43 6.39s-6.39 9.41-6.39 15.43v82.99 115.1c0 10.17 2.04 20.24 6.02 29.6l6.66 15.69v160.73h23.641 146.079z" fill="#b3e5ee"/><path d="m195.315 504.03h-158.919c-7.787 0-14.1-6.313-14.1-14.1v-15.972c0-7.787 6.313-14.1 14.1-14.1h158.919c7.787 0 14.1 6.313 14.1 14.1v15.972c.001 7.787-6.312 14.1-14.1 14.1z" fill="#d9f2f6"/></g><g><path d="m215.13 135.421c-5.424 0-10.51 1.459-14.9 3.994v-28.387c0-4.143-3.357-7.5-7.5-7.5s-7.5 3.357-7.5 7.5v102.773c0 4.143 3.357 7.5 7.5 7.5s7.5-3.357 7.5-7.5v-48.479c0-8.216 6.685-14.9 14.9-14.9s14.9 6.685 14.9 14.9v92.707c0 9.389-2.609 18.572-7.547 26.56l-29.447 47.637c-.732 1.185-1.12 2.55-1.12 3.943v116.189h-153.58v-126.646c0-1.008-.203-2.005-.597-2.932l-6.662-15.686c-3.602-8.479-5.428-17.45-5.428-26.663v-198.096c0-7.897 6.426-14.322 14.323-14.322s14.322 6.425 14.322 14.322v82.986c0 4.143 3.357 7.5 7.5 7.5s7.5-3.357 7.5-7.5v-107.004c0-7.897 6.425-14.322 14.322-14.322s14.324 6.425 14.324 14.322v105.949c0 4.143 3.357 7.5 7.5 7.5s7.5-3.357 7.5-7.5v-134.944c0-7.897 6.425-14.322 14.322-14.322s14.322 6.425 14.322 14.322l.001 135.999c0 4.143 3.357 7.5 7.5 7.5s7.5-3.357 7.5-7.5v-114.486c0-7.897 6.425-14.322 14.322-14.322s14.322 6.425 14.322 14.322v28.229c0 4.143 3.357 7.5 7.5 7.5s7.5-3.357 7.5-7.5v-28.229c0-16.168-13.154-29.322-29.322-29.322-5.31 0-10.291 1.426-14.591 3.905-1.916-14.328-14.211-25.418-29.054-25.418-16.168 0-29.322 13.154-29.322 29.322v3.423c-4.239-2.384-9.123-3.75-14.322-3.75-15.654 0-28.483 12.332-29.282 27.791-4.248-2.397-9.146-3.773-14.362-3.773-16.169 0-29.323 13.154-29.323 29.322v198.097c0 11.238 2.228 22.183 6.621 32.526l6.065 14.28v129.53c-5.185 3.949-8.54 10.184-8.54 17.19v15.972c0 11.91 9.689 21.601 21.6 21.601h158.919c11.91 0 21.601-9.69 21.601-21.601v-15.972c0-7.642-3.993-14.365-9.999-18.206v-117.453l28.327-45.824c6.402-10.358 9.787-22.27 9.787-34.446v-92.707c-.001-16.488-13.414-29.901-29.902-29.901zm-13.214 354.509c0 3.64-2.961 6.601-6.601 6.601h-158.919c-3.639 0-6.6-2.961-6.6-6.601v-15.972c0-3.64 2.961-6.601 6.6-6.601h158.919c3.64 0 6.601 2.961 6.601 6.601z"/><path d="m493.38 118.527c4.143 0 7.5-3.357 7.5-7.5v-28.692c0-16.168-13.154-29.322-29.322-29.322-5.216 0-10.115 1.375-14.363 3.773-.8-15.459-13.628-27.791-29.282-27.791-5.199 0-10.083 1.366-14.322 3.75v-3.423c-.001-16.168-13.155-29.322-29.323-29.322-14.843 0-27.138 11.09-29.054 25.417-4.301-2.478-9.281-3.904-14.591-3.904-16.168 0-29.322 13.154-29.322 29.323v88.579c-4.39-2.535-9.477-3.994-14.9-3.994-16.487 0-29.9 13.413-29.9 29.9v92.707c0 12.177 3.385 24.088 9.787 34.446l28.327 45.824v117.453c-6.006 3.841-9.999 10.564-9.999 18.207v15.972c0 11.91 9.689 21.601 21.6 21.601h158.92c11.91 0 21.6-9.69 21.6-21.601v-15.972c0-7.006-3.355-13.241-8.54-17.19v-129.53l6.065-14.28c4.394-10.344 6.621-21.288 6.621-32.527v-137.442c0-4.143-3.357-7.5-7.5-7.5s-7.5 3.357-7.5 7.5v137.441c0 9.213-1.826 18.185-5.428 26.664l-6.662 15.686c-.394.927-.597 1.924-.597 2.932v126.646h-94.767c-4.143 0-7.5 3.357-7.5 7.5s3.357 7.5 7.5 7.5h96.707c3.639 0 6.6 2.961 6.6 6.601v15.972c0 3.64-2.961 6.601-6.6 6.601h-158.92c-3.639 0-6.6-2.961-6.6-6.601v-15.972c0-3.64 2.961-6.601 6.6-6.601h30.25c4.143 0 7.5-3.357 7.5-7.5s-3.357-7.5-7.5-7.5h-26.851v-116.19c0-1.394-.388-2.759-1.12-3.943l-29.447-47.637c-4.938-7.987-7.547-17.171-7.547-26.56v-92.707c0-8.216 6.685-14.9 14.9-14.9s14.9 6.685 14.9 14.9v48.479c0 4.143 3.357 7.5 7.5 7.5s7.5-3.357 7.5-7.5v-162.964c0-7.897 6.425-14.323 14.322-14.323s14.323 6.426 14.323 14.323v114.485c0 4.143 3.357 7.5 7.5 7.5s7.5-3.357 7.5-7.5v-135.999c0-7.897 6.425-14.322 14.322-14.322s14.322 6.425 14.322 14.322v134.944c0 4.143 3.357 7.5 7.5 7.5s7.5-3.357 7.5-7.5v-105.949c0-7.897 6.425-14.322 14.322-14.322s14.322 6.425 14.322 14.322v24.018 82.986c0 4.143 3.357 7.5 7.5 7.5s7.5-3.357 7.5-7.5v-82.986c0-7.897 6.426-14.322 14.323-14.322s14.322 6.425 14.322 14.322v28.692c.002 4.143 3.36 7.5 7.502 7.5z"/></g></g></svg>