<svg id="Capa_1" enable-background="new 0 0 509.449 509.449" height="512" viewBox="0 0 509.449 509.449" width="512" xmlns="http://www.w3.org/2000/svg"><g><g><path d="m222.096 333.804 17.075-17.079c64.348 39.622 149.75 31.541 205.509-24.234 65.132-65.152 65.327-170.267.424-235.647-65.172-65.651-171.227-65.788-236.57-.424l-24.487 24.495c-2.355 2.355-2.354 6.174.001 8.528l1.779 1.779c11.202 11.198 29.361 11.195 40.559-.007l16.126-16.132c44.791-44.806 117.745-45.829 162.706-1.193 45.061 44.735 45.168 117.53.314 162.4-42.769 42.783-110.941 44.696-155.981 5.731-3.566-3.085-8.886-2.95-12.219.385l-53.315 53.333-47.215 48.558 38.991 38.579z" fill="#f2eae7"/><g><g id="XMLID_280_"><g><path d="m175.794 382.876 46.302-49.072 14.143-14.146-38.083-38.063-14.138 14.143-47.215 48.558z" fill="#ede2dd"/><path d="m169.394 309.048-27.962 26.212-120.62 120.66c-6.73 6.73-6.73 17.64 0 24.36l16.63 16.63c6.73 6.72 17.64 6.72 24.36-.01l120.62-120.65 28.854-26.803z" fill="#c9a291"/><path d="m181.895 321.106-12.501-12.058-27.962 26.212-120.62 120.66c-6.73 6.73-6.73 17.64 0 24.36l16.63 16.63c6.214 6.205 15.984 6.667 22.737 1.406l-16.084-16.084c-6.73-6.72-6.73-17.63 0-24.36l86.65-86.678c5.062-5.064 13.272-5.065 18.335-.001l19.202 19.202 14.141-14.144 28.854-26.803z" fill="#be8f7d"/><path d="m232.542 344.239c3.03 3.03 3.03 7.94 0 10.97l-20.04 20.05c-8.25 8.25-21.43 8.58-30.08.99l-40.99-40.99c-7.6-8.64-7.28-21.82.98-30.07l20.03-20.05c3.03-3.03 7.94-3.03 10.97 0z" fill="#ded4cf"/><path d="m206.012 373.953-40.99-40.99c-7.6-8.64-7.28-21.82.98-30.07l12.577-12.589-5.167-5.164c-3.03-3.03-7.94-3.03-10.97 0l-20.03 20.05c-8.26 8.25-8.58 21.43-.98 30.07l40.99 40.99c7.992 7.013 19.86 7.257 28.124.749-1.594-.814-3.136-1.82-4.534-3.046z" fill="#cbc0bb"/></g></g><g id="XMLID_281_"><g><path d="m84.017 379.732h49.925v57.965h-49.925z" fill="#be8f7d" transform="matrix(.707 -.707 .707 .707 -257.145 196.873)"/><path d="m69.83 385.611h49.928v17.845h-49.928z" fill="#b37e67" transform="matrix(.707 -.707 .707 .707 -251.248 182.642)"/><path d="m76.532 482.169-14.73 14.73c-6.72 6.73-17.63 6.73-24.36.01l-16.63-16.63c-6.73-6.72-6.73-17.63 0-24.36l14.73-14.73z" fill="#be8f7d"/></g></g></g><path d="m48.159 453.804-12.618-12.615-14.73 14.73c-6.73 6.73-6.73 17.64 0 24.36l16.63 16.63c6.214 6.205 15.984 6.667 22.737 1.406l-16.084-16.084c-6.73-6.72-6.73-17.63 0-24.36z" fill="#b37e67"/></g><g><path d="m490.059 113.196c-1.456-3.879-5.78-5.846-9.657-4.387-3.878 1.455-5.842 5.778-4.387 9.656 10.608 28.267 12.959 58.868 6.799 88.495-6.316 30.377-21.336 58.119-43.438 80.227-25.882 25.891-58.753 41.707-95.058 45.74-35.251 3.912-71.198-4.107-101.214-22.59-2.958-1.82-6.781-1.373-9.237 1.084l-11.773 11.775-27.47-27.461 48.013-48.028c.536-.535 1.398-.542 2.008-.016 23.28 20.14 53.103 30.648 83.968 29.615 4.14-.141 7.382-3.609 7.242-7.749-.14-4.141-3.621-7.404-7.749-7.243-27.078.942-53.233-8.306-73.648-25.968-6.516-5.636-16.369-5.306-22.43.755l-48.013 48.028-5.3-5.298c-5.947-5.946-15.626-5.945-21.574.003l-20.039 20.046c-9.242 9.245-11.104 23.28-5.336 34.437l-37.275 37.287c-2.928 2.93-2.928 7.679.002 10.606 2.929 2.93 7.678 2.929 10.606-.001l1.033-1.033 30.386 30.376-24.693 24.701-30.385-30.374 1.063-1.063c2.928-2.93 2.928-7.679-.002-10.606-2.929-2.93-7.678-2.928-10.606.001l-56.388 56.406c-9.64 9.644-9.637 25.332.006 34.972l16.627 16.621c4.67 4.668 10.878 7.239 17.482 7.239h.005c6.605-.002 12.814-2.575 17.484-7.246l116.26-116.298c11.158 5.763 25.193 3.896 34.435-5.348l20.04-20.046c5.946-5.949 5.944-15.627-.004-21.573l-5.138-5.136 7.658-7.66c26.227 14.911 56.189 22.755 86.423 22.754 6.394-.001 12.806-.352 19.19-1.061 39.159-4.351 76.097-22.122 104.01-50.043 24.172-24.18 40.603-54.533 47.515-87.778 6.738-32.41 4.165-65.89-7.441-96.818zm-373.321 257.374 24.693-24.701 30.386 30.376-24.693 24.701zm-15.515 76.293-24.693 24.701-30.386-30.376 24.693-24.701zm-51.6 47.586c-.001 0-.001 0-.002 0-2.598-.001-5.041-1.012-6.877-2.848l-16.626-16.621c-3.794-3.793-3.795-9.965-.002-13.759l9.424-9.427 30.386 30.376-9.424 9.427c-1.838 1.839-4.28 2.851-6.879 2.852zm177.613-144.542-20.039 20.045c-5.36 5.362-13.992 5.673-19.719.741l-40.5-40.486c-4.935-5.725-4.627-14.358.733-19.72l20.038-20.045c.101-.102.262-.1.362-.002l59.125 59.105c.1.101.099.264 0 .362z"/><path d="m180.526 96.525c6.833 6.831 15.917 10.593 25.579 10.593h.006c9.664-.001 18.749-3.767 25.581-10.601l16.126-16.132c42.104-42.119 110.345-42.645 152.118-1.173 20.361 20.215 31.605 47.145 31.659 75.83.054 28.687-11.085 55.657-31.366 75.944-12.116 12.12-26.469 20.924-42.66 26.169-3.94 1.276-6.101 5.505-4.824 9.445 1.028 3.173 3.969 5.191 7.134 5.191.766 0 1.545-.118 2.312-.367 18.47-5.982 34.837-16.02 48.646-29.833 23.12-23.128 35.819-53.876 35.757-86.579-.062-32.701-12.879-63.401-36.091-86.445-47.623-47.278-125.363-46.734-173.294 1.212l-16.126 16.132c-4 4.001-9.318 6.205-14.975 6.206-.001 0-.002 0-.004 0-5.656 0-10.974-2.202-14.974-6.201l-.74-.739 23.448-23.455c30.194-30.203 70.37-46.829 113.052-46.722 42.706.075 82.798 16.812 112.892 47.126 8.702 8.768 16.374 18.503 22.801 28.938 2.172 3.527 6.792 4.625 10.319 2.452 3.527-2.172 4.625-6.792 2.453-10.319-7.029-11.412-15.416-22.057-24.927-31.639-32.925-33.165-76.789-51.476-123.512-51.558-46.721-.064-90.651 18.072-123.686 51.116l-24.487 24.495c-5.274 5.275-5.273 13.859.004 19.136z"/></g></g></svg>