<svg id="Capa_1" enable-background="new 0 0 513.25 513.25" height="512" viewBox="0 0 513.25 513.25" width="512" xmlns="http://www.w3.org/2000/svg"><g><g><path d="m264.606 505.592h-16.963c-5.572 0-10.09-4.517-10.09-10.09v-140.77h37.142v140.77c.001 5.572-4.516 10.09-10.089 10.09z" fill="#f6e2c4"/><path d="m393.002 273.05h101.044c6.464 0 11.704-5.24 11.704-11.704v-10.418c0-6.464-5.24-11.704-11.704-11.704h-101.044z" fill="#f6e2c4"/><path d="m123.248 273.05h-104.044c-6.464 0-11.704-5.24-11.704-11.704v-10.418c0-6.464 5.24-11.704 11.704-11.704h104.044z" fill="#f6e2c4"/><g fill="#f7d8a4"><path d="m237.554 451.083c4.313 2.966 9.458 4.6 14.808 4.6 4.755-.001 9.422-1.3 13.497-3.757l8.838-5.331v-91.863h-37.142v96.351z"/><path d="m87.248 239.223h36v33.827h-36z"/><path d="m87.248 239.223h36v33.827h-36z"/><path d="m393.002 239.223h33v33.827h-33z"/></g><path d="m398.572 214.753c4.103 0 7.43 3.326 7.43 7.43v78.342c0 3.024-1.832 5.746-4.633 6.884l-58.211 23.648c-1.897.771-3.138 2.614-3.138 4.662v101.933c0 3.042-2.466 5.509-5.509 5.509h-21.004c-1.369 0-2.688-.509-3.702-1.429l-22.877-20.759c-2.008-1.822-4.974-2.111-7.297-.711l-24.103 14.538c-2.573 1.552-5.891 1.014-7.841-1.272l-22.554-26.43c-2.198-2.575-6.065-2.886-8.646-.693l-38.701 32.884c-1.796 1.526-4.557.25-4.557-2.108v-101.463c0-2.048-1.241-3.891-3.138-4.662l-58.211-23.648c-2.801-1.138-4.633-3.86-4.633-6.884v-78.342c0-4.103 3.326-7.43 7.43-7.43h283.895z" fill="#b3e5ee"/><path d="m319.584 423.795c-1.369 0-2.688-.509-3.702-1.429l-17.109-15.526c-5.431-4.929-13.453-5.71-19.733-1.922l-17.434 10.516c-2.573 1.552-5.891 1.014-7.841-1.272l-16.241-19.033c-5.686-6.663-15.693-7.466-22.369-1.794l-4.616 3.922c-5.997 5.095-15.211.833-15.211-7.036v-67.777c0-2.047-1.241-3.891-3.138-4.662l-58.211-23.648c-2.801-1.138-4.633-3.86-4.633-6.884v-43.735c0-5.166 4.188-9.355 9.355-9.355h53.409c2.908 0 5.722.945 8.092 2.629 3.659 2.6 8.077 4.065 12.718 4.065 1.57 0 3.153-.169 4.714-.503l7.338-1.576 3.148 1.947c4.355 2.687 9.365 4.106 14.486 4.106 3.595 0 7.104-.688 10.425-2.045l4.093-1.67 4.088 1.668c3.327 1.358 6.836 2.047 10.431 2.047 5.121 0 10.13-1.42 14.504-4.117l3.13-1.937 7.346 1.577c1.552.333 3.135.501 4.705.502h.002c8.133 0 15.591-4.491 19.463-11.72 2.402-4.485 3.141-9.555 2.26-14.383h-66.928-141.447c-4.103 0-7.43 3.326-7.43 7.43v78.342c0 3.023 1.832 5.746 4.633 6.884l58.211 23.648c1.897.771 3.138 2.614 3.138 4.662v101.464c0 2.357 2.76 3.634 4.557 2.108l38.701-32.884c2.58-2.192 6.448-1.882 8.646.693l22.554 26.43c1.95 2.286 5.268 2.824 7.841 1.272l24.103-14.538c2.322-1.401 5.288-1.112 7.296.711l22.877 20.759c1.014.92 2.334 1.43 3.703 1.43h21.003c3.042 0 5.509-2.466 5.509-5.509v-13.856h-20.436z" fill="#86d7e5"/><path d="m307.205 214.757-14.68-22.09-7.373-19.536h-42.31l-21.688 20.396-14.11 21.23c-3.55 5.33 1.18 12.27 7.44 10.93l8.29-1.78c3.18-.68 6.49-.11 9.26 1.6l3.96 2.45c3.42 2.11 7.65 2.46 11.37.94l5-2.04c3.05-1.24 6.47-1.24 9.52 0l5 2.04c3.72 1.52 7.95 1.17 11.37-.94l3.96-2.45c2.77-1.71 6.08-2.28 9.26-1.6l8.29 1.78c6.261 1.34 10.991-5.6 7.441-10.93z" fill="#fcf1de"/><path d="m307.205 214.757-1.466-2.206c-1.555 1.27-3.658 1.911-5.974 1.415l-8.29-1.779c-3.18-.681-6.49-.11-9.26 1.6l-3.96 2.45c-3.42 2.11-7.65 2.46-11.37.939l-5-2.04c-3.05-1.239-6.47-1.239-9.52 0l-5 2.04c-1.504.615-3.779.5-5.955.145-3.06-.5-4.58-3.999-2.863-6.582l8.903-13.396 15.13-23.228 23.456 1.359-.884-2.343h-42.31l-21.688 20.396-12.644 19.024-1.466 2.206c-3.55 5.33 1.18 12.27 7.44 10.93l8.29-1.78c3.18-.68 6.49-.11 9.26 1.6l3.96 2.45c3.42 2.11 7.65 2.46 11.37.94l5-2.04c3.05-1.24 6.47-1.24 9.52 0l5 2.04c3.72 1.52 7.95 1.17 11.37-.94l3.96-2.45c2.77-1.71 6.08-2.28 9.26-1.6l8.29 1.78c6.261 1.34 10.991-5.6 7.441-10.93z" fill="#f6e2c4"/><path d="m318.155 103.757c4.47 9.14 6.99 19.41 6.99 30.27 0 24.76-13.04 46.46-32.62 58.64l-71.37.86c-20.37-12-34.05-34.14-34.05-59.5 0-10.86 2.52-21.13 6.99-30.27l16.23-29.74h89.8z" fill="#f6e2c4"/><path d="m216.742 134.027c0-10.86 2.52-21.13 6.99-30.27l16.23-29.74h-29.637l-16.23 29.74c-4.47 9.14-6.99 19.41-6.99 30.27 0 25.36 13.68 47.5 34.05 59.5l29.064-.35c-20.051-12.076-33.477-34.031-33.477-59.15z" fill="#f8deb6"/><path d="m263.965 10.937c-4.32-4.37-11.36-4.37-15.68 0l-40.38 40.86 4.502 14.599 27.63 15.244 61.866-17.646 2.442-12.196z" fill="#fbe8cb"/><g><path d="m216.581 68.698 9.645-9.766h.01l40.38-40.86c.764-.773 1.617-1.402 2.521-1.902l-5.172-5.233c-4.32-4.37-11.36-4.37-15.68 0l-40.38 40.86 4.502 14.599z" fill="#f8dbac"/><g id="XMLID_287_"><path d="m386.515 69.777c3.27.22 4.13 4.63 1.18 6.07l-20.44 9.97c-70.13 34.22-152.13 34.22-222.26 0l-20.44-9.97c-2.95-1.44-2.09-5.85 1.18-6.07l65.2-4.47c2.5-.17 4.85-1.25 6.61-3.03l10.35-10.48h.01c32.14 5.19 64.3 5.19 96.44 0h.01l10.35 10.48c1.76 1.78 4.11 2.86 6.61 3.03z" fill="#f7cf8f"/></g><path d="m386.515 69.777-25.964-1.78c-54.147 24.491-114.779 28.983-171.315 13.507-3.585-.981-3.181-6.202.508-6.657l19.521-2.405c2.5-.17 4.85-1.25 6.61-3.03l10.35-10.48h.01l4.299-4.35c-7.544-.646-15.087-1.567-22.63-2.785h-.01l-10.35 10.48c-1.76 1.78-4.11 2.86-6.61 3.03l-39.236 2.69-25.964 1.78c-3.27.22-4.13 4.63-1.18 6.07l20.44 9.97c70.13 34.22 152.13 34.22 222.26 0l20.44-9.97c2.951-1.44 2.091-5.85-1.179-6.07z" fill="#f5c374"/><g fill="#86d7e5"><path d="m340.02 395.62h-27.348c-5.385 0-9.751-4.366-9.751-9.751v-33.365c0-5.385 4.366-9.751 9.751-9.751h27.348z"/><path d="m243.878 327.605h-30.078c-6.764 0-12.247-5.483-12.247-12.247v-34.989c0-6.764 5.483-12.247 12.247-12.247h30.078c6.764 0 12.247 5.483 12.247 12.247v34.989c0 6.764-5.483 12.247-12.247 12.247z"/></g></g></g><g><path d="m356.004 317.742-15.666 6.364c-4.605 1.868-7.621 6.211-7.801 11.146h-19.865c-9.512 0-17.251 7.738-17.251 17.251v33.365c0 9.513 7.739 17.251 17.251 17.251h19.848v32.54h-18.244l-22.309-20.243c-4.497-4.08-11.012-4.715-16.21-1.577l-23.115 13.94-21.804-25.55c-4.872-5.712-13.488-6.401-19.208-1.542l-30.901 26.257v-38.883c0-4.143-3.358-7.5-7.5-7.5s-7.5 3.357-7.5 7.5v49.118c0 4.048 2.282 7.618 5.956 9.317 3.674 1.698 7.871 1.126 10.957-1.494l37.667-32.005 9.744 11.418v81.174c0 4.143 3.358 7.5 7.5 7.5s7.5-3.357 7.5-7.5v-64.535c4.27 2.723 9.804 2.906 14.348.164l7.794-4.701v69.072c0 4.143 3.358 7.5 7.5 7.5s7.5-3.357 7.5-7.5v-78.118l.442-.267 22.126 20.077c2.398 2.177 5.503 3.376 8.742 3.376h21.004c7.173 0 13.009-5.836 13.009-13.01v-100.267l14.13-5.741c3.837-1.559 5.684-5.934 4.125-9.771s-5.931-5.686-9.769-4.126zm-43.332 70.378c-1.241 0-2.251-1.01-2.251-2.251v-33.365c0-1.241 1.01-2.251 2.251-2.251h19.848v37.867z"/><path d="m494.046 231.723h-28.02c-4.142 0-7.5 3.357-7.5 7.5s3.358 7.5 7.5 7.5h28.02c2.318 0 4.204 1.887 4.204 4.205v10.418c0 2.318-1.886 4.205-4.204 4.205h-80.544v-18.828h20.562c4.142 0 7.5-3.357 7.5-7.5s-3.358-7.5-7.5-7.5h-20.562v-9.54c0-8.232-6.697-14.93-14.93-14.93h-87.346l-8.39-12.618c18.795-14.442 29.807-36.579 29.807-60.605 0-8.73-1.444-17.201-4.289-25.288 14.507-4.17 28.653-9.576 42.191-16.182l20.442-9.973c4.417-2.155 6.752-6.844 5.811-11.668-.942-4.823-4.869-8.29-9.771-8.625l-65.196-4.471c-.677-.047-1.312-.338-1.789-.82l-50.744-51.343c-3.506-3.548-8.185-5.502-13.173-5.502s-9.667 1.954-13.174 5.502l-50.744 51.344c-.477.481-1.112.772-1.788.819l-65.196 4.471c-4.903.335-8.83 3.802-9.772 8.625-.941 4.824 1.394 9.513 5.811 11.667l20.442 9.974c13.538 6.605 27.683 12.011 42.189 16.181-2.845 8.087-4.288 16.559-4.288 25.289 0 24.326 11.762 47.269 31.148 61.597l-7.732 11.627h-88.345c-8.232 0-14.93 6.697-14.93 14.93v9.541h-80.542c-10.589-.001-19.204 8.614-19.204 19.203v10.418c0 10.589 8.615 19.204 19.204 19.204h80.544v19.975c0 6.104 3.654 11.533 9.311 13.832l56.671 23.023v18.72c0 4.143 3.358 7.5 7.5 7.5s7.5-3.357 7.5-7.5v-20.382c0-5.127-3.069-9.685-7.815-11.609l-58.167-23.584v-78.271h84.036c.413 1.641 1.108 3.23 2.102 4.69 3.367 4.946 9.326 7.332 15.172 6.075l8.291-1.777c1.291-.28 2.62-.049 3.743.646l3.96 2.446c3.208 1.981 6.882 2.991 10.572 2.991 2.569 0 5.146-.489 7.577-1.481l5.002-2.04c1.24-.508 2.607-.507 3.847-.001l5.003 2.041c5.922 2.418 12.707 1.853 18.148-1.51l3.958-2.445c1.124-.694 2.453-.926 3.747-.646l8.287 1.777c5.85 1.256 11.806-1.13 15.173-6.075.994-1.46 1.689-3.049 2.102-4.69h83.036l.044 78.207-12.748 5.179c-3.837 1.559-5.685 5.934-4.126 9.771 1.184 2.913 3.99 4.68 6.951 4.68.94 0 1.896-.178 2.82-.554l12.75-5.179c5.655-2.299 9.309-7.729 9.309-13.832v-19.974h80.544c10.589 0 19.204-8.615 19.204-19.205v-10.418c-.002-10.592-8.617-19.207-19.206-19.207zm-474.842 33.827c-2.318 0-4.204-1.886-4.204-4.204v-10.418c0-2.318 1.886-4.204 4.204-4.204h80.544v18.826zm234.416-249.345c.899-.91 1.956-1.047 2.505-1.047s1.605.137 2.505 1.047l29.813 30.164c-21.5 2.371-43.141 2.376-64.641.006zm-111.324 59.953 49.151-3.37c4.324-.298 8.383-2.159 11.429-5.24l7.673-7.764c15.132 2.248 30.353 3.386 45.576 3.386s30.444-1.138 45.577-3.386l7.672 7.763c3.045 3.082 7.104 4.943 11.429 5.241h.001l49.15 3.37-5.986 2.921c-33.395 16.293-70.686 24.905-107.843 24.905s-74.449-8.612-107.843-24.905zm148.016 109.008h-25.768c-4.142 0-7.5 3.357-7.5 7.5s3.358 7.5 7.5 7.5h23.958l11.968 18-7.417-1.591c-5.092-1.094-10.34-.189-14.777 2.55l-3.96 2.446c-1.379.852-3.098.995-4.599.383l-5.004-2.042c-4.893-1.994-10.282-1.995-15.176.001l-5.003 2.041c-1.502.612-3.221.469-4.599-.383l-3.961-2.447c-4.435-2.738-9.681-3.643-14.773-2.549l-7.42 1.591 11.397-17.139h11.277c4.142 0 7.5-3.357 7.5-7.5s-3.358-7.5-7.5-7.5h-13.188c-17.727-11.236-28.659-30.977-28.659-51.998 0-7.459 1.323-14.676 3.9-21.539 18.905 4.282 38.278 6.494 57.619 6.494s38.714-2.212 57.619-6.494c2.577 6.863 3.9 14.08 3.9 21.539-.002 20.705-10.18 39.667-27.334 51.137z"/><path d="m228.839 247.415c-4.142 0-7.5 3.357-7.5 7.5v5.707h-7.539c-10.888 0-19.747 8.858-19.747 19.747v8.47h-7.184c-4.142 0-7.5 3.357-7.5 7.5s3.358 7.5 7.5 7.5h7.184v11.52c0 8.233 5.069 15.299 12.247 18.258v4.478c0 4.143 3.358 7.5 7.5 7.5s7.5-3.357 7.5-7.5v-2.989h15.078v4.133c0 4.143 3.358 7.5 7.5 7.5s7.5-3.357 7.5-7.5v-5.622c4.863-2.005 8.753-5.895 10.758-10.758h5.56c4.142 0 7.5-3.357 7.5-7.5s-3.358-7.5-7.5-7.5h-4.071v-19.989h4.071c4.142 0 7.5-3.357 7.5-7.5s-3.358-7.5-7.5-7.5h-5.56c-2.96-7.178-10.025-12.247-18.258-12.247h-7.539v-5.707c0-4.144-3.358-7.501-7.5-7.501zm19.786 32.954v34.989c0 2.617-2.129 4.747-4.747 4.747h-30.078c-2.617 0-4.747-2.13-4.747-4.747v-34.989c0-2.617 2.129-4.747 4.747-4.747h30.078c2.618 0 4.747 2.13 4.747 4.747z"/></g></g></svg>