<svg id="Capa_1" enable-background="new 0 0 510.961 510.961" height="512" viewBox="0 0 510.961 510.961" width="512" xmlns="http://www.w3.org/2000/svg"><g><g><path d="m249.079 503.461h11.375c5.383 0 9.746-4.364 9.746-9.746v-217.839h-30.868v217.838c.001 5.383 4.364 9.747 9.747 9.747z" fill="#be8f7d"/><g id="XMLID_285_"><g><path d="m494.157 341.054c3.64 0 5.62 4.26 3.27 7.04l-48.77 58.84 48.77 58.83c2.35 2.78.37 7.04-3.27 7.04h-101.59c-1.37 0-2.67-.61-3.56-1.66l-49.828-58.695c-2.7-3.181-2.701-7.849 0-11.031l49.828-58.704c.89-1.05 2.19-1.66 3.56-1.66z" fill="#fcf1de"/></g></g><g id="XMLID_286_"><g><path d="m464.377 341.054-55.63 64 55.63 67.75h-36.99l-55.55-65.87 55.55-65.88z" fill="#f6e2c4"/></g></g><g><path d="m487.749 421.616c8.111 0 14.687-6.575 14.687-14.687s-6.575-14.687-14.687-14.687h-438.724v29.373h438.724z" fill="#be8f7d"/></g><path d="m119.005 121.245-34.972-4.513c-2.244-.29-3.539-2.697-2.545-4.729l2.04-4.169c4.074-8.324 11.837-14.238 20.944-15.953l11.646-2.194 14.453-2.132v37.32z" fill="#f8dbac"/><path d="m215.263 78.241 15.354-18.152c8.427-9.963 3.283-25.312-9.445-28.186l-6.497-1.467c-2.035-.46-3.818-1.68-4.982-3.412l-.557-.828c-8.392-12.486-24.101-17.811-38.356-13.002l-5.846 1.972c-2.272.766-4.765.496-6.82-.738l-6.942-4.171c-7.499-4.506-17.087-3.43-23.401 2.626-6.751 6.475-7.915 16.848-2.767 24.658l8.442 12.808 5.021 22.835 6.158 37.23h40.946z" fill="#ea9a98"/><path d="m130.094 27.343c6.314-6.056 15.902-7.132 23.401-2.625l6.942 4.171c2.055 1.235 4.549 1.505 6.82.739l5.846-1.973c14.254-4.809 29.964.517 38.356 13.002l.557.829c1.164 1.731 2.946 2.952 4.982 3.412l6.497 1.467c4.633 1.046 8.255 3.75 10.589 7.24 2.589-9.122-2.73-19.403-12.912-21.703l-6.497-1.467c-2.035-.459-3.818-1.68-4.982-3.412l-.557-.828c-8.392-12.486-24.101-17.811-38.356-13.002l-5.846 1.972c-2.272.767-4.765.497-6.82-.738l-6.942-4.171c-7.499-4.506-17.087-3.431-23.401 2.625-6.582 6.313-7.844 16.347-3.132 24.082.827-3.561 2.658-6.937 5.455-9.62z" fill="#e5827f"/><g><path d="m208.568 131.95 4.251-6.201c13.812-20.149 9.263-47.608-10.309-62.226-20.313-15.172-49.107-10.829-64.042 9.659l-8.604 11.803-13.746 4.702 1.645 5.55c1.939 6.542 2.569 13.402 1.855 20.187l-1.558 14.805c-1.23 11.682 2.819 23.303 11.04 31.693l9.47 9.663c-32.784 77.92 24.433 164.069 108.969 164.069h20.311c55.883 0 104.133-39.13 115.673-93.808l7.504-35.556 10.989-19.284c1.655-2.905 1.688-6.459.087-9.394l-7.3-13.382c-1.536-2.816-1.813-6.149-.764-9.18l8.271-23.893c1.403-4.053-.039-8.546-3.539-11.026l-5.668-4.015c-3.015-2.135-4.806-5.6-4.806-9.294v-48.536c0-2.109-1.71-3.818-3.818-3.818h-5.42c-51.066 0-92.464 41.397-92.464 92.464v3.017c0 22.031-17.86 39.892-39.891 39.892-22.062 0-39.934-17.907-39.891-39.968l.024-12.346c.002-1.992.606-3.936 1.731-5.577z" fill="#fcf1de"/><g><path d="m280.27 332.186c-80.265 0-135.902-77.664-113.256-152.209 2.309-7.599.377-15.85-5.182-21.523-8.222-8.39-12.27-20.011-11.04-31.693l1.558-14.805c.314-2.981 2.33-9.219 4.492-15.276 3.383-9.479 8.125-18.415 14.054-26.548l.304-.417c4.333-5.944 9.825-10.537 15.945-13.681-17.667-4.775-37.233 1.448-48.677 17.146l-8.604 11.803-13.746 4.702 1.645 5.55c1.939 6.542 2.569 13.401 1.855 20.187l-1.558 14.805c-1.23 11.682 2.819 23.303 11.04 31.693l9.47 9.663c-32.784 77.92 24.433 164.069 108.969 164.069h20.311c9.77 0 19.305-1.2 28.453-3.466z" fill="#f6e2c4"/></g><circle cx="254.767" cy="406.929" fill="#b3e5ee" r="30.317"/></g><path d="m89.369 444.518-9.369-38.302 9.369-38.302c1.072-4.381-3.59-7.936-7.531-5.745l-70.442 39.166c-3.827 2.128-3.827 7.632 0 9.76l70.442 39.166c3.941 2.193 8.603-1.363 7.531-5.743z" fill="#e5827f"/></g><g><path d="m83.073 124.17 27.706 3.576-.179 1.698c-1.469 13.954 3.322 27.705 13.143 37.727l6.052 6.176c-9.675 25.686-10.742 52.952-3.047 79.171.959 3.27 3.95 5.39 7.193 5.39.699 0 1.411-.099 2.116-.306 3.974-1.166 6.25-5.334 5.084-9.309-7.18-24.464-5.679-49.983 4.342-73.8 1.171-2.784.558-6-1.557-8.157l-9.47-9.663c-6.679-6.816-9.937-16.168-8.938-25.658l1.559-14.805c.772-7.338.188-14.647-1.739-21.75l6.953-2.378c1.457-.499 2.726-1.434 3.633-2.679l8.604-11.803c6.033-8.276 14.934-13.676 25.061-15.203 10.127-1.53 20.226 1.007 28.433 7.136 16.407 12.254 20.19 35.085 8.611 51.976l-4.252 6.202c-1.986 2.898-3.04 6.288-3.046 9.801l-.024 12.346c-.024 12.677 4.894 24.599 13.848 33.57 8.955 8.972 20.867 13.913 33.543 13.913 26.132 0 47.392-21.26 47.392-47.391v-3.018c0-17.382 5.216-34.095 15.085-48.333 2.359-3.404 1.513-8.077-1.892-10.437s-8.077-1.514-10.437 1.892c-11.617 16.76-17.757 36.428-17.757 56.878v3.018c0 17.86-14.531 32.391-32.392 32.391-8.664 0-16.806-3.377-22.927-9.509-6.12-6.133-9.481-14.281-9.465-22.945l.024-12.346c.001-.484.146-.951.419-1.35l4.251-6.201c10.615-15.485 11.969-34.549 5.152-50.648l12.186-14.408c5.665-6.696 7.383-15.66 4.596-23.977s-9.559-14.437-18.114-16.368l-6.5-1.469c-.167-.037-.311-.137-.409-.282l-.555-.825c-10.25-15.25-29.566-21.798-46.977-15.925l-5.848 1.972c-.188.062-.39.041-.559-.061l-6.942-4.171c-10.375-6.232-23.72-4.736-32.456 3.642-9.365 8.981-10.979 23.364-3.837 34.198l7.678 11.648 3.997 18.178-5.22 7.161-11.001 3.763-11.113 2.094c-11.375 2.143-21.204 9.63-26.292 20.026l-2.039 4.168c-1.528 3.12-1.457 6.81.189 9.869s4.69 5.15 8.134 5.595zm49.889-105.875c3.861-3.705 9.76-4.366 14.347-1.61l6.941 4.17c3.948 2.374 8.715 2.891 13.081 1.417l5.847-1.972c11.019-3.717 23.247.428 29.735 10.082l.555.824c2.242 3.337 5.636 5.661 9.554 6.545l6.498 1.468c3.45.779 6.073 3.149 7.196 6.503 1.124 3.353.458 6.824-1.826 9.523l-9.006 10.648c-2.581-3.058-5.539-5.88-8.886-8.379-11.443-8.548-25.525-12.082-39.645-9.95-9.095 1.372-17.471 4.993-24.536 10.473l-2.045-9.301c-.197-.896-.558-1.749-1.063-2.517l-8.442-12.809c-3.158-4.788-2.444-11.146 1.695-15.115zm-27.101 80.956 4.967-.936c1.294 4.743 1.793 9.608 1.478 14.503l-21.472-2.771c3.146-5.602 8.681-9.601 15.027-10.796z"/><path d="m476.33 429.116h11.419c12.234 0 22.187-9.953 22.187-22.187s-9.953-22.187-22.187-22.187h-11.419l26.83-31.811c2.989-3.544 3.632-8.356 1.678-12.561s-6.047-6.815-10.683-6.815h-101.583c-3.593 0-6.982 1.575-9.299 4.322l-39.526 46.864h-58.383c-2.167-2.98-4.756-5.633-7.682-7.869.003-.088.019-.172.019-.261v-33.857c25.261-2.003 49.573-11.649 69.337-27.678 22.324-18.104 37.887-43.562 43.822-71.685l7.262-34.409 10.409-18.268c2.963-5.201 3.021-11.443.155-16.697l-7.299-13.382c-.523-.96-.619-2.103-.261-3.136l8.271-23.894c2.478-7.159-.109-15.218-6.292-19.601l-5.667-4.012c-1.028-.729-1.642-1.916-1.642-3.176v-48.53c0-6.241-5.078-11.318-11.318-11.318h-5.42c-20.884 0-40.89 6.375-57.857 18.436-3.376 2.4-4.167 7.083-1.767 10.459 2.4 3.375 7.082 4.166 10.458 1.768 14.414-10.246 31.415-15.662 49.166-15.662h1.738v44.853c0 6.116 2.979 11.878 7.972 15.416l5.666 4.012c.774.549 1.099 1.559.789 2.454l-8.271 23.894c-1.736 5.016-1.274 10.564 1.268 15.225l7.3 13.383c.353.647.345 1.447-.02 2.088l-10.989 19.285c-.384.675-.662 1.404-.822 2.164l-7.504 35.556c-5.227 24.768-18.933 47.188-38.594 63.132-19.66 15.944-44.428 24.725-69.741 24.725h-20.312c-38.563 0-73.74-19.579-94.098-52.373-2.185-3.521-6.809-4.603-10.328-2.417-3.519 2.185-4.601 6.809-2.417 10.328 20.316 32.727 53.634 53.854 91.137 58.491v34.432c0 .089.012.175.015.264-2.924 2.235-5.512 4.887-7.678 7.866h-61.992c-4.142 0-7.5 3.357-7.5 7.5s3.358 7.5 7.5 7.5h55.466c-.45 2.328-.694 4.729-.694 7.187s.244 4.858.694 7.187h-127.989l-1.932-7.899 1.583-6.474h40.911c4.142 0 7.5-3.357 7.5-7.5s-3.358-7.5-7.5-7.5h-37.242l3.68-15.047c1.197-4.892-.618-10.026-4.622-13.081-4.005-3.054-9.437-3.447-13.839-.999l-70.441 39.16c-4.149 2.306-6.727 6.688-6.727 11.434 0 4.748 2.577 9.13 6.726 11.437l70.443 39.166c1.923 1.069 4.042 1.597 6.154 1.597 2.722 0 5.43-.876 7.685-2.596 4.004-3.055 5.819-8.189 4.622-13.082l-3.331-13.62h130.846c2.166 2.979 4.753 5.63 7.677 7.866-.003.088-.015.175-.015.264v66.215c0 4.143 3.358 7.5 7.5 7.5s7.5-3.357 7.5-7.5v-59.559c2.56.549 5.213.844 7.934.844s5.374-.295 7.934-.844v59.559c0 4.143 3.358 7.5 7.5 7.5s7.5-3.357 7.5-7.5v-66.215c0-.088-.017-.172-.02-.26 2.926-2.236 5.516-4.89 7.683-7.87h58.383l39.526 46.864c2.317 2.747 5.706 4.322 9.299 4.322h101.583c4.636 0 8.729-2.611 10.683-6.815s1.311-9.017-1.678-12.56zm-403.615-21.117 8.1 33.113-62.762-34.896 62.762-34.896-8.1 33.113c-.286 1.172-.286 2.395 0 3.566zm383.993-23.256h-19.366l30.521-36.187h19.365zm-8.466-36.187-30.521 36.187h-17.366l30.521-36.187zm-54.352 0h17.365l-30.521 36.187h-17.365zm-147.057-5.415c.235.001.469.011.705.011h15.163v26.805c-2.56-.549-5.213-.844-7.934-.844s-5.374.295-7.934.844zm-14.883 63.788c0-12.581 10.236-22.816 22.817-22.816s22.817 10.235 22.817 22.816-10.236 22.816-22.817 22.816c-12.581.001-22.817-10.235-22.817-22.816zm59.94-7.186h195.859c3.962 0 7.187 3.224 7.187 7.187s-3.224 7.187-7.187 7.187h-195.859c.45-2.328.694-4.729.694-7.187s-.244-4.859-.694-7.187zm138.986 65.559-30.521-36.187h17.366l30.52 36.187zm-67.507-36.186h17.365l30.521 36.187h-17.365zm104.494 36.186-30.521-36.187h19.366l30.52 36.187z"/></g></g></svg>