<svg id="Capa_1" enable-background="new 0 0 512.201 512.201" height="512" viewBox="0 0 512.201 512.201" width="512" xmlns="http://www.w3.org/2000/svg"><g><g><path d="m338.717 117.26c0-35.792-14.417-70.075-39.996-95.111-19.957-19.533-51.867-19.533-71.824 0-25.579 25.036-39.996 59.319-39.996 95.111v246.29h151.816z" fill="#fbe88c"/><path d="m293.833 295.962c-6.014 4.494-14.447 3.385-19.29-2.352-11.317-13.407-24.984-24.481-40.191-32.771-7.302-3.98-11.875-11.599-11.875-19.915v-117.465c0-35.792 14.417-70.075 39.996-95.111 7.522-7.362 16.753-11.948 26.391-13.76-19.534-11.514-45.049-8.997-61.966 7.561-25.579 25.036-39.996 59.319-39.996 95.111v246.29h30.39 5.185 116.24v-86.286c-16.44 2.466-31.799 8.92-44.884 18.698z" fill="#fbe372"/><path d="m285.466 453.661h-44.313v31.871c0 10.587 8.582 19.169 19.169 19.169h5.974c10.587 0 19.169-8.582 19.169-19.169v-31.871z" fill="#f6e2c4"/><g><g id="XMLID_292_"><g><path d="m386.049 292.859-27.23-1.58c-31.22-1.81-60.94 13.58-77.47 40.12l-34.316 42.773-24.557 72.323 16.502 21.984c1.92.12 3.85.18 5.8.18h36.57.49c53.87 0 97.54-43.67 97.54-97.54v-44.119l12.62-23.51c2.501-4.651-.679-10.321-5.949-10.631z" fill="#d8efa7"/><g><path d="m313.759 456.581-43.515-.185c-16.854-.997-32.573-6.265-46.123-14.743l-1.645 4.843 16.502 21.984c1.92.12 3.85.18 5.8.18h36.57.49c18.248 0 35.322-5.016 49.927-13.736-5.838 1.084-11.856 1.657-18.006 1.657z" fill="#c5e97d"/></g><path d="m281.349 331.399v42.93c0 30.67-11.46 60.24-32.12 82.91l-10.25 11.24c-51.17-2.99-91.74-45.44-91.74-97.36v-44.12l-27.46-54.33c-1.13-2.24-.03-4.96 2.34-5.78l3.77-1.31c57.51-19.96 121.05 4.2 150.8 57.32 2.81 5.02 4.55 8.18 4.66 8.5z" fill="#c5e97d"/></g></g><path d="m177.104 356.365v-45.331l-25.684-51.426c-8.556 1.078-17.108 3.048-25.53 5.971l-3.77 1.31c-2.37.82-3.47 3.54-2.34 5.78l27.46 54.33v44.12c0 51.92 40.57 94.37 91.74 97.36l10.25-11.24c1.07-1.174 2.109-2.371 3.129-3.581-43.21-10.768-75.255-50.243-75.255-97.293z" fill="#b1e254"/></g></g><g><path d="m186.901 190.703c4.142 0 7.5-3.357 7.5-7.5v-65.942c0-33.562 13.756-66.276 37.742-89.751 16.909-16.551 44.422-16.55 61.332-.001 4.629 4.531 8.954 9.483 12.854 14.718 2.475 3.32 7.173 4.007 10.496 1.533 3.321-2.476 4.008-7.174 1.533-10.496-4.364-5.856-9.206-11.399-14.391-16.475-11.062-10.827-25.678-16.789-41.158-16.789-15.479 0-30.096 5.962-41.158 16.789-26.85 26.279-42.25 62.9-42.25 100.472v65.942c0 4.143 3.358 7.5 7.5 7.5z"/><path d="m398.484 292.887c-2.468-4.41-6.952-7.219-11.997-7.511l-27.234-1.581c-4.383-.255-8.736-.193-13.035.16v-166.694c0-18.889-3.728-37.291-11.079-54.697-1.613-3.817-6.017-5.603-9.827-3.991-3.815 1.611-5.603 6.012-3.991 9.827 6.567 15.549 9.897 31.988 9.897 48.861v169.17c-19.099 4.795-36.331 15.588-49.031 30.988-19.513-33.615-51.835-55.94-87.785-63.484v-38.757c0-4.143-3.358-7.5-7.5-7.5s-7.5 3.357-7.5 7.5v36.495c-18.45-1.713-37.493.408-55.971 6.821l-3.773 1.31c-3.173 1.102-5.715 3.519-6.974 6.632-1.259 3.114-1.113 6.619.402 9.617l26.649 52.731v42.337c0 54.163 41.208 98.878 93.918 104.452v9.959c0 14.706 11.964 26.67 26.669 26.67h5.975c14.705 0 26.669-11.964 26.669-26.67v-9.979c29.198-3.143 56.173-18.516 73.701-42.478 2.445-3.343 1.718-8.035-1.626-10.48-3.341-2.447-8.035-1.719-10.48 1.625-16.922 23.132-44.106 36.941-72.718 36.941h-26.067c21.333-23.946 33.069-54.716 33.069-86.83v-40.729c15.292-23.141 41.758-36.442 69.539-34.832l26.803 1.556-12.411 23.124c-.585 1.091-.892 2.31-.892 3.547v44.124c0 9.012-1.329 17.913-3.951 26.456-1.215 3.96 1.01 8.155 4.97 9.37 3.957 1.21 8.155-1.009 9.37-4.97 3.06-9.97 4.611-20.352 4.611-30.856v-42.238l11.723-21.843c2.39-4.452 2.344-9.743-.123-14.153zm-120.519 192.644c0 6.435-5.234 11.67-11.669 11.67h-5.975c-6.434 0-11.669-5.235-11.669-11.67v-9.37h29.312v9.37zm-34.283-33.344-7.782 8.537c-45.498-4.473-81.165-42.95-81.165-89.604v-44.124c0-1.175-.276-2.334-.806-3.383l-25.723-50.899.143-.05c54.145-18.791 113.781 3.876 141.793 53.897 2.013 3.595 3.107 5.578 3.703 6.672v41.098c-.001 28.871-10.712 56.522-30.163 77.856z"/><path d="m267.127 42.409h-7.492c-4.142 0-7.5 3.357-7.5 7.5s3.358 7.5 7.5 7.5h7.492c4.143 0 7.5-3.357 7.5-7.5s-3.357-7.5-7.5-7.5z"/><path d="m244.717 73.971h-7.492c-4.142 0-7.5 3.357-7.5 7.5s3.358 7.5 7.5 7.5h7.492c4.142 0 7.5-3.357 7.5-7.5s-3.358-7.5-7.5-7.5z"/><path d="m237.225 136.242c-4.142 0-7.5 3.357-7.5 7.5s3.358 7.5 7.5 7.5h7.492c4.142 0 7.5-3.357 7.5-7.5s-3.358-7.5-7.5-7.5z"/><path d="m244.717 217.609c4.142 0 7.5-3.357 7.5-7.5s-3.358-7.5-7.5-7.5h-7.492c-4.142 0-7.5 3.357-7.5 7.5s3.358 7.5 7.5 7.5z"/><path d="m218.73 104.697c-4.142 0-7.5 3.357-7.5 7.5s3.358 7.5 7.5 7.5h7.492c4.142 0 7.5-3.357 7.5-7.5s-3.358-7.5-7.5-7.5z"/><path d="m266.555 104.697h-7.492c-4.142 0-7.5 3.357-7.5 7.5s3.358 7.5 7.5 7.5h7.492c4.143 0 7.5-3.357 7.5-7.5s-3.357-7.5-7.5-7.5z"/><path d="m218.73 184.016h7.492c4.142 0 7.5-3.357 7.5-7.5s-3.358-7.5-7.5-7.5h-7.492c-4.142 0-7.5 3.357-7.5 7.5s3.358 7.5 7.5 7.5z"/><path d="m296.893 81.471c0-4.143-3.357-7.5-7.5-7.5h-7.492c-4.143 0-7.5 3.357-7.5 7.5s3.357 7.5 7.5 7.5h7.492c4.143 0 7.5-3.358 7.5-7.5z"/><path d="m296.893 143.742c0-4.143-3.357-7.5-7.5-7.5h-7.492c-4.143 0-7.5 3.357-7.5 7.5s3.357 7.5 7.5 7.5h7.492c4.143 0 7.5-3.357 7.5-7.5z"/><path d="m274.401 210.109c0 4.143 3.357 7.5 7.5 7.5h7.492c4.143 0 7.5-3.357 7.5-7.5s-3.357-7.5-7.5-7.5h-7.492c-4.143 0-7.5 3.358-7.5 7.5z"/><path d="m281.901 274.145h7.492c4.143 0 7.5-3.357 7.5-7.5s-3.357-7.5-7.5-7.5h-7.492c-4.143 0-7.5 3.357-7.5 7.5s3.357 7.5 7.5 7.5z"/><path d="m307.887 104.697h-7.492c-4.143 0-7.5 3.357-7.5 7.5s3.357 7.5 7.5 7.5h7.492c4.143 0 7.5-3.357 7.5-7.5s-3.357-7.5-7.5-7.5z"/><path d="m307.887 169.016h-7.492c-4.143 0-7.5 3.357-7.5 7.5s3.357 7.5 7.5 7.5h7.492c4.143 0 7.5-3.357 7.5-7.5s-3.357-7.5-7.5-7.5z"/><path d="m266.555 169.016h-7.492c-4.142 0-7.5 3.357-7.5 7.5s3.358 7.5 7.5 7.5h7.492c4.143 0 7.5-3.357 7.5-7.5s-3.357-7.5-7.5-7.5z"/><path d="m218.73 243.829h7.492c4.142 0 7.5-3.357 7.5-7.5s-3.358-7.5-7.5-7.5h-7.492c-4.142 0-7.5 3.357-7.5 7.5s3.358 7.5 7.5 7.5z"/><path d="m307.887 243.829c4.143 0 7.5-3.357 7.5-7.5s-3.357-7.5-7.5-7.5h-7.492c-4.143 0-7.5 3.357-7.5 7.5s3.357 7.5 7.5 7.5z"/><path d="m259.063 243.829h7.492c4.143 0 7.5-3.357 7.5-7.5s-3.357-7.5-7.5-7.5h-7.492c-4.142 0-7.5 3.357-7.5 7.5s3.358 7.5 7.5 7.5z"/></g></g></svg>