<svg id="Capa_1" enable-background="new 0 0 512.226 512.226" height="512" viewBox="0 0 512.226 512.226" width="512" xmlns="http://www.w3.org/2000/svg"><g><path d="m405.437 340.278-35.975-14.397-24.725-9.682-38.584-17.671h-93.797l-44.866 17.671-60.701 24.08c-45.352 21.208-74.716 66.864-74.716 117.429v32.604c0 7.961 6.454 14.415 14.415 14.415h60.302l25.69-16.945h255.378l17.581 16.945h60.302c7.961 0 14.415-6.454 14.415-14.415v-32.604c-.003-50.566-29.367-96.221-74.719-117.43z" fill="#fbe88c"/><g><path d="m344.737 316.199-38.584-17.671h-93.797l-64.172 25.33-41.394 16.421c-45.352 21.208-74.716 66.864-74.716 117.429v32.604c0 7.961 6.454 14.415 14.415 14.415h21.371v-27.444c0-50.565 29.364-96.22 74.716-117.429l2.925-1.16c6.807-2.7 14.515-.828 19.474 4.56 10.17 11.049 24.17 18.475 39.889 20.238l.466.364c14.528 11.361 32.686 17.619 51.129 17.619 18.442 0 36.6-6.258 51.128-17.619l.466-.364c30.546-3.425 54.624-28.224 56.669-59.466z" fill="#fbe372"/><path d="m405.437 504.725v-164.719c0-3.451-2.066-6.566-5.245-7.908l-20.701-8.74c-4.887-2.063-10.457.756-11.689 5.916l-20.801 87.16c-1.303 5.46-5.434 9.803-10.822 11.378l-1.193.349c-51.505 15.051-106.241 15.051-157.745 0l-1.193-.349c-5.388-1.575-9.519-5.917-10.822-11.378l-20.801-87.16c-1.231-5.16-6.801-7.979-11.689-5.916l-20.701 8.74c-3.179 1.342-5.245 4.458-5.245 7.908v164.719z" fill="#b3e5ee"/><path d="m358.573 84.333-20.703-15.138-44.918-10.554h-105.546l-33.714 25.562-.004-.001c-2.785 9.519-4.286 19.585-4.286 30.001v32.91h213.42v-32.91c0-10.372-1.486-20.395-4.246-29.875z" fill="#c9a291"/><path d="m373.317 201.913c0 10.738-8.705 19.444-19.444 19.444h-195.521c-10.738 0-19.444-8.705-19.444-19.444v-54.798h234.408v54.798z" fill="#ffe6c6"/><path d="m138.909 198.731c37.123 14.689 76.822 22.292 117.578 22.292 40.473 0 79.916-7.501 116.83-22v-51.909h-234.408z" fill="#f8d3aa"/><path d="m167.676 230.931-10.909 13.73c-12.969 16.323-12.731 39.498.57 55.551l8.097 9.772c1.454 1.755 2.296 3.937 2.398 6.215l.249 5.578c1.052 23.559 20.459 42.118 44.041 42.118h.148l5.378 4.206c22.799 17.83 54.815 17.83 77.615 0l5.378-4.206h.148c23.583 0 42.989-18.559 44.041-42.118l.249-5.578c.102-2.277.944-4.459 2.398-6.215l8.097-9.772c13.301-16.053 13.539-39.229.57-55.551l-10.909-13.73v-89.61h-177.746z" fill="#f9f7f7"/><path d="m167.489 141.321.141 67.208c28.611 8.252 58.439 12.495 88.857 12.495 30.375 0 60.168-4.234 88.751-12.469v-67.234z" fill="#f2eae7"/><path d="m194.681 285.342c0 5.351 5.081 9.241 10.246 7.846 33.749-9.114 69.311-9.114 103.059 0 5.166 1.395 10.246-2.496 10.246-7.846v-134.371h-123.551z" fill="#ffe6c6"/><path d="m194.681 215.061c20.185 3.949 40.855 5.962 61.806 5.962 20.927 0 41.577-2.011 61.746-5.954v-64.099h-123.552z" fill="#f8d3aa"/><g><path d="m362.349 104.282-27.016 3.705c-25.996 3.565-52.481 5.373-78.721 5.373-21.688 0-43.541-1.247-65.149-3.693-6.153-.696-10.342-6.543-9.129-12.615 1.682-8.418 4.354-16.48 7.891-24.058l-36.534 11.209-.003-.007c-2.786 9.52-4.287 19.588-4.287 30.007v32.91h21.851 9.002 182.566v-32.91c.003-3.347-.168-6.653-.471-9.921z" fill="#be8f7d"/><path d="m175.853 122.847-81.985-11.243c-18.685-2.562-28.351 21.581-13.061 32.621 104.697 75.599 246.017 75.742 350.867.355l.404-.291c15.328-11.021 5.673-35.208-13.031-32.643l-81.675 11.2c-53.589 7.35-107.93 7.35-161.519.001z" fill="#c9a291"/><path d="m434.087 125.623-.405.291c-104.849 75.388-246.17 75.245-350.867-.354-2.727-1.969-4.646-4.358-5.876-6.935-5.489 7.456-5.383 18.923 3.867 25.603 104.697 75.599 246.018 75.742 350.867.355l.405-.291c7.992-5.747 9.182-15.067 5.849-22.313-1.047 1.315-2.314 2.547-3.84 3.644z" fill="#be8f7d"/><g><g id="XMLID_294_"><g><path d="m358.573 84.333-21.2 2.91c-53.59 7.34-107.93 7.34-161.52 0l-22.16-3.04c5.08-17.41 14.49-32.97 26.97-45.45 19.31-19.31 45.99-31.25 75.45-31.25 48.56 0 89.55 32.44 102.46 76.83z" fill="#e0c8bf"/></g></g></g><path d="m354.271 504.726v-27.148c0-3.723-3.018-6.741-6.741-6.741h-182.834c-3.723 0-6.741 3.018-6.741 6.741v27.148z" fill="#86d7e5"/></g><path d="m256.113 7.503c-29.46 0-56.14 11.94-75.45 31.25-12.48 12.48-21.89 28.04-26.97 45.45l22.16 3.04c2.865.393 5.734.753 8.604 1.104 5.072-17.518 14.509-33.185 27.06-45.736 18.807-18.808 44.617-30.638 73.167-31.24-9.094-2.52-18.676-3.868-28.571-3.868z" fill="#d3b5a8"/><path d="m142.574 359.853 2.925-1.16c1.845-.732 3.755-1.117 5.659-1.198l-6.735-28.222c-1.231-5.16-6.802-7.979-11.689-5.916l-20.701 8.74c-3.179 1.342-5.245 4.458-5.245 7.908v44.688c10.293-10.087 22.329-18.547 35.786-24.84z" fill="#86d7e5"/></g><g><path d="m412.22 335.252c-1.376-4.461-4.654-8.181-9.112-10.063l-20.7-8.739c-4.365-1.845-9.293-1.674-13.519.465-.246.125-.473.274-.711.41l-13.126-5.141 5.954-7.187c15.474-18.676 15.754-46.013.667-65.003l-8.849-11.137h1.048c14.856 0 26.943-12.087 26.943-26.944v-19.605c19.178-8.493 37.701-19.03 55.238-31.64l.4-.288c9.725-6.992 13.275-19.164 8.835-30.287-4.441-11.123-15.398-17.506-27.263-15.876l-47.765 6.55c-.882-30.29-13.397-58.354-35.475-79.343-3.003-2.854-7.75-2.733-10.604.268-2.854 3.003-2.734 7.75.268 10.604 10.783 10.251 18.935 22.447 24.148 35.833l-12.246 1.68c-52.914 7.257-106.57 7.256-159.482 0l-13.126-1.8c14.495-36.854 50.434-63.009 92.37-63.009 15.401 0 30.166 3.437 43.883 10.215 3.709 1.835 8.211.312 10.046-3.401s.312-8.211-3.401-10.046c-15.802-7.809-32.802-11.768-50.528-11.768-61.776 0-112.248 49.306-114.144 110.631l-47.083-6.457c-11.85-1.632-22.806 4.746-27.253 15.854-4.446 11.107-.917 23.275 8.783 30.279 17.458 12.606 35.897 23.156 54.992 31.674v19.933c0 14.857 12.087 26.944 26.943 26.944h1.048l-8.849 11.138c-15.087 18.989-14.807 46.326.667 65.002l5.954 7.187-13.126 5.141c-.238-.136-.465-.286-.711-.41-4.226-2.139-9.155-2.309-13.518-.465l-20.703 8.739c-4.456 1.883-7.734 5.603-9.11 10.063-45.952 23.17-75.433 70.79-75.433 122.455v47.019c0 4.143 3.357 7.5 7.5 7.5s7.5-3.357 7.5-7.5v-47.019c0-43.151 23.092-83.132 59.717-104.959v86.126c0 4.143 3.357 7.5 7.5 7.5s7.5-3.357 7.5-7.5v-98.868c0-.437.261-.829.662-.999l20.702-8.739c.307-.13.613-.12.91.031.298.15.487.391.565.716l20.801 87.159c1.924 8.06 8.06 14.51 16.014 16.836l1.193.349c52.976 15.481 108.978 15.481 161.953 0l1.194-.35c7.953-2.325 14.089-8.775 16.013-16.835l20.801-87.159c.078-.325.268-.565.565-.716s.604-.159.911-.031l20.699 8.739c.403.17.664.562.664.999v164.72c0 4.143 3.357 7.5 7.5 7.5s7.5-3.357 7.5-7.5v-151.962c36.621 21.826 59.717 61.793 59.717 104.942v47.019c0 4.143 3.357 7.5 7.5 7.5s7.5-3.357 7.5-7.5v-47.019c.003-51.666-29.479-99.286-75.431-122.455zm-46.403-133.339c0 6.586-5.357 11.944-11.943 11.944h-1.48v-20.615c4.501-1.479 8.979-3.059 13.424-4.753v13.424zm-206.52-109.374 15.537 2.131c27.132 3.72 54.455 5.58 81.778 5.58s54.646-1.86 81.779-5.58l14.601-2.003c1.435 6.543 2.215 13.284 2.307 20.152l-18.948 2.598c-52.911 7.256-106.568 7.256-159.481 0l-19.945-2.735c.107-6.907.919-13.644 2.372-20.143zm-77.738 33.064c1.345-3.359 4.533-6.686 9.599-6.686.542 0 1.106.038 1.691.118l81.985 11.243c54.263 7.441 109.291 7.441 163.556 0l81.676-11.2c6.048-.829 9.807 2.852 11.293 6.576 1.487 3.725 1.307 8.976-3.663 12.549l-.4.288c-102.385 73.614-239.862 73.476-342.099-.345-4.953-3.577-5.127-8.825-3.638-12.543zm64.85 76.31v-13.701c4.445 1.707 8.922 3.296 13.424 4.789v20.856h-1.48c-6.587 0-11.944-5.358-11.944-11.944zm15.886 47.413 10.909-13.729c1.054-1.327 1.628-2.972 1.628-4.666v-33.367c4.099 1.13 8.216 2.168 12.349 3.125v84.653c0 4.903 2.232 9.426 6.126 12.407 3.893 2.981 8.837 3.956 13.576 2.68 32.432-8.759 66.717-8.759 99.148.001 1.364.368 2.745.549 4.113.549 3.384 0 6.691-1.107 9.463-3.229 3.894-2.981 6.126-7.504 6.126-12.407v-32.022c0-4.143-3.357-7.5-7.5-7.5s-7.5 3.357-7.5 7.5v32.022c0 .085 0 .31-.246.498-.245.188-.464.129-.545.108-34.989-9.451-71.979-9.45-106.971-.001-.08.021-.297.083-.545-.107-.246-.188-.246-.413-.246-.498v-81.573c17.953 3.223 36.127 4.843 54.304 4.842 18.156-.001 36.312-1.62 54.249-4.837v17.582c0 4.143 3.357 7.5 7.5 7.5s7.5-3.357 7.5-7.5v-20.658c3.901-.903 7.788-1.881 11.659-2.938v33.171c0 1.694.574 3.339 1.628 4.666l10.909 13.729c10.7 13.469 10.501 32.856-.474 46.102l-8.095 9.771c-2.482 2.993-3.944 6.782-4.117 10.667l-.249 5.577c-.876 19.6-16.93 34.953-36.549 34.953h-.148c-1.675 0-3.302.561-4.62 1.592l-5.378 4.206c-20.129 15.741-48.246 15.741-68.375 0l-5.378-4.206c-1.318-1.031-2.945-1.592-4.62-1.592h-.148c-19.619 0-35.673-15.354-36.549-34.953l-.249-5.576c-.173-3.886-1.635-7.675-4.115-10.666l-8.097-9.772c-10.974-13.248-11.173-32.636-.473-46.104zm177.412 165.365c-.677 2.834-2.835 5.103-5.631 5.92l-1.193.349c-50.223 14.678-103.316 14.676-153.539 0l-1.192-.348c-2.797-.818-4.955-3.087-5.632-5.921l-20.169-84.51 8.334-3.264c3.364 24.479 23.68 43.229 48.581 44.417l3.419 2.674c12.785 9.998 28.106 14.997 43.428 14.997s30.644-4.999 43.428-14.997l3.419-2.674c24.901-1.188 45.217-19.938 48.581-44.417l8.334 3.264z"/><path d="m106.789 463.337c-4.143 0-7.5 3.357-7.5 7.5v33.889c0 4.143 3.357 7.5 7.5 7.5s7.5-3.357 7.5-7.5v-33.889c0-4.143-3.358-7.5-7.5-7.5z"/><path d="m347.53 463.336h-182.834c-7.853 0-14.241 6.389-14.241 14.242v27.147c0 4.143 3.357 7.5 7.5 7.5s7.5-3.357 7.5-7.5v-26.39h181.316v26.39c0 4.143 3.357 7.5 7.5 7.5s7.5-3.357 7.5-7.5v-27.147c0-7.853-6.389-14.242-14.241-14.242z"/><path d="m379.097 398.542c-4.143 0-7.5 3.357-7.5 7.5v7.659c0 4.143 3.357 7.5 7.5 7.5s7.5-3.357 7.5-7.5v-7.659c0-4.143-3.357-7.5-7.5-7.5z"/><path d="m134.128 398.542c-4.143 0-7.5 3.357-7.5 7.5v7.659c0 4.143 3.357 7.5 7.5 7.5s7.5-3.357 7.5-7.5v-7.659c0-4.143-3.357-7.5-7.5-7.5z"/></g></g></svg>