<svg id="Capa_1" enable-background="new 0 0 512.805 512.805" height="512" viewBox="0 0 512.805 512.805" width="512" xmlns="http://www.w3.org/2000/svg"><g><g><path d="m291.082 214.797 43.923 24.149v36.505c0 8.777 7.116 15.893 15.893 15.893 8.777 0 15.893-7.116 15.893-15.893v-47.817c0-3.273-1.14-6.443-3.224-8.967l-26.523-32.118-42.679-47.897-46.599 55.952z" fill="#ede2dd"/><path d="m220.722 214.797-43.922 24.148v36.505c0 8.777-7.116 15.893-15.893 15.893-8.777 0-15.893-7.116-15.893-15.893v-47.817c0-3.273 1.14-6.443 3.224-8.967l26.523-32.118 47.924-47.897s39.994 53.505 39.253 54.202-41.216 21.944-41.216 21.944z" fill="#ede2dd"/><path d="m240.857 257.902h30.09v69.6h-30.09z" fill="#ded4cf"/><path d="m273.337 238.945 10.764 10.764c1.093 1.093 1.707 2.575 1.707 4.12v12.244c0 3.218-2.609 5.827-5.827 5.827h-46.156c-3.218 0-5.827-2.609-5.827-5.827v-12.243c0-1.545.614-3.028 1.707-4.12l10.764-10.764v-66.844h33.387z" fill="#ede2dd"/><g><g fill="#ded4cf"><path d="m240.468 229.797h32.94l.447-57.696h-33.387z"/><path d="m337.044 186.548-42.679-47.897-46.599 55.952 43.316 20.195 19.505 10.724c11.006-3.964 21.016-10.571 29.005-19.415l7.106-7.867z"/><path d="m222.684 138.65-47.924 47.897-9.654 11.69 7.106 7.868c7.988 8.844 17.999 15.451 29.004 19.415l19.505-10.724s40.473-21.247 41.215-21.944-39.252-54.202-39.252-54.202z"/></g><path d="m375.588 143.875-47.127 52.176c-10.78 11.935-26.11 18.746-42.192 18.746h-60.733c-16.082 0-31.412-6.811-42.192-18.746l-47.127-52.176-71.123-.002v-30.502h73.411l64.467-35.883c10.735-5.975 22.816-9.111 35.102-9.111h35.657c12.285 0 24.367 3.136 35.102 9.111l64.467 35.883h79.57v31.075z" fill="#f2eae7"/></g><path d="m390.771 123.792c-9.659-.071-18.887 3.988-25.361 11.156l-36.949 40.908c-10.78 11.935-26.11 18.746-42.192 18.746h-60.732c-16.083 0-31.413-6.811-42.192-18.746l-37.05-41.019c-6.416-7.103-15.539-11.157-25.111-11.157h-8.776c-2.79 0-5.052-2.262-5.052-5.052v-5.257h-42.262v10.308 7.268 12.927l71.124.002 47.126 52.176c10.78 11.935 26.11 18.746 42.192 18.746h60.732c16.083 0 31.413-6.811 42.192-18.746l47.126-52.176 77.282.571v-20.195z" fill="#ede2dd"/><g><g id="XMLID_297_"><g><path d="m91.85 119.224h-53.159l-5.829 10.469v20.08c0 16.33 13.24 29.56 29.57 29.56h5.33c16.32 0 29.56-13.23 29.56-29.56v-20.08z" fill="#ede2dd"/></g></g><g id="XMLID_299_"><g><path d="m470.522 102.433h-45.62c-5.2 0-9.42 4.22-9.42 9.42v17.84l9.184 10.659h42.17l13.106-10.659v-17.84c0-5.2-4.22-9.42-9.42-9.42z" fill="#f2eae7"/><path d="m479.942 129.693v20.08c0 16.33-13.24 29.56-29.57 29.56h-5.33c-16.32 0-29.56-13.23-29.56-29.56v-20.08z" fill="#ede2dd"/></g></g><path d="m431.002 106.402c0-1.42.324-2.762.887-3.969h-6.987c-5.2 0-9.42 4.22-9.42 9.42v17.84l9.184 10.659h6.336z" fill="#ede2dd"/><path d="m465.892 173.882h-5.33c-16.32 0-29.56-13.23-29.56-29.56v-14.629h-15.52v20.08c0 16.33 13.24 29.56 29.56 29.56h5.33c6.403 0 12.339-2.04 17.18-5.497-.545.03-1.107.046-1.66.046z" fill="#ded4cf"/><path d="m298.689 168.652h-85.573c-8.089 0-14.647-6.558-14.647-14.647v-13.102c0-8.089 6.558-14.647 14.647-14.647h85.573c8.089 0 14.647 6.558 14.647 14.647v13.102c0 8.089-6.558 14.647-14.647 14.647z" fill="#f9f7f7"/><path d="m271.566 352.738h-31.326c-3.968 0-7.185-3.217-7.185-7.185v-21.867c0-3.968 3.217-7.185 7.185-7.185h31.326c3.968 0 7.185 3.217 7.185 7.185v21.867c0 3.969-3.217 7.185-7.185 7.185z" fill="#f2eae7"/><g fill="#b3e5ee"><path d="m374.077 368.733c6.449-8.148 5.071-19.982-3.077-26.431-5.47-4.329-20.89-5.72-30.436-6.167-4.005-.187-7.014 3.614-5.911 7.469 2.628 9.188 7.524 23.876 12.994 28.206 8.148 6.449 19.981 5.072 26.43-3.077z"/><path d="m395.936 462.3c6.449-8.148 5.071-19.982-3.077-26.431-5.47-4.329-20.89-5.72-30.436-6.167-4.005-.187-7.014 3.614-5.911 7.469 2.628 9.188 7.524 23.876 12.994 28.206 8.148 6.449 19.981 5.071 26.43-3.077z"/><path d="m475.879 393.761c6.449-8.148 5.071-19.982-3.077-26.431-5.47-4.329-20.89-5.72-30.436-6.167-4.005-.187-7.014 3.614-5.911 7.469 2.628 9.188 7.524 23.876 12.994 28.206 8.148 6.449 19.981 5.072 26.43-3.077z"/><path d="m138.727 368.733c-6.449-8.148-5.071-19.982 3.077-26.431 5.47-4.329 20.89-5.72 30.436-6.167 4.005-.187 7.014 3.614 5.911 7.469-2.628 9.188-7.524 23.876-12.994 28.206-8.147 6.449-19.981 5.072-26.43-3.077z"/><path d="m116.869 462.3c-6.449-8.148-5.071-19.982 3.077-26.431 5.47-4.329 20.89-5.72 30.436-6.167 4.005-.187 7.014 3.614 5.911 7.469-2.628 9.188-7.524 23.876-12.994 28.206-8.148 6.449-19.981 5.071-26.43-3.077z"/><path d="m36.926 393.761c-6.449-8.148-5.071-19.982 3.077-26.431 5.47-4.329 20.89-5.72 30.436-6.167 4.005-.187 7.014 3.614 5.911 7.469-2.628 9.188-7.524 23.876-12.994 28.206-8.148 6.449-19.982 5.072-26.43-3.077z"/></g></g><path d="m81.78 174.391h-5.33c-16.33 0-29.57-13.23-29.57-29.56v-25.607h-8.188l-5.829 10.469v20.08c0 16.33 13.24 29.56 29.57 29.56h5.33c6.126 0 11.818-1.864 16.539-5.057-.833.07-1.672.115-2.522.115z" fill="#ded4cf"/><path d="m97.322 111.853v17.84h-64.46v-17.84c0-5.2 4.22-9.42 9.42-9.42h45.62c5.2 0 9.42 4.22 9.42 9.42z" fill="#f2eae7"/><path d="m46.88 106.911c0-1.621.41-3.146 1.132-4.478h-5.729c-5.2 0-9.42 4.22-9.42 9.42v17.84h14.017z" fill="#ede2dd"/></g><g><path d="m505.305 50.503h-50.094v-7.141c0-4.143-3.357-7.5-7.5-7.5s-7.5 3.357-7.5 7.5v7.141h-50.094c-4.143 0-7.5 3.357-7.5 7.5s3.357 7.5 7.5 7.5h50.094v29.428h-15.309c-7.223 0-13.385 4.557-15.809 10.939h-33.847l-16.98-9.451c-3.619-2.014-8.186-.712-10.201 2.906-2.014 3.619-.713 8.187 2.906 10.201l18.682 10.397c1.115.62 2.371.946 3.647.946h34.681v15.505h-32.393c-2.121 0-4.144.898-5.565 2.473l-47.127 52.176c-9.342 10.342-22.691 16.273-36.627 16.273h-60.732c-13.936 0-27.285-5.932-36.627-16.273l-47.127-52.176c-1.422-1.574-3.444-2.473-5.565-2.473h-31.393v-15.504h33.681c1.276 0 2.532-.326 3.647-.946l64.468-35.883c9.594-5.34 20.471-8.163 31.454-8.163h35.656c10.983 0 21.86 2.823 31.454 8.164l17.778 9.896c3.62 2.014 8.187.712 10.201-2.906 2.014-3.619.713-8.187-2.906-10.201l-17.778-9.895c-11.818-6.58-25.218-10.058-38.749-10.058h-35.656c-13.531 0-26.931 3.478-38.749 10.057l-62.767 34.936h-32.847c-2.424-6.383-8.587-10.939-15.809-10.939h-15.309v-29.429h50.094c4.143 0 7.5-3.357 7.5-7.5s-3.357-7.5-7.5-7.5h-50.094v-7.141c0-4.143-3.357-7.5-7.5-7.5s-7.5 3.357-7.5 7.5v7.141h-50.094c-4.143 0-7.5 3.357-7.5 7.5s3.357 7.5 7.5 7.5h50.094v29.428h-15.309c-9.331 0-16.922 7.591-16.922 16.922v37.917c0 20.438 16.628 37.066 37.066 37.066h5.329c19.899 0 36.18-15.765 37.025-35.461h28.101l31.968 35.393-22.399 27.123c-3.186 3.858-4.939 8.739-4.939 13.742v47.817c0 12.898 10.494 23.393 23.394 23.393 12.898 0 23.393-10.494 23.393-23.393v-32.069l38.482-21.157c.917.04 1.834.073 2.755.073h7.432v13.542l-8.567 8.567c-2.517 2.518-3.903 5.864-3.903 9.424v12.244c0 7.191 5.729 13.055 12.86 13.304v31.344c-4.637 2.472-7.804 7.354-7.804 12.965v21.867c0 8.097 6.588 14.685 14.686 14.685h31.326c8.098 0 14.686-6.588 14.686-14.685v-21.867c0-5.611-3.167-10.493-7.804-12.965v-31.32h1.533c7.349 0 13.327-5.979 13.327-13.327v-12.245c0-3.56-1.387-6.906-3.903-9.423l-8.567-8.568v-13.542h5.432c.921 0 1.838-.034 2.755-.073l38.482 21.157v32.069c0 12.898 10.494 23.393 23.394 23.393 12.898 0 23.393-10.494 23.393-23.393v-6.886c0-4.143-3.357-7.5-7.5-7.5s-7.5 3.357-7.5 7.5v6.886c0 4.628-3.765 8.393-8.393 8.393s-8.394-3.765-8.394-8.393v-36.505c0-2.735-1.489-5.254-3.887-6.572l-27.481-15.109c8.638-3.622 16.49-9.101 22.889-16.186l2.763-3.06 20.994 25.422c.972 1.177 1.507 2.665 1.507 4.191v8.97c0 4.143 3.357 7.5 7.5 7.5s7.5-3.357 7.5-7.5v-8.97c0-5.004-1.755-9.885-4.94-13.742l-22.398-27.122 31.968-35.393h29.101c.844 19.696 17.125 35.461 37.025 35.461h5.329c20.438 0 37.066-16.628 37.066-37.066v-37.917c0-9.331-7.591-16.922-16.922-16.922h-15.309v-29.427h50.094c4.143 0 7.5-3.357 7.5-7.5s-3.361-7.5-7.503-7.5zm-463.02 59.428h45.617c1.06 0 1.922.862 1.922 1.922v10.341h-49.461v-10.341c0-1.06.863-1.922 1.922-1.922zm25.474 61.905h-5.329c-12.167 0-22.066-9.899-22.066-22.066v-12.576h49.461v12.576c-.001 12.167-9.899 22.066-22.066 22.066zm105.428 60.537c-2.397 1.318-3.887 3.837-3.887 6.572v36.505c0 4.628-3.766 8.393-8.394 8.393s-8.393-3.765-8.393-8.393v-47.817c0-1.526.535-3.016 1.507-4.192l20.994-25.422 2.763 3.06c6.4 7.085 14.251 12.563 22.889 16.186zm98.064 112.865h-30.697v-21.237h30.697zm-7.804-36.237h-15.09v-29.6h15.09zm4.586-64.753 10.274 10.275v9.878h-42.811v-9.878l10.274-10.275c1.406-1.406 2.196-3.313 2.196-5.303v-16.648h17.869v16.648c.002 1.99.792 3.897 2.198 5.303zm182.342-72.412h-5.329c-12.167 0-22.065-9.899-22.065-22.066v-12.576h49.461v12.576c-.001 12.167-9.9 22.066-22.067 22.066zm22.066-59.983v10.341h-49.461v-10.341c0-1.06.862-1.922 1.922-1.922h45.617c1.06 0 1.922.862 1.922 1.922z"/><path d="m362.367 383.195c6.981-.812 13.229-4.296 17.591-9.808s6.317-12.393 5.504-19.374c-.812-6.982-4.296-13.229-9.808-17.592-2.043-1.617-8.26-6.537-34.74-7.778-4.291-.206-8.438 1.69-11.103 5.056-2.664 3.367-3.551 7.841-2.37 11.969 7.289 25.484 13.507 30.406 15.551 32.023 4.694 3.716 10.382 5.685 16.279 5.685 1.027 0 2.061-.06 3.096-.181zm-19.86-39.447c15.467.902 22.253 3.181 23.839 4.436 2.37 1.876 3.868 4.562 4.218 7.564.349 3.002-.491 5.961-2.367 8.331s-4.562 3.868-7.564 4.218c-3 .352-5.961-.491-8.331-2.367-1.587-1.256-5.364-7.336-9.795-22.182z"/><path d="m397.513 429.988c-2.044-1.617-8.263-6.54-34.74-7.778-4.276-.197-8.438 1.689-11.103 5.057-2.664 3.366-3.551 7.84-2.37 11.967 7.289 25.486 13.507 30.407 15.551 32.024 4.695 3.716 10.382 5.685 16.279 5.685 1.026 0 2.06-.061 3.095-.181 6.982-.812 13.23-4.296 17.592-9.808s6.317-12.393 5.504-19.375c-.813-6.981-4.297-13.229-9.808-17.591zm-7.458 27.658c-1.876 2.37-4.562 3.867-7.564 4.217-3.002.348-5.961-.491-8.331-2.366-1.586-1.256-5.363-7.337-9.793-22.182 15.464.9 22.251 3.18 23.838 4.436 2.37 1.876 3.868 4.562 4.218 7.564.348 3.001-.492 5.96-2.368 8.331z"/><path d="m477.456 361.45c-2.044-1.617-8.263-6.54-34.74-7.778-4.271-.204-8.438 1.689-11.103 5.057-2.664 3.366-3.551 7.84-2.37 11.967 7.289 25.486 13.507 30.407 15.551 32.024 4.695 3.716 10.382 5.685 16.279 5.685 1.026 0 2.06-.061 3.095-.181 6.982-.812 13.23-4.296 17.592-9.808s6.317-12.393 5.504-19.375c-.813-6.981-4.296-13.229-9.808-17.591zm-7.458 27.657c-1.876 2.37-4.562 3.867-7.564 4.217s-5.961-.492-8.331-2.366c-1.586-1.256-5.363-7.337-9.793-22.182 15.464.9 22.251 3.18 23.838 4.436 2.37 1.876 3.868 4.562 4.218 7.564.348 3.002-.492 5.961-2.368 8.331z"/><path d="m171.891 328.644c-26.48 1.241-32.697 6.161-34.74 7.778-5.512 4.362-8.995 10.609-9.808 17.592-.813 6.981 1.142 13.862 5.504 19.374 4.361 5.512 10.609 8.995 17.591 9.808 1.036.121 2.068.181 3.096.181 5.897 0 11.585-1.969 16.279-5.685 2.044-1.617 8.262-6.539 15.551-32.023 1.181-4.128.294-8.602-2.37-11.969-2.666-3.367-6.821-5.261-11.103-5.056zm-11.387 37.286c-2.37 1.876-5.326 2.718-8.331 2.367-3.002-.35-5.688-1.848-7.564-4.218s-2.716-5.329-2.367-8.331c.35-3.002 1.848-5.688 4.218-7.564 1.586-1.255 8.372-3.533 23.839-4.436-4.432 14.846-8.209 20.926-9.795 22.182z"/><path d="m150.032 422.21c-26.478 1.238-32.696 6.161-34.74 7.778-5.512 4.361-8.995 10.609-9.808 17.591s1.142 13.863 5.504 19.375c4.361 5.512 10.609 8.995 17.592 9.808 1.035.121 2.067.181 3.095.181 5.896-.001 11.585-1.97 16.279-5.685 2.044-1.617 8.262-6.538 15.551-32.024 1.181-4.127.294-8.601-2.37-11.967-2.665-3.368-6.804-5.255-11.103-5.057zm-11.386 37.286c-2.37 1.876-5.334 2.714-8.331 2.366-3.003-.35-5.688-1.847-7.564-4.217s-2.716-5.329-2.367-8.331c.35-3.002 1.848-5.688 4.218-7.564 1.587-1.256 8.374-3.535 23.838-4.436-4.431 14.845-8.209 20.926-9.794 22.182z"/><path d="m70.089 353.672c-26.478 1.238-32.696 6.161-34.74 7.778-5.512 4.361-8.995 10.609-9.808 17.591s1.142 13.863 5.504 19.375c4.361 5.512 10.609 8.995 17.592 9.808 1.035.121 2.067.181 3.095.181 5.896-.001 11.585-1.97 16.279-5.685 2.044-1.617 8.262-6.538 15.551-32.024 1.181-4.127.294-8.601-2.37-11.967-2.666-3.368-6.81-5.262-11.103-5.057zm-11.387 37.286c-2.37 1.876-5.333 2.716-8.331 2.366-3.003-.35-5.688-1.847-7.564-4.217s-2.716-5.329-2.367-8.331c.35-3.002 1.848-5.688 4.218-7.564 1.587-1.256 8.374-3.535 23.838-4.436-4.431 14.845-8.208 20.926-9.794 22.182z"/><path d="m213.116 133.756h14.881c4.143 0 7.5-3.357 7.5-7.5s-3.357-7.5-7.5-7.5h-14.881c-12.212 0-22.147 9.936-22.147 22.147v13.102c0 12.212 9.936 22.146 22.147 22.146h85.572c12.212 0 22.147-9.935 22.147-22.146v-13.102c0-12.212-9.936-22.147-22.147-22.147h-38.729c-4.143 0-7.5 3.357-7.5 7.5s3.357 7.5 7.5 7.5h38.729c3.941 0 7.147 3.206 7.147 7.147v13.102c0 3.94-3.206 7.146-7.147 7.146h-85.572c-3.941 0-7.147-3.206-7.147-7.146v-13.102c0-3.941 3.206-7.147 7.147-7.147z"/></g></g></svg>